<svg width="28" height="28" viewBox="0 0 28 28" fill="none" xmlns="http://www.w3.org/2000/svg">
<path d="M13.1247 20.9987C13.1247 21.4819 13.5164 21.8737 13.9997 21.8737C14.4829 21.8737 14.8747 21.4819 14.8747 20.9987V17.4987C14.8747 17.0154 14.4829 16.6237 13.9997 16.6237C13.5164 16.6237 13.1247 17.0154 13.1247 17.4987V20.9987Z" fill="#9F9FA3"/>
<path fill-rule="evenodd" clip-rule="evenodd" d="M13.9997 1.45703C13.1538 1.45703 12.382 1.68933 11.5372 2.08365C10.7194 2.46536 9.77368 3.02872 8.58848 3.73475L6.89026 4.74637C5.58464 5.52411 4.54425 6.14385 3.75652 6.73648C2.94333 7.34826 2.33299 7.97824 1.93526 8.80787C1.53732 9.63792 1.42947 10.5066 1.46407 11.5205C1.49755 12.5019 1.66923 13.695 1.8845 15.1909L2.22558 17.5613C2.50253 19.4862 2.72231 21.0137 3.05064 22.2029C3.38911 23.4288 3.86934 24.4018 4.73593 25.148C5.60182 25.8936 6.63782 26.227 7.90541 26.386C9.13647 26.5404 10.6896 26.5404 12.649 26.5404H15.3503C17.3097 26.5404 18.8629 26.5404 20.0939 26.386C21.3615 26.227 22.3975 25.8936 23.2634 25.148C24.13 24.4018 24.6102 23.4288 24.9487 22.2029C25.277 21.0137 25.4968 19.4862 25.7738 17.5614L26.1149 15.1909C26.3301 13.6949 26.5018 12.5019 26.5353 11.5205C26.5699 10.5066 26.462 9.63792 26.0641 8.80787C25.6664 7.97824 25.056 7.34826 24.2428 6.73648C23.4551 6.14385 22.4147 5.52411 21.1091 4.74637L19.4109 3.73475C18.2257 3.02872 17.28 2.46536 16.4622 2.08365C15.6174 1.68933 14.8456 1.45703 13.9997 1.45703ZM9.44452 5.26178C10.6783 4.52684 11.5488 4.00948 12.2773 3.66942C12.9879 3.33774 13.4989 3.20703 13.9997 3.20703C14.5005 3.20703 15.0114 3.33774 15.722 3.66942C16.4506 4.00948 17.3211 4.52683 18.5548 5.26178L20.1705 6.22421C21.5288 7.03338 22.4874 7.60576 23.1908 8.13492C23.8773 8.65142 24.2533 9.0788 24.4861 9.5644C24.7187 10.0496 24.8154 10.6076 24.7863 11.4608C24.7565 12.3357 24.5996 13.4344 24.3755 14.9916L24.0503 17.2518C23.7627 19.2505 23.5571 20.6676 23.2618 21.7371C22.9732 22.7824 22.6259 23.3876 22.1215 23.8219C21.6165 24.2567 20.9618 24.5135 19.8762 24.6496C18.7666 24.7888 17.3232 24.7904 15.2901 24.7904H12.7093C10.6761 24.7904 9.23274 24.7888 8.12317 24.6496C7.03754 24.5135 6.38284 24.2567 5.87782 23.8219C5.3735 23.3876 5.02612 22.7824 4.73753 21.7371C4.44223 20.6676 4.23666 19.2505 3.94907 17.2518L3.62384 14.9916C3.39978 13.4344 3.2429 12.3357 3.21305 11.4608C3.18394 10.6076 3.28068 10.0496 3.51329 9.5644C3.74609 9.0788 4.12206 8.65142 4.8086 8.13492C5.51196 7.60576 6.47051 7.03338 7.82888 6.22421L9.44452 5.26178Z" fill="#9F9FA3"/>
</svg>
