<svg width="24" height="24" viewBox="0 0 24 24" fill="none" xmlns="http://www.w3.org/2000/svg">
<path fill-rule="evenodd" clip-rule="evenodd" d="M12 7.60547C9.82538 7.60547 8.0625 9.36835 8.0625 11.543C8.0625 12.7088 8.56859 13.7558 9.37445 14.4774L9.37699 14.4797C9.70171 14.7704 9.94839 14.9913 10.1247 15.153C10.2908 15.3052 10.4223 15.4296 10.4912 15.5146L10.4987 15.5239C10.6278 15.6831 10.7403 15.8219 10.8144 15.9879C10.8886 16.1539 10.917 16.3302 10.9495 16.5326L10.9514 16.5444C10.9681 16.6481 10.9748 16.7755 10.9774 16.9388H13.0226C13.0252 16.7755 13.0319 16.6481 13.0486 16.5444L13.0505 16.5326C13.083 16.3302 13.1114 16.1539 13.1856 15.9879C13.2597 15.8219 13.3722 15.6831 13.5013 15.5239L13.5088 15.5146C13.5777 15.4296 13.7092 15.3052 13.8753 15.153C14.0516 14.9913 14.2983 14.7704 14.623 14.4796L14.6255 14.4774C15.4314 13.7558 15.9375 12.7088 15.9375 11.543C15.9375 9.36835 14.1746 7.60547 12 7.60547ZM13.0171 17.8138H10.9829C10.9848 17.8746 10.9877 17.9277 10.992 17.9755C11.0039 18.1069 11.024 18.1545 11.0378 18.1784C11.0762 18.2449 11.1314 18.3001 11.1979 18.3385C11.2218 18.3523 11.2694 18.3724 11.4008 18.3843C11.5381 18.3967 11.7194 18.3971 12 18.3971C12.2806 18.3971 12.4619 18.3967 12.5992 18.3843C12.7306 18.3724 12.7782 18.3523 12.8021 18.3385C12.8686 18.3001 12.9238 18.2449 12.9622 18.1784C12.976 18.1545 12.9961 18.1069 13.008 17.9755C13.0123 17.9277 13.0152 17.8746 13.0171 17.8138ZM7.1875 11.543C7.1875 8.8851 9.34213 6.73047 12 6.73047C14.6579 6.73047 16.8125 8.8851 16.8125 11.543C16.8125 12.9679 16.1926 14.2487 15.2092 15.1292C14.8815 15.4227 14.6386 15.6402 14.4666 15.7979C14.3805 15.8768 14.3147 15.9384 14.2662 15.9857C14.242 16.0093 14.2235 16.028 14.2097 16.0424C14.2028 16.0496 14.1977 16.0552 14.194 16.0593C14.1902 16.0636 14.1886 16.0655 14.1886 16.0655C14.0368 16.2528 14.004 16.3011 13.9844 16.3449C13.9649 16.3887 13.9508 16.4454 13.9125 16.6834C13.8974 16.7773 13.8958 16.9382 13.8958 17.3763V17.3951C13.8958 17.6516 13.8959 17.8729 13.8794 18.0545C13.862 18.2465 13.8235 18.4367 13.72 18.6159C13.6048 18.8154 13.4391 18.9811 13.2396 19.0963C13.0604 19.1998 12.8702 19.2383 12.6782 19.2557C12.4966 19.2722 12.2753 19.2721 12.0188 19.2721H11.9812C11.7247 19.2721 11.5034 19.2722 11.3218 19.2557C11.1298 19.2383 10.9396 19.1998 10.7604 19.0963C10.5609 18.9811 10.3952 18.8154 10.28 18.6159C10.1765 18.4367 10.138 18.2465 10.1206 18.0545C10.1041 17.8729 10.1042 17.6516 10.1042 17.3951L10.1042 17.3763C10.1042 16.9382 10.1026 16.7773 10.0875 16.6834C10.0492 16.4454 10.0351 16.3887 10.0156 16.3449C9.99601 16.3011 9.96316 16.2528 9.8114 16.0655C9.81129 16.0654 9.80966 16.0634 9.80602 16.0593C9.80229 16.0552 9.79715 16.0496 9.79033 16.0424C9.77654 16.028 9.75802 16.0093 9.73382 15.9857C9.68527 15.9384 9.61948 15.8768 9.53344 15.7979C9.36135 15.6402 9.11853 15.4227 8.79076 15.1292C7.80737 14.2487 7.1875 12.9679 7.1875 11.543ZM10.7703 13.7893C10.9795 13.6683 11.2471 13.7397 11.3681 13.9489C11.4949 14.168 11.7307 14.3138 12 14.3138C12.2693 14.3138 12.5051 14.168 12.6319 13.9489C12.7529 13.7397 13.0205 13.6683 13.2297 13.7893C13.4388 13.9103 13.5103 14.1779 13.3893 14.387C13.1832 14.7433 12.8432 15.0136 12.4375 15.1284V15.918C12.4375 16.1596 12.2416 16.3555 12 16.3555C11.7584 16.3555 11.5625 16.1596 11.5625 15.918V15.1284C11.1568 15.0136 10.8168 14.7433 10.6107 14.387C10.4897 14.1779 10.5612 13.9103 10.7703 13.7893Z" fill="#9F9FA3"/>
<path fill-rule="evenodd" clip-rule="evenodd" d="M22.75 12C22.75 6.06294 17.9371 1.25 12 1.25C6.06294 1.25 1.25 6.06294 1.25 12C1.25 13.7183 1.65371 15.3445 2.37213 16.7869C2.47933 17.0021 2.50208 17.2219 2.4526 17.4068L1.857 19.6328C1.44927 21.1566 2.84337 22.5507 4.3672 22.143L6.59324 21.5474C6.77814 21.4979 6.99791 21.5207 7.21315 21.6279C8.65553 22.3463 10.2817 22.75 12 22.75C17.9371 22.75 22.75 17.9371 22.75 12ZM12 2.75C17.1086 2.75 21.25 6.89137 21.25 12C21.25 17.1086 17.1086 21.25 12 21.25C10.5189 21.25 9.12121 20.9025 7.88191 20.2852C7.38451 20.0375 6.78973 19.9421 6.20553 20.0984L3.97949 20.694C3.57066 20.8034 3.19663 20.4293 3.30602 20.0205L3.90163 17.7945C4.05794 17.2103 3.96254 16.6155 3.7148 16.1181C3.09752 14.8788 2.75 13.4811 2.75 12C2.75 6.89137 6.89137 2.75 12 2.75Z" fill="#9F9FA3"/>
</svg>
