<svg width="28" height="28" viewBox="0 0 28 28" fill="none" xmlns="http://www.w3.org/2000/svg">
<path fill-rule="evenodd" clip-rule="evenodd" d="M11.6022 1.45703H16.3969C17.9924 1.45701 19.2785 1.45699 20.2899 1.59298C21.3401 1.73416 22.2243 2.0362 22.9265 2.73844C23.6287 3.44068 23.9308 4.32486 24.072 5.37499C24.2079 6.38645 24.2079 7.67249 24.2079 9.26802V18.7294C24.2079 20.3249 24.2079 21.6109 24.072 22.6224C23.9308 23.6725 23.6287 24.5567 22.9265 25.259C22.2243 25.9612 21.3401 26.2632 20.2899 26.4044C19.2785 26.5404 17.9924 26.5404 16.3969 26.5404H11.6022C10.0067 26.5404 8.72065 26.5404 7.70919 26.4044C6.65906 26.2632 5.77488 25.9612 5.07264 25.259C4.3704 24.5567 4.06836 23.6725 3.92718 22.6224C3.88203 22.2866 3.85187 21.9206 3.83173 21.523C3.78614 21.379 3.77726 21.2218 3.81312 21.065C3.79121 20.3744 3.79122 19.5977 3.79123 18.7294V9.26801C3.79121 7.67249 3.79119 6.38645 3.92718 5.37499C4.06836 4.32486 4.3704 3.44068 5.07264 2.73844C5.77488 2.0362 6.65906 1.73416 7.70919 1.59298C8.72065 1.45699 10.0067 1.45701 11.6022 1.45703ZM5.57245 21.2893C5.59018 21.702 5.61799 22.065 5.66157 22.3892C5.77667 23.2453 5.98719 23.6986 6.31008 24.0215C6.63297 24.3444 7.0863 24.5549 7.94237 24.67C8.82362 24.7885 9.99158 24.7904 11.6662 24.7904H16.3329C18.0076 24.7904 19.1755 24.7885 20.0568 24.67C20.9128 24.5549 21.3662 24.3444 21.6891 24.0215C22.0119 23.6986 22.2225 23.2453 22.3376 22.3892C22.4342 21.6703 22.4533 20.7605 22.457 19.5404H9.21364C8.07234 19.5404 7.67334 19.5479 7.36757 19.6298C6.52837 19.8547 5.85936 20.4785 5.57245 21.2893ZM22.4579 17.7904V9.33203C22.4579 7.65738 22.456 6.48941 22.3376 5.60817C22.2225 4.7521 22.0119 4.29877 21.6891 3.97588C21.3662 3.65299 20.9128 3.44247 20.0568 3.32737C19.1755 3.20889 18.0076 3.20703 16.3329 3.20703H11.6662C10.6071 3.20703 9.75066 3.20778 9.04123 3.23829V17.7903C9.05362 17.7903 9.06605 17.7903 9.07854 17.7903C9.12291 17.7904 9.16794 17.7904 9.21364 17.7904H22.4579ZM7.29123 17.862C7.15997 17.8818 7.03515 17.9071 6.91464 17.9394C6.41533 18.0732 5.95217 18.2918 5.54123 18.5789V9.33203C5.54123 7.65738 5.54309 6.48941 5.66157 5.60817C5.77667 4.7521 5.98719 4.29877 6.31008 3.97588C6.53911 3.74685 6.83377 3.57435 7.29123 3.45235V17.862Z" fill="#9F9FA3"/>
</svg>
