<?xml version="1.0" encoding="utf-8" ?>
<svg xmlns="http://www.w3.org/2000/svg" xmlns:xlink="http://www.w3.org/1999/xlink" width="1024" height="1024">
	<path fill="#030201" d="M0 0L1024 0L1024 79.5059L1024 90.8008L1024 141.478L1024 151.155L1024 152.377L1024 448.229L1024 460.64L1024 573.67L1024 588.84L1024 1024L745.44 1024L734.83 1024L642.077 1024L640.84 1024L632.373 1024L504.91 1024L494.936 1024L446.507 1024L437.077 1024L347.3 1024L337.674 1024L297.378 1024L279.19 1024L257.027 1024L247.622 1024L227.526 1024L216.942 1024L0 1024L0 878.221L0 860.895L0 771.194L0 760.846L0 0Z"/>
	<path fill="#030201" d="M957.343 118.254C960.643 114.963 970.932 109.95 975.333 107.43C991.539 98.1518 1008.1 89.2906 1024 79.5059L1024 90.8008L1024 141.478L1024 151.155L1024 152.377L1024 448.229L1024 460.64L1024 573.67L1024 588.84L1024 1024L745.44 1024L734.83 1024L642.077 1024L640.84 1024L632.373 1024L504.91 1024L494.936 1024L494.972 804.003L494.931 736.892C494.907 725.264 494.284 713.386 494.998 701.794C497.854 694.784 496.343 648.203 496.323 636.749L496.4 589.755C496.84 581.3 496.468 572.63 496.448 564.156L496.105 508.387C496.083 501.704 495.169 494.593 495.646 488L496.138 487.718C496.618 484.794 495.07 474.093 494.608 470.728C494.385 455.999 491.883 441.168 487.995 426.979C482.665 407.53 475.484 388.864 472.89 368.716C463.84 370.396 455.72 370.712 446.545 370.095C443.528 369.709 440.484 369.018 437.486 368.48C426.602 366.334 415.281 359.676 407.381 351.98C404.851 349.515 402.778 347.193 402.747 343.524C403.364 342.422 403.733 342.471 404.896 342.047C407.782 340.994 411.199 340.592 414.21 339.909C420.196 338.55 427.19 336.495 432.638 333.636C433.987 332.928 435.522 332.1 435.975 330.554C435.781 329.584 435.774 328.452 434.735 327.955C433.167 327.204 430.238 326.985 428.474 326.589C423.733 325.527 412.011 322.179 409.522 317.812C409.15 317.16 409.431 316.708 409.577 316.025C411.227 314.113 420.463 311.748 423.477 310.429C428.234 308.348 432.811 305.938 437.382 303.485C440.647 301.515 443.879 299.525 447.048 297.405C463.012 286.941 484.33 270.279 494.54 254.241C497.82 250.386 500.916 246.367 504.177 242.491Q513.108 231.712 522.203 221.072C524.975 218.265 527.489 215.062 530.085 212.084C534.069 208.569 537.546 204.253 541.396 200.553C548.871 193.373 556.763 186.562 564.421 179.572C567.616 177.357 570.372 174.509 573.179 171.83C575.242 171.483 591.795 158.977 595.012 156.842C611.051 146.193 628.869 137.75 646.147 129.335C651.619 125.966 659.555 126.086 665.517 121.951C671.437 122.434 683.398 117.873 689.667 116.302C696.452 114.602 703.418 113.029 710.351 112.081C761.289 105.121 811.382 116.683 855.009 143.63C863.931 149.141 872.309 155.449 880.66 161.778C905.652 146.341 931.71 132.589 957.343 118.254Z"/>
	<path fill="#786CB2" d="M1024 588.84L1024 1024L745.44 1024C750.176 1010.54 753.516 996.515 758.029 982.95C765.156 961.527 773.849 940.288 782.779 919.551C819.973 833.189 878.337 746.396 940.205 675.657Q980.214 630.425 1024 588.84Z"/>
	<path fill="#CABFF2" d="M496.4 589.755C496.84 581.3 496.468 572.63 496.448 564.156L496.105 508.387C496.083 501.704 495.169 494.593 495.646 488L496.138 487.718C499.114 490.058 502.286 492.077 505.462 494.131C512.729 498.815 521.308 501.745 528.191 506.842C528.835 515.314 528.451 523.998 528.457 532.496L528.525 576.236C528.541 584.137 527.563 593.562 529.283 601.248C530.042 604.643 532.401 608.154 534.991 610.428C540.317 615.104 547.713 615.053 554.383 614.45C566.104 613.389 577.149 608.985 588.61 606.636C588.34 615.554 587.441 625.532 594.007 632.653C598.798 637.849 606.57 639.341 613.365 639.466C619.616 639.58 625.865 638.625 632.106 638.395C635.057 638.715 638.348 639.183 640.843 640.889C641.667 643.636 641.455 717.234 641.03 724.847L641.097 724.965C642.375 721.626 641.345 712.236 641.919 707.795C642.765 737.394 641.985 767.184 642.039 796.806L642.077 1024L640.84 1024L632.373 1024L504.91 1024L494.936 1024L494.972 804.003L494.931 736.892C494.907 725.264 494.284 713.386 494.998 701.794C497.854 694.784 496.343 648.203 496.323 636.749L496.4 589.755Z"/>
	<path fill="#CABFF2" d="M505.001 748.439L505.549 554.674C505.55 546.878 504.44 497.259 505.462 494.131C512.729 498.815 521.308 501.745 528.191 506.842C528.835 515.314 528.451 523.998 528.457 532.496L528.525 576.236C528.541 584.137 527.563 593.562 529.283 601.248C530.042 604.643 532.401 608.154 534.991 610.428C540.317 615.104 547.713 615.053 554.383 614.45C566.104 613.389 577.149 608.985 588.61 606.636C588.34 615.554 587.441 625.532 594.007 632.653C598.798 637.849 606.57 639.341 613.365 639.466C619.616 639.58 625.865 638.625 632.106 638.395L631.942 748.58L505.001 748.439Z"/>
	<path fill="#3B2E62" d="M496.4 589.755C496.84 581.3 496.468 572.63 496.448 564.156L496.105 508.387C496.083 501.704 495.169 494.593 495.646 488L496.138 487.718C499.114 490.058 502.286 492.077 505.462 494.131C504.44 497.259 505.55 546.878 505.549 554.674L505.001 748.439L631.942 748.58L632.106 638.395C635.057 638.715 638.348 639.183 640.843 640.889C641.667 643.636 641.455 717.234 641.03 724.847L641.097 724.965C642.375 721.626 641.345 712.236 641.919 707.795C642.765 737.394 641.985 767.184 642.039 796.806L642.077 1024L640.84 1024L632.373 1024L632.156 775.571Q568.579 774.766 504.998 775.061L504.91 1024L494.936 1024L494.972 804.003L494.931 736.892C494.907 725.264 494.284 713.386 494.998 701.794C497.854 694.784 496.343 648.203 496.323 636.749L496.4 589.755Z"/>
	<path fill="#786CB2" d="M505.457 754.086C547.667 754.089 590.092 754.991 632.267 753.829L632.097 769.895C617.537 770.944 601.828 769.506 587.131 769.387L505.312 769.465C505.513 764.346 505.446 759.209 505.457 754.086Z"/>
	<path fill="#9F8BE8" d="M642.207 641.105C650.443 645.429 656.437 651.1 660.978 659.31C657.205 668.276 652.146 679.914 656.19 689.683C657.709 693.352 661.239 695.509 664.832 696.805C671.402 699.174 678.171 698.564 681.895 705.782C684.634 711.09 684.705 717.46 685.704 723.23C687.616 734.279 694.375 744.337 705.31 748.078C715.81 751.672 726.894 747.732 736.29 742.894C746.684 737.541 756.508 730.88 766.481 724.787C790.674 710.005 816.889 698.113 845.751 697.97C833.396 719.465 822.791 742.574 812.413 765.083C785.105 824.314 760.908 884.694 746.781 948.559C741.246 973.579 738.476 998.705 734.83 1024L642.077 1024L642.039 796.806C641.985 767.184 642.765 737.394 641.919 707.795C641.969 685.634 641.415 663.243 642.207 641.105Z"/>
	<path fill="#786CB2" d="M757.912 949.06C759.071 941.951 761.575 934.88 763.406 927.894Q768.803 907.036 775.473 886.55Q782.144 866.064 790.063 846.028Q804.186 809.509 820.48 773.905Q836.773 738.301 855.178 703.741C895.179 627.056 941.115 552.387 998.596 487.42C1006.75 478.205 1015.42 469.457 1024 460.64L1024 573.67C1004.87 592.749 985.111 611.119 966.487 630.72C903.185 697.345 845.992 771.618 802.841 852.972C795.594 866.636 788.167 880.583 781.686 894.62C773.394 912.582 766.133 931.052 757.912 949.06Z"/>
	<path fill="#9F8BE8" d="M1024 152.377L1024 448.229C1013.6 438.218 1005.4 426.917 998.27 414.408C976.978 377.055 975.782 346.992 966.547 307.004C958.861 273.726 946.215 237.609 925.924 209.836C958.854 191.087 991.036 171.023 1024 152.377Z"/>
	<path fill="#9F8BE8" d="M957.343 118.254C960.643 114.963 970.932 109.95 975.333 107.43C991.539 98.1518 1008.1 89.2906 1024 79.5059L1024 90.8008L1024 141.478C1022.67 142.33 1020.96 143.179 1019.86 144.3C1001.55 154.761 983.561 165.755 965.262 176.24C950.308 184.807 934.733 192.894 920.25 202.201C910.208 189.832 899.776 178.9 888.021 168.133C885.601 166.66 883.307 164.179 881.199 162.265C895.345 153.374 910.457 145.248 925.132 137.225C930.13 134.492 954.061 122.08 956.701 119.359C956.998 119.053 957.129 118.623 957.343 118.254Z"/>
	<path fill="#3B2E62" d="M957.343 118.254C960.643 114.963 970.932 109.95 975.333 107.43C991.539 98.1518 1008.1 89.2906 1024 79.5059L1024 90.8008L930.724 143.432L906.73 156.932C900.46 160.427 893.788 163.834 888.021 168.133C885.601 166.66 883.307 164.179 881.199 162.265C895.345 153.374 910.457 145.248 925.132 137.225C930.13 134.492 954.061 122.08 956.701 119.359C956.998 119.053 957.129 118.623 957.343 118.254Z"/>
	<path fill="#3B2E62" d="M1024 141.478L1024 151.155C1017.22 156.229 1006.79 160.923 999.215 165.288C986.678 172.512 974.352 180.109 961.838 187.379C949.712 194.424 936.858 201.334 925.384 209.382L920.492 202.937C925.395 200.757 929.805 197.67 934.401 194.929C940.612 191.224 947.006 187.777 953.294 184.201L992.475 161.448C1001.65 156.107 1011.25 150.953 1020 144.94L1019.86 144.3C1020.96 143.179 1022.67 142.33 1024 141.478Z"/>
	<path fill="#3B2E62" d="M733.051 120.712C747.785 119.601 763.745 121.156 778.171 124.231Q781.095 124.865 784.002 125.576Q786.909 126.286 789.796 127.072Q792.684 127.858 795.549 128.719Q798.415 129.58 801.258 130.516Q804.1 131.452 806.917 132.461Q809.734 133.471 812.523 134.554Q815.313 135.637 818.073 136.792Q820.834 137.947 823.563 139.174Q826.292 140.401 828.988 141.699Q831.685 142.997 834.346 144.365Q837.008 145.733 839.633 147.17Q842.257 148.607 844.844 150.112Q847.43 151.617 849.976 153.188Q852.523 154.76 855.027 156.398Q857.531 158.036 859.992 159.739Q862.453 161.442 864.868 163.208Q867.283 164.975 869.652 166.804Q872.02 168.633 874.34 170.523Q876.66 172.413 878.93 174.363Q881.199 176.313 883.417 178.322Q885.635 180.331 887.8 182.396Q889.965 184.462 892.075 186.584Q894.185 188.706 896.239 190.882Q898.293 193.058 900.289 195.287Q902.286 197.516 904.223 199.797Q906.161 202.077 908.038 204.407Q909.915 206.738 911.731 209.116Q913.547 211.495 915.3 213.92Q917.053 216.345 918.742 218.815Q920.432 221.285 922.056 223.798Q923.68 226.312 925.237 228.866Q926.795 231.421 928.286 234.016C939.468 253.894 947 275.08 952.808 297.086C962.681 334.494 965.008 374.24 982.795 409.269C986.291 416.154 990.664 422.563 994.875 429.021C958.79 425.55 933.324 415.314 906.412 390.497C900.45 384.999 893.431 378.61 889.438 371.512C886.801 366.825 884.998 361.49 882.875 356.544C877.685 344.455 870.679 333.417 860.494 324.932C852.073 317.916 842.104 313.942 831.037 314.974C820.331 315.973 810.75 321.936 804.008 330.158C791.02 345.999 789.29 367.873 791.163 387.493C783.151 382.477 775.706 376.482 767.706 371.386C741.467 354.673 714.873 338.769 689.723 320.424C668.565 304.616 647.864 285.103 633.936 262.506Q629.024 254.673 625.136 246.285C623.606 243.031 618.583 227.83 616.456 226.412C612.507 223.782 605.938 228.61 602.579 230.669C579.955 244.538 562.379 263.706 545.586 283.986C524.219 309.79 502.165 348.867 467.324 357.466C450.633 361.585 433.675 357.732 419.198 348.986C423.312 347.862 427.266 346.543 431.212 344.922C443.65 339.816 453.678 333.748 463.31 324.259C465.54 322.062 468.576 319.228 469.609 316.219C470.09 314.819 469.916 314.191 469.353 312.871C468.011 311.93 467.255 311.669 465.604 311.876C461.344 312.411 457.066 314.61 452.934 315.831C447.004 317.583 439.998 317.334 433.868 317.373C460.104 303.511 483.301 285.997 502.024 262.801C511.017 251.66 519.107 239.642 528.522 228.859C572.136 178.911 630.485 138.84 696.186 125.277C708.366 122.763 720.654 121.518 733.051 120.712Z"/>
	<path fill="#3B2E62" d="M610.527 237.977C610.839 238.264 620.194 259.964 622.345 263.824C636.371 289.003 660.447 312.195 683.184 329.547C698.286 341.071 714.872 351.396 730.975 361.467C743.227 369.13 755.953 376.045 767.692 384.504C774.962 389.742 782.41 395.259 789.018 401.319C791.509 403.604 793.43 406.482 795.951 408.725C796.966 409.628 798.281 410.493 799.641 410.732C800.886 410.951 802.096 410.609 803.065 409.802C806.331 407.083 802.58 394.182 801.982 390.576C801.436 387.281 801.044 383.89 800.839 380.554C800.526 375.454 801.187 369.969 801.879 364.916C803.631 352.131 808.201 339.077 818.935 331.117C824.568 326.94 831.116 324.915 838.133 326.054C848.821 327.788 857.4 335.607 863.441 344.158C880.359 368.107 886.141 401.766 880.952 430.347C878.184 445.588 871.213 463.457 857.306 471.841C852.784 474.567 847.623 475.895 843.249 478.93C842.347 482.074 847.962 516.406 848.47 523.491C849.695 540.587 851.367 574.051 846.595 590.211C841.473 607.555 795.44 658.855 781.69 674.75C774.461 683.702 766.631 692.185 758.896 700.698C752.078 708.202 745.407 715.963 737.701 722.586C732.305 727.224 726.414 731.17 720.56 735.197C721.783 714.968 727.646 695.142 733.578 675.85C737.418 663.361 743.772 645.755 743.951 632.731C744.013 628.2 742.397 623.742 740.417 619.725C736.127 611.02 729.937 603.046 724.146 595.295C712.486 579.685 699.867 564.866 688.173 549.314C674.436 531.045 655.301 505.524 647.147 484.498C639.251 464.138 636.956 440.981 637.334 419.281C637.427 414 637.508 408.495 638.235 403.271C638.783 399.338 639.914 395.424 640.158 391.462C640.209 390.636 640.086 389.994 639.809 389.221C638.859 388.246 638.729 388.008 637.422 387.715C629.17 391.961 608.713 427.324 603.744 436.224C603.042 435.033 602.35 433.792 601.544 432.669C599.664 430.049 597.722 429.266 594.618 428.72C591.061 420.848 588.633 411.363 590.481 402.739C592.435 393.624 597.277 392.94 603.881 388.282C604.895 387.567 605.573 386.798 605.787 385.55C603.275 383.274 595.036 383.395 591.517 382.908C583.253 381.763 573.882 379.647 568.716 372.429C560.144 360.453 563.484 332.053 566.052 317.642C569.8 296.607 580.239 265.719 595 250.102C599.527 245.313 605.149 241.725 610.527 237.977Z"/>
	<path fill="#FDFDFC" d="M581.132 259.986C581.173 261.76 571.206 280.375 569.731 284.581Q566.159 295.061 563.682 305.851Q561.204 316.642 559.847 327.63C557.872 342.991 555.27 363.992 565.502 376.974C571.69 384.826 579.054 386.534 588.524 387.609Q584.34 388.003 580.26 389.013C533.855 400.3 549.692 436.264 529.933 467.998C527.26 472.291 523.391 476.636 518.224 477.707C516.726 478.018 515.159 477.682 513.698 478.091C512.572 478.407 512.469 478.417 511.848 479.447C512.189 480.057 512.53 480.569 513.067 481.03C521.05 487.882 541.868 486.008 551.827 485.457C559.92 494.781 568.204 501.548 579.112 507.386C579.603 511.938 579.654 517.793 581.768 521.865L582.383 521.958C584.407 517.931 585.409 513.212 586.903 508.952C589.51 501.521 592.173 494.23 594.516 486.694C603.969 456.291 614.111 426.156 633.223 400.334C631.702 425.791 632.121 453.299 639.769 477.835C651.272 514.74 695.114 565.673 719.35 596.984C726.479 606.193 736.828 618.185 738.624 629.932C740.408 641.598 729.653 671.598 726.075 683.848C723.024 694.294 719.961 704.802 717.729 715.457C716.08 723.327 715.497 730.996 715.504 739.007C710.474 738.899 706.049 737.782 702.141 734.443C696.391 729.529 694.477 722.093 693.875 714.877C693.641 710.407 693.095 706.738 691.2 702.643C688.246 696.259 683.607 691.381 676.594 689.742C674.066 689.152 671.246 688.811 668.842 687.837C667.111 687.136 665.541 685.847 664.926 684.03C663.015 678.377 666.227 670.771 669.676 666.366C671.972 663.433 675.014 660.942 677.736 658.411C685.88 650.838 696.257 641.992 701.103 631.897C702.847 628.262 703.382 624.625 701.906 620.795C698.92 613.047 689.706 607.547 682.514 604.232C658.62 593.216 635.704 596.7 617.232 615.41C614.349 618.33 608.778 626.003 604.859 626.892C603.664 627.163 602.691 627.154 601.656 626.412C596.33 622.591 599.364 600.426 598.673 593.928C598.654 593.746 598.63 593.564 598.608 593.382C602.824 590.141 607.603 586.638 610.454 582.086C613 578.021 614.377 573.068 613.087 568.339C611.453 562.345 606.386 557.055 601.078 553.974C595.396 550.676 589.322 549.631 582.963 551.494C573.983 554.124 566.921 560.556 562.58 568.695C566.011 565.367 569.626 562.477 573.799 560.118C579.096 557.124 585.673 554.508 591.772 556.358C598.396 558.368 602.114 563.632 605.237 569.398C602.724 567.103 600.14 564.089 596.603 563.547C579.799 560.976 557.094 594.612 544.011 604.035C543.83 604.166 543.645 604.292 543.462 604.421C541.576 602.824 539.337 601.156 538.325 598.836C536.413 594.457 537.37 586.277 537.321 581.448L537.109 534.684C537.089 526.267 537.521 517.549 536.774 509.174C536.544 506.599 536.029 503.631 534.741 501.351C531.148 494.99 513.468 490.571 506.659 482.332C506.529 482.176 506.403 482.016 506.275 481.858C503.122 467.558 503.687 451.531 500.694 436.679C498.533 425.952 494.86 415.56 491.941 405.023Q489.046 394.937 487.01 384.643Q484.975 374.349 483.814 363.92C526.363 339.918 546.272 291.465 581.132 259.986Z"/>
	<path fill="#3B2E62" d="M892.397 391.832C899.425 397.32 905.286 404.59 912.289 410.276C929.333 424.115 951.096 433.574 972.727 437.188C982.184 438.768 991.866 439.355 1001.42 440.094Q1007.92 447.381 1014.74 454.365C1011.21 457.316 1008.08 461.088 1004.91 464.436C997.847 471.904 990.922 479.402 984.203 487.181C931.107 548.657 889.934 616.746 850.637 687.481C815.74 687.058 789.51 697.852 760.3 715.441C780.905 694.027 800.01 671.172 818.771 648.13C828.942 635.638 839.613 623.198 848.671 609.87C851.926 605.079 855.468 599.858 857.071 594.226C863.512 571.594 859.401 510.148 854.884 486.377C862.069 482.841 867.97 479.241 873.361 473.182C888.392 456.285 893.532 432.908 893.504 410.827C893.496 404.463 892.787 398.175 892.397 391.832Z"/>
	<path fill="#FDFDFC" d="M651.386 607.168Q653.522 607.009 655.665 607.025Q657.807 607.04 659.941 607.229Q662.075 607.418 664.187 607.779Q666.299 608.141 668.374 608.672C678.322 611.119 688.604 616.031 694.107 625.028C687.203 635.491 676.074 640.569 665.613 646.619L662.094 642.832Q661.11 642.046 660.091 641.305C643.253 628.881 638.249 626.514 617.225 629.689C625.873 618.4 636.999 609.297 651.386 607.168Z"/>
	<path fill="#FDFDFC" d="M587.516 440.566C589.774 440.868 591.627 443.738 593.201 445.404C589.862 457.112 585.514 468.695 581.719 480.279C580.27 476.575 578.338 472.744 575.399 469.98C573.968 468.634 571.958 467.333 569.893 467.683C568.633 467.896 567.846 468.647 567.183 469.686C565.907 471.685 566.195 474.675 566.88 476.815C568.554 482.052 572.661 485.078 577.34 487.454C577.782 487.576 578.211 487.882 578.612 488.107C578.967 489.6 578.065 491.525 577.596 492.976C569.527 487.488 559.51 480.922 556.292 471.16C555.022 467.306 555.761 463.271 557.657 459.756C563.303 449.29 576.674 443.568 587.516 440.566Z"/>
	<path fill="#FDFDFC" d="M586.753 395.554L587.151 395.901C582.36 408.09 583.245 416.858 587.854 428.84C575.938 431.749 563.956 436.604 555.608 445.869C555.036 446.549 554.442 447.149 553.81 447.772L553.339 447.488C552.406 443.02 556.499 422.982 558.536 418.178C563.242 407.074 576.059 399.771 586.753 395.554Z"/>
	<path fill="#FDFDFC" d="M594.725 575.398C597.788 576.337 599.254 578.124 601.311 580.415C596.939 584.196 592.744 587.993 588.61 592.036L587.025 592.785L586.804 592.571C588.076 591.515 589.385 590.454 590.545 589.275C593.076 586.702 596.511 581.235 596.432 577.536L595.093 576.988L594.725 575.398Z"/>
	<path fill="#FDFDFC" d="M576.534 589.461C576.635 591.476 576.653 593.246 577.469 595.124C578.992 595.83 582.507 594.304 584.437 594.043C582.423 595.259 580.696 595.818 578.399 596.295C574.687 596.525 570.955 597.063 567.257 597.475C570.079 594.57 573.418 592.047 576.534 589.461Z"/>
	<path fill="#786CB2" d="M0 0L1024 0L1024 79.5059C1008.1 89.2906 991.539 98.1518 975.333 107.43C970.932 109.95 960.643 114.963 957.343 118.254C931.71 132.589 905.652 146.341 880.66 161.778C872.309 155.449 863.931 149.141 855.009 143.63C811.382 116.683 761.289 105.121 710.351 112.081C703.418 113.029 696.452 114.602 689.667 116.302C683.398 117.873 671.437 122.434 665.517 121.951C659.555 126.086 651.619 125.966 646.147 129.335C628.869 137.75 611.051 146.193 595.012 156.842C591.795 158.977 575.242 171.483 573.179 171.83C570.372 174.509 567.616 177.357 564.421 179.572C556.763 186.562 548.871 193.373 541.396 200.553C537.546 204.253 534.069 208.569 530.085 212.084C527.489 215.062 524.975 218.265 522.203 221.072Q513.108 231.712 504.177 242.491C500.916 246.367 497.82 250.386 494.54 254.241C484.33 270.279 463.012 286.941 447.048 297.405C447.023 297.262 446.997 297.119 446.975 296.976C444.965 283.917 448.607 207.188 445.629 202.825C443.965 201.956 442.398 201.543 440.534 201.301C432.816 200.297 424.901 199.923 417.143 199.152L357.069 193.177C306.18 187.997 255.277 182.29 204.34 177.645C202.412 177.469 199.343 176.994 197.551 177.755C196.762 178.089 196.392 178.522 195.883 179.179C194.525 184.198 195.196 205.48 195.14 211.777L194.936 326.047L194.749 363.022C194.703 368.481 193.826 375.485 194.897 380.787L194.455 380.79C180.324 380.783 170.829 378.269 157.347 385.353Q152.163 388.552 147.185 392.061C135.913 402.31 122.76 403.096 110.214 410.261C104.957 413.263 100.653 417.432 96.5301 421.807C94.0573 425.196 86.6853 436.215 86.4046 440.143C86.2915 440.292 86.1804 440.442 86.0653 440.589C73.9464 456.062 44.7699 460.606 47.6697 487.21C48.4853 494.693 51.6602 501.641 51.1396 509.313C50.6256 516.889 46.6438 523.798 43.9421 530.74Q42.9175 533.436 42.1643 536.22Q41.411 539.004 40.9365 541.848Q40.462 544.693 40.2708 547.571Q40.0796 550.448 40.1737 553.331C40.4593 560.715 42.3982 567.855 44.9962 574.74C48.3129 583.529 55.2349 594.212 54.3814 603.774C53.8668 609.54 50.9545 615.075 49.6822 620.715C51.044 623.86 52.3033 626.355 55.6379 627.703C57.0938 628.292 58.6373 628.673 60.1657 629.021C55.6674 639.991 54.4004 645.592 59.0456 656.719C64.2121 669.094 73.9614 678.215 83.2443 687.524C86.7549 691.044 91.4173 694.929 93.3359 699.575C94.5086 702.415 93.8099 704.924 92.7018 707.657C92.1971 708.902 91.6168 710.122 91.0481 711.339C87.4414 710.27 83.8104 709.082 80.0078 709.078C72.0646 709.071 52.9749 714.84 46.1798 718.66C43.6582 720.078 41.722 721.863 40.9666 724.741C40.2585 727.44 40.7322 730.169 41.2647 732.849C39.1361 738.642 35.4313 744.053 32.3067 749.372C21.3359 749.693 9.72267 756.188 0 760.846L0 0Z"/>
	<path fill="#9F8BE8" d="M86.4046 440.143C85.0841 434.186 85.7963 426.921 85.7826 420.775L85.8674 381.006L86.2299 231.83L86.1262 120.657L85.9834 88.7186C85.934 82.5641 85.4557 76.0239 86.0914 69.9087C86.1798 69.0583 86.3778 67.2038 87.1594 66.7232C88.8882 65.6601 91.9046 65.9357 93.8666 66.0841C101.502 66.6619 109.135 67.8311 116.755 68.6335L155.569 72.5318L269.541 83.8024L547.886 110.365Q587.343 114.354 626.848 117.841L650.794 120.241C655.647 120.727 660.751 120.91 665.517 121.951C659.555 126.086 651.619 125.966 646.147 129.335C628.869 137.75 611.051 146.193 595.012 156.842C591.795 158.977 575.242 171.483 573.179 171.83C570.372 174.509 567.616 177.357 564.421 179.572C556.763 186.562 548.871 193.373 541.396 200.553C537.546 204.253 534.069 208.569 530.085 212.084C527.489 215.062 524.975 218.265 522.203 221.072Q513.108 231.712 504.177 242.491C500.916 246.367 497.82 250.386 494.54 254.241C484.33 270.279 463.012 286.941 447.048 297.405C447.023 297.262 446.997 297.119 446.975 296.976C444.965 283.917 448.607 207.188 445.629 202.825C443.965 201.956 442.398 201.543 440.534 201.301C432.816 200.297 424.901 199.923 417.143 199.152L357.069 193.177C306.18 187.997 255.277 182.29 204.34 177.645C202.412 177.469 199.343 176.994 197.551 177.755C196.762 178.089 196.392 178.522 195.883 179.179C194.525 184.198 195.196 205.48 195.14 211.777L194.936 326.047L194.749 363.022C194.703 368.481 193.826 375.485 194.897 380.787L194.455 380.79C180.324 380.783 170.829 378.269 157.347 385.353Q152.163 388.552 147.185 392.061C135.913 402.31 122.76 403.096 110.214 410.261C104.957 413.263 100.653 417.432 96.5301 421.807C94.0573 425.196 86.6853 436.215 86.4046 440.143Z"/>
	<path fill="#9F8BE8" d="M157.032 140.138C170.255 142.199 183.934 142.893 197.275 144.142L265.339 150.692L492.406 172.208C503.892 173.32 558.362 176.97 564.421 179.572C556.763 186.562 548.871 193.373 541.396 200.553C537.546 204.253 534.069 208.569 530.085 212.084C527.489 215.062 524.975 218.265 522.203 221.072Q513.108 231.712 504.177 242.491C500.916 246.367 497.82 250.386 494.54 254.241C484.33 270.279 463.012 286.941 447.048 297.405C447.023 297.262 446.997 297.119 446.975 296.976C444.965 283.917 448.607 207.188 445.629 202.825C443.965 201.956 442.398 201.543 440.534 201.301C432.816 200.297 424.901 199.923 417.143 199.152L357.069 193.177C306.18 187.997 255.277 182.29 204.34 177.645C202.412 177.469 199.343 176.994 197.551 177.755C196.762 178.089 196.392 178.522 195.883 179.179C194.525 184.198 195.196 205.48 195.14 211.777L194.936 326.047L194.749 363.022C194.703 368.481 193.826 375.485 194.897 380.787L194.455 380.79C180.324 380.783 170.829 378.269 157.347 385.353C157.076 364.355 157.391 343.318 157.39 322.315L157.032 140.138Z"/>
	<path fill="#3B2E62" d="M494.54 254.241C494.085 243.24 494.163 232.177 494.126 221.167C494.113 217.354 493.69 211.803 496.579 208.895C501.163 207.618 523.1 211.748 530.085 212.084C527.489 215.062 524.975 218.265 522.203 221.072Q513.108 231.712 504.177 242.491C500.916 246.367 497.82 250.386 494.54 254.241Z"/>
	<path fill="#9F8BE8" d="M503.899 219.116C509.996 219.829 516.126 220.174 522.203 221.072Q513.108 231.712 504.177 242.491C502.943 235.957 503.871 225.979 503.899 219.116Z"/>
	<path fill="#9F8BE8" d="M96.0092 75.4447C102.797 75.7295 109.725 76.8858 116.497 77.5692C126.807 78.6094 137.178 79.3208 147.445 80.7223Q146.841 137.092 146.994 193.463L147.185 392.061C135.913 402.31 122.76 403.096 110.214 410.261C104.957 413.263 100.653 417.432 96.5301 421.807C95.9541 383.8 96.2985 345.74 96.2273 307.726L96.0092 75.4447Z"/>
	<path fill="#3B2E62" d="M86.4046 440.143C85.0841 434.186 85.7963 426.921 85.7826 420.775L85.8674 381.006L86.2299 231.83L86.1262 120.657L85.9834 88.7186C85.934 82.5641 85.4557 76.0239 86.0914 69.9087C86.1798 69.0583 86.3778 67.2038 87.1594 66.7232C88.8882 65.6601 91.9046 65.9357 93.8666 66.0841C101.502 66.6619 109.135 67.8311 116.755 68.6335L155.569 72.5318L269.541 83.8024L547.886 110.365Q587.343 114.354 626.848 117.841L650.794 120.241C655.647 120.727 660.751 120.91 665.517 121.951C659.555 126.086 651.619 125.966 646.147 129.335Q572.05 121.573 497.863 114.735L291.419 94.5366Q254.04 91.2369 216.699 87.527Q186.823 85.0558 157.013 81.8782L157.023 130.845C167.267 131.244 177.547 132.615 187.746 133.648L240.771 138.98L400.992 154.224L514.197 164.963C533.778 166.918 553.883 167.999 573.179 171.83C570.372 174.509 567.616 177.357 564.421 179.572C558.362 176.97 503.892 173.32 492.406 172.208L265.339 150.692L197.275 144.142C183.934 142.893 170.255 142.199 157.032 140.138L157.39 322.315C157.391 343.318 157.076 364.355 157.347 385.353Q152.163 388.552 147.185 392.061L146.994 193.463Q146.841 137.09 147.445 80.7223C137.178 79.3208 126.807 78.6094 116.497 77.5692C109.725 76.8858 102.797 75.7295 96.0092 75.4447L96.2273 307.726C96.2985 345.74 95.9541 383.8 96.5301 421.807C94.0573 425.196 86.6853 436.215 86.4046 440.143Z"/>
	<path fill="#3B2E62" d="M194.897 380.787C193.826 375.485 194.703 368.481 194.749 363.022L194.936 326.047L195.14 211.777C195.196 205.48 194.525 184.198 195.883 179.179C196.392 178.522 196.762 178.089 197.551 177.755C199.343 176.994 202.412 177.469 204.34 177.645C255.277 182.29 306.18 187.997 357.069 193.177L417.143 199.152C424.901 199.923 432.816 200.297 440.534 201.301C442.398 201.543 443.965 201.956 445.629 202.825C448.607 207.188 444.965 283.917 446.975 296.976C446.997 297.119 447.023 297.262 447.048 297.405C443.879 299.525 440.647 301.515 437.382 303.485C432.811 305.938 428.234 308.348 423.477 310.429C420.463 311.748 411.227 314.113 409.577 316.025C409.431 316.708 409.15 317.16 409.522 317.812C412.011 322.179 423.733 325.527 428.474 326.589C430.238 326.985 433.167 327.204 434.735 327.955C435.774 328.452 435.781 329.584 435.975 330.554C435.522 332.1 433.987 332.928 432.638 333.636C427.19 336.495 420.196 338.55 414.21 339.909C411.199 340.592 407.782 340.994 404.896 342.047C403.733 342.471 403.364 342.422 402.747 343.524C402.778 347.193 404.851 349.515 407.381 351.98C415.281 359.676 426.602 366.334 437.486 368.48C440.484 369.018 443.528 369.709 446.545 370.095C455.72 370.712 463.84 370.396 472.89 368.716C475.484 388.864 482.665 407.53 487.995 426.979C491.883 441.168 494.385 455.999 494.608 470.728C495.07 474.093 496.618 484.794 496.138 487.718L495.646 488C495.169 494.593 496.083 501.704 496.105 508.387L496.448 564.156C496.468 572.63 496.84 581.3 496.4 589.755L496.323 636.749C496.343 648.203 497.854 694.784 494.998 701.794C494.284 713.386 494.907 725.264 494.931 736.892L494.972 804.003L494.936 1024L446.507 1024L437.077 1024L347.3 1024C340.007 994.29 328.984 966.194 316.516 938.316C312.86 930.141 307.594 922.579 304.367 914.26C302.601 909.708 301.996 904.409 300.873 899.649C299.248 892.766 297.173 885.965 295.019 879.231Q292.377 870.859 289.284 862.643Q286.191 854.427 282.657 846.39Q279.123 838.354 275.157 830.522Q271.192 822.689 266.808 815.083C263.044 808.603 258.797 802.45 254.836 796.094C262.914 786.251 272.449 779.329 284.455 775.009Q285.457 775.436 286.481 775.805C291.506 777.644 297.091 778.572 302.371 779.302C317.064 781.334 328.654 780.79 342.175 774.53C344.274 772.776 346.196 770.841 348.142 768.922C351.546 763.723 353.061 759.214 353.503 753.033L352.923 748.512L350.318 738.154C353.563 727.172 360.539 727.547 363.791 720.407C366.061 715.424 363.369 709.865 361.538 705.212C365.442 702.141 368.851 698.954 371.966 695.073C370.373 688.607 365.086 681.334 365.648 674.668C367.107 671.967 373.199 670.736 376.116 669.647C381.279 667.721 387.753 664.408 389.942 659.055C391.022 656.412 390.994 653.307 390.106 650.613C387.688 643.278 382.381 635.957 378.748 629.079C373.39 618.936 368.517 608.415 363.923 597.904C367.273 591.776 371.454 584.94 373.366 578.22C377.884 562.338 367.587 538.019 364.115 521.895C371.985 514.951 378.558 506.715 380.797 496.234C384.176 480.417 379.347 463.875 370.76 450.606L365.945 445.015C360.453 439.706 354.788 435.353 348.104 431.65C342.99 429.631 337.754 427.755 332.954 425.055C331.721 424.484 330.528 424.02 329.238 423.591C324.253 421.409 319.482 419.012 314.952 415.984C312.39 414.775 309.884 412.898 307.471 411.385C289.533 399.442 272.492 388.306 250.193 387.175C232.665 386.286 222.704 386.918 204.934 382.719C201.888 382.166 197.665 382.02 194.897 380.787Z"/>
	<path fill="#CABFF2" d="M342.175 774.53L403.71 774.507C414.829 774.528 426.056 774.214 437.158 774.761L437.077 1024L347.3 1024C340.007 994.29 328.984 966.194 316.516 938.316C312.86 930.141 307.594 922.579 304.367 914.26C302.601 909.708 301.996 904.409 300.873 899.649C299.248 892.766 297.173 885.965 295.019 879.231Q292.377 870.859 289.284 862.643Q286.191 854.427 282.657 846.39Q279.123 838.354 275.157 830.522Q271.192 822.689 266.808 815.083C263.044 808.603 258.797 802.45 254.836 796.094C262.914 786.251 272.449 779.329 284.455 775.009Q285.457 775.436 286.481 775.805C291.506 777.644 297.091 778.572 302.371 779.302C317.064 781.334 328.654 780.79 342.175 774.53Z"/>
	<path fill="#9F8BE8" d="M446.545 370.095C455.72 370.712 463.84 370.396 472.89 368.716C475.484 388.864 482.665 407.53 487.995 426.979C491.883 441.168 494.385 455.999 494.608 470.728C495.07 474.093 496.618 484.794 496.138 487.718L495.646 488C495.169 494.593 496.083 501.704 496.105 508.387L496.448 564.156C496.468 572.63 496.84 581.3 496.4 589.755L496.323 636.749C496.343 648.203 497.854 694.784 494.998 701.794C494.284 713.386 494.907 725.264 494.931 736.892L494.972 804.003L494.936 1024L446.507 1024L446.491 570.311L446.482 441.255C446.465 417.547 446.175 393.798 446.545 370.095Z"/>
	<path fill="#0D0437" d="M495.084 595.236C495.881 587.022 495.305 578.512 495.627 570.231C496.779 575.222 495.944 584.058 496.4 589.755L496.323 636.749C496.343 648.203 497.854 694.784 494.998 701.794C494.931 666.304 494.477 630.718 495.084 595.236Z"/>
	<path fill="#19064D" d="M494.608 470.728C495.07 474.093 496.618 484.794 496.138 487.718L495.646 488C495.169 494.593 496.083 501.704 496.105 508.387L496.448 564.156C496.468 572.63 496.84 581.3 496.4 589.755C495.944 584.058 496.779 575.222 495.627 570.231C495.305 578.512 495.881 587.022 495.084 595.236C494.313 576.467 495.013 557.391 494.997 538.592C494.978 515.984 494.351 493.323 494.608 470.728Z"/>
	<path fill="#CABFF2" d="M336.526 200.482C343.521 201.862 351.052 201.905 358.165 202.655Q385.603 205.552 413.089 207.948C421.064 208.686 429.642 208.94 437.427 210.695C437.37 241.586 436.495 272.609 437.382 303.485C432.811 305.938 428.234 308.348 423.477 310.429C420.463 311.748 411.227 314.113 409.577 316.025C409.431 316.708 409.15 317.16 409.522 317.812C412.011 322.179 423.733 325.527 428.474 326.589C430.238 326.985 433.167 327.204 434.735 327.955C435.774 328.452 435.781 329.584 435.975 330.554C435.522 332.1 433.987 332.928 432.638 333.636C427.19 336.495 420.196 338.55 414.21 339.909C411.199 340.592 407.782 340.994 404.896 342.047C403.733 342.471 403.364 342.422 402.747 343.524C402.778 347.193 404.851 349.515 407.381 351.98C415.281 359.676 426.602 366.334 437.486 368.48L437.372 424.313Q400.998 424.624 364.625 424.279C356.55 424.241 343.48 425.323 336.081 423.722C337.619 419.351 336.479 376.01 336.482 368.367L336.526 200.482Z"/>
	<path fill="#CABFF2" d="M204.92 187.389C212.348 188.016 219.728 189.12 227.143 189.883C253.998 192.645 281.037 195.681 307.955 197.632Q307.425 226.278 307.608 254.928C307.561 307.046 308.397 359.284 307.471 411.385C289.533 399.442 272.492 388.306 250.193 387.175C232.665 386.286 222.704 386.918 204.934 382.719L204.92 187.389Z"/>
	<path fill="#CABFF2" d="M370.76 450.606C392.958 450.889 415.198 450.549 437.382 451.003L436.863 748.503L352.923 748.512L350.318 738.154C353.563 727.172 360.539 727.547 363.791 720.407C366.061 715.424 363.369 709.865 361.538 705.212C365.442 702.141 368.851 698.954 371.966 695.073C370.373 688.607 365.086 681.334 365.648 674.668C367.107 671.967 373.199 670.736 376.116 669.647C381.279 667.721 387.753 664.408 389.942 659.055C391.022 656.412 390.994 653.307 390.106 650.613C387.688 643.278 382.381 635.957 378.748 629.079C373.39 618.936 368.517 608.415 363.923 597.904C367.273 591.776 371.454 584.94 373.366 578.22C377.884 562.338 367.587 538.019 364.115 521.895C371.985 514.951 378.558 506.715 380.797 496.234C384.176 480.417 379.347 463.875 370.76 450.606Z"/>
	<path fill="#786CB2" d="M315.06 198.884C319.856 198.983 324.671 199.481 329.42 200.143Q329.393 230.999 329.95 261.848C329.51 275.366 329.806 288.967 329.763 302.495L329.312 371.778C329.288 389.022 329.664 406.357 329.238 423.591C324.253 421.409 319.482 419.012 314.952 415.984L315.06 198.884Z"/>
	<path fill="#786CB2" d="M353.503 753.033C381.326 753.385 409.105 753.94 436.933 753.733L436.864 769.901Q403.857 769.911 370.85 769.563C365.091 769.504 352.917 770.416 348.142 768.922C351.546 763.723 353.061 759.214 353.503 753.033Z"/>
	<path fill="#786CB2" d="M348.104 431.65C350.417 430.689 426.189 431.534 437.368 431.192L437.235 445.009L365.945 445.015C360.453 439.706 354.788 435.353 348.104 431.65Z"/>
	<path fill="#9F8BE8" d="M0 878.221C6.90094 873.601 13.5789 868.698 20.2895 863.809C24.4211 860.799 28.5838 857.302 33.1827 855.047C47.8618 847.849 88.5128 852.797 104.71 856.006C146.218 864.231 188.069 878.654 223.325 902.483C231.302 907.874 238.8 914.038 246.157 920.236C251.51 924.746 259.495 929.546 263.373 935.326C268.422 942.853 276.341 1009.76 279.19 1024L257.027 1024L247.622 1024L227.526 1024L216.942 1024L0 1024L0 878.221Z"/>
	<path fill="#030201" d="M216.942 1024C204.097 993.619 185.877 960.811 163.012 936.754C159.939 933.52 151.789 927.592 153.613 922.792C154.142 921.4 154.942 920.887 156.219 920.268C158.596 920.055 160.291 920.977 162.105 922.461C185.384 941.506 217.734 995.545 227.526 1024L216.942 1024Z"/>
	<path fill="#030201" d="M247.622 1024C247.072 1009.43 243.687 994.776 239.088 980.956C237.652 976.64 234.619 971.563 233.966 967.263C233.651 965.192 234.247 963.378 235.717 961.858C236.531 961.016 236.924 960.858 238.011 960.579C239.93 960.979 240.993 962.297 242.019 963.884C250.984 977.743 256.451 1007.59 257.027 1024L247.622 1024Z"/>
	<path fill="#9F8BE8" d="M79.7017 717.673C131.39 736.006 183.553 776.541 221.979 815.07C231.82 824.937 241.433 834.869 250.057 845.844C270.608 871.998 291.348 907.649 305.73 937.885C309.86 946.567 317.983 962.178 319.987 971.03C307.361 958.025 292.614 946.44 278.743 934.744C260.838 919.647 242.509 903.387 222.804 890.735C180.561 863.613 113.93 842.729 63.6991 841.968C40.2123 841.613 19.6557 848.275 0 860.895L0 771.194C9.64529 766.584 22.3451 758.743 33.1283 758.439C37.2091 758.324 41.4266 759.607 45.2417 760.949C119.496 787.053 172.488 815.401 229.079 870.809C233.227 874.87 244.779 887.897 249.214 890.259C250.399 890.89 252.084 890.892 253.302 890.366C254.253 889.956 254.694 889.337 255.291 888.541C255.836 886.571 255.545 885.191 254.565 883.451C249.996 875.348 230.521 858.597 223.165 851.963C183.865 816.516 143.354 790.186 94.3956 769.797C83.1869 765.129 71.7889 760.997 60.372 756.873C54.6377 754.802 48.2679 753.189 42.8853 750.375C45.8198 745.473 49.4761 740.28 51.6554 735.036L50.8352 726.98C59.6221 722.342 70.0959 720.068 79.7017 717.673Z"/>
	<path fill="#9F8BE8" d="M291.172 957.674C296.322 961.638 324.357 986.497 326.652 990.316C331.528 998.429 335.079 1014.67 337.674 1024L297.378 1024C296.127 1001.68 294.231 979.819 291.172 957.674Z"/>
	<path fill="#3B2E62" d="M178.337 389.68C192.292 388.79 205.724 393.646 219.404 395.549C231.233 397.194 243.203 396.08 255.056 397.525C282.953 400.925 294.734 417.253 317.649 429.262C330.565 436.032 344.551 439.622 355.938 449.279C365.514 457.4 370.22 468.551 371.133 480.935C372.009 492.826 369.804 501.16 361.908 510.225C358.907 495.287 352.009 481.078 340.25 471.144C332.501 464.597 319.823 458.746 309.446 459.861C306.704 460.155 303.713 461.199 302.041 463.505C299.326 467.249 302.286 474.613 303.133 478.703C307.948 501.943 277.507 513.181 263.039 523.754C258.286 527.228 253.935 531.537 250.726 536.492C245.024 545.297 246.937 551.457 248.879 560.817C244.785 564.763 240.141 568.08 236.155 572.179C222.438 586.282 226.781 599.498 227.005 616.916C223.592 622.554 219.08 624.653 213.043 626.54C210.04 610.971 206.352 597.391 192.943 587.525C184.429 581.26 175.435 580.137 165.207 581.639C162.379 582.467 159.586 583.425 157.024 584.905C149.514 589.243 144.507 596.795 142.284 605.069C137.835 621.628 143.027 638.087 151.223 652.515Q150.962 653.135 150.719 653.763C146.936 663.587 148.541 672.48 152.721 681.799L150.738 682.023C149.663 682.145 148.485 682.206 147.555 682.825C146.535 683.503 145.946 684.269 145.767 685.481C145.314 688.557 147.363 692.461 147.345 695.793C147.319 700.282 145.436 704.824 144.763 709.293C141.81 705.378 133.533 691.321 129.372 690.39C126.439 689.734 122.636 700.927 120.874 703.357C118.548 706.564 115.092 709.575 111.671 711.616C109.14 713.126 104.34 714.599 101.51 713.926C100.141 710.993 106.431 702.311 102.055 694.659C92.9886 678.808 73.4812 669.417 67.5638 651.378C63.8897 640.178 72.5968 627.389 69.2342 622.077C67.6451 619.567 64.1855 619.264 61.5209 618.83C62.7863 613.677 64.0561 608.477 64.2021 603.149C64.7076 584.702 51.0772 570.192 50.6328 551.631C50.2566 535.921 61.6338 523.322 61.8474 508.044C61.9415 501.321 59.7734 495.171 58.6929 488.635C55.3067 468.15 82.0248 460.339 93.1838 447.699C98.7094 441.44 100.84 433.131 105.823 426.582C114.094 415.712 130.518 414.447 141.883 408.211C150.264 403.612 157.102 396.523 165.808 392.486C169.622 390.717 174.202 390.184 178.337 389.68Z"/>
	<path fill="#9F8BE8" d="M311.699 470.363C314.79 470.377 317.678 470.82 320.618 471.764C331.942 475.401 341.212 484.518 346.452 495.024C352.489 507.128 354.213 521.027 357.515 534.03C359.93 543.538 363.027 553.071 364.7 562.742C365.326 566.366 365.838 570.375 365.271 574.039C364.147 581.304 358.057 587.214 355.94 594.238C355.378 596.105 355.148 598.158 355.475 600.091C356.107 603.836 358.17 607.628 359.748 611.058Q364.883 622.466 370.909 633.429C373.545 638.165 376.534 642.703 379.121 647.463C380.376 649.772 381.758 652.399 380.858 655.058C379.031 660.459 367.581 662.154 362.682 664.436C359.752 665.801 357.144 667.448 356.082 670.662C353.947 677.123 358.708 686.96 361.687 692.589C359.946 694.335 358.186 696.055 356.118 697.416C351.231 700.635 335.338 707.816 333.204 711.975L333.849 713.17C338.385 715.189 344.44 710.139 348.594 708.802C349.826 708.405 350.983 708.368 352.124 709.087C354.409 710.525 355.139 714.479 355.923 716.905C329.976 734.279 347.878 742.499 343.227 758.112C342.071 761.991 339.502 764.986 335.952 766.898C321.319 774.778 298.136 769.633 283.084 765.507C281.312 766.028 279.565 766.704 277.841 767.365C255.852 775.788 243.318 793.179 234 813.946C210.561 787.807 182.363 765.834 153.735 745.722C142.714 738.507 125.095 726.225 112.788 722.554C119.813 718.022 125.58 712.746 131.305 706.705Q132.179 708.106 133.153 709.439C136.448 713.878 143.848 720.263 149.5 720.947C150.883 721.115 152.046 720.828 153.118 719.897C154.282 718.887 157.814 696.585 158.143 693.475C162.439 694.63 168.486 695.983 172.724 693.909C173.914 693.327 174.181 692.822 174.662 691.63C174.286 685.701 163.667 680.95 160.815 674.71C159.461 671.747 157.907 666.291 159.025 663.136C161.374 662.288 167.94 668.992 170.229 670.503C172.56 672.041 175.328 673.165 177.98 674.022C183.598 675.838 192.289 676.066 197.677 673.068C199.076 672.289 199.997 671.239 200.361 669.633C200.602 668.574 200.402 667.352 199.791 666.47C197.126 665.36 192.617 667.434 189.806 667.966C185.151 668.848 179.539 665.544 175.764 663.014Q174.592 662.242 173.459 661.412Q172.327 660.583 171.237 659.698Q170.147 658.814 169.103 657.876Q168.058 656.939 167.061 655.95Q166.065 654.962 165.118 653.926Q164.172 652.889 163.278 651.807Q162.384 650.725 161.545 649.599Q160.706 648.474 159.924 647.309Q159.141 646.143 158.418 644.94Q157.694 643.738 157.032 642.5Q156.369 641.263 155.768 639.994Q155.168 638.726 154.631 637.429Q154.094 636.132 153.622 634.81Q153.15 633.488 152.744 632.144Q152.339 630.801 152 629.438Q151.662 628.076 151.391 626.699C149.653 617.669 149.75 606.57 155.252 598.748C158.619 593.961 163.905 591.562 169.592 590.81C176.432 589.905 183.04 591.912 188.384 596.236C196.069 602.453 200.449 612.688 201.804 622.275C202.262 625.515 202.089 628.829 202.547 632.051C202.828 634.024 203.599 635.946 205.251 637.163C207.29 638.665 209.989 638.549 212.371 638.184C217.662 637.372 222.951 635.159 227.362 632.15C245.672 619.661 231.569 602.979 237.921 587.231C241.628 578.039 251.065 575.384 256.386 567.836C260.157 562.487 258.453 558.294 257.415 552.448C256.997 550.094 256.84 547.715 257.687 545.432C261.595 534.897 279.571 526.488 288.663 520.28C295.28 515.763 301.926 510.483 306.532 503.844C314.123 492.903 313.899 482.905 311.699 470.363Z"/>
	<path fill="#030201" d="M188.325 652.241C188.692 652.445 189.168 652.679 189.451 652.99C190.412 654.049 190.353 654.586 190.208 655.876C189.768 656.592 189.43 657.095 188.65 657.494C187.229 658.222 185.166 658.305 183.644 657.859C175.067 655.343 166.212 644.976 161.875 637.554C157.473 630.019 155.374 621.236 157.751 612.646C159.426 606.591 163.22 601.056 168.902 598.151C172.997 596.058 176.874 595.38 181.276 596.875C185.528 598.319 189.508 601.864 191.325 605.994C195.595 615.7 185.044 620.42 182.329 627.913C182.047 628.691 181.703 630.354 181.974 631.148C183.116 634.486 191.467 638.68 193.636 643.895C194.102 645.014 194.501 646.684 193.8 647.776C192.91 649.164 190.793 650.155 189.2 650.423C188.891 650.475 188.58 650.511 188.27 650.555C187.656 648.424 187.107 646.246 186.385 644.149C181.729 640.57 176.215 636.434 175.337 630.173Q175.264 629.624 175.247 629.071Q175.231 628.517 175.271 627.965Q175.312 627.413 175.409 626.868Q175.506 626.323 175.659 625.791Q175.811 625.259 176.018 624.745Q176.224 624.231 176.483 623.742Q176.741 623.252 177.048 622.791Q177.355 622.331 177.708 621.904C180.598 618.473 186.346 614.899 186.113 609.844C186.036 608.162 185.039 606.762 183.815 605.682C181.511 603.649 178.454 602.217 175.328 602.52C171.821 602.859 168.928 605.247 166.899 607.981C163.606 612.419 162.034 618.498 162.972 623.96C164.604 633.468 172.454 643.678 180.329 648.989C182.824 650.672 185.327 651.851 188.325 652.241Z"/>
	<path fill="#030201" d="M336.827 582.672C339.676 582.269 342.651 582.187 345.41 583.131C347.904 583.985 349.791 585.342 350.988 587.698C350.826 589.104 350.842 589.004 349.742 589.906C347.914 590.415 346.489 589.857 344.708 589.355C344.681 591.047 344.644 592.74 344.37 594.413C343.394 600.375 340.089 604.054 335.391 607.476C336.171 607.799 337.007 608.108 337.738 608.532C338.77 609.13 339.13 609.56 339.425 610.689C338.634 612.003 337.386 612.445 336.064 613.094C330.93 612.404 326.223 610.814 321.945 607.862C318.61 605.562 315.731 602.485 315.089 598.345C314.639 595.441 315.341 592.372 317.165 590.049C321.496 584.532 330.392 583.588 336.827 582.672Z"/>
	<path fill="#FDFDFC" d="M331.731 590.029C332.821 590.143 332.348 589.929 333.152 590.67C332.055 592.516 330.084 593.309 328.842 594.93C327.52 596.656 328.043 601.189 327.239 603.52C325.838 603.511 325.171 602.821 324.01 602.093C322.059 600.778 320.456 599.253 318.765 597.634C322.655 593.368 326.109 591.369 331.731 590.029Z"/>
	<path fill="#030201" d="M318.082 563.594C331.422 563.175 340.422 565.387 351.209 573.465C351.586 572.778 352.017 571.79 352.558 571.234C353.493 570.273 353.946 570.368 355.169 570.406C355.931 571.027 356.2 571.111 356.59 572.065C357.416 574.088 357.182 576.816 356.199 578.752C355.528 580.073 354.323 581.179 352.82 581.43C350.64 581.794 348.83 580.637 347.081 579.523C338.12 572.997 327.039 568.507 315.772 571.202C312.959 571.875 310.111 573.935 307.228 574.01C306.04 574.041 305.092 573.415 304.358 572.546C304.227 571.432 304.35 570.739 304.979 569.772C307.735 565.541 313.539 564.669 318.082 563.594Z"/>
	<path fill="#030201" d="M353.905 652.507C354.118 652.56 354.339 652.589 354.545 652.666C355.814 653.142 356.172 653.366 356.808 654.485C355.847 656.048 352.825 656.801 351.25 658.149C348.915 660.149 347.106 662.804 345.264 665.246C344.036 664.765 343.379 664.512 342.488 663.487C342.24 662.168 342.255 661.483 342.905 660.268C344.869 656.596 350.098 653.787 353.905 652.507Z"/>
	<path fill="#3B2E62" d="M249.461 805.227C253.438 809.553 256.136 815.516 258.938 820.653C267.416 836.199 274.444 850.781 280.727 867.296C282.748 872.607 284.911 877.883 286.414 883.369C285.458 881.852 284.562 880.293 283.642 878.754C271.352 858.486 257.873 838.659 242.196 820.849Q245.753 813.003 249.461 805.227Z"/>
</svg>
