<?xml version="1.0" encoding="utf-8" ?>
<svg xmlns="http://www.w3.org/2000/svg" xmlns:xlink="http://www.w3.org/1999/xlink" width="1024" height="1024">
	<path fill="#C8C3D4" d="M0 0L1024 0L1024 1024L1015.52 1024L1005.12 1024L843.253 1024L833.058 1024L753.256 1024L743.804 1024L712.281 1024L703.023 1024L658.102 1024L648.288 1024L283.741 1024L273.52 1024L0 1024L0 944.214L0 933.607L0 457.661L0 438.053L0 0Z"/>
	<path fill="#9F8BE8" d="M177.569 206.906C177.776 208.407 177.837 210.178 179.043 211.255C180.361 212.43 181.852 212.343 183.472 212.11C192.782 210.771 198.272 209.178 206.775 215.409C216.972 222.881 223.777 236.644 231.091 246.863C236.623 254.591 242.49 262.186 248.434 269.602C266.098 291.637 288.066 309.712 304.455 332.967C311.282 342.653 315.056 351.987 318.986 363.019C320.293 366.69 321.142 368.191 325.326 368.111C325.522 373.183 325.563 378.022 326.396 383.057C325.217 383.895 323.485 384.818 323.23 386.345C322.49 390.781 325.23 412.004 325.665 418.322C327.744 448.457 330.055 478.926 330.661 509.113C330.778 514.975 329.95 541.674 332.622 544.852C333.009 545.312 333.433 545.734 333.862 546.154C332.934 549.899 332.103 553.886 330.743 557.493C331.651 558.591 332.381 559.668 332.848 561.027C334.43 565.64 335.013 570.787 335.979 575.579C337.914 585.181 340.374 595.708 344.225 604.72C349.645 617.403 359.117 616.977 364.412 625.631C364.808 635.536 360.857 643.206 358.108 652.451C368.713 653.686 375.732 656.105 382.552 664.676C389.761 673.736 393.763 684.892 401.053 693.893C409.842 704.745 421.22 713.9 431.672 723.098C451.274 740.347 471.797 760.155 495.681 771.363C517.203 765.466 539.619 756.705 560.915 749.429C573.336 745.185 592.981 739.832 603.787 734.128C614.286 736.451 677.639 747.65 682.3 752.235C684.944 758.931 688.597 794.189 687.638 801.523C686.03 803.137 684.378 804.725 682.831 806.397Q690.645 808.301 698.637 809.208C702.38 799.781 719.636 745.964 726.599 743.086C727.518 742.706 728.618 742.894 729.483 743.36C730.713 744.023 731.463 744.994 732.3 746.08C731.833 751.869 725.463 764.487 723.157 770.52C717.922 784.221 712.708 798.195 708.009 812.085C714.128 814.46 725.104 817.337 729.661 821.631C730.548 825.089 731.073 873.423 730.48 876.887C729.689 878.877 729.323 878.925 727.395 879.733C716.879 884.141 705.06 886.54 694.182 890.062C688.982 904.618 685.818 920.049 681.698 934.948C676.298 954.478 671.357 974.084 666.218 993.679C663.567 1003.78 660.468 1013.84 658.102 1024L648.288 1024L283.741 1024L273.52 1024L0 1024L0 944.214L0 933.607L0 457.661L0 438.053C5.95764 426.686 12.8101 415.787 19.6582 404.94Q28.2891 391.109 37.5996 377.725Q46.91 364.342 56.8768 351.44Q66.8436 338.537 77.4419 326.149Q88.0402 313.76 99.2436 301.916L98.8185 301.492C96.4332 299.082 92.9532 297.982 89.9498 296.471C90.8239 295.45 91.464 294.662 91.7257 293.301C92.3315 290.151 91.3593 286.207 91.6137 282.878C92.6134 269.798 98.6473 258.113 108.48 249.456C121.762 237.762 164.021 227.651 169.795 220.463C170.593 219.47 171.06 218.242 170.799 216.957C170.352 214.754 168.543 213.6 166.85 212.383C170.244 210.333 174.034 208.73 177.569 206.906Z"/>
	<path fill="#020201" d="M177.569 206.906C177.776 208.407 177.837 210.178 179.043 211.255C180.361 212.43 181.852 212.343 183.472 212.11C192.782 210.771 198.272 209.178 206.775 215.409C216.972 222.881 223.777 236.644 231.091 246.863C236.623 254.591 242.49 262.186 248.434 269.602C266.098 291.637 288.066 309.712 304.455 332.967C311.282 342.653 315.056 351.987 318.986 363.019C320.293 366.69 321.142 368.191 325.326 368.111C325.522 373.183 325.563 378.022 326.396 383.057C325.217 383.895 323.485 384.818 323.23 386.345C322.49 390.781 325.23 412.004 325.665 418.322C327.744 448.457 330.055 478.926 330.661 509.113C330.778 514.975 329.95 541.674 332.622 544.852C333.009 545.312 333.433 545.734 333.862 546.154C332.934 549.899 332.103 553.886 330.743 557.493C331.651 558.591 332.381 559.668 332.848 561.027C334.43 565.64 335.013 570.787 335.979 575.579C337.914 585.181 340.374 595.708 344.225 604.72C349.645 617.403 359.117 616.977 364.412 625.631C364.808 635.536 360.857 643.206 358.108 652.451C368.713 653.686 375.732 656.105 382.552 664.676C389.761 673.736 393.763 684.892 401.053 693.893C409.842 704.745 421.22 713.9 431.672 723.098C451.274 740.347 471.797 760.155 495.681 771.363C517.203 765.466 539.619 756.705 560.915 749.429C573.336 745.185 592.981 739.832 603.787 734.128C614.286 736.451 677.639 747.65 682.3 752.235C684.944 758.931 688.597 794.189 687.638 801.523C686.03 803.137 684.378 804.725 682.831 806.397Q690.645 808.301 698.637 809.208C702.38 799.781 719.636 745.964 726.599 743.086C727.518 742.706 728.618 742.894 729.483 743.36C730.713 744.023 731.463 744.994 732.3 746.08C731.833 751.869 725.463 764.487 723.157 770.52C717.922 784.221 712.708 798.195 708.009 812.085C714.128 814.46 725.104 817.337 729.661 821.631C730.548 825.089 731.073 873.423 730.48 876.887C729.689 878.877 729.323 878.925 727.395 879.733C716.879 884.141 705.06 886.54 694.182 890.062C688.982 904.618 685.818 920.049 681.698 934.948C676.298 954.478 671.357 974.084 666.218 993.679C663.567 1003.78 660.468 1013.84 658.102 1024L648.288 1024L283.741 1024L273.52 1024L0 1024L0 944.214L0 933.607Q4.08725 934.773 8.19246 935.874Q12.2977 936.976 16.4198 938.012Q20.5419 939.048 24.68 940.018Q28.818 940.989 32.9709 941.894Q37.1238 942.799 41.2904 943.638Q45.4571 944.477 49.6366 945.251Q53.8161 946.024 58.0072 946.73Q62.1984 947.437 66.4003 948.077Q70.6021 948.718 74.8136 949.291Q79.025 949.865 83.245 950.372Q87.465 950.879 91.6926 951.319Q95.9201 951.759 100.154 952.132Q104.388 952.505 108.627 952.811Q112.867 953.117 117.11 953.355Q121.354 953.594 125.601 953.766Q129.848 953.937 134.097 954.041Q138.346 954.146 142.596 954.182Q146.846 954.219 151.096 954.189Q155.347 954.159 159.596 954.061Q163.845 953.963 168.092 953.798Q172.339 953.633 176.583 953.401Q180.827 953.169 185.067 952.869Q189.307 952.57 193.542 952.203Q197.776 951.837 202.004 951.403Q206.232 950.969 210.453 950.469Q214.674 949.969 218.886 949.401Q223.099 948.834 227.301 948.2Q231.504 947.566 235.697 946.866Q239.889 946.166 244.069 945.399Q248.25 944.632 252.418 943.799Q256.586 942.967 260.74 942.068Q264.895 941.169 269.034 940.205Q267.468 918.636 266.226 897.045C265.718 887.735 265.027 878.321 265.494 869C258.408 863.798 250.956 859.062 243.836 853.89Q229.227 843.181 215.659 831.18C211.545 827.6 206.662 823.886 203.552 819.373C202.243 817.473 201.603 815.907 202.062 813.596C202.777 812.471 203.308 811.851 204.543 811.286C205.43 810.881 206.548 810.619 207.506 810.939C211.551 812.29 219.003 820.636 222.49 823.69C266.605 862.342 334.103 903.57 387.92 927.691C393.361 930.129 398.652 933.824 404.233 935.739C406.701 936.585 408.508 936.405 410.793 935.163C423.12 928.462 440.641 904.416 446.696 891.604C450.189 884.213 452.396 876.309 454.758 868.507C447.873 864.594 441.356 859.88 434.787 855.458Q428.043 850.981 421.491 846.229Q414.939 841.477 408.589 836.457Q402.239 831.437 396.102 826.159Q389.966 820.88 384.053 815.352Q378.141 809.824 372.462 804.056Q366.784 798.287 361.349 792.289Q355.914 786.29 350.733 780.072Q345.551 773.853 340.632 767.425Q333.381 758.013 326.873 748.073C323.227 742.503 319.72 736.519 315.413 731.437C315.271 731.269 315.124 731.104 314.98 730.937C310.013 729.022 304.445 727.953 300.016 724.859C298.51 723.806 296.587 722.02 296.224 720.118C295.128 714.375 300.991 706.239 302.776 700.731C304.223 696.268 305.027 691.185 304.992 686.493C304.887 672.49 301.299 658.008 299.294 644.155C295.996 621.381 293.613 597.525 293.443 574.525C293.222 544.623 296.074 514.719 299.134 484.993C302.215 455.066 308.126 417.649 302.901 388.122C302.08 383.484 300.561 377.986 297.676 374.199C294.306 369.775 288.528 366.365 284.018 363.145C250.416 339.158 209.724 324.975 169.712 316.057C160.274 313.953 150.525 312.107 140.951 310.752C135.852 310.031 130.553 309.968 125.518 308.944C124.442 308.725 123.415 308.374 122.568 307.64C120.846 306.148 120.822 303.575 120.547 301.478C117.826 301.946 114.967 302.27 112.312 303.023C111.913 301.364 111.498 299.519 110.282 298.237C109.369 297.275 108.508 296.758 107.16 296.742C103.859 296.704 101.345 299.787 99.2436 301.916L98.8185 301.492C96.4332 299.082 92.9532 297.982 89.9498 296.471C90.8239 295.45 91.464 294.662 91.7257 293.301C92.3315 290.151 91.3593 286.207 91.6137 282.878C92.6134 269.798 98.6473 258.113 108.48 249.456C121.762 237.762 164.021 227.651 169.795 220.463C170.593 219.47 171.06 218.242 170.799 216.957C170.352 214.754 168.543 213.6 166.85 212.383C170.244 210.333 174.034 208.73 177.569 206.906Z"/>
	<path fill="#C8C3D4" d="M275.505 876.521C307.777 896.654 339.936 916.537 374.439 932.671C382.621 936.497 391.336 941.082 400.071 943.422C401.46 942.84 403.06 941.681 404.552 942.45C407.184 943.806 407.935 946.684 411.504 946.233C417.288 945.503 422.984 938.719 427.267 935.07C432.42 938.28 437.548 941.386 443.044 943.993C458.666 951.402 496.804 965.772 513.448 968.302C522.258 965.048 530.606 960.405 539.19 956.587C551.997 950.892 586.812 939.242 592.65 926.856C593.379 925.309 593.574 923.716 592.876 922.107C592.411 921.034 591.817 919.989 591.218 918.986C621.806 910.257 652.172 900.793 682.906 892.571C680.783 901.799 677.905 910.81 675.501 919.964C666.407 954.592 656.344 989.116 648.288 1024L283.741 1024C282.196 974.826 277.552 925.692 275.505 876.521Z"/>
	<path fill="#9F8BE8" d="M0 944.214C19.0586 948.969 37.7207 953.824 57.1136 957.171C112.785 966.779 176.986 966.824 232.603 957.973C245.033 955.995 257.216 953.029 269.508 950.375C271.382 974.782 272.68 999.541 273.52 1024L0 1024L0 944.214Z"/>
	<path fill="#FBD879" d="M177.569 206.906C177.776 208.407 177.837 210.178 179.043 211.255C180.361 212.43 181.852 212.343 183.472 212.11C192.782 210.771 198.272 209.178 206.775 215.409C216.972 222.881 223.777 236.644 231.091 246.863C236.623 254.591 242.49 262.186 248.434 269.602C266.098 291.637 288.066 309.712 304.455 332.967C311.282 342.653 315.056 351.987 318.986 363.019C320.293 366.69 321.142 368.191 325.326 368.111C325.522 373.183 325.563 378.022 326.396 383.057C325.217 383.895 323.485 384.818 323.23 386.345C322.49 390.781 325.23 412.004 325.665 418.322C327.744 448.457 330.055 478.926 330.661 509.113C330.778 514.975 329.95 541.674 332.622 544.852C333.009 545.312 333.433 545.734 333.862 546.154C332.934 549.899 332.103 553.886 330.743 557.493C328.115 557.141 326.849 557.103 324.699 558.745Q324.186 559.141 323.689 559.556C322.33 558.714 321.336 557.597 320.247 556.446C321.948 545.669 330.143 490.049 327.614 483.642C326.963 481.991 324.987 480.742 323.437 480.088C322.217 480.134 321.8 480.115 320.802 480.926C319.133 482.28 318.359 485.305 317.959 487.296C316.485 494.639 316.45 502.662 315.702 510.138C314.465 522.497 312.618 534.863 311.872 547.261L304.579 547.579C305.667 518.517 309.256 489.34 312.032 460.388C314.076 439.068 316.615 416.376 314.319 395.001C312.722 380.139 309.521 369.863 297.587 360.347C258.869 329.474 192.186 306.455 143.382 300.783C137.486 300.098 130.24 297.841 124.411 298.712C122.456 299.004 121.661 300.009 120.547 301.478C117.826 301.946 114.967 302.27 112.312 303.023C111.913 301.364 111.498 299.519 110.282 298.237C109.369 297.275 108.508 296.758 107.16 296.742C103.859 296.704 101.345 299.787 99.2436 301.916L98.8185 301.492C96.4332 299.082 92.9532 297.982 89.9498 296.471C90.8239 295.45 91.464 294.662 91.7257 293.301C92.3315 290.151 91.3593 286.207 91.6137 282.878C92.6134 269.798 98.6473 258.113 108.48 249.456C121.762 237.762 164.021 227.651 169.795 220.463C170.593 219.47 171.06 218.242 170.799 216.957C170.352 214.754 168.543 213.6 166.85 212.383C170.244 210.333 174.034 208.73 177.569 206.906Z"/>
	<path fill="#020201" d="M135.286 238.66C135.437 238.642 135.588 238.62 135.74 238.606C153.045 237.072 169.064 246.507 182.128 256.848C188.303 261.736 207.24 277.775 207.077 285.168C207.06 285.923 206.871 286.76 206.322 287.302C205.292 288.318 203.882 288.499 202.495 288.481C199.909 288.446 199.02 287.405 197.269 285.638L196.75 285.106C182.514 270.412 168.118 255.524 147.9 249.471C142.74 247.927 123.948 249.928 123.321 249.439C122.305 248.647 121.865 247.333 121.688 246.097C121.49 244.709 121.726 243.729 122.611 242.612C124.933 239.679 131.83 239.222 135.286 238.66Z"/>
	<path fill="#9F8BE8" d="M320.247 556.446C321.336 557.597 322.33 558.714 323.689 559.556C321.83 568.585 328.215 588.973 330.986 598.263C335.031 611.826 341.511 622.768 354.193 629.596C353.761 632.467 353.307 635.323 352.522 638.122C351.088 643.23 346.716 651.313 347.573 656.467C347.734 657.431 348.325 658.347 349.008 659.03C354.194 664.22 365.58 661.209 371.622 667.381C380.738 676.694 384.76 690.355 392.668 700.663C400.311 710.626 410.613 718.889 419.946 727.206C439.205 744.369 459.037 763.147 481.784 775.626C473.983 779.441 464.656 781.783 456.388 784.491C433.936 791.847 411.055 798.07 388.776 805.926C372.325 791.406 355.657 771.251 342.795 753.384C336.752 744.988 328.652 730.322 321.443 723.903C317.288 720.204 310.98 719.221 306.168 716.419L305.538 716.047C318.763 697.571 315.319 684.496 313.176 663.389C318.74 652.905 328.637 645.634 337.113 637.733C338.524 636.418 339.67 634.899 339.486 632.84C339.382 631.679 338.736 630.614 337.808 629.921C336.621 629.035 334.951 628.705 333.504 628.971C326.402 630.276 314.245 644.078 310.298 649.792C308.651 641.646 308.009 633.218 307.174 624.957C304.977 603.213 304.164 582.08 304.409 560.233C306.592 560.535 308.91 561.064 311.116 561.029C315.096 560.965 317.575 559.214 320.247 556.446Z"/>
	<path fill="#FBD879" d="M674.016 761.983C674.487 762.102 674.479 762.003 674.734 762.422C675.338 763.419 678.232 794.35 677.769 796.316C677.444 797.693 676.755 798.436 675.55 799.13C672.626 800.815 669.079 801.439 665.94 802.642C650.961 808.38 635.82 813.651 620.794 819.265Q571.697 838.105 522.243 855.986C509.336 860.657 496.636 866.017 483.448 869.886C478.712 871.275 471.788 872.782 466.981 871.381L466.688 870.623C466.951 869.747 467.365 868.7 467.175 867.765C466.69 865.376 463.19 863.697 461.299 862.488C463.494 855.542 462.125 845.959 462.047 838.594C494.064 828.723 525.089 816.681 556.509 805.131L674.016 761.983Z"/>
	<path fill="#403370" d="M568.467 872.209C571.095 872.099 573.652 872.438 576.255 872.74C576.112 872.969 575.967 873.197 575.826 873.427C570.397 882.328 558.08 886.371 548.207 887.684C543.425 888.319 537.038 887.95 533.039 890.938C531.312 892.228 530.194 894.14 530.042 896.307C529.826 899.394 531.741 902.293 533.745 904.461C539.985 911.21 556.114 921.155 565.073 923.184C570.629 924.442 576.708 924.238 582.387 924.429C570.067 935.331 550.511 940.487 535.529 947.24C527.707 950.765 520.127 955.26 512.098 958.228C506.65 956.88 501.417 955.105 496.126 953.257C475.178 945.32 453.401 939.801 434.185 927.824C446.773 913.621 456.847 898.162 462.081 879.793C473.028 881.376 484.374 881.249 494.918 877.598C499.612 875.973 504.184 873.651 509.193 873.26C517.747 872.592 526.881 873.971 535.509 874.027C546.581 874.099 557.442 872.949 568.467 872.209Z"/>
	<path fill="#FBD879" d="M605.284 744.474C611.192 743.917 652.909 754.221 661.759 756.457C653.174 758.936 644.812 762.21 636.432 765.29L603.608 777.27L518.804 808.538C506.544 813.108 494.183 817.311 481.817 821.582C474.886 823.975 467.571 827.048 460.406 828.547C458.868 828.868 457.404 828.637 455.879 828.359Q441.166 825.353 426.355 822.87C418.843 821.603 410.145 821.012 403.085 818.154C400.867 817.255 399.245 815.5 397.563 813.857L605.284 744.474Z"/>
	<path fill="#FBD879" d="M718.956 833.57C719.555 833.597 719.159 833.547 720.099 833.922C720.992 838.493 720.48 843.842 720.526 848.51Q720.714 859.897 721.033 871.282C716.238 873.244 710.99 874.392 705.995 875.766C696.371 878.414 686.676 880.894 677.108 883.736L617.919 900.897C604.19 904.953 590.503 909.623 576.626 913.114C567.415 915.431 561.313 911.094 553.717 906.572C549.853 904.182 545.999 901.868 542.492 898.96C555.562 897.255 573.719 893.324 582.123 882.051C584.921 878.3 586.338 874.141 585.706 869.494C595.675 866.442 605.912 864.062 615.974 861.303C650.253 851.902 684.754 843.246 718.956 833.57Z"/>
	<path fill="#FBD879" d="M668.109 812.496C673.156 813.499 678.166 815.112 683.16 816.376C693.219 818.92 703.253 821.272 713.11 824.536C687.247 832.696 660.82 838.983 634.658 846.081L596.22 856.503C589.737 858.235 583.205 860.293 576.621 861.538C561.537 862.136 547.02 864.134 531.852 863.535Q599.805 837.545 668.109 812.496Z"/>
	<path fill="#FBD879" d="M418.439 831.447C429.468 832.566 440.867 835.775 451.673 838.288C452.001 843.638 451.943 849.035 452.016 854.395C448.832 853.115 422.684 834.648 418.439 831.447Z"/>
	<path fill="#020201" d="M99.2436 301.916C101.345 299.787 103.859 296.704 107.16 296.742C108.508 296.758 109.369 297.275 110.282 298.237C111.498 299.519 111.913 301.364 112.312 303.023C112.193 303.181 112.075 303.34 111.953 303.496C108.872 307.456 105.005 310.877 101.502 314.464C97.6121 318.448 93.9458 322.652 90.2707 326.833Q69.5082 350.829 50.8332 376.482C37.9209 394.113 25.7502 413.199 14.6284 431.985C9.65043 440.394 5.39693 449.568 0 457.661L0 438.053C5.95764 426.686 12.8101 415.787 19.6582 404.94Q28.2891 391.109 37.5996 377.725Q46.91 364.342 56.8768 351.44Q66.8436 338.537 77.4419 326.149Q88.0402 313.76 99.2436 301.916Z"/>
	<path fill="#020201" d="M133.956 521.037C135.865 520.908 138.14 520.752 139.749 522.022C142.903 524.513 142.501 541.637 142.774 546.248C146.023 601.156 152.19 656.64 164.287 710.333Q168.492 729.161 174.771 747.402C176.896 753.757 182.762 766.161 183.314 771.986C182.519 773.767 181.529 774.782 180.132 776.126C179.546 776.2 178.959 776.271 178.367 776.287C177.048 776.321 176.163 775.763 175.301 774.819C170.324 769.372 167.701 758.453 165.411 751.47C145.775 691.589 138.824 627.658 133.246 565.168C132.242 553.915 129.762 535.93 130.981 525.073C131.233 522.829 132.281 522.335 133.956 521.037Z"/>
	<path fill="#020201" d="M271.767 369.686C273.047 369.535 274.8 369.444 276.009 369.907C277.458 370.462 279.05 372.063 279.478 373.543C280.107 375.713 278.645 378.035 276.716 379.001C272.988 380.87 263.571 381.891 258.932 383.29C247.078 386.865 235.778 394.024 225.357 400.582C195.412 419.426 167.873 449.17 148.776 478.764Q144.165 485.844 140.077 493.239C137.689 497.657 135.59 502.499 132.702 506.606C132.608 506.739 132.51 506.871 132.415 507.003C130.707 507.61 127.957 507.637 126.305 506.768C125.284 506.232 124.913 505.181 124.749 504.108C123.256 494.311 151.593 456.259 158.005 448.264C182.74 417.425 231.55 374.075 271.767 369.686Z"/>
	<path fill="#020201" d="M276.329 671.714C280.683 671.464 284.674 672.748 288.588 674.516C289.022 675.361 289.461 676.223 289.779 677.12C292.953 686.053 287.231 699.038 283.462 707.026Q279.588 715.203 274.773 722.864C270.03 730.435 246.314 764.946 239.263 766.672C238.123 766.951 237.067 766.936 236.072 766.242C235.152 765.6 234.536 764.527 234.278 763.45C233.835 761.595 234.291 759.63 235.264 758.017C237.763 753.873 244.266 747.37 247.598 743.192Q259.433 728.57 269.116 712.442C274.386 702.864 279.101 692.807 281.016 681.975C260.043 681.508 241.432 694.737 227.491 709.343C225.064 711.886 221.581 717.313 218.171 718.24C216.792 718.614 215.587 718.402 214.344 717.731C213.19 717.109 212.332 715.737 212.133 714.476C211.669 711.553 214.274 708.574 216.031 706.498C231.048 688.751 252.759 673.819 276.329 671.714Z"/>
	<path fill="#020201" d="M743.794 538.062C736.862 525.035 732.425 513.067 736.815 498.315C741.866 481.343 757.116 473.22 771.675 465.314C778.478 461.619 783.468 459.011 791.283 461.328C837.72 473.995 876.752 519.337 899.879 559.812C911.512 580.17 916.936 595.283 923.191 617.637C924.519 622.382 927.286 629.354 926.056 634.23C925.567 636.168 924.35 637.435 922.762 638.54L922.202 639.069C921.526 642.03 920.908 644.769 919.522 647.495C920.525 648.89 921.95 650.468 922.494 652.101C920.291 657.094 911.551 668.311 906.498 670.268C905.7 670.577 905.014 670.424 904.212 670.269C900.686 671.189 895.775 677.102 893.836 680.179C893.102 681.343 892.498 682.692 892.076 684.003L893.16 684.456C893.938 682.032 894.768 679.011 897.361 677.927C899.338 677.101 901.64 678.002 903.375 678.992C931.668 695.133 954.933 745.89 965.503 775.859C963.812 778.767 962.813 780.619 959.502 781.858C962.095 783.471 962.944 785.078 964.055 787.869C964.099 788.026 964.141 788.183 964.187 788.34C966.148 795.011 969.797 801.511 972.399 807.993C976.388 817.928 979.522 828.373 982.55 838.633C1000.06 897.966 1006.41 962.32 1005.12 1024L843.253 1024L833.058 1024L753.256 1024L743.804 1024L712.281 1024L703.023 1024L658.102 1024C660.468 1013.84 663.567 1003.78 666.218 993.679C671.357 974.084 676.298 954.478 681.698 934.948C685.818 920.049 688.982 904.618 694.182 890.062C705.06 886.54 716.879 884.141 727.395 879.733C729.323 878.925 729.689 878.877 730.48 876.887C731.073 873.423 730.548 825.089 729.661 821.631C725.104 817.337 714.128 814.46 708.009 812.085C712.708 798.195 717.922 784.221 723.157 770.52C725.463 764.487 731.833 751.869 732.3 746.08C733.193 744.728 733.199 744.548 734.703 744.012L734.168 743.813C733.358 746.225 731.22 751.348 732.275 753.599C732.455 753.661 732.63 753.741 732.815 753.786C734.841 754.278 740.345 753.92 742.119 752.801C743.719 751.791 744.054 750.824 744.575 749.095C744.904 748.005 745.094 747.286 745.85 746.398C746.898 746.046 747.773 745.665 748.728 745.106C747.796 739.218 747.169 733.178 744.878 727.637L743.684 729.258C742.453 730.905 740.941 733.106 738.765 733.427L738.158 732.749C736.919 732.266 735.61 731.836 734.554 731.005C733.566 730.227 733.245 729.28 733.169 728.03C732.812 722.196 759.923 692.384 765.44 686.765L761.455 678.236C749.024 675.296 735.883 672.984 724.657 666.619C717.347 662.474 712.243 657.36 710.025 648.992C708.409 642.898 707.741 623.556 711.127 618.6C712.122 617.143 713.509 616.955 715.117 616.567C714.904 616.425 714.908 616.454 714.75 616.124C713.887 614.318 714.197 601.455 714.755 599.047L715.519 598.983C714.538 598.471 713.65 597.898 712.864 597.114C711.88 596.132 711.494 594.761 711.523 593.39C711.597 589.881 712.548 585.932 713.188 582.466C717.179 560.833 728.996 552.566 743.794 538.062Z"/>
	<path fill="#FEFEFE" d="M743.794 538.062C736.862 525.035 732.425 513.067 736.815 498.315C741.866 481.343 757.116 473.22 771.675 465.314C778.478 461.619 783.468 459.011 791.283 461.328C837.72 473.995 876.752 519.337 899.879 559.812C911.512 580.17 916.936 595.283 923.191 617.637C924.519 622.382 927.286 629.354 926.056 634.23C925.567 636.168 924.35 637.435 922.762 638.54L922.202 639.069C921.526 642.03 920.908 644.769 919.522 647.495C920.525 648.89 921.95 650.468 922.494 652.101C920.291 657.094 911.551 668.311 906.498 670.268C905.7 670.577 905.014 670.424 904.212 670.269C900.686 671.189 895.775 677.102 893.836 680.179C893.102 681.343 892.498 682.692 892.076 684.003L891.677 685.152C891.33 685.347 890.988 685.549 890.635 685.733C886.439 687.927 876.357 696.552 872.256 696.24C868.82 695.979 865.09 692.264 863.001 689.76C858.323 684.15 859.736 678.419 860.336 671.702C871.426 670.676 880.797 668.553 890.567 662.975C896.912 659.352 904.81 652.881 906.653 645.506C907.61 641.677 906.592 637.553 904.585 634.23C902.074 630.075 898.078 626.515 893.273 625.374C887.106 623.91 882.567 628.319 877.654 631.293C873.277 633.942 864.769 637.109 859.691 635.627C846.013 631.638 862.41 599.201 858.004 592.935C856.617 590.963 854.202 590.625 852.023 590.136C847.8 595.076 843.846 621.17 844.382 627.975C844.787 633.11 846.617 638.608 850.735 641.962C855.156 645.562 863.078 646.085 868.568 645.324C874.873 644.449 879.834 641.76 885.147 638.445C886.771 637.431 888.479 636.154 890.322 635.612C891.75 635.193 893.025 635.547 894.169 636.471C895.637 637.655 896.49 639.505 896.596 641.371C896.755 644.142 895.052 646.529 893.186 648.41C885.183 656.475 870.027 661.959 858.729 661.537C852.443 661.302 842.621 655.406 838.608 655.803C837.392 655.924 836.301 656.609 835.444 657.446C834.684 658.189 834.112 659.142 834.104 660.234C834.091 662.077 835.622 663.586 836.99 664.606C840.924 667.538 846.377 669.064 850.833 671.131C849.481 679.652 848.602 687.251 854.111 694.636C856.939 698.426 860.799 701.471 864.719 704.059Q857.67 710.543 851.363 717.752Q845.056 724.96 839.565 732.808C834.378 740.197 829.72 747.96 824.457 755.292C824.317 755.336 824.177 755.377 824.038 755.424C816.544 757.946 791.295 775.598 785.99 774.664C783.874 770.905 785.839 758.933 785.837 753.946C785.835 750.897 785.568 747.824 785.31 744.787C783.522 723.774 779.764 699.467 771.883 679.832C778.06 680.15 801.41 684.122 805.191 680.225C806.036 679.354 806.409 678.231 806.225 677.03C805.999 675.55 804.635 674.48 803.367 673.872C798.224 671.408 787.3 672.074 781.312 671.5C766.245 670.056 725.833 664.239 719.828 649.141C716.545 640.889 720.466 623.555 718.022 618.964C717.404 617.804 716.274 617.111 715.117 616.567C714.904 616.425 714.908 616.454 714.75 616.124C713.887 614.318 714.197 601.455 714.755 599.047L715.519 598.983C714.538 598.471 713.65 597.898 712.864 597.114C711.88 596.132 711.494 594.761 711.523 593.39C711.597 589.881 712.548 585.932 713.188 582.466C717.179 560.833 728.996 552.566 743.794 538.062Z"/>
	<path fill="#020201" d="M743.794 538.062C736.862 525.035 732.425 513.067 736.815 498.315C741.866 481.343 757.116 473.22 771.675 465.314C778.478 461.619 783.468 459.011 791.283 461.328C837.72 473.995 876.752 519.337 899.879 559.812C911.512 580.17 916.936 595.283 923.191 617.637C924.519 622.382 927.286 629.354 926.056 634.23C925.567 636.168 924.35 637.435 922.762 638.54L922.202 639.069C921.526 642.03 920.908 644.769 919.522 647.495C920.525 648.89 921.95 650.468 922.494 652.101C920.291 657.094 911.551 668.311 906.498 670.268C905.7 670.577 905.014 670.424 904.212 670.269C900.686 671.189 895.775 677.102 893.836 680.179C893.102 681.343 892.498 682.692 892.076 684.003L891.677 685.152C891.33 685.347 890.988 685.549 890.635 685.733C886.439 687.927 876.357 696.552 872.256 696.24C868.82 695.979 865.09 692.264 863.001 689.76C858.323 684.15 859.736 678.419 860.336 671.702C871.426 670.676 880.797 668.553 890.567 662.975C896.912 659.352 904.81 652.881 906.653 645.506C907.61 641.677 906.592 637.553 904.585 634.23C902.074 630.075 898.078 626.515 893.273 625.374C887.106 623.91 882.567 628.319 877.654 631.293C873.277 633.942 864.769 637.109 859.691 635.627C846.013 631.638 862.41 599.201 858.004 592.935C856.617 590.963 854.202 590.625 852.023 590.136C853.082 587.833 852.703 583.558 852.835 580.927C849.837 579.14 847.394 576.458 844.952 573.99Q839.361 568.344 834.039 562.444C827.408 555.032 822.559 548.86 812.912 545.404C811.344 545.875 809.457 546.679 807.876 545.907C806.811 545.386 805.933 544.478 805.696 543.286C805.42 541.896 805.803 540.701 806.605 539.573C807.755 537.955 810.117 537.262 811.99 537.123C816.458 536.791 820.52 538.666 824.39 540.638C816.888 522.374 811.138 505.074 819.127 485.912Q819.437 485.155 819.769 484.408L811.377 479.962C805.416 484.699 799.973 490.049 794.004 494.772C787.728 499.738 780.96 503.611 773.881 507.303C777.872 509.664 784.456 513.727 785.439 518.606C785.625 519.527 785.376 520.2 785.079 521.05C783.981 522.348 783.048 522.82 781.497 523.482C774.557 521.717 773.519 515.869 763.823 515.324C758.523 523.884 757.072 534.6 751.347 542.968C743.884 553.877 733.677 557.513 726.503 571.524C725.026 574.409 723.909 577.268 723.124 580.413C721.988 584.968 721.736 593.336 719.177 597.077C718.697 597.78 717.851 598.172 717.089 598.473C716.494 598.708 716.111 598.809 715.519 598.983C714.538 598.471 713.65 597.898 712.864 597.114C711.88 596.132 711.494 594.761 711.523 593.39C711.597 589.881 712.548 585.932 713.188 582.466C717.179 560.833 728.996 552.566 743.794 538.062Z"/>
	<path fill="#403370" d="M852.835 580.927C854.826 580.15 856.466 579.073 857.336 577.033C857.911 575.685 857.66 574.552 857.083 573.25C854.635 567.717 849.408 562.938 845.933 557.966C833.479 540.14 819.457 513.598 827.128 491.432Q827.311 490.907 827.509 490.387C865.931 518.986 899.601 567.911 912.132 614.162C913.535 619.339 915.87 633.543 919.56 637.041C920.475 637.909 921.585 638.178 922.762 638.54L922.202 639.069C921.526 642.03 920.908 644.769 919.522 647.495C920.525 648.89 921.95 650.468 922.494 652.101C920.291 657.094 911.551 668.311 906.498 670.268C905.7 670.577 905.014 670.424 904.212 670.269C900.686 671.189 895.775 677.102 893.836 680.179C893.102 681.343 892.498 682.692 892.076 684.003L891.677 685.152C891.33 685.347 890.988 685.549 890.635 685.733C886.439 687.927 876.357 696.552 872.256 696.24C868.82 695.979 865.09 692.264 863.001 689.76C858.323 684.15 859.736 678.419 860.336 671.702C871.426 670.676 880.797 668.553 890.567 662.975C896.912 659.352 904.81 652.881 906.653 645.506C907.61 641.677 906.592 637.553 904.585 634.23C902.074 630.075 898.078 626.515 893.273 625.374C887.106 623.91 882.567 628.319 877.654 631.293C873.277 633.942 864.769 637.109 859.691 635.627C846.013 631.638 862.41 599.201 858.004 592.935C856.617 590.963 854.202 590.625 852.023 590.136C853.082 587.833 852.703 583.558 852.835 580.927Z"/>
	<path fill="#020201" d="M919.522 647.495C920.525 648.89 921.95 650.468 922.494 652.101C920.291 657.094 911.551 668.311 906.498 670.268C905.7 670.577 905.014 670.424 904.212 670.269C903.581 668.027 902.371 665.835 901.404 663.711C901.783 663.128 902.156 662.554 902.598 662.016C905.741 658.189 911.783 651.098 915.773 648.497C916.913 647.754 918.204 647.613 919.522 647.495Z"/>
	<path fill="#403370" d="M784.845 470.007C790.875 470.982 796.603 473.27 802.313 475.361Q797.288 480.004 791.891 484.208Q786.494 488.412 780.762 492.148C767.682 500.604 760.212 501.818 752.805 516.719C751.207 520.129 749.82 523.669 748.352 527.139C745.004 518.573 743.749 509.417 746.533 500.488C751.5 484.555 771.355 477.185 784.845 470.007Z"/>
	<path fill="#020201" d="M734.651 583.016C735.53 583.059 736.433 583.1 737.291 583.312C742.02 584.484 747.55 591.349 751.071 594.61C754.344 597.642 757.849 600.865 761.621 603.268C767.002 606.696 783.46 613.688 785.787 617.927C785.97 619.445 786.05 620.603 785.346 622.025C783.328 626.105 778.307 628.058 774.292 629.542C764.828 632.947 752.872 633.092 743.391 629.69C736.712 627.294 731.097 622.77 728.137 616.2C724.747 608.673 724.461 598.08 727.549 590.408C729.111 586.528 730.816 584.59 734.651 583.016Z"/>
	<path fill="#FEFEFE" d="M736.089 592.799C739.787 595.595 742.743 599.921 746.298 603.036C754.33 610.074 763.11 614.796 772.254 620.086L772.277 620.624L770.399 621.616C764.023 622.782 757.649 623.492 751.219 622.256C745.701 621.195 740.155 618.541 737.067 613.658C733.12 607.418 734.411 599.557 736.089 592.799Z"/>
	<path fill="#020201" d="M779.388 546.386C780.034 546.557 780.79 546.812 781.375 547.156C782.428 547.775 783.327 548.887 783.487 550.117C784.219 555.735 764.728 568.022 760.534 573.181C760.417 573.326 760.303 573.473 760.188 573.619C761.953 576.39 764.503 578.452 766.347 581.154C767.382 582.671 768.192 584.51 767.603 586.367C766.977 588.343 765.496 588.998 763.764 589.764C758.999 587.929 755.871 584.343 753.487 579.913Q753.176 579.346 752.924 578.751Q752.672 578.156 752.483 577.538Q752.293 576.92 752.168 576.286Q752.042 575.651 751.983 575.008Q751.923 574.364 751.929 573.718Q751.935 573.071 752.008 572.429Q752.08 571.786 752.218 571.155Q752.355 570.523 752.557 569.909C755.041 562.529 772.327 549.818 779.388 546.386Z"/>
	<path fill="#020201" d="M806.883 560.841Q807.118 560.747 807.358 560.668Q807.599 560.59 807.844 560.527Q808.089 560.465 808.338 560.419Q808.587 560.373 808.838 560.344Q809.09 560.314 809.342 560.302Q809.595 560.289 809.848 560.293Q810.101 560.297 810.353 560.318Q810.605 560.339 810.855 560.377Q811.106 560.414 811.353 560.468Q811.6 560.523 811.843 560.593Q812.086 560.663 812.324 560.75Q812.562 560.836 812.793 560.938Q813.025 561.04 813.249 561.157Q813.474 561.274 813.69 561.406Q813.906 561.537 814.112 561.683Q814.319 561.829 814.516 561.988Q814.713 562.147 814.898 562.319Q815.084 562.491 815.258 562.674Q815.432 562.858 815.593 563.053Q815.754 563.248 815.902 563.453Q816.051 563.658 816.185 563.873Q816.319 564.087 816.438 564.31Q816.558 564.533 816.662 564.763Q816.767 564.994 816.856 565.231Q816.945 565.467 817.018 565.71Q817.091 565.952 817.148 566.198Q817.205 566.445 817.245 566.695Q817.286 566.944 817.31 567.196Q817.333 567.448 817.341 567.701Q817.348 567.954 817.338 568.207Q817.328 568.459 817.302 568.711Q817.275 568.963 817.232 569.212Q817.189 569.461 817.129 569.707Q817.07 569.953 816.994 570.194Q816.918 570.436 816.827 570.672Q816.735 570.907 816.628 571.137Q816.521 571.366 816.399 571.588Q816.277 571.809 816.141 572.022Q816.004 572.235 815.854 572.439Q815.704 572.642 815.541 572.836Q815.377 573.029 815.201 573.211Q815.025 573.393 814.838 573.562Q814.65 573.732 814.452 573.889Q814.254 574.046 814.045 574.19Q813.837 574.333 813.619 574.463Q813.402 574.592 813.177 574.707Q812.951 574.821 812.718 574.921Q812.486 575.02 812.247 575.104Q812.073 575.165 811.896 575.218Q811.719 575.27 811.54 575.314Q811.361 575.358 811.18 575.393Q810.999 575.429 810.817 575.455Q810.634 575.482 810.45 575.499Q810.267 575.517 810.083 575.526Q809.898 575.534 809.714 575.534Q809.53 575.534 809.345 575.525Q809.161 575.516 808.978 575.497Q808.794 575.479 808.612 575.453Q808.429 575.426 808.248 575.39Q808.067 575.354 807.888 575.31Q807.709 575.265 807.532 575.212Q807.356 575.159 807.182 575.098Q807.008 575.036 806.837 574.966Q806.667 574.897 806.5 574.819Q806.332 574.741 806.169 574.655Q806.006 574.569 805.847 574.475Q805.689 574.381 805.534 574.28Q805.38 574.178 805.231 574.07Q805.082 573.961 804.939 573.845Q804.795 573.729 804.657 573.607Q804.52 573.484 804.388 573.355Q804.256 573.226 804.131 573.091Q804.006 572.955 803.887 572.814Q803.768 572.673 803.657 572.526Q803.545 572.379 803.441 572.227Q803.336 572.075 803.239 571.918Q803.142 571.761 803.053 571.6Q802.964 571.438 802.883 571.273Q802.801 571.107 802.728 570.938Q802.655 570.769 802.59 570.596Q802.525 570.423 802.469 570.248Q802.412 570.072 802.364 569.894Q802.316 569.716 802.277 569.536Q802.238 569.356 802.207 569.174Q802.177 568.992 802.155 568.809Q802.133 568.625 802.12 568.441Q802.108 568.257 802.104 568.073Q802.1 567.889 802.105 567.704Q802.11 567.52 802.124 567.336Q802.138 567.152 802.161 566.969Q802.184 566.786 802.215 566.604Q802.247 566.423 802.288 566.243Q802.328 566.063 802.377 565.885Q802.426 565.707 802.484 565.532Q802.541 565.357 802.607 565.184Q802.673 565.012 802.748 564.843Q802.822 564.674 802.904 564.509Q802.987 564.344 803.077 564.184Q803.167 564.023 803.265 563.866Q803.363 563.71 803.469 563.559Q803.574 563.407 803.687 563.261Q803.799 563.115 803.919 562.975Q804.038 562.834 804.164 562.7Q804.291 562.565 804.423 562.437Q804.556 562.309 804.694 562.187Q804.833 562.065 804.977 561.95Q805.121 561.835 805.271 561.728Q805.421 561.62 805.576 561.52Q805.73 561.419 805.89 561.326Q806.049 561.234 806.213 561.149Q806.377 561.064 806.544 560.987Q806.712 560.91 806.883 560.841Z"/>
	<path fill="#020201" d="M764.555 527.543C765.771 527.568 767.192 527.542 768.342 527.962C769.77 528.484 770.969 529.764 771.602 531.124C772.491 533.032 772.339 535.206 771.644 537.148C770.562 540.174 768.675 541.215 765.873 542.494C764.871 542.475 763.787 542.483 762.81 542.244C761.054 541.816 759.75 540.448 758.974 538.878C758.11 537.128 758.349 534.779 758.997 533.007C760.064 530.086 761.826 528.821 764.555 527.543Z"/>
	<path fill="#FBD879" d="M957.564 782.158L959.502 781.858C962.095 783.471 962.944 785.078 964.055 787.869C964.099 788.026 964.141 788.183 964.187 788.34C966.148 795.011 969.797 801.511 972.399 807.993C976.388 817.928 979.522 828.373 982.55 838.633C1000.06 897.966 1006.41 962.32 1005.12 1024L843.253 1024L833.058 1024C834.819 1009.85 838.349 995.758 841.27 981.803C847.882 950.216 854.838 918.847 865.101 888.201C867.448 881.191 869.5 873.429 872.662 866.763C873.672 864.635 874.798 864.395 876.904 863.637C879.304 860.783 881.202 857.137 883.198 853.972C883.177 853.934 883.156 853.895 883.134 853.857C882.629 852.998 882.075 852.126 881.695 851.202C881.256 850.139 881.363 848.918 881.787 847.868C883.817 842.841 888.324 838.298 891.82 834.237C904.95 818.986 927.035 796.576 945.73 788.888C949.163 785.37 953.092 783.895 957.564 782.158Z"/>
	<path fill="#020201" d="M876.904 863.637C878.847 864.457 880.845 865.375 881.793 867.407C882.167 868.209 882.279 869.177 882.05 870.034C879.521 879.502 875.494 889.006 872.446 898.38C859.107 939.398 851.993 981.893 843.253 1024L833.058 1024C834.819 1009.85 838.349 995.758 841.27 981.803C847.882 950.216 854.838 918.847 865.101 888.201C867.448 881.191 869.5 873.429 872.662 866.763C873.672 864.635 874.798 864.395 876.904 863.637Z"/>
	<path fill="#020201" d="M945.73 788.888C947.634 790.185 949.271 791.325 949.814 793.698C950.145 795.147 949.813 797.077 948.871 798.232C946.63 800.977 938.335 804.85 934.965 807.397Q922.326 816.954 911.076 828.114Q904.807 834.217 899.337 841.046C896.114 845.041 892.983 850.468 889.052 853.66C888.059 854.467 887.301 854.591 886.046 854.563C885.075 854.542 884.121 854.245 883.198 853.972C883.177 853.934 883.156 853.895 883.134 853.857C882.629 852.998 882.075 852.126 881.695 851.202C881.256 850.139 881.363 848.918 881.787 847.868C883.817 842.841 888.324 838.298 891.82 834.237C904.95 818.986 927.035 796.576 945.73 788.888Z"/>
	<path fill="#9F8BE8" d="M814.958 800.061C830.287 791.837 845.632 784.231 862.496 779.668C870.867 777.403 879.479 775.68 888.119 774.931C904.375 773.52 944.148 774.469 957.564 782.158C953.092 783.895 949.163 785.37 945.73 788.888C927.035 796.576 904.95 818.986 891.82 834.237C888.324 838.298 883.817 842.841 881.787 847.868C881.363 848.918 881.256 850.139 881.695 851.202C882.075 852.126 882.629 852.998 883.134 853.857C883.156 853.895 883.177 853.934 883.198 853.972C881.202 857.137 879.304 860.783 876.904 863.637C874.798 864.395 873.672 864.635 872.662 866.763C869.5 873.429 867.448 881.191 865.101 888.201C854.838 918.847 847.882 950.216 841.27 981.803C838.349 995.758 834.819 1009.85 833.058 1024L753.256 1024Q761.354 979.253 772.501 935.167Q783.648 891.08 797.792 847.862C803.131 831.868 808.052 815.461 814.958 800.061Z"/>
	<path fill="#9F8BE8" d="M738.158 732.749C739.107 732.283 739.996 731.845 740.772 731.111C744.324 727.749 747.264 723.079 750.33 719.253C756.121 712.025 762.186 705.115 767.675 697.639C773.68 720.751 777.984 745.646 776.534 769.603C770.718 764.415 756.287 745.83 749.276 746.121C747.622 746.189 747.07 746.795 746.092 747.963C745.603 750.322 746.124 751.962 747.43 753.981C750.376 758.538 755.012 761.814 758.34 766.078C755.062 776.022 752.949 786.501 750.503 796.681L738.163 849.833C736.044 859.341 734.316 869.143 731.488 878.465C729.26 889.454 726.443 900.295 724.121 911.255Q716.879 946.005 710.338 980.894C707.647 995.194 704.812 1009.55 703.023 1024L658.102 1024C660.468 1013.84 663.567 1003.78 666.218 993.679C671.357 974.084 676.298 954.478 681.698 934.948C685.818 920.049 688.982 904.618 694.182 890.062C705.06 886.54 716.879 884.141 727.395 879.733C729.323 878.925 729.689 878.877 730.48 876.887C731.073 873.423 730.548 825.089 729.661 821.631C725.104 817.337 714.128 814.46 708.009 812.085C712.708 798.195 717.922 784.221 723.157 770.52C725.463 764.487 731.833 751.869 732.3 746.08C733.193 744.728 733.199 744.548 734.703 744.012L734.168 743.813C733.358 746.225 731.22 751.348 732.275 753.599C732.455 753.661 732.63 753.741 732.815 753.786C734.841 754.278 740.345 753.92 742.119 752.801C743.719 751.791 744.054 750.824 744.575 749.095C744.904 748.005 745.094 747.286 745.85 746.398C746.898 746.046 747.773 745.665 748.728 745.106C747.796 739.218 747.169 733.178 744.878 727.637L743.684 729.258C742.453 730.905 740.941 733.106 738.765 733.427L738.158 732.749Z"/>
	<path fill="#FBD879" d="M789.251 784.202C798.576 779.84 807.204 774.76 816.201 769.814C813.526 777.601 810.271 785.2 807.288 792.876Q799.74 812.013 792.994 831.448Q781.453 864.568 771.954 898.33Q762.455 932.092 755.032 966.371C750.841 985.231 746.329 1004.89 743.804 1024L712.281 1024Q723.536 962.453 736.321 901.206C745.611 858.424 756.163 815.85 766.282 773.256C773.851 778.983 779.447 783.405 789.251 784.202Z"/>
	<path fill="#9F8BE8" d="M891.677 685.152L892.076 684.003L893.16 684.456C916.808 697.833 929.384 721.019 941.097 744.526C944.414 751.182 948.627 758.553 950.719 765.66C950.984 766.562 951.053 767.341 951.04 768.273L950.544 768.693C943.552 768.007 936.681 766.592 929.648 765.943C898.954 763.111 870.421 764.97 841.589 776.647C834.407 779.556 827.583 783.082 820.598 786.414C830.103 761.439 849.743 732.418 869.006 713.673C871.73 711.023 874.493 708.444 877.453 706.057C881.222 703.017 891.266 697.023 893.612 693.194C894.539 691.681 894.454 690.216 893.719 688.656C893.151 687.451 892.374 686.287 891.677 685.152Z"/>
	<path fill="#403370" d="M288.643 69.408C289.394 71.0839 289.887 72.5417 291.414 73.6392C293.61 74.3466 295.668 73.6005 297.646 72.5703C303.402 69.5721 308.396 65.3145 314.302 62.3283Q316.404 61.2778 318.552 60.3256Q320.7 59.3734 322.89 58.5215Q325.08 57.6697 327.306 56.92Q329.533 56.1704 331.792 55.5245Q334.052 54.8786 336.338 54.3379Q338.625 53.7972 340.934 53.3628Q343.243 52.9284 345.57 52.6013Q347.897 52.2741 350.236 52.0549Q352.575 51.8357 354.922 51.725Q357.27 51.6142 359.619 51.6121Q361.969 51.61 364.316 51.7166Q366.663 51.8231 369.003 52.0381Q371.343 52.2531 373.67 52.5761Q375.998 52.899 378.308 53.3293Q380.618 53.7595 382.905 54.2962Q385.193 54.8328 387.453 55.4746C399.125 58.8507 410.056 65.1968 420.66 71.0297C423.608 72.6511 426.226 75.1307 429.312 76.4399C430.776 77.0608 432.704 77.5525 434.169 76.693C435.244 76.0627 435.848 75.258 436.329 74.1451C438.064 76.6355 441.801 78.2695 444.173 80.2478C454.11 82.7882 492.406 124.742 498.22 134.688C499.357 136.635 499.064 138.159 498.5 140.227C498.277 141.045 498.036 141.806 497.729 142.596C499.291 144.415 503.104 147.892 505.487 148.163C509.674 147.633 512.31 148.911 515.632 151.447C527.207 160.28 534.439 175.836 536.141 190.045C537.63 202.477 534.728 214.489 526.855 224.334C515.435 238.615 499.174 244.595 481.531 246.965C477.943 251.075 474.551 255.357 470.936 259.439C467.165 263.697 461.234 268.551 458.838 273.72C457.578 276.438 457.506 279.881 457.713 282.829C458.319 291.465 462.488 301.809 456.192 309.308C453.36 312.681 448.781 314.083 444.517 314.283C440.782 314.458 436.954 313.922 433.244 313.522C431.616 314.748 430.072 316.031 428.541 317.377C428.582 320.597 428.186 321.902 425.859 324.162C423.639 326.318 420.201 327.852 417.298 328.853C414.693 327.955 412.159 327.055 409.661 325.885L409.498 327.196C410.623 329.071 411.554 330.106 411.483 332.317C407.763 336.494 403.686 340.333 399.975 344.51C396.069 348.907 389.329 359.125 384.829 362.036C382.536 363.519 378.854 364.317 376.155 364.461C367.412 364.928 359.445 357.848 353.506 352.262C347.345 346.468 341.713 340.188 336.301 333.698C331.023 334.683 326.155 336.421 321.195 338.437C323.009 343.189 330.457 360.189 328.566 364.733C328.074 365.916 326.305 367.238 325.326 368.111C321.142 368.191 320.293 366.69 318.986 363.019C315.056 351.987 311.282 342.653 304.455 332.967C288.066 309.712 266.098 291.637 248.434 269.602C242.49 262.186 236.623 254.591 231.091 246.863C223.777 236.644 216.972 222.881 206.775 215.409C198.272 209.178 192.782 210.771 183.472 212.11C181.852 212.343 180.361 212.43 179.043 211.255C177.837 210.178 177.776 208.407 177.569 206.906C177.713 206.606 177.839 206.297 178 206.006C180.296 201.858 185.761 200.576 189.978 199.488L189.745 198.867Q189.203 198.414 188.732 197.888Q188.261 197.361 187.871 196.772Q187.481 196.183 187.18 195.544Q186.879 194.905 186.674 194.229C185.485 190.272 186.507 186.151 187.96 182.413C194.716 165.028 209.934 160.697 223.913 150.88Q228.926 147.347 233.43 143.184Q237.934 139.021 241.85 134.301C253.736 120.048 259.168 102.68 268.099 86.7386C269.886 83.5498 271.336 80.7099 275.075 79.6712C278.005 78.585 286.422 71.8581 288.643 69.408Z"/>
	<path fill="#FEFEFE" d="M318.025 249.242C310.346 236.817 309.589 222.803 312.897 208.729C315.296 198.527 321.013 188.214 330.19 182.655C333.608 180.585 337.435 179.352 341.429 180.34C346.228 181.528 349.781 185.45 352.137 189.598C355.154 194.91 357.876 204.26 356.243 210.232C355.876 211.576 355.297 212.916 354.061 213.686C352.948 214.379 351.76 214.458 350.522 214.093C349.969 213.93 349.335 213.496 348.854 213.209C348.719 216.295 348.346 219.582 348.561 222.654C348.307 225.048 346.777 231.14 348.17 232.974C350.632 236.214 361.353 237.33 365.293 237.646C380.741 238.883 392.345 234.923 405.387 226.951C418.946 229.19 432.257 227.802 445.163 233.197C447.094 234.004 449.317 234.851 450.993 236.119C454.346 238.657 458.862 246.461 463.707 242.885C465.265 241.736 466.396 240.198 466.738 238.272C467.088 236.305 466.041 234.333 464.764 232.925C461.367 229.176 455.664 226.877 451.113 224.854Q454.012 224.319 456.869 223.589Q459.725 222.859 462.526 221.938Q465.326 221.016 468.058 219.907Q470.79 218.798 473.44 217.507Q476.09 216.215 478.647 214.748Q481.204 213.28 483.656 211.642Q486.107 210.005 488.443 208.205Q490.778 206.406 492.986 204.452C488.18 221.355 477.241 239.058 465.081 251.683C460.207 256.743 453.654 261.506 450.161 267.665C443.63 279.179 453.343 300.414 447.237 303.84C442.009 306.773 431.36 301.018 428.151 306.589C427.86 308.352 428.011 309.991 429.151 311.468C430.139 312.749 431.752 313.16 433.244 313.522C431.616 314.748 430.072 316.031 428.541 317.377C428.582 320.597 428.186 321.902 425.859 324.162C423.639 326.318 420.201 327.852 417.298 328.853C414.693 327.955 412.159 327.055 409.661 325.885L409.498 327.196C410.623 329.071 411.554 330.106 411.483 332.317C407.763 336.494 403.686 340.333 399.975 344.51C396.069 348.907 389.329 359.125 384.829 362.036C382.536 363.519 378.854 364.317 376.155 364.461C367.412 364.928 359.445 357.848 353.506 352.262C347.345 346.468 341.713 340.188 336.301 333.698C331.023 334.683 326.155 336.421 321.195 338.437C323.009 343.189 330.457 360.189 328.566 364.733C328.074 365.916 326.305 367.238 325.326 368.111C321.142 368.191 320.293 366.69 318.986 363.019C315.056 351.987 311.282 342.653 304.455 332.967C288.066 309.712 266.098 291.637 248.434 269.602C242.49 262.186 236.623 254.591 231.091 246.863C223.777 236.644 216.972 222.881 206.775 215.409C198.272 209.178 192.782 210.771 183.472 212.11C181.852 212.343 180.361 212.43 179.043 211.255C177.837 210.178 177.776 208.407 177.569 206.906C177.713 206.606 177.839 206.297 178 206.006C180.296 201.858 185.761 200.576 189.978 199.488C212.152 204.343 219.66 210.789 231.873 229.826C240.013 242.513 248.561 255.579 259.04 266.483C260.995 265.692 262.943 264.858 264.93 264.152C275.859 268.982 289.834 272.464 301.486 267.826C309.853 264.496 313.937 256.679 318.025 249.242Z"/>
	<path fill="#020201" d="M318.025 249.242C310.346 236.817 309.589 222.803 312.897 208.729C315.296 198.527 321.013 188.214 330.19 182.655C333.608 180.585 337.435 179.352 341.429 180.34C346.228 181.528 349.781 185.45 352.137 189.598C355.154 194.91 357.876 204.26 356.243 210.232C355.876 211.576 355.297 212.916 354.061 213.686C352.948 214.379 351.76 214.458 350.522 214.093C349.969 213.93 349.335 213.496 348.854 213.209C348.8 213.065 348.745 212.922 348.693 212.777C346.48 206.538 346.642 193.812 339.936 190.56C338.48 189.854 336.96 190.098 335.57 190.789C329.562 193.778 324.983 202.844 323.128 209.036C319.925 219.733 320.168 233.095 325.609 243.057C326.666 244.993 328.083 246.712 329.367 248.501C328.53 256.779 327.487 265.164 327.502 273.49C327.51 278.243 328.59 283.33 328.313 287.975C328.234 289.294 327.634 290.914 326.556 291.739C325.636 292.443 324.346 292.569 323.254 292.263C321.223 291.695 319.696 289.942 318.861 288.077C316.658 283.155 317.447 274.606 317.227 269.209C307.797 277.907 297.288 280.628 284.573 280.095C279.265 279.872 274.151 278.915 268.995 277.682C285.497 294.349 302 311.024 315.199 330.53C321.479 327.199 331.877 322.163 339.131 324.211C349.603 327.169 359.395 350.881 375.984 354.66C377.326 354.316 379.108 354.013 380.225 353.163C386.842 348.124 396.699 327.889 405.955 326.615C407.119 326.455 408.385 326.893 409.498 327.196C410.623 329.071 411.554 330.106 411.483 332.317C407.763 336.494 403.686 340.333 399.975 344.51C396.069 348.907 389.329 359.125 384.829 362.036C382.536 363.519 378.854 364.317 376.155 364.461C367.412 364.928 359.445 357.848 353.506 352.262C347.345 346.468 341.713 340.188 336.301 333.698C331.023 334.683 326.155 336.421 321.195 338.437C323.009 343.189 330.457 360.189 328.566 364.733C328.074 365.916 326.305 367.238 325.326 368.111C321.142 368.191 320.293 366.69 318.986 363.019C315.056 351.987 311.282 342.653 304.455 332.967C288.066 309.712 266.098 291.637 248.434 269.602C242.49 262.186 236.623 254.591 231.091 246.863C223.777 236.644 216.972 222.881 206.775 215.409C198.272 209.178 192.782 210.771 183.472 212.11C181.852 212.343 180.361 212.43 179.043 211.255C177.837 210.178 177.776 208.407 177.569 206.906C177.713 206.606 177.839 206.297 178 206.006C180.296 201.858 185.761 200.576 189.978 199.488C212.152 204.343 219.66 210.789 231.873 229.826C240.013 242.513 248.561 255.579 259.04 266.483C260.995 265.692 262.943 264.858 264.93 264.152C275.859 268.982 289.834 272.464 301.486 267.826C309.853 264.496 313.937 256.679 318.025 249.242Z"/>
	<path fill="#020201" d="M409.661 325.885Q407.803 324.765 406.011 323.543C397.811 317.88 389.03 309.468 387.34 299.135C387 297.054 387.043 295.593 388.31 293.842C389.773 292.94 390.715 292.892 392.415 292.888L392.437 293.166C394.323 293.596 401.521 306.56 404.686 309.708C408.454 313.455 412.579 315.72 417.398 317.851C419.374 316.426 422.04 314.083 424.646 314.326C426.591 314.508 427.552 315.912 428.541 317.377C428.582 320.597 428.186 321.902 425.859 324.162C423.639 326.318 420.201 327.852 417.298 328.853C414.693 327.955 412.159 327.055 409.661 325.885Z"/>
	<path fill="#020201" d="M439.472 246.116C440.549 246.055 441.666 245.969 442.742 246.057C444.481 246.199 446.316 247.316 447.216 248.813C448.356 250.708 448.15 253.154 447.454 255.159C446.063 259.164 443.585 261.327 439.891 263.182C438.798 263.155 437.677 263.137 436.613 262.865C434.768 262.392 433.23 261.396 432.352 259.667C431.312 257.618 431.594 255.206 432.392 253.13C433.799 249.467 436.033 247.749 439.472 246.116Z"/>
	<path fill="#020201" d="M505.487 148.163C509.674 147.633 512.31 148.911 515.632 151.447C527.207 160.28 534.439 175.836 536.141 190.045C537.63 202.477 534.728 214.489 526.855 224.334C515.435 238.615 499.174 244.595 481.531 246.965C477.943 251.075 474.551 255.357 470.936 259.439C467.165 263.697 461.234 268.551 458.838 273.72C457.578 276.438 457.506 279.881 457.713 282.829C458.319 291.465 462.488 301.809 456.192 309.308C453.36 312.681 448.781 314.083 444.517 314.283C440.782 314.458 436.954 313.922 433.244 313.522C431.752 313.16 430.139 312.749 429.151 311.468C428.011 309.991 427.86 308.352 428.151 306.589C431.36 301.018 442.009 306.773 447.237 303.84C453.343 300.414 443.63 279.179 450.161 267.665C453.654 261.506 460.207 256.743 465.081 251.683C477.241 239.058 488.18 221.355 492.986 204.452Q490.778 206.406 488.443 208.205Q486.107 210.005 483.656 211.642Q481.204 213.28 478.647 214.748Q476.09 216.215 473.44 217.507Q470.79 218.798 468.058 219.907Q465.326 221.016 462.526 221.938Q459.725 222.859 456.869 223.589Q454.012 224.319 451.113 224.854C455.664 226.877 461.367 229.176 464.764 232.925C466.041 234.333 467.088 236.305 466.738 238.272C466.396 240.198 465.265 241.736 463.707 242.885C458.862 246.461 454.346 238.657 450.993 236.119C449.317 234.851 447.094 234.004 445.163 233.197C432.257 227.802 418.946 229.19 405.387 226.951C392.345 234.923 380.741 238.883 365.293 237.646C361.353 237.33 350.632 236.214 348.17 232.974C346.777 231.14 348.307 225.048 348.561 222.654C349.459 223.325 350.35 223.885 351.367 224.365C362.059 229.419 377.616 228.355 388.518 224.581C383.363 223.043 372.084 220.255 369.138 215.763C368.865 214.586 368.756 213.763 369.296 212.63C370.056 211.037 371.989 208.79 373.848 208.551C377.744 208.05 387.854 212.543 392.148 213.814C412.658 219.888 436.588 219.833 456.981 213.291C471.786 208.542 487.976 199.326 495.901 185.455C498.233 181.374 499.346 176.783 501.529 172.658C502.328 171.149 503.091 169.969 504.827 169.535C506.239 169.183 507.859 169.548 509.011 170.435C509.891 171.114 510.415 172.103 510.603 173.187C511.517 178.439 507.188 184.91 505.572 189.851C504.269 193.834 504.035 198.522 503.224 202.66C500.83 214.881 495.76 225.4 488.606 235.526C494.107 234.033 499.45 232.487 504.449 229.684C513.206 224.775 522.593 215.979 525.26 205.984C528.622 193.382 524.185 174.688 515.22 165.253C512.355 162.238 506.313 158.865 504.601 155.235C503.533 152.971 504.718 150.344 505.487 148.163Z"/>
	<path fill="#020201" d="M189.745 198.867Q189.203 198.414 188.732 197.888Q188.261 197.361 187.871 196.772Q187.481 196.183 187.18 195.544Q186.879 194.905 186.674 194.229C185.485 190.272 186.507 186.151 187.96 182.413C194.716 165.028 209.934 160.697 223.913 150.88Q228.926 147.347 233.43 143.184Q237.934 139.021 241.85 134.301C253.736 120.048 259.168 102.68 268.099 86.7386C269.886 83.5498 271.336 80.7099 275.075 79.6712C276.562 80.6936 278.958 81.9819 279.334 83.9437C280.121 88.0507 261.456 123.794 258.057 129.234C254.377 135.122 250.325 140.824 245.626 145.944Q242.187 149.729 238.287 153.037Q234.387 156.345 230.092 159.12C221.782 164.522 206.944 170.504 201.271 178.271C197.858 182.944 195.058 195.709 193.307 197.319C192.392 198.16 190.91 198.505 189.745 198.867Z"/>
	<path fill="#020201" d="M444.173 80.2478C454.11 82.7882 492.406 124.742 498.22 134.688C499.357 136.635 499.064 138.159 498.5 140.227C498.277 141.045 498.036 141.806 497.729 142.596C496.198 142.541 493.898 142.7 492.509 141.943C491.87 141.594 465.038 111.697 461.362 107.912C456.091 102.486 449.88 98.0055 444.686 92.5739C443.015 90.8257 440.456 88.0556 440.853 85.4069C441.178 83.2342 442.574 81.6196 444.173 80.2478Z"/>
	<path fill="#9F8BE8" d="M796.817 455.732C796.565 454.291 796.012 452.053 797.038 450.784C799.02 448.331 804.479 446.878 807.449 445.886C824.548 440.174 843.132 436.271 861.183 435.763C870.665 435.497 880.056 436.748 889.444 437.906C896.962 438.833 904.867 439.404 912.161 441.484C930.94 446.838 948.49 463.129 962.417 476.425C976.599 489.964 996.704 511.525 997.411 532.044C997.611 537.85 995.899 543.705 991.867 547.997C987.97 552.146 982.582 554.136 977.017 554.659C975.9 558.924 976.442 564.078 976.516 568.465C974.675 568.609 972.486 568.527 971.216 570.068C968.967 572.797 968.479 579.528 967.39 583.035C964.974 590.812 961.535 598.769 957.806 606.015Q954.442 612.466 950.399 618.515Q946.357 624.564 941.683 630.14C937.893 634.672 933.606 639.039 930.374 643.978C930.777 645.738 931.324 646.639 932.456 648.033C929.189 649.948 925.805 649.7 922.494 652.101C921.95 650.468 920.525 648.89 919.522 647.495C920.908 644.769 921.526 642.03 922.202 639.069L922.762 638.54C924.35 637.435 925.567 636.168 926.056 634.23C927.286 629.354 924.519 622.382 923.191 617.637C916.936 595.283 911.512 580.17 899.879 559.812C876.752 519.337 837.72 473.995 791.283 461.328C792.73 459.273 795.011 457.504 796.817 455.732Z"/>
	<path fill="#020201" d="M796.817 455.732C796.565 454.291 796.012 452.053 797.038 450.784C799.02 448.331 804.479 446.878 807.449 445.886C824.548 440.174 843.132 436.271 861.183 435.763C870.665 435.497 880.056 436.748 889.444 437.906C896.962 438.833 904.867 439.404 912.161 441.484C930.94 446.838 948.49 463.129 962.417 476.425C976.599 489.964 996.704 511.525 997.411 532.044C997.611 537.85 995.899 543.705 991.867 547.997C987.97 552.146 982.582 554.136 977.017 554.659C969.424 553.874 950.279 555.633 944.634 552.617C943.354 551.933 942.101 550.769 941.881 549.265C941.706 548.074 941.907 546.95 942.773 546.063C946.656 542.087 967.736 544.952 974.239 544.601C978.493 544.371 982.177 543.472 985.008 540.084C987.205 537.456 987.818 534.214 987.446 530.869C985.186 510.543 952.573 479.309 936.428 466.743C929.04 460.993 921.23 455.21 912.461 451.758C900.267 446.957 870.513 444.96 857.124 445.683Q845.483 446.403 834.119 449.025C828.032 450.392 821.949 452.024 815.964 453.783C811.44 455.112 806.901 457.15 802.186 457.615C799.794 457.851 798.634 457.23 796.817 455.732Z"/>
	<path fill="#020201" d="M964.055 787.869C965.591 786.347 967.074 784.765 969.364 784.598C970.923 784.484 972.275 785.242 973.342 786.31C977.459 790.433 981.779 805.507 983.862 811.332C1008.29 879.659 1015.32 951.843 1015.52 1024L1005.12 1024C1006.41 962.32 1000.06 897.966 982.55 838.633C979.522 828.373 976.388 817.928 972.399 807.993C969.797 801.511 966.148 795.011 964.187 788.34C964.141 788.183 964.099 788.026 964.055 787.869Z"/>
	<path fill="#020201" d="M326.396 383.057C328.351 382.99 329.864 382.938 331.718 383.611C332.051 383.948 332.457 384.225 332.717 384.62C336.02 389.664 341.825 523.166 341.619 539.063C341.594 540.994 341.433 543.349 340.105 544.886C338.962 546.209 337.169 546.543 335.506 546.397C334.682 546.324 334.599 546.293 333.862 546.154C333.433 545.734 333.009 545.312 332.622 544.852C329.95 541.674 330.778 514.975 330.661 509.113C330.055 478.926 327.744 448.457 325.665 418.322C325.23 412.004 322.49 390.781 323.23 386.345C323.485 384.818 325.217 383.895 326.396 383.057Z"/>
	<path fill="#020201" d="M288.643 69.408C291.264 61.5319 301.337 57.2291 308.333 53.7531C335.661 40.1733 366.028 37.614 395.072 47.3698C402.83 49.9758 432.502 63.3611 436.018 70.2144C436.672 71.4885 436.491 72.7762 436.329 74.1451C435.848 75.258 435.244 76.0627 434.169 76.693C432.704 77.5525 430.776 77.0608 429.312 76.4399C426.226 75.1307 423.608 72.6511 420.66 71.0297C410.056 65.1968 399.125 58.8507 387.453 55.4746Q385.193 54.8328 382.905 54.2962Q380.618 53.7595 378.308 53.3293Q375.998 52.899 373.67 52.5761Q371.343 52.2531 369.003 52.0381Q366.663 51.8231 364.316 51.7166Q361.969 51.61 359.619 51.6121Q357.27 51.6142 354.923 51.725Q352.575 51.8358 350.236 52.0549Q347.897 52.2741 345.57 52.6013Q343.243 52.9284 340.934 53.3628Q338.625 53.7972 336.338 54.3379Q334.052 54.8786 331.792 55.5245Q329.533 56.1704 327.306 56.92Q325.08 57.6697 322.89 58.5215Q320.7 59.3734 318.552 60.3256Q316.404 61.2778 314.302 62.3283C308.396 65.3145 303.402 69.5721 297.646 72.5703C295.668 73.6005 293.61 74.3466 291.414 73.6392C289.887 72.5417 289.394 71.0839 288.643 69.408Z"/>
	<path fill="#020201" d="M89.9498 296.471C89.4405 296.665 88.9335 296.868 88.4148 297.036C87.0754 297.47 85.5042 297.753 84.2403 296.953C82.8841 296.095 82.2394 294.361 81.9211 292.862C79.6216 282.036 84.7928 263.899 90.6011 254.533C103.101 234.377 123.012 229.852 143.529 221.573C151.117 218.511 158.882 214.269 166.85 212.383C168.543 213.6 170.352 214.754 170.799 216.957C171.06 218.242 170.593 219.47 169.795 220.463C164.021 227.651 121.762 237.762 108.48 249.456C98.6473 258.113 92.6134 269.798 91.6137 282.878C91.3593 286.207 92.3315 290.151 91.7257 293.301C91.464 294.662 90.8239 295.45 89.9498 296.471Z"/>
	<path fill="#020201" d="M930.374 643.978C933.606 639.039 937.893 634.672 941.683 630.14Q946.357 624.564 950.399 618.515Q954.442 612.466 957.806 606.015C961.535 598.769 964.974 590.812 967.39 583.035C968.479 579.528 968.967 572.797 971.216 570.068C972.486 568.527 974.675 568.609 976.516 568.465C978.035 569.662 979.161 570.272 979.427 572.334C979.982 576.651 978.192 581.908 976.918 585.983C970.784 605.599 960.085 623.306 946.924 638.979C944.488 641.88 939.521 648.346 935.499 648.61C934.439 648.68 933.451 648.337 932.456 648.033C931.324 646.639 930.777 645.738 930.374 643.978Z"/>
</svg>
