<?xml version="1.0" encoding="utf-8" ?>
<svg xmlns="http://www.w3.org/2000/svg" xmlns:xlink="http://www.w3.org/1999/xlink" width="1024" height="1024">
	<path fill="#9F8BE8" d="M0 0L237.57 0L748.619 0L1024 0L1024 326.328L1024 1024L982.422 1024L973.796 1024L951.611 1024L943.516 1024L913.018 1024L904.834 1024L774.936 1024L766.901 1024L689.792 1024L680.048 1024L677.097 1024L664.664 1024L363.607 1024L354.687 1024L298.784 1024L288.945 1024L46.0403 1024L37.5316 1024L0 1024L0 604.936L0 240.057L0 0Z"/>
	<path fill="#010101" d="M0 240.057C16.5346 238.047 32.8376 236.769 49.5012 237.979C87.3113 240.724 128.592 257.098 158.379 280.469C189.798 305.121 212.549 338.222 226.929 375.296C230.504 384.513 232.773 394.097 236.169 403.324L248.115 408.795C268.612 405.7 287.082 403.559 304.837 416.75C313.104 422.892 332.404 439.725 337.801 447.997Q338.772 449.479 339.573 451.06Q340.373 452.641 340.993 454.302Q341.613 455.962 342.044 457.681Q342.476 459.4 342.713 461.156C344.781 475.529 340.382 488.534 333.842 501.1C334.399 506.124 334.994 511.156 335.325 516.201C335.873 524.577 334.992 534.518 338.16 542.374C339.413 545.482 341.488 547.874 344.083 549.953C347.125 552.39 350.573 554.324 354.099 555.963C359.532 558.487 372.077 561.484 372.763 568.519C373.208 573.079 369.392 578.122 366.515 581.382C363.14 585.207 358.839 588.503 354.199 590.642C357.515 595.18 361.167 600.774 360.198 606.681C359.578 610.466 357.066 613.298 353.98 615.4C351.605 617.018 348.855 618.136 346.274 619.386C347.521 621.455 348.755 623.469 350.358 625.29C354.373 629.851 361.005 634.053 359.439 641.084C358.694 644.43 356.349 646.966 354.038 649.359C356.294 656.994 358.614 666.603 354.461 674.02C351.64 679.057 346.41 681.921 340.973 683.311C333.675 685.178 326.44 684.174 319.026 684.422C306.409 684.844 295.449 695.51 289.244 705.713C275.246 728.729 269.009 766.151 275.73 792.297C277.761 800.202 282.701 807.565 286.646 814.645C291.191 822.803 295.768 830.936 299.932 839.298Q318.101 875.754 334.666 912.966C341.819 929.003 351.37 949.939 355.564 966.754C360.156 985.166 361.492 1005.14 363.607 1024L354.687 1024L298.784 1024L288.945 1024L46.0403 1024L37.5316 1024L0 1024L0 604.936L0 240.057Z"/>
	<path fill="#FA6A4E" d="M130.577 734.913C140.658 741.546 150.334 748.756 160.282 755.582C175.681 766.15 191.075 776.377 205.922 787.733C214.488 794.286 223.993 805.051 232.649 810.394C236.236 812.608 238.817 813.004 242.931 812.139C248.125 811.046 253.363 808.802 258.382 807.055C259.108 817.944 260.063 828.818 260.735 839.709C261.17 846.755 260.764 866.426 262.967 871.789C265.053 876.868 280.082 890.786 284.715 896.097C310.901 926.112 336.172 960.412 348.589 998.733C351.275 1007.02 353.034 1015.46 354.687 1024L298.784 1024L288.945 1024L46.0403 1024Q51.5591 962.85 62.1542 902.373C66.3598 879.562 71.1925 856.72 78.6191 834.705Q80.8427 828.001 83.3322 821.392Q85.8217 814.783 88.5731 808.278Q91.3245 801.773 94.3334 795.384Q97.3423 788.994 100.604 782.729Q103.866 776.465 107.375 770.336Q110.884 764.207 114.635 758.222Q118.386 752.238 122.373 746.409Q126.36 740.579 130.577 734.913Z"/>
	<path fill="#010101" d="M288.945 1024Q277.192 973.52 263.369 923.568C256.93 900.335 249.027 870.288 237.858 849.214C230.565 835.454 221.12 823.079 207.771 814.761Q204.363 812.631 200.751 810.871Q197.138 809.111 193.36 807.741C186.811 805.36 171.36 804.118 169.249 796.25C168.922 795.033 169.319 793.786 169.982 792.756C170.561 791.858 171.127 791.595 172.057 791.171C176.482 790.833 180.366 794.417 184.263 796.129C187.543 797.571 191.362 798.265 194.792 799.375C204.674 802.572 213.971 807.354 221.899 814.107C232.033 822.737 239.9 833.871 245.992 845.638C256.16 865.278 262.279 887.165 268.32 908.341C275.367 933.045 282.112 957.719 288.474 982.618C291.985 996.361 294.831 1010.38 298.784 1024L288.945 1024Z"/>
	<path fill="#010101" d="M160.354 784.89C162.332 785.047 164.443 785.148 165.756 786.895C166.527 787.921 166.665 789.29 166.505 790.526C164.773 803.866 146.866 811.668 137.811 819.222C111.257 841.374 101.26 889.384 98.622 922.49C97.1653 940.77 97.4785 959.099 98.2707 977.399C98.4743 982.103 98.5995 986.822 99.0406 991.512C99.5911 997.364 102.003 1010.94 100.991 1016.27C100.697 1017.82 99.5406 1018.48 98.3351 1019.33C96.5309 1019.05 95.2112 1018.94 93.779 1017.75C89.7311 1011.05 88.925 970.646 88.6488 960.249C87.4483 915.058 93.2958 857.093 123.268 820.92C128.202 814.965 134.176 810.253 140.726 806.192C144.474 803.868 148.639 801.694 151.817 798.598C155.843 794.676 156.61 788.835 160.354 784.89Z"/>
	<path fill="#FDCF5F" d="M0 240.057C16.5346 238.047 32.8376 236.769 49.5012 237.979C87.3113 240.724 128.592 257.098 158.379 280.469C189.798 305.121 212.549 338.222 226.929 375.296C230.504 384.513 232.773 394.097 236.169 403.324C214.619 395.259 197.738 392.096 175.86 401.98C168.066 405.502 161.709 410.41 155.725 416.466C152.197 420.037 148.781 423.849 144.532 426.584C131.216 435.155 117.673 430.669 105.596 445.626C97.7677 455.32 96.7058 468.525 89.4812 476.803C82.3763 484.944 72.3038 489.291 68.2597 500.014C64.4176 510.202 67.8591 521.337 63.0599 531.447C59.9696 537.957 53.5394 541.981 48.402 546.718C30.4768 563.247 32.502 593.419 35.1729 615.54C23.1799 613.479 11.2535 609.488 0 604.936L0 240.057Z"/>
	<path fill="#9F8BE8" d="M0 604.936C11.2535 609.488 23.1799 613.479 35.1729 615.54C35.6763 621.633 35.8256 628.024 37.5362 633.919C42.326 650.427 59.0048 668.904 72.0509 679.979C78.2653 685.254 84.5956 689.57 92.3531 692.178C100.731 706.165 109.376 710.625 124.294 715.946C121.697 718.678 119.852 721.333 118.347 724.825C119.943 726.672 121.554 728.375 123.349 730.037C68.8662 800.918 52.7215 885.752 42.7345 972.452C40.7587 989.605 39.4586 1006.84 37.5316 1024L0 1024L0 604.936Z"/>
	<path fill="#FEFEFE" d="M297.266 458.839C303.743 463.903 309.956 469.096 314.702 475.886C324.81 490.345 327.077 507.514 327.665 524.684C327.794 528.454 328.456 532.69 327.783 536.381C327.745 536.368 327.706 536.358 327.669 536.343C326.575 535.882 325.508 535.311 324.295 535.262C322.371 535.185 321.39 536.341 320.136 537.59L319.694 538.038C315.381 536.095 312.216 535.371 307.474 535.506C304.392 537.598 301.855 539.735 300.184 543.153C298.33 546.946 297.084 551.205 298.601 555.321C299.945 558.968 302.495 562.048 306.097 563.623C309.404 565.069 312.878 564.94 316.189 563.594C327.066 559.176 318.916 548.322 320.902 543.886C322.088 544.365 323.093 544.808 324.397 544.841C325.876 544.036 326.742 543.073 327.847 541.806L328.288 541.294L328.876 541.668C331.014 551.846 340.837 559.132 349.813 563.349C354.583 565.589 359.979 567.345 364.275 570.412C362.747 572.714 361.034 574.816 358.911 576.597C355.499 579.46 349.092 581.734 347.485 586.077C346.09 589.848 348.213 592.983 349.847 596.278Q346.335 599.596 342.41 602.414Q338.486 605.233 334.219 607.5C329.259 610.122 318.869 611.803 315.735 616.389C314.791 617.771 314.641 619.344 314.979 620.938C317.382 632.299 336.573 645.738 345.971 651.636C347.203 655.147 348.33 659.514 348.396 663.228C348.451 666.359 347.628 669.357 345.307 671.57C339.83 676.79 329.005 675.958 322.044 675.637C293.557 674.359 265.693 665.969 245.229 645.391C246.267 642.95 247.276 640.377 247.403 637.7C247.586 633.818 246.271 630.12 243.501 627.367C239.297 623.191 234.152 622.579 228.551 622.69C231.286 620.405 234.156 618.844 235.476 615.308C236.24 613.262 236.724 610.301 235.466 608.329C234.887 607.421 234.439 607.333 233.439 607.181C229.83 608.307 229.343 611.067 227.375 613.868C226.001 615.823 223.65 616.323 221.413 616.603C213.881 617.546 207.148 613.523 201.539 608.96C193.882 602.732 186.12 593.764 185.311 583.496C184.905 578.34 185.883 572.757 189.466 568.826C194.163 563.673 202.668 562.647 208.721 566.019C211.093 567.34 215.041 572.216 217.727 571.696C218.876 571.474 219.959 570.58 220.679 569.698C226.318 562.791 227.468 550.748 226.842 542.209C234.139 535.643 238.474 528.198 243.433 519.814C257.238 513.214 270.908 506.454 282.239 495.946C295.01 484.102 296.659 475.719 297.266 458.839Z"/>
	<path fill="#010101" d="M307.655 503.066C308.872 502.936 310.64 502.589 311.802 503.065C313.298 503.678 315.332 505.355 315.818 506.973C317.74 513.371 302.327 516.139 298.052 518.414C292.8 521.209 289.094 524.49 286.305 529.803L285.616 530.64C284.348 531.147 283.215 531.892 281.815 531.374C280.599 530.925 279.824 529.94 279.443 528.746C278.479 525.732 279.954 522.034 281.469 519.471C287.281 509.641 297.164 505.897 307.655 503.066Z"/>
	<path fill="#010101" d="M195.261 577.022C196.987 576.796 198.513 576.705 200.199 577.234C204.812 578.682 211.923 585.226 213.904 589.539C214.621 591.1 214.445 592.014 213.826 593.556C212.591 594.725 211.364 594.836 209.762 595.126C206.122 593.616 203.218 586.554 200.794 585.709C198.252 584.823 195.882 586.231 192.773 584.452C192.42 583.906 191.945 583.443 191.954 582.76C191.981 580.66 193.748 578.359 195.261 577.022Z"/>
	<path fill="#FA6A4E" d="M183.015 701.799C205.378 712.377 250.548 771.292 262.828 793.852C277.109 813.983 288.291 836.755 299.155 858.869C310.53 882.023 321.485 905.141 331.41 928.967C336.691 941.646 342.605 954.705 346.476 967.862C332.443 943.618 318 921.608 299.858 900.138Q291.5 890.348 282.673 880.978C279.029 877.069 274.981 873.226 271.847 868.908C270.24 858.007 270.301 803.19 263.324 798.089C262.905 797.783 262.705 797.713 262.27 797.516Q250.633 800.823 238.928 803.878C232.213 798.803 226.198 792.869 219.74 787.478C210.726 779.953 201.199 772.929 191.608 766.158Q169.825 750.839 147.775 735.908C141.684 731.786 134.49 728.168 128.994 723.325C131.618 720.789 134.323 718.447 137.158 716.149C157.208 719.326 167.189 713.216 183.015 701.799Z"/>
	<path fill="#FEFEFE" d="M211.199 623.43L219.84 624.145C219.346 625.47 218.854 626.807 218.517 628.183C217.395 632.764 217.815 638.226 220.398 642.268C226.505 651.828 234.954 648.13 238.266 650.289C242.415 652.995 245.594 657.665 249.682 660.693C265.054 672.079 281.8 677.654 300.246 681.692C297.126 683.992 294.193 686.713 291.437 689.431C271.128 709.462 265.341 740.831 265.145 768.157L265.531 781.989C244.509 751.945 220.281 714.11 188.575 694.501C191.025 689.537 194.449 684.932 197.229 680.134C209.653 658.698 211.401 648.068 211.199 623.43Z"/>
	<path fill="#FEFEFE" d="M227.317 425.712C228.553 425.481 227.996 425.403 229.003 425.803C226.896 427.965 218.999 430.445 215.752 432.007C209.162 435.176 202.657 439.621 197.729 445.06C182.844 461.492 188.174 480.672 178.592 494.697C169.961 507.328 146.401 508.639 133.971 518.547C120.475 529.305 125.574 540.11 117.609 549.261C112.377 555.273 104.313 557.687 98.0893 562.425C80.0469 576.16 92.3271 590.717 85.6856 603.323C79.8489 614.402 68.657 613.922 64.2451 631.013C62.4026 638.15 62.3797 644.936 63.5467 652.175C63.9571 654.72 64.9753 658.134 64.5926 660.629L63.6401 660.053C59.9915 656.198 57.33 652.409 56.6045 646.994C55.016 635.14 57.4439 620.627 65.2594 611.249C69.1996 606.521 73.7523 602.388 76.3105 596.666C80.2073 587.95 77.9888 576.821 81.9842 566.905C88.2995 551.231 98.7983 550.576 107.427 539.283C114.168 530.459 115.512 518.696 124.032 510.882C134.782 501.024 152.418 501.14 162.095 489.556C166.852 483.861 168.379 475.495 170.66 468.598C173.115 461.171 176.516 453.559 181.407 447.4C192.64 433.254 209.999 427.721 227.317 425.712Z"/>
	<path fill="#FEFEFE" d="M285.439 418.204C299.951 419.114 313.583 436.08 324.482 445.008C314.919 443.277 310.056 436.436 303.607 429.888C299.021 425.231 293.648 421.066 286.766 421.155C282.703 421.208 277.577 422.954 274.735 425.954C268.323 432.726 276.823 441.672 277.055 449.176C277.403 460.413 263.847 464.36 256.075 469.394C251.503 472.355 247.263 475.953 243.955 480.302C232.442 495.436 237.232 518.124 224.764 532.297C213.162 545.487 194.733 550.167 182.524 562.631C173.339 572.008 157.791 590.062 156.152 603.185C155.296 610.043 157.098 616.99 158.943 623.529C162.078 634.643 164.608 644.86 164.765 656.495C164.551 661.92 164.096 667.1 162.606 672.347C159.161 684.477 153.709 692.51 156.69 705.538C153.881 702.996 151.939 700.62 150.323 697.176C150.881 687.593 155.342 679.299 158.291 670.352C165.496 648.491 155.016 634.733 151.139 614.491C148.092 598.578 154.178 580.46 166.449 569.758C170.723 566.031 175.886 563.656 180.658 560.657C190.777 554.298 200.821 545.442 208.126 536.018C222.063 518.036 214.565 491.092 229.762 473.336C239.871 461.525 261.6 462.371 268.954 450.868C272.785 444.877 268.575 439.535 267.583 433.507C267.084 430.473 267.887 427.698 269.81 425.314C273.721 420.464 279.497 418.78 285.439 418.204Z"/>
	<path fill="#FEFEFE" d="M203.913 405.294C217.851 404.189 224.623 408.062 237.038 413.416C229.067 412.927 221.682 410.77 213.885 409.362C195.041 405.959 179.314 409.627 164.905 422.323C158.169 428.258 153.308 436.442 145.921 441.624C137.712 447.382 127.183 446.8 118.765 452.161C104.486 461.255 109.708 475.046 101.959 487.001C96.4367 495.52 86.0827 499.176 81.6442 508.795C77.0021 518.854 78.6846 530.836 73.5384 540.542C71.1861 544.978 67.4549 547.603 63.6885 550.697C54.7453 558.042 51.5993 569.879 49.0488 580.697C47.0697 591.23 47.3076 601.722 43.4605 611.866C42.1339 597.954 40.5491 581.954 44.9226 568.509C51.1073 549.498 63.0309 550.342 70.4829 536.617C76.6499 525.258 72.2356 513.612 76.5995 502.495C80.5656 492.392 92.1661 487.988 98.2667 479.278C104.359 470.578 105.463 459.309 112.36 451.03C121.794 439.708 136.823 440.946 148.677 433.865C159.725 427.266 166.496 416.256 178.472 410.792C186.494 407.132 195.197 405.943 203.913 405.294Z"/>
	<path fill="#FEFEFE" d="M115.083 621.84C115.448 622.256 115.433 622.19 115.706 622.766C117.027 625.555 117.672 629.095 118.551 632.079C121.534 642.199 125.503 653.136 121.095 663.464C118.92 668.56 114.73 672.625 112.743 677.827C109.492 686.339 112.175 695.613 115.651 703.596C111.803 701.495 108.053 698.808 105.739 695.002C102.681 689.973 102.965 683.984 104.695 678.551C107.16 670.81 112.543 664.437 114.044 656.274C116.135 644.903 112.071 634.15 115.083 621.84Z"/>
	<path fill="#FEFEFE" d="M232.334 630.913C233.932 630.987 235.672 631.186 237.062 632.049C238.389 632.874 239.327 634.23 239.488 635.807C239.65 637.399 239.026 639.045 237.924 640.188Q237.715 640.402 237.486 640.595Q237.256 640.787 237.009 640.955Q236.762 641.124 236.499 641.267Q236.236 641.41 235.96 641.525Q235.684 641.641 235.398 641.729Q235.112 641.817 234.818 641.876Q234.525 641.934 234.227 641.964Q233.929 641.993 233.63 641.992C230.781 641.961 228.625 640.35 226.648 638.48C226.411 636.706 226.022 634.705 226.783 633.059C230.135 633.992 230.938 638.665 235.059 639.192L236.167 638.28C236.501 637.435 236.762 636.795 236.638 635.859C236.343 633.629 233.981 632.219 232.334 630.913Z"/>
	<path fill="#FEFEFE" d="M339.258 621.128L339.927 621.211C341.142 622.593 341.624 624.676 342.224 626.395C339.534 625.811 336.822 625.307 334.122 624.77L328.207 623.188Q333.739 622.194 339.258 621.128Z"/>
	<path fill="#B99FA1" d="M337.151 632.451C339.161 632.321 341.048 632.35 342.986 632.966C345.724 633.835 347.693 635.433 349.028 637.967C348.801 638.03 348.093 638.233 347.93 638.254C344.457 638.712 339.754 634.45 337.151 632.451Z"/>
	<path fill="#5F42CF" d="M388.794 256.16C388.843 255.824 388.88 255.487 388.94 255.154C390.636 245.748 394.505 236.022 398.082 227.178C416.438 181.793 449.001 148.509 489.571 122.127C563.042 74.3502 651.121 61.6445 736.143 79.7417C733.88 87.9053 729.153 96.0894 725.329 103.636Q720.558 113.184 715.123 122.37Q709.687 131.556 703.615 140.334Q697.542 149.112 690.862 157.437Q684.182 165.762 676.929 173.593C670.399 180.576 663.159 186.848 656.511 193.707C713.073 251.067 772.423 290.055 850.207 312.798Q869.113 318.295 888.466 321.92C894.47 323.084 901.647 323.59 907.411 325.399C890.65 382.168 845.902 425.875 794.924 453.563Q776.512 463.375 756.998 470.756C750.873 473.067 744.421 474.798 738.407 477.331C745.28 500.115 761.751 518.57 780.087 533.113C748.086 532.724 718.063 525.55 695.101 501.875Q688.508 495.042 682.824 487.436C647.636 494.222 602.191 490.981 567.225 483.65C562.404 482.639 557.289 481.846 552.579 480.43C543.339 479.353 513.109 468.059 503.607 464.193C484.484 503.41 451.622 528.064 412.184 544.498C430.581 521.777 443.513 492.674 447.569 463.663C449.04 453.145 449.197 442.482 449.55 431.881C435.002 418.529 421.489 405.114 410.37 388.691C384.087 349.869 378.306 307.07 387.105 261.518C387.847 259.732 388.395 258.052 388.794 256.16Z"/>
	<path fill="#FDCF5F" d="M388.794 256.16C397.734 259.343 407.326 261.464 416.627 263.317C472.877 274.522 531.991 265.2 583.588 240.658C599.447 233.115 615.148 223.978 629.649 214.079C636.378 209.485 642.727 204.328 649.462 199.763C651.369 207.624 653.422 215.506 654.847 223.47C663.181 270.03 659.677 317.308 642.832 361.572C637.408 375.825 631.289 389.259 623.338 402.287C608.428 426.721 590.483 447.612 569.12 466.621C563.749 471.4 557.994 475.714 552.579 480.43C543.339 479.353 513.109 468.059 503.607 464.193C484.484 503.41 451.622 528.064 412.184 544.498C430.581 521.777 443.513 492.674 447.569 463.663C449.04 453.145 449.197 442.482 449.55 431.881C435.002 418.529 421.489 405.114 410.37 388.691C384.087 349.869 378.306 307.07 387.105 261.518C387.847 259.732 388.395 258.052 388.794 256.16Z"/>
	<path fill="#010101" d="M786.481 549.642C795.481 542.628 804.505 538.048 816.222 539.479C820.532 540.005 824.601 542.061 828.818 542.49C832.578 542.872 836.835 541.989 840.662 541.959Q847.988 541.94 855.281 542.637Q862.574 543.334 869.764 544.74Q875.936 545.915 881.978 547.636Q888.02 549.358 893.884 551.612C917.737 560.797 954.961 581.935 970.497 601.998C984.734 620.386 984.729 654.614 981.782 677.069C977.704 708.141 963.518 745.575 938.096 765.173C929.632 771.698 919.268 776.552 909.231 780.116C910.367 783.769 910.476 786.889 910.211 790.68C920.344 799.381 930.92 807.992 939.804 817.995C953.99 833.968 963.243 853.588 973.329 872.203C975.21 875.675 982.286 885.58 982.379 889.023C982.404 889.937 981.638 891.202 981.237 892.013C981.883 897.153 987.888 902.885 983.972 908.02C979.853 913.422 958.207 924.479 951.036 928.82C955.231 938.054 959.902 947.151 963.653 956.572C972.13 977.865 978.314 1001.45 982.422 1024L973.796 1024L951.611 1024L943.516 1024L913.018 1024L904.834 1024L774.936 1024L766.901 1024L689.792 1024L680.048 1024L677.097 1024L664.664 1024Q668.062 1015.19 671.982 1006.59Q675.903 997.996 680.333 989.652Q684.763 981.309 689.686 973.246Q694.609 965.183 700.008 957.431C696.651 958.657 692.672 959.612 689.244 958.03C687.697 957.317 686.571 956.039 686.045 954.416C685.655 953.213 685.766 951.857 685.957 950.628C686.794 945.228 689.671 939.834 691.787 934.827C695.191 926.77 698.447 918.234 699.848 909.567C700.682 904.406 701.173 898.951 701.046 893.721C700.832 884.929 697.133 871.71 701.497 863.662C707.854 851.938 740.168 836.779 752.915 831.713C745.407 812.915 738.727 794.076 718.836 785.454C704.333 779.168 669.869 778.277 663.624 761.991C662.119 758.068 662.711 753.588 664.548 749.88C666.919 745.097 674.931 736.834 673.032 731.312C671.241 726.109 667.067 725.713 670.008 719.214C672.995 712.611 678.994 709.706 683.946 704.986C680.246 699.906 676.234 693.949 677.301 687.298C677.673 684.982 678.792 683.269 680.755 681.992C682.604 680.79 683.831 680.867 685.845 681.372C687.032 681.67 687.663 682.084 688.857 681.726C689.633 680.296 689.852 679.299 689.984 677.684C688.619 674.898 685.46 672.68 683.233 670.536C677.922 665.425 672.999 657.538 675.666 649.986C676.415 647.865 677.396 646.445 679.452 645.467C683.394 643.593 688.314 643.357 692.496 642.08C707.445 637.515 717.172 627.158 722.746 612.82C730.183 593.69 735.257 584.815 752.786 573.006C758.372 569.243 764.088 565.716 769.4 561.562C767.695 558.703 765.283 555.002 766.298 551.499C766.845 549.61 767.963 548.407 769.711 547.568C773.752 545.629 779.056 546.626 783.037 548.195Q784.773 548.886 786.481 549.642Z"/>
	<path fill="#9F8BE8" d="M759.188 933.472C775.373 925.32 792.223 917.882 808.921 910.852C815.933 907.9 822.851 904.669 829.993 902.039Q847.088 895.851 864.281 889.942C872.496 887.194 880.802 884.763 888.84 881.511C890.936 886.627 893.13 891.591 895.831 896.429C899.939 903.786 921.217 937.524 926.128 939.807C928.137 940.742 930.758 939.48 932.629 938.646C936.249 937.031 939.635 934.905 943.349 933.505C958.693 961.432 966.401 993.245 973.796 1024L951.611 1024L943.516 1024L913.018 1024L904.834 1024L774.936 1024L766.901 1024L689.792 1024C704.628 1005.57 719.733 987.412 734.286 968.749C742.931 957.663 752.566 945.886 759.188 933.472Z"/>
	<path fill="#010101" d="M766.901 1024C767.533 1000.29 779.886 969.597 796.969 953.263C803.247 947.26 818.253 936.497 827.052 936.652C828.521 936.678 830.203 937.05 831.312 938.085C832.247 938.957 832.119 939.594 832.122 940.757C829.888 945.37 817.589 948.533 812.625 951.494C788.135 966.102 779.03 997.583 774.936 1024L766.901 1024Z"/>
	<path fill="#010101" d="M904.834 1024C899.794 997.219 888.183 970.036 864.918 954.244C862.58 952.656 860.222 951.073 857.682 949.822C854.499 948.253 850.368 946.937 847.611 944.753C846.678 944.014 846.28 943.34 846.104 942.152C845.924 940.936 846.131 939.91 846.974 938.984C847.931 937.931 849.262 937.63 850.631 937.675C860.87 938.011 879.205 953.703 885.709 961.203C900.709 978.5 910.131 1001.4 913.018 1024L904.834 1024Z"/>
	<path fill="#010101" d="M943.516 1024C942.969 1019.7 940.645 1010.15 943.444 1006.53C944.25 1005.5 945.421 1005.04 946.702 1005.06C947.611 1005.08 948.16 1005.46 948.836 1006.06C951.804 1008.68 951.407 1019.98 951.611 1024L943.516 1024Z"/>
	<path fill="#9F8BE8" d="M714.238 953.392Q730.127 946.533 745.82 939.235Q729.196 962.75 710.84 984.938C703.515 993.941 684.228 1015.21 680.048 1024L677.097 1024C681.358 1015.45 686.378 1007.3 690.68 998.752Q698.501 983.133 706.665 967.69C709.123 963.01 711.403 957.83 714.238 953.392Z"/>
	<path fill="#574986" d="M773.762 570.426C774.437 570.498 774.865 570.556 775.325 571.132C776.706 572.86 777.747 575.469 778.889 577.401Q782.488 583.578 786.651 589.39C795.583 601.901 805.764 613.614 815.484 625.522C818.175 646.91 819.278 670.709 818.984 692.282C817.607 694.581 816.097 696.871 814.859 699.247C813.638 701.59 812.445 704.015 813.308 706.624C818.382 708.865 825.084 701.093 829.955 699.557C835.793 697.715 844.378 696.149 850.508 696.267C850.733 696.271 850.957 696.283 851.182 696.291C853.516 700.268 855.38 704.946 855.433 709.604C855.522 717.541 850.393 723.416 845.051 728.661C837.99 735.593 831.612 741.07 821.336 741.002C820.171 739.653 818.757 737.892 817.154 737.074C815.701 736.332 813.989 736.558 812.539 737.168C806.137 739.861 799.884 747.618 797.445 754.024C796.152 757.418 795.029 762.033 796.734 765.493C797.561 767.171 798.986 768.28 800.746 768.858C803.983 769.921 807.52 769.364 810.436 767.685C816.961 763.927 819.752 756.746 821.753 749.92C825.421 750.017 829.129 749.582 832.784 749.283C835.793 763.002 838.986 776.818 849.82 786.467C842.939 789.326 836.367 793.285 829.636 796.51Q809.299 806.063 788.83 815.329C779.839 819.936 770.248 823.573 760.916 827.434C751.738 802.061 740.865 780.589 712.551 773.475C703.009 771.077 693.158 770.181 683.893 766.687C680.405 765.371 675.967 763.493 673.577 760.566C669.75 755.88 678.293 745.704 680.378 741.08C681.815 737.891 682.371 734.961 682.661 731.526C693.969 731.535 704.803 730.492 715.072 725.324C719.202 723.246 724.382 719.352 725.731 714.786C726.197 713.208 726.017 711.826 725.123 710.413C722.873 706.855 717.395 708.317 713.821 707.39C704.155 704.882 698.088 696.931 693.37 688.687C695.607 686.8 697.462 685.093 698.651 682.335C702.796 672.716 692.258 667.79 687.304 661.579C685.198 658.939 684.117 656.143 682.967 653.023C687.971 652.477 692.76 651.881 697.523 650.192C710.083 645.738 723.876 634.078 729.364 621.823C732.917 613.889 734.841 605.183 739.934 597.985C748.299 586.163 761.452 577.687 773.762 570.426Z"/>
	<path fill="#010101" d="M741.069 624.505C742.333 624.464 743.822 624.324 745.041 624.689C746.762 625.204 748.42 626.763 749.256 628.328C751.562 632.647 750.255 639.047 748.748 643.507C746.733 649.472 743.428 654.542 737.672 657.415C736.207 657.79 734.771 658.048 733.299 657.558C731.48 656.953 730.132 655.647 729.391 653.889C727.331 648.998 728.865 641.629 730.696 636.784C732.741 631.374 735.702 626.954 741.069 624.505Z"/>
	<path fill="#010101" d="M750.964 603.215C753.941 603.16 757.128 603.091 760.037 603.758C766.761 605.302 771.937 609.577 775.445 615.408C777.354 618.58 779.624 623.369 778.336 627.1C777.917 628.313 777.053 629.228 775.824 629.634C774.383 630.111 773.275 629.655 771.953 629.15C770.358 624.766 768.704 619.897 765.416 616.459C760.373 611.184 751.226 612.358 744.539 612.203C743.486 611.464 743.207 611.27 742.877 609.94C742.515 608.478 743.031 606.14 744.084 605.086C745.787 603.383 748.716 603.417 750.964 603.215Z"/>
	<path fill="#010101" d="M840.274 702.388C841.59 702.439 843.62 702.532 844.523 703.654C845.592 704.981 845.874 707.573 845.782 709.251C845.361 716.891 835.975 715.693 832.518 720.438C830.727 722.896 831.856 725.293 829.238 727.74C828.195 727.605 827.277 727.514 826.342 726.976C825.102 726.262 824.467 725.193 824.11 723.842C823.54 721.688 824.472 719.033 825.546 717.192C828.654 711.866 833.786 711.575 839.173 710.167C839.448 707.548 839.826 704.982 840.274 702.388Z"/>
	<path fill="#D6C0EE" d="M882.109 781.984C882.333 781.967 883.063 781.895 883.261 781.946C883.532 782.015 883.856 782.073 884.025 782.297C884.165 782.483 883.722 785.328 883.661 785.893C883.321 789.033 883.783 790.447 885.155 793.284C880.573 800.793 875.235 807.654 869.827 814.57C855.454 832.95 842.818 846.515 823.49 859.744C818.768 862.977 813.962 866.222 809.084 869.214C805.605 871.348 801.291 872.865 798.326 875.709C797.096 876.889 796.663 877.828 796.62 879.567C796.996 880.474 797.269 881.257 798.05 881.91C799.048 882.745 800.268 882.917 801.514 882.724C806.052 882.023 811.237 877.824 815.222 875.426C848.662 855.305 866.705 833.22 889.646 802.633C880.536 830.63 880.268 845.159 886.457 873.986C870.765 878.021 855.229 883.887 840.053 889.567C820.76 896.789 801.82 904.115 783.162 912.872C767.326 920.304 751.525 927.628 735.555 934.764C721.911 940.861 709.11 946.992 694.459 950.404C696.178 945.915 698.443 941.575 700.5 937.23C707.335 922.706 710.823 905.919 709.664 889.876C709.232 883.9 706.28 875.344 708.266 869.555C713.52 854.243 780.789 828.824 797.339 821.267C814.862 813.265 832.077 804.728 849.506 796.548C826.797 822.102 798.488 842.739 766.273 854.649C758.918 857.368 747 860.915 739.182 861.125C735.102 861.235 728.005 859.814 724.857 863.006C723.567 864.314 723.09 866.166 723.152 867.939C723.703 868.945 723.87 869.372 724.928 869.922C731.61 873.396 761.538 865.694 768.502 863.199C799.625 852.046 847.703 821.364 862.325 790.591C868.801 787.326 875.216 784.298 882.109 781.984Z"/>
	<path fill="#D6C0EE" d="M834.459 550.454C869.396 550.286 897.463 559.073 926.646 577.646C946.214 590.099 966.929 602.675 972.143 626.907C973.931 635.218 974.129 644.089 974.115 652.577C974.066 683.542 967.07 714.097 949.846 740.198C946.936 744.607 943.733 748.75 939.918 752.416C933.474 758.608 917.306 769.811 908.479 771.65L907.894 771.122C907.827 768.201 910.78 766.339 912.685 764.468C930.306 747.166 946.328 723.164 953.086 699.328C953.747 696.998 954.55 694.497 953.298 692.255C952.281 691.344 951.443 690.805 950.012 690.832C948.683 690.856 947.612 691.362 946.787 692.381C944.289 695.47 940.558 709.316 938.319 714.152C932.468 726.787 924.121 738.386 915.15 748.982L908.739 756.351C911.062 745.157 915.666 734.438 918.19 723.215Q919.059 719.424 919.797 715.606Q920.534 711.787 921.14 707.946Q921.746 704.104 922.219 700.244Q922.693 696.384 923.033 692.51Q923.373 688.636 923.58 684.752Q923.787 680.868 923.86 676.98Q923.933 673.092 923.872 669.203Q923.811 665.314 923.616 661.43Q923.421 657.546 923.093 653.671Q922.765 649.796 922.303 645.934Q921.842 642.073 921.248 638.229Q920.654 634.386 919.928 630.565Q919.202 626.744 918.345 622.951Q917.488 619.157 916.501 615.396Q915.513 611.634 914.397 607.908Q913.281 604.183 912.038 600.498C909.967 594.553 906.546 581.537 900.886 578.818C900.096 578.808 899.57 578.664 898.858 579.078C897.036 580.139 895.99 582.07 896.15 584.174C896.369 587.05 901.74 598.02 903.15 601.966Q906.381 611.16 908.712 620.623C916.721 653.332 917.372 694.784 908.009 727.258C906.655 717.941 905.49 708.527 903.526 699.315C895.137 659.972 877.55 611.748 855.597 577.988C849.266 568.252 841.855 559.388 834.459 550.454Z"/>
	<path fill="#D6C0EE" d="M809.019 547.631C810.304 547.591 811.587 547.575 812.868 547.699C821.184 548.508 827.199 554.554 832.183 560.697C869.512 606.698 897.57 684.254 900.308 743.125C900.767 752.982 900.256 762.573 899.233 772.379L892.923 770.877L889.147 766.254C870.132 740 866.4 709.036 856.046 679.265C851.038 664.868 844.651 650.81 838.514 636.857C830.386 618.377 822.421 599.809 811.617 582.696C805.714 573.346 798.474 565.052 791.944 556.16Q792.818 555.32 793.752 554.549Q794.687 553.777 795.677 553.078Q796.667 552.38 797.707 551.758Q798.747 551.136 799.832 550.594Q800.916 550.053 802.038 549.595Q803.16 549.137 804.313 548.765Q805.466 548.393 806.645 548.109Q807.823 547.825 809.019 547.631Z"/>
	<path fill="#D6C0EE" d="M904.808 798.252C908.799 800.258 912.704 804.694 916.029 807.687C922.997 813.959 929.992 819.955 936.024 827.189C947.039 840.398 954.909 856.612 963.083 871.678C965.985 877.028 969.349 882.206 971.754 887.803C966.407 891.055 961.389 894.821 955.567 897.218C944.149 901.919 925.653 904.425 916.571 912.408Q913.179 907.932 910.144 903.206Q907.11 898.48 904.451 893.532Q901.793 888.584 899.527 883.445Q897.261 878.307 895.401 873.007C888.785 850.995 889.767 828.975 897.336 807.493C901.922 821.317 910.769 832.409 915.246 847.363C916.923 852.964 922.231 879.169 923.842 881.558C924.62 882.712 925.65 883.254 927.015 883.436C928.456 883.628 929.373 883.409 930.569 882.559C934.426 876.929 922.871 841.67 919.861 834.538C914.853 822.669 906.717 811.932 904.894 798.903L904.808 798.252Z"/>
	<path fill="#D6C0EE" d="M973.759 897.449L974.436 897.647C975.576 899.296 975.818 901.583 976.238 903.519C968.852 909.592 938.356 926.789 929.775 929.881C928.417 929.563 928.026 928.667 927.151 927.629Q923.977 923.209 920.972 918.673C930.871 913.902 941.237 911.394 951.558 907.81C959.412 905.082 966.597 901.632 973.759 897.449Z"/>
	<path fill="#FEFEFE" d="M687.145 695.323C688.558 696.272 689.628 698.334 690.584 699.73C697.229 709.437 700.675 713.516 712.339 716.765C707.708 719.249 703.134 720.475 698.029 721.667C691.294 722.771 685.319 722.78 678.609 721.483C681.581 717.84 690.641 712.446 691.83 709.336C693.413 705.192 689.038 698.991 687.145 695.323Z"/>
	<path fill="#D6C0EE" d="M895.408 779.938C896.34 779.926 897.332 779.888 898.254 780.043C899.525 780.257 900.958 781.355 901.653 782.439C902.56 783.856 902.804 785.412 902.481 787.049C901.984 789.573 900.531 790.883 898.503 792.296C897.957 792.274 897.409 792.263 896.865 792.204C895.246 792.026 893.75 791.264 892.767 789.941C891.799 788.64 891.48 787.077 891.715 785.479C892.093 782.903 893.414 781.474 895.408 779.938Z"/>
	<path fill="#FA6A4E" d="M237.57 0L748.619 0C750.658 31.1669 746.228 50.0644 736.44 79.6284L736.143 79.7417C651.121 61.6445 563.042 74.3502 489.571 122.127C449.001 148.509 416.438 181.793 398.082 227.178C394.505 236.022 390.636 245.748 388.94 255.154C388.88 255.487 388.843 255.824 388.794 256.16C388.395 258.052 387.847 259.732 387.105 261.518C379.221 269.287 372.645 278.367 364.666 286.121C327.827 321.922 292.142 335.434 243.164 347.355C250.56 340.673 258.278 334.449 265.443 327.488C293.432 300.293 318.306 266.559 330.505 229.146C325.65 223.9 320.009 219.346 314.888 214.359Q307.262 206.892 300.259 198.839Q293.255 190.786 286.918 182.198C257.164 141.3 240.915 93.521 236.969 43.2287C235.848 28.9308 235.338 14.2082 237.57 0Z"/>
	<path fill="#D6C0EE" d="M748.619 0L1024 0L1024 326.328C984.955 331.696 946.822 330.926 907.853 325.375C908.299 321.746 909.411 317.987 910.131 314.377Q912.376 303.418 913.524 292.291C917.2 255.085 906.81 217.425 887.439 185.7C855.399 133.226 795.798 93.7869 736.44 79.6284C746.228 50.0644 750.658 31.1669 748.619 0Z"/>
</svg>
