<?xml version="1.0" encoding="utf-8" ?>
<svg xmlns="http://www.w3.org/2000/svg" xmlns:xlink="http://www.w3.org/1999/xlink" width="1024" height="1024">
	<path fill="#9F8BE8" d="M0 0L446.743 0L456.949 0L476.976 0L485.809 0L539.767 0L546.23 0L642.957 0L648.967 0L698.864 0L709.157 0L713.097 0L723.541 0L1024 0L1024 132.734L1024 139.02L1024 1024L926.571 1024L919.155 1024L746.101 1024L739.965 1024L224.075 1024L154.548 1024L149.071 1024L0 1024L0 705.139L0 203.091L0 196.632L0 0Z"/>
	<path d="M365.33 702.743C363.982 692.415 364.998 673.906 365.05 663.065Q365.356 625.225 365.057 587.386L365.064 313.923L365.328 228.734C365.332 214.788 364.586 199.916 365.166 186.088C365.245 184.217 365.567 182.759 366.34 181.061C367.665 179.945 368.24 179.9 369.986 179.798C381.727 179.114 394.037 179.955 405.824 179.96L486.055 179.978C496.498 179.973 514.229 181.246 523.768 179.581C539.577 176.822 557.187 170.976 572.895 166.711L658.005 143.979Q670.701 140.633 683.303 136.95C688.902 135.301 694.949 132.888 700.71 132.115C704.264 131.638 708.219 132.127 711.77 132.42C714.168 132.618 716.607 132.796 718.798 133.856C720.713 139.607 719.547 166.733 719.722 174.95C725.315 175.024 730.944 174.913 736.49 175.712C737.253 186.317 736.929 197.117 736.931 207.751L736.828 260.812L736.895 396.286L737.057 734.921L737.06 859.175C737.091 877.094 736.657 895.111 737.131 913.017C745.072 913.061 753.091 913.49 761.018 913.337C770.738 886.102 783.308 860.627 796.862 835.142C803.823 822.054 810.804 808.924 818.476 796.236Q818.381 767.789 817.499 739.355C808.235 728.294 799.122 714.832 800.537 699.663C802.566 677.912 827.607 648.386 844.176 634.777C851.05 629.131 858.444 625.114 866.376 621.209C860.146 616.673 855.111 611.428 849.872 605.831C838.648 604.98 827.812 602.798 820.054 593.886C810.082 582.43 809.815 566.032 810.937 551.728C811.86 539.96 813.755 528.374 815.063 516.66C815.693 511.027 814.883 505.303 817.064 499.922C818.97 495.22 822.971 491.409 826.761 488.15C841.72 475.284 862.831 470.585 882.184 472.122Q883.139 472.19 884.091 472.282Q885.044 472.374 885.994 472.489Q886.944 472.604 887.891 472.743Q888.838 472.882 889.781 473.044Q890.724 473.206 891.663 473.392Q892.601 473.577 893.535 473.786Q894.469 473.994 895.398 474.226Q896.326 474.458 897.249 474.713Q898.171 474.967 899.087 475.245Q900.003 475.522 900.912 475.822Q901.82 476.122 902.721 476.445Q903.622 476.767 904.515 477.112Q905.408 477.457 906.292 477.823Q907.176 478.19 908.05 478.578Q908.925 478.967 909.79 479.377Q910.654 479.787 911.508 480.218Q912.363 480.649 913.206 481.102Q914.05 481.554 914.881 482.027Q915.713 482.5 916.533 482.994Q917.353 483.487 918.16 484.001Q918.968 484.514 919.762 485.048Q920.557 485.581 921.338 486.134Q922.119 486.687 922.886 487.26Q923.653 487.832 924.406 488.423Q925.158 489.014 925.896 489.623Q926.634 490.233 927.356 490.86Q928.079 491.488 928.786 492.133Q929.492 492.779 930.183 493.441Q930.873 494.104 931.547 494.783Q932.221 495.463 932.878 496.159Q933.535 496.854 934.174 497.566Q934.813 498.278 935.435 499.006C948.938 515.051 952.61 534.756 955.54 554.861C956.73 563.021 957.793 571.016 961.033 578.683C964.493 586.871 970.217 595.299 978.151 599.687C981.711 601.657 992.286 603.497 992.188 606.939C992.103 609.942 988.21 612.945 986.032 614.744Q980.205 619.535 973.685 623.329C979.504 634.1 984.067 645.24 987.2 657.091C992.628 677.625 994.106 698.963 994.83 720.109Q995.779 742.903 995.237 765.711C994.468 792.981 992.271 820.222 991.533 847.484C991.087 863.939 997.179 876.327 992.154 893.479C989.445 902.725 984.278 911.457 975.562 916.119C969.897 919.149 964.161 919.595 957.888 920.006C958.979 956.37 943.807 992.777 926.571 1024L919.155 1024L746.101 1024L739.965 1024C741.747 987.892 747.768 954.438 758.912 920.063C746.623 918.677 733.697 919.519 721.315 919.587Q692.336 919.729 663.356 919.563L454.309 919.039C460.794 923.466 472.366 929.315 475.159 936.816C475.662 938.165 475.8 939.626 475.007 940.909C473.724 942.986 470.763 943.911 468.53 944.405C446.212 949.336 419.349 931.365 401.307 919.616C365.415 918.508 329.366 919.542 293.441 919.014L288.667 925.104C291.517 948.211 318.758 961.026 319.1 973.083C319.16 975.202 317.796 977.535 316.257 978.92C313.926 981.017 310.598 981.326 307.607 981.128C301.765 980.743 296.051 978.672 290.859 976.062C282.431 971.826 239.404 942.036 233.555 935.149C232.419 933.812 231.604 932.565 231.83 930.727C232.13 928.278 233.585 925.894 234.954 923.885C243.112 911.916 254.463 910.794 264.44 902.108C267.06 899.827 268.851 897.637 269.075 894.108C269.142 893.041 280.406 878.369 282.008 876.032C298.219 852.375 314.782 828.279 328.151 802.874C327.356 800.323 329.021 796.839 329.994 794.394C334.801 782.314 341.045 770.86 346.307 758.981C353.715 742.257 361.162 720.569 365.33 702.743Z"/>
	<path fill="#9F8BE8" d="M841.004 645.914C838.642 650.932 836.454 655.828 834.985 661.201C824.841 698.299 836.107 744.979 848.842 780.259C864.06 822.413 887.062 864.207 919.111 895.967C927.252 904.034 936.107 911.913 946.618 916.736C948.408 917.558 950.273 918.229 952.124 918.898C951.046 957.157 938.084 991.143 919.155 1024L746.101 1024C750.083 954.953 766.16 906.661 797.988 845.848Q805.744 831.087 813.896 816.541C817.167 810.651 822.254 803.533 823.933 797.034C825.17 792.245 824.578 786.365 824.546 781.424C824.452 766.815 823.521 752.241 823.407 737.643C814.745 724.507 804.073 713.268 807.553 696.227C810.506 681.77 829.552 655.777 841.004 645.914Z"/>
	<path fill="#FEFEFE" d="M371.521 185.996C413.373 186.799 455.23 185.605 497.071 186.474C484.379 190.511 471.578 193.955 458.688 197.292C451.327 199.197 443.813 201.502 436.271 202.477C427.162 203.653 396.339 200.506 391.074 203.046C389.567 212.782 390.63 224.019 390.68 233.9L390.94 294.434L391.547 523.104L391.628 550.524C391.639 556.188 392.144 562.401 391.117 567.97C390.045 573.789 386.673 579.985 384.497 585.508C381.486 593.151 378.997 600.728 376.93 608.682C375.303 614.942 372.657 621.281 376.924 627.05C378.924 629.755 381.797 631.692 384.218 633.987C383.444 644.764 380.641 655.694 378.478 666.285C368.649 714.424 353.273 760.446 328.151 802.874C327.356 800.323 329.021 796.839 329.994 794.394C334.801 782.314 341.045 770.86 346.307 758.981C353.715 742.257 361.162 720.569 365.33 702.743C368.054 693.877 370.818 684.171 371.681 674.921C372.4 667.211 372.008 659.227 371.986 651.478L371.811 609.371L371.581 470.717L371.521 185.996Z"/>
	<path fill="#FEFEFE" d="M699.573 139.624L700.016 139.758C701.354 141.966 700.631 264.068 700.64 280.713L700.408 698.894L700.106 834.98L700.049 885.422C700.017 894.721 700.234 904.11 699.741 913.393C686.707 914.084 673.392 911.223 660.508 909.413L600.76 900.883Q525.403 890.642 449.932 881.275C455.94 871.524 463.783 862.515 470.683 853.342C476.247 845.945 481.466 838.28 487.095 830.938C494.506 821.271 502.249 812.078 508.992 801.891C515.19 792.526 520.329 782.995 525.606 773.103C526.14 794.088 525.972 815.184 525.763 836.176C514.743 834.524 503.595 833.872 492.71 831.347C491.137 832.871 489.79 834.596 488.4 836.285C491.309 837.023 494.241 837.543 497.196 838.054C502.48 838.969 527.916 844.023 531.035 841.824C531.443 840.953 531.668 840.285 531.717 839.311C532.192 829.888 531.677 820.208 531.662 810.758L531.622 751.657L531.523 677.48C531.533 662.731 531.924 647.905 531.447 633.167C528.272 632.568 524.716 632.747 521.469 632.529C514.824 632.083 508.18 631.428 501.547 630.819C505.569 614.802 510.844 596.896 517.857 581.937Q518.212 584.474 518.663 586.996Q519.185 589.97 519.911 592.902Q520.636 595.833 521.561 598.708Q522.487 601.582 523.608 604.387Q524.729 607.191 526.04 609.911C535.742 629.588 555.976 650.745 573.999 663.06L573.914 847.126C587.365 849.912 601.354 851.467 614.941 853.57C628.793 855.713 643.197 858.636 657.181 859.519C659.364 859.657 661.419 859.544 663.565 859.101L664.002 858.267L664.185 858.722C665.689 854.546 664.742 823.948 664.74 817.516L664.904 692.474C664.917 683.955 665.954 651.289 664.397 646.105C663.253 645.11 661.686 644.921 660.234 644.665C649.171 642.72 637.751 641.821 626.586 640.439C616.092 639.139 605.627 637.341 595.114 636.273C591.011 632.833 587.294 628.762 583.745 624.755C566.504 605.288 563.353 588.957 563.453 563.776C563.507 550.329 564.292 536.915 564.521 523.475C564.689 513.641 565.215 503.458 562.619 493.876C560.043 484.371 555.642 477.467 546.978 472.511C548.987 472.543 551.055 472.698 553.058 472.559C560.828 472.022 565.886 465.341 570.605 459.948C571.037 475.254 570.759 490.59 570.792 505.901L570.961 594.394C582.448 595.164 594.055 596.44 605.487 597.767C616.58 599.054 657.458 605.592 664.459 603.354C665.118 601.922 665.307 600.697 665.401 599.125C665.916 590.461 665.194 581.308 665.228 572.577L665.477 508.944L665.526 416.394C665.526 401.711 666.06 386.829 665.599 372.166C665.555 370.78 665.343 370.043 664.39 368.982C658.441 368.083 648.087 371.256 641.86 372.428L600.246 380.42C591.201 382.251 582.186 384.491 573.066 385.901C566.096 382.223 559.011 378.824 551.417 376.627C537.186 372.509 521.169 372.843 508.028 380.23C497.461 386.169 492.271 394.675 489.095 406.105C481.561 407.185 443.945 414.724 440.053 417.3C438.707 422.684 439.967 451.289 439.977 459.344C438.704 461.07 437.647 462.646 437.102 464.746C435.465 471.062 435.261 490.318 438.574 495.743C431.86 504.098 424.916 512.368 418.865 521.222C411.323 532.256 404.864 543.975 397.688 555.239C397.174 540.133 397.515 524.934 397.442 509.816Q396.989 468.489 397.05 427.16L396.779 219.833C412.14 216.431 427.173 211.468 442.422 207.59L615.369 162.013C643.403 154.499 671.243 145.973 699.573 139.624Z"/>
	<path d="M531.541 223.078C531.678 223.054 531.814 223.014 531.953 223.006C533.441 222.922 533.685 222.965 534.834 223.82C535.654 225.461 535.713 227.158 535.771 228.964C536.081 238.641 535.811 248.391 535.849 258.076L536.064 316.215L536.095 343.562C536.095 350.022 536.613 356.924 535.284 363.265C528.72 366.474 502.401 370.467 493.921 372.1C477.118 375.335 460.395 378.983 443.619 382.359C442.2 382.559 441.328 382.461 440.116 381.7C439.752 380.859 439.583 380.299 439.56 379.367C438.917 353.52 439.508 327.497 439.452 301.631C439.411 283.186 438.431 264.297 439.366 245.908C446.202 243.609 457.439 241.684 464.955 239.801Q498.29 231.609 531.541 223.078Z"/>
	<path fill="#FCD36A" d="M529.048 230.111L529.516 230.257C530.325 231.642 530.005 348.922 529.881 358.68C519.299 361.272 508.542 363.13 497.855 365.238L446.164 375.55C444.07 373.177 447.067 265.379 444.866 250.921C473.138 245.054 500.943 236.742 529.048 230.111Z"/>
	<path d="M662.943 194.676C663.525 194.914 663.997 195.155 664.428 195.638C665.105 196.395 665.341 197.244 665.41 198.227C665.712 202.5 665.33 207.079 665.341 211.392L665.399 241.734L665.603 335.293C655.579 338.968 641.315 340.727 630.633 342.85L572.536 354.645C571.464 354.129 571.04 353.604 570.579 352.491C569.634 350.21 569.528 230.139 569.967 218.563C570.001 217.68 570.193 217.04 570.529 216.234C573.461 213.944 651.734 197.234 662.943 194.676Z"/>
	<path fill="#FCD36A" d="M658.455 202.156C659.456 203.287 659.021 317.828 659.034 330.751C649.703 333.25 639.812 334.709 630.321 336.594L576.538 347.378C575.19 338.929 576.364 319.736 576.367 310.248L576.347 220.824Q617.331 211.181 658.455 202.156Z"/>
	<path fill="#9F8BE8" d="M872.257 625.96C874.752 625.708 882.667 630.827 885.522 631.908C904.258 639.002 927.749 640.749 947.087 635.271C954.568 633.151 961.547 629.843 968.59 626.609Q969.271 628.025 969.935 629.448C990.776 674.155 969.384 742.061 952.965 785.489C949.36 795.023 944.694 804.191 941.237 813.751L941.034 814.322Q947.463 846.417 956.425 877.899C948.306 871.795 942.795 863.793 937.506 855.234C915.899 820.266 904.11 774.381 900.839 733.69C899.996 723.199 899.298 712.574 899.056 702.048C898.91 695.673 900.123 687.84 898.744 681.674C898.399 680.135 897.944 679.378 896.596 678.585C895.436 678.787 894.67 679.218 893.924 680.169C890.708 684.27 894.358 734.181 895.446 742.88C895.455 742.987 895.46 743.094 895.471 743.2C899.706 782.75 913.2 831.846 936.208 864.748C940.008 870.181 944.213 875.927 949.456 880.073C954.595 884.136 960.453 885.998 966.986 885.123C976.508 883.848 982.46 878.543 987.968 871.185C988.318 877.727 988.008 884.478 986.402 890.849C984.319 899.115 979.922 906.385 972.358 910.734C966.573 914.059 959.828 914.438 953.5 912.577C924.87 904.157 891.655 854.433 877.902 829.37C854.006 785.821 826.619 710.913 841.414 661.17C846.28 644.809 857.577 633.941 872.257 625.96Z"/>
	<path fill="#9F8BE8" d="M538.091 476.908C538.299 476.876 538.506 476.823 538.717 476.813C542.175 476.652 547.118 479.104 549.579 481.492C561.799 493.35 558.352 521.578 557.646 537.209C557.226 546.51 556.874 555.753 556.879 565.065C556.897 601.796 566.408 616.657 591.745 641.96C586.978 647.629 582.054 652.942 576.679 658.03C566.976 651.069 558.726 642.785 550.869 633.855C532.531 613.01 525.303 598.132 522.292 570.377C521.308 561.303 520.553 552.069 520.466 542.94C520.431 539.316 521.78 524.415 520.863 522.326C519.704 521.306 519.475 520.951 517.908 520.707C517.505 520.949 517.19 521.104 516.863 521.476C513.443 525.373 514.491 543.544 514.661 549.206C506.431 560.237 498.846 571.068 492.051 583.046C480.295 604.642 465.312 634.617 460.134 658.646C426.007 657.712 405.162 644.402 380.899 622.472C386.191 577.449 425.281 515.198 458.412 485.085C462.488 488.25 466.672 490.363 471.668 491.721C494.308 497.876 518.65 488.061 538.091 476.908Z"/>
	<path fill="#FCD36A" d="M657.682 375.594L658.985 375.532C659.163 375.831 659.459 376.086 659.519 376.429C660.17 380.16 659.409 387.423 659.4 391.5L659.329 433.773L658.971 597.577C648.254 597.065 637.385 595.505 626.725 594.255Q602.925 591.362 579.084 588.834C578.504 588.731 577.951 588.475 577.4 588.27C576.106 585.584 577.292 436.036 577.443 421.429C580.311 420.188 583.166 418.917 585.551 416.845C588.408 414.363 590.253 411.091 590.36 407.257C590.554 400.392 585.644 395.284 581.288 390.629C606.691 385.521 632.406 381.204 657.682 375.594Z"/>
	<path fill="#FEFEFE" d="M605.836 644.46C612.238 644.73 618.777 645.821 625.149 646.584L659.159 650.638L658.427 853.638C642.907 852.03 627.399 849.255 611.977 846.872C601.429 845.387 590.787 843.861 580.337 841.797L580.271 742.562C580.089 717.204 579.238 691.565 580.333 666.239C586.788 671.306 593.869 676.907 602.489 677.21C608.652 677.426 611.628 674.398 616.637 672.094C618.45 671.26 620.205 671.359 621.77 669.935C622.283 668.851 622.57 668.069 622.224 666.861C621.589 664.648 618.714 663.923 617.663 661.947C616.917 660.546 616.68 658.536 616.232 656.987C614.541 651.134 610.719 647.714 605.836 644.46Z"/>
	<path fill="#9F8BE8" d="M719.536 181.285L730.838 181.578L731.032 913.001Q725.375 912.938 719.718 912.816L719.536 181.285Z"/>
	<path fill="#FEFEFE" d="M412.941 673.003C414.081 673.485 414.746 674.033 415.542 674.961C420.965 681.285 425.224 689.221 430.02 696.085C435.427 703.823 441.034 711.446 446.302 719.278C455.835 733.449 464.897 747.873 474.6 761.948C465.976 778.533 454.532 796.795 443.911 812.19L445.413 724.134Q442.208 720.825 439.063 717.46C437.926 744.419 438.267 771.636 437.786 798.624C437.418 806.476 437.572 814.392 437.541 822.254C427.607 837.551 418.688 853.366 408.272 868.337C406.657 870.658 407.041 871.803 407.563 874.506L407.696 875.169C405.598 878.159 402.964 882.673 399.795 884.61C398.445 885.435 397.257 886.345 396.015 887.326L395.878 825.225C395.883 815.605 396.464 805.687 395.868 796.098C395.104 795.464 394.699 795.132 394.192 794.259C395.814 790.389 398.626 786.764 400.794 783.161C404.103 777.661 407.201 772.011 410.33 766.407Q417.66 753.429 424.14 740.005Q430.619 726.581 436.22 712.768C432.59 706.95 411.472 678.379 411.491 674.767C411.496 673.999 412.417 673.492 412.941 673.003Z"/>
	<path fill="#FEFEFE" d="M706.627 138.706C708.851 138.605 711.099 138.798 713.321 138.913C714.032 147.768 713.554 157.069 713.592 165.971L713.523 225.563L713.597 397.519L713.627 911.443C711.273 911.612 708.977 911.235 706.645 910.944C706.308 899.18 706.569 887.34 706.57 875.568L706.521 813.619L706.802 600.003L706.627 138.706Z"/>
	<path fill="#9F8BE8" d="M984.649 679.887L985.316 680.757C992.607 728.921 988.701 786.306 985.853 834.987C985.426 842.286 986.026 856.308 984.708 862.599C984.261 864.733 983.26 866.792 982.006 868.565C977.641 874.738 970.805 878.1 963.521 879.311Q962.374 875.088 961.182 870.878C955.322 852.582 951.009 833.318 947.423 814.463C950.171 806.923 954.026 799.661 956.952 792.144C971.521 754.709 982.484 720.388 984.649 679.887Z"/>
	<path fill="#9F8BE8" d="M445.028 887.471C457.661 888.304 470.341 890.32 482.903 891.932L546.888 900.21C566.791 902.777 586.689 905.138 606.556 908.008C616.784 909.486 627.273 910.608 637.295 913.185L627.375 913.181C566.642 911.848 505.837 913.709 445.088 912.45C441.627 907.973 436.729 901.557 436.961 895.648C437.692 894.251 438.096 893.935 439.661 893.42C442.746 892.404 443.542 890.133 445.028 887.471Z"/>
	<path fill="#9F8BE8" d="M366.161 838.813C365.956 863.491 366.364 888.149 366.401 912.823Q334.657 913.168 302.91 913.077C313.611 900.92 324.404 888.76 334.518 876.105Q343.693 864.445 352.736 852.681C354.892 849.894 357.474 845.461 360.196 843.312L360.666 843.601C362.613 842.146 364.369 840.451 366.161 838.813Z"/>
	<path fill="#9F8BE8" d="M467.462 448.064C485.684 447.098 499.236 456.762 514.353 465.249C519.707 468.254 525.297 470.808 530.869 473.377C518.738 480.167 507.021 484.987 493.236 487.196C492.324 487.318 491.425 487.41 490.506 487.467C474.039 488.491 468.79 486.21 456.526 475.437C451.877 479.681 447.5 484.319 443.012 488.74C442.098 481.491 442.494 473.864 442.504 466.559C445.045 464.06 448.117 462.085 450.825 459.764C454.324 456.765 457.443 452.918 461.276 450.374C463.169 449.117 465.282 448.597 467.462 448.064Z"/>
	<path fill="#FEFEFE" d="M500.468 637.489C508.792 637.823 517.219 638.443 525.49 639.447L525.592 714.164C525.577 725.711 526.429 737.816 525.474 749.298L524.728 747.382Q517.761 721.564 509.39 696.167C506.508 687.343 497.707 664.744 497.244 656.551C496.891 650.301 499.028 643.531 500.468 637.489Z"/>
	<path fill="#FEFEFE" d="M389.482 800.88Q390.051 846.901 389.772 892.925C387.8 896.018 385.545 899.078 385.623 902.919C385.711 907.162 388.991 910.311 391.82 913.073C385.492 913.414 379.155 913.387 372.819 913.416L372.587 864.381C372.544 853.014 372.7 841.676 371.803 830.335C369.751 833.029 367.986 835.961 366.161 838.813C364.369 840.451 362.613 842.146 360.666 843.601L360.196 843.312C369.732 829.017 379.761 815.053 389.482 800.88Z"/>
	<path fill="#FEFEFE" d="M522.443 421.021C523.966 421.103 525.901 421.127 527.209 422.03C530.78 424.498 528.036 428.715 529.307 432.044C529.808 433.357 530.551 433.494 531.732 433.982C532.372 433.859 532.84 433.907 533.317 433.41C534.941 431.719 534.944 429.064 535.076 426.875C538.269 426.996 542.505 427.963 545.511 426.734C547.511 425.916 548.058 424.33 548.904 422.482C556.451 423.859 563.996 424.301 571.593 423.036C571.604 433.766 572.075 444.974 566.815 454.658C563.778 458.505 560.351 463.725 555.83 465.815C553.239 467.012 550.654 466.62 548.066 465.607C544.666 464.276 541.487 462.021 538.556 459.879C529.14 453.001 524.708 446.674 519.881 436.111C518.353 432.767 516.719 428.402 518.224 424.787C519.092 422.701 520.45 421.905 522.443 421.021Z"/>
	<path fill="#9F8BE8" d="M820.441 523.331C822.595 525.72 824.306 528.872 826.106 531.551Q831.102 538.971 836.27 546.272C837.884 543.893 839.832 541.3 842.697 540.396C844.521 539.821 846.48 540.019 848.11 541.031C850.683 542.629 852.053 545.671 852.659 548.531C853.683 553.365 852.532 561.377 849.682 565.499C847.406 568.791 844.389 568.736 840.814 569.481C839.691 569.715 838.835 570.138 838.225 571.137C836.232 574.397 838.744 581.615 839.564 585.206C840.833 590.142 842.798 594.592 845.066 599.144Q842.901 598.844 840.752 598.442C833.212 596.968 826.599 593.217 822.392 586.6C814.277 573.836 816.327 557.079 817.744 542.826C818.393 536.306 818.918 529.717 820.441 523.331Z"/>
	<path fill="#9F8BE8" d="M514.802 559.359C516.179 561.083 516.153 568.222 516.42 570.733C509.735 582.227 502.939 601.764 499.224 614.838C497.97 619.249 490.557 653.619 490.035 654.202C486.983 657.61 472.862 658.512 467.981 659.002C466.974 658.835 467.437 659.057 466.646 658.232C466.832 646.494 492.158 595.082 499.304 582.674C503.967 574.576 509.305 566.907 514.802 559.359Z"/>
	<path fill="#FCD36A" d="M486.593 412.61L486.987 412.689C487.49 413.758 487.377 413.213 487.332 414.488Q487.04 421.983 487.891 429.436C478.968 427.45 469.127 426.878 461.15 432.152C454.103 436.812 452.258 444.092 450.772 451.876C450.393 452.531 448.409 453.833 447.752 454.373L446.484 455.222L445.998 455.001C445.223 443.846 445.653 432.361 445.605 421.165C459.328 418.533 472.947 415.614 486.593 412.61Z"/>
	<path fill="#9F8BE8" d="M474.488 433.602C499.483 432.562 520.969 454.058 539.41 468.221L539.268 469.059L538.505 469.576C534.904 469.831 529.835 466.379 526.645 464.708C514.597 458.785 503.582 450.833 491 446.005C480.365 441.924 468.919 440.292 458.235 445.027C462.317 438.447 467.106 435.363 474.488 433.602Z"/>
	<path fill="#FEFEFE" d="M596.243 648.378C597.169 648.385 597.954 648.425 598.847 648.707C601.905 649.675 607.228 653.864 608.57 656.763C609.075 657.851 609.21 658.808 608.781 659.945C607.913 660.15 607.041 660.329 606.166 660.505C605.408 661.59 605.376 661.894 605.234 663.225C605.886 664.124 606.531 664.915 606.907 665.97C605.367 665.838 604.005 665.771 602.471 665.981L601.801 666.984C601.886 667.999 601.976 668.965 602.203 669.96L602.388 670.754L601.321 670.86C594.467 668.774 589.01 665.321 583.433 660.883C587.497 656.573 591.685 652.167 596.243 648.378Z"/>
	<path fill="#FEFEFE" d="M274.24 900.336C279.789 904.41 285.821 908.103 291.674 911.737C288.942 914.76 286.536 918.241 283.988 921.434C277.566 917.973 271.106 914.592 265.364 910.049L274.24 900.336Z"/>
	<path fill="#FEFEFE" d="M412.485 877.772C412.603 877.829 412.728 877.874 412.837 877.945C415.155 879.443 432.224 890.665 432.72 891.49C432.884 891.763 432.86 892.112 432.93 892.423C432.303 893.887 431.625 894.324 430.336 895.126Q427.542 894.866 424.759 894.501C417.705 893.547 412.371 890.781 408.039 885.117Q410.301 881.468 412.485 877.772Z"/>
	<path fill="#FEFEFE" d="M396.959 208.394C401.344 208.425 406.396 207.994 410.663 208.912L410.711 209.348L408.14 210.299C405.817 211.174 403.493 212.143 401.134 212.911C399.573 213.42 398.652 213.31 397.21 212.602C396.395 211.228 396.765 209.896 396.959 208.394Z"/>
	<path d="M157.131 611.272C156.028 603.095 156.942 594.975 162.015 588.153C165.528 583.427 170.855 580.302 174.166 575.506C176.799 571.692 178.095 567.012 180.381 562.976C187.411 550.569 200.708 544.21 214.462 542.428C230.633 540.333 247.367 543.542 260.399 553.722C269.811 561.074 273.644 569.958 274.997 581.574C275.236 583.625 276.046 587.513 275.115 589.407C275.606 591.736 275.397 593.143 274.874 595.417C275.17 599.975 274.406 604.955 273.731 609.473C271.092 627.138 265.769 646.068 253.802 659.795C249.845 664.334 244.74 668.509 238.493 668.925C233.979 669.225 229.168 667.652 225.084 665.854L221.931 667.681C220.692 669.939 219.443 671.73 217.776 673.694C224.409 681.411 231.045 689.124 236.823 697.515C235.809 690.976 233.115 679.9 236.943 674.075C238.2 673.307 238.534 673.043 240.067 673.241C241.599 673.439 243.124 674.642 243.929 675.908C245.053 677.675 246.439 683.572 248.081 684.2C251.02 679.262 253.213 664.359 258.912 662.596C261.326 661.849 263.742 663.428 265.641 664.719Q266.181 665.089 266.714 665.47C268.838 665.648 270.675 665.414 272.122 667.24C273.087 668.46 273.909 669.821 274.707 671.154C276.566 671.863 278.415 672.51 280.136 673.522C282.632 682.105 283.35 687.819 278.867 696.02C274.836 703.395 269.158 708.576 261.196 711.392C267.088 727.952 284.367 765.647 276.333 782.043C274.507 785.769 271.376 788.421 267.447 789.721C259.913 792.216 251.549 789.388 244.837 785.822C234.451 780.303 226.321 771.114 218.079 762.895C207.697 778.623 212.192 796.774 215.725 814.042Q217.495 822.678 219.678 831.219C220.63 834.871 222.215 838.899 222.611 842.632C222.716 843.628 222.614 844.234 222.098 845.12C220.603 846.274 219.067 846.684 217.277 847.225C217.867 866.095 220.075 885.001 221.167 903.87Q224.67 963.885 224.075 1024L154.548 1024L149.071 1024L0 1024L0 705.139C9.78958 674.328 15.3919 648.601 39.8847 624.896C48.247 616.803 62.1544 606.598 74.3992 606.83C75.022 607.571 75.631 608.3 76.4169 608.881C78.7642 610.616 82.3332 609.866 85.0098 609.359C93.7686 607.699 106.137 603.134 111.189 595.266C116.601 586.838 107.795 582.305 106.458 574.548C105.988 571.818 106.913 569.421 108.567 567.274C110.186 565.175 112.416 563.226 115.165 562.987C117.899 562.75 119.061 564.851 121.026 566.298C122.573 567.437 124.489 567.643 126.332 567.235C128.56 566.741 130.123 565.108 131.223 563.191C134.165 558.06 133.892 552.804 132.493 547.312C139.861 550.786 147.904 553.267 155.021 557.193C154.237 558.049 153.581 558.82 153.195 559.941C152.135 563.02 152.801 568.038 152.869 571.307C153.084 581.661 153.896 603.009 146.644 610.686C144.169 613.305 140.669 614.303 137.156 614.402C132.634 614.528 127.975 613.259 123.599 612.223C121.992 618.086 120.622 623.983 119.282 629.912C127.489 638.851 135.883 650.845 140.825 661.892L144.936 658.483C140.103 651.68 135.989 645.124 137.294 636.335C138.922 625.369 148.931 617.638 157.131 611.272Z"/>
	<path d="M245.564 614.578C252.468 611.778 259.059 607.282 264.24 601.938C266.34 599.773 272.282 590.94 273.374 590.159C273.888 589.791 274.535 589.658 275.115 589.407C275.606 591.736 275.397 593.143 274.874 595.417C275.17 599.975 274.406 604.955 273.731 609.473C271.092 627.138 265.769 646.068 253.802 659.795C249.845 664.334 244.74 668.509 238.493 668.925C233.979 669.225 229.168 667.652 225.084 665.854L221.931 667.681C221.43 667.384 221.124 667.222 220.678 666.9C219.441 666.005 218.931 664.709 218.745 663.245C217.86 656.262 223.422 648.317 227.352 643.006C225.815 640.727 224.255 638.147 223.44 635.512C221.649 629.718 222.094 623.035 225.193 617.747C227.854 613.208 231.482 611.192 236.392 609.907C240.165 610.705 242.506 612.357 245.564 614.578Z"/>
	<path fill="#FEFEFE" d="M245.564 614.578C252.468 611.778 259.059 607.282 264.24 601.938C266.34 599.773 272.282 590.94 273.374 590.159C273.888 589.791 274.535 589.658 275.115 589.407C275.606 591.736 275.397 593.143 274.874 595.417C267.69 606.466 259.673 613.532 247.693 618.977C247.582 619.173 247.474 619.37 247.362 619.565C246.089 621.775 244.903 623.537 242.322 624.216C241.262 623.69 241.294 623.675 240.816 622.586L240.992 621.878C241.394 620.201 241.764 618.977 241.313 617.291C240.534 616.174 239.934 615.365 238.515 615.003C236.481 614.484 234.218 615.338 232.591 616.543C229.616 618.748 227.4 622.982 226.918 626.617C226.319 631.138 227.912 635.33 230.708 638.823C231.912 640.327 234.571 642.575 234.921 644.364C231.504 649.418 221.224 653.614 223.621 663.001C223.882 664.022 224.432 665.035 225.084 665.854L221.931 667.681C221.43 667.384 221.124 667.222 220.678 666.9C219.441 666.005 218.931 664.709 218.745 663.245C217.86 656.262 223.422 648.317 227.352 643.006C225.815 640.727 224.255 638.147 223.44 635.512C221.649 629.718 222.094 623.035 225.193 617.747C227.854 613.208 231.482 611.192 236.392 609.907C240.165 610.705 242.506 612.357 245.564 614.578Z"/>
	<path fill="#FEFEFE" d="M149.071 1024C144.118 1002.04 138.142 979.606 130.776 958.323C125.746 943.788 119.075 929.634 115.266 914.704C113.559 908.014 108.257 875.638 112.109 870.283C112.569 869.645 112.951 869.722 113.662 869.548C114.673 870.275 115.129 870.735 115.377 872.009C116.138 875.914 115.644 880.893 115.759 884.915C115.99 892.977 116.804 901.117 118.534 908.998C120.957 920.043 125.446 930.382 129.465 940.903C132.463 948.754 135.118 956.694 137.743 964.675C141.698 976.702 145.246 988.703 148.488 1000.94C150.519 1008.6 152.18 1016.44 154.548 1024L149.071 1024Z"/>
	<path fill="#9F8BE8" d="M158.255 661.204C167.059 660.903 175.5 661.21 184.011 663.681C193.006 666.292 201.881 670.702 209.215 676.547C225.189 689.276 246.988 722.505 256.891 740.589C246.003 747.463 236.532 754.764 226.688 763.064C218.242 752.106 210.412 740.634 202.514 729.277C198.977 724.191 195.705 717.581 191.144 713.41C189.866 712.241 188.712 711.524 186.963 711.644C186.501 712.447 186.54 712.179 186.461 713.096C185.812 720.581 210.634 752.019 215.863 758.867C212.469 762.094 210.225 764.967 208.259 769.247C201.034 787.274 210.012 823.05 215.608 841.787Q212.45 842.381 209.273 842.869Q206.097 843.358 202.906 843.74Q199.716 844.123 196.514 844.399Q193.312 844.675 190.103 844.845Q186.894 845.015 183.681 845.077Q180.468 845.14 177.255 845.096Q174.041 845.052 170.831 844.901Q167.621 844.749 164.418 844.492Q161.215 844.234 158.022 843.87Q154.829 843.505 151.65 843.035Q148.471 842.565 145.309 841.989Q142.147 841.413 139.007 840.733Q135.866 840.052 132.75 839.267Q129.633 838.483 126.545 837.595Q123.456 836.707 120.399 835.717Q117.342 834.726 114.319 833.635C115.181 819.124 116.62 804.895 116.835 790.323C117.396 752.243 112.417 699.263 140.537 669.273C146.367 663.054 149.852 661.5 158.255 661.204Z"/>
	<path fill="#9F8BE8" d="M0 0L446.743 0C427.957 19.0083 405.8 34.6742 384.013 49.9811Q374.866 56.3992 365.553 62.5734Q356.241 68.7476 346.768 74.6737Q337.295 80.5997 327.669 86.2735Q318.043 91.9472 308.27 97.3647Q298.498 102.782 288.585 107.94Q278.673 113.097 268.628 117.991Q258.583 122.884 248.412 127.511Q238.241 132.138 227.952 136.494Q217.662 140.851 207.261 144.934Q196.86 149.017 186.355 152.824Q175.85 156.63 165.248 160.159Q154.646 163.687 143.954 166.933Q133.262 170.18 122.489 173.143Q111.715 176.106 100.867 178.784Q90.0187 181.461 79.1036 183.851Q68.1885 186.241 57.214 188.342C38.3383 191.803 19.1248 194.987 0 196.632L0 0Z"/>
	<path fill="#FCD36A" d="M312.087 20.3027Q312.371 20.2864 312.655 20.2841Q312.939 20.2818 313.223 20.2934Q313.507 20.3051 313.789 20.3308Q314.072 20.3565 314.354 20.3961Q314.635 20.4357 314.914 20.4891Q315.193 20.5425 315.469 20.6096Q315.745 20.6767 316.018 20.7573Q316.29 20.8379 316.558 20.9319Q316.826 21.0258 317.09 21.1329Q317.353 21.2399 317.61 21.3598Q317.868 21.4797 318.119 21.6122Q318.371 21.7446 318.615 21.8893Q318.86 22.034 319.097 22.1906Q319.334 22.3471 319.563 22.5152Q319.792 22.6832 320.012 22.8624Q320.233 23.0415 320.444 23.2313Q320.656 23.4211 320.858 23.6211Q321.059 23.821 321.251 24.0307Q321.443 24.2404 321.624 24.4593Q321.805 24.6782 321.975 24.9057Q322.145 25.1333 322.304 25.3689Q322.463 25.6046 322.609 25.8478Q322.756 26.091 322.891 26.3411Q323.026 26.5912 323.148 26.8477Q323.27 27.1042 323.38 27.3664Q323.489 27.6285 323.585 27.8958Q323.682 28.1631 323.765 28.4347Q323.848 28.7064 323.918 28.9819Q323.987 29.2573 324.043 29.5359Q324.099 29.8144 324.141 30.0954Q324.183 30.3764 324.211 30.6591Q324.24 30.9418 324.254 31.2255Q324.268 31.5093 324.268 31.7934Q324.269 32.0775 324.255 32.3612Q324.241 32.645 324.214 32.9278Q324.186 33.2105 324.144 33.4916Q324.103 33.7726 324.047 34.0513Q323.992 34.3299 323.923 34.6055Q323.853 34.8811 323.771 35.1529Q323.688 35.4248 323.592 35.6922Q323.496 35.9596 323.388 36.222Q323.279 36.4844 323.157 36.7411Q323.035 36.9978 322.901 37.2481Q322.766 37.4985 322.62 37.742Q322.474 37.9854 322.315 38.2214Q322.157 38.4573 321.987 38.6852Q321.818 38.913 321.637 39.1322Q321.456 39.3514 321.265 39.5615Q321.073 39.7715 320.872 39.9718Q320.671 40.1722 320.459 40.3623Q320.248 40.5525 320.028 40.732Q319.808 40.9116 319.579 41.08Q319.35 41.2485 319.114 41.4055Q318.877 41.5625 318.633 41.7076Q318.388 41.8527 318.137 41.9856Q317.886 42.1185 317.629 42.2388Q317.371 42.3592 317.108 42.4667Q316.845 42.5742 316.578 42.6687Q316.31 42.7631 316.037 42.8442Q315.765 42.9253 315.489 42.9929Q315.213 43.0605 314.934 43.1144Q314.655 43.1683 314.374 43.2084Q314.093 43.2485 313.81 43.2746Q313.527 43.3008 313.243 43.313Q312.96 43.3252 312.676 43.3234Q312.392 43.3216 312.109 43.3059Q311.826 43.2901 311.544 43.2604Q311.262 43.2308 310.981 43.1873Q310.701 43.1438 310.423 43.0865Q310.145 43.0293 309.871 42.9584Q309.596 42.8875 309.325 42.8032Q309.054 42.719 308.788 42.6214Q308.522 42.5239 308.26 42.4134Q307.999 42.3029 307.744 42.1797Q307.488 42.0564 307.239 41.9208Q306.99 41.7851 306.748 41.6374Q306.506 41.4896 306.271 41.3301Q306.037 41.1706 305.81 40.9998Q305.584 40.8289 305.366 40.6472Q305.148 40.4654 304.94 40.2731Q304.731 40.0808 304.532 39.8785Q304.333 39.6762 304.145 39.4644Q303.956 39.2525 303.778 39.0316Q303.6 38.8108 303.433 38.5814Q303.267 38.352 303.111 38.1147Q302.956 37.8774 302.812 37.6328Q302.669 37.3881 302.537 37.1367Q302.406 36.8853 302.287 36.6277Q302.169 36.3701 302.063 36.1069Q301.957 35.8438 301.864 35.5758Q301.771 35.3078 301.691 35.0355Q301.612 34.7633 301.546 34.4874Q301.479 34.2116 301.427 33.9328Q301.375 33.654 301.336 33.373Q301.297 33.092 301.273 32.8094Q301.248 32.5268 301.237 32.2434Q301.226 31.9643 301.229 31.685Q301.232 31.4056 301.249 31.1268Q301.265 30.848 301.295 30.5702Q301.325 30.2925 301.368 30.0166Q301.411 29.7406 301.468 29.4671Q301.525 29.1936 301.595 28.9231Q301.664 28.6527 301.747 28.3859Q301.83 28.1192 301.926 27.8567Q302.022 27.5943 302.13 27.3368Q302.238 27.0794 302.359 26.8274Q302.479 26.5755 302.612 26.3297Q302.745 26.084 302.889 25.8449Q303.034 25.6059 303.19 25.3741Q303.346 25.1423 303.513 24.9184Q303.68 24.6944 303.857 24.4788Q304.035 24.2632 304.223 24.0565Q304.41 23.8498 304.608 23.6524Q304.806 23.455 305.013 23.2674Q305.22 23.0799 305.436 22.9025Q305.651 22.7252 305.876 22.5586Q306.1 22.3919 306.332 22.2363Q306.564 22.0807 306.803 21.9366Q307.042 21.7924 307.288 21.66Q307.534 21.5276 307.786 21.4073Q308.038 21.287 308.296 21.179Q308.554 21.071 308.816 20.9757Q309.079 20.8803 309.345 20.7978Q309.612 20.7153 309.883 20.6458Q310.153 20.5763 310.427 20.52Q310.701 20.4637 310.977 20.4208Q311.253 20.3778 311.53 20.3483Q311.808 20.3187 312.087 20.3027Z"/>
	<path fill="#FCD36A" d="M122.825 77.738Q123.098 77.6676 123.374 77.6108Q123.651 77.554 123.93 77.5109Q124.208 77.4678 124.489 77.4385Q124.77 77.4093 125.051 77.3939Q125.333 77.3785 125.615 77.377Q125.897 77.3756 126.179 77.388Q126.461 77.4005 126.742 77.4268Q127.022 77.4532 127.302 77.4934Q127.581 77.5336 127.858 77.5875Q128.135 77.6415 128.408 77.709Q128.682 77.7765 128.953 77.8575Q129.223 77.9385 129.489 78.0327Q129.755 78.1269 130.016 78.2342Q130.276 78.3414 130.532 78.4614Q130.787 78.5814 131.036 78.7138Q131.285 78.8462 131.527 78.9908Q131.77 79.1354 132.004 79.2917Q132.239 79.4481 132.466 79.6159Q132.693 79.7836 132.911 79.9624Q133.129 80.1411 133.338 80.3304Q133.548 80.5197 133.747 80.7191Q133.947 80.9185 134.136 81.1275Q134.326 81.3366 134.505 81.5547Q134.683 81.7728 134.851 81.9995Q135.019 82.2261 135.176 82.4608Q135.332 82.6955 135.477 82.9376Q135.622 83.1798 135.754 83.4287Q135.887 83.6777 136.007 83.9329Q136.127 84.1882 136.235 84.449Q136.342 84.7099 136.437 84.9757Q136.531 85.2415 136.612 85.5117Q136.693 85.7819 136.761 86.0557Q136.829 86.3296 136.883 86.6064Q136.937 86.8833 136.977 87.1625Q137.018 87.4417 137.044 87.7225Q137.071 88.0034 137.084 88.2852Q137.096 88.567 137.095 88.8491Q137.094 89.1312 137.078 89.4129Q137.063 89.6946 137.034 89.9752Q137.005 90.2558 136.962 90.5346Q136.919 90.8134 136.863 91.0898Q136.806 91.3662 136.736 91.6394Q136.666 91.9126 136.582 92.1821Q136.498 92.4515 136.402 92.7165Q136.305 92.9814 136.195 93.2413Q136.085 93.5012 135.963 93.7553Q135.84 94.0094 135.705 94.2572Q135.571 94.505 135.424 94.7458Q135.277 94.9867 135.118 95.2199Q134.96 95.4532 134.79 95.6784Q134.62 95.9035 134.439 96.12Q134.258 96.3365 134.066 96.5438Q133.875 96.7511 133.674 96.9487Q133.472 97.1463 133.262 97.3337Q133.051 97.5211 132.831 97.6979Q132.611 97.8747 132.383 98.0404Q132.154 98.2061 131.918 98.3603Q131.682 98.5145 131.439 98.6569Q131.195 98.7993 130.945 98.9295Q130.694 99.0597 130.438 99.1774Q130.182 99.295 129.92 99.3999Q129.658 99.5048 129.391 99.5966Q129.124 99.6884 128.853 99.7669Q128.582 99.8454 128.308 99.9105Q128.037 99.9748 127.763 100.026Q127.489 100.077 127.213 100.114Q126.937 100.152 126.659 100.176Q126.382 100.2 126.103 100.21Q125.825 100.221 125.546 100.218Q125.268 100.215 124.989 100.198Q124.711 100.181 124.434 100.151Q124.157 100.121 123.882 100.077Q123.607 100.033 123.334 99.9762Q123.061 99.9191 122.792 99.8488Q122.522 99.7785 122.256 99.6951Q121.99 99.6118 121.729 99.5155Q121.468 99.4193 121.211 99.3104Q120.955 99.2015 120.704 99.0803Q120.453 98.959 120.208 98.8257Q119.964 98.6923 119.726 98.5472Q119.488 98.4021 119.257 98.2455Q119.027 98.089 118.804 97.9214Q118.582 97.7538 118.367 97.5755Q118.153 97.3973 117.948 97.2088Q117.743 97.0203 117.547 96.8221Q117.351 96.6238 117.165 96.4162Q116.98 96.2086 116.804 95.9922Q116.629 95.7758 116.464 95.5511Q116.299 95.3264 116.145 95.094Q115.992 94.8615 115.85 94.6218Q115.708 94.3821 115.577 94.1358Q115.447 93.8895 115.329 93.6371Q115.211 93.3847 115.105 93.1269Q115 92.8691 114.907 92.6064Q114.814 92.3437 114.734 92.0768Q114.654 91.8099 114.587 91.5394Q114.52 91.2689 114.466 90.9955Q114.413 90.7221 114.373 90.4464Q114.332 90.1706 114.306 89.8933Q114.279 89.6159 114.266 89.3376Q114.253 89.0593 114.253 88.7806Q114.253 88.502 114.268 88.2237Q114.282 87.9454 114.309 87.6682Q114.337 87.3909 114.378 87.1153Q114.419 86.8397 114.473 86.5664Q114.528 86.2932 114.595 86.0229Q114.663 85.7526 114.744 85.4859Q114.825 85.2193 114.918 84.9569Q115.012 84.6945 115.118 84.4369Q115.225 84.1794 115.344 83.9274Q115.462 83.6754 115.593 83.4294Q115.724 83.1835 115.867 82.9442Q116.01 82.705 116.164 82.473Q116.319 82.241 116.484 82.0168Q116.65 81.7925 116.826 81.5767Q117.002 81.3608 117.188 81.1538Q117.375 80.9468 117.571 80.7491Q117.768 80.5514 117.973 80.3635Q118.179 80.1757 118.394 79.998Q118.608 79.8204 118.832 79.6535Q119.055 79.4866 119.286 79.3307Q119.517 79.1749 119.755 79.0304Q119.993 78.886 120.238 78.7534Q120.483 78.6208 120.735 78.5003Q120.986 78.3798 121.243 78.2717Q121.499 78.1636 121.761 78.0681Q122.023 77.9727 122.289 77.8901Q122.555 77.8075 122.825 77.738Z"/>
	<path fill="#FCD36A" d="M218.6 54.6636Q219.2 54.5547 219.808 54.511Q220.417 54.4673 221.026 54.4893Q221.636 54.5113 222.239 54.5988Q222.843 54.6863 223.433 54.8383Q224.024 54.9903 224.595 55.2049Q225.166 55.4196 225.71 55.6944Q226.255 55.9693 226.766 56.3011Q227.278 56.633 227.751 57.018Q228.224 57.403 228.653 57.8367Q229.082 58.2704 229.461 58.7477Q229.841 59.225 230.167 59.7405Q230.493 60.2559 230.762 60.8034Q231.031 61.3509 231.239 61.9242Q231.447 62.4975 231.592 63.0898Q231.738 63.6822 231.818 64.2867Q231.899 64.8913 231.914 65.501Q231.92 65.7487 231.915 65.9964Q231.911 66.2442 231.895 66.4915Q231.88 66.7388 231.853 66.9851Q231.827 67.2315 231.79 67.4764Q231.752 67.7214 231.704 67.9645Q231.657 68.2076 231.598 68.4484Q231.54 68.6892 231.471 68.9272Q231.402 69.1651 231.322 69.3998Q231.243 69.6346 231.153 69.8656Q231.064 70.0966 230.964 70.3235Q230.864 70.5504 230.755 70.7726Q230.645 70.9949 230.526 71.2122Q230.407 71.4295 230.279 71.6413Q230.15 71.8531 230.013 72.0592Q229.875 72.2652 229.728 72.4649Q229.582 72.6647 229.426 72.8578Q229.271 73.051 229.108 73.2372Q228.944 73.4233 228.773 73.6021Q228.601 73.781 228.422 73.9521Q228.243 74.1232 228.056 74.2863Q227.87 74.4494 227.676 74.6042Q227.483 74.759 227.283 74.9051Q227.083 75.0513 226.876 75.1885Q226.67 75.3257 226.458 75.4538Q226.246 75.5818 226.028 75.7005Q225.811 75.8191 225.588 75.9281Q225.366 76.0371 225.139 76.1362Q224.912 76.2353 224.68 76.3244Q224.449 76.4135 224.214 76.4923Q223.979 76.5712 223.741 76.6396Q223.503 76.7081 223.262 76.7661Q223.021 76.824 222.778 76.8714Q222.505 76.9246 222.229 76.9643Q221.953 77.004 221.676 77.0301Q221.399 77.0562 221.121 77.0686Q220.842 77.081 220.564 77.0796Q220.285 77.0783 220.007 77.0632Q219.729 77.0482 219.452 77.0194Q219.175 76.9907 218.9 76.9483Q218.625 76.906 218.352 76.8501Q218.079 76.7943 217.809 76.725Q217.539 76.6558 217.273 76.5734Q217.007 76.4909 216.746 76.3955Q216.484 76.3 216.228 76.1918Q215.971 76.0836 215.72 75.9629Q215.469 75.8421 215.224 75.7092Q214.98 75.5762 214.742 75.4314Q214.504 75.2865 214.273 75.1302Q214.043 74.9738 213.82 74.8062Q213.598 74.6387 213.384 74.4604Q213.17 74.2821 212.965 74.0934Q212.76 73.9048 212.565 73.7063Q212.37 73.5078 212.184 73.3Q211.999 73.0921 211.824 72.8753Q211.649 72.6586 211.485 72.4335Q211.321 72.2084 211.169 71.9754Q211.016 71.7425 210.875 71.5024Q210.734 71.2622 210.605 71.0154Q210.476 70.7686 210.359 70.5158Q210.242 70.2629 210.138 70.0046Q210.034 69.7463 209.943 69.4832Q209.852 69.22 209.774 68.9527Q209.695 68.6854 209.63 68.4146Q209.566 68.1438 209.514 67.8701Q209.462 67.5964 209.425 67.3205Q209.387 67.0446 209.362 66.7671Q209.338 66.4897 209.327 66.2114Q209.317 65.9331 209.32 65.6546Q209.323 65.3761 209.34 65.0981Q209.357 64.8201 209.387 64.5433Q209.418 64.2665 209.462 63.9915Q209.506 63.7165 209.563 63.444Q209.621 63.1715 209.692 62.9022Q209.763 62.6329 209.847 62.3674Q209.931 62.1019 210.028 61.8409Q210.125 61.5799 210.235 61.324Q210.345 61.068 210.468 60.8178Q210.59 60.5676 210.724 60.3238Q210.859 60.0799 211.005 59.843Q211.152 59.606 211.309 59.3766Q211.467 59.1471 211.636 58.9257Q211.805 58.7043 211.985 58.4915Q212.165 58.2787 212.355 58.0751Q212.544 57.8714 212.744 57.6773Q212.944 57.4832 213.153 57.2992Q213.362 57.1152 213.58 56.9417Q213.798 56.7682 214.024 56.6057Q214.25 56.4432 214.484 56.292Q214.718 56.1408 214.959 56.0013Q215.2 55.8618 215.448 55.7343Q215.695 55.6069 215.949 55.4918Q216.203 55.3767 216.461 55.2743Q216.72 55.1718 216.984 55.0822Q217.248 54.9927 217.516 54.9162Q217.783 54.8397 218.055 54.7765Q218.326 54.7133 218.6 54.6636Z"/>
	<path fill="#FCD36A" d="M54.5953 118.166Q54.869 118.135 55.1439 118.118Q55.4187 118.101 55.6941 118.098Q55.9695 118.094 56.2447 118.104Q56.5199 118.114 56.7943 118.137Q57.0688 118.16 57.3417 118.197Q57.6147 118.233 57.8855 118.283Q58.1563 118.333 58.4244 118.396Q58.6925 118.459 58.9572 118.535Q59.2218 118.612 59.4825 118.7Q59.7431 118.789 59.9991 118.891Q60.2551 118.993 60.5058 119.106Q60.7565 119.22 61.0014 119.347Q61.2462 119.473 61.4846 119.61Q61.723 119.748 61.9544 119.898Q62.1858 120.047 62.4096 120.207Q62.6334 120.368 62.8491 120.539Q63.0648 120.71 63.2719 120.892Q63.479 121.073 63.6769 121.265Q63.8749 121.456 64.0633 121.657Q64.2517 121.858 64.43 122.068Q64.6084 122.278 64.7762 122.496Q64.9441 122.714 65.1011 122.941Q65.2581 123.167 65.4039 123.401Q65.5497 123.634 65.6839 123.875Q65.818 124.115 65.9403 124.362Q66.0626 124.609 66.1727 124.861Q66.2827 125.114 66.3803 125.371Q66.478 125.629 66.5629 125.891Q66.6478 126.153 66.7198 126.419Q66.7918 126.684 66.8508 126.953Q66.9097 127.222 66.9555 127.494Q67.0012 127.766 67.0336 128.039Q67.066 128.312 67.085 128.587Q67.104 128.862 67.1096 129.137Q67.1152 129.413 67.1073 129.688Q67.0994 129.963 67.078 130.238Q67.0567 130.513 67.022 130.786Q66.9873 131.059 66.9393 131.33Q66.8912 131.601 66.83 131.87Q66.7688 132.138 66.6945 132.404Q66.6203 132.669 66.5331 132.93Q66.446 133.191 66.3462 133.448Q66.2464 133.705 66.1342 133.956Q66.022 134.208 65.8976 134.454Q65.7733 134.699 65.637 134.939Q65.5008 135.178 65.3531 135.41Q65.2053 135.643 65.0464 135.868Q64.8875 136.093 64.7177 136.31Q64.548 136.527 64.3679 136.735Q64.1878 136.943 63.9977 137.143Q63.8076 137.342 63.608 137.532Q63.4084 137.721 63.1998 137.901Q62.9911 138.081 62.774 138.25Q62.5568 138.42 62.3316 138.578Q62.1065 138.737 61.8738 138.884Q61.6411 139.032 61.4016 139.168Q61.162 139.303 60.916 139.427Q60.6701 139.551 60.4184 139.663Q60.1667 139.775 59.9099 139.874Q59.653 139.974 59.3916 140.06Q59.1302 140.147 58.8649 140.221Q58.5995 140.295 58.3309 140.356Q58.0623 140.417 57.791 140.464Q57.5198 140.512 57.2465 140.546Q56.9708 140.581 56.6938 140.602Q56.4167 140.623 56.139 140.63Q55.8612 140.637 55.5834 140.631Q55.3057 140.624 55.0285 140.604Q54.7514 140.584 54.4756 140.55Q54.1998 140.517 53.9261 140.469Q53.6523 140.422 53.3811 140.361Q53.11 140.301 52.8422 140.227Q52.5744 140.153 52.3105 140.066Q52.0467 139.979 51.7875 139.879Q51.5282 139.779 51.2743 139.666Q51.0203 139.553 50.7722 139.428Q50.524 139.303 50.2824 139.166Q50.0407 139.029 49.8061 138.88Q49.5715 138.731 49.3445 138.571Q49.1175 138.411 48.8987 138.239Q48.6799 138.068 48.4698 137.886Q48.2597 137.705 48.0588 137.513Q47.8579 137.321 47.6667 137.119Q47.4755 136.918 47.2945 136.707Q47.1135 136.496 46.9431 136.277Q46.7727 136.057 46.6133 135.829Q46.4539 135.602 46.3059 135.367Q46.1579 135.132 46.0217 134.889Q45.8855 134.647 45.7614 134.399Q45.6373 134.15 45.5256 133.896Q45.4139 133.641 45.3149 133.382Q45.2158 133.122 45.1297 132.858Q45.0436 132.594 44.9706 132.326Q44.8976 132.058 44.8379 131.786Q44.7782 131.515 44.7319 131.241Q44.6857 130.967 44.653 130.691Q44.6203 130.415 44.6013 130.138Q44.5822 129.861 44.5769 129.583Q44.5715 129.305 44.5798 129.027Q44.5882 128.75 44.6102 128.473Q44.6322 128.196 44.6678 127.92Q44.7034 127.645 44.7526 127.371Q44.8018 127.098 44.8644 126.827Q44.927 126.556 45.0028 126.289Q45.0787 126.022 45.1676 125.758Q45.2565 125.495 45.3583 125.237Q45.4601 124.978 45.5746 124.725Q45.689 124.472 45.8157 124.224Q45.9425 123.977 46.0813 123.736Q46.2201 123.496 46.3705 123.262Q46.521 123.029 46.6828 122.803Q46.8447 122.577 47.0174 122.359Q47.1902 122.142 47.3734 121.933Q47.5567 121.724 47.75 121.524Q47.9433 121.325 48.1463 121.135Q48.3492 120.945 48.5613 120.766Q48.7733 120.586 48.9939 120.417Q49.2146 120.248 49.4432 120.091Q49.6719 119.933 49.9081 119.786Q50.1443 119.64 50.3874 119.506Q50.6305 119.371 50.88 119.249Q51.1294 119.126 51.3846 119.016Q51.6398 118.906 51.9001 118.809Q52.1603 118.712 52.4251 118.628Q52.6899 118.543 52.9585 118.472Q53.227 118.401 53.4988 118.343Q53.7706 118.285 54.0449 118.241Q54.3192 118.197 54.5953 118.166Z"/>
	<path fill="#9F8BE8" d="M723.541 0L1024 0L1024 132.734Q1019.55 132.584 1015.09 132.343Q1010.64 132.103 1006.2 131.772Q1001.75 131.442 997.316 131.021Q992.878 130.601 988.45 130.09Q984.022 129.58 979.605 128.98Q975.189 128.38 970.785 127.69Q966.381 127.001 961.992 126.222Q957.603 125.444 953.231 124.576Q948.859 123.709 944.505 122.753Q940.152 121.797 935.818 120.754Q931.485 119.71 927.173 118.578Q922.862 117.447 918.574 116.228Q914.287 115.01 910.025 113.705Q905.763 112.399 901.528 111.008Q897.293 109.617 893.088 108.14Q888.882 106.663 884.707 105.101Q880.532 103.54 876.39 101.894Q872.248 100.247 868.14 98.5178Q864.032 96.7881 859.96 94.9755Q855.887 93.1629 851.853 91.2682Q847.818 89.3735 843.823 87.3974Q839.827 85.4213 835.873 83.3646Q831.918 81.3079 828.006 79.1715Q824.094 77.0351 820.226 74.8199Q816.358 72.6046 812.536 70.3115Q808.714 68.0183 804.939 65.6481Q801.164 63.278 797.438 60.8318Q793.711 58.3856 790.035 55.8644Q786.36 53.3432 782.736 50.748Q779.112 48.1529 775.541 45.4848Q771.97 42.8167 768.454 40.0768Q764.939 37.3369 761.479 34.5263C748.241 23.7267 735.144 12.5763 723.541 0Z"/>
	<path fill="#FCD36A" d="M957.747 47.9751Q958.363 47.8535 958.989 47.7995Q959.615 47.7455 960.242 47.7597Q960.87 47.7739 961.493 47.8562Q962.116 47.9384 962.726 48.0878Q963.336 48.2372 963.926 48.4518Q964.516 48.6665 965.079 48.944Q965.643 49.2215 966.173 49.5584Q966.703 49.8954 967.193 50.2879Q967.683 50.6804 968.128 51.1237Q968.573 51.5671 968.967 52.0561Q969.36 52.5451 969.699 53.074Q970.037 53.6028 970.317 54.1653Q970.596 54.7278 970.812 55.3172Q971.029 55.9067 971.18 56.5162Q971.331 57.1256 971.416 57.7479Q971.5 58.3702 971.516 58.9979Q971.522 59.2431 971.518 59.4884Q971.514 59.7336 971.5 59.9785Q971.485 60.2234 971.46 60.4674Q971.435 60.7114 971.4 60.9542Q971.365 61.1969 971.319 61.438Q971.274 61.679 971.218 61.9179Q971.162 62.1568 971.097 62.3931Q971.031 62.6294 970.955 62.8627Q970.879 63.0959 970.794 63.3258Q970.708 63.5556 970.612 63.7817Q970.517 64.0077 970.412 64.2294Q970.307 64.4512 970.193 64.6683Q970.079 64.8854 969.956 65.0974Q969.832 65.3094 969.7 65.5161Q969.568 65.7227 969.427 65.9235Q969.286 66.1243 969.137 66.3189Q968.988 66.5136 968.83 66.7017Q968.673 66.8898 968.508 67.0711Q968.342 67.2523 968.169 67.4264Q967.997 67.6005 967.817 67.767Q967.636 67.9336 967.449 68.0924Q967.262 68.2512 967.069 68.4018Q966.875 68.5525 966.676 68.6948Q966.476 68.8372 966.27 68.9709Q966.064 69.1046 965.853 69.2294Q965.642 69.3542 965.426 69.47Q965.21 69.5857 964.989 69.6922Q964.768 69.7987 964.542 69.8956Q964.317 69.9926 964.088 70.0799Q963.859 70.1672 963.626 70.2447Q963.393 70.3222 963.157 70.3897Q962.922 70.4573 962.683 70.5147Q962.311 70.6043 961.934 70.6691Q961.556 70.7339 961.176 70.7735Q960.795 70.8132 960.412 70.8275Q960.03 70.8418 959.647 70.8307Q959.265 70.8197 958.884 70.7833Q958.503 70.7469 958.125 70.6853Q957.747 70.6238 957.374 70.5373Q957.001 70.4509 956.635 70.3399Q956.269 70.2289 955.911 70.0939Q955.552 69.9589 955.204 69.8004Q954.855 69.642 954.518 69.4608Q954.181 69.2796 953.857 69.0765Q953.532 68.8733 953.222 68.6492Q952.912 68.425 952.617 68.1807Q952.322 67.9365 952.045 67.6732Q951.767 67.41 951.507 67.1289Q951.247 66.8478 951.007 66.5502Q950.766 66.2525 950.546 65.9395Q950.325 65.6266 950.126 65.2997Q949.927 64.9728 949.75 64.6334Q949.573 64.2941 949.419 63.9437Q949.265 63.5934 949.134 63.2336Q949.003 62.8738 948.897 62.5062Q948.79 62.1385 948.708 61.7646Q948.627 61.3907 948.57 61.0122Q948.513 60.6337 948.481 60.2523Q948.449 59.8708 948.443 59.4881Q948.437 59.1054 948.456 58.7231Q948.475 58.3408 948.519 57.9606Q948.563 57.5804 948.633 57.204Q948.702 56.8276 948.796 56.4566Q948.89 56.0856 949.009 55.7217Q949.128 55.3578 949.27 55.0025Q949.412 54.6472 949.578 54.3022Q949.744 53.9571 949.932 53.6238Q950.12 53.2905 950.33 52.9703Q950.54 52.6502 950.77 52.3447Q951.001 52.0392 951.251 51.7496Q951.501 51.4601 951.77 51.1877Q952.039 50.9154 952.326 50.6615Q952.612 50.4076 952.915 50.1732Q953.217 49.9388 953.535 49.725Q953.852 49.5112 954.183 49.3189Q954.514 49.1266 954.857 48.9567Q955.2 48.7867 955.554 48.6399Q955.907 48.493 956.269 48.3699Q956.632 48.2468 957.002 48.148Q957.371 48.0492 957.747 47.9751Z"/>
	<path fill="#FCD36A" d="M847.077 26.4391Q847.354 26.4274 847.632 26.4294Q847.91 26.4313 848.187 26.4468Q848.464 26.4624 848.74 26.4915Q849.016 26.5206 849.29 26.5632Q849.564 26.6058 849.836 26.6618Q850.108 26.7179 850.377 26.7871Q850.646 26.8564 850.911 26.9388Q851.176 27.0211 851.437 27.1164Q851.697 27.2117 851.953 27.3196Q852.209 27.4275 852.459 27.5479Q852.709 27.6682 852.953 27.8007Q853.197 27.9332 853.434 28.0774Q853.671 28.2217 853.901 28.3774Q854.131 28.5331 854.353 28.6999Q854.574 28.8667 854.788 29.0442Q855.001 29.2217 855.206 29.4094Q855.41 29.5971 855.605 29.7946Q855.8 29.9922 855.985 30.199Q856.171 30.4058 856.345 30.6215Q856.52 30.8372 856.684 31.0612Q856.848 31.2852 857.001 31.5169Q857.153 31.7487 857.295 31.9876Q857.436 32.2266 857.565 32.4722Q857.694 32.7178 857.812 32.9694Q857.929 33.2211 858.033 33.4782Q858.138 33.7353 858.23 33.9972Q858.322 34.2591 858.401 34.5252Q858.48 34.7913 858.546 35.0609Q858.612 35.3306 858.664 35.6031Q858.717 35.8757 858.756 36.1505Q858.795 36.4253 858.82 36.7017Q858.846 36.9781 858.858 37.2554Q858.87 37.5297 858.868 37.8042Q858.867 38.0787 858.852 38.3529Q858.838 38.627 858.809 38.9001Q858.781 39.1732 858.74 39.4446Q858.699 39.716 858.645 39.9851Q858.59 40.2542 858.523 40.5203Q858.456 40.7865 858.375 41.049Q858.295 41.3116 858.202 41.5699Q858.11 41.8283 858.004 42.0819Q857.899 42.3354 857.782 42.5836Q857.664 42.8317 857.535 43.0739Q857.406 43.3161 857.265 43.5517Q857.124 43.7873 856.972 44.0158Q856.82 44.2443 856.657 44.4652Q856.494 44.6861 856.32 44.8988Q856.146 45.1115 855.963 45.3155Q855.779 45.5195 855.586 45.7144Q855.392 45.9093 855.19 46.0945Q854.987 46.2798 854.776 46.455Q854.565 46.6303 854.345 46.7951Q854.125 46.9598 853.898 47.1138Q853.671 47.2677 853.436 47.4104Q853.202 47.5532 852.961 47.6844Q852.719 47.8156 852.472 47.9349Q852.225 48.0543 851.972 48.1615Q851.72 48.2687 851.462 48.3635Q851.204 48.4583 850.942 48.5406Q850.681 48.6228 850.415 48.6922Q850.149 48.7617 849.881 48.8181Q849.612 48.8746 849.341 48.918Q849.07 48.9613 848.797 48.9915Q848.524 49.0217 848.25 49.0386Q847.971 49.0558 847.692 49.0592Q847.412 49.0626 847.133 49.0522Q846.853 49.0419 846.575 49.0177Q846.296 48.9935 846.019 48.9556Q845.743 48.9178 845.468 48.8662Q845.193 48.8147 844.921 48.7497Q844.649 48.6847 844.381 48.6063Q844.113 48.528 843.849 48.4365Q843.585 48.345 843.325 48.2405Q843.066 48.1361 842.812 48.019Q842.558 47.9019 842.311 47.7724Q842.063 47.6429 841.822 47.5013Q841.581 47.3597 841.347 47.2065Q841.114 47.0532 840.888 46.8885Q840.662 46.7239 840.444 46.5483Q840.227 46.3727 840.018 46.1866Q839.81 46.0004 839.611 45.8042Q839.412 45.6081 839.223 45.4023Q839.033 45.1965 838.855 44.9816Q838.676 44.7668 838.508 44.5433Q838.34 44.3199 838.183 44.0884Q838.027 43.857 837.881 43.6181Q837.736 43.3792 837.603 43.1334Q837.47 42.8876 837.349 42.6356Q837.229 42.3835 837.12 42.1258Q837.012 41.8681 836.917 41.6054Q836.821 41.3426 836.739 41.0755Q836.657 40.8084 836.588 40.5375Q836.519 40.2667 836.463 39.9927Q836.408 39.7188 836.366 39.4424Q836.324 39.1661 836.296 38.888Q836.267 38.6099 836.253 38.3308Q836.239 38.0517 836.238 37.7722Q836.237 37.4927 836.25 37.2135Q836.263 36.9343 836.29 36.6561Q836.317 36.3779 836.358 36.1013Q836.398 35.8248 836.452 35.5506Q836.507 35.2764 836.574 35.0052Q836.642 34.734 836.723 34.4665Q836.804 34.199 836.898 33.9358Q836.992 33.6726 837.099 33.4144Q837.206 33.1562 837.326 32.9035Q837.445 32.6509 837.577 32.4045Q837.709 32.1581 837.853 31.9185Q837.997 31.6789 838.152 31.4467Q838.308 31.2144 838.475 30.9902Q838.642 30.766 838.819 30.5502Q838.997 30.3345 839.185 30.1278Q839.373 29.9211 839.572 29.7239Q839.77 29.5268 839.977 29.3396Q840.185 29.1525 840.401 28.9758Q840.618 28.7992 840.843 28.6334Q841.068 28.4677 841.301 28.3133Q841.534 28.1588 841.774 28.0161Q842.015 27.8733 842.262 27.7426Q842.509 27.6119 842.762 27.4936Q843.015 27.3752 843.274 27.2695Q843.533 27.1638 843.796 27.071Q844.06 26.9782 844.328 26.8985Q844.596 26.8189 844.867 26.7525Q845.139 26.6862 845.413 26.6333Q845.688 26.5804 845.964 26.5412Q846.241 26.5019 846.519 26.4764Q846.798 26.4509 847.077 26.4391Z"/>
	<path d="M446.743 0L456.949 0C465.451 16.5965 479.318 55.666 473.308 73.8247C472.561 76.0801 471.245 78.149 469.035 79.1885C464.978 81.0961 459.215 78.6796 455.35 77.0747C437.465 69.6477 419.802 56.1714 405.451 43.2025L398.301 48.113C404.183 68.8604 409.452 89.2796 407.161 111.094C406.759 114.932 406.425 119.412 404.434 122.804C403.278 124.773 401.596 126.058 399.346 126.515C390.759 128.261 374.027 116.473 366.953 111.434Q357.612 104.774 349.144 97.0334C345.65 93.8354 342.347 90.3116 338.716 87.2818C335.808 88.9423 332.907 90.5897 330.102 92.4219C334.687 107.455 341.893 152.704 334.999 165.826C333.888 167.94 332.193 169.469 329.864 170.101C324.229 171.631 316.677 167.354 312.011 164.447C297.686 155.526 278.609 138.932 269.544 124.742L261.754 128.832C263.953 144.269 268.598 191.837 259.131 204.071C257.959 205.586 256.441 206.6 254.508 206.784C247.052 207.494 231.852 194.263 226.424 189.389C216.042 180.068 205.441 168.097 199.069 155.692C194.97 157.125 190.811 158.473 186.813 160.169C189.041 174.779 187.724 222.648 179.354 233.392C178.338 234.697 177.113 235.423 175.443 235.602C169.2 236.271 157.804 225.516 153.623 221.375C141.568 209.434 131.164 195.09 122.717 180.402Q117.748 181.858 112.746 183.194C112.074 198.124 105.252 245.015 94.8315 254.893C93.6482 256.015 92.4557 256.536 90.7927 256.486C84.7032 256.306 78.4883 248.644 74.937 244.281C63.1071 229.75 55.1491 213.642 47.828 196.535C31.9157 199.155 16.0814 201.722 0 203.091L0 196.632C19.1248 194.987 38.3383 191.803 57.214 188.342Q68.1885 186.241 79.1036 183.851Q90.0187 181.461 100.867 178.784Q111.715 176.106 122.489 173.143Q133.262 170.18 143.954 166.933Q154.646 163.687 165.248 160.159Q175.85 156.631 186.355 152.824Q196.86 149.017 207.261 144.934Q217.662 140.851 227.952 136.494Q238.241 132.138 248.412 127.511Q258.583 122.885 268.628 117.991Q278.673 113.097 288.585 107.94Q298.498 102.782 308.27 97.3647Q318.043 91.9472 327.669 86.2735Q337.295 80.5997 346.768 74.6737Q356.241 68.7476 365.553 62.5734Q374.866 56.3992 384.013 49.9811C405.8 34.6742 427.957 19.0083 446.743 0Z"/>
	<path fill="#FF7C77" d="M324.993 95.0743C325.151 95.3005 325.347 95.5046 325.468 95.7528C326.299 97.4529 326.56 100.803 326.929 102.759C329.591 116.907 333.756 148.375 329.808 161.694C329.375 163.158 329.094 163.652 327.75 164.343C319.208 163.767 305.442 152.392 298.963 146.855C290.673 139.617 281.167 131.621 275.334 122.244C282.281 118.126 289.856 114.762 297.015 110.992Q311.22 103.412 324.993 95.0743Z"/>
	<path fill="#FCD36A" d="M452.256 3.45984C452.383 3.63123 452.526 3.79225 452.639 3.97399C460.219 16.2228 471.389 57.2528 468.005 70.5733C467.612 72.1173 467.027 72.9842 465.703 73.8337C458.57 73.585 446.333 65.9601 440.141 62.038C429.643 55.2987 419.337 47.6467 410.47 38.855C416.987 33.1327 424.043 28.0797 430.785 22.631C438.285 16.5684 445.296 10.1327 452.256 3.45984Z"/>
	<path fill="#8351C5" d="M392.3 52.4075C392.498 52.6225 392.73 52.811 392.895 53.0525C394.074 54.7787 394.719 58.6267 395.332 60.7868C400.19 77.9081 403.792 98.0932 400.554 115.761C400.201 117.692 399.888 119.324 398.224 120.478C390.854 120.915 375.421 109.852 369.329 105.431C360.39 98.8775 352.321 91.7054 344.517 83.8468C361.194 74.7748 376.837 63.3958 392.3 52.4075Z"/>
	<path fill="#8351C5" d="M254.306 131.972L255.166 132.101C255.259 132.272 255.366 132.436 255.445 132.614C259.119 140.956 258.377 177.139 257.24 187.056C256.677 191.973 255.819 196.611 254.07 201.247C244.427 196.567 236.3 189.91 228.626 182.504C220.252 174.102 210.011 163.877 205.339 152.935C222 146.657 238.094 139.301 254.306 131.972Z"/>
	<path fill="#FCD36A" d="M181.017 162.082C181.148 162.214 181.254 162.373 181.333 162.541C182.374 164.76 181.724 170.407 181.714 172.961C181.644 191.452 182.063 212.349 174.897 229.655C165.151 224.224 157.355 217.132 149.829 209.001C141.855 199.632 135.177 189.026 128.539 178.678C135.238 176.337 142.183 174.522 148.966 172.421C159.686 169.1 170.346 165.558 181.017 162.082Z"/>
	<path fill="#FF7C77" d="M104.355 184.553C105.054 184.484 105.381 184.537 106.048 184.69C106.287 185.196 106.365 185.291 106.474 185.924C106.978 188.876 105.993 192.763 105.625 195.732C103.647 211.7 99.1344 237.565 90.6853 251.068C83.8223 246.507 78.8225 239.823 74.0025 233.267C66.0004 221.492 59.5221 208.645 53.5765 195.737C59.4985 194.196 65.7527 193.396 71.7635 192.185Q88.1866 188.913 104.355 184.553Z"/>
	<path d="M713.097 0L723.541 0C735.144 12.5763 748.241 23.7267 761.479 34.5263Q764.939 37.3369 768.454 40.0768Q771.97 42.8167 775.541 45.4848Q779.112 48.1529 782.736 50.748Q786.36 53.3432 790.036 55.8644Q793.711 58.3856 797.438 60.8318Q801.164 63.278 804.939 65.6481Q808.714 68.0183 812.536 70.3115Q816.358 72.6046 820.226 74.8199Q824.094 77.0351 828.006 79.1715Q831.918 81.3079 835.873 83.3646Q839.827 85.4212 843.823 87.3974Q847.818 89.3735 851.853 91.2682Q855.887 93.1629 859.96 94.9755Q864.032 96.7881 868.14 98.5177Q872.248 100.247 876.39 101.893Q880.532 103.54 884.707 105.101Q888.882 106.663 893.088 108.14Q897.293 109.617 901.528 111.008Q905.763 112.399 910.025 113.705Q914.287 115.01 918.574 116.228Q922.862 117.447 927.173 118.578Q931.485 119.71 935.818 120.754Q940.152 121.797 944.505 122.753Q948.859 123.709 953.231 124.576Q957.603 125.444 961.992 126.222Q966.381 127.001 970.785 127.69Q975.189 128.38 979.605 128.98Q984.022 129.58 988.45 130.09Q992.878 130.601 997.316 131.021Q1001.75 131.442 1006.2 131.772Q1010.64 132.103 1015.09 132.343Q1019.55 132.584 1024 132.734L1024 139.02C1017.49 138.88 1010.98 138.586 1004.47 138.363C999.637 150.096 994.323 161.439 987.184 171.981C983.753 177.048 975.589 190.026 969.227 190.546C967.823 190.661 966.605 189.884 965.646 188.943C959.084 182.5 952.832 157.82 951.164 148.334C950.105 142.311 949.534 136.341 949.294 130.238C945.803 129.363 942.286 128.749 938.741 128.136C933.093 137.458 927.067 146.117 919.63 154.147C914.68 159.491 899.736 174.855 892.635 174.786C891.222 174.772 890.131 174.175 889.232 173.108C883.721 166.571 882.401 140.827 882.416 131.907C882.427 125.183 883.002 118.521 883.589 111.829L873.689 107.8C866.627 117.279 857.02 125.957 847.447 132.825C842.564 136.33 826.808 146.619 820.88 145.084C819.564 144.743 818.653 143.775 818.007 142.626C811.691 131.383 818.065 95.7124 821.507 82.7175C818.472 80.8056 815.304 79.0677 812.2 77.2685C801.23 87.3713 785.458 95.8668 771.616 101.37C767.038 103.191 757.17 107.65 752.429 105.091C751.086 104.366 750.303 103.146 749.827 101.741C748.691 98.3973 749.325 94.2757 749.709 90.8404Q750.076 87.8194 750.578 84.818Q751.08 81.8165 751.717 78.8407Q752.354 75.8649 753.124 72.9207Q753.894 69.9765 754.795 67.07Q755.697 64.1634 756.728 61.3003Q757.76 58.4372 758.919 55.6235Q760.078 52.8096 761.362 50.0508Q762.647 47.292 764.054 44.5937L756.121 38.7644C751.065 41.5042 746.021 44.2969 740.869 46.853C733.683 50.4184 698.47 64.86 691.853 61.7587C690.707 61.2213 690.252 60.1613 689.953 59.0063C688.156 52.0778 698.674 27.0163 702.246 19.7503C705.549 13.0325 709.425 6.525 713.097 0Z"/>
	<path fill="#FFB577" d="M718.185 3.74651C723.61 8.18518 728.441 13.752 733.461 18.6703C739.081 24.1759 745.114 29.2867 751.043 34.4552C741.791 39.7971 732.39 44.15 722.446 48.0235C713.919 51.2664 704.945 54.2756 695.944 55.8405C698.449 39.6159 708.584 17.0336 718.185 3.74651Z"/>
	<path fill="#9F8BE8" d="M768.984 48.331C781.076 57.5842 794.098 65.7193 806.746 74.1925C799.461 80.0443 791.77 84.9169 783.558 89.3391C774.777 93.9246 765.231 97.8789 755.518 99.8529C755.176 82.8524 761.024 63.1831 768.984 48.331Z"/>
	<path fill="#8351C5" d="M889.479 114.117C903.766 118.768 917.92 123.15 932.483 126.88C927.801 135.592 920.879 143.343 914.25 150.642C908.188 157.44 901.104 163.063 893.359 167.81C888.521 150.741 886.897 131.688 889.479 114.117Z"/>
	<path fill="#FF7C77" d="M827.331 86.5274C833.57 89.1218 839.583 92.7366 845.7 95.6661C852.798 99.066 860.141 101.892 867.259 105.24C862.591 113.197 854.571 119.372 847.417 125.016C840.037 130.409 831.556 136.631 822.658 138.996C820.153 126.646 822.026 98.1455 827.331 86.5274Z"/>
	<path fill="#FCD36A" d="M955.487 131.327C969.682 134.211 983.621 136.345 997.993 138.144C993.99 148.731 988.472 158.786 982.33 168.261C978.433 173.823 974.352 179.129 969.737 184.122C961.809 168.691 955.276 148.86 955.487 131.327Z"/>
	<path d="M77.9522 605.348C65.9759 585.142 50.3783 561.198 51.3739 536.769C51.8222 525.768 56.4351 515.433 64.6332 508.022Q65.2012 507.515 65.7905 507.032Q66.3797 506.55 66.9892 506.093Q67.5986 505.636 68.2271 505.206Q68.8555 504.776 69.5019 504.373Q70.1482 503.97 70.8113 503.596Q71.4743 503.221 72.1529 502.875Q72.8314 502.529 73.5241 502.213Q74.2169 501.896 74.9226 501.61Q75.6282 501.324 76.3456 501.068Q77.0629 500.812 77.7906 500.587Q78.5182 500.362 79.2548 500.169Q79.9915 499.976 80.7357 499.814Q81.48 499.652 82.2305 499.523Q82.981 499.394 83.7363 499.296Q84.4917 499.199 85.2505 499.135Q86.0094 499.07 86.7703 499.038C90.6134 498.891 94.5386 499.193 98.3616 498.746C105.1 497.957 111.36 496.053 118.234 496.416Q119.418 496.469 120.598 496.582Q121.779 496.694 122.952 496.865Q124.125 497.035 125.288 497.264Q126.451 497.493 127.602 497.78Q128.752 498.066 129.887 498.41Q131.021 498.753 132.137 499.153Q133.254 499.552 134.348 500.007Q135.443 500.461 136.514 500.97Q137.585 501.478 138.63 502.039Q139.674 502.6 140.689 503.212Q141.704 503.825 142.688 504.487Q143.671 505.149 144.62 505.859Q145.569 506.569 146.482 507.326Q147.395 508.082 148.269 508.883Q149.143 509.684 149.976 510.528Q150.809 511.371 151.599 512.255C161.512 523.319 166.32 537.192 165.481 551.912C163.903 552.317 162.291 552.589 160.692 552.895C160.01 554.479 159.422 556.475 157.999 557.51C156.721 557.799 156.225 557.694 155.021 557.193C147.904 553.267 139.861 550.786 132.493 547.312C133.892 552.804 134.165 558.06 131.223 563.191C130.123 565.108 128.56 566.741 126.332 567.235C124.489 567.643 122.573 567.437 121.026 566.298C119.061 564.851 117.899 562.75 115.165 562.987C112.416 563.226 110.186 565.175 108.567 567.274C106.913 569.421 105.988 571.818 106.458 574.548C107.795 582.305 116.601 586.838 111.189 595.266C106.137 603.134 93.7686 607.699 85.0098 609.359C82.3332 609.866 78.7642 610.616 76.4169 608.881C75.631 608.3 75.022 607.571 74.3992 606.83Q76.1674 606.069 77.9522 605.348Z"/>
	<path fill="#FEFEFE" d="M77.9522 605.348C86.8009 604.127 98.8873 601.79 105.469 595.189C111.206 589.435 101.602 579.593 101.864 572.512C102.032 567.964 104.494 563.896 107.776 560.86C116.257 553.015 119.508 561.971 125.419 562.294C133.798 558.243 124.195 545.186 126.386 540.261C127.842 539.94 128.578 540.126 129.967 540.67C134.233 542.343 138.275 544.883 142.476 546.76C148.298 549.36 154.567 551.16 160.692 552.895C160.01 554.479 159.422 556.475 157.999 557.51C156.721 557.799 156.225 557.694 155.021 557.193C147.904 553.267 139.861 550.786 132.493 547.312C133.892 552.804 134.165 558.06 131.223 563.191C130.123 565.108 128.56 566.741 126.332 567.235C124.489 567.643 122.573 567.437 121.026 566.298C119.061 564.851 117.899 562.75 115.165 562.987C112.416 563.226 110.186 565.175 108.567 567.274C106.913 569.421 105.988 571.818 106.458 574.548C107.795 582.305 116.601 586.838 111.189 595.266C106.137 603.134 93.7686 607.699 85.0098 609.359C82.3332 609.866 78.7642 610.616 76.4169 608.881C75.631 608.3 75.022 607.571 74.3992 606.83Q76.1674 606.069 77.9522 605.348Z"/>
	<path d="M642.957 0L648.967 0L698.864 0L709.157 0C703.276 4.13735 696.915 8.13733 690.304 10.9742C679.106 15.7799 656.099 20.5145 644.13 19.212C642.091 18.9902 640.513 18.5954 639.188 16.9499C637.437 11.4261 640.918 5.1069 642.957 0Z"/>
	<path fill="#8351C5" d="M648.967 0L698.864 0C682.126 9.25713 663.595 12.1651 644.738 13.1741C645.838 8.68827 647.443 4.35432 648.967 0Z"/>
	<path fill="#8351C5" d="M485.809 0L539.767 0C540.991 6.51695 544.045 18.8482 542.206 24.9349C541.831 26.1766 541.66 26.2574 540.589 26.8477C537.155 26.8243 533.763 25.2792 530.577 24.0903C514.435 18.0663 500.028 9.62732 485.809 0Z"/>
	<path d="M476.976 0L485.809 0C500.028 9.62732 514.435 18.0663 530.577 24.0903C533.763 25.2792 537.155 26.8243 540.589 26.8477C541.66 26.2574 541.831 26.1766 542.206 24.9349C544.045 18.8482 540.991 6.51695 539.767 0L546.23 0C547.067 4.21831 547.858 8.46191 548.383 12.7317C549.059 18.2238 549.961 27.1832 546.163 31.678C545.06 32.9836 543.645 33.4915 541.99 33.6164C538.126 33.9079 533.715 32.2107 530.119 30.926C511.157 24.1534 492.411 12.881 476.976 0Z"/>
	<path fill="#FCD36A" d="M946.945 233.989Q947.322 233.908 947.703 233.853Q948.085 233.797 948.469 233.767Q948.853 233.736 949.239 233.731Q949.624 233.726 950.009 233.747Q950.394 233.768 950.776 233.814Q951.159 233.859 951.538 233.931Q951.917 234.002 952.29 234.098Q952.663 234.194 953.03 234.314Q953.396 234.434 953.753 234.579Q954.11 234.723 954.458 234.891Q954.805 235.058 955.14 235.249Q955.475 235.439 955.797 235.651Q956.119 235.863 956.426 236.095Q956.733 236.328 957.025 236.58Q957.316 236.833 957.59 237.104Q957.864 237.375 958.119 237.664Q958.374 237.953 958.61 238.258Q958.846 238.562 959.061 238.882Q959.276 239.202 959.47 239.535Q959.663 239.869 959.834 240.214Q960.005 240.559 960.153 240.915Q960.301 241.271 960.425 241.636Q960.549 242.001 960.649 242.373Q960.748 242.746 960.823 243.124Q960.898 243.502 960.948 243.884Q960.997 244.266 961.022 244.651Q961.046 245.035 961.045 245.421Q961.044 245.806 961.018 246.191Q960.991 246.575 960.939 246.957Q960.887 247.339 960.81 247.717Q960.734 248.094 960.632 248.466Q960.53 248.838 960.404 249.202Q960.278 249.566 960.128 249.921Q959.978 250.276 959.805 250.621Q959.632 250.965 959.437 251.298Q959.242 251.63 959.025 251.948Q958.808 252.267 958.571 252.571Q958.333 252.874 958.076 253.162Q957.819 253.449 957.544 253.719Q957.269 253.988 956.976 254.239Q956.683 254.49 956.375 254.721Q956.066 254.952 955.743 255.162Q955.42 255.372 955.084 255.561Q954.748 255.749 954.4 255.915Q954.052 256.081 953.694 256.223Q953.335 256.365 952.969 256.484Q952.602 256.602 952.228 256.696Q951.854 256.79 951.475 256.859Q951.196 256.91 950.915 256.947Q950.634 256.984 950.352 257.008Q950.069 257.031 949.786 257.041Q949.503 257.05 949.22 257.046Q948.936 257.042 948.653 257.024Q948.37 257.007 948.089 256.975Q947.807 256.944 947.528 256.898Q947.248 256.853 946.971 256.794Q946.693 256.736 946.419 256.664Q946.145 256.591 945.875 256.506Q945.605 256.421 945.339 256.322Q945.073 256.224 944.812 256.113Q944.552 256.002 944.297 255.878Q944.042 255.754 943.793 255.618Q943.545 255.482 943.303 255.334Q943.061 255.186 942.827 255.027Q942.593 254.868 942.366 254.697Q942.14 254.526 941.922 254.345Q941.705 254.163 941.496 253.972Q941.287 253.78 941.088 253.578Q940.889 253.376 940.7 253.165Q940.511 252.954 940.333 252.734Q940.154 252.514 939.987 252.285Q939.819 252.057 939.663 251.821Q939.506 251.584 939.362 251.341Q939.217 251.097 939.084 250.846Q938.952 250.596 938.831 250.34Q938.711 250.083 938.603 249.821Q938.495 249.559 938.4 249.292Q938.306 249.025 938.224 248.753Q938.142 248.482 938.074 248.207Q938.005 247.932 937.95 247.654Q937.895 247.376 937.853 247.096Q937.812 246.815 937.784 246.533Q937.756 246.251 937.742 245.968Q937.728 245.685 937.728 245.402Q937.727 245.118 937.741 244.835Q937.754 244.552 937.782 244.27Q937.809 243.988 937.85 243.708Q937.891 243.427 937.945 243.149Q938 242.871 938.067 242.596Q938.135 242.321 938.216 242.049Q938.298 241.778 938.392 241.511Q938.486 241.243 938.593 240.981Q938.7 240.719 938.82 240.462Q938.94 240.205 939.072 239.954Q939.204 239.704 939.348 239.46Q939.493 239.216 939.648 238.979Q939.804 238.742 939.971 238.513Q940.138 238.285 940.316 238.064Q940.494 237.844 940.683 237.632Q940.871 237.421 941.07 237.218Q941.269 237.016 941.477 236.824Q941.685 236.632 941.902 236.45Q942.12 236.268 942.346 236.097Q942.571 235.926 942.805 235.766Q943.039 235.606 943.281 235.457Q943.522 235.309 943.771 235.172Q944.019 235.036 944.273 234.912Q944.528 234.787 944.789 234.675Q945.049 234.564 945.315 234.465Q945.58 234.366 945.85 234.28Q946.12 234.194 946.394 234.121Q946.668 234.048 946.945 233.989Z"/>
	<path fill="#FCD36A" d="M512.65 65.7956Q512.923 65.7376 513.199 65.6931Q513.475 65.6486 513.753 65.6178Q514.031 65.587 514.31 65.5698Q514.589 65.5527 514.868 65.5493Q515.147 65.546 515.427 65.5563Q515.706 65.5667 515.984 65.5909Q516.263 65.615 516.54 65.6528Q516.817 65.6906 517.091 65.7419Q517.366 65.7933 517.638 65.8582Q517.91 65.923 518.178 66.0012Q518.446 66.0793 518.71 66.1706Q518.974 66.2618 519.234 66.366Q519.493 66.4702 519.747 66.5869Q520.001 66.7037 520.249 66.8329Q520.497 66.962 520.738 67.1032Q520.979 67.2444 521.213 67.3973Q521.447 67.5502 521.673 67.7145Q521.899 67.8787 522.117 68.0538Q522.334 68.229 522.543 68.4147Q522.752 68.6003 522.952 68.7961Q523.151 68.9918 523.341 69.1971Q523.53 69.4024 523.709 69.6168Q523.889 69.8312 524.057 70.0542Q524.226 70.2771 524.383 70.5081Q524.54 70.7391 524.686 70.9775Q524.832 71.216 524.966 71.4613Q525.099 71.7066 525.221 71.9582Q525.342 72.2099 525.452 72.4672Q525.561 72.7245 525.657 72.9868Q525.753 73.2492 525.836 73.516Q525.92 73.7827 525.99 74.0533Q526.059 74.3238 526.116 74.5975Q526.173 74.8712 526.216 75.1473Q526.259 75.4234 526.288 75.7014Q526.317 75.9793 526.333 76.2583Q526.349 76.5373 526.351 76.8168Q526.353 77.0963 526.341 77.3755Q526.329 77.6547 526.303 77.933Q526.278 78.2113 526.238 78.488Q526.199 78.7647 526.146 79.0391Q526.094 79.3135 526.027 79.585Q525.961 79.8565 525.881 80.1244Q525.802 80.3923 525.709 80.656Q525.617 80.9196 525.511 81.1784Q525.406 81.4372 525.287 81.6904Q525.169 81.9437 525.039 82.1908Q524.908 82.438 524.766 82.6784Q524.623 82.9188 524.469 83.152Q524.315 83.3851 524.15 83.6103Q523.984 83.8356 523.808 84.0524Q523.632 84.2692 523.445 84.4771Q523.258 84.685 523.061 84.8834Q522.865 85.0819 522.658 85.2704Q522.452 85.4589 522.237 85.637Q522.021 85.8151 521.797 85.9824Q521.574 86.1497 521.342 86.3058Q521.11 86.4619 520.871 86.6064Q520.631 86.7508 520.385 86.8834Q520.139 87.0159 519.887 87.1361Q519.635 87.2564 519.377 87.3641Q519.119 87.4718 518.856 87.5666Q518.593 87.6615 518.326 87.7433Q518.059 87.8251 517.788 87.8936Q517.517 87.9622 517.243 88.0173Q516.971 88.0721 516.696 88.1134Q516.422 88.1548 516.146 88.1827Q515.87 88.2106 515.592 88.225Q515.315 88.2394 515.037 88.2402Q514.76 88.241 514.483 88.2282Q514.205 88.2154 513.929 88.1891Q513.653 88.1627 513.378 88.1229Q513.103 88.0831 512.831 88.0299Q512.558 87.9767 512.289 87.9103Q512.019 87.8438 511.753 87.7642Q511.487 87.6847 511.226 87.5922Q510.964 87.4998 510.707 87.3946Q510.45 87.2894 510.199 87.1718Q509.947 87.0543 509.702 86.9245Q509.456 86.7948 509.218 86.6532Q508.979 86.5116 508.747 86.3585Q508.516 86.2054 508.292 86.0411Q508.068 85.8769 507.853 85.7019Q507.637 85.5269 507.431 85.3416Q507.224 85.1562 507.026 84.961Q506.829 84.7658 506.642 84.5612Q506.454 84.3566 506.277 84.143Q506.099 83.9295 505.933 83.7075Q505.766 83.4856 505.61 83.2557Q505.455 83.0259 505.31 82.7887Q505.166 82.5515 505.034 82.3075Q504.901 82.0636 504.781 81.8134Q504.661 81.5633 504.553 81.3075Q504.445 81.0518 504.349 80.7911Q504.254 80.5304 504.172 80.2653Q504.089 80.0003 504.02 79.7315Q503.95 79.4628 503.894 79.1909Q503.838 78.9191 503.795 78.6448Q503.752 78.3705 503.723 78.0945Q503.693 77.8185 503.678 77.5413Q503.662 77.2642 503.66 76.9866Q503.657 76.709 503.669 76.4317Q503.68 76.1543 503.705 75.8778Q503.73 75.6013 503.768 75.3264Q503.806 75.0515 503.858 74.7788Q503.91 74.506 503.975 74.2362Q504.04 73.9663 504.118 73.6999Q504.196 73.4336 504.287 73.1714Q504.378 72.9091 504.482 72.6517Q504.586 72.3942 504.702 72.1422Q504.819 71.8901 504.947 71.644Q505.076 71.3979 505.216 71.1584Q505.356 70.9189 505.508 70.6866Q505.66 70.4542 505.823 70.2296Q505.986 70.0049 506.16 69.7885Q506.334 69.5721 506.518 69.3645Q506.702 69.1568 506.896 68.9584Q507.091 68.76 507.294 68.5714Q507.498 68.3827 507.711 68.2043Q507.923 68.0258 508.144 67.8579Q508.365 67.6901 508.594 67.5332Q508.823 67.3764 509.06 67.2309Q509.296 67.0855 509.539 66.9517Q509.783 66.818 510.032 66.6964Q510.282 66.5747 510.537 66.4654Q510.792 66.356 511.052 66.2593Q511.312 66.1626 511.577 66.0788Q511.842 65.9949 512.11 65.924Q512.379 65.8532 512.65 65.7956Z"/>
	<path fill="#FCD36A" d="M843.09 176.208Q843.677 176.14 844.267 176.133Q844.858 176.126 845.446 176.181Q846.034 176.236 846.613 176.352Q847.192 176.468 847.755 176.643Q848.319 176.819 848.862 177.052Q849.404 177.286 849.919 177.575Q850.434 177.863 850.917 178.204Q851.399 178.545 851.843 178.934Q852.287 179.323 852.688 179.757Q853.089 180.19 853.443 180.663Q853.797 181.135 854.099 181.643Q854.402 182.15 854.65 182.685Q854.898 183.221 855.089 183.78Q855.28 184.339 855.411 184.915Q855.543 185.49 855.614 186.076Q855.685 186.663 855.694 187.253Q855.698 187.504 855.691 187.755Q855.684 188.005 855.665 188.255Q855.647 188.506 855.618 188.755Q855.588 189.004 855.548 189.251Q855.508 189.499 855.456 189.744Q855.405 189.99 855.343 190.233Q855.281 190.476 855.208 190.716Q855.135 190.956 855.051 191.192Q854.968 191.429 854.874 191.661Q854.78 191.894 854.676 192.122Q854.572 192.35 854.458 192.574Q854.344 192.797 854.22 193.015Q854.096 193.233 853.962 193.446Q853.829 193.658 853.686 193.864Q853.543 194.07 853.392 194.27Q853.24 194.47 853.079 194.662Q852.919 194.855 852.75 195.041Q852.581 195.226 852.404 195.404Q852.227 195.582 852.042 195.751Q851.858 195.921 851.666 196.082Q851.474 196.244 851.275 196.396Q851.076 196.549 850.87 196.693Q850.665 196.837 850.453 196.971Q850.241 197.106 850.024 197.23Q849.806 197.355 849.583 197.471Q849.361 197.586 849.133 197.691Q848.905 197.796 848.673 197.891Q848.441 197.986 848.205 198.07Q847.969 198.155 847.729 198.229Q847.489 198.303 847.247 198.366Q847.004 198.43 846.759 198.482Q846.513 198.535 846.266 198.576Q845.895 198.638 845.521 198.676Q845.147 198.713 844.772 198.726Q844.396 198.738 844.02 198.726Q843.645 198.713 843.271 198.676Q842.897 198.638 842.526 198.576Q842.155 198.514 841.789 198.427Q841.424 198.341 841.065 198.23Q840.705 198.119 840.354 197.985Q840.003 197.85 839.662 197.693Q839.321 197.535 838.991 197.355Q838.661 197.176 838.343 196.974Q838.026 196.773 837.723 196.551Q837.419 196.329 837.131 196.087Q836.843 195.846 836.572 195.585Q836.301 195.325 836.048 195.048Q835.794 194.77 835.56 194.476Q835.326 194.182 835.111 193.873Q834.897 193.564 834.704 193.242Q834.511 192.92 834.339 192.585Q834.168 192.251 834.019 191.906Q833.87 191.56 833.745 191.206Q833.619 190.852 833.517 190.49Q833.416 190.128 833.338 189.761Q833.261 189.393 833.208 189.021Q833.155 188.648 833.127 188.274Q833.099 187.899 833.096 187.523Q833.093 187.147 833.115 186.772Q833.137 186.397 833.184 186.024Q833.23 185.651 833.302 185.282Q833.373 184.913 833.469 184.549Q833.565 184.186 833.685 183.83Q833.805 183.474 833.948 183.126Q834.091 182.779 834.257 182.441Q834.423 182.104 834.611 181.779Q834.799 181.453 835.009 181.141Q835.218 180.829 835.448 180.531Q835.677 180.233 835.926 179.952Q836.175 179.67 836.442 179.405Q836.709 179.141 836.993 178.895Q837.277 178.648 837.577 178.422Q837.876 178.195 838.19 177.988Q838.505 177.782 838.832 177.597Q839.159 177.412 839.498 177.249Q839.836 177.086 840.185 176.946Q840.534 176.806 840.891 176.689Q841.249 176.573 841.613 176.48Q841.977 176.388 842.347 176.32Q842.717 176.251 843.09 176.208Z"/>
	<path fill="#FCD36A" d="M45.0264 268.163Q45.5937 268.128 46.1617 268.151Q46.7296 268.174 47.2923 268.254Q47.855 268.335 48.4067 268.472Q48.9583 268.609 49.4932 268.801Q50.028 268.994 50.5406 269.239Q51.0532 269.485 51.5383 269.781Q52.0233 270.078 52.4758 270.422Q52.9283 270.766 53.3435 271.154Q53.7588 271.542 54.1325 271.97Q54.5062 272.399 54.8346 272.863Q55.163 273.327 55.4426 273.822Q55.7222 274.316 55.9501 274.837Q56.178 275.358 56.352 275.899Q56.5259 276.44 56.6441 276.996Q56.7622 277.552 56.8233 278.117Q56.8844 278.683 56.8879 279.251Q56.8895 279.51 56.879 279.769Q56.8686 280.028 56.8461 280.287Q56.8236 280.545 56.7892 280.802Q56.7548 281.059 56.7085 281.314Q56.6622 281.569 56.6042 281.822Q56.5461 282.075 56.4764 282.324Q56.4066 282.574 56.3254 282.82Q56.2442 283.067 56.1516 283.309Q56.0591 283.551 55.9554 283.789Q55.8517 284.026 55.7371 284.259Q55.6225 284.491 55.4972 284.718Q55.3719 284.945 55.2363 285.166Q55.1006 285.387 54.9549 285.602Q54.8091 285.816 54.6536 286.024Q54.498 286.231 54.333 286.431Q54.168 286.631 53.9939 286.823Q53.8198 287.016 53.637 287.199Q53.4542 287.383 53.263 287.558Q53.0719 287.734 52.8728 287.9Q52.6738 288.066 52.4672 288.223Q52.2606 288.379 52.047 288.526Q51.8334 288.673 51.6133 288.81Q51.3931 288.947 51.1668 289.074Q50.9405 289.2 50.7085 289.316Q50.4766 289.432 50.2396 289.537Q50.0025 289.642 49.7609 289.736Q49.5192 289.83 49.2734 289.913Q49.0276 289.995 48.7783 290.067Q48.529 290.138 48.2766 290.197Q48.0243 290.257 47.7694 290.305Q47.5146 290.352 47.2578 290.388Q47.001 290.424 46.7428 290.448Q46.3749 290.482 46.0055 290.492Q45.6361 290.502 45.2668 290.487Q44.8976 290.472 44.5301 290.433Q44.1627 290.394 43.7986 290.331Q43.4345 290.268 43.0754 290.181Q42.7163 290.093 42.3637 289.983Q42.0112 289.872 41.6667 289.738Q41.3222 289.605 40.9873 289.449Q40.6524 289.292 40.3285 289.114Q40.0047 288.936 39.6933 288.738Q39.3819 288.539 39.0843 288.319Q38.7867 288.1 38.5043 287.862Q38.2218 287.624 37.9557 287.367Q37.6896 287.111 37.441 286.838Q37.1924 286.564 36.9625 286.275Q36.7325 285.986 36.5221 285.682Q36.3117 285.378 36.1219 285.061Q35.932 284.744 35.7635 284.415Q35.5951 284.086 35.4487 283.747Q35.3023 283.408 35.1786 283.06Q35.0549 282.711 34.9545 282.356Q34.8541 282 34.7774 281.639Q34.7007 281.277 34.6481 280.911Q34.5954 280.546 34.567 280.177Q34.5387 279.809 34.5347 279.439Q34.5307 279.07 34.5511 278.701Q34.5716 278.332 34.6163 277.965Q34.6611 277.598 34.73 277.235Q34.7989 276.872 34.8916 276.514Q34.9843 276.157 35.1005 275.806Q35.2166 275.455 35.3557 275.113Q35.4947 274.77 35.6561 274.438Q35.8175 274.106 36.0005 273.784Q36.1834 273.463 36.3872 273.155Q36.591 272.847 36.8147 272.553Q37.0384 272.259 37.281 271.98Q37.5237 271.701 37.7842 271.439Q38.0447 271.177 38.322 270.933Q38.5992 270.689 38.892 270.463Q39.1848 270.238 39.4918 270.032Q39.7989 269.826 40.1188 269.642Q40.4388 269.457 40.7702 269.293Q41.1017 269.13 41.4432 268.989Q41.7847 268.848 42.1348 268.73Q42.4849 268.611 42.8421 268.516Q43.1992 268.422 43.5619 268.351Q43.9245 268.28 44.291 268.233Q44.6576 268.186 45.0264 268.163Z"/>
	<path fill="#FCD36A" d="M646.773 69.9992Q647.036 69.9292 647.302 69.8722Q647.568 69.8151 647.836 69.7711Q648.104 69.7271 648.374 69.6963Q648.644 69.6655 648.916 69.6479Q649.187 69.6303 649.459 69.626Q649.731 69.6217 650.003 69.6307Q650.274 69.6397 650.545 69.662Q650.816 69.6843 651.086 69.7198Q651.355 69.7553 651.623 69.8039Q651.891 69.8525 652.155 69.9142Q652.42 69.9758 652.682 70.0504Q652.943 70.1249 653.201 70.2121Q653.458 70.2993 653.711 70.399Q653.964 70.4987 654.212 70.6106Q654.46 70.7226 654.702 70.8465Q654.944 70.9704 655.179 71.106Q655.415 71.2416 655.644 71.3886Q655.873 71.5356 656.094 71.6935Q656.315 71.8515 656.529 72.0201Q656.742 72.1887 656.947 72.3675Q657.152 72.5464 657.347 72.735Q657.543 72.9236 657.73 73.1216Q657.916 73.3195 658.093 73.5264Q658.269 73.7332 658.435 73.9485Q658.601 74.1637 658.757 74.3868Q658.912 74.6099 659.057 74.8403Q659.201 75.0707 659.334 75.3079Q659.467 75.5451 659.588 75.7886Q659.709 76.032 659.818 76.281Q659.927 76.5301 660.024 76.7842Q660.121 77.0383 660.205 77.2968Q660.29 77.5553 660.361 77.8176Q660.433 78.0799 660.491 78.3454Q660.55 78.6109 660.595 78.879Q660.641 79.147 660.673 79.417Q660.706 79.6869 660.725 79.9581Q660.744 80.2294 660.75 80.5012Q660.756 80.773 660.749 81.0448Q660.741 81.3166 660.721 81.5877Q660.7 81.8589 660.666 82.1286Q660.632 82.3984 660.585 82.6662Q660.538 82.934 660.478 83.1992Q660.418 83.4644 660.345 83.7263Q660.272 83.9882 660.186 84.2463Q660.101 84.5043 660.003 84.7579Q659.904 85.0114 659.794 85.2598Q659.684 85.5083 659.561 85.7511Q659.439 85.9938 659.304 86.2303Q659.17 86.4668 659.025 86.6964Q658.879 86.926 658.722 87.1483Q658.566 87.3705 658.398 87.5848Q658.231 87.7991 658.053 88.005Q657.876 88.2109 657.688 88.4079Q657.501 88.6048 657.304 88.7924Q657.107 88.9799 656.902 89.1577Q656.696 89.3354 656.481 89.5028Q656.267 89.6702 656.045 89.827Q655.823 89.9838 655.593 90.1295Q655.364 90.2752 655.127 90.4095Q654.891 90.5439 654.648 90.6665Q654.406 90.7891 654.157 90.8997Q653.909 91.0103 653.655 91.1086Q653.402 91.207 653.144 91.2928Q652.886 91.3786 652.624 91.4517Q652.36 91.5254 652.093 91.5859Q651.826 91.6465 651.556 91.6939Q651.286 91.7412 651.014 91.7752Q650.742 91.8092 650.469 91.8298Q650.196 91.8504 649.922 91.8575Q649.648 91.8645 649.374 91.8581Q649.1 91.8517 648.827 91.8318Q648.554 91.8119 648.282 91.7786Q648.01 91.7453 647.74 91.6986Q647.47 91.6519 647.203 91.592Q646.935 91.5321 646.671 91.459Q646.407 91.386 646.147 91.3001Q645.887 91.2142 645.631 91.1155Q645.376 91.0169 645.125 90.9058Q644.875 90.7947 644.63 90.6713Q644.386 90.548 644.147 90.4128Q643.909 90.2776 643.678 90.1308Q643.446 89.984 643.222 89.826Q642.999 89.668 642.783 89.4992Q642.567 89.3304 642.36 89.1511Q642.153 88.9718 641.955 88.7826Q641.756 88.5934 641.568 88.3946Q641.379 88.1958 641.201 87.988Q641.022 87.7802 640.854 87.5638Q640.686 87.3475 640.529 87.1231Q640.372 86.8987 640.226 86.6668Q640.08 86.435 639.945 86.1963Q639.811 85.9575 639.689 85.7124Q639.566 85.4673 639.456 85.2165Q639.346 84.9657 639.248 84.7098Q639.15 84.4538 639.065 84.1934Q638.98 83.9329 638.908 83.6686Q638.836 83.4043 638.777 83.1367Q638.718 82.8692 638.672 82.599Q638.626 82.3289 638.594 82.0568Q638.562 81.7848 638.543 81.5115Q638.524 81.2382 638.518 80.9642Q638.513 80.6903 638.521 80.4164Q638.529 80.1426 638.551 79.8695Q638.572 79.5963 638.607 79.3246Q638.642 79.0528 638.69 78.7832Q638.739 78.5135 638.8 78.2465Q638.862 77.9795 638.936 77.7159Q639.011 77.4522 639.098 77.1926Q639.186 76.933 639.286 76.678Q639.386 76.4229 639.499 76.1732Q639.611 75.9234 639.736 75.6795Q639.861 75.4356 639.997 75.1981Q640.134 74.9606 640.282 74.7302Q640.43 74.4997 640.59 74.2768Q640.749 74.0539 640.919 73.8392Q641.089 73.6244 641.27 73.4183Q641.45 73.2122 641.641 73.0152Q641.831 72.8182 642.031 72.6309Q642.231 72.4435 642.44 72.2662Q642.649 72.0889 642.866 71.9221Q643.084 71.7554 643.309 71.5995Q643.534 71.4436 643.767 71.299Q644 71.1544 644.239 71.0215Q644.479 70.8885 644.725 70.7675Q644.97 70.6465 645.222 70.5378Q645.473 70.4291 645.73 70.3329Q645.986 70.2366 646.247 70.1532Q646.508 70.0697 646.773 69.9992Z"/>
	<path fill="#FCD36A" d="M162.26 266.617Q162.526 266.554 162.795 266.503Q163.065 266.453 163.336 266.416Q163.607 266.38 163.88 266.356Q164.153 266.333 164.426 266.323Q164.7 266.313 164.973 266.316Q165.247 266.32 165.52 266.337Q165.794 266.354 166.066 266.384Q166.338 266.415 166.608 266.459Q166.878 266.502 167.146 266.56Q167.414 266.617 167.678 266.687Q167.943 266.757 168.204 266.84Q168.465 266.924 168.721 267.019Q168.977 267.115 169.229 267.224Q169.48 267.332 169.726 267.453Q169.971 267.574 170.211 267.707Q170.45 267.839 170.683 267.984Q170.915 268.128 171.141 268.284Q171.366 268.439 171.583 268.606Q171.8 268.772 172.009 268.949Q172.218 269.126 172.418 269.314Q172.618 269.501 172.808 269.697Q172.998 269.894 173.179 270.1Q173.359 270.306 173.529 270.521Q173.699 270.735 173.859 270.958Q174.018 271.18 174.166 271.411Q174.314 271.641 174.451 271.878Q174.587 272.115 174.712 272.359Q174.836 272.603 174.949 272.852Q175.062 273.102 175.162 273.357Q175.262 273.612 175.349 273.871Q175.437 274.13 175.511 274.394Q175.586 274.657 175.647 274.924Q175.708 275.191 175.757 275.46Q175.805 275.73 175.84 276.001Q175.875 276.273 175.896 276.546Q175.918 276.819 175.926 277.092Q175.934 277.366 175.928 277.64Q175.922 277.913 175.903 278.187Q175.884 278.46 175.852 278.731Q175.819 279.003 175.774 279.273Q175.728 279.543 175.669 279.81Q175.61 280.078 175.537 280.342Q175.465 280.606 175.38 280.866Q175.295 281.126 175.197 281.382Q175.099 281.638 174.989 281.888Q174.879 282.139 174.756 282.384Q174.634 282.628 174.499 282.867Q174.365 283.105 174.219 283.337Q174.073 283.568 173.915 283.792Q173.758 284.017 173.59 284.233Q173.422 284.449 173.243 284.656Q173.065 284.864 172.876 285.062Q172.688 285.26 172.489 285.449Q172.291 285.638 172.084 285.817Q171.877 285.996 171.661 286.165Q171.445 286.333 171.221 286.491Q170.998 286.648 170.766 286.795Q170.535 286.941 170.297 287.076Q170.058 287.211 169.814 287.334Q169.569 287.457 169.319 287.567Q169.068 287.678 168.813 287.776Q168.557 287.874 168.297 287.96Q168.037 288.045 167.773 288.118Q167.509 288.191 167.242 288.25Q166.977 288.309 166.71 288.355Q166.443 288.401 166.173 288.434Q165.904 288.466 165.634 288.486Q165.363 288.506 165.092 288.512Q164.821 288.519 164.55 288.512Q164.279 288.505 164.008 288.485Q163.738 288.465 163.468 288.431Q163.199 288.398 162.932 288.352Q162.665 288.305 162.4 288.246Q162.135 288.187 161.874 288.114Q161.613 288.042 161.355 287.957Q161.097 287.872 160.844 287.775Q160.591 287.678 160.343 287.568Q160.095 287.458 159.852 287.337Q159.61 287.215 159.374 287.082Q159.138 286.949 158.908 286.804Q158.679 286.659 158.457 286.503Q158.235 286.348 158.02 286.181Q157.806 286.015 157.6 285.838Q157.395 285.662 157.198 285.475Q157.001 285.289 156.813 285.093Q156.626 284.897 156.448 284.692Q156.27 284.487 156.102 284.274Q155.935 284.061 155.778 283.839Q155.621 283.618 155.475 283.39Q155.329 283.161 155.194 282.926Q155.06 282.69 154.937 282.448Q154.814 282.207 154.703 281.959Q154.592 281.712 154.493 281.459Q154.394 281.207 154.308 280.949Q154.221 280.692 154.148 280.431Q154.074 280.17 154.013 279.906Q153.952 279.642 153.904 279.375Q153.856 279.108 153.822 278.839Q153.787 278.57 153.765 278.299Q153.744 278.029 153.735 277.758Q153.727 277.487 153.732 277.216Q153.737 276.945 153.755 276.674Q153.773 276.403 153.804 276.134Q153.835 275.865 153.88 275.597Q153.924 275.329 153.982 275.064Q154.039 274.799 154.109 274.537Q154.18 274.275 154.263 274.017Q154.346 273.759 154.441 273.505Q154.537 273.251 154.645 273.003Q154.753 272.754 154.872 272.51Q154.992 272.267 155.124 272.03Q155.255 271.793 155.398 271.562Q155.541 271.332 155.696 271.109Q155.85 270.885 156.014 270.67Q156.179 270.455 156.354 270.248Q156.53 270.041 156.715 269.842Q156.9 269.644 157.094 269.455Q157.289 269.266 157.492 269.087Q157.696 268.907 157.908 268.738Q158.12 268.569 158.34 268.41Q158.56 268.252 158.787 268.104Q159.015 267.957 159.249 267.82Q159.484 267.684 159.725 267.559Q159.965 267.434 160.212 267.322Q160.459 267.209 160.71 267.108Q160.962 267.007 161.219 266.919Q161.475 266.831 161.736 266.755Q161.996 266.68 162.26 266.617Z"/>
	<path fill="#FCD36A" d="M426.235 119.361Q426.495 119.313 426.758 119.277Q427.021 119.241 427.284 119.218Q427.548 119.195 427.813 119.185Q428.078 119.175 428.343 119.177Q428.608 119.18 428.872 119.195Q429.137 119.211 429.4 119.239Q429.664 119.267 429.925 119.308Q430.187 119.349 430.447 119.402Q430.706 119.456 430.963 119.522Q431.219 119.588 431.472 119.666Q431.726 119.745 431.975 119.835Q432.224 119.926 432.468 120.028Q432.712 120.13 432.951 120.245Q433.19 120.359 433.424 120.484Q433.657 120.61 433.884 120.747Q434.111 120.883 434.331 121.031Q434.551 121.178 434.764 121.336Q434.977 121.494 435.181 121.662Q435.386 121.83 435.583 122.008Q435.779 122.186 435.967 122.373Q436.154 122.56 436.332 122.756Q436.511 122.952 436.679 123.156Q436.848 123.361 437.007 123.573Q437.165 123.785 437.313 124.005Q437.461 124.225 437.599 124.451Q437.736 124.678 437.862 124.911Q437.988 125.144 438.103 125.383Q438.218 125.621 438.321 125.865Q438.424 126.11 438.515 126.358Q438.606 126.607 438.685 126.86Q438.764 127.113 438.831 127.369Q438.898 127.626 438.952 127.885Q439.006 128.144 439.048 128.406Q439.089 128.668 439.118 128.931Q439.147 129.194 439.163 129.459Q439.179 129.723 439.183 129.988Q439.186 130.253 439.176 130.518Q439.167 130.783 439.145 131.047Q439.122 131.311 439.087 131.573Q439.052 131.836 439.004 132.097Q438.957 132.357 438.896 132.615Q438.836 132.873 438.764 133.128Q438.691 133.383 438.606 133.634Q438.521 133.885 438.424 134.131Q438.327 134.378 438.218 134.62Q438.109 134.861 437.989 135.097Q437.869 135.333 437.737 135.563Q437.606 135.793 437.463 136.017Q437.32 136.24 437.167 136.456Q437.014 136.672 436.85 136.881Q436.687 137.089 436.514 137.289Q436.34 137.49 436.157 137.682Q435.974 137.873 435.783 138.056Q435.591 138.239 435.39 138.412Q435.189 138.585 434.981 138.748Q434.772 138.911 434.556 139.064Q434.339 139.217 434.116 139.36Q433.892 139.502 433.662 139.633Q433.432 139.765 433.196 139.885Q432.96 140.005 432.718 140.113Q432.476 140.222 432.23 140.318Q431.983 140.415 431.732 140.5Q431.481 140.584 431.226 140.657Q430.971 140.729 430.713 140.789Q430.359 140.871 430 140.93Q429.641 140.989 429.28 141.023Q428.918 141.058 428.554 141.069Q428.191 141.079 427.828 141.066Q427.465 141.052 427.103 141.015Q426.741 140.977 426.383 140.916Q426.025 140.854 425.671 140.769Q425.318 140.684 424.971 140.576Q424.624 140.467 424.285 140.336Q423.946 140.205 423.616 140.052Q423.287 139.899 422.968 139.724Q422.65 139.549 422.343 139.353Q422.037 139.158 421.744 138.942Q421.451 138.727 421.173 138.492Q420.896 138.258 420.634 138.005Q420.372 137.753 420.128 137.484Q419.884 137.215 419.658 136.93Q419.432 136.645 419.225 136.346Q419.019 136.047 418.832 135.735Q418.646 135.423 418.481 135.099Q418.316 134.775 418.172 134.441Q418.029 134.107 417.908 133.764Q417.787 133.421 417.69 133.071Q417.592 132.721 417.517 132.365Q417.443 132.009 417.392 131.649Q417.342 131.289 417.315 130.927Q417.289 130.564 417.286 130.201Q417.284 129.837 417.305 129.474Q417.327 129.111 417.372 128.751Q417.418 128.39 417.488 128.033Q417.557 127.676 417.65 127.325Q417.743 126.973 417.859 126.629Q417.975 126.285 418.114 125.948Q418.252 125.612 418.413 125.286Q418.574 124.96 418.756 124.646Q418.938 124.331 419.14 124.029Q419.343 123.727 419.565 123.439Q419.787 123.151 420.027 122.879Q420.268 122.606 420.526 122.35Q420.784 122.094 421.059 121.856Q421.333 121.618 421.623 121.398Q421.913 121.179 422.217 120.979Q422.52 120.779 422.837 120.6Q423.153 120.421 423.48 120.263Q423.808 120.105 424.145 119.969Q424.482 119.833 424.828 119.72Q425.173 119.607 425.525 119.517Q425.878 119.427 426.235 119.361Z"/>
	<path fill="#FCD36A" d="M288.801 222.399Q289.071 222.397 289.34 222.409Q289.609 222.42 289.878 222.445Q290.147 222.47 290.413 222.508Q290.68 222.546 290.945 222.597Q291.21 222.648 291.472 222.712Q291.734 222.776 291.992 222.853Q292.251 222.93 292.505 223.02Q292.759 223.11 293.009 223.212Q293.259 223.314 293.503 223.428Q293.747 223.543 293.985 223.669Q294.224 223.795 294.455 223.933Q294.687 224.07 294.912 224.22Q295.137 224.369 295.354 224.529Q295.571 224.689 295.78 224.859Q295.989 225.03 296.189 225.21Q296.389 225.391 296.58 225.581Q296.771 225.771 296.953 225.971Q297.134 226.17 297.306 226.378Q297.477 226.586 297.638 226.803Q297.799 227.019 297.949 227.243Q298.099 227.467 298.238 227.698Q298.377 227.93 298.504 228.167Q298.631 228.405 298.747 228.649Q298.862 228.893 298.965 229.142Q299.069 229.391 299.159 229.645Q299.25 229.899 299.328 230.157Q299.406 230.415 299.472 230.677Q299.537 230.938 299.589 231.203Q299.642 231.467 299.681 231.734Q299.72 232.001 299.746 232.269Q299.772 232.538 299.785 232.807Q299.798 233.076 299.797 233.346Q299.796 233.616 299.783 233.885Q299.769 234.154 299.742 234.423Q299.714 234.691 299.674 234.958Q299.634 235.224 299.58 235.489Q299.527 235.753 299.46 236.014Q299.394 236.276 299.315 236.533Q299.235 236.791 299.143 237.045Q299.052 237.298 298.947 237.547Q298.843 237.796 298.727 238.039Q298.61 238.282 298.482 238.519Q298.354 238.757 298.214 238.987Q298.074 239.218 297.923 239.441Q297.772 239.665 297.61 239.88Q297.448 240.096 297.276 240.303Q297.103 240.511 296.921 240.71Q296.739 240.908 296.547 241.098Q296.355 241.287 296.154 241.467Q295.953 241.647 295.743 241.816Q295.533 241.986 295.315 242.145Q295.098 242.304 294.872 242.452Q294.647 242.6 294.415 242.737Q294.182 242.874 293.943 242.999Q293.704 243.124 293.46 243.237Q293.215 243.35 292.965 243.452Q292.715 243.553 292.46 243.641Q292.205 243.73 291.946 243.805Q291.688 243.881 291.425 243.944Q291.163 244.007 290.898 244.057Q290.633 244.107 290.366 244.144Q290.099 244.181 289.83 244.205Q289.562 244.228 289.292 244.239Q289.023 244.249 288.753 244.246Q288.486 244.243 288.22 244.227Q287.954 244.211 287.689 244.182Q287.424 244.153 287.161 244.111Q286.897 244.07 286.636 244.015Q286.375 243.96 286.117 243.893Q285.859 243.826 285.605 243.746Q285.35 243.666 285.1 243.574Q284.85 243.482 284.604 243.378Q284.359 243.274 284.119 243.158Q283.879 243.041 283.645 242.914Q283.411 242.786 283.183 242.647Q282.955 242.508 282.735 242.359Q282.514 242.209 282.301 242.048Q282.088 241.888 281.883 241.717Q281.678 241.547 281.482 241.366Q281.286 241.186 281.098 240.996Q280.911 240.806 280.733 240.607Q280.556 240.409 280.388 240.202Q280.22 239.994 280.062 239.779Q279.905 239.564 279.758 239.342Q279.611 239.119 279.475 238.89Q279.339 238.66 279.214 238.424Q279.09 238.189 278.977 237.947Q278.864 237.706 278.763 237.459Q278.662 237.212 278.573 236.961Q278.485 236.709 278.408 236.454Q278.332 236.198 278.268 235.939Q278.204 235.68 278.153 235.419Q278.102 235.157 278.063 234.893Q278.025 234.629 278 234.364Q277.974 234.098 277.962 233.832Q277.949 233.566 277.95 233.299Q277.951 233.032 277.964 232.766Q277.978 232.5 278.004 232.234Q278.031 231.969 278.07 231.705Q278.11 231.442 278.162 231.18Q278.214 230.919 278.279 230.66Q278.344 230.401 278.422 230.146Q278.499 229.891 278.589 229.64Q278.679 229.389 278.781 229.143Q278.883 228.896 278.997 228.655Q279.111 228.414 279.237 228.179Q279.362 227.944 279.499 227.715Q279.636 227.486 279.784 227.264Q279.932 227.042 280.09 226.828Q280.249 226.613 280.418 226.407Q280.587 226.2 280.765 226.003Q280.944 225.805 281.132 225.616Q281.32 225.427 281.517 225.247Q281.714 225.068 281.92 224.898Q282.126 224.728 282.339 224.569Q282.553 224.409 282.774 224.26Q282.996 224.111 283.224 223.973Q283.452 223.835 283.687 223.709Q283.921 223.582 284.162 223.467Q284.403 223.352 284.648 223.249Q284.894 223.146 285.145 223.055Q285.396 222.964 285.65 222.885Q285.905 222.806 286.164 222.74Q286.422 222.674 286.683 222.621Q286.944 222.567 287.208 222.527Q287.471 222.486 287.737 222.458Q288.002 222.43 288.268 222.416Q288.534 222.401 288.801 222.399Z"/>
</svg>
