<?xml version="1.0" encoding="utf-8" ?>
<svg xmlns="http://www.w3.org/2000/svg" xmlns:xlink="http://www.w3.org/1999/xlink" width="1024" height="1024">
	<path fill="#16043E" d="M0 0L1024 0L1024 825.082L1024 832.407L1024 1024L0 1024L0 832.435L0 825.292L0 0Z"/>
	<path fill="#E0DDFB" d="M0 0L1024 0L1024 825.082L972.093 825.167L972.097 273.293L971.98 115.629L971.949 65.6325C971.945 58.4777 972.367 51.1444 972.065 44.0196C971.991 42.2926 971.708 40.9466 970.948 39.4C968.228 38.2944 964.481 38.2886 961.555 38.2244C943.419 37.8266 925.183 38.3486 907.034 38.2814L792.204 38.1212C781.372 38.1201 726.182 37.0132 720.307 39.2402C719.602 40.1842 719.228 40.8311 719.163 42.0313C718.719 50.2798 719.191 58.8138 719.224 67.085L719.358 116.466L719.496 269.598L718.832 269.31C709.436 265.154 702.795 258.322 699.139 248.723C693.497 233.915 689.518 220.069 673.704 212.8C665.07 208.831 653.995 208.948 645.176 212.286C641.39 213.72 638.058 215.871 634.677 218.062C626.087 223.628 620.634 228.457 615.196 237.223C598.035 234.075 580.549 236.009 565.918 246.119Q564.79 246.889 563.701 247.714Q562.613 248.539 561.567 249.417Q560.52 250.295 559.519 251.224Q558.518 252.153 557.565 253.131Q556.611 254.109 555.708 255.133Q554.804 256.157 553.952 257.225Q553.101 258.293 552.304 259.402Q551.506 260.511 550.765 261.658Q550.024 262.806 549.341 263.989Q548.658 265.171 548.035 266.387Q547.412 267.602 546.85 268.847Q546.288 270.092 545.789 271.363Q545.289 272.634 544.854 273.929Q544.419 275.224 544.049 276.538Q543.678 277.853 543.374 279.184Q543.07 280.516 542.832 281.861Q541.817 287.45 542.054 293.125C534.875 298.733 529.596 306.215 528.617 315.489Q528.546 316.192 528.511 316.898Q528.475 317.604 528.475 318.31Q528.475 319.017 528.51 319.722Q528.545 320.428 528.616 321.131Q528.686 321.834 528.792 322.533Q528.898 323.232 529.038 323.924Q529.179 324.617 529.354 325.301Q529.529 325.986 529.738 326.661Q529.947 327.336 530.19 327.999Q530.432 328.663 530.708 329.314Q530.983 329.964 531.291 330.6Q531.599 331.237 531.938 331.856Q532.277 332.476 532.647 333.078Q533.017 333.68 533.416 334.263Q533.816 334.846 534.244 335.408Q534.672 335.97 535.128 336.51C543.184 345.896 557.071 347.971 568.697 348.85C569.377 353.351 569.484 363.059 573.279 366.008C574.845 367.225 577.02 367.505 578.94 367.227C581.279 366.888 583.641 366.139 585.886 365.426C593.81 370.52 602.013 376.02 611.973 374.044C617.83 372.881 622.202 369.513 626.626 365.748C632.82 372.224 637.266 379.121 639.508 387.876C641.904 397.23 640.919 406.519 641.359 416.013C642.372 437.856 655.218 448.748 675.389 453.959L654.213 505.752C648.695 519.476 643.742 533.172 637.146 546.44C632.848 547.273 628.816 548.616 626.19 552.388C625.309 553.654 624.684 555.066 624.212 556.53C622.874 560.676 622.371 565.123 621.274 569.345C620.041 574.093 617.951 578.768 617.105 583.592C616.613 586.398 617.224 589.615 616.209 592.278Q587.58 665.334 557.631 737.858L533.028 798.871C529.377 807.916 525.969 817.059 522.011 825.978Q485.259 825.428 448.504 825.744L448.182 345.356L448.239 173.691C448.236 147.807 449.093 121.758 448.364 95.8976C448.292 93.3506 448.198 89.0834 446.574 87.0944C443.124 85.8636 414.697 85.8303 412.093 87.4707C410.722 88.334 410.745 89.8909 410.585 91.3555C410.041 96.3537 410.389 101.724 410.383 106.761L410.369 135.216Q410.517 180.84 410.135 226.462L278.993 226.365L279.033 151.916C281.442 151.844 283.81 151.965 286.063 151.015C288.601 148.165 287.685 130.72 287.464 126.437C287.334 123.926 286.934 121.282 285.3 119.292C282.99 118.4 154.856 118.923 141.117 119.625C140.298 123.065 139.481 146.843 141.04 149.356C141.835 150.639 143.021 151.357 144.506 151.588C146.125 151.839 147.906 151.696 149.541 151.652L149.4 226.321C130.351 226.361 111.26 226.685 92.2162 226.405C91.3534 194.142 92.0472 161.716 91.9872 129.43C91.9685 119.339 93.1106 96.9884 90.9374 88.7395C89.797 87.9121 88.7868 87.7457 87.4218 87.5874C80.8494 86.8251 73.7064 87.5758 67.0805 87.603C63.5262 87.6176 59.8032 87.0442 56.2848 87.5529C54.8254 87.7638 53.8747 88.0824 53.0192 89.2911C51.8772 97.2763 52.4389 105.843 52.4232 113.913L52.3736 157.485L52.4435 306.469L52.5046 647.531C52.4763 706.79 53.0249 766.1 52.3842 825.352Q26.1924 825.071 0 825.292L0 0Z"/>
	<path fill="#9F8BE8" d="M972.315 832.237Q998.158 832.183 1024 832.407L1024 1024L0 1024L0 832.435C17.4116 832.431 34.8626 832.171 52.2694 832.467C52.2489 840.464 50.8064 868.591 53.9562 873.891C56.6339 875.404 85.2764 875.432 88.9258 874.445C89.7744 874.215 90.3035 873.943 90.8948 873.271C93.4667 866.601 92.0503 840.655 91.9933 832.362C110.297 832.275 128.708 832.013 147.005 832.457C146.978 840.783 145.81 889.162 147.721 893.299C149.219 894.523 150.538 894.909 152.481 894.976C163.617 895.357 174.961 894.898 186.117 894.888L255.801 894.858L295.87 894.878C303.908 894.947 312.411 895.606 320.401 894.897C322.426 894.717 324.183 894.127 325.994 893.216C333.4 889.491 340.357 884.527 347.491 880.278C357.966 874.039 369.428 868.249 379.113 860.836C379.137 851.522 378.995 842.166 379.238 832.858C389.663 832.874 400.157 832.668 410.575 832.941C410.562 839.854 409.209 871.842 412.256 875.44C413.819 877.285 419.051 876.657 421.31 876.636C425.385 876.598 445.762 877.396 447.707 876.069C449.815 868.167 448.561 842.711 448.516 833.071Q483.902 832.893 519.288 833.113C513.807 848.262 507.564 863.123 501.691 878.124C497.478 888.885 493.69 900.284 488.627 910.662C467.388 908.471 446.194 905.52 424.977 903.087C418.007 902.288 410.666 900.526 403.715 900.353C401.98 900.309 400.689 900.326 399.265 901.449C395.446 904.459 392.737 915.262 390.363 919.876Q388.333 923.755 386.032 927.479Q383.731 931.203 381.17 934.754Q378.61 938.305 375.803 941.664Q372.997 945.024 369.958 948.175C364.289 954.169 357.896 960.013 350.511 963.83C347.731 965.267 344.276 966.019 341.741 967.786C340.831 968.42 340.352 969.09 340.316 970.245C340.279 971.431 340.253 971.982 341.106 972.881C344.227 976.173 353.338 977.443 357.824 978.599C402.938 990.226 457.826 995.228 504.499 994.371C534.429 993.821 560.5 992.255 582.512 969.298L583.517 968.24C583.533 961.894 584.576 926.91 583.054 923.848C576.303 920.393 524.353 915.863 511.633 913.477C521.536 886.509 532.06 859.401 543.524 833.057C593.829 833.093 644.222 832.286 694.515 832.943C694.18 840.83 689.729 881.919 691.342 885.729C692.623 886.94 693.995 887.334 695.641 887.895C695.483 898.616 694.456 909.357 694.473 920.061C689.233 923.947 683.805 927.575 678.471 931.327C674.678 933.995 670.838 937.117 666.741 939.289C663.166 941.185 659.013 941.664 655.212 942.962C644.261 946.701 632.047 954.997 625.462 964.607C625.446 968.502 624.606 974.852 626.773 978.137C636.365 983.413 701.216 977.863 715.844 976.713C722.038 976.226 731.781 976.287 737.368 974.594C738.569 974.23 739.734 973.531 740.277 972.346C742.251 968.043 738.87 944.36 737.959 938.392C737.174 933.246 735.516 927.466 735.707 922.274C736.043 913.156 740.861 899.93 742.967 890.576C745.57 890.501 747.379 890.57 749.334 888.648C754.586 883.485 757.239 872.805 759.887 865.911C784.675 864.957 809.827 865.403 834.65 865.566C838.252 868.63 843.088 874.352 847.638 875.488C850.971 876.321 866.079 892.033 870.276 895.52L857.685 915.587C848.529 930.28 839.417 945.87 843.559 963.916C844.339 967.311 846.076 973.635 849.295 975.421C850.536 976.11 851.452 975.898 852.667 975.35C857.553 973.148 862.448 968.675 866.728 965.432L895.047 943.721C908.612 933.397 922.841 923.774 936.052 913.004C937.857 911.532 939.663 909.98 940.809 907.927C940.835 903.467 934.338 895.887 931.171 892.675C922.488 883.868 911.1 878.138 899.544 874.074C898.463 871.547 897.318 869.033 896.39 866.446C907.177 866.461 965.075 867.798 971.441 865.144C973.647 858.834 972.237 839.994 972.315 832.237Z"/>
	<path fill="#5C4086" d="M838.19 498.464Q841.862 506.444 845.17 514.582C853.644 535.991 855.628 565.87 852.345 588.636C848.598 614.618 838.235 640.049 829.747 664.783C813.746 711.416 795.499 757.156 777.112 802.878C766.408 829.497 756.207 856.203 744.859 882.572C734.944 882.573 724.959 881.907 715.045 881.575C709.487 881.54 703.892 881.133 698.362 880.601Q710.928 714.967 730.73 550.042C734.995 550.072 739.253 550.04 743.506 549.68C772.399 547.235 804.171 531.322 825.703 511.958C830.292 507.831 834.222 503.17 838.19 498.464Z"/>
	<path fill="#E0DDFB" d="M124.5 632.25C158.233 631.757 192.017 632.079 225.756 632.068L410.505 632.148L410.48 825.622L379.34 825.613L379.416 742.783C379.447 730.534 380.384 715.07 379.3 703.152C379.161 701.628 378.524 700.721 377.552 699.581L257.221 699.171L224.46 699.219C218.692 699.234 212.436 698.746 206.746 699.616C201.419 700.43 150.882 721.545 148.392 723.9C147.441 724.8 147.325 726.295 147.192 727.552C146.112 737.76 146.998 748.915 147.015 759.205L147.178 825.219C128.782 825.564 110.325 825.38 91.925 825.338C91.7165 805.463 92.0652 785.558 92.0834 765.68L92.0966 632.363Q108.299 632.396 124.5 632.25Z"/>
	<path fill="#E0DDFB" d="M93.6938 447.741C199.186 448.441 304.731 446.66 410.223 448.028L410.423 587.894L376.622 587.886L376.532 514.606C379.245 514.626 383.742 515.267 385.934 513.409C387.543 512.045 387.488 510.042 387.532 508.125C387.601 501.69 388.063 494.952 387.605 488.547C387.448 486.349 387.295 483.907 385.542 482.367C383.454 481.758 381.332 481.547 379.167 481.481C352.021 480.654 324.602 481.504 297.429 481.542C288.217 481.554 249.625 480.341 244.008 482.192C243.079 482.988 242.769 483.777 242.477 484.932C241.494 488.815 241.109 510.342 242.897 513.303C244.504 514.632 246.568 514.728 248.567 515.067L248.621 587.716C196.504 588.638 144.231 587.657 92.0981 587.546C92.1035 574.944 91.1952 451.351 92.3913 448.159L93.6938 447.741Z"/>
	<path fill="#E0DDFB" d="M721.812 520.829C723.532 526.011 724.183 534.139 723.931 539.543C723.557 547.536 722.249 555.708 721.328 563.663Q718.151 588.951 715.388 614.287Q709.396 668.158 704.217 722.112C700.73 756.483 697.18 791.116 695.432 825.625L547.084 825.618L546.687 824.786C549.431 815.263 554.133 806.272 557.777 797.071Q571.325 762.776 585.252 728.634L621.478 639.017C627.452 624.084 632.637 608.626 639.331 594.008C642.982 591.741 647.16 589.982 650.983 587.984C663.278 581.557 676.879 573.361 684.605 561.485L691.061 563.28C695.333 558.285 699.011 552.593 702.835 547.248L721.812 520.829Z"/>
	<path fill="#9F8BE8" d="M154.792 729.694Q236.639 729.064 318.483 729.929L318.55 849.176C318.55 854.495 319.233 883.414 318.512 886.51C318.425 886.883 318.079 887.143 317.863 887.459L154.754 887.239Q155.237 808.467 154.792 729.694Z"/>
	<path fill="#16043E" d="M213.576 749.629C221.717 749.217 258.402 748.322 263.822 751.177C267.221 752.968 269.56 756.077 270.506 759.784C271.37 763.165 270.941 766.844 269.102 769.836C266.987 773.275 263.936 774.706 260.126 775.574C250.456 775.886 240.76 775.837 231.084 775.888C225.293 775.919 219.016 776.469 213.318 775.522C210.852 775.112 208.46 774.249 206.395 772.823C203.87 771.078 201.947 768.536 201.426 765.464C200.813 761.845 202.078 757.184 204.253 754.258C206.572 751.138 209.933 750.262 213.576 749.629Z"/>
	<path fill="#FEFEFD" d="M212.155 757.537C225.32 756.667 239.085 757.217 252.3 757.352C255.267 757.382 260.054 757.245 262.178 759.539C263.283 760.732 263.946 762.105 263.668 763.779C263.313 765.915 262.023 766.813 260.348 767.892C259.554 768.086 258.822 768.247 258.01 768.341C251.161 769.136 243.706 768.629 236.805 768.653C229.686 768.677 221.73 769.364 214.694 768.334C213.101 768.1 211.424 767.736 210.251 766.537C209.449 765.717 209.103 764.627 209.109 763.5C209.124 760.772 210.255 759.355 212.155 757.537Z"/>
	<path fill="#9F8BE8" d="M757.967 166.223C776.82 165.848 795.744 166.105 814.605 166.086L933.571 166.424L933.726 301.312C875.194 301.987 816.566 301.248 758.023 301.299C758.006 256.287 757.505 211.231 757.967 166.223Z"/>
	<path fill="#FEFEFD" d="M692.395 310.968C698.313 310.918 704.126 310.967 709.884 312.51C720.162 315.264 730.106 320.509 738.779 326.598C770.326 348.747 781.025 378.624 796.3 412.332C808.197 438.588 820.052 467.275 834.379 492.167C833.596 493.247 832.717 494.211 831.799 495.176C806.059 522.207 769.683 541.749 731.984 542.696C731.455 532.078 730.366 521.701 728.267 511.272C735.93 500.495 747.46 484.844 751.868 472.722C756.455 460.105 754.277 421.865 753.843 406.875C753.656 400.085 752.578 355.717 748.907 352.486C747.984 351.672 746.657 351.244 745.431 351.43C740.556 352.168 743.14 362.452 743.493 365.737C746.4 392.736 746.718 420.353 746.692 447.497C746.685 454.243 747.346 462.232 745.318 468.713C743.454 474.669 739.368 480.543 736.105 485.849C721.559 509.505 704.577 531.607 688.673 554.35C679.732 549.369 671.985 543.737 666.031 535.304C667.977 527.863 671.043 520.738 673.846 513.587L684.675 486.083C686.614 481.235 689.848 475.414 690.671 470.297C691.568 464.723 688.66 451.601 687.856 445.256Q685.644 428.804 684.235 412.264C682.92 394.812 682.425 377.546 684.199 360.101C685.875 343.624 689.327 327.231 692.395 310.968Z"/>
	<path fill="#9F8BE8" d="M941.525 45.9485L964.151 45.9509L964.476 858.802C957.003 859.492 949.01 858.941 941.478 858.957L941.525 45.9485Z"/>
	<path fill="#9F8BE8" d="M60.1407 94.8963Q72.1049 94.7112 84.0696 94.8589L83.8687 867.371L60.1131 867.158L60.1407 94.8963Z"/>
	<path fill="#9F8BE8" d="M417.985 94.5066L441.033 94.5116L441.147 868.872L418.082 868.889L417.971 775.525L417.999 587.122L417.985 94.5066Z"/>
	<path fill="#9F8BE8" d="M771.611 346.966C791.418 346.488 811.331 346.957 831.148 347.012L933.838 346.909Q933.248 414.409 933.628 481.909C924.54 482.687 914.763 482.027 905.607 482.032Q871.902 481.797 838.197 481.996C824.955 456.803 813.117 430.585 801.293 404.696C792.341 385.094 784.524 364.379 771.611 346.966Z"/>
	<path fill="#E0DDFB" d="M92.2342 270.556L321.934 270.524L386.964 270.662C391.056 270.656 403.454 271.311 406.542 270.755C406.734 270.72 406.889 270.575 407.063 270.485L407.341 271.476L408.843 271.409L409.305 271.007L409.926 271.145L410.085 272.458C406.062 278.336 381.624 271.844 374.742 276.116C372.569 279.259 373.416 284.799 373.495 288.53C366.353 288.556 359.179 288.631 352.039 288.463C348.569 288.382 344.624 287.694 341.192 288.145C340.045 288.296 338.866 288.752 338.07 289.62C335.236 292.717 336.402 312.45 336.139 317.673C333.009 314.654 322.311 302.783 318.507 303.236C315.797 303.558 312.813 307.5 310.985 309.391C293.837 327.485 275.901 344.914 258.498 362.781C252.081 369.369 245.051 375.826 239.108 382.829C237.874 384.284 236.783 385.789 236.151 387.604C238.055 391.844 249.556 399.922 253.667 403.701C237.715 404.02 221.727 403.818 205.77 403.825L205.713 333.043C205.725 323.045 207.031 303.061 204.814 294.524C200.093 292.37 175.234 293.905 168.505 293.989C168.561 290.088 169.674 282.375 167.202 279.201C160.38 277.213 145.376 278.336 137.588 278.336L92.236 278.295L92.2342 270.556Z"/>
	<path fill="#9F8BE8" d="M757.849 45.6435C776.538 45.306 795.294 45.6038 813.99 45.6105L933.866 45.9238Q933.56 83.1176 933.698 120.313C927.211 120.662 920.583 120.42 914.082 120.447L876.593 120.58L757.914 120.555L757.849 45.6435Z"/>
	<path fill="#9F8BE8" d="M857.977 527.233C866.759 526.812 875.649 527.057 884.445 527.031L933.981 526.958C933.018 570.312 933.676 613.753 933.647 657.119L917.625 657.224Q881.218 657.477 844.81 657.198C845.577 650.422 846.332 643.701 847.949 637.062C850.221 627.737 853.679 618.729 856.154 609.451C863.885 580.467 862.335 556.473 857.977 527.233Z"/>
	<path fill="#9F8BE8" d="M842.485 701.409C852.748 701.112 863.111 701.436 873.384 701.457L934.044 701.573Q933.432 763.493 933.627 825.415C927.577 825.869 921.256 825.538 915.174 825.544L879.372 825.563C873.207 814.86 867.975 802.995 862.973 791.717C848.004 757.965 842.355 738.93 842.485 701.409Z"/>
	<path fill="#9F8BE8" d="M229.931 233.75L410.126 233.929L410.165 263.124L272.25 263.448L92.1544 263.195C91.9922 253.426 92.14 243.627 92.1404 233.855L229.931 233.75Z"/>
	<path fill="#9F8BE8" d="M91.9733 595.52C139.163 594.872 186.409 595.253 233.604 595.345L410.484 595.414L410.457 624.556L91.9678 624.606L91.9733 595.52Z"/>
	<path fill="#9F8BE8" d="M205.26 411.247L410.167 411.386L410.18 440.507L297.75 440.497L92.0303 440.52L92.0028 411.35L205.26 411.247Z"/>
	<path fill="#5C4086" d="M835.753 671.867C836.32 676.893 835.111 683.074 834.799 688.205C834.213 697.808 833.905 707.651 834.298 717.262C835.624 749.658 847.41 778.025 861.164 806.942C867.406 820.065 873.947 833.317 881.416 845.788C871.895 852.767 858.584 860.853 848.018 866.149C845.223 863.766 842.523 861.255 839.79 858.802Q824.253 843.749 808.541 828.877C800.384 821.093 792.018 813.343 784.909 804.564C786.595 799.359 789.085 794.231 791.139 789.143Q798.329 771.53 805.154 753.773L824.97 701.368C828.568 691.606 831.54 681.364 835.753 671.867Z"/>
	<path fill="#E0DDFB" d="M157.016 151.676Q171.058 151.885 185.101 151.813C185.089 161.101 187.156 169.39 193.843 176.189C199.634 182.076 207.647 185.013 215.838 184.958C223.892 184.905 231.384 181.811 237.032 176.044C243.744 169.191 245.71 161.281 245.567 151.905Q258.78 151.815 271.993 151.886L271.734 192.375Q271.731 209.333 271.542 226.29L156.974 226.447L157.016 151.676Z"/>
	<path fill="#9F8BE8" d="M370.579 708.938L371.105 709.072C372.292 711.733 371.496 841.822 371.437 856.609C366.857 860.431 360.968 863.319 355.844 866.371L326.873 883.716L326.492 883.67C325.28 881.499 326.015 744.85 326.191 729.651Q348.503 719.548 370.579 708.938Z"/>
	<path fill="#E0DDFB" d="M346.146 514.579L369.332 514.582L369.365 562.673L369.361 587.786L256.094 587.618Q255.89 551.262 256.104 514.907L264.492 514.743L279.927 514.681C280.501 521.902 282.258 528.155 286.633 534.007Q287.14 534.686 287.68 535.338Q288.221 535.991 288.793 536.615Q289.365 537.24 289.968 537.835Q290.571 538.43 291.203 538.994Q291.835 539.558 292.495 540.09Q293.154 540.622 293.839 541.12Q294.525 541.618 295.234 542.081Q295.943 542.544 296.675 542.971Q297.407 543.398 298.159 543.788Q298.911 544.178 299.682 544.53Q300.452 544.881 301.24 545.194Q302.027 545.507 302.829 545.779Q303.631 546.052 304.446 546.284Q305.26 546.517 306.086 546.708Q306.911 546.899 307.745 547.049Q308.579 547.198 309.419 547.306C318.037 548.414 326.13 545.829 332.88 540.487C341.33 533.801 344.91 525.023 346.146 514.579Z"/>
	<path fill="#9F8BE8" d="M726.964 45.4962Q738.6 45.4123 750.236 45.4824C749.589 82.737 750.304 120.027 750.273 157.285C750.226 213.353 749.768 269.473 750.448 325.535C746.591 322.865 742.64 320.315 738.732 317.718Q732.832 314.071 727.001 310.315L726.986 295.008C733.895 288.561 739.826 282.622 740.355 272.491C740.517 269.385 740.38 266.259 738.232 263.855C733.072 262.062 732.269 268.856 727.963 270.111L727.326 269.49C726.345 236.951 726.887 204.312 726.994 171.759L726.964 45.4962Z"/>
	<path fill="#2A0E59" d="M591.753 244.193Q597 243.795 602.255 244.069Q607.51 244.343 612.688 245.284C625.754 247.649 637.162 253.014 644.804 264.228C651.178 273.583 651.83 283.942 649.807 294.788C648.302 293.492 646.764 292.37 645.056 291.351C641.913 289.475 637.587 287.452 633.893 288.605C627.648 290.554 625.203 298.54 622.37 303.68C619.392 309.087 614.268 311.749 608.517 313.378C594.263 317.415 581.057 316.413 568.183 309.162C565.932 307.896 563.253 305.406 560.568 306.071C557.996 306.708 556.194 309.811 555.134 311.99C550.017 322.509 553.669 330.129 557.221 340.258C552.931 339.445 549.216 338.333 545.533 335.835C540.718 332.568 537.004 327.475 536.026 321.675C533.809 308.523 543.112 304.889 549.114 295.976C549.211 295.833 549.303 295.685 549.397 295.54C550.341 282.803 552.089 272.126 560.157 261.765C567.868 251.862 579.386 245.722 591.753 244.193Z"/>
	<path fill="#9F8BE8" d="M757.937 127.987L934.012 127.97L933.92 158.952C907.467 159.317 880.96 158.938 854.502 158.846L758.013 158.913L757.937 127.987Z"/>
	<path fill="#9F8BE8" d="M757.992 308.455L933.843 308.635L933.736 339.593Q849.903 340.061 766.071 339.506C763.216 336.804 760.546 334.092 758.023 331.076L757.992 308.455Z"/>
	<path fill="#9F8BE8" d="M129.994 285.944L161.194 285.977C160.609 325.273 160.992 364.62 160.975 403.922L130.045 403.927L129.994 285.944Z"/>
	<path fill="#9F8BE8" d="M95.9986 285.749L122.738 285.736C122.601 297.384 123.184 400.737 122.248 403.106C120.975 404.098 120.21 403.872 118.625 403.92L92.2607 403.983C92.2391 391.742 91.3216 289.337 92.4157 286.64C93.7304 285.633 94.375 285.818 95.9986 285.749Z"/>
	<path fill="#9F8BE8" d="M399.684 282.245L410.172 282.299L410.202 403.644L392.25 403.616L381.574 403.61C380.671 363.26 381.488 322.733 381.522 282.365L399.684 282.245Z"/>
	<path fill="#9F8BE8" d="M343.771 295.995L373.749 295.954L373.638 403.717C363.818 403.614 353.982 403.769 344.161 403.809C343.507 392.764 343.792 381.505 343.726 370.434L343.771 295.995Z"/>
	<path fill="#9F8BE8" d="M176.921 301.246L198.487 301.162L198.495 403.908L190.25 403.92L168.411 403.966C167.989 369.781 168.237 335.557 168.271 301.368L176.921 301.246Z"/>
	<path fill="#9F8BE8" d="M318.967 311.847C325.238 315.696 329.737 322.245 336.025 326.319L336.01 335.617C331.416 340.913 326.329 345.817 321.452 350.853L294.223 378.828C288.436 384.743 275.875 398.868 269.661 403.177C268.153 404.223 266.866 403.983 265.19 403.685C258.652 398.143 252.342 392.291 245.952 386.577C269.599 361.109 294.433 336.466 318.967 311.847Z"/>
	<path fill="#FEFEFD" d="M703.034 888.486C713.677 889.164 724.255 889.712 734.916 889.971C732.773 899.104 728.224 911.936 727.783 920.886C727.491 926.814 729.517 933.219 730.435 939.081C731.387 945.156 731.869 951.3 732.399 957.424C708.108 960.703 683.474 960.984 659.045 962.431C651.858 962.579 644.685 962.743 637.497 962.534C646.419 955.001 655.214 951.147 666.117 947.439C671.296 948.892 676.938 952.13 682.312 952.457C684.016 952.56 684.86 952.131 686.101 951.025C686.482 949.795 686.621 949.236 686.239 947.993C683.709 944.844 679.427 943.985 675.743 942.744C683.759 936.315 693.486 931.662 700.843 924.543C702.034 912.597 702.616 900.483 703.034 888.486Z"/>
	<path fill="#FEFEFD" d="M634.809 296.431C637.999 296.635 640.371 296.952 642.789 299.195C646.794 302.908 649.343 309.239 649.353 314.676C649.371 325.298 628.009 354.13 620.253 361.878C616.254 365.874 609.817 367.573 604.294 367.501C602.704 367.48 601.371 367.402 600.201 366.2C599.06 361.355 610.558 353.376 611.586 347.965C611.849 346.577 611.666 346.402 610.927 345.297C602.866 341.575 599.95 358.754 593.045 360.637C591.78 358.856 593.528 356.009 592.218 353.718C590.143 353.637 588.916 354.546 587.262 355.634C584.155 357.878 581.279 359.522 577.6 360.606C576.852 357.074 577.09 353.231 575.793 349.827C572.734 341.8 563.782 337.575 560.803 329.234C558.917 323.951 560.296 318.776 562.521 313.88C566.716 316.452 570.755 318.852 575.401 320.535C572.452 322.818 568.359 325.612 566.685 329.01C566.089 330.219 566.216 330.728 566.666 331.945C567.544 332.531 568.124 332.856 569.191 333.03C573.751 333.774 580.27 326.313 583.483 323.556C599.832 323.479 618.11 323.5 628.068 308.245C630.53 304.473 631 299.935 634.44 296.76C634.561 296.648 634.686 296.54 634.809 296.431Z"/>
	<path fill="#16043E" d="M592.04 328.304C592.315 328.371 592.607 328.389 592.865 328.506C594.21 329.115 594.519 329.747 595.065 330.998C594.986 331.807 594.903 332.515 594.55 333.26C592.557 337.462 585.673 344.379 581.294 345.993C580.522 345.681 579.583 345.306 578.948 344.746C577.943 343.86 577.794 343.033 577.656 341.773C579.355 336.998 588.031 331.686 592.04 328.304Z"/>
	<path fill="#16043E" d="M634.107 306.755C635.607 306.903 637.062 306.92 638.142 308.128C639.709 309.88 640.15 312.502 640.033 314.78C639.775 319.773 638.087 323.891 634.341 327.195C633.326 326.902 632.17 326.514 631.26 325.978C630.141 325.319 629.894 324.619 629.532 323.438C630.074 320.858 631.563 319.5 633.304 317.621C633.181 314.026 631.956 309.888 634.107 306.755Z"/>
	<path fill="#2A0E59" d="M656.006 217.673C657.153 217.572 658.293 217.536 659.444 217.524C690.397 217.201 685.294 250.222 702.199 266.607C711.192 275.324 719.656 276.695 731.707 276.424Q731.114 278.086 730.351 279.678C726.673 287.364 719.757 290.488 712.206 293.155Q711.357 293.434 710.494 293.663C695.374 297.646 678.177 287.23 671.173 274.05C667.857 267.808 666.533 260.042 662.286 254.371C659.962 251.268 655.949 249.205 652.652 247.312C648.274 238.708 643.737 231.339 637.405 224.043C643.257 220.276 649.178 218.698 656.006 217.673Z"/>
	<path fill="#FEFEFD" d="M880.226 856.484C886.479 862.839 888.116 873.483 894.615 879.546C898.356 883.037 904.638 884.466 909.227 886.623C915.823 889.724 921.301 893.753 926.544 898.775C919.146 905.452 910.533 911.22 902.527 917.161C886.852 928.796 870.949 940.319 855.654 952.443C853.879 953.866 851.927 954.974 849.979 956.138C851.615 942.485 855.489 928.154 870.497 924.322C873.686 923.508 876.694 923.602 879.122 921.097C879.637 919.891 879.916 918.818 879.43 917.519C879.147 916.761 878.646 916.217 877.925 915.888C874.317 914.241 868.525 917.097 865.109 918.34C868.189 913.067 877.963 900.468 878.394 895.518C878.501 894.296 878.212 893.289 877.552 892.266C875.827 889.588 870.292 885.79 867.637 883.346C863.505 879.545 859.493 875.599 855.928 871.254C863.708 865.919 871.688 860.519 880.226 856.484Z"/>
	<path fill="#9F8BE8" d="M858.57 664.742Q896.281 664.439 933.992 664.53L933.905 693.974L919.25 694.101L843.062 694.112C843.221 684.381 843.952 674.63 844.536 664.915L858.57 664.742Z"/>
	<path fill="#FEFEFD" d="M684.086 311.753L684.301 311.894C684.97 313.541 681.523 327.414 681.031 330.041C679.318 339.195 677.745 348.427 676.821 357.698C673.775 388.285 677.125 418.007 680.431 448.423C673.595 446.328 666.314 444.048 660.522 439.709C653.045 434.107 649.814 426.641 648.581 417.62C648.281 393.937 648.724 379.344 631.81 360.609C633.21 358.648 634.877 356.901 636.489 355.113C644.135 361.387 650.854 369.583 659.112 375.001C671.538 360.072 677.786 331.97 676.125 312.974C678.758 312.388 681.412 312.081 684.086 311.753Z"/>
	<path fill="#9F8BE8" d="M842.172 489.482L933.585 489.36L933.552 519.68C907.576 520.007 881.57 519.685 855.59 519.711C852.453 508.979 847.795 499.112 842.172 489.482Z"/>
	<path fill="#9F8BE8" d="M356.563 488.745C364.152 488.68 371.813 488.41 379.39 488.861L379.411 507.457L272.75 507.537L248.922 507.591L248.949 488.79L356.563 488.745Z"/>
	<path fill="#FEFEFD" d="M623.387 594.624C625.58 595.383 627.91 595.766 630.179 596.242C617.172 627.182 605.44 658.745 592.941 689.901L503.528 912.475L496.834 911.941C502.095 894.817 509.75 877.937 516.334 861.271L558.621 756.176L599.535 654.365C607.382 634.543 614.345 613.919 623.387 594.624Z"/>
	<path fill="#9F8BE8" d="M147.963 126.613L279.927 126.835C279.935 132.685 279.99 138.522 279.596 144.362C274.851 144.826 269.799 144.497 265.022 144.479L238.445 144.417L147.986 144.036L147.963 126.613Z"/>
	<path fill="#FEFEFD" d="M403.415 907.939C434.302 912.093 465.385 915.159 496.312 919.039C521.081 922.146 545.72 926.162 570.576 928.571C567.651 932.348 565.361 935.975 563.486 940.381C562.968 941.313 563.221 941.144 562.484 941.637C561.833 942.074 561.296 941.883 560.556 941.819C552.8 941.152 544.967 939.713 537.245 938.671Q510.045 935.086 482.884 931.213C454.832 927.418 426.442 924.834 398.504 920.359L403.415 907.939Z"/>
	<path fill="#9F8BE8" d="M435.07 932.594C448.585 935.351 462.667 935.599 476.29 938.068Q475.939 939.104 475.529 940.118C468.458 957.438 448.283 976.083 431.075 983.189C417.189 981.73 403.323 979.935 389.457 978.293C409.994 968.799 424.274 951.998 435.07 932.594Z"/>
	<path fill="#E0DDFB" d="M209.467 706.686L288.343 706.625Q323.508 706.89 358.671 706.502C354.204 708.019 349.943 710.419 345.66 712.406C338.384 715.432 330.441 720.297 322.755 721.816C313.708 723.603 297.391 722.37 287.496 722.361L209.427 722.181Q209.353 714.433 209.467 706.686Z"/>
	<path fill="#9F8BE8" d="M484.946 939.198C498.839 941.277 513.133 941.954 526.887 944.737C517.975 963.533 505.941 977.403 487.437 987.05C473.641 987.244 459.284 986.508 445.59 984.886C463.676 971.408 474.404 959.044 484.946 939.198Z"/>
	<path fill="#E0DDFB" d="M335.863 346.442C337.294 348.722 336.722 397.191 336.754 403.876Q309.075 403.721 281.397 403.986L280.595 403.704C281.712 400.573 328.932 353.059 335.863 346.442Z"/>
	<path fill="#9F8BE8" d="M395.387 927.653L426.673 931.176C417.892 948.987 401.946 964.536 383.646 972.363C372.496 976.337 366.329 973.33 355.402 970.373C372.269 959.525 384.663 944.355 395.387 927.653Z"/>
	<path fill="#FEFEFD" d="M661.326 541.907C662.507 542.482 663.042 543.227 663.922 544.173C668.658 549.267 673.943 553.451 679.339 557.793C668.032 570.435 654.417 577.876 639.556 585.464C636.443 586.98 632.056 589.77 628.439 589.003C627.046 588.708 626.226 588.112 625.449 586.921C622.469 582.352 628.121 571.567 629.689 566.997C630.906 563.449 631.911 559.808 632.963 556.207C643.144 552.537 653.023 549.084 661.326 541.907Z"/>
	<path fill="#9F8BE8" d="M883.334 832.983C900.171 832.589 917.1 832.799 933.942 832.881C933.97 838.126 935.012 855.089 933.4 858.86L932.125 859.111L891.366 859.04C889.629 856.887 888.162 854.548 886.647 852.236L890.128 848.856C888.667 843.511 885.483 838.13 883.334 832.983Z"/>
	<path fill="#9F8BE8" d="M534.956 945.867C543.289 947.453 551.803 948.042 560.122 949.752C558.026 963.405 551.175 975.1 540.492 983.789C535.958 984.538 531.456 985.147 526.882 985.588C518.786 986.832 510.203 986.932 502.015 987.464C516.878 977.081 526.78 961.685 534.956 945.867Z"/>
	<path fill="#9F8BE8" d="M774.171 832.922L802.048 832.897C810.447 841.245 819.757 849.32 827.431 858.317L817.75 858.166L763.742 857.96C767.271 849.634 770.579 841.224 774.171 832.922Z"/>
	<path fill="#E0DDFB" d="M287.241 514.626L338.496 514.434C337.542 521.861 335.689 526.87 330.963 532.768C326.629 536.478 322.007 539.31 316.235 540.139C309.658 541.084 302.64 539.116 297.444 534.988C291.059 529.915 288.001 522.552 287.241 514.626Z"/>
	<path fill="#E0DDFB" d="M192.845 151.97C207.949 151.409 223.327 151.825 238.446 151.937C238.305 159.723 237.005 164.759 231.785 170.744C227.102 175.025 221.733 178.032 215.226 178.115C209.379 178.191 203.923 175.661 199.822 171.565C194.189 165.939 192.882 159.601 192.845 151.97Z"/>
	<path fill="#FEFEFD" d="M656.913 314.214C657.112 314.221 657.311 314.226 657.51 314.236C660.646 314.394 666.818 314.352 668.785 317.233C671.309 320.93 666.333 341.763 664.926 346.257C663.939 349.409 659.513 362.341 657.04 363.644L655.518 362.664Q648.029 355.608 640.381 348.725C647.23 337.609 655.005 327.428 656.913 314.214Z"/>
	<path fill="#FEFEFD" d="M651.651 255.784C651.847 255.848 652.047 255.9 652.239 255.976C658.433 258.407 660.706 268.396 663.065 273.953C670.114 290.553 684.232 296.918 699.931 303.348L692.15 303.555C688.322 303.866 684.441 304.155 680.665 304.885C675.788 305.829 670.681 307.54 665.681 307.506C662.995 307.487 660.084 306.755 657.439 306.272C657.572 296.087 659.332 286.033 657.574 275.882C656.751 271.126 651.164 260.132 651.153 257.486C651.15 256.895 651.485 256.351 651.651 255.784Z"/>
	<path fill="#FEFEFD" d="M680.855 460.295C682.637 461.787 683.277 465.403 683.955 467.571Q677.617 484.295 670.912 500.876C666.574 511.346 658.799 526.782 657.204 537.792L650.165 541.429C648.96 541.874 649.587 541.798 648.284 541.637C647.843 538.646 677.324 468.179 680.855 460.295Z"/>
	<path fill="#CCBCFE" d="M575.767 935.343C577.19 941.743 576.037 957.668 575.879 964.835C571.116 970.872 563.659 974.989 556.979 978.534C556.848 977.706 556.76 978.073 557.169 977.423C559.601 973.559 562.3 969.549 563.984 965.284C568.501 953.844 568.809 946.37 575.767 935.343Z"/>
	<path fill="#FEFEFD" d="M629.579 230.355C630.826 230.43 631.812 230.538 632.936 231.174C637.535 233.773 641.75 240.315 643.143 245.321C643.667 247.207 643.91 248.711 642.89 250.487C641.48 250.764 641.196 250.3 639.995 249.579C634.49 245.78 629.132 242.913 622.961 240.332C624.778 236.425 626.359 233.351 629.579 230.355Z"/>
	<path fill="#E0DDFB" d="M201.029 709.503C201.057 709.527 201.094 709.543 201.114 709.574C202.478 711.705 201.554 719.204 201.536 722.011L173.637 721.982L173.399 721.821L173.354 721.335C182.692 717.688 191.811 713.447 201.029 709.503Z"/>
	<path fill="#9F8BE8" d="M781.738 812.957C785.866 816.553 789.487 821.011 793.136 825.102C791.714 825.667 790.264 825.483 788.75 825.473L775.905 825.415C777.676 821.174 779.706 817.076 781.738 812.957Z"/>
	<path fill="#FEFEFD" d="M719.439 298.606C720.369 301.402 719.672 305.679 719.547 308.623C717.603 307.903 716.005 306.918 714.26 305.806L708.681 301.793Q714.092 300.306 719.439 298.606Z"/>
</svg>
