<?xml version="1.0" encoding="utf-8" ?>
<svg xmlns="http://www.w3.org/2000/svg" xmlns:xlink="http://www.w3.org/1999/xlink" width="1024" height="1024">
	<path fill="#0B0331" d="M0 0L1024 0L1024 328.332L1024 340.03L1024 579.437L1024 594.59L1024 993.108L1024 1010.01L1024 1024L900.021 1024L889.013 1024L0 1024L0 0Z"/>
	<path fill="#9F8BE8" d="M0 0L1024 0L1024 328.332C1016.79 322.29 1010.53 318.853 1000.89 318.368L934.008 266.533C926.629 260.861 911.936 251.514 906.417 244.978C903.297 241.283 900.837 236.62 898.295 232.511L884.927 210.848L836.356 133.807C824.346 114.742 812.982 94.4098 798.417 77.1549C793.434 71.2516 787.785 66.2138 781.113 62.3013C777.959 60.4516 775.02 58.7886 771.456 57.8357C761.89 55.2778 751.82 53.7664 742.081 51.9621C722.681 48.3676 703.274 45.1446 683.841 41.7807Q664.557 38.2703 645.209 35.1345C638.684 34.0665 631.924 32.5371 625.315 32.2857C616.646 31.956 607.745 34.2755 599.395 36.4569C551.751 48.9037 488.275 66.6227 462.081 112.276C459.843 116.176 456.25 122.494 457.705 127.074C458.538 129.699 460.473 130.538 462.784 131.659C453.219 135.286 443.87 139.974 434.512 144.128Q414.531 152.857 394.428 161.301Q366.767 172.827 339.364 184.954C329.77 189.128 319.905 193.026 310.571 197.735C308.562 198.748 306.133 200.092 304.782 201.931C303.488 203.691 303.198 206.224 303.542 208.327C304.191 212.295 306.475 216.643 307.975 220.401L316.911 242.694C323.179 258.284 328.651 274.444 335.791 289.638C336.812 291.81 339.051 296.95 341.165 298.108C344.691 300.04 349.798 299.341 353.553 298.537C353.677 298.44 353.803 298.346 353.924 298.246C357.537 295.277 360.044 290.828 363.125 287.309C371.895 277.295 384.638 270.713 398.149 271.935C402.317 272.312 406.286 273.531 410.229 274.872C401.568 279.198 392.517 282.512 383.716 286.506C373.982 290.923 364.53 295.873 354.648 299.978Q325.547 313.229 296.197 325.919C286.306 330.301 276.573 335.013 266.641 339.309Q247.998 347.378 229.514 355.806C223.797 358.395 217.238 360.775 211.915 364.06C210.552 364.901 209.504 365.998 208.99 367.54C208.487 369.05 208.772 370.621 209.56 371.967C212.05 376.217 218.482 377.245 222.398 379.894C233.646 387.5 238.404 403.318 235.549 416.176Q235.353 417.082 235.112 417.977Q234.872 418.873 234.586 419.755Q234.301 420.637 233.972 421.504Q233.643 422.37 233.271 423.219Q232.899 424.069 232.486 424.898Q232.072 425.728 231.617 426.536Q231.162 427.344 230.668 428.128Q230.173 428.912 229.64 429.67Q229.107 430.429 228.537 431.16Q227.966 431.891 227.36 432.592Q226.754 433.293 226.113 433.964Q225.473 434.634 224.8 435.272Q224.127 435.909 223.423 436.512Q222.719 437.115 221.985 437.682Q221.252 438.249 220.491 438.779Q219.73 439.309 218.944 439.8C211.305 444.636 202.396 446.481 193.544 444.462C182.983 442.053 174.444 436.605 168.675 427.315C164.252 420.192 161.876 410.281 163.793 401.983C164.663 398.215 167.948 391.953 165.818 388.33C164.987 386.917 163.541 385.873 161.92 385.619C160.804 385.445 159.412 385.99 158.4 386.396C149.771 389.863 79.3655 422.005 76.2545 424.942C73.9473 427.121 72.9974 429.59 73.016 432.758C73.0383 436.558 75.0399 440.579 76.5485 443.994C85.361 463.943 94.7622 483.657 103.725 503.543L205.52 728.1L266.916 865.608C279.516 894.069 291.799 923.306 305.071 951.412C306.484 954.405 308.237 957.348 310.725 959.571C312.4 961.068 314.13 961.92 316.256 962.587C327.907 959.495 341.058 952.197 352.299 947.136Q400.254 925.11 447.962 902.552Q529.565 865.194 610.632 826.687C639.043 813.426 668.811 801.698 696.021 786.1C715.313 822.041 733.647 858.267 760.893 889.072Q772.997 902.579 786.065 915.156Q799.133 927.734 813.093 939.312C826.613 950.351 840.998 959.872 853.011 972.675C867.415 988.026 877.16 1006.78 889.013 1024L0 1024L0 0Z"/>
	<path fill="#9F8BE8" d="M619.597 256.185C629.297 259.981 638.594 265.17 648.037 269.6C676.414 282.913 704.352 297.096 732.644 310.568L787.981 336.844C798.144 341.565 811.782 346.649 820.877 352.778C828.08 357.631 838.552 369.853 845.157 376.358C861.527 392.48 879.562 407.865 894.181 425.595C893.024 427.461 891.437 429.714 891.044 431.892C890.386 435.54 893.372 438.671 895.642 441.144C905.326 451.693 915.509 461.775 925.052 472.46C937.189 486.052 948.536 500.322 960.204 514.313Q993.412 553.411 1024 594.59L1024 993.108C1018.78 984.08 1012.97 975.37 1007.48 966.498Q993.835 943.945 979.82 921.619C973.727 911.875 964.124 898.69 959.942 888.348C957.758 882.949 956.694 876.795 955.442 871.12L948.854 839.79L921.684 715.736Q919.489 706.266 917.754 696.7C916.772 691.012 916.22 685.104 914.565 679.565C913.212 675.039 911.166 671.172 908.184 667.526C897.841 654.88 878.829 641.024 865.568 631.197C862.124 628.645 858.63 625.453 854.829 623.497C837.131 614.393 769.819 603.735 748.61 606.498C736.841 608.032 726.214 612.89 715.027 616.432C710.213 617.956 705.236 618.846 700.409 620.393C692.076 617.632 683.325 616.117 674.875 613.715C666.726 591.643 656.492 570.33 646.963 548.837L609.071 463.402L585.631 411.27C581.922 403.017 577.889 394.868 574.391 386.526C581.061 383.057 588.174 380.468 595.068 377.478Q612.892 369.555 630.856 361.954C637.643 359.068 644.865 356.436 651.314 352.869C653.664 351.57 655.937 350.114 657.658 348.027C658.463 345.542 657.921 343.063 657.233 340.602C654.603 331.203 649.41 321.505 645.343 312.572L628.933 276.13C625.879 269.449 622.489 262.943 619.597 256.185Z"/>
	<path fill="#C8C2FA" d="M751.166 616.751C770.857 615.481 837.461 622.931 851.999 633.487C864.62 642.65 884.969 696.998 891.252 713.403C893.789 720.025 895.699 727.798 899.123 733.985C899.672 734.976 900.488 735.968 901.502 736.513C902.716 737.166 903.375 737.253 904.699 736.951C905.72 736.183 906.122 735.574 906.444 734.363C909.062 724.52 880.104 660.785 873.025 648.159C881.32 654.716 897.66 667.238 902.56 676.185C906.455 683.297 907.238 691.299 908.89 699.081L913.996 722.523Q925.929 780.168 938.901 837.589L945.988 870.797C947.454 877.574 948.618 884.657 951.051 891.17C955.191 902.255 965.2 915.481 971.583 925.837C988.921 953.964 1006.89 981.756 1024 1010.01L1024 1024L900.021 1024C887.992 1004.39 874.173 981.113 858.262 964.626C845.509 951.412 830.194 941.116 815.977 929.598C800.444 917.014 785.897 902.716 772.46 887.933Q766.099 880.819 760.144 873.362Q754.189 865.904 748.658 858.127Q743.127 850.349 738.038 842.276Q732.949 834.203 728.318 825.859C720.422 811.924 713.301 797.539 705.564 783.506C721.291 781.238 737.067 774.455 750.973 766.865C753.565 769.796 756.168 772.759 759.084 775.375C762.953 778.846 767.25 781.965 770.72 785.849C775.798 791.531 779.977 798.599 784.508 804.766C789.698 811.83 795.47 818.193 801.473 824.557C803.929 827.161 806.467 830.506 809.435 832.476C810.692 833.311 811.805 833.348 813.222 832.998C814.596 832.659 815.995 831.925 816.524 830.536C817.061 829.125 816.912 827.329 816.11 826.055C813.176 821.395 807.328 817.507 803.522 813.358C794.777 803.827 785.984 792.105 779.648 780.829C782.866 777.341 785.566 773.319 788.366 769.491C790.326 772.182 792.526 776.08 795.514 777.701Q795.769 777.842 796.037 777.955Q796.306 778.068 796.585 778.151Q796.864 778.235 797.151 778.287Q797.437 778.34 797.728 778.362Q798.019 778.383 798.31 778.373Q798.601 778.363 798.889 778.322Q799.178 778.281 799.46 778.208Q799.742 778.136 800.015 778.034C801.326 777.544 802.81 776.161 803.223 774.822C803.583 773.657 803.18 772.772 802.587 771.786C801.317 769.677 799.231 767.928 797.724 765.955C794.555 761.806 791.779 757.199 789.111 752.714C782.414 741.458 776.548 729.713 769.825 718.507C765.353 711.053 760.185 703.958 755.038 696.96C751.455 692.087 747.776 686.755 743.283 682.69C737.806 677.734 729.881 675.503 723.143 672.709Q708.436 666.623 693.847 660.257C676.692 652.813 659.864 646.128 648.159 630.668C658.173 634.027 670.113 642.419 680.812 641.741C683.788 641.553 686.791 640.684 688.711 638.256C691.283 635.002 690.907 631.388 690.505 627.553C706.946 632.451 723.479 636.907 740.005 641.497C750.53 644.421 763.183 646.752 772.744 652.025C780.058 656.06 790.252 675.094 795.492 682.296C811.023 703.644 828.259 723.525 844.774 744.094C847.473 747.456 857.304 761.107 860.076 762.914C861.382 763.765 862.717 763.772 864.164 763.342C865.895 762.827 866.687 762.114 867.544 760.597C867.725 758.47 867.178 756.896 866.016 755.103C862.353 749.453 856.804 744.136 852.536 738.831C838.404 721.262 823.623 704.207 810.229 686.047C802.552 675.637 786.981 650.003 776.927 643.741C765.316 636.509 731.836 629.792 716.938 626.194Q728.97 626.069 740.987 626.69C755.291 627.545 812.691 633.189 822.528 638.619C826.244 640.67 829.262 644.329 831.669 647.765C840.047 659.725 845.944 673.258 852.645 686.181C859.728 699.841 867.331 713.245 874.345 726.93C876.587 731.303 879.843 742.581 884.537 744.299C885.735 744.737 887.056 744.476 888.147 743.874C889.311 743.23 890.415 742.487 890.802 741.164C890.728 739.185 890.247 737.542 889.458 735.728C883.342 721.672 874.728 707.768 867.529 694.146L853.841 668.135C849.053 658.911 844.421 649.491 838.341 641.026C835.422 636.962 831.937 632.682 827.538 630.175C812.712 621.728 769.54 619.732 751.166 616.751Z"/>
	<path fill="#9F8BE8" d="M1005.12 328.039C1012.51 330.768 1017.76 335.403 1024 340.03L1024 579.437C1011.84 562.728 998.043 547.021 985.021 530.985C957.73 497.376 930.303 463.753 899.988 432.772C907.81 420.135 919.212 409.088 929.423 398.321C952.962 373.501 977.293 348.087 1005.12 328.039Z"/>
	<path fill="#C8C2FA" d="M620.904 41.184C630.247 42.0249 639.634 43.8502 648.904 45.2962Q681.019 50.473 713.053 56.1242Q731.27 59.3245 749.446 62.7505C756.769 64.1167 766.086 64.8397 772.82 68.0793C779.284 71.1888 785.516 76.5944 790.218 81.956C801.649 94.9885 810.61 110.932 819.919 125.525L863.085 193.584C871.625 207.086 879.781 220.841 888.293 234.37C891.931 240.152 895.392 246.698 899.821 251.869C905.213 258.164 913.603 262.775 920.171 267.953L967.691 304.931C976.384 311.661 985.226 318.158 993.649 325.231C968.597 344.623 945.575 368.022 923.964 391.139C915.929 399.735 907.471 408.349 900.249 417.625C886.844 403.452 872.059 390.366 858.205 376.605L839.267 357.526C834.968 353.183 830.623 348.366 825.646 344.799C820.656 341.224 814.098 339.034 808.53 336.442L776.39 321.208L660.82 265.671C653.692 261.98 646.236 258.812 638.977 255.378C620.929 246.839 602.917 238.555 584.656 230.479C573.699 225.633 562.991 220.245 551.994 215.49C552.135 215.331 552.276 215.173 552.415 215.011L553.047 214.267C554.341 212.763 555.334 211.425 555.899 209.484C557.271 204.772 555.997 200.009 553.57 195.879C545.22 181.673 526.09 172.896 510.843 168.891C512.536 167.82 514.244 166.775 516.068 165.941C539.956 155.016 568.121 167.78 590.586 176.862C602.345 181.617 614.098 186.518 625.976 190.967C629.405 192.251 632.795 193.279 636.414 193.867C647.83 195.721 743.845 207.188 750.099 203.861C750.962 203.402 751.542 202.608 751.771 201.649C752.112 200.22 752.078 198.617 751.106 197.43C750.152 196.266 748.72 195.899 747.308 195.651C743.268 194.94 738.897 195.258 734.797 194.953C722.49 194.036 710.052 193.233 697.822 191.611C700.677 186.932 704.003 182.527 706.923 177.881C715.315 164.527 721.156 150.464 724.301 134.984C725.126 130.922 726.558 125.879 725.928 121.767C725.718 120.395 725.184 119.177 724.018 118.365C721.635 116.707 632.224 95.2637 624.353 93.5836C621.104 92.89 617.614 92.1358 614.278 92.119C608.731 92.0912 601.899 94.4158 596.382 95.5204C581.287 98.5426 566.082 101.384 551.084 104.84C549.487 102.573 547.955 99.809 545.238 98.781C543.657 98.1828 542.035 98.2131 540.401 98.5595C535.357 99.6283 530.311 102.137 525.545 104.105Q507.367 111.692 489.524 120.036C494.251 115.779 498.727 111.254 502.337 105.991C505.103 101.958 507.965 96.893 506.86 91.8371C506.101 88.3583 504.003 86.5688 501.112 84.7461C525.824 67.0361 556.074 58.5653 584.979 50.354C596.858 46.9792 608.742 43.3983 620.904 41.184Z"/>
	<path fill="#FEFEFE" d="M290.859 339.014L291.689 339.039C292.037 339.27 292.196 339.338 292.463 339.725C293.498 341.225 294.256 344.03 295.009 345.753L303.896 366.059C314.912 390.819 326.64 415.359 337.114 440.346C330.766 440.36 324.263 440.152 318.029 441.523C306.757 444.002 297.178 451.427 291.01 461.085Q290.414 462.015 289.865 462.973Q289.316 463.931 288.815 464.915Q288.314 465.898 287.862 466.906Q287.41 467.913 287.009 468.942Q286.607 469.971 286.257 471.018Q285.907 472.065 285.609 473.128Q285.311 474.191 285.066 475.268Q284.821 476.344 284.629 477.432Q284.437 478.519 284.3 479.615Q284.162 480.71 284.079 481.811Q283.995 482.912 283.966 484.016Q283.937 485.12 283.963 486.224Q283.989 487.328 284.069 488.429Q284.149 489.53 284.284 490.626Q284.418 491.722 284.607 492.81Q284.795 493.898 285.037 494.975Q285.272 496.019 285.559 497.05Q285.845 498.081 286.182 499.096Q286.519 500.112 286.905 501.11Q287.291 502.108 287.726 503.085Q288.16 504.063 288.642 505.018Q289.124 505.974 289.653 506.904Q290.181 507.834 290.755 508.738Q291.328 509.641 291.945 510.515Q292.562 511.389 293.222 512.232Q293.881 513.075 294.581 513.884Q295.28 514.693 296.019 515.468Q296.758 516.242 297.534 516.979Q298.309 517.715 299.12 518.413Q299.932 519.111 300.776 519.768Q301.62 520.426 302.496 521.041Q303.371 521.656 304.276 522.227Q305.18 522.784 306.111 523.296Q307.042 523.807 307.997 524.273Q308.952 524.738 309.928 525.156Q310.905 525.573 311.901 525.943Q312.897 526.312 313.91 526.631Q314.923 526.951 315.95 527.22Q316.978 527.49 318.017 527.708Q319.057 527.926 320.105 528.093Q321.154 528.26 322.21 528.375Q323.266 528.491 324.327 528.554Q325.387 528.617 326.449 528.627Q327.511 528.638 328.572 528.596Q329.634 528.555 330.692 528.461Q331.75 528.367 332.802 528.221Q333.854 528.076 334.898 527.878Q335.941 527.681 336.974 527.432C348.138 524.777 359.047 518.129 365.111 508.182C375.187 528.698 384.151 549.903 393.681 570.687L416.051 620.239C419.983 628.995 424.253 637.635 427.849 646.534C419.696 650.967 410.673 654.466 402.214 658.317C388.531 664.545 374.926 671.013 361.113 676.944C361.944 671.386 362.054 665.3 360.936 659.774Q360.718 658.735 360.45 657.708Q360.182 656.68 359.863 655.667Q359.545 654.654 359.177 653.658Q358.81 652.662 358.394 651.685Q357.978 650.708 357.514 649.753Q357.051 648.798 356.541 647.866Q356.032 646.935 355.477 646.03Q354.922 645.124 354.324 644.247Q353.726 643.37 353.085 642.523Q352.444 641.677 351.763 640.862Q351.082 640.048 350.361 639.268Q349.641 638.488 348.883 637.745Q348.125 637.001 347.332 636.295Q346.538 635.59 345.711 634.924Q344.884 634.258 344.026 633.633Q343.167 633.009 342.279 632.427C332.018 625.705 319.984 623.674 308.01 626.206Q306.914 626.428 305.83 626.703Q304.746 626.979 303.677 627.309Q302.609 627.639 301.558 628.021Q300.507 628.404 299.476 628.838Q298.446 629.273 297.438 629.758Q296.431 630.243 295.448 630.778Q294.466 631.313 293.512 631.896Q292.558 632.479 291.634 633.109Q290.71 633.74 289.818 634.415Q288.927 635.09 288.07 635.809Q287.213 636.528 286.394 637.289Q285.574 638.05 284.793 638.85Q284.012 639.651 283.272 640.49Q282.532 641.328 281.835 642.203Q281.138 643.077 280.485 643.985Q279.833 644.893 279.226 645.833C273.148 655.449 270.55 668.273 273.215 679.421C276.17 691.78 284.575 700.775 295.118 707.261Q280.028 714.246 265.16 721.694C250.462 728.302 235.586 734.748 221.138 741.882C211.117 715.644 198.325 690.28 186.683 664.716L123.727 525.169Q108.921 493.156 94.6532 460.9C90.2914 451.252 85.3583 441.806 81.4687 431.957C90.5868 427.107 100.141 423.07 109.537 418.797L155.55 397.911C153.789 405.601 153.428 412.938 155.566 420.62C158.905 432.617 167.468 442.454 178.289 448.427Q179.271 448.972 180.279 449.467Q181.288 449.963 182.319 450.407Q183.351 450.851 184.404 451.244Q185.456 451.636 186.527 451.975Q187.598 452.314 188.684 452.6Q189.771 452.885 190.87 453.116Q191.969 453.347 193.079 453.522Q194.188 453.698 195.305 453.818Q196.422 453.938 197.543 454.002Q198.665 454.066 199.788 454.074Q200.911 454.082 202.034 454.034Q203.156 453.986 204.274 453.882Q205.393 453.778 206.505 453.618Q207.617 453.459 208.719 453.244Q209.822 453.029 210.912 452.759Q212.002 452.489 213.078 452.165C224.613 448.768 234.837 440.685 240.472 430.005C246.077 419.383 247.159 406.163 243.598 394.716C240.009 383.179 232.398 375.143 221.896 369.573C229.983 364.981 239.018 361.465 247.511 357.646C261.834 351.204 276.158 344.554 290.859 339.014Z"/>
	<path fill="#FEFEFE" d="M316.015 634.208C323.391 633.851 330.348 635.605 336.587 639.577C346.771 646.059 354.632 659.148 352.789 671.525C352.153 675.792 348.468 682.588 349.831 686.684C350.213 687.831 351.082 688.686 352.216 689.084C353.444 689.516 354.448 689.308 355.652 688.926C366.129 685.599 376.723 679.849 386.712 675.251C401.523 668.433 416.473 661.924 431.239 655.013C434.193 659.605 436.351 664.966 438.717 669.886C444.292 681.483 449.596 693.047 454.523 704.939C452.065 704.934 449.608 704.944 447.156 705.125C434.458 706.063 422.489 711.556 414.197 721.366C406.542 730.423 403.372 741.606 404.48 753.342Q404.583 754.426 404.74 755.504Q404.897 756.581 405.107 757.65Q405.317 758.719 405.58 759.776Q405.842 760.832 406.157 761.875Q406.471 762.918 406.837 763.944Q407.202 764.969 407.618 765.976Q408.034 766.982 408.499 767.967Q408.964 768.952 409.478 769.912Q409.991 770.873 410.551 771.807Q411.111 772.741 411.717 773.646Q412.322 774.551 412.972 775.425Q413.621 776.299 414.313 777.14Q415.005 777.981 415.738 778.787Q416.471 779.593 417.242 780.361Q418.014 781.13 418.823 781.859Q419.631 782.588 420.475 783.277C429.531 790.623 442.661 794.187 454.207 792.884C467.768 791.353 477.818 783.403 486.108 773.068C492.385 784.513 497.228 796.831 502.473 808.775C509.502 824.782 516.749 840.646 523.516 856.773C499.37 870.079 473.495 880.406 448.625 892.325Q406.798 912.109 364.687 931.281C348.856 938.642 332.344 947.551 316.02 953.446C312.18 946.085 309.074 938.076 305.658 930.482L279.986 872.504L242.652 788.509C236.99 775.676 230.673 763.023 225.49 749.997C244.699 740.662 264.252 731.962 283.597 722.91C291.256 719.326 303.615 714.494 310.016 709.587C310.732 708.277 310.958 707.756 310.833 706.204C308.879 702.211 297.778 698.625 293.354 695.008Q292.724 694.495 292.12 693.952Q291.517 693.408 290.941 692.835Q290.365 692.263 289.818 691.662Q289.271 691.062 288.754 690.435Q288.238 689.808 287.753 689.156Q287.268 688.505 286.816 687.83Q286.364 687.155 285.946 686.458Q285.528 685.762 285.145 685.046Q284.762 684.329 284.415 683.595Q284.068 682.86 283.758 682.11Q283.447 681.359 283.175 680.594Q282.902 679.829 282.667 679.051Q282.433 678.273 282.237 677.485Q282.042 676.697 281.885 675.899Q281.729 675.102 281.612 674.299Q281.496 673.495 281.419 672.686Q281.347 671.818 281.319 670.947Q281.29 670.076 281.305 669.204Q281.319 668.333 281.377 667.463Q281.434 666.594 281.535 665.728Q281.635 664.863 281.778 664.003Q281.921 663.143 282.106 662.292Q282.291 661.44 282.519 660.599Q282.746 659.758 283.014 658.929Q283.282 658.1 283.591 657.285Q283.9 656.47 284.249 655.671Q284.598 654.873 284.986 654.092Q285.374 653.312 285.8 652.552Q286.226 651.792 286.688 651.053Q287.151 650.315 287.65 649.6Q288.149 648.886 288.683 648.197Q289.216 647.508 289.783 646.846C296.608 638.743 305.633 635.034 316.015 634.208Z"/>
	<path fill="#FEFEFE" d="M523.624 537.661C530.538 536.768 538.285 538.575 544.35 541.915C555.428 548.017 563.782 561.836 562.614 574.695C562.216 579.076 558.366 586.382 559.917 590.48C560.24 591.333 561.409 592.11 562.247 592.453C563.187 592.837 564.125 592.94 565.112 592.645C573.369 590.177 581.906 585.185 589.747 581.553Q615.312 569.691 641.042 558.192C649.467 575.95 657.063 594.243 664.977 612.237C658.365 610.681 650.702 608.751 643.904 609.127C641.26 609.274 638.471 609.895 636.694 612.017C634.883 614.18 634.745 617.202 635.032 619.882C636.041 629.331 642.251 640.184 649.246 646.479C652.672 649.562 656.608 652.007 660.145 654.963C656.459 654.898 652.97 654.972 649.415 656.08C644.9 657.488 640.719 660.32 638.583 664.653C630.597 680.86 664.254 725.665 672.938 740.065C676.217 745.502 678.906 751.237 681.82 756.869C685.429 763.844 689.484 770.65 692.006 778.111C670.768 788.981 648.865 798.791 627.219 808.822L570.848 835.282C558.202 841.578 545.288 847.473 532.495 853.468C528.727 843.703 523.993 834.092 519.669 824.549Q509.438 801.699 498.78 779.046C495.88 772.94 493.871 765.752 490.323 760.033C489.489 758.688 488.576 757.279 486.946 756.928C481.657 757.702 477.289 770.654 473.05 774.858C466.912 780.943 456.845 784.759 448.264 784.637Q447.373 784.623 446.484 784.565Q445.595 784.507 444.709 784.405Q443.824 784.304 442.945 784.158Q442.065 784.013 441.194 783.825Q440.323 783.636 439.463 783.405Q438.602 783.174 437.754 782.901Q436.906 782.628 436.072 782.313Q435.238 781.999 434.421 781.643Q433.604 781.288 432.805 780.893Q432.006 780.497 431.228 780.063Q430.45 779.629 429.694 779.157Q428.938 778.685 428.206 778.177Q427.475 777.668 426.769 777.124Q426.063 776.58 425.385 776.002Q424.707 775.424 424.058 774.813Q423.409 774.202 422.791 773.56C416.516 766.958 412.813 757.241 413.161 748.129C413.506 739.086 417.86 729.438 424.584 723.353C432.448 716.237 443.704 712.31 454.303 713.906C457.337 714.363 460.489 715.954 463.541 715.928C465.164 715.915 465.718 715.374 466.73 714.274C467.244 712.504 467.161 711.261 466.592 709.502C464.86 704.155 461.858 698.88 459.522 693.759C452.994 679.447 445.833 665.261 439.868 650.719C455.829 644.289 471.262 636.53 486.913 629.392C495.156 625.633 514.563 618.039 520.69 613.158C521.182 611.981 521.37 611.116 521.17 609.861C521.066 609.206 520.654 608.146 520.201 607.663C518.08 605.402 508.539 602.458 504.991 599.953C498.096 595.088 493.327 586.316 492.02 578.076C490.608 569.171 492.714 559.493 498.045 552.179C504.229 543.695 513.408 539.181 523.624 537.661Z"/>
	<path fill="#FEFEFE" d="M540.784 107.942L541.296 107.99C541.545 108.164 541.84 108.286 542.043 108.512C543.134 109.727 546.447 119.378 547.333 121.56C549.625 127.208 551.797 132.92 554.258 138.497C556.912 144.511 560.005 150.42 562.076 156.66C547.541 152.092 532.25 150.967 517.595 155.633C510.271 157.964 502.094 162.23 498.576 169.422C496.395 173.879 496.616 178.649 498.389 183.206C509.461 211.668 578.981 237.29 606.358 249.582C614.407 265.272 621.336 281.831 628.536 297.936C635.37 313.222 642.624 328.354 648.803 343.926C640.155 347.753 565.272 381.15 563.119 381.24C560.937 379.572 560.911 377.635 561.176 375.027C561.45 372.34 562.886 369.955 563.829 367.467C566.527 360.348 567.317 351.329 565.811 343.865C563.781 333.797 557.7 324.225 549.066 318.565C540.346 312.848 529.128 311.591 519.076 313.768Q517.917 314.025 516.771 314.338Q515.626 314.652 514.497 315.02Q513.368 315.388 512.258 315.81Q511.148 316.233 510.06 316.708Q508.972 317.184 507.908 317.712Q506.844 318.239 505.807 318.818Q504.77 319.396 503.762 320.025Q502.754 320.653 501.778 321.329Q500.802 322.005 499.859 322.727Q498.917 323.45 498.011 324.217Q497.104 324.985 496.236 325.795Q495.368 326.605 494.54 327.457Q493.712 328.308 492.927 329.199Q492.141 330.089 491.399 331.016Q490.657 331.944 489.962 332.906Q489.266 333.868 488.617 334.863C481.783 345.507 479.106 357.665 481.976 370.084C486.114 387.994 496.039 393.104 510.289 402.141C504.529 407.831 479.073 417.428 470.047 421.51C449.552 430.792 428.801 439.46 408.328 448.815L384.576 388.251C381.419 380.203 373.422 362.812 372.48 354.965C372.409 354.372 372.176 353.629 372.668 353.185C375.666 350.477 387.971 353.721 392.357 353.662C404.473 353.499 416.61 347.779 425.018 339.102Q425.842 338.253 426.623 337.363Q427.403 336.473 428.138 335.546Q428.874 334.619 429.562 333.656Q430.249 332.693 430.888 331.696Q431.527 330.7 432.116 329.673Q432.704 328.646 433.24 327.591Q433.776 326.536 434.259 325.456Q434.742 324.375 435.17 323.272Q435.599 322.169 435.971 321.045Q436.344 319.922 436.66 318.782Q436.975 317.641 437.234 316.486Q437.493 315.331 437.693 314.165Q437.893 312.998 438.035 311.823Q438.177 310.649 438.26 309.468Q438.343 308.287 438.367 307.104Q438.391 305.921 438.356 304.738C438.005 292.656 432.679 281.517 423.805 273.34C415.548 265.729 403.182 262.002 392.071 262.608Q390.839 262.684 389.613 262.82Q388.386 262.956 387.168 263.152Q385.949 263.348 384.742 263.604Q383.534 263.86 382.341 264.175Q381.148 264.49 379.972 264.864Q378.795 265.237 377.639 265.668Q376.482 266.099 375.349 266.586Q374.215 267.073 373.106 267.616Q371.998 268.158 370.917 268.755Q369.837 269.351 368.787 270Q367.737 270.649 366.721 271.349Q365.704 272.048 364.723 272.797Q363.742 273.546 362.799 274.342Q361.856 275.139 360.954 275.981Q360.051 276.822 359.191 277.707Q358.331 278.593 357.516 279.519C354.93 282.465 352.911 286.127 350.215 288.888C349.115 290.014 348.175 290.112 346.672 290.061C345.446 288.611 344.594 286.991 343.813 285.268C336.636 269.436 330.934 252.89 324.46 236.765C321.068 228.317 314.21 214.93 312.695 206.539L452.28 146.518L505.936 122.742C517.387 117.653 528.953 112.063 540.784 107.942Z"/>
	<path fill="#FEFEFE" d="M515.949 323.453L517.743 323.378C522.051 325.098 523.102 333.356 526.212 336.814C527.134 337.839 528.254 338.519 529.687 338.439C532.434 338.285 534.751 335.846 536.514 334.002C542.636 345.698 549.232 357.245 554.158 369.512C553.094 371.411 552.286 373.385 551.448 375.389C554.437 395.158 563.946 385.542 568.61 395.108C575.328 408.889 581.087 423.299 587.317 437.319L617.762 505.304L629.47 532.233C631.956 537.996 634.268 544.489 637.628 549.799L594.82 569.329C586.943 573.002 578.924 577.737 570.714 580.495C571.062 575.701 571.425 570.994 570.802 566.202Q570.658 565.153 570.462 564.111Q570.267 563.07 570.021 562.04Q569.775 561.009 569.479 559.992Q569.183 558.975 568.838 557.973Q568.493 556.972 568.099 555.988Q567.706 555.005 567.265 554.041Q566.824 553.078 566.337 552.137Q565.849 551.197 565.316 550.281Q564.784 549.365 564.207 548.477Q563.63 547.588 563.011 546.729Q562.392 545.869 561.731 545.041Q561.071 544.213 560.371 543.418Q559.67 542.623 558.932 541.863Q558.194 541.103 557.42 540.379Q556.646 539.656 555.837 538.972Q555.029 538.287 554.188 537.643Q553.331 536.979 552.442 536.358Q551.552 535.738 550.633 535.163Q549.714 534.588 548.767 534.059Q547.819 533.531 546.847 533.051Q545.875 532.571 544.879 532.141Q543.884 531.71 542.869 531.33Q541.853 530.95 540.819 530.622Q539.786 530.293 538.737 530.017Q537.689 529.741 536.628 529.518Q535.566 529.295 534.495 529.125Q533.424 528.956 532.346 528.84Q531.268 528.725 530.185 528.663Q529.103 528.602 528.018 528.595Q526.934 528.589 525.851 528.636Q524.767 528.684 523.688 528.786Q522.608 528.888 521.535 529.044C509.523 530.779 498.483 536.59 491.249 546.476C484.283 555.995 481.143 567.694 483.058 579.391Q483.24 580.459 483.473 581.517Q483.706 582.575 483.991 583.62Q484.276 584.665 484.611 585.696Q484.946 586.726 485.331 587.738Q485.716 588.751 486.15 589.743Q486.584 590.736 487.066 591.706Q487.548 592.677 488.077 593.622Q488.605 594.568 489.18 595.486Q489.754 596.405 490.372 597.295Q490.99 598.184 491.651 599.043Q492.312 599.901 493.014 600.727Q493.716 601.552 494.457 602.342Q495.198 603.132 495.977 603.885Q496.756 604.638 497.571 605.352Q498.385 606.066 499.234 606.739Q500.083 607.413 500.963 608.044L505.467 610.768C483.02 622.468 459.496 632.396 436.49 642.96C432.654 636.424 429.914 629.058 426.757 622.161Q416.436 599.793 406.473 577.263C394.929 551.311 382.07 525.746 371.452 499.419C378.356 501.04 384.832 501.954 391.899 500.967Q392.923 500.831 393.94 500.644Q394.956 500.457 395.962 500.22Q396.968 499.983 397.961 499.697Q398.954 499.41 399.932 499.075Q400.909 498.739 401.869 498.356Q402.829 497.973 403.769 497.543Q404.708 497.112 405.626 496.636Q406.543 496.159 407.435 495.638Q408.328 495.117 409.193 494.552Q410.059 493.988 410.895 493.381Q411.732 492.774 412.537 492.126Q413.343 491.479 414.115 490.792Q414.888 490.106 415.625 489.382Q416.363 488.657 417.064 487.898Q417.764 487.138 418.427 486.345Q419.089 485.551 419.711 484.726C427.31 474.603 429.394 462.194 427.581 449.912C430.557 448.435 433.639 447.191 436.696 445.893L482.165 426.205C491.836 422.064 502.531 418.304 511.625 413.054C514.092 411.63 517.24 409.627 518.243 406.833C522.19 395.832 509.477 392.047 502.881 386.959Q501.418 385.829 500.09 384.545Q498.761 383.26 497.582 381.836Q496.404 380.413 495.39 378.867Q494.376 377.322 493.539 375.674C489.171 367.1 488.866 358.075 491.84 349.024C495.896 336.679 504.642 329.169 515.949 323.453Z"/>
	<path fill="#FEFEFE" d="M417.97 281.424C418.565 281.446 418.749 281.384 419.272 281.635C423.301 283.573 427.03 292.594 428.136 296.811Q428.372 297.712 428.564 298.625Q428.755 299.537 428.901 300.457Q429.047 301.378 429.148 302.304Q429.248 303.231 429.302 304.161Q429.356 305.091 429.364 306.023Q429.372 306.955 429.333 307.886Q429.295 308.818 429.21 309.746Q429.126 310.674 428.995 311.597Q428.865 312.519 428.689 313.435Q428.513 314.35 428.292 315.255Q428.07 316.16 427.805 317.054Q427.539 317.947 427.229 318.826Q426.919 319.705 426.566 320.567Q426.213 321.43 425.818 322.274Q425.422 323.118 424.986 323.941Q424.549 324.764 424.072 325.565C417.483 336.517 403.447 345.934 390.262 344.904C384.157 344.428 378.374 341.525 372.18 343.214C369.25 344.013 366.524 345.577 365.043 348.324C363.389 351.392 363.273 355.47 363.827 358.835C364.74 364.389 367.488 370.062 369.504 375.297C373.851 386.578 378.593 397.748 382.409 409.219C378.681 409.542 375.278 410.18 371.757 411.481C359.224 416.112 351.205 424.972 345.771 436.899L342.238 429.357C332.011 408.411 323.047 386.84 313.753 365.473C309.294 355.224 303.711 345.262 300.259 334.623L393.394 292.335C401.557 288.62 409.879 285.307 417.97 281.424Z"/>
	<path fill="#FEFEFE" d="M380.252 418.606L386.325 418.457C390.467 427.977 393.895 437.746 397.842 447.335C399.296 450.866 401.576 455.916 405.411 457.297C409.845 458.894 414.873 456.086 418.819 454.351C418.658 463.328 417.471 470.903 412.461 478.526C405.255 489.489 392.788 494.075 380.022 491.836C375.344 491.016 370.004 488.988 365.296 489.959C361.831 492.271 360.65 495.951 358.826 499.511C353.777 509.361 346.341 515.131 335.914 518.514C334.612 518.867 333.297 519.208 331.957 519.38C322.981 520.538 313.218 518.142 306.051 512.507C298.669 506.702 294.241 498.256 293.198 489.001C292.087 479.149 294.912 469.652 301.185 461.958C308.725 452.709 322.18 447.41 334.011 449.215C337.418 449.735 343.253 451.737 346.606 451.02C353.102 449.63 354.742 438.038 358.254 432.672C363.59 424.518 370.91 420.549 380.252 418.606Z"/>
	<path fill="#C8C2FA" d="M652.585 664.586C654.941 664.431 657.236 664.312 659.585 664.666C666.903 665.771 673.427 670.083 678.961 674.787C688.501 682.896 696.396 693.22 704.156 702.98C718.729 721.307 732.364 740.301 746.162 759.21C741.423 761.728 736.529 763.842 731.615 765.987C721.715 770.158 711.505 772.41 701.092 774.816C693.689 758.303 685.444 741.851 676.025 726.399C677.346 719.833 677.54 713.185 676.99 706.521C675.82 692.339 668.851 681.151 656.721 673.695C653.74 671.862 649.962 670.823 647.315 668.594L647.61 667.527C649.08 666.154 650.789 665.428 652.585 664.586Z"/>
	<path fill="#C8C2FA" d="M614.646 101.152C617.755 100.156 706.83 123.539 716.666 126.088C715.709 131.081 714.723 136.02 713.425 140.939C705 138.306 696.465 135.996 688.029 133.376C674.168 129.071 660.296 124.499 646.224 120.926C641.785 122.329 637.48 125.278 633.529 127.722C615.879 138.64 600.191 152.478 582.351 163.065C579.312 162.134 576.355 160.98 573.385 159.852C570.607 153.555 568.101 147.185 565.138 140.964C574.738 129.848 588.92 116.869 596.429 104.768Q605.51 102.82 614.646 101.152Z"/>
	<path fill="#C8C2FA" d="M647.343 130.431C656.34 133.649 665.671 136.161 674.794 139.018C686.838 142.79 698.77 146.87 710.858 150.505C707.966 158.033 705.391 167.175 700.132 173.378C690.029 170.764 680.189 166.834 670.342 163.371C665.89 161.805 660.227 159.185 655.52 158.828C654.234 158.731 652.845 159.121 651.602 159.426C644.618 162.425 629.003 174.312 622.592 179.661C612.674 176.59 602.952 171.273 593.218 167.483C610.686 154.809 628.293 140.587 647.343 130.431Z"/>
	<path fill="#9F8BE8" d="M653.931 168.407C658.374 169.406 662.918 171.357 667.278 172.766C675.985 175.579 684.845 178.151 693.394 181.416C690.985 184.646 688.076 187.423 685.758 190.754C682.068 190.053 678.338 189.619 674.613 189.148C660.334 187.342 645.98 185.796 631.74 183.726C638.227 177.669 646.872 173.873 653.931 168.407Z"/>
	<path fill="#C8C2FA" d="M759.859 721.825C763.461 724.419 779.179 754.317 783.181 760.912Q780.13 764.885 777.009 768.804L773.555 773.878C769.738 771.284 766.134 768.555 762.774 765.389C762.605 755.515 762.546 745.361 760.817 735.609C760.274 732.545 756.943 725.799 757.549 723.076L759.859 721.825Z"/>
	<path fill="#C8C2FA" d="M506.151 177.51C511.007 177.89 515.113 178.588 519.597 180.515C528.531 184.354 542.989 192.29 546.649 201.993C547.693 204.762 547.385 206.172 546.177 208.815C545.465 209.552 544.972 209.877 544.018 210.253C538.077 209.189 527.432 200.929 522.292 197.04C516.73 192.832 507.133 184.788 506.151 177.51Z"/>
	<path fill="#C8C2FA" d="M494.381 90.7708C495.833 91.1667 496.892 91.7461 497.618 93.1368C498.196 94.2454 498.02 95.3951 497.656 96.5273C494.281 107.026 479.016 117.563 469.735 122.367L467.697 121.899L467.283 121.155C469.269 112.48 486.861 96.1674 494.381 90.7708Z"/>
	<path fill="#9F8BE8" d="M582.317 107.629L582.621 107.636L582.963 108.108C580.559 111.392 577.267 114.13 574.465 117.099C569.765 122.079 565.562 127.225 561.624 132.823L559.513 127.699L553.485 113.202C563.175 111.705 572.708 109.551 582.317 107.629Z"/>
	<path fill="#C8C2FA" d="M645.245 618.558C655.472 619.771 670.449 621.929 679.914 625.273C681.408 625.801 682.886 626.389 683.399 628.042C683.988 629.943 683.328 631.993 682.582 633.739Q681.438 633.914 680.283 633.978C676.011 634.192 647.615 623 645.411 620.642C644.782 619.97 645.138 619.395 645.245 618.558Z"/>
	<path fill="#C8C2FA" d="M648.261 678.196C651.717 679.615 655.266 681.898 658.115 684.327C667.701 692.498 668.151 704.037 669.116 715.704C663.186 710.49 651.747 686.281 648.261 678.196Z"/>
	<path fill="#C8C2FA" d="M744.652 699.131L745.278 699.233C749.008 702.915 751.984 708.708 754.874 713.152L744.126 716.202C741.727 717.016 739.084 717.536 736.624 718.175C735.712 712.317 736.219 706.613 736.584 700.736L744.652 699.131Z"/>
	<path fill="#C8C2FA" d="M748.622 725.095L749.182 725.573C752.697 733.821 753.002 744.234 752.969 753.065L748.062 746.222C744.171 740.513 740.007 734.973 735.987 729.353C740.089 727.513 744.31 726.318 748.622 725.095Z"/>
	<path fill="#C8C2FA" d="M703.772 674.942C710.774 676.203 733.525 686.299 738.182 691.377C718.185 691.176 717.561 686.632 703.772 674.942Z"/>
	<path fill="#C8C2FA" d="M702.367 685.8C705.735 687.284 709.27 691.317 712.252 693.589C716.739 697.008 721.368 698.363 726.587 700.153C726.365 705.336 726.401 710.46 726.812 715.632L726.176 715.684C718.142 705.837 710.712 695.365 702.367 685.8Z"/>
	<path fill="#9F8BE8" d="M547.24 328.627C550.31 330.565 552.679 334.851 554.136 338.136C555.902 342.117 559.399 349.936 557.736 354.285L557.081 353.58C552.96 345.9 548.09 338.441 544.371 330.586C544.911 329.446 546.129 329.178 547.24 328.627Z"/>
</svg>
