<?xml version="1.0" encoding="utf-8" ?>
<svg xmlns="http://www.w3.org/2000/svg" xmlns:xlink="http://www.w3.org/1999/xlink" width="1024" height="1024">
	<path fill="#9F8BE8" d="M0 0L112.494 0L140.302 0L166.462 0L188.342 0L234.279 0L252.541 0L264.532 0L296.12 0L319.403 0L403.227 0L442.098 0L442.603 0L477.914 0L525.19 0L576.497 0L584.681 0L607.399 0L616.933 0L623.483 0L627.721 0L644.833 0L664.208 0L682.55 0L691.411 0L721.296 0L750.016 0L762.568 0L868.297 0L917.039 0L951.251 0L967.064 0L981.457 0L987.237 0L1012.9 0L1024 0L1024 105.412L1024 150.922L1024 632.251L1024 740.35L1024 1024L0 1024L0 0Z"/>
	<path fill="#0C012D" d="M296.12 0L319.403 0L403.227 0L442.098 0L442.603 0L477.914 0L525.19 0L576.497 0L584.681 0L607.399 0L616.933 0L623.483 0L627.721 0L644.833 0L664.208 0L682.55 0L691.411 0L721.296 0L750.016 0L762.568 0L868.297 0L917.039 0L951.251 0L967.064 0L981.457 0L987.237 0L1012.9 0L1024 0L1024 105.412L1024 150.922L1024 632.251L1024 740.35C1009.44 746.32 992.994 749.211 977.61 752.261C951.737 757.391 926.066 760.375 899.793 762.424Q889.181 763.334 878.546 763.938Q867.912 764.542 857.265 764.84Q846.617 765.138 835.966 765.129Q825.315 765.12 814.668 764.805Q804.021 764.489 793.388 763.867Q782.755 763.246 772.144 762.318Q761.533 761.39 750.953 760.158Q740.373 758.925 729.833 757.388C729.356 758.185 728.857 759.048 728.219 759.728C726.789 761.254 723.604 762.983 721.489 762.81C716.752 762.423 715.396 758.063 712.703 755.117C711.098 753.36 704.421 753.549 702.025 753.047C687.715 750.054 673.378 746.262 659.24 742.533C622.73 732.903 586.691 720.882 550.647 709.632C525.926 701.917 500.825 694.207 475.494 688.79Q451.659 683.879 427.515 680.839Q403.37 677.799 379.062 676.648C379.756 669.351 379.186 662.023 379.924 654.743C380.194 658.252 380.015 661.885 380.011 665.41C386.914 664.007 393.673 661.861 400.589 660.442C421.352 656.182 442.449 652.652 463.339 649.017C502.243 642.246 543.945 636.092 582.198 626.949C611.363 619.978 640.692 613.062 669.479 604.667L709.866 592.516C718.216 590.051 726.746 587.266 735.361 585.915C737.061 577.216 738.016 568.315 739.506 559.568Q741.858 546.239 745.525 533.21C747.919 524.401 751.096 515.832 753.896 507.149C758.492 492.898 762.776 478.016 765.668 463.323C769.671 442.985 771.725 422.223 774.418 401.682C776.045 389.265 779.681 377.172 781.119 364.778C784.398 336.525 784.628 306.002 786.244 277.493C786.972 264.649 789.112 252.029 789.988 239.239C791.542 216.568 786.447 201.559 771.411 184.57C755.367 166.44 736.691 152.99 712.746 147.676C705.165 145.993 697.377 145.058 689.762 147.035C677.694 150.169 666.924 157.44 654.618 159.742C641.502 162.196 628.287 158.716 615.245 160.551C603.379 162.22 601.306 167.253 587.031 166.345C584.51 165.628 581.234 165.555 578.598 165.205C575.273 164.518 571.954 163.258 568.692 162.289L568.7 162.209C570.116 160.319 578.185 159.623 580.823 159.15C586.391 158.984 591.853 158.811 597.262 157.319C603.387 155.63 609.201 152.876 615.498 151.786C621.428 150.76 627.833 151.377 633.83 151.628C653.077 152.433 660.859 147.278 677.385 138.295C668.332 137.428 657.682 134.156 648.471 132.347C581.991 119.287 546.515 97.7606 495.51 54.7926C472.416 56.8896 449.203 56.1883 426.087 54.8745C411.345 54.0367 396.012 53.2133 381.591 49.8289Q378.346 49.0815 375.161 48.1087Q371.976 47.136 368.867 45.9427Q365.758 44.7494 362.74 43.3415Q359.722 41.9336 356.81 40.3179C338.789 30.1517 323.275 15.3276 304.78 5.95944C295.445 15.5224 288.26 38.6535 283.151 51.2966C281.059 56.4726 278.275 61.6544 276.749 67.0217C275.97 69.762 275.807 72.6362 275.806 75.4724C275.804 80.5432 276.097 86.3004 277.158 91.2799C278.252 96.4144 284.547 108.35 283.132 112.821C282.774 113.955 282.32 114.04 281.324 114.391C279.966 114.129 278.932 113.958 277.851 113.007C276.133 111.494 275.137 108.344 274.314 106.23C270.347 96.0338 268.413 86.9159 268.428 75.9708C261.569 83.7534 252.633 88.6055 243.725 93.6215C213.88 110.427 210.602 129.006 200.929 159.018C199.004 158.473 196.923 157.8 195.521 156.324C198.368 152.456 199.927 140.545 201.504 135.314C203.862 127.491 207.1 119.744 211.493 112.834C219.064 100.924 230.1 93.0305 241.991 85.8523C249.875 81.0927 257.665 76.6869 263.407 69.2686C271.873 58.3315 278.89 32.4805 285.037 18.497C287.944 11.8845 292.031 5.91968 296.12 0Z"/>
	<path fill="#533786" d="M869.38 580.372C912.618 580.882 957.018 592.968 995.266 612.864C1005.25 618.056 1015.65 623.727 1023.59 631.817C1023.73 631.959 1023.86 632.106 1024 632.251L1024 740.35C1009.44 746.32 992.994 749.211 977.61 752.261C951.737 757.391 926.066 760.375 899.793 762.424Q889.181 763.334 878.546 763.938Q867.912 764.542 857.265 764.84Q846.617 765.138 835.966 765.129Q825.315 765.12 814.668 764.805Q804.021 764.489 793.388 763.867Q782.755 763.246 772.144 762.318Q761.533 761.39 750.953 760.158Q740.373 758.925 729.833 757.388C729.356 758.185 728.857 759.048 728.219 759.728C726.789 761.254 723.604 762.983 721.489 762.81C716.752 762.423 715.396 758.063 712.703 755.117C711.098 753.36 704.421 753.549 702.025 753.047C687.715 750.054 673.378 746.262 659.24 742.533C622.73 732.903 586.691 720.882 550.647 709.632C525.926 701.917 500.825 694.207 475.494 688.79Q451.659 683.879 427.515 680.839Q403.37 677.799 379.062 676.648C379.756 669.351 379.186 662.023 379.924 654.743C380.194 658.252 380.015 661.885 380.011 665.41C386.914 664.007 393.673 661.861 400.589 660.442C421.352 656.182 442.449 652.652 463.339 649.017C502.243 642.246 543.945 636.092 582.198 626.949C611.363 619.978 640.692 613.062 669.479 604.667L709.866 592.516C718.216 590.051 726.746 587.266 735.361 585.915C734.405 594.267 732.173 602.757 730.239 610.93C723.696 638.582 715.79 655.65 689.742 669.236C681.896 673.328 673.706 676.648 665.061 678.601C652.397 681.463 620.933 681.913 613.165 692.148C612.371 693.194 612.109 694.077 612.251 695.388C612.981 697.042 614.147 697.892 615.696 698.747C637.153 710.592 677.06 700.689 699.461 693.741C708.13 691.052 716.571 687.51 725.318 685.103C727.815 684.417 731.647 682.966 733.995 684.311C734.086 685.041 734.162 685.73 734.009 686.462C732.015 695.988 709.647 707.729 701.519 713.123C698.795 714.93 693.983 718.109 693.511 721.538C693.407 722.296 693.67 722.869 694.204 723.426C696.955 726.295 704.32 724.842 707.737 723.811C713.505 722.071 719.161 718.798 724.63 716.242C738.789 709.624 762.737 697.811 777.63 694.82C782.872 693.768 787.889 693.952 792.906 695.952C798.822 698.312 804.073 702.945 809.22 706.642C821.226 715.265 838.32 723.76 853.294 724.622C855.269 724.735 856.909 724.693 858.433 723.317C861.13 716.692 845.986 708.707 841.522 705.466C837.98 702.894 834.502 700.169 831.44 697.032C827.511 693.007 824.96 688.79 823.163 683.459C830.802 685.183 837.574 689.372 845.099 691.238C847.66 691.873 851.475 692.568 853.815 690.875C859.095 687.054 848.31 678.893 849.495 673.763C850.335 673.004 850.575 672.836 851.812 672.92C855.374 673.16 859.836 674.813 863.375 675.658C870.018 677.244 894.241 682.763 899.281 679.183C899.887 678.751 899.754 678.386 899.852 677.713C896.982 670.842 887.119 670.36 882.798 664.862C882.119 663.998 882.019 663.942 882.128 662.815C884.607 661.468 888.939 662.785 891.65 663.233C902.819 665.081 930.723 667.091 941.328 664.419C943.375 663.903 945.525 662.787 947.203 661.512C948.674 660.394 949.429 659.396 949.724 657.542C949.274 655.757 948.462 654.926 946.941 653.958C937.685 648.067 914.233 646.059 902.337 642.316C897.559 640.812 893.169 638.782 889.255 635.618C874.203 623.45 871.185 598.418 869.38 580.372Z"/>
	<path fill="#9F8BE8" d="M1024 150.922L1024 632.251C1023.86 632.106 1023.73 631.959 1023.59 631.817C1015.65 623.727 1005.25 618.056 995.266 612.864C957.018 592.968 912.618 580.882 869.38 580.372C868.58 575.243 868.561 569.713 868.477 564.526C868.368 557.847 868.229 551.04 868.777 544.379C870.103 528.257 873.48 512.297 875.557 496.259L890.778 381.98C892.588 367.538 891.389 350.392 893.856 337.108C894.729 332.407 896.981 327.97 899.364 323.872C912.453 301.367 934.387 287.552 951.731 268.942C966.826 252.744 978.356 233.078 990.614 214.729C996.719 205.591 1003.69 196.734 1008.7 186.923C1014.62 175.31 1018.69 162.816 1024 150.922Z"/>
	<path fill="#9F8BE8" d="M868.297 0L917.039 0L951.251 0L967.064 0L969.127 43.3557C969.579 52.2519 969.586 61.4078 970.993 70.2023C972.811 81.5759 976.991 94.8536 980.115 106.081C982.908 116.117 995.261 152.778 993.224 160.503C990.08 172.425 946.112 238.822 936.315 247.814C930.35 253.288 922.744 257.322 915.888 261.565Q904.583 268.658 893.352 275.868C893.499 265.56 893.145 255.242 893.399 244.936C893.746 230.811 894.675 216.753 894.455 202.61C894.278 191.212 893.075 179.821 892.633 168.427C892.141 155.773 892.318 143.057 891.016 130.447C888.993 110.846 883.01 90.9663 879.467 71.4899Q875.323 47.3948 871.647 23.2238C870.5 15.4959 869.722 7.67862 868.297 0Z"/>
	<path fill="#533786" d="M917.039 0L951.251 0C958.389 11.2646 960.222 25.5657 958.08 38.5669C955.729 52.8304 948.552 66.1133 936.693 74.626C927.479 63.9297 926.468 51.0547 926.022 37.5972C918.041 43.6777 909.84 47.0756 899.887 48.1181Q899.302 44.7988 899.096 41.4346C898.098 25.4976 906.884 11.5467 917.039 0Z"/>
	<path fill="#9F8BE8" d="M477.914 0L525.19 0L576.497 0L584.681 0L607.399 0L616.933 0L623.483 0L627.721 0C634.162 6.39239 639.811 13.889 645.866 20.6758C653.624 29.3707 662.873 37.5421 668.95 47.5501C675.108 57.69 678.819 69.0987 685.644 78.9093C692.631 88.9538 702.051 96.9608 708.85 107.137C692.952 103.191 676.4 99.7229 660.153 97.6773C645.291 95.8062 630.189 95.1325 615.477 92.2211C602.011 89.5561 589.012 83.4101 576.936 76.9903C563.006 69.5849 549.147 61.8505 536.597 52.2388C526.2 44.2762 516.68 35.1749 506.914 26.4649C497.159 17.7653 487.187 9.21666 477.914 0Z"/>
	<path fill="#533786" d="M616.933 0L623.483 0C624.841 0.797112 626.226 1.6028 627.468 2.57596C634.783 8.30505 638.855 17.7232 640.077 26.7291C641.173 34.8085 640.254 52.0776 634.697 58.4724C633.802 59.5015 632.836 59.9951 631.438 59.9356C629.226 59.8415 626.906 57.9007 625.337 56.5256C616.234 48.5508 609.476 36.3044 608.902 24.1211C608.478 15.1171 610.75 6.73479 616.933 0Z"/>
	<path fill="#533786" d="M525.19 0L576.497 0C576.478 1.59932 576.466 3.21862 576.275 4.8082Q576.191 5.5448 576.071 6.27629Q575.95 7.00777 575.793 7.73229Q575.636 8.4568 575.443 9.17254Q575.25 9.88827 575.021 10.5934Q574.792 11.2986 574.529 11.9913Q574.265 12.6841 573.966 13.3628Q573.668 14.0415 573.336 14.7043Q573.004 15.3672 572.639 16.0125Q572.275 16.6579 571.878 17.2842Q571.481 17.9104 571.053 18.516Q570.626 19.1216 570.168 19.705Q569.711 20.2884 569.225 20.848Q568.739 21.4077 568.225 21.9424Q567.712 22.477 567.172 22.9851Q566.632 23.4933 566.068 23.9738Q565.503 24.4543 564.915 24.9058C556.031 31.7574 542.261 35.1664 531.174 33.5336C528.271 33.1062 524.881 32.1908 523.104 29.6431C522.135 28.2547 521.923 26.6059 522.233 24.9737C523.635 17.6025 533.614 9.95148 539.317 5.79317C534.044 4.43666 529.768 3.01204 525.19 0Z"/>
	<path fill="#533786" d="M584.681 0L607.399 0C607.952 6.29452 607.549 12.0709 605.486 18.0912C601.786 28.8861 592.787 39.3807 582.473 44.3773C580.704 45.2343 578.39 46.3544 576.412 45.6556C574.2 43.0616 573.545 38.8787 573.258 35.5446Q573.162 34.3512 573.124 33.1545Q573.087 31.9578 573.108 30.7608Q573.129 29.5637 573.208 28.369Q573.287 27.1744 573.425 25.9851Q573.563 24.7958 573.759 23.6146Q573.954 22.4335 574.208 21.2633Q574.461 20.0931 574.771 18.9367Q575.081 17.7803 575.448 16.6404Q575.814 15.5006 576.235 14.38Q576.657 13.2594 577.133 12.1608Q577.609 11.0622 578.138 9.98813Q578.667 8.91408 579.248 7.86718Q579.829 6.82028 580.46 5.80303Q581.092 4.78578 581.772 3.80062Q582.452 2.81546 583.18 1.86473Q583.908 0.914009 584.681 0Z"/>
	<path fill="#9F8BE8" d="M682.55 0L691.411 0L721.296 0L750.016 0L762.568 0C766.715 12.4148 771.466 24.6129 774.854 37.2673C778.849 52.1885 781.384 67.4405 785.104 82.4246C787.929 93.8044 792.287 105.424 793.536 117.085C794.306 124.281 793.78 131.742 792.264 138.813C782.263 128.667 771.805 117.641 760.549 108.921C753.343 103.338 745.089 99.3347 737.767 93.9114C705.201 69.7921 694.83 47.3017 685.094 9.47785C685.169 6.80133 683.325 2.68084 682.55 0Z"/>
	<path fill="#533786" d="M721.296 0L750.016 0C749.792 5.03795 749.134 9.6768 747.178 14.3602C742.45 25.6794 732.512 36.5194 720.999 41.0336C720.146 41.3681 718.648 41.9551 717.806 41.4796C716.573 40.7837 715.958 39.4645 715.575 38.1578C712.414 27.3783 715.932 9.87668 721.296 0Z"/>
	<path fill="#533786" d="M682.55 0L691.411 0C689.631 3.30892 687.423 6.53111 685.094 9.47785C685.169 6.80133 683.325 2.68084 682.55 0Z"/>
	<path fill="#9F8BE8" d="M319.403 0L403.227 0L442.098 0L442.603 0C452.956 15.8513 468.477 26.8313 480.473 41.0938C471.252 41.9601 461.854 42.0853 452.599 42.3519C425.907 43.1206 393.399 44.2983 368.772 32.4262C352.563 24.6123 334.685 10.332 319.403 0Z"/>
	<path fill="#533786" d="M403.227 0L442.098 0Q441.086 2.27186 439.925 4.47164C434.19 15.1883 422.627 22.5374 411.247 25.9575C407.136 27.1929 400.288 29.1359 396.373 26.823C394.991 26.0066 394.185 24.6626 393.884 23.1139C392.496 15.9582 399.441 5.58273 403.227 0Z"/>
	<path fill="#9F8BE8" d="M981.457 0L987.237 0L1012.9 0L1024 0L1024 105.412C1018.39 116.602 1014.08 128.319 1008.95 139.712C1004.43 128.018 1001.18 115.499 997.637 103.469C994.141 91.6159 990.023 79.5488 987.856 67.3777C986.373 59.0454 985.888 50.42 985.027 41.9994C983.599 28.0265 982.046 14.0403 981.457 0Z"/>
	<path fill="#533786" d="M987.237 0L1012.9 0C1013.62 1.23418 1014.35 2.47718 1014.98 3.7619C1022.43 18.8597 1022.64 37.9466 1017.45 53.74C1010.25 51.11 1004.32 47.2157 999.332 41.3551C989.066 29.283 985.98 15.5109 987.237 0Z"/>
	<path fill="#9F8BE8" d="M644.833 0L664.208 0C666.392 8.88376 669.716 17.4674 671.604 26.4217C662.575 17.7133 654.013 8.57938 644.833 0Z"/>
	<path d="M393.984 311.106C392.266 310.062 391.124 308.824 389.945 307.196C386.68 302.685 382.49 293.83 383.606 288.251C385.474 278.911 404.957 282.745 412.935 280.391C418.59 278.722 422.394 275.309 427.064 272.027C437.097 264.975 446.167 258.314 459.051 260.668Q460.175 260.865 461.288 261.118Q462.401 261.371 463.5 261.679Q464.599 261.987 465.681 262.35Q466.763 262.714 467.825 263.13Q468.887 263.547 469.928 264.017Q470.968 264.486 471.983 265.007Q472.999 265.528 473.987 266.099Q474.975 266.671 475.933 267.291Q476.891 267.911 477.817 268.578Q478.743 269.245 479.634 269.958Q480.525 270.671 481.38 271.427Q482.234 272.184 483.05 272.982Q483.865 273.781 484.64 274.619Q485.414 275.457 486.146 276.333Q486.877 277.209 487.564 278.121Q488.251 279.032 488.891 279.977C496.617 291.324 496.322 304.202 496.873 317.375C497.017 320.813 496.906 324.563 497.691 327.923C499.021 333.608 502.242 339.423 504.776 344.665C507.411 350.115 515.538 361.876 513.756 367.731C513.419 368.838 512.578 369.56 511.623 370.139C503.189 375.252 484.462 365.592 475.627 363.69L474.894 363.537C474.726 366.127 474.728 369.049 474.149 371.584C473.766 373.262 473.001 374.829 471.446 375.706C469.222 376.96 467.142 376.184 464.841 375.614C464.331 377.378 463.843 380.194 462.761 381.654C461.34 383.571 459.546 383.848 457.347 384.391L457.092 385.187C456.409 387.382 455.948 389.289 454.188 390.877C450.784 393.949 445.408 392.939 441.248 392.592C444.217 396.937 450.718 404.552 450.426 409.874C450.332 411.577 449.458 412.822 448.139 413.807C445.326 415.907 441.342 417.168 438.197 418.795C431.946 422.028 426.34 426.03 420.942 430.519C425.032 435.694 436.224 447.172 437.531 452.871C437.851 454.265 437.47 455.448 436.4 456.432C434.365 458.304 431.203 459.499 428.841 461.028Q424.479 463.803 420.416 466.999Q416.353 470.195 412.629 473.781C407.838 478.368 402.91 483.651 399.568 489.422C397.829 492.425 396.685 495.764 395.352 498.959C392.087 506.782 388.894 514.877 384.361 522.058C386.761 524.647 389.161 527.376 392.068 529.405C396.436 532.454 400.724 534.018 404.484 537.983C410.584 536.096 417.698 532.049 423.98 535.249C429.555 538.089 433.88 544.289 435.677 550.15C437.308 555.466 440.079 564.849 439.495 570.306C439.351 571.65 438.55 572.979 437.92 574.152C438.802 577.207 440.539 581.623 438.487 584.539C437.524 585.908 435.651 586.92 434.032 587.245C427.813 588.492 423.94 579.144 419.526 576.217C417.859 575.111 416.668 573.906 415.305 572.455C407.684 573.188 400.104 573.919 392.436 573.678C388.614 578.934 384.176 581.467 378.595 584.535C378.498 595.447 379.344 606.501 379.692 617.421Q380.202 636.08 379.924 654.743C379.186 662.023 379.756 669.351 379.062 676.648C379.123 676.839 379.182 677.03 379.246 677.219C383.005 688.281 415.543 730.89 413.568 738.119C411.078 738.378 408.104 735.727 406.2 734.197C396.118 726.099 386.658 717.195 376.516 709.201C374.681 730.363 373.599 751.658 371.973 772.85C370.686 789.625 368.692 806.438 368.128 823.249C372.906 829.194 372.604 838.715 371.753 846.001C371.554 847.703 370.884 849.193 370.099 850.697C374.443 854.602 379.575 856.891 385.109 858.645C393.183 861.205 423.123 864.623 424.658 874.148C424.252 876.393 422.832 877.481 421.152 878.862C405.856 887.475 390.366 891.757 372.766 892.506C365.264 891.769 357.719 892.226 350.227 891.418C337.537 897.896 323.436 903.801 308.977 899.215C306.056 898.289 301.736 896.542 300.124 893.857C298.769 891.6 302.757 866.204 303.26 861.772L299.108 859.518C299.23 848.758 301.366 844.432 303.019 834.534C303.692 830.505 303.533 826.404 303.97 822.356C297.684 831.658 291.863 841.263 285.613 850.593C281.534 856.682 276.459 862.847 273.011 869.235C272.353 870.453 272.109 871.709 271.754 873.03C270.365 878.194 259.609 893.129 254.952 895.455C252.414 896.723 248.786 895.698 246.125 895.266C247.125 903.241 248.568 909.694 255.22 914.983C260.697 919.338 274.892 924.412 275.892 932.012C276.337 935.387 274.599 939.052 272.473 941.57C268.395 946.399 262.51 948.067 256.433 948.407C247.693 948.895 237.088 948.239 229.31 943.801C225.656 939.952 222.368 935.861 218.877 931.878C215.354 927.192 211.587 922.699 207.273 918.718C203.292 915.045 198.809 911.945 194.632 908.501C187.419 902.553 180.526 895.133 175.379 887.333C180.772 878.087 190.44 870.163 197.829 862.47C196.905 860.411 196.191 858.243 195.42 856.122C195.508 855.93 195.593 855.738 195.683 855.547C198.285 850.029 207.722 836.198 213.45 834.197C215.124 833.612 265.318 757.158 271.434 748.327C263.599 742.737 254.154 739.624 247.072 732.943C246.51 727.747 246.927 722.342 247.05 717.12C229.909 715.332 211.517 709.315 198.369 697.781C200.671 680.621 205.662 663.612 209.65 646.775Q222.126 593.93 235.774 541.376C237.973 533.047 241.352 525.028 243.478 516.702C242.991 515.352 242.439 514.073 242.777 512.617C244.637 504.604 246.926 493.623 250.694 486.425C252.479 483.014 255.955 480.993 257.407 477.482C275.63 433.402 288.546 387.055 329.538 357.749C335.436 353.532 341.732 350.337 348.916 349.063C356.565 347.707 365.881 349.85 372.503 344.979C379.808 339.604 380.819 329.632 386.957 324.329C388.807 322.73 390.547 323.132 392.802 323.381L393.984 311.106Z"/>
	<path fill="#FDFDFD" d="M278.723 528.148C292.011 532.3 304.714 535.114 318.575 536.669C327.19 547.502 337.326 556.714 346.197 567.255C336.847 569.847 327.925 568.724 319.149 564.841C309.831 560.717 288.883 549.258 285.175 539.296C284.794 538.271 284.726 537.56 283.763 536.954C283.041 538.4 282.703 539.734 282.455 541.333C281.245 549.126 281.386 557.44 280.703 565.32C279.689 577.025 276.618 590.174 278.056 601.835Q278.16 602.725 278.324 603.607Q278.488 604.488 278.711 605.356Q278.935 606.224 279.217 607.075Q279.498 607.926 279.837 608.756Q280.176 609.586 280.571 610.391Q280.965 611.196 281.413 611.973Q281.861 612.749 282.361 613.493Q282.861 614.237 283.41 614.946C290.874 624.77 308.843 638.152 321.24 639.642C324.671 640.055 327.978 639.342 330.647 637.075C343.689 625.994 346.332 586.372 347.602 569.877C352.731 577.343 362.604 582.87 365.431 587.459C364.023 605.952 365.578 624.724 364.493 643.301Q363.737 655.385 361.979 667.365C361.343 671.737 360.134 676.538 360.007 680.922C357.568 689.882 356.036 699.066 353.463 708.025C348.131 726.596 341.257 744.812 334.489 762.9C323.916 759.841 313.169 756.637 303.042 752.294C286.52 745.208 270.832 736.213 254.401 729.034C254.289 714.995 255.814 701.022 256.657 687.028L261.312 613.328C262.949 590.378 262.811 561.717 267.958 539.548L273.807 539.345L277.369 536.209C277.953 533.547 278.315 530.842 278.723 528.148Z"/>
	<path fill="#FDFDFD" d="M357.988 354.712C362.873 354.418 367.776 354.54 372.668 354.581C379.574 360.223 387.22 364.051 393.259 370.835C398.392 376.6 403.13 383.097 407.349 389.564C413.91 399.621 418.678 408.859 428.263 416.546C420.672 422.025 413.058 427.244 406.856 434.339C406.746 417.59 406.311 396.641 397.006 382.261C393.497 376.838 388.731 372.517 382.227 371.223C373.797 369.546 365.227 372.47 358.361 377.24C362.883 376.08 367.577 374.869 372.265 374.682C378.234 374.443 383.524 376.049 387.917 380.201C393.054 385.054 395.255 391.222 395.46 398.182C396.369 429.204 373.029 470.563 352 492.855C349.769 493.519 346.831 494.148 345.05 495.656C345.883 495.965 345.572 495.954 346.387 495.893C347.801 495.787 349.014 495.595 350.429 495.926C352.136 496.324 353.663 497.303 354.876 498.546C360.243 504.046 364.929 510.931 369.744 516.959C374.647 523.095 380.69 529.272 384.608 536.042C380.209 548.746 371.556 559.493 360.902 567.543C346.266 555.585 331.058 542.207 319.756 527.03Q324.619 527.151 329.473 526.842C342.243 526.096 353.181 520.081 361.65 510.522C358.271 512.559 355.036 514.924 351.769 517.14C338.069 526.134 332.206 524.464 316.744 523.436C314.811 520.46 313.179 517.477 311.645 514.276C322.479 513.901 332.514 512.484 343.088 510.251L347.217 513.036C347.648 511.321 345.699 510.595 346.024 508.768C347.519 507.198 349.683 506.524 351.643 505.682C338.187 504.407 324.763 509.618 311.313 510.759C309.415 507.07 308.369 503.87 308.629 499.678C309.354 487.942 314.295 475.52 317.953 464.417Q325.476 442.079 332.565 419.6C336.187 408.22 340.124 396.712 342.121 384.915C330.541 402.319 309.048 465.186 304.126 486.479C302.827 492.097 302.055 497.479 301.956 503.244C295.282 501.222 288.519 499.946 282.067 497.184C282.77 494.68 283.822 491.86 284.012 489.28C284.17 487.148 283.96 485.063 282.504 483.422C281.614 483.089 281.332 482.843 280.361 483.017C276.297 483.747 273.3 489.585 271.19 492.757C268.119 491.335 265.278 489.69 262.397 487.919C267.831 471.921 273.787 456.358 280.395 440.815C289.48 419.447 298.668 399.027 314.585 381.705C323.595 371.899 335.096 359.362 348.258 355.703C351.382 354.835 354.767 354.851 357.988 354.712Z"/>
	<path fill="#FDFDFD" d="M277.098 752.219C281.11 753.637 285.471 756.812 289.233 758.937C300.789 765.464 312.406 770.962 325.579 773.251C319.69 782.285 314.618 792.01 308.955 801.217C295.425 823.214 281.564 844.728 266.892 865.988C266.478 866.644 266.786 866.308 265.784 866.788C246.132 863.344 232.853 851.982 219.548 837.951C225.966 830.133 231.197 821.001 236.856 812.619L277.098 752.219Z"/>
	<defs>
		<linearGradient id="gradient_0" gradientUnits="userSpaceOnUse" x1="297.90314" y1="680.58362" x2="409.3699" y2="763.46454">
			<stop offset="0" stop-color="#000121"/>
			<stop offset="1" stop-color="#0B0039"/>
		</linearGradient>
	</defs>
	<path fill="url(#gradient_0)" d="M365.431 587.459L365.794 589.704L366.142 588.996C367.958 587.662 369.004 587.094 371.23 586.851C371.955 586.772 372.676 586.671 373.401 586.591Q374.299 613.457 374.327 640.337C374.368 646.143 374.841 651.945 374.749 657.75C374.59 667.692 374.314 677.779 373.64 687.697C373.329 692.258 372.615 696.781 372.322 701.342C371.952 707.116 372.054 712.914 371.647 718.688C370.786 730.894 369.334 743.059 368.405 755.251C367.963 761.048 367.907 766.86 367.378 772.655C366.409 783.274 364.955 793.89 364.229 804.525C363.703 812.228 363.769 819.986 363.754 827.704C361.109 829.151 352.01 833.882 350.281 835.611C341.707 838.951 328.14 840.925 318.951 841.341C317.035 840.143 314.657 840.649 312.491 840.432C311.299 840.313 310.024 839.983 309.325 838.921C307.106 835.547 308.743 822.565 309.224 817.994C309.53 815.087 309.969 812.213 311.15 809.514C312.852 805.627 331.625 774.815 334.014 772.918C335.008 772.129 336.091 771.225 336.818 770.174C338.681 767.482 339.755 763.166 340.973 760.056C348.741 740.229 355.126 719.941 359.296 699.016C360.084 695.06 362.33 684.411 360.007 680.922C360.134 676.538 361.343 671.737 361.979 667.365Q363.737 655.385 364.493 643.301C365.578 624.724 364.023 605.952 365.431 587.459Z"/>
	<path fill="#FDFDFD" d="M250.46 518.1C253.693 519.316 256.797 520.89 259.914 522.375C259.856 527.083 259.182 531.347 261.662 535.54C262.742 537.367 260.777 543.562 260.312 545.839C257.848 557.899 257.045 570.822 255.702 583.077Q251.195 624.792 248.868 666.686C247.969 680.976 246.787 695.319 246.404 709.63C237.353 707.918 228.713 705.931 220.217 702.263C224.698 683.226 227.46 663.779 231.128 644.575C237.107 613.274 243.944 581.903 246.893 550.121L247.75 540.884C243.731 551.555 242.01 566.295 239.397 577.741C233.804 602.247 228.812 626.858 223.627 651.453C220.284 667.316 216.288 683.111 214.135 699.193C211.673 697.996 209.364 696.556 207.031 695.13C210.967 673.439 216.468 651.72 221.69 630.299Q231.129 590.011 241.487 549.949C244.277 539.274 247.646 528.768 250.46 518.1Z"/>
	<path fill="#FDFDFD" d="M285.634 559.383C286.93 560.618 287.995 562.408 289.192 563.798Q293.583 568.901 298.911 573.016C312.393 583.338 324.322 589.218 341.436 587.041C337.611 601.006 338.157 611.379 331.704 625.66C329.88 629.826 327.934 632.081 324.003 634.382C312.005 632.766 299.565 624.207 291.304 615.634C288.01 612.216 285.178 608.184 283.95 603.543C281.344 593.697 285.47 570.814 285.634 559.383Z"/>
	<path fill="#FDFDFD" d="M449.999 265.405C460.827 266.615 470.381 269.712 478.207 277.602C491.661 291.163 490.061 304.071 490.048 321.569C482.147 321.303 475.601 318.825 468.372 315.782C456.28 310.42 429.16 292.738 420.751 283.568C430.249 277.038 439.755 270.726 449.999 265.405Z"/>
	<path fill="#FDFDFD" d="M414.37 286.163C414.807 286.166 415.275 286.009 415.68 286.172C417.456 286.883 430.525 297.986 433.367 300.08C440.024 304.983 446.94 309.697 454.079 313.873C465.498 320.552 476.968 324.455 489.882 326.983C491.55 334.551 495.15 341.287 498.854 348.013C495.22 347.37 491.71 346.544 488.153 345.56C480.238 343.233 472.52 340.247 465.342 336.144C460.553 333.406 455.424 329.283 450.212 327.549C446.999 326.48 443.066 326.756 439.694 326.336C422.161 324.151 411.129 300.566 401.247 287.787C405.687 287.52 409.988 286.885 414.37 286.163Z"/>
	<path fill="#FDFDFD" d="M323.522 871.386C319.472 870.781 312.876 871.653 309.415 869.082C308.248 868.215 308.271 867.995 308.162 866.65C308.483 866.074 308.864 865.204 309.433 864.831C310.492 864.135 318.721 863.704 320.657 863.407C330.849 861.845 340.828 859.464 350.837 857.028C353.794 856.309 361.107 853.498 363.834 854.46C364.502 854.696 364.482 855.148 364.727 855.742C364.126 858.053 362.189 859.221 361.005 861.183C360.893 861.368 360.786 861.557 360.676 861.744C363.09 860.906 365.504 860.082 367.874 859.124C374.261 861.701 380.703 864.58 387.292 866.576C393.054 868.322 399.377 869.155 404.892 871.533Q396.516 873.689 387.994 875.162Q379.472 876.636 370.859 877.419C363.058 878.052 355.127 877.992 347.361 878.826C337.742 879.859 316.474 887.15 308.025 882.456C307.21 879.152 308.131 875.205 308.604 871.876C313.591 871.828 318.545 871.756 323.522 871.386Z"/>
	<path fill="#0C012D" d="M323.522 871.386C319.472 870.781 312.876 871.653 309.415 869.082C308.248 868.215 308.271 867.995 308.162 866.65C308.483 866.074 308.864 865.204 309.433 864.831C310.492 864.135 318.721 863.704 320.657 863.407C330.849 861.845 340.828 859.464 350.837 857.028C353.794 856.309 361.107 853.498 363.834 854.46C364.502 854.696 364.482 855.148 364.727 855.742C364.126 858.053 362.189 859.221 361.005 861.183C360.893 861.368 360.786 861.557 360.676 861.744C349.931 866.572 335.507 871.963 323.522 871.386Z"/>
	<path fill="#FDFDFD" d="M390.973 328.344C410.857 346.011 412.067 357.996 423.583 379.456C428.997 389.547 435.613 399.151 441.78 408.799C438.268 410.669 434.938 412.908 431.471 414.87L430.523 414.568C417.696 396.788 407.795 376.467 391.843 361.177C387.687 357.193 382.972 353.901 378.414 350.404C384.02 343.691 388.457 336.73 390.973 328.344Z"/>
	<path fill="#FDFDFD" d="M200.444 869.352C202.996 870.951 205.465 874.287 207.538 876.586C216.9 886.964 224.398 893.305 238.142 896.927C243.66 922.141 249.593 916.806 266.936 930.725C267.098 930.856 267.258 930.99 267.419 931.122L258.996 933.377C256.752 933.388 254.468 933.289 252.232 933.106C247.774 932.741 242.696 931.434 238.906 928.991C229.539 922.953 222.642 911.383 215.122 903.256C207.26 894.758 198.849 886.915 191.327 878.083Q195.861 873.692 200.444 869.352Z"/>
	<path fill="#FDFDFD" d="M430.57 335.537C432.899 335.322 435.567 334.848 437.448 336.585C438.264 337.34 438.622 337.907 438.556 339.025L437.728 339.456C436.659 338.918 435.462 338.216 434.318 337.878C432.737 337.41 430.809 338.156 429.453 338.949C427.533 340.073 425.915 341.935 425.437 344.144C425.07 345.842 425.508 348.119 426.737 349.43C427.741 350.501 428.029 350.46 429.376 350.393C431.683 348.72 432.072 345.626 433.841 343.458C434.607 342.52 435.659 341.627 436.87 341.56C436.333 343.821 434.409 345.877 433.225 347.871C431.109 351.437 429.559 358.708 430.727 362.852C431.011 363.862 431.214 363.937 432.064 364.442C434.178 364.083 435.701 361.872 437.005 360.34C440.875 355.793 446.641 353.922 450.069 349.216C455.994 348.099 466.032 346.598 471.609 349.433C472.976 350.128 473.589 350.98 474.062 352.394L473.401 353.315C472.031 353.51 471.992 353.541 470.795 352.86C470.464 352.667 470.131 352.46 469.774 352.318C468.682 351.885 468.463 351.697 467.405 352.204L467.572 352.962C469.084 354.726 470.82 355.056 472.956 355.651C471.554 357.416 470.293 359.313 468.991 361.153C468.959 365.169 468.608 369.21 468.377 373.22C467.138 372.527 465.601 371.602 464.146 371.534C460.763 371.376 460.949 376.845 458.997 378.908C457.863 380.105 455.777 380.005 454.236 380.118C453.035 382.775 451.83 385.364 450.38 387.897C446.44 387.836 443.073 387.364 439.356 386.095C433.801 380.241 431.062 373.301 428.185 365.91C428.765 363.282 430.968 356.412 429.659 354.226L427.283 353.647C426.759 353.087 426.405 352.564 426.063 351.873C424.348 348.407 423.307 344.551 424.72 340.787C425.82 337.853 427.875 336.836 430.57 335.537Z"/>
	<path fill="#FDFDFD" d="M213.582 841.924C231.237 859.488 240.452 865.685 264.129 873.552C261.456 878.504 257.522 882.752 253.861 886.985C253.577 887.246 253.152 887.291 252.786 887.409C242.924 882.901 208.194 865.929 204.641 856.504C204.752 852.327 211.176 845.253 213.582 841.924Z"/>
	<path fill="#FDFDFD" d="M350.281 835.611C355.786 834.52 361.076 832.629 366.3 830.613C366.239 835.261 366.116 839.918 366.144 844.566C347.427 852.341 326.427 857.038 306.163 855.957C306.649 851.409 307.304 846.962 308.267 842.489C311.828 842.112 315.395 841.764 318.951 841.341C328.14 840.925 341.707 838.951 350.281 835.611Z"/>
	<path fill="#FDFDFD" d="M417.298 540.573C420.307 540.151 422.096 540.501 424.528 542.377C432.123 548.235 431.573 563.082 432.863 571.652C431 569.006 429.522 566.129 427.983 563.288L429.723 558.014C426.264 552.085 428.557 554.943 428.492 550.085L427.895 550.025L426.731 551.79C425.921 551.81 425.117 551.859 424.309 551.916C423.268 552.878 423.106 553.638 422.712 554.952L423.146 555.637L424.949 555.104C424.445 555.978 423.189 556.75 422.397 557.401C425.011 563.005 426.978 569.083 429.143 574.881C429.769 576.557 430.023 578.526 430.408 580.281C428.612 577.321 423.102 569.344 422.38 566.438C422.213 565.768 422.371 565.076 422.506 564.419C422.727 563.336 422.867 562.368 422.945 561.264C422.494 560.186 422.12 559.434 420.994 558.93C419.772 558.381 418.213 558.519 416.964 558.935C415.947 559.274 415.079 559.78 414.578 560.754C414.981 561.478 415.414 562.098 415.939 562.736C416.699 563.66 416.58 563.718 416.729 564.838L415.827 565.901C410.132 568.44 401.285 567.268 395.064 567.024C398.734 559.947 400.217 552.944 401.713 545.195C406.871 543.519 412.001 541.762 417.298 540.573Z"/>
	<path fill="#FDFDFD" d="M397.23 447.857C397.955 450.832 396.905 455.727 396.506 458.787C393.801 479.502 388.212 496.355 378.143 514.614L375.614 511.53L370.768 505.268C373.079 501.044 374.929 496.473 377.01 492.124C384.011 477.488 390.432 462.59 397.23 447.857Z"/>
	<path fill="#FDFDFD" d="M413.741 433.932C418.287 436.404 426.295 448.006 430.694 452.439C424.067 455.959 418.26 459.855 412.368 464.455C409.16 467.402 406.194 470.491 403.25 473.699C403.648 468.526 404.592 463.369 405.138 458.203C405.841 451.556 406.1 444.864 406.415 438.19C408.929 436.918 411.324 435.379 413.741 433.932Z"/>
	<path fill="#FDFDFD" d="M389.933 537.763Q393.438 539.642 396.906 541.588Q396.548 544.689 396.082 547.775C394.543 557.325 388.53 568.928 380.41 574.503C377.862 576.253 374.872 577.841 371.735 577.244C368.514 575.568 366.005 573.17 363.479 570.616C376.989 563.938 384.834 551.519 389.933 537.763Z"/>
	<path fill="#FDFDFD" d="M281.354 504.634Q292.015 507.85 303.048 509.353C303.787 512.552 311.288 528.545 311.197 528.977L309.569 529.174C298.657 527.442 288.748 525.229 278.364 521.413L281.354 504.634Z"/>
	<path fill="#FDFDFD" d="M188.281 880.894C191.027 882.503 193.944 887.45 196.166 889.912C201.425 895.737 207.175 901.132 212.529 906.875C219.947 914.832 229.074 928.229 238.426 933.348C247.624 938.383 259.609 938.644 269.481 935.797C268.127 937.207 266.647 938.51 265.214 939.84C263.935 940.231 262.638 940.553 261.307 940.713C253.119 941.699 239.503 939.608 232.623 934.805C227.816 931.449 221.897 922.365 217.679 917.567C208.352 906.957 195.906 893.587 185.058 884.795L184.441 884.299C185.679 883.12 186.991 882.016 188.281 880.894Z"/>
	<path fill="#FDFDFD" d="M286.061 549.787C287.956 550.996 289.633 552.86 291.381 554.303Q296.82 558.842 302.705 562.784C318.48 573.135 327.87 575.356 346.142 571.632C345.215 573.732 344.185 575.793 343.191 577.863C343.048 578.256 342.808 578.946 342.621 579.299C341.868 580.726 340.337 581.074 338.881 581.563C331.96 583.887 322.525 580.273 316.39 577.012C307.024 572.035 289.291 560.331 286.061 549.787Z"/>
	<path fill="#FDFDFD" d="M413.405 874.138L415.214 874L415.64 874.409C415.523 874.537 415.42 874.679 415.291 874.795C411.752 877.957 388.308 883.148 382.541 884.14Q375.406 885.402 368.169 885.738C360.546 886.113 352.529 884.725 345.03 885.617C341.803 886 339.02 888.875 335.987 890C329.92 892.252 315.943 891.73 309.383 890.929C308.37 890.861 307.648 890.651 306.705 890.279C306.366 889.215 306.443 889.041 306.729 887.947C311.602 886.883 321.884 887.967 328.233 887.189C334.429 886.43 340.244 883.935 346.349 883.22C356.938 881.978 367.798 882.464 378.46 881.298C390.376 879.995 401.744 876.705 413.405 874.138Z"/>
	<path fill="#FDFDFD" d="M280.318 487.405L280.651 487.744C281.71 490.57 278.094 496.629 277.009 499.527C272.404 511.828 272.989 521.426 271.306 533.998L266.296 531.995C265.944 531.855 265.28 531.611 264.988 531.39C264.02 530.657 263.926 529.203 263.871 528.088C263.302 516.678 272.602 495.616 280.318 487.405Z"/>
	<path fill="#FDFDFD" d="M255.952 492.227C259.948 494.465 263.888 496.736 267.762 499.183Q264.279 507.236 261.545 515.574C261.494 515.615 261.454 515.679 261.391 515.697C259.393 516.249 252.624 511.696 250.528 510.363C251.974 504.217 253.999 498.225 255.952 492.227Z"/>
	<path fill="#FDFDFD" d="M378.034 690.261C382.48 694.013 394.605 713.565 398.134 719.484C391.126 713.544 384.009 707.692 377.328 701.384C377.424 697.646 377.615 693.978 378.034 690.261Z"/>
	<path fill="#533786" d="M229.31 943.801C228.382 945.918 227.545 947.57 225.508 948.799C219.352 952.513 208.994 950.091 202.507 948.301C185.558 943.621 163.547 932.803 154.824 916.59C153.073 913.336 151.722 909.258 152.986 905.601C153.859 903.076 155.867 901.232 158.274 900.17C170.867 894.611 191.09 906.585 200.249 914.488C203.451 917.251 215.794 931.167 218.311 931.818C218.494 931.866 218.688 931.858 218.877 931.878C222.368 935.861 225.656 939.952 229.31 943.801Z"/>
	<path fill="#9F8BE8" d="M166.462 0L188.342 0L234.279 0L252.541 0L264.532 0C259.83 2.41289 254.948 5.10646 249.87 6.60481C241.904 9.48944 238.753 16.8303 231.902 20.772C227.923 22.5888 223.933 24.641 219.833 26.1555C216.351 27.9159 211.754 27.1139 208.639 28.7611C205.854 29.133 203.065 29.5829 200.249 29.567C188.326 29.526 177.58 26.998 165.898 25.1722C160.785 24.0083 156.13 21.9778 151.365 19.8257C153.116 18.6965 154.447 18.0775 156.526 17.776C162.601 19.1052 168.442 21.2234 174.464 22.7446C168.88 15.2929 167.488 9.13952 166.462 0Z"/>
	<defs>
		<linearGradient id="gradient_1" gradientUnits="userSpaceOnUse" x1="207.56364" y1="28.481094" x2="207.46739" y2="0.1530236">
			<stop offset="0" stop-color="black"/>
			<stop offset="1" stop-color="#060015"/>
		</linearGradient>
	</defs>
	<path fill="url(#gradient_1)" d="M234.279 0L252.541 0L264.532 0C259.83 2.41289 254.948 5.10646 249.87 6.60481C241.904 9.48944 238.753 16.8303 231.902 20.772C227.923 22.5888 223.933 24.641 219.833 26.1555C216.351 27.9159 211.754 27.1139 208.639 28.7611C205.854 29.133 203.065 29.5829 200.249 29.567C188.326 29.526 177.58 26.998 165.898 25.1722C160.785 24.0083 156.13 21.9778 151.365 19.8257C153.116 18.6965 154.447 18.0775 156.526 17.776C162.601 19.1052 168.442 21.2234 174.464 22.7446C178.195 23.9068 182.031 24.4619 185.919 24.7903Q187.779 25.1693 189.67 25.3235C207.11 26.7304 223.033 22.2102 236.395 10.7267C235.757 10.625 234.921 10.5447 234.306 10.3038C233.111 9.83567 232.095 9.1143 231.658 7.8557C230.732 5.19162 232.947 2.14863 234.279 0Z"/>
	<path fill="#533786" d="M234.279 0L252.541 0C246.744 3.03917 241.398 6.50165 236.395 10.7267C235.757 10.625 234.921 10.5447 234.306 10.3038C233.111 9.83567 232.095 9.1143 231.658 7.8557C230.732 5.19162 232.947 2.14863 234.279 0Z"/>
	<path fill="#533786" d="M166.462 0L188.342 0C190.995 6.45278 191.725 12.9694 188.901 19.5639C188.099 21.4367 187.072 23.1174 185.919 24.7903C182.031 24.4619 178.195 23.9068 174.464 22.7446C168.88 15.2929 167.488 9.13952 166.462 0Z"/>
	<path fill="#533786" d="M195.521 156.324C196.923 157.8 199.004 158.473 200.929 159.018C202.439 161.072 203.019 163.55 203.359 166.051C204.631 175.418 199.648 186.451 194.126 193.778C186.288 204.177 172.205 214.296 158.961 215.794C157.309 215.981 155.696 215.848 154.461 214.622C152.793 212.966 152.629 210.17 152.787 207.98C153.864 193.074 163.343 175.24 174.529 165.409C180.191 160.432 187.713 155.782 195.521 156.324Z"/>
	<path fill="#533786" d="M372.766 892.506C390.366 891.757 405.856 887.475 421.152 878.862C433.673 880.438 452.889 883.559 461.037 894.395C461.99 895.662 462.839 897.256 462.645 898.897C462.381 901.137 460.489 902.642 458.719 903.77C443.928 913.204 417.344 909.905 401.297 905.997C391.486 903.608 379.798 900.118 372.766 892.506Z"/>
	<path fill="#533786" d="M568.692 162.289C568.527 162.288 568.361 162.294 568.196 162.286C559.018 161.821 549.7 156.994 543.593 150.244C536.534 142.441 530.85 129.411 531.601 118.679C531.739 116.694 532.311 113.895 534.141 112.741C537.911 110.364 547.003 113.018 551.026 114.365C562.55 118.224 573.558 126.258 578.971 137.345C582.478 144.529 583.445 151.505 580.823 159.15C578.185 159.623 570.116 160.319 568.7 162.209L568.692 162.289Z"/>
	<path fill="#533786" d="M208.639 28.7611C211.754 27.1139 216.351 27.9159 219.833 26.1555C225.264 31.0557 227.025 35.7943 227.403 43.0282C227.511 45.1045 227.483 47.1944 227.461 49.2729C225.806 60.8804 222.302 70.3247 215.096 79.6619C212.032 83.6331 205.505 91.7258 200.106 92.0068C198.746 92.0776 197.908 91.8356 197.015 90.7799C192.749 85.7366 191.892 65.8424 192.942 59.0906C194.461 49.3188 198.988 36.6404 207.252 30.6676L208.576 29.6992L209.157 29.2768L208.639 28.7611Z"/>
	<path fill="#533786" d="M112.494 0L140.302 0L166.462 0C167.488 9.13952 168.88 15.2929 174.464 22.7446C168.442 21.2234 162.601 19.1052 156.526 17.776C154.447 18.0775 153.116 18.6965 151.365 19.8257C150.844 20.2236 150.775 20.299 150.115 20.6697C138.778 27.0365 120.197 27.3184 107.997 23.5152C104.025 22.2773 98.1484 20.2306 96.2714 16.2268C95.5591 14.7075 95.6197 13.0702 96.2744 11.5421C98.7326 5.80375 107.137 2.30841 112.494 0Z"/>
	<path fill="#9F8BE8" d="M140.302 0L166.462 0C167.488 9.13952 168.88 15.2929 174.464 22.7446C168.442 21.2234 162.601 19.1052 156.526 17.776C156.809 17.1632 157.089 16.5499 157.334 15.9206C157.985 14.2497 157.734 12.8651 156.995 11.2912C154.071 5.06434 146.381 2.13657 140.302 0Z"/>
	<path fill="#533786" d="M165.898 25.1722C177.58 26.998 188.326 29.526 200.249 29.567C198.2 29.9045 196.097 29.8914 194.026 30.1953L193.896 30.6128C195.243 31.4977 195.942 32.2309 196.91 33.5226C197.086 34.2 197.199 34.7666 197.022 35.4634C195.413 41.7963 186.188 48.5659 180.735 51.56C170.446 57.2098 149.391 62.0178 137.961 58.3443C136.446 57.8572 135.011 57.0654 134.373 55.5134C133.598 53.6277 134.409 51.2342 135.179 49.4784C140.429 37.5221 154.3 29.6479 165.898 25.1722Z"/>
	<path fill="#533786" d="M578.598 165.205C581.234 165.555 584.51 165.628 587.031 166.345C588.062 171.1 588.872 174.853 588.555 179.766C587.76 192.107 581.177 203.51 571.975 211.567C568.36 214.732 560.498 221.008 555.619 220.709C553.521 219.591 552.15 218.218 551.28 215.962C548.032 207.535 550.918 193.624 554.673 185.695C560.454 173.49 566.263 169.579 578.598 165.205Z"/>
	<path fill="#533786" d="M231.902 20.772C238.753 16.8303 241.904 9.48944 249.87 6.60481C256.433 12.9172 259.686 20.6545 259.902 29.7615C260.17 41.0809 253.94 54.1165 246.084 62.0736C244.557 63.6199 242.414 65.3786 240.108 65.362C238.376 65.3496 237.201 64.2794 236.23 62.9797C233.072 58.7563 231.558 52.6239 230.023 47.6362C229.708 40.7884 227.877 34.6588 229.531 27.7111C230.042 25.5664 231.123 23.6165 231.707 21.4981L231.902 20.772Z"/>
	<path fill="#533786" d="M410.675 59.1291C414.124 58.8255 418.306 58.1222 421.246 60.3994C422.853 61.6441 423.537 63.4485 423.725 65.4284C424.43 72.8523 418.822 82.554 414.328 88.1383C412.234 90.7401 409.722 93.019 407.691 95.6556L407.258 96.2237C409.112 97.3547 411.002 98.4721 412.579 99.9796C420.039 107.109 423.503 118.462 423.562 128.56C423.614 137.432 421.456 151.293 414.685 157.674C413.616 158.681 412.137 159.767 410.589 159.459C406.546 158.656 401.364 150.417 399.306 146.965C391.014 133.06 390.202 120.333 394.184 104.956C387.229 107.564 381.914 110.082 374.419 107.808Q373.877 110.211 373.115 112.553C369.251 124.324 360.278 133.178 349.328 138.64C345.604 140.498 338.25 143.991 334.181 142.144C332.769 141.503 332.196 140.167 331.558 138.861C331.339 135.131 331.238 131.584 331.821 127.883C333.968 114.253 342.427 103.264 353.29 95.2664Q349.582 96.6551 345.733 97.585Q341.884 98.5148 337.951 98.9721C333.281 99.5005 319.924 101.251 316.285 98.3442C316.126 97.6915 316.075 97.639 316.095 96.8759C316.231 91.5171 328.148 78.8118 332.473 75.3205C341.447 68.0755 352.729 64.0896 364.298 65.3752C368.823 65.878 374.697 67.3418 377.551 71.1504C378.531 72.458 378.853 73.8612 378.568 75.4853C377.569 81.1886 365.619 88.8294 360.842 91.9591C363.062 91.6944 365.717 91.1843 367.875 91.9238C371.03 93.0049 372.24 97.3096 373.44 100.055C374.631 91.6128 377.449 83.9978 382.399 77.0022Q383.015 76.1232 383.674 75.2757Q384.332 74.4282 385.032 73.6144Q385.732 72.8005 386.471 72.0222Q387.211 71.244 387.987 70.5033Q388.764 69.7625 389.577 69.0611Q390.389 68.3597 391.236 67.6994Q392.082 67.039 392.96 66.4213Q393.837 65.8037 394.745 65.2301Q395.652 64.6566 396.587 64.1287Q397.521 63.6008 398.481 63.1197Q399.44 62.6387 400.422 62.2057Q401.405 61.7727 402.407 61.3888Q403.409 61.0049 404.429 60.671Q405.45 60.3372 406.485 60.0542Q407.52 59.7712 408.569 59.5398Q409.617 59.3084 410.675 59.1291Z"/>
	<path fill="#533786" d="M648.671 176.493C650.696 176.397 652.627 176.261 654.372 177.515C657.468 179.739 658.72 186.161 659.001 189.686C660.55 209.124 647.302 219.491 636.17 232.467C642.353 228.727 654.514 214.497 660.876 214.02C662.089 213.929 663.228 214.158 664.06 215.121C665.697 217.014 665.237 220.139 664.938 222.374C672.384 227.404 678.601 233.89 684.291 240.812C693.169 251.612 697.559 263.578 699.323 277.369C699.711 280.409 700.398 284.073 699.971 287.118C699.74 288.762 699.225 289.538 697.94 290.537C691.63 291.455 682.743 285.787 677.592 282.577Q675.647 281.243 673.795 279.782C662.143 270.564 657.382 258.872 655.723 244.426Q654.873 247.429 653.704 250.323C649.707 260.465 642.029 269.073 631.925 273.391C627.901 275.111 619.653 277.522 615.585 275.924C614.812 275.147 614.442 274.556 614.316 273.44C614.005 270.678 614.998 267.575 615.716 264.923C618.495 254.654 622.527 245.989 628.987 237.518C628.257 236.414 627.465 235.275 626.882 234.085C622.366 224.863 623.692 209.415 627.128 200.002Q627.471 199.037 627.861 198.091Q628.252 197.144 628.689 196.219Q629.127 195.293 629.61 194.39Q630.093 193.488 630.621 192.61Q631.148 191.733 631.719 190.883Q632.291 190.033 632.903 189.213Q633.516 188.393 634.169 187.605Q634.822 186.816 635.514 186.061Q636.206 185.306 636.934 184.587Q637.663 183.868 638.426 183.186Q639.19 182.504 639.987 181.861Q640.784 181.218 641.612 180.616Q642.44 180.014 643.297 179.454Q644.154 178.894 645.038 178.378Q645.922 177.861 646.831 177.39Q647.74 176.918 648.671 176.493Z"/>
	<path fill="#533786" d="M469.152 833.733Q476.584 833.765 483.989 834.398C500.068 835.786 521.826 838.996 532.721 851.987C532.942 850.988 533.007 849.999 533.191 849.001C533.374 848.003 533.941 847.084 534.849 846.605C536.751 845.602 539.128 846.137 541.086 846.735C544.205 847.688 548.071 849.586 549.497 852.731C550.224 854.334 550.096 856.582 549.237 858.12C548.643 859.183 547.912 859.905 546.678 860.112C542.622 860.795 537.473 857.156 534.368 854.863L533.781 855.088C533.722 855.365 533.613 855.636 533.604 855.919C533.569 856.986 533.476 857.538 533.148 858.608C528.924 863.144 522.753 865.027 516.79 865.904C497.087 868.801 471.646 864.782 455.456 852.537C452.472 850.281 448.832 846.995 448.472 843.039C448.323 841.401 448.813 839.868 449.897 838.626C453.935 833.995 463.548 834.014 469.152 833.733Z"/>
	<path fill="#533786" d="M306.898 922.704C324.014 920.438 347.934 925.638 362.787 934.413C366.737 936.746 373.095 940.899 373.929 945.715C374.164 947.068 373.791 948.337 373.016 949.445C369.541 954.41 360.599 956.379 354.994 957.402Q353.158 957.652 351.313 957.816Q349.468 957.979 347.617 958.057Q345.767 958.135 343.914 958.127Q342.062 958.118 340.212 958.024Q338.362 957.929 336.518 957.748Q334.674 957.567 332.841 957.301Q331.008 957.034 329.189 956.683Q327.371 956.331 325.57 955.896Q323.77 955.46 321.992 954.94Q320.213 954.421 318.461 953.82Q316.709 953.218 314.987 952.536Q313.265 951.853 311.576 951.092Q309.888 950.33 308.237 949.49Q306.586 948.65 304.975 947.735Q303.365 946.819 301.799 945.829Q300.233 944.84 298.715 943.778C294.871 941.101 289.471 937.164 288.81 932.2C288.587 930.533 288.931 928.97 290.031 927.659C293.487 923.542 301.937 923.212 306.898 922.704Z"/>
	<path fill="#533786" d="M111.614 951.649C126.42 950.271 142.274 955.885 154.63 963.702C162.792 968.865 173.168 978.076 175.068 988.1C175.465 990.195 175.25 992.252 173.883 993.967C171.594 996.839 168.552 997.436 165.121 997.902C151.355 998.391 137.322 992.818 125.7 985.826C117.639 980.976 103.263 970.719 101.172 960.832C100.795 959.049 101.03 957.312 102.144 955.824C104.427 952.773 108.107 952.154 111.614 951.649Z"/>
	<path fill="#533786" d="M492.009 105.224C498.749 105.364 505.01 106.081 511.35 108.502C520.382 111.952 527.01 117.766 530.995 126.614C522.192 137.014 514.423 133.329 509.166 137.708C509.326 138.545 509.565 139.511 509.546 140.362C509.504 142.266 508.521 143.64 507.25 144.95C499.673 152.759 488.616 155.439 478.092 155.523C474.9 155.492 470.761 155.549 467.914 153.991C466.725 153.341 466.494 152.769 466.093 151.529C466.238 150.798 466.403 150.142 466.793 149.495C471.788 141.216 483.972 136.993 492.847 135.16C487.651 133.054 482.679 130.617 478.017 127.483C474.319 124.997 465.919 119.451 465.494 114.636C465.37 113.228 465.685 112.087 466.605 111.014C471.259 105.583 485.328 105.495 492.009 105.224Z"/>
	<path fill="#533786" d="M203.627 208.203C205.017 208.284 206.856 208.226 208.144 208.787C209.692 209.462 210.644 210.509 211.219 212.07C213.235 217.536 209.631 226.464 207.415 231.521C199.75 249.015 184.305 260.978 166.758 267.767C165.312 268.08 163.511 268.707 162.183 267.795C160.129 266.386 159.439 263.898 159.256 261.536C158.31 249.261 164.567 233.833 172.412 224.566C180.412 215.116 191.274 209.194 203.627 208.203Z"/>
	<path fill="#533786" d="M671.12 174.524C672.555 174.331 673.878 174.257 675.317 174.484C682.653 175.637 688.639 180.755 692.862 186.614C702.062 199.379 704.026 218.12 701.55 233.293C701.025 236.509 700.129 241.24 697.369 243.198C690.908 241.296 684.9 237.027 680.205 232.279C670.945 222.913 664.717 209.727 664.829 196.431C664.891 189.134 665.663 179.834 671.12 174.524Z"/>
	<path fill="#533786" d="M221.982 147.016C222.778 147.04 223.591 147.035 224.375 147.194C227.84 147.895 231.64 152.597 233.645 155.372C243.069 168.419 246.173 183.151 243.531 198.964C242.377 205.874 240.015 217.515 233.963 221.795C227.293 219.168 223.43 214.312 219.844 208.307C211.702 194.672 208.539 177.226 212.576 161.744C214.096 155.916 216.586 150.185 221.982 147.016Z"/>
	<path fill="#533786" d="M527.701 807.316C527.09 805.919 526.534 804.264 526.798 802.72C527.083 801.064 528.101 799.835 529.417 798.874C536.225 793.902 555.031 795.98 562.999 797.064C576.684 798.926 596.739 802.785 605.56 814.459C605.615 815.295 605.631 816.1 605.542 816.937C605.303 819.183 602.995 821.427 601.251 822.656C592.461 828.85 575.799 827.788 565.788 826.126C554.143 824.193 534.756 817.26 527.701 807.316Z"/>
	<path fill="#533786" d="M163.169 134.207C170.985 133.627 181.296 135.334 187.955 139.68C189.375 140.608 190.184 141.494 190.571 143.194C190.324 144.937 189.537 145.932 188.411 147.225C176.728 160.636 161.872 168.518 144.123 169.709C138.82 170.184 121.618 169.297 117.863 165.247C117.294 164.634 116.97 163.924 116.953 163.098C116.898 160.391 118.89 157.944 120.548 155.982C131.411 143.125 146.526 135.644 163.169 134.207Z"/>
	<path fill="#533786" d="M147.262 171.197C150.137 171.055 153.844 170.477 156.309 172.288C157.679 173.295 158.405 174.714 158.646 176.377C159.755 184.029 152.067 197.508 147.368 203.346C139.718 212.848 128.672 219.636 116.474 221.029C112.997 221.39 109.067 221.964 105.671 220.999C104.628 220.005 104.295 219.485 104.145 218.021C103.238 209.193 109.754 195.17 115.175 188.374C123.369 178.101 134.387 172.738 147.262 171.197Z"/>
	<path fill="#533786" d="M50.4187 893.657C56.836 893.583 62.8018 894.617 68.7584 897.057C78.9675 901.239 88.7131 908.991 92.9414 919.441C94.6614 923.692 95.5467 928.769 93.4856 933.064C91.7799 936.618 88.423 939.119 84.7943 940.413C76.4565 941.862 67.3305 937.418 60.6325 932.766C51.9106 926.707 42.2838 915.91 40.6035 905.031C40.1902 902.355 40.4534 899.626 42.1661 897.431C44.3042 894.691 47.1636 894.165 50.4187 893.657Z"/>
	<path fill="#533786" d="M249.21 120.896C253.756 121.302 257.777 124.266 260.996 127.338C270.9 136.788 276.186 148.94 276.508 162.609C276.714 171.372 275.161 183.367 268.871 189.98C268.179 190.202 267.523 190.399 266.789 190.422C264.204 190.501 260.71 187.652 258.964 185.956C247.667 174.985 241.87 159.933 241.862 144.309C241.858 135.926 243.056 127.091 249.21 120.896Z"/>
	<path fill="#533786" d="M432.496 73.9332C438.415 74.9136 443.202 78.1061 447.098 82.5676C454.762 91.3439 457.276 103.047 456.508 114.432C455.868 123.902 452.931 135.139 445.552 141.556C445.043 141.551 444.796 141.581 444.268 141.391C439.242 139.582 433.29 130.874 430.496 126.533C423.376 115.47 420.102 102.445 423.02 89.4408C424.384 83.3641 427.089 77.3961 432.496 73.9332Z"/>
	<path fill="#533786" d="M247.269 972.561C264.285 971.705 281.61 976.761 296.482 984.856C301.375 987.519 312.72 993.937 313.909 999.898C314.162 1001.17 314.085 1002.25 313.311 1003.33C311.542 1005.8 308.2 1006.29 305.439 1006.91C290.631 1009.06 273.611 1005.3 260.184 999.018C253.263 995.779 242.125 989.08 239.664 981.307C239.192 979.816 239.281 978.427 240.051 977.041C241.466 974.495 244.683 973.386 247.269 972.561Z"/>
	<path fill="#533786" d="M171.721 63.5812C173.215 63.4568 174.908 63.5825 176.296 64.2053C177.795 64.8785 178.899 66.0988 179.48 67.6295C181.747 73.6017 178.111 83.804 175.715 89.386C168.866 105.339 158.241 114.275 142.351 120.701C139.925 121.355 137.895 122.198 135.559 120.866C134.882 120.061 134.549 119.395 134.339 118.376C132.083 107.382 137.18 92.6957 142.971 83.4815C149.676 72.8134 159.477 66.3143 171.721 63.5812Z"/>
	<path fill="#533786" d="M610.418 212.187C613.836 211.843 618.446 212.043 621.175 214.418C622.945 215.959 623.599 218.017 623.6 220.32C623.604 227.806 618.963 236.285 613.907 241.585C605.012 250.911 592.947 253.713 580.496 253.936C577.198 253.673 572.987 253.681 569.91 252.407C568.713 251.912 567.542 251.371 567.172 250.018C565.947 245.538 571.518 235.321 574.294 231.796C582.439 221.454 597.44 213.67 610.418 212.187Z"/>
	<path fill="#533786" d="M384.423 125.451C385.011 125.456 385.664 125.436 386.242 125.556C387.994 125.92 389.27 127.895 389.984 129.387C393.994 137.756 391.919 151.934 388.713 160.335C383.703 173.461 374.148 183.07 361.447 188.794C360.627 189.001 359.253 189.457 358.481 189.111C357.169 188.523 356.348 187.285 355.793 186.006C351.744 176.667 355.967 159.733 359.809 150.792C364.815 139.141 372.491 130.162 384.423 125.451Z"/>
	<path fill="#533786" d="M543.824 169.146C545.287 169.009 547.303 168.7 548.716 169.222C550.488 169.877 551.736 171.363 552.355 173.119C554.51 179.23 551.382 188.445 548.515 193.923C541.408 207.502 529.927 216.188 515.521 220.74C513.038 221.298 510.515 221.665 508.003 222.073Q507.76 221.015 507.575 219.946C505.694 208.874 509.625 195.733 516.075 186.709C522.791 177.315 532.401 170.968 543.824 169.146Z"/>
	<path fill="#533786" d="M653.903 266.046C654.143 266.068 654.385 266.074 654.624 266.112C656.992 266.483 658.731 268.14 660.089 270.023C665.238 277.162 666.696 288.184 665.349 296.698C663.231 310.077 655.387 320.358 644.69 328.15C643.907 328.268 643.22 328.608 642.52 328.138C638.667 325.552 635.798 316.582 634.63 312.209C631.621 300.944 633.173 287.766 639.066 277.662C642.44 271.877 647.388 267.78 653.903 266.046Z"/>
	<path fill="#533786" d="M452.999 159.698C458.27 159.177 468.201 160.243 472.266 163.825Q472.53 164.054 472.77 164.308Q473.01 164.562 473.223 164.84Q473.436 165.117 473.619 165.415Q473.803 165.713 473.955 166.028Q474.107 166.342 474.227 166.671Q474.346 167 474.432 167.339Q474.517 167.678 474.567 168.024Q474.618 168.37 474.633 168.719C474.791 172.687 472.084 176.206 469.486 178.937C460.956 187.907 449.816 193.326 437.41 193.554C429.245 193.572 420.361 191.723 414.206 186.078C415.716 182.564 417.593 179.471 420.034 176.522C428.372 166.449 440.123 160.931 452.999 159.698Z"/>
	<path fill="#533786" d="M415.744 965.705C427.316 964.904 448.576 965.862 458.417 973.015C459.809 974.027 460.404 974.936 460.68 976.669C460.446 977.945 460.078 978.777 459.248 979.757C453.292 986.795 440.95 988.418 432.376 989.123C419.78 990.093 403.888 989.155 392.394 983.368C389.917 982.12 386.613 980.135 385.918 977.206C385.611 975.912 386.056 974.923 386.827 973.902C390.946 968.447 409.371 966.21 415.744 965.705Z"/>
	<path fill="#533786" d="M484.766 187.649C490.468 187.053 498.172 186.993 503.4 189.679C505.341 190.677 506.889 192.212 507.437 194.369C508.201 197.378 506.743 200.518 505.1 202.968C498.448 212.887 487.377 218.178 475.979 220.367C469.873 221.197 459.526 222.006 454.183 218.425C452.841 217.526 451.903 216.229 451.717 214.594C451.338 211.267 453.67 207.798 455.539 205.241C462.879 195.202 472.545 189.542 484.766 187.649Z"/>
	<path fill="#533786" d="M519.025 148.707C523.887 148.259 531.956 148.609 536.184 151.185C537.496 151.984 538.493 153.128 538.754 154.697C539.257 157.725 536.947 160.985 535.147 163.205C526.241 174.193 514.146 179.577 500.338 180.967C494.848 181.058 486.931 180.89 482.119 178.049C480.73 177.228 479.808 176.206 479.533 174.556C479.048 171.638 481.982 168.092 483.744 166.052C492.434 155.993 505.879 149.717 519.025 148.707Z"/>
	<path fill="#533786" d="M490.348 918.716C502.19 917.886 518.29 918.631 529.131 924.034C531.832 925.381 534.622 927.097 535.646 930.064C535.486 931.229 535.482 931.738 534.693 932.666C530.374 937.744 516.518 939.697 510.376 940.451C497.808 940.991 477.361 941.275 466.726 933.312C465.406 932.323 464.185 930.933 464.149 929.187C464.12 927.759 464.902 926.426 465.837 925.407C471.302 919.45 482.802 919.223 490.348 918.716Z"/>
	<path fill="#533786" d="M624.69 764.207C629.046 763.942 633.676 764.464 637.978 765.135C647.809 766.669 662.353 769.928 668.47 778.481L668.789 778.937C668.874 778.134 668.896 777.053 669.184 776.306C669.509 775.461 669.898 774.849 670.689 774.414C672.474 773.432 674.523 773.717 676.387 774.328C679.505 775.349 682.924 777.668 684.285 780.757C685.046 782.484 684.908 783.906 684.185 785.64C683.599 786.248 683.145 786.711 682.29 786.927C678.807 787.808 675.617 786.35 672.696 784.656L672.045 784.273L670.483 782.735C670.348 783.002 670.217 783.272 670.079 783.538C668.728 786.12 666.673 787.974 663.83 788.753C650.972 792.278 633.587 788.549 622.142 782.213C618.269 780.069 612.052 775.999 611.183 771.407C610.954 770.194 611.002 769.044 611.768 768.02C614.357 764.558 620.77 764.526 624.69 764.207Z"/>
	<path fill="#533786" d="M620.923 169.181C623.826 168.836 627.77 168.864 630.415 170.175C631.949 170.936 633.154 172.161 633.655 173.822C634.903 177.963 632.36 183.455 630.324 187.054C623.969 198.286 614.035 204.171 601.947 207.591C599.303 208.071 592.977 209.573 590.781 207.816C589.505 206.796 588.893 205.419 588.715 203.832C587.991 197.386 592.53 187.793 596.423 182.742C602.485 174.878 611.21 170.457 620.923 169.181Z"/>
	<path fill="#533786" d="M572.844 874.714C583.548 874.205 599.524 873.88 608.795 880.168C610.472 881.306 612.39 883.097 612.531 885.265C612.618 886.616 611.967 887.686 611.07 888.627C606.86 893.05 593.98 894.645 588.044 895.04C576.595 895.848 558.287 895.765 548.757 888.267C547.135 886.991 546.142 885.854 545.863 883.761C546.058 882.856 546.244 882.412 546.872 881.696C551.242 876.716 566.649 875.101 572.844 874.714Z"/>
	<path fill="#533786" d="M642.348 833.21C652.224 832.533 665.218 832.617 674.217 837.304C676.658 838.577 678.424 839.965 679.269 842.627C679.098 843.88 679.092 844.454 678.261 845.463C674.366 850.195 661.411 851.689 655.622 852.22C647.087 853.76 634.546 852.423 626.446 849.334C623.757 848.309 619.901 846.373 618.955 843.385C618.587 842.224 618.827 841.044 619.534 840.065C623.345 834.795 636.386 833.687 642.348 833.21Z"/>
	<path fill="#533786" d="M706.845 798.715C714.296 798.112 723.083 798.72 730.11 801.447C732.172 802.247 735.432 803.868 736.089 806.219C736.429 807.437 736.047 808.338 735.335 809.319C732.285 813.526 719.707 814.427 714.875 814.635C710.474 814.722 706.085 814.693 701.719 814.055C697.383 813.422 688.089 811.633 685.917 807.487C685.369 806.44 685.434 805.419 686.078 804.436C689.074 799.865 702.036 799.051 706.845 798.715Z"/>
	<path fill="#533786" d="M754.003 766.185C757.731 765.898 761.498 765.69 765.212 766.243C767.97 766.654 773.325 767.853 774.808 770.597C775.541 771.956 775.393 772.345 775.062 773.764C772.142 777.209 766.848 777.691 762.625 778.457C755.541 778.833 747.204 779.133 740.874 775.326C739.491 774.494 738.982 773.801 738.553 772.268C738.748 771.793 738.858 771.432 739.224 771.027C741.955 768.003 750.075 766.642 754.003 766.185Z"/>
	<path fill="#533786" d="M385.6 937.552C387.191 937.54 388.949 937.727 390.466 938.213C393.282 939.114 396.957 941.604 398.23 944.366C398.648 945.273 398.792 946.443 398.403 947.367C397.59 949.298 396.068 950.06 394.205 950.765C392.324 950.421 390.407 950.091 388.593 949.478C385.999 948.601 381.371 946.13 380.453 943.295C380.218 942.569 380.175 941.735 380.527 941.047C381.512 939.124 383.644 938.175 385.6 937.552Z"/>
	<path fill="#533786" d="M468.969 891.035Q470.379 891.001 471.789 891.05C475.084 891.195 478.924 892.973 481.045 895.549C481.945 896.643 482.559 898.047 482.231 899.488C481.785 901.446 480.294 902.469 478.675 903.42Q478.042 903.454 477.408 903.464C473.792 903.506 469.266 902.082 466.727 899.394C465.718 898.326 465.115 896.91 465.386 895.427C465.77 893.328 467.379 892.222 468.969 891.035Z"/>
	<path fill="#533786" d="M605.56 814.459C605.212 812.412 604.675 810.304 606.095 808.515C606.914 807.484 608.217 807.025 609.5 807.036C612.775 807.063 616.302 809.129 618.439 811.51C618.933 812.06 619.373 812.641 619.82 813.229C620.398 815.055 620.967 816.506 619.944 818.315C619.332 819.399 618.318 819.85 617.13 820.095C614.535 820.63 610.389 819.184 608.342 817.599C607.242 816.747 606.413 815.545 605.56 814.459Z"/>
</svg>
