<?xml version="1.0" encoding="utf-8" ?>
<svg xmlns="http://www.w3.org/2000/svg" xmlns:xlink="http://www.w3.org/1999/xlink" width="1024" height="1024">
	<defs>
		<linearGradient id="gradient_0" gradientUnits="userSpaceOnUse" x1="1034.7148" y1="847.51855" x2="197.41196" y2="235.45181">
			<stop offset="0" stop-color="black"/>
			<stop offset="1" stop-color="#160832"/>
		</linearGradient>
	</defs>
	<path fill="url(#gradient_0)" d="M0 0L530.799 0L657.833 0L672.273 0L713.565 0L727.074 0L734.761 0L740.532 0L1024 0L1024 1024L0 1024L0 0Z"/>
	<path fill="#C9C0FB" d="M0 0L530.799 0L657.833 0C648.299 4.45635 638.508 8.45281 628.843 12.6225C624.206 14.6231 618.777 16.3815 614.622 19.2176C612.17 27.6302 613.369 45.4644 613.365 55.0018L613.43 105.419C594.538 113.693 575.935 122.61 557.036 130.885C549.947 133.99 542.779 137.464 535.514 140.114L535.494 48.8711C535.492 34.7229 536.24 19.9392 535.548 5.85616C535.491 4.70723 535.253 3.5234 534.396 2.67659C533.699 1.98697 532.454 1.63365 531.522 1.46349C531.18 1.965 530.864 2.48203 530.523 2.98231C529.741 4.12944 529.527 4.69058 529.458 6.10641C528.994 15.6177 529.389 25.3593 529.394 34.8937L529.375 89.0193L529.513 274.05C521.476 277.106 513.994 281.468 505.895 284.418C500.589 286.351 494.641 286.718 489.49 288.991C487.698 289.782 486.689 290.885 485.492 292.403C478.771 294.378 472.13 295.973 465.107 296.319C445.535 297.282 427.027 289.723 411.833 277.739C407.81 274.566 403.699 271.098 400.563 267.014C397.632 263.197 395.318 258.719 392.809 254.61C387.862 246.509 382.594 240.12 375.585 233.731C374.763 228.852 373.836 224.125 372.537 219.343C375.331 213.282 378.315 207.701 382.146 202.229C385.127 204.139 388.159 205.858 391.507 207.038C397.081 209.001 403.025 209.357 408.398 206.582C416.114 202.595 418.312 195.814 422.562 188.966C425.217 184.689 427.384 183.152 428.902 178.014C430.961 177.218 433.071 176.422 435.012 175.366C445.018 169.922 434.848 160.297 437.067 151.73C439.983 140.477 451.044 134.143 454.28 122.914C455.79 117.673 455.17 112.437 452.509 107.682C448.987 101.387 443.261 97.2672 437.913 92.6703C433.667 89.0204 429.752 84.9639 425.405 81.4395C414.712 72.77 400.839 65.6146 387.526 62.099C370.24 57.5344 353.15 59.8785 337.809 68.9585C324.378 76.9077 315.116 87.8345 311.278 103.054C305.058 102.809 299.601 103.276 294.049 106.507C285.604 111.42 279.756 120.909 277.462 130.24C274.055 144.099 278.671 155.549 285.74 167.33L285.215 167.837C275.943 176.92 267.309 189.192 261.992 200.953C255.432 215.46 251.294 231.049 246.471 246.188Q236.419 277.656 225.727 308.912C215.234 339.41 200.98 368.731 188.502 398.463C184.346 408.367 179.988 418.701 178.488 429.397C176.514 443.477 176.344 458.871 178.024 473.003C178.682 478.534 180.681 483.942 180.848 489.519C181.183 500.777 180.606 512.254 180.542 523.53L180.007 604.335C179.888 604.482 179.764 604.626 179.649 604.777C172.715 613.931 164.404 632.901 158.662 643.737Q121.943 713.481 88.2498 784.736Q79.2243 803.609 70.5923 822.665C67.6798 829.146 64.4281 835.737 62.2297 842.495C61.3206 845.29 61.527 847.393 61.9534 850.265C57.7125 854.347 47.6505 863.704 46.1201 869.042C45.4495 871.382 46.5557 873.998 47.6162 876.045C51.4924 883.526 57.6348 889.827 61.73 897.211C67.257 907.177 71.4145 918.198 76.5132 928.438C84.5563 944.591 95.0807 961.492 109.284 972.857C111.308 974.476 113.545 976.54 116.078 977.278C117.686 977.746 119.272 977.486 120.68 976.591C122.802 975.243 124.516 972.925 125.886 970.846C135.701 955.959 117.224 939.877 113.88 925.467C112.59 919.908 113.115 914.97 114.371 909.471Q115.009 909.346 115.642 909.196C128.185 906.158 161.556 847.011 169.131 834.23Q203.396 833.927 237.661 834.035C235.325 852.901 233.665 871.882 231.842 890.804C230.18 908.061 228.023 925.867 228.422 943.2Q229.809 945.08 231.137 947.002C231.09 954.707 231.076 962.403 230.653 970.099C232.463 972.829 234.487 975.165 237.688 976.217C248.247 979.689 261.131 978.273 272.152 979.425C280.829 980.332 289.437 982.617 298.067 983.946C317.355 986.917 347.457 988.629 364.869 979.592C367.669 978.139 371.479 975.408 372.287 972.142C373.141 968.689 372.415 964.288 370.664 961.217C363.428 948.526 340.672 951.173 328.534 946.668C319.502 943.316 311.397 937.281 302.099 934.678C304.159 923.467 307.514 912.343 309.976 901.185Q317.273 867.647 323.393 833.874L529.953 833.512L530.035 852.649C537.632 857.456 546.388 861.186 554.385 865.349L604.142 891.323L756.743 971.413L794.769 991.565C802.177 995.486 809.931 999.064 816.921 1003.69C826.253 1001.07 838.629 993.656 847.568 989.257L917.757 954.457L958.87 934.361C966.257 930.768 975.477 927.38 981.896 922.33C983.243 917.374 982.394 910.211 982.405 905.006L982.462 869.573L982.553 712.947L982.942 7.28131C980.811 6.36452 978.555 5.67703 976.362 4.92015L976.247 199.688Q943.937 185.158 912.031 169.762C900.86 164.415 889.293 159.432 878.4 153.564C877.229 144.51 877.924 134.633 877.9 125.492L877.832 72.1797C877.84 64.6924 879.072 50.4084 876.546 43.6392C876.198 43.4058 876.067 43.2838 875.608 43.174C871.603 42.2156 864.913 46.0946 861.235 47.6881C853.852 43.8097 849.123 38.8327 843.391 32.9447C841.918 32.5524 840.881 32.8799 839.466 33.3284C834.273 34.974 829.279 37.7241 824.318 39.9938Q813.845 44.6997 803.297 49.2336C803.368 40.9716 804.341 30.9945 803.26 22.9619C803.003 21.0492 802.563 19.2273 801.005 17.9797C797.254 17.3743 792.627 20.141 789.228 21.6373C782.22 16.78 775.26 12.6592 768.837 6.93647C760.294 9.46898 748.917 15.7807 740.496 19.6884L740.532 0L1024 0L1024 1024L0 1024L0 0Z"/>
	<path fill="#6B5B98" d="M727.074 0L734.761 0L734.851 21.536Q724.432 27.0537 713.64 31.8013C706.872 34.7942 680.113 45.3658 676.099 48.9058C674.746 50.0983 674.694 54.4923 674.599 56.3359C673.735 73.0532 674.503 90.1703 674.51 106.926L674.535 206.725L648.552 194.561C648.8 141.832 649.153 89.01 648.575 36.2859C655.204 33.245 662.036 30.5965 668.712 27.6481Q698.365 14.8209 727.074 0Z"/>
	<path fill="#FEFEFE" d="M672.273 0L713.565 0C707.725 3.31218 701.206 5.85132 695.075 8.61188C678.568 16.0444 661.633 22.7824 645.354 30.6593C638.312 27.6117 631.154 24.8203 624.311 21.3373C640.167 14.4143 657.294 8.68396 672.273 0Z"/>
	<path fill="#C9C0FB" d="M975.307 209.477L975.893 209.575C976.066 209.785 976.321 209.949 976.413 210.205C977.047 211.965 976.477 239.312 976.48 242.935L976.445 389.578L976.087 733.208L975.82 850.748C975.776 873.418 976.173 896.143 975.489 918.803C969.173 922.519 962.364 925.353 955.775 928.547L921.903 945.177L821.869 995.052C820.883 988.549 821.536 981.053 821.552 974.434L821.628 933.405Q821.351 854.669 821.906 775.933L821.757 285.005L919.04 237.304C937.777 228.034 956.39 218.364 975.307 209.477Z"/>
	<path fill="#C9C0FB" d="M535.925 539.875C555.999 548.661 575.267 560.195 594.542 570.611L679.277 615.603C698.717 625.862 718.439 635.413 738.018 645.377C748.76 650.843 759.294 656.724 770.013 662.244C785.044 669.984 800.583 677.38 815.091 686.057C814.581 731.169 815.079 776.333 815.075 821.45L815.128 995.404C807.689 991.747 800.432 987.44 793.113 983.53L749.696 960.546L595.225 879.723C575.486 869.555 556.226 858.111 536.006 848.937L535.925 539.875Z"/>
	<path fill="#000005" d="M559.447 721.262C565.177 722.341 588.218 735.574 595.108 739.179L725.251 808.548C740.932 816.949 756.739 825.125 772.351 833.652C779.395 837.499 786.895 841.107 793.511 845.639C794.302 850.206 793.676 855.569 793.649 860.252L793.561 888.717Q793.454 907.538 793.573 926.357C793.634 933.785 794.104 941.452 793.636 948.853C793.46 951.633 793.254 952.95 791.071 954.841C785.539 953.2 776.26 947.379 770.78 944.442C752.325 934.552 734.101 924.219 715.614 914.396C685.543 898.417 655.421 882.308 625.139 866.747L584.187 845.226C575.166 840.499 565.836 836.086 557.151 830.767C556.813 805.278 557.121 779.769 557.098 754.279C557.092 747.674 556.084 729.274 557.209 723.763C557.492 722.38 558.385 722.052 559.447 721.262Z"/>
	<path fill="#C9C0FB" d="M563.536 729.211C580.315 738.793 597.701 747.347 614.765 756.412Q645.289 772.632 675.646 789.163C694.727 799.349 713.926 809.215 732.886 819.64C750.905 829.547 770.229 838.173 787.225 849.766L787.083 945.891C762.145 933.685 737.972 919.622 713.502 906.489C663.772 879.798 613.86 853.005 563.508 827.518L563.536 729.211Z"/>
	<defs>
		<linearGradient id="gradient_1" gradientUnits="userSpaceOnUse" x1="665.35657" y1="838.04742" x2="677.37146" y2="827.15259">
			<stop offset="0" stop-color="#010009"/>
			<stop offset="1" stop-color="#05041E"/>
		</linearGradient>
	</defs>
	<path fill="url(#gradient_1)" d="M668.489 823.027C669.708 823.008 670.98 822.969 672.177 823.227C675.641 823.974 679.338 826.711 681.036 829.823C682.145 831.856 682.51 834.151 681.704 836.359C680.609 839.361 677.959 840.901 675.23 842.198C673.453 842.494 671.753 842.442 670.022 841.917C666.766 840.931 663.873 838.882 662.412 835.735C661.45 833.662 661.275 831.242 662.081 829.088C663.22 826.043 665.658 824.345 668.489 823.027Z"/>
	<path fill="#FEFEFE" d="M668.649 829.784C670.266 830.004 671.524 830.329 672.956 831.145C674.404 831.97 674.745 832.777 675.125 834.343L674.034 836.014Q673.071 836.049 672.12 835.899Q671.168 835.748 670.263 835.419C668.936 834.941 668.311 834.238 667.693 832.988C667.679 831.457 667.897 831.142 668.649 829.784Z"/>
	<path fill="#000005" d="M558.765 575.206C564.625 576.389 573.032 582.271 578.59 585.249L625.846 610.799C680.237 639.959 735.376 667.931 789.221 698.088C790.507 698.808 791.868 699.62 792.809 700.775C793.583 701.726 793.514 703.182 793.544 704.386C794.068 725.145 793.427 746.07 793.431 766.847C793.434 777.641 794.455 792.644 793.381 803.012C793.112 805.601 792.691 806.477 790.658 808.132C787.108 807.948 743.711 783.743 737.215 780.283L672.398 745.984C660.722 739.77 649.199 733.24 637.425 727.215L585.21 699.98C575.877 695.117 565.889 690.706 556.949 685.205C556.61 662.123 557.044 638.971 557.12 615.881L557.193 590.937C557.203 586.905 556.92 582.653 557.277 578.647C557.406 577.2 557.924 576.364 558.765 575.206Z"/>
	<path fill="#C9C0FB" d="M563.537 583.796C583.888 595.742 605.008 606.606 625.829 617.718L715.759 665.733C739.595 678.414 763.619 690.891 787.048 704.316C786.171 736.109 786.995 768.052 786.94 799.864C781.466 797.621 776.021 794.048 770.772 791.202C758.16 784.363 745.632 777.292 732.868 770.743C704.571 756.223 676.699 741.022 648.554 726.218C620.224 711.317 591.707 696.812 563.539 681.596L563.537 583.796Z"/>
	<path fill="#000005" d="M667.47 674.504C669.425 674.456 671.309 674.562 673.151 675.29C676.667 676.68 680.048 679.745 681.444 683.3C682.225 685.291 682.421 687.463 681.441 689.423C680.145 692.017 677.866 693.189 675.232 694.071C673.993 694.067 672.732 694.063 671.513 693.815C667.932 693.086 664.057 690.816 662.116 687.651C660.913 685.69 660.407 683.353 661.109 681.119C662.117 677.907 664.692 676.101 667.47 674.504Z"/>
	<path fill="#FEFEFE" d="M668.704 681.292C669.777 681.437 670.982 681.675 671.974 682.116C673.291 682.7 674.188 683.437 674.788 684.759C674.711 686.475 674.532 686.497 673.388 687.813C672.211 687.485 671.002 687.173 669.864 686.727C668.538 686.207 667.729 685.524 667.116 684.227C667.292 682.595 667.626 682.463 668.704 681.292Z"/>
	<path fill="#C9C0FB" d="M366.119 360.379C383.121 376.275 399.805 390.791 420.144 402.378C453.498 421.379 492.246 427.82 529.51 417.625L529.644 827.511L477.75 827.534L376.517 827.558C359.128 827.564 341.674 827.235 324.294 827.687C326.328 818.879 327.69 809.782 329.237 800.875L336.757 756.916Q340.551 734.323 343.865 711.655C345.495 700.605 347.433 689.206 347.649 678.027C347.842 668.028 346.806 657.845 346.14 647.87L341.656 589.177Q339.538 559.817 336.736 530.514C335.976 523.104 332.989 505.492 333.469 499.401C333.861 494.439 335.487 489.414 336.69 484.599Q340.044 471.485 343.188 458.319C350.785 425.716 357.702 392.776 366.119 360.379Z"/>
	<path fill="#6B5B98" d="M184.071 440.756C187.831 443.68 192.29 450.181 195.723 453.987C201.399 460.28 207.557 465.941 214.015 471.413C224.14 479.992 235.013 486.617 247.189 491.891C274.62 503.776 298.112 503.955 327.256 501.551C328.042 516.598 330.143 531.784 331.469 546.81C335.101 587.975 338.999 629.25 340.686 670.543C341.138 681.596 339.959 692.6 338.532 703.554C337.13 714.309 335.111 724.995 333.35 735.697L325.025 785.503C319.639 816.226 314.337 846.915 308.221 877.508Q303.383 902.957 297.002 928.064C296.096 931.677 295.77 936.132 294.433 939.526Q294.081 940.443 293.55 941.268Q293.018 942.093 292.329 942.793C287.527 947.662 276.612 947.93 270.17 947.932C262.809 947.934 241.105 946.62 236.055 941.552C234.009 934.72 236.68 915.859 237.277 908.23Q243.496 836.412 251.892 764.815C255.181 736.236 259.693 707.425 260.73 678.666C262.893 683.524 264.165 689.401 267.16 693.811C268.099 695.194 268.843 695.712 270.474 695.97C271.144 695.608 271.71 695.318 272.103 694.623C272.978 693.076 272.403 690.687 271.958 689.085C270.835 685.046 269.214 681.077 267.961 677.06L256.589 640.146L216.684 506.88Q214.341 498.998 211.837 491.166C210.804 488.037 209.815 484.737 206.696 483.156C205.268 483.143 205.077 483.195 203.852 483.93C203.253 485.159 203.068 486.149 203.392 487.487C204.246 491.006 205.802 494.607 206.846 498.117L217.07 532.256L252.642 649.7Q221.112 720.543 185.226 789.283C168.604 821.285 151.801 853.397 130.685 882.737C125.795 889.531 120.868 896.414 115.265 902.645C95.8266 889.061 78.6012 867.795 67.4374 846.966C75.2256 827.876 84.0807 809.211 92.849 790.562Q117.089 738.996 143.218 688.361L166.832 642.316C171.362 633.434 175.543 624.139 180.682 615.603C180.649 616.206 180.621 616.811 180.604 617.415C180.464 622.334 178.898 643.729 181.586 646.568C182.969 647.127 183.062 647.203 184.498 646.853C186.333 645.108 186.763 643.059 187.001 640.593C187.627 634.098 187.06 627.126 187.048 620.562L187.052 580.239L187.528 516.869C187.581 507.377 187.908 497.788 187.606 488.302C187.377 481.117 185.201 473.818 184.233 466.676C183.063 458.048 183.701 449.416 184.071 440.756Z"/>
	<path fill="#FEFEFE" d="M287.367 174.917C303.216 195.715 320.137 211.011 343.393 223.011C355.252 229.129 367.135 233.211 376.444 243.206C386.599 254.109 393.719 267.846 400.997 280.764C416.476 308.239 432.823 336.891 457.197 357.541C494.096 388.803 525.324 378.83 565.745 362.727C572.39 360.08 583.721 354.808 590.512 354.649C592.021 354.613 593.424 355.531 594.467 356.567C598.749 360.824 599.714 367.712 599.777 373.423C595.895 376.983 591.025 379.978 586.695 383.017C559.583 402.049 525.186 417.284 491.5 416.37C436.859 414.886 393.361 380.284 357.586 342.304C349.988 333.774 343.127 325.018 336.802 315.496C333.563 310.62 330.721 304.179 326.862 299.878C325.879 298.782 325.503 298.87 324.115 298.752C322.858 299.429 322.744 299.503 322.079 300.76C322.073 311.546 352.703 346.372 360.969 355.585C357.243 367.071 355.22 379.26 352.387 390.999L335.367 462.278C332.761 473.16 330.527 484.201 327.524 494.976C310.955 497.906 293.663 497.462 277.138 494.462C238.786 487.5 206.522 461.706 184.634 430.288C186.123 419.943 190.879 409.32 194.837 399.7C200.848 385.093 207.574 370.805 213.747 356.274Q226.252 326.431 237.217 295.989C242.877 279.858 248.054 263.394 253.045 247.042C257.543 232.305 261.833 217.222 268.051 203.103C272.793 192.334 279.841 183.808 287.367 174.917Z"/>
	<path fill="#090521" d="M233.603 349.264C234.224 349.25 234.591 349.226 235.237 349.286C236.523 349.404 237.647 349.764 238.398 350.868C240.933 354.595 243.968 366.93 245.659 371.799C247.305 376.538 249.296 381.147 251.268 385.758C258.493 402.651 267.162 419.44 279.766 432.993C283.992 437.538 291.479 442.374 294.513 446.485C294.713 448.116 294.04 449.134 293.313 450.524C292.304 450.522 291.558 450.484 290.583 450.159C277.449 445.788 258.327 415.741 251.761 402.598C246.646 392.36 233.901 362.869 233.029 352.848C232.913 351.518 233.188 350.516 233.603 349.264Z"/>
	<path fill="#6B5B98" d="M870.669 50.9357L871.264 51.1821C872.312 55.5497 871.488 86.0339 871.493 92.7437L871.479 217.387C850.621 227.099 829.722 236.291 808.533 245.246C798.193 249.616 787.8 254.626 777.111 258.03L776.392 257.549C775.647 253.362 776.219 248.449 776.197 244.164L776.05 213.266L775.99 93.8262C807.927 80.4206 839.102 65.1732 870.669 50.9357Z"/>
	<path fill="#C9C0FB" d="M590.938 388.078C601.407 392.28 611.458 398.094 621.493 403.256L671.633 428.989L772.159 481.086C786.445 488.488 800.875 495.559 815.095 503.101L814.991 535.212Q797.899 535.076 780.806 535.127C781.556 534.441 782.47 533.695 782.977 532.805C783.531 531.832 783.478 530.671 783.049 529.663C781.6 526.263 775.842 524.773 772.652 523.635C774.319 517.821 776.092 510.409 774.752 504.4C772.088 492.448 758.186 484.536 748.751 478.402C737.441 471.247 725.814 464.534 714.321 457.674C702.623 458.842 685.071 465.523 673.194 469.163Q625.149 484.052 577.304 499.576C576.97 505.414 577.262 511.415 577.294 517.27C569.709 517.845 544.522 528.064 535.67 531.564C534.967 493.101 535.554 454.517 535.475 416.041C555.499 409.423 573.069 399.052 590.938 388.078Z"/>
	<path fill="#9F8BE8" d="M611.841 231.347C620.595 235.585 635.393 257.285 642.381 265.746C659.908 286.966 677.598 289.896 703.929 292.387C695.626 298.944 684.205 303.262 674.64 307.709Q657.657 315.633 640.568 323.324C630.48 327.881 620.202 332.317 610.671 337.98C605.284 341.18 600.38 344.92 595.338 348.618L594.841 348.599C589.144 348.414 585.092 349.113 579.622 350.832L565.604 355.987C550.843 349.778 535.539 342.262 522.394 333.092C509.67 324.216 495.647 311.265 492.787 295.325C505.445 292.404 517.353 286.861 529.137 281.51C555.942 269.339 590.719 251.888 611.841 231.347Z"/>
	<path fill="#9F8BE8" d="M712.173 463.539C716.033 464.852 720.375 468.095 723.921 470.164C737.98 478.367 755.315 486.944 765.646 499.831C751.732 505.506 737.224 510.116 723.046 515.099C701.646 522.62 680.343 530.271 658.851 537.542C655.163 535.866 651.526 534.06 647.87 532.313C636.028 526.991 624.724 520.257 613.173 514.333C604.825 510.052 596.094 506.556 587.621 502.53C628.804 488.545 670.77 476.848 712.173 463.539Z"/>
	<path fill="#6B5B98" d="M796.92 25.5159C798.22 30.7312 797.176 45.3372 797.233 51.6056C778.673 60.6324 758.626 67.6406 740.532 77.4042C738.931 99.1766 739.985 121.583 740.001 143.424L739.692 239.405C733.316 235.529 726.424 232.344 719.754 228.999L710.747 224.523L710.942 65.0891C722.307 61.0134 733.507 55.2405 744.446 50.1215Q770.757 37.9758 796.92 25.5159Z"/>
	<path fill="#C9C0FB" d="M877.98 160.278C908.447 176.286 940.09 189.497 970.947 204.636C933.194 221.769 896.235 241.149 859.161 259.721L819.39 278.548C808.459 272.514 796.808 267.77 785.773 261.902C809.932 251.41 834.331 241.516 858.337 230.669C863.574 228.303 872.923 225.141 877.069 221.443C878.171 220.46 878.102 219.255 878.178 217.851C878.519 211.562 878.056 205.057 878.018 198.739Q877.901 179.508 877.98 160.278Z"/>
	<path fill="#C9C0FB" d="M255.125 659.814C255.219 659.91 255.324 659.997 255.408 660.103C256.871 661.948 256.99 664.836 256.844 667.071C256.406 673.812 255.214 680.628 254.335 687.328Q251.994 705.019 249.893 722.741L238.375 828.145Q206.143 827.562 173.917 828.396L172.932 828.237L172.698 827.588C176.412 819.859 181.006 812.58 184.998 804.995Q199.077 777.843 212.82 750.519Q227.752 720.256 242.009 689.669C246.53 679.794 250.353 669.562 255.125 659.814Z"/>
	<path fill="#6B5B98" d="M764.273 276.24L787.571 287.969L787.501 400.76C787.487 421.67 786.862 442.792 787.773 463.671C785.622 463.495 767.822 453.705 764.46 452.005L764.273 276.24Z"/>
	<path fill="#6B5B98" d="M729.173 262.485L729.61 262.627C730.794 266.167 729.733 323.178 729.706 331.644L729.777 433.65C723.823 430.273 709.057 423.97 704.72 419.794C703.691 418.804 703.997 417.444 703.963 416.125L703.96 349.602C703.962 341.52 702.946 326.733 704.566 319.361C706.414 310.948 718.334 303.25 719.359 293.881C719.561 292.036 719.303 290.064 717.989 288.651C714.013 284.374 704.074 285.207 698.613 285.061L698.514 275.84C708.598 271.087 719.159 267.408 729.173 262.485Z"/>
	<path fill="#FEFEFE" d="M736.139 262.634C743.453 265.565 750.515 269.53 757.542 273.107L757.779 448.03C750.332 444.93 742.886 440.829 736.022 436.61C735.782 421.895 736.054 407.13 736.019 392.409L736.139 262.634Z"/>
	<path fill="#FEFEFE" d="M746.483 84.1229C754.016 87.5008 761.719 90.4896 769.387 93.544C770.497 101.815 770 110.582 769.997 118.918Q769.982 141.832 769.712 164.744C769.382 194.243 770.133 223.742 769.78 253.24C766.812 253.618 749.793 243.728 746.482 241.97L746.483 84.1229Z"/>
	<path fill="#FEFEFE" d="M794.333 292.081C801.454 294.929 808.349 298.967 815.174 302.487L815.011 422.088L815.142 457.755C815.167 464.25 815.688 471.272 814.82 477.699C807.825 473.921 800.848 470.124 793.688 466.663L794.002 346.505L793.923 311.272C793.908 305.047 793.383 298.222 794.333 292.081Z"/>
	<path fill="#FEFEFE" d="M680.658 55.9106C688.812 58.5486 696.691 62.6633 704.516 66.1503C704.559 117.712 705.021 169.337 704.348 220.891C696.384 217.878 688.363 213.468 680.796 209.545C681.884 158.386 680.938 107.08 680.658 55.9106Z"/>
	<path fill="#FEFEFE" d="M360.417 156.27C356.974 153.492 354.877 149.986 354.056 145.615C353.389 142.067 353.854 137.433 356.083 134.468C357.365 132.762 359.178 131.86 361.266 131.568C372.496 130 367.373 142.707 373.592 146.744C377.869 149.519 388.53 146.365 393.071 144.915C413.864 138.276 426.028 123.283 435.68 104.557L435.917 105.058C443.221 120.815 436.569 132.643 431.096 147.475C429.087 159.698 430.176 157.841 433.612 168.779C430.912 169.981 426.184 169.964 424.067 171.576C421.258 173.716 423.544 178.074 418.342 182.162C414.144 181.077 408.199 176.526 404.249 176.672C402.734 176.728 402.584 176.889 401.668 177.963C401.527 179.036 401.592 179.742 402.177 180.686C404.808 184.934 410.053 187.378 414.726 188.494C413.315 192.03 411.621 195.586 408.93 198.332C406.517 200.796 403.461 202.272 399.978 202.229C394.269 202.16 388.966 198.864 385.025 194.95C378.865 188.834 373.927 178.615 373.443 169.9C373.245 166.351 373.585 162.737 373.557 159.179C373.535 156.429 373.275 155.186 371.284 153.25C367.899 152.703 368.446 156.211 366.134 157.429C364.816 158.124 362.244 157.014 361.011 156.516L360.417 156.27Z"/>
	<path fill="#090521" d="M416.834 143.313C420.198 141.33 426.352 141.12 430.158 141.92C430.865 142.069 430.733 142.103 431.44 142.605C431.613 144.376 431.201 145.756 431.096 147.475C428.209 149.033 424.774 150 421.509 149.103C419.824 148.639 417.92 147.336 417.241 145.662C416.947 144.935 416.915 144.082 416.834 143.313Z"/>
	<path fill="#090521" d="M366.281 136.827C367.584 137.195 368.235 137.437 369.277 138.366C369.523 139.956 368.073 141.809 367.296 143.249C367.394 147.088 369.67 145.696 371.123 148.147C370.603 149.863 369.547 150.997 368.417 152.359C367.348 152.559 366.085 152.787 365.007 152.568C363.612 152.284 362.295 150.863 361.63 149.653C360.36 147.339 360.552 144.275 361.382 141.85C362.308 139.141 363.821 138.112 366.281 136.827Z"/>
	<path fill="#FEFEFE" d="M619.983 26.6857C627.355 30.136 634.909 33.2218 642.332 36.5681L642.459 190.513Q630.928 185.104 619.558 179.366C620.109 160.098 619.849 140.786 619.871 121.509L619.983 26.6857Z"/>
	<path fill="#C9C0FB" d="M536.417 145.758C541.893 147.931 547.27 151.104 552.544 153.752Q569.224 162.222 586.06 170.377Q665.477 208.813 744.391 248.272C767.948 259.956 791.195 273.091 815.365 283.427L815.357 295.649L632.222 204.572C600.262 188.76 567.866 173.858 536.105 157.62C536.079 153.666 536.274 149.709 536.417 145.758Z"/>
	<path fill="#C9C0FB" d="M702.916 620.61C714.95 619.906 727.428 620.963 739.523 621.016L815.186 620.974L815.218 678.204C811.236 677.779 745.937 642.269 737.06 637.699C725.743 631.873 714.134 626.638 702.916 620.61Z"/>
	<path fill="#9F8BE8" d="M772.652 540.857C776.503 540.466 781.272 541.277 785.257 541.331Q800.217 541.404 815.177 541.325L815.066 580.962L749.75 581.087Q728.019 581.166 706.288 580.996C728.877 568.491 750.365 553.92 772.652 540.857Z"/>
	<path fill="#9F8BE8" d="M768.111 505.5L768.472 505.671C769.469 509.167 767.457 516.566 766.868 520.436C756.574 524.21 746.294 528.118 735.879 531.544C724.88 535.163 713.738 538.32 702.751 541.985Q680.592 549.527 658.63 557.622C633.567 545.148 608.238 532.654 582.665 521.274C581.09 519.455 582.065 509.294 582.089 506.534C591.67 511.686 601.777 516.103 611.507 521.011C625.688 528.163 645.052 539.133 659.583 543.534C679.302 537.848 698.798 530.05 718.099 523.069C734.729 517.053 751.533 511.731 768.111 505.5Z"/>
	<path fill="#C9C0FB" d="M604.944 376.911C609.502 377.226 633.451 390.498 638.796 393.223C683.492 416.008 727.604 439.946 772.373 462.575C786.589 469.761 800.538 477.666 815.069 484.203L815.044 496.299L809.241 493.059C794.584 485.037 779.319 478.058 764.487 470.346L596.136 383.672C599.001 381.336 601.999 379.146 604.944 376.911Z"/>
	<path fill="#C9C0FB" d="M576.218 524.024L576.73 524.165C578.009 526.837 576.975 539.065 576.932 542.692C587.585 547.271 653.716 582.702 658.686 582.534C663.362 582.376 679.443 575.468 685.417 573.842C683.975 576.466 682.188 578.921 682.718 582.042C683.867 583.341 684.578 583.153 686.255 583.407C687.706 585.23 686.877 607.985 686.86 612.423L673.312 605.367L542.25 535.648Q559.051 529.302 576.218 524.024Z"/>
	<path fill="#C9C0FB" d="M612.575 112.471L612.822 112.694C613.76 114.954 613.301 169.204 613.415 177.155C600.59 169.15 583.659 161.994 569.845 155.232C561.639 151.13 553.474 146.801 545.032 143.205C554.822 139.056 564.398 134.413 574.124 130.117C586.993 124.431 600.107 118.997 612.575 112.471Z"/>
	<path fill="#FEFEFE" d="M411.424 285.88C414.222 287.119 417.018 289.325 419.618 290.967C440.397 304.086 463.081 304.408 486.324 299.095C488.085 303.64 490.765 307.715 493.292 311.859C491.675 312.965 490.016 313.981 489.163 315.814C487.641 319.082 490.532 323.817 491.882 326.744C476.25 332.437 460.759 337.761 443.997 334.23C430.24 321.279 420.856 302.093 411.424 285.88Z"/>
	<path fill="#FEFEFE" d="M300.448 941.789C305.555 943.365 310.389 945.27 315.146 947.725C319.591 950.019 323.998 952.943 328.796 954.411C338.509 957.382 349.291 956.507 359.953 960.474C361.537 961.063 362.959 961.58 363.693 963.222C363.404 964.377 363.247 964.516 362.274 965.213C347.907 975.499 315.035 972.18 298.094 969.447C278.059 965.706 257.922 963.38 237.88 959.834L237.989 950.487C253.66 954.859 276.301 957.955 291.734 951.248C296.602 949.132 298.63 946.549 300.448 941.789Z"/>
	<path fill="#C9C0FB" d="M494.937 331.994C499.219 335.895 503.214 340.043 507.684 343.748C514.759 349.612 522.6 354.472 530.432 359.246C530.421 362.415 530.169 365.568 529.947 368.727C515.537 372.051 503.487 372.675 489.147 368.55C473.931 364.204 461.489 353.602 450.675 342.518C465.545 342.279 481.433 338.188 494.937 331.994Z"/>
	<path fill="#FEFEFE" d="M550.863 172.157C557.975 175.387 564.737 179.348 571.879 182.545Q572.139 217.419 571.851 252.293C569.342 253.88 566.794 255.41 564.263 256.961C560.082 259.5 555.855 261.787 551.5 264.004C549.412 253.13 550.509 240.755 550.551 229.674L550.863 172.157Z"/>
	<path fill="#9F8BE8" d="M582.567 526.376C599.942 534.546 617.072 543.61 634.223 552.267C642.523 556.456 650.754 560.974 659.349 564.527C667.3 560.843 675.587 558.032 683.828 555.081C700.809 549 717.959 543.56 735.037 537.774Q730.427 540.724 725.782 543.618C718.141 549.081 710.292 555.438 702.002 559.869C688.324 567.182 672.694 571.024 658.325 576.854C650.901 571.69 641.272 568.111 633.143 564.063Q607.946 551.223 582.502 538.879L582.567 526.376Z"/>
	<path fill="#FEFEFE" d="M697.393 327.461C697.909 328.212 697.77 407.923 697.831 416.744L683.984 409.45L676.424 405.44C675.215 385.392 676.338 364.423 676.497 344.29C683.604 338.983 691.213 333.855 697.393 327.461Z"/>
	<path fill="#FEFEFE" d="M839.906 39.4449C843.939 44.0665 848.935 47.7899 853.89 51.3593C839.789 58.4842 825.138 64.5833 810.769 71.1398C798.231 76.8604 785.795 83.2444 772.855 88.002L768.873 86.2943C763.15 83.8485 757.462 81.395 751.572 79.3694C765.847 73.3201 779.861 66.5391 794.075 60.3259C809.36 53.6442 825.278 47.4597 839.906 39.4449Z"/>
	<path fill="#FEFEFE" d="M64.3882 856.4C68.8318 860.936 72.4559 867.708 76.243 872.908C85.7042 885.897 97.8586 898.484 110.844 907.902C96.7825 930.623 123.12 947.479 121.28 961.377C120.998 961.164 120.719 960.922 120.369 960.82C119.774 960.645 119.12 960.71 118.538 960.497C116.388 959.708 113.362 956.225 111.752 954.594C93.4882 936.086 88.4136 914.919 76.7344 892.944C71.149 882.435 64.0357 873.128 59.1487 862.169C60.8415 860.197 62.6211 858.305 64.3882 856.4Z"/>
	<path fill="#9F8BE8" d="M701.484 602.068C739.356 602.815 777.367 601.778 815.261 601.93L815.203 614.882C777.511 615.797 739.651 614.459 701.938 614.532C701.568 610.385 701.547 606.228 701.484 602.068Z"/>
	<path fill="#FEFEFE" d="M766.719 15.0402C772.241 17.9212 777.382 21.8639 782.885 24.9099C775.27 29.2261 766.741 32.624 758.794 36.3155L710.9 58.6673C708.317 59.8954 707.576 60.1327 704.879 59.1651C698.685 56.888 692.6 54.064 686.514 51.4973C693.716 47.4882 701.655 44.2422 709.166 40.8444C728.315 32.1827 747.823 24.2407 766.719 15.0402Z"/>
	<path fill="#6B5B98" d="M578.328 185.302Q590.495 191.276 602.523 197.525C603.653 208.491 603.047 219.982 603.072 231.011C599.796 233.883 596.295 236.373 592.752 238.895C587.982 242.229 583.015 245.339 578.167 248.563L578.328 185.302Z"/>
	<path fill="#6B5B98" d="M668.502 347.679L669.083 347.691C670.076 349.339 669.561 396.248 669.87 402.714C664.819 399.179 658.855 396.677 653.326 393.977C650.057 392.343 646.821 390.634 643.571 388.96C643.375 379.153 643.507 369.321 643.498 359.51C652.449 351.422 656.486 349.238 668.502 347.679Z"/>
	<path fill="#9F8BE8" d="M699.348 586.967Q757.313 587.454 815.278 586.962L815.231 595.438C813.363 596.643 711.41 596.009 699.868 596.016C699.49 593.025 699.47 589.977 699.348 586.967Z"/>
	<path fill="#9F8BE8" d="M710.734 296.455C711.326 296.303 710.972 296.319 711.778 296.66C711.704 297.139 711.703 297.314 711.47 297.808C710.26 300.375 707.911 302.894 706.158 305.136C699.043 314.236 685.605 329.226 674.265 332.538C666.979 334.666 659.076 335.186 651.607 336.461C647.072 337.235 642.673 338.639 638.282 339.985L637.47 339.661C637.524 337.484 637.539 335.591 637.023 333.455C636.984 333.294 636.941 333.135 636.9 332.976C637.076 332.608 637.128 332.149 637.427 331.872C638.935 330.475 673.677 315.161 678.871 312.674Q695.031 305.014 710.734 296.455Z"/>
	<path fill="#9F8BE8" d="M766.3 526.458C766.994 526.742 766.692 526.568 767.363 527.094C770.23 529.344 772.287 530.891 775.881 531.804C749.332 547.07 723.901 564.199 697.173 579.234C695.87 579.818 694.564 580.435 693.18 580.801C691.34 581.287 691.319 581.252 689.615 580.308C689.635 580.232 689.642 580.151 689.675 580.08C693.351 571.984 738.738 541.379 748.268 535.663C754.048 532.195 760.185 529.281 766.3 526.458Z"/>
	<path fill="#C9C0FB" d="M535.541 164.836C538.533 166.231 541.708 167.376 544.768 168.626L544.586 256.895C542.176 257.047 537.882 254.655 535.54 253.672L535.541 164.836Z"/>
	<path fill="#FEFEFE" d="M365.665 162.802C366.021 163.109 366.491 163.319 366.732 163.722C367.459 164.935 367.253 169.018 367.405 170.52C367.88 175.201 368.765 179.943 370.413 184.363C372.314 189.461 375.104 193.545 378.671 197.61C373.949 203.237 370.449 208.74 367.04 215.217Q361.244 211.857 355.488 208.427Q345.587 202.311 336.178 195.462C341.851 195.646 347.411 195.749 352.54 192.901C363.027 187.079 362.27 173.503 365.396 163.625L365.665 162.802Z"/>
	<path fill="#FEFEFE" d="M628.472 335.459L629.607 336.761C629.297 340.834 621.33 342.633 619.704 346.753C620.047 347.982 620.184 347.985 621.221 348.761C630.041 350.608 646.312 343.082 656.014 341.744L656.751 341.646C650.152 347.816 641.57 352.035 633.737 356.386C625.189 361.699 616.206 365.439 606.8 368.89C605.511 362.84 603.545 358.068 600.078 352.936C608.904 346.279 618.187 339.64 628.472 335.459Z"/>
	<path fill="#6B5B98" d="M678.87 237.471C679.681 242.217 679.107 247.844 679.111 252.692C673.994 254.763 671.034 255.883 668.094 260.833C667.902 266.668 668.157 272.587 668.226 278.428C663.158 275.305 658.444 272.249 654.089 268.166C649.994 263.639 646.326 258.821 642.623 253.976C654.219 247.613 666.988 243.316 678.87 237.471Z"/>
	<path fill="#FEFEFE" d="M703.54 246.783C709.855 248.795 719.844 254.412 725.947 257.635C718.719 260.856 711.516 264.174 704.138 267.038C701.66 267.93 699.1 268.673 696.592 269.481C693.827 267.692 690.922 265.954 688.351 263.893C686.372 262.306 683.91 260.384 683.617 257.694C685.648 253.546 698.934 251.962 702.972 247.462C703.169 247.242 703.351 247.01 703.54 246.783Z"/>
	<path fill="#FEFEFE" d="M659.649 225.641Q667.809 229.565 676.011 233.4C666.163 236.434 655.053 242.183 645.373 246.247L638.872 249.3L629.928 237.801C634.677 235.92 639.255 233.613 643.98 231.668C649.154 229.538 654.471 227.785 659.649 225.641Z"/>
	<path fill="#FEFEFE" d="M303.807 185.283C310.422 187.28 314.861 191.442 322.179 192.211C336.478 203.84 351.373 213.485 367.149 222.89C367.711 224.662 368.031 226.534 368.42 228.351C362.995 226.012 357.74 223.096 352.496 220.376C334.177 210.872 317.944 200.557 303.807 185.283Z"/>
	<path fill="#FEFEFE" d="M632.45 211.964C635.797 212.069 648.72 219.59 652.567 221.519C645.609 224.886 637.827 227.346 630.624 230.217L624.364 232.577C620.6 228.503 616.875 224.423 613.296 220.184Q622.898 216.132 632.45 211.964Z"/>
	<path fill="#9F8BE8" d="M495.382 317.83C499.01 319.472 503.503 326.066 506.713 328.981C509.505 331.517 512.643 333.828 515.685 336.066Q524.307 342.388 533.673 347.544C538.44 350.122 554.287 356.462 557.035 359.371L556.143 360.016L548.559 362.491Q539.318 357.177 530.132 351.768C517.945 344.464 499.051 332.486 495.382 317.83Z"/>
	<path fill="#FEFEFE" d="M636.866 362.569C637.964 367.969 637.086 379.757 637.177 385.899Q629.749 381.721 622.179 377.806L613.542 373.519Q625.385 368.43 636.866 362.569Z"/>
	<path fill="#FEFEFE" d="M675.507 263.104C681.778 266.098 687.456 271.368 692.858 275.697L692.769 284.481C687.1 284.176 681.009 282.329 675.461 281.092L675.507 263.104Z"/>
	<path fill="#FEFEFE" d="M53.8526 868.731C56.5956 870.695 59.0831 876.118 60.9916 879.139C65.6409 886.498 70.3656 893.788 74.2332 901.603C84.492 922.331 89.5304 940.693 106.149 958.302C109.337 961.68 113.005 965.56 117.295 967.513C118.188 967.919 118.322 967.869 118.933 968.682L117.861 970.544C114.154 969.217 109.933 964.874 107.219 962.02C87.613 941.403 80.4667 917.123 67.2865 892.962C63.3478 885.742 56.5132 879.321 53.4505 871.767C52.8743 870.346 53.25 870.105 53.8526 868.731Z"/>
	<path fill="#6B5B98" d="M609.491 200.51Q617.829 204.15 625.973 208.204L621.377 209.792C617.388 211.483 613.457 213.351 609.508 215.135C609.439 210.264 609.495 205.382 609.491 200.51Z"/>
	<path fill="#FEFEFE" d="M237.633 967.052C243.773 967.511 284.768 973.06 288.332 975.148L246.312 970.7C244.405 970.497 241.37 970.545 239.707 969.698C238.32 968.992 238.23 968.415 237.633 967.052Z"/>
	<path fill="#9F8BE8" d="M684.967 238.486C688.682 239.966 693.04 241.2 696.338 243.45L696.295 244.139L694.359 244.916L684.928 248.965L684.967 238.486Z"/>
	<path fill="#C9C0FB" d="M535.57 261.169C538.025 262.343 540.905 263.471 543.09 265.078C544.073 265.801 544.527 266.177 544.7 267.426L543.215 268.399L535.557 271.625L535.57 261.169Z"/>
	<path fill="#9F8BE8" d="M693.228 589.895C694.422 591.94 695.781 613.568 696.677 618.012C695.749 617.602 694.887 617.136 693.992 616.656C692.226 614.166 693.251 593.757 693.228 589.895Z"/>
</svg>
