<?xml version="1.0" encoding="utf-8" ?>
<svg xmlns="http://www.w3.org/2000/svg" xmlns:xlink="http://www.w3.org/1999/xlink" width="1024" height="1024">
	<path fill="#191035" d="M0 0L535.068 0L542.363 0L858.864 0L870.314 0L1024 0L1024 583.215L1024 594.143L1024 658.714L1024 675.68L1024 765.056L1024 775.195L1024 1024L195.117 1024L0 1024L0 0Z"/>
	<path fill="#D0CCF1" d="M0 0L535.068 0C540.159 8.59257 546.72 17.0534 551.178 25.9106C550.965 26.1623 550.745 26.4088 550.538 26.6657C549.258 28.2513 549.341 29.9656 549.645 31.8803C550.842 39.4108 554.672 47.419 557.599 54.4332C569.772 83.5991 585.116 114.234 607.858 136.721C617.331 146.087 629.879 152.411 638.426 162.625C642.687 167.719 645.551 173.203 647.202 179.64C650.31 191.754 647.183 217.155 657.825 224.236C664.004 228.348 672.848 227.339 679.731 225.742C681.779 225.267 683.793 224.643 685.801 224.024C697.377 232.44 709.039 239.95 722.111 245.87C717.45 249.438 698.803 261.285 698.378 266.202C698.269 267.471 698.785 268.242 699.762 268.984C700.715 269.707 702.636 270.12 703.766 269.885C707.12 269.189 707.428 267.966 710.827 269.706Q711.686 270.15 712.535 270.613C677.984 290.951 645.748 315.835 613.801 339.955C594.167 354.778 574.639 369.813 553.591 382.62Q524.471 400.086 494.807 416.611L451.194 439.887C442.826 444.396 432.436 448.34 425.624 455.049C409.342 471.083 393.966 516.156 386.636 538.137C373.191 530.129 359.081 526.862 343.677 525.082C338.929 524.534 333.55 524.79 329.034 523.158C323.785 521.262 313.767 510.921 307.389 507.014C279.416 489.878 242.063 490.995 211.212 498.796C157.251 512.442 113.543 552.686 85.5128 599.734C71.9663 622.472 60.2348 648.292 57.3248 674.852C56.3849 683.431 57.0165 691.889 56.4133 700.412C54.935 706.987 56.9979 717.738 59.3893 723.987C59.8271 725.131 60.1528 726.043 60.3209 727.255C54.621 729.102 47.4791 726.234 41.7677 727.147C39.3807 727.528 38.6972 730.613 36.2412 731.159C35.6191 725.819 49.9184 706.774 50.8745 700.976C50.9085 700.77 50.9004 700.558 50.9133 700.349C46.1343 706.549 42.3482 714.425 39.0362 721.52C23.9332 753.874 20.2129 787.497 24.7934 822.685C25.2824 826.442 25.7362 830.246 26.5095 833.956C27.1257 836.913 28.2594 840.056 28.445 843.045C28.5333 844.466 28.4452 846.324 27.6331 847.549C26.7527 848.877 24.968 849.485 23.5169 849.908C24.8301 856.063 27.7354 861.976 30.1821 867.751C52.7472 921.007 106.079 969.812 154.028 1000.82Q166.037 1008.6 178.634 1015.38C183.929 1018.18 190.237 1020.67 195.117 1024L0 1024L0 0Z"/>
	<path fill="#191035" d="M23.5169 849.908C22.6877 849.209 22.0209 848.631 21.4367 847.699C19.0499 843.892 18.3218 837.225 17.4102 832.826Q16.824 830.058 16.324 827.273Q15.8241 824.488 15.411 821.688Q14.9978 818.889 14.6718 816.078Q14.3458 813.267 14.1073 810.448Q13.8688 807.628 13.7181 804.803Q13.5673 801.977 13.5044 799.148Q13.4415 796.319 13.4665 793.49Q13.4915 790.66 13.6044 787.833Q13.7173 785.006 13.918 782.183Q14.1187 779.361 14.407 776.546Q14.6953 773.731 15.0709 770.926Q15.4466 768.122 15.9091 765.33Q16.3717 762.539 16.9208 759.763Q17.4699 756.987 18.105 754.23Q18.74 751.472 19.4605 748.736Q20.1809 746 20.986 743.287C23.7521 734.19 36.5841 700.044 44.6258 696.618C45.809 696.114 46.855 696.135 48.0248 696.708C49.6466 697.502 50.2082 698.783 50.9133 700.349C46.1343 706.549 42.3482 714.425 39.0362 721.52C23.9332 753.874 20.2129 787.497 24.7934 822.685C25.2824 826.442 25.7362 830.246 26.5095 833.956C27.1257 836.913 28.2594 840.056 28.445 843.045C28.5333 844.466 28.4452 846.324 27.6331 847.549C26.7527 848.877 24.968 849.485 23.5169 849.908Z"/>
	<path fill="#9F8BE8" d="M534.622 566.076C535.808 564.6 536.368 563.708 538.411 563.553C546.873 562.91 569.435 566.545 578.699 567.993Q585.784 569.073 592.842 570.314Q599.9 571.555 606.928 572.957Q613.956 574.36 620.95 575.922Q627.944 577.484 634.9 579.206Q641.857 580.928 648.772 582.808Q655.687 584.689 662.558 586.727Q669.428 588.764 676.251 590.958Q683.073 593.153 689.843 595.502Q696.613 597.852 703.328 600.355Q710.043 602.859 716.699 605.515Q723.355 608.172 729.948 610.98Q736.542 613.787 743.07 616.745Q749.597 619.703 756.055 622.809Q762.514 625.915 768.9 629.167Q775.285 632.42 781.595 635.818Q787.905 639.216 794.135 642.757C810.449 652.191 826.866 662.646 842.115 673.704C853.355 681.855 864.216 690.917 875.783 698.55C895.781 687.156 915.29 674.618 934.469 661.902C953.113 649.542 971.582 637.081 988.753 622.694C986.986 620.624 983.51 617.252 984.174 614.229C984.505 612.721 986.46 611.221 987.575 610.294C992.297 606.367 997.788 603.126 1002.73 599.447C1009.84 594.156 1016.73 588.25 1024 583.215L1024 594.143L1024 658.714L1024 675.68L1024 765.056L1024 775.195L1024 1024L195.117 1024C190.237 1020.67 183.929 1018.18 178.634 1015.38Q166.037 1008.6 154.028 1000.82C106.079 969.812 52.7472 921.007 30.1821 867.751C27.7354 861.976 24.8301 856.063 23.5169 849.908C24.968 849.485 26.7527 848.877 27.6331 847.549C28.4452 846.324 28.5333 844.466 28.445 843.045C28.2594 840.056 27.1257 836.913 26.5095 833.956C25.7362 830.246 25.2824 826.442 24.7934 822.685C20.2129 787.497 23.9332 753.874 39.0362 721.52C42.3482 714.425 46.1343 706.549 50.9133 700.349C50.9004 700.558 50.9085 700.77 50.8745 700.976C49.9184 706.774 35.6191 725.819 36.2412 731.159C38.6972 730.613 39.3807 727.528 41.7677 727.147C47.4791 726.234 54.621 729.102 60.3209 727.255C60.1528 726.043 59.8271 725.131 59.3893 723.987C56.9979 717.738 54.935 706.987 56.4133 700.412C59.5697 734.438 74.2028 764.235 100.7 786.362C117.071 800.033 136.303 807.907 156.593 813.649C160.256 814.685 164.849 816.556 168.671 816.33C169.985 816.252 170.702 815.878 171.747 815.054C172.356 813.989 172.831 813.072 172.574 811.799C172.205 809.973 170.419 808.764 168.853 808.022C164.613 806.01 159.164 805.15 154.588 804.01C179.426 794.417 213.431 776.628 228.242 754.08C239.996 756.588 251.805 756.408 263.163 752.2Q273.549 757.506 283.394 763.76C264.412 784.043 236.705 797.339 211.138 807.203Q203.807 809.959 196.344 812.331C194.167 813.025 191.648 813.423 189.622 814.472C188.053 815.285 187.519 816.182 187.112 817.859C187.472 819.158 187.666 819.818 188.871 820.549C196.979 825.467 261.677 809.458 274.423 806.569C282.69 804.696 292.195 801.509 300.67 801.489C301.641 801.053 302.91 800.62 303.763 799.998C304.432 799.51 304.76 799.041 304.9 798.242C305.233 796.34 304.767 794.726 303.773 793.123C298.893 790.06 246.816 803.535 237.77 805.506C259.106 792.817 271 787.711 289.913 769.882C293.305 773.337 296.443 777.248 299.33 781.13C301.025 783.409 307.429 795.022 309.383 795.492C311.442 795.987 313.317 794.536 314.993 793.54L316.135 794.09C315.307 795.76 314.498 797.444 313.643 799.101C307.355 812.299 299.952 825.032 292.863 837.813C286.278 849.686 279.919 861.819 272.9 873.439C264.701 887.014 255.674 900.457 246.567 913.44Q235.101 929.49 222.871 944.966C219.588 949.119 215.614 952.976 212.626 957.312C211.753 958.579 210.725 960.21 210.556 961.782C210.418 963.071 210.559 964.228 211.476 965.217C212.324 966.131 213.483 966.746 214.754 966.58C218.716 966.063 227.804 953.905 230.561 950.347Q240.836 937.286 250.509 923.774Q260.183 910.262 269.235 896.326Q278.287 882.39 286.7 868.058Q295.112 853.727 302.868 839.03C322.082 803.379 338.996 766.254 361.968 732.762C373.676 715.693 386.416 699.132 400.705 684.131C424.439 659.213 450.985 636.967 473.592 610.986C466.107 657.379 446.918 701.601 428.683 744.605C414.73 777.507 400.699 810.535 389.668 844.557Q377.929 880.546 368.281 917.151C366.478 923.87 364.811 930.53 363.119 937.28C362.413 940.094 361.357 942.85 360.949 945.728C360.717 947.368 360.601 949.193 361.459 950.68C361.976 951.576 362.783 952.193 363.823 952.393C365.107 952.639 366.806 952.49 367.77 951.507C369.988 949.243 381.001 903.889 382.928 896.952C387.398 880.86 392.674 864.898 397.872 849.025C407.19 820.57 418.331 792.542 429.791 764.885C440.345 739.417 451.686 714.388 461.31 688.52C465.126 678.265 468.295 667.74 471.619 657.314C476.531 641.904 482.432 623.188 482.644 607.035C481.265 605.78 479.726 604.77 478.192 603.716C479.928 600.977 481.863 597.921 482.707 594.762C483.163 593.057 483.304 591.041 482.201 589.538C481.285 588.289 479.898 587.994 478.491 587.637C478.673 587.632 478.859 587.663 479.035 587.621C480.651 587.237 483.596 581.818 484.608 580.243C485.904 586.735 487.687 593.377 490.758 599.276C493.688 604.906 497.961 609.906 504.279 611.698C507.915 612.729 511.781 612.523 515.04 610.49C526.768 603.175 527.854 577.741 531.116 565.066C532.282 565.433 533.438 565.773 534.622 566.076Z"/>
	<path fill="#FEFEFE" d="M534.622 566.076C535.808 564.6 536.368 563.708 538.411 563.553C546.873 562.91 569.435 566.545 578.699 567.993Q585.784 569.073 592.842 570.314Q599.9 571.555 606.928 572.957Q613.956 574.36 620.95 575.922Q627.944 577.484 634.9 579.206Q641.857 580.928 648.772 582.808Q655.687 584.689 662.558 586.727Q669.428 588.764 676.251 590.958Q683.073 593.153 689.843 595.502Q696.613 597.852 703.328 600.355Q710.043 602.859 716.699 605.515Q723.355 608.172 729.948 610.98Q736.542 613.787 743.07 616.745Q749.597 619.703 756.055 622.809Q762.514 625.915 768.9 629.167Q775.285 632.42 781.595 635.818Q787.905 639.216 794.135 642.757C810.449 652.191 826.866 662.646 842.115 673.704C853.355 681.855 864.216 690.917 875.783 698.55C895.781 687.156 915.29 674.618 934.469 661.902C953.113 649.542 971.582 637.081 988.753 622.694C986.986 620.624 983.51 617.252 984.174 614.229C984.505 612.721 986.46 611.221 987.575 610.294C992.297 606.367 997.788 603.126 1002.73 599.447C1009.84 594.156 1016.73 588.25 1024 583.215L1024 594.143L1024 658.714L1024 675.68L1024 765.056L1024 775.195C1009.04 783.97 993.043 791.366 977.33 798.697Q933.416 819.178 888.692 837.824C879.103 841.903 869.268 845.446 859.759 849.699C849.173 854.434 839.072 860.293 828.845 865.747C813.747 873.797 798.11 881.542 782.01 887.392C764.214 893.86 745.565 899.281 727.244 904.008C716.363 906.815 704.938 908.545 694.405 912.491C685.221 915.932 676.636 920.994 667.864 925.346C648.31 935.045 613.106 951.838 591.671 950.553C587.651 950.312 582.473 949.563 579.739 946.308C578.029 944.273 577.783 941.543 578.173 939.001C578.95 933.925 582.515 931.078 586.402 928.238C573.072 933.633 556.704 940.969 542.199 941.8C538.021 942.04 533.463 941.43 530.319 938.404C528.461 936.616 527.177 934.064 527.245 931.449C527.361 927.048 530.988 923.609 533.86 920.685C524.718 924.468 514.931 929.883 504.789 929.655C500.876 929.567 497.022 928.469 494.327 925.485C492.299 923.239 491.468 920.459 491.796 917.459C492.339 912.485 495.586 907.941 498.795 904.26C508.162 893.514 520.51 884.592 531.95 876.155C547.426 864.742 563.123 853.64 578.335 841.89C580.742 840.031 583.398 838.622 585.781 836.707C578.011 837.966 535.059 868.273 524.826 875.08C516.814 880.409 504.998 889.068 494.844 886.693C492.027 886.034 488.815 884.371 487.323 881.787C485.751 879.064 486.096 875.778 486.854 872.856C488.167 867.797 491.051 863.137 494.262 859.07C502.445 848.702 512.986 839.999 522.943 831.392C536.675 819.521 550.481 807.914 565.379 797.509C576.239 789.924 587.585 783.158 598.951 776.374C587.985 773.003 573.93 769.722 567.116 759.659C565.044 756.598 563.608 752.487 564.491 748.774C565.385 745.017 568.569 742.934 572.085 741.894C577.998 740.144 584.909 740.179 591.033 739.581C599.572 738.748 607.986 737.638 616.424 736.098Q632.656 733.113 648.784 729.607C660.222 727.103 672.225 723.272 683.994 723.707C694.084 724.08 704.104 726.592 714.003 728.446C741.052 733.513 769.781 739.537 797.35 735.568Q802.061 734.903 806.683 733.77Q811.304 732.637 815.788 731.046C830.401 725.79 853.687 712.825 867.387 704.434C854.151 691.754 838.176 681.405 822.94 671.332Q816.762 667.2 810.483 663.224Q804.204 659.248 797.828 655.429Q791.452 651.61 784.983 647.952Q778.514 644.293 771.956 640.797Q765.398 637.301 758.754 633.969Q752.111 630.637 745.386 627.472Q738.662 624.307 731.861 621.31Q725.06 618.313 718.186 615.487Q711.313 612.661 704.371 610.007Q697.429 607.352 690.423 604.872Q683.417 602.392 676.351 600.087Q669.286 597.782 662.165 595.653Q655.044 593.525 647.872 591.575Q640.701 589.625 633.483 587.854Q626.265 586.083 619.005 584.493Q611.745 582.902 604.448 581.493C587.314 578.06 569.907 576.018 552.565 573.965C549.391 573.589 538.366 573.408 536.332 571.972C534.865 570.937 534.794 567.661 534.622 566.076Z"/>
	<path fill="#191035" d="M534.622 566.076C535.808 564.6 536.368 563.708 538.411 563.553C546.873 562.91 569.435 566.545 578.699 567.993Q585.784 569.073 592.842 570.314Q599.9 571.555 606.928 572.957Q613.956 574.36 620.95 575.922Q627.944 577.484 634.9 579.206Q641.857 580.928 648.772 582.808Q655.687 584.689 662.558 586.727Q669.428 588.764 676.251 590.958Q683.073 593.153 689.843 595.502Q696.613 597.852 703.328 600.355Q710.043 602.859 716.699 605.515Q723.355 608.172 729.948 610.98Q736.542 613.787 743.07 616.745Q749.597 619.703 756.055 622.809Q762.514 625.915 768.9 629.167Q775.285 632.42 781.595 635.818Q787.905 639.216 794.135 642.757C810.449 652.191 826.866 662.646 842.115 673.704C853.355 681.855 864.216 690.917 875.783 698.55C895.781 687.156 915.29 674.618 934.469 661.902C953.113 649.542 971.582 637.081 988.753 622.694C986.986 620.624 983.51 617.252 984.174 614.229C984.505 612.721 986.46 611.221 987.575 610.294C992.297 606.367 997.788 603.126 1002.73 599.447C1009.84 594.156 1016.73 588.25 1024 583.215L1024 594.143L1024 658.714L1024 675.68C1014.2 660.468 1004.05 645.743 993.733 630.888C982.772 638.757 972.224 647.152 961.162 654.894Q917.249 685.578 870.865 712.381C850.686 724.176 827.314 738.417 804.436 743.596C784.22 748.173 761.38 745.944 741.083 742.628Q724.541 739.888 708.07 736.744C699.875 735.17 691.305 732.911 682.944 732.774C672.492 732.601 662.073 736.145 651.942 738.338Q633.342 742.242 614.665 745.762C609.075 746.784 574.898 750.167 574.09 750.654C573.289 751.967 573.178 752.179 573.172 753.706C575.344 758.447 583.544 761.617 588.201 763.337C595.68 766.099 603.922 768.064 611.78 769.425C622.448 763.916 676.346 738.08 685.868 742.344C686.923 742.816 687.585 743.562 687.801 744.708C688.041 745.98 687.726 747.413 686.921 748.425C686.18 749.357 685.225 749.84 684.131 750.233C678.253 752.343 672.144 753.89 666.23 755.944C654.353 760.07 642.869 764.832 631.394 769.955C613.616 777.892 596.927 787.598 580.63 798.23Q570.195 804.989 560.263 812.467C550.409 819.946 495.386 863.198 495.587 874.926C495.611 876.343 495.752 876.591 496.67 877.548C500.587 878.715 506.114 875.527 509.527 873.678C523.125 866.308 535.144 856.834 547.994 848.326C567.376 835.494 587.195 824.753 608.667 815.888C611.981 814.52 619.524 810.486 623.032 811.728C623.686 811.96 624.232 812.633 624.521 813.242C625.163 814.594 625.081 816.829 624.261 818.104C621.565 822.291 611.932 827.903 607.684 831.13C600.485 836.6 593.518 842.368 586.208 847.694Q566.286 862.053 546.651 876.802C538.407 882.955 499.807 909.465 500.848 918.142C500.938 918.887 501.322 919.402 501.961 919.814C506.133 922.503 517.099 917.872 521.286 916.262C537.975 909.84 553.382 899.335 568.61 890.102Q594.512 874.373 621.071 859.78C627.579 856.286 634.311 851.496 641.23 848.973C643.217 848.249 644.733 848.079 646.748 848.705C647.656 849.583 648.244 850.021 648.329 851.391C648.533 854.688 644.557 857.962 642.299 859.872C624.798 874.671 605.576 888.7 585.617 899.981C572.601 907.338 558.533 913.374 546.054 921.625C542.968 923.665 538.081 927.592 536.964 931.203C537.166 931.953 537.049 932.332 537.803 932.726C542.795 935.328 567.735 925.861 573.78 923.455C597.95 913.839 622.632 903.481 645.399 890.833C651.541 887.42 665.627 873.103 670.944 872.704C671.75 872.643 672.704 872.731 673.44 873.08C674.559 873.611 674.729 874.177 675.123 875.236C674.735 879.874 669.405 883.932 666.075 886.76C652.449 898.331 637.857 909.299 622.406 918.331C613.159 923.737 595.628 931.143 588.376 937.669C587.608 938.36 587.202 938.964 587 939.974C587.628 941.118 588.006 941.434 589.307 941.749C604.978 945.539 650.422 924.004 665.004 916.839C673.775 912.53 682.281 907.321 691.406 903.808C700.421 900.338 710.33 898.624 719.7 896.294C737.069 891.975 754.951 887.379 771.767 881.242Q785.241 876.438 798.336 870.681Q811.432 864.924 824.08 858.242C833.848 853.009 843.143 846.456 853.272 841.964C864.25 837.096 875.702 833.075 886.812 828.48Q932.795 809.954 977.532 788.593C993.096 781.217 1009.13 773.744 1024 765.056L1024 775.195C1009.04 783.97 993.043 791.366 977.33 798.697Q933.416 819.178 888.692 837.824C879.103 841.903 869.268 845.446 859.759 849.699C849.173 854.434 839.072 860.293 828.845 865.747C813.747 873.797 798.11 881.542 782.01 887.392C764.214 893.86 745.565 899.281 727.244 904.008C716.363 906.815 704.938 908.545 694.405 912.491C685.221 915.932 676.636 920.994 667.864 925.346C648.31 935.045 613.106 951.838 591.671 950.553C587.651 950.312 582.473 949.563 579.739 946.308C578.029 944.273 577.783 941.543 578.173 939.001C578.95 933.925 582.515 931.078 586.402 928.238C573.072 933.633 556.704 940.969 542.199 941.8C538.021 942.04 533.463 941.43 530.319 938.404C528.461 936.616 527.177 934.064 527.245 931.449C527.361 927.048 530.988 923.609 533.86 920.685C524.718 924.468 514.931 929.883 504.789 929.655C500.876 929.567 497.022 928.469 494.327 925.485C492.299 923.239 491.468 920.459 491.796 917.459C492.339 912.485 495.586 907.941 498.795 904.26C508.162 893.514 520.51 884.592 531.95 876.155C547.426 864.742 563.123 853.64 578.335 841.89C580.742 840.031 583.398 838.622 585.781 836.707C578.011 837.966 535.059 868.273 524.826 875.08C516.814 880.409 504.998 889.068 494.844 886.693C492.027 886.034 488.815 884.371 487.323 881.787C485.751 879.064 486.096 875.778 486.854 872.856C488.167 867.797 491.051 863.137 494.262 859.07C502.445 848.702 512.986 839.999 522.943 831.392C536.675 819.521 550.481 807.914 565.379 797.509C576.239 789.924 587.585 783.158 598.951 776.374C587.985 773.003 573.93 769.722 567.116 759.659C565.044 756.598 563.608 752.487 564.491 748.774C565.385 745.017 568.569 742.934 572.085 741.894C577.998 740.144 584.909 740.179 591.033 739.581C599.572 738.748 607.986 737.638 616.424 736.098Q632.656 733.113 648.784 729.607C660.222 727.103 672.225 723.272 683.994 723.707C694.084 724.08 704.104 726.592 714.003 728.446C741.052 733.513 769.781 739.537 797.35 735.568Q802.061 734.903 806.683 733.77Q811.304 732.637 815.788 731.046C830.401 725.79 853.687 712.825 867.387 704.434C854.151 691.754 838.176 681.405 822.94 671.332Q816.762 667.2 810.483 663.224Q804.204 659.248 797.828 655.429Q791.452 651.61 784.983 647.952Q778.514 644.293 771.956 640.797Q765.398 637.301 758.754 633.969Q752.111 630.637 745.386 627.472Q738.662 624.307 731.861 621.31Q725.06 618.313 718.186 615.487Q711.313 612.661 704.371 610.007Q697.429 607.352 690.423 604.872Q683.417 602.392 676.351 600.087Q669.286 597.782 662.165 595.653Q655.044 593.525 647.872 591.575Q640.701 589.625 633.483 587.854Q626.265 586.083 619.005 584.493Q611.745 582.902 604.448 581.493C587.314 578.06 569.907 576.018 552.565 573.965C549.391 573.589 538.366 573.408 536.332 571.972C534.865 570.937 534.794 567.661 534.622 566.076Z"/>
	<path fill="#D0CCF1" d="M994.601 616.394C1004.19 608.717 1014.45 601.889 1024 594.143L1024 658.714C1014.69 644.316 1004.42 630.459 994.601 616.394Z"/>
	<path fill="#191035" d="M526.465 597.453C527.077 597.433 527.892 597.347 528.511 597.445C529.76 597.641 530.522 597.934 531.184 599.083C533.031 602.29 531.34 611.945 531.032 615.739C530.04 627.921 528.838 640.021 526.447 652.019C519.917 684.785 507.195 715.712 496.928 747.368C488.143 774.454 480.049 801.854 474.965 829.903C466.596 876.078 465.955 934.976 482.33 979.525C483.648 983.111 486.956 989.699 485.757 993.353C484.655 994.817 483.261 995.278 481.614 995.986C480.545 995.536 479.63 995.127 478.837 994.241C475.704 990.737 473.959 983.031 472.502 978.529C460.97 942.905 457.939 906.159 460.584 868.936C463.674 825.432 475.307 782.836 489.245 741.679C496.821 719.307 505.344 697.09 511.924 674.403C515.986 660.398 519.342 645.927 520.846 631.402C521.78 622.38 521.958 609.309 523.804 600.904C524.211 599.051 525.094 598.644 526.465 597.453Z"/>
	<path fill="#191035" d="M573.406 589.852C574.09 589.845 574.328 589.823 574.965 589.875C580.052 590.292 585.615 592.818 590.362 594.597C616.845 604.521 643.657 620.886 662.639 642.151C670.177 650.597 688.707 677.365 687.644 688.895C687.46 690.895 686.538 691.767 685.085 692.946C683.567 692.756 681.562 692.605 680.556 691.29C678.127 688.115 676.732 681.99 675.102 678.19Q673.179 673.674 670.862 669.347Q668.545 665.02 665.852 660.916Q663.16 656.811 660.114 652.963Q657.067 649.114 653.691 645.551C637.985 629.072 616.3 614.717 595.239 606.233C589.081 603.752 578.317 601.643 573.42 598.225C572.116 597.316 570.858 596.164 570.791 594.454C570.713 592.482 572.141 591.141 573.406 589.852Z"/>
	<path fill="#191035" d="M538.582 580.339C543.827 580.44 547.917 583.001 551.842 586.259C578.125 608.078 592.626 642.736 595.541 676.285C596.041 682.045 598.063 694.715 594.251 699.254C593.011 699.509 591.516 699.757 590.269 699.4C588.655 698.937 587.805 697.658 587.511 696.067C586.662 691.477 587.354 686.225 587.14 681.523C586.695 671.729 584.617 661.478 581.891 652.107C575.642 630.63 565.188 611.283 548.785 595.814C545.599 592.809 539.632 590.568 537.463 586.844C536.466 585.133 537.973 582.037 538.582 580.339Z"/>
	<defs>
		<linearGradient id="gradient_0" gradientUnits="userSpaceOnUse" x1="1030.6832" y1="351.02478" x2="539.09888" y2="335.73669">
			<stop offset="0" stop-color="#A59BF8"/>
			<stop offset="1" stop-color="#E5E1F7"/>
		</linearGradient>
	</defs>
	<path fill="url(#gradient_0)" d="M870.314 0L1024 0L1024 583.215C1016.73 588.25 1009.84 594.156 1002.73 599.447C997.788 603.126 992.297 606.367 987.575 610.294C986.46 611.221 984.505 612.721 984.174 614.229C983.51 617.252 986.986 620.624 988.753 622.694C971.582 637.081 953.113 649.542 934.469 661.902C915.29 674.618 895.781 687.156 875.783 698.55C864.216 690.917 853.355 681.855 842.115 673.704C826.866 662.646 810.449 652.191 794.135 642.757Q787.905 639.216 781.595 635.818Q775.285 632.42 768.9 629.167Q762.514 625.915 756.056 622.809Q749.597 619.703 743.07 616.745Q736.542 613.787 729.949 610.98Q723.355 608.172 716.699 605.515Q710.043 602.859 703.328 600.355Q696.613 597.852 689.843 595.502Q683.073 593.153 676.251 590.958Q669.428 588.764 662.558 586.727Q655.687 584.689 648.772 582.808Q641.857 580.928 634.9 579.206Q627.944 577.484 620.95 575.922Q613.956 574.36 606.928 572.957Q599.9 571.555 592.842 570.314Q585.784 569.073 578.699 567.993C569.435 566.545 546.873 562.91 538.411 563.553C536.368 563.708 535.808 564.6 534.622 566.076C533.438 565.773 532.282 565.433 531.116 565.066C544.061 515.904 580.568 500.393 600.587 458.969C601.99 459.354 602.276 459.571 603.623 459.091C604.029 460.223 604.474 461.898 605.178 462.868C605.929 463.902 607.004 464.309 608.235 464.37C615.401 464.723 633.289 457.457 640.637 455.102C693.424 438.19 745.629 420.127 795.333 395.333C803.864 391.077 814.141 386.972 821.028 380.336C818.659 366.169 805.622 342.833 797.608 330.512C779.262 302.305 747.564 269.829 713.786 262.705C719.526 259.104 724.519 254.52 729.458 249.92C743.273 256.805 773.943 273.599 788.324 272.356C810.39 270.448 832.288 247.318 845.002 230.59C850.19 223.764 854.594 216.245 860.163 209.731C864.236 204.967 867.486 202.063 874.078 201.656C885.032 200.98 896.167 207.949 902.235 216.757C910.69 229.032 914.901 245.697 919.28 259.791C928.492 289.441 944.026 333.113 967.484 354.075Q961.468 400.257 950.694 445.566C945.734 436.554 940.987 427.613 937.075 418.09C918.533 372.953 914.32 322.798 908.694 274.726C907.425 263.882 903.433 229.926 899.41 220.665C899.018 219.761 898.342 218.961 897.385 218.668C896.095 218.272 894.769 218.442 893.594 219.103C892.421 219.763 891.755 220.69 891.479 221.998C890.813 225.151 896.505 254.894 897.208 260.338C904.082 313.571 907.76 372.792 928.837 422.479C933.917 434.455 940.415 445.711 946.982 456.915C942.832 481.251 935.161 505.015 927.985 528.603C917.307 563.699 906.187 598.395 892.919 632.613C889.256 642.061 885.752 651.592 881.806 660.927C878.553 668.62 874.461 676.408 871.969 684.355C871.559 685.66 871.096 687.058 871.624 688.401C872.102 689.615 873.017 690.467 874.273 690.853C875.404 691.199 876.737 691.155 877.739 690.486C881.832 687.755 893.462 657.167 895.549 651.798C933.034 555.354 963.564 454.666 977.259 351.897C980.732 325.837 983.301 300.134 982.409 273.792C979.833 197.741 951.284 122.388 911.394 58.2073Q892.268 28.1056 870.314 0Z"/>
	<path fill="#191035" d="M865.05 214.507C866.24 214.547 867.012 214.758 868.112 215.21C869.931 217.113 870.678 219.413 871.329 221.93C873.496 230.309 874.446 239.189 875.653 247.746Q878.34 265.94 880.424 284.214Q883.231 309.791 884.757 335.476Q886.282 361.161 886.523 386.89Q886.764 412.62 885.719 438.329Q884.674 464.038 882.346 489.663C878.406 536.101 871.839 582.205 860.044 627.363C857.634 636.59 853.467 659.327 849.067 666.347C847.961 668.11 846.955 669.062 844.905 669.58C843.644 669.373 842.814 669.152 842.004 668.081C840.744 666.417 841.211 664.065 841.526 662.174C843.243 651.854 846.948 641.293 849.423 631.092C853.369 614.826 856.541 598.486 860.154 582.165C874.257 511.309 878.444 437.505 876.528 365.361C863.269 374.892 822.999 401.317 808.053 404.329C806.875 404.566 805.61 404.635 804.605 403.875C803.17 402.788 802.667 401.51 802.503 399.749C802.579 399.493 802.638 399.232 802.73 398.981C803.689 396.34 808.695 394.939 811.194 393.841C832.761 384.37 857.772 368.898 876.084 353.973C875.874 322.166 871.821 290.356 867.503 258.894C866.387 250.768 860.749 222.417 861.262 217.368C862.14 215.892 863.594 215.302 865.05 214.507Z"/>
	<path fill="#FEFEFE" d="M394.121 542.885C397.076 535.281 399.467 527.414 402.245 519.738C407.289 505.803 412.994 492.147 419.967 479.063C423.21 472.977 426.755 466.489 431.496 461.43C436.889 455.677 457.253 447.099 465.27 442.71Q503.271 422.236 540.73 400.785C553.282 393.461 565.869 385.712 577.815 377.442C604.083 359.257 629.085 339.409 654.841 320.536C665.284 312.885 676.106 305.688 686.773 298.351C690.683 295.661 719.295 277.387 720.375 275.024C720.478 274.798 720.561 274.562 720.655 274.331C723.819 273.809 732.43 279.695 735.524 281.363C763.713 296.557 787.657 328.266 802.021 356.446C805.428 363.131 808.774 369.93 810.931 377.135C799.959 382.667 789.212 388.539 778.068 393.74C748.007 407.768 716.714 419.868 685.415 430.832Q660.439 439.414 635.325 447.581C625.993 450.562 616.406 453.193 607.196 456.503C605.525 457.103 604.584 457.58 603.623 459.091C602.276 459.571 601.99 459.354 600.587 458.969C580.568 500.393 544.061 515.904 531.116 565.066C527.854 577.741 526.768 603.175 515.04 610.49C511.781 612.523 507.915 612.729 504.279 611.698C497.961 609.906 493.688 604.906 490.758 599.276C487.687 593.377 485.904 586.735 484.608 580.243C483.596 581.818 480.651 587.237 479.035 587.621C478.859 587.663 478.673 587.632 478.491 587.637C475.622 589.214 468.164 603.408 464.969 607.251C452.921 621.743 438.196 633.68 425.598 647.621C425.876 638.823 425.838 629.881 425.243 621.095C424.025 603.119 420.105 582.217 424.439 564.667C426.793 555.133 431.301 547.171 436.917 539.212C440.825 533.674 444.943 528.124 449.566 523.162C453.494 518.948 458.136 515.233 461.545 510.577C461.673 510.402 461.795 510.223 461.92 510.046C460.907 508.383 460.066 506.753 458.107 506.136C455.996 506.24 454.605 506.826 452.86 508.026C449.026 510.664 445.714 514.539 442.516 517.916C428.072 533.165 418.71 549.493 414.618 570.109C408.882 559.547 402.508 551.418 394.121 542.885Z"/>
	<path fill="#191035" d="M484.608 580.243C480.631 559.594 487.687 539.796 486.914 519.254C486.72 514.108 482.555 496.894 483.983 493.441C484.378 492.487 485.635 491.784 486.605 491.604C487.652 491.409 489.1 491.583 489.938 492.306C492.084 494.159 492.765 498.793 493.347 501.482C494.906 508.694 496.093 516.114 495.978 523.511C495.74 538.939 491.745 553.762 492.447 569.316C492.917 579.724 495.354 593.515 503.584 600.758C505.085 602.079 507.163 603.56 509.289 603.219C515.425 602.236 517.53 587.677 518.497 582.793C524.976 550.072 531.137 531.773 553.859 505.881C562.183 496.395 571.087 487.282 578.718 477.216C582.733 471.92 586.569 466.396 589.569 460.454C591.583 456.466 593.108 451.673 595.691 448.059C596.956 447.451 598.047 447.025 599.479 447.446C600.663 447.794 601.458 448.606 601.926 449.729C603.037 452.396 601.435 456.368 600.587 458.969C580.568 500.393 544.061 515.904 531.116 565.066C527.854 577.741 526.768 603.175 515.04 610.49C511.781 612.523 507.915 612.729 504.279 611.698C497.961 609.906 493.688 604.906 490.758 599.276C487.687 593.377 485.904 586.735 484.608 580.243Z"/>
	<path fill="#191035" d="M456.089 535.974C457.781 535.866 459.157 535.757 460.697 536.601C461.392 537.612 461.812 538.014 461.697 539.318C461.419 542.476 455.764 551.196 454.176 554.71C452.155 559.181 450.22 563.949 448.746 568.632C445.52 578.878 444.91 591.929 445.773 602.539C446.268 608.629 447.416 615.258 446.843 621.349C446.641 623.502 445.609 624.275 444.047 625.554C442.993 625.198 442.11 624.891 441.278 624.125C436.659 619.872 436.306 600.215 436.291 594.258C436.246 576.051 442.977 549.209 456.089 535.974Z"/>
	<path fill="#191035" d="M474.541 541.292C476.471 541.435 477.244 541.612 478.68 542.863C481.195 547.531 475.377 554.851 473.544 559.278C472.534 561.716 471.982 564.682 471.47 567.27Q470.821 570.678 470.549 574.137Q470.277 577.596 470.385 581.064C470.504 584.523 472.541 592.47 471.655 595.33C471.139 596.997 469.17 597.557 467.728 598.126C466.799 597.581 466.044 596.929 465.364 596.096C461.067 590.833 460.696 581.008 461.228 574.503C462.066 564.245 466.46 548.099 474.541 541.292Z"/>
	<path fill="#191035" d="M455.41 490.022C458.056 490.513 459.457 491.648 461.323 493.52C465.838 498.052 477.65 512.133 477.014 518.809C476.866 520.373 475.518 521.188 474.372 522.052C472.704 521.686 471.547 521.156 470.413 519.869C467.327 516.367 454.167 499.307 452.744 496.108C452.286 495.08 452.316 494.038 452.374 492.942C453.091 491.32 453.95 490.867 455.41 490.022Z"/>
	<path fill="#FEFEFE" d="M261.571 502.891C272.74 503.471 283.081 505.056 293.242 509.958C291.717 510.876 290.411 511.541 289.46 513.084L289.353 514.306C290.699 515.559 292.116 515.75 293.962 515.7C296.191 515.639 298.265 514.517 300.22 513.541C309.736 518.282 318.001 529.177 325.759 532.277C333.365 535.316 343.471 534.55 351.621 535.637C379.137 539.304 401.523 555.264 410.638 582.134C416.677 599.938 416.912 636.166 416.657 655.12C410.369 662.148 403.294 668.54 396.654 675.241C389.265 682.698 382.247 690.729 375.681 698.916C362.667 715.143 350.396 732.499 340.071 750.57C331.984 764.723 324.479 780.312 316.135 794.09L314.993 793.54C316.045 790.506 314.738 787.58 313.401 784.81C305.432 768.292 288.467 755.306 272.644 746.962C277.138 741.762 282.092 735.803 281.831 728.469C281.786 727.219 281.568 726.217 280.716 725.264C279.197 724.768 277.905 724.813 276.459 725.623C273.736 727.149 272.668 732.354 271.044 734.952C269.969 736.673 267.911 738.332 266.304 739.584C257.097 746.756 245.094 747.656 233.926 745.712C224.638 744.095 214.657 740.282 209.054 732.273C205.701 727.48 204.198 721.4 205.241 715.615C206.243 710.049 209.473 705.795 214.122 702.698C216.253 701.278 218.877 699.699 221.373 699.084C225.275 698.121 234.532 700.314 235.573 695.223C235.813 694.046 235.543 692.919 234.742 692.017C232.718 689.738 228.84 690.435 226.226 689.414C223.999 688.543 221.73 686.852 219.853 685.368C195.693 666.274 177.259 634.191 175.979 603.241C175.144 583.063 181.015 562.602 194.947 547.655C205.176 536.681 217.492 529.458 230.116 521.696Q245.685 512.027 261.571 502.891Z"/>
	<path fill="#191035" d="M372.285 566.606C373.751 566.492 375.607 566.309 377.005 566.878C378.226 567.376 378.894 568.223 379.293 569.474C380.187 572.279 376.37 588.088 374.502 591.096C370.044 598.276 361.78 600.12 354.136 601.898C352.307 604.871 350.44 607.778 348.421 610.625C347.346 611.442 346.193 611.624 344.908 611.915C343.569 611.539 343.612 611.488 342.82 610.33C342.56 608.874 342.674 607.765 343.019 606.326C343.842 602.897 345.559 599.65 346.506 596.223C347.715 591.844 348.11 587.213 349.498 582.892Q349.957 581.429 350.629 580.051Q351.301 578.673 352.171 577.41C356.764 570.84 364.742 568.029 372.285 566.606Z"/>
	<path fill="#FEFEFE" d="M369.247 576.533L370.115 576.972C370.305 578.677 369.581 580.829 368.896 582.412C366.248 588.523 362.729 589.644 356.942 591.823L356.34 591.296C355.959 588.749 356.413 586.533 357.672 584.268C360.285 579.565 364.367 577.835 369.247 576.533Z"/>
	<path fill="#191035" d="M316.086 532.115C318.695 531.869 321.304 531.738 323.799 532.685C330.077 535.069 336.992 541.685 339.583 547.981C340.618 550.498 340.972 553.677 339.635 556.166C338.858 557.614 337.607 558.792 335.991 559.133C333.492 558.019 328.968 547.249 325.374 543.643L324.85 543.126C322.912 541.842 321.161 541.107 318.94 540.434C312.483 543.439 304.194 552.369 297.221 552.136C296.535 551.751 295.933 551.646 295.644 550.86C295.216 549.697 295.477 548.476 295.927 547.36C298.763 540.331 309.528 534.965 316.086 532.115Z"/>
	<path fill="#191035" d="M228.128 709.125C232.036 708.806 235.699 708.843 239.523 709.851C246.048 711.57 252.604 715.666 255.949 721.648C257.144 723.786 258.5 727.46 257.405 729.887C256.856 731.102 256.304 731.221 255.156 731.591C250.805 730.958 248.435 725.349 245.012 722.7C244.871 722.591 244.725 722.487 244.582 722.381C241.352 720.301 237.535 718.535 233.711 717.93C224.269 716.438 227.943 725.307 222.746 728.05C221.434 728.742 220.866 728.57 219.484 728.329C218.381 727.529 217.754 726.875 217.207 725.604C216.145 723.139 216.125 720.065 217.187 717.6C219.152 713.039 223.714 710.719 228.128 709.125Z"/>
	<path fill="#191035" d="M269.752 580.573C271.651 580.397 273.052 580.384 274.864 581.031C275.532 582.213 275.294 582.689 275.191 583.987C275.931 584.573 275.598 584.395 276.448 584.741C278.375 585.526 279.918 586.01 281.127 587.823C282.286 589.56 282.34 591.58 281.879 593.568C281.225 596.391 279.445 599.229 276.865 600.655C275.223 601.563 273.434 601.75 271.653 601.153C268.149 599.977 266.897 596.742 265.392 593.69L264.55 601.807C265.084 604.581 266.486 609.051 264.696 611.592C263.896 612.727 263.624 612.681 262.34 612.824C260.227 611.906 258.983 610.5 258.002 608.415C255.773 603.674 256.48 597.389 258.219 592.59C260.336 586.746 264.216 583.078 269.752 580.573Z"/>
	<path fill="#191035" d="M241.437 561.862C242.505 562.203 243.065 562.635 243.9 563.374C244.653 566.687 240.045 571.335 238.284 574.165C234.179 580.765 232.563 588.241 231.84 595.921C231.584 598.635 231.563 601.578 230.938 604.229C230.409 606.477 229.397 607.662 227.411 608.78C227.17 608.457 226.924 608.136 226.709 607.795C222.441 601.049 223.067 591.385 224.95 583.963C227.455 574.086 232.69 567.066 241.437 561.862Z"/>
	<path fill="#191035" d="M316.694 559.388C318.264 559.51 319.583 559.592 320.793 560.757C322.818 562.707 323.814 565.565 323.853 568.326C323.894 571.245 323.466 572.488 321.418 574.581C320.008 574.55 318.875 574.454 317.818 573.408C315.628 571.239 314.754 567.835 314.697 564.847C314.649 562.386 314.957 561.137 316.694 559.388Z"/>
	<path fill="#FEFEFE" d="M561.552 39.1211C581.923 62.2112 596.93 73.0407 623.626 87.6903C619.535 90.123 615.44 92.4157 611.771 95.4835C607.899 98.7209 602.61 104.124 602.412 109.42C602.353 111.004 602.886 111.763 603.96 112.846C605.828 113.271 606.994 112.872 608.492 111.775C610.931 109.99 612.822 107.046 614.919 104.832C620.149 99.3096 626.968 95.2278 633.772 91.968C638.599 93.3569 643.243 95.6196 648.001 97.2755C659.102 101.139 673.505 104.051 685.277 103.229C688.006 103.039 690.433 102.85 692.297 100.685L695.102 98.3929C693.641 89.0838 688.687 70.5855 694.796 62.3627C697.659 58.5077 702.374 56.6165 707.014 56.047C723.368 54.0397 738.615 61.1405 751.069 71.2057C769.124 85.7967 780.776 105.14 783.19 128.408C783.734 133.659 783.769 138.938 784.058 144.206C785.308 143.803 786.112 143.196 787.338 143.779L787.656 145.075C787.965 145.992 788.29 146.935 788.802 147.762C791.268 151.747 797.069 154.152 801.185 156.141C836.63 173.268 874.747 164.398 912.303 166.907C927.117 167.896 941.374 171.545 955.675 175.32C974.39 236.799 975.637 279.07 969.322 342.671C956.346 328.918 942.626 299.877 936.147 281.855C927.65 258.217 919.684 215.482 899.619 200.624C891.197 194.387 880.698 190.931 870.217 192.599C855.017 195.017 847.854 210.74 839.604 222.004C828.691 236.904 808.682 260.554 789.097 263.08C785.186 263.585 781.01 262.745 777.268 261.593C766.504 258.277 755.991 252.681 745.881 247.717C731.944 240.876 717.728 233.938 704.452 225.9C699.063 222.637 694.102 218.937 689.117 215.103C680.327 217.971 671.617 219.482 662.626 216.698C655.102 201.612 661.777 182.376 649.935 163.162C641.919 150.156 628.422 143.092 617.358 133.176C607.336 124.193 597.087 110.738 589.994 99.2622C585.666 92.2604 582.159 84.7357 578.511 77.365C572.288 64.7928 566.228 52.3737 561.552 39.1211Z"/>
	<path fill="#191035" d="M695.102 98.3929C693.641 89.0838 688.687 70.5855 694.796 62.3627C697.659 58.5077 702.374 56.6165 707.014 56.047C723.368 54.0397 738.615 61.1405 751.069 71.2057C769.124 85.7967 780.776 105.14 783.19 128.408C783.734 133.659 783.769 138.938 784.058 144.206C783.425 149.435 781.343 169.789 777.436 172.487C776.44 173.175 775.635 173.462 774.427 173.17C770.947 172.329 771.2 168.089 771.377 165.294C771.735 159.611 773.145 153.858 773.8 148.183C775.866 130.303 773.085 113.731 763.188 98.5195C753.576 83.747 738.262 69.5799 720.546 65.978C715.258 64.903 708.056 63.7911 703.377 67.148C701.928 68.1879 701.276 69.5092 701.075 71.269C700.661 74.8882 701.523 78.6553 702.084 82.2249C703.497 91.2033 706.828 105.94 704.897 114.413C704.462 116.322 703.683 117.527 701.985 118.529C700.796 118.65 699.852 118.672 698.826 117.92C694.955 115.081 695.991 109.188 695.873 105.072C695.809 102.852 695.41 100.591 695.102 98.3929Z"/>
	<path fill="#191035" d="M719.279 90.8691C719.784 90.8746 720.29 90.8699 720.795 90.896C727.911 91.264 736.426 100.466 740.842 105.465C747.365 112.846 758.176 128.303 757.202 138.619C757.007 140.689 756.082 141.441 754.557 142.632C753.554 142.78 752.39 143.029 751.421 142.626C747.819 141.125 746.24 130.379 744.644 126.697C743.264 123.512 741.003 120.398 738.916 117.636C731.776 108.186 726.322 105.429 718.333 97.9251C717.727 97.3558 717.215 96.6115 717.108 95.7638C716.867 93.8395 718.112 92.2256 719.279 90.8691Z"/>
	<path fill="#191035" d="M725.494 75.3628C733.814 77.4186 742.398 86.1959 747.674 92.6737C750.172 95.7418 756.426 103.01 755.352 107.255C754.978 108.73 753.732 109.227 752.572 109.995C752.106 109.959 751.638 109.933 751.176 109.86C747.703 109.311 745.823 105.806 743.901 103.167C740.842 98.9673 737.671 94.7291 733.793 91.2317C730.646 88.3937 725.517 86.2823 723.201 82.7022C722.426 81.5046 722.07 79.8189 722.485 78.4414C722.97 76.8325 724.155 76.162 725.494 75.3628Z"/>
	<path fill="#6357AA" d="M542.363 0L858.864 0C863.76 7.05436 869.474 13.4789 874.57 20.3815C883.543 32.5367 891.992 45.4634 900.149 58.1869Q909.72 73.0762 918.213 88.6051Q926.707 104.134 934.081 120.225C940.667 134.93 946.162 150.008 952.239 164.915C938.041 160.814 923.087 158.095 908.309 157.503C870.364 155.983 832.972 163.802 797.978 143.91C795.718 142.626 792.869 140.202 790.168 141.408C788.967 141.945 788.079 143.002 787.804 144.278C787.747 144.542 787.706 144.809 787.656 145.075L787.338 143.779C786.112 143.196 785.308 143.803 784.058 144.206C783.769 138.938 783.734 133.659 783.19 128.408C780.776 105.14 769.124 85.7967 751.069 71.2057C738.615 61.1405 723.368 54.0397 707.014 56.047C702.374 56.6165 697.659 58.5077 694.796 62.3627C688.687 70.5855 693.641 89.0838 695.102 98.3929L692.297 100.685L692.127 94.5499C682.748 94.5503 673.634 94.0511 664.401 92.2207C651.901 89.7429 639.725 84.9253 628.346 79.2304C592.015 61.0482 564.804 33.5573 542.363 0Z"/>
	<path fill="#9F8BE8" d="M191.973 669.61C194.907 671.528 201.883 681.191 204.594 684.469C175.828 701.04 141.218 714.065 108.475 719.824C97.9424 721.677 87.2743 722.568 76.6203 723.392L70.309 724.053C65.9146 710.265 65.0512 695.23 65.9524 680.874C107.975 688.296 151.265 680.214 191.973 669.61Z"/>
	<path fill="#9F8BE8" d="M209.457 691.39C209.901 691.386 209.685 691.369 210.229 691.474C211.32 691.686 211.569 691.475 212.227 692.454C210.51 695.025 206.492 696.521 204.19 698.855C196.682 706.466 195.078 713.856 195.07 724.351C165.394 745.757 131.139 759.698 96.3509 770.265Q91.5705 764.732 87.1601 758.9Q84.9192 755.807 82.8942 752.569Q80.8692 749.331 79.0696 745.962Q77.27 742.593 75.7041 739.11Q74.1381 735.626 72.8132 732.044C114.067 729.8 148.932 720.992 186.359 703.239C194.106 699.564 202.208 695.981 209.457 691.39Z"/>
	<path fill="#9F8BE8" d="M77.8491 634.122C83.1925 635.851 88.9818 636.803 94.4872 637.901C121.739 643.335 148.327 644.099 176.001 642.553C179.154 649.116 182.093 656.027 186.373 661.942C180.571 663.694 174.768 665.216 168.867 666.596C137.586 673.997 98.7411 678.044 66.8532 672.792C67.8644 659.491 72.6013 646.28 77.8491 634.122Z"/>
	<path fill="#9F8BE8" d="M197.95 733.2C199.586 734.561 200.817 737.439 202.229 739.164C206.917 744.896 213.217 748.131 219.686 751.411C206.82 771.428 164.766 791.638 142.886 800.116C138.596 798.488 134.408 796.632 130.206 794.791C120.334 789.978 111.173 783.387 102.605 776.554C135.911 769.095 169.188 751.112 197.95 733.2Z"/>
	<path fill="#9F8BE8" d="M100.399 593.851C116.35 603.424 148.938 609.637 167.723 612.696C168.857 620.16 170.721 627.256 172.916 634.458Q163.784 635.02 154.634 635.018C129.303 634.938 105.809 631.951 81.041 627.169C85.7578 615.413 92.9448 604.062 100.399 593.851Z"/>
	<path fill="#9F8BE8" d="M124.337 563.309C138.235 569.965 154.74 573.027 170.009 574.83C167.992 584.613 167.096 594.1 167.047 604.072L153.751 601.765C136.97 597.911 120.85 592.88 104.557 587.372C109.884 578.793 117.632 570.869 124.337 563.309Z"/>
	<path fill="#9F8BE8" d="M154.782 535.383C162.913 541.901 177.339 542.223 187.412 542.988Q185.116 545.625 183.04 548.437Q180.963 551.25 179.118 554.22Q177.273 557.19 175.673 560.298Q174.072 563.406 172.726 566.633L163.619 565.198C153.122 563.292 139.481 561.735 130.142 556.481Q141.797 545.155 154.782 535.383Z"/>
	<path fill="#9F8BE8" d="M188.646 515.491C196.504 515.569 208.055 518.272 215.734 520.27C208.259 524.348 201.772 530.236 194.674 534.936C192.645 534.906 190.61 534.716 188.585 534.581C179.182 533.979 169.889 532.315 160.479 531.792C169.097 525.297 179.072 520.376 188.646 515.491Z"/>
	<path fill="#9F8BE8" d="M240.23 502.698C242.311 502.368 244.607 502.492 246.721 502.433C239.778 505.722 233.076 509.616 226.405 513.416C223.127 512.792 219.884 511.997 216.635 511.239C213.699 510.682 210.897 509.959 208.039 509.091C218.679 506.247 229.257 503.874 240.23 502.698Z"/>
</svg>
