<?xml version="1.0" encoding="utf-8" ?>
<svg xmlns="http://www.w3.org/2000/svg" xmlns:xlink="http://www.w3.org/1999/xlink" width="1024" height="1024">
	<path fill="#9F8BE8" d="M0 0L1024 0L1024 1024L722.862 1024L538.456 1024L442.582 1024L0 1024L0 933.813L0 0Z"/>
	<defs>
		<linearGradient id="gradient_0" gradientUnits="userSpaceOnUse" x1="150.49652" y1="886.48053" x2="821.07196" y2="295.29813">
			<stop offset="0" stop-color="black"/>
			<stop offset="1" stop-color="#110A18"/>
		</linearGradient>
	</defs>
	<path fill="url(#gradient_0)" d="M442.882 87.16C444.114 74.4512 451.68 64.7447 461.235 56.8028C464.622 53.987 470.715 50.9911 473.287 47.6569L473.031 47.1541C472.747 47.1207 472.462 47.0947 472.178 47.054C469.351 46.6474 465.786 44.4107 464.07 42.1306C463.549 41.437 463.369 40.7618 463.16 39.934C463.418 38.6945 463.438 38.5362 464.322 37.6454C467.462 36.528 470.41 37.0447 473.636 36.706C476.513 36.4039 479.627 35.0276 482.28 33.9129C490.56 30.4336 497.947 25.4501 505.96 21.4809C525.52 11.7931 547.358 7.67085 567.712 17.3624C586.507 26.3118 602.955 42.0897 609.87 61.9824C612.801 70.4123 612.699 79.1735 615.35 87.5405C619.979 102.156 635.57 116.897 627.937 133.218C623.383 142.958 611.144 149.691 601.39 153.054C592.409 156.152 584.616 154.882 575.502 153.312C573.782 153.016 571.205 152.315 569.52 152.74C568.111 153.096 566.944 155.208 566.335 156.403C563.317 162.316 560.905 175.783 554.159 178.256C549.248 180.056 541.269 178.199 536.332 176.996C530.257 183.036 516.016 192.296 507.142 192.329C503.344 192.342 500.78 190.778 498.24 188.051C494.341 183.865 492.23 178.383 489.355 173.525C486.453 176.234 483.675 179.104 480.696 181.724C477.57 184.475 472.748 187.515 470.409 190.932C469.79 191.838 469.715 192.65 469.699 193.72C469.565 203.04 478.285 232.655 480.869 243.428C486.036 264.972 487.888 287.719 495.022 308.696C503.949 334.941 522.1 357.402 536.908 380.501C549.224 399.714 560.609 420.01 575.097 437.684C575.998 438.783 576.796 439.276 578.024 439.978C581.85 442.164 597.273 460.144 598.352 464.114C599.009 466.532 598.534 469.751 598.389 472.255C609.73 476.377 621.039 480.723 632.477 484.56C640.76 487.338 649.479 489.271 657.426 492.969C658.068 493.267 658.47 493.331 659.172 493.287C661.625 488.796 658.76 468.352 657.129 462.788C653.237 449.515 637.595 445.367 636.428 431.174C639.134 425.113 642.267 419.707 645.896 414.169C647.968 411.006 653.524 404.259 654.587 401.107C655.7 397.811 653.273 394.337 657.875 392.507C662.338 390.732 668.781 391.802 673.486 392.092C680.549 385.157 687.319 377.912 694.333 370.92C692.334 368.085 690.91 365.328 691.598 361.768C692.353 357.87 695.438 355.06 698.628 352.995C706.24 348.066 718.824 345.515 727.648 347.391C731.458 348.201 735.006 350.206 738.897 350.662C746.379 351.539 753.59 349.412 760.942 352.235C766.387 354.326 770.861 358.288 775.979 361.012C779.363 366.71 784.625 379.157 788.001 383.216C791.339 387.23 796.68 388.339 800.589 391.604C813.306 402.226 811.023 425.488 807.357 439.655C806.033 444.774 803.288 449.734 806.266 454.707C808.48 458.405 815.449 464.173 814.853 468.66C814.563 470.847 811.774 472.269 810.094 473.349C805.949 473.701 801.981 473.671 797.83 473.53L797.287 473.992C794.195 476.646 782.828 490.902 779.517 490.674C777.984 490.568 776.544 489.956 775.116 489.43L774.667 490.044C770.998 495.12 766.03 508.294 761.793 511.176C756.151 511.968 739.29 503.883 734.407 500.391C730.966 504.148 725.98 508.072 723.203 512.178C723.371 512.964 723.265 513.356 723.957 513.872C725.479 515.006 727.801 514.882 729.588 514.546C730.106 514.448 730.614 514.302 731.127 514.177C740.757 511.831 758.942 519.798 767.064 524.866C796.168 543.027 807.398 601.096 814.441 632.365C817.689 646.787 823.969 676.014 821.537 690.217C820.963 693.571 819.573 696.733 817.743 699.586C808.483 714.024 787.677 719.656 771.86 722.963C756.247 726.227 740.053 725.778 724.209 724.879C726.631 737.836 728.404 750.565 729.512 763.708C730.792 778.892 731.354 794.187 733.52 809.283C736.001 826.577 742.095 843.326 743.804 860.641C744.328 865.942 745.928 879.404 742.913 883.819C741.379 886.064 738.521 886.583 736.071 887.28C737.068 893.797 737.84 900.457 739.172 906.908C740.369 914.804 740.344 922.847 741.638 930.695C743.95 944.713 751.277 958.106 747.818 973.01C747.494 974.405 747.024 976.514 746.064 977.602C743.212 980.835 737.621 981.286 733.683 982.444C713.498 988.379 695.724 991.054 674.686 991.042C659.491 991.033 642.876 989.06 631.542 977.734C629.324 975.517 627.359 972.707 627.359 969.449C627.359 965.939 629.639 962.905 632.103 960.626C637.831 955.327 646.42 953.085 653.662 950.546C644.804 944.311 644.808 944.704 641.801 934.375C634.921 935.679 627.905 939.838 621.687 943.008C599.728 954.207 559.894 976.951 546.461 996.75C540.606 1005.38 538.441 1013.59 538.456 1024L442.582 1024L0 1024L0 933.813C17.7327 925.742 35.7344 918.252 53.3878 910.006C73.0617 900.817 92.4495 890.693 111.742 880.718C117.615 877.681 129.222 873.318 133.211 868.526C131.199 865.915 129.065 863.509 129.511 859.969C130.471 852.342 150.901 821.431 157.464 816.424C159.752 814.679 162.472 814.102 165.22 813.475C168.932 806.81 173.978 800.739 178.077 794.283C175.169 791.865 172.031 789.558 169.847 786.429Q183.162 759.885 198.038 734.183Q212.914 708.482 229.298 683.714C235.541 674.252 241.492 664.042 248.666 655.273C242.822 640.29 237.935 624.858 232.784 609.625C227.145 592.948 221.254 576.314 215.917 559.539C212.467 548.694 209.465 537.713 205.775 526.943Q198.393 505.785 190.585 484.781C183.578 466.208 176.086 447.241 172.228 427.697C168.736 410.008 168.726 393.063 171.035 375.224C168.583 372.092 166.47 369.264 164.985 365.533C166.481 360.741 168.895 356.162 170.799 351.51C175.109 340.976 179.276 330.504 183.883 320.085C207.284 267.15 234.958 216.184 276.765 175.359C289.432 162.99 303.146 151.594 318.357 142.463C315.837 141.619 313.244 140.852 312.076 138.205C311.183 136.185 311.669 134.039 312.615 132.144C316.882 123.589 328.721 116.433 336.862 112.01C341.841 109.305 348.082 106.713 351.771 102.307C358.98 93.6982 356.614 84.0758 370.076 79.9744C374.82 78.5291 379.847 77.9612 384.677 76.8312C392.153 75.0819 400.516 71.291 408.199 71.4413C411.477 71.5054 414.704 72.7376 417.554 74.287C426.855 79.3423 434.622 88.2954 440.484 96.9451C442.303 94.7497 444.375 92.9125 444.27 89.8641L442.882 87.16Z"/>
	<path fill="#9F8BE8" d="M343.068 477.132C345.657 480.08 348.726 483.67 352.345 485.346C353.817 486.028 354.685 485.936 356.176 485.403C358.597 482.539 357.19 480.848 357.474 477.578C358.029 471.175 357.875 464.822 358.71 458.409C360.177 447.15 363.967 436.016 367.249 425.172C371.279 411.859 375.055 398.315 381.08 385.722C386.302 374.808 393.252 364.199 399.298 353.693C401.026 350.691 405.567 340.738 407.788 339.027C410.931 343.318 413.441 355.618 415.523 361.268Q417.829 367.345 420.921 373.062Q424.013 378.779 427.837 384.035C454.017 419.906 500.909 460.883 538.092 485.194C541.059 487.134 544.407 487.691 547.327 489.517C554.19 493.808 565.036 503.485 572.877 504.413C575.24 504.693 576.478 503.454 578.163 502.03C588.123 511.211 596.945 522.675 608.345 530.093C612.667 532.906 617.245 535.192 621.912 537.368C624.032 538.356 627.417 539.383 629.232 540.741C629.82 541.181 627.587 555.945 627.317 557.963C626.695 562.606 626.255 567.334 625.364 571.93C623.743 580.287 621.467 588.464 620.116 596.886C616.594 618.837 614.375 641.002 611.393 663.035C610.342 670.801 609.52 678.645 608.292 686.38C607.616 690.64 606.274 694.953 605.842 699.223C605.669 700.93 605.898 703.031 606.858 704.495C608.225 706.58 611.041 706.647 613.279 707.035C614.429 718.006 616.994 729.147 618.819 740.058C623.089 765.584 627.73 791.395 634.417 816.41C639.858 836.762 646.993 857.296 654.841 876.862C656.475 880.935 657.692 888.004 660.724 891.002C664.413 894.649 682.428 893.149 688.075 893.018C689.097 897.843 690.46 902.528 691.83 907.261C682.733 909.605 673.964 913.698 665.207 917.087C659.4 919.334 652.818 921.276 647.367 924.251C643.527 926.347 642.87 930.486 641.801 934.375C634.921 935.679 627.905 939.838 621.687 943.008C599.728 954.207 559.894 976.951 546.461 996.75C540.606 1005.38 538.441 1013.59 538.456 1024L442.582 1024C441.464 1023.44 440.327 1023.04 439.157 1022.62C434.756 1023.66 418.691 1016.56 413.83 1014.28C412.277 1013.56 411.382 1013.13 410.78 1011.49L411.301 1010.69L414.084 1010.28C418.287 1010.59 422.455 1010.27 426.641 1010.49C431.619 1010.73 436.977 1009.8 441.904 1009.03C449.678 1007.82 468.103 1002.89 472.634 996.222C474.635 993.277 472.14 985.87 471.508 982.489C471.17 980.681 470.773 977.543 469.498 976.164C467.188 973.665 452.693 968.655 448.574 966.797C416.591 952.37 390.108 928.747 361.355 909.086C358.559 901.994 357.058 896.666 356.906 888.993C359.819 887.544 365.667 885.044 367.252 882.147C370.035 877.06 361.462 719.037 360.18 700.444C359.266 687.194 356.272 673.78 356.271 660.501C356.27 654.801 359.78 649.511 361.292 644.11Q362.156 641.097 362.88 638.047Q363.604 634.998 364.186 631.918Q364.768 628.838 365.207 625.734Q365.646 622.63 365.94 619.51Q366.235 616.389 366.385 613.258Q366.535 610.127 366.539 606.993Q366.544 603.858 366.404 600.727Q366.263 597.595 365.978 594.474C363.489 564.505 355.91 534.105 349.29 504.799C347.209 495.588 344.679 486.438 343.068 477.132Z"/>
	<path fill="#6850BA" d="M133.211 868.526C142.458 877.426 154.054 882.206 164.605 889.202C171.438 893.732 177.448 899.311 184.148 903.998C209.593 921.798 233.937 928.991 265.051 929.032C264.887 929.152 264.724 929.274 264.559 929.393C260.133 932.567 255.062 935.11 250.129 937.394C242.991 940.699 219.081 949.047 216.668 956.791C216.874 957.859 216.869 958.135 217.798 958.821C225.043 964.178 254.437 960.641 263.987 958.803C275.14 956.657 286.024 953.27 296.83 949.833L296.582 950.764C295.045 956.36 289.331 965.04 292.687 970.712C294.476 973.734 299.033 976.141 302.208 977.558C311.657 981.775 322.451 984.391 332.282 987.77C352.148 994.597 372.26 1002.93 392.868 1007.17C399.814 1008.6 407.016 1009.7 414.084 1010.28L411.301 1010.69L410.78 1011.49C411.382 1013.13 412.277 1013.56 413.83 1014.28C418.691 1016.56 434.756 1023.66 439.157 1022.62C440.327 1023.04 441.464 1023.44 442.582 1024L0 1024L0 933.813C17.7327 925.742 35.7344 918.252 53.3878 910.006C73.0617 900.817 92.4495 890.693 111.742 880.718C117.615 877.681 129.222 873.318 133.211 868.526Z"/>
	<path fill="#9F8BE8" d="M226.367 846.758C226.489 844.621 226.596 831.634 228.189 830.703C228.454 830.548 228.773 830.51 229.063 830.407C240.174 826.482 265.378 786.842 274.234 775.699C277.201 788.171 278.73 801.143 280.28 813.859Q282.896 835.027 285.077 856.244C286.254 867.541 286.484 879.503 289.511 890.465C295.459 892.251 301.706 893.417 307.527 895.545C308.043 902.358 311.061 914.267 309.121 920.476C308.925 920.574 308.728 920.669 308.534 920.77C306.615 921.766 305.847 922.3 304.899 924.202C302.041 929.936 299.54 935.762 298.162 942.046C297.598 944.617 297.538 947.323 296.83 949.833C286.024 953.27 275.14 956.657 263.987 958.803C254.437 960.641 225.043 964.178 217.798 958.821C216.869 958.135 216.874 957.859 216.668 956.791C219.081 949.047 242.991 940.699 250.129 937.394C255.062 935.11 260.133 932.567 264.559 929.393C264.724 929.274 264.887 929.152 265.051 929.032C265.259 928.944 265.466 928.851 265.676 928.766C273.327 925.684 284.236 924.019 288.079 915.748C288.734 914.338 289.255 912.844 289.786 911.385C285.335 892.087 261.796 878.228 246.996 866.76Q240.993 862.014 235.469 856.718C232.185 853.63 228.799 850.587 226.367 846.758Z"/>
	<path fill="#9F8BE8" d="M349.314 136.713C349.477 136.688 349.639 136.653 349.803 136.638C360.484 135.661 371.898 136.697 382.508 137.869C425.936 142.669 437.347 165.766 443.945 205.625C446.395 220.426 448.477 235.257 450.794 250.073C455.666 281.222 463.518 313.545 477.244 342.065C490.228 369.042 529.97 408.058 552.397 428.928C558.53 434.635 564.563 440.723 571.157 445.884C567.333 450.894 564.219 456.61 560.79 461.905C556.048 469.227 550.66 475.816 544.576 482.047C541.402 479.439 537.669 477.251 534.292 474.892Q525.85 468.963 517.706 462.631C489.444 440.703 461.288 415.453 438.997 387.423C434.374 381.61 429.66 375.775 426.271 369.128C422.836 362.392 420.633 355.095 418.112 347.986C414.224 337.023 410.303 325.95 405.963 315.16C399.223 298.399 390.572 282.39 384.293 265.458C381.006 256.726 377.464 248.071 374.387 239.262C373.1 235.577 370.725 225.558 369.186 223.059C368.253 221.544 367.055 220.63 365.317 220.257C364.643 220.533 364.138 220.545 363.782 221.235C361.086 226.466 377.375 266.064 380.252 273.39C374.681 301.57 372.918 330.706 365.743 358.558C359.834 381.495 347.424 402.508 336.17 423.195C332.7 429.573 329.651 436.245 325.949 442.478C325.686 442.461 325.419 442.477 325.161 442.427C323.16 442.042 305.979 433.167 303.139 431.633C257.928 407.21 216.435 375.078 184.891 334.273C187.471 326.055 191.868 317.869 195.397 309.995C214.156 268.14 237.325 228.15 267.983 193.844Q274.315 186.778 281.134 180.18Q287.952 173.582 295.222 167.484Q302.492 161.387 310.177 155.822Q317.862 150.257 325.923 145.252C330.045 142.679 334.345 139.548 338.933 137.903C342.093 136.77 345.974 136.899 349.314 136.713Z"/>
	<path d="M347.783 335.374C348.856 335.66 349.962 336.127 350.733 336.967C351.617 337.929 351.401 338.482 351.184 339.618C346.248 345.65 299.708 375.429 290.023 380.904C284.922 383.788 279.82 386.326 274.284 388.266C273.734 388.173 272.83 388.086 272.305 387.826C271.129 387.245 270.748 386.526 270.325 385.347C270.954 382.805 273.175 382.317 275.344 381.255C300.972 368.702 323.825 350.713 347.783 335.374Z"/>
	<path d="M397.043 147.968C398.521 148.076 399.454 148.461 400.542 149.464C400.616 150.59 400.743 150.951 399.972 151.879C397.288 155.111 390.305 158.171 386.654 160.745C383.602 162.897 380.695 165.584 378.077 168.242C370.551 175.883 363.479 185.506 358.384 194.992C355.502 200.358 353.185 206.885 349.325 211.608C347.64 211.522 346.984 211.457 345.81 210.274C344.877 207.316 346.314 204.232 347.591 201.57C357.852 180.177 373.679 156.207 397.043 147.968Z"/>
	<path fill="#9F8BE8" d="M177.372 381.689C180.262 383.928 182.709 387.52 185.263 390.22C191.315 396.619 197.516 403.128 203.912 409.169C227.341 431.298 280.005 470.719 310.966 479.988C311.42 494.178 316.974 517.432 320.23 531.848C328.579 568.818 338.928 605.474 346.203 642.679C351.336 668.925 352.666 695.23 354.404 721.827Q357.594 764.749 358.991 807.767C359.126 811.494 361.127 846.851 360.789 847.49C359.493 849.934 355.135 851.06 352.685 852.016C338.364 858.473 319.468 861.654 303.92 858.784C299.644 857.995 295.435 856.403 291.315 855.026C289.729 834.727 287.644 813.939 284.234 793.867C280.746 773.335 275.926 753.082 271.923 732.657C267.892 712.088 264.948 691.119 259.445 670.878C253.594 649.355 246.27 627.943 238.92 606.877C236.699 600.511 234.09 594.28 231.966 587.882C224.774 566.222 218.954 543.972 211.242 522.523L195.95 480.403C188.88 461.426 181.837 442.938 177.905 422.951C175.201 409.206 175.218 395.483 177.372 381.689Z"/>
	<path fill="#9F8BE8" d="M620.028 707.782C628.781 709.733 637.767 710.268 646.686 710.974C645.542 725.908 634.88 766.508 638.506 777.404C640.608 783.72 645.026 788.764 650.909 791.796C655.462 794.143 661.468 795.828 666.464 794.014C668.371 793.321 670.736 791.629 671.401 789.609C672.932 784.96 669.415 776.33 668.746 771.326C668.273 767.787 668.14 763.983 668.518 760.429C669.563 750.622 676.462 740.649 680.68 731.89Q685.645 721.357 690.363 710.711C698.326 710.589 705.803 710.092 713.484 707.876C715.436 719.586 719.131 730.989 720.916 742.797C723.745 761.521 724.084 780.737 725.561 799.618C726.857 808.928 728.269 818.145 730.235 827.342C732.276 836.891 734.888 846.427 736.321 856.085C737.498 864.023 737.937 871.989 738.108 880.004C722.134 886.534 682.497 888.163 664.995 886.455C663.042 876.956 658.187 867.119 654.883 857.978Q647.167 836.186 640.758 813.975C630.778 779.285 626.216 743.268 620.028 707.782Z"/>
	<path fill="#9F8BE8" d="M731.643 545.686C737.455 548.415 744.094 548.854 750.261 550.458C758.931 552.714 763.819 557.793 768.21 565.296C772.329 572.332 775.093 580.086 777.189 587.939C782.153 606.533 791.24 667.198 786.622 684.315C784.365 692.682 773.211 698.99 769.757 712.503L769.619 713.066C769.402 714.217 769.136 715.361 768.891 716.506C763.385 720.854 731.681 719.202 723.852 718.362C721.616 713.077 719.696 708.009 718.995 702.279C717.753 692.131 718.992 680.991 719.442 670.786C720.215 653.29 722.048 636.092 723.793 618.691C724.934 607.3 725.653 595.912 726.961 584.522C728.443 571.616 730.763 558.631 731.643 545.686Z"/>
	<path fill="#FDFDFE" d="M692.933 526.559L693.841 526.556C700.8 530.69 704.179 540.735 706.181 548.172C714.301 578.346 707.356 639.168 699.197 669.439C696.155 680.724 691.661 691.888 687.121 702.644C683.727 710.683 680.2 718.879 676.3 726.685C671.721 735.849 665.878 745.124 663.105 755.01C661.983 759.011 661.558 763.796 661.86 767.938C662.165 772.128 665.86 784.647 664.117 787.717C662.771 788.526 662.465 788.528 660.879 788.551C658.266 788.049 655.733 787.373 653.35 786.159C648.525 783.7 645.897 779.888 644.218 774.861L643.921 773.957C641.385 766.364 649.189 738.885 650.604 729.561Q653.555 710.167 655.527 690.649C656.064 685.181 656.839 679.582 656.824 674.088C656.56 673.611 656.364 673.02 656.156 672.513L655.756 673.411C656.122 671.584 657.199 670.048 657.429 668.125C658.137 662.195 658.038 655.97 658.408 649.995Q659.985 626.475 660.379 602.905C660.474 591.096 659.788 579.053 661.361 567.312C662.286 560.411 664.07 553.172 667.371 547.002C673.342 535.841 680.881 530.142 692.933 526.559Z"/>
	<path fill="#FDFDFE" d="M504.403 83.9781C515.882 89.8498 502.315 114.729 506.167 122.56C506.703 123.65 507.287 124.312 508.537 124.519C509.015 124.599 509.562 124.541 510.041 124.456C518.935 122.876 533.031 113.267 543.141 109.983C548.272 108.316 553.718 106.775 559.055 105.994C566.658 104.88 574.326 104.71 581.617 102.036C587.225 99.9791 591.516 96.7306 596.138 93.0111C594.582 111.87 593.589 129.875 575.868 140.682C571.406 143.403 565.671 146.183 562.424 150.358C558.616 155.254 558.035 162.145 555.163 167.569C548.328 180.482 537.034 166.416 530.756 168.246L530.418 169.145C530.993 171.175 531.431 172.832 531.334 174.951C530.703 176.426 529.51 176.988 528.211 177.799C519.325 172.113 523.421 165.152 519.408 160.784C518.84 160.166 518.443 160.368 517.673 160.353C516.622 161.06 516.155 161.302 515.873 162.648C514.634 168.558 519.818 176.434 523.158 180.807C519.637 183.091 514.196 185.866 510.006 186.267C494.852 187.718 488.197 142.004 482.477 138.524C481.825 138.126 481.079 137.956 480.343 138.141C479.264 138.412 477.936 139.317 477.377 140.316C476.454 141.963 476.488 149.1 475.948 151.648C474.863 156.764 472.994 161.186 470.477 165.752C467.594 151.646 463.071 138.296 457.968 124.863C465.148 125.441 484.593 126.13 490.242 121.708C491.293 118.548 488.856 114.279 487.716 111.256C486.743 108.674 485.414 104.624 486.908 102.02C487.795 100.473 489.558 100.036 491.146 99.5405L492.075 99.2571C492.273 96.5915 492.795 94.284 494.139 91.9348C496.299 88.1588 500.206 85.0481 504.403 83.9781Z"/>
	<path d="M556.423 130.907C557.66 131.093 558.729 131.546 559.735 132.285C561.746 133.764 562.837 135.943 563.099 138.411C563.316 140.451 562.75 143.048 561.17 144.489C559.761 145.776 558.667 145.449 556.885 145.46C554.558 144.153 551.629 142.498 550.092 140.27C549.262 139.066 548.773 137.623 549.253 136.174C550.288 133.053 553.697 132.074 556.423 130.907Z"/>
	<path d="M559.19 119.034C561.811 119.411 564.322 119.9 566.682 121.161C570.851 123.39 575.272 127.094 576.506 131.828C577.147 134.289 576.851 135.742 575.544 137.836C575.151 137.878 573.922 138.112 573.478 138.001C573.158 137.921 572.803 137.857 572.56 137.634C572.295 137.393 569.707 131.184 567.857 129.22C565.495 126.711 559.168 124.012 557.992 121.742C558.107 120.392 558.379 120.148 559.19 119.034Z"/>
	<path fill="#9F8BE8" d="M250.681 664.849C253.077 669.445 254.073 676.349 255.265 681.42C260.34 703.007 263.38 725.085 268.073 746.774C269.502 753.379 270.646 760.32 272.719 766.748C264.401 776.952 254.13 795.261 244.408 803.053C236.911 800.747 229.943 795.983 223.441 791.68C217.414 787.371 211.172 783.173 205.662 778.208C200.247 773.33 195.481 767.787 190.077 762.892C193.972 757.484 196.903 751.212 200.027 745.338Q204.592 736.788 209.541 728.455Q228.721 695.753 250.681 664.849Z"/>
	<path fill="#9F8BE8" d="M408.655 77.2068C415.673 78.4388 425.074 87.9398 429.338 93.2291C432.87 97.6095 435.948 102.488 439.1 107.152C452.727 127.321 457.734 138.892 464.201 162.468C465.79 168.263 468.103 174.585 467.33 180.649C466.772 185.031 462.12 195.567 458.676 198.226C458.236 194.668 459.277 191.005 459.359 187.425C459.496 181.361 457.187 169.909 455.261 164.043C445.584 134.58 423.346 110.253 395.647 96.4408C391.295 94.2706 374.851 86.2859 370.446 88.5615C369.066 89.274 368.978 89.779 368.428 91.1432C370.012 93.6899 383.194 97.3727 386.731 99.1076C399.547 105.395 410.381 112.737 421.106 122.111C427.638 127.829 432.999 135.1 437.74 142.339C450.811 162.294 456.212 184.61 451.249 208.098C448.631 196.36 447.418 185.16 443.133 173.715C437.06 157.492 426.778 145.646 410.953 138.562C390.431 129.376 339.204 127.371 317.929 135.483C326.675 119.775 347.6 118.288 358.127 104.096C361.407 99.6732 363.344 94.8128 365.325 89.7275C372.33 84.43 399.102 78.7739 408.655 77.2068Z"/>
	<path fill="#FDFDFE" d="M360.809 915.912C364.551 916.98 372.658 925.166 376.085 928.148C374.884 928.565 373.672 928.992 372.516 929.523C367.996 931.601 359.94 936.186 358.394 941.085C357.923 942.578 358.266 943.452 359.012 944.752C360.178 945.108 360.84 945.303 361.958 944.641C363.774 943.566 365.516 941.641 367.215 940.307C371.761 936.737 376.915 934.446 382.326 932.524L387.158 935.552Q385.036 936.243 382.99 937.136Q380.945 938.029 378.996 939.116Q377.047 940.203 375.212 941.474Q373.378 942.745 371.675 944.188C370.078 945.532 368.115 947.374 368.156 949.649C368.18 950.951 368.885 951.701 369.7 952.62C373.457 952.835 379.967 945.67 383.537 943.625C386.421 941.972 389.617 940.748 392.7 939.52C394.342 940.427 395.888 941.571 397.448 942.615C392.909 944.827 380.112 950.3 378.017 954.754C377.354 956.162 377.524 956.473 377.996 957.854C378.685 958.458 379.565 959.538 380.628 959.321C384.319 958.57 388.544 953.448 391.912 951.5C394.001 950.292 396.52 949.945 398.798 949.227C400.086 948.82 401.705 947.842 403.057 947.97C404.464 948.103 406.291 949.068 407.244 950.064C406.029 951.837 401.761 953.239 399.711 954.364C396.262 956.256 389.742 960.4 388.623 964.288C388.875 964.994 388.838 965.411 389.537 965.806C390.602 966.407 393.53 967.045 394.676 966.539C395.799 966.042 397.33 963.513 398.357 962.518C402.204 958.797 407.333 956.585 412.468 955.293L413.086 955.143C418.569 957.471 423.602 961.067 428.691 964.15Q433.955 967.179 439.464 969.738C443.666 971.684 462.753 978.561 464.57 981.846C464.109 982.34 463.668 982.69 463.064 983C449.354 990.035 429.211 991.106 414.24 989.064C395.003 986.44 372.17 978.244 353.713 971.858L319.293 960.201C313.891 958.32 308.662 956.03 303.173 954.393C302.786 944.049 306.306 936.95 309.856 927.539C313.315 927.93 316.108 929.154 319.335 930.392C328.571 933.934 334.827 933.634 344.368 931.708C350.108 925.867 353.425 920.224 360.809 915.912Z"/>
	<path fill="#FDFDFE" d="M695.598 378.249C702.007 373.357 707.641 368.541 714.899 364.872C704.702 377.919 700.259 388.254 702.607 405.178C703.108 408.793 705.066 412.696 704.316 416.292C703.171 421.789 703.217 427.251 702.314 432.723C702.03 434.442 700.741 437.832 700.925 439.35C700.993 439.908 701.322 440.403 701.52 440.93C703.249 441.546 704.753 440.942 706.471 440.464C708.824 439.81 710.413 439.913 712.54 441.188C714.278 442.23 715.666 443.698 716.106 445.723C716.696 448.434 715.587 451.448 714.083 453.675C711.652 457.277 706.727 460.675 702.389 461.322C698.249 461.94 694.323 460.283 690.347 459.515C686.1 467.496 685.559 474.086 688.261 482.721C689.542 486.813 693.512 491.239 693.966 495.219C691.658 496.539 688.659 495.008 686.074 495.649C680.585 497.01 675.57 500.139 670.017 501.558C668.911 499.892 666.152 496.525 665.881 494.61C665.264 490.251 667.03 481.738 666.462 476.053C665.702 468.445 662.069 461.27 661.701 453.836C655.902 447.202 648.597 442.06 643.189 435.088C643.92 422.983 660.587 407.117 661.035 402.79C661.16 401.579 660.501 399.474 660.25 398.255C664.264 398.257 673.311 399.464 676.571 397.196C676.443 396.919 676.519 396.588 676.515 396.284C679.223 393.319 682.665 391.28 685.345 388.441C688.603 384.991 690.481 379.406 695.598 378.249Z"/>
	<path d="M676.571 397.196C676.443 396.919 676.519 396.588 676.515 396.284C679.223 393.319 682.665 391.28 685.345 388.441C688.603 384.991 690.481 379.406 695.598 378.249C692.9 380.89 690.015 383.462 687.772 386.514L688.24 387.386L687.646 387.609L687.295 387.413C688.768 388.509 689.536 387.904 691.057 388.453C693.779 389.435 695.298 396.267 696.032 398.817C695.469 400.327 695.037 402.22 693.655 403.163C692.431 402.954 692.045 402.733 691.346 401.671C688.999 398.11 687.923 392.884 686.061 388.912C683.158 391.47 679.86 395.278 676.571 397.196Z"/>
	<path d="M683.676 394.319C684.595 394.384 685.262 394.542 686.139 394.791C687.212 395.856 687.854 396.678 687.807 398.266C687.7 401.929 685.001 405.272 682.348 407.515C681.118 407.175 680.029 406.992 679.104 406.038C678.144 405.047 677.791 403.896 677.853 402.541C678.003 399.212 681.353 396.259 683.676 394.319Z"/>
	<path d="M653.114 420.744Q653.678 420.799 654.239 420.874C656.551 421.19 659.831 421.954 661.112 424.149C662.096 425.836 661.531 427.571 660.914 429.24C659.95 429.205 658.952 429.152 658.007 428.954C656.053 428.542 654.027 427.692 653.004 425.876C652.02 424.131 652.6 422.512 653.114 420.744Z"/>
	<path fill="#D4CCFD" d="M181.717 341.786C187.73 347.225 192.454 354.126 198.099 360.012Q208.369 370.714 219.342 380.694Q230.316 390.674 241.942 399.886C260.963 414.768 281.822 427.392 303.012 438.911C308.94 442.134 315.645 443.884 321.36 447.43L321.968 447.814Q316.254 459.421 311.314 471.378C310.972 472.124 311.247 471.734 310.269 472.361C308.763 472.228 307.438 471.805 306.028 471.28C284.257 463.177 241.149 433.432 223.225 417.926C211.577 407.848 201.195 396.936 190.292 386.121C186.537 382.395 174.614 371.619 173.081 367.335C171.359 362.522 179.43 346.815 181.717 341.786Z"/>
	<path fill="#FDFDFE" d="M160.856 821.9C161.097 822.139 161.37 822.681 161.472 822.97C163.632 829.048 168.06 832.719 173.514 835.955C184.198 842.293 192.912 839.974 204.185 837.073C208.078 839.92 211.254 842.916 214.497 846.495C210.379 849.053 205.558 850.372 201.453 852.974C199.824 854.006 198.816 854.844 198.379 856.754C198.83 857.764 199.532 858.666 200.573 859.144C200.788 859.243 201.848 859.474 202.162 859.432C204.726 859.083 214.547 852.896 217.936 851.196C219.869 852.08 221.818 852.656 222.807 854.673C221.56 858.351 213.4 859.042 210.251 861.428C209.03 862.352 208.761 863.196 208.623 864.664C209.283 866.432 210.824 867.358 212.267 868.464C218.032 864.795 222.961 862.372 229.577 860.502L233.234 863.364C229.272 864.993 224.563 866.568 221.032 868.971C219.414 870.072 218.422 871.25 218.021 873.189C218.303 875.01 219.688 875.962 220.966 877.155C226.667 873.569 232.422 870.506 238.841 868.437C240.169 869.328 241.402 870.459 242.64 871.478C238.484 874.533 233.473 875.954 229.292 878.926C227.909 879.909 227.037 880.785 226.716 882.516C227.508 883.821 227.981 883.88 229.333 884.511C231.69 884.329 234.22 882.78 236.359 881.789C240.422 879.939 244.364 878.036 248.249 875.829C258.119 881.148 272.85 894.479 279.191 903.697C271.943 906.408 265.038 908.174 257.25 908.214C246.838 908.267 236.121 906.426 226.512 902.34C210.628 895.585 197.21 883.595 182.881 874.163C169.51 865.361 154.78 858.479 143.253 847.067C148.5 838.368 153.571 829.081 160.856 821.9Z"/>
	<path fill="#9F8BE8" d="M326.552 454.773C328.783 456.936 331.996 465.171 333.027 468.36C338.178 484.296 341.307 500.692 344.985 516.988C352.906 552.078 365.256 600.327 356.923 635.686C356.133 639.038 355.493 642.774 353.918 645.851L353.368 645.526L352.962 643.389C347.923 614.384 340.097 585.711 333.087 557.133C328.465 538.29 324.489 519.514 320.753 500.488C319.398 493.592 316.416 485.392 316.885 478.35C317.426 470.24 322.828 461.845 326.552 454.773Z"/>
	<path fill="#FDFDFE" d="M627.655 594.849C628.9 599.816 629.32 605.125 630.449 610.161C634.044 626.193 641.915 640.174 652.028 652.939C652.227 659.471 651.008 666.528 650.525 673.079C649.764 683.384 649.937 694.48 647.793 704.595C644.814 704.596 641.879 704.669 638.939 704.116C630.174 703.369 621.404 701.814 612.698 700.552C615.081 685.763 617.306 670.585 619.017 655.712C620.343 644.188 623.993 603.869 627.655 594.849Z"/>
	<path fill="#FDFDFE" d="M384.957 284.339C389.777 291.265 392.988 300.951 395.866 308.889C391.803 324.332 389.134 340.347 384.725 355.659C382.538 363.255 380.194 371.228 377.223 378.54C373.434 387.866 369.095 396.75 366.088 406.392C364.01 413.054 357.182 440.375 354.53 443.772C352.399 446.501 345.106 445.586 341.919 445.509C339.32 445.29 334.787 445.372 332.697 443.906C333.622 438.637 347.089 416.088 350.456 409.984C356.645 398.763 363.372 386.589 367.497 374.45C374.326 354.351 377.421 333.273 380.449 312.342C381.807 302.952 382.763 293.588 384.957 284.339Z"/>
	<path fill="#FDFDFE" d="M596.924 479.23C605.023 480.242 616.95 485.933 625.007 488.715C634.769 492.087 652.491 496.828 660.875 501.655C660.002 503.169 657.944 504.088 656.475 505.022C653.992 504.038 651.395 503.323 648.945 502.25C645.199 500.609 640.974 496.527 636.594 497.271C636.001 497.979 635.928 498.016 636.079 498.933C637.069 504.942 646.952 507.236 651.052 510.839C652.056 511.721 652.255 512.171 652.311 513.475C648.13 516.809 642.384 510.108 637.43 512.456C636.436 513.667 636.464 514.521 636.424 516.005C637.113 516.662 636.775 516.497 637.689 516.75C638.925 517.092 640.188 517.257 641.226 518.069C641.423 518.223 641.61 518.39 641.802 518.55C644.143 518.338 647.355 519.741 649.636 520.4C648.658 521.814 647.577 523.159 646.526 524.52C642.611 523.945 634.545 520.335 631.17 522.074C630.512 523.335 630.197 523.633 630.35 525.024C633.548 527.312 637.695 528.478 641.356 529.866C640.591 531.335 639.77 533.181 638.692 534.431C637.907 535.342 637.073 535.778 635.871 535.871C631.943 536.176 627.946 533.962 624.553 532.234C604.082 521.816 599.052 511.759 582.579 498.31C587.182 491.733 592.762 486.228 596.924 479.23Z"/>
	<path fill="#FDFDFE" d="M729.445 889.19L729.553 889.168C732.153 892.241 734.665 931.472 734.983 937.483C732.734 941.071 728.07 944.895 724.765 947.575C721.45 950.263 715.693 954.229 711.298 953.617C708.242 953.192 705.408 948.074 703.64 945.646C700.441 941.696 696.855 938.314 693.08 934.922L697.54 931.999C701.369 923.614 699.716 911.589 697.441 902.933C696.743 900.276 695.203 897.392 694.847 894.701C694.687 893.493 694.861 893.33 695.538 892.402C697.911 891.392 700.78 892.711 703.316 892.53C711.961 891.911 720.853 890.458 729.445 889.19Z"/>
	<path fill="#9F8BE8" d="M802.496 613.629L803.039 614.074C807.479 627.054 819.624 683.32 813.976 693.973C808.037 705.176 793.858 710.247 782.61 714.049C780.175 714.832 777.504 715.316 775.012 715.93C779.318 702.769 782.897 702.46 789.849 691.992C791.723 689.169 792.765 686.201 793.319 682.877C795.819 667.867 792.575 631.73 789.504 616.429Q796.053 615.274 802.496 613.629Z"/>
	<path fill="#9F8BE8" d="M687.595 938.983C695.246 943.5 698.966 952.084 705.544 957.554C707.915 959.525 710.704 960.602 713.812 960.194C722.982 958.989 731.97 949.264 737.419 942.497C740.789 948.221 740.917 955.66 741.649 962.133C729.998 964.54 718.657 968.73 706.886 970.528C695.984 972.759 684.84 974.416 673.694 974.377C661.885 974.336 646.972 972.695 638.19 963.814C647.501 959.435 657.162 955.902 666.373 951.245C673.647 947.567 680.404 942.849 687.595 938.983Z"/>
	<path fill="#FDFDFE" d="M300.743 958.268C306.74 963.362 316.296 965.233 323.615 967.893C349.546 977.317 397.607 995.115 424.77 995.701Q429.934 995.831 435.083 995.422Q440.233 995.012 445.311 994.067C451.907 992.86 459.694 989.3 465.034 988.436C466.097 988.264 466.454 988.449 467.401 988.866L467.703 990.032C466.941 992.919 466.19 993.948 463.595 995.466C436.493 1008.84 407.526 1005.67 379.474 997.4C363.362 992.649 347.663 986.446 331.823 980.881C323.217 977.857 314.228 975.633 305.831 972.07C303.362 971.023 298.736 969.287 297.442 966.915C297.062 963.747 299.213 960.887 300.743 958.268Z"/>
	<path fill="#9F8BE8" d="M360.521 854.909L361.154 855.166C361.349 855.672 361.451 855.863 361.52 856.466C361.961 860.344 362.066 876.99 360.08 879.713C356.828 884.17 339.353 887.288 333.917 888.15C324.083 889.71 302.523 890.645 294.175 884.607C293.162 877.041 292.518 869.446 291.193 861.921Q293.325 862.773 295.534 863.4C317.41 869.747 340.782 865.784 360.521 854.909Z"/>
	<path fill="#9F8BE8" d="M732.08 519.259C743.372 521.619 755.543 524.615 765.104 531.314C782.494 543.498 791.071 569.584 796.826 589.257C798.482 594.919 800.287 600.65 801.332 606.462C800.75 607.702 800.056 607.636 798.831 608.102C795.584 608.929 792.395 609.708 789.075 610.181C787.15 604.665 786.712 598.937 785.494 593.257C783.214 582.617 779.343 571.278 773.815 561.869C763.353 544.061 750.622 543.992 732.36 539.224C732.454 532.721 730.807 525.641 732.08 519.259Z"/>
	<path fill="#FDFDFE" d="M140.037 851.86C144.756 859.383 174.144 875.71 182.96 881.607C194.651 889.429 205.781 898.286 218.125 905.075Q221.926 907.171 225.981 908.722Q230.035 910.273 234.265 911.249C248.646 914.679 269.125 916.501 282.14 908.503L282.809 908.785C282.957 909.744 283.116 910.733 283.031 911.706C282.791 914.437 280.959 915.611 278.945 917.163C272.327 921.013 265.052 922.425 257.464 922.446C233.99 922.512 211.295 914.83 191.943 901.656C183.325 895.789 175.245 889.173 166.532 883.425C156.068 876.522 144.611 871.277 135.603 862.365C136.468 858.327 137.839 855.299 140.037 851.86Z"/>
	<path fill="#FDFDFE" d="M686.99 512.535C697.023 512.043 710.055 513.493 718.629 519.087C721.559 520.999 725.243 524.808 725.94 528.399C725.174 528.803 724.875 528.563 724.107 528.24C721.874 527.3 719.71 525.575 717.602 524.321C713.009 521.589 707.063 520.12 701.757 519.789C691.155 519.127 680.046 523.076 672.158 530.188C658.041 542.918 655.208 561.339 654.337 579.381C654.313 579.44 654.271 579.494 654.266 579.557C653.462 588.385 654.544 597.502 654.488 606.343C654.47 609.204 653.386 611.828 653.534 614.717C653.605 616.097 653.579 616.599 652.803 617.749C651.557 616.296 650.906 614.891 650.356 613.054C643.128 588.903 641.077 561.859 653.2 538.941C654.572 536.349 662.384 523.491 664.366 522.712C664.854 522.52 665.454 522.802 665.936 522.594C667.564 521.894 669.854 519.19 671.559 518.146C676.136 515.346 681.902 514.109 686.99 512.535Z"/>
	<path fill="#D4CCFD" d="M186.194 769.246C191.932 772.934 197.149 778.923 202.223 783.564C213.806 794.158 226.909 802.251 241.212 808.628C238.161 813.389 233.926 817.8 230.306 822.168C229.71 822.769 229.118 823.664 228.25 823.793C219.085 825.153 186.156 792.208 177.965 785.959C177.79 785.826 177.612 785.696 177.436 785.565C180.544 780.394 184.345 774.994 186.194 769.246Z"/>
	<path fill="#9F8BE8" d="M350.413 890.571C350.779 891.49 350.77 891.174 350.76 891.953C350.68 898.423 353.218 906.135 355.024 912.369C350.262 916.243 343.386 924.52 338.032 926.65C332.241 928.954 326.23 926.841 320.81 924.599C319.282 923.763 317.866 922.669 316.435 921.675C316.54 913.124 314.642 904.382 313.348 895.938C326.151 896.352 338.442 895.419 350.413 890.571Z"/>
	<path fill="#D4CCFD" d="M575.752 449.23C581.363 451.814 587.557 459.517 591.595 464.282C592.036 466.859 592.252 469.498 592.552 472.096C588.38 482.492 581.082 489.626 573.95 498.004L569.351 495.987C562.96 492.483 556.73 489.025 550.908 484.601C560.263 473.511 569.83 462.691 575.752 449.23Z"/>
	<path fill="#9F8BE8" d="M182.505 799.795C186.921 802.705 190.925 806.992 195.001 810.435C199.323 814.084 204.04 817.347 208.592 820.711C206.947 823.695 205.693 826.916 204.356 830.05C200.774 831.585 197.438 833.091 193.632 834.022C191.004 834.481 188.47 834.55 185.821 834.151C178.116 832.989 171.501 827.97 166.892 821.863C172.705 815.062 177.406 807.153 182.505 799.795Z"/>
	<path fill="#FDFDFE" d="M701.716 525.863C711.632 526.822 718.417 531.082 725.633 537.694C724.207 546.882 723.675 556.352 722.706 565.61C721.235 579.666 719.339 593.707 718.044 607.778C716.542 624.094 715.969 640.584 714.128 656.874L713.326 661.847C711.901 659.772 710.781 657.527 709.607 655.304C710.967 644.566 712.815 633.93 713.952 623.152C715.35 609.902 715.803 596.126 715.866 582.804C715.95 564.819 715.09 539.377 701.716 525.863Z"/>
	<path fill="#FDFDFE" d="M739.516 968.634C740.111 968.515 740.625 968.582 741.226 968.623C742.02 970.01 741.147 972.397 740.837 973.995C727.68 979.089 713.235 982.341 699.257 984.084C678.724 986.643 654.859 987.902 637.618 974.549C636.237 973.198 634.976 971.615 634.5 969.713L634.757 969.403C637.139 969.487 640.403 973.214 642.706 974.34C666.957 986.2 714.432 976.282 739.516 968.634Z"/>
	<path fill="#FDFDFE" d="M649.296 531.33L649.603 531.619C649.806 532.683 649.506 532.807 649.019 533.709C647.153 537.163 644.938 540.72 643.547 544.39C634.919 567.156 636.879 593.46 645.209 616.056C646.654 619.975 652.537 632.626 653.058 635.448C653.516 637.927 652.92 641.385 652.743 643.926L650.353 640.639C641.605 627.339 636.901 612.407 634.465 596.799C632.413 583.645 631.231 559.694 637.262 547.651C640.227 541.732 645.398 536.681 649.296 531.33Z"/>
	<path fill="#9F8BE8" d="M676.714 919.591C680.844 922.901 684.705 927.066 688.585 930.703C684.681 933.597 673.082 941.865 668.493 942.181C666.973 942.286 665.943 941.252 664.814 940.369C661.152 938.607 653.118 935.37 651.165 931.521C650.752 930.706 650.833 931.048 651.16 930.124C657.003 925.719 669.53 922.263 676.714 919.591Z"/>
	<path fill="#FDFDFE" d="M702.194 679.591C703.198 679.892 703.723 680.037 704.495 680.785C707.317 683.519 712.275 692.402 712.855 696.275C713.111 697.985 712.922 699.91 712.846 701.634C709.73 702.352 706.773 703.35 703.597 703.875Q698.096 704.545 692.564 704.859C696.687 696.947 699.911 688.217 702.194 679.591Z"/>
	<path fill="#FDFDFE" d="M334.618 450.36C340.877 450.654 347.155 451.332 353.421 451.697C352.185 457.775 349.924 467.524 351.961 473.433C351.676 474.494 351.377 475.304 350.817 476.25C346.842 473.092 338.524 461.759 336.418 456.955C335.518 454.903 335.103 452.543 334.618 450.36Z"/>
	<path fill="#FDFDFE" d="M213.677 824.815C216.435 826.457 218.735 828.66 221.539 830.253C221.804 833.69 222.763 840.676 220.928 843.595L220.145 843.535Q215.2 838.14 210.084 832.907C211.408 830.284 212.508 827.512 213.677 824.815Z"/>
	<path fill="#FDFDFE" d="M696.715 500.397C697.594 500.722 697.321 500.518 697.961 501.127C701.03 504.05 703.703 506.415 707.545 508.299C696.481 506.012 687.248 505.605 676.446 508.949C673.453 509.82 670.539 511.459 667.727 512.812C673.996 506.666 679.982 503.986 688.577 502.462C691.445 501.953 694.103 501.837 696.715 500.397Z"/>
	<path fill="#9F8BE8" d="M689.627 914.545C689.988 914.52 690.665 914.457 691.008 914.505C691.929 914.633 692.298 915.08 692.706 915.868C694.132 918.614 694.396 922.307 693.535 925.241L692.914 925.389L691.507 923.86C688.982 921.311 686.059 919.015 683.35 916.653C685.403 915.842 687.525 915.214 689.627 914.545Z"/>
	<path fill="#FDFDFE" d="M707.414 664.887C707.576 665.043 707.741 665.195 707.899 665.355C710.718 668.21 713.241 673.89 713.044 677.823L712.905 680.985L712.695 680.994C709.844 678.151 708.032 674.504 706.123 671.005C706.371 668.859 706.746 666.943 707.414 664.887Z"/>
	<path fill="#6850BA" d="M739.172 906.908C770.333 895.939 813.081 892.305 843.811 906.996C849.876 909.895 855.243 913.684 857.655 920.259C859.559 925.449 858.588 930.714 856.199 935.564C844.095 960.132 751.893 1008.66 722.862 1024L538.456 1024C538.441 1013.59 540.606 1005.38 546.461 996.75C559.894 976.951 599.728 954.207 621.687 943.008C627.905 939.838 634.921 935.679 641.801 934.375C644.808 944.704 644.804 944.311 653.662 950.546C646.42 953.085 637.831 955.327 632.103 960.626C629.639 962.905 627.359 965.939 627.359 969.449C627.359 972.707 629.324 975.517 631.542 977.734C642.876 989.06 659.491 991.033 674.686 991.042C695.724 991.054 713.498 988.379 733.683 982.444C737.621 981.286 743.212 980.835 746.064 977.602C747.024 976.514 747.494 974.405 747.818 973.01C751.277 958.106 743.95 944.713 741.638 930.695C740.344 922.847 740.369 914.804 739.172 906.908Z"/>
</svg>
