<?xml version="1.0" encoding="utf-8" ?>
<svg xmlns="http://www.w3.org/2000/svg" xmlns:xlink="http://www.w3.org/1999/xlink" width="1024" height="1024">
	<path fill="#9F8BE8" d="M0 0L1024 0L1024 1024L0 1024L0 0Z"/>
	<path d="M372.525 30.2062C384.426 29.6548 396.492 33.1191 406.981 38.5872C419.483 45.1051 441.764 59.0231 445.81 73.0016C448.875 83.5885 445.285 90.6473 440.461 99.7277C443.047 106.617 449.686 112.229 451.626 119.128C453.445 125.596 444.94 126.017 442.377 130.089C441.493 131.494 442.441 134.135 441.816 135.792C440.8 138.483 438.816 141.228 437.343 143.733C437.981 147.656 438.692 151.876 437.778 155.799C437.009 159.096 435.03 161.798 432.056 163.44C423.318 168.263 412.116 164.399 403.309 161.755C401.939 165.135 400.371 168.423 398.827 171.725C403.595 176.179 407.69 180.384 411.343 185.84C434.677 171.439 470.436 169.371 495.994 158.238C505.964 153.895 515.411 147.791 524.626 142.052C544.832 129.465 565.078 115.026 585.603 103.311C590.212 104.589 594.229 107.389 598.203 109.952C613.847 101.687 618.179 90.9062 629.929 78.8679C636.81 71.8168 673.595 44.9247 682.065 42.4937C683.845 41.9825 685.938 42.1937 687.544 43.128C689.136 44.0545 690.32 45.7615 690.65 47.572Q690.704 47.8768 690.731 48.1854Q690.757 48.4939 690.754 48.8036Q690.752 49.1132 690.721 49.4213Q690.689 49.7294 690.63 50.0333Q690.571 50.3372 690.483 50.6344Q690.396 50.9315 690.282 51.2193Q690.168 51.5071 690.028 51.7831Q689.887 52.0592 689.722 52.3211C685.595 58.8807 672.318 66.861 667.43 74.1587C667.668 75.6574 670.667 77.7154 671.872 78.9079C675.037 94.5642 674.781 98.8431 670.466 114.142C665.115 115.681 656.506 119.11 651.026 118.209C649.463 117.951 647.96 117.119 646.551 116.428C632.912 127.923 631.149 123.792 616.027 127.844C619.831 133.27 622.962 139.056 625.033 145.368C625.988 148.278 627.515 153.464 625.542 156.22C623.229 159.45 589.354 179.159 584.169 182.344C567.376 192.66 552.275 204.307 535.949 214.994C499.066 239.14 460.165 257.074 417.65 268.769C419.326 276.65 421.849 284.463 423.795 292.296Q428.321 310.847 431.478 329.68Q434.984 349.613 437.847 369.648C438.993 378.063 439.655 390.867 442.181 398.491C444.322 404.957 453.516 417.525 457.269 424.899C461.439 433.092 465.41 441.504 468.898 450.013C470.796 454.64 472.354 459.415 474.304 464.011C476.693 469.64 479.654 475.02 482.02 480.661C486.805 492.07 489.139 504.363 484.258 516.175C482.562 520.28 479.985 523.896 476.838 527.016C467.277 536.494 432.164 559.829 419.566 565.134Q419.439 593.668 418.755 622.194Q418.097 659.712 416.936 697.218C413.694 700.235 410.003 702.677 406.379 705.203C397.462 733.762 391.082 763.615 383.974 792.667C378.716 814.159 374.061 835.704 369.436 857.333C366.352 871.757 362.791 886.206 361.183 900.884C362.142 901.559 363.108 902.237 364.013 902.982C368.064 906.319 368.82 909.909 369.212 914.86L374.776 915.665C377.012 917.307 378.517 919.669 380.825 921.213C392.333 928.908 404.816 930.353 418.213 931.603C423 932.05 427.916 932.37 432.563 933.693C438.046 935.255 442.579 938.49 445.319 943.549C447.937 948.383 449.935 955.932 448.163 961.265C446.683 965.718 442.983 969.284 439.344 972.089C420.757 986.417 399.109 981.128 377.49 983.959C365.886 985.478 356.77 988.375 346.451 993.717C341.966 995.647 336.954 996.326 332.101 996.468C324.066 996.702 310.854 996.194 304.804 990.16C302.607 987.967 301.355 985.053 301.473 981.935C301.726 975.266 305.22 968.569 306.428 961.969C308.166 952.472 309.032 942.821 310.179 933.241C311.657 920.903 313.319 909.184 313.428 896.717C311.379 895.395 309.753 893.986 308.017 892.295C306.979 876.259 308.891 858.244 309.654 842.092Q312.583 787.546 316.504 733.061C308.388 733.121 300.294 732.697 292.19 732.315C285.509 743.999 278.202 755.336 271.462 766.995L248.066 807.294C242.609 816.721 234.993 833.222 227.355 840.339C223.886 840.172 220.493 839.762 217.053 839.289C215.335 843.188 213.914 847.254 212.388 851.233C213.94 853.274 215.193 855.503 216.5 857.704C221.523 859.793 228.868 862.501 232.536 866.372C241.216 867.194 251.521 866.475 259.64 869.875C265.023 872.129 268.374 876.291 270.426 881.658C273.156 888.792 273.537 895.684 270.32 902.771C265.928 912.448 255.661 922.23 245.695 925.972C229.223 932.156 212.975 924.911 196.355 924.841C190.641 924.817 185.432 926.894 179.982 928.301C169.771 930.937 155.576 930.13 145.934 925.726C141.354 923.633 137.514 920.554 135.76 915.705C134.677 912.711 135.349 908.635 136.071 905.565C137.316 900.279 140.364 895.601 141.986 890.417C146.732 875.255 149.722 859.645 156.775 845.265C159.31 840.095 161.32 839.741 166.155 837.706C169.464 836.313 173.33 824.087 174.885 820.389C173.257 818.285 170.158 815.971 169.647 813.283C169.318 811.554 170.548 809.149 171.192 807.549C177.425 792.064 185.014 776.98 191.618 761.624C199.676 742.884 208.21 720.509 217.682 702.875C214.693 700.188 210.356 697.427 208.224 694.026C207.176 692.353 207.292 690.128 207.402 688.235C208.041 677.184 210.91 662.315 212.582 651.061C215.044 634.484 216.976 617.846 220.131 601.382C208.358 624.058 200.103 648.518 188.961 671.471C187.984 673.483 186.462 676.686 184.253 677.473C179.186 675.982 175.35 666.588 172.884 662.184C175.897 646.818 178.369 631.337 181.524 616.004Q196.294 544.817 214.866 474.526Q220.317 454.206 226.475 434.089C228.818 426.478 231.435 418.948 233.495 411.253C223.392 401.926 216.08 391.37 211.927 378.193C207.773 365.016 206.534 351.489 207.647 337.737C210.841 298.267 236.232 241.77 254.788 206.16C250.732 186.146 255.797 168.21 258.949 148.647C260.021 141.997 260.167 135.258 261.227 128.606C262.571 127.04 264.068 126.507 266.074 126.218C279.626 124.258 302.581 139.352 313.001 147.254C314.524 142.802 316.55 138.443 318.223 134.034C314.385 131.195 310.234 128.929 306.55 125.852C299.043 119.58 292.737 111.042 291.907 101.02C291.152 91.9147 294.324 83.3554 300.27 76.5123C306.055 69.8547 313.954 65.1213 320.537 59.2762C325.113 55.2129 328.801 50.3945 333.036 46.0106C343.625 35.0485 357.831 31.3023 372.525 30.2062Z"/>
	<path fill="#DBD3FC" d="M248.943 388.955C267.807 401.717 285.621 409.244 306.916 416.794C321.043 444.691 334.256 470.122 350.697 496.798C350.153 514.077 348.424 540.541 354.306 556.698C356.737 563.375 361.259 568.44 367.74 571.417C381.716 577.835 397.698 572.271 411.183 567.216L408.956 693.396C400.988 699.748 390.825 704.974 381.544 709.077C341.237 726.897 296.288 730.147 254.876 714.179C240.92 708.679 226.204 701.09 215.909 690.043C216.437 671.08 233.227 580.048 231.116 573.242C230.649 571.736 229.467 571.01 228.096 570.511C225.839 570.981 224.606 572.426 223.38 574.272C218.927 580.977 216.031 589.651 212.747 597.057L191.009 646.701C188.916 651.505 186.836 658.748 183.561 662.74L182.697 662.679C181.982 661.274 182.041 659.974 182.15 658.439C183.003 646.402 187.625 628.339 190.113 616.148Q200.952 562.727 214.171 509.845Q221.098 483.032 228.63 456.382Q235.113 433.67 242.076 411.1C244.279 403.988 247.184 396.848 248.807 389.596L248.943 388.955Z"/>
	<path d="M326.36 529.927C327.89 529.928 329.263 529.956 330.53 530.914C331.363 531.544 331.762 532.424 331.808 533.472C331.874 534.977 331.499 536.665 331.016 538.081C329.237 543.295 326.683 548.257 324.826 553.452C319.142 569.342 314.107 585.72 309.165 601.862C301.008 628.502 294.524 656.12 289.035 683.436C287.475 691.196 286.574 699.093 284.987 706.829C284.636 708.537 284.254 709.468 283.144 710.818C282.549 710.881 281.948 710.949 281.35 710.972C280.303 711.013 279.387 710.794 278.647 710.029C277.367 708.706 277.182 706.987 277.191 705.223C277.225 698.025 279.685 689.697 281.037 682.593Q284.368 665.643 288.35 648.835Q292.331 632.026 296.957 615.383Q301.583 598.74 306.846 582.288Q312.109 565.836 318.002 549.598C319.846 544.466 322.508 533.61 326.36 529.927Z"/>
	<path fill="#DBD3FC" d="M372.682 208.069C378.735 212.152 389.262 222.11 394.106 227.731C409.772 245.91 426.411 347.64 430.282 375.042C431.624 384.546 434.029 395.032 433.367 404.637C428.303 403.644 421.522 399.816 416.539 401.562C415.683 402.529 415.429 402.75 415.495 404.132C415.575 405.799 416.865 407.613 418.105 408.634C421.294 411.26 426.687 412.175 430.686 411.639C433.385 411.278 434.814 409.944 436.462 407.89C441.155 419.161 442.896 429.391 438.099 440.964C435.023 448.383 429.801 455.428 422.046 458.376C417.556 460.083 412.894 459.837 408.585 457.713C399.72 453.342 393.102 441.688 389.071 433.071C384.638 423.594 381.991 413.154 378.919 403.163C374.262 388.019 369.634 372.896 364.348 357.955C362.025 350.118 358.958 342.399 356.373 334.633C354.766 329.804 353.691 324.563 351.723 319.896C351.25 318.775 350.767 317.826 349.738 317.121C348.722 316.425 347.486 316.038 346.262 316.382C344.882 316.77 344.3 317.621 343.628 318.791C343.28 320.856 343.737 322.792 344.277 324.784C346.034 331.259 348.548 337.646 350.727 343.997C356.877 361.927 363.731 379.913 368.813 398.164C353.761 396.228 339.424 392.774 324.905 388.438C318.638 377.08 313.977 364.549 309.253 352.482C295.327 316.91 282.789 280.14 278.365 242.012C280.313 242.724 282.269 243.442 284.253 244.048C290.682 246.014 298.504 246.623 305.067 244.978C318.648 241.573 334.089 229.778 346.377 222.555C354.997 217.488 363.89 212.833 372.682 208.069Z"/>
	<path d="M372.974 239.98C373.825 240.271 374.495 240.559 375.148 241.214C376.089 242.159 376.116 243.303 376.124 244.529C373.983 248.919 368.357 250.247 364.824 253.388C350.469 266.15 342.575 281.518 337.129 299.686C335.837 303.996 334.232 308.549 333.956 313.053C333.814 315.373 333.814 318.765 332.688 320.795C331.923 322.173 330.313 322.409 328.913 322.761C327.516 322.313 325.566 321.851 325.047 320.294C322.804 313.563 333.819 283.076 336.685 277.059C343.948 261.811 356.591 245.829 372.974 239.98Z"/>
	<path d="M375.283 222.861C378.764 222.829 380.54 223.807 383.102 226.128C387.183 229.826 397.125 242.122 396.695 247.774C396.561 249.534 395.744 249.989 394.586 251.158C393.81 251.281 393.087 251.282 392.303 251.289C386.966 248.246 385.014 239.273 380.146 234.938C378.028 233.052 373.997 230.276 373.473 227.409C373.113 225.444 374.134 224.266 375.283 222.861Z"/>
	<path d="M413.908 423.352C418.649 424.126 424.669 428.262 427.721 431.953C428.863 433.335 429.996 435.181 429.626 437.055C429.321 438.604 427.966 439.525 426.811 440.447C425.567 440.26 423.934 440.101 422.903 439.339C421.4 438.228 420.601 436.23 419.147 434.991C416.941 433.112 413.966 432.109 411.893 430.077C411.194 429.392 410.683 428.448 410.799 427.462C411.03 425.5 412.459 424.48 413.908 423.352Z"/>
	<path fill="#DBD3FC" d="M586.549 112.422C587.994 113.08 589.279 113.873 590.599 114.751C602.903 122.933 615.062 136.87 617.998 151.674C599.997 163.271 581.495 174.108 563.632 185.913C552.567 193.226 541.954 201.229 530.842 208.467C497.463 230.209 454.659 252.512 415.337 260.116L412.563 251.099C423.946 240.116 433.029 228.947 440.467 214.947C441.893 212.152 445.48 206.431 444.304 203.323C443.948 202.38 442.592 201.398 441.644 201.101C440.604 200.774 439.304 200.9 438.421 201.582C435.416 203.9 433.825 210.941 431.91 214.398C427.045 223.178 416.304 237.807 408.178 243.212C409.477 240.701 411.19 238.439 412.493 235.943C419.092 223.307 418.806 206.257 414.472 193.015C433.65 182.615 464.771 176.075 486.227 170.261C493.678 173.307 513.203 174.519 521.129 172.45C522.724 172.034 524.631 171.275 525.289 169.622C525.846 168.224 525.297 166.981 524.603 165.776C519.945 163.77 506.883 165.23 500.882 164.916C509.341 159.677 518.345 155.277 526.867 150.109C546.962 137.923 566.682 124.984 586.549 112.422Z"/>
	<path fill="#6835E5" d="M394.876 711.467L395.193 711.695C395.723 713.263 389.161 736.296 388.259 739.875Q376.346 786.574 366.032 833.651C361.885 852.601 358.613 871.936 353.738 890.699C342.009 890.328 330.157 889.911 318.469 888.875C317.482 888.693 317.346 888.605 316.586 887.943C315.389 883.244 316.989 867.184 317.237 861.291Q318.309 831.139 320.414 801.042C322.006 778.23 324.077 755.331 324.689 732.47C350.259 729.081 371.718 722.812 394.876 711.467Z"/>
	<path fill="#6835E5" d="M224.455 707.998C241.967 719.124 262.962 728.087 283.53 730.873C264.689 761.192 246.933 792.332 229.198 823.313C227.566 826.217 225.816 828.961 223.926 831.704C207.783 831.058 190.931 822.911 178.741 812.594C180.903 806.402 183.92 800.407 186.5 794.365Q196.443 771.09 206.891 748.037C212.641 735.063 217.574 720.176 224.455 707.998Z"/>
	<path fill="#DBD3FC" d="M269.094 133.863C275.52 134.786 281.477 137.122 287.252 140.023C307.093 149.989 315.484 162.223 331.624 175.503C342.966 184.834 355.248 193.337 367.345 201.663C358.373 207.141 348.866 211.777 339.707 216.949C325.838 225.203 310.077 239.31 292.939 237.592C284.807 236.777 278.099 233.082 272.992 226.701C252.183 200.701 265.594 163.417 269.094 133.863Z"/>
	<path fill="#DBD3FC" d="M390.712 453.103C397.854 460.259 406.011 468.189 416.891 468.124C424.416 468.08 431.487 464.312 436.548 458.899C444.507 450.385 447.61 439.553 449.227 428.285C454.378 437.735 466.976 459.218 463.586 469.773C461.094 477.531 453.077 483.737 446.553 488.08C444.167 483.251 441.777 476.445 437.662 472.903C435.384 472.142 433.735 472.541 431.576 473.556C428.37 475.062 424.48 477.977 423.441 481.546C422.94 483.265 423.126 485.257 424.007 486.818C426.273 490.836 429.192 494.723 431.798 498.544C425.063 504.656 414.437 512.903 404.794 512.378C401.699 512.21 399.928 511.201 397.974 508.808C392.468 502.067 384.635 486.975 379.619 478.643C377.887 475.765 376.25 472.548 374.066 470.003C373.051 468.82 371.444 467.249 369.803 467.121C368.487 467.019 367.971 467.601 367.013 468.352C365.888 470.468 366.311 473.028 366.291 475.37C366.557 494.446 368.47 512.446 374.918 530.578C379.475 543.389 384.803 556.475 397.785 562.648C393.76 563.987 389.871 565.273 385.641 565.743C379.626 566.411 371.987 565.837 367.246 561.735C359.753 555.252 359.231 541.696 358.816 532.63C357.995 514.697 358.926 497.201 361.95 479.502C362.43 476.691 362.729 472.022 364.582 469.996C364.554 469.659 364.549 469.319 364.498 468.985C364.28 467.553 363.767 467.308 364.181 465.736C369.539 461.8 384.26 455.272 390.712 453.103Z"/>
	<path fill="#DBD3FC" d="M164.878 846.688C166.709 847.773 168.304 849.163 170.107 850.288C181.56 857.435 191.272 858.191 204.239 855.172C205.772 856.671 207.191 858.307 208.644 859.885C208.377 861.976 207.59 865.256 208.473 867.222C208.796 867.939 209.215 868.531 209.979 868.759C211.919 869.336 213.781 868.114 215.447 867.258L216.101 866.917L216.469 867.395C215.203 869.076 213.869 870.782 212.806 872.6C211.898 874.153 211.57 875.29 212.057 877.062C212.694 877.838 213.095 878.205 214.03 878.638C220.754 881.751 220.638 873.478 224.491 872.049L225.146 872.547C224.956 875.97 222.396 879.043 221.852 882.523C222.338 883.698 222.495 884.319 223.719 884.926C224.967 885.544 227.39 885.78 228.638 885.023C230.655 883.8 232.412 878.611 233.367 876.48L233.899 876.297C235.466 879.412 233.098 883.464 232.4 886.724C231.989 888.642 231.892 890.043 233.034 891.75C234.061 892.479 234.913 893.128 236.265 892.998C237.316 892.898 238.242 892.246 238.943 891.495C242.79 887.376 243.572 881.271 243.41 875.919C249.042 876.15 254.418 876.023 259.356 879.105C260.153 879.899 261.142 880.948 261.5 882.056C261.934 883.406 261.582 884.705 261.006 885.947C257.354 893.82 248.665 905.56 239.779 907.964C237.061 908.7 233.651 908.591 230.843 908.523C222.196 908.314 213.578 906.796 204.911 906.471C192.02 905.989 178.129 907.263 165.418 904.915C159.459 903.814 154.047 901.44 148.757 898.559C152.671 880.889 157.587 863.283 164.878 846.688Z"/>
	<path d="M195.863 868.073C197.808 868.142 199.693 868.354 201.434 869.28C203.85 870.564 205.577 872.619 206.283 875.278Q206.438 875.88 206.528 876.495Q206.618 877.111 206.643 877.732Q206.667 878.353 206.627 878.974Q206.586 879.594 206.48 880.207Q206.373 880.82 206.203 881.418Q206.033 882.016 205.801 882.593Q205.569 883.169 205.277 883.719Q204.985 884.268 204.637 884.783C202.382 888.17 199.728 889.232 195.857 889.982C193.708 889.786 191.642 889.596 189.759 888.449Q189.334 888.189 188.938 887.886Q188.542 887.583 188.179 887.241Q187.817 886.898 187.492 886.52Q187.167 886.142 186.883 885.733Q186.599 885.323 186.359 884.886Q186.119 884.449 185.926 883.989Q185.732 883.53 185.588 883.053Q185.443 882.576 185.349 882.086Q185.237 881.518 185.183 880.942Q185.129 880.365 185.133 879.786Q185.136 879.207 185.198 878.632Q185.26 878.056 185.379 877.49Q185.498 876.923 185.673 876.371Q185.849 875.819 186.078 875.288Q186.308 874.757 186.589 874.251Q186.871 873.745 187.202 873.27C189.343 870.172 192.273 868.817 195.863 868.073Z"/>
	<path fill="#FCFAFE" d="M195.129 876.881Q195.231 876.845 195.337 876.819Q195.442 876.793 195.549 876.777Q195.657 876.761 195.765 876.756Q195.873 876.75 195.982 876.755Q196.09 876.76 196.198 876.775Q196.305 876.79 196.411 876.816Q196.516 876.841 196.619 876.876Q196.721 876.912 196.82 876.957Q196.919 877.002 197.013 877.056Q197.107 877.11 197.195 877.174Q197.283 877.236 197.365 877.308Q197.447 877.379 197.522 877.457Q197.597 877.536 197.664 877.622Q197.73 877.707 197.789 877.799Q197.847 877.89 197.897 877.987Q197.946 878.083 197.986 878.184Q198.026 878.285 198.056 878.389Q198.086 878.493 198.106 878.6Q198.126 878.707 198.136 878.815Q198.145 878.923 198.145 879.031Q198.144 879.14 198.133 879.248Q198.122 879.356 198.101 879.462Q198.079 879.568 198.048 879.672Q198.016 879.776 197.975 879.877Q197.934 879.977 197.883 880.073Q197.833 880.169 197.773 880.26Q197.714 880.35 197.646 880.435Q197.578 880.52 197.502 880.597Q197.426 880.675 197.344 880.745Q197.261 880.815 197.172 880.877Q197.083 880.939 196.988 880.992Q196.893 881.045 196.794 881.089Q196.655 881.15 196.509 881.192Q196.363 881.234 196.212 881.257Q196.062 881.279 195.91 881.281Q195.758 881.283 195.607 881.265Q195.456 881.246 195.309 881.208Q195.162 881.169 195.021 881.112Q194.881 881.054 194.749 880.978Q194.617 880.902 194.497 880.809Q194.377 880.716 194.27 880.608Q194.163 880.5 194.071 880.378Q193.98 880.257 193.906 880.124Q193.831 879.991 193.775 879.85Q193.719 879.709 193.683 879.561Q193.646 879.413 193.63 879.262Q193.613 879.111 193.617 878.959Q193.621 878.807 193.645 878.657Q193.669 878.507 193.713 878.361Q193.757 878.216 193.82 878.077Q193.883 877.939 193.964 877.81Q194.045 877.682 194.143 877.565Q194.24 877.448 194.353 877.346Q194.465 877.243 194.59 877.156Q194.715 877.07 194.85 877.001Q194.986 876.932 195.129 876.881Z"/>
	<path fill="#DBD3FC" d="M357.024 910.105C358.359 911.398 360.523 915.926 362.036 917.922C361.946 919.818 361.837 921.724 361.812 923.622C361.787 925.514 362.27 925.934 363.535 927.183C364.907 927.67 365.545 927.6 366.894 927.253C367.671 927.053 368.45 926.887 369.234 926.715C369.882 928.579 369.987 930.345 371.236 931.95C373.245 932.921 373.702 932.198 375.732 932.332C377.27 932.433 377.229 935.891 378.39 937.181C380.183 937.891 381.966 937.173 383.745 936.706L384.217 937.157C384.282 937.822 384.314 938.576 384.455 939.235C384.707 940.41 384.833 941.052 385.959 941.636C387.229 942.295 389.033 941.659 390.333 941.356C391.275 941.137 391.204 941.261 392.035 941.639C392.566 942.641 393.099 943.902 393.802 944.781C394.606 945.787 395.135 945.823 396.307 946.05C396.66 945.881 397.013 945.71 397.374 945.557C400.425 944.268 403.231 946.646 406.066 947.734C407.626 948.333 409.096 948.507 410.653 947.749C413.599 946.316 414.747 942.86 415.808 940.022C421.824 939.8 428.577 940.169 434.098 942.819C435.648 943.562 437.312 944.751 437.716 946.536C438.027 947.91 437.512 949.333 436.763 950.469C428.036 963.726 393.424 963.77 378.745 964.953C373.556 965.371 368.471 966.134 363.36 967.109C344.426 970.78 332.031 978.08 313.563 967.917C315.571 958.182 316.678 948.365 317.763 938.493C327.64 938.553 340.06 936.743 349.163 932.74C350.923 931.967 351.873 930.713 352.47 928.917C352.893 927.642 352.745 927.162 352.116 926.026C347.066 923.494 337.394 928.497 331.966 929.552C327.631 930.394 323.181 930.681 318.778 930.941Q319.693 923.536 320.725 916.147C334.571 916.086 343.859 914.434 357.024 910.105Z"/>
	<path d="M356.422 938.106C358.618 937.956 360.834 938.209 362.812 939.222C365.42 940.559 367.337 942.87 368.064 945.719Q368.206 946.252 368.29 946.798Q368.375 947.343 368.403 947.894Q368.43 948.446 368.399 948.997Q368.369 949.548 368.28 950.092Q368.192 950.637 368.047 951.17Q367.903 951.702 367.703 952.217Q367.503 952.731 367.25 953.222Q366.998 953.713 366.695 954.174C364.608 957.405 361.83 958.474 358.234 959.346C355.96 959.45 353.372 959.144 351.299 958.166Q350.851 957.953 350.428 957.693Q350.004 957.434 349.61 957.132Q349.216 956.831 348.856 956.489Q348.496 956.148 348.173 955.771Q347.85 955.394 347.569 954.985Q347.287 954.576 347.05 954.14Q346.813 953.704 346.622 953.246Q346.432 952.788 346.29 952.312C345.445 949.552 345.866 946.373 347.328 943.896C349.497 940.22 352.428 939.05 356.422 938.106Z"/>
	<path fill="#FCFAFE" d="M356.254 946.64Q356.413 946.575 356.58 946.534Q356.747 946.493 356.918 946.475Q357.089 946.458 357.261 946.465Q357.432 946.472 357.601 946.504Q357.77 946.536 357.933 946.591Q358.096 946.646 358.249 946.724Q358.403 946.802 358.543 946.9Q358.684 946.999 358.809 947.117Q358.934 947.235 359.041 947.369Q359.148 947.504 359.235 947.652Q359.322 947.8 359.387 947.96Q359.452 948.119 359.494 948.286Q359.535 948.452 359.553 948.623Q359.571 948.794 359.564 948.966Q359.557 949.138 359.525 949.307Q359.494 949.476 359.439 949.639Q359.384 949.802 359.306 949.955Q359.229 950.109 359.13 950.25Q359.032 950.391 358.914 950.516Q358.796 950.641 358.662 950.749Q358.528 950.856 358.38 950.943Q358.232 951.031 358.072 951.096Q357.913 951.161 357.747 951.203Q357.58 951.245 357.409 951.263Q357.302 951.274 357.194 951.276Q357.087 951.277 356.98 951.269Q356.872 951.261 356.766 951.243Q356.66 951.226 356.556 951.199Q356.452 951.172 356.35 951.136Q356.249 951.099 356.151 951.054Q356.054 951.009 355.96 950.956Q355.867 950.902 355.779 950.84Q355.691 950.779 355.609 950.709Q355.526 950.64 355.451 950.564Q355.375 950.487 355.306 950.404Q355.238 950.321 355.177 950.233Q355.116 950.144 355.063 950.05Q355.01 949.957 354.966 949.859Q354.922 949.761 354.886 949.659Q354.851 949.557 354.825 949.453Q354.799 949.349 354.782 949.242Q354.766 949.136 354.758 949.029Q354.751 948.921 354.754 948.814Q354.756 948.706 354.768 948.599Q354.781 948.492 354.802 948.387Q354.824 948.281 354.855 948.178Q354.885 948.075 354.925 947.975Q354.965 947.876 355.014 947.78Q355.063 947.684 355.12 947.593Q355.177 947.501 355.242 947.416Q355.307 947.33 355.38 947.25Q355.452 947.171 355.531 947.098Q355.61 947.025 355.696 946.96Q355.781 946.894 355.872 946.837Q355.963 946.779 356.059 946.73Q356.154 946.681 356.254 946.64Z"/>
	<path fill="#DBD3FC" d="M470.122 475.953C472.488 479.74 474.255 484.079 475.672 488.305C478.259 496.019 479.973 506.492 475.987 514.068C474.279 517.315 471.794 520.135 469.087 522.584C461.45 529.494 426.875 553.669 417.756 556.508C412.05 558.285 405.766 557.875 400.462 555.036C388.443 548.601 383.491 531.236 379.734 519.174C376.765 507.953 375.248 497.082 374.374 485.55C379.654 493.779 383.716 502.845 389.374 510.83C392.806 515.674 397.297 519.788 403.39 520.665C414.918 522.325 428.013 512.416 436.674 505.879C437.573 507.207 438.463 508.601 439.513 509.816C440.819 511.326 442.788 512.739 444.877 512.657C446.128 512.608 447.174 511.792 447.884 510.813C450.693 506.939 449.489 501.248 448.765 496.891C457.459 490.609 464.964 485.645 470.122 475.953Z"/>
	<path fill="#DBD3FC" d="M258.069 218.788C258.803 220.65 259.948 223.004 259.648 225.017C258.65 231.719 254.33 238.775 252.277 245.342C248.121 258.641 245.245 272.908 243.148 286.682C241.555 297.148 238.512 314.441 242.754 324.157C245.337 330.074 249.991 335.416 253.806 340.587C250.066 343.095 238.389 348.825 236.204 351.386C235.382 352.35 234.947 353.968 235.2 355.22C235.48 356.611 236.076 356.781 237.208 357.361C241.654 357.483 246.169 354.383 250.031 352.368C247.879 358.381 245.533 364.59 244.262 370.851C242.494 379.554 243.801 381.442 239.977 390.806C238.65 394.513 237.621 398.344 236.511 402.121C227.09 393.404 221.215 382.148 218.094 369.782C208.292 330.941 228.028 282.66 244.05 247.663C248.51 237.921 252.569 228.011 258.069 218.788Z"/>
	<path fill="#6835E5" d="M325.406 137.187C338.573 139.898 357.943 151.271 369.258 158.838C385.861 169.942 404.884 183.732 408.833 204.513C409.974 210.515 409.308 223.53 405.922 228.483C396.672 217.851 382.55 202.462 371.67 193.859C365.555 189.024 358.772 184.965 352.382 180.497C340.873 172.451 330.508 163.746 320.826 153.556C321.99 147.956 323.357 142.535 325.406 137.187Z"/>
	<path fill="#FCFAFE" d="M438.32 80.3095C438.339 80.3662 438.362 80.4217 438.377 80.4796C439.824 86.0311 434.929 92.9032 432.385 97.6543C432.84 100.621 433.437 103.345 434.708 106.09C436.334 109.602 442.269 116.52 441.592 120.018C439.881 122.179 437.963 121.969 436.261 123.559C435.289 124.468 430.278 141.275 430.08 143.235C429.741 146.593 430.643 150.25 430.118 153.537C429.9 154.898 429.492 155.238 428.375 155.984C423.943 158.946 416.882 156.854 412.123 155.764C409.549 154.977 406.563 154.669 403.9 154.181C410.187 146.852 398.847 132.038 403.741 118.566C408.194 106.306 418.446 106.22 426.306 99.2455C429.945 96.017 436.281 85.0455 438.32 80.3095Z"/>
	<path d="M418.677 128.113C420.392 128.204 423.148 128.284 424.707 129.042C426.353 129.842 427.265 130.734 427.9 132.464C427.825 133.362 427.781 134.009 427.207 134.757C425.718 136.697 423.152 137.036 420.92 137.561C420.193 137.561 419.471 137.569 418.747 137.483C416.529 137.222 413.726 136.373 412.505 134.314C411.781 133.093 412.072 132.474 412.407 131.22C414.136 129.128 416.123 128.685 418.677 128.113Z"/>
	<path fill="#DBD3FC" d="M257.154 259.352C259.499 269.743 260.144 281.664 262.533 292.647C268.797 321.444 278.484 348.705 289.17 376.097C285.246 374.938 281.575 373.21 277.883 371.473C273.758 369.442 259.225 362.544 257.542 358.814C255.667 354.658 261.491 343.645 262.938 339.21C259.682 332.804 253.78 327.996 250.464 321.515C249.564 319.757 248.968 318.236 248.795 316.269C247.724 304.097 253.34 271.208 257.154 259.352Z"/>
	<path fill="#FCFAFE" d="M672.942 56.5565L673.056 56.6356L673.065 57.2356C666.961 62.7364 659.873 67.1419 653.957 72.8305C649.498 77.1184 638.665 87.8253 639.148 94.6189C639.245 95.9939 639.549 96.7001 640.637 97.5614C642.049 98.6793 644.814 98.8967 646.524 98.5786C648.728 98.1685 651.062 96.3845 652.271 94.5495C652.361 92.7143 651.271 91.9055 650.346 90.3632C651.069 86.6365 657.3 81.8062 660.121 79.2746C657.987 95.8669 651.605 100.316 639.82 110.868C629.15 119.551 623.151 117.316 610.527 120.882L604.919 116.194C619.796 105.41 626.199 93.9887 638.672 82.0731C648.23 72.9417 661.982 64.343 672.942 56.5565Z"/>
	<path fill="#DBD3FC" d="M341.706 423.201C353.818 424.731 365.286 426.336 377.533 426.809C379.885 433.749 382.557 439.729 386.485 445.936C383.373 447.685 379.958 449.055 376.708 450.54C371.065 453.237 365.836 456.168 361.4 460.603Q350.802 442.297 341.706 423.201Z"/>
	<path fill="#DBD3FC" d="M253.857 365.911C265.43 375.943 280.111 379.462 292.971 386.998C294.994 390.884 302.067 402.624 301.51 406.214L300.22 406.027C282.458 398.633 263.145 393.333 250.432 377.84C251.217 373.824 252.715 369.848 253.857 365.911Z"/>
	<defs>
		<linearGradient id="gradient_0" gradientUnits="userSpaceOnUse" x1="368.54266" y1="993.97424" x2="374.2662" y2="955.65302">
			<stop offset="0" stop-color="#EAEBFF"/>
			<stop offset="1" stop-color="white"/>
		</linearGradient>
	</defs>
	<path fill="url(#gradient_0)" d="M440.35 959.082C440.346 959.188 440.366 959.298 440.337 959.4C439.784 961.371 436.044 964.303 434.448 965.641Q432.776 967.031 430.95 968.21Q429.124 969.39 427.17 970.343Q425.216 971.295 423.162 972.007Q421.108 972.719 418.983 973.18C411.166 974.941 402.93 974.598 394.96 974.735C387.141 974.869 379.289 975.269 371.551 976.442C365.424 977.37 359.568 978.702 353.828 981.08C348.097 983.454 342.457 986.805 336.307 987.938C331.801 988.768 326.798 988.437 322.261 988.044C317.596 987.641 312.341 987.065 309.169 983.289C309.113 980.929 309.538 978.325 311.005 976.422C311.642 976.271 322.533 980.227 325.391 980.702Q328.63 981.259 331.917 981.326Q335.203 981.392 338.462 980.966C350.283 979.523 361.543 974.961 373.342 973.211C389.561 970.805 405.606 972.039 421.77 967.927C428.812 966.135 434.437 963.257 440.35 959.082Z"/>
	<path fill="#FCFAFE" d="M263.782 896.411C263.804 896.553 263.844 896.692 263.846 896.835C263.917 900.93 256.973 908.162 254.102 910.888C234.961 929.063 215.107 915.246 193.761 916.708C183.612 917.403 175.741 921.789 164.692 921.449C157.514 921.229 149.567 920.152 144.424 914.665C144.065 913.83 143.712 913.04 143.579 912.133C143.309 910.29 143.233 907.719 144.426 906.213C146.485 906.09 151.518 909.299 153.905 910.124C157.424 911.339 161.011 912.146 164.676 912.78C177.875 915.063 191.525 914.355 204.867 914.983C215.603 915.489 226.91 917.574 237.607 916.275C250.489 914.71 256.4 905.934 263.782 896.411Z"/>
	<path fill="#DBD3FC" d="M329.771 398.657C343.441 401.371 356.708 405.84 370.817 405.429Q373.071 412.039 375.161 418.702C362.436 417.938 349.45 416.326 336.982 413.671Q333.108 406.293 329.771 398.657Z"/>
	<path fill="#DBD3FC" d="M181.399 825.495C190.617 830.498 199.472 834.514 209.402 837.829C208.452 840.417 207.322 842.669 205.958 845.053C204.396 845.916 202.743 846.635 201.127 847.392C200.118 847.706 199.097 848.01 198.057 848.204Q197.263 848.346 196.463 848.45Q195.663 848.553 194.859 848.617Q194.055 848.682 193.249 848.707Q192.443 848.732 191.637 848.718Q190.83 848.703 190.026 848.65Q189.221 848.596 188.42 848.503Q187.619 848.41 186.823 848.279Q186.027 848.147 185.239 847.977Q184.451 847.806 183.671 847.598Q182.892 847.389 182.124 847.143Q181.356 846.896 180.601 846.613Q179.846 846.329 179.106 846.009Q178.366 845.689 177.642 845.333Q176.918 844.978 176.212 844.587Q175.507 844.197 174.821 843.772Q174.135 843.347 173.471 842.89C175.697 836.917 178.573 831.2 181.399 825.495Z"/>
	<path fill="#DBD3FC" d="M321.304 897.329L343.704 898.412C346.535 898.569 350.194 898.524 352.169 900.734L351.986 901.806C350.931 902.923 349.93 903.497 348.591 904.188C339.862 907.533 330.757 907.853 321.548 907.999C321.391 904.447 321.37 900.884 321.304 897.329Z"/>
	<defs>
		<linearGradient id="gradient_1" gradientUnits="userSpaceOnUse" x1="378.18713" y1="156.42332" x2="394.23227" y2="160.23325">
			<stop offset="0" stop-color="#F9F8FE"/>
			<stop offset="1" stop-color="#E6E1FF"/>
		</linearGradient>
	</defs>
	<path fill="url(#gradient_1)" d="M374.525 150.891C384.084 151.98 385.423 156.286 397.807 155.237C396.342 157.234 395.216 159.325 394.066 161.507L392.582 165.726C386.464 160.917 380.52 155.852 374.525 150.891Z"/>
	<path fill="#FCFAFE" d="M665.179 95.8228C665.535 96.1444 665.683 96.5545 665.9 96.9771C665.835 100.941 664.837 104.148 663.392 107.77C660.899 108.088 658.477 108.762 656.042 109.37L655.728 108.839C657.469 106.985 659.855 105.858 662.045 104.602C663.515 101.845 664.287 98.8026 665.179 95.8228Z"/>
	<path fill="#6835E5" d="M821.89 235.769C821.876 235.605 821.866 235.441 821.849 235.278C821.335 230.387 815.933 220.729 818.651 216.592C820.666 213.525 829.929 209.757 833.476 207.915C841.119 214.881 850.377 227.56 855.136 236.672L855.389 237.165C859.038 249.934 841.493 282.093 834.779 294.296C832.375 298.664 829.48 302.756 825.952 306.289C819.367 312.883 811.245 317.59 804.243 323.668C794.154 332.424 785.449 342.409 774.81 350.651C786.277 353.916 798.114 350.941 808.793 346.324C812.613 344.673 816.36 342.632 820.265 341.218C831.898 345.532 844.705 351.478 856.738 354.228C866.254 356.403 882.197 353.581 889.515 356.575C893.826 358.338 897.793 361.513 901.38 364.424C905.143 367.477 909.519 371.217 911.695 375.643C912.34 376.956 912.607 378.401 912.814 379.837C914.52 394.86 899.187 430.703 889.608 442.684C884.965 448.491 879.729 451.651 873.227 455.058C870.874 456.291 868.337 457.467 866.296 459.188C862.207 462.637 859.275 468.114 856.019 472.357C850.037 480.153 837.157 494.234 827.337 495.954C825.916 496.202 823.007 496.153 823.06 497.968C824.514 499.236 826.35 500.345 827.601 501.786C831.502 504.682 834.741 508.439 837.841 512.151C839.624 515.225 839.037 517.466 838.17 520.74C836.838 525.777 835.209 530.732 833.882 535.774C832.036 542.792 830.928 551.296 827.399 557.676C825.89 560.404 823.63 562.442 820.948 563.989C805.342 572.991 788.382 564.137 772.309 561.617C775.3 567.724 777.852 574.002 780.622 580.208C782.565 584.56 784.976 588.87 786.271 593.469C787.382 597.413 785.523 601.352 785.956 605.303C787.051 615.311 797.36 624.538 803.549 631.883C802.05 632.53 796.673 634.365 795.872 635.636C795.817 635.723 795.803 635.83 795.768 635.927C796.654 640.162 802.013 645.204 802.271 648.57C803.547 650.066 811.287 673.456 811.756 676.127C814.032 677.436 816.409 678.977 818.914 679.784C822.594 679.66 838.868 687.592 842.567 689.781Q847.24 692.489 851.198 696.165C860.604 705.007 858.769 709.686 864.448 718.132C867.971 723.371 872.836 727.574 875.854 733.177C877.303 735.867 878.015 738.315 878.091 741.376C878.411 754.199 871.738 794.034 866.546 804.938C864.457 809.324 861.253 812.546 858.15 816.201C853.441 821.745 851.307 829.885 850.661 837.008C854.209 838.705 858.805 840.594 860.097 844.705C863.243 854.713 853.713 906.266 848.24 915.47C844.101 922.431 832.515 923.739 825.554 926.491C823.653 931.225 822.134 936.4 819.715 940.872C810.543 946.019 796.001 949.189 785.577 949.394C779.398 949.515 773.088 948.483 766.95 947.806C747.262 945.638 724.813 942.413 705.855 949.653C702.047 951.107 697.17 953.741 696.068 958.039C695.14 961.657 697.914 965.789 695.803 969.15C688.16 972.415 673.907 966.774 666.798 963.915C662.757 962.289 658.755 960.497 654.645 959.057C639.87 962 624.975 964.17 610.195 967.033Q592.702 970.323 575.49 974.86Q558.277 979.397 541.435 985.156C537.21 986.607 532.971 988.051 528.869 989.828C524.687 991.64 520.282 994.139 515.865 995.247C514.099 995.69 512.745 995.815 511.038 995.088C508.875 991.974 512.975 973.435 513.534 969.095Q514.412 962.369 514.729 955.593C510.092 953.369 501.398 950.428 499.722 945.116C498.545 941.387 502.156 921.931 502.674 916.411C497.092 914.306 485.615 911.516 483.12 905.803C481.111 901.203 485.021 885.762 486.061 880.174C482.121 878.55 465.994 873.861 464.636 870.469C463.775 868.32 463.772 865.028 463.929 862.738C464.237 858.234 468.938 826.774 470.124 824.282C470.886 822.681 472.57 821.724 474.19 821.213C474.974 820.966 475.743 820.863 476.555 820.767C485.687 816.706 497.553 813.077 507.323 810.936C508.08 806.474 508.595 801.963 509.211 797.48C510.174 790.482 510.993 776.458 516.928 771.96C519.606 768.963 523.522 766.358 526.675 763.788C535.845 756.312 545.683 749.202 554.29 741.105C554.758 730.718 557.238 720.538 557.632 710.133C552.604 705.819 546.689 702.467 540.515 700.101C526.007 694.539 501.075 691.819 492.232 678.067C492.588 671.766 497.624 635.171 500.237 631.623C501.659 629.693 503.618 629.09 505.885 628.769C518.012 622.382 531.081 617.334 543.619 611.759C541.348 610.338 539.417 608.921 537.44 607.092C537.009 597.66 539.185 587.471 540.434 578.099C536.011 574.834 530.705 573.45 526.331 570.37C525.697 569.923 525.024 569.605 524.956 568.766C524.583 564.209 535.374 546.19 538.515 542.049C540.41 538.393 542.281 535.501 546.44 534.202C553.462 532.008 563.994 534.189 570.317 537.752C576.134 541.029 580.041 546.144 584.966 550.483C593.773 558.241 604.445 556.728 615.18 555.86C619.316 555.526 623.801 555.448 627.864 554.613C626.971 550.858 626.166 547.125 625.752 543.282C625.172 537.904 625.848 530.85 623.359 525.901C622.47 524.133 620.741 522.481 619.419 521.011C619.498 512.581 619.988 502.958 622.119 494.792C624.03 487.471 626.727 480.586 627.992 473.071L627.958 470.248C626.386 468.823 624.505 467.291 623.427 465.443C622.363 463.621 622.566 461.41 622.73 459.382C623.266 452.745 625.162 445.851 626.531 439.333Q629.988 422.645 633.696 406.012C634.064 405.564 634.523 404.933 635.015 404.594C638.699 402.057 645.346 403.672 649.488 404.385C648.984 402.708 648.642 400.03 648.896 398.277C649.051 397.213 649.097 397.12 649.972 396.456L651.425 396.74L653.192 395.817C657.35 393.605 660.4 393.361 664.999 393.313C664.219 391.946 663.832 390.352 663.063 388.967C660.298 383.989 656.488 380.515 655.872 374.462C655.643 372.204 655.544 370.088 657.007 368.237C658.374 367.391 659.1 367.006 660.78 367.062Q664.045 367.919 667.385 368.411Q670.724 368.903 674.098 369.024C669.232 366.349 660.586 352.839 658.873 347.531C661.149 335.929 666.421 325.078 668.811 313.396C668.884 313.199 668.947 312.998 669.031 312.805C671.186 307.831 686.461 299.108 691.631 297.009C695.8 298.647 699.884 302.152 704.43 302.437C713.644 303.013 710.253 286.5 713.116 281.176C715.987 275.839 723.778 278.242 728.074 273.881C730.913 270.999 729.175 266.95 729.161 263.432C729.155 262.061 729.337 260.902 730.239 259.821C732.723 256.844 737.132 254.364 740.21 251.888C743.412 249.311 746.303 246.466 749.204 243.564C753.746 245.626 758.342 247.723 763.142 249.11C774.787 252.475 789.664 253.256 801.842 253.935C806.581 247.084 815.438 241.059 821.89 235.769Z"/>
	<path fill="#F98A3B" d="M821.89 235.769C821.876 235.605 821.866 235.441 821.849 235.278C821.335 230.387 815.933 220.729 818.651 216.592C820.666 213.525 829.929 209.757 833.476 207.915C841.119 214.881 850.377 227.56 855.136 236.672L855.389 237.165C859.038 249.934 841.493 282.093 834.779 294.296C832.375 298.664 829.48 302.756 825.952 306.289C819.367 312.883 811.245 317.59 804.243 323.668C794.154 332.424 785.449 342.409 774.81 350.651C786.277 353.916 798.114 350.941 808.793 346.324C812.613 344.673 816.36 342.632 820.265 341.218C831.898 345.532 844.705 351.478 856.738 354.228C866.254 356.403 882.197 353.581 889.515 356.575C893.826 358.338 897.793 361.513 901.38 364.424C905.143 367.477 909.519 371.217 911.695 375.643C912.34 376.956 912.607 378.401 912.814 379.837C914.52 394.86 899.187 430.703 889.608 442.684C884.965 448.491 879.729 451.651 873.227 455.058C870.874 456.291 868.337 457.467 866.296 459.188C862.207 462.637 859.275 468.114 856.019 472.357C850.037 480.153 837.157 494.234 827.337 495.954C825.916 496.202 823.007 496.153 823.06 497.968C824.514 499.236 826.35 500.345 827.601 501.786C831.502 504.682 834.741 508.439 837.841 512.151C838.011 513.192 838.077 513.694 837.876 514.753C832.369 514.544 827.001 514.485 821.5 514.891C817.843 515.161 813.628 516.394 810.023 515.914C801.299 514.754 793.193 510.068 784.459 508.818C776.515 507.681 770.106 517.346 764.293 521.779L763.731 522.203C759.864 517.744 757.103 511.716 754.138 506.601C743.535 488.306 733.976 469.392 723.726 450.886C720.607 445.256 717.63 438.458 713.533 433.489C712.221 431.899 710.819 430.768 708.967 429.887C704.45 430.324 695.907 437.722 691.706 440.324C689.081 441.95 686.369 443.308 683.566 444.596C677.581 441.629 672.715 438.357 667.96 433.642C669.845 428.47 672.379 423.811 675.614 419.356C680.054 413.241 685.394 409.591 689.432 404.373C690.058 403.563 690.346 403.013 690.388 401.961C689.877 400.656 689.796 400.494 688.674 399.666C683.719 399.653 677.74 404.138 673.183 406.149C665.863 403.258 658.382 400.441 651.425 396.74L653.192 395.817C657.35 393.605 660.4 393.361 664.999 393.313C664.219 391.946 663.832 390.352 663.063 388.967C660.298 383.989 656.488 380.515 655.872 374.462C655.643 372.204 655.544 370.088 657.007 368.237C658.374 367.391 659.1 367.006 660.78 367.062Q664.045 367.919 667.385 368.411Q670.724 368.903 674.098 369.024C669.232 366.349 660.586 352.839 658.873 347.531C661.149 335.929 666.421 325.078 668.811 313.396C668.884 313.199 668.947 312.998 669.031 312.805C671.186 307.831 686.461 299.108 691.631 297.009C695.8 298.647 699.884 302.152 704.43 302.437C713.644 303.013 710.253 286.5 713.116 281.176C715.987 275.839 723.778 278.242 728.074 273.881C730.913 270.999 729.175 266.95 729.161 263.432C729.155 262.061 729.337 260.902 730.239 259.821C732.723 256.844 737.132 254.364 740.21 251.888C743.412 249.311 746.303 246.466 749.204 243.564C753.746 245.626 758.342 247.723 763.142 249.11C774.787 252.475 789.664 253.256 801.842 253.935C806.581 247.084 815.438 241.059 821.89 235.769Z"/>
	<path fill="#6835E5" d="M821.89 235.769C821.876 235.605 821.866 235.441 821.849 235.278C821.335 230.387 815.933 220.729 818.651 216.592C820.666 213.525 829.929 209.757 833.476 207.915C841.119 214.881 850.377 227.56 855.136 236.672L855.389 237.165C859.038 249.934 841.493 282.093 834.779 294.296C832.375 298.664 829.48 302.756 825.952 306.289C819.367 312.883 811.245 317.59 804.243 323.668C794.154 332.424 785.449 342.409 774.81 350.651C770.96 350.113 767.153 349.545 763.353 348.722C767.115 344.993 772.035 342.113 776.22 338.836C781.652 334.584 786.629 329.773 791.63 325.033C784.003 318.39 774.461 313.19 765.915 307.779C772.236 307.73 781.818 308.538 787.733 306.899C794.411 305.049 796.763 297.436 799.947 292.104C806.252 290.458 812.963 291.131 819.349 289.852C824.668 288.787 832.683 286.205 835.649 281.407C838.179 277.313 835.838 271.199 834.838 266.823C837.411 264.45 840.545 262.746 842.317 259.632C842.361 258.961 842.583 258.4 842.143 257.833C837.984 252.478 815.504 255.253 809.17 255.087C806.717 255.022 804.239 254.434 801.842 253.935C806.581 247.084 815.438 241.059 821.89 235.769Z"/>
	<path fill="#F98A3B" d="M821.89 235.769C821.876 235.605 821.866 235.441 821.849 235.278C821.335 230.387 815.933 220.729 818.651 216.592C820.666 213.525 829.929 209.757 833.476 207.915C841.119 214.881 850.377 227.56 855.136 236.672L855.389 237.165C852.697 239.846 849.246 241.801 846.063 243.852C837.688 241.854 829.788 239.206 821.89 235.769Z"/>
	<path fill="#6835E5" d="M912.814 379.837C914.52 394.86 899.187 430.703 889.608 442.684C884.965 448.491 879.729 451.651 873.227 455.058C870.874 456.291 868.337 457.467 866.296 459.188C862.207 462.637 859.275 468.114 856.019 472.357C850.037 480.153 837.157 494.234 827.337 495.954C825.916 496.202 823.007 496.153 823.06 497.968C824.514 499.236 826.35 500.345 827.601 501.786C817.059 496.937 816.438 487.207 810.841 478.308C809.127 475.583 805.954 473.051 803.664 470.715C810.139 470.446 817.192 470.54 823.555 469.407C832.684 467.782 835.249 460.1 839.94 453.322C845.026 451.284 855.992 449.237 859.944 446.567C865.233 442.994 864.368 431.13 865.425 425.317C868.99 424.059 873.167 423.435 876.452 421.575C884.989 416.745 879.102 405.353 884.968 399.785C886.899 397.953 889.338 398.439 891.772 398.554C899.874 393.237 906.522 387.177 912.814 379.837Z"/>
	<path fill="#6835E5" d="M658.873 347.531C661.149 335.929 666.421 325.078 668.811 313.396C672.815 322.024 677.127 331.939 683.441 339.091L684.039 339.308C687.582 340.565 698.612 342.252 700.371 345.16C698.033 347.204 694.39 346.555 691.431 346.35C687.198 346.056 682.876 345.394 678.636 345.568C679.749 349.917 680.518 354.175 681.37 358.564C684.673 360.531 693.517 363.124 694.464 366.773C694.777 367.979 694.697 368.79 694.304 369.984C693.316 371.18 692.408 371.586 690.897 371.728C685.737 372.213 679.187 370.092 674.098 369.024C669.232 366.349 660.586 352.839 658.873 347.531Z"/>
	<path fill="#6835E5" d="M664.999 393.313C664.219 391.946 663.832 390.352 663.063 388.967C660.298 383.989 656.488 380.515 655.872 374.462C655.643 372.204 655.544 370.088 657.007 368.237C658.374 367.391 659.1 367.006 660.78 367.062C660.626 372.448 661.005 375.084 664.879 379.13C665.191 379.456 665.513 379.773 665.843 380.081L666.495 380.202C672.373 381.251 689.167 381.407 693.02 385.175C693.027 386.102 693.22 385.909 692.573 386.482C690.137 388.639 685.518 387.547 682.502 388.446C677.301 389.994 673.969 394.421 667.992 393.732Q666.491 393.553 664.999 393.313Z"/>
	<path fill="#EADD98" d="M811.756 676.127C814.032 677.436 816.409 678.977 818.914 679.784C820.198 681.535 838.334 688.33 841.721 690.193C844.631 691.795 847.347 693.978 849.795 696.211C858.079 703.768 858.555 710.599 863.951 719.33C867.904 725.725 877.059 732.206 877.168 740.33C877.273 748.205 865.195 755.42 860.987 761.716C857.554 766.852 860.977 777.231 856.821 780.845C852.729 784.403 843.462 782.149 838.426 781.85C835.593 781.682 833.067 781.771 830.873 783.719C829.24 786.796 830.749 789.519 831.429 792.646C831.957 795.075 832.472 798.416 830.827 800.565C829.802 801.905 828.309 802.554 826.704 802.931C820.64 804.359 809.225 802.742 801.734 804.125C799.541 804.53 798.065 804.954 796.756 806.825C796.916 812.768 816.371 820.6 821.338 823.625C826.061 826.502 830.129 829.371 833.722 833.591C833.302 833.847 832.882 834.103 832.452 834.342C825.216 838.365 816.451 840.129 808.688 842.991C800.871 845.873 791.851 850.747 783.63 851.66C776.484 852.453 754.102 843.264 746.325 840.776Q737.238 837.952 728.049 835.479Q729.263 835.106 730.468 834.707C733.845 833.596 738.483 832.26 740.001 828.722C741.323 825.643 739.418 820.181 738.227 817.202C735.453 810.26 731.197 803.578 727.572 797.045C718.675 781.01 709.072 765.268 700.916 748.842Q713.626 736.334 725.89 723.388C730.491 718.593 735.134 712.935 740.301 708.773C743.224 706.42 806.176 677.757 811.756 676.127Z"/>
	<path fill="#F98A3B" d="M538.515 542.049C540.41 538.393 542.281 535.501 546.44 534.202C553.462 532.008 563.994 534.189 570.317 537.752C576.134 541.029 580.041 546.144 584.966 550.483C593.773 558.241 604.445 556.728 615.18 555.86C619.316 555.526 623.801 555.448 627.864 554.613C634.333 554.546 638.634 554.78 644.259 550.992C648.668 557.12 652.17 564.067 655.902 570.629C664.078 585.005 671.88 599.548 679.858 614.028C686.891 626.791 695.843 639.124 701.237 652.699C692.572 658.472 681.97 661.997 672.56 666.483L600.801 700.41C597.201 694.368 592.534 688.149 590.352 681.46C591.39 680.228 592.414 678.986 593.466 677.767C595.472 675.439 598.154 670.713 597.475 667.502C597.22 666.299 596.448 665.526 595.379 664.998C587.227 660.977 577.021 669.879 569.082 666.255C565.362 664.557 562.238 660.63 559.156 657.96C557.149 656.221 554.924 654.757 552.725 653.276L553.186 652.687C555.431 649.852 562.644 644.342 562.365 640.902C562.254 639.527 561.63 638.247 560.528 637.392C558.72 635.99 556.063 636.175 553.968 636.657C544.048 638.939 535.369 647.954 524.822 641.821C517.398 637.503 515.052 631.349 505.885 628.769C518.012 622.382 531.081 617.334 543.619 611.759C541.348 610.338 539.417 608.921 537.44 607.092C537.009 597.66 539.185 587.471 540.434 578.099C536.011 574.834 530.705 573.45 526.331 570.37C525.697 569.923 525.024 569.605 524.956 568.766C524.583 564.209 535.374 546.19 538.515 542.049Z"/>
	<path fill="#6835E5" d="M538.515 542.049C538.639 542.361 538.755 542.677 538.888 542.985C542.214 550.689 553.848 550.65 550.02 561.453C548.683 565.223 547.01 568.804 546.096 572.72L546.405 573.38C547.719 576.138 549.004 578.329 552.015 579.442C558.646 581.891 568.735 574.492 572.666 579.169C572.937 580.519 573.051 581.101 572.245 582.288C570.124 585.411 565.49 586.527 563.006 589.278C561.699 590.725 560.675 592.947 559.748 594.657C555.687 602.15 552.258 608.752 543.619 611.759C541.348 610.338 539.417 608.921 537.44 607.092C537.009 597.66 539.185 587.471 540.434 578.099C536.011 574.834 530.705 573.45 526.331 570.37C525.697 569.923 525.024 569.605 524.956 568.766C524.583 564.209 535.374 546.19 538.515 542.049Z"/>
	<path fill="#F98A3B" d="M554.29 741.105C559.759 736.722 564.354 732.383 567.65 726.111Q570.491 720.594 572.103 714.601C573.814 708.3 574.307 698.953 578.67 693.953C580.082 692.334 582.043 691.66 584.077 691.219C586.433 691.873 587.419 694.081 588.576 696.12L651.498 807.289L590.63 836.604C578.833 842.224 566.033 847.416 554.819 854.108C553.376 854.97 552.461 855.647 551.568 857.078C551.192 858.468 551.591 859.371 552.107 860.655C554.08 865.562 557.125 870.263 559.606 874.951C565.949 886.931 572.733 899.221 578.261 911.562C566.134 908.287 554.051 904.965 541.573 903.323C540.07 899.942 538.843 896.23 535.147 894.692C532.499 893.59 529.428 894.377 526.924 895.494C523.701 896.932 519.681 900.298 516.107 899.255C515.051 898.348 514.696 898.182 514.586 896.698C514.091 890.02 526.492 879.021 521.408 872.993C519.557 872.063 517.834 872.011 515.87 872.636C513.967 873.242 512.102 874.087 510.259 874.857C503.515 871.993 497.643 865.782 491.451 861.727C493.737 854.203 496.252 847.01 499.482 839.823C493.687 832.591 484.246 825.942 476.555 820.767C485.687 816.706 497.553 813.077 507.323 810.936C508.08 806.474 508.595 801.963 509.211 797.48C510.174 790.482 510.993 776.458 516.928 771.96C519.606 768.963 523.522 766.358 526.675 763.788C535.845 756.312 545.683 749.202 554.29 741.105Z"/>
	<path fill="#6835E5" d="M516.928 771.96C523.864 773.161 530.697 773.485 537.623 771.951C542.788 770.807 548.88 767.855 554.179 768.44C559.713 769.051 562.492 776.178 567.9 775.845C571.278 775.636 574.569 772.811 577.303 771.04C580.159 769.191 584.302 766.862 587.084 770.194C587.992 771.281 588.103 772.322 587.896 773.679C587.238 777.973 582.552 782.763 579.035 784.97C571.878 789.462 563.451 781.917 555.842 785.755C540.231 793.629 540.569 820.084 514.359 813.587C511.974 812.996 509.556 811.949 507.323 810.936C508.08 806.474 508.595 801.963 509.211 797.48C510.174 790.482 510.993 776.458 516.928 771.96Z"/>
	<path fill="#EADD98" d="M720.845 671.85C724.862 669.403 792.349 636.416 795.768 635.927C796.654 640.162 802.013 645.204 802.271 648.57C803.819 655.614 806.056 662.635 808.026 669.578C797.543 673.452 787.386 678.496 777.219 683.136C763.771 689.274 750.203 695.252 736.648 701.146C730.965 691.643 726.01 681.642 720.845 671.85Z"/>
	<path fill="#F98A3B" d="M662.38 440.598C664.691 441.814 666.815 443.006 668.884 444.626C666.192 448.946 638.596 476.115 635.34 477.267C633.913 477.772 632.306 477.042 631.139 476.244C629.944 475.426 628.876 474.213 627.992 473.071L627.958 470.248C633.041 465.013 639.323 462 644.924 457.49C651.136 452.49 656.736 446.232 662.38 440.598Z"/>
	<path fill="#F98A3B" d="M633.696 406.012C634.064 405.564 634.523 404.933 635.015 404.594C638.699 402.057 645.346 403.672 649.488 404.385C653.447 408.015 658.206 410.597 662.137 414.174C658.92 416.843 655.192 420.387 650.693 420.132C645.425 419.833 639.941 413.916 636.718 410.147C635.607 408.848 634.659 407.421 633.696 406.012Z"/>
	<path fill="#EADD98" d="M710.345 443.867C714.014 446.937 766.898 545.132 771.056 555.894C763.8 555.322 756.418 554.591 749.14 555.076C741.417 555.591 733.566 557.373 725.998 558.958C710.707 562.163 695.543 566.073 680.375 569.811C675.913 571.042 671.296 571.907 666.776 572.918C661.145 564.048 655.309 554.684 650.867 545.159C655.697 544.086 671.274 541.848 674.543 539.086C679.827 534.62 666.178 520.721 667.584 513.928C668.73 508.393 686.467 502.751 691.593 499.192C693.65 497.764 696.15 495.596 696.374 492.895C697.034 484.944 679.813 469.233 674.581 463.147C680.877 459.513 687.637 456.632 694.049 453.189C699.566 450.227 704.726 446.637 710.345 443.867Z"/>
	<path fill="#EADD98" d="M654.752 813.884C657.743 814.794 671.09 842.041 673.946 846.761C671.998 854.89 669.139 863.03 666.824 871.083Q661.138 891.166 655.701 911.317C634.734 905.876 611.847 916.468 590.607 918.234L587.962 912.284C579.525 894.66 568.425 878.274 560.974 860.14C576.963 850.913 594.185 843.668 610.854 835.768C625.614 828.773 640.103 821.123 654.752 813.884Z"/>
	<path fill="#EADD98" d="M704.279 659.975L705.183 660.27C708.916 665.202 711.662 671.775 714.563 677.275C719.886 687.366 725.399 697.412 730.449 707.641C726.389 712.656 720.991 717.049 716.449 721.681C711.936 726.283 698.884 741.799 694.482 744.251C688.446 747.613 678.013 749.801 671.203 751.9Q653.866 757.356 636.63 763.126L634.146 758.685C624.795 741.199 613.938 724.416 604.104 707.172C618.003 700.081 632.399 693.903 646.567 687.363C656.299 682.871 665.831 678.001 675.504 673.39C685.058 668.836 694.746 664.584 704.279 659.975Z"/>
	<path fill="#EADD98" d="M741.17 563.592C741.741 563.563 742.724 563.372 743.252 563.486C744.754 563.811 748.535 570.511 749.816 572.105C758.039 582.338 773.347 593.928 784.286 601.485C784.894 611.633 791.574 618.036 796.235 626.418L796.537 626.972C772.431 637.838 748.774 649.879 724.788 661.035L716.488 664.428L683.527 603.518C679.305 595.728 673.736 588.266 670.56 579.982C679.091 576.813 688.886 575.487 697.811 573.514L741.17 563.592Z"/>
	<path fill="#EADD98" d="M712.261 839.566C718.955 838.439 749.642 850.128 757.939 853.06C757.949 855.371 757.928 857.653 758.783 859.837C760.849 865.118 764.67 869.753 767.881 874.39C772.793 881.483 778.027 888.904 781.867 896.624C760.042 899.418 738.007 900.319 716.117 902.435C714.499 902.569 712.577 902.815 711.044 903.37C706.141 905.145 705.011 911.85 703.101 916.168C702.069 916.896 700.943 917.609 699.783 918.113C688.389 923.059 674.45 915.173 663.693 911.265C670.939 890.282 675.965 868.292 682.026 846.924C691.734 843.642 702.261 841.82 712.261 839.566Z"/>
	<path fill="#EADD98" d="M692.152 753.038L692.949 753.031C694.14 753.613 694.712 754.324 695.443 755.385C698.725 760.153 701.251 765.932 704.135 770.985Q712.437 785.543 720.469 800.252C724.961 808.332 729.884 816.407 733.109 825.093C716.962 831.07 696.722 835.047 679.747 838.918C679.652 838.911 679.55 838.931 679.461 838.895C679.274 838.82 679.112 838.696 678.94 838.593C677.512 837.74 671.464 824.963 670.247 822.729C660.53 804.894 649.658 787.646 639.372 770.137C645.48 767.656 652.056 765.812 658.321 763.75C669.544 760.057 680.8 756.314 692.152 753.038Z"/>
	<path fill="#EADD98" d="M850.581 838.49C853.137 838.582 855.065 839.933 856.835 841.694C858.664 843.514 860.018 845.901 859.872 848.549C859.606 853.363 846.277 869.172 841.716 871.412C836.632 873.909 830.223 872.349 825.873 876.403C821.703 880.289 822.319 884.534 822.253 889.763C821.377 890.839 820.477 891.891 819.444 892.821C813.352 898.303 798.779 896.29 790.951 896.012C788.245 892.098 785.862 887.907 783.373 883.85C777.423 874.588 769.633 865.661 765.538 855.412C771.427 856.485 777.05 859.112 782.842 860.688C794.533 858.236 809.282 850.905 821.047 846.854C830.731 843.52 840.857 841.751 850.581 838.49Z"/>
	<path fill="#EADD98" d="M545.508 911.838C551.163 912.038 578.15 918.285 582.706 920.758L582.765 921.689C579.01 925.179 553.674 933.899 547.188 936.492Q533.176 942.04 519.234 947.762C523.296 941.151 528.316 935.058 532.979 928.871C537.223 923.24 541.186 917.412 545.508 911.838Z"/>
	<path fill="#EADD98" d="M658.964 467.383L659.675 467.607C661.46 472.034 659.121 483.86 657.237 488.302C652.093 491.53 645.817 494.021 640.119 496.09Q637.995 493.74 635.815 491.442C633.691 490.423 631.384 489.685 629.176 488.861C638.183 481.102 648.752 473.41 658.964 467.383Z"/>
</svg>
