<?xml version="1.0" encoding="utf-8" ?>
<svg xmlns="http://www.w3.org/2000/svg" xmlns:xlink="http://www.w3.org/1999/xlink" width="1024" height="1024">
	<path fill="#010003" d="M0 0L444.502 0L1024 0L1024 871.654L1024 878.61L1024 1024L407.521 1024L398.07 1024L342.513 1024L337.506 1024L302.176 1024L289.157 1024L152.642 1024L140.089 1024L49.0046 1024L36.0232 1024L0 1024L0 1006.62L0 1000.39L0 955.399L0 948.745L0 927.329L0 921.801L0 746.708L0 740.302L0 0Z"/>
	<path fill="#D3CAFA" d="M0 0L444.502 0L444.569 33.1117C444.583 37.8364 443.874 44.2129 444.946 48.754L444.474 53.1747C445.591 77.3492 444.839 101.851 444.799 126.063L444.859 252.049Q444.979 272.402 444.856 292.754C444.781 298.524 443.659 305.428 444.415 311.077C443.725 314.476 441.348 315.97 438.404 317.725C437.784 318.095 437.216 318.299 436.538 318.538L435.725 318.202C434.747 312.866 441.874 304.268 438.215 299.724C437.055 299.542 436.759 299.37 435.741 300.074C424.919 307.55 425.183 329.864 419.517 338.462C414.646 345.854 387.569 361.04 378.761 364.708C364.148 356.344 353.835 344.607 342.062 332.911C338.237 329.11 333.873 325.565 330.441 321.425C334.887 316.796 337.345 312.569 339.342 306.478C344.008 304.429 353.689 301.539 355.688 296.517C357.378 292.275 355.567 282.75 355.423 277.876C357.215 276.886 359.223 276.086 360.312 274.285C360.509 272.807 360.46 271.835 359.469 270.636C357.391 268.121 354.047 266.029 351.571 263.832C351.05 251.222 350.152 237.791 340.429 228.526C334.914 223.27 326.086 217.612 318.271 217.826C314.829 217.92 311.674 219.921 308.286 220.26C304.641 220.625 300.939 220.497 297.283 220.912C287.508 222.022 277.852 226.561 271.292 233.977C262.871 243.495 254.147 266.753 254.979 279.505Q255.031 280.293 255.121 281.077Q255.211 281.862 255.339 282.641Q255.467 283.42 255.633 284.192Q255.799 284.964 256.003 285.727Q256.206 286.49 256.447 287.242Q256.688 287.994 256.965 288.733Q257.242 289.473 257.555 290.197Q257.868 290.922 258.216 291.631Q258.563 292.34 258.946 293.031Q259.328 293.722 259.743 294.393Q260.159 295.065 260.606 295.715Q261.054 296.366 261.533 296.993Q262.012 297.621 262.521 298.225Q263.03 298.828 263.568 299.406Q264.106 299.984 264.672 300.535Q265.237 301.086 265.829 301.609C270.997 306.091 277.132 308.121 283.602 309.949C280.046 316.127 275.551 321.688 272.086 327.925C261.158 347.593 255.939 371.486 255.826 393.939C255.791 400.929 256.934 408.237 256.317 415.159C255.877 420.099 254.27 425.12 252.862 429.868C247.882 446.671 241.444 463.004 235.128 479.338C232.965 484.931 229.88 491.127 228.134 496.755C227.66 498.285 227.333 500.484 227.94 502.025C228.341 503.044 229.289 503.719 230.072 504.429C230.325 504.659 230.571 504.897 230.823 505.129C228.76 520.776 228.208 536.703 230.344 552.381C236 593.909 251.626 620.586 247.818 665.162Q207.338 672.912 167.448 683.282Q127.559 693.653 88.43 706.6C58.6061 716.37 28.5579 727.242 0 740.302L0 0Z"/>
	<path fill="#9F8BE8" d="M444.502 0L1024 0L1024 871.654C1011.82 859.887 996.981 849.922 983.194 840.105Q932.26 804.217 878.359 772.962C867.151 766.427 855.707 760.286 844.43 753.866C844.027 740.478 844.445 726.959 844.468 713.559L844.709 627.892L844.795 263.504L844.653 105.642C844.609 85.5494 845.431 65.3741 845.011 45.2965C844.957 42.718 844.998 39.4714 843.657 37.229C838.058 36.5939 773.257 53.0227 762.781 55.5544L672.592 76.9428C645.275 83.6083 617.984 90.8631 590.537 96.9345C584.778 95.1248 579.089 92.5836 573.455 90.3968L540.954 77.8329C515.748 68.0757 489.985 58.9849 465.569 47.371C458.762 48.2728 451.797 48.2303 444.946 48.754C443.874 44.2129 444.583 37.8364 444.569 33.1117L444.502 0Z"/>
	<path fill="#9F8BE8" d="M838.503 756.981C845.935 762.774 855.16 767.098 863.367 771.735Q883.67 783.254 903.73 795.191Q935.066 814.155 965.163 835.03Q995.259 855.905 1024 878.61L1024 1024L407.521 1024C424.95 1010.59 443.251 998.176 460.903 985.042C468.496 979.391 475.795 973.335 483.281 967.538C504.787 950.882 526.351 933.88 546.845 915.991C575.401 891.065 603.203 863.946 629.576 836.703C645.993 819.745 661.839 802.288 678.413 785.452C692.706 781.979 707.802 780.236 722.305 777.633Q780.47 767.679 838.503 756.981Z"/>
	<path fill="#9F8BE8" d="M0 746.708Q14.8711 740.309 29.9131 734.324Q44.9552 728.338 60.1568 722.77Q75.3584 717.202 90.7079 712.055Q106.057 706.909 121.543 702.189Q137.029 697.468 152.639 693.177Q168.249 688.886 183.972 685.027Q199.695 681.169 215.518 677.746Q231.341 674.323 247.253 671.338C245.228 695.767 241.605 720.132 238.347 744.425C236.912 755.122 236.473 766.188 234.212 776.718Q214.615 782.378 194.89 787.577C185.191 790.125 173.026 792.414 164.12 796.658C163.694 812.297 164.253 827.951 163.754 843.588Q130.275 850.612 96.6752 857.034C83.2091 859.617 69.4345 861.595 56.1783 865.117L56.0461 908.594C37.4579 913.223 18.8319 918.282 0 921.801L0 746.708Z"/>
	<path fill="#D3CAFA" d="M0 927.329C19.5164 923.034 38.8983 917.959 58.4648 913.95C72.3947 919.377 85.7125 926.388 99.26 932.69Q142.092 952.556 184.57 973.168L250.328 1004.94C263.224 1011.14 276.68 1017.01 289.157 1024L152.642 1024L140.089 1024L49.0046 1024L36.0232 1024L0 1024L0 1006.62L0 1000.39L0 955.399L0 948.745L0 927.329Z"/>
	<path fill="#9F8BE8" d="M0 955.399C27.8811 967.603 55.0673 981.974 82.4552 995.273L121.372 1014.31C127.556 1017.39 134.252 1020.32 140.089 1024L49.0046 1024L36.0232 1024L0 1024L0 1006.62L0 1000.39L0 955.399Z"/>
	<path fill="#D3CAFA" d="M0 1006.62C12.085 1011.99 24.3493 1017.77 36.0232 1024L0 1024L0 1006.62Z"/>
	<path fill="#010003" d="M0 1000.39C10.7249 1005.22 21.2214 1010.48 31.7971 1015.62C37.488 1018.39 43.5021 1020.91 49.0046 1024L36.0232 1024C24.3493 1017.77 12.085 1011.99 0 1006.62L0 1000.39Z"/>
	<path fill="#010003" d="M0 948.745L110.807 1003.16Q123.117 1009.24 135.534 1015.1C141.224 1017.82 147.408 1020.47 152.642 1024L140.089 1024C134.252 1020.32 127.556 1017.39 121.372 1014.31L82.4552 995.273C55.0673 981.974 27.8811 967.603 0 955.399L0 948.745Z"/>
	<path fill="#9F8BE8" d="M61.0923 871.134C81.9251 878.809 101.983 888.925 122.35 897.78C194.863 929.306 265.673 964.402 337.414 997.582Q337.539 1010.79 337.506 1024L302.176 1024C289.178 1016.81 275.123 1010.85 261.747 1004.35Q218.487 983.066 174.889 962.48Q132.843 942.106 90.5141 922.325C80.8739 917.885 71.3326 912.839 61.497 908.881Q61.4194 890.006 61.0923 871.134Z"/>
	<path fill="#1D054B" d="M444.474 53.1747C451.005 54.3053 458.369 52.7089 465.081 52.9177C465.016 63.6014 465.643 74.1959 465.741 84.861L465.727 157.481L465.071 300C465.053 322.469 464.299 344.916 464.537 367.405C464.632 376.385 465.04 385.357 465.116 394.337C465.188 402.951 464.932 411.646 465.27 420.248C465.491 425.86 466.558 431.437 466.637 437.049C466.737 444.187 465.546 451.305 465.642 458.468C460.195 456.997 448.745 455.36 444.574 452.664C445.826 429.763 444.73 406.401 444.805 383.449L445.004 351.329C445.024 345.607 445.35 339.671 444.758 333.987L444.957 333.46C445.299 333.226 445.49 333.121 445.784 332.787C448.418 329.785 448.307 320.467 448.46 316.604L444.877 310.797L444.415 311.077C443.659 305.428 444.781 298.524 444.856 292.754Q444.979 272.402 444.859 252.049L444.799 126.063C444.839 101.851 445.591 77.3492 444.474 53.1747Z"/>
	<path fill="#D3CAFA" d="M444.758 333.987C445.35 339.671 445.024 345.607 445.004 351.329L444.805 383.449C444.73 406.401 445.826 429.763 444.574 452.664C442.397 451.751 440.032 451.192 437.822 450.322C434.15 448.876 430.66 447.004 426.994 445.555C423.027 443.988 418.923 442.839 414.986 441.166C393.199 431.906 383.802 419.787 372.695 399.749Q375.063 398.959 377.408 398.105C388.937 393.873 399.313 387.196 407.254 377.76C410.887 373.442 414.226 368.699 418.183 364.68C423.859 358.917 435.231 350.54 439.229 344.932C441.534 341.698 443.093 337.594 444.758 333.987Z"/>
	<path fill="#9F8BE8" d="M342.504 997.992L455.828 981.758C444.03 991.104 431.64 999.842 419.344 1008.52C412.23 1013.54 404.71 1018.36 398.07 1024L342.513 1024L342.504 997.992Z"/>
	<path fill="#D3CAFA" d="M600.542 101.135C612.796 96.6652 625.778 94.0375 638.449 91.0145L692.859 78.1114C741.702 66.535 790.377 53.8308 839.502 43.5123Q838.694 144.123 839.152 244.736L839.006 542.432L838.903 681.165L838.831 723.538C838.816 732.66 839.093 741.918 838.402 751.018C834.095 749.327 829.708 746.786 825.357 745.42C820.088 744.827 808.74 739.604 804.375 736.502C799.58 733.927 794.203 731.923 789.203 729.743L757.876 716.199C730.902 704.568 703.966 692.438 676.668 681.601C672.703 681.806 667.869 681.019 663.983 680.235C662.439 679.923 660.531 679.067 658.994 679.102C658.369 679.116 657.989 678.978 657.404 678.77C652.363 678.093 643.206 680.493 637.94 681.309L594.031 688.218L468.231 707.265L468.223 643.317Q468.383 611.097 467.979 578.879C468.455 574.54 468.087 569.821 468.082 565.44L468.042 537.715L467.967 502.45C467.948 497.1 468.544 490.82 467.571 485.621C467.618 483.839 467.619 482.214 468.162 480.505C470.037 484.522 472.044 488.558 473.631 492.698C474.686 495.451 475.325 498.889 476.683 501.455C477.181 502.395 477.975 502.878 479.061 502.871C480.16 502.864 480.999 502.482 481.512 501.515C485.224 494.511 485.687 484.068 483.704 476.52C481.521 468.213 475.124 463.619 468.223 459.41C467.472 445.465 467.921 431.248 467.839 417.26L467.886 319.797L467.934 55.4198L584.986 100.683C608.943 110.037 632.67 120.294 656.915 128.865C657.915 128.424 658.602 127.845 659.45 127.173C654.196 119.801 626.931 115.349 619.925 108.367C613.289 106.376 607.159 103.123 600.542 101.135Z"/>
	<path fill="#D3CAFA" d="M467.934 55.4198L584.986 100.683C608.943 110.037 632.67 120.294 656.915 128.865C657.073 129.154 657.3 129.416 657.388 129.733C658.081 132.22 657.171 153.866 657.13 158.689Q656.862 196.457 656.985 234.227L657.404 678.77C652.363 678.093 643.206 680.493 637.94 681.309L594.031 688.218L468.231 707.265L468.223 643.317Q468.383 611.097 467.979 578.879C468.455 574.54 468.087 569.821 468.082 565.44L468.042 537.715L467.967 502.45C467.948 497.1 468.544 490.82 467.571 485.621C467.618 483.839 467.619 482.214 468.162 480.505C470.037 484.522 472.044 488.558 473.631 492.698C474.686 495.451 475.325 498.889 476.683 501.455C477.181 502.395 477.975 502.878 479.061 502.871C480.16 502.864 480.999 502.482 481.512 501.515C485.224 494.511 485.687 484.068 483.704 476.52C481.521 468.213 475.124 463.619 468.223 459.41C467.472 445.465 467.921 431.248 467.839 417.26L467.886 319.797L467.934 55.4198Z"/>
	<path fill="#D3CAFA" d="M558.893 470.055Q535.403 469.492 511.946 468.136C506.624 467.832 500.361 468.096 495.21 466.796C493.585 463.97 494.534 426.495 494.549 420.097L494.485 288.705L494.463 248.986C494.462 241.774 494.011 234.279 494.711 227.122C495.453 226.029 495.583 225.747 496.762 225.198Q515.263 231.029 533.703 237.05C542.111 239.758 550.736 242.18 558.916 245.5L559.06 393.438L559.067 445.511C559.049 453.495 559.713 462.141 558.893 470.055Z"/>
	<path fill="#1D054B" d="M498.427 229.856C507.057 232.952 516.25 235.042 525.04 237.788C534.762 240.825 544.338 244.575 554.107 247.398C555.432 247.78 556.884 248.395 558.2 247.953L558.916 245.5L559.06 393.438L559.067 445.511C559.049 453.495 559.713 462.141 558.893 470.055C558.665 469.028 558.611 467.147 557.392 466.786C554.145 465.825 548.284 466.322 544.82 466.21C534.059 465.863 523.42 465.261 512.688 464.483C509.745 464.27 506.67 464.51 503.767 464.087C502.49 463.901 501.66 463.456 500.647 462.686C500.227 461.961 499.876 461.371 499.818 460.514C499.735 459.268 499.625 459.133 500.475 458.17C504.637 457.397 509.072 457.981 513.291 457.979C524.857 457.975 536.586 457.7 548.125 458.477L548.153 456.851L546.495 455.504L546.429 325.257L546.199 282.176C546.14 273.883 545.813 265.487 546.213 257.206C546.417 258.605 546.575 259.997 546.944 261.362L547.258 260.821L547.472 261.226C548.849 259.936 548.654 254.285 548.754 252.346C538.869 249.972 529.119 247.043 519.36 244.202C512.583 242.228 505.708 240.485 499.087 238.025C498.537 235.323 498.519 232.604 498.427 229.856Z"/>
	<path fill="#010003" d="M558.893 470.055Q535.403 469.492 511.946 468.136C506.624 467.832 500.361 468.096 495.21 466.796C493.585 463.97 494.534 426.495 494.549 420.097L494.485 288.705L494.463 248.986C494.462 241.774 494.011 234.279 494.711 227.122C495.453 226.029 495.583 225.747 496.762 225.198Q515.263 231.029 533.703 237.05C542.111 239.758 550.736 242.18 558.916 245.5L558.2 247.953C556.884 248.395 555.432 247.78 554.107 247.398C544.338 244.575 534.762 240.825 525.04 237.788C516.25 235.042 507.057 232.952 498.427 229.856C498.519 232.604 498.537 235.323 499.087 238.025C505.708 240.485 512.583 242.228 519.36 244.202C529.119 247.043 538.869 249.972 548.754 252.346C548.654 254.285 548.849 259.936 547.472 261.226L547.258 260.821L546.944 261.362C546.575 259.997 546.417 258.605 546.213 257.206C545.824 255.965 545.912 255.742 544.675 255.162C540.879 253.381 535.939 252.471 531.888 251.27C521.236 248.111 510.393 245.183 499.93 241.444L499.915 455.108C515.385 455.866 531.006 455.529 546.495 455.504L548.153 456.851L548.125 458.477C536.586 457.7 524.857 457.975 513.291 457.979C509.072 457.981 504.637 457.397 500.475 458.17C499.625 459.133 499.735 459.268 499.818 460.514C499.876 461.371 500.227 461.961 500.647 462.686C501.66 463.456 502.49 463.901 503.767 464.087C506.67 464.51 509.745 464.27 512.688 464.483C523.42 465.261 534.059 465.863 544.82 466.21C548.284 466.322 554.145 465.825 557.392 466.786C558.611 467.147 558.665 469.028 558.893 470.055Z"/>
	<defs>
		<linearGradient id="gradient_0" gradientUnits="userSpaceOnUse" x1="567.78198" y1="364.46637" x2="641.49231" y2="360.27399">
			<stop offset="0" stop-color="#06002B"/>
			<stop offset="1" stop-color="#1B024B"/>
		</linearGradient>
	</defs>
	<path fill="url(#gradient_0)" d="M572.936 253.337C572.971 251.75 572.83 251.014 573.663 249.635C577.432 248.928 631.933 265.481 636.55 268.507C637.055 268.838 637.133 268.929 637.635 269.344C638.994 280.355 638 298.378 637.989 310.175L637.908 393.634L637.95 447.458C637.954 454.372 638.933 464.56 637.548 471.048C637.483 471.115 637.423 471.187 637.354 471.249C634.657 473.686 580.803 470.647 573.49 470.084L572.556 468.981C573.09 462.268 572.695 455.359 572.657 448.615L572.524 413.378L572.533 301.335C572.53 285.938 571.536 268.42 572.936 253.337Z"/>
	<path fill="#D3CAFA" d="M578.535 264.598Q592.021 269.61 605.825 273.663C612.284 275.591 619.407 277.131 625.542 279.892L625.592 291.676C625.586 293.333 625.481 295.053 625.599 296.703L625.504 458.61C620.331 458.556 614.811 458.147 609.672 458.541C599.152 457.91 588.578 457.857 578.042 457.632L578.109 330.121L578.169 288.12C578.205 280.323 577.988 272.375 578.535 264.598Z"/>
	<path fill="#16002E" d="M625.592 291.676L626.069 290.916C626.503 290.213 626.731 289.667 626.878 288.845L627.481 292.292C627.664 295.613 627.553 298.926 627.474 302.249Q627.545 316.117 627.429 329.984C627.419 334.208 627.831 338.768 627.42 342.953C627.657 366.8 627.935 390.844 627.435 414.682C627.437 423.868 627.155 433.069 627.26 442.252C627.328 448.271 628.298 454.967 627.221 460.901L626.782 460.267L627.065 461.34C624.379 462.656 613.473 462.466 610.691 461.466C610.419 461.368 610.174 461.209 609.916 461.08C612.809 460.171 616.077 460.178 618.882 461.363C620.598 462.088 622.151 461.788 623.844 461.183L624.571 460.252L624.331 459.855C621.347 459.769 611.461 460.4 609.672 458.541C614.811 458.147 620.331 458.556 625.504 458.61L625.599 296.703C625.481 295.053 625.586 293.333 625.592 291.676Z"/>
	<path fill="#060018" d="M626.229 375.26Q626.08 358.65 626.33 342.04C626.906 344.011 626.764 346.45 626.861 348.506C626.917 346.603 627.064 344.823 627.42 342.953C627.657 366.8 627.935 390.844 627.435 414.682C626.944 416.153 626.627 417.714 626.255 419.222C625.979 404.583 626.215 389.903 626.229 375.26Z"/>
	<path fill="#060018" d="M625.592 291.676L626.069 290.916C626.503 290.213 626.731 289.667 626.878 288.845L627.481 292.292C627.664 295.613 627.553 298.926 627.474 302.249C627.14 303.498 627.211 305.097 626.77 306.248C626.251 307.601 626.301 306.523 626.361 307.677C626.218 304.456 626.57 300.775 625.839 297.654C625.765 297.335 625.679 297.02 625.599 296.703C625.481 295.053 625.586 293.333 625.592 291.676Z"/>
	<path fill="#010003" d="M572.936 253.337C572.971 251.75 572.83 251.014 573.663 249.635C577.432 248.928 631.933 265.481 636.55 268.507C637.055 268.838 637.133 268.929 637.635 269.344C636.811 277.605 637.351 286.389 637.269 294.715L637.155 294.444L637.023 294.979C635.925 289.938 636.714 278.372 636.671 272.693L635.278 273.333L636.448 274.144C636.181 276.403 635.536 278.627 635.388 280.893C635.231 283.279 635.805 286.107 635.203 288.382C634.667 283.194 634.706 278.048 634.441 272.851C633.162 270.903 630.282 269.9 628.169 269.078C620.843 266.228 612.845 264.352 605.315 262.026C595.648 259.038 585.833 255.38 575.949 253.289C575.774 255.356 575.501 257.429 575.713 259.499L573.907 260.85C573.022 258.474 573.081 255.848 572.936 253.337Z"/>
	<defs>
		<linearGradient id="gradient_1" gradientUnits="userSpaceOnUse" x1="603.67889" y1="475.14655" x2="601.82111" y2="463.35345">
			<stop offset="0" stop-color="#080009"/>
			<stop offset="1" stop-color="#130023"/>
		</linearGradient>
	</defs>
	<path fill="url(#gradient_1)" d="M634.145 469.798L634.019 450.926C635.445 456.815 633.917 463.567 635.342 469.377L636.998 469.306L635.397 469.545L635.479 469.774L636.698 468.81L636.651 469.045C637.039 462.97 637.525 450.805 636.7 445.006L637.089 444.15C638.53 452.809 636.683 462.253 637.548 471.048C637.483 471.115 637.423 471.187 637.354 471.249C634.657 473.686 580.803 470.647 573.49 470.084L572.556 468.981C573.72 468.25 575.145 467.263 576.499 466.96C580.918 465.971 587.293 467.211 591.895 467.482C600.319 467.977 608.77 467.926 617.195 468.426C622.83 468.76 628.508 469.757 634.145 469.798Z"/>
	<defs>
		<linearGradient id="gradient_2" gradientUnits="userSpaceOnUse" x1="602.38531" y1="268.01358" x2="599.15546" y2="278.84955">
			<stop offset="0" stop-color="black"/>
			<stop offset="1" stop-color="#090014"/>
		</linearGradient>
	</defs>
	<path fill="url(#gradient_2)" d="M575.713 259.499C581.378 261.973 587.143 264.091 592.994 266.081C598.19 267.848 625.041 275.065 627.261 277.167C628.309 281.907 627.642 287.435 627.481 292.292L626.878 288.845C626.731 289.667 626.503 290.213 626.069 290.916L625.592 291.676L625.542 279.892C619.407 277.131 612.284 275.591 605.825 273.663Q592.021 269.61 578.535 264.598C576.568 263.897 575.164 262.457 573.907 260.85L575.713 259.499Z"/>
	<defs>
		<linearGradient id="gradient_3" gradientUnits="userSpaceOnUse" x1="490.98813" y1="582.31714" x2="562.71045" y2="577.92529">
			<stop offset="0" stop-color="#000009"/>
			<stop offset="1" stop-color="#1F0446"/>
		</linearGradient>
	</defs>
	<path fill="url(#gradient_3)" d="M494.412 499.803C502.391 498.742 511.242 499.409 519.291 499.428C532.509 499.46 545.876 499.134 559.067 500.012L559.283 555.206L559.144 621.254C559.097 630.977 559.84 642.665 558.929 652.171C559.026 653.838 559.419 656.166 558.481 657.597C551.091 659.712 542.381 660.024 534.733 660.877Q514.872 663.231 494.956 665.064L494.479 553.996C494.37 536.04 493.396 517.711 494.412 499.803Z"/>
	<path fill="#1D054B" d="M549.412 647.44Q550.209 591.862 548.668 536.3C548.51 531.797 548.233 527.256 548.307 522.751C548.354 519.885 548.846 516.832 548.648 513.986C548.557 512.679 548.005 511.383 547.506 510.186C547.413 509.963 547.314 509.743 547.217 509.521C548.39 508.241 549.434 508.167 551.075 507.672C551.902 507.868 552.126 507.812 552.768 508.441C559.13 514.675 555.339 556.289 555.826 566.28C556.061 571.109 557.431 575.82 557.981 580.615C558.547 585.546 558.3 590.628 558.328 595.587C559.722 592.173 557.546 562.593 559.283 555.206L559.144 621.254C559.097 630.977 559.84 642.665 558.929 652.171C558.573 653.24 558.651 652.794 558.555 653.782C558.363 655.76 558.302 655.96 556.895 657.401L554.734 657.329L555.037 657.493L554.407 657.096C555.643 656.927 555.916 657.19 556.714 656.161L556.195 655.067C555.6 654.899 555.201 654.757 554.681 654.403C554.541 654.309 554.409 654.205 554.273 654.105C553.385 654.995 553.227 655.14 551.939 655.361C545.627 656.444 538.736 656.249 532.301 656.988C522.58 658.104 512.8 660.186 503.052 660.836C501.452 660.943 500.31 661.075 498.964 660.177C498.219 658.31 498.766 656.444 499.092 654.526L499.708 654.5C505.848 654.293 511.881 652.895 517.962 652.076C528.447 650.664 539.057 649.645 549.412 647.44Z"/>
	<path fill="#D3CAFA" d="M537.81 512.748L546.264 512.776Q546.573 579.024 545.943 645.27C533.619 646.768 521.322 648.551 508.986 649.932L499.827 651.121C500.297 605.176 500.239 559.054 499.691 513.105Q518.753 513.153 537.81 512.748Z"/>
	<path fill="#1D054B" d="M503.777 503.213C509.335 502.637 515.338 503.277 520.931 503.446C528.467 503.673 535.986 503.669 543.523 503.764C540.703 504.811 524.421 503.874 519.823 504.209L520.315 504.891L519.792 504.552C520.175 506.054 520.238 507.455 520.289 509C525.911 509 532.321 508.251 537.789 509.602Q525.306 509.855 512.822 509.697C508.484 509.669 503.855 509.952 499.566 509.307C498.886 509.205 498.961 509.298 498.524 508.426C497.938 507.257 498.034 505.127 498.529 503.976C499.872 502.963 502.13 503.234 503.777 503.213Z"/>
	<defs>
		<linearGradient id="gradient_4" gradientUnits="userSpaceOnUse" x1="558.90033" y1="566.96985" x2="649.98273" y2="587.28107">
			<stop offset="0" stop-color="#07012F"/>
			<stop offset="1" stop-color="#1F064C"/>
		</linearGradient>
	</defs>
	<path fill="url(#gradient_4)" d="M572.771 500.338Q594.812 500.803 616.842 501.641C623.372 501.903 630.634 501.628 637.034 502.868C638.158 504.363 638.07 507.311 638.124 509.159C638.848 534.097 638.055 559.259 638.089 584.226L638.142 612.502C638.147 616.774 638.541 621.548 638.007 625.77C638.534 633.232 638.147 640.913 638.346 648.417C616.628 652.309 594.444 654.06 572.531 656.622Q572.411 638.045 572.59 619.468L572.485 540.916C572.521 527.482 571.993 513.73 572.771 500.338Z"/>
	<defs>
		<linearGradient id="gradient_5" gradientUnits="userSpaceOnUse" x1="606.21808" y1="655.57056" x2="603.50812" y2="645.40222">
			<stop offset="0" stop-color="#080016"/>
			<stop offset="1" stop-color="#18002F"/>
		</linearGradient>
	</defs>
	<path fill="url(#gradient_5)" d="M572.59 619.468C573.339 629.376 573.726 642.912 573.118 652.8C585.042 652.633 596.946 650.175 608.782 648.787C616.925 647.832 626.161 647.936 634.018 645.581C634.71 644.202 634.422 643.184 634.324 641.662L634.817 641.739C634.929 642.974 634.71 644.704 635.666 645.507L637.169 645.344C638.574 639.243 635.484 631.591 638.007 625.77C638.534 633.232 638.147 640.913 638.346 648.417C616.628 652.309 594.444 654.06 572.531 656.622Q572.411 638.045 572.59 619.468Z"/>
	<path fill="#D3CAFA" d="M577.762 514.43L577.147 514.227L577.116 513.619C578.515 513.44 579.898 513.325 581.305 513.242C579.891 512.802 578.621 512.411 577.349 511.623C577.956 511.476 578.509 511.337 579.135 511.297C585.214 510.913 591.455 511.381 597.56 511.205C606.578 510.946 616.347 509.86 625.318 510.622C626.455 510.719 626.609 510.715 627.518 511.475C627.176 512.835 626.684 512.95 625.593 513.779C626.825 518.416 625.781 542.466 625.752 548.828Q625.432 593.143 625.703 637.458L578.05 642.092L578.078 558.251C578.056 543.747 578.71 528.887 577.762 514.43Z"/>
	<path fill="#060018" d="M577.762 514.43L577.147 514.227L577.116 513.619C578.515 513.44 579.898 513.325 581.305 513.242C579.891 512.802 578.621 512.411 577.349 511.623C577.956 511.476 578.509 511.337 579.135 511.297C585.214 510.913 591.455 511.381 597.56 511.205C606.578 510.946 616.347 509.86 625.318 510.622C626.455 510.719 626.609 510.715 627.518 511.475C627.176 512.835 626.684 512.95 625.593 513.779C617.445 514.439 582.061 513.061 577.762 514.43Z"/>
	<path fill="#D3CAFA" d="M494.49 193.517L494.49 128.888C494.485 118.411 493.867 107.534 494.615 97.1066C494.712 95.7532 494.814 95.5076 495.628 94.4735C496.11 94.3536 496.212 94.2967 496.781 94.3368C500.173 94.5761 550.638 114.703 556.257 117.407C557.546 118.028 558.356 118.536 559.286 119.618C558.683 128.04 559.06 136.696 559.054 145.142L559.001 190.274C558.98 197.899 559.755 206.65 558.616 214.166C554.282 213.385 550.096 211.793 545.929 210.392C528.71 205.009 511.712 198.915 494.49 193.517Z"/>
	<path fill="#1D054B" d="M546.742 128.422C546.935 128.355 547.148 128.329 547.321 128.221C548.389 127.557 548.578 127.132 548.75 125.995C546.084 119.439 506.931 113.547 499.885 104.766C498.955 103.607 498.903 103.039 499.009 101.595C499.611 100.74 499.685 100.659 500.689 100.183L500.273 100.569L500.995 101.36C501.29 101.063 501.465 100.526 501.88 100.47C503.805 100.209 546.245 118.39 552.801 119.884C554.822 120.345 557.245 119.865 559.286 119.618C558.683 128.04 559.06 136.696 559.054 145.142L559.001 190.274C558.98 197.899 559.755 206.65 558.616 214.166C554.282 213.385 550.096 211.793 545.929 210.392C546.758 210.045 546.406 210.159 547.225 209.941C547.833 209.779 548.433 209.61 549.035 209.428L549.099 207.918C548.365 206.774 548.047 205.419 547.653 204.126L546.364 203.514C545.35 195.869 546.159 185.33 546.14 177.41L546.098 147.067C546.097 141.124 545.488 134.211 546.742 128.422Z"/>
	<defs>
		<linearGradient id="gradient_6" gradientUnits="userSpaceOnUse" x1="551.22577" y1="212.34895" x2="554.8139" y2="208.18523">
			<stop offset="0" stop-color="#040013"/>
			<stop offset="1" stop-color="#0A0027"/>
		</linearGradient>
	</defs>
	<path fill="url(#gradient_6)" d="M549.099 207.918C551.968 208.204 553.386 209.029 555.982 207.328L557.579 208.679L557.968 208.502L557.96 199.031L556.931 198.35L558.42 198.415C558.337 198.134 558.416 197.729 558.167 197.574C558.225 203.016 557.946 208.782 558.616 214.166C554.282 213.385 550.096 211.793 545.929 210.392C546.758 210.045 546.406 210.159 547.225 209.941C547.833 209.779 548.433 209.61 549.035 209.428L549.099 207.918Z"/>
	<path fill="#060018" d="M494.49 193.517L494.49 128.888C494.485 118.411 493.867 107.534 494.615 97.1066C494.712 95.7532 494.814 95.5076 495.628 94.4735C496.11 94.3536 496.212 94.2967 496.781 94.3368C500.173 94.5761 550.638 114.703 556.257 117.407C557.546 118.028 558.356 118.536 559.286 119.618C557.245 119.865 554.822 120.345 552.801 119.884C546.245 118.39 503.805 100.209 501.88 100.47C501.465 100.526 501.29 101.063 500.995 101.36L500.273 100.569L500.689 100.183C499.685 100.659 499.611 100.74 499.009 101.595C498.903 103.039 498.955 103.607 499.885 104.766C506.931 113.547 546.084 119.439 548.75 125.995C548.578 127.132 548.389 127.557 547.321 128.221C547.148 128.329 546.935 128.355 546.742 128.422C542.05 124.738 508.587 113.004 499.951 109.573L499.92 189.339Q514.418 193.328 528.689 198.062C534.333 199.895 540.5 202.63 546.364 203.514L547.653 204.126C548.047 205.419 548.365 206.774 549.099 207.918L549.035 209.428C548.433 209.61 547.833 209.779 547.225 209.941C546.406 210.159 546.758 210.045 545.929 210.392C528.71 205.009 511.712 198.915 494.49 193.517Z"/>
	<path fill="#060018" d="M572.796 218.024C571.777 196.466 572.506 174.501 572.504 152.902C572.504 147.035 571.742 131.225 572.489 126.833C572.674 125.745 572.879 125.648 573.706 125.018C577.149 125.004 634.222 147.849 638.338 150.605L638.061 157.94L638.062 192.493C638.061 198.223 638.42 204.22 637.988 209.914C638.235 217.698 639.049 232.325 637.827 239.395L637.091 238.633L637.082 239.574C631.413 239.671 580.263 221.535 572.796 218.024Z"/>
	<path fill="#D3CAFA" d="M578.21 140.633C594.144 145.743 610.317 152.072 625.655 158.769C625.29 182.699 625.765 206.64 625.358 230.566Q601.838 222.557 578.446 214.181C578.054 189.678 578.383 165.142 578.21 140.633Z"/>
	<path fill="#1D054B" d="M625.655 158.769C626.85 158.017 627.276 158.01 627.696 156.682C624.551 151.899 592.022 143.73 584.839 139.97C582.353 138.669 577.205 135.079 576.369 132.447L577.474 131.179C578.74 131.162 580.022 131.516 581.22 131.903C591.184 135.117 628.542 149.559 635.727 154.759C636.815 155.547 637.441 156.78 638.061 157.94L638.062 192.493C638.061 198.223 638.42 204.22 637.988 209.914C636.342 217.731 638.536 226.178 636.513 233.797L635.782 233.518C635.672 231.718 635.682 229.85 635.268 228.094C634.864 230.272 634.578 232.415 634.381 234.622C631.238 233.513 628.129 232.473 625.358 230.566C625.765 206.64 625.29 182.699 625.655 158.769Z"/>
	<path fill="#010003" d="M482.043 371.126C484.313 371.298 486.546 371.428 488.494 372.693C490.017 375.482 489.547 406.865 488.803 411.198C487.414 412.433 485.481 412.813 483.731 413.337C482.906 413.416 482.098 413.405 481.274 413.33C479.11 413.131 478.088 412.39 476.706 410.759C475.436 406.738 474.836 376.973 476.476 374.089C477.669 371.992 479.895 371.589 482.043 371.126Z"/>
	<path fill="#D3CAFA" d="M481.456 376.611C481.96 376.834 482.581 376.964 482.896 377.446C484.225 379.485 483.868 404.536 483.365 408.256C483.138 408.172 482.881 408.146 482.684 408.005C480.826 406.67 481.434 381.222 481.456 376.611Z"/>
	<path fill="#1D054B" d="M600.542 101.135C612.796 96.6652 625.778 94.0375 638.449 91.0145L692.859 78.1114C741.702 66.535 790.377 53.8308 839.502 43.5123Q838.694 144.123 839.152 244.736L839.006 542.432L838.903 681.165L838.831 723.538C838.816 732.66 839.093 741.918 838.402 751.018C834.095 749.327 829.708 746.786 825.357 745.42C820.088 744.827 808.74 739.604 804.375 736.502C805.207 730.964 804.61 724.651 804.65 718.993L804.852 680.26L804.905 542.088L804.508 93.1498C797.171 94.3046 789.862 96.2438 782.633 97.9471Q757.565 104.05 732.611 110.607C713.536 115.495 693.916 119.248 675.06 124.819L675.799 506.781L675.63 629.576L675.603 662.282C675.603 668.289 675.093 675.088 676.159 680.994L676.668 681.601C672.703 681.806 667.869 681.019 663.983 680.235C662.439 679.923 660.531 679.067 658.994 679.102C658.369 679.116 657.989 678.978 657.404 678.77L656.985 234.227Q656.862 196.458 657.13 158.689C657.171 153.866 658.081 132.22 657.388 129.733C657.3 129.416 657.073 129.154 656.915 128.865C657.915 128.424 658.602 127.845 659.45 127.173C654.196 119.801 626.931 115.349 619.925 108.367C613.289 106.376 607.159 103.123 600.542 101.135Z"/>
	<path fill="#D3CAFA" d="M600.542 101.135C612.796 96.6652 625.778 94.0375 638.449 91.0145L692.859 78.1114C741.702 66.535 790.377 53.8308 839.502 43.5123Q838.694 144.123 839.152 244.736L839.006 542.432L838.903 681.165L838.831 723.538C838.816 732.66 839.093 741.918 838.402 751.018C834.095 749.327 829.708 746.786 825.357 745.42C824.184 732.983 825.126 719.677 825.159 707.166L825.392 627.963L824.972 247.51L824.632 120.478C824.599 102.52 825.401 84.3971 824.883 66.4607C824.815 64.1182 824.798 60.4254 823.262 58.6497C815.518 59.1405 806.584 62.2653 798.975 64.0973Q770.496 70.9554 742.105 78.1676L655.001 99.5218C643.317 102.448 631.46 104.892 619.925 108.367C613.289 106.376 607.159 103.123 600.542 101.135Z"/>
	<path fill="#16002E" d="M659.45 127.173C660.134 133.467 659.791 140.042 659.783 146.379L659.674 179.939L659.295 285.444Q659.357 318.114 659.786 350.782L659.887 494.475Q659.081 564.074 659.665 633.674C659.822 648.545 659.25 663.313 659.934 678.192C665.274 679.928 670.716 679.922 676.159 680.994L676.668 681.601C672.703 681.806 667.869 681.019 663.983 680.235C662.439 679.923 660.531 679.067 658.994 679.102C658.369 679.116 657.989 678.978 657.404 678.77L656.985 234.227Q656.862 196.458 657.13 158.689C657.171 153.866 658.081 132.22 657.388 129.733C657.3 129.416 657.073 129.154 656.915 128.865C657.915 128.424 658.602 127.845 659.45 127.173Z"/>
	<path fill="#9F8BE8" d="M235.659 508.311C236.057 508.573 236.461 508.826 236.869 509.071C243.134 512.819 249.473 516.524 256.237 519.308C285.777 531.469 320.936 532.738 351.769 525.08C358.063 569.983 365.966 615.24 366.018 660.689C366.052 690.028 361.556 718.886 356.674 747.725Q351.865 777.21 345.79 806.46C336.558 806.691 327.638 806.086 318.516 804.711C316.489 791.758 316.116 778.413 315.336 765.339Q313.432 735.182 312.061 704.996C311.312 688.338 311.328 670.479 307.292 654.257C302.839 636.361 292.782 616.414 285.319 599.374C279.436 585.33 274.012 570.873 269.689 556.271C268.131 551.013 267.845 545.362 266.121 540.203C265.599 538.641 265.061 537.567 263.541 536.774C262.146 536.815 261.773 536.659 260.692 537.506C259.904 541.977 262.014 547.22 263.173 551.531C271.073 580.933 283.724 607.848 295.354 635.843C301.279 650.106 306.386 666.338 305.202 681.97C304.251 694.538 292.537 718.529 287.279 730.893L270.388 771.039C260.045 768.912 250.815 766.106 241.243 761.58C243.147 748.85 244.462 736.059 246.278 723.319C250.459 693.98 255.826 663.481 252.967 633.784C251.423 617.751 247.03 602.57 242.958 587.042C236.113 560.943 232.07 535.292 235.659 508.311Z"/>
	<path fill="#D3CAFA" d="M444.444 669.12C445.12 671.128 445.036 673.146 445.07 675.241C444.824 683.032 444.251 700.793 445.236 707.875C445.311 708.923 445.378 709.987 445.619 711.013C446.2 713.482 447.949 714.382 449.941 715.701C463.346 712.578 477.434 711.173 491.073 709.25L549.876 700.571Q580.769 695.895 611.612 690.894C627.18 688.367 642.799 685.429 658.537 684.213C662.294 683.923 666.4 684.591 670.092 685.309C678.744 686.99 696.963 696.296 706.105 700.115Q767.577 725.758 828.267 753.2C797.027 759.766 765.42 764.277 734.019 769.953Q717.106 773.066 700.161 775.996C693.458 777.22 686.131 779.337 679.333 779.308C672.761 779.28 665.384 776.676 658.987 775.141Q639.424 770.474 619.937 765.501Q555.979 749.347 492.472 731.498C451.321 720.21 410.245 709.041 369.506 696.316C369.509 693.707 369.82 691.148 370.112 688.56C394.98 682.956 420.006 676.377 444.444 669.12Z"/>
	<path fill="#D3CAFA" d="M431.689 452.881C441.921 456.682 462.61 460.73 470.587 465.508C473.774 467.417 476.532 470.235 478.064 473.643C478.652 474.95 479.701 477.441 479.393 478.77C477.149 476.705 473.338 468.942 470.689 468.663C470.35 469.783 470.288 470.721 470.817 471.791C473.379 476.969 477.293 481.511 479.98 486.739L478.322 494.097C475.344 486.278 472.181 476.074 463.793 472.475C462.708 472.01 463.197 472.068 462.047 472.417C461.706 473.676 461.826 474.901 462.429 476.071C463.085 477.345 464.105 478.409 464.745 479.678L467.671 479.869L468.162 480.505C467.619 482.214 467.618 483.839 467.571 485.621C468.544 490.82 467.948 497.1 467.967 502.45L468.042 537.715L468.082 565.44C468.087 569.821 468.455 574.54 467.979 578.879C464.818 588.112 465.841 627.018 466.36 638.505C466.674 645.427 467.535 652.416 467.59 659.333C467.628 664.039 466.261 668.779 466.222 673.541C466.166 680.199 467.679 689.576 465.549 695.809C465.49 699.863 465.264 703.99 465.503 708.035C461.588 708.885 452.706 711.927 449.144 710.309C448.348 709.059 447.549 707.825 446.684 706.622L445.826 706.696L445.236 707.875C444.251 700.793 444.824 683.032 445.07 675.241C445.036 673.146 445.12 671.128 444.444 669.12C444.871 668.78 445.381 668.01 445.566 667.519C446.075 666.163 445.792 665.434 445.363 664.159L443.998 663.591C444.025 663.574 444.057 663.565 444.077 663.542C445.731 661.598 444.937 652.547 444.655 649.86L443.612 649.129L444.382 648.648C445.126 647.052 444.798 645.101 444.703 643.376C420.318 645.726 395.62 648.919 371.13 649.571C369.974 622.795 367.055 596.413 363.339 569.884C361.113 553.987 357.963 538.158 356.809 522.133C357.96 521.532 359.233 520.975 360.116 519.997C361.131 518.873 360.949 517.686 360.796 516.275C360.021 509.164 357.995 502.021 356.651 494.99Q354.741 485.287 353.649 475.457Q352.557 465.628 352.291 455.742C357.198 458.895 362.148 462.195 367.512 464.523C378.276 469.194 409.207 472.704 421.442 471.326C423.287 471.118 425.067 470.374 426.781 469.694C432.836 471.144 438.85 472.618 445.01 473.559L445.773 474.112C446.9 474.111 447.319 473.348 448.121 472.605C448.25 471.964 448.503 471.647 448.073 471.068C445.891 468.124 433.193 466.899 429.179 465.546C430.647 461.377 431.429 457.29 431.689 452.881Z"/>
	<path fill="#1D054B" d="M431.689 452.881C441.921 456.682 462.61 460.73 470.587 465.508C473.774 467.417 476.532 470.235 478.064 473.643C478.652 474.95 479.701 477.441 479.393 478.77C477.149 476.705 473.338 468.942 470.689 468.663C470.35 469.783 470.288 470.721 470.817 471.791C473.379 476.969 477.293 481.511 479.98 486.739L478.322 494.097C475.344 486.278 472.181 476.074 463.793 472.475C462.708 472.01 463.197 472.068 462.047 472.417C461.706 473.676 461.826 474.901 462.429 476.071C463.085 477.345 464.105 478.409 464.745 479.678L467.671 479.869L468.162 480.505C467.619 482.214 467.618 483.839 467.571 485.621C468.544 490.82 467.948 497.1 467.967 502.45L468.042 537.715L468.082 565.44C468.087 569.821 468.455 574.54 467.979 578.879C464.818 588.112 465.841 627.018 466.36 638.505C466.674 645.427 467.535 652.416 467.59 659.333C467.628 664.039 466.261 668.779 466.222 673.541C466.166 680.199 467.679 689.576 465.549 695.809C465.49 699.863 465.264 703.99 465.503 708.035C461.588 708.885 452.706 711.927 449.144 710.309C448.348 709.059 447.549 707.825 446.684 706.622L445.826 706.696L445.236 707.875C444.251 700.793 444.824 683.032 445.07 675.241C445.036 673.146 445.12 671.128 444.444 669.12C444.871 668.78 445.381 668.01 445.566 667.519C446.075 666.163 445.792 665.434 445.363 664.159L443.998 663.591C444.025 663.574 444.057 663.565 444.077 663.542C445.731 661.598 444.937 652.547 444.655 649.86L443.612 649.129L444.382 648.648C445.126 647.052 444.798 645.101 444.703 643.376L445.029 642.876L445.01 473.559L445.773 474.112C446.9 474.111 447.319 473.348 448.121 472.605C448.25 471.964 448.503 471.647 448.073 471.068C445.891 468.124 433.193 466.899 429.179 465.546C430.647 461.377 431.429 457.29 431.689 452.881Z"/>
	<path fill="#060018" d="M464.745 479.678L467.671 479.869L468.162 480.505C467.619 482.214 467.618 483.839 467.571 485.621C468.544 490.82 467.948 497.1 467.967 502.45L468.042 537.715L468.082 565.44C468.087 569.821 468.455 574.54 467.979 578.879C464.818 588.112 465.841 627.018 466.36 638.505C466.674 645.427 467.535 652.416 467.59 659.333C467.628 664.039 466.261 668.779 466.222 673.541C466.166 680.199 467.679 689.576 465.549 695.809C465.214 691.023 465.624 686.065 465.585 681.254C465.497 670.296 465.351 659.411 465.47 648.449C465.687 628.584 465.485 608.746 465.401 588.882Q465.247 560.064 464.794 531.25C464.661 520.239 463.935 508.845 464.917 497.872C464.53 491.818 465.237 485.759 464.745 479.678Z"/>
	<defs>
		<linearGradient id="gradient_7" gradientUnits="userSpaceOnUse" x1="468.13367" y1="492.49246" x2="463.96048" y2="491.87311">
			<stop offset="0" stop-color="#000010"/>
			<stop offset="1" stop-color="#0D0025"/>
		</linearGradient>
	</defs>
	<path fill="url(#gradient_7)" d="M464.745 479.678L467.671 479.869L468.162 480.505C467.619 482.214 467.618 483.839 467.571 485.621C467.521 485.886 467.468 486.15 467.422 486.415C466.424 492.187 468.395 498.618 466.675 504.308C465.716 503.607 465.331 502.637 465.123 501.47C464.916 500.312 464.942 499.048 464.917 497.872C464.53 491.818 465.237 485.759 464.745 479.678Z"/>
	<path fill="#16002E" d="M445.029 642.876L445.8 641.954C446.73 642.413 446.49 642.078 446.796 642.998C448.187 647.182 448.009 669.104 446.094 673.088L446.363 669.733C445.893 671.532 445.623 673.488 445.07 675.241C445.036 673.146 445.12 671.128 444.444 669.12C444.871 668.78 445.381 668.01 445.566 667.519C446.075 666.163 445.792 665.434 445.363 664.159L443.998 663.591C444.025 663.574 444.057 663.565 444.077 663.542C445.731 661.598 444.937 652.547 444.655 649.86L443.612 649.129L444.382 648.648C445.126 647.052 444.798 645.101 444.703 643.376L445.029 642.876Z"/>
	<path fill="#FEFEFE" d="M285.376 317.272C286.87 318.173 288.217 320.004 289.474 321.246C292.78 324.514 297.214 327.184 301.641 328.631C309.884 331.324 317.331 329.403 324.812 325.749C328.709 333.356 333.861 340.311 338.001 347.787L361.191 390.209C367.709 402.093 374.346 416.044 383.647 425.988C393.328 436.339 404.863 443.097 417.943 448.144C416.006 454.439 412.818 459.765 409.523 465.414C401.953 465.592 394.12 465.224 386.61 464.235C359.497 460.668 347.33 445.553 333.098 424.069C324.305 410.796 316.705 396.963 309.484 382.786C307.134 378.173 303.036 367 299.838 363.624C298.886 362.618 298.513 362.676 297.215 362.574C296.056 363.152 296.06 363.143 295.532 364.325C296.026 369.72 306.509 388.516 309.534 394.397C316.991 408.4 325.123 422.297 334.4 435.182C338.375 440.703 343 445.696 346.916 451.244C347.139 465.281 348.789 479.711 351.35 493.518C352.795 501.31 354.742 508.99 356.061 516.809C350.502 519.887 344.406 521.494 338.173 522.544C302.426 528.563 262.843 521.643 233.077 500.339C235.067 492.485 238.604 484.744 241.502 477.188C247.957 460.355 254.81 443.434 259.397 425.981C262.345 414.763 260.76 404.376 260.966 392.992C261.424 367.586 268.372 336.823 285.376 317.272Z"/>
	<path fill="#D3CAFA" d="M164.865 849.147C166.332 848.756 167.708 849.253 169.078 849.752C179.607 853.583 189.87 858.777 200.192 863.19Q237.684 879.006 274.77 895.752L416.38 958.18C429.458 964.076 442.139 970.758 455.341 976.411C444.119 978.794 432.068 979.589 420.674 981.141Q389.239 985.455 357.875 990.265C351.921 991.04 345.91 991.882 340.078 993.323C330.642 988.055 320.562 983.679 310.769 979.108L269.314 959.442Q195.024 923.738 119.572 890.559C102.531 883.063 85.6749 875.265 68.498 868.064L164.865 849.147Z"/>
	<path fill="#D3CAFA" d="M368.796 702.203C379.048 703.875 389.339 708.188 399.329 711.1Q431.222 720.363 463.26 729.11Q532.802 748.526 602.58 767.07C625.733 773.077 649.124 778.172 672.298 784.151C663.461 794.31 653.161 803.616 643.831 813.392Q638.044 819.708 632.024 825.802C612.192 829.891 591.042 830.334 571.014 833.711C544.703 823.714 518.735 812.856 492.524 802.606Q426.645 777.24 361.115 750.981L368.796 702.203Z"/>
	<path fill="#D3CAFA" d="M274.513 773.996C287.119 777.988 299.852 783.771 311.857 789.332C313.153 802.551 314.978 815.803 314.918 829.109C314.887 835.943 310.73 841.795 312.81 848.769C314 852.759 316.523 854.694 320.095 856.527C331.483 858.482 379.705 864.013 387.415 858.1C388.469 857.291 389.137 856.303 389.39 854.983C389.907 852.29 388.506 848.588 386.754 846.566C379.982 838.746 360.147 836.648 350.233 834.824C350.266 825.18 350.025 815.438 351.352 805.867C371.412 813.461 391.003 822.055 410.819 830.24Q461.386 851.294 512.189 871.769C529.328 878.742 546.381 886.517 563.822 892.673L556.572 900.264C535.756 902.485 514.969 905.497 494.237 908.41C481.418 910.211 468.281 911.571 455.62 914.21C409.966 896.023 364.71 876.277 319.588 856.804C309.634 853.928 299.7 848.935 290.108 844.99L242.467 825.877C228.117 820.089 213.647 814.591 199.24 808.947C191.179 805.788 182.772 802.87 175.067 798.929C182.707 796.031 191.032 794.267 198.933 792.18Q216.265 787.658 233.43 782.537Q232.487 788.139 231.926 793.793C230.552 795.509 229.209 797.18 228.374 799.239C226.826 803.06 226.115 808.048 227.869 811.929C229.522 815.587 232.525 816.985 236.131 818.256C241.544 820.163 247.281 821.339 252.93 822.288C259.893 823.457 297.845 828.039 302.16 825.559C303.049 825.048 303.707 823.409 303.883 822.422C304.396 819.539 303.608 816.479 301.918 814.114C296.808 806.965 275.936 801.329 267.289 799.678C269.298 790.951 271.719 782.505 274.513 773.996Z"/>
	<path fill="#9F8BE8" d="M169.487 803.081C183.384 807.711 199.258 814.79 213.14 820.241Q264.182 840.069 314.647 861.32L419.938 905.207C430.741 909.799 441.687 914.103 452.391 918.92L452.239 968.283C445.972 967.269 424.311 955.995 417.252 952.768C400.828 945.261 384.212 938.064 367.706 930.728L228.267 869.383C208.668 860.779 188.785 852.745 169.388 843.691C169.034 830.191 169.43 816.59 169.487 803.081Z"/>
	<path fill="#9F8BE8" d="M360.778 756.303C368.287 759.895 376.199 762.726 383.946 765.776L419.327 779.693Q473.957 800.803 528.294 822.655C536.137 825.835 562.247 835.072 567.624 838.959C569.267 842.514 568.402 882.923 568.068 889.237L562.858 886.999C492.972 857.193 421.817 830.243 352.119 799.968C352.902 794.016 354.447 788.1 355.571 782.195C357.209 773.583 358.477 764.763 360.778 756.303Z"/>
	<path fill="#1D054B" d="M297.165 225.639C301.434 225.027 306.822 225.159 311.097 225.664C316.293 226.278 320.607 228.495 323.79 232.712C333.014 244.933 318.268 255.794 317.925 268.459C317.555 282.113 330.483 292.245 328.33 306.01C327.838 309.158 326.335 311.469 323.703 313.264C317.33 317.61 310.789 316.296 303.762 314.902L303.231 314.664L302.353 314.257C297.558 312.085 294.448 308.841 290.776 305.22C283.919 305.898 278.606 304.858 272.766 300.994C266.499 296.846 261.539 290.22 260.224 282.741C257.926 269.672 264.312 250.561 271.937 240.05C278.153 231.481 286.916 227.252 297.165 225.639Z"/>
	<path fill="#9F8BE8" d="M543.969 907.181C545.368 906.979 546.258 906.707 547.619 907.216C542.243 911.684 537.409 916.795 532.074 921.318C516.794 934.274 500.924 946.898 485.052 959.127C479.016 963.778 472.877 969.162 466.45 973.225C465.206 974.011 464.802 974.095 463.382 973.756L457.854 971.515L458.028 918.676C470.153 918.043 482.506 915.678 494.532 913.918Q519.22 910.326 543.969 907.181Z"/>
	<path fill="#9F8BE8" d="M443.612 649.129L444.655 649.86C444.937 652.547 445.731 661.598 444.077 663.542C444.057 663.565 444.025 663.574 443.998 663.591C435.134 665.726 426.379 668.547 417.555 670.884L370.538 682.854C370.94 673.739 371.369 664.633 371.385 655.507C378.389 654.416 385.739 654.157 392.808 653.551C409.729 652.098 426.727 650.94 443.612 649.129Z"/>
	<path fill="#FEFEFE" d="M337.117 336.182C340.761 336.996 357.591 356.364 362.206 360.225Q364.139 361.847 366.19 363.318Q368.241 364.788 370.398 366.098Q372.556 367.408 374.806 368.549Q377.057 369.691 379.388 370.658C385.368 366.65 392.535 364.104 398.797 360.468C403.993 357.452 408.591 353.35 413.637 350.065C415.751 351.916 417.412 354.058 419.149 356.252C415.921 359.407 413.007 362.764 410.126 366.235C399.075 379.826 387.925 389.521 371.004 394.878C367.06 388.97 363.873 382.389 360.201 376.278C355.011 367.64 350.128 358.922 345.093 350.203C342.413 345.563 339.379 341.043 337.117 336.182Z"/>
	<path fill="#9F8BE8" d="M622.249 832.684C623.321 832.518 623.871 832.457 624.884 832.872C620.122 839.318 613.371 845.073 607.677 850.711Q591.78 866.735 575.35 882.214C574.749 882.846 574.501 883.035 573.762 883.417C572.52 879.533 573.512 845.759 573.533 838.83C589.756 837.678 606.131 834.864 622.249 832.684Z"/>
	<path fill="#9F8BE8" d="M292.155 732.786C297.78 734.655 303.282 736.869 308.804 739.019C310.089 753.623 310.56 768.397 311.426 783.042C307.742 781.37 303.903 779.958 300.149 778.446Q288.235 773.681 276.41 768.697C281.236 756.61 286.842 744.674 292.155 732.786Z"/>
	<path fill="#1D054B" d="M240.295 765.653C249.444 770.054 259.839 773.554 269.951 774.855C267.59 783.051 264.881 791.477 263.846 799.945C263.747 800.296 263.442 800.552 263.224 800.845C261.848 801.088 260.604 801.045 259.215 800.922C253.02 800.375 240.332 798.355 236.145 793.349C234.983 789.889 239.363 770.752 240.295 765.653Z"/>
	<path fill="#1D054B" d="M317.963 809.34C327.5 810.367 336.954 811.572 346.56 811.436C346.48 820.401 346.525 829.389 346.133 838.346C345.836 838.383 345.54 838.423 345.243 838.456C341.496 838.864 322.819 838.062 320.644 835.535C317.751 832.175 318.071 814.343 317.963 809.34Z"/>
	<path fill="#1D054B" d="M337.997 231.176C344.55 240.585 346.362 251.677 346.288 262.86C341.939 264.491 339.924 265.575 337.272 269.525C340.752 269.647 344.455 269.828 347.876 269.139C349.286 268.991 350.928 269.083 352.14 269.944C353.363 270.811 353.372 271.273 353.62 272.642C353.086 273.983 352.281 274.424 351.129 275.176C349.297 277.008 346.93 278.892 345.971 281.331C346.151 282.616 346.088 282.671 347.03 283.541C348.094 283.582 349.034 283.665 350.071 283.91C351.714 287.127 351.804 292.045 352.14 295.645C348.426 297.593 344.489 298.961 340.503 300.226C340.38 288.063 332.861 282.911 329.281 272.541C330.476 265.372 333.932 261.192 336.376 254.693C339.036 247.62 338.075 238.648 337.997 231.176Z"/>
	<path fill="#3B058D" d="M347.876 269.139C349.286 268.991 350.928 269.083 352.14 269.944C353.363 270.811 353.372 271.273 353.62 272.642C353.086 273.983 352.281 274.424 351.129 275.176L349.332 274.3C348.207 272.882 348.138 270.887 347.876 269.139Z"/>
	<path fill="#FEFEFE" d="M233.667 798.658C239.058 800.098 244.121 802.734 249.635 803.825C255.967 805.078 262.268 805.09 268.633 805.865C276.134 806.779 285.995 809.901 292.63 813.521C294.621 814.608 298.398 816.779 298.911 819.218C299.06 819.93 298.895 819.796 298.358 820.44C277.689 820.285 251.544 817.411 232.103 809.943C232.039 805.929 232.316 802.486 233.667 798.658Z"/>
	<path fill="#FEFEFE" d="M320.414 223.011C324.231 223.7 326.701 224.369 329.6 227.068C332.178 229.47 333.493 232.689 334.151 236.094C337.406 252.928 324.733 261.279 326.024 272.481C327.146 282.221 336.156 288.879 336.385 298.952C336.534 305.485 332.586 312.876 327.965 317.384C323.353 321.884 316.135 325.394 309.559 325.141C301.974 324.85 295.509 320.718 290.571 315.256C289.296 313.441 287.026 310.568 286.868 308.379C288.704 307.77 289.743 309.401 290.904 310.616C295.618 315.547 300.201 318.502 307.229 319.366C313.425 320.127 319.915 318.866 324.795 314.804C342.649 299.942 320.103 283.795 321.599 267.679C322.385 259.213 329.775 253.13 330.413 244.756C331.048 236.421 325.639 228.902 320.414 223.011Z"/>
	<path fill="#FEFEFE" d="M317.703 840.296C322.843 841.134 328.001 842.015 333.198 842.407C346.605 843.416 366.235 842.824 378.646 848.196C380.661 849.068 383.661 850.594 384.364 852.842C384.638 853.719 384.268 853.959 383.878 854.716Q376.102 855.099 368.324 854.747C359.521 854.418 322.911 853.572 317.275 847.483C316.79 845.113 317.364 842.665 317.703 840.296Z"/>
	<path fill="#1D054B" d="M433.069 310.705L433.819 311.416C434.242 312.978 433.421 315.009 433.128 316.602C432.73 318.77 432.409 322.274 433.826 324.069C434.241 324.596 434.763 324.79 435.44 324.786C438.374 324.768 442.478 320.596 444.64 318.805C443.916 330.293 438.529 339.429 430.78 347.639C428.234 349.779 425.421 351.714 422.783 353.75Q420.551 350.602 418.419 347.385C427.641 336.94 428.092 323.209 433.069 310.705Z"/>
	<path fill="#9F8BE8" d="M306.321 698.445C308.356 701.726 308.024 727.234 308.172 732.659L298.622 729.526L294.057 727.976C297.495 717.913 301.997 708.154 306.321 698.445Z"/>
	<path fill="#FEFEFE" d="M423.001 449.442L427.664 451.411C426.913 455.445 426.498 460.711 424.076 464.094C422.911 465.72 421.662 466.032 419.824 466.382C419.662 466.382 419.5 466.385 419.338 466.381C418.401 466.359 415.951 466.425 415.352 465.781L416.373 464.733L415.744 464.273C418.339 459.386 420.618 454.426 423.001 449.442Z"/>
</svg>
