<?xml version="1.0" encoding="utf-8" ?>
<svg xmlns="http://www.w3.org/2000/svg" xmlns:xlink="http://www.w3.org/1999/xlink" width="1024" height="1024">
	<path fill="#9F8BE8" d="M0 0L159.224 0L166.968 0L170.083 0L177.994 0L247.486 0L254.19 0L342.11 0L349.228 0L359.304 0L365.79 0L760.372 0L766.787 0L808.03 0L814.505 0L849.506 0L856.134 0L1024 0L1024 75.4337L1024 106.222L1024 337.082L1024 368.088L1024 551.833L1024 569.293L1024 616.508L1024 968.418L1024 1024L0 1024L0 389.26L0 379.207L0 360.376L0 350.914L0 0Z"/>
	<path d="M0 0L159.224 0L166.968 0L170.083 0L177.994 0L247.486 0L254.19 0L342.11 0L349.228 0L359.304 0L365.79 0C365.969 9.11043 366.695 18.7976 365.812 27.8418C371.481 38.7131 377.62 49.3466 383.459 60.1287L422.697 133.203C429.091 145.24 440.057 163.246 444.258 175.765C447.021 183.998 446.532 194.119 447.015 202.772L448.795 232.804C450.064 253.724 451.846 274.643 453.375 295.548Q459.605 382.742 470.689 469.453C467.29 471.753 463.204 473.401 459.435 475.02C461.016 479.301 462.486 483.496 463.598 487.932C478.727 487.996 492.483 492.44 507.691 488.997C516.284 487.051 524.564 483.08 532.358 479.042C547.338 471.282 564.385 459.016 581.991 464.943C585.709 466.194 589.263 468.066 592.066 470.849C593.968 472.736 595.281 474.596 595.215 477.361C595.003 486.298 583.62 495.108 577.498 500.539C566.653 510.16 555.069 518.843 543.705 527.832C528.959 539.496 511.499 554.592 494.54 562.602C488.027 565.678 481.465 566.424 474.637 568.369C468.041 570.248 461.252 573.471 455.213 576.709C448.1 580.523 436.16 593.541 428.464 592.95C426.765 592.82 425.398 591.984 424.315 590.695C417.576 582.682 406.666 547.585 404.599 536.385C403.805 532.081 404.614 527.834 404.225 523.531C403.49 515.384 400.496 506.106 398.055 498.305C393.907 499.808 389.759 501.463 385.535 502.732C382.462 496.273 381.237 488.384 379.538 481.439L371.627 449.325Q353.588 377.588 337.449 305.4C332.769 284.847 329.384 263.889 323.937 243.523C302.787 256.925 107.28 377.09 100.974 376.342C98.878 376.093 96.4359 372.862 95.0659 371.393C91.3696 374.326 87.8348 377.345 84.354 380.53C81.8632 404.441 88.2609 427.324 103.433 446.065C113.645 458.678 121.17 467.197 119.539 484.528C119.158 488.575 117.839 492.554 114.561 495.168C112.365 496.92 109.938 497.205 107.222 496.754C89.7929 493.854 56.7547 463.11 44.9626 450.086C39.7146 444.29 35.0668 438.023 30.6659 431.57C20.8101 417.118 12.4998 401.724 0 389.26L0 379.207L0 360.376L0 350.914L0 0Z"/>
	<path fill="#9F8BE8" d="M0 0L159.224 0C163.652 12.0585 167.243 24.3589 171.091 36.6044L183.983 76.3679Q193.174 104.061 201.545 132.012C204.647 142.062 208.279 152.216 210.661 162.454C208.512 170.435 205.076 177.774 199.757 184.155C193.004 192.255 184.611 198.878 176.602 205.671Q160.172 219.586 143.602 233.334C122.976 250.607 103.032 268.778 82.783 286.493C76.464 292.021 59.443 305.565 55.2691 311.664L56.7677 316.978C49.763 321.622 42.823 328.553 36.0386 332.662C33.5935 334.143 30.4464 333.956 27.8514 335.051C24.9648 336.268 22.0394 338.3 19.2928 339.852Q9.5915 345.287 0 350.914L0 0Z"/>
	<path fill="#5F49C3" d="M254.19 0L342.11 0C344.149 4.98882 347.261 9.8375 349.927 14.5189Q356.816 26.5135 363.501 38.6228L418.315 140.272C424.366 151.713 433.129 164.916 437.189 177.065C439.864 185.067 439.317 194.969 439.923 203.341L443.845 263.756Q448.784 330.923 455.418 397.944C457.799 420.492 459.583 443.08 463.7 465.395C451.312 470.455 438.731 475.093 426.279 480C420.667 459.375 417.471 436.801 413.341 415.729Q399.439 345.99 386.804 276.011L379.084 232.488C377.952 226.278 377.244 219.331 375.288 213.347C372.534 204.923 366.651 196.332 362.39 188.547Q346.419 158.978 329.402 129.998L280.399 44.7935C271.749 29.8144 263.414 14.6379 254.19 0Z"/>
	<path fill="#5F49C3" d="M177.994 0L247.486 0C253.913 15.5232 264.068 29.9312 272.388 44.5044C298.364 90.0069 325.897 134.874 350.319 181.23C356.161 192.319 363.51 203.204 368.162 214.853C371.011 221.987 371.695 230.975 373.026 238.536Q376.852 260.735 380.901 282.893Q393.402 351.392 406.779 419.726C410.96 440.67 414.821 461.856 419.867 482.606C409.613 486.139 399.397 489.749 389.415 494.002C387.406 483.52 384.496 473.127 381.885 462.777L371.939 422.64Q362.436 383.615 353.65 344.422C347.563 317.649 342.005 290.742 335.771 264.013C333.85 255.775 332.955 246.294 329.83 238.486C327.542 232.772 322.793 227.411 319.458 222.201L294.707 183.25L225.113 73.816L194.259 25.5648C188.825 17.0563 183.689 8.33603 177.994 0Z"/>
	<path fill="#5F49C3" d="M166.968 0L170.083 0C172.261 4.81325 175.618 9.42254 178.486 13.8617Q186.152 25.6412 193.683 37.508L258.388 139.425C264.125 148.654 270.354 157.621 275.793 167.027C275.584 174.673 274.537 181.309 271.876 188.497C256.908 181.63 232.813 175.217 220.454 167.083C216.624 159.215 214.442 150.206 211.886 141.853L199.698 102.346L177.323 32.6164C173.877 21.8122 169.681 11.0005 166.968 0Z"/>
	<path fill="#9F8BE8" d="M0 360.376C8.5846 371.133 18.2794 380.975 26.4095 392.091C40.5483 411.425 52.2492 431.823 68.6846 449.548C77.458 459.01 86.8205 468.924 96.8732 477.036C100.859 480.252 105.689 482.516 109.542 485.833C110.448 486.612 111.004 487.287 111.326 488.463L110.875 489.594C108.982 490.396 107.4 489.847 105.555 489.092C84.1227 480.322 57.1075 455.675 43.1243 437.166C34.9442 426.339 28.6254 414.424 20.8096 403.393C14.6208 394.658 7.2935 387.006 0 379.207L0 360.376Z"/>
	<path fill="#5F49C3" d="M349.228 0L359.304 0L359.643 17.0059C356.67 10.9385 353.212 5.45354 349.228 0Z"/>
	<path fill="#5F49C3" d="M215.024 171.667C231.297 182.426 251.572 186.389 269 195.058C264.696 203.054 259.886 210.526 253.682 217.193C241.684 230.084 226.928 240.802 213.211 251.795C177.748 280.215 140.855 306.686 104.204 333.524Q94.0122 340.754 83.6822 347.785C76.7376 336.419 68.7118 326.072 62.8246 314.03C72.8153 303.101 86.7526 291.913 98.005 282.083L170.079 220.307C180.593 211.309 192.097 202.78 201.508 192.636C207.126 186.58 212.142 179.445 215.024 171.667Z"/>
	<path fill="#5F49C3" d="M282.586 176.312C284.026 177.589 306.592 215.274 309.787 220.364C313.431 226.17 317.352 231.795 321.257 237.427C300.571 248.482 280.891 262.056 260.806 274.213Q190.761 317.283 119.578 358.447Q110.646 363.615 101.588 368.559C97.2733 363.624 93.2206 358.413 89.172 353.258C104.554 340.659 121.599 329.667 137.728 318.014Q180.435 287.253 221.608 254.468C236.286 242.634 252.36 230.447 264.099 215.604C273.311 203.955 279.371 190.757 282.586 176.312Z"/>
	<path fill="#0B0A23" d="M32.0432 340.43C34.9537 342.273 37.6839 347.143 39.951 349.909C51.7708 364.329 60.1549 374.206 77.0155 383.146C76.5837 409.92 80.5806 428.208 97.6419 449.432C101.477 454.203 107.42 458.814 110.179 464.188C111.598 466.952 114.389 474.226 113.194 477.151C112.89 477.895 112.495 477.868 111.817 478.171C106.962 477.488 101.446 472.288 97.7908 469.132Q91.5058 463.644 85.5709 457.78Q79.6361 451.915 74.0741 445.696Q68.5121 439.476 63.3441 432.926Q58.1761 426.376 53.4217 419.519C44.6733 406.649 36.9967 392.887 27.3706 380.627C20.604 372.009 12.2949 364.654 4.76595 356.707C13.7046 351.143 22.7458 345.365 32.0432 340.43Z"/>
	<path fill="#0B0A23" d="M563.893 470.626C564.46 471.166 564.266 471.472 564.285 472.225L564.62 471.968C563.381 474.174 534.663 494.379 530.248 497.731C519.917 505.575 510.418 514.444 500.012 522.259C494.207 526.618 487.982 531.174 481.639 534.706C471.548 540.327 459.748 542.913 449.152 547.603C444.072 549.851 438.887 552.148 434.018 554.819C428.914 557.618 424.029 560.811 418.664 563.102C418.431 560.255 417.724 557.419 417.164 554.619L413.162 540.824C412.452 538.285 410.814 533.846 412.147 531.481C426.493 526.137 441.589 518.34 452.769 507.803C457.338 503.497 461.152 498.49 465.759 494.184C473.244 494.753 480.608 496.908 488.105 497.626C507.78 499.512 526.536 490.025 543.194 480.755C550.113 476.905 556.012 472.337 563.893 470.626Z"/>
	<path fill="#FEFEFE" d="M579.451 472.454C583.311 473.127 585.727 474.527 588.774 476.839C587.073 481.243 584.516 484.609 581.259 487.96C572.933 496.526 562.609 503.606 553.303 511.091C535.924 525.067 516.475 542.772 497.027 553.348C485.039 559.868 475.238 560.25 463.467 564.941C451.246 569.812 441.699 578.175 430.769 585.127L429.783 585.387C427.159 583.782 423.063 572.452 421.736 569.209C431.656 564.512 440.854 558.376 450.902 553.91C464.249 547.978 478.299 544.805 490.688 536.685C510.479 523.715 529.781 506.459 548.938 492.003C558.274 484.957 568.616 476.907 579.451 472.454Z"/>
	<path fill="#FEFEFE" d="M451.203 477.985L452.676 478.071C455.299 480.47 456.786 487.86 457.893 491.352C446.449 506.812 430.302 517.344 412.244 523.533C409.338 514.499 406.603 505.446 404.373 496.219C419.626 489.572 435.503 483.494 451.203 477.985Z"/>
	<path fill="#9F8BE8" d="M59.1536 323.398C62.1522 326.042 68.8461 339.026 72.1112 343.581C77.6331 351.284 84.2224 358.654 90.6358 365.636C86.303 369.084 82.247 372.846 78.1499 376.566L74.5042 374.473C60.4949 365.128 50.4345 351.422 39.9987 338.478C46.5875 333.715 52.849 328.526 59.1536 323.398Z"/>
	<path d="M760.372 0L766.787 0L808.03 0L814.505 0L814.75 613.766C833.753 613.637 1019.13 610.233 1022.66 611.933C1022.69 613.403 1022.74 614.869 1022.71 616.34L1022.61 618.001C1019.94 619.733 768.93 621.173 741.636 622.121C737.158 630.115 731.786 636.966 725.647 643.719L725.454 750.741Q809.596 749.634 893.715 747.349Q934.248 745.928 974.794 744.929C990.851 744.432 1006.94 743.661 1023.01 743.534L1023.01 749.999L791.47 756.228C766.041 756.787 740.549 757.651 715.121 757.872C693.353 758.061 671.507 757.625 649.752 758.336Q650.042 771.044 649.807 783.754C660.897 792.403 672.762 800.223 684.084 808.593C690.864 813.605 697.327 819.63 704.446 824.098C710.873 824.268 719.624 823.718 724.338 828.87C725.711 830.371 726.406 832.27 726.299 834.307C725.986 840.283 715.363 851.539 710.765 855.523C708.303 857.655 705.696 858.891 702.39 858.498C696.134 857.754 673.55 839.296 665.276 834.571C658.369 830.626 651.214 828.071 643.504 826.222C638.691 838.537 631.724 849.87 627.025 862.312L892.714 867.472Q940.382 868.124 988.037 869.428C999.752 869.732 1011.52 869.68 1023.22 870.286L1023.33 877.398C971.212 876.91 919.076 874.718 866.967 873.628L625.277 869.242C624.238 873.354 622.942 877.646 619.119 880.047C616.842 881.476 614.098 881.749 611.512 881.128C605.413 879.663 600.686 874.534 597.474 869.398C585.779 869.506 574.102 868.889 562.419 869.013L562.473 967.465L864.02 967.377L968.284 967.38C985.341 967.397 1002.5 967.054 1019.54 967.466C1020.74 967.495 1021.86 967.387 1022.84 968.117L1022.76 973.868C1010.94 974.224 999.046 973.972 987.22 973.955L922.671 973.867L732.486 973.997L617.471 973.933L581.172 973.953C573.025 973.955 564.817 974.229 556.706 973.386C556.431 972.76 556.188 972.188 556.043 971.515C554.985 966.619 555.434 961.037 555.415 956.043L555.328 931.242Q555.072 908.733 555.431 886.226C555.477 880.462 554.938 874.422 555.428 868.711C555.582 866.914 555.869 864.896 557.097 863.478C558.041 862.388 559.462 861.865 560.855 861.673C564.27 861.2 568.201 861.833 571.675 861.923L598.097 862.507C602.108 848.973 608.091 835.844 613.199 822.689C584.306 818.116 555.649 814.797 533.123 793.953C508.248 802.648 480.063 806.631 453.831 808.119C429.156 809.518 399.537 808.647 375.606 814.083C368.475 815.704 361.61 818.383 354.757 820.893C339.054 856.601 321.279 868.909 285.833 882.887C277.692 886.097 269.143 888.675 262.476 894.585C268.452 914.59 285.309 934.815 301.023 947.869C304.697 948.068 308.337 948.153 311.854 949.357C315.374 950.563 318.938 952.756 320.578 956.239C321.688 958.596 321.642 961.226 320.667 963.621C319.145 967.364 315.816 970.03 312.131 971.491C303.924 974.747 290.431 974.696 282.395 971.074C277.982 969.084 274.161 965.639 270.895 962.117C261.527 952.01 254.27 939.934 246.302 928.737C236.222 914.571 223.416 900.342 217.139 884.014C213.879 885.342 210.34 886.674 208.796 890.098C205.16 898.169 210.55 920.959 215.071 928.511C218.978 935.038 225.438 940.41 227.868 947.783C228.727 950.391 228.84 953.067 227.436 955.505C226.071 957.874 223.845 959.508 221.214 960.21C214.662 961.959 205.472 959.307 199.738 955.953C184.142 946.831 183.074 922.952 180.191 906.858C178.679 898.422 176.707 890.247 174.669 881.936C173.205 875.968 173.39 869.821 177.278 864.789C184.724 855.152 201.801 857.021 211.985 844.056C220.177 833.628 225.879 814.255 231.386 801.749C239.277 783.831 247.892 766.411 258.119 749.694C243.905 749.377 230.148 747.219 216.37 743.815C186.245 736.373 154.047 721.529 137.568 693.986C128.729 679.213 123.338 656.095 127.987 639.136C128.496 637.281 129.044 636.282 130.748 635.363C132.332 635.637 133.042 635.915 133.978 637.272C136.551 641.006 138.071 645.886 140.046 649.985C143.502 657.16 148.086 663.705 153.165 669.823C173.551 694.377 205.697 710.143 236.494 717.072C247.918 719.641 259.625 720.961 271.267 722.06C278.463 717.903 285.637 713.788 293.194 710.304C339.402 689 399.54 677.181 449.261 665.403C476.377 658.98 505.393 652.683 530.335 639.89C564.942 622.14 576.179 589.259 605.837 570.322C614.141 565.02 623.379 561.933 633.178 560.9C669.178 557.105 668.359 582.694 694.05 588.46C703.686 586.192 712.786 580.991 721.62 576.701C724.704 575.204 727.747 574.922 730.996 576.124C737.361 578.479 742.856 585.94 745.625 591.941C749.404 600.129 747.198 606.543 744.32 614.486L760.016 614.294L760.372 0Z"/>
	<path fill="#CBC3FB" d="M766.787 0L808.03 0L808.029 613.987Q787.463 614.238 766.896 614.232L766.787 0Z"/>
	<path fill="#46375A" d="M534.905 645.695C542.908 650.446 550.22 653.729 559.628 654.417C562.958 654.661 568.118 653.744 570.788 654.119C571.588 654.232 571.903 654.713 572.186 655.371C571.439 666.045 572.206 674.986 579.488 683.405C586.558 691.58 596.082 694.611 606.01 697.888C602.341 708.073 598.887 718.427 594.789 728.446C590.352 739.293 585.176 749.86 580.001 760.368C578.568 763.277 572.157 773.73 572.767 776.375C578.753 778.693 585.116 779.971 591.229 781.931C604.363 786.143 617.957 791.208 630.349 797.28C637.597 800.831 647.704 808.292 655.919 807.343L656.411 805.559C652.833 799.617 642.732 795.281 636.611 792.126C635.114 789.702 630.321 788.138 627.735 786.795C628.518 785.242 628.888 783.163 629.386 781.478C631.736 782.835 635.191 785.452 637.894 785.267C651.206 791.688 670.714 806.967 682.782 816.206C687.862 820.095 693.023 824.754 698.552 827.934C700.941 829.308 703.508 830.381 706.246 830.798C710.488 831.445 716.777 829.552 719.319 833.813C719.125 838.382 710.668 846.233 707.428 849.169C706.148 850.329 704.801 851.301 703.344 852.222C703.185 852.145 703.025 852.071 702.868 851.992C698.699 849.892 694.834 846.693 691.02 843.983C679.313 835.668 666.875 825.946 653.132 821.461C644.456 818.629 635.022 818.28 626.005 817.197C603.933 814.544 572.602 810.859 553.045 800.163C534.331 789.929 521.641 770.526 510.991 752.642C509.628 750.353 508.953 748.031 505.809 749.081C504.726 749.443 504.774 749.5 504.058 750.252C503.1 756.878 518.206 775.894 522.486 781.621Q524.938 784.947 527.632 788.079C509.475 794.518 490.189 797.506 471.059 799.466C464.701 800.117 458.09 800.243 451.786 801.153C446.909 802.391 434.903 801.762 429.377 801.972C405.048 802.894 381.9 804.029 358.579 811.774Q366.046 795.723 372.507 779.241C374.322 774.674 376.502 769.964 377.744 765.221C378.226 763.377 378.23 762.588 377.297 760.926C375.877 759.922 374.723 759.708 373.024 759.424C374.157 753.982 375.191 748.04 375.373 742.48C375.531 737.658 374.771 732.792 374.65 727.967C374.238 711.583 379.226 699.725 388.971 686.929C402.109 684.806 414.938 680.679 427.891 677.662C459.434 670.314 491.502 663.743 521.679 651.713C526.036 649.612 530.5 647.694 534.905 645.695Z"/>
	<path fill="#FEFEFE" d="M534.905 645.695C542.908 650.446 550.22 653.729 559.628 654.417C562.958 654.661 568.118 653.744 570.788 654.119C571.588 654.232 571.903 654.713 572.186 655.371C571.439 666.045 572.206 674.986 579.488 683.405C586.558 691.58 596.082 694.611 606.01 697.888C602.341 708.073 598.887 718.427 594.789 728.446C590.352 739.293 585.176 749.86 580.001 760.368C578.568 763.277 572.157 773.73 572.767 776.375C578.753 778.693 585.116 779.971 591.229 781.931C604.363 786.143 617.957 791.208 630.349 797.28C637.597 800.831 647.704 808.292 655.919 807.343L656.411 805.559C652.833 799.617 642.732 795.281 636.611 792.126C635.114 789.702 630.321 788.138 627.735 786.795C628.518 785.242 628.888 783.163 629.386 781.478C631.736 782.835 635.191 785.452 637.894 785.267C651.206 791.688 670.714 806.967 682.782 816.206C687.862 820.095 693.023 824.754 698.552 827.934C700.941 829.308 703.508 830.381 706.246 830.798C710.488 831.445 716.777 829.552 719.319 833.813C719.125 838.382 710.668 846.233 707.428 849.169C706.148 850.329 704.801 851.301 703.344 852.222C703.185 852.145 703.025 852.071 702.868 851.992C698.699 849.892 694.834 846.693 691.02 843.983C679.313 835.668 666.875 825.946 653.132 821.461C644.456 818.629 635.022 818.28 626.005 817.197C603.933 814.544 572.602 810.859 553.045 800.163C534.331 789.929 521.641 770.526 510.991 752.642C509.628 750.353 508.953 748.031 505.809 749.081C504.726 749.443 504.774 749.5 504.058 750.252C503.1 756.878 518.206 775.894 522.486 781.621Q524.938 784.947 527.632 788.079C509.475 794.518 490.189 797.506 471.059 799.466C464.701 800.117 458.09 800.243 451.786 801.153Q449.62 801.127 447.455 801.033C447.1 798.555 450.143 794.696 451.538 792.651C463.466 775.172 479.356 761.664 495.166 747.892C502.011 741.931 509.319 736.121 515.102 729.09C520.845 722.108 524.854 714.047 527.364 705.381C533.348 684.726 531.861 670.344 521.679 651.713C526.036 649.612 530.5 647.694 534.905 645.695Z"/>
	<path fill="#FEFEFE" d="M388.971 686.929C379.226 699.725 374.238 711.583 374.65 727.967C374.771 732.792 375.531 737.658 375.373 742.48C375.191 748.04 374.157 753.982 373.024 759.424C366.556 773.548 360.785 788.309 354.84 802.684C349.581 815.402 344.177 828.915 336.266 840.246Q334.409 842.863 332.354 845.327Q330.299 847.791 328.058 850.087Q325.817 852.383 323.404 854.498Q320.991 856.612 318.42 858.532C313.203 862.39 307.743 865.585 301.891 868.36C291.855 873.118 261.526 883.293 256.519 891.163C254.875 893.747 255.991 897.356 256.987 899.973C265.272 921.736 280.441 940.885 299.047 954.637C302.922 954.928 309.374 954.836 312.282 957.95C312.951 958.666 313.155 959.208 313.419 960.125C313.276 961.75 312.689 962.769 311.43 963.773C306.8 967.469 297.166 967.721 291.474 966.779C287.199 966.071 282.599 964.065 279.321 961.182C270.525 953.447 261.223 938.173 254.36 928.345L229.785 893.4C227.489 890.075 225.323 886.492 224.569 882.473C225.02 881.081 226.258 880.648 227.528 879.989C229.749 878.835 232.25 877.918 234.288 876.459C243.279 870.026 249.471 858.569 252.903 848.309C256.913 836.321 256.274 825.594 254.994 813.253C254.599 809.441 254.381 805.468 253.719 801.699C253.015 799.131 253.648 795.37 253.644 792.622C253.634 784.929 254.088 777.282 256.447 769.908C258.209 764.401 260.95 759.452 263.732 754.416C264.767 752.542 266.411 750.263 267.038 748.232C267.334 747.274 267.22 746.681 267.016 745.727C265.796 743.799 264.249 743.283 262.103 742.847C255.879 741.583 249.212 741.838 242.892 740.974Q230.583 739.282 218.528 736.277Q206.472 733.271 194.809 728.988C191.944 727.954 188.737 727.059 186.037 725.658C185.815 725.542 185.595 725.422 185.373 725.304C185.853 724.22 183.729 720.69 183.233 719.364C181.442 714.569 180.476 708.95 182.626 704.142C189.631 707.294 196.188 711.398 203.264 714.517C217.529 720.805 233.561 724.105 248.834 726.868C256.682 728.288 264.808 728.236 272.568 729.929L273.239 730.08C293.913 717.107 315.226 708.738 338.387 701.22C354.531 695.517 372.154 690.132 388.971 686.929Z"/>
	<path fill="#46375A" d="M273.239 730.08C293.913 717.107 315.226 708.738 338.387 701.22C345.289 724.706 340.325 748.302 328.753 769.433C320.801 783.953 308.293 798.937 291.795 803.731Q290.875 803.994 289.944 804.215Q289.014 804.436 288.074 804.615Q287.134 804.795 286.188 804.932Q285.241 805.069 284.289 805.164Q283.337 805.258 282.382 805.311Q281.427 805.363 280.47 805.372Q279.513 805.381 278.557 805.348Q277.601 805.315 276.648 805.239Q275.694 805.163 274.745 805.044Q273.796 804.925 272.853 804.764Q271.91 804.604 270.975 804.401Q270.04 804.198 269.115 803.953Q268.19 803.709 267.277 803.423Q266.364 803.138 265.465 802.812Q264.565 802.486 263.682 802.12Q262.798 801.754 261.931 801.349C259.723 800.339 256.717 798.348 254.286 798.348C253.819 799.562 253.756 800.422 253.719 801.699C253.015 799.131 253.648 795.37 253.644 792.622C253.634 784.929 254.088 777.282 256.447 769.908C258.209 764.401 260.95 759.452 263.732 754.416C264.767 752.542 266.411 750.263 267.038 748.232C267.334 747.274 267.22 746.681 267.016 745.727C265.796 743.799 264.249 743.283 262.103 742.847C255.879 741.583 249.212 741.838 242.892 740.974Q230.583 739.282 218.528 736.277Q206.472 733.271 194.809 728.988C191.944 727.954 188.737 727.059 186.037 725.658C185.815 725.542 185.595 725.422 185.373 725.304C185.853 724.22 183.729 720.69 183.233 719.364C181.442 714.569 180.476 708.95 182.626 704.142C189.631 707.294 196.188 711.398 203.264 714.517C217.529 720.805 233.561 724.105 248.834 726.868C256.682 728.288 264.808 728.236 272.568 729.929L273.239 730.08Z"/>
	<path fill="#9F8BE8" d="M717.475 649.423C717.629 649.63 717.748 649.866 717.935 650.042C718.134 650.229 718.39 650.346 718.618 650.497L718.02 650.754C718.749 661.791 718.09 673.279 718.092 684.383Q718.029 717.585 718.393 750.782C709.17 750.79 647.224 750.196 643.653 752.568C641.474 758.716 642.869 773.162 642.962 780.22C632.378 773.938 621.807 767.728 610.809 762.194C604.666 758.878 598.292 755.655 592.59 751.616C599.741 734.202 607.356 717.021 612.875 698.982C620.358 698.795 627.162 698.263 634.253 695.692C642.341 692.758 650.117 687.551 653.665 679.41C656.514 672.872 655.87 666.224 653.281 659.78C674.969 659.63 698.162 660.887 717.475 649.423Z"/>
	<path fill="#FEFEFE" d="M631.749 568.076C641.456 566.34 651.259 568.033 659.416 573.682C670.456 581.327 681.102 597.693 696.633 594.61C700.246 593.893 703.906 592.224 707.348 590.902C709.958 597.146 713.899 601.752 720.249 604.508C725.566 606.815 731.563 607.095 736.957 604.87C738.262 604.331 739.498 603.634 740.723 602.937C736.2 619.857 728.483 635.055 712.762 644.139C694.786 654.525 670.88 652.613 650.824 652.567Q646.442 644.236 642.189 635.839C636.082 625.877 621.02 593.846 612.495 589.458L611.29 589.447C608.601 587.019 606.146 583.511 604.107 580.499C612.542 574.028 621.139 569.616 631.749 568.076Z"/>
	<path fill="#7D6332" d="M604.107 580.499C612.542 574.028 621.139 569.616 631.749 568.076C643.34 576.445 655.661 583.167 658.138 598.922C660.444 613.585 648.827 624.278 642.189 635.839C636.082 625.877 621.02 593.846 612.495 589.458L611.29 589.447C608.601 587.019 606.146 583.511 604.107 580.499Z"/>
	<path d="M645.848 590.882C648.004 591.139 649.794 591.615 651.311 593.278C652.422 594.497 652.887 596.063 652.756 597.685C652.509 600.764 650.837 602.563 648.581 604.467C647.892 604.636 647.195 604.775 646.482 604.788C645.146 604.811 643.951 604.368 643.063 603.337C642.096 602.215 641.809 600.744 641.839 599.307C641.914 595.784 643.314 593.226 645.848 590.882Z"/>
	<path fill="#46375A" d="M590.13 593.231C594.237 588.532 599.141 584.269 604.107 580.499C606.146 583.511 608.601 587.019 611.29 589.447L612.495 589.458C611.25 590.106 610.415 590.52 609.948 591.945C609.05 594.688 610.899 597.381 612.286 599.623C620.637 613.122 650.922 659.623 648.016 673.197C646.85 678.64 643.446 682.901 638.757 685.792C628.628 692.036 615.078 692.73 603.765 689.881C595.67 687.842 587.077 683.128 582.779 675.73C575.364 662.969 581.073 642.755 584.889 629.498C587.092 621.847 589.626 613.963 592.782 606.651C594.106 603.584 596.058 600.742 597.283 597.658C597.777 596.415 597.872 595.474 597.693 594.161C596.63 592.909 595.662 592.441 593.973 592.437C592.76 592.434 591.947 592.949 590.947 593.569C583.093 605.928 575.748 630.923 573.228 645.359C572.666 648.584 572.806 651.845 572.36 655.019C572.342 655.149 572.244 655.254 572.186 655.371C571.903 654.713 571.588 654.232 570.788 654.119C568.118 653.744 562.958 654.661 559.628 654.417C550.22 653.729 542.908 650.446 534.905 645.695C552.612 636.098 565.451 622.83 578.159 607.538C582.058 602.846 585.693 597.411 590.13 593.231Z"/>
	<path fill="#9F8BE8" d="M246.365 785.828C247.529 789.189 246.894 796.618 247.073 800.482C247.452 808.63 249.011 816.588 249.479 824.697Q249.798 829.546 249.333 834.383C247.82 849.144 239.526 866.895 225.318 873.199C219.196 875.915 211.44 877.748 206.298 882.138C204.352 883.799 202.776 885.852 201.94 888.287C198.582 898.064 202.691 919.454 207.109 928.63C208.374 931.258 209.912 933.874 211.654 936.215C214.776 940.413 221.657 946.379 221.243 951.808C220.803 952.438 220.604 952.987 219.858 953.289C216.262 954.742 209.681 952.848 206.097 951.622Q205.046 951.101 204.023 950.526C199.749 948.093 196.702 943.967 194.74 939.524C191.176 931.455 190.094 922.017 188.426 913.385C186.018 900.92 183.765 888.545 180.268 876.322C180.691 874.596 181.066 872.728 181.808 871.109C184.607 865.003 192.753 863.63 198.473 861.566C203.849 859.625 209.488 856.814 213.558 852.72C224.804 841.408 229.789 823.279 235.832 808.883C239.101 801.095 242.758 793.464 246.365 785.828Z"/>
	<path fill="#FEFEFE" d="M133.206 653.062C143.731 674.677 163.08 691.021 182.626 704.142C180.476 708.95 181.442 714.569 183.233 719.364C183.729 720.69 185.853 724.22 185.373 725.304Q182.256 724.019 179.241 722.512Q176.225 721.005 173.327 719.284Q170.428 717.563 167.661 715.638Q164.894 713.712 162.274 711.591C142.087 695.303 135.811 678.046 133.206 653.062Z"/>
	<path fill="#CBC3FB" d="M620.106 823.546C625.703 824.273 631.217 824.694 636.777 825.767C629.582 839.896 621.524 854.358 617.023 869.615C616.577 871.329 615.89 873.006 615.285 874.672C615.045 874.597 614.804 874.524 614.565 874.446C609.422 872.766 606.788 870.205 604.394 865.411C608.677 851.136 614.601 837.381 620.106 823.546Z"/>
	<path fill="#9F8BE8" d="M588.924 758.475C596.509 762.441 603.874 766.848 611.466 770.826C620.222 775.414 629.765 779.656 637.894 785.267C635.191 785.452 631.736 782.835 629.386 781.478C628.888 783.163 628.518 785.242 627.735 786.795C630.321 788.138 635.114 789.702 636.611 792.126C618.918 784.247 601.61 777.663 583.065 771.974C584.253 767.28 586.697 762.754 588.924 758.475Z"/>
	<path fill="#CBC3FB" d="M1024 106.222L1024 337.082L1022.98 337.242L1022.72 331.468L919.323 331.509C898.322 331.51 877.267 332.03 856.274 331.542C855.933 323.494 856.205 315.346 856.212 307.287L856.246 261.007L856.186 112.282C871.898 111.816 887.768 112.39 903.499 112.434C943.429 112.547 983.452 113.008 1023.37 112.19L1023.44 106.046L1024 106.222Z"/>
	<path fill="#CBC3FB" d="M856.134 0L1024 0L1024 75.4337L1023.5 75.3081C1019.27 74.5103 1013.88 75.1655 1009.56 75.215Q994.947 75.4065 980.332 75.4507L856.225 75.4601Q856.6 37.7295 856.134 0Z"/>
	<path d="M1022.87 337.72C1018.26 339.091 1001.33 338.216 995.741 338.223L916.212 338.043L877.253 338.33C870.847 338.356 864.212 338.707 857.828 338.191C855.353 337.991 851.948 337.74 850.262 335.727C849.697 333.629 849.525 331.527 849.464 329.362C848.978 312.026 849.46 294.526 849.481 277.171L849.497 179.404L849.505 133.105C849.509 124.886 848.597 115.377 850.226 107.323C850.799 106.572 850.951 106.16 851.85 105.774C853.677 104.991 1007.86 105.397 1019.63 105.508C1021.04 105.521 1022.11 105.523 1023.44 106.046L1023.37 112.19C983.452 113.008 943.429 112.547 903.499 112.434C887.768 112.39 871.898 111.816 856.186 112.282L856.246 261.007L856.212 307.287C856.205 315.346 855.933 323.494 856.274 331.542C877.267 332.03 898.322 331.51 919.323 331.509L1022.72 331.468L1022.98 337.242L1022.87 337.72Z"/>
	<path d="M1023.52 572.196L911.429 572.018C893.173 572.02 874.72 572.63 856.484 571.981C855.076 571.93 852.086 571.981 851.056 571.044C848.541 568.758 849.428 553.402 849.417 549.435L849.482 433.101C849.491 412.013 848.826 390.767 849.542 369.706C849.599 368.041 849.54 363.337 850.634 362.237C857.902 360.593 866.093 361.194 873.52 361.169L905.101 361.077L985.532 361.164C997.628 361.221 1009.77 360.968 1021.86 361.307C1022.85 362.347 1022.63 363.238 1022.76 364.623C1022.67 365.342 1022.76 366.636 1022.13 367.056C1020.88 367.899 1018.8 367.877 1017.35 367.918C1013.63 368.023 1009.92 367.657 1006.2 367.687Q977.59 367.794 948.981 367.467L856.313 367.862C856.497 433.596 855.054 499.448 856.162 565.166L1023.51 565.145L1023.44 569.449L1023.52 572.196Z"/>
	<path d="M849.506 0L856.134 0Q856.601 37.7295 856.225 75.4601L980.332 75.4507Q994.947 75.4065 1009.56 75.215C1013.88 75.1655 1019.27 74.5103 1023.5 75.3081L1023.44 81.9777L908.773 82.0424L872.448 82.1734C866.36 82.179 859.777 82.6401 853.762 81.855C852.248 81.6574 851.352 80.9072 850.238 79.942C848.531 75.7496 849.512 9.33381 849.506 0Z"/>
	<path fill="#CBC3FB" d="M1024 551.833L1024 569.293L1024 616.508L1023.18 615.582L1023.52 572.196L1023.44 569.449L1023.51 565.145C1023.4 561.092 1022.65 555.672 1024 551.833Z"/>
	<path fill="#CBC3FB" d="M1022.98 337.242L1024 337.082L1024 368.088C1023.22 366.969 1023.16 366.047 1023.03 364.736C1023.56 355.816 1023.57 346.632 1022.87 337.72L1022.98 337.242Z"/>
</svg>
