<?xml version="1.0" encoding="utf-8" ?>
<svg xmlns="http://www.w3.org/2000/svg" xmlns:xlink="http://www.w3.org/1999/xlink" width="1024" height="1024">
	<path fill="#9F8BE8" d="M0 0L578.347 0L592.931 0L703.414 0L716.949 0L1024 0L1024 680.484L1024 1024L0 1024L0 928.518L0 0Z"/>
	<defs>
		<linearGradient id="gradient_0" gradientUnits="userSpaceOnUse" x1="399.70465" y1="589.46515" x2="1052.4175" y2="381.87723">
			<stop offset="0" stop-color="#140C37"/>
			<stop offset="1" stop-color="#2C0F75"/>
		</linearGradient>
	</defs>
	<path fill="url(#gradient_0)" d="M578.347 0L592.931 0L703.414 0L716.949 0L1024 0L1024 680.484L869.026 680.461C869.05 666.802 869.513 652.976 868.892 639.338C867.921 659.06 868.611 679.105 868.573 698.868L868.425 811.353L868.424 845.836C868.443 852.294 868.808 858.938 868.374 865.37C868.246 867.255 867.968 870.139 866.498 871.513C864.748 873.149 776.241 871.684 764.282 872.419C772.812 885.554 786.242 905.931 796.672 917.338C804.441 925.836 816.754 935.015 822.909 943.848C825.255 947.216 826.955 951.483 826.066 955.634C825.272 959.339 822.603 962.291 819.87 964.759C812.034 971.834 802.023 976.958 793.393 983.063C783.301 990.202 774.027 998.551 763.446 1004.99C754.978 1010.14 740.669 1016.22 730.567 1013.78C726.917 1012.9 723.3 1010.43 721.413 1007.14C719.854 1004.42 719.849 1001.35 720.773 998.421C726.082 981.587 745.745 979.893 744.822 957.169C739.067 951.089 732.71 945.536 726.662 939.746C717.513 930.986 708.464 921.905 699.892 912.586C692.594 904.652 685.327 896.467 678.597 888.048C674.533 882.965 670.868 877.218 666.457 872.46Q655.883 872.31 645.308 872.323C645.282 887.547 645.685 939.957 641.672 950.934C640.27 952.279 638.884 953.647 637.446 954.953C639.895 962.198 646.27 979.817 643.031 986.754C641.534 989.959 638.164 991.689 634.957 992.708C622.127 996.787 606.844 993.248 593.494 993.956C578.71 994.741 564.172 999.116 549.356 998.542Q547.198 998.437 545.066 998.091Q542.934 997.744 540.855 997.16Q538.775 996.576 536.774 995.763Q534.773 994.949 532.876 993.916C529.396 991.997 525.624 988.927 524.596 984.894C523.912 982.213 524.8 979.639 526.28 977.398C535.901 962.835 562.903 962.916 577.064 948.756C573.285 930.414 569.553 912.198 566.337 893.742C565.324 887.928 563.134 880.311 563.597 874.453L562.641 872.745C557.383 871.354 541.512 872.313 535.502 872.327L471.622 872.462C481.788 888.784 494.005 903.761 503.975 920.236L504.135 953.676C504.16 959.257 504.985 966.269 503.726 971.683C502.113 973.214 500.218 973.617 498.056 973.916C492.531 974.682 486.31 974.114 480.707 974.086L446.114 973.975C439.787 973.977 433.222 973.616 426.924 974.228C423.697 973.711 417.509 968.858 415.397 966.365C411.444 954.076 413.848 938.324 416.065 925.858C416.059 923.085 416.902 920.137 417.62 917.466C420.509 905.869 422.805 894.555 426.596 883.16Q428.279 878.586 430.024 874.035C433.61 864.449 435.427 854.076 434 843.899C433.071 841.012 432.525 837.852 431.811 834.894L437.432 835.35C437.66 820.22 437.487 805.058 437.503 789.924C437.513 779.989 437.952 769.823 437.349 759.919C437.944 758.042 439.431 755.953 440.305 754.135C443.907 746.648 445.549 739.488 443.072 731.352C442.985 731.068 442.89 730.786 442.802 730.503C441.903 727.6 439.601 726.07 437.939 723.656C437.769 723.409 437.604 723.159 437.437 722.91C437.796 714.548 437.496 706.044 437.497 697.668L437.499 649.872C437.499 642.767 438.465 613.83 437.094 609.143C436.228 609.395 435.358 609.654 434.479 609.857C431.261 610.603 428.086 610.305 425.29 608.444C422.913 606.862 420.691 604.625 420.292 601.674C419.227 593.801 433.093 584.218 437.312 578.072C437.407 577.934 437.498 577.793 437.59 577.654C440.595 576.152 445.179 569.442 446.568 566.43C458.37 553.307 479.105 547.058 494.89 540.035C503.38 536.258 511.736 532.108 520.071 528.001C528.481 523.858 537.885 519.177 544.564 512.496C547.108 490.967 548.342 469.103 549.988 447.479C550.829 436.428 552.601 425.539 552.642 414.445C555.757 414.591 558.751 414.4 561.854 414.132C564.997 411.227 567.129 409.42 571.451 408.724C578.488 404.632 580.014 393.529 588.276 391.281L588.888 391.004C589.731 390.49 590.253 390.505 591.245 390.488C595.865 390.406 600.969 386.121 604.949 383.874Q607.047 381.816 608.786 379.447Q610.525 377.077 611.859 374.458C615.161 367.853 616.342 359.945 613.782 352.88C611.949 347.819 608.237 344.166 603.435 341.864C600.156 341.271 596.827 340.163 593.531 339.47C587.393 339.553 583.69 342.784 577.512 339.74C574.759 337.945 570.663 335.169 568.764 332.516C570.406 319.259 566.463 252.354 570.89 246.87C579.979 244.955 590.414 245.905 599.705 245.901L647.051 245.957L751.122 245.99C764.643 245.993 778.249 245.619 791.758 245.834C793.566 245.863 795.782 246.143 797.329 247.155C798.61 247.995 799.145 248.716 799.375 250.216C800.292 256.181 799.904 262.571 799.914 268.604L799.943 297.662L800.042 402.479L800.308 516.964L800.389 550.579C800.402 556.919 800.809 563.54 800.032 569.828C799.9 570.896 799.826 571.805 799.186 572.714C793.339 574.848 738.726 573.904 728.628 574.021C729.898 609.136 728.278 645.034 724.638 679.954C723.079 694.913 720.834 709.695 718.696 724.574C716.448 740.211 712.514 757.746 714.976 773.457C719.501 802.34 741.527 839.541 758.327 863.513L859.49 863.731L859.44 230.381C848.333 220.555 836.499 211.528 825.065 202.09L742.004 134.229Q659.785 67.5888 578.347 0Z"/>
	<path fill="#E8E5F7" d="M716.949 0L1024 0L1024 680.484L869.026 680.461C869.05 666.802 869.513 652.976 868.892 639.338C868.429 621.001 868.918 602.512 868.907 584.16L868.674 491.618L868.988 237.939C877.384 245.612 886.775 252.426 895.623 259.58C904.275 266.577 912.852 274.334 921.998 280.659C923.599 281.766 926.133 283.38 928.118 283.529C929.243 283.614 930.636 282.887 931.596 282.396C938.295 278.969 944.743 274.881 951.367 271.285C959.097 267.089 1003.52 244.764 1006.58 241.256C1007.32 240.401 1007.81 238.585 1007.49 237.445C1006.97 235.601 1004.44 233.676 1003.01 232.458C996.849 227.248 990.269 222.515 983.98 217.469L945.556 186.124L826.857 89.1381C790.159 59.5095 754.461 28.6331 716.949 0Z"/>
	<path fill="#9F8BE8" d="M446.542 604.136C455.558 593.471 463.898 585.882 478.631 584.752C484.535 584.299 490.677 585.328 496.67 585.083C532.824 583.608 572.26 582.866 607.093 572.251C606.337 596.671 596.22 621.609 588.585 644.607C580.186 669.906 570.805 695.225 564.344 721.1C552.179 769.819 555.914 813.963 561.84 863.11C562.965 866.127 563.829 871.216 563.597 874.453L562.641 872.745C557.383 871.354 541.512 872.313 535.502 872.327L471.622 872.462C481.788 888.784 494.005 903.761 503.975 920.236L504.135 953.676C504.16 959.257 504.985 966.269 503.726 971.683C502.113 973.214 500.218 973.617 498.056 973.916C492.531 974.682 486.31 974.114 480.707 974.086L446.114 973.975C439.787 973.977 433.222 973.616 426.924 974.228C423.697 973.711 417.509 968.858 415.397 966.365C411.444 954.076 413.848 938.324 416.065 925.858C416.059 923.085 416.902 920.137 417.62 917.466C420.509 905.869 422.805 894.555 426.596 883.16Q428.279 878.586 430.024 874.035C433.61 864.449 435.427 854.076 434 843.899C433.071 841.012 432.525 837.852 431.811 834.894L437.432 835.35C437.66 820.22 437.487 805.058 437.503 789.924C437.513 779.989 437.952 769.823 437.349 759.919C437.944 758.042 439.431 755.953 440.305 754.135C443.907 746.648 445.549 739.488 443.072 731.352C442.985 731.068 442.89 730.786 442.802 730.503C441.903 727.6 439.601 726.07 437.939 723.656C437.769 723.409 437.604 723.159 437.437 722.91C437.796 714.548 437.496 706.044 437.497 697.668L437.499 649.872C437.499 642.767 438.465 613.83 437.094 609.143C440.284 608.657 443.601 605.526 446.542 604.136Z"/>
	<path fill="#260C66" d="M446.542 604.136L446.504 777.979C446.511 786.718 445.409 831.557 447.057 836.865C449.847 839.621 452.022 843.668 454.218 846.934C458.061 852.649 461.918 858.415 466.235 863.789C475.896 863.818 559.359 864.444 561.84 863.11C562.965 866.127 563.829 871.216 563.597 874.453L562.641 872.745C557.383 871.354 541.512 872.313 535.502 872.327L471.622 872.462C481.788 888.784 494.005 903.761 503.975 920.236L504.135 953.676C504.16 959.257 504.985 966.269 503.726 971.683C502.113 973.214 500.218 973.617 498.056 973.916C492.531 974.682 486.31 974.114 480.707 974.086L446.114 973.975C439.787 973.977 433.222 973.616 426.924 974.228C423.697 973.711 417.509 968.858 415.397 966.365C411.444 954.076 413.848 938.324 416.065 925.858C416.059 923.085 416.902 920.137 417.62 917.466C420.509 905.869 422.805 894.555 426.596 883.16Q428.279 878.586 430.024 874.035C433.61 864.449 435.427 854.076 434 843.899C433.071 841.012 432.525 837.852 431.811 834.894L437.432 835.35C437.66 820.22 437.487 805.058 437.503 789.924C437.513 779.989 437.952 769.823 437.349 759.919C437.944 758.042 439.431 755.953 440.305 754.135C443.907 746.648 445.549 739.488 443.072 731.352C442.985 731.068 442.89 730.786 442.802 730.503C441.903 727.6 439.601 726.07 437.939 723.656C437.769 723.409 437.604 723.159 437.437 722.91C437.796 714.548 437.496 706.044 437.497 697.668L437.499 649.872C437.499 642.767 438.465 613.83 437.094 609.143C440.284 608.657 443.601 605.526 446.542 604.136Z"/>
	<path fill="#9F8BE8" d="M416.065 925.858C427.076 925.055 438.37 925.543 449.423 925.533C464.897 925.518 480.436 925.215 495.903 925.546L495.987 966.38L415.397 966.365C411.444 954.076 413.848 938.324 416.065 925.858Z"/>
	<path fill="#9F8BE8" d="M426.596 883.16L468.166 883.123C475.996 894.258 484.473 905.426 491.035 917.366Q454.327 917.17 417.62 917.466C420.509 905.869 422.805 894.555 426.596 883.16Z"/>
	<path fill="#9F8BE8" d="M434 843.899C436.571 843.757 439.107 843.619 441.684 843.734C448.738 853.862 455.244 864.786 462.811 874.497C457.609 874.492 433.786 875.452 430.024 874.035C433.61 864.449 435.427 854.076 434 843.899Z"/>
	<path fill="#9F8BE8" d="M592.931 0L703.414 0Q747.162 35.0211 790.192 70.9211L894.298 155.895Q933.657 187.481 972.413 219.805C979.744 225.976 988.602 231.123 995.196 238.05C985.682 243.983 974.967 248.795 965.014 254.001C952.597 260.497 940.456 267.477 928.063 273.986C917.876 264.977 906.66 256.897 896.098 248.314L818.316 184.956L592.931 0Z"/>
	<path fill="#9F8BE8" d="M588.888 391.004C601.852 390.666 624.715 400.544 635.61 406.942C642.285 410.862 648.736 415.513 654.342 420.864C686.075 451.15 717.879 518.821 722.233 562.398C690.851 582.754 647.594 594.931 611.012 601.159C613.481 590.103 615.27 579.605 616.17 568.295C633.702 558.878 646.263 547.315 652.133 527.775C659.316 503.863 654.865 476.793 646.534 453.707C644.945 449.303 643.36 444.532 641.072 440.451C640.214 438.922 639.156 436.989 637.416 436.347C636.172 435.888 634.636 435.995 633.458 436.597C632.573 437.05 632.228 437.63 631.741 438.447C630.926 442.973 637.829 455.444 639.619 460.534C642.398 468.44 644.23 476.917 645.57 485.176C650.041 512.741 645.74 538.331 621.607 555.139Q617.423 558.049 612.868 560.337Q608.314 562.624 603.481 564.243C577.74 573.052 537.113 575.366 509.825 576.027Q509.315 563.598 509.302 551.159C529.026 545.28 581.771 528.113 591.721 510.189C601.694 492.22 585.631 464.418 583.812 445.113C583.016 436.669 585.107 428.487 590.178 421.631C591.808 419.427 593.938 417.455 595.285 415.067C596.198 413.45 596.665 411.935 596.227 410.097C595.378 409.197 594.871 408.791 593.586 408.704C590.936 408.524 588.189 410.557 586.43 412.318C578.79 419.974 574.696 432.602 574.949 443.254C575.417 463.015 591.002 486.926 583.85 505.832C571.931 498.571 562.861 489.34 559.461 475.389C556.129 461.719 558.071 447.276 558.552 433.385C572.266 423.033 584.555 408.498 588.276 391.281L588.888 391.004Z"/>
	<path fill="#9F8BE8" d="M577.948 255.471L791.24 255.519L791.406 565.029C782.234 565.036 734.259 565.943 730.14 564.674C730.181 563.271 730.721 562.99 730.925 561.774C731.219 560.017 729.543 553.146 729.245 551.072Q742.073 551.028 754.9 551.139C760.079 551.181 765.692 551.632 770.819 550.951C772.651 550.708 774.379 550.338 775.877 549.208C777.448 537.795 776.526 525.375 776.518 513.842L776.453 449.556L776.312 329.361C776.278 312.25 777.015 294.954 776.428 277.867C776.357 275.803 776.266 272.244 774.995 270.62C774.661 270.194 774.16 270.103 773.667 269.94C765.673 267.311 742.644 268.733 733.223 268.733L677.209 268.811C652.189 268.884 627.129 268.324 602.118 268.581C599.638 268.606 597.005 268.559 595.196 270.5C594.169 271.602 593.951 272.693 593.782 274.146C593.073 280.23 593.573 286.808 593.573 292.952C593.572 308.418 594.025 324.02 593.531 339.47C587.393 339.553 583.69 342.784 577.512 339.74Q578.098 297.607 577.948 255.471Z"/>
	<path fill="#F9EBDB" d="M603.263 277.795C625.156 277.727 647.139 277.278 669.024 277.595L669.309 397.358L634.174 397.105C628.654 393.964 623.182 390.824 617.287 388.421C613.462 386.861 608.402 385.943 604.949 383.874Q607.047 381.816 608.786 379.447Q610.525 377.077 611.859 374.458C615.161 367.853 616.342 359.945 613.782 352.88C611.949 347.819 608.237 344.166 603.435 341.864L603.263 277.795Z"/>
	<path fill="#D6C3FA" d="M561.854 414.132C564.997 411.227 567.129 409.42 571.451 408.724C568.384 413.606 564.493 418.12 560.854 422.586L561.854 414.132Z"/>
	<path fill="#9F8BE8" d="M716.545 575.606L716.763 575.883C716.724 579.588 714.443 584.577 713.317 588.15C701.015 627.176 682.241 665.464 662.519 701.25C656.83 711.571 643.92 730.305 640.939 740.499C635.358 759.579 636.442 784.358 636.505 804.127Q637.085 848.942 636.667 893.758C636.505 910.86 636.992 929.073 634.444 945.994C619.257 954.011 602.173 952.064 586.12 948.33C584.81 944.117 583.694 939.879 582.615 935.603C575.431 908.117 572.108 878.888 568.91 850.681C564.762 814.102 562.34 776.799 568.868 740.336C572.932 717.633 580.321 695.919 587.615 674.107C594.782 652.678 602.054 631.164 608.424 609.483C615.887 608.051 623.44 607.125 630.89 605.578C660.817 599.366 689.503 589.95 716.545 575.606Z"/>
	<path fill="#9F8BE8" d="M720.235 594.862C721.4 602.076 720.236 612.487 719.986 620.049C719.509 634.458 719.032 648.949 717.863 663.321Q714.923 695.783 709.71 727.959C707.284 743.604 704.384 760.003 706.642 775.814C712.372 815.924 761.632 885.023 786.45 918.956Q783.807 923.669 780.526 927.961C772.277 938.706 762.003 947.031 748.278 948.851C744.132 945.332 740.274 941.193 736.368 937.394C703.361 904.75 669.734 870.67 651.578 827.078C648.965 820.803 646.525 814.062 645.543 807.305C643.707 794.673 645.117 757.429 648.605 745.437C651.684 734.848 658.87 724.498 664.301 714.933Q673.938 697.951 682.87 680.588Q697.557 651.585 710.161 621.618C713.787 612.805 716.605 603.676 720.235 594.862Z"/>
	<path fill="#F9EBDB" d="M699.023 277.594L767.572 277.556L767.466 397.161L699.476 397.017C698.069 386.729 699.135 369.731 699.127 358.682L699.023 277.594Z"/>
	<path fill="#F9EBDB" d="M689.219 425.545C692.354 425.61 695.622 425.535 698.731 425.912C706.611 424.787 715.503 425.564 723.509 425.566C738.144 425.569 752.814 425.363 767.445 425.621L767.425 542.1L727.45 542.159C722.387 523.499 715.823 505.494 708.383 487.646C705.855 481.583 701.819 475.978 699.737 469.796C698.666 466.613 698.924 462.976 698.895 459.65C697.26 460.43 698.199 463.253 697.079 464.753C694.204 463.136 690.644 455.926 689.536 452.797C685.542 446.642 681.448 440.553 677.551 434.335C675.386 431.789 673.743 428.684 672.013 425.824C677.763 425.569 683.464 425.455 689.219 425.545Z"/>
	<path fill="#260C66" d="M689.219 425.545C692.354 425.61 695.622 425.535 698.731 425.912C698.836 437.15 699.105 448.414 698.895 459.65C697.26 460.43 698.199 463.253 697.079 464.753C694.204 463.136 690.644 455.926 689.536 452.797C685.542 446.642 681.448 440.553 677.551 434.335C675.386 431.789 673.743 428.684 672.013 425.824C677.763 425.569 683.464 425.455 689.219 425.545Z"/>
	<path fill="#D6C3FA" d="M672.013 425.824C677.763 425.569 683.464 425.455 689.219 425.545L689.171 425.865C690.593 433.231 689.576 445.087 689.536 452.797C685.542 446.642 681.448 440.553 677.551 434.335C675.386 431.789 673.743 428.684 672.013 425.824Z"/>
	<path fill="#4B1DC0" d="M672.013 425.824C677.763 425.569 683.464 425.455 689.219 425.545L689.171 425.865L677.463 425.836L677.551 434.335C675.386 431.789 673.743 428.684 672.013 425.824Z"/>
	<path fill="#F9EBDB" d="M792.827 925.815C799.957 933.045 811.512 941.726 816.928 949.799C817.467 950.603 818.436 952.123 818.122 953.095C817.32 955.574 814.801 957.797 812.842 959.445C805.59 965.543 796.702 970.295 788.922 975.758C776.063 984.787 764.572 995.706 750.13 1002.27C747.224 1003.45 744.281 1004.8 741.174 1005.33C738.379 1005.81 732.932 1006.96 730.551 1005.14C729.476 1004.31 729.124 1003.64 729.009 1002.29C728.569 997.116 736.593 990.088 739.922 986.654C749.429 976.849 753.168 971.43 752.951 957.508C771.345 950.518 781.549 942.148 792.827 925.815Z"/>
	<path fill="#F9EBDB" d="M582.269 955.4C599.569 959.592 612.197 961.835 629.849 957.515C633.198 965.699 635.108 974.775 635.641 983.585C625.438 987.923 614.316 985.907 603.577 985.687Q594.569 985.527 585.604 986.426C576.058 987.137 566.669 989.269 557.14 990.136C550.791 990.713 539.619 990.581 534.625 986.064C533.595 985.132 532.779 983.676 532.929 982.244C533.138 980.258 535.288 977.898 536.945 976.906C544.281 972.515 555.766 970.514 564.069 966.701C570.705 963.653 576.522 959.882 582.269 955.4Z"/>
	<path fill="#D6C3FA" d="M679.122 277.728L689.596 277.787C689.654 289.881 690.579 394.729 688.935 397.108L678.311 397.093L678.282 314.855L678.291 290.905C678.282 286.735 677.931 282.488 678.321 278.337L679.122 277.728Z"/>
	<path fill="#9F8BE8" d="M707.329 405.738C727.237 405.436 747.193 405.755 767.107 405.831L767.097 417.01L710.75 416.867Q686.53 416.914 662.31 416.692Q656.476 411.454 650.467 406.417C669.4 405.814 688.373 406.296 707.329 405.738Z"/>
	<path fill="#644190" d="M479.073 556.479L479.848 556.506C481.615 559.333 480.989 571.091 480.942 575.095C471.81 576.903 461.624 578.717 453.86 584.185C450.97 586.221 448.523 588.893 445.664 591.024C443.547 590.672 441.614 590.256 439.567 591.097C435.998 592.561 433.665 596.954 432.311 600.355C432.289 600.378 432.271 600.407 432.245 600.425C431.279 601.093 431.299 601.294 430.095 601.104C429.851 600.097 429.813 599.849 430.301 598.87C432.541 594.378 437.833 590.244 441.241 586.556C455.328 571.313 458.458 563.834 479.073 556.479Z"/>
	<path fill="#9F8BE8" d="M556.031 490.445C561.447 499.015 567.8 505.963 574.906 513.114C560.588 523.654 539.348 531.034 522.689 537.688C518.443 539.459 514.138 540.93 509.777 542.382L509.707 543.552L508.554 542.728L508.661 542.458C516.343 539.767 528.736 533.483 535.703 529.378C550.926 520.407 552.313 518.288 554.451 501.01C554.868 497.636 555.034 494.142 555.914 490.856C555.951 490.719 555.992 490.582 556.031 490.445Z"/>
	<path fill="#9F8BE8" d="M499.126 553.183L499.859 553.136C500.787 554.487 501.911 573.022 502.208 576.001L493.188 576.535C492.15 576.542 491.323 576.439 490.316 576.186C488.935 571.533 489.986 560.091 490.066 554.878C493.056 554.162 496.096 553.694 499.126 553.183Z"/>
	<path fill="#D6C3FA" d="M645.222 834.341C646.062 834.972 660.501 861.123 661.975 863.896C656.457 864.221 650.866 864.162 645.333 864.387Q645.438 849.363 645.222 834.341Z"/>
	<path fill="#260C66" d="M79.6554 840.222C79.9725 821.585 79.6017 802.901 79.5557 784.258L79.4616 681.864L79.5117 344.606L79.1793 215.068L79.0383 173.815C79.0184 166.73 78.5374 159.289 79.1372 152.231C79.3121 150.173 79.8708 149.364 81.4042 148.037C87.8941 147.283 94.7152 147.72 101.249 147.752L133.617 147.876L235.286 147.617L368.851 147.958L415.483 147.879C423.737 147.866 432.309 147.351 440.51 148.068C441.961 148.195 444.315 148.26 445.482 149.212C445.679 149.372 445.82 149.591 445.964 149.8C446.749 150.929 447.066 152.18 447.168 153.537C447.549 158.584 447.22 163.894 447.2 168.962L447.049 198.572L447.014 284.397L446.542 478.996L446.496 534.295C446.473 544.981 446.098 555.759 446.568 566.43C445.179 569.442 440.595 576.152 437.59 577.654C437.498 577.793 437.407 577.934 437.312 578.072C433.093 584.218 419.227 593.801 420.292 601.674C420.691 604.625 422.913 606.862 425.29 608.444C428.086 610.305 431.261 610.603 434.479 609.857C435.358 609.654 436.228 609.395 437.094 609.143C438.465 613.83 437.499 642.767 437.499 649.872L437.497 697.668C437.496 706.044 437.796 714.548 437.437 722.91C437.604 723.159 437.769 723.409 437.939 723.656C439.601 726.07 441.903 727.6 442.802 730.503C442.89 730.786 442.985 731.068 443.072 731.352C445.549 739.488 443.907 746.648 440.305 754.135C439.431 755.953 437.944 758.042 437.349 759.919C437.952 769.823 437.513 779.989 437.503 789.924C437.487 805.058 437.66 820.22 437.432 835.35L431.811 834.894C432.525 837.852 433.071 841.012 434 843.899C435.427 854.076 433.61 864.449 430.024 874.035Q428.279 878.586 426.596 883.16C422.805 894.555 420.509 905.869 417.62 917.466C416.902 920.137 416.059 923.085 416.065 925.858C413.848 938.324 411.444 954.076 415.397 966.365C417.509 968.858 423.697 973.711 426.924 974.228C429.671 976.659 432.537 979.816 432.806 983.677C432.943 985.642 432.379 987.638 431.019 989.09C430.113 990.059 429.045 990.758 427.929 991.456C419.712 991.535 400.773 993.627 394.938 988.095C391.39 984.731 390.075 979.148 389.256 974.486C384.956 974.212 380.338 974.2 376.052 974.607C379.999 976.478 384.148 979.187 385.704 983.512C386.247 985.022 386.273 986.464 385.464 987.898C384.212 990.118 380.885 991.081 378.567 991.447C370.771 992.678 356.293 991.609 347.791 991.708C312.048 992.122 273.857 995.096 243.167 973.162C237.77 974.458 230.248 973.55 224.586 973.554L184.684 973.564L84.0544 973.532C66.2471 973.529 48.345 973.906 30.5461 973.467C27.522 973.392 24.4193 973.184 21.4594 972.533C18.5019 967.059 19.9401 937.81 19.9952 929.614L20.1602 921.933L79.6554 840.222Z"/>
	<path fill="#9F8BE8" d="M122.445 190.918C156.042 190.166 189.775 190.869 223.387 190.801L404.465 190.84L404.453 490.185C404.389 571.377 403.47 652.679 404.6 733.858C402.539 732.911 399.967 732.639 397.768 732.005C392.357 730.443 386.996 728.338 381.478 727.205C372.289 725.32 364.306 727.371 356.564 732.466C354.736 734.813 349.663 740.133 346.917 741.069C339.194 749.721 336.757 763.242 331.86 773.522C331.102 776.138 330.435 780.36 328.761 782.502C327.538 786.988 327.382 791.865 329.769 796.013C331.661 799.3 335.101 801.745 338.777 802.635C340.907 803.151 343.247 803.011 345.419 802.965C344.535 811.253 342.385 818.231 339.448 825.992C338.413 828.726 336.354 832.519 335.95 835.352L122.014 835.466L122.445 190.918Z"/>
	<path fill="#260C66" d="M328.761 782.502C315.978 781.985 303.03 782.341 290.23 782.309L207.931 782.397C202.158 782.406 176.592 783.41 172.323 782.058C171.233 781.714 170.683 780.799 170.257 779.799C168.975 776.782 169.16 618.285 169.672 604.008C169.77 601.261 169.947 598.106 171.012 595.559C172.493 594.971 173.906 594.77 175.484 594.639C185.1 593.843 195.298 594.473 204.964 594.447L265.182 594.403L320.762 594.464C330.231 594.47 340.019 593.974 349.461 594.6C351.528 594.738 353.426 594.881 355.015 596.342C356.033 597.278 356.141 598.306 356.277 599.635C357.378 610.347 356.458 626.581 356.437 637.784L356.424 697.131C356.422 708.89 356.16 720.718 356.564 732.466C354.736 734.813 349.663 740.133 346.917 741.069C339.194 749.721 336.757 763.242 331.86 773.522C331.102 776.138 330.435 780.36 328.761 782.502Z"/>
	<path fill="#F9EBDB" d="M347.407 722.155C346.838 728.382 347.084 734.81 346.917 741.069C339.194 749.721 336.757 763.242 331.86 773.522L299.057 773.498C305.677 765.355 313.5 757.94 320.76 750.365C329.713 741.025 338.407 731.452 347.407 722.155Z"/>
	<path fill="#F9EBDB" d="M330.989 603.554L347.266 603.546Q347.453 621.543 346.982 639.535C342.831 644.945 337.795 649.782 333.099 654.714L313.888 675.182L243.25 749.552C235.627 757.592 227.636 765.245 220.131 773.407L195.75 773.424L178.927 773.394L178.926 762.251C189.259 750.114 201.041 738.78 212.062 727.219L270.697 665.977Q289.75 646.371 308.603 626.573C315.969 618.86 323.183 610.817 330.989 603.554Z"/>
	<path fill="#F9EBDB" d="M266.628 603.514L317.858 603.334C306.385 617.526 291.769 631.359 279.088 644.61L204.15 722.357C195.75 731.317 187.485 740.635 178.523 749.036L178.41 694.813C188.173 683.994 198.468 673.733 208.643 663.309C228.027 643.451 247.581 623.692 266.628 603.514Z"/>
	<path fill="#F9EBDB" d="M346.9 653.388C347.91 659.303 347.358 666.203 347.384 672.24L347.49 709.271C337.674 718.288 328.837 728.691 319.707 738.419C308.672 750.178 297.275 761.568 286.366 773.449L234.088 773.497L233.765 773.206C234.641 770.106 335.126 666.142 346.9 653.388Z"/>
	<path fill="#F9EBDB" d="M221.491 603.255L254.88 603.215L194.324 665.405Q186.483 673.555 178.349 681.411C177.564 663.154 178.159 644.596 178.365 626.313C186.074 618.868 193.569 611.323 200.83 603.436L221.491 603.255Z"/>
	<path fill="#F9EBDB" d="M178.026 603.476L188.541 603.47L183.763 608.382L178.07 613.722L178.026 603.476Z"/>
	<path fill="#260C66" d="M173.324 237.587C184.903 237.164 196.614 237.49 208.206 237.478L287.265 237.622L330.665 237.582C337.652 237.578 345.426 236.926 352.346 237.9C353.799 238.105 355.064 239.256 355.851 240.441C356.62 241.601 356.483 243.693 356.496 245.061L356.603 403.446Q356.792 449.397 356.519 495.348C356.493 510.014 357.085 524.829 356.581 539.469C356.534 540.847 356.501 542.573 355.948 543.835C355.219 545.498 353.556 546.099 351.984 546.641C338.538 547.323 324.914 546.988 311.446 547.06Q269.003 547.284 226.56 547.04L191.804 547.042C184.997 547.041 177.319 547.741 170.678 546.342C170.266 545.907 169.87 545.504 169.59 544.967C168.643 543.147 168.508 540.577 168.478 538.562C168.201 519.771 168.518 500.899 168.509 482.1L168.451 361.696C168.447 351.648 167.439 244.78 168.903 241.048C169.618 239.226 171.683 238.337 173.324 237.587Z"/>
	<defs>
		<linearGradient id="gradient_1" gradientUnits="userSpaceOnUse" x1="159.91656" y1="288.67978" x2="265.08344" y2="337.32022">
			<stop offset="0" stop-color="#F8EBD7"/>
			<stop offset="1" stop-color="#F0E4E2"/>
		</linearGradient>
	</defs>
	<path fill="url(#gradient_1)" d="M177.514 247.494Q212.82 247.185 248.126 247.339Q248.39 313.351 247.873 379.361C224.445 379.576 200.905 379.668 177.481 379.32L177.514 247.494Z"/>
	<path fill="#F9EBDB" d="M277.873 247.422C286.295 246.982 294.905 247.273 303.34 247.31L347.211 247.576L347.448 379.463L277.502 379.439C277.515 335.456 276.954 291.391 277.873 247.422Z"/>
	<defs>
		<linearGradient id="gradient_2" gradientUnits="userSpaceOnUse" x1="167.69751" y1="482.00003" x2="257.10083" y2="464.94305">
			<stop offset="0" stop-color="#F5E8D6"/>
			<stop offset="1" stop-color="#EDE1E1"/>
		</linearGradient>
	</defs>
	<path fill="url(#gradient_2)" d="M177.485 408.972L247.99 408.977L248.133 538.019L177.39 537.951C176.968 494.981 177.477 451.949 177.485 408.972Z"/>
	<path fill="#F9EBDB" d="M277.488 409.011L347.344 409.32L347.211 537.837C323.855 538.118 300.447 538.004 277.088 537.842C276.606 494.943 277.46 451.919 277.488 409.011Z"/>
	<path fill="#F9EBDB" d="M257.316 247.458C260.708 247.374 264.111 247.425 267.503 247.422C267.931 264.597 267.66 281.842 267.714 299.025L267.959 379.383L257.154 379.292C256.602 335.383 257.442 291.38 257.316 247.458Z"/>
	<path fill="#F9EBDB" d="M257.067 408.996L267.669 408.996C267.824 420.399 267.73 536.461 267.437 537.008C267.286 537.289 267.023 537.494 266.816 537.737L257.296 537.731C256.737 494.842 257.13 451.892 257.067 408.996Z"/>
	<path fill="#F9EBDB" d="M191.666 388.758C210.275 388.477 228.931 388.583 247.543 388.684L247.516 399.626L232.75 399.633Q205.094 399.759 177.437 399.605L177.434 388.891C182.172 388.764 186.925 388.798 191.666 388.758Z"/>
	<path fill="#F9EBDB" d="M277.69 388.883C300.772 388.495 323.934 388.775 347.023 388.878Q347.033 394.346 346.93 399.814L277.776 399.675C277.697 396.081 277.718 392.478 277.69 388.883Z"/>
	<path fill="#F9EBDB" d="M257.121 388.741C260.683 388.659 264.264 388.755 267.828 388.78L267.792 399.819L257.092 399.715C257.036 396.06 257.102 392.397 257.121 388.741Z"/>
	<path fill="#260C66" d="M374.144 544.975Q374.606 544.912 375.071 544.871Q375.535 544.829 376.001 544.811Q376.467 544.792 376.934 544.796Q377.4 544.8 377.866 544.827Q378.331 544.854 378.795 544.903Q379.259 544.952 379.72 545.023Q380.181 545.094 380.638 545.188Q381.095 545.282 381.547 545.397Q381.999 545.513 382.444 545.65Q382.89 545.788 383.329 545.946Q383.767 546.105 384.198 546.285Q384.628 546.464 385.049 546.665Q385.47 546.865 385.882 547.085Q386.293 547.306 386.692 547.546Q387.092 547.786 387.48 548.045Q387.868 548.304 388.243 548.582Q388.618 548.859 388.979 549.154Q389.34 549.45 389.686 549.762Q390.032 550.075 390.363 550.403Q390.694 550.732 391.008 551.077Q391.323 551.421 391.62 551.78Q391.918 552.14 392.198 552.513Q392.477 552.886 392.739 553.272Q393 553.658 393.243 554.057Q393.485 554.455 393.708 554.865Q393.931 555.275 394.134 555.695Q394.336 556.115 394.519 556.544Q394.701 556.973 394.862 557.411Q395.024 557.849 395.164 558.294Q395.304 558.738 395.422 559.19Q395.54 559.641 395.637 560.097Q395.733 560.554 395.807 561.014Q395.881 561.474 395.933 561.938Q395.985 562.402 396.014 562.867Q396.044 563.333 396.05 563.799Q396.057 564.265 396.041 564.732Q396.026 565.198 395.987 565.662Q395.949 566.127 395.888 566.59Q395.828 567.052 395.745 567.511Q395.662 567.97 395.557 568.425Q395.452 568.879 395.325 569.328Q395.198 569.777 395.049 570.219Q394.901 570.661 394.731 571.096Q394.562 571.53 394.371 571.956Q394.181 572.382 393.97 572.798Q393.759 573.214 393.528 573.619Q393.298 574.024 393.048 574.418Q392.798 574.812 392.529 575.193Q392.26 575.574 391.973 575.942Q391.686 576.31 391.382 576.663Q391.078 577.017 390.757 577.355Q390.436 577.694 390.099 578.016Q389.762 578.338 389.409 578.644Q389.057 578.95 388.69 579.238Q388.324 579.527 387.944 579.797Q387.564 580.067 387.171 580.319Q386.778 580.57 386.374 580.803Q385.969 581.035 385.554 581.248Q385.139 581.46 384.714 581.652Q384.289 581.845 383.855 582.016Q383.421 582.187 382.98 582.338Q382.538 582.488 382.09 582.617Q381.642 582.745 381.188 582.852Q380.734 582.959 380.275 583.044Q379.645 583.161 379.009 583.235Q378.372 583.309 377.732 583.342Q377.093 583.374 376.452 583.363Q375.811 583.353 375.173 583.3Q374.534 583.247 373.901 583.151Q373.267 583.056 372.641 582.919Q372.016 582.782 371.4 582.604Q370.785 582.425 370.183 582.207Q369.58 581.988 368.994 581.73Q368.408 581.471 367.84 581.175Q367.272 580.878 366.725 580.545Q366.178 580.211 365.654 579.842Q365.131 579.473 364.633 579.069Q364.135 578.666 363.665 578.231Q363.195 577.796 362.754 577.33Q362.314 576.865 361.906 576.371Q361.498 575.877 361.123 575.358Q360.748 574.838 360.409 574.294Q360.07 573.751 359.767 573.186Q359.465 572.621 359.201 572.038Q358.936 571.454 358.711 570.854Q358.486 570.255 358.301 569.641Q358.117 569.028 357.973 568.403Q357.829 567.779 357.728 567.147Q357.626 566.514 357.566 565.876Q357.506 565.238 357.489 564.598Q357.472 563.958 357.497 563.317Q357.523 562.677 357.591 562.04Q357.658 561.403 357.768 560.772Q357.878 560.141 358.03 559.518Q358.181 558.896 358.374 558.285Q358.566 557.674 358.799 557.077Q359.032 556.48 359.303 555.9Q359.575 555.32 359.885 554.759Q360.195 554.198 360.541 553.659Q360.887 553.12 361.268 552.605Q361.649 552.09 362.064 551.602Q362.479 551.113 362.925 550.653Q363.371 550.193 363.846 549.764Q364.322 549.335 364.825 548.938Q365.328 548.542 365.856 548.179Q366.385 547.817 366.936 547.49Q367.487 547.163 368.059 546.874Q368.63 546.585 369.22 546.334Q369.809 546.083 370.414 545.872Q371.019 545.661 371.637 545.491Q372.254 545.32 372.882 545.191Q373.509 545.062 374.144 544.975Z"/>
	<path fill="#F9EBDB" d="M374.405 554.236Q374.728 554.152 375.056 554.089Q375.383 554.026 375.715 553.985Q376.046 553.944 376.379 553.925Q376.712 553.906 377.046 553.909Q377.38 553.912 377.712 553.937Q378.045 553.962 378.376 554.008Q378.706 554.055 379.033 554.124Q379.359 554.192 379.681 554.282Q380.002 554.372 380.317 554.483Q380.632 554.594 380.938 554.726Q381.245 554.857 381.542 555.008Q381.84 555.16 382.127 555.331Q382.413 555.501 382.688 555.691Q382.963 555.88 383.225 556.087Q383.487 556.294 383.734 556.518Q383.982 556.741 384.214 556.981Q384.446 557.221 384.662 557.475Q384.878 557.729 385.077 557.998Q385.275 558.266 385.456 558.546Q385.636 558.827 385.798 559.119Q385.96 559.411 386.102 559.713Q386.244 560.015 386.366 560.326Q386.487 560.636 386.588 560.954Q386.689 561.273 386.769 561.597Q386.849 561.921 386.907 562.249Q386.966 562.578 387.002 562.91Q387.038 563.241 387.053 563.575Q387.067 563.908 387.06 564.242Q387.052 564.575 387.023 564.908Q386.993 565.24 386.942 565.57Q386.89 565.9 386.817 566.225Q386.744 566.551 386.65 566.871Q386.556 567.191 386.44 567.504Q386.325 567.818 386.189 568.122Q386.054 568.427 385.898 568.723Q385.743 569.018 385.568 569.302Q385.393 569.587 385.2 569.859Q385.007 570.131 384.797 570.39Q384.586 570.649 384.359 570.893Q384.132 571.138 383.889 571.367Q383.646 571.596 383.388 571.808Q383.131 572.02 382.86 572.215Q382.589 572.41 382.306 572.587Q382.023 572.764 381.729 572.921Q381.435 573.079 381.131 573.217Q380.827 573.354 380.514 573.472Q380.202 573.589 379.883 573.686Q379.563 573.783 379.238 573.858Q378.998 573.913 378.757 573.957Q378.515 574.001 378.271 574.033Q378.027 574.065 377.782 574.085Q377.537 574.105 377.291 574.113Q377.045 574.121 376.799 574.118Q376.554 574.114 376.308 574.098Q376.063 574.082 375.818 574.054Q375.574 574.027 375.331 573.987Q375.089 573.948 374.848 573.896Q374.608 573.845 374.37 573.782Q374.132 573.719 373.898 573.645Q373.664 573.57 373.433 573.484Q373.203 573.399 372.977 573.302Q372.751 573.205 372.53 573.097Q372.309 572.99 372.093 572.871Q371.878 572.753 371.668 572.624Q371.459 572.495 371.256 572.357Q371.053 572.218 370.857 572.07Q370.661 571.921 370.472 571.763Q370.283 571.605 370.103 571.439Q369.922 571.272 369.75 571.096Q369.577 570.921 369.414 570.738Q369.25 570.554 369.096 570.363Q368.941 570.171 368.796 569.973Q368.651 569.774 368.516 569.569Q368.381 569.364 368.256 569.152Q368.131 568.94 368.016 568.723Q367.901 568.505 367.798 568.282Q367.694 568.059 367.601 567.832Q367.508 567.604 367.426 567.372Q367.345 567.14 367.274 566.904Q367.204 566.669 367.145 566.43Q367.086 566.191 367.039 565.95Q366.992 565.709 366.957 565.465Q366.921 565.222 366.898 564.977Q366.874 564.732 366.863 564.487Q366.851 564.241 366.852 563.995Q366.852 563.75 366.865 563.504Q366.877 563.258 366.901 563.014Q366.926 562.769 366.962 562.526Q366.998 562.283 367.046 562.041Q367.094 561.8 367.154 561.562Q367.214 561.323 367.285 561.088Q367.356 560.852 367.438 560.621Q367.521 560.389 367.615 560.162Q367.708 559.935 367.813 559.712Q367.918 559.49 368.033 559.272Q368.148 559.055 368.274 558.844Q368.4 558.633 368.536 558.428Q368.672 558.223 368.818 558.025Q368.963 557.827 369.118 557.636Q369.274 557.445 369.438 557.263Q369.602 557.079 369.775 556.905Q369.948 556.73 370.129 556.564Q370.311 556.398 370.5 556.241Q370.689 556.084 370.885 555.936Q371.082 555.788 371.286 555.65Q371.489 555.512 371.699 555.384Q371.909 555.256 372.125 555.139Q372.341 555.021 372.562 554.914Q372.784 554.807 373.01 554.711Q373.236 554.615 373.467 554.53Q373.698 554.445 373.932 554.372Q374.167 554.298 374.405 554.236Z"/>
	<path fill="#F9EBDB" d="M88.5501 156.901C101.891 156.5 115.343 156.804 128.695 156.819L203.036 156.906L437.631 157.028C438.484 201.442 437.606 246.003 437.613 290.434L437.59 577.654C437.498 577.793 437.407 577.934 437.312 578.072C433.093 584.218 419.227 593.801 420.292 601.674C420.691 604.625 422.913 606.862 425.29 608.444C428.086 610.305 431.261 610.603 434.479 609.857C435.358 609.654 436.228 609.395 437.094 609.143C438.465 613.83 437.499 642.767 437.499 649.872L437.497 697.668C437.496 706.044 437.796 714.548 437.437 722.91C435.597 721.702 433.776 720.44 431.897 719.295C425.432 722.854 419.981 727.913 413.414 731.384L413.85 407.02L413.848 264.268C413.849 238.875 414.391 213.325 413.779 187.954C413.74 186.361 413.558 184.588 412.592 183.251C411.299 181.458 406.669 181.594 404.539 181.51C391.236 180.99 377.725 181.455 364.404 181.463L285.762 181.504L176.372 181.496C158.501 181.492 140.561 181.128 122.697 181.48C120.686 181.52 118.29 181.374 116.449 182.283C115.763 182.621 114.985 183.195 114.462 183.754C112.247 186.12 113.118 191.344 113.185 194.415C113.892 226.99 113.41 259.668 113.313 292.25L113.035 436.324L112.94 835.498L88.8488 835.514L88.5501 156.901Z"/>
	<path fill="#120B2F" d="M413.414 731.384C419.981 727.913 425.432 722.854 431.897 719.295C433.776 720.44 435.597 721.702 437.437 722.91C437.604 723.159 437.769 723.409 437.939 723.656C439.601 726.07 441.903 727.6 442.802 730.503C442.89 730.786 442.985 731.068 443.072 731.352C445.549 739.488 443.907 746.648 440.305 754.135C439.431 755.953 437.944 758.042 437.349 759.919C437.952 769.823 437.513 779.989 437.503 789.924C437.487 805.058 437.66 820.22 437.432 835.35L431.811 834.894C432.525 837.852 433.071 841.012 434 843.899C435.427 854.076 433.61 864.449 430.024 874.035Q428.279 878.586 426.596 883.16C422.805 894.555 420.509 905.869 417.62 917.466C416.902 920.137 416.059 923.085 416.065 925.858C413.848 938.324 411.444 954.076 415.397 966.365C417.509 968.858 423.697 973.711 426.924 974.228C429.671 976.659 432.537 979.816 432.806 983.677C432.943 985.642 432.379 987.638 431.019 989.09C430.113 990.059 429.045 990.758 427.929 991.456C419.712 991.535 400.773 993.627 394.938 988.095C391.39 984.731 390.075 979.148 389.256 974.486C384.956 974.212 380.338 974.2 376.052 974.607C379.999 976.478 384.148 979.187 385.704 983.512C386.247 985.022 386.273 986.464 385.464 987.898C384.212 990.118 380.885 991.081 378.567 991.447C370.771 992.678 356.293 991.609 347.791 991.708C312.048 992.122 273.857 995.096 243.167 973.162C242.569 972.989 241.922 972.936 241.373 972.642C240.046 971.932 238.679 969.398 237.476 968.278C236.189 967.081 234.723 966.11 233.425 964.902C226.301 954.246 220.15 943.056 220.606 929.87Q221.449 923.507 222.174 917.13C224.413 912.07 227.773 903.293 233.309 900.991C234.255 900.597 235.322 900.334 236.278 900.842C238.059 901.788 238.734 904.02 239.146 905.859C239.96 909.49 239.632 913.536 239.564 917.247Q239.911 921.642 240.346 926.029C255.324 925.909 272.362 924.972 287.109 926.21C287.107 923.193 287.461 920.259 288.024 917.3C291.292 905.078 297.396 894.055 304.374 883.591C306.96 881.465 308.878 877.339 310.588 874.489C311.825 871.049 319.536 862.178 322.093 858.491C325.408 853.711 328.426 848.762 331.389 843.758C333.5 842.052 334.864 837.795 335.95 835.352C336.354 832.519 338.413 828.726 339.448 825.992C342.385 818.231 344.535 811.253 345.419 802.965C343.247 803.011 340.907 803.151 338.777 802.635C335.101 801.745 331.661 799.3 329.769 796.013C327.382 791.865 327.538 786.988 328.761 782.502C330.435 780.36 331.102 776.138 331.86 773.522C336.757 763.242 339.194 749.721 346.917 741.069C349.663 740.133 354.736 734.813 356.564 732.466C364.306 727.371 372.289 725.32 381.478 727.205C386.996 728.338 392.357 730.443 397.768 732.005C399.967 732.639 402.539 732.911 404.6 733.858C407.167 734.165 411.109 732.51 413.414 731.384Z"/>
	<path fill="#9F8BE8" d="M240.346 926.029C255.324 925.909 272.362 924.972 287.109 926.21C285.593 939.511 288.147 951.149 291.97 963.828C279.02 963.87 265.205 961.051 254.811 952.865C246.279 946.145 241.551 936.721 240.346 926.029Z"/>
	<path fill="#F9EBDB" d="M437.349 759.919C437.952 769.823 437.513 779.989 437.503 789.924C437.487 805.058 437.66 820.22 437.432 835.35L431.811 834.894C427.346 822.095 415.297 813.226 410.96 800.537C411.136 795.168 410.558 789.871 410.884 784.46C413.077 781.919 416.704 779.95 419.446 777.992C426.809 772.734 432.201 767.368 437.349 759.919Z"/>
	<path fill="#260C66" d="M369.878 965.754Q378.739 965.632 387.595 965.307C388.34 968.182 389.194 971.517 389.256 974.486C384.956 974.212 380.338 974.2 376.052 974.607C373.624 974.245 370.438 973.301 368.294 972.092C366.759 971.226 365.841 970.482 365.322 968.784C366.194 966.964 368.071 966.446 369.878 965.754Z"/>
	<path fill="#9F8BE8" d="M382.516 942.005C384.006 949.813 385.491 957.636 387.595 965.307Q378.739 965.632 369.878 965.754C376.516 959.201 379.6 950.647 382.516 942.005Z"/>
	<path fill="#9F8BE8" d="M405.934 788.75C407.464 787.104 409.1 785.812 410.884 784.46C410.558 789.871 411.136 795.168 410.96 800.537C408.905 796.746 407.438 792.779 405.934 788.75Z"/>
	<path fill="#644190" d="M405.015 808.526C407.783 810.935 410.229 815.795 412.566 818.861C418.39 826.5 423.815 834.197 425.309 843.924C427.848 860.448 419.489 876.178 414.927 891.631C409.211 910.987 402.273 945.101 406.331 965.217C408.555 976.245 417.446 977.93 425.577 983.437L426.174 983.845C422.401 984.016 404.36 984.766 401.927 983.475C395.194 979.9 388.098 915.732 382.415 903.662C381.531 901.785 380.614 900.602 378.634 899.858C377.109 899.933 376.603 900.053 375.339 901.029C372.452 905.646 376.073 914.046 377.001 919.084C377.409 921.302 377.359 923.733 377.223 925.978C376.35 940.46 369.703 959.942 354.9 965.555C350.85 967.09 344.874 967.297 341.6 970.218C341.068 971.464 340.849 971.867 341.25 973.246C343.048 979.429 361.182 978.278 366.729 979.375C371.075 980.235 374.989 982.039 378.928 984.005L334.293 984.033C313.361 984.049 293.212 984.241 272.843 978.665C269.095 977.389 265.337 976.036 261.718 974.428C247.96 968.316 237.412 959.555 231.95 945.233C228.329 935.737 227.272 924.998 231.536 915.514C231.494 923.29 231.884 931.016 234.423 938.433C238.816 951.27 247.657 959.434 259.711 965.194C268.23 969.265 283.974 975.203 293.353 971.618C305.292 967.055 299.235 958.435 298.573 949.689C298.196 944.714 298.9 939.687 300.248 934.9C303.702 922.64 311.089 911.647 319.887 902.567C323.258 899.087 327.614 895.705 329.668 891.216C329.289 890.408 328.751 889.812 328.196 889.119C326.913 888.464 326.252 888.254 324.815 888.567C322.18 889.139 319.638 891.479 317.664 893.229C306.315 903.29 303.103 912.469 294.887 924.23C297.012 916.677 299.157 908.864 302.638 901.813C310.751 885.375 326.053 868.894 335.979 852.702C342.606 841.889 347.431 829.907 351.596 817.968C369.507 818.346 388.798 816.586 405.015 808.526Z"/>
	<path fill="#644190" d="M431.034 728.475C431.186 728.575 431.349 728.661 431.491 728.775C434.195 730.95 435.469 735.598 435.678 738.913C437.099 761.478 409.413 772.603 396.954 787.205C392.169 788.402 387.217 788.934 382.337 789.612C383.571 788.266 385.093 786.908 385.496 785.06C385.986 782.813 374.509 747.475 372.226 744.609C371.409 743.584 370.644 742.984 369.316 742.807C367.893 743.233 366.794 744.242 366.17 745.607C364.201 749.921 373.252 772.535 375.211 778.142L378.007 785.669C372.481 786.996 343.009 794.478 339.967 793.579C338.699 793.205 338.038 792.493 337.42 791.348C335.413 787.633 337.841 781.343 339.217 777.681C344.454 763.745 350.996 743.521 365.692 737.132C376.506 732.431 382.875 738.655 393.017 740.193C398.038 740.955 401.88 739.933 406.833 741.92C416.347 739.544 423.314 734.239 431.034 728.475Z"/>
	<path fill="#F9EBDB" d="M397.955 794.077C398.869 793.932 398.371 793.906 399.43 794.323C400.851 796.558 401.417 799.208 402.151 801.732C389.543 808.536 372.471 809.91 358.287 810.568C356.732 810.543 356.038 810.817 354.841 809.772C354.42 808.542 354.143 807.472 354.148 806.163C354.157 803.8 354.045 801.448 353.948 799.087C368.745 798.488 383.636 798.179 397.955 794.077Z"/>
	<path fill="#9F8BE8" d="M60.3973 883.514L231.968 883.477L279.052 883.307C287.265 883.258 296.244 882.515 304.374 883.591C297.396 894.055 291.292 905.078 288.024 917.3C287.461 920.259 287.107 923.193 287.109 926.21C272.362 924.972 255.324 925.909 240.346 926.029Q239.911 921.642 239.564 917.247C239.632 913.536 239.96 909.49 239.146 905.859C238.734 904.02 238.059 901.788 236.278 900.842C235.322 900.334 234.255 900.597 233.309 900.991C227.773 903.293 224.413 912.07 222.174 917.13L34.7247 917.186C42.9132 905.777 51.4343 894.324 60.3973 883.514Z"/>
	<path fill="#260C66" d="M239.564 917.247C255.696 917.265 271.898 917.619 288.024 917.3C287.461 920.259 287.107 923.193 287.109 926.21C272.362 924.972 255.324 925.909 240.346 926.029Q239.911 921.642 239.564 917.247Z"/>
	<path fill="#9F8BE8" d="M29.438 925.878C41.6239 925.533 53.9006 925.834 66.0971 925.828L137.174 925.773Q169.04 925.656 200.904 925.94C205.868 926.025 210.9 925.502 215.831 925.77C217.586 925.866 219.109 926.027 220.432 927.188L220.606 929.87C220.15 943.056 226.301 954.246 233.425 964.902C225.875 965.291 218.139 964.954 210.566 964.951L167.586 964.971L29.4642 964.953L29.438 925.878Z"/>
	<path fill="#9F8BE8" d="M88.19 844.464C169.247 843.767 250.336 845.051 331.389 843.758C328.426 848.762 325.408 853.711 322.093 858.491C319.536 862.178 311.825 871.049 310.588 874.489L67.1619 874.483C71.8928 865.012 81.7525 853.299 88.19 844.464Z"/>
	<path fill="#080704" d="M490.515 340.649C492.573 333.746 496.754 327.742 502.11 322.958C510.168 315.762 521.795 312.193 532.515 312.863C547.9 313.824 558.859 321.256 568.764 332.516C570.663 335.169 574.759 337.945 577.512 339.74C583.69 342.784 587.393 339.553 593.531 339.47C596.827 340.163 600.156 341.271 603.435 341.864C608.237 344.166 611.949 347.819 613.782 352.88C616.342 359.945 615.161 367.853 611.859 374.458Q610.525 377.077 608.786 379.447Q607.047 381.816 604.949 383.874C600.969 386.121 595.865 390.406 591.245 390.488C590.253 390.505 589.731 390.49 588.888 391.004L588.276 391.281C580.014 393.529 578.488 404.632 571.451 408.724C567.129 409.42 564.997 411.227 561.854 414.132C558.751 414.4 555.757 414.591 552.642 414.445C544.472 410.473 543.73 425.798 535.432 427.407C528.417 428.767 514.478 416.009 508.517 412.014C506.936 412.232 505.334 412.458 503.741 412.556C502.108 412.656 500.549 412.343 499.409 411.042C497.371 408.717 498.993 400.113 499.05 396.909C490.945 390.629 482.233 387.82 476.955 378.234C473.63 372.197 472.237 364.531 474.291 357.868C476.802 349.721 483.337 344.552 490.515 340.649Z"/>
	<path fill="#644190" d="M538.088 357.526C539.912 357.358 541.841 357.174 543.56 357.96C545.688 358.933 547.888 361.698 548.582 363.917C550.848 371.158 540.651 371.776 538.469 376.054C538.561 376.179 538.637 376.318 538.745 376.428C540.43 378.14 544.295 378.134 546.573 378.35C544.858 388.439 540.303 397.706 543.335 408.036C541.913 411.119 540.66 414.495 538.212 416.922C536.28 418.838 534.017 419.89 531.265 419.747C523.619 419.348 515.617 411.251 510.903 405.855L510.287 405.264C508.472 405.123 506.507 406.237 504.851 406.922C505.264 404.235 505.804 401.665 506.492 399.037C497.157 379.911 493.511 384.79 493.019 360.281C498.48 366.721 505.805 371.612 514.203 373.146C520.744 374.341 526.582 373.324 532.102 369.536C533.019 364.114 533.509 361.032 538.088 357.526Z"/>
</svg>
