<?xml version="1.0" encoding="utf-8" ?>
<svg xmlns="http://www.w3.org/2000/svg" xmlns:xlink="http://www.w3.org/1999/xlink" width="1024" height="1024">
	<path fill="#9F8BE8" d="M0 0L1024 0L1024 195.054L1024 260.957L1024 269.946L1024 299.489L1024 334.662L1024 340.487L1024 398.636L1024 409.211L1024 450.078L1024 566.236L1024 573.716L1024 1024L903.216 1024L897.07 1024L677.15 1024L670.231 1024L632.871 1024L626.284 1024L539.599 1024L533.171 1024L503.173 1024L497.126 1024L370.808 1024L364.728 1024L320.358 1024L314.331 1024L179.822 1024L173.43 1024L72.8408 1024L66.9307 1024L0 1024L0 780.811L0 727.341L0 695.079L0 629.459L0 583.267L0 0Z"/>
	<path fill="#010100" d="M767.319 226.465C771.333 221.371 776.219 217.549 782.239 215.074C791.811 211.139 802.11 210.766 811.703 214.779C823.313 219.636 829.847 228.241 834.493 239.587C842.088 236.472 849.82 235.171 857.926 237.089C866.486 239.113 873.584 244.702 878.137 252.161C883.753 261.365 883.511 270.604 881.094 280.733Q883.072 280.867 885.034 281.153C893.364 282.417 900.573 286.204 905.597 293.134C911.83 301.732 911.853 309.751 910.18 319.901L915.429 321.069C923.345 323.472 929.402 328.338 933.333 335.601Q934.104 337.042 934.735 338.549Q935.367 340.056 935.854 341.615Q936.34 343.175 936.678 344.774Q937.016 346.373 937.201 347.996C937.171 359.641 934.487 368.02 926.107 376.358C930.157 380.286 932.219 385.178 934.666 390.157C937.202 402.621 936.72 414.428 929.558 425.357Q926.657 429.775 922.843 433.434C917.452 437.621 912.273 439.32 905.741 441.029C907.523 449.937 906.385 457.698 901.32 465.334C900.612 466.4 899.828 467.418 899.043 468.428C891.527 476.839 884.034 480.996 873.504 484.758L874.319 485.233C877.077 484.452 881.87 481.882 884.43 482.002L884.768 482.849C883.697 485.265 875.008 486.624 875.553 488.696C884.623 484.48 893.735 480.778 903.404 478.164C910.291 484.627 916.142 492.839 921.714 500.446C924.174 503.805 926.549 507.554 929.489 510.509C930.52 511.545 931.659 512.029 933.003 512.523C934.914 513.034 936.681 513.706 938.51 514.456L951.157 520.256C958.123 522.891 964.456 527.299 971.331 529.808C990.563 540.06 1008.23 551.068 1024 566.236L1024 573.716L1024 1024L903.216 1024L897.07 1024L677.15 1024L670.231 1024L632.871 1024L626.284 1024L539.599 1024L533.171 1024L503.173 1024L497.126 1024C499.165 1013.21 501.745 1001.74 505.332 991.337C501.027 989.058 495.214 988.135 491.753 984.605C491.181 979.494 504.726 946.34 507.398 939.619Q509.647 935.293 512.07 931.063C515.889 924.514 520.229 917.999 525.79 912.785C536.422 902.815 557.112 894.671 571.112 891.031C570.261 887.212 569.024 883.437 567.929 879.679C560.8 878.779 553.5 878.021 546.947 874.856C538.165 870.614 531.894 863.591 528.749 854.361C521.514 833.127 531.455 813.54 541.232 795.105C547.314 783.638 553.989 772.27 559.632 760.612C558.393 760.056 557.175 759.474 555.996 758.797C552.133 756.576 549.622 752.605 548.576 748.327C547.192 742.665 548.46 736.647 551.649 731.808C555.174 726.461 559.868 724.19 565.939 722.999C567.541 717.606 569.508 712.179 574.802 709.354C580.437 706.347 586.204 708.285 591.875 709.94C591.972 709.853 592.068 709.764 592.166 709.678L592.659 709.252C594.754 707.412 596.891 706.019 599.493 705.006C603.785 703.335 608.269 704.226 612.354 706.067C613.54 706.602 613.447 706.423 614.639 706.125C618.567 703.761 623.423 702.886 627.901 703.97C633.267 705.269 637.055 708.676 639.751 713.345Q640.086 713.926 640.412 714.511C645.89 712.162 651.918 710.045 657.818 712.431C662.95 714.507 665.701 723.01 668.789 721.862C668.924 721.811 669.652 721.31 669.748 721.248C671.703 719.996 674.437 720.113 676.645 720.571C680.569 721.385 683.545 724.102 685.539 727.477C687.317 730.486 687.999 733.696 688.506 737.109C692.941 737.468 697.143 737.781 700.293 741.351C701.181 742.356 702.042 743.663 702.589 744.891C705.601 744.106 709.237 744.116 712.357 743.652C723.555 741.987 730.93 738.151 740.05 731.488C742.237 722.148 744.422 712.852 746.833 703.565C756.844 665.546 766.93 628.346 782.603 592.159C777.356 584.305 772.452 573.565 765.147 567.515C755.459 559.49 734.448 562.94 723.678 566.916C719.973 568.283 716.472 570.592 712.943 572.374C704.672 576.549 694.517 579.322 685.375 576.478C670.64 571.893 671.897 560.135 666.195 549.414C666.109 549.252 666.017 549.093 665.928 548.932C662.02 546.21 657.174 544.852 653.055 542.468C650.698 541.104 647.891 539.113 647.434 536.201C647.079 533.937 648.62 532.506 649.941 530.895C648.62 527.469 647.165 524.442 644.984 521.473C639.62 519.253 636.576 517.593 633.482 512.567C634.165 509.984 635.486 506.951 635.298 504.27C634.498 492.835 621.279 499.975 615.241 494.5C608.09 488.018 618.802 477.878 622.207 472.192C625.081 467.395 627.51 462.078 628.08 456.457C629.074 446.652 619.258 431.364 616.092 421.473C613.124 412.203 611.505 402.782 610.813 393.079C609.163 369.938 615.922 342.572 631.337 324.787C624.733 319.462 619.672 313.298 617.982 304.77Q617.829 303.989 617.715 303.202Q617.6 302.414 617.525 301.622Q617.449 300.83 617.413 300.035Q617.376 299.24 617.379 298.444Q617.382 297.648 617.423 296.854Q617.465 296.059 617.546 295.267Q617.627 294.476 617.747 293.689Q617.866 292.902 618.025 292.122Q618.183 291.343 618.379 290.571Q618.576 289.8 618.81 289.04Q619.044 288.279 619.315 287.531Q619.587 286.783 619.895 286.049Q620.202 285.315 620.546 284.598Q620.889 283.88 621.268 283.18Q621.646 282.48 622.058 281.799Q622.471 281.118 622.916 280.459C628.782 271.691 636.451 267.357 646.643 265.283C647.18 263.376 648.007 261.486 648.785 259.667C652.73 250.438 660.464 242.612 669.839 238.929C680.062 234.914 689.445 236.218 699.298 240.504C701.616 233.021 704.988 227.082 710.908 221.846Q711.652 221.193 712.427 220.577Q713.202 219.961 714.007 219.384Q714.811 218.807 715.643 218.27Q716.475 217.734 717.333 217.239Q718.19 216.744 719.071 216.292Q719.952 215.841 720.854 215.433Q721.756 215.025 722.678 214.662Q723.599 214.299 724.537 213.982Q725.475 213.666 726.427 213.395Q727.38 213.125 728.344 212.902Q729.309 212.68 730.283 212.505Q731.258 212.33 732.24 212.203Q733.222 212.076 734.208 211.998Q735.195 211.92 736.185 211.891Q737.175 211.862 738.165 211.882Q739.154 211.901 740.142 211.97C751.681 212.762 759.905 217.855 767.319 226.465Z"/>
	<path fill="#9F8BE8" d="M677.15 1024C679.924 1014.67 683.734 1005.38 686.951 996.172L704.694 943.747Q740.616 837.442 772.367 729.818C793.554 657.599 818.238 591.981 881.488 546.271C896.781 535.22 913.585 526.462 930.109 517.434C963.513 531.246 998.54 547.306 1024 573.716L1024 1024L903.216 1024L897.07 1024L677.15 1024Z"/>
	<path fill="#010100" d="M897.07 1024C899.801 1011.68 902.985 999.436 905.455 987.058C920.237 912.995 933.647 806.134 915.44 732.021C910.736 712.872 902.602 692.981 892.005 676.34C880.678 658.551 864.637 641.794 843.378 637.065C839.627 636.231 834.634 635.152 830.8 635.48C828.386 635.687 825.583 636.596 823.204 636.409C822.069 636.32 821.802 635.956 821 635.228C820.484 633.967 820.465 633.413 820.734 632.08C822.435 630.048 824.992 629.914 827.545 629.681C844.19 628.164 861.523 635.356 874.024 645.999C911.144 677.599 925.431 733.419 928.964 780.209C932.919 832.603 928.009 885.507 920.374 937.355C918.298 951.449 914.947 965.42 913.084 979.513C953.734 912.92 969.391 834.218 976.329 757.451C977.608 743.294 979.269 728.893 979.689 714.69C979.808 710.68 979.087 706.321 982.825 703.71C984.197 703.475 984.152 703.444 985.331 704.177C987.416 707.923 985.17 723.911 984.809 728.887C980.907 782.684 974.192 835.615 959.367 887.596C951.855 913.932 941.863 940.99 928.695 965.043C925.08 971.648 921.365 978.353 917.23 984.646C915.242 987.672 912.23 990.329 910.842 993.699C907.499 1001.81 905.923 1014.85 903.216 1024L897.07 1024Z"/>
	<path fill="#9F8BE8" d="M649.188 888.48C662.012 892.86 675.543 897.517 686.997 904.871C693.493 909.042 699.346 914.742 706.283 918.125C699.44 943.13 689.394 969.985 680.595 994.557C673.802 994.852 667.001 995.105 660.249 995.955C651.273 997.084 642.305 998.898 633.283 999.543C635.416 993.841 638.011 988.33 640.414 982.739C647.152 967.068 653.834 950.576 664.642 937.177Q667.396 933.734 670.569 930.674Q673.742 927.613 677.283 924.986C679.396 923.413 684.145 921.292 685.407 919.075C686.122 917.819 685.835 917.536 685.381 916.263C684.192 915.585 683.616 915.44 682.251 915.774C679.553 916.435 676.703 918.474 674.441 920.056C662.536 928.383 654.667 939.71 647.902 952.375C644.487 958.768 625.569 998.281 627.249 1002.79C627.556 1003.62 628.536 1004.25 629.337 1004.49C630.857 1004.96 632.476 1005.01 634.053 1005.07C631.249 1011.29 628.787 1017.65 626.284 1024L539.599 1024C539.572 1019.21 540.359 1002.2 537.972 999.088C536.349 996.975 504.225 984.589 498.138 981.329C505.335 960.945 513.571 931.204 529.715 916.342C533.71 912.664 538.374 910.264 543.237 907.941C552.662 903.439 562.329 899.715 572.02 895.846C568.443 906.993 557.227 931.648 562.62 942.821C564.527 946.772 568.646 948.737 572.645 949.959C584.416 953.555 596.462 950.903 607.086 945.17C624.758 935.634 642.292 916.391 647.857 896.835C648.636 894.098 648.988 891.313 649.188 888.48Z"/>
	<path fill="#9F8BE8" d="M740.05 731.488C735.884 754.166 730.187 776.283 726.865 799.161Q722.55 828.761 719.817 858.548C719.066 866.505 719.714 876.132 718.017 883.737C715.878 893.328 711.531 903.705 707.718 912.781Q702.372 909.083 697.298 905.02C691.574 900.859 685.222 897.434 679.111 893.87C669.389 889.385 659.479 885.502 649.124 882.753C648.332 877.486 647.992 872.115 647.497 866.812C662.797 869.954 659.166 863.312 669.603 858.708C669.749 858.644 669.898 858.584 670.046 858.522C672.892 858.544 675.602 857.487 677.961 855.925C683.324 852.374 685.506 846.428 686.746 840.418C690.941 839.319 694.3 838.004 697.47 834.917C701.658 830.838 703.047 826.116 703.111 820.46L702.344 814.824C704.294 813.723 706.328 812.647 707.909 811.034C711.669 807.197 714.069 801.587 713.975 796.189C713.901 791.931 712.257 789.057 709.334 786.101Q710.217 784.831 711.014 783.504C713.798 778.767 714.759 772.843 713.276 767.516C711.812 762.255 708.518 759.192 703.952 756.594C704.047 752.511 703.711 748.823 702.589 744.891C705.601 744.106 709.237 744.116 712.357 743.652C723.555 741.987 730.93 738.151 740.05 731.488Z"/>
	<path fill="#6C5782" d="M767.368 462.201C769.627 461.97 771.911 461.821 773.987 460.828C774.274 460.691 774.557 460.545 774.842 460.404C776.491 462.055 777.068 465.651 778.007 467.855C781.165 475.27 787.491 483.271 794.214 487.77C802.69 493.443 812.101 494.653 821.979 492.625C832.17 490.534 837.638 484.373 843.058 476.163C844.939 478.252 847.219 480.255 849.536 481.855C857.183 487.136 864.907 486.36 873.504 484.758L874.319 485.233C877.077 484.452 881.87 481.882 884.43 482.002L884.768 482.849C883.697 485.265 875.008 486.624 875.553 488.696C873.013 490.643 869.638 492.155 866.853 493.818Q858.881 498.593 851.384 504.085Q847.737 506.812 844.213 509.695Q840.689 512.578 837.294 515.613Q833.899 518.647 830.64 521.826Q827.38 525.006 824.263 528.324Q821.145 531.643 818.175 535.094Q815.204 538.545 812.388 542.123Q809.571 545.7 806.913 549.397Q804.254 553.094 801.76 556.903C795.819 566.163 790.755 576.092 785.685 585.848C779.354 577.071 776.361 568.552 767.118 562.013C771.483 539.176 770.987 517.089 769.799 493.988C769.254 483.387 768.765 472.73 767.368 462.201Z"/>
	<path fill="#6C5782" d="M640.135 1004.85C653.137 1003.73 665.8 1000.55 678.904 1000.42C676.111 1008.33 673.589 1016.3 670.231 1024L632.871 1024C635.151 1017.58 637.277 1011.05 640.135 1004.85Z"/>
	<path fill="#6C5782" d="M510.828 993.573C518.008 996.856 525.155 1000.13 532.543 1002.93Q532.91 1013.46 533.171 1024L503.173 1024L510.828 993.573Z"/>
	<path fill="#382843" d="M735.384 218.194C747.263 217.497 755.439 221.432 762.696 230.778C763.797 232.197 765.115 234.208 766.859 234.877C767.501 235.123 768.202 235.255 768.786 234.853C769.972 234.035 770.851 232.551 771.724 231.415C774.896 227.29 778.072 223.94 782.848 221.584C790.91 217.605 800.619 217.409 809.061 220.291Q809.746 220.529 810.418 220.801Q811.09 221.074 811.747 221.38Q812.405 221.687 813.045 222.026Q813.686 222.366 814.308 222.738Q814.931 223.11 815.534 223.513Q816.136 223.917 816.718 224.35Q817.299 224.784 817.857 225.247Q818.416 225.709 818.95 226.2Q819.484 226.691 819.992 227.208Q820.5 227.725 820.981 228.268Q821.462 228.811 821.915 229.377Q822.368 229.944 822.791 230.533Q823.214 231.122 823.607 231.731Q823.999 232.341 824.36 232.97Q824.721 233.599 825.049 234.246Q825.377 234.892 825.672 235.555C826.909 238.326 827.801 241.276 829.194 243.974C829.852 245.248 830.725 246.335 832.259 246.435C834.305 246.567 836.838 245.337 838.743 244.681C844.693 242.63 851.824 241.136 857.991 243.269C869.808 247.356 877.022 258.414 876.266 270.869C876.013 275.032 872.533 281.944 874.362 285.59C876.262 286.553 879.475 286.26 881.636 286.408C888.7 286.893 895.06 289.541 899.705 295.058C903.066 299.049 906.757 307.597 905.315 313.022C904.387 316.512 902.521 319.874 902.216 323.491C904.162 326.226 910.826 326.311 914.042 327.371Q916.366 328.154 918.51 329.346Q920.653 330.537 922.545 332.098C927.851 336.482 930.378 342.606 930.892 349.346C931.51 357.435 928.795 364.207 923.404 370.138C921.857 371.84 919.536 373.788 918.338 375.713C918.179 375.969 918.099 376.265 917.979 376.541L917.489 376.83C918.575 379.266 921.242 381.13 923.051 383.099C928.35 388.868 930.25 396.622 929.877 404.29C929.286 416.459 921.77 429.248 909.986 433.584C906.518 434.86 901.411 434.829 898.639 437.347C898.344 438.892 898.865 440.314 899.207 441.816C900.91 449.307 900.141 455.368 895.937 461.933C890.5 470.423 879.36 477.232 869.579 479.252C860.543 481.119 854.449 478.9 848.249 472.311C846.442 470.39 844.768 468.315 842.552 466.858C841.065 467.41 835.163 477.391 833.299 479.487C831.294 481.74 829.217 483.273 826.635 484.764C825.542 485.264 824.435 485.784 823.296 486.173C816.248 488.582 807.965 488.283 801.272 484.971C788.926 478.861 782.993 465.56 778.849 453.211C783.137 447.193 785.228 440.602 786.358 433.331C788.745 417.973 787.413 397.017 777.797 384.1C774.734 379.986 770.452 376.73 765.246 376.092C756.671 375.041 747.348 382.487 742.982 389.481C741.368 392.067 739.963 396.787 737.38 398.474C733.356 401.103 725.982 399.886 721.494 398.852C716.678 397.743 711.521 395.314 707.946 391.867C695.841 380.197 706.609 369.92 703.053 364.202C699.143 363.235 690.614 365.991 683.539 364.558C676.48 363.128 669.306 359.554 665.395 353.295C660.029 344.709 663.067 337.399 664.832 328.525C665.17 326.828 665.17 325.989 664.188 324.559C661.832 323.772 658.153 325.46 655.54 325.706Q654.826 325.771 654.11 325.802Q653.394 325.832 652.677 325.829Q651.96 325.826 651.244 325.789Q650.528 325.751 649.815 325.68Q649.102 325.609 648.393 325.504Q647.683 325.4 646.98 325.261Q646.277 325.123 645.581 324.951Q644.885 324.78 644.197 324.575Q643.51 324.371 642.834 324.134Q642.157 323.897 641.492 323.629Q640.828 323.36 640.177 323.061Q639.526 322.761 638.889 322.43Q638.253 322.1 637.633 321.74Q637.013 321.38 636.411 320.991Q635.809 320.602 635.226 320.185Q634.644 319.767 634.081 319.323C628.432 314.768 624.075 307.576 623.473 300.279C622.899 293.317 625.035 287.042 629.53 281.739C635.73 274.425 642.226 272.102 651.514 271.386C653.966 263.389 656.495 256.05 662.866 250.263C670.14 243.656 682.554 241.191 691.961 244.277C695.174 245.331 698.82 247.578 702.156 247.764C705.651 245.381 707.783 234.584 711.881 229.595C717.814 222.37 726.307 219.076 735.384 218.194Z"/>
	<path fill="#6C5782" d="M636.243 327.86C643.737 331.037 649.774 331.62 657.789 331.713C657.381 334.673 656.794 337.645 656.698 340.637C656.457 348.161 658.785 355.427 664.111 360.88C673.023 370.005 684.655 370.939 696.691 370.997Q696.33 373.838 696.092 376.691C695.586 383.178 697.249 389.066 701.599 393.997C708.141 401.413 718.301 405.135 727.978 405.76C730.192 405.904 733.484 405.389 735.529 405.937C736.901 406.305 736.859 409.106 737.79 410.301C738.24 410.878 738.249 410.696 739.1 410.862C742.782 409.129 745.024 398.751 747.018 394.901C748.929 391.212 751.381 387.779 754.545 385.058C756.887 383.044 759.692 381.388 762.897 381.731C767.037 382.175 771.072 385.384 773.571 388.546C781.611 398.717 781.762 419.892 780.103 432.124C778.735 442.215 775.995 451.021 767.576 457.394C766.738 456.035 766.033 454.954 764.811 453.916C763.51 453.583 763.421 453.448 762.22 453.996C761.346 455.433 761.072 456.813 761.029 458.497C760.94 461.939 761.565 465.49 761.796 468.927C762.327 476.846 762.257 484.641 761.101 492.502C757.3 518.355 741.26 545.955 720.095 561.425C711.057 568.032 700.329 573.437 688.806 571.353C683.769 570.442 680.55 567.901 677.724 563.758C675.529 559.329 674.498 554.534 672.704 549.959C669.568 541.96 660.775 540.583 653.624 537.429Q655.487 536.901 657.319 536.274C667.9 532.606 674.538 523.414 679.22 513.736C682.578 506.795 687.63 493.684 684.987 486.056C683.99 485.094 684.058 485.142 682.669 485.124C681.531 485.92 681.328 486.704 680.721 487.913C679.476 490.394 677.924 493.812 675.889 495.704C669.047 502.062 648.614 511.33 639.406 514.353C640.724 509.775 641.755 505.09 640.776 500.326C638.172 487.654 626.3 494.488 619.991 490.231C619.358 489.045 619.208 488.63 619.68 487.326C620.73 484.424 623.198 481.649 624.983 479.163C630.056 472.096 633.939 463.755 634.137 454.909C634.363 444.802 625.687 430.606 622.285 420.613C619.247 411.689 617.818 402.574 617.284 393.186C627.546 389.669 638.105 387.153 647.86 393.868C649.525 395.014 651.008 397.109 653.017 397.53C654.127 397.762 654.806 397.716 655.785 397.126C655.855 396.812 655.987 396.505 655.997 396.183C656.038 394.897 655.011 393.221 654.324 392.202C651.127 387.455 644.95 385.02 639.472 383.967C631.34 382.404 623.667 384.209 616.795 388.735C617.064 366.556 622.362 345.478 636.243 327.86Z"/>
	<path fill="#010100" d="M763.863 392.877C765.237 392.933 765.977 393.353 767.169 393.972C769.354 397.832 759.163 401.3 758.529 407.888C757.717 416.33 767.091 422.844 765.658 431.52C765.185 434.379 763.869 436.197 761.559 437.866C760.128 437.384 759.167 437.133 758.222 435.862C757.52 432.98 760.093 430.41 759.495 427.349C757.962 419.512 750.65 415.632 753.087 405.602C754.453 399.98 759.08 395.733 763.863 392.877Z"/>
	<path fill="#010100" d="M632.08 422.217C635.258 421.793 638.322 421.722 641.503 422.092C646.922 422.721 662.628 426.668 665.433 431.367C665.974 432.272 666.142 432.982 665.78 433.999C665.244 435.508 664.111 436.156 662.818 436.907C656.476 433.737 651.17 428.084 642.936 427.73C639.241 427.571 635.574 428.208 631.881 427.748C630.75 426.883 630.534 426.763 630.04 425.447C630.505 423.657 630.799 423.455 632.08 422.217Z"/>
	<path fill="#010100" d="M639.441 429.043C640.728 429.011 642.014 428.997 643.281 429.258Q643.715 429.35 644.137 429.485Q644.559 429.621 644.965 429.799Q645.37 429.977 645.756 430.196Q646.141 430.415 646.502 430.672Q646.863 430.929 647.196 431.222Q647.529 431.515 647.83 431.84Q648.131 432.166 648.397 432.52Q648.663 432.875 648.891 433.255C650.057 435.188 650.328 437.406 649.694 439.568C648.821 442.542 646.863 443.93 644.266 445.371C642.969 445.452 641.626 445.572 640.366 445.179C637.969 444.433 635.904 442.446 634.862 440.188C633.892 438.087 633.726 435.604 634.581 433.437C635.518 431.065 637.206 430.04 639.441 429.043Z"/>
	<path fill="#010100" d="M638.629 483.948C639.491 484.004 640.429 484.048 641.259 484.301C643.268 484.914 645.302 487.079 646.068 488.988C646.852 490.944 646.74 492.13 645.948 494.055C644.813 494.193 643.911 494.223 642.82 493.802C640.781 493.014 639.055 490.873 638.373 488.854C637.736 486.968 637.756 485.719 638.629 483.948Z"/>
	<path fill="#6C5782" d="M581.95 762.789C586.013 764.816 589.284 765.109 593.696 764.302C598.043 766.818 602.76 769.315 607.957 767.987C608.529 767.841 609.088 767.657 609.646 767.469C613.521 772.363 616.649 776.047 623.2 776.823C624.597 776.988 625.883 776.973 627.125 777.73L627.444 778.428C629.848 783.63 634.46 783.716 635.964 787.209C638.026 792.001 633.557 797.072 635.492 802.141C637.25 806.745 645.383 811.143 643.598 816.407C642.651 819.201 639.801 822.586 641.278 825.709C641.604 826.397 641.948 827.019 642.726 827.19C648.323 828.419 657.92 820.828 663.568 828.089C665.803 830.963 666.371 837.047 665.836 840.531C664.933 846.419 660.045 851.512 655.281 854.751C651.156 857.555 644.936 860.593 639.853 859.388C636.15 858.51 633.273 854.314 629.755 854.044C628.788 854.677 628.356 854.882 628.269 856.175C628.138 858.121 629.176 860.001 630.57 861.265C633.684 864.089 637.878 865.071 641.888 865.867C642.33 872.577 643.474 879.433 643.465 886.141C643.447 899.473 635.026 912.322 626.57 922.02C616.358 933.733 601.586 944.673 585.541 945.67C580.456 945.985 573.372 945.699 569.34 942.277C567.518 940.73 566.733 938.699 566.597 936.351C565.803 922.594 576.205 907.929 577.827 893.858C593.642 886.806 606.971 876.87 616.348 862.072C602.011 870.966 589.906 874.469 572.921 873.962C567.714 873.806 562.424 873.574 557.328 872.417C549.017 870.528 541.769 866.314 537.187 858.894C531.199 849.195 531.124 836.483 533.727 825.693Q535.163 819.73 537.565 814.086C539.515 809.607 556.427 776.233 559.102 774.396C560.188 773.65 561.309 773.636 562.552 773.937C565.218 774.583 567.125 777.574 568.507 779.694C569.749 779.89 569.872 779.819 571.024 779.29C571.846 777.792 571.66 776.464 571.223 774.868C570.799 773.321 570.052 771.997 569.227 770.635L569.21 766.454C574.256 766.61 577.633 765.311 581.95 762.789Z"/>
	<path fill="#010100" d="M544.628 825.139C546.698 825.92 547.933 828.931 549.501 830.501C555.642 836.649 567.525 835.837 575.005 832.556C577.753 831.351 581.62 828.23 584.675 828.567C585.907 828.704 586.168 829.255 586.808 830.168C586.848 831.759 586.478 831.88 585.507 833.081C581.421 836.089 577.055 838.316 572.118 839.541C564.124 841.524 555.566 840.864 548.442 836.463C546.041 834.98 543.93 833.147 543.293 830.281C542.785 827.995 543.407 826.981 544.628 825.139Z"/>
	<path fill="#010100" d="M589.697 797.425C589.889 797.465 590.084 797.492 590.274 797.544C591.936 798 593.477 799.04 594.315 800.573C595.247 802.278 595.159 804.233 594.551 806.03C593.407 809.414 591.318 811.277 588.159 812.755C587.324 812.723 586.305 812.752 585.501 812.533Q585.283 812.475 585.072 812.395Q584.861 812.315 584.66 812.213Q584.458 812.112 584.269 811.99Q584.079 811.868 583.902 811.728Q583.726 811.587 583.565 811.429Q583.404 811.271 583.261 811.097Q583.117 810.923 582.992 810.735Q582.867 810.548 582.762 810.348C581.984 808.889 582.105 807.1 582.576 805.568C583.789 801.62 586.084 799.233 589.697 797.425Z"/>
	<path fill="#010100" d="M597.582 781.117C602.126 780.787 605.146 781.113 609.042 783.727C611.961 785.684 614.745 788.669 615.302 792.256C615.706 794.858 615.414 796.169 613.853 798.212C613.53 798.109 613.204 798.013 612.883 797.903C609.341 796.686 609.354 791.278 606.194 788.959C603.518 786.995 597.736 787.2 596.226 784.214C596.287 782.703 596.687 782.255 597.582 781.117Z"/>
	<path fill="#010100" d="M652.806 831.439C653.097 831.419 653.387 831.38 653.678 831.38C655.063 831.381 655.799 831.506 656.667 832.536C656.335 835.681 652.28 837.439 650.542 839.74C649.315 841.365 652.347 843.548 652.586 845.541C651.861 846.755 651.742 846.87 650.479 847.506C648.696 847.429 647.641 846.856 646.096 846.001C644.25 844.668 642.369 845.853 640.144 844.903C639.572 844.079 639.257 843.775 639.608 842.706C640.897 838.773 649.302 833.591 652.806 831.439Z"/>
	<path fill="#010100" d="M557.519 785.463C558.046 785.553 558.433 785.603 558.931 785.735C560.414 786.127 561.914 787.14 562.61 788.532C563.232 789.777 563.167 791.121 562.752 792.41C561.836 795.248 559.901 796.497 557.395 797.856C556.611 797.764 555.764 797.683 555.016 797.427C553.798 797.01 552.726 795.859 552.246 794.692C551.605 793.135 551.879 791.373 552.556 789.88C553.603 787.568 555.239 786.408 557.519 785.463Z"/>
	<path fill="#010100" d="M551.591 803.246C552.717 803.402 553.324 803.471 554.2 804.223C554.026 806.443 550.946 807.819 550.394 810.191C550.183 811.098 550.327 811.724 550.716 812.532C551.999 815.193 555.529 815.525 558.049 816.476C558.706 817.726 558.437 817.929 558.089 819.32C557.033 819.559 555.941 819.818 554.853 819.768C552.657 819.665 550.311 818.744 548.823 817.093C547.296 815.397 546.804 813.223 546.992 810.991C547.281 807.561 549.091 805.412 551.591 803.246Z"/>
	<path fill="#9F8BE8" d="M901.67 485.064C901.702 485.069 901.735 485.068 901.766 485.078C905.167 486.232 921.243 509.724 924.008 514.084C899.558 527.664 881.685 536.448 860.127 554.989C807.21 600.501 785.261 666.643 765.747 731.27Q755.452 765.794 744.564 800.136C740.424 813.51 736.638 826.976 731.958 840.175C730.283 846.256 728.043 852.373 725.866 858.299C728.388 809.569 738.606 761.564 750.087 714.281C761.955 665.4 774.93 614.573 800.239 570.684C821.299 534.165 860.153 496.226 901.67 485.064Z"/>
	<path fill="#382843" d="M620.524 709.594Q622.124 709.504 623.726 709.51C635.038 709.635 631.535 714.505 636.441 718.643C640.485 722.053 646.976 716.97 651.902 716.965C659.394 716.957 659.596 722.841 664.062 726.747C667.192 729.486 671.211 726.3 674.707 726.185C676.951 726.112 678.997 727.163 680.535 728.751C684.41 732.753 683.512 740.489 683.506 745.675L685.491 744.838C686.312 744.486 687.126 744.118 687.963 743.804C690.157 742.983 692.744 742.9 694.887 743.956C696.694 744.846 697.833 746.515 698.452 748.389C700.157 753.557 697.992 758.232 695.824 762.813C697.657 762.615 700.03 762.109 701.841 762.436C703.939 762.814 706.404 764.048 707.602 765.868C712.293 772.992 703.581 781.569 703.272 786.087C703.085 788.835 706.17 791.903 707.493 794.141C708.695 796.174 709.244 798.517 708.577 800.829C707.03 806.189 701.938 809.243 697.438 811.841C697.723 816.335 698.695 820.513 697.456 824.985C696.228 829.42 692.862 832.245 688.991 834.395C686.798 834.144 684.584 834.084 682.381 833.975C680.908 838.235 681.003 842.678 678.625 846.705C675.666 851.714 670.132 852.969 664.91 854.297C666.647 852.07 668.345 849.892 669.528 847.305C672.546 840.703 671.68 834.466 669.131 827.926C668.029 826.011 666.841 824.039 665.192 822.542C660.639 818.412 654.616 819.356 648.994 819.681C651.846 806.94 643.448 807.427 640.333 796.977C641.813 791.146 641.96 786.929 639.511 781.319C636.9 780.173 634.545 779.057 632.193 777.42L631.04 770.176C627.671 770.864 623.213 772.229 619.955 770.572C616.281 768.705 615.398 763.116 614.293 759.497C596.723 766.29 600.988 756.414 592.931 756.977C591.316 757.09 591.086 757.954 590.247 759.138C586.874 760.714 584.74 755.136 581.095 755.754C577.366 756.386 576.44 761.253 571.827 761.147C568.329 761.066 565.963 757.704 563.749 755.37C561.975 755.458 560.341 755.552 558.721 754.658C556.03 753.173 554.038 750.838 553.254 747.844C552.233 743.948 552.946 739.471 555.158 736.109C558.747 730.655 564.245 729.244 570.238 728.067C571.121 724.507 571.843 720.884 573.747 717.702C575.116 715.414 577.012 713.605 579.708 713.089C584.215 712.227 588.277 715.08 591.81 717.439C595.436 714.549 599.301 710.105 604.279 709.912C608.357 709.753 610.488 711.979 613.236 714.569C615.463 712.358 617.491 710.572 620.524 709.594Z"/>
	<path fill="#FEFCFE" d="M677.823 500.949L678.15 501.269C678.385 504.814 673.612 513.466 671.462 516.635C668.103 521.585 660.918 529.794 654.887 530.91C654.049 530.111 654.091 528.221 653.912 527.061C652.825 523.036 650.788 520.318 648.247 517.12C658.365 512.544 668.7 507.299 677.823 500.949Z"/>
	<path fill="#6C5782" d="M569.227 770.635C566.941 768.925 564.412 769.021 562.193 767.535L562.469 766.179C563.482 765.085 563.537 764.905 564.977 764.618C566.347 765.402 567.726 765.921 569.21 766.454L569.227 770.635Z"/>
	<path fill="#010100" d="M267.666 575.971L274.153 575.997L284.469 576.495C287.418 576.624 290.414 576.66 293.35 576.942C315.015 577.647 330.932 586.215 345.627 601.838C358.507 615.531 366.595 632.271 370.047 650.744C371.413 658.055 372.005 665.675 375.618 672.321C382.438 684.867 403.025 686.493 402.567 696.656C402.441 699.473 400.815 701.723 398.735 703.5C395.71 706.084 389.208 709.051 388.92 713.443C388.557 718.982 398.562 728.251 394.417 732.608C393.002 734.095 389.889 734.541 387.944 734.834C388.2 736.253 388.333 738.142 388.854 739.459C391.966 740.606 394.322 742.639 395.674 745.728C397.379 749.625 396.568 753.7 396.793 757.774C397.446 769.562 400.569 781.407 395.578 792.851C393.171 798.368 389.035 802.208 383.453 804.389C376.943 806.933 369.522 807.672 362.752 809.451C340.037 815.418 324.635 828.889 313.792 849.45C320.785 854.347 355.754 879.729 357.458 885.931C357.619 886.518 357.582 886.559 357.55 887.079C354.071 891.695 343.043 891.743 337.586 893.613C340.635 905.698 344.181 917.614 347.346 929.659C351.389 945.047 355.027 960.576 358.798 976.035C362.788 991.979 366.352 1008.19 370.808 1024L364.728 1024L320.358 1024L314.331 1024L179.822 1024L173.43 1024L72.8408 1024L66.9307 1024Q75.8095 997.114 86.9344 971.077C89.7811 964.39 92.3815 957.61 95.8136 951.192C94.6217 946.905 93.6803 942.67 93.0421 938.261C90.8391 923.04 91.3362 905.418 98.2437 891.351C100.404 886.953 103.339 883.026 106.271 879.123C113.024 872.127 121.105 867.669 129.575 863.138C129.15 850.825 127.122 839.483 130.482 827.27Q130.769 826.222 131.107 825.189Q131.445 824.157 131.835 823.143Q132.224 822.128 132.664 821.135Q133.104 820.141 133.592 819.171Q134.081 818.2 134.617 817.255Q135.154 816.31 135.736 815.393Q136.319 814.476 136.947 813.59Q137.575 812.703 138.246 811.848Q138.918 810.994 139.631 810.174Q140.344 809.354 141.097 808.571Q141.85 807.788 142.641 807.043Q143.432 806.298 144.259 805.594Q145.087 804.89 145.948 804.228Q146.81 803.565 147.703 802.947Q148.596 802.329 149.519 801.755Q150.442 801.182 151.393 800.656C158.981 796.462 169.058 794.129 177.549 796.724C181.3 797.871 184.221 800.08 185.92 803.655C189.129 810.405 187.29 818.108 185.084 824.823L190.263 827.491C197.709 818.522 201.419 816.205 201.57 803.563C189.142 798.209 179.111 793.207 169.174 783.76C146.26 761.978 135.214 730.975 134.439 699.75C133.611 666.394 144.577 637.837 167.656 613.673C193.848 586.25 230.844 576.819 267.666 575.971Z"/>
	<path fill="#FCB545" d="M153.129 866.43C159.235 869.592 165.057 873.186 171.306 876.082C179.802 880.02 188.565 883.3 197.351 886.523C229.885 898.454 262.283 905.266 297.096 902.732C308.582 901.896 319.558 900.392 330.576 896.875Q331.407 896.618 332.228 896.331C339.956 924.392 346.681 952.581 353.81 980.785C357.393 994.963 362.544 1009.56 364.728 1024L320.358 1024L314.331 1024L179.822 1024L173.43 1024L72.8408 1024C78.0158 1010.71 82.5953 997.22 88.0277 984.024C104.644 943.659 126.668 901.341 153.129 866.43Z"/>
	<path fill="#010100" d="M314.331 1024C307.607 1002.17 301.485 980.152 294.277 958.476Q289.567 944.276 284.572 930.173C283.195 926.312 281.267 922.406 280.161 918.49C279.708 916.887 279.207 914.884 279.999 913.315C280.344 912.632 280.776 912.709 281.451 912.505C283.249 913.058 284.282 913.933 285.18 915.58C286.206 917.463 286.719 919.999 287.471 922.031C289.817 928.368 292.32 934.582 294.503 940.988C298.446 952.554 302.565 963.985 306.048 975.705C310.815 991.746 314.905 1008.18 320.358 1024L314.331 1024Z"/>
	<path fill="#010100" d="M173.43 1024C172.274 1018.88 164.386 988.547 165.515 985.594C166.744 984.697 167.01 984.617 168.527 984.445C169.911 985.153 170.366 985.698 170.84 987.2C174.64 999.237 176.057 1011.96 179.822 1024L173.43 1024Z"/>
	<path fill="#FEFCFE" d="M358.167 736.424C368.61 737.038 377.64 736.689 387.944 734.834C388.2 736.253 388.333 738.142 388.854 739.459C390.299 743.302 391.328 747.155 392.223 751.158C378.391 749.4 369.349 744.415 358.167 736.424Z"/>
	<path fill="#6C5782" d="M320.085 588.918C324.799 589.368 331.21 595.14 334.64 598.201C350.45 612.31 360.761 632.012 364.665 652.718C366.229 661.015 366.776 670.014 371.599 677.255C377.649 686.338 388.16 689.308 396.511 695.282C397.393 699.276 385.116 704.93 383.212 711.064C381.467 716.687 386.821 724.054 389.42 728.824C385.374 729.141 381.321 730.077 377.286 730.59C369.868 731.533 361.659 731.384 354.298 730.076C350.824 729.459 345.059 723.336 342.376 723.821C341.073 724.057 340.434 724.508 339.63 725.506C339.427 727.341 340.233 728.57 341.359 729.929C351.673 742.383 375.055 755.18 391.313 756.707C393.08 768.464 395.262 783.366 388.434 793.998C386.128 797.589 381.658 799.064 377.702 799.958C353.886 805.339 326.402 799.711 305.61 787.145C297.761 782.401 290.859 776.401 283.147 771.505C287.454 779.609 293.546 786.563 297.662 794.877C304.495 808.676 306.138 823.727 307.164 838.86C307.45 843.065 308.189 848.043 306.814 852.097Q302.657 861.677 297.519 870.769C263.462 857.06 229.114 844.297 195.287 829.964C202.531 823.378 211.52 819.741 220.075 815.232C243.343 802.969 257.031 785.653 269.713 763.203C260.298 760.349 251.678 756.954 243.906 750.764C234.656 743.397 223.729 731.468 222.536 719.112C222.083 714.421 223.094 708.977 226.27 705.338C228.41 702.887 231.393 701.616 234.609 701.397C249.801 700.364 256.529 714.303 265.674 722.2C265.834 722.338 265.998 722.471 266.159 722.606C267.558 713.836 267.774 704.75 268.739 695.901C270.854 676.511 274.782 657.049 281.567 638.724C288.871 619 300.154 598.083 320.085 588.918Z"/>
	<path fill="#010100" d="M353.56 659.379C355.74 660.237 357.152 661.197 358.633 663.032C362.402 667.701 364.863 675.096 364.102 681.109C363.579 685.232 361.94 687.865 358.648 690.314C355.502 689.486 353.183 687.859 351.242 685.233C347.881 680.682 346.717 674.386 347.672 668.859C348.393 664.687 350.095 661.782 353.56 659.379Z"/>
	<path fill="#010100" d="M347.084 619.333C348.589 619.959 349.162 620.414 350.205 621.668C350.48 623.322 350.343 623.705 348.988 624.768C345.727 627.325 341.99 629.269 338.71 631.825C330.195 638.462 324.452 647.475 318.788 656.493C317.09 656.425 316.515 656.247 315.13 655.263C314.574 654.033 314.445 653.551 314.819 652.23C315.519 649.752 317.516 647.245 318.991 645.158C326.365 634.725 335.601 625.215 347.084 619.333Z"/>
	<path fill="#010100" d="M230.921 710.574C238.442 710.062 243.768 712.794 249.403 717.58C256.343 723.472 264.097 733.952 264.735 743.281C264.876 745.347 264.426 746.252 263.064 747.77C262.6 747.752 261.652 747.736 261.224 747.617C258.707 746.912 256.188 735.94 254.992 733.277C254.011 731.092 252.505 729.084 251.11 727.144C246.286 720.435 241.57 716.17 233.179 714.751C231.593 714.482 230.202 714.527 229.258 713.199C229.536 711.871 229.924 711.473 230.921 710.574Z"/>
	<path fill="#010100" d="M377.413 703.749C377.852 703.936 378.601 704.236 378.985 704.485C380.065 705.185 380.144 705.561 380.374 706.725C379.517 708.53 377.834 709.561 376.286 710.747C375.367 711.088 375.148 711.064 374.212 710.957L373.881 710.227C374.174 707.616 375.63 705.594 377.413 703.749Z"/>
	<path fill="#FCB545" d="M177.285 827.331C183.829 830.592 190.196 834.202 196.857 837.227C212.734 844.437 229.093 850.486 245.333 856.808C273.799 867.889 302.343 878.756 330.502 890.605Q327.807 891.674 325.043 892.546Q322.278 893.417 319.457 894.087Q316.636 894.756 313.774 895.219Q310.913 895.682 308.025 895.937C255.018 903.419 201.86 885.502 155.347 861.497C161.272 849.301 169.509 838.388 177.285 827.331Z"/>
	<path fill="#FEFCFE" d="M295.294 583.18C298.155 582.842 300.781 582.405 303.263 584.259L303.258 584.979C300.994 587.206 285.643 589.376 281.677 590.498C265.687 595.022 251.186 602.229 237.372 611.42C208.563 630.587 182.649 662.569 175.652 696.997C175.549 697.347 175.442 697.773 175.253 698.083C174.554 699.232 173.905 699.391 172.718 699.857L171.598 699.354C171.233 698.719 171.123 698.61 170.915 697.824C170.222 695.205 172.27 690.466 173.137 687.906C178.816 671.12 186.324 656.272 197.121 642.201C219.837 612.597 257.989 588.064 295.294 583.18Z"/>
	<path fill="#FCB545" d="M311.629 855.93C325.257 863.343 338.063 874.388 349.075 885.288L341.059 886.376C340.942 886.393 340.825 886.405 340.71 886.425C339.631 886.607 338.497 886.881 337.404 886.661C333.848 885.945 329.704 883.755 326.306 882.376L303.307 872.991C306.143 867.337 308.859 861.617 311.629 855.93Z"/>
	<path fill="#FEFCFE" d="M248.92 673.498C249.893 674.003 250.441 674.602 251.168 675.413C251.217 676.236 251.487 676.474 250.796 677.054C248.386 679.079 244.706 680.425 241.914 681.949C236.326 684.998 231.09 688.55 226.422 692.882C216.19 702.378 206.809 715.409 201.007 728.126C198.701 733.18 197.276 738.739 194.622 743.608C194.547 743.746 194.468 743.882 194.391 744.019C193.255 743.686 192.37 743.315 191.349 742.714C190.57 739.073 195.886 728.898 197.616 725.167C207.683 703.463 226.04 681.938 248.92 673.498Z"/>
	<path fill="#FEFCFE" d="M278.433 621.052C278.719 621.169 279.031 621.236 279.292 621.403C280.221 621.996 280.321 622.607 280.445 623.582C280.077 624.231 279.731 624.818 279.097 625.25C274.821 628.161 262.142 631.991 255.601 635.493C240.66 643.494 228.687 653.036 216.443 664.681C215.691 664.048 215.138 663.457 214.555 662.666C214.493 661.467 214.824 660.722 215.441 659.727C217.491 656.419 220.912 653.801 223.854 651.315C228.756 647.173 233.755 643.087 239.121 639.555C248.741 633.224 267.379 623.441 278.433 621.052Z"/>
	<defs>
		<linearGradient id="gradient_0" gradientUnits="userSpaceOnUse" x1="197.33754" y1="551.69427" x2="327.62067" y2="66.465767">
			<stop offset="0" stop-color="#675EE4"/>
			<stop offset="1" stop-color="#8176DE"/>
		</linearGradient>
	</defs>
	<path fill="url(#gradient_0)" d="M146.846 156.547C141.335 146.818 136.969 137.216 135.324 126.036C132.454 106.536 138.642 86.6122 150.295 70.9662C163.166 53.6848 183.21 42.3492 204.503 39.3094Q206.227 39.0573 207.96 38.8832Q209.694 38.709 211.433 38.6131Q213.173 38.5172 214.915 38.4998Q216.657 38.4823 218.398 38.5433Q220.139 38.6044 221.875 38.7437Q223.612 38.8831 225.341 39.1006Q227.069 39.318 228.786 39.6131Q230.503 39.9082 232.205 40.2804Q233.907 40.6525 235.59 41.1009Q237.274 41.5493 238.935 42.0731Q240.597 42.5969 242.233 43.195Q243.869 43.7931 245.477 44.4643Q247.085 45.1355 248.66 45.8784Q250.236 46.6213 251.777 47.4344Q253.318 48.2476 254.82 49.1293Q256.323 50.011 257.784 50.9595C261.846 53.6142 265.366 56.903 269.229 59.8159C288.606 48.0984 310.539 43.8212 332.753 49.2167C352.25 53.9522 370.27 66.233 380.763 83.4599C391.37 100.871 393.78 120.802 390.209 140.645C390.365 140.728 390.512 140.831 390.678 140.894C393.608 142.015 401.745 140.623 405.836 141.38C428.23 145.519 450.149 161.174 461.101 181.167C469.733 196.926 470.942 215.006 465.825 232.099C457.313 260.531 434.608 281.771 409.02 295.396C395.293 302.705 380.587 307.302 365.001 308.01C356.628 325.628 347.339 342.785 339.834 360.834Q335.481 371.223 331.513 381.765Q327.544 392.307 323.965 402.987Q320.386 413.667 317.202 424.472Q314.017 435.276 311.231 446.191Q308.445 457.105 306.062 468.114Q303.679 479.123 301.701 490.212Q299.724 501.301 298.155 512.455Q296.586 523.61 295.427 534.814C294.03 548.499 292.63 562.256 292.844 576.03L293.35 576.942C290.414 576.66 287.418 576.624 284.469 576.495L274.153 575.997L267.666 575.971C266.465 563.356 263.375 548.375 261.499 535.555C255.639 495.519 248.639 455.287 238.602 416.058C231.605 388.711 222.803 361.74 213.958 334.942C216.626 334.533 218.059 334.238 220.025 332.273C222.792 326.451 227.131 321.239 230.028 315.378C245.045 284.997 248.296 256.623 243.723 223.368Q243.553 222.512 243.374 221.658C238.675 199.313 226.375 179.259 206.98 166.719C189.396 155.349 167.141 152.269 146.846 156.547Z"/>
	<path fill="#010100" d="M269.229 59.8159C288.606 48.0984 310.539 43.8212 332.753 49.2167C352.25 53.9522 370.27 66.233 380.763 83.4599C391.37 100.871 393.78 120.802 390.209 140.645C380.664 179.762 354.002 211.494 320.677 233.041C317.332 234.981 313.98 236.865 310.542 238.636C310.496 245.479 309.317 265.75 306.181 271.1C304.964 270.717 303.441 270.343 302.522 269.408C301.057 267.916 301.361 265.238 301.353 263.297C302.923 255.398 303.611 246.789 304.369 238.766C288.825 229.273 276.599 216.33 265.229 202.317Q264.834 201.826 264.456 201.323C246.115 176.553 230.497 142.369 235.556 111.032C239.32 87.7203 250.567 73.2818 269.229 59.8159Z"/>
	<path fill="#FCB545" d="M312.916 52.7107Q317.394 52.6813 321.844 53.1741Q326.294 53.6669 330.657 54.6752C349.275 59.0909 366.445 70.8639 376.506 87.2503C386.499 103.525 388.524 123.433 384.009 141.797C378.09 165.868 362.276 190.365 344.185 207.316C334.075 216.788 323.165 224.381 311.323 231.529C309.936 232.41 308.314 233.05 306.828 233.757C301.626 229.951 296.407 226.153 291.529 221.933C266.286 200.093 242.461 162.938 240.285 129.235C239.099 110.86 244.698 91.4626 257.01 77.5481C271.63 61.0262 291.405 54.0353 312.916 52.7107Z"/>
	<path fill="#9F8BE8" d="M243.723 223.368C245.357 223.437 246.523 223.372 247.87 224.439C249.745 228.932 250.409 234.274 251.414 239.044Q254.53 253.815 257.401 268.635C262.318 293.411 267.422 318.045 271.435 343.003Q281.031 404.756 285.564 467.086C286.508 479.588 288.361 492.122 288.735 504.649C289.453 528.619 285.927 552.602 284.469 576.495L274.153 575.997L267.666 575.971C266.465 563.356 263.375 548.375 261.499 535.555C255.639 495.519 248.639 455.287 238.602 416.058C231.605 388.711 222.803 361.74 213.958 334.942C216.626 334.533 218.059 334.238 220.025 332.273C222.792 326.451 227.131 321.239 230.028 315.378C245.045 284.997 248.296 256.623 243.723 223.368Z"/>
	<path fill="#685EE5" d="M220.025 332.273C226.484 346.497 232.441 367.984 236.827 383.293Q245.085 412.2 251.73 441.519Q258.376 470.839 263.388 500.481C267.499 525.586 270.161 550.903 274.153 575.997L267.666 575.971C266.465 563.356 263.375 548.375 261.499 535.555C255.639 495.519 248.639 455.287 238.602 416.058C231.605 388.711 222.803 361.74 213.958 334.942C216.626 334.533 218.059 334.238 220.025 332.273Z"/>
	<path fill="#9F8BE8" d="M310.542 238.636C313.98 236.865 317.332 234.981 320.677 233.041C325.055 253.051 333.112 273.981 345.151 290.706C349.086 296.173 353.675 301.152 358.221 306.111C347.389 324.556 339.218 343.495 331.181 363.287C318.704 394.012 310.13 420.125 302.15 452.281C299.462 463.114 296.7 473.979 294.75 484.972C293.67 469.17 291.95 453.337 291.854 437.488C291.652 404.535 295.383 371.271 298.686 338.515C300.952 316.046 302.609 293.407 306.181 271.1C309.317 265.75 310.496 245.479 310.542 238.636Z"/>
	<path fill="#9F8BE8" d="M254.164 220.2C259.035 214.916 262.161 208.729 265.229 202.317C276.599 216.33 288.825 229.273 304.369 238.766C303.611 246.789 302.923 255.398 301.353 263.297C298.118 278.685 296.214 294.334 294.3 309.928C292.423 325.219 290.546 340.477 289.335 355.841C288.164 370.685 288.124 386.15 285.891 400.827C284.162 377.75 280.553 354.737 276.796 331.916C274.767 319.587 272.984 307.107 270.421 294.883C265.208 270.013 258.617 245.194 254.164 220.2Z"/>
	<path fill="#010100" d="M146.846 156.547C167.141 152.269 189.396 155.349 206.98 166.719C226.375 179.259 238.675 199.313 243.374 221.658Q243.553 222.512 243.723 223.368C248.296 256.623 245.045 284.997 230.028 315.378C227.131 321.239 222.792 326.451 220.025 332.273C218.059 334.238 216.626 334.533 213.958 334.942C189.064 336.483 160.078 327.513 138.644 314.915C114.488 300.717 92.8598 280.317 85.6867 252.378C80.5497 232.369 84.1829 211.806 94.7001 194.171C106.446 174.476 124.804 162.033 146.846 156.547Z"/>
	<path fill="#F87E51" d="M159.364 160.704C173.989 159.481 189.865 163.622 202.365 171.205C220.92 182.461 232.972 202.091 237.942 222.91C243.68 246.946 239.655 277.497 230.324 300.275C226.252 310.213 220.648 319.324 215.051 328.447C202.16 329.992 189.3 327.396 176.889 324.108C157.324 318.431 139.609 309.951 123.635 297.21C106.1 283.224 91.9963 263.646 89.5679 240.84C87.6125 222.476 94.0927 202.637 105.707 188.371C119.224 171.768 138.309 162.912 159.364 160.704Z"/>
	<path fill="#9F8BE8" d="M994.139 328.689C1003.94 331.306 1013.79 334.24 1024 334.662L1024 340.487L1024 398.636L1024 409.211L1024 450.078L1024 566.236C1008.23 551.068 990.563 540.06 971.331 529.808C964.456 527.299 958.123 522.891 951.157 520.256L938.51 514.456C941.87 498.112 944.897 481.608 949.315 465.512C951.718 456.759 954.935 448.448 957.737 439.843C962.622 424.843 967.338 409.845 972.427 394.903C979.638 373.729 989.989 350.472 994.139 328.689Z"/>
	<path fill="#F87E51" d="M957.146 443.517C963.217 434.726 969.742 426.25 978.404 419.841C993.192 408.897 1006.26 406.501 1024 409.211L1024 450.078C998.268 457.586 981.185 452.564 957.146 443.517Z"/>
	<path fill="#F87E51" d="M659.179 701.399C659.711 696.867 658.838 691.515 658.707 686.899C658.323 673.36 660.911 658.041 670.138 647.559C675.168 641.844 682.018 637.708 689.769 637.33C695.028 637.074 700.252 638.58 704.089 642.295C708.52 646.586 710.252 652.834 710.365 658.851C710.738 678.642 692.562 700.578 679.41 714.13C694.038 706.396 704.206 694.431 722.616 693.969C731.843 693.738 740.204 697.246 746.833 703.565C744.422 712.852 742.237 722.148 740.05 731.488C730.93 738.151 723.555 741.987 712.357 743.652C709.237 744.116 705.601 744.106 702.589 744.891C702.042 743.663 701.181 742.356 700.293 741.351C697.143 737.781 692.941 737.468 688.506 737.109C687.999 733.696 687.317 730.486 685.539 727.477C683.545 724.102 680.569 721.385 676.645 720.571C674.437 720.113 671.703 719.996 669.748 721.248C669.652 721.31 668.924 721.811 668.789 721.862C665.701 723.01 662.95 714.507 657.818 712.431C651.918 710.045 645.89 712.162 640.412 714.511Q640.086 713.926 639.751 713.345C637.055 708.676 633.267 705.269 627.901 703.97C623.423 702.886 618.567 703.761 614.639 706.125C612.333 699.024 604.004 692.625 601.285 682.684C599.637 676.655 600.17 669.904 603.514 664.533C606.38 659.931 610.941 656.992 616.21 655.89C623.359 654.395 630.483 656.223 636.488 660.221C650.526 669.565 656.035 685.713 659.179 701.399Z"/>
	<path fill="#685EE5" d="M1024 260.957L1024 269.946L1024 299.489L1024 334.662C1013.79 334.24 1003.94 331.306 994.139 328.689C989.989 350.472 979.638 373.729 972.427 394.903C967.338 409.845 962.622 424.843 957.737 439.843C954.935 448.448 951.718 456.759 949.315 465.512C944.897 481.608 941.87 498.112 938.51 514.456C936.681 513.706 934.914 513.034 933.003 512.523C935.229 506.87 935.977 499.574 937.211 493.581C939.439 482.752 941.773 472.063 944.742 461.408C954.58 426.097 968.168 392.179 979.728 357.451C983.639 345.705 987.864 333.985 991.514 322.162C995.956 307.771 1000.74 285.022 1008.61 272.982C1013.3 268.688 1018.71 264.491 1024 260.957Z"/>
	<path fill="#F87E51" d="M998.207 318.509C1005.96 309.668 1013.18 304.047 1024 299.489L1024 334.662C1013.79 334.24 1003.94 331.306 994.139 328.689C995.297 325.198 996.722 321.872 998.207 318.509Z"/>
	<path fill="#9F8BE8" d="M1024 269.946L1024 299.489C1013.18 304.047 1005.96 309.668 998.207 318.509C1000.71 304.617 1006.86 288.552 1011.63 275.181C1016.7 274.716 1020.01 272.928 1024 269.946Z"/>
	<path fill="#F87E51" d="M33.0701 574.84C25.845 558.12 21.9854 546.173 29.1676 528.309C35.2528 513.173 49.8826 497.792 63.8259 489.613C69.0707 509.573 70.6886 536.238 59.9851 554.597C53.5482 565.638 46.6167 567.648 39.0472 575.657C36.5507 576.208 35.2923 576.172 33.0701 574.84Z"/>
	<path fill="#F87E51" d="M28.9486 655.41C29.0135 655.283 29.0798 655.157 29.1434 655.03C31.9515 649.409 33.5085 643.14 36.1026 637.394C43.5259 620.951 57.0973 608.977 74.0957 603.087C80.8867 600.735 88.205 599.204 95.3961 598.913C92.3548 616.268 85.2716 635.116 70.2185 645.552C61.8638 651.345 39.3653 658.115 29.8773 656.659C29.229 656.559 29.3945 656.566 28.8578 656.108L28.9486 655.41Z"/>
	<path fill="#685EE5" d="M33.0701 574.84C35.2923 576.172 36.5507 576.208 39.0472 575.657C33.7571 593.665 27.5099 636.779 28.9486 655.41L28.8578 656.108C27.8495 660.44 28.3411 665.901 28.4068 670.371C28.9198 705.291 34.9102 740.472 38.3663 775.221C39.9785 791.431 40.6339 807.623 41.2241 823.894C41.37 827.917 42.8583 840.534 40.3622 843.399C39.1504 843.949 39.0288 843.916 37.7082 843.684C36.0189 842.318 35.6761 840.737 35.4282 838.652C33.854 825.416 33.9914 811.639 33.0783 798.296C31.6238 777.043 29.3286 756.04 27.2724 734.85C26.9839 731.66 26.3221 728.441 25.8049 725.278C25.332 712.116 23.3827 698.994 22.6403 685.832Q21.9804 675.26 21.9176 664.669Q21.8548 654.077 22.3893 643.498Q22.9237 632.919 24.0537 622.388Q25.1837 611.856 26.9057 601.405C28.3823 592.409 29.9403 583.437 33.0701 574.84Z"/>
	<path fill="#F87E51" d="M1008.61 272.982C1007.78 272.382 1007.24 271.719 1006.69 270.867C999.559 259.882 995.952 244.449 998.555 231.535C1001.58 216.521 1011.43 203.459 1024 195.054L1024 260.957C1018.71 264.491 1013.3 268.688 1008.61 272.982Z"/>
	<path fill="#F87E51" d="M915.429 321.069C928.002 314.712 944.909 313.259 958.328 317.731C968.422 321.095 977.559 327.311 985.158 334.685C974.424 341.502 962.594 345.998 949.873 347.195C945.712 347.586 941.303 347.409 937.201 347.996Q937.016 346.373 936.678 344.774Q936.34 343.175 935.854 341.615Q935.367 340.056 934.735 338.549Q934.104 337.042 933.333 335.601C929.402 328.338 923.345 323.472 915.429 321.069Z"/>
	<path fill="#F87E51" d="M0 583.267C14.8061 596.807 20.089 615.351 20.9654 634.811Q21.2022 639.976 21.2788 645.146C13.6912 640.615 6.83452 635.032 0 629.459L0 583.267Z"/>
	<path fill="#F87E51" d="M0 695.079C10.3019 701.539 20.3058 714.474 25.8049 725.278C26.3221 728.441 26.9839 731.66 27.2724 734.85C17.8049 733.102 8.97421 730.842 0 727.341L0 695.079Z"/>
	<path fill="#F87E51" d="M934.666 390.157C944.815 397.157 951.274 409.81 955.416 421.084C946.593 427.632 934.202 434.288 922.843 433.434Q926.657 429.775 929.558 425.357C936.72 414.428 937.202 402.621 934.666 390.157Z"/>
	<path fill="#F87E51" d="M444.872 758.819C454.415 772.237 460.318 791.895 457.491 808.335C455.715 818.661 451.071 828.939 443.93 836.649C441.62 839.143 438.627 841.345 436.497 843.917L435.926 844.144C431.649 842.03 428.142 831.79 426.639 827.436C421.141 811.513 423.198 794.043 430.557 779.073C434.179 771.706 438.964 764.556 444.872 758.819Z"/>
	<path fill="#F87E51" d="M90.022 665.691C93.1323 665.301 96.3857 665.349 99.5234 665.231C96.6219 677.759 91.0957 690.541 82.7727 700.444C72.3908 712.797 58.0377 718.853 42.1244 720.256C38.9112 720.534 35.6711 720.347 32.4517 720.26C35.315 709.449 38.9626 698.387 45.8426 689.4C56.8563 675.015 72.3427 667.952 90.022 665.691Z"/>
	<path fill="#F87E51" d="M933.062 254.746C935.893 254.653 938.729 254.57 941.561 254.717C956.11 255.474 968.481 260.875 978.259 271.801C986.862 281.415 992.634 295.365 991.869 308.396C974.739 307.697 958.213 304.017 945.887 291.233C936.48 281.476 932.785 268.092 933.062 254.746Z"/>
	<path fill="#F87E51" d="M488.921 843.638L489.631 844.5C491.846 856.687 488.986 873.22 481.903 883.511C473.042 896.385 460.352 900.48 445.683 903.275C445.193 902.466 445.074 902.061 444.889 901.142C442.644 889.994 446.65 875.385 452.968 866.114C461.078 854.217 474.918 846.251 488.921 843.638Z"/>
	<path fill="#F87E51" d="M378.555 859.712C382.872 859.42 387.32 859.299 391.637 859.643C403.814 860.614 413.51 865.749 421.358 875.105C427.435 882.35 434.716 898.193 433.873 907.687C424.745 905.516 416.128 906.644 407.244 902.688C396.023 897.692 386.633 888.478 382.262 876.888C381.017 873.586 377.258 862.667 378.555 859.712Z"/>
	<path fill="#FEFCFE" d="M771.635 85.0805C775.328 84.7314 779.008 85.2562 782.396 86.8241Q783.147 87.1649 783.861 87.5792Q784.574 87.9935 785.242 88.4772Q785.911 88.9608 786.527 89.509Q787.144 90.0571 787.703 90.6642Q788.261 91.2713 788.756 91.9313Q789.251 92.5912 789.678 93.2975Q790.104 94.0037 790.458 94.749Q790.812 95.4944 791.089 96.2714Q791.243 96.7197 791.374 97.1752Q791.505 97.6306 791.614 98.0921Q791.722 98.5536 791.807 99.0199Q791.892 99.4862 791.953 99.9562Q792.015 100.426 792.053 100.899Q792.091 101.371 792.105 101.845Q792.119 102.319 792.109 102.793Q792.1 103.267 792.066 103.739Q792.033 104.212 791.976 104.683Q791.919 105.153 791.838 105.62Q791.758 106.088 791.654 106.55Q791.55 107.013 791.423 107.469Q791.296 107.926 791.146 108.376Q790.996 108.825 790.824 109.267Q790.652 109.709 790.458 110.141Q790.264 110.574 790.049 110.996C786.973 116.877 781.735 119.869 775.606 121.716C771.187 122.012 766.74 121.691 762.765 119.556C758.791 117.421 756.098 113.779 754.961 109.439C753.662 104.477 754.272 98.9487 756.977 94.5545C760.319 89.1239 765.601 86.4098 771.635 85.0805Z"/>
</svg>
