<?xml version="1.0" encoding="utf-8" ?>
<svg xmlns="http://www.w3.org/2000/svg" xmlns:xlink="http://www.w3.org/1999/xlink" width="1024" height="1024">
	<path d="M0 0L1024 0L1024 399.142L1024 1024L0 1024L0 850.301L0 0Z"/>
	<path fill="#D4D2F5" d="M0 0L1024 0L1024 399.142Q965.793 422.911 907.971 447.605L868.877 463.869C862.93 466.324 856.671 468.438 850.853 471.151C847.629 451.724 844.874 431.084 839.014 412.31C832.351 407.284 824.402 404.106 818.621 397.974C818.458 385.256 816.47 372.591 814.623 360.03Q813.303 350.945 811.696 341.906Q810.088 332.868 808.195 323.885Q806.302 314.902 804.125 305.983Q801.949 297.064 799.49 288.219Q797.032 279.374 794.294 270.611Q791.557 261.849 788.543 253.177Q785.529 244.506 782.241 235.934Q778.954 227.362 775.397 218.899C771.961 210.544 767.468 202.72 763.801 194.486C761.323 188.924 759.674 183 757.428 177.342C752 163.673 743.672 150.743 733.069 140.509C728.535 136.133 723.5 132.436 718.388 128.779C719.37 127.055 720.223 125.305 719.667 123.267C718.083 117.463 699.678 110.932 694.067 107.706C697.341 96.6966 697.261 85.3002 691.672 74.9381C688.874 69.7492 684.689 66.0742 678.965 64.4855C674.794 63.3274 671.081 63.6598 666.955 64.6233C663.818 57.013 659.514 50.2117 651.574 46.8339Q651.072 46.6175 650.56 46.4261Q650.048 46.2347 649.527 46.0688Q649.006 45.903 648.477 45.763Q647.949 45.6231 647.414 45.5094Q646.879 45.3958 646.34 45.3087Q645.8 45.2216 645.257 45.1612Q644.713 45.1009 644.168 45.0675Q643.622 45.034 643.075 45.0276Q642.528 45.0211 641.982 45.0417Q641.436 45.0623 640.891 45.1098Q640.347 45.1573 639.805 45.2317Q639.263 45.3061 638.726 45.4071Q638.189 45.5081 637.657 45.6356Q637.125 45.763 636.601 45.9166Q636.076 46.0701 635.56 46.2494Q635.043 46.4286 634.536 46.6332C630.321 48.3684 626.803 51.2893 623.38 54.2356C611.502 37.4316 596.87 25.2381 576.122 21.5419Q574.744 21.3099 573.356 21.1463Q571.968 20.9826 570.574 20.8877Q569.18 20.7928 567.783 20.7669Q566.386 20.741 564.989 20.7841Q563.593 20.8272 562.2 20.9393Q560.807 21.0514 559.421 21.2321Q558.036 21.4128 556.66 21.6618Q555.285 21.9107 553.924 22.2273Q552.563 22.5438 551.22 22.9272Q549.876 23.3107 548.553 23.76Q547.23 24.2093 545.93 24.7234Q544.631 25.2375 543.359 25.8152Q542.086 26.3929 540.844 27.0327Q539.602 27.6725 538.392 28.3729Q537.183 29.0733 536.01 29.8326Q534.837 30.5919 533.703 31.4082C515.931 44.0971 505.567 66.5302 502.21 87.6218C500.726 96.9413 500.22 109.555 506.267 117.455C507.634 119.24 509.474 120.598 511.306 121.87C513.738 121.009 516.256 120.232 518.603 119.161C523.727 138.08 527.501 133.263 539.423 144.662L539.928 145.139C539.85 150.083 538.566 158.839 542.446 162.549C545.434 165.406 550.308 165.629 554.2 165.869C560.347 170.109 567.939 177.568 573.328 180.757C569.114 189.059 565.893 197.791 561.799 206.151C557.618 214.687 552.622 222.675 547.943 230.936C537.751 248.933 528.507 266.119 515.175 282.073C503.057 269.117 489.741 261.688 471.683 261.138C456.853 260.686 441.248 266.243 429.412 275.079C426.754 277.064 424.445 279.438 421.95 281.615C414.769 275.445 404.543 272.108 395.091 272.812C383.657 273.664 371.24 279.733 363.806 288.501C357.449 295.998 354.262 308.939 348.284 314.547C348.048 314.768 347.818 314.994 347.581 315.214C347.425 315.359 347.265 315.5 347.107 315.642C340.954 316.326 334.767 317.024 328.983 319.369C313.911 325.48 291.124 346.307 281.044 359.006C276.752 364.413 273.734 371.027 274.593 378.078C275.024 381.621 276.251 385.128 279.234 387.279C281.728 389.078 284.656 390.435 287.393 391.826C260.499 422.694 239.254 452.939 219.571 488.819C211.681 503.202 203.955 517.88 199.274 533.666C190.645 562.771 186.867 599.933 183.571 630.285C181.703 647.485 179.92 664.631 178.615 681.884C178.18 687.627 177.113 693.921 177.411 699.641C177.592 703.098 180.463 705.366 182.96 707.461C201.816 723.276 226.088 735.008 250.118 740.031C240.402 745.45 229.908 749.721 219.728 754.185L168.055 776.498L79.432 815.785C52.9784 827.3 26.1747 838.155 0 850.301L0 0Z"/>
	<path fill="#9F8BE8" d="M1024 399.142L1024 1024L0 1024L0 850.301C26.1747 838.155 52.9784 827.3 79.432 815.785L168.055 776.498L219.728 754.185C229.908 749.721 240.402 745.45 250.118 740.031C254.387 740.698 258.671 741.763 262.91 742.626C257.843 762.162 252.801 785.169 251.67 805.27C249.829 837.977 255.576 870.469 259.023 902.832C250.174 913.718 248.857 935.523 248.267 949.182C257.145 960.038 306.087 979.578 321.395 983.382C337.761 987.449 359.229 989.275 374.188 979.848C377.056 978.039 379.619 975.395 380.211 971.934C381.055 967.005 377.342 961.032 374.691 957.097Q378.222 956.862 381.75 956.583C390.919 955.853 401.798 954.667 408.048 947.026C410.108 944.508 411.067 941.982 410.579 938.718C409.97 934.651 407.463 930.974 404.604 928.126C394.224 917.787 380.252 910.979 369.071 901.337C358.326 892.072 350.113 879.727 338.848 871.243C341.201 859.92 342.465 848.217 344.499 836.809Q353.018 787.274 362.252 737.868C364.575 735.987 366.785 734.185 368.618 731.793C376.35 721.705 376.702 711.065 375.138 698.948C383.902 692.298 387.825 684.71 391.128 674.43C398.674 672.685 406.24 669.32 413.382 666.359C426.042 661.11 438.512 655.458 451.114 650.082L509.948 624.529C538.396 612.238 566.787 600.006 594.529 586.164C592.501 605.437 590.88 625.293 591.023 644.692C591.154 662.602 592.94 680.63 594.258 698.487Q597.085 739.428 600.889 780.289C601.563 787.441 602.361 794.65 602.734 801.822C603.147 809.762 603.065 817.581 603.948 825.506C604.563 831.031 604.727 834.592 609.267 838.245C608.752 841.43 608.45 844.663 608.083 847.868C606.012 846.732 603.854 845.933 601.653 845.093C588.941 849.578 581.169 865.333 571.059 874.17C566.106 878.5 560.074 881.804 554.48 885.239L533.705 897.964C528.12 901.359 523.553 904.99 522.053 911.72C521.143 915.798 521.057 919.975 523.484 923.546C528.104 930.34 537.213 933.113 544.887 934.661C553.808 936.461 562.629 936.971 571.625 935.573C590.748 932.601 608.834 924.199 626.665 917.023C641.563 911.027 657.001 905.7 670.488 896.81C670.546 895.196 670.541 893.574 670.547 891.959C670.594 879.15 670.383 861.618 663.255 850.606C661.989 848.65 660.147 846.957 658.507 845.31C657.989 843.529 657.689 841.724 657.366 839.9C659.4 838.356 661.101 836.84 662.852 834.983C664.565 828.2 664.765 820.819 665.479 813.845L669.324 775.947C671.951 786.637 676.348 797.139 679.303 807.805Q686.994 834.799 694.13 861.946C697.117 873.457 697.867 885.17 703.52 895.861C703.284 897.231 703.411 898.945 702.744 900.169C701.749 901.995 692.283 901.28 689.152 903.755C684.486 907.444 680.517 912.139 676.44 916.454C670.559 922.677 664.516 928.705 657.793 934.03Q649.273 940.799 640.323 946.988C633.939 951.336 623.679 956.463 618.725 962.243C615.831 965.62 614.377 971.789 614.708 976.142C614.947 979.297 616.515 981.795 618.935 983.78C629.028 992.056 652.776 993.352 665.25 991.994C673.25 991.123 681.048 989.653 688.735 987.236C701.894 983.098 714.55 977.265 727.263 971.949C738.279 967.343 752.766 961.845 762.923 955.901C764.599 954.92 766.771 953.46 767.819 951.775C771.704 945.532 766.584 927.524 765.03 920.418C764.186 916.562 763.687 912.19 762.298 908.506C760.812 904.563 758.165 903 754.523 901.369C751.867 896.809 749.927 892.667 748.543 887.564C750.955 886.049 753.377 884.539 754.445 881.765C755.151 879.93 754.998 877.693 754.894 875.759C754.152 861.926 752.044 847.965 750.669 834.169C748.069 808.074 745.642 781.776 741.88 755.826C740.326 745.108 738.485 734.385 735.799 723.885C731.058 705.356 723.368 688.244 715.258 671.003C716.865 658.422 721.023 645.629 724.411 633.432Q734.396 598.131 745.217 563.078C751.053 564.723 756.791 566.885 762.595 568.669C772.616 561.531 783.085 555.019 793.274 548.136L825.97 525.889C832.337 521.637 854.206 509.008 857.441 504.461C856.914 495.791 852.635 480.583 850.853 471.151C856.671 468.438 862.93 466.324 868.877 463.869L907.971 447.605Q965.793 422.911 1024 399.142Z"/>
	<path fill="#D4D2F5" d="M539.647 341.271C557.072 327.309 566.081 321.719 580.136 302.876C583.039 298.985 586.321 295.016 588.413 290.624C594.781 308.442 593.006 322.292 593.617 340.607C593.921 349.724 594.809 358.806 595.042 367.933C583.871 376.062 564.682 388.826 552.109 393.891C548.105 395.504 543.693 396.232 539.543 397.419C534.716 398.8 530.058 400.829 525.552 403.026C523.325 404.111 520.518 405.342 518.623 406.942C516.713 408.554 515.658 411.21 513.369 412.357C510.863 413.612 507.551 412.442 504.943 414.057C503.376 415.027 502.365 416.781 502.072 418.577C501.195 423.961 505.663 430.451 508.613 434.665C513.552 441.719 519.733 447.187 528.525 448.535C540.447 450.364 553.048 440.409 562.001 433.61C564.924 436.744 567.852 438.929 571.624 440.936C576.507 439.521 581.158 437.046 585.806 434.996L610.678 424.072C610.737 431.176 609.403 438.477 608.629 445.547L605.046 480.574L594.529 586.164C566.787 600.006 538.396 612.238 509.948 624.529L451.114 650.082C438.512 655.458 426.042 661.11 413.382 666.359C406.24 669.32 398.674 672.685 391.128 674.43C393.064 666.395 392.201 658.708 391.321 650.603C393.762 650.515 396.171 650.138 398.589 649.809C402.104 640.536 402.294 627.158 403.332 617.252C405.371 597.785 407.805 578.302 409.291 558.784C410.358 544.762 410.347 530.613 411.762 516.619C412.605 508.276 416.333 500.079 418.798 492.091C422.161 481.195 424.842 469.062 425.997 457.716C426.878 449.061 425.099 441.04 423.448 432.595C425.021 432.541 426.629 432.491 428.187 432.264C435.631 431.176 439.91 423.567 443.944 418.019C452.351 415.598 458.351 412.347 465.535 407.452C468.049 409.296 471.708 411.791 475.014 411.227C480.272 410.331 481.995 402.738 483.777 398.663C488.22 388.502 504.354 384.957 511.829 374.827C513.891 375.837 516.049 376.852 518.244 377.547C524.008 379.371 531.173 379.128 536.487 376.088Q536.914 375.838 537.329 375.568Q537.743 375.297 538.144 375.006Q538.544 374.714 538.929 374.403Q539.314 374.092 539.683 373.762Q540.052 373.432 540.404 373.084Q540.756 372.736 541.09 372.371Q541.424 372.005 541.739 371.623Q542.055 371.242 542.35 370.845Q542.646 370.448 542.921 370.036Q543.197 369.625 543.451 369.2Q543.705 368.775 543.938 368.338Q544.17 367.901 544.381 367.453Q544.591 367.005 544.778 366.547Q544.966 366.089 545.13 365.622Q545.294 365.154 545.435 364.68Q545.575 364.205 545.692 363.724C547.726 355.523 543.678 348.075 539.647 341.271Z"/>
	<path fill="#9F8BE8" d="M339.885 391.699C342.381 391.449 345.133 391.479 347.637 391.63C353.673 391.993 358.272 395.387 362.16 399.74C370.665 409.264 375.29 421.722 376.086 434.399C376.776 445.394 371.99 465.163 370.1 476.982Q365.579 504.494 362.344 532.186C361.225 541.472 359.865 550.834 359.372 560.177C357.042 558.26 351.993 553.126 348.951 552.822C347.53 552.679 347.344 552.995 346.346 553.877C345.903 555.257 345.677 555.717 346.185 557.151C347.333 560.395 352.249 563.537 355.255 565.03C356.922 565.858 358.526 566.441 359.333 568.187L358.769 568.82C350.588 570.607 343.95 560.128 337.42 557.026C336.155 556.425 335.478 556.479 334.165 556.918C333.433 557.974 333.089 558.417 333.235 559.791C334.238 569.219 353.103 573.147 358.943 578.223C360.698 584.904 361.372 600.723 362.165 608.433L365.927 643.729C366.886 652.681 368.252 661.94 367.792 670.948C367.648 673.763 367.764 675.224 365.503 677.18C357.99 683.676 346.429 684.372 337.057 683.868C329.669 661.456 323.925 638.331 317.958 615.509C313.942 600.151 308.155 583.762 307.442 567.877C307.087 559.966 308.047 551.764 308.266 543.83Q309.254 511.745 310.846 479.684C311.167 474.015 313.244 451.004 312.243 447.12C311.816 445.461 310.741 444.889 309.385 444.068C308.045 443.969 308.04 444.039 306.922 444.807C306.105 446.192 305.683 447.324 305.427 448.917C304.371 455.49 304.807 462.49 304.376 469.139C302.676 495.382 302.708 521.825 300.564 547.999C300.364 556.517 299.573 565.273 300.588 573.744C301.784 583.733 304.46 593.601 306.983 603.315Q311.194 619.617 315.62 635.862C320.258 652.809 324.309 670.669 330.585 687.084C331.891 690.498 336.391 689.906 337.365 692.473C338.202 694.679 338.068 697.637 337.973 699.964C337.523 711.019 339.315 715.351 344.968 724.677C338.041 732.282 328.302 734.597 318.464 735.808C266.626 742.186 225.006 731.251 183.967 698.99C186.759 683.855 186.827 668.016 188.446 652.701Q192.324 614.677 198.029 576.884C200.716 560.101 203.585 542.644 209.352 526.617C216.952 505.497 232.345 479.292 244.518 460.28C252.943 447.122 261.952 434.857 271.443 422.458C278.996 412.591 286.423 402.812 295.268 394.048C310.539 394.906 324.746 393.531 339.885 391.699Z"/>
	<path fill="#A8A6A7" d="M620.741 419.823C624.847 420.187 638.041 429.126 643.22 431.431C664.536 440.917 688.095 445.174 711.327 445.423C712.517 447.676 713.518 450.056 714.585 452.37Q713.899 453.068 713.248 453.799C710.866 456.488 709.539 459.453 708.517 462.871C703.396 479.987 700.654 528.326 701.609 547.226C713.273 552.958 726.574 555.924 738.586 561.06Q723.833 606.393 711.784 652.519C710.587 657.138 707.888 664.032 707.852 668.476C707.795 675.772 718.365 694.689 721.628 703.411C724.866 712.065 727.816 721.149 729.921 730.146C734.815 751.061 736.349 773.008 738.456 794.331C739.061 800.451 740.202 806.489 740.823 812.6C741.834 822.532 741.667 836.774 744.836 845.917C737.156 851.959 729.721 858 720.596 861.764C715.393 863.911 708.107 866.41 702.681 864.122C698.382 853.859 696.375 841.757 693.591 830.972Q688.167 810.461 681.734 790.243C674.718 767.618 666.032 745.456 658.004 723.176C650.977 703.677 643.691 684.628 641.512 663.834C639.404 643.72 645.07 609.397 648.464 588.607C649.19 581.422 650.806 574.288 651.796 567.123L663.707 486.267C664.414 481.279 667.218 470.093 666.377 465.561C666.106 464.095 665.506 463.489 664.294 462.71C662.834 462.577 662.011 462.728 660.778 463.529C659.831 464.143 659.596 465.057 659.338 466.087C658.057 471.2 657.821 476.831 657.045 482.058C655.007 495.782 653.217 509.547 651.013 523.245Q645.334 557.91 640.301 592.674C636.831 616.155 632.021 640.954 634.103 664.685C636.603 693.178 649.718 719.883 658.711 746.706C660.553 752.198 663.781 758.635 664.162 764.42C664.431 768.511 663.011 773.642 662.433 777.753Q660.523 791.154 658.963 804.6C652.729 809.446 644.457 811.372 636.687 811.654C630.823 811.866 615.844 811.698 611.774 807.012C608.846 803.639 608.395 778.753 607.761 772.73C605.349 749.814 603.967 726.865 602.147 703.903C600.325 680.925 597.878 657.527 598.473 634.454C598.853 619.733 600.36 604.869 601.679 590.205Q605.471 548.988 609.884 507.834C611.416 492.129 613.231 476.435 614.568 460.717C615.35 451.532 616.391 442.394 617.255 433.221C617.586 429.712 617.546 425.989 618.092 422.522C618.35 420.876 619.428 420.658 620.741 419.823Z"/>
	<path fill="#FEFEFE" d="M714.502 134.432C726.929 142.667 736.377 153.194 744.065 165.879C752.4 179.631 756.535 196.03 759.247 211.752C761.558 225.151 762.766 238.665 763.842 252.215C765.429 272.21 765.467 292.427 766.718 312.474Q768.566 340.702 770.875 368.896C771.476 376.26 774.962 403.042 773.654 408.475C770.904 410.796 767.448 412.455 764.303 414.187C752.6 420.634 740.022 425.446 728.625 432.408C720.952 420.076 714.284 406.612 707.456 393.778C703.492 386.326 699.756 378.89 694.741 372.066C697.884 367.493 701.979 363.541 705.005 358.878C716.391 341.338 724.674 320.941 733.036 301.807Q743.112 278.612 751.539 254.769C753.011 250.619 755.216 246.274 756.151 241.999C756.467 240.554 756.4 239.512 755.856 238.123C754.854 237.187 754.691 237.086 753.351 236.811C748.803 238.183 746.359 248.274 744.834 252.435C733.937 282.154 722.127 312.322 707.029 340.181C703.829 346.088 700.724 352.376 696.814 357.847C693.513 362.466 689.484 366.381 685.467 370.362C659.754 395.406 615.818 414.321 582.665 428.141C574.104 418.223 570.591 405.885 569.288 393.008C579.303 385.762 590.494 380.094 600.637 372.887C610.611 365.799 620.233 358.34 629.903 350.845C635.168 346.764 642.4 340.335 648.298 337.564C656.67 333.632 669.732 337.565 675.79 334.25C676.47 333.068 676.378 332.794 676.304 331.409C672.906 325.496 662.164 330.945 657.448 327.311C660.338 322.996 674.242 325.695 678.625 322.133C679.247 320.958 679.616 320.459 679.277 319.073C679.111 318.392 678.363 317.33 677.748 317.051C673.461 315.11 660.592 318.675 656 320.082C662.039 303.249 666.393 286.013 670.639 268.658C677.16 242.005 684.627 198.025 702.598 177.27C706.536 172.723 712.006 168.293 717.117 165.135C720.597 162.984 724.465 161.227 727.41 158.342L727.306 156.672C726.594 155.857 726.378 155.541 725.274 155.287C721.707 154.468 717.557 156.835 714.584 158.59C697.216 168.842 684.777 188.638 679.904 207.906Q679.944 205.38 680.052 202.856C680.489 192.387 681.329 171.996 686.424 163.016C690.959 155.02 707.165 141.148 714.502 134.432Z"/>
	<path fill="#352251" d="M466.279 268.675C466.601 268.63 466.923 268.574 467.247 268.539C480.508 267.116 494.396 272.973 504.107 281.693C523.884 299.451 528.355 317.118 529.824 342.731C535.964 348.144 537.633 351.821 539.737 359.57C538.984 362.021 538.36 364.246 536.804 366.335C534.544 369.367 531.751 371.131 527.973 371.577C519.267 372.604 511.762 367.456 507.253 360.323C505.235 357.129 503.372 352.826 500.387 350.464C497.124 350.095 487.077 359.702 483.121 361.909L482.482 362.261C476.661 365.073 464.301 368.835 458.133 367.201C449.421 364.893 459.027 348.516 453.765 339.863C451.91 336.812 448.854 335.103 445.436 334.323C433.97 331.708 429.465 340.953 421.484 345.623C419.727 346.651 417.857 347.026 415.878 346.456C412.297 345.424 409.455 341.72 407.631 338.661C406.548 321.671 412.674 305.778 422.867 292.441C433.897 278.008 448.444 271.097 466.279 268.675Z"/>
	<path fill="#352251" d="M310.65 743.715L318.441 743.419C316.207 762.554 312.001 781.585 308.582 800.542C302.317 835.274 297.424 870.438 297.975 905.791C294.206 911.309 287.518 917.405 281.554 920.482C278.075 918.451 275.858 916.06 273.372 912.97C269.648 908.379 265.87 904.523 264.938 898.442C264.027 892.498 264.082 886.32 263.365 880.324C260.003 852.221 257.053 822.881 260.158 794.646C261.284 784.409 263.543 774.361 265.47 764.26C266.593 758.368 266.854 749.438 270.403 744.655C271.656 743.973 272.967 743.977 274.359 743.931C280.43 743.732 286.598 744.218 292.678 744.307C298.68 744.395 304.66 744.052 310.65 743.715Z"/>
	<path fill="#352251" d="M564.884 27.7035C568.637 27.4652 572.641 27.7674 576.35 28.3905C592.404 31.088 607.452 43.4316 616.647 56.4161C626.523 70.3611 629.481 87.1819 626.656 103.875C624.403 99.8449 621.996 96.3364 617.628 94.3129C614.398 92.8169 611.101 92.8775 607.838 94.2405C599.615 97.6759 595.811 105.959 592.695 113.666C584.023 117.454 569.129 112.404 560.878 109.23C551.959 105.59 543.219 98.9759 536.709 91.9272C534.737 89.7931 533.275 86.9366 531.168 85.0413C530.148 85.0188 529.818 84.8766 529.066 85.6726C524.65 90.346 520.355 108.942 513.719 111.91C512.404 112.499 512.128 112.353 510.902 111.834C509.147 109.827 508.771 107.707 508.533 105.095C506.796 86.1029 514.338 61.5753 526.6 46.9685C536.278 35.4397 550.051 29.0418 564.884 27.7035Z"/>
	<path fill="#FEFEFE" d="M833.635 420.335C838.076 437.532 841.162 455.281 844.281 472.77C845.979 482.293 847.073 492.014 849.824 501.316Q807.89 529.797 765.538 557.653C765.185 555.556 764.87 553.496 764.732 551.372C762.481 533.301 756.941 477.541 746.008 465.482Q746.557 465.729 747.11 465.966C761.603 472.166 775.893 473.499 790.746 467.53C810.445 459.612 825.404 439.351 833.635 420.335Z"/>
	<path fill="#FEFEFE" d="M698.767 908.245C706.463 912.475 713.216 919.487 721.894 921.688C731.616 924.154 739.151 920.026 745.967 913.504C747.308 912.221 749.124 910.026 750.837 909.306C752.226 908.721 752.44 908.909 753.7 909.513C757.122 913.914 757.88 921.907 758.79 927.319L723.131 950.434C713.272 956.835 703.123 964.635 692.059 968.714C681.544 972.591 669.547 973.963 658.392 973.869Q653.788 973.855 649.209 973.379Q644.63 972.904 640.121 971.972C636.992 971.302 628.071 967.681 626.303 967.786C625.381 968.462 625.056 968.733 624.611 969.842C624.246 970.75 624.269 971.878 624.76 972.732C626.425 975.626 631.346 976.576 634.373 977.335C653.288 982.079 678.378 981.721 696.638 974.128C702.836 971.551 708.6 967.655 714.347 964.207C729.529 953.883 746.154 945.565 760.746 934.403C761.751 939.575 762.298 944.303 760.788 949.445C750.789 954.436 740.007 958.323 729.744 962.781C702.099 974.792 678.129 987.595 646.813 984.865C640.415 984.308 626.804 983.049 622.54 977.521C621.486 976.155 621.173 974.533 621.431 972.844C621.945 969.469 623.944 966.855 626.502 964.741C631.375 960.714 637.333 957.615 642.621 954.131C650.465 948.963 658.144 943.163 665.384 937.177C669.925 933.422 674.669 929.444 678.698 925.148C684.203 919.278 688.868 913.095 695.351 908.206L698.767 908.245Z"/>
	<path fill="#9F8BE8" d="M531.464 95.7929C537.647 103.634 544.556 109.468 553.532 113.89C562.573 118.344 571.901 121.278 582.004 121.649C585.303 121.771 589.37 122.336 592.557 121.397C601.078 118.886 600.225 104.527 609.309 101.788C611.552 101.112 614.472 101.203 616.496 102.478C619.986 104.678 620.79 109.708 621.75 113.398C616.832 127.973 609.159 119.965 603.666 126.413C602.931 127.275 602.73 127.775 602.79 128.925C603.433 129.65 603.943 130.01 604.872 130.255C609.844 131.564 615.667 129.834 620.006 127.318C624.029 124.984 627.101 121.647 628.322 117.112C628.599 116.083 628.761 115.348 629.387 114.463C633.406 113.942 644.647 118.573 648.179 120.774C648.104 122.32 647.904 123.841 647.645 125.366C645.257 139.418 633.968 158.308 622.41 166.584C617.709 169.18 613.317 169.939 608.025 170.211C606.234 167.097 604.595 163.899 602.927 160.718C607.696 155.662 619.229 142.459 620.182 136.026C619.887 135.237 619.95 134.79 619.136 134.396C617.862 133.779 616.433 133.891 615.287 134.731C612.454 136.808 609.652 142.051 607.435 144.956C602.03 152.038 587.008 169.825 578.908 172.395C577.015 172.995 574.374 172.851 572.643 171.827C571.831 171.347 571.993 171.2 571.764 170.351C572.435 169.106 573.157 167.924 573.927 166.737L573.689 165.799C570.717 164.675 566.875 165.877 563.639 165.179C563.723 162.816 568.636 161.269 570.04 158.803L569.646 158.003C563.185 156.73 555.047 160.616 548.21 158.116C544.435 156.736 547.75 144.374 545.76 140.533C543.1 135.399 535.624 134.048 531.805 129.902C527.974 125.744 525.417 118.349 522.954 113.199C526.636 107.617 529.12 102.026 531.464 95.7929Z"/>
	<path d="M555.204 124.116C556.172 123.986 557.28 123.779 558.253 123.873C559.566 124.001 560.408 124.611 561.255 125.541L561.009 126.532C557.46 130.141 550.937 131.355 546.229 132.947C544.717 133.146 543.327 133.495 541.88 132.857C541.343 131.66 541.441 131.284 541.569 129.956C543.71 127.019 551.708 125.05 555.204 124.116Z"/>
	<path d="M612.737 107.481C614.043 107.576 615.654 107.694 616.715 108.532C617.314 109.006 617.136 109.432 617.181 110.129C615.601 112.847 612.901 114.275 610.237 115.757C608.875 115.966 607.78 115.71 606.494 115.277C605.952 114.212 605.733 113.91 606.18 112.683C607.25 109.747 610.107 108.571 612.737 107.481Z"/>
	<path d="M562.923 131.917C564.057 132.231 564 132.512 564.667 133.425C564.542 133.918 564.555 133.977 564.261 134.49C562.14 138.191 557.02 140.288 553.062 141.012C551.923 140.139 551.606 140.182 551.394 138.786C553.203 135.626 559.68 133.861 562.923 131.917Z"/>
	<path fill="#9F8BE8" d="M415.052 476.209C414.62 473.394 414.886 470.467 414.911 467.628C414.973 460.341 414.347 453.897 411.667 447.079C406.635 434.276 399.033 420.047 391.576 408.474C386.443 400.507 379.447 391.156 370.714 386.83C358.008 380.536 329.06 386.227 314.324 387.234C305.776 387.818 295.21 387.644 287.278 384.002C284.953 382.935 282.977 381.362 282.18 378.846C281.024 375.197 282.295 371.196 284.089 367.996C286.149 364.323 289.108 360.9 291.979 357.839C297.555 351.895 322.88 327.998 328.637 326.364L328.434 327.039C327.421 329.365 327.471 331.169 327.541 333.635C333.351 339.226 341.214 342.722 348.531 345.901C373.127 356.588 384.688 367.009 397.895 390.612C408.19 409.012 419.496 433.045 418.954 454.491C418.774 461.633 416.985 469.355 415.052 476.209Z"/>
	<path d="M327.379 348.942C328.404 348.921 328.978 348.994 329.914 349.42C330.85 350.554 331.243 351.001 331.36 352.532C331.03 353.519 330.712 354.072 329.886 354.687C325.638 357.852 320.497 360.184 315.972 362.979C310.188 366.552 304.803 370.64 299.143 374.378C297.2 374.012 296.656 373.824 295.251 372.417C295.07 371.622 294.791 371.105 295.078 370.303C297.146 364.514 321.1 351.547 327.379 348.942Z"/>
	<path fill="#FEFEFE" d="M577.683 189.305C582.11 200.487 579.094 227.418 579.701 240.812C580.326 254.572 582.18 267.772 585.305 281.179C575.296 298.904 568.105 308.969 552.593 322.383C547.503 326.785 542.518 330.973 536.848 334.623L535.563 328.272C534.13 311.091 529.647 301.012 519.031 287.547C532.15 276.053 540.47 258.72 548.94 243.798C559.137 225.833 568.827 207.983 577.683 189.305Z"/>
	<path fill="#FEFEFE" d="M637.087 103.128C638.267 103.407 639.283 103.237 640.477 103.235C648.903 103.22 654.354 103.604 660.561 109.645C658.655 147.35 633.534 179.697 627.353 216.739C625.322 228.908 627.812 242.122 631.068 253.918C632.159 257.869 635.193 264.2 634.702 268.182C634.486 269.936 634.239 271.636 635.051 273.267C635.542 273.619 636.219 274.032 636.658 274.467C639.288 277.068 636.618 314.7 636.468 320.233C636.321 325.652 636.479 331.078 636.613 336.496C636.255 336.839 635.751 337.049 635.318 337.288L635.786 336.858C633.66 340.022 618.492 350.987 614.513 353.885C614.581 349.867 614.204 345.877 613.88 341.877C612.386 326.641 612.026 311.057 611.791 295.749C611.681 288.539 612.132 281.065 611.37 273.907C614.587 268.212 616.485 263.021 617.156 256.494C619.576 232.972 605.249 195.237 600.305 171.543C603.089 174.682 605.642 176.568 609.938 177.001C616.421 177.654 623.797 174.395 628.807 170.388C641.084 160.567 653.305 140.54 654.873 124.704C655.134 122.064 655.294 118.27 653.564 116.041C649.847 111.251 636.299 111.436 632.936 106.57C632.505 105.946 632.825 105.643 633.027 104.994C634.372 103.972 635.465 103.573 637.087 103.128Z"/>
	<path fill="#FEFEFE" d="M654.32 851.793L658.112 854.818C659.738 860.089 660.737 865.461 661.795 870.866C655.928 875.606 649.497 879.744 643.278 884.004C629.579 893.386 615.735 902.754 600.625 909.734C592.957 912.915 585.328 915.46 577.126 916.86C566.384 918.694 548.071 919.503 538.852 912.586C537.1 911.272 534.442 908.881 534.159 906.612C537.041 903.4 542.683 901.446 546.437 899.179C555.742 893.559 565.544 887.663 574.304 881.244C584.926 873.461 591.403 860.761 601.054 851.926C607.024 851.974 612.934 858.609 617.743 861.79C623.077 865.319 629.254 867.79 635.721 866.297C643.265 864.555 650.315 858.245 654.32 851.793Z"/>
	<path fill="#352251" d="M332.986 740.032C336.57 739.607 336.959 744.1 340.068 745.499C344.324 747.413 349.768 744.346 353.633 742.715C353.222 753.447 350 764.294 347.967 774.837Q342.974 801.251 338.374 827.736Q335.269 845.983 332.548 864.291C331.877 868.845 331.865 873.74 330.825 878.192C330.111 881.243 327.342 883.816 325.362 886.152C324.23 887.489 322.729 888.488 321.334 889.536C315.864 889.973 310.428 890.105 304.945 890.187C304.994 874.926 307.257 859.324 309.313 844.211C313.972 809.977 320.748 776.111 326.715 742.097L332.986 740.032Z"/>
	<path fill="#FEFEFE" d="M306.266 904.813C315.916 911.98 324.322 926.294 334.129 935.126C338.91 939.432 344.053 943.931 349.363 947.558C355.321 951.626 362.197 954.951 367.493 959.87C370.018 962.215 373.833 966.263 373.635 969.904C373.552 971.42 372.662 972.635 371.516 973.549C363.954 979.576 346.34 979.973 337.085 979.223C329.295 978.593 321.168 976.115 313.75 973.647C305.105 970.771 297.068 966.914 288.692 963.405C278.847 959.279 268.159 955.644 259.099 949.937C257.369 948.848 256.107 947.606 254.784 946.058C255.195 942.164 255.718 938.374 256.505 934.538C267.844 938.816 286.908 952.938 297.962 960.31C312.039 968.97 329.252 975.39 345.874 975.911C355.775 976.222 364.89 973.626 372.18 966.749C371.398 965.691 370.566 964.689 369.72 963.683C365.363 961.778 358.083 969.518 351.035 968.969C346.951 968.652 342.769 969.241 338.718 968.633C316.488 965.296 301.668 954.207 283.552 942.503Q270.774 934.116 257.131 927.226C257.497 924.649 258.057 922.052 258.648 919.517C259.216 917.082 259.957 913.17 262.171 911.775C265.261 912.035 270.909 921.889 274.133 924.398C276.551 926.28 279.403 927.378 282.484 926.873C291.519 925.391 301.291 912.025 306.266 904.813Z"/>
	<path fill="#352251" d="M716.336 461.007C722.441 461.912 734.649 464.069 739.249 468.089C742.622 471.037 744.522 475.996 745.794 480.2C750.252 494.928 752.845 519.438 754.814 535.308C755.812 543.347 757.216 551.342 757.928 559.411L751.644 557.22Q730.114 550.278 709.111 541.876C709.719 515.21 710.103 486.998 716.336 461.007Z"/>
	<path fill="#352251" d="M804.799 406.231C805 406.208 805.199 406.171 805.4 406.162C814.719 405.775 821.578 409.784 828.447 415.496C821.746 430.51 809.827 448.065 795.733 456.725C784.197 463.814 771.597 465.895 758.461 462.682C742.685 457.481 740.612 451.85 732.203 438.56C741.871 432.732 752.681 428.245 762.768 423.146C771.995 418.482 780.756 412.86 790.499 409.266C795.357 407.474 799.624 406.474 804.799 406.231Z"/>
	<path fill="#9F8BE8" d="M405.223 467.324C407.506 474.891 403.727 527.807 403.397 539.365C402.542 538.286 401.716 537.176 400.842 536.113C397.743 532.348 396.617 525.976 392.801 523.203C391.592 522.326 390.651 522.213 389.226 522.48C388.498 523.062 388.184 523.43 387.796 524.308C387.009 526.093 387.408 528.573 388.213 530.276C391.231 536.66 395.824 544.697 402.701 547.135C400.763 575.938 398.184 605.027 394.185 633.622Q393.678 638.135 393.114 642.641C385.892 642.286 378.976 640.106 372.039 638.217C371.712 627.144 369.024 615.878 369.506 604.812C369.973 594.12 372.934 583.034 375.03 572.558C379.075 552.333 383.073 532.218 389.218 512.496C393.972 497.24 400.142 482.482 405.223 467.324Z"/>
	<path fill="#9F8BE8" d="M440.377 340.571L440.538 340.564C443.081 340.454 445.526 340.9 447.338 342.886C451.19 347.106 447.697 355.514 447.653 360.722C447.623 364.323 448.284 369.037 451.03 371.656C453.225 373.748 456.435 374.277 459.358 374.27C473.234 374.236 488.66 369.154 498.578 359.252C501.355 364.014 503.868 367.55 508 371.206C502.678 375.417 490.916 385.811 484.772 387.474C483.837 385.009 483.461 383.426 481.113 381.923C479.349 380.795 477.003 379.239 474.85 379.776C473.838 380.029 473.04 380.881 472.56 381.78C471.393 383.963 471.443 385.509 472.173 387.798C476.269 390.161 478.345 390.254 482.867 389.241C481.208 391.302 479.559 393.324 478.515 395.784C477.505 398.165 476.987 401.596 475.56 403.678C475.059 404.408 474.661 404.846 473.793 405.032C470.912 405.651 468.026 402.515 465.878 400.952C459.66 404.491 453.711 408.846 446.808 410.954C442.29 412.334 435.66 413.522 431.406 411.093C427.674 408.962 426.117 404.399 425.16 400.444C422.573 389.747 425.42 378.188 430.989 368.927C429.275 367.186 427.739 365.364 426.205 363.468C425.836 358.988 425.568 354.642 427.534 350.439C430.087 344.981 435.055 342.578 440.377 340.571Z"/>
	<path d="M436.604 348.929C438.723 349.435 441.261 348.574 443.089 349.599C444.111 350.893 444.772 352.235 445.012 353.893C445.184 355.083 445.142 355.762 444.4 356.733C442.992 356.534 442.462 355.883 441.362 355.01L440.26 355.941C439.777 354.881 439.88 355.348 439.792 354.142C439.77 353.854 439.762 353.564 439.747 353.274L440.354 352.326L439.704 352.025C436.15 353.504 439.148 356.758 437.093 359.133L435.762 359.183C434.844 358.573 434.529 358.495 434.287 357.346C433.677 354.438 434.997 351.256 436.604 348.929Z"/>
	<path fill="#FEFEFE" d="M634.47 85.2442C640.255 87.7752 645.663 91.1175 651.323 93.9187C671.981 104.143 692.306 114.935 713.227 124.636C707.66 133.641 694.334 143.662 686.625 151.867C673.053 166.313 660.477 181.441 648.005 196.822C644.067 201.663 635.851 212.42 634.284 218.158C633.583 220.727 634.314 223.517 633.441 226.089L632.865 225.777C632.464 219.642 635.163 212.2 636.931 206.346C640.829 193.439 645.506 180.902 650.526 168.395C656.485 153.548 663.36 138.135 666.543 122.445C667.545 117.505 667.71 113.009 667.436 107.981C666.265 105.981 664.996 103.957 663.24 102.417C655.869 95.9555 644.493 95.939 635.304 96.6152L635.45 95.8218L634.899 96.5716C634.193 93.1127 635.213 89.3713 634.572 85.7599C634.542 85.5873 634.504 85.4161 634.47 85.2442Z"/>
	<path fill="#FEFEFE" d="M338.3 880.18C339.224 880.521 339.869 881.019 340.569 881.701C344.006 885.048 347.105 888.889 350.38 892.41C355.613 898.036 361.216 903.53 366.997 908.59C376.883 917.242 388.77 923.227 398.414 932.17C397.536 933.239 396.639 934.391 395.539 935.24C388.811 940.433 377.304 939.598 369.383 938.87C342.653 935.486 332.295 923.006 315.191 903.613C313.179 901.332 310.467 899.975 308.578 897.721C312.129 896.22 319.516 896.76 323.387 896.868C330.681 893.113 334.354 886.997 338.3 880.18Z"/>
	<path fill="#352251" d="M328.637 326.364C335.527 326.706 346.342 326.704 351.717 321.76C355.019 318.722 357.009 314.86 358.91 310.881C364.751 298.658 369.353 289.237 382.411 283.712C387.642 281.499 393.362 280.019 399.074 280.177C405.821 280.362 410.878 282.976 415.971 287.118C410.212 288.292 406.207 291.297 402.912 296.177C390.898 313.978 399.017 332.28 370.002 338.589C359.169 340.945 348.917 339.863 339.508 333.772C336.504 331.828 331.817 327.563 328.434 327.039L328.637 326.364Z"/>
	<path fill="#FEFEFE" d="M673.821 389.379C674.169 389.53 674.579 389.582 674.864 389.832C677.243 391.913 703.934 434.88 706.18 439.024C693.631 437.785 680.733 435.987 668.567 432.625C657.491 429.173 640.328 424.089 631.557 416.874C630.628 416.11 630.196 415.689 630.083 414.459Q631.528 413.878 632.964 413.276C646.619 407.677 661.538 397.735 673.821 389.379Z"/>
	<path fill="#FEFEFE" d="M654.255 200.392C655.315 205.461 654.309 214.511 654.637 220.183C655.431 233.928 660.078 248.426 665.135 261.163C662.4 275.337 658.131 289.794 653.887 303.584C651.246 312.162 647.79 321.019 646.445 329.903L645.797 331.144C644.652 331.193 644.844 331.082 644.037 330.384C642.504 327.123 644.676 301.509 644.727 295.183Q645.005 273.485 642.374 251.946C641.397 243.43 638.977 234.604 639.362 226.027C639.446 224.142 639.623 222.239 640.343 220.478C642.235 215.846 650.582 203.761 654.255 200.392Z"/>
	<path fill="#352251" d="M642.524 51.6399C642.745 51.6298 642.965 51.6147 643.187 51.6097C656.745 51.3063 657.442 65.802 663.749 71.8372C667.194 73.2386 670.89 71.5581 674.292 70.6084C678.414 71.8213 681.848 73.54 684.463 77.0739C690.288 84.9439 689.26 95.3407 687.784 104.361C685.544 102.944 683.279 101.847 680.871 100.754C665.45 93.5011 649.788 85.9109 634.816 77.7757C632.242 72.0076 630.042 66.017 627.547 60.2008C631.91 55.6886 636.189 52.5694 642.524 51.6399Z"/>
	<path fill="#352251" d="M768.331 224.754C772.683 228.274 775.46 238.437 777.466 243.669C783.871 260.373 788.832 277.312 793.529 294.547C795.398 301.405 797.514 308.267 799.019 315.21C804.967 342.654 808.705 370.558 813.32 398.243L804.407 398.028C807.598 380.906 788.04 308.337 782.022 288.898C778.906 278.834 774.088 268.774 771.794 258.543C770.348 252.095 770.228 245.382 769.677 238.814C769.282 234.116 768.554 229.47 768.331 224.754Z"/>
	<path fill="#D4D2F5" d="M772.468 282.303C775.407 287.901 776.809 295.119 778.588 301.232C785.077 323.519 789.747 345.993 793.778 368.833C795.149 376.599 796.082 384.519 797.526 392.245C797.935 394.437 799.644 395.688 799.449 398.015C798.208 399.302 795.878 399.745 794.185 400.327C789.766 401.414 785.785 402.926 781.648 404.815C777.585 364.147 773.267 323.184 772.468 282.303Z"/>
	<path fill="#FEFEFE" d="M586.613 214.375C587.875 215.775 599.717 238.467 601.239 241.781C602.293 244.078 603.225 246.395 603.744 248.878C605.71 258.3 604.644 267.899 604.62 277.438Q604.515 297.277 605.07 317.109C605.478 331.026 607.941 345.222 607.453 359.088L602.265 362.475C601.292 355.874 601.439 349.094 601.294 342.438C601.138 335.303 600.834 328.175 600.717 321.039C600.64 316.306 600.811 311.43 600.236 306.732C598.794 294.935 593.303 283.263 590.613 271.628C586.296 252.953 586.645 233.435 586.613 214.375Z"/>
	<path fill="#9F8BE8" d="M547.934 402.189C548.928 402.259 549.719 402.439 550.665 402.749C551.939 406.221 551.647 410.156 552.424 413.764C553.504 418.787 556.055 423.689 558.173 428.35C548.884 433.228 542.479 440.204 531.885 442.896C528.592 441.934 525.351 441.076 522.352 439.368C515.749 435.216 511.622 427.124 508.785 420.112C515.119 418.901 530.157 416.297 533.515 409.972C534.27 408.55 533.598 407.747 533.086 406.356C534.897 403.897 544.849 402.79 547.934 402.189Z"/>
	<path fill="#9F8BE8" d="M404.048 347.94C405.175 348.138 404.816 347.954 405.702 348.534C410.385 351.595 413.877 353.197 419.485 353.956C419.351 359.774 419.61 363.459 422.422 368.652C418.922 377.415 417.366 385.062 417.654 394.525C415.348 395.93 413.261 397.607 411.132 399.26L407.825 393.339C400.375 379.425 392.74 369.304 381.959 357.81C389.422 354.755 396.929 351.748 404.048 347.94Z"/>
	<path fill="#9F8BE8" d="M745 855.999C746.336 857.464 747.095 874.193 747.482 877.484C743.368 881.729 738.102 885.096 732.755 887.574C725.044 891.147 716.792 893.116 708.55 890.057C705.552 885.318 706.152 877.896 704.175 872.487C721.724 872.428 730.897 865.415 745 855.999Z"/>
	<path fill="#FEFEFE" d="M401.248 443.278C401.512 443.517 401.664 443.635 401.885 443.977C405.333 449.318 398.223 465.304 396.084 470.925C390.083 486.699 383.502 502.628 378.988 518.891C373.317 539.328 370.343 560.404 366.264 581.178C365.796 580.752 365.645 580.44 365.519 579.792C364.115 572.563 366.344 561.493 367.198 553.946C368.675 540.9 369.527 527.59 372.275 514.74C376.812 493.526 390.594 462.4 401.248 443.278Z"/>
	<path fill="#9F8BE8" d="M363.105 686.964L364.221 686.932C364.866 687.429 365.062 687.784 365.38 688.556C366.243 690.647 366.266 693.429 366.662 695.664C368.193 704.297 370.651 712.712 366.569 721.184C362.997 728.598 350.909 736.008 343.326 738.827C343.31 738.556 343.276 738.286 343.278 738.016C343.301 735.386 345.659 734.085 347.402 732.457C355.389 724.995 346.679 716.717 345.031 708.588C343.938 703.196 344.473 697.273 344.647 691.796C351.178 691.092 357.081 689.578 363.105 686.964Z"/>
	<path fill="#FEFEFE" d="M662.397 879.476C662.475 879.55 662.569 879.611 662.633 879.699C664.389 882.129 663.816 889.525 663.873 892.672Q660.584 894.594 657.149 896.243C646.201 901.448 634.857 905.942 623.656 910.579C605.777 917.979 586.915 927.138 567.515 929.235C558.298 930.231 547.766 929.018 539.038 925.881C535.177 924.493 530.248 922.402 528.416 918.523C528.385 916.167 528.638 912.325 530.212 910.443C530.267 911.557 530.547 912.712 531.134 913.683C534.063 918.531 541.019 921.064 546.249 922.488C554.199 924.653 562.755 924.984 570.94 924.431C598.623 922.56 621.549 906.804 643.718 891.71C649.593 887.709 655.386 883.447 661.569 879.941L662.397 879.476Z"/>
	<path fill="#352251" d="M689.731 375.851C693.051 379.929 700.098 395.775 703.138 401.548C713.409 421.056 724.046 440.664 736.668 458.778L730.583 456.497C728.15 455.586 725.76 454.567 723.363 453.566C720.663 448.201 717.298 443.259 714.17 438.144C708.57 428.99 702.982 419.889 697.065 410.935C691.689 402.8 684.444 393.773 681.241 384.566Q685.524 380.245 689.731 375.851Z"/>
	<path fill="#9F8BE8" d="M612.176 814.019C629.473 820.72 641.352 821.172 658.491 813.839C657.918 819.22 657.374 824.593 656.491 829.935L656.407 830.216C654.914 831.19 653.448 831.988 651.779 832.629C644.102 835.579 632.044 837.656 623.901 836.365C620.214 835.781 616.506 834.237 613.11 832.738C612.168 826.617 612.615 820.212 612.176 814.019Z"/>
	<path fill="#352251" d="M676.902 173.999L677.18 174.352C676.75 179.275 675.677 184.116 675.436 189.068C675.022 197.573 675.519 206.141 675.007 214.637C674.43 224.213 671.757 236.148 668.081 244.978C667.551 243.08 666.888 241.212 666.271 239.341C661.881 224.506 661.21 209.187 660.375 193.848C664.986 186.842 671.008 179.973 676.902 173.999Z"/>
	<path fill="#9F8BE8" d="M365.91 393.288C366.516 393.37 367.1 393.445 367.686 393.626C379.314 397.219 392.025 424.087 397.29 434.441C391.174 445.662 385.914 457.937 381.015 469.75Q378.959 475.085 376.744 480.357C378.868 467.103 383.744 448.092 383.15 435.287C382.44 419.993 377.405 403.826 365.91 393.288Z"/>
	<path fill="#FEFEFE" d="M592.93 171.927L593.355 172.343C594.887 181.462 597.922 190.364 600.394 199.265C602.316 206.183 603.566 213.231 605.054 220.248C606.407 226.629 608.167 233.001 608.85 239.498C607.074 236.859 605.682 233.962 604.215 231.144C601.071 224.65 597.178 218.493 593.97 212.018C588.908 201.8 584.696 189.848 581.758 178.816C585.871 176.852 589.297 174.655 592.93 171.927Z"/>
	<path fill="#FEFEFE" d="M742.089 892.121C744.134 893.915 745.29 899.525 746.123 902.126C738.994 910.198 737.054 914.326 725.404 915.802C722.377 914.687 719.455 913.376 716.514 912.057C713.662 910.074 711.07 907.64 708.45 905.359C709.138 903.421 709.627 901.406 710.166 899.422C722.054 899.764 731.402 897.434 742.089 892.121Z"/>
	<path fill="#FEFEFE" d="M649.696 841.098L650.091 841.212C650.325 841.604 650.424 841.71 650.525 842.22C650.778 843.494 650.598 845.157 649.916 846.251C647.044 847.523 646.1 849.865 644.278 852.186C639.622 858.12 634.87 858.647 627.781 859.525C624.65 858.181 621.662 856.394 618.673 854.758C617.355 854.009 616.108 853.03 614.864 852.156Q614.866 846.603 614.988 841.052C626.077 845.217 638.503 844.361 649.696 841.098Z"/>
	<path fill="#9F8BE8" d="M373.396 646.132C377.194 646.812 380.782 647.69 384.457 648.866C385.48 663.853 386.691 673.995 377.696 687.019C376.204 688.289 374.569 689.443 373.015 690.64L370.36 682.795C371.968 681.219 373.352 679.477 374.775 677.736C375.533 667.21 373.656 656.657 373.396 646.132Z"/>
	<path fill="#D4D2F5" d="M402.194 316.889C402.379 317.111 402.652 317.284 402.751 317.556C403.036 318.344 401.368 324.102 401.16 325.341C400.193 331.121 399.618 337.346 401.27 343.04C392.416 344.665 384.934 350.479 376.356 352.091C374.305 352.476 373.357 351.231 371.782 350.087C369.907 349.158 368.1 348.061 366.279 347.029C372.412 344.987 378.671 343.596 384.518 340.724C394.569 335.787 398.712 326.977 402.194 316.889Z"/>
	<path fill="#FEFEFE" d="M562.375 395.576C562.816 404.157 565.773 414.914 570.017 422.39C571.589 425.158 574.949 428.729 575.616 431.717C574.424 432.725 573.054 432.655 571.568 432.775C570.507 432.156 569.357 431.559 568.44 430.734C561.61 424.584 557.492 407.812 557.472 398.909L562.375 395.576Z"/>
	<path fill="#9F8BE8" d="M418.782 401.937C421.798 404.877 423.004 410.309 425.827 413.671C428.658 417.044 432.869 417.374 436.942 417.68C434.832 420.018 432.668 422.193 430.344 424.318C427.9 425.796 426.1 427.003 423.173 426.303C420.122 424.041 415.565 409.113 413.967 404.756L418.782 401.937Z"/>
	<path fill="#FEFEFE" d="M402.461 937.374C402.867 937.733 402.978 937.777 403.265 938.332C403.807 939.377 404.02 941.277 403.424 942.303C401.758 945.177 397.704 946.495 394.67 947.385C387.948 949.358 372.879 950.922 366.065 949.267C363.031 948.53 359.385 945.982 356.612 944.445C355.733 943.94 355.157 943.563 354.524 942.764C356.075 942.454 357.768 943.092 359.291 943.443C366.689 945.146 373.567 946.085 381.198 945.694C389.712 945.258 396.565 943.904 402.461 937.374Z"/>
</svg>
