<?xml version="1.0" encoding="utf-8" ?>
<svg xmlns="http://www.w3.org/2000/svg" xmlns:xlink="http://www.w3.org/1999/xlink" width="1024" height="1024">
	<path d="M0 0L1024 0L1024 426.243L1024 503.305L1024 512.266L1024 1024L875.764 1024L867.86 1024L693.971 1024L686.043 1024L553.222 1024L544.381 1024L464.373 1024L456.197 1024L0 1024L0 830.052L0 817.559L0 570.033L0 0Z"/>
	<path fill="#9F8BE8" d="M0 0L1024 0L1024 426.243C1010.85 415.204 997.568 403.632 986.492 390.459C992.489 376.345 997.536 362.31 999.263 346.951C1002.06 322.055 997.508 295.133 981.416 275.253C964.041 253.786 940.219 247.126 913.56 249.809C904.692 250.702 895.13 253.043 886.246 251.96C880.513 251.262 874.781 248.75 871.181 244.09C861.888 232.062 871.521 208.56 872.939 194.754C875.158 173.139 867.883 151.874 854.216 135.166C826.188 100.902 767.616 78.078 724.368 73.9534C708.949 72.4828 692.726 73.3428 677.719 77.1399C639.316 86.8563 600.323 116.418 572.117 143.479Q561.02 153.999 550.338 164.939C543.785 171.648 537.379 178.729 530.148 184.716C520.698 186.273 511.175 186.832 501.754 188.732C484.276 192.257 473.041 199.347 463.125 214.256C449.465 216.237 436.124 219.428 422.781 222.899C382.354 233.416 347.448 247.449 309.715 265.201C303.195 268.269 288.058 274.51 283.271 279.053C272.261 279.845 261.388 280.875 250.602 283.318C216.897 290.953 182.913 310.131 160.208 336.411C144.486 354.609 132.564 377.447 127.277 400.937Q113.61 414.432 100.678 428.632Q87.7459 442.833 75.5852 457.699Q63.4245 472.565 52.0694 488.056Q40.7143 503.546 30.1968 519.617Q19.8542 535.883 10.2293 552.583C6.88956 558.332 3.8049 564.612 0 570.033L0 0Z"/>
	<path fill="#9F8BE8" d="M693.971 1024Q697.137 901.237 704.232 778.637L707.832 725.059C708.872 710.21 709.539 694.669 712.675 680.104C715.776 665.701 722.175 651.951 730.588 639.897C740.794 625.273 754.616 614.2 768.188 602.896C824.827 555.721 912.747 503.302 985.477 490.241C998.078 497.9 1011.31 504.681 1024 512.266L1024 1024L875.764 1024L867.86 1024L693.971 1024Z"/>
	<path d="M867.86 1024Q873.511 993.322 877.47 962.379Q881.429 931.437 883.684 900.324C883.976 896.613 883.819 881.894 886.61 880.076C887.614 879.422 888.372 879.349 889.527 879.159C890.73 879.733 891.204 880.105 891.713 881.379C895.946 891.98 880.2 1005.15 875.764 1024L867.86 1024Z"/>
	<path d="M805.122 637.696C809.955 637.85 816.877 645.536 820.331 648.678C860.823 685.517 886.357 731.461 893.109 786.013C893.81 791.671 894.756 797.497 894.986 803.193C895.112 806.339 895.18 808.456 892.94 810.9C891.36 810.82 890.213 810.673 888.748 810.057C886.396 807.866 886.466 796.785 886.118 793.215C880.845 739.192 858.302 698.085 820.683 659.699C816.201 655.127 804.527 647.201 802.597 641.536C802.96 639.832 803.977 638.921 805.122 637.696Z"/>
	<path fill="#F9BF79" d="M494.444 427.444C504.664 438.11 514.208 445.923 527.681 452.265C524.388 463.525 517.952 479.359 524.404 490.563C528.032 496.862 534.735 499.79 541.496 501.438C546.205 502.585 551.172 503.277 556.007 503.571C559.099 503.759 562.513 503.609 565.54 504.204C566.489 504.39 567.092 504.672 567.835 505.316C571.06 511.93 563.886 520.954 576.765 525.666C580.735 527.119 584.651 527.493 588.844 527.335C589.3 534.523 589.296 543.772 595.277 548.814C601.07 553.697 610.021 551.75 615.978 556.323C627.467 565.144 626.386 591.488 651.02 588.579C668.142 586.558 688.782 571.486 702.309 561.085C707.803 556.861 713.144 552.413 719.219 549.035C736.566 539.39 752.894 544.122 767.841 555.803C771.473 558.641 775.067 561.67 778.217 565.044C772.716 572.705 766.48 579.889 760.694 587.343C753.748 596.292 747.212 605.545 740.279 614.498C729.875 627.933 719.155 640.54 712.334 656.338C709.204 663.587 706.547 670.984 705.016 678.746C702.423 691.895 701.448 705.446 700.213 718.779Q696.613 761.94 694.469 805.198Q688.653 914.537 686.043 1024L553.222 1024C540.573 1006.63 528.968 988.807 518.841 969.839C504.429 942.846 462.223 845.675 466.454 818.388C468.396 805.867 475.659 791.243 480.277 779.404Q491.065 752.3 501.17 724.934C508.097 705.944 515.263 686.203 517.378 665.994C518.739 652.99 517.82 639.387 516.684 626.386C516.066 619.31 518.615 610.289 514.382 604.085C513.149 602.279 511.378 600.969 509.67 599.646C510.16 592.477 513.041 574.547 508.274 569.202C505.191 565.746 500.412 565.553 496.104 565.414C497.378 560.502 499.29 554.414 496.67 549.605C495.739 547.897 494.322 546.722 492.425 546.242C485.943 544.602 476.601 552.891 474.66 549.944C477.339 537.846 487.327 525.08 491.196 512.815C494.547 502.189 493.516 490.916 492.172 480.055C491.741 476.574 490.965 472.912 491.087 469.399C491.246 464.814 492.862 460.288 493.45 455.738C494.663 446.345 494.715 436.897 494.444 427.444Z"/>
	<path fill="#9F8BE8" d="M0 830.052C11.8155 815.193 23.554 799.972 36.9222 786.465C43.8981 779.417 51.5626 773.136 58.943 766.528C63.8584 762.128 68.5387 757.075 73.7508 753.065C76.7888 760.97 80.5519 768.569 84.1772 776.216Q95.2873 799.096 107.905 821.181Q120.524 843.266 134.593 864.455C138.672 870.689 142.779 878.475 147.948 883.829C155.489 884.795 163.444 884.063 171.032 883.787Q190.319 883.086 209.587 881.988C216.686 881.611 223.815 880.947 230.925 880.979C226.844 885.443 205.055 907.591 203.987 911.674C208.63 920.965 291.837 957.558 306.858 965.887C312.69 969.12 318.644 972.979 323.828 977.201C328.926 981.354 335.731 990.911 341.479 993.079C342.464 993.451 343.667 993.648 344.66 993.233C345.952 992.694 348.043 987.972 348.691 986.578C352.211 979 355.2 971.093 358.393 963.37Q367.564 941.746 376.237 919.917C380.927 908.399 386.866 896.817 390.514 884.918C388.623 879.307 382.511 868.245 382.889 863.051C383.793 862.318 383.332 862.42 384.457 862.53C386.228 862.704 387.539 863.717 388.589 865.091C391.104 868.382 392.314 872.972 394.012 876.752C398.204 886.086 402.544 895.268 406.504 904.717L438.539 981.497C444.363 995.606 449.58 1010.25 456.197 1024L0 1024L0 830.052Z"/>
	<path d="M35.081 837.39C43.7228 838.088 52.9042 844.248 59.3309 849.696C88.2276 874.195 126.65 949.304 144.255 984.9C146.486 989.41 156.173 1008.3 156.135 1012.56C156.122 1013.99 154.908 1014.94 153.966 1015.87C150.739 1015.67 149.652 1015.39 148.205 1012.39C145.537 1006.87 143.595 1000.99 140.901 995.452C123.589 959.881 82.6952 880.553 53.9662 855.282C48.3309 850.325 41.6976 848.452 35.5967 844.498C34.1369 843.552 33.5072 842.815 33.1079 841.067C33.3395 839.334 33.9155 838.661 35.081 837.39Z"/>
	<path fill="#F9BF79" d="M127.277 400.937C121.696 429.547 119.411 455.477 122.368 484.607C123.014 490.977 123.616 497.401 125.005 503.659C113.034 506.573 102.604 511.681 95.9499 522.521C89.3008 533.351 88.1291 546.418 91.1224 558.62C93.9654 570.21 100.253 582.105 110.754 588.394Q112.033 589.172 113.337 589.907C113.748 605.598 120.051 620.349 131.471 631.281C139.71 639.167 150.155 643.685 161.646 643.384C168.432 643.207 174.226 640.611 179.848 637.025C177.283 645.26 175.92 654.4 172.841 662.352C170.534 668.309 166.646 674.072 163.086 679.363C152.407 675.871 141.763 670.516 130.389 670.294C121.947 674.27 111.706 687.736 104.359 694.487Q99.1467 699.215 93.5074 703.425Q87.8682 707.636 81.8534 711.289C78.566 713.315 64.5846 720.275 63.6337 722.721C62.1623 726.506 69.1588 740.658 70.6899 745.076C58.2232 755.992 45.1491 766.994 33.4878 778.749C21.4856 790.848 10.6378 804.265 0 817.559L0 570.033C3.8049 564.612 6.88956 558.332 10.2293 552.583Q19.8542 535.883 30.1968 519.617Q40.7143 503.546 52.0694 488.056Q63.4245 472.565 75.5852 457.699Q87.7458 442.833 100.678 428.632Q113.61 414.432 127.277 400.937Z"/>
	<path fill="#D9D3FD" d="M476.296 560.66C476.456 560.554 476.617 560.451 476.776 560.343C478.295 559.313 478.95 558.693 479.712 557.056C480.686 554.965 482.378 552.336 484.709 551.602C485.997 551.196 487.05 551.5 488.148 552.21C489.235 552.913 490.278 553.981 490.391 555.307C491.057 563.115 484.74 573.48 482.803 581.12C477.961 600.213 475.321 619.959 470.793 639.18Q467.304 653.488 462.282 667.333C460.379 672.65 457.458 678.628 456.461 684.162C456.209 685.563 456.378 686.517 457.149 687.726C458.253 688.298 458.787 688.631 460.089 688.254C463.039 687.4 464.395 683.671 465.364 681.118C473.639 659.326 478.743 639.928 483.299 617.187C485.733 605.032 487.035 591.698 490.946 579.957C491.859 577.214 493.644 574.858 496.286 573.561C497.671 572.88 499.333 572.625 500.805 573.205C502.265 573.78 503.076 575.234 503.483 576.67C505.163 582.59 502.649 593.898 502.267 600.295C498.574 601.247 496.364 602.926 494.398 606.235C488.531 616.112 491.185 634.756 490.315 646.139C489.803 652.824 488.199 659.403 486.473 665.863C485.102 670.996 477.08 694.644 477.422 697.852C478.186 699.212 478.63 699.724 479.95 700.555C481.364 700.687 481.73 700.779 482.938 699.88C485.666 697.851 486.993 690.678 487.98 687.457C491.497 675.991 495.204 664.649 497.048 652.759C498.197 645.353 495.037 605.885 506.036 606.712C507.107 606.792 507.818 607.291 508.29 608.23C509.7 611.033 509.163 626.858 509.391 631.185C509.885 640.543 510.923 650.012 510.18 659.375C507.271 696.056 484.902 746.378 471.245 781.488C467.224 791.825 459.384 809.04 458.569 819.74C457.325 836.093 467.046 864.597 472.544 880.293C486.85 921.137 503.303 961.425 526.2 998.309C531.678 1007.13 537.419 1016.27 544.381 1024L464.373 1024C448.126 985.092 432.791 945.753 415.954 907.1L394.765 859.398C390.204 849.046 385.109 838.554 382.137 827.608C375.553 803.358 372.769 771.885 372.395 746.691C384.75 749.51 398.055 749.589 409.169 742.713C422.48 734.477 425.669 717.719 432.477 704.775C437.69 694.865 444.252 685.761 449.636 675.962C456.871 662.795 461.195 648.5 465.981 634.338C467.057 631.156 468.768 628.133 469.571 624.869C470.103 622.706 470.224 620.421 468.921 618.511C468.112 617.325 467.089 616.411 466.011 615.479C467.111 611.014 468.007 606.569 468.615 602.01C469.47 595.602 470.876 571.341 473.334 567.202C475.843 565.861 478.066 567.747 480.368 566.676C480.403 565.198 479.478 563.837 478.539 562.744C477.881 561.977 477.068 561.309 476.296 560.66Z"/>
	<path d="M435.453 726.338C436.687 726.391 438.073 726.369 439.032 727.305C439.988 728.239 440.253 729.342 440.117 730.628C439.285 738.517 420.382 760.664 414.071 766.507C412.827 766.609 412.105 766.503 410.929 766.089C409.962 765.082 409.513 764.74 409.462 763.248C409.394 761.279 410.815 759.499 412.004 758.062C417.746 751.12 423.699 744.303 428.961 736.978C431.389 733.598 432.48 729.288 435.453 726.338Z"/>
	<path fill="#F9BF79" d="M283.271 279.053C288.058 274.51 303.195 268.269 309.715 265.201C347.448 247.449 382.354 233.416 422.781 222.899C436.124 219.428 449.465 216.237 463.125 214.256C448.817 237.221 443.852 268.322 449.918 294.767C452.588 306.404 458.265 319.018 464.879 328.929C467.491 332.844 470.978 336.286 473.329 340.342C477.119 346.879 478.97 354.665 482.279 361.498C478.471 366.052 477.454 371.107 476.397 376.77C450.692 346.014 419.486 322.955 382.813 306.942C372.727 302.539 362.271 298.906 351.991 294.981C334.296 288.225 315.701 281.094 296.683 279.394C292.209 278.994 287.756 278.998 283.271 279.053Z"/>
	<path fill="#F9BF79" d="M986.492 390.459C997.568 403.632 1010.85 415.204 1024 426.243L1024 503.305C1015.96 497.384 1006.31 494.109 998.263 488.366C998.55 486.568 999.074 484.508 998.454 482.732C996.856 478.151 954.491 461.441 947.742 458.476C948.452 436.404 962.049 426.884 974.425 410.67C979.188 404.429 982.816 397.371 986.492 390.459Z"/>
	<path fill="#4F3C6A" d="M701.869 81.2077C702.049 81.1849 702.228 81.1545 702.409 81.1395C742.502 77.8064 806.619 101.39 836.457 127.903C855.025 144.401 864.179 163.56 865.662 188.189C863.257 182.818 861.304 177.32 858.559 172.086C849.95 155.677 835.861 137.753 818.886 129.437C815.4 127.73 811.153 125.699 807.278 127.049C806.313 127.995 805.709 128.612 805.578 130.027C805.3 133.034 815.032 141.298 817.214 143.876C838.036 168.481 835.291 199.292 832.779 229.149C827.575 223.751 822.859 218.337 819.224 211.733C817.948 209.416 816.671 207.005 815.717 204.536C814.481 201.336 813.95 195.223 811.236 192.97C810.686 192.513 809.747 192.54 809.081 192.651C807.705 192.879 806.757 193.718 806.046 194.865C803.371 199.18 806.174 216.152 807.389 221.195C810.088 232.391 815.868 243.152 824.079 251.244C861.111 287.733 914.332 238.766 959.627 266.965C976.064 277.198 985.67 294.297 989.928 312.835C995.816 338.476 987.376 374.414 973.58 396.604C984.676 368.225 991.867 330.752 981.598 301.234C978.34 291.869 972.859 283.565 963.681 279.201C933.725 264.956 902.804 298.797 876.068 307.157C872.24 308.354 867.265 309.582 863.237 309.344C859.328 309.113 853.466 306.664 849.782 308.229C848.89 308.608 849.039 308.779 848.699 309.611C848.914 310.314 849.159 310.88 849.62 311.46C857.854 321.83 886.673 318.701 898.894 318.613Q909.434 318.522 919.926 319.527C933.225 320.845 948.193 325.199 956.899 336.066C966.581 348.151 966.537 365.916 962.143 380.049C959.939 387.135 956.649 393.815 953.544 400.535Q949.044 410.433 944.221 420.178C941.27 426.016 937.714 431.941 935.593 438.144C934.131 442.424 933.376 447.109 932.896 451.596C929.766 452.149 926.895 452.73 923.914 453.856C924.017 421.279 959.901 395.041 954.078 361.237C952.458 351.83 947.718 343.732 939.842 338.263C919.431 324.091 890.255 331.886 866.968 327.356C865.128 326.998 863.203 326.637 861.435 326.007C857.864 324.733 850.153 319.824 846.799 320.454C845.943 321.349 845.517 321.721 845.517 323.067C845.518 326.478 848.483 328.403 851.07 329.976C874.128 343.999 913.455 332.593 927.974 348.622C943.805 366.099 916.865 404.607 910.417 422.757C907.892 429.863 907.151 436.857 906.714 444.325C903.793 439.235 901.27 434.155 899.529 428.537C897.025 420.46 895.844 411.09 891.442 403.757C879.426 383.742 852.264 385.41 835.772 371.042C833.076 368.693 830.749 366.002 829.004 362.869C827.271 359.759 825.603 350.415 822.785 349.037C821.098 348.212 819.545 348.612 817.876 349.228C815.342 351.909 813.984 358.282 812.266 361.769C807.966 370.495 802.45 378.637 798.044 387.325C793.967 395.366 791.318 403.915 789.048 412.606C787.644 418.675 786.755 425.111 786.751 431.347C786.736 453.752 796.306 467.921 811.567 483.218C796.463 478.628 781.099 467.136 773.567 453.111C772.233 450.628 771.84 446.299 769.711 444.527C768.798 443.767 767.584 443.567 766.445 443.866C765.151 444.207 764.43 444.86 763.803 446.018C760.748 451.667 765.607 466.943 767.192 472.93C759.542 467.456 751.026 463.312 745.568 455.354C736.035 441.457 737.489 423.86 747.485 410.668C753.546 402.67 761.494 396.633 768.949 390.034C786.888 374.155 805.115 353.917 809.634 329.689C810.877 323.023 812.417 307.704 808.375 302.114C807.359 300.709 806.402 299.963 804.668 299.663C803.055 300.417 802.268 301.176 801.77 302.922C800.615 306.973 800.773 311.91 800.149 316.138C798.505 327.292 792.952 338.433 786.426 347.521C770.663 369.472 744.162 373.496 727.703 395.483C718.46 407.829 712.49 426.263 714.92 441.717C718.398 463.833 739.217 476.752 759.853 480.139C762.98 480.652 766.932 479.354 769.849 479.996C769.878 480.002 779.606 489.602 781.592 491.069Q779.687 491.612 777.745 492.005C758.577 495.738 738.25 492.819 722.052 481.64Q720.919 480.849 719.827 480.003Q718.735 479.156 717.686 478.257Q716.637 477.358 715.634 476.407Q714.631 475.457 713.676 474.458Q712.721 473.46 711.817 472.415Q710.913 471.37 710.062 470.282Q709.211 469.193 708.414 468.064Q707.618 466.935 706.879 465.768Q706.14 464.6 705.459 463.398Q704.779 462.195 704.158 460.961Q703.538 459.726 702.98 458.462Q702.422 457.198 701.927 455.908Q701.432 454.618 701.002 453.305Q700.572 451.992 700.207 450.659Q699.842 449.326 699.544 447.977Q699.246 446.628 699.015 445.266C694.785 421.082 704.245 399.848 719.638 381.607C726.644 373.306 734.459 365.497 740.684 356.581C752.033 340.325 755.068 321.575 751.471 302.21C748.76 287.618 742.082 272.904 729.444 264.372Q728.716 263.885 727.964 263.434Q727.213 262.984 726.44 262.571Q725.667 262.157 724.875 261.783Q724.083 261.408 723.274 261.073Q722.464 260.737 721.639 260.442Q720.814 260.147 719.976 259.893Q719.137 259.638 718.287 259.425Q717.437 259.213 716.578 259.042Q715.718 258.871 714.851 258.743Q713.985 258.614 713.113 258.529Q712.241 258.443 711.365 258.4Q710.49 258.358 709.614 258.358Q708.738 258.358 707.863 258.402Q706.988 258.445 706.116 258.531Q705.244 258.617 704.377 258.747Q703.51 258.876 702.651 259.047C699.3 253.845 695.856 248.895 691.499 244.474C666.166 218.767 635.413 228.315 605.727 216.223C602.059 214.729 597.877 212.88 594.67 210.562C591.13 208.003 585.014 199.424 580.453 200.063C579.329 200.22 578.592 200.998 578.189 202.021C577.332 204.202 578.43 207.784 579.498 209.714C594.961 237.637 628.986 243.321 657.132 250.494C634.006 261.684 607.652 260.724 583.677 252.682C579.374 251.239 573.083 245.613 569.192 245.377C567.428 245.271 565.974 245.549 564.612 246.711C564.26 247.446 564.067 247.938 564.191 248.782C565.195 255.649 576.414 264.648 581.45 268.723C605.826 288.45 634.742 288.179 664.118 285.073Q661.452 287.293 658.609 289.281Q655.766 291.27 652.767 293.013Q649.768 294.757 646.633 296.243Q643.498 297.729 640.25 298.947C619.992 306.708 595.995 304.799 576.358 296.029C551.445 284.903 529.39 261.016 519.669 235.609C523.598 225.714 530.453 215.882 537.25 207.783C551.702 190.562 568.188 175.699 583.729 159.559C594.929 147.925 605.19 135.396 616.661 124.015C639.696 101.159 669.1 84.0552 701.869 81.2077Z"/>
	<path d="M634.581 129.734C640.724 129.862 648.227 138.711 653.636 141.82C659.999 145.476 667.159 148.324 674.06 150.839C695.228 158.554 718.456 157.343 738.87 166.486C755.917 174.122 769.482 189.076 776.067 206.497C783.497 226.153 781.94 252.691 773.367 271.745C772.179 273.592 770.62 275.925 768.329 276.432C766.16 276.913 764.288 275.197 763.14 273.575C760.46 269.789 759.075 264.353 757.493 260.02C754.726 252.44 752.045 245.159 747.771 238.254C732.57 213.696 706.708 202.415 683.773 186.849C667.161 175.573 652.915 161.828 640.454 146.13C637.884 142.893 633.47 138.014 632.969 133.792C632.763 132.061 633.629 131.059 634.581 129.734Z"/>
	<path fill="#D9D3FD" d="M514.805 245.021C518.627 249.091 521.609 256.917 525.068 261.836C542.306 286.344 567.402 304.998 597.137 310.297C598.728 312.848 600.395 315.302 602.296 317.637C611.867 329.392 628.801 341.257 644.274 342.638C681.114 345.924 672.932 289.75 695.671 271.304C700.315 267.537 705.807 265.305 711.843 266.013C720.081 266.979 727.482 272.607 732.471 279.014C739.367 287.867 742.968 298.918 744.148 309.982C749.933 364.212 697.542 370.507 690.877 423.729C688.721 440.947 692.371 460.461 703.248 474.363C719.01 494.51 742.778 502.335 767.735 500.668C773.644 500.273 781.804 497.826 787.387 498.559C788.604 498.719 789.825 498.86 791.052 498.925C792.959 499.026 793.821 498.63 795.23 497.393C795.862 495.688 796.127 494.237 794.894 492.683C793.42 490.826 790.089 489.692 788.117 488.145C780.948 482.518 777.084 474.244 773.46 466.139C776.956 469.886 780.281 473.486 784.294 476.707C793.624 484.197 808.335 492.639 820.826 491.129C821.059 491.101 821.29 491.062 821.523 491.034C822.306 490.94 822.952 490.884 823.614 490.391C824.94 489.405 825.989 488.027 827.283 486.982C830.18 484.645 833.201 482.498 836.003 480.037C843.559 473.4 850.39 466.437 858.672 460.604C865.246 455.974 871.428 452.925 879.061 450.407Q884.449 448.856 889.96 447.83Q895.472 446.804 901.057 446.312C904.572 450.398 907.638 453.847 912.53 456.331C863.253 472.759 817.104 522.181 782.616 559.492C772.988 548.809 761.171 539.613 746.741 536.928C721.811 532.289 705.338 549.964 686.522 562.725C677.629 568.756 655.838 583.33 645.241 580.985C634.821 578.68 631.683 564.077 626.784 556.16C621.069 546.924 611.597 546.578 602.008 544.218C603.527 537.942 610.729 512.461 608.672 508.012C605.081 504.514 591.385 508.09 586.336 508.492C583.046 508.754 579.871 508.646 576.586 508.379C569.376 488.679 551.083 499.926 536.771 491.523C533.306 489.489 530.647 486.439 529.971 482.418C528.489 473.606 532.892 462.54 534.873 453.971C537.38 443.122 539.771 431.09 538.718 419.957C536.846 400.175 516.323 390.23 506.244 375.217C503.064 370.48 500.919 364.734 499.661 359.191C494.106 334.718 495.24 296.874 502.225 272.708Q503.312 269.051 504.647 265.478Q505.983 261.904 507.561 258.431Q509.139 254.958 510.952 251.601Q512.765 248.245 514.805 245.021Z"/>
	<path d="M707.577 276.105C713.502 275.719 719.217 277.535 723.998 281.029C727.286 283.431 731.526 287.091 732 291.354C732.148 292.684 731.922 293.581 731.11 294.652C725.043 296.299 723.027 283.989 710.822 283.127C707.339 282.881 704.003 284.025 701.452 286.421C695.951 291.587 695.324 299.494 694.991 306.553Q695.682 306.361 696.379 306.19C702.003 304.823 708.188 304.819 713.186 308.084C718.07 311.274 721.008 316.841 722.004 322.481C723.445 330.638 720.867 339.018 716.301 345.745C716.132 345.923 715.957 346.095 715.793 346.278C714.214 348.048 714.847 349.921 715.017 352.118C715.204 354.539 715.661 356.576 713.98 358.542C712.484 358.939 710.783 358.818 709.457 357.952C708.639 357.417 701.47 333.669 701.138 331.12C700.962 329.767 701.163 329.646 701.998 328.693C703.385 328.284 704.272 328.161 705.667 328.679C708.76 329.827 710.667 334.875 712.046 337.586C714.215 332.496 715.896 324.412 713.707 319.12C709.455 308.844 697.65 316.277 690.906 313.694C689.417 311.984 688.688 310.139 688.306 307.903C687.011 300.336 688.919 290.986 693.375 284.724C696.978 279.66 701.598 277.214 707.577 276.105Z"/>
	<path d="M542.862 338.139C547.467 337.722 552.194 337.55 556.766 338.398C558.871 338.788 561.977 339.46 563.144 341.479C563.551 342.182 563.281 342.511 563.111 343.241C560.368 346.209 556.46 345.701 552.729 346.279C538.703 348.453 530.843 355.806 522.775 366.913C521.893 368.12 520.948 369.367 519.733 370.264C517.758 371.721 514.905 371.983 512.563 371.468C510.247 370.959 508.173 369.584 506.972 367.519C505.706 365.344 505.749 362.972 506.311 360.593C507.095 357.272 508.946 359.426 511.119 358.057C511.874 356.33 512.623 354.402 513.784 352.905C520.31 344.491 532.758 339.88 542.862 338.139Z"/>
	<path d="M576.291 383.29C578.08 383.606 578.648 383.973 579.739 385.357C580.746 390.393 575.261 398.373 572.543 402.451C566.958 410.83 559.388 418.471 549.096 420.324C546.643 420.765 544.189 421.019 542.083 419.488C541.744 418.733 541.407 418.328 541.513 417.47C542.101 412.7 548.708 409.333 552.089 406.357C550.241 400.151 541.641 391.741 541.056 387.121C540.909 385.958 541.091 385.789 541.734 384.89C542.396 384.681 543.056 384.473 543.762 384.622C549.99 385.94 555.565 396.511 558.839 401.463C565.744 396.46 570.788 389.686 576.291 383.29Z"/>
	<path d="M570.465 479.393C570.759 479.395 571.053 479.393 571.346 479.4C573.523 479.448 575.803 480.038 577.192 481.85C578.202 483.168 578.404 484.751 578.089 486.337C577.429 489.664 575.278 491.644 572.576 493.44C571.738 493.782 570.868 494.163 569.989 494.381C568.231 494.816 567.624 494.876 566.145 493.892C565.825 491.671 568.2 488.785 569.001 486.743C570.111 483.913 568.298 482.814 570.465 479.393Z"/>
	<path d="M552.835 484.565L553.342 484.588C557.001 484.77 559.943 484.942 562.531 487.801C562.662 488.514 562.942 489.025 562.569 489.697C561.662 491.33 559.603 492.004 557.949 492.605C553.824 492.626 550.554 492.671 547.268 489.871C546.798 488.527 546.874 488.599 547.462 487.285C549.127 485.825 550.779 485.278 552.835 484.565Z"/>
	<path fill="#D9D3FD" d="M229.015 556.451C230.297 557.061 230.795 557.672 232.198 557.194C234.763 552.552 236.586 547.771 240.655 544.186C246.33 539.187 253.221 535.364 259.418 531.028Q278.138 518.134 296.034 504.119C309.447 493.478 322.294 481.82 335.169 470.529C341.704 464.799 348.291 458.252 355.55 453.489C364.03 447.925 374.109 444.567 383.356 440.434C407.101 429.822 434.597 414.531 448.768 392.082C457.099 409.574 464.696 427.25 472.245 445.092C476.188 454.411 481.131 463.888 483.357 473.788C486.073 485.863 486.11 497.838 484.156 510.007C472.381 509.331 463.624 514.476 455.1 522.116C445.917 530.348 438.496 538.859 437.889 551.683C437.091 568.561 442.503 587.041 449.972 602.05C452.791 607.715 456.724 613.169 458.698 619.193L458.404 619.759C455.895 624.474 452.549 625.155 447.757 626.579C445.611 627.217 441.749 627.943 440.429 629.854C440.001 630.473 440.444 631.335 440.594 632.018C441.676 633.207 442.392 633.786 444.044 633.902C449.475 634.283 456.642 631.217 460.829 627.986C455.629 641.655 451.242 656.326 444.638 669.366C439.56 679.393 432.657 688.338 427.452 698.28C420.49 711.578 416.599 731.838 401.586 738.314C389.774 743.41 375.89 740.762 364.514 735.955C340.667 725.878 314.433 708.132 294.808 691.374C286.125 683.96 277.973 675.832 269.88 667.783C257.035 655.007 244.397 642.464 237.566 625.291C233.757 615.715 231.369 605.252 229.617 595.099C228.75 590.075 229.001 583.916 226.956 579.254C227.247 576.025 228.182 572.769 228.623 569.54C229.221 565.163 229.132 560.851 229.015 556.451Z"/>
	<path d="M412.722 651.208C418.041 650.738 423.89 651.056 429.083 652.347C432.958 653.311 436.923 655.089 438.974 658.713C440.499 661.407 440.505 664.442 439.575 667.332C437.429 673.994 430.546 680.859 424.389 684.043C419.005 686.827 412.932 687.435 407.158 685.647C404.887 684.8 402.603 683.827 400.553 682.52C393.841 678.237 380.726 665.339 379.516 657.243C379.312 655.883 379.474 655.288 380.249 654.191C383.091 653.221 385.588 654.456 388.165 655.604Q394.191 653.948 400.343 652.847Q406.495 651.746 412.722 651.208Z"/>
	<path fill="#EEE9FE" d="M392.726 665.306C397.3 665.52 402.324 667.318 406.817 668.324C413.971 669.925 420.852 670.845 428.161 671.217C427.016 672.65 425.684 673.937 424.404 675.249C420.633 677.968 416.69 679.603 411.956 678.911C404.437 677.811 397.137 671.184 392.726 665.306Z"/>
	<path fill="#EEE9FE" d="M415.767 658.209C420.378 658.148 425.923 658.282 430.262 660.051C431.474 660.545 431.685 661.113 432.118 662.278L431.642 663.3C428.746 664.575 424.39 663.671 421.27 663.449Q411.572 662.198 402.129 659.659C406.682 658.947 411.173 658.527 415.767 658.209Z"/>
	<path d="M368.828 489.675C386.141 487.942 400.196 494.687 415.765 500.958C418.733 502.153 421.955 502.658 424.892 503.902C426.19 504.452 427.039 505.091 427.508 506.466C428.03 507.995 427.244 510.571 426.492 511.91C425.215 514.184 422.9 515.978 420.368 516.597C412.523 518.515 403.566 511.614 397.173 507.877C392.005 505.058 386.828 502.55 381.053 501.242C366.528 497.954 345.81 502.997 330.477 503.879C340.927 496.641 356.337 491.445 368.828 489.675Z"/>
	<path d="M382.73 544.127C386.204 539.693 386.928 534.2 390.266 529.97L390.851 530.11C393.089 533.408 391.513 541.703 391.006 545.409C393.95 546.596 405.171 551.635 406.507 554.062L405.877 554.658C403.703 554.862 402.332 556.01 400.332 556.285C399.177 555.332 398.721 554.952 397.164 554.821C397.373 556.321 398.573 557.862 399.182 559.315L398.875 559.75C395.828 559.197 394.251 557.691 392.188 555.456C392.18 556.248 392.13 555.888 392.356 556.695C392.824 558.362 393.062 559.348 392.776 561.064L392.055 561.376C390.379 560.467 388.856 559.444 387.309 558.331C387.132 559.461 387.148 560.544 387.149 561.685L386.495 562.138C384.09 561.217 382.599 559.581 381.126 557.533L380.738 556.983L380.401 557.505C380.576 558.059 380.894 558.843 380.96 559.44C381.101 560.701 380.702 560.88 379.912 561.786C377.958 561.463 378.003 559.518 376.126 558.844L374.777 560.308L373.839 560.182C372.411 558.521 371.809 556.393 371.044 554.369C370.58 555.985 370.096 557.844 368.798 558.978L368.119 558.881C366.477 557.05 365.935 554.511 364.782 552.363C364.478 553.095 364.241 553.781 363.775 554.426L363.101 554.037C362.162 551.836 361.149 550.647 361.933 548.268L361.316 548.016C360.538 549.396 359.964 550.627 358.259 551.043C357.05 551.338 356.465 550.844 355.5 550.257C353.806 547.873 354.63 544.763 354.994 542.054C353.793 543.05 352.428 544.417 351.02 545.088C349.977 545.584 349.752 545.35 348.747 544.955C347.915 543.398 348.638 542.151 348.953 540.45C347.749 539.147 345.551 539.096 343.92 538.531C342.856 538.162 342.414 537.787 341.907 536.777L342.824 535.029C341.563 533.089 338.664 532.541 337.072 530.504C341.359 530.19 370.477 543.318 382.73 544.127Z"/>
	<path d="M417.326 620.571C417.865 620.618 418.405 620.658 418.941 620.734C422.676 621.267 431.7 622.674 433.852 625.558C433.851 626.781 433.912 627.032 433.074 628.008C431.703 629.606 429.439 629.507 427.504 629.67C424.807 629.064 423.437 628.612 420.838 629.751C419.826 630.195 418.936 630.569 417.848 630.813C416.233 630.35 414.881 629.698 414.129 628.085C413.471 626.674 413.53 624.999 414.025 623.552C414.619 621.815 415.779 621.263 417.326 620.571Z"/>
	<path fill="#4F3C6A" d="M133.111 496.645C130.795 480.509 128.607 464.895 129.29 448.531C131.11 404.888 142.019 361.883 175.498 331.282C205.29 304.052 252.97 284.221 293.626 286.369C310.977 287.285 328.097 294.012 344.221 299.977C392.545 317.852 428.108 334.1 463.174 373.103C485.256 397.665 487.478 423.796 485.752 455.36C479.943 444.169 454.108 381.688 449.808 378.316C448.708 377.453 447.36 377.897 446.073 378.012C444.887 379.625 445.062 381.905 444.501 383.815C443.603 386.867 440.715 390.452 438.783 392.959C423.687 412.549 400.865 423.568 379.269 434.391C387.4 426.524 424.674 397.486 425.517 388.676C425.017 387.404 424.82 387.261 423.726 386.417C421.451 386.091 419.976 387.105 418.26 388.453C414.669 391.274 411.566 394.894 408.244 398.034C403.022 402.967 397.536 407.646 392.08 412.317L346.75 450.439C339.318 456.78 332.219 463.522 324.825 469.916C315.548 477.939 305.976 485.557 296.463 493.292C283.222 504.06 267.97 517.523 253.266 526.014C276.858 502.565 300.134 478.823 324.423 456.082C338.085 443.291 352.405 431.109 366.536 418.838C373.31 412.956 414.959 377.753 417.178 373.586C417.099 372.502 416.827 371.874 416.096 371.047C415.49 370.362 414.406 369.551 413.481 369.548C409.517 369.537 396.128 382.87 392.477 385.948C341.47 428.951 292.096 473.472 246.264 521.999C247.074 518.268 248.098 514.771 249.837 511.368C253.863 503.495 259.804 496.144 264.952 488.96Q275.207 474.78 284.936 460.233C300.077 437.795 314.202 414.536 328.33 391.446C334.735 380.979 344.196 366.975 349.119 356.266C349.973 354.407 350.442 352.839 350.21 350.801C349.404 349.467 349.198 349.324 347.817 348.585C346.919 348.639 346.506 348.495 345.772 349.072C341.841 352.162 333.242 367.95 329.481 373.395Q323.445 382.153 317.04 390.644Q310.635 399.135 303.872 407.344Q297.109 415.553 290 423.465Q282.892 431.377 275.451 438.977Q268.01 446.577 260.251 453.852Q252.491 461.126 244.427 468.061Q236.363 474.996 228.009 481.58Q219.655 488.163 211.027 494.383C208.761 491.283 206.287 488.421 203.199 486.116C197.859 482.13 191.154 480.154 184.525 481.303C178.295 482.382 172.683 486.212 169.147 491.416C160.676 503.883 159.226 525.856 162.175 540.232Q162.391 541.341 162.658 542.44Q162.925 543.538 163.242 544.623Q163.559 545.708 163.926 546.777Q164.292 547.846 164.708 548.897Q165.123 549.949 165.586 550.98Q166.049 552.011 166.559 553.02Q167.069 554.028 167.624 555.013Q168.18 555.997 168.78 556.955Q169.381 557.912 170.024 558.842Q170.668 559.771 171.353 560.669Q172.039 561.568 172.765 562.434Q173.491 563.301 174.256 564.133Q175.021 564.965 175.823 565.761Q176.626 566.557 177.464 567.315Q178.302 568.073 179.174 568.793Q180.046 569.512 180.95 570.19C182.507 571.374 184.298 572.108 185.91 573.197L186.647 573.699L186.17 574.926C186.126 574.951 186.086 574.985 186.038 575.002C184.705 575.482 184.036 575.556 183.103 576.715C182.409 580.779 186.275 585.869 187.83 589.696C180.023 580.849 163.175 556.64 159.249 545.953C156.748 539.146 155.769 531.836 155.297 524.633C154.049 505.614 158.106 487.601 161.93 469.137C164.601 456.244 166.989 443.29 170.395 430.563C176.927 406.15 187.619 380.244 202.535 359.711Q207.571 352.73 213.288 346.294Q219.005 339.859 225.343 334.034C229.286 330.38 234.779 326.808 238.075 322.716C238.796 321.821 238.928 320.581 238.573 319.46C238.188 318.245 237.732 318.158 236.667 317.701C234.542 317.822 233.107 318.534 231.29 319.619C227.08 322.135 223.082 325.663 219.349 328.848C200.261 345.135 186.702 364.506 175.935 387.079C171.884 395.573 168.275 403.733 165.963 412.898C166.636 387.962 174.858 354.455 189.047 333.797C189.748 332.776 190.347 331.746 190.009 330.466C189.649 329.103 188.907 328.467 187.792 327.735C186.251 327.692 185.367 328.112 184.184 329.051C178.316 333.709 171.526 344.908 167.514 351.407C150.31 379.274 140.774 410.887 137.268 443.387C135.359 461.081 134.87 478.912 133.111 496.645Z"/>
	<path fill="#D9D3FD" d="M131.015 678.482C140.54 678.226 150.06 682.674 158.637 686.428Q153.6 693.092 147.564 698.867C146.153 695.613 145.277 691.559 143.252 688.654C142.401 687.433 141.566 686.766 140.052 686.56C138.953 686.795 138.27 687.18 137.488 687.972C136.649 688.82 136.391 689.823 136.454 690.984C136.734 696.194 144.563 709.851 147.202 714.938C168.917 756.8 197.818 794.756 229.096 829.905C247.178 850.224 266.226 869.389 282.944 890.939Q300.245 913.134 316.362 936.203C322.422 945.026 328.435 957.799 335.904 965.016C337.102 965.333 337.308 965.214 338.507 964.833C339.095 964.263 339.618 963.762 339.951 962.999C342.701 956.696 335.125 850.818 332.982 837.066C331.099 824.979 327.68 812.614 323.324 801.179C330.565 779.55 340.891 758.685 349.249 737.429C354.329 739.823 359.447 742.006 364.655 744.103C364.082 758.012 366.062 772.46 367.606 786.27C368.855 797.445 369.837 808.787 372.109 819.81C374.341 831.958 379.243 843.311 384.318 854.487C381.893 854.537 379.304 854.451 376.909 854.829C374.58 855.196 372.942 855.765 371.546 857.712C373.414 866.556 379.222 875.414 381.89 884.285L382.099 884.997C377.813 898.818 371.376 912.375 365.863 925.752C357.899 945.074 350.332 964.632 341.407 983.535C334.891 975.698 323.154 966.659 314.454 961.412C306.171 956.415 296.855 952.518 288.162 948.24C263.231 935.972 237.703 924.639 213.845 910.323C221.158 902.33 228.692 894.6 235.902 886.491C238.595 883.463 241.719 880.53 243.778 877.026C243.997 875.784 243.832 875.29 243.307 874.155C242.197 873.154 241.247 872.628 239.732 872.638C230.231 872.7 220.395 873.906 210.864 874.365Q181.505 875.804 152.119 876.502C121.57 832.632 89.192 776.975 71.936 726.341C86.4883 717.743 99.7985 709.805 112.144 697.985C118.502 691.898 123.925 684.726 130.515 678.913C130.68 678.768 130.848 678.625 131.015 678.482Z"/>
	<path fill="#D9D3FD" d="M221.872 595.946C223.391 597.828 225.865 614.522 227.078 618.598C232.08 635.41 240.864 648.48 252.866 661.165C257.786 666.365 263.029 671.421 267.359 677.128C272.396 683.768 276.599 691.135 281.294 698.029C295.217 718.468 312.533 741.709 334.616 753.662C332.312 760.292 329.183 766.78 326.411 773.228Q321.119 785.61 316.338 798.199C314.392 803.303 312.03 808.777 311.021 814.151C310.61 816.339 310.544 818.319 311.836 820.212C313.06 820.887 313.348 820.875 314.76 820.849C317.646 819.497 318.467 816.047 319.577 813.284C322.264 823.145 324.764 833.104 326.252 843.225C328.843 860.861 329.11 879.264 330.033 897.073C330.917 914.127 331.991 931.217 332.699 948.275C327.991 940.139 322.865 932.384 317.432 924.716C303.169 905.025 288.934 885.162 273.049 866.729C260.347 851.989 246.556 838.148 233.619 823.606C205.642 792.157 168.071 744.021 151.189 705.907C171.607 689.782 201.191 630.911 210.489 605.747C215.828 603.408 219.028 601.252 221.872 595.946Z"/>
	<path fill="#9F8BE8" d="M925.699 458.959C929.956 459.71 934.448 461.901 938.5 463.428C953.508 469.088 968.411 475.232 982.618 482.7C970.862 485.527 959.277 487.706 947.716 491.395C929.715 497.138 912.252 504.891 895.235 513.046Q877.219 521.464 859.774 531.01Q842.329 540.556 825.526 551.192C816.317 557.03 807.385 563.391 798.383 569.547C786.847 577.324 775.885 586.036 765.101 594.813C770.363 587.275 776.524 580.321 782.372 573.23C813.128 535.941 849.131 499.042 891.162 474.552C902.085 468.189 913.985 463.622 925.699 458.959Z"/>
	<path fill="#EEE9FE" d="M186.647 573.699C189.991 575.178 193.304 576.672 196.498 578.46C200.749 580.841 209.803 588.228 214.076 588.662C215.506 588.205 215.53 588.204 216.371 586.965C216.497 586.06 216.69 585.061 216.427 584.159C215.823 582.093 213.342 580.46 211.756 579.177C208.484 576.532 205.147 573.733 201.393 571.788C195.982 568.983 189.963 566.995 184.984 563.439C180.566 560.283 177.046 556.011 174.48 551.247C167.367 538.044 167.169 518.358 171.445 504.266C173.78 496.572 177.122 490.075 184.461 486.166C187.774 486.616 190.904 487.326 193.961 488.695C210.503 496.101 219.853 518.256 223.956 534.664C225.725 541.738 226.132 549.05 228.797 555.907L229.015 556.451C229.132 560.851 229.221 565.163 228.623 569.54C228.182 572.769 227.247 576.025 226.956 579.254C219.203 580.869 218.109 590.139 213.212 595.211C211.279 597.214 208.998 598.423 206.162 598.328C198.134 598.061 191.658 580.472 186.468 575.216C186.371 575.117 186.269 575.023 186.17 574.926L186.647 573.699Z"/>
	<path d="M188.698 499.97C189.649 500.116 190.53 500.279 191.439 500.607C199.93 503.672 204.965 511.639 208.414 519.512C210.128 523.423 214.063 531.855 212.085 535.973C211.742 536.688 211.422 536.562 210.729 536.745C206.94 534.892 205.603 529.376 204.202 525.703Q201.959 529.023 200.007 532.521C191.511 548.012 199.539 547.316 207.772 558.096C208.694 559.304 209.829 561.046 210.1 562.571C210.348 563.968 210.246 564.123 209.436 565.161C208.867 565.326 208.802 565.375 208.115 565.397C204.661 565.511 202.576 563.643 200.167 561.531C195.063 557.505 190.305 553.188 188.927 546.5C186.848 536.414 194.372 526.396 199.714 518.506C197.968 515.326 195.708 511.569 192.622 509.549C191.227 508.635 189.85 508.288 188.2 508.739C184.084 509.864 181.334 516.988 179.279 520.37C178.233 522.091 177.345 523.426 175.278 523.932C173.809 523.696 173.357 523.148 172.332 522.153C171.86 520.31 172.625 518.168 173.276 516.433C176.102 508.908 181.367 503.249 188.698 499.97Z"/>
	<path fill="#4F3C6A" d="M536.658 191.21L537.713 191.096L537.982 191.782C536.288 200.933 494.814 234.87 486.117 244.066C473.115 257.813 463.482 274.981 462.293 294.267C462.014 298.805 462.549 303.441 462.677 307.983L461.303 305.674C459.076 299.458 457.267 293.221 456.362 286.666C452.94 261.894 457.473 234.081 472.995 213.92C476.636 209.19 480.97 204.868 486.194 201.908C499.149 194.567 521.665 193.109 536.658 191.21Z"/>
	<path fill="#4F3C6A" d="M125.692 512.105L125.952 512.143C126.194 512.394 126.504 512.593 126.679 512.894C127.941 515.072 129.219 523.54 130.022 526.505C131.441 531.747 133.091 536.967 134.828 542.112C139.217 555.113 145.451 567.246 151.694 579.425C142.648 584.403 135.115 586.215 124.79 585.156C121.23 584.323 118.015 583.32 114.899 581.335C106.426 575.938 101.1 565.717 99.0063 556.123C96.862 546.298 97.8431 535.006 103.415 526.438C108.749 518.236 116.318 514.148 125.692 512.105Z"/>
	<path fill="#4F3C6A" d="M154.977 586.932C157.424 588.082 159.425 594.169 160.931 596.569C167.528 607.078 174.892 616.29 183.035 625.612C181.239 627.168 179.227 628.417 177.195 629.636C168.609 634.789 160.614 635.852 150.923 633.412C147.319 632.305 143.813 630.351 140.775 628.132C128.975 619.515 123.503 607.393 121.409 593.297C134.08 594.799 143.989 593.764 154.977 586.932Z"/>
	<path fill="#4F3C6A" d="M514.443 227.59L514.58 227.662C514.362 229.928 503.961 248.386 502.103 252.209Q499.551 257.418 497.659 262.901C494.356 272.501 491.833 282.713 490.369 292.76C489.772 296.859 489.857 307.369 488.612 310.432L487.993 310.378L486.944 308.398C483.159 298.207 481.58 287.755 482.82 276.931C485.294 255.351 497.808 240.667 514.443 227.59Z"/>
	<path fill="#D9D3FD" d="M477.325 520.991L478.249 520.941L478.747 521.504C477.564 525.511 474.842 529.215 473.144 533.084C469.725 540.874 467.365 548.675 465.334 556.905C459.973 555.773 454.336 555.752 448.878 555.445C447.469 555.247 446.881 555.306 445.76 554.39C444.748 550.657 447.076 543.812 448.816 540.488C454.571 529.491 466.108 524.551 477.325 520.991Z"/>
	<path fill="#4F3C6A" d="M485.083 376.331C487.335 378.284 488.634 381.825 490.445 384.239C492.678 387.215 496.225 389.356 498.056 392.625C500.831 397.579 501.364 404.082 502.928 409.51C505.497 418.427 509.329 426.258 514.114 434.145C510.526 432.655 506.469 428.608 503.777 425.806C491.547 413.082 484.778 393.862 485.083 376.331Z"/>
	<path fill="#D9D3FD" d="M447.436 566.795C449.164 568.704 449.899 571.457 451.825 573.257C452.856 574.219 453.515 574.293 454.874 574.324C455.073 572.153 453.649 569.266 452.973 567.146C455.316 569.261 459.247 575.572 462.166 575.927C462.363 575.038 462.572 574.189 462.869 573.328L463.424 573.708C464.613 579.107 462.6 586.995 461.888 592.5Q461.212 598.907 460.47 605.307C454.235 595.343 447.454 578.62 447.436 566.795Z"/>
	<path fill="#EEE9FE" d="M591.84 515.671C593.361 515.337 595.2 515.403 596.769 515.293C591.397 518.606 588.551 520.556 582.055 519.591C579.543 518.836 577.125 517.806 574.691 516.834C580.472 516.711 586.118 516.602 591.84 515.671Z"/>
</svg>
