<?xml version="1.0" encoding="utf-8" ?>
<svg xmlns="http://www.w3.org/2000/svg" xmlns:xlink="http://www.w3.org/1999/xlink" width="1024" height="1024">
	<path fill="#9F8BE8" d="M0 0L1024 0L1024 1024L887.475 1024L880.17 1024L811.457 1024L801.921 1024L527.948 1024L509.916 1024L484.39 1024L476.23 1024L186.559 1024L179.517 1024L0 1024L0 0Z"/>
	<path d="M236.865 555.08C226.27 549.196 215.374 541.849 212.009 529.494C210.772 524.951 210.41 520.159 209.469 515.546C208.493 510.765 206.784 505.667 203.983 501.63C196.401 490.697 181.73 487.068 175.296 474.876C167.381 459.877 177.555 449.233 178.678 434.55C179.781 420.126 167.722 411.004 169.352 394.366C171.688 370.5 193.824 355.407 204.374 335.252C212.234 320.237 211.163 304.084 216.123 288.484C226.92 254.525 265.295 266.318 291.671 260.957C303.437 258.565 312.696 252.493 323.165 247.043C340.404 238.069 359.437 235.581 378.119 241.603C400.095 248.686 416.09 263.291 426.417 283.644Q428.287 283.258 430.181 283.021Q432.075 282.784 433.982 282.698Q435.889 282.611 437.797 282.674Q439.704 282.738 441.601 282.952Q443.498 283.166 445.372 283.529Q447.246 283.892 449.086 284.401Q450.926 284.911 452.72 285.564Q454.513 286.217 456.25 287.009C464.472 290.681 473.506 296.795 476.666 305.624C479.527 313.619 477.401 322.036 474.061 329.478C476.298 330.489 478.586 331.481 480.708 332.719C492.151 339.394 503.012 350.415 506.369 363.542C507.62 373.563 506.605 381.936 500.273 390.147C493.338 399.138 482.859 405.46 472.029 408.504L471.234 416.096C469.769 424.736 467.879 433.152 464.724 441.357C462.759 446.466 460.514 451.571 458.146 456.506C454.886 463.302 448.387 472.63 448.257 480.271C448.105 489.251 461.347 505.348 460.557 512.081C460.405 513.376 459.918 514.116 458.834 514.821C455.225 517.167 440.813 516.29 436.075 516.246C429.904 526.922 423.024 537 416.371 547.367C411.453 555.031 406.725 564.275 400.322 570.77C396.902 574.238 392.753 576.862 387.995 578.036C375.619 581.087 366.026 575.63 355.077 570.907C347.96 587.753 343.731 603.872 340.935 621.886C348.027 629.443 354.84 636.909 360.707 645.496C373.19 663.764 388.4 698.414 392.244 719.794C392.249 719.826 392.265 719.855 392.276 719.885C392.419 721.337 392.74 723.147 392.453 724.587C392.154 726.093 390.718 726.981 389.572 727.835Q391.625 730.215 393.808 732.476C413.506 753.03 434.835 772.424 456.481 790.894C471.389 803.615 486.262 816.033 502.404 827.19C508.013 831.067 514.08 835.698 520.415 838.242C526.684 840.759 534.916 840.372 541.61 840.509C552.61 830.036 565.433 820.869 577.416 811.546C603.259 791.441 629.709 772.311 656.364 753.3C667.324 745.483 678.542 737.99 689.37 729.994C699.599 722.441 707.02 711.849 716.485 703.406C725.082 695.736 734.722 690.771 743.863 684.109C740.725 679.852 737.38 675.712 734.142 671.528Q725.27 659.286 714.728 648.448C707.338 656.75 698.929 665.452 688.807 670.381C682.27 673.563 675.019 674.661 668.027 672.186C655.855 667.876 628.874 640.604 620.862 630.107C617.739 626.014 615.408 621.789 613.18 617.157C607.835 618.85 600.497 619.696 595.345 617.129C585.059 612.005 591.13 596.44 592.464 587.856C593.246 582.821 593.623 577.33 592.685 572.289C590.068 558.235 576.492 542.649 569.338 530.103C565.051 522.584 562.046 514.866 559.332 506.686C553.799 490.737 553.377 470.902 555.805 454.367C561.869 419.742 584.544 394.906 612.428 375.29C640.34 355.654 679.159 340.19 713.5 346.358C740.266 351.165 766.95 368.838 782.378 391.095Q784.463 394.134 786.365 397.291Q788.267 400.448 789.98 403.711Q791.692 406.975 793.21 410.334Q794.727 413.692 796.043 417.135Q797.36 420.577 798.471 424.091Q799.582 427.605 800.484 431.179Q801.386 434.752 802.076 438.373Q802.766 441.993 803.241 445.648C803.965 451.671 803.337 459.979 805.735 465.509C806.628 467.567 809.244 468.377 811.279 468.789C818.902 470.334 826.497 471.042 834.107 472.988C855.446 478.446 874.354 492.258 886.843 510.332C891.577 517.183 895.218 524.347 898.474 531.994C905.872 551.757 907.803 571.705 898.886 591.374C889.965 611.054 874.11 621.847 854.43 629.169C849.686 630.935 845.02 632.125 840.047 633.053C851.175 646.93 862.732 660.519 873.074 675.007C880.445 678.292 887.759 682.845 893.188 688.912C901.161 697.823 909.766 718.43 914.082 729.676C934.811 783.686 935.055 841.146 922.892 897.141C918.244 918.54 911.871 939.573 905.745 960.581C899.606 981.632 894.142 1003.15 887.475 1024L880.17 1024L811.457 1024L801.921 1024L527.948 1024L509.916 1024L484.39 1024L476.23 1024L186.559 1024L179.517 1024C178.097 1013.08 177.287 1002.01 176.169 991.051Q173.069 961.612 169.435 932.235C161.796 873.546 151.35 814.087 153.884 754.689C155.255 722.534 160.847 691.601 170.194 660.809C172.203 654.19 174.332 647.56 176.727 641.069C178.026 637.55 183.978 626.877 183.583 624.037C182.875 618.956 184.032 615.708 186.001 611.081C189.838 600.885 206.47 562.396 214.419 557.69C219.078 554.931 230.323 558.856 235.414 560.014L236.865 555.08Z"/>
	<path fill="#9F8BE8" d="M189.84 628.581C198.774 627.73 207.803 626.857 216.788 626.97C254.24 627.442 289.394 641.125 318.158 664.832C339.951 682.794 358.777 704.609 376.767 726.277C383.232 734.065 389.904 741.759 396.038 749.808C406.592 763.656 416.41 777.998 427.308 791.598C467.196 841.373 511.588 890.225 567.496 922.203C606.966 944.779 650.806 960.39 693.592 975.339C731.245 988.495 769.42 1002.45 808.449 1010.9Q805.141 1017.43 801.921 1024L527.948 1024L509.916 1024L484.39 1024L476.23 1024L186.559 1024C186.194 1001.45 182.462 976.881 179.81 954.433C166.162 838.888 141.829 741.26 189.84 628.581Z"/>
	<path d="M475.438 1007.49C454.998 996.426 435.191 984.595 416.308 971.019C350.11 923.426 291.761 857.916 244.503 791.782C238.44 783.297 218.585 757.127 216.289 749.763C215.792 748.172 215.633 746.836 216.333 745.285C217.458 744.563 217.681 744.383 219.075 744.743C219.567 744.87 220.141 745.262 220.548 745.552C225.684 749.21 238.516 770.821 243.108 777.331Q253.607 792.066 264.47 806.535Q286.863 836.591 311.841 864.536C359.138 917.23 411.204 964.92 473.896 998.713C491.4 1008.15 509.672 1016.21 527.948 1024L509.916 1024L484.39 1024L476.23 1024C475.766 1018.48 475.468 1013.03 475.438 1007.49Z"/>
	<path fill="#9F8BE8" d="M482.845 1011.31C491.146 1015.56 502.422 1019.55 509.916 1024L484.39 1024C483.644 1019.77 483.201 1015.58 482.845 1011.31Z"/>
	<path fill="#9F8BE8" d="M814.659 1013.25C838.439 1019.87 860.762 1015.64 884.23 1010.4C882.84 1014.88 881.193 1019.42 880.17 1024L811.457 1024C812.564 1020.43 813.7 1016.87 814.659 1013.25Z"/>
	<path fill="#F4EFFB" d="M865.637 698.03C875.33 700.814 882.009 702.282 892.104 700.042Q892.375 700.498 892.636 700.959C929.574 766.686 930.344 836.86 912.995 908.626C905.354 940.232 894.93 971.27 886.218 1002.61C877.888 1003.64 869.453 1006.32 861.08 1007.68C840.805 1010.96 829.877 1008.9 810.201 1004.17C803.026 1002.44 795.747 1000.89 788.702 998.686C801.581 979.67 812.575 956.104 823.177 935.559C843.205 896.744 863.481 857.774 879.873 817.243C881.908 812.212 889.742 793.559 887.994 789.428C886.955 788.595 886.768 788.43 885.464 788.245C883.82 789.124 883.112 790.279 882.313 791.918C878.001 800.765 875.076 810.514 871.186 819.585Q857.218 851.831 841.713 883.366C834.928 896.947 828.531 910.709 821.59 924.22Q802.419 960.842 782.365 996.989C770.292 993.84 758.348 989.468 746.438 985.708C720.818 977.62 694.798 969.325 669.968 959.026C673.294 947.681 678.164 936.497 682.351 925.446Q696.442 888.165 711.284 851.177C716.812 837.062 722.424 822.905 727.628 808.67C731.521 798.02 734.858 787.294 739.66 776.991C744.186 767.28 760.034 735.782 768.99 731.248C795.397 717.878 799.704 739.972 820.089 746.696C822.57 747.514 826.306 748.025 828.639 746.463C829.732 745.732 830.118 744.865 830.292 743.583C831.187 736.968 819.426 722.289 815.165 717.596C828.802 720.669 833.361 727.799 843.059 736.864C846.466 740.048 852.877 745.538 857.806 744.724C859.071 744.515 859.809 743.885 860.48 742.825C862.347 739.875 860.72 734.438 860.115 731.315C864.555 735.799 870.577 741.351 876.937 742.712C878.971 743.147 881.774 743.169 883.472 741.752C884.856 740.597 885.413 739.113 885.575 737.363C886.753 724.671 873.322 707.573 865.637 698.03Z"/>
	<path fill="#D7CAF7" d="M577.402 459.178C597.686 456.243 619.474 467.905 634.892 479.957C645.557 488.294 655.149 498.054 668.417 502.158C681.196 506.111 699.806 506.107 711.733 499.827C712.04 493.841 712.662 488.514 715.207 483.008C717.66 477.702 721.942 472.14 727.647 470.229C732.845 468.488 738.927 469.437 743.649 472.041C751.301 476.261 756.313 484.152 758.723 492.387C761.741 502.695 761.013 515.898 755.774 525.393C753.922 528.75 751.053 532.847 747.121 533.804C742.76 534.866 740.756 531.892 737.404 530.018C736.111 529.295 735.094 529.399 733.74 529.823C732.455 531.114 732.509 532.689 732.386 534.41C731.985 540.03 732.672 545.893 732.892 551.523C733.32 562.482 733.594 573.547 732.878 584.5C731.74 601.878 723.72 624.899 713.236 639.138C708.558 645.492 702.597 651.112 696.69 656.303C690.82 661.259 683.252 666.168 675.291 666.066C663.96 665.92 654.079 653.865 646.714 646.45C656.888 642.308 664.249 637.943 669.262 627.76C673.295 619.567 674.147 610.227 671.059 601.576C669.915 598.371 667.557 592.783 664.045 591.683C661.735 590.959 660.363 592.208 659.228 594.038C657.636 596.604 656.509 599.629 654.654 602.01C648.358 610.089 634.356 618.972 625.251 623.871L619.18 613.01C621.445 610.706 624.644 607.99 625.542 604.795C625.93 603.415 626.024 601.732 625.065 600.55C624.254 599.55 623.521 599.481 622.352 599.267C618.663 600.11 616.956 605.052 614.65 607.71C612.331 610.385 609.184 611.48 605.717 611.599C603.25 611.684 599.48 611.648 597.732 609.594C596.751 608.442 596.505 606.861 596.539 605.397C596.681 599.294 599.486 590.921 599.971 584.074C600.305 579.36 599.921 574.79 598.94 570.172C596.804 560.107 591.464 551.527 586.017 542.957C581.927 536.521 577.494 530.14 573.855 523.436C563.702 504.731 560.921 484.217 561.068 463.244C566.452 461.379 571.759 459.999 577.402 459.178Z"/>
	<path d="M609.557 504.681C612.404 504.541 615.264 504.391 618.115 504.409C619.999 504.421 621.898 504.643 623.115 506.339C623.931 507.475 623.811 508.057 623.602 509.319C623.053 509.954 622.753 510.586 621.916 510.817C619.249 511.555 616.008 511.508 613.241 511.737C606.476 512.297 600.804 513.701 594.631 516.495C592.453 517.641 589.627 519.586 587.103 519.479C585.719 519.42 585.199 519.152 584.271 518.169C584.146 516.677 584.48 515.762 585.342 514.568C590.053 508.047 602.097 505.659 609.557 504.681Z"/>
	<path d="M631.379 533.391C631.68 533.487 631.984 533.579 632.283 533.68C634.448 534.414 636.972 536.042 637.811 538.278C638.505 540.127 637.936 542.114 637.041 543.778C632.118 552.934 620.556 559.771 610.847 562.488C610.352 562.474 609.756 562.484 609.279 562.347C608.112 562.011 607.591 561.05 607.033 560.074C606.998 558.842 606.835 558.413 607.717 557.446C611.387 553.422 623.141 552.079 628.404 543.654C629.458 541.966 629.607 540.697 629.176 538.781C628.991 537.958 628.835 537.133 628.67 536.305C629.215 534.765 630.094 534.264 631.379 533.391Z"/>
	<path d="M739.467 494.027C741.088 494.098 742.705 494.151 744.221 494.793C746.262 495.657 749.852 498.905 750.333 501.11C750.474 501.754 750.542 502.48 750.19 503.068C749.39 504.404 747.997 504.857 746.557 505.124C744.674 504.682 743.195 502.628 741.686 501.416C740.374 501.584 740.479 501.704 739.655 502.767C738.736 506.624 740.529 511.158 741.518 514.892C741.638 515.301 741.695 515.453 741.756 515.923C742.019 517.931 741.978 519.848 740.7 521.438C740.071 521.55 740.029 521.627 739.38 521.445C737.235 520.841 735.558 518.194 734.658 516.305C732.608 512.003 731.717 504.876 733.389 500.329C734.575 497.105 736.428 495.47 739.467 494.027Z"/>
	<path d="M737.306 475.942C737.635 476.016 737.969 476.071 738.293 476.164C739.574 476.529 740.632 477.223 741.318 478.361C740.988 482.94 734.344 484.397 732.806 488.582C731.116 493.183 734.184 501.94 731.642 505.347C730.873 505.247 729.946 505.185 729.219 504.919C728.007 504.476 727.222 503.228 726.737 502.086C724.69 497.265 725.887 489.367 727.925 484.642C730.013 479.8 732.496 477.752 737.306 475.942Z"/>
	<path fill="#9F8BE8" d="M453.987 372.757Q456.551 376.73 458.569 381.006C469.065 403.401 465.491 425.468 455.179 447.293C451.175 455.766 446.189 464.161 443.014 472.968C441.988 475.815 441.267 478.866 441.546 481.909C442.286 489.976 449.233 501.525 452.806 508.986C444.979 509.539 432.152 508.858 425.317 510.387C423.657 510.758 422.952 511.381 422.051 512.777C422.012 514.288 422.066 514.565 422.772 515.898C423.836 516.678 424.505 516.95 425.82 517.185C426.491 517.304 426.946 517.264 427.486 517.688C426.393 521.422 423.248 525.158 420.953 528.268C414.262 527.1 408.024 525.16 402.265 521.463C399.321 519.572 395.246 516.585 394.546 513C394.251 511.486 394.049 509.746 392.507 508.967C391.426 508.421 390.249 508.289 389.135 508.81C387.849 509.412 386.916 511.158 386.383 512.413C383.764 518.586 384.249 524.847 386.77 530.964C390.551 540.14 398.847 544.292 407.459 547.955C403.93 553.943 400.591 561.029 395.642 565.938C391.374 570.171 385.785 572.336 379.785 572.131C365.893 571.658 354.066 561.875 345.106 552.191C321.725 525.285 309.707 495.942 305.373 460.709C302.595 459.213 299.862 457.626 297.535 455.474C292.591 450.903 290.439 445.48 290.117 438.832C289.641 429.028 290.802 417.186 297.851 409.696C301.55 405.767 306.863 403.198 312.291 403.112Q313.107 403.093 313.921 403.156Q314.735 403.219 315.539 403.363Q316.342 403.507 317.127 403.73Q317.913 403.954 318.672 404.254Q319.431 404.555 320.156 404.93Q320.881 405.305 321.565 405.75Q322.249 406.195 322.886 406.707Q323.522 407.219 324.104 407.791C329.843 413.373 330.014 420.943 330.057 428.391C331.132 428.926 332.216 429.416 333.35 429.815C342.327 432.973 351.72 431.209 360.072 427.098C371.599 421.424 379.766 410.332 383.884 398.362C397.3 404.019 411.226 408.223 425.55 403.164C440.046 398.044 447.713 385.982 453.987 372.757Z"/>
	<path d="M306.771 413.513Q307.377 413.491 307.984 413.486C311.53 413.473 314.469 414.659 316.949 417.244C320.336 420.775 322.219 428.44 319.416 432.834C318.41 434.41 314.995 436.845 314.847 438.657C314.676 440.763 319.683 443.255 319.659 446.814C319.015 448.255 318.57 448.84 317.347 449.837C316.561 450.004 316.003 450.26 315.205 450.02C311.725 448.972 309.836 445.148 308.22 442.194C308.033 441.057 307.852 439.912 307.835 438.758C307.765 434.147 310.412 431.67 313.455 428.644C313.101 426.019 312.294 421.906 310.022 420.218C309.35 419.718 308.91 419.951 308.13 420.018C305.449 421.638 303.954 424.297 301.987 426.644C300.726 428.147 300.023 428.591 298.078 428.781C296.961 428.115 296.665 428.017 296.073 426.883C296.094 425.064 296.335 423.441 297.121 421.778C299.137 417.508 302.439 415.066 306.771 413.513Z"/>
	<path d="M426.858 423.206C431.866 422.45 440.403 422.422 444.942 424.902C446.638 425.829 448.039 427.338 448.445 429.267C448.633 430.161 448.302 430.342 447.876 431.079C444.081 432.935 439.757 430.815 435.868 430.202C433.758 429.87 431.447 430.034 429.311 430.073C426.958 430.246 424.55 430.39 422.232 430.839C418.757 431.511 411.437 434.376 408.341 432.104C407.586 431.55 407.62 430.99 407.397 430.164C407.632 429.229 407.852 428.751 408.499 428.002C411.93 424.028 422.026 423.743 426.858 423.206Z"/>
	<path d="M410.493 445.728C414.617 446.731 419.768 456.665 425.175 459.394C430.07 461.864 435.77 459.505 440.542 461.401C441.335 462.609 441.56 462.898 441.664 464.318C440.995 465.897 440.245 466.378 438.864 467.254C437.381 467.652 435.955 467.904 434.417 467.977C426.826 468.338 419.927 465.242 414.439 460.161C411.537 457.474 408.203 453.965 408.219 449.757C408.227 447.756 409.17 447.019 410.493 445.728Z"/>
	<path fill="#9F8BE8" d="M811.811 662.63C817.946 661.822 824.151 663.21 830.039 664.809C835.656 666.335 841.277 668.105 846.692 670.242C855.088 673.556 883.058 686.39 886.801 692.902L886.362 693.624C875.84 698.008 854.415 683.242 844.356 679.318C834.899 675.629 823.323 672.396 813.097 672.042C811.06 671.971 809.444 672.124 807.926 673.584C807.553 675.036 807.68 675.344 808.099 676.805C808.944 677.788 809.652 678.182 810.889 678.475C813.387 679.068 816.082 679.015 818.625 679.44C826.991 680.838 835.995 683.1 843.514 687.071C854.997 693.136 874.878 719.242 878.085 731.588C878.496 733.17 878.378 734.035 877.578 735.435C872.528 736.104 860.349 722.098 857.267 718.276C852.468 712.326 849.216 705.782 842.785 701.241C834.364 695.295 800.905 684.876 791.382 687.678C790.049 688.07 789.968 688.413 789.318 689.545C789.239 690.55 789.167 691.077 789.646 692.008C790.24 693.164 791.856 693.684 793.036 694.034C796.809 695.154 801.022 695.486 804.915 696.135C810.202 697.016 815.219 698.168 820.374 699.669C833.652 703.536 843.178 708.301 849.974 720.859C852.034 724.664 855.639 732.512 854.358 736.772C850.542 736.423 838.682 722.507 834.593 719.12C826.738 712.612 817.849 711.916 808.693 708.564C804.324 706.965 800.308 704.481 796.065 702.565C791.961 701.273 786.495 701.117 782.486 702.82C781.237 703.351 780.874 703.73 780.438 704.982C780.637 705.574 780.705 705.878 781.073 706.44C783.376 709.957 788.199 707.884 791.63 708.81C804.424 712.265 817.275 730.03 823.565 740.877C809.876 735.989 799.614 719.774 784.441 719.99C770.75 720.184 744.587 735.578 734.002 744.403C727.837 749.543 723.466 756.914 717.887 762.723C701.59 779.691 684.657 795.968 668.591 813.178C666.783 811.567 665.095 809.927 663.571 808.04C653.845 795.999 651.521 779.462 653.159 764.495C657.563 760.234 663.294 756.894 668.333 753.382C678.094 746.577 688.064 739.813 697.504 732.566C706.372 725.757 712.473 715.986 720.947 708.666C737.939 693.986 758.917 684.765 779.052 675.372C789.669 670.42 800.179 664.704 811.811 662.63Z"/>
	<path fill="#F4EFFB" d="M750.53 741.507C749.98 745.241 739.769 761.772 737.28 766.552C734.178 772.511 731.166 778.707 728.604 784.917C725.439 792.592 723.272 800.737 720.371 808.527C714.316 824.788 707.719 840.871 701.495 857.073C688.734 890.291 675.003 923.296 663.499 956.98C653.526 953.311 643.516 949.591 633.808 945.263C626.566 930.68 622.033 912.215 621.506 896.027C621.29 889.401 623.05 870.004 627.683 865.38C657.074 836.047 685.354 805.607 714.561 776.078C718.981 771.61 723.362 766.993 727.402 762.177C730.69 758.257 733.624 753.791 737.392 750.323C741.126 746.886 746.24 744.239 750.53 741.507Z"/>
	<path fill="#9F8BE8" d="M645.337 769.924C645.715 772.005 645.548 774.419 645.628 776.554C646.313 794.713 650.773 805.813 664.072 818.185C640.487 841.276 618.963 866.98 593.369 887.939C583.274 896.205 572.678 903.133 561.596 910.001Q553.801 905.259 546.216 900.187C536.236 892.959 524.459 885.676 515.927 876.783C523.344 867.772 532.819 857.363 541.406 849.552C557.044 835.327 574.586 822.69 591.326 809.767C608.945 796.166 626.76 782.184 645.337 769.924Z"/>
	<path fill="#D7CAF7" d="M744.971 548.241C745.51 548.307 745.506 548.294 746.131 548.443C753.143 550.107 774.619 560.293 780.23 565.136C790.034 573.598 797.414 585.578 804.971 596.051L834.379 637.059C841.557 647.04 849.777 656.192 856.392 666.603C842.618 661.181 828.752 655.331 813.702 655.518C793.938 658.327 768.74 671.908 750.743 681.217C742.503 671.188 734.972 660.615 726.259 650.962Q727.293 650.137 728.296 649.275Q729.3 648.414 730.272 647.517Q731.244 646.62 732.184 645.689Q733.123 644.758 734.029 643.794Q734.935 642.83 735.805 641.834Q736.676 640.839 737.51 639.812Q738.345 638.786 739.142 637.731Q739.939 636.675 740.698 635.592Q741.457 634.509 742.177 633.399Q742.897 632.289 743.576 631.155Q744.256 630.02 744.895 628.862Q745.534 627.704 746.13 626.523Q746.727 625.343 747.282 624.142Q747.836 622.941 748.347 621.721Q748.858 620.501 749.325 619.264Q749.792 618.026 750.215 616.773C756.859 596.922 754.316 566.946 744.971 548.241Z"/>
	<path fill="#9F8BE8" d="M217.666 564.326C235.593 565.098 255.131 572.894 271.057 580.756C310.817 600.384 335.508 628.739 358.786 665.608C368.495 680.986 377.675 697.622 383.531 714.885L369.069 698.791C359.806 687.99 350.626 677.869 339.802 668.585C308.622 641.842 266.829 622.558 225.643 619.584C213.824 618.73 202.34 619.729 190.575 620.628C195.422 601.777 207.484 580.701 217.666 564.326Z"/>
	<path fill="#9F8BE8" d="M294.984 501.261C296.769 505.446 297.082 511.259 298.001 515.787C300.347 527.335 305.819 539.734 312.814 549.218C321.817 561.427 331.89 568.88 346.982 571.206C344.713 578.81 341.48 586.077 339.403 593.774C337.373 601.293 336.536 608.942 334.845 616.518C327.799 611.198 321.686 604.573 314.666 599.132Q308.915 594.532 302.855 590.348Q296.795 586.164 290.455 582.417Q284.115 578.67 277.528 575.378Q270.94 572.086 264.137 569.266C257.909 566.729 251.057 565.236 245.032 562.324C245.155 561.71 245.258 561.017 245.497 560.43C246.985 556.763 254.781 556.157 258.352 554.595C278.814 545.644 287.418 520.428 294.984 501.261Z"/>
	<path fill="#9F8BE8" d="M416.439 764.49C423.51 770.254 430.087 777.138 436.883 783.281Q461.755 805.733 488.473 825.952C495.327 831.108 502.261 836.714 509.775 840.871C514.163 843.298 518.56 844.824 523.401 846.079C519.613 851.087 517.083 856.619 514.504 862.3C513.083 865.577 511.806 868.932 510.468 872.244Q489.408 851.984 469.725 830.384Q450.042 808.783 431.822 785.936C426.663 779.45 419.778 772.069 416.439 764.49Z"/>
	<path fill="#9F8BE8" d="M615.355 877.913C616.242 878.751 615.699 880.292 615.556 881.34C612.445 904.099 617.796 920.507 624.839 941.658C614.355 937.852 604.416 933.067 594.365 928.271C586.095 924.177 576.011 920.311 568.915 914.458C574.577 909.648 581.482 906.051 587.461 901.592C597.261 894.284 606.257 886.057 615.355 877.913Z"/>
	<path fill="#9F8BE8" d="M387.081 295.524C387.402 295.511 387.724 295.469 388.045 295.486C389.375 295.557 389.766 295.715 390.668 296.587L390.396 297.761C386.443 302.12 378.912 303.155 374.524 307.581C367.637 314.53 363.141 323.706 355.829 330.149C339.619 344.431 315.181 335.58 296.305 343.703C263.245 357.931 279.006 387.61 267.912 412.635C261.634 426.797 249.266 436.993 243.486 451.637C239.996 460.48 238.369 471.402 244.785 479.346C249.339 484.985 254.057 489.058 256.962 495.886C261.276 506.029 260.653 520.095 256.524 530.191C256.448 530.377 256.367 530.562 256.288 530.747L254.736 530.618C253.639 529.812 253.469 529.704 253.271 528.256C252.464 522.366 256.604 514.21 255.093 505.34C252.772 491.721 241.233 486.352 237.239 474.311C228.837 448.975 256.381 429.317 264.585 409.189C271.386 392.503 265.369 375.488 273.951 358.308C281.592 343.015 298.403 336.283 314.635 334.943C325.866 334.015 338.347 335.392 348.548 329.613C364.843 320.381 362.552 303.795 387.081 295.524Z"/>
	<path fill="#9F8BE8" d="M364.764 268.213C370.348 268.303 381.278 268.937 385.43 273.148C385.775 274.414 385.754 274.346 385.147 275.515C382.726 276.599 375.742 274.206 373.096 273.676C359.296 270.911 348.568 275.955 336.917 282.685C332.277 285.366 327.711 288.016 322.418 289.162C309.149 292.036 293.151 286.646 281.262 294.978C270.101 302.8 264.216 323.94 254.896 335.459C244.788 347.953 229.956 355.312 219.849 367.656C216.375 371.899 213.722 376.681 212.269 381.981C208.199 396.827 216.014 405.867 217.51 419.799C218.68 430.706 216.522 441.333 214.597 452.011C213.473 458.148 214.703 463.122 215.142 469.196L214.185 470.099C212.953 470.348 212.833 470.505 211.745 469.921C205.464 461.34 213.924 436.947 213.501 424.954C213.097 413.491 207.104 403.755 206.407 392.564C204.528 362.371 237.804 350.894 253.197 330.379C261.13 319.808 264.496 306.017 273.086 296.406C288.269 279.42 306.38 288.856 324.084 283.568C328.993 282.102 333.185 279.404 337.561 276.838C346.149 271.801 354.791 268.8 364.764 268.213Z"/>
	<path fill="#9F8BE8" d="M649.496 426.207C678.143 423.54 709.45 432.299 732.413 449.556C741.717 456.547 749.957 464.982 759.334 471.78C766.254 476.796 780.541 482.824 788.986 478.955C792.808 477.204 796.624 473.887 800.794 473.195C802.15 473.553 802.102 473.497 802.856 474.675C802.722 475.454 802.751 475.771 802.261 476.431C799.093 480.708 789.416 484.513 784.211 484.949C766.318 486.447 752.737 472.319 740.25 461.838C695.456 424.32 650.328 426.155 596.909 439.634C593.051 440.608 575.083 447.055 572.986 446.819C571.784 446 571.471 445.983 571.039 444.621C571.313 444.006 571.297 443.945 571.795 443.355C576.513 437.764 619.578 429.757 629.207 428.295C635.953 427.271 642.69 426.662 649.496 426.207Z"/>
	<path fill="#9F8BE8" d="M851.757 488.723C852.358 488.781 852.911 488.837 853.492 489.011C864.063 492.18 874.539 508.725 879.041 518.004Q879.463 518.882 879.862 519.769Q880.262 520.657 880.64 521.555Q881.018 522.452 881.373 523.358Q881.729 524.265 882.062 525.18Q882.395 526.095 882.705 527.017Q883.016 527.94 883.303 528.871Q883.59 529.801 883.855 530.738Q884.119 531.675 884.36 532.618Q884.602 533.562 884.819 534.51Q885.037 535.459 885.231 536.414Q885.426 537.368 885.596 538.326Q885.767 539.285 885.914 540.247Q886.061 541.21 886.184 542.176Q886.307 543.141 886.407 544.11Q886.506 545.078 886.581 546.049Q886.656 547.02 886.708 547.992Q886.759 548.965 886.786 549.938Q886.814 550.911 886.817 551.885Q886.82 552.858 886.799 553.832Q886.778 554.805 886.734 555.778Q886.689 556.75 886.62 557.722Q886.551 558.693 886.458 559.662Q886.365 560.631 886.249 561.598Q886.132 562.565 885.992 563.528Q885.851 564.491 885.687 565.451Q885.522 566.411 885.334 567.366Q885.146 568.321 884.935 569.272Q884.724 570.222 884.489 571.167Q884.254 572.112 883.996 573.051Q883.738 573.99 883.456 574.922Q883.175 575.854 882.871 576.779Q882.567 577.704 882.24 578.621C874.386 600.63 857.174 615.159 836.533 624.965C835.289 624.593 834.531 624.261 833.517 623.444C833.511 622.503 833.342 622.85 833.947 622.219C836.58 619.471 841.077 617.234 844.321 615.122C857.196 606.736 867.841 598.411 874.479 584.152Q875.065 582.917 875.604 581.662Q876.144 580.407 876.637 579.133Q877.13 577.858 877.576 576.567Q878.022 575.275 878.42 573.968Q878.818 572.661 879.167 571.34Q879.516 570.019 879.817 568.686Q880.117 567.354 880.369 566.01Q880.62 564.667 880.821 563.316Q881.023 561.965 881.174 560.607Q881.326 559.249 881.428 557.886Q881.529 556.524 881.58 555.158Q881.631 553.793 881.632 552.427Q881.633 551.06 881.584 549.695Q881.534 548.329 881.434 546.967Q881.334 545.604 881.185 544.246Q881.035 542.888 880.835 541.536Q880.635 540.184 880.385 538.841Q880.136 537.498 879.837 536.164Q879.538 534.831 879.19 533.51Q878.842 532.189 878.446 530.881Q878.05 529.573 877.605 528.281Q877.161 526.989 876.67 525.714Q876.178 524.439 875.64 523.183Q875.102 521.928 874.518 520.692Q873.934 519.457 873.305 518.244Q872.675 517.031 872.002 515.843Q871.328 514.654 870.612 513.491Q869.895 512.327 869.136 511.191Q868.376 510.055 867.576 508.948Q866.775 507.841 865.934 506.764Q865.094 505.687 864.214 504.641Q863.334 503.596 862.416 502.584C860.645 500.61 851.347 492.618 850.926 491.14C850.66 490.209 851.335 489.529 851.757 488.723Z"/>
	<path fill="#9F8BE8" d="M642.273 409.706C647.959 408.978 654.302 409.252 660.058 409.411C684.798 410.094 708.157 416.409 729.742 428.578C733.603 430.754 739.086 433.569 741.992 436.995C742.814 437.965 743 438.475 742.882 439.714L741.645 440.627C740.771 440.799 740.194 440.863 739.318 440.603C737.918 440.189 729.381 434.241 727.025 432.892Q720.662 429.209 713.936 426.239Q707.211 423.268 700.203 421.045C674.232 411.987 641.691 413.014 614.856 418.105C608.222 419.364 595.639 423.342 589.38 422.831C588.446 422.113 588.505 422.162 588.322 420.993C588.672 420.386 588.687 420.288 589.234 419.721C594.214 414.552 633.329 410.324 642.273 409.706Z"/>
	<path fill="#9F8BE8" d="M822.425 474.89C827.254 477.474 838.356 492.864 841.462 497.805Q845.104 503.691 847.908 510.019C856.646 529.372 861.038 552.245 853.198 572.581C848.519 584.715 835.841 602.67 823.709 607.996C822.641 607.046 822.299 606.812 821.832 605.483C822.336 603.499 824.858 602.149 826.372 600.926C839.642 590.206 849.871 573.978 851.684 556.86C854.952 526.013 837.545 499.744 819.269 476.895C820.082 475.7 821.138 475.482 822.425 474.89Z"/>
	<path fill="#9F8BE8" d="M635.01 371.614Q640.021 371.397 645.036 371.319C692.441 370.665 727.023 393.402 759.531 425.323C760.994 426.76 762.462 428.06 762.487 430.211C761.889 430.899 761.507 431.267 760.675 431.69C759.782 432.143 759.763 431.936 758.874 431.676C730.381 402.813 699.34 380.497 657.7 376.575C649.518 375.804 642.113 376.938 634.105 376.689C632.605 376.642 631.426 376.541 630.369 375.442C630.456 374.977 630.447 374.841 630.73 374.38C631.741 372.741 633.211 371.989 635.01 371.614Z"/>
	<path fill="#F4EFFB" d="M663.74 600.868C664.342 601.988 664.911 603.114 665.32 604.321C667.677 611.264 666.5 618.942 663.218 625.381C658.653 634.335 650.574 638.914 641.385 641.897C639.562 640.258 637.961 638.387 636.316 636.573C639.042 633.673 641.76 630.838 644.938 628.426C650.496 624.208 657.066 620.604 661.653 615.298C662.088 614.401 662.243 613.978 662.124 612.981C658.545 614.396 637.472 630.644 633.684 633.968C632.041 632.372 630.669 630.66 629.269 628.857C641.611 620.287 654.684 613.327 663.74 600.868Z"/>
	<path fill="#9F8BE8" d="M424.686 294.605Q425.743 294.604 426.798 294.655C434.826 295.069 442.873 298.322 448.282 304.403C456.101 313.194 456.055 323.446 455.512 334.496C462.577 337.622 469.137 341.588 474.017 347.706C478.519 353.351 480.866 360.267 480.009 367.505C479.474 372.021 478.439 376.456 474.705 379.354C474.405 379.138 473.909 378.794 473.655 378.546C471.537 376.48 474.668 372.364 475.286 370.048C475.831 368.003 475.821 365.621 475.685 363.524C475.078 354.138 468.448 347.424 460.862 342.733C458.06 341.001 454.747 339.472 452.322 337.238C449.25 334.407 451.291 327.784 451.14 323.887C450.72 313.005 444.954 304.114 434.077 301.182C431.112 300.383 426.139 299.959 423.884 297.862C423.62 296.281 423.972 295.996 424.686 294.605Z"/>
	<path fill="#9F8BE8" d="M810.439 483.327C819.02 493.822 825.282 509.201 826.901 522.571C829.759 546.179 822.38 567.687 807.889 586.174L807.245 586.392C806.356 585.987 805.395 584.883 805.083 583.941C804.417 581.93 808.31 577.735 809.502 576.037C817.703 564.363 821.53 552.116 822.4 537.902C822.902 529.709 822.522 521.453 820.394 513.496C819.592 510.495 818.648 507.448 817.368 504.612C815.194 499.793 810.292 492.429 809.582 487.398C809.407 486.16 810.078 484.509 810.439 483.327Z"/>
	<path fill="#9F8BE8" d="M380.225 348.252C381.425 348.384 382.109 348.411 383.052 349.206C383.336 350 383.382 350.422 383.201 351.272C382.386 355.106 377.714 360.04 375.336 363.133C351.741 393.816 332.657 381.102 304.287 398.115C303.33 398.157 302.84 397.846 301.979 397.467L301.774 396.532C304.405 387.585 337.491 382.397 346.036 379.886C350.116 378.688 354.061 377.084 357.62 374.735C367.159 368.438 373.802 357.512 380.225 348.252Z"/>
	<path fill="#9F8BE8" d="M439.2 349.306C440.71 349.599 440.897 349.552 441.933 350.657C442.205 351.948 442.149 352.744 441.676 353.949C440.47 357.02 438.444 359.902 436.576 362.599C424.331 380.276 405.12 389.049 386.11 397.526L384.167 397.784C384.018 397.461 383.778 396.992 383.734 396.643C383.381 393.816 388.901 391.575 390.98 390.533C415.034 378.469 425.307 373.568 439.2 349.306Z"/>
	<path fill="#9F8BE8" d="M694.504 352.119C697.012 351.961 699.526 352.128 702.013 352.469C717.103 354.539 730.694 361.547 743.1 370.045C746.638 372.469 750.324 374.779 752.96 378.231C753.133 379.808 752.695 380.037 751.831 381.318C750.591 381.484 750.301 381.519 749.159 380.849C746.088 379.05 743.18 376.393 740.235 374.344C735.169 370.82 729.846 367.785 724.412 364.873C719.886 362.448 715.706 360.784 710.752 359.399C705.795 358.014 698.745 357.799 694.578 354.866C693.965 353.573 694.117 353.521 694.504 352.119Z"/>
	<path fill="#9F8BE8" d="M648.44 477.962C653.911 477.668 663.488 483.737 668.888 485.862C673.927 487.845 679.173 489.42 684.556 490.105C691.748 491.019 694.924 489.807 701.666 489.203C702.991 489.084 703.633 489.019 704.673 489.926L704.753 491.689L703.898 492.491Q702.578 492.925 701.251 493.334C686.338 497.904 671.699 493.114 658.397 485.993C655.357 484.366 649.468 481.408 648.44 477.962Z"/>
	<path fill="#9F8BE8" d="M803.591 486.833C803.642 486.956 803.705 487.076 803.745 487.203C804.448 489.465 803.836 492.818 802.623 494.817C799.881 499.334 793.353 501.446 788.419 502.503C781.071 504.076 771.624 503.993 765.157 499.792C764.51 498.538 764.067 497.608 764.409 496.251C766.489 495.578 779.695 499.993 788.505 497.981C795.392 496.409 799.881 492.641 803.591 486.833Z"/>
	<path fill="#F4EFFB" d="M391.948 521.852C400.295 528.065 407.346 532.235 417.617 534.422L413.907 539.152L411.101 542.46C407.225 541.124 403.225 539.318 399.948 536.829C394.656 532.811 392.723 528.218 391.948 521.852Z"/>
	<path fill="#CC706E" d="M538.9 172.954Q566.444 144.11 597.115 118.617C639.366 83.6675 686.293 54.4183 742.779 53.0823C800.02 51.7284 858.06 84.653 898.339 123.236C945.812 168.71 991.502 230.453 992.98 298.834C994.476 367.986 963.081 435.276 926.619 492.256C918.103 505.565 909.766 520.043 898.858 531.594L898.474 531.994C895.218 524.347 891.577 517.183 886.843 510.332C874.354 492.258 855.446 478.446 834.107 472.988C826.497 471.042 818.902 470.334 811.279 468.789C809.244 468.377 806.628 467.567 805.735 465.509C803.337 459.979 803.965 451.671 803.241 445.648Q802.766 441.993 802.076 438.373Q801.386 434.752 800.484 431.179Q799.582 427.605 798.471 424.091Q797.36 420.577 796.043 417.135Q794.727 413.692 793.21 410.334Q791.692 406.975 789.98 403.711Q788.267 400.448 786.365 397.291Q784.463 394.134 782.378 391.095C766.95 368.838 740.266 351.165 713.5 346.358C679.159 340.19 640.34 355.654 612.428 375.29C584.544 394.906 561.869 419.742 555.805 454.367C551.252 449.557 544.253 433.242 540.714 426.751Q532.411 411.576 523.173 396.952C543.967 379.001 565.584 361.963 586.063 343.645C572.583 332.549 559.458 320.986 546.172 309.657C531.715 297.328 517.089 285.2 503.334 272.078C526.686 252.937 550.66 234.498 573.561 214.798C562.656 200.424 549.226 187.675 538.9 172.954Z"/>
	<path fill="#CC706E" d="M186.001 611.081C164.364 596.323 124.057 540.265 108.922 517.533Q99.0986 502.594 90.2887 487.035Q81.4789 471.477 73.7215 455.368C44.8152 395.972 25.3091 329.835 38.6627 263.638C42.0781 246.707 48.4587 231.05 56.133 215.66C81.0406 165.71 120.26 124.067 166.689 93.3247C213.292 62.4679 265.197 44.7009 321.322 56.2116C366.756 65.5297 410.223 91.2298 443.648 122.958C458.582 137.134 471.682 152.673 485.1 168.238C496.96 181.995 510.051 195.6 520.042 210.784Q487.167 235.024 453.612 258.313C462.471 268.304 472.608 277.393 482.251 286.628L536.261 337.602C531.654 342.076 510.732 361.29 506.369 363.542C503.012 350.415 492.151 339.394 480.708 332.719C478.586 331.481 476.298 330.489 474.061 329.478C477.401 322.036 479.527 313.619 476.666 305.624C473.506 296.795 464.472 290.681 456.25 287.009Q454.513 286.217 452.72 285.564Q450.926 284.911 449.086 284.401Q447.246 283.892 445.372 283.529Q443.498 283.166 441.601 282.952Q439.704 282.738 437.797 282.674Q435.889 282.611 433.982 282.698Q432.075 282.784 430.181 283.021Q428.287 283.258 426.417 283.644C416.09 263.291 400.095 248.686 378.119 241.603C359.437 235.581 340.404 238.069 323.165 247.043C312.696 252.493 303.437 258.565 291.671 260.957C265.295 266.318 226.92 254.525 216.123 288.484C211.163 304.084 212.234 320.237 204.374 335.252C193.824 355.407 171.688 370.5 169.352 394.366C167.722 411.004 179.781 420.126 178.678 434.55C177.555 449.233 167.381 459.877 175.296 474.876C181.73 487.068 196.401 490.697 203.983 501.63C206.784 505.667 208.493 510.765 209.469 515.546C210.41 520.159 210.772 524.951 212.009 529.494C215.374 541.849 226.27 549.196 236.865 555.08L235.414 560.014C230.323 558.856 219.078 554.931 214.419 557.69C206.47 562.396 189.838 600.885 186.001 611.081Z"/>
	<path fill="#CC706E" d="M436.075 516.246C440.813 516.29 455.225 517.167 458.834 514.821C459.918 514.116 460.405 513.376 460.557 512.081C461.347 505.348 448.105 489.251 448.257 480.271C448.387 472.63 454.886 463.302 458.146 456.506C460.514 451.571 462.759 446.466 464.724 441.357C467.879 433.152 469.769 424.736 471.234 416.096C472.836 418.739 488.912 431.979 492.915 436.093C503.346 446.814 512.5 458.496 521.91 470.091C526.977 476.336 532.671 482.532 537.177 489.179C524.443 499.69 512.17 510.802 499.877 521.823C492.5 528.436 484.94 534.842 477.75 541.661C505.03 566.285 533.785 589.672 560.278 615.103C546.571 625.801 532.024 640.868 518.924 652.77L482.28 685.919C477.11 690.6 471.634 695.048 466.685 699.955C471.897 708.395 478.587 715.859 484.382 723.894L523.842 779.178C508.781 773.743 494.176 767.146 479.568 760.621C462.461 752.979 445.325 745.224 428.6 736.772C423.121 734.004 397.246 719.288 392.721 719.026L392.276 719.885C392.265 719.855 392.249 719.826 392.244 719.794C388.4 698.414 373.19 663.764 360.707 645.496C354.84 636.909 348.027 629.443 340.935 621.886C343.731 603.872 347.96 587.753 355.077 570.907C366.026 575.63 375.619 581.087 387.995 578.036C392.753 576.862 396.902 574.238 400.322 570.77C406.725 564.275 411.453 555.031 416.371 547.367C423.024 537 429.904 526.922 436.075 516.246Z"/>
	<path fill="#CC706E" d="M559.332 506.686C562.046 514.866 565.051 522.584 569.338 530.103C576.492 542.649 590.068 558.235 592.685 572.289C593.623 577.33 593.246 582.821 592.464 587.856C591.13 596.44 585.059 612.005 595.345 617.129C600.497 619.696 607.835 618.85 613.18 617.157C615.408 621.789 617.739 626.014 620.862 630.107C628.874 640.604 655.855 667.876 668.027 672.186C675.019 674.661 682.27 673.563 688.807 670.381C698.929 665.452 707.338 656.75 714.728 648.448Q725.27 659.286 734.142 671.528Q674.018 708.686 612.829 744.063C593.74 755.205 574.286 765.719 555.306 777.05Q535.519 756.784 516.392 735.895C508.377 727.308 499.989 718.945 492.443 709.942C525.372 681.158 556.953 650.871 589.944 622.12C577.862 607.793 566.477 593.028 554.65 578.505C543.888 565.29 532.733 552.412 522.054 539.127C533.502 527.604 546.776 516.992 559.332 506.686Z"/>
</svg>
