<?xml version="1.0" encoding="utf-8" ?>
<svg xmlns="http://www.w3.org/2000/svg" xmlns:xlink="http://www.w3.org/1999/xlink" width="1024" height="1024">
	<path d="M0 0L1024 0L1024 797.736L1024 1024L813.745 1024L808.277 1024L752.344 1024L746.504 1024L338.351 1024L332.769 1024L31.4027 1024L0 1024L0 970.059L0 950.755L0 904.778L0 658.358L0 0Z"/>
	<path fill="#9F8BE8" d="M0 0L1024 0L1024 797.736C1014.05 796.024 1004 794.849 994.009 793.416L923.519 783.728C903.723 781.112 883.973 777.921 864.221 774.976L796.166 764.557C787.953 763.375 776.123 760.678 768.027 761.2C765.934 758.767 764.187 755.335 762.435 752.619Q755.876 742.277 749.129 732.057C742.314 721.86 734.529 712.485 727.588 702.423C729.906 698.777 731.696 694.568 733.751 690.75C738.798 681.376 743.813 671.923 749.392 662.851C753.705 655.837 763.689 641.744 771.887 639.335C785.648 635.293 821.32 667.618 851.824 660.165C866.346 656.617 871.808 646.516 877.593 633.89C879.281 630.207 880.855 626.391 883.754 623.464C889.795 617.365 900.101 618.599 905.82 608.675C908.467 604.083 907.811 599.794 906.647 594.921C907.437 594.819 908.224 594.697 909.013 594.586C909.904 594.462 910.745 594.334 911.611 594.077C918.538 592.028 923.187 587.756 926.548 581.524C926.278 574.539 922.274 565.443 925.195 558.784C927.838 552.759 936.726 551.698 942.196 549.317C948.313 546.654 954.72 542.682 957.115 536.125C960.581 526.635 954.145 515.47 950.423 507.062C946.733 498.726 941.253 487.021 942.568 477.843C943.625 470.47 951.676 461.445 955.474 454.714C960.655 445.535 965.812 435.889 969.674 426.081C971.588 421.219 972.514 415.918 974.827 411.222C976.626 407.571 979.27 404.199 981.46 400.765C984.14 396.564 986.234 392.067 988.004 387.413C997.316 362.926 994.553 334.889 983.906 311.341C979.424 301.429 973.53 291.574 966.499 283.255C937.216 248.61 876.577 214.789 834.65 199.14C778.079 178.025 728.761 177.759 673.596 203.097Q671.237 204.205 668.905 205.37Q666.574 206.536 664.271 207.758Q661.969 208.979 659.697 210.257Q657.425 211.535 655.185 212.867Q652.945 214.2 650.738 215.587Q648.531 216.974 646.359 218.414Q644.187 219.854 642.05 221.347Q639.913 222.84 637.814 224.384Q635.714 225.928 633.653 227.524Q631.591 229.119 629.57 230.764Q627.548 232.409 625.567 234.102Q623.586 235.796 621.646 237.538Q619.707 239.279 617.811 241.068Q615.915 242.856 614.063 244.69Q612.211 246.524 610.404 248.403Q608.597 250.281 606.837 252.204Q605.076 254.126 603.363 256.09Q601.65 258.055 599.986 260.06Q598.321 262.066 596.706 264.112Q595.091 266.157 593.526 268.242Q591.961 270.326 590.447 272.448Q588.934 274.57 587.472 276.729Q586.011 278.887 584.603 281.08Q583.194 283.273 581.84 285.5Q580.486 287.727 579.186 289.987Q577.886 292.246 576.642 294.536Q575.398 296.826 574.21 299.146Q573.022 301.466 571.891 303.815Q570.759 306.163 569.686 308.538Q568.612 310.913 567.597 313.314Q566.582 315.714 565.625 318.139Q564.669 320.564 563.772 323.011C545.906 371.925 551.471 427.838 573.121 474.676C570.728 475.956 568.055 477.191 566.286 479.292C555.689 480.708 544.955 481.052 534.34 482.302C513.143 484.799 492.531 492.047 476.103 505.976C455.982 523.038 445.597 548.472 443.611 574.472C442.771 585.457 443.246 624.832 449.54 632.119C461.323 637.522 489.199 634.446 502.079 632.044C508.365 630.871 514.485 628.841 520.847 628.09L521.647 628C512.756 637.41 505.306 652.481 497.065 663.117C492.233 669.353 486.55 675.014 481.435 681.027Q465.058 700.481 448.891 720.109C448.537 719.837 448.36 719.671 447.908 719.494C444.169 718.031 436.642 717.871 432.451 717.346L392.393 712.291C366.378 708.927 340.496 704.419 314.452 701.319C309.754 700.76 294.654 698.258 291.096 699.482Q269.32 627.316 248.718 554.805L239.255 521.619C237.342 514.942 234.858 508.035 233.938 501.146C233.093 494.82 235.823 473.445 236.421 465.37C237.085 456.407 237.087 447.321 238.129 438.408C241.502 437.891 244.977 437.918 248.385 437.819C250.682 446.392 253.571 454.818 255.955 463.371C258.027 470.806 259.146 479.257 262.531 486.215C266.692 486.069 271.312 484.649 275.428 483.782Q291.965 480.208 308.451 476.402C349.098 467.411 389.659 457.797 430.403 449.278C433.959 446.23 437.092 442.017 440.193 438.472Q450.956 426.182 461.449 413.66C466.1 408.193 472.266 402.414 475.944 396.342C476.895 394.771 476.596 393.379 476.27 391.645C475.025 385.021 472.747 378.39 470.921 371.892L460.93 336.269L434.435 241.784C433.645 239.046 432.752 233.236 430.304 231.884C427.604 232.077 425.565 234.288 423.855 236.173C424.577 230.191 425.729 224.475 427.282 218.65C417.471 211.215 406.329 205.269 395.712 199.079C395.142 205.158 393.942 211.277 393.159 217.345C392.153 225.13 391.629 233.538 389.604 241.124C385.574 243.697 356.245 249.405 349.042 251.24C345.735 247.389 342.037 244.139 339.117 239.933Q332.762 248.016 325.576 255.369C319.428 257.094 312.975 258.027 306.734 259.42C295.501 261.926 279.673 266.551 268.764 267.004C264.498 271.253 260.557 275.81 256.109 279.879C246.281 273.801 236.586 267.654 227.156 260.966C224.307 252.155 222.727 242.749 220.496 233.752C217.782 222.807 214.246 211.662 212.485 200.54C210.861 190.286 210.68 179.863 208.957 169.593C212.962 169.487 216.832 169.198 220.652 167.874C222.721 167.158 225.198 166.002 226.667 164.323C229.526 161.055 232.402 152.868 234.394 148.701C234.271 147.247 234.164 147.166 233.22 146.036C231.248 146.825 227.624 147.421 226.211 148.889C226.703 151.005 226.927 152.462 226.287 154.571C225.196 158.17 224.01 161.107 220.497 162.823C213.438 166.27 207.667 162.352 201.169 160.207C200.228 159.896 200.329 159.827 199.396 160.315C198.869 161.81 199.192 163.087 199.426 164.609L199.542 165.338C195.853 172.223 194.558 179.796 192.66 187.308C187.857 182.69 182.697 178.463 177.951 173.791C172.304 168.231 167.009 161.93 160.85 156.964C162.646 153.717 163.635 149.823 164.795 146.295C165.42 145.886 165.99 145.435 166.578 144.975L166.576 145.201C170.339 142.507 173.445 140.314 176.099 136.393C178.216 138.518 180.838 141.072 183.868 141.727C185.712 142.125 186.813 141.521 188.263 140.505C188.425 140.123 188.735 139.774 188.749 139.359C188.794 138.013 181.664 134.287 180.388 133.014C178.453 131.083 177.103 128.691 176.282 126.092C174.858 121.58 174.6 116.075 177.018 111.845C177.615 110.801 177.238 111.11 178.304 110.785C180.297 114.337 178.675 119.41 181.268 123.287C181.991 124.368 182.474 124.523 183.711 124.691L184.42 123.995L184.215 121.475C184.732 121.178 184.471 121.179 184.935 121.751C187.155 124.492 189.616 127.313 193.253 128.094C194.195 128.296 195.092 128.193 195.882 127.635C199.139 125.335 198.681 114.943 199.188 111C207.262 107.084 217.236 105.164 221.388 96.1644C223.156 92.3327 224.082 88.0593 226.29 84.4486C229.368 84.436 229.939 89.8994 233.915 91.0582C235.11 91.4062 236.127 91.7411 237.246 92.2818C239.196 94.8413 237.19 103.238 236.768 106.466C232.838 105.26 228.034 104.33 224.03 105.783L224.526 106.34L225.269 105.506L224.734 105.599L225.541 106.673L225.491 106.677C228.031 107.168 232.042 107.501 234.25 108.787C235.288 109.392 235.269 109.712 235.568 110.801C235.027 113.016 233.486 114.67 232.125 116.449C232.692 123.643 235.088 129.488 237.907 136.03C237.185 139.499 229.162 140.506 227.662 144.169L228.254 144.782C229.745 145.202 231.022 145.069 232.538 144.947C235.866 144.183 240.262 142.734 242.245 139.739C243.396 137.999 243.505 135.938 243.028 133.954C241.445 127.359 238.491 124.23 237.642 116.364C242.451 108.327 242.035 101.527 241.744 92.5404C246.166 88.2525 247.427 80.7999 247.417 74.7612C247.411 71.4095 246.27 68.5275 243.763 66.2699C241.407 64.1471 238.408 62.609 235.628 61.1124C231.83 53.9301 229.373 53.1806 221.777 50.8534C209.41 47.0648 180.808 39.8961 169.195 45.8794C165.582 47.7411 162.39 50.4797 158.891 52.5647C155.102 54.8223 150.885 56.7097 147.412 59.4363C139.88 65.3487 135.58 79.3638 132.846 88.4044C129.458 99.6103 132.297 108.447 137.719 118.37C139.298 121.259 141.104 124.055 142.579 126.992L141.857 127.261C140.439 127.778 138.727 128.61 137.224 128.128C136.625 127.936 135.958 127.398 135.454 127.077C135.142 126.878 134.818 126.698 134.5 126.508C133.363 126.907 133.315 127.028 132.599 128.015C132.627 132.058 134.665 136.386 137.467 139.256C140.679 142.546 144.847 144.255 148.995 146.015C145.206 151.579 135.531 168.699 134.602 174.718L135.888 176.456C134.903 180.049 128.968 183.99 126.342 186.912C122.688 190.979 119.241 195.408 116.081 199.86Q113.931 202.84 112.034 205.988Q110.138 209.135 108.508 212.429Q106.879 215.723 105.527 219.14Q104.175 222.557 103.111 226.074C100.433 235.104 98.9349 244.946 98.7227 254.359C98.4555 266.214 98.6736 278.358 99.2587 290.203C99.7039 299.215 100.678 308.196 101.302 317.197Q104.001 353.735 105.817 390.327C106.042 395.18 105.823 417.197 107.387 419.318C108.933 421.414 112.957 422.227 115.25 423.293C110.928 450.543 111.505 477.937 118.859 504.638C120.793 511.66 126.096 522.77 126.916 529.053C127.93 536.815 126.033 547.251 125.296 555.191Q121.907 591.761 117.1 628.172C115.954 637.002 115.327 646.361 113.355 655.007C111.969 661.085 108.475 666.784 106.418 672.697C70.7928 668.993 35.4942 663.048 0 658.358L0 0Z"/>
	<path fill="#9F8BE8" d="M497.399 671.644C512.395 684.196 532.702 689.784 550.522 697.084Q565.895 703.519 580.499 711.55C635.483 741.818 660.758 773.355 697.346 822.396C701.394 827.823 705.706 833.054 709.676 838.539C725.731 860.724 740.856 883.743 755.842 906.658C758.066 910.058 769.086 928.486 771.098 929.673C771.497 929.908 771.991 929.919 772.438 930.042C773.755 929.602 773.998 929.62 774.586 928.255C776.21 924.486 776.75 919.528 777.729 915.496Q780.244 905.552 783.234 895.741C783.732 902.361 785.202 908.921 786.423 915.44L791.602 943.057Q795.846 966.075 800.559 989.001C802.869 1000.64 805.024 1012.58 808.277 1024L752.344 1024L746.504 1024L338.351 1024C344.531 994.857 348.228 965.224 354.419 936.053C360.365 908.037 366.703 879.954 376.614 853.032C394.714 803.866 429.578 752.697 462.608 712.25C473.875 698.452 485.983 685.325 497.399 671.644Z"/>
	<path d="M746.504 1024C736.817 994.551 728.308 963.249 713.86 935.734Q712.393 932.966 710.822 930.255Q709.251 927.545 707.578 924.896Q705.904 922.248 704.131 919.665Q702.357 917.083 700.486 914.569Q698.616 912.057 696.651 909.617Q694.685 907.177 692.628 904.814Q690.571 902.451 688.425 900.168Q686.28 897.885 684.048 895.686Q681.817 893.487 679.503 891.375Q677.19 889.262 674.797 887.24Q672.405 885.217 669.937 883.288Q667.469 881.358 664.928 879.524Q662.389 877.69 659.78 875.954Q657.172 874.218 654.5 872.583Q651.827 870.949 649.094 869.417Q646.361 867.885 643.572 866.459C639.772 864.536 617.059 855.488 616.4 854.813C616.273 854.683 615.521 853.247 615.436 852.931C615.183 851.986 615.276 852.131 615.562 851.218C616.909 850.225 618.187 850.278 619.769 850.521C626.951 851.628 635.128 855.551 641.632 858.803C668.5 872.24 691.034 890.955 708.223 915.689C724.731 939.442 734.563 967.865 743.417 995.181C746.505 1004.71 749.778 1014.32 752.344 1024L746.504 1024Z"/>
	<path fill="#D4D2F7" d="M768.027 761.2C776.123 760.678 787.953 763.375 796.166 764.557L864.221 774.976C883.973 777.921 903.723 781.112 923.519 783.728L994.009 793.416C1004 794.849 1014.05 796.024 1024 797.736L1024 1024L813.745 1024C810.912 1007.47 806.809 991.174 803.62 974.718L793.957 924.18C792.534 916.498 789.694 895.156 786.61 889.106C788.323 877.378 791.859 865.782 792.991 854.13C796.128 821.832 784.281 788.615 768.027 761.2Z"/>
	<path fill="#D4D2F7" d="M0 970.059C6.68145 966.577 14.2376 964.121 21.2521 961.376L55.8862 947.666C67.4943 943.117 79.082 938.434 90.7988 934.176C106.474 928.479 122.35 923.279 137.992 917.517C150.25 913.001 162.314 907.821 174.456 902.995L212.295 888.381Q235.058 879.168 257.371 868.912C265.112 865.373 275.346 859.586 283.438 857.576C284.22 863.722 285.15 874.103 290.489 878.227C291.308 878.859 292.203 879.403 293.086 879.941C300.279 880.284 307.916 878.447 315.019 877.344L341.667 873.38C345.31 872.814 351.549 871.074 355.068 871.842C358.292 871.185 361.517 870.419 364.809 870.211C361.174 883.431 357.02 896.506 353.952 909.881C345.294 947.621 339.739 985.949 332.769 1024L31.4027 1024L0 1024L0 970.059Z"/>
	<path fill="#9F8BE8" d="M0 970.059C6.68145 966.577 14.2376 964.121 21.2521 961.376L55.8862 947.666C67.4943 943.117 79.082 938.434 90.7988 934.176C106.474 928.479 122.35 923.279 137.992 917.517C150.25 913.001 162.314 907.821 174.456 902.995L212.295 888.381Q235.058 879.168 257.371 868.912C265.112 865.373 275.346 859.586 283.438 857.576C284.22 863.722 285.15 874.103 290.489 878.227C291.308 878.859 292.203 879.403 293.086 879.941C300.279 880.284 307.916 878.447 315.019 877.344L341.667 873.38C345.31 872.814 351.549 871.074 355.068 871.842C352.478 873.308 349.671 874.2 346.979 875.454C341.768 877.88 336.637 880.503 331.487 883.056Q296.548 900.604 261.032 916.952L104.053 989.989L54.4151 1012.73C46.9241 1016.22 38.3673 1019.59 31.4027 1024L0 1024L0 970.059Z"/>
	<path fill="#D4D2F7" d="M177.631 684.765Q190.535 685.753 203.384 687.295Q222.668 728.454 239.994 770.475C246.863 787.233 253.733 803.831 259.182 821.122C259.883 823.346 260.967 827.997 263.429 828.829C268.224 830.45 277.146 828.061 282.169 827.127C283.519 830.977 285.424 835.165 285.857 839.221C285.296 839.98 284.692 840.396 283.917 840.924C282.173 845.337 283.666 852.726 283.438 857.576C275.346 859.586 265.112 865.373 257.371 868.912Q235.058 879.168 212.295 888.381L174.456 902.995C162.314 907.821 150.25 913.001 137.992 917.517C122.35 923.279 106.474 928.479 90.7988 934.176C79.082 938.434 67.4943 943.117 55.8862 947.666L21.2521 961.376C14.2376 964.121 6.68145 966.577 0 970.059L0 950.755L0 904.778C9.23318 901.464 38.0335 892.43 43.4754 886.092C60.1851 893.057 75.1476 904.519 90.5661 913.922C93.6732 915.491 96.9451 916.821 100.219 917.999C108.363 920.929 121.807 920.973 129.651 917.012C132.771 915.437 135.519 912.935 136.467 909.471C137.104 907.141 137.22 904.14 135.642 902.183C132.365 898.118 125.843 895.616 121.73 892.267C107.508 880.688 102.786 870.156 94.2426 854.855C94.4382 851.698 94.889 848.563 95.2865 845.427C98.4411 845.887 101.82 846.442 104.716 844.759C114.477 839.087 158.389 740.481 163.592 727.25C169.065 713.33 173.43 699.104 177.631 684.765Z"/>
	<path fill="#9F8BE8" d="M43.4754 886.092C60.1851 893.057 75.1476 904.519 90.5661 913.922C81.7142 916.387 73.3668 920.931 64.8366 924.339Q32.2285 937.081 0 950.755L0 904.778C9.23318 901.464 38.0335 892.43 43.4754 886.092Z"/>
	<path fill="#D4D2F7" d="M0 658.358C35.4942 663.048 70.7928 668.993 106.418 672.697L76.2935 759.232C71.5282 773.044 67.0907 786.963 62.1415 800.712C60.6937 804.735 51.5608 826.207 53.2619 829.333C53.9268 830.555 55.5512 831.548 56.6455 832.377C56.6906 832.412 56.7348 832.447 56.7794 832.482C55.2853 835.715 52.8483 839.389 53.7503 843.029C52.7095 843.836 51.8876 844.145 50.6344 844.566C45.3431 846.344 38.446 859.75 35.9944 864.825C34.368 868.191 30.2885 875.722 31.4249 879.485C31.9885 881.352 33.9274 882.365 35.5788 883.14C38.1102 884.328 40.8348 885.18 43.4754 886.092C38.0335 892.43 9.23318 901.464 0 904.778L0 658.358Z"/>
	<path fill="#D4D2F7" d="M291.096 699.482C294.654 698.258 309.754 700.76 314.452 701.319C340.496 704.419 366.378 708.927 392.393 712.291L432.451 717.346C436.642 717.871 444.169 718.031 447.908 719.494C448.36 719.671 448.537 719.837 448.891 720.109C441.727 730.051 433.986 739.581 426.902 749.601Q409.805 774.058 395.453 800.22C393.636 803.499 377.606 834.53 377.511 834.587C373.506 836.981 352.353 833.543 347.068 832.403C342.979 831.521 339.004 830.163 334.935 829.2C331.477 828.381 327.908 828.171 324.533 826.993C319.876 825.368 317.358 818.185 315.372 814.03C317.944 812.623 320.322 810.98 322.734 809.319Q307.38 754.266 291.096 699.482Z"/>
	<path fill="#9F8BE8" d="M186.936 651.788C192.548 663.542 198.341 675.286 203.384 687.295Q190.535 685.753 177.631 684.765L186.936 651.788Z"/>
	<path fill="#FEFEFE" d="M957.604 310.76C958.096 311.155 958.407 311.522 958.709 312.08C960.706 315.786 961.809 320.358 963.101 324.361C970.4 346.98 972.802 368.989 970.94 392.674C970.497 398.298 970.182 404.08 968.94 409.591C967.019 418.121 962.734 427.877 958.741 435.656C954.65 443.626 950.416 451.72 945.749 459.364C943.448 463.132 940.545 466.555 938.572 470.512C937.59 472.484 936.909 474.582 936.721 476.784C935.207 494.451 955.197 523.269 952.198 532.831C948.688 544.024 932.261 546.463 923.238 551.383L922.559 551.759C914.045 566.667 923.161 574.208 920.106 581.354C918.311 585.552 912.943 587.444 909.018 589.053C897.485 587.285 891.392 582.545 879.009 585.828C876.179 586.578 872.918 587.183 871.356 589.88L871.56 590.605C875.091 592.54 889.329 589.042 897.043 591.983C898.973 592.718 900.459 593.745 901.268 595.697C901.824 597.038 901.486 598.925 901.442 600.357C901.413 601.328 901.635 603.566 901.312 604.403C900.99 605.238 899.578 606.607 898.987 607.339C892.325 615.593 885.233 613.388 878.647 620.385C873.607 625.742 871.798 633.531 868.378 639.912C864.385 647.363 858.343 652.827 850 654.906C820.177 662.339 788.958 627.543 767.78 634.598C752.078 639.828 731.036 682.54 723.309 697.694C718.705 693.556 714.733 688.211 710.5 683.653C703.728 676.36 696.375 669.357 689.173 662.486Q683.517 657.192 677.661 652.12Q671.805 647.048 665.758 642.206Q659.711 637.364 653.481 632.759Q647.251 628.154 640.849 623.793Q634.446 619.432 627.88 615.321Q621.313 611.21 614.593 607.356Q607.873 603.502 601.009 599.91Q594.145 596.317 587.148 592.993C586.92 590.998 590.315 588.516 591.767 586.957C597.838 580.438 601.328 572.861 605.542 565.126C614.067 560.524 623.365 556.084 630.422 549.366C643.512 536.902 650.304 519.746 650.828 501.863C657.662 495.028 669.571 492.624 678.038 488.117L678.782 487.716C681.933 491.129 684.265 495.27 687.439 498.692C692.327 503.961 700.336 508.156 707.692 507.964C712.069 507.85 719.532 506.27 722.609 503.083C723.064 501.775 723.086 501.628 722.756 500.286C718.026 497.491 708.097 503.183 700.107 500.065C689.856 496.065 683.255 484.209 679.328 474.501C672.322 457.185 669.818 436.771 677.401 419.246C682.685 407.034 691.813 394.761 704.61 389.856C710.818 387.477 717.425 387.359 723.52 390.238C747.192 401.417 741.277 429.669 742.709 450.614C743.587 463.459 746.108 477.235 750.452 489.401C752.274 494.504 756.653 507.371 761.861 509.236C763.024 509.652 763.933 509.662 765.002 508.983C766.332 508.138 767.021 506.769 767.282 505.261C767.893 501.728 767.417 497.857 767.803 494.247C768.975 483.301 771.387 471.137 774.722 460.643C776.708 454.396 786.532 432.629 791.981 429.808C794.998 428.247 806.587 427.734 810.772 426.808C825.707 423.503 845.22 417.373 858.733 410.302C901.551 387.898 942.555 359.066 957.604 310.76Z"/>
	<path d="M889.429 445.772C899.528 444.578 913.978 445.141 923.445 449.279C925.693 450.262 928.785 451.999 929.566 454.508C929.823 455.336 929.561 455.387 929.161 456.061C928.65 456.228 928.326 456.368 927.759 456.382C925.869 456.431 923.667 454.386 922.212 453.317C920.391 462.927 915.274 473.956 909.43 481.791C907.128 484.437 904.751 487.674 901.124 488.419C899.524 488.747 898.015 488.54 896.656 487.584C894.681 486.194 893.704 483.763 893.269 481.468C891.094 469.984 899.34 459.683 905.497 450.979C899.747 450.999 891.981 451.902 886.51 450.199C885.293 449.82 884.843 449.502 884.286 448.382L884.881 447.133C886.239 445.873 887.681 445.929 889.429 445.772Z"/>
	<path d="M703.27 401.387C708.804 401.466 714.205 404.057 718.358 407.649C727.503 415.56 730.287 429.42 732.847 440.618C733.203 442.18 734.506 444.919 734.411 446.354C734.317 447.773 733.663 448.507 732.657 449.399C731.288 449.718 731.252 449.704 729.967 449.126C726.874 445.627 727.244 439.751 726.014 435.382C725.505 433.573 724.815 431.811 722.949 431.012C721.504 430.393 719.861 430.76 718.473 431.352C712.98 433.696 708.143 439.79 706.037 445.353C703.481 452.105 703.491 460.227 706.613 466.722C708.742 469.834 711.159 471.344 714.277 473.321C716.371 474.649 717.511 475.025 718.07 477.537C717.705 478.388 717.656 478.881 716.642 479.113C713.713 479.782 709.663 477.998 707.193 476.58C703.077 474.219 700.411 467.81 699.273 463.307C697.074 454.599 698.319 446.045 702.948 438.324C708.087 429.752 712.735 427.822 722.124 425.496L722.48 424.772L721.458 423.764C719.911 410.18 706.305 409.665 703.434 401.862C703.377 401.705 703.325 401.546 703.27 401.387Z"/>
	<path d="M892.516 410.867C895.65 411.669 898.609 413.147 901.705 414.096C908.209 416.089 915.12 416.589 921.889 416.848C927.749 417.072 948.98 414.035 952.597 416.632C953.545 417.313 954.257 418.14 954.309 419.346C954.405 421.537 953.291 422.902 951.859 424.412C943.141 429.38 930.402 429.38 920.779 427.688C912.918 426.306 897.541 422.362 892.977 415.16C891.982 413.59 892.12 412.623 892.516 410.867Z"/>
	<path d="M923.461 534.639C925.874 534.471 929.218 533.765 931.186 535.492C931.857 536.081 931.641 536.324 931.646 537.138C929.528 540.046 926.847 540.08 923.543 540.629C922.285 541.208 920.584 542.147 919.187 542.229C917.787 542.311 917.122 541.831 916.081 541C915.834 539.787 915.763 538.962 916.499 537.87C918.077 535.526 920.897 535.182 923.461 534.639Z"/>
	<path fill="#4A494A" d="M745.994 189.701C746.138 189.685 746.281 189.664 746.425 189.654C792.27 186.334 835.842 203.974 875.798 224.483C897.213 235.474 919.532 248.693 938.129 263.989C952.219 275.577 966.414 289.507 974.824 305.826C977.647 311.304 979.709 317.078 981.82 322.856C984.622 330.525 987.086 337.671 987.887 345.843C977.614 328.328 951.667 289.714 933.051 281.798C932.266 288.076 931.191 294.176 928.651 300.016C914.14 333.375 870.96 349.762 837.957 357.791C812.673 363.941 786.062 366.198 761.819 376.082C758.554 377.413 752.818 379.362 750.642 382.211C750.12 382.894 750.309 382.764 750.418 383.74C751.87 385.009 753.596 385.252 755.461 385.453C761.966 386.154 768.999 385.527 775.568 385.442L825.709 384.33C815.777 392.654 801.255 398.98 788.296 400.089C783.888 400.466 779.433 400.102 775.019 400.06C773.251 400.043 772.132 399.772 770.846 401.04L771.082 402.155C776.287 408.392 797.991 413.551 806.139 414.977C813.637 416.289 821.283 416.911 828.817 418.07C817.477 421.968 804.368 425.916 792.314 425.226C780.86 424.57 768.997 419.843 759.971 412.84C757.171 410.668 754.75 407.928 751.909 405.858C749.696 404.245 746.18 403.757 744.417 401.669C736.855 392.712 730.927 384.464 718.256 382.982C707.911 381.772 697.545 386.174 689.658 392.63C679.809 400.693 671.883 412.624 669.137 425.124C667.971 430.431 667.659 436.077 667.097 441.482C654.78 442.062 643.722 443.16 632.652 448.936C617.708 457.838 610.227 471.899 603.959 487.629C601.936 492.707 600.186 498.022 597.704 502.893L597.428 503.423C596.476 502.021 595.588 500.57 594.678 499.14C596.053 490.01 596.932 480.296 599.604 471.461C606.636 448.214 619.667 429.434 635.671 411.503C642.664 403.667 650.077 396.001 658.622 389.851C681.492 373.391 707.464 358.295 721.946 333.072C728.818 321.103 732.051 309.386 731.851 295.606C731.808 292.614 731.908 289.054 731.045 286.167C730.687 284.97 730.545 284.854 729.518 284.266C728.173 284.96 727.918 285.943 727.617 287.374C725.799 296.013 723.549 304.569 719.52 312.496C707.572 336.006 678.294 362.292 656.686 376.66C633.965 391.766 605.284 403.492 593.518 429.945C585.09 448.895 584.847 476.407 592.351 495.673C572.292 468.804 561.817 433.844 559.25 400.689C555.298 349.651 573.403 299.74 606.614 261.106C640.917 221.202 693.349 193.658 745.994 189.701Z"/>
	<path d="M767.857 217.211C780.852 216.303 794.144 217.288 807.135 218.031C810.16 218.204 814.334 217.888 816.502 220.317C815.859 221.178 814.126 221.255 813.065 221.414C806.365 222.423 799.61 222.443 792.885 223.121C779.971 224.423 766.884 226.596 754.308 229.828C732.47 235.442 714.383 245.449 698.376 261.387L697.753 262.011C676.519 283.437 670.599 315.478 652.71 339.481C632.44 366.68 602.404 384.131 584.905 413.743C578.77 425.463 577.127 437.404 574.587 450.15C573.462 441.558 571.645 433.2 570.895 424.53C567.666 387.18 573.816 353.869 598.806 324.604C621.268 298.299 683.732 245.42 714.665 230.768C731.6 222.746 749.247 218.692 767.857 217.211Z"/>
	<path d="M862.786 271.596C863.882 271.884 864.456 272.119 865.31 272.87C867.707 278.05 866.605 284.982 865.753 290.459C860.96 321.296 834.783 331.413 808.498 340.886C796.589 345.178 784.479 349.349 772.901 354.462C761.386 359.547 751.259 366.782 741.126 374.134C740.648 374.299 739.89 374.386 739.387 374.483L738.722 374.008C738.736 373.817 738.729 373.624 738.763 373.436C739.346 370.252 743.189 366.321 745.287 363.906C761.519 345.218 787.57 333.488 809.795 323.362C820.368 318.544 830.834 314.207 840.357 307.392C852.831 298.464 860.326 286.776 862.786 271.596Z"/>
	<path fill="#9F8BE8" d="M120.706 424.966C158.401 439.171 192.421 439.851 232.002 439.48C232.077 449.761 231.108 460.1 230.321 470.346C229.976 474.825 229.942 479.398 229.437 483.849L229.324 484.805L229.552 484.426C229.303 484.322 228.986 484.313 228.806 484.113C227.934 483.138 223.002 464 222.443 461.723C221.796 459.094 221.591 454.694 220.064 452.499C219.262 451.346 219.055 451.263 217.769 451.091C216.549 451.637 215.979 451.859 215.227 453.027C215.01 459.862 218.783 469.681 220.594 476.449C226.265 497.642 232.497 518.598 238.574 539.671L309.452 782.109Q312.952 794.25 316.931 806.243C303.031 816.263 282.167 822.539 265.413 824.456C262.645 815.435 259.945 806.342 256.721 797.472C248.444 774.698 238.354 752.393 228.663 730.188Q208.666 683.446 186.073 637.902L158.539 583.461C144.167 555.085 129.241 525.719 122.308 494.48Q120.894 488.195 119.951 481.822Q119.009 475.45 118.544 469.024Q118.079 462.599 118.093 456.157Q118.108 449.715 118.603 443.292C119.083 437.154 120.242 431.114 120.706 424.966Z"/>
	<path fill="#9F8BE8" d="M382.947 287.586L383.561 287.501C384.522 288.009 384.368 288.11 384.734 289.125C388.033 298.265 390.269 311.65 392.868 321.476L411.55 393.12C415.872 410.214 419.594 427.564 425.242 444.274C413.585 447.744 401.373 449.984 389.499 452.68Q354.511 460.859 319.272 467.873C301.467 471.495 283.916 476.233 266.076 479.792C263.554 471.244 261.961 462.358 259.514 453.752C255.16 438.442 249.934 423.112 246.476 407.58C250.695 408.06 264.539 411.076 267.315 409.13C270.822 406.673 271.732 398.431 272.621 394.527L284.879 400.01C292.876 403.829 299.943 409.295 308.252 412.526C318.652 416.571 327.848 415.44 337.847 410.969C344.348 408.062 347.711 405.987 350.268 399.223C351.868 398.622 353.564 398.049 355.057 397.212C357.084 396.076 358.796 394.277 359.345 391.961C359.937 389.466 357.772 385.496 356.299 383.461C350.505 375.456 332.097 378.75 323.279 377.155C321.871 376.901 320.649 376.568 319.828 375.358C321.975 373.851 324.75 373.164 327.032 371.815C328.803 370.767 330.825 369.269 331.19 367.09C331.442 365.579 330.794 363.259 329.599 362.247C322.304 356.071 296.483 364.485 288.014 365.648L287.183 365.758C286.545 365.478 285.913 365.178 285.272 364.906C281.47 363.292 279.859 359.594 276.347 358.106C267.271 354.26 257.827 350.989 248.536 347.699C241.72 345.285 234.609 343.121 228.292 339.558C226.614 335.292 225.222 330.875 223.715 326.544C252.033 320.808 279.856 313.119 307.863 306.051C332.853 299.744 358.015 294.094 382.947 287.586Z"/>
	<path fill="#FEFEFE" d="M122.055 200.382C125.243 197.03 137.386 182.642 140.439 181.035C141.501 180.476 142.536 181.163 143.575 181.525L143.831 181.757C143.888 183.366 144.421 183.805 145.549 184.925C151.263 190.598 156.324 195.181 160.531 202.225C163.36 206.963 166.326 214.174 169.792 218.157C167.9 220.691 167.331 222.783 167.096 225.906C171.313 237.355 175.828 250.282 178.12 262.247C177.385 263.262 176.629 264.038 175.724 264.895C175.602 273.963 183.886 314.83 187.236 323.4C189.15 325.267 191.334 327.265 192.705 329.576C207.437 340.408 232.311 348.289 249.917 354.554C258.118 357.473 266.202 360.61 274.48 363.322C274.208 365.691 274.016 368.099 273.65 370.454C273.421 372.453 273.291 374.439 272.308 376.239C271.229 380.287 270.398 384.402 268.845 388.304C268.319 390.154 267.891 392.147 267.118 393.908C265.738 397.074 265.178 400.845 263.997 404.163C250.252 402.632 236.727 400.212 223.116 397.812C205.135 394.642 184.396 392.604 168.389 383.312C163.082 380.232 157.899 376.398 154.1 371.529C139.183 352.416 127.199 304.141 121.32 280.028C119.079 270.837 117.34 261.051 114.264 252.134C113.496 249.911 112.611 247.632 110.531 246.354C109.561 246.417 109.09 246.328 108.504 247.246C107.789 248.368 108.137 249.741 108.365 250.966C109.996 259.735 112.982 268.388 115.063 277.077C119.269 294.636 123.134 312.24 128.673 329.452C131.902 339.486 136.058 348.977 139.807 358.8C141.71 362.043 142.942 365.601 144.779 368.846C152.543 380.494 164.811 390.739 178.661 394.175L183.452 395.783C184.282 408.322 185.402 420.925 185.493 433.489C183.219 433.352 180.927 432.997 178.662 432.736C168.89 431.599 159.525 429.907 149.925 427.758L145.063 426.29C134.115 423.804 123.063 420.419 112.571 416.411C112.025 391.709 111.134 366.777 109.19 342.14L106.65 309.677C104.684 287.12 102.384 263.846 105.809 241.296C107.908 227.477 112.638 215.851 119.835 203.932C120.4 202.64 121.256 201.54 122.055 200.382Z"/>
	<path fill="#FEFEFE" d="M122.055 200.382C125.243 197.03 137.386 182.642 140.439 181.035C141.501 180.476 142.536 181.163 143.575 181.525L143.831 181.757C143.888 183.366 144.421 183.805 145.549 184.925C151.263 190.598 156.324 195.181 160.531 202.225C163.36 206.963 166.326 214.174 169.792 218.157C167.9 220.691 167.331 222.783 167.096 225.906C171.313 237.355 175.828 250.282 178.12 262.247C177.385 263.262 176.629 264.038 175.724 264.895C175.602 273.963 183.886 314.83 187.236 323.4C189.15 325.267 191.334 327.265 192.705 329.576C207.437 340.408 232.311 348.289 249.917 354.554C258.118 357.473 266.202 360.61 274.48 363.322C274.208 365.691 274.016 368.099 273.65 370.454C273.421 372.453 273.291 374.439 272.308 376.239C271.229 380.287 270.398 384.402 268.845 388.304C264.192 387.395 259.497 385.819 254.919 384.553C243.723 381.458 232.642 378.207 221.637 374.48C205.55 369.033 189.346 364.09 177.157 351.591C174.265 348.625 171.822 345.4 170.095 341.624C162.645 325.336 158.663 305.956 154.077 288.6C149.664 271.901 144.825 255.484 139.639 239.008C135.504 225.87 132.034 210.399 122.055 200.382Z"/>
	<path fill="#FEFEFE" d="M192.705 329.576C207.437 340.408 232.311 348.289 249.917 354.554C258.118 357.473 266.202 360.61 274.48 363.322C274.208 365.691 274.016 368.099 273.65 370.454C261.501 366.408 249.695 361.315 237.776 356.652C227.063 352.46 214.955 348.966 205.284 342.735C200.02 339.343 195.583 335.2 192.705 329.576Z"/>
	<path fill="#6C4EEF" d="M187.236 323.4C189.15 325.267 191.334 327.265 192.705 329.576C195.583 335.2 200.02 339.343 205.284 342.735C214.955 348.966 227.063 352.46 237.776 356.652C249.695 361.315 261.501 366.408 273.65 370.454C273.421 372.453 273.291 374.439 272.308 376.239C267.634 373.432 262.012 371.567 256.951 369.535Q243.338 364.048 229.652 358.745C221.023 355.394 212.087 352.326 204.153 347.482C194.787 341.764 189.829 333.914 187.236 323.4Z"/>
	<path fill="#6C4EEF" d="M143.575 181.525L143.831 181.757C143.888 183.366 144.421 183.805 145.549 184.925C151.263 190.598 156.324 195.181 160.531 202.225C163.36 206.963 166.326 214.174 169.792 218.157C167.9 220.691 167.331 222.783 167.096 225.906C162.881 217.204 158.829 207.341 152.838 199.72C150.157 196.31 142.387 189.053 141.668 185.146C142.141 183.618 142.586 182.782 143.575 181.525Z"/>
	<path fill="#FEFEFE" d="M144.779 368.846C152.543 380.494 164.811 390.739 178.661 394.175L183.452 395.783C184.282 408.322 185.402 420.925 185.493 433.489C183.219 433.352 180.927 432.997 178.662 432.736C168.89 431.599 159.525 429.907 149.925 427.758C148.435 416.72 148.268 405.301 147.286 394.186C146.549 385.85 144.833 377.184 144.779 368.846Z"/>
	<path fill="#6C4EEF" d="M178.661 394.175L183.452 395.783C184.282 408.322 185.402 420.925 185.493 433.489C183.219 433.352 180.927 432.997 178.662 432.736C179.168 432.622 179.572 432.366 180.028 432.126C181.296 427.109 179.052 401.125 178.661 394.175Z"/>
	<path fill="#6C4EEF" d="M122.055 200.382C132.034 210.399 135.504 225.87 139.639 239.008C144.825 255.484 149.664 271.901 154.077 288.6C158.663 305.956 162.645 325.336 170.095 341.624C171.822 345.4 174.265 348.625 177.157 351.591C189.346 364.09 205.55 369.033 221.637 374.48C232.642 378.207 243.723 381.458 254.919 384.553C259.497 385.819 264.192 387.395 268.845 388.304C268.319 390.154 267.891 392.147 267.118 393.908C261.372 390.969 253.343 389.59 247.107 387.778C227.599 382.11 205.107 376.547 187.419 366.479C179.965 362.237 173.018 356.6 168.427 349.269C160.697 336.927 156.975 320.529 153.25 306.562C146.357 280.716 140.056 254.558 130.964 229.375C127.936 220.989 124.786 212.087 120.155 204.449L119.835 203.932C120.4 202.64 121.256 201.54 122.055 200.382Z"/>
	<path fill="#6C4EEF" d="M145.063 426.29C144.941 411.414 142.764 396.051 141.236 381.251C140.514 374.253 138.77 365.722 139.807 358.8C141.71 362.043 142.942 365.601 144.779 368.846C144.833 377.184 146.549 385.85 147.286 394.186C148.268 405.301 148.435 416.72 149.925 427.758L145.063 426.29Z"/>
	<path fill="#9F8BE8" d="M131.487 540.3C133.547 542.961 142.796 564.852 145.454 570.271C157.757 595.356 171.079 619.916 183.586 644.892C181.034 651.783 179.401 658.936 177.408 665.997C173.387 680.236 169.487 694.492 164.572 708.455C149.089 752.439 127.577 794.442 105.505 835.442C105.161 836.003 104.795 836.544 104.415 837.08C103.537 838.318 102.458 840.11 100.815 840.357C91.5373 841.746 65.2831 832.457 57.8907 826.926C61.1359 818.42 64.6717 810.037 67.8039 801.477C79.5432 769.393 90.1302 736.782 101.256 704.475Q106.037 690.484 111.231 676.642C113.557 670.537 116.422 664.426 118.045 658.091C120.68 647.809 121.29 636.942 122.739 626.456C125.679 605.165 128.459 583.943 130.1 562.5C130.662 555.16 131.622 547.654 131.487 540.3Z"/>
	<path fill="#9F8BE8" d="M567.273 590.152C572.399 592.631 595.734 604.291 599.428 605.042C603.4 606.824 606.967 609.229 610.608 611.59C622.331 618.458 634.459 625.43 645.116 633.889L656.42 642.305C664.178 648.27 671.941 654.434 679.2 660.997C683.734 665.096 688.003 669.497 692.551 673.575C687.18 677.49 681.474 680.899 676.296 685.075Q674.582 686.466 672.913 687.912Q671.245 689.358 669.625 690.857Q668.004 692.357 666.434 693.908Q664.863 695.459 663.344 697.061Q661.825 698.663 660.359 700.313Q658.892 701.964 657.48 703.661Q656.069 705.358 654.713 707.101Q653.357 708.843 652.059 710.629Q650.761 712.414 649.521 714.241Q648.282 716.068 647.103 717.934Q645.923 719.801 644.806 721.704Q643.688 723.608 642.632 725.547Q641.577 727.486 640.586 729.459Q639.594 731.431 638.667 733.435Q637.741 735.439 636.88 737.471Q636.018 739.504 635.224 741.564C626.54 734.216 617.216 727.337 607.859 720.875Q602.112 717.332 596.293 713.907C588.169 707.139 572.649 700.509 563.081 695.938Q557.246 693.264 551.359 690.708C541.678 686.165 531.209 682.936 521.305 678.825C517.474 677.152 513.774 675.685 510.12 673.608C506.928 671.945 503.914 669.36 500.993 667.234Q507.772 657.594 514.26 647.757C517.974 642.157 521.92 635.06 526.869 630.477C534.612 618.866 547.212 607.751 558.229 599.166C561.212 596.13 564.347 593.242 567.273 590.152Z"/>
	<path fill="#9F8BE8" d="M567.273 590.152C572.399 592.631 595.734 604.291 599.428 605.042C603.4 606.824 606.967 609.229 610.608 611.59C606.705 616.464 602.55 621.174 598.924 626.26C583.958 647.253 571.812 671.726 563.081 695.938Q557.246 693.264 551.359 690.708C541.678 686.165 531.209 682.936 521.305 678.825C517.474 677.152 513.774 675.685 510.12 673.608C506.928 671.945 503.914 669.36 500.993 667.234Q507.772 657.594 514.26 647.757C517.974 642.157 521.92 635.06 526.869 630.477C534.612 618.866 547.212 607.751 558.229 599.166C561.212 596.13 564.347 593.242 567.273 590.152Z"/>
	<path fill="#D4D2F7" d="M551.359 690.708C553.523 684.277 556.52 677.991 559.204 671.756C565.259 657.685 571.734 643.893 580.18 631.071C586.081 622.113 592.932 613.579 599.428 605.042C603.4 606.824 606.967 609.229 610.608 611.59C606.705 616.464 602.55 621.174 598.924 626.26C583.958 647.253 571.812 671.726 563.081 695.938Q557.246 693.264 551.359 690.708Z"/>
	<path fill="#D4D2F7" d="M526.869 630.477C534.612 618.866 547.212 607.751 558.229 599.166C557.358 604.581 546.75 620.355 543.594 626.321C534.699 643.14 527.809 660.964 521.305 678.825C517.474 677.152 513.774 675.685 510.12 673.608C506.928 671.945 503.914 669.36 500.993 667.234Q507.772 657.594 514.26 647.757C517.974 642.157 521.92 635.06 526.869 630.477Z"/>
	<defs>
		<linearGradient id="gradient_0" gradientUnits="userSpaceOnUse" x1="526.82568" y1="649.28265" x2="500.23575" y2="662.41571">
			<stop offset="0" stop-color="#6646E1"/>
			<stop offset="1" stop-color="#815FFB"/>
		</linearGradient>
	</defs>
	<path fill="url(#gradient_0)" d="M500.993 667.234Q507.772 657.594 514.26 647.757C517.974 642.157 521.92 635.06 526.869 630.477C522.015 641.641 511.266 661.8 510.12 673.608C506.928 671.945 503.914 669.36 500.993 667.234Z"/>
	<path fill="#9F8BE8" d="M656.42 642.305C664.178 648.27 671.941 654.434 679.2 660.997C683.734 665.096 688.003 669.497 692.551 673.575C687.18 677.49 681.474 680.899 676.296 685.075Q674.582 686.466 672.913 687.912Q671.245 689.358 669.625 690.857Q668.004 692.357 666.434 693.908Q664.863 695.459 663.344 697.061Q661.825 698.663 660.359 700.313Q658.892 701.964 657.48 703.661Q656.069 705.358 654.713 707.101Q653.357 708.843 652.059 710.629Q650.761 712.414 649.521 714.241Q648.282 716.068 647.103 717.934Q645.923 719.801 644.806 721.704Q643.688 723.608 642.632 725.547Q641.577 727.486 640.586 729.459Q639.594 731.431 638.667 733.435Q637.741 735.439 636.88 737.471Q636.018 739.504 635.224 741.564C626.54 734.216 617.216 727.337 607.859 720.875C621.629 687.389 629.678 668.633 656.42 642.305Z"/>
	<path fill="#D4D2F7" d="M645.116 633.889L656.42 642.305C629.678 668.633 621.629 687.389 607.859 720.875Q602.112 717.332 596.293 713.907C599.953 708.579 603.375 696.638 606.191 690.173C615.302 669.258 629.065 649.953 645.116 633.889Z"/>
	<path fill="#9F8BE8" d="M692.551 673.575C696.046 676.765 699.256 680.241 702.741 683.433Q717.994 699.831 732.026 717.285Q735.918 721.936 739.415 726.89C747.541 737.561 754.574 749.589 761.321 761.171C763.732 764.579 766.067 768.117 767.678 771.985C739.863 786.325 724.209 799.051 706.858 825.518L698.164 813.556C696.575 811.202 694.278 809.047 692.517 806.756C687.938 800.798 683.683 794.154 678.493 788.725C675.366 785.627 672.657 781.723 670.224 778.058C662.756 768.429 653.676 759.763 645.259 750.961C642.147 747.638 638.581 744.642 635.224 741.564Q636.018 739.504 636.88 737.471Q637.741 735.439 638.667 733.435Q639.594 731.431 640.586 729.459Q641.577 727.486 642.632 725.547Q643.688 723.608 644.806 721.704Q645.923 719.801 647.103 717.934Q648.282 716.068 649.521 714.241Q650.761 712.414 652.059 710.629Q653.357 708.843 654.713 707.101Q656.069 705.358 657.48 703.661Q658.892 701.964 660.359 700.313Q661.825 698.663 663.344 697.061Q664.863 695.459 666.434 693.908Q668.004 692.357 669.625 690.857Q671.245 689.358 672.913 687.912Q674.582 686.466 676.296 685.075C681.474 680.899 687.18 677.49 692.551 673.575Z"/>
	<path fill="#9F8BE8" d="M739.415 726.89C747.541 737.561 754.574 749.589 761.321 761.171C763.732 764.579 766.067 768.117 767.678 771.985C739.863 786.325 724.209 799.051 706.858 825.518L698.164 813.556C696.575 811.202 694.278 809.047 692.517 806.756C687.938 800.798 683.683 794.154 678.493 788.725C693.066 758.557 711.372 743.36 739.415 726.89Z"/>
	<path fill="#D4D2F7" d="M698.164 813.556C713.914 794.076 725.241 781.302 747.091 768.242C751.523 765.593 756.343 762.559 761.321 761.171C763.732 764.579 766.067 768.117 767.678 771.985C739.863 786.325 724.209 799.051 706.858 825.518L698.164 813.556Z"/>
	<path fill="#D4D2F7" d="M692.551 673.575C696.046 676.765 699.256 680.241 702.741 683.433C677.889 694.729 656.11 721.321 646.606 746.777Q645.854 748.844 645.259 750.961C642.147 747.638 638.581 744.642 635.224 741.564Q636.018 739.504 636.88 737.471Q637.741 735.439 638.667 733.435Q639.594 731.431 640.586 729.459Q641.577 727.486 642.632 725.547Q643.688 723.608 644.806 721.704Q645.923 719.801 647.103 717.934Q648.282 716.068 649.521 714.241Q650.761 712.414 652.059 710.629Q653.357 708.843 654.713 707.101Q656.069 705.358 657.48 703.661Q658.892 701.964 660.359 700.313Q661.825 698.663 663.344 697.061Q664.863 695.459 666.434 693.908Q668.004 692.357 669.625 690.857Q671.245 689.358 672.913 687.912Q674.582 686.466 676.296 685.075C681.474 680.899 687.18 677.49 692.551 673.575Z"/>
	<path fill="#D4D2F7" d="M732.026 717.285Q735.918 721.936 739.415 726.89C711.372 743.36 693.066 758.557 678.493 788.725C675.366 785.627 672.657 781.723 670.224 778.058Q670.705 776.916 671.217 775.787C681.215 753.594 708.688 726.157 732.026 717.285Z"/>
	<path fill="#9F8BE8" d="M427.755 241.363C430.022 244.521 433.643 260.453 434.927 264.907L458.468 349.283C462.593 364.188 466.39 379.159 471.08 393.902C457.493 408.391 444.71 423.915 432.041 439.216C431.372 439.759 431.046 439.88 430.249 440.137C429.231 439.173 429.146 438.339 428.771 437.005C425.01 423.634 422.023 409.989 418.623 396.521L403.836 339.284C399.284 321.125 393.577 302.873 390.135 284.492C396.37 278.14 402.018 270.911 407.827 264.154C414.406 256.503 421.246 249.068 427.755 241.363Z"/>
	<path fill="#9F8BE8" d="M767.678 771.985C773.458 783.626 779.001 795.255 782.353 807.874C783.516 812.054 784.396 816.233 785.206 820.495C788.633 836.345 787.575 851.011 785.296 866.861Q783.147 876.258 779.771 885.287C779.76 885.315 779.76 885.347 779.755 885.376C778.791 892.982 773.441 912.432 770.816 920.247C768.758 916.918 766.623 913.616 764.641 910.241L756.739 897.631C750.33 887.933 743.566 878.42 737.401 868.57L729.697 857.622C721.811 847.161 714.595 836.113 706.858 825.518C724.209 799.051 739.863 786.325 767.678 771.985Z"/>
	<path fill="#9F8BE8" d="M785.206 820.495C788.633 836.345 787.575 851.011 785.296 866.861Q783.147 876.258 779.771 885.287C779.76 885.315 779.76 885.347 779.755 885.376C778.791 892.982 773.441 912.432 770.816 920.247C768.758 916.918 766.623 913.616 764.641 910.241L756.739 897.631C750.33 887.933 743.566 878.42 737.401 868.57C740.006 866.293 742.121 862.22 744.119 859.345C747.044 855.136 750.065 850.963 753.516 847.165C763.725 835.93 774.083 829.977 785.206 820.495Z"/>
	<path fill="#D4D2F7" d="M756.739 897.631C760.704 889.23 773.368 874.756 780.572 869.082C782.013 867.947 783.433 866.647 785.296 866.861Q783.147 876.258 779.771 885.287C779.76 885.315 779.76 885.347 779.755 885.376C778.791 892.982 773.441 912.432 770.816 920.247C768.758 916.918 766.623 913.616 764.641 910.241L756.739 897.631Z"/>
	<path fill="#9F8BE8" d="M764.641 910.241C767.619 907.26 769.451 900.99 771.565 897.159C773.908 892.913 776.649 889.091 779.755 885.376C778.791 892.982 773.441 912.432 770.816 920.247C768.758 916.918 766.623 913.616 764.641 910.241Z"/>
	<path fill="#D4D2F7" d="M782.353 807.874C783.516 812.054 784.396 816.233 785.206 820.495C774.083 829.977 763.725 835.93 753.516 847.165C750.065 850.963 747.044 855.136 744.119 859.345C742.121 862.22 740.006 866.293 737.401 868.57L729.697 857.622C738.998 838.993 763.956 818.008 782.353 807.874Z"/>
	<path fill="#FEFEFE" d="M143.831 181.757C156.558 187.418 166.28 195.447 175.814 205.497C178.712 208.551 181.402 212.359 184.722 214.919C186.998 216.675 188.617 217.269 191.524 216.964L193.903 214.068C194.718 213.167 195.443 212.599 196.481 211.968C199.157 207.557 197.421 202.639 199.108 199.705C202.992 200.908 203.39 204.23 208.296 204.786C209.972 206.791 209.703 213.571 210.29 216.467C213.429 231.947 217.708 247.26 220.976 262.745C224.087 277.485 226.317 293.137 230.031 307.633C225.866 311.818 221.819 316.04 217.924 320.479C216.919 321.694 215.967 322.954 214.746 323.962C218.69 325.899 220.114 333.546 221.58 337.553C213.403 335.482 205.459 331.101 197.884 327.453C195.602 318.336 194.697 308.803 192.816 299.581Q186.484 268.267 177.141 237.717C175.189 231.436 173.378 223.699 169.792 218.157C166.326 214.174 163.36 206.963 160.531 202.225C156.324 195.181 151.263 190.598 145.549 184.925C144.421 183.805 143.888 183.366 143.831 181.757Z"/>
	<path fill="#FEFEFE" d="M193.903 214.068C194.718 213.167 195.443 212.599 196.481 211.968C199.157 207.557 197.421 202.639 199.108 199.705C202.992 200.908 203.39 204.23 208.296 204.786C209.972 206.791 209.703 213.571 210.29 216.467C213.429 231.947 217.708 247.26 220.976 262.745C224.087 277.485 226.317 293.137 230.031 307.633C225.866 311.818 221.819 316.04 217.924 320.479C214.49 308.115 213.64 294.433 211.724 281.73C209.916 269.738 202.533 222.024 193.903 214.068Z"/>
	<path fill="#6C4EEF" d="M193.903 214.068C202.533 222.024 209.916 269.738 211.724 281.73C213.64 294.433 214.49 308.115 217.924 320.479C216.919 321.694 215.967 322.954 214.746 323.962C213.099 322.645 212.532 318.453 212.084 316.387C210.646 309.755 209.874 302.93 208.803 296.227C206.249 280.254 203.856 264.088 200.478 248.267C198.337 238.236 195.391 226.472 191.524 216.964L193.903 214.068Z"/>
	<path fill="#4A494A" d="M568.024 487.532C569.63 489.453 570.871 491.771 572.186 493.902C561.998 501.915 544.974 511.164 533.096 517.139C519.507 523.973 506.402 528.558 495.968 540.272C489.729 547.275 487.078 556.276 484.763 565.177C478.213 590.351 473.893 609.083 452.444 626.124C451.411 626.835 450.782 627.62 449.5 627.508C449.11 626.357 449.092 626.808 449.313 625.71C450.333 620.628 454.415 615.239 456.822 610.629C460.365 603.846 463.737 596.982 466.147 589.703C470.058 577.894 472.438 565.426 477.1 553.902C490.167 521.603 509.354 516.942 538.721 503.762C548.742 499.265 558.792 493.486 568.024 487.532Z"/>
	<path fill="#FEFEFE" d="M183.452 395.783C193.271 397.96 203.082 400.294 212.991 402.023L216.931 402.628C224.854 404.435 232.993 405.114 240.867 407.05C242.486 415.458 241.995 423.903 243.483 432.198C235.423 433.299 227.466 433.571 219.345 433.717C216.033 433.819 212.638 434.072 209.331 433.898C201.384 434.071 193.436 433.741 185.493 433.489C185.402 420.925 184.282 408.322 183.452 395.783Z"/>
	<path fill="#FEFEFE" d="M216.931 402.628C224.854 404.435 232.993 405.114 240.867 407.05C242.486 415.458 241.995 423.903 243.483 432.198C235.423 433.299 227.466 433.571 219.345 433.717C218.796 423.322 217.818 412.996 216.931 402.628Z"/>
	<path fill="#6C4EEF" d="M212.991 402.023L216.931 402.628C217.818 412.996 218.796 423.322 219.345 433.717C216.033 433.819 212.638 434.072 209.331 433.898C211.063 433.788 212.647 433.58 214.342 433.202C215.148 423.933 213.114 411.775 212.991 402.023Z"/>
	<path fill="#4A494A" d="M574.951 497.871C576.599 498.425 578.038 501.782 578.899 503.263C572.159 512.942 563.894 521.264 557.741 531.428C546.26 550.389 538.854 571.971 524.191 588.919C510.061 605.25 477.807 629.518 456.164 631.147C454.687 630.993 453.571 631.112 452.362 630.22C453.026 629.186 464.841 622.751 467.099 621.151C483.503 609.526 500.177 597.58 514.118 583.004C527.978 568.513 533.42 553.923 542.695 536.835C550.666 522.15 561.814 508.196 574.951 497.871Z"/>
	<path fill="#4A494A" d="M53.7362 847.859C54.7211 849 55.7223 850.144 56.8322 851.166C66.2896 859.878 81.226 866.137 94.1612 865.569C101.908 883.249 113.191 893.502 128.608 904.203C123.933 904.72 119.499 904.747 114.82 904.262C99.849 901.858 88.9019 893.331 76.3277 885.676Q66.9944 880.104 57.2236 875.341C51.5997 872.552 45.8428 869.859 39.608 868.825C43.9453 861.46 48.3529 854.516 53.7362 847.859Z"/>
	<path fill="#FEFEFE" d="M312.537 366.161C317.001 365.701 321.336 365.882 325.78 366.434C321.502 369.281 309.258 371.836 307.421 374.779C307.46 375.749 307.387 375.986 307.884 376.881C311.871 384.052 336.269 382.831 344.07 383.571C346.618 383.813 349.038 384.474 351.489 385.18C347.071 385.538 342.785 386.643 338.387 387.102C333.369 387.624 328.124 387.288 323.174 388.098C321.695 388.34 319.87 388.803 318.677 389.75C317.804 390.443 317.802 390.636 317.689 391.671C323.051 397.168 345.404 390.491 352.548 391.107L352.775 392.022C352.582 392.282 352.433 392.582 352.195 392.803C349.069 395.711 333.253 397.042 328.38 397.706C326.058 397.972 323.543 398.109 321.283 398.691C319.45 399.162 317.721 400.053 316.723 401.696C316.83 402.516 316.647 402.531 317.194 402.973C320.617 405.743 338.218 402.342 343.336 401.977C341.098 403.351 338.87 404.54 336.428 405.52C316.192 413.638 306.529 404.846 289.424 395.705C284.716 393.188 279.667 391.468 274.758 389.397C276.095 382.601 277.946 375.939 279.833 369.28C290.216 374.01 301.796 367.897 312.537 366.161Z"/>
	<path fill="#4A494A" d="M333.007 833.962C339.634 838.582 367.372 840.341 376.15 840.817C373.514 844.203 372.041 848.612 370.563 852.597C363.776 854.628 356.419 855.202 349.413 856.208Q336.876 858.073 324.373 860.157C312.961 862.245 301.529 864.328 289.997 865.634C288.978 858.965 288.824 851.883 288.183 845.139C292.536 844.843 297.713 847.316 302.166 847.765C314.282 848.989 324.382 841.221 333.007 833.962Z"/>
	<path fill="#FEFEFE" d="M338.897 248.307C342.524 250.612 366.314 279.075 371.269 284.688Q362.356 286.237 353.597 288.498L343.293 290.841C337.126 282.974 328.219 274.672 322.986 266.92Q330.83 257.518 338.897 248.307Z"/>
	<path fill="#FEFEFE" d="M149.287 156.264C150.834 157.426 151.753 157.712 153.678 157.94C155.995 158.215 176.23 180.288 179.702 183.43C184.477 187.75 189.674 191.189 194.68 195.166C193.835 198.3 192.066 208.972 189.264 210.646L188.168 209.985C171.551 193.371 162.777 182.783 139.831 174.487C143.111 168.462 145.66 162.109 149.287 156.264Z"/>
	<path fill="#9F8BE8" d="M319.19 262.571L319.891 262.823C319.706 263.357 281.134 303.564 277.559 306.198L276.723 305.922L275.971 303.803C273.759 293.707 272.594 283.075 270.864 272.852Q295.147 268.275 319.19 262.571Z"/>
	<path fill="#9F8BE8" d="M387.026 248.148C387.691 248.033 388.351 248.047 389.025 248.032C389.771 249.456 386.358 275.959 385.967 279.932C382.968 281.106 379.818 282.027 376.762 283.052Q372.25 277.936 367.869 272.708C362.81 267.296 358.06 261.465 353.291 255.79C364.527 253.161 375.698 250.374 387.026 248.148Z"/>
	<path fill="#FEFEFE" d="M310.499 816.473C313.44 819.162 315.007 824.699 317.767 827.956C320.499 831.178 324.303 832.203 328.327 832.619C322.164 838.119 313.96 842.56 305.624 842.979C300.615 843.567 295.922 842.249 291.502 839.977C289.801 835.333 288.868 830.492 286.743 825.991C295.757 822.612 301.65 820.732 310.499 816.473Z"/>
	<path fill="#FEFEFE" d="M319.362 271.82C326.413 277.093 331.405 285.599 337.625 291.893C326.37 295.396 314.623 298.078 303.119 300.635C297.897 301.562 292.69 302.905 287.512 304.065C298.724 294.175 308.932 282.549 319.362 271.82Z"/>
	<path fill="#FEFEFE" d="M38.9435 873.456C53.2654 877.724 66.3241 885.345 78.8725 893.307C86.1892 897.949 93.3133 902.913 101.415 906.125C107.407 908.501 114.374 909.768 120.82 909.624C123.222 909.571 129.218 907.53 130.871 908.222C130.527 909.656 129.424 910.503 128.412 911.502C126.796 912.542 125.14 913.119 123.264 913.536C118.888 914.508 114.422 914.399 109.994 913.88C90.499 911.594 77.7634 898.444 61.4954 889.176C54.1632 884.998 44.0846 881.89 37.6268 877.752C37.4591 876.217 38.3277 874.822 38.9435 873.456Z"/>
	<path fill="#FEFEFE" d="M61.2546 834.394C71.5866 839.257 79.3069 840.759 89.3716 844.521C88.8893 849.918 88.3649 853.761 90.9149 858.672L91.3697 859.539C90.4642 860.576 90.0881 860.469 88.8021 860.823C77.2537 858.66 64.2474 854.34 56.6923 844.688C57.9947 841.718 61.628 837.616 61.2546 834.394Z"/>
	<path fill="#9F8BE8" d="M598.163 544.335C598.847 545.104 599.069 545.815 599.285 546.802C603.707 567.069 591.961 574.944 582.004 590.041L575.619 588.056L571.405 586.946C584.384 571.761 589.553 562.599 598.163 544.335Z"/>
	<path fill="#FEFEFE" d="M367.719 859.188L367.885 859.197L368.276 859.68L366.533 864.201C350.607 866.376 334.637 869.131 318.756 871.664C310.968 872.907 301.671 875.714 293.879 874.868C292.875 873.51 292.026 872.424 291.606 870.771C292.323 869.88 293.095 869.978 294.203 869.769C302.223 868.255 310.58 867.674 318.672 866.473C335.023 864.046 351.327 861.332 367.719 859.188Z"/>
	<path fill="#9F8BE8" d="M574.232 479.923L575.643 480.085C582.807 486.711 595.764 510.994 600.192 520.712C600.949 522.372 601.15 523.186 600.94 525.04C600.823 526.078 600.697 526.92 600.832 527.962C601.041 529.575 601.232 530.866 600.322 532.274L599.091 532.321C594.129 521.314 587.927 510.328 581.769 499.945C578.527 494.48 572.349 488.526 570.753 482.399C571.522 481.105 572.942 480.593 574.232 479.923Z"/>
	<path fill="#FEFEFE" d="M228.17 269.582C233.153 271.1 246.549 280.847 252.003 284.186C249.237 287.28 246.249 290.164 243.299 293.08L235.04 301.955C231.708 291.394 230.918 280.276 228.17 269.582Z"/>
	<path fill="#FEFEFE" d="M202.722 171.87C204.882 174.522 206.358 192.932 206.028 196.647L205.523 197.037L204.26 195.543C202.26 193.186 200.133 191.188 197.592 189.423C198.889 183.299 200.065 177.587 202.722 171.87Z"/>
	<path fill="#D4D2F7" d="M177.385 263.359L178.383 263.844C182.593 270.211 189.104 310.308 190.881 320.603C184.78 313.03 182.484 275.352 177.385 263.359Z"/>
</svg>
