<?xml version="1.0" encoding="utf-8" ?>
<svg xmlns="http://www.w3.org/2000/svg" xmlns:xlink="http://www.w3.org/1999/xlink" width="1024" height="1024">
	<path fill="#9F8BE8" d="M0 0L1024 0L1024 1024L0 1024L0 0Z"/>
	<path d="M825.94 9.68496C827.175 9.71595 827.962 9.9144 829.103 10.3853C830.177 11.8337 830.239 12.5964 830.381 14.4132C830.793 19.6776 830.472 25.2083 830.467 30.5023L830.413 61.3433L830.163 159.259L829.995 425.388C829.933 469.978 828.577 514.78 829.741 559.347C836.821 563.563 843.487 568.009 850.36 572.52C855.052 575.599 860.155 578.028 864.122 582.089C869.185 587.272 871.554 594.004 871.422 601.192C871.189 613.885 864.789 623.667 855.971 632.261Q859.69 638.916 863.153 645.707Q866.617 652.498 869.82 659.415Q873.023 666.333 875.961 673.368Q878.898 680.402 881.567 687.543Q884.235 694.684 886.631 701.921Q889.026 709.158 891.144 716.481Q893.263 723.804 895.102 731.202Q896.941 738.6 898.497 746.063C900.201 754.369 901.187 762.8 902.566 771.164C908.441 773.414 914.119 776.462 919.837 779.097L960.461 797.934L999.433 815.734C1004.21 817.953 1010.49 820.12 1014.73 823.143C1015.72 823.852 1016.31 824.656 1016.47 825.865C1015.81 826.889 1015.56 827.116 1014.31 827.477C1012.69 827.944 1010.39 827.337 1008.87 826.79C1004.88 825.355 1000.98 823.095 997.137 821.274Q988.551 817.279 979.898 813.433Q941.409 796.317 903.471 778.012C904.587 790.872 904.997 803.697 903.018 816.509C898.399 846.398 885.537 860.151 862.321 877.166C875.21 881.042 888.669 882.785 901.756 885.936C910.713 888.093 919.374 891.472 928.254 893.975C936.588 896.325 946.533 897.978 953.699 902.946C957.099 905.303 960.345 908.684 960.96 912.955C962.012 920.258 944.702 941.025 939.768 947.315C933.933 954.753 920.052 974.348 912.646 978.485C910.656 979.597 907.666 980.005 905.393 980.261C896.841 981.223 858.445 980.986 853.165 975.536C851.969 974.301 851.134 971.398 851.342 969.683C851.992 964.332 868.57 963.246 874.608 957.721C881.137 951.747 882.451 940.6 883.014 932.328C871.886 932.465 859.882 936.536 849.044 938.956C826.348 944.024 803.26 949.714 780.22 952.865C782.927 957.861 785.954 963.164 786.536 968.933C786.817 971.718 786.399 975.162 784.469 977.345C775.408 987.59 733.892 988.918 720.44 989.337C708.279 989.716 672.738 990.527 664.325 982.037C663.253 980.955 662.58 979.638 662.824 978.064C663.295 975.012 666.523 972.507 668.918 970.951C678.074 965 694.666 960.117 705.289 955.008C711.464 952.038 717.731 948.386 722.853 943.802L723.34 943.356C720.031 935.579 713.399 928.597 708.838 921.413Q682.46 880.051 654.777 839.551L635.973 811.629C631.413 804.823 626.591 798.039 622.777 790.777C619.918 785.332 618.328 780.218 617.238 774.179C604.924 773.546 592.434 773.807 580.1 773.745L504.564 773.751L298.658 773.908C294.137 802.077 290.318 830.419 286.188 858.652C284.122 872.773 282.803 887.41 279.292 901.25C282.429 908.412 287.507 913.13 293.987 917.266C299.549 920.815 305.764 924.686 312.254 926.248C324.865 929.284 338.032 924.967 348.352 935.278C350.805 937.728 353.426 941.096 353.274 944.762C353.176 947.116 351.919 949.097 350.158 950.593C340.265 958.996 276.991 971.773 262.743 973.673C255.411 974.651 247.922 975.141 240.529 974.71C235.07 974.392 225.288 973.732 221.591 969.228C219.002 966.074 220.071 960.524 220.294 956.718C212.709 956.279 204.168 955.717 197.182 952.462C194.676 951.294 191.668 949.415 190.805 946.632C188.607 939.543 193.363 899.681 196.86 893.243C194.193 876.8 193.772 859.792 192.403 843.182C190.504 820.129 187.797 796.638 187.471 773.508C168.478 773.045 149.4 773.359 130.399 773.38L34.25 773.447C27.9926 773.36 17.502 774.804 11.7605 772.866C10.4734 772.432 10.0384 772.129 9.47506 770.914C9.69152 770.227 9.87145 769.73 10.3979 769.215C11.5038 768.133 12.3737 767.849 13.893 767.715C19.4034 767.229 25.3385 767.787 30.8975 767.801L68.6302 767.848L187.003 767.561C186.093 745.278 184.626 723.028 183.833 700.736L182.681 673.235C182.501 668.307 182.808 663.081 182.031 658.215C181.414 658.46 180.782 658.689 180.171 658.948C178.83 659.514 177.977 659.827 176.499 659.427C172.195 658.261 160.278 642.024 157.404 637.764C157.706 623.592 159.575 609.307 160.651 595.163L169.273 494.086L175.954 425.125C177.661 405.71 178.603 385.803 181.854 366.586C180.42 366.346 178.887 366.126 177.649 365.303C174.112 362.951 159.509 324.85 159.094 318.846C158.974 317.115 159.483 316.311 160.639 315.102C161.655 314.81 163.652 314.449 164.228 313.475C166.017 310.446 167.121 305.47 168.398 302.084C172.911 290.117 177.466 276.983 184.621 266.324C189.13 259.606 193.903 256.783 201.708 255.206C201.569 247.406 201.801 239.606 201.95 231.807C197.142 225.337 192.825 219.034 192.111 210.751C191.26 200.887 195.907 194.149 201.816 186.965C201.317 176.565 201.583 166.076 201.581 155.661L201.628 100.767L201.668 47.035C201.654 37.0728 201.294 27.0008 201.681 17.0567C201.739 15.5789 201.735 14.4298 202.591 13.1335C206.038 12.0656 214.159 13.6288 218.224 13.6643L296.572 13.8475L516.439 13.611L571.961 13.7533C580.933 13.7967 591.585 12.7909 600.304 14.6606C601.237 16.5288 601.189 19.2129 601.231 21.2784C601.747 46.7272 601.131 72.3399 601.161 97.8081L601.062 282.753L600.923 768.225C606.368 768.419 611.883 768.267 617.334 768.27C618.203 762.578 619.567 757.207 622.55 752.22C629.316 740.911 641.895 736.407 654.074 733.433C648.712 724.247 646.136 713.247 644.807 702.778C640.905 672.049 650.706 632.018 659.551 602.527C660.969 597.801 662.657 588.776 666.115 585.3C667.593 583.813 670.311 584.279 672.179 584.368C675.88 573.137 674.013 566.446 669.825 555.952C668.599 552.881 667.568 550.021 667.584 546.651C667.632 536.785 677.244 520.902 683.942 514.092C685.157 513.772 685.992 513.676 686.945 512.804C687.419 509.628 685.5 505.786 685.144 502.535C684.922 500.512 685.148 498.776 686.554 497.211C688.959 494.533 693.786 494.631 697.066 494.694C699.151 492.037 701.032 489.326 702.866 486.49C702.271 483.935 701.713 481.362 701.556 478.735Q701.516 478.016 701.512 477.297Q701.507 476.577 701.539 475.858Q701.57 475.139 701.638 474.422Q701.705 473.706 701.807 472.993Q701.91 472.281 702.048 471.575Q702.186 470.868 702.359 470.17Q702.532 469.471 702.739 468.782Q702.947 468.093 703.188 467.415Q703.429 466.737 703.704 466.071Q703.979 465.406 704.286 464.756Q704.594 464.105 704.933 463.47Q705.273 462.836 705.643 462.219Q706.014 461.602 706.415 461.004Q706.816 460.406 707.246 459.829Q707.676 459.252 708.134 458.697Q708.592 458.142 709.077 457.61C716.402 449.474 727.947 444.594 738.8 444.161C752.377 443.618 762.822 448.52 772.576 457.616C784.568 459.888 795.614 464.29 804.165 473.272C813.767 483.357 817.545 495.774 817.172 509.518C816.624 529.664 809.013 538.356 795.131 551.585C805.144 552.021 814.426 552.329 823.586 556.822C824.398 521.013 823.549 485.08 823.699 449.256L824.28 152.687L824.375 59.8643C824.382 44.5318 823.671 28.8049 824.494 13.5081C824.583 11.853 824.979 11.0204 825.94 9.68496Z"/>
	<path fill="#9F8BE8" d="M245.416 56.9916L557.519 56.9782L557.659 768.214L299.742 768.027C301.249 755.82 303.304 743.661 305.226 731.512L361.051 731.508C369.434 731.503 379.056 732.442 387.254 731.151C388.671 730.928 389.092 730.855 389.842 729.586C390.75 728.048 390.884 725.404 390.959 723.634C391.241 716.97 390.974 710.21 390.988 703.533L391.03 660.243L391.047 620.828C391.048 613.772 391.312 606.604 390.97 599.563C390.845 597.001 390.55 594.574 389.605 592.171C385.526 590.542 348.684 591.563 342.186 591.562C341.002 583.213 339.341 574.966 337.634 566.711C345.824 566.543 385.865 567.608 389.766 565.583C390.725 563.381 390.955 560.928 391.057 558.544C391.418 550.13 390.992 541.554 391.035 533.121C391.112 518.452 392.3 433.925 390.211 428.329C384.951 425.786 355.011 426.789 347.729 427.063L358.012 399.717C363.673 399.814 385.857 401.507 389.015 398.189C390.071 397.08 390.59 395.81 390.823 394.319C391.755 388.363 390.587 370.471 390.501 363.525C392.631 361.95 394.875 360.271 396.584 358.233C398.823 355.565 400.283 352.289 399.919 348.753C399.385 343.566 395.7 340.219 391.872 337.179C391.661 333.126 391.767 329.196 392.02 325.147C393.673 324.512 395.592 323.981 397.105 323.051C399.292 321.706 400.118 319.64 400.712 317.261C401.728 316.834 402.749 316.405 403.731 315.903C408.285 313.575 409.807 309.926 411.351 305.355C410.172 301.505 408.178 298.332 406.662 294.67C405.711 292.371 405.035 289.714 403.91 287.518C403.125 285.986 400.392 285.618 399.038 284.492C397.442 283.165 396.809 280.053 394.983 279.048C393.731 278.36 392.233 278.037 390.856 277.688C391.033 273.87 392.132 268.781 390.619 265.196C385.361 261.023 363.679 263.703 355.608 262.478C355.396 262.445 355.184 262.407 354.973 262.372C347.029 247.903 348.895 255.784 337.692 250.773C337.477 250.677 337.266 250.573 337.053 250.474C334.695 251.538 332.38 252.785 330.061 253.938L329.578 253.742L328.771 253.427C326.939 252.692 325.023 251.817 323.042 252.629C321.069 253.437 319.999 255.503 319.048 257.269C316.129 258.013 313.448 258.864 310.685 260.066C309.548 261.727 308.321 263.061 306.915 264.479C303.943 267.476 302.959 269.17 302.983 273.468L302.374 273.468C302.332 273.225 302.298 272.981 302.247 272.74C301.879 271.02 301.448 269.936 299.977 268.945C297.971 269.053 296.36 270.439 294.738 271.517C293.011 271.5 291.156 271.384 289.443 271.615C286.929 271.953 285.431 273.766 283.927 275.607C281.433 270.181 276.38 265.032 274.854 259.437C277.153 257.093 283.549 259.038 286.714 258.301C295.276 256.305 302.582 244.223 306.624 237.225L360.639 237.082C369.131 237.069 379.406 238.152 387.701 236.501C388.774 236.287 389.796 236.238 390.305 235.134C391.025 233.572 390.933 115.106 390.62 104.831C390.542 102.262 390.385 99.7377 389.778 97.2309C388.196 96.5392 386.648 96.4016 384.929 96.3469C369.715 95.8631 354.326 96.4529 339.086 96.4117C324.162 96.3714 309.032 95.6839 294.133 96.2845C291.549 96.3886 289.155 96.7687 286.69 97.5774C284.948 100.476 285.988 134.254 286.004 139.688C272.445 138.25 259.093 136.455 245.517 138.726L245.416 56.9916Z"/>
	<path d="M417.014 96.5673C446.932 95.8213 477.019 96.2362 506.949 96.2826C509.534 96.2866 515.342 95.7274 517.185 97.5771C518.351 102.111 517.475 108.84 517.471 113.615L517.453 149.169L517.446 207.357C517.448 215.788 517.98 224.516 517.584 232.91C517.497 234.742 516.92 235.277 515.566 236.447C510.443 237.477 504.653 237.025 499.432 237.031L472.285 236.982C456.368 236.937 440.064 237.707 424.205 236.867C421.793 236.74 418.544 236.585 416.444 235.361C415.814 233.68 415.559 232.137 415.463 230.348C414.999 221.734 415.509 212.853 415.559 204.217L415.555 159.437L415.483 119.514C415.473 112.982 414.996 106.04 415.597 99.5507C415.725 98.1692 416.127 97.5434 417.014 96.5673Z"/>
	<path fill="#9F8BE8" d="M421.334 101.996L511.772 101.912L511.708 231.401C501.157 231.832 490.453 231.486 479.883 231.483L421.401 231.489C421.086 213.166 421.336 194.81 421.341 176.483L421.334 101.996Z"/>
	<path d="M417.319 591.461C437.928 590.724 458.849 591.44 479.481 591.437C488.254 591.436 508.001 590.444 515.77 591.955C516.076 592.465 516.155 592.543 516.36 593.196C518.167 598.975 517.039 613.877 517.024 620.71L516.997 662.983L517.034 703.308C517.039 710.764 517.346 718.348 516.882 725.784C516.749 727.908 516.32 729.307 515.276 731.161C508.985 732.458 489.936 731.516 482.274 731.512L443.402 731.477C434.93 731.465 426.238 731.9 417.835 730.792C417.06 730.082 416.519 729.429 416.231 728.391C415.091 724.281 415.961 685.578 415.962 678.737L415.973 624.032C415.976 614.836 415.571 605.43 416.038 596.255C416.132 594.413 416.465 593.096 417.319 591.461Z"/>
	<path fill="#9F8BE8" d="M421.661 596.859L511.511 596.981L511.427 725.545L421.674 725.698C421.302 710.726 421.581 695.688 421.58 680.706L421.661 596.859Z"/>
	<path d="M420.999 427.236C440.11 426.413 459.404 426.831 478.538 426.814C490.569 426.803 503.225 425.956 515.169 427.184C516.098 427.952 516.417 428.223 516.81 429.41C518.048 433.146 517.102 461.981 517.101 468.111C517.098 498.574 517.714 529.172 517.041 559.62C517.001 561.432 517.12 563.463 516.291 565.108C514.978 566.151 513.584 566.146 511.983 566.312L446.031 566.34C439.395 566.353 425.055 567.23 419.294 566.204C418.291 566.025 416.879 565.468 416.382 564.523C415.629 563.091 415.697 561.175 415.662 559.585C415.116 535.188 415.861 510.63 415.946 486.218C416.006 468.885 415.255 451.391 415.775 434.09C415.817 432.693 415.867 430.914 416.513 429.65C417.39 427.933 419.298 427.547 420.999 427.236Z"/>
	<path fill="#9F8BE8" d="M421.443 432.518Q466.469 432.171 511.495 432.538L511.594 560.786L421.532 560.815L421.443 432.518Z"/>
	<path d="M418.567 263.149C438.392 262.255 458.432 262.932 478.279 262.976C488.582 262.999 503.602 262.136 513.429 263.286C514.41 263.4 515.662 263.396 516.243 264.273C516.912 265.282 517.083 266.299 517.124 267.482C517.403 275.477 517.051 283.658 517.063 291.676L517.071 349.069L517.049 380.202C517.054 386.119 517.473 392.279 516.772 398.146C516.066 399.304 514.97 399.516 513.76 399.936Q513.126 399.957 512.492 399.97C494.182 400.269 475.812 399.87 457.496 399.856C445.895 399.848 433.977 400.519 422.429 399.736C420.618 399.614 418.092 399.62 416.749 398.322C415.825 396.224 415.504 394.218 415.415 391.937C414.873 378.003 415.55 363.805 415.562 349.839C415.57 339.538 414.497 269.199 415.76 265.759C416.285 264.328 417.323 263.854 418.567 263.149Z"/>
	<path fill="#9F8BE8" d="M420.844 268.569C451.069 268.155 481.342 268.537 511.571 268.562L511.486 394.44L421.209 394.511C420.938 383.386 421.304 372.202 421.242 361.068L420.844 268.569Z"/>
	<path fill="#FEFEFE" d="M269.503 301.358C273.631 301.895 286.708 309.916 288.706 313.225C291.414 317.712 292.511 324.237 294.033 329.274C300.298 350.007 309.926 398.235 320.136 414.032C326.514 423.901 337.161 426.608 344.412 433.786C348.688 438.019 349.562 444.36 349.695 450.115C349.97 462.068 344.908 471.09 336.805 479.496C322.668 473.208 308.543 466.667 296.355 456.953Q291.439 453.062 287.067 448.569Q282.695 444.075 278.939 439.055C264.854 420.02 251.974 387.721 245.045 365.117C243.611 360.44 241.838 349.662 238.405 346.57C236.952 346.103 236.614 346.002 235.13 346.284C235.03 346.434 234.913 346.575 234.831 346.735C233.083 350.159 237.49 361.643 238.722 365.552C246.727 390.944 260.535 428.283 278.22 448.358C286.904 458.216 297.428 465.809 309.021 471.843C309.78 479.622 311.258 487.352 312.847 495C313.798 499.579 315.162 504.4 315.415 509.074C315.707 514.461 311.54 522.773 313.977 527.634C316.949 530.083 321.132 530.099 324.812 530.58C326.79 538.07 327.894 545.967 329.254 553.6Q332.101 569.247 334.716 584.935C336.354 595.38 337.681 605.872 339.729 616.248C311.194 640.405 249.179 657.001 211.976 658.616Q211.19 647.124 210.552 635.624C210.185 615.438 208.029 595.202 207.133 575.018Q206.122 549.785 205.371 524.543C205.199 518.635 205.998 505.994 204.455 501.153C204.077 499.968 203.79 499.997 202.723 499.5C201.174 499.555 200.542 499.827 199.247 500.579C197.479 504.501 197.507 511.685 196.964 516.045C195.279 529.567 193.792 543.135 191.999 556.639C187.724 588.834 182.1 620.852 178.232 653.111C172.816 648.028 166.685 642.128 163.271 635.464C165.865 618.352 166.311 600.601 167.678 583.331Q171.679 534.205 176.307 485.135C212.525 493.672 269.807 493.602 302.216 473.667L301.198 468.554C293.993 470.905 287.398 474.675 280.05 476.879C247.844 486.541 209.486 487.4 176.999 478.839C180.483 451.302 182.151 423.376 184.855 395.734C185.925 384.795 186.214 373.039 188.645 362.352C214.398 340.512 240.199 318.409 269.503 301.358Z"/>
	<path fill="#9F8BE8" d="M326.818 19.754C363.862 19.3263 400.953 19.7875 438 19.8492L595.535 19.5435L594.975 768.028L563.454 768.016L563.448 550.25L563.133 203.016L563.449 95.9665C563.465 82.2516 563.945 68.3776 563.6 54.6789C563.579 53.8757 563.52 53.4982 563.145 52.7319C562.779 51.9858 562.863 52.1653 562.027 51.9811C554.818 50.3925 539.424 51.3675 531.226 51.3644L460.021 51.4912L305.655 51.462L262.405 51.3884C256.165 51.3418 249.723 50.8129 243.517 51.0428C242.239 51.0902 241.354 51.2578 240.25 51.9587C238.415 56.1545 239.617 131.404 239.639 141.419C230.062 147.37 225.588 158.252 219.434 167.227C215.841 172.467 211.807 177.189 207.524 181.86L207.606 19.8259C247.323 19.3823 287.094 19.8083 326.818 19.754Z"/>
	<path fill="#9F8BE8" d="M676.857 739.209C686.955 737.611 704.631 740.263 714.97 741.457C731.654 743.384 757.663 746.759 773.228 752.443C784.929 756.716 800.23 766.736 811.537 773.181C839.328 789.022 867.114 804.444 897.68 814.324C897.04 817.36 896.415 820.414 895.632 823.417C893.284 832.419 889.524 842.29 883.988 849.84C867.409 872.447 824.198 893.246 798.069 902.849C792.419 904.925 776.77 908.487 773.08 911.351C772.064 912.139 772.197 912.585 772.157 913.758C772.759 914.926 773.11 915.259 774.282 915.85C778.493 916.234 783.503 914.095 787.488 912.817C811.495 905.114 834.363 894.176 856.287 881.799Q870.683 885.793 885.354 888.616C890.99 889.751 897.298 890.337 902.716 892.218C904.197 892.732 905.003 892.986 905.923 894.234C904.904 896.441 900.134 898.997 898.094 900.651C889.831 907.349 882.841 915.965 879.697 926.213C869.39 927.261 856.775 930.793 846.417 933.07C823.59 938.09 800.851 943.334 777.839 947.452C775.145 942.909 772.112 938.302 769.971 933.479C767.665 928.284 766.343 922.439 764.541 917.041Q757.152 895.276 750.528 873.265C748.658 867.485 746.593 861.754 744.618 856.009C756.886 862.309 767.757 871.738 780.079 877.971C782.515 879.203 786.285 880.555 788.965 879.462C789.794 879.124 789.638 878.917 789.883 878.153C789.081 876.374 787.646 875.331 786.071 874.256C779.566 869.816 772.228 866.198 765.494 862.055C752.909 854.314 740.489 846.108 728.17 837.946Q704.749 822.231 681.83 805.793C672.549 799.046 663.404 791.495 653.699 785.42C652.554 785.41 651.77 785.443 650.824 786.256C650.267 786.734 649.949 787.369 650.075 788.081C650.35 789.641 651.5 790.816 652.626 791.85C655.497 794.488 658.975 796.656 662.125 798.958Q670.978 805.482 679.924 811.878C698.691 825.248 717.566 839.061 737.221 851.083C738.764 860.121 742.521 869.006 745.359 877.722C751.498 896.582 757.988 915.375 763.625 934.388C751.818 938.378 740.646 939.58 728.248 939.441C721.244 927.834 712.92 916.678 705.439 905.339Q682.18 869.49 658.367 834.006C648.396 819.199 636.617 803.328 628.123 787.803C626.077 784.063 624.31 780.07 623.827 775.796C622.882 767.435 624.811 758.048 630.201 751.453C636.47 743.786 648.792 740.082 658.398 739.597C664.291 739.299 670.173 739.94 676.063 739.3L676.857 739.209Z"/>
	<path fill="#FEFEFE" d="M669.748 589.994C678.129 589.846 686.092 590.018 694.284 591.95C694.401 599.909 693.045 608.251 692.539 616.226C692.076 623.505 692.588 640.747 690.653 646.716C689.469 650.373 685.658 654.73 683.524 657.99C679.315 664.417 661.622 691.211 661.182 697.625C662.02 698.635 662.218 698.745 663.454 699.199C665.104 698.842 666.036 697.996 667.044 696.704C669.515 693.541 670.913 689.539 673.092 686.151C686.126 665.886 698.178 645.004 711.687 625.019C715.925 618.749 719.976 611.429 725.806 606.52C735.274 598.549 749.424 596.004 761.449 597.191C766.703 597.71 771.833 598.932 776.873 600.474C788.961 604.172 843.071 624.668 849.425 632.793C853.688 638.246 856.476 645.811 859.556 652.008Q862.897 658.709 865.975 665.536Q869.053 672.362 871.863 679.302Q874.674 686.243 877.212 693.288Q879.751 700.332 882.013 707.47Q884.276 714.608 886.26 721.829Q888.243 729.05 889.945 736.342Q891.646 743.634 893.063 750.987Q894.479 758.34 895.609 765.742C897.726 779.272 899.513 794.256 897.921 807.887Q888.883 805.167 880.194 801.48C857.462 792.375 836.11 780.195 814.869 768.106C800.476 759.915 785.398 749.36 769.412 744.805C756.374 726.826 743.688 708.93 732.082 689.977C741.421 678.867 752.031 668.384 758.514 655.232C760.77 650.658 767.762 634.493 765.282 629.736C764.744 628.703 763.888 628.065 762.696 628.061C762.573 628.061 761.391 628.299 761.221 628.432C760.228 629.209 759.195 634.711 758.811 636.157C756.734 643.965 754.336 652.253 749.79 659.027C738.074 676.481 718.476 695.912 703.733 711.275C697.578 717.689 691.149 725.54 683.925 730.699C678.21 734.779 668.483 734.53 661.818 733.371Q659.143 729.573 657.195 725.356C652.575 715.318 650.473 703.71 650.04 692.72C648.839 662.228 659.245 618.496 669.748 589.994Z"/>
	<path fill="#9F8BE8" d="M311.105 640.039L311.36 640.298C312.36 644.578 307.95 667.691 307.055 674.079Q296.824 748.699 285.069 823.094Q281.633 847.82 277.875 872.499C276.573 881.305 275.626 890.297 273.68 898.983C259.471 904.057 246.591 905.753 231.584 905.481C230.758 901.804 231.077 897.162 230.955 893.331C230.422 876.681 230.906 859.968 230.957 843.312L232.51 662.687C259.517 658.495 286.302 651.768 311.105 640.039Z"/>
	<path fill="#9F8BE8" d="M291.573 102.031L385.17 102.126L385.03 231.307L366.96 231.331L309.065 231.412C312.139 222.971 313.911 213.977 316.022 205.253C316.631 205.094 317.224 204.94 317.811 204.71C321.31 203.338 323.825 200.015 325.14 196.595C328.508 187.84 326.282 176.278 322.719 167.91C316.979 154.428 304.811 146.271 291.551 140.967L291.573 102.031Z"/>
	<path fill="#9F8BE8" d="M361.292 597.234Q373.355 597.003 385.42 597.048L385.189 725.532L328.75 725.626L306.284 725.644C307.406 711.786 310.124 697.701 312.1 683.916C314.352 668.201 316.036 652.248 318.693 636.616Q325.978 633.144 332.791 628.818Q339.604 624.493 345.845 619.377C345.584 612.085 344.059 604.786 343.228 597.533Q352.263 597.543 361.292 597.234Z"/>
	<path fill="#9F8BE8" d="M199.801 546.125C200.667 556.041 200.492 566.154 200.925 576.115Q202.167 607.568 204.349 638.969C204.788 645.541 204.469 657.504 206.972 663.054C210.91 666.163 221.115 664.17 225.995 663.782C226.456 686.248 225.892 708.8 225.736 731.274L224.637 890.774C221.791 891.13 218.946 891.363 216.087 891.588C211.59 891.927 207.221 891.719 202.726 891.416Q194.003 794.627 189.938 697.531C189.157 674.66 187.53 650.854 188.637 628.031C189.332 613.723 192.245 598.895 194.331 584.698C196.21 571.907 197.496 558.827 199.801 546.125Z"/>
	<path fill="#372B63" d="M254.037 143.687C263.942 142.656 283.604 143.919 292.318 148.596C302.228 153.915 307.659 164.208 310.762 174.611C305.983 189.083 299.73 194.028 289.444 204.758C275.713 219.081 273.153 234.972 273.614 254.18C263.461 247.558 266.685 241.018 261.884 236.862C260.632 236.926 260.719 236.935 259.851 237.852C258.551 242.383 261.451 248.193 263.18 252.313C257.907 250.93 252.787 249.33 247.95 246.768C240.983 243.079 234.932 237.124 232.723 229.364C228.89 215.905 239.625 197.692 246.106 186.275C247.097 184.455 248.347 182.484 249.016 180.524C249.41 179.37 249.373 178.845 248.803 177.804L247.47 177.509C246.834 177.755 246.807 177.722 246.176 178.214C242.312 181.228 231.062 205.456 229.089 210.773C227.63 214.701 226.446 218.756 225.975 222.931C224.989 231.689 231.376 239.315 236.48 245.737C229.88 242.326 222.866 238.362 218.31 232.319Q217.969 231.872 217.653 231.407Q217.336 230.942 217.046 230.46Q216.756 229.978 216.493 229.481Q216.229 228.984 215.994 228.473Q215.758 227.963 215.551 227.44Q215.344 226.917 215.165 226.383Q214.987 225.85 214.838 225.308Q214.689 224.765 214.571 224.215Q214.452 223.666 214.363 223.11Q214.275 222.555 214.217 221.995Q214.159 221.436 214.132 220.874Q214.105 220.312 214.109 219.75Q214.113 219.188 214.147 218.626Q214.182 218.065 214.248 217.506Q214.313 216.948 214.409 216.393Q214.505 215.839 214.631 215.291C215.043 213.499 215.883 211.492 216.015 209.668C216.115 208.283 215.75 207.596 214.96 206.518L213.729 206.337C211.696 207.296 210.935 209.057 210.226 211.078C207.813 217.96 208.388 224.856 211.408 231.426C211.193 231.271 210.976 231.118 210.763 230.961C204.645 226.438 199.478 219.376 198.551 211.712C196.567 195.304 213.34 185.861 221.923 174.289C226.87 167.621 230.24 159.857 235.479 153.387C240.657 146.992 245.973 144.545 254.037 143.687Z"/>
	<path fill="#372B63" d="M738.372 450.191C738.665 450.174 738.958 450.15 739.251 450.141C748.449 449.859 756.088 451.853 763.381 457.573C765.862 459.52 768.391 461.686 771.289 462.984C774.252 464.311 777.573 464.987 780.678 465.905Q781.926 466.264 783.151 466.697Q784.375 467.129 785.572 467.634Q786.768 468.139 787.933 468.714Q789.097 469.289 790.225 469.933Q791.353 470.576 792.441 471.286Q793.529 471.995 794.573 472.768Q795.616 473.541 796.612 474.375Q797.608 475.208 798.552 476.1C806.582 483.764 810.529 494.694 810.765 505.655C811.114 521.871 804.533 533.892 793.525 545.411C793.192 541.866 792.946 538.185 791.772 534.803C788.346 524.929 777.552 519.294 768.679 515.115C764.222 513.025 758.846 510.945 755.124 507.667C754.545 506.219 755.059 505.62 755.552 504.176L754.915 503.921C751.195 505.324 748.212 510.228 745.367 512.995Q744.335 511.575 743.437 510.066Q742.539 508.557 741.783 506.972Q741.027 505.388 740.419 503.74Q739.811 502.093 739.357 500.397C736.783 491.093 737.767 481.459 743.322 473.4C745.13 470.777 747.64 468.233 749.054 465.385C749.619 464.248 749.856 463.504 749.512 462.259L748.379 461.937C738.574 464.503 728.241 466.632 719.742 472.446C715.786 475.153 712.2 478.429 708.323 481.261L707.291 480.902C706.761 480.084 706.545 479.619 706.472 478.621C706.096 473.463 709.502 466.372 712.635 462.562C718.948 454.883 728.685 451.167 738.372 450.191Z"/>
	<path d="M767.57 468.717C768.414 469.064 767.974 468.796 768.783 469.673C768.221 472.572 764.068 476.989 762.402 479.593C759.651 483.894 757.771 488.652 755.808 493.347C755.486 493.599 755.714 493.471 755.042 493.515L754.771 492.766C756.587 483.748 760.829 475.034 767.57 468.717Z"/>
	<path d="M779.594 474.145C781.463 475.141 782.602 476.077 783.309 478.13C783.966 480.039 783.92 482.516 783.081 484.355C781.64 484.615 781.212 484.967 779.95 484.149C778.778 481.029 779.431 477.426 779.594 474.145Z"/>
	<path fill="#D2CCFD" d="M737.093 470.554L737.221 470.682C737.693 472.5 733.757 480.271 733.02 482.758C729.553 494.46 734.459 506.307 739.882 516.479C739.785 521.126 737.07 532.344 739.766 535.836L740.833 535.901C744.199 534.323 746.043 531.753 748.101 528.799C751.857 527.422 756.893 525.823 760.914 526.25C762.752 526.446 763.855 527.136 764.895 528.609C765.899 530.03 766.553 531.694 765.983 533.443C763.252 541.815 749.57 542.65 743.155 545.959C741.985 546.563 741.366 546.896 740.948 548.192C741.03 548.327 741.095 548.474 741.194 548.598C742.584 550.319 745.693 550.593 747.757 550.956C747.418 553.834 747.336 556.746 747.185 559.639L749.925 564.418C740.312 571.005 731.724 578.285 724.142 587.159L723.999 587.234L723.451 587.045Q722.495 572.811 721.975 558.554C723.877 558.502 725.836 558.503 727.726 558.287C730.122 558.012 733.018 556.798 734.51 554.864L734.224 553.992C729.412 551.411 720.312 552.834 714.76 552.229C707.616 551.451 699.609 550.246 692.732 548.106C689.811 547.198 686.62 545.866 685.199 542.95C681.791 535.955 691.317 520.994 693.58 514.05L693.786 513.408C693.084 510.478 691.454 507.442 691.071 504.496C690.902 503.19 691.242 502.676 692.026 501.696C693.887 500.974 695.676 501.608 697.552 502.02C701.165 499.639 703.892 495.916 706.697 492.674C715.223 482.819 724.438 474.55 737.093 470.554Z"/>
	<path fill="#9F8BE8" d="M353.54 432.741C363.939 432.114 374.884 432.818 385.327 432.914L385.21 560.854C368.869 561.06 352.496 560.707 336.153 560.571L335.291 553.374C334.217 545.657 332.716 537.949 331.415 530.264C341.45 528.596 351.804 525.022 359.209 517.74Q351.504 502.981 344.603 487.829C352.729 488.17 358.861 488.439 365.622 483.125C371.624 478.409 375.54 470.541 376.184 462.94C377.122 451.88 368.811 443.6 360.378 437.905C358.518 436.649 355.042 434.926 353.791 433.188C353.691 433.05 353.623 432.89 353.54 432.741Z"/>
	<path fill="#FEFEFE" d="M209.163 260.2C228.059 258.244 246.105 263.852 262.554 272.829C273.281 278.683 295.188 294.608 298.383 306.666C298.803 308.254 298.779 309.168 297.953 310.579C296.352 310.998 296.253 310.409 295.086 309.35C285.919 301.034 275.752 295.081 263.94 291.296C235.79 285.942 198.07 299.614 171.839 309.652C175.912 297.959 184.622 275.147 192.288 266.219C196.615 261.179 202.975 260.752 209.163 260.2Z"/>
	<path fill="#9F8BE8" d="M813.84 577.251C822.44 576.85 831.559 577.293 840.109 578.322C847.84 579.253 856.032 580.799 861.02 587.392C865.039 592.705 866.091 599.582 865.006 606.04C863.695 613.849 858.619 622.139 852.163 626.715Q835.175 616.693 817.01 609.008C803.85 603.175 780.55 593.933 766.67 591.988C759.941 591.045 753.043 591.313 746.265 591.398C768.404 582.914 790.141 578.222 813.84 577.251Z"/>
	<path fill="#FEFEFE" d="M248.624 296.227C253.599 296.242 258.151 296.401 262.95 297.816Q239.369 312.922 217.363 330.241C205.222 339.936 193.651 350.499 181.207 359.774C175.117 346.74 169.25 333.307 165.792 319.31C191.425 308.012 220.386 297.192 248.624 296.227Z"/>
	<path fill="#FEFEFE" d="M285.173 919.353C289.294 920.498 299.855 927.464 304.183 929.829C308.547 932.214 313.094 934.216 317.417 936.679C316.63 939.28 315.564 941.662 314.431 944.126C296.033 950.503 275.429 954.012 256.12 956.338C245.642 957.328 236.625 957.066 226.742 953.078L228.055 930.22C231.619 931.218 235.181 932.092 238.859 932.56C256.631 934.822 271.142 930.115 285.173 919.353Z"/>
	<path fill="#9F8BE8" d="M727.642 694.987C731.824 699.677 735.225 705.941 738.669 711.214C745.619 721.853 752.594 732.614 760.489 742.584Q744.369 739.44 728.117 737.065C715.422 735.427 702.63 733.751 689.823 733.407C703.148 722.801 715.505 707.28 727.642 694.987Z"/>
	<path fill="#7261BD" d="M706.197 961.433L706.991 961.654C708.405 964.218 710.605 965.274 713.034 966.643C714.027 967.203 714.917 967.658 716.021 967.984C735.98 973.883 760.258 972.083 778.583 962.167C779.332 964.17 780.196 966.449 780.537 968.567C780.793 970.156 780.635 971.718 779.623 973.024C775.553 978.273 756.686 980.478 750.029 981.402C730.426 983.602 685.245 986.596 667.832 978.241C676.76 971.137 695.268 965.633 706.197 961.433Z"/>
	<path fill="#9F8BE8" d="M789.239 558.688C808.358 555.979 823.951 562.806 840.321 571.578C810.269 570.483 784.802 571.783 756.015 581.464C743.558 585.924 732.337 592.634 722.071 600.961C723.855 597.554 725.933 594.528 728.336 591.524C744.363 571.497 763.881 561.543 789.239 558.688Z"/>
	<path fill="#FEFEFE" d="M321.386 333.088C331.116 334.865 341.142 335.932 350.74 338.281C349.887 346.157 348.352 354.074 347.289 361.946Q344.2 386.202 340.573 410.384L339.155 421.627C337.253 414.219 336.289 406.465 334.913 398.934C332.478 385.604 329.918 372.289 327.635 358.933C326.37 351.536 325.818 343.228 323.518 336.115C323.109 334.849 322.325 333.994 321.386 333.088Z"/>
	<path fill="#FEFEFE" d="M765.667 940.046L766.023 940.136C769.668 943.288 773.678 952.422 776.143 956.844C760.854 965.967 741.747 966.532 724.622 963.82C721.278 963.102 715.687 962.368 713.565 959.506C713.74 958.454 713.759 958.115 714.56 957.337C716.431 955.521 719.093 954.162 721.209 952.604C724.27 950.351 727.152 947.894 730.007 945.387C742.755 946.186 753.569 943.673 765.667 940.046Z"/>
	<path fill="#FEFEFE" d="M301.108 328.273C307.223 330.03 313.254 331.566 319.493 332.802C319.258 346.412 324.506 369.674 327.211 383.818Q330.347 400.944 332.875 418.171C330.222 416.08 327.289 413.815 325.656 410.799C320.702 401.652 314.937 378.357 311.757 367.389C308.049 354.599 303.324 341.37 301.108 328.273Z"/>
	<path fill="#FEFEFE" d="M913.318 896.41Q923.844 898.823 934.271 901.629C914.392 914.789 910.46 926.798 896.822 944.192C893.541 948.301 889.45 951.076 885.009 953.786C888.43 942.821 888.181 936.785 889.661 925.988C891.443 912.996 903.528 903.731 913.318 896.41Z"/>
	<path fill="#FEFEFE" d="M313.403 185.408C313.711 185.818 313.834 185.921 313.994 186.483C314.874 189.579 314.105 198.074 312.447 200.825C311.06 201.308 309.577 201.678 308.996 203.157C307.821 206.143 307.904 211.067 307.34 214.353C305.415 225.569 300.228 242.138 290.63 249.272C288.096 251.155 285.37 252.495 282.186 252.067C281.687 251.073 281.219 250.068 280.914 248.995C279.568 244.248 279.905 238.742 280.829 233.947C285.394 210.271 303.578 204.199 313.403 185.408Z"/>
	<path fill="#FEFEFE" d="M274.451 905.605C276.989 907.71 279.076 912.123 280.834 914.972C279.41 916.389 277.766 917.64 276.109 918.776C264.479 926.751 250.149 928.734 236.48 926.061C233.688 925.319 230.977 924.328 228.251 923.379C228.403 919.237 229.052 915.27 229.765 911.192C244.964 912.477 259.882 909.727 274.451 905.605Z"/>
	<path fill="#FEFEFE" d="M364.082 336.609C367.003 336.298 369.801 336.31 372.73 336.392C370.43 346.78 366.448 357.039 363.055 367.114C357.751 382.865 352.555 398.827 345.974 414.102L343.649 419.902L343.609 419.659L343.203 420.918L342.274 420.477L343.26 420.271C349.449 393.577 351.543 365.922 355.38 338.796C358.266 337.986 361.162 337.284 364.082 336.609Z"/>
	<path fill="#7261BD" d="M344.241 941.975C345.511 941.895 345.319 941.951 346.302 942.566C346.541 943.352 346.841 943.801 346.602 944.625C346.247 945.845 345.641 946.338 344.543 946.928C329.644 954.928 268.224 968.239 250.272 969.017C242.445 969.356 235.159 968.452 227.667 966.181L226.626 965.424C225.882 963.48 226.116 961.379 226.151 959.328C232.331 961.837 238.578 962.877 245.236 962.968C271.091 963.321 318.991 950.5 344.241 941.975Z"/>
	<path fill="#9F8BE8" d="M704.053 576.239C708.311 578.875 712.967 581.042 717.409 583.36C717.57 587.218 717.462 591.353 718.252 595.127C717.984 595.61 717.738 596.095 717.481 596.584C715.076 601.148 714.655 606.346 712.757 611.108C710.812 615.989 707.218 620.576 704.453 625.047C702.515 628.047 700.365 630.939 698.309 633.861C698.164 628.28 698.319 622.632 698.646 617.059C698.926 612.297 701.331 592.97 700.393 589.956C700.11 589.047 699.628 587.966 699.627 586.997C699.625 584.225 702.833 578.917 704.053 576.239Z"/>
	<path fill="#D2CCFD" d="M680.782 528.377C681.198 531.325 679.374 535.618 679.002 538.769C678.711 541.243 678.913 543.425 679.867 545.742C683.113 553.625 693.529 563.768 699.025 570.829C697.93 575.787 695.654 580.672 693.99 585.485L693.28 585.811C688.355 584.965 683.488 584.462 678.513 584.057C682.692 566.822 677.649 562.25 673.129 546.931L672.965 546.354C674.167 540.105 677.273 533.654 680.782 528.377Z"/>
	<path fill="#FEFEFE" d="M354.538 441.277C359.603 444.225 364.567 447.838 367.52 453.027C370.124 457.604 370.592 462.931 369.069 467.953C367.232 474.008 362.57 478.344 357.096 481.181C352.346 482.554 348.645 482.258 343.842 481.664Q345.304 479.994 346.573 478.172C354.829 466.503 356.893 455.231 354.538 441.277Z"/>
	<path fill="#FEFEFE" d="M198.702 915.308C206.277 919.058 214.553 918.105 222.67 917.349Q221.871 927.832 221.439 938.336C213.312 938.401 203.52 938.027 196.564 933.305L198.702 915.308Z"/>
	<path fill="#7261BD" d="M942.47 904.98C943.508 904.91 944.416 905.001 945.445 905.147L945.589 905.695C942.091 908.336 938.468 910.695 935.134 913.566C926.759 920.775 919.917 929.677 913.189 938.388C908.279 944.745 903.568 951.517 897.855 957.183C888.4 966.56 876.034 971.751 862.781 971.669C861.651 971.533 860.887 971.377 859.876 970.847C861.644 969.597 864.784 969.224 866.899 968.4C876.487 964.661 887.963 960.51 895.842 953.806C900.381 949.944 903.821 945.093 907.209 940.239C917.63 925.309 925.241 912.857 942.47 904.98Z"/>
	<path fill="#9F8BE8" d="M383.848 369.944L384.431 370.552C385.092 378.206 384.812 386.318 384.431 393.995C376.699 394.431 368.884 394.1 361.142 393.979L360.918 393.777C360.572 391.418 364.528 383.092 365.571 380.359C365.882 380.302 366.193 380.241 366.504 380.189C372.91 379.12 377.692 373.191 383.848 369.944Z"/>
	<path fill="#FEFEFE" d="M335.066 279.458C335.53 279.462 335.996 279.456 336.458 279.497C337.927 279.628 339.283 280.387 340.1 281.634C340.804 282.707 340.775 284.179 340.512 285.389C339.181 291.518 333.635 297.355 328.628 300.837C324.543 297.257 320.293 296.784 315.119 295.785C312.63 295.177 310.194 294.365 307.75 293.6L309.977 285.845C313.297 286.516 322.234 289.341 325.354 288.059C326.801 287.464 328.328 285.023 329.391 283.858C330.93 282.172 332.556 280.638 334.638 279.649C334.779 279.582 334.923 279.522 335.066 279.458Z"/>
	<path fill="#FEFEFE" d="M326.534 483.812C329.661 486.836 334.178 517.216 335.009 523.455L328.067 523.462L319.265 523.502C321.235 510.297 323.82 496.889 326.534 483.812Z"/>
	<path fill="#FEFEFE" d="M201.799 897.171C209.729 898.349 216.972 898.053 224.894 897.159C224.915 900.379 225.431 903.562 225.86 906.746C225.424 907.293 225.571 907.024 225.31 907.749C225.246 907.929 225.187 908.111 225.126 908.292L224.663 908.321L223.636 910.25C218.264 911.715 212.454 912.406 206.906 911.676C204.723 911.389 201.908 910.834 200.591 908.873C199.451 907.175 201.403 899.432 201.799 897.171Z"/>
	<path fill="#9F8BE8" d="M207.781 237.502C215.679 241.675 223.587 245.937 231.773 249.521C231.361 251.409 230.797 253.284 230.302 255.154C222.726 253.947 215.089 254.205 207.455 254.453C207.467 248.829 207.206 243.1 207.781 237.502Z"/>
	<path fill="#FEFEFE" d="M316.747 264.605C319.831 264.245 321.682 264.284 324.436 265.809C326.438 266.918 328.376 268.596 328.918 270.918C330.265 276.687 324.536 277.912 322.317 281.75C322.161 282.02 322.021 282.299 321.873 282.574C320.475 281.896 319.086 281.192 317.629 280.647C314.735 279.563 312.128 277.852 310.377 275.229C309.497 273.911 308.896 272.31 309.385 270.719C310.353 267.575 313.967 265.736 316.747 264.605Z"/>
	<path fill="#FEFEFE" d="M335.719 258.61C337.946 258.607 341.766 258.163 343.702 259.171C345.954 260.344 346.38 262.44 347.142 264.65C348.508 265.559 350.225 266.515 351.347 267.715C352.233 268.664 352.788 270.32 352.493 271.599C351.9 274.173 349.317 275.664 347.336 277.126L346.801 277.24C343.198 274.776 340.048 273.355 335.709 272.938C334.549 268.137 333.18 264.457 330.503 260.284C332.259 259.835 333.996 259.175 335.719 258.61Z"/>
	<path fill="#FEFEFE" d="M371.886 281.959C373.891 282.229 375.662 283.215 377.479 284.06C380.655 288.465 382.674 293.203 384.218 298.379C381.783 299.49 379.254 300.345 376.735 301.241C375.643 301.497 374.926 301.67 373.821 301.42C372.211 300.168 371.574 298.649 370.702 296.867L370.272 295.98L369.429 295.869C368.635 296.557 368.386 296.83 367.336 297.076C365.574 295.285 366.189 289.477 366.17 287.031C367.894 285.071 369.838 283.552 371.886 281.959Z"/>
	<path fill="#FEFEFE" d="M333.898 485.229C339.213 487.857 348.622 509.974 350.984 515.994C350.588 517.351 350.184 517.235 349.022 517.938C346.688 519.298 344.164 520.326 341.701 521.427C338.43 509.534 337.334 497.088 333.898 485.229Z"/>
	<path fill="#372B63" d="M693.793 554.865C701.066 556.2 708.699 558.208 716.067 558.598Q716.381 567.253 716.521 575.913C706.907 571.812 700.101 562.772 693.793 554.865Z"/>
	<path fill="#FEFEFE" d="M385.715 303.513C387.491 303.846 390.082 305.742 391.383 307.012C393.11 308.698 394.606 311.077 394.481 313.582C394.41 315.008 393.806 316.24 392.727 317.174C390.015 319.523 386.698 318.734 383.448 318.385L375.58 317.089C377.579 313.734 376.901 312.648 376.103 309.05C377.393 306.965 383.263 304.979 385.715 303.513Z"/>
	<path fill="#FEFEFE" d="M385.642 283.622C386.859 283.704 388.166 283.75 389.346 284.068C391.739 284.713 397.782 289.831 398.729 292.261C399.453 294.119 398.661 296.108 399.649 297.818C400.812 299.832 403.571 301.421 404.319 303.474C405.077 305.556 403.608 308.041 402.743 309.866L401.965 310.107C398.728 308.999 398.808 304.258 396.386 302.241C394.382 300.572 392.626 299.046 390.196 298.023C389.388 292.834 387.715 289.264 385.238 284.679L385.642 283.622Z"/>
	<path fill="#FEFEFE" d="M245.903 253.108C253.279 255.942 259.414 257.943 267.398 258.024C269.9 263.292 272.934 268.119 275.654 273.254C266.26 267.316 256.247 261.933 245.541 258.793C245.514 256.932 245.781 254.972 245.903 253.108Z"/>
	<path fill="#FEFEFE" d="M385.074 339.243C387.995 341.769 392.064 344.962 394.048 348.234C397.46 353.865 385.692 355.889 384.506 361.427C384.436 361.755 384.379 362.086 384.316 362.415C381.983 364.288 379.59 365.933 377.08 367.557C378.548 363.492 380.766 359.823 382.427 355.856C384.677 350.485 384.746 344.953 385.074 339.243Z"/>
	<path fill="#7261BD" d="M196.268 940.586C204.531 943.724 212.285 944.36 221.039 944.571L220.773 950.625C214.224 950.542 203.407 950.737 198.222 946.082C196.381 944.429 196.322 942.905 196.268 940.586Z"/>
	<path fill="#FEFEFE" d="M341.332 309.407C346.05 309.339 346.721 312.815 350.139 315.387C350.295 315.504 350.453 315.618 350.61 315.733C349.239 319.422 347.938 323.1 346.798 326.868C346.459 327.888 346.778 327.452 345.711 328.069L344.625 327.744C342.03 324.603 340.353 317.798 339.852 313.725C339.598 311.655 340.117 310.938 341.332 309.407Z"/>
	<path fill="#9F8BE8" d="M369.113 268.638Q377.185 268.574 385.252 268.884C385.308 271.329 385.843 276.028 384.358 277.939C378.465 278.358 379.916 275.917 375.578 274.002C373.655 273.94 372.165 275.007 370.54 275.912L369.113 268.638Z"/>
	<path fill="#FEFEFE" d="M353.787 293.799C356.175 294.375 358.455 297.251 360.196 298.939C358.727 301.473 356.811 305.632 354.241 307.072C351.644 305.777 349.317 304.138 346.933 302.493C348.961 299.354 350.895 296.222 353.787 293.799Z"/>
	<path fill="#7261BD" d="M322.422 933.484C328.613 934.054 334.625 934.51 340.586 936.412C338.622 937.085 336.613 937.648 334.627 938.251L321.505 941.991C322.002 939.145 322.249 936.366 322.422 933.484Z"/>
	<path fill="#372B63" d="M312.357 161.884C314.22 163.68 315.586 166.347 316.756 168.636C320.577 176.114 322.498 185.233 319.863 193.348L319.339 193.682C319.056 190.834 319.502 187.911 319.164 184.958C318.237 176.875 314.881 169.534 312.357 161.884Z"/>
	<path fill="#FEFEFE" d="M378.904 338.358C378.942 338.521 378.997 338.681 379.019 338.847Q379.113 339.584 379.169 340.325Q379.224 341.066 379.241 341.809Q379.258 342.552 379.236 343.295Q379.214 344.037 379.153 344.778Q379.092 345.518 378.993 346.255Q378.894 346.991 378.756 347.721Q378.618 348.452 378.443 349.174Q378.267 349.896 378.054 350.608Q377.841 351.32 377.592 352.019Q377.342 352.719 377.056 353.405Q376.77 354.091 376.448 354.761Q376.127 355.431 375.771 356.083Q375.415 356.735 375.026 357.368Q374.636 358.001 374.214 358.613Q373.792 359.224 373.339 359.813Q372.885 360.402 372.402 360.966C371.295 356.76 377.218 343.215 378.904 338.358Z"/>
	<path fill="#FEFEFE" d="M315.529 477.318C317.49 478.077 319.361 479.132 321.234 480.087C320.294 483.673 319.589 487.231 318.984 490.888L318.898 491.695L318.539 491.973C316.897 487.45 316.402 482.066 315.529 477.318Z"/>
	<path fill="#FEFEFE" d="M329.266 315.281C330.562 315.591 331.702 316.055 332.747 316.907C335.726 319.335 336.699 322.996 337.08 326.66C333.857 325.706 330.98 318.353 329.266 315.281Z"/>
	<path fill="#FEFEFE" d="M302.983 273.468C303.902 275.564 304.753 277.739 305.864 279.741L298.831 278.238L298.485 277.674C300.204 276.404 301.341 275.401 302.374 273.468L302.983 273.468Z"/>
	<path fill="#9F8BE8" d="M363.519 268.676C364.802 268.626 366.084 268.513 367.357 268.726L366.135 268.549L366.49 269.243C364.869 269.814 363.719 270.444 362.379 271.531C362.246 271.639 362.116 271.75 361.984 271.859C361.229 272.62 360.712 273.119 359.707 273.512L358.73 272.856C358.488 271.828 358.5 270.908 359.221 270.023C360.377 268.605 361.84 268.849 363.519 268.676Z"/>
	<path fill="#9F8BE8" d="M236.97 250.238C237.684 250.561 238.346 250.952 239.028 251.338C240.082 253.156 239.684 255.261 239.582 257.29C238.551 256.894 237.766 256.51 236.875 255.855C235.954 254.138 236.634 252.072 236.97 250.238Z"/>
</svg>
