<?xml version="1.0" encoding="utf-8" ?>
<svg xmlns="http://www.w3.org/2000/svg" xmlns:xlink="http://www.w3.org/1999/xlink" width="1024" height="1024">
	<path d="M0 0L192.372 0L198.821 0L348.748 0L354.352 0L686.112 0L701.839 0L785.985 0L793.002 0L875.707 0L882.037 0L1024 0L1024 175.607L1024 182.096L1024 360.909L1024 366.268L1024 1024L0 1024L0 400.908L0 394.838L0 0Z"/>
	<path fill="#9F8BE8" d="M636.331 69.1624Q640.337 66.7729 644.172 64.118Q648.007 61.4631 651.654 58.5549Q655.301 55.6467 658.743 52.4985Q662.185 49.3503 665.406 45.9766C669.401 41.8485 673.192 35.7201 677.968 32.6951C680.488 34.0045 680.602 41.1656 681.771 43.849C683.611 48.0751 686.418 53.0256 689.718 56.2878C693.115 59.6453 696.536 60.7365 701.219 60.6483L701.861 60.6316C731.518 126.851 768.779 204.944 822.945 254.729C843.055 273.213 866.071 288.612 888.56 304.013C879.387 321.469 874.929 341.854 875.191 361.515C875.317 370.942 876.328 380.304 876.363 389.753C876.45 413.628 876.85 438.586 874.765 462.36C872.943 452.405 870.359 442.586 868.364 432.667C863.737 409.665 863.214 395.506 851.51 373.426C836.189 344.524 815.269 326.97 788.458 309.435C783.061 305.905 775.959 300.249 769.748 298.586C768.192 298.169 767.379 298.319 766.033 299.153C765.724 299.813 765.486 300.402 765.482 301.146C765.456 305.782 770.14 316.725 771.774 321.408C782.076 350.922 792.935 379.469 818.282 399.639Q824.208 404.409 830.811 408.186C839.48 413.114 849.954 417.248 857.068 424.343C859.866 427.134 862.253 430.913 863.602 434.631C865.495 439.851 865.96 446.378 867.015 451.892C869.534 465.062 872.455 478.366 873.85 491.706C874.85 501.263 874.719 511.012 875.481 520.62C876.431 532.609 877.726 544.671 877.93 556.7Q877.263 554.601 876.514 552.53C872.638 541.678 867.935 531.036 863.529 520.385C847.68 482.063 832.074 452.175 795.789 428.748C784.992 421.776 773.39 417.05 761.826 411.587C763.938 406.471 764.591 402.109 765.058 396.616C769.098 394.887 773.398 393.261 777.002 390.701C779.44 388.971 783.322 385.425 783.575 382.201C784.195 374.321 771.483 373.512 767.665 368.329C764.595 364.16 769.007 355.536 769.596 350.724C771.136 338.14 766.023 326.535 758.325 316.859C749.673 305.983 736.856 296.013 722.644 294.454C710.564 293.13 701.452 296.587 692.079 304.017C686.167 303.015 680.395 303.169 674.768 305.449C666.944 308.618 662.338 314.013 659.035 321.653C654.451 324.072 650.267 326.713 647.282 331.096C643.772 336.254 642.908 342.646 644.282 348.674C646.25 357.31 651.706 362.824 658.871 367.452C658.607 370.694 660.357 374.861 659.306 377.644C659.23 377.845 659.139 378.04 659.058 378.239C657.445 382.241 654.233 385.057 652.411 388.869C651.838 390.066 651.646 391.372 652.27 392.602C653.608 395.239 657.594 396.245 660.18 397.206C660.725 398.977 661.235 401.334 662.305 402.851C663.622 404.719 666.295 406.464 667.197 408.48C668.428 411.234 667.168 414.124 669.013 417.137C670.303 419.242 672.137 420.579 674.548 421.132C680.773 422.558 687.615 418.883 692.739 415.707C693.926 418.676 696.144 419.877 697.749 422.428C700.767 427.225 702.432 433.824 704.113 439.229C697.776 444.931 693.805 452.17 690.292 459.856C685.622 470.075 682.579 481.126 679.244 491.838C672.193 514.48 665.282 537.452 661.387 560.868C641.833 555.331 620.831 555.465 600.674 555.459C585.618 555.454 570.728 555.462 555.8 557.691C551.67 558.307 547.507 559.147 543.505 560.345C540.328 561.296 537.257 562.593 533.983 563.178C533.85 563.077 533.706 562.99 533.584 562.876C529.138 558.711 530.015 542.788 531.943 537.367C533.034 534.301 535.615 531.257 537.357 528.461C540.019 524.19 541.36 519.099 542.51 514.243C544.685 505.063 545.898 481.628 544.814 472.068C544.677 470.86 544.471 469.74 543.36 469.08C541.009 467.683 508.753 467.296 506.243 468.475C505.403 468.869 505.024 469.081 504.711 469.932C502.056 477.15 503.778 502.122 505.156 510.118Q505.844 514.111 506.935 518.013Q508.026 521.915 509.509 525.685C511.157 529.809 514.78 532.675 516.646 536.661C519.694 543.174 518.188 555.317 515.792 561.893L515.56 562.512C505.214 559.485 495.244 557.29 484.538 556.007C482.912 543.594 479.083 527.025 484.065 514.985C484.915 512.931 486.607 511.029 487.805 509.151C489.435 506.598 490.611 503.631 491.709 500.818Q492.868 497.828 493.676 494.725Q494.485 491.621 494.933 488.446C495.735 482.931 496.896 458.538 494.731 454.364C494.333 453.597 493.669 453.556 492.857 453.395C487.627 452.356 459.421 452.535 455.269 455.077C454.159 459.882 455.127 466.513 455.224 471.492C455.396 480.364 455.454 488.964 458.152 497.52C460.129 503.791 463.599 509 466.422 514.856C472.078 526.588 469.696 542.811 467.259 555.052C453.37 554.533 439.677 554.626 425.79 555.008C427.439 551.85 430.056 546.423 429.26 542.717C428.989 541.457 428.501 540.501 427.339 539.853C422.636 537.233 413.627 541.585 408.728 542.843C410.621 538.117 412.5 532.655 411.837 527.475C411.628 525.84 411.175 525.132 409.892 524.138C408.383 523.898 407.114 524.243 405.827 525.056C403.374 526.606 401.533 529.544 399.48 531.6C396.089 534.997 392.212 538.23 388.174 540.827C373.148 550.487 363.148 548.847 346.696 545.239C337.932 514.651 322.552 466.142 305.526 439.726C302.817 435.522 299.58 431.96 296.266 428.246C296.466 425.234 297.132 422.278 297.703 419.318C302.741 421.372 307.827 422.728 313.32 422.427C318.518 422.142 323.672 420.1 327.041 416.013C330.611 411.682 330.571 407.338 330.168 402.079C330.973 401.239 331.797 400.39 332.41 399.396C333.509 397.615 333.788 396.281 333.308 394.226C330.862 383.765 336.584 387.665 339.045 382.31C339.557 381.198 339.614 379.617 339.075 378.491C337.334 374.857 332.078 373.857 328.55 372.752C327.14 369.616 326.241 366.501 325.61 363.133C330.758 355.594 335.532 348.078 335 338.531C334.525 330.032 330.406 322.893 324.141 317.309C313.518 307.84 301.913 306.483 288.306 307.194C287.51 306.751 286.715 306.351 285.894 305.958C275.683 301.069 263.825 299.149 252.943 303.048C244.697 306.003 240.757 310.846 237.132 318.432C233.503 320.299 230.332 322.265 227.518 325.281C220.148 333.179 217.144 345.292 217.509 355.867C218.018 370.582 224.85 383.309 235.84 392.851C241.223 397.524 247.071 401.602 252.314 406.448C251.667 409.799 243.419 408.251 240.895 412.058C238.442 415.755 236.45 422.528 237.296 426.865C238.395 427.105 237.989 427.09 239.037 427.058C239.269 427.051 239.501 427.034 239.733 427.022C234.371 431.248 229.22 435.076 224.705 440.261C210.527 456.543 199.958 489.017 195.589 510.325C192.689 524.471 190.977 538.9 187.191 552.853C182.95 568.484 175.716 582.908 170.706 598.264C167.257 608.837 165.942 619.79 162.842 630.384C162.333 621.485 161.103 612.528 160.196 603.651Q157.587 576.555 154.014 549.569C150.455 522.612 147.72 494.256 139.261 468.327C136.982 461.338 123.376 435.568 116.319 433.061C115.026 432.601 114.854 432.807 113.748 433.44C112.646 435.521 112.67 437.504 112.81 439.817C113.349 448.72 115.237 457.671 116.245 466.548C119.279 493.263 122.568 519.894 125.268 546.652C129.342 587.039 132.22 627.602 137.4 667.858C138.882 679.37 140.301 690.898 142.338 702.329C144.022 711.775 146.905 720.348 147.041 730.057C147.294 748.095 146.21 766.304 145.603 784.337L142.594 871.556C142.338 878.2 140.127 919.612 140.973 922.185C141.263 923.065 141.502 923.234 142.302 923.67C146.016 925.697 153.47 925.455 157.393 924.183C158.479 922.973 158.644 921.541 158.862 919.944C161.317 901.947 162.76 883.701 164.735 865.638L173.516 791.181C175.273 776.057 176.733 760.793 179.106 745.754Q233.574 746.274 288.044 746.021L302.894 843.047C303.482 846.881 302.096 850.791 302.743 854.585C303.804 860.814 309.424 863.494 314.226 866.68C309.869 873.836 298.153 887.698 295.839 894.886C295.417 896.198 295.688 897.143 296.375 898.333C300.104 904.796 329.574 920.245 337.81 923.653C343.112 925.847 348.825 927.504 354.431 928.7C362.428 930.407 381.606 932.787 388.566 927.954C390.156 926.85 391.194 925.304 391.467 923.373C391.731 921.504 391.382 918.368 390.467 916.731C388.699 913.569 378.895 906.589 375.643 903.322C371.228 898.888 367.37 894.049 363.634 889.046C367.415 889.605 371.349 890.502 374.948 888.872C377.303 886.442 382.462 857.747 383.77 852.47C386.514 841.393 389.69 830.247 393.603 819.525C393.933 830.095 393.727 867.828 396.333 875.505C398.71 877.93 402.859 877.768 406.052 878.107Q403.718 884.667 401.265 891.183C399.941 894.796 396.122 903.651 398.374 907.127C401.595 912.098 430.37 919.85 437.793 921.642C450.744 924.767 481.467 929.519 493.433 921.714C495.315 920.486 496.85 918.656 497.238 916.39C498.688 907.93 479.545 900.574 473.986 895.942C468.538 891.404 463.828 885.874 459.7 880.135C464.253 880.084 469.864 880.879 473.847 878.413C474.208 873.643 468.637 853.961 467.522 847.16C474.262 857.54 479.454 869.064 487.301 878.723C499.208 893.379 528.43 911.308 545.519 919.785C554.43 924.205 563.907 927.977 573.275 931.318Q579.703 933.619 586.259 935.524Q592.816 937.429 599.476 938.93Q606.136 940.431 612.876 941.523Q619.615 942.615 626.409 943.293C673.28 948.089 735.538 939.88 779.968 924.304C788.103 921.452 795.881 917.871 803.663 914.181C803.062 917.569 802.937 920.615 803.026 924.038C807.335 929.524 813.789 931.772 820.284 933.673C853.882 943.506 907.298 943.304 941.687 937.12C949.711 935.677 958.943 933.91 966.107 929.851C969.323 928.028 972.662 925.429 973.565 921.646C974.165 919.13 973.335 916.408 971.891 914.324C967.819 908.446 959.127 906.863 952.607 905.502C968.445 881.46 974.163 849.552 977.71 821.35C978.745 813.119 983.17 771.384 978.486 766.416C968.621 755.95 903.362 754.62 887.264 754.376C889.247 739.117 893.961 723.887 897.584 708.924C902.988 707.718 908.405 705.775 913.642 703.977C934.346 696.87 953.483 687.248 967.861 670.173C980.439 655.236 988.546 637.957 994.798 619.63C996.289 615.261 998.477 610.097 998.063 605.439C997.34 604.381 997.144 604.106 995.826 603.746C989.899 602.13 954.059 619.291 946.764 623.554C905.604 647.605 896.798 689.313 885.716 731.843C885.025 714.895 885.506 697.651 885.577 680.683C885.625 669.353 884.629 657.099 886.612 645.949C889.119 631.851 894.975 617.446 899.535 603.871Q909.024 601.361 918.292 598.128C953.258 585.882 971.247 568.536 986.936 535.6C989.513 530.19 1001.18 501.155 998.874 496C998.559 495.296 997.984 495.029 997.281 494.774C994.855 493.891 990.835 495.581 988.561 496.521C961.445 507.725 932.917 521.991 917.014 547.775C908.601 561.417 902.974 577.142 897.673 592.197C893.706 603.461 890.361 615.27 885.73 626.251L885.507 626.771C885.47 611.933 884.619 596.89 884.051 582.055C883.713 573.235 883.128 564.325 883.761 555.509C884.619 543.571 887.111 532.01 890.174 520.467C891.913 513.915 893.255 507.125 897.002 501.388C930.172 484.567 959.506 470.301 976.635 434.748Q979.923 427.94 982.558 420.853C984.747 414.85 993.402 387.433 991.413 383.431C990.837 382.272 990.54 382.051 989.44 381.537C982.153 382.139 957.994 395.44 951.555 399.611C925.969 416.186 908.091 440.721 898.23 469.416C895.31 477.914 893.338 486.666 891.081 495.352C887.89 507.633 884.582 519.793 881.896 532.202C881.409 522.184 880.137 512.224 879.946 502.185C879.539 480.814 880.825 459.27 881.293 437.897C881.494 428.738 880.33 416.79 881.883 408.049C883.175 400.774 887.282 393.191 890.908 386.836C897.406 375.448 906.348 365.943 914.556 355.823Q924.477 343.398 933.53 330.328C962.789 344.841 992.591 357.228 1024 366.268L1024 1024L0 1024L0 400.908Q34.0207 390.749 66.8014 377.11Q88.299 367.688 108.964 356.557Q129.629 345.427 149.326 332.661C166.638 321.583 184.206 310.202 199.92 296.925C244.623 259.15 282.517 200.838 307.065 148.212C313.957 133.437 319.717 118.137 325.811 103.021Q339.216 107.099 352.825 110.437C348.119 115.458 344.109 123.179 342.856 129.991C342.209 133.516 342.881 136.91 345.055 139.789C347.898 143.555 352.63 145.859 357.264 146.377C360.847 146.777 364.509 146.089 367.33 143.734C372.624 139.317 374.882 126.096 375.42 119.565C374.661 117.842 373.693 116.218 372.77 114.58C379.079 115.328 385.324 117.227 391.629 118.207C401.399 119.725 411.334 120.379 421.182 121.227C418.763 123.752 417.858 125.52 417.218 128.984C416.108 135.004 413.473 147.986 417.127 152.996C419.452 156.185 423.189 158.15 427.043 158.758C431.465 159.454 436.524 158.563 440.058 155.692C442.848 153.426 444.321 150.273 444.685 146.736C445.188 141.845 444.431 130.797 442.522 126.335C441.819 124.692 440.437 123.176 439.322 121.79C456.648 122.252 473.797 120.984 491.077 120.098C490.96 120.291 490.834 120.48 490.725 120.679C488.606 124.545 488.711 142.586 490.154 147.153Q490.319 147.686 490.538 148.198Q490.757 148.71 491.028 149.197Q491.3 149.684 491.621 150.14Q491.941 150.595 492.308 151.015Q492.674 151.435 493.083 151.815Q493.491 152.194 493.937 152.529Q494.382 152.863 494.861 153.15Q495.339 153.436 495.844 153.671C500.124 155.643 505.865 155.164 510.16 153.498C515.357 151.483 518.286 148.34 520.455 143.373C519.662 137.901 515.307 121.587 511.602 118.128C511.473 118.007 511.337 117.895 511.205 117.778C516.452 116 522.55 115.573 528.018 114.454Q542.351 111.457 556.45 107.499C556.16 108.658 555.821 109.829 555.721 111.024C555.308 115.948 559.261 132.354 562.49 135.894C564.826 138.455 568.206 139.704 571.629 139.715C576.721 139.733 581.985 137.398 585.569 133.816C587.623 131.762 589.458 128.888 589.363 125.874C589.166 119.592 582.267 104.869 577.796 100.447C588.223 96.1318 598.166 91.4659 607.98 85.8738C610.057 84.69 616.375 80.2672 618.286 80.2874C618.344 82.1581 618.275 84.2478 618.946 86.0138C621.347 92.3379 622.932 103.217 628.436 107.485C631.481 109.846 635.454 110.098 639.138 109.527C643.838 108.798 648.69 105.847 651.469 101.982C653.35 99.3668 654.16 96.3152 653.577 93.1257C652.593 87.7446 645.358 76.5312 641.395 72.8966C639.878 71.5053 638.022 70.3369 636.331 69.1624Z"/>
	<path fill="#9F8BE8" d="M0 0L192.372 0C194.148 3.52884 195.983 7.03908 197.685 10.6038C189.749 14.9071 173.113 22.0422 170.265 30.92C169.087 34.5937 169.596 38.5338 171.511 41.8628Q171.907 42.5431 172.369 43.1804Q172.83 43.8176 173.354 44.4054Q173.877 44.9932 174.457 45.5256Q175.036 46.058 175.667 46.5296Q176.297 47.0013 176.971 47.4075Q177.645 47.8136 178.356 48.1502Q179.068 48.4869 179.809 48.7505Q180.551 49.0142 181.315 49.2022C185.578 50.2478 189.722 49.3034 193.352 46.9025C200.078 42.4554 206.862 34.4625 210.971 27.5582C217.799 35.6875 224.681 43.421 232.737 50.3839C226.433 55.302 210.797 65.5773 209.842 73.5769C209.368 77.5406 210.913 81.3483 213.414 84.3701C216.177 87.7084 219.968 89.8992 224.341 90.1272C228.363 90.3367 231.899 88.897 234.789 86.1279C240.122 81.0195 245.372 71.321 248.085 64.4984C255.376 71.7487 272.547 81.5093 282.221 85.0021C276.328 88.8657 267.467 99.9245 265.869 106.856C265.076 110.296 265.781 113.803 267.697 116.75C270.037 120.348 273.96 122.708 278.158 123.43C282.001 124.09 285.94 123.277 289.086 120.927C295.572 116.081 298.305 101.692 300.373 94.0204C306.73 96.7406 313.35 99.1942 319.967 101.208C296.907 169.607 245.932 253.608 188.738 298.396C165.51 316.586 139.832 332.691 114.113 347.118C105.203 352.117 95.9211 356.476 87.0453 361.516C107.91 338.853 125.458 312.976 141.513 286.754C166.461 246.006 188.059 203.818 203.987 158.71C206.139 152.614 213.084 134.109 213.188 128.603C213.2 127.968 212.89 127.328 212.391 126.915C211.349 126.053 210.713 126.061 209.497 126.226C208.644 127.193 208.262 128.046 207.797 129.257C205.624 134.913 204.132 140.918 202.257 146.686Q197.286 161.885 191.293 176.711C167.619 234.752 131.256 300.043 91.095 348.088C86.1014 354.062 80.4489 362.377 74.1761 366.951C68.8507 370.835 61.407 373.135 55.3068 375.573C37.268 382.779 18.7438 389.649 0 394.838L0 0Z"/>
	<path fill="#9F8BE8" d="M701.839 0L785.985 0L793.002 0L875.707 0L882.037 0L1024 0L1024 175.607L1024 182.096L1024 360.909Q993.516 351.568 964.365 338.654C954.974 334.49 945.892 329.636 936.553 325.341C941.205 316.659 945.695 307.861 948.695 298.448Q951.018 291.124 952.324 283.552C953.731 275.52 958.19 240.701 955.184 234.92C954.099 234.191 954.089 234.166 952.79 234.265C947.07 239.107 942.844 246.336 937.511 251.786C928.03 261.476 917.334 269.897 907.73 279.456C901.605 285.551 896.331 292.209 891.073 299.039C885.49 294.58 879.242 290.75 873.393 286.628C857.826 275.658 842.238 264.628 828.25 251.661C781.971 208.759 750.202 150.754 723.728 94.174C718.628 83.2745 710.976 69.7745 707.857 58.3451C710.546 55.8934 713.83 53.2994 715.594 50.0826C717.054 47.4212 717.089 44.6193 716.11 41.7823C713.455 34.0825 704.293 26.5091 697.195 22.9967C696.375 21.2302 695.83 20.2653 694.074 19.3236C693.937 19.2504 693.797 19.1843 693.658 19.1147C693.12 16.4333 700.309 3.35674 701.839 0Z"/>
	<path fill="#9F8BE8" d="M882.037 0L1024 0L1024 175.607C1013.81 170.636 1002.18 166.754 992.795 160.335C983.169 153.754 972.351 141.89 964.247 133.348C935.55 103.098 912.462 69.8639 895.152 31.8915C890.37 21.4009 886.503 10.6103 882.037 0Z"/>
	<path fill="#9F8BE8" d="M785.985 0L793.002 0L875.707 0L882.037 0C886.503 10.6103 890.37 21.4009 895.152 31.8915C912.462 69.8639 935.55 103.098 964.247 133.348C972.351 141.89 983.169 153.754 992.795 160.335C1002.18 166.754 1013.81 170.636 1024 175.607L1024 182.096C945.936 147.402 878.769 104.83 820.524 41.7079C808.469 28.6429 795.847 14.8235 785.985 0Z"/>
	<path d="M785.985 0L793.002 0C799.077 7.69777 805.013 15.6193 811.406 23.0524Q818.25 30.9646 825.393 38.6075Q832.537 46.2503 839.969 53.6125Q847.401 60.9746 855.112 68.0452Q862.822 75.1158 870.799 81.8842Q878.776 88.6527 887.007 95.1091Q895.239 101.565 903.713 107.7Q912.187 113.835 920.89 119.639Q929.594 125.443 938.515 130.907C950.141 138.073 961.527 145.111 973.744 151.247C965.263 142.586 956.29 134.221 948.27 125.137C916.44 89.0866 891.874 45.1864 875.707 0L882.037 0C886.503 10.6103 890.37 21.4009 895.152 31.8915C912.462 69.8639 935.55 103.098 964.247 133.348C972.351 141.89 983.169 153.754 992.795 160.335C1002.18 166.754 1013.81 170.636 1024 175.607L1024 182.096C945.936 147.402 878.769 104.83 820.524 41.7079C808.469 28.6429 795.847 14.8235 785.985 0Z"/>
	<path fill="#9F8BE8" d="M354.352 0L686.112 0C687.235 4.96981 687.779 10.0506 688.428 15.0992C679.167 20.5813 673.735 28.4874 666.546 36.2453C656.717 46.8534 645.44 57.1246 632.85 64.2982C630.048 65.8949 628.057 65.1739 625.184 65.8944C622.641 66.5321 621.507 68.6425 620.293 70.7365C616.058 78.0393 583.229 92.1394 574.43 95.4187C571.782 94.4146 569.099 93.7473 566.263 94.3935C562.186 95.3223 560.411 99.6242 555.551 101.357C540.493 106.723 524.119 109.363 508.402 111.92C506.541 110.326 505.258 109.578 502.774 109.417C498.574 109.144 495.195 111.097 492.075 113.709C480.705 114.87 469.39 115.428 457.97 115.7C452.95 115.819 447.741 116.191 442.738 115.755L441.777 115.665C437.868 115.322 434.462 113.078 430.558 112.347C430.34 112.306 430.121 112.27 429.903 112.232C427.353 113.068 425.216 114.057 423 115.581C409.754 115.533 386.859 112.516 374.056 108.96C369.646 107.735 367.931 103.553 362.914 103.4C360.045 103.313 358.402 104.294 356.4 106.248C346.946 103.415 337.294 100.84 328.051 97.3867C331.444 84.0007 336.501 70.8032 340.493 57.5501Q348.874 29.1247 354.352 0Z"/>
	<path fill="#9F8BE8" d="M198.821 0L348.748 0C347 9.56634 344.498 19.1516 342.19 28.6019C336.677 51.1826 330.437 74.3461 321.921 95.9917C314.966 93.6097 307.965 90.8135 301.274 87.7679C299.922 85.3706 298.645 82.7706 296.202 81.3005C293.078 79.4203 289.346 80.0387 285.994 80.7812C273.912 74.6141 261.137 67.9827 250.719 59.2146C250.008 55.8584 249.268 52.1537 247.034 49.444C244.793 46.7257 241.834 47.6301 238.763 47.397C230.173 41.8657 220.005 29.3018 213.373 21.2874C213.617 19.8999 213.931 18.4406 213.921 17.0287C213.905 14.8962 213.031 12.2564 211.414 10.8068C208.78 8.44365 206.21 8.34926 202.868 8.45597L198.821 0Z"/>
	<path fill="#FEFEFE" d="M332.041 598.64C335.851 600.855 356.332 602.317 362.125 602.942Q399.578 606.771 437.172 608.802Q474.766 610.833 512.414 611.061Q593.251 612.643 673.943 607.562C676.877 633.226 679.585 658.768 683.34 684.348Q687.745 714.803 693.681 744.997Q699.618 775.191 707.071 805.047C712.078 825.503 717.355 846.08 723.729 866.157C730.34 886.979 738.012 907.213 746.138 927.477C736.777 930.205 726.83 931.763 717.218 933.349C681.433 939.256 645.088 941.36 609.278 934.742C590.318 882.468 578.404 834.246 570.085 779.245Q560.852 714.133 557.567 648.452C557.268 642.354 558.018 631.221 555.613 626.02C555.015 624.728 554.542 624.372 553.262 623.834C552.578 624.05 552.04 624.051 551.594 624.667C550.512 626.162 550.482 628.449 550.462 630.224C550.364 638.596 551.47 647.344 552.014 655.716Q553.875 685.071 556.374 714.378C557.183 726.936 558.841 739.516 560.323 752.01Q562.22 768.904 564.798 785.707Q567.375 802.511 570.629 819.197Q573.883 835.882 577.808 852.423Q581.733 868.964 586.322 885.333C590.977 901.619 597.461 917.255 602.242 933.435C567.179 925.179 543.137 913.33 513.702 892.854C506.34 887.733 497.999 882.313 492.242 875.389C488.556 870.955 485.686 865.802 482.711 860.884C476.669 850.895 470.824 840.296 464.018 830.832C458.537 823.209 449.559 818.717 444.432 810.974C444.55 790.793 449.689 770.284 452.846 750.373C457.222 722.777 460.855 695.01 464.898 667.36Q467.101 652.932 468.821 638.438C469.346 633.932 470.158 629.107 470.063 624.572C470.015 622.31 469.682 620.313 468.378 618.441L467.276 618.448C465.344 620.261 464.595 622.806 464.147 625.36C463.034 631.707 462.618 638.328 461.835 644.742C460.147 658.564 458.402 672.404 456.453 686.192Q448.181 740.961 438.958 795.578C433.191 788.864 425.594 782.531 418.257 777.554C401.554 766.223 385.272 759.216 381.97 737.02C379.684 721.658 384.411 701.807 381.314 688.648C380.258 684.162 378.066 680.145 375.089 676.654C365.62 665.551 345.19 654.346 332.662 646.308C332.359 640.248 332.681 634.082 332.993 628.024C333.144 625.104 333.682 621.717 333.37 618.831C333.23 617.536 332.571 615.825 331.818 614.77C331.111 613.776 330.585 613.44 329.41 613.269C329.194 613.447 328.943 613.59 328.762 613.805C326.586 616.392 326.982 637.516 326.629 642.192Q319.484 638.129 312.486 633.816C312.487 624.662 313.324 615.399 313.817 606.253C319.722 603.416 325.959 601.076 332.041 598.64Z"/>
	<path fill="#FEFEFE" d="M247.797 429.999C257.468 431.125 289.966 450.708 295.537 448.896C295.835 448.799 296.128 448.684 296.423 448.579L296.905 449.106C298.738 458.744 301.068 467.963 301.382 477.838Q301.591 486.018 300.944 494.174C299.848 508.132 297.56 522.029 296.305 535.989C295.974 539.661 295.827 551.313 294.667 553.938C294.417 554.505 293.981 554.436 293.435 554.593C289.811 551.039 291.893 500.838 291.247 491.82C290.657 483.566 289.221 475.143 286.093 467.447C283.081 460.038 270.487 441.399 263.241 438.328C261.991 438.506 261.729 438.553 260.733 439.311C260.497 440.936 260.738 441.747 261.673 443.109C263.496 445.765 266.094 447.809 268.251 450.18Q270.485 452.59 272.47 455.209Q274.455 457.828 276.172 460.63Q277.888 463.433 279.32 466.391Q280.751 469.349 281.883 472.434C287.668 488.457 285.432 506.243 285.45 522.963C285.462 534.385 285.806 545.663 286.626 557.056C281.384 559.145 261.746 566.956 259.504 571.756C259.125 572.566 259.386 572.742 259.65 573.518L260.89 574.078C265.843 573.837 270.489 570.501 274.947 568.481C296.86 558.548 323.456 547.735 347.854 551.186C353.268 551.952 358.179 553.597 363.28 555.521C365.874 560.603 367.714 565.552 368.443 571.224C357.026 580.263 343.723 586.382 330.582 592.418C307.779 602.893 285.027 611.785 260.814 618.462C249.758 608.311 242.907 594.281 237.201 580.628C228.766 560.239 226.813 540.339 225.813 518.583C225.626 514.51 226.246 504.278 225.141 501.017C224.695 499.7 224.233 499.371 223.048 498.725C221.69 498.794 221.169 499.087 220.076 499.879C219.448 501.249 219.493 502.851 219.491 504.337C219.446 548.041 227.046 592.689 259.069 624.804C275.631 621.257 291.82 615.044 307.685 609.201C307.444 617.033 307.69 625.328 306.366 633.049C289.994 640.562 273.261 647.218 256.902 654.748C229.837 667.208 194.206 688.448 164.409 690.749C164.283 662.271 166.588 628.818 175.729 601.729C181.521 584.563 189.226 568.108 193.808 550.542C196.664 539.595 197.805 528.341 199.964 517.256Q201.26 510.604 202.906 504.03Q204.552 497.457 206.543 490.979Q208.534 484.501 210.865 478.138Q213.196 471.775 215.86 465.544C222.195 450.36 232.127 436.342 247.797 429.999Z"/>
	<path fill="#FEFEFE" d="M747.327 597.567C747.948 597.449 747.522 597.486 748.591 597.772C749.674 601.155 749.19 605.982 749.503 609.599Q750.256 617.502 751.283 625.375Q756.587 671.106 763.293 716.652C772.848 781.127 787.305 845.05 802.63 908.372C787.805 916.85 768.594 922.498 752.014 926.365L747.218 914.527C737.579 891.403 730.148 866.958 723.213 842.886C700.808 765.117 688.468 687.828 679.484 607.568C690.234 606.128 701.124 605.592 711.899 604.301C723.901 602.864 735.601 600.461 747.327 597.567Z"/>
	<path fill="#504170" d="M308.913 638.521C315.418 643.041 322.667 646.726 329.367 650.988C341.951 658.991 371.986 675.728 375.506 689.812C377.445 697.571 375.999 706.368 375.682 714.273C375.302 723.78 375.065 733.497 377.204 742.827C380.446 756.979 389.231 766.066 401.312 773.553C399.048 780.733 397.142 788.042 394.901 795.238C388.475 815.879 381.631 836.406 376.312 857.373C374.111 866.048 372.499 874.916 370.73 883.689Q369.581 883.605 368.435 883.489C353.655 881.982 330.269 871.202 318.451 861.859C314.782 858.958 311.817 855.563 308.87 851.952C310.08 843.251 312.502 835.035 314.928 826.616C323.049 804.364 327.749 780.285 335.317 757.725C337.157 752.24 344.897 737.911 344.598 733.647C343.314 732.057 341.378 731.644 339.454 731.249C332.363 729.793 324.635 729.942 317.413 729.092C303.443 727.447 289.451 724.968 275.69 722.078C246.197 715.882 213.36 709.258 188.604 691.318C211.789 683.881 233.343 672.374 255.276 661.975C272.901 653.618 290.96 646.142 308.913 638.521Z"/>
	<path fill="#9F8BE8" d="M802.854 799.154C809.993 801.718 817.15 803.859 824.628 805.225C844.621 808.877 865.367 809.073 885.626 808.753C915.451 808.282 945.09 806.567 974.076 799.032C971.581 829.165 967.099 860.585 955.337 888.633C952.788 894.548 949.729 900.937 945.815 906.08C939.815 913.964 924.421 915.261 915.258 916.378C895.757 918.755 845.584 919.8 830.711 907.422C813.514 893.11 805.223 821.055 802.854 799.154Z"/>
	<path fill="#9F8BE8" d="M757.862 419.972C759.788 422.752 760.244 430.388 761.229 434.035C768.022 459.175 783.746 485.091 806.484 498.584C806.23 513.223 804.835 527.934 803.789 542.541C791.695 537.065 779.129 531.152 768.868 522.644C766.71 520.854 764.148 518.437 761.18 518.741C759.956 519.654 759.869 519.651 759.627 521.215C758.844 526.286 759.106 531.598 758.56 536.727Q756.227 557.863 752.989 578.88C752.825 581.709 752.172 584.672 751.758 587.487C734.189 576.894 712.265 574.856 692.179 573.214C689.314 554.001 685.182 510.99 689.175 492.43C696.268 459.462 731.421 437.093 757.862 419.972Z"/>
	<path fill="#9F8BE8" d="M831.775 622.24C840.831 625.851 855.794 631.401 865.153 632.933C869.742 643.518 878.283 667.157 879.97 678.007C881.245 686.203 880.465 695.328 880.473 703.648L880.416 754.136C861.469 754.303 814.174 755.046 798.285 763.296C796.673 764.132 795.555 764.924 795.031 766.734C793.619 771.608 795.178 779.353 795.517 784.58C797.764 819.25 804.978 875.352 821.73 905.726C817.652 906.573 813.58 908.707 809.489 908.788C808.089 907.808 808.239 906.74 807.88 905.109C801.892 880.677 796.437 856.29 790.971 831.74C784.089 800.825 777.516 769.981 772.698 738.659C791.303 737.959 850.223 732.8 864.813 725.511C866.595 724.62 867.702 723.818 868.225 721.824C868.979 718.955 868.745 701.296 868.282 697.631C868.063 695.901 867.663 694.215 866.731 692.722C860.83 683.274 838.539 678.278 827.854 675.638C829.565 669.251 830.024 662.984 830.038 656.397C832.063 655.852 833.979 655.395 835.336 653.685C837.39 647.668 832.753 629.355 831.775 622.24Z"/>
	<path fill="#FEFEFE" d="M663.739 576.155C686.258 578.592 727.998 580.493 747.007 591.133C732.696 597.171 706.696 599.155 690.906 600.546C655.672 603.652 620.445 604.525 585.102 605.121Q492.148 607.029 399.377 600.894C379.671 599.179 359.418 598.466 339.953 594.821C352.16 587.438 364.957 580.431 379.071 577.813C385.726 576.579 387.84 579.087 393.057 582.61C413.996 596.752 466.07 592.85 489.999 588.99C494.994 588.185 499.359 584.815 504.367 584.436C509.25 584.066 514.41 584.909 519.301 585.183C527.595 585.648 536.602 585.116 544.777 583.52C563.503 593.771 591.94 594.402 613.072 593.46C623.298 593.004 652.839 589.785 660.379 583.358C662.206 581.801 661.381 578.597 663.395 576.493C663.506 576.377 663.624 576.268 663.739 576.155Z"/>
	<path fill="#504170" d="M261.446 306.626C272.621 305.732 278.187 310.169 288.4 312.235C290.859 312.732 293.541 312.464 296.043 312.408C302.909 312.255 308.875 313.722 314.822 317.18C321.486 321.056 326.866 327.402 328.725 334.985C330.562 342.474 328.033 348.919 324.125 355.151C321.722 349.785 315.672 338.796 311.377 335.182C310.369 334.334 309.891 334.091 308.594 334.227C308.126 336.169 308.691 338.509 308.93 340.488C309.822 347.87 309.959 355.264 306.561 362.147C306.013 363.257 305.72 363.784 304.495 364.146L304.16 363.548C304.296 362.793 304.42 362.054 304.512 361.293C305.37 354.194 305.283 340.31 300.093 334.645C299.157 333.623 298.599 333.55 297.267 333.525C296.394 334.151 296.014 334.256 296.164 335.476C296.437 337.687 297.549 340.291 298.18 342.458C300.603 350.768 300.792 357.576 297.725 365.743C294.768 369.35 292.712 374.161 290.516 378.268Q289.995 376.347 289.377 374.455C288.245 371.087 285.308 367.982 282.072 366.533Q281.546 366.297 281 366.115Q280.453 365.932 279.891 365.805Q279.329 365.678 278.757 365.608Q278.185 365.538 277.608 365.525Q277.032 365.512 276.458 365.556Q275.883 365.601 275.316 365.702Q274.749 365.804 274.194 365.961Q273.64 366.119 273.104 366.331C269.215 367.838 266.322 371.321 264.858 375.153C262.231 382.03 263.448 388.796 266.295 395.308C264.655 393.837 262.351 391.053 260.124 390.597C259.413 390.452 258.78 390.486 258.245 390.989C256.251 392.859 256.52 397.834 256.339 400.42C243.46 391.884 230.871 384.139 225.611 368.736C221.965 358.061 222.54 344.829 227.669 334.711C230.945 328.249 235.111 325.748 241.708 323.543C242.463 321.063 243.31 318.509 244.728 316.324C248.658 310.266 254.708 307.967 261.446 306.626Z"/>
	<path fill="#504170" d="M406.892 777.408C418.201 783.155 429.073 794.207 437.92 803.297C437.727 805.557 437.376 808.059 437.657 810.307C439.031 821.309 452.849 824.326 457.372 833.559C463.002 845.05 462.075 862.228 467.745 874.124L459.441 874.001C452.212 872.963 444.389 873.507 437.08 873.474C425.277 873.422 413.297 873.158 401.556 871.929C401.163 857.126 400.53 842.277 399.902 827.481C399.584 819.995 398.296 811.214 399.382 803.853C400.684 795.03 404.655 786.132 406.892 777.408Z"/>
	<path fill="#9F8BE8" d="M812.537 502.108Q818.769 505.495 825.392 508.031C833.059 510.964 852.506 515.982 857.188 522.401C860.896 527.484 863.39 534.631 865.827 540.448C870.122 550.698 874.381 561.488 876.745 572.368C880.381 589.107 879.874 609.856 880.193 627.033C880.362 636.123 881.366 646.584 879.766 655.471L879.378 654.868C876.811 647.499 874.014 640.213 871.467 632.834C863.137 608.708 854.885 583.184 835.995 564.999C827.836 557.145 818.513 551.451 808.88 545.641C810.948 531.223 811.689 516.637 812.537 502.108Z"/>
	<path fill="#9F8BE8" d="M949.863 246.428L950.364 247.233C950.433 261.982 948.175 281.195 943.964 295.207C937.492 316.739 923.459 336.581 909.337 353.86C903.839 360.587 897.762 367.097 892.663 374.116C890.755 376.742 884.35 389.549 882.363 390.61C882.426 381.885 881.1 373.304 880.673 364.612C880.092 352.779 881.701 340.75 884.733 329.325C893.572 296.018 911.055 284.355 934.773 262.237C940.108 257.261 944.964 251.826 949.863 246.428Z"/>
	<path fill="#9F8BE8" d="M119.066 443.894C119.169 443.98 119.278 444.059 119.376 444.151C120.891 445.588 122.148 447.84 123.316 449.576Q126.17 453.822 128.491 458.38Q130.812 462.939 132.566 467.744C139.949 488.237 142.99 510.729 145.904 532.219C149.273 557.057 151.841 581.82 154.24 606.762C155.957 624.611 158.551 642.702 159.409 660.595C159.796 668.673 158.974 676.998 158.804 685.097C158.602 694.699 159.007 704.27 159.418 713.861L159.181 714.181C157.163 715.09 153.078 714.552 150.785 714.515C148.578 701.212 145.818 688.065 144.014 674.685C140.79 650.786 138.957 626.663 136.59 602.662Q129.466 523.097 119.066 443.894Z"/>
	<path fill="#9F8BE8" d="M765.141 527.683C765.534 527.826 765.767 527.898 766.16 528.121C772.058 531.472 777.46 535.633 783.456 538.91C791.012 543.039 799.024 546.309 806.537 550.526C841.007 569.869 851.122 591.301 863.925 627.299C842.949 620.423 822.809 614.01 805.192 600.072Q804.155 599.245 803.138 598.394Q802.121 597.542 801.125 596.665Q800.129 595.789 799.155 594.888Q798.181 593.987 797.23 593.063Q796.278 592.139 795.35 591.191Q794.421 590.244 793.516 589.274Q792.611 588.304 791.73 587.312Q790.849 586.321 789.993 585.307Q789.137 584.294 788.305 583.26Q787.474 582.227 786.669 581.173Q785.863 580.119 785.084 579.045Q784.304 577.972 783.551 576.88Q782.798 575.787 782.073 574.677Q781.347 573.567 780.648 572.439Q779.95 571.311 779.279 570.167Q778.609 569.022 777.967 567.861Q777.324 566.7 776.711 565.524Q776.097 564.348 775.513 563.157Q774.928 561.966 774.373 560.761Q773.818 559.557 773.293 558.339Q772.768 557.12 772.272 555.89Q771.777 554.659 771.312 553.417Q770.847 552.174 770.413 550.921Q769.979 549.667 769.575 548.404Q769.172 547.14 768.799 545.867Q768.427 544.593 768.086 543.311Q767.745 542.029 767.436 540.74Q767.127 539.449 766.849 538.152Q766.571 536.855 766.326 535.552Q766.08 534.248 765.867 532.939Q765.653 531.629 765.472 530.315Q765.29 529.001 765.141 527.683Z"/>
	<path fill="#9F8BE8" d="M985.356 388.493L985.61 388.707C986.492 390.803 980.107 410.564 979.163 413.443C963.84 460.169 939.179 473.713 898.177 494.498L897.749 493.789C899.236 485.18 901.529 476.091 904.517 467.902C914.341 440.977 931.782 417.908 956.464 402.96C965.647 397.398 975.644 393.046 985.356 388.493Z"/>
	<path fill="#9F8BE8" d="M992.447 501.004C992.786 511.556 978.607 540.702 972.378 550.573C955.879 576.721 931.386 590.623 901.712 597.399C901.179 594.617 908.183 579.193 909.582 575.705C913.312 566.401 917.509 556.718 923.016 548.333C939.101 523.844 966.544 512.102 992.447 501.004Z"/>
	<path fill="#9F8BE8" d="M991.649 609.992L991.923 610.09L992.145 610.773C988.258 621.746 984.464 632.646 979.137 643.024C960.275 679.77 937.855 690.167 900.309 702.329L899.858 702.228C899.444 698.429 906.506 680.565 908.301 676.344Q909.144 674.329 910.072 672.352Q911.001 670.374 912.013 668.439Q913.026 666.504 914.121 664.614Q915.216 662.724 916.392 660.882Q917.567 659.041 918.821 657.252Q920.074 655.463 921.403 653.73Q922.733 651.997 924.135 650.322Q925.538 648.648 927.011 647.035Q928.485 645.422 930.026 643.875Q931.568 642.327 933.174 640.847Q934.781 639.367 936.449 637.957Q938.118 636.548 939.846 635.211Q941.574 633.875 943.357 632.614Q945.141 631.353 946.978 630.17Q948.814 628.987 950.699 627.885Q952.585 626.782 954.516 625.761C966.342 619.537 979.261 614.98 991.649 609.992Z"/>
	<path fill="#9F8BE8" d="M772.329 305.463C779.247 309.074 789.817 316.627 796.569 321.248C822.922 339.282 844.617 364.286 854.908 394.848C857.703 403.147 859.332 411.655 860.955 420.238C857.659 417.664 854.43 414.94 850.866 412.737C841.978 407.242 832.474 402.969 823.883 396.938C796.514 377.724 781.541 336.534 772.329 305.463Z"/>
	<path fill="#9F8BE8" d="M973.853 773.521C975.38 777.007 974.407 788.245 974.353 792.586C963.928 795.337 953.534 797.83 942.852 799.371C907.571 804.46 835.486 807.128 802.718 792.92C800.811 788.804 801.062 780.28 800.515 775.537C837.395 786.235 938.682 787.802 973.853 773.521Z"/>
	<path fill="#9F8BE8" d="M763.583 419.069Q770.205 421.689 776.671 424.672C813.318 441.82 840.393 475.094 854.119 512.76C838.569 506.832 822.329 502.037 808.246 492.94C782.46 476.282 769.739 448.147 763.583 419.069Z"/>
	<path fill="#504170" d="M763.709 642.585C767.032 642.578 775.041 646.755 778.44 647.958C781.373 648.996 784.407 649.783 787.413 650.577C800.076 653.919 812.227 656.071 825.314 657.006L825.323 657.661C825.401 672.601 819.136 684.649 808.668 694.975C794.502 707.339 786.087 707.6 768.277 709.615C766.504 694.487 763.995 679.405 761.967 664.302C761.092 657.787 759.844 651.132 759.604 644.574C760.415 643.476 762.401 643.067 763.709 642.585Z"/>
	<path fill="#9F8BE8" d="M152.814 720.522C173.783 721.448 194.819 721.353 215.805 721.482C226.164 721.546 236.716 721.18 247.037 722.037C262.239 723.298 277.664 727.358 292.709 730.044C299.538 731.263 311.043 731.965 317.073 734.68C317.757 736.178 317.499 737.852 317.439 739.459C262.88 741.109 208.053 740.072 153.48 739.109L152.814 720.522Z"/>
	<path fill="#FEFEFE" d="M317.599 357.67C320.041 358.781 319.94 369.297 321.123 372.136C324.178 379.464 330.879 378.177 332.928 381.284C332.16 383.148 330.078 383.104 328.957 384.729C328.115 385.949 327.554 387.791 326.931 389.164C322.98 390.929 318.869 389.656 314.748 390.024C313.438 390.14 313.272 390.394 312.466 391.438C311.893 392.18 311.546 393.109 311.776 394.042C312.634 397.52 318.746 400.103 321.484 402.086C323.054 403.222 324.415 404.674 324.663 406.68C324.94 408.915 323.712 411.069 322.34 412.735C314.057 422.79 301.035 412.054 293.977 412.749C291.515 415.617 291.469 423.737 290.982 427.467C280.314 422.881 269.924 417.147 259.529 411.952L258.05 411.035C256.879 407.588 261.976 398.911 262.826 394.676L262.971 393.935C270.236 398.039 275.728 403.968 284.573 404.873C286.237 405.043 287.175 404.776 288.462 403.745C288.777 402.863 288.908 402.485 288.691 401.535C287.88 397.984 278.168 397.288 275.006 395.291C272.209 393.525 270.667 390.928 269.947 387.74C268.989 383.499 269.165 377.999 271.696 374.296C272.669 372.871 274.07 371.744 275.821 371.514C286.398 370.122 281.631 383.459 286.189 387.19C288.204 387.007 287.915 386.012 289.424 385.402C290.738 384.87 292.329 385.257 293.793 384.561C296.568 380.888 297.569 376.845 298.864 372.515C302.474 370.255 307.937 369.547 310.052 365.508C310.9 363.891 310.918 361.485 311.969 360.055C313.396 358.112 315.379 358.03 317.599 357.67Z"/>
	<path d="M313.16 365.397C314.803 365.663 316.769 365.823 318.037 367.032C318.909 367.863 319.38 368.793 319.296 370.013C319.18 371.698 318.075 372.793 316.974 373.94L315.533 373.875C313.761 372.637 311.634 370.896 311.582 368.489C311.549 366.951 312.244 366.469 313.16 365.397Z"/>
	<path d="M309.6 376.121C310.106 376.265 310.546 376.364 311.018 376.629C312.412 377.414 313.032 378.972 313.217 380.487C313.531 383.05 312.711 385.424 311.229 387.471C309.465 386.439 308.375 385.28 307.857 383.281C307.161 380.595 308.193 378.344 309.6 376.121Z"/>
	<path fill="#9F8BE8" d="M152.965 744.737Q162.949 745.274 172.944 745.549L154.1 906.381L152.892 918.971L146.678 918.409C148.676 884.097 149.424 849.663 150.45 815.31L152.965 744.737Z"/>
	<path fill="#9F8BE8" d="M950.446 910.905C952.294 911.258 954.151 911.609 955.978 912.061C959.552 912.944 965.876 914.9 967.431 918.536C967.929 919.7 967.754 920.631 967.214 921.734C965.882 924.456 960.81 925.969 958.203 927.049C924.82 938.251 868.671 936.955 834.096 930.47C827.806 929.291 820.78 928.239 814.862 925.799C812.654 924.889 809.218 923.181 808.473 920.658C808.082 919.334 808.223 918.452 808.948 917.282C811.371 913.368 819.888 911.829 824.179 911.13C826.908 911.225 835.587 917.02 839.353 918.383C846.804 921.079 855.978 921.894 863.832 922.67C886.077 924.865 932.827 925.383 950.446 910.905Z"/>
	<path fill="#FEFEFE" d="M669.444 343.876C670.888 345.085 672.138 347.08 673.314 348.569C677.101 353.363 680.904 357.976 686.14 361.253C692.95 365.516 702.668 365.66 708.462 371.205C711.655 374.261 712.45 378.335 712.492 382.593C712.564 389.893 707.976 396.068 703.014 401.011C697.944 406.061 684.789 416.131 677.47 415.8C676.008 415.734 674.457 415.148 673.561 413.94C672.31 412.253 672.609 410.052 672.721 408.092L672.769 407.337C675.21 405.85 677.397 404.382 679.563 402.501C681.344 400.488 682.293 398.495 683.014 395.919C683.473 394.279 683.67 393.397 682.845 391.883C682.265 391.639 682.242 391.587 681.519 391.521C678.187 391.214 671.275 395.269 668.942 397.499L669.898 399.158C672.641 398.93 675.422 398.122 678.108 397.521C675.707 398.952 672.113 401.76 669.165 401.037C666.897 400.481 665.904 396.834 664.908 394.982C663.274 391.941 661.142 391.454 658.041 390.567C661.546 384.238 665.987 380.823 664.195 372.984C663.558 370.201 662.555 367.414 662.603 364.541C666.502 357.452 673.882 363.895 678.756 360.879C678.839 360.447 678.989 359.802 678.941 359.372C678.808 358.168 678.082 357.206 677.085 356.572C673.443 354.258 666.173 355.912 662.204 356.711C664.012 351.932 666.548 348.066 669.444 343.876Z"/>
	<path d="M671.431 367.061C673.874 366.934 675.98 367.026 678.279 367.944C680.566 368.857 682.24 369.768 683.195 372.121C683.196 373.593 683.008 374.224 682.248 375.484C679.479 376.728 676.736 371.594 673.459 371.31L672.258 372.408C672.92 374.826 674.261 376.734 675.339 378.97C675.212 380.366 675.406 380.641 674.383 381.567C674.174 381.545 673.961 381.542 673.754 381.501C671.831 381.121 670.364 379.444 669.341 377.87C668.052 375.886 667.548 372.254 668.271 369.988C668.769 368.426 670.104 367.8 671.431 367.061Z"/>
	<path fill="#9F8BE8" d="M300.343 441.333C302.207 442.949 303.624 446.423 304.778 448.611C316.312 470.484 324.724 494.842 332.278 518.343C335.063 527.006 338.057 535.675 340.298 544.496Q334.248 544.609 328.25 545.415C318.851 546.285 309.985 548.864 301.043 551.729Q302.054 536.389 303.67 521.1C305.598 503.069 308.156 485.162 306.032 467.007C305.005 458.228 302.688 449.826 300.343 441.333Z"/>
	<path fill="#9F8BE8" d="M797.215 601.249C806.067 608.988 816.103 614.882 826.939 619.368C826.863 629.933 829.284 640.685 830.8 651.123C822.166 651.107 813.905 650.362 805.386 649.036C792.948 646.289 779.888 643.41 768.535 637.46C780.898 628.811 790.202 614.438 797.215 601.249Z"/>
	<path fill="#9F8BE8" d="M763.157 547.829C765.37 549.326 769.707 562.937 771.129 566.232C776.127 577.81 784.279 588.35 793.171 597.179C787.577 607.671 781.013 617.566 773.05 626.417C768.413 631.003 763.761 634.913 758.31 638.499C757.391 628.272 755.378 617.725 755.279 607.495C755.207 600.043 756.752 592.133 757.724 584.728C759.322 572.545 760.754 559.863 763.157 547.829Z"/>
	<path fill="#9F8BE8" d="M862.63 701.004L862.815 701.072C864.177 703.059 863.067 717.778 862.985 720.936C853.712 723.396 843.97 724.819 834.502 726.308Q803.299 731.328 771.738 732.972Q770.583 724.021 769.334 715.082C782.476 714.446 795.569 712.941 808.634 711.432C826.713 709.345 845.575 707.734 862.63 701.004Z"/>
	<path fill="#FEFEFE" d="M509.666 473.69Q524.443 473.927 539.221 473.97C539.661 491.001 540.478 508.12 533.02 523.911C531.415 526.342 529.855 528.417 527.781 530.472C525.046 530.643 522.259 530.537 519.517 530.539C507.366 513.442 509.246 493.523 509.666 473.69Z"/>
	<path fill="#FEFEFE" d="M413.136 878.988C418.679 878.75 424.319 879.203 429.872 879.349Q441.203 879.566 452.536 879.55C460.501 892.397 470.201 901.074 482.977 908.771L476.124 909.361C451.457 910.386 429.604 901.51 407.018 893.027C408.82 888.252 411.024 883.632 413.136 878.988Z"/>
	<path fill="#FEFEFE" d="M588.365 560.797C608.963 559.297 645.262 560.356 664.215 568.362C648.784 573.753 630.972 574.455 614.75 574.601C601.174 574.782 551.099 574.77 541.191 569.308C540.254 568.791 540.544 569.1 540.242 568.079C546.382 562.254 578.875 561.217 588.365 560.797Z"/>
	<path fill="#FEFEFE" d="M461.039 458.551C470.67 458.417 480.327 458.641 489.957 458.8C489.945 475.417 491.642 488.162 484.094 503.756C482.709 506.185 481.359 508.317 479.528 510.447Q478.282 510.538 477.034 510.608C474.137 510.767 471.85 510.831 469.64 508.682C467.628 506.727 466.508 503.778 465.516 501.204C460.126 487.225 460.868 473.229 461.039 458.551Z"/>
	<path fill="#FEFEFE" d="M318.976 869.501C325.838 872.983 332.356 877.111 339.305 880.462C344.189 882.816 349.373 884.615 354.451 886.505C361.14 897.155 369.143 906.065 378.484 914.426C374.952 914.497 371.522 914.21 368.009 913.871C345.086 910.779 326.059 900.078 308.801 885.07C312.21 880.083 316.319 874.903 318.976 869.501Z"/>
	<path fill="#9F8BE8" d="M294.124 746.071Q303.991 745.851 313.859 745.972Q314.257 759.216 315.373 772.418C316.102 781.486 317.963 792.019 316.543 801.006C315.277 809.022 311.993 817.287 309.536 825.047L307.197 832.132C302.238 803.647 297.462 774.78 294.124 746.071Z"/>
	<path fill="#504170" d="M886.545 760.039C914.389 759.817 943.537 760.649 970.396 768.618C967.924 769.632 965.315 770.384 962.777 771.222C937.855 777.537 912.298 777.849 886.767 777.884C886.428 771.934 886.501 765.996 886.545 760.039Z"/>
	<path fill="#FEFEFE" d="M436.748 560.29C456.042 558.731 493.375 560.361 511.06 567.565C499.48 572.512 486.057 572.631 473.642 573.148C453.419 574.665 420.367 574.094 400.521 570.698C408.31 568.183 415.153 565.007 422.054 560.601Q429.404 560.583 436.748 560.29Z"/>
	<path fill="#504170" d="M873.208 760.279C875.753 760.144 878.314 760.159 880.863 760.122Q881.172 768.917 880.419 777.686C866.685 777.249 852.784 777.24 839.092 776.03C830.361 775.258 821.686 773.83 813.044 772.397C809.659 771.812 804.534 771.577 801.892 769.151L801.96 768.266C810.103 761.402 860.544 760.504 873.208 760.279Z"/>
	<path fill="#FEFEFE" d="M406.257 532.509C406.386 537.422 401.124 541.323 401.862 546.556C402.491 547.531 402.699 548.037 403.807 548.512C408.961 550.725 419.033 546.269 424.076 544.451C423.362 546.171 422.71 547.926 421.788 549.55C415.513 560.591 402.927 563.8 391.612 567.108C385.836 568.677 379.945 569.954 374.125 571.363C373.062 565.48 371.56 559.852 369.598 554.204C387.851 548.755 392.83 545.98 406.257 532.509Z"/>
	<path fill="#9F8BE8" d="M391.264 574.409C395.027 574.18 399.532 575.5 403.318 576.071C409.094 576.942 414.829 577.637 420.663 577.968C448.626 579.554 477.472 579.229 505.311 576.169C503.454 577.435 501.565 578.469 499.574 579.501C475.904 589.422 424.597 589.614 400.206 580.805C396.75 579.557 392.894 577.867 391.264 574.409Z"/>
	<path fill="#9F8BE8" d="M181.231 694.163C183.014 694.287 190.899 700.558 193.148 701.894C202.999 707.745 213.84 712.088 224.787 715.353C218.856 715.68 212.818 715.47 206.875 715.458Q185.833 715.048 164.788 714.9Q164.609 705.785 164.523 696.668C170.119 696.301 175.708 695.111 181.231 694.163Z"/>
	<path fill="#9F8BE8" d="M681.363 505.819C682.725 510.91 681.948 526.699 682.42 533.664C683.29 546.513 685.132 559.384 686.634 572.174Q680.66 571.457 674.678 570.814C673.741 570.749 672.499 570.787 671.611 570.515C670.369 570.133 669.989 568.616 669.608 567.5C668.928 565.506 668.143 564.778 666.615 563.395C670.224 543.871 674.135 524.399 681.363 505.819Z"/>
	<path fill="#9F8BE8" d="M825.392 680.797C836.948 683.869 852.528 686.659 861.311 695.084C853.023 698.517 844.484 700.299 835.696 701.859Q819.881 704.601 803.901 706.103C813.155 698.573 819.893 691.468 825.392 680.797Z"/>
	<path fill="#9F8BE8" d="M544.238 576.575C550.85 575.821 565.235 579.024 572.865 579.466C601.121 581.101 631.13 581.145 659 576.096C656.898 577.48 654.7 578.625 652.472 579.787C647.72 581.699 643.012 583.303 638.02 584.479C612.816 590.417 566.686 590.568 544.238 576.575Z"/>
	<path fill="#FEFEFE" d="M741.084 414.087C742.378 414.282 746.238 419.391 747.565 420.706Q735.263 428.344 723.799 437.19C720.026 440.112 716.417 443.822 712.376 446.298C709.914 437.756 706.682 429.447 704.166 420.908C716.496 419.59 729.052 417.099 741.084 414.087Z"/>
	<path fill="#FEFEFE" d="M196.596 16.3975L197.261 16.5868C199.889 19.2868 203.401 22.1423 205.07 25.5211C205.074 27.3648 204.578 28.3262 203.435 29.772C200.018 34.0921 194.102 40.6696 189.353 43.3694C188.117 44.0714 186.608 44.2119 185.221 44.3776C181.615 43.7415 178.927 42.9322 176.672 39.8663C175.245 37.926 174.385 35.9065 174.873 33.4722C176.122 27.2453 191.161 19.7579 196.596 16.3975Z"/>
	<path fill="#FEFEFE" d="M305.098 889.529C308.6 891.815 311.83 894.914 315.179 897.463C326.63 906.177 339.141 913.661 353.222 917.155C358.04 918.351 363.103 918.976 368.042 919.413C372.108 919.773 381.826 918.787 385.062 920.48C385.55 921.787 385.395 921.806 384.879 923.128L383.373 923.762C379.494 924.61 375.466 924.925 371.501 924.866C351.046 924.561 332.86 916.413 315.966 905.447C311.202 902.355 306.386 899.336 302.431 895.215C303.186 893.271 304.183 891.403 305.098 889.529Z"/>
	<path fill="#FEFEFE" d="M636.471 75.4942C641.822 80.9035 645.941 87.9646 649.611 94.5987Q649.338 95.168 649.05 95.7294C646.408 100.835 642.506 102.933 637.216 104.589C635.726 104.54 634.421 104.501 633.04 103.836C628.265 101.537 624.814 86.789 623.226 81.4316C627.386 79.1346 632.12 77.4432 636.471 75.4942Z"/>
	<path fill="#FEFEFE" d="M693.088 28.0423C699.001 28.9291 703.339 33.5878 707.277 37.8455C709.104 39.8211 711.75 42.7924 711.332 45.7119C710.766 49.6553 705.327 52.8921 702.253 54.9337C701.964 55.0248 701.678 55.1253 701.386 55.207C699.56 55.7187 697.81 55.7695 696.178 54.6724C690.512 50.8624 685.902 40.3516 684.423 33.8518C686.965 31.6478 690.267 29.919 693.088 28.0423Z"/>
	<path fill="#FEFEFE" d="M574.385 106.617L576.019 106.511C578.116 108.583 583.462 122.755 583.967 126.097C584.144 127.264 583.449 128.236 582.705 129.072C579.939 132.185 575.196 133.929 571.145 134.228C569.709 133.851 567.8 133.399 566.652 132.435C562.224 128.71 561.683 115.669 560.827 110.039C565.243 108.608 569.869 107.688 574.385 106.617Z"/>
	<path fill="#FEFEFE" d="M405.417 898.617C423.465 905.283 442.38 913.936 461.864 915.096C470.452 915.608 478.825 914.425 487.361 914.419C488.927 914.418 489.849 914.536 490.975 915.635L490.864 916.596L489.385 917.607C462.339 925.072 428.498 915.365 403.577 903.796L405.417 898.617Z"/>
	<path fill="#FEFEFE" d="M232.055 56.3426C235.67 58.095 239.211 61.8846 242.105 64.6533C239.945 69.5787 237.076 74.846 233.9 79.1993C231.456 82.5482 229.966 84.0505 225.857 84.6833C222.981 84.3935 220.605 83.8425 218.438 81.8105C216.691 80.1735 215.233 78.3137 215.198 75.8255C215.112 69.8648 227.669 60.6292 232.055 56.3426Z"/>
	<path fill="#FEFEFE" d="M423.08 126.711C427.819 126.643 432.592 126.923 437.33 127.073C438.618 132.87 440.283 141.455 439.382 147.248C438.942 150.072 437.29 151.127 435.077 152.646C432.165 153.461 428.279 153.9 425.329 153.016C423.546 152.482 422.143 151.219 421.326 149.559C419.434 145.712 421.532 130.934 423.08 126.711Z"/>
	<path fill="#FEFEFE" d="M247.542 413.246C263.888 419.647 278.852 428.534 294.911 435.496C294.722 437.549 294.742 440.561 293.36 442.173L292.374 442.116C282.214 438.353 272.363 433.56 262.438 429.215C256.121 426.45 249.309 424.197 243.358 420.735C244.246 417.664 245.368 415.615 247.542 413.246Z"/>
	<path fill="#FEFEFE" d="M507.957 122.205C508.463 122.312 508.101 122.204 508.888 122.852C511.208 129.026 514.124 136.554 514.398 143.18C514.432 144.009 513.648 145.066 513.057 145.644C510.219 148.417 505.425 149.187 501.632 149.245C500.241 148.887 498.508 148.54 497.321 147.692C493.593 145.028 494.648 129.58 494.26 124.657Q501.094 123.352 507.957 122.205Z"/>
	<path fill="#FEFEFE" d="M355.074 114.316C357.782 115.45 367.784 117.937 368.958 120.166C370.109 122.352 369.285 125.606 368.711 127.895C367.664 132.072 366.287 138.283 362.421 140.617C359.389 140.98 355.514 140.603 352.698 139.364Q352.339 139.202 351.999 139.003Q351.659 138.803 351.342 138.569Q351.025 138.334 350.735 138.067Q350.445 137.8 350.185 137.504Q349.925 137.208 349.698 136.886Q349.471 136.563 349.28 136.219Q349.088 135.874 348.935 135.511Q348.781 135.148 348.667 134.771C346.875 128.867 352.48 119.481 355.074 114.316Z"/>
	<path fill="#FEFEFE" d="M281.697 91.2404C286.075 93.4071 290.392 95.5893 294.606 98.0676C291.839 104.277 289.741 114.617 283.621 117.961C280.423 118.397 277.491 117.974 274.816 116.05C272.917 114.684 271.412 112.797 271.076 110.429C270.254 104.65 278.365 95.8678 281.697 91.2404Z"/>
	<path fill="#9F8BE8" d="M323.002 735.429Q330.431 736.068 337.871 736.567C332.259 747.542 328.548 758.386 325.187 770.217C324.25 773.528 323.307 776.812 322.145 780.052C320.638 768.692 320.32 757.059 320.02 745.611L322.955 742.333L323.002 735.429Z"/>
	<path fill="#FEFEFE" d="M518.71 567.908C522.69 567.791 526.652 567.856 530.632 567.943C532.539 570.551 537.406 574.194 538.267 577.067C538.492 577.819 538.102 578.063 537.733 578.675C535.607 579.699 533.306 579.545 530.991 579.611Q525.823 580.07 520.637 579.908Q515.45 579.745 510.321 578.964C513.506 575.454 516.536 572.154 518.71 567.908Z"/>
	<path fill="#9F8BE8" d="M705.449 445.308C705.524 445.353 705.603 445.391 705.673 445.444C706.886 446.371 707.198 449.649 707.527 451.135C703.21 455.39 699.235 459.868 695.369 464.528L694.776 465.212C694.294 460.648 702.486 448.978 705.449 445.308Z"/>
	<path fill="#FEFEFE" d="M475.117 534.033L475.861 534.084C476.065 540.855 478.377 547.758 478.117 554.445C477.814 554.664 477.531 554.893 477.168 555.019C475.871 555.472 475.403 555.351 474.2 554.892C473.65 554.092 473.375 553.459 473.328 552.494C473.209 550.042 474.141 547.448 474.4 544.995C474.783 541.364 474.918 537.679 475.117 534.033Z"/>
	<path fill="#FEFEFE" d="M522.089 536.407C523.337 536.462 524.847 536.232 525.858 536.977C523.952 545.609 524.288 553.5 526.057 562.113L523.237 562.177C522.202 561.539 522.51 561.179 522.572 560C523.075 550.427 525.074 546.327 522.089 536.407Z"/>
	<path fill="#FEFEFE" d="M475.117 534.033C475.128 531.846 475.197 529.59 474.962 527.415C474.59 523.982 472.994 519.717 473.594 516.364C474.879 516.019 475.732 515.992 477.033 516.085C477.553 516.998 477.62 516.901 477.577 518.064C477.48 520.666 476.427 523.177 476.034 525.745C475.627 528.398 475.835 531.402 475.861 534.084L475.117 534.033Z"/>
	<path fill="#FEFEFE" d="M289.629 85.312C289.815 85.3242 290.003 85.3197 290.187 85.3485C291.828 85.6052 293.224 86.7219 294.253 87.9756C295.19 89.1177 296.167 90.5332 295.988 92.0616L295.267 92.0576C293.048 90.5767 289.121 90.0449 287.636 87.8673C287.804 86.4475 288.583 86.204 289.629 85.312Z"/>
	<path fill="#FEFEFE" d="M686.916 21.8543C687.847 21.8562 688.828 22.0252 689.757 22.1168L690.383 23.5013L690.627 23.2715C688.826 24.9794 686.525 25.9226 684.319 27.0094C683.515 27.4615 682.92 27.6537 682.042 27.8964C681.618 27.3178 681.536 27.473 681.714 26.7944C682.361 24.3375 684.899 23.0438 686.916 21.8543Z"/>
	<path fill="#FEFEFE" d="M204.146 12.8408C205.164 13.0895 206.379 13.423 207.278 13.9728C208.463 14.698 209.04 15.6062 209.363 16.9416C209.165 18.329 208.966 19.0213 208.173 20.2292C206.299 18.4573 203.285 16.7431 202.849 14.07L204.146 12.8408Z"/>
	<path fill="#FEFEFE" d="M500.459 114.538C501.916 114.711 502.986 114.994 504.353 115.53L504.641 116.306C503.299 117.529 501.583 117.616 499.861 117.924C498.63 118.19 497.583 118.555 496.368 118.043L496.442 117.217C497.75 115.931 498.779 115.264 500.459 114.538Z"/>
	<path fill="#FEFEFE" d="M428.966 118.466C430.983 118.652 433.082 118.847 434.826 119.931L434.828 120.74L433.439 121.514C431.454 121.481 428.544 121.847 426.87 120.889C427.288 119.594 427.926 119.311 428.966 118.466Z"/>
	<path fill="#FEFEFE" d="M240.33 52.1612C241.362 52.5533 242.573 52.9002 243.335 53.7378Q243.539 53.9656 243.718 54.2135Q243.897 54.4614 244.049 54.7267Q244.201 54.992 244.325 55.2717Q244.448 55.5515 244.542 55.8427Q244.635 56.1338 244.698 56.4332Q244.76 56.7325 244.791 57.0368Q244.822 57.341 244.82 57.6468Q244.819 57.9526 244.786 58.2566L244.248 58.1272Q243.135 57.4389 242.032 56.7349C240.527 55.7714 239.319 55.1349 238.916 53.3061L240.33 52.1612Z"/>
</svg>
