<?xml version="1.0" encoding="utf-8" ?>
<svg xmlns="http://www.w3.org/2000/svg" xmlns:xlink="http://www.w3.org/1999/xlink" width="1024" height="1024">
	<path fill="#9F8BE8" d="M0 0L14.4182 0L51.384 0L104.639 0L139.854 0L201.147 0L236.89 0L305.352 0L341.385 0L396.522 0L431.815 0L1024 0L1024 797.42L1024 1024L0 1024L0 846.975L0 136.533L0 130.758L0 67.5593L0 63.0433L0 0Z"/>
	<path fill="#47318F" d="M0 0L14.4182 0L51.384 0L104.639 0L139.854 0L201.147 0L236.89 0L305.352 0L341.385 0L396.522 0L431.815 0C439.427 8.16014 445.655 17.1186 452.016 26.2453C450.598 52.041 442.899 81.6126 422.988 99.5703C414.936 106.833 404.506 111.046 393.57 110.366C383.765 109.755 373.758 105.47 367.243 98.0061C359.932 89.6292 356.79 79.0872 355.284 68.2996C348.246 86.7324 338.595 106.782 319.526 115.164C311.905 118.514 304.739 119.611 296.474 119.525L296.504 770.262Q148.712 777.328 1.01862 786.248L0.941891 847.192L0 846.975L0 136.533L0 130.758L0 67.5593L0 63.0433L0 0Z"/>
	<path fill="#9F8BE8" d="M0.753809 137.366C9.10529 143.707 17.5658 145.668 27.9651 144.275C42.0349 142.39 54.1418 133.539 62.5417 122.449C67.1963 116.304 70.6073 109.505 73.5107 102.389C74.7153 99.4372 75.7021 96.2301 77.1602 93.4031C78.3231 104.08 81.6595 112.964 88.4801 121.29L88.939 391.437L88.8034 458.684C88.823 472.501 89.153 486.385 88.8162 500.194C59.6874 501.195 30.4573 503.017 1.36935 504.878Q1.57063 515.693 1.42364 526.509C11.0168 525.594 20.6741 525.284 30.294 524.735L88.5118 521.449C89.9025 600.433 88.4624 679.468 88.8525 758.457L33.6025 761.255C22.7833 761.797 11.8455 762.679 1.01172 762.496L1.01862 786.248L0.941891 847.192L0 846.975L0 136.533L0.753809 137.366Z"/>
	<path fill="#FEFDFD" d="M0 136.533L0.753809 137.366L0.955113 617.008C0.979293 665.485 0.372925 714.027 1.01172 762.496L1.01862 786.248L0.941891 847.192L0 846.975L0 136.533Z"/>
	<path fill="#9F8BE8" d="M79.901 61.0179C74.7142 86.7779 68.0862 116.94 44.6295 132.435C36.0789 138.083 25.6991 141.318 15.4623 139.145C9.36913 137.852 4.60759 134.863 0 130.758L0 67.5593C12.0353 67.3851 24.2283 65.972 36.227 64.962C50.7662 63.7381 65.4195 62.7582 79.901 61.0179Z"/>
	<path fill="#9F8BE8" d="M139.854 0L201.147 0C208.882 9.60847 217.099 18.9174 224.918 28.4855C228.851 33.2986 233.228 38.1469 236.268 43.5835C217.2 45.4536 198.094 46.6528 179.004 48.2176C173.698 40.3121 167.077 33.3791 161.013 26.0648C153.87 17.4485 147.068 8.56141 139.854 0Z"/>
	<path fill="#9F8BE8" d="M51.384 0L104.639 0C117.52 17.0327 130.809 33.6961 143.504 50.8831Q129.01 52.5016 114.471 53.6545C107.87 54.1851 101.133 54.4472 94.5824 55.4082C90.4773 46.3539 79.1187 33.9612 72.5468 26.0168Q61.8911 13.0683 51.384 0Z"/>
	<path fill="#9F8BE8" d="M236.89 0L305.352 0C315.067 10.7118 323.878 22.6407 332.582 34.1786C324.705 36.1653 315.66 36.1812 307.537 36.8892Q288.034 38.5493 268.594 40.8256C258.996 26.7121 248.496 12.5208 236.89 0Z"/>
	<path fill="#9F8BE8" d="M0 0L14.4182 0Q28.3389 18.1375 42.8399 35.8146C48.8085 43.1514 55.3756 50.4106 60.6691 58.2281C48.6943 60.6658 35.4653 61.0536 23.2527 61.8281C15.5527 62.3165 7.71346 63.1525 0 63.0433L0 0Z"/>
	<path fill="#9F8BE8" d="M341.385 0L396.522 0C403.285 8.62667 409.736 17.2164 415.796 26.3632C409.652 26.624 403.414 27.6155 397.293 28.2808Q380.825 30.2128 364.286 31.3851C357.069 20.5735 349.31 10.2925 341.385 0Z"/>
	<path fill="#9F8BE8" d="M261.827 80.9357C263.47 83.9167 262.949 90.6118 263.031 94.1837C264.186 144.767 263.278 195.54 263.209 246.138L262.972 490.568C240.732 493.17 217.865 493.289 195.487 494.464C167.279 495.944 138.956 498.247 110.735 499.038L110.98 458.75L111.067 236.796L111.423 170.693C111.446 159.445 110.686 147.757 111.423 136.565C120.586 135.206 126.559 136.238 135.481 131.911C153.804 123.023 164.652 103.625 171.103 85.1745C171.717 92.4946 173.85 99.8758 176.99 106.505C181.498 116.025 188.722 123.266 198.77 126.793C208.275 130.13 218.82 128.606 227.735 124.264C244.763 115.97 255.742 98.2637 261.827 80.9357Z"/>
	<path fill="#9F8BE8" d="M251.342 512.286C255.225 511.96 259.154 512.037 263.048 512.012C263.538 532.619 262.968 553.313 263.071 573.933L263.442 748.645C239.626 750.61 215.601 751.3 191.74 752.606C168.131 753.898 144.499 755.83 120.875 756.681L110.796 757.004C110.33 734.914 110.995 712.682 110.992 690.572L110.787 520.31C140.785 519.105 170.855 517.296 200.816 515.387C217.641 514.315 234.495 512.89 251.342 512.286Z"/>
	<path fill="#9F8BE8" d="M167.257 53.709C169.363 53.4304 171.664 53.5184 173.797 53.4317C170.566 73.125 163.793 98.0317 150.698 113.361C142.613 122.825 132.093 130.722 119.218 131.511C110.461 132.048 102.927 128.51 96.5216 122.837C94.0422 120.452 91.6703 117.918 89.7304 115.068C86.7985 110.761 84.8073 105.993 83.3306 101.013C78.9473 86.2321 81.6295 75.2034 84.4462 60.5697C92.4794 60.8595 101.013 59.4456 109.031 58.774C128.446 57.1478 147.818 55.035 167.257 53.709Z"/>
	<path fill="#9F8BE8" d="M259.952 45.7097C261.432 45.5075 262.702 45.4713 264.194 45.5512C264.415 46.0014 264.477 46.0619 264.566 46.6346C265.058 49.824 263.559 54.4746 262.93 57.7168C259.366 76.0955 253.781 93.8204 240.875 107.897C233.473 115.969 222.798 123.234 211.513 123.621C202.638 123.926 194.919 120.294 188.51 114.367Q185.266 111.058 182.893 107.079C171.917 88.7827 173.897 72.6397 178.724 53.0845C188.61 51.8529 198.676 51.3954 208.606 50.5463L259.952 45.7097Z"/>
	<path fill="#9F8BE8" d="M354.605 37.231C355.167 37.1344 355.616 37.2441 356.174 37.3299C356.342 37.8697 356.43 38.0549 356.453 38.691C356.569 41.7896 355.669 45.4731 355.132 48.515C351.838 67.1827 343.824 88.058 330.536 101.878C323.425 109.273 312.358 114.614 302.025 114.787C292.963 114.938 285.441 110.825 279.102 104.678C278.054 103.472 277.004 102.261 276.022 101.001C269.522 92.6646 265.26 79.3337 265.906 68.8039C266.385 60.9895 268.751 53.1109 269.684 45.302C297.978 43.2999 326.363 39.985 354.605 37.231Z"/>
	<path fill="#9F8BE8" d="M442.796 28.6932C444.232 28.5756 445.138 28.2982 446.452 28.9321C446.506 29.2756 446.558 29.6195 446.593 29.9654C447.062 34.6934 445.731 40.1432 444.746 44.7683C441.367 60.625 436.478 76.834 425.821 89.454C418.434 98.2009 408.435 104.617 396.814 105.523C387.26 106.269 379.64 102.434 372.614 96.3785C371.621 95.367 370.644 94.336 369.779 93.2109C361.575 82.5403 358.385 67.9415 358.938 54.6602C359.187 48.6993 360.316 42.5198 361.101 36.5954C388.285 33.5037 415.592 31.5994 442.796 28.6932Z"/>
	<path d="M437.106 136.811C433.279 133.264 429.874 129.311 429.559 123.826C429.241 118.278 433.367 111.411 437.051 107.443C441.946 102.17 448.41 99.6119 455.511 99.3299C465.334 98.9398 473.046 103.613 482.406 104.991C497.113 107.157 520.429 100.771 532.128 112.24C536.384 116.413 536.456 120.863 536.561 126.425C539.861 131.982 546.203 134.882 550.753 139.333C556.114 144.579 558.945 151.187 558.823 158.726C558.535 176.641 539.331 200.09 526.746 211.842C528.006 213.557 529.525 215.413 530.467 217.317C531.898 220.212 532.773 225.187 534.933 227.445C536.902 227.767 539.241 227.942 540.827 229.259C543.327 231.335 543.907 234.864 544.245 237.89C551.271 242.13 554.145 246.977 558.113 253.981C557.866 249.704 558.731 245.224 558.238 241.044C557.875 237.966 556.251 235.047 555.636 231.985C554.13 224.502 564.744 219.761 568.606 214.152C568.716 213.993 568.821 213.832 568.928 213.672L567.594 205.538C569.939 199.979 572.72 194.301 574.503 188.543C576.101 183.379 576.471 178.037 578.902 173.115C582.004 166.832 587.68 162.705 594.25 160.608C611.004 155.259 640.212 158.945 655.534 166.884C674.412 176.665 686.491 194.408 690.976 215.02C692.892 223.826 693.846 233.266 698.406 241.215C704.222 251.356 716.032 256.19 719.589 267.988C721.862 275.529 720.625 284.366 716.753 291.186C710.504 302.193 696.897 302.148 685.974 305.079Q688.861 307.579 691.209 310.592C705.094 328.769 704.822 357.561 701.883 379.209C699.72 395.146 689.678 439.556 682.444 452.784C681.046 455.341 679.473 456.904 677.168 458.655C678.656 471.022 688.875 484.214 694 495.895Q702.249 515.017 707.871 535.069C720.006 578.618 720.927 624.373 716.465 669.157Q714.815 684.681 712.786 700.161C712.095 705.585 710.969 711.303 710.955 716.762C710.955 716.937 710.959 717.113 710.961 717.288C707.582 718.863 704.154 720.051 700.614 721.211C709.417 738.229 726.504 756.006 738.957 770.702C750.362 784.161 761.383 797.916 773.052 811.16C785.083 824.66 811.211 855.812 824.667 864.541C827.959 866.676 832.075 866.923 835.766 868.022C843.177 870.23 851.677 876.161 857.383 881.205C848.664 911.5 828.866 944.157 800.67 959.904Q798.865 960.932 796.981 961.808Q795.098 962.684 793.148 963.401Q791.198 964.119 789.196 964.672Q787.194 965.226 785.153 965.612C781.347 961.43 778.889 957.624 777.045 952.198C779.894 946.693 782.699 941.213 784.923 935.417C788.196 926.89 796.236 898.964 793.862 891.096C792.679 887.178 789.491 883.28 786.562 880.499C777.295 871.698 766.301 864.812 756.092 857.201C737.433 843.293 718.817 829.009 701.659 813.253C683.069 795.772 665.628 777.764 650.75 756.938C644.25 747.839 638.781 737.909 632.556 728.598C624.753 727.483 617.02 727.474 609.162 727.209L608.965 727.885C605.744 738.754 600.428 748.76 598.61 760.112C597.205 768.889 597.715 778.024 597.294 786.893C596.778 797.76 594.821 808.912 592.208 819.478C590.633 825.581 588.35 831.529 586.927 837.649C591.415 844.769 597.352 851.532 602.78 857.977C606.179 862.012 609.988 865.725 612.234 870.56C611.043 873.019 609.784 875.186 608.193 877.413C616.838 886.056 625.953 895.364 632.82 905.502C625.162 919.823 591.236 937.927 575.433 942.682C572.929 943.435 570.335 943.935 567.778 944.48C568.29 948.531 572.197 960.855 570.119 963.845C563.407 973.502 522.159 979.185 509.118 979.938C496.518 980.665 463.673 981.382 454.858 973.685C453.389 972.402 452.707 970.642 452.68 968.711C452.655 966.853 453.269 960.828 454.212 959.542C455.047 958.405 475.644 950.236 478.946 948.57C492.257 941.852 508.418 931.231 520.393 922.226C522.131 911.625 523.242 900.887 524.692 890.239C525.845 881.771 527.494 873.1 528.11 864.599C518.584 851.671 510.222 838.124 501.028 825.016C485.039 801.857 469.889 778.118 453.919 754.937C449.252 748.163 444.941 740.815 439.926 734.332C428.746 768.113 417.494 798.318 398.448 828.662C389.626 842.655 380.248 856.066 370.473 869.408C365.587 876.076 360.864 883.032 355.344 889.193C356.443 890.213 357.6 891.025 357.904 892.568C356.631 899.244 343.537 910.992 337.811 914.64C336.323 915.589 334.464 915.743 332.754 915.985C331.296 922.261 328.047 941.997 321.823 944.86C310.762 949.947 233.914 922.735 220.217 915.742C212.016 911.555 199.571 904.896 196.44 895.602C194.922 891.095 196.097 886.257 198.404 882.206C199.942 879.504 202.317 878.362 205.016 877.086C212.234 877.817 218.993 880.204 226.028 881.795C245.854 886.276 265.945 888.134 286.011 884.04C287.545 880.518 296.228 863.862 298.954 862.839C299.551 862.615 300.031 862.586 300.659 862.557C305.423 856.043 310.481 841.043 313.442 833.009C323.798 806.922 333.894 780.32 341.025 753.138Q346.233 732.905 350.981 712.559C354.428 697.364 357.539 682.337 362.1 667.416C368.518 646.418 376.615 625.774 384.401 605.246C387.18 597.919 391.331 590.279 393.235 582.749C395.211 574.935 393.632 565.082 393.593 557.021C393.576 553.533 394.142 550.009 393.832 546.543L393.284 546.576C392.274 547.704 392.532 549.41 391.98 550.802C391.689 550.921 391.393 551.028 391.106 551.158C384.481 554.172 380.908 563.956 378.497 570.085C375.329 572.453 372.363 574.14 368.66 575.489C366.119 575.105 363.617 574.471 361.114 573.9C361.072 573.966 361.029 574.032 360.988 574.1C360.419 575.036 359.868 575.979 359.055 576.73C357.619 578.057 355.702 579.056 353.701 578.902C351.792 578.755 350.138 577.699 348.936 576.249C344.533 570.932 344.535 559.119 345.103 552.527C346.578 535.421 357.562 523.709 370.204 513.223C373.159 504.478 375.3 495.469 378.093 486.667C380.826 478.054 383.947 469.565 386.639 460.938C391.326 445.913 395.578 430.442 399.406 415.172C404.008 396.812 406.27 377.102 412.639 359.313C408.557 353.57 404.423 347.886 399.94 342.447C396.843 349.044 395.509 357.081 391.363 363.065C390.496 364.316 389.743 365.027 388.246 365.315C383.933 363.21 382.039 344.144 381.556 338.933C381.364 336.868 381.531 333.948 380.991 332.002C380.647 330.763 376.04 327.272 374.896 326.059C375.404 323.427 375.94 321.103 377.013 318.629L376.69 318.022C373.923 312.905 372.94 306.155 375.488 300.688C376.495 298.528 378.067 296.413 378.81 294.161C379.471 292.156 379.486 289.561 379.513 287.457C379.562 283.596 379.484 279.646 379.117 275.8C378.619 270.593 377.063 265.326 377.877 260.08C379.429 250.077 387.589 244.388 396.457 241.278C398.317 240.625 401.205 240.103 402.723 238.86C404.982 237.011 403.719 230.28 404.025 227.403C404.254 225.252 404.919 222.898 406.838 221.648C409.064 220.198 413.192 220.341 415.651 221.011C417.607 221.544 419.105 222.649 419.993 224.492C422.716 230.143 418.61 237.021 416.908 242.48C426.478 248.389 432.468 254.993 434.277 266.301C434.696 268.919 434.451 271.745 435.38 274.235L436.192 274.515C439.043 271.761 446.439 252.635 452.129 245.672C455.101 242.036 458.031 241.451 460.883 238.751C463.982 235.817 463.104 228.515 463.118 224.483C461.416 225.411 459.732 226.252 457.862 226.792C452.398 228.368 445.937 228.176 440.929 225.305C433.873 221.261 431.728 213.799 429.867 206.45C427.829 205.205 426.048 203.814 424.219 202.294C422.309 197.494 423.054 192.942 421.663 189.441C420.637 186.857 417.654 185.505 417.212 182.529C416.918 180.549 417.519 178.794 418.685 177.209C421.833 172.933 427.547 170.652 430.305 166.009C433.346 160.89 428.473 151.938 433.762 141.681C434.306 140.628 434.946 139.676 435.646 138.725Q436.362 137.757 437.106 136.811Z"/>
	<path fill="#9F8BE8" d="M584.487 469.568C605.545 476.796 652.669 477.234 673.369 470.08C688.936 493.108 699.661 523.386 705.948 550.348C707.228 554.025 707.968 557.748 708.721 561.562C711.074 580.53 714.086 599.462 712.909 618.639L713.602 621.795C712.967 641.868 712.53 662.197 709.613 682.098C709.368 683.499 708.987 684.957 709.118 686.382L708.841 686.575C708.158 692.438 707.377 711.413 703.302 714.503C700.038 716.978 683.284 719.775 678.988 720.1C675.053 720.971 671.15 721.627 667.106 721.634C659.664 722.654 620.115 723.475 614.316 721.829C612.661 722.4 610.259 721.766 608.538 721.541C595.05 722.307 575.672 719.954 562.628 716.838C555.888 715.353 549.691 713.504 543.344 710.78C535.492 708.61 525.86 703.064 519.113 698.39C519.97 696.014 520.475 693.431 521.102 690.981C521.207 685.221 523.637 678.373 524.958 672.738C526.799 660.847 530.638 648.928 533.874 637.334Q539.601 616.998 544.696 596.494Q546.623 588.833 548.949 581.283C553.195 566.317 557.353 551.425 562.142 536.618C563.118 533.139 564.415 529.695 565.56 526.264C567.372 518.06 571.94 510.395 573.543 502.036C574.998 497.21 576.797 492.476 578.492 487.73C580.522 481.71 582.762 475.678 584.487 469.568Z"/>
	<path fill="#FEFDFD" d="M713.602 621.795C711.912 623.256 710.655 625.166 709.066 626.741C706.948 628.841 704.345 630.741 701.22 630.646C698.392 630.56 695.179 628.9 693.303 626.821Q693.007 626.499 692.747 626.148Q692.486 625.797 692.264 625.421Q692.042 625.045 691.859 624.648Q691.677 624.251 691.538 623.837Q691.398 623.423 691.302 622.996Q691.207 622.57 691.156 622.136Q691.105 621.702 691.1 621.265Q691.095 620.828 691.135 620.393C691.384 617.543 692.947 614.901 695.17 613.134C697.466 611.308 700.486 610.409 703.396 610.922C707.944 611.724 710.477 615.068 712.909 618.639L713.602 621.795Z"/>
	<path fill="#FEFDFD" d="M667.106 721.634C664.335 719.668 661.904 717.426 660.694 714.137C660.06 712.413 660.072 710.568 660.965 708.929C662.384 706.326 665.249 704.413 668.037 703.565C671.247 702.588 674.82 703.122 677.717 704.768C679.729 705.912 681.429 707.69 681.895 710.02C682.576 713.426 680.775 717.326 678.988 720.1C675.053 720.971 671.15 721.627 667.106 721.634Z"/>
	<path fill="#FEFDFD" d="M608.538 721.541C605.719 719.513 603.32 717.78 602.715 714.095C602.285 711.478 603.101 708.863 604.735 706.802C606.532 704.535 609.313 703.029 612.214 702.887C614.877 702.757 617.358 703.817 619.25 705.667C621.245 707.619 622.68 710.124 622.675 712.957C622.671 715.416 621.759 717.531 619.983 719.227C618.348 720.79 616.49 721.416 614.316 721.829C612.661 722.4 610.259 721.766 608.538 721.541Z"/>
	<path fill="#FEFDFD" d="M708.721 561.562C708.724 562.272 708.768 563.075 708.674 563.786C708.448 565.489 707.669 566.443 706.297 567.371C703.912 568.982 701.588 570.201 698.66 569.441C695.838 568.71 693.356 566.372 691.927 563.9Q691.636 563.407 691.396 562.887Q691.155 562.367 690.968 561.826Q690.78 561.285 690.647 560.728Q690.514 560.171 690.437 559.604Q690.359 559.037 690.339 558.464Q690.319 557.892 690.355 557.321Q690.391 556.749 690.484 556.184Q690.577 555.619 690.726 555.066C691.263 553.13 692.389 551.485 694.166 550.505C697.587 548.619 702.372 549.381 705.948 550.348C707.228 554.025 707.968 557.748 708.721 561.562Z"/>
	<path fill="#FEFDFD" d="M708.841 686.575C707.464 687.785 705.928 689.35 704.165 689.942C701.768 690.746 698.994 690.545 696.758 689.365Q696.278 689.112 695.828 688.811Q695.377 688.509 694.961 688.162Q694.544 687.815 694.166 687.427Q693.788 687.038 693.452 686.612Q693.117 686.187 692.828 685.728Q692.539 685.269 692.299 684.783Q692.059 684.297 691.872 683.788Q691.684 683.279 691.551 682.754Q691.447 682.347 691.385 681.931Q691.323 681.515 691.304 681.095Q691.285 680.675 691.309 680.255Q691.333 679.836 691.401 679.421Q691.468 679.006 691.578 678.6Q691.687 678.194 691.838 677.802Q691.989 677.409 692.179 677.034Q692.369 676.659 692.597 676.306C694.159 673.928 697.176 672.308 699.966 671.958C702.33 671.661 705.316 672.257 707.099 673.901C709.386 676.01 709.47 679.223 709.613 682.098C709.368 683.499 708.987 684.957 709.118 686.382L708.841 686.575Z"/>
	<path fill="#FEFDFD" d="M548.949 581.283C552.434 580.422 555.299 580.033 558.52 581.986Q558.942 582.245 559.336 582.546Q559.73 582.847 560.091 583.186Q560.452 583.526 560.776 583.9Q561.101 584.275 561.385 584.68Q561.67 585.086 561.911 585.519Q562.153 585.951 562.349 586.406Q562.545 586.861 562.694 587.334Q562.842 587.807 562.942 588.292Q563.042 588.78 563.091 589.276Q563.14 589.772 563.138 590.27Q563.136 590.768 563.083 591.264Q563.03 591.759 562.927 592.247Q562.823 592.734 562.671 593.208Q562.518 593.683 562.317 594.139Q562.117 594.595 561.871 595.028Q561.624 595.461 561.335 595.867Q561.064 596.254 560.754 596.609Q560.443 596.964 560.096 597.284Q559.749 597.604 559.37 597.885Q558.99 598.166 558.583 598.404Q558.176 598.643 557.745 598.836Q557.315 599.03 556.866 599.176Q556.417 599.322 555.956 599.419Q555.494 599.517 555.024 599.564C551.211 599.978 547.984 598.172 544.696 596.494Q546.623 588.833 548.949 581.283Z"/>
	<path fill="#FEFDFD" d="M578.492 487.73C582.334 487.477 586.324 487.351 589.5 489.961C591.011 491.202 591.869 492.979 592.047 494.914Q592.094 495.463 592.083 496.015Q592.071 496.566 592.002 497.113Q591.933 497.66 591.807 498.196Q591.68 498.733 591.498 499.254Q591.316 499.774 591.08 500.272Q590.844 500.771 590.557 501.241Q590.27 501.712 589.935 502.15Q589.6 502.588 589.221 502.988C587.434 504.9 584.75 506.213 582.116 506.26C579.312 506.31 575.807 504.529 573.921 502.516C573.782 502.367 573.669 502.196 573.543 502.036C574.998 497.21 576.797 492.476 578.492 487.73Z"/>
	<path fill="#FEFDFD" d="M543.344 710.78C544.889 707.34 546.382 704.523 550.144 703.096C552.7 702.126 555.538 702.343 557.979 703.543C560.644 704.853 562.889 707.281 563.771 710.136C564.23 711.622 564.368 713.88 563.659 715.319C563.405 715.834 563.037 716.42 562.628 716.838C555.888 715.353 549.691 713.504 543.344 710.78Z"/>
	<path fill="#FEFDFD" d="M524.958 672.738C527.443 673.701 529.595 675.308 530.702 677.811C531.516 679.651 531.312 681.73 530.551 683.554C529.054 687.144 526.042 689.239 522.5 690.529C522.04 690.696 521.57 690.836 521.102 690.981C521.207 685.221 523.637 678.373 524.958 672.738Z"/>
	<path fill="#FEFDFD" d="M565.56 526.264C566.784 527.74 567.191 528.671 567.035 530.616C566.894 532.38 566.136 534.425 564.737 535.59C563.846 536.332 563.252 536.473 562.142 536.618C563.118 533.139 564.415 529.695 565.56 526.264Z"/>
	<path fill="#FEFDFD" d="M639.449 610.59C641.042 610.466 642.644 610.425 644.213 610.797C647.122 611.487 649.85 613.251 651.245 615.951Q651.465 616.371 651.639 616.812Q651.814 617.252 651.942 617.709Q652.069 618.165 652.149 618.632Q652.229 619.099 652.259 619.572Q652.29 620.045 652.271 620.519Q652.252 620.992 652.184 621.461Q652.116 621.93 651.999 622.39Q651.883 622.849 651.719 623.294C650.389 627.018 647.487 629.054 644.063 630.715C642.498 631.018 640.9 631.12 639.343 630.708C636.471 629.949 634.117 628.231 632.767 625.557Q632.537 625.106 632.353 624.635Q632.17 624.164 632.033 623.677Q631.897 623.19 631.81 622.692Q631.723 622.194 631.686 621.69Q631.648 621.185 631.661 620.68Q631.674 620.174 631.738 619.672Q631.801 619.17 631.913 618.677Q632.026 618.184 632.187 617.705C633.428 613.972 636.059 612.226 639.449 610.59Z"/>
	<path fill="#FEFDFD" d="M668.187 520.577Q668.508 520.48 668.835 520.404Q669.161 520.328 669.492 520.273Q669.823 520.219 670.157 520.187Q670.491 520.154 670.826 520.144Q671.161 520.134 671.496 520.146Q671.831 520.158 672.165 520.192Q672.498 520.226 672.829 520.282Q673.16 520.338 673.486 520.416Q673.812 520.493 674.132 520.593Q674.453 520.692 674.766 520.812Q675.079 520.932 675.383 521.072Q675.688 521.213 675.982 521.373Q676.277 521.534 676.56 521.713Q676.844 521.892 677.115 522.09Q677.385 522.288 677.643 522.503Q677.9 522.718 678.142 522.95Q678.384 523.182 678.611 523.429Q678.838 523.676 679.047 523.938Q679.257 524.2 679.449 524.475Q679.641 524.75 679.815 525.037Q679.988 525.324 680.142 525.622Q680.296 525.92 680.43 526.227Q680.564 526.534 680.678 526.85Q680.791 527.166 680.883 527.488Q680.976 527.81 681.047 528.138Q681.117 528.466 681.166 528.798Q681.215 529.13 681.242 529.464Q681.269 529.798 681.274 530.133Q681.279 530.469 681.262 530.804Q681.245 531.139 681.205 531.472Q681.166 531.805 681.104 532.134Q681.043 532.464 680.96 532.789Q680.877 533.114 680.773 533.433Q680.669 533.751 680.543 534.063Q680.418 534.374 680.273 534.676Q680.128 534.978 679.963 535.27Q679.797 535.562 679.614 535.842Q679.43 536.123 679.228 536.39Q679.025 536.658 678.806 536.912Q678.587 537.165 678.351 537.404Q678.116 537.643 677.865 537.865Q677.614 538.088 677.349 538.293Q677.084 538.499 676.806 538.686Q676.528 538.874 676.238 539.043Q675.948 539.211 675.648 539.361Q675.348 539.51 675.038 539.639Q674.729 539.768 674.411 539.877Q674.094 539.985 673.77 540.072Q673.532 540.136 673.291 540.188Q673.051 540.241 672.807 540.282Q672.564 540.322 672.32 540.351Q672.075 540.38 671.829 540.397Q671.583 540.414 671.337 540.419Q671.091 540.424 670.844 540.417Q670.598 540.41 670.352 540.391Q670.107 540.372 669.862 540.341Q669.618 540.31 669.375 540.267Q669.132 540.224 668.892 540.17Q668.652 540.115 668.414 540.049Q668.177 539.983 667.943 539.906Q667.709 539.828 667.479 539.739Q667.25 539.651 667.024 539.551Q666.799 539.451 666.579 539.34Q666.359 539.229 666.144 539.108Q665.93 538.987 665.721 538.855Q665.513 538.724 665.311 538.582Q665.109 538.441 664.915 538.29Q664.72 538.139 664.533 537.978Q664.346 537.818 664.167 537.649Q663.988 537.479 663.817 537.302Q663.647 537.124 663.485 536.938Q663.323 536.752 663.171 536.558Q663.018 536.365 662.875 536.164Q662.732 535.964 662.599 535.756Q662.466 535.549 662.343 535.335Q662.22 535.122 662.108 534.902Q661.996 534.683 661.894 534.458Q661.792 534.234 661.702 534.005Q661.611 533.776 661.532 533.542Q661.453 533.309 661.385 533.072Q661.317 532.835 661.261 532.595Q661.205 532.355 661.16 532.113Q661.116 531.871 661.083 531.626Q661.05 531.382 661.029 531.137Q661.009 530.891 661 530.645Q660.991 530.399 660.994 530.152Q660.997 529.906 661.012 529.66Q661.027 529.414 661.054 529.169Q661.081 528.924 661.12 528.681Q661.159 528.437 661.21 528.196Q661.26 527.955 661.323 527.717Q661.385 527.478 661.459 527.243Q661.532 527.008 661.618 526.777Q661.703 526.546 661.799 526.319Q661.895 526.092 662.002 525.87Q662.109 525.648 662.227 525.432Q662.345 525.215 662.473 525.005Q662.602 524.794 662.74 524.59Q662.878 524.386 663.026 524.189Q663.174 523.992 663.331 523.803Q663.489 523.613 663.655 523.431Q663.822 523.25 663.997 523.076Q664.172 522.903 664.355 522.738Q664.538 522.573 664.729 522.418Q664.92 522.262 665.119 522.116Q665.317 521.97 665.522 521.833Q665.728 521.697 665.939 521.571Q666.151 521.445 666.368 521.329Q666.586 521.213 666.809 521.108Q667.032 521.003 667.259 520.909Q667.487 520.815 667.719 520.732Q667.951 520.649 668.187 520.577Z"/>
	<path fill="#FEFDFD" d="M669.74 580.214Q669.981 580.18 670.224 580.157Q670.467 580.135 670.71 580.124Q670.953 580.113 671.197 580.114Q671.441 580.114 671.684 580.127Q671.928 580.139 672.17 580.164Q672.413 580.188 672.654 580.224Q672.895 580.259 673.134 580.307Q673.373 580.354 673.61 580.413Q673.846 580.472 674.08 580.542Q674.313 580.612 674.543 580.693Q674.773 580.774 674.998 580.867Q675.224 580.959 675.445 581.062Q675.666 581.165 675.881 581.278Q676.097 581.392 676.307 581.515Q676.517 581.639 676.721 581.773Q676.925 581.906 677.122 582.049Q677.319 582.193 677.509 582.345Q677.699 582.498 677.882 582.659Q678.064 582.821 678.239 582.991Q678.413 583.161 678.58 583.339Q678.746 583.518 678.903 583.704Q679.061 583.89 679.209 584.083Q679.357 584.277 679.496 584.477Q679.635 584.677 679.764 584.884Q679.893 585.091 680.012 585.304Q680.131 585.516 680.239 585.734Q680.348 585.953 680.446 586.176Q680.544 586.399 680.631 586.627Q680.718 586.854 680.794 587.086Q680.87 587.317 680.935 587.552Q681 587.787 681.053 588.025Q681.107 588.263 681.149 588.503Q681.191 588.743 681.221 588.985Q681.252 589.227 681.271 589.47Q681.289 589.713 681.297 589.956Q681.304 590.2 681.299 590.444Q681.294 590.688 681.278 590.931Q681.262 591.174 681.234 591.416Q681.206 591.658 681.166 591.899Q681.126 592.139 681.075 592.377Q681.024 592.616 680.961 592.851Q680.899 593.087 680.825 593.319Q680.751 593.552 680.666 593.78Q680.582 594.008 680.486 594.233Q680.39 594.457 680.284 594.676Q680.177 594.895 680.06 595.109Q679.943 595.323 679.817 595.531Q679.69 595.739 679.553 595.941Q679.416 596.143 679.27 596.338Q679.123 596.532 678.968 596.72Q678.812 596.908 678.648 597.088Q678.483 597.268 678.31 597.439Q678.138 597.611 677.957 597.775Q677.776 597.938 677.587 598.092Q677.399 598.247 677.203 598.392Q677.007 598.537 676.805 598.673Q676.602 598.809 676.393 598.934Q676.184 599.06 675.97 599.176Q675.755 599.291 675.535 599.396Q675.315 599.501 675.091 599.596Q674.866 599.69 674.637 599.774Q674.408 599.857 674.175 599.93Q673.943 600.002 673.707 600.063Q673.471 600.124 673.232 600.174Q672.9 600.243 672.565 600.29Q672.229 600.337 671.892 600.361Q671.554 600.385 671.215 600.387Q670.876 600.389 670.539 600.368Q670.2 600.347 669.865 600.304Q669.529 600.26 669.197 600.195Q668.864 600.129 668.537 600.041Q668.21 599.953 667.89 599.844Q667.569 599.734 667.256 599.604Q666.944 599.473 666.641 599.322Q666.338 599.171 666.045 599Q665.753 598.829 665.473 598.639Q665.193 598.449 664.926 598.24Q664.659 598.032 664.406 597.806Q664.154 597.581 663.917 597.338Q663.68 597.096 663.46 596.839Q663.24 596.582 663.037 596.31Q662.835 596.039 662.651 595.754Q662.467 595.47 662.303 595.174Q662.138 594.878 661.994 594.571Q661.849 594.265 661.726 593.95Q661.602 593.634 661.5 593.311Q661.398 592.988 661.317 592.659Q661.237 592.331 661.178 591.997Q661.12 591.663 661.084 591.327Q661.048 590.99 661.035 590.651Q661.021 590.313 661.031 589.974Q661.04 589.636 661.072 589.299Q661.103 588.961 661.158 588.627Q661.212 588.293 661.288 587.963Q661.365 587.633 661.463 587.309Q661.561 586.985 661.681 586.668Q661.801 586.351 661.941 586.043Q662.082 585.735 662.243 585.437Q662.403 585.139 662.584 584.852Q662.764 584.566 662.963 584.292Q663.162 584.018 663.379 583.758Q663.596 583.498 663.83 583.253Q664.064 583.008 664.313 582.779Q664.563 582.55 664.827 582.338Q665.092 582.126 665.37 581.933Q665.647 581.739 665.938 581.565Q666.228 581.39 666.529 581.235Q666.83 581.08 667.141 580.946Q667.452 580.812 667.771 580.698Q668.09 580.585 668.416 580.493Q668.742 580.401 669.073 580.331Q669.405 580.262 669.74 580.214Z"/>
	<path fill="#FEFDFD" d="M610.033 580.567C611.592 580.515 613.26 580.396 614.803 580.649C617.606 581.11 620.357 582.891 621.839 585.321Q622.084 585.724 622.285 586.15Q622.486 586.577 622.64 587.023Q622.794 587.468 622.899 587.928Q623.004 588.388 623.059 588.856Q623.115 589.324 623.12 589.796Q623.124 590.267 623.079 590.736Q623.033 591.206 622.937 591.668Q622.842 592.129 622.697 592.578C621.575 596.105 618.719 598.283 615.605 599.983C613.651 600.083 611.586 600.169 609.707 599.541C606.948 598.617 604.471 596.551 603.216 593.912C602.107 591.578 601.991 588.875 603.026 586.493C604.411 583.308 606.976 581.867 610.033 580.567Z"/>
	<path fill="#FEFDFD" d="M638.377 488.265Q638.614 488.19 638.854 488.127Q639.094 488.064 639.337 488.013Q639.58 487.962 639.825 487.923Q640.071 487.884 640.317 487.857Q640.564 487.83 640.812 487.816Q641.06 487.801 641.308 487.799Q641.557 487.796 641.805 487.806Q642.053 487.816 642.3 487.838Q642.547 487.86 642.793 487.894Q643.039 487.928 643.283 487.975Q643.527 488.021 643.769 488.08Q644.01 488.138 644.248 488.208Q644.486 488.278 644.721 488.36Q644.955 488.442 645.185 488.535Q645.415 488.629 645.641 488.733Q645.866 488.838 646.086 488.953Q646.305 489.069 646.519 489.195Q646.733 489.321 646.94 489.458Q647.148 489.595 647.348 489.741Q647.548 489.888 647.741 490.044Q647.934 490.201 648.119 490.366Q648.304 490.532 648.48 490.707Q648.657 490.882 648.824 491.065Q648.992 491.248 649.151 491.439Q649.309 491.63 649.458 491.829Q649.607 492.028 649.745 492.234Q649.884 492.44 650.013 492.652Q650.141 492.865 650.259 493.083Q650.377 493.302 650.484 493.526Q650.59 493.75 650.686 493.979Q650.782 494.208 650.866 494.442Q650.95 494.676 651.023 494.913Q651.096 495.15 651.156 495.391Q651.217 495.632 651.266 495.875Q651.315 496.119 651.352 496.364Q651.389 496.61 651.413 496.857Q651.438 497.104 651.45 497.352Q651.463 497.6 651.463 497.848Q651.463 498.097 651.451 498.345Q651.439 498.593 651.414 498.84Q651.39 499.087 651.354 499.332Q651.317 499.578 651.269 499.822Q651.22 500.065 651.16 500.306Q651.099 500.547 651.027 500.784Q650.954 501.022 650.87 501.255Q650.787 501.489 650.691 501.718Q650.596 501.948 650.489 502.172Q650.383 502.396 650.265 502.615Q650.148 502.834 650.019 503.046Q649.891 503.259 649.753 503.465Q649.614 503.671 649.466 503.87Q649.317 504.069 649.159 504.26Q649.001 504.452 648.833 504.635Q648.666 504.819 648.49 504.994Q648.313 505.168 648.129 505.334Q647.944 505.5 647.751 505.657Q647.559 505.814 647.359 505.961Q647.159 506.108 646.951 506.245Q646.744 506.382 646.531 506.508Q646.317 506.635 646.097 506.75Q645.878 506.866 645.653 506.971Q645.428 507.076 645.198 507.17Q644.968 507.263 644.733 507.345Q644.499 507.427 644.261 507.498Q644.026 507.568 643.787 507.626Q643.549 507.684 643.308 507.73Q643.067 507.777 642.824 507.811Q642.581 507.846 642.336 507.869Q642.092 507.891 641.847 507.902Q641.601 507.913 641.356 507.912Q641.11 507.91 640.865 507.897Q640.62 507.884 640.376 507.859Q640.132 507.834 639.889 507.797Q639.647 507.76 639.406 507.711Q639.166 507.662 638.928 507.602Q638.69 507.541 638.455 507.469Q638.22 507.397 637.99 507.314Q637.759 507.23 637.532 507.136Q637.306 507.041 637.084 506.936Q636.862 506.83 636.646 506.714Q636.43 506.598 636.22 506.471Q636.009 506.345 635.805 506.208Q635.602 506.071 635.405 505.925Q635.208 505.778 635.018 505.622Q634.828 505.466 634.647 505.302Q634.465 505.137 634.292 504.963Q634.118 504.789 633.953 504.607Q633.788 504.425 633.633 504.236Q633.477 504.046 633.331 503.849Q633.184 503.652 633.048 503.448Q632.911 503.244 632.785 503.033Q632.658 502.823 632.542 502.607Q632.427 502.39 632.321 502.169Q632.216 501.947 632.122 501.72Q632.027 501.494 631.944 501.263Q631.861 501.032 631.789 500.797Q631.717 500.562 631.657 500.324Q631.597 500.086 631.548 499.846Q631.5 499.605 631.463 499.362Q631.426 499.12 631.401 498.876Q631.376 498.631 631.363 498.386Q631.35 498.141 631.349 497.896Q631.348 497.65 631.359 497.405Q631.37 497.16 631.393 496.915Q631.416 496.671 631.451 496.428Q631.486 496.185 631.532 495.944Q631.579 495.703 631.637 495.465Q631.696 495.226 631.766 494.991Q631.835 494.756 631.917 494.524Q631.998 494.292 632.09 494.065Q632.183 493.838 632.286 493.615Q632.39 493.393 632.504 493.175Q632.618 492.958 632.743 492.747Q632.868 492.535 633.003 492.33Q633.137 492.125 633.282 491.927Q633.427 491.728 633.581 491.537Q633.735 491.346 633.899 491.163Q634.062 490.98 634.234 490.805Q634.406 490.63 634.586 490.463Q634.767 490.297 634.955 490.14Q635.143 489.982 635.339 489.834Q635.535 489.686 635.738 489.548Q635.94 489.409 636.15 489.281Q636.359 489.153 636.574 489.035Q636.79 488.917 637.01 488.81Q637.231 488.702 637.457 488.606Q637.683 488.509 637.913 488.424Q638.143 488.339 638.377 488.265Z"/>
	<path fill="#FEFDFD" d="M552.646 641.377Q552.885 641.349 553.126 641.332Q553.366 641.315 553.607 641.309Q553.848 641.304 554.088 641.31Q554.329 641.316 554.569 641.334Q554.81 641.352 555.049 641.381Q555.288 641.41 555.525 641.45Q555.763 641.491 555.998 641.543Q556.233 641.595 556.466 641.658Q556.698 641.721 556.927 641.795Q557.157 641.87 557.382 641.955Q557.607 642.04 557.828 642.136Q558.049 642.232 558.266 642.338Q558.482 642.444 558.693 642.561Q558.903 642.677 559.108 642.804Q559.313 642.93 559.512 643.067Q559.711 643.203 559.903 643.349Q560.095 643.494 560.279 643.649Q560.464 643.803 560.641 643.967Q560.818 644.13 560.987 644.301Q561.157 644.473 561.317 644.653Q561.478 644.832 561.63 645.019Q561.782 645.206 561.924 645.4Q562.067 645.594 562.2 645.795Q562.334 645.995 562.457 646.202Q562.581 646.409 562.694 646.622Q562.808 646.834 562.911 647.052Q563.014 647.27 563.107 647.492Q563.199 647.714 563.281 647.941Q563.363 648.168 563.434 648.398Q563.504 648.628 563.564 648.862Q563.624 649.095 563.672 649.331Q563.721 649.567 563.758 649.805Q563.795 650.043 563.821 650.283Q563.846 650.522 563.861 650.763Q563.875 651.003 563.877 651.244Q563.88 651.485 563.871 651.726Q563.862 651.966 563.842 652.206Q563.821 652.446 563.789 652.685Q563.757 652.924 563.714 653.161Q563.671 653.398 563.616 653.633Q563.561 653.867 563.495 654.099Q563.429 654.331 563.353 654.559Q563.276 654.787 563.188 655.012Q563.1 655.236 563.002 655.456Q562.903 655.676 562.794 655.891Q562.686 656.106 562.567 656.315Q562.448 656.525 562.319 656.728Q562.19 656.932 562.051 657.129Q561.913 657.326 561.765 657.516Q561.617 657.706 561.461 657.889Q561.304 658.072 561.138 658.247Q560.973 658.423 560.8 658.59Q560.626 658.757 560.445 658.915Q560.263 659.074 560.074 659.224Q559.886 659.373 559.69 659.514Q559.494 659.654 559.292 659.785Q559.09 659.916 558.882 660.037Q558.673 660.158 558.459 660.269Q558.246 660.38 558.027 660.481Q557.808 660.582 557.584 660.672Q557.361 660.762 557.133 660.841Q556.906 660.92 556.675 660.988Q556.444 661.056 556.21 661.113Q555.975 661.17 555.739 661.216Q555.409 661.28 555.075 661.322Q554.741 661.363 554.405 661.382Q554.069 661.402 553.732 661.398Q553.396 661.395 553.06 661.369Q552.725 661.343 552.392 661.295Q552.059 661.247 551.73 661.176Q551.401 661.106 551.077 661.014Q550.754 660.922 550.437 660.808Q550.12 660.694 549.812 660.559Q549.503 660.425 549.205 660.27Q548.906 660.115 548.618 659.94Q548.331 659.766 548.055 659.572Q547.78 659.379 547.518 659.167Q547.257 658.956 547.01 658.727Q546.763 658.499 546.531 658.254Q546.3 658.009 546.086 657.75Q545.872 657.49 545.675 657.217Q545.479 656.944 545.301 656.658Q545.123 656.373 544.965 656.076Q544.807 655.779 544.669 655.472Q544.531 655.165 544.414 654.849Q544.297 654.534 544.201 654.211Q544.105 653.889 544.031 653.56Q543.957 653.232 543.905 652.9Q543.853 652.567 543.824 652.232Q543.794 651.897 543.787 651.56Q543.78 651.224 543.796 650.888Q543.812 650.552 543.85 650.217Q543.888 649.883 543.948 649.552Q544.008 649.221 544.091 648.895Q544.173 648.568 544.277 648.248Q544.381 647.928 544.506 647.616Q544.631 647.304 544.777 647Q544.923 646.697 545.088 646.404Q545.254 646.111 545.439 645.83Q545.624 645.549 545.828 645.281Q546.031 645.013 546.252 644.759Q546.473 644.505 546.71 644.267Q546.947 644.028 547.2 643.806Q547.453 643.584 547.72 643.38Q547.987 643.175 548.267 642.988Q548.547 642.802 548.839 642.635Q549.131 642.468 549.434 642.32Q549.736 642.173 550.048 642.046Q550.36 641.92 550.679 641.814Q550.999 641.708 551.325 641.625Q551.65 641.541 551.981 641.479Q552.312 641.417 552.646 641.377Z"/>
	<path fill="#FEFDFD" d="M610.306 641.602Q610.545 641.539 610.787 641.488Q611.029 641.436 611.273 641.397Q611.518 641.358 611.764 641.331Q612.009 641.304 612.256 641.289Q612.503 641.274 612.75 641.271Q612.998 641.268 613.245 641.277Q613.492 641.287 613.739 641.308Q613.985 641.33 614.23 641.364Q614.475 641.397 614.718 641.443Q614.961 641.489 615.202 641.547Q615.443 641.604 615.68 641.674Q615.917 641.743 616.151 641.824Q616.385 641.905 616.614 641.998Q616.844 642.09 617.068 642.194Q617.293 642.298 617.512 642.412Q617.731 642.527 617.944 642.652Q618.158 642.778 618.364 642.913Q618.571 643.049 618.771 643.195Q618.971 643.34 619.163 643.496Q619.356 643.651 619.54 643.816Q619.725 643.981 619.901 644.154Q620.077 644.328 620.245 644.51Q620.412 644.692 620.571 644.882Q620.729 645.072 620.878 645.27Q621.026 645.468 621.165 645.672Q621.304 645.877 621.432 646.088Q621.561 646.3 621.679 646.517Q621.797 646.735 621.904 646.958Q622.011 647.181 622.107 647.409Q622.203 647.637 622.287 647.869Q622.372 648.102 622.445 648.338Q622.518 648.574 622.579 648.814Q622.64 649.054 622.69 649.296Q622.739 649.538 622.776 649.783Q622.814 650.028 622.839 650.274Q622.864 650.52 622.877 650.767Q622.891 651.014 622.891 651.261Q622.892 651.508 622.881 651.755Q622.87 652.003 622.846 652.249Q622.823 652.495 622.787 652.74Q622.752 652.985 622.704 653.227Q622.656 653.47 622.597 653.71Q622.537 653.95 622.466 654.187Q622.395 654.424 622.312 654.657Q622.229 654.89 622.135 655.119Q622.041 655.347 621.935 655.571Q621.83 655.795 621.713 656.013Q621.597 656.232 621.47 656.444Q621.343 656.656 621.206 656.862Q621.068 657.068 620.921 657.266Q620.774 657.465 620.617 657.656Q620.46 657.848 620.294 658.031Q620.128 658.214 619.953 658.389Q619.778 658.564 619.595 658.73Q619.411 658.896 619.22 659.053Q619.029 659.21 618.83 659.357Q618.631 659.504 618.425 659.641Q618.219 659.778 618.007 659.905Q617.795 660.032 617.576 660.148Q617.358 660.265 617.134 660.37Q616.911 660.475 616.682 660.569Q616.453 660.664 616.22 660.746Q615.987 660.829 615.75 660.9Q615.513 660.972 615.273 661.031Q615.035 661.09 614.795 661.137Q614.555 661.184 614.312 661.22Q614.07 661.255 613.826 661.279Q613.582 661.302 613.337 661.314Q613.093 661.325 612.848 661.325Q612.603 661.324 612.358 661.312Q612.114 661.3 611.87 661.275Q611.626 661.251 611.384 661.215Q611.141 661.179 610.901 661.131Q610.661 661.083 610.423 661.023Q610.186 660.964 609.951 660.893Q609.717 660.821 609.486 660.739Q609.256 660.656 609.029 660.563Q608.803 660.469 608.582 660.364Q608.36 660.26 608.144 660.144Q607.928 660.029 607.718 659.903Q607.507 659.778 607.304 659.642Q607.1 659.506 606.903 659.36Q606.706 659.215 606.516 659.06Q606.326 658.905 606.145 658.741Q605.963 658.576 605.789 658.404Q605.616 658.231 605.451 658.05Q605.286 657.869 605.13 657.68Q604.974 657.491 604.827 657.294Q604.681 657.098 604.544 656.895Q604.407 656.692 604.281 656.482Q604.154 656.272 604.038 656.057Q603.922 655.841 603.816 655.62Q603.71 655.399 603.616 655.173Q603.521 654.947 603.438 654.717Q603.354 654.486 603.282 654.252Q603.21 654.018 603.149 653.781Q603.088 653.544 603.039 653.304Q602.99 653.064 602.953 652.822Q602.916 652.58 602.891 652.336Q602.865 652.092 602.852 651.848Q602.838 651.603 602.837 651.358Q602.835 651.113 602.846 650.868Q602.856 650.624 602.879 650.38Q602.901 650.136 602.935 649.893Q602.97 649.651 603.016 649.41Q603.062 649.17 603.12 648.932Q603.177 648.694 603.247 648.459Q603.316 648.224 603.397 647.992Q603.478 647.761 603.57 647.534Q603.662 647.307 603.765 647.085Q603.867 646.862 603.981 646.645Q604.095 646.428 604.219 646.217Q604.343 646.006 604.477 645.801Q604.611 645.596 604.756 645.398Q604.9 645.2 605.053 645.009Q605.207 644.819 605.37 644.635Q605.532 644.452 605.704 644.278Q605.875 644.103 606.055 643.936Q606.235 643.77 606.423 643.613Q606.61 643.455 606.806 643.307Q607.001 643.159 607.203 643.021Q607.405 642.883 607.614 642.755Q607.823 642.626 608.037 642.508Q608.252 642.39 608.472 642.283Q608.693 642.176 608.918 642.079Q609.143 641.983 609.373 641.898Q609.602 641.812 609.836 641.738Q610.069 641.664 610.306 641.602Z"/>
	<path fill="#FEFDFD" d="M638.015 550.112C640.003 549.846 642.092 549.644 644.062 550.133C646.775 550.807 649.408 552.649 650.795 555.099Q651.015 555.48 651.197 555.88Q651.379 556.28 651.52 556.697Q651.662 557.113 651.761 557.541Q651.861 557.97 651.918 558.406Q651.975 558.842 651.988 559.281Q652.002 559.721 651.972 560.16Q651.943 560.598 651.87 561.032Q651.797 561.466 651.682 561.89C650.695 565.432 648.21 567.199 645.118 568.834C643.312 569.099 641.365 569.305 639.565 568.916C636.674 568.29 634.029 566.528 632.56 563.935Q632.328 563.525 632.139 563.094Q631.951 562.663 631.808 562.214Q631.665 561.766 631.569 561.305Q631.473 560.844 631.425 560.376Q631.377 559.907 631.377 559.436Q631.378 558.966 631.427 558.497Q631.476 558.029 631.574 557.569Q631.671 557.108 631.815 556.66C632.85 553.355 635.091 551.705 638.015 550.112Z"/>
	<path fill="#FEFDFD" d="M580.156 672.076Q580.394 672.031 580.634 671.997Q580.875 671.963 581.116 671.941Q581.358 671.919 581.6 671.909Q581.842 671.898 582.085 671.9Q582.327 671.901 582.57 671.914Q582.812 671.928 583.053 671.952Q583.294 671.977 583.534 672.014Q583.774 672.05 584.011 672.099Q584.249 672.147 584.484 672.206Q584.719 672.266 584.951 672.337Q585.183 672.408 585.411 672.49Q585.64 672.572 585.864 672.665Q586.088 672.758 586.307 672.861Q586.526 672.965 586.74 673.08Q586.954 673.194 587.162 673.318Q587.37 673.443 587.572 673.577Q587.774 673.712 587.969 673.856Q588.164 674 588.352 674.153Q588.54 674.306 588.72 674.469Q588.901 674.631 589.073 674.802Q589.245 674.972 589.409 675.151Q589.572 675.33 589.727 675.517Q589.882 675.704 590.028 675.898Q590.173 676.092 590.309 676.292Q590.445 676.493 590.572 676.7Q590.698 676.907 590.814 677.12Q590.93 677.333 591.035 677.552Q591.141 677.77 591.236 677.993Q591.331 678.217 591.414 678.444Q591.498 678.672 591.571 678.903Q591.644 679.134 591.705 679.369Q591.767 679.604 591.817 679.841Q591.867 680.078 591.906 680.318Q591.944 680.557 591.971 680.798Q591.998 681.039 592.013 681.281Q592.028 681.523 592.031 681.766Q592.035 682.008 592.026 682.251Q592.018 682.493 591.998 682.735Q591.978 682.977 591.946 683.217Q591.914 683.458 591.871 683.696Q591.828 683.935 591.773 684.171Q591.718 684.407 591.651 684.641Q591.585 684.874 591.508 685.104Q591.43 685.333 591.342 685.559Q591.253 685.785 591.154 686.006Q591.054 686.227 590.944 686.444Q590.834 686.66 590.714 686.87Q590.594 687.081 590.463 687.286Q590.333 687.49 590.193 687.688Q590.052 687.886 589.903 688.077Q589.753 688.268 589.595 688.451Q589.436 688.635 589.269 688.81Q589.101 688.986 588.926 689.153Q588.75 689.32 588.567 689.479Q588.383 689.637 588.192 689.787Q588.001 689.936 587.803 690.076Q587.605 690.216 587.4 690.346Q587.196 690.477 586.985 690.597Q586.774 690.717 586.558 690.827Q586.342 690.937 586.121 691.036Q585.899 691.135 585.673 691.224Q585.448 691.312 585.218 691.39Q584.988 691.467 584.755 691.533Q584.521 691.599 584.285 691.654Q583.962 691.729 583.634 691.782Q583.307 691.836 582.977 691.867Q582.647 691.899 582.315 691.908Q581.984 691.918 581.652 691.905Q581.321 691.893 580.991 691.859Q580.661 691.824 580.334 691.768Q580.007 691.712 579.684 691.634Q579.362 691.557 579.045 691.458Q578.729 691.359 578.419 691.24Q578.11 691.12 577.809 690.98Q577.508 690.84 577.217 690.681Q576.926 690.522 576.647 690.343Q576.367 690.165 576.1 689.968Q575.833 689.772 575.579 689.558Q575.325 689.344 575.086 689.114Q574.847 688.884 574.624 688.639Q574.401 688.394 574.194 688.134Q573.988 687.874 573.799 687.602Q573.61 687.329 573.44 687.044Q573.27 686.76 573.118 686.464Q572.967 686.169 572.836 685.864Q572.705 685.56 572.594 685.247Q572.483 684.934 572.393 684.615Q572.304 684.296 572.235 683.971Q572.167 683.646 572.12 683.318Q572.073 682.99 572.048 682.659Q572.023 682.328 572.02 681.996Q572.017 681.665 572.036 681.333Q572.055 681.002 572.096 680.673Q572.137 680.344 572.199 680.018Q572.262 679.692 572.346 679.372Q572.43 679.051 572.535 678.736Q572.64 678.421 572.766 678.114Q572.891 677.807 573.037 677.509Q573.183 677.211 573.348 676.924Q573.513 676.636 573.697 676.36Q573.881 676.084 574.083 675.82Q574.284 675.557 574.503 675.308Q574.722 675.058 574.957 674.824Q575.192 674.59 575.441 674.371Q575.691 674.153 575.955 673.952Q576.219 673.751 576.495 673.567Q576.771 673.384 577.059 673.219Q577.347 673.055 577.646 672.909Q577.944 672.764 578.251 672.639Q578.558 672.514 578.873 672.409Q579.188 672.305 579.509 672.221Q579.83 672.138 580.156 672.076Z"/>
	<path fill="#FEFDFD" d="M668.406 642.169Q668.641 642.102 668.879 642.047Q669.117 641.991 669.358 641.947Q669.599 641.904 669.841 641.872Q670.083 641.84 670.327 641.82Q670.571 641.8 670.815 641.792Q671.06 641.784 671.304 641.788Q671.549 641.792 671.792 641.808Q672.036 641.824 672.279 641.852Q672.522 641.88 672.763 641.92Q673.005 641.96 673.244 642.012Q673.483 642.063 673.719 642.126Q673.955 642.19 674.188 642.264Q674.421 642.339 674.649 642.425Q674.878 642.511 675.103 642.608Q675.327 642.706 675.546 642.814Q675.766 642.922 675.979 643.04Q676.193 643.159 676.401 643.288Q676.609 643.417 676.81 643.556Q677.011 643.695 677.205 643.844Q677.399 643.993 677.585 644.151Q677.772 644.309 677.951 644.476Q678.129 644.643 678.299 644.819Q678.469 644.994 678.631 645.178Q678.792 645.362 678.944 645.553Q679.096 645.744 679.239 645.943Q679.381 646.142 679.514 646.347Q679.647 646.552 679.769 646.764Q679.892 646.976 680.004 647.193Q680.115 647.41 680.217 647.633Q680.318 647.856 680.408 648.083Q680.498 648.31 680.577 648.542Q680.656 648.773 680.723 649.008Q680.791 649.243 680.846 649.481Q680.902 649.719 680.946 649.96Q680.99 650.2 681.022 650.443Q681.055 650.685 681.075 650.929Q681.095 651.172 681.104 651.417Q681.112 651.661 681.108 651.905Q681.105 652.15 681.089 652.394Q681.073 652.638 681.046 652.881Q681.018 653.124 680.979 653.365Q680.939 653.606 680.888 653.845Q680.837 654.084 680.774 654.321Q680.711 654.557 680.637 654.79Q680.562 655.023 680.477 655.252Q680.391 655.481 680.294 655.705Q680.197 655.93 680.089 656.149Q679.982 656.369 679.863 656.582Q679.745 656.796 679.616 657.004Q679.487 657.212 679.349 657.413Q679.21 657.615 679.062 657.809Q678.913 658.003 678.755 658.19Q678.598 658.377 678.431 658.556Q678.264 658.734 678.089 658.905Q677.914 659.075 677.73 659.237Q677.547 659.398 677.355 659.551Q677.164 659.703 676.966 659.846Q676.768 659.989 676.562 660.122Q676.357 660.255 676.146 660.378Q675.934 660.501 675.717 660.613Q675.5 660.725 675.277 660.827Q675.055 660.928 674.828 661.018Q674.601 661.109 674.369 661.188Q674.138 661.267 673.903 661.335Q673.668 661.403 673.429 661.459Q673.191 661.516 672.95 661.56Q672.709 661.604 672.466 661.637Q672.223 661.67 671.979 661.69Q671.735 661.711 671.49 661.72Q671.245 661.728 671 661.725Q670.755 661.721 670.511 661.706Q670.266 661.69 670.023 661.663Q669.78 661.636 669.538 661.596Q669.296 661.557 669.056 661.506Q668.817 661.455 668.58 661.392Q668.343 661.329 668.11 661.254Q667.876 661.18 667.647 661.094Q667.418 661.008 667.193 660.911Q666.968 660.814 666.748 660.706Q666.528 660.599 666.313 660.48Q666.099 660.361 665.891 660.232Q665.682 660.103 665.481 659.964Q665.279 659.825 665.084 659.677Q664.89 659.528 664.703 659.37Q664.516 659.211 664.337 659.044Q664.157 658.877 663.987 658.701Q663.816 658.526 663.654 658.342Q663.492 658.158 663.34 657.966Q663.187 657.774 663.044 657.576Q662.901 657.377 662.768 657.171Q662.635 656.965 662.512 656.753Q662.39 656.541 662.277 656.323Q662.165 656.106 662.064 655.883Q661.962 655.66 661.872 655.432Q661.782 655.204 661.703 654.972Q661.624 654.74 661.556 654.505Q661.489 654.27 661.433 654.031Q661.377 653.792 661.333 653.551Q661.289 653.31 661.256 653.068Q661.224 652.825 661.204 652.581Q661.184 652.336 661.175 652.092Q661.167 651.847 661.171 651.602Q661.175 651.357 661.191 651.112Q661.206 650.868 661.234 650.625Q661.262 650.381 661.302 650.139Q661.341 649.898 661.393 649.658Q661.445 649.419 661.508 649.182Q661.571 648.945 661.646 648.712Q661.721 648.479 661.807 648.249Q661.893 648.02 661.991 647.795Q662.088 647.57 662.196 647.351Q662.304 647.131 662.423 646.917Q662.542 646.703 662.672 646.495Q662.801 646.286 662.94 646.085Q663.08 645.883 663.229 645.689Q663.378 645.495 663.536 645.308Q663.695 645.121 663.862 644.942Q664.03 644.763 664.206 644.593Q664.382 644.423 664.566 644.261Q664.75 644.1 664.942 643.947Q665.134 643.795 665.333 643.652Q665.532 643.51 665.738 643.377Q665.944 643.244 666.156 643.122Q666.368 642.999 666.586 642.887Q666.804 642.775 667.027 642.674Q667.251 642.573 667.479 642.483Q667.706 642.393 667.938 642.315Q668.17 642.236 668.406 642.169Z"/>
	<path fill="#FEFDFD" d="M580.463 610.968Q580.703 610.937 580.945 610.918Q581.187 610.899 581.429 610.891Q581.671 610.884 581.914 610.888Q582.156 610.892 582.398 610.908Q582.64 610.925 582.881 610.952Q583.122 610.98 583.361 611.02Q583.6 611.059 583.837 611.11Q584.074 611.162 584.308 611.224Q584.542 611.287 584.773 611.361Q585.004 611.435 585.231 611.52Q585.458 611.605 585.681 611.701Q585.903 611.797 586.121 611.904Q586.339 612.01 586.551 612.128Q586.763 612.245 586.969 612.372Q587.176 612.5 587.376 612.637Q587.575 612.774 587.768 612.921Q587.961 613.068 588.147 613.224Q588.332 613.38 588.51 613.545Q588.688 613.71 588.857 613.883Q589.027 614.056 589.188 614.238Q589.349 614.419 589.5 614.608Q589.652 614.797 589.795 614.993Q589.937 615.189 590.07 615.392Q590.203 615.595 590.326 615.804Q590.448 616.013 590.561 616.228Q590.673 616.443 590.775 616.663Q590.877 616.883 590.968 617.107Q591.059 617.332 591.139 617.561Q591.219 617.79 591.288 618.022Q591.356 618.255 591.414 618.49Q591.471 618.726 591.517 618.964Q591.563 619.202 591.597 619.442Q591.631 619.682 591.654 619.923Q591.676 620.165 591.687 620.407Q591.698 620.649 591.697 620.892Q591.695 621.134 591.683 621.376Q591.67 621.618 591.645 621.86Q591.62 622.101 591.584 622.341Q591.548 622.58 591.5 622.818Q591.452 623.056 591.392 623.291Q591.333 623.526 591.262 623.758Q591.191 623.989 591.109 624.218Q591.027 624.446 590.934 624.67Q590.841 624.894 590.737 625.113Q590.633 625.332 590.519 625.546Q590.405 625.759 590.28 625.967Q590.155 626.175 590.021 626.377Q589.886 626.579 589.742 626.773Q589.598 626.968 589.444 627.156Q589.291 627.344 589.128 627.524Q588.966 627.703 588.794 627.875Q588.623 628.047 588.444 628.21Q588.265 628.374 588.078 628.528Q587.891 628.682 587.697 628.828Q587.503 628.973 587.302 629.108Q587.1 629.244 586.893 629.369Q586.686 629.495 586.472 629.61Q586.259 629.725 586.04 629.83Q585.822 629.935 585.598 630.029Q585.375 630.123 585.147 630.206Q584.919 630.289 584.688 630.361Q584.456 630.433 584.221 630.493Q583.986 630.554 583.749 630.603Q583.512 630.652 583.272 630.689Q582.947 630.74 582.619 630.769Q582.292 630.798 581.963 630.806Q581.634 630.813 581.306 630.799Q580.977 630.785 580.65 630.749Q580.323 630.713 579.999 630.656Q579.676 630.598 579.356 630.52Q579.037 630.441 578.723 630.342Q578.41 630.242 578.104 630.122Q577.797 630.003 577.5 629.863Q577.202 629.723 576.914 629.564Q576.626 629.404 576.35 629.227Q576.073 629.049 575.809 628.853Q575.545 628.657 575.294 628.445Q575.043 628.232 574.807 628.003Q574.57 627.775 574.35 627.531Q574.129 627.287 573.925 627.029Q573.721 626.771 573.534 626.5Q573.348 626.23 573.179 625.947Q573.011 625.665 572.862 625.372Q572.712 625.079 572.582 624.776Q572.453 624.474 572.343 624.164Q572.234 623.854 572.145 623.537Q572.056 623.221 571.988 622.899Q571.921 622.577 571.874 622.251Q571.828 621.926 571.803 621.598Q571.778 621.27 571.775 620.941Q571.772 620.612 571.791 620.284Q571.809 619.955 571.849 619.629Q571.89 619.303 571.951 618.979Q572.013 618.656 572.096 618.338Q572.179 618.02 572.282 617.708Q572.386 617.396 572.51 617.091Q572.634 616.786 572.778 616.491Q572.922 616.195 573.085 615.909Q573.248 615.624 573.429 615.35Q573.611 615.075 573.81 614.814Q574.009 614.552 574.225 614.304Q574.441 614.056 574.673 613.823Q574.905 613.59 575.152 613.373Q575.398 613.155 575.659 612.955Q575.919 612.754 576.193 612.571Q576.466 612.388 576.751 612.223Q577.035 612.059 577.33 611.913Q577.625 611.768 577.929 611.642Q578.233 611.517 578.544 611.411Q578.856 611.306 579.174 611.221Q579.491 611.137 579.814 611.073Q580.137 611.01 580.463 610.968Z"/>
	<path fill="#FEFDFD" d="M610.183 518.676Q610.417 518.619 610.654 518.573Q610.891 518.527 611.13 518.493Q611.369 518.459 611.609 518.437Q611.849 518.414 612.09 518.403Q612.331 518.392 612.573 518.393Q612.814 518.394 613.055 518.407Q613.296 518.419 613.536 518.443Q613.776 518.468 614.014 518.503Q614.253 518.539 614.49 518.587Q614.726 518.634 614.96 518.693Q615.194 518.752 615.425 518.822Q615.656 518.892 615.883 518.973Q616.11 519.054 616.333 519.146Q616.556 519.238 616.774 519.341Q616.993 519.444 617.206 519.557Q617.419 519.67 617.626 519.794Q617.833 519.917 618.034 520.051Q618.235 520.184 618.43 520.327Q618.624 520.47 618.811 520.622Q618.999 520.774 619.178 520.935Q619.358 521.097 619.529 521.266Q619.701 521.436 619.864 521.614Q620.027 521.791 620.181 521.977Q620.336 522.162 620.481 522.355Q620.626 522.548 620.762 522.747Q620.897 522.947 621.023 523.153Q621.149 523.359 621.264 523.57Q621.38 523.782 621.485 523.999Q621.591 524.216 621.685 524.438Q621.78 524.66 621.864 524.886Q621.947 525.113 622.02 525.343Q622.093 525.573 622.154 525.806Q622.215 526.039 622.266 526.275Q622.316 526.511 622.354 526.75Q622.393 526.988 622.419 527.228Q622.446 527.467 622.462 527.708Q622.477 527.949 622.481 528.19Q622.484 528.432 622.476 528.673Q622.468 528.914 622.448 529.154Q622.428 529.395 622.397 529.634Q622.365 529.873 622.322 530.111Q622.279 530.348 622.225 530.583Q622.17 530.818 622.104 531.05Q622.039 531.282 621.962 531.511Q621.885 531.74 621.797 531.964Q621.709 532.189 621.61 532.409Q621.511 532.629 621.402 532.844Q621.292 533.059 621.173 533.269Q621.053 533.478 620.924 533.682Q620.794 533.885 620.655 534.082Q620.515 534.279 620.366 534.469Q620.218 534.659 620.06 534.842Q619.902 535.024 619.735 535.199Q619.569 535.373 619.394 535.54Q619.219 535.706 619.037 535.864Q618.854 536.021 618.664 536.17Q618.474 536.319 618.277 536.458Q618.08 536.597 617.876 536.727Q617.673 536.856 617.463 536.976Q617.254 537.095 617.039 537.204Q616.823 537.314 616.603 537.412Q616.383 537.511 616.158 537.599Q615.934 537.687 615.705 537.764Q615.476 537.84 615.244 537.906Q614.927 537.996 614.605 538.064Q614.283 538.132 613.957 538.179Q613.631 538.226 613.303 538.252Q612.974 538.277 612.645 538.281Q612.316 538.284 611.987 538.266Q611.658 538.248 611.331 538.208Q611.004 538.168 610.681 538.106Q610.357 538.045 610.039 537.962Q609.72 537.879 609.407 537.775Q609.095 537.672 608.79 537.548Q608.484 537.423 608.188 537.279Q607.892 537.135 607.606 536.972Q607.32 536.809 607.046 536.627Q606.771 536.445 606.509 536.245Q606.247 536.046 605.999 535.829Q605.751 535.612 605.518 535.38Q605.285 535.147 605.067 534.9Q604.85 534.653 604.649 534.391Q604.449 534.13 604.266 533.856Q604.083 533.582 603.919 533.297Q603.755 533.011 603.61 532.716Q603.465 532.42 603.34 532.115Q603.214 531.811 603.11 531.499Q603.005 531.186 602.921 530.868Q602.837 530.549 602.775 530.226Q602.712 529.903 602.671 529.576Q602.63 529.249 602.611 528.92Q602.591 528.592 602.594 528.262Q602.596 527.933 602.621 527.604Q602.645 527.276 602.691 526.95Q602.737 526.624 602.804 526.302Q602.871 525.979 602.96 525.662Q603.049 525.345 603.158 525.034Q603.267 524.723 603.397 524.421Q603.527 524.118 603.676 523.825Q603.826 523.531 603.994 523.248Q604.163 522.965 604.349 522.694Q604.536 522.423 604.741 522.165Q604.945 521.907 605.166 521.662Q605.387 521.418 605.624 521.19Q605.861 520.961 606.112 520.748Q606.363 520.535 606.628 520.339Q606.893 520.144 607.17 519.966Q607.448 519.788 607.736 519.629Q608.024 519.47 608.323 519.331Q608.621 519.191 608.928 519.071Q609.235 518.952 609.549 518.853Q609.863 518.754 610.183 518.676Z"/>
	<path fill="#FEFDFD" d="M638.184 672.307Q638.409 672.219 638.638 672.142Q638.867 672.065 639.1 671.999Q639.332 671.934 639.568 671.88Q639.803 671.826 640.041 671.783Q640.279 671.741 640.519 671.71Q640.758 671.679 640.999 671.66Q641.24 671.642 641.482 671.635Q641.723 671.628 641.965 671.632Q642.206 671.637 642.448 671.654Q642.689 671.671 642.929 671.699Q643.168 671.728 643.407 671.768Q643.645 671.809 643.881 671.861Q644.117 671.913 644.35 671.976Q644.583 672.04 644.813 672.115Q645.043 672.19 645.268 672.276Q645.494 672.362 645.715 672.459Q645.937 672.556 646.153 672.664Q646.369 672.772 646.58 672.89Q646.79 673.009 646.995 673.137Q647.2 673.266 647.398 673.404Q647.596 673.543 647.786 673.691Q647.977 673.839 648.161 673.996Q648.344 674.153 648.52 674.32Q648.695 674.486 648.862 674.66Q649.03 674.835 649.188 675.017Q649.346 675.2 649.495 675.39Q649.645 675.58 649.784 675.777Q649.924 675.975 650.054 676.178Q650.183 676.382 650.303 676.592Q650.422 676.802 650.532 677.018Q650.641 677.233 650.739 677.454Q650.838 677.675 650.925 677.9Q651.012 678.125 651.089 678.355Q651.165 678.584 651.23 678.817Q651.295 679.049 651.348 679.285Q651.401 679.521 651.443 679.759Q651.485 679.997 651.515 680.236Q651.545 680.476 651.563 680.717Q651.581 680.958 651.587 681.2Q651.593 681.441 651.588 681.683Q651.582 681.924 651.565 682.165Q651.547 682.406 651.518 682.646Q651.488 682.886 651.447 683.124Q651.406 683.362 651.353 683.598Q651.301 683.834 651.237 684.067Q651.172 684.299 651.097 684.529Q651.021 684.758 650.934 684.984Q650.847 685.209 650.75 685.43Q650.652 685.651 650.543 685.867Q650.435 686.083 650.316 686.293Q650.197 686.504 650.067 686.708Q649.938 686.912 649.799 687.109Q649.66 687.307 649.511 687.497Q649.363 687.688 649.205 687.871Q649.047 688.054 648.88 688.229Q648.714 688.404 648.539 688.57Q648.364 688.737 648.181 688.895Q647.998 689.052 647.807 689.201Q647.617 689.35 647.419 689.489Q647.221 689.628 647.017 689.757Q646.813 689.886 646.603 690.005Q646.392 690.124 646.176 690.232Q645.961 690.341 645.74 690.439Q645.519 690.536 645.293 690.623Q645.068 690.709 644.84 690.785Q644.611 690.86 644.379 690.924Q644.147 690.988 643.912 691.04Q643.677 691.093 643.44 691.134Q643.203 691.175 642.964 691.204Q642.725 691.234 642.485 691.251Q642.245 691.269 642.005 691.275Q641.764 691.281 641.524 691.275Q641.283 691.269 641.043 691.251Q640.803 691.233 640.564 691.204Q640.325 691.174 640.088 691.133Q639.851 691.092 639.616 691.039Q639.381 690.987 639.149 690.922Q638.917 690.858 638.689 690.783Q638.46 690.707 638.236 690.621Q638.011 690.534 637.791 690.437Q637.571 690.34 637.356 690.231Q637.141 690.123 636.931 690.005Q636.722 689.886 636.518 689.758Q636.315 689.629 636.118 689.491Q635.921 689.353 635.731 689.205Q635.541 689.057 635.359 688.9Q635.176 688.743 635.002 688.577Q634.827 688.411 634.661 688.237Q634.495 688.063 634.338 687.881Q634.18 687.699 634.032 687.51Q633.883 687.32 633.744 687.124Q633.606 686.927 633.476 686.724Q633.347 686.521 633.228 686.312Q633.109 686.102 633.001 685.888Q632.892 685.673 632.794 685.453Q632.696 685.233 632.609 685.009Q632.522 684.785 632.446 684.556Q632.37 684.328 632.305 684.096Q632.24 683.864 632.187 683.63Q632.134 683.395 632.092 683.158Q632.05 682.921 632.02 682.682Q631.99 682.443 631.972 682.203Q631.953 681.963 631.947 681.723Q631.94 681.482 631.945 681.241Q631.951 681.001 631.968 680.761Q631.985 680.521 632.013 680.281Q632.042 680.043 632.083 679.805Q632.123 679.568 632.175 679.333Q632.227 679.098 632.29 678.866Q632.354 678.634 632.428 678.405Q632.503 678.176 632.589 677.951Q632.675 677.726 632.771 677.506Q632.868 677.286 632.976 677.07Q633.083 676.855 633.201 676.645Q633.319 676.435 633.447 676.231Q633.575 676.027 633.712 675.83Q633.85 675.633 633.998 675.442Q634.145 675.252 634.301 675.069Q634.458 674.886 634.623 674.711Q634.788 674.536 634.962 674.369Q635.135 674.203 635.317 674.044Q635.498 673.886 635.688 673.737Q635.877 673.589 636.073 673.449Q636.269 673.309 636.471 673.18Q636.674 673.05 636.883 672.93Q637.092 672.811 637.306 672.701Q637.521 672.592 637.74 672.493Q637.96 672.395 638.184 672.307Z"/>
	<path fill="#FEFDFD" d="M580.534 550.295Q580.772 550.253 581.011 550.223Q581.251 550.193 581.492 550.175Q581.733 550.157 581.974 550.15Q582.216 550.144 582.457 550.15Q582.698 550.155 582.939 550.173Q583.18 550.19 583.42 550.22Q583.66 550.249 583.897 550.29Q584.135 550.331 584.371 550.384Q584.607 550.437 584.839 550.501Q585.072 550.566 585.301 550.642Q585.531 550.717 585.756 550.804Q585.981 550.891 586.202 550.99Q586.423 551.088 586.638 551.196Q586.854 551.305 587.064 551.424Q587.274 551.544 587.478 551.673Q587.681 551.803 587.879 551.942Q588.076 552.082 588.266 552.231Q588.456 552.38 588.638 552.538Q588.821 552.696 588.995 552.863Q589.17 553.03 589.336 553.205Q589.502 553.381 589.659 553.564Q589.816 553.747 589.964 553.938Q590.112 554.129 590.251 554.327Q590.389 554.525 590.517 554.729Q590.646 554.934 590.764 555.145Q590.882 555.355 590.99 555.571Q591.097 555.788 591.194 556.009Q591.291 556.23 591.377 556.456Q591.463 556.681 591.537 556.911Q591.612 557.141 591.675 557.374Q591.738 557.607 591.79 557.843Q591.841 558.079 591.881 558.317Q591.921 558.555 591.949 558.795Q591.977 559.035 591.993 559.276Q592.009 559.517 592.014 559.758Q592.018 560 592.01 560.241Q592.003 560.482 591.983 560.723Q591.964 560.964 591.932 561.203Q591.901 561.443 591.858 561.68Q591.815 561.918 591.76 562.153Q591.705 562.388 591.639 562.621Q591.573 562.853 591.495 563.081Q591.417 563.31 591.328 563.535Q591.239 563.759 591.139 563.979Q591.04 564.199 590.929 564.414Q590.818 564.628 590.697 564.837Q590.576 565.046 590.445 565.249Q590.314 565.452 590.173 565.648Q590.032 565.844 589.881 566.033Q589.731 566.221 589.571 566.403Q589.411 566.584 589.243 566.757Q589.075 566.93 588.898 567.094Q588.721 567.259 588.536 567.415Q588.352 567.57 588.16 567.717Q587.968 567.863 587.769 568Q587.569 568.136 587.364 568.263Q587.158 568.39 586.947 568.506Q586.735 568.623 586.518 568.729Q586.301 568.834 586.079 568.929Q585.857 569.024 585.63 569.108Q585.404 569.192 585.174 569.265Q584.943 569.338 584.71 569.399Q584.476 569.46 584.24 569.51Q584.004 569.559 583.765 569.597Q583.529 569.635 583.292 569.66Q583.054 569.686 582.815 569.701Q582.577 569.715 582.338 569.718Q582.099 569.72 581.86 569.711Q581.622 569.702 581.383 569.682Q581.145 569.661 580.909 569.629Q580.672 569.596 580.437 569.553Q580.202 569.509 579.97 569.454Q579.737 569.399 579.508 569.332Q579.278 569.266 579.052 569.188Q578.826 569.111 578.604 569.022Q578.382 568.933 578.165 568.834Q577.947 568.735 577.735 568.625Q577.523 568.516 577.316 568.396Q577.11 568.276 576.909 568.146Q576.708 568.016 576.515 567.876Q576.321 567.737 576.134 567.588Q575.947 567.439 575.767 567.281Q575.588 567.123 575.416 566.957Q575.245 566.791 575.082 566.616Q574.918 566.442 574.764 566.259Q574.609 566.077 574.464 565.888Q574.319 565.698 574.183 565.501Q574.047 565.305 573.92 565.102Q573.794 564.899 573.678 564.69Q573.562 564.482 573.456 564.267Q573.35 564.053 573.255 563.834Q573.16 563.615 573.075 563.391Q572.991 563.168 572.917 562.94Q572.844 562.713 572.782 562.482Q572.719 562.252 572.668 562.018Q572.617 561.785 572.578 561.549Q572.539 561.313 572.511 561.076Q572.483 560.839 572.466 560.6Q572.45 560.362 572.446 560.123Q572.441 559.884 572.448 559.645Q572.455 559.406 572.474 559.168Q572.492 558.93 572.523 558.693Q572.553 558.456 572.595 558.22Q572.636 557.985 572.69 557.752Q572.743 557.519 572.807 557.289Q572.872 557.059 572.948 556.832Q573.023 556.606 573.11 556.383Q573.197 556.16 573.294 555.942Q573.392 555.724 573.5 555.511Q573.608 555.298 573.726 555.09Q573.844 554.882 573.973 554.681Q574.101 554.479 574.239 554.284Q574.377 554.089 574.524 553.901Q574.671 553.712 574.828 553.532Q574.984 553.351 575.149 553.178Q575.314 553.005 575.487 552.84Q575.66 552.676 575.841 552.52Q576.022 552.364 576.211 552.217Q576.399 552.07 576.595 551.932Q576.79 551.795 576.992 551.667Q577.194 551.539 577.402 551.421Q577.609 551.303 577.823 551.195Q578.036 551.088 578.255 550.991Q578.473 550.894 578.696 550.807Q578.919 550.721 579.145 550.646Q579.372 550.57 579.602 550.506Q579.833 550.442 580.066 550.389Q580.299 550.336 580.534 550.295Z"/>
	<path fill="#47318F" d="M407.732 481.688C422.636 490.47 438.524 495.35 455.283 499.099C455.561 501.774 455.454 506.479 457.599 508.343C460.317 510.703 465.359 511.416 468.814 512.173C490.718 516.973 512.027 516.642 534.247 515.724C532.161 523.924 527.192 532.528 523.478 540.155C514.744 558.085 505.485 575.673 496.43 593.432C491.513 603.077 487.107 613.016 482.491 622.809Q471.446 645.762 461.034 669.008C452.945 687.183 444.517 705.458 437.528 724.085C435.107 730.537 433.176 737.149 430.878 743.643C423.167 765.44 414.986 787.115 404.083 807.551C393.865 826.703 380.845 844.704 368.149 862.287C360.663 872.654 353.324 883.562 344.308 892.677C342.089 892.208 340.013 891.561 337.869 890.836C325.958 886.231 313.18 877.607 305.092 867.686C323.212 830.019 339.683 782.252 349.959 741.665C356.78 714.722 361.476 687.244 370.41 660.863C376.275 643.544 382.845 626.58 389.385 609.511C393.757 598.102 397.94 586.583 402.543 575.266C410.685 555.252 424.391 526.504 428.395 505.921C428.803 503.825 429.275 501.451 428.464 499.407C428.14 498.592 427.879 498.67 427.147 498.329C425.575 498.949 425.07 499.9 424.335 501.397C422.121 505.903 420.752 511.064 419.125 515.816C414.424 529.542 406.604 555.447 399.497 566.702L399.12 567.292C399.073 555.493 399.288 543.442 400.659 531.717C401.452 524.934 402.81 518.214 403.68 511.438C404.956 501.497 405.876 491.548 407.732 481.688Z"/>
	<path fill="#9F8BE8" d="M680.348 307.159C693.809 320.296 697.358 337.435 697.589 355.753C697.902 380.486 691.486 404.221 684.867 427.82C682.586 435.952 680.635 446.11 675.697 453.081C658.774 461.353 620.861 459.397 602.018 457.221C599.03 456.66 585.965 455.651 584.621 454.582C584.502 452.216 583.898 448.549 585.423 446.661C591.305 449.391 594.173 453.268 601.603 456.149C607.972 456.704 611.667 454.608 616.505 450.542C638.275 432.246 666.148 402.788 682.23 379.471C684.019 376.876 687.353 372.837 687.891 369.731C687.295 368.421 686.117 367.272 684.721 366.837C684.096 366.642 684.046 366.678 683.444 367.161C681.515 368.706 674.256 380.325 672.236 383.095Q667.794 389.201 662.889 394.942C646.736 414.14 628.338 432.352 609.266 448.658C601.241 432.061 591.98 410.445 589.727 392.247C589.824 392.089 589.919 391.93 590.018 391.774C596.016 382.299 604.518 373.341 611.881 364.842C618.78 356.876 625.477 348.742 632.327 340.735C637.249 334.981 643.206 329.112 646.879 322.499C646.622 321.405 646.082 320.479 645.002 319.956C643.871 319.409 643.128 319.44 642.059 320.063C639.673 321.454 635.035 328.314 633.043 330.679L603.838 365.283C597.737 372.578 591.97 380.147 585.422 387.055C580.717 382.578 575.516 378.448 570.239 374.66C575.052 366.466 579.778 358.211 584.683 350.073C589.299 342.417 595.263 333.969 598.237 325.491C598.934 323.504 599.203 321.787 598.674 319.733Q598.536 319.205 598.374 318.684C599.454 317.513 600.691 316.937 602.085 316.227C609.417 321.58 616.322 324.597 625.651 323.078C635.563 321.465 646.401 317.108 653.671 310.044C662.941 310.006 671.307 309.429 680.348 307.159Z"/>
	<path fill="#47318F" d="M494.218 613.861C495.346 619.987 495.739 626.33 496.734 632.497C498.859 645.68 501.724 660.42 505.043 673.388C506.933 680.769 510.05 687.577 512.264 694.811C513.05 697.381 511.979 700.212 513.086 702.603C515.383 707.561 519.65 712.018 522.568 716.687C528.424 726.054 533.949 735.978 539.088 745.759C536.945 760.007 536.496 777.45 535.37 792.126Q532.655 823.941 528.538 855.606Q520.224 843.353 512.088 830.98C506.585 821.768 500.343 812.919 494.374 803.998C477.217 778.356 459.111 753.211 442.709 727.083Q458.173 689.109 475.456 651.927C481.412 639.082 486.95 626.036 494.218 613.861Z"/>
	<path fill="#FEFDFD" d="M546.63 718.243C565.621 724.014 583.959 726.049 603.728 727.039C599.695 737.428 595.28 748.019 593.402 759.058C592 767.303 592.396 775.898 591.949 784.238C591.279 796.781 589.025 809.569 585.829 821.701C583.316 831.236 579.943 841.007 576.301 850.177C569.321 867.749 555.469 896.36 554.493 914.375C554.347 919.088 555.423 923.682 556.285 928.29Q555.236 929.405 554.148 930.483C549.057 935.545 541.949 939.011 534.649 938.84C532.005 938.778 529.482 937.993 527.661 935.992C527.201 935.486 526.813 934.922 526.466 934.335C524.822 931.558 524.871 928.61 525.157 925.47C525.776 918.651 527.231 911.761 528.298 904.991C530.059 893.809 531.668 882.451 532.983 871.208Q541.803 794.904 546.63 718.243Z"/>
	<path fill="#FEFDFD" d="M693.681 723.217C693.935 723.195 694.691 723.418 694.879 723.577C695.984 724.506 697.638 728.021 698.521 729.351Q703.253 736.525 708.649 743.215Q732.192 772.153 756.589 800.376C773.58 820.287 790.318 840.015 809.207 858.178C813.304 862.117 817.591 866.941 822.645 869.597C820.766 875.275 819.11 882.307 815.22 886.945C811.038 891.93 805.485 892.456 799.455 892.911C797.412 884.444 794.212 879.715 788.014 873.758C776.781 864.425 764.313 856.571 752.725 847.684C706.211 812.012 669.373 779.431 639.516 728.145C649.127 727.662 658.635 728.01 668.251 727.055C676.811 726.204 685.15 724.19 693.681 723.217Z"/>
	<path fill="#FEFDFD" d="M461.494 414.145C480.544 423.539 497.11 437.969 516.946 445.861C535.556 439.566 545.283 431.855 555.178 414.824C557.462 417.28 559.868 419.627 562.124 422.106C563.329 423.431 564.617 424.892 564.94 426.695C565.975 432.463 564.354 440.176 563.955 446.083Q562.822 462.47 562 478.875C561.83 485.123 562.631 493.666 560.714 499.521C559.696 502.628 557.245 504.361 554.376 505.695C534.928 514.735 482.095 511.684 461.945 503.999C461.867 491.12 460.839 478.293 460.726 465.415C460.575 448.306 461.325 431.244 461.494 414.145Z"/>
	<path fill="#FEFDFD" d="M444.114 344.896C446.124 345.621 449.317 346.642 450.789 348.216C451.231 348.688 451.524 350.094 451.994 350.426C452.961 351.108 456.907 351.965 458.646 352.961L490.087 371.295C496.488 374.984 503.329 378.067 509.138 382.627C510.49 383.688 511.427 383.726 513.065 383.505C514.185 382.574 514.395 382.556 514.702 381.158C511.522 372.308 515.048 362.678 516.477 353.782C521.529 361.112 525.384 369.572 529.964 377.242C536.578 388.318 543.948 398.774 551.187 409.431L550.897 410.103C544.063 425.507 532.252 433.974 517.058 439.937L513.055 437.64C502.701 432.46 493.037 426.373 483.191 420.312C473.276 414.208 463.387 408.269 453.591 401.953C451.551 400.638 435.907 389.557 435.343 389.427C435.087 389.368 434.826 389.329 434.567 389.28C432.857 386.348 452.107 358.162 450.625 352.314L449.806 352.233C445.128 354.798 433.028 380.555 430.881 386.041L422.711 379.453C427.619 367.243 436.526 355.542 444.114 344.896Z"/>
	<path fill="#FEFDFD" d="M460.464 128.935L461.198 128.988C461.398 129.164 461.672 129.283 461.799 129.518C461.805 129.528 460.919 140.624 461.457 143.459C462.967 151.417 471.812 170.143 478.823 174.594C479.984 175.331 481.031 175.677 482.401 175.342C483.606 175.047 482.771 175.128 483.974 175.076C484.643 175.047 485.083 174.975 485.716 174.778L487.595 169.125C489.597 168.104 491.64 166.879 493.953 166.911C495.818 166.937 497.735 167.485 499.008 168.927C500.803 170.959 501.024 173.99 500.786 176.566C500.207 182.831 496.464 185.971 491.926 189.692C493.018 195.716 497.001 203.51 500.114 208.888C503.584 214.882 507.174 216.771 513.559 218.516C511.448 222.123 507.704 224.694 504.485 227.254C497.98 232.428 480.136 247.491 472.047 246.563C471.429 246.243 470.946 245.953 470.557 245.353C467.595 240.786 467.711 228.338 468.846 223.078C468.916 221.373 468.659 219.961 467.689 218.528C464.476 216.899 459.897 220.043 456.598 220.943C452.378 222.096 447.052 222.072 443.201 219.774C438.246 216.817 436.608 211.546 435.391 206.28C438.589 205.875 441.274 205.299 443.971 203.437C446.795 201.487 451.407 197.064 451.589 193.363C451.623 192.675 451.454 191.928 451.012 191.393C448.529 188.391 433.155 189.409 428.657 189.27C427.383 187.467 424.031 183.786 423.797 181.795C423.338 177.892 430.591 173.835 432.88 171.148C434.168 169.634 434.582 167.453 435.812 166C436.296 165.429 436.86 165.005 437.609 164.916C441.392 164.466 446.723 169.881 449.605 172.181C451.156 173.419 452.17 174.192 454.258 173.955C455.366 173.152 455.55 172.978 456.113 171.738C456.016 170.42 455.613 169.648 454.726 168.694C450.549 164.199 442.198 160.103 436.162 159.98C436.569 155.294 436.254 150.903 437.938 146.375C441.518 136.75 451.886 132.917 460.464 128.935Z"/>
	<path d="M490.849 171.886C492.99 171.856 493.86 171.901 495.516 173.258C495.966 174.295 496.314 175.135 496.065 176.285C495.314 179.747 493.241 181.68 490.383 183.491C489.259 183.652 488.289 183.828 487.162 183.548C486.294 183.331 486.399 183.074 486.019 182.35C486.111 181.588 486.244 180.98 486.675 180.328C487.778 178.659 489.36 177.052 489.607 175.002C489.774 173.621 490.092 173.065 490.849 171.886Z"/>
	<path d="M447.091 146.618C447.278 146.67 447.47 146.708 447.654 146.774C448.809 147.19 449.786 147.803 450.383 148.888C450.243 149.782 450.35 150.045 449.687 150.737C447.826 152.679 446.423 152.545 443.855 152.563C442.126 152.445 440.807 152.367 439.455 151.185C439.409 150.439 439.233 150.221 439.735 149.586C441.552 147.288 444.401 147.093 447.091 146.618Z"/>
	<path d="M481.994 183.653C482.554 183.769 483.122 183.884 483.671 184.044C485.244 184.503 485.893 185.255 486.631 186.663C486.7 188.291 486.39 189.15 485.681 190.604C484.872 190.606 483.741 190.713 482.972 190.496C481.724 190.145 481.551 189.632 480.987 188.592C480.945 186.72 481.362 185.405 481.994 183.653Z"/>
	<path fill="#9F8BE8" d="M498.598 602.961C507.548 585.013 517.307 567.488 526.191 549.497C531.047 539.664 535.131 529.512 539.835 519.628C543.459 512.016 547.623 514.58 554.772 511.872C559.501 510.081 564.005 507.581 566.193 502.794L566.99 503.484C560.817 522.097 554.274 540.662 548.714 559.468C541.56 583.665 535.41 608.226 528.927 632.61Q524.676 648.966 520.792 665.413C519.078 672.94 517.803 680.729 515.293 688.035C511.425 676.519 508.94 664.257 506.551 652.362C503.26 635.973 500.366 619.59 498.598 602.961Z"/>
	<path fill="#FEFDFD" d="M587.837 180.822C590.786 183.464 592.633 188.472 594.33 192.009C600.3 204.457 607.178 218.107 619.062 225.864C621.97 224.958 624.694 224.315 627.76 224.119C630.423 223.948 633.322 224.005 635.35 225.983C638.132 228.697 637.69 232.398 637.608 235.951C630.009 246.86 625.103 241.848 615.959 246.819C609.508 250.326 606.082 257.785 604.201 264.578C601.178 275.501 602.509 286.23 608.121 296.035C606.398 299.756 605.048 303.392 602.509 306.659C603.303 296.704 600.394 290.022 594.4 282.285C585.992 272.36 565.746 269.409 562.612 262.898C561.621 260.839 563.286 257.275 563.957 255.284C565.63 255.21 567.346 255.173 569.008 254.957C573.763 254.34 579.98 250.518 582.721 246.71C583.703 245.346 584.564 243.701 584.251 242.029C580.257 238.885 569.186 243.77 564.91 241.331C563.694 240.637 563.555 240.037 563.195 238.805C563.957 236.895 565.341 236.484 567.104 235.621C567.79 234.461 567.924 234.36 567.811 233.036C566.786 232.445 567.201 232.531 566.103 232.439C564.669 232.318 563.424 232.508 562.216 231.605C561.918 226.256 571.082 221.329 573.478 216.786C575.145 213.623 574.307 211.175 573.24 207.999C574.185 205.397 575.384 202.192 577.22 200.108C577.509 200.593 577.837 201.207 578.253 201.593C580.478 203.664 584.697 202.216 587.288 201.697C588.916 202.423 590.318 203.085 592.105 203.26C593.451 202.77 593.522 202.873 594.181 201.625C593.939 200.263 593.411 199.47 592.332 198.623C588.286 195.446 583.276 196.43 578.626 197.116C580.71 191.149 583.516 185.498 587.837 180.822Z"/>
	<path d="M621.608 230.615C623.093 230.484 624.799 230.28 626.271 230.581C627.583 230.85 628.823 231.714 629.479 232.885C630.041 233.886 629.945 235.086 629.54 236.123C628.448 238.917 626.092 239.825 623.497 240.892C622.761 241.067 622.009 241.163 621.262 241.282C619.018 240.519 617.379 239.742 616.278 237.556C616.312 236.147 616.36 235.865 617.066 234.653C617.924 234.394 618.781 234.159 619.651 233.942C620.201 232.583 620.654 231.725 621.608 230.615Z"/>
	<path d="M580.97 209.18C582.861 209.69 583.792 210.51 585.007 212.005C586.422 213.745 586.952 214.772 586.719 217.075C585.856 218.224 584.736 218.424 583.429 218.824C582.049 219.176 580.443 219.775 579.018 219.57C578.285 219.465 578.201 219.061 577.787 218.519C577.676 215.829 579.913 212.414 580.781 209.768L580.97 209.18Z"/>
	<path fill="#FEFDFD" d="M427.987 390.999C436.137 398.117 446.362 404.251 455.618 409.854C455.253 418.8 455.594 427.796 455.583 436.75C455.56 455.872 455.545 474.905 455.976 494.03C451.122 492.496 446.166 491.259 441.249 489.942C430.021 486.752 418.735 481.463 408.458 475.973Q413.956 447.145 420.766 418.599C422.789 409.799 424.156 399.179 427.987 390.999Z"/>
	<path fill="#FEFDFD" d="M515.937 293.716C519.775 294.286 522.784 295.822 525.447 298.717C535.149 309.263 530.024 325.993 529.874 338.65L529.871 339.287C532.061 343.064 535.228 346.517 537.963 349.919C548.772 363.361 559.03 374.54 572.904 384.964C576.358 387.56 579.795 390.348 583.632 392.355C585.977 409.952 594.867 434.68 603.526 450.301C586.918 445.452 564.949 416.63 554.413 402.985C549.45 395.466 543.978 388.272 539.147 380.665C534.374 373.149 530.292 365.065 525.947 357.29C523.831 353.502 514.71 336.254 512.413 334.292C510.351 332.532 507.415 333.143 504.093 330.01C501 327.093 496.655 323.896 496.532 319.402L497.224 318.954C502.926 320.895 505.89 329.118 511.528 330.591L512.318 330.079C512.412 329.637 512.483 329.398 512.509 328.968C512.926 322.126 505.3 315.443 501.062 310.822L502.561 306.083C506.079 309.755 508.866 315.471 512.92 318.441C513.882 319.146 514.329 319.257 515.471 319.021L515.836 318.088C514.888 313.849 510.312 303.187 506.795 300.683C506.068 300.165 505.394 299.639 504.703 299.073C504.509 297.879 505.145 297.066 505.712 296.074L506.475 295.974L507.221 297.208C517.312 299.066 516.526 309.833 522.906 315.419C523.711 316.124 523.776 316.252 524.873 316.183C525.122 315.805 525.288 315.603 525.415 315.129C527.205 308.466 519.45 298.911 515.937 293.716Z"/>
	<path fill="#FEFDFD" d="M522.119 217.251C522.628 217.509 522.573 217.457 523.118 217.871C527.064 220.865 528.305 229.992 528.635 234.647C528.783 236.731 528.906 238.917 527.474 240.587C525.575 241.221 523.089 240.515 521.134 240.216C520.339 240.814 519.532 241.389 518.722 241.966C515.278 244.416 510.329 245.174 506.37 246.676C502.236 248.246 498.324 250.619 494.751 253.204C488.424 257.783 483.366 263.567 479.39 270.282C468.29 289.029 462.597 317.091 458.631 338.267C458.194 340.599 457.418 342.762 457.042 345.141C456.307 345.348 447.991 340.294 446.638 339.586C441.627 335.607 439.312 330.389 434.905 326.097C440.431 306.621 447.181 287.832 455.722 269.44C458.791 262.831 462.324 256.401 465.57 249.872C469.25 251.349 472.467 252.735 476.541 251.936C486.215 250.039 507.479 233.368 515.052 225.902C517.778 223.214 519.972 220.416 522.119 217.251Z"/>
	<path fill="#FEFDFD" d="M205 882.488C211.124 882.401 217.406 885.488 223.377 886.801C244.708 891.495 265.953 893.57 287.478 888.8C294.329 893.86 289.499 894.71 291.542 900.082C292.369 902.256 295.157 903.041 297.122 903.831C298.909 903.041 300.474 902.081 302.114 901.025C310.388 905.983 318.723 910.229 327.579 914.046C326.397 917.936 325.653 921.932 324.845 925.912C324.378 927.867 323.721 929.807 323.151 931.737C294.281 924.326 269.277 918.166 241.373 906.911C233.831 903.869 226.059 900.751 218.944 896.792C215.185 894.702 204.183 889.219 203.074 885.355C203.482 883.979 204.014 883.471 205 882.488Z"/>
	<path fill="#FEFDFD" d="M511.612 250.444C511.874 250.513 512.051 250.763 512.256 250.941C510.49 256.975 507.593 262.653 505.89 268.724C503.138 278.53 500.685 288.417 497.928 298.231C496.787 302.293 496.033 306.604 494.463 310.519C493.364 310.948 492.536 311.239 491.647 312.043C491.62 313.795 491.986 314.194 492.841 315.678C492.888 317.593 490.869 319.671 489.832 321.254C489.395 324.114 490.963 326.857 491.194 329.696C491.625 335.001 488.386 340.268 490.011 345.72C491.034 349.155 493.736 351.42 496.817 352.995C496.724 357.879 495.759 362.704 495.548 367.595C491.484 365.533 487.523 363.277 483.544 361.057C476.662 357.321 468.852 353.673 462.846 348.609Q463.822 340.629 465.269 332.722Q466.716 324.814 468.629 317.006Q470.542 309.198 472.914 301.517Q475.286 293.836 478.109 286.309C485.025 268.067 493.889 258.371 511.612 250.444Z"/>
	<path fill="#D2CCFA" d="M560.618 270.099C567.421 273.89 575.051 276.185 581.654 280.176C589.118 284.687 596.228 292.427 596.585 301.537C596.825 307.67 595.625 312.587 597.148 318.812C592.747 324.859 589.299 331.492 585.585 337.969Q579.355 348.663 572.911 359.229C570.536 363.284 568.153 367.237 565.18 370.887C563.676 369.526 562.331 368.152 561.033 366.592C561.956 348.168 571.396 322.982 569.891 306.386Q569.808 305.509 569.682 304.637Q569.556 303.766 569.388 302.901Q569.22 302.037 569.009 301.181Q568.799 300.326 568.547 299.482Q568.295 298.638 568.002 297.807Q567.709 296.977 567.376 296.161Q567.043 295.346 566.671 294.548Q566.298 293.75 565.887 292.971Q565.476 292.192 565.027 291.434Q564.578 290.676 564.093 289.941Q563.608 289.206 563.087 288.495Q562.567 287.785 562.012 287.101Q561.457 286.417 560.87 285.76Q560.282 285.104 559.663 284.477Q559.045 283.851 558.396 283.255Q557.747 282.659 557.07 282.096L560.618 270.099Z"/>
	<path fill="#FEFDFD" d="M394.388 290.061C400.341 291.163 405.729 291.253 410.865 295.056C418.378 300.62 426.281 313.939 427.724 323.015C429.335 333.154 434.85 331.37 438.571 341.769C434.233 349.478 428.757 356.362 423.935 363.759C412.018 351.236 404.384 332.366 387.648 325.691C386.791 325.196 387.142 325.278 386.225 325.177C385.414 325.087 384.573 325.073 383.773 324.905C382.488 324.634 382.017 324.138 381.264 323.126C381.509 321.925 381.618 321.669 382.687 320.906C386.948 317.864 393.657 323.457 397.984 324.098C399.196 323.631 399.54 323.119 400.262 322.062C400.287 321.181 400.437 320.866 399.952 320.081C396.614 314.692 385.182 313.988 379.784 313.006C379.19 312.07 379.207 312.142 379.426 311.055C384.472 305.45 396.767 314.83 401.828 312.178L402.097 311.117C398.927 302.612 385.138 304.99 381.493 302.41L381.808 301.346C383.717 299.671 385.857 298.988 388.379 298.78C395.498 298.191 401.178 301.624 406.447 305.929C407.609 304.72 408.49 304.161 408.833 302.496C405.994 293.272 394.784 295.093 390.537 292.295L394.388 290.061Z"/>
	<path fill="#FEFDFD" d="M519.467 929.58C519.501 929.629 519.552 929.668 519.567 929.725C520.679 933.832 520.745 936.526 524.253 939.456C528.447 942.958 533.414 944.638 538.878 944.112C547.304 943.301 553.204 939.377 558.543 932.984C560.659 939.297 561.749 945.238 562.871 951.752C548.914 958.282 532.074 960.791 516.943 962.952C497.505 964.382 481.561 964.254 462.164 961.522C473.319 957.893 484.545 952.646 494.431 946.307C502.878 940.891 510.857 934.738 519.467 929.58Z"/>
	<path fill="#FEFDFD" d="M827.84 872.04C831.902 873.096 838.53 874.148 841.07 877.778C830.562 905.808 820.351 926.318 794.505 943.422C791.47 945.413 788.641 947.249 785.312 948.726C792.837 931.958 796.301 916.471 799.472 898.559C802.851 898.454 806.359 898.042 809.601 897.046C821.681 893.337 822.557 881.917 827.622 872.437C827.693 872.304 827.767 872.172 827.84 872.04Z"/>
	<path fill="#FEFDFD" d="M603.885 881.298C610.07 884.261 615.699 893.205 619.936 898.443L619.597 898.761C608.093 909.736 587.351 921.571 572.314 926.964L563.899 930.416C559.196 921.15 559.766 913.468 561.803 903.51Q562.638 903.533 563.474 903.534C577.509 903.569 591.651 894.894 601.407 885.343C602.829 883.95 603.361 883.249 603.885 881.298Z"/>
	<path fill="#FEFDFD" d="M553.835 287.802C556.608 289.686 559.044 292.325 560.745 295.222C563.14 299.301 564.228 304.048 564.394 308.745C564.838 321.302 558.067 347.39 554.853 360.739C553.669 359.257 552.408 357.834 551.172 356.395C545.748 350.854 540.806 344.418 536.16 338.21C534.907 330.148 536.853 321.149 536.935 312.932C543.878 305.419 549.262 296.917 553.835 287.802Z"/>
	<path fill="#FEFDFD" d="M416.942 364.836C417.85 365.452 418.31 365.96 418.914 366.874C418.723 368.798 417.425 369.685 416.504 371.375C416.373 375.207 415.908 379.327 417.175 382.999Q419.68 385.426 422.21 387.826C421.347 394.235 419.204 400.802 417.708 407.123L409.616 442.574C407.754 450.87 406.144 459.187 404.548 467.538C403.633 472.32 402.951 477.326 401.59 482L400.829 482.294L398.503 481.097C398.33 481.144 398.16 481.21 397.983 481.239C395.383 481.673 390.254 478.062 387.966 476.651C392.885 457.484 399.575 438.737 404.381 419.55C406.043 412.914 407.362 406.187 409.086 399.567C410.325 394.811 411.959 390.127 412.985 385.321C414.441 378.508 414.998 371.548 416.942 364.836Z"/>
	<path fill="#FEFDFD" d="M373.901 517.324C379.489 521.746 387.912 524.476 394.777 526.007C392.518 541.942 388.114 545.134 377.144 555.822C376.193 559.78 375.624 563.79 372.963 567.005L372.2 566.945C372.121 566.771 372.023 566.605 371.964 566.424C371.4 564.706 371.732 562.648 371.986 560.888C373.591 549.757 377.708 550.605 381.282 542.434C381.312 541.033 381.171 540.486 380.416 539.304C379.793 539.027 379.416 538.681 378.71 538.875C377.017 539.342 375.048 541.477 373.754 542.684C360.878 554.696 367.825 563.031 365.678 567.171C364.564 567.057 363.756 566.735 362.734 566.287C361.762 564.126 362.485 559.368 362.563 556.889C362.783 554.974 362.962 552.998 363.4 551.119C364.755 545.293 368.533 539.843 373.844 537.002C376.003 535.846 378.261 535.105 380.356 533.79C380.832 532.785 380.76 532.269 380.591 531.183C379.659 530.283 379.161 529.958 377.82 529.955C373.751 529.945 369.184 532.48 366.253 535.143C358.062 542.582 356.566 551.941 356.05 562.428C355.889 565.712 356.364 570.477 353.818 572.79L354.894 572.046L353.373 572.539C350.303 569.121 350.235 560.263 350.212 555.848C350.119 538.316 362.756 528.642 373.901 517.324Z"/>
	<path fill="#FEFDFD" d="M410.724 226.282C411.856 226.376 412.738 226.577 413.808 226.956C417.394 231.015 410.772 237.761 411.016 242.694C411.229 247.005 418.608 250.107 421.426 253.028C427.306 259.124 428.477 266.227 428.243 274.307C422.507 271.353 414.931 270.955 408.681 269.122C402.909 267.966 386.278 265.962 382.158 263.853L381.801 262.566C382.386 261.073 382.544 259.918 382.612 258.314L382.632 257.751C386.369 252.879 392.373 247.638 398.325 245.748C400.991 244.901 403.868 244.716 406.522 243.85C411.795 242.132 408.206 230.923 410.513 226.649C410.58 226.525 410.654 226.404 410.724 226.282Z"/>
	<path fill="#FEFDFD" d="M525.198 246.372C527.109 246.418 529.19 246.599 531.061 247.029C536.318 248.237 552.986 257.415 555.465 262.148C556.691 264.487 555.897 267.349 555.076 269.702C554.253 272.062 551.782 279.755 549.666 280.757L547.358 279.732C537.01 273.402 525.483 268.181 514.674 262.615C517.804 256.153 518.742 250.501 525.198 246.372Z"/>
	<path fill="#47318F" d="M300.078 871.892C315.108 887.491 324.738 893.48 345.396 899.575C342.201 902.835 338.691 905.824 335.302 908.882C334.752 909.16 334.125 909.295 333.534 909.471C321.169 907.015 300.968 893.289 291.572 884.995C294.042 880.441 297.04 876.079 300.078 871.892Z"/>
	<path fill="#FEFDFD" d="M201.2 891.378C203.496 892.023 205.974 894.178 207.898 895.581C219.494 904.034 227.706 907.405 240.949 912.738Q265.916 922.694 291.911 929.527C301.231 931.999 310.893 933.748 320.052 936.722C320.78 937.912 320.381 938.891 320.239 940.243C293.757 937.892 227.436 918.062 207.118 901.468C203.375 898.412 201.708 896.221 201.2 891.378Z"/>
	<path fill="#9F8BE8" d="M632.74 292.02C634.809 299.48 638.299 303.328 644.958 307.052Q645.77 307.506 646.596 307.933C640.584 313.823 628.336 317.521 620.004 317.319C614.878 317.194 610.815 315.515 606.978 312.199C609.165 308.042 610.619 302.452 613.601 298.933L614.388 298.643C618.995 296.963 626.157 296.321 630.087 293.73L630.585 292.551L632.74 292.02Z"/>
	<path fill="#FEFDFD" d="M846.081 880.251C847.46 881.017 849.321 882.118 850.143 883.49C851.084 885.06 847.571 892.694 846.901 894.455C836.609 921.502 815.414 947.354 788.728 959.373L787.51 959.323C786.041 958.278 785.508 956.315 784.847 954.691C788.196 953.511 791.253 952.037 794.326 950.255C817.499 936.819 839.271 906.246 846.081 880.251Z"/>
	<path fill="#FEFDFD" d="M564.043 956.531C565.113 957.551 565.773 959.601 566.413 960.949C559.028 963.497 552.017 966.588 544.43 968.641C519.789 975.308 485.942 978.213 461.376 971.169C460.129 970.733 459.006 970.221 457.826 969.637C457.289 968.375 457.656 967.722 457.918 966.42C458.126 966.227 458.273 965.93 458.542 965.841C459.164 965.636 463.846 966.961 464.823 967.157C469.549 968.1 474.32 968.628 479.111 969.102C505.513 971.715 539.677 966.693 564.043 956.531Z"/>
	<path fill="#D2CCFA" d="M570.21 432.448C573.898 435.174 578.082 437.725 578.84 442.665C580.277 452.031 575.488 457.339 579.743 467.765C573.99 479.136 571.438 491.606 566.99 503.484L566.193 502.794C568.795 492.145 568.175 477.948 568.78 466.826C569.337 456.574 571.164 442.417 570.21 432.448Z"/>
	<path fill="#47318F" d="M600.358 864.385C602.197 866.711 604.169 868.614 606.363 870.592C597.61 884.093 584.628 892.968 569.379 897.547L563.987 898.45L566.345 890.97C580.296 885.172 590.488 875.468 600.358 864.385Z"/>
	<path fill="#47318F" d="M584.522 844.638C588.955 848.095 592.921 855.43 596.515 859.925C590.166 867.269 583.468 873.663 575.785 879.617C573.265 881.405 570.729 882.973 568.023 884.465C573.461 871.125 579.455 858.154 584.522 844.638Z"/>
	<path fill="#FEFDFD" d="M583.472 460.465C589.764 460.082 602.083 463.405 609.493 464.115C630.202 466.098 650.041 464.586 670.501 461.384C671.987 462.126 672.284 463.074 673.134 464.475C656.831 470.304 605.698 471.605 589.366 465.369C586.413 464.242 584.807 463.35 583.472 460.465Z"/>
	<path fill="#FEFDFD" d="M623.994 902.388C624.833 902.933 625.299 903.579 625.95 904.34C626.104 905.515 626.151 905.839 625.552 906.924C620.084 916.818 579.14 936.515 567.612 939.466C566.999 939.523 566.677 939.39 566.099 939.206C565.633 938.166 565.253 937.438 565.245 936.276C567.424 933.207 579.252 930.003 583.163 928.202Q588.663 925.662 593.984 922.767Q599.305 919.872 604.426 916.635Q609.546 913.398 614.443 909.832Q619.341 906.267 623.994 902.388Z"/>
	<path fill="#FEFDFD" d="M462.794 244.389L463.078 244.658C463.344 245.942 456.455 255.055 455.238 257.348C447.919 271.14 442.311 285.821 436.907 300.449C435.22 305.013 432.972 310.054 432.108 314.836C431.965 315.63 431.99 315.864 431.547 316.555L431.005 315.365L428.101 308.248C429.578 303.187 430.406 297.89 431.409 292.716C445.735 278.995 446.317 256.412 462.794 244.389Z"/>
	<path fill="#FEFDFD" d="M380.146 501.299C385.778 503.165 391.777 506.365 397.62 507.226C397.075 511.724 396.648 516.266 395.579 520.676C389.639 519.034 381.972 516.273 376.958 512.704Q378.465 506.977 380.146 501.299Z"/>
	<path fill="#FEFDFD" d="M386.238 481.67L386.725 481.961L387.543 482.438C391.782 484.946 395.81 486.473 400.586 487.657C400.399 491.31 400.157 499.598 397.87 502.301Q390.015 498.931 382.199 495.47C383.415 490.815 384.68 486.228 386.238 481.67Z"/>
	<path fill="#FEFDFD" d="M507.815 339.412C509.264 340.922 510.375 342.882 511.54 344.621C511.514 348.149 508.244 371.987 506.996 374.15L505.783 373.538C503.818 372.63 502.011 371.571 500.172 370.431C501.688 361.055 503.076 347.69 507.815 339.412Z"/>
	<path fill="#FEFDFD" d="M630.585 292.551C626.069 272.695 641.435 266.481 646.445 249.846C648.193 244.041 646.765 232.03 647.997 229.695L648.843 229.706C651.139 231.733 650.552 234.719 650.524 237.506C650.404 249.255 646.756 257.905 640.052 267.344C637.641 270.737 635.139 273.961 633.707 277.922C632.018 282.594 632.226 287.186 632.74 292.02L630.585 292.551Z"/>
	<path fill="#9F8BE8" d="M523.46 707.389C529.595 710.193 535.329 713.807 541.495 716.594C540.574 721.594 540.419 726.959 539.856 732.028L539.519 732.836C537.891 731.819 525.798 711.138 523.46 707.389Z"/>
	<path fill="#FEFDFD" d="M432.879 193.554C433.081 193.542 433.282 193.52 433.483 193.517C436.456 193.475 442.043 193.898 444.278 195.941L444.251 196.867C442.998 198.372 441.39 198.78 439.596 199.438C436.437 200.556 433.765 200.488 430.462 200.388C429.548 198.616 428.802 196.732 427.999 194.906L432.879 193.554Z"/>
	<path fill="#FEFDFD" d="M534.361 232.257C535.414 232.583 536.769 232.952 537.504 233.817C538.825 235.371 538.504 238.257 538.494 240.136C541.358 242.493 546.243 245.667 547.762 249.064C544.568 246.525 540.027 245.411 537.194 242.716C534.967 240.598 534.456 235.129 534.361 232.257Z"/>
	<path fill="#FEFDFD" d="M571.57 246.232C572.013 246.198 572.122 246.182 572.628 246.188C573.575 246.199 574.507 246.079 575.207 246.758C574.196 248.068 571.074 249.423 569.383 249.611C568.262 249.735 567.204 249.868 566.089 250.07L565.832 250.264C564.425 250.312 564.23 249.822 563.179 248.991L563.193 248.074C565.562 246.668 568.86 246.577 571.57 246.232Z"/>
	<path fill="#FEFDFD" d="M540.504 284.847C542.864 285.381 545.285 285.596 546.753 287.685L546.28 289.074C545.897 289.239 545.606 289.39 545.175 289.451C544.032 289.614 542.832 289.233 541.943 288.513C540.735 287.535 540.671 286.263 540.504 284.847Z"/>
	<path fill="#FEFDFD" d="M524.319 279.676C525.637 280.001 526.944 280.57 527.876 281.604C528.724 282.544 528.883 283.245 528.784 284.454C527.125 284.243 525.708 284.173 524.298 283.179C523.696 281.59 523.919 281.276 524.319 279.676Z"/>
</svg>
