<?xml version="1.0" encoding="utf-8" ?>
<svg xmlns="http://www.w3.org/2000/svg" xmlns:xlink="http://www.w3.org/1999/xlink" width="1024" height="1024">
	<path fill="#9F8BE8" d="M0 0L1024 0L1024 1024L0 1024L0 786.769L0 781.555L0 526.898L0 521.128L0 502.153L0 496.6L0 333.886L0 329.219L0 309.643L0 304.331L0 241.932L0 236.439L0 0Z"/>
	<path fill="#020101" d="M347.172 210.22C366.841 196.882 356.671 188.046 366.54 173.733C371.679 166.28 378.416 165.201 385.731 161.097C389.739 158.849 392.73 155.231 396.331 152.448C404.082 146.459 415.702 145.774 424.985 147.524C445.579 151.405 457.245 166.45 468.321 182.847C475.358 193.265 487.218 210.402 484.44 223.56C483.162 229.608 478.646 234.491 473.534 237.707C467.664 241.401 461.769 242.24 455.028 241.14C451.58 243.489 447.671 245.743 444.73 248.711C444.367 252.766 445.395 263.602 442.062 266.11C439.04 268.385 435.814 265.402 432.808 266.26C431.926 266.511 430.847 269.098 430.171 269.882C428.862 271.4 426.588 270.975 425.052 272.194C423.309 273.577 421.997 275.537 420.315 277.007C416.658 280.2 410.821 281.509 406.149 280.246C397.836 278 392.456 268.369 388.433 261.433C386.074 262.786 384.122 264.162 382.091 265.981C384.655 273.042 387.144 280.103 389.162 287.343C391.508 295.757 393.363 304.389 396.286 312.624C409.495 320.418 422.904 332.731 434.704 342.727C453.975 359.051 473.278 375.535 491.737 392.772C499.576 400.092 520.08 421.541 527.635 425.274C532.482 427.67 539.482 428.16 544.788 429.106C555.185 430.96 565.543 432.779 575.998 434.279C586.71 435.815 610.612 437.404 618.927 441.3C620.052 441.827 621.171 442.466 622.117 443.279C638.683 457.512 664.72 513.509 670.834 534.944C682.746 540.645 694.441 546.963 706.409 552.497C714.926 543.714 724.191 535.673 732.637 526.833C743.122 515.858 753.215 503.021 764.978 493.507C758.754 494.221 749.379 496.238 744.091 492.117C738.427 487.704 737.332 474.492 736.35 467.8C733.728 466.588 730.7 465.54 729.575 462.612C728.686 460.3 729.515 457.718 730.603 455.626C732.268 452.421 734.341 449.431 736.085 446.271C729.981 440.068 724.881 431.507 725.109 422.535C725.278 415.867 728.238 410.123 733.089 405.642C744.798 394.827 766.118 392.433 781.276 393.377C793.035 394.109 803.422 399.649 811.155 408.451C817.807 416.021 824.184 426.782 823.352 437.187C822.85 443.476 820.506 449.503 818.369 455.383C821.646 456.866 824.941 458.575 826.399 462.1C828.384 466.899 825.396 473.021 823.689 477.564C830.399 479.747 839.105 481.789 842.477 488.688C844.408 492.64 844.014 496.546 843.373 500.754C857.948 510.068 860.669 516.974 866.05 532.96C868.464 540.134 870.843 547.39 872.622 554.751C874.654 544.633 888.067 478.63 892.84 475.257C895.774 473.183 903.832 473.776 907.36 473.691C930.466 473.132 959.323 473.132 981.447 480.352C983.349 480.973 986.86 482.066 988.03 483.807C989.192 485.537 988.37 489.725 988.017 491.714C986.59 499.749 984.293 507.768 982.397 515.712Q977.936 535.224 973.103 554.648C965.794 584.219 959.32 613.94 952.402 643.596C948.185 661.672 943.106 679.725 939.702 697.966C938.585 703.95 937.827 709.908 938.342 716.001C939.521 729.973 944.222 747.994 947.067 761.974Q955.595 803.692 963.315 845.567C964.114 850.002 964.69 854.511 965.649 858.909C966.528 862.943 968.001 867.296 968.348 871.393C968.468 872.816 968.316 874.361 967.76 875.687C966.927 877.675 965.047 879.161 963.025 879.809C961.12 880.419 958.91 880.38 957.12 879.426C954.004 877.766 952.966 873.465 952.166 870.275C949.231 858.585 947.101 846.66 944.695 834.85L931.441 767.969C928.874 754.758 927.313 740.624 923.382 727.802C920.111 726.063 916.743 724.764 913.279 723.461C914.367 751.169 916.345 778.996 918.194 806.668C919.174 821.34 920.978 836.543 920.563 851.244C920.514 852.979 920.543 855.532 919.186 856.817C918.612 857.361 917.803 857.658 917.047 857.839C911.851 859.08 906.098 859.311 900.781 860.116C892.922 861.306 885.173 863.334 877.605 865.75C853.988 873.287 832.42 884.979 807.751 889.377Q801.846 890.446 795.871 891.003Q789.895 891.56 783.894 891.601Q777.893 891.641 771.911 891.165Q765.929 890.689 760.01 889.699L749.625 887.886C749.69 890.607 750.075 893.644 749.262 896.262C743.956 900.544 724.565 901.105 717.581 900.398C705.556 899.181 694.593 894.19 684.341 888.041C657.381 893.254 621.594 895.637 597.787 879.671C597.389 879.404 597.006 879.117 596.621 878.833C596.789 874.751 597.361 870.881 598.314 866.906C592.163 864.499 573.844 857.724 571.44 851.916C569.653 847.599 576.029 823.413 577.13 816.623C582.569 783.094 586.069 751.402 588.363 717.531Q574.371 720.817 560.202 723.227C555.958 756.377 540.872 788.566 514.043 809.347C490.35 827.7 471.748 828.045 443.513 828.333C432.813 828.442 422.32 828.749 411.672 827.325C385.611 823.84 363.942 810.395 348.134 789.563C339.278 777.893 333.581 764.63 328.451 751.014C317.207 752.189 305.755 753.971 294.496 754.635L295.63 889.605C314.76 898.422 335.227 904.464 355.25 910.897C364.233 913.783 374.767 915.923 382.988 920.622C386.999 922.915 390.436 926.394 392.087 930.771C392.963 933.095 393.536 935.172 392.409 937.488C390.971 938.803 389.805 939.278 387.864 939.537C380.244 940.554 363.081 939.496 354.37 939.235C333.135 938.601 311.879 938.058 290.656 937.115C282.309 936.744 247.713 936.053 242.253 933.408C239.803 929.052 246.398 899.41 245.915 891.261C245.553 885.156 243.925 878.842 242.854 872.815Q240.491 859.127 238.442 845.389Q232.461 803.735 228.418 761.849L171.277 768.313C161.679 769.376 151.525 769.776 142.071 771.635C135.323 797.766 127.381 823.625 120.447 849.723C118.051 858.742 115.417 867.86 113.5 876.993C113.586 877.111 113.67 877.232 113.758 877.349C120.051 885.729 143.767 904.817 152.873 910.637C163.343 917.328 175.642 923.312 184.151 932.485C186.617 935.143 188.627 938.906 188.283 942.638C188.161 943.959 187.729 945.391 186.704 946.292C184.671 948.08 181.22 947.632 178.773 947.243C168.479 945.608 158.551 942.396 148.582 939.436Q125.191 932.533 101.999 924.987Q86.1766 920.079 70.5085 914.698C65.0947 912.865 59.3211 911.23 54.1858 908.724C57.3791 896.254 62.0926 881.852 64.2222 869.409C65.2308 863.516 65.1749 857.396 66.007 851.45C69.39 827.279 72.6322 802.997 77.1329 779.003C51.3749 781.083 25.7562 784.706 0 786.769L0 781.555L0 526.898L0 521.128L0 502.153L0 496.6L0 333.886L0 329.219L0 309.643L0 304.331L0 241.932L0 236.439C48.7876 235.931 97.041 237.651 145.715 240.851C171.533 242.549 198.469 243.768 223.905 248.675C256.445 222.29 282.976 201.079 327.727 205.781C334.406 206.483 340.838 208.014 347.172 210.22Z"/>
	<path fill="#9F8BE8" d="M0 526.898C19.2874 524.871 38.6134 522.589 57.8638 520.223C70.6967 518.645 83.6676 516.699 96.5685 515.866Q97.2784 551.912 98.6213 587.94C99.1996 604.932 100.482 622.535 99.3203 639.506C98.2134 655.669 94.0134 672.072 91.3205 688.062C86.5376 716.461 82.2833 744.984 77.2899 773.339C65.3745 773.991 53.4153 775.655 41.5555 776.991C27.7091 778.551 13.832 779.88 0 781.555L0 526.898Z"/>
	<path fill="#020101" d="M63.2982 543.714C64.7732 543.525 66.4569 543.415 67.7957 544.207C69.2121 545.045 70.0889 546.729 70.4347 548.285C71.0395 551.007 71.3036 557.406 69.4406 559.673C68.3965 560.944 67.1988 561.396 65.6604 561.801C60.5414 563.151 54.7256 563.469 49.4713 564.114Q30.0649 566.423 10.6174 568.358C8.78533 568.462 7.12396 568.367 5.54584 567.315C3.81109 566.158 3.23993 564.036 2.92648 562.093C2.42355 558.976 2.57021 554.831 4.63864 552.251C8.00554 548.051 55.1981 544.496 63.2982 543.714Z"/>
	<path fill="#2C1F30" d="M59.3846 549.705C61.6807 549.493 63.444 549.255 65.4383 550.507C66.459 552.246 66.3232 554.112 66.3743 556.067C49.5401 559.794 31.4309 560.894 14.25 562.492C11.8706 562.797 9.63404 563.424 7.558 562.028C6.68539 560.111 6.94028 557.938 6.95605 555.87C24.2251 553.232 41.9757 551.156 59.3846 549.705Z"/>
	<path fill="#FFFEFE" d="M0 333.886C15.8423 326.494 31.6812 319.732 48.442 314.62C48.9655 332.108 51.2281 349.757 52.3183 367.255Q56.2718 428.531 57.7602 489.916C38.5357 492.137 19.1468 493.847 0 496.6L0 333.886Z"/>
	<path fill="#9F8BE8" d="M0 241.932C57.3369 241.928 114.568 243.032 171.716 248.162Q187.181 249.527 202.598 251.363C207.902 251.982 213.485 252.327 218.66 253.669Q207.436 264.167 196.573 275.039C147.747 272.988 80.7036 279.474 33.4036 292.47Q23.0513 295.36 13.028 299.24C8.74294 300.91 4.37805 303.017 0 304.331L0 241.932Z"/>
	<path fill="#2C1F30" d="M0 309.643C45.9147 291.523 93.5578 284.902 142.558 281.505C158.984 280.366 175.842 279.17 192.303 279.518C188.191 284.375 184.186 289.462 179.817 294.087C123.01 294.407 49.8656 300.551 0 329.219L0 309.643Z"/>
	<path fill="#9F8BE8" d="M0 502.153C31.951 497.674 64.2556 494.798 96.3122 491.028L96.4568 510.348L31.0485 517.694C20.7802 518.83 10.3013 520.536 0 521.128L0 502.153Z"/>
	<path fill="#9F8BE8" d="M903.578 672.425L904.029 672.501C905.716 675.353 906.757 711.642 907.035 717.144Q908.93 757.673 911.806 798.145C913.035 816.222 914.685 834.336 915.355 852.441C900.547 853.904 886.531 856.725 872.427 861.424C859.664 865.676 847.483 871.367 834.914 876.108C806.897 886.677 778.22 888.646 749.052 881.975C747.503 869.572 746.922 856.854 745.788 844.387C743.887 823.49 741.69 802.521 740.717 781.554C740.277 772.056 740.168 762.461 740.142 752.952C740.129 748.458 740.815 743.351 739.927 738.965C739.615 737.422 739.221 736.634 737.881 735.82C737.156 735.962 736.762 735.899 736.219 736.466C728.707 744.303 742.963 873.699 744.055 892.84C723.404 897.018 705.707 895.032 687.893 883.287C688.581 876.64 690.009 870.023 691.098 863.426Q693.521 848.27 695.777 833.089C700.043 804.579 702.821 775.385 703.117 746.536C703.162 742.187 703.645 725.985 701.058 723.348C699.744 723.007 699.561 723.063 698.257 723.474C697.671 724.169 697.336 724.653 697.125 725.56C696.509 728.208 697.577 742.943 697.534 747.12Q697.239 776.083 693.811 804.844C690.768 831.056 686.374 856.695 681.741 882.653C654.607 887.604 627.332 889.234 602.194 875.829C603.098 869.462 605.102 862.877 606.441 856.548C610.198 838.786 629.933 748.932 624.648 738.191C623.496 737.36 623.47 737.343 622.053 737.388C618.814 739.518 619.302 752.995 618.796 757.393C615.862 782.928 610.615 807.818 605.464 832.959C603.517 842.465 602.142 852.092 599.998 861.552C591.651 858.148 583.69 855.125 576.451 849.567C579.983 829.408 584.219 809.464 587.131 789.178C592.62 750.936 594.667 713.028 595.129 674.422Q598.888 675.823 602.755 676.893C624.262 682.766 647.629 684.696 669.821 686.384Q689.204 687.872 708.628 688.644Q728.053 689.415 747.493 689.469Q766.933 689.524 786.362 688.86Q805.79 688.196 825.181 686.816C846.207 685.385 885.619 682.588 903.578 672.425Z"/>
	<path fill="#9F8BE8" d="M625.658 468.714C628.577 468.465 631.596 468.549 634.53 468.491C643.293 483.211 650.607 499.434 657.363 515.16C659.763 520.747 662.534 526.421 664.261 532.251C656.839 528.381 641.198 521.22 635.517 515.996C632.302 513.038 629.993 509.131 627.09 505.882C617.088 494.69 603.005 491.79 588.592 491.062Q588.083 491.724 587.59 492.398C584.669 496.426 584.529 503.372 585.399 508.203C586.202 512.661 590.804 516.551 594.338 519.118C600.773 523.793 608.849 528.408 616.257 531.317C619.459 532.574 623.591 533.112 626.474 534.899C632.586 538.687 638.354 543.926 644.055 548.352C657.703 558.945 671.239 569.835 685.417 579.71C683.566 586.69 682.571 593.827 680.494 600.785C676.148 615.35 669.015 628.051 661.991 641.398C644.786 643.212 605.604 648.044 593.416 659.904C591.848 661.429 590.683 663.181 590.144 665.316C588.766 670.777 589.329 677.382 589.226 683.015L588.678 711.746C582.742 713.463 576.592 714.52 570.538 715.744C571.523 693.166 569.006 671.677 559.903 650.727C547.992 623.317 527.807 603.721 500.129 592.714Q497.463 591.768 494.734 591.02Q492.005 590.273 489.228 589.728Q486.452 589.184 483.643 588.846Q480.833 588.507 478.007 588.377C453.359 587.026 428.949 597.635 410.913 614.075C388.713 634.31 374.084 664.251 368.782 693.7C365.986 709.23 365.385 724.957 364.709 740.683C360.149 741.34 355.588 741.774 351.002 742.187C351.516 732.195 351.879 722.127 353.107 712.191C358.431 669.111 374.726 631.519 403.951 599.221C411.702 590.655 420.295 583.071 428.671 575.145C457.534 547.831 471.984 520.623 473.032 480.599C479.348 480.404 485.767 479.482 492.057 478.859Q506.969 477.404 521.898 476.136C556.508 473.146 590.96 470.47 625.658 468.714Z"/>
	<path fill="#2C1F30" d="M463.768 597.713C483.317 597.972 502.276 603.224 517.523 615.984C539.09 634.034 553.439 662.265 555.825 690.206C558.858 725.733 549.007 763.482 525.624 790.817C509.853 809.254 488.371 820.881 464.122 822.765C463.672 822.817 463.222 822.875 462.769 822.902C442.923 824.122 422.112 814.583 407.49 801.686C387.064 783.672 373.54 756.671 371.996 729.443C370.005 694.321 381.909 654.236 405.599 627.783C421.783 609.712 439.321 598.999 463.768 597.713Z"/>
	<path fill="#020101" d="M463.16 624.684C463.2 624.677 463.239 624.667 463.28 624.663C478.97 623.01 495.038 628.535 507.205 638.428C524.769 652.709 534.571 675.015 536.755 697.213C539.241 722.48 532.944 749.564 516.492 769.352C505.652 782.391 489.275 792.927 472.125 794.5C456.688 795.579 441.596 792.237 429.234 782.59C410.658 768.092 400.173 748.384 397.26 725.141C394.101 699.934 400.204 672.853 416.025 652.674C428.173 637.179 443.474 627.029 463.16 624.684Z"/>
	<path fill="#9F8BE8" d="M464.809 630.208C464.842 630.204 464.875 630.197 464.908 630.194C478.802 629.126 491.622 633.279 502.568 641.871C519.389 655.074 528.811 675.482 531.213 696.423C533.914 719.97 527.976 746.259 513.031 764.973C502.047 778.727 486.6 787.353 469.125 789.265C469.065 789.273 469.006 789.285 468.946 789.289Q467.613 789.377 466.278 789.401Q464.943 789.425 463.608 789.384Q462.273 789.344 460.941 789.239Q459.61 789.133 458.285 788.964Q456.96 788.795 455.645 788.562Q454.33 788.329 453.028 788.033Q451.726 787.737 450.439 787.379Q449.153 787.02 447.885 786.6Q446.617 786.179 445.371 785.698Q444.125 785.218 442.904 784.677Q441.683 784.136 440.489 783.538Q439.295 782.939 438.132 782.283Q436.968 781.627 435.838 780.916Q434.707 780.205 433.612 779.44Q432.517 778.676 431.461 777.859Q430.404 777.042 429.388 776.175C412.934 762.033 403.924 741.054 402.31 719.654C400.471 695.261 407.354 670.694 423.474 651.994C434.127 639.636 448.467 631.459 464.809 630.208Z"/>
	<path fill="#FFFEFE" d="M304.303 211.194C316.052 209.164 329.937 211.487 341.437 214.098C331.376 219.088 323.921 226.083 319.68 236.665C308.829 263.734 325.104 295.041 335.82 319.714C325.548 333.031 313.988 345.442 302.781 357.974Q286.997 375.738 271.455 393.714C267.192 398.598 256.562 408.917 254.037 413.925C250.392 421.152 245.05 452.569 243.034 462.587C218.532 465.926 192.149 462.56 168.447 455.909Q160 453.595 151.694 450.815Q143.389 448.034 135.252 444.795Q127.114 441.555 119.17 437.868Q111.226 434.18 103.499 430.056C107.017 419.211 112.671 408.329 117.794 398.152C136.831 360.34 157.511 330.41 184.021 297.579C203.504 273.45 238.706 240.087 265.501 224.814C277.682 217.872 290.271 212.661 304.303 211.194Z"/>
	<path fill="#9F8BE8" d="M464.735 481.212C466.019 481.11 465.998 480.868 467.092 481.686C468.497 487.234 466.521 496.095 465.478 501.758C460.699 527.733 446.886 549.295 428.415 567.724C421.365 574.758 413.795 581.287 406.825 588.398C393.782 601.704 381.949 616.102 372.782 632.367C352.995 667.476 347.223 703.701 345.012 743.383C328.572 744.53 310.784 747.086 294.494 749.715Q294.535 731.132 294.258 712.55C293.993 696.602 294.675 680.315 292.909 664.455C291.029 647.578 286.569 630.793 282.863 614.233Q269.51 556.896 254.002 500.105C261.974 499.732 270.059 498.576 278.011 497.782Q298.644 495.71 319.306 493.941L464.735 481.212Z"/>
	<path fill="#020101" d="M423.041 505.705C425.503 505.411 428.499 504.658 430.624 506.206C432.279 509.267 431.875 517.274 431.048 520.669C430.794 520.928 430.599 521.262 430.286 521.445C428.288 522.615 380.915 525.944 374.24 526.469C372.361 526.343 370.515 526.094 368.955 524.943C366.945 523.46 365.576 520.872 365.326 518.404C365.127 516.438 365.613 514.576 366.958 513.097C368.626 511.265 371.301 510.629 373.627 510.115C378.889 508.953 384.746 508.873 390.115 508.419L423.041 505.705Z"/>
	<path fill="#2C1F30" d="M423.886 511.221C424.603 511.129 425.006 511.208 425.703 511.347C426.716 512.921 426.445 515.076 426.444 516.899C408.779 518.146 391.09 520.306 373.41 521.145C372.467 520.808 371.892 520.464 371.464 519.503C370.921 518.287 370.96 517.317 371.426 516.145C374.534 514.04 417.042 511.579 423.886 511.221Z"/>
	<path fill="#2C1F30" d="M148.347 455.728C159.635 459.228 171.141 462.918 182.728 465.251C202.351 469.203 221.867 469.098 241.777 468.949C242.074 474.603 243.779 480.388 245.114 485.872C247.572 495.97 250.314 506.001 252.814 516.091C263.762 560.271 276.456 604.3 285.194 648.99C289.289 669.935 288.725 691.117 289.125 712.35L290.094 803.203L290.489 860.17C290.534 868.637 291.632 880.428 289.867 888.421Q270.418 889.284 250.95 889.225C249.108 875.429 246.495 861.714 244.433 847.943Q236.439 796.948 232.457 745.484C231.279 728.285 230.691 710.713 230.85 693.475C230.916 686.391 233.023 669.35 231.834 663.828C230.501 657.638 225.906 651.732 223.268 645.971L199.336 593.036C194.946 583.367 190.107 573.871 186.077 564.046C182.481 555.28 179.431 546.274 176.094 537.406C171.26 524.558 166.225 511.795 161.985 498.734C157.332 484.405 153.631 469.857 148.347 455.728Z"/>
	<path fill="#2C1F30" d="M103.986 436.121C116.391 442.744 129.211 447.829 142.072 453.445C145.129 459.461 146.759 466.553 148.721 472.995L157.101 500.002Q161.014 512.639 165.779 524.981C169.054 533.52 173.659 542.667 174.976 551.752C176.361 561.31 173.972 579.351 173.422 589.816L171.621 626.054C171.267 633.671 171.307 641.594 170.112 649.129C168.814 657.323 166.434 665.467 164.319 673.481C160.087 689.518 155.371 705.346 150.79 721.281C145.182 740.784 140.178 760.442 134.639 779.959C127.916 803.653 120.761 827.152 114.714 851.043C113.057 858.848 110.514 866.621 108.538 874.377C95.7612 871.516 82.2394 868.651 69.9029 864.295Q72.4315 843.03 75.4908 821.835C77.0108 811.944 78.9968 802.132 80.5162 792.247L94.0269 704.321Q97.1166 685.293 100.62 666.337C102.357 656.909 104.587 647.42 105.203 637.841C105.954 626.154 105.422 614.293 105.06 602.596Q104.402 579.004 103.222 555.433C101.381 516.505 100.421 474.941 103.986 436.121Z"/>
	<path fill="#2C1F30" d="M827.201 503.517C831.405 503.096 835.28 503.421 839.226 505.026C844.75 507.273 849.721 511.543 853.033 516.478C859.506 526.123 871.863 569.055 873.436 581.916C874.515 590.74 872.625 600.52 875.28 608.977C880.551 625.768 892.726 639.807 899.623 655.883C886.934 649.74 872.155 646.58 858.221 644.697C857.779 639.231 853.84 617.854 851.39 613.665C845.292 613.686 820.025 621.615 812.175 623.736C807.819 615.175 804.281 607.642 796.32 601.799C791.385 598.996 786.562 597.167 781.133 595.532C801.065 583.578 823.058 574.597 842.171 561.253C843.783 560.128 845.658 559.071 846.025 556.988C845.457 555.796 845.494 555.764 844.307 555.212C842.541 555.237 841.264 555.638 839.693 556.458C833.637 559.619 827.813 563.44 821.849 566.797C807.271 575.003 792.786 582.777 777.636 589.858C771.506 578.063 765.392 566.473 758.217 555.261C773.308 543.704 787.673 531.202 802.637 519.469C808.021 515.248 813.161 510.409 819.007 506.842C821.632 505.241 824.196 504.214 827.201 503.517Z"/>
	<path fill="#9F8BE8" d="M180.18 564.77C180.328 564.89 180.489 564.993 180.622 565.128C183.149 567.69 199.648 607.27 202.515 613.524C209.509 628.781 217.034 643.807 223.834 659.153C224.831 661.404 226.056 663.779 226.332 666.253C227.038 672.576 225.423 683.99 225.409 691.177C225.368 712.878 225.925 734.731 228.19 756.323C215.393 757.917 202.557 759.131 189.757 760.683C174.626 762.522 159.345 764.28 144.172 765.7L167.024 683.689C169.961 672.859 173.934 661.717 175.698 650.662C177.271 640.808 177.242 630.23 177.762 620.249Q179.175 592.518 180.18 564.77Z"/>
	<path fill="#FFFEFE" d="M347.597 216.932C348.99 216.944 349.682 217.87 350.648 218.822C355.297 223.405 359.395 228.182 362.668 233.852C368.054 243.184 371.933 253.348 375.606 263.445C385.779 291.41 392.284 319.831 398.389 348.89C401.083 361.711 404.31 374.407 406.707 387.293C408.844 398.787 409.857 410.36 411.052 421.977C412.165 432.793 413.511 443.595 413.673 454.476C410.778 448.791 407.19 443.545 403.635 438.262C398.38 430.509 393.231 422.626 387.699 415.07C384.052 410.088 379.445 405.164 376.469 399.774C372.715 392.975 371.03 382.93 367.916 375.432C363.909 365.782 358.143 357.054 353.833 347.561C344.142 326.221 324.842 286.123 322.002 263.764C320.926 255.295 321.532 246.654 324.596 238.638C328.765 227.728 337.232 221.509 347.597 216.932Z"/>
	<path fill="#9F8BE8" d="M398.191 320.296C404.378 324.045 413.193 332.09 419.141 336.943Q451.028 363.089 481.474 390.9C490.921 399.64 517.432 427.1 526.97 430.701C532.833 432.915 539.526 433.743 545.676 434.915C566.82 438.945 588.093 441.01 609.348 444.198C620.53 445.876 625.71 454.717 631.896 463.183C627.281 463.426 622.64 463.436 618.019 463.531C595.374 463.743 572.509 466.211 549.959 468.072C524.497 470.174 498.798 471.916 473.444 475.041C473.429 469.693 473.106 464.072 473.71 458.761C474.19 454.537 475.437 450.14 475.468 445.904C475.477 444.715 475.317 443.761 474.91 442.646C465.67 417.356 425.365 371.566 405.213 352.981C402.408 342.313 400.169 331.151 398.191 320.296Z"/>
	<path fill="#FFFEFE" d="M311.213 356.856C314.767 359.289 319.708 367.439 322.465 371.161C342.825 398.637 364.25 427.926 380.977 457.739L311.88 463.64C290.538 466.249 268.784 467.768 247.349 469.639L254.408 435.024C255.605 429.434 256.455 422.837 258.829 417.607C261.619 411.46 273.847 399.132 278.824 393.489L311.213 356.856Z"/>
	<path fill="#9F8BE8" d="M692.813 644.227C696.124 644.756 701.518 651.385 704.341 653.725C720.535 667.152 740.019 672.215 760.878 670.183C780.468 668.275 796.808 660.579 809.42 645.386C834.888 648.099 860.371 649.012 885.147 656.36C889.751 657.725 899.319 660.549 901.721 664.968C901.726 665.918 901.936 666.202 901.285 666.962C893.876 675.627 840.099 680.152 827.122 681.328Q796.445 683.333 765.705 683.73Q734.965 684.127 704.247 682.914C679.452 681.962 654.957 680.491 630.39 676.803C618.486 675.016 604.821 673.377 594.191 667.491C594.826 666.545 595.47 665.579 596.219 664.719C608.068 651.109 673.883 645.223 692.813 644.227Z"/>
	<path fill="#2C1F30" d="M412.632 152.147C422.216 150.968 431.849 154.069 439.812 159.285Q443.086 161.431 446.078 163.955Q449.07 166.479 451.737 169.344C460.598 178.996 477.06 203.109 479.389 215.594C480.219 220.049 479.623 223.84 476.881 227.52C472.668 233.174 466.787 235.787 460.029 236.82C458.526 229.994 456.461 223.866 451.204 219.075C447.05 223.482 443.105 226.475 436.788 226.752C432.884 226.923 427.523 226.739 424.795 223.45C423.624 222.038 423.989 220.111 423.981 218.375C423.947 216.194 423.352 214.3 422.109 212.496C420.799 210.596 418.884 209.294 416.587 208.955C413.601 208.514 410.641 209.59 408.329 211.459C402.654 216.047 401.999 222.372 401.416 229.105C399.906 231.301 398.505 232.681 396.08 233.842C391.181 236.187 385.454 236.071 380.394 234.355C377.018 230.828 374.102 226.812 370.804 223.191C366.353 218.305 361.536 213.855 357.252 208.796C368.625 198.997 363.843 185.747 372.036 175.271C376.671 169.346 383.021 169.193 388.974 165.508C398.863 159.385 398.221 154.092 412.632 152.147Z"/>
	<path fill="#9F8BE8" d="M80.7299 307.642C81.4485 307.638 81.0307 307.549 81.8266 308.306C83.4084 318.161 85.5342 327.908 87.1626 337.753Q91.1885 363.521 94.4922 389.391C96.0997 401.852 97.7755 414.411 98.2654 426.973C98.9863 445.461 96.6646 466.64 96.1997 485.464C88.2982 486.561 80.3099 487.289 72.3806 488.184C69.4129 488.593 66.4189 488.882 63.442 489.223C61.7823 464.242 61.8366 439.127 60.613 414.113C58.9584 380.29 56.1036 346.589 53.9248 312.81C62.8744 311.198 71.7938 309.337 80.7299 307.642Z"/>
	<path fill="#9F8BE8" d="M938.737 490.699Q954.597 492.366 970.404 494.478L926.575 675.756Q925.079 682.238 923.294 688.646C919.393 684.981 915.325 682.152 910.725 679.419C910.439 672.745 908.543 665.439 908.986 658.911C909.433 652.303 911.144 645.664 912.492 639.189Q914.684 628.696 916.479 618.128C923.997 575.751 933.435 533.414 938.737 490.699Z"/>
	<path fill="#FFFEFE" d="M166.315 299.218C169.508 298.972 172.778 299.02 175.982 298.937C156.391 324.275 139.736 346.474 124.046 374.589Q116.767 387.389 110.476 400.702C108.115 405.603 106.184 411.24 103.254 415.788C102.303 414.697 102.477 412.393 102.398 410.959C100.716 399.16 99.8289 387.176 98.2749 375.339Q93.888 340.79 87.2518 306.602C92.8109 305.518 98.6201 305.001 104.246 304.266Q135.166 300.335 166.315 299.218Z"/>
	<path fill="#9F8BE8" d="M460.333 457.709C462.676 457.367 465.241 457.454 467.618 457.346Q467.628 466.492 467.533 475.638C396.536 480.121 325.92 488.608 255.073 494.655C254.015 494.845 253.862 494.872 252.793 494.501C249.777 489.18 248.941 480.699 247.659 474.701C262.049 473.83 276.369 472.313 290.727 471.027L359.25 464.97C392.872 462.006 426.656 460.038 460.333 457.709Z"/>
	<path fill="#9F8BE8" d="M901.378 479.271C915.835 478.442 971.823 479.083 982.266 487.197C983.982 490.482 981.089 497.688 980.192 501.19Q964.338 565.159 949.791 629.438L941.28 664.903C938.009 678.253 932.12 699.144 932.512 712.482C932.998 729.076 938.075 746.306 941.367 762.583Q949.155 800.613 956.356 838.759C957.43 844.222 963.408 868.65 962.101 872.724C961.678 874.041 961.479 874.168 960.326 874.726C959.037 874.085 958.63 873.293 958.15 871.968C956.603 867.701 956.188 862.793 955.273 858.345C953.455 849.507 951.417 840.736 949.723 831.864L934.993 755.871C933.278 747.134 931.846 734.164 928.715 726.146C926.85 721.372 917.127 718.624 912.685 716.602C912.507 712.925 912.513 709.224 912.44 705.543C915.998 706.043 919.602 706.284 923.181 706.592C928.966 697.427 932.488 675.114 935.1 663.722Q939.305 645.005 943.878 626.374C952.209 589.278 962.168 552.522 970.581 515.441C971.919 509.544 976.161 497.08 976.117 491.8C976.11 490.953 975.947 490.623 975.237 490.085C971.866 487.53 936.161 484.161 931.165 485.444C931.029 485.832 930.832 486.324 930.816 486.734C930.75 488.485 931.48 488.759 932.655 489.758C933.115 491.031 933.039 492.116 932.922 493.439C932.541 497.728 931.403 502.125 930.643 506.369L926.837 528.56L909.866 623.064C908.056 633.501 905.789 643.723 904.398 654.24Q902.526 650.634 900.71 647C904.002 633.051 905.99 618.713 908.605 604.622L925.827 507.358C926.591 502.853 930.325 488.506 929.712 485.02C923.18 483.051 906.556 484.711 899.188 485.127C896.44 492.286 895.679 500.759 893.912 508.281Q885.842 542.432 878.523 576.752C877.505 572.764 876.051 568.332 876.139 564.172C876.319 555.593 881.575 537.649 883.831 528.388C887.817 512.024 891.228 495.474 896.205 479.37L901.378 479.271Z"/>
	<path fill="#9F8BE8" d="M604.134 498.521C623.131 501.578 623.056 515.435 636.114 523.198C667.773 542.02 702.475 555.634 734.89 573.081C741.982 569.446 748.392 563.785 754.844 559.111Q763.812 575.27 773.064 591.268C765.553 593.898 758.208 597.066 750.842 600.075C746.201 601.834 741.549 603.036 736.56 603.134C731.972 603.224 727.054 602.447 722.944 600.335C714.197 595.842 706.196 588.738 698.333 582.799L651.855 547.488C644.625 542.021 637.406 535.88 629.806 531C626.397 528.811 621.948 528.196 618.187 526.7C610.576 523.671 596.31 514.976 590.47 509.344C594.527 511.445 602.9 515.738 606.818 517.267C608.016 517.735 608.525 517.624 609.633 517.065L610 515.84C609.733 514.458 609.289 513.779 608.439 512.71C608.342 512.588 608.242 512.468 608.144 512.347L608.667 511.977C609.966 512.086 611.844 512.438 613.074 511.961C614.567 511.383 615.212 510.034 615.599 508.626C614.448 503.859 608.062 500.932 604.134 498.521Z"/>
	<path fill="#9F8BE8" d="M273.422 894.222C279.432 893.995 286.719 892.898 292.522 894.577C301.219 897.094 311.035 902.263 320.052 905.321Q338.468 911.446 357.011 917.174C364.537 919.512 373.055 921.449 380.064 925.083C383.697 926.967 385.507 930.009 387.343 933.49C378.772 933.898 370.143 933.84 361.564 933.746Q304.366 932.756 247.272 929.162C248.219 917.658 249.874 906.086 251.481 894.653Q262.456 894.688 273.422 894.222Z"/>
	<path fill="#9F8BE8" d="M69.3475 869.773C78.3922 871.879 99.5541 876.492 106.774 880.11C110.954 882.205 114.513 885.942 117.988 889.035C126.107 896.263 135.627 905.869 144.427 911.875C151.205 916.502 180.765 932.604 182.425 939.779C182.603 940.547 182.2 940.816 181.816 941.434C180.01 942.255 177.788 941.585 175.891 941.286C159.041 937.38 142.405 932.079 125.911 926.894Q93.1818 916.553 60.6991 905.462C64.3491 893.942 66.7417 881.578 69.3475 869.773Z"/>
	<path fill="#9F8BE8" d="M903.393 490.317Q913.164 490.3 922.933 490.462C915.184 539.263 905.812 587.748 897.131 636.386C897.051 636.891 896.825 637.295 896.614 637.757C895.944 637.293 895.577 636.884 895.131 636.198C890.448 628.994 880.798 611.283 879.82 603.272C878.542 592.802 890.162 549.673 893.19 536.511Q898.46 513.451 903.393 490.317Z"/>
	<path fill="#2C1F30" d="M769.266 398.696C775.463 397.959 782.415 398.057 788.442 399.756C799.833 402.968 809.176 412.934 814.673 423.076C820.284 433.429 818.157 443.331 815.048 454.06C812.187 454.445 809.705 455.076 806.988 456.05C805.673 453.733 804.319 451.394 802.788 449.211C800.841 446.436 797.984 443.858 794.505 443.4C792.493 443.134 790.652 443.591 789.041 444.834C785.17 447.821 784.232 453.271 783.639 457.814C781.143 453.994 778.6 450.293 775.691 446.774C768.92 438.067 759.951 429.928 754.589 420.206C753.124 417.55 753.458 413.958 752.183 411.215C751.698 410.17 751.487 410.19 750.461 409.879C748.634 410.442 747.27 411.707 745.907 412.995C736.317 422.064 735.79 425.346 735.501 438.081C733.401 433.988 731.264 430.052 730.694 425.408C730.105 420.616 731.411 415.736 734.542 412.032C742.565 402.542 757.669 399.888 769.266 398.696Z"/>
	<path fill="#9F8BE8" d="M690.388 583.633C700.632 590.601 709.926 600.214 721.122 605.62C733.712 611.7 746.272 608.057 758.44 603.046C762.473 601.385 766.69 599.253 771.062 598.748C774.395 598.363 777.831 599.047 781.015 600.017C794.787 604.211 799.856 611.452 806.344 623.519C796.587 622.07 786.643 621.616 776.801 621.046C759.631 620.395 710.191 619.167 695.356 626.535C693.29 627.562 691.301 629.12 690.596 631.411C689.813 633.955 690.907 636.384 692.015 638.628C684.257 639.345 676.491 640.158 668.712 640.618C675.27 629.14 681.289 616.895 685.235 604.251C687.335 597.521 688.755 590.492 690.388 583.633Z"/>
	<path fill="#2C1F30" d="M368.297 745.194L368.943 745.321C370.458 748.534 370.777 752.91 371.734 756.387C377.699 778.075 393.981 800.217 412.639 812.536C419.072 816.783 426.13 819.598 432.822 823.335C422.397 822.958 412.386 822.242 402.145 820.159C397.75 819.019 393.419 817.844 389.203 816.132C359.533 804.082 345.553 778.151 333.943 750.287C345.426 748.752 356.84 746.891 368.297 745.194Z"/>
	<path fill="#9F8BE8" d="M809.313 635.235L809.65 635.541C809.225 637.262 807.841 638.824 806.791 640.224C796.379 654.096 780.054 661.925 763.118 664.338C744.087 667.05 725.633 662.959 710.255 651.405C704.697 646.845 699.863 642.541 696.097 636.363C733.73 637.58 771.742 638.069 809.313 635.235Z"/>
	<path fill="#9F8BE8" d="M326.339 340.328C330.194 343.72 334.919 351.277 338.217 355.537Q375.21 404.231 408.142 455.758L397.398 456.548C393.95 456.966 390.461 457.206 387.001 457.525C378.666 440.646 367.252 424.699 356.54 409.251C343.146 389.934 329.676 370.855 315.254 352.282C318.874 348.214 322.508 344.202 326.339 340.328Z"/>
	<path fill="#9F8BE8" d="M413.115 213.473C414.509 213.505 415.913 213.507 417.127 214.325C422.188 217.732 417.047 227.233 418.427 232.116L419.906 232.326C421.462 231.27 422.416 230.223 423.56 228.738C434.098 231.303 441.507 232.584 451.473 226.911C452.671 229.297 453.674 231.771 454.712 234.23C450.101 238.098 445.105 241.422 440.461 245.236C439.304 250.644 439.524 256.26 438.437 261.73C435.938 261.478 432.472 260.132 430.044 260.757C428.415 261.176 427.558 262.334 426.82 263.723C426.414 264.486 425.988 265.235 425.567 265.991C424.024 266.337 422.501 266.75 420.973 267.158C419.462 269.903 418.046 272.459 415.279 274.152C413.012 275.538 410.422 275.935 407.86 275.194C405.038 274.379 402.639 272.508 400.693 270.357C395.657 264.787 386.578 247.126 382.881 239.914C386.761 240.119 390.449 240.11 394.256 239.219C399.863 237.907 403.369 235.15 406.352 230.309C406.274 227.74 406.057 224.946 406.516 222.407C407.284 218.166 409.706 215.861 413.115 213.473Z"/>
	<path fill="#9F8BE8" d="M747.934 417.327C749.194 418.247 754.208 429.013 755.887 431.422C763.171 441.873 775.069 449.683 780.393 461.52C782.2 465.539 782.49 469.886 780.785 473.996C778.054 480.578 771.884 484.732 765.508 487.213C763.226 488.136 760.705 488.842 758.306 489.39C755.12 490.118 751.277 490.436 748.434 488.484C742.923 484.699 742.067 470.661 740.974 464.552C739.118 463.947 736.516 463.363 735.064 462.054C732.949 460.148 739.886 450.522 740.948 448.129C743.489 442.407 740.258 436.834 740.376 431.064C740.491 425.371 744.1 421.119 747.934 417.327Z"/>
	<path fill="#2C1F30" d="M765.378 498.952C767.562 501.886 768.72 508.761 769.96 512.394C772.207 518.973 775.036 525.939 778.914 531.733C773.669 535.23 768.463 538.959 763.536 542.89C763.531 542.707 763.522 542.523 763.521 542.34C763.5 539.101 763.54 536.43 761.184 533.881C760.057 533.624 759.565 533.612 758.559 534.405C755.708 536.652 758.649 543.573 758.184 546.869C757.5 551.721 739.265 564.254 734.839 567.687C728.055 562.613 719.527 558.868 712.049 554.853C718.996 546.257 729.188 538.142 737.136 530.232C747.03 520.387 756.199 509.475 765.378 498.952Z"/>
	<path fill="#2C1F30" d="M408.056 363.348C414.737 366.978 438.442 396.76 444.018 403.814C451.555 413.35 463.89 428.079 468.311 439.311C469.804 443.103 470.311 446.738 469.838 450.775C466.238 451.541 462.35 451.562 458.677 451.881C450.578 437.812 440.454 422.242 430.778 409.182C425.414 401.943 417.005 393.694 413.15 385.777C410.064 379.437 408.404 370.388 408.056 363.348Z"/>
	<path fill="#9F8BE8" d="M792.205 448.686C793.137 448.774 794.11 448.927 794.988 449.269C799.212 450.916 801.459 455.482 803.149 459.376C801.57 459.961 799.894 460.514 798.517 461.505C795.7 463.534 794.039 467.044 793.526 470.407C792.324 478.293 794.694 488.237 799.425 494.617C800.804 495.471 801.855 495.649 803.461 495.848C805.441 496.093 806.822 500.139 808.271 501.536C809.487 502.71 811.489 503.573 812.978 504.375C803.558 513.08 792.612 520.413 782.556 528.422C779.626 523.792 777.694 518.602 775.75 513.504C773.355 507.203 771.01 500.909 769.531 494.319C778.55 488.634 777.213 487.029 782.832 479.542L783.191 479.072C784.759 483.311 786.755 487.983 787.021 492.533C787.38 498.656 781.747 503.166 782.35 507.289C783.202 508.383 783.424 508.442 784.74 508.929C786.305 508.55 786.839 508.208 787.777 506.868C795.425 495.945 789.452 485.757 787.971 474.382C786.928 466.368 787.1 455.334 792.205 448.686Z"/>
	<path fill="#FFFEFE" d="M413.354 394.292C413.561 394.498 413.771 394.701 413.976 394.909C418.734 399.739 452.734 448.629 452.666 452.176L451.38 452.582C440.692 453.737 429.904 454.297 419.182 455.072C418.98 434.528 415.39 414.643 413.354 394.292Z"/>
	<path fill="#9F8BE8" d="M846.948 619.645C848.731 621.257 852.017 640.089 852.915 644.005Q837.543 642.102 822.12 640.676L813.614 639.821C815.043 638.027 816.76 636.145 817.863 634.138C819.141 631.812 818.722 629.792 818.085 627.343C827.766 625.08 837.318 622.142 846.948 619.645Z"/>
	<path fill="#9F8BE8" d="M740.353 626.722C762.6 625.986 785.317 626.094 807.34 629.59C794.18 631.811 780.255 631.581 766.932 631.801Q747.544 631.494 728.153 631.559C718.392 631.567 708.533 631.805 698.795 631.142C711.87 627.09 726.74 627.33 740.353 626.722Z"/>
	<path fill="#FFFEFE" d="M337.805 326.328C340.272 328.412 344.784 340.761 346.528 344.577C352.023 356.599 359.981 368.629 364.314 380.985L360.931 376.22C350.702 362.569 340.003 349.215 330.055 335.366C332.528 332.224 335.062 329.238 337.805 326.328Z"/>
	<path fill="#9F8BE8" d="M808.711 459.828C811.21 459.719 813.988 459.587 816.44 460.118C818.451 460.554 820.248 461.602 821.218 463.47C823.702 468.254 816.839 480.21 815.025 484.864C814.307 486.932 813.784 489.064 811.734 490.113C810.474 489.916 809.646 489.041 808.918 488.043C804.584 482.107 807.896 466.722 808.711 459.828Z"/>
	<path fill="#2C1F30" d="M821.947 483.175C827.345 484.736 832.173 486.464 836.864 489.588C837.11 492.226 837.031 494.865 837.003 497.511C831.941 497.503 827.237 497.788 822.381 499.309L817.203 501.053C813.516 499.075 810.312 496.449 807.164 493.72C809.224 494.076 812.029 494.906 814.056 494.232C818.296 492.823 820.125 486.836 821.947 483.175Z"/>
	<path fill="#9F8BE8" d="M354.924 215.31C355.943 215.691 356.737 216.146 357.576 216.837C368.376 225.728 374.271 235.572 381.148 247.468C382.392 249.621 385.251 253.634 385.312 256.167C385.331 256.913 384.756 257.124 384.248 257.58L380.21 260.113C374.007 243.578 367.245 228.323 354.924 215.31Z"/>
	<path fill="#9F8BE8" d="M911.292 686.771C914.751 688.443 918.707 691.029 920.455 694.56C921.669 697.012 921.142 698.376 920.287 700.841L919.251 701.384C917.382 701.112 914.619 701.031 913.172 699.715C910.203 697.017 911.287 690.418 911.292 686.771Z"/>
	<path fill="#9F8BE8" d="M801.906 464.302C803.045 465.345 802.396 468.004 802.315 469.44C802.051 474.055 801.584 479.44 802.384 484.011C802.703 485.836 803.475 487.56 803.757 489.382C803.895 490.273 804.12 490.708 803.543 491.455L802.796 490.824C800.545 486.123 798.682 480.964 798.247 475.736C797.853 471.013 798.834 467.86 801.906 464.302Z"/>
</svg>
