<?xml version="1.0" encoding="utf-8" ?>
<svg xmlns="http://www.w3.org/2000/svg" xmlns:xlink="http://www.w3.org/1999/xlink" width="1024" height="1024">
	<path d="M0 0L1024 0L1024 107.959L1024 143.988L1024 246.58L1024 319.502L1024 493.834L1024 560.043L1024 622.542L1024 1024L815.483 1024L809.061 1024L487.125 1024L467.742 1024L440.016 1024L431.02 1024L382.434 1024L375.587 1024L143.68 1024L137.888 1024L30.4873 1024L24.1837 1024L0 1024L0 621.881L0 498.633L0 447.199L0 215.015L0 124.025L0 0Z"/>
	<path fill="#CBC4F8" d="M143.68 1024L143.616 1023.29C142.755 1014.25 140.665 1005.04 139.015 996.108L130.163 948.292C113.361 854.484 114.006 786.016 176.442 709.527C188.606 694.625 211.891 667.065 228.637 658.358C234.458 655.331 240.93 653.952 247.303 652.615C259.27 658.172 269.893 670.446 279.995 678.982C292.74 689.751 306.072 700.412 319.932 709.701Q348.747 729.412 378.361 747.9Q407.974 766.389 438.335 783.623Q468.695 800.858 499.75 816.808Q530.805 832.758 562.499 847.396C592.344 861.221 623.224 872.28 654.018 883.739C668.84 889.255 683.787 894.219 698.203 900.791C725.979 913.453 750.886 931.332 775.516 949.158C787.548 957.866 799.807 966.461 811.448 975.684C812.196 991.22 812.958 1008.89 809.061 1024L487.125 1024L467.742 1024L440.016 1024L431.02 1024L382.434 1024L375.587 1024L143.68 1024Z"/>
	<path d="M366.103 989.203Q350.413 983.339 334.888 977.052C319.469 970.979 303.943 964.884 289.214 957.253C256.907 940.513 227.124 919.338 196.744 899.422C192.228 896.461 172.541 885.043 170.902 881.653C170.491 880.803 170.664 880.247 170.713 879.331C171.499 878.133 171.595 877.904 172.884 877.323C176.818 877.764 254.987 929.88 264.601 935.901Q276.644 943.396 289.218 949.961C310.365 961.102 332.688 969.564 354.985 978.072Q392.682 992.668 431.003 1005.54C443.975 1009.87 457.153 1013.59 470.148 1017.87C475.749 1019.71 481.82 1021.41 487.125 1024L467.742 1024L440.016 1024L431.02 1024L382.434 1024L375.587 1024C373.824 1017.79 372.378 1011.5 370.636 1005.29C369.143 999.965 367.229 994.604 366.103 989.203Z"/>
	<path fill="#5B418E" d="M373.902 992.177Q392.301 999.151 410.9 1005.57C419.159 1008.41 428.201 1010.82 436.065 1014.62C434.55 1017.87 432.862 1020.92 431.02 1024L382.434 1024C380.004 1013.34 377.623 1002.47 373.902 992.177Z"/>
	<path fill="#5B418E" d="M445.234 1016.7C452.685 1019.06 460.492 1021.11 467.742 1024L440.016 1024L445.234 1016.7Z"/>
	<path d="M364.761 848.87C366.14 848.791 367.301 848.869 368.578 849.416C373.679 851.6 378.526 854.55 383.578 856.889C393.318 861.398 403.373 865.322 413.363 869.24Q436.61 878.213 460.563 885.079Q488.543 892.709 517.014 898.236Q545.484 903.763 574.287 907.156C581.868 907.984 589.507 908.814 597.121 909.243C601.984 909.517 606.95 909.375 611.794 909.818C613.265 909.953 613.694 910.044 614.628 911.191C614.852 912.822 614.539 913.677 613.93 915.138C607.516 916.682 596.683 915.409 590.05 914.873Q561.415 912.392 533.064 907.671Q504.713 902.95 476.819 896.019Q464.666 892.941 452.66 889.337Q440.653 885.732 428.815 881.608Q416.976 877.483 405.329 872.847Q393.682 868.21 382.248 863.07C377.102 860.79 366.806 857.554 363.941 852.792C363.756 851.237 364.19 850.269 364.761 848.87Z"/>
	<path d="M599.01 919.684L600.331 919.681C601.213 920.778 601.767 921.416 601.874 922.888C601.505 923.864 601.001 924.383 600.087 924.899C594.381 928.125 573.654 930.932 566.078 932.099C520.768 939.078 479.361 941.953 433.495 938.732C413.804 937.349 394.779 935.154 375.63 930.239C374.872 930.016 374.219 929.611 373.523 929.242C372.753 927.959 372.614 927.761 372.634 926.281C373.365 925.365 373.986 924.568 375.258 924.444C379.352 924.043 390.767 927.288 395.569 928.129C439.382 935.803 495.8 935.15 539.888 929.412C559.719 926.831 579.27 922.794 599.01 919.684Z"/>
	<path d="M700.716 935.708C701.877 935.517 702.864 935.572 704.029 935.647C705.272 936.314 705.707 936.714 706.391 937.95C706.437 939.312 706.419 939.42 705.691 940.569C704.894 941.111 704.251 941.465 703.289 941.644C698.284 942.572 692.717 942.482 687.63 942.806C675.159 943.6 662.54 944.1 650.177 946.023C620.048 950.71 592.313 960.33 562.819 966.9Q556.017 968.477 549.14 969.687Q542.264 970.896 535.332 971.735Q528.4 972.574 521.433 973.039Q514.467 973.505 507.485 973.596C505.052 973.87 503.028 973.936 500.964 972.404C499.975 971.67 499.903 971.548 499.708 970.399C499.923 969.948 499.902 969.927 500.289 969.485C501.006 968.666 502.146 968.062 503.2 967.85C506.644 967.159 510.707 967.373 514.234 967.178C520.681 966.822 527.236 966.374 533.648 965.605C552.571 963.337 571.649 958.729 590.003 953.629C607.232 948.842 624.316 943.586 642.005 940.687C661.364 937.514 681.174 937.2 700.716 935.708Z"/>
	<path fill="#FCAC54" d="M0 0L1024 0L1024 107.959L1024 143.988L1024 246.58C1010.45 239.038 996.037 234.56 980.591 238.986C967.462 242.748 958.888 252.004 950.033 261.821C946.605 265.621 943.052 269.652 938.403 271.993C931.469 275.485 922.403 275.382 914.829 276.262C908.265 277.025 901.244 278.081 894.948 280.089C892.94 274.567 889.62 269.151 886.938 263.899C865.23 221.395 831.729 184.586 795.05 154.41Q792.358 152.17 789.626 149.979Q786.893 147.789 784.121 145.648Q781.35 143.508 778.539 141.418Q775.729 139.328 772.881 137.29Q770.034 135.252 767.149 133.265Q764.265 131.279 761.344 129.346Q758.424 127.413 755.469 125.533Q752.514 123.653 749.526 121.828Q746.537 120.002 743.516 118.231Q740.495 116.46 737.442 114.745Q734.388 113.029 731.305 111.369Q728.221 109.71 725.107 108.106Q721.994 106.503 718.852 104.956Q715.709 103.41 712.54 101.921Q709.37 100.432 706.174 99.001Q702.977 97.57 699.755 96.1974Q696.533 94.8249 693.287 93.5111Q690.041 92.1974 686.771 90.9431Q683.501 89.6887 680.209 88.494Q676.917 87.2993 673.604 86.1648Q670.291 85.0303 666.957 83.9563Q663.624 82.8822 660.271 81.8691Q656.919 80.8559 653.549 79.9039Q650.179 78.952 646.792 78.0615Q643.405 77.171 640.002 76.3424Q636.599 75.5137 633.182 74.7471Q629.765 73.9805 626.335 73.2763Q622.904 72.5721 619.461 71.9304Q616.018 71.2887 612.564 70.7098Q609.111 70.1309 605.647 69.615Q602.183 69.099 598.71 68.6463Q595.237 68.1935 591.757 67.804C565.355 64.6172 539.111 63.7016 512.606 66.294C461.044 71.3371 415.362 85.1549 368.258 106.237C363.811 108.227 349.887 113.909 347.204 117.168L349.332 117.766L348.728 117.823C319.394 120.385 287.284 109.586 258.366 116.858C245.518 120.089 234.916 128.84 222.162 132.786C201.698 139.116 186.937 141.159 172.079 158.78C166.454 165.451 162.734 172.928 159.355 180.904C155.487 192.242 151.967 203.634 146.91 214.517L0 215.015L0 124.025L0 0Z"/>
	<path fill="#9F8BE8" d="M0 124.025C28.8421 124.568 44.4064 134.329 65.2439 152.702C72.0414 151.977 78.8192 150.686 85.6349 150.235C121.07 147.889 132.724 162.693 159.355 180.904C155.487 192.242 151.967 203.634 146.91 214.517L0 215.015L0 124.025Z"/>
	<path fill="#9F8BE8" d="M1024 143.988C1009.15 143.946 888.262 143.906 885.719 142.453L885.637 141.643C886.035 140.892 886.428 140.31 887.027 139.698C893.024 133.57 902.381 128.48 910.026 124.762C948.317 106.139 982.621 107.921 1024 107.959L1024 143.988Z"/>
	<path fill="#FED375" d="M349.332 117.766L347.204 117.168C349.887 113.909 363.811 108.227 368.258 106.237C415.362 85.1549 461.044 71.3371 512.606 66.294C539.111 63.7016 565.355 64.6172 591.757 67.804Q595.237 68.1935 598.71 68.6463Q602.183 69.099 605.647 69.615Q609.111 70.1309 612.564 70.7098Q616.018 71.2887 619.461 71.9304Q622.904 72.5721 626.335 73.2763Q629.765 73.9805 633.182 74.7471Q636.599 75.5137 640.002 76.3424Q643.405 77.171 646.792 78.0615Q650.179 78.952 653.549 79.9039Q656.919 80.8559 660.272 81.8691Q663.624 82.8822 666.957 83.9563Q670.291 85.0303 673.604 86.1648Q676.917 87.2993 680.209 88.494Q683.501 89.6887 686.771 90.9431Q690.041 92.1974 693.287 93.5111Q696.533 94.8249 699.755 96.1974Q702.977 97.57 706.173 99.001Q709.37 100.432 712.54 101.921Q715.709 103.41 718.852 104.956Q721.994 106.503 725.107 108.106Q728.221 109.71 731.305 111.369Q734.388 113.029 737.442 114.745Q740.495 116.46 743.516 118.231Q746.537 120.002 749.526 121.828Q752.514 123.653 755.469 125.533Q758.424 127.413 761.344 129.346Q764.265 131.279 767.149 133.265Q770.034 135.252 772.881 137.29Q775.729 139.328 778.539 141.418Q781.35 143.508 784.121 145.648Q786.893 147.789 789.626 149.979Q792.358 152.17 795.05 154.41C831.729 184.586 865.23 221.395 886.938 263.899C889.62 269.151 892.94 274.567 894.948 280.089C901.244 278.081 908.265 277.025 914.829 276.262C922.403 275.382 931.469 275.485 938.403 271.993C943.052 269.652 946.605 265.621 950.033 261.821C958.888 252.004 967.462 242.748 980.591 238.986C996.037 234.56 1010.45 239.038 1024 246.58L1024 319.502L1024 493.834C1009.97 494.246 996.171 496.634 982.221 497.938C974.219 498.687 932.164 501.071 928.322 502.876L927.823 502.335C930.332 495.807 930.796 487.749 931.663 480.799C934.174 460.663 935.841 440.885 935.722 420.573C935.683 413.907 935.771 406.9 934.65 400.317L934.502 397.415C912.23 397.897 890.925 396.17 868.802 394.024C853.746 392.563 838.771 391.166 823.747 389.366C808.365 387.523 792.861 386.409 777.643 383.398C765.454 380.987 753.4 377.639 741.301 374.794C715.35 368.691 689.579 363.005 663.156 359.306C606.133 351.322 534.758 353.799 478.236 363.844C468.624 365.552 459.291 368.247 449.766 370.328C453.307 352.189 462.842 336.929 470.028 320.231C471.808 316.095 473.167 311.727 474.597 307.459C474.648 307.52 474.699 307.581 474.748 307.643C478.474 312.334 483.269 315.697 487.344 320.031C487.864 322.833 481.705 326.632 480.312 329.218C479.614 330.513 479.728 331.091 480.126 332.454C481.825 334.028 483.917 334.795 486.247 334.808C490.08 334.829 493.77 332.391 496.315 329.705C498.97 326.904 500.761 323.344 500.512 319.407C500.165 313.945 495.277 310.303 491.555 306.91C490.188 305.664 488.656 304.44 488.855 302.384C489.32 297.562 503.287 288.76 507.089 284.635C525.328 264.845 502.432 255.966 503.492 244.827C504.108 238.362 512.006 234.754 511.434 225.089C510.398 207.596 491.485 200.265 481.857 188.316C476.958 182.234 473.809 174.98 469.569 168.464C465.899 162.825 460.853 158.122 455.778 153.77C443.413 143.167 418.979 126.461 404.52 120.218C398.127 117.458 391.153 115.383 384.175 114.947C372.625 114.226 360.846 116.879 349.332 117.766Z"/>
	<path fill="#FCAC54" d="M915.914 319.475C951.927 319.442 987.993 318.99 1024 319.502L1024 493.834C1009.97 494.246 996.171 496.634 982.221 497.938C974.219 498.687 932.164 501.071 928.322 502.876L927.823 502.335C930.332 495.807 930.796 487.749 931.663 480.799C934.174 460.663 935.841 440.885 935.722 420.573C935.683 413.907 935.771 406.9 934.65 400.317L934.502 397.415C932.902 384.041 931.162 370.681 927.892 357.595C924.665 344.677 920.075 332.111 915.914 319.475Z"/>
	<path fill="#9F8BE8" d="M894.948 280.089C901.244 278.081 908.265 277.025 914.829 276.262C922.403 275.382 931.469 275.485 938.403 271.993C943.052 269.652 946.605 265.621 950.033 261.821C958.888 252.004 967.462 242.748 980.591 238.986C996.037 234.56 1010.45 239.038 1024 246.58L1024 319.502C987.993 318.99 951.927 319.442 915.914 319.475C864.954 318.611 814.007 319.672 763.09 316.528C751.799 315.831 738.422 316.155 727.622 313.23Q742.509 312.531 757.339 311.049Q772.169 309.566 786.9 307.305Q801.632 305.043 816.223 302.008Q830.815 298.973 845.226 295.173C861.693 290.773 877.756 284.155 894.295 280.239L894.948 280.089Z"/>
	<path fill="#FED375" d="M449.766 370.328C459.291 368.247 468.624 365.552 478.236 363.844C534.758 353.799 606.133 351.322 663.156 359.306C689.579 363.005 715.35 368.691 741.301 374.794C753.4 377.639 765.454 380.987 777.643 383.398C792.861 386.409 808.365 387.523 823.747 389.366C838.771 391.166 853.746 392.563 868.802 394.024C890.925 396.17 912.23 397.897 934.502 397.415L934.65 400.317C935.771 406.9 935.683 413.907 935.722 420.573C935.841 440.885 934.174 460.663 931.663 480.799C930.796 487.749 930.332 495.807 927.823 502.335C921.557 494.368 915.614 486.037 908.41 478.879C885.291 455.904 851.793 440.795 819.5 437.003C796.069 434.252 761.997 438.326 739.971 447.163Q736.509 448.573 733.16 450.235Q729.811 451.897 726.594 453.801Q723.377 455.705 720.309 457.841Q717.24 459.977 714.338 462.333C690.763 481.093 688.395 495.013 653.787 491.161C644.594 490.138 631.563 486.475 623.63 492.628C619.021 496.202 616.341 501.423 615.845 507.205C615.424 512.106 616.522 516.91 617.467 521.686L616.975 522.079C605.411 531.151 596.878 523.708 594.344 542.976Q593.935 546.258 593.605 549.549C592.029 550.637 590.916 551.559 589.766 553.105C586.8 557.093 580.463 555.505 576.209 559.714C571.04 564.828 572.745 571.605 569.13 577.328C560.874 590.401 540.777 596.662 543.346 615.232C543.65 617.427 544.257 619.55 544.922 621.658C520.948 622.137 496.822 621.499 472.828 621.48L319.412 621.405C307.238 600.824 294.695 579.845 277.63 562.859C280.3 553.384 284.845 544.765 291.928 537.873C299.722 542.463 305.878 548.246 314.52 551.552C332.783 558.539 354.825 556.81 364.441 537.482C367.533 531.268 369.179 522.928 373.842 517.732C376.767 514.471 380.715 513.646 384.522 511.882C387.637 510.438 390.512 508.567 391.667 505.16C394.341 497.272 391.033 489.419 387.757 482.347C389.025 481.493 390.223 480.186 390.983 478.864C391.457 478.04 391.209 477.457 390.991 476.571C390.954 476.422 390.914 476.274 390.875 476.126L392.034 475.428C392.895 475.512 393.545 475.532 394.41 475.381C394.649 475.339 394.886 475.284 395.125 475.235C400.544 476.194 409.333 479.708 414.571 477.054C419.398 474.609 422.35 463.612 423.784 458.599C424.348 456.707 425.168 454.938 425.969 453.139C434.958 447.474 446.702 446.319 455.006 439.542C458.164 436.964 459.957 433.162 460.392 429.151C461.786 416.319 452.526 396.175 450.086 382.698C449.313 378.43 449.37 374.628 449.766 370.328Z"/>
	<path fill="#9F8BE8" d="M449.766 370.328C459.291 368.247 468.624 365.552 478.236 363.844C534.758 353.799 606.133 351.322 663.156 359.306C689.579 363.005 715.35 368.691 741.301 374.794C753.4 377.639 765.454 380.987 777.643 383.398C792.861 386.409 808.365 387.523 823.747 389.366C838.771 391.166 853.746 392.563 868.802 394.024C890.925 396.17 912.23 397.897 934.502 397.415L934.65 400.317C904.485 403.786 874.505 409.525 844.348 413.188C824.511 415.598 804.604 416.618 784.752 418.709C750.448 422.322 716.152 427.005 681.958 431.555C628.458 438.675 575.057 446.294 521.299 451.321C503.753 452.962 486.08 453.749 468.5 454.988C453.649 456.034 438.628 458.104 423.784 458.599C424.348 456.707 425.168 454.938 425.969 453.139C434.958 447.474 446.702 446.319 455.006 439.542C458.164 436.964 459.957 433.162 460.392 429.151C461.786 416.319 452.526 396.175 450.086 382.698C449.313 378.43 449.37 374.628 449.766 370.328Z"/>
	<path fill="#CBC4F8" d="M53.3186 627.896C73.8386 612.789 111.613 607.322 136.249 611.017C173.16 616.553 200.538 633.208 233.816 648.577C214.388 658.238 200.44 672.726 186.136 688.624C160.4 717.228 138.034 748.631 125.692 785.465C107.434 839.954 114.812 897.42 124.633 952.756L137.888 1024L30.4873 1024C29.8053 984.51 21.5198 941.858 17.6655 902.124C12.0916 844.663 14.8366 775.964 26.1129 719.223C30.2195 698.559 35.9767 677.951 42.5807 657.958C45.8864 647.951 49.1158 637.557 53.3186 627.896Z"/>
	<path d="M137.855 618.814C138.816 619.352 139.603 619.92 140.266 620.807C140.64 621.307 140.661 621.434 140.832 622.149C141.31 624.15 137.787 626.586 136.399 627.762C116.661 644.479 104.381 656.175 90.3218 678.352C69.3139 711.489 54.1536 758.449 49.9069 797.442Q48.6396 809.725 48.0928 822.061C47.8732 826.818 48.459 832.402 47.3165 837.002C46.9352 838.538 46.1434 838.8 44.8339 839.528C43.5387 839.138 42.8594 838.928 41.8591 837.959C39.0837 832.27 43.7235 791.56 45.4031 782.468C48.1634 767.525 52.3656 752.627 56.9954 738.163C72.135 690.864 96.2001 647.691 137.855 618.814Z"/>
	<path fill="#9F8BE8" d="M985.822 622.403C998.18 621.032 1011.57 622.124 1024 622.542L1024 1024L815.483 1024C816.708 1017.83 817.373 1011.51 818.118 1005.27C823.025 1004.27 827.456 1002.57 831.755 1000.01C837.149 996.788 841.907 992.91 843.447 986.55C844.758 981.14 844.824 975.224 844.972 969.679C845.884 935.564 834.403 897.893 819.469 867.376C813.894 855.983 807.004 845.311 800.384 834.512C816.065 836.882 818.514 840.402 830.27 849.707C834.403 852.979 839.168 854.794 844.454 854.867C861.058 855.096 862.545 842.074 874.656 836.421C881.802 833.085 889.593 834.669 897.136 833.671C904.924 832.642 912.665 829.442 917.488 822.986C923.222 815.312 922.978 807.013 921.767 798.073C931.483 796.517 941.154 796.184 949.687 790.668C954.799 787.363 958.601 782.393 959.732 776.336C961.125 768.869 958.318 763.304 954.343 757.312C962.899 751.886 974.198 750.21 978.582 739.722C982.119 731.263 978.501 722.247 975.38 714.307C980.897 708.937 988.332 707.313 992.964 700.492C996.067 695.921 996.7 690.66 995.578 685.322C993.181 673.922 985.476 668.376 976.45 662.36C980.134 658.633 984.862 656.048 988.438 652.153C992.217 648.037 995.034 642.233 994.547 636.534C994.046 630.673 990.194 625.99 985.822 622.403Z"/>
	<path fill="#9F8BE8" d="M319.412 621.405L472.828 621.48C496.822 621.499 520.948 622.137 544.922 621.658C552.128 637.232 567.665 646.797 579.677 658.352C590.569 668.829 599.211 680.406 605.934 693.966C626.558 735.567 627.261 789.231 612.523 832.856C592.063 825.75 571.832 818.657 552.014 809.862C504.974 788.987 459.878 761.65 417.706 732.274C402.812 721.899 387.967 711.37 373.909 699.878Q365.126 692.62 356.486 685.192C352.207 681.574 347.044 677.878 343.598 673.426C339.745 668.447 338.025 659.347 335.275 653.304C330.372 642.531 324.872 631.906 319.412 621.405Z"/>
	<path fill="#FCAC54" d="M146.91 214.517C128.281 251.44 88.7642 260.184 85.5299 308.953C84.8171 319.7 85.5678 330.965 89.003 341.247C89.9694 344.139 91.1204 346.987 92.2214 349.831L92.1641 349.669C86.7484 367.803 89.599 396.912 98.6306 413.701C106.569 428.458 117.406 437.435 131.913 445.302C131.046 449.018 130.147 452.7 129.679 456.492C127.077 470.558 123.732 484.582 122.19 498.815C117.766 498.672 113.358 499.007 108.964 499.518C105.594 498.932 101.562 499.357 98.1227 499.379L77.4609 499.431C51.7364 499.499 25.6908 499.941 0 498.633L0 447.199L0 215.015L146.91 214.517Z"/>
	<path fill="#9F8BE8" d="M0 447.199C33.1867 466.387 59.1298 483.919 99.4709 473.037C107.134 470.97 113.93 468.105 120.307 463.357C123.4 461.054 126.371 458.477 129.679 456.492C127.077 470.558 123.732 484.582 122.19 498.815C117.766 498.672 113.358 499.007 108.964 499.518C105.594 498.932 101.562 499.357 98.1227 499.379L77.4609 499.431C51.7364 499.499 25.6908 499.941 0 498.633L0 447.199Z"/>
	<path fill="#FCAC54" d="M0 498.633C25.6908 499.941 51.7364 499.499 77.4609 499.431L98.1227 499.379C101.562 499.357 105.594 498.932 108.964 499.518C105.365 501.039 102.527 502.745 99.8058 505.599C91.0952 514.733 78.7284 541.079 73.0957 553.568C63.623 555.66 54.0073 561.331 48.7268 569.644C40.2425 583 44.6926 606.208 48.3099 620.851C48.4105 621.259 48.5395 621.659 48.6736 622.057C32.4678 621.692 16.2164 622.125 0 621.881L0 498.633Z"/>
	<path fill="#9F8BE8" d="M0 621.881C16.2164 622.125 32.4678 621.692 48.6736 622.057C45.819 633.14 40.9651 643.75 37.2693 654.585Q27.5394 682.977 21.1927 712.311C19.0461 722.256 17.699 732.379 16.1934 742.436C14.7416 752.134 13.1157 761.859 12.07 771.608Q10.07 792.023 9.28286 812.52Q8.49572 833.017 8.92419 853.525C9.10779 868.879 9.41167 884.367 10.8524 899.66C14.7678 941.22 22.1732 982.216 24.1837 1024L0 1024L0 621.881Z"/>
	<path fill="#9F8BE8" d="M928.322 502.876C932.164 501.071 974.219 498.687 982.221 497.938C996.171 496.634 1009.97 494.246 1024 493.834L1024 560.043C1008.52 559.832 993.171 558.105 977.623 558.147C977.783 553.716 977.534 549.916 975.377 545.909C971.283 538.306 962.931 535.571 955.179 533.328C958.818 512.238 948.169 520.161 937.29 513.291C933.344 510.799 930.862 506.67 928.322 502.876Z"/>
	<path fill="#FCAC54" d="M977.623 558.147C993.171 558.105 1008.52 559.832 1024 560.043L1024 622.542C1011.57 622.124 998.18 621.032 985.822 622.403C983.072 621.357 980.349 619.815 977.687 618.538C983.725 612.471 992.356 609.042 994.333 599.741C995.316 595.116 994.252 590.355 991.598 586.469C987.143 579.948 981.838 579.083 974.713 577.696C972.73 577.311 970.511 576.798 969.408 574.945C967.991 572.561 975.966 563.35 977.415 558.816L977.623 558.147Z"/>
	<path fill="#FBDAB7" d="M373.752 467.612Q384.267 471.905 395.125 475.235C394.886 475.284 394.649 475.339 394.41 475.381C393.545 475.532 392.895 475.512 392.034 475.428L390.875 476.126C390.914 476.274 390.954 476.422 390.991 476.571C391.209 477.457 391.457 478.04 390.983 478.864C390.223 480.186 389.025 481.493 387.757 482.347C383.733 476.65 378.517 472.614 373.752 467.612Z"/>
	<path fill="#2F1E40" d="M96.4099 360.123C98.6975 364.245 105.558 378.864 109.805 380.385C110.785 380.736 111.772 380.588 112.572 379.903C114.116 378.582 112.996 375.853 112.243 374.373C110.091 370.142 107.369 366.136 105.035 361.995C98.5818 350.542 93.2302 337.725 92.1435 324.507C89.6484 294.155 100.004 274.278 122.303 253.921C131.872 245.186 141.794 236.748 148.33 225.339C159.639 205.597 163.528 178.703 177.513 162.321C192.011 145.338 205.942 144.875 225.297 138.658C237.88 134.616 248.108 125.865 261.007 122.622C286.339 116.252 313.182 124.037 338.784 124.466C351.496 124.68 363.838 122.026 376.449 121.099C383.707 120.565 390.516 121.323 397.392 123.739C412.784 129.149 448.697 154.296 459.844 166.812C465.618 173.294 468.957 181.475 473.829 188.598C479.263 196.541 486.744 201.903 493.938 208.085C498.324 211.854 502.077 215.972 503.819 221.641C507.593 233.922 494.615 237.415 496.425 247.737C497.839 255.801 507.146 260.447 507.536 268.993C508.092 281.149 490.495 289.066 483.342 297.242C482.848 300.11 482.634 302.903 482.478 305.804C485.149 309.9 488.923 311.788 492.253 315.134C493.606 316.493 494.418 318.01 494.313 319.991C494.154 322.998 492.029 325.04 489.989 327L488.708 326.571L489.674 327.277L489.217 327.105L489.047 327.381C490.204 325.741 492.486 323.163 492.836 321.204C493.929 315.081 486.791 312.561 483.159 309.158C481.704 307.794 480.605 305.761 479.543 304.08C482.957 290.271 491.365 291.62 497.945 281.925C499.687 279.358 500.45 276.433 499.82 273.364C498.428 266.585 492.558 262.62 489.007 257.155C486.767 253.709 484.318 246.134 480.644 244.335C479.51 243.78 479.009 244.108 477.984 244.573C477.211 245.903 477.148 246.013 477.265 247.539C479.19 251.394 480.912 255.328 483.229 258.972C486.758 264.521 491.571 269.62 493.77 275.878C490.407 283.304 483.12 287.281 478.669 293.896C478.551 278.586 478.834 263.457 476.848 248.23C476.484 246.107 476.159 243.897 475.409 241.872Q475.179 241.263 474.889 240.681Q474.598 240.099 474.25 239.549Q473.902 239 473.499 238.488Q473.097 237.977 472.645 237.509Q472.192 237.041 471.695 236.622Q471.198 236.203 470.66 235.836Q470.123 235.469 469.551 235.159Q468.979 234.849 468.378 234.599C463.833 232.672 458.647 232.961 453.932 234.077C446.141 235.922 438.749 239.978 431.609 243.507C422.25 248.133 412.94 252.939 403.273 256.9C386.361 263.829 359.387 269.499 341.394 266.295C336.803 265.478 332.541 263.638 328.262 261.849C327.225 262.094 326.144 262.977 325.699 263.978C325.254 264.976 325.252 265.808 325.869 266.736C328.661 270.932 338.172 272.601 342.855 273.741C337.776 281.051 330.283 286.228 323.987 292.429C303.259 312.845 296.963 333.936 292.113 361.777C286.588 358.43 281.33 355.553 276.145 351.605C280.42 340.725 284.297 329.681 284.589 317.87C284.825 308.301 282.764 297.874 275.775 290.839C270.62 285.651 263.332 283.247 256.113 283.372C242.899 283.601 230.981 291.346 222.048 300.579C211.776 311.196 207.998 325.731 208.351 340.247C208.758 356.983 214.122 375.824 226.524 387.64C223.322 400.147 218.674 412.719 212.59 424.094C210.988 421.399 209.867 418.327 208.016 415.794C207.192 414.665 206.54 414.248 205.17 414.087C203.699 414.801 203.097 415.979 202.539 417.462C201.207 420.999 200.923 425.287 200.269 429.011C198.838 437.156 195.858 449.48 189.679 455.421C187.061 457.938 183.499 458.374 179.997 458.207C164.948 457.49 134.399 441.104 122.152 431.839C118.688 429.218 115.502 426.003 112.65 422.736C97.4584 405.335 95.012 382.385 96.4099 360.123Z"/>
	<path fill="#2F1E40" d="M802.69 442.64C824.24 440.842 858.563 452.035 877.226 462.78Q881.443 465.201 885.468 467.931Q889.492 470.661 893.302 473.685Q897.111 476.708 900.683 480.007Q904.256 483.307 907.572 486.864C911.688 491.295 915.501 496.132 919.032 501.04C923.12 506.722 927.253 513.685 932.577 518.236C937.38 522.341 944.315 521.466 949.392 524.566C951.621 528.601 947.041 531.706 948.347 535.58C950.039 540.597 961.203 541.155 965.431 543.699C968.527 545.562 970.347 548.499 971.126 552.001C972.726 559.198 967.805 563.376 964.298 568.835C962.946 570.94 962.169 573.359 962.804 575.848C965.122 584.935 977.385 582.547 983.722 586.667C986.083 588.201 987.371 590.432 987.866 593.179C990.114 605.666 977.045 607.017 971.981 615.127C970.978 616.734 970.196 619.276 970.887 621.131C972.252 624.801 979.381 626.35 982.555 628.336C985.086 629.92 987.325 632.093 987.969 635.109C990.82 648.453 975.782 650.306 971.432 657.788C965.716 667.617 985.939 673.194 989.024 685.876C992.631 700.706 974.677 702.478 968.789 711.779C968.682 711.947 968.581 712.118 968.477 712.287C969.432 718.446 972.57 723.867 973.092 730.181C974.476 746.903 957.14 743.761 949.446 753.519C944.498 759.795 953.346 765.236 953.727 771.6C953.916 774.759 952.582 777.63 950.898 780.218C941.986 793.915 921.139 788.676 916.571 792.67C914.374 794.591 915.977 804.924 915.647 808.146C915.296 811.589 914.355 814.948 912.601 817.951Q911.487 819.846 909.957 821.424C900.97 830.802 888.059 825.921 876.872 828.439C863.865 831.367 857.444 847.053 846.477 848.434C835.847 849.773 826.21 836.561 816.889 832.454C810.123 829.473 803.241 829.376 796.304 827.391C792.809 826.392 789.687 824.553 786.481 822.887C778.494 818.736 771.173 817.593 762.199 817.751C761.396 817.798 760.687 817.731 759.889 817.652C759.64 816.036 761.621 813.133 762.088 811.363C764.825 800.984 757.755 780.945 750.559 773.382C747.099 769.745 741.137 766.913 738.683 762.528C733.871 753.932 748.418 752.861 749.677 746.68C750.529 742.498 745.234 738.717 743.099 735.577L742.766 735.077C747.148 733.44 752.717 731.53 755.366 727.422C760.317 719.744 746.512 711.085 744.628 701.97C742.963 693.915 748.392 687.098 752.977 681.131C753.941 679.877 755.415 678.381 756.11 676.982C756.853 675.487 756.374 675.096 755.737 673.671C757.682 672.667 760.651 672.892 762.832 672.822C767.456 672.674 772.155 671.144 776.601 669.907C791.068 665.88 805.719 661.222 816.281 649.929C822.618 643.153 825.006 634.827 824.57 625.65C824.205 617.946 820.609 610.096 814.754 604.977C807.077 598.265 797.892 597.925 788.278 598.593C792.492 590.787 796.092 582.628 798.009 573.936C803.064 550.999 799.075 538.923 818.541 521.028C817.357 527.54 816.743 534.615 817.986 541.165C818.977 546.383 821.015 553.501 825.722 556.426C827.081 557.271 828.002 557.425 829.531 557.033C829.807 556.699 830.022 556.486 830.182 556.054C831.404 552.756 825.388 546.412 824.418 542.749C821.361 531.208 824.973 516.627 830.648 506.435C834.315 513.748 838.801 522.39 845.132 527.767C846.877 529.25 849.034 530.45 851.4 530.125C852.32 529.999 852.031 530.042 852.608 529.198C852.277 524.167 844.558 518.518 842.001 514.202C832.806 498.68 827.799 480.83 817.866 465.606C816.358 463.295 814.053 460.82 813.177 458.212C821.051 466.84 842.537 482.715 854.095 485.091C855.933 485.468 856.947 485.277 858.513 484.276C858.848 483.564 859.156 483.301 858.958 482.485C857.991 478.495 849.408 476.184 845.994 474.584C843.784 473.548 841.715 472.264 839.647 470.976C834.447 467.739 829.316 464.402 824.568 460.519C817.18 454.479 810.609 448.091 802.69 442.64Z"/>
	<path fill="#7458A4" d="M786.047 444.21C787.084 444.174 788.08 444.227 789.048 444.629C803.699 450.696 821.48 484.776 827.694 499.432C825.056 503.644 823.041 508.348 819.816 512.165C812.836 520.427 805.75 523.172 800.388 533.9C793.758 547.166 795.076 560.971 791.682 574.84C789.667 583.077 785.064 590.605 781.527 598.267C778.037 599.005 771.619 599.657 769.091 602.201C768.082 603.218 768.173 603.803 768.189 605.116C771.806 609.341 795.387 600.034 807.386 607.46C812.48 610.612 816.588 616.983 817.827 622.835C819.187 629.256 817.551 636.482 813.859 641.866C804.446 655.59 780.723 663.174 765.041 666.067C759.121 667.159 754.394 667.619 749.222 664.089C749.736 660.109 754.695 633.997 754.509 633.006C754.243 631.591 753.624 630.901 752.524 630.064C751.163 629.801 750.627 629.695 749.327 630.389C747.493 631.366 742.277 641.769 740.613 644.28C735.273 652.334 728.422 659.467 723.682 667.919C722.331 670.328 721.639 673.352 721.225 676.07C720.592 680.224 720.859 684.394 723.572 687.813C725.315 690.009 727.812 691.29 730.602 691.491C734.765 691.791 737.049 690.136 740.023 687.563C739.51 689.689 739.128 691.871 738.795 694.033C737.764 700.707 738.611 707.814 742.848 713.305C744.45 715.382 746.351 717.278 747.833 719.438C749.074 721.249 749.596 723.006 749.149 725.176C746.949 728.567 742.118 728.565 738.683 730.137C737.408 730.721 736.223 731.676 735.929 733.124C735.063 737.383 740.101 742.443 742.443 745.699C738.159 748.256 733.119 751.517 731.822 756.671C729.076 767.583 745.048 775.348 749.983 783.54C754.238 790.604 757.582 802.731 755.226 810.851C753.973 815.171 751.228 817.692 747.459 819.896C741.372 819.561 735.316 818.261 729.205 818.456C697.868 819.455 665.581 834.218 638.205 848.526C630.461 852.756 623.246 857.842 615.583 862.15C613.256 861.551 611.021 860.69 608.765 859.869C614.173 845.552 620.73 832.248 624.299 817.237C637.11 763.367 627.59 696.088 586.873 656.068C575.671 645.058 553.31 630.836 549.788 614.977C547.275 603.667 562.373 594.217 569.282 587.3C572.525 584.053 574.967 580.477 577.463 576.639Q581.114 578.181 584.876 579.429Q588.637 580.677 592.486 581.623Q596.334 582.569 600.246 583.208Q604.157 583.846 608.107 584.173C617.52 584.88 627.637 584.204 636.675 587.162C634.573 589.12 632.672 590.551 631.964 593.452C632.359 594.721 632.285 594.668 633.444 595.306C635.561 595.362 637.172 594.981 639.074 594.021C645.202 590.927 650.995 583.581 652.971 577.028C653.613 574.897 654.186 571.851 652.973 569.825C652.56 569.135 652.667 569.316 651.897 569.119C648.326 570.107 644.812 579.694 642.407 583.21C633.372 574.581 629.264 557.041 624.194 545.466C621.783 539.963 618.852 535.06 615.491 530.101C617.431 529.204 619.805 528.196 621.148 526.455C624.168 522.542 622.239 516.149 621.885 511.636C621.544 507.293 622.213 502.67 625.228 499.325C626.224 498.22 627.596 496.871 629.063 496.455C637.511 494.057 650.852 497.507 659.83 498.098Q663.894 498.373 667.962 498.156Q672.029 497.938 676.041 497.231C695.836 493.629 707.149 475.326 722.299 464.189C740.097 451.105 764.2 445.312 786.047 444.21Z"/>
	<path d="M708.408 487.343C709.967 487.339 711.155 487.39 712.465 488.331C715.494 490.505 715.329 496.071 715.587 499.385C725.94 504.202 729.726 511.038 734.162 521.038C735.78 522.007 736.83 522.666 737.523 524.429C737.082 526.028 736.324 526.704 735.162 527.794C735.11 534.247 734.543 540.317 731.174 546.022C729.17 549.415 725.747 553.492 721.669 554.313C718.528 554.946 716.115 554.428 713.466 552.716C712.232 551.38 711.231 549.769 710.75 548.007C708.353 539.229 714.142 530.137 718.173 522.767C713.993 514.752 707.378 512.814 698.862 512.431C696.909 512.343 694.896 512.503 693.12 511.598L692.709 510.177L692.77 511.093C692.6 510.401 692.4 509.687 692.352 508.971C692.217 506.949 693.216 505.081 694.495 503.595C698.433 499.017 703.926 497.182 709.741 496.773C709.002 495.138 708.14 493.464 707.561 491.766C706.94 489.944 707.612 488.927 708.408 487.343Z"/>
	<path fill="#FAF7F9" d="M725.35 525.428C726.29 525.38 726.885 525.492 727.775 525.793C729.459 528.452 729.174 532 728.597 534.981C727.414 541.092 724.897 544.742 719.814 548.155C718.292 547.981 718.265 547.95 717.16 546.884C716.631 545.437 716.661 544.319 716.837 542.79C717.554 536.571 720.295 529.309 725.35 525.428Z"/>
	<path d="M719.437 566.301C720 566.386 720.466 566.437 721.02 566.618C722.664 567.154 723.533 568.485 724.179 569.99C728.418 579.873 727.877 599.608 723.846 609.694C721.181 616.363 716.875 621.925 710.145 624.779C708.388 625.03 707.018 624.982 705.484 623.885C703.882 622.74 703.277 620.832 703.142 618.945C702.282 606.856 709.432 596.304 713.196 585.348C715.202 579.51 715.326 570.958 719.437 566.301Z"/>
	<path fill="#FAF7F9" d="M720.214 583.917L720.654 584.435C721.141 588.618 720.981 593.179 720.545 597.365C719.751 604.986 716.993 612.084 710.905 617.002C710.185 616.796 710.569 617.007 709.997 616.054C709.593 607.366 717.045 592.445 720.214 583.917Z"/>
	<path d="M616.335 656.273C621.764 657.066 627.152 659.625 632.353 661.356C647.125 666.274 661.838 669.405 677.518 668.896C682.068 668.748 686.849 668.738 691.222 667.384C695.735 665.987 701.533 660.005 705.87 660.368C706.767 661.038 707.46 661.68 707.69 662.849C707.981 664.32 707.585 664.814 706.932 666.088C704.848 667.943 702.751 669.416 700.274 670.687C677.675 682.277 645.103 672.349 622.332 665.082C619.677 664.235 616.294 663.394 614.952 660.796C614.992 659.031 615.581 657.849 616.335 656.273Z"/>
	<path d="M735.105 466.016C736.728 465.954 738.183 465.965 739.666 466.713C745.153 469.483 759.228 494.099 760.941 500.443C761.526 502.61 762.182 505.595 760.862 507.6C760.355 508.371 760.091 508.242 759.265 508.445C757.648 508.011 756.767 507.511 755.478 506.451C751.062 499.376 746.439 492.275 740.123 486.724C736.691 483.708 728.826 480.601 726.895 476.666C726.495 475.85 726.646 474.596 726.958 473.758C728.292 470.178 731.754 467.512 735.105 466.016Z"/>
	<path fill="#2F1E40" d="M736.484 472.222L737.949 472.819C739.624 474.795 741.12 477.37 741.904 479.851L741.479 480.147C739.682 478.76 736.059 476.847 735.491 474.556C735.31 473.824 736.122 472.858 736.484 472.222Z"/>
	<path d="M790.266 611.127C791.859 610.926 793.665 610.876 795.273 610.933C799.582 611.086 803.957 613.389 806.801 616.581C809.635 619.763 811.123 624.101 810.663 628.358C810.429 630.519 809.99 632.924 808.148 634.298C806.946 635.194 805.845 635.408 804.398 635.222C802.484 632.766 804.565 629.7 804.718 626.914C804.855 624.407 804.03 621.918 802.24 620.127C799.722 617.605 796.012 616.798 792.561 616.85C790.257 616.884 787.553 617.102 785.928 618.853C787.201 619.871 789.009 621.017 789.51 622.612C790.618 626.14 787.923 630.438 786.375 633.504C785.215 635.456 783.996 637.292 782.535 639.031C779.723 642.378 775.714 645.417 771.191 645.668C768.749 645.803 766.211 645.092 764.461 643.319C763.289 642.131 762.845 640.923 762.811 639.264C763.487 638.015 763.529 638.036 764.844 637.476C766.903 637.526 768.503 638.916 770.171 640.014C771.235 639.588 772.313 639.149 773.306 638.571C776.945 636.451 781.796 631.259 782.823 627.219C784.023 622.5 778.35 622.063 776.949 618.473C776.568 617.497 776.621 616.686 777.261 615.856C779.375 613.115 786.852 611.758 790.266 611.127Z"/>
	<path d="M632.427 511.563C634.887 511.592 636.729 511.962 638.702 513.535C641.098 515.445 643.02 517.986 643.195 521.142C643.339 523.743 642.555 525.063 640.804 526.898C640.184 527.029 639.51 527.206 638.871 527.234C637.496 527.294 636.897 527.095 635.845 526.248C635.207 524.423 635.667 522.704 635.967 520.844C634.277 519.642 632.199 518.354 631.519 516.263C630.99 514.635 631.532 512.928 632.427 511.563Z"/>
	<path d="M654.808 520.969C656.592 521.108 658.152 521.192 659.543 522.468C660.79 523.613 661.365 525.415 661.374 527.068C661.396 530.991 659.504 533.907 656.775 536.499C655.283 536.586 654.318 536.491 652.877 536.094C652.339 535.604 651.818 535.383 651.72 534.613C651.425 532.286 653.543 530.239 654.92 528.586C654.529 527.454 654.121 526.315 653.803 525.16C653.3 523.329 653.928 522.485 654.808 520.969Z"/>
	<path fill="#7458A4" d="M458.65 239.628C460.305 239.507 462.131 239.63 463.762 239.928C465.788 240.298 467.193 241.558 468.194 243.302C474.495 254.281 472.643 294.598 469.036 306.83C467.558 304.965 466.25 303.714 464.245 302.401C458.862 304.097 453.873 305.915 448.279 306.966C431.14 310.188 406.709 310.236 392.211 320.753C390.661 321.877 389.559 322.953 389.242 324.92C389.733 325.878 389.848 326.195 390.887 326.66C395.865 328.89 401.317 323.168 406.311 323.331C420.446 323.792 441.08 330.272 453.906 327.921C456.609 327.426 459.126 326.285 461.639 325.209C453.731 339.011 443.985 356.886 442.28 372.835C440.595 388.594 456.669 418.989 453.146 430.039C450.164 439.391 432.206 441.354 424.514 445.908C418.533 449.45 417.327 455.451 415.668 461.694C401.091 457.678 387.19 455.54 372.735 450.432C374.921 446.903 377.703 443.66 380.594 440.689C385.266 435.886 415.648 409.074 415.549 405.097C415.517 403.809 415.02 403.469 414.183 402.614C413.319 402.365 412.656 402.163 411.752 402.423C410.941 402.656 410.051 403.158 409.394 403.693C406.275 406.234 403.561 409.874 400.567 412.684C391.132 421.54 380.69 429.994 372.389 439.923C368.849 444.158 366.734 449.206 363.548 453.669L363.233 454.101C364.68 474.278 377.012 487.652 380.442 506.058C363.788 512.331 364.958 522.891 357.344 536.429C354.068 542.255 349.862 546.146 343.273 547.851C331.464 550.906 315.817 546.693 305.916 539.944C301.698 537.07 298.15 533.174 293.677 530.694C293.518 530.606 293.356 530.523 293.196 530.438Q291.073 531.547 289.12 532.933Q287.167 534.319 285.419 535.957C270.419 549.939 264.694 580.238 263.868 599.805C256.913 590.925 248.525 582.819 240.733 574.651C210.034 543.006 171.748 510.601 128.14 499.322Q133.451 474.119 137.203 448.638C148.059 455.3 160.507 460.985 172.989 463.717C179.349 465.11 186.29 465.608 191.966 461.82C201.932 455.168 205.14 438.609 207.403 427.687C207.977 429.66 208.738 431.969 210.68 433.034C211.769 433.632 212.852 433.46 213.907 432.921C221.257 429.163 229.946 399.028 232.131 390.978C235.173 391.687 238.225 392.194 241.36 392.101C246.238 391.957 254.62 389.758 257.939 385.808C258.725 384.873 259.149 383.727 258.95 382.499C258.739 381.195 258.132 380.533 257.151 379.753C252.928 379.155 248.177 384.711 243.86 385.735C239.833 386.691 236.004 386.025 232.505 383.814C223.588 378.18 219.223 365.515 217.057 355.754C213.822 341.174 213.726 323.676 222.116 310.712C228.143 301.402 238.875 292.74 249.894 290.442C256.215 289.125 263.122 289.861 268.519 293.594C274.102 297.456 276.945 303.786 277.966 310.316C279.991 323.266 275.962 339.552 268.319 350.138C270.1 355.62 274.036 358.688 278.768 361.627C282.442 363.91 290.447 369.179 294.931 367.664C296.678 367.073 297.59 365.546 298.163 363.903C299.597 359.796 299.797 354.74 300.642 350.446Q302.056 343.522 304.272 336.812Q306.489 330.102 309.479 323.699C313.962 314.231 320.151 305.888 327.528 298.472C335.309 290.649 345.544 284.636 349.658 273.946C378.033 273.609 403.601 264.886 428.767 252.448C438.405 247.685 447.998 241.667 458.65 239.628Z"/>
	<path d="M249.03 392.513L250.21 393.272C251.618 397.039 250.516 407.976 250.656 412.819C251.065 426.975 252.108 442.157 256.806 455.577C262.907 473.008 272.405 490.467 281.986 506.259C283.91 509.431 290.847 519.239 290.642 522.197C289.613 523.681 288.423 524.245 286.848 525.071C275.798 514.327 253.45 468.233 248.848 452.675C244.468 437.866 244.161 422.551 244.043 407.26C244.017 403.939 243.29 396.854 245.324 394.213C246.365 392.859 247.474 392.879 249.03 392.513Z"/>
	<path d="M249.483 301.56C253.073 301.28 256.96 301.145 260.514 301.792C264.891 302.59 268.967 304.287 271.504 308.119C282.968 325.434 258.441 329.588 252.789 340.397C250.03 345.671 252.981 352.263 251.959 357.803C250.59 358.588 249.943 358.878 248.308 358.903C247.034 358.173 246.471 357.74 245.912 356.342C243.897 351.302 244.983 342.551 247.11 337.754C247.19 337.574 247.274 337.395 247.356 337.215C252.173 329.502 266.056 324.397 267.689 316.161C267.99 314.639 267.78 313.278 266.857 311.995C264.957 309.358 260.119 308.361 257.111 307.933C244.104 306.081 242.62 313.021 234.143 319.029C233.138 319.741 233.003 319.821 231.856 319.597C231.121 318.901 230.349 318.276 230.034 317.27C229.624 315.96 230.087 314.59 230.775 313.471C234.451 307.488 242.877 303.237 249.483 301.56Z"/>
	<path d="M438.087 342.844C439.005 342.915 439.85 343.088 440.751 343.271C441.774 344.194 441.805 344.282 442.112 345.63C440.738 352.173 429.479 362.874 424.55 367.778C427.156 372.654 430.041 378.925 430.862 384.427C431.155 386.392 431.014 387.785 429.851 389.435C428.688 390.107 428.539 390.309 427.225 390.185C424.208 387.895 423.273 381.093 422.034 377.502C418.487 369.989 412.83 366.232 408.531 359.719C407.509 358.172 406.908 356.783 407.273 354.899C408.216 353.917 408.434 353.883 409.768 353.544C413.533 354.213 417.82 360.047 420.668 362.665C427.293 357.091 431.911 348.959 438.087 342.844Z"/>
	<path d="M422.309 428.691C426.543 428.004 432.037 427.884 436.28 428.728C438.197 429.109 439.616 429.634 440.718 431.347C440.944 432.827 440.641 433.335 439.983 434.608C437.454 436.487 429.379 434.985 425.931 435.035C419.669 435.76 412.608 437.174 406.882 433.817L406.731 432.403C410.094 429.094 417.777 429.165 422.309 428.691Z"/>
	<path fill="#CBC4F8" d="M113.902 505.104C126.947 503.939 140.444 509.151 151.955 514.756C191.445 533.983 226.798 566.916 255.305 599.919C260.413 605.832 265.784 611.675 270.386 617.993C287.67 641.716 302.358 668.779 311.924 696.589C304.947 691.174 300.899 686.01 296.164 678.693C278.31 651.463 253.39 627.286 227.881 607.207C194.861 581.217 149.823 554.189 107.17 550.231C98.4427 549.421 89.8977 550.043 81.2281 551.077C86.544 538.907 93.9544 525.257 101.168 514.099C104.776 508.519 107.415 506.514 113.902 505.104Z"/>
	<path fill="#CBC4F8" d="M90.3326 556.201C101.855 554.094 117.839 557.585 129.169 560.637C167.502 570.961 207.72 597.242 237.395 623.124C245.919 630.558 253.89 638.921 261.848 646.963C270.409 655.616 282.153 667.143 288.168 677.59C278.075 668.405 267.857 659.068 257.176 650.578C254.666 648.598 251.612 646.827 248.679 645.543C244.651 643.78 246.351 645.046 243.532 645.34C242.414 645.457 239.024 643.548 237.81 643.014C228.545 638.94 219.234 634.879 210.103 630.516C196.505 624.018 183.332 617.231 168.985 612.464C128.334 598.955 93.4812 600.211 54.7382 619.662Q52.4468 609.551 51.1127 599.269C49.9527 589.838 49.0657 578.762 55.4654 570.901C63.4965 561.035 78.299 557.393 90.3326 556.201Z"/>
	<path fill="#CBC4F8" d="M345.591 684.728C348.714 685.976 352.004 689.771 354.526 691.997C370.838 706.393 388.606 719.385 406.275 732.054Q445.116 759.577 486.462 783.169C505.901 794.431 525.26 805.443 545.774 814.668C566.758 824.104 588.315 831.765 610.126 839.027L604.234 852.377L601.914 857.458C595.44 855.76 589.126 852.313 583.038 849.55Q564.658 841.373 546.632 832.442C501.246 810.327 456.191 787.653 412.75 761.864C392.809 750.026 373.638 737.065 354.23 724.398C352.515 710.838 349.257 697.869 345.591 684.728Z"/>
	<path fill="#CBC4F8" d="M275.233 569.755C281.955 574.089 300.328 601.44 305.295 609.689C323.708 640.266 338.131 671.905 345.032 707.075C345.635 710.148 347.875 716.442 347.165 719.296L346.395 719.528L344.222 718.138C336.032 712.828 326.843 707.944 319.318 701.77C311.697 670.744 290.948 633.152 270.647 608.64C269.972 595.329 272.068 582.608 275.233 569.755Z"/>
	<path fill="#CBC4F8" d="M665.512 880.698C672.806 880.209 681.563 882.462 688.866 883.642C748.894 893.339 788.51 924.497 838.218 956.047C838.156 965.403 838.083 974.668 836.362 983.902C836.144 984.302 835.835 984.583 835.525 984.913C822.684 975.475 809.683 966.239 796.908 956.711C770.381 936.928 743.804 916.787 714.362 901.457C698.45 893.172 681.958 887.624 665.512 880.698Z"/>
	<path fill="#CBC4F8" d="M729.7 844.292C729.925 844.28 730.15 844.261 730.376 844.256C734.106 844.176 738.542 846.24 742.005 847.483C765.699 855.982 778.875 868.536 796.581 885.194L830.88 918.089C831.515 921.221 832.267 924.142 833.356 927.148C816.212 915.793 799.994 903.071 782.772 891.877C773.193 885.81 763.314 879.306 753.053 874.483C727.13 862.3 697.011 859.512 668.71 858.941C660.167 858.769 651.623 859.116 643.079 858.85C671.579 852.35 700.277 844.403 729.7 844.292Z"/>
	<path fill="#CBC4F8" d="M646.608 865.209C660.223 864.312 674.413 865.179 687.996 866.385C727.416 869.886 751.73 877.356 784.363 900.606C795.867 908.801 807.117 917.325 818.728 925.373C823.72 928.834 828.716 932.508 834.048 935.432L834.732 935.803C835.69 939.595 836.157 943.595 836.799 947.455L823.415 938.66C809.927 930.241 796.82 921.119 783.231 912.901C753.342 894.824 723.946 883.93 689.62 877.606C679.883 875.812 670.143 874.206 660.254 873.542C655.834 873.245 651.131 874.044 646.79 873.374C638.791 872.139 630.459 868.173 622.739 865.62C630.664 865.036 638.649 865.789 646.608 865.209Z"/>
	<path fill="#CBC4F8" d="M725.84 824.696C734.587 823.132 758.56 833.689 766.112 837.959Q770.902 840.645 775.393 843.806Q779.884 846.968 784.028 850.571C795.705 860.867 822.295 890.624 826.261 905.103C819.237 897.268 811.269 890.487 803.615 883.297C796.483 876.597 789.631 869.5 781.981 863.387C776.957 859.468 771.804 855.586 766.39 852.223C756.416 846.027 743.876 840.133 732.181 838.359C714.23 835.636 669.719 845.465 650.751 849.92C657.438 846.233 664.483 843.25 671.506 840.276C689.317 832.735 706.537 826.885 725.84 824.696Z"/>
	<path fill="#7458A4" d="M756.329 822.505C765.948 822.939 776.799 823.985 785.349 828.813C795.133 834.338 814.583 866.986 817.478 878.142L817.005 878.134C803.281 858.974 783.784 838.405 761.937 828.998C759.723 828.044 755.962 826.647 755.049 824.339L756.329 822.505Z"/>
	<path fill="#FAF7F9" d="M745.315 647.378C745.617 649.78 744.735 652.768 744.227 655.135C743.076 660.501 738.729 682.369 734.159 684.676C732.437 685.545 730.881 684.98 729.208 684.393C728.341 683.162 727.739 682.021 727.48 680.516C725.596 669.584 739.502 655.879 745.315 647.378Z"/>
	<path fill="#2F1E40" d="M584.012 561.433C590.981 561.14 608.956 573.12 615.241 577.114C615.378 577.384 615.687 577.657 615.603 577.948L610.954 577.982C601.904 577.054 591.345 575.624 583.106 571.535C581.292 570.634 579.848 569.735 579.211 567.732C579.813 564.872 581.939 563.28 584.012 561.433Z"/>
	<path fill="#2F1E40" d="M460.704 309.946C461.446 309.933 461.881 310.048 462.585 310.249C463.053 311.507 463.074 312.921 462.896 314.245C462.602 316.437 461.205 318.474 459.397 319.702C451.073 325.354 433.872 320.015 424.475 318.334C421.719 318.044 418.858 318.307 416.09 318.399C430.679 313.862 446.022 315.005 460.704 309.946Z"/>
	<path fill="#FAF7F9" d="M601.847 549.818C610.742 553.006 623.238 571.52 629.736 578.822C627.558 577.994 625.539 577.023 623.471 575.959C613.683 569.906 604.139 563.792 594.74 557.146C597.038 554.613 599.363 552.169 601.847 549.818Z"/>
	<path fill="#2F1E40" d="M608.369 531.504C609.141 531.548 609.566 531.671 610.254 532.067C616.843 535.863 622.367 556.731 624.591 563.75C623.107 562.392 621.799 560.839 620.457 559.343C614.077 552.12 610.878 548.422 601.967 543.844C601.885 541.391 602.034 538.907 602.097 536.452C603.918 533.641 605.176 532.609 608.369 531.504Z"/>
	<path fill="#9F8BE8" d="M371.181 456.072Q380.761 459.672 390.677 462.2C397.253 463.894 406.525 464.536 412.295 468.037C412.636 469.42 411.892 470.583 411.343 471.822C403.518 472.108 378.195 463.646 372.503 459.007C371.381 458.092 371.364 457.46 371.181 456.072Z"/>
	<path fill="#CBC4F8" d="M818.247 979.867C823.222 983.331 827.607 987.409 832.096 991.464C830.635 992.53 829.101 993.512 827.602 994.524C824.588 996.111 821.516 997.279 818.319 998.44C818.615 992.23 818.44 986.076 818.247 979.867Z"/>
	<path fill="#5B418E" d="M746.77 670.175L752.391 673.083C751.091 674.132 749.88 675.321 748.65 676.454L744.71 680.324C745.595 676.946 746.248 673.627 746.77 670.175Z"/>
</svg>
