<?xml version="1.0" encoding="utf-8" ?>
<svg xmlns="http://www.w3.org/2000/svg" xmlns:xlink="http://www.w3.org/1999/xlink" width="1024" height="1024">
	<defs>
		<linearGradient id="gradient_0" gradientUnits="userSpaceOnUse" x1="189.82077" y1="346.49884" x2="839.79517" y2="790.46765">
			<stop offset="0" stop-color="black"/>
			<stop offset="1" stop-color="#100136"/>
		</linearGradient>
	</defs>
	<path fill="url(#gradient_0)" d="M0 0L449.518 0L455.264 0L491.58 0L496.937 0L634.927 0L640.194 0L674.619 0L680.171 0L830.768 0L836.49 0L873.322 0L878.764 0L1024 0L1024 40.4957L1024 46.0147L1024 188.303L1024 193.922L1024 335.545L1024 341.041L1024 482.959L1024 488.034L1024 630.331L1024 635.907L1024 695.335L1024 700.611L1024 758.214L1024 763.735L1024 910.694L1024 916.01L1024 1024L835.559 1024L829.648 1024L632.448 1024L626.874 1024L490.308 1024L482.619 1024L373.536 1024L367.417 1024L319.515 1024L313.643 1024L291.794 1024L285.762 1024L33.6336 1024L27.7472 1024L0 1024L0 671.477L0 663.759L0 651.251L0 642.259L0 0Z"/>
	<path fill="#9F8BE8" d="M0 0L449.518 0L449.656 86.3694L449.588 161.272C449.564 174.884 450.091 188.808 449.243 202.381C446.38 200.782 443.527 199.037 440.582 197.604C430.348 191.196 416.857 187.586 405.023 185.714C398.909 189.93 388.66 185.791 381.711 187.917C362.19 189.138 351.987 192.676 335.01 201.547C331.63 203.313 327.759 204.9 324.578 206.927C324.433 207.001 324.29 207.077 324.144 207.149C320.353 209.02 316.136 209.091 312.33 211.34C305.193 215.556 299.672 221.767 292.155 225.681C289.035 226.753 285.227 228.501 281.954 228.744C271.441 235.117 250.69 253.974 245.269 264.54C229.561 286.012 216.226 311.018 212.869 337.75C210.747 354.641 213.221 371.25 214.166 388.114C215.582 413.379 208.217 435.512 195.21 456.832C190.823 464.021 186.138 471.063 180.591 477.422C180.39 477.392 180.187 477.372 179.988 477.332C176.747 476.668 173.369 474.96 170.123 474.028C164.776 472.494 129.961 463.167 126.775 464.487C123.373 469.041 122.578 478.291 121.339 483.913C119.057 494.263 112.082 526.139 106.87 533.585C103.176 538.865 95.5995 543.689 90.6158 547.915Q80.8581 556.296 71.4171 565.033C45.8013 589.092 21.4366 614.359 0 642.259L0 0Z"/>
	<path fill="#FEFEFE" d="M180.591 477.422C167.792 453.655 159.863 425.859 157.618 398.987C151.648 327.499 177.572 262.416 223.392 208.452C235.123 194.636 247.96 182.502 261.766 170.803C307.256 132.255 360.578 104.677 419.002 92.0745C429.042 89.9088 439.42 87.2039 449.656 86.3694L449.588 161.272C449.564 174.884 450.091 188.808 449.243 202.381C446.38 200.782 443.527 199.037 440.582 197.604C430.348 191.196 416.857 187.586 405.023 185.714C398.909 189.93 388.66 185.791 381.711 187.917C362.19 189.138 351.987 192.676 335.01 201.547C331.63 203.313 327.759 204.9 324.578 206.927C324.433 207.001 324.29 207.077 324.144 207.149C320.353 209.02 316.136 209.091 312.33 211.34C305.193 215.556 299.672 221.767 292.155 225.681C289.035 226.753 285.227 228.501 281.954 228.744C271.441 235.117 250.69 253.974 245.269 264.54C229.561 286.012 216.226 311.018 212.869 337.75C210.747 354.641 213.221 371.25 214.166 388.114C215.582 413.379 208.217 435.512 195.21 456.832C190.823 464.021 186.138 471.063 180.591 477.422Z"/>
	<path fill="#010001" d="M321.715 204.336C347.771 190.081 374.715 179.723 405.023 185.714C398.909 189.93 388.66 185.791 381.711 187.917C362.19 189.138 351.987 192.676 335.01 201.547C331.63 203.313 327.759 204.9 324.578 206.927C322.311 206.064 321.27 206.878 319.096 207.767L319.081 207.205C320.246 206.776 321.084 206.274 322.102 205.588L321.715 204.336Z"/>
	<path fill="#020008" d="M321.715 204.336L322.102 205.588C321.084 206.274 320.246 206.776 319.081 207.205L319.096 207.767C321.27 206.878 322.311 206.064 324.578 206.927C324.433 207.001 324.29 207.077 324.144 207.149C320.353 209.02 316.136 209.091 312.33 211.34C305.193 215.556 299.672 221.767 292.155 225.681C289.035 226.753 285.227 228.501 281.954 228.744C292.935 219.86 309.071 211.05 321.715 204.336Z"/>
	<path fill="#010001" d="M836.49 0L873.322 0L878.764 0L1024 0L1024 40.4957L1024 46.0147L1024 188.303L1024 193.922L1024 335.545L1024 341.041L1024 482.959L1024 488.034L1024 630.331L1024 635.907L1024 695.335L1024 700.611L1024 758.214L1024 763.735L817.9 763.448C820.24 774.172 827.277 802.164 824.061 811.362C823.169 812.994 823.64 814.329 822.647 815.72C822.548 814.08 823.461 811.97 822.987 810.492C821.585 806.123 823.205 801.518 821.758 797.379C819.634 785.871 814.879 771.735 813.757 760.772C813.306 756.36 813.345 752.075 814.195 747.712C816.413 736.325 821.659 724.768 825.904 713.954C829.762 704.125 833.433 694.193 837.151 684.308C844.63 664.425 847.941 630.68 844.919 609.787C843.153 597.572 839.128 585.157 834.03 573.928C828.982 562.809 823.231 551.907 816.087 541.982C812.654 537.212 808.513 532.937 804.552 528.606C783.294 505.359 759.871 489.983 730.451 478.951L730.18 477.241Q738.14 479.545 745.854 482.572C760.92 461.276 771.119 444.864 780.703 420.522C796.191 381.186 797.482 333.413 787.422 292.574C783.804 277.887 778.26 263.139 772.221 249.293C767.277 249.195 762.318 249.256 757.372 249.243C757.241 249.167 757.119 249.075 756.979 249.016C753.812 247.68 707.86 249.466 699.113 248.669C703.84 248.144 708.958 248.509 713.724 248.505L742.453 248.499C771.337 248.498 800.256 248.187 829.137 248.511L828.678 248.684L831.046 248.582C831.025 248.871 830.973 249.16 830.985 249.45C830.993 249.652 831.17 250.248 831.231 250.465L830.985 251.222L831.77 251.463L831.324 251.971C831.952 271.592 831.517 291.332 831.519 310.971L831.518 417.147L831.507 511.737C831.504 527.277 832.082 543.03 831.482 558.534C831.455 559.22 831.323 559.695 831.025 560.309C829.961 560.163 830.329 560.412 829.705 559.578C828.595 558.096 828.195 556.273 827.217 554.731C824.451 550.368 821.245 545.743 818.184 541.562C807.324 526.725 784.048 502.541 767.286 494.639C765.74 493.91 764.502 492.837 762.987 492.08C758.022 489.6 752.899 487.329 748.156 484.433C746.458 483.396 744.234 482.981 742.321 482.475L742.33 482.779C747.788 485.508 754.684 487.705 759.533 491.296C763.378 494.144 767.723 496.526 771.75 499.129C777.267 502.695 782.71 506.655 787.8 510.814C793.755 515.679 798.907 521.256 804.036 526.953C808.324 531.716 813.131 536.484 816.95 541.611C830.333 559.575 842.086 587.433 845.665 609.594C848.357 626.261 845.771 650.969 843.078 667.723C842.758 669.712 839.951 676.354 841.389 677.869C841.807 675.684 842.082 672.488 842.912 670.445C843.728 668.439 844.236 667.231 844.654 665.047C849.093 641.848 850.66 616.306 844.311 593.353C841.519 583.256 835.283 572.939 835.02 562.449C834.72 550.524 835.342 538.658 835.477 526.748C835.637 512.65 835.517 498.537 835.515 484.437L835.49 291.065L835.486 187.199L835.485 156.521C835.485 151.356 835.051 145.744 835.625 140.627C836.633 145.115 835.829 160.652 835.831 166.088L835.817 240.749C835.804 249.763 834.786 265.944 836.083 274.009C836.992 264.019 836.366 253.446 836.376 243.398L836.411 184.669L836.49 0Z"/>
	<path fill="#9F8BE8" d="M836.49 0L873.322 0L873.016 695.152L837.106 695.14C843.446 674.168 848.759 654.072 849.071 631.989C849.27 617.893 848.465 603.675 844.36 590.099C841.774 581.55 836.255 572.909 836.059 563.946C835.445 535.815 836.163 507.544 836.3 479.405L836.34 356.027L836.18 299.737C836.138 291.346 836.825 282.335 836.083 274.009C836.992 264.019 836.366 253.446 836.376 243.398L836.411 184.669L836.49 0Z"/>
	<path fill="#9F8BE8" d="M878.649 488.252C896.924 487.69 915.28 487.989 933.564 487.993L1024 488.034L1024 630.331L878.5 630.496L878.649 488.252Z"/>
	<path fill="#9F8BE8" d="M1024 46.0147L1024 188.303L878.758 188.513L878.643 46.7129C897.064 45.6413 915.695 46.1479 934.152 46.1329L1024 46.0147Z"/>
	<path fill="#9F8BE8" d="M878.512 340.968L1024 341.041L1024 482.959L878.588 482.536L878.512 340.968Z"/>
	<path fill="#9F8BE8" d="M878.787 194.47L1024 193.922L1024 335.545L878.643 335.526L878.787 194.47Z"/>
	<path fill="#9F8BE8" d="M772.221 249.293Q801.347 249.061 830.472 249.301L830.609 446.718L830.657 527.298C830.662 538.073 831.054 548.89 830.868 559.656C810.813 525.074 782.768 498.484 745.854 482.572C760.92 461.276 771.119 444.864 780.703 420.522C796.191 381.186 797.482 333.413 787.422 292.574C783.804 277.887 778.26 263.139 772.221 249.293Z"/>
	<path fill="#9F8BE8" d="M1024 700.611L1024 758.214C954.999 757.358 885.949 758.511 816.944 758.261C816.836 739.023 828.476 718.712 834.615 700.573C857.69 701.236 880.858 700.707 903.944 700.664L1024 700.611Z"/>
	<path fill="#9F8BE8" d="M878.542 635.975L1024 635.907L1024 695.335L878.759 695.242Q878.932 665.607 878.542 635.975Z"/>
	<path fill="#9F8BE8" d="M878.764 0L1024 0L1024 40.4957L878.723 40.5204L878.764 0Z"/>
	<path fill="#9F8BE8" d="M155.736 669.995C200.968 682.13 235.074 701.147 259.228 742.965C285.948 789.223 300.645 866.1 305.296 919.421C308.341 954.325 308.956 989.225 313.643 1024L291.794 1024L285.762 1024L33.6336 1024C26.9435 969.45 18.4121 909.818 26.0276 855.063C29.0842 833.086 35.1636 810.757 42.6301 789.886C50.5921 767.63 60.5556 746.016 75.1793 727.269C93.2913 704.051 127.218 677.724 155.736 669.995Z"/>
	<path fill="#010001" d="M285.762 1024L229.76 886.222Q199.254 810.313 170.936 733.562L160.221 705.625C158.701 701.675 156.532 697.363 155.542 693.273C155.255 692.089 155.222 691.205 155.592 690.025C156.601 689.125 156.85 689.132 158.203 688.909C160.027 689.621 160.464 690.801 161.233 692.533C164.529 699.962 167.218 707.767 170.096 715.369L188.103 763.906Q206.367 811.659 225.14 859.213L272.806 977.266C279.087 992.847 286.268 1008.13 291.794 1024L285.762 1024Z"/>
	<path fill="#0E022C" d="M405.023 185.714C416.857 187.586 430.348 191.196 440.582 197.604L439.311 198.036C439.828 199.343 440.822 199.997 441.546 201.159C451.166 208.392 461.922 213.918 471.988 220.473C478.244 224.547 484.006 229.766 489.834 234.434C493.869 237.666 498.546 240.9 502.027 244.72C500.088 247.752 498.009 250.666 495.904 253.583L497.387 255.116L501.333 250.207C499.476 255.765 497.107 261.016 494.314 266.166C494.666 267.38 494.894 268.436 495.01 269.705C498.063 264.825 502.691 256.744 503.562 250.996C503.804 249.401 503.52 247.597 503.347 246C505.932 247.776 509.14 250.537 512.199 251.151L512.996 250.505C517.986 254.581 532.022 267.329 535.162 272.228C541.108 278.552 555.891 294.578 559.783 301.661C564.431 306.434 568.487 311.817 572.926 316.795C580.587 325.387 614.941 361.96 617.755 368.858C620.603 373.244 619.911 380.662 618.848 385.61C615.89 399.387 606.777 411.927 594.924 419.448C589.278 423.031 583.129 425.474 576.494 426.376C573.311 424.136 568.542 424.585 564.91 423.249C561.52 422.002 558.357 419.077 555.444 416.961C556.913 412.213 566.188 410.982 567.752 406.071C564.383 407.053 562.378 411.518 558.27 412.632C556.97 412.985 556.324 413.075 555.162 412.397L553.583 412.815L547.264 419.61C543.119 420.93 539.368 421.835 534.993 422.002C494.879 423.537 433.742 378.921 407.192 429.557C405.075 433.595 403.72 437.745 402.4 442.09C400.186 449.692 399.443 456.337 400.606 464.21C391.168 460.35 382.793 454.098 375.631 446.907C380.256 440.552 402.52 407.442 403.647 401.587C402.217 397.949 394.308 394.512 391.128 392.125C389.333 390.778 387.747 389.024 386.235 387.373C388.269 376.929 386.708 364.63 380.647 355.668C377.375 350.831 371.93 346.703 366.144 345.628C358.671 344.239 350.296 346.669 344.237 351.078C332.939 359.3 325.357 374.537 323.33 388.124C322.101 396.364 322.29 405.512 323.935 413.686C324.51 416.542 326.815 419.634 326.585 422.521C326.206 427.273 304.749 446.289 300.301 449.635C290.643 456.901 278.07 462.971 266.217 465.417C263.233 466.033 260.164 465.868 257.232 466.479C237.111 466.778 220.323 463.654 202.155 454.963C203.744 450.546 206.099 446.323 207.98 442.011C211.892 433.043 215.045 423.463 216.627 413.791C219.087 398.748 217.369 384.195 216.126 369.185C212.646 327.166 224.675 304.705 244.757 270.206C245.06 268.298 245.401 266.479 245.269 264.54C250.69 253.974 271.441 235.117 281.954 228.744C285.227 228.501 289.035 226.753 292.155 225.681C299.672 221.767 305.193 215.556 312.33 211.34C316.136 209.091 320.353 209.02 324.144 207.149C324.29 207.077 324.433 207.001 324.578 206.927C327.759 204.9 331.63 203.313 335.01 201.547C351.987 192.676 362.19 189.138 381.711 187.917C388.66 185.791 398.909 189.93 405.023 185.714Z"/>
	<path fill="#010001" d="M559.783 301.661C564.431 306.434 568.487 311.817 572.926 316.795C580.587 325.387 614.941 361.96 617.755 368.858C620.603 373.244 619.911 380.662 618.848 385.61C615.89 399.387 606.777 411.927 594.924 419.448C589.278 423.031 583.129 425.474 576.494 426.376C573.311 424.136 568.542 424.585 564.91 423.249C561.52 422.002 558.357 419.077 555.444 416.961C556.913 412.213 566.188 410.982 567.752 406.071C564.383 407.053 562.378 411.518 558.27 412.632C556.97 412.985 556.324 413.075 555.162 412.397L553.583 412.815L555.318 410.507C555.442 410.629 555.57 410.748 555.689 410.874C556.129 411.338 556.362 411.732 556.646 412.293L557.212 412.34C557.957 408.933 568.4 396.525 570.86 389.111C573.858 382.905 575.179 374.826 575.513 367.999L575.047 368.153C574.248 366.591 574.676 357.342 574.051 354.246C573.707 346.993 571.932 333.848 569.321 327.24C568.555 326.56 568.751 326.808 568.225 326.111C568.118 325.969 568.017 325.822 567.913 325.678C566.635 332.957 568.082 339.883 565.635 348.248C560.202 366.826 552.053 381.253 534.711 390.765C515.778 401.151 493.187 400.434 472.908 394.403C458.016 389.974 445.31 383.246 433.483 373.249C428.153 368.744 423.783 364.834 420.429 358.632C429.693 363.306 438.533 368.939 448.002 373.238C463.657 380.344 484.688 382.998 501.752 382.022C523.229 380.793 540.764 367.277 554.602 351.931L557.184 350.254L558.342 350.511C560.28 348.335 561.371 345.263 562.299 342.538C563.434 340.374 563.931 338.017 564.54 335.666C563.925 335.431 563.516 335.386 563.138 334.756C562.914 334.383 564.205 315.729 562.887 310.889C562.285 308.679 560.891 306.486 559.789 304.481C559.461 303.126 559.121 302.953 559.783 301.661Z"/>
	<path fill="#0E022C" d="M583.2 334.128C590.804 341.699 598.664 349.196 606.071 356.945C609.865 360.913 613.029 365.43 617.149 369.061L617.755 368.858C620.603 373.244 619.911 380.662 618.848 385.61C615.89 399.387 606.777 411.927 594.924 419.448C589.278 423.031 583.129 425.474 576.494 426.376C573.311 424.136 568.542 424.585 564.91 423.249C561.52 422.002 558.357 419.077 555.444 416.961C565.901 409.715 576.058 402.216 582.278 390.818C592.456 372.169 588.976 353.454 583.2 334.128Z"/>
	<path fill="#9F8BE8" d="M564.54 335.666C565.679 337.546 563.54 345.295 562.992 347.518C558.865 364.267 550.692 377.926 535.722 386.962C518.029 397.642 495.608 397.607 476.097 392.68Q472.871 391.885 469.705 390.881Q466.538 389.877 463.444 388.667Q460.35 387.458 457.342 386.048Q454.334 384.638 451.425 383.034Q448.516 381.43 445.718 379.638Q442.92 377.847 440.246 375.876Q437.572 373.905 435.033 371.763Q432.493 369.621 430.1 367.317C435.262 370.335 440.364 373.353 445.903 375.647C465.461 383.749 492.225 388.045 512.991 382.628C530.062 378.174 548.898 366.453 558.083 350.987C558.175 350.832 558.255 350.67 558.342 350.511C560.28 348.335 561.371 345.263 562.299 342.538C563.434 340.374 563.931 338.017 564.54 335.666Z"/>
	<path fill="#9F8BE8" d="M570.706 321.164C581.837 338.499 589.184 355.101 584.694 376.148C581.441 391.403 570.988 403.906 557.872 411.967C557.656 412.099 557.432 412.215 557.212 412.34C557.957 408.933 568.4 396.525 570.86 389.111C573.858 382.905 575.179 374.826 575.513 367.999C578.067 352.614 574.667 336.003 570.706 321.164Z"/>
	<path fill="#9F8BE8" d="M501.333 250.207C499.476 255.765 497.107 261.016 494.314 266.166C476.085 292.925 451.646 309.8 419.685 315.84Q408.655 317.85 397.495 318.916C385.776 320.005 363.894 320.299 353.672 324.882C350.593 325.882 344.714 327.389 342.406 329.644L338.694 331.231L338.386 330.899L338.506 330.54C341.416 328.9 344.241 326.769 346.982 324.841C367.22 313.101 387.667 310.138 410.06 304.871C442.445 297.255 477.521 283.131 497.387 255.116L501.333 250.207Z"/>
	<path fill="#9F8BE8" d="M536.344 294.966C538.115 292.485 538.902 286.966 541.404 285.496C541.478 288.329 541.627 291.174 541.336 293.999C541.224 295.205 540.996 296.501 541.03 297.707C537.044 314.848 527.816 328.939 512.674 338.289C498.879 346.806 480.902 350.77 464.797 350.326C459.09 350.168 453.536 349.308 447.872 348.801C454.864 347.957 462.444 348.032 469.136 345.687L468.864 345.071C472.263 342.905 475.899 341.75 479.57 340.184C483.542 338.489 487.503 336.405 491.36 334.445C502.567 328.749 516.583 318.388 524.54 308.737C527.722 304.878 530.07 300.195 533.303 296.459C534.289 295.319 534.886 295.14 536.344 294.966Z"/>
	<path fill="#010001" d="M469.136 345.687L468.864 345.071C472.263 342.905 475.899 341.75 479.57 340.184C483.542 338.489 487.503 336.405 491.36 334.445C502.567 328.749 516.583 318.388 524.54 308.737C527.722 304.878 530.07 300.195 533.303 296.459C534.289 295.319 534.886 295.14 536.344 294.966C526.526 317.075 502.774 333.605 480.858 342.158C477.175 343.596 473.068 345.139 469.136 345.687Z"/>
	<path fill="#010001" d="M494.314 266.166C494.666 267.38 494.894 268.436 495.01 269.705C473.884 298.914 449.813 314.134 414.144 319.876C395.562 322.867 376.8 323.141 358.264 326.415C356.092 326.445 353.475 327.026 351.378 326.729C352.213 326.178 352.921 325.538 353.672 324.882C363.894 320.299 385.776 320.005 397.495 318.916Q408.655 317.85 419.685 315.84C451.646 309.8 476.085 292.925 494.314 266.166Z"/>
	<path fill="#010001" d="M495.904 253.583L497.387 255.116C477.521 283.131 442.445 297.255 410.06 304.871C387.667 310.138 367.22 313.101 346.982 324.841L346.139 324.071C349.718 314.298 406.431 303.255 418.485 299.849Q432.362 295.787 445.669 290.13C464.511 282.12 483.508 270.115 495.904 253.583Z"/>
	<path fill="#020008" d="M541.03 297.707C542.411 299.658 542.104 301.765 541.717 304.032C539.384 317.7 528.15 331.32 516.94 338.898C506.749 345.787 490.579 351.718 478.201 352.502C473.089 352.825 467.933 351.982 462.816 351.925C457.183 351.864 451.635 352.384 446.071 351.22Q444.464 350.874 442.9 350.369Q441.336 349.864 439.83 349.204Q438.324 348.545 436.892 347.739Q435.459 346.932 434.115 345.986C438.917 346.018 443.852 345.999 448.589 346.862L448.773 347.293L446.16 348.458L446.722 349.057L447.872 348.801C453.536 349.308 459.09 350.168 464.797 350.326C480.902 350.77 498.879 346.806 512.674 338.289C527.816 328.939 537.044 314.848 541.03 297.707Z"/>
	<path fill="#040116" d="M281.954 228.744C285.227 228.501 289.035 226.753 292.155 225.681C292.001 225.813 291.849 225.948 291.694 226.078C285.902 230.947 279.001 233.964 272.906 238.304C269.945 240.411 267.859 244.456 264.75 246.102L266.628 243.125C256.782 250.847 252.719 262.917 244.757 270.206C245.06 268.298 245.401 266.479 245.269 264.54C250.69 253.974 271.441 235.117 281.954 228.744Z"/>
	<path fill="#020008" d="M541.404 285.496C541.275 285.163 541.141 284.832 541.034 284.492C539.654 280.078 537.572 276.907 534.938 273.137L535.162 272.228C541.108 278.552 555.891 294.578 559.783 301.661C559.121 302.953 559.461 303.126 559.789 304.481C556.272 299.667 551.258 291.294 545.866 288.907C542.789 289.259 544.271 294.832 542.303 297.185L541.93 296.962L541.336 293.999C541.627 291.174 541.478 288.329 541.404 285.496Z"/>
	<path fill="#020008" d="M405.023 185.714C416.857 187.586 430.348 191.196 440.582 197.604L439.311 198.036C439.828 199.343 440.822 199.997 441.546 201.159C422.434 188.659 403.612 187.953 381.711 187.917C388.66 185.791 398.909 189.93 405.023 185.714Z"/>
	<path fill="#040116" d="M555.318 410.507C556.269 408.522 557.929 406.514 559.169 404.664C563.855 397.673 567.96 391.591 570.037 383.321C569.965 385.429 569.697 387.225 570.86 389.111C568.4 396.525 557.957 408.933 557.212 412.34L556.646 412.293C556.362 411.732 556.129 411.338 555.689 410.874C555.57 410.748 555.442 410.629 555.318 410.507Z"/>
	<path fill="#020008" d="M574.051 354.246C574.676 357.342 574.248 366.591 575.047 368.153L575.513 367.999C575.179 374.826 573.858 382.905 570.86 389.111C569.697 387.225 569.965 385.429 570.037 383.321C570.084 382.358 569.993 382.778 570.29 381.924C573.101 373.835 574.116 362.727 574.051 354.246Z"/>
	<path fill="#010001" d="M331.413 339.291C332.188 335.667 332.913 331.983 336.192 329.831C337.476 329.828 337.546 329.718 338.506 330.54L338.386 330.899L338.694 331.231L342.406 329.644L342.666 330.755C341.712 331.715 340.724 332.638 339.886 333.701C337.127 335.732 334.413 337.631 331.413 339.291Z"/>
	<path fill="#020008" d="M342.406 329.644C344.714 327.389 350.593 325.882 353.672 324.882C352.921 325.538 352.213 326.178 351.378 326.729C353.475 327.026 356.092 326.445 358.264 326.415C351.686 328.528 345.989 330.306 339.886 333.701C340.724 332.638 341.712 331.715 342.666 330.755L342.406 329.644Z"/>
	<path fill="#040116" d="M554.602 351.931C555.93 349.272 557.737 345.416 559.96 343.456C560.767 342.744 561.199 342.523 562.299 342.538C561.371 345.263 560.28 348.335 558.342 350.511L557.184 350.254L554.602 351.931Z"/>
	<path fill="#9F8BE8" d="M330.092 210.555L329.342 209.651C329.981 207.383 331.55 206.534 333.514 205.419C336.597 203.667 340.306 201.999 343.899 202.334L344.594 202.849C343.767 207.014 334.118 212.198 330.781 215.253C317.924 227.023 306.997 240.689 299.235 256.332C286.833 281.328 282.655 308.437 277.568 335.548C271.587 367.419 268.28 390.853 243.874 415.487C240.08 419.316 236.012 423.513 231.539 426.526C229.802 427.697 226.883 429.652 224.689 429.363C224.521 429.341 224.362 429.271 224.198 429.225C223.945 428.096 224.01 427.987 224.657 426.96C225.978 424.859 227.792 422.597 229.628 420.927C230.884 418.709 232.222 416.553 233.578 414.396C233.654 414.239 233.715 414.074 233.806 413.925C240.131 403.577 245.008 392.947 248.509 381.345C250.913 377.127 253.245 365.831 254.481 360.645C257.252 349.015 259.114 337.241 260.728 325.404C262.169 314.825 263.349 303.822 266.116 293.489C267.675 287.666 270.82 282.642 272.818 277.038C273.888 274.035 274.614 270.919 275.798 267.954C279.684 258.221 285.466 249.132 291.748 240.783C296.762 234.118 309.303 218.58 317.657 217.369L318.399 218.056C322.244 215.734 326.647 213.417 330.092 210.555Z"/>
	<path fill="#010001" d="M330.092 210.555L329.342 209.651C329.981 207.383 331.55 206.534 333.514 205.419C336.597 203.667 340.306 201.999 343.899 202.334L344.594 202.849C343.767 207.014 334.118 212.198 330.781 215.253C317.924 227.023 306.997 240.689 299.235 256.332C286.833 281.328 282.655 308.437 277.568 335.548C271.587 367.419 268.28 390.853 243.874 415.487C240.08 419.316 236.012 423.513 231.539 426.526C229.802 427.697 226.883 429.652 224.689 429.363C224.521 429.341 224.362 429.271 224.198 429.225C223.945 428.096 224.01 427.987 224.657 426.96C225.978 424.859 227.792 422.597 229.628 420.927L231.9 419.36C232.743 419.726 232.46 419.448 232.853 420.071Q232.005 421.418 231.199 422.79L231.776 422.924C272.819 390.466 271.009 345.028 281.242 299.093C284.351 285.136 289.255 271.218 295.257 258.247C301.997 243.682 310.592 231.519 321.566 219.87C324.642 216.605 328.85 213.82 331.516 210.312L330.092 210.555Z"/>
	<path fill="#020008" d="M248.509 381.345C250.913 377.127 253.245 365.831 254.481 360.645C257.252 349.015 259.114 337.241 260.728 325.404C262.169 314.825 263.349 303.822 266.116 293.489C267.675 287.666 270.82 282.642 272.818 277.038C273.888 274.035 274.614 270.919 275.798 267.954C279.684 258.221 285.466 249.132 291.748 240.783C296.762 234.118 309.303 218.58 317.657 217.369L318.399 218.056C313.473 221.765 308.598 225.499 304.265 229.91C282.761 251.798 269.88 283.086 265.63 313.169C261.909 339.509 259.114 370.576 246.783 394.509C246.61 394.084 246.295 393.692 246.263 393.234C246.145 391.54 248.516 384.929 248.509 381.345Z"/>
	<path fill="#040116" d="M233.578 414.396C233.654 414.239 233.715 414.074 233.806 413.925C240.131 403.577 245.008 392.947 248.509 381.345C248.516 384.929 246.145 391.54 246.263 393.234C246.295 393.692 246.61 394.084 246.783 394.509C245.288 398.831 240.24 409.761 237.359 413.018L236.639 412.3C235.555 412.947 234.581 413.635 233.578 414.396Z"/>
	<path fill="#040116" d="M233.578 414.396C234.581 413.635 235.555 412.947 236.639 412.3L237.359 413.018C236.273 415.013 234.68 418.792 232.853 420.071C232.46 419.448 232.743 419.726 231.9 419.36L229.628 420.927C230.884 418.709 232.222 416.553 233.578 414.396Z"/>
	<path fill="#9F8BE8" d="M444.13 218.054L441.614 217.194L441.727 216.627C444.641 215.962 449.793 215.738 452.569 217.038C452.349 217.157 452.121 217.263 451.908 217.396C451.454 217.679 451.033 218.013 450.599 218.327L450.911 217.8L453.057 218.213L450.435 218.647C451.315 218.809 452.278 218.83 452.976 219.409L446.819 219.921L447.511 219.98C453.16 220.423 461.657 218.08 466.609 220.361L466.893 221.222C463.847 223.568 444.565 221.786 439.322 222.238C432.195 222.852 424.791 225.583 418.196 228.205C418.012 228.278 417.819 228.326 417.63 228.386C413.34 230.651 408.76 232.31 404.448 234.52C398.147 237.749 391.792 241.664 385.955 245.674C357.537 265.198 331.554 303.287 316.479 334.108C312.316 342.619 308.109 351.201 304.205 359.832C302.15 364.375 300.502 370.276 297.618 374.314C296.787 375.478 296.34 375.724 294.96 375.95C294.582 375.327 294.584 375.471 294.466 374.857C293.301 368.827 294.537 362.27 295.495 356.306C296.463 350.274 297.394 344.174 299.061 338.288C305.021 317.243 317.188 294.477 329.535 276.415C346.908 251.001 377.698 225.431 408.439 219.586C411.925 218.303 415.734 217.767 419.399 217.261C422.548 216.827 432.969 215.095 435.546 217.038L435.145 217.954L444.13 218.054Z"/>
	<path fill="#010001" d="M408.439 219.586L411.972 219.85C412.662 220.683 412.47 220.291 412.716 220.928C404.467 223.164 396.456 225.507 388.679 229.132C361.447 241.82 338.093 265.815 323.181 291.722C307.894 318.282 299.925 340.863 296.331 371.215C303.54 355.936 310.085 340.449 317.902 325.442C340.23 282.579 371.78 241.924 418.798 225.17Q420.324 224.633 421.897 224.256C421.222 226.263 419.327 227.195 417.63 228.386C413.34 230.651 408.76 232.31 404.448 234.52C398.147 237.749 391.792 241.664 385.955 245.674C357.537 265.198 331.554 303.287 316.479 334.108C312.316 342.619 308.109 351.201 304.205 359.832C302.15 364.375 300.502 370.276 297.618 374.314C296.787 375.478 296.34 375.724 294.96 375.95C294.582 375.327 294.584 375.471 294.466 374.857C293.301 368.827 294.537 362.27 295.495 356.306C296.463 350.274 297.394 344.174 299.061 338.288C305.021 317.243 317.188 294.477 329.535 276.415C346.908 251.001 377.698 225.431 408.439 219.586Z"/>
	<path fill="#040116" d="M446.819 219.921L447.511 219.98C453.16 220.423 461.657 218.08 466.609 220.361L466.893 221.222C463.847 223.568 444.565 221.786 439.322 222.238C432.195 222.852 424.791 225.583 418.196 228.205C418.012 228.278 417.819 228.326 417.63 228.386C419.327 227.195 421.222 226.263 421.897 224.256C428.844 221.068 439.23 219.738 446.819 219.921Z"/>
	<path fill="#040116" d="M408.439 219.586C411.925 218.303 415.734 217.767 419.399 217.261C422.548 216.827 432.969 215.095 435.546 217.038L435.145 217.954C427.527 218.458 420.207 219.381 412.716 220.928C412.47 220.291 412.662 220.683 411.972 219.85L408.439 219.586Z"/>
	<path fill="#040116" d="M444.13 218.054L441.614 217.194L441.727 216.627C444.641 215.962 449.793 215.738 452.569 217.038C452.349 217.157 452.121 217.263 451.908 217.396C451.454 217.679 451.033 218.013 450.599 218.327L450.911 217.8L453.057 218.213L450.435 218.647L444.13 218.054Z"/>
	<path fill="#9F8BE8" d="M483.428 557.836C484.571 557.296 484.57 557.021 485.17 555.883C485.434 556.787 485.661 557.699 486.039 558.562C485.798 570.035 491.166 577.906 494.859 588.249C492.82 589.518 490.742 590.917 488.449 591.673C482.131 593.757 473.165 593.158 470.968 601.127C469.476 606.536 472.085 606.314 467.773 611.909C467.352 613.989 467.982 615.098 469.104 616.768Q469.479 617.323 469.869 617.868C466.079 620.548 462.307 623.277 461.377 628.153C460.085 634.93 465.2 640.628 462.615 647.741C459.862 655.319 452.548 658.833 447.772 664.794C439.093 675.627 441.917 690.981 449.464 701.527C460.812 717.385 482.461 726.431 498.566 736.631C504.855 740.615 510.875 745.364 514.971 751.678C530.262 775.248 545.944 852.576 548.561 881.67C527.577 900.076 510.119 919.686 508.266 948.952C507.736 957.326 508.418 966.181 507.168 974.448C504.776 990.27 492.462 1011.25 482.619 1024L373.536 1024C373.513 999.16 373.349 974.142 369.35 949.559C364.871 922.032 356.93 895.179 352.344 867.734C349.639 851.548 349.196 834.911 346.955 818.621C342.992 789.822 337.676 761.086 329.237 733.237C325.966 722.441 321.88 711.83 318.073 701.212C323.152 692.639 331.773 686.708 337.335 678.498C334.998 672.241 331.304 666.179 328.13 660.297C322.407 649.688 316.679 638.815 309.993 628.778C317.11 619.773 326.035 610.465 335.859 604.478C344.233 599.375 352.146 598.973 361.494 601.247C369.635 608.304 373.55 616.869 383.548 623.593C391.165 628.716 400.135 631.188 409.239 629.217C428.59 625.028 427.799 608.765 436.536 595.533L436.959 594.898C444.737 592.871 454.218 593.029 459.215 585.581C463.14 579.733 461.932 572.492 460.766 566.014C461.443 566.461 462.132 566.901 462.862 567.258C466.517 569.043 470.98 569.348 474.759 567.786C479.467 565.839 481.577 562.287 483.428 557.836Z"/>
	<path fill="#9F8BE8" d="M257.232 466.479C260.164 465.868 263.233 466.033 266.217 465.417C278.07 462.971 290.643 456.901 300.301 449.635C304.749 446.289 326.206 427.273 326.585 422.521C326.815 419.634 324.51 416.542 323.935 413.686C322.29 405.512 322.101 396.364 323.33 388.124C325.357 374.537 332.939 359.3 344.237 351.078C350.296 346.669 358.671 344.239 366.144 345.628C371.93 346.703 377.375 350.831 380.647 355.668C386.708 364.63 388.269 376.929 386.235 387.373C387.747 389.024 389.333 390.778 391.128 392.125C394.308 394.512 402.217 397.949 403.647 401.587C402.52 407.442 380.256 440.552 375.631 446.907C382.793 454.098 391.168 460.35 400.606 464.21C399.443 456.337 400.186 449.692 402.4 442.09L404.436 440.322L405.034 440.525L405.337 441.371C409.878 429.083 418.047 416.729 430.368 411.102C462.394 396.476 518.824 436.072 548.971 421.579C550.619 420.787 552.583 419.504 554.439 420.207C555.442 420.587 555.711 420.881 556.341 421.699C557.34 429.142 547.03 447.338 542.45 453.416C538.988 443.651 532.186 438.572 523.096 434.212C512.196 428.984 498.945 427.038 486.949 427.637C503.136 437.837 517.739 446.463 525.724 464.881C524.133 466.686 522.411 468.499 521.357 470.684C515.649 482.513 515.799 509.75 516.652 522.818C517.053 528.963 517.662 535.275 518.606 541.36C515.875 541.305 512.363 541.555 509.719 540.978C504.4 539.817 498.591 535.968 493.54 533.771C488.877 531.741 483.961 530.411 479.449 528.03C479.272 524.723 485.014 519.852 483.799 517.405C482.026 517.17 480.655 517.666 479.26 518.729C476.67 520.701 475.444 522.997 475.136 526.196C474.956 528.067 475.324 529.854 476.639 531.26C479.14 533.937 487.823 534.476 488.348 537.321C486.263 542.279 482.348 546.699 479.691 551.427C478.163 554.145 477.31 557.356 475.706 559.938C474.943 561.168 473.629 562.256 472.281 562.778C469.754 563.756 466.83 562.856 464.497 561.765C460.793 560.034 457.374 556.118 453.59 554.973C452.598 555.675 452.666 555.713 452.368 556.907C452.95 559.215 456.527 562.016 456.24 563.834C455.184 564.842 454.763 565.036 454.688 566.577C454.424 571.986 458.551 577.69 454.282 582.779C449.19 588.851 438.807 585.458 433.066 590.577C422.88 599.659 425.696 623.154 404.405 623.855C395.288 624.155 387.491 620.02 381.077 613.827C367.448 600.667 332.322 544.419 328.895 526.597C328.039 522.144 328.02 508.847 326.802 506.091C326.254 504.853 325.874 504.955 324.648 504.619C323.909 504.805 323.311 504.737 322.871 505.426C321.506 507.567 321.825 511.552 321.897 514.035C322.253 526.351 326.125 536.912 328.8 548.769C332.9 566.949 330.266 586.582 316.021 599.706C310.864 604.457 304.883 607.854 298.781 611.213C282.059 587.645 263.876 563.735 241.838 544.826C230.829 535.38 218.845 527.233 206.853 519.105Q188.437 506.432 169.1 495.214C183.113 485.37 192.307 472.768 201.055 458.33C220.597 467.256 242.938 471.037 264.273 467.631C262.384 466.316 259.463 466.598 257.232 466.479Z"/>
	<path fill="#020008" d="M257.232 466.479C260.164 465.868 263.233 466.033 266.217 465.417C278.07 462.971 290.643 456.901 300.301 449.635C304.749 446.289 326.206 427.273 326.585 422.521C326.815 419.634 324.51 416.542 323.935 413.686C322.29 405.512 322.101 396.364 323.33 388.124C325.357 374.537 332.939 359.3 344.237 351.078C350.296 346.669 358.671 344.239 366.144 345.628C371.93 346.703 377.375 350.831 380.647 355.668C386.708 364.63 388.269 376.929 386.235 387.373C387.747 389.024 389.333 390.778 391.128 392.125C394.308 394.512 402.217 397.949 403.647 401.587C402.52 407.442 380.256 440.552 375.631 446.907C382.793 454.098 391.168 460.35 400.606 464.21C399.443 456.337 400.186 449.692 402.4 442.09L404.436 440.322L405.034 440.525L405.337 441.371C403.872 446.745 403.192 451.732 403.292 457.315C403.333 459.584 403.709 462.236 403.464 464.463C403.315 465.82 403.129 465.878 402.062 466.531C395.107 466.789 381.395 456.304 376.383 451.62C375.04 450.365 373.749 448.995 372.664 447.512C378.121 435.771 386.394 424.556 393.636 413.819C396.192 410.029 399.05 406.252 401.246 402.245C393.553 398.578 387.357 394.274 382.054 387.536C385.034 380.29 383.923 370.424 380.974 363.265C378.498 357.253 374.398 351.98 368.179 349.553C362.467 347.323 356.131 348.08 350.66 350.635C340.26 355.494 332.422 367.02 328.727 377.574C324.701 389.075 324.899 402.625 327.467 414.425C327.475 399.356 326.891 389.292 335.118 376.048C337.815 371.705 340.924 367.433 344.53 363.795C348.272 360.019 352.943 356.822 358.47 356.967C362.467 357.072 366.887 358.961 369.595 361.935C373.091 365.776 374.852 372.809 374.496 377.894C373.415 393.329 359.846 397.241 355.653 408.796C352.631 417.122 359.768 430.894 356.561 435.277C355.794 435.348 355.53 435.121 354.933 434.658C351.266 431.813 349.482 420.832 349.012 416.286C348.278 409.19 350.702 404.262 355.162 399.051C361.393 391.768 369.753 384.698 368.758 374.024C368.397 370.147 366.371 366.82 363.326 364.432C361.436 362.95 359.188 362.176 356.782 362.483C350.815 363.246 344.982 370.875 341.681 375.48C331.589 389.562 331.191 405.239 334.063 421.839C335.432 429.749 340.125 442.664 347.147 447.383C348.289 448.15 349.276 448.315 350.637 448.111C352.961 447.763 355.278 445.355 357.536 445.773C358.283 446.765 358.494 447.601 358.343 448.862C358.155 450.427 357.062 451.694 355.779 452.515C353.353 454.067 350.142 454.51 347.372 453.753C342.401 452.394 337.48 445.101 335.149 440.709C332.531 435.778 330.744 430.956 329.199 425.605C308.988 447.013 294.255 461.699 264.273 467.631C262.384 466.316 259.463 466.598 257.232 466.479Z"/>
	<path fill="#010001" d="M487.964 453.696C492.061 455.755 494.588 464.675 499.366 467.667C502.177 469.427 506.511 470.213 509.726 471.132L509.901 471.499C509.723 472.806 509.846 472.98 508.882 473.847C507.45 474.093 506.075 474.182 504.902 475.114C504.113 476.771 504.629 478.75 504.728 480.55L504.051 480.338C502.744 478.547 502.058 477.044 501.52 474.903C501.227 473.736 500.61 473.579 499.675 472.887C499.48 475.483 500.32 478.949 498.546 481.022L497.89 480.573C497.202 478.364 497.532 475.721 497.676 473.429L497.725 472.703C497.338 472.856 495.864 476.862 495.253 477.777L494.506 477.918L493.844 477.285C493.289 475.463 494.325 473.589 494.488 471.74C494.584 470.654 494.729 470.464 494.015 469.587C493.197 469.57 492.474 469.642 491.674 469.791L490.742 469.968L489.938 469.29L489.908 468.435C490.71 467.757 491.423 467.099 492.111 466.304C490.678 463.188 488.237 460.646 487.305 457.267C486.846 455.602 487.108 455.154 487.964 453.696Z"/>
	<path fill="#9F8BE8" d="M542.587 542.238C550.725 540.401 556.872 535.558 561.233 528.544C565.314 521.981 568.578 514.846 574.02 509.242C581.323 501.722 606.94 488.777 617.198 484.518Q624.809 481.382 632.825 479.514C649.269 475.586 664.018 475.144 680.156 480.352C660.138 491.865 649.003 521.751 643.22 543.214C641.879 548.19 640.549 553.34 639.835 558.445C639.032 561.025 638.663 563.646 638.254 566.309C637.265 573.339 635.844 581.092 636.079 588.173L636.717 588.503C637.164 590.751 637.537 592.979 637.819 595.253C637.942 605.742 637.893 616.281 638.438 626.758C638.291 634.758 640.323 665.981 645.309 671.412C646.657 672.881 648.625 672.598 650.468 672.583C649.347 673.117 646.985 673.866 646.482 675.055C646.781 675.114 647.078 675.183 647.378 675.232C654.796 676.442 665.209 666.778 671.398 674.444C674.993 678.897 674.97 687.262 674.168 692.706C672.852 701.631 668.604 708.761 661.327 714.103Q660.19 714.951 659.021 715.755C651.749 719.094 645.13 721.426 637.166 722.29L639.387 722.806C636.819 724.208 630.343 724.844 627.391 725.018L626.465 724.889C622.193 724.265 612.777 720.209 609.236 721.192L608.793 722.093C611.071 728.169 613.333 734.304 616.04 740.203C591.049 761.975 568.347 787.492 562.075 821.248C561.418 822.121 560.81 822.928 560.303 823.901C559.556 823.485 559.927 823.733 559.204 823.139Q557.685 831.523 556.922 840.01Q556.159 848.497 556.159 857.019C556.164 861.201 557.274 871.273 555.749 874.818L554.738 874.876C552.819 871.89 548.152 841.269 546.99 835.489C542.51 813.205 532.969 771.429 522.277 752.659C506.259 724.541 466.124 721.18 452.183 694.345Q451.798 693.605 451.45 692.848Q450.751 691.343 450.222 689.77Q449.693 688.197 449.341 686.575Q448.99 684.954 448.819 683.303Q448.648 681.652 448.661 679.993C448.754 664.637 463.734 661.856 468.1 649.053C470.54 641.898 465.857 633.628 468.088 627.5L468.942 627.201C474.833 630.152 487.548 634.687 493.992 634.111C495.296 633.995 495.916 633.981 496.817 632.949C496.517 632.167 496.699 632.361 496.171 631.864C493.212 629.079 491.344 626.349 489.255 622.893C486.992 614.805 486.844 606.197 484.954 597.975Q485.82 597.773 486.682 597.558C493.734 595.793 503.482 592.044 506.711 584.97C507.228 583.838 507.182 582.097 506.747 580.956C506.458 580.196 506.535 580.425 505.71 580.119C503.2 581.299 501.163 584.814 499.477 587.02C498.177 581.949 495.985 577.128 494.169 572.23C492.116 566.695 490.32 559.217 493.083 553.685C494.69 550.466 497.556 548.329 500.971 547.315C505.683 545.917 511.332 546.596 516.245 546.453C524.269 546.218 534.574 544.983 542.173 542.386C542.312 542.339 542.449 542.287 542.587 542.238Z"/>
	<path fill="#010001" d="M607.107 714.462C617.415 720.21 625.293 722.929 637.166 722.29L639.387 722.806C636.819 724.208 630.343 724.844 627.391 725.018L626.465 724.889C622.193 724.265 612.777 720.209 609.236 721.192L608.793 722.093C611.071 728.169 613.333 734.304 616.04 740.203C591.049 761.975 568.347 787.492 562.075 821.248C561.418 822.121 560.81 822.928 560.303 823.901C559.556 823.485 559.927 823.733 559.204 823.139C564.865 788.631 586.13 762.351 612.024 740.293C610.325 734.217 608.136 728.221 606.259 722.189C602.48 724.915 598.622 727.545 594.511 729.752C580.893 737.061 565.592 738.813 550.736 734.294C547.922 733.438 542.985 732.206 541.536 729.489C541.693 728.85 541.646 728.385 542.204 727.962C545.331 725.596 559.609 731.042 563.969 731.545C579.428 733.331 595.772 723.941 607.107 714.462Z"/>
	<defs>
		<linearGradient id="gradient_1" gradientUnits="userSpaceOnUse" x1="636.8291" y1="652.42059" x2="643.28418" y2="650.60889">
			<stop offset="0" stop-color="#010000"/>
			<stop offset="1" stop-color="#020015"/>
		</linearGradient>
	</defs>
	<path fill="url(#gradient_1)" d="M636.433 629.038L638.438 626.758C638.291 634.758 640.323 665.981 645.309 671.412C646.657 672.881 648.625 672.598 650.468 672.583C649.347 673.117 646.985 673.866 646.482 675.055C645.316 674.77 644.304 674.315 643.453 673.448C636.724 666.591 636.572 638.826 636.433 629.038Z"/>
	<path fill="#010001" d="M636.079 588.173L636.717 588.503C637.164 590.751 637.537 592.979 637.819 595.253C637.942 605.742 637.893 616.281 638.438 626.758L636.433 629.038C635.051 616.636 634.455 600.531 636.079 588.173Z"/>
	<path fill="#010001" d="M576.926 511.954C577.94 511.918 578.987 511.884 579.994 512.024C588.234 513.17 594.679 520.365 599.063 526.899C603.411 533.38 616.215 561.212 614.784 568.674C613.906 569.409 613.93 569.347 612.775 569.301C607.324 553.755 598.913 539.424 586.26 528.63C582.744 525.631 578.319 523.445 575.082 520.178C574.256 519.345 573.361 518.128 573.456 516.899C573.627 514.692 575.393 513.325 576.926 511.954Z"/>
	<path fill="#170753" d="M577.794 516.053C579.387 516.184 580.802 516.785 582.226 517.481C588.891 520.739 597.346 529.079 599.769 536.175C599.232 535.983 598.991 535.93 598.478 535.553C595.306 533.222 592.512 529.521 589.535 526.846C586.143 523.797 582.099 521.307 578.864 518.153C578.215 517.519 578.022 516.907 577.794 516.053Z"/>
	<path fill="#010001" d="M566.353 536.273C567.575 536.955 567.782 537.599 568.142 538.855C567.015 543.899 559.33 551.668 555.855 555.595C564.393 564.974 568.739 566.543 578.27 573.195C579.251 573.879 579.28 573.873 579.471 575.007C579.344 575.117 579.23 575.246 579.09 575.339C576.92 576.77 571.514 575.755 568.968 575.575C561.409 574.294 553.964 571.023 549.172 564.815C547.324 562.421 544.272 557.161 545.161 553.955C545.551 552.55 545.879 552.368 547.035 551.643C548.817 551.397 549.878 552.059 551.41 552.831C556.738 547.725 560.707 540.935 566.353 536.273Z"/>
	<path fill="#010001" d="M665.378 676.326C666.864 676.359 667.359 676.606 668.369 677.629C668.368 679.104 667.848 679.948 666.87 681.047C659.054 689.838 641.165 701.649 629.385 702.717C628.789 702.435 628.373 702.261 627.807 701.881C626.728 701.157 626.429 700.444 626.186 699.233C626.743 698.254 627.067 697.417 628.26 697.081C630.809 696.363 632.929 697.451 637.859 695.447C648.335 691.19 655.977 682.278 665.378 676.326Z"/>
	<path fill="#9F8BE8" d="M817.9 763.448L1024 763.735L1024 910.694C944.107 911.231 864.164 909.541 784.275 910.97C775.099 896.766 764.046 883.735 755.24 869.305C762.131 867.316 769.305 864.904 775.937 862.194C792.99 855.226 814.121 841.118 821.434 823.46C822.837 819.44 823.922 815.645 824.061 811.362C827.277 802.164 820.24 774.172 817.9 763.448Z"/>
	<path fill="#9F8BE8" d="M680.171 0L830.768 0L830.727 208.562L746.017 208.957C733.476 208.932 720.257 209.678 707.791 208.598C698.71 209.042 689.41 208.607 680.306 208.59C680.033 185.982 679.408 163.015 680.033 140.424C680.827 126.952 680.332 113.109 680.386 99.5982L680.171 0Z"/>
	<path fill="#FEFEFE" d="M680.033 140.424C699.265 148.434 741.537 190.221 752.783 208.539L724.141 208.419C718.76 208.4 713.132 208.052 707.791 208.598C698.71 209.042 689.41 208.607 680.306 208.59C680.033 185.982 679.408 163.015 680.033 140.424Z"/>
	<path fill="#9F8BE8" d="M499.834 1009.67C525.147 1009.61 544.159 1000.23 561.842 982.502C572.664 971.649 581.278 959.237 590.744 947.248C610.547 922.164 636.877 891.927 669.719 885.499C677.868 883.904 686.303 883.313 694.547 882.331C712.065 880.243 732.008 877.549 748.552 871.159Q753.35 877.057 757.934 883.122Q762.518 889.188 766.883 895.413Q771.247 901.638 775.387 908.015Q779.526 914.393 783.435 920.914Q787.344 927.435 791.017 934.091Q794.691 940.747 798.124 947.531Q801.558 954.314 804.747 961.216Q807.936 968.118 810.876 975.129C817.55 991.228 822.753 1008.06 829.648 1024L632.448 1024L626.874 1024L490.308 1024C493.66 1019.36 497.19 1014.77 499.834 1009.67Z"/>
	<path fill="#010001" d="M626.874 1024C638.769 984.848 654.246 946.068 682.579 915.74C686.307 911.75 690.998 905.819 695.867 903.337C697.203 902.656 699.003 901.859 700.527 902.27C700.698 902.316 700.854 902.408 701.018 902.477C701.323 903.941 700.772 904.977 699.95 906.205C697.06 910.522 692.084 914.054 688.46 917.833C683.341 923.17 678.638 929.169 674.241 935.113C659.998 954.369 649.304 976.387 641.075 998.809C638.031 1007.1 635.703 1015.82 632.448 1024L626.874 1024Z"/>
	<path fill="#FEFEFE" d="M757.372 249.243C762.318 249.256 767.277 249.195 772.221 249.293C778.26 263.139 783.804 277.887 787.422 292.574C797.482 333.413 796.191 381.186 780.703 420.522C771.119 444.864 760.92 461.276 745.854 482.572Q738.14 479.545 730.18 477.241C726.193 475.358 721.013 475.062 716.662 474.461C713.466 471.665 710.248 468.84 706.601 466.646C702.767 461.784 686.323 455.503 680.25 453.845C679.431 428.519 679.97 403.09 679.991 377.75L680.015 249.351C705.714 248.559 731.643 249.29 757.372 249.243Z"/>
	<path fill="#9F8BE8" d="M787.659 916.121C814.98 915.575 842.396 916.008 869.726 916.007L1024 916.01L1024 1024L835.559 1024C826.88 998.884 817.61 973.511 805.944 949.614C800.355 938.167 793.468 927.449 787.659 916.121Z"/>
	<path fill="#9F8BE8" d="M0 671.477C29.3802 643.892 96.7898 616.569 137.137 617.683C140.26 617.769 143.44 618.046 146.498 618.702C147.877 634.495 150.527 649.594 153.793 665.082C121.057 676.099 89.1808 698.549 68.47 726.412C61.4968 735.794 55.5608 746.574 50.3651 757.033C34.2103 789.554 22.881 827.272 19.1582 863.425C15.6299 897.689 18.0048 936.424 21.4629 970.772C23.2521 988.543 26.0622 1006.23 27.7472 1024L0 1024L0 671.477Z"/>
	<path fill="#FEFEFE" d="M512.996 250.505L513.029 249.575C517.28 248.82 522.177 249.274 526.516 249.261L554.725 249.247L606.625 249.24C616.037 249.241 625.575 248.946 634.973 249.367C635.286 319.644 634.304 389.979 635.155 460.242C628.562 463.604 622.364 467.841 617.347 473.328C614.22 476.747 611.592 480.508 607.776 483.217C596.102 491.502 581.235 494.965 570.757 505.17C562.132 513.568 558.679 527.36 550.029 533.167C542.368 538.311 532.065 539.459 523.128 540.802C522.148 526.739 518.682 480.672 527.463 470.509C530.384 467.129 535.107 465.481 538.791 463.07C552.311 454.222 556.89 439.7 560.925 424.872C566.079 426.521 571.106 426.995 576.494 426.376C583.129 425.474 589.278 423.031 594.924 419.448C606.777 411.927 615.89 399.387 618.848 385.61C619.911 380.662 620.603 373.244 617.755 368.858C614.941 361.96 580.587 325.387 572.926 316.795C568.487 311.817 564.431 306.434 559.783 301.661C555.891 294.578 541.108 278.552 535.162 272.228C532.022 267.329 517.986 254.581 512.996 250.505Z"/>
	<path fill="#9F8BE8" d="M152.237 619.239Q155.301 619.962 158.329 620.822Q161.357 621.682 164.344 622.677Q167.331 623.672 170.27 624.8Q173.208 625.928 176.094 627.188Q178.979 628.447 181.805 629.835Q184.63 631.222 187.391 632.735Q190.151 634.249 192.841 635.884Q195.531 637.52 198.144 639.275C237.529 665.412 276.071 719.487 300.49 759.718C330.55 809.243 344.45 857.306 356.087 913.371C359.441 929.532 363.26 945.68 365.037 962.114C367.242 982.496 367.418 1003.51 367.417 1024L319.515 1024C317.557 1012.65 316.741 1001.06 315.832 989.589C314.046 967.032 313.075 944.403 311.21 921.865C306.504 865.033 290.222 775.45 257.445 728.548C248.006 715.042 235.084 702.962 221.671 693.475C203.032 680.291 181.897 669.587 159.276 665.369C156.439 650.259 152.755 634.651 152.237 619.239Z"/>
	<path fill="#FEFEFE" d="M496.54 84.4042C500.285 82.8496 509.894 83.4148 514.098 83.5555C548.184 84.6963 583.066 91.3721 614.658 104.428C621.492 107.252 628.411 110.23 634.953 113.682C635.626 145.246 635.196 177.015 635.035 208.591Q565.785 209.218 496.534 208.815L496.54 84.4042Z"/>
	<path fill="#9F8BE8" d="M640.194 0L674.619 0L674.604 453.081C662.435 452.494 651.735 453.216 640.356 457.761L640.194 0Z"/>
	<path fill="#9F8BE8" d="M496.937 0L634.927 0L634.953 113.682C628.411 110.23 621.492 107.252 614.658 104.428C583.066 91.3721 548.184 84.6963 514.098 83.5555C509.894 83.4148 500.285 82.8496 496.54 84.4042L496.937 0Z"/>
	<path fill="#9F8BE8" d="M455.264 0L491.58 0Q490.591 115.855 491.232 231.711C479.75 222 467.393 213.774 454.916 205.439C454.404 180.263 455.286 154.878 455.402 129.68L455.264 0Z"/>
	<path fill="#9F8BE8" d="M0 651.251C4.26963 645.762 8.64508 640.347 13.8586 635.711C20.2724 630.008 27.6889 625.332 34.9857 620.845C59.28 605.905 85.8607 593.88 114.413 590.372C155.695 585.302 181.555 600.782 212.697 625.344C226.399 636.151 240.063 646.887 251.524 660.142C262.372 672.687 271.049 686.509 279.809 700.536C296.502 727.27 311.504 754.021 322.919 783.46C324.621 787.85 327.634 793.566 328.25 798.154C328.285 798.412 328.306 798.672 328.334 798.931C326.007 794.978 324.284 790.691 322.156 786.629C316.46 775.756 310.648 765.065 304.339 754.526C280.68 715.008 240.731 661.509 202.839 635.189C190.368 626.526 175.81 619.441 161.042 615.678C126.452 606.862 90.5028 617.636 58.4405 630.553C45.2996 635.848 32.3024 641.588 20.142 648.904C12.9123 653.253 6.47993 658.389 0 663.759L0 651.251Z"/>
	<path fill="#020008" d="M460.766 566.014C463.27 565.324 465.425 568.111 467.993 568.156C470.084 568.193 472.791 567.299 474.88 566.889C477.523 566.371 479.702 562.991 480.918 560.825C484.368 554.678 488.284 542.112 494.727 538.815C495.556 538.772 495.741 538.793 496.464 539.199C497.654 539.867 499.024 539.921 500.357 540.094L500.717 540.767C499.025 543.168 494.987 544.582 492.577 546.313C487.12 550.231 486.045 559.265 487.108 565.318C488.317 572.196 492.391 577.755 494.029 584.34C494.535 586.377 495.64 587.231 494.884 589.282C491.803 592.024 487.388 592.538 483.675 594.086C479.966 595.631 475.002 593.673 472.971 598.424C471.753 601.275 472.798 605.535 471.556 607.857C470.791 609.287 468.439 610.143 468.385 611.975C468.35 613.175 469.003 614.571 469.474 615.629C469.996 616.803 470.128 616.974 470.01 618.235C467.529 621.685 460.775 626.117 461.47 630.887C462.63 638.855 466.551 643.75 461.591 651.823C453.789 664.524 440.392 665.148 443.309 685.535C443.422 686.32 443.508 686.38 443.79 687.116C445.779 692.314 447.537 697.276 450.808 701.856C466.796 724.238 504.231 730.166 517.517 753.938C527.998 772.69 532.606 795.704 537.465 816.482C540.287 828.547 543.123 840.77 545.302 852.987C545.973 856.747 549.108 880.117 549.554 880.901C549.649 881.067 549.663 881.266 549.717 881.448C550.958 881.294 551.879 880.875 552.675 879.885C553.197 879.235 553.609 878.463 554.016 877.737C554.267 877.738 554.518 877.745 554.769 877.74C555.646 877.721 556.328 877.591 557.168 877.374C558.03 876.388 558.593 875.687 558.624 874.318C558.684 871.643 556.93 867.119 557.998 864.787C557.923 864.66 557.834 864.54 557.772 864.406C557.361 863.517 557.372 862.517 557.308 861.555C557.293 865.625 558.08 871.748 556.7 875.505L555.986 876.012C554.836 875.807 554.206 875.829 553.494 874.769C551.782 872.218 550.931 859.059 550.133 855.078C544.717 828.072 533.45 768.783 517.908 747.591C500.369 723.675 451.725 716.587 448.167 683.866C447.828 680.747 447.137 676.465 448.286 673.502C448.56 672.795 448.696 672.625 449.033 671.953C449.17 671.681 449.295 671.403 449.431 671.131C453.917 662.143 464.683 658.181 467.361 647.899C469.274 640.555 465.343 633.238 467.036 626.852C472.671 625.252 489.488 636.382 495.327 632.811L494.38 631.941L494.551 631.885C492.497 629.457 489.571 626.53 488.914 623.335L489.255 622.893C491.344 626.349 493.212 629.079 496.171 631.864C496.699 632.361 496.517 632.167 496.817 632.949C495.916 633.981 495.296 633.995 493.992 634.111C487.548 634.687 474.833 630.152 468.942 627.201L468.088 627.5C465.857 633.628 470.54 641.898 468.1 649.053C463.734 661.856 448.754 664.637 448.661 679.993Q448.648 681.652 448.819 683.303Q448.99 684.954 449.341 686.575Q449.693 688.197 450.222 689.77Q450.751 691.343 451.45 692.848Q451.798 693.605 452.183 694.345C466.124 721.18 506.259 724.541 522.277 752.659C532.969 771.429 542.51 813.205 546.99 835.489C548.152 841.269 552.819 871.89 554.738 874.876L555.749 874.818C557.274 871.273 556.164 861.201 556.159 857.019Q556.159 848.498 556.922 840.011Q557.685 831.524 559.204 823.139C559.927 823.733 559.556 823.485 560.303 823.901C560.81 822.928 561.418 822.121 562.075 821.248C560.122 830.894 558.042 847.522 558.36 857.318C558.549 863.113 559.724 868.791 559.331 874.627C559.202 876.538 558.906 878.808 557.333 880.085L556.439 880.084L555.135 878.387C552.301 878.904 548.919 886.393 545.262 886.893C545.037 886.924 544.812 886.963 544.586 886.991C544.415 887.013 544.243 887.026 544.072 887.043C542.077 889.407 540.663 892.148 538.785 894.593C536.738 897.26 534.073 899.378 531.968 902.006C528.256 906.64 516.379 924.762 516.266 929.978C517.228 930.205 517.845 929.6 518.66 929.074C519.915 928.265 521.226 927.124 521.916 925.79C528.253 919.238 534.631 912.682 541.731 906.943C567.601 886.033 599.385 875.775 631.111 867.657L632.142 867.883L631.896 868.938C624.861 872.52 616.986 873.629 609.457 875.674Q597.821 878.894 586.509 883.114C581.633 884.945 577.068 887.519 572.486 889.973C553.291 900.251 535.656 913.469 521.656 930.303C518.738 933.813 515.163 937.713 513.742 942.122C511.946 947.698 512.037 953.999 512.064 959.789C512.156 979.005 510.332 989.163 499.84 1005.93C520.272 1006.64 539.812 998.288 554.682 984.339C566.317 973.424 574.739 962.306 584.53 949.95C600.868 929.331 618.666 907.695 641.333 893.771C648.401 889.429 655.734 885.806 663.795 883.725C677.515 880.182 715.037 879.167 723.673 871.438L724.078 871.6L724.44 872.799C724.855 872.637 725.283 872.515 725.646 872.254C735.621 869.769 746.058 866.981 755.218 862.236C773.256 852.891 783.179 833.671 789.091 815.107C789.344 812.821 790.253 810.307 790.817 808.056C792.083 809.412 791.848 810.131 791.797 811.988C791.749 813.753 791.565 815.534 791.425 817.295C790.645 820.2 789.741 822.945 788.389 825.646C785.65 837.277 776.559 848.284 768.276 856.512C767.115 857.665 765.759 859.377 764.417 860.276C764.186 860.43 763.934 860.548 763.692 860.684L763.962 861.164L763.204 861.699C765.914 862.137 770.001 860.763 772.638 859.926C787.968 855.059 809.795 838.953 817.221 824.649C822.752 814.757 820.155 808.408 821.621 798.267C821.663 797.971 821.712 797.675 821.758 797.379C823.205 801.518 821.585 806.123 822.987 810.492C823.461 811.97 822.548 814.08 822.647 815.72C823.64 814.329 823.169 812.994 824.061 811.362C823.922 815.645 822.837 819.44 821.434 823.46C814.121 841.118 792.99 855.226 775.937 862.194C769.305 864.904 762.131 867.316 755.24 869.305C764.046 883.735 775.099 896.766 784.275 910.97C864.164 909.541 944.107 911.231 1024 910.694L1024 916.01L869.726 916.007C842.396 916.008 814.98 915.575 787.659 916.121C793.468 927.449 800.355 938.167 805.944 949.614C817.61 973.511 826.88 998.884 835.559 1024L829.648 1024C822.753 1008.06 817.55 991.228 810.876 975.129Q807.936 968.118 804.747 961.216Q801.558 954.314 798.124 947.531Q794.691 940.747 791.017 934.091Q787.344 927.435 783.435 920.914Q779.526 914.393 775.386 908.015Q771.247 901.638 766.883 895.413Q762.518 889.188 757.934 883.122Q753.35 877.057 748.552 871.159C732.008 877.549 712.065 880.243 694.547 882.331C686.303 883.313 677.868 883.904 669.719 885.499C636.877 891.927 610.547 922.164 590.744 947.248C581.278 959.237 572.664 971.649 561.842 982.502C544.159 1000.23 525.147 1009.61 499.834 1009.67C497.19 1014.77 493.66 1019.36 490.308 1024L482.619 1024C492.462 1011.25 504.776 990.27 507.168 974.448C508.418 966.181 507.736 957.326 508.266 948.952C510.119 919.686 527.577 900.076 548.561 881.67C545.944 852.576 530.262 775.248 514.971 751.678C510.875 745.364 504.855 740.615 498.566 736.631C482.461 726.431 460.812 717.385 449.464 701.527C441.917 690.981 439.093 675.627 447.772 664.794C452.548 658.833 459.862 655.319 462.615 647.741C465.2 640.628 460.085 634.93 461.377 628.153C462.307 623.277 466.079 620.548 469.869 617.868Q469.479 617.323 469.104 616.768C467.982 615.098 467.352 613.989 467.773 611.909C472.085 606.314 469.476 606.536 470.968 601.127C473.165 593.158 482.131 593.757 488.449 591.673C490.742 590.917 492.82 589.518 494.859 588.249C491.166 577.906 485.798 570.035 486.039 558.562C485.661 557.699 485.434 556.787 485.17 555.883C484.57 557.021 484.571 557.296 483.428 557.836C481.577 562.287 479.467 565.839 474.759 567.786C470.98 569.348 466.517 569.043 462.862 567.258C462.132 566.901 461.443 566.461 460.766 566.014Z"/>
	<path fill="#7955D8" d="M494.335 539.634C496.358 540.138 498.395 540.6 500.373 541.263C495.304 542.782 491.401 544.751 488.809 549.66C487.331 552.458 486.579 555.465 486.039 558.562C485.661 557.699 485.434 556.787 485.17 555.883C484.57 557.021 484.571 557.296 483.428 557.836C485.826 550.861 489.974 545.509 494.335 539.634Z"/>
	<path fill="#9F8BE8" d="M703.381 488.912Q703.962 496.479 704.407 504.056C705.018 509.379 705.591 514.674 706.666 519.929C714.808 564.893 746.747 598.251 764.319 639.208C772.663 658.656 776.551 678.13 778.503 699.153C778.841 706.763 778.583 714.269 778.51 721.877C777.752 729.616 777.075 737.329 775.387 744.935C768.713 775.014 752.121 805.059 728.222 824.697Q727.456 825.326 726.674 825.934C733.359 815.132 742.643 804.665 746.795 792.53C748.001 790.917 748.628 788.812 749.362 786.947C753.471 780.194 758.641 760.023 759.751 751.88C763.697 741.768 763.37 701.902 760.158 691.022C759.738 682.499 756.932 672.98 754.642 664.734C749.472 646.122 742.659 627.468 734.746 609.836C724.277 586.51 712.562 564.666 705.393 539.954C704.131 533.27 703.076 526.649 702.358 519.884C701.581 509.461 701.323 499.21 703.381 488.912Z"/>
	<path fill="#9F8BE8" d="M523.238 922.975C527.003 918.544 530.278 913.622 533.922 909.076C540.443 900.942 548.452 893.571 556.871 887.441C603.205 853.704 680.34 852.71 720.365 816.716C726.607 811.102 731.165 804.5 735.914 797.65C735.01 799.961 734.082 802.257 733.008 804.496C722.938 825.492 703.432 841.432 682.607 851.064C674.023 855.033 665.013 858.01 656.099 861.14C647.75 863.224 639.428 865.45 631.111 867.657C599.385 875.775 567.601 886.033 541.731 906.943C534.631 912.682 528.253 919.238 521.916 925.79L523.238 922.975Z"/>
	<path fill="#010001" d="M778.51 721.877L779.377 723.914L779.506 723.678C780.138 725.974 780.099 727.969 780.045 730.318C779.545 761.21 758.987 798.821 737.179 820.105C734.56 822.661 726.583 830.552 723.161 831.593L722.481 831.009C722.449 829.587 722.433 828.223 722.142 826.823L721.394 826.622C716.966 829.268 714.013 834.258 709.831 837.376C704.323 841.482 697.732 845.605 691.699 848.866C686.112 851.887 662.176 863.204 656.759 861.51C656.518 861.435 656.319 861.263 656.099 861.14C665.013 858.01 674.023 855.033 682.607 851.064C703.432 841.432 722.938 825.492 733.008 804.496C734.082 802.257 735.01 799.961 735.914 797.65C731.165 804.5 726.607 811.102 720.365 816.716C680.34 852.71 603.205 853.704 556.871 887.441C548.452 893.571 540.443 900.942 533.922 909.076C530.278 913.622 527.003 918.544 523.238 922.975L522.652 922.559C522.242 921.562 522.222 921.987 522.556 920.974C523.464 918.218 526.646 914.466 528.297 911.98C543.059 889.763 564.025 878.886 587.116 867.426C591.989 859.596 599.199 855.725 606.684 850.792C618.665 842.896 628.117 832.106 638.165 821.994C643.677 816.448 649.621 811.349 655.241 805.915C662.121 799.261 668.674 792.125 675.062 784.996C680.845 778.544 685.474 771.261 691.069 764.76L691.704 764.035C693.557 763.229 695.037 761.407 696.459 759.998L697.359 760.183C686.383 779.981 663.109 802.261 646.776 817.985C631.726 832.474 617.165 846.486 600.33 858.917C608.832 855.237 617.402 851.559 625.536 847.106L626.581 847.593C625.822 848.693 624.85 849.592 624.239 850.774L625.133 850.838C623.664 852.179 622.201 853.465 620.622 854.676C624.924 854.205 628.588 851.402 634.045 851.495C662.007 843.559 693.472 835.731 716.35 816.83C722.251 811.956 726.771 805.976 732.314 800.76C732.997 797.765 733.695 794.801 736.257 792.865C737.896 792.57 737.78 792.67 739.17 793.627C740.26 795.531 740.046 795.795 739.77 797.887C740.171 797.899 740.05 797.981 740.206 797.839C743.525 794.761 744.84 788.11 748.614 786.15L749.362 786.947C748.628 788.812 748.001 790.917 746.795 792.53C742.643 804.665 733.359 815.132 726.674 825.934Q727.456 825.326 728.222 824.697C752.121 805.059 768.713 775.014 775.387 744.935C777.075 737.329 777.752 729.616 778.51 721.877Z"/>
	<path fill="#040116" d="M624.239 850.774L625.133 850.838C623.664 852.179 622.201 853.465 620.622 854.676C624.924 854.205 628.588 851.402 634.045 851.495C630.337 853.144 611.997 859.208 608.448 858.767L608.393 858.212C613.286 855.286 618.968 854.464 623.763 851.113L624.239 850.774Z"/>
	<path fill="#020008" d="M740.206 797.839C743.525 794.761 744.84 788.11 748.614 786.15L749.362 786.947C748.628 788.812 748.001 790.917 746.795 792.53L745.911 792.491C744.541 794.462 741.998 798.795 739.742 799.536C738.963 798.951 738.672 798.784 738.53 797.734C738.357 796.447 738.879 794.885 739.17 793.627C740.26 795.531 740.046 795.795 739.77 797.887C740.171 797.899 740.05 797.981 740.206 797.839Z"/>
	<path fill="#9F8BE8" d="M717.659 657.44L718.711 660.559C721.444 679.633 722.901 694.923 721.225 714.191C719.646 723.592 717.159 732.573 715.191 741.853C716.373 743.947 716.02 745.727 715.911 748.086C713.316 755.829 710.237 763.286 706.222 770.404L705.455 770.977C703.716 772.297 703.312 773.547 701.067 773.9C697.331 778.462 694.259 783.766 690.772 788.553C685.566 795.698 679.912 802.298 674.096 808.944C670.945 811.676 667.607 814.975 664.957 818.19C652.66 829.373 640.04 838.923 625.536 847.106C617.402 851.559 608.832 855.237 600.33 858.917C617.165 846.486 631.726 832.474 646.776 817.985C663.109 802.261 686.383 779.981 697.359 760.183C701.134 756.868 704.239 749.114 706.334 744.477C709.023 741.341 711.141 734.56 712.3 730.557C719.361 714.626 720.447 693.596 719.272 676.313C718.857 670.214 717.551 663.951 717.647 657.857C717.65 657.718 717.655 657.579 717.659 657.44Z"/>
	<path fill="#010001" d="M715.191 741.853C716.373 743.947 716.02 745.727 715.911 748.086C713.316 755.829 710.237 763.286 706.222 770.404L705.455 770.977C703.716 772.297 703.312 773.547 701.067 773.9C706.759 762.611 711.068 753.935 715.191 741.853Z"/>
	<path fill="#9F8BE8" d="M793.178 773.365C794.14 779.483 793.645 785.855 793.146 792.001C792.984 793.998 792.494 796.284 792.588 798.265Q791.745 803.168 790.817 808.056C790.253 810.307 789.344 812.821 789.091 815.107C783.179 833.671 773.256 852.891 755.218 862.236C746.058 866.981 735.621 869.769 725.646 872.254C726.793 870.474 729.956 869.426 731.862 868.342C748.805 861.032 764.111 849.47 774.338 833.999C774.517 833.78 774.699 833.563 774.875 833.342C783.763 822.159 794.152 789.343 792.334 775.464L793.178 773.365Z"/>
	<path fill="#010001" d="M706.666 519.929L709.328 520.188C710.822 527.147 712.365 534.075 714.746 540.798C724.377 567.996 742.565 592.34 756.481 617.545C760.08 624.062 763.966 630.638 766.882 637.489C772.434 650.533 776.703 665.719 778.903 679.704C779.75 685.087 779.589 690.802 780.633 696.088C779.994 697.213 779.433 698.232 778.503 699.153C776.551 678.13 772.663 658.656 764.319 639.208C746.747 598.251 714.808 564.893 706.666 519.929Z"/>
	<path fill="#010001" d="M542.587 542.238L542.474 541.635C546.868 539.976 552.289 537.677 555.787 534.484C562.339 528.503 566.389 514.619 575.127 506.808C579.672 502.745 584.683 500.845 589.819 497.843C598.662 492.675 607.61 487.333 617.124 483.446C634.655 476.284 656.181 473.013 674.653 477.896C676.426 478.365 679.141 478.741 680.716 479.554C680.904 479.652 681.044 479.822 681.208 479.956C680.707 480.871 680.261 481.248 679.418 481.797C668.698 488.778 659.281 502.214 654.553 513.994C655.831 513.656 656.794 512.98 657.916 512.302C657.788 512.452 657.659 512.6 657.533 512.751C656.419 514.089 655.525 515.374 654.83 516.975C653.465 520.123 652.742 523.63 651.616 526.881C649.007 534.41 644.166 543.844 643.872 551.777C642.395 553.802 642.059 556.97 640.356 558.57L639.835 558.445C640.549 553.34 641.879 548.19 643.22 543.214C649.003 521.751 660.138 491.865 680.156 480.352C664.018 475.144 649.269 475.586 632.825 479.514Q624.809 481.382 617.198 484.518C606.94 488.777 581.323 501.722 574.02 509.242C568.578 514.846 565.314 521.981 561.233 528.544C556.872 535.558 550.725 540.401 542.587 542.238Z"/>
	<path fill="#020008" d="M708.262 557.87C706.899 552.88 703.335 545.566 703.952 540.5L705.393 539.954C712.562 564.666 724.277 586.51 734.746 609.836C742.659 627.468 749.472 646.122 754.642 664.734C756.932 672.98 759.738 682.499 760.158 691.022L759.553 691.149C758.277 685.547 757.679 679.796 756.374 674.216C751.656 654.044 742.905 630.78 734.685 611.68C729.652 599.987 723.473 588.77 718.304 577.128C715.648 571.145 710.914 562.387 709.52 556.354C708.842 553.42 707.783 550.576 706.797 547.731C706.366 548.352 706.383 548.605 706.504 549.348C706.602 549.947 706.814 550.444 707.041 551C708.309 554.103 708.617 557.202 709.805 560.239C711.218 563.85 713.053 567.298 714.527 570.885C716.112 574.742 717.134 578.612 718.943 582.419C722.807 590.55 726.853 598.706 730.822 606.776C732.312 609.807 734.105 612.734 735.452 615.825C739.105 624.205 742.033 633.304 745.024 641.962C749.701 655.506 754.366 668.394 757.097 682.528C757.666 685.475 759.329 689.284 758.922 692.227C757.712 690.39 750.977 660.664 748.885 654.881C743.924 641.164 739.261 626.984 733.434 613.617C729.871 605.443 725.371 597.616 721.553 589.544C716.651 579.177 712.478 568.527 708.262 557.87Z"/>
	<path fill="#010001" d="M650.468 672.583L650.965 672.458C657.337 670.806 665.035 666.15 671.522 669.739C674.634 671.461 676.283 674.666 677.113 678.007C679.342 686.97 678.069 698.037 673.128 705.89C670.878 709.467 667.631 713.559 663.937 715.659C662.676 715.563 661.828 716.029 660.713 716.536C660.055 716.836 659.878 716.733 659.177 716.666L659.021 715.755Q660.19 714.951 661.327 714.103C668.604 708.761 672.852 701.631 674.168 692.706C674.97 687.262 674.993 678.897 671.398 674.444C665.209 666.778 654.796 676.442 647.378 675.232C647.078 675.183 646.781 675.114 646.482 675.055C646.985 673.866 649.347 673.117 650.468 672.583Z"/>
	<path fill="#010001" d="M731.862 868.342L731.555 867.701C732.4 864.999 739.233 861.924 741.724 860.459C749.597 855.829 756.142 851.509 762.537 844.815C765.99 841.201 769.185 836.657 773.205 833.709L774.338 833.999C764.111 849.47 748.805 861.032 731.862 868.342Z"/>
	<path fill="#020008" d="M664.957 818.19L665.491 819.108C664.791 821.213 663.21 822.768 661.796 824.435C654.443 830.973 646.77 836.54 638.559 841.936C634.152 844.832 629.24 847.574 625.133 850.838L624.239 850.774C624.85 849.592 625.822 848.693 626.581 847.593L625.536 847.106C640.04 838.923 652.66 829.373 664.957 818.19Z"/>
	<path fill="#020008" d="M701.067 773.9C703.312 773.547 703.716 772.297 705.455 770.977L706.222 770.404C700.012 781.24 690.401 794.615 681.944 803.678C679.849 805.4 676.824 808.691 674.096 808.944C679.912 802.298 685.566 795.698 690.772 788.553C694.259 783.766 697.331 778.462 701.067 773.9Z"/>
	<path fill="#040116" d="M740.206 797.839C741.581 793.171 745.291 788.508 747.48 784.067C750.323 778.298 754.917 763.188 755.978 756.63C756.012 756.422 756.038 756.212 756.073 756.004C756.125 755.695 756.184 755.387 756.238 755.078L756.331 754.52C759.603 756.418 752.066 769.864 753.33 773.919C754.767 769.652 756.338 764.911 757.338 760.523C758.008 757.588 757.959 753.974 759.184 751.249L759.751 751.88C758.641 760.023 753.471 780.194 749.362 786.947L748.614 786.15C744.84 788.11 743.525 794.761 740.206 797.839Z"/>
	<path fill="#040116" d="M639.835 558.445L640.356 558.57C642.059 556.97 642.395 553.802 643.872 551.777C643.032 555.298 641.936 558.935 641.523 562.526C639.068 571.28 637.662 586.033 637.819 595.253C637.537 592.979 637.164 590.751 636.717 588.503L636.079 588.173C635.844 581.092 637.265 573.339 638.254 566.309C638.663 563.646 639.032 561.025 639.835 558.445Z"/>
	<path fill="#020008" d="M639.835 558.445L640.356 558.57C642.059 556.97 642.395 553.802 643.872 551.777C643.032 555.298 641.936 558.935 641.523 562.526C640.521 563.175 640.313 563.875 640.042 565.009C639.759 566.192 639.612 567.431 639.434 568.634L638.997 568.918C638.55 567.996 638.36 567.328 638.254 566.309C638.663 563.646 639.032 561.025 639.835 558.445Z"/>
	<defs>
		<linearGradient id="gradient_2" gradientUnits="userSpaceOnUse" x1="703.48895" y1="530.0191" x2="701.35431" y2="530.51752">
			<stop offset="0" stop-color="#02000C"/>
			<stop offset="1" stop-color="#090221"/>
		</linearGradient>
	</defs>
	<path fill="url(#gradient_2)" d="M699.84 521.007L700.174 522.188L700.695 521.516L700.404 522.686L700.717 522.949C700.787 521.837 700.886 520.987 701.289 519.945L702.358 519.884C703.076 526.649 704.131 533.27 705.393 539.954L703.952 540.5C703.335 545.566 706.899 552.88 708.262 557.87C707.68 557.774 707.762 557.863 707.286 557.06C704.575 552.487 698.797 526.301 699.84 521.007Z"/>
	<path fill="#0E022C" d="M780.633 696.088C781.819 703.865 782.625 723.337 780.045 730.318C780.099 727.969 780.138 725.974 779.506 723.678L779.377 723.914L778.51 721.877C778.583 714.269 778.841 706.763 778.503 699.153C779.433 698.232 779.994 697.213 780.633 696.088Z"/>
	<path fill="#040116" d="M721.225 714.191L722.073 714.398C722.04 714.601 721.992 714.802 721.975 715.006C721.901 715.885 722.018 716.179 722.237 716.975C723.805 722.675 717.979 741.915 715.911 748.086C716.02 745.727 716.373 743.947 715.191 741.853C717.159 732.573 719.646 723.592 721.225 714.191Z"/>
	<path fill="#020008" d="M637.166 722.29C645.13 721.426 651.749 719.094 659.021 715.755L659.177 716.666C659.878 716.733 660.055 716.836 660.713 716.536C661.828 716.029 662.676 715.563 663.937 715.659C658.754 721.035 638.51 725.282 630.986 725.432C629.765 725.457 628.57 725.338 627.391 725.018C630.343 724.844 636.819 724.208 639.387 722.806L637.166 722.29Z"/>
	<defs>
		<linearGradient id="gradient_3" gradientUnits="userSpaceOnUse" x1="703.95416" y1="513.45795" x2="696.37775" y2="509.41943">
			<stop offset="0" stop-color="#040311"/>
			<stop offset="1" stop-color="#0E052A"/>
		</linearGradient>
	</defs>
	<path fill="url(#gradient_3)" d="M699.84 521.007C701.238 516.647 697.718 509.744 697.973 504.769C698.781 503.598 699.465 503.708 700.783 503.353C700.989 501.871 700.959 500.45 700.924 498.961C702.115 497.217 701.716 491.837 702.3 489.381L703.381 488.912C701.323 499.21 701.581 509.461 702.358 519.884L701.289 519.945C700.886 520.987 700.787 521.837 700.717 522.949L700.404 522.686L700.695 521.516L700.174 522.188L699.84 521.007Z"/>
	<path fill="#020008" d="M706.601 466.646C710.248 468.84 713.466 471.665 716.662 474.461C721.013 475.062 726.193 475.358 730.18 477.241L730.451 478.951C728.204 478.512 725.752 477.44 723.45 477.801C721.994 478.029 720.882 478.455 720.008 479.701C719.884 480.663 719.843 481.119 719.346 481.975L718.119 481.798C716.443 475.077 710.119 472.08 706.601 466.646Z"/>
	<path fill="#040116" d="M674.096 808.944C676.824 808.691 679.849 805.4 681.944 803.678C678.154 808.955 667.186 821.351 661.796 824.435C663.21 822.768 664.791 821.213 665.491 819.108L664.957 818.19C667.607 814.975 670.945 811.676 674.096 808.944Z"/>
	<path fill="#020008" d="M701.157 749.463C702.874 748.15 703.952 745.959 705.331 744.275L706.334 744.477C704.239 749.114 701.134 756.868 697.359 760.183L696.459 759.998C695.037 761.407 693.557 763.229 691.704 764.035C695.314 759.444 697.671 754.083 701.157 749.463Z"/>
	<path fill="#040116" d="M704.407 504.056C705.15 504.194 706.042 504.106 706.496 504.776C708.899 508.321 708.145 515.911 709.328 520.188L706.666 519.929C705.591 514.674 705.018 509.379 704.407 504.056Z"/>
	<path fill="#040116" d="M701.157 749.463C702.108 747.182 710.185 729.804 710.885 729.125C711.248 731.737 708.378 733.623 708.974 736.95C709.314 735.952 709.647 734.943 710.045 733.966C710.6 732.603 710.915 731.128 712.3 730.557C711.141 734.56 709.023 741.341 706.334 744.477L705.331 744.275C703.952 745.959 702.874 748.15 701.157 749.463Z"/>
	<path fill="#010001" d="M717.659 657.44C716.62 657.687 716.141 658.029 715.335 658.72L714.031 658.357C713.438 657.205 713.224 656.547 713.561 655.245C713.965 653.679 715.171 652.063 716.66 651.41C717.26 651.147 717.612 651.318 718.228 651.418C719.683 652.843 720.128 655.551 720.134 657.533C720.137 658.831 719.612 659.667 718.711 660.559L717.659 657.44Z"/>
	<path fill="#040116" d="M792.588 798.265L793.588 801.677L793.641 800.911C794.453 806.604 793.096 811.886 791.425 817.295C791.565 815.534 791.749 813.753 791.797 811.988C791.848 810.131 792.083 809.412 790.817 808.056Q791.745 803.168 792.588 798.265Z"/>
	<path fill="#020008" d="M792.334 775.464C791.124 774.387 790.741 773.745 790.159 772.233C790.292 770.862 790.399 770.744 791.272 769.664C792.484 769.232 792.689 769.085 793.919 769.383L794.499 770.387C794.413 771.357 794.274 771.897 793.701 772.675C793.53 772.908 793.353 773.135 793.178 773.365L792.334 775.464Z"/>
	<path fill="#9F8BE8" d="M130.082 471.677C135.763 475.102 140.981 480.683 146.032 484.996C151.631 489.777 157.803 494.174 163.946 498.231C187.774 513.968 212.479 528.218 234.789 546.196C245.797 555.067 255.226 565.627 264.379 576.347Q275.787 589.564 286.142 603.621Q296.496 617.679 305.734 632.494C314.751 647.187 322.712 662.651 330.859 677.84C324.228 685.755 315.577 691.805 312.1 701.923C313.769 708.789 316.796 715.357 319.197 721.996C321.351 727.953 323.008 734.142 324.777 740.224C331.265 762.53 334.91 784.73 338.694 807.589L338.742 808.207C332.828 791.781 326.431 774.795 318.975 759.006C306.329 732.226 291.388 707.466 275.698 682.429C252.426 645.291 228.266 606.358 192.992 579.267C182.994 571.588 171.684 564.8 160.381 559.231C154.223 556.197 147.821 553.654 141.731 550.485C132.011 545.428 123.023 539.197 113.574 533.674C121.341 513.774 124.446 492.189 130.082 471.677Z"/>
	<path fill="#9F8BE8" d="M734.354 214.25L830.462 214.159L830.475 243.781C812.934 243.263 795.301 243.59 777.75 243.582L680.015 243.671L680.03 214.402Q707.192 214.181 734.354 214.25Z"/>
	<path fill="#9F8BE8" d="M662.618 510.407C661.964 508.546 663.441 506.31 664.295 504.555C666.239 500.559 668.787 494.787 671.818 491.644C673.631 489.763 675.811 488.507 677.732 486.796C679.912 484.854 681.714 482.617 684.035 480.81L684.985 481.166L684.49 480.555L684.864 481.509L684.935 480.947C675.327 490.364 673.095 496.802 669.097 509.242C668.198 512.041 666.917 514.721 666.119 517.554C664.834 522.119 664.361 528.033 663.996 532.809C661.735 558.087 662.309 571.764 668.584 596.493C671.412 607.637 676.169 617.773 680.302 628.427C683.236 635.99 685.83 644.054 688.119 651.842C697.185 682.677 691.427 717.377 676.969 745.586C674.338 750.72 671.695 755.848 668.223 760.476C664.023 766.154 660.005 772.317 655.357 777.617C652.121 781.307 648.286 784.52 644.864 788.042C642.657 790.314 640.525 793.102 638.078 795.078C636.368 797.789 627.931 806.123 625.015 807.102C618.805 813.18 610.83 817.797 603.464 822.327C601.164 823.699 598.909 825.318 596.253 825.845C594.934 825.519 594.999 825.561 594.255 824.423C594.359 823.366 594.361 823.157 595.127 822.361C598.259 819.105 602.429 816.49 605.813 813.452C611.534 808.318 616.864 802.5 622.332 797.084C642.991 775.709 670.144 732.664 677.653 703.807C679.338 697.33 679.298 690.97 679.959 684.385C680.359 657.743 670.392 639.196 661.943 615.113C659.227 607.371 657.582 599.279 654.895 591.569L654.222 591.686C653.454 590.88 653.516 590.301 653.447 589.243C653.287 586.791 652.328 584.282 651.973 581.778C650.797 573.496 648.025 550.262 650.56 543.559C652.35 538.828 651.169 532.221 655.527 528.552L656.322 529.864C657.867 523.243 660.335 516.807 662.618 510.407Z"/>
	<path fill="#020008" d="M662.586 526.499C663.585 528.034 663.732 528.945 663.857 530.749L663.996 532.809C661.735 558.087 662.309 571.764 668.584 596.493C671.412 607.637 676.169 617.773 680.302 628.427C683.236 635.99 685.83 644.054 688.119 651.842C697.185 682.677 691.427 717.377 676.969 745.586C674.338 750.72 671.695 755.848 668.223 760.476C664.023 766.154 660.005 772.317 655.357 777.617C652.121 781.307 648.286 784.52 644.864 788.042C642.657 790.314 640.525 793.102 638.078 795.078C636.368 797.789 627.931 806.123 625.015 807.102C618.805 813.18 610.83 817.797 603.464 822.327L604.887 820.185Q604.001 819.669 603.109 819.162C609.163 816.989 614.786 811.755 620.186 808.229C625.975 802.273 633.587 796.586 639.788 790.748C642.511 786.915 646.928 783.228 650.114 779.607C654.715 774.378 658.723 768.764 663.154 763.424C666.066 758.049 669.655 752.96 672.651 747.601C678.004 738.028 682.05 727.664 685.226 717.172C688.517 706.295 689.852 695.075 689.685 683.733C689.166 648.481 673.467 625.355 664.914 593.116Q663.856 589.051 663.023 584.933Q662.19 580.816 661.584 576.659Q660.978 572.502 660.601 568.318Q660.224 564.134 660.077 559.936Q659.931 555.738 660.015 551.538Q660.099 547.338 660.413 543.148Q660.727 538.959 661.271 534.794Q661.815 530.628 662.586 526.499Z"/>
	<path fill="#020008" d="M679.959 684.385C680.242 686.888 679.978 689.685 681.023 691.986L681.882 692.616C681.099 723.196 645.696 776.96 624.531 798.444C624.477 798.498 624.414 798.542 624.356 798.59C623.657 797.564 623.41 797.596 622.332 797.084C642.991 775.709 670.144 732.664 677.653 703.807C679.338 697.33 679.298 690.97 679.959 684.385Z"/>
	<path fill="#010001" d="M654.895 591.569C653.748 585.172 650.807 577.033 652.042 570.534C652.296 569.196 652.658 569.157 653.732 568.413Q654.636 578.234 656.664 587.886Q658.691 597.538 661.815 606.893C670.451 633.29 687.642 664.031 681.882 692.616L681.023 691.986C679.978 689.685 680.242 686.888 679.959 684.385C680.359 657.743 670.392 639.196 661.943 615.113C659.227 607.371 657.582 599.279 654.895 591.569Z"/>
	<defs>
		<linearGradient id="gradient_4" gradientUnits="userSpaceOnUse" x1="654.91193" y1="549.90765" x2="650.39746" y2="550.15857">
			<stop offset="0" stop-color="#000008"/>
			<stop offset="1" stop-color="#0A002A"/>
		</linearGradient>
	</defs>
	<path fill="url(#gradient_4)" d="M654.895 591.569L654.222 591.686C653.454 590.88 653.516 590.301 653.447 589.243C653.287 586.791 652.328 584.282 651.973 581.778C650.797 573.496 648.025 550.262 650.56 543.559C652.35 538.828 651.169 532.221 655.527 528.552L656.322 529.864C653.798 541.998 652.055 556.044 653.732 568.413C652.658 569.157 652.296 569.196 652.042 570.534C650.807 577.033 653.748 585.172 654.895 591.569Z"/>
	<path fill="#040116" d="M662.618 510.407C661.964 508.546 663.441 506.31 664.295 504.555C666.239 500.559 668.787 494.787 671.818 491.644C673.631 489.763 675.811 488.507 677.732 486.796C679.912 484.854 681.714 482.617 684.035 480.81L684.985 481.166L684.49 480.555L684.864 481.509L684.935 480.947C675.327 490.364 673.095 496.802 669.097 509.242C668.198 512.041 666.917 514.721 666.119 517.554C664.834 522.119 664.361 528.033 663.996 532.809L663.857 530.749C663.732 528.945 663.585 528.034 662.586 526.499Q663.022 523.062 663.695 519.664Q664.369 516.266 665.278 512.924Q666.187 509.581 667.327 506.309Q668.466 503.038 669.831 499.854C671.252 496.597 673.171 493.561 674.466 490.271L674.093 490.27C669.298 496.362 665.869 503.409 662.618 510.407Z"/>
	<path fill="#010001" d="M622.332 797.084C623.41 797.596 623.657 797.564 624.356 798.59C617.692 806.003 610.409 812.419 603.109 819.162Q604.001 819.669 604.887 820.185L603.464 822.327C601.164 823.699 598.909 825.318 596.253 825.845C594.934 825.519 594.999 825.561 594.255 824.423C594.359 823.366 594.361 823.157 595.127 822.361C598.259 819.105 602.429 816.49 605.813 813.452C611.534 808.318 616.864 802.5 622.332 797.084Z"/>
	<path fill="#9F8BE8" d="M504.501 214.249L635.074 214.382L634.995 243.671L627.75 243.678C587.046 243.659 546.277 244.169 505.582 243.611C502.485 241.223 499.258 239.126 496.426 236.405L496.37 214.369L504.501 214.249Z"/>
	<path fill="#9F8BE8" d="M728.825 503.384L728.635 502.879C727.733 500.528 720.551 486.514 720.702 485.79C725.048 491.359 728.256 498.191 732.053 504.174C733.769 504.269 734.281 504.093 735.456 505.471C736.879 507.14 739.932 511.346 739.811 513.569C765.876 562.533 800.568 595.964 805.167 654.553C805.733 661.767 804.81 669.09 804.821 676.315C804.324 675.985 804.406 676.183 804.322 675.909L803.896 675.555C803.82 676.847 804.054 677.662 804.403 678.915C805.776 683.85 803.757 696.92 802.942 702.356C801.208 705.422 798.34 718.983 796.185 719.74L795.737 719.585C793.68 724.732 791.399 730.612 790.187 735.996C788.844 738.955 787.626 742.335 785.871 745.053C786.201 741.403 787.692 737.399 788.568 733.807C790.799 724.664 793.021 714.986 793.4 705.56C793.22 704.201 792.911 702.862 792.679 701.511C791.874 696.838 791.15 675.199 792.208 670.903C792.429 670.005 792.986 669.266 793.507 668.523C793.595 665.491 792.985 661.923 792.198 659.005C790.177 657.896 789.809 656.235 789.151 654.165C784.004 637.968 781.002 621.601 774.083 605.898C768.179 592.499 761.491 579.442 755.156 566.247C751.291 558.196 747.813 549.964 743.932 541.926C739.407 532.558 734.773 523.508 730.798 513.874C729.915 511.733 728.572 509.239 728.062 507.007C727.702 505.431 728.088 504.757 728.825 503.384Z"/>
	<path fill="#010001" d="M737.162 513.133C738.519 512.733 738.524 512.923 739.811 513.569C765.876 562.533 800.568 595.964 805.167 654.553C805.733 661.767 804.81 669.09 804.821 676.315C804.324 675.985 804.406 676.183 804.322 675.909L803.896 675.555C803.82 676.847 804.054 677.662 804.403 678.915C805.776 683.85 803.757 696.92 802.942 702.356C801.208 705.422 798.34 718.983 796.185 719.74L795.737 719.585C800.769 702.303 802.686 685.191 802.618 667.225C802.366 600.57 764.834 568.079 737.162 513.133Z"/>
	<path fill="#010001" d="M728.825 503.384C737.717 520.912 745.383 539.255 753.703 557.077C766.265 583.987 780.112 609.601 787.868 638.466C789.657 645.125 791.461 652.143 792.198 659.005C790.177 657.896 789.809 656.235 789.151 654.165C784.004 637.968 781.002 621.601 774.083 605.898C768.179 592.499 761.491 579.442 755.156 566.247C751.291 558.196 747.813 549.964 743.932 541.926C739.407 532.558 734.773 523.508 730.798 513.874C729.915 511.733 728.572 509.239 728.062 507.007C727.702 505.431 728.088 504.757 728.825 503.384Z"/>
	<path fill="#020008" d="M793.507 668.523C794.951 679.24 795.684 695.114 793.4 705.56C793.22 704.201 792.911 702.862 792.679 701.511C791.874 696.838 791.15 675.199 792.208 670.903C792.429 670.005 792.986 669.266 793.507 668.523Z"/>
	<path fill="#0E022C" d="M732.053 504.174C733.769 504.269 734.281 504.093 735.456 505.471C736.879 507.14 739.932 511.346 739.811 513.569C738.524 512.923 738.519 512.733 737.162 513.133C735.172 510.381 733.661 507.167 732.053 504.174Z"/>
	<path fill="#9F8BE8" d="M110.697 538.893C116.021 541.162 121.208 545.22 126.205 548.231C133.657 552.722 141.302 556.732 149.085 560.614C148.012 568.742 147.63 576.941 146.908 585.106C113.671 580.175 82.4353 590.334 52.9405 604.406C43.6401 608.981 35.0478 614.726 26.0729 619.874C36.7299 605.597 50.4987 592.891 63.3592 580.62C78.5544 566.122 93.8668 551.491 110.697 538.893Z"/>
	<path fill="#9F8BE8" d="M154.392 562.468C155.589 563 156.748 563.578 157.912 564.177C189.927 580.659 206.284 596.011 228.528 624.005C231.421 627.645 237.961 634.597 239.302 638.776L238.656 638.966C233.355 635.153 228.494 630.439 223.402 626.32C202.499 609.415 179.319 591.611 152.442 586.213C153.323 578.328 153.564 570.369 154.392 562.468Z"/>
	<path fill="#0E022C" d="M333.511 551.765C334.111 552.19 362.68 596.452 363.038 597.439C360.657 598.45 354.562 596.152 351.814 595.873C340.129 594.685 328.332 605.857 320.302 612.86C315.844 616.868 311.84 621.385 307.747 625.76Q304.098 619.791 300.315 613.907C308.365 610.131 316.372 604.64 322.173 597.852C333.954 584.069 334.808 569.104 333.511 551.765Z"/>
	<path fill="#0E022C" d="M499.683 431.555C500.601 431.424 501.489 431.459 502.414 431.494C515.218 431.98 527.908 439.025 536.373 448.381C538.032 450.215 539.852 453.035 539.48 455.656C539.255 457.247 537.808 458.275 536.68 459.291C534.493 460.851 532.141 462.07 529.78 463.339C524.521 455.162 518.329 446.931 510.892 440.604C507.294 437.543 502.763 435.12 499.683 431.555Z"/>
	<path fill="#0E022C" d="M133.891 470.931C139.65 471.173 145.787 472.568 151.418 473.845C155.519 474.775 176.203 479.266 177.955 482.038C177.515 484.306 174.512 486.049 172.723 487.346Q168.798 489.587 165.006 492.047C154.875 484.699 143.97 478.436 133.891 470.931Z"/>
	<path fill="#0E022C" d="M479.003 598.626C480.547 598.525 481.796 598.412 483.295 598.92C484.312 601.577 483.664 605.726 483.8 608.636C484.158 616.308 486.2 623.567 489.581 630.424C487.489 630.058 485.333 629.924 483.22 629.713C480.233 628.495 476.71 627.723 474.324 625.451C473.638 624.798 472.798 624.014 472.833 623.001C472.984 618.717 475.045 603.365 477.156 600.18C477.487 599.681 478.513 599.038 479.003 598.626Z"/>
	<path fill="#9F8BE8" d="M659.041 462.602C661.417 462.26 663.857 462.442 666.233 462.714C673.137 463.503 699.867 469.067 704.213 474.539C702.696 475.014 701.555 475.057 700.018 474.715C693.973 473.371 687.912 470.535 682.058 468.462Q670.794 464.57 659.041 462.602Z"/>
	<path fill="#010001" d="M790.187 735.996C791.533 738.533 790.057 741.919 789.298 744.59C787.061 749.364 783.51 755.612 779.255 758.816L778.317 758.904C777.651 756.189 781.528 748.193 783.266 745.856C783.676 745.305 783.799 745.238 784.261 744.855L784.619 745.463C785.116 746.29 784.898 745.968 785.454 746.68C785.647 746.112 785.81 745.653 785.871 745.053C787.626 742.335 788.844 738.955 790.187 735.996Z"/>
	<path fill="#040116" d="M795.737 719.585L796.185 719.74C798.34 718.983 801.208 705.422 802.942 702.356C801.969 710.119 793.517 738.751 789.298 744.59C790.057 741.919 791.533 738.533 790.187 735.996C791.399 730.612 793.68 724.732 795.737 719.585Z"/>
</svg>
