<?xml version="1.0" encoding="utf-8" ?>
<svg xmlns="http://www.w3.org/2000/svg" xmlns:xlink="http://www.w3.org/1999/xlink" width="1024" height="1024">
	<path fill="#D7CCF6" d="M0 0L328.054 0L335.063 0L681.253 0L820.176 0L824.255 0L851.892 0L855.788 0L962.864 0L968.403 0L1024 0L1024 1024L953.098 1024L946.68 1024L534.19 1024L522.339 1024L504.44 1024L493.36 1024L467.452 1024L254.165 1024L243.736 1024L164.788 1024L155.806 1024L128.146 1024L120.725 1024L21.4478 1024L13.0495 1024L0 1024L0 0Z"/>
	<path d="M0 0L328.054 0L335.063 0C338.814 28.9362 339.066 59.0661 338.905 88.2459C338.843 99.55 338.334 110.928 338.58 122.222C382.562 118.096 422.748 128.54 462.011 147.773Q470.031 151.661 477.807 156.017Q485.583 160.373 493.087 165.182Q500.592 169.991 507.798 175.235Q515.005 180.48 521.888 186.142C533.178 195.479 542.984 206.371 554.269 215.69C565.828 225.234 582.916 235.476 592.486 245.805C596.653 250.303 600.56 255.918 601.2 262.17C601.866 268.683 598.458 274.572 595.302 279.986C601.152 290.935 605.04 304.291 601.315 316.555Q601.052 317.42 600.748 318.271Q600.443 319.122 600.097 319.957Q599.751 320.792 599.365 321.609Q598.978 322.426 598.552 323.223Q598.126 324.02 597.661 324.795Q597.196 325.57 596.694 326.322Q596.192 327.073 595.654 327.799Q595.116 328.525 594.542 329.224Q593.969 329.923 593.362 330.593Q592.755 331.263 592.116 331.902Q591.478 332.541 590.808 333.148Q590.139 333.755 589.44 334.329Q588.742 334.903 588.016 335.441Q587.29 335.98 586.539 336.483Q585.788 336.985 585.013 337.45Q584.238 337.915 583.441 338.342C579.168 340.588 574.536 341.744 569.881 342.918C569.96 348.774 570.637 355.637 575.079 359.993C576.876 361.755 581.313 363.195 582.317 365.114C580.947 367.014 579.47 367.794 577.147 368.166C569.476 369.396 560.459 368.092 554.18 363.331C552.967 362.411 551.928 361.351 550.909 360.227C538.286 375.239 529.853 388.126 531.533 408.556C532.356 418.578 535.741 428.383 540.238 437.32C542.091 441 544.323 444.622 545.821 448.452C544.117 453.827 541.651 457.071 536.553 459.791C530.277 463.139 512.23 465.83 510.023 472.677C507.63 480.107 517.286 486.422 506.905 492.154C504.803 493.314 502.541 494.163 500.301 495.011C498.692 500.521 497.777 504.188 493.65 508.313C493.577 508.547 493.463 508.773 493.432 509.016C493.407 509.218 493.477 509.421 493.483 509.625C493.556 512.006 492.02 514.967 490.31 516.566C486.846 519.804 481.681 519.588 478.696 523.69C472.105 532.751 477.315 547.823 464.224 558.058C459.224 561.966 453.137 562.992 446.958 562.501C424.496 560.715 398.669 543.483 376.949 536.681C363.513 541.874 355.123 554.268 349.217 566.83C363.081 577.899 376.991 589.243 389.559 601.78C410.815 622.983 443.531 664.298 446.845 694.897C448.085 706.349 444.578 718.888 437.293 727.862C434.998 730.689 432.451 732.89 429.374 734.855C440.939 761.547 450.777 788.359 459.877 815.98C462.46 823.819 465.774 831.613 467.895 839.573Q484.235 888.336 501.982 936.606C508.443 954.641 514.388 974.133 521.829 991.645C525.907 1002.43 529.81 1013.34 534.19 1024L522.339 1024L504.44 1024L493.36 1024L467.452 1024L254.165 1024L243.736 1024L164.788 1024L155.806 1024L128.146 1024L120.725 1024L21.4478 1024L13.0495 1024L0 1024L0 0Z"/>
	<path fill="#9F8BE8" d="M0 0L328.054 0C332.08 41.2657 330.813 82.4202 331.428 123.777C318.953 126.149 306.902 128.902 295.007 133.442C261.78 146.123 230.854 171.318 210.883 200.666C197.841 219.831 188.633 240.871 182.68 263.226C173.09 267.928 167.312 276.814 163.946 286.719C157.412 305.947 159.704 328.017 168.687 346.049Q171.94 352.645 176.203 358.637C181.972 366.709 197.683 383.381 193.889 394.098C192.765 397.273 190.02 399.967 186.988 401.352C181.542 403.84 173.677 402.977 168.174 400.858C164.51 399.447 158.313 393.872 155.558 393.729C154.677 394.672 154.491 395.236 154.502 396.549C154.553 402.675 159.841 409.08 164.276 412.954C171.066 418.887 179.028 422.156 187.864 423.589C185.5 424.095 183.171 424.532 180.739 424.476C177.153 424.393 171.876 422.425 168.694 424.324C168.008 425.522 167.727 426.122 168.025 427.521C169.222 433.142 175.37 437.956 179.993 440.922C179.995 446.674 181.04 450.828 185.265 455.062C188.873 458.677 193.378 461.079 197.953 463.226C198.522 468.752 200.764 472.593 203.519 477.257C191.04 471.59 179.039 464.903 166.23 459.954C157.683 456.651 148.444 454.092 139.292 453.3C117.898 451.448 93.5066 458.096 73.5219 465.618C68.2153 467.615 58.4843 470.572 55.588 475.683C52.6252 480.912 47.9527 514.707 45.8998 523.535Q40.0632 549.521 32.748 575.13C27.3839 593.288 20.0506 612.226 17.6837 631.04C16.3807 641.397 17.3235 651.391 21.2332 661.089C27.7331 677.211 39.5091 694.44 55.114 702.795C49.4816 722.756 45.4073 743.212 41.2318 763.525C36.2169 787.921 31.324 812.428 27.7258 837.078Q19.2574 897.14 16.2043 957.719C14.8866 979.734 13.1276 1001.94 13.0495 1024L0 1024L0 0Z"/>
	<path fill="#9F8BE8" d="M64.3582 702.852C111.06 689.189 156.52 670.047 204.613 661.355C217.636 659.001 230.567 657.945 243.742 657.019C249.995 664.926 256.488 672.624 262.785 680.491C266.818 685.53 270.644 690.817 274.843 695.712C238.349 718.174 206.443 785.109 196.732 826.031C182.423 886.325 196.318 945.169 228.363 997.226C234.609 1007.37 240.181 1011.94 243.736 1024L164.788 1024L155.806 1024L128.146 1024L120.725 1024L21.4478 1024C23.935 979.892 26.3045 935.339 31.1405 891.433C35.9858 847.442 43.3917 804.368 52.0604 761.005C55.9232 741.683 59.3971 721.917 64.3582 702.852Z"/>
	<path d="M115.055 802.788C118.858 813.568 119.9 825.927 121.785 837.182Q125.574 859.469 129.946 881.65Q136.817 917.663 145.533 953.274Q154.249 988.885 164.788 1024L155.806 1024L128.146 1024L120.725 1024C117.808 1009.11 116.858 993.171 115.626 978.036Q112.988 943.086 112.279 908.043Q111.57 873 112.793 837.972C113.206 826.578 112.641 813.941 115.055 802.788Z"/>
	<path fill="#9F8BE8" d="M128.146 1024C123.379 987.014 121.138 950.047 119.649 912.822C118.969 895.807 117.713 878.516 118.375 861.491L119.03 860.914L118.683 859.616C118.132 861.705 121.963 880.674 122.639 884.241C125.19 897.695 127.411 911.197 130.183 924.612Q136.031 952.131 143.034 979.379C146.761 994.238 150.381 1009.67 155.806 1024L128.146 1024Z"/>
	<path fill="#9F8BE8" d="M235.913 992.834C210.004 952.399 196.196 899.135 201.897 851.25C206.976 808.581 227.407 766.309 252.085 731.644C258.441 722.715 265.24 713.129 273.926 706.343C285.9 696.987 298.957 696.098 313.432 697.922C322.914 709.911 330.279 723.355 337.657 736.684C368.345 792.128 389.417 852.838 415.187 910.732Q431.418 948.127 448.744 985.027Q454.783 997.902 461.025 1010.68C463.143 1015.04 465.705 1019.5 467.452 1024L254.165 1024C247.742 1003.35 241.394 983.003 236.884 961.813Q232.412 940.282 229.293 918.513C228.236 911.105 227.755 903.434 226.324 896.104C225.797 893.405 225.083 890.226 223.456 887.985L222.904 888.121C221.349 893.522 222.331 901.587 222.603 907.194C224.109 938.303 228.383 962.835 235.913 992.834Z"/>
	<path fill="#D7CCF6" d="M313.432 697.922Q315.183 698.274 316.926 698.669Q318.668 699.064 320.4 699.502Q322.132 699.94 323.852 700.421Q325.573 700.901 327.281 701.424Q328.989 701.947 330.684 702.512Q332.378 703.077 334.059 703.683Q335.739 704.29 337.404 704.938Q339.068 705.586 340.717 706.274Q342.365 706.963 343.996 707.692Q345.627 708.421 347.239 709.191Q348.851 709.96 350.444 710.769Q352.037 711.577 353.609 712.425Q355.182 713.273 356.733 714.16Q358.284 715.046 359.812 715.97Q361.341 716.895 362.846 717.857Q364.351 718.819 365.832 719.817Q367.314 720.816 368.77 721.851Q370.226 722.886 371.656 723.957Q373.086 725.027 374.489 726.133Q375.892 727.238 377.268 728.378Q378.643 729.518 379.99 730.692Q381.337 731.865 382.654 733.072Q383.972 734.278 385.259 735.516Q386.547 736.755 387.803 738.025Q389.059 739.295 390.284 740.595Q391.509 741.896 392.701 743.226Q393.893 744.557 395.052 745.916Q396.211 747.275 397.336 748.663Q398.461 750.051 399.552 751.466Q400.642 752.88 401.697 754.322Q402.753 755.763 403.772 757.23Q404.791 758.697 405.774 760.189C419.879 781.433 427.507 805.705 434.868 829.905C440.443 848.231 445.543 866.658 450.739 885.093Q464.579 935.913 480.6 986.088C484.623 998.548 487.95 1012.09 493.36 1024L467.452 1024C465.705 1019.5 463.143 1015.04 461.025 1010.68Q454.783 997.902 448.744 985.027Q431.418 948.127 415.187 910.732C389.417 852.838 368.345 792.128 337.657 736.684C330.279 723.355 322.914 709.911 313.432 697.922Z"/>
	<path fill="#D7CCF6" d="M368.791 690.191C387.613 700.203 405.879 713.773 417.538 731.912C425.014 743.541 429.295 756.737 434.035 769.628C443.615 795.682 451.748 822.251 460.408 848.625C471.707 883.039 483.979 917.035 495.982 951.201C504.522 975.509 512.423 1000.21 522.339 1024L504.44 1024C502.133 1012.94 497.62 1001.98 493.935 991.283Q485.103 966.219 477.091 940.88C460.296 888.19 446.382 834.323 426.377 782.738C420.734 768.186 415.256 753.823 408.034 739.954Q406.176 736.43 404.16 732.994Q402.144 729.558 399.972 726.218Q397.801 722.878 395.48 719.641Q393.158 716.403 390.691 713.275Q388.225 710.147 385.618 707.135Q383.011 704.123 380.269 701.233Q377.527 698.343 374.656 695.581Q371.785 692.819 368.791 690.191Z"/>
	<path fill="#4B3C7A" d="M186.655 268.632C193.934 245.279 203.25 225.948 217.821 206.301C247.079 166.852 286.861 140.46 335.922 133.292C347.006 131.673 358.297 130.59 369.505 131.018C419.997 132.948 473.132 157.485 512.522 188.163C528.393 200.524 541.901 215.742 558.042 227.755C568.406 234.883 588.487 246.317 592.651 258.086C596.721 269.587 583.187 287.108 576.041 295.437C571.845 300.329 565.843 305.461 563.14 311.321C562.598 312.496 562.618 312.637 563.035 313.792C564.356 314.268 565.29 314.073 566.56 313.576C575.215 310.191 587.917 293.9 591.703 285.56C593.51 290.579 595.167 295.663 595.735 300.993C596.596 309.09 595.188 317.175 589.827 323.588C583.673 330.951 574.973 333.512 565.794 334.414Q563.125 329.142 560.529 323.833C559.26 321.195 557.845 318.021 557.787 315.065C557.651 308.088 563.276 299.362 565.581 292.684C571.306 276.09 573.914 255.593 564.38 239.865C562.253 236.355 557.032 231.796 555.842 228.831C555.772 228.657 555.74 228.469 555.689 228.288C554.581 227.119 553.897 226.33 552.265 225.926L551.475 226.324C551.115 227.441 550.901 227.808 551.358 228.963C552.71 232.383 556.057 235.858 557.877 239.212C562.832 248.343 561.918 260.586 561.399 270.573C562.053 289.03 549.889 304.263 550.285 317.864C550.411 322.21 551.757 325.749 553.547 329.64L553.076 329.931L549.397 325.437C522.809 313.991 502.16 276.296 497.705 248.653C496.886 243.575 497.508 238.223 497.275 233.08C496.603 218.255 492.447 201.061 484.117 188.553C483.179 187.144 481.908 185.373 480.158 185.018C478.886 187.658 482.778 196.07 483.766 199.088Q484.685 201.914 485.459 204.783Q486.233 207.652 486.862 210.556Q487.49 213.46 487.971 216.393Q488.451 219.325 488.783 222.278Q489.115 225.231 489.297 228.197Q489.479 231.163 489.51 234.134Q489.542 237.105 489.423 240.075Q489.305 243.044 489.036 246.003C485.415 282.039 462.863 317.238 433.487 337.99C423.252 345.22 410.799 349.924 401.224 357.867C393.329 364.415 389.021 373.847 388.166 383.978C387.037 397.34 391 410.253 399.679 420.441C389.757 417.344 385.508 415.252 377.236 408.941L372.37 410.145C342.629 390.56 358.142 356.325 337.058 331.204C330.041 322.843 319.296 314.777 308.041 313.967C302.148 313.542 296.928 315.438 292.462 319.256C271.773 336.942 281.781 374.063 292.729 394.214C295.954 400.149 299.448 406.041 303.182 411.668C306.464 416.616 310.519 421.563 312.904 427.019C315.332 432.576 315.629 439.859 315.086 445.816C313.828 459.628 306.956 471.812 296.276 480.57C279.275 494.511 260.472 495.68 239.496 493.489C245.834 492.731 252.088 492.376 258.187 490.32Q259.228 489.967 260.25 489.562Q261.272 489.157 262.272 488.701Q263.273 488.245 264.249 487.74Q265.226 487.235 266.175 486.681Q267.125 486.127 268.046 485.527Q268.967 484.926 269.856 484.28Q270.746 483.634 271.602 482.944Q272.458 482.254 273.278 481.523Q274.098 480.791 274.881 480.019Q275.663 479.247 276.406 478.436Q277.149 477.626 277.851 476.779Q278.552 475.933 279.21 475.052Q279.868 474.171 280.481 473.259Q281.094 472.346 281.66 471.404Q282.227 470.462 282.745 469.492Q283.264 468.523 283.733 467.529C290.835 452.774 289.334 435.782 283.874 420.775C283.046 418.5 282.389 416.266 280.077 415.19C279.15 416.492 280.469 419.766 280.866 421.279C282.947 429.21 283.889 437.497 283.042 445.69C281.879 456.95 276.96 467.636 268.029 474.789C257.738 483.03 244.818 485.275 231.965 483.702C219.011 482.116 212.584 475.601 204.854 465.815C214.296 467.097 223.457 467.59 232.487 464.028C241.618 460.426 252.335 452.632 255.895 443.106C256.307 442.001 256.469 441.386 255.97 440.285C255.607 440.22 255.236 439.985 254.883 440.089C254.252 440.276 244.655 451.418 240.994 453.574C230.6 459.695 217.685 461.896 205.993 458.577C196.946 456.009 189.652 451.932 184.937 443.604C190.022 444.678 202.509 446.884 207.177 444.116C208.338 443.427 208.382 443.122 208.755 441.908C206.928 439.598 200.985 440.365 198.142 440.038C196.034 439.796 193.814 439.098 191.799 438.438C185.091 436.24 179.977 432.241 174.933 427.427C177.007 427.515 179.103 427.606 181.176 427.454C186.75 427.045 208.326 421.353 211.251 417.407C211.728 416.763 211.506 416.406 211.429 415.666C209.402 414.42 199.79 418.221 195.141 418.261C183.987 418.359 173.966 412.701 166.253 405.062C169.654 406.708 172.814 407.861 176.564 408.442C182.531 409.366 188.566 409.392 193.585 405.587C214.462 389.758 184.523 361.853 176.814 346.214C170.12 332.632 166.993 317.349 169.186 302.302C171.068 289.386 175.979 276.673 186.655 268.632Z"/>
	<path fill="#FEFDFE" d="M556.429 252.142C558.554 258.214 560.261 264.235 561.399 270.573C562.053 289.03 549.889 304.263 550.285 317.864C550.411 322.21 551.757 325.749 553.547 329.64L553.076 329.931L549.397 325.437C548.681 323.13 547.818 320.716 547.688 318.29C547.17 308.696 553.812 295.197 555.623 285.044C557.573 274.111 557.471 263.151 556.429 252.142Z"/>
	<path d="M420.581 159.745C420.771 159.797 420.966 159.834 421.151 159.9C424.004 160.922 425.976 164.17 427.271 166.728C433.179 178.391 433.588 193.885 429.593 206.174C421.161 232.11 396.978 246.065 371.694 252.264C355.515 256.23 338.958 257.618 322.706 260.989C309.856 263.655 296.994 267.562 285.33 273.627C256.093 288.828 234.631 317.184 224.716 348.29C224.068 349.363 223.966 349.705 222.868 350.264L222.343 349.802C221.649 347.796 221.944 346.178 222.106 344.113C222.177 343.212 222.228 342.319 222.36 341.424C224.212 328.843 235.517 307.149 243.589 297.371C262.989 273.872 289.464 260.501 318.788 254.001C333.443 250.752 348.322 248.635 362.895 244.982C376.746 241.511 390.615 236.655 402.239 228.15C419.407 215.589 428.762 193.928 424.166 172.838C423.355 169.113 420.056 163.108 420.581 159.745Z"/>
	<path d="M456.513 244.273C458.003 245.986 458.002 248.225 458.048 250.454C458.511 272.954 444.269 300.844 428.969 316.729C416.459 329.718 398.841 341.795 380.103 341.946C367.764 342.045 357.567 335.457 349.102 327.038C348.119 325.93 346.845 324.681 346.149 323.382C345.744 322.626 345.646 322.465 345.919 321.64C349.255 321.361 355.769 327.45 358.835 329.231Q362.729 331.53 367.032 332.92C378.247 336.457 390.867 333.037 400.947 327.742C423.883 315.694 441.184 291.747 449.836 267.782C452.582 260.176 453.978 252.405 456.361 244.751L456.513 244.273Z"/>
	<path d="M242.065 230.322L242.92 230.791L243.143 231.581C240.684 235.79 233.685 241 230.032 244.607Q227.677 246.907 225.445 249.327Q223.213 251.746 221.109 254.278Q219.006 256.811 217.037 259.449Q215.069 262.088 213.24 264.825Q211.412 267.562 209.728 270.391Q208.044 273.22 206.51 276.132Q204.976 279.045 203.596 282.033Q202.215 285.022 200.992 288.078C197.705 296.497 194.695 305.674 193.364 314.614Q192.288 321.733 192.071 328.93C191.956 333.207 193.012 341.158 191.908 344.968C191.813 345.297 191.547 345.548 191.366 345.838L189.793 345.995C188.619 343.162 188.208 339.735 187.781 336.712Q187.382 333.95 187.145 331.169Q186.909 328.388 186.837 325.598Q186.764 322.808 186.856 320.018Q186.948 317.229 187.204 314.449Q187.459 311.67 187.878 308.911Q188.297 306.151 188.877 303.421Q189.457 300.691 190.197 298Q190.936 295.309 191.833 292.666C198.586 272.488 210.197 255.969 226.001 241.887C230.939 237.487 236.11 233.263 242.065 230.322Z"/>
	<path fill="#D7CCF6" d="M493.53 262.77C496.83 275.394 500.79 286.436 507.579 297.705C518.166 315.277 534.988 329.911 555.127 334.917L553.076 329.931L553.547 329.64C554.672 332.099 555.806 334.54 556.736 337.082C553.517 348.86 544.399 356.684 537.201 366.072C519.545 389.101 522.024 418.543 535.815 442.869Q537.979 446.609 540.515 450.108C537.314 452.439 534.301 454.553 530.669 456.147C522.23 459.851 506.09 462.363 503.969 473.123C503.307 476.483 507.49 483.747 504.226 485.788C500.88 487.88 494.161 486.318 490.533 485.248C482.576 482.901 472.427 477.408 467.727 470.325C467.78 469.199 468.052 468.256 468.353 467.176L467.717 466.572C466.238 466.74 465.507 466.909 464.21 467.731C463.515 468.967 463.242 469.59 463.585 471.022C464.231 473.714 466.455 476.001 467.124 478.594C467.101 478.872 467.067 479.149 467.053 479.427C466.748 485.757 473.612 495.639 477.934 499.93C481.162 503.136 486.209 505.577 488.841 509.085C488.444 510.763 487.724 511.635 486.313 512.559C477.963 518.021 472.025 516.563 469.146 528.136C467.223 535.866 467.771 547.542 460.211 552.423C454.699 555.981 446.877 554.784 440.852 553.281C433.364 551.413 419.056 546.735 412.589 542.378C397.177 512.443 394.458 497.316 392.37 464.173C391.754 454.399 390.917 444.567 390.901 434.771C393.616 435.528 396.421 435.807 399.211 436.174C395.411 432.036 391.653 428.706 388.472 423.962C393.871 424.744 399.529 425.791 404.993 425.39C406.616 425.271 408.23 425.156 409.355 423.863C409.326 423.427 409.497 422.927 409.269 422.553C408.657 421.554 406.355 420.072 405.409 419.185Q403.655 417.525 402.156 415.632Q400.657 413.738 399.444 411.65C394.26 402.56 392.991 389.766 395.714 379.738C400.754 361.173 415.356 357.372 430.364 348.679C461.72 330.515 484.324 297.34 493.53 262.77Z"/>
	<path d="M502.369 335.672C503.617 335.502 504.821 335.435 506.081 335.413C515.866 335.241 526.285 336.505 533.576 343.787C535.583 345.792 538.494 349.52 537.993 352.603C537.81 353.735 537.026 354.519 536.001 354.967C531.032 357.141 520.553 350.38 515.429 348.805L514.56 348.543C500.187 343.978 487.371 344.423 472.929 348.192C480.505 340.556 491.996 337.169 502.369 335.672Z"/>
	<path d="M508.864 371.856C509.053 372.149 509.417 372.387 509.431 372.736C509.548 375.555 500.555 391.709 503.221 397.859C505.107 402.208 510.9 398.554 514.052 400.077C514.718 400.399 514.727 401.052 514.952 401.697C513.57 405.244 509.982 403.523 507.638 405.534C508.076 406.668 508.481 407.568 508.374 408.815C507.423 409.523 506.845 409.657 505.643 409.577C496.903 408.995 489.782 402.443 484.364 396.13C481.167 392.402 474.726 384.332 474.854 379.255L475.623 378.942C478.996 380.559 481.9 383.992 484.821 386.367C488.842 389.634 493.101 392.666 497.255 395.764C499.777 387.529 503.206 378.46 508.864 371.856Z"/>
	<path d="M507.184 442.708C508.988 444.196 507.982 447.746 509.884 449.494C512.581 451.972 520.952 450.824 524.574 451.104L524.969 451.625L523.909 452.568C519.112 453.233 512.678 453.422 508.293 451.157C507.008 450.494 505.79 449.377 505.532 447.888C505.194 445.943 506.083 444.211 507.184 442.708Z"/>
	<path fill="#9F8BE8" d="M61.1739 487.458C71.9728 501.572 85.4995 514.198 99.3809 525.234C154.379 568.959 210.097 578.592 274.604 599.487C265.954 605.169 244.457 608.079 233.938 609.69C230.009 610.292 225.107 610.477 221.391 611.849C235.124 613.623 250.256 615.579 262.011 623.372C249.52 619.722 237.504 615.807 224.334 615.345L223.626 615.832C225.16 617.226 237.268 621.248 240.405 622.504C257.197 629.229 273.092 637.693 285.972 650.635C270.321 648.739 254.174 647.752 238.42 648.5C194.728 650.574 149.769 664.17 108.761 678.667C92.0199 684.585 75.2201 690.301 59.0195 697.62C52.6445 692.794 47.468 687.843 42.5714 681.5C34.2567 670.729 25.5416 656.403 24.4867 642.494C23.1056 624.284 31.4807 605.383 37.0922 588.355C40.5672 577.81 43.9708 567.07 46.8989 556.362Q51.6516 539.403 55.2246 522.156Q58.7976 504.91 61.1739 487.458Z"/>
	<path d="M224.334 615.345C219.355 613.602 200.391 615.383 194.594 616.204C187.207 617.249 179.91 619.627 172.567 621.073Q151.131 625.158 129.441 627.548Q118.19 628.68 106.883 628.842Q95.5758 629.004 84.2967 628.195C76.3493 627.556 46.3866 622.436 42.1243 615.717C41.3596 614.511 41.4412 614.205 41.7266 612.908C43.12 612.33 44.1573 612.553 45.5105 613.24C51.2737 616.167 57.003 617.489 63.2748 618.931C98.9058 627.122 136.117 621.333 171.812 616.617L171.523 616.351L170.961 616.641C165.509 615.574 159.26 616.187 153.673 615.898C136.851 615.026 118.338 612.385 102.924 605.338C82.9459 596.204 62.3269 576.43 54.7731 555.512C54.1074 553.669 53.4833 552.044 54.3239 550.199L55.5838 550.003C59.6255 553.899 62.7689 560.635 65.8387 565.425Q70.3333 572.401 75.8793 578.575C94.9318 599.747 118.486 606.919 145.923 609.712C154.923 610.628 164.126 611.31 173.177 611.337C182.796 611.366 192.416 610.864 202.035 610.944C208.478 610.997 214.957 611.495 221.391 611.849C235.124 613.623 250.256 615.579 262.011 623.372C249.52 619.722 237.504 615.807 224.334 615.345Z"/>
	<path fill="#9F8BE8" d="M61.1663 480.051C74.7187 474.004 110.546 463.606 125.698 462.473Q129.229 462.184 132.772 462.199Q136.315 462.214 139.843 462.533Q143.372 462.851 146.86 463.471Q150.349 464.09 153.771 465.006C176.691 471.253 196.792 482.973 217.684 493.806C224.892 497.543 232.452 500.573 239.633 504.371C271.833 521.403 314.767 547.407 341.906 570.858C325.186 578.499 309.027 585.702 291.185 590.434C288.134 591.244 282.212 592.106 279.941 594.177C273.774 592.43 267.702 589.969 261.659 587.824Q247.691 582.853 233.58 578.302C187.699 563.372 147.683 550.36 108.408 520.997C97.6262 512.937 87.8677 504.13 77.905 495.114C72.3395 490.078 66.5498 485.284 61.1663 480.051Z"/>
	<path fill="#D7CCF6" d="M341.906 570.858C376.923 599.88 408.6 632.545 430.63 672.756C434.718 680.219 439.732 688.331 440.521 696.968C441.509 707.773 436.561 719.484 429.553 727.525C428.89 728.286 428.211 729.023 427.486 729.724C423.41 724.156 419.436 718.339 414.618 713.385C391.845 689.968 347.068 668.289 316.14 658.362C306.215 655.177 296.059 653.192 285.972 650.635C273.092 637.693 257.197 629.229 240.405 622.504C237.268 621.248 225.16 617.226 223.626 615.832L224.334 615.345C237.504 615.807 249.52 619.722 262.011 623.372C250.256 615.579 235.124 613.623 221.391 611.849C225.107 610.477 230.009 610.292 233.938 609.69C244.457 608.079 265.954 605.169 274.604 599.487C322.471 615.188 369.306 636.36 405.808 671.949Q412.673 678.671 418.531 686.287C422.014 690.814 425.415 696.119 429.598 700.019C431.038 701.36 432.996 702.327 434.709 703.282C434.323 697.881 433.616 692.783 431.298 687.84C425.202 674.835 412.514 664.308 401.288 655.817C364.791 628.212 322.714 609.744 279.941 594.177C282.212 592.106 288.134 591.244 291.185 590.434C309.027 585.702 325.186 578.499 341.906 570.858Z"/>
	<path fill="#9F8BE8" d="M348.911 393.854C355.001 407.161 362.532 413.966 375.955 419.746C379.951 426.641 382.706 432.088 390.901 434.771C390.917 444.567 391.754 454.399 392.37 464.173C394.458 497.316 397.177 512.443 412.589 542.378C401.934 538.188 381.843 525.416 370.558 528.427C357.448 531.924 347.151 549.773 340.737 560.64C334.937 555.84 328.535 551.545 322.418 547.151C300.306 531.268 277.472 517.371 253.722 504.129C256.147 504.1 258.58 504.073 261.002 503.937C278.529 502.951 295.655 495.02 307.23 481.726C319.294 467.87 322.279 452.09 321.01 434.229C323.527 436.031 325.661 437.085 328.799 437.242C331.896 437.398 334.756 436.347 337.012 434.218C340.869 430.578 341.566 426.098 341.812 421.101C342.221 422.043 342.072 423.517 342.111 424.557L342.489 424.881C342.938 424.443 343.163 424.246 343.55 423.799C350.304 415.987 349.513 403.441 348.911 393.854Z"/>
	<path fill="#D7CCF6" d="M316.33 414.278C307.569 400.585 298.816 386.951 293.871 371.329C290 359.1 287.732 342.318 294.107 330.505C296.146 326.727 299.244 323.609 303.483 322.482C308.525 321.143 314.031 322.839 318.449 325.311C344.73 340.017 341.817 368.896 348.911 393.854C349.513 403.441 350.304 415.987 343.55 423.799C343.163 424.246 342.938 424.443 342.489 424.881L342.111 424.557C342.072 423.517 342.221 422.043 341.812 421.101C341.653 419.384 341.372 417.68 340.798 416.046C339.382 412.017 336.107 407.883 332.209 406.027C329.512 404.743 326.504 404.556 323.727 405.706C319.81 407.329 317.895 410.565 316.33 414.278Z"/>
	<path d="M310.228 346.549C313.079 346.341 315.284 346.365 317.947 347.486C324.796 350.37 328.64 357.577 331.159 364.176C329.727 368.43 327.536 372.357 326.165 376.678C326.219 376.818 326.27 376.959 326.327 377.098C326.421 377.33 326.521 377.559 326.616 377.79C327.867 380.827 329.734 383.19 331.509 385.917C332.926 388.093 335.181 390.901 334.607 393.624C333.554 394.465 333.419 394.209 332.131 394.167C328.606 392.457 325.854 388.296 323.463 385.311C320.812 382.373 317.331 379.148 315.768 375.458C315.008 373.665 314.87 371.797 315.673 369.995C317.229 366.507 322.128 364.072 325.532 362.77C324.51 360.514 323.378 358.221 321.728 356.354C319.135 353.42 315.713 351.539 311.743 351.501C306.173 351.448 302.85 354.717 299.061 358.251C299.442 357.118 299.823 355.976 300.291 354.875C302.281 350.198 305.742 348.286 310.228 346.549Z"/>
	<path fill="#9F8BE8" d="M250.948 656.551C267.198 656.483 284.257 658.913 300.041 662.711C299.795 664.158 300.297 664.439 301.112 665.632C304.126 670.045 308.186 674.032 311.548 678.2C315.132 682.643 318.218 687.518 321.956 691.827C306.065 690.934 296.553 687.943 280.618 693.453C271.202 680.69 261.134 668.694 250.948 656.551Z"/>
	<path fill="#D7CCF6" d="M300.041 662.711C338.964 670.037 369.788 695.174 391.659 727.304Q393.157 729.46 394.486 731.724C372.886 711.247 350.907 698.777 321.956 691.827C318.218 687.518 315.132 682.643 311.548 678.2C308.186 674.032 304.126 670.045 301.112 665.632C300.297 664.439 299.795 664.158 300.041 662.711Z"/>
	<path fill="#D7CCF6" d="M467.124 478.594C472.367 483.691 477.123 487.597 483.906 490.414C486.426 491.461 489.789 492.335 492.07 493.754C493.101 494.396 493.156 495.318 493.14 496.455C493.109 498.647 492.291 500.797 491.536 502.822C490.089 503.515 489.071 503.149 487.552 502.598C478.576 499.341 470.692 486.908 467.124 478.594Z"/>
	<path fill="#D7CCF6" d="M321.734 417.48C322.21 415.586 322.725 413.583 324.402 412.382C326.509 410.872 329.208 411.431 331.538 411.963C333.899 413.962 335.013 416.267 335.178 419.387C335.317 422.034 334.166 424.918 332.4 426.871C331.32 428.065 329.58 429.205 327.919 429.261C326.564 429.307 325.344 428.986 324.345 428.021C322.44 426.182 321.426 420.943 321.639 418.356C321.663 418.063 321.702 417.772 321.734 417.48Z"/>
	<path d="M323.523 419.676C324.048 417.863 324.874 415.558 326.456 414.407C327.715 413.491 328.777 413.546 330.219 413.666C331.456 416.22 332.624 418.79 331.518 421.625C330.964 423.042 330.224 423.78 328.928 424.58C327.646 424.713 326.953 424.808 325.814 423.993C324.403 422.984 323.957 421.249 323.523 419.676Z"/>
	<path fill="#4B3C7A" d="M562.824 341.921C563.114 342.424 563.293 352.897 565.019 357.088C565.878 359.174 567.331 361.095 568.609 362.946L561.371 360.507C558.643 359.508 556.212 358.273 553.671 356.883C556.958 352.004 559.952 347.05 562.824 341.921Z"/>
	<path fill="#4B3C7A" d="M867.115 727.405C873.115 728.31 880.501 726.869 886.63 726.432Q898.416 725.607 910.223 725.176C930.351 724.525 950.538 725.455 970.649 726.209Q968.168 776.176 964.05 826.034C962.989 852.434 960.406 878.782 958.076 905.096Q952.92 964.6 946.68 1024L534.19 1024C529.81 1013.34 525.907 1002.43 521.829 991.645C514.388 974.133 508.443 954.641 501.982 936.606Q484.235 888.336 467.895 839.573C472.981 836.829 478.969 835.134 484.396 833.137Q498.862 827.867 513.248 822.38Q570.585 800.896 629.021 782.615Q687.458 764.333 746.816 749.309C756.11 770.775 770.02 787.948 792.26 796.79C800.883 800.219 810.295 801.878 819.554 802.166Q821.426 842.082 822.601 882.024L823.556 905.522C823.709 909.44 823.448 913.697 824.193 917.54C824.537 919.313 825.125 919.798 826.551 920.716C827.289 920.667 827.65 920.834 828.182 920.235C831.722 916.254 829.022 880.556 829.05 872.957C828.419 858.569 828.025 844.165 827.288 829.783C826.037 822.728 825.883 810.603 826.054 803.314C825.676 788.378 824.179 773.503 823.975 758.526C841.489 752.328 854.895 741.005 867.115 727.405Z"/>
	<path fill="#9F8BE8" d="M746.816 749.309C756.11 770.775 770.02 787.948 792.26 796.79C800.883 800.219 810.295 801.878 819.554 802.166Q821.426 842.082 822.601 882.024C816.145 885.87 808.654 888.489 801.724 891.408C785.071 898.422 768.242 904.832 751.385 911.327C744.016 914.166 731.36 920.042 724.451 921.409C724.429 921.574 724.405 921.738 724.386 921.903C723.719 927.576 726.096 948.853 722.972 951.996C722.423 952.548 721.964 952.377 721.241 952.407C719.566 951.447 718.668 950.342 718.147 948.45C717.189 944.972 718.12 928.589 718.115 923.905C704.782 928.202 691.535 932.932 678.157 937.059C681.927 930.135 684.878 924.237 685.805 916.314C674.419 918.315 663.704 923.288 655.967 932.066C647.922 919.235 636.584 910.752 621.719 907.316C614.399 905.624 607 905.443 599.532 905.896C604.418 917.487 610.616 925.677 620.191 933.799C607.843 932.139 597.161 933.147 585.287 936.9C595.271 948.772 602.185 952.843 616.877 957.392Q569.041 973.654 521.829 991.645C514.388 974.133 508.443 954.641 501.982 936.606Q484.235 888.336 467.895 839.573C472.981 836.829 478.969 835.134 484.396 833.137Q498.862 827.867 513.248 822.38Q570.585 800.896 629.021 782.615Q687.458 764.333 746.816 749.309Z"/>
	<path d="M718.115 923.905C717.652 907.309 717.88 890.571 717.996 873.965C718.027 869.625 717.143 864.023 718.19 859.885C718.512 858.615 718.803 858.302 719.935 857.707L721.391 858.241C721.692 858.591 722.117 858.865 722.294 859.291C723.631 862.505 724.381 913.86 724.451 921.409C724.429 921.574 724.405 921.738 724.386 921.903C723.719 927.576 726.096 948.853 722.972 951.996C722.423 952.548 721.964 952.377 721.241 952.407C719.566 951.447 718.668 950.342 718.147 948.45C717.189 944.972 718.12 928.589 718.115 923.905Z"/>
	<path fill="#4B3C7A" d="M655.546 832.031C665.957 834.718 675.26 840.404 683.303 847.428C696.357 858.827 704.173 874.307 709.853 890.424C711.352 894.679 713.188 899.453 713.489 903.953C709.979 903.207 706.609 901.579 703.299 900.227C692.201 895.694 682.048 890.928 673.501 882.274C659.573 868.17 655.318 851.335 655.546 832.031Z"/>
	<path fill="#4B3C7A" d="M758.522 785.886C759.283 786.123 759.171 785.916 759.486 786.615C760.449 788.757 760.548 791.69 760.953 794.009C763.269 807.265 763.172 820.929 758.647 833.728C754.348 845.89 743.138 863.974 731.184 869.766C725.801 858.103 725.061 841.811 727.687 829.368C731.698 810.365 742.415 796.338 758.522 785.886Z"/>
	<path fill="#4B3C7A" d="M791.689 845.494C792.243 845.709 792.556 846.11 792.978 846.517C794.324 854.327 785.138 874.392 780.799 881.001C769.472 898.253 752.882 904.337 733.446 908.308L732.327 907.633C731.569 901.7 736.804 889.294 739.497 883.975C750.604 862.03 769.242 852.805 791.689 845.494Z"/>
	<path fill="#4B3C7A" d="M693.639 789.243C701.751 795.765 708.267 805.237 712.458 814.701C717.535 826.166 718.121 836.995 715.788 849.223C715.251 852.041 714.786 855.001 713.751 857.676L712.848 857.986L710.901 856.935L710.367 856.606C698.618 849.253 689.045 838.706 686.002 824.901C683.099 811.733 686.481 800.331 693.639 789.243Z"/>
	<path fill="#9F8BE8" d="M867.115 727.405C873.115 728.31 880.501 726.869 886.63 726.432Q898.416 725.607 910.223 725.176C930.351 724.525 950.538 725.455 970.649 726.209Q968.168 776.176 964.05 826.034C956.172 829.267 948.507 833.06 940.631 836.237C942.533 831.017 947.628 816.394 945.87 811.418C945.286 810.947 945.113 810.57 944.305 810.627C939.097 810.994 927.873 824.379 924.411 828.55C925.075 815.349 923.961 803.527 920.566 790.731C912.094 801.247 908.431 814.151 905.984 827.194C899.911 822.826 893.942 818.886 887.21 815.562C888.29 827.537 893.152 837.563 898.334 848.206C883.567 840.1 871.941 837.69 854.977 839.265C859.738 847.821 868.231 854 875.903 859.817C860.621 866.718 844.876 872.538 829.563 879.378C829.48 877.256 829.534 875.03 829.05 872.957C828.419 858.569 828.025 844.165 827.288 829.783C826.037 822.728 825.883 810.603 826.054 803.314C825.676 788.378 824.179 773.503 823.975 758.526C841.489 752.328 854.895 741.005 867.115 727.405Z"/>
	<path fill="#4B3C7A" d="M826.928 809.434C831.771 783.505 843.64 761.38 865.751 746.271Q873.281 741.229 881.492 737.397C881.837 763.45 875.992 788.925 857.399 808.135C849.107 816.703 839.125 823.418 827.812 827.292C827.619 828.123 827.421 828.94 827.288 829.783C826.037 822.728 825.883 810.603 826.054 803.314L826.928 809.434Z"/>
	<path fill="#9F8BE8" d="M820.176 0L824.255 0L851.892 0L855.788 0L962.864 0L968.403 0L1024 0L1024 1024L953.098 1024L946.68 1024Q952.92 964.6 958.076 905.096C960.406 878.782 962.989 852.434 964.05 826.034Q968.168 776.176 970.649 726.209C972.15 712.376 972.024 698.012 972.442 684.09Q973.338 659.611 974.578 635.146C960.83 610.672 950.702 583.533 941.518 557.079Q925.136 510.105 912.414 462.01Q891.949 389.067 876.531 314.893Q855.376 210.139 837.408 104.791C837.829 98.2657 831.943 72.0809 830.444 63.4845C826.764 42.3734 823.573 21.1588 820.176 0Z"/>
	<path fill="#D7CCF6" d="M881.099 117.985C892.213 118.531 904.036 119.835 914.945 117.252C924.977 145.664 947.868 173.108 975.156 186.434C974.88 195.023 975.91 203.906 976.291 212.5Q977.545 241.512 978.476 270.537Q981.303 374.702 979.581 478.891C977.49 474.513 975.906 469.744 974.143 465.22Q966.829 446.159 960.199 426.85C945.132 383.926 933.735 339.9 922.892 295.753Q908.586 238.387 895.541 180.721C890.697 159.842 886.551 138.712 881.099 117.985Z"/>
	<path fill="#4B3C7A" d="M855.788 0L962.864 0C963.256 12.9035 964.7 25.8702 965.781 38.7352Q967.703 62.3457 969.226 85.9854L973.19 151.676C973.844 163.272 974.192 174.855 975.156 186.434C947.868 173.108 924.977 145.664 914.945 117.252C904.036 119.835 892.213 118.531 881.099 117.985Q867.379 59.2209 855.788 0Z"/>
	<path d="M820.176 0L824.255 0C830.606 23.9848 834.049 49.1738 838.334 73.6158L856.638 174.241Q864.556 218.98 873.26 263.574Q891.145 351.048 913.998 437.358C931.998 504.588 952.549 570.647 980.892 634.311C978.926 646.883 979.584 660.476 979.112 673.227Q978.052 711.793 975.653 750.299C970.262 841.549 964.065 933.233 953.098 1024L946.68 1024Q952.92 964.6 958.076 905.096C960.406 878.782 962.989 852.434 964.05 826.034Q968.168 776.176 970.649 726.209C972.15 712.376 972.024 698.012 972.442 684.09Q973.338 659.611 974.578 635.146C960.83 610.672 950.702 583.533 941.518 557.079Q925.136 510.105 912.414 462.01Q891.949 389.067 876.531 314.893Q855.376 210.139 837.408 104.791C837.829 98.2657 831.943 72.0809 830.444 63.4845C826.764 42.3734 823.573 21.1588 820.176 0Z"/>
	<path d="M851.892 0L855.788 0Q867.379 59.2208 881.099 117.985C886.551 138.712 890.697 159.842 895.541 180.721Q908.586 238.387 922.892 295.753C933.735 339.9 945.132 383.926 960.199 426.85Q966.829 446.159 974.143 465.22C975.906 469.744 977.49 474.513 979.581 478.891Q981.303 374.702 978.476 270.537Q977.545 241.512 976.291 212.5C975.91 203.906 974.88 195.023 975.156 186.434C974.192 174.855 973.844 163.272 973.19 151.676L969.226 85.9854Q967.703 62.3457 965.781 38.7352C964.7 25.8702 963.256 12.9035 962.864 0L968.403 0C969.139 11.8364 970.835 23.6981 971.872 35.5226Q975.386 77.0373 978.191 118.606Q982.543 185.488 984.575 252.48Q987.573 315.333 987.683 378.257Q987.793 441.182 985.015 504.045C980.567 498.286 977.804 490.724 974.775 484.106C954.786 440.423 940.941 390.828 928.512 344.413Q905.841 257.736 886.589 170.235C874.121 113.712 860.07 57.3684 851.892 0Z"/>
	<path fill="#4B3C7A" d="M681.253 0L820.176 0C823.573 21.1588 826.764 42.3734 830.444 63.4845C831.943 72.0809 837.829 98.2657 837.408 104.791C834.406 103.059 830.82 101.892 827.638 100.453C805.247 90.3248 783.487 69.1367 774.728 45.987C765.111 46.6498 754.589 46.064 745.173 44.1461C717.985 38.608 696.313 22.9718 681.253 0Z"/>
	<path fill="#4B3C7A" d="M738.762 718.049C751.1 721.731 762.186 726.802 772.742 734.232C775.927 736.475 778.785 739.123 781.986 741.363C788.878 739.236 796.005 737.793 803.101 736.536C807.068 735.833 811.208 735.48 815.05 734.283L814.741 733.615L816.06 733.794C816.634 734.998 816.661 735.941 816.735 737.237C816.783 738.089 816.748 737.722 816.942 738.689Q817.617 754.34 817.976 770.001C818.144 775.463 818.618 780.999 818.459 786.458C818.898 791.663 819.547 796.942 819.554 802.166C810.295 801.878 800.883 800.219 792.26 796.79C770.02 787.948 756.11 770.775 746.816 749.309Q745.257 745.57 743.969 741.73Q742.682 737.89 741.671 733.967Q740.66 730.045 739.932 726.06Q739.204 722.075 738.762 718.049Z"/>
	<path fill="#9F8BE8" d="M814.741 733.615L816.06 733.794C816.634 734.998 816.661 735.941 816.735 737.237C816.783 738.089 816.748 737.722 816.942 738.689Q817.617 754.34 817.976 770.001C818.144 775.463 818.618 780.999 818.459 786.458C814.925 781.677 811.983 776.047 808.715 771.038C801.144 759.437 792.452 750.335 781.986 741.363C788.878 739.236 796.005 737.793 803.101 736.536C807.068 735.833 811.208 735.48 815.05 734.283L814.741 733.615Z"/>
	<path fill="#4B3C7A" d="M823.141 734.372L823.578 734.307C825.771 731.962 828.894 720.622 830.626 716.883C842.272 691.736 859.863 671.863 886.422 662.293C887.015 689.471 883.841 705.063 867.115 727.405C854.895 741.005 841.489 752.328 823.975 758.526C824.031 750.549 823.85 742.319 823.141 734.372Z"/>
	<path fill="#4B3C7A" d="M752.853 642.348C778.371 656.581 797.674 675.698 809.567 702.616C812.152 708.466 813.616 717.017 816.106 721.883C816.221 722.108 816.343 722.33 816.461 722.554C816.549 727.842 817.277 733.468 816.942 738.689C816.748 737.722 816.783 738.089 816.735 737.237C816.661 735.941 816.634 734.998 816.06 733.794L814.741 733.615C798.058 731.796 781.853 722.687 770.964 710.06C754.314 690.752 750.986 667.005 752.853 642.348Z"/>
	<path fill="#4B3C7A" d="M820.083 679.063C820.203 678.843 820.33 678.627 820.443 678.404C822.351 674.618 821.412 664.343 822.056 659.544C825.603 633.119 842.908 609.023 867.059 597.675C869.214 620.878 864.991 642.336 849.872 660.64C842.442 669.636 831.303 680.327 820.392 684.89C820.164 682.928 820.065 681.038 820.083 679.063Z"/>
	<path fill="#4B3C7A" d="M798.579 569.888C813.321 587.921 821.031 614.331 820.519 637.428C820.339 645.577 818.693 653.73 818.957 661.877L813.923 661.808C801.461 653.869 793.705 641.304 790.468 627.032C786.051 607.562 790.232 587.746 798.579 569.888Z"/>
	<path d="M813.923 661.808L818.957 661.877C819.428 667.597 819.993 673.321 820.083 679.063C820.065 681.038 820.164 682.928 820.392 684.89C821.544 695.87 821.904 706.974 822.339 718.003C822.554 723.441 822.415 728.975 823.141 734.372C823.85 742.319 824.031 750.549 823.975 758.526C824.179 773.503 825.676 788.378 826.054 803.314C825.883 810.603 826.037 822.728 827.288 829.783C828.025 844.165 828.419 858.569 829.05 872.957C829.022 880.556 831.722 916.254 828.182 920.235C827.65 920.834 827.289 920.667 826.551 920.716C825.125 919.798 824.537 919.313 824.193 917.54C823.448 913.697 823.709 909.44 823.556 905.522L822.601 882.024Q821.426 842.082 819.554 802.166C819.547 796.942 818.898 791.663 818.459 786.458C818.618 780.999 818.144 775.463 817.976 770.001Q817.617 754.34 816.942 738.689C817.277 733.468 816.549 727.842 816.461 722.554C816.338 702.344 814.673 682.016 813.923 661.808Z"/>
	<path fill="#FEFDFE" d="M730.734 111.752Q731.812 111.594 732.895 111.489Q733.979 111.384 735.067 111.332Q736.155 111.28 737.244 111.282Q738.333 111.283 739.421 111.338Q740.508 111.393 741.592 111.501Q742.676 111.609 743.753 111.77Q744.83 111.931 745.898 112.144Q746.966 112.358 748.022 112.623Q749.078 112.889 750.12 113.206Q751.162 113.523 752.187 113.89Q753.212 114.258 754.218 114.675Q755.224 115.092 756.208 115.558Q757.193 116.024 758.153 116.538Q759.113 117.051 760.047 117.612Q760.981 118.172 761.887 118.777Q762.792 119.382 763.667 120.03Q764.542 120.679 765.384 121.37Q766.226 122.061 767.033 122.792Q767.84 123.523 768.61 124.293Q769.381 125.062 770.113 125.869Q770.844 126.675 771.536 127.517Q772.227 128.358 772.877 129.232Q773.526 130.107 774.132 131.012Q774.738 131.917 775.298 132.85Q775.859 133.784 776.373 134.744Q776.888 135.704 777.355 136.687Q777.822 137.671 778.24 138.677Q778.658 139.683 779.026 140.707Q779.394 141.732 779.712 142.774Q780.03 143.816 780.296 144.872Q780.562 145.928 780.777 146.995Q780.991 148.063 781.153 149.14Q781.315 150.217 781.424 151.301Q781.533 152.384 781.588 153.472Q781.644 154.559 781.646 155.648Q781.649 156.738 781.598 157.825Q781.547 158.913 781.443 159.997Q781.339 161.081 781.182 162.159Q781.024 163.237 780.815 164.305Q780.605 165.374 780.344 166.431Q780.082 167.488 779.769 168.531Q779.455 169.575 779.092 170.601Q778.728 171.628 778.314 172.635Q777.9 173.642 777.438 174.628Q776.975 175.614 776.465 176.576Q775.955 177.539 775.398 178.475Q774.842 179.411 774.24 180.318Q773.638 181.226 772.992 182.103Q772.347 182.98 771.659 183.825Q770.971 184.669 770.243 185.479Q769.515 186.289 768.748 187.062Q767.981 187.835 767.177 188.57Q766.373 189.304 765.534 189.999Q764.695 190.693 763.823 191.346Q762.951 191.998 762.048 192.607Q761.146 193.216 760.214 193.78Q759.282 194.344 758.324 194.862Q757.366 195.38 756.384 195.85Q755.402 196.321 754.398 196.742Q753.394 197.164 752.37 197.536Q751.346 197.908 750.306 198.229Q749.265 198.551 748.21 198.821Q747.155 199.091 746.088 199.309Q745.021 199.527 743.945 199.693Q742.864 199.859 741.775 199.972Q740.687 200.085 739.595 200.145Q738.502 200.204 737.408 200.21Q736.314 200.215 735.221 200.167Q734.128 200.119 733.039 200.017Q731.95 199.915 730.867 199.76Q729.784 199.604 728.71 199.396Q727.636 199.187 726.574 198.926Q725.511 198.665 724.463 198.352Q723.414 198.039 722.383 197.675Q721.351 197.311 720.339 196.897Q719.326 196.482 718.335 196.019Q717.344 195.555 716.377 195.043Q715.411 194.531 714.47 193.972Q713.529 193.413 712.618 192.809Q711.706 192.205 710.825 191.556Q709.943 190.908 709.095 190.217Q708.247 189.525 707.434 188.794Q706.621 188.062 705.845 187.291Q705.069 186.519 704.331 185.711Q703.594 184.903 702.897 184.059Q702.201 183.216 701.546 182.339Q700.892 181.462 700.282 180.554Q699.671 179.646 699.106 178.709Q698.541 177.773 698.023 176.809Q697.505 175.846 697.035 174.858Q696.564 173.87 696.143 172.86Q695.722 171.85 695.351 170.821Q694.98 169.792 694.66 168.746Q694.341 167.699 694.073 166.639Q693.805 165.578 693.589 164.505Q693.373 163.433 693.211 162.351Q693.048 161.269 692.939 160.181Q692.83 159.092 692.775 157.999Q692.719 156.907 692.718 155.813Q692.716 154.719 692.768 153.626Q692.82 152.533 692.926 151.444Q693.032 150.355 693.191 149.273Q693.351 148.191 693.563 147.117Q693.775 146.044 694.04 144.983Q694.305 143.921 694.622 142.874Q694.938 141.827 695.306 140.797Q695.674 139.766 696.092 138.755Q696.51 137.744 696.977 136.755Q697.445 135.766 697.96 134.801Q698.475 133.836 699.037 132.897Q699.6 131.959 700.207 131.049Q700.815 130.139 701.467 129.261Q702.118 128.382 702.812 127.536Q703.506 126.691 704.241 125.88Q704.976 125.07 705.75 124.296Q706.524 123.523 707.335 122.788Q708.146 122.054 708.992 121.36Q709.838 120.667 710.717 120.016Q711.596 119.365 712.506 118.757Q713.416 118.15 714.355 117.589Q715.294 117.027 716.259 116.512Q717.224 115.997 718.214 115.531Q719.203 115.064 720.215 114.647Q721.226 114.229 722.256 113.862Q723.287 113.495 724.334 113.179Q725.382 112.862 726.443 112.598Q727.505 112.334 728.578 112.122Q729.652 111.911 730.734 111.752Z"/>
</svg>
