<?xml version="1.0" encoding="utf-8" ?>
<svg xmlns="http://www.w3.org/2000/svg" xmlns:xlink="http://www.w3.org/1999/xlink" width="1024" height="1024">
	<path fill="#010100" d="M0 0L1024 0L1024 1024L720.313 1024L707.219 1024L537.894 1024L519.71 1024L500.857 1024L259.394 1024L257.771 1024L0 1024L0 779.482L0 757.049L0 0Z"/>
	<path fill="#9F8BE8" d="M0 0L1024 0L1024 1024L720.313 1024C727.353 1017.01 734.774 1010.41 741.79 1003.37C761.962 983.15 781.334 962.812 803.513 944.669C813.083 936.84 822.895 929.067 832.99 921.927C843.943 914.18 855.938 906.806 865.797 897.705C870.122 893.712 873.413 889.411 874.41 883.431C875.933 874.29 871.427 866.379 870.319 857.584C869.587 851.781 871.237 845.965 870.203 840.101C869.682 837.149 868.605 834.913 866.91 832.469C869.249 824.529 869.974 818.755 868.01 810.595C869.344 809.614 870.739 808.623 871.91 807.447C878.133 801.195 884.853 786.902 884.337 777.967C884.153 774.8 883.125 771.649 880.667 769.518C876.847 766.207 872.238 767.093 867.654 767.584C873.274 754.022 880.592 740.777 886.898 727.484Q908.112 681.698 930.526 636.488C933.461 630.467 936.506 625.28 933.97 618.458C932.458 614.394 929.537 610.733 925.991 608.255C917.583 602.378 905.866 599.095 896.323 595.257C882.564 589.722 868.784 583.964 855.288 577.813C853.71 525.983 852.233 461.959 827.273 415.496C822.738 407.055 817.735 399.211 810.702 392.611C789.281 372.512 759.719 372.85 732.444 368.525C702.903 363.841 676.041 353.582 654.345 332.312C627.676 306.165 621.844 278.056 620.531 242.266C619.059 202.125 620.923 156.657 588.992 126.749C549.939 90.1694 463.405 84.559 412.304 86.4758C298.868 90.7308 187.113 136.302 109.444 220.187Q106.103 223.737 102.851 227.368Q99.5994 230.999 96.4387 234.71Q93.278 238.421 90.2103 242.209Q87.1426 245.997 84.1698 249.86Q81.197 253.723 78.321 257.659Q75.445 261.595 72.6675 265.6Q69.89 269.606 67.2127 273.68Q64.5354 277.753 61.96 281.892Q59.3846 286.03 56.9127 290.232Q54.4408 294.433 52.0738 298.694Q49.7069 302.955 47.4464 307.274Q45.1859 311.593 43.0332 315.966Q40.8806 320.339 38.8371 324.765Q36.7936 329.19 34.8605 333.665Q32.9274 338.14 31.1059 342.662Q29.2845 347.183 27.5757 351.748Q25.867 356.313 24.272 360.919Q22.677 365.526 21.1968 370.17Q19.7166 374.814 18.3521 379.494Q16.9876 384.173 15.7396 388.886Q14.4915 393.598 13.3608 398.339Q12.2301 403.081 11.2173 407.849Q10.2046 412.617 9.31041 417.409Q8.41625 422.201 7.64125 427.013Q6.86625 431.825 6.21088 436.656Q5.5555 441.486 5.02016 446.331Q4.48482 451.176 4.06984 456.033Q3.65486 460.89 3.3605 465.755Q3.06614 470.621 2.89257 475.492Q2.71901 480.364 2.66635 485.238Q2.6137 490.112 2.68197 494.986Q2.75025 499.86 2.93943 504.731C4.85756 554.265 17.5968 608.566 40.2051 652.884C43.3456 659.04 46.3424 665.931 50.4786 671.468C30.908 698.669 14.542 726.889 0 757.049L0 0Z"/>
	<path fill="#010100" d="M774.644 63.7038C774.889 63.679 775.133 63.6466 775.378 63.6294C805.076 61.5469 835.868 75.408 858.285 93.9611C883.962 115.212 902.465 146.299 905.464 179.818C907.558 203.209 902.28 225.083 891.355 245.691C888.89 250.341 884.971 254.393 882.902 259.15C880.933 263.675 879.858 268.695 878.163 273.347C874.059 284.614 867.431 294.388 859.764 303.52C839.799 327.3 810.97 338.784 780.625 341.479C766.66 342.294 752.626 340.387 739.131 336.792C708.615 328.661 683.474 308.406 667.865 281.058C653.023 255.052 649.748 225.944 657.678 197.222C655.664 191.818 653.626 186.464 652.561 180.775C648.769 160.528 654.402 140.514 665.974 123.735C680.76 102.296 701.202 90.8603 726.46 86.216C741.052 72.4716 754.357 65.3907 774.644 63.7038Z"/>
	<path fill="#9F8BE8" d="M739.884 112.364C742.148 114.683 745.322 123.863 747.201 127.328C749.39 131.362 752.16 135.243 754.846 138.963C768.149 157.388 785.088 172.052 805.855 181.458C809.883 183.283 814.563 185.581 818.99 186.17C820.642 186.389 821.789 186.266 823.166 185.239C823.755 184.097 823.999 183.029 823.569 181.774C822.413 178.398 817.97 175.143 815.728 172.208C808.033 162.133 804.944 146.59 803.328 134.272Q809.425 141.895 816.265 148.86Q823.104 155.825 830.615 162.059C838.254 168.392 846.48 174.036 853.507 181.078C868.298 195.901 876.648 215.338 876.483 236.341C876.272 263.222 864.596 286.82 845.653 305.435C832.396 317.459 818 325.064 800.626 329.328Q799.242 329.664 797.851 329.965Q796.46 330.267 795.062 330.534Q793.663 330.801 792.259 331.034Q790.855 331.267 789.445 331.466Q788.035 331.664 786.621 331.828Q785.207 331.992 783.789 332.121Q782.371 332.251 780.951 332.345Q779.531 332.439 778.108 332.499Q776.686 332.559 775.263 332.583Q773.839 332.608 772.416 332.598Q770.992 332.588 769.569 332.542Q768.146 332.497 766.725 332.417Q765.304 332.337 763.885 332.223Q762.466 332.108 761.05 331.958Q759.634 331.809 758.223 331.625Q756.811 331.441 755.404 331.222Q753.998 331.003 752.597 330.75Q751.196 330.497 749.801 330.21Q748.407 329.922 747.02 329.601Q745.634 329.279 744.255 328.924Q742.876 328.569 741.507 328.18Q740.138 327.791 738.778 327.368Q737.419 326.946 736.07 326.49Q734.721 326.034 733.384 325.546Q732.047 325.057 730.722 324.536Q729.398 324.015 728.086 323.461Q726.774 322.908 725.477 322.322Q724.179 321.737 722.896 321.12Q721.613 320.502 720.346 319.854Q719.079 319.206 717.828 318.526Q716.576 317.847 715.342 317.137Q714.108 316.428 712.892 315.688C689.141 301.08 671.127 276.475 664.857 249.31C656.349 212.448 669.725 176.532 697.959 151.96C702.069 148.383 706.733 145.402 711.144 142.209C722.986 133.637 732.087 124.757 739.884 112.364Z"/>
	<path fill="#010100" d="M707.448 253.284C709.035 253.642 710.408 254.07 711.538 255.29C714.606 258.602 716.718 262.985 719.54 266.544C726.711 275.59 738.929 282.392 750.046 285.037Q750.936 285.247 751.831 285.429Q752.727 285.611 753.628 285.766Q754.529 285.92 755.434 286.046Q756.34 286.173 757.248 286.271Q758.157 286.37 759.068 286.44Q759.98 286.51 760.893 286.553Q761.806 286.595 762.72 286.609Q763.634 286.622 764.548 286.608Q765.462 286.594 766.375 286.551Q767.288 286.508 768.199 286.437Q769.11 286.367 770.019 286.268Q770.928 286.169 771.833 286.042Q772.738 285.914 773.639 285.76Q774.54 285.605 775.436 285.422Q776.331 285.239 777.221 285.029Q778.11 284.818 778.993 284.581Q779.875 284.343 780.75 284.078Q781.625 283.813 782.491 283.521Q783.358 283.23 784.214 282.911Q785.071 282.593 785.918 282.248Q786.764 281.903 787.6 281.532Q788.435 281.162 789.259 280.765Q790.083 280.369 790.893 279.947Q791.704 279.525 792.502 279.079Q793.299 278.632 794.083 278.161Q794.866 277.69 795.635 277.195Q796.403 276.7 797.156 276.182Q797.909 275.663 798.645 275.122Q799.381 274.58 800.101 274.016Q800.82 273.452 801.521 272.866Q802.223 272.28 802.906 271.673Q803.589 271.065 804.253 270.437C807.659 267.198 810.849 261.538 814.721 259.171C815.556 259.055 816.19 258.964 816.999 259.313C818.15 259.809 819.094 260.877 819.44 262.081C820.061 264.239 818.579 266.171 817.546 267.943C816.024 270.218 814.23 272.404 812.361 274.398Q811.219 275.609 810.018 276.762Q808.817 277.914 807.561 279.006Q806.304 280.098 804.995 281.127Q803.686 282.155 802.328 283.117Q800.97 284.079 799.565 284.973Q798.161 285.867 796.714 286.69Q795.267 287.513 793.781 288.263Q792.295 289.014 790.774 289.69Q789.253 290.366 787.7 290.965Q786.147 291.565 784.567 292.087Q782.986 292.609 781.382 293.052Q779.777 293.495 778.152 293.858Q776.528 294.221 774.887 294.504Q773.247 294.786 771.594 294.986Q769.942 295.187 768.282 295.305Q766.621 295.424 764.957 295.46C746.436 295.977 730.174 288.79 716.847 276.097C712.516 271.972 704.916 264.148 705.005 257.795C705.034 255.724 706.09 254.684 707.448 253.284Z"/>
	<path fill="#010100" d="M797.175 203.832C797.654 203.844 798.044 203.83 798.523 203.952C801.388 204.68 804.929 218.03 806.832 221.279C808.415 223.983 810.427 226.511 813.644 227.21C826.381 229.979 829.605 208.906 835.574 206.391C836.407 206.04 837.074 206.022 837.915 206.265C839.149 206.622 840.486 207.729 840.952 208.947C841.717 210.946 840.386 213.387 839.626 215.205C836.316 221.838 831.876 229.001 825.372 232.911C821.264 235.38 816.389 236.358 811.711 235.09C805.764 233.479 801.214 228.858 798.304 223.595C796.015 219.455 792.34 211.152 794.086 206.54C794.659 205.027 795.83 204.533 797.175 203.832Z"/>
	<path fill="#010100" d="M703.134 200.473C708.977 202.309 710.744 215.169 716.091 219.927C717.955 221.586 720.483 222.586 723.001 222.329C732.101 221.398 734.518 210.654 739.549 204.923C740.588 203.74 741.531 203.089 743.141 202.941C744.306 203.35 745.189 203.991 745.758 205.119C747.025 207.625 744.971 211.422 744.03 213.836C741.191 219.864 736.872 225.865 730.797 228.948Q730.009 229.351 729.186 229.675Q728.362 229.998 727.51 230.239Q726.659 230.48 725.788 230.636Q724.917 230.792 724.035 230.862Q723.152 230.931 722.268 230.913Q721.383 230.895 720.504 230.791Q719.625 230.686 718.761 230.495Q717.897 230.304 717.056 230.029C710.096 227.753 705.537 221.836 702.415 215.517C700.798 212.247 698.081 206.406 699.671 202.837C700.308 201.407 701.787 200.99 703.134 200.473Z"/>
	<path fill="#010100" d="M727.801 156.908C729.417 157.297 731.474 158.038 732.469 159.479C733.076 160.358 733.056 161.262 732.632 162.205C730.385 167.21 711.36 175.027 705.628 176.582C704.108 176.293 702.211 175.557 701.391 174.112C700.72 172.928 700.784 172.519 700.999 171.259C701.807 170.109 702.575 169.43 703.827 168.768C707.325 166.92 711.225 165.627 714.841 163.999C719.365 161.962 723.581 159.497 727.801 156.908Z"/>
	<path fill="#49365E" d="M773.114 72.6997C793.632 70.3946 814.82 77.8051 832.709 87.3654Q834.059 88.0911 835.391 88.85Q836.722 89.6089 838.035 90.4006Q839.347 91.1923 840.639 92.0162Q841.932 92.8402 843.203 93.6959Q844.475 94.5516 845.725 95.4385Q846.975 96.3255 848.202 97.2431Q849.43 98.1608 850.634 99.1085Q851.839 100.056 853.02 101.034Q854.2 102.011 855.356 103.017Q856.512 104.024 857.643 105.058Q858.774 106.093 859.879 107.155Q860.984 108.217 862.062 109.307Q863.14 110.396 864.191 111.512Q865.241 112.628 866.264 113.769Q867.287 114.91 868.281 116.077Q869.276 117.243 870.241 118.434Q871.206 119.625 872.141 120.839Q873.076 122.053 873.981 123.29Q874.886 124.527 875.76 125.786Q876.634 127.045 877.477 128.326Q878.319 129.606 879.13 130.907Q879.94 132.207 880.718 133.528Q881.496 134.848 882.242 136.188Q882.987 137.527 883.698 138.885Q884.41 140.242 885.088 141.617Q885.766 142.991 886.409 144.382Q887.053 145.773 887.662 147.18Q888.271 148.586 888.845 150.007Q889.419 151.429 889.957 152.864Q890.495 154.299 890.998 155.746Q891.501 157.194 891.968 158.654Q892.435 160.114 892.865 161.585C900.097 185.868 897.283 215.115 885.115 237.412Q885.114 235.229 885.069 233.046C884.476 205.747 871.255 183.222 850.467 166.063C841.127 158.354 831.114 151.724 822.67 142.941C818.487 138.59 814.442 133.89 810.868 129.023C808.529 125.838 805.206 118.708 802.38 116.52C801.397 115.759 800.095 115.829 798.931 116.005C797.73 116.187 797.138 116.65 796.463 117.645C792.315 123.761 795.83 144.163 797.446 150.981C799.677 158.158 802.47 165.027 805.538 171.879Q803.464 170.806 801.432 169.655Q799.4 168.503 797.413 167.276Q795.427 166.049 793.488 164.747Q791.549 163.445 789.661 162.07Q787.774 160.695 785.939 159.25Q784.105 157.805 782.327 156.291Q780.549 154.777 778.829 153.197Q777.11 151.616 775.452 149.972Q773.793 148.327 772.199 146.621Q770.604 144.915 769.076 143.15Q767.547 141.384 766.087 139.562Q764.626 137.74 763.236 135.863Q761.845 133.987 760.527 132.059Q759.209 130.131 757.965 128.155Q756.721 126.179 755.553 124.156Q754.385 122.134 753.295 120.069C751.073 115.846 747.378 105.429 743.826 102.794C742.502 101.811 741.13 101.572 739.55 101.941C733.8 103.285 730.402 111.236 726.915 115.544C724.589 118.417 721.961 121.189 719.248 123.693C706.185 135.745 691.215 144.386 679.18 158.055C672.112 166.083 666.996 175.151 661.713 184.383C661.179 182.238 660.828 179.981 660.619 177.78C658.587 156.365 665.286 138.114 678.887 121.684C688.657 109.883 700.723 102.147 715.431 97.9127C720.586 96.4289 726.207 95.4972 731.036 93.1094C734.25 91.5203 736.898 88.0275 739.614 85.6802C748.903 77.6518 761.082 73.8683 773.114 72.6997Z"/>
	<path fill="#CBC1F8" d="M875.137 353.361Q875.767 353.254 876.402 353.178Q877.037 353.101 877.674 353.056Q878.312 353.011 878.951 352.997Q879.59 352.983 880.229 353.001Q880.868 353.018 881.506 353.067Q882.143 353.115 882.778 353.195Q883.412 353.274 884.042 353.385Q884.671 353.495 885.295 353.637Q885.918 353.778 886.534 353.949Q887.15 354.121 887.757 354.322Q888.363 354.523 888.96 354.754Q889.556 354.985 890.14 355.244Q890.724 355.504 891.295 355.792Q891.866 356.08 892.422 356.395Q892.978 356.71 893.518 357.053Q894.058 357.395 894.58 357.763Q895.103 358.131 895.607 358.524Q896.111 358.918 896.595 359.335Q897.079 359.752 897.542 360.193Q898.006 360.634 898.447 361.096Q898.888 361.559 899.306 362.043Q899.724 362.526 900.118 363.03Q900.512 363.533 900.88 364.056Q901.249 364.578 901.592 365.117Q901.935 365.657 902.251 366.213Q902.567 366.768 902.855 367.339Q903.144 367.909 903.404 368.493Q903.665 369.077 903.896 369.673Q904.127 370.269 904.33 370.875Q904.532 371.482 904.704 372.097Q904.876 372.713 905.018 373.336Q905.16 373.959 905.271 374.589Q905.382 375.218 905.463 375.853Q905.543 376.487 905.592 377.124Q905.641 377.762 905.66 378.401Q905.678 379.04 905.665 379.679Q905.651 380.318 905.607 380.956Q905.563 381.593 905.487 382.228Q905.412 382.863 905.305 383.493Q905.199 384.123 905.062 384.748Q904.925 385.372 904.757 385.989Q904.59 386.606 904.393 387.214Q904.195 387.822 903.968 388.42Q903.742 389.018 903.486 389.603Q903.23 390.189 902.946 390.762Q902.662 391.335 902.35 391.893Q902.038 392.451 901.7 392.993Q901.361 393.535 900.996 394.06Q900.632 394.585 900.242 395.092Q899.852 395.598 899.438 396.085Q899.023 396.572 898.586 397.038Q898.148 397.504 897.688 397.948Q897.229 398.393 896.748 398.814Q896.267 399.235 895.766 399.632Q895.265 400.029 894.745 400.401Q894.225 400.774 893.688 401.12Q893.151 401.466 892.597 401.786Q892.044 402.106 891.475 402.398Q890.907 402.69 890.325 402.954Q889.742 403.218 889.148 403.454Q888.554 403.689 887.949 403.895Q887.343 404.101 886.729 404.277Q886.115 404.454 885.492 404.6Q884.87 404.746 884.241 404.861Q883.607 404.977 882.968 405.062Q882.329 405.147 881.687 405.201Q881.044 405.254 880.4 405.276Q879.756 405.298 879.111 405.288Q878.466 405.277 877.823 405.236Q877.18 405.194 876.54 405.12Q875.899 405.047 875.263 404.942Q874.627 404.837 873.997 404.701Q873.367 404.565 872.744 404.398Q872.122 404.231 871.508 404.033Q870.894 403.836 870.291 403.608Q869.688 403.381 869.097 403.124Q868.506 402.867 867.928 402.581Q867.35 402.295 866.787 401.981Q866.224 401.668 865.677 401.326Q865.13 400.985 864.601 400.617Q864.071 400.25 863.561 399.856Q863.05 399.463 862.559 399.045Q862.069 398.626 861.599 398.185Q861.13 397.743 860.682 397.279Q860.235 396.814 859.812 396.328Q859.388 395.843 858.989 395.336Q858.59 394.83 858.216 394.305Q857.842 393.78 857.494 393.237Q857.147 392.694 856.827 392.135Q856.506 391.575 856.214 391.001Q855.922 390.426 855.658 389.838Q855.394 389.25 855.16 388.649Q854.925 388.049 854.721 387.437Q854.516 386.826 854.342 386.205Q854.168 385.585 854.025 384.956Q853.881 384.328 853.769 383.693Q853.657 383.058 853.576 382.419Q853.495 381.779 853.446 381.136Q853.397 380.494 853.379 379.849Q853.362 379.205 853.376 378.56Q853.391 377.916 853.437 377.273Q853.483 376.63 853.56 375.99Q853.638 375.35 853.747 374.715Q853.856 374.079 853.997 373.45Q854.137 372.821 854.308 372.2Q854.479 371.578 854.681 370.966Q854.882 370.353 855.114 369.752Q855.345 369.15 855.606 368.561Q855.867 367.971 856.156 367.395Q856.446 366.819 856.763 366.258Q857.081 365.697 857.426 365.153Q857.771 364.608 858.142 364.081Q858.513 363.554 858.91 363.046Q859.307 362.538 859.728 362.05Q860.15 361.562 860.594 361.096Q861.039 360.629 861.506 360.185Q861.974 359.741 862.462 359.32Q862.951 358.9 863.46 358.504Q863.968 358.108 864.496 357.738Q865.024 357.367 865.569 357.023Q866.114 356.68 866.676 356.363Q867.237 356.046 867.813 355.758Q868.39 355.469 868.98 355.209Q869.57 354.95 870.172 354.719Q870.774 354.489 871.386 354.288Q871.999 354.088 872.621 353.918Q873.243 353.748 873.872 353.608Q874.502 353.469 875.137 353.361Z"/>
	<path fill="#CBC1F8" d="M634.723 55.2368Q635.346 55.1892 635.97 55.1719Q636.594 55.1547 637.219 55.1679Q637.843 55.1811 638.466 55.2247Q639.089 55.2683 639.709 55.3421Q640.329 55.416 640.945 55.52Q641.561 55.624 642.171 55.7578Q642.781 55.8917 643.383 56.0551Q643.986 56.2185 644.58 56.4111Q645.174 56.6036 645.758 56.8249Q646.342 57.0462 646.915 57.2956Q647.487 57.5451 648.047 57.8221Q648.606 58.0992 649.152 58.4031Q649.698 58.7071 650.228 59.0373Q650.758 59.3675 651.271 59.7231Q651.784 60.0787 652.28 60.4588Q652.775 60.839 653.252 61.2429Q653.728 61.6468 654.184 62.0733Q654.64 62.4999 655.075 62.9482Q655.51 63.3965 655.922 63.8654Q656.334 64.3344 656.724 64.8228Q657.113 65.3113 657.477 65.8181Q657.842 66.325 658.182 66.849Q658.522 67.373 658.836 67.9129Q659.149 68.4528 659.436 69.0074Q659.724 69.562 659.983 70.1299Q660.243 70.6977 660.475 71.2776Q660.707 71.8575 660.91 72.448Q661.113 73.0384 661.288 73.6381Q661.462 74.2378 661.607 74.8453Q661.752 75.4527 661.867 76.0665Q661.982 76.6803 662.067 77.299Q662.152 77.9176 662.207 78.5397Q662.262 79.1618 662.286 79.7858Q662.311 80.4098 662.305 81.0343Q662.299 81.6588 662.263 82.2822Q662.226 82.9057 662.16 83.5266Q662.093 84.1475 661.996 84.7645Q661.899 85.3814 661.773 85.9929Q661.646 86.6044 661.49 87.209Q661.333 87.8136 661.147 88.4099Q660.962 89.0062 660.747 89.5927Q660.533 90.1792 660.29 90.7546Q660.047 91.3299 659.777 91.8928Q659.506 92.4557 659.209 93.0047Q658.911 93.5537 658.587 94.0876Q658.263 94.6215 657.914 95.139Q657.564 95.6564 657.19 96.1562Q656.815 96.6561 656.417 97.1371Q656.018 97.618 655.597 98.0791Q655.176 98.5401 654.733 98.9801Q654.29 99.42 653.826 99.8379Q653.361 100.256 652.877 100.65Q652.394 101.045 651.891 101.416Q651.388 101.787 650.868 102.132Q650.348 102.478 649.812 102.798Q649.276 103.118 648.725 103.412Q648.173 103.705 647.609 103.972Q647.044 104.238 646.467 104.477Q645.889 104.715 645.301 104.925Q644.713 105.136 644.116 105.317Q643.518 105.498 642.912 105.65Q642.307 105.802 641.694 105.924Q641.082 106.046 640.464 106.139Q639.846 106.231 639.225 106.293Q638.805 106.335 638.383 106.363Q637.962 106.391 637.539 106.405Q637.117 106.42 636.695 106.42Q636.272 106.42 635.85 106.407Q635.428 106.393 635.006 106.365Q634.584 106.338 634.164 106.296Q633.744 106.255 633.325 106.2Q632.906 106.144 632.489 106.075Q632.072 106.006 631.658 105.923Q631.244 105.841 630.832 105.744Q630.421 105.648 630.013 105.538Q629.605 105.428 629.201 105.305Q628.797 105.182 628.397 105.045Q627.997 104.909 627.602 104.759Q627.207 104.609 626.817 104.447Q626.427 104.284 626.042 104.109Q625.658 103.934 625.28 103.746Q624.901 103.558 624.529 103.358Q624.157 103.157 623.792 102.945Q623.427 102.732 623.069 102.508Q622.711 102.284 622.36 102.048Q622.01 101.812 621.668 101.564Q621.325 101.317 620.991 101.058Q620.657 100.8 620.331 100.53Q620.006 100.261 619.69 99.9806Q619.374 99.7006 619.067 99.4103Q618.76 99.1199 618.462 98.8197Q618.165 98.5194 617.878 98.2095Q617.591 97.8996 617.314 97.5803Q617.037 97.2611 616.771 96.933Q616.505 96.6048 616.25 96.268Q615.995 95.9313 615.751 95.5863Q615.507 95.2413 615.275 94.8885Q615.042 94.5357 614.822 94.1754Q614.601 93.8151 614.392 93.4477Q614.184 93.0803 613.987 92.7063Q613.791 92.3322 613.607 91.9519Q613.423 91.5716 613.251 91.1854Q613.08 90.7992 612.922 90.4076Q612.763 90.016 612.618 89.6194Q612.472 89.2228 612.34 88.8216Q612.207 88.4203 612.088 88.015Q611.969 87.6096 611.864 87.2006Q611.758 86.7915 611.666 86.3792Q611.574 85.9669 611.495 85.5518Q611.417 85.1366 611.352 84.7191Q611.287 84.3016 611.236 83.8822Q611.185 83.4628 611.148 83.042Q611.111 82.6211 611.088 82.1993Q611.065 81.7774 611.055 81.3551Q611.046 80.9327 611.051 80.5102Q611.055 80.0878 611.074 79.6657Q611.092 79.2436 611.125 78.8224Q611.157 78.4011 611.203 77.9812Q611.25 77.5613 611.31 77.1431Q611.37 76.7249 611.444 76.3089Q611.518 75.8929 611.605 75.4796Q611.693 75.0663 611.794 74.6561Q611.895 74.2459 612.01 73.8393Q612.125 73.4326 612.252 73.03Q612.38 72.6273 612.521 72.2291Q612.663 71.8309 612.817 71.4376Q612.971 71.0442 613.138 70.6562Q613.305 70.2681 613.485 69.8858Q613.665 69.5035 613.857 69.1273Q614.049 68.7511 614.254 68.3814Q614.458 68.0118 614.675 67.6491Q614.892 67.2864 615.12 66.931Q615.349 66.5756 615.589 66.228Q615.829 65.8803 616.08 65.5408Q616.332 65.2012 616.594 64.8701Q616.857 64.5391 617.13 64.2168Q617.403 63.8946 617.687 63.5815Q617.97 63.2684 618.264 62.9649Q618.558 62.6613 618.862 62.3676Q619.166 62.074 619.479 61.7904Q619.792 61.5069 620.114 61.2339Q620.437 60.9608 620.768 60.6985Q621.099 60.4363 621.439 60.185Q621.778 59.9338 622.126 59.6939Q622.474 59.4541 622.83 59.2258Q623.185 58.9975 623.548 58.781Q623.911 58.5646 624.281 58.3602Q624.65 58.1559 625.027 57.9638Q625.403 57.7717 625.785 57.5922Q626.168 57.4126 626.556 57.2457Q626.944 57.0789 627.337 56.9249Q627.731 56.7709 628.129 56.63Q628.527 56.4891 628.93 56.3613Q629.333 56.2336 629.739 56.1192Q630.146 56.0049 630.556 55.904Q630.967 55.803 631.38 55.7157Q631.793 55.6284 632.209 55.5547Q632.625 55.481 633.044 55.4211Q633.462 55.3612 633.882 55.3151Q634.302 55.269 634.723 55.2368Z"/>
	<path fill="#CBC1F8" d="M940.85 281.377Q941.467 281.284 942.087 281.221Q942.707 281.158 943.33 281.126Q943.953 281.094 944.577 281.093Q945.2 281.091 945.823 281.12Q946.446 281.149 947.067 281.209Q947.688 281.269 948.305 281.359Q948.922 281.449 949.534 281.57Q950.146 281.69 950.751 281.841Q951.356 281.991 951.953 282.171Q952.55 282.351 953.138 282.56Q953.725 282.769 954.302 283.007Q954.878 283.245 955.442 283.511Q956.006 283.776 956.557 284.07Q957.107 284.363 957.642 284.683Q958.178 285.003 958.697 285.349Q959.216 285.694 959.717 286.065Q960.218 286.436 960.701 286.831Q961.183 287.227 961.645 287.645Q962.108 288.063 962.549 288.504Q962.99 288.945 963.409 289.406Q963.829 289.868 964.224 290.35Q964.62 290.832 964.992 291.333Q965.364 291.834 965.71 292.352Q966.057 292.87 966.378 293.405Q966.699 293.94 966.993 294.49Q967.287 295.04 967.553 295.604Q967.82 296.167 968.058 296.743Q968.297 297.32 968.507 297.907Q968.717 298.494 968.898 299.091Q969.079 299.688 969.23 300.293Q969.381 300.898 969.503 301.509Q969.624 302.121 969.715 302.738Q969.806 303.355 969.867 303.976Q969.927 304.596 969.958 305.219Q969.988 305.842 969.987 306.466Q969.987 307.089 969.955 307.712Q969.924 308.335 969.862 308.956Q969.8 309.576 969.708 310.193Q969.616 310.81 969.493 311.421Q969.371 312.033 969.218 312.637Q969.066 313.242 968.884 313.838Q968.702 314.435 968.491 315.022Q968.28 315.609 968.04 316.184Q967.801 316.76 967.533 317.323Q967.265 317.887 966.97 318.436Q966.675 318.985 966.354 319.52Q966.032 320.054 965.684 320.572Q965.337 321.089 964.964 321.589Q964.591 322.089 964.195 322.571Q963.798 323.052 963.378 323.513Q962.958 323.974 962.516 324.414Q962.074 324.853 961.61 325.271Q961.147 325.688 960.664 326.083Q960.181 326.477 959.679 326.847Q959.177 327.217 958.657 327.562Q958.138 327.907 957.602 328.226Q957.066 328.545 956.515 328.837Q955.964 329.129 955.4 329.394Q954.835 329.659 954.258 329.895Q953.681 330.132 953.093 330.34Q952.505 330.548 951.908 330.727Q951.31 330.906 950.705 331.055Q950.099 331.204 949.487 331.324Q948.875 331.443 948.258 331.532Q947.643 331.621 947.025 331.679Q946.407 331.738 945.786 331.766Q945.166 331.794 944.545 331.792Q943.924 331.789 943.304 331.757Q942.684 331.724 942.066 331.661Q941.448 331.598 940.834 331.505Q940.221 331.412 939.612 331.289Q939.003 331.166 938.401 331.013Q937.799 330.86 937.206 330.678Q936.612 330.496 936.028 330.285Q935.444 330.074 934.871 329.835Q934.298 329.596 933.737 329.329Q933.177 329.062 932.63 328.767Q932.083 328.473 931.551 328.153Q931.019 327.832 930.504 327.486Q929.988 327.14 929.49 326.769Q928.992 326.398 928.513 326.003Q928.034 325.608 927.575 325.19Q927.115 324.772 926.677 324.332Q926.239 323.892 925.823 323.431Q925.407 322.97 925.014 322.489Q924.62 322.008 924.251 321.509Q923.882 321.01 923.538 320.493Q923.194 319.976 922.875 319.443Q922.557 318.91 922.265 318.362Q921.973 317.814 921.708 317.252Q921.443 316.69 921.206 316.116Q920.97 315.542 920.761 314.957Q920.552 314.372 920.373 313.778Q920.193 313.184 920.042 312.581Q919.892 311.979 919.771 311.369Q919.651 310.76 919.56 310.146Q919.469 309.532 919.409 308.914Q919.348 308.296 919.318 307.675Q919.288 307.055 919.288 306.434Q919.288 305.813 919.319 305.193Q919.349 304.573 919.41 303.955Q919.471 303.337 919.562 302.723Q919.654 302.108 919.775 301.499Q919.896 300.89 920.046 300.288Q920.197 299.685 920.377 299.091Q920.557 298.497 920.766 297.912Q920.975 297.327 921.213 296.753Q921.45 296.18 921.715 295.618Q921.98 295.057 922.273 294.509Q922.565 293.961 922.884 293.428Q923.203 292.895 923.547 292.378Q923.892 291.862 924.261 291.363Q924.63 290.863 925.024 290.383Q925.417 289.903 925.834 289.442Q926.25 288.981 926.689 288.542Q927.127 288.102 927.586 287.684Q928.046 287.267 928.525 286.872Q929.005 286.477 929.503 286.106Q930.001 285.736 930.517 285.39Q931.033 285.044 931.565 284.724Q932.097 284.403 932.644 284.109Q933.191 283.816 933.751 283.549Q934.312 283.282 934.885 283.043Q935.459 282.805 936.043 282.594Q936.627 282.383 937.221 282.202Q937.815 282.02 938.417 281.868Q939.019 281.715 939.627 281.593Q940.236 281.47 940.85 281.377Z"/>
	<path fill="#CBC1F8" d="M929.624 427.374Q930.012 427.299 930.404 427.244Q930.795 427.188 931.189 427.152Q931.582 427.115 931.977 427.098Q932.372 427.08 932.767 427.082Q933.163 427.084 933.557 427.105Q933.952 427.126 934.345 427.167Q934.739 427.207 935.13 427.266Q935.52 427.326 935.908 427.404Q936.295 427.482 936.679 427.579Q937.062 427.676 937.44 427.792Q937.818 427.907 938.19 428.041Q938.562 428.174 938.927 428.326Q939.292 428.478 939.649 428.647Q940.007 428.816 940.355 429.003Q940.704 429.189 941.043 429.392Q941.382 429.595 941.711 429.815Q942.04 430.034 942.358 430.269Q942.675 430.504 942.981 430.755Q943.287 431.005 943.581 431.27Q943.874 431.535 944.155 431.813Q944.435 432.092 944.701 432.384Q944.968 432.676 945.219 432.981Q945.471 433.286 945.708 433.602Q945.945 433.919 946.166 434.247Q946.387 434.574 946.592 434.912Q946.797 435.25 946.985 435.598Q947.173 435.946 947.344 436.302Q947.515 436.658 947.669 437.023Q947.822 437.387 947.958 437.758Q948.094 438.13 948.211 438.507Q948.329 438.884 948.428 439.267Q948.527 439.65 948.607 440.037Q948.687 440.424 948.749 440.815Q948.81 441.205 948.852 441.598Q948.894 441.991 948.918 442.386Q948.941 442.78 948.945 443.176Q948.949 443.571 948.933 443.966Q948.918 444.361 948.884 444.755Q948.849 445.149 948.796 445.54Q948.742 445.932 948.67 446.32Q948.597 446.709 948.506 447.094Q948.414 447.478 948.304 447.858Q948.194 448.238 948.066 448.612Q947.938 448.986 947.792 449.353Q947.646 449.72 947.481 450.08Q947.318 450.439 947.136 450.791Q946.955 451.142 946.757 451.484Q946.559 451.826 946.344 452.158Q946.13 452.49 945.899 452.811Q945.669 453.133 945.423 453.442Q945.178 453.752 944.917 454.049Q944.657 454.347 944.382 454.631Q944.107 454.915 943.819 455.186Q943.531 455.457 943.23 455.713Q942.929 455.969 942.616 456.211Q942.303 456.452 941.979 456.678Q941.654 456.904 941.319 457.114Q940.984 457.323 940.639 457.517Q940.295 457.71 939.941 457.886Q939.587 458.063 939.225 458.222Q938.863 458.381 938.494 458.522Q938.125 458.663 937.749 458.786Q937.373 458.909 936.992 459.013Q936.611 459.118 936.225 459.204Q935.701 459.321 935.17 459.403Q934.639 459.485 934.104 459.531Q933.569 459.578 933.032 459.589Q932.495 459.601 931.958 459.576Q931.422 459.552 930.888 459.493Q930.354 459.433 929.825 459.338Q929.297 459.244 928.775 459.114Q928.254 458.985 927.742 458.822Q927.231 458.658 926.731 458.461Q926.231 458.264 925.746 458.035Q925.26 457.805 924.791 457.544Q924.321 457.283 923.87 456.992Q923.419 456.7 922.988 456.38Q922.557 456.059 922.148 455.711Q921.739 455.362 921.354 454.988Q920.969 454.613 920.61 454.214Q920.251 453.815 919.918 453.393Q919.586 452.971 919.282 452.528Q918.979 452.085 918.705 451.622Q918.431 451.16 918.188 450.681Q917.946 450.202 917.735 449.708Q917.525 449.214 917.347 448.707Q917.17 448.2 917.026 447.682Q916.883 447.164 916.774 446.638Q916.665 446.112 916.591 445.58Q916.516 445.048 916.478 444.513Q916.439 443.977 916.435 443.44Q916.432 442.903 916.464 442.366Q916.496 441.83 916.564 441.297Q916.631 440.765 916.734 440.237Q916.836 439.71 916.973 439.191Q917.11 438.671 917.281 438.162Q917.452 437.653 917.656 437.156Q917.86 436.659 918.097 436.177Q918.334 435.695 918.602 435.229Q918.87 434.764 919.168 434.317Q919.466 433.87 919.793 433.444Q920.119 433.018 920.474 432.614Q920.828 432.21 921.208 431.831Q921.589 431.452 921.993 431.098Q922.397 430.745 922.824 430.419Q923.251 430.093 923.699 429.795Q924.146 429.498 924.612 429.231Q925.078 428.965 925.561 428.729Q926.044 428.493 926.541 428.29Q927.038 428.087 927.548 427.917Q928.057 427.747 928.577 427.611Q929.096 427.475 929.624 427.374Z"/>
	<path fill="#CBC1F8" d="M50.4786 671.468C46.3424 665.931 43.3456 659.04 40.2051 652.884C17.5968 608.566 4.85756 554.265 2.93943 504.731Q2.75026 499.86 2.68198 494.986Q2.6137 490.112 2.66636 485.238Q2.71902 480.364 2.89258 475.492Q3.06615 470.621 3.36051 465.755Q3.65488 460.89 4.06986 456.033Q4.48484 451.176 5.02018 446.331Q5.55552 441.486 6.21089 436.656Q6.86627 431.825 7.64127 427.013Q8.41627 422.2 9.31043 417.409Q10.2046 412.617 11.2173 407.849Q12.2301 403.081 13.3608 398.339Q14.4916 393.597 15.7396 388.885Q16.9876 384.173 18.3521 379.494Q19.7167 374.814 21.1969 370.17Q22.6771 365.526 24.272 360.919Q25.867 356.313 27.5757 351.748Q29.2845 347.183 31.106 342.661Q32.9274 338.14 34.8605 333.665Q36.7936 329.19 38.8371 324.765Q40.8806 320.339 43.0333 315.966Q45.1859 311.593 47.4464 307.274Q49.7069 302.955 52.0739 298.694Q54.4408 294.433 56.9127 290.231Q59.3847 286.03 61.9601 281.892Q64.5354 277.753 67.2127 273.68Q69.89 269.606 72.6675 265.6Q75.445 261.595 78.321 257.659Q81.197 253.723 84.1698 249.86Q87.1426 245.997 90.2103 242.209Q93.278 238.421 96.4387 234.71Q99.5994 230.999 102.851 227.368Q106.103 223.737 109.444 220.187C187.113 136.302 298.868 90.7308 412.304 86.4758C463.405 84.559 549.939 90.1694 588.992 126.749C620.923 156.657 619.059 202.125 620.531 242.266C621.844 278.056 627.676 306.165 654.345 332.312C676.041 353.582 702.903 363.841 732.444 368.525C759.719 372.85 789.281 372.512 810.702 392.611C817.735 399.211 822.738 407.055 827.273 415.496C852.233 461.959 853.71 525.983 855.288 577.813L829.807 566.539C824.657 564.235 818.876 560.842 813.36 559.749C810.472 559.177 807.141 559.933 804.429 560.93C799.775 562.641 796.82 565.595 794.197 569.713C788.483 578.685 784.279 589.364 779.573 598.925L744.859 668.823C739.303 679.942 734.391 692.129 727.757 702.596C727.028 703.746 726.219 704.746 725.185 705.633C720.789 709.405 715.591 712.615 710.969 716.159C703.031 722.247 695.39 728.778 687.225 734.562C682.078 738.208 675.861 741.495 671.285 745.793C664.701 751.978 657.844 763.927 652.212 771.62Q638.317 790.817 622.031 808.031C592.879 838.881 553.606 858.692 517.33 879.845C501.361 889.157 485.772 899.343 469.69 908.401C463.449 894.055 458.115 879.228 452.502 864.622L431.397 811.007C426.664 799.067 422.227 786.904 417.033 775.164C403.04 743.542 383.782 713.469 356.791 691.412C350.638 664.329 342.883 647.753 326.261 625.314C331.273 605.885 337.58 585.56 346.128 567.38C362.936 581.175 389.149 599.834 411.669 597.767C418.616 597.129 425.026 594.287 429.542 588.827C437.098 579.689 437.184 567.886 442.631 557.858C449.659 544.917 457.059 551.836 462.783 529.798C466.527 527.943 469.782 526.093 471.293 521.927C473.187 516.704 472.357 512.127 475.427 507.076C485.398 504.873 500.354 502.399 506.145 492.869C507.75 490.226 508.352 487.213 508.421 484.151C508.574 477.268 506.92 470.003 505.717 463.234C504.183 454.597 502.69 446.05 501.894 437.306C505 437.706 509.202 438.732 511.885 436.538C512.784 435.802 512.811 435.575 512.91 434.505C510.139 429.354 501.137 430.232 502.768 424.568C504.133 419.824 508.132 415.456 511.091 411.584C533.059 407.715 551.179 398.202 564.155 379.474C577.104 360.785 579.595 336.933 575.425 315.047C570.706 290.282 557.426 267.836 536.326 253.607C529.21 248.809 521.689 245.564 513.543 242.971C510.585 235.019 505.931 228.015 501.016 221.151C480.012 191.818 449.609 168.579 416.951 153.632Q414.761 152.618 412.547 151.658Q410.333 150.698 408.096 149.792Q405.859 148.886 403.601 148.035Q401.343 147.184 399.064 146.389Q396.786 145.594 394.489 144.854Q392.192 144.115 389.877 143.432Q387.562 142.749 385.232 142.122Q382.901 141.496 380.556 140.927Q378.211 140.358 375.852 139.847Q373.494 139.335 371.124 138.881Q368.753 138.428 366.373 138.032Q363.992 137.636 361.603 137.299Q359.213 136.962 356.816 136.683Q354.419 136.404 352.016 136.184Q349.612 135.964 347.204 135.803Q344.797 135.641 342.385 135.539Q339.974 135.437 337.562 135.393Q335.149 135.35 332.735 135.366Q330.322 135.381 327.91 135.456Q325.498 135.531 323.088 135.664Q320.679 135.798 318.273 135.99Q315.868 136.183 313.468 136.434Q311.067 136.685 308.674 136.995Q306.281 137.305 303.896 137.673Q301.511 138.041 299.135 138.468Q296.76 138.894 294.396 139.379Q292.032 139.863 289.68 140.405Q287.329 140.947 284.991 141.547Q282.653 142.146 280.331 142.803Q278.009 143.459 275.703 144.172Q273.398 144.885 271.11 145.654Q268.823 146.423 266.555 147.248C225.159 162.661 191.649 190.008 173.166 230.695C164.518 249.732 159.324 271.074 157.786 291.937C154.328 338.87 167.541 375.617 131.408 415.733Q129.353 418.051 127.164 420.244Q124.976 422.436 122.662 424.496Q120.348 426.556 117.916 428.475Q115.485 430.395 112.944 432.168Q110.403 433.94 107.763 435.56Q105.122 437.18 102.39 438.641Q99.6588 440.103 96.8457 441.4Q94.0325 442.698 91.1478 443.827C73.8594 450.418 54.3072 452.323 37.0648 444.492C33.1536 442.716 29.4536 440.47 25.8059 438.212C33.0132 471.258 53.215 505.214 82.0618 523.748C91.3485 529.715 100.61 532.718 111.372 534.741C97.792 544.597 85.2244 549.219 68.7072 551.533C73.567 555.967 78.4866 560.409 83.9462 564.101C100.656 575.4 121.852 580.629 141.877 579.674Q142.971 579.626 144.063 579.545C137.056 584.253 130.632 589.616 124.08 594.922Q113.688 603.248 103.857 612.229Q94.0261 621.21 84.7969 630.808Q75.5677 640.407 66.9792 650.582Q58.3906 660.758 50.4786 671.468Z"/>
	<path fill="#9F8BE8" d="M555.032 185.841Q555.561 185.757 556.094 185.698Q556.627 185.64 557.162 185.608Q557.697 185.575 558.233 185.569Q558.769 185.563 559.304 185.583Q559.84 185.603 560.374 185.649Q560.908 185.696 561.439 185.768Q561.97 185.84 562.497 185.938Q563.024 186.036 563.546 186.16Q564.067 186.283 564.582 186.432Q565.097 186.581 565.604 186.755Q566.111 186.929 566.609 187.128Q567.107 187.326 567.594 187.549Q568.082 187.771 568.558 188.017Q569.034 188.263 569.498 188.533Q569.961 188.802 570.411 189.093Q570.861 189.384 571.296 189.697Q571.731 190.01 572.151 190.344Q572.57 190.678 572.972 191.032Q573.375 191.386 573.76 191.759Q574.144 192.132 574.51 192.524Q574.876 192.915 575.223 193.324Q575.569 193.733 575.896 194.159Q576.222 194.584 576.527 195.025Q576.832 195.465 577.115 195.921Q577.398 196.376 577.658 196.844Q577.919 197.313 578.156 197.793Q578.393 198.274 578.607 198.765Q578.821 199.257 579.01 199.758Q579.199 200.26 579.364 200.77Q579.528 201.28 579.668 201.797Q579.807 202.315 579.922 202.839Q580.036 203.362 580.124 203.891Q580.212 204.42 580.275 204.952Q580.337 205.484 580.374 206.019Q580.41 206.554 580.42 207.09Q580.431 207.626 580.415 208.161Q580.399 208.697 580.357 209.231Q580.314 209.766 580.246 210.297Q580.178 210.829 580.084 211.357Q579.99 211.884 579.87 212.407Q579.751 212.929 579.606 213.445Q579.461 213.961 579.291 214.469Q579.121 214.978 578.926 215.477Q578.731 215.976 578.513 216.466Q578.294 216.955 578.051 217.433Q577.809 217.911 577.543 218.377Q577.278 218.842 576.99 219.294Q576.702 219.746 576.392 220.184Q576.083 220.621 575.752 221.043Q575.421 221.465 575.071 221.87Q574.72 222.275 574.349 222.663Q573.979 223.05 573.591 223.419Q573.202 223.789 572.796 224.138Q572.389 224.488 571.967 224.817Q571.544 225.146 571.105 225.455Q570.667 225.763 570.214 226.05Q569.761 226.336 569.295 226.6Q568.828 226.864 568.35 227.105Q567.871 227.346 567.381 227.564Q566.891 227.781 566.391 227.974Q565.891 228.167 565.382 228.336Q564.873 228.504 564.357 228.648Q563.841 228.791 563.318 228.909Q562.795 229.028 562.267 229.12Q561.734 229.213 561.197 229.28Q560.66 229.347 560.12 229.388Q559.58 229.428 559.039 229.442Q558.498 229.455 557.957 229.442Q557.416 229.429 556.876 229.39Q556.336 229.35 555.799 229.284Q555.262 229.218 554.729 229.125Q554.195 229.032 553.667 228.914Q553.139 228.795 552.618 228.65Q552.096 228.505 551.582 228.335Q551.068 228.165 550.564 227.97Q550.059 227.774 549.564 227.554Q549.07 227.334 548.587 227.09Q548.104 226.846 547.633 226.578Q547.163 226.311 546.706 226.02Q546.25 225.729 545.808 225.417Q545.366 225.104 544.94 224.77Q544.514 224.436 544.106 224.081Q543.697 223.726 543.306 223.352Q542.915 222.978 542.543 222.584Q542.171 222.191 541.819 221.78Q541.467 221.369 541.136 220.941Q540.804 220.513 540.494 220.069Q540.184 219.625 539.897 219.167Q539.609 218.708 539.345 218.236Q539.08 217.764 538.839 217.28Q538.598 216.795 538.381 216.299Q538.164 215.803 537.972 215.297Q537.78 214.791 537.613 214.276Q537.446 213.761 537.305 213.239Q537.163 212.716 537.048 212.188Q536.932 211.659 536.843 211.125Q536.754 210.591 536.691 210.054Q536.628 209.516 536.592 208.976Q536.556 208.436 536.546 207.895Q536.537 207.354 536.554 206.813Q536.571 206.272 536.615 205.732Q536.659 205.193 536.729 204.656Q536.799 204.12 536.896 203.587Q536.993 203.055 537.116 202.527Q537.239 202 537.387 201.48Q537.536 200.96 537.71 200.447Q537.884 199.935 538.084 199.432Q538.283 198.928 538.507 198.436Q538.73 197.943 538.978 197.462Q539.226 196.98 539.497 196.512Q539.769 196.044 540.063 195.589Q540.357 195.135 540.673 194.696Q540.989 194.256 541.326 193.833Q541.663 193.41 542.021 193.004Q542.379 192.598 542.756 192.21Q543.134 191.822 543.53 191.453Q543.926 191.084 544.34 190.735Q544.753 190.386 545.184 190.058Q545.614 189.73 546.06 189.424Q546.507 189.117 546.967 188.833Q547.428 188.549 547.902 188.288Q548.376 188.027 548.863 187.79Q549.349 187.552 549.847 187.339Q550.344 187.126 550.852 186.938Q551.359 186.75 551.875 186.587Q552.391 186.424 552.915 186.286Q553.438 186.149 553.968 186.038Q554.497 185.926 555.032 185.841Z"/>
	<path fill="#9F8BE8" d="M619.064 340.586Q619.512 340.558 619.96 340.552Q620.408 340.546 620.857 340.562Q621.305 340.578 621.752 340.617Q622.198 340.655 622.643 340.715Q623.087 340.775 623.528 340.857Q623.969 340.938 624.406 341.042Q624.842 341.145 625.273 341.27Q625.703 341.394 626.128 341.54Q626.552 341.686 626.968 341.852Q627.385 342.018 627.792 342.205Q628.2 342.392 628.598 342.598Q628.997 342.805 629.384 343.03Q629.772 343.256 630.148 343.5Q630.524 343.745 630.887 344.008Q631.25 344.27 631.601 344.55Q631.951 344.831 632.287 345.128Q632.623 345.425 632.944 345.738Q633.265 346.051 633.57 346.38Q633.875 346.708 634.164 347.052Q634.452 347.395 634.724 347.752Q634.995 348.109 635.249 348.479Q635.502 348.849 635.738 349.23Q635.973 349.612 636.189 350.005Q636.405 350.398 636.601 350.801Q636.798 351.204 636.974 351.617Q637.151 352.029 637.307 352.449Q637.463 352.87 637.598 353.297Q637.733 353.725 637.847 354.159Q637.961 354.593 638.054 355.031Q638.146 355.47 638.217 355.913Q638.288 356.356 638.337 356.802Q638.386 357.247 638.413 357.695Q638.44 358.143 638.445 358.591Q638.45 359.04 638.433 359.488Q638.416 359.936 638.377 360.383Q638.338 360.829 638.277 361.274Q638.216 361.718 638.134 362.159Q638.051 362.6 637.947 363.036Q637.843 363.472 637.717 363.903Q637.592 364.333 637.445 364.757Q637.299 365.181 637.131 365.597Q636.964 366.013 636.777 366.421Q636.59 366.828 636.382 367.226Q636.175 367.623 635.949 368.011Q635.722 368.398 635.477 368.773Q635.232 369.149 634.968 369.512Q634.705 369.875 634.424 370.224Q634.143 370.574 633.846 370.909Q633.548 371.245 633.234 371.565Q632.92 371.885 632.591 372.19Q632.262 372.494 631.918 372.782Q631.574 373.07 631.217 373.341Q630.859 373.612 630.489 373.865Q630.118 374.118 629.736 374.352Q629.354 374.586 628.96 374.802Q628.567 375.017 628.163 375.213Q627.76 375.408 627.347 375.584Q626.935 375.76 626.514 375.915Q626.093 376.07 625.665 376.204Q625.237 376.339 624.803 376.452Q624.369 376.565 623.93 376.657Q623.491 376.748 623.048 376.818Q622.605 376.888 622.16 376.937Q621.714 376.985 621.266 377.011Q620.819 377.037 620.372 377.041Q619.925 377.046 619.478 377.028Q619.031 377.01 618.585 376.971Q618.14 376.931 617.697 376.87Q617.253 376.808 616.814 376.725Q616.374 376.642 615.939 376.538Q615.504 376.433 615.075 376.307Q614.646 376.182 614.223 376.035Q613.8 375.889 613.385 375.722Q612.97 375.555 612.564 375.367Q612.158 375.18 611.761 374.973Q611.365 374.766 610.979 374.54Q610.593 374.314 610.218 374.069Q609.844 373.825 609.482 373.562Q609.12 373.299 608.771 373.019Q608.422 372.739 608.088 372.442Q607.753 372.145 607.434 371.832Q607.114 371.518 606.81 371.19Q606.506 370.862 606.219 370.519Q605.932 370.176 605.661 369.82Q605.391 369.463 605.138 369.094Q604.886 368.725 604.652 368.344Q604.418 367.962 604.203 367.57Q603.988 367.178 603.792 366.776Q603.596 366.373 603.421 365.962Q603.245 365.551 603.09 365.131Q602.934 364.712 602.8 364.285Q602.665 363.858 602.552 363.426Q602.438 362.993 602.346 362.555Q602.254 362.117 602.183 361.676Q602.113 361.234 602.064 360.789Q602.015 360.345 601.988 359.898Q601.961 359.451 601.956 359.004Q601.951 358.557 601.968 358.11Q601.984 357.663 602.023 357.217Q602.062 356.771 602.122 356.328Q602.183 355.885 602.265 355.445Q602.347 355.005 602.451 354.57Q602.555 354.135 602.679 353.705Q602.804 353.276 602.95 352.853Q603.096 352.43 603.262 352.015Q603.428 351.599 603.615 351.193Q603.801 350.786 604.007 350.389Q604.213 349.992 604.439 349.605Q604.664 349.219 604.908 348.844Q605.152 348.469 605.414 348.106Q605.676 347.744 605.956 347.395Q606.235 347.045 606.532 346.71Q606.828 346.375 607.141 346.055Q607.453 345.735 607.781 345.43Q608.108 345.126 608.451 344.838Q608.793 344.549 609.149 344.278Q609.505 344.008 609.874 343.754Q610.242 343.501 610.623 343.266Q611.004 343.031 611.396 342.816Q611.788 342.6 612.19 342.403Q612.592 342.207 613.003 342.03Q613.414 341.854 613.833 341.698Q614.252 341.542 614.679 341.406Q615.105 341.271 615.537 341.156Q615.97 341.042 616.408 340.949Q616.845 340.856 617.287 340.785Q617.728 340.713 618.173 340.664Q618.618 340.614 619.064 340.586Z"/>
	<path fill="#9F8BE8" d="M782.386 430.835Q782.809 430.824 783.231 430.833Q783.654 430.842 784.076 430.872Q784.497 430.902 784.917 430.953Q785.337 431.004 785.753 431.075Q786.17 431.146 786.583 431.238Q786.995 431.329 787.403 431.441Q787.811 431.553 788.213 431.685Q788.614 431.816 789.009 431.968Q789.404 432.119 789.791 432.29Q790.177 432.46 790.555 432.649Q790.933 432.839 791.302 433.046Q791.67 433.254 792.028 433.479Q792.385 433.705 792.731 433.948Q793.077 434.19 793.411 434.45Q793.745 434.709 794.065 434.985Q794.386 435.261 794.693 435.552Q794.999 435.843 795.291 436.148Q795.583 436.454 795.86 436.774Q796.137 437.093 796.397 437.426Q796.658 437.759 796.902 438.104Q797.146 438.45 797.372 438.806Q797.599 439.163 797.808 439.531Q798.017 439.898 798.207 440.276Q798.398 440.653 798.57 441.039Q798.741 441.426 798.894 441.82Q799.047 442.214 799.18 442.616Q799.313 443.017 799.426 443.424Q799.539 443.831 799.632 444.244Q799.725 444.656 799.798 445.073Q799.87 445.489 799.922 445.909Q799.974 446.328 800.006 446.75Q800.037 447.171 800.048 447.594Q800.059 448.017 800.049 448.439Q800.039 448.862 800.008 449.284Q799.977 449.705 799.925 450.125Q799.874 450.544 799.802 450.961Q799.73 451.378 799.637 451.79Q799.545 452.203 799.432 452.61Q799.319 453.018 799.187 453.419Q799.055 453.821 798.902 454.215Q798.75 454.61 798.579 454.996Q798.408 455.383 798.218 455.76Q798.028 456.138 797.82 456.506Q797.611 456.874 797.385 457.231Q797.159 457.588 796.915 457.934Q796.672 458.279 796.412 458.613Q796.152 458.946 795.875 459.266Q795.599 459.586 795.307 459.892Q795.016 460.198 794.71 460.49Q794.403 460.781 794.083 461.057Q793.763 461.333 793.429 461.593Q793.096 461.853 792.75 462.096Q792.405 462.34 792.047 462.565Q791.69 462.791 791.322 463Q790.954 463.208 790.576 463.398Q790.198 463.587 789.812 463.758Q789.425 463.929 789.031 464.081Q788.636 464.233 788.235 464.365Q787.833 464.498 787.425 464.61Q787.018 464.722 786.605 464.815Q786.193 464.907 785.776 464.979Q785.359 465.05 784.94 465.102Q784.52 465.153 784.098 465.184Q783.677 465.214 783.254 465.224Q782.833 465.234 782.411 465.223Q781.989 465.212 781.569 465.181Q781.148 465.149 780.73 465.097Q780.311 465.045 779.896 464.972Q779.481 464.9 779.069 464.807Q778.658 464.714 778.252 464.601Q777.845 464.489 777.445 464.356Q777.045 464.223 776.651 464.071Q776.258 463.919 775.873 463.748Q775.487 463.577 775.111 463.387Q774.734 463.197 774.367 462.989Q774.001 462.781 773.645 462.555Q773.288 462.329 772.944 462.086Q772.599 461.843 772.267 461.584Q771.934 461.324 771.615 461.049Q771.296 460.773 770.991 460.482Q770.685 460.191 770.395 459.886Q770.104 459.58 769.828 459.261Q769.553 458.942 769.294 458.609Q769.034 458.277 768.792 457.932Q768.549 457.587 768.323 457.231Q768.097 456.875 767.89 456.508Q767.682 456.141 767.492 455.764Q767.302 455.388 767.131 455.002Q766.961 454.617 766.809 454.223Q766.657 453.83 766.524 453.429Q766.392 453.029 766.279 452.623Q766.167 452.216 766.074 451.805Q765.982 451.394 765.909 450.978Q765.837 450.563 765.785 450.144Q765.733 449.726 765.702 449.305Q765.671 448.885 765.66 448.463Q765.649 448.041 765.659 447.62Q765.669 447.198 765.7 446.778Q765.731 446.357 765.782 445.938Q765.833 445.52 765.905 445.104Q765.976 444.689 766.068 444.277Q766.16 443.866 766.272 443.459Q766.384 443.053 766.516 442.652Q766.648 442.251 766.799 441.858Q766.951 441.464 767.121 441.078Q767.292 440.693 767.481 440.316Q767.67 439.939 767.877 439.572Q768.084 439.204 768.309 438.848Q768.535 438.491 768.777 438.146Q769.019 437.801 769.278 437.468Q769.537 437.135 769.812 436.815Q770.087 436.496 770.377 436.19Q770.667 435.884 770.972 435.592Q771.277 435.301 771.596 435.025Q771.915 434.749 772.247 434.489Q772.579 434.229 772.923 433.985Q773.267 433.742 773.623 433.516Q773.979 433.289 774.345 433.081Q774.712 432.872 775.088 432.682Q775.464 432.491 775.85 432.319Q776.235 432.148 776.628 431.995Q777.021 431.842 777.421 431.709Q777.821 431.576 778.227 431.463Q778.634 431.349 779.045 431.256Q779.456 431.162 779.871 431.089Q780.287 431.016 780.705 430.963Q781.124 430.911 781.544 430.879Q781.964 430.846 782.386 430.835Z"/>
	<path fill="#9F8BE8" d="M520.742 121.479Q521.144 121.418 521.549 121.378Q521.953 121.337 522.359 121.316Q522.765 121.295 523.172 121.294Q523.578 121.293 523.984 121.312Q524.39 121.331 524.795 121.369Q525.2 121.408 525.602 121.467Q526.004 121.525 526.403 121.603Q526.802 121.681 527.197 121.779Q527.592 121.876 527.981 121.993Q528.37 122.11 528.754 122.246Q529.137 122.381 529.513 122.536Q529.889 122.69 530.257 122.863Q530.625 123.035 530.985 123.225Q531.344 123.416 531.693 123.623Q532.043 123.831 532.382 124.056Q532.721 124.28 533.048 124.521Q533.376 124.762 533.691 125.019Q534.006 125.275 534.308 125.547Q534.611 125.819 534.9 126.105Q535.188 126.391 535.463 126.691Q535.737 126.992 535.996 127.305Q536.255 127.618 536.499 127.943Q536.743 128.269 536.97 128.606Q537.198 128.943 537.408 129.29Q537.619 129.638 537.812 129.996Q538.006 130.353 538.182 130.72Q538.357 131.086 538.515 131.461Q538.672 131.836 538.811 132.218Q538.95 132.6 539.07 132.989Q539.19 133.377 539.291 133.771Q539.392 134.165 539.474 134.563Q539.555 134.961 539.617 135.363Q539.679 135.765 539.721 136.169Q539.763 136.574 539.786 136.979Q539.808 137.385 539.81 137.792Q539.813 138.199 539.795 138.605Q539.778 139.011 539.74 139.416Q539.703 139.82 539.646 140.223Q539.589 140.626 539.512 141.025Q539.435 141.424 539.339 141.819Q539.243 142.214 539.127 142.604Q539.012 142.994 538.877 143.377Q538.743 143.761 538.59 144.138Q538.437 144.514 538.266 144.883Q538.094 145.252 537.905 145.612Q537.716 145.971 537.51 146.322Q537.303 146.672 537.08 147.011Q536.856 147.351 536.617 147.679Q536.377 148.008 536.121 148.324Q535.866 148.64 535.595 148.943Q535.324 149.247 535.039 149.536Q534.754 149.826 534.454 150.101Q534.155 150.377 533.843 150.637Q533.531 150.897 533.206 151.142Q532.882 151.387 532.546 151.615Q532.209 151.844 531.862 152.056Q531.515 152.268 531.158 152.462Q530.802 152.657 530.435 152.834Q530.069 153.011 529.695 153.17Q529.321 153.328 528.939 153.469Q528.558 153.609 528.17 153.73Q527.782 153.852 527.388 153.954Q526.995 154.056 526.597 154.139Q526.199 154.222 525.797 154.285Q525.394 154.349 524.988 154.392Q524.582 154.436 524.174 154.459Q523.766 154.483 523.358 154.487Q522.95 154.49 522.542 154.474Q522.134 154.457 521.727 154.42Q521.321 154.384 520.916 154.327Q520.512 154.271 520.111 154.194Q519.71 154.118 519.313 154.022Q518.916 153.926 518.524 153.811Q518.132 153.695 517.747 153.561Q517.361 153.426 516.983 153.273Q516.605 153.12 516.234 152.948Q515.864 152.776 515.502 152.587Q515.141 152.397 514.789 152.189Q514.437 151.982 514.096 151.758Q513.755 151.534 513.425 151.293Q513.095 151.052 512.778 150.795Q512.46 150.538 512.156 150.266Q511.851 149.994 511.561 149.707Q511.27 149.421 510.994 149.12Q510.717 148.819 510.456 148.506Q510.195 148.192 509.95 147.865Q509.704 147.539 509.475 147.201Q509.246 146.863 509.034 146.514Q508.822 146.165 508.627 145.806Q508.432 145.447 508.255 145.079Q508.078 144.711 507.92 144.335Q507.761 143.959 507.622 143.575Q507.482 143.192 507.361 142.802Q507.24 142.412 507.138 142.016Q507.037 141.621 506.955 141.221Q506.873 140.821 506.811 140.417Q506.749 140.013 506.707 139.607Q506.664 139.201 506.642 138.794Q506.62 138.386 506.618 137.978Q506.616 137.569 506.634 137.161Q506.652 136.754 506.69 136.347Q506.727 135.941 506.785 135.536Q506.843 135.132 506.921 134.731Q506.999 134.331 507.096 133.934Q507.193 133.538 507.31 133.146Q507.427 132.755 507.563 132.37Q507.698 131.985 507.853 131.607Q508.008 131.229 508.181 130.859Q508.354 130.49 508.544 130.129Q508.735 129.768 508.944 129.417Q509.152 129.066 509.378 128.725Q509.603 128.385 509.845 128.056Q510.087 127.727 510.345 127.411Q510.603 127.094 510.876 126.79Q511.149 126.487 511.436 126.197Q511.724 125.907 512.026 125.632Q512.327 125.357 512.642 125.097Q512.957 124.837 513.284 124.593Q513.611 124.348 513.95 124.12Q514.289 123.892 514.638 123.681Q514.988 123.47 515.347 123.277Q515.707 123.083 516.075 122.908Q516.444 122.732 516.82 122.575Q517.197 122.418 517.581 122.279Q517.965 122.14 518.356 122.021Q518.746 121.901 519.142 121.801Q519.538 121.701 519.938 121.62Q520.338 121.54 520.742 121.479Z"/>
	<path fill="#9F8BE8" d="M0 779.482C8.53692 761.105 16.6947 742.61 26.581 724.893C58.1255 668.36 103.804 615.743 158.905 581.217C169.86 574.352 182.079 569.211 193.478 563.071C180.577 580.358 165.999 597.492 146.744 608.029C143.369 605.913 139.421 602.027 135.366 601.861C133.968 602.328 132.609 603.507 132.043 604.9C131.549 606.117 131.783 607.438 132.395 608.558C135.082 613.478 147.458 619.512 152.559 622.265C181.642 637.963 213.037 647.147 244.867 655.458C274.089 663.087 304.109 669.608 330.526 684.814C392.043 720.223 410.948 784.806 435.315 846.638L481.156 963.091C486.749 977.082 492.168 991.202 498.259 1004.98C500.739 1010.59 503.236 1017.05 506.842 1022.01C507.449 1022.53 508.139 1022.89 508.824 1023.3C511.832 1023.46 513.251 1021.94 515.393 1020.04C514.993 1018.22 514.509 1017.23 515.502 1015.51C518.379 1010.51 537.901 994.308 543.405 989.343C566.66 968.368 589.828 947.165 613.645 926.835C623.972 918.019 634.288 908.62 645.379 900.783C655.994 893.282 668.603 885.857 681.411 883.146C683.613 882.68 686.101 882.268 688.343 882.64C694.139 883.602 711.74 892.899 719.131 895.861C713.79 905.294 706.08 914.065 697.506 920.702C692.556 924.532 686.871 927.689 681.556 931C669.9 938.262 658.077 945.208 646.305 952.275Q602.737 978.708 558.005 1003.12C547.097 1009.04 534.596 1016.78 523.237 1021.17C521.977 1022.06 520.782 1022.88 519.71 1024L500.857 1024L259.394 1024L257.771 1024L0 1024L0 779.482Z"/>
	<path fill="#010100" d="M257.771 1024C252.517 1019.48 248.511 1007.22 245.654 1000.7C226.155 956.256 212.065 910.537 208.439 861.937C204.631 810.905 216.061 754.034 250.315 714.461C259.336 704.04 269.615 695.587 282.415 690.307C285.163 689.174 288.329 687.728 291.338 687.622C292.689 687.574 293.729 687.917 294.692 688.907C295.359 689.593 295.534 690.106 295.746 690.999C295.553 692.647 294.895 693.695 293.638 694.736C290.903 697.002 286.739 698.227 283.506 699.68C279.392 701.529 275.11 704.047 271.64 706.938C239.893 733.381 224.579 774.556 219.334 814.431C212.505 866.345 223.915 918.835 242.549 967.226Q248.742 983.228 255.433 999.028C258.084 1005.22 262.42 1012.51 263.677 1019.1C263.909 1020.32 263.647 1021.16 262.628 1021.95C261.633 1022.73 260.489 1023.38 259.394 1024L257.771 1024Z"/>
	<path fill="#9F8BE8" d="M701.692 927.894C720.083 940.833 742.838 959.243 750.74 980.864C747.652 985.095 743.682 988.775 740.023 992.511C729.395 1003.36 718.138 1013.46 707.219 1024L537.894 1024C574.867 1004.56 610.803 983.453 646.761 962.224C659.987 954.415 673.239 946.742 686.161 938.426C691.35 935.087 696.93 931.823 701.692 927.894Z"/>
	<path fill="#49365E" d="M323.3 144.207C341.369 142.182 366.459 145.759 383.993 150.691C430.763 163.846 478.787 197.057 502.824 239.808C499.482 239.713 495.154 238.747 492.435 241.057C491.807 242.27 491.332 243.309 491.526 244.742C491.761 246.473 493.289 247.492 494.798 248.044C498.167 249.279 501.928 249.061 505.424 249.662C512.967 250.958 521.894 254.626 528.394 258.616C547.16 270.137 560.741 290.285 565.84 311.534C570.738 331.948 568.769 355.29 557.577 373.407Q556.773 374.698 555.906 375.948Q555.039 377.198 554.111 378.404Q553.184 379.609 552.198 380.768Q551.212 381.926 550.17 383.035Q549.128 384.143 548.032 385.199Q546.937 386.254 545.791 387.254Q544.645 388.255 543.451 389.197Q542.256 390.139 541.017 391.022Q539.778 391.904 538.497 392.724Q537.216 393.544 535.896 394.3Q534.576 395.056 533.22 395.746Q531.864 396.436 530.476 397.058Q529.088 397.68 527.671 398.233Q526.253 398.786 524.811 399.268Q523.368 399.75 521.903 400.161Q520.438 400.571 518.955 400.909C532.654 373.363 536.148 366.8 535.374 335.057C537.404 332.357 540.281 329.773 541.351 326.503C541.816 325.082 541.785 323.703 540.961 322.42C539.969 320.877 538.691 320.378 536.959 320.121C533.113 320.869 529.861 327.85 527.441 330.772C526.084 332.411 524.435 333.843 522.84 335.243C501.677 353.81 473.39 356.898 446.411 355.211C457.029 350.601 467.402 347.396 477.129 340.812Q478.597 339.806 480.029 338.749Q481.462 337.692 482.856 336.586Q484.251 335.48 485.606 334.326Q486.961 333.172 488.275 331.971Q489.589 330.771 490.86 329.525Q492.131 328.279 493.358 326.99Q494.585 325.7 495.766 324.369Q496.947 323.038 498.081 321.666Q499.216 320.294 500.301 318.883Q501.386 317.473 502.422 316.025Q503.458 314.578 504.442 313.095Q505.427 311.612 506.359 310.096Q507.291 308.579 508.169 307.031Q509.048 305.483 509.872 303.906Q510.696 302.328 511.465 300.723Q512.233 299.117 512.945 297.486C514.231 294.529 515.87 291.37 516.392 288.17C516.645 286.616 516.725 285.003 515.593 283.747C514.586 282.629 513.67 282.388 512.237 282.212C507.532 283.432 503.349 297.364 501.139 301.686C492.694 318.198 479.779 330.101 463.485 338.79C445.257 348.51 423.301 352.192 402.943 354.578C397.928 355.166 392.76 355.238 387.786 355.998C386.427 356.205 384.383 356.86 383.479 357.98C382.902 358.696 382.556 359.239 382.616 360.163C382.708 361.592 383.359 362.459 384.391 363.404C387.365 366.13 397.737 363.972 401.752 363.814C389.57 372.647 379.094 383.486 366.421 391.826C364.228 378.373 362.328 363.281 354.638 351.666C350.428 345.308 343.975 340.443 336.436 338.944C327.728 337.212 319.203 339.052 311.855 343.994C298.41 353.036 290.164 369.647 287.089 385.166C283.105 405.272 286.827 425.428 298.304 442.458C298.286 446.537 298.83 450.571 299.248 454.622C303.438 495.234 295.66 528.467 269.643 560.482Q269.155 561.091 268.654 561.69C242.747 592.86 202.866 603.85 164.178 607.512C169.775 602.9 175.528 598.38 180.648 593.233C202.666 571.098 215.754 542.299 225.861 513.218C229.81 501.855 234.22 489.445 235.955 477.492C236.357 474.721 236.698 471.843 234.941 469.479C233.598 468.944 233.261 468.831 231.8 469.21C230.111 469.648 229.138 470.732 228.454 472.27C226.179 477.382 225.415 483.811 223.825 489.235C218.857 506.182 213.673 525.083 205.093 540.614C197.629 554.123 178.148 563.155 163.851 567.233C136.601 575.005 113.325 570.291 89.0335 556.801C97.3599 553.318 105.479 549.311 112.961 544.228C133.217 530.464 151.293 511.873 165.51 492.004C168.153 488.311 171.17 484.504 173.108 480.383C174.189 478.086 174.52 476.444 173.673 474.042C172.775 473.153 172.363 472.585 170.998 472.529C169.087 472.45 167.308 473.894 166.088 475.21C162.298 479.299 159.5 484.956 156.098 489.48C146.246 502.582 134.947 515.32 122.194 525.668C113.916 526.595 105.636 525.089 97.9261 522.034C70.6547 511.228 51.3976 480.885 40.1833 455.113C49.6712 458.262 58.77 459.133 68.7491 458.338C88.8404 456.737 109.158 447.035 124.681 434.463C146.721 416.613 161.989 391.476 165.842 363.2C167.955 347.691 166.55 331.405 166.417 315.766C166.047 272.123 174.499 232.771 203.691 198.873C232.591 165.315 279.951 147.349 323.3 144.207Z"/>
	<path fill="#010100" d="M472.668 264.952C473.915 264.931 474.846 265.125 475.986 265.601C477.414 266.197 477.797 266.674 478.32 268.035C478.205 269.056 478 269.836 477.463 270.708C474.985 274.726 470.463 278.107 466.879 281.153C448.142 297.07 425.116 311.262 401.108 317.49C400.794 317.496 400.481 317.51 400.167 317.509C398.824 317.506 397.487 317.036 396.633 315.938C395.516 314.501 395.836 312.807 396.176 311.191C396.839 310.309 397.43 309.747 398.417 309.23C401.05 307.851 404.178 307.233 406.973 306.213C411.201 304.67 415.32 302.772 419.405 300.888C432.243 294.968 444.776 287.738 455.884 278.959C461.268 274.704 466.596 268.048 472.668 264.952Z"/>
	<path fill="#FEFEFE" d="M525.647 344.423L526.242 344.71C527.146 348.565 526.07 353.693 525.52 357.549C521.054 388.839 506.223 397.851 494.013 423.314Q490.882 420.001 487.874 416.576C481.14 416.482 473.969 417.415 467.373 415.75C462.6 414.545 455.046 408.528 450.257 409.972C449.533 410.553 448.982 410.975 448.654 411.89C448.296 412.892 448.297 414.447 448.848 415.392C450.814 418.769 459.055 422.23 462.527 423.784C460.041 426.697 457.823 429.503 456.465 433.133C455.794 434.926 455.246 437.031 456.17 438.824C456.628 439.713 457.585 440.274 458.541 440.504C464.434 441.918 464.631 433.246 469.113 430.948C473.626 428.634 476.348 434.078 480.253 434.815C482.128 435.168 483.625 434.677 485.219 433.739C486.244 431.178 483.837 429.803 484.286 427.946C486.563 426.796 490.587 428.648 492.924 429.361Q492.915 440.348 494.543 451.213C495.639 458.821 500.271 478.22 499.053 485.001C496.917 496.895 477.616 494.514 469.824 500.145C464.211 504.2 463.679 513.43 462.634 519.736C448.732 522.431 434.361 518.597 426.28 506.305C424.342 503.357 423.702 500.003 421.977 497.042C421.332 495.934 419.984 495.026 418.788 494.592C417.613 494.165 416.978 494.212 415.847 494.664C414.974 495.568 414.642 496.681 414.453 497.903C413.475 504.217 416.935 510.233 420.611 515.041C428.555 525.433 440.328 528.413 452.657 530.045C451.937 532.182 451.285 534.674 450.145 536.617C446.36 543.071 438.882 546.244 434.908 553.077C429.95 561.602 429.761 572.298 424.155 580.398C421.145 584.746 416.748 587.627 411.502 588.428C386.39 592.261 343.781 555.809 326.822 538.345C324.076 535.517 314.266 522.931 312.162 521.72C310.89 520.988 308.759 520.712 307.361 521.371C306.097 521.966 306.02 522.365 305.562 523.584C306.053 529.445 312.313 535.323 315.991 539.676C323.073 547.417 330.914 554.958 339.213 561.384C330.193 579.194 324.091 598.313 318.813 617.513C303.972 601.137 285.005 589.758 266.366 578.322C271.885 571.184 278.661 565.16 283.765 557.639C305.185 526.076 314.56 487.021 307.27 449.412C309.612 449.49 312.525 449.856 314.477 448.318C315.159 447.781 315.312 447.15 315.374 446.295C315.626 442.831 307.807 439.049 305.59 436.356C296.108 424.839 293.472 406.419 295.052 392.042C296.611 377.854 303.819 361.425 315.243 352.425C319.905 348.753 326.124 345.899 332.164 346.772C350.83 349.467 355.416 374.504 357.123 389.658C357.509 393.086 357.005 400.908 359.191 403.24C360.088 404.196 361.52 404.59 362.807 404.539C370.075 404.247 409.364 368.668 415.25 361.745C419.725 360.482 424.669 360.064 429.27 359.382C432.449 361.198 435.364 362.144 438.945 362.822C460.345 366.872 487.367 364.818 507.185 355.839C513.742 352.867 519.696 348.43 525.647 344.423Z"/>
	<path fill="#010100" d="M322.963 358.034C326.083 358.073 328.534 358.654 331.232 360.273C337.33 363.933 341.418 370.353 343.117 377.131C335.501 387.148 329.481 396.923 328 409.743C327.6 413.21 327.661 416.717 327.314 420.187C327.06 422.728 326.571 423.832 324.585 425.472C323.578 425.405 322.47 425.426 321.586 424.854C319.982 423.817 319.072 421.65 318.706 419.859C318.076 416.776 318.57 413.114 318.997 410.015C320.872 396.401 326.3 386.134 333.5 374.694C332.253 372.561 330.897 370.74 329.33 368.842C326.647 367.899 322.018 366.675 320.316 364.305C319.453 363.104 319.586 362.645 319.711 361.254C320.621 359.675 321.439 359.013 322.963 358.034Z"/>
	<path fill="#010100" d="M500.779 373.708C504.678 373.449 509.633 373.011 512.789 375.788C513.972 376.828 514.542 378.137 514.585 379.698C514.646 381.919 513.178 384.117 511.587 385.531C505.854 390.627 496.672 389.466 489.68 388.857Q488.212 388.687 486.77 388.362C482.276 387.327 476.037 386.239 473.437 382.042C473.359 380.726 473.263 380.395 474.194 379.338C477.268 375.848 495.71 374.094 500.779 373.708Z"/>
	<path fill="#FEFEFE" d="M811.857 772.333C814.461 774.362 814.769 776.892 815.5 779.924C809.229 795.955 796.743 809.518 785.308 822.103C780.424 827.477 775.298 832.851 771.381 838.992C801.031 831.939 826.594 806.868 850.247 788.696C856 784.276 862.54 778.296 869.349 775.676C870.432 775.259 872.184 774.733 873.272 775.325C874.42 775.949 874.918 776.919 875.21 778.159C878.247 791.057 847.078 818.017 838.432 827.46C834.555 831.695 831.075 836.081 828.237 841.08C840.201 835.692 849.274 825.446 859.96 818.046L860.5 818.521C860.972 833.167 841.343 849.344 841.76 857.543C842.325 858.633 842.512 859.237 843.816 859.589C849.835 861.209 856.554 846.031 861.381 842.26L861.986 841.792C862.099 848.53 860.781 854.989 858.285 861.247C855.762 867.573 846.636 879.818 848.111 886.161C849.609 886.838 851.367 887.79 853.028 887.103C857.606 885.21 861.845 874.582 864.24 870.148C865.117 873.117 865.619 876.209 865.547 879.31C865.423 884.665 862.4 888.154 858.737 891.696C853.819 896.451 847.938 900.32 842.427 904.353C832.175 911.855 821.753 919.203 811.689 926.953Q795.646 939.249 780.562 952.704C772.744 959.802 765.315 967.329 757.554 974.493C750.1 958.134 736.751 944.513 722.91 933.277C718.233 929.481 713.228 926.122 708.634 922.22C734.406 896.218 737.37 874.565 752.675 843.94C763.207 822.868 780.563 803.466 796.741 786.544C801.538 781.526 806.14 776.328 811.857 772.333Z"/>
	<path fill="#9F8BE8" d="M565.869 861.924C574.233 866.441 600.607 910.611 606.773 921.123C583.846 941.756 560.386 961.777 537.503 982.46C529.049 990.102 520.34 997.606 512.25 1005.63C511.574 1006.39 511.135 1006.84 510.192 1007.25C507.233 1005.29 477.066 927.144 472.903 916.61C504.286 899.127 534.545 879.548 565.869 861.924Z"/>
	<path fill="#CBC1F8" d="M810.823 584.908C828.051 590.829 845.057 598.597 861.91 605.562C873.164 610.213 885.577 614.293 896.166 620.207C886.052 643.431 873.639 665.835 862.673 688.684C853.872 707.023 845.272 725.398 836.226 743.627C831.517 753.118 826.941 762.721 821.556 771.853C815.553 763.697 807.881 761.713 800.103 755.605C800.745 752.341 801.814 749.079 802.702 745.868C816.191 742.387 823.218 737.108 832.086 726.4Q832.656 726.709 833.235 727.003C835.049 727.919 837.574 728.75 839.565 727.969C843.08 726.59 838.782 719.311 839.998 716.584C841.022 716.818 842.058 717.065 843.1 717.202C844.676 717.408 846.351 717.282 847.608 716.205C852.807 711.749 855.142 701.371 855.792 694.834C856.711 685.582 854.74 674.107 848.804 666.77C849.992 665.457 851.158 664.108 851.869 662.466Q852.123 661.886 852.317 661.283Q852.512 660.68 852.644 660.061Q852.776 659.442 852.845 658.812Q852.914 658.183 852.919 657.549Q852.924 656.916 852.865 656.286Q852.806 655.655 852.684 655.034Q852.561 654.412 852.377 653.807Q852.192 653.201 851.947 652.617C850.079 648.143 845.954 644.93 841.561 643.136C837.21 641.36 831.642 640.507 827.208 642.47C824.689 643.585 823.327 645.345 822.343 647.857L821.762 649.552C821.579 649.335 821.401 649.115 821.214 648.902C819.006 646.378 815.645 645.406 812.378 645.293C803.274 644.977 793.203 650.819 786.869 656.962C783.825 659.914 775.114 672.707 775.415 676.497C775.605 678.894 778.628 680.745 780.399 682.095C773.122 693.346 766.506 709.394 768.23 723.095C769.224 730.995 773.613 735.659 779.602 740.309C777.183 743.318 775.181 746.526 773.423 749.955C758.663 748.387 743.541 750.782 728.896 752.602C731.217 746.246 735.34 740.215 738.311 734.107Q749.723 710.081 761.519 686.24L793.595 619.539C799.125 608.054 803.991 595.679 810.823 584.908Z"/>
	<path fill="#FEFEFE" d="M734.224 710.366C735.317 710.682 736.164 711.456 736.696 712.479C738.038 715.062 736.973 717.908 736.007 720.427C730.348 735.188 713.809 748.747 699.755 754.998C699.682 755.132 699.608 755.264 699.537 755.399C692.473 768.8 686.788 783.002 680.094 796.598Q671.518 813.713 663.229 830.967C659.901 837.789 655.888 844.865 653.619 852.116C652.833 854.629 652.782 857.541 653.628 860.046C656.304 867.976 668.894 871.543 675.771 875.154C652.167 884.03 631.274 898.418 613.393 916.142L608.59 907.209C599.835 889.218 586.815 872.136 573.948 856.907C583.313 850.442 593.091 844.361 602.13 837.452C619.978 823.811 635.853 806.93 649.65 789.252C655.901 781.241 661.645 772.787 667.638 764.575C670.4 760.792 673.07 756.642 676.346 753.293C681.282 748.246 688.504 744.416 694.206 740.164C707.524 730.233 720.272 719.422 734.224 710.366Z"/>
	<path fill="#9F8BE8" d="M258.447 584.467Q270.072 590.712 281.112 597.942C310.927 617.763 337.73 646.647 345.039 682.778C338.872 679.268 332.912 675.457 326.564 672.265C310.615 664.245 293.768 659.16 276.609 654.465C253.617 648.184 230.35 642.967 207.667 635.563Q183.645 627.493 160.741 616.648C170.229 616.041 179.779 615.505 189.171 613.959Q193.852 613.154 198.478 612.078Q203.104 611.003 207.661 609.661Q212.217 608.319 216.687 606.715Q221.158 605.111 225.528 603.251Q229.898 601.391 234.153 599.28Q238.408 597.169 242.533 594.815Q246.658 592.461 250.64 589.872Q254.622 587.283 258.447 584.467Z"/>
	<path fill="#CBC1F8" d="M752.646 758.21L754.583 758.168L755.041 758.887C754.389 761.756 752.656 764.069 751.407 766.698C746.044 777.996 746.43 795.724 750.657 807.302C751.393 809.318 752.209 810.579 754.143 811.534C758.506 811.985 763.332 809.52 767.369 807.979C755.185 821.772 745.823 838.014 738.786 854.964C730.431 851.709 722.335 847.903 714.063 844.454C717.473 836.625 720.697 828.702 724.01 820.831C724.969 818.42 727.463 814.551 727.18 811.983C727.09 811.17 726.83 810.518 726.216 809.987C725.332 809.222 724.183 808.794 723.004 809.065C721.72 809.361 720.762 810.395 720.091 811.47C718.827 813.497 718.197 815.933 717.256 818.12C713.951 825.798 710.714 833.624 707.083 841.155L689.985 833.348C695.401 819.876 702.628 806.741 709.058 793.712C714.132 783.43 718.71 772.57 724.482 762.684C733.899 761.717 742.252 758.933 752.646 758.21Z"/>
	<path fill="#49365E" d="M807.057 568.571C809.265 568.33 811.198 568.306 813.36 568.926C823.45 571.822 833.482 577.435 843.149 581.596L883.156 598.353C893.133 602.573 903.031 607.117 913.143 611.001C897.221 644.809 879.673 677.874 863.626 711.642C851.439 737.288 839.292 762.796 825.853 787.816C822.585 793.9 819.892 801.071 815.78 806.554C811.805 811.854 803.888 816.083 798.164 819.17C807.746 807.924 812.94 798.907 820.367 786.493C823.423 781.384 827.159 776.69 830.06 771.487C835.609 761.534 840.213 751.003 845.132 740.727C852.141 726.085 859.213 711.583 865.913 696.787C871.423 686.433 904.508 622.317 903.539 616.506C902.873 615.734 902.257 615.112 901.38 614.575C897.805 612.384 893.429 610.925 889.561 609.318L870.094 601.216L833.28 585.88C826.811 583.227 820.207 580.129 813.526 578.096C811.715 577.544 809.158 576.91 807.286 577.539C805.612 578.102 804.438 579.194 803.572 580.722C800.241 586.595 797.971 593.506 794.875 599.62C776.965 634.982 761.693 671.768 742.346 706.368C740.618 705.055 738.782 703.873 736.986 702.654L782.824 610.43Q788.039 600.084 792.876 589.555C795.302 584.304 797.507 578.674 800.574 573.77C802.287 571.03 804.164 569.898 807.057 568.571Z"/>
	<path fill="#49365E" d="M720.434 751.533C720.523 751.764 720.688 751.98 720.702 752.228C720.716 752.478 713.145 767.183 712.216 769.047Q701.53 790.089 691.241 811.327C687.04 820.056 682.659 828.702 679.479 837.869C684.929 841.415 692.247 843.716 698.272 846.358C710.46 851.701 722.543 857.334 734.889 862.305Q729.941 875.66 723.844 888.53L719.827 886.713C710.72 881.841 664.466 862.727 661.234 857.56C660.795 856.859 661.111 855.701 661.292 854.93C662.758 848.694 667.234 841.862 670.095 836.026L692.891 789.89C696.279 782.972 702.872 766.39 706.919 761.05C709.826 757.214 716.406 754.135 720.434 751.533Z"/>
	<path fill="#9F8BE8" d="M810.518 668.568L812.808 668.558L813.241 668.908C814.9 670.248 814.681 680.681 815.481 683.595C818.588 694.915 825.348 702.419 833.41 710.652C830.666 714.964 827.623 719.304 824.417 723.283C817.323 732.084 810.189 736.768 798.816 737.975C795.562 737.766 792.396 737.447 789.264 736.463C784.249 734.888 779.842 732.009 777.463 727.177C770.632 713.301 781.817 695.1 786.314 682.128L786.46 681.695C795.919 679.356 801.13 670.578 810.518 668.568Z"/>
	<path fill="#010100" d="M788.747 704.26L790.034 704.547C793.137 707.312 790.357 711.331 791.635 714.995C794.998 724.637 805.144 715.101 810.394 717.761C811.191 718.85 811.339 719.413 811.43 720.755C810.947 722.375 810.184 723.033 808.972 724.112C805.095 725.801 800.758 726.885 796.517 726.187C792.132 725.465 788.372 722.782 785.945 719.102C784.233 716.507 783.267 713.423 784.001 710.331C784.704 707.369 786.218 705.811 788.747 704.26Z"/>
	<path fill="#010100" d="M785.771 688.526C789.029 688.413 792.354 688.086 795.289 689.837C796.376 690.485 797.025 691.448 797.196 692.701C797.42 694.336 796.939 695.383 796.045 696.693C793.444 696.834 790.143 696.095 787.732 695.084C786.121 694.409 785.178 693.642 784.488 692.009C784.503 690.337 784.845 689.832 785.771 688.526Z"/>
	<path fill="#010100" d="M813.446 699.931C815.464 700.044 816.838 700.577 818.196 702.075C819.733 703.77 820.532 705.654 820.27 707.959C820.069 709.726 819.091 710.36 817.777 711.337C815.968 709.749 813.793 708.44 812.066 706.865C810.955 705.852 810.774 705.025 810.613 703.595C811.282 701.857 812.03 701.117 813.446 699.931Z"/>
	<path fill="#9F8BE8" d="M919.505 613.377C922.922 616.165 924.738 619.732 926.694 623.57Q901.084 675.749 876.265 728.31C871.012 739.284 857.446 763.438 855.748 774.384C848.388 779.384 841.68 785.286 834.906 791.034C833.306 792.351 831.577 793.555 829.921 794.804C832.749 788.082 836.972 781.715 840.326 775.209C846.15 763.911 851.563 752.362 857.003 740.876L889.845 673.023C899.338 653.116 908.438 632.466 919.505 613.377Z"/>
	<path fill="#49365E" d="M822.343 647.857C822.532 649.485 822.571 650.633 823.7 651.927C824.921 652.485 825.452 652.688 826.762 652.236C831.217 650.697 834.713 647.604 839.661 649.716C841.587 650.538 844.402 652.731 845.054 654.798C845.442 656.029 845.683 657.656 845.131 658.88C843.583 662.315 838.773 663.163 838.805 667.412C840.55 670.021 843.125 671.839 844.902 674.411C849.854 681.58 849.645 691.255 847.987 699.441C847.32 702.733 846.452 706.158 845.264 709.303C836.021 705.126 827.454 693.739 823.904 684.385C823.049 682.13 822.251 679.566 821.977 677.169C821.584 673.726 823.029 667.828 821.702 664.786C821.217 663.674 819.741 662.624 818.661 662.172C814.256 660.327 806.212 661.398 802.018 663.227C797.116 665.365 791.951 671.917 786.828 672.222L785.709 671.708C785.486 669.47 788.772 665.799 790.225 664.041C795.204 658.018 803.071 653.991 810.842 653.426C813.913 653.203 819.566 654.169 821.851 651.989C821.854 651.159 821.865 650.377 821.762 649.552L822.343 647.857Z"/>
	<path fill="#CBC1F8" d="M763.1 757.507C772.798 757.584 782.292 758.238 791.795 760.322Q796.679 764.842 801.668 769.246C794.883 776.78 787.744 783.978 781.159 791.694C775.683 797.296 765.13 801.503 757.848 804.072C751.519 787.927 756.552 772.564 763.1 757.507Z"/>
	<path fill="#FEFEFE" d="M785.111 743.517C788.558 743.933 791.877 744.657 795.257 745.437C794.074 747.927 792.523 750.236 791.068 752.574C787.694 752.21 784.357 751.473 781.028 750.828C782.201 748.247 783.613 745.917 785.111 743.517Z"/>
</svg>
