<?xml version="1.0" encoding="utf-8" ?>
<svg xmlns="http://www.w3.org/2000/svg" xmlns:xlink="http://www.w3.org/1999/xlink" width="1024" height="1024">
	<path fill="#9F8BE8" d="M0 0L721.539 0L728.714 0L854.873 0L859.585 0L920.853 0L928.952 0L954.158 0L962.84 0L997.64 0L1007.14 0L1024 0L1024 39.0387L1024 56.3127L1024 135.591L1024 151.749L1024 379.78L1024 390.91L1024 765.745L1024 888.114L1024 1024L443.761 1024L436.851 1024L393.026 1024L386.073 1024L377.259 1024L366.287 1024L317.767 1024L280.264 1024L223.59 1024L185.179 1024L158.209 1024L148.924 1024L99.3944 1024L50.6923 1024L45.8442 1024L0 1024L0 0Z"/>
	<path fill="#030201" d="M174.812 662.58C148.78 662.957 123.288 657.702 103.948 639.107C93.8954 629.442 87.3638 616.573 84.6728 602.933C83.9389 599.214 83.8333 593.816 82.1908 590.507C79.6799 595.74 79.7721 609.2 80.2681 615.099C80.5509 618.463 81.4665 622.255 81.066 625.601C80.8909 627.064 80.5425 627.802 79.2488 628.479C76.3826 627.678 74.1588 623.746 72.749 621.242C63.5583 604.922 62.8346 587.599 67.9268 569.832C72.4912 553.907 80.3264 538.574 80.8886 521.747C81.5391 502.276 70.4227 484.541 67.989 465.319C66.1669 450.927 68.6312 436.718 72.3002 422.825C85.486 372.896 115.704 343.214 159.915 318.893C170.327 313.165 181.74 308.404 191.763 302.094C197.65 298.389 202.65 293.335 208.511 289.526C229.78 275.702 257.829 267.245 282.938 274.414C293.28 277.366 302.496 283.221 307.767 292.788C309.547 296.02 311.388 299.931 312.151 303.554C312.42 304.827 312.256 307.056 312.693 308.118C313.522 310.134 330.84 320.694 334.137 323.697Q340.379 329.459 345.462 336.266C352.843 346.207 367.381 372.911 378.511 376.001C387.347 378.454 412.915 370.63 416.725 376.892C422.734 386.767 412.387 398.524 415.022 408.973C417.401 418.407 427.814 420.303 431.296 429.079C429.323 433.623 426.541 437.538 424.198 441.864C429.18 443.845 434.568 446.693 436.704 451.959C439.165 458.028 435 464.493 437.352 470.457C441.728 481.552 451.559 486.434 454.438 499.54C453.651 502.272 452.946 505.168 451.678 507.722C442.465 526.263 417.7 540.003 400.1 549.734L390.23 555.163C378.737 574.578 370.704 596.229 362.04 617.011C350.004 645.883 337.717 674.995 324.06 703.141C344.643 725.747 360.586 757.441 372.466 785.405C375.564 792.696 378.203 800.161 381.209 807.487C388.789 825.958 396.587 844.422 401.701 863.768C404.48 874.278 406.721 885.163 408.42 895.896C409.092 900.139 408.687 904.983 409.922 909.07C412.66 918.13 416.474 926.882 419.374 935.908C428.641 964.755 437.326 994.387 443.761 1024L436.851 1024L393.026 1024L386.073 1024L377.259 1024L366.287 1024L317.767 1024L280.264 1024L223.59 1024L185.179 1024L158.209 1024L148.924 1024L99.3944 1024L50.6923 1024L45.8442 1024C47.0805 992.618 56.2891 954.043 65.8923 924.105C70.2192 910.616 75.6406 897.457 79.3867 883.773C72.7046 882.274 67.1752 878.458 63.449 872.64C56.3377 861.536 57.1539 845.862 60.017 833.523C71.0892 785.807 138.61 697.739 174.812 662.58Z"/>
	<path fill="#9F8BE8" d="M224.409 788.701C227.275 787.966 230.036 787.067 232.83 786.096C233.37 787.404 233.292 787.946 234.673 788.466C237.087 789.376 240.584 789.041 243.165 789.061C257.666 790.527 267.813 794.467 278.756 804.233C286.561 811.182 291.94 819.114 297.93 827.536C306.452 840.565 313.628 853.759 320.495 867.712C325.005 877.699 329.999 887.711 333.606 898.056C339.731 912.821 344.839 927.89 349.968 943.023C354.503 953.872 357.665 965.43 361.441 976.576C364.647 988.944 369.085 1000.97 373.466 1012.96C374.618 1016.69 375.751 1020.39 377.259 1024L366.287 1024L317.767 1024L280.264 1024L223.59 1024L185.179 1024L158.209 1024L148.924 1024C146.546 1016.78 143.129 1010.38 140.054 1003.47C137.497 999.157 133.488 989.348 133.272 984.452C132.834 983.728 132.837 983.847 132.626 983.178C131.984 981.14 131.527 977.978 132.822 976.09C133.671 974.853 134.503 975.023 135.856 974.834C134.921 971.227 135.676 967.041 135.997 963.359C137.048 959.224 137.575 954.929 138.505 950.755C139.801 944.936 141.594 939.219 143.377 933.533Q150.042 908.369 157.694 883.488Q163.372 866.444 169.375 849.511C175.13 836.239 190.125 807.1 201.861 798.9C205.636 794.527 211.788 790.64 216.8 787.782C217.412 788.996 217.867 790.099 219.241 790.626C220.491 791.104 221.681 790.864 222.807 790.195C223.369 789.86 223.97 789.153 224.409 788.701Z"/>
	<path fill="#9F8BE8" d="M224.409 788.701C227.275 787.966 230.036 787.067 232.83 786.096C233.37 787.404 233.292 787.946 234.673 788.466C237.087 789.376 240.584 789.041 243.165 789.061C257.666 790.527 267.813 794.467 278.756 804.233L173.171 932.856C167.447 939.785 144.213 971.753 138.365 974.055L135.856 974.834C134.921 971.227 135.676 967.041 135.997 963.359C137.048 959.224 137.575 954.929 138.505 950.755C139.801 944.936 141.594 939.219 143.377 933.533Q150.042 908.369 157.694 883.488Q163.372 866.444 169.375 849.511C175.13 836.239 190.125 807.1 201.861 798.9C205.636 794.527 211.788 790.64 216.8 787.782C217.412 788.996 217.867 790.099 219.241 790.626C220.491 791.104 221.681 790.864 222.807 790.195C223.369 789.86 223.97 789.153 224.409 788.701Z"/>
	<path fill="#D8D1FB" d="M224.409 788.701C227.275 787.966 230.036 787.067 232.83 786.096C233.37 787.404 233.292 787.946 234.673 788.466C237.087 789.376 240.584 789.041 243.165 789.061C227.313 803.11 208.59 825.471 196.398 842.855C190.353 851.474 185.437 861.002 178.662 869.072C175.877 872.39 171.664 877.507 167.363 878.63C169.978 866.413 178.696 845.885 184.77 834.607C186.89 830.672 189.015 826.663 191.432 822.904C194.114 818.734 204.331 806.867 204.581 802.827C204.681 801.208 202.933 799.877 201.861 798.9C205.636 794.527 211.788 790.64 216.8 787.782C217.412 788.996 217.867 790.099 219.241 790.626C220.491 791.104 221.681 790.864 222.807 790.195C223.369 789.86 223.97 789.153 224.409 788.701Z"/>
	<path fill="#030201" d="M201.861 798.9C202.933 799.877 204.681 801.208 204.581 802.827C204.331 806.867 194.114 818.734 191.432 822.904C189.015 826.663 186.89 830.672 184.77 834.607C178.696 845.885 169.978 866.413 167.363 878.63L145.744 952.117C144.443 956.507 143.214 960.949 141.665 965.259C140.631 968.137 139.088 971.109 138.365 974.055L135.856 974.834C134.921 971.227 135.676 967.041 135.997 963.359C137.048 959.224 137.575 954.929 138.505 950.755C139.801 944.936 141.594 939.219 143.377 933.533Q150.042 908.369 157.694 883.488Q163.372 866.444 169.375 849.511C175.13 836.239 190.125 807.1 201.861 798.9Z"/>
	<path fill="#9F8BE8" d="M333.606 898.056C339.731 912.821 344.839 927.89 349.968 943.023C354.503 953.872 357.665 965.43 361.441 976.576C364.647 988.944 369.085 1000.97 373.466 1012.96C374.618 1016.69 375.751 1020.39 377.259 1024L366.287 1024L317.767 1024L280.264 1024L223.59 1024C231.458 1014.35 240.428 1005.66 248.979 996.62C257.42 987.695 265.574 978.384 273.701 969.165C289.04 951.766 303.775 933.895 318.675 916.123C323.694 910.137 328.438 903.914 333.606 898.056Z"/>
	<path fill="#D8D1FB" d="M280.264 1024C292.438 1011.87 303.536 998.174 314.666 985.086C326.535 971.129 338.634 957.425 349.968 943.023C354.503 953.872 357.665 965.43 361.441 976.576C364.647 988.944 369.085 1000.97 373.466 1012.96C374.618 1016.69 375.751 1020.39 377.259 1024L366.287 1024L317.767 1024L280.264 1024Z"/>
	<path fill="#9F8BE8" d="M361.441 976.576C364.647 988.944 369.085 1000.97 373.466 1012.96C374.618 1016.69 375.751 1020.39 377.259 1024L366.287 1024L317.767 1024C321.363 1018.48 327.055 1013.69 331.616 1008.94C336.804 1003.55 341.763 997.934 346.891 992.483C351.804 987.26 356.963 982.179 361.441 976.576Z"/>
	<path fill="#D8D1FB" d="M373.466 1012.96C374.618 1016.69 375.751 1020.39 377.259 1024L366.287 1024C368.586 1020.26 370.808 1016.46 373.466 1012.96Z"/>
	<path fill="#D8D1FB" d="M278.756 804.233C286.561 811.182 291.94 819.114 297.93 827.536C295.858 834.19 282.278 846.664 277.198 852.882L191.747 958.151C181.343 970.856 157.142 996.005 151.231 1009.13C153.607 1013.3 155.48 1021.32 158.209 1024L148.924 1024C146.546 1016.78 143.129 1010.38 140.054 1003.47C137.497 999.157 133.488 989.348 133.272 984.452C132.834 983.728 132.837 983.847 132.626 983.178C131.984 981.14 131.527 977.978 132.822 976.09C133.671 974.853 134.503 975.023 135.856 974.834L138.365 974.055C144.213 971.753 167.447 939.785 173.171 932.856L278.756 804.233Z"/>
	<path fill="#030201" d="M140.054 1003.47C137.497 999.157 133.488 989.348 133.272 984.452C140.076 992.269 145.136 1000.84 151.231 1009.13C153.607 1013.3 155.48 1021.32 158.209 1024L148.924 1024C146.546 1016.78 143.129 1010.38 140.054 1003.47Z"/>
	<path fill="#D8D1FB" d="M320.495 867.712C325.005 877.699 329.999 887.711 333.606 898.056C328.438 903.914 323.694 910.137 318.675 916.123C303.775 933.895 289.04 951.766 273.701 969.165C265.574 978.384 257.42 987.695 248.979 996.62C240.428 1005.66 231.458 1014.35 223.59 1024L185.179 1024C210.845 994.289 237.901 965.734 263.38 935.892C277.649 919.178 290.971 901.639 305.076 884.771C309.629 879.327 314.701 871.766 320.495 867.712Z"/>
	<path fill="#9F8BE8" d="M216.622 785.686C216.84 786.536 216.895 786.88 216.8 787.782C211.788 790.64 205.636 794.527 201.861 798.9C190.125 807.1 175.13 836.239 169.375 849.511Q163.372 866.444 157.694 883.488Q150.042 908.369 143.377 933.533C141.594 939.219 139.801 944.936 138.505 950.755C137.575 954.929 137.048 959.224 135.997 963.359C135.676 967.041 134.921 971.227 135.856 974.834C134.503 975.023 133.671 974.853 132.822 976.09C131.527 977.978 131.984 981.14 132.626 983.178C132.837 983.847 132.834 983.728 133.272 984.452C133.488 989.348 137.497 999.157 140.054 1003.47C143.129 1010.38 146.546 1016.78 148.924 1024L99.3944 1024L50.6923 1024C52.858 1015.55 54.0326 1006.66 55.7652 998.1C58.455 987.677 60.0515 976.936 62.5915 966.461Q68.6208 941.768 77.1033 917.807C79.5753 911.675 86.0306 892.139 86.6793 886L87.1033 884.261C104.701 869.487 119.807 847.757 135.176 830.447C139.97 825.047 144.749 819.224 150.515 814.823C157.894 814.828 191.195 797.955 199.141 793.902C204.187 791.329 210.096 787.279 215.723 786.423C215.897 786.397 216.071 786.376 216.245 786.352L216.622 785.686Z"/>
	<path fill="#9F8BE8" d="M62.5915 966.461C74.4513 962.551 137.45 931.797 143.377 933.533C141.594 939.219 139.801 944.936 138.505 950.755C137.575 954.929 137.048 959.224 135.997 963.359C135.676 967.041 134.921 971.227 135.856 974.834C134.503 975.023 133.671 974.853 132.822 976.09C131.527 977.978 131.984 981.14 132.626 983.178C132.837 983.847 132.834 983.728 133.272 984.452C133.488 989.348 137.497 999.157 140.054 1003.47C143.129 1010.38 146.546 1016.78 148.924 1024L99.3944 1024L50.6923 1024C52.858 1015.55 54.0326 1006.66 55.7652 998.1C58.455 987.677 60.0515 976.936 62.5915 966.461Z"/>
	<path fill="#D8D1FB" d="M62.5915 966.461C74.4513 962.551 137.45 931.797 143.377 933.533C141.594 939.219 139.801 944.936 138.505 950.755C137.575 954.929 137.048 959.224 135.997 963.359C124.838 968.846 113.886 974.882 102.541 979.961C91.0475 985.107 79.1813 989.258 67.4529 993.817C64.8567 994.826 58.0439 998.573 55.7652 998.1C58.455 987.677 60.0515 976.936 62.5915 966.461Z"/>
	<path fill="#D8D1FB" d="M140.054 1003.47C143.129 1010.38 146.546 1016.78 148.924 1024L99.3944 1024C107.732 1019.29 116.41 1015.68 124.945 1011.41C129.997 1008.89 134.747 1005.4 140.054 1003.47Z"/>
	<path fill="#9F8BE8" d="M77.1033 917.807C87.9747 913.511 99.099 909.853 109.797 905.133C119.061 901.046 127.891 896.044 137.068 891.776C143.762 888.663 150.813 886.163 157.694 883.488Q150.042 908.369 143.377 933.533C137.45 931.797 74.4513 962.551 62.5915 966.461Q68.6208 941.768 77.1033 917.807Z"/>
	<path fill="#D8D1FB" d="M86.6793 886C92.4866 884.414 97.9171 881.057 103.363 878.512C110.109 875.359 165.028 849.209 167.78 849.214C168.321 849.215 168.843 849.412 169.375 849.511Q163.372 866.444 157.694 883.488C150.813 886.163 143.762 888.663 137.068 891.776C127.891 896.044 119.061 901.046 109.797 905.133C99.099 909.853 87.9747 913.511 77.1033 917.807C79.5753 911.675 86.0306 892.139 86.6793 886Z"/>
	<path fill="#030201" d="M232.83 786.096C233.321 785.432 233.856 784.804 234.381 784.166C239.574 781.985 245.107 782.466 250.599 782.797C258.902 784.259 266.768 787.016 274.311 790.772C283.054 796.37 289.885 804.968 296.846 812.625C302.576 820.339 308.847 828.501 313.366 836.985C317.55 833.223 328.998 807.827 332.216 801.39C339.034 808.756 346.529 816.685 352.15 824.998C357.36 831.823 362.398 838.508 366.869 845.845C372.782 854.689 378.331 863.403 383.281 872.822C386.484 878.714 396.121 894.985 397.446 900.957C401.608 910.725 412.367 934.657 413.698 944.039C416.837 954.285 420.308 964.622 422.909 975.013C427.51 990.331 431.467 1009.5 436.851 1024L393.026 1024L386.073 1024L377.259 1024C375.751 1020.39 374.618 1016.69 373.466 1012.96C369.085 1000.97 364.647 988.944 361.441 976.576C357.665 965.43 354.503 953.872 349.968 943.023C344.839 927.89 339.731 912.821 333.606 898.056C329.999 887.711 325.005 877.699 320.495 867.712C313.628 853.759 306.452 840.565 297.93 827.536C291.94 819.114 286.561 811.182 278.756 804.233C267.813 794.467 257.666 790.527 243.165 789.061C240.584 789.041 237.087 789.376 234.673 788.466C233.292 787.946 233.37 787.404 232.83 786.096Z"/>
	<path fill="#D8D1FB" d="M397.446 900.957C401.608 910.725 412.367 934.657 413.698 944.039C416.837 954.285 420.308 964.622 422.909 975.013C427.51 990.331 431.467 1009.5 436.851 1024L393.026 1024L386.073 1024C383.65 1014.4 379.693 1004.98 376.546 995.579C376.158 991.384 374.045 986.724 372.739 982.693Q368.208 968.626 363.443 954.636C367.576 950.04 370.803 943.97 374.123 938.745Q386.024 919.999 397.446 900.957Z"/>
	<path fill="#9F8BE8" d="M397.446 900.957C401.608 910.725 412.367 934.657 413.698 944.039C408.514 948.849 404.098 957.978 399.873 963.918C396.16 969.138 377.679 992.048 376.546 995.579C376.158 991.384 374.045 986.724 372.739 982.693Q368.208 968.626 363.443 954.636C367.576 950.04 370.803 943.97 374.123 938.745Q386.024 919.999 397.446 900.957Z"/>
	<path fill="#9F8BE8" d="M422.909 975.013C427.51 990.331 431.467 1009.5 436.851 1024L393.026 1024C398.525 1014.54 404.503 1005.41 410.436 996.228C414.86 989.379 419.658 982.521 422.909 975.013Z"/>
	<path fill="#D8D1FB" d="M340.173 892.137C343.173 889.157 363.185 852.476 366.869 845.845C372.782 854.689 378.331 863.403 383.281 872.822C386.484 878.714 396.121 894.985 397.446 900.957Q386.024 919.999 374.123 938.745C370.803 943.97 367.576 950.04 363.443 954.636C360.188 944.278 356.014 934.068 352.294 923.861C348.613 913.206 344.664 902.475 340.173 892.137Z"/>
	<path fill="#9F8BE8" d="M340.173 892.137C343.173 889.157 363.185 852.476 366.869 845.845C372.782 854.689 378.331 863.403 383.281 872.822C376.082 885.552 368.6 898.002 360.889 910.426C358.194 914.768 355.647 920.034 352.294 923.861C348.613 913.206 344.664 902.475 340.173 892.137Z"/>
	<path fill="#D8D1FB" d="M332.216 801.39C339.034 808.756 346.529 816.685 352.15 824.998C357.36 831.823 362.398 838.508 366.869 845.845C363.185 852.476 343.173 889.157 340.173 892.137C336.463 883.061 332.009 874.238 328.031 865.269C324.109 855.525 318.452 846.179 313.366 836.985C317.55 833.223 328.998 807.827 332.216 801.39Z"/>
	<path fill="#9F8BE8" d="M332.216 801.39C339.034 808.756 346.529 816.685 352.15 824.998C346.379 834.293 340.116 843.388 334.598 852.82C332.223 856.88 330.375 861.217 328.031 865.269C324.109 855.525 318.452 846.179 313.366 836.985C317.55 833.223 328.998 807.827 332.216 801.39Z"/>
	<path fill="#9F8BE8" d="M287.851 744.755C298.748 746.735 314.14 747.979 322.416 756.279L326.77 759.04C325.44 764.807 319.157 786.035 321.615 790.134C324.213 794.469 328.902 797.606 332.216 801.39C328.998 807.827 317.55 833.223 313.366 836.985C308.847 828.501 302.576 820.339 296.846 812.625C289.885 804.968 283.054 796.37 274.311 790.772C279.554 780.245 284.951 756.845 287.851 744.755Z"/>
	<path fill="#D8D1FB" d="M322.416 756.279L326.77 759.04C325.44 764.807 319.157 786.035 321.615 790.134C324.213 794.469 328.902 797.606 332.216 801.39C328.998 807.827 317.55 833.223 313.366 836.985C308.847 828.501 302.576 820.339 296.846 812.625C300.884 806.947 303.301 800.046 306.262 793.775C309.559 786.792 313.209 779.903 316.039 772.712C318.142 767.368 319.603 761.27 322.416 756.279Z"/>
	<path fill="#D8D1FB" d="M150.515 814.823C165.248 798.463 202.736 761.988 221.721 754.051L222.117 754.439C222.74 757.462 219.461 765.7 218.732 769.277C217.629 774.679 217.167 780.205 216.622 785.686L216.245 786.352C216.071 786.376 215.897 786.397 215.723 786.423C210.096 787.279 204.187 791.329 199.141 793.902C191.195 797.955 157.894 814.828 150.515 814.823Z"/>
	<path fill="#D8D1FB" d="M263.873 744.402C271.692 743.027 280.018 743.892 287.851 744.755C284.951 756.845 279.554 780.245 274.311 790.772C266.768 787.016 258.902 784.259 250.599 782.797C253.084 776.387 260.913 747.301 263.873 744.402Z"/>
	<path fill="#9F8BE8" d="M229.761 750.887C239.996 747.339 253.047 744.823 263.873 744.402C260.913 747.301 253.084 776.387 250.599 782.797C245.107 782.466 239.574 781.985 234.381 784.166C233.856 784.804 233.321 785.432 232.83 786.096C230.036 787.067 227.275 787.966 224.409 788.701C224.612 780.358 227.184 771.709 228.614 763.497C229.344 759.307 229.575 755.128 229.761 750.887Z"/>
	<path fill="#39254F" d="M261.873 279.223C272.879 278.296 286.686 281.683 295.334 288.736C301.816 294.021 305.893 303.254 306.762 311.483C308.086 324.029 303.44 340.732 295.455 350.566C298.004 340.244 299.062 328.883 298.818 318.24C298.637 310.316 296.499 300.298 290.366 294.774C289.207 293.729 288.297 293.28 286.744 293.321C285.776 294.172 285.109 295.408 285.282 296.757C285.668 299.777 290.439 305.609 291.334 309.995C293.855 322.35 291.9 336.01 289.628 348.264C287.52 350.09 286.24 351.981 285.161 354.562C282.473 360.987 281.263 368.09 279.764 374.868C276.934 387.668 274.427 401.066 269.905 413.38C264.603 427.82 257.294 441.32 248.957 454.205C242.272 464.538 235.506 474.524 227.4 483.807C214.397 498.698 200.56 513.232 186.472 527.103C182.414 531.097 177.615 534.335 173.702 538.412C172.559 539.603 171.828 540.608 171.538 542.264C172.007 543.65 172.168 544.21 173.419 545.091C174.395 545.297 174.965 545.339 175.952 545.07C180.36 543.873 191.196 533.477 194.957 530.002C215.809 510.736 236.69 489.498 252.098 465.518C258.93 454.884 264.348 443.427 271.081 432.785C271.077 449.037 276.993 471.33 287.502 483.998Q288.179 484.8 288.893 485.569Q289.608 486.338 290.358 487.071Q291.109 487.805 291.893 488.501Q292.678 489.198 293.496 489.856Q294.313 490.515 295.161 491.133Q296.009 491.751 296.885 492.328Q297.762 492.905 298.665 493.439Q299.569 493.974 300.497 494.464Q301.424 494.954 302.375 495.4Q303.325 495.845 304.296 496.244Q305.266 496.643 306.255 496.995Q307.244 497.347 308.248 497.652Q309.252 497.956 310.27 498.212Q311.288 498.467 312.317 498.674Q313.346 498.881 314.383 499.038Q315.421 499.195 316.465 499.302C303.948 501.656 291.262 503.591 278.5 502.354C269.477 501.48 260.795 499.57 251.677 499.393C243.835 499.24 234.262 498.59 228.277 504.678C223.829 509.202 222.199 517.593 222.445 523.787C222.792 532.545 228.476 542.22 234.767 548.061C248.457 560.769 263.857 563.617 281.903 563.007C282.535 581.905 283.162 588.941 277.108 607.426L266.83 608.424C248.997 608.839 235.539 606.892 220.669 596.176C210.216 588.643 203.959 576.984 201.565 564.476C200.938 561.198 201.017 557.849 200.438 554.582C200.059 552.437 199.763 550.715 197.906 549.429C197.118 549.556 196.803 549.387 196.334 550.13C193.763 554.209 195.826 568.215 196.713 572.942C199.019 585.236 208.777 597.823 218.815 604.882C233.699 615.348 254.099 620.537 272.203 617.362C264.515 628.853 256.766 640.321 246.736 649.938C237.986 647.309 228.842 645.179 219.73 644.458C203.951 654.024 185.803 657.207 167.504 656.348C142.048 655.153 112.646 643.524 99.2366 620.567C93.8098 611.277 90.6282 598.892 89.0149 588.329C88.665 586.038 88.2732 574.339 87.9192 573.488C87.7636 573.114 87.3736 572.89 87.1008 572.59C85.6908 572.353 85.3881 572.248 84.1477 573.144C78.2642 577.393 74.8936 601.002 73.8913 608.365C72.1878 601.824 71.0052 594.424 71.4317 587.643C71.9439 579.5 74.7348 572.035 77.4088 564.421C82.3261 550.421 88.482 535.102 88.6863 520.125C88.9784 498.704 76.508 480.433 75.2067 459.329C73.3447 429.13 90.8058 387.618 110.534 365.256C125.288 348.532 145.669 334.978 165.247 324.568C176.215 318.737 187.567 313.619 198.202 307.158C201.295 305.279 203.541 302.423 206.413 300.291C213.978 294.676 223.744 289.318 232.409 285.64C241.916 281.605 251.62 279.9 261.873 279.223Z"/>
	<path fill="#030201" d="M155.795 498.665C156.05 498.808 156.307 498.947 156.559 499.096C157.921 499.901 159.004 501.139 159.372 502.695C159.012 503.154 158.912 503.256 158.616 503.712C149.365 517.948 143.159 556.89 146.674 573.693C150.539 592.17 163.002 612.681 180.204 621.473C183.866 623.344 193.428 626.187 195.936 628.338C196.979 629.232 197.028 629.443 197.095 630.717C196.121 631.932 195.882 631.881 194.353 632.292C183.801 629.72 174.677 626.084 165.885 619.518C152.077 609.207 140.986 590.987 138.696 573.863C135.781 552.068 142.297 516.456 155.795 498.665Z"/>
	<path fill="#030201" d="M215.485 300.32C223.335 299.652 235.404 303.423 241.719 308.283C252.706 316.739 257.961 332.473 259.715 345.705C262.521 366.872 257.174 390.429 249.664 410.247C247.624 415.63 245.588 421.084 242.067 425.692C241.712 425.829 241.383 425.984 240.987 425.991C239.578 426.016 239.16 425.738 238.211 424.845C236.837 419.586 242.001 412.549 243.941 407.695C245.632 403.462 246.914 398.784 248.179 394.401C254.405 372.824 257.201 342.959 245.828 322.678C241.349 314.691 234.921 309.183 225.724 307.625C222.663 307.107 219.245 306.952 216.298 305.951C215.013 305.514 214.634 305.043 214.031 303.879C214.019 302.282 214.603 301.557 215.485 300.32Z"/>
	<path fill="#030201" d="M174.394 338.932Q175.658 338.93 176.919 339.021Q178.18 339.111 179.43 339.294Q180.681 339.477 181.915 339.752Q183.149 340.026 184.359 340.39Q185.57 340.755 186.75 341.207Q187.931 341.659 189.074 342.197Q190.218 342.735 191.32 343.355Q192.421 343.975 193.474 344.675C204.943 352.226 211.008 364.368 213.564 377.545C217.795 399.351 210.735 421.496 202.54 441.526C200.642 446.165 198.921 451.531 196.132 455.706C194.154 456.093 193.016 455.8 191.355 454.777C190.917 454.046 190.483 453.805 190.734 452.936C192.126 448.108 195.183 443.118 197.124 438.415C204.166 421.351 209.327 403.022 207.888 384.391C206.543 366.995 199.307 352.162 182.435 345.708C179.61 344.628 176.094 345.162 173.828 343.204C173.338 341.656 173.92 340.407 174.394 338.932Z"/>
	<path fill="#030201" d="M122.962 611.195C123.522 611.291 124.494 611.475 124.964 611.803C127.871 613.841 129.601 620.323 131.709 623.472C133.377 625.963 135.445 628.244 137.55 630.371C142.837 635.716 149.482 641.142 156.041 644.825C159.244 646.624 163.597 648.242 166.455 650.471C167 650.896 167.085 651.068 167.444 651.561L166.889 652.681C158.221 652.366 150.138 647.97 143.047 643.338C134.37 637.669 123.795 628.599 121.761 617.828C121.239 615.066 121.385 613.554 122.962 611.195Z"/>
	<path fill="#FEFDFE" d="M312.76 316.642C333.303 326.687 345.256 349.485 358.522 366.648C371.826 383.86 376.482 384.807 397.863 381.888C401.689 381.365 405.872 380.419 409.707 380.908C410.673 381.746 411.084 382.317 411.146 383.692C411.244 385.826 410.431 388.192 409.932 390.268C408.296 397.074 406.826 403.961 408.557 410.92C410.775 419.829 416.404 423.655 423.797 428.124C419.644 436.947 412.739 446.156 402.879 449.106C399.659 450.069 392.781 449.732 390.602 452.273C390.766 453.442 391.065 454.411 391.904 455.297C392.951 456.401 394.497 456.809 395.967 456.894C404.097 457.365 414.506 451.588 420.452 446.447C424.83 449.57 428.222 452.162 431.316 456.585C423.914 478.463 441.361 482.489 446.674 499.832C440.746 518.732 408.201 537.416 391.067 545.793C384.603 548.954 372.101 553.71 367.433 558.682C366.899 560.045 366.916 560.651 367.223 562.075C367.701 562.676 367.932 563.225 368.699 563.466C371.531 564.356 375.756 561.902 378.389 560.776C372.62 569.17 368.974 579.518 364.934 588.84Q353.342 615.527 342.436 642.501C334.745 661.16 326.016 679.313 319.172 698.299C316.185 695.75 313.795 692.368 311.096 689.499C307.738 685.929 304.041 682.663 300.422 679.361C287.764 667.171 271.813 659.681 256.174 652.195C263.334 644.195 269.97 635.744 275.548 626.546C277.902 622.664 279.911 618.578 282.233 614.67C286.604 613.269 292.406 611.704 295.719 608.352C296.66 607.4 296.846 606.833 296.861 605.532C296.428 604.938 296.205 604.407 295.5 604.105C292.994 603.03 288.933 604.86 286.452 605.633C291.598 589.546 292.155 577.891 289.294 561.225C296.061 559.089 307.797 555.62 312.516 549.919C313.413 548.836 313.398 548.313 313.252 546.962C312.74 546.351 312.33 545.97 311.594 545.641C310.946 545.351 310.048 544.849 309.329 544.975C305.681 545.612 299.998 549.599 296.151 551.114C283.632 556.043 267.97 556.527 255.52 551.011C245.664 546.644 235.498 539.137 231.623 528.673C229.315 522.442 230.245 516.932 232.822 511.046C247.124 502.29 266.278 509.442 281.757 510.403C295.338 511.246 311.83 509.257 324.193 503.323C327.976 501.507 333.75 498.978 335.147 494.775C335.531 493.619 335.751 493.599 335.199 492.491C332.223 490.954 329.264 492.225 326.228 492.99C325.593 493.15 324.937 493.348 324.275 493.357C317.006 493.459 305.738 488.963 300.256 484.36C296.401 481.122 293.421 476.931 290.715 472.722C282.311 459.649 278.733 446.604 277.48 431.239C277.122 426.86 276.391 421.826 277.086 417.486C278.582 408.148 282.019 398.961 284.388 389.797C285.648 384.924 288.38 366.604 290.735 363.829C291.8 363.653 293.265 363.516 294.162 362.886C295.967 361.619 297.878 358.582 299.282 356.783C308.925 344.431 311.534 331.921 312.76 316.642Z"/>
	<path fill="#9F8BE8" d="M354.352 411.654C359.383 411.064 366.351 411.815 370.819 414.222C374.266 416.08 376.484 419.025 377.432 422.815C379.016 429.152 376.445 435.256 373.098 440.536C366.212 451.398 355.257 458.641 342.794 461.382C336.532 461.915 330.642 461.515 325.336 457.713C321.784 455.167 319.559 451.31 319.002 446.981C318.096 439.936 321.437 432.824 325.594 427.316C332.203 418.561 343.677 413.189 354.352 411.654Z"/>
	<path fill="#030201" d="M256.011 509.415C256.785 509.56 257.534 509.707 258.321 509.756C267.177 510.307 277.332 517.124 284.652 521.773C286.831 523.157 289.145 524.846 289.761 527.476C289.479 528.244 289.526 528.534 288.796 529.017C286.314 530.659 283.06 529.73 280.301 529.341C279.6 530.073 278.923 530.823 278.234 531.566C275.882 534.103 275.578 537.452 273.791 540.312C272.374 540.6 272.292 540.656 270.993 540.05C269.081 537.441 269.392 534.789 269.566 531.749C269.647 531.613 269.725 531.474 269.811 531.34C269.953 531.118 270.105 530.901 270.25 530.68C271.767 528.37 273.942 526.675 276.012 524.877L269.725 521.124C267.176 519.138 263.897 518.009 260.736 517.369C259.043 517.026 256.495 516.908 255.089 518.097C252.9 519.947 251.958 524.702 251.733 527.453C251.239 533.47 254.041 536.443 257.584 540.772C258.561 541.966 259.039 542.934 258.88 544.519L258.016 545.072C257.195 545.034 256.499 544.911 255.732 544.604C251.503 542.915 248.216 539.323 246.644 535.072C244.63 529.628 244.912 522.256 247.373 516.998C249.285 512.913 251.886 510.964 256.011 509.415Z"/>
	<path fill="#030201" d="M340.948 363.467C342.181 363.354 343.809 363.23 344.985 363.7C346.165 364.173 346.36 364.461 346.9 365.517C346.832 367.776 345.497 369.409 344.077 371.055C342.849 372.478 341.741 373.912 340.635 375.432C343.733 380.386 351.413 395.359 349.721 400.854C349.339 402.093 348.396 403 347.226 403.52C345.942 404.092 344.735 404.067 343.43 403.62C339.307 402.207 335.979 396.204 334.009 392.545C333.233 390.775 333.3 388.804 332.319 387.142C328.446 391.523 328.735 397.487 323.933 401.028L322.999 400.846C322.583 399.913 322.52 399.184 322.575 398.18C323.125 388.092 333.465 370.339 340.948 363.467Z"/>
	<path fill="#030201" d="M326.903 346.963C328.31 347.177 329.422 347.537 330.391 348.608C331.119 349.412 331.681 350.555 331.454 351.673C330.77 355.051 322.134 363.339 319.658 366.534C314.779 372.828 311.285 383.427 305.273 388.086C304.571 387.989 303.605 387.939 302.962 387.658C301.777 387.141 301.318 386.481 300.955 385.259C299.482 380.298 306.042 365.73 309.014 361.252C312.988 355.263 319.646 348.486 326.903 346.963Z"/>
	<path fill="#9F8BE8" d="M148.673 703.721C156.234 693.687 165.092 684.838 173.408 675.466C192.388 674.831 213.849 678.971 230.596 688.108C243.602 693.514 255.219 702.699 266.335 711.182C275.389 715.69 288.37 730.031 295.718 737.469C290.587 736.818 285.581 736.604 280.435 736.303C270.556 735.568 261.201 736.706 251.48 738.251C222.442 742.866 207.579 751.077 185.741 769.887C184.351 771.085 182.889 772.617 181.375 773.627C171.23 783.121 160.952 792.496 151.137 802.332C141.898 811.591 133.106 821.313 123.813 830.508C117.045 839.88 92.2679 870.654 82.9547 876.478C77.1628 875.495 73.1637 872.744 69.769 867.907C68.2855 865.794 67.2665 863.451 66.2717 861.079C64.1018 852.025 66.038 842.789 68.0618 833.895C74.8996 812.709 84.0001 795.93 96.1041 777.335C100.471 769.031 108.818 754.77 115.503 748.324C122.118 737.704 129.701 727.95 137.324 718.051C141 713.278 144.551 708.108 148.673 703.721Z"/>
	<path fill="#9F8BE8" d="M148.673 703.721C156.234 693.687 165.092 684.838 173.408 675.466C192.388 674.831 213.849 678.971 230.596 688.108C243.602 693.514 255.219 702.699 266.335 711.182C266.183 711.206 266.032 711.233 265.879 711.254C257.992 712.371 249.21 711.219 241.178 711.474C220.236 712.139 196.354 715.269 176.394 721.752C159.487 727.242 144.068 736.574 127.695 743.467C123.781 745.115 119.595 747.349 115.503 748.324C122.118 737.704 129.701 727.95 137.324 718.051C141 713.278 144.551 708.108 148.673 703.721Z"/>
	<path fill="#D8D1FB" d="M148.673 703.721C156.234 693.687 165.092 684.838 173.408 675.466C192.388 674.831 213.849 678.971 230.596 688.108C213.532 691.171 196.292 692.938 179.23 696.266C171.254 697.822 154.917 703.72 148.673 703.721Z"/>
	<path fill="#D8D1FB" d="M266.335 711.182C275.389 715.69 288.37 730.031 295.718 737.469C290.587 736.818 285.581 736.604 280.435 736.303L281.362 734.507L281.054 733.774C275.447 732.259 269.408 732.152 263.636 731.756C233.588 729.692 200.606 732.496 172.012 742.429C156.924 747.671 142.322 755.721 127.976 762.734C120.91 766.189 102.813 776.809 96.1041 777.335C100.471 769.031 108.818 754.77 115.503 748.324C119.595 747.349 123.781 745.115 127.695 743.467C144.068 736.574 159.487 727.242 176.394 721.752C196.354 715.269 220.236 712.139 241.178 711.474C249.21 711.219 257.992 712.371 265.879 711.254C266.032 711.233 266.183 711.206 266.335 711.182Z"/>
	<path fill="#D8D1FB" d="M68.0618 833.895C79.5013 831.244 104.535 815.254 115.789 808.536C123.6 803.873 131.628 799.593 139.471 794.99C149.255 789.247 158.57 783.293 168.733 778.176C171.889 776.587 178.13 772.557 181.375 773.627C171.23 783.121 160.952 792.496 151.137 802.332C141.898 811.591 133.106 821.313 123.813 830.508C117.045 839.88 92.2679 870.654 82.9547 876.478C77.1628 875.495 73.1637 872.744 69.769 867.907C68.2855 865.794 67.2665 863.451 66.2717 861.079C64.1018 852.025 66.038 842.789 68.0618 833.895Z"/>
	<path fill="#9F8BE8" d="M66.2717 861.079C72.1077 859.008 77.8876 855.301 83.3796 852.38Q97.5177 844.953 111.567 837.359C115.587 835.136 119.551 832.164 123.813 830.508C117.045 839.88 92.2679 870.654 82.9547 876.478C77.1628 875.495 73.1637 872.744 69.769 867.907C68.2855 865.794 67.2665 863.451 66.2717 861.079Z"/>
	<path fill="#9F8BE8" d="M296.38 686.753C299.016 689.253 301.781 691.699 304.251 694.362C329.815 719.389 348.173 750.324 362.289 783.002C365.137 789.596 368.412 796.404 370.506 803.265C365.812 808.176 361.459 813.495 356.518 818.153Q350.466 810.136 343.85 802.578C338.794 796.508 332.069 791.991 328.233 784.908C328.937 774.373 334.821 762.784 334.634 754.358L334.484 753.362C333.184 753.805 332.874 754.043 331.562 753.387C330.059 752.635 328.405 750.968 327.054 749.916C323.377 747.052 320.245 745.215 315.936 743.456C313.722 742.52 311.36 742.02 309.034 741.435Q302.644 734.382 296.418 727.184C290.69 721.119 284.518 715.63 278.283 710.102C281.546 703.866 282.497 696.715 285.774 690.388C286.757 690.698 287.87 691.106 288.904 691.15C291.634 691.266 294.389 688.366 296.38 686.753Z"/>
	<path fill="#D8D1FB" d="M296.38 686.753C299.016 689.253 301.781 691.699 304.251 694.362C304.046 696.793 303.905 699.255 303.628 701.677L306.065 705.797C304.095 713.536 300.519 720.379 296.418 727.184C290.69 721.119 284.518 715.63 278.283 710.102C281.546 703.866 282.497 696.715 285.774 690.388C286.757 690.698 287.87 691.106 288.904 691.15C291.634 691.266 294.389 688.366 296.38 686.753Z"/>
	<path fill="#D8D1FB" d="M334.634 754.358L335.284 752.371L336.056 752.26C339.823 755.792 349.415 781.195 349.684 786.656C349.91 791.257 346.875 799.014 343.85 802.578C338.794 796.508 332.069 791.991 328.233 784.908C328.937 774.373 334.821 762.784 334.634 754.358Z"/>
	<path fill="#D8D1FB" d="M325.704 729.447C331.771 738.631 334.186 742.077 334.484 753.362C333.184 753.805 332.874 754.043 331.562 753.387C330.059 752.635 328.405 750.968 327.054 749.916C323.377 747.052 320.245 745.215 315.936 743.456C319.101 738.764 322.867 734.33 325.704 729.447Z"/>
	<path fill="#9F8BE8" d="M261.222 663.123C275.557 670.514 284.112 676.333 296.38 686.753C294.389 688.366 291.634 691.266 288.904 691.15C287.87 691.106 286.757 690.698 285.774 690.388C282.497 696.715 281.546 703.866 278.283 710.102C272.699 704.368 261.93 697.779 255.168 692.854C256.173 690.019 256.205 686.885 256.473 683.909C257.165 676.224 257.928 670.152 261.222 663.123Z"/>
	<path fill="#D8D1FB" d="M227.403 650.885C233.867 652.56 240.474 654.626 246.69 657.061C251.705 658.756 256.427 660.9 261.222 663.123C257.928 670.152 257.165 676.224 256.473 683.909C256.205 686.885 256.173 690.019 255.168 692.854C244.935 686.014 232.499 679.962 221.028 675.66C221.811 674.929 222.114 674.823 223.099 674.499L222.018 673.74C219.303 668.462 226.078 657.443 227.26 651.607L227.403 650.885Z"/>
	<path fill="#9F8BE8" d="M227.403 650.885C233.867 652.56 240.474 654.626 246.69 657.061C243.63 658.514 240.338 659.344 237.095 660.282C234.01 665.095 231.21 672.763 225.143 674.235C224.469 674.398 223.787 674.443 223.099 674.499L222.018 673.74C219.303 668.462 226.078 657.443 227.26 651.607L227.403 650.885Z"/>
	<path fill="#D8D1FB" d="M220.692 649.692L227.403 650.885L227.26 651.607C226.078 657.443 219.303 668.462 222.018 673.74L223.099 674.499C222.114 674.823 221.811 674.929 221.028 675.66C208.151 671.235 192.486 666.806 178.801 668.767C180.686 666.679 182.278 664.598 183.827 662.255C195.507 660.285 211.752 658.232 220.692 649.692Z"/>
	<path fill="#D8D1FB" d="M370.506 803.265C374.472 812.701 378.336 822.558 381.321 832.349C378.371 835.557 376.635 839.07 374.8 842.96C369.386 834.181 362.685 826.388 356.518 818.153C361.459 813.495 365.812 808.176 370.506 803.265Z"/>
	<path fill="#D8D1FB" d="M381.087 852.585C381.15 852.505 381.203 852.416 381.276 852.344C383.149 850.476 385.767 850.708 388.201 850.711C392.547 862.318 395.757 874.318 399.153 886.228C395.641 881.233 393.397 874.987 390.646 869.507C387.752 863.738 384.329 858.165 381.087 852.585Z"/>
	<path fill="#9F8BE8" d="M381.321 832.349C383.609 838.469 385.833 844.622 388.201 850.711C385.767 850.708 383.149 850.476 381.276 852.344C381.203 852.416 381.15 852.505 381.087 852.585C378.764 849.608 376.837 846.148 374.8 842.96C376.635 839.07 378.371 835.557 381.321 832.349Z"/>
	<path fill="#030201" d="M721.539 0L728.714 0L854.873 0L859.585 0L920.853 0L928.952 0L954.158 0L962.84 0L997.64 0L1007.14 0L1024 0L1024 39.0387L1024 56.3127L1024 135.591L1024 151.749L1024 379.78L1024 390.91C1012.67 381.569 1002.13 371.116 991.976 360.519C956.669 323.674 930.433 285.9 907.13 240.511C899.082 224.836 889.921 205.801 886.532 188.594C884.207 195.328 882.861 202.617 881.249 209.56Q876.155 231.989 871.335 254.478C867.742 270.52 861.989 288.96 859.684 304.779C863.855 311.027 869.662 318.15 868.152 326.182C866.782 333.464 860.79 338.405 859.675 346.571C858.026 358.644 860.897 384.241 861.591 397.222C862.457 413.415 862.166 429.56 862.7 445.745C863.247 462.321 864.821 478.945 864.4 495.542C863.737 521.737 860.97 546.847 858.996 572.876C857.751 589.292 857.705 605.774 856.436 622.217C854.182 651.43 850.624 680.481 847.881 709.641C850.74 710.332 855.302 710.801 856.987 713.466C858.243 720.403 852.651 748.391 848.775 754.422C846.952 755.758 845.1 755.9 842.914 755.53C840.868 755.184 838.828 754.55 836.83 753.992C837.577 760.079 837.427 766.182 837.602 772.302C837.777 778.414 838.273 784.515 838.518 790.626C841.955 794.718 845.377 798.779 848.225 803.317C858.748 821.528 864.848 844.308 867.562 865.093C868.228 870.192 868.26 875.321 868.828 880.41C874.581 884.881 876.372 891.418 877.226 898.372C877.73 902.486 878.032 907.389 875.196 910.778C862.447 926.018 788.763 936.435 766.964 941.206C739.53 947.211 713.143 956.3 684.885 957.739C644.011 959.821 598.696 950.764 560.662 936.044C554.471 933.648 548.394 930.786 542.482 927.773C539.854 926.433 537.166 924.552 534.465 923.494C530.395 920.811 524.692 917.788 522.175 913.505C518.947 908.014 519.547 897.762 521.356 891.82C522.629 887.634 524.919 883.325 528.892 881.194C536.484 877.121 546.921 875.998 555.331 874.34C566.671 872.105 578.153 870.103 589.277 866.923C600.133 863.82 611.036 857.693 621.037 852.472C625.009 850.398 625.289 845.894 628.966 843.98C631.63 842.593 635.428 842.039 638.352 841.142C642.112 839.989 651.851 835.947 654.686 833.729C655.798 832.858 656.489 830.644 657.223 829.393C659.011 826.345 661.76 825.966 664.928 825.151C670.742 823.655 677.28 819.886 682.374 816.715C685.911 814.513 688.976 812 693.052 810.864C696.815 805.185 703.599 801.277 709.252 797.55C711.718 797.537 714.189 797.439 716.655 797.379C722.789 791.989 727.956 788.699 735.508 785.555C737.096 781.701 738.027 777.95 739.254 774.003C743.435 760.562 746.567 747.183 749.894 733.513C740.268 729.809 732.305 724.15 723.861 718.352C724.018 710.389 727.423 684.699 730.71 678.502C731.76 676.522 732.675 676.284 734.692 675.729C735.511 672.093 729.523 622.163 728.516 613.014L700.694 368.55Q697.775 344.278 694.014 320.122C691.613 304.72 688.779 289.061 688.109 273.474C687.395 256.875 689.532 239.939 691.249 223.437Q694.914 186.76 699.941 150.245Q705.755 103.355 712.697 56.6204C715.41 37.721 717.813 18.7321 721.539 0Z"/>
	<path fill="#9F8BE8" d="M728.714 0L854.873 0C853.024 17.5469 850.328 35.0889 847.954 52.5784Q839.559 118.308 827.973 183.551C822.497 216.259 815.607 248.658 812.727 281.752C809.471 319.172 813.696 354.052 817.582 391.065C820.857 422.27 823.807 453.721 824 485.118C824.275 529.998 821.457 574.832 818.303 619.577C816.956 638.673 815.34 657.738 814.53 676.868C814.184 685.048 813.684 693.309 814.039 701.493C789.902 694.994 764.697 688.314 741.731 678.446C741.632 671.98 740.806 665.469 740.198 659.032Q738.522 640.963 736.376 622.943L729.014 557.263L704.927 348.681Q702.408 328.201 699.068 307.839C697.2 296.114 695.079 284.253 694.739 272.36C694.523 264.788 695.276 257.127 695.791 249.573C697.457 225.148 700.942 200.896 704.157 176.636C708.502 143.842 712.239 110.991 716.924 78.2315C720.654 52.1458 725.391 26.1369 728.714 0Z"/>
	<path fill="#9F8BE8" d="M928.952 0L954.158 0L962.84 0L997.64 0L1007.14 0L1024 0L1024 39.0387L1024 56.3127L1024 135.591L1024 151.749L1024 379.78C1017.85 374.926 1012.2 369.032 1006.64 363.515C990.565 347.583 975.597 331.037 962.121 312.811C956.665 305.431 950.996 298.024 945.991 290.333C926.206 259.927 905.337 219.307 896.383 184.123C894.914 178.351 892.774 171.725 892.782 165.78C892.795 157.183 898.581 138.775 900.609 129.712C910.249 86.6213 922.368 43.7184 928.952 0Z"/>
	<path fill="#9F8BE8" d="M962.84 0L997.64 0L1007.14 0L1024 0L1024 39.0387L1024 56.3127L1024 135.591C1011.42 111.941 1000.39 87.8215 989.479 63.3717C980.084 42.3244 970.799 21.6509 962.84 0Z"/>
	<path fill="#030201" d="M997.64 0L1007.14 0L1024 0L1024 39.0387L1024 56.3127C1018.5 48.0488 1014.53 38.324 1010.55 29.2533L997.64 0Z"/>
	<path fill="#9F8BE8" d="M1007.14 0L1024 0L1024 39.0387C1017.16 26.8018 1012.26 13.0424 1007.14 0Z"/>
	<path fill="#030201" d="M954.158 0L962.84 0C970.799 21.6509 980.084 42.3244 989.479 63.3717C1000.39 87.8215 1011.42 111.941 1024 135.591L1024 151.749C1020.6 147.141 1018.03 141.777 1015.32 136.744C1009.12 125.262 1003.36 113.662 997.745 101.888Q981.214 67.8072 966.752 32.7979C962.291 22.0113 957.431 11.2157 954.158 0Z"/>
	<path fill="#9F8BE8" d="M859.585 0L920.853 0C915.993 29.8561 908.604 59.3391 901.64 88.7604L872.988 210.656L863.282 254.614C861.541 262.452 859.001 270.633 858.215 278.594Q856.168 274.447 853.946 270.391C850.755 264.687 844.693 253.428 837.741 251.771C836.137 251.389 834.681 251.741 833.369 252.706C825.295 258.645 838.631 281.781 842.152 288.639C844.706 293.614 847.031 298.7 850.023 303.437C853.229 308.512 860.069 316.404 860.587 322.483C860.962 326.88 854.298 336.649 853.067 342.107C851.946 347.078 852.321 352.957 852.35 358.051C852.442 374.502 853.712 391.007 854.279 407.456C854.741 420.819 854.463 434.202 855.018 447.565C855.628 462.233 856.709 476.824 856.66 491.516Q856.394 516.108 854.228 540.606C853.409 549.864 852.125 559.066 851.532 568.346C850.559 583.559 850.585 598.794 849.64 613.997C848.507 632.222 846.235 650.277 844.377 668.428C843.015 681.729 842.175 695.104 840.45 708.364C833.461 706.528 826.464 704.772 819.504 702.822C819.999 671.12 822.818 639.245 824.985 607.615C828.1 562.172 830.564 516.804 829.628 471.229C829.117 446.356 826.835 421.296 824.006 396.589C819.988 361.502 815 326.142 817.503 290.743C820.018 255.179 827.22 220.608 833.478 185.6Q843.62 126.816 851.465 67.6822C854.461 45.6016 858.317 22.1346 859.585 0Z"/>
	<path fill="#9F8BE8" d="M837.976 802.905C851.916 817.594 859.415 861.266 860.996 881.538C854.982 885.408 848.726 888.989 841.986 891.435C819.971 899.425 796.747 903.085 773.966 908.142C739.186 915.863 704.609 927.53 668.552 925.935C663.372 925.264 657.804 925.727 652.544 925.404C660.372 893.32 695.199 877.372 722.151 864.043C731.334 859.501 740.869 855.36 748.834 848.797C755.234 843.524 759.765 836.203 764.411 829.437C766.324 830.666 768.273 831.917 770.34 832.872C781.384 837.969 794.471 837.546 805.743 833.35C819.712 828.149 831.847 816.411 837.976 802.905Z"/>
	<path fill="#FEFDFE" d="M865.295 887.912C869.448 893.601 869.345 899.417 868.936 906.106C847.234 922.008 795.368 926.844 768.364 933.054C745.531 938.305 719.534 946.997 696.593 949.479C677.055 951.592 657.338 950.535 637.902 947.857C605.626 943.41 570.343 934.763 541.641 918.952C536.75 916.258 531.982 914.163 528.533 909.613C527.225 905.363 527.081 900.672 527.684 896.275C528.004 893.947 528.424 891.838 530.375 890.359C531.997 890.261 534.036 892.905 535.276 894.07C540.554 899.025 545.84 901.915 552.402 904.925C577.017 916.216 602.878 925.533 629.518 930.618C648.614 934.263 672.624 934.709 691.975 932.888C718.431 930.398 743.8 922.741 769.619 916.899C791.592 911.928 814.131 908.434 835.608 901.527C846.021 898.178 856.217 894.068 865.295 887.912Z"/>
	<path fill="#9F8BE8" d="M735.243 792.57C737.462 792.452 739.627 792.355 741.83 792.749C751.397 794.461 759.45 799.469 764.94 807.446C760.846 821.694 751.734 835.966 739.903 844.983C731.71 851.227 722.085 855.265 712.863 859.718C688.812 871.332 664.201 885.423 651.123 909.804C648.585 914.536 646.928 919.61 645.117 924.647C638.081 924.24 631.384 922.73 624.536 921.175C624.472 911.574 624.04 902.876 621.781 893.486C619.628 884.536 615.719 874.62 607.486 869.611C606.091 869.808 605.438 869.936 604.109 869.325C606.242 866.221 621.145 860.808 625.307 859.08C632.383 864.726 647.783 880.515 656.278 881.661C659.666 882.118 661.892 880.688 664.479 878.696C664.604 878.519 664.74 878.35 664.854 878.165C666.016 876.277 666.052 874.233 665.438 872.144C662.874 863.432 649.67 852.595 641.936 848.172C646.679 845.431 651.858 843.251 656.808 840.897C663.067 848.506 670.468 857.608 678.451 863.371C681.187 863.551 684.636 864.122 686.944 862.274C688.837 860.758 689.576 857.816 689.549 855.494C689.451 846.88 676.661 836.985 670.931 831.043C675.418 828.215 680.109 826.06 684.923 823.872C692.026 830.569 701.518 841.931 709.829 846.392C712.775 847.973 716.422 848.903 719.689 847.803C723.505 846.519 724.7 843.928 726.275 840.535C719.074 829.9 708.1 821.733 699.615 812.101C701.324 811.13 704.195 809.109 706.221 809.541C708.394 812.57 713.848 815.239 716.85 817.78C721.327 821.567 727.201 829.427 731.747 832.104C733.401 833.078 735.327 833.459 737.197 832.949C739.225 832.396 741.232 830.777 742.218 828.924C743.49 826.534 743.073 823.853 742.15 821.425C739.109 813.417 728.433 804.445 720.869 800.982C725.414 797.535 729.944 794.707 735.243 792.57Z"/>
	<path fill="#FEFDFE" d="M755.192 739.145C757.66 740.449 760.031 742.539 762.303 744.189C767.015 747.612 771.79 751.041 776.769 754.067C793.577 764.281 812.593 771.645 830.995 778.461C831.539 784.826 831.748 791.537 833.221 797.745C827.591 807.515 820.547 815.867 810.996 821.938C809.056 823.035 807.108 824.155 805.072 825.067C792.082 830.885 780.277 828.622 767.416 823.754C768.558 820.759 770.107 817.924 771.111 814.869C772.44 810.829 772.325 806.419 770.309 802.617C765.629 793.792 751.614 788.741 742.689 785.914C747.577 769.924 751.536 755.446 755.192 739.145Z"/>
	<path fill="#9F8BE8" d="M736.436 682.792C738.997 684.489 741.314 686.115 744.124 687.414C759.995 694.751 777.699 699.09 794.509 703.785C812.853 708.91 831.143 714.243 849.878 717.766C847.942 727.599 846.082 737.3 843.061 746.869L842.749 747.648C842.242 747.911 842.187 747.975 841.538 748.108C834.004 749.656 792.34 740.217 782.71 737.667C775.212 735.682 767.591 733.358 760.361 730.552C750.277 726.638 740.897 721.303 731.594 715.84Q732.025 707.482 733.238 699.202Q734.451 690.922 736.436 682.792Z"/>
	<path fill="#FEFDFE" d="M601.577 870.011L602.415 870.497C604.647 874.377 607.526 877.706 609.852 881.5C617.245 893.558 617.986 905.99 618.555 919.81C601.665 916.358 586.248 910.094 570.136 904.193C562.96 901.409 541.532 893.188 537.948 887.178C537.476 886.385 537.598 886.72 537.863 885.718C542.157 883.593 557.708 881.72 563.381 880.528C576.406 877.791 589.089 874.627 601.577 870.011Z"/>
	<path fill="#FEFDFE" d="M634.726 849.883C639.934 856.226 654.786 865.055 657.026 872.231L656.259 873.298L654.88 873.142C649.75 869.863 638.932 862.277 634.899 858.095C633.188 856.321 631.888 854.915 631.9 852.325C632.628 850.835 633.311 850.688 634.726 849.883Z"/>
	<defs>
		<linearGradient id="gradient_0" gradientUnits="userSpaceOnUse" x1="714.03033" y1="839.96136" x2="693.72412" y2="819.2887">
			<stop offset="0" stop-color="#F1EDFF"/>
			<stop offset="1" stop-color="white"/>
		</linearGradient>
	</defs>
	<path fill="url(#gradient_0)" d="M691.829 819.155C692.635 819.038 693.65 818.831 694.466 818.883C697.146 819.056 714.658 836.785 717.314 839.706L716.841 840.335C716.1 840.53 715.207 840.869 714.452 840.922C711.751 841.112 698.543 827.735 696.001 825.184C694.458 823.636 691.829 821.359 691.829 819.155Z"/>
	<path fill="#FEFDFE" d="M663.414 833.256C666.929 834.173 677.778 847.38 680.388 850.781C681.803 852.623 682.481 853.577 682.187 855.93C681.339 855.807 680.583 855.663 679.797 855.298C676.433 853.74 663.98 838.792 662.883 835.465C662.539 834.424 662.954 834.19 663.414 833.256Z"/>
	<path fill="#9F8BE8" d="M726.916 817.335C722.483 813.563 716.111 809.584 712.69 805.027L713.147 804.794C719.412 807.07 724.248 811.242 729.128 815.654C731.512 817.893 734.851 820.721 735.402 824.066C734.453 824.162 733.691 823.705 732.93 823.153C730.734 821.561 728.975 819.132 726.916 817.335Z"/>
	<path fill="#D8D1FB" d="M546.287 567.694C546.562 567.662 546.837 567.626 547.113 567.598C557.619 566.529 569.589 570.54 577.658 577.256C584.17 582.675 588.804 588.631 589.543 597.407C590.298 606.374 587.438 615.095 584.087 623.289C574.799 646.001 549.558 683.509 533.491 702.433C517.696 694.884 502.148 686.034 486.774 677.629C473.513 670.406 459.234 662.618 447.288 653.338C438.781 646.731 429.921 637.787 428.763 626.562C427.961 618.792 430.771 611.266 435.561 605.246C442.493 596.53 451.842 591.596 462.858 590.406C477.631 588.811 492.541 592.332 504.266 601.662C506.586 596.054 509.165 590.597 512.818 585.717C521.381 574.276 532.509 569.648 546.287 567.694Z"/>
	<path fill="#D8D1FB" d="M615.33 63.5994C624.645 62.779 633.977 64.1667 641.9 69.4079C647.801 73.3115 653.353 79.1767 654.646 86.3373C658.952 110.199 618.792 159.878 605.351 179.627C593.158 172.29 580.653 165.408 568.3 158.343C557.219 152.178 546.194 145.634 535.986 138.091C527.105 131.529 517.609 123.253 516.064 111.618C515.218 105.246 517.037 99.059 520.97 94.0105C526.987 86.2846 536.193 82.3836 545.758 81.4054C557.895 80.1642 570.377 84.1973 579.818 91.8271C581.1 89.0376 582.685 86.2872 584.402 83.7452C592.136 72.2978 601.871 66.225 615.33 63.5994Z"/>
	<path fill="#D8D1FB" d="M323.428 87.1325C330.232 86.3442 337.008 86.8736 343.119 90.176C350.656 94.2486 356.124 100.673 358.446 108.947C359.814 113.821 359.991 118.857 358.614 123.759C355.535 134.717 348.327 144.126 342.446 153.7C333.865 167.669 324.852 181.535 316.865 195.842C305.166 189.259 293.722 182.1 282.244 175.135C282.102 175.05 281.959 174.968 281.819 174.881C268.419 166.587 237.91 149.635 234.675 134.062C233.36 127.732 234.994 121.102 238.568 115.785C243.041 109.13 250.261 104.985 258.03 103.463C271.096 100.903 280.494 106.308 290.905 113.311C292.028 111.097 293.201 108.96 294.602 106.907C301.456 96.8653 311.349 89.3468 323.428 87.1325Z"/>
	<path fill="#D8D1FB" d="M960.891 388.644C963.679 388.386 966.492 388.195 969.28 388.549C974.987 389.274 980.234 391.809 983.64 396.557C987.281 401.631 988.069 408.163 986.908 414.177C985.971 419.036 983.815 423.844 981.434 428.152C976.165 437.684 956.841 464.046 948.478 469.61C939.825 466.663 931.914 462.285 924.123 457.565C912.487 449.546 896.381 438.871 892.886 424.226C891.672 419.135 892.254 413.468 895.149 409.029C898.083 404.532 903.167 401.465 908.403 400.491C918.085 398.688 926.654 402.628 934.346 408.066C940.597 399.174 950.448 391.668 960.891 388.644Z"/>
	<path fill="#D8D1FB" d="M594.384 353.602C596.481 353.517 598.577 353.422 600.662 353.725C610.829 355.207 617.433 361.197 623.232 369.176C624.389 368.109 625.55 367.031 626.78 366.046C632.022 361.849 639.454 359.557 646.111 360.504C651.149 361.22 656.041 363.744 658.967 367.993C661.38 371.498 662.241 376.033 661.394 380.193C659.316 390.39 647.723 397.435 639.734 402.866L614.277 420.201C605.491 409.935 584.569 386.166 581.258 374.106C580.11 369.924 580.256 365.136 582.515 361.334C585.158 356.885 589.616 354.909 594.384 353.602Z"/>
	<path fill="#D8D1FB" d="M433.814 256.61C435.666 256.47 437.583 256.296 439.438 256.444C448.003 257.129 454.424 262.145 459.898 268.298C459.984 268.18 460.068 268.062 460.156 267.946C464.619 262.093 470.525 258.28 477.945 257.346C483.53 256.643 489.657 257.957 494.025 261.637Q494.594 262.107 495.11 262.634Q495.626 263.161 496.084 263.74Q496.541 264.319 496.935 264.943Q497.329 265.566 497.654 266.229Q497.98 266.891 498.233 267.583Q498.487 268.276 498.666 268.992Q498.845 269.707 498.948 270.438Q499.05 271.169 499.075 271.906C499.5 282.464 485.938 294.532 479.277 301.844C472.988 308.372 466.72 314.633 459.707 320.389C449.62 311.094 425.699 289.185 421.182 277.397C419.69 273.506 419.507 269.042 421.406 265.252C423.841 260.393 428.876 258.095 433.814 256.61Z"/>
</svg>
