<?xml version="1.0" encoding="utf-8" ?>
<svg xmlns="http://www.w3.org/2000/svg" xmlns:xlink="http://www.w3.org/1999/xlink" width="1024" height="1024">
	<path fill="#9F8BE8" d="M0 0L1024 0L1024 546.032L1024 708.025L1024 909.136L1024 984.555L900.09 984.501C872.762 984.484 845.139 983.65 817.836 984.704C813.27 987.196 808.861 989.004 803.766 990.115C790.319 993.047 776.152 992.768 762.537 994.96C745.63 997.681 731.33 1003.12 713.701 1004.05C701.167 1004.71 687.489 1003.91 675.383 1000.37C664.692 997.24 658.461 993.219 651.15 984.977C622.737 985.735 594.183 985.167 565.755 985.257L339.44 985.117C337.766 986.205 336.247 987.512 334.571 988.6C316.783 1000.15 284.941 999.101 264.75 995.673C255.241 994.058 245.924 991.34 236.416 989.779C229.834 988.699 223.136 988.528 216.512 987.812C210.76 987.189 205.094 985.979 199.433 984.809C193.035 985.359 186.177 984.856 179.737 984.828L139.527 984.724L0 984.468L0 907.326L0 708.365L0 546.387L0 0Z"/>
	<path fill="#9F8BE8" d="M353.42 421.445L589.521 421.089L662.842 421.339C668.746 421.356 685.13 422.47 689.89 421.091L690.504 419.954C690.426 424.771 690.687 429.9 690.092 434.671C689.763 450.589 689.643 466.76 688.19 482.617C687.382 491.442 685.415 500.266 684.824 509.07C687.545 511.393 690.415 513.66 692.966 516.164C691.705 534.262 693.119 552.429 693.834 570.533C694.486 587.021 694.502 603.808 696.568 620.194L697.029 625.997C697.936 631.925 697.92 638.311 698.421 644.32Q700.016 664.754 702.299 685.123Q702.844 688.797 703.234 692.491C704.815 708.452 707.656 725.681 712.34 741.039L713.898 746.572C714.763 750.986 715.468 755.518 716.853 759.802C718.107 764.669 720.44 770.646 720.542 775.632C723.928 789.304 743.988 889.938 742.871 896.972C739.828 899.121 736.3 901.14 733.574 903.661C725.888 910.77 719.501 920.015 709.791 924.604C698.914 929.744 683.333 926.827 674.213 935.385C674.022 935.565 673.835 935.749 673.653 935.939C672.182 937.478 670.893 939.371 670.577 941.514C670.43 942.506 670.399 943.516 670.345 944.516C670.284 948.864 670.995 950.813 674.051 954.088C676.474 956.685 679.882 958.874 683.128 960.267C683.713 960.519 684.292 960.779 684.879 961.027C672.942 963.119 661.122 964.381 652.243 973.464C651.258 976.998 649.94 981.377 651.15 984.977C622.737 985.735 594.183 985.167 565.755 985.257L339.44 985.117C342.071 982.118 343.202 979.385 344.329 975.643Q344.034 974.504 343.691 973.379C342.707 970.211 340.892 967.181 338.006 965.403C331.626 961.472 319.817 960.117 312.286 958.09C304.292 955.937 295.773 952.616 288.513 948.568C287.156 947.811 286.307 947.297 285.886 945.773C288.164 945.09 309.784 947.607 315.113 947.538C324.547 947.415 333.808 946.092 343.037 944.25C349.751 942.721 356.693 940.72 361.535 935.472C363.793 933.025 365.48 929.836 365.174 926.423C364.883 923.174 362.761 920.032 360.294 917.995C352.787 911.796 339.003 913.392 329.748 910.998C316.149 907.481 308.353 893.809 298.192 890.977C295.184 890.138 291.83 890.543 288.758 890.762L288.722 890.057C288.864 889.922 289.008 889.789 289.149 889.653C289.334 889.473 289.513 889.286 289.699 889.107C291.23 887.625 291.43 885.823 291.654 883.776C292.643 874.722 291.335 859.803 291.058 850.185C290.583 833.738 290.547 817.163 290.431 800.705C290.383 793.877 289.494 785.23 290.992 778.607C293.49 771.885 296.391 765.065 297.855 758.042C298.484 755.301 299.358 752.632 300.201 749.951L301.324 744.501C303.125 727.461 306.852 710.492 308.883 693.426L309.805 688.014C312.14 667.344 314.888 646.797 315.983 626.006L316.403 620.423Q318.454 573.036 317.927 525.607C317.655 506.402 315.954 486.785 316.727 467.627C319.173 468.505 321.704 469.184 324.287 469.493C328.085 469.946 331.874 469.875 334.958 467.3C336.234 466.235 337.347 464.919 338.294 463.558C340.528 460.345 341.911 456.598 343.909 453.24C346.548 448.806 350.46 445.199 352.175 440.218C353.626 436.001 353.703 431.28 354.04 426.855C353.963 425.045 353.663 423.239 353.42 421.445Z"/>
	<path fill="#9F8BE8" d="M353.42 421.445L589.521 421.089L662.842 421.339C668.746 421.356 685.13 422.47 689.89 421.091L690.504 419.954C690.426 424.771 690.687 429.9 690.092 434.671C689.763 450.589 689.643 466.76 688.19 482.617C687.382 491.442 685.415 500.266 684.824 509.07C687.545 511.393 690.415 513.66 692.966 516.164C691.705 534.262 693.119 552.429 693.834 570.533C694.486 587.021 694.502 603.808 696.568 620.194C682.127 621.126 667.068 620.255 652.581 620.231L563.123 620.047L316.403 620.423Q318.454 573.036 317.927 525.607C317.655 506.402 315.954 486.785 316.727 467.627C319.173 468.505 321.704 469.184 324.287 469.493C328.085 469.946 331.874 469.875 334.958 467.3C336.234 466.235 337.347 464.919 338.294 463.558C340.528 460.345 341.911 456.598 343.909 453.24C346.548 448.806 350.46 445.199 352.175 440.218C353.626 436.001 353.703 431.28 354.04 426.855C353.963 425.045 353.663 423.239 353.42 421.445Z"/>
	<path fill="#4524A7" d="M353.42 421.445L589.521 421.089L662.842 421.339C668.746 421.356 685.13 422.47 689.89 421.091L690.504 419.954C690.426 424.771 690.687 429.9 690.092 434.671C689.956 432.067 690.017 429.428 689.998 426.818C578.043 428.226 466.006 426.835 354.04 426.855C353.963 425.045 353.663 423.239 353.42 421.445Z"/>
	<path fill="#4524A7" d="M316.403 620.423L563.123 620.047L652.581 620.231C667.068 620.255 682.127 621.126 696.568 620.194L697.029 625.997C697.936 631.925 697.92 638.311 698.421 644.32Q700.016 664.754 702.299 685.123Q702.844 688.797 703.234 692.491C704.815 708.452 707.656 725.681 712.34 741.039L713.898 746.572C714.763 750.986 715.468 755.518 716.853 759.802C718.107 764.669 720.44 770.646 720.542 775.632Q711.272 775.42 702 775.471C702.133 798.083 702.439 820.77 702.017 843.378C697.003 843.435 685.607 844.522 681.437 842.719L681.546 842.519C681.484 842.388 681.409 842.263 681.36 842.127C679.844 837.979 680.904 799.584 680.774 791.972L405.529 791.664L405.441 823.558C405.416 830.445 405.706 837.569 404.873 844.407C401.036 844.743 389.94 845.671 386.932 843.749L386.343 842.764C385.21 836.293 386.022 828.368 386.035 821.754L386.12 778.589C354.497 777.769 322.639 778.549 290.992 778.607C293.49 771.885 296.391 765.065 297.855 758.042C298.484 755.301 299.358 752.632 300.201 749.951L301.324 744.501C303.125 727.461 306.852 710.492 308.883 693.426L309.805 688.014C312.14 667.344 314.888 646.797 315.983 626.006L316.403 620.423Z"/>
	<path fill="#9F8BE8" d="M316.403 620.423L563.123 620.047L652.581 620.231C667.068 620.255 682.127 621.126 696.568 620.194L697.029 625.997C697.936 631.925 697.92 638.311 698.421 644.32Q700.016 664.754 702.299 685.123C702.186 685.756 702.276 686.653 701.661 686.994C699.613 688.129 625.902 687.009 618.005 687.098C617.932 683.367 618.045 679.463 617.407 675.781C604.823 673.732 592.198 671.958 579.627 669.833C571.887 668.524 550.953 664.252 544.578 664.608C537.665 664.993 511.119 673.962 502.992 676.328C493.035 679.226 482.715 681.382 472.922 684.753C472.287 685.793 472.384 686.784 472.385 687.956C471.43 688.48 471.732 688.469 470.792 688.509C453.745 689.229 436.388 688.234 419.306 688.209Q364.555 688.462 309.805 688.014C312.14 667.344 314.888 646.797 315.983 626.006L316.403 620.423Z"/>
	<path fill="#4524A7" d="M316.403 620.423L563.123 620.047L652.581 620.231C667.068 620.255 682.127 621.126 696.568 620.194L697.029 625.997C682.325 625.298 667.329 625.808 652.598 625.843L571.155 626.016L315.983 626.006L316.403 620.423Z"/>
	<path fill="#9F8BE8" d="M308.883 693.426L439.435 693.456C427.55 710.273 416.533 727.549 405.012 744.589C370.711 744.733 335.541 745.833 301.324 744.501C303.125 727.461 306.852 710.492 308.883 693.426Z"/>
	<path fill="#9F8BE8" d="M618.02 692.419C622.711 690.853 651.339 692.342 658.748 692.426Q680.991 692.576 703.234 692.491C704.815 708.452 707.656 725.681 712.34 741.039C703.108 741.198 693.728 741.109 684.504 740.706C673.1 724.985 661.013 709.611 650.11 693.549C639.928 693.809 628.936 694.364 618.82 693.404L618.02 692.419Z"/>
	<path fill="#593CB7" d="M297.855 758.042Q346.756 758.512 395.659 758.423C392.911 763.082 388.934 767.885 387.484 773.113C385.776 779.265 386.543 786.748 386.544 793.116L386.551 825.258C386.549 831.04 386.854 837.015 386.343 842.764C385.21 836.293 386.022 828.368 386.035 821.754L386.12 778.589C354.497 777.769 322.639 778.549 290.992 778.607C293.49 771.885 296.391 765.065 297.855 758.042Z"/>
	<path fill="#9F8BE8" d="M300.201 749.951L401.478 749.978L395.659 758.423Q346.756 758.512 297.855 758.042C298.484 755.301 299.358 752.632 300.201 749.951Z"/>
	<path fill="#9F8BE8" d="M688.313 745.93C696.795 745.907 705.458 745.689 713.898 746.572C714.763 750.986 715.468 755.518 716.853 759.802C710.793 760.077 704.709 759.971 698.644 759.964C695.061 755.365 691.597 750.749 688.313 745.93Z"/>
	<path fill="#9F8BE8" d="M442.87 697.477L471.34 697.557C471.268 705.993 470.007 730.053 471.686 736.771C477.142 739.694 485.895 739.835 492.075 740.661Q511.824 743.282 531.514 746.309C537.923 747.25 545.255 747.6 551.39 749.626C551.574 749.687 551.756 749.754 551.939 749.818C567.159 743.576 582.948 738.428 598.398 732.745C604.978 730.323 611.873 728.196 618.149 725.076Q617.953 711.785 618.058 698.494Q632.466 698.409 646.873 698.613C651.145 705.819 657.229 712.699 662.134 719.574Q679.026 742.817 694.973 766.719C695.184 767.188 695.188 767.584 695.236 768.091C691.854 769.714 543.726 768.086 524.379 768.083L394.642 768.539Q412.335 743.18 429.405 717.398C433.859 710.741 438.657 704.287 442.87 697.477Z"/>
	<path fill="#9F8BE8" d="M672.259 773.755Q684.561 773.602 696.863 773.68C697.017 777.908 696.943 782.156 696.952 786.386C671.829 786.815 646.657 786.534 621.528 786.52L415.125 786.265L390.959 786.35L390.847 773.984L672.259 773.755Z"/>
	<path fill="#9F8BE8" d="M544.14 669.638C550.824 671.761 562.86 672.406 570.247 673.478C580.702 674.994 591.043 677.213 601.56 678.288C594.361 681.606 586.378 683.872 578.878 686.447C570.461 689.336 561.55 693.105 552.813 694.685C551 695.012 549.266 694.716 547.473 694.4C539.207 693.684 530.582 691.511 522.371 690.105Q505.431 687.301 488.37 685.373C500.735 683.009 512.544 678.935 524.569 675.316C531.068 673.36 537.759 671.95 544.14 669.638Z"/>
	<path fill="#9F8BE8" d="M476.933 712.313C490.267 714.779 503.642 716.708 517.026 718.844C527.738 720.554 538.487 722.657 549.288 723.694Q549.441 733.704 549.403 743.716L476.98 733.11L476.933 712.313Z"/>
	<path fill="#9F8BE8" d="M476.89 688.85C486.411 690.609 496.16 691.619 505.746 693.026C520.314 695.166 534.848 697.627 549.389 699.946L549.366 718.941C540.21 717.357 531.154 715.287 521.966 713.871C507.146 711.588 491.506 709.977 477.014 706.167L476.89 688.85Z"/>
	<path fill="#9F8BE8" d="M612.134 703.979L612.706 704.223C613.853 709.23 613.004 716.33 612.973 721.552C603.596 724.447 594.526 728.453 585.35 731.915C575.25 735.726 564.975 739.062 554.921 742.992C554.859 742.953 554.779 742.934 554.737 742.875C553.357 740.895 554.356 728.115 554.461 724.945C573.596 717.845 593.209 711.576 612.134 703.979Z"/>
	<path fill="#9F8BE8" d="M612.392 681.135C613.932 683.81 612.592 694.05 612.512 697.704C604.87 701.829 595.985 704.232 587.78 707.014Q571.261 712.553 555.05 718.937C553.695 716.656 554.493 703.581 554.507 700.122C573.852 693.947 592.889 686.808 612.392 681.135Z"/>
	<path fill="#9F8BE8" d="M686.094 791.667C689.556 791.692 693.021 791.789 696.483 791.852C697.041 807.472 696.844 823.146 696.731 838.772L685.984 838.608L686.094 791.667Z"/>
	<path fill="#9F8BE8" d="M391.015 791.577L400.516 791.59L400.322 839.526L391.027 839.508L391.015 791.577Z"/>
	<path fill="#593CB7" d="M343.037 944.25C346.215 946.049 386.638 944.832 393.125 944.809L583.517 944.847L639.164 944.754C649.505 944.739 660.038 945.155 670.345 944.516C670.284 948.864 670.995 950.813 674.051 954.088C676.474 956.685 679.882 958.874 683.128 960.267C683.713 960.519 684.292 960.779 684.879 961.027C672.942 963.119 661.122 964.381 652.243 973.464C651.258 976.998 649.94 981.377 651.15 984.977C622.737 985.735 594.183 985.167 565.755 985.257L339.44 985.117C342.071 982.118 343.202 979.385 344.329 975.643Q344.034 974.504 343.691 973.379C342.707 970.211 340.892 967.181 338.006 965.403C331.626 961.472 319.817 960.117 312.286 958.09C304.292 955.937 295.773 952.616 288.513 948.568C287.156 947.811 286.307 947.297 285.886 945.773C288.164 945.09 309.784 947.607 315.113 947.538C324.547 947.415 333.808 946.092 343.037 944.25Z"/>
	<path d="M673.673 84.4436L678.088 86.8449C682.406 89.814 687.124 93.7238 691.979 95.689C708.216 104.611 717.916 110.028 723.321 128.704C727.465 143.024 727.567 170.404 736.22 180.971C738.65 181.927 742.254 182.754 743.332 185.366C743.683 186.219 743.562 186.841 743.265 187.709C742.503 189.934 738.849 192.162 736.918 193.359C764.842 207.697 789.319 233.307 805.481 260.042C811.391 269.818 816.179 280.343 820.854 290.751C822.832 295.548 824.823 300.307 827.074 304.986C837.739 328.108 854.621 383.554 855.182 408.244C855.421 418.77 851.419 424.268 850.313 433.407C848.888 445.173 852.998 456.32 855.362 467.647C856.22 471.756 856.483 475.936 857.282 480.034C854.276 485.555 849.524 489.377 844.116 492.415C845.011 497.548 846.141 502.798 846.588 507.982C846.587 509.379 846.463 510.554 846.993 511.87C847.098 525.89 844.594 540.177 842.792 554.054C841.888 558.304 840.847 562.633 840.333 566.946C838.193 576.294 836.586 585.764 834.764 595.178Q827.442 632.738 821.604 670.558C819.35 684.757 815.426 699.784 815.497 714.14C815.539 722.852 818.56 732.773 820.679 741.241L821.435 745.749C821.61 745.793 821.786 745.839 821.962 745.88C830.526 747.917 871.416 752.122 877.013 747.909C880.632 745.185 885.022 713.952 886.012 707.757L975.468 707.958C991.286 708.01 1007.21 708.452 1023.02 708.015L1024 708.025L1024 909.136L1024 984.555L900.09 984.501C872.762 984.484 845.139 983.65 817.836 984.704C813.27 987.196 808.861 989.004 803.766 990.115C790.319 993.047 776.152 992.768 762.537 994.96C745.63 997.681 731.33 1003.12 713.701 1004.05C701.167 1004.71 687.489 1003.91 675.383 1000.37C664.692 997.24 658.461 993.219 651.15 984.977C649.94 981.377 651.258 976.998 652.243 973.464C661.122 964.381 672.942 963.119 684.879 961.027C684.292 960.779 683.713 960.519 683.128 960.267C679.882 958.874 676.474 956.685 674.051 954.088C670.995 950.813 670.284 948.864 670.345 944.516C670.399 943.516 670.43 942.506 670.577 941.514C670.893 939.371 672.182 937.478 673.653 935.939C673.835 935.749 674.022 935.565 674.213 935.385C683.333 926.827 698.914 929.744 709.791 924.604C719.501 920.015 725.888 910.77 733.574 903.661C736.3 901.14 739.828 899.121 742.871 896.972C743.988 889.938 723.928 789.304 720.542 775.632C720.44 770.646 718.107 764.669 716.853 759.802C715.468 755.518 714.763 750.986 713.898 746.572L712.34 741.039C707.656 725.681 704.815 708.452 703.234 692.491Q702.844 688.797 702.299 685.123Q700.016 664.754 698.421 644.32C697.92 638.311 697.936 631.925 697.029 625.997L696.568 620.194C694.502 603.808 694.486 587.021 693.834 570.533C693.119 552.429 691.705 534.262 692.966 516.164C690.415 513.66 687.545 511.393 684.824 509.07C685.415 500.266 687.382 491.442 688.19 482.617C689.643 466.76 689.763 450.589 690.092 434.671C690.687 429.9 690.426 424.771 690.504 419.954C689.788 406.615 690.479 392.944 690.471 379.565C690.459 359.146 689.189 339.485 685.743 319.362C684.861 314.211 684.598 308.012 682.829 303.134C681.272 302.949 679.797 302.906 678.437 302.05C677.396 295.281 678.021 287.387 677.97 280.488Q677.704 257.812 677.944 235.136C676.74 234.298 675.586 233.356 674.42 232.463C668.413 236.643 659.754 245.834 652.84 247.093C649.238 247.748 645.431 246.417 642.578 244.218C640.035 242.257 639.558 240 639.162 236.953C633.252 232.738 625.931 229.693 620.503 225.049C618.779 223.575 617.763 223.213 615.496 222.86C614.518 222.734 613.652 222.569 612.714 222.251C610.371 221.457 608.179 220.473 607.152 218.065C604.917 212.827 609.252 205.671 611.411 200.945C610.13 197.873 603.383 186.437 601.247 183.859L600.899 184.816C600.751 185.09 600.619 185.374 600.455 185.639C599.885 186.553 599.425 187.287 598.227 187.239C596.883 187.185 596.451 186.623 595.631 185.716C594.52 182.046 595.822 178.4 596.661 174.781C595.364 175.086 594.056 175.392 592.732 175.547C584.398 176.527 576.17 174.285 569.659 168.963C568.02 167.623 565.968 165.401 566.034 163.099C566.074 161.712 566.172 161.488 567.133 160.622C569.831 160.489 572.24 162.866 574.925 162.993C576.863 163.084 578.23 162.442 579.236 160.735C580.491 158.606 580.638 155.629 580.93 153.212C581.515 148.381 581.672 142.786 583.331 138.199C585.61 131.896 594.347 125.221 599.482 121.025C604.826 116.833 610.395 112.79 615.593 108.431C623.273 103.163 650.139 85.7254 658.422 87.1919C661.292 87.7001 662.615 90.3725 664.131 92.5639C667.273 89.7569 670.014 86.5951 673.673 84.4436Z"/>
	<path fill="#9F8BE8" d="M1023.02 708.015L1024 708.025L1024 909.136L1024 984.555L900.09 984.501C872.762 984.484 845.139 983.65 817.836 984.704C820.736 981.852 823.746 978.774 824.099 974.501C824.476 969.935 821.404 965.916 818.604 962.637Q819.55 962.541 820.493 962.424C827.323 961.576 836.607 958.973 840.831 953.162C842.846 950.389 843.001 948.312 842.557 944.99C841.136 940.229 838.854 936.772 835.161 933.519C833.761 928.196 831.422 923.484 829.428 918.385C832.149 908.146 829.377 880.108 828.917 868.263C827.704 837.022 827.296 805.706 824.47 774.544C824.288 768.747 823.272 762.833 822.819 757.029C822.511 753.243 821.986 749.507 821.435 745.749C821.61 745.793 821.786 745.839 821.962 745.88C830.526 747.917 871.416 752.122 877.013 747.909C880.632 745.185 885.022 713.952 886.012 707.757L975.468 707.958C991.286 708.01 1007.21 708.452 1023.02 708.015Z"/>
	<path fill="#9F8BE8" d="M1023.02 708.015L1024 708.025L1024 909.136C1017.93 901.285 1010.65 894.179 1004 886.803L966.142 844.946Q940.578 817.044 915.338 788.849C906.041 778.397 897.014 767.69 887.61 757.336C879.634 756.876 871.436 757.303 863.431 757.316Q843.124 757.295 822.819 757.029C822.511 753.243 821.986 749.507 821.435 745.749C821.61 745.793 821.786 745.839 821.962 745.88C830.526 747.917 871.416 752.122 877.013 747.909C880.632 745.185 885.022 713.952 886.012 707.757L975.468 707.958C991.286 708.01 1007.21 708.452 1023.02 708.015Z"/>
	<path fill="#593CB7" d="M822.819 757.029Q843.124 757.295 863.431 757.316C871.436 757.303 879.634 756.876 887.61 757.336C897.014 767.69 906.041 778.397 915.338 788.849Q940.578 817.044 966.142 844.946L1004 886.803C1010.65 894.179 1017.93 901.285 1024 909.136L1024 984.555L900.09 984.501C872.762 984.484 845.139 983.65 817.836 984.704C820.736 981.852 823.746 978.774 824.099 974.501C824.476 969.935 821.404 965.916 818.604 962.637Q819.55 962.541 820.493 962.424C827.323 961.576 836.607 958.973 840.831 953.162C842.846 950.389 843.001 948.312 842.557 944.99L1008.95 944.978C1003.81 936.723 997.154 929.178 990.929 921.728Q981.475 910.426 972.229 898.953L910.442 822.984C897.712 807.178 884.753 791.555 872.995 775.005C856.823 775.002 840.633 775.178 824.47 774.544C824.288 768.747 823.272 762.833 822.819 757.029Z"/>
	<path fill="#593CB7" d="M677.944 235.136C684.497 238.763 691.126 242.429 697.028 247.067C687.634 257.86 682.614 271.737 681.912 285.944C681.832 291.604 681.377 297.616 682.829 303.134C681.272 302.949 679.797 302.906 678.437 302.05C677.396 295.281 678.021 287.387 677.97 280.488Q677.704 257.812 677.944 235.136Z"/>
	<path fill="#4524A7" d="M678.437 302.05C679.087 297.108 678.698 291.666 678.718 286.662L679.162 286.263C679.864 286.263 680.454 286.203 681.153 286.083C681.407 286.04 681.659 285.99 681.912 285.944C681.832 291.604 681.377 297.616 682.829 303.134C681.272 302.949 679.797 302.906 678.437 302.05Z"/>
	<path fill="#2B0C3D" d="M837.118 496.591L837.604 496.779C838.871 499.004 839.639 501.187 840.493 503.576C844.874 515.827 832.127 573.067 829.06 589.037C827.161 598.923 825.671 608.911 823.91 618.826L814.563 673.248C812.454 685.85 809.666 699.241 809.438 711.991C809.265 721.638 811.993 730.688 813.915 740.043Q816.026 750.335 816.983 760.797C818.709 779.026 819.013 797.274 819.633 815.559L821.681 867.691C821.908 874.627 824.488 909.059 822.498 913.656C821.059 916.98 814.769 918.903 811.599 920.081C799.496 924.582 784.098 929.315 771.067 927.27C764.682 926.268 758.884 923.723 753.05 921.054C752.129 916.192 751.827 911.088 751.209 906.169Q749.705 894.44 747.787 882.772Q741.243 843.094 733.129 803.708C728.896 782.296 723.677 761.035 718.66 739.798C716.571 730.955 714.015 722.263 712.441 713.302C710.529 702.416 709.532 691.485 708.365 680.506C706.708 664.919 705.24 649.4 703.997 633.77C700.937 595.265 698.268 557.024 698.401 518.378C713.227 525.019 721.988 526.498 738.226 526.393C737.356 528.982 736.418 531.657 736.069 534.374C735.325 540.168 739.073 544.184 742.373 548.427C736.946 553.857 729.493 557.112 725.877 564.045C730.361 574.079 750.448 601.773 758.64 608.142C769.331 598.106 773.554 578.082 777.438 564.189C780.197 563.996 783.199 563.715 785.779 562.663C797.167 558.019 811.305 518.111 816.61 506.301C824.305 504.642 830.422 500.529 837.118 496.591Z"/>
	<path fill="#9F8BE8" d="M743.025 203.915Q746.385 206.152 749.648 208.53Q752.911 210.908 756.07 213.421Q759.23 215.935 762.28 218.58Q765.33 221.225 768.265 223.996Q771.201 226.768 774.016 229.662Q776.832 232.555 779.522 235.565Q782.213 238.575 784.774 241.696Q787.335 244.817 789.761 248.044C816.999 284.796 838.06 347.29 846.781 391.89C850.179 409.274 849.904 412.967 844.808 429.539C842.935 437.486 844.166 444.854 845.22 452.819C840.921 455.776 836.779 459.052 832.535 462.099C835.857 450.623 840.588 439.846 843.237 428.1C843.67 425.31 844.552 421.899 844.21 419.097C840.943 392.296 796.568 298.1 780.719 276.163C779.377 274.306 778.143 272.865 776.155 271.712C774.74 271.613 774.788 271.596 773.663 272.459C773.111 273.638 772.872 274.543 773.196 275.854C774.053 279.322 782.764 292.376 785.096 296.496Q793.784 311.712 801.41 327.487C810.281 346.084 838.574 404.345 837.616 422.968C836.857 437.723 829.521 453.463 824.446 467.246C820.723 477.357 817.13 487.524 813.083 497.51C809.713 505.828 806.474 514.205 803.023 522.488C801.094 527.119 798.693 531.693 797.121 536.45C779.302 534.681 762.042 530.371 748.953 517.195C755.952 496.709 774.965 444.239 773.687 424.515C773.42 420.391 771.744 416.226 769.941 412.543C765.198 402.855 758.084 393.863 751.822 385.111C739.701 368.172 727.052 351.586 715.142 334.503C713.249 331.787 701.83 313.954 700.564 313.476C699.546 313.092 698.972 313.207 697.934 313.372C696.977 314.264 696.781 314.39 696.807 315.799C696.941 322.816 742.694 382.688 750.539 394.001C755.947 401.801 766.086 414.38 767.204 423.713C768.67 435.959 760.255 462.564 756.582 475.422C753.931 484.704 745.826 512.69 741.098 519.578C740.619 520.277 740.593 520.268 740.089 520.782C723.114 521.601 705.037 517.361 691.412 506.9C691.796 501.015 692.312 495.025 693.175 489.19C702.67 495.848 721.402 503.779 733.101 501.709C734.819 501.405 737.345 500.821 738.561 499.445C738.673 499.317 738.722 499.146 738.802 498.997C737.898 497.608 737.434 496.94 735.76 496.521C732.654 495.744 729.101 496.097 725.865 495.483C713.871 493.205 704.476 488.898 694.139 482.603C694.909 463.534 696.008 444.42 696.457 425.347C696.727 413.919 696.507 402.434 696.491 391.001C696.475 380.108 696.819 369.053 696.18 358.181C695.599 348.289 694.843 338.504 693.281 328.717C691.344 316.568 688.412 304.699 688.229 292.329C688.103 283.84 688.986 275.765 691.989 267.776C695.064 259.596 700.463 253.464 705.742 246.663C717.968 230.914 729.539 218.342 743.025 203.915Z"/>
	<path d="M723.003 251.485C723.733 251.423 724.495 251.486 725.228 251.504C726.162 252.049 726.746 252.324 727.352 253.257C727.853 254.029 727.596 254.344 727.46 255.197C724.195 258.865 719.746 259.682 715.433 261.573C705.87 265.767 701.343 274.648 697.844 283.854C697.404 283.976 697.25 284.04 696.745 284.059C695.357 284.11 694.732 283.755 693.749 282.858C692.972 280.318 694.1 277.153 695.031 274.766C699.991 262.049 711.29 256.619 723.003 251.485Z"/>
	<path fill="#2B0C3D" d="M673.585 91.8339C678.745 94.3098 682.875 98.426 688.015 101.011C715.719 114.94 717.581 125.304 721.614 154.874C722.471 161.155 723.055 167.616 725.088 173.651C727.501 180.814 731.525 186.209 738.392 189.6C736.381 189.721 734.447 190.018 732.461 190.353C729.332 188.408 724.281 184.277 720.521 185.08C717.015 185.83 715.952 189.325 714.095 191.927C713.204 193.176 712.231 194.207 710.587 194.31C703.576 194.751 694.49 184.813 689.935 180.245C689.953 175.311 689.689 170.237 687.03 165.929C684.777 162.279 681.13 159.305 676.874 158.421C673.512 157.723 669.978 158.299 667.155 160.298C663.341 162.998 662.686 165.843 662.031 170.16L662.013 176.747C657.242 175.052 652.468 173.304 647.512 172.224C640.928 170.788 632.722 170.346 626.595 167.585C619.269 164.286 613.868 157.799 606.938 153.868C606.756 153.765 606.571 153.667 606.387 153.567C602.365 158.096 600.086 164.076 595.991 168.83C590.398 169.92 586.151 170.185 580.585 169.097C582.624 166.899 584.471 164.606 586.315 162.244C587.39 153.74 586.857 142.186 592.776 135.511C600.32 127.004 645.541 93.0211 656.091 93.5985C658.731 93.743 659.671 95.4553 661.452 97.1225C662.439 98.0462 663.421 98.5271 664.806 98.4215C668.165 98.1656 671.406 94.0796 673.585 91.8339Z"/>
	<path fill="#FEFEFE" d="M671.322 164.507Q673.074 164.345 674.83 164.447C678.252 164.676 680.154 166.706 682.287 169.162C683.175 173.459 683.867 180.983 681.323 184.732C679.625 187.234 676.259 186.763 673.594 187.144C672.663 187.985 672.577 188.258 672.169 189.46C672.54 190.735 672.75 191.382 673.888 192.149C675.805 193.442 678.753 193.954 680.969 193.311C683.942 192.448 685.462 190.174 686.851 187.597C692.686 192.053 700.916 198.929 708.511 198.905C714.517 198.887 718.483 194.881 722.333 190.845Q729.727 195.951 737.519 200.427C724.909 213.733 711.367 227.292 701.419 242.732C693.773 238.343 686.352 233.446 678.794 228.893C680.505 224.901 684.421 220.624 683.659 216.123C682.823 214.92 682.755 214.849 681.382 214.346C677.491 215.17 675.77 221.838 673.044 224.749C669.043 229.021 664.005 232.537 659.35 236.069C656.658 238.476 654.251 240.333 650.868 241.647C641.95 237.353 646.17 234.392 640.985 230.803L637.046 228.131C638.063 227.071 639.803 224.929 641.19 224.617C641.157 225.491 641.144 226.305 641.237 227.179C641.341 228.153 641.595 228.085 642.308 228.678C644.194 228.882 647.189 228.661 648.622 227.28C649.187 226.736 649.503 226.125 649.535 225.349C649.617 223.374 648.485 221.668 647.274 220.197C644.834 217.231 640.023 212.786 636.085 212.511C633.526 212.332 631.472 213.635 629.655 215.296C628.564 216.292 627.258 217.739 625.771 217.988C623.163 218.424 616.362 217.64 614.261 215.957C611.158 213.472 617.313 203.923 616.663 198.782C616.644 198.629 616.62 198.477 616.598 198.324C617.418 200.392 618.422 203.311 620.133 204.812C621.116 205.673 621.758 205.753 623.015 205.723C624.212 204.952 624.408 204.771 625.071 203.516C625.282 200.708 624.03 197.955 623.15 195.321L623.712 195.126L625.266 196.968C626.054 196.624 626.614 195.777 626.998 195.003C627.679 193.629 627.597 192.886 627.226 191.451C625.022 188.919 621.997 188.6 618.868 188.037Q617.292 188.706 615.705 189.352C614.973 189.656 614.196 190.041 613.412 190.183C612.291 190.386 611.274 190.529 610.366 189.837C611.604 186.708 626.389 177.047 630.028 174.517L630.404 174.656C637.223 177.134 642.836 177.822 650.081 177.473C653.121 179.508 662.025 184.55 665.483 184.649C666.917 184.691 667.187 184.437 668.257 183.607C670.092 179.806 668.473 174.075 667.217 170.24C668.408 168.064 669.414 166.165 671.322 164.507Z"/>
	<path fill="#FEFEFE" d="M745.92 931.558L747.758 931.581C770.086 931.675 769.334 944.838 782.205 947.397C792.516 949.447 793.845 941.036 799.658 936.982C800.497 938.119 808.512 957.136 808.822 958.775C809.143 960.475 808.832 961.473 807.88 962.866C806.08 965.502 802.884 966.686 799.929 967.487C789.365 970.348 777.922 969.891 767.115 972.154C755.172 974.656 744.048 979.571 732.118 982.111C713.275 985.805 689.233 986.193 670.706 980.897C667.949 980.109 664.717 979.449 662.304 977.853C661.243 977.151 660.827 976.657 660.52 975.444C661.884 972.102 674.068 969.339 677.628 968.633C684.301 967.31 691.232 966.14 697.544 963.539C703.859 960.936 709.525 956.545 715.057 952.622C725.182 945.443 735.113 937.672 745.92 931.558Z"/>
	<path fill="#2B0C3D" d="M813.278 967.851L814.975 968.195C815.995 968.987 816.709 969.757 817.328 970.886C818.037 972.178 818.332 973.805 817.716 975.193C815.934 979.212 809.365 982.499 805.411 983.771C792.332 987.976 776.883 987.202 763.243 989.001C751.045 990.609 739.512 994.095 727.495 996.487C706.599 1000.65 683.606 999.072 664.437 989.364C660.483 987.126 658.239 985.048 655.733 981.254C663.337 985.024 671.597 987.243 679.946 988.624C697.859 991.587 723.384 991.417 740.799 986.774C750.57 984.17 759.801 980.322 769.796 978.417C785.581 975.409 799.551 977.7 813.278 967.851Z"/>
	<path fill="#FEFEFE" d="M747.004 551.786C749.701 552.628 752.475 554.665 754.961 556.079C760.575 559.273 765.553 561.156 771.864 562.543C768.265 575.103 765.019 588.085 757.612 599.048C753.777 593.575 749.31 588.496 745.268 583.164C740.587 576.988 736.322 570.595 731.975 564.187C736.454 559.426 742.447 556.607 747.004 551.786Z"/>
	<path fill="#FEFEFE" d="M743.215 904.373C745.301 906.156 746.619 919.615 747.139 923.23C738.572 926.531 729.425 934.947 721.311 939.708C711.113 945.694 699.408 944.489 688.384 941.699C686.212 941.047 683.643 940.071 682.416 938.056C683.397 936.534 685.286 936.241 686.985 935.863C692.517 934.633 698.276 934.634 703.78 933.216C721.724 928.593 729.474 914.692 743.215 904.373Z"/>
	<path fill="#9F8BE8" d="M746.681 523.722C749.521 525.634 751.972 528.138 754.88 530.052C766.57 537.746 779.534 541.1 793.286 542.657C791.267 547.376 788.899 551.095 785.629 555.052C784.835 555.932 784.05 556.853 782.878 557.207C775.029 559.577 762.858 553.467 756.26 549.624C752.143 547.226 743.345 542.572 742.238 537.514C741.136 532.473 744.245 527.851 746.681 523.722Z"/>
	<path fill="#9F8BE8" d="M846.373 459.919C846.594 460.134 846.851 460.318 847.036 460.564C849.703 464.105 850.447 475.36 850.257 479.707C842.865 487.218 833.291 492.503 824.074 497.445L819.641 499.838C822.492 489.899 826.4 480.044 829.914 470.317C835.682 467.235 841.173 463.897 846.373 459.919Z"/>
	<path fill="#FEFEFE" d="M823.505 921.998C825.654 923.813 827.09 930.478 828.02 933.23C827.341 934.171 826.649 935.147 825.833 935.975C822.103 939.757 814.705 942.023 809.495 941.989C807.265 937.928 805.436 933.587 803.48 929.387C810.445 927.409 816.944 925.029 823.505 921.998Z"/>
	<path fill="#2B0C3D" d="M832.435 939.391C833.75 940.504 835.616 943.671 835.948 945.395C836.294 947.191 835.836 948.936 834.729 950.384C830.857 955.448 820.601 956.312 814.775 956.887C813.526 954.01 812.148 951.249 810.678 948.478C819.265 946.867 825.311 944.408 832.435 939.391Z"/>
	<path fill="#FEFEFE" d="M608.517 161.202C609.35 161.603 609.222 161.457 609.76 161.935C613.751 165.484 617.831 168.758 622.075 171.994C619.45 174.547 616.556 176.593 613.572 178.701Q610.64 180.465 607.772 182.331C606.069 178.679 605.21 174.567 604.163 170.682L608.517 161.202Z"/>
	<path fill="#2B0C3D" d="M676.045 941.23C676.202 941.32 676.374 941.387 676.516 941.499C688.792 951.182 691.774 947.673 703.882 952.22L703.737 952.967L701.856 954.154C698.461 955.359 695.258 956.165 691.716 956.8C687.441 955.175 682.347 953.23 679.095 949.931C676.297 947.091 675.918 945.11 676.045 941.23Z"/>
	<path fill="#FEFEFE" d="M794.745 932.074C794.987 932.099 795.162 932.324 795.358 932.467C795.201 932.801 794.999 933.264 794.793 933.592C793.121 936.268 788.521 941.194 785.253 941.434C782.95 941.604 781.203 940.445 779.542 939.023L773.882 934.715C781.308 934.727 787.593 934.154 794.745 932.074Z"/>
	<path d="M211.604 161.561C221.513 153.084 232.995 146.506 246.491 147.504C253.003 147.986 264.895 152.34 269.785 156.481C288.84 150.087 305.456 146.683 324.366 156.044C335.735 161.672 345.114 170.249 356.512 175.9C359.278 177.238 362.947 178.974 364.1 182.068C364.886 184.178 364.226 186.579 363.158 188.469C362.011 190.5 359.261 192.058 357.509 193.561C362.01 201.553 364.284 213.315 361.878 222.391C361.439 224.049 360.783 225.661 360.102 227.233C358.799 228.114 357.266 228.962 356.829 230.585C354.716 238.431 371.845 254.007 364.776 260.14C361.306 263.15 355.003 261.237 352.31 265.34C352.376 267.287 352.806 269.189 352.822 271.123C348.579 276.891 347.785 284.516 342.502 289.349C338.348 292.522 334.751 294.529 329.298 293.687C325.184 293.052 320.993 291.207 317.155 289.631C311.437 290.979 301.051 290.295 295.013 289.803C293.648 292.875 293.661 296.994 294.872 300.122C295.231 301.05 295.755 301.868 296.282 302.705C303.393 320.172 311.293 337.277 318.881 354.538C323.454 364.942 327.471 375.714 332.582 385.858C339.35 399.289 348.833 405.828 353.42 421.445C353.663 423.239 353.963 425.045 354.04 426.855C353.703 431.28 353.626 436.001 352.175 440.218C350.46 445.199 346.548 448.806 343.909 453.24C341.911 456.598 340.528 460.345 338.294 463.558C337.347 464.919 336.234 466.235 334.958 467.3C331.874 469.875 328.085 469.946 324.287 469.493C321.704 469.184 319.173 468.505 316.727 467.627C315.954 486.785 317.655 506.402 317.927 525.607Q318.454 573.036 316.403 620.423L315.983 626.006C314.888 646.797 312.14 667.344 309.805 688.014L308.883 693.426C306.852 710.492 303.125 727.461 301.324 744.501L300.201 749.951C299.358 752.632 298.484 755.301 297.855 758.042C296.391 765.065 293.49 771.885 290.992 778.607C289.494 785.23 290.383 793.877 290.431 800.705C290.547 817.163 290.583 833.738 291.058 850.185C291.335 859.803 292.643 874.722 291.654 883.776C291.43 885.823 291.23 887.625 289.699 889.107C289.513 889.286 289.334 889.473 289.149 889.653C289.008 889.789 288.864 889.922 288.722 890.057L288.758 890.762C291.83 890.543 295.184 890.138 298.192 890.977C308.353 893.809 316.149 907.481 329.748 910.998C339.003 913.392 352.787 911.796 360.294 917.995C362.761 920.032 364.883 923.174 365.174 926.423C365.48 929.836 363.793 933.025 361.535 935.472C356.693 940.72 349.751 942.721 343.037 944.25C333.808 946.092 324.547 947.415 315.113 947.538C309.784 947.607 288.164 945.09 285.886 945.773C286.307 947.297 287.156 947.811 288.513 948.568C295.773 952.616 304.292 955.937 312.286 958.09C319.817 960.117 331.626 961.472 338.006 965.403C340.892 967.181 342.707 970.211 343.691 973.379Q344.034 974.504 344.329 975.643C343.202 979.385 342.071 982.118 339.44 985.117C337.766 986.205 336.247 987.512 334.571 988.6C316.783 1000.15 284.941 999.101 264.75 995.673C255.241 994.058 245.924 991.34 236.416 989.779C229.834 988.699 223.136 988.528 216.512 987.812C210.76 987.189 205.094 985.979 199.433 984.809C193.035 985.359 186.177 984.856 179.737 984.828L139.527 984.724L0 984.468L0 907.326L0 708.365C45.8863 708.361 91.8744 707.49 137.747 708.15C140.734 721.822 142.484 735.784 145.316 749.511L186.228 749.679C193.166 749.682 200.794 749.036 207.657 749.905C208.158 750.781 208.188 750.946 208.237 751.901C208.662 749.56 208.809 747.218 208.983 744.85C209.638 740.772 210.266 736.86 210.185 732.715C209.952 720.719 207.693 708.167 206.317 696.21C204.723 682.369 203.864 667.898 200.999 654.276C197.383 637.08 191.568 620.518 189.208 603.047C187.776 592.444 188.406 582.737 188.477 572.138C189.139 569.741 189.412 567.095 189.754 564.629C191.032 556.762 192.754 548.932 195.395 541.401C200.148 527.849 208.16 514.155 208.572 499.561C209.282 495.101 208.206 490.794 208.726 486.327C209.344 480.642 205.63 463.188 204.586 456.27C198.542 416.182 187.995 369.575 196.199 329.309C195.013 330.32 193.816 331.348 192.526 332.223C185.593 336.92 178.111 338.55 169.874 336.961C164.328 335.892 154.523 332.714 151.418 327.716C150.705 326.567 150.502 325.617 150.778 324.286C153.806 321.653 158.731 325.141 162.23 323.403C162.369 320.158 156.755 314.36 154.876 311.55C139.603 288.713 145.821 262.843 164.09 243.909C171.976 235.736 181.945 229.354 188.423 219.852C192.831 213.386 195.089 205.492 196.611 197.905C201.77 183.536 201.712 174.809 211.604 161.561Z"/>
	<path fill="#9F8BE8" d="M0 708.365C45.8863 708.361 91.8744 707.49 137.747 708.15C140.734 721.822 142.484 735.784 145.316 749.511L186.228 749.679C193.166 749.682 200.794 749.036 207.657 749.905C208.158 750.781 208.188 750.946 208.237 751.901C208.086 754.069 208.078 756.356 207.742 758.498C207.296 764.573 207.817 771.414 206.67 777.323C206.108 792.793 204.801 808.243 203.889 823.697C202.816 841.87 202.118 860.029 201.223 878.205C200.596 890.925 198.594 904.431 199.391 917.126C199.498 918.843 199.625 919.849 200.875 921.136C201.94 922.232 203.944 922.888 205.377 923.299C205.559 925.802 206.631 930.497 205.926 932.707C205.084 933.41 204.356 933.815 203.384 934.283C201.596 935.144 201.212 936.077 200.589 937.896C199.855 940.04 199.221 942.229 198.563 944.398C197.656 947.31 196.795 950.272 195.501 953.04C192.101 960.312 185.672 968.219 189.808 976.596C191.816 980.664 195.663 982.668 199.433 984.809C193.035 985.359 186.177 984.856 179.737 984.828L139.527 984.724L0 984.468L0 907.326L0 708.365Z"/>
	<path fill="#9F8BE8" d="M0 708.365C45.8863 708.361 91.8744 707.49 137.747 708.15C140.734 721.822 142.484 735.784 145.316 749.511L186.228 749.679C193.166 749.682 200.794 749.036 207.657 749.905C208.158 750.781 208.188 750.946 208.237 751.901C208.086 754.069 208.078 756.356 207.742 758.498C183.102 758.524 158.061 759.329 133.46 758.119L50.9898 850.275C34.1057 869.286 17.5419 888.943 0 907.326L0 708.365Z"/>
	<path fill="#593CB7" d="M133.46 758.119C158.061 759.329 183.102 758.524 207.742 758.498C207.296 764.573 207.817 771.414 206.67 777.323L206.162 776.258C199.939 775.02 192.222 775.943 185.798 775.954C173.769 775.976 161.597 775.612 149.586 776.119C137.302 790.414 125.785 805.648 113.959 820.345L58.9347 887.718C47.9199 901.159 36.4878 914.273 25.4006 927.661C20.8415 933.167 15.3876 938.823 11.6093 944.879Q76.3809 945.306 141.153 945.077L177.361 945.037C184.234 945.024 191.807 945.577 198.563 944.398C197.656 947.31 196.795 950.272 195.501 953.04C192.101 960.312 185.672 968.219 189.808 976.596C191.816 980.664 195.663 982.668 199.433 984.809C193.035 985.359 186.177 984.856 179.737 984.828L139.527 984.724L0 984.468L0 907.326C17.5419 888.943 34.1057 869.286 50.9898 850.275L133.46 758.119Z"/>
	<path fill="#9F8BE8" d="M295.013 289.803C297.125 286.195 299.647 283.012 302.244 279.752C306.895 283.818 311.756 286.661 317.155 289.631C311.437 290.979 301.051 290.295 295.013 289.803Z"/>
	<path fill="#9F8BE8" d="M214.425 504.207C223.969 505.17 233.42 507.229 243.006 508.159C266.182 510.408 288.418 509.471 311.516 507.06C311.355 526.036 312.363 545.005 312.202 564Q312.004 596.931 309.75 629.785Q307.497 662.639 303.197 695.288C301.004 712.192 298.793 729.576 295.111 746.213C291.462 762.705 283.217 777.897 278.245 794.042C268.155 826.808 261.779 860.568 256.75 894.427C255.742 900.216 256.299 909.107 253.107 914.039C250.482 918.095 241.892 919.304 237.405 920.087C229.214 921.517 212.926 921.004 206.037 916.111C204.578 913.486 208.022 852.546 208.484 843.014C209.82 815.453 211.304 787.777 213.199 760.252C213.842 750.921 216.881 739.39 216.071 730.519C214.856 717.216 213.027 703.909 211.534 690.631C210.188 678.664 209.235 666.363 207.135 654.505C204.908 641.936 200.541 629.657 197.536 617.25C194.575 605.022 193.041 589.855 193.852 577.3C194.59 565.885 197.25 553.614 201.165 542.924C205.944 529.872 211.887 518.061 214.425 504.207Z"/>
	<path fill="#FEFEFE" d="M241.728 278.778C245.885 280.241 250.249 283.082 254.002 285.409C256.427 286.913 258.748 288.434 260.536 290.704C264.97 296.334 268.531 303.42 272.25 309.562Q296.606 349.609 317.708 391.462C324.712 405.151 333.372 419.738 336.752 434.795C338.362 441.969 338.994 451.818 334.695 458.18C332.974 460.728 330.383 462.71 327.278 463.129C309.607 465.514 274.538 414.615 264.13 400.82C259.043 394.079 253.716 387.625 248.392 381.082C245.23 377.197 242.252 372.408 238.214 369.401C236.64 368.23 235.232 367.598 233.255 367.939C232.731 368.541 232.583 368.462 232.528 369.084C232.394 370.588 233.241 372.167 234.032 373.39C236.197 376.74 239.597 379.838 242.161 382.968Q249.582 392.184 256.643 401.679C267.74 415.801 278.234 430.792 290.193 444.19C293.99 448.444 297.969 452.738 302.103 456.663C304.489 458.927 307.269 460.939 309.493 463.34C309.811 463.683 310.339 464.37 310.493 464.813C311.408 467.44 311.574 496.053 311.455 500.775C288.109 505.652 237.962 504.648 214.963 497.546C215.137 473.913 209.532 448.577 205.62 425.253C202.338 405.69 199.884 385.532 198.917 365.72C198.297 353.029 199.157 334.572 204.613 323.12C207.948 316.119 215.445 309.481 220.534 303.519C227.595 295.245 234.413 286.839 241.728 278.778Z"/>
	<path fill="#2B0C3D" d="M238.602 154.053C243.715 153.722 248.386 154.013 253.439 154.879C249.987 159.647 245.507 163.978 242.612 169.102C241.129 171.726 240.111 174.718 241.109 177.699C242.085 180.614 244.392 181.798 247.006 183.045C232.968 215.447 242.448 224.635 253.335 254.426C245.35 266.446 234.918 277.194 225.52 288.125C215.623 299.634 204.423 314.244 193.013 323.961C188.834 327.519 184.682 329.987 179.463 331.679C173.985 332.283 169.43 331.5 164.432 329.19C167.386 327.448 169.379 325.405 171.547 322.806C169.543 319.782 166.997 317.12 164.682 314.331C159.375 307.935 155.549 300.768 153.349 292.723C151.595 286.306 152.21 280.052 153.925 273.71C161.784 244.655 185.251 240.37 196.591 218.305C204.303 203.3 203.9 185.838 212.371 171.193C218.357 160.844 227.5 157.003 238.602 154.053Z"/>
	<path fill="#FEFEFE" d="M351.379 196.301C352.169 196.903 352.608 197.791 353.156 198.606C358.177 206.064 356.972 213.869 356.409 222.324C348.975 223.682 341.399 220.282 334.105 222.638C332.587 223.128 332.034 223.672 331.324 225.072C333.166 228.957 341.75 228.784 345.539 229.705C347.437 230.166 349.19 231.013 350.941 231.857C352.04 236.04 353.182 239.978 355.148 243.843C356.544 246.588 358.856 249.786 359.749 252.699C359.957 253.377 359.873 253.983 359.793 254.671C358.131 257.771 352.09 258.139 348.909 259.829L348.176 260.225C346.037 265.003 347.958 267.033 346.909 269.555C346.165 269.733 344.548 270.037 344.063 270.698C341.326 274.425 342.421 280.828 339.368 284.745C337.048 287.721 334.255 288.07 330.77 288.625C324.167 286.203 317.191 282.974 311.492 278.83C309.251 277.2 307.287 275.222 305.084 273.558C303.965 272.714 302.861 271.856 301.388 272.266C296.652 273.582 290.842 283.364 289.058 287.796C287.746 291.053 287.392 293.987 288.128 297.424C290.131 306.785 295.353 315.88 299.081 324.674L325.314 385.715C325.178 385.684 325.037 385.667 324.905 385.622C319.119 383.649 314.679 372.156 311.905 366.796C301.321 345.998 289.034 326.005 277.049 305.996C273.389 299.885 269.049 290.54 264.241 285.545C259.496 280.616 251.574 277.203 245.612 273.83C249.092 269.803 252.84 265.813 256 261.543C258.537 258.115 260.621 254.304 263.445 251.097C267.345 246.668 272.128 242.696 276.551 238.78C278.137 242.29 279.799 245.993 282.534 248.773C285.485 251.77 290.32 253.22 294.466 253.093C296.415 253.034 297.686 252.587 299.036 251.11C299.326 250.213 299.619 249.554 299.439 248.596C299.171 247.161 289.148 246.338 286.413 244.346C282.785 241.704 280.992 236.858 280.41 232.555C280.016 229.638 280.217 226.431 282.212 224.095C283.271 222.857 285.506 221.465 287.201 221.548C292.967 221.831 290.843 231.808 294.423 234.838C295.725 235.046 295.928 234.967 297.16 234.469C298.266 233.126 298.011 231.355 298.037 229.701C303.074 229.607 307.897 229.339 312.82 228.139C330.24 223.895 342.29 211.03 351.379 196.301Z"/>
	<path d="M343.23 233.753C343.579 233.79 343.929 233.826 344.277 233.879C345.638 234.084 346.631 234.537 347.352 235.795C348.237 237.34 348.037 239.294 347.71 240.96C347.289 243.107 346.885 245.176 346.277 247.285C345.092 247.227 343.656 247.253 342.568 246.737C341.307 246.138 340.415 244.691 340.186 243.349C339.601 239.913 341.438 236.525 343.23 233.753Z"/>
	<path fill="#2B0C3D" d="M291.793 156.172C299.618 155.146 308.176 156.151 315.557 158.89C326.451 162.932 334.579 170.154 344.157 176.306C347.87 178.692 355.559 180.999 357.417 185.04C356.529 188.344 349.894 190.281 347.182 192.371C343.329 195.339 341.053 201.408 337.903 205.187C327.667 217.467 313.396 222.735 297.865 223.996C295.187 220.211 292.818 217.692 288.549 215.728C285.151 215.722 281.772 216.092 279.16 218.509C275.357 222.028 275.413 227.858 275.221 232.623C268.853 236.752 263.127 243.098 258.514 249.069C257.216 246.243 256.243 243.267 254.927 240.437C252.71 235.673 250.122 230.992 248.312 226.056C243.65 213.344 247 198.436 252.45 186.46C254.947 185.367 257.381 183.702 259.551 182.061C266.46 176.834 270.776 170.174 271.978 161.536Q276.717 159.501 281.696 158.153Q286.674 156.805 291.793 156.172Z"/>
	<path fill="#FEFEFE" d="M249.99 932.068C250.517 931.996 251.043 931.918 251.573 931.876C261.299 931.103 271.793 942.633 279.159 948.135C288.834 955.36 299.465 961.661 311.35 964.327C318.555 965.943 325.542 966.911 332.274 970.094C331.476 971.877 330.771 973.364 329.188 974.575C320.915 980.898 285.906 981.28 275.537 979.858C262.153 977.666 249.948 972.557 236.803 969.844C227.976 968.022 218.62 968.542 209.955 965.957C206.463 964.916 202.437 962.681 200.891 959.189C199.891 956.929 205.311 942.566 206.41 939.247C209.181 940.732 211.302 943.089 213.998 944.662C225.124 951.152 234.688 939.021 243.594 934.27C245.623 933.187 247.777 932.623 249.99 932.068Z"/>
	<path fill="#FEFEFE" d="M290.631 896.564C292.019 896.429 293.69 896.142 295.057 896.482C301.69 898.136 313.542 910.802 321.868 914.84C332.181 919.841 344.541 918.615 355.444 922.055Q355.047 922.427 354.64 922.787C345.454 930.862 327.156 931.603 315.612 930.801C313.068 929.856 303.437 930.471 300.013 930.216C290.6 929.514 281.288 927.78 271.876 927.015C268.542 926.743 256.043 927.041 254.293 925.759C253.437 921.352 259.624 917.086 260.495 912.71C260.51 912.634 260.64 911.782 260.676 911.681C261.4 909.652 269.912 911.285 272.539 910.12C279.408 907.073 283.354 899.781 290.631 896.564Z"/>
	<path fill="#9F8BE8" d="M283.64 798.337C285.483 804.07 285.18 854.04 285.317 863.146C285.427 870.394 286.221 877.679 285.885 884.919C279.532 888.851 273.547 891 266.116 891.845L264.466 891.951L263.796 891.232C262.211 880.231 278.556 812.354 283.64 798.337Z"/>
	<path fill="#2B0C3D" d="M195.801 964.239C197.047 964.98 198.086 966.302 199.151 967.297C201.474 969.466 204.591 970.747 207.578 971.767C216.58 974.843 226.224 973.622 235.478 975.324C242.761 976.663 249.665 979.688 256.71 981.904C266.227 984.898 277.361 986.339 287.33 986.339C297.263 986.338 322.253 985.365 330.444 980.86C332.986 979.462 335.819 975.592 337.937 973.485L338.66 973.516C338.749 975.134 338.113 976.512 337.568 978.003C333.243 983.108 328.277 986.326 321.86 988.161C302.748 993.625 280.762 992.899 261.495 988.947C252.233 987.047 242.961 984.423 233.587 983.149C222.493 981.641 209.168 983.69 199.13 977.79C196.845 976.447 194.516 974.731 193.962 971.98C193.383 969.103 194.289 966.641 195.801 964.239Z"/>
	<path fill="#2B0C3D" d="M345.908 933.675C347.401 933.096 349.026 932.548 350.434 931.785C352.662 930.579 357.151 926.023 359.638 926.913C359.637 928.969 357.99 931.362 356.569 932.784C354.207 935.15 350.517 936.335 347.354 937.212Q339.213 939.561 330.797 940.548C316.589 942.347 303.36 941.311 289.198 939.779C285.292 939.357 280.827 939.275 277.126 937.873C274.466 936.866 271.736 934.253 269.479 932.511C293.213 936.321 322.459 939.233 345.908 933.675Z"/>
	<path fill="#2B0C3D" d="M345.908 933.675C347.401 933.096 349.026 932.548 350.434 931.785C352.662 930.579 357.151 926.023 359.638 926.913C359.637 928.969 357.99 931.362 356.569 932.784C354.207 935.15 350.517 936.335 347.354 937.212Q348.171 936.349 349.121 935.633C350.084 934.907 350.537 934.662 351.138 933.572C350.333 933.312 349.938 933.242 349.082 933.372C347.998 933.537 347.004 933.616 345.908 933.675Z"/>
	<path fill="#FEFEFE" d="M246.766 924.554C247.631 924.675 247.23 924.49 247.914 925.216C246.573 926.972 242.736 928.041 240.713 929.245C235.885 932.119 231.769 936.145 226.83 938.841C224.884 939.903 222.766 940.432 220.631 940.963C218.814 939.979 217.179 938.827 215.5 937.629L212.087 934.741C212.011 931.401 211.791 928.119 211.469 924.794C223.713 927.388 234.573 927.409 246.766 924.554Z"/>
	<path fill="#FEFEFE" d="M326.941 394.804C335.25 398.467 341.659 409.217 345.123 417.176C348.633 425.241 348.21 432.443 345.049 440.422L344.007 441.671L343.619 441.386C346.505 432.154 331.363 404.801 326.941 394.804Z"/>
	<path fill="#FEFEFE" d="M259.086 159.194C260.722 159.707 263.339 160.227 264.425 161.646C265.22 162.685 265.402 163.994 265.15 165.248C263.92 171.361 257.117 176.584 252.232 179.861C251.566 180.211 251.212 180.674 250.454 180.367C248.422 179.544 247.49 176.558 246.648 174.689C249.728 168.984 254.945 164.161 259.086 159.194Z"/>
	<path fill="#FEFEFE" d="M281.357 894.063L281.765 894.631C278.543 897.481 274.739 901.895 270.734 903.464C268.484 904.344 267.559 904.104 265.333 903.235L263.218 902.572C262.304 901.552 262.113 900.702 261.745 899.416C262.101 898.72 262.08 898.34 262.865 898.053C265.937 896.929 270.184 897.122 273.468 896.567C276.214 896.102 278.776 895.075 281.357 894.063Z"/>
	<path fill="#4524A7" d="M863.421 451.555C864.994 445.681 867.657 440.04 870.034 434.454C875.93 420.601 882.569 407.02 888.893 393.356C892.964 384.559 896.855 372.617 902.666 365.074C904.44 364.107 964.616 364.559 971.284 364.644C978.737 376.841 984.036 390.378 990.279 403.219C996.004 414.996 1001.85 426.671 1007.31 438.58C1009.4 443.138 1011.77 447.738 1013.5 452.439C997.098 465.353 974.786 469.051 954.49 470.953C954.515 482.607 952.846 494.566 951.972 506.209L966.453 506.528C973.692 511.237 1019.72 542.263 1022.61 546.374L1024 546.032L1024 708.025L1023.02 708.015C1007.21 708.452 991.286 708.01 975.468 707.958L886.012 707.757C885.022 713.952 880.632 745.185 877.013 747.909C871.416 752.122 830.526 747.917 821.962 745.88C821.786 745.839 821.61 745.793 821.435 745.749L820.679 741.241C818.56 732.773 815.539 722.852 815.497 714.14C815.426 699.784 819.35 684.757 821.604 670.558Q827.442 632.738 834.764 595.178C836.586 585.764 838.193 576.294 840.333 566.946C840.847 562.633 841.888 558.304 842.792 554.054C844.594 540.177 847.098 525.89 846.993 511.87C846.463 510.554 846.587 509.379 846.588 507.982C848.139 507.273 849.669 506.618 851.378 506.415C859.546 505.446 868.379 506.095 876.613 506.106L926.325 506.176L922.098 471.124C903.502 469.025 876.318 466.566 863.421 451.555Z"/>
	<path fill="#9F8BE8" d="M840.333 566.946C848.986 555.414 858.407 542.924 873.74 540.763C880.627 539.792 888.19 541.217 893.719 545.561C899.279 549.93 903.066 557.258 903.71 564.322C905.476 583.689 897.973 615.877 894.123 635.474C891.174 650.487 888.532 665.623 885.739 680.673L877.26 726.709C876.13 732.554 875.406 738.694 873.913 744.434C856.297 744.616 838.072 744.32 820.679 741.241C818.56 732.773 815.539 722.852 815.497 714.14C815.426 699.784 819.35 684.757 821.604 670.558Q827.442 632.738 834.764 595.178C836.586 585.764 838.193 576.294 840.333 566.946Z"/>
	<path fill="#9F8BE8" d="M846.993 511.87C851.089 514.319 854.77 517.455 858.718 520.144C866.091 525.165 874.293 529.895 880.955 535.818C868.833 535.912 858.34 538.981 849.573 547.764C847.558 549.783 845.702 552.013 843.756 554.105L842.792 554.054C844.594 540.177 847.098 525.89 846.993 511.87Z"/>
	<path fill="#C8C3F4" d="M1022.61 546.374L1024 546.032L1024 708.025L1023.02 708.015C1023.06 654.149 1021.69 600.239 1022.61 546.374Z"/>
	<path fill="#9F8BE8" d="M906.166 370.233C926.94 369.886 947.868 369.856 968.639 370.327C972.932 380.45 977.933 390.349 982.681 400.269Q994.832 425.522 1006.71 450.904C994.45 458.712 980.843 462.187 966.62 464.328Q964.631 464.642 962.631 464.867C935.736 468.057 890.898 466.984 869.362 450.033C873.514 440.545 903.687 372.476 906.166 370.233Z"/>
	<path fill="#9F8BE8" d="M905.363 550.482L1017.01 550.454C1017.32 568.938 1017.03 587.456 1017.07 605.944L1017.16 702.548L899.75 702.547L887.004 702.522C887.933 697.875 888.506 693.136 889.191 688.447C915.851 687.874 942.585 688.326 969.254 688.318C978.911 688.315 994.41 689.276 1003.54 687.881C1004.67 682.426 1004.25 676.306 1004.25 670.743L1004.22 645.459L1004.43 565.58C993.652 565.005 982.671 565.42 971.87 565.441Q940.491 565.478 909.114 565.882C908.509 560.395 907.247 555.672 905.363 550.482Z"/>
	<path fill="#9F8BE8" d="M856.182 511.459C864.241 510.904 872.622 511.331 880.715 511.348L926.878 511.456C927.524 514.938 927.911 519.542 929.566 522.684C930.635 524.712 932.364 525.878 934.568 526.395C937.819 527.157 943.904 527.241 946.736 525.411C950.319 523.095 950.643 515.337 951.401 511.485C955.73 511.432 960.067 511.485 964.397 511.486C978.041 520.908 991.4 530.708 1005.43 539.568Q1009.77 542.421 1014.26 545.024L901.527 545.313C898.124 541.69 893.735 538.773 889.741 535.823C878.709 527.675 866.612 520.305 856.182 511.459Z"/>
	<path fill="#9F8BE8" d="M954.233 570.624L974.937 570.69C974.894 582.138 975.741 680.499 974.441 682.677L954.111 682.598L954.233 570.624Z"/>
	<path fill="#9F8BE8" d="M929.499 571.061C935.832 571.137 942.175 571.039 948.508 571.017L948.411 644.456C948.423 657.154 948.817 669.916 948.425 682.602L928.95 682.62C929.903 645.472 929.464 608.225 929.499 571.061Z"/>
	<path fill="#9F8BE8" d="M910.519 571.239L923.937 571.301L923.579 682.722L917.282 682.743L903.503 682.854L903.808 640.797C903.884 631.097 903.673 621.287 904.435 611.613C905.088 603.336 906.718 595.104 907.819 586.875C908.382 582.67 908.36 575.285 909.386 571.68L910.519 571.239Z"/>
	<path fill="#9F8BE8" d="M980.434 570.498L999.034 570.558L998.858 682.802C992.735 682.612 986.606 682.72 980.482 682.769L980.434 570.498Z"/>
	<path fill="#C8C3F4" d="M897.183 643.804C897.306 643.904 897.458 643.975 897.551 644.103C898.584 645.529 898.458 678.037 897.645 682.095C895.838 682.918 893.907 682.663 891.968 682.6C891.789 682.338 891.546 682.109 891.432 681.814C890.922 680.493 896.898 648.874 897.183 643.804Z"/>
	<path fill="#4524A7" d="M81.0947 430.928C75.0237 422.152 73.5187 407.805 74.9376 397.469C77.441 379.231 90.3644 363.486 104.629 352.73Q106.131 358.06 106.895 363.544C109.377 381.148 107.006 400.101 97.431 415.338C94.0566 420.708 89.8306 425.432 86.0117 430.478C85.8827 440.323 85.253 455.452 86.3058 464.842C86.4657 466.268 86.5459 467.609 87.7074 468.537C88.168 468.212 88.2843 468.173 88.6718 467.653C89.2095 466.931 89.5836 465.692 89.9253 464.863C92.5137 458.58 96.7366 452.79 98.9866 446.496C99.8814 443.994 100.015 441.02 100.484 438.4C101.849 430.776 105.481 424.224 110.842 418.666C123.396 405.649 140.044 401.661 157.634 401.397C155.162 407.556 152.596 413.729 149.036 419.354C138.476 436.035 122.239 445.917 103.281 450.216C98.8722 455.844 96.6469 462.958 93.2845 469.232C98.7891 469.407 104.319 468.905 109.809 469.113C111.339 469.171 112.205 469.072 113.275 470.155C115.655 478.563 112.825 501.976 111.834 511.564C130.925 511.91 150.058 511.66 169.154 511.594C177.325 506.701 185.179 501.309 193.192 496.166C198.341 492.862 203.781 489.926 208.726 486.327C208.206 490.794 209.282 495.101 208.572 499.561C208.16 514.155 200.148 527.849 195.395 541.401C192.754 548.932 191.032 556.762 189.754 564.629C189.412 567.095 189.139 569.741 188.477 572.138C188.406 582.737 187.776 592.444 189.208 603.047C191.568 620.518 197.383 637.08 200.999 654.276C203.864 667.898 204.723 682.369 206.317 696.21C207.693 708.167 209.952 720.719 210.185 732.715C210.266 736.86 209.638 740.772 208.983 744.85C208.809 747.218 208.662 749.56 208.237 751.901C208.188 750.946 208.158 750.781 207.657 749.905C200.794 749.036 193.166 749.682 186.228 749.679L145.316 749.511C142.484 735.784 140.734 721.822 137.747 708.15C91.8744 707.49 45.8863 708.361 0 708.365L0 546.387C16.7519 534.914 33.3452 523.394 49.7528 511.425L57.8494 511.473C57.2803 502.13 55.2393 478.419 57.7078 470.271C60.4021 468.061 71.5591 469.402 75.2751 469.468C73.6635 462.36 71.5281 455.31 68.0801 448.865C57.7227 448.234 47.7521 447.075 38.2983 442.446C25.8912 436.371 14.0268 424.085 9.58162 410.88C22.3464 408.977 37.1404 410.748 48.4885 417.1C68.9975 428.578 75.2855 450.834 81.2676 471.988C82.6533 458.727 81.3921 444.288 81.0947 430.928Z"/>
	<path fill="#9F8BE8" d="M149.454 744.462Q140.48 691.763 130.294 639.284L123.393 601.195C121.501 590.335 119.383 579.53 119.222 568.472C119.202 567.12 119.219 565.86 119.514 564.535C121.245 556.771 123.819 548.284 131.009 543.901C136.336 540.653 142.843 540.537 148.765 541.941C165.176 545.834 179.807 557.963 188.477 572.138C188.406 582.737 187.776 592.444 189.208 603.047C191.568 620.518 197.383 637.08 200.999 654.276C203.864 667.898 204.723 682.369 206.317 696.21C207.693 708.167 209.952 720.719 210.185 732.715C210.266 736.86 209.638 740.772 208.983 744.85C189.148 744.255 169.292 744.938 149.454 744.462Z"/>
	<path fill="#9F8BE8" d="M208.486 492.658L208.572 499.561C208.16 514.155 200.148 527.849 195.395 541.401C192.754 548.932 191.032 556.762 189.754 564.629Q185.386 558.683 180.006 553.635C169.154 543.37 154.815 536.136 139.697 536.576C162.414 521.698 186.214 508.135 208.486 492.658Z"/>
	<path fill="#9F8BE8" d="M6.67244 551.249C43.7944 550.991 80.929 551.766 118.054 551.337C116.355 556.048 115.057 560.793 113.806 565.635C103.132 565.79 22.4304 565.45 20.9821 566.172C20.6829 566.322 20.4638 566.595 20.2046 566.807C19.8683 567.673 19.6056 568.42 19.5641 569.358C19.2592 576.243 19.5537 583.291 19.5459 590.19L19.5036 634.352L19.471 666.537C19.4701 673.107 18.5042 681.686 20.2266 688.001C25.0618 690.106 47.651 688.914 54.2017 688.88L134.345 689.014Q135.55 695.978 136.876 702.92C118.66 702.449 100.378 702.847 82.1557 702.858L5.04723 702.709L5.24698 581.263C5.31103 574.995 4.44198 556.443 5.7292 551.606L6.67244 551.249Z"/>
	<path fill="#9F8BE8" d="M24.8852 571.546L59.9899 571.486L59.9984 683.499L24.9807 683.369L24.8852 571.546Z"/>
	<path fill="#9F8BE8" d="M61.5563 474.958L109.038 474.955C108.886 492.193 107.626 509.995 104.154 526.883C103.916 527.642 103.545 528.336 103.204 529.053C96.7708 532.769 74.2219 531.549 66.7004 529.791C61.0667 512.609 61.8221 492.862 61.5563 474.958Z"/>
	<path fill="#9F8BE8" d="M93.0738 571.219L113.87 571.304C114.059 580.252 115.028 589.178 115.208 598.137C115.779 626.61 115.408 655.163 115.409 683.646L93.109 683.552Q93.407 627.385 93.0738 571.219Z"/>
	<path fill="#9F8BE8" d="M65.9678 571.201L87.562 571.163L87.4735 683.488L65.9749 683.486L65.9678 571.201Z"/>
	<path fill="#9F8BE8" d="M111.26 516.944L160.641 516.861C155.148 520.754 149.616 524.643 143.878 528.167C138.991 531.169 133.889 533.805 129.292 537.253C126.184 539.853 123.722 542.999 121.155 546.112C95.2459 546.721 69.2038 546.009 43.2781 545.991C32.283 545.984 20.9085 545.429 9.96505 546.384C16.001 541.615 22.8832 537.562 29.2088 533.161C36.8055 527.876 44.1082 522.162 51.8139 517.037L58.3504 517.172C58.9048 520.289 59.3836 523.481 60.1294 526.557C60.8438 529.503 61.7804 532.495 64.5806 534.056C73.2004 538.863 96.8784 536.648 106.446 533.826C109.29 528.54 110.364 522.817 111.26 516.944Z"/>
	<path fill="#9F8BE8" d="M121.086 621.337C124.15 628.559 125.847 643.153 127.243 651.358C129.106 662.304 131.155 673.07 133.804 683.858L120.982 683.856L120.811 644.336C120.793 636.699 120.555 628.956 121.086 621.337Z"/>
	<path fill="#9F8BE8" d="M448.516 68.914C498.881 68.9842 549.312 68.1573 599.666 68.6971C599.427 86.1323 599.538 103.587 599.482 121.025C594.347 125.221 585.61 131.896 583.331 138.199C581.672 142.786 581.515 148.381 580.93 153.212C580.638 155.629 580.491 158.606 579.236 160.735C578.23 162.442 576.863 163.084 574.925 162.993C572.24 162.866 569.831 160.489 567.133 160.622C566.172 161.488 566.074 161.712 566.034 163.099C565.968 165.401 568.02 167.623 569.659 168.963C576.17 174.285 584.398 176.527 592.732 175.547C594.056 175.392 595.364 175.086 596.661 174.781C595.822 178.4 594.52 182.046 595.631 185.716C596.451 186.623 596.883 187.185 598.227 187.239C599.425 187.287 599.885 186.553 600.455 185.639C600.619 185.374 600.751 185.09 600.899 184.816C602.224 187.373 601.232 278.939 601.126 289.858C550.139 289.25 499.106 289.687 448.112 289.578L448.516 68.914Z"/>
	<path fill="#9F8BE8" d="M692.029 68.9772L788.234 69.1508C807.172 69.1607 826.296 68.6884 845.212 69.3786L845.296 223.25C845.28 245.717 845.634 268.212 845.414 290.675L820.854 290.751C816.179 280.343 811.391 269.818 805.481 260.042C789.319 233.307 764.842 207.697 736.918 193.359C738.849 192.162 742.503 189.934 743.265 187.709C743.562 186.841 743.683 186.219 743.332 185.366C742.254 182.754 738.65 181.927 736.22 180.971C727.567 170.404 727.465 143.024 723.321 128.704C717.916 110.028 708.216 104.611 691.979 95.689L692.029 68.9772Z"/>
	<path fill="#9F8BE8" d="M211.474 69.1354Q283.896 68.8342 356.315 69.4574L356.512 175.9C345.114 170.249 335.735 161.672 324.366 156.044C305.456 146.683 288.84 150.087 269.785 156.481C264.895 152.34 253.003 147.986 246.491 147.504C232.995 146.506 221.513 153.084 211.604 161.561C210.212 151.631 211.142 140.71 211.195 130.648L211.474 69.1354Z"/>
	<path fill="#593CB7" d="M433.066 55.4471L615.354 55.3097C615.283 62.9161 613.907 104.39 615.593 108.431C610.395 112.79 604.826 116.833 599.482 121.025C599.538 103.587 599.427 86.1323 599.666 68.6971C549.312 68.1573 498.881 68.9842 448.516 68.914L448.112 289.578C499.106 289.687 550.139 289.25 601.126 289.858C601.232 278.939 602.224 187.373 600.899 184.816L601.247 183.859C603.383 186.437 610.13 197.873 611.411 200.945C609.252 205.671 604.917 212.827 607.152 218.065C608.179 220.473 610.371 221.457 612.714 222.251C613.652 222.569 614.518 222.734 615.496 222.86C616.223 249.375 615.747 275.967 615.579 302.492L432.955 302.45L433.066 55.4471Z"/>
	<path fill="#593CB7" d="M196.408 55.4686L371.399 55.3494L371.02 302.458C346.148 302.585 321.135 302.083 296.282 302.705C295.755 301.868 295.231 301.05 294.872 300.122C293.661 296.994 293.648 292.875 295.013 289.803C301.051 290.295 311.437 290.979 317.155 289.631C320.993 291.207 325.184 293.052 329.298 293.687C334.751 294.529 338.348 292.522 342.502 289.349C347.785 284.516 348.579 276.891 352.822 271.123C352.806 269.189 352.376 267.287 352.31 265.34C355.003 261.237 361.306 263.15 364.776 260.14C371.845 254.007 354.716 238.431 356.829 230.585C357.266 228.962 358.799 228.114 360.102 227.233C360.783 225.661 361.439 224.049 361.878 222.391C364.284 213.315 362.01 201.553 357.509 193.561C359.261 192.058 362.011 190.5 363.158 188.469C364.226 186.579 364.886 184.178 364.1 182.068C362.947 178.974 359.278 177.238 356.512 175.9L356.315 69.4574Q283.896 68.8346 211.474 69.1354L211.195 130.648C211.142 140.71 210.212 151.631 211.604 161.561C201.712 174.809 201.77 183.536 196.611 197.905C195.803 192.899 196.263 187.412 196.271 182.341L196.297 155.194L196.408 55.4686Z"/>
	<path fill="#C8C3F4" d="M352.822 271.123L353.394 271.494C354.354 277.227 353.918 283.565 353.803 289.391C350.049 289.396 346.25 289.526 342.502 289.349C347.785 284.516 348.579 276.891 352.822 271.123Z"/>
	<path fill="#593CB7" d="M677.99 55.4101L859.608 55.4828L859.954 220.637L860.003 274.256C859.999 284.177 860.582 294.561 859.631 304.418C848.798 304.901 837.875 304.202 827.074 304.986C824.823 300.307 822.832 295.548 820.854 290.751L845.414 290.675C845.634 268.212 845.28 245.717 845.296 223.25L845.212 69.3786C826.296 68.6884 807.172 69.1607 788.234 69.1508L692.029 68.9772L691.979 95.689C687.124 93.7238 682.406 89.814 678.088 86.8449C679.084 83.7501 677.93 60.9512 677.99 55.4101Z"/>
	<path fill="#9F8BE8" d="M817.836 984.704C845.139 983.65 872.762 984.484 900.09 984.501L1024 984.555L1024 1024L0 1024L0 984.468L139.527 984.724L179.737 984.828C186.177 984.856 193.035 985.359 199.433 984.809C205.094 985.979 210.76 987.189 216.512 987.812C223.136 988.528 229.834 988.699 236.416 989.779C245.924 991.34 255.241 994.058 264.75 995.673C284.941 999.101 316.783 1000.15 334.571 988.6C336.247 987.512 337.766 986.205 339.44 985.117L565.755 985.257C594.183 985.167 622.737 985.735 651.15 984.977C658.461 993.219 664.692 997.24 675.383 1000.37C687.489 1003.91 701.167 1004.71 713.701 1004.05C731.33 1003.12 745.63 997.681 762.537 994.96C776.152 992.768 790.319 993.047 803.766 990.115C808.861 989.004 813.27 987.196 817.836 984.704Z"/>
</svg>
