<?xml version="1.0" encoding="utf-8" ?>
<svg xmlns="http://www.w3.org/2000/svg" xmlns:xlink="http://www.w3.org/1999/xlink" width="1024" height="1024">
	<path d="M0 0L419.61 0L424.001 0L515.626 0L520.826 0L579.935 0L1024 0L1024 85.3669L1024 648.405L1024 652.578L1024 815.997L1024 820.256L1024 1024L0 1024L0 809.112L0 805.162L0 652.429L0 647.869L0 622.776L0 148.874L0 141.363L0 0Z"/>
	<path fill="#9F8BE8" d="M520.826 0L579.935 0C563.206 12.4378 546.81 33.6399 543.747 54.7802C542.415 63.9698 543.826 73.7646 549.434 81.3786C553.881 87.4165 560.324 90.576 567.623 91.5555C577.928 92.9385 587.751 90.5048 597.014 85.9619C589.204 100.329 584.001 115.234 588.964 131.582C591.005 138.304 595.05 144.251 601.388 147.577C608.253 151.179 616.375 150.591 623.513 148.162C626.36 147.193 629.033 145.803 631.708 144.444C629.545 161.82 629.818 181.081 641.225 195.539C645.845 201.396 652.048 204.687 659.479 205.426C668.764 206.35 676.506 202.378 683.392 196.589C706.664 177.022 714.326 145.206 716.52 116.059C716.79 112.47 716.086 106.007 717.797 102.967C740.769 178.768 772.447 250.558 845.632 289.693C852.427 293.326 859.196 296.574 866.425 299.276C866.583 304.624 867.147 309.943 867.3 315.286Q869.524 389.971 868.321 464.679Q867.834 493.142 866.519 521.579C865.752 537.361 864.483 553.354 864.461 569.143C849.157 569.511 829.436 578.403 816.232 586.243C811.653 588.962 807.37 592.126 802.956 595.099C791.909 563.881 773.326 527.804 749.881 504.041C753.772 478.141 758.622 443.701 742.118 421.377L741.507 420.554C747.846 411.527 751.551 403.387 749.498 392.164C747.643 382.021 741.479 373.339 732.986 367.611C726.824 363.455 720.729 362.169 713.678 360.307C711.525 348.87 707.28 339.37 697.346 332.633C688.108 326.369 676.517 325.381 665.804 327.578C661.179 328.527 656.295 330.098 652.215 332.506C646.479 335.892 625.272 354.447 621.708 360.016C619.112 364.071 617.67 368.994 618.776 373.783C619.911 378.702 623.589 383.18 627.953 385.63C631.778 387.779 635.915 388.434 640.243 388.475C643.675 399.012 648.123 410.374 658.714 415.669C663.597 418.11 668.733 418.21 674.015 417.479C670.689 426.548 667.188 429.156 662.836 436.841C657.533 446.207 661.109 458.45 665.322 467.553Q668.049 473.326 671.556 478.661C671.221 486.328 673.767 494.735 675.334 502.25Q679.134 520.796 683.407 539.239C684.917 546.046 685.591 553.027 688.033 559.597C687.888 559.716 687.745 559.838 687.599 559.956C683.902 562.941 669.103 572.54 664.827 574.163C656.639 577.273 624.765 580.159 623.205 590.453C624.083 594.131 630.368 598.217 633.563 600.115Q634.06 600.409 634.571 600.677Q635.082 600.946 635.607 601.187Q636.131 601.429 636.667 601.643Q637.203 601.858 637.749 602.044Q638.296 602.231 638.851 602.389Q639.406 602.548 639.969 602.677Q640.531 602.807 641.1 602.907Q641.668 603.008 642.241 603.079Q642.814 603.151 643.39 603.192Q643.966 603.234 644.543 603.246Q645.12 603.258 645.697 603.241Q646.274 603.223 646.85 603.176Q647.425 603.129 647.997 603.052Q648.569 602.976 649.137 602.87Q649.705 602.764 650.266 602.629Q650.827 602.495 651.381 602.331C662.319 599.085 670.178 589.848 678.773 586.982C681.712 586.002 685.537 586.073 688.67 585.447C684.784 590.441 681.109 595.754 676.971 600.529C674.358 603.544 670.937 606.377 668.593 609.548C667.862 610.537 668.112 610.749 668.212 611.871C669.142 613.002 669.831 613.122 671.184 613.507C676.62 610.457 687.376 594.509 691.055 588.918C692.348 586.953 693.421 584.237 694.886 582.534C695.638 581.66 695.871 581.631 696.95 581.509C698.907 584.823 697.778 593.499 697.839 597.496C698.218 622.142 698.348 644.207 695.857 668.908C695.162 675.801 694.81 682.96 693.096 689.673C691.942 694.194 690.515 698.984 688.526 703.209Q683.613 678.806 680.132 654.158C678.716 644.007 677.93 633.408 675.641 623.427C667.622 623.442 623.684 624.35 619.745 623.1C619.526 620.273 621.371 618.407 618.4 616.121C616.203 614.431 608.348 615.99 607.881 614.401C608.107 614.176 608.339 613.956 608.56 613.726C609.662 612.573 610.604 610.61 610.673 609.001C610.728 607.724 610.143 606.861 609.202 606.076C605.118 602.669 580.005 604.448 574.034 605.549Q572.23 605.885 570.439 606.28C570.372 598.768 569.648 590.758 570.435 583.308C574.056 582.664 577.671 582.212 580.001 579.004C580.76 577.96 581.166 576.862 580.84 575.559C580.394 573.778 578.698 572.496 577.099 571.761C575.857 571.19 574.41 570.846 573.079 570.559C573.462 559.026 574.9 526.652 567.83 518.738C566.981 517.788 566.594 517.702 565.408 517.406C563.831 517.906 563.061 518.848 562.297 520.253C555.65 532.473 555.964 557.313 556.58 571.033C554.087 571.426 550.044 572.102 548.466 574.394C547.636 575.599 547.739 576.022 547.858 577.405C549.386 580.055 551.913 581.335 554.793 582.113C556.71 582.631 558.628 583.038 560.602 583.262C560.712 591.003 561.43 599.282 560.633 606.961C558.509 607.336 556.469 607.53 554.625 608.726C553.482 610.655 553.017 613.428 551.577 615.101C550.395 616.473 549.85 615.686 548.537 617.975L548.182 616.886L547.92 617.292C547.183 618.41 546.648 619.115 545.485 619.846C544.5 619.791 544.057 619.638 543.165 619.273C541.69 618.723 540.293 617.481 538.831 616.785C534.943 614.934 529.902 615.184 525.683 614.996C526.461 604.993 525.636 594.423 525.843 584.332C529.216 583.606 533.394 582.715 536.371 580.961C537.575 580.252 538.541 578.814 538.642 577.411C539.129 570.609 530.506 573.496 528.113 570.583C529.835 558.753 529.268 530.676 524.557 519.937C523.766 518.135 522.966 516.917 521.106 516.191L519.9 516.768C511.892 527.071 512.848 558.299 513.149 571.367C509.469 572.12 506.016 572.597 503.62 575.732C503.377 577.026 503.212 577.631 503.965 578.843C506.088 582.263 511.75 583.253 515.341 584.457C516.599 594.702 515.774 605.044 515.467 615.327C507.68 615.165 487.333 613.147 481.466 617.468C480.398 618.254 479.941 619.07 479.764 620.35C479.64 621.242 479.484 621.976 479.186 622.838C475.997 624.596 464.27 623.506 460.259 623.45C464.031 614.914 475.812 599.994 477.299 592.442C475.863 587.076 469.965 583.672 465.73 580.522C466.608 574.339 466.012 568.501 465.485 562.326C471.477 557.863 479.556 556.607 484.1 550.17C486.984 546.085 486.737 541.701 485.991 537.017C486.825 536.335 487.659 535.647 488.444 534.908C490.595 532.884 493.298 529.503 493.063 526.338C492.976 525.156 492.375 524.064 491.535 523.251C485.286 517.204 470.157 520.743 462.202 521.237C459.515 516.71 471.209 509.947 470.799 501.024C470.622 497.181 460.891 480.712 457.756 478.017L457.133 478.133C455.108 481.401 454.39 485.447 452.887 488.98C448.893 498.37 443.674 498.245 445.776 510.153C447.763 512.298 450.237 513.997 452.55 515.777L452.41 521.12C445.797 521.846 432.366 523.241 428.039 529.101C427 530.509 426.667 532.244 427.086 533.951C427.519 535.712 428.903 537.108 430.037 538.457C429.791 541.882 430.21 547.177 429.051 550.314C425.922 558.781 400.535 596.533 393.698 602.525C391.457 597.022 382.436 570.726 378.207 569.037C376.227 568.246 373.839 568.005 371.748 567.567C371.501 563.412 371.169 554.052 374.105 550.89C376.326 548.497 395.864 548.857 396.322 534.582C396.518 528.465 388.334 520.274 385.179 515.078C386.719 510.792 388.151 506.427 389.868 502.21L389.322 501.85C380.183 495.907 375.453 495.375 369.521 485.021C371.963 481.91 373.827 479.293 373.387 475.097C372.904 470.483 369.636 466.917 366.238 464.069C362.392 465.633 358.939 467.054 354.766 467.464C349.897 467.943 345.05 466.928 340.211 466.539C328.5 465.598 320.771 471.704 315.107 481.202C305.997 483.657 298.494 489.493 293.751 497.669C289.107 505.673 287.862 516.296 290.324 525.201C293.11 535.277 300.287 543.511 309.329 548.55C313.506 550.877 318.028 552.473 322.522 554.063C322.656 559.949 322.059 562.756 317.787 567.163C315.634 569.384 313.422 571.446 311.437 573.83C308.009 573.894 304.503 574.147 301.133 574.793C287.483 577.408 275.468 587.188 267.919 598.595C265.754 601.866 264.368 605.732 262.111 608.872C261.707 609.433 261.837 609.374 261.095 609.426C259.239 609.558 257.693 608.513 256.58 607.114C254.298 604.244 252.879 600.142 251.353 596.815C246.749 586.778 241.78 577.845 233.302 570.545C226.811 564.956 218.271 560.585 209.474 561.437C193.857 562.951 188.176 574.598 179.59 585.436C173.544 577.048 167.114 565.297 154.994 567.177C153.289 567.442 150.664 568.382 149.11 567.725L148.779 565.432C148.867 564.765 148.94 564.124 148.975 563.452C149.363 555.824 145.97 531.932 140.29 527.012C139.784 526.575 139.169 526.235 138.495 526.381C133.238 527.519 122.594 544.22 119.793 548.873C118.513 512.99 121.456 476.663 124.034 440.893C128.055 438.295 132.52 436.253 136.732 433.971Q146.15 428.801 155.391 423.323Q163.195 418.564 170.756 413.426Q178.317 408.289 185.616 402.786Q192.914 397.283 199.934 391.428Q206.954 385.573 213.677 379.38Q225.873 368.175 237.197 356.09Q248.522 344.005 258.912 331.108C263.407 325.601 269.451 314.669 273.615 310.912C276.895 307.953 282.601 305.976 286.5 303.736C292.314 300.396 298.09 296.676 303.541 292.773C336.641 269.071 361.684 229.794 371.801 190.536C373.304 184.706 374.062 178.688 375.059 172.755C388.016 179.331 399.902 183.726 414.674 182.298C426.706 181.136 438.08 175.897 445.786 166.444C452.597 158.089 453.464 150.086 452.383 139.658C454.798 139.884 457.201 140.042 459.628 140.023C468.574 139.952 477.692 136.29 483.885 129.746Q484.383 129.219 484.854 128.667Q485.326 128.115 485.768 127.541Q486.21 126.966 486.623 126.369Q487.036 125.772 487.418 125.156Q487.799 124.539 488.149 123.903Q488.499 123.268 488.817 122.615Q489.134 121.963 489.418 121.295Q489.701 120.628 489.951 119.946Q490.2 119.265 490.415 118.572Q490.629 117.879 490.808 117.176Q490.987 116.473 491.13 115.762Q491.273 115.051 491.38 114.333Q491.487 113.616 491.557 112.894Q491.627 112.172 491.661 111.447Q491.694 110.722 491.691 109.997Q491.687 109.271 491.647 108.547C490.979 98.0988 485.626 89.6143 478.046 82.782Q481.604 81.6469 484.982 80.0535C501.41 72.3869 515.909 56.6255 522.036 39.5499C526.547 26.974 526.599 12.1833 520.826 0Z"/>
	<path fill="#9F8BE8" d="M378.274 771.562C387.643 771.047 397.071 770.3 406.457 770.476C400.575 783.287 392.686 808.317 391.028 822.231C401.999 823.911 403.778 824.838 415.365 822.642C419.095 824.225 422.365 826.785 426.282 827.814C426.539 827.881 426.792 827.96 427.048 828.028C427.202 828.069 427.357 828.105 427.512 828.143L423.027 863.125C421.811 872.542 416.331 894.691 420.998 903.045C426.409 906.937 438.909 903.639 445.315 903.721C448.426 903.76 451.647 905.243 454.815 905.535C464.174 906.396 473.769 905.935 483.158 906.001C488.891 906.041 495.225 906.934 500.875 905.864C502.181 905.617 503.295 905.132 504.023 903.952C504.948 902.453 505.093 900.454 504.542 898.805C503.206 894.807 498.693 892.124 495.069 890.447C487.11 886.765 477.793 884.147 470.462 879.342C466.497 876.743 462.923 873.379 459.412 870.213C463.368 853.049 469.692 837.32 476.09 820.976C476.304 821.06 476.519 821.142 476.733 821.228C487.19 825.467 488.948 836.8 502.985 830.953C513.537 826.558 525.377 815.096 537.607 819.568C550.22 824.179 556.333 839.157 571.835 832.452C581.75 828.164 598.418 813.671 609.663 818.345C621.431 823.237 622.077 838.949 638.234 832.804C649.586 828.487 659.352 820.541 671.337 817.85C680.149 823.074 689.051 828.35 698.1 833.153C707.182 829.235 719.823 822.782 727.599 816.898C730.073 818.397 732.536 820.044 735.133 821.316C734.725 829.619 734.871 838.946 732.916 847.06C730.124 858.643 719.41 870.562 710.781 878.341C708.042 880.81 705.114 883.183 701.97 885.122C697.345 887.974 683.937 892.561 683.25 898.444C683.166 899.163 683.395 899.872 683.819 900.463C686.645 904.402 697.632 904.725 702.106 904.814C719.778 905.163 736.596 902.563 753.45 897.352C754.126 889.853 755.446 882.422 755.456 874.875C755.462 870.831 753.874 866.761 754.438 862.767C758.216 836.027 767.215 810.407 767.443 783.094C777.081 784.27 786.78 785.301 796.31 787.195C808.352 801.837 822.544 825.322 829.764 842.909C827.012 851.756 825.579 860.857 821.286 869.183C816.773 877.937 809.608 884.717 806.511 894.19C807.308 896.292 807.838 898.118 809.989 899.173C812.929 900.613 816.19 899.733 819.063 898.604C835.416 892.18 856.465 867.485 863.271 851.619C863.338 851.463 863.401 851.304 863.466 851.146C859.589 844.625 850.842 834.235 844.865 829.505C841.504 816.527 838.028 803.669 834.058 790.862C846.622 792.969 859.288 794.502 871.887 796.409Q948.112 807.256 1024 820.256L1024 1024L0 1024L0 809.112Q93.6447 796.599 187.601 786.697C206.861 784.813 226.178 783.013 245.471 781.497C261.461 780.241 277.731 779.363 293.608 777.078C296.122 789.261 298.015 801.565 300.083 813.83Q303.951 835.734 307.133 857.748C295.176 855.41 281.947 854.609 269.798 855.154C259.196 855.63 249.09 856.878 238.424 856.123C226.476 855.277 214.445 851.681 203.145 847.831C201.71 847.342 198.219 845.65 196.953 846.383C196.663 846.551 196.19 847.049 195.944 847.295C190.576 844.208 184.616 841.124 178.619 839.484C175.127 845.097 171.621 850.422 166.485 854.694C152.205 866.575 137.183 867.448 129.597 886.97C128.61 889.51 127.081 893.453 127.758 896.139C128.252 898.097 130.255 898.92 131.931 899.632C135.576 901.179 138.939 901.858 142.934 901.382C151.509 900.361 162.014 895.279 170.217 892.29C177.98 889.461 185.841 886.956 193.679 884.346C207.496 888.685 221.417 890.803 235.528 893.821C246.274 896.118 257.058 898.084 267.819 900.283C285.855 903.968 304.24 907.804 322.682 908.777C330.003 909.164 340.469 909.07 347.165 905.696C353.724 902.391 357.016 890.194 358.974 883.707C363.102 870.032 365.829 856.096 368.387 842.062C372.666 818.584 375.802 795.295 378.274 771.562Z"/>
	<path fill="#6B58B8" d="M579.935 0L1024 0L1024 85.3669Q1022.37 85.5718 1020.73 85.7431C996.685 88.2265 975.494 77.2085 958.384 61.166C954.228 57.2699 950.966 52.3067 946.512 48.7657C946.375 48.6569 946.234 48.5528 946.096 48.4464C946.182 45.8946 946.813 41.5717 945.797 39.317L944.759 38.7108C943.662 39.0365 943.315 39.1058 942.818 40.277C942.408 41.245 940.389 76.135 939.917 81.1549C935.341 129.85 926.923 175.93 909.706 221.832C906.288 230.944 903.16 240.744 897.872 248.953C900.196 261.128 903.326 273.201 905.94 285.327Q912.692 317.734 918.883 350.252Q927.204 395.33 933.005 440.801Q938.806 486.272 942.07 531.995Q943.93 556.044 945.013 580.14C945.487 589.343 946.231 598.676 946.025 607.889C943.95 604.329 941.674 598.974 938.033 596.918C936.425 596.953 935.563 597.36 934.418 598.516C929.632 603.345 925.175 612.838 923.182 619.256C918.384 604.765 912.561 593.675 901.252 583.15C899.075 581.124 896.308 578.31 893.584 577.095C892.26 576.505 891.826 576.636 890.489 577.12C886.123 581.719 885.31 596.741 885.47 603.114C885.617 608.987 886.499 614.719 887.582 620.48Q886.336 619.122 885.024 617.828Q883.712 616.534 882.337 615.307Q880.962 614.08 879.528 612.923Q878.094 611.765 876.604 610.681Q875.115 609.596 873.573 608.587Q872.031 607.578 870.441 606.646Q868.851 605.715 867.216 604.864Q865.582 604.013 863.907 603.244Q862.232 602.475 860.521 601.79Q858.81 601.106 857.068 600.507Q855.325 599.908 853.554 599.397Q851.784 598.885 849.99 598.463Q848.197 598.04 846.384 597.707Q844.572 597.374 842.745 597.131Q840.918 596.889 839.081 596.737Q837.245 596.586 835.403 596.526C832.266 596.408 825.98 595.987 823.523 598.226C822.617 599.051 822.214 599.696 822.107 600.903C825.519 612.76 842.348 627.765 852.995 633.676C867.316 641.626 881.834 643.757 897.956 642.819C903.054 650.649 909.692 657.476 914.206 665.628Q913.424 664.923 912.624 664.238Q911.825 663.552 911.009 662.887Q910.192 662.221 909.36 661.576Q908.528 660.931 907.68 660.306Q906.832 659.681 905.969 659.078Q905.106 658.474 904.228 657.892Q903.351 657.31 902.459 656.75Q901.567 656.19 900.662 655.652Q899.757 655.114 898.838 654.598Q897.92 654.083 896.99 653.59Q896.059 653.097 895.116 652.627Q894.174 652.157 893.22 651.711Q892.266 651.265 891.302 650.842Q890.337 650.419 889.363 650.02Q888.388 649.621 887.404 649.247Q886.419 648.872 885.426 648.522Q884.433 648.171 883.432 647.845Q882.43 647.52 881.421 647.219Q880.412 646.918 879.396 646.642Q878.38 646.365 877.357 646.115Q876.334 645.864 875.305 645.638Q874.277 645.412 873.243 645.212Q872.209 645.012 871.17 644.837Q870.132 644.662 869.089 644.513Q868.047 644.364 867.001 644.241Q865.955 644.117 864.907 644.02Q863.858 643.922 862.807 643.851Q861.757 643.779 860.705 643.733Q859.653 643.687 858.6 643.667Q857.547 643.648 856.494 643.654Q855.441 643.66 854.388 643.692Q853.335 643.724 852.284 643.782C848.307 643.964 843.416 643.697 839.916 645.771C839.16 646.979 838.956 647.468 839.301 648.895C842.387 661.654 865.021 680.412 876.337 686.448C895.261 696.543 913.469 700.369 934.674 700.457C941.144 710.775 949.234 725.267 952.752 736.796C936.382 718.651 910.558 708.951 886.515 707.759C882.4 707.555 863.322 708.072 860.224 710.366C859.194 711.129 859.168 711.796 858.97 712.951C860.5 717.864 867.188 721.416 870.904 724.711C887.181 739.144 896.509 749.598 916.571 760.061C932.267 768.247 948.369 772.7 966.101 772.549C969.819 783.078 970.119 796.027 971.732 807.104C961.491 805.127 951.074 803.901 940.759 802.358L880.774 793.863C864.925 791.752 849.277 788.215 833.267 787.27C830.366 778.309 827.501 770.372 822.945 762.14C827.373 753.118 833.155 744.548 842.586 740.286C850.56 746.01 852.623 754.369 854.175 763.493C854.419 764.931 854.55 767.536 855.293 768.776C855.844 769.696 857.348 770.495 858.24 771.078C858.357 770.954 858.476 770.833 858.592 770.708C863.627 765.245 868.11 754.141 876.951 753.955C878.345 753.926 879.623 754.512 880.575 755.521C884.923 760.135 884.556 772.397 888.891 775.493C890.128 775.13 890.534 774.675 891.09 773.485C892.486 770.496 895.767 761.638 894.455 758.543C894.226 758.004 893.876 757.642 893.512 757.209L892.63 757.12C890.859 758.986 890.327 762.924 889.648 765.419C887.892 760.174 885.928 752.82 880.433 750.251C877.925 749.079 875.181 749.401 872.69 750.428C866.828 752.847 862.479 757.943 858.898 762.973C857.125 755 854.705 742.551 847.074 737.997C844.729 736.597 842.146 736.486 839.575 737.3C830.874 740.054 825.882 748.654 820.696 755.472C813.93 741.493 805.781 729.947 795.791 718.092C807.792 712.941 825.005 704.909 834.288 695.581C830.745 682.633 826.442 669.799 822.641 656.907C816.84 637.23 811.368 617.298 804.131 598.089C814.778 592.805 824.415 585.826 835.487 581.336C846.824 576.738 857.174 575.548 868.46 572.241C868.687 550.214 871.251 528.213 871.962 506.201Q874.769 430.86 872.617 355.498L871.892 320.047C871.677 312.467 871.758 304.369 870.242 296.925L869.691 296.629C865.117 294.217 860.275 292.36 855.617 290.117Q842.936 283.913 831.142 276.155C775.454 239.052 745.734 178.224 726.282 116.086C724.361 109.948 722.78 100.951 720.163 95.3771C719.685 94.3577 718.974 93.8838 718.022 93.3602L716.906 93.4958C716.019 94.9157 715.946 95.9071 716.359 97.5425C716.818 99.3586 717.367 101.14 717.797 102.967C716.086 106.007 716.79 112.47 716.52 116.059C714.326 145.206 706.664 177.022 683.392 196.589C676.506 202.378 668.764 206.35 659.479 205.426C652.048 204.687 645.845 201.396 641.225 195.539C629.818 181.081 629.545 161.82 631.708 144.444C629.033 145.803 626.36 147.193 623.513 148.162C616.375 150.591 608.253 151.179 601.388 147.577C595.05 144.251 591.005 138.304 588.964 131.582C584.001 115.234 589.204 100.329 597.014 85.9619C587.751 90.5048 577.928 92.9385 567.623 91.5555C560.324 90.576 553.881 87.4165 549.434 81.3786C543.826 73.7646 542.415 63.9698 543.747 54.7802C546.81 33.6399 563.206 12.4378 579.935 0Z"/>
	<path fill="#9F8BE8" d="M732.292 103.055C735.881 103.825 740.171 107.952 743.574 109.715C746.571 111.267 750.14 112.305 753.433 113.016C764.401 115.383 775.021 112.595 784.338 106.595C799.767 96.6582 811.566 76.8721 817.011 59.6008C818.951 53.4455 819.767 47.2558 821.195 41.0152C821.45 39.9024 821.553 38.3174 822.534 37.697C824.278 39.4965 825.103 39.6419 827.543 40.3763C828.188 38.9377 828.219 38.4674 829.604 37.6348C830.415 37.6737 830.785 37.4805 831.376 38.1301C834.981 42.0918 838.378 63.1133 839.777 69.7258C841.791 79.2422 844.126 88.6908 846.003 98.2346Q854.243 138.981 860.012 180.151Q865.781 221.32 869.059 262.762C869.467 267.855 871.09 274.746 870.286 279.763C870.159 280.558 870.101 280.618 869.84 281.259C867.892 282.248 865.499 281.414 863.545 280.77C855.293 278.049 847.486 273.259 840.12 268.699C803.352 245.94 774.406 211.144 755.304 172.498C744.196 150.024 734.276 126.744 727.724 102.512C727.072 100.099 725.048 95.39 725.951 92.9982C726.2 92.3374 726.854 92.3689 727.464 92.1746C729.005 92.9994 729.556 93.9155 730.049 95.5956C730.768 98.047 731.237 100.721 732.292 103.055Z"/>
	<path d="M827.543 40.3763C828.188 38.9377 828.219 38.4674 829.604 37.6348C830.415 37.6737 830.785 37.4805 831.376 38.1301C834.981 42.0918 838.378 63.1133 839.777 69.7258C841.791 79.2422 844.126 88.6908 846.003 98.2346Q854.243 138.981 860.012 180.151Q865.781 221.32 869.059 262.762C869.467 267.855 871.09 274.746 870.286 279.763C870.159 280.558 870.101 280.618 869.84 281.259C867.892 282.248 865.499 281.414 863.545 280.77C855.293 278.049 847.486 273.259 840.12 268.699C803.352 245.94 774.406 211.144 755.304 172.498C744.196 150.024 734.276 126.744 727.724 102.512C727.072 100.099 725.048 95.39 725.951 92.9982C726.2 92.3374 726.854 92.3689 727.464 92.1746C729.005 92.9994 729.556 93.9155 730.049 95.5956C730.768 98.047 731.237 100.721 732.292 103.055C734.512 111.496 737.7 119.875 740.686 128.074C758.704 177.545 788.094 227.112 831.723 257.98C842.495 265.601 853.966 271.657 865.905 277.22C864.69 254.48 862.079 232.103 859.256 209.519Q851.105 143.916 837.137 79.3007C834.759 68.2804 831.813 49.8683 827.543 40.3763Z"/>
	<path fill="#9F8BE8" d="M933.17 48.3624C933.836 44.7892 932.365 38.4081 934.867 35.7376C936.165 35.6721 936.164 35.7453 937.226 36.5186C939.047 40.4483 937.191 54.7849 936.834 59.9375C935.726 75.9355 934.557 92.1093 932.331 107.99Q930.316 121.618 927.596 135.123Q924.875 148.628 921.455 161.973Q918.035 175.318 913.926 188.467Q909.817 201.616 905.029 214.534C903.312 219.22 900.306 229.722 895.791 231.874C894.747 231.676 894.707 231.695 894.166 230.819C893.204 229.262 886.024 192.073 884.994 187.368Q874.888 141.912 863.621 96.7289C861.33 87.4011 858.171 78.2676 856.114 68.8976C855.723 67.117 855.504 65.5671 855.852 63.7709L856.611 62.9089C857.684 62.9672 858.192 62.8278 858.875 63.8045C859.281 64.3857 859.524 65.3603 859.763 66.0371C876.711 73.8044 894.132 74.2682 910.753 65.1806C913.595 63.6267 916.773 62.0023 919.274 59.9426C922.134 57.5863 929.588 47.8813 932.508 47.5309L933.17 48.3624Z"/>
	<path d="M933.17 48.3624C933.836 44.7892 932.365 38.4081 934.867 35.7376C936.165 35.6721 936.164 35.7453 937.226 36.5186C939.047 40.4483 937.191 54.7849 936.834 59.9375C935.726 75.9355 934.557 92.1093 932.331 107.99Q930.316 121.618 927.596 135.123Q924.875 148.628 921.455 161.973Q918.035 175.318 913.926 188.467Q909.817 201.616 905.029 214.534C903.312 219.22 900.306 229.722 895.791 231.874C894.747 231.676 894.707 231.695 894.166 230.819C893.204 229.262 886.024 192.073 884.994 187.368Q874.888 141.912 863.621 96.7289C861.33 87.4011 858.171 78.2676 856.114 68.8976C855.723 67.117 855.504 65.5671 855.852 63.7709L856.611 62.9089C857.684 62.9672 858.192 62.8278 858.875 63.8045C859.281 64.3857 859.524 65.3603 859.763 66.0371C867.803 90.7288 873.475 116.696 879.278 142C885.468 168.985 891.734 195.903 896.925 223.101Q899.028 217.903 901.013 212.659Q902.999 207.415 904.866 202.128Q906.733 196.84 908.48 191.512Q910.228 186.185 911.855 180.819Q913.483 175.453 914.989 170.052Q916.495 164.651 917.88 159.217Q919.264 153.783 920.526 148.32Q921.789 142.857 922.927 137.366Q924.066 131.876 925.081 126.361Q926.096 120.847 926.987 115.311Q927.878 109.775 928.644 104.22Q929.41 98.6652 930.051 93.0948Q930.692 87.5243 931.208 81.9408Q931.724 76.3573 932.114 70.7637Q932.504 65.17 932.768 59.569Q933.032 53.9679 933.17 48.3624Z"/>
	<path fill="#9F8BE8" d="M946.096 48.4464C946.234 48.5528 946.375 48.6569 946.512 48.7657C950.966 52.3067 954.228 57.2699 958.384 61.166C975.494 77.2085 996.685 88.2265 1020.73 85.7431Q1022.37 85.5718 1024 85.3669L1024 648.405C1015.2 646.928 1006.75 648.641 999.474 653.951C995.013 657.208 992.412 660.839 990.548 665.947L990.18 666.461L987.7 666.604C985.502 665.094 987.08 662.406 986.391 660.14C986.338 659.965 986.25 659.804 986.179 659.636C985.716 654.525 982.723 632.788 978.595 630.187C977.648 629.59 976.774 629.484 975.706 629.688C969.305 630.91 958.913 646.363 955.026 651.834C954.894 645.193 954.72 638.46 953.687 631.888C952.73 625.809 950.862 619.627 950.565 613.482C948.924 579.633 947.891 545.877 945.128 512.077Q940.85 462.276 933.679 412.809Q926.508 363.342 916.468 314.376Q910.116 282.114 902.254 250.186C907.109 242.203 910.245 232.597 913.616 223.887C935.349 167.724 942.861 108.216 946.096 48.4464Z"/>
	<path fill="#6B58B8" d="M141.893 133.031C152.574 138.042 161.659 140.436 173.543 140.51Q157.139 193.566 146.033 247.978C144.573 254.887 141.044 267.144 141.003 273.8L141.47 274.432C145.088 274.032 148.854 271.987 152.132 270.488C172.908 260.982 189.774 244.759 203.924 227.106C218.879 208.448 230.23 186.861 238.269 164.414C240.34 158.632 242.468 153.092 243.237 146.964C244.817 149.436 246.399 151.901 247.885 154.432L247.76 155.132C246.594 161.476 244.009 167.694 241.639 173.678C227.682 208.915 199.318 248.082 167.795 269.48C160.229 274.617 152.703 279.646 143.812 282.02C141.463 282.647 139.124 282.614 138.487 285.268C136.467 293.68 121.37 401.43 121.617 402.457C121.74 402.972 122.088 403.406 122.323 403.88C124.009 405.067 125.564 405.042 127.538 404.693C135.063 403.361 143.367 398.908 150.312 395.693C180.099 381.904 210.796 356.754 232.228 331.904C244.576 317.587 255.26 302.239 265.669 286.489C285.443 256.568 299.212 222.718 309.014 188.322C315.103 186.926 320.577 185.266 326.26 182.675C317.302 210.802 308.561 235.505 295.316 261.918C292.64 267.254 279.755 290.22 279.734 293.828L280.215 294.561C284.865 295.111 300.014 282.998 304.243 279.66C331.681 258.002 353.464 223.453 363.148 189.876C365.296 182.428 366.519 174.972 367.606 167.32C369.03 168.44 370.435 169.6 371.887 170.684C369.374 181.387 367.146 192.24 363.582 202.652Q362.968 204.478 362.315 206.291Q361.663 208.103 360.971 209.901Q360.28 211.699 359.55 213.482Q358.82 215.265 358.052 217.032Q357.284 218.799 356.478 220.549Q355.672 222.299 354.829 224.031Q353.986 225.763 353.106 227.477Q352.226 229.191 351.31 230.885Q350.393 232.58 349.44 234.254Q348.487 235.928 347.499 237.582Q346.511 239.236 345.487 240.868Q344.463 242.5 343.405 244.109Q342.346 245.719 341.253 247.306Q340.161 248.892 339.034 250.455Q337.908 252.018 336.748 253.556Q335.588 255.094 334.396 256.608Q333.203 258.121 331.978 259.608Q330.754 261.095 329.497 262.555Q328.241 264.016 326.954 265.449Q325.666 266.882 324.348 268.288Q323.031 269.693 321.683 271.069Q320.335 272.446 318.958 273.794Q317.581 275.141 316.176 276.459Q314.771 277.776 313.337 279.063Q311.904 280.351 310.443 281.607Q308.982 282.863 307.495 284.087Q306.008 285.312 304.495 286.504Q302.981 287.696 301.443 288.856Q299.904 290.016 298.341 291.142Q296.778 292.268 295.192 293.361Q293.605 294.453 291.995 295.511Q290.385 296.57 288.753 297.593C284.006 300.538 273.695 304.967 270.347 307.963C265.449 312.344 262.091 319.474 258.039 324.702Q246.383 339.477 233.609 353.298Q228.21 359.203 222.562 364.87Q216.914 370.538 211.028 375.958Q205.142 381.377 199.029 386.539Q192.915 391.701 186.586 396.596Q180.257 401.491 173.723 406.109Q167.189 410.727 160.463 415.061Q153.737 419.394 146.831 423.435Q139.925 427.476 132.852 431.216C128.492 433.562 123.942 435.467 119.54 437.72C119.525 446.624 118.454 455.514 117.896 464.396C116.964 479.238 116.237 494.136 115.633 508.995C115.182 520.11 115.338 531.309 115.087 542.442C114.976 547.385 115.099 552.548 114.407 557.441C113.834 561.494 111.623 565.09 110.597 569.027C108.934 575.411 107.966 582.174 106.742 588.667C102.944 581.193 89.5895 561.515 81.5988 558.503C80.8769 558.231 80.2234 558.265 79.4732 558.335C77.5822 559.45 77.0338 560.979 76.4987 563.027C70.585 585.663 71.9888 608.406 84.3524 628.607C89.5967 637.176 96.5537 643.761 103.846 650.542Q98.7329 661.58 94.7417 673.071C93.2161 656.174 89.2473 641.709 79.9202 627.455C76.6237 622.417 73.0158 617.616 68.3814 613.725C65.4319 611.249 61.9197 608.041 58.335 606.655C57.0158 606.837 56.6481 606.918 55.669 607.935C50.8229 612.964 51.2108 643.086 52.2048 649.992C54.5719 666.436 64.2332 695.609 77.7631 705.64C78.8904 706.476 80.1739 707.101 81.4297 707.717C76.5549 715.271 72.813 723.478 67.9696 730.974C66.9223 724.257 66.4633 717.448 65.0235 710.799C61.1882 693.087 50.8749 674.69 36.0751 663.866C33.9712 662.327 31.6671 660.844 28.97 661.208C26.7399 662.674 26.2173 667.732 25.7022 670.227C20.516 695.34 24.1902 721.249 38.5062 742.86Q40.0247 745.184 41.7528 747.357Q43.481 749.53 45.4038 751.533Q47.3265 753.536 49.4273 755.352Q51.528 757.167 53.7885 758.779C48.0629 767.891 43.2032 777.608 37.9963 787.026C35.343 791.825 32.6877 797.079 29.2242 801.338C19.4165 802.021 9.76551 804.477 0 805.162L0 652.429L0 647.869L0 622.776C1.58623 625.132 3.2897 627.4 4.97999 629.681C5.02285 625.297 5.08886 620.899 5.66216 616.546C7.2796 604.266 13.6399 592.822 24.5375 586.468C28.9985 583.867 34.1843 581.973 38.2572 578.806C38.3841 578.707 38.5074 578.604 38.6325 578.503C40.7102 576.352 40.2614 573.062 40.2184 570.265Q39.4346 527.038 43.2251 483.971C48.2919 429.933 59.5443 375.788 73.8819 323.471C77.1327 311.609 80.6458 299.683 84.447 287.986C86.679 281.117 89.376 274.351 91.3396 267.405C85.5457 258.8 82.6526 248.711 80.2857 238.708C73.3442 209.374 72.6366 178.677 76.3958 148.81L82.1284 147.457C80.1167 175.703 79.4432 213.886 87.7896 241.048C88.7901 244.304 90.2303 249.483 92.6439 251.964C93.3029 252.642 93.668 252.864 94.5557 253.092C95.9217 252.549 96.1833 251.869 96.7301 250.519C100.045 242.335 102.372 233.538 105.379 225.206C113.402 202.974 121.679 181.033 130.734 159.204C134.368 150.444 137.737 141.567 141.893 133.031Z"/>
	<path d="M0 647.869C11.0325 643.944 19.672 642.582 30.5795 647.867C33.154 649.114 37.5318 651.539 38.3223 654.52C38.5046 655.208 38.4762 655.327 38.4919 655.966C37.8506 656.724 38.1117 656.74 37.2364 656.792C30.4847 657.192 23.0238 641.674 0 652.429L0 647.869Z"/>
	<path fill="#6B58B8" d="M424.001 0L515.626 0C520.184 10.3674 521.808 20.5475 519.522 31.765C515.692 50.5639 499.365 68.2976 482.578 76.8003C480.15 78.0304 471.491 80.2022 470.596 80.9218C470.025 81.3814 470.237 81.7413 470.248 82.3969C472.298 85.6915 476.82 87.8971 479.631 90.6629C484.496 95.4501 487.046 102.724 486.976 109.506Q486.97 110.158 486.932 110.809Q486.894 111.459 486.823 112.107Q486.752 112.756 486.649 113.399Q486.546 114.043 486.411 114.681Q486.275 115.318 486.108 115.948Q485.941 116.578 485.742 117.199Q485.544 117.82 485.315 118.431Q485.085 119.041 484.826 119.639Q484.566 120.237 484.277 120.821Q483.987 121.405 483.669 121.974Q483.351 122.543 483.005 123.095Q482.658 123.648 482.285 124.182Q481.911 124.716 481.511 125.231Q481.112 125.746 480.686 126.24Q480.261 126.734 479.812 127.207Q479.362 127.679 478.89 128.128C473.237 133.491 464.189 136.64 456.366 135.384C452.95 134.835 449.765 133.645 446.278 133.504C445.803 134.03 445.237 134.377 445.206 135.133C445.05 138.967 449.717 142.686 448.037 151.671C446.491 159.94 440.614 166.292 433.832 170.836C423.186 177.969 410.445 179.507 398.044 176.926C382.381 173.665 370.087 164.932 360.39 152.363C358.405 149.791 357.019 146.845 355.099 144.284C354.301 143.22 353.807 143.054 352.528 142.875C350.72 145.49 349.782 148.958 348.559 151.894C345.301 159.719 340.397 166.413 333.992 171.979Q333.08 172.786 332.129 173.546Q331.178 174.306 330.19 175.017Q329.202 175.728 328.18 176.389Q327.158 177.05 326.103 177.658Q325.049 178.267 323.965 178.821Q322.882 179.376 321.772 179.876Q320.662 180.376 319.528 180.819Q318.394 181.262 317.239 181.648Q316.085 182.034 314.912 182.361Q313.74 182.688 312.552 182.956Q311.365 183.224 310.165 183.432Q308.966 183.64 307.757 183.788Q306.549 183.935 305.335 184.022Q304.12 184.108 302.903 184.134Q301.686 184.159 300.469 184.123Q299.253 184.088 298.039 183.991C269.844 181.821 248.6 152.491 239.483 128.1C238.16 124.559 235.689 112.338 233.983 110.327C231.477 110.331 226.496 115.673 224.236 117.465C207.838 130.467 185.69 137.979 164.738 135.624C146.208 133.542 132.393 123.328 121.053 109.134C129.424 107.243 136.819 104.517 143.534 99.0143C156.008 88.7901 161.423 74.1263 162.914 58.5176C165.035 60.8001 167.163 63.0302 169.585 64.9994C177.448 71.3935 188.24 74.8732 198.382 73.793C210.077 72.5474 217.686 65.1089 224.704 56.3443C227.037 60.7884 229.458 64.8155 233.412 68.032C236.786 70.7762 241.015 72.7438 245.454 72.1716C252.006 71.3269 256.152 66.1179 259.795 61.167C261.746 65.5225 264.57 69.8231 267.731 73.3996C274.456 81.0085 284.064 86.0173 294.259 86.5309C302.654 86.9538 310.997 84.5525 317.292 78.82C326.112 70.7871 330.559 59.3322 331.135 47.6291C339.363 55.1046 347.81 59.8783 359.282 59.9086C366.267 59.927 372.927 57.9257 377.866 52.7571C383.617 46.7402 384.224 40.5995 383.976 32.7548C386.925 33.966 389.729 34.5674 392.902 34.7255C400.13 35.0857 407.156 32.8782 412.457 27.8336C419.904 20.7469 423.615 10.0908 424.001 0Z"/>
	<path fill="#6B58B8" d="M0 0L419.61 0C418.798 9.09807 415.684 19.6802 408.457 25.8042C403.773 29.7736 397.399 31.075 391.396 30.3585C389 30.0725 381.523 27.2154 380.361 27.3164C380.104 27.3388 379.927 27.5967 379.71 27.7369C378.947 30.1565 379.417 32.758 379.527 35.2593C379.871 43.0874 377.275 49.6915 369.962 53.3645C363.173 56.7739 355.272 56.3896 348.271 53.8809C342.66 51.8701 338.248 48.8047 334.003 44.6564C332.586 43.2716 331.109 41.4221 329.441 40.4088C328.8 40.0188 328.224 40.2369 327.506 40.2941C326.428 53.8893 324.881 66.7295 313.73 76.1462C308.041 80.9505 301.076 82.868 293.734 82.206C284.512 81.3745 276.145 76.5427 270.309 69.4294Q268.464 67.1373 266.887 64.6527Q265.31 62.1682 264.021 59.5226C263.043 57.4978 262.294 54.969 260.984 53.1565C260.375 52.3134 259.989 52.1263 259.064 51.7787C254.627 55.145 254.247 69.1183 242.421 67.8275C238.386 67.3871 235.493 64.6468 233.131 61.537C231.04 58.7845 226.867 48.1106 224.895 46.9638C222.383 48.0888 220.626 53.8312 218.983 56.2518C210.524 68.716 195.825 72.8145 181.843 67.4577C177.45 65.7749 173.564 63.1163 170.138 59.9157C167.956 57.8777 163.741 50.3333 160.968 50.2935C159.28 51.5994 159.089 53.1957 158.833 55.1883C158.277 59.5003 158.681 63.7266 157.358 67.9264C152.974 81.8447 147.18 93.4397 133.725 100.563C126.451 104.414 117.297 106.589 109.297 103.88C105.872 102.721 102.619 100.863 99.448 99.1501C96.763 102.461 102.901 123.419 87.7943 138.008C83.7915 141.874 78.8049 144.49 73.2289 145.051Q72.5883 145.12 71.9451 145.156Q71.3018 145.193 70.6576 145.196Q70.0133 145.199 69.3697 145.17Q68.7261 145.14 68.0849 145.077Q67.4437 145.014 66.8065 144.919Q66.1693 144.824 65.5379 144.696Q64.9064 144.568 64.2824 144.407Q63.6583 144.247 63.0433 144.055Q62.4282 143.864 61.8238 143.64Q61.2194 143.417 60.6273 143.163Q60.0351 142.91 59.4567 142.626Q58.8783 142.342 58.3152 142.029Q57.7521 141.716 57.2058 141.374Q56.6595 141.033 56.1314 140.664Q55.6033 140.294 55.0949 139.899Q54.5864 139.503 54.0988 139.082C53.0976 138.218 52.2172 137.253 51.3579 136.251L50.3116 136.056C47.8072 138.677 52.6862 162.971 30.8248 163.611C23.3321 163.831 16.4336 160.71 11.1496 155.527C6.87349 151.333 3.4483 146.232 0 141.363L0 0Z"/>
	<path fill="#6B58B8" d="M179.59 585.436C188.176 574.598 193.857 562.951 209.474 561.437C218.271 560.585 226.811 564.956 233.302 570.545C241.78 577.845 246.749 586.778 251.353 596.815C252.879 600.142 254.298 604.244 256.58 607.114C257.693 608.513 259.239 609.558 261.095 609.426C261.837 609.374 261.707 609.433 262.111 608.872C264.368 605.732 265.754 601.866 267.919 598.595C275.468 587.188 287.483 577.408 301.133 574.793C304.503 574.147 308.009 573.894 311.437 573.83C307.341 580.029 303.798 586.214 301.224 593.22C293.501 614.237 293.885 640.345 297.753 662.194C277.928 659.819 260.187 663.282 244.226 675.892C242.035 677.623 240.086 679.591 238.15 681.597C239.743 671.131 240.783 661.445 234.125 652.328C230.473 647.326 225.388 644.405 219.254 643.544C213.361 642.717 204.081 643.963 199.376 647.888C198.222 648.851 196.948 650.373 196.867 651.924C196.857 652.104 196.889 652.285 196.901 652.465C197.746 652.992 197.815 652.924 198.75 652.656C200.862 652.049 203 650.693 205.002 649.762C210.776 647.079 217.57 646.273 223.468 649.057C228.976 651.657 232.305 656.616 234.124 662.257C234.745 664.184 235.296 666.323 235.347 668.349C235.475 673.396 231.907 681.909 234.619 686.275C235.805 686.849 236.282 687.005 237.565 686.562C241.909 685.059 246.441 679.714 250.311 677.028C261.24 669.442 272.759 665.772 286.025 665.579C289.502 665.529 293.649 665.53 296.905 666.847C297.98 667.282 298.601 667.85 299.375 668.692C299.752 670.214 299.155 670.828 298.329 672.168C294.547 678.307 290.403 683.589 288.456 690.686C285.082 702.979 289.229 715.248 286.039 727.327C284.475 733.251 276.786 748.2 277.983 753.207C278.39 754.91 279.277 756.245 280.777 757.172C286.167 760.503 289.854 759.067 291.81 766.473C292.419 768.776 292.921 771.114 293.438 773.44C271.357 773.612 249.034 776.484 227.063 778.55Q172.102 783.22 117.365 790.033L63.9275 796.322C54.4004 797.45 44.5697 798.302 35.1373 800.02C41.095 790.777 46.394 781.14 52.234 771.828C83.7545 779.471 117.1 776.059 145.168 759.065C149.26 756.588 161.845 748.47 163.327 744.448C163.134 742.951 162.806 742.214 161.549 741.309C159.047 739.508 155.35 738.53 152.466 737.494C135.256 731.308 118.134 729.917 100.16 733.611C86.3728 736.444 75.9088 742.28 63.75 748.942Q71.2875 734.565 79.095 720.333C84.3005 721.937 89.3805 723.089 94.8426 723.299C111.46 723.935 133.507 717.535 148.031 709.918C156.024 705.727 176.011 692.888 178.97 683.928C179.286 682.971 179.06 682.672 178.825 681.734C174.734 677.15 158.064 676.294 152.117 675.959C133.57 674.915 111.073 678.722 96.7278 691.432C94.734 693.198 92.7875 695.067 91.0596 697.095C94.0348 684.206 98.3547 673.654 103.627 661.607C130.954 663.157 156.534 652.188 176.646 634.158C181.666 629.658 195.16 615.795 195.311 608.965C195.33 608.115 194.852 607.768 194.185 607.288C192.827 606.311 190.182 605.948 188.546 605.581C175.758 602.708 162.54 603.545 150.053 607.4C142.6 609.701 136.076 613.081 129.627 617.416L128.885 616.851C128.214 617.563 127.79 617.959 126.869 618.307L127.446 617.805L127.127 618.165L128.013 616.404L128.18 616.47L128.944 614.997C130.683 611.455 134.465 608.263 136.632 604.81C144.114 592.883 147.738 579.378 148.779 565.432L149.11 567.725C150.664 568.382 153.289 567.442 154.994 567.177C167.114 565.297 173.544 577.048 179.59 585.436Z"/>
	<path d="M186.347 708.136C190.873 707.742 195.205 708.168 198.785 711.289C204.551 716.315 204.626 724.547 205.01 731.579C212.821 724.047 221.042 716.403 232.13 714.418C235.135 713.88 238.427 713.975 240.982 715.841C242.904 717.243 244.007 719.421 244.382 721.737C245.316 727.5 242.295 732.445 239.193 736.984C242.124 735.887 245.066 734.728 248.2 734.386C251.318 734.047 254.681 734.336 257.172 736.434C260.275 739.048 260.609 742.661 260.852 746.424C259.801 748.718 258.16 752.356 255.749 753.552C254.57 754.136 253.791 754.16 252.539 753.879C250.917 750.004 257.632 746.34 256.285 742.042C255.879 740.749 255.178 739.775 253.922 739.205C247.646 736.357 237.758 743.537 231.909 745.308C231.74 745.359 231.569 745.405 231.399 745.454C231.13 744.879 230.755 744.343 230.592 743.73C229.555 739.836 240.876 729.766 240.637 723.915C240.572 722.325 240.018 721.12 238.803 720.079C227.867 710.704 206.301 739.469 201.35 739.845C200.553 739.174 200.349 739.008 200.173 737.918C199.232 732.113 201.364 726.69 199.673 720.384C198.919 717.574 197.439 714.808 194.76 713.427C192.582 712.305 190.097 712.135 187.698 712.411C174.07 713.978 170.949 728.805 164.725 730.775L163.835 729.948C163.476 728.732 163.067 727.692 163.688 726.471C168.385 717.227 176.477 710.825 186.347 708.136Z"/>
	<path fill="#9F8BE8" d="M53.7996 144.302C59.9818 148.063 64.7691 149.356 71.983 149.626C68.7838 183.15 68.0905 238.784 86.6655 267.899C77.9942 290.808 71.556 315.022 65.4703 338.74C48.1386 406.284 36.3173 474.847 35.6484 544.737C35.5952 550.292 34.8117 572.304 36.6634 576.107C37.1478 577.102 37.8475 577.749 38.6325 578.503C38.5074 578.604 38.3841 578.707 38.2572 578.806C34.1843 581.973 28.9985 583.867 24.5375 586.468C13.6399 592.822 7.2796 604.266 5.66216 616.546C5.08886 620.899 5.02285 625.297 4.97999 629.681C3.2897 627.4 1.58623 625.132 0 622.776L0 148.874C7.01378 157.85 14.3587 166.238 26.4264 167.568C32.8982 168.281 39.3835 166.977 44.5138 162.784C50.3806 157.99 52.6956 151.535 53.7996 144.302Z"/>
	<path fill="#6B58B8" d="M990.548 665.947C992.412 660.839 995.013 657.208 999.474 653.951C1006.75 648.641 1015.2 646.928 1024 648.405L1024 652.578L1024 815.997C1008 813.188 991.829 809.65 975.652 808.204C975.459 800.247 975.02 791.863 973.324 784.068C978.196 776.486 984.361 769.779 989.238 762.084C1002.15 741.713 1009.32 716.827 1003.85 692.832C1003.34 690.583 1002.95 687.452 1000.88 686.135C994.616 686.427 983.782 698.695 979.309 703.152C984.747 689.202 985.841 674.473 986.179 659.636C986.25 659.804 986.338 659.965 986.391 660.14C987.08 662.406 985.502 665.094 987.7 666.604L990.18 666.461L990.548 665.947Z"/>
	<path d="M990.548 665.947C992.412 660.839 995.013 657.208 999.474 653.951C1006.75 648.641 1015.2 646.928 1024 648.405L1024 652.578C1014.95 651.976 1007.16 653.239 1000.1 659.341C995.716 663.132 995.166 667.916 994.192 668.895C993.908 669.181 993.389 668.959 992.987 668.991C991.771 668.118 991.065 667.379 990.548 665.947Z"/>
	<path fill="#D9CAFE" d="M543.165 619.273C544.057 619.638 544.5 619.791 545.485 619.846C546.648 619.115 547.183 618.41 547.92 617.292L548.182 616.886L548.537 617.975C548.774 618.66 548.697 619.096 549.426 619.399C553.191 620.96 560.783 620.13 564.942 620.163C575.267 620.247 585.615 620.485 595.94 620.366C601.824 620.298 607.874 619.7 613.738 619.947C614.448 619.977 614.922 620.187 615.513 620.559C615.813 621.707 615.816 621.794 615.41 622.907C611.079 624.302 556.465 623.415 546.719 623.105C545.523 621.851 544.251 620.624 543.165 619.273Z"/>
	<path fill="#5438A9" d="M113.966 616.142Q114.392 617.417 114.848 618.682C115.527 620.553 116 621.906 117.93 622.819C121.349 623.008 126.332 617.188 128.944 614.997L128.18 616.47L128.013 616.404L127.127 618.165L127.446 617.805L126.869 618.307C127.79 617.959 128.214 617.563 128.885 616.851L129.627 617.416C128.318 619.305 116.731 629.58 113.93 632.432L113.966 616.142Z"/>
	<path fill="#FEFEFE" d="M452.55 515.777C454.632 516.53 456.884 517.075 457.89 519.256C457.969 519.428 458.017 519.612 458.08 519.79C457.758 520.423 457.746 520.803 457.02 521.084C455.604 521.632 453.889 521.268 452.41 521.12L452.55 515.777Z"/>
	<path fill="#FEFEFE" d="M457.726 628.073C529.14 627.243 600.612 628.731 672.031 628.346C673.032 633.215 673.374 638.408 674.018 643.354Q675.784 656.839 677.908 670.272C680.146 684.087 684.012 698.008 685.319 711.912C684.04 714.32 682.06 717.373 681.485 720.032C680.728 723.533 689.474 725.704 690.837 729.885C692.651 735.449 693.563 741.487 695.137 747.156C702.308 772.985 708.563 793.102 723.023 815.977C714.787 819.903 706.981 825.469 698.153 827.952Q686.65 821.671 675.455 814.855C658.675 779.723 649.068 732.35 643.146 693.671C642.458 689.183 640.512 670.104 637.899 667.717C636.64 667.734 636.701 667.693 635.795 668.563C634.811 672.299 637.216 682.54 637.802 686.656C642.246 717.849 648.391 749.819 657.576 779.956C661.103 791.53 665.588 802.665 669.579 814.065C656.007 817.509 644.68 826.696 631.143 830.501C623.777 826.843 618.786 819.582 612.278 814.607C600.333 783.218 592.347 746.222 587.408 713.025Q585.5 698.119 583.93 683.173C583.357 677.382 583.169 671.382 582.327 665.637C582.054 663.776 581.954 663.294 580.433 662.161L579.528 662.561C577.662 666.696 579.451 677.372 579.832 682.007Q580.511 690.412 581.459 698.791Q582.408 707.17 583.623 715.514Q584.839 723.859 586.321 732.16Q587.803 740.461 589.549 748.711Q591.296 756.96 593.306 765.15Q595.316 773.339 597.587 781.46Q599.858 789.581 602.387 797.625Q604.917 805.669 607.702 813.628C589.823 812.418 575.086 829.987 564.319 829.812C556.511 829.685 546.475 817.764 537.15 815.075C534.579 814.333 531.695 814.282 529.035 814.086Q524.522 792.387 521.479 770.433Q518.436 748.479 516.877 726.37Q516.042 712.214 515.669 698.038C515.522 691.651 515.681 685.2 515.053 678.84C514.938 677.668 515.079 677.495 514.255 676.569C512.895 676.762 512.904 676.7 512.016 677.735C510.328 685.06 511.502 698.959 511.882 706.746C513.055 730.753 514.595 754.415 518.239 778.202C520.146 790.645 522.923 802.788 525.295 815.123C517.234 818.168 510.392 823.216 502.558 826.442C490.809 831.28 491.04 824.891 482.702 819.466C481.114 818.432 479.166 817.721 477.424 816.982C485.495 796.808 494.825 776.113 499.981 754.99C501.921 747.044 504.467 734.378 499.732 727.05C493.745 717.783 460.179 714.452 448.904 712.112C449.989 705.88 453.243 689.845 452.802 684.137C452.683 682.592 452.327 680.257 451.113 679.249L450.642 679.575C448.75 682.912 445.109 707.224 444.862 711.65C438.915 710.756 432.876 710.307 426.907 709.514C427.527 698.826 428.397 681.106 431.683 671.189C434.488 662.721 452 636.41 457.726 628.073Z"/>
	<path fill="#9F8BE8" d="M251.466 159.303Q254.372 163.002 257.622 166.404C270.5 180.048 285.097 188.28 304.112 188.803C299.085 205.082 293.958 221.195 287.195 236.862C261.773 295.754 218.86 350.184 163.728 383.697C151.948 390.267 139.334 396.77 126.328 400.465C127.149 388.648 129.592 376.624 131.105 364.839Q134.264 340.052 138.149 315.368C139.544 306 140.453 296.246 142.855 287.082C145.632 286.228 148.277 285.031 150.92 283.832C190.235 265.998 221.745 225.639 240.096 187.58C244.505 178.438 247.909 168.798 251.466 159.303Z"/>
	<path fill="#FEFEFE" d="M748.473 509.462C787.718 550.769 804.543 610.343 819.805 663.791C805.862 679.478 780.617 689.957 760.436 694.905C739.669 699.715 716.557 701.256 695.516 697.435C698.286 688.715 701.413 680.316 703.692 671.421C711.166 642.251 716.143 601.526 712.447 571.663C734.165 553.96 742.514 536.163 748.473 509.462Z"/>
	<path fill="#FEFEFE" d="M324.205 566.819C328.267 568.553 331.768 571.799 335.583 574.054C349.051 582.013 368.175 590.425 384.02 589.481C388.567 602.579 395.87 614.371 400.946 627.172C395.618 623.789 390.868 618.632 386.349 614.253C375.886 604.114 364.381 593.402 351.036 587.197C344.302 584.066 335.99 583.267 328.961 585.994Q328.419 586.21 327.889 586.452Q327.359 586.694 326.841 586.963Q326.324 587.232 325.82 587.526Q325.317 587.82 324.829 588.139Q324.341 588.458 323.869 588.801Q323.398 589.145 322.944 589.511Q322.491 589.877 322.056 590.266Q321.621 590.654 321.206 591.064Q320.791 591.474 320.398 591.904Q320.004 592.333 319.632 592.783Q319.26 593.232 318.911 593.699Q318.563 594.166 318.238 594.65Q317.913 595.135 317.612 595.634Q317.312 596.134 317.037 596.648Q316.762 597.162 316.513 597.69Q316.264 598.217 316.042 598.756C312.827 606.741 313.381 618.462 316.918 626.27C325.135 644.411 372.556 663.599 390.632 670.307C402.82 674.83 413.965 680.194 426.771 674.322C424.713 685.784 424.366 697.609 422.011 708.977C420.63 709.341 419.337 708.923 417.95 708.675C410.42 707.949 402.824 707.532 395.278 706.932C395.886 698.209 400.116 684.471 397.231 676.391L396.555 676.283C395.196 678.2 394.686 680.677 394.237 682.958C393.196 688.244 393.254 693.625 392.348 698.934C389.113 717.884 384.951 736.884 381.056 755.714C375.16 758.273 368.978 760.104 362.717 761.529C340.222 766.647 319.064 766.278 297.032 759.095C292.055 757.473 286.543 755.782 282.116 752.977C284.115 743.453 289.094 734.752 290.926 725.152C291.881 720.151 291.65 715.18 291.472 710.125C290.917 694.344 292.869 685.367 303.95 673.382C300.601 656.785 298.514 639.676 299.675 622.711C301.139 601.297 307.714 581.193 324.205 566.819Z"/>
	<path d="M389.731 680.202C390.628 680.503 390.909 680.774 391.479 681.523C391.63 682.781 391.548 683.629 391.022 684.766C389.039 689.056 386.046 693.217 383.363 697.122C371.247 714.757 354.513 734.06 334.267 742.067C333.699 741.9 333.524 741.638 333.117 741.226C333.122 740.767 332.98 740.282 333.132 739.849C333.658 738.345 347.266 729.74 349.485 728.144C361.455 719.533 371.897 706.693 380.19 694.588C383.337 689.994 386.059 685.061 389.411 680.62L389.731 680.202Z"/>
	<path d="M379.094 671.667C380.512 672.282 381.245 672.736 381.893 674.127C381.683 675.407 381.423 676.58 380.869 677.762C375.066 690.154 357.582 706.933 344.672 711.803C343.246 711.784 343.289 711.761 342.214 710.813C341.52 707.456 352.091 703.666 355.403 701.095C365.917 692.932 372.795 683.225 379.094 671.667Z"/>
	<path fill="#FEFEFE" d="M441.385 570.552C448.175 573.895 468.916 586.38 472.524 592.533C472.547 594.063 471.79 595.128 471.058 596.448C467.493 602.872 462.973 608.819 459.213 615.15C449.456 631.584 440.127 648.174 429.726 664.232C427.018 668.413 423.314 671.933 418.233 672.871C411.885 674.043 403.62 670.401 397.709 668.361C373.548 660.023 350.344 649.697 329.392 634.914C328.57 634.263 327.789 633.573 327.014 632.868C320.884 627.292 318.2 620.738 317.847 612.58C317.557 605.881 318.956 599.081 323.731 594.082C327.586 590.045 332.808 588.43 338.291 588.418C341.92 588.41 345.312 589.16 348.654 590.554C364.704 597.248 388.136 620.861 400.836 633.702C402.796 635.685 405.561 638.898 408.503 638.919C409.467 638.218 409.383 638.265 409.577 637.079C407.942 633.832 404.809 631.516 402.15 629.1C407.359 622.828 411.695 615.648 416.149 608.822C424.487 596.043 432.573 583.009 441.385 570.552Z"/>
	<path fill="#9F8BE8" d="M231.527 117.465C233.149 119.222 233.746 124.872 234.593 127.298Q237.354 135.188 241.436 142.483C239.383 147.756 237.928 153.303 236.035 158.645C233.317 166.315 230.5 174.028 227.051 181.404C212.268 213.019 185.774 249.648 153.615 264.965L145.97 268.74C148.587 257.821 150.398 246.672 152.843 235.701C159.882 204.119 167.971 170.758 178.258 140.162C198.302 138.006 216.307 130.884 231.527 117.465Z"/>
	<path fill="#FEFEFE" d="M732.958 417.348C739.815 424.04 744.213 432.497 746.363 441.814C752.406 468 746.27 520.212 731.721 543.272C721 560.264 703.515 576.982 683.357 581.49C681.47 578.037 680.017 574.769 679.017 570.96C684.825 567.147 690.588 562.93 695.919 558.477C708.723 547.782 718.904 535.68 721.667 518.825C722.431 514.163 722.498 509.449 722.918 504.75C723.02 496.895 722.824 464.588 719.647 459.403L718.103 459.106C714.794 460.363 716.251 465.967 716.543 468.902C717.542 478.919 718.182 488.649 718.21 498.722C718.258 516.31 716.058 529.031 705.83 543.635C704.947 534.702 703.997 525.308 700.91 516.822C699.174 512.048 696.257 507.691 693.632 503.367C687.345 493.013 680.263 483.018 675.837 471.693C674.899 469.292 673.352 465.809 674.426 463.34C676.272 463.883 677.551 463.896 679.389 463.415C682.7 462.55 686.064 460.812 689.173 459.374C708.527 450.423 722.492 435.618 732.958 417.348Z"/>
	<path fill="#9F8BE8" d="M103.068 106.545C107.495 108.353 111.817 109.412 116.615 109.598C123.902 118.172 128.183 124.64 138.059 130.683C123.939 161.787 112.369 193.545 100.75 225.626C98.4387 232.513 96.2797 239.515 93.5735 246.256C83.2835 216.672 83.7881 175.856 86.6212 144.66Q89.2628 142.921 91.5614 140.748C101.62 131.105 102.755 119.698 103.068 106.545Z"/>
	<path fill="#FEFEFE" d="M820.485 668.841C821.749 669.581 828.059 690.925 829.145 694.272C825.512 697.387 821.279 699.958 817.191 702.443C788.58 719.83 752.048 731.021 718.376 728.177C711.216 727.572 704.301 725.988 697.343 724.285C693.479 723.347 689.874 721.851 686.309 720.119L694.133 701.635C701.404 702.445 708.673 703.455 715.999 703.526C752.377 703.875 793.772 695.095 820.485 668.841Z"/>
	<path fill="#9F8BE8" d="M353.566 152.217C357.295 155.457 360.723 160.148 364.079 163.862Q363.445 169.953 362.497 176.003C356.075 214.553 325.732 259.486 294.17 281.865L287.079 287.107C293.04 274.344 300.642 262.331 306.49 249.457C316.778 226.814 323.681 203.632 331.387 180.076C341.637 171.929 348.178 164.167 353.566 152.217Z"/>
	<path fill="#9F8BE8" d="M880.03 712.223Q883.018 712.138 886.006 712.24Q888.994 712.343 891.97 712.632Q894.945 712.922 897.896 713.398Q900.848 713.874 903.764 714.534Q906.68 715.194 909.548 716.035Q912.417 716.877 915.227 717.897Q918.037 718.917 920.778 720.111Q923.519 721.305 926.179 722.669C939.673 729.651 953.602 740.735 960.507 754.598C962.606 758.812 963.837 763.743 965.28 768.226Q958.53 767.888 951.793 767.345C943.45 766.091 935.461 763.475 927.691 760.23C900.595 748.914 886.236 731.652 864.344 713.533C869.573 712.871 874.77 712.516 880.03 712.223Z"/>
	<path fill="#9F8BE8" d="M112.091 736.201C126.184 733.821 145.191 738.636 158.165 743.993C141.439 758.441 121.285 766.943 99.6152 770.432C82.9657 771.989 70.4046 771.175 54.0636 767.397C55.4188 764.532 56.6673 761.483 58.7604 759.072C70.3119 745.766 95.0355 737.753 112.091 736.201Z"/>
	<path fill="#FEFEFE" d="M364.869 489.043C365.115 488.972 365.74 489.131 366.004 489.171C367.658 490.878 370.919 493.509 371.301 495.821L370.702 496.438C368.476 496.758 366.388 495.904 364.271 495.281L363.398 495.548C362.882 495.702 362.363 495.843 361.85 496.006C359.552 496.734 358.712 497.475 357.609 499.602C357.615 500.173 357.434 500.817 357.882 501.243C359.142 502.439 361.615 502.344 363.227 502.319C363.898 501.709 364.576 501.13 365.286 500.566C366.347 500.539 367.121 500.55 368.145 500.875C368.911 501.118 369.707 501.47 370.494 501.633C372.159 501.977 373.895 500.622 375.277 499.812L385.062 504.167C383.586 508.439 382.215 512.694 381.018 517.053C381.915 518.578 382.935 520.025 383.924 521.491C381.632 521.139 379.437 520.807 377.109 520.854C375.952 521.504 375.786 521.55 375.2 522.721L375.616 523.511C379.112 525.847 383.438 526.138 387.506 526.601C389.799 529.192 392.47 532.395 392.099 536.127C391.217 545.015 373.481 543.307 370.116 547.097C368.441 548.983 367.365 561.589 366.999 564.548C367.025 565.589 367.153 565.57 366.556 566.511C360.077 567.029 345.948 560.983 340.229 557.975L341.661 549.347C344.559 547.276 349.347 543.395 350.507 539.955C352.493 534.069 340.422 533.301 338.021 528.456C337.13 526.658 337.154 524.781 337.866 522.936C338.739 521.989 339.459 521.214 340.838 521.158C344.728 520.999 348.341 526.753 351.375 528.777C352.714 529.67 353.585 529.716 355.133 529.454C355.978 528.808 356.59 528.286 357.098 527.333C360.622 520.721 352.58 512.548 350.647 506.514C349.196 501.985 348.629 497.028 347.29 492.394C353.381 491.785 359.009 490.86 364.869 489.043Z"/>
	<path fill="#FEFEFE" d="M659.461 367.38C660.265 367.388 661.443 367.317 662.2 367.664C663.315 368.175 664.289 369.568 665.138 370.437C669.467 374.869 673.105 377.017 679.236 377.942C681.124 377.254 682.893 376.331 684.69 375.438C686.206 372.99 686.971 369.705 689.981 368.688C690.837 368.398 691.021 368.677 691.792 369.004C693.556 371.9 693.495 374.859 693.358 378.117C690.904 379.286 689.162 380.147 687.941 382.665C686.59 385.454 687.031 388.26 688.171 391.044C692.473 401.553 700.68 406.291 710.632 410.471C704.97 422.884 691.572 437.167 681.051 445.577C678.636 447.28 676.173 448.694 673.571 450.09C676.602 436.716 683.261 424.929 686.707 411.7C686.018 409.505 685.287 405.865 683.615 404.28C683.08 403.773 682.801 404.003 682.14 404.082C680.579 405.421 679.943 407.183 679.122 409.014C677.441 410.136 675.703 411.407 673.871 412.263C670.728 413.73 666.726 413.596 663.517 412.441C656.382 409.873 651.524 403.276 648.288 396.705C646.688 393.458 643.204 385.08 644.318 381.757C647.095 380.007 652.588 382.03 655.9 381.727C657.927 381.542 658.995 380.919 660.323 379.405C661.481 376.1 659.479 374 658.65 370.966C658.181 369.248 658.683 368.868 659.461 367.38Z"/>
	<path d="M664.532 393.886L665.178 394.283C665.557 394.964 666.012 395.662 666.029 396.471C666.058 397.939 665.124 399.376 664.164 400.398C662.36 402.319 660.948 402.401 658.442 402.554C657.246 401.442 657.08 400.923 656.759 399.396C657.837 396.414 661.456 395.92 663.986 394.252L664.532 393.886Z"/>
	<path fill="#9F8BE8" d="M975.393 634.841C975.769 635.098 975.906 635.15 976.195 635.583C977.387 637.367 977.881 640.574 978.38 642.647Q979.004 645.148 979.496 647.677Q979.989 650.207 980.348 652.759Q980.708 655.311 980.935 657.878Q981.161 660.445 981.253 663.021Q981.346 665.596 981.304 668.173Q981.262 670.75 981.085 673.321Q980.909 675.892 980.599 678.451Q980.289 681.009 979.846 683.548C977.416 698.077 971.639 711.267 963.771 723.639C961.928 726.538 959.786 730.245 956.949 732.258C955.79 731.594 955.507 730.377 954.931 729.195C952.374 723.026 949.183 717.05 945.921 711.228C946.316 704.431 946.174 697.637 946.892 690.849C949.384 667.263 959.449 651.534 975.393 634.841Z"/>
	<path fill="#9F8BE8" d="M163.996 608.666C172.605 607.54 181.859 608.478 190.255 610.415Q189.482 611.916 188.646 613.383C176.774 634.092 152.352 648.642 129.881 654.75C121.743 656.548 113.85 657.184 105.552 657.329C108.263 649.985 111.862 642.782 116.588 636.522C128.363 620.923 144.637 611.284 163.996 608.666Z"/>
	<path fill="#9F8BE8" d="M139.718 680.209C149.227 678.42 164.192 681.352 173.778 683.311C161.616 701.734 134.311 712.303 113.615 717.02C103.547 719.581 90.9432 718.886 80.8604 716.926C84.0876 712.275 86.6851 707.333 90.3972 703.005C102.873 688.458 120.977 681.67 139.718 680.209Z"/>
	<path fill="#9F8BE8" d="M845.673 648.189C855.642 647.49 866.524 647.91 876.183 650.535C901.471 657.407 919.252 673.295 932.201 695.749L931.835 696.559C907.463 694.597 882.414 688.658 863.586 672.016C859.106 668.056 845.005 654.509 844.657 648.842L845.673 648.189Z"/>
	<path fill="#9F8BE8" d="M58.9974 611.726C68.4153 616.855 78.4606 631.926 82.8819 641.507Q83.2943 642.383 83.6845 643.27Q84.0748 644.156 84.4426 645.052Q84.8104 645.948 85.1557 646.853Q85.5009 647.758 85.8233 648.672Q86.1456 649.585 86.445 650.506Q86.7443 651.427 87.0204 652.356Q87.2965 653.284 87.5491 654.219Q87.8018 655.154 88.0309 656.095Q88.2601 657.036 88.4655 657.983Q88.6709 658.93 88.8524 659.881Q89.034 660.832 89.1916 661.788Q89.3492 662.744 89.4827 663.703Q89.6163 664.663 89.7257 665.625Q89.8351 666.587 89.9202 667.552Q90.0054 668.517 90.0664 669.484Q90.1273 670.45 90.1639 671.418Q90.2005 672.386 90.2128 673.355Q90.2251 674.323 90.2131 675.292Q90.201 676.26 90.1647 677.228Q90.1283 678.196 90.0676 679.163Q90.007 680.129 89.922 681.094Q89.8371 682.059 89.728 683.021Q89.6188 683.984 89.4855 684.943Q89.3522 685.903 89.1949 686.858Q89.0375 687.814 88.8562 688.765Q88.6749 689.717 88.4698 690.663Q88.2646 691.61 88.0358 692.551Q87.8069 693.492 87.5545 694.427Q87.302 695.363 87.0262 696.291Q86.7503 697.22 86.4512 698.141Q86.1521 699.062 85.83 699.976Q85.5079 700.889 85.1629 701.794C85.0345 701.913 84.9236 702.055 84.7778 702.153C83.7475 702.846 82.6494 703.003 81.4637 702.652C76.3364 701.133 70.2013 689.278 67.868 684.746C56.8466 663.338 51.6209 635.099 58.9974 611.726Z"/>
	<path fill="#9F8BE8" d="M31.3154 665.787C44.2805 675.296 53.3353 688.233 58.373 703.484C60.8248 710.906 65.894 736.685 62.3588 743.22L57.4449 752.46C56.861 753.291 56.7734 753.367 55.8349 753.751C50.3525 752.295 44.0869 743.417 41.157 738.879C31.3358 723.667 26.6861 702.865 27.99 684.917C28.4626 678.412 29.8979 672.133 31.3154 665.787Z"/>
	<path fill="#9F8BE8" d="M937.111 602.227C942.496 606.688 945.73 617.391 947.335 623.921Q947.608 625.016 947.855 626.117Q948.101 627.219 948.32 628.326Q948.54 629.433 948.732 630.545Q948.924 631.657 949.089 632.773Q949.254 633.89 949.392 635.01Q949.529 636.13 949.639 637.253Q949.75 638.376 949.832 639.502Q949.915 640.628 949.97 641.755Q950.026 642.882 950.053 644.01Q950.081 645.138 950.081 646.267Q950.081 647.396 950.053 648.524Q950.026 649.652 949.97 650.779Q949.915 651.906 949.833 653.032Q949.75 654.157 949.64 655.281Q949.53 656.404 949.392 657.524Q949.255 658.644 949.09 659.761Q948.925 660.877 948.732 661.989Q948.54 663.101 948.321 664.208Q948.102 665.315 947.855 666.417Q947.609 667.518 947.336 668.613Q947.063 669.708 946.763 670.796Q946.463 671.884 946.137 672.964Q945.81 674.045 945.458 675.117Q945.105 676.189 944.726 677.252Q944.348 678.315 943.943 679.369Q943.538 680.422 943.108 681.466Q942.678 682.509 942.222 683.541Q941.766 684.574 941.286 685.595Q940.805 686.616 940.299 687.625Q939.794 688.634 939.264 689.63Q938.734 690.627 938.179 691.61Q937.625 692.593 937.047 693.562L936.34 693.627C931.112 685.76 926.531 677.393 924.075 668.225C917.537 643.82 924.842 623.355 937.111 602.227Z"/>
	<path fill="#9F8BE8" d="M138.041 532.377L138.657 532.805C143.965 544.431 145.366 558.238 143.882 570.834C141.786 588.611 133.264 606.442 119.004 617.593C114.778 608.058 110.901 602.711 111.365 591.675C112.234 570.978 122.724 546.569 138.041 532.377Z"/>
	<path fill="#9F8BE8" d="M998.769 691.036Q999.476 693.459 999.988 695.931Q1000.5 698.402 1000.82 700.907Q1001.13 703.411 1001.25 705.933Q1001.36 708.454 1001.28 710.977C1000.58 731.257 992.394 749.79 980.798 766.085C978.182 769.759 975.54 773.784 972.234 776.861C971.316 775.739 971.249 774.518 970.96 773.127C969.625 761.337 963.327 758.124 965.169 743.265C967.804 722.013 982.256 703.813 998.769 691.036Z"/>
	<path fill="#9F8BE8" d="M81.0965 563.23C92.7694 571.545 101.974 586.044 106.195 599.571C110.144 612.225 110.747 624.648 108.241 637.659C107.696 640.492 107.364 643.251 106.002 645.834C105.871 645.811 105.735 645.804 105.607 645.764C104.298 645.347 102.631 643.464 101.604 642.505C94.8792 636.221 89.6482 629.734 85.4432 621.509Q84.5992 619.835 83.8383 618.122Q83.0774 616.409 82.4015 614.661Q81.7256 612.913 81.1362 611.133Q80.5469 609.354 80.0455 607.548Q79.5442 605.742 79.1321 603.913Q78.7199 602.084 78.398 600.238Q78.0761 598.391 77.8451 596.531Q77.6142 594.671 77.4748 592.802Q77.3354 590.932 77.2878 589.059Q77.2403 587.185 77.2847 585.311Q77.3291 583.437 77.4655 581.568Q77.6018 579.698 77.8296 577.838Q78.0575 575.977 78.3764 574.13Q78.6952 572.283 79.1043 570.454Q79.5134 568.624 80.0118 566.817Q80.5101 565.01 81.0965 563.23Z"/>
	<path fill="#FEFEFE" d="M180.477 845.019C185.401 845.805 190.285 848.834 194.39 851.537C194.144 858.903 191.97 874.071 192.906 880.165C178.202 884.842 163.694 890.12 149.124 895.197C156.609 876.523 168.02 879.686 180.49 868.804C183.249 866.397 186.847 862.976 187.111 859.143C186.474 858.114 186.724 858.122 185.468 857.732C184.611 858.092 184.303 858.365 183.644 858.99C175.458 871.042 163.999 871.172 154.224 879.81C152.754 881.109 151.305 882.494 150.191 884.119C148.397 886.736 144.875 896.7 142.39 897.402C140.137 898.039 136.355 897.487 134.449 896.088C133.281 895.231 132.75 894.383 132.483 892.958C132.034 890.56 133.598 887.676 134.679 885.633C142.575 870.716 154.892 869.389 167.028 860.081C172.452 855.922 176.384 850.413 180.477 845.019Z"/>
	<path fill="#9F8BE8" d="M893.028 582.145C894.127 582.866 895.162 583.776 896.144 584.653C906.341 593.762 919.697 612.768 919.329 627.021C919.192 632.337 917.805 637.721 917.21 643.012C916.589 648.529 916.868 653.917 917.184 659.439L916.961 659.809C910.207 653.927 900.469 638.458 896.419 630.211C889.183 615.479 887.74 597.671 893.028 582.145Z"/>
	<path fill="#9F8BE8" d="M829.938 600.735Q835.227 600.623 840.484 601.223C858.83 603.401 877.533 613.298 888.86 627.982C890.548 630.169 895.109 635.661 894.748 638.408L893.125 638.537C882.536 638.702 873.108 637.783 863.215 633.704C851.115 628.714 832.454 614.176 827.353 601.985L827.76 601.193L829.938 600.735Z"/>
	<path fill="#9F8BE8" d="M694.45 727.953C699.747 729.582 705.132 731.16 710.634 731.926C715.552 732.611 720.45 732.816 725.338 733.796C727.946 743.614 731.851 761.378 732.207 771.298C723.783 770.26 714.704 768.332 706.247 768.62C700.335 756.74 697.704 740.867 694.45 727.953Z"/>
	<path fill="#FEFEFE" d="M426.637 869.563C433.14 872.238 439.024 877.533 443.738 882.641C448.226 879.908 451.455 876.689 455.054 872.889C461.532 876.851 466.747 882.421 473.524 886.239C480.174 889.985 487.386 891.383 494.149 894.678L494.775 894.988L496.635 896.192L496.747 896.875C491.298 899.64 453.381 894.988 445.77 894.449C438.436 893.93 431.049 894.101 423.699 893.687C423.107 885.515 423.587 877.251 426.637 869.563Z"/>
	<path fill="#FEFEFE" d="M441.59 768.78L441.922 769.258C436.284 787.287 432.06 805.755 427.956 824.18C425.056 822.782 422.719 820.508 420.055 818.708C417.545 818.203 415.131 818.064 412.585 817.967C417.95 801.681 424.165 785.686 429.294 769.315C433.352 768.917 437.513 768.931 441.59 768.78Z"/>
	<path fill="#9F8BE8" d="M707.632 773.321C716.236 773.47 724.698 775.537 733.267 776.283C733.869 789.771 735.336 802.893 734.978 816.457C734.44 816.252 733.908 816.054 733.409 815.76C730.877 814.27 726.13 812.019 724.273 809.99C719.518 804.796 709.995 780.867 707.632 773.321Z"/>
	<path fill="#FEFEFE" d="M715.845 411.768C720.474 412.403 724.928 412.746 729.602 412.564C729.554 412.697 729.508 412.831 729.457 412.963C722.207 431.697 702.679 448.372 684.818 456.571C681.23 458.038 677.504 459.253 673.856 460.569C673.65 459.047 672.903 456.237 673.864 454.965C674.451 454.188 683.563 449.603 686.045 447.61C698.381 437.707 707.592 425.114 715.845 411.768Z"/>
	<path fill="#FEFEFE" d="M417.105 769.701C419.65 769.49 422.263 769.607 424.819 769.605C422.526 776.089 409.069 817.186 408.168 818.332C407.722 818.899 406.332 818.894 405.622 819.009C402.306 818.894 399.305 818.495 396.125 817.558C399.718 802.812 404.486 784.047 410.846 770.47C412.913 770.112 415.02 769.935 417.105 769.701Z"/>
	<path fill="#FEFEFE" d="M845.695 836.23C846.252 836.656 845.998 836.415 846.514 837.047L855.488 848.011C847.196 864.801 834.972 881.545 818.276 890.713C815.866 891.607 813.451 892.074 810.938 892.555Q811.564 891.421 812.23 890.309C814.221 887.008 821.088 875.585 824.144 874.12C825.686 873.381 827.508 873.442 829.136 872.958C836.151 870.872 840.426 859.88 840.6 853.373C840.685 850.209 839.374 846.41 840.17 843.362C840.554 841.894 844.484 838.299 845.695 836.23Z"/>
	<path fill="#FEFEFE" d="M481.252 538.474C481.353 538.603 481.484 538.713 481.554 538.86C482.407 540.651 482.607 543.502 481.849 545.332C478.992 552.238 468.226 555.762 461.857 558.522C461.076 562.243 459.801 565.716 458.494 569.279C458.738 570.631 460.222 570.386 461.304 571.569C462.048 573.639 461.56 575.766 461.308 577.903L454.69 573.192Q450.122 570.362 445.672 567.35C447.796 562.977 449.333 558.204 451.828 554.028C453.413 551.374 455.319 548.918 458.027 547.337C460.461 545.917 463.79 545.484 466.497 544.732C471.404 543.369 476.258 541.5 480.623 538.858L481.252 538.474Z"/>
	<path fill="#FEFEFE" d="M674.376 573.924C676.123 575.614 677.263 579.815 678.224 582.151C667.178 586.498 658.606 598.055 645.881 598.207C643.799 598.232 640.817 597.95 639.256 596.456C639.338 592.648 646.805 591.361 648.011 587.136C647.412 585.961 647.299 586.018 646.072 585.484C643.619 586.362 640.779 587.174 638.66 588.715C635.966 590.676 635.391 592.46 634.94 595.668C632.877 593.742 631.107 591.894 629.416 589.619C633.335 587.544 637.209 585.489 641.489 584.255C653.727 580.725 662.877 581.292 674.376 573.924Z"/>
	<path fill="#FEFEFE" d="M750.834 874.894C752.478 876.855 750.958 885.827 750.736 888.592C731.72 894.79 711.052 900.049 690.997 895.814C696.212 893.174 701.276 890.139 706.214 887.019C709.928 888.504 713.323 889.461 717.35 889.632C730.944 890.207 741.211 883.794 750.834 874.894Z"/>
	<path fill="#9F8BE8" d="M766.931 747.372C777.141 757.072 785.829 771.961 794.582 783.247C785.707 781.492 776.51 779.648 767.453 779.443C767.562 768.754 767.804 758.035 766.931 747.372Z"/>
	<path fill="#FEFEFE" d="M565.401 524.89C565.536 525.034 565.704 525.152 565.805 525.321C569.547 531.632 570.05 560.93 568.772 569.298C567.755 570.259 567.024 570.211 565.67 570.471C564.065 570.535 562.795 570.548 561.248 570.088C559.667 566.996 560.217 562.769 560.293 559.394C560.568 547.241 561.836 536.571 565.401 524.89Z"/>
	<path fill="#FEFEFE" d="M521.176 524.879L521.619 525.33C523.752 532.52 526.207 564.48 523.354 570.389L521.666 570.931C520.384 570.817 519.275 570.641 518.024 570.301C517.949 570.161 517.859 570.029 517.799 569.883C516.048 565.671 517.637 543.357 518.302 538.301C518.9 533.755 519.769 529.247 521.176 524.879Z"/>
	<path fill="#FEFEFE" d="M458.631 487.31C461.504 489.969 465.075 496.979 465.634 500.76C466.036 503.486 465.582 506.393 463.902 508.629C462.214 510.875 460.546 511.784 457.804 512.233C456.754 512.113 455.679 511.997 454.668 511.675C452.887 511.109 451.263 510.002 450.491 508.246C447.927 502.419 456.14 493.374 458.367 487.968L458.631 487.31Z"/>
	<path fill="#5438A9" d="M424 896.276C432.095 897.166 440.156 897.366 448.243 898.106C456.25 898.837 464.122 900.031 472.172 900.394C476.727 900.6 481.339 900.896 485.895 900.872C490.055 900.85 495.714 899.746 499.675 900.724L500.368 901.977C492.143 903.346 482.804 902.379 474.487 902.156C468.382 901.992 462.104 902.156 456.025 901.652C453.197 901.417 450.555 900.031 447.764 899.847C440.193 899.349 432.548 901.292 424.905 900.447C423.934 899.333 424.09 897.685 424 896.276Z"/>
	<path fill="#FEFEFE" d="M591.799 610.761C594.45 610.369 598.073 610.669 600.791 610.856C602.414 610.968 603.788 611.203 604.883 612.488C604.856 613.768 604.713 613.752 603.844 614.721C597.385 616.664 578.378 614.883 570.625 614.874C568.101 614.89 557.747 615.301 556.276 614.248C556.681 613.146 556.789 612.824 557.985 612.336C562.7 610.414 585.843 613.627 591.799 610.761Z"/>
	<path fill="#FEFEFE" d="M434.775 540.298C441.406 542.681 447.758 543.725 454.778 544.151C452.572 546.209 450.524 548.313 448.53 550.577L446.07 554.876C442.235 551.63 437.263 549.238 432.932 546.679C433.403 544.523 434.13 542.407 434.775 540.298Z"/>
	<path fill="#9F8BE8" d="M503.611 620.942C511.718 620.931 533.061 619.731 539.614 621.862L539.887 622.502C536.603 623.917 509.078 623.191 503.312 623.136C498.248 622.965 488.856 624.328 484.428 622.624L484.393 621.923C484.693 621.645 484.906 621.222 485.293 621.091C487.358 620.392 500.394 620.949 503.611 620.942Z"/>
	<path fill="#D9CAFE" d="M514.431 575.636C521.403 575.265 527.654 576.077 534.516 577.134C532.338 578.009 530.075 578.611 527.823 579.263C520.403 581.84 515.012 579.528 508.024 577.103C510.138 576.525 512.29 576.097 514.431 575.636Z"/>
	<path fill="#FEFEFE" d="M566.123 575.279C569.053 575.385 572.066 575.845 574.78 576.981L574.602 577.544C570.46 579.032 566.649 579.158 562.306 579.133C559.651 578.75 555.343 578.431 553.141 576.895C555.381 574.822 562.962 575.5 566.123 575.279Z"/>
</svg>
