<?xml version="1.0" encoding="utf-8" ?>
<svg xmlns="http://www.w3.org/2000/svg" xmlns:xlink="http://www.w3.org/1999/xlink" width="1024" height="1024">
	<path d="M0 0L751.021 0L756.613 0L1024 0L1024 595.726L1024 602.806L1024 605.613L1024 783.537L1024 785.29L1024 843.575L1024 863.261L1024 873.838L1024 1024L822.743 1024L817.525 1024L568.917 1024L561.454 1024L527.893 1024L520.966 1024L453.062 1024L447.545 1024L0 1024L0 797.557L0 791.762L0 0Z"/>
	<path d="M914.846 648.271Q914.326 645.799 914.054 643.288C912.518 629.928 916.223 615.477 924.641 604.908C935.692 591.034 953.255 582.66 970.691 580.787C990.217 578.689 1008.7 583.324 1024 595.726L1024 602.806L1024 605.613L1024 783.537L1024 785.29L1024 843.575L1024 863.261L1024 873.838L1024 1024L822.743 1024L817.525 1024L568.917 1024L561.454 1024L527.893 1024L520.966 1024L453.062 1024L447.545 1024L0 1024L0 797.557Q31.5983 789.96 63.4039 783.285C78.5372 780.01 93.6355 776.454 108.939 774.042Q100.18 789.746 91.1854 805.315C87.3048 812.099 83.6136 819.144 79.2441 825.627C77.3879 828.381 74.1997 830.679 71.6826 832.842C63.2886 840.057 55.9855 847.221 51.4463 857.527C49.9817 860.852 48.5887 864.774 49.818 868.391C51.6707 873.843 87.7293 896.716 94.5256 901.356C101.398 905.15 107.737 909.88 114.543 913.795C131.674 923.645 154.891 932.318 174.746 934.006C178.206 934.301 183.088 934.366 185.787 931.838C188.118 929.655 189.487 926.146 189.371 922.975C188.949 911.514 176.221 906.042 167.998 900.5C164.621 898.225 161.567 895.698 158.563 892.955C170.21 888.164 182.936 885.062 194.998 881.469C210.552 876.835 225.911 871.835 241.352 866.861C247.906 864.75 255.559 863.628 261.798 860.861C262.922 860.362 262.897 860.224 263.347 859.127C264.501 867.271 265.678 879.052 270.656 885.714C273.333 889.297 277.148 891.292 281.564 891.768Q282.919 891.913 284.281 891.874Q285.643 891.835 286.988 891.613Q288.332 891.39 289.635 890.989Q290.937 890.587 292.173 890.014C297.719 887.497 302.725 883.274 307.603 879.669C318.467 871.64 328.994 863.279 339.56 854.865C345.732 849.739 352.135 844.856 358.156 839.556C365.837 832.794 392.029 808.289 392.929 798.828C393.156 796.441 392.038 794.218 390.454 792.501C387.198 788.97 381.594 786.641 376.771 787.36C370.367 788.316 364.614 792.765 359.175 795.981C343.488 805.258 324.641 813.578 306.197 812.565C304.489 802.072 302.132 791.584 300.132 781.132L291.576 735.604C309.531 730.696 327.823 726.678 345.901 722.233C371.657 715.899 397.326 709.264 423.202 703.408C430.055 701.858 437.146 701.506 443.958 699.92C445.491 699.564 447.188 699.043 448.346 697.92C450.738 695.6 450.303 691.467 450.376 688.404C455.677 686.151 461.647 684.946 467.219 683.48C478.607 680.485 490.07 677.759 501.425 674.646C543.366 663.147 585.297 650.804 627.659 640.963C634.337 643.266 641.069 646.442 647.939 648.063C650.279 648.615 652.299 648.397 654.629 647.949C667.666 645.446 680.62 641.2 693.509 637.893C712.638 632.985 732.414 628.704 751.183 622.607C753.052 622 754.704 621.235 756.357 620.158L852.054 636.783L884.732 642.007C894.732 643.598 905.224 645.027 914.846 648.271Z"/>
	<path fill="#C4BEFC" d="M627.659 640.963C634.337 643.266 641.069 646.442 647.939 648.063C650.279 648.615 652.299 648.397 654.629 647.949C667.666 645.446 680.62 641.2 693.509 637.893C712.638 632.985 732.414 628.704 751.183 622.607C753.052 622 754.704 621.235 756.357 620.158L852.054 636.783L884.732 642.007C894.732 643.598 905.224 645.027 914.846 648.271C917.45 654.493 920.518 659.23 924.714 664.464C923.257 669.216 921.971 674.961 919.1 679.053C914.187 686.056 898.918 692.203 904.497 702.248C906.77 706.34 910.517 709.746 913.732 713.105C914.302 724.336 913.425 734.544 916.363 745.619C919.566 752.183 923.823 756.023 930.663 758.628C926.646 762.4 922.128 762.757 916.941 763.263C910.688 758.381 902.854 756.337 896.785 751.528C892.584 748.198 892.035 745.11 891.528 740.1C889.139 713.003 878.911 687.124 857.62 669.357C838.965 653.79 813.594 646.581 789.486 648.87C769.014 650.813 748.369 658.258 734.943 674.513C725.256 686.242 719.336 702.712 720.788 718.003C721.317 723.581 722.903 729.447 725.138 734.581C728.81 743.013 734.933 751.14 734.721 760.84C734.477 772.061 717.985 780.705 727.991 788.741C730.683 790.904 734.147 792.326 737.26 793.786C738.122 812.931 738.955 835.45 754.07 849.189C756.688 851.568 759.583 853.614 762.536 855.555C740.955 869.915 730.036 891.877 716.837 913.325C705.499 896.317 692.418 886.108 671.998 882.108C658.862 879.534 646.154 880.646 632.978 881.788C649.763 854.964 675.046 817.404 683.168 786.964C686.486 774.528 687.539 760.51 684.566 747.903C679.29 725.53 661.906 707.27 642.784 695.574C619.6 681.393 590.943 675.748 564.324 682.143C545.934 686.561 526.952 699.201 516.987 715.484C512.982 722.028 510.616 730.138 512.408 737.77C514.133 745.119 518.959 750.48 524.506 755.249C521.587 763.304 518.405 775.735 513.296 782.392C510.747 785.713 507.098 788.48 504.06 791.364C501.791 793.517 498.347 796.543 499.93 800.015C502.358 805.337 510.617 807.342 512.286 813.056C517.024 829.282 497.74 856.872 523.502 865.175C537.557 869.705 549.759 871.12 557.319 885.599C559.372 889.531 560.93 893.835 562.21 898.078C553.764 901.254 545.23 904.174 537.007 907.907C503.301 923.212 477.843 946.951 462.385 980.897C456.009 994.9 451.376 1009.13 447.545 1024L0 1024L0 797.557Q31.5983 789.96 63.4039 783.285C78.5372 780.01 93.6355 776.454 108.939 774.042Q100.18 789.746 91.1854 805.315C87.3048 812.099 83.6136 819.144 79.2441 825.627C77.3879 828.381 74.1997 830.679 71.6826 832.842C63.2886 840.057 55.9855 847.221 51.4463 857.527C49.9817 860.852 48.5887 864.774 49.818 868.391C51.6707 873.843 87.7293 896.716 94.5256 901.356C101.398 905.15 107.737 909.88 114.543 913.795C131.674 923.645 154.891 932.318 174.746 934.006C178.206 934.301 183.088 934.366 185.787 931.838C188.118 929.655 189.487 926.146 189.371 922.975C188.949 911.514 176.221 906.042 167.998 900.5C164.621 898.225 161.567 895.698 158.563 892.955C170.21 888.164 182.936 885.062 194.998 881.469C210.552 876.835 225.911 871.835 241.352 866.861C247.906 864.75 255.559 863.628 261.798 860.861C262.922 860.362 262.897 860.224 263.347 859.127C264.501 867.271 265.678 879.052 270.656 885.714C273.333 889.297 277.148 891.292 281.564 891.768Q282.919 891.913 284.281 891.874Q285.643 891.835 286.988 891.613Q288.332 891.39 289.635 890.989Q290.937 890.587 292.173 890.014C297.719 887.497 302.725 883.274 307.603 879.669C318.467 871.64 328.994 863.279 339.56 854.865C345.732 849.739 352.135 844.856 358.156 839.556C365.837 832.794 392.029 808.289 392.929 798.828C393.156 796.441 392.038 794.218 390.454 792.501C387.198 788.97 381.594 786.641 376.771 787.36C370.367 788.316 364.614 792.765 359.175 795.981C343.488 805.258 324.641 813.578 306.197 812.565C304.489 802.072 302.132 791.584 300.132 781.132L291.576 735.604C309.531 730.696 327.823 726.678 345.901 722.233C371.657 715.899 397.326 709.264 423.202 703.408C430.055 701.858 437.146 701.506 443.958 699.92C445.491 699.564 447.188 699.043 448.346 697.92C450.738 695.6 450.303 691.467 450.376 688.404C455.677 686.151 461.647 684.946 467.219 683.48C478.607 680.485 490.07 677.759 501.425 674.646C543.366 663.147 585.297 650.804 627.659 640.963Z"/>
	<path fill="#9F8BE8" d="M339.56 854.865C339.748 855.001 339.932 855.144 340.126 855.273C341.81 856.395 345.535 856.291 347.542 856.514C357.06 857.572 387.428 858.496 390.265 869.212C390.789 871.192 390.626 872.898 389.575 874.678C385.466 881.632 373.019 886.001 365.772 888.97C352.258 894.506 337.907 898.79 323.958 903.073L275.739 917.743C264.741 921.047 253.931 924.96 242.945 928.294C218.503 935.713 193.254 942.604 168.305 948.088C135.639 955.268 94.7949 958.118 61.8804 951.088C55.149 949.651 47.7338 947.795 41.8764 944.024C39.9252 942.768 37.5708 940.846 37.0687 938.435C36.5225 935.813 37.9486 933.138 39.4204 931.049C46.8921 920.443 68.8439 911.96 81.1737 907.331C85.0337 905.882 91.7483 904.359 94.5256 901.356C101.398 905.15 107.737 909.88 114.543 913.795C131.674 923.645 154.891 932.318 174.746 934.006C178.206 934.301 183.088 934.366 185.787 931.838C188.118 929.655 189.487 926.146 189.371 922.975C188.949 911.514 176.221 906.042 167.998 900.5C164.621 898.225 161.567 895.698 158.563 892.955C170.21 888.164 182.936 885.062 194.998 881.469C210.552 876.835 225.911 871.835 241.352 866.861C247.906 864.75 255.559 863.628 261.798 860.861C262.922 860.362 262.897 860.224 263.347 859.127C264.501 867.271 265.678 879.052 270.656 885.714C273.333 889.297 277.148 891.292 281.564 891.768Q282.919 891.913 284.281 891.874Q285.643 891.835 286.988 891.613Q288.332 891.39 289.635 890.989Q290.937 890.587 292.173 890.014C297.719 887.497 302.725 883.274 307.603 879.669C318.467 871.64 328.994 863.279 339.56 854.865Z"/>
	<path fill="#9F8BE8" d="M822.743 1024C822.412 1020.4 822.493 1017.31 823.207 1013.75C830.826 975.744 849.516 947.313 881.835 925.875C912.026 905.849 953.234 891.263 987.769 880.665C997.375 877.717 1014.29 871.872 1024 873.838L1024 1024L822.743 1024Z"/>
	<path fill="#9F8BE8" d="M453.062 1024C462.679 984.737 482.991 945.673 518.416 924.044C547.971 905.999 580.798 897.328 614.513 890.979C633.998 887.31 654.406 883.652 674.009 888.52C693.392 893.332 704.949 904.057 714.935 920.923Q717.001 924.402 718.81 928.021C710.084 928.618 701.479 929.302 692.876 930.958C676.257 934.158 659.989 939.636 644.101 945.38C602.676 960.357 558.434 980.356 528.892 1014.16Q524.758 1018.94 520.966 1024L453.062 1024Z"/>
	<path fill="#9F8BE8" d="M568.917 1024C591.859 996.242 657.897 970.184 691.943 960.167C708.551 955.281 725.91 951.312 743.172 949.691C762.438 947.881 780.97 949.316 796.448 962.105C809.497 972.887 815.072 993.662 816.482 1009.84Q817.053 1016.92 817.525 1024L568.917 1024Z"/>
	<path fill="#C4BEFC" d="M527.893 1024C559.723 984.801 609.216 962.807 656.11 947.388C673.349 941.72 690.537 936.362 708.656 934.458C732.893 931.91 756.454 936.208 778.714 946.015C767.768 943.819 757.348 943.022 746.194 943.734C698.554 946.775 625.935 974.843 586.559 1001.15C578.009 1006.86 566.678 1014.89 561.454 1024L527.893 1024Z"/>
	<path fill="#9F8BE8" d="M930.663 758.628C935.068 759.844 939.553 760.937 943.906 762.319C950.6 774.821 958.13 782.527 972.026 786.696C974.759 787.516 977.535 787.993 980.358 788.383C946.001 802.763 924.357 816.237 904.707 849.03C897.961 846.394 891.899 844.561 884.7 843.547L885.15 843.314C889.296 841.188 893.673 839.588 897.791 837.392C912.16 829.73 925.022 818.463 930.191 802.64C933.006 794.024 932.866 785.46 928.701 777.304C925.833 771.686 921.651 767.368 916.941 763.263C922.128 762.757 926.646 762.4 930.663 758.628Z"/>
	<path fill="#C4BEFC" d="M1024 605.613C1023.8 605.423 1023.61 605.231 1023.4 605.044C1011.21 593.785 991.798 590.17 975.796 591.128C960.416 592.049 946.592 598.581 936.449 610.259C926.427 621.797 923.051 638.9 930.319 652.797C933.571 659.015 947.733 672.606 947.599 678.333C947.594 678.542 947.531 678.745 947.496 678.951L947.526 678.926L946.897 679.165C946.605 678.972 946.098 678.65 945.8 678.414C939.812 673.669 925.404 657.637 921.721 650.806C920.335 648.234 919.532 644.49 919.186 641.578C917.794 629.827 921.875 617.357 929.216 608.206C939.39 595.523 955.272 588 971.288 586.35C992.82 584.132 1007.54 589.418 1024 602.806L1024 605.613Z"/>
	<path fill="#C4BEFC" d="M1024 783.537L1024 785.29C1017.88 788.04 1011.4 790.062 1005.17 792.553C967.929 807.438 937.965 819.901 914.962 855.079C912.906 853.869 910.968 852.473 909.008 851.113C909.903 849.432 910.919 847.867 911.982 846.29C929.755 819.944 950.742 805.492 980.465 794.789C986.952 792.453 993.578 789.928 1000.26 788.225C1008.02 786.251 1016.14 785.076 1024 783.537Z"/>
	<path fill="#9F8BE8" d="M1024 843.575L1024 863.261C1021.63 862.07 1019 861.243 1016.52 860.302C1018.59 854.539 1021.3 849.059 1024 843.575Z"/>
	<path fill="#563689" d="M731.791 736.115C725.265 723.75 724.431 710.32 728.592 697.023C733.153 682.448 744.742 670.019 758.187 663.108C778.967 652.425 804.56 651.498 826.524 658.735C848.115 665.849 865.072 679.843 875.164 700.264Q878.307 706.632 880.616 713.348Q882.925 720.064 884.364 727.018C886.902 739.31 883.701 752.804 897.382 759.292C897.547 759.326 897.716 759.344 897.877 759.395C908.461 762.735 919.9 771.505 924.238 781.93C927.256 789.183 926.839 797.443 923.947 804.658C918.392 818.519 901.727 830.649 888.444 836.444Q890.157 832.894 891.624 829.235C894.82 821.195 895.676 813.712 895.479 805.122C895.439 803.355 895.552 800.581 894.671 799.024C893.928 797.712 893.577 797.614 892.243 797.092C889.179 797.519 889.588 799.118 889.593 801.773C889.626 818.488 888.368 828.476 876.857 841.506C866.486 844.982 850.635 845.303 839.537 845.892C842.73 840.017 845.471 834.274 847.22 827.793C848.526 822.952 851.742 812.509 849.11 807.891C847.717 807.144 847.48 807.247 845.884 807.411C845.523 807.665 845.061 807.817 844.8 808.173C843.265 810.266 843.449 817.055 842.925 819.886C842.331 823.092 841.403 826.343 840.361 829.43C836.723 840.21 830.097 850.735 819.558 855.818C807.046 861.853 789.764 860.628 776.981 856.09C766.885 852.506 754.594 844.506 750.103 834.369C741.813 815.657 766.165 802.966 776.614 792.453C780.669 788.373 783.987 783.492 785.986 778.082C788.482 771.328 789.287 761.712 786.091 755.102C784.658 752.136 781.98 749.409 778.773 748.423C776.786 747.812 774.794 748.163 773.046 749.252C768.183 752.281 766.668 757.77 765.42 762.959C763.973 762.617 762.522 762.263 761.109 761.799C750.233 758.223 736.834 746.298 731.791 736.115Z"/>
	<path fill="#9F8BE8" d="M731.791 736.115C725.265 723.75 724.431 710.32 728.592 697.023C733.153 682.448 744.742 670.019 758.187 663.108C778.967 652.425 804.56 651.498 826.524 658.735C848.115 665.849 865.072 679.843 875.164 700.264Q878.307 706.632 880.616 713.348Q882.925 720.064 884.364 727.018C886.902 739.31 883.701 752.804 897.382 759.292L895.988 759.72C884.805 757.605 883.424 740.662 881.542 731.681Q880.238 725.195 877.869 719.018C872.871 706.051 864.772 693.984 854.071 685.036Q853.205 684.315 852.323 683.615Q851.44 682.916 850.54 682.237Q849.641 681.559 848.725 680.903Q847.809 680.247 846.878 679.614Q845.947 678.98 845 678.369Q844.054 677.758 843.092 677.171Q842.131 676.583 841.156 676.019Q840.181 675.455 839.193 674.915Q838.204 674.374 837.203 673.858Q836.202 673.342 835.188 672.85Q834.175 672.359 833.149 671.892Q832.124 671.425 831.088 670.983Q830.052 670.541 829.005 670.125Q827.958 669.708 826.902 669.317Q825.845 668.926 824.78 668.561Q823.714 668.196 822.64 667.857Q821.566 667.518 820.484 667.205Q819.401 666.891 818.312 666.605Q817.223 666.318 816.127 666.058Q815.031 665.798 813.929 665.565Q812.827 665.331 811.719 665.125Q810.612 664.918 809.5 664.739Q808.388 664.559 807.271 664.406Q806.155 664.254 805.036 664.128Q803.916 664.003 802.794 663.905Q801.672 663.807 800.548 663.736Q799.423 663.665 798.298 663.622Q797.172 663.578 796.046 663.562Q794.919 663.546 793.793 663.557Q792.666 663.568 791.541 663.607Q790.415 663.645 789.29 663.711Q788.166 663.777 787.043 663.87C769.98 665.442 753.216 671.914 742.13 685.483C733.735 695.758 729.7 709.59 730.235 722.757C730.409 727.031 731.305 730.996 731.708 735.184L731.791 736.115Z"/>
	<path fill="#9F8BE8" d="M874.195 848.701C876.26 848.465 878.525 848.526 880.598 848.649C900.135 849.809 911.962 858.968 924.43 873.032L921.811 873.965C872.975 891.434 829.372 914.502 806.193 963.511C800.138 955.239 793.237 949.226 784.677 943.66C765.536 932.488 746.172 929.45 724.531 927.43C723.273 924.531 722.048 921.791 720.303 919.141C728.977 903.956 742.141 880.469 754.696 868.864C759.019 864.867 763.792 861.913 768.905 859.038C778.479 863.836 790.081 865.781 800.719 865.596C814.593 865.356 825.641 860.872 835.204 850.878C848.284 851.329 861.208 850.062 874.195 848.701Z"/>
	<path fill="#9F8BE8" d="M581.672 685.203C600.845 683.479 622.615 689.602 638.958 699.501C656.523 710.14 674.166 728.073 679.138 748.582C681.64 758.9 681.325 770.416 679.031 780.744C671.722 813.642 643.679 853.572 625.843 882.763Q596.138 887.962 567.145 896.256C561.9 874.638 551.617 867.2 530.853 861.605C527.007 860.568 522.453 859.731 519.468 856.909C511.056 848.956 518.942 826.601 518.248 815.862C517.619 806.127 511.648 803.709 505.15 798.144C507.837 795.206 511.019 792.765 513.662 789.74C521.557 780.707 525.042 768.725 528.91 757.612L534.369 759.689C532.655 767.557 531.102 774.987 533.021 782.982C534.752 790.198 538.504 795.249 544.749 799.104C550.712 797.584 561.218 787.741 565.479 788.515C566.66 788.729 567.512 789.676 568.093 790.667C570.55 794.853 569.226 802.106 567.991 806.472C565.739 813.42 562.888 816.836 556.637 820.585C555.37 829.95 557.647 839.968 561.676 848.438C567.912 861.547 580.594 872.546 594.282 877.241C601.244 879.629 614.121 882.106 620.896 878.44C628.708 874.213 654.634 823.487 659.414 813.035Q663.707 803.564 666.864 793.657C673.115 774.094 673.527 756.088 663.888 737.607C653.078 716.883 635.884 702.336 613.581 695.403Q612.594 695.101 611.601 694.823Q610.607 694.546 609.607 694.293Q608.607 694.039 607.601 693.811Q606.594 693.582 605.583 693.378Q604.572 693.174 603.556 692.995Q602.539 692.816 601.519 692.662Q600.499 692.508 599.475 692.379Q598.452 692.25 597.425 692.146Q596.399 692.042 595.37 691.963Q594.341 691.884 593.311 691.831Q592.281 691.777 591.249 691.749Q590.218 691.72 589.186 691.717Q588.154 691.714 587.123 691.737Q586.091 691.759 585.061 691.806Q584.03 691.854 583.001 691.927Q581.972 691.999 580.945 692.097Q579.917 692.195 578.893 692.318Q577.869 692.441 576.848 692.589Q575.827 692.738 574.809 692.911Q573.792 693.084 572.78 693.282Q571.767 693.48 570.76 693.702Q569.752 693.925 568.751 694.172Q567.749 694.42 566.754 694.691Q565.758 694.963 564.77 695.259Q563.782 695.555 562.801 695.876Q561.82 696.196 560.847 696.54Q559.875 696.884 558.911 697.252Q557.947 697.62 556.992 698.011Q556.038 698.403 555.093 698.817Q554.148 699.232 553.214 699.67Q552.279 700.107 551.356 700.568Q550.433 701.028 549.521 701.511C538.898 707.15 526.984 716.655 523.574 728.735C518.468 746.826 534.857 748.072 537.707 753.253L537.154 754.108C536.965 754.144 536.778 754.195 536.587 754.216C533.274 754.58 529.795 752.974 527.23 751.001C521.937 746.93 518.023 740.216 517.419 733.562C516.682 725.453 520.826 717.962 525.947 712.005C540.508 695.067 559.736 686.751 581.672 685.203Z"/>
	<path fill="#C4BEFC" d="M988.825 861.705C1000.37 860.3 1012.79 862.636 1022.58 868.879C999.504 868.819 969.944 879.968 948.506 887.865Q927.528 895.654 907.444 905.522C870.104 923.441 845.392 942.189 827.512 980.896C824.932 986.967 823.008 993.284 820.972 999.553C819.185 988.778 814.797 978.87 809.833 969.242C815.168 957.573 820.981 947.213 829.157 937.256C839.012 925.253 851.479 914.932 864.623 906.668C892.81 888.947 955.783 864.9 988.825 861.705Z"/>
	<path fill="#9F8BE8" d="M929.023 668.868C935.003 674.694 942.246 684.38 948.941 688.705Q950.041 686.835 951.203 685.002C952.659 682.738 954.389 680.737 957.172 680.242C959.198 679.881 961.816 680.313 963.43 681.604C965.437 683.21 966.421 685.687 966.697 688.172C968.874 707.761 953.753 705.29 945.336 716.227C939.418 723.918 937.961 733.063 939.098 742.508C939.955 747.087 941.257 751.512 942.549 755.981C940.063 755.426 937.542 754.905 935.096 754.193C918.216 749.279 919.431 735.55 919.561 721.259C919.592 717.862 919.749 714.241 918.684 710.968C917.305 706.73 911.783 704.748 909.747 700.69C906.437 694.094 919.407 688.283 922.562 683.762C925.676 679.299 927.266 673.963 929.023 668.868Z"/>
	<path fill="#9F8BE8" d="M739.388 753.745C746.48 757.625 756.747 769.1 765.698 768.085C772.357 767.33 770.652 759.295 774.301 755.928C775.214 755.086 776.039 754.943 777.225 754.964C778.4 754.985 779.063 755.444 779.81 756.323C782.224 759.161 782.722 764.654 782.367 768.191C781.189 779.938 773.491 787.817 764.768 794.904C756.785 801.256 750.451 807.139 745.2 815.921C743.7 807.226 743.289 798.403 742.19 789.652C739.16 788.527 735.334 787.374 732.756 785.423C731.647 784.583 730.609 783.42 730.692 781.933C730.988 776.631 741.726 773.056 739.388 753.745Z"/>
	<path fill="#C4BEFC" d="M0 0L751.021 0L751.14 616.697L686.657 633.807C676.443 636.504 666.245 639.439 655.939 641.752L656.023 228.754L656.018 102.539C655.982 84.7257 656.47 66.8019 655.99 49.0011C655.939 47.1012 656.062 45.8262 654.992 44.2065C652.832 43.4463 650.406 43.9246 648.197 44.2923C629.824 47.3503 611.491 51.3243 593.197 54.8601L513.454 69.7931L460.466 79.6734C451.241 81.403 441.287 82.5747 432.348 85.3297C430.946 87.0965 430.961 89.1162 430.871 91.2867C430.074 110.398 430.878 129.808 430.826 148.956L430.589 273.154L430.454 695.896C383.667 706.638 337.291 719.453 290.388 729.59Q284.296 693.831 277.047 658.288C274.538 645.87 272.601 633.126 269.116 620.944C285.844 587.343 307.426 536.768 310.902 499.697C313.533 497.185 316.236 494.745 318.471 491.862C323.547 501.172 333.029 522.332 340.88 528.509C342.118 529.484 343.707 529.902 345.188 530.362C349.552 531.719 354.197 538.093 357.905 541.117C360.284 543.058 362.864 544.721 365.447 546.374C365.642 550.753 366.241 555.976 365.052 560.255C364.409 562.568 362.343 565.258 362.196 567.564C362.086 569.299 362.526 570.481 363.75 571.676C364.964 572.86 366.436 573.406 368.124 573.332C372.769 573.129 375.92 569.402 380.697 569.688C383.955 569.883 386.317 568.606 388.674 566.408C391.017 564.224 392.753 561.529 395.001 559.275C396.577 557.696 398.579 556.494 400.036 554.808C403.993 550.23 405.615 542.384 405.686 536.498C405.788 528.024 403.142 520.371 397.079 514.29C390.984 508.177 383.362 503.141 376.397 498.056C376.155 490.528 372.682 483.025 370.078 476.034C364.324 460.584 351.965 431.76 350.996 416.303C350.593 409.885 351.29 403.276 351.887 396.881C354.056 373.663 359.589 351.024 361.9 327.823C362.63 320.489 363.763 312.24 361.879 305.023C360.432 299.478 356.621 294.943 352.505 291.124C339.253 278.83 322.533 271.038 305.353 266.021C305.126 263.965 304.889 261.936 304.862 259.865C315.282 257.26 326.525 255.233 332.483 245.184C335.29 240.449 336.822 234.922 338.308 229.662C341.882 231.042 345.161 232.145 348.926 230.417C350.657 229.623 351.863 228.205 352.456 226.403C353.413 223.493 352.889 220.246 351.487 217.578C349.747 214.266 346.98 211.99 344.199 209.594C350.347 202.902 355.602 197.729 355.359 187.819C355.131 178.577 350.158 169.861 343.422 163.756C331.119 152.606 313.609 148.623 297.42 149.531C284.007 150.283 270.564 153.892 261.378 164.288C253.395 173.322 248.577 187.439 249.404 199.471C250.647 217.548 260.941 230.607 268.31 246.29C263.161 246.859 259.003 247.582 255.57 251.93C253.509 254.539 252.05 257.588 250.898 260.691C232.685 262.711 219.97 270.245 208.601 284.482C204.167 290.035 200.129 295.902 195.702 301.466C181.432 319.403 160.171 344.052 151.567 364.686C147.684 373.996 145.707 384.423 146.887 394.488C148.996 412.476 159.706 433.714 172.573 446.376Q167.935 460.436 164.359 474.802C162.646 481.559 161.256 488.568 159.196 495.216C156.927 502.532 152.113 508.851 150.85 516.561C150.109 521.082 151.031 525.709 153.149 529.745C156.839 536.777 163.741 541.386 170.166 545.698C171.891 567.434 176.581 594.73 185.351 614.686C180.174 628.04 175.485 641.534 169.91 654.734Q157.544 683.697 143.286 711.778Q129.029 739.859 112.943 766.934C88.6637 772.535 64.2437 777.363 39.9187 782.725C26.7056 785.637 13.3494 789.773 0 791.762L0 0Z"/>
	<path fill="#9F8BE8" d="M756.613 0L1024 0L1024 595.726C1008.7 583.324 990.217 578.689 970.691 580.787C953.255 582.66 935.692 591.034 924.641 604.908C916.223 615.477 912.518 629.928 914.054 643.288Q914.326 645.799 914.846 648.271C905.224 645.027 894.732 643.598 884.732 642.007L852.054 636.783L756.357 620.158C756.984 612.713 756.708 604.991 756.747 597.517L756.834 556.655L756.782 431.914L756.613 0Z"/>
	<path fill="#C4BEFC" d="M198.842 755.831C207.185 753.387 215.668 751.457 224.119 749.425L242.686 811.255C245.683 821.347 249.258 837.542 254.267 846.334C255.991 849.36 259.413 851.599 262.157 853.634L263.347 859.127C262.897 860.224 262.922 860.362 261.798 860.861C255.559 863.628 247.906 864.75 241.352 866.861C225.911 871.835 210.552 876.835 194.998 881.469C182.936 885.062 170.21 888.164 158.563 892.955C145.317 882.567 139.162 867.85 129.972 854.403C143.604 839.78 154.547 823.69 165.689 807.151Q182.932 781.921 198.842 755.831Z"/>
	<path fill="#9F8BE8" d="M625.955 66.2039C625.992 66.2397 626.04 66.2668 626.066 66.3112C626.422 66.9131 626.481 67.4906 626.492 68.1737C626.753 84.8596 626.37 101.622 626.327 118.315L626.078 226.821L625.985 635.486C597.541 642.221 569.478 650.285 541.271 657.902Q495.498 669.857 449.994 682.799C448.983 660.375 449.748 637.652 449.69 615.197Q449.19 545.409 449.853 475.623L449.752 100.484C508.556 89.4168 567.052 76.8112 625.955 66.2039Z"/>
	<path d="M601.966 91.6407C603.196 91.6502 603.95 91.9245 605.074 92.4101C606.384 93.8154 606.622 94.8738 606.747 96.7825C607.436 107.295 606.955 118.049 606.958 128.595L606.968 187.466L607.037 261.42C607.129 276.876 607.639 292.404 607.244 307.854C595.922 312.495 581.267 314.69 569.267 317.654L474.242 340.526C472.618 340.789 471.32 341.151 469.766 340.407C468.636 338.892 468.644 337.749 468.584 335.846C468.144 321.927 468.594 307.892 468.568 293.957L468.516 201.311L468.514 149.989C468.507 139.937 467.952 129.55 469.016 119.558C472.588 116.567 587.826 94.4382 601.966 91.6407Z"/>
	<path fill="#9F8BE8" d="M598.965 98.1715C599.684 98.0365 600.098 98.1196 600.809 98.2387C601.443 99.5138 601.425 100.822 601.465 102.215C601.64 108.324 601.344 114.48 601.339 120.595L601.39 164L601.643 303.851C588.464 307.282 575.125 310.137 561.876 313.283L476.627 333.715L474.961 333.952C474.791 333.735 474.551 333.557 474.451 333.3C473.726 331.429 474.361 293.893 474.361 289.066L474.287 123.308Q536.534 110.286 598.965 98.1715Z"/>
	<path d="M602.025 410.635C603.474 410.426 604.493 410.354 605.95 410.709C606.842 411.643 607.214 412.142 607.307 413.467C607.8 420.507 607.354 427.89 607.338 434.96L607.161 480.241L607.045 617.093C596.101 622.124 577.527 625.748 565.489 629.048Q519.68 641.814 473.622 653.651C473.22 653.706 472.63 653.804 472.238 653.774C471.222 653.695 470.459 653.402 469.971 652.463C469.064 650.72 469.166 647.671 469.126 645.711Q468.232 572.487 468.62 499.259L468.598 459.293C468.579 451.437 467.851 442.741 469.158 434.98C473.642 433.316 478.889 432.788 483.6 431.906Q498.302 429.149 513.04 426.593L602.025 410.635Z"/>
	<path fill="#9F8BE8" d="M599.827 416.607L600.882 416.696C602.502 419.371 601.484 591.078 601.587 613.392C559.935 625.209 517.835 635.572 476.165 647.367L475.307 647.272C474.225 644.778 474.551 460.334 474.476 439.608C482.099 438.09 489.852 437.013 497.507 435.616C531.587 429.4 565.929 423.723 599.827 416.607Z"/>
	<path fill="#563689" d="M257.35 500.179C273.418 502.745 289.511 505.835 305.705 502.565C295.17 553.477 273.252 600.53 250.514 646.964C234.6 679.461 218.633 711.929 200.281 743.147C188.488 763.206 175.464 782.49 162.446 801.761C152.157 816.992 142.157 832.39 130.27 846.452C127.771 849.038 125.246 850.442 121.976 851.785Q119.228 851.156 116.504 850.429Q115.283 850.089 114.081 849.69Q112.878 849.291 111.697 848.833Q110.515 848.376 109.357 847.862Q108.199 847.348 107.068 846.778Q105.936 846.208 104.834 845.583Q103.731 844.959 102.66 844.281Q101.589 843.604 100.553 842.875Q99.5164 842.147 98.5166 841.368Q97.5168 840.59 96.5561 839.764Q95.5953 838.938 94.6759 838.066Q93.7566 837.194 92.8807 836.279Q92.0049 835.363 91.1747 834.406Q90.3445 833.449 89.5618 832.453Q88.7792 831.456 88.046 830.423Q87.3128 829.389 86.6308 828.322Q85.9488 827.254 85.3196 826.154C88.3681 819.574 92.773 813.222 96.4869 806.974Q107.401 788.686 117.936 770.176C150.34 712.33 181.627 650.851 201.194 587.335C204.756 575.772 208.786 563.772 210.714 551.817C223.893 549.898 240.236 545.943 250.753 537.294C253.947 526.377 255.749 511.657 257.35 500.179Z"/>
	<path fill="#FEFEFE" d="M254.837 265.035C279.251 263.488 310.141 270.783 331.235 282.745C339.568 287.471 351.264 294.91 355.474 303.935C361.084 315.961 351.178 360.759 348.895 375.998C347.041 388.371 344.463 406.049 345.741 418.351C346.634 426.951 349.73 435.366 352.525 443.492C355.017 450.735 357.403 458.03 360.122 465.192C363.938 475.244 368.135 485.146 370.97 495.537C369.801 498.277 368.576 500.948 367.105 503.542C362.045 512.464 355.162 521.952 344.887 524.751C332.161 511.214 315.52 471.272 307.775 453.122C303.544 442.668 299.277 431.779 297.653 420.569C296.269 411.009 297.661 401.843 298.493 392.326C299.873 376.539 301.797 360.961 303.773 345.239C304.807 337.01 307.167 327.931 306.77 319.662C305.973 318.427 305.881 318.428 304.494 317.906C302.197 318.953 301.624 321.146 301.224 323.516C300.163 329.793 299.827 336.445 297.958 342.543C296.454 347.449 293.407 352.643 291.133 357.303C283.648 372.643 275.43 387.511 267.092 402.396C260.961 413.343 255.349 424.67 248.737 435.328C245.825 418.063 241.069 401.06 238.517 383.741C235.902 365.998 235.794 347.973 235.831 330.086C235.855 318.735 235.649 307.345 237.464 296.1C238.657 288.708 240.766 281.238 244.397 274.654C246.895 270.126 249.727 266.474 254.837 265.035Z"/>
	<path fill="#9F8BE8" d="M649.953 52.5783C650.828 53.6223 650.41 56.8872 650.39 58.1933C649.404 122.127 650.104 186.166 650.129 250.107L650.001 642.645C645.345 641.148 640.736 639.465 636.115 637.862L631.577 636.711L631.88 297.615C632.015 220.528 631.229 143.389 632.19 66.3113Q640.662 58.9154 649.953 52.5783Z"/>
	<path fill="#563689" d="M265.03 629.786C268.712 639.59 270.084 653.053 272.207 663.57Q282.211 714.268 291.116 765.171Q293.704 779.512 296.74 793.765C298.215 800.914 300.389 809.18 300.586 816.477C300.783 823.813 294.469 834.122 289.48 839.207C284.689 844.09 276.129 849.646 269.092 849.552C265.62 849.505 262.772 848.047 260.427 845.537C254.836 836.44 252.767 824.755 249.662 814.596L230.554 752.231C227.206 741.064 224.724 729.424 220.288 718.63C227.05 707.359 232.898 695.548 238.87 683.847C247.942 666.075 256.944 648.024 265.03 629.786Z"/>
	<path fill="#FEFEFE" d="M226.905 274.033C226.598 277.83 220.268 288.809 219.235 295.17C217.218 307.604 217.22 320.902 216.796 333.501C216.63 338.447 216.803 343.652 216.082 348.548C215.04 355.626 208.644 366.87 206.431 374.997C202.502 389.428 202.161 409.383 200.987 424.609C189.295 427.595 183.19 432.39 175.313 441.332C171.537 437.207 168.433 432.498 165.398 427.818C157.457 414.651 150.153 397.73 152.262 382.043C153.255 374.657 155.883 366.84 159.446 360.3C169.11 342.56 187.74 320.34 200.512 304.17C205.744 297.547 210.354 290.371 215.986 284.079C219.326 280.348 222.929 277.069 226.905 274.033Z"/>
	<path fill="#9F8BE8" d="M205.093 429.668C214.705 428.924 225.394 431.667 234.216 435.282C224.746 448.713 224.099 469.072 221.907 484.982C221.077 491.004 220.464 497.567 217.534 502.991C210.78 507.719 201.805 509.471 193.714 509.517C182.74 508.855 172.902 505.687 164.129 498.976C166.521 484.859 173.28 453.393 181.911 442.442C187.884 434.864 195.589 430.84 205.093 429.668Z"/>
	<path fill="#FEFEFE" d="M292.125 394.365C292.586 396.554 291.995 399.658 291.852 401.948C291.436 408.594 290.833 415.424 292.086 422.014C294.932 436.985 300.928 452.11 307.111 465.991C310.079 472.654 313.597 479.315 315.994 486.195L316.218 486.848Q313.907 489.821 311.128 492.362C303.139 499.624 292.411 498.342 282.466 497.94C274.345 497.201 266.386 495.763 258.377 494.272C258.812 482.258 261.994 464.399 258.474 453.154Q276.083 424.208 292.125 394.365Z"/>
	<path fill="#9F8BE8" d="M247.017 446.318C247.096 446.395 247.18 446.467 247.255 446.548C252.131 451.809 254.094 457.452 254.174 464.521Q254.235 474.906 253.361 485.254C252.709 492.9 248.147 530.989 244.316 534.632C241.863 536.964 238.011 538.172 234.874 539.322C221.539 544.21 207.496 547.408 193.211 546.236C180.299 545.177 168.329 540.129 159.845 530.09C158.915 528.605 157.99 527.129 157.397 525.472C154.732 518.028 158.337 510.35 161.379 503.642C164.233 505.958 167.207 507.993 170.508 509.628C184.79 516.706 200.565 516.219 215.364 511.206C215.993 512.508 216.636 513.816 217.487 514.991C219.356 517.572 222.042 519.492 225.244 519.891C228.307 520.273 231.525 519.199 233.93 517.301C241.45 511.366 245.702 458.958 247.017 446.318Z"/>
	<path fill="#FEFEFE" d="M81.9773 831.912C83.7336 832.962 88.3077 839.602 90.6606 841.792C99.7382 850.241 112.68 857.946 125.485 857.432C127.083 859.766 128.459 862.241 129.87 864.69C126.564 867.24 119.835 871.557 118.765 875.716L119.44 876.214C124.022 875.864 128.583 872.052 132.309 869.562C134.245 872.33 136.059 875.119 137.788 878.022Q137.057 878.46 136.335 878.914C133.929 880.418 129.497 883.486 129.259 886.596C129.171 887.741 129.508 888.152 130.201 888.925C133.461 888.51 136.538 884.007 139.919 882.838C140.331 882.928 140.783 882.909 141.154 883.109C142.359 883.757 144.471 886.893 145.495 888.011Q150.652 893.626 156.443 898.585C163.134 904.384 170.192 908.935 177.703 913.557C179.829 915.048 181.418 916.684 183.129 918.603C174.773 918.229 166.939 916.513 158.897 914.319C151.154 912.206 143.527 909.922 136.26 906.458C117.653 897.587 95.0609 879.128 77.2827 867.052C71.1497 862.887 65.9597 858.231 59.2648 854.852C65.2268 845.45 73.2279 838.612 81.9773 831.912Z"/>
	<path fill="#FEFEFE" d="M376.153 793.087C377.876 792.968 379.639 792.775 381.116 793.752C381.057 794.073 381.032 794.403 380.938 794.715C380.007 797.807 374.303 802.666 371.952 804.997Q352.357 824.344 330.793 841.47C323.683 847.015 316.202 852.093 308.96 857.469C300.852 863.488 292.484 870.555 283.55 875.219C280.48 876.822 276.877 878.175 273.445 877.078C270.361 872.316 269.285 860.977 268.201 855.046L274.279 853.957C277.495 853.162 280.633 852.175 283.584 850.649C296.333 844.056 302.643 831.23 306.866 818.191C308.248 818.305 310.668 818.27 311.828 818.959C317.947 822.595 311.254 831.655 312.861 836.557C313.784 837.242 313.972 837.199 315.137 837.258C316.012 836.831 316.473 836.539 317.035 835.709C320.049 831.266 319.462 822.828 318.652 817.878L329.478 815.246C329.172 817.856 328.602 820.801 328.821 823.418C328.943 824.883 329.276 826.338 330.421 827.259L331.368 826.847C334.621 822.727 334.78 818.301 334.881 813.302C342.574 810.707 350.289 807.529 357.365 803.526C363.623 799.987 369.387 795.647 376.153 793.087Z"/>
	<path fill="#FEFEFE" d="M373.59 503.331C383.403 509.612 396.863 518.079 399.444 530.247C401.082 537.971 399.653 545.056 395.347 551.613C395.784 546.08 396.102 540.471 395.029 534.986C394.585 532.717 394.06 530.302 392.034 528.94C390.787 528.797 390.586 528.822 389.439 529.329C387.614 532.978 389.985 539.64 389.95 543.899C389.905 549.431 388.856 554.594 387.321 559.885C385.498 561.813 383.347 563.303 381.221 564.875C383.348 560.979 384.399 557.568 385.09 553.218C385.118 548.646 384.815 543.792 382.961 539.549C381.582 538.901 381.308 539.181 379.875 539.555C377.036 542.399 381.804 554.273 377.006 561.97C374.931 565.298 372.086 566.62 368.407 567.502C371.492 559.751 372.163 550.923 369.572 542.936C367.218 540.753 364.26 538.995 361.696 537.042C358.258 534.423 355.309 531.471 352.348 528.331C361.384 525.165 369.09 511.249 373.59 503.331Z"/>
	<path fill="#FEFEFE" d="M331.567 207.491C334.202 207.995 336.578 209.571 338.859 210.908C336.869 218.414 330.926 239.068 326.467 244.524C320.848 251.399 309.519 253.281 301.194 254.293C296.094 251.791 290.993 250.09 285.501 248.65L283.858 248.391C281.12 247.957 275.909 247.771 274.233 245.46C274.229 244.377 274.527 243.537 274.866 242.517C277.481 241.274 284.315 242.881 288.018 242.055C298.404 239.739 303.202 231.168 308.55 222.945C313.173 221.188 315.56 216.641 319.754 214.86C320.571 215.048 321.612 215.393 322.442 215.387C325.597 215.363 324.644 210.931 326.519 209.117C328.309 208.926 329.557 208.618 331.141 207.736C331.285 207.656 331.425 207.572 331.567 207.491Z"/>
	<path d="M319.901 224.832C321.871 225.194 323.827 225.621 325.225 227.173C326.167 228.218 326.595 229.549 326.469 230.948C326.206 233.869 324.187 235.619 322.069 237.378C321.292 237.586 320.272 237.961 319.475 237.966C318.66 237.97 318.096 237.79 317.499 237.255C316.449 236.316 316.108 235.15 316.092 233.776C316.052 230.282 317.491 227.252 319.901 224.832Z"/>
	<path fill="#9F8BE8" d="M241.107 267.917C241.293 268.037 241.609 268.064 241.665 268.279C241.715 268.47 237.148 277.441 236.756 278.451C232.759 288.76 230.932 299.296 230.472 310.306C229.433 335.208 229.592 361.468 233.207 386.204C234.218 393.121 235.936 400.004 237.374 406.848C239.432 416.643 241.346 426.458 243.534 436.228C242.218 434.741 241.053 433.112 239.854 431.531C239.061 430.219 238.277 428.89 237.626 427.501C234.911 421.711 233.274 415.236 231.526 409.098C222.989 379.112 221.089 349.798 222.844 318.82C223.486 307.488 224.013 295.832 227.94 285.069C230.546 277.925 233.927 271.285 241.107 267.917Z"/>
	<path fill="#563689" d="M175.961 548.166C185.684 551.275 194.72 552.271 204.861 552.279C202.257 566.344 197.482 580.195 192.94 593.727C191.632 598.429 189.941 603.055 188.391 607.684C182.919 593.582 176.508 563.271 175.961 548.166Z"/>
	<path fill="#FEFEFE" d="M216.91 361.955C218.111 363.639 218.761 372.679 219.152 375.439C220.261 383.282 222.034 391.092 223.757 398.826C226.03 409.029 229.08 418.858 232.471 428.738C229.972 427.908 227.408 427.208 224.885 426.45C218.793 425.156 212.669 424.374 206.47 423.839C206.59 418.085 207.243 412.266 207.689 406.525C209.012 389.473 210.404 378.039 216.91 361.955Z"/>
	<path fill="#FEFEFE" d="M56.923 860.51C63.9984 862.79 71.2219 869.631 77.397 873.92Q91.6351 883.734 105.772 893.693C114.414 899.806 123.066 906.395 132.56 911.142C147.621 918.673 166.442 922.985 183.189 924.225L183.507 925.233C183.141 926.455 182.807 927.011 181.913 927.921C178.851 928.389 176.015 928.364 172.954 928.025C166.406 927.3 160.035 925.531 153.721 923.713C145.818 921.437 137.917 919.021 130.414 915.621C112.571 907.536 88.5556 890.652 72.2253 879.083C67.041 875.41 59.14 871.912 55.1939 867.006C54.606 864.594 55.822 862.584 56.923 860.51Z"/>
	<path fill="#9F8BE8" d="M237.576 439.223C239.719 440.873 240.988 446.165 241.288 448.885C242.111 456.349 234.06 509.287 230.937 512.311C229.163 514.028 227.093 513.925 224.774 514.042C223.129 513.261 221.574 512.292 220.967 510.468C220.306 508.482 225.339 498.115 225.967 494.943C229.555 476.82 228.763 455.802 237.576 439.223Z"/>
	<path fill="#FEFEFE" d="M386.761 796.878C387.283 797.62 387.314 798.098 387.471 798.975C386.429 802.834 382.513 806.725 379.916 809.698C361.667 830.591 340.084 847.525 318.118 864.298C310.297 870.269 302.611 876.749 294.299 882.016C288.534 885.668 284.63 886.707 277.967 885.178L276.519 884.121C276.559 883.902 276.479 883.617 276.64 883.463C277.762 882.385 284.86 881.091 287.152 879.658C296.251 873.97 304.294 867.216 312.934 860.926C318.137 857.139 323.709 853.866 328.869 850.026C336.709 844.19 344.244 837.598 351.653 831.218C363.953 820.626 376.673 809.656 386.761 796.878Z"/>
	<path fill="#9F8BE8" d="M296.311 358.882C296.75 364.135 295.101 375.126 293.396 379.949C291.321 385.818 258.891 444.636 255.483 446.328L254.832 445.791L252.104 441.128C263.042 421.699 273.767 401.978 284.245 382.296C288.37 374.547 292.068 366.566 296.311 358.882Z"/>
	<path fill="#C4BEFC" d="M263.215 252.14C273.613 252.126 285.378 253.288 295.029 257.293C296.9 258.069 299.582 259.659 300.247 261.688C300.497 262.449 300.222 262.615 299.904 263.279C298.36 264.019 297.559 263.717 295.882 263.529C282.859 261.386 270.483 260.001 257.261 259.95C258.82 256.693 260.413 254.447 263.215 252.14Z"/>
	<path fill="#C4BEFC" d="M216.615 725.808C219.03 729.491 221.259 739.49 222.689 744.121C217.97 745.01 213.275 746.281 208.599 747.385L203.424 748.421C207.58 740.781 211.802 733.056 216.615 725.808Z"/>
	<defs>
		<linearGradient id="gradient_0" gradientUnits="userSpaceOnUse" x1="328.7178" y1="169.39977" x2="333.7767" y2="164.00713">
			<stop offset="0" stop-color="#FEFFFE"/>
			<stop offset="1" stop-color="#F6F1FF"/>
		</linearGradient>
	</defs>
	<path fill="url(#gradient_0)" d="M306.471 155.216C318.051 155.41 328.4 158.903 337.485 166.23C345.101 172.372 348.974 179.963 350.025 189.619C348.184 186.753 347.043 183.183 345.347 180.162C339.971 170.588 330.824 163.391 320.564 159.614C316.107 157.973 311.17 157.428 306.876 155.415C306.74 155.351 306.606 155.283 306.471 155.216Z"/>
	<path fill="#FEFEFE" d="M316.761 201.649C317.707 201.707 319.159 201.714 320.025 202.079C321.242 202.592 321.298 203.126 321.698 204.262C320.979 207.848 316.549 210.009 313.958 212.228C312.476 213.496 311.222 215.171 309.977 216.669L309.298 217.233L308.024 216.962C307.564 216.394 307.173 215.874 306.961 215.159C306.161 212.465 306.957 208.917 308.389 206.56C310.331 203.363 313.278 202.394 316.761 201.649Z"/>
	<path fill="#FEFEFE" d="M343.323 216.216C343.46 216.288 343.607 216.342 343.734 216.431C345.289 217.528 347.353 220.041 347.389 222.025C347.418 223.59 346.907 223.952 345.968 225.124C345.181 225.089 344.243 225.118 343.481 224.932C342.131 224.603 341.995 224.35 341.308 223.248C341.169 220.939 342.511 218.362 343.323 216.216Z"/>
</svg>
