<?xml version="1.0" encoding="utf-8" ?>
<svg xmlns="http://www.w3.org/2000/svg" xmlns:xlink="http://www.w3.org/1999/xlink" width="1024" height="1024">
	<path d="M0 0L599.75 0L630.089 0L819.027 0L823.99 0L826.983 0L891.499 0L897.26 0L1024 0L1024 1024L897.252 1024L891.38 1024L827.063 1024L824.078 1024L819.044 1024L684.303 1024L678.925 1024L632.457 1024L623.503 1024L587.445 1024L578.129 1024L470.842 1024L461.85 1024L442.944 1024L436.665 1024L350.959 1024L344.509 1024L152.361 1024L146.931 1024L123.828 1024L117.828 1024L0 1024L0 0Z"/>
	<path fill="#9F8BE8" d="M0 0L599.75 0L630.089 0L819.027 0L819.16 296.362Q819.65 370.423 819.373 444.485C811.182 438.012 801.93 431.969 792.187 428.119C787.908 426.428 777.23 422.83 773.003 425.452C771.57 426.341 771.512 427.056 771.013 428.525L770.408 428.618C770.494 427.97 770.585 427.317 770.627 426.665C770.695 425.619 770.513 424.566 769.714 423.836C767.551 421.859 762.781 422.538 760.017 422.54L760.217 302.534L760.391 274.013C760.423 271.189 761.171 267.362 760.544 264.684C760.095 262.767 759.315 262.091 757.718 261.158C755.563 261.08 753.127 261.955 751.075 262.593C731.535 268.671 712.228 276.275 692.906 283.069C668.911 291.505 644.662 299.359 620.874 308.362C620.997 306.105 621.001 304.012 620.72 301.766C619.962 297.097 617.798 293.944 615.114 290.2C621.795 281.049 625.265 271.692 628.525 260.958L630.363 253.709C633.483 252.051 635.528 250.291 637.607 247.427C640.908 242.373 644.585 236.825 646.108 230.915C647.946 223.78 645.95 224.781 644.505 219.507C644.023 217.75 644.122 215.743 643.915 213.932C643.432 209.698 641.617 206.101 639.471 202.514C639.537 201.096 639.72 199.438 639.463 198.048C638.993 195.5 636.555 194.185 634.595 192.856C634.526 188.779 634.757 184.607 635.618 180.617C639.344 177.021 643.843 172.709 644.348 167.265C644.503 165.605 644.189 164.064 642.918 162.872C640.928 161.006 637.666 160.804 635.103 160.968C632.02 162.33 628.955 163.836 626.139 165.698C618.843 172.134 592.419 193.193 589.067 199.373C584.55 211.551 583.242 233.606 580.58 247.577Q579.126 255.649 577.509 263.689C576.936 267.134 576.226 270.413 575.244 273.765C573.703 274.285 570.731 274.905 569.928 276.416C567.253 282.975 563.203 288.595 560.232 294.945C559.002 297.572 560.622 298.963 560.339 301.315C559.941 304.623 546.153 325.194 543.449 328.178C541.201 332.362 537.899 338.475 534.43 341.661C522.484 359.274 501.209 389.381 484.331 401.803C479.86 405.093 475.088 407.323 469.957 409.381C466.706 410.408 463.449 411.559 460.161 412.45C445.674 418.157 430.745 422.189 415.604 425.755C410.256 427.014 404.647 427.801 399.379 429.282C396.008 430.03 392.719 430.879 389.414 431.88C380.618 433.338 371.574 433.613 362.699 434.477C353.147 435.407 343.624 436.86 334.118 438.18L338.763 420.92Q339.934 420.821 341.101 420.691C350.034 419.718 362.298 417.773 368.103 410.103C373.136 403.452 372.304 390.527 371.373 382.603C372.449 381.45 372.513 375.393 372.536 373.641C375.219 371.826 376.47 370.044 377.056 366.811C377.563 364.013 377.901 361.167 378.271 358.348C381.869 356.561 387.827 353.635 389.214 349.56C389.64 348.309 389.55 347.35 388.948 346.169C386.084 340.552 375.873 341.613 371.696 337.13C370.555 335.905 370.132 334.25 369.715 332.674C368.867 329.465 362.489 297.977 362.936 295.874C364.512 288.462 378.312 278.528 373.253 269.938C372.992 269.494 372.747 269.316 372.389 268.998C368.839 268.638 365.151 269.788 361.622 270.222C356.9 270.802 351.78 270.53 347.073 269.911C337.282 268.623 328.055 265.121 318.464 262.958C298.548 258.467 272.968 257.276 256.225 270.942Q252.633 273.913 249.385 277.258C237.814 279.557 229.682 283.838 223.064 293.862C214.045 307.519 210.123 329.204 213.514 345.198C216.093 357.363 227.087 375.134 233.285 386.493Q239.279 397.394 244.622 408.628L242.983 416.86C235.518 418.279 230.682 420.732 226.277 427.204Q224.837 429.359 223.636 431.655Q222.435 433.951 221.488 436.363Q220.54 438.775 219.856 441.275Q219.173 443.775 218.761 446.333C174.754 473.084 150.567 555.167 139.065 602.303C134.987 619.012 125.126 659.438 127.459 675.385C129.331 688.179 135.389 699.915 142.027 710.83C154.489 731.323 168.318 752.285 183.724 770.682C167.855 791.796 158.594 816.756 149.188 841.156Q138.162 869.35 128.077 897.894C121.083 917.458 111.423 941.928 107.304 962.072C105.664 970.096 104.989 978.159 106.125 986.296C108.14 1000.72 113.671 1010.77 117.828 1024L0 1024L0 0Z"/>
	<path fill="#9F8BE8" d="M599.75 0L630.089 0L819.027 0L819.16 296.362Q819.65 370.423 819.373 444.485C811.182 438.012 801.93 431.969 792.187 428.119C787.908 426.428 777.23 422.83 773.003 425.452C771.57 426.341 771.512 427.056 771.013 428.525L770.408 428.618C770.494 427.97 770.585 427.317 770.627 426.665C770.695 425.619 770.513 424.566 769.714 423.836C767.551 421.859 762.781 422.538 760.017 422.54L760.217 302.534L760.391 274.013C760.423 271.189 761.171 267.362 760.544 264.684C760.095 262.767 759.315 262.091 757.718 261.158C755.563 261.08 753.127 261.955 751.075 262.593C731.535 268.671 712.228 276.275 692.906 283.069C668.911 291.505 644.662 299.359 620.874 308.362C620.997 306.105 621.001 304.012 620.72 301.766C619.962 297.097 617.798 293.944 615.114 290.2C621.795 281.049 625.265 271.692 628.525 260.958L630.363 253.709C633.483 252.051 635.528 250.291 637.607 247.427C640.908 242.373 644.585 236.825 646.108 230.915C647.946 223.78 645.95 224.781 644.505 219.507C644.023 217.75 644.122 215.743 643.915 213.932C643.432 209.698 641.617 206.101 639.471 202.514C639.537 201.096 639.72 199.438 639.463 198.048C638.993 195.5 636.555 194.185 634.595 192.856C634.526 188.779 634.757 184.607 635.618 180.617C639.344 177.021 643.843 172.709 644.348 167.265C644.503 165.605 644.189 164.064 642.918 162.872C640.928 161.006 637.666 160.804 635.103 160.968C632.02 162.33 628.955 163.836 626.139 165.698C618.843 172.134 592.419 193.193 589.067 199.373C584.55 211.551 583.242 233.606 580.58 247.577Q579.126 255.649 577.509 263.689C576.936 267.134 576.226 270.413 575.244 273.765C573.703 274.285 570.731 274.905 569.928 276.416C567.253 282.975 563.203 288.595 560.232 294.945C559.002 297.572 560.622 298.963 560.339 301.315C559.941 304.623 546.153 325.194 543.449 328.178C541.201 332.362 537.899 338.475 534.43 341.661C522.484 359.274 501.209 389.381 484.331 401.803C479.86 405.093 475.088 407.323 469.957 409.381C466.706 410.408 463.449 411.559 460.161 412.45C445.674 418.157 430.745 422.189 415.604 425.755C410.256 427.014 404.647 427.801 399.379 429.282C396.008 430.03 392.719 430.879 389.414 431.88L389.725 235.158L389.875 124.819C389.879 106.774 389.353 88.6646 389.728 70.6288C389.752 69.4615 389.767 68.2601 390.353 67.2153C391.18 65.7388 394.04 64.8689 395.6 64.281C413.069 57.7001 431.496 52.9182 449.276 47.143Q524.219 22.6326 599.75 0Z"/>
	<path fill="#9F8BE8" d="M569.928 276.416C566.255 275.089 500.246 298.63 489.717 302.092C482.769 304.377 470.627 309.769 463.554 309.117C462.142 308.383 461.432 307.213 460.891 305.749C460.267 304.06 459.999 302.143 459.922 300.351C459.586 292.452 460.005 284.432 459.989 276.518L459.916 221.337L459.756 162.756C459.71 152.009 459.339 141.144 459.692 130.408C459.793 127.338 460.006 124.102 461.251 121.265C462.669 120.044 464.1 119.33 465.863 118.698C477.732 114.443 489.999 110.903 501.967 106.859L578.577 80.4678C580.789 79.7063 583.826 78.7982 586.036 79.9976C587.942 81.0315 588.132 83.7175 588.357 85.6614C589.501 95.5083 588.608 107.483 588.61 117.521L588.739 178.51C588.726 182.622 587.85 195.414 588.869 198.772C588.93 198.974 589.001 199.173 589.067 199.373C584.55 211.551 583.242 233.606 580.58 247.577Q579.126 255.649 577.509 263.689C576.936 267.134 576.226 270.413 575.244 273.765C573.703 274.285 570.731 274.905 569.928 276.416Z"/>
	<path fill="#411DA7" d="M569.928 276.416C566.255 275.089 500.246 298.63 489.717 302.092C482.769 304.377 470.627 309.769 463.554 309.117C462.142 308.383 461.432 307.213 460.891 305.749C460.267 304.06 459.999 302.143 459.922 300.351C459.586 292.452 460.005 284.432 459.989 276.518L459.916 221.337L459.756 162.756C459.71 152.009 459.339 141.144 459.692 130.408C459.793 127.338 460.006 124.102 461.251 121.265C462.669 120.044 464.1 119.33 465.863 118.698C477.732 114.443 489.999 110.903 501.967 106.859L578.577 80.4678C580.789 79.7063 583.826 78.7982 586.036 79.9976C587.942 81.0315 588.132 83.7175 588.357 85.6614C589.501 95.5083 588.608 107.483 588.61 117.521L588.739 178.51C588.726 182.622 587.85 195.414 588.869 198.772C588.93 198.974 589.001 199.173 589.067 199.373C584.55 211.551 583.242 233.606 580.58 247.577C580.698 242.539 579.985 237.506 579.796 232.469C579.485 224.18 579.537 215.872 579.517 207.578L579.425 90.4636L509.458 114.406C496.077 118.968 482.499 123.187 469.246 128.089Q468.868 189.961 469.238 251.83C469.337 267.532 468.894 283.395 469.482 299.071C478.914 296.492 488.2 293.059 497.471 289.945C523.998 281.034 550.532 271.119 577.509 263.689C576.936 267.134 576.226 270.413 575.244 273.765C573.703 274.285 570.731 274.905 569.928 276.416Z"/>
	<path fill="#9F8BE8" d="M635.044 72.5255C658.39 64.8904 681.818 57.2405 705.026 49.1995C720.268 43.9183 735.473 37.7177 751.06 33.5587C751.295 91.5755 750.379 149.668 751.208 207.673L682.483 231.906C675.557 234.383 642.847 247.332 637.607 247.427C640.908 242.373 644.585 236.825 646.108 230.915C647.946 223.78 645.95 224.781 644.505 219.507C644.023 217.75 644.122 215.743 643.915 213.932C643.432 209.698 641.617 206.101 639.471 202.514C639.537 201.096 639.72 199.438 639.463 198.048C638.993 195.5 636.555 194.185 634.595 192.856C634.526 188.779 634.757 184.607 635.618 180.617C639.344 177.021 643.843 172.709 644.348 167.265C644.503 165.605 644.189 164.064 642.918 162.872C640.928 161.006 637.666 160.804 635.103 160.968C634.666 151.141 634.971 141.222 634.996 131.382Q635.203 101.954 635.044 72.5255Z"/>
	<path fill="#411DA7" d="M599.75 0L630.089 0C599.864 10.1926 569.199 19.0683 538.795 28.7042L399.445 73.2387L399.379 429.282C396.008 430.03 392.719 430.879 389.414 431.88L389.725 235.158L389.875 124.819C389.879 106.774 389.353 88.6646 389.728 70.6288C389.752 69.4615 389.767 68.2601 390.353 67.2153C391.18 65.7388 394.04 64.8689 395.6 64.281C413.069 57.7001 431.496 52.9182 449.276 47.143Q524.219 22.6326 599.75 0Z"/>
	<path fill="#411DA7" d="M626.139 165.698L626.039 101.458C626.032 91.3506 625.457 80.9055 625.962 70.8386C626.044 69.1856 626.273 67.8437 627.025 66.3694C628.595 65.1418 630.262 64.352 632.119 63.6537C650.824 56.6197 670.214 51.0301 689.166 44.639C698.453 41.5071 749.954 22.371 755.187 22.3887C757.046 22.395 758.383 23.6964 759.538 24.9649C761.371 32.683 760.386 53.978 760.411 62.7279L760.379 155.955L760.462 194.237C760.487 200.647 760.957 207.366 760.461 213.738C752.826 217.815 743.92 220.262 735.767 223.165L691.425 238.691C670.368 245.849 649.743 254.214 628.525 260.958L630.363 253.709C633.483 252.051 635.528 250.291 637.607 247.427C642.847 247.332 675.557 234.383 682.483 231.906L751.208 207.673C750.379 149.668 751.295 91.5755 751.06 33.5587C735.473 37.7177 720.268 43.9183 705.026 49.1995C681.818 57.2405 658.39 64.8904 635.044 72.5255Q635.203 101.954 634.996 131.382C634.971 141.222 634.666 151.141 635.103 160.968C632.02 162.33 628.955 163.836 626.139 165.698Z"/>
	<path fill="#9F8BE8" d="M469.557 364.384Q501.887 352.719 534.43 341.661C522.484 359.274 501.209 389.381 484.331 401.803C479.86 405.093 475.088 407.323 469.957 409.381C468.606 405.525 469.538 371.303 469.557 364.384Z"/>
	<path fill="#411DA7" d="M460.708 357.617C467.722 353.792 480.796 350.399 488.751 347.691Q516.273 338.419 543.449 328.178C541.201 332.362 537.899 338.475 534.43 341.661Q501.887 352.719 469.557 364.384C469.538 371.303 468.606 405.525 469.957 409.381C466.706 410.408 463.449 411.559 460.161 412.45C459.985 402.607 460.087 392.74 460.064 382.895C460.044 374.49 459.713 365.973 460.708 357.617Z"/>
	<path d="M819.027 0L823.99 0L826.983 0L891.499 0L897.26 0L1024 0L1024 1024L897.252 1024L891.38 1024L827.063 1024L824.078 1024L819.044 1024L684.303 1024L678.925 1024C677.586 991.592 676.684 958.716 679.204 926.379C679.937 922.256 679.568 918.192 680.575 914.031C681.368 912.245 681.825 910.084 682.412 908.204Q677.403 907.668 672.469 906.649C636.147 899.357 597.604 877.094 576.832 845.855C575.591 842.377 573.812 839.236 572.715 835.653L572.541 831.199C573.48 825.128 579.003 813.565 582.083 808.039C590.668 791.4 598.658 774.8 608.145 758.618C611.931 752.161 620.888 741.487 623.206 735.631C625.469 733.395 627.741 731.514 628.685 728.382C629.591 726.796 629.323 725.623 630.8 724.353C632.419 723.795 638.262 716.485 640.114 714.712C644.482 710.028 649.919 706.257 655.035 702.429C655.319 701.315 654.451 700.141 653.978 699.102C654.756 696.951 655.982 696.119 657.783 694.802L659.498 694.71C660.632 693.311 660.211 692.16 660.159 690.397C661.877 690.082 663.655 690.09 665.4 690.009C675.092 671.085 685.575 652.68 695.9 634.107C698.865 630.636 701.8 625.786 703.439 621.539C706.729 619.058 708.79 614.718 711.172 611.375C718.957 600.447 729.384 588.499 741.994 583.339C740.283 580.735 738.87 577.827 737.364 575.094C730.932 574.709 724.367 574.475 718.121 572.755C713.826 571.571 709.7 569.699 705.395 568.594C702.951 567.967 700.275 567.971 697.767 567.737C691.598 567.161 685.989 564.84 681.017 561.161C671.057 553.791 664.183 540.291 662.458 528.168C661.029 518.128 664.335 506.888 672.621 500.59C676.421 497.701 681.286 495.424 683.829 491.227C687.275 485.542 685.366 477.702 688.727 471.491Q690.367 468.526 692.621 465.996C698.411 459.444 708.223 455.027 712.862 449.304C715.199 446.421 714.512 441.34 718.143 436.788C725.714 427.293 739.998 424.727 751.327 423.418L760.017 422.54C762.781 422.538 767.551 421.859 769.714 423.836C770.513 424.566 770.695 425.619 770.627 426.665C770.585 427.317 770.494 427.97 770.408 428.618L771.013 428.525C771.512 427.056 771.57 426.341 773.003 425.452C777.23 422.83 787.908 426.428 792.187 428.119C801.93 431.969 811.182 438.012 819.373 444.485Q819.65 370.423 819.16 296.362L819.027 0Z"/>
	<path fill="#9F8BE8" d="M891.499 0L897.26 0L1024 0L1024 1024L897.252 1024L891.38 1024L891.499 0Z"/>
	<path d="M891.499 0L897.26 0L896.972 619.888L897.083 903.764C897.076 943.825 897.764 983.952 897.252 1024L891.38 1024L891.499 0Z"/>
	<path fill="#7968BE" d="M826.983 0L891.499 0L891.38 1024L827.063 1024L827.429 765.924C827.544 707.217 828.401 648.341 826.81 589.663C835.715 584.957 843.314 579.566 849.738 571.709C856.012 564.035 861.009 554.501 859.806 544.297C858.402 532.378 849.863 520.664 840.613 513.473C843.601 506.927 846.031 500.168 846.032 492.88C846.035 477.462 838.01 463.198 827.396 452.564C827.169 434.092 827.44 415.592 827.41 397.117L827.324 273.237L826.983 0Z"/>
	<path fill="#FEFEFE" d="M819.622 851.627C821.179 857.338 819.554 888.205 819.494 896.173L819.044 1024L684.303 1024Q684.78 1005.26 684.076 986.53C683.378 961.638 681.65 932.92 688.026 908.833C693.763 908.505 699.308 908.198 704.447 905.318C717.584 897.956 722.807 877.974 726.696 864.552C760.48 866.563 787.683 863.416 819.622 851.627Z"/>
	<path fill="#411DA7" d="M819.027 0L823.99 0L824.058 317.239C823.993 361.068 824.424 404.95 823.874 448.771C822.445 447.417 820.586 446.005 819.373 444.485Q819.65 370.423 819.16 296.362L819.027 0Z"/>
	<path fill="#411DA7" d="M819.622 851.627L823.937 850.055L824.078 1024L819.044 1024L819.494 896.173C819.554 888.205 821.179 857.338 819.622 851.627Z"/>
	<path fill="#FEFEFE" d="M787.654 514.104C775.556 501.838 769.485 467.524 768.219 450.256C767.781 444.284 768.72 437.437 767.495 431.663L766.473 431.078C756.623 430.945 748.58 430.704 739.115 434.089C731.147 436.939 725.401 440.281 721.683 448.216C721.285 449.066 721.23 449.122 720.452 449.785C720.134 448.828 720.038 447.979 720.047 446.978C720.08 443.625 721.496 440.918 723.927 438.654C735.278 428.079 755.971 428.208 770.408 428.618L771.013 428.525C770.927 434.358 770.377 440.114 770.514 445.972C770.888 461.926 774.613 477.412 779.728 492.457C782.101 499.437 785.826 506.219 787.496 513.4L787.654 514.104Z"/>
	<path fill="#1E017E" d="M660.159 690.397C661.877 690.082 663.655 690.09 665.4 690.009C664.399 692.914 663.526 695.93 662.063 698.64L661.347 698.871C660.362 697.033 659.795 695.705 657.783 694.802L659.498 694.71C660.632 693.311 660.211 692.16 660.159 690.397Z"/>
	<path fill="#FEFEFE" d="M820.036 592.316C821.384 591.863 822.124 591.323 823.52 591.766C824.872 595.864 824.005 634.749 824.011 641.736L824.003 801.468L823.988 831.219C823.983 834.824 823.299 840.009 824.106 843.469L823.677 843.979L823.792 846.449C822.424 845.928 821.15 845.337 819.663 845.331C813.691 848.508 806.79 850.511 800.293 852.382C774.925 859.69 754.098 860.652 727.956 859.364C731.391 844.595 733.683 829.719 736.775 814.904C750.606 813.054 765.14 812.574 775.733 802.278C787.157 791.174 788.645 771.728 788.843 756.745C789.043 741.618 789.102 726.12 788.306 711.005C787.799 701.378 786.587 691.789 785.996 682.166C785.583 675.447 786.571 667.853 785.349 661.342C785 659.485 784.401 657.767 782.969 656.47C782.728 656.252 781.537 656.423 781.211 656.436C776.605 661.218 782.483 714.822 782.945 724.389C783.79 741.888 785.015 777.919 776.138 792.767C766.974 808.096 752.004 805.915 737.039 809.686Q737.39 806.089 737.427 802.476C737.552 792.729 735.412 777.956 728.123 770.878Q727.693 770.458 727.231 770.074Q726.769 769.69 726.276 769.346Q725.784 769.001 725.265 768.698Q724.746 768.395 724.204 768.135Q723.662 767.875 723.101 767.661Q722.54 767.447 721.963 767.279Q721.385 767.111 720.797 766.991Q720.208 766.871 719.611 766.8C712.115 765.888 703.036 768.195 695.494 769.087C689.618 769.783 683.768 770.023 677.854 770.016C687.268 747.079 715.781 757.783 722.672 749.899C723.779 748.633 723.892 746.835 723.82 745.235C723.451 737.055 721.449 728.331 720.213 720.216C717.015 699.201 713.314 677.573 712.812 656.301C712.344 636.447 714.996 615.422 729.301 600.395C743.252 596.989 759.822 602.609 770.965 611.077C773.985 613.372 779 619.746 782.419 620.158C783.669 619.442 783.979 618.954 784.583 617.658C784.611 616.697 784.555 616.154 784.122 615.266C783.021 613.004 780.287 611.146 778.343 609.631C768.6 602.038 759.145 597.59 747.215 594.451C755.969 593.057 763.759 594.083 772.486 595.111C788.298 596.973 804.855 598.159 820.036 592.316Z"/>
	<path fill="#411DA7" d="M820.036 592.316C821.384 591.863 822.124 591.323 823.52 591.766C824.872 595.864 824.005 634.749 824.011 641.736L824.003 801.468L823.988 831.219C823.983 834.824 823.299 840.009 824.106 843.469L823.677 843.979L823.792 846.449C822.424 845.928 821.15 845.337 819.663 845.331C819.383 837.042 819.852 828.556 819.883 820.245L819.986 764.597L820.036 592.316Z"/>
	<path fill="#7968BE" d="M627.965 739.357C632.349 743.052 639.4 764.033 645.482 769.62C652.447 776.019 677.549 776.245 686.643 775.592C695.863 774.929 705.005 773.089 714.228 772.576C717.402 772.4 720.991 771.944 723.457 774.318C729.232 779.878 731.25 790.815 731.527 798.463C732.319 820.313 721.557 880.634 706.864 895.95C700.823 902.246 693.796 902.455 685.659 902.493C660.71 900.477 637.488 890.833 616.95 876.823C605.939 869.313 581.247 849.118 578.948 835.422C577.173 824.849 606.561 772.138 613.595 760.568C618.057 753.228 622.921 746.305 627.965 739.357Z"/>
	<path fill="#9F8BE8" d="M756.582 444.185C758.333 443.883 760.246 443.89 762.025 443.762C762.832 457.552 765.29 470.098 768.952 483.357C766.259 480.346 763.529 477.887 759.552 476.679C756.24 475.673 752.058 475.819 748.987 477.47C748.141 478.726 748.214 478.735 748.379 480.254C751.308 483.993 757.21 480.931 761.686 484.138C765.299 486.728 764.876 492.045 768.637 494.644L769.199 494.512C770.358 492.669 769.85 489.364 769.784 487.243Q770.691 490.899 771.895 494.468Q773.099 498.037 774.591 501.496Q776.083 504.955 777.853 508.28Q779.623 511.605 781.659 514.774C781.58 514.989 781.494 515.202 781.422 515.419C780.9 517.017 780.651 518.219 781.439 519.794C783.024 521.139 785.629 521.257 787.636 521.609C789.658 519.606 791.87 517.841 794.648 517.014C798.114 515.983 803.059 515.227 806.324 517.118C808.352 518.293 809.448 520.36 809.943 522.59C811.007 527.394 809.926 532.19 807.145 536.21C803.155 541.977 795.458 547.095 788.553 548.339C783.128 549.317 779.053 548.098 774.665 545.029C771.116 548.486 768.472 552.804 764.934 556.352C759.03 561.992 751.934 565.488 743.971 567.183C732.566 569.611 718.428 568.965 708.471 562.26C701.559 557.605 698.219 550.618 696.62 542.698C693.763 528.549 694.616 512.21 700.967 499.138C703.203 494.535 706.237 490.411 708.567 485.874C711.736 479.704 713.885 473.398 717.761 467.536C718.796 467.512 719.841 467.499 720.876 467.524C724.783 467.619 727.216 469.972 729.78 472.678L730.282 473.216C731.633 473.4 732.385 473.137 733.65 472.728C734.222 472.151 734.683 471.933 734.74 471.028C734.808 469.942 734.098 468.679 733.463 467.831C730.575 463.971 726.128 461.904 721.479 461.219C733.184 449.57 740.316 446.21 756.582 444.185Z"/>
	<path d="M707.913 521.733C710.076 522.498 712.013 524.663 713.871 526.038C720.076 530.628 726.816 530.872 734.184 531.85C735.89 532.076 737.727 532.25 739.316 532.95C740.71 533.565 741.175 534.26 741.711 535.64C741.271 539.859 736.308 543.655 733.209 546.181Q732.485 546.647 731.733 547.065Q730.98 547.482 730.201 547.849Q729.423 548.216 728.622 548.531Q727.821 548.845 727.001 549.107Q726.181 549.368 725.345 549.575Q724.509 549.781 723.662 549.932Q722.815 550.084 721.959 550.179Q721.104 550.274 720.244 550.312C715.835 550.518 711.261 549.654 707.949 546.538C705.003 543.766 703.752 539.978 703.655 536.007C703.546 531.568 704.814 525.025 707.913 521.733Z"/>
	<path fill="#FEFEFE" d="M709.71 530.974C717.712 534.394 725.536 536.744 734.145 538.069C732.473 539.495 730.726 540.841 729.01 542.213C725.499 544.55 720.962 545.88 716.749 545.137C712.829 544.445 710.696 542.575 708.556 539.342C708.753 536.462 708.962 533.776 709.71 530.974Z"/>
	<path d="M728.412 490.826C728.809 490.845 729.382 490.849 729.751 490.979C730.972 491.409 731.093 491.861 731.471 492.963C730.502 500.274 722.967 501.606 719.455 506.729C719.428 509.097 721.437 510.25 721.785 512.473C722.042 514.115 721.087 514.859 720.167 516.024C719.153 515.47 718.095 514.91 717.192 514.182C715.382 512.723 713.743 510.562 713.673 508.155C713.502 502.264 724.454 495.073 728.412 490.826Z"/>
	<path d="M746.535 495.743C747.803 495.97 748.86 496.249 749.794 497.213C750.769 498.219 751.068 499.392 751.001 500.754C750.867 503.502 748.978 505.456 747.068 507.182C745.874 507.085 745.11 506.887 744.027 506.373C743.029 505.274 742.661 504.615 742.641 503.093C742.604 500.359 744.753 497.589 746.535 495.743Z"/>
	<path d="M798.548 523.441L800.216 524.162C800.517 524.703 800.878 524.959 800.639 525.601C799.612 528.358 793.71 531.01 791.158 532.167C789.664 532.008 789.006 531.799 787.954 530.769L788.039 529.794C789.946 526.434 795.042 524.655 798.548 523.441Z"/>
	<path d="M712.972 481.204C713.71 481.31 714.746 481.37 715.426 481.709C716.415 482.202 717.096 483.096 717.259 484.198C717.615 486.597 715.811 488.786 714.377 490.466L711.717 490.593C710.351 489.833 710.369 489.799 709.773 488.346C709.952 485.374 711.103 483.465 712.972 481.204Z"/>
	<path fill="#F5F0FE" d="M659.156 706.021C667.034 712.423 664.812 726.033 671.292 731.719L672.421 731.531C674.719 728.252 673.558 722.648 674.445 718.772C675.053 716.118 676.117 711.42 678.728 710.091C679.355 709.771 679.649 709.992 680.28 710.144C680.637 710.498 681.079 710.783 681.352 711.206C682.815 713.475 683.418 722.815 683.904 725.896C684.995 732.816 686.822 739.662 688.453 746.471C685.177 745.894 681.898 745.228 678.559 745.584C670.056 746.492 664.013 753.2 658.859 759.388C657.008 762.069 655.649 765.016 653.843 767.732L652.871 767.883C650.874 766.937 649.477 765.63 648.106 763.898C645.753 760.928 635.15 742.054 633.72 738.194C632.81 735.739 632.532 733.712 633.67 731.274C634.417 730.985 634.45 730.798 635.236 731.081C637.229 731.8 638.381 732.396 640.37 731.472C642.85 728.097 638.328 727.757 638.081 723.86C638.653 722.679 639.048 722.133 640.109 721.356L641.026 721.692C641.835 722.773 642.981 724.633 644.267 725.13C645.52 725.614 646.028 725.406 647.134 724.885C648.471 721.992 645.694 720.779 644.944 718.174C644.719 717.392 644.849 717.588 645.287 716.711C647.895 715.897 650.494 717.555 653.219 717.022L653.769 716.169C653.543 714.12 652.562 712.313 651.724 710.452C654.133 708.783 656.555 707.371 659.156 706.021Z"/>
	<path fill="#9F8BE8" d="M697.28 706.954C700.944 705.587 701.827 697.645 705.458 697.835C706.208 698.777 706.82 699.777 706.631 701.056C706.567 701.492 706.24 702.055 706.098 702.499C705.549 704.22 705.644 706.439 705.553 708.243C706.051 708.931 705.739 708.784 706.355 708.894C706.076 721.898 702.968 735.891 700.137 748.556C698.147 748.654 696.147 748.658 694.156 748.7C692.799 739.667 689.522 730.879 688.647 721.837C691.078 716.86 693.974 711.406 697.28 706.954Z"/>
	<path fill="#FEFEFE" d="M813.197 445.917C824.097 452.906 835.713 471.213 839.131 483.641C842.272 495.065 838.093 505.24 832.552 515.09C831.572 516.824 830.927 518.435 829.144 519.481L828.361 519.184C826.936 514.753 830.8 506.667 831.462 501.919C834.287 481.641 825.216 461.643 813.197 445.917Z"/>
	<path fill="#FEFEFE" d="M715.385 453.928C716.122 454.813 716.363 455.489 716.673 456.592C716.334 458.905 714.978 460.699 713.765 462.647C709.899 463.765 706.228 465.543 703.112 468.107C702.863 468.312 702.619 468.521 702.379 468.735C694.348 475.907 697.164 485.829 692.191 494.37C687.31 502.751 678.12 508.009 673.753 516.5C671.299 521.271 670.638 526.483 670.052 531.743C667.958 529.386 668.142 524.154 668.242 521.069C668.781 504.374 681.137 505.423 688.462 494.671C692.783 488.328 690.091 479.712 694.425 473.159C699.452 465.56 708.193 460.819 714.702 454.588L715.385 453.928Z"/>
	<path fill="#9F8BE8" d="M699.727 683.38L700.528 683.368C701.1 683.707 701.433 683.723 701.645 684.414C703.206 689.509 690.933 706.911 688.225 712.092C687.374 710.446 686.396 708.912 685.393 707.355C682.878 704.999 679.93 705.463 678.123 703.836C680.05 699.132 682.791 694.775 685.573 690.54C690.337 688.265 695.02 685.774 699.727 683.38Z"/>
	<path fill="#FEFEFE" d="M706.5 649.761C706.511 661.481 708.838 673.065 708.888 684.669C708.923 692.758 706.944 700.825 706.355 708.894C705.739 708.784 706.051 708.931 705.553 708.243C705.644 706.439 705.549 704.22 706.098 702.499C706.24 702.055 706.567 701.492 706.631 701.056C706.82 699.777 706.208 698.777 705.458 697.835C701.827 697.645 700.944 705.587 697.28 706.954C701.092 700.232 710.254 689.881 707.716 681.765C707.213 680.157 706.041 679.035 704.531 678.371C701.551 677.06 697.712 677.215 694.788 678.594C692.686 679.584 690.754 680.914 688.884 682.281C694.747 671.428 700.787 660.697 706.5 649.761Z"/>
	<path fill="#FEFEFE" d="M712.05 704.823C712.377 705.397 712.419 705.427 712.682 706.153C714.089 710.05 718.797 743.881 717.667 746.48C716.163 747.561 714.063 747.518 712.26 747.691L705.982 748.279C708.903 733.749 710.883 719.62 712.05 704.823Z"/>
	<path fill="#F5F0FE" d="M681.812 750.642C683.821 750.811 685.458 750.971 687.32 751.772C687.311 751.939 687.383 752.133 687.293 752.275C686.988 752.751 685.003 753.785 684.468 754.143C678.005 758.473 674.9 762.816 672.135 769.945L666.379 769.407C664.35 769.403 662.172 768.958 660.147 768.717C660.886 766.928 661.721 765.184 662.807 763.577C667.217 757.054 674.025 752.069 681.812 750.642Z"/>
	<path fill="#FEFEFE" d="M706.388 629.007L706.705 629.403C705.206 633.17 702.776 636.76 700.863 640.351L685.089 669.261C678.727 680.66 673.124 692.532 666.425 703.734L665.739 702.888C666.354 693.94 700.394 638.342 706.388 629.007Z"/>
	<path fill="#FEFEFE" d="M838.116 519.06C838.918 519.537 839.669 520.049 840.394 520.64C846.98 526.011 853.117 537.025 853.88 545.505C854.242 549.529 853.227 554.389 850.629 557.595C851.089 554.503 851.459 551.256 851.258 548.13C850.537 536.943 842.426 530.095 834.71 523.128C835.708 521.654 836.925 520.377 838.116 519.06Z"/>
	<path fill="#9F8BE8" d="M620.874 308.362C644.662 299.359 668.911 291.505 692.906 283.069C712.228 276.275 731.535 268.671 751.075 262.593C753.127 261.955 755.563 261.08 757.718 261.158C759.315 262.091 760.095 262.767 760.544 264.684C761.171 267.362 760.423 271.189 760.391 274.013L760.217 302.534L760.017 422.54L751.327 423.418C739.998 424.727 725.714 427.293 718.143 436.788C714.512 441.34 715.199 446.421 712.862 449.304C708.223 455.027 698.411 459.444 692.621 465.996Q690.367 468.526 688.727 471.491C685.366 477.702 687.275 485.542 683.829 491.227C681.286 495.424 676.421 497.701 672.621 500.59C664.335 506.888 661.029 518.128 662.458 528.168C664.183 540.291 671.057 553.791 681.017 561.161C685.989 564.84 691.598 567.161 697.767 567.737C700.275 567.971 702.951 567.967 705.395 568.594C709.7 569.699 713.826 571.571 718.121 572.755C724.367 574.475 730.932 574.709 737.364 575.094C738.87 577.827 740.283 580.735 741.994 583.339C729.384 588.499 718.957 600.447 711.172 611.375C708.79 614.718 706.729 619.058 703.439 621.539C701.8 625.786 698.865 630.636 695.9 634.107C685.575 652.68 675.092 671.085 665.4 690.009C663.655 690.09 661.877 690.082 660.159 690.397C660.211 692.16 660.632 693.311 659.498 694.71L657.783 694.802C655.982 696.119 654.756 696.951 653.978 699.102C654.451 700.141 655.319 701.315 655.035 702.429C649.919 706.257 644.482 710.028 640.114 714.712C638.262 716.485 632.419 723.795 630.8 724.353C629.323 725.623 629.591 726.796 628.685 728.382C627.741 731.514 625.469 733.395 623.206 735.631C620.888 741.487 611.931 752.161 608.145 758.618C598.658 774.8 590.668 791.4 582.083 808.039C579.003 813.565 573.48 825.128 572.541 831.199L572.715 835.653C573.812 839.236 575.591 842.377 576.832 845.855C597.604 877.094 636.147 899.357 672.469 906.649Q677.403 907.668 682.412 908.204C681.825 910.084 681.368 912.245 680.575 914.031C679.568 918.192 679.937 922.256 679.204 926.379C676.684 958.716 677.586 991.592 678.925 1024L632.457 1024L623.503 1024L587.445 1024L578.129 1024L470.842 1024L461.85 1024L442.944 1024C440.168 1017.52 436.787 1011.48 434.647 1004.7C431.027 993.226 429.412 981.108 427.414 969.274L417.565 907.916C414.525 889.9 411.083 871.734 406.392 854.072C404.349 846.38 401.694 838.89 399.43 831.265C399.082 830.294 399.25 830.59 398.785 829.834Q394.691 823.172 390.713 816.44L390.52 744.285C393.612 744.43 396.533 744.485 399.615 744.144C403.351 743.148 407.308 742.237 410.41 739.806C412.462 738.198 413.63 736.185 414.698 733.843C416.763 729.314 417.436 724.211 418.731 719.436C421.076 710.792 424.068 703.28 425.176 694.274C428.873 689.859 434.443 684.381 434.102 678.213C433.699 670.933 424.713 665.773 419.659 661.494C423.445 650.916 419.461 640.756 417.047 630.247C424.565 625.697 431.442 619.047 435.039 610.91Q435.337 610.23 435.601 609.536Q435.866 608.842 436.095 608.136Q436.324 607.429 436.518 606.712Q436.711 605.995 436.869 605.27Q437.027 604.544 437.149 603.812Q437.27 603.079 437.355 602.341Q437.44 601.604 437.488 600.863Q437.536 600.122 437.547 599.379Q437.558 598.637 437.532 597.894Q437.506 597.152 437.443 596.412Q437.38 595.672 437.28 594.937Q437.18 594.201 437.044 593.471Q436.908 592.741 436.736 592.018Q436.563 591.296 436.355 590.583Q436.147 589.871 435.903 589.169Q435.66 588.468 435.382 587.779C430.482 575.531 417.657 567.428 406.052 562.424C405.944 559.847 405.857 557.588 404.962 555.128C421.308 540.014 441.267 528.091 459.87 515.976C462.779 513.33 466.448 511.245 469.948 509.471C476.781 503.779 484.302 498.759 491.534 493.578Q507.733 481.776 524.159 470.292C533.687 463.592 545.733 456.531 553.123 447.455C559.002 440.234 566.96 423.325 571.788 414.459C574.804 407.859 577.949 401.26 581.571 394.968C583.594 389.425 586.504 384.014 589.018 378.667C594.807 366.356 600.755 354.196 605.461 341.415C605.728 341.254 605.99 341.084 606.262 340.932C613.654 336.794 615.808 323.434 618.477 315.786C619.251 310.234 620.619 308.584 620.72 301.766C621.001 304.012 620.997 306.105 620.874 308.362Z"/>
	<path fill="#9F8BE8" d="M620.874 308.362C644.662 299.359 668.911 291.505 692.906 283.069C712.228 276.275 731.535 268.671 751.075 262.593C753.127 261.955 755.563 261.08 757.718 261.158C759.315 262.091 760.095 262.767 760.544 264.684C761.171 267.362 760.423 271.189 760.391 274.013L760.217 302.534L760.017 422.54L751.327 423.418C739.998 424.727 725.714 427.293 718.143 436.788C714.512 441.34 715.199 446.421 712.862 449.304C708.223 455.027 698.411 459.444 692.621 465.996Q690.367 468.526 688.727 471.491C685.366 477.702 687.275 485.542 683.829 491.227C681.286 495.424 676.421 497.701 672.621 500.59C664.335 506.888 661.029 518.128 662.458 528.168C664.183 540.291 671.057 553.791 681.017 561.161C685.989 564.84 691.598 567.161 697.767 567.737C700.275 567.971 702.951 567.967 705.395 568.594C709.7 569.699 713.826 571.571 718.121 572.755C724.367 574.475 730.932 574.709 737.364 575.094C738.87 577.827 740.283 580.735 741.994 583.339C729.384 588.499 718.957 600.447 711.172 611.375C708.79 614.718 706.729 619.058 703.439 621.539C701.8 625.786 698.865 630.636 695.9 634.107C690.211 634.749 679.975 639.96 674.208 642.203C668.515 644.417 629.229 659.186 625.092 657.278C624.48 656.996 624.523 656.9 624.156 656.267C622.864 654.038 622.596 650.797 622.511 648.252C622.166 637.878 622.437 627.401 622.427 617.017L622.319 557.215L621.531 377.31C621.492 368.866 622.404 321.552 620.683 317.053C620.361 316.209 619.279 316.087 618.477 315.786C619.251 310.234 620.619 308.584 620.72 301.766C621.001 304.012 620.997 306.105 620.874 308.362Z"/>
	<path fill="#411DA7" d="M620.874 308.362C644.662 299.359 668.911 291.505 692.906 283.069C712.228 276.275 731.535 268.671 751.075 262.593C753.127 261.955 755.563 261.08 757.718 261.158C759.315 262.091 760.095 262.767 760.544 264.684C761.171 267.362 760.423 271.189 760.391 274.013L760.217 302.534L760.017 422.54L751.327 423.418C750.421 406.122 751.045 388.561 751.05 371.229L751.347 272.307Q691.302 293.957 630.901 314.596Q630.859 359.788 631.319 404.976L631.598 517.152L631.881 600.446C631.873 615.808 631.196 631.377 631.798 646.713Q655.213 638.695 678.512 630.345C686.694 627.426 695.079 623.833 703.439 621.539C701.8 625.786 698.865 630.636 695.9 634.107C690.211 634.749 679.975 639.96 674.208 642.203C668.515 644.417 629.229 659.186 625.092 657.278C624.48 656.996 624.523 656.9 624.156 656.267C622.864 654.038 622.596 650.797 622.511 648.252C622.166 637.878 622.437 627.401 622.427 617.017L622.319 557.215L621.531 377.31C621.492 368.866 622.404 321.552 620.683 317.053C620.361 316.209 619.279 316.087 618.477 315.786C619.251 310.234 620.619 308.584 620.72 301.766C621.001 304.012 620.997 306.105 620.874 308.362Z"/>
	<path fill="#9F8BE8" d="M571.788 414.459C572.815 417.33 571.929 453.665 571.944 460.986L572.015 665.136C553.209 672.07 533.845 677.946 514.786 684.16C499.895 689.016 485.021 694.425 470.007 698.833C470.004 635.732 469.281 572.565 469.948 509.471C476.781 503.779 484.302 498.759 491.534 493.578Q507.733 481.776 524.159 470.292C533.687 463.592 545.733 456.531 553.123 447.455C559.002 440.234 566.96 423.325 571.788 414.459Z"/>
	<path fill="#9F8BE8" d="M471.501 765.337C505.37 754.994 538.501 742.501 572.112 731.409L572.541 831.199L572.715 835.653L572.538 836.578C570.692 838.401 481.211 872.002 470.909 875.833C470.384 861.711 470.855 847.411 470.926 833.272Q471.01 799.303 471.501 765.337Z"/>
	<path fill="#411DA7" d="M571.788 414.459C574.804 407.859 577.949 401.26 581.571 394.968C583.007 403.108 581.832 413.634 581.781 422.002L581.584 479.74L581.544 597.493C581.584 620.25 581.986 643.128 581.492 665.874C581.448 667.878 581.364 670.016 580.6 671.884C574.909 676.19 540.343 685.47 531.228 688.464C511.348 694.992 491.475 702.463 471.362 708.178C469.347 708.75 466.578 709.533 464.515 709.256C463.253 709.087 462.46 708.631 461.711 707.572C460.86 706.37 460.578 704.511 460.498 703.076C460.2 697.709 460.51 692.189 460.51 686.805L460.49 653.487L460.286 554.203L460.247 530.145C460.237 525.486 460.517 520.592 459.87 515.976C462.779 513.33 466.448 511.245 469.948 509.471C469.281 572.565 470.004 635.732 470.007 698.833C485.021 694.425 499.895 689.016 514.786 684.16C533.845 677.946 553.209 672.07 572.015 665.136L571.944 460.986C571.929 453.665 572.815 417.33 571.788 414.459Z"/>
	<path fill="#411DA7" d="M576.832 845.855C571.43 848.293 565.515 850.084 559.966 852.242Q536.591 861.406 513.01 870.025L483.91 880.943C478.965 882.783 473.887 885.02 468.779 886.344C467.36 886.712 466.237 886.887 464.836 886.299C463.5 885.737 462.845 884.751 462.414 883.405C460.982 878.929 461.075 778.669 461.685 766.901C461.826 764.175 462.163 761.566 463.342 759.073C465.358 757.681 467.666 756.861 469.953 756.023C480.636 752.107 491.588 748.863 502.395 745.306L540.859 732.259Q552.401 728.38 563.901 724.381C567.48 723.15 571.503 721.318 575.201 720.62C576.679 720.341 578.382 720.686 579.558 721.644C581.019 722.835 581.181 724.671 581.379 726.418C582.147 733.188 581.539 740.631 581.52 747.463L581.552 784.093C581.579 791.823 581.366 799.698 582.025 807.404L582.083 808.039C579.003 813.565 573.48 825.128 572.541 831.199L572.112 731.409C538.501 742.501 505.37 754.994 471.501 765.337Q471.01 799.303 470.926 833.272C470.855 847.411 470.384 861.711 470.909 875.833C481.211 872.002 570.692 838.401 572.538 836.578L572.715 835.653C573.812 839.236 575.591 842.377 576.832 845.855Z"/>
	<path fill="#9F8BE8" d="M632.183 942.498C638.454 940.435 676.617 924.56 678.835 925.059L679.204 926.379C676.684 958.716 677.586 991.592 678.925 1024L632.457 1024Q632.574 983.248 632.183 942.498Z"/>
	<path fill="#9F8BE8" d="M470.838 1008.34C483.482 1004.21 495.708 998.85 508.02 993.837L553.284 975.75C561.554 972.389 569.714 968.673 578.039 965.461L578.129 1024L470.842 1024L470.838 1008.34Z"/>
	<path fill="#411DA7" d="M461.962 1002.55C469.587 997.72 487.539 991.716 496.826 987.928L545.957 968.32C557.399 963.685 568.726 958.722 580.223 954.227C581.22 953.837 582.173 953.396 583.273 953.555C584.598 953.748 585.342 954.508 586.225 955.426C588.779 962.472 587.448 1013.17 587.445 1024L578.129 1024L578.039 965.461C569.714 968.673 561.554 972.389 553.284 975.75L508.02 993.837C495.708 998.85 483.482 1004.21 470.838 1008.34L470.842 1024L461.85 1024C461.877 1016.87 461.691 1009.67 461.962 1002.55Z"/>
	<path fill="#411DA7" d="M623.342 936.87C628.889 932.954 639.591 929.964 646.094 927.476Q663.371 920.848 680.575 914.031C679.568 918.192 679.937 922.256 679.204 926.379L678.835 925.059C676.617 924.56 638.454 940.435 632.183 942.498Q632.574 983.248 632.457 1024L623.503 1024L623.342 936.87Z"/>
	<path fill="#411DA7" d="M390.52 744.285C393.612 744.43 396.533 744.485 399.615 744.144C398.507 773.097 399.018 802.294 399.43 831.265C399.082 830.294 399.25 830.59 398.785 829.834Q394.691 823.172 390.713 816.44L390.52 744.285Z"/>
	<path fill="#411DA7" d="M622.767 704.867C630.586 699.481 640.827 697.794 649.445 693.964C651.895 692.875 653.244 689.883 655.653 689.078C656.845 688.679 659.064 689.89 660.159 690.397C660.211 692.16 660.632 693.311 659.498 694.71L657.783 694.802C655.982 696.119 654.756 696.951 653.978 699.102C654.451 700.141 655.319 701.315 655.035 702.429C649.919 706.257 644.482 710.028 640.114 714.712C638.262 716.485 632.419 723.795 630.8 724.353C629.323 725.623 629.591 726.796 628.685 728.382C627.741 731.514 625.469 733.395 623.206 735.631C622.744 730.942 622.911 726.119 622.868 721.407Q622.61 713.138 622.767 704.867Z"/>
	<path fill="#F5F0FE" d="M636.7 709.805C639.55 706.705 649.896 700.238 653.978 699.102C654.451 700.141 655.319 701.315 655.035 702.429C649.919 706.257 644.482 710.028 640.114 714.712C638.149 713.146 637.227 712.311 636.7 709.805Z"/>
	<path fill="#9F8BE8" d="M636.7 709.805C637.227 712.311 638.149 713.146 640.114 714.712C638.262 716.485 632.419 723.795 630.8 724.353C631.258 720.703 631 716.745 631.02 713.055C632.848 711.881 634.804 710.869 636.7 709.805Z"/>
	<path fill="#9F8BE8" d="M152.361 1024C153.627 1011.68 155.841 999.366 157.824 987.143C159.116 979.177 159.805 970.217 162.636 962.649C165.077 956.122 169.232 950.048 173.128 944.302C193.598 914.115 220.954 886.403 249.192 863.452C260.772 854.04 273.177 844.729 285.794 836.766C305.821 824.125 342.746 805.002 366.567 807.31C374.106 808.041 379.919 812.986 384.417 818.721C388.04 823.341 391.252 828.558 393.575 833.957C398.884 846.293 402.094 860.13 404.983 873.215C411.7 903.637 415.583 934.603 420.676 965.315C423.99 985.306 426.771 1005.98 436.665 1024L350.959 1024L344.509 1024L152.361 1024Z"/>
	<path d="M344.509 1024C330.74 994.701 318.109 965.221 306.117 935.156C304.792 931.835 300.615 923.713 300.676 920.543C301.586 919.442 301.684 919.252 303.032 918.838C305.4 919.603 306.489 921.571 307.567 923.683C310.594 929.613 312.817 936.162 315.279 942.357Q321.313 957.737 327.801 972.931Q334.598 988.932 341.942 1004.69C344.906 1011.03 348.463 1017.48 350.959 1024L344.509 1024Z"/>
	<path d="M373.745 818.122C375.239 818.001 376.525 817.876 377.891 818.637C379.039 819.276 379.166 819.593 379.411 820.77C378.804 821.731 378.609 822.19 377.546 822.684C374.807 823.954 371.359 824.479 368.442 825.33C364.658 826.433 361.181 828.183 357.725 830.055C330.01 845.07 314.709 878.96 306.157 907.833C305.189 908.348 303.816 908.311 302.744 908.328C301.75 907.538 301.721 907.396 301.557 906.119C301.24 903.655 302.656 899.766 303.389 897.416C308.135 882.179 315.484 866.955 324.738 853.909C336.435 837.419 353.098 821.679 373.745 818.122Z"/>
	<path fill="#9F8BE8" d="M191.316 774.83C195.487 770.778 199.886 767.792 205.211 765.422C216.23 760.518 254.338 752.234 266.315 752.441C281.446 752.701 325.504 770.856 337.592 780.624C305.182 785.219 255.153 816.725 229.489 836.752C217.768 845.9 206.744 856.204 196.17 866.643C189.381 873.346 183.048 880.621 176.917 887.924C174.32 891.016 171.932 894.455 169.145 897.364L168.488 898.042C168.324 872.431 171.437 841.957 178.436 817.285Q181.243 807.102 185.234 797.323C186.649 793.925 194.166 780.622 194.027 778.354C193.931 776.78 192.422 775.771 191.316 774.83Z"/>
	<path fill="#9F8BE8" d="M181.25 784.803L182.071 784.921L183.213 783.809L183.621 784.011C183.598 785.055 183.456 785.072 184.069 785.995Q180.136 794.183 177.051 802.727Q173.965 811.271 171.757 820.082C165.946 842.533 161.077 882.874 163.128 905.701C160.333 910.822 157.807 915.846 156.151 921.472C153.019 932.109 151.048 954.641 154.06 965.412C154.397 966.62 154.868 967.494 155.569 968.524C152.291 986.661 147.891 1005.59 146.931 1024L123.828 1024C118.286 1010.62 112.57 996.218 111.474 981.644C111.013 975.516 111.481 969.623 112.828 963.642C120.216 930.829 135.284 894.466 147.157 862.873C153.615 845.689 170.08 797.904 181.25 784.803Z"/>
	<path fill="#9F8BE8" d="M376.233 743.017Q383.383 743.579 390.52 744.285L390.713 816.44C385.218 810.455 380.027 805.993 372.849 802.108C369.399 790.612 365.822 780.094 359.043 770.047C365.205 761.242 370.486 752.073 376.233 743.017Z"/>
	<path fill="#FEFEFE" d="M181.25 784.803C182.516 782.158 184.317 779.592 186.074 777.251C190.182 771.778 195.23 766.29 200.982 762.511C212.282 755.086 233.509 750.54 247.014 748.62C253.132 747.751 259.658 746.956 265.836 747.632C284.47 749.67 321.665 765.213 336.684 776.549C337.812 777.401 340.375 779.047 340.561 780.369L337.592 780.624C325.504 770.856 281.446 752.701 266.315 752.441C254.338 752.234 216.23 760.518 205.211 765.422C199.886 767.792 195.487 770.778 191.316 774.83C187.876 778.175 186.13 781.719 184.069 785.995C183.456 785.072 183.598 785.055 183.621 784.011L183.213 783.809L182.071 784.921L181.25 784.803Z"/>
	<path fill="#F5F0FE" d="M350.17 375.113C357.87 375.847 365.092 375.828 372.536 373.641C372.513 375.393 372.449 381.45 371.373 382.603C367.342 381.864 364.932 386.243 361 385.65C356.442 384.963 352.552 378.581 350.17 375.113Z"/>
	<path fill="#411DA7" d="M624.432 189.55C628.341 186.791 631.606 183.253 635.618 180.617C634.757 184.607 634.526 188.779 634.595 192.856C631.291 191.373 627.926 190.472 624.432 189.55Z"/>
	<path fill="#411DA7" d="M404.962 555.128C405.857 557.588 405.944 559.847 406.052 562.424L398.68 559.395C400.731 557.909 402.852 556.528 404.962 555.128Z"/>
	<path fill="#7968BE" d="M566.323 302.121C572.521 303.566 578.668 306.078 584.178 309.253C593.523 314.639 600.001 323.028 602.797 333.415C596.737 347.257 591.044 361.203 584.679 374.921C577.364 390.689 569.313 406.281 561.299 421.708C557.887 428.276 553.686 438.327 548.894 443.8C543.943 449.456 536.544 454.016 530.489 458.433L497.414 482.103C484.311 491.429 471.782 501.501 458.286 510.266C437.071 524.045 410.386 539.542 393.015 558.091C382.935 556.091 376.528 557.374 367.119 561.01C364.943 558.83 362.758 556.781 360.218 555.026C351.2 548.799 339.917 545.926 329.059 547.931C317.532 550.06 307.548 557.816 301.051 567.335C291.28 568.52 280.745 571.12 273.514 578.27C266.684 585.024 265.428 592.558 265.424 601.706C260.455 603.355 256.53 605.647 252.95 609.499C246.55 616.386 243.227 626.008 243.59 635.358C244.566 660.447 261.121 679.14 273.215 699.582C276.405 704.973 279.124 713.249 283.612 717.365C284.295 717.992 284.636 718.159 284.914 719.121C285.729 721.94 275.957 723.034 273.95 724.053C268.753 726.69 261.96 737.084 258.293 742.017C237.973 743.497 219.585 748.113 200.701 755.765C200.516 740.029 199.906 724.454 198.16 708.795C194.264 673.851 186.914 639.281 182.092 604.452Q178.586 579.767 176.967 554.887C176.567 548.71 177.079 542.416 176.451 536.275C176.274 534.546 175.871 534.132 174.617 533.071C173.113 532.93 172.954 532.92 171.628 533.626C169.641 536.673 170.68 542.242 170.89 545.812C171.932 590.935 180.804 635.592 188.044 680.022C183.859 683.889 179.275 687.804 175.436 691.998C174.267 693.275 173.344 694.405 173.423 696.208C174.352 697.227 174.536 697.243 175.888 697.588C180.755 696.73 185.572 690.441 189.017 686.972C190.995 701.567 192.925 716.104 194.042 730.798C194.756 740.189 194.741 749.625 195.62 758.993C192.742 761.102 190.282 763.68 187.755 766.186C174.961 750.175 162.623 732.716 151.908 715.262C143.733 701.945 132.886 685.666 132.868 669.528C132.86 661.365 134.648 653.008 136.061 644.985Q139.562 624.436 144.411 604.162C154.802 560.83 180.468 476.189 220.746 451.876C233.741 444.032 269.11 447.133 284.182 449.453C293.044 450.817 301.731 452.89 310.434 455.022C315.637 451.892 319.046 447.658 325.036 445.616C330.729 443.675 336.794 443.085 342.726 442.3C356.85 440.43 371.069 439.836 385.152 438.042C391.853 437.188 398.603 435.423 405.2 433.977C421.897 430.318 438.749 426.257 454.93 420.718C465.367 417.145 477.605 413.937 486.692 407.636C505.937 394.293 528.583 360.168 541.9 340.745C550.488 328.219 559.618 315.794 566.323 302.121Z"/>
	<path fill="#221A43" d="M303.062 572.762C313.114 562.92 321.686 552.674 337.024 552.917C344.102 553.028 352.595 555.63 358.108 560.123C360.725 562.256 362.949 564.837 365.81 566.653C371.205 565.449 376.752 563.424 382.223 562.837C392.854 561.699 406.582 567.904 415.337 573.485C422.553 578.085 429.691 585.309 431.532 593.928C432.621 599.024 431.787 603.684 430.272 608.549C426.664 614.776 422.586 619.368 417.401 624.318C416.477 620.768 415.84 615.908 413.098 613.258C412.429 613.115 411.996 612.843 411.354 613.201C410.053 613.926 408.968 615.593 408.257 616.875C406.916 618.412 406.437 619.982 405.793 621.895C404.23 620.481 403.943 618.345 403.068 616.486C402.395 615.055 401.763 614.351 400.268 613.858C398.404 615.257 398.25 625.619 397.089 628.866C395.072 634.504 390.876 638.968 388.363 644.377C384.743 652.17 385.94 657.694 379.721 665.184C377.337 661.841 374.899 659.288 371.447 657.05C366.133 656.743 361.688 657.175 357.148 660.312C352.296 663.665 348.562 669.211 347.722 675.09C346.418 684.218 350.133 694.293 355.587 701.472C349.451 710.243 340.582 716.004 330.389 719.071C315.402 723.58 300.584 720.354 287.065 713.06C283.92 707.553 281.658 701.61 278.382 696.119C267.847 678.464 253.637 661.624 250.08 640.735C248.526 631.608 250.354 622.367 255.946 614.89C257.799 612.412 261.312 608.766 264.517 608.299C265.954 609.207 267.33 610.387 269.101 610.302C269.84 609.924 270.344 609.635 270.786 608.888C272.334 606.272 271.962 599.736 271.064 596.914C271.271 591.29 274.245 585.159 278.315 581.362C285.09 575.04 294.237 573.707 303.062 572.762Z"/>
	<path fill="#FEFEFE" d="M303.062 572.762C313.114 562.92 321.686 552.674 337.024 552.917C344.102 553.028 352.595 555.63 358.108 560.123C360.725 562.256 362.949 564.837 365.81 566.653C371.205 565.449 376.752 563.424 382.223 562.837C392.854 561.699 406.582 567.904 415.337 573.485C422.553 578.085 429.691 585.309 431.532 593.928C432.621 599.024 431.787 603.684 430.272 608.549C429.528 602.675 429.654 598.045 426.575 592.687Q425.272 590.453 423.611 588.471Q421.95 586.489 419.977 584.817C415.898 581.319 397.199 569.763 392.616 568.557C389.845 567.84 387.086 567.96 384.245 567.966C377.649 568.268 371.463 570.557 365.198 572.477C357.657 564.446 348.498 559.11 337.274 558.77C327.332 558.469 317.495 561.847 310.275 568.767C308.036 570.913 306.271 573.269 304.653 575.912C292.558 577.049 283.392 580.014 275.44 589.687C273.545 591.992 272.653 594.521 271.064 596.914C271.271 591.29 274.245 585.159 278.315 581.362C285.09 575.04 294.237 573.707 303.062 572.762Z"/>
	<path d="M384.245 567.966C387.086 567.96 389.845 567.84 392.616 568.557C393.838 570.45 396.09 571.565 397.895 572.868C403.649 577.018 408.756 585.117 409.694 592.285C409.91 593.929 409.769 594.979 408.776 596.3L407.916 596.251C403.653 593.606 402.49 587.07 399.544 583.22C395.322 577.704 387.209 574.015 384.245 567.966Z"/>
	<path fill="#9F8BE8" d="M337.601 292.875C343.863 295.573 349.353 298.926 355 302.695C350.303 304.797 346.58 307.045 343.147 310.93C340.684 313.717 338.062 317.253 338.488 321.172C338.632 322.502 338.806 323.108 339.809 323.984C343.501 322.778 346.055 315.083 349.284 312.144C352.1 309.582 355.473 308.191 358.915 306.695C360.374 312.208 361.298 317.851 362.328 323.456C358.792 324.709 355.57 326.823 352.819 329.36C350.321 331.663 346.384 335.945 346.407 339.475C346.416 340.957 346.704 342.011 347.736 343.061C351.334 342.12 353.216 336.366 355.848 333.866C357.941 331.879 360.599 330.676 363.176 329.46C364.862 335.745 367.175 344.949 374.713 346.15C377.692 346.625 379.743 346.826 382.283 348.633C381.881 350.148 380.334 351.367 379.254 352.455C377.73 352.753 375.633 352.942 374.488 354.076C372.056 356.481 372.986 360.18 372.845 363.226C372.753 365.227 372.117 366.952 370.571 368.284C366.387 371.886 355.995 369.797 350.912 369.353C348.424 369.136 345.967 368.698 343.904 370.424C343.59 371.064 343.337 371.59 343.429 372.331C343.991 376.839 350.066 384.372 353.517 387.306C357.385 390.596 361.054 391.469 365.994 391.115C365.558 395.046 366.321 399.071 365.679 402.94C365.201 405.824 363.504 407.586 361.116 409.158C357.153 411.766 344.305 416.338 339.927 415.351C339.248 413.888 338.722 412.514 337.491 411.417L336.333 411.566C333.848 413.389 331.423 426.092 330.448 429.789L328.935 437.276C313.044 427.052 291.424 420.065 272.825 417.7C264.9 416.693 256.946 416.584 248.97 416.502L249.796 410.557C258.601 409.524 267.755 408.526 275.773 404.464C286.734 398.91 290.706 388.818 294.296 377.83C296.178 378.501 298.095 379.235 300.058 379.628C304.156 380.447 308.051 379.244 311.369 376.771C313.01 375.547 313.697 374.152 313.946 372.165C313.322 370.922 313.315 371.042 311.984 370.583C309.92 370.767 308.494 372.029 306.736 372.989C304.233 374.356 302.304 374.564 299.552 373.729C293.886 372.009 288.731 366.717 286.002 361.608C283.162 356.29 281.52 349.078 283.534 343.209C284.582 340.157 287.041 336.928 290.076 335.643C297.9 332.33 304.604 343.555 311.14 345.844C312.369 346.275 313.438 346.323 314.591 345.646C321.502 341.589 323.662 330.606 326.322 323.83C327.504 320.818 329.735 318.273 331.127 315.352C334.483 308.312 336.078 300.475 337.601 292.875Z"/>
	<path d="M297.741 350.639C298.254 350.728 298.475 350.752 299.009 350.925C300.728 351.485 302.196 352.697 302.93 354.382C303.781 356.339 303.486 358.019 302.827 359.953C302.347 360.08 301.505 360.373 300.98 360.352C299.764 360.301 298.926 359.929 298.196 358.925C296.7 356.865 297.394 352.949 297.741 350.639Z"/>
	<path fill="#9F8BE8" d="M408.257 616.875C411.172 622.556 413.826 628.122 412.015 634.67C411.606 636.148 410.324 636.31 409.053 636.886C405.901 639.04 401.692 641.348 400.953 645.468C400.919 645.656 400.921 645.849 400.905 646.04C401.429 646.65 401.231 646.701 401.979 646.675C405.925 646.539 410.099 642.286 413.914 640.95C415.253 645.788 417.298 651.892 414.741 656.648C413.638 658.698 411.878 660.063 411.583 662.406C413.195 665.752 419.407 666.997 422.108 670.097C425.398 672.731 427.22 675.085 429.027 678.945C427.616 682.307 426.088 685.138 423.627 687.888C420.613 691.831 418.612 699.119 416.617 701.036C414.598 702.976 411.861 702.497 409.262 702.484C408.158 701.533 406.649 699.982 405.253 699.61C404.137 699.312 402.657 699.631 401.711 700.255C400.584 700.997 400.016 702.102 399.842 703.408C399.558 705.54 400.403 707.676 401.78 709.285C405.009 713.058 409.435 713.134 413.997 713.476C412.819 719.814 412.811 728.795 408.596 733.932C401.133 743.027 386.378 736.386 376.882 737.628C375.188 737.85 373.788 738.48 372.525 739.636C368.27 743.534 365.474 750.138 362.431 755.036C360.12 758.757 357.601 762.267 354.908 765.72C342.633 751.756 326.316 740.947 309.386 733.378C304.176 731.049 297.577 729.649 292.92 726.449C292.906 725.135 293.119 724.875 293.784 723.717C294.216 723.492 294.601 723.132 295.08 723.041C296.997 722.675 302.085 724.992 304.24 725.444Q306.56 725.934 308.911 726.238Q311.262 726.541 313.63 726.655Q315.999 726.77 318.368 726.694Q320.738 726.619 323.094 726.354C338.207 724.538 350.928 716.715 360.153 704.841C361.538 705.291 362.947 705.722 364.412 705.792C367.12 705.92 370.472 704.122 372.359 702.278C373.577 701.087 374.049 700.048 374.05 698.315C373.537 696.919 373.067 696.471 371.972 695.544C369.561 695.945 367.536 699.131 364.963 700.072C363.746 699.933 363.336 699.739 362.329 698.966C357.044 694.909 353.821 686.776 353.117 680.258C352.691 676.313 353.145 672.493 355.714 669.341C356.27 668.542 356.837 667.73 357.492 667.008C359.571 664.714 362.571 662.811 365.728 662.678C370.058 662.497 372.6 664.912 375.495 667.7C376.64 668.887 377.53 669.979 379.159 670.484C380.906 670.416 382.116 670.085 383.476 668.926C389.315 663.946 390.765 653.833 391.138 646.719C397.705 639.989 402.215 633.606 405.255 624.664L405.793 621.895C406.437 619.982 406.916 618.412 408.257 616.875Z"/>
	<path fill="#FEFEFE" d="M408.257 616.875C411.172 622.556 413.826 628.122 412.015 634.67C411.606 636.148 410.324 636.31 409.053 636.886C407.347 632.51 409.377 628.243 405.255 624.664L405.793 621.895C406.437 619.982 406.916 618.412 408.257 616.875Z"/>
	<path fill="#FEFEFE" d="M355.714 669.341C356.27 668.542 356.837 667.73 357.492 667.008C359.571 664.714 362.571 662.811 365.728 662.678C370.058 662.497 372.6 664.912 375.495 667.7C371.117 668.136 366.855 666.95 362.528 667.213C360.028 667.365 357.987 669.169 355.714 669.341Z"/>
	<path fill="#FEFEFE" d="M422.108 670.097C425.398 672.731 427.22 675.085 429.027 678.945C427.616 682.307 426.088 685.138 423.627 687.888C423.44 685.771 424.7 682.956 425.315 680.908C424.364 677.5 421.927 673.62 422.108 670.097Z"/>
	<path d="M369.607 672.147C369.985 672.238 370.501 672.342 370.838 672.524C371.925 673.111 372.36 673.797 372.517 675.02C372.872 677.773 372.17 686.704 371.238 689.153C371.064 689.61 370.273 690.362 369.942 690.776C368.257 689.788 367.22 688.803 366.696 686.868C365.402 682.091 367.107 676.236 369.607 672.147Z"/>
	<path fill="#FEFEFE" d="M343.342 785.708C344.288 785.622 345.291 785.517 346.238 785.627C351.221 786.205 361.003 797.675 363.934 801.41C358.107 802.007 352.262 802.545 346.515 803.711C287.273 815.725 214.899 880.458 178.389 927.28C173.926 933.002 169.989 939.157 165.97 945.194C163.003 949.532 160.55 954.157 158.031 958.762C157.298 931.864 160.319 915.976 177.917 894.981C192.352 877.759 208.653 861.32 225.908 846.924C252.295 824.909 308.284 788.916 343.342 785.708Z"/>
	<path fill="#9F8BE8" d="M635.044 166.837C636.048 166.875 636.468 166.95 637.368 167.472C638.31 168.017 638.122 168.078 638.404 169.025C636.432 171.648 633.334 173.912 630.903 176.129C624.27 182.175 612.204 192.589 607.376 199.587C607.15 199.586 606.924 199.581 606.697 199.585C603.808 199.633 600.661 200.197 598.543 202.321C598.37 203.103 598.179 203.311 598.527 204.091C599.111 205.397 600.026 206.283 601.48 206.463C604.082 206.783 606.978 205.118 609.595 204.772C615.936 203.934 626.611 205.111 632.377 207.849C635.045 209.115 636.881 210.035 637.905 212.954C636.067 215.464 626.757 210.304 623.215 211.827C621.951 212.371 621.901 212.74 621.444 213.936C622.766 219.46 634.759 217.897 639.056 222.023C640.546 223.453 641.118 225.358 641.078 227.386C640.948 234.111 635.537 240.882 630.933 245.354C630.681 241.578 630.398 237.777 630.475 233.991C630.527 231.414 632.206 230.907 633.907 229.265L633.895 228.303C632.554 226.814 630.564 225.95 628.619 225.52C627.046 225.172 626.157 225.404 624.839 226.27C623.032 229.452 624.823 234.257 625.119 237.84C625.185 254.834 621.655 272.736 610.384 285.956C601.174 277.899 592.761 274.49 580.77 272.402C583.14 263.89 585.253 255.401 586.741 246.686C589.413 231.039 590.928 215.245 595.769 200.081C607.859 190.066 622.107 174.535 635.044 166.837Z"/>
	<path fill="#7968BE" d="M243.295 422.625C271.176 420.193 297.729 428.19 322.376 440.543C317.681 442.712 313.412 445.382 309.057 448.145C307.202 447.997 305.343 447.642 303.501 447.364C296.605 446.49 289.753 444.693 282.837 443.718Q275.681 442.733 268.478 442.201Q261.274 441.669 254.051 441.592Q246.829 441.515 239.615 441.892Q232.402 442.27 225.227 443.101C226.915 438.496 228.814 433.653 231.649 429.619C234.841 425.078 238.021 423.501 243.295 422.625Z"/>
	<path fill="#9F8BE8" d="M277.804 728.227C299.109 732.37 335.279 750.245 348.896 767.238C355.778 772.606 361.046 783.455 363.763 791.521C337.503 765.053 302.158 749.443 266.102 741.592C268.179 738.553 270.298 735.465 272.918 732.867C274.452 731.125 275.972 729.652 277.804 728.227Z"/>
	<path fill="#FEFEFE" d="M277.804 728.227C299.109 732.37 335.279 750.245 348.896 767.238C345.3 767.28 337.39 760.07 334.07 757.747C321.61 749.028 294.435 734.118 279.757 732.405C277.395 732.129 275.232 732.458 272.918 732.867C274.452 731.125 275.972 729.652 277.804 728.227Z"/>
	<path fill="#7968BE" d="M575.755 279.057C584.411 278.264 592.043 279.775 599.431 284.48C605.611 288.415 613.048 294.606 614.514 302.136C615.624 307.839 610.828 323.968 607.751 328.791L607.266 328.323C606.299 324.739 604.815 321.59 602.74 318.528C594.715 306.687 580.328 299.254 566.579 296.569C569.34 290.577 572.185 284.617 575.755 279.057Z"/>
	<path fill="#FEFEFE" d="M318.271 271.437C324.371 271.732 333.046 275.117 340.021 275.842C349.188 276.794 358.531 275.249 367.666 275.863L367.575 276.573C352.796 282.896 332.471 277.019 318.271 271.437Z"/>
	<path fill="#FEFEFE" d="M618.406 196.556C622.337 196.376 628.529 195.635 631.744 198.237C632.684 198.998 633.661 200.052 633.876 201.269L632.866 201.276C627.496 199.937 621.881 199.621 616.4 198.888L616.41 198.24L618.406 196.556Z"/>
</svg>
