<?xml version="1.0" encoding="utf-8" ?>
<svg xmlns="http://www.w3.org/2000/svg" xmlns:xlink="http://www.w3.org/1999/xlink" width="1024" height="1024">
	<defs>
		<linearGradient id="gradient_0" gradientUnits="userSpaceOnUse" x1="467.60782" y1="991.08545" x2="612.87823" y2="153.50102">
			<stop offset="0" stop-color="black"/>
			<stop offset="1" stop-color="#080622"/>
		</linearGradient>
	</defs>
	<path fill="url(#gradient_0)" d="M0 0L207.189 0L215.099 0L245.645 0L253.18 0L278.224 0L330.176 0L356.378 0L364.086 0L1024 0L1024 1024L972.196 1024L963.88 1024L899.376 1024L877.884 1024L687.554 1024L654.342 1024L0 1024L0 819.032L0 646.88L0 641.52L0 241.003L0 234.533L0 205.821L0 198.381L0 0Z"/>
	<path fill="#9F8BE8" d="M278.224 0L330.176 0L356.378 0L364.086 0L1024 0L1024 1024L972.196 1024C980.967 1018.06 997.834 1010.98 1004.23 1003.69C1005.02 1000.89 999.958 994.113 998.423 991.714C993.637 984.232 988.223 976.989 983.712 969.371C978.199 960.058 973.478 950.025 968.478 940.419Q964.63 933.079 960.936 925.661Q957.243 918.242 953.706 910.747Q950.169 903.253 946.79 895.686Q943.411 888.118 940.192 880.482Q936.973 872.845 933.915 865.143Q930.856 857.441 927.96 849.676Q925.064 841.911 922.332 834.087Q919.6 826.263 917.032 818.384Q914.465 810.504 912.063 802.573Q909.661 794.641 907.427 786.661Q905.192 778.68 903.126 770.655Q901.059 762.629 899.161 754.562Q897.263 746.495 895.535 738.39Q893.807 730.285 892.25 722.145Q890.692 714.006 889.306 705.835Q887.92 697.665 886.705 689.467C884.718 676.272 882.421 663.006 881.279 649.711C888.592 647.162 896.228 645.037 902.79 640.823C905.024 631.23 905.238 620.512 905.981 610.69Q909.181 572.501 908.939 534.178Q908.637 499.359 905.305 464.699C904.317 455.333 902.133 446.099 901.209 436.763C899.636 420.882 901.697 410.493 896.258 394.011C890.235 375.756 881.03 362.059 867.325 348.739C867.873 345.909 868.318 343.048 867.43 340.238C866.009 335.741 862.58 333.233 858.61 331.069C857.649 328.399 856.927 325.618 856.125 322.896C869.704 313.614 894.023 281.521 900.888 266.125C905.348 256.124 907.49 245.364 903.314 234.895C896.794 218.545 879.286 206.381 863.676 199.75C848.529 193.315 820.556 188.102 804.905 194.723C802.068 195.923 799.452 197.874 798.364 200.861C796.994 204.628 798.303 208.192 799.956 211.608C784.03 221.573 784.133 234.771 780.274 251.089L780.115 251.744C775.694 256.364 766.592 259.782 765.459 266.621C764.677 271.338 767.867 275.871 770.451 279.533C769.639 289.114 768.448 300.569 770.56 309.95C773.124 321.335 790.394 323.052 799.11 328.404L799.732 328.79C798.729 332.76 797.885 336.982 796.075 340.678C793.401 346.134 788.538 350.587 784.731 355.292Q777.901 363.755 772.65 373.278C758.037 399.666 749.718 428.498 742.943 457.708C739.651 429.105 727.793 381.432 707.672 360.324C710.374 359.476 713.088 358.643 715.653 357.43C720.614 355.083 724.438 351.881 726.335 346.642C732.725 345.816 738.614 345.161 744.016 341.212C748.592 337.866 752.253 332.592 752.982 326.891C753.775 320.701 750.923 316.256 747.286 311.645C748.889 309.871 750.292 308.185 751.384 306.035C753.804 301.276 754.468 295.783 752.632 290.707C750.485 284.768 745.701 281.426 740.184 278.96C736.774 271.815 736.86 264.121 730.964 258.108C726.221 253.271 720.062 252.611 713.659 252.67C711.072 247.513 707.66 243.545 702.537 240.75C694.718 236.484 687.07 236.655 678.773 239.079C676.561 237.722 674.331 237.008 671.73 236.914C665.066 236.674 659.747 240.476 655.025 244.703Q653.412 243.912 651.763 243.201C645.914 240.722 639.761 241.217 633.976 243.594C620.947 248.946 610.186 263.114 605.105 275.831C601.922 288.248 603.267 298.073 608.729 309.519C610.065 312.197 611.296 315.059 612.835 317.618C610.436 319.189 606.814 320.925 606.133 323.984C605.828 325.351 606.129 326.45 606.945 327.581C608.631 329.918 610.688 330.657 612.081 333.482C616.791 343.027 624.975 358.379 635.797 361.746C640.31 363.149 645.456 362.659 650.114 362.488C651.311 364.285 652.559 366.065 653.654 367.926C647.567 371.917 643.686 375.987 642.17 383.366C641.42 387.011 641.351 390.814 641.272 394.523C631.127 411.138 619.981 427.174 611.198 444.595C608.268 450.407 606.103 456.379 603.543 462.326C598.514 456.814 591.692 446.28 586.109 442.433C584.436 441.28 582.241 440.833 580.248 440.741C568.113 440.181 554.77 447.431 543.464 448.163C542.256 448.751 540.93 448.914 539.607 449.005C538.223 447.499 539.303 445.816 538.084 444.162C537.352 423.795 537.93 403.195 537.92 382.806L538.155 267.373C537.557 256.357 538.111 244.966 538.102 233.91C532.025 226.94 523.97 220.924 517.027 214.789C502.833 202.246 488.548 189.771 474.52 177.044L343.993 59.8398C322.017 40.0572 299.556 20.472 278.224 0Z"/>
	<path fill="#070430" d="M278.224 0L330.176 0C354.925 24.2237 381.256 46.8561 407.125 69.8704L525.076 175.234Q546.55 194.48 567.823 213.948C573.185 218.853 583.753 227.707 587.734 233.12C586.766 235.429 583.931 236.073 582.257 237.812C576.405 237.084 547.053 232.451 544.086 233.772L543.593 235.94C543.357 234.3 543.533 233.957 542.242 232.834C540.931 232.593 540.908 232.631 539.719 233.247C536.513 237.997 540.601 262.809 538.155 267.373C537.557 256.357 538.111 244.966 538.102 233.91C532.025 226.94 523.97 220.924 517.027 214.789C502.833 202.246 488.548 189.771 474.52 177.044L343.993 59.8398C322.017 40.0572 299.556 20.472 278.224 0Z"/>
	<path fill="#9F8BE8" d="M330.176 0L356.378 0C367.157 9.25985 377.54 18.9598 388.145 28.4152L449.796 83.5789L617.89 235.403C612.514 235.429 594.264 236.705 590.453 235.211C589.488 234.832 588.819 234.183 588.089 233.474C587.969 233.358 587.852 233.238 587.734 233.12C583.753 227.707 573.185 218.853 567.823 213.948Q546.55 194.48 525.076 175.234L407.125 69.8704C381.256 46.8561 354.925 24.2237 330.176 0Z"/>
	<path d="M356.378 0L364.086 0C378.231 11.7925 391.696 24.4247 405.47 36.648L506.145 126.875Q551.475 166.987 595.837 208.166C604.426 216.231 615.277 225.332 623.172 233.556C624.198 234.625 625.036 235.359 625.199 236.898C624.791 238.219 624.712 238.62 623.5 239.433C620.132 241.695 591.578 241.563 587.089 240.096C585.42 239.551 583.802 238.631 582.257 237.812C583.931 236.073 586.766 235.429 587.734 233.12C587.852 233.238 587.969 233.358 588.089 233.474C588.819 234.183 589.488 234.832 590.453 235.211C594.264 236.705 612.514 235.429 617.89 235.403L449.796 83.5789L388.145 28.4152C377.54 18.9598 367.157 9.25985 356.378 0Z"/>
	<path d="M538.155 267.373C540.601 262.809 536.513 237.997 539.719 233.247C540.908 232.631 540.931 232.593 542.242 232.834C543.533 233.957 543.357 234.3 543.593 235.94L543.464 448.163C542.256 448.751 540.93 448.914 539.607 449.005C538.223 447.499 539.303 445.816 538.084 444.162C537.352 423.795 537.93 403.195 537.92 382.806L538.155 267.373Z"/>
	<path fill="#9F8BE8" d="M0 0L207.189 0L215.099 0L245.645 0L253.18 0L278.224 0C299.556 20.472 322.017 40.0572 343.993 59.8398L474.52 177.044C488.548 189.771 502.833 202.246 517.027 214.789C523.97 220.924 532.025 226.94 538.102 233.91C538.111 244.966 537.557 256.357 538.155 267.373L537.92 382.806C537.93 403.195 537.352 423.795 538.084 444.162C538.061 446.129 538.003 448.101 538.023 450.067C531.212 451.838 517.362 456.733 513.529 463.046C512.515 464.716 512.217 466.559 512.692 468.457C514.38 475.192 532.705 492.835 537.879 499.729L537.498 612.012C513.099 613.02 488.757 614.895 464.384 616.332L270.704 628.186L270.954 393.133L270.945 315.877C270.956 302.899 271.542 289.653 270.935 276.708C270.866 275.251 270.466 274.396 269.548 273.253C267.819 272.468 265.566 272.516 263.681 272.475C248.973 272.161 234.194 272.47 219.48 272.48L128.57 272.529L82.7757 272.49C74.2157 272.483 62.6156 271.292 54.4649 273.51C53.6975 274.317 53.3267 275.018 53.1759 276.139C52.7294 279.46 53.0479 283.281 53.0417 286.65L53.0174 308.036L53.0153 384.287L53.2449 638.698C35.6162 639.822 17.6529 641.381 0 641.52L0 241.003L0 234.533L0 205.821L0 198.381L0 0Z"/>
	<path fill="#9F8BE8" d="M0 0L207.189 0Q162.583 43.7545 116.985 86.473C103.764 99.0166 90.9932 112.031 77.7353 124.526Q38.5958 161.168 0 198.381L0 0Z"/>
	<path fill="#9F8BE8" d="M207.189 0L215.099 0L245.645 0C232.649 13.4055 218.774 26.0564 205.264 38.9458L121.257 118.49L22.9793 212.004C15.1811 219.346 7.91689 227.356 0 234.533L0 205.821L0 198.381Q38.5957 161.168 77.7353 124.526C90.9932 112.031 103.764 99.0166 116.985 86.473Q162.583 43.7543 207.189 0Z"/>
	<path d="M207.189 0L215.099 0C205.57 9.80403 195.48 19.0613 185.64 28.5502L105.688 104.61L41.8609 165.749Q29.1576 178.116 16.2808 190.302C10.9 195.483 5.64053 200.928 0 205.821L0 198.381Q38.5957 161.168 77.7353 124.526C90.9932 112.031 103.764 99.0166 116.985 86.473Q162.583 43.7543 207.189 0Z"/>
	<path d="M245.645 0L253.18 0C235.954 17.2227 218.192 33.8417 200.617 50.6984L89.8773 155.784L28.7376 214.176C19.2897 223.123 9.98396 232.662 0 241.003L0 234.533C7.91689 227.356 15.1811 219.346 22.9793 212.004L121.257 118.49L205.264 38.9458C218.774 26.0564 232.649 13.4055 245.645 0Z"/>
	<path d="M365.007 272.745L448.368 272.52C457.031 272.496 476.808 271.434 484.167 273.015C484.883 274.883 484.769 277.291 484.804 279.294C485.099 296.013 484.739 312.79 484.704 329.516L484.565 431.054L484.696 476.491C484.735 485.681 485.584 495.753 484 504.803C480.375 506.687 458.57 506.559 453.124 506.787L381.765 510.103C367.646 510.775 353.267 512.217 339.154 511.992C338.282 511.429 338.421 511.511 338.17 510.565C336.422 503.989 337.497 472.624 337.495 463.703L337.522 342.106C337.529 334.35 336.538 277.473 338.479 273.971C343.805 271.581 358.726 272.754 365.007 272.745Z"/>
	<path fill="#9F8BE8" d="M450.434 277.756C460.157 277.594 469.888 277.621 479.612 277.581Q479.352 318.533 479.508 359.485L479.684 500.795Q425.087 502.525 370.541 505.44C361.154 505.487 351.649 506.344 342.289 507.088L342.506 277.911C378.459 278.331 414.476 277.878 450.434 277.756Z"/>
	<path d="M397.713 393.788C399.12 393.679 400.532 393.564 401.943 393.529C403.561 393.49 404.564 393.858 405.75 394.995C407.44 401.568 406.05 431.636 406.028 441.144C405.993 456.257 406.643 471.479 406.344 486.572C406.301 488.75 406.202 490.847 405.598 492.955C401.105 495.538 368.027 495.648 360.624 495.957C357.607 496.104 354.585 496.119 351.565 496.157C351.004 484.432 351.394 472.553 351.381 460.803L351.256 395.647C366.333 393.568 382.462 394.525 397.713 393.788Z"/>
	<path fill="#9F8BE8" d="M383.693 399.282C389.542 398.984 395.373 398.907 401.229 398.868L401.141 488.995L373.376 490.214Q364.929 490.51 356.493 491.026L356.476 400.039Q370.087 399.744 383.693 399.282Z"/>
	<path d="M449.035 392.781C454.146 392.478 463.964 391.301 468.598 393.033C469.274 394.563 469.29 396.28 469.341 397.933C469.899 416.063 469.384 434.376 469.448 452.524C469.484 462.7 470.412 477.467 469.367 487.193C469.215 488.615 468.813 489.911 467.714 490.904C465.64 492.78 439.688 492.502 434.554 492.63C428.398 493.041 422.263 493.465 416.09 493.507C415.324 485.917 415.647 478.081 415.629 470.456L415.555 433.179C415.539 424.734 414.516 402.064 415.909 394.874C418.503 392.609 444.175 392.99 449.035 392.781Z"/>
	<path fill="#9F8BE8" d="M462.255 397.72C463.582 397.734 462.98 397.559 464.072 398.197C465.321 401.847 464.366 475.665 464.271 486.499C450.492 486.721 436.654 487.626 422.875 488.124C421.917 488.14 421.78 488.106 420.968 487.715C420.108 478.21 420.814 468.151 420.761 458.585L420.507 398.564C434.417 398.538 448.348 398.057 462.255 397.72Z"/>
	<path d="M351.611 288.156C357.161 287.882 401.692 287.205 404.714 288.179C405.287 288.363 405.185 288.35 405.485 288.927C406.304 290.506 406.39 292.754 406.441 294.522C406.83 308.069 406.181 321.775 406.183 335.344C406.185 350.632 406.838 366.152 406.108 381.407C406.053 382.539 405.871 383.423 405.483 384.488C397.583 384.415 356.669 385.572 352.446 384.175C351.651 382.788 351.749 381.028 351.697 379.462C351.211 364.846 351.865 350.098 351.75 335.463C351.627 319.832 350.699 303.737 351.611 288.156Z"/>
	<path fill="#9F8BE8" d="M356.53 293.099L401.102 292.957Q400.894 322.138 401.168 351.317C401.204 359.859 402.189 371.183 400.851 379.421Q378.689 379.285 356.536 379.929L356.53 293.099Z"/>
	<path d="M435.282 287.75C443.829 287.642 452.401 287.405 460.947 287.488C463.11 287.508 466.713 287.207 468.304 288.835C468.98 290.686 469.274 292.498 469.364 294.463C469.817 304.301 469.964 377.51 468.674 381.771C465.01 384.302 454.397 383.244 449.634 383.359Q432.499 383.479 415.37 383.978C415.091 364.128 415.523 344.215 415.502 324.357C415.493 315.242 414.396 297.079 416.125 288.815C418.331 287.134 431.762 287.77 435.282 287.75Z"/>
	<path fill="#9F8BE8" d="M440.996 292.75Q452.48 292.618 463.961 292.913Q464.431 335.37 464.448 377.829L444.262 378.221C436.356 378.54 428.416 378.521 420.503 378.631L420.497 292.884L440.996 292.75Z"/>
	<path d="M275.687 84.1922C276.007 84.1596 276.327 84.1226 276.647 84.0945C291.929 82.7503 307.647 89.4543 319.224 99.0535C340.431 116.638 354.161 148.368 356.5 175.626C356.708 178.044 356.741 180.35 355.098 182.273C348.799 184.132 331.291 182.747 324.151 182.669L288.25 182.526C278.867 182.493 209.644 183.04 207.488 181.852C206.669 180.734 206.309 179.906 206.142 178.517C205.664 174.534 206.514 170.234 207.051 166.276C209.827 145.806 216.8 126.108 229.825 109.829C241.469 95.2772 257.206 86.2765 275.687 84.1922Z"/>
	<path fill="#9F8BE8" d="M274.41 89.6791C287.939 88.5031 300.982 92.3207 311.999 100.243C336.813 118.084 346.817 148.687 351.494 177.575C330.659 178.19 309.72 177.715 288.875 177.612L211.468 177.181C211.111 156.047 219.235 132.325 231.932 115.504C242.803 101.102 256.522 92.1807 274.41 89.6791Z"/>
	<path d="M275.118 97.1648C287.508 95.4015 298.916 99.7522 308.737 107.033C323.007 117.613 332.122 132.85 337.622 149.52C339.012 153.735 340.51 158.304 341.062 162.722C341.332 164.887 341.436 166.83 340.021 168.635C334.867 171.092 296.301 169.865 287.75 169.847C279.594 169.853 227.379 170.864 222.399 168.869C221.539 167.945 221.08 167.246 220.913 165.963C220.511 162.884 221.47 159.349 222.187 156.368C225.446 142.816 231.277 129.419 239.737 118.251C247.882 107.498 261.755 99.0168 275.118 97.1648Z"/>
	<path fill="#9F8BE8" d="M277.545 102.168C278.851 102.185 278.887 102.056 279.815 102.946C280.511 123.379 279.878 144.114 279.804 164.568L228.875 164.423C228.036 164.392 227.541 164.296 226.753 164.068L226.312 162.866C228.354 148.723 234.317 133.885 243.138 122.637C251.739 111.669 263.6 103.925 277.545 102.168Z"/>
	<path fill="#9F8BE8" d="M285.467 102.593C293.784 103.874 300.884 107.489 307.45 112.686C321.085 123.48 334.421 147.565 336.369 164.731Q310.703 164.485 285.036 164.544L285.467 102.593Z"/>
	<path fill="#9F8BE8" d="M543.486 506.376C548.687 512.523 554.025 518.596 559.053 524.883C558.209 526.578 556.913 528.807 557.463 530.785C558.294 533.777 562.086 535.045 562.844 538.631C563.595 542.179 569.914 546.942 572.975 548.898C581.2 554.154 593.762 556.239 603.061 559.406C600.681 572.818 597.696 586.154 594.929 599.491C593.68 605.512 591.885 611.815 591.283 617.922C591.101 619.772 590.756 622.564 591.878 624.169C594.928 628.533 604.089 630.188 608.864 632.016L558.746 815.704Q548.073 855.166 539.035 895.034C536.515 905.814 531.886 922.82 530.714 933.249C530.49 935.238 530.443 937.382 531.385 939.209C532.996 942.336 539.907 942.858 538.692 946.252C537.965 948.287 535.934 949.61 533.988 950.289C525.402 953.284 503.179 951.188 493.503 950.298C488.709 949.857 483.461 948.828 478.663 949.282C475.638 949.569 471.63 950.443 469.982 953.317C469.315 954.481 469.086 956.151 469.406 957.455C471.267 965.035 491.438 976.956 498.108 980.058C511.254 986.171 526.124 988.458 540.479 989.702C546.533 990.226 552.876 990.259 558.792 991.718C564.585 993.147 570.298 999.085 575.7 1001.92C603.438 1016.47 624.05 1019.32 654.777 1017.92C654.612 1019.94 654.401 1021.97 654.342 1024L0 1024L0 819.032L0 646.88C17.6664 645.932 35.507 644.7 53.1804 644.336C52.8991 657.182 51.8822 751.777 53.6282 754.59C61.3686 762.706 68.5234 771.347 76.2554 779.453C85.6493 789.302 95.6657 798.444 105.479 807.855C111.94 814.05 118.231 820.786 125.355 826.225Q195.666 816.893 266.096 808.514L310.388 803.079C317.6 802.19 325.094 801.673 332.236 800.374C333.153 800.207 334.797 800.085 335.392 799.316C337.457 796.647 336.495 789.346 336.423 786.06C336.423 780.898 336.435 775.749 336.149 770.591C331.8 766.414 318.25 759.83 312.277 756.072C298.261 747.251 284.728 737.677 270.706 728.856C269.83 697.195 270.827 665.286 270.698 633.596C286.915 631.75 303.45 631.218 319.746 630.339L385.099 626.506L483.249 620.49C501.377 619.38 519.505 617.897 537.661 617.336L537.623 714.175L537.584 742.659C537.577 748.629 537.276 754.759 537.934 760.693C539.45 760.589 541.102 760.731 542.302 759.685C542.647 758.997 542.85 758.409 542.895 757.633C543.437 748.374 543.05 738.877 543.052 729.595L543.07 678.036L543.486 506.376Z"/>
	<path fill="#9F8BE8" d="M805.108 757.705C826.457 820.513 862.916 887.992 899.47 943.291C906.235 953.525 913.727 963.475 921.196 973.204C924.68 977.743 928.871 982.237 931.867 987.071C927.13 1000.39 918.063 1009.31 905.336 1015.44C896.65 1019.62 886.448 1019.9 877.884 1024L687.554 1024C690.537 1014.13 691.664 1003.77 694.676 994.013C701.439 972.1 711.392 949.723 720.417 928.624C725.716 916.237 732.063 900.059 738.668 888.691Q752.926 911.928 768.133 934.555C770.963 938.727 773.528 943.693 776.751 947.524C777.678 948.626 778.279 949.065 779.69 949.4Q780.62 949.62 781.56 949.791C782.606 952.897 778.342 960.98 776.883 963.912C774.119 969.471 770.005 974.997 765.125 978.873C760.908 982.223 745.51 986.626 747.389 993.303C748.008 995.503 750.381 996.79 752.327 997.628C763.516 1002.44 777.859 999.889 788.718 995.342Q791.69 994.127 794.476 992.532Q797.262 990.936 799.814 988.988C806.97 983.532 827.289 963.959 830.613 956.388C831.366 954.672 831.531 953.201 830.822 951.429C827.522 943.187 819.545 936.719 815.677 928.68Q803.19 902.141 792.407 874.865Q781.623 847.59 772.586 819.687Q782.186 800.728 792.029 781.894C796.217 773.859 800.314 765.386 805.108 757.705Z"/>
	<path fill="#070430" d="M979.925 971.998C984.157 976.586 987.015 982.479 990.471 987.677C993.779 992.651 997.481 997.367 1000.44 1002.56C997.985 1004.66 994.409 1006.17 991.579 1007.76C985.541 1011.14 979.612 1014.7 973.628 1018.18C970.407 1020.05 966.74 1021.62 963.88 1024L899.376 1024C899.504 1023.92 899.631 1023.83 899.76 1023.75C903.052 1021.62 906.711 1020.06 910.164 1018.22C924.44 1010.59 930.195 1004.8 936.247 989.995C949.346 989.632 968.13 978.068 979.925 971.998Z"/>
	<path fill="#070430" d="M606.495 286.177C606.451 294.663 610.182 308.867 616.039 315.093L616.804 315.34C619.603 310.073 616.395 294.957 619.048 287.282C620.138 284.129 622.356 280.605 624.179 277.805C624.099 277.932 624.016 278.058 623.939 278.187C621.806 281.716 619.869 286.894 619.187 290.953C618.606 294.412 618.801 314.375 617.888 315.305C617.106 316.102 615.168 316.49 614.147 316.831C613.311 317.11 613.612 316.989 612.835 317.618C611.296 315.059 610.065 312.197 608.729 309.519C608.928 309.334 609.152 309.173 609.327 308.964C611.543 306.316 605.902 294.297 605.682 290.002C605.602 288.453 605.49 287.355 606.495 286.177Z"/>
	<path fill="#9F8BE8" d="M58.2343 277.663C78.4314 277.274 98.776 277.945 118.992 278.005Q192.227 278.358 265.458 277.638L265.563 729.483C260.121 730.785 254.437 731.135 248.879 731.67L144.41 741.778Q113.881 745.067 83.2781 747.57C75.0314 748.267 66.8112 749.317 58.5393 749.667L58.2343 277.663Z"/>
	<path d="M144.141 403.75C148.1 403.625 154.972 402.362 158.264 404.633C159.922 415.298 158.809 435.038 158.779 446.464C158.74 460.849 159.589 475.659 158.733 489.982C158.668 491.065 158.531 491.782 157.951 492.724C157.089 493.397 156.436 493.56 155.377 493.685C148.859 494.454 141.825 494.179 135.234 494.298C123.13 494.518 111.064 494.734 98.9735 495.395C95.0288 495.531 87.8664 496.737 84.4968 494.597C83.7483 493.275 83.7231 491.847 83.6731 490.358C83.0931 473.076 83.8216 455.594 83.9 438.294C83.9387 429.751 82.7306 413.332 84.5315 405.7C89.0612 403.775 135.897 403.908 144.141 403.75Z"/>
	<path fill="#9F8BE8" d="M146.759 408.723L153.509 408.58L153.725 488.66C135.081 489.835 116.306 489.433 97.6249 490.436L88.9172 490.689Q89.2114 450.273 89.0556 409.857Q117.911 409.462 146.759 408.723Z"/>
	<path d="M134.918 303.25C140.819 303.192 152.773 301.905 157.735 304.366C158.504 305.598 158.636 306.737 158.78 308.152C159.221 312.466 158.886 317.066 158.858 321.406L158.736 346.121C158.715 359.169 159.745 372.673 158.95 385.649C158.834 387.556 158.703 389.813 157.454 391.345C151.033 393.362 116.248 392.884 107.519 393.055C101.751 393.265 89.5007 394.877 84.592 392.356C83.1806 389.484 83.2878 309.686 84.46 304.26C86.7459 302.533 128.579 303.27 134.918 303.25Z"/>
	<path fill="#9F8BE8" d="M89.1963 308.521C110.66 308.187 132.176 308.535 153.647 308.51Q153.512 344.63 154.031 380.747L154.863 381.009L153.793 381.071C153.887 382.947 154.284 385.078 153.6 386.861L153.37 386.471L153.22 387.141L153.023 387.041C131.763 387.979 110.39 388.009 89.1068 388.422L89.1963 308.521Z"/>
	<path d="M226.383 401.722C229.475 401.596 232.623 401.374 235.716 401.521C237.716 401.616 239.42 401.798 240.83 403.337C241.958 410.721 241.118 425.736 241.157 433.735L241.234 467.78C241.269 474.106 241.619 480.6 241.293 486.911C241.238 487.967 241.049 488.62 240.458 489.526C239.545 490.237 238.885 490.503 237.731 490.665C231.927 491.481 225.605 491.187 219.711 491.387L183.875 492.676C179.524 492.883 172.117 494.137 168.273 492.055C167.927 491.346 167.708 490.695 167.594 489.912C166.374 481.59 167.32 464.065 167.328 454.849C167.342 439.938 166.462 424.63 167.211 409.777C167.294 408.125 167.344 405.349 168.52 404.05C169.408 403.07 220.615 401.935 226.383 401.722Z"/>
	<path fill="#9F8BE8" d="M221.249 407.281C226.073 406.995 230.925 407.019 235.757 406.952L235.938 485.663C219.351 486.775 202.482 487.068 185.858 487.597C181.445 488.004 176.972 488.06 172.543 488.237L172.59 408.591L221.249 407.281Z"/>
	<path d="M167.873 303.46C181.608 303.108 195.386 303.339 209.127 303.346C219.531 303.351 230.026 302.995 240.414 303.571C241.188 313.365 240.732 323.522 240.786 333.356C240.874 349.44 241.124 365.545 240.99 381.627C240.963 384.877 241.506 388.057 239.057 390.458C224.584 391.172 210.039 391.198 195.551 391.551C187.652 391.744 178.476 392.886 170.704 391.808C169.678 391.665 168.736 391.666 168.208 390.644C167.418 389.114 167.318 386.798 167.258 385.089C166.821 372.555 167.421 359.826 167.373 347.265L167.272 320.928C167.255 315.367 166.635 308.877 167.873 303.46Z"/>
	<path fill="#9F8BE8" d="M172.497 308.429Q204.098 308.576 235.699 308.337L235.838 359.572C235.838 367.964 236.532 377.21 235.423 385.504C214.451 385.578 193.451 386.442 172.476 386.791L172.497 308.429Z"/>
	<path d="M76.8144 288.754C96.9835 288.28 117.242 288.656 137.418 288.648L237.833 288.393C241.84 288.382 251.595 287.279 254.348 290.018C255.356 300.856 254.644 312.279 254.627 323.187L254.613 386.241L254.809 619.242C254.83 628.091 255.671 700.953 254.421 703.465C254.134 704.042 253.339 704.425 252.724 704.519C251.389 704.722 250.916 704.296 250.023 703.488C248.501 699.396 249.475 611.67 249.469 600.214L249.259 293.93L237.5 293.983L75.0566 294.018L75.4165 581.62L75.5169 668.838C75.533 682.317 76.0149 696.007 75.6067 709.459C75.5317 711.932 75.5207 714.445 73.6396 716.218L72.3843 715.957C70.8885 714.525 70.4516 713.991 70.2775 711.929C69.8152 706.451 70.0843 700.711 70.0617 695.21L70.048 662.886L69.9829 571.695L69.8708 295.716C69.8806 293.547 69.6429 291.449 71.151 289.707C72.8671 288.712 74.8837 288.843 76.8144 288.754Z"/>
	<path fill="#FEFEFE" d="M774.815 597.67C775.996 597.442 776.747 597.244 777.932 597.585C779.692 602.879 777.419 643.609 778.022 653.683C778.14 655.658 778.333 657.206 779.977 658.477C782.562 660.474 787.944 660.68 791.104 660.968C812.238 662.891 832.822 659.925 853.601 656.444C834.645 693.927 813.443 730.276 793.733 767.36Q778.6 795.952 763.994 824.816C758.086 836.323 751.904 847.705 746.282 859.356Q722.687 908.696 701.985 959.318Q696.375 973.838 691.229 988.529C675.725 988.789 658.883 986.276 645.628 977.728Q672.459 864.415 703.217 752.105L731.078 655.996C736.331 637.453 742.218 618.865 745.356 599.829C755.331 599.606 764.932 599.089 774.815 597.67Z"/>
	<path fill="#9F8BE8" d="M613.857 633.27C618.284 634.966 623.068 636.117 627.61 637.495C636.764 640.271 645.889 643.106 654.841 646.487C673.623 653.581 691.716 663.646 709.617 672.698C694.623 697.366 681.189 723.169 667.487 748.571C659.836 762.755 651.938 776.837 644.51 791.139Q614.496 848.76 589.553 908.75Q584.356 922.108 579.43 935.569C577.531 940.671 575.883 946.227 573.241 950.991C567.756 948.888 561.965 947.534 556.4 945.635C549.241 943.193 542.517 939.999 535.774 936.614C536.965 926.792 539.472 916.917 541.627 907.263Q548.232 878.365 555.538 849.636Q569.635 794.15 584.815 738.95C594.656 703.804 605.085 668.699 613.857 633.27Z"/>
	<path fill="#FEFEFE" d="M855.876 351.214C858.125 351.207 860.204 351.484 862.417 351.869Q864.075 353.15 865.615 354.571C884.318 371.533 894.344 395.902 895.49 420.894C896.049 433.085 894.604 445.34 893.025 457.412C890.483 476.856 878.961 545.208 865.981 559.003C847.387 578.765 780.229 594.268 753.217 595.086C744.788 583.61 741.621 565.383 742.524 551.418C742.665 549.245 743.042 546.284 744.468 544.53C749.481 538.361 801.018 522.235 812.096 512.059C812.219 511.946 812.336 511.827 812.456 511.711C813.078 508.481 813.325 505.203 813.631 501.931C817.353 468.036 822.882 433.407 831.457 400.388C833.404 392.887 836.332 385.695 838.436 378.252C839.08 375.973 839.779 373.093 838.567 370.911C837.387 370.488 837.434 370.524 836.266 370.998C833.433 374.031 833.03 378.331 831.668 382.103C821.278 410.893 815.381 449.274 811.05 479.98C809.704 489.52 809.184 499.319 807.387 508.771L807.257 509.425C800.001 513.417 792.352 516.707 784.777 520.032C785.347 510.7 786.329 501.357 787.129 492.039C790.254 455.642 795.468 402.561 819.521 373.262C828.846 361.903 840.818 352.739 855.876 351.214Z"/>
	<path fill="#9F8BE8" d="M875.136 651.596C875.935 651.873 875.917 652.067 875.995 652.656C877.817 666.586 880.102 680.461 882.047 694.376C892.342 768.044 917.096 846.901 948.91 914.168C957.398 932.115 967.139 949.654 976.66 967.078C963.91 973.958 950.484 980.083 936.735 984.677C933.208 979.524 929.175 974.605 925.394 969.63Q916.163 957.178 907.393 944.397Q898.622 931.616 890.323 918.524Q882.024 905.432 874.208 892.046Q866.392 878.661 859.069 864.999Q851.746 851.337 844.926 837.417Q838.106 823.497 831.798 809.338Q825.49 795.179 819.702 780.8Q813.915 766.42 808.655 751.839C824.708 719.054 844.479 688.085 860.402 655.223C865.367 654.159 870.241 652.941 875.136 651.596Z"/>
	<path fill="#9F8BE8" d="M705.157 381.594C706.98 381.476 708.837 381.315 710.664 381.385C712.792 381.465 714.447 381.812 715.894 383.472C727.284 396.536 739.735 456.945 738.613 474.574C738.13 482.179 736.294 489.924 735.063 497.458C732.488 513.217 729.973 529.113 729.086 545.067C723.255 548.044 717.316 550.299 713.884 556.207C710.247 553.499 706.564 550.808 702.733 548.381C698.612 545.771 693.935 543.378 690.293 540.131C682.799 533.448 676.595 522.824 669.993 515.013C675.138 514.686 681.588 515.461 686.44 513.629C687.966 511.357 684.161 489.428 683.664 485.271C681.057 463.435 679.198 441.638 679.795 419.625C679.906 417.03 680.351 413.687 678.772 411.453C678.299 410.785 678.034 410.91 677.302 410.77C676.699 411.042 675.938 411.227 675.528 411.773C673.662 414.26 674.364 421.861 674.367 424.996C674.391 452.727 676.376 482.246 681.775 509.465C674.981 509.474 667.392 511.416 660.753 510.614C656.13 510.055 642.542 506.105 638.796 503.574C632.932 499.613 624.988 487.485 620.175 481.603C616.008 476.511 611.634 471.598 607.499 466.477C613.909 449.106 622.919 433.189 632.931 417.662C635.884 413.082 638.82 408.122 642.357 403.974C645.404 400.4 649.59 399.355 652.943 396.249C655.194 394.164 656.839 391.074 658.496 388.51C658.925 391.214 659.29 395.034 661.881 396.624C670.129 401.686 695.269 383.92 704.447 381.755L705.157 381.594Z"/>
	<path fill="#9F8BE8" d="M663.92 766.247C665.975 767.305 680.692 799.475 683.44 804.246C680.658 817.032 676.976 829.581 673.708 842.246L656.626 909.883Q651.433 931.238 646.571 952.671C644.683 960.745 643.093 969.121 640.33 976.938C622.901 980.739 604.352 980.095 586.632 979.445Q576.438 978.571 566.263 977.501C566.728 970.076 567.753 962.894 569.211 955.613C571.003 956.03 573.023 956.566 574.845 956.057C576.407 955.619 577.697 954.508 578.467 953.087C581.631 947.247 583.807 938.881 586.142 932.525Q593.258 912.566 601.63 893.1C620.317 849.959 641.696 807.669 663.92 766.247Z"/>
	<path fill="#FEFEFE" d="M898.342 457.424C900.361 461.067 900.884 475.932 901.201 480.533Q903.524 510.844 903.567 541.243Q903.609 571.642 901.371 601.959C900.518 613.761 899.999 625.769 898.029 637.44C869.636 651.081 821.576 659.413 790.308 655.808Q786.895 655.422 783.497 654.921C782.343 635.568 783.27 615.705 783.447 596.299C804.534 592.885 840.401 582.673 858.638 571.257C864.28 567.725 869.913 562.948 873.531 557.3C877.275 551.454 879.263 544.464 881.344 537.89Q885.038 526.19 887.889 514.256Q890.74 502.323 892.735 490.217C894.624 479.328 895.92 468.199 898.342 457.424Z"/>
	<path fill="#9F8BE8" d="M608.719 561.002C626.336 566.339 644.699 570.368 661.477 578.071C663.617 581.424 665.773 584.673 668.521 587.567C674.914 594.303 683.343 598.278 692.664 598.489C703.308 598.729 711.782 594.666 719.367 587.451C725.158 595.838 730.548 598.253 740.299 600.185C737.182 618.867 731.044 637.472 725.703 655.625C724.558 659.797 723.607 665.808 720.884 669.164C712.678 670.474 675.938 649.359 665.722 645.006C653.619 639.851 641.413 635.714 628.808 631.99C618.067 628.816 606.35 626.218 596.315 621.195C596.721 614.505 598.671 607.486 600.042 600.915Q604.256 580.931 608.719 561.002Z"/>
	<path fill="#9F8BE8" d="M805.935 213.916C815.918 215.449 824.564 219.012 830.682 227.42C833.117 230.767 834.648 234.288 835.795 238.246C835.72 238.42 835.648 238.596 835.57 238.769C833.283 243.869 827.153 248.797 829.193 254.873C830.116 257.624 832.37 259.728 834.357 261.746C833.743 265.853 832.712 269.735 831.352 273.658C828.863 272.271 826.005 270.744 823.018 271.354C822.239 271.512 822.083 271.622 821.433 271.923C821.108 272.826 820.913 272.812 821.321 273.788C821.89 275.148 822.49 275.572 823.877 276.013C825.181 276.427 826.681 276.372 828.037 276.493C829.066 276.585 828.68 276.477 829.537 277.039C829.508 277.22 829.477 277.4 829.45 277.581C829.179 279.417 828.982 281.182 830.218 282.758C831.388 284.251 833.054 284.316 834.773 284.392C838.896 281.819 843.796 268.937 849.725 270.564C851.019 270.919 852.031 272.08 852.566 273.268C854.223 276.947 852.812 281.742 851.312 285.25C849.883 288.593 847.665 292.519 844.059 293.834C842.42 294.432 841.195 294.119 839.559 293.751C838.296 293.467 837.928 293.262 836.774 293.971C835.78 294.583 835.134 295.614 834.828 296.704C835.345 298.014 835.79 298.452 837.095 299.051C840.938 300.817 843.547 300.675 847.563 300.043C848.417 310.218 850.377 320.103 852.083 330.156Q846.096 332.654 840.454 335.855Q834.812 339.057 829.597 342.915C821.498 348.859 804.25 368.041 794.315 367.082C793.683 366.681 793.254 366.634 793.058 365.849C790.493 355.543 811.518 329.536 802.48 323.319C793.757 317.319 778.032 319.397 775.376 306.54C774.699 303.264 774.574 297.934 775.271 294.69L775.448 292.948C774.439 288.126 775.888 281.77 776.964 277.006C774.473 275.752 771.532 273.932 770.545 271.13C769.992 269.558 770.127 268.117 770.873 266.653C773.33 261.832 780.721 259.049 784.851 255.681C784.906 255.51 784.963 255.339 785.015 255.167C786.39 250.605 786.636 245.674 787.431 240.982C789.381 229.473 795.105 219.974 805.426 214.18C805.593 214.087 805.765 214.004 805.935 213.916Z"/>
	<path d="M775.448 292.948L776.133 291.75C780.48 290.754 785.463 293.678 790.054 292.207C793.676 291.046 794.631 286.319 799.002 286.856C799.581 287.47 799.796 287.424 799.76 288.366C799.67 290.777 797.7 292.897 795.9 294.315C792.236 297.201 787.218 298.585 782.605 297.823C779.811 297.361 777.567 296.31 775.271 294.69L775.448 292.948Z"/>
	<path d="M798.672 256.214C799.865 256.169 801.06 256.145 802.252 256.244C805.692 256.532 810.943 257.477 812.945 260.675C813.646 261.796 813.436 262.241 813.031 263.35C811.811 263.812 811.542 263.704 810.24 263.456C806.249 262.109 796.218 261.418 794.275 260.467C793.731 260.201 793.376 259.655 792.927 259.249C792.817 258.681 792.53 258.225 792.93 257.734C794.216 256.154 796.842 256.298 798.672 256.214Z"/>
	<path fill="#9F8BE8" d="M269.093 734.714C273.034 735.771 304.815 757.723 311.562 761.997C288.362 765.952 263.223 767.411 239.666 769.82L105.122 783.379C99.9064 783.697 94.6823 784.31 89.4686 784.712C80.8239 778.095 68.1426 763.665 61.7593 754.705C73.8346 753.991 85.9568 752.511 98.0041 751.39Q137.211 747.85 176.38 743.904Q207.426 741.166 238.442 738.103C248.64 737.086 258.967 736.31 269.093 734.714Z"/>
	<path fill="#9F8BE8" d="M317.723 766.727C321.38 766.947 327.246 771.314 330.476 773.234C330.807 780.552 330.825 787.853 330.817 795.177C321.124 795.98 311.437 797.508 301.785 798.712L249.263 805.228C208.647 810.368 167.921 815.051 127.366 820.621C124.369 818.063 121.528 815.279 118.636 812.6C110.569 805.102 102.47 797.621 94.8226 789.692C107.311 789.01 119.88 787.272 132.324 785.978L193.769 779.719C235.055 775.476 276.605 772.304 317.723 766.727Z"/>
	<path fill="#FEFEFE" d="M586.293 462.844L638.611 520.642C650.521 533.935 662.099 547.606 674.79 560.164C668.733 562.845 664.545 564.051 661.834 570.562L661.526 571.291C661.466 571.437 661.408 571.585 661.349 571.731C643.122 565.974 625.058 560.048 606.587 555.079C604.292 554.462 599.465 553.848 597.625 552.719C597.404 552.583 597.322 552.298 597.17 552.088L597.564 551.044L596.838 550.4C591.465 550.238 587.077 547.716 581.881 547.213C581.065 547.133 580.601 547.093 579.87 546.66C579.921 546.555 588.382 539.494 588.927 539.09C590.568 537.871 592.573 536.926 594.652 537.33C595.384 537.472 596.106 537.661 596.844 537.794C596.028 536.818 595.371 536.172 594.335 535.44C590.24 532.547 586.821 525.69 583.277 523.199C580.292 521.101 577.91 523.351 574.926 519.395C574.058 518.244 573.302 517.439 571.749 517.375C568.981 517.261 565.72 519.93 563.151 520.905C555.917 514.017 549.47 505.745 543.077 498.065L519.667 470.034C528.575 470.013 537.603 468.636 546.447 467.632Q566.39 465.403 586.293 462.844Z"/>
	<path fill="#070430" d="M597.564 551.044L596.838 550.4C591.465 550.238 587.077 547.716 581.881 547.213C581.065 547.133 580.601 547.093 579.87 546.66C579.921 546.555 588.382 539.494 588.927 539.09C590.568 537.871 592.573 536.926 594.652 537.33C595.384 537.472 596.106 537.661 596.844 537.794C598.624 540.757 599.389 546.169 598.432 549.499C598.247 550.143 597.974 550.55 597.564 551.044Z"/>
	<path fill="#070430" d="M822.373 197.25C836.23 196.956 849.102 199.245 862.071 204.122C875.642 209.224 891.969 219.041 897.97 232.969C902.073 242.49 900.911 253.865 897.175 263.245C891.694 277.006 882.182 288.378 873.2 299.9C869.422 304.748 865.935 309.938 861.198 313.928C859.314 315.515 857.445 316.456 855.211 317.41C854.177 316.734 854.057 316.051 853.623 314.905C851.83 310.162 851.205 300.861 852.59 296.023C853.543 292.694 855.647 289.392 856.99 286.176C858.872 281.668 859.109 276.976 857.199 272.437C855.983 269.548 854.765 267.11 851.63 265.971C843.422 262.991 842.386 269.614 836.541 272.376C834.873 269.319 838.238 265.296 838.089 262.173C837.915 258.521 833.684 256.635 832.623 253.29C831.011 248.204 837.179 245.204 839.184 241.359C840.211 239.387 840.208 237.295 839.463 235.228C835.154 223.273 824.656 213.505 812.242 210.595C809.468 209.945 805.688 210.414 803.227 209.085C802.07 208.46 801.347 206.469 801.132 205.228C800.868 203.704 801.183 202.443 802.172 201.257C805.528 197.228 817.272 197.879 822.373 197.25Z"/>
	<path fill="#FEFEFE" d="M813.501 363.513C813.432 364.444 813.538 364.037 813.143 364.94C811.44 368.827 811.55 372.889 809.911 376.839C808.324 380.668 806.017 384.292 804.168 388.011C801.435 393.507 799.19 399.329 797.179 405.129C787.564 432.874 783.923 464.626 781.379 493.752C780.528 503.504 779.51 513.323 779.466 523.118C769.419 527.399 759.035 532.534 748.629 535.703C750.36 520.887 752.79 506.466 755.327 491.772C761.503 456.012 769.345 422.624 782.989 388.877C785.11 383.63 787.094 376.189 790.404 371.759C791.398 372.204 792.471 372.684 793.553 372.858C800.1 373.906 808.651 367.172 813.501 363.513Z"/>
	<path fill="#9F8BE8" d="M768.761 827.319C770.573 829.133 778.944 854.807 780.535 859.094C789.205 882.453 798.734 904.949 809.675 927.335C803.105 936.3 792.395 942.116 781.615 944.369C778.663 943.148 745.173 889.258 740.844 882.571C750.028 864.079 759.105 845.572 768.761 827.319Z"/>
	<path fill="#9F8BE8" d="M634.066 272.529C635.577 272.365 637.362 272.063 638.814 272.588C641.884 273.697 640.999 282.017 641.377 284.825Q641.645 286.712 642.204 288.535Q642.763 290.357 643.599 292.07C647.471 299.955 655.103 304.427 663.701 305.228C666.934 305.53 670.522 305.396 673.593 306.461C675.841 309.36 671.436 312.81 671.331 316.053C671.198 320.204 675.843 322.298 676.451 326.302C675.728 329.313 671.94 330.642 669.544 332.208C666.358 334.289 664.225 337.717 663.5 341.46C662.758 345.29 663.964 348.951 666.233 352.042C670.783 358.242 677.416 359.827 684.573 360.899C681.34 362.303 677.912 363.393 674.594 364.588C670.908 365.503 665.423 367.581 661.75 366.575C657.659 365.454 655.712 360.581 653.813 357.23C650.146 357.362 646.43 357.592 642.762 357.497C627.398 357.098 622.963 339.792 615.759 329.307C614.491 327.461 612.793 325.794 611.256 324.167C614.9 321.815 618.724 319.798 621.772 316.67C623.492 306.602 621.273 296.674 624.045 286.501C625.731 280.311 628.434 275.794 634.066 272.529Z"/>
	<path d="M644.549 324.359C644.935 324.469 645.342 324.574 645.709 324.736C647.123 325.359 647.219 325.529 647.817 326.883C647.721 330.327 645.691 332.949 643.596 335.531C639.592 340.464 635.245 344.071 628.756 344.743C627.325 344.196 626.415 343.853 625.681 342.498L626.093 341.317C627.819 339.932 630.233 339.867 632.316 339.288C638.243 337.643 641.777 329.274 644.549 324.359Z"/>
	<path d="M627.906 299.702C632.575 301.661 639.236 304.801 642.023 309.106C642.183 310.802 641.704 311.317 640.934 312.804C636.509 309.988 630.158 307.264 626.959 303.077C626.738 301.484 627.171 301.095 627.906 299.702Z"/>
	<path fill="#070430" d="M638.792 982.172C640.147 981.889 642.016 981.844 643.357 982.202C647.012 983.179 650.819 985.363 654.316 986.868C658.455 988.65 662.789 989.893 667.171 990.928C674.691 992.704 682.68 992.405 690.359 992.406C688.014 1002.45 686.271 1012.65 683.647 1022.62C675.162 1022.45 666.64 1021.2 658.122 1020.88C658.556 1018.38 659.275 1015.64 658.801 1013.12C647.568 1012.68 636.771 1014.09 625.476 1012.4L624.884 1012.31C606.044 1010.46 589.067 1003.39 572.832 994.016C569.647 992.178 565.278 990.092 562.867 987.275C561.985 986.243 561.771 985.705 561.85 984.373C563.397 982.899 564.953 982.859 567.001 982.822C573.556 982.703 580.352 983.766 586.939 984.068C604.228 984.86 621.67 984.831 638.792 982.172Z"/>
	<path fill="#9F8BE8" d="M714.986 674.522C715.731 674.513 716.503 674.479 717.248 674.536C718.506 674.632 719.098 674.677 719.96 675.615C718.976 680.8 717.012 685.93 715.502 690.989L706.396 721.608C698.934 746.887 692.239 772.388 685.148 797.775C684.054 794.538 682.65 791.461 681.25 788.348C676.804 778.814 671.999 769.468 667.362 760.027C670.931 751.487 676.478 743.029 680.964 734.876C692.101 714.635 703.658 694.653 714.986 674.522Z"/>
	<path fill="#9F8BE8" d="M688.531 548.296L689.262 548.68C689.391 548.638 689.516 548.584 689.648 548.554C690.568 548.343 692.85 548.351 693.731 548.638C696.974 549.696 708.257 558.597 713.251 560.986C713.335 567.866 715.163 574.746 717.312 581.247C711.911 587.717 705.681 592.226 697.048 593.044Q696.299 593.115 695.547 593.148Q694.795 593.181 694.043 593.176Q693.291 593.17 692.539 593.126Q691.788 593.083 691.04 593Q690.292 592.918 689.549 592.798Q688.806 592.678 688.071 592.52Q687.335 592.363 686.608 592.167Q685.881 591.972 685.165 591.74Q684.45 591.508 683.747 591.24Q683.043 590.972 682.355 590.669Q681.667 590.365 680.994 590.027Q680.322 589.688 679.668 589.316Q679.014 588.944 678.38 588.539Q677.746 588.134 677.133 587.697Q676.52 587.26 675.931 586.793Q675.341 586.325 674.776 585.828C671.599 583.06 667.527 578.462 667.124 574.169C666.961 572.429 667.516 570.843 668.682 569.55C671.39 566.546 683.288 563.491 682.977 559.805C682.875 558.594 682.459 558.061 681.824 557.069C684.652 554.521 685.892 550.95 688.531 548.296Z"/>
	<path fill="#FEFEFE" d="M788.309 359.391C788.527 361.024 788.047 362.566 787.524 364.11C785.279 370.749 782.066 377.225 779.352 383.698Q773.524 397.407 768.943 411.582C755.723 451.731 748.002 497.021 743.029 539.028C740.148 539.929 737.463 541.284 734.737 542.566C734.699 542.403 734.648 542.243 734.622 542.078C733.971 537.899 736.187 525.261 736.668 520.515C737.879 508.555 740.051 496.785 742.239 484.974C749.889 443.677 762.157 393.072 788.309 359.391Z"/>
	<path fill="#9F8BE8" d="M544.648 947.003C551.131 949.796 557.63 952.027 564.425 953.906C562.548 961.792 561.546 969.602 560.734 977.645C547.363 977.429 533.66 974.537 520.878 970.717C510.282 967.302 501.897 963.042 493.357 955.848C504.129 956.381 526.423 959.003 536.223 955.257C540.424 953.651 542.878 951.075 544.648 947.003Z"/>
	<path fill="#9F8BE8" d="M690.548 363.206C694.697 364.168 698.533 363.46 702.658 362.794C706.756 366.997 710.071 371.579 713.287 376.479C709.7 376.078 706.105 375.857 702.541 376.617C692.067 378.852 679.486 390.018 666.947 392.106C665.459 392.354 664.505 392.322 663.288 391.424C662.488 388.636 662.539 385.756 662.44 382.876C662.355 380.946 662.436 378.689 661.19 377.101C660.594 376.342 660.334 376.5 659.454 376.359C655.633 378.285 654.003 384.716 651.747 388.247C650.776 389.768 649.685 391.684 647.809 392.116L646.952 391.445C646.292 389.203 646.521 386.823 647.03 384.566C647.782 381.238 649.534 376.912 652.465 374.906C657.59 371.398 666.048 371.757 672.023 370.462C678.743 369.006 684.683 366.787 690.548 363.206Z"/>
	<path fill="#9F8BE8" d="M811.927 933.388C815.001 936.366 817.575 941.455 819.973 945.058C812.32 954.491 797.454 970.683 787.546 977.109C783.777 979.554 779.864 981.111 775.646 982.615C772.748 983.443 769.987 983.995 766.995 984.362C779.137 972.628 784.374 965.085 788.266 948.557C797.518 944.897 804.766 940.306 811.927 933.388Z"/>
	<path fill="#FEFEFE" d="M736.947 547.56C737.205 547.859 737.381 548.356 737.445 548.724C738.084 552.426 737.246 557.272 737.517 561.2C738.369 573.578 742.108 584.17 747.041 595.413C741.745 595.096 736.851 594.302 731.824 592.59C727.962 590.427 725.762 587.234 723.842 583.339C720.87 577.311 716.482 564.425 719.025 557.909C720.799 553.363 732.643 549.421 736.947 547.56Z"/>
	<path fill="#FEFEFE" d="M642.256 511.177C648.879 512.838 656.965 514.046 663.069 517.138C667.099 519.179 687.041 544.06 688.531 548.296C685.892 550.95 684.652 554.521 681.824 557.069C675.452 551.197 646.47 518.604 642.256 511.177Z"/>
	<path fill="#FEFEFE" d="M823.287 949.38C824.556 950.678 825.453 952.52 826.392 954.071C819.271 963.553 802.92 981.107 793.088 987.148C781.931 994.003 768.82 996.696 756.063 993.655C755.678 993.499 755.289 993.35 754.919 993.158C753.729 992.54 753.471 992.602 753.077 991.3C753.174 991.167 753.254 991.018 753.368 990.899C756.33 987.818 766.883 988.773 771.144 988.53C791.847 987.348 810.472 963.712 823.287 949.38Z"/>
	<path fill="#FEFEFE" d="M477.995 953.956C479.602 953.901 481.091 953.907 482.554 954.673C485.664 956.301 488.643 959.402 491.389 961.659C497.985 967.081 504.993 971.217 512.982 974.252C522.073 977.705 532.707 979.554 542.317 980.954C545.523 981.421 555.446 981.909 557.509 983.535L557.259 984.504L556.068 985.024C536.016 984.526 512.714 982.936 494.999 972.822C490.755 970.4 477.07 961.411 475.78 956.725C476.266 955.147 476.741 954.97 477.995 953.956Z"/>
	<path fill="#FEFEFE" d="M855.657 334.969C855.787 335.011 855.925 335.032 856.047 335.094C859.03 336.606 861.73 340.887 862.498 344.055C862.377 344.449 862.469 344.997 862.134 345.236C861.453 345.722 856.056 345.805 854.907 345.924C843.525 347.098 832.567 352.84 824.264 360.627L819.506 365.427C820.366 363.042 821.148 360.429 822.332 358.188C828.112 347.248 844.374 338.811 855.657 334.969Z"/>
	<path fill="#9F8BE8" d="M584.318 532.393C584.361 532.412 584.408 532.423 584.447 532.449C585.484 533.155 585.525 533.334 585.91 534.505C584.562 538.335 577.552 541.985 574.178 543.997C573.565 543.475 573.251 543.105 572.794 542.464C573.847 539.363 581.561 534.642 584.318 532.393Z"/>
	<path fill="#9F8BE8" d="M578.345 526.602L581.36 528.228C578.574 531.517 573.213 534.652 569.828 537.507L569.371 537.904L568.447 538.012L568.709 537.991L567.161 537.182C567.811 533.667 575.523 528.731 578.345 526.602Z"/>
</svg>
