<?xml version="1.0" encoding="utf-8" ?>
<svg xmlns="http://www.w3.org/2000/svg" xmlns:xlink="http://www.w3.org/1999/xlink" width="1024" height="1024">
	<path d="M0 0L148.977 0L157.324 0L242.684 0L250.473 0L822.907 0L864.689 0L936.384 0L944.366 0L1024 0L1024 1024L980.968 1024L973.409 1024L906.446 1024L897.983 1024L692.394 1024L684.788 1024L671.941 1024L664.307 1024L512.815 1024L505.997 1024L343.694 1024L336.298 1024L179.841 1024L171.961 1024L157.055 1024L148.629 1024L0 1024L0 0Z"/>
	<path fill="#E0D6DB" d="M0 0L148.977 0L148.629 1024L0 1024L0 0Z"/>
	<path fill="#E0D6DB" d="M179.841 1024C188.697 956.6 201.254 882.87 224.484 818.994C228.353 808.354 232.178 797.734 236.935 787.448C241.835 776.852 247.369 763.97 256.762 756.765C265.793 749.838 275.986 744.134 285.78 738.364C304.009 727.627 322.428 718.62 341.91 710.414C376.304 695.928 414.091 683.281 451.911 688.689C472.719 691.664 504.095 717.379 518.876 732.204Q530.253 743.759 539.873 756.812C559.631 783.524 570.496 819.126 577.04 851.351C567.422 857.708 558.857 865.243 551.807 874.399C532.516 899.451 520.854 940.343 514.645 970.863C511.082 988.371 507.872 1006.23 505.997 1024L343.694 1024L336.298 1024L179.841 1024Z"/>
	<path d="M336.298 1024C338.079 1011.96 340.87 999.988 342.952 987.979C343.868 982.693 345.046 977.213 345.126 971.841C345.28 961.39 342.501 949.891 340.575 939.628C333.147 900.038 321.531 864.324 302.103 828.984C296.413 818.634 290.352 808.236 283.334 798.722C279.265 793.204 271.063 784.659 268.122 779.717C267.255 778.261 266.815 777.127 267.035 775.413C267.985 774.629 268.183 774.47 269.504 774.664C272.136 775.049 275.398 778.58 277.232 780.436C291.052 794.419 301.77 811.789 311.118 828.979C330.922 865.394 342.743 905.022 349.382 945.806C350.77 954.338 352.726 963.355 352.542 972.007C352.217 987.274 347.055 1008.64 343.694 1024L336.298 1024Z"/>
	<path fill="#9F8BE8" d="M148.977 0L157.324 0L242.684 0L242.729 309.87L242.844 429.079C242.862 450.627 241.999 472.54 243.071 494.051C238.285 502.826 233.794 512.655 236.977 522.85C238.041 526.258 239.849 528.824 241.991 531.593C239.496 541.1 233.307 558.007 233.734 567.332C234.268 578.986 244.75 587.561 241.665 600.561C239.474 609.795 226.813 617.549 232.797 628.278C234.979 632.191 239.427 633.229 243.448 634.21L243.013 760.214C236.761 769.639 232.057 779.753 227.448 790.052C203.853 842.774 192.344 900.743 182.467 957.351C178.594 979.552 174.647 1001.6 171.961 1024L157.055 1024L148.629 1024L148.977 0Z"/>
	<path d="M148.977 0L157.324 0L157.055 1024L148.629 1024L148.977 0Z"/>
	<path fill="#E0D6DB" d="M944.366 0L1024 0L1024 1024L980.968 1024C981.722 1007.1 982.692 990.275 982.804 973.347Q982.981 958.688 982.405 944.04Q981.829 929.392 980.501 914.792Q979.173 900.193 977.096 885.681Q975.02 871.169 972.201 856.783C970.118 846.487 968.034 836.035 965.11 825.943Q960.324 809.13 954.077 792.802C951.399 785.872 948.259 779.135 945.737 772.147C943.679 766.441 944.677 724.375 944.662 714.169L944.566 604.767L943.974 262.716C943.818 175.162 943.348 87.5488 944.366 0Z"/>
	<path fill="#9F8BE8" d="M250.473 0L822.907 0C823.03 0.160855 823.14 0.333101 823.276 0.482565C825.917 3.37227 843.974 4.35812 848.704 4.75789C807.013 27.1627 764.705 48.3564 722.813 70.378C708.312 78.0003 693.603 85.1991 679.121 92.8475C669.883 97.7268 660.301 103.931 650.594 107.665C639.433 105.774 628.009 104.811 616.767 103.463L533.762 94.3284L250.359 64.3758L250.473 0Z"/>
	<path fill="#9F8BE8" d="M864.689 0L936.384 0L936.522 751.577C923.804 731.806 911.276 714.172 894.501 697.484C905.672 694.388 913.806 688.165 919.705 678.132C925.974 667.47 929.168 653.661 925.96 641.504C923.117 630.729 916.221 620.277 906.462 614.653C899.058 610.387 889.936 608.296 881.565 610.668C872.337 613.282 866.885 619.613 862.3 627.561C862.585 624.735 862.812 621.989 862.785 619.144C878.881 601.41 890.969 579.12 890.937 554.69C890.905 530.116 881.628 512.158 864.611 495.078L864.689 0Z"/>
	<path fill="#9F8BE8" d="M614.083 846.641C659.877 822.304 721.592 811.139 771.91 826.542C797.726 834.445 829.011 849.805 846.951 870.33C852.532 876.714 857.098 884.45 861.046 891.926C880.607 928.971 893.403 982.626 897.983 1024L692.394 1024C682.544 976.463 659.07 876.153 617.271 848.58C616.231 847.894 615.18 847.233 614.083 846.641Z"/>
	<path fill="#5C4AB6" d="M883.604 695.828C900.948 713.39 916.346 732.632 928.407 754.222C936.352 768.443 942.544 783.789 947.928 799.136C967.653 855.359 975.358 915.504 974.998 974.948C974.899 991.335 973.847 1007.64 973.409 1024L906.446 1024C900.494 984.027 892.674 945.097 877.074 907.637C871.153 893.419 864.32 879.278 854.64 867.188C848.71 859.782 841.525 853.526 833.923 847.891C821.236 838.484 806.79 830.597 792.163 824.687C796.202 815.803 801.672 807.395 806.704 799.041C822.122 773.445 838.624 749.605 857.528 726.454C865.916 716.182 875.704 706.679 883.482 695.993L883.604 695.828Z"/>
	<path fill="#9F8BE8" d="M512.815 1024C520.235 974.677 533.143 892.906 575.481 861.826C579.875 858.6 584.222 856.399 589.526 855.131C605.627 860.13 615.32 876.53 622.765 890.639C638.319 920.119 649.445 959.937 657.298 992.469C659.822 1002.93 661.623 1013.59 664.307 1024L512.815 1024Z"/>
	<path fill="#9F8BE8" d="M601.57 851.069C622.257 857.629 631.884 871.364 641.641 890.161C663.327 931.94 674.023 978.49 684.788 1024L671.941 1024C663.706 978.814 642.572 897.003 613.059 861.52C609.487 857.226 605.753 854.621 601.57 851.069Z"/>
	<path fill="#E0D6DB" d="M250.781 115.236C263.168 116.116 275.534 117.727 287.896 118.924L395.499 130.013Q447.085 135.038 498.61 140.654C526.915 143.527 555.164 146.113 583.395 149.717L583.363 252.65C583.335 271.014 583.674 289.443 583.196 307.799C577.266 304.559 570.928 302.09 564.257 300.908C551.665 298.678 539.09 300.871 526.483 299.588C511.624 298.077 497.339 292.055 482.291 292.159C473.022 292.223 461.776 294.514 455.166 301.513C451.582 305.307 448.953 310.856 449.191 316.153C449.542 323.993 455.511 330.003 460.979 334.942C455.448 343.763 448.265 351.719 443.584 361.042C437.607 372.948 438.145 382.882 442.288 395.243C440.346 395.987 437.286 396.601 435.986 398.301C435.465 398.982 435.116 399.697 435.209 400.555C435.526 403.456 438.732 405.736 440.751 407.601C437.904 412.125 429.707 419.807 430.313 425.095C430.703 428.504 433.571 430.357 436.101 432.215L441.891 435.777C440.122 440.087 438.432 444.386 436.919 448.796C437.343 451.682 438.18 453.199 439.735 455.587C441.004 457.535 440.494 459.534 440.055 461.689L439.866 462.59C440.5 464.631 442.183 466.353 443.502 468.009C441.689 469.813 440.661 472.11 440.437 474.655C440.073 478.765 442.335 482.784 445.036 485.724C454.057 495.538 471.644 494.624 483.788 495.2C470.483 507.024 457.692 518.703 442.127 527.56C440.159 515.174 437.37 503.524 430.201 492.992C415.549 471.468 389.144 451.148 363.237 446.402C328.31 440.003 279.489 465.477 251.185 485.087L250.781 115.236Z"/>
	<path fill="#9F8BE8" d="M856.423 11.0076C856.943 11.8487 856.921 13.0163 856.95 13.9938C857.577 34.689 856.761 56.8222 856.737 77.6638L856.937 195.798L856.582 488.204C850.992 484.943 845.134 482.321 839.512 479.161C840.407 466.878 840.007 454.378 840.016 442.064L840.022 380.744L840.096 195.113L840.226 136.201C840.267 125.96 840.682 115.562 840.32 105.339C840.28 104.215 840.15 102.961 839.5 101.999C838.828 101.004 837.936 100.528 836.759 100.407C834.901 100.215 832.67 101.617 831.056 102.386C791.822 121.072 753.277 141.438 714.441 160.946L680.527 177.938C673.077 181.61 664.768 184.952 658.028 189.815C657.565 196.034 657.839 202.502 657.825 208.749L657.799 244.25L658.006 343.201C656.56 344.792 655.103 346.39 653.773 348.08C642.023 363.007 642.794 379.538 642.219 397.547C642.091 401.577 642.526 406.119 641.501 410.048C639.727 416.849 629.653 425.022 630.755 431.906C631.464 436.331 637.945 439.815 641.369 442.006C640.077 443.65 637.585 446.296 637.362 448.445C637.142 450.555 637.804 451.416 639.095 452.953C639.219 453.101 639.347 453.247 639.472 453.393C640.108 459.799 641.753 472.103 644.932 477.419C647.782 482.185 652.625 484.373 657.757 485.801C657.877 491.459 657.906 497.081 657.741 502.739C652.791 500.576 647.684 498.931 642.87 496.437Q641.936 494.53 640.837 492.714C632.933 479.591 606.882 459.076 591.471 455.217L591.477 443.298Q598.973 432.054 606.355 420.736C618.448 402.225 627.194 385.82 624.054 363.008C620.976 340.648 608.229 326.168 590.767 313.019L590.961 210.064C590.943 189.177 590.596 168.251 591.564 147.38C601.664 141.502 612.513 136.704 622.857 131.236L724.241 78.6625L814.544 31.9331C828.396 24.8854 841.977 16.7635 856.423 11.0076Z"/>
	<path fill="#9F8BE8" d="M581.258 492.201C584.8 491.683 588.716 491.756 592.293 491.841C625.654 492.633 673.788 513.935 697.012 538.383C695.729 544.647 694.37 550.642 695.621 557.024L692.376 562.482C692.168 562.521 691.96 562.562 691.751 562.598C690.916 562.741 690.055 562.841 689.248 563.112Q688.999 563.197 688.76 563.306Q688.521 563.415 688.294 563.547Q688.067 563.679 687.853 563.833Q687.64 563.986 687.443 564.16Q687.246 564.334 687.067 564.526Q686.888 564.719 686.729 564.928Q686.569 565.137 686.431 565.36Q686.293 565.584 686.178 565.82C683.55 571.2 685.419 581.18 687.154 586.688C676.725 584.934 666.222 585.206 655.756 586.541C633.976 589.318 609.463 597.985 595.618 615.994C590.272 622.948 588.027 629.829 589.203 638.6C581.289 654.374 576.328 672.062 581.937 689.365C579.745 693.384 577.6 697.872 574.485 701.276C571.122 704.951 566.722 707.712 563.851 711.85C562.155 714.295 561.015 717.272 561.659 720.271C562.726 725.233 567.952 728.142 571.833 730.719C569.801 732.948 566.079 736.161 564.877 738.826C563.077 742.817 567.64 742.833 568.63 745.749C568.2 746.702 567.548 747.891 567.41 748.928C566.929 752.557 570.528 759.299 572.538 762.344C572.373 764.923 572.108 767.602 572.418 770.175C573.967 783.053 584.335 791.965 593.92 799.469C592.302 807.45 590.5 815.471 589.434 823.547C588.435 831.114 588.055 838.821 587.459 846.429C586.798 847.348 585.822 848.101 584.565 848.052C584.247 848.039 583.88 848.064 583.627 847.871C582.3 846.859 577.092 821.18 576.044 817.612C567.954 790.091 554.968 762.323 536.236 740.43C537.577 709.538 529.432 673.9 520.764 644.37C509.666 610.398 489.243 573.785 459.849 552.616C457.537 550.95 454.914 549.066 451.935 549.557C450.781 550.375 450.712 550.671 450.147 551.991C450.174 553.018 450.211 554.01 450.881 554.855C452.977 557.501 457.081 559.871 459.738 562.071C463.474 565.163 466.984 568.558 470.389 572.01C502.486 604.55 517.153 648.515 524.619 692.7C526.824 705.747 528.933 718.935 528.827 732.199C513.723 715.133 494.679 700.077 475.03 688.606C475.225 687.703 475.417 686.816 475.465 685.891C475.699 681.413 472.494 677.378 469.565 674.293C459.37 663.558 441.298 648.877 427.493 643.682C423.225 642.076 419.318 641.512 414.78 641.415C416.593 622.592 422.537 603.182 428.787 585.384C431.936 576.418 435.508 567.453 438.142 558.325C440.239 551.056 441.441 543.62 442.738 536.177C475.665 515.06 542.614 495.262 581.258 492.201Z"/>
	<path fill="#E0D6DB" d="M665.489 195.124C671.968 189.533 687.327 183.186 695.692 178.999Q723.496 164.753 751.521 150.952Q780.976 135.748 810.721 121.12C817.781 117.676 825.058 113.237 832.47 110.71L832.449 387.115C832.472 410.383 831.69 433.683 831.9 456.939L831.159 456.612C830.267 446.968 826.019 437.546 818.518 431.222C811.717 425.488 803.663 423.969 795.057 423.197C802.985 403.04 808.289 382.71 799.149 361.975C791.048 343.596 776.289 330.718 757.616 323.581C733.079 314.203 708.275 316.66 684.617 327.421Q674.984 331.898 665.451 336.586C665.423 289.45 664.912 242.255 665.489 195.124Z"/>
	<path fill="#9F8BE8" d="M723.149 325.202C729.099 324.777 735.316 325.473 741.151 326.639C759.207 330.246 776.949 340.021 787.209 355.673C799.252 374.046 798.122 395.131 789.979 414.852C787.46 420.951 783.382 427.58 782.175 434.059C781.771 436.223 782.013 437.943 783.314 439.743C784.487 440.253 784.798 440.48 786.072 439.956C789.323 438.618 790.475 433.222 791.457 430.282C798.198 430.562 805.807 431.564 811.537 435.375C817.739 439.499 821.31 446.392 822.774 453.545C823.725 458.188 823.613 465.803 820.7 469.829C819.702 471.208 818.347 472.223 816.651 472.53C812.684 473.249 807.571 471.743 803.373 471.803C796.53 471.902 790.045 473.663 783.296 474.067C779.975 474.265 776.559 473.667 773.243 473.462C768.193 473.149 763.452 473.676 758.491 474.601C749.991 476.6 742.773 479.871 735.174 484.119C726.728 476.279 723.842 469.117 721.082 458.06Q721.641 457.571 722.194 457.076C727.154 452.631 728.699 448.955 729.07 442.365C730.231 441.761 731.38 441.136 732.478 440.421C737.438 437.195 740.939 432.327 742.112 426.491C743.216 421.002 742.015 414.993 738.696 410.457C736.372 407.28 733.006 405.147 729.089 404.601C722.835 403.729 718.226 406.773 713.501 410.346L691.718 388.088C684.358 380.552 676.313 372.815 670.486 363.998C668.415 360.864 666.402 357.126 666.028 353.346C665.732 350.353 666.935 347.812 668.924 345.631C676.466 337.356 696.493 330.146 707.12 327.543C712.425 326.244 717.709 325.587 723.149 325.202Z"/>
	<path fill="#9F8BE8" d="M250.619 72.5488C267.946 74.6978 285.354 76.096 302.727 77.8076L367.912 84.5283L515.224 100.238Q576.538 106.542 637.76 113.687Q628.619 118.773 619.419 123.75C608.098 129.822 596.607 135.604 585.232 141.578C576.42 141.155 567.533 139.936 558.746 139.101Q524.074 135.736 489.469 131.746L359.671 118.567C323.343 114.68 286.974 109.931 250.54 107.257L250.619 72.5488Z"/>
	<path fill="#9F8BE8" d="M249.324 536.688C252.95 538.548 258.062 540.509 260.892 543.397C266.24 548.854 274.988 568.542 278.15 576.28C279.946 580.673 281.282 585.579 283.723 589.652C284.922 591.655 286.175 593.087 288.292 594.089C294.933 593.253 299.909 571.076 309.164 566.787C311.67 565.626 314.5 565.822 317.048 566.78C321.317 568.386 323.931 572.247 325.638 576.288C329.594 585.655 328.125 597.495 324.208 606.626C322.618 610.33 320.189 614.592 316.173 616.026C314.335 616.683 312.357 616.624 310.646 615.641C309.203 614.811 308.721 613.822 308.362 612.264C309.371 605.797 315.076 608.611 317.569 604.48C318.198 603.437 318.127 602.599 317.928 601.462C317.383 600.672 316.962 600.068 316.07 599.624C314.05 598.617 311.537 599.025 309.552 599.904C306.067 601.446 303.21 604.854 301.901 608.389C300.743 611.518 300.875 614.988 302.417 617.959Q302.709 618.516 303.058 619.04Q303.406 619.563 303.807 620.048Q304.208 620.532 304.658 620.972Q305.107 621.413 305.6 621.804Q306.092 622.195 306.623 622.533Q307.153 622.871 307.716 623.152Q308.279 623.433 308.867 623.654Q309.456 623.875 310.065 624.034C313.822 625.024 317.763 624.242 321.051 622.238C329.548 617.058 332.528 606.302 334.802 597.293C349.014 616.635 368.469 628.02 391.836 633.01C396.743 634.057 401.765 634.217 406.667 635.194L407.072 635.953C407.136 637.043 407.244 638.177 407.184 639.268C407.163 639.66 406.983 640.874 406.785 641.183C406.619 641.443 405.084 641.642 404.736 641.694C394.622 643.211 384.651 644.856 374.782 647.599C349.74 654.559 332.073 668.603 312.532 684.768C310.498 682.73 308.594 680.79 306.135 679.257C296.9 681.065 287.978 686.747 278.34 685.827C274.629 685.472 270.876 684.264 268.544 681.184C264.382 675.688 266.249 668.569 267.132 662.337C263.613 655.764 257.08 652.127 253.598 645.875C249.725 638.922 253.474 633.775 247.054 626.72C244.638 626.039 241.452 626.031 240.164 623.465C238.064 619.285 248.384 607.627 250.342 601.25C253.696 590.324 248.341 582.746 243.497 573.453L247.5 574.846C253.333 576.854 259.288 583.646 265.508 583.47C266.658 582.882 267.198 582.671 267.628 581.332C268.051 580.018 267.614 578.571 266.945 577.426C263.173 570.968 248.639 564.726 241.589 562.8C243.479 554.042 246.987 545.401 249.324 536.688Z"/>
	<path d="M310.121 572.033C312.667 571.935 314.672 572.049 316.647 573.831C318.84 575.808 319.685 578.902 319.65 581.77C319.615 584.595 318.923 586.884 316.95 588.918C315.526 589.419 315.468 589.161 314.066 588.532Q313.835 583.63 313.254 578.757C311.055 579.269 307.988 580.359 305.898 578.992C304.679 578.194 304.639 577.754 304.481 576.439C305.716 573.822 307.576 573.136 310.121 572.033Z"/>
	<path d="M257.617 592.857C258.958 592.82 260.172 592.832 261.348 593.583C262.897 594.573 263.702 596.204 263.85 597.991C264.079 600.766 263.088 602.861 261.302 604.897C261.155 604.916 261.009 604.941 260.862 604.954C259.24 605.099 257.877 605.094 256.631 603.886C255.668 602.953 255.155 601.576 255.071 600.255C254.881 597.278 255.751 595.112 257.617 592.857Z"/>
	<path fill="#5C4AB6" d="M841.021 646.868C841.16 646.867 841.301 646.846 841.438 646.866C843.869 647.211 874.963 684.79 878.46 690.173C873.641 695.894 868.297 701.235 863.338 706.844C853.326 718.168 843.524 730.013 834.403 742.064C815.375 767.204 799.483 794.79 784.059 822.221C780.191 820.799 776.316 819.527 772.365 818.356C765.29 816.256 758.048 814.815 750.814 813.394C747.149 804.358 741.102 796.368 735.492 788.459C750.047 784.234 776.609 775.733 785.186 763.259Q785.813 762.36 786.333 761.394Q786.854 760.429 787.26 759.411Q787.665 758.392 787.952 757.334Q788.238 756.275 788.401 755.191C791.063 738.526 785.222 706.913 782.183 690.196C801.119 674.942 821.811 661.798 841.021 646.868Z"/>
	<path fill="#9F8BE8" d="M468.106 337.997C470.356 337.994 472.764 337.809 474.546 339.454C481.063 345.471 463.627 362.529 464.906 373.662C466.298 385.771 477.965 385.273 485.483 391.322C485.648 391.454 485.809 391.59 485.972 391.724C486.174 393.636 486.164 395.562 486.217 397.483C486.313 400.927 485.999 406.84 488.872 409.203C491.955 411.738 494.475 405.473 497.344 405.191C500.001 404.931 501.344 404.093 503.618 402.752C505.646 403.303 508.776 404.497 510.811 403.693C512.405 403.063 513.493 401.312 513.944 399.756C512.257 395.719 505.6 397.383 502.22 395.662C502.29 395.539 502.343 395.406 502.429 395.295C503.905 393.386 507.844 392.775 510.136 392.304C511.597 392.731 513.036 393.203 514.37 393.952C516.915 395.382 518.188 397.668 518.916 400.419C520.876 407.832 519.029 415.888 515.252 422.403C513.114 426.092 509.884 430.518 505.493 431.539C501.596 432.446 502.835 428.539 500.293 426.954C498.958 426.92 498.481 427.066 497.376 427.817C496.671 428.94 496.265 429.791 496.152 431.132C495.995 432.989 496.314 435.088 497.6 436.503C499.176 438.237 501.432 439.579 503.816 439.651C508.428 439.788 513.218 435.972 516.31 432.807C521.35 427.647 525.845 419.074 526.591 411.865C526.97 408.196 526.706 404.295 526.659 400.603C536.397 416.554 539.074 433.212 556.934 443.436C565.701 448.454 574.176 448.909 583.792 446.243L583.583 453.512C579.015 453.311 574.445 453.429 569.875 453.499C547.354 454.021 525.399 464.723 506.848 476.798C502.342 479.732 497.825 484.614 492.827 486.473C485.105 489.345 462.284 487.49 455.164 483.698C452.566 482.314 450.259 480.199 449.5 477.263C448.608 473.808 450.198 471.481 451.864 468.621L449.955 460.451C451.055 460.931 452.159 461.424 453.284 461.842C454.823 462.413 455.703 462.447 457.18 461.773C457.661 460.728 457.707 460 457.454 458.895C456.577 455.056 449.958 453.619 447.035 451.583C442.384 448.341 450.448 436.295 449.578 431.238C447.563 427.817 440.93 426.442 437.302 424.978C440.075 419.865 444.165 415.31 447.189 410.261C448.138 411.041 449.208 412.092 450.366 412.525C451.37 412.901 452.113 412.756 453.065 412.263C454.22 411.665 454.541 410.677 454.847 409.526C454.051 405.831 449.811 403.701 447.376 400.961L446.969 400.494C451.412 401.678 455.171 404.69 459.605 405.595C461.177 405.916 461.968 405.657 463.259 404.768C463.805 403.336 463.849 403.226 463.481 401.746C460.415 398.189 454.102 396.896 449.743 395.374C448.892 394.281 449.506 392.016 449.653 390.6C452.401 391.814 456.301 393.189 459.32 392.763C460.369 392.615 460.466 392.36 461.057 391.567C461.014 390.917 461.037 390.816 460.834 390.119C459.498 385.54 451.935 383.95 448.381 381.6C447.039 380.713 446.224 379.5 446.04 377.885C444.899 367.867 461.714 345.417 468.106 337.997Z"/>
	<path d="M500.714 411.062C503.018 410.782 504.516 410.724 506.485 412.134C507.823 413.093 508.652 414.289 508.794 415.98C508.94 417.723 508.09 418.546 507.104 419.802C506.308 419.568 505.516 419.346 504.752 419.015C502.301 417.954 500.159 416.764 499.179 414.183C499.35 412.431 499.513 412.38 500.714 411.062Z"/>
	<path fill="#9F8BE8" d="M658.292 354.907C659.189 356.573 659.514 358.428 660.159 360.195C661.616 364.18 663.754 368.062 666.205 371.516C673.614 381.956 684.057 390.875 693.213 399.779C696.641 403.113 700.776 406.431 703.417 410.424C702.294 411.021 701.178 411.639 700.149 412.389C698.752 413.406 697.515 414.88 697.52 416.72C697.523 418.082 697.977 418.487 698.843 419.39C699.766 419.69 700.459 419.923 701.449 419.719C703.774 419.237 704.901 417.291 706.182 415.498C707.383 416.573 709.043 418.3 710.638 418.703C716.66 420.223 721.19 411.086 727.363 411.581C729.479 411.751 731.379 413.232 732.694 414.807C734.731 417.245 735.465 420.204 735.118 423.34C734.471 429.187 730.943 432.924 726.561 436.381C723.633 434.728 721.248 433.643 717.81 434.32C714.073 435.055 711.093 437.431 709.152 440.662C707.272 443.79 706.37 447.759 707.431 451.32C708.557 455.099 711.094 456.725 714.396 458.483C716.418 472.726 720.002 478.881 729.046 489.782C725.783 492.77 722.187 495.395 718.923 498.386C709.311 507.191 703.982 517.814 699.108 529.687C696.74 527.683 694.222 525.822 691.777 523.911C685.924 519.677 680.094 515.439 673.789 511.895C678.854 509.482 685.171 506.719 689.093 502.616C690.976 500.647 691.93 498.352 691.684 495.613C691.41 492.548 689.952 489.846 688.576 487.156C687.727 485.494 686.632 482.705 685.187 481.511C679.537 476.845 661.066 482.851 652.999 475.337C649.247 471.842 649.315 466.862 649.255 462.142C649.302 462.118 649.35 462.094 649.397 462.07C650.993 461.235 652.671 460.304 654.395 459.769C657.289 458.871 661.915 459.287 663.881 456.682C662.476 446.333 650.276 452.136 645.66 447.87C646.475 445.303 650.36 444.426 650.876 441.473C651.662 436.973 641.702 434.658 638.455 430.567C638.338 430.42 638.225 430.27 638.11 430.121C642.125 423.82 649.533 417.893 649.532 409.91C649.532 405.41 649.003 400.698 649.382 396.224C649.506 394.758 649.924 393.674 651.114 392.727C657.75 387.447 666.167 397.326 672.615 397.263C674.065 397.249 674.325 396.793 675.174 395.788C675.398 394.912 675.647 394.116 675.414 393.205C675.08 391.897 673.967 390.769 672.879 390.021C666.439 385.593 657.749 384.145 650.219 385.483C650.494 373.905 651.543 364.668 658.292 354.907Z"/>
	<path d="M659.192 404.442C659.804 404.339 660.387 404.279 661.009 404.327C663.229 404.498 665.516 405.694 666.867 407.48Q667.085 407.763 667.273 408.067Q667.461 408.371 667.617 408.693Q667.773 409.015 667.895 409.351Q668.017 409.687 668.103 410.034Q668.19 410.381 668.241 410.735Q668.292 411.088 668.306 411.446Q668.32 411.803 668.297 412.16Q668.274 412.516 668.215 412.869C667.811 415.176 666.393 416.297 664.619 417.657C664.054 417.856 663.403 418.125 662.803 418.223C661.273 418.472 659.909 418.069 658.722 417.092C656.979 415.657 656.321 413.414 656.26 411.229C656.176 408.18 657.113 406.565 659.192 404.442Z"/>
	<path fill="#9F8BE8" d="M726.304 579.17C727.708 579.49 729.077 579.64 730.161 580.662C730.113 582.656 728.741 583.406 728.703 585.297C728.943 585.49 729.166 585.708 729.424 585.877C730.498 586.584 731.888 586.575 733.06 586.246C734.153 585.322 734.282 585.243 734.664 583.878C733.987 582.402 733.559 582.262 732.234 581.396C734.544 580.768 789.141 591.589 796.209 592.819C796.235 595.165 795.996 597.669 797.017 599.826C797.369 600.075 797.652 600.475 798.072 600.572C798.358 600.638 808.566 593.656 814.539 592.845C816.751 592.545 819.186 592.566 820.952 594.144C822.962 595.941 823.662 599.049 823.842 601.62C824.396 609.568 820.521 617.494 815.336 623.34C812.866 626.125 808.41 628.979 804.566 628.897C802.986 628.863 802.046 627.648 800.974 626.663C799.32 625.145 797.654 623.93 795.312 624.034C794.108 624.747 793.754 624.943 793.295 626.364C792.877 627.657 793.199 629.619 793.79 630.816C795.06 633.384 798.122 635.138 800.785 635.872C805.569 637.191 810.182 636.118 814.326 633.525C822.513 628.402 828.136 619.178 830.134 609.873C835.182 619.243 836.769 629.93 836.402 640.457C831.287 645.141 824.647 649.235 818.961 653.29C805.755 662.707 792.515 671.824 780.342 682.58C778.1 676.149 776.975 669.322 774.749 662.848C768.414 644.426 757.808 626.039 743.33 612.815C737.974 607.923 731.972 603.757 726.103 599.515C726.48 598.873 726.85 598.244 727.161 597.566C729.943 591.51 728.584 585.094 726.304 579.17Z"/>
	<path d="M813.821 600.504C814.153 600.494 814.484 600.478 814.816 600.474C816.847 600.447 817.799 601.242 819.195 602.562C819.654 603.907 819.704 603.938 819.241 605.27C818.002 606.538 816.629 606.5 815.003 606.888C812.806 607.412 812.183 608.458 811.08 610.32C810.225 611.765 809.337 613.052 808.289 614.36C807.458 614.557 806.661 614.732 805.796 614.698C804.467 614.646 803.753 614.256 802.961 613.257C802.868 611.977 802.962 611.035 803.453 609.858C805.453 605.068 809.215 602.383 813.821 600.504Z"/>
	<path fill="#9F8BE8" d="M719.813 509.601L720.633 509.56C746.536 508.416 769.53 517.207 775.718 544.786C777.527 552.849 776.82 561.067 780.51 568.735C783.616 575.191 789.239 579.748 794.408 584.509C781.524 581.685 768.265 579.668 755.268 577.352C749.638 576.349 743.644 575.86 738.19 574.153C736.268 573.552 734.533 572.508 732.809 571.487C731.155 570.571 729.482 569.863 727.701 569.236C722.584 567.435 713.556 564.401 708.431 567.123C707.157 567.799 706.497 568.467 706.034 569.858C706.17 570.676 706.322 571.111 706.83 571.796C709.53 575.434 715.912 576.103 719.98 576.871C719.43 581.27 722.207 591.883 720.285 594.657C716.412 596.324 710.429 592.011 706.617 590.799C704.442 590.107 701.908 590.104 699.827 589.208C698.76 588.748 698.423 588.411 698.132 587.263C697.812 586 698.067 585.136 698.699 584.071C699.659 583.59 700.797 583.119 701.557 582.348C703.436 580.441 701.776 579.239 701.807 577.128C703.619 575.545 704.811 574.492 704.915 571.942C705.044 568.787 703.537 566.867 701.448 564.686L700.955 564.18C700.68 562.893 701.664 561.928 702.327 560.814C704.847 556.578 702.637 553.952 702.676 549.472C702.785 537.073 710.943 518.272 719.813 509.601Z"/>
	<path d="M711.463 545.557Q714.005 545.449 716.549 545.468C729.805 545.657 744.334 556.381 752.957 565.688C754.501 567.354 756.866 570.059 756.436 572.551C756.214 573.838 755.269 575.284 754.163 575.963C753.421 576.419 753 576.143 752.199 576.004C735.914 563.928 732.576 564.981 713.965 560.313C711.261 559.635 707.346 558.196 706.057 555.455C705.257 553.753 705.212 552.004 705.9 550.253C706.902 547.704 709.103 546.614 711.463 545.557Z"/>
	<path fill="#E0D6DB" d="M407.817 649.199C411.313 648.763 415.27 648.845 418.728 649.493C430.744 651.744 459.588 672.347 466.522 682.574C459.293 681.186 452.135 680.798 444.805 680.432C404.483 678.416 368.157 690.61 331.607 706.481C316.803 712.666 302.459 720.113 288.321 727.68C292.133 720.234 297.397 713.159 302.766 706.769C330.595 673.649 364.092 653.082 407.817 649.199Z"/>
	<path fill="#9F8BE8" d="M570.138 460.705C573.822 460.346 577.794 460.442 581.487 460.715C599.361 462.039 617.362 477.017 628.663 490.02C589.999 480.002 561.313 485.739 523.888 496.088C507.213 500.651 491.11 506.656 474.815 512.349C478.975 508.192 483.699 504.441 488.165 500.611C511.59 480.525 538.628 463.197 570.138 460.705Z"/>
	<path fill="#E0D6DB" d="M251.938 656.957C254.508 659.171 256.787 661.425 259.017 663.981L258.782 666.017C257.947 673.487 257.971 680.743 263.077 686.853C270.331 695.533 283.407 694.282 293.215 691.551C296.491 690.639 300.806 688.422 304.219 688.861C305.16 688.982 305.25 689.047 305.86 689.797C305.539 693.483 295.491 702.763 292.696 706.507C289.022 711.429 285.748 716.51 282.543 721.74C279.588 726.406 276.586 731.069 274.414 736.16C266.617 740.633 259.077 745.041 252.023 750.655C251.762 731.693 251.913 712.713 251.859 693.749C251.824 681.526 251.312 669.154 251.938 656.957Z"/>
	<path fill="#9F8BE8" d="M592.402 647.742C593.171 648.153 592.942 647.92 593.443 648.612C599.456 656.918 605.459 662.698 614.632 667.437C611.983 675.597 608.254 683.678 605.158 691.704C596.242 714.819 587.531 740.114 586.74 765.096C586.544 771.28 587.194 777.466 587.783 783.614C586.388 782.021 585.009 780.418 583.742 778.721C577.366 770.185 579.779 770.868 580.728 761.684C581.181 757.298 579.594 755.958 576.984 752.839C578.082 752.603 579.512 752.261 580.483 751.7C581.491 751.119 581.929 750.493 582.275 749.422C582.372 749.121 582.455 748.814 582.545 748.511C580.497 744.614 576.707 742.251 573.602 739.233C575.683 735.656 579.029 732.753 581.508 729.389C581.45 729.333 581.39 729.279 581.333 729.222C577.93 725.772 571.686 723.893 569.359 719.774C568.81 714.37 579.25 707.539 582.602 703.329C584.725 700.663 585.887 697.989 587.108 694.852C589.636 697.564 592.656 701.567 596.544 701.982C597.834 701.475 597.92 701.333 598.727 700.192C599.79 693.787 588.467 689.266 586.772 683.147C586.419 681.874 586.221 680.755 586.866 679.573L587.991 679.317C592.745 680.516 594.482 684.459 598.382 686.83C599.651 687.601 600.541 687.857 602.025 687.549C602.937 686.573 603.106 686.304 603.153 684.882C603.23 682.52 601.089 679.617 599.6 677.978C596.121 674.15 591.866 671.501 586.642 671.32C587.471 663.187 589.838 655.461 592.402 647.742Z"/>
	<path fill="#9F8BE8" d="M725.76 791.121L726.508 791.067C730.886 793.311 739.114 806.982 741.417 811.945C710.589 809.587 679.866 814.375 650.379 823.304Q642.917 825.756 635.485 828.297C642.628 822.639 650.547 817.788 657.981 812.503C662.132 809.552 666.574 805.215 671.116 803.053C676.23 800.619 686.867 800.039 692.954 798.745C703.937 796.41 714.734 793.275 725.76 791.121Z"/>
	<path fill="#9F8BE8" d="M600.684 801.608C618.322 806.26 637.341 805.846 655.404 804.907C646.65 811.256 637.45 816.772 628.845 823.391C616.82 833.072 611.597 842.935 595.12 844.704C595.896 829.973 597.688 816.044 600.684 801.608Z"/>
	<path fill="#D5BDFE" d="M831.159 456.612L831.9 456.939C831.959 462.07 832.874 469.401 831.702 474.234C831.455 475.249 831.688 474.839 830.696 475.476C829.611 475.241 828.784 475.148 827.907 474.423C828.332 468.256 831.013 464.013 831.159 456.612Z"/>
	<path fill="#9F8BE8" d="M718.33 441.749C718.504 441.844 718.689 441.922 718.853 442.034C720.04 442.837 720.487 443.394 720.89 444.787C720.609 447.523 718.576 448.992 716.643 450.694C715.547 450.84 715.504 450.848 714.541 450.312C714.397 449.816 714.261 449.461 714.272 448.915C714.327 446.126 716.457 443.575 718.33 441.749Z"/>
</svg>
