<?xml version="1.0" encoding="utf-8" ?>
<svg xmlns="http://www.w3.org/2000/svg" xmlns:xlink="http://www.w3.org/1999/xlink" width="1024" height="1024">
	<path fill="#9F8BE8" d="M0 0L1024 0L1024 948.913L1024 1024L767.771 1024C773.106 1022.71 778.797 1022.29 784.237 1021.47C803.401 1018.59 834.095 1014.6 849.694 1003.02C849.013 984.341 842.644 966.976 836.57 949.54C835.881 947.689 835.234 945.737 834.371 943.962C832.965 941.069 831.087 940.25 828.138 939.324Q825.217 932.558 822.198 925.836C823.421 924.94 825.403 923.697 825.969 922.215C827.462 918.315 821.196 898.689 819.675 893.871C861.545 893.186 903.553 893.969 945.438 893.964L977.859 894.017C983.51 894.036 989.396 894.372 995.016 893.96C997.104 893.807 1000.58 893.377 1002.14 891.771C1003.12 890.762 1003.06 890.414 1003.07 889.095C1002.23 887.482 1001.45 886.274 999.66 885.63C996.597 884.528 877.382 885.469 861.401 885.456Q861.047 830.108 861.275 774.762L861.315 540.368L861.17 38.4308C861.154 34.164 862.612 22.4915 859.443 19.6019C857.314 17.6608 824.499 18.5025 819.463 18.5068L279.894 18.7088L238.144 18.8535C230.364 18.9297 222.079 19.6013 214.345 18.851C206.921 18.1307 187.607 11.0782 183.043 11.8485C182.151 11.999 181.952 12.3428 181.483 13.1217C180.554 14.6617 180.671 17.3312 180.643 19.0941C180.082 54.4252 180.527 89.8441 180.521 125.182L180.662 341.604L180.533 885.633L76.8545 885.538L46.8083 885.468C41.3385 885.445 35.6842 885.141 30.2319 885.514C27.8442 885.677 24.5335 886.093 22.7277 887.858C21.8114 888.753 21.9998 889.302 22.0951 890.454C23.0982 892.028 23.8959 893.362 25.836 893.872C29.7726 894.906 49.6745 893.945 55.4946 893.921L139.714 893.943C151.687 893.967 169.077 892.896 180.513 894.553C180.516 912.53 180.06 930.625 180.55 948.587C180.727 955.193 179.052 981.547 182.247 985.569C183.808 987.535 187.915 985.8 189.942 985.129C200.247 981.716 210.372 977.715 220.64 974.182C233.34 969.811 246.192 965.903 258.882 961.493C269.603 957.768 290.645 949.615 300.984 948.325C306.995 947.575 313.382 947.983 319.44 947.985L350.473 948.016L452.219 947.983L595.308 948.2L640.794 948.04C648.847 947.988 657.461 947.283 665.452 948.166C655.063 957.111 642.873 963.579 630.32 968.957C618.646 973.959 596.723 979.5 588.25 988.484C584.342 992.628 583.089 998.517 582.666 1004.06C582.57 1005.32 582.734 1006.56 583.68 1007.47C586.202 1009.88 592.933 1010.66 596.264 1011.22C626.324 1016.3 652.179 1013.04 682.023 1011.97C681.846 1014.89 680.897 1019.73 683.228 1022.01C684.466 1023.22 685.881 1023.56 687.509 1024L0 1024L0 949.385L0 0Z"/>
	<path fill="#2B153B" d="M781.879 233.44C782.397 220.671 782.035 207.791 782.078 195.005L782.003 100.615L477.649 100.931L477.859 884.677L598.066 884.609Q620.039 884.512 642.01 884.852C646.962 884.923 652.135 884.418 657.051 884.795C658.851 884.933 660.899 885.147 662.225 886.502C662.784 887.074 662.848 887.6 662.863 888.391C662.89 889.837 662.212 891.075 661.395 892.197C660.057 893.113 658.767 893.263 657.186 893.377C643.656 894.353 626.263 893.407 612.368 893.368L515.041 893.101C502.397 893.139 488.257 892.203 475.788 893.469C465.019 894.562 445.287 902.245 433.743 905.803Q379.252 922.349 325.064 939.858C373.657 938.717 422.429 939.297 471.043 939.449L673.003 939.45C671.1 940.615 667.962 945.522 666.058 947.516C665.853 947.73 665.654 947.949 665.452 948.166C657.461 947.283 648.847 947.988 640.794 948.04L595.308 948.2L452.219 947.983L350.473 948.016L319.44 947.985C313.382 947.983 306.995 947.575 300.984 948.325C290.645 949.615 269.603 957.768 258.882 961.493C246.192 965.903 233.34 969.811 220.64 974.182C210.372 977.715 200.247 981.716 189.942 985.129C187.915 985.8 183.808 987.535 182.247 985.569C179.052 981.547 180.727 955.193 180.55 948.587C180.06 930.625 180.516 912.53 180.513 894.553C169.077 892.896 151.687 893.967 139.714 893.943L55.4946 893.921C49.6745 893.945 29.7726 894.906 25.836 893.872C23.8959 893.362 23.0982 892.028 22.0951 890.454C21.9998 889.302 21.8114 888.753 22.7277 887.858C24.5335 886.093 27.8442 885.677 30.2319 885.514C35.6842 885.141 41.3385 885.445 46.8083 885.468L76.8545 885.538L180.533 885.633L180.662 341.604L180.521 125.182C180.527 89.8441 180.082 54.4252 180.643 19.0941C180.671 17.3312 180.554 14.6617 181.483 13.1217C181.952 12.3428 182.151 11.999 183.043 11.8485C187.607 11.0782 206.921 18.1307 214.345 18.851C222.079 19.6013 230.364 18.9297 238.144 18.8535L279.894 18.7088L819.463 18.5068C824.499 18.5025 857.314 17.6608 859.443 19.6019C862.612 22.4915 861.154 34.164 861.17 38.4308L861.315 540.368L861.275 774.762Q861.047 830.11 861.401 885.456C877.382 885.469 996.597 884.528 999.66 885.63C1001.45 886.274 1002.23 887.482 1003.07 889.095C1003.06 890.414 1003.12 890.762 1002.14 891.771C1000.58 893.377 997.104 893.807 995.016 893.96C989.396 894.372 983.51 894.036 977.859 894.017L945.438 893.964C903.553 893.969 861.545 893.186 819.675 893.871C818.458 891.222 818.212 888.331 817.88 885.469C829.383 885.256 840.913 885.427 852.419 885.465L852.733 26.8846C831.931 26.6321 811.087 26.7714 790.283 26.8924C789.962 35.1402 790.268 43.493 790.299 51.7497L790.4 97.1503L790.442 240.648C787.719 238.98 783.773 235.965 781.879 233.44ZM189.087 21.7526L189.397 629.791L189.284 837.518C189.157 883.708 188.257 930.101 189.432 976.276Q215.899 966.727 242.63 957.946Q297.247 939.248 352.481 922.461C368.257 917.571 383.822 912.045 399.632 907.245C412.513 903.011 425.533 899.297 438.463 895.23C448.809 891.976 459.079 888.292 469.499 885.29L469.167 99.928Q365.788 72.1584 262.849 42.7987C238.271 35.8889 213.793 28.0917 189.087 21.7526ZM242.818 27.2628L242.242 27.7968C263.001 35.2141 284.77 40.0204 306.021 45.8015C320.061 49.621 333.775 54.4335 347.935 57.8713C349.386 55.6594 348.589 31.3867 348.585 27.0231L284.61 27.1081C270.725 27.08 256.684 26.6131 242.818 27.2628ZM374.079 27.2554L357.489 27.3953L357.506 60.7568L434.677 81.8114C441.688 83.7395 448.748 85.4863 455.751 87.4307C461.145 88.9284 466.724 90.9112 472.26 91.7468C478.282 92.6556 484.532 92.2772 490.607 92.2446L518.025 92.14L612.25 92.4425L629.554 92.4783L629.662 26.8038L374.079 27.2554ZM638.001 26.958L637.986 92.3296C685.959 92.4543 733.994 91.6247 781.955 92.1665C781.896 70.4107 781.595 48.6189 781.82 26.8658C733.898 26.9553 685.915 26.4197 638.001 26.958Z"/>
	<path fill="#9F8BE8" d="M189.432 976.276C188.257 930.101 189.157 883.708 189.284 837.518L189.397 629.791L189.087 21.7526C213.793 28.0917 238.271 35.8889 262.849 42.7987Q365.788 72.1587 469.167 99.928L469.499 885.29C459.079 888.292 448.809 891.976 438.463 895.23C425.533 899.297 412.513 903.011 399.632 907.245C383.822 912.045 368.257 917.571 352.481 922.461Q297.247 939.248 242.63 957.946Q215.899 966.727 189.432 976.276ZM223.071 86.4201C221.414 87.5146 220.025 88.2603 219.662 90.3818C218.525 97.012 219.421 109.341 219.421 116.401L219.438 179.013L219.381 284.458C219.353 301.192 218.449 320.943 219.395 337.413C219.468 338.679 219.487 339.839 220.282 340.903C221.08 341.972 221.898 342.331 223.17 342.661C232.558 345.097 244.153 345.562 253.85 346.701C272.817 348.929 291.883 351.414 310.884 353.223Q314.683 353.603 318.499 353.711C320.035 352.563 320.572 351.584 320.845 349.674C321.791 343.046 320.791 335.312 320.735 328.564L320.522 281.456L320.469 156.489L320.547 125.868C320.574 122.346 321.322 117.422 320.551 114.061C318.145 112.839 315.77 111.777 313.192 110.969C295.052 105.278 276.324 100.828 257.986 95.7257C249.653 93.4073 230.034 86.7485 223.071 86.4201ZM352.883 122.053C351.566 122.734 350.357 123.18 349.656 124.57C348.594 135.473 349.493 147.233 349.553 158.225L349.581 217.565L349.615 314.354C349.642 324.812 348.582 349.14 350.701 357.925C352.18 358.977 436.121 368.81 443.065 369.124C444.594 368.151 445.586 367.519 446.013 365.625C446.86 361.856 446.088 357.278 446.079 353.402L446.085 324.208C446.085 306.484 446.446 148.258 445.315 145.747C443.556 144.746 441.841 143.932 439.91 143.314C434.418 141.555 428.602 140.498 423 139.082L392.041 131.13C381.008 128.384 363.707 123.166 352.883 122.053ZM221.74 407.518C219.48 409.668 219.216 410.932 219.137 413.998C218.746 429.226 219.251 444.579 219.328 459.818L219.379 538.478L219.139 847.852C219.141 850.287 218.841 853.459 220.841 855.263C222.109 856.406 223.891 855.726 225.415 855.439C234.113 853.797 242.829 851.125 251.412 848.909L297.889 836.877C302.972 835.667 317.945 833.204 320.731 829.389C321.539 818.225 320.996 806.711 320.979 795.509L320.645 727.613L320.529 519.65L320.6 448.752C320.584 439.307 321.008 429.739 320.66 420.311C320.6 418.691 320.456 417.261 319.742 415.798C316.953 414.789 314.217 414.274 311.277 413.941C293.472 411.921 275.423 411.427 257.55 410.06C247.014 409.254 231.722 406.86 221.74 407.518ZM352.86 416.486C351.003 418.056 349.77 418.897 349.56 421.479C348.573 433.655 349.57 446.628 349.609 458.876L349.825 537.562L349.61 785.157C349.588 791.85 348.674 813.317 349.738 818.68C349.898 819.486 350.34 820.294 350.876 820.918C351.484 821.625 351.939 821.979 352.746 822.402C360.727 821.782 369.337 818.748 377.166 816.801Q401.763 810.597 426.448 804.756C432.963 803.139 440.456 801.981 446.461 798.932L446.192 450.016C446.209 446.28 447.161 425.977 445.485 424.105C444.688 423.215 440.821 422.782 439.54 422.624C423.431 420.648 406.915 420.185 390.714 418.965C378.403 418.038 365.198 415.982 352.86 416.486Z"/>
	<path fill="#9F8BE8" d="M347.935 57.8713C333.775 54.4335 320.061 49.621 306.021 45.8015C284.77 40.0204 263.001 35.2141 242.242 27.7968L242.818 27.2628C256.684 26.6131 270.725 27.08 284.61 27.1081L348.585 27.0231C348.589 31.3867 349.386 55.6594 347.935 57.8713Z"/>
	<path fill="#9F8BE8" d="M357.489 27.3953L374.079 27.2554L629.662 26.8038L629.554 92.4783L612.25 92.4425L518.025 92.14L490.607 92.2446C484.532 92.2772 478.282 92.6556 472.26 91.7468C466.724 90.9112 461.145 88.9284 455.751 87.4307C448.748 85.4863 441.688 83.7395 434.677 81.8114L357.506 60.7568L357.489 27.3953Z"/>
	<path fill="#9F8BE8" d="M637.986 92.3296L638.001 26.958C685.915 26.4197 733.898 26.9553 781.82 26.8658C781.595 48.6189 781.896 70.4107 781.955 92.1665C733.994 91.6247 685.959 92.4543 637.986 92.3296Z"/>
	<path fill="#9F8BE8" d="M790.442 240.648L790.4 97.1503L790.299 51.7497C790.268 43.493 789.962 35.1402 790.283 26.8924C811.087 26.7714 831.931 26.6321 852.733 26.8846L852.419 885.465C840.913 885.427 829.383 885.256 817.88 885.469C815.828 875.017 812.825 864.531 810.305 854.165L796.844 798.774C794.097 787.771 789.967 776.024 788.653 764.777C787.477 754.709 789.421 743.472 790.324 733.374L794.792 684.198L805.612 551.041C809.763 550.68 813.856 550.283 817.962 549.564C819.56 538.031 818.457 523.747 817.794 512.014C815.966 479.633 811.812 447.944 806.515 415.974C802.47 391.555 798.003 367.308 791.142 343.495C801.026 338.215 811.349 330.419 815.937 319.91C822.372 305.171 823.649 283.871 817.707 268.794C816.689 266.211 815.484 263.764 813.82 261.529C809.597 255.853 796.951 243.445 790.442 240.648Z"/>
	<path fill="#2B153B" d="M318.499 353.711Q314.683 353.603 310.884 353.223C291.883 351.414 272.817 348.929 253.85 346.701C244.153 345.562 232.558 345.097 223.17 342.661C221.898 342.331 221.08 341.972 220.282 340.903C219.487 339.839 219.468 338.679 219.395 337.413C218.449 320.943 219.353 301.192 219.381 284.458L219.438 179.013L219.421 116.401C219.421 109.341 218.525 97.012 219.662 90.3818C220.025 88.2603 221.414 87.5146 223.071 86.4201C230.034 86.7485 249.653 93.4073 257.986 95.7257C276.324 100.828 295.052 105.278 313.192 110.969C315.77 111.777 318.145 112.839 320.551 114.061C321.322 117.422 320.574 122.346 320.547 125.868L320.469 156.489L320.522 281.456L320.735 328.564C320.791 335.312 321.791 343.046 320.845 349.674C320.572 351.584 320.035 352.563 318.499 353.711ZM227.984 96.2439L227.765 262.125C227.764 286.501 227.338 310.929 227.773 335.295Q257.082 339.248 286.511 342.184C295.249 343.14 304.1 344.653 312.864 345.169C313.44 310.295 313.056 275.328 312.899 240.447L312.482 119.968C295.966 114.141 278.784 110.086 261.891 105.498C250.643 102.443 239.374 98.6821 227.984 96.2439Z"/>
	<path fill="#9F8BE8" d="M227.773 335.295C227.338 310.929 227.764 286.501 227.765 262.125L227.984 96.2439C239.374 98.6821 250.643 102.443 261.891 105.498C278.784 110.086 295.966 114.141 312.482 119.968L312.899 240.447C313.056 275.328 313.44 310.295 312.864 345.169C304.1 344.653 295.249 343.14 286.511 342.184Q257.082 339.248 227.773 335.295Z"/>
	<path fill="#9F8BE8" d="M781.879 233.44C774.511 227.402 765.115 224.534 755.83 223.063C751.862 222.434 747.683 222.11 743.831 220.952C757.624 207.394 769.512 192.065 769.612 171.734C769.656 162.766 766.962 152.808 760.448 146.358C756.345 142.295 751.271 139.317 746.946 135.505C733.983 124.077 728.437 117.044 710.99 112.054C704.493 110.195 697.912 109.104 691.141 109.175C678.56 109.309 664.426 114.051 655.572 123.266Q654.141 124.774 652.781 126.347C648.088 126.474 644.634 127.303 640.454 129.578Q635.383 138.657 630.417 147.793C624.533 158.548 617.29 169.715 620.778 182.554C622.524 188.979 627.842 193.752 632.267 198.441C635.573 214.584 633.617 224.87 644.344 238.641C647.681 242.925 651.551 246.912 656.106 249.909C663.041 254.471 670.557 255.917 678.647 254.178Q679.977 253.89 681.3 253.57C675.216 259.349 667.325 265.271 662.821 272.36C660.753 275.615 659.242 279.371 657.641 282.876C647.004 306.163 641.177 331.845 634.85 356.59C632.215 366.895 628.96 377.466 627.179 387.935C621.108 387.349 614.948 386.931 608.918 386.031C608.514 379.013 607.46 367.972 601.779 362.943C600.186 361.532 598.356 360.904 596.234 361.043C589.759 361.468 574.787 373.067 568.686 377.185C563.227 374.096 544.91 365.177 539.138 366.53C536.388 367.174 534.591 369.385 533.317 371.77C530.171 377.659 528.302 385.032 527.251 391.604C522.531 393.117 501.139 398.849 499.231 402.266C498.29 403.951 498.694 405.548 499.301 407.265C500.068 409.433 501.11 411.407 503.278 412.42C504.784 413.123 506.688 413.274 508.331 413.512C513.899 430.756 519.5 448.118 524.373 465.573C525.923 471.126 526.073 478.694 528.498 483.75C529.976 486.835 532.939 488.826 535.905 490.334C557.109 501.113 605.695 503.89 630.06 503.859C632.998 513.88 638.605 525.084 640.261 535.1C641.231 540.967 640.608 547.445 640.529 553.391L640.122 585.729L639.428 681.613C639.343 695.956 638.659 710.414 639.037 724.739C639.302 734.827 642.49 745.433 644.185 755.431L656.046 826.86C659.355 847.481 662.569 868.197 665.493 888.873C667.116 900.349 667.709 914.143 671.297 925.027C674.473 925.718 677.604 926.285 680.827 926.7C678.543 931.058 676.229 935.697 673.003 939.45L471.043 939.449C422.429 939.297 373.657 938.717 325.064 939.858Q379.252 922.348 433.743 905.803C445.287 902.245 465.019 894.562 475.788 893.469C488.257 892.203 502.397 893.139 515.041 893.101L612.368 893.368C626.263 893.407 643.656 894.353 657.186 893.377C658.767 893.263 660.057 893.113 661.395 892.197C662.212 891.075 662.89 889.837 662.863 888.391C662.848 887.6 662.784 887.074 662.225 886.502C660.899 885.147 658.851 884.933 657.051 884.795C652.135 884.418 646.962 884.923 642.01 884.852Q620.039 884.512 598.066 884.609L477.859 884.677L477.649 100.931L782.003 100.615L782.078 195.005C782.035 207.791 782.397 220.671 781.879 233.44Z"/>
	<path fill="#010100" d="M743.831 220.952C747.683 222.11 751.862 222.434 755.83 223.063C765.115 224.534 774.511 227.402 781.879 233.44C783.773 235.965 787.719 238.98 790.442 240.648C796.951 243.445 809.597 255.853 813.82 261.529C815.484 263.764 816.689 266.211 817.707 268.794C823.649 283.871 822.372 305.171 815.937 319.91C811.349 330.419 801.026 338.215 791.142 343.495C798.003 367.308 802.47 391.555 806.515 415.974C811.812 447.944 815.966 479.633 817.794 512.014C818.457 523.747 819.56 538.031 817.962 549.564C813.856 550.283 809.763 550.68 805.612 551.041L794.792 684.198L790.324 733.374C789.421 743.472 787.477 754.709 788.653 764.777C789.967 776.024 794.097 787.771 796.844 798.774L810.305 854.165C812.825 864.531 815.828 875.017 817.88 885.469C818.212 888.331 818.458 891.222 819.675 893.871C821.196 898.689 827.462 918.315 825.969 922.215C825.403 923.697 823.421 924.94 822.198 925.836Q825.217 932.558 828.138 939.324C831.087 940.25 832.965 941.069 834.371 943.962C835.234 945.737 835.881 947.689 836.57 949.54C842.644 966.976 849.013 984.341 849.694 1003.02C834.095 1014.6 803.401 1018.59 784.237 1021.47C778.797 1022.29 773.106 1022.71 767.771 1024L687.509 1024C685.881 1023.56 684.466 1023.22 683.228 1022.01C680.897 1019.73 681.846 1014.89 682.023 1011.97C652.179 1013.04 626.324 1016.3 596.264 1011.22C592.933 1010.66 586.202 1009.88 583.68 1007.47C582.734 1006.56 582.57 1005.32 582.666 1004.06C583.089 998.517 584.342 992.628 588.25 988.484C596.723 979.5 618.646 973.959 630.32 968.957C642.873 963.579 655.063 957.111 665.452 948.166C665.654 947.949 665.853 947.73 666.058 947.516C667.962 945.522 671.1 940.615 673.003 939.45C676.229 935.697 678.543 931.058 680.827 926.7C677.604 926.285 674.473 925.718 671.297 925.027C667.709 914.143 667.116 900.349 665.493 888.873C662.569 868.197 659.355 847.481 656.046 826.86L644.185 755.431C642.49 745.433 639.302 734.827 639.037 724.739C638.659 710.414 639.343 695.956 639.428 681.613L640.122 585.729L640.529 553.391C640.608 547.445 641.231 540.967 640.261 535.1C638.605 525.084 632.998 513.88 630.06 503.859C605.695 503.89 557.109 501.113 535.905 490.334C532.939 488.826 529.976 486.835 528.498 483.75C526.073 478.694 525.923 471.126 524.373 465.573C519.5 448.118 513.899 430.756 508.331 413.512C506.688 413.274 504.784 413.123 503.278 412.42C501.11 411.407 500.068 409.433 499.301 407.265C498.694 405.548 498.29 403.951 499.231 402.266C501.139 398.849 522.531 393.117 527.251 391.604C528.302 385.032 530.171 377.659 533.317 371.77C534.591 369.385 536.388 367.174 539.138 366.53C544.91 365.177 563.227 374.096 568.686 377.185C574.787 373.067 589.759 361.468 596.234 361.043C598.356 360.904 600.186 361.532 601.779 362.943C607.46 367.972 608.514 379.013 608.918 386.031C614.948 386.931 621.108 387.349 627.179 387.935C628.96 377.466 632.215 366.895 634.85 356.59C641.177 331.845 647.004 306.163 657.641 282.876C659.242 279.371 660.753 275.615 662.821 272.36C667.325 265.271 675.216 259.349 681.3 253.57Q679.977 253.89 678.647 254.178C670.557 255.917 663.041 254.471 656.106 249.909C651.551 246.912 647.681 242.925 644.344 238.641C633.617 224.87 635.573 214.584 632.267 198.441C627.842 193.752 622.524 188.979 620.778 182.554C617.29 169.715 624.533 158.548 630.417 147.793Q635.383 138.657 640.454 129.578C644.634 127.303 648.088 126.474 652.781 126.347Q654.141 124.774 655.572 123.266C664.426 114.051 678.56 109.309 691.141 109.175C697.912 109.104 704.493 110.195 710.99 112.054C728.437 117.044 733.983 124.077 746.946 135.505C751.271 139.317 756.345 142.295 760.448 146.358C766.962 152.808 769.656 162.766 769.612 171.734C769.512 192.065 757.624 207.394 743.831 220.952ZM636.936 402.655C635.253 404.341 633.868 405.144 631.589 405.807C631.276 417.368 630.423 428.98 629.607 440.517Q635.211 438.027 640.844 435.605C640.24 426.165 641.374 416.283 643.554 407.072C645.271 398.261 647.738 389.622 649.937 380.923C655.299 359.716 661.035 339.047 668.791 318.569C664.928 310.532 660.5 302.182 658.992 293.326C653.039 311.328 647.931 329.746 642.959 348.044C639.496 360.789 635.819 373.743 633.087 386.659C632.587 389.022 634.956 390.153 636.165 392.145C638.25 395.578 637.986 398.871 636.936 402.655ZM762.94 948.122C762.238 945.658 761.536 943.22 761.066 940.697C758.849 940.685 754.705 941.113 752.915 939.644C749.49 936.834 739.275 905.41 736.336 899.093C736.404 903.181 737.779 920.055 735.754 922.5C733.738 924.934 732.522 924.194 732.485 927.909C732.417 934.794 735.239 942.111 737.793 948.379C740.664 955.742 742.095 964.055 743.867 971.769C748.653 969.016 753.599 965.614 757.401 961.581C760.981 957.784 763.116 953.402 762.94 948.122ZM687.844 114.668C673.228 116.72 665.911 120.774 656.365 131.728C651.299 132.342 646.588 131.493 643.249 135.948C640.753 139.276 639.03 143.36 637.087 147.036C632.443 155.819 623.747 168.821 625.45 179.047C626.152 183.26 628.49 187.126 631.044 190.479C629.514 180.496 630.142 174.743 636.243 166.343C639.613 161.704 644.25 154.738 649.048 151.658C650.381 151.613 650.171 151.745 651.119 152.553C651.5 153.914 651.497 155.443 651.965 156.724C654.814 164.525 663.772 175.151 671.088 179.3C677.817 183.116 685.468 184.083 692.837 186.044C698.484 187.546 704.341 189.716 709.678 192.11C710.889 189.086 712.022 185.98 713.461 183.058C716.012 179.117 718.702 175.893 723.509 174.717C726.406 174.009 729.569 174.395 732.045 176.113C735.616 178.592 737.201 183.347 737.76 187.466C738.549 193.274 736.965 200.277 733.065 204.782C730.83 207.365 724.639 209.181 724.38 212.709C725.696 214.611 734.602 218.34 737.136 219.737C750.332 206.895 764.135 192.216 764.285 172.506C764.343 164.762 761.925 156.188 756.344 150.615C752.49 146.766 747.766 143.72 743.706 140.072C738.929 135.78 734.52 131.198 729.377 127.306C718.798 119.299 704.014 114.27 690.712 114.54Q689.277 114.572 687.844 114.668ZM647.444 161.376C642.312 166.599 635.592 173.946 635.634 181.752C635.656 186.009 637.619 189.872 638.176 194.022C640.837 213.848 638.438 226.645 654.57 241.991C659.152 246.349 664.999 249.522 671.484 249.204C684.852 248.547 699.937 237.726 708.416 227.946Q711.345 224.528 714.109 220.975C716.619 217.788 719.709 214.649 719.101 210.223C718.778 207.874 717.168 206.224 717.572 203.814L718.158 203.236C721.26 203.63 724.541 204.413 727.248 202.373C730.222 200.133 731.592 194.956 731.988 191.447C732.325 188.458 732.139 184.584 730.154 182.137C729.081 180.813 727.587 180.138 725.906 180.004C723.932 179.847 722.062 180.244 720.572 181.611C715.656 186.123 718.199 192.834 715.342 197.114C712.286 197.057 710.188 195.855 706.991 196.301C706.075 196.428 705.155 196.531 704.238 196.661C700.234 194.304 696.486 192.297 692.02 190.982C682.118 188.067 672.168 187.83 663.708 181.165C659.095 177.53 655.418 172.592 652.11 167.799C650.717 165.78 649.284 162.95 647.444 161.376ZM725.893 220.618C728.071 228.38 731.712 235.665 733.836 243.385C724.563 266.452 692.112 267.987 682.136 282.581C678.753 287.53 677.915 294.138 677.855 300.017C682.463 292.454 688.805 286.687 695.715 281.248C702.859 275.856 710.377 271.048 718.54 267.342Q729.448 262.393 740.948 259.046C747.85 256.985 755.709 255.335 762.12 252.047C764.259 250.95 766.051 249.665 767.096 247.46C766.851 245.746 765.957 245.001 764.591 243.978C757.132 238.389 744.146 234.408 740.465 225.436C739.268 225.309 738.314 225.976 737.26 225.927C733.684 225.762 729.382 221.812 725.893 220.618ZM720.257 221.895L719.864 222.299C717.024 225.273 714.664 228.639 711.995 231.759C705.116 239.8 697.361 244.988 688.039 249.79C688.782 252.595 691.843 266.263 693.553 267.349L694.43 267.078C706.066 261.054 719.709 255.315 727.858 244.674C725.243 237.62 722.558 230.573 720.86 223.23C720.654 222.34 720.784 222.691 720.257 221.895ZM750.207 228.043C750.375 228.175 750.541 228.31 750.71 228.441C756.538 232.94 772.261 239.085 773.004 246.916C773.227 249.272 772.078 251.375 770.49 253.032C763.35 260.484 748.147 262.682 738.544 265.779C719.356 271.966 699.058 282.21 686.26 298.244C683.332 301.912 679.64 305.519 679.37 310.388L679.78 311.19C683.178 310.394 687.634 305.102 690.463 302.842C706.661 289.905 726.932 281.085 747.957 281.477C758.294 282.293 769.203 287.285 776.031 295.203C785.366 306.027 786.323 323.645 790.112 337.04C802.79 329.197 810.069 323.781 813.588 308.578C816.526 295.884 817.161 277.909 809.993 266.425C804.665 257.89 781.578 239.432 772.264 234.356C767.446 231.73 761.966 229.854 756.605 228.72C754.447 228.263 752.422 227.972 750.207 228.043ZM684.961 259.063C676.862 265.277 666.019 273.276 664.424 284.108C663.181 292.547 667.277 301.733 670.608 309.267L671.841 311.235L672.594 311.347C673.55 308.858 672.795 305.094 672.644 302.409C671.835 288.023 674.503 277.642 687.474 270.167C686.988 267.384 686.589 261.193 684.961 259.063ZM741.988 287.188C719.296 290.049 696.586 300.576 682.374 318.949L681.185 320.503C682.536 332.601 682.146 345.074 682.629 357.25Q683.738 387.301 686.635 417.232C689.547 416.238 692.47 415.296 695.262 413.991L695.472 413.256C698.052 404.075 699.34 394.305 701.163 384.938C705.096 364.729 708.803 344.538 713.392 324.463C714.152 321.134 715.457 312.172 716.623 309.861C716.98 309.153 717.601 308.815 718.249 308.428C719.62 308.279 719.746 308.32 720.973 308.957C722.414 311.196 721.607 314.23 721.064 316.674Q713.324 350.882 706.99 385.379C705.375 393.757 703.17 410.891 700.201 418.43C673.657 429.199 645.663 437.987 620.675 452.197C612.469 456.864 605.487 463.48 597.457 468.428C597.639 477.822 598.559 488.124 600.156 497.389C636.363 501.965 718.178 484.173 747.609 464.103C750.388 462 752.634 460.076 754.625 457.161C761.953 446.428 769.714 421.111 773.464 408.199C774.795 403.619 775.542 398.703 777.264 394.266C777.96 392.472 778.888 390.497 780.821 389.832C781.789 390.28 781.953 390.349 782.336 391.423C784.828 398.417 766.7 447.279 762.189 455.743C760.408 459.085 758.28 462.296 755.541 464.935C743.683 476.362 720.129 484.081 704.189 488.82C696.552 491.091 688.764 492.926 681.036 494.862C682.498 505.49 684.499 516.045 686.306 526.619C687.59 534.132 688.417 542.072 690.697 549.357C720.507 550.818 750.624 549.01 780.393 547.171C790.927 546.52 802.317 546.671 812.651 544.809C813.426 531.808 812.431 518.105 811.614 505.111C808.049 448.416 797.354 391.599 784.032 336.468C781.615 326.467 778.82 306.828 772.042 299.301C765.98 292.568 754.859 287.071 745.743 286.922C744.518 286.902 743.197 286.998 741.988 287.188ZM675.223 315.372C672.665 324.874 669.161 334.078 666.223 343.464C659.849 363.826 645.549 413.625 646.665 433.13C648.508 432.458 650.441 431.859 652.203 430.997C661.719 426.799 671.39 423.105 681.13 419.466C678.723 401.908 677.663 383.755 676.839 366.049Q676.186 353.216 676.06 340.367C676.056 333.831 676.449 327.207 676.133 320.684C676.054 319.057 676.075 316.77 675.223 315.372ZM595.898 366.353C587.333 371.76 578.72 377.192 570.368 382.921C573.947 383.201 577.532 383.546 581.125 383.548Q592.04 384.187 602.933 385.137C602.239 380.646 601.241 369.755 597.423 366.839C596.845 366.398 596.659 366.479 595.898 366.353ZM540.731 371.769C537.095 377.255 535.196 383.859 533.026 390.031C539.196 388.025 545.356 386.048 551.681 384.577C554.641 383.923 560.411 383.301 562.504 380.974C560.948 378.612 544.356 372.901 540.731 371.769ZM562.116 388.172C554.132 389.036 511.86 401.478 505.334 405.562L505.099 406.352C506.333 407.332 507.402 407.314 508.945 407.107C513.401 406.51 517.782 404.55 522.009 403.043C531.899 399.519 542.827 394.239 553.302 393.342C557.841 392.954 562.549 393.396 567.095 393.628C578.353 394.517 589.618 395.186 600.851 396.375C610.062 397.35 619.581 398.945 628.798 399.418C630.135 399.486 630.545 399.719 631.6 398.858C631.772 397.282 631.752 397.061 631.078 395.63C629.719 394.49 628.501 393.997 626.756 393.642C620.841 392.438 614.457 392.494 608.445 391.89C593.203 390.357 577.442 388.238 562.116 388.172ZM549.08 399.157C548.894 399.61 548.616 400.035 548.522 400.515C548.258 401.862 555.648 452.057 556.793 459.141C566.821 461.593 576.643 464.559 586.166 468.583C586.291 457.101 586.614 445.574 586.374 434.095C586.141 422.927 585.293 411.94 585.829 400.754C574.167 400.127 560.584 398.045 549.08 399.157ZM591.277 401.426C591.575 422.485 592.311 443.481 592.349 464.548C599.311 460.708 605.15 454.941 611.79 450.583C615.774 447.982 619.828 445.705 624.03 443.486C624.229 430.57 625.932 417.661 626.019 404.764C614.454 403.705 602.793 402.891 591.277 401.426ZM541.301 402.478C532.252 405.775 523.222 409.276 513.984 412.011C519.845 431.259 527.241 450.722 531.405 470.389C531.758 471.536 531.704 472.309 532.77 472.949C539.75 473.088 546.547 473.68 553.456 474.65C552.696 473.144 551.807 471.523 551.464 469.857C550.704 466.171 550.886 462.043 550.505 458.278C549.896 452.245 544.223 404.948 542.664 402.784C542.464 402.506 542.025 402.54 541.705 402.418L541.301 402.478ZM557.626 465.816C557.367 467.37 557.179 468.051 558.065 469.414C561.45 474.625 578.063 476.475 578.525 481.068C577.714 482.253 577.532 482.374 576.223 482.975C572.146 482.732 568.726 480.428 564.791 479.636C563.701 479.417 562.57 479.502 561.468 479.55C557.673 479.714 553.823 480.163 550.026 480.038C545.834 479.9 541.591 479.162 537.409 479.22C535.78 479.242 534.146 479.555 532.555 479.884C536.705 485.834 541.684 487.22 548.325 489.057C563.469 493.208 578.308 495.7 594.064 495.703C593.656 489.236 593.289 482.772 592.567 476.33C581.289 475.048 568.258 465.57 557.626 465.816ZM672.358 496.611C664.43 498.269 656.478 499.924 648.44 500.967C649.329 505.237 650.687 517.44 654.324 519.644C655.372 520.28 657.303 520.135 658.506 520.161C665.398 520.781 672.434 521.517 679.35 521.579C677.93 513.385 676.926 504.818 674.777 496.794C673.699 496.18 673.536 496.43 672.358 496.611ZM640.744 502.671L636.76 503.183C635.72 505.657 639.032 513.229 640.071 515.76C640.629 517.117 641.035 518.61 642.492 519.232C643.752 519.016 645.364 519.039 646.319 518.187C645.806 515.099 644.126 504.74 642.389 502.74L640.744 502.671ZM643.941 524.222C647.842 541.673 646.46 564.796 646.423 583.025L645.738 680.896C645.623 696.126 644.67 711.817 645.471 727.013C645.913 735.405 648.019 744.002 649.524 752.262Q653.087 771.663 656.271 791.13Q666.699 855.581 675.972 920.208C690.96 923.105 715.995 922.51 731.117 919.275Q730.898 908.572 730.795 897.867C730.787 892.738 731.398 887.028 730.436 881.983C728.798 873.393 721.612 859.191 718.155 850.457Q706.114 819.218 693.75 788.105C690.089 778.941 686.68 769.694 683.09 760.505C681.287 755.89 679.044 751.26 677.664 746.502C676.139 741.248 675.907 735.51 675.332 730.091Q674 717.002 672.478 703.934Q666.822 654.377 660.021 604.963C659.127 598.505 654.059 565.483 655.907 561.385C657.185 560.601 657.332 560.424 658.807 560.498C660.76 561.955 661.151 564.577 661.469 566.859Q668.563 616.258 673.663 665.903L679.934 718.244C680.928 726.618 681.229 735.779 683.23 743.932C684.74 750.082 687.426 755.95 689.686 761.856C695.219 776.317 701.344 790.546 706.852 805.002C715.848 828.61 725.531 851.99 734.33 875.661L748.682 914.376C751.225 921.218 753.524 928.263 756.445 934.948C778.592 934.158 800.144 929.578 820.097 919.714C817.75 908.345 814.608 897.126 811.908 885.836L792.881 807.106L786.44 780.936C785.116 775.572 783.403 770.013 782.806 764.515C782.166 758.618 783.113 752.308 783.579 746.406L786.222 714.008C790.137 659.826 795.323 605.747 799.625 551.602C783.491 552.676 696.493 559.282 687.068 554.705C681.683 548.731 682.299 535.167 680.401 527.408C668.172 526.81 656.098 525.624 643.941 524.222ZM720.701 926.294C709.803 927.047 699.045 927.884 688.113 927.275C693.9 932.483 698.939 938.389 704.459 943.859C707.673 946.921 711.896 951.705 716.755 951.51C721.604 951.315 725.627 946.494 728.855 943.34C728.339 938.002 728.355 931.367 726.35 926.407C724.692 925.738 722.471 926.145 720.701 926.294ZM816.888 928.017C804.075 932.725 792.794 935.587 779.488 938.247C783.875 942.036 788.974 944.767 793.71 948.068C798.601 951.12 803.915 954.664 809.982 953.379C815.52 952.206 819.598 947.561 823.457 943.749C822.348 940.285 819.813 930.179 817.428 928.081L816.888 928.017ZM685.101 931.809C681.566 937.216 678.091 942.756 673.735 947.551C659.623 963.087 637.848 972.659 618.49 980.035C611.361 982.752 603.969 985.058 597.079 988.336C617.296 989.908 638.162 990.756 658.376 988.602C674.33 987.85 713.866 986.575 728.085 981.174C731.737 979.787 734.966 976.958 738.22 974.834C736.681 966.413 735.387 957.056 732.108 949.133C727.088 953.149 721.688 957.58 714.801 956.744C702.381 955.237 694.889 938.054 685.101 931.809ZM772.741 942.456C771.295 943.303 770.053 943.714 769.468 945.403C767.623 950.727 767.875 955.79 765.012 960.988C759.324 971.315 733.266 986.155 722.901 992.258C713.886 997.566 704.392 1001.18 695.061 1005.77C718.632 1006.83 745.754 1001.87 768.82 997.112Q784.698 993.555 800.512 989.723C813.367 986.707 828.257 983.956 839.959 977.695C837.459 968.111 832.896 954.775 828.11 946.174C822.837 952.474 816.906 959.09 808.122 959.825C793.763 961.026 781.534 941.696 772.741 942.456ZM840.907 984.024C825.086 990.225 808.359 993.875 791.856 997.767C762.584 1004.67 716.418 1015.91 686.857 1010.5C686.608 1012.08 686.326 1013.62 686.003 1015.18C685.795 1016.19 685.847 1016.62 686.143 1017.58C687.109 1018.45 687.785 1018.59 689.046 1018.84C726.706 1023.19 811.277 1016.83 843.477 1000.08C843.499 996.082 843.609 987.154 840.907 984.024ZM711.816 990.191C678.394 994.328 624.56 998.841 591.489 993.428C590.287 996.908 589.44 1000.27 588.994 1003.93C590.554 1004.36 592.127 1004.86 593.707 1005.21C617.933 1009.63 641.94 1008.74 666.309 1006.9C671.251 1006.52 676.932 1006.69 681.736 1005.72C686.458 1004.75 691.497 1001.01 695.877 998.994C702.14 996.111 709 994.097 714.918 990.53L714.425 990.232L715.064 990.075C713.982 990.072 712.883 989.999 711.816 990.191Z"/>
	<path fill="#524674" d="M656.365 131.728C665.911 120.774 673.228 116.72 687.844 114.668Q689.277 114.572 690.712 114.54C704.014 114.27 718.798 119.299 729.377 127.306C734.52 131.198 738.929 135.78 743.706 140.072C747.766 143.72 752.49 146.766 756.344 150.615C761.925 156.188 764.343 164.762 764.285 172.506C764.135 192.216 750.332 206.895 737.136 219.737C734.602 218.34 725.696 214.611 724.38 212.709C724.639 209.181 730.83 207.365 733.065 204.782C736.965 200.277 738.549 193.274 737.76 187.466C737.201 183.347 735.616 178.592 732.045 176.113C729.569 174.395 726.406 174.009 723.509 174.717C718.702 175.893 716.012 179.117 713.461 183.058C712.022 185.98 710.889 189.086 709.678 192.11C704.341 189.716 698.484 187.546 692.837 186.044C685.468 184.083 677.817 183.116 671.088 179.3C663.772 175.151 654.814 164.525 651.965 156.724C651.497 155.443 651.5 153.914 651.119 152.553C650.171 151.745 650.381 151.613 649.048 151.658C644.25 154.738 639.613 161.704 636.243 166.343C630.142 174.743 629.514 180.496 631.044 190.479C628.49 187.126 626.152 183.26 625.45 179.047C623.747 168.821 632.443 155.819 637.087 147.036C639.03 143.36 640.753 139.276 643.249 135.948C646.588 131.493 651.299 132.342 656.365 131.728Z"/>
	<path fill="#2B153B" d="M443.065 369.124C436.121 368.81 352.18 358.977 350.701 357.925C348.582 349.14 349.642 324.812 349.615 314.354L349.581 217.565L349.553 158.225C349.493 147.233 348.594 135.473 349.656 124.57C350.357 123.18 351.566 122.734 352.883 122.053C363.707 123.166 381.008 128.384 392.041 131.13L423 139.082C428.602 140.498 434.418 141.555 439.91 143.314C441.841 143.932 443.556 144.746 445.315 145.747C446.446 148.258 446.085 306.484 446.085 324.208L446.079 353.402C446.088 357.278 446.86 361.856 446.013 365.625C445.586 367.519 444.594 368.151 443.065 369.124ZM357.836 131.454C357.449 151.599 357.648 171.786 357.61 191.936L357.653 351.401C377.054 352.904 396.523 355.751 415.853 358.073C423.051 358.937 430.261 360.083 437.494 360.572L437.319 151.646C411.108 144.245 384.488 137.083 357.836 131.454Z"/>
	<path fill="#9F8BE8" d="M357.653 351.401L357.61 191.936C357.648 171.786 357.449 151.599 357.836 131.454C384.488 137.083 411.108 144.245 437.319 151.646L437.494 360.572C430.261 360.083 423.051 358.937 415.853 358.073C396.523 355.751 377.054 352.904 357.653 351.401Z"/>
	<path fill="#FEFEFD" d="M714.109 220.975Q711.345 224.528 708.416 227.946C699.937 237.726 684.852 248.547 671.484 249.204C664.999 249.522 659.152 246.349 654.57 241.991C638.438 226.645 640.837 213.848 638.176 194.022C637.619 189.872 635.656 186.009 635.634 181.752C635.592 173.946 642.312 166.599 647.444 161.376C649.284 162.95 650.717 165.78 652.11 167.799C655.418 172.592 659.095 177.53 663.708 181.165C672.168 187.83 682.118 188.067 692.02 190.982C696.486 192.297 700.234 194.304 704.238 196.661C705.155 196.531 706.075 196.428 706.991 196.301C710.188 195.855 712.286 197.057 715.342 197.114C718.199 192.834 715.656 186.123 720.572 181.611C722.062 180.244 723.932 179.847 725.906 180.004C727.587 180.138 729.081 180.813 730.154 182.137C732.139 184.584 732.325 188.458 731.988 191.447C731.592 194.956 730.222 200.133 727.248 202.373C724.541 204.413 721.26 203.63 718.158 203.236L717.572 203.814C717.168 206.224 718.778 207.874 719.101 210.223C719.709 214.649 716.619 217.788 714.109 220.975ZM642.183 186.912C640.835 187.73 639.316 188.493 638.773 190.09C638.354 191.323 638.64 191.574 639.286 192.571C640.673 193.266 641.532 193.223 643.017 193.105C644.27 192.289 645.782 191.45 646.234 189.913C646.594 188.69 646.317 188.376 645.647 187.447C644.322 186.881 643.618 186.776 642.183 186.912ZM644.725 196.226C643.078 198.921 643.499 200.316 644.226 203.319C645.148 207.131 647.319 213.307 651.058 215.228C652.719 216.081 654.139 215.744 655.886 215.457C656.729 214.267 657.445 213.416 657.53 211.899C656.368 210.04 654.447 210.578 653.115 209.101C648.973 204.507 654.114 198.334 645.344 196.342C645.139 196.296 644.932 196.265 644.725 196.226ZM671.134 216.392C669.872 219.942 667.91 224.724 664.373 226.536C659.923 228.816 654.564 224.22 650.818 226.697C650.553 227.905 650.737 228.669 651.469 229.714C652.336 230.953 653.396 231.563 654.672 232.275C659.689 233.482 663.633 233.073 668.062 230.242C671.109 228.293 675.07 224.53 675.684 220.766C675.917 219.339 675.713 218.636 675.002 217.413C673.528 216.433 672.867 216.515 671.134 216.392Z"/>
	<path fill="#010100" d="M643.017 193.105C641.532 193.223 640.673 193.266 639.286 192.571C638.64 191.574 638.354 191.323 638.773 190.09C639.316 188.493 640.835 187.73 642.183 186.912C643.618 186.776 644.322 186.881 645.647 187.447C646.317 188.376 646.594 188.69 646.234 189.913C645.782 191.45 644.27 192.289 643.017 193.105Z"/>
	<path fill="#010100" d="M655.886 215.457C654.139 215.744 652.719 216.081 651.058 215.228C647.319 213.307 645.148 207.131 644.226 203.319C643.499 200.316 643.078 198.921 644.725 196.226C644.932 196.265 645.139 196.296 645.344 196.342C654.114 198.334 648.973 204.507 653.115 209.101C654.447 210.578 656.368 210.04 657.53 211.899C657.445 213.416 656.729 214.267 655.886 215.457Z"/>
	<path fill="#010100" d="M654.672 232.275C653.396 231.563 652.336 230.953 651.469 229.714C650.737 228.669 650.553 227.905 650.818 226.697C654.564 224.22 659.923 228.816 664.373 226.536C667.91 224.724 669.872 219.942 671.134 216.392C672.867 216.515 673.528 216.433 675.002 217.413C675.713 218.636 675.917 219.339 675.684 220.766C675.07 224.53 671.109 228.293 668.062 230.242C663.633 233.073 659.689 233.482 654.672 232.275Z"/>
	<path fill="#524674" d="M733.836 243.385C731.712 235.665 728.071 228.38 725.893 220.618C729.382 221.812 733.684 225.762 737.26 225.927C738.314 225.976 739.268 225.309 740.465 225.436C744.146 234.408 757.132 238.389 764.591 243.978C765.957 245.001 766.851 245.746 767.096 247.46C766.051 249.665 764.259 250.95 762.12 252.047C755.709 255.335 747.85 256.985 740.948 259.046Q729.448 262.393 718.54 267.342C710.377 271.048 702.859 275.856 695.715 281.248C688.805 286.687 682.463 292.454 677.855 300.017C677.915 294.138 678.753 287.53 682.136 282.581C692.112 267.987 724.563 266.452 733.836 243.385Z"/>
	<path fill="#FEFEFD" d="M688.039 249.79C697.361 244.988 705.116 239.8 711.995 231.759C714.664 228.639 717.024 225.273 719.864 222.299L720.257 221.895C720.784 222.691 720.654 222.34 720.86 223.23C722.558 230.573 725.243 237.62 727.858 244.674C719.709 255.315 706.066 261.054 694.43 267.078L693.553 267.349C691.843 266.263 688.782 252.595 688.039 249.79Z"/>
	<path fill="#9F8BE8" d="M747.957 281.477C726.932 281.085 706.661 289.905 690.463 302.842C687.634 305.102 683.178 310.394 679.78 311.19L679.37 310.388C679.64 305.519 683.332 301.912 686.26 298.244C699.058 282.21 719.356 271.966 738.544 265.779C748.147 262.682 763.35 260.484 770.49 253.032C772.078 251.375 773.227 249.272 773.004 246.916C772.261 239.085 756.538 232.94 750.71 228.441C750.541 228.31 750.375 228.175 750.207 228.043C752.422 227.972 754.447 228.263 756.605 228.72C761.966 229.854 767.446 231.73 772.264 234.356C781.578 239.432 804.665 257.89 809.993 266.425C817.161 277.909 816.526 295.884 813.588 308.578C810.069 323.781 802.79 329.197 790.112 337.04C786.323 323.645 785.366 306.027 776.031 295.203C769.203 287.285 758.294 282.293 747.957 281.477Z"/>
	<path fill="#9F8BE8" d="M670.608 309.267C667.277 301.733 663.181 292.547 664.424 284.108C666.019 273.276 676.862 265.277 684.961 259.063C686.589 261.193 686.988 267.384 687.474 270.167C674.503 277.642 671.835 288.023 672.644 302.409C672.795 305.094 673.55 308.858 672.594 311.347L671.841 311.235L670.608 309.267Z"/>
	<path fill="#FEFEFD" d="M681.185 320.503L682.374 318.949C696.586 300.576 719.296 290.049 741.988 287.188C743.197 286.998 744.518 286.902 745.743 286.922C754.859 287.071 765.98 292.568 772.042 299.301C778.82 306.828 781.615 326.467 784.032 336.468C797.354 391.599 808.049 448.416 811.614 505.111C812.431 518.105 813.426 531.808 812.651 544.809C802.317 546.671 790.927 546.52 780.393 547.171C750.624 549.01 720.507 550.818 690.697 549.357C688.417 542.072 687.59 534.132 686.306 526.619C684.499 516.045 682.498 505.49 681.036 494.862C688.764 492.926 696.552 491.091 704.189 488.82C720.129 484.081 743.683 476.362 755.541 464.935C758.28 462.296 760.408 459.085 762.189 455.743C766.7 447.279 784.828 398.417 782.336 391.423C781.953 390.349 781.789 390.28 780.821 389.832C778.888 390.497 777.96 392.472 777.264 394.266C775.542 398.703 774.795 403.619 773.464 408.199C769.714 421.111 761.953 446.428 754.625 457.161C752.634 460.076 750.388 462 747.609 464.103C718.178 484.173 636.363 501.965 600.156 497.389C598.559 488.124 597.639 477.822 597.457 468.428C605.487 463.48 612.469 456.864 620.675 452.197C645.663 437.987 673.657 429.199 700.201 418.43C703.17 410.891 705.375 393.757 706.99 385.379Q713.324 350.882 721.064 316.674C721.607 314.23 722.414 311.196 720.973 308.957C719.746 308.32 719.62 308.279 718.249 308.428C717.601 308.815 716.98 309.153 716.623 309.861C715.457 312.172 714.152 321.134 713.392 324.463C708.803 344.538 705.096 364.729 701.163 384.938C699.34 394.305 698.052 404.075 695.472 413.256L695.262 413.991C692.47 415.296 689.547 416.238 686.635 417.232Q683.738 387.301 682.629 357.25C682.146 345.074 682.536 332.601 681.185 320.503Z"/>
	<path fill="#FEFEFD" d="M636.936 402.655C637.986 398.871 638.25 395.578 636.165 392.145C634.956 390.153 632.587 389.022 633.087 386.659C635.819 373.743 639.496 360.789 642.959 348.044C647.931 329.746 653.039 311.328 658.992 293.326C660.5 302.182 664.928 310.532 668.791 318.569C661.035 339.047 655.299 359.716 649.937 380.923C647.738 389.622 645.271 398.261 643.554 407.072C641.389 405.514 639.258 403.977 636.936 402.655Z"/>
	<path fill="#FB8199" d="M646.665 433.13C645.549 413.625 659.849 363.826 666.223 343.464C669.161 334.078 672.665 324.874 675.223 315.372C676.075 316.77 676.054 319.057 676.133 320.684C676.449 327.207 676.056 333.831 676.06 340.367Q676.186 353.216 676.839 366.049C677.663 383.755 678.723 401.908 681.13 419.466C671.39 423.105 661.719 426.799 652.203 430.997C650.441 431.859 648.508 432.458 646.665 433.13Z"/>
	<path fill="#FB8199" d="M570.368 382.921C578.72 377.192 587.333 371.76 595.898 366.353C596.659 366.479 596.845 366.398 597.423 366.839C601.241 369.755 602.239 380.646 602.933 385.137Q592.04 384.187 581.125 383.548C577.532 383.546 573.947 383.201 570.368 382.921Z"/>
	<path fill="#FB8199" d="M533.026 390.031C535.196 383.859 537.095 377.255 540.731 371.769C544.356 372.901 560.948 378.612 562.504 380.974C560.411 383.301 554.641 383.923 551.681 384.577C545.356 386.048 539.196 388.025 533.026 390.031Z"/>
	<path fill="#FB8199" d="M567.095 393.628C562.549 393.396 557.841 392.954 553.302 393.342C542.827 394.239 531.899 399.519 522.009 403.043C517.782 404.55 513.401 406.51 508.945 407.107C507.402 407.314 506.333 407.332 505.099 406.352L505.334 405.562C511.86 401.478 554.132 389.036 562.116 388.172C577.442 388.238 593.203 390.357 608.445 391.89C614.457 392.494 620.841 392.438 626.756 393.642C628.501 393.997 629.719 394.49 631.078 395.63C631.752 397.061 631.772 397.282 631.6 398.858C630.545 399.719 630.135 399.486 628.798 399.418C619.581 398.945 610.062 397.35 600.851 396.375C589.618 395.186 578.353 394.517 567.095 393.628Z"/>
	<path fill="#FB8199" d="M556.793 459.141C555.648 452.057 548.258 401.862 548.522 400.515C548.616 400.035 548.894 399.61 549.08 399.157C560.584 398.045 574.167 400.127 585.829 400.754C585.293 411.94 586.141 422.927 586.374 434.095C586.614 445.574 586.291 457.101 586.166 468.583C576.643 464.559 566.821 461.593 556.793 459.141Z"/>
	<path fill="#FB8199" d="M592.349 464.548C592.311 443.481 591.575 422.485 591.277 401.426C602.793 402.891 614.454 403.705 626.019 404.764C625.932 417.661 624.229 430.57 624.03 443.486C619.828 445.705 615.774 447.982 611.79 450.583C605.15 454.941 599.311 460.708 592.349 464.548Z"/>
	<path fill="#FB8199" d="M513.984 412.011C523.222 409.276 532.252 405.775 541.301 402.478L541.705 402.418C542.025 402.54 542.464 402.506 542.664 402.784C544.223 404.948 549.896 452.245 550.505 458.278C550.886 462.043 550.704 466.171 551.464 469.857C551.807 471.523 552.696 473.144 553.456 474.65C546.547 473.68 539.75 473.088 532.77 472.949C531.704 472.309 531.758 471.536 531.405 470.389C527.241 450.722 519.845 431.259 513.984 412.011Z"/>
	<path fill="#CBC4FE" d="M631.589 405.807C633.868 405.144 635.253 404.341 636.936 402.655C639.258 403.977 641.389 405.514 643.554 407.072C641.374 416.283 640.24 426.165 640.844 435.605Q635.211 438.027 629.607 440.517C630.423 428.98 631.276 417.368 631.589 405.807Z"/>
	<path fill="#2B153B" d="M297.889 836.877L251.412 848.909C242.829 851.125 234.113 853.797 225.415 855.439C223.891 855.726 222.109 856.406 220.841 855.263C218.841 853.459 219.141 850.287 219.139 847.852L219.379 538.478L219.328 459.818C219.251 444.579 218.746 429.226 219.137 413.998C219.216 410.932 219.48 409.668 221.74 407.518C231.722 406.86 247.014 409.254 257.55 410.06C275.423 411.427 293.472 411.921 311.277 413.941C314.217 414.274 316.953 414.789 319.742 415.798C320.456 417.261 320.6 418.691 320.66 420.311C321.008 429.739 320.584 439.307 320.6 448.752L320.529 519.65L320.645 727.613L320.979 795.509C320.996 806.711 321.539 818.225 320.731 829.389C317.945 833.204 302.972 835.667 297.889 836.877ZM227.57 416.128L227.496 846.445L295.896 828.948L312.919 824.662L312.981 422.099C284.501 420.326 256.044 417.82 227.57 416.128Z"/>
	<path fill="#9F8BE8" d="M227.496 846.445L227.57 416.128C256.044 417.82 284.501 420.326 312.981 422.099L312.919 824.662L295.896 828.948L227.496 846.445Z"/>
	<path fill="#2B153B" d="M426.448 804.756Q401.763 810.597 377.166 816.801C369.337 818.748 360.727 821.782 352.746 822.402C351.939 821.979 351.484 821.625 350.876 820.918C350.34 820.294 349.898 819.486 349.738 818.68C348.674 813.317 349.588 791.85 349.61 785.157L349.825 537.562L349.609 458.876C349.57 446.628 348.573 433.655 349.56 421.479C349.77 418.897 351.003 418.056 352.86 416.486C365.198 415.982 378.403 418.038 390.714 418.965C406.915 420.185 423.431 420.648 439.54 422.624C440.821 422.782 444.688 423.215 445.485 424.105C447.161 425.977 446.209 446.28 446.192 450.016L446.461 798.932C440.456 801.981 432.963 803.139 426.448 804.756ZM357.99 425.104L358.102 812.7Q378.256 807.813 398.459 803.136C406.432 801.255 414.806 799.546 422.603 797.04C427.598 795.802 432.728 794.729 437.654 793.256L437.389 565.433C437.367 520.526 436.675 475.533 437.525 430.635C411.064 428.272 384.49 427.02 357.99 425.104Z"/>
	<path fill="#9F8BE8" d="M358.102 812.7L357.99 425.104C384.49 427.02 411.064 428.272 437.525 430.635C436.675 475.533 437.367 520.526 437.389 565.433L437.654 793.256C432.728 794.729 427.598 795.802 422.603 797.04C414.806 799.546 406.432 801.255 398.459 803.136Q378.256 807.813 358.102 812.7Z"/>
	<path fill="#FEFEFD" d="M532.555 479.884C534.146 479.555 535.78 479.242 537.409 479.22C541.591 479.162 545.834 479.9 550.026 480.038C553.823 480.163 557.673 479.714 561.468 479.55C562.57 479.502 563.701 479.417 564.791 479.636C568.726 480.428 572.146 482.732 576.223 482.975C577.532 482.374 577.714 482.253 578.525 481.068C578.063 476.475 561.45 474.625 558.065 469.414C557.179 468.051 557.367 467.37 557.626 465.816C568.258 465.57 581.289 475.048 592.567 476.33C593.289 482.772 593.656 489.236 594.064 495.703C578.308 495.7 563.469 493.208 548.325 489.057C541.684 487.22 536.705 485.834 532.555 479.884Z"/>
	<path fill="#FB8199" d="M648.44 500.967C656.478 499.924 664.43 498.269 672.358 496.611C673.536 496.43 673.699 496.18 674.777 496.794C676.926 504.818 677.93 513.385 679.35 521.579C672.434 521.517 665.398 520.781 658.506 520.161C657.303 520.135 655.372 520.28 654.324 519.644C650.687 517.44 649.329 505.237 648.44 500.967Z"/>
	<path fill="#FEFEFD" d="M642.492 519.232C641.035 518.61 640.629 517.117 640.071 515.76C639.032 513.229 635.72 505.657 636.76 503.183L640.744 502.671L642.389 502.74C644.126 504.74 645.806 515.099 646.319 518.187C645.364 519.039 643.752 519.016 642.492 519.232Z"/>
	<path fill="#9F8BE8" d="M675.972 920.208Q666.699 855.581 656.271 791.13Q653.087 771.663 649.524 752.262C648.019 744.002 645.913 735.405 645.471 727.013C644.67 711.817 645.623 696.126 645.738 680.896L646.423 583.025C646.46 564.796 647.842 541.673 643.941 524.222C656.098 525.624 668.172 526.81 680.401 527.408C682.299 535.167 681.683 548.731 687.068 554.705C696.493 559.282 783.491 552.676 799.625 551.602C795.323 605.747 790.137 659.826 786.222 714.008L783.579 746.406C783.113 752.308 782.166 758.618 782.806 764.515C783.403 770.013 785.116 775.572 786.44 780.936L792.881 807.106L811.908 885.836C814.608 897.126 817.75 908.345 820.097 919.714C800.144 929.578 778.592 934.158 756.445 934.948C753.524 928.263 751.225 921.218 748.682 914.376L734.33 875.661C725.531 851.99 715.848 828.61 706.852 805.002C701.344 790.546 695.219 776.317 689.686 761.856C687.426 755.95 684.74 750.082 683.23 743.932C681.229 735.779 680.928 726.618 679.934 718.244L673.663 665.903Q668.563 616.258 661.469 566.859C661.151 564.577 660.76 561.955 658.807 560.498C657.332 560.424 657.185 560.601 655.907 561.385C654.059 565.483 659.127 598.505 660.021 604.963Q666.822 654.377 672.478 703.934Q674 717.002 675.332 730.091C675.907 735.51 676.139 741.248 677.664 746.502C679.044 751.26 681.287 755.89 683.09 760.505C686.68 769.694 690.089 778.941 693.75 788.105Q706.114 819.218 718.155 850.457C721.612 859.191 728.798 873.393 730.436 881.983C731.398 887.028 730.787 892.738 730.795 897.867Q730.898 908.572 731.117 919.275C715.995 922.51 690.96 923.105 675.972 920.208Z"/>
	<path fill="#9F8BE8" d="M761.066 940.697C761.536 943.22 762.238 945.658 762.94 948.122C763.116 953.402 760.981 957.784 757.401 961.581C753.599 965.614 748.653 969.016 743.867 971.769C742.095 964.055 740.664 955.742 737.793 948.379C735.239 942.111 732.417 934.794 732.485 927.909C732.522 924.194 733.738 924.934 735.754 922.5C737.779 920.055 736.404 903.181 736.336 899.093C739.275 905.41 749.49 936.834 752.915 939.644C754.705 941.113 758.849 940.685 761.066 940.697Z"/>
	<path fill="#FEFEFD" d="M688.113 927.275C699.045 927.884 709.803 927.047 720.701 926.294C722.471 926.145 724.692 925.738 726.35 926.407C728.355 931.367 728.339 938.002 728.855 943.34C725.627 946.494 721.604 951.315 716.755 951.51C711.896 951.705 707.673 946.921 704.459 943.859C698.939 938.389 693.9 932.483 688.113 927.275Z"/>
	<path fill="#FEFEFD" d="M779.488 938.247C792.794 935.587 804.075 932.725 816.888 928.017L817.428 928.081C819.813 930.179 822.348 940.285 823.457 943.749C819.598 947.561 815.52 952.206 809.982 953.379C803.915 954.664 798.601 951.12 793.71 948.068C788.974 944.767 783.875 942.036 779.488 938.247Z"/>
	<path fill="#524674" d="M597.079 988.336C603.969 985.058 611.361 982.752 618.49 980.035C637.848 972.659 659.623 963.087 673.735 947.551C678.091 942.756 681.566 937.216 685.101 931.809C694.889 938.054 702.381 955.237 714.801 956.744C721.688 957.58 727.088 953.149 732.108 949.133C735.387 957.056 736.681 966.413 738.22 974.834C734.966 976.958 731.737 979.787 728.085 981.174C713.866 986.575 674.33 987.85 658.376 988.602C638.162 990.756 617.296 989.908 597.079 988.336Z"/>
	<path fill="#524674" d="M695.061 1005.77C704.392 1001.18 713.886 997.566 722.901 992.258C733.266 986.155 759.324 971.315 765.012 960.988C767.875 955.79 767.623 950.727 769.468 945.403C770.053 943.714 771.295 943.303 772.741 942.456C781.534 941.696 793.763 961.026 808.122 959.825C816.906 959.09 822.837 952.474 828.11 946.174C832.896 954.775 837.459 968.111 839.959 977.695C828.257 983.956 813.367 986.707 800.512 989.723Q784.698 993.555 768.82 997.112C745.754 1001.87 718.632 1006.83 695.061 1005.77Z"/>
	<path fill="#FEFEFD" d="M686.857 1010.5C716.418 1015.91 762.584 1004.67 791.856 997.767C808.359 993.875 825.086 990.225 840.907 984.024C843.609 987.154 843.499 996.082 843.477 1000.08C811.277 1016.83 726.706 1023.19 689.046 1018.84C687.785 1018.59 687.109 1018.45 686.143 1017.58C685.847 1016.62 685.795 1016.19 686.003 1015.18C686.326 1013.62 686.608 1012.08 686.857 1010.5Z"/>
	<path fill="#FEFEFD" d="M591.489 993.428C624.56 998.841 678.394 994.328 711.816 990.191C712.883 989.999 713.982 990.072 715.064 990.075L714.425 990.232L714.918 990.53C709 994.097 702.14 996.111 695.877 998.994C691.497 1001.01 686.458 1004.75 681.736 1005.72C676.932 1006.69 671.251 1006.52 666.309 1006.9C641.94 1008.74 617.933 1009.63 593.707 1005.21C592.127 1004.86 590.554 1004.36 588.994 1003.93C589.44 1000.27 590.287 996.908 591.489 993.428Z"/>
</svg>
