<?xml version="1.0" encoding="utf-8" ?>
<svg xmlns="http://www.w3.org/2000/svg" xmlns:xlink="http://www.w3.org/1999/xlink" width="1024" height="1024">
	<path fill="#6545B4" d="M0 0L141.162 0Q107.332 43.1626 74.1624 86.8346L53.5285 114C50.5429 117.926 47.7928 122.234 44.5577 125.943L0 125.975L0 0Z"/>
	<path d="M141.162 0L149.184 0C142.21 10.0692 134.081 19.5964 126.581 29.3036L86.551 81.3844Q74.2816 97.1349 62.2238 113.048C57.4303 119.342 52.7437 126.216 47.3909 132.01C31.6187 132.392 15.7778 132.181 0 132.055L0 125.975L44.5577 125.943C47.7928 122.234 50.5429 117.926 53.5285 114L74.1624 86.8346Q107.332 43.1623 141.162 0Z"/>
	<path fill="#6545B4" d="M149.184 0L188.48 0L111.152 101.134L84.8253 136.467C79.9662 142.86 74.983 149.898 69.2596 155.536L0 155.581L0 132.055C15.7778 132.181 31.6187 132.392 47.3909 132.01C52.7437 126.216 57.4303 119.342 62.2238 113.048Q74.2816 97.1348 86.551 81.3844L126.581 29.3036C134.081 19.5964 142.21 10.0692 149.184 0Z"/>
	<path d="M188.48 0L196.137 0C190.625 8.99325 183.314 17.0896 176.943 25.507L132.533 83.9098L94.9015 133.286C89.0651 141.096 79.2169 155.774 72.764 162.088Q36.3824 161.853 0 162.052L0 155.581L69.2596 155.536C74.983 149.898 79.9662 142.86 84.8253 136.467L111.152 101.134L188.48 0Z"/>
	<path fill="#9F8BE8" d="M196.137 0L371.969 0L461.821 124.821C460.58 142.923 461.546 161.575 461.548 179.734L461.418 273.67L132.622 269.884L73.4991 268.931C66.8786 268.784 30.6385 266.852 26.2524 268.334C24.4741 274.947 25.819 282.055 24.3834 288.782C54.606 315.458 87.1507 339.493 117.609 365.919C117.012 395.138 117.27 424.416 117.184 453.644L116.958 591.887L0 591.723L0 162.052Q36.3824 161.853 72.764 162.088C79.2169 155.774 89.0651 141.096 94.9015 133.286L132.533 83.9098L176.943 25.507C183.314 17.0896 190.625 8.99325 196.137 0ZM212.016 32.0487C211.484 32.8957 211.209 33.4918 211.115 34.5079C210.489 41.2737 210.981 48.5173 210.974 55.3244L210.954 96.695L210.956 168.645C210.962 173.892 210.147 188.624 211.145 192.546C211.335 193.293 211.716 193.855 212.18 194.453C223.722 195.218 235.389 194.94 246.957 194.991L293.25 195.53L331.501 196.21C338.952 196.321 346.775 196.788 354.179 195.996C354.634 194.857 354.855 193.988 354.942 192.753C355.856 179.673 355.044 165.992 355.035 152.859L355.143 72.3102C355.186 64.6637 356.479 40.3055 354.833 34.8216C353.688 33.9689 352.518 33.7847 351.124 33.7003C345.039 33.3319 338.748 33.7071 332.636 33.6629L291.309 33.2564L243.006 32.5295C232.71 32.3272 222.309 31.7602 212.016 32.0487Z"/>
	<path d="M371.969 0L379.875 0C404.807 34.72 430.372 69.005 454.952 103.969C459.238 110.066 464.21 115.757 468.354 121.922C469.276 123.295 470.026 124.605 470.378 126.226C470.092 127.888 469.246 129.149 468.899 130.745C467.681 136.353 468.509 143.645 468.515 149.406C487.707 149.185 506.897 149.503 526.077 149.322C517.117 136.07 507.209 123.416 497.66 110.584L442.663 35.6211C434.097 23.7622 425.235 12.2279 417.17 0L424.962 0C431.585 11.5989 441.063 22.1225 448.878 32.9796L511.572 118.623C517.417 126.576 531.37 143.306 534.812 151.757C528.694 155.839 521.388 158.702 514.763 161.923C499.243 169.47 483.573 176.529 468.469 184.902L468.293 246.25C468.257 256.729 467.789 267.361 468.235 277.817C480.322 287.127 493.349 295.235 506.056 303.652L549.009 332.475C558.371 338.694 570.49 345.545 578.951 352.565C579.229 356.428 580.412 368.135 578.685 371.173C571.195 373.193 555.612 372.008 547.362 371.976L547.348 459.197L547.361 484.616C547.352 489.164 547.065 493.908 547.4 498.435C546.377 518.536 547.039 539.029 547.032 559.164L546.977 668.063C546.971 675.679 548.042 718.343 546.023 722.719C541.673 725.94 526.263 724.283 520.258 724.423C523.973 730.247 525.813 735.055 527.174 741.774C532.64 736.319 540.533 728.049 548.946 728.183C552.468 728.239 555.419 729.951 557.711 732.554C560.756 736.012 562.205 740.455 563.832 744.681C569.833 739.889 576.48 734.894 584.661 735.773Q585.473 735.862 586.271 736.03Q587.07 736.199 587.848 736.446Q588.626 736.693 589.376 737.015Q590.126 737.338 590.84 737.733Q591.555 738.128 592.227 738.592Q592.898 739.056 593.521 739.584Q594.143 740.113 594.71 740.7Q595.278 741.287 595.784 741.927C600.747 748.124 601.133 756.748 600.147 764.304C598.891 773.928 594.771 783.357 590.37 791.918C595.85 790.654 600.702 789.803 605.75 793.061C611.327 796.661 614.718 803.616 615.954 810.004C617.859 819.854 614.268 830.503 608.579 838.551C601.529 848.524 591.27 852.947 579.499 854.837C566.673 856.897 544.886 855.821 531.248 855.811C497.059 855.786 462.78 855.133 428.604 855.674C434.934 863.547 440.29 860.854 438.965 873.219C437.94 882.781 435.186 892.517 435.597 902.158C446.843 906.441 458.003 910.912 469.35 914.932C491.997 922.956 514.87 930.163 537.253 938.954Q549.483 943.676 561.385 949.171Q573.288 954.666 584.814 960.911Q596.341 967.155 607.445 974.125Q618.549 981.094 629.184 988.759Q635.975 953.86 644.503 919.344Q653.032 884.828 663.276 850.782Q670.681 826.697 678.629 802.785C681.83 792.967 685.645 782.971 687.431 772.781C689.807 759.225 689.674 740.909 686.275 727.497C676.458 727.938 667.304 727.617 659.581 720.596C656.561 717.85 654.349 714.367 652.687 710.663C644.792 713.248 636.668 716.043 628.653 711.985C621.581 708.406 617.092 699.57 614.572 692.369C604.35 690.073 593.042 684.569 587.277 675.412C585.933 673.278 585.194 670.829 583.894 668.728C583.161 667.544 581.5 666.279 581.117 664.964C580.976 664.483 580.998 663.522 581.095 663.023C581.39 661.499 582.058 659.859 582.658 658.425C581.023 656.627 577.868 652.99 577.798 650.515C577.76 649.17 578.178 648.508 579.197 647.668C581.398 645.854 585.63 646.329 586.696 643.299C587.431 641.212 585.523 637.093 587.444 635.749C589.742 634.142 593.799 634.413 596.458 634.623C591.668 624.048 586.588 612.394 585.973 600.663C585.629 594.108 587.629 587.797 588.905 581.435C591.829 566.856 588.864 552.538 584.362 538.585L582.289 529.354C586.858 527.169 593.434 524.112 598.562 524.732C601.887 527.376 608.73 549.807 611.399 555.633C615.489 567.892 631.878 578.249 640.029 590.101C640.921 586.014 642.157 582.108 643.473 578.14C647.669 565.573 653.739 554.298 659.507 542.438C666.214 528.646 672.683 514.718 680.236 501.357C683.373 495.805 687.565 491.085 690.528 485.399C686.322 474.017 681.212 461.989 672.761 453.054C663.095 455.19 652.206 458.806 642.952 453.139C636.769 449.353 633.87 442.461 632.42 435.654C630.078 424.659 630.835 412.633 630.937 401.425C628.741 398.951 625.287 395.611 625.613 392C625.761 390.36 626.874 389.121 628.165 388.225C631.374 385.997 635.376 384.954 638.741 382.885C638.12 369.061 633.802 369.105 629.458 358.175C625.067 347.126 627.783 333.739 635.811 325.056C640.876 319.578 650.558 313.468 658.203 313.307C660.915 313.25 665.262 314.262 667.317 312.258C667.827 311.761 668.154 311.209 668.571 310.639C672.833 304.82 686.724 302.111 693.45 301.2C723.148 297.177 755.129 305.583 778.896 323.825C785.357 328.784 794.687 336.821 795.976 345.318C798.289 360.574 778.238 365.357 797.318 380.099C806.958 387.548 818.506 393.983 820.467 407.204Q820.583 408.024 820.658 408.85Q820.733 409.675 820.767 410.503Q820.801 411.33 820.793 412.159Q820.786 412.987 820.737 413.815Q820.688 414.642 820.598 415.465Q820.508 416.289 820.377 417.107Q820.246 417.925 820.074 418.736Q819.903 419.546 819.691 420.347Q819.479 421.148 819.228 421.938Q818.976 422.727 818.686 423.503Q818.395 424.279 818.067 425.04Q817.738 425.8 817.372 426.543Q817.005 427.287 816.602 428.011Q816.199 428.735 815.761 429.438Q815.322 430.141 814.849 430.821Q814.376 431.501 813.87 432.157C810.511 436.514 806.232 440.31 803.877 445.354C801.318 450.833 801.346 456.84 799.701 462.549C795.348 477.663 779.519 486.85 765.307 490.663C777.425 508.168 787.936 526.883 794.286 547.293C796.408 554.116 797.783 565.954 800.628 571.613C804.81 579.932 811.709 587.532 816.942 595.272Q833.197 619.148 847.861 644.032C862.335 666.319 874.626 690.502 887.188 713.915C906.704 750.29 926.115 786.616 941.988 824.788C934.006 839.859 915.43 850.014 900.353 856.91C872.982 868.761 844.253 873.641 814.624 875.24Q826.725 949.409 835.866 1024L829.245 1024C828.468 1013.39 826.69 1002.84 825.378 992.284Q820.888 955.392 815.579 918.609C813.485 904.27 810.789 889.982 809.184 875.579C805.962 875.589 802.753 875.456 799.534 875.32C797.053 873.835 795.539 872.262 793.873 869.888C787.788 881.869 783.259 895.192 778.018 907.608Q759.177 952.005 741.02 996.686Q744.79 1010.26 747.896 1024L741.785 1024C740.537 1017.94 738.836 1011.78 737.024 1005.87C735.467 1012.01 732.685 1017.8 731.185 1024L723.665 1024C731.575 1005.49 738.437 986.466 746.093 967.833L789.838 862.928Q775.875 826.915 764.097 790.13C759.488 775.88 755.51 761.159 750.144 747.189C744.565 747.611 738.9 748.92 733.412 749.988C720.339 752.533 707.455 755.617 694.526 758.798C694.554 780.933 684.798 802.978 678.215 823.872Q669.841 850.902 661.773 878.024Q647.22 930.312 636.274 983.472C633.591 996.908 630.547 1010.42 628.765 1024L622.271 1024Q624.816 1009.64 627.79 995.354C576.818 956.238 514.906 937.455 455.15 916.521C448.152 914.069 432.02 905.917 426.6 905.134C420.162 904.203 413.16 904.624 406.65 904.601L370.286 904.593C335.509 904.653 300.702 904.178 265.93 904.495C284.781 914.56 304.183 921.706 323.974 929.559C381.947 952.563 431.901 974.091 472.225 1024L464.323 1024C432.524 990.038 409.477 973.631 367.241 954.564Q350.171 946.69 332.713 939.72C310.612 931.062 288.5 922.911 267.232 912.26C249.859 903.56 234.843 891.091 218.642 880.538C216.595 882.66 214.224 884.446 211.724 886.004C207.611 888.568 203.6 889.923 198.752 890.341C187.449 891.315 175.74 890.812 164.395 890.822L105.574 890.856L49.4711 890.923C41.6643 890.924 27.505 891.991 20.4955 890.158C17.3823 889.344 15.1552 887.407 13.6894 884.566C8.49509 874.495 10.3234 857.96 13.7012 847.559C9.13858 847.494 4.5636 847.593 0 847.621L0 842.007C4.9911 841.992 10.0256 841.576 15.0124 841.325C17.3747 836.754 19.6509 829.07 24.02 826.212C25.2127 825.432 26.5601 825.121 27.9597 825.45C31.4451 826.267 33.6188 829.9 35.4189 832.704C39.7856 820.427 53.2314 793 63.7798 785.747C66.0498 784.186 68.6675 783.197 71.4357 783.803C77.7496 785.185 82.3904 792.776 85.7522 797.781C93.6885 785.075 111.905 759.562 126.948 756.027C129.859 755.342 132.857 755.673 135.348 757.401C140.987 761.313 141.745 769.918 142.735 776.112C148.794 768.973 156.699 760.16 166.39 758.443C171.425 757.551 175.269 758.791 179.322 761.724Q181.482 750.604 183.448 739.448L0 739.446L0 733.348L502.517 732.967C505.712 729.609 509.197 726.479 512.683 723.427L0 722.885L0 716.921L10.9268 716.889L10.606 611.51L0 611.52L0 605.887L117.363 605.978L117.211 597.059Q58.6063 596.609 0 596.928L0 591.723L116.958 591.887L117.184 453.644C117.27 424.416 117.012 395.138 117.609 365.919C87.1507 339.493 54.606 315.458 24.3834 288.782C25.819 282.055 24.4741 274.947 26.2524 268.334C30.6385 266.852 66.8786 268.784 73.4991 268.931L132.622 269.884L461.418 273.67L461.548 179.734C461.546 161.575 460.58 142.923 461.821 124.821L371.969 0ZM514.092 400.31C514.327 390.935 514.159 381.534 514.13 372.156Q490.828 372.302 467.526 372.151L467.449 520.292C467.911 544.32 467.518 568.435 467.544 592.473L514.203 592.46L514.4 462.624C514.399 441.973 515.205 420.929 514.092 400.31ZM40.6942 274.224C41.0877 274.907 41.469 275.378 42.0809 275.881C62.8096 292.899 84.1328 309.343 105.273 325.856C113.666 332.413 121.925 340.508 130.953 346.048L408.926 347.517L510.115 347.869C527.083 348.04 544.858 347.351 561.704 349.087C553.792 341.853 540.258 333.937 530.968 327.874C519.293 320.255 507.817 312.341 496.184 304.66C484.188 296.739 471.521 288.84 460.306 279.867Q329.847 277.159 199.362 276.373Q141.415 275.235 83.458 274.979C69.7756 274.882 54.03 273.658 40.6942 274.224ZM30.9216 276.361C30.8825 279.579 30.7611 282.822 30.8486 286.038L93.2588 337.702C103.598 346.277 113.745 356.119 124.816 363.679L125.015 350.203C108.669 336.729 91.8879 323.851 75.4258 310.528L53.5211 293.12C46.3208 287.364 38.833 281.094 30.9216 276.361ZM670.371 317.32C658.289 326.121 650.807 352.361 648.545 366.776C647.129 375.798 647.288 382.021 639.38 387.757C637.195 389.342 634.597 390.692 632.953 392.861C632.768 395.879 635.024 399.604 635.755 402.581C636.19 404.353 636.143 406.373 636.147 408.197C642.512 409.408 649.245 410.071 655.723 410.091C657.789 410.097 665.06 408.628 666.516 409.19C666.972 409.366 667.31 409.757 667.707 410.041C668.489 411.959 668.127 413.371 667.332 415.193C664.651 421.343 659.057 426.662 652.799 428.978C648.839 430.444 643.815 431.119 639.911 429.097C638.466 428.349 637.375 426.994 636.334 425.779C637.207 433.216 637.983 442.056 644.211 447.151C648.352 450.539 653.957 450.966 659.066 450.274C664.65 449.516 670.051 447.51 675.37 445.715C685.194 442.355 695.417 438.871 705.773 437.761C707.709 432.31 709.821 427.899 713.103 423.139C712.4 421.097 711.589 417.782 712.582 415.752C712.664 415.586 712.75 415.422 712.833 415.257C715.485 415.309 717.922 418.146 720.39 419.209C725.694 421.493 734.182 416.59 737.927 412.875C740.685 410.138 742.725 406.718 742.647 402.736C742.578 399.225 740.898 395.889 738.367 393.499C735.932 391.199 732.574 389.797 729.206 389.941C724.798 390.131 720.875 393.092 716.866 394.667C696.481 381.017 678.713 358.135 673.832 333.81C673.056 329.942 672.976 319.787 670.371 317.32ZM130.401 351.906L130.284 365.433L573.326 365.932C573.511 363.265 574.479 358.751 572.607 356.56C571.111 354.81 568.38 354.642 566.239 354.601Q426.76 352.47 287.266 352.488L185.031 352.097C166.867 352.009 148.553 351.424 130.401 351.906ZM217.787 371.248L147.278 371.334L146.942 717.066L167.189 717.064L166.915 481.362L166.856 418.508C166.854 414.195 166.169 400.274 166.76 396.937C166.895 396.173 167.026 396.015 167.346 395.414C170.888 392.872 256.762 394.901 266.616 394.986C274.373 395.1 316.907 394.233 321.164 396.197C323.141 404.041 322.093 413.587 322.089 421.674L322.051 458.852L322.159 592.243L460.968 592.496L460.99 371.929L217.787 371.248ZM123.135 371.299L122.874 717.094C125.737 717.112 139.148 718.021 140.672 716.313C140.727 716.251 140.736 716.159 140.767 716.083C140.388 681.734 140.913 647.352 140.975 613L141.446 371.37L123.135 371.299ZM520.282 371.968L520.239 613.696C520.137 648.51 519.625 683.375 520.052 718.185L540.873 718.277L540.843 569.202Q540.378 507.933 540.807 446.667C540.84 421.806 540.392 396.813 541.11 371.964L520.282 371.968ZM172.517 400.081L172.685 717.294L180.211 717.174L180.331 568.495C180.283 551.677 178.641 413.911 180.642 408.644C181.988 407.481 183.573 407.457 185.326 407.368C203.202 406.46 222.619 407.545 240.694 407.541L279.794 407.571C287.109 407.596 294.552 407.341 301.844 407.876C303.622 408.006 306.256 408.031 307.442 409.573C308.659 411.156 308.267 414.017 308.214 415.875L308.161 717.257L316.124 717.204L316.417 400.857L172.517 400.081ZM185.98 412.961L185.513 717.148L302.506 717.137L302.545 413.575Q244.26 413.691 185.98 412.961ZM637.775 413.918C638.081 417.284 638.11 420.712 640.839 423.126C642.545 424.634 644.83 425.195 647.071 424.948C650.543 424.565 653.52 422.921 656.41 421.077Q658.68 418.32 660.92 415.538Q649.339 414.853 637.775 413.918ZM704.009 443.14C695.552 445.021 685.922 446.757 678.049 450.393C685.043 460.242 690.734 469.519 694.426 481.12C696.548 480.636 699.502 476.477 701.285 474.832C706.314 470.188 712.306 466.356 718.487 463.445C711.775 457.172 708.146 451.953 704.572 443.487L704.009 443.14ZM733.061 465.695C718.727 467.419 707.798 474.809 698.051 485.255C700.862 485.526 706.308 487.014 708.688 485.822C719.998 478.969 731.306 474.729 744.544 473.638C741.963 470.377 739.037 466.023 734.526 465.597C733.878 465.536 733.854 465.595 733.061 465.695ZM745.734 478.226C735.052 479.322 724.054 482.621 714.893 488.337C736.726 498.051 763.094 523.636 777.782 542.318Q785.091 551.149 791.699 560.515C783.821 533.925 773.653 514.652 758.056 492.039C755.09 487.738 751.412 481.359 746.889 478.557C746.361 478.23 746.457 478.33 745.734 478.226ZM700.121 491.999C757.135 513.341 819.792 633.743 844.228 687.418C848.388 696.557 856.797 712.335 858.005 721.854C856.845 723.385 855.734 724.746 854.109 725.805C842.684 733.256 813.977 738.151 800.095 740.079Q787.424 741.717 774.67 742.49C771.888 737.866 770.582 732.672 767.629 728.073Q759.287 728.448 750.936 728.521C756.648 743.067 760.13 758.483 764.795 773.388C770.954 793.068 778.076 812.461 784.893 831.919C789.102 843.933 793.149 858.386 800.054 869.157Q807.091 869.152 814.125 868.968C851.228 866.808 907.772 856.374 933.373 827.186C933.945 826.533 934.462 825.874 934.983 825.18Q923.505 797.901 910.22 771.455C905.953 763.054 901.247 754.879 896.953 746.492Q878.893 710.634 859.342 675.566C832.819 628.763 763.344 514.089 715.268 494.436C710.191 492.36 705.577 491.782 700.121 491.999ZM694.409 497.628C690.171 498.668 687.677 499.35 685.267 503.256C679.635 512.383 675.433 522.682 670.792 532.355C662.198 550.263 651.429 568.912 646.752 588.264C644.384 598.061 643.643 608.459 646.045 618.329C648.456 628.234 656.81 642.775 665.744 648.049C673.029 652.35 683.86 650.976 691.675 648.816C692.625 648.554 693.557 648.241 694.496 647.943L697.146 647.123Q695.228 641.586 693.523 635.979Q691.818 630.372 690.329 624.704Q688.839 619.037 687.567 613.316Q686.295 607.596 685.242 601.831Q684.189 596.066 683.357 590.265Q682.525 584.464 681.916 578.636Q681.306 572.808 680.919 566.96Q680.532 561.113 680.369 555.255C680.197 550.654 679.047 542.108 681.276 537.96C681.636 537.29 681.667 537.456 682.478 537.046C683.183 537.337 683.766 537.331 684.069 538.088C685.803 542.427 686.091 560.083 686.587 565.888C688.778 591.542 693.174 616.538 701.533 640.92C703.6 646.951 705.497 653.352 709.309 658.556C713.239 663.924 718.92 667.496 724.803 670.407C729.368 672.667 735.374 674.145 739.441 677.069C739.25 678.711 739.323 679.08 738.225 680.386C735.483 681.521 732.361 680.113 729.787 679.049C722.747 676.139 716.714 672.868 710.733 668.137C707.436 665.528 704.246 662.513 700.656 660.323C696.065 660.326 687.193 658.949 683.875 662.431C679.818 666.689 679.801 678.229 680.166 683.881C680.72 692.453 682.663 703.561 689.339 709.653C704.097 723.12 741.234 723.234 760.58 721.869C769.602 721.232 784.677 720.967 790.979 713.544C795.267 708.494 791.742 682.688 790.922 675.55C788.103 651.017 783.843 626.784 779.436 602.493C777.638 592.576 776.566 580.59 772.634 571.313C770.45 566.161 766.951 561.43 763.762 556.858C751.503 539.284 737.265 522.423 720.418 509.07C713.838 503.855 703.219 496.765 694.409 497.628ZM608.554 565.551L597.107 568.917C595.728 576.302 590.172 596.603 592.169 603.075C593.126 603.959 593.192 603.854 594.446 603.76C600.001 603.343 606.777 601.132 612.126 599.443C619.555 597.132 627.029 594.842 634.025 591.388C627.371 581.741 616.529 575.093 609.293 565.696L608.554 565.551ZM781.627 585.343C783.534 592.266 784.441 599.372 785.743 606.421C787.174 614.169 788.869 621.87 790.291 629.626C790.733 629.507 790.605 629.636 790.768 629.363C791.513 615.566 794.31 603.144 786.009 590.971C784.941 589.405 783.831 587.387 782.525 586.033C782.148 585.641 782.032 585.596 781.627 585.343ZM322.087 598.008L322.039 606.106L446.066 606.149C468.697 606.171 491.4 605.833 514.021 606.445L514.013 598.458L322.087 598.008ZM16.4085 611.025C15.2299 635.953 16.0759 661.305 16.0804 686.271C16.0816 692.45 15.1631 711.464 16.3323 716.329C17.2015 717.056 17.1364 717.03 18.2686 716.961L18.1867 652.449C18.2092 646.398 19.2108 615.654 17.9694 611.796L16.4085 611.025ZM24.8043 611.55L24.8729 717.004L65.0775 717.052L65.062 611.616L24.8043 611.55ZM70.4424 611.518L70.5928 717.057L80.4413 716.996L80.5047 611.511L70.4424 611.518ZM85.9676 611.706C85.4537 623.852 85.6677 636.097 85.6059 648.254Q85.4175 682.632 85.7095 717.01L116.836 716.985C117.921 705.593 117.014 693.501 117.017 682.026L117.095 611.702L85.9676 611.706ZM322.144 612.027L322.42 717.101Q338.864 716.99 355.308 717.071L355.464 612.001L322.144 612.027ZM360.821 611.966Q361.096 664.633 360.564 717.297L365.963 717.311L366.053 647.893C366.081 636.757 367.002 623.515 365.965 612.6C364.674 611.614 362.393 611.965 360.821 611.966ZM371.516 611.933L371.549 717.509L403.694 717.487L403.535 611.981C392.872 611.951 382.176 611.76 371.516 611.933ZM409.413 612L409.093 681.984C409.049 693.444 408.081 705.566 409.183 716.912C410.542 717.841 412.943 717.658 414.591 717.69C414.521 706.737 415.18 614.349 414.391 612.444C412.725 611.794 411.175 611.943 409.413 612ZM420.16 612.151L420.017 717.595C427.184 717.625 447.749 718.631 453.249 717.375L453.125 612.115L420.16 612.151ZM458.828 612.035L458.921 684.081C458.938 693.772 458.052 708.185 459.148 717.393C460.407 718.184 462.001 718.062 463.465 717.829Q463.054 684.042 463.289 650.254C463.365 639.301 464.403 623.122 463.289 612.672C462.051 611.729 460.314 612.022 458.828 612.035ZM468.77 612.175C468.807 647.412 468.044 682.753 468.642 717.971Q491.309 717.766 513.976 717.844L514.115 612.306L468.77 612.175ZM802.602 619.391Q802.111 635.452 799.714 651.341C798.818 657.013 796.826 663.099 796.621 668.808C796.153 681.848 800.093 695.325 798.766 708.351C798.37 712.236 797.227 715.73 794.371 718.503C789.131 723.594 781.067 725.272 774.205 726.805C775.993 729.979 777.701 733.242 779.601 736.348C792.012 735.585 803.916 733.91 816.107 731.472C828.093 728.783 841.065 726.199 852.033 720.501C849.244 711.244 807.832 625.196 802.602 619.391ZM637.55 623.022C625.168 627.099 613.838 628.458 601.142 630.581C603.821 636.534 608.005 640.509 611.602 645.82C612.877 647.469 613.965 648.338 616.101 648.56C625.348 649.52 632.556 636.255 643.434 635.244C642.349 632.17 640.772 624.9 638.496 622.875L637.55 623.022ZM594.842 640.033C593.585 640.825 592.753 641.04 592.491 642.691C592.296 643.918 592.499 645.53 592.548 646.784C596.813 647.76 601.059 648.755 605.383 649.44L606.577 649.312C606.336 647.049 601.832 643.486 600.106 642.119C598.171 640.586 597.354 640.004 594.842 640.033ZM643.425 643.078C633.271 645.212 627.597 654.562 616.798 655.868C608.448 656.878 600.698 655.272 592.631 653.384C591.197 653.049 588.932 652.253 587.626 652.909C590.608 656.286 598.523 659.398 602.888 660.579C605.892 661.392 611.122 661.706 613.53 663.46C614.799 664.384 614.701 664.527 614.778 666.004C614.085 667.264 613.995 667.539 612.53 667.978C607.223 669.569 589.278 660.943 588.325 661.334C588.098 661.428 588.037 661.733 587.894 661.932C588.234 663.836 588.623 664.592 590.207 665.739C594.369 668.753 600.217 671.083 605.078 672.668C608.36 673.525 615.789 674.066 617.853 676.513C618.144 677.998 618.298 678.141 617.625 679.467C613.824 681.469 606.137 679.216 602.231 677.976Q598.586 676.781 595.072 675.243C604.712 683.881 617.813 687.42 630.564 686.756C635.963 686.474 641.164 685.421 646.413 684.187C646.032 673.361 646.371 663.54 654.19 655.108C655.449 653.75 656.812 652.533 658.227 651.34C653.943 647.074 650.537 643.053 644.027 643.049C643.826 643.049 643.626 643.068 643.425 643.078ZM697.932 653.54C696.581 654.021 694.922 654.262 694.061 655.42C695.621 656.339 697.268 657.009 698.856 657.864L700.274 658.28L700.805 657.785C700.743 656.125 699.892 655.097 698.999 653.773L697.932 653.54ZM665.337 656.044C660.488 657.651 657.275 659.931 654.977 664.615C649.35 676.083 653.167 693.445 657.363 704.814C659.621 710.934 662.745 716.479 669.02 719.189C672.372 720.637 676.389 721.085 680.017 721.096C682.757 720.964 685.509 720.878 688.243 720.663C677.129 707.44 672.661 692.867 674.166 675.445C674.686 669.435 676.39 662.675 679.549 657.487C674.74 656.308 670.279 655.971 665.337 656.044ZM646.343 691.072C637.923 693.194 630.383 693.693 621.729 693.532C624.12 698.109 626.79 702.255 630.105 706.219C633.657 708.423 639.705 707.419 643.659 706.516Q647.357 705.656 650.873 704.221C649.499 700.254 649.335 694.695 647.296 691.213L646.343 691.072ZM704.013 723.599C699.974 724.564 695.953 725.548 691.852 726.22C692.572 730.916 693.35 735.623 693.903 740.341C694.325 743.94 694.268 748.009 695.353 751.459L696.539 751.463L696.358 750.892L695.947 751.079C696.91 751.778 698.53 751.286 699.705 751.107C709.514 749.617 719.349 746.913 729.11 744.974Q738.861 742.963 748.577 740.789C747.122 736.525 745.767 732.188 743.976 728.051C730.574 728.741 716.997 726.841 704.013 723.599ZM513.722 729.711L513.162 730.206C505.486 737.049 496.319 751.222 492.412 760.647C490.763 764.626 490 768.969 488.068 772.835C487.336 774.3 486.495 775.708 484.977 776.438C484.157 776.312 483.837 776.448 483.264 775.756C481.311 773.396 479.847 754.916 478.721 750.145C457.031 761.347 438.506 780.471 431.554 804.269C430.341 808.422 431.901 815.009 428.159 817.812C426.644 817.965 426.515 817.985 425.189 817.256C421.787 812.139 424.788 801.272 425.673 795.39C418.303 803.108 410.49 812.772 406.658 822.843Q410.271 827.374 414.203 831.632L412.043 836.849Q417.656 843.6 423.746 849.924L525.851 849.741L556.886 849.71C565.161 849.688 573.591 850.051 581.75 848.437C588.684 847.065 595.672 843.219 600.662 838.229C606.484 832.407 610.813 823.478 610.672 815.153C610.577 809.536 608.207 803.472 604.035 799.62C601.826 797.582 599.156 796.549 596.138 796.809C590.571 797.288 583.339 805.238 579.389 804.03C578.59 803.04 578.297 802.587 578.489 801.273C579.091 797.162 582.932 792.479 584.771 788.709C589.987 777.834 597.446 761.968 592.932 749.739C591.719 746.452 589.417 744.028 586.195 742.656C583.122 741.347 580.36 741.785 577.352 743.051C572.026 745.292 567.265 749.603 565.139 755.054C564.161 757.559 563.871 759.858 564.876 762.377C566.171 763.457 566.84 763.754 567.345 765.394C566.881 766.432 566.364 767.355 565.756 768.316C565.635 773.241 566.859 782.136 563.124 785.819C562.486 786.448 561.496 786.939 560.643 787.165C559.769 786.853 559.603 787.008 559.156 786.115C556.242 780.298 563.169 764.942 553.392 761.193C550.967 760.263 548.427 760.896 546.212 762.076C535.654 767.7 524.823 785.285 519.393 795.637C518.136 798.032 517.147 802.293 515.171 804.102C514.246 804.95 513.103 804.955 511.946 804.883C510.641 804.031 510.113 803.414 509.854 801.836C509.23 798.024 510.369 793.288 510.48 789.369C499.101 794.897 486.061 802.569 478.792 813.285C476.672 816.41 475.122 820.057 473.348 823.397C472.208 825.544 471.261 826.587 468.713 826.346C467.668 825.261 467.249 824.504 467.266 822.96C467.336 816.341 478.923 803.812 483.869 799.426C488.584 795.244 505.488 782.278 511.777 783.157C514.251 783.503 515.468 785.892 516.72 787.806C516.811 787.598 516.9 787.388 516.994 787.181C521.349 777.516 534.557 759.301 544.837 755.284C548.261 753.946 557.693 755.109 558.23 753.688C559.498 750.327 556.049 742.591 554.332 739.495C553.059 737.198 551.602 735.052 548.903 734.408C546.373 733.804 543.612 735.705 541.714 737.141C536.966 740.732 527.262 753.14 523.303 754.158C522.56 753.966 522.005 754.04 521.569 753.338C518.089 747.738 524.107 734.627 513.722 729.711ZM473.802 738.731C453.209 739.441 432.508 739.2 411.9 739.361C390.777 739.526 369.386 740.096 348.285 739.216C355.791 746.482 363.019 754.086 370.621 761.24C373.41 763.864 378.788 767.493 380.758 770.441C381.732 771.897 381.876 773.645 381.913 775.351C382.045 781.347 379.762 794.507 382.105 799.433L382.972 799.691L383.515 799.861C383.955 799.995 384.421 800.04 384.857 800.189C388.347 801.383 393.26 808.987 395.917 811.858C397.804 814.079 399.737 816.273 401.517 818.582C406.118 810.564 420.126 788.498 428.896 785.478C430.407 785.726 431.204 786.505 432.33 787.456C439.796 772.044 453.034 759.604 467.035 750.089C470.099 748.006 473.675 745.347 477.23 744.196C479.022 743.616 480.165 743.65 481.875 744.394C484.9 747.932 485.268 754.966 486.498 759.477C489.767 752.117 493.562 745.171 498.135 738.54L473.802 738.731ZM190.286 739.459C195.322 748.607 199.831 758.002 204.424 767.375L368.311 767.439L338.012 739.398L190.286 739.459ZM187.734 748.874C186.306 755.067 184.246 761.693 183.71 768.02C183.344 772.33 183.987 776.797 183.22 781.061C181.848 788.679 178.417 795.843 175.901 803.126C180.282 801.258 189.502 796.373 193.971 798.876C195.935 799.976 196.496 802.906 196.783 804.917C198.635 817.898 196.832 830.791 192.216 843.008C200.999 841.239 213.741 839.381 221.62 844.823C224.875 847.072 226.832 850.49 227.462 854.362C228.694 861.931 226.051 868.761 222.109 875.017Q230.553 881.342 239.238 887.331Q247.124 892.814 254.936 898.402C255.259 888.431 256.182 878.504 256.553 868.542C250.804 861.432 245.356 854.088 239.78 846.843C235.984 841.913 231.766 837.052 228.654 831.652C224.674 824.746 221.747 816.749 218.5 809.449C217.772 807.813 216.994 805.139 215.958 803.752C215.534 803.185 213.962 802.564 213.309 802.241C211.299 798.846 210.027 794.874 208.338 791.289C202.782 779.493 197.603 767.487 191.629 755.906C190.533 753.782 189.34 750.514 187.734 748.874ZM128.302 761.932C115.368 767.218 101.836 784.068 94.274 795.454C92.16 798.637 90.8397 802.521 88.3762 805.424C87.4205 806.55 86.704 806.945 85.2589 807.138C79.8716 804.802 76.4359 789.196 68.4666 789.936C60.0972 793.77 49.4564 815.625 45.5676 824.405C44.1974 827.499 39.3148 841.927 37.5559 843.231C36.6169 843.927 35.9007 843.698 34.8966 843.445C31.4734 840.552 29.7462 836.161 26.868 832.767C18.7064 845.491 14.2082 862.057 17.2258 877.139C17.719 879.604 18.7423 882.26 20.9742 883.65C25.4469 886.434 48.5984 884.927 55.1905 884.956C57.2237 876.343 59.9017 868.649 63.893 860.75C68.4537 851.551 78.4661 834.607 88.6667 830.981C90.7537 830.24 93.0553 830.127 95.0552 831.19C98.639 833.094 100.083 836.9 101.55 840.456C109.901 829.543 128.928 805.34 142.572 803.257C144.188 803.01 146.024 803.209 147.377 804.193C151.713 807.346 154.124 816.84 155.984 821.696C158.976 818.033 162.979 814.555 165.506 810.633C171.811 800.844 177.671 781.402 177.582 769.843C175.578 767.085 173.487 764.869 169.939 764.406C165.057 763.77 159.945 767.815 156.388 770.764C151.778 774.588 145.376 783.304 142.093 785.572C141.267 786.142 140.818 786.297 139.842 786.351C134.772 782.141 139.301 763.392 128.302 761.932ZM363.365 773.26L207.401 773.514C211.332 782.05 215.062 790.84 219.715 799.008L375.627 799.209C375.606 790.496 375.681 781.773 375.562 773.062L363.365 773.26ZM381.227 804.771C328.797 805.851 276.279 804.479 223.836 805.077C227.248 814.043 231.424 823.074 236.069 831.469L249.25 831.525L406.284 831.494C398.355 823.051 389.896 814.41 382.733 805.327L382.102 805.177L381.817 804.608L381.227 804.771ZM188.282 804.937C182.043 807.282 176.485 809.8 171.34 814.11C168.4 816.571 155.731 831.82 153.849 832.107C153.692 832.131 153.531 832.117 153.373 832.122C152.326 831.455 151.999 831.214 151.479 830.028C148.316 822.815 148.596 817.335 143.704 809.283C127.901 814.575 109.646 837.712 102.219 852.332C101.345 854.052 100.028 856.956 97.76 855.83C95.109 850.567 98.0186 841.262 92.7963 837.336C91.1269 836.866 89.9574 837.405 88.5104 838.237C75.7613 845.565 64.4907 871.39 61.0169 885.012L66.875 885.009L156.201 884.974C168.899 884.964 190.449 886.09 201.939 883.938C206.158 883.148 210.173 880.42 213.19 877.461C217.832 872.907 221.66 865.766 221.529 859.201C221.462 855.864 220.38 852.447 217.893 850.121C214.382 846.837 209.171 846.654 204.636 846.968C202.258 847.132 199.809 847.383 197.488 847.938C194.757 848.59 186.902 852.314 184.586 851.563C184.1 851.405 183.78 850.935 183.377 850.62C183.209 850.152 182.937 849.71 182.871 849.216C182.742 848.247 189.046 831.793 189.76 828.559C190.947 823.18 191.195 817.739 190.996 812.246C190.915 810.025 190.954 806.734 189.449 805.031L188.282 804.937ZM241.236 837.224C242.686 841.295 257.258 859.866 260.921 863.841L365.191 863.958C386.157 863.962 407.252 864.525 428.2 863.943C420.074 855.072 412.277 845.931 403.716 837.459L241.236 837.224ZM430.822 869.738C374.742 870.655 318.59 868.897 262.519 869.888C262.331 878.677 260.272 889.682 261.717 898.162C262.675 898.657 263.312 898.619 264.375 898.578L372.037 898.806L406.403 898.882C413.795 898.879 421.374 899.16 428.737 898.441C429.465 894.453 433.823 872.244 432.498 869.775L430.822 869.738Z"/>
	<path fill="#6545B4" d="M379.875 0L417.17 0C425.235 12.2279 434.097 23.7622 442.663 35.6211L497.66 110.584C507.209 123.416 517.117 136.07 526.077 149.322C506.897 149.503 487.707 149.185 468.515 149.406C468.509 143.645 467.681 136.353 468.899 130.745C469.246 129.149 470.092 127.888 470.378 126.226C470.026 124.605 469.276 123.295 468.354 121.922C464.21 115.757 459.238 110.066 454.952 103.969C430.372 69.005 404.807 34.72 379.875 0Z"/>
	<path fill="#DCD9F6" d="M424.962 0L1024 0L1024 509.044C993.447 512.964 966.784 527.05 947.899 551.667C934.456 569.191 927.278 590.622 924.707 612.398C902.703 613.013 880.246 619.492 862.177 632.336C857.326 635.784 853.102 641.394 847.861 644.032Q833.197 619.148 816.942 595.272C811.709 587.532 804.81 579.932 800.628 571.613C797.783 565.954 796.408 554.116 794.286 547.293C787.936 526.883 777.425 508.168 765.307 490.663C779.519 486.85 795.348 477.663 799.701 462.549C801.346 456.84 801.318 450.833 803.877 445.354C806.232 440.31 810.511 436.514 813.87 432.157Q814.376 431.501 814.849 430.821Q815.322 430.141 815.761 429.438Q816.199 428.735 816.602 428.011Q817.005 427.287 817.372 426.543Q817.738 425.8 818.067 425.04Q818.396 424.279 818.686 423.503Q818.977 422.727 819.228 421.938Q819.479 421.148 819.691 420.347Q819.903 419.546 820.075 418.736Q820.246 417.925 820.377 417.107Q820.508 416.289 820.598 415.465Q820.688 414.642 820.737 413.815Q820.786 412.987 820.793 412.159Q820.801 411.33 820.767 410.503Q820.733 409.675 820.658 408.85Q820.583 408.024 820.467 407.204C818.506 393.983 806.958 387.548 797.318 380.099C778.238 365.357 798.289 360.574 795.976 345.318C794.687 336.821 785.357 328.784 778.896 323.825C755.129 305.583 723.148 297.177 693.45 301.2C686.724 302.111 672.833 304.82 668.571 310.639C668.154 311.209 667.827 311.761 667.317 312.258C665.262 314.262 660.915 313.25 658.203 313.307C650.558 313.468 640.876 319.578 635.811 325.056C627.783 333.739 625.067 347.126 629.458 358.175C633.802 369.105 638.12 369.061 638.741 382.885C635.376 384.954 631.374 385.997 628.165 388.225C626.874 389.121 625.761 390.36 625.613 392C625.287 395.611 628.741 398.951 630.937 401.425C630.835 412.633 630.078 424.659 632.42 435.654C633.87 442.461 636.769 449.353 642.952 453.139C652.206 458.806 663.095 455.19 672.761 453.054C681.212 461.989 686.322 474.017 690.528 485.399C687.565 491.085 683.373 495.805 680.236 501.357C672.683 514.718 666.214 528.646 659.507 542.438C653.739 554.298 647.669 565.573 643.473 578.14C632.125 571.79 622.448 562.48 611.399 555.633C608.73 549.807 601.887 527.376 598.562 524.732C593.434 524.112 586.858 527.169 582.289 529.354L584.362 538.585C583.337 538.914 583.1 538.964 582.037 538.61C578.694 537.497 575.344 535.569 572.162 534.017C564.298 530.18 556.132 526.19 547.573 524.218C547.65 515.705 548.139 506.91 547.4 498.435C547.065 493.908 547.352 489.164 547.361 484.616L547.348 459.197L547.362 371.976C555.612 372.008 571.195 373.193 578.685 371.173C580.412 368.135 579.229 356.428 578.951 352.565C570.49 345.545 558.371 338.694 549.009 332.475L506.056 303.652C493.349 295.235 480.322 287.127 468.235 277.817C467.789 267.361 468.257 256.729 468.293 246.25L468.469 184.902C483.573 176.529 499.243 169.47 514.763 161.923C521.388 158.702 528.694 155.839 534.812 151.757C531.37 143.306 517.417 126.576 511.572 118.623L448.878 32.9796C441.063 22.1225 431.585 11.5989 424.962 0Z"/>
	<path d="M354.179 195.996C346.775 196.788 338.952 196.321 331.501 196.21L293.25 195.53L246.957 194.991C235.389 194.94 223.722 195.218 212.18 194.453C211.716 193.855 211.335 193.293 211.145 192.546C210.147 188.624 210.962 173.892 210.956 168.645L210.954 96.695L210.974 55.3244C210.981 48.5173 210.489 41.2737 211.115 34.5079C211.209 33.4918 211.484 32.8957 212.016 32.0487C222.309 31.7602 232.71 32.3272 243.006 32.5295L291.309 33.2564L332.636 33.6629C338.748 33.7071 345.039 33.3319 351.124 33.7003C352.518 33.7847 353.688 33.9689 354.833 34.8216C356.479 40.3055 355.186 64.6637 355.143 72.3102L355.035 152.859C355.044 165.992 355.856 179.673 354.942 192.753C354.855 193.988 354.634 194.857 354.179 195.996ZM217.359 38.422L216.954 141.267C216.947 156.658 216.03 173.11 217.257 188.394C261.134 189.032 305.138 190.537 349.019 190.031L349.151 40.0174L217.359 38.422Z"/>
	<path fill="#6545B4" d="M217.257 188.394C216.03 173.11 216.947 156.658 216.954 141.267L217.359 38.422L349.151 40.0174L349.019 190.031C305.138 190.537 261.134 189.032 217.257 188.394ZM231.692 53.9334C230.702 55.0227 230.262 55.7219 230.123 57.2091C229.63 62.5122 229.969 68.152 229.967 73.484L229.961 105.349L229.892 149.778C229.852 157.524 229.504 165.365 229.749 173.096C229.795 174.538 230.001 175.479 231.083 176.471C240.782 178.149 255.755 177.363 265.988 177.504L334.812 178.382C336.166 176.308 334.929 156.275 334.887 152.341Q334.452 120.889 334.792 89.4361Q334.918 77.9159 334.915 66.395C334.916 63.4378 335.296 59.8416 334.871 56.9454C334.783 56.3439 334.683 56.1825 334.469 55.6877C329.117 53.8729 242.136 53.2642 231.692 53.9334Z"/>
	<path d="M334.812 178.382L265.988 177.504C255.755 177.363 240.782 178.149 231.083 176.471C230.001 175.479 229.795 174.538 229.749 173.096C229.504 165.365 229.852 157.524 229.892 149.778L229.961 105.349L229.967 73.484C229.969 68.152 229.63 62.5122 230.123 57.2091C230.262 55.7219 230.702 55.0227 231.692 53.9334C242.136 53.2642 329.117 53.8729 334.469 55.6877C334.683 56.1825 334.783 56.3439 334.871 56.9454C335.296 59.8416 334.916 63.4378 334.915 66.395Q334.918 77.9159 334.792 89.4361Q334.452 120.889 334.887 152.341C334.929 156.275 336.166 176.308 334.812 178.382ZM236.657 60.161C236.66 77.7144 236.358 95.3115 236.618 112.86Q256.377 113.439 276.144 113.363C276.138 95.7398 275.929 78.1006 276.144 60.4797Q256.405 59.8122 236.657 60.161ZM282.71 60.538C282.718 78.1577 282.387 95.8777 282.925 113.484C294.621 113.626 306.317 114.109 318.011 114.155L318.329 61.0093C306.473 60.7889 294.566 60.396 282.71 60.538ZM236.508 119.292Q236.337 145.125 236.525 170.957C249.576 171.043 263.204 171.88 276.206 170.965L276.269 119.774L236.508 119.292ZM282.755 119.94L282.716 171.446L317.907 171.636L318.049 120.547Q300.409 119.837 282.755 119.94Z"/>
	<path fill="#FEFEFE" d="M236.618 112.86C236.358 95.3115 236.66 77.7144 236.657 60.161Q256.405 59.8122 276.144 60.4797C275.929 78.1006 276.138 95.7398 276.144 113.363Q256.377 113.439 236.618 112.86Z"/>
	<path fill="#FEFEFE" d="M282.925 113.484C282.387 95.8777 282.718 78.1577 282.71 60.538C294.566 60.396 306.473 60.7889 318.329 61.0093L318.011 114.155C306.317 114.109 294.621 113.626 282.925 113.484Z"/>
	<path fill="#FEFEFE" d="M236.525 170.957Q236.337 145.124 236.508 119.292L276.269 119.774L276.206 170.965C263.204 171.88 249.576 171.043 236.525 170.957Z"/>
	<path fill="#FEFEFE" d="M282.716 171.446L282.755 119.94Q300.409 119.837 318.049 120.547L317.907 171.636L282.716 171.446Z"/>
	<path fill="#6545B4" d="M130.953 346.048C121.925 340.508 113.666 332.413 105.273 325.856C84.1328 309.343 62.8096 292.899 42.0809 275.881C41.469 275.378 41.0877 274.907 40.6942 274.224C54.03 273.658 69.7756 274.882 83.458 274.979Q141.415 275.235 199.362 276.373Q329.847 277.158 460.306 279.867C471.521 288.84 484.188 296.739 496.184 304.66C507.817 312.341 519.293 320.255 530.968 327.874C540.258 333.937 553.792 341.853 561.704 349.087C544.858 347.351 527.083 348.04 510.115 347.869L408.926 347.517L130.953 346.048Z"/>
	<path fill="#6545B4" d="M30.8486 286.038C30.7611 282.822 30.8825 279.579 30.9216 276.361C38.833 281.094 46.3208 287.364 53.5211 293.12L75.4258 310.528C91.8879 323.851 108.669 336.729 125.015 350.203L124.816 363.679C113.745 356.119 103.598 346.277 93.2588 337.702L30.8486 286.038Z"/>
	<path fill="#FEFEFE" d="M636.147 408.197C636.143 406.373 636.19 404.353 635.755 402.581C635.024 399.604 632.768 395.879 632.953 392.861C634.597 390.692 637.195 389.342 639.38 387.757C647.288 382.021 647.129 375.798 648.545 366.776C650.807 352.361 658.289 326.121 670.371 317.32C672.976 319.787 673.056 329.942 673.832 333.81C678.713 358.135 696.481 381.017 716.866 394.667C720.875 393.092 724.798 390.131 729.206 389.941C732.574 389.797 735.932 391.199 738.367 393.499C740.898 395.889 742.578 399.225 742.647 402.736C742.725 406.718 740.685 410.138 737.927 412.875C734.182 416.59 725.694 421.493 720.39 419.209C717.922 418.146 715.485 415.309 712.833 415.257C712.75 415.422 712.664 415.586 712.582 415.752C711.589 417.782 712.4 421.097 713.103 423.139C709.821 427.899 707.709 432.31 705.773 437.761C695.417 438.871 685.194 442.355 675.37 445.715C670.051 447.51 664.65 449.516 659.066 450.274C653.957 450.966 648.352 450.539 644.211 447.151C637.983 442.056 637.207 433.216 636.334 425.779C637.375 426.994 638.466 428.349 639.911 429.097C643.815 431.119 648.839 430.444 652.799 428.978C659.057 426.662 664.651 421.343 667.332 415.193C668.127 413.371 668.489 411.959 667.707 410.041C667.31 409.757 666.972 409.366 666.516 409.19C665.06 408.628 657.789 410.097 655.723 410.091C649.245 410.071 642.512 409.408 636.147 408.197ZM657.068 349.311C656.731 350.657 656.411 351.229 656.861 352.564C658.678 353.843 660.963 355.019 662.541 356.558C665.873 359.807 667.161 364.307 672.455 364.168C673.091 361.202 672.377 359.861 670.77 357.36C668.244 353.43 663.815 350.538 659.254 349.624C658.527 349.479 657.803 349.396 657.068 349.311ZM659.455 374.882C657.394 376.076 656.678 377.154 656.047 379.45C655.44 381.659 655.664 384.053 656.911 386.012C657.915 387.591 659.22 388.177 661.025 388.499C662.788 387.541 664.159 386.903 664.764 384.826C665.444 382.498 665.37 380.284 664.211 378.122C663.299 376.419 662.076 375.441 660.16 375.006C659.927 374.953 659.69 374.923 659.455 374.882ZM729.08 398.351C728.61 399.585 728.452 400.233 728.568 401.556C728.879 405.118 723.362 408.321 724.561 410.385C726.062 410.936 727.234 410.98 728.794 410.817C731.676 409.05 733.693 407.363 734.551 403.946C734.817 402.886 734.749 401.675 734.235 400.695C733.623 399.53 732.495 398.81 731.25 398.488C730.609 398.322 729.723 398.364 729.08 398.351Z"/>
	<path d="M672.455 364.168C667.161 364.307 665.873 359.807 662.541 356.558C660.963 355.019 658.678 353.843 656.861 352.564C656.411 351.229 656.731 350.657 657.068 349.311C657.803 349.396 658.527 349.479 659.254 349.624C663.815 350.538 668.244 353.43 670.77 357.36C672.377 359.861 673.091 361.202 672.455 364.168Z"/>
	<path fill="#6545B4" d="M130.284 365.433L130.401 351.906C148.553 351.424 166.867 352.009 185.031 352.097L287.266 352.488Q426.76 352.471 566.239 354.601C568.38 354.642 571.111 354.81 572.607 356.56C574.479 358.751 573.511 363.265 573.326 365.932L130.284 365.433Z"/>
	<path fill="#9F8BE8" d="M147.278 371.334L217.787 371.248L460.99 371.929L460.968 592.496L322.159 592.243L322.051 458.852L322.089 421.674C322.093 413.587 323.141 404.041 321.164 396.197C316.907 394.233 274.373 395.1 266.616 394.986C256.762 394.901 170.888 392.872 167.346 395.414C167.026 396.015 166.895 396.173 166.76 396.937C166.169 400.274 166.854 414.195 166.856 418.508L166.915 481.362L167.189 717.064L146.942 717.066L147.278 371.334Z"/>
	<path fill="#6545B4" d="M122.874 717.094L123.135 371.299L141.446 371.37L140.975 613C140.913 647.352 140.388 681.734 140.767 716.083C140.736 716.159 140.727 716.251 140.672 716.313C139.148 718.021 125.737 717.112 122.874 717.094Z"/>
	<path fill="#DCD9F6" d="M514.13 372.156C514.159 381.534 514.327 390.935 514.092 400.31C513.089 411.788 513.844 423.911 513.864 435.462C513.91 462.622 514.566 489.94 513.966 517.084C501.135 516.374 478.753 514.74 467.449 520.292L467.526 372.151Q490.828 372.302 514.13 372.156Z"/>
	<path fill="#6545B4" d="M520.052 718.185C519.625 683.375 520.137 648.51 520.239 613.696L520.282 371.968L541.11 371.964C540.392 396.813 540.84 421.806 540.807 446.667Q540.378 507.935 540.843 569.202L540.873 718.277L520.052 718.185Z"/>
	<path d="M661.025 388.499C659.22 388.177 657.915 387.591 656.911 386.012C655.664 384.053 655.44 381.659 656.047 379.45C656.678 377.154 657.394 376.076 659.455 374.882C659.69 374.923 659.927 374.953 660.16 375.006C662.076 375.441 663.299 376.419 664.211 378.122C665.37 380.284 665.444 382.498 664.764 384.826C664.159 386.903 662.788 387.541 661.025 388.499Z"/>
	<path d="M728.794 410.817C727.234 410.98 726.062 410.936 724.561 410.385C723.362 408.321 728.879 405.118 728.568 401.556C728.452 400.233 728.61 399.585 729.08 398.351C729.723 398.364 730.609 398.322 731.25 398.488C732.495 398.81 733.623 399.53 734.235 400.695C734.749 401.675 734.817 402.886 734.551 403.946C733.693 407.363 731.676 409.05 728.794 410.817Z"/>
	<path fill="#6545B4" d="M172.685 717.294L172.517 400.081L316.417 400.857L316.124 717.204L308.161 717.257L308.214 415.875C308.267 414.017 308.659 411.156 307.442 409.573C306.256 408.031 303.622 408.006 301.844 407.876C294.552 407.341 287.109 407.596 279.794 407.571L240.694 407.541C222.619 407.545 203.202 406.46 185.326 407.368C183.573 407.457 181.988 407.481 180.642 408.644C178.641 413.911 180.283 551.677 180.331 568.495L180.211 717.174L172.685 717.294Z"/>
	<path fill="#9F8BE8" d="M514.092 400.31C515.205 420.929 514.399 441.973 514.4 462.624L514.203 592.46L467.544 592.473C467.518 568.435 467.911 544.32 467.449 520.292C478.753 514.74 501.135 516.374 513.966 517.084C514.566 489.94 513.91 462.622 513.864 435.462C513.844 423.911 513.089 411.788 514.092 400.31Z"/>
	<path fill="#9F8BE8" d="M185.513 717.148L185.98 412.961Q244.26 413.691 302.545 413.575L302.506 717.137L185.513 717.148ZM196.251 426.079C195.487 427.642 195.215 428.802 195.117 430.54C194.251 445.9 195.202 461.785 195.247 477.196C195.272 485.978 193.886 526.816 195.601 531.821C196.631 532.836 197.588 533.23 199.014 533.364C207.477 534.159 216.709 533.436 225.237 533.432L281.283 533.26C285.064 533.23 288.944 533.323 292.699 532.867C293.589 531.489 293.809 530.554 293.907 528.919C294.373 521.188 293.97 513.233 293.962 505.475L293.977 459.573C293.989 454.528 294.865 430.943 294.097 427.882C293.943 427.271 293.964 427.406 293.324 427.093C288.876 424.918 205.922 425.599 196.251 426.079ZM196.928 554.109C193.98 556.361 193.533 558.612 193.053 562.195C192.4 567.064 191.501 583.902 193.975 587.857C194.868 589.286 196.65 589.895 198.248 590.036C199.276 590.127 200.325 590.104 201.356 590.093C203.805 588.37 204.689 586.945 205.171 583.971C206.017 578.756 206.476 560.543 204.72 555.989C203.346 554.525 202.288 553.949 200.264 553.863C199.126 553.814 198.051 553.945 196.928 554.109Z"/>
	<path fill="#FEFEFE" d="M656.41 421.077C653.52 422.921 650.543 424.565 647.071 424.948C644.83 425.195 642.545 424.634 640.839 423.126C638.11 420.712 638.081 417.284 637.775 413.918Q649.339 414.853 660.92 415.538Q658.68 418.32 656.41 421.077Z"/>
	<path d="M292.699 532.867C288.944 533.323 285.064 533.23 281.283 533.26L225.237 533.432C216.709 533.436 207.477 534.159 199.014 533.364C197.588 533.23 196.631 532.836 195.601 531.821C193.886 526.816 195.272 485.978 195.247 477.196C195.202 461.785 194.251 445.9 195.117 430.54C195.215 428.802 195.487 427.642 196.251 426.079C205.922 425.599 288.876 424.918 293.324 427.093C293.964 427.406 293.943 427.271 294.097 427.882C294.865 430.943 293.989 454.528 293.977 459.573L293.962 505.475C293.97 513.233 294.373 521.188 293.907 528.919C293.809 530.554 293.589 531.489 292.699 532.867ZM201.393 432.021Q201.11 454.037 201.325 476.055L242.258 475.856C242.437 461.295 242.717 446.559 242.332 432.003Q221.862 431.86 201.393 432.021ZM248.51 432.034Q248.37 453.881 248.471 475.728Q268.221 475.764 287.971 475.595C288.598 470.446 288.204 464.956 288.168 459.768L287.995 432.015C274.871 431.854 261.627 431.621 248.51 432.034ZM201.21 482.029Q201.004 504.621 201.062 527.213L242.463 527.155Q242.639 504.654 242.457 482.154C228.745 481.661 214.928 481.798 201.21 482.029ZM248.621 481.929Q248.358 504.676 248.536 527.424C261.62 527.468 274.836 527.714 287.905 527.109C288.805 512.173 288.123 496.832 288.096 481.863C274.959 481.805 261.751 481.569 248.621 481.929Z"/>
	<path fill="#FEFEFE" d="M201.325 476.055Q201.11 454.038 201.393 432.021Q221.862 431.86 242.332 432.003C242.717 446.559 242.437 461.295 242.258 475.856L201.325 476.055Z"/>
	<path fill="#FEFEFE" d="M248.471 475.728Q248.37 453.881 248.51 432.034C261.627 431.621 274.871 431.854 287.995 432.015L288.168 459.768C288.204 464.956 288.598 470.446 287.971 475.595Q268.221 475.764 248.471 475.728Z"/>
	<path fill="#FEFEFE" d="M678.049 450.393C685.922 446.757 695.552 445.021 704.009 443.14L704.572 443.487C708.146 451.953 711.775 457.172 718.487 463.445C712.306 466.356 706.314 470.188 701.285 474.832C699.502 476.477 696.548 480.636 694.426 481.12C690.734 469.519 685.043 460.242 678.049 450.393Z"/>
	<path fill="#FEFEFE" d="M698.051 485.255C707.798 474.809 718.727 467.419 733.061 465.695C733.854 465.595 733.878 465.536 734.526 465.597C739.037 466.023 741.963 470.377 744.544 473.638C731.306 474.729 719.998 478.969 708.688 485.822C706.308 487.014 700.862 485.526 698.051 485.255Z"/>
	<path fill="#FEFEFE" d="M714.893 488.337C724.054 482.621 735.052 479.322 745.734 478.226C746.457 478.33 746.361 478.23 746.889 478.557C751.412 481.359 755.09 487.738 758.056 492.039C773.653 514.652 783.821 533.925 791.699 560.515Q785.091 551.149 777.782 542.318C763.094 523.636 736.726 498.051 714.893 488.337Z"/>
	<path fill="#FEFEFE" d="M201.062 527.213Q201.004 504.62 201.21 482.029C214.928 481.798 228.745 481.661 242.457 482.154Q242.639 504.654 242.463 527.155L201.062 527.213Z"/>
	<path fill="#FEFEFE" d="M248.536 527.424Q248.358 504.676 248.621 481.929C261.751 481.569 274.959 481.805 288.096 481.863C288.123 496.832 288.805 512.173 287.905 527.109C274.836 527.714 261.62 527.468 248.536 527.424Z"/>
	<path fill="#6545B4" d="M858.005 721.854C856.797 712.335 848.388 696.557 844.228 687.418C819.792 633.743 757.135 513.341 700.121 491.999C705.577 491.782 710.191 492.36 715.268 494.436C763.344 514.089 832.819 628.763 859.342 675.566Q878.893 710.634 896.953 746.492C901.247 754.879 905.953 763.054 910.22 771.455Q923.505 797.901 934.983 825.18C934.462 825.874 933.945 826.533 933.373 827.186C907.772 856.374 851.228 866.808 814.125 868.968Q807.091 869.152 800.054 869.157C793.149 858.386 789.102 843.933 784.893 831.919C778.076 812.461 770.954 793.068 764.795 773.388C760.13 758.483 756.648 743.067 750.936 728.521Q759.287 728.448 767.629 728.073C770.582 732.672 771.888 737.866 774.67 742.49Q787.424 741.717 800.095 740.079C813.977 738.151 842.684 733.256 854.109 725.805C855.734 724.746 856.845 723.385 858.005 721.854Z"/>
	<path fill="#FEFEFE" d="M697.146 647.123L694.496 647.943C693.557 648.241 692.625 648.554 691.675 648.816C683.86 650.976 673.029 652.35 665.744 648.049C656.81 642.775 648.456 628.234 646.045 618.329C643.643 608.459 644.384 598.061 646.752 588.264C651.429 568.912 662.198 550.263 670.792 532.355C675.433 522.682 679.635 512.383 685.267 503.256C687.677 499.35 690.171 498.668 694.409 497.628C703.219 496.765 713.838 503.855 720.418 509.07C737.265 522.423 751.503 539.284 763.762 556.858C766.951 561.43 770.45 566.161 772.634 571.313C776.566 580.59 777.638 592.576 779.436 602.493C783.843 626.784 788.103 651.017 790.922 675.55C791.742 682.688 795.267 708.494 790.979 713.544C784.677 720.967 769.602 721.232 760.58 721.869C741.234 723.234 704.097 723.12 689.339 709.653C682.663 703.561 680.72 692.453 680.166 683.881C679.801 678.229 679.818 666.689 683.875 662.431C687.193 658.949 696.065 660.326 700.656 660.323C704.246 662.513 707.436 665.528 710.733 668.137C716.714 672.868 722.747 676.139 729.787 679.049C732.361 680.113 735.483 681.521 738.225 680.386C739.323 679.08 739.25 678.711 739.441 677.069C735.374 674.145 729.368 672.667 724.803 670.407C718.92 667.496 713.239 663.924 709.309 658.556C705.497 653.352 703.6 646.951 701.533 640.92C693.174 616.538 688.778 591.542 686.587 565.888C686.091 560.083 685.803 542.427 684.069 538.088C683.766 537.331 683.183 537.337 682.478 537.046C681.667 537.456 681.636 537.29 681.276 537.96C679.047 542.108 680.197 550.654 680.369 555.255Q680.532 561.113 680.919 566.96Q681.306 572.808 681.916 578.636Q682.525 584.464 683.357 590.265Q684.189 596.066 685.242 601.831Q686.295 607.596 687.567 613.316Q688.839 619.037 690.329 624.704Q691.818 630.372 693.523 635.979Q695.228 641.586 697.146 647.123Z"/>
	<path fill="#9F8BE8" d="M520.258 724.423C526.263 724.283 541.673 725.94 546.023 722.719C548.042 718.343 546.971 675.679 546.977 668.063L547.032 559.164C547.039 539.029 546.377 518.536 547.4 498.435C548.139 506.91 547.65 515.705 547.573 524.218C556.132 526.19 564.298 530.18 572.162 534.017C575.344 535.569 578.694 537.497 582.037 538.61C583.1 538.964 583.337 538.914 584.362 538.585C588.864 552.538 591.829 566.856 588.905 581.435C587.629 587.797 585.629 594.108 585.973 600.663C586.588 612.394 591.668 624.048 596.458 634.623C593.799 634.413 589.742 634.142 587.444 635.749C585.523 637.093 587.431 641.212 586.696 643.299C585.63 646.329 581.398 645.854 579.197 647.668C578.178 648.508 577.76 649.17 577.798 650.515C577.868 652.99 581.023 656.627 582.658 658.425C582.058 659.859 581.39 661.499 581.095 663.023C580.998 663.522 580.976 664.483 581.117 664.964C581.5 666.279 583.161 667.544 583.894 668.728C585.194 670.829 585.933 673.278 587.277 675.412C593.042 684.569 604.35 690.073 614.572 692.369C617.092 699.57 621.581 708.406 628.653 711.985C636.668 716.043 644.792 713.248 652.687 710.663C654.349 714.367 656.561 717.85 659.581 720.596C667.304 727.617 676.458 727.938 686.275 727.497C689.674 740.909 689.807 759.225 687.431 772.781C685.645 782.971 681.83 792.967 678.629 802.785Q670.681 826.697 663.276 850.782Q653.032 884.828 644.503 919.344Q635.975 953.86 629.184 988.759Q618.549 981.094 607.445 974.125Q596.341 967.155 584.814 960.911Q573.288 954.666 561.385 949.171Q549.483 943.676 537.253 938.954C514.87 930.163 491.997 922.956 469.35 914.932C458.003 910.912 446.843 906.441 435.597 902.158C435.186 892.517 437.94 882.781 438.965 873.219C440.29 860.854 434.934 863.547 428.604 855.674C462.78 855.133 497.059 855.786 531.248 855.811C544.886 855.821 566.673 856.897 579.499 854.837C591.27 852.947 601.529 848.524 608.579 838.551C614.268 830.503 617.859 819.854 615.954 810.004C614.718 803.616 611.327 796.661 605.75 793.061C600.702 789.803 595.85 790.654 590.37 791.918C594.771 783.357 598.891 773.928 600.147 764.304C601.133 756.748 600.747 748.124 595.784 741.927Q595.278 741.287 594.71 740.7Q594.143 740.113 593.521 739.584Q592.898 739.056 592.227 738.592Q591.555 738.128 590.84 737.733Q590.126 737.338 589.376 737.015Q588.626 736.693 587.848 736.446Q587.07 736.199 586.271 736.031Q585.473 735.862 584.661 735.773C576.48 734.894 569.833 739.889 563.832 744.681C562.205 740.455 560.756 736.012 557.711 732.554C555.419 729.951 552.468 728.239 548.946 728.183C540.533 728.049 532.64 736.319 527.174 741.774C525.813 735.055 523.973 730.247 520.258 724.423Z"/>
	<path fill="#9F8BE8" d="M924.707 612.398C927.278 590.622 934.456 569.191 947.899 551.667C966.784 527.05 993.447 512.964 1024 509.044L1024 869.533L1024 1024L835.866 1024Q826.725 949.409 814.624 875.24C844.253 873.641 872.982 868.761 900.353 856.91C915.43 850.014 934.006 839.859 941.988 824.788C926.115 786.616 906.704 750.29 887.188 713.915C874.626 690.502 862.335 666.319 847.861 644.032C853.102 641.394 857.326 635.784 862.177 632.336C880.246 619.492 902.703 613.013 924.707 612.398Z"/>
	<path d="M201.356 590.093C200.325 590.104 199.276 590.127 198.248 590.036C196.65 589.895 194.868 589.286 193.975 587.857C191.501 583.902 192.4 567.064 193.053 562.195C193.533 558.612 193.98 556.361 196.928 554.109C198.051 553.945 199.126 553.814 200.264 553.863C202.288 553.949 203.346 554.525 204.72 555.989C206.476 560.543 206.017 578.756 205.171 583.971C204.689 586.945 203.805 588.37 201.356 590.093Z"/>
	<path fill="#9F8BE8" d="M611.399 555.633C622.448 562.48 632.125 571.79 643.473 578.14C642.157 582.108 640.921 586.014 640.029 590.101C631.878 578.249 615.489 567.892 611.399 555.633Z"/>
	<path fill="#FEFEFE" d="M597.107 568.917L608.554 565.551L609.293 565.696C616.529 575.093 627.371 581.741 634.025 591.388C627.029 594.842 619.555 597.132 612.126 599.443C606.777 601.132 600.001 603.343 594.446 603.76C593.192 603.854 593.126 603.959 592.169 603.075C590.172 596.603 595.728 576.302 597.107 568.917Z"/>
	<path fill="#FEFEFE" d="M790.768 629.363C790.605 629.636 790.733 629.507 790.291 629.626C788.869 621.87 787.174 614.169 785.743 606.421C784.441 599.372 783.534 592.266 781.627 585.343C782.032 585.596 782.148 585.641 782.525 586.033C783.831 587.387 784.941 589.405 786.009 590.971C794.31 603.144 791.513 615.566 790.768 629.363Z"/>
	<path fill="#6545B4" d="M0 596.928Q58.6063 596.609 117.211 597.059L117.363 605.978L0 605.887L0 596.928Z"/>
	<path fill="#6545B4" d="M322.039 606.106L322.087 598.008L514.013 598.458L514.021 606.445C491.4 605.833 468.697 606.171 446.066 606.149L322.039 606.106Z"/>
	<path fill="#9F8BE8" d="M0 611.52L10.606 611.51L10.9268 716.889L0 716.921L0 611.52Z"/>
	<path fill="#6545B4" d="M18.2686 716.961C17.1364 717.03 17.2015 717.056 16.3323 716.329C15.1631 711.464 16.0816 692.45 16.0804 686.271C16.0759 661.305 15.2299 635.953 16.4085 611.025L17.9694 611.796C19.2108 615.654 18.2092 646.398 18.1867 652.449L18.2686 716.961Z"/>
	<path fill="#9F8BE8" d="M24.8729 717.004L24.8043 611.55L65.062 611.616L65.0775 717.052L24.8729 717.004Z"/>
	<path fill="#6545B4" d="M70.5928 717.057L70.4424 611.518L80.5047 611.511L80.4413 716.996L70.5928 717.057Z"/>
	<path fill="#9F8BE8" d="M85.7095 717.01Q85.4176 682.632 85.6059 648.254C85.6677 636.097 85.4537 623.852 85.9676 611.706L117.095 611.702L117.017 682.026C117.014 693.501 117.921 705.593 116.836 716.985L85.7095 717.01Z"/>
	<path fill="#9F8BE8" d="M322.42 717.101L322.144 612.027L355.464 612.001L355.308 717.071Q338.864 716.991 322.42 717.101Z"/>
	<path fill="#6545B4" d="M360.564 717.297Q361.096 664.633 360.821 611.966C362.393 611.965 364.674 611.614 365.965 612.6C367.002 623.515 366.081 636.757 366.053 647.893L365.963 717.311L360.564 717.297Z"/>
	<path fill="#9F8BE8" d="M371.549 717.509L371.516 611.933C382.176 611.76 392.872 611.951 403.535 611.981L403.694 717.487L371.549 717.509Z"/>
	<path fill="#6545B4" d="M414.591 717.69C412.943 717.658 410.542 717.841 409.183 716.912C408.081 705.566 409.049 693.444 409.093 681.984L409.413 612C411.175 611.943 412.725 611.794 414.391 612.444C415.18 614.349 414.521 706.737 414.591 717.69Z"/>
	<path fill="#9F8BE8" d="M420.017 717.595L420.16 612.151L453.125 612.115L453.249 717.375C447.749 718.631 427.184 717.625 420.017 717.595Z"/>
	<path fill="#6545B4" d="M463.465 717.829C462.001 718.062 460.407 718.184 459.148 717.393C458.052 708.185 458.938 693.772 458.921 684.081L458.828 612.035C460.314 612.022 462.051 611.729 463.289 612.672C464.403 623.122 463.365 639.301 463.289 650.254Q463.054 684.043 463.465 717.829Z"/>
	<path fill="#9F8BE8" d="M468.642 717.971C468.044 682.753 468.807 647.412 468.77 612.175L514.115 612.306L513.976 717.844Q491.309 717.766 468.642 717.971Z"/>
	<path fill="#9F8BE8" d="M774.205 726.805C781.067 725.272 789.131 723.594 794.371 718.503C797.227 715.73 798.37 712.236 798.766 708.351C800.093 695.325 796.153 681.848 796.621 668.808C796.826 663.099 798.818 657.013 799.714 651.341Q802.111 635.452 802.602 619.391C807.832 625.196 849.244 711.244 852.033 720.501C841.065 726.199 828.093 728.783 816.107 731.472C803.916 733.91 792.012 735.585 779.601 736.348C777.701 733.242 775.993 729.979 774.205 726.805Z"/>
	<path fill="#FEFEFE" d="M601.142 630.581C613.838 628.458 625.168 627.099 637.55 623.022L638.496 622.875C640.772 624.9 642.349 632.17 643.434 635.244C632.556 636.255 625.348 649.52 616.101 648.56C613.965 648.338 612.877 647.469 611.602 645.82C608.005 640.509 603.821 636.534 601.142 630.581Z"/>
	<path fill="#DCD9F6" d="M592.548 646.784C592.499 645.53 592.296 643.918 592.491 642.691C592.753 641.04 593.585 640.825 594.842 640.033C597.354 640.004 598.171 640.586 600.106 642.119C601.832 643.486 606.336 647.049 606.577 649.312L605.383 649.44C601.059 648.755 596.813 647.76 592.548 646.784Z"/>
	<path fill="#FEFEFE" d="M605.078 672.668C600.217 671.083 594.369 668.753 590.207 665.739C588.623 664.592 588.234 663.836 587.894 661.932C588.037 661.733 588.098 661.428 588.325 661.334C589.278 660.943 607.223 669.569 612.53 667.978C613.995 667.539 614.085 667.264 614.778 666.004C614.701 664.527 614.799 664.384 613.53 663.46C611.122 661.706 605.892 661.392 602.888 660.579C598.523 659.398 590.608 656.286 587.626 652.909C588.932 652.253 591.197 653.049 592.631 653.384C600.698 655.272 608.448 656.878 616.798 655.868C627.597 654.562 633.271 645.212 643.425 643.078C643.626 643.068 643.826 643.049 644.027 643.049C650.537 643.053 653.943 647.074 658.227 651.34C656.812 652.533 655.449 653.75 654.19 655.108C646.371 663.54 646.032 673.361 646.413 684.187C641.164 685.421 635.963 686.474 630.564 686.756C617.813 687.42 604.712 683.881 595.072 675.243Q598.586 676.781 602.231 677.976C606.137 679.216 613.824 681.469 617.625 679.467C618.298 678.141 618.144 677.998 617.853 676.513C615.789 674.066 608.36 673.525 605.078 672.668Z"/>
	<path fill="#FEFEFE" d="M698.856 657.864C697.268 657.009 695.621 656.339 694.061 655.42C694.922 654.262 696.581 654.021 697.932 653.54L698.999 653.773C699.892 655.097 700.743 656.125 700.805 657.785L700.274 658.28L698.856 657.864Z"/>
	<path fill="#FEFEFE" d="M680.017 721.096C676.389 721.085 672.372 720.637 669.02 719.189C662.745 716.479 659.621 710.934 657.363 704.814C653.167 693.445 649.35 676.083 654.977 664.615C657.275 659.931 660.488 657.651 665.337 656.044C670.279 655.971 674.74 656.308 679.549 657.487C676.39 662.675 674.686 669.435 674.166 675.445C672.661 692.867 677.129 707.44 688.243 720.663C685.509 720.878 682.757 720.964 680.017 721.096Z"/>
	<path fill="#FEFEFE" d="M621.729 693.532C630.383 693.693 637.923 693.194 646.343 691.072L647.296 691.213C649.335 694.695 649.499 700.254 650.873 704.221Q647.357 705.656 643.659 706.516C639.705 707.419 633.657 708.423 630.105 706.219C626.79 702.255 624.12 698.109 621.729 693.532Z"/>
	<path fill="#9F8BE8" d="M0 722.885L512.683 723.427C509.197 726.479 505.712 729.609 502.517 732.967L0 733.348L0 722.885Z"/>
	<path fill="#FEFEFE" d="M691.852 726.22C695.953 725.548 699.974 724.564 704.013 723.599C716.997 726.841 730.574 728.741 743.976 728.051C745.767 732.188 747.122 736.525 748.577 740.789Q738.861 742.963 729.11 744.974C719.349 746.913 709.514 749.617 699.705 751.107C698.53 751.286 696.91 751.778 695.947 751.079L696.358 750.892L696.539 751.463L695.353 751.459C694.268 748.009 694.325 743.94 693.903 740.341C693.35 735.623 692.572 730.916 691.852 726.22Z"/>
	<path fill="#6545B4" d="M478.721 750.145C479.847 754.916 481.311 773.396 483.264 775.756C483.837 776.448 484.157 776.312 484.977 776.438C486.495 775.708 487.336 774.3 488.068 772.835C490 768.969 490.763 764.626 492.412 760.647C496.319 751.222 505.486 737.049 513.162 730.206L513.722 729.711C524.107 734.627 518.089 747.738 521.569 753.338C522.005 754.04 522.56 753.966 523.303 754.158C527.262 753.14 536.966 740.732 541.714 737.141C543.612 735.705 546.373 733.804 548.903 734.408C551.602 735.052 553.059 737.198 554.332 739.495C556.049 742.591 559.498 750.327 558.23 753.688C557.693 755.109 548.261 753.946 544.837 755.284C534.557 759.301 521.349 777.516 516.994 787.181C516.9 787.388 516.811 787.598 516.72 787.806C515.468 785.892 514.251 783.503 511.777 783.157C505.488 782.278 488.584 795.244 483.869 799.426C478.923 803.812 467.336 816.341 467.266 822.96C467.249 824.504 467.668 825.261 468.713 826.346C471.261 826.587 472.208 825.544 473.348 823.397C475.122 820.057 476.672 816.41 478.792 813.285C486.061 802.569 499.101 794.897 510.48 789.369C510.369 793.288 509.23 798.024 509.854 801.836C510.113 803.414 510.641 804.031 511.946 804.883C513.103 804.955 514.246 804.95 515.171 804.102C517.147 802.293 518.136 798.032 519.393 795.637C524.823 785.285 535.654 767.7 546.212 762.076C548.427 760.896 550.967 760.263 553.392 761.193C563.169 764.942 556.242 780.298 559.156 786.115C559.603 787.008 559.769 786.853 560.643 787.165C561.496 786.939 562.486 786.448 563.124 785.819C566.859 782.136 565.635 773.241 565.756 768.316C566.364 767.355 566.881 766.432 567.345 765.394C566.84 763.754 566.171 763.457 564.876 762.377C563.871 759.858 564.161 757.559 565.139 755.054C567.265 749.603 572.026 745.292 577.352 743.051C580.36 741.785 583.122 741.347 586.195 742.656C589.417 744.028 591.719 746.452 592.932 749.739C597.446 761.968 589.987 777.834 584.771 788.709C582.932 792.479 579.091 797.162 578.489 801.273C578.297 802.587 578.59 803.04 579.389 804.03C583.339 805.238 590.571 797.288 596.138 796.809C599.156 796.549 601.826 797.582 604.035 799.62C608.207 803.472 610.577 809.536 610.672 815.153C610.813 823.478 606.484 832.407 600.662 838.229C595.672 843.219 588.684 847.065 581.75 848.437C573.591 850.051 565.161 849.688 556.886 849.71L525.851 849.741L423.746 849.924Q417.656 843.6 412.043 836.849L414.203 831.632Q410.271 827.374 406.658 822.843C410.49 812.772 418.303 803.108 425.673 795.39C424.788 801.272 421.787 812.139 425.189 817.256C426.515 817.985 426.644 817.965 428.159 817.812C431.901 815.009 430.341 808.422 431.554 804.269C438.506 780.471 457.031 761.347 478.721 750.145Z"/>
	<path fill="#6545B4" d="M348.285 739.216C369.386 740.096 390.777 739.526 411.9 739.361C432.508 739.2 453.209 739.441 473.802 738.731L498.135 738.54C493.562 745.171 489.767 752.117 486.498 759.477C485.268 754.966 484.9 747.932 481.875 744.394C480.165 743.65 479.022 743.616 477.23 744.196C473.675 745.347 470.099 748.006 467.035 750.089C453.034 759.604 439.796 772.044 432.33 787.456C431.204 786.505 430.407 785.726 428.896 785.478C420.126 788.498 406.118 810.564 401.517 818.582C399.737 816.273 397.804 814.079 395.917 811.858C393.26 808.987 388.347 801.383 384.857 800.189C384.421 800.04 383.955 799.995 383.515 799.861L382.972 799.691L382.105 799.433C379.762 794.507 382.045 781.347 381.913 775.351C381.876 773.645 381.732 771.897 380.758 770.441C378.788 767.493 373.41 763.864 370.621 761.24C363.019 754.086 355.791 746.482 348.285 739.216Z"/>
	<path fill="#6545B4" d="M0 739.446L183.448 739.448Q181.482 750.604 179.322 761.724C175.269 758.791 171.425 757.551 166.39 758.443C156.699 760.16 148.794 768.973 142.735 776.112C141.745 769.918 140.987 761.313 135.348 757.401C132.857 755.673 129.859 755.342 126.948 756.027C111.905 759.562 93.6885 785.075 85.7522 797.781C82.3904 792.776 77.7496 785.185 71.4357 783.803C68.6675 783.197 66.0498 784.186 63.7798 785.747C53.2314 793 39.7856 820.427 35.4189 832.704C33.6188 829.9 31.4451 826.267 27.9597 825.45C26.5601 825.121 25.2127 825.432 24.02 826.212C19.6509 829.07 17.3747 836.754 15.0124 841.325C10.0256 841.576 4.9911 841.992 0 842.007L0 739.446Z"/>
	<path fill="#9F8BE8" d="M204.424 767.375C199.831 758.002 195.322 748.607 190.286 739.459L338.012 739.398L368.311 767.439L204.424 767.375Z"/>
	<path fill="#FEFEFE" d="M628.765 1024C630.547 1010.42 633.591 996.908 636.274 983.472Q647.22 930.312 661.773 878.024Q669.841 850.902 678.215 823.872C684.798 802.978 694.554 780.933 694.526 758.798C707.455 755.617 720.339 752.533 733.412 749.988C738.9 748.92 744.565 747.611 750.144 747.189C755.51 761.159 759.488 775.88 764.097 790.13Q775.875 826.915 789.838 862.928L746.093 967.833C738.437 986.466 731.575 1005.49 723.665 1024L628.765 1024Z"/>
	<path fill="#9F8BE8" d="M175.901 803.126C178.417 795.843 181.848 788.679 183.22 781.061C183.987 776.797 183.344 772.33 183.71 768.02C184.246 761.693 186.306 755.067 187.734 748.874C189.34 750.514 190.533 753.782 191.629 755.906C197.603 767.487 202.782 779.493 208.338 791.289C210.027 794.874 211.299 798.846 213.309 802.241C213.962 802.564 215.534 803.185 215.958 803.752C216.994 805.139 217.772 807.813 218.5 809.449C221.747 816.749 224.674 824.746 228.654 831.652C231.766 837.052 235.984 841.913 239.78 846.843C245.356 854.088 250.804 861.432 256.553 868.542C256.182 878.504 255.259 888.431 254.936 898.402Q247.124 892.814 239.238 887.331Q230.553 881.342 222.109 875.017C226.051 868.761 228.694 861.931 227.462 854.362C226.832 850.49 224.875 847.072 221.62 844.823C213.741 839.381 200.999 841.239 192.216 843.008C196.832 830.791 198.635 817.898 196.783 804.917C196.496 802.906 195.935 799.976 193.971 798.876C189.502 796.373 180.282 801.258 175.901 803.126Z"/>
	<path fill="#9F8BE8" d="M26.868 832.767C29.7462 836.161 31.4734 840.552 34.8966 843.445C35.9007 843.698 36.6169 843.927 37.5559 843.231C39.3148 841.927 44.1974 827.499 45.5676 824.405C49.4564 815.625 60.0972 793.77 68.4666 789.936C76.4359 789.196 79.8716 804.802 85.2589 807.138C86.704 806.945 87.4205 806.55 88.3762 805.424C90.8397 802.521 92.16 798.637 94.274 795.454C101.836 784.068 115.368 767.218 128.302 761.932C139.301 763.392 134.772 782.141 139.842 786.351C140.818 786.297 141.267 786.142 142.093 785.572C145.376 783.304 151.778 774.588 156.388 770.764C159.945 767.815 165.057 763.77 169.939 764.406C173.487 764.869 175.578 767.085 177.582 769.843C177.671 781.402 171.811 800.844 165.506 810.633C162.979 814.555 158.976 818.033 155.984 821.696C154.124 816.84 151.713 807.346 147.377 804.193C146.024 803.209 144.188 803.01 142.572 803.257C128.928 805.34 109.901 829.543 101.55 840.456C100.083 836.9 98.639 833.094 95.0552 831.19C93.0553 830.127 90.7537 830.24 88.6667 830.981C78.4661 834.607 68.4537 851.551 63.893 860.75C59.9017 868.649 57.2237 876.343 55.1905 884.956C48.5984 884.927 25.4469 886.434 20.9742 883.65C18.7423 882.26 17.719 879.604 17.2258 877.139C14.2082 862.057 18.7064 845.491 26.868 832.767Z"/>
	<path fill="#9F8BE8" d="M207.401 773.514L363.365 773.26L375.562 773.062C375.681 781.773 375.606 790.496 375.627 799.209L219.715 799.008C215.062 790.84 211.332 782.05 207.401 773.514Z"/>
	<path fill="#9F8BE8" d="M223.836 805.077C276.279 804.479 328.797 805.851 381.227 804.771L381.817 804.608L382.102 805.177L382.733 805.327C389.896 814.41 398.355 823.051 406.284 831.494L249.25 831.525L236.069 831.469C231.424 823.074 227.248 814.043 223.836 805.077Z"/>
	<path fill="#9F8BE8" d="M143.704 809.283C148.596 817.335 148.316 822.815 151.479 830.028C151.999 831.214 152.326 831.455 153.373 832.122C153.531 832.117 153.692 832.131 153.849 832.107C155.731 831.82 168.4 816.571 171.34 814.11C176.485 809.8 182.043 807.282 188.282 804.937L189.449 805.031C190.954 806.734 190.915 810.025 190.996 812.246C191.195 817.739 190.947 823.18 189.76 828.559C189.046 831.793 182.742 848.247 182.871 849.216C182.937 849.71 183.209 850.152 183.377 850.62C183.78 850.935 184.1 851.405 184.586 851.563C186.902 852.314 194.757 848.59 197.488 847.938C199.809 847.383 202.258 847.132 204.636 846.968C209.171 846.654 214.382 846.837 217.893 850.121C220.38 852.447 221.462 855.864 221.529 859.201C221.66 865.766 217.832 872.907 213.19 877.461C210.173 880.42 206.158 883.148 201.939 883.938C190.449 886.09 168.899 884.964 156.201 884.974L66.875 885.009L61.0169 885.012C64.4907 871.39 75.7613 845.565 88.5104 838.237C89.9574 837.405 91.1269 836.866 92.7963 837.336C98.0186 841.262 95.109 850.567 97.76 855.83C100.028 856.956 101.345 854.052 102.219 852.332C109.646 837.712 127.901 814.575 143.704 809.283Z"/>
	<path fill="#9F8BE8" d="M260.921 863.841C257.258 859.866 242.686 841.295 241.236 837.224L403.716 837.459C412.277 845.931 420.074 855.072 428.2 863.943C407.252 864.525 386.157 863.962 365.191 863.958L260.921 863.841Z"/>
	<path fill="#9F8BE8" d="M0 847.621C4.5636 847.593 9.13858 847.494 13.7012 847.559C10.3234 857.96 8.49509 874.495 13.6894 884.566C15.1552 887.407 17.3823 889.344 20.4955 890.158C27.505 891.991 41.6643 890.924 49.4711 890.923L105.574 890.856L164.395 890.822C175.74 890.812 187.449 891.315 198.752 890.341C203.6 889.923 207.611 888.568 211.724 886.004C214.224 884.446 216.595 882.66 218.642 880.538C234.843 891.091 249.859 903.56 267.232 912.26C288.5 922.911 310.612 931.062 332.713 939.72Q350.171 946.69 367.241 954.564C409.477 973.631 432.524 990.038 464.323 1024L0 1024L0 847.621Z"/>
	<path fill="#9F8BE8" d="M262.519 869.888C318.59 868.897 374.742 870.655 430.822 869.738L432.498 869.775C433.823 872.244 429.465 894.453 428.737 898.441C421.374 899.16 413.795 898.879 406.403 898.882L372.037 898.806L264.375 898.578C263.312 898.619 262.675 898.657 261.717 898.162C260.272 889.682 262.331 878.677 262.519 869.888Z"/>
	<path fill="#FEFEFE" d="M747.896 1024Q744.79 1010.26 741.02 996.686Q759.177 952.005 778.018 907.608C783.259 895.192 787.788 881.869 793.873 869.888C795.539 872.262 797.053 873.835 799.534 875.32C802.753 875.456 805.962 875.589 809.184 875.579C810.789 889.982 813.485 904.27 815.579 918.609Q820.888 955.392 825.378 992.284C826.69 1002.84 828.468 1013.39 829.245 1024L747.896 1024Z"/>
	<path fill="#9F8BE8" d="M472.225 1024C431.901 974.091 381.947 952.563 323.974 929.559C304.183 921.706 284.781 914.56 265.93 904.495C300.702 904.178 335.509 904.653 370.286 904.593L406.65 904.601C413.16 904.624 420.162 904.203 426.6 905.134C432.02 905.917 448.152 914.069 455.15 916.521C514.906 937.455 576.818 956.238 627.79 995.354Q624.816 1009.64 622.271 1024L472.225 1024Z"/>
	<path fill="#9F8BE8" d="M731.185 1024C732.685 1017.8 735.467 1012.01 737.024 1005.87C738.836 1011.78 740.537 1017.94 741.785 1024L731.185 1024Z"/>
</svg>
