<?xml version="1.0" encoding="utf-8" ?>
<svg xmlns="http://www.w3.org/2000/svg" xmlns:xlink="http://www.w3.org/1999/xlink" width="1024" height="1024">
	<path fill="#D9D4FB" d="M0 0L79.4351 0L79.121 108.718Q39.4233 118.442 0 129.225L0 0Z"/>
	<path fill="#9F8BE8" d="M79.4351 0L106.351 0Q105.754 50.9695 106.425 101.937L147.36 91.8123C160.949 88.3623 174.535 84.6498 188.25 81.7274L188.119 0L213.062 0C213.09 13.5835 211.99 103.857 214.151 107.989C212.558 110.465 210.3 112.172 207.92 113.837C197.548 121.093 192.568 124.46 189.04 137.192C187.531 129.022 188.518 114.627 188.514 105.713C172.163 109.53 156.037 114.297 139.773 118.466C128.766 121.287 117.261 123.385 106.435 126.752L106.212 285.695C106.098 331.054 105.567 376.477 106.095 421.83C129.96 415.12 153.754 407.338 177.855 401.612Q174.319 414.634 171.822 427.895C170.973 427.622 170.539 427.635 169.663 427.831C163.99 429.1 158.339 431.02 152.743 432.623L122.352 441.289L54.9997 460.473C36.664 465.81 18.4784 471.502 0 476.352L0 451.303C8.20084 449.433 16.377 446.633 24.4949 444.362Q51.8908 436.856 79.1098 428.733L78.8887 134.071C52.5114 140.483 26.4227 147.955 0 154.228L0 129.225Q39.4233 118.442 79.121 108.718L79.4351 0Z"/>
	<path fill="#D9D4FB" d="M106.351 0L188.119 0L188.25 81.7274C174.535 84.6498 160.949 88.3623 147.36 91.8123L106.425 101.937Q105.754 50.9678 106.351 0Z"/>
	<path fill="#D9D4FB" d="M213.062 0L557.674 0Q557.287 60.1518 557.511 120.306L557.9 330.723Q557.332 452.609 558.095 574.48C551.199 577.149 542.922 578.11 535.707 579.814L490.773 590.813Q412.45 609.827 334.36 629.78C334.207 618.604 334.875 607.407 335.189 596.235Q335.578 578.201 335.595 560.163Q335.957 525.33 334.384 490.531Q332.811 455.732 329.309 421.074C337.462 420.758 386.882 414.708 390.907 411.124C394.584 407.849 395.111 399.244 395.59 394.574C416.915 390.593 432.059 396.543 454.571 389.592C460.79 387.672 473.024 384.281 476.119 377.924C477.086 375.937 476.467 374.459 475.829 372.506C497.311 367.654 523.435 361.151 538.198 343.691C543.519 337.4 548.516 327.683 547.638 319.257C546.793 311.14 541.202 302.598 534.952 297.515C535.119 293.508 537.447 279.018 536.105 276.383C533.927 272.106 493.149 261.071 486.19 259.149C485.843 254.833 485.023 249.981 482.718 246.257C480.052 241.951 476.577 240.472 471.889 239.381C462.456 241.621 455.093 247.586 448.899 254.837C449.012 247.756 448.856 239.594 445.269 233.265C443.473 230.097 440.819 227.747 437.235 226.869C433.523 225.959 429.483 226.504 426.288 228.641C417.476 234.533 415.348 250.81 413.22 260.346C406.734 262.093 400.292 263.885 393.9 265.954C391.787 263.678 389.628 261.017 386.337 260.645C384.877 260.48 383.514 260.827 382.366 261.759C379.716 263.91 378.814 268.011 378.38 271.219C370.903 271.894 362.754 273.966 355.795 276.748C354.599 284.016 354.701 291.725 354.396 299.088C346.357 295.997 338.475 294.26 330.024 292.694C330.703 290.297 331.505 287.904 332.064 285.477C333.329 279.988 333.089 274.432 331.554 269.029C326.693 251.922 310.175 227.242 300.338 211.674L283.252 184.149Q284.135 184.358 285.026 184.533C307.587 188.968 312.761 181.498 323.693 163.523C325.377 160.755 326.733 157.57 329.495 155.755C339.27 149.33 331.264 146.585 330.07 138.279C329.645 135.319 330.414 132.472 331.188 129.646C337.013 124.769 342.909 118.838 346.461 112.033C350.838 103.65 351.668 92.8065 348.794 83.8076C343.397 66.908 325.908 52.2304 310.652 44.3715C292.814 35.1827 270.352 32.4302 251.078 38.6343C233.176 44.3965 219.289 59.8475 217.729 78.888C216.902 88.976 219.366 97.7938 214.484 107.347L214.151 107.989C211.99 103.857 213.09 13.5835 213.062 0Z"/>
	<path d="M557.674 0L563.409 0L563.439 317.678L563.521 489.451C563.545 517.959 563.09 546.546 563.583 575.045C561.751 574.769 559.944 574.595 558.095 574.48Q557.332 452.6 557.9 330.723L557.511 120.306Q557.287 60.1525 557.674 0Z"/>
	<path fill="#D9D4FB" d="M563.409 0L618.029 0L617.862 519.23C616.455 528.023 617.43 538.304 617.445 547.249L617.629 605.553C599.393 595.837 582.075 584.198 563.583 575.045C563.09 546.546 563.545 517.959 563.521 489.451L563.439 317.678L563.409 0Z"/>
	<path d="M618.029 0L623.224 0L623.725 247.308C631.912 244.137 638.987 240.145 646.127 235.032C649.224 232.814 653.205 228.651 656.627 227.307C657.887 226.813 659.562 227.423 660.786 227.834C660.308 230.704 659.75 231.858 657.471 233.625C647.492 241.181 637 249.244 624.747 252.624C623.766 253.686 623.574 253.869 623.281 255.269C624.11 256.103 623.667 255.965 624.806 255.961C633.331 255.936 652.344 242.225 658.855 236.018C660.441 237.048 660.93 237.611 661.771 239.305C655.741 250.382 635.217 259.165 623.761 262.984C623.081 317.605 623.558 372.259 623.525 426.884L623.253 470.955C623.183 477.829 622.291 485.743 623.356 492.482C623.134 527.017 622.289 561.711 623.139 596.229L623.162 609.224C621.315 608.475 619.674 607.635 617.98 606.584L617.862 519.23L618.029 0Z"/>
	<path fill="#9F8BE8" d="M623.224 0L830.723 0C828.667 14.2568 823.389 28.4335 818.176 41.8041C792.703 107.135 746.864 164.705 690.889 206.616C681.112 213.936 671.095 221.288 660.786 227.834C659.562 227.423 657.887 226.813 656.627 227.307C653.205 228.651 649.224 232.814 646.127 235.032C638.987 240.145 631.912 244.137 623.725 247.308L623.224 0ZM698.018 33.1477C697.399 34.1588 696.86 35.1758 696.634 36.3532C695.456 42.5162 695.649 49.4409 695.186 55.7386C694.598 63.7456 693.438 71.6257 692.208 79.5543C687.317 111.065 679.448 142.173 666.962 171.569C662.66 181.698 657.81 192.299 652.08 201.705C648.685 207.279 644.196 212.286 641.124 218.032C640.383 219.418 640.066 220.377 640.167 221.977C640.985 223.138 641.156 223.38 642.629 223.669C642.911 223.725 643.201 223.728 643.488 223.758C674.651 187.184 694.339 113.309 699.852 66.2238C700.707 58.9212 702.327 46.0931 701.836 39.1148C701.712 37.3533 701.561 35.0761 699.997 33.9491C699.497 33.5891 698.571 33.3395 698.018 33.1477Z"/>
	<path fill="#D9D4FB" d="M830.723 0L1024 0L1024 815.361C1014.01 792.712 1003.87 771.296 989.031 751.264C986.496 747.841 981.995 743.298 980.838 739.306C982.824 736.827 992.583 737.865 996.197 736.266Q996.816 735.985 997.42 735.674Q998.023 735.363 998.611 735.022Q999.199 734.681 999.769 734.312Q1000.34 733.943 1000.89 733.546Q1001.44 733.149 1001.97 732.725Q1002.5 732.301 1003.01 731.851Q1003.52 731.402 1004.01 730.928Q1004.5 730.453 1004.96 729.956Q1005.42 729.458 1005.86 728.938Q1006.3 728.418 1006.71 727.877Q1007.12 727.336 1007.5 726.776Q1007.88 726.215 1008.24 725.636Q1008.6 725.057 1008.92 724.462Q1009.25 723.866 1009.55 723.255Q1009.84 722.644 1010.11 722.018Q1010.38 721.393 1010.61 720.756C1012.99 714.181 1012.98 706.829 1009.97 700.44C1003.55 686.803 990.799 687.521 978.822 682.982C978.626 682.908 978.432 682.829 978.237 682.752C981.172 677.498 984.873 672.691 987.861 667.464C998.124 649.507 1001.43 627.332 995.929 607.308C990.402 587.172 975.459 570.892 957.513 560.785C938.668 550.171 911.271 543.19 889.923 549.266C879.363 552.271 869.768 558.601 864.471 568.428C861.997 573.018 860.694 577.212 861.972 582.337C862.614 584.91 860.505 587.769 859.333 590.033C857.733 593.125 856.046 597.563 853.687 600.101C848.36 605.829 836.968 603.534 833.102 609.783C831.032 613.128 832.047 616.974 832.813 620.535Q831.974 622.551 831.172 624.582C826.692 635.865 820.803 654.215 826.181 666.036C831.488 677.703 848.206 682.836 859.284 686.998C864.545 697.37 867.684 710.427 868.13 722.043C866.228 724.92 864.289 727.795 863.43 731.185C861.947 737.033 864.863 741.591 867.632 746.461C865.768 748.531 863.685 750.358 861.625 752.227C856.259 749.61 851.267 745.816 846.162 742.675C835.219 735.942 824.187 729.404 813.324 722.534C795.069 710.989 776.333 700.152 757.99 688.718C749.61 683.495 740.959 678.719 732.507 673.617L623.544 609.201C623.58 604.976 623.892 600.387 623.139 596.229C622.289 561.711 623.134 527.017 623.356 492.482C627.149 497.424 630.988 503.102 637.219 505.079C642.469 506.745 647.789 505.897 652.625 503.384C665.864 496.506 670.247 480.888 674.525 467.811L676.331 470.012C679.818 474.18 684.418 477.118 689.941 477.471C696.283 477.875 702.523 474.876 707.237 470.816C722.799 457.411 727.456 433.024 728.998 413.606C732.802 365.715 715.783 308.566 688.053 269.551C683.24 262.78 677.982 255.838 672.246 249.841C669.075 246.526 665.32 243.571 662.388 240.057L661.771 239.305C660.93 237.611 660.441 237.048 658.855 236.018L657.471 233.625C659.75 231.858 660.308 230.704 660.786 227.834C671.095 221.288 681.112 213.936 690.889 206.616C746.864 164.705 792.703 107.135 818.176 41.8041C823.389 28.4335 828.667 14.2568 830.723 0Z"/>
	<path d="M643.488 223.758C643.201 223.728 642.911 223.725 642.629 223.669C641.156 223.38 640.985 223.138 640.167 221.977C640.066 220.377 640.383 219.418 641.124 218.032C644.196 212.286 648.685 207.279 652.08 201.705C657.81 192.299 662.66 181.698 666.962 171.569C679.448 142.173 687.317 111.065 692.208 79.5543C693.438 71.6257 694.598 63.7456 695.186 55.7386C695.649 49.4409 695.456 42.5162 696.634 36.3532C696.86 35.1758 697.399 34.1588 698.018 33.1477C698.571 33.3395 699.497 33.5891 699.997 33.9491C701.561 35.0761 701.712 37.3533 701.836 39.1148C702.327 46.0931 700.707 58.9212 699.852 66.2238C694.339 113.309 674.651 187.184 643.488 223.758Z"/>
	<path d="M214.151 107.989L214.484 107.347C219.366 97.7938 216.902 88.976 217.729 78.888C219.289 59.8475 233.176 44.3965 251.078 38.6343C270.352 32.4302 292.814 35.1827 310.652 44.3715C325.908 52.2304 343.397 66.908 348.794 83.8076C351.668 92.8065 350.838 103.65 346.461 112.033C342.909 118.838 337.013 124.769 331.188 129.646C330.414 132.472 329.645 135.319 330.07 138.279C331.264 146.585 339.27 149.33 329.495 155.755C326.733 157.57 325.377 160.755 323.693 163.523C312.761 181.498 307.587 188.968 285.026 184.533Q284.135 184.358 283.252 184.149L300.338 211.674C310.175 227.242 326.693 251.922 331.554 269.029C333.089 274.432 333.329 279.988 332.064 285.477C331.505 287.904 330.703 290.297 330.024 292.694C338.475 294.26 346.357 295.997 354.396 299.088C354.701 291.725 354.599 284.016 355.795 276.748C362.754 273.966 370.903 271.894 378.38 271.219C378.814 268.011 379.716 263.91 382.366 261.759C383.514 260.827 384.877 260.48 386.337 260.645C389.628 261.017 391.787 263.678 393.9 265.954C400.292 263.885 406.734 262.093 413.22 260.346C415.348 250.81 417.476 234.533 426.288 228.641C429.483 226.504 433.523 225.959 437.235 226.869C440.819 227.747 443.473 230.097 445.269 233.265C448.856 239.594 449.012 247.756 448.899 254.837C455.093 247.586 462.456 241.621 471.889 239.381C476.577 240.472 480.052 241.951 482.718 246.257C485.023 249.981 485.843 254.833 486.19 259.149C493.149 261.071 533.927 272.106 536.105 276.383C537.447 279.018 535.119 293.508 534.952 297.515C541.202 302.598 546.793 311.14 547.638 319.257C548.516 327.683 543.519 337.4 538.198 343.691C523.435 361.151 497.311 367.654 475.829 372.506C476.467 374.459 477.086 375.937 476.119 377.924C473.024 384.281 460.79 387.672 454.571 389.592C432.059 396.543 416.915 390.593 395.59 394.574C395.111 399.244 394.584 407.849 390.907 411.124C386.882 414.708 337.462 420.758 329.309 421.074Q332.811 455.732 334.384 490.531Q335.957 525.33 335.595 560.163Q335.578 578.201 335.189 596.235C334.875 607.407 334.207 618.604 334.36 629.78C334.448 639.755 333.823 649.785 333.366 659.748C332.457 679.561 331.167 699.269 328.559 718.943C324.836 747.027 319.539 774.885 315.468 802.918C314.302 810.952 313.162 819.045 312.498 827.137C311.972 833.55 311.86 840.044 311.048 846.425C308.592 847.954 306.171 849.193 303.514 850.339C303.507 859.953 300.653 887.367 307.363 893.959C309.869 896.422 314.371 897.603 317.574 899.055C334.622 906.788 340.131 909.087 359.409 908.282C367.594 907.941 375.901 907.015 382.384 913.235C384.892 915.642 386.385 918.895 386.411 922.386C386.454 928.116 382.721 932.964 378.788 936.771C374.483 940.937 369.474 944.081 363.96 946.394C350.75 951.936 336.023 953.739 322.354 958.017C312.311 961.16 302.633 966.726 292.512 969.225C287.376 970.493 281.873 970.959 276.593 970.849C268.941 970.69 256.186 968.494 250.574 962.99C248.904 961.352 248.34 959.546 248.472 957.23C248.876 950.143 252.587 932.88 254.498 925.897C256.138 919.906 258.448 913.654 259.24 907.501C260.041 901.276 259.434 894.754 259.161 888.499C258.645 876.656 257.762 864.722 257.876 852.867C254.899 852.558 251.316 852.699 249.281 850.199C246.89 843.569 247.717 833.829 247.573 826.666Q247.174 797.014 248.822 767.406C249.815 747.791 252.13 722.597 250.304 703.397C249.743 697.507 248.328 691.637 247.031 685.869C242.522 695.686 238.084 705.594 233.02 715.137C220.351 739.009 205.374 761.618 190.091 783.876C182.834 794.445 175.845 805.521 167.478 815.242C164.178 814.165 161.157 812.869 158.044 811.334C151.284 820.726 145.25 830.737 139.117 840.545C133.36 849.753 125.798 859.727 122.674 870.218C121.08 875.57 121.094 880.96 122.018 886.438C123.902 897.617 130.498 919.73 139.806 926.434C148.721 932.855 158.681 932.604 163.422 944.136C164.318 946.315 165.356 948.727 165.702 951.065C165.995 953.039 165.722 955.054 164.465 956.658C161.307 960.687 153.436 961.259 148.686 961.653C138.439 962.503 128.593 960.376 118.486 959.124C102.234 957.11 78.5513 955.945 65.4663 944.911C58.2715 938.844 36.7408 910.239 36.0031 901.833C35.7362 898.792 36.9171 895.781 38.9947 893.585C41.267 891.183 43.8589 889.907 46.8646 888.64C55.3337 874.8 69.8575 864.612 80.7184 852.654C89.5808 842.896 97.3065 825.126 103.559 813.301C107.843 805.198 112.91 796.941 116.44 788.496C114.181 787.191 109.166 785.306 108.322 782.854C108.084 782.164 108.399 781.363 108.593 780.688C110.406 774.394 117.584 764.432 120.94 758.22C128.498 744.231 135.92 730.039 143.123 715.862C150.29 701.755 157.79 687.346 162.233 672.101C164.702 657.244 163.593 641.774 163.069 626.791Q162.466 610.319 162.459 593.837C162.126 538.6 162.895 482.492 171.822 427.895Q174.319 414.634 177.855 401.612C180.804 390.627 186.57 379.345 187.428 367.951C187.885 361.891 186.004 355.111 185.082 349.097Q183.451 338.043 182.158 326.944C178.927 297.101 178.232 249.387 183.476 219.49C184.892 211.416 187.188 203.775 189.82 196.039C193.896 187.34 197.976 179.372 204.333 172.104C197.029 164.761 192.45 156.741 189.558 146.853C189.105 143.591 189.003 140.483 189.04 137.192C192.568 124.46 197.548 121.093 207.92 113.837C210.3 112.172 212.558 110.465 214.151 107.989ZM208.093 176.188C194.888 191.062 189.785 210.668 187.383 229.922C186.33 240.445 185.44 250.969 185.505 261.554C185.394 273.062 185.224 284.668 185.937 296.158C186.194 303.886 185.924 320.365 187.726 326.852C189.041 338.882 190.183 350.697 193.264 362.443C212.864 378.585 229.427 385.551 254.113 390.372L263.518 391.076C261.431 385.2 259.123 379.29 258.321 373.073C255.444 361.975 253.604 350.901 251.813 339.591C250.183 328.568 248.308 317.599 246.783 306.556C243.045 284.059 236.172 252.022 246.371 230.843C249.53 224.283 254.6 217.438 261.774 215.092C267.118 213.344 273.373 214.356 278.232 217.053C300.335 229.32 308.572 283.082 315.556 306.66C320.624 300.084 325.384 292.437 326.998 284.179C327.907 279.524 327.467 274.939 326.151 270.422C320.474 250.938 295.317 213.034 283.376 195.131C277.621 196.816 271.893 198.082 265.869 198.2C255.928 198.396 246.099 196.089 238.783 189.049C226.981 186.859 217.056 184.766 208.093 176.188ZM530.296 286.68C530.476 285.142 530.792 283.629 530.369 282.111C525.026 283.378 507.195 288.847 502.359 291.312C501.478 292.778 501.906 294.726 502.015 296.371C503.333 309.475 501.306 323.006 502.11 336.244C510.472 333.588 519.952 328.738 527.044 323.612C528.435 311.345 528.931 298.961 530.296 286.68ZM384.699 296.28C385.033 294.686 385.563 293.016 384.932 291.5C380.387 289.135 366.36 283.881 361.451 282.86C360.695 283.996 360.871 286.002 360.794 287.394C360.577 292.947 358.062 323.492 360.746 326.46C364.871 331.02 377.034 334.796 382.828 337.511C382.698 325.614 382.139 307.662 384.699 296.28ZM381.003 359.307C370.013 357.772 357.847 358.653 346.751 359.194C340.375 359.505 324.889 361.559 319.554 359.791C316.823 356.073 317.328 349.433 316.813 344.907C315.019 329.112 311.416 313.691 307.847 298.225C304.044 281.743 300.268 264.747 293.897 249.042C290.162 239.833 285.204 228.921 277.076 222.709C273.928 220.304 270.03 218.706 266.02 219.364C261.129 220.166 256.986 223.943 254.271 227.896C239.914 248.799 247.636 280.942 251.816 304.093C253.291 313.598 254.65 323.156 256.444 332.605C257.233 342.149 259.137 352.324 261.298 361.646C263.146 370.941 265.544 380.507 268.752 389.43C271.928 397.372 275.9 406.574 283.437 411.312C289.018 414.821 295.923 416.413 302.423 416.991C313.699 417.995 325.596 416.311 336.796 415.061C353.662 413.179 370.883 411.102 387.427 407.264C387.899 405.691 388.276 404.074 388.625 402.471C391.752 388.092 388.971 371.649 381.003 359.307ZM437.867 311.918L437.772 310.908C436.13 308.822 412.175 301.251 408.166 300.278C407.238 301.486 407.461 303.72 407.415 305.226C406.597 319.009 406.964 332.887 406.524 346.694L407.291 346.913C418.602 350.198 425.455 355.505 437.834 354.392C437.184 340.339 437.443 325.979 437.867 311.918ZM478.526 306.736L478.47 300.436C466.622 304.522 454.7 307.892 442.583 311.072C442.206 325.159 442.439 339.305 442.424 353.399C454.49 350.363 466.424 346.795 478.453 343.608L478.526 306.736ZM270.333 40.7133C257.236 41.7406 248.202 44.8108 237.15 51.9007C254.977 45.2963 273.086 44.5168 290.702 52.7129C304.558 59.1602 311.814 71.2902 322.214 81.6876L323.375 81.1213L323.848 82.5036C325.588 77.482 319.263 72.019 321.602 66.6914C323.921 66.5468 325.699 67.8529 327.419 69.3547C335.743 76.6202 339.947 88.315 344.94 97.8956C344.334 83.6745 339.591 73.9302 329.077 64.2383C313.168 49.572 292.092 40.1998 270.333 40.7133ZM328.895 90.4512C325.855 99.8381 319.273 106.312 311.695 112.288C314.707 112.74 319.629 113.014 321.825 115.362C322.143 115.702 322.191 115.931 322.335 116.326C322.056 117.502 322.25 117.482 321.241 118.298C315.605 119.094 309.794 117.059 304.074 117.828C299.699 118.417 295.375 121.038 291.148 122.405C280.087 125.984 269.142 126.483 257.634 126.314C257.395 128.881 256.911 131.789 257.289 134.343C258.657 143.579 266.932 150.805 268.937 163.592Q268.648 167.521 268.279 171.443C277.411 176.891 290.27 182.146 301.118 179.584C308.218 177.907 312.49 171.915 315.989 165.985C318.233 162.181 320.239 158.207 321.437 153.941C323.841 152.863 326.302 151.839 328.667 150.679C327.011 146.923 324.485 142.385 324.369 138.225C324.209 132.438 326.902 126.156 328.488 120.636C330.697 112.951 331.284 103.955 330.188 96.0383C329.983 94.5568 329.804 91.5335 328.895 90.4512ZM265.787 175.968C260.895 183.799 254.811 186.539 246.335 188.957C251.543 191.371 257.144 192.52 262.877 192.717C269.139 193.042 274.478 191.999 280.386 190.012C278.336 187.284 276.42 184.772 275.172 181.56C271.889 179.965 268.858 177.929 265.787 175.968ZM431.577 231.968C424.971 236.101 423.181 243.617 421.539 250.782C419.218 260.916 417.555 272.137 417.321 282.538C419.753 284.964 422.273 286.919 425.147 288.806C421.692 278.49 421.644 269.944 424.357 259.436C426.206 254.074 429.144 242.75 433.085 239.17C433.786 239.01 434.136 238.745 434.811 239.136C438.371 241.196 440.417 250.846 441.101 254.688C441.712 258.123 442.066 261.652 442.364 265.129C443.309 256.387 445.455 242.121 439.442 234.731C438.075 233.05 436.369 232.134 434.215 231.931C433.324 231.847 432.466 231.866 431.577 231.968ZM472.472 245.597C461.368 247.911 457.319 256.027 448.611 261.833C448.436 264.817 447.76 267.235 446.949 270.082C451.489 264.142 456.133 257.157 462.358 252.853C464.671 251.74 467.446 250.438 470.076 251.128C471.924 251.613 473.143 252.899 473.927 254.574C476.562 260.201 474.957 266.944 472.793 272.416C477.028 266.331 481.223 260.513 479.912 252.658C479.497 250.173 478.055 248.261 476.014 246.845C474.894 246.068 473.821 245.768 472.472 245.597ZM483.887 265.029C481.47 269.53 478.836 273.61 475.622 277.582C483.557 280.897 491.967 282.874 500.04 285.797C504.311 284.24 508.611 282.884 512.959 281.566C516.908 280.299 520.849 278.999 524.813 277.781Q514.832 273.839 504.586 270.646Q494.341 267.454 483.887 265.029ZM385.043 265.313C384.647 266.835 384.111 268.19 384.639 269.742C386.301 270.871 388.232 270.601 390.192 270.553C390.134 269.312 389.631 268.444 388.708 267.627C387.657 266.697 386.322 265.88 385.043 265.313ZM412 266.65C406.951 267.897 401.958 269.112 396.814 269.92L401.867 272.248C405.123 273.289 408.324 274.144 411.672 274.837C411.997 272.28 412.619 269.5 412.234 266.938L412 266.65ZM385.823 275.703C379.325 276.381 372.858 277.244 366.499 278.79C375.26 281.93 384.038 285.333 393.033 287.74C398.182 286.282 406.551 285.017 410.701 281.64L410.675 280.939C406.318 278.122 390.907 274.795 385.823 275.703ZM470.133 282.291L469.2 284C470.905 287.281 478.952 289.526 482.232 291.95L489.779 289.695C490.733 289.418 491.629 289.255 492.437 288.658C492.218 288.645 491.998 288.637 491.779 288.618C491.419 288.586 491.062 288.532 490.704 288.487L490.552 287.827Q480.418 284.781 470.133 282.291ZM412.223 287.561C408.554 288.458 403.685 288.994 400.417 290.846L400.241 291.357C401.091 291.876 401.837 292.22 402.784 292.527C405.172 293.123 411.394 292.978 413.45 291.47C414.051 291.029 414.02 291.003 414.399 290.486C414.218 289.111 413.965 288.861 413.109 287.743L412.223 287.561ZM460.447 288.075C453.376 290.154 448.476 289.906 441.63 290.954C432.54 292.347 423.25 294.012 414.325 296.236C420.766 298.716 427.271 301.155 433.889 303.128C436.128 303.772 438.495 304.576 440.844 304.554C450.442 304.465 468.003 298.349 477.189 295.031C474.111 293.374 463.333 287.475 460.447 288.075ZM389.722 292.215C387.5 307.892 387.293 323.737 387.691 339.546Q394.298 342.339 400.979 344.948C402.938 341.619 402.467 304.094 402.687 297.333C398.401 295.391 394.261 293.515 389.722 292.215ZM494.566 293.004L483.339 296.837C483.354 303.609 482.157 338.643 483.779 342.091L485.257 341.979L496.866 338.758C496.923 332.552 498.206 296.886 496.512 293.289C495.657 292.916 495.573 292.921 494.566 293.004ZM328.086 298.079C324.815 303.2 321.054 307.291 316.75 311.567C318.676 320.768 319.612 330.139 321.535 339.312C326.692 338.881 331.937 338.628 337.053 337.852L342.206 336.82C346.251 327.435 345.812 323.417 347.883 313.997C348.584 310.81 350.633 307.152 349.597 303.879C345.684 300.377 333.584 299.098 328.086 298.079ZM534.282 304.768C533.768 311.989 534.405 323.813 528.697 328.966C525.617 331.746 521.374 333.562 517.699 335.408C507.467 340.547 497.189 345.039 486.158 348.197C481.994 349.389 477.67 350 473.534 351.266C464.521 354.023 455.869 357.427 446.624 359.472C438.317 361.309 429.738 361.694 421.46 363.61C411.844 365.837 402.999 369.799 393.09 370.756C394.245 376.565 395.322 382.413 395.712 388.332C406.513 387.128 416.827 387.229 427.647 388.015C431.211 388.043 435.017 388.269 438.547 387.805C443.278 387.182 467.369 381.015 470.197 377.423C470.402 377.162 470.556 376.862 470.735 376.582C470.131 375.373 469.792 374.932 468.5 374.429C463.058 372.312 446.525 375.35 444.23 373.549C443.895 372.342 443.916 372.099 444.655 370.964C446.402 368.282 452.599 367.547 455.615 367.344C460.159 367.039 464.661 368.599 469.148 368.114C474.257 367.561 479.334 366.064 484.301 364.788C501.726 360.313 521.582 354.432 533.855 340.496C538.711 334.983 542.695 327.667 542.085 320.124Q542.035 319.575 541.96 319.028Q541.884 318.482 541.782 317.94Q541.681 317.398 541.554 316.861Q541.426 316.324 541.274 315.794Q541.121 315.264 540.944 314.742Q540.766 314.22 540.564 313.707Q540.362 313.194 540.136 312.691Q539.91 312.188 539.66 311.696Q539.41 311.204 539.137 310.725Q538.864 310.246 538.569 309.78Q538.273 309.314 537.956 308.863Q537.639 308.411 537.301 307.976Q536.963 307.54 536.604 307.121Q536.246 306.702 535.868 306.3Q535.49 305.898 535.093 305.515Q534.696 305.132 534.282 304.768ZM353.079 315.818C351.999 322.851 351.43 329.163 348.79 335.883C353.361 340.776 364.715 350.915 371.215 352.599C376.635 354.002 381.417 353.72 386.428 356.74C387.647 359.836 388.417 362.241 391.685 363.68C397.674 366.318 407.407 361.98 413.376 360.297L420.792 358.088C410.25 354.075 358.119 336.305 354.937 328.394C353.646 325.184 355.272 317.746 353.079 315.818ZM345.25 341.107C337.661 343.648 330.286 344.448 322.314 344.521C322.534 348.087 322.96 351.495 323.598 355.01L339.123 353.906C346.602 353.269 354.339 353.085 361.837 353.407C356.266 350.019 351.788 346.76 347.002 342.322C346.466 341.825 345.992 341.133 345.25 341.107ZM193.399 370.12C192.138 374.931 190.561 379.695 189.409 384.524C191.789 386.546 202.465 395.241 204.924 395.29Q207.058 388.22 209.511 381.255C204.358 377.291 198.788 373.761 193.399 370.12ZM213.917 383.633Q211.924 391.043 210.128 398.503C219.69 404.616 229.26 408.748 240.169 411.842C241.835 406.158 242.129 399.727 242.705 393.829C232.722 390.968 223.536 387.453 213.917 383.633ZM247.783 394.82C247.083 400.955 246.46 407.107 245.429 413.198C255.772 415.435 266.561 416.201 277.125 415.986L278.326 415.666C277.938 414.263 268.122 401.713 265.831 396.502C259.799 396.469 253.746 395.704 247.783 394.82ZM188.751 488.706C188.153 490.361 187.866 491.163 188.662 492.79C193.161 501.98 205.871 508.273 214.234 513.448C217.823 541.505 224.253 569.572 230.496 597.145L248.06 674.557C249.391 680.305 251.573 697.051 254.405 701.047C255.692 701.71 256.197 701.538 257.613 701.43C257.965 700.525 258.25 699.767 258.171 698.778C257.862 694.897 256.539 690.663 255.703 686.844Q252.744 673.31 249.631 659.81L238.305 609.182C236.132 599.534 233.58 589.936 231.712 580.225C228.813 565.151 225.536 550.127 222.728 535.047C221.173 526.693 220.487 518.015 218.349 509.806C215.785 507.06 211.432 506.528 208.272 504.426C204.067 501.631 200.289 498.419 196.609 494.98C194.773 493.265 192.791 490.871 190.725 489.517C190.068 489.086 189.481 488.912 188.751 488.706ZM121.384 790.913C116.33 801.676 110.556 812.17 104.949 822.656C101.801 828.543 94.3439 839.699 93.2902 845.861C96.4287 848.39 100.328 850.135 103.763 852.258C109.143 855.582 114.029 859.701 118.476 864.179L120.439 860.257C126.386 849.203 133.428 838.768 140.21 828.22C144.513 821.526 148.556 814.385 153.341 808.036C142.602 802.329 131.631 797.534 121.384 790.913ZM89.74 850.297C84.9264 856.734 79.3454 862.077 73.5591 867.613C76.6346 871.783 95.9922 893.576 100.242 893.781C100.522 893.795 100.802 893.739 101.082 893.718C106.204 892.621 111.255 891.446 116.206 889.701C115.109 882.852 115.039 877.184 116.585 870.394C108.571 862.399 99.9082 855.381 89.74 850.297ZM297.027 851.679C286.138 853.426 274.425 855.652 263.404 854.044C263.681 864.095 264.372 874.13 264.781 884.176C265.05 890.778 264.733 898.092 265.856 904.583C266.08 905.874 266.492 906.729 267.425 907.636C269.859 910.003 274.027 911.21 277.21 912.241C285.479 913.921 293.508 914.476 300.875 909.417C303.856 907.37 306.344 904.59 308.288 901.554C303.435 898.847 300.741 895.887 299.136 890.387C296.613 881.744 297.346 871.573 297.852 862.709C298.032 859.565 298.989 854.78 298.058 851.807L297.027 851.679ZM68.8753 871.823C62.7789 877.158 57.3827 883.476 52.2948 889.769C65.3653 892.831 75.9938 898.858 85.9284 907.915C91.0747 912.607 95.3291 918.14 100.096 923.194C112.015 935.83 127.6 945.915 145.486 946.175C149.762 945.736 153.967 945.12 158.105 943.921L157.601 943.387C153.294 938.891 148.405 937.172 142.812 934.752C126.411 927.656 123.213 910.265 118.003 895.054C111.269 897.391 102.692 901.062 95.7298 897.716C88.7716 894.372 72.6249 872.887 68.8753 871.823ZM47.2307 894.497C45.242 895.444 42.5801 896.628 41.7365 898.821L41.9833 899.323C49.2528 900.265 55.7378 901.232 62.4229 904.448C73.2239 909.643 81.1463 917.934 89.3258 926.415C109.187 947.006 126.352 961.711 156.873 954.75C158.353 954.413 159.723 954.162 160.581 952.739C160.828 952.331 160.854 952.048 160.942 951.612C160.419 950.593 160.487 950.42 159.454 949.807C142.164 953.175 127.561 951.323 112.653 941.215C101.253 933.485 93.7078 923.086 84.0804 913.607C75.0585 904.724 60.3521 894.893 47.2307 894.497ZM313.953 903.171C309.399 910.969 302.472 916.097 293.71 918.351C283.496 920.978 273.809 918.45 264.975 913.093L264.4 912.741C261.144 923.263 256.946 934.376 256.34 945.421C261.612 951.391 268.411 954.415 276.292 954.846C286.909 955.426 296.167 950.914 305.879 947.303Q316.152 944.029 326.611 941.408C339.709 938.251 367.775 934.415 374.185 921.333C375.103 919.46 375.253 917.863 375.12 915.813C374.199 914.416 373.114 913.994 371.535 913.687C366.404 912.69 360.363 913.784 355.139 914.018C340.249 914.685 327.014 909.762 313.953 903.171ZM379.771 921.388C376.633 929.022 369.941 934.329 362.437 937.457C347.715 943.595 331.4 945.77 316.074 950.09C304.481 953.358 293.072 959.19 281.028 960.383C275.275 960.953 268.119 959.311 262.8 957.12C259.877 955.917 257.297 954.285 254.789 952.366C254.323 954.38 253.749 956.424 253.494 958.476C262.147 964.593 274.87 966.948 285.261 965.174C297.87 963.022 309.883 956.314 322.112 952.47C335.768 948.176 350.634 946.345 363.672 940.42C369.082 937.962 374.717 934.532 378.09 929.511C379.378 927.593 380.864 924.909 380.384 922.521C380.227 921.739 380.269 921.918 379.771 921.388Z"/>
	<path fill="#9F8BE8" d="M237.15 51.9007C248.202 44.8108 257.236 41.7406 270.333 40.7133C292.092 40.1998 313.168 49.572 329.077 64.2383C339.591 73.9302 344.334 83.6745 344.94 97.8956C339.947 88.315 335.743 76.6202 327.419 69.3547C325.699 67.8529 323.921 66.5468 321.602 66.6914C319.263 72.019 325.588 77.482 323.848 82.5036L323.375 81.1213L322.214 81.6876C311.814 71.2902 304.558 59.1602 290.702 52.7129C273.086 44.5168 254.977 45.2963 237.15 51.9007Z"/>
	<path fill="#FEFEFE" d="M311.695 112.288C319.273 106.312 325.855 99.8381 328.895 90.4512C329.804 91.5335 329.983 94.5568 330.188 96.0383C331.284 103.955 330.697 112.951 328.488 120.636C326.902 126.156 324.209 132.438 324.369 138.225C324.485 142.385 327.011 146.923 328.667 150.679C326.302 151.839 323.841 152.863 321.437 153.941C320.239 158.207 318.233 162.181 315.989 165.985C312.49 171.915 308.218 177.907 301.118 179.584C290.27 182.146 277.411 176.891 268.279 171.443Q268.648 167.521 268.937 163.592C266.932 150.805 258.657 143.579 257.289 134.343C256.911 131.789 257.395 128.881 257.634 126.314C269.142 126.483 280.087 125.984 291.148 122.405C295.375 121.038 299.699 118.417 304.074 117.828C309.794 117.059 315.605 119.094 321.241 118.298C322.25 117.482 322.056 117.502 322.335 116.326C322.191 115.931 322.143 115.702 321.825 115.362C319.629 113.014 314.707 112.74 311.695 112.288ZM299.479 125.875C298.578 127.328 297.951 128.378 297.714 130.085C298.107 131.314 298.237 131.832 299.482 132.49C300.223 132.882 301.439 132.982 302.276 133.135C303.35 131.979 304.116 131.119 304.183 129.457C304.229 128.314 303.806 127.347 302.958 126.576C302.01 125.716 300.65 125.85 299.479 125.875ZM315.269 127.725C313.474 131.279 312.814 137.431 314.287 141.178C314.93 142.812 316.063 143.154 317.6 143.781C319.033 142.165 318.949 140.898 319.13 138.816C319.418 135.496 319.935 131.584 318.158 128.578C317.153 127.871 316.478 127.821 315.269 127.725ZM297.165 152.706C295.905 154.545 295.629 155.748 296.115 157.953C296.817 161.14 299.019 163.566 301.749 165.227C303.654 166.387 305.662 167.163 307.886 166.606C308.523 166.447 309.146 166.243 309.768 166.037C310.77 164.958 311.329 164.675 311.492 163.182C309.909 160.804 305.152 160.735 302.559 159.76C301.785 157.494 301.412 154.859 299.684 153.142C298.836 152.946 298.033 152.779 297.165 152.706Z"/>
	<path fill="#D9D4FB" d="M188.514 105.713C188.518 114.627 187.531 129.022 189.04 137.192C189.003 140.483 189.105 143.591 189.558 146.853Q189.418 162.741 189.517 178.629C189.508 184.074 188.773 190.771 189.82 196.039C187.188 203.775 184.892 211.416 183.476 219.49C178.232 249.387 178.927 297.101 182.158 326.944Q183.451 338.043 185.082 349.097C186.004 355.111 187.885 361.891 187.428 367.951C186.57 379.345 180.804 390.627 177.855 401.612C153.754 407.338 129.96 415.12 106.095 421.83C105.567 376.477 106.098 331.054 106.212 285.695L106.435 126.752C117.261 123.385 128.766 121.287 139.773 118.466C156.037 114.297 172.163 109.53 188.514 105.713Z"/>
	<path d="M302.276 133.135C301.439 132.982 300.223 132.882 299.482 132.49C298.237 131.832 298.107 131.314 297.714 130.085C297.951 128.378 298.578 127.328 299.479 125.875C300.65 125.85 302.01 125.716 302.958 126.576C303.806 127.347 304.229 128.314 304.183 129.457C304.116 131.119 303.35 131.979 302.276 133.135Z"/>
	<path d="M317.6 143.781C316.063 143.154 314.93 142.812 314.287 141.178C312.814 137.431 313.474 131.279 315.269 127.725C316.478 127.821 317.153 127.871 318.158 128.578C319.935 131.584 319.418 135.496 319.13 138.816C318.949 140.898 319.033 142.165 317.6 143.781Z"/>
	<path fill="#D9D4FB" d="M0 154.228C26.4227 147.955 52.5114 140.483 78.8887 134.071L79.1098 428.733Q51.8908 436.856 24.4949 444.362C16.377 446.633 8.20084 449.433 0 451.303L0 154.228Z"/>
	<path fill="#9F8BE8" d="M189.558 146.853C192.45 156.741 197.029 164.761 204.333 172.104C197.976 179.372 193.896 187.34 189.82 196.039C188.773 190.771 189.508 184.074 189.517 178.629Q189.418 162.74 189.558 146.853Z"/>
	<path d="M309.768 166.037C309.146 166.243 308.523 166.447 307.886 166.606C305.662 167.163 303.654 166.387 301.749 165.227C299.019 163.566 296.817 161.14 296.115 157.953C295.629 155.748 295.905 154.545 297.165 152.706C298.033 152.779 298.836 152.946 299.684 153.142C301.412 154.859 301.785 157.494 302.559 159.76C305.152 160.735 309.909 160.804 311.492 163.182C311.329 164.675 310.77 164.958 309.768 166.037Z"/>
	<path fill="#FEFEFE" d="M246.335 188.957C254.811 186.539 260.895 183.799 265.787 175.968C268.858 177.929 271.889 179.965 275.172 181.56C276.42 184.772 278.336 187.284 280.386 190.012C274.478 191.999 269.139 193.042 262.877 192.717C257.144 192.52 251.543 191.371 246.335 188.957Z"/>
	<path fill="#FEFEFE" d="M187.383 229.922C189.785 210.668 194.888 191.062 208.093 176.188C217.056 184.766 226.981 186.859 238.783 189.049C246.099 196.089 255.928 198.396 265.869 198.2C271.893 198.082 277.621 196.816 283.376 195.131C295.317 213.034 320.474 250.938 326.151 270.422C327.467 274.939 327.907 279.524 326.998 284.179C325.384 292.437 320.624 300.084 315.556 306.66C308.572 283.082 300.335 229.32 278.232 217.053C273.373 214.356 267.118 213.344 261.774 215.092C254.6 217.438 249.53 224.283 246.371 230.843C236.172 252.022 243.045 284.059 246.783 306.556C241.615 308.444 237.881 310.645 235.544 315.955C233.523 320.546 233.314 326.127 235.278 330.773C237.283 335.515 241.026 338.619 245.773 340.379C246.163 340.523 246.559 340.651 246.954 340.78L251.813 339.591C253.604 350.901 255.444 361.975 258.321 373.073C257.891 376.183 255.842 378.702 255.408 381.641C255.048 384.074 255.808 387.199 255.882 389.703C255.238 390.04 254.839 390.196 254.113 390.372C229.427 385.551 212.864 378.585 193.264 362.443C190.183 350.697 189.041 338.882 187.726 326.852C187.76 326.587 187.753 326.313 187.829 326.056C188.26 324.603 192.331 323.605 193.657 323.118C194.903 321.629 196.06 320.01 196.743 318.182Q197.049 317.353 197.27 316.497Q197.49 315.642 197.623 314.768Q197.756 313.894 197.801 313.012Q197.845 312.129 197.8 311.247Q197.755 310.364 197.621 309.491Q197.487 308.617 197.265 307.762Q197.044 306.906 196.737 306.077Q196.431 305.249 196.042 304.455C193.947 300.26 190.279 297.682 185.937 296.158C185.224 284.668 185.394 273.062 185.505 261.554C185.92 261.46 186.337 261.369 186.746 261.253C190.256 260.257 192.784 257.559 194.443 254.387C196.945 249.604 197.237 244.146 195.419 239.084C193.963 235.031 191.327 231.705 187.383 229.922ZM214.569 199.573C210.154 201.997 207.25 204.867 205.787 209.82C204.56 213.978 204.919 218.957 207.018 222.785C208.543 225.566 211.077 227.411 214.112 228.26C215.731 228.713 217.255 228.621 218.905 228.477C223.394 225.847 226.306 222.928 227.703 217.712C228.849 213.431 228.499 208.014 226.052 204.223C224.447 201.737 221.688 199.909 218.747 199.482C217.381 199.284 215.937 199.453 214.569 199.573ZM215.34 267.498C210.965 268.938 208.191 270.752 206.163 275.037C204.159 279.272 204.119 284.385 205.834 288.719C207.161 292.07 210.043 295.57 213.532 296.809C214.721 297.231 216.013 297.412 217.262 297.537C221.298 296.505 224.11 294.998 226.235 291.27C228.415 287.444 228.539 282.741 227.323 278.579C226.127 274.485 223.564 270.651 219.692 268.666C218.339 267.972 216.838 267.667 215.34 267.498ZM211.545 336.08C207.398 338.057 204.532 340.21 203.027 344.752C201.688 348.793 202.306 353.6 204.231 357.35C205.987 360.768 209.079 363.441 212.824 364.426C214.296 364.814 215.941 364.835 217.451 364.71C221.576 362.62 224.196 360.174 225.72 355.697C227.106 351.627 226.85 346.919 224.895 343.076C223.225 339.791 220.273 337.269 216.687 336.325C215.036 335.891 213.235 335.95 211.545 336.08Z"/>
	<path fill="#9F8BE8" d="M218.905 228.477C217.255 228.621 215.731 228.713 214.112 228.26C211.077 227.411 208.543 225.566 207.018 222.785C204.919 218.957 204.56 213.978 205.787 209.82C207.25 204.867 210.154 201.997 214.569 199.573C215.937 199.453 217.381 199.284 218.747 199.482C221.688 199.909 224.447 201.737 226.052 204.223C228.499 208.014 228.849 213.431 227.703 217.712C226.306 222.928 223.394 225.847 218.905 228.477Z"/>
	<path fill="#FEFEFE" d="M251.816 304.093C247.636 280.942 239.914 248.799 254.271 227.896C256.986 223.943 261.129 220.166 266.02 219.364C270.03 218.706 273.928 220.304 277.076 222.709C285.204 228.921 290.162 239.833 293.897 249.042C300.268 264.747 304.044 281.743 307.847 298.225C311.416 313.691 315.019 329.112 316.813 344.907C317.328 349.433 316.823 356.073 319.554 359.791C324.889 361.559 340.375 359.505 346.751 359.194C357.847 358.653 370.013 357.772 381.003 359.307C388.971 371.649 391.752 388.092 388.625 402.471C388.276 404.074 387.899 405.691 387.427 407.264C370.883 411.102 353.662 413.179 336.796 415.061C325.596 416.311 313.699 417.995 302.423 416.991C295.923 416.413 289.018 414.821 283.437 411.312C275.9 406.574 271.928 397.372 268.752 389.43C270.137 388.797 271.562 388.11 272.875 387.338C277.101 384.855 280.692 381.064 281.811 376.174C282.83 371.718 281.794 366.454 279.227 362.677C277.43 360.033 274.805 358.212 271.624 357.712C267.19 357.015 264.715 359.278 261.298 361.646C259.137 352.324 257.233 342.149 256.444 332.605C256.06 325.562 258.526 318.91 256.901 311.754C256.12 308.316 254.82 305.952 251.816 304.093ZM268.439 248.597C263.917 249.672 260.733 251.314 258.147 255.318C255.462 259.477 254.468 265.232 255.699 270.04Q255.869 270.726 256.11 271.39Q256.351 272.054 256.66 272.689Q256.97 273.324 257.345 273.922Q257.72 274.521 258.156 275.077Q258.592 275.632 259.085 276.139Q259.577 276.646 260.12 277.097Q260.663 277.549 261.251 277.941Q261.838 278.333 262.464 278.661C264.332 279.652 266.26 279.922 268.333 280.15C272.814 278.895 275.909 276.754 278.232 272.63C280.753 268.155 281.248 262.602 279.739 257.706C278.683 254.281 276.607 251.486 273.42 249.777C271.82 248.918 270.225 248.706 268.439 248.597ZM289.086 308.015C284.575 310.073 282.041 312.242 280.173 317.015C278.145 322.197 278.001 328.906 280.347 334.009C281.652 336.847 283.782 339.051 286.773 340.068C288.632 340.7 290.351 340.494 292.257 340.232C296.873 338.091 299.861 335.004 301.636 330.178C303.422 325.323 303.198 319.6 300.95 314.928C299.491 311.895 296.934 309.327 293.683 308.277C292.188 307.795 290.629 307.924 289.086 308.015ZM311.217 371.11C305.612 372.893 301.055 375.888 298.305 381.276C296.625 384.569 295.915 388.643 297.076 392.22C297.915 394.805 299.737 396.805 302.211 397.923C305.232 399.286 308.737 399.214 311.959 398.778C317.315 397.225 321.541 395.131 324.371 390.015C326.262 386.596 327.039 382.337 325.962 378.532C325.209 375.868 323.482 373.69 321.041 372.378C317.898 370.689 314.658 370.856 311.217 371.11ZM360.203 376.116C353.643 377.247 347.47 380.115 343.624 385.809C341.611 388.789 340.506 392.382 341.209 395.974C341.733 398.649 343.238 400.923 345.554 402.376C348.845 404.44 352.35 404.707 356.107 404.603C362.583 403.018 367.811 400.428 371.373 394.457C373.428 391.012 374.514 386.458 373.318 382.534C372.623 380.255 371.105 378.507 369 377.406C366.173 375.927 363.304 375.873 360.203 376.116Z"/>
	<path fill="#9F8BE8" d="M187.383 229.922C191.327 231.705 193.963 235.031 195.419 239.084C197.237 244.146 196.945 249.604 194.443 254.387C192.784 257.559 190.256 260.257 186.746 261.253C186.337 261.369 185.92 261.46 185.505 261.554C185.44 250.969 186.33 240.445 187.383 229.922Z"/>
	<path fill="#FEFEFE" d="M417.321 282.538C417.555 272.137 419.218 260.916 421.539 250.782C423.181 243.617 424.971 236.101 431.577 231.968C432.466 231.866 433.324 231.847 434.215 231.931C436.369 232.134 438.075 233.05 439.442 234.731C445.455 242.121 443.309 256.387 442.364 265.129C442.066 261.652 441.712 258.123 441.101 254.688C440.417 250.846 438.371 241.196 434.811 239.136C434.136 238.745 433.786 239.01 433.085 239.17C429.144 242.75 426.206 254.074 424.357 259.436C421.644 269.944 421.692 278.49 425.147 288.806C422.273 286.919 419.753 284.964 417.321 282.538Z"/>
	<path fill="#FEFEFE" d="M658.855 236.018C652.344 242.225 633.331 255.936 624.806 255.961C623.667 255.965 624.11 256.103 623.281 255.269C623.574 253.869 623.766 253.686 624.747 252.624C637 249.244 647.492 241.181 657.471 233.625L658.855 236.018Z"/>
	<path fill="#9F8BE8" d="M661.771 239.305L662.388 240.057C665.32 243.571 669.075 246.526 672.246 249.841C677.982 255.838 683.24 262.78 688.053 269.551C715.783 308.566 732.802 365.715 728.998 413.606C727.456 433.024 722.799 457.411 707.237 470.816C702.523 474.876 696.283 477.875 689.941 477.471C684.418 477.118 679.818 474.18 676.331 470.012L674.525 467.811C670.247 480.888 665.864 496.506 652.625 503.384C647.789 505.897 642.469 506.745 637.219 505.079C630.988 503.102 627.149 497.424 623.356 492.482C622.291 485.743 623.183 477.829 623.253 470.955L623.525 426.884C623.558 372.259 623.081 317.605 623.761 262.984C635.217 259.165 655.741 250.382 661.771 239.305ZM651.794 251.8C651.349 253.293 650.894 253.961 651.577 255.485C653.324 259.391 658.451 263.105 661.088 266.697C669.587 278.276 675.751 292.431 679.937 306.154Q682.969 316.147 685.246 326.338C686.129 330.246 686.616 334.87 688.026 338.588C688.387 339.541 688.729 340.079 689.753 340.426C690.514 340.683 691.696 340.614 692.51 340.644C694.813 332.119 683.264 297.971 679.334 288.358Q676.087 280.434 671.811 273.015C668.743 267.688 660.085 253.48 653.754 251.952C653.144 251.805 652.411 251.819 651.794 251.8ZM651.832 295.655C650.022 300.851 649.655 306.972 649.131 312.453Q648.641 317.594 648.374 322.752Q648.107 327.909 648.065 333.073Q648.023 338.238 648.206 343.399Q648.388 348.56 648.794 353.709Q649.201 358.857 649.831 363.983Q650.461 369.109 651.313 374.202Q652.165 379.296 653.238 384.348Q654.311 389.4 655.602 394.4C656.765 399.029 657.78 404.063 659.884 408.365C660.525 409.676 661.117 410.527 662.274 411.409C663.11 411.576 663.898 411.734 664.749 411.802C665.229 410.743 665.629 409.912 665.483 408.729C664.926 404.198 662.928 399.227 661.711 394.796C659.653 387.31 657.876 379.533 656.661 371.863C652.751 347.172 652.832 322.551 656.186 297.829C655.515 296.726 655.005 296.334 653.741 295.953C653.14 295.773 652.449 295.727 651.832 295.655Z"/>
	<path fill="#FEFEFE" d="M448.611 261.833C457.319 256.027 461.368 247.911 472.472 245.597C473.821 245.768 474.894 246.068 476.014 246.845C478.055 248.261 479.497 250.173 479.912 252.658C481.223 260.513 477.028 266.331 472.793 272.416C474.957 266.944 476.562 260.201 473.927 254.574C473.143 252.899 471.924 251.613 470.076 251.128C467.446 250.438 464.671 251.74 462.358 252.853C456.133 257.157 451.489 264.142 446.949 270.082C447.76 267.235 448.436 264.817 448.611 261.833Z"/>
	<path fill="#9F8BE8" d="M268.333 280.15C266.26 279.922 264.332 279.652 262.464 278.661Q261.838 278.333 261.251 277.941Q260.663 277.549 260.12 277.097Q259.577 276.646 259.085 276.139Q258.592 275.632 258.156 275.077Q257.72 274.521 257.345 273.922Q256.97 273.324 256.66 272.689Q256.351 272.054 256.11 271.39Q255.869 270.726 255.699 270.04C254.468 265.232 255.462 259.477 258.147 255.318C260.733 251.314 263.917 249.672 268.439 248.597C270.225 248.706 271.82 248.918 273.42 249.777C276.607 251.486 278.683 254.281 279.739 257.706C281.248 262.602 280.753 268.155 278.232 272.63C275.909 276.754 272.814 278.895 268.333 280.15Z"/>
	<path d="M692.51 340.644C691.696 340.614 690.514 340.683 689.753 340.426C688.729 340.079 688.387 339.541 688.026 338.588C686.616 334.87 686.129 330.246 685.246 326.338Q682.969 316.147 679.937 306.154C675.751 292.431 669.587 278.276 661.088 266.697C658.451 263.105 653.324 259.391 651.577 255.485C650.894 253.961 651.349 253.293 651.794 251.8C652.411 251.819 653.144 251.805 653.754 251.952C660.085 253.48 668.743 267.688 671.811 273.015Q676.087 280.434 679.334 288.358C683.264 297.971 694.813 332.119 692.51 340.644Z"/>
	<path fill="#FFCE87" d="M475.622 277.582C478.836 273.61 481.47 269.53 483.887 265.029Q494.341 267.454 504.586 270.646Q514.832 273.839 524.813 277.781C520.849 278.999 516.908 280.299 512.959 281.566C508.611 282.884 504.311 284.24 500.04 285.797C491.967 282.874 483.557 280.897 475.622 277.582Z"/>
	<path fill="#FEFEFE" d="M390.192 270.553C388.232 270.601 386.301 270.871 384.639 269.742C384.111 268.19 384.647 266.835 385.043 265.313C386.322 265.88 387.657 266.697 388.708 267.627C389.631 268.444 390.134 269.312 390.192 270.553Z"/>
	<path fill="#FFCE87" d="M396.814 269.92C401.958 269.112 406.951 267.897 412 266.65L412.234 266.938C412.619 269.5 411.997 272.28 411.672 274.837C408.324 274.144 405.123 273.289 401.867 272.248L396.814 269.92Z"/>
	<path fill="#9F8BE8" d="M217.262 297.537C216.013 297.412 214.721 297.231 213.532 296.809C210.043 295.57 207.161 292.07 205.834 288.719C204.119 284.385 204.159 279.272 206.163 275.037C208.191 270.752 210.965 268.938 215.34 267.498C216.838 267.667 218.339 267.972 219.692 268.666C223.564 270.651 226.127 274.485 227.323 278.579C228.539 282.741 228.415 287.444 226.235 291.27C224.11 294.998 221.298 296.505 217.262 297.537Z"/>
	<path fill="#FFCE87" d="M366.499 278.79C372.858 277.244 379.325 276.381 385.823 275.703C390.907 274.795 406.318 278.122 410.675 280.939L410.701 281.64C406.551 285.017 398.182 286.282 393.033 287.74C384.038 285.333 375.26 281.93 366.499 278.79Z"/>
	<path fill="#FEFEFE" d="M530.296 286.68C520.97 289.959 511.509 293.624 502.015 296.371C501.906 294.726 501.478 292.778 502.359 291.312C507.195 288.847 525.026 283.378 530.369 282.111C530.792 283.629 530.476 285.142 530.296 286.68Z"/>
	<path fill="#FEFEFE" d="M482.232 291.95C478.952 289.526 470.905 287.281 469.2 284L470.133 282.291Q480.418 284.781 490.552 287.827L490.704 288.487C491.062 288.532 491.419 288.586 491.779 288.618C491.998 288.637 492.218 288.645 492.437 288.658C491.629 289.255 490.733 289.418 489.779 289.695L482.232 291.95Z"/>
	<path fill="#FEFEFE" d="M360.794 287.394C360.871 286.002 360.695 283.996 361.451 282.86C366.36 283.881 380.387 289.135 384.932 291.5C385.563 293.016 385.033 294.686 384.699 296.28Q372.881 291.474 360.794 287.394Z"/>
	<path fill="#9F8BE8" d="M502.015 296.371C511.509 293.624 520.97 289.959 530.296 286.68C528.931 298.961 528.435 311.345 527.044 323.612C519.952 328.738 510.472 333.588 502.11 336.244C501.306 323.006 503.333 309.475 502.015 296.371Z"/>
	<path fill="#9F8BE8" d="M360.794 287.394Q372.881 291.474 384.699 296.28C382.139 307.662 382.698 325.614 382.828 337.511C377.034 334.796 364.871 331.02 360.746 326.46C358.062 323.492 360.577 292.947 360.794 287.394Z"/>
	<path fill="#FEFEFE" d="M402.784 292.527C401.837 292.22 401.091 291.876 400.241 291.357L400.417 290.846C403.685 288.994 408.554 288.458 412.223 287.561L413.109 287.743C413.965 288.861 414.218 289.111 414.399 290.486C414.02 291.003 414.051 291.029 413.45 291.47C411.394 292.978 405.172 293.123 402.784 292.527Z"/>
	<path fill="#FFCE87" d="M414.325 296.236C423.25 294.012 432.54 292.347 441.63 290.954C448.476 289.906 453.376 290.154 460.447 288.075C463.333 287.475 474.111 293.374 477.189 295.031C468.003 298.349 450.442 304.465 440.844 304.554C438.495 304.576 436.128 303.772 433.889 303.128C427.271 301.155 420.766 298.716 414.325 296.236Z"/>
	<path fill="#FEFEFE" d="M387.691 339.546C387.293 323.737 387.5 307.892 389.722 292.215C394.261 293.515 398.401 295.391 402.687 297.333C402.467 304.094 402.938 341.619 400.979 344.948Q394.298 342.339 387.691 339.546Z"/>
	<path fill="#FEFEFE" d="M483.339 296.837L494.566 293.004C495.573 292.921 495.657 292.916 496.512 293.289C498.206 296.886 496.923 332.552 496.866 338.758L485.257 341.979L483.779 342.091C482.157 338.643 483.354 303.609 483.339 296.837Z"/>
	<path fill="#9F8BE8" d="M185.937 296.158C190.279 297.682 193.947 300.26 196.042 304.455Q196.431 305.249 196.737 306.077Q197.044 306.906 197.265 307.762Q197.487 308.617 197.621 309.491Q197.755 310.364 197.8 311.247Q197.845 312.129 197.801 313.012Q197.756 313.894 197.623 314.768Q197.49 315.642 197.27 316.497Q197.049 317.353 196.743 318.182C196.06 320.01 194.903 321.629 193.657 323.118C192.331 323.605 188.26 324.603 187.829 326.056C187.753 326.313 187.76 326.587 187.726 326.852C185.924 320.365 186.194 303.886 185.937 296.158Z"/>
	<path d="M664.749 411.802C663.898 411.734 663.11 411.576 662.274 411.409C661.117 410.527 660.525 409.676 659.884 408.365C657.78 404.063 656.765 399.029 655.602 394.4Q654.311 389.4 653.238 384.348Q652.165 379.296 651.313 374.202Q650.461 369.109 649.831 363.983Q649.201 358.857 648.795 353.709Q648.388 348.56 648.206 343.399Q648.023 338.238 648.065 333.073Q648.107 327.909 648.374 322.752Q648.641 317.594 649.131 312.453C649.655 306.972 650.022 300.851 651.832 295.655C652.449 295.727 653.14 295.773 653.741 295.953C655.005 296.334 655.515 296.726 656.186 297.829C652.832 322.551 652.751 347.172 656.661 371.863C657.876 379.533 659.653 387.31 661.711 394.796C662.928 399.227 664.926 404.198 665.483 408.729C665.629 409.912 665.229 410.743 664.749 411.802Z"/>
	<path fill="#FEFEFE" d="M316.75 311.567C321.054 307.291 324.815 303.2 328.086 298.079C333.584 299.098 345.684 300.377 349.597 303.879C350.633 307.152 348.584 310.81 347.883 313.997C345.812 323.417 346.251 327.435 342.206 336.82L337.053 337.852C331.937 338.628 326.692 338.881 321.535 339.312C319.612 330.139 318.676 320.768 316.75 311.567Z"/>
	<path fill="#FEFEFE" d="M407.415 305.226C407.461 303.72 407.238 301.486 408.166 300.278C412.175 301.251 436.13 308.822 437.772 310.908L437.867 311.918C434.465 313.199 412.003 306.592 407.415 305.226Z"/>
	<path fill="#FEFEFE" d="M478.526 306.736C471.483 308.442 449.305 315.544 443.151 314.348C442.745 313.196 442.659 312.277 442.583 311.072C454.7 307.892 466.622 304.522 478.47 300.436L478.526 306.736Z"/>
	<path fill="#9F8BE8" d="M251.816 304.093C254.82 305.952 256.12 308.316 256.901 311.754C258.526 318.91 256.06 325.562 256.444 332.605C254.65 323.156 253.291 313.598 251.816 304.093Z"/>
	<path fill="#FEFEFE" d="M393.09 370.756C402.999 369.799 411.844 365.837 421.46 363.61C429.738 361.694 438.317 361.309 446.624 359.472C455.869 357.427 464.521 354.023 473.534 351.266C477.67 350 481.994 349.389 486.158 348.197C497.189 345.039 507.467 340.547 517.699 335.408C521.374 333.562 525.617 331.746 528.697 328.966C534.405 323.813 533.768 311.989 534.282 304.768Q534.696 305.132 535.093 305.515Q535.49 305.898 535.868 306.3Q536.246 306.702 536.604 307.121Q536.963 307.54 537.301 307.976Q537.639 308.411 537.956 308.863Q538.273 309.314 538.569 309.78Q538.864 310.246 539.137 310.725Q539.41 311.204 539.66 311.696Q539.91 312.188 540.136 312.691Q540.362 313.194 540.564 313.707Q540.766 314.22 540.944 314.742Q541.121 315.264 541.274 315.794Q541.426 316.324 541.554 316.861Q541.681 317.398 541.782 317.94Q541.884 318.482 541.96 319.028Q542.035 319.575 542.085 320.124C542.695 327.667 538.711 334.983 533.855 340.496C521.582 354.432 501.726 360.313 484.301 364.788C479.334 366.064 474.257 367.561 469.148 368.114C464.661 368.599 460.159 367.039 455.615 367.344C452.599 367.547 446.402 368.282 444.655 370.964C443.916 372.099 443.895 372.342 444.23 373.549C446.525 375.35 463.058 372.312 468.5 374.429C469.792 374.932 470.131 375.373 470.735 376.582C470.556 376.862 470.402 377.162 470.197 377.423C467.369 381.015 443.278 387.182 438.547 387.805C435.017 388.269 431.211 388.043 427.647 388.015C416.827 387.229 406.513 387.128 395.712 388.332C395.322 382.413 394.245 376.565 393.09 370.756Z"/>
	<path fill="#9F8BE8" d="M407.415 305.226C412.003 306.592 434.465 313.199 437.867 311.918C437.443 325.979 437.184 340.339 437.834 354.392C425.455 355.505 418.602 350.198 407.291 346.913L406.524 346.694C406.964 332.887 406.597 319.009 407.415 305.226Z"/>
	<path fill="#9F8BE8" d="M246.783 306.556C248.308 317.599 250.183 328.568 251.813 339.591L246.954 340.78C246.559 340.651 246.163 340.523 245.773 340.379C241.026 338.619 237.283 335.515 235.278 330.773C233.314 326.127 233.523 320.546 235.544 315.955C237.881 310.645 241.615 308.444 246.783 306.556Z"/>
	<path fill="#9F8BE8" d="M442.583 311.072C442.659 312.277 442.745 313.196 443.151 314.348C449.305 315.544 471.483 308.442 478.526 306.736L478.453 343.608C466.424 346.795 454.49 350.363 442.424 353.399C442.439 339.305 442.206 325.159 442.583 311.072Z"/>
	<path fill="#9F8BE8" d="M292.257 340.232C290.351 340.494 288.632 340.7 286.773 340.068C283.782 339.051 281.652 336.847 280.347 334.009C278.001 328.906 278.145 322.197 280.173 317.015C282.041 312.242 284.575 310.073 289.086 308.015C290.629 307.924 292.188 307.795 293.683 308.277C296.934 309.327 299.491 311.895 300.95 314.928C303.198 319.6 303.422 325.323 301.636 330.178C299.861 335.004 296.873 338.091 292.257 340.232Z"/>
	<path fill="#FEFEFE" d="M348.79 335.883C351.43 329.163 351.999 322.851 353.079 315.818C355.272 317.746 353.646 325.184 354.937 328.394C358.119 336.305 410.25 354.075 420.792 358.088L413.376 360.297C407.407 361.98 397.674 366.318 391.685 363.68C388.417 362.241 387.647 359.836 386.428 356.74C381.417 353.72 376.635 354.002 371.215 352.599C364.715 350.915 353.361 340.776 348.79 335.883Z"/>
	<path fill="#9F8BE8" d="M217.451 364.71C215.941 364.835 214.296 364.814 212.824 364.426C209.079 363.441 205.987 360.768 204.231 357.35C202.306 353.6 201.688 348.793 203.027 344.752C204.532 340.21 207.398 338.057 211.545 336.08C213.235 335.95 215.036 335.891 216.687 336.325C220.273 337.269 223.225 339.791 224.895 343.076C226.85 346.919 227.106 351.627 225.72 355.697C224.196 360.174 221.576 362.62 217.451 364.71Z"/>
	<path fill="#D9D4FB" d="M322.314 344.521C330.286 344.448 337.661 343.648 345.25 341.107C345.992 341.133 346.466 341.825 347.002 342.322C351.788 346.76 356.266 350.019 361.837 353.407C354.339 353.085 346.602 353.269 339.123 353.906L323.598 355.01C322.96 351.495 322.534 348.087 322.314 344.521Z"/>
	<path fill="#9F8BE8" d="M261.298 361.646C264.715 359.278 267.19 357.015 271.624 357.712C274.805 358.212 277.43 360.033 279.227 362.677C281.794 366.454 282.83 371.718 281.811 376.174C280.692 381.064 277.101 384.855 272.875 387.338C271.562 388.11 270.137 388.797 268.752 389.43C265.544 380.507 263.146 370.941 261.298 361.646Z"/>
	<path fill="#FEFEFE" d="M189.409 384.524C190.561 379.695 192.138 374.931 193.399 370.12C198.788 373.761 204.358 377.291 209.511 381.255Q207.058 388.22 204.924 395.29C202.465 395.241 191.789 386.546 189.409 384.524Z"/>
	<path fill="#9F8BE8" d="M311.959 398.778C308.737 399.214 305.232 399.286 302.211 397.923C299.737 396.805 297.915 394.805 297.076 392.22C295.915 388.643 296.625 384.569 298.305 381.276C301.055 375.888 305.612 372.893 311.217 371.11C314.658 370.856 317.898 370.689 321.041 372.378C323.482 373.69 325.209 375.868 325.962 378.532C327.039 382.337 326.262 386.596 324.371 390.015C321.541 395.131 317.315 397.225 311.959 398.778Z"/>
	<path fill="#9F8BE8" d="M258.321 373.073C259.123 379.29 261.431 385.2 263.518 391.076L254.113 390.372C254.839 390.196 255.238 390.04 255.882 389.703C255.808 387.199 255.048 384.074 255.408 381.641C255.842 378.702 257.891 376.183 258.321 373.073Z"/>
	<path fill="#9F8BE8" d="M356.107 404.603C352.35 404.707 348.845 404.44 345.554 402.376C343.238 400.923 341.733 398.649 341.209 395.974C340.506 392.382 341.611 388.789 343.624 385.809C347.47 380.115 353.643 377.247 360.203 376.116C363.304 375.873 366.173 375.927 369 377.406C371.105 378.507 372.623 380.255 373.318 382.534C374.514 386.458 373.428 391.012 371.373 394.457C367.811 400.428 362.583 403.018 356.107 404.603Z"/>
	<path fill="#FEFEFE" d="M210.128 398.503Q211.924 391.043 213.917 383.633C223.536 387.453 232.722 390.968 242.705 393.829C242.129 399.727 241.835 406.158 240.169 411.842C229.26 408.748 219.69 404.616 210.128 398.503Z"/>
	<path fill="#FEFEFE" d="M245.429 413.198C246.46 407.107 247.083 400.955 247.783 394.82C253.746 395.704 259.799 396.469 265.831 396.502C268.122 401.713 277.938 414.263 278.326 415.666L277.125 415.986C266.561 416.201 255.772 415.435 245.429 413.198Z"/>
	<path fill="#D9D4FB" d="M0 476.352C18.4784 471.502 36.664 465.81 54.9997 460.473L122.352 441.289L152.743 432.623C158.339 431.02 163.99 429.1 169.663 427.831C170.539 427.635 170.973 427.622 171.822 427.895C162.895 482.492 162.126 538.6 162.459 593.837Q162.466 610.319 163.069 626.791C163.593 641.774 164.702 657.244 162.233 672.101C134.477 678.2 107 685.712 79.3979 692.478C52.9774 698.955 26.3569 704.71 0 711.41L0 476.352Z"/>
	<path fill="#FEFEFE" d="M214.234 513.448C205.871 508.273 193.161 501.98 188.662 492.79C187.866 491.163 188.153 490.361 188.751 488.706C189.481 488.912 190.068 489.086 190.725 489.517C192.791 490.871 194.773 493.265 196.609 494.98C200.289 498.419 204.067 501.631 208.272 504.426C211.432 506.528 215.785 507.06 218.349 509.806C220.487 518.015 221.173 526.693 222.728 535.047C225.536 550.127 228.813 565.151 231.712 580.225C233.58 589.936 236.132 599.534 238.305 609.182L249.631 659.81Q252.744 673.31 255.703 686.844C256.539 690.663 257.862 694.897 258.171 698.778C258.25 699.767 257.965 700.525 257.613 701.43C256.197 701.538 255.692 701.71 254.405 701.047C251.573 697.051 249.391 680.305 248.06 674.557L230.496 597.145C224.253 569.572 217.823 541.505 214.234 513.448Z"/>
	<path fill="#9F8BE8" d="M617.629 605.553L617.445 547.249C617.43 538.304 616.455 528.023 617.862 519.23L617.98 606.584C619.674 607.635 621.315 608.475 623.162 609.224L623.139 596.229C623.892 600.387 623.58 604.976 623.544 609.201L732.507 673.617C740.959 678.719 749.61 683.495 757.99 688.718C776.333 700.152 795.069 710.989 813.324 722.534C824.187 729.404 835.219 735.942 846.162 742.675C851.267 745.816 856.259 749.61 861.625 752.227C841.079 773.773 831.075 790.543 831.754 821.139C832.319 846.589 837.47 872.303 841.861 897.323C842.841 902.908 843.268 910.79 844.752 915.936C845.145 917.299 845.621 918.168 846.6 919.18L847.684 919.518C848.799 918.905 849.219 918.431 849.651 917.204C851.126 913.018 847.587 899.42 846.736 894.384C843.852 877.331 841.1 860.123 839.133 842.942C834.715 804.362 837.745 783.502 866.582 755.362C878.094 744.129 890.432 734.289 904.515 726.449C911.511 722.555 924.653 715.598 932.503 715.151C937.856 714.847 942.87 715.527 948.268 714.796C948.875 724.275 953.095 734.451 960.435 740.752C963.145 743.078 966.366 744.641 970.012 744.312C972.151 744.119 973.764 743.141 975.522 741.99C988.89 760.047 1001.1 778.426 1010.86 798.706C1015.54 808.422 1018.91 819.153 1024 828.573L1024 1024L915.397 1024C915.374 1023.94 915.354 1023.88 915.329 1023.82C894.7 976.49 861.008 930.478 818.93 900.152C801.632 887.685 781.593 877.3 761.811 869.525C780.318 857.21 791.611 838.644 795.94 816.882C799.958 796.683 794.718 774.634 783.308 757.668C770.891 739.203 749.966 727.438 728.412 723.32C710.403 719.88 692.311 721.09 676.812 731.679C659.692 743.376 659.356 758.438 649.513 774.48C643.876 783.667 637.343 786.421 632.906 797.8C627.491 811.689 623.32 834.145 620.483 849.156C625.919 858.55 634.031 862.658 643.932 866.149C647.051 870.983 649.235 876.803 651.513 882.084Q657.105 895.35 662.91 908.525C661.31 912.573 659.847 916.924 657.361 920.524C651.062 929.644 631.509 942.565 622.253 949.56C596.696 968.876 584.721 992.514 580.342 1024L0 1024L0 711.41C26.3569 704.71 52.9774 698.955 79.3979 692.478C107 685.712 134.477 678.2 162.233 672.101C157.79 687.346 150.29 701.755 143.123 715.862C135.92 730.039 128.498 744.231 120.94 758.22C117.584 764.432 110.406 774.394 108.593 780.688C108.399 781.363 108.084 782.164 108.322 782.854C109.166 785.306 114.181 787.191 116.44 788.496C112.91 796.941 107.843 805.198 103.559 813.301C97.3065 825.126 89.5808 842.896 80.7184 852.654C69.8575 864.612 55.3337 874.8 46.8646 888.64C43.8589 889.907 41.267 891.183 38.9947 893.585C36.9171 895.781 35.7362 898.792 36.0031 901.833C36.7408 910.239 58.2715 938.844 65.4663 944.911C78.5513 955.945 102.234 957.11 118.486 959.124C128.593 960.376 138.439 962.503 148.686 961.653C153.436 961.259 161.307 960.687 164.465 956.658C165.722 955.054 165.995 953.039 165.702 951.065C165.356 948.727 164.318 946.315 163.422 944.136C158.681 932.604 148.721 932.855 139.806 926.434C130.498 919.73 123.902 897.617 122.018 886.438C121.094 880.96 121.08 875.57 122.674 870.218C125.798 859.727 133.36 849.753 139.117 840.545C145.25 830.737 151.284 820.726 158.044 811.334C161.157 812.869 164.178 814.165 167.478 815.242C175.845 805.521 182.834 794.445 190.091 783.876C205.374 761.618 220.351 739.009 233.02 715.137C238.084 705.594 242.522 695.686 247.031 685.869C248.328 691.637 249.743 697.507 250.304 703.397C252.13 722.597 249.815 747.791 248.822 767.406Q247.174 797.015 247.573 826.666C247.717 833.829 246.89 843.569 249.281 850.199C251.316 852.699 254.899 852.558 257.876 852.867C257.762 864.722 258.645 876.656 259.161 888.499C259.434 894.754 260.041 901.276 259.24 907.501C258.448 913.654 256.138 919.906 254.498 925.897C252.587 932.88 248.876 950.143 248.472 957.23C248.34 959.546 248.904 961.352 250.574 962.99C256.186 968.494 268.941 970.69 276.593 970.849C281.873 970.959 287.376 970.493 292.512 969.225C302.633 966.726 312.311 961.16 322.354 958.017C336.023 953.739 350.75 951.936 363.96 946.394C369.474 944.081 374.483 940.937 378.788 936.771C382.721 932.964 386.454 928.116 386.411 922.386C386.385 918.895 384.892 915.642 382.384 913.235C375.901 907.015 367.594 907.941 359.409 908.282C340.131 909.087 334.622 906.788 317.574 899.055C314.371 897.603 309.869 896.422 307.363 893.959C300.653 887.367 303.507 859.953 303.514 850.339C306.171 849.193 308.592 847.954 311.048 846.425C311.86 840.044 311.972 833.55 312.498 827.137C313.162 819.045 314.302 810.952 315.468 802.918C319.539 774.885 324.836 747.027 328.559 718.943C331.167 699.269 332.457 679.561 333.366 659.748C333.823 649.785 334.448 639.755 334.36 629.78Q412.45 609.827 490.773 590.813L535.707 579.814C542.922 578.11 551.199 577.149 558.095 574.48C559.944 574.595 561.751 574.769 563.583 575.045C582.075 584.198 599.393 595.837 617.629 605.553ZM914.704 802.223C913.653 803.322 912.76 804.122 912.767 805.753C912.781 809.124 915.41 812.834 916.42 816.032C918.299 821.976 919.853 828.225 920.914 834.364C925.337 859.953 925.115 903.925 921.309 929.883C918.866 946.545 913.234 965.07 904.071 979.292C902.862 981.169 901.806 983.304 903.962 985.026C904.496 985.453 905.07 985.675 905.719 985.448C910.13 983.903 916.601 967.817 918.308 963.398C919.94 959.172 921.588 954.75 922.684 950.358C928.161 929.215 929.459 907.021 929.569 885.255C934.657 877.059 949.554 852.84 948.407 844.02C948.328 843.419 948.127 843.073 947.886 842.512L946.619 842.085L947.213 841.632L946.117 841.076C944.563 841.639 943.958 842.356 943.251 843.858C941.85 846.834 941.188 850.158 940.135 853.266C937.589 860.783 934.084 868.157 929.521 874.661C929.505 854.152 927.857 832.987 921.376 813.454C920.362 810.397 918.957 805.768 916.71 803.415C916.034 802.708 915.604 802.505 914.704 802.223Z"/>
	<path d="M861.625 752.227C863.685 750.358 865.768 748.531 867.632 746.461C864.863 741.591 861.947 737.033 863.43 731.185C864.289 727.795 866.228 724.92 868.13 722.043C867.684 710.427 864.545 697.37 859.284 686.998C848.206 682.836 831.488 677.703 826.181 666.036C820.803 654.215 826.692 635.865 831.172 624.582Q831.974 622.551 832.813 620.535C832.047 616.974 831.032 613.128 833.102 609.783C836.968 603.534 848.36 605.829 853.687 600.101C856.046 597.563 857.733 593.125 859.333 590.033C860.505 587.769 862.614 584.91 861.972 582.337C860.694 577.212 861.997 573.018 864.471 568.428C869.768 558.601 879.363 552.271 889.923 549.266C911.271 543.19 938.668 550.171 957.513 560.785C975.459 570.892 990.402 587.172 995.929 607.308C1001.43 627.332 998.124 649.507 987.861 667.464C984.873 672.691 981.172 677.498 978.237 682.752C978.432 682.829 978.626 682.908 978.822 682.982C990.799 687.521 1003.55 686.803 1009.97 700.44C1012.98 706.829 1012.99 714.181 1010.61 720.756Q1010.38 721.393 1010.11 722.019Q1009.84 722.644 1009.55 723.255Q1009.25 723.866 1008.92 724.462Q1008.6 725.057 1008.24 725.636Q1007.88 726.215 1007.5 726.776Q1007.12 727.336 1006.71 727.877Q1006.3 728.418 1005.86 728.938Q1005.42 729.458 1004.96 729.956Q1004.5 730.453 1004.01 730.928Q1003.52 731.402 1003.01 731.851Q1002.5 732.301 1001.97 732.725Q1001.44 733.148 1000.89 733.546Q1000.34 733.943 999.769 734.312Q999.199 734.681 998.611 735.022Q998.023 735.363 997.419 735.674Q996.816 735.985 996.197 736.266C992.583 737.865 982.824 736.827 980.838 739.306C981.995 743.298 986.496 747.841 989.031 751.264C1003.87 771.296 1014.01 792.712 1024 815.361L1024 828.573C1018.91 819.153 1015.54 808.422 1010.86 798.706C1001.1 778.426 988.89 760.047 975.522 741.99C973.764 743.141 972.151 744.119 970.012 744.312C966.366 744.641 963.145 743.078 960.435 740.752C953.095 734.451 948.875 724.275 948.268 714.796C942.87 715.527 937.856 714.847 932.503 715.151C924.653 715.598 911.511 722.555 904.515 726.449C890.432 734.289 878.094 744.129 866.582 755.362C837.745 783.502 834.715 804.362 839.133 842.942C841.1 860.123 843.852 877.331 846.736 894.384C847.587 899.42 851.126 913.018 849.651 917.204C849.219 918.431 848.799 918.905 847.684 919.518L846.6 919.18C845.621 918.168 845.145 917.299 844.752 915.936C843.268 910.79 842.841 902.908 841.861 897.323C837.47 872.303 832.319 846.589 831.754 821.139C831.075 790.543 841.079 773.773 861.625 752.227ZM899.835 553.178C888.781 554.688 878.057 558.291 870.998 567.475C867.819 571.61 866.523 575.759 865.938 580.872C872.555 575.357 881.18 570.087 890.232 570.939C891.094 571.02 891.927 571.212 892.77 571.394L893.404 571.524C897.097 567.723 902.026 562.121 907.685 561.894C908.954 561.843 909.797 562.059 910.935 562.655L911.405 563.677C910.127 566.413 905.338 568.22 902.934 570.355C888.423 583.245 888.633 602.761 894.81 619.744Q897.187 626.122 900.338 632.155C905.371 633.158 910.392 635.052 913.3 639.58C915.662 643.259 915.689 647.969 914.638 652.089C912.407 660.841 906.197 665.833 899.2 670.795C899.135 681.007 900.822 689.932 908.283 697.423C909.596 698.741 910.999 699.867 912.504 700.962C922.561 707.118 934.588 711.965 946.588 709.141C948.788 708.623 950.974 707.951 953.129 707.273C957.475 698.921 964.479 692.16 970.249 684.782C983.098 668.354 991.828 651.537 992.752 630.348C993.093 622.522 992.426 614.663 990.093 607.157C984.19 588.163 969.352 573.211 951.97 564.159C936.746 556.23 917.036 551.29 899.835 553.178ZM884.285 576.592C874.046 580.429 867.295 584.632 862.585 594.987C859.595 601.562 856.785 605.972 849.634 608.515C846.292 609.703 842.569 610.198 839.08 610.831C836.795 615.248 837.176 616.895 838.359 621.574C832.842 633.177 826.438 649.4 830.837 662.344C833.281 669.537 840.301 673.35 846.778 676.364C856.554 680.912 863.047 678.921 867.238 690.327C870.326 698.733 872.18 708.091 873.298 716.984Q880.602 711.641 888.259 706.815C892.604 704.211 896.918 701.513 901.35 699.06C896.683 690.965 893.133 682.604 893.83 673.076L893.267 672.451C890.727 672.993 888.978 675.544 886.525 675.65C885.486 674.067 884.987 668.632 885.314 666.689C885.41 666.124 885.537 665.974 885.791 665.535C887.115 665.178 887.41 665.009 888.683 665.713C889.387 666.102 890.073 666.763 890.695 667.278C895.753 666.962 901.653 662.868 904.907 659.242C908.14 655.639 909.788 651.142 909.472 646.278C909.322 643.982 908.579 641.259 906.615 639.847C904.935 638.64 902.609 638.473 900.652 638.987C896.311 640.127 895.99 645.76 891.134 645.699C889.925 644.791 889.817 644.648 889.282 643.233C889.566 640.1 892.197 638.065 894.464 636.152Q895.19 635.541 895.937 634.955C888.14 620.413 882.057 603.12 886.903 586.624C887.815 583.521 889.068 580.481 890.342 577.51C889.523 576.546 888.502 576.563 887.25 576.503C886.27 576.455 885.264 576.536 884.285 576.592ZM975.223 687.335C973.105 689.887 970.855 692.41 968.983 695.146C977.144 701.9 982.983 710.399 984.037 721.167C984.425 725.125 984.014 728.819 983.168 732.699C988.403 732.856 992.242 732.474 996.863 729.755C1001.98 725.834 1006 720.874 1006.85 714.275C1007.52 709.111 1006.37 703.563 1003.02 699.494C996.374 691.428 984.24 691.327 975.223 687.335ZM965.34 699.799C961.58 704.109 958.649 709.45 953.966 712.777C953.905 721.1 956.391 729 962.266 735.082C964.15 737.033 965.94 738.145 968.438 739.157L968.678 739.257C971.918 738.558 974.792 736.786 976.56 733.926C979.404 729.326 979.206 723.091 977.925 718.033C976.358 711.844 971.715 703.789 966.288 700.216C965.894 699.956 965.739 699.928 965.34 699.799ZM906.173 703.138C895.973 708.424 873.284 720.244 869.548 731C868.754 733.286 868.606 735.845 869.691 738.052C870.419 739.534 871.428 740.805 872.478 742.067L879.258 736.721C892.666 727.023 906.838 716.841 922.953 712.272C917.001 709.994 911.077 707.295 906.173 703.138Z"/>
	<path fill="#9F8BE8" d="M865.938 580.872C866.523 575.759 867.819 571.61 870.998 567.475C878.057 558.291 888.781 554.688 899.835 553.178C917.036 551.29 936.746 556.23 951.97 564.159C969.352 573.211 984.19 588.163 990.093 607.157C992.426 614.663 993.093 622.522 992.752 630.348C991.828 651.537 983.098 668.354 970.249 684.782C964.479 692.16 957.475 698.921 953.129 707.273C950.974 707.951 948.788 708.623 946.588 709.141C934.588 711.965 922.561 707.118 912.504 700.962C910.999 699.867 909.596 698.741 908.283 697.423C900.822 689.932 899.135 681.007 899.2 670.795C906.197 665.833 912.407 660.841 914.638 652.089C915.689 647.969 915.662 643.259 913.3 639.58C910.392 635.052 905.371 633.158 900.338 632.155Q897.187 626.122 894.81 619.744C888.633 602.761 888.423 583.245 902.934 570.355C905.338 568.22 910.127 566.413 911.405 563.677L910.935 562.655C909.797 562.059 908.954 561.843 907.685 561.894C902.026 562.121 897.097 567.723 893.404 571.524L892.77 571.394C891.927 571.212 891.094 571.02 890.232 570.939C881.18 570.087 872.555 575.357 865.938 580.872Z"/>
	<path fill="#FEFEFE" d="M839.08 610.831C842.569 610.198 846.292 609.703 849.634 608.515C856.785 605.972 859.595 601.562 862.585 594.987C867.295 584.632 874.046 580.429 884.285 576.592C885.264 576.536 886.27 576.455 887.25 576.503C888.502 576.563 889.523 576.546 890.342 577.51C889.068 580.481 887.815 583.521 886.903 586.624C882.057 603.12 888.14 620.413 895.937 634.955Q895.19 635.541 894.464 636.152C892.197 638.065 889.566 640.1 889.282 643.233C889.817 644.648 889.925 644.791 891.134 645.699C895.99 645.76 896.311 640.127 900.652 638.987C902.609 638.473 904.935 638.64 906.615 639.847C908.579 641.259 909.322 643.982 909.472 646.278C909.788 651.142 908.14 655.639 904.907 659.242C901.653 662.868 895.753 666.962 890.695 667.278C890.073 666.763 889.387 666.102 888.683 665.713C887.41 665.009 887.115 665.178 885.791 665.535C885.537 665.974 885.41 666.124 885.314 666.689C884.987 668.632 885.486 674.067 886.525 675.65C888.978 675.544 890.727 672.993 893.267 672.451L893.83 673.076C893.133 682.604 896.683 690.965 901.35 699.06C896.918 701.513 892.604 704.211 888.259 706.815Q880.602 711.641 873.298 716.984C872.18 708.091 870.326 698.733 867.238 690.327C863.047 678.921 856.554 680.912 846.778 676.364C840.301 673.35 833.281 669.537 830.837 662.344C826.438 649.4 832.842 633.177 838.359 621.574C837.176 616.895 836.795 615.248 839.08 610.831ZM872.558 590.949Q872.366 591.058 872.184 591.184Q872.003 591.311 871.834 591.454Q871.666 591.597 871.511 591.755Q871.357 591.913 871.218 592.085Q871.08 592.258 870.958 592.442Q870.836 592.626 870.732 592.821Q870.628 593.017 870.543 593.221Q870.458 593.425 870.393 593.636Q870.328 593.847 870.282 594.063Q870.237 594.28 870.213 594.499Q870.188 594.719 870.184 594.94Q870.181 595.161 870.198 595.382Q870.215 595.602 870.253 595.82Q870.291 596.038 870.349 596.251Q870.407 596.464 870.486 596.671Q870.564 596.878 870.661 597.076Q870.758 597.275 870.874 597.463Q870.99 597.651 871.123 597.828Q871.256 598.005 871.405 598.168Q871.554 598.331 871.717 598.48Q871.881 598.628 872.058 598.761Q872.235 598.893 872.424 599.008Q872.613 599.124 872.812 599.22Q873.01 599.317 873.217 599.395Q873.424 599.472 873.638 599.53Q873.851 599.588 874.069 599.625Q874.287 599.662 874.508 599.679Q874.728 599.695 874.949 599.691Q875.17 599.687 875.39 599.662Q875.609 599.636 875.826 599.591Q876.042 599.545 876.253 599.479Q876.464 599.413 876.668 599.327Q876.961 599.204 877.234 599.042Q877.508 598.881 877.757 598.684Q878.006 598.486 878.227 598.257Q878.447 598.028 878.634 597.772Q878.821 597.515 878.972 597.235Q879.123 596.955 879.234 596.658Q879.346 596.36 879.416 596.05Q879.486 595.74 879.514 595.424Q879.542 595.107 879.526 594.79Q879.51 594.473 879.452 594.161Q879.394 593.848 879.294 593.547Q879.194 593.245 879.054 592.96Q878.914 592.675 878.737 592.411Q878.559 592.147 878.348 591.91Q878.137 591.673 877.896 591.466Q877.654 591.26 877.387 591.088Q877.12 590.916 876.832 590.782Q876.544 590.648 876.24 590.554Q875.937 590.459 875.623 590.407Q875.309 590.355 874.992 590.346Q874.674 590.337 874.358 590.371Q874.042 590.405 873.734 590.481Q873.425 590.558 873.13 590.675Q872.835 590.793 872.558 590.949ZM866.873 603.79C865.318 605.362 863.588 607.404 863.845 609.801C863.979 611.052 864.583 611.617 865.506 612.366C866.375 612.587 867.255 612.857 868.135 613.019C869.764 611.701 870.815 610.313 871.005 608.145C871.103 607.023 870.641 605.592 869.776 604.853C868.817 604.034 868.075 604.001 866.873 603.79ZM839.409 628.754C838.64 630.494 838.243 631.668 838.998 633.563C840.638 637.683 845.485 640.391 849.425 641.985C851.282 642.737 853.194 643.224 855.148 643.645C851.95 646.587 847.462 650.858 842.885 650.813C841.493 650.089 840.805 649.567 840.282 648.041C839.113 644.629 840.159 640.58 838.535 637.364C837.444 636.802 837.472 636.909 836.277 637.259C834.276 639.562 834.231 642.404 834.432 645.334Q834.572 647.223 834.783 649.105C835.723 651.876 836.759 654.102 839.501 655.466C842.179 656.799 845.341 656.283 848.009 655.205C852.635 653.336 859.855 648.058 861.792 643.361C862.287 642.16 862.301 641.604 861.839 640.416C858.129 637.776 853.105 638.01 849.106 636.039C845.458 634.24 843.469 629.77 839.409 628.754Z"/>
	<path d="M876.668 599.327Q876.464 599.413 876.253 599.479Q876.042 599.545 875.826 599.591Q875.609 599.636 875.39 599.661Q875.17 599.687 874.949 599.691Q874.728 599.695 874.508 599.679Q874.287 599.662 874.069 599.625Q873.851 599.588 873.638 599.53Q873.424 599.472 873.217 599.395Q873.01 599.317 872.812 599.22Q872.613 599.124 872.424 599.008Q872.235 598.893 872.058 598.761Q871.881 598.628 871.717 598.48Q871.554 598.331 871.405 598.168Q871.256 598.005 871.123 597.828Q870.99 597.651 870.874 597.463Q870.758 597.275 870.661 597.076Q870.564 596.878 870.486 596.671Q870.407 596.464 870.349 596.251Q870.291 596.038 870.253 595.82Q870.215 595.602 870.198 595.382Q870.181 595.161 870.184 594.94Q870.188 594.719 870.213 594.5Q870.237 594.28 870.282 594.063Q870.328 593.847 870.393 593.636Q870.458 593.425 870.543 593.221Q870.628 593.017 870.732 592.821Q870.836 592.626 870.958 592.442Q871.08 592.258 871.218 592.085Q871.357 591.913 871.512 591.755Q871.666 591.597 871.834 591.454Q872.003 591.311 872.184 591.184Q872.366 591.058 872.558 590.949Q872.835 590.793 873.13 590.675Q873.425 590.558 873.734 590.481Q874.042 590.405 874.358 590.371Q874.674 590.337 874.992 590.346Q875.309 590.355 875.623 590.407Q875.937 590.459 876.24 590.553Q876.544 590.647 876.832 590.782Q877.12 590.916 877.387 591.088Q877.654 591.26 877.896 591.466Q878.137 591.673 878.348 591.91Q878.559 592.147 878.737 592.411Q878.914 592.675 879.054 592.96Q879.194 593.245 879.294 593.547Q879.394 593.848 879.452 594.161Q879.51 594.473 879.526 594.79Q879.542 595.107 879.514 595.424Q879.486 595.74 879.416 596.05Q879.346 596.36 879.234 596.658Q879.123 596.955 878.972 597.235Q878.821 597.515 878.634 597.772Q878.447 598.028 878.227 598.257Q878.006 598.486 877.757 598.684Q877.508 598.881 877.234 599.042Q876.961 599.204 876.668 599.327Z"/>
	<path d="M868.135 613.019C867.255 612.857 866.375 612.587 865.506 612.366C864.583 611.617 863.979 611.052 863.845 609.801C863.588 607.404 865.318 605.362 866.873 603.79C868.075 604.001 868.817 604.034 869.776 604.853C870.641 605.592 871.103 607.023 871.005 608.145C870.815 610.313 869.764 611.701 868.135 613.019Z"/>
	<path d="M855.148 643.645C853.194 643.224 851.282 642.737 849.425 641.985C845.485 640.391 840.638 637.683 838.998 633.563C838.243 631.668 838.64 630.494 839.409 628.754C843.469 629.77 845.458 634.24 849.106 636.039C853.105 638.01 858.129 637.776 861.839 640.416C862.301 641.604 862.287 642.16 861.792 643.361C859.855 648.058 852.635 653.336 848.009 655.205C845.341 656.283 842.179 656.799 839.501 655.466C836.759 654.102 835.723 651.876 834.783 649.105Q834.572 647.223 834.432 645.334C834.231 642.404 834.276 639.562 836.277 637.259C837.472 636.909 837.444 636.802 838.535 637.364C840.159 640.58 839.113 644.629 840.282 648.041C840.805 649.567 841.493 650.089 842.885 650.813C847.462 650.858 851.95 646.587 855.148 643.645Z"/>
	<path fill="#9F8BE8" d="M968.983 695.146C970.855 692.41 973.105 689.887 975.223 687.335C984.24 691.327 996.374 691.428 1003.02 699.494C1006.37 703.563 1007.52 709.111 1006.85 714.275C1006 720.874 1001.98 725.834 996.863 729.755C992.242 732.474 988.403 732.856 983.168 732.699C984.014 728.819 984.425 725.125 984.037 721.167C982.983 710.399 977.144 701.9 968.983 695.146Z"/>
	<path fill="#9F8BE8" d="M953.966 712.777C958.649 709.45 961.58 704.109 965.34 699.799C965.739 699.928 965.894 699.956 966.288 700.216C971.715 703.789 976.358 711.844 977.925 718.033C979.206 723.091 979.404 729.326 976.56 733.926C974.792 736.786 971.918 738.558 968.678 739.257L968.438 739.157C965.94 738.145 964.15 737.033 962.266 735.082C956.391 729 953.905 721.1 953.966 712.777Z"/>
	<path fill="#9F8BE8" d="M872.478 742.067C871.428 740.805 870.419 739.534 869.691 738.052C868.606 735.845 868.754 733.286 869.548 731C873.284 720.244 895.973 708.424 906.173 703.138C911.077 707.295 917.001 709.994 922.953 712.272C906.838 716.841 892.666 727.023 879.258 736.721L872.478 742.067Z"/>
	<path d="M580.342 1024C584.721 992.514 596.696 968.876 622.253 949.56C631.509 942.565 651.062 929.644 657.361 920.524C659.847 916.924 661.31 912.573 662.91 908.525Q657.105 895.35 651.513 882.084C649.235 876.803 647.051 870.983 643.932 866.149C634.031 862.658 625.919 858.55 620.483 849.156C623.32 834.145 627.491 811.689 632.906 797.8C637.343 786.421 643.876 783.667 649.513 774.48C659.356 758.438 659.692 743.376 676.812 731.679C692.311 721.09 710.403 719.88 728.412 723.32C749.966 727.438 770.891 739.203 783.308 757.668C794.718 774.634 799.958 796.683 795.94 816.882C791.611 838.644 780.318 857.21 761.811 869.525C781.593 877.3 801.632 887.685 818.93 900.152C861.008 930.478 894.7 976.49 915.329 1023.82C915.354 1023.88 915.374 1023.94 915.397 1024L909.418 1024C889.283 978.445 855.041 932.329 814.185 903.368C806.707 898.067 798.64 893.77 790.63 889.347C759.25 910.976 697.767 923.997 660.163 926.887C659.849 927.096 659.531 927.3 659.225 927.521C653.082 931.959 647.56 937.297 641.466 941.834C634.239 947.215 626.72 952.328 619.874 958.192C599.329 975.789 589.983 997.898 585.303 1024L580.342 1024ZM707.933 727.204C694.144 728.308 680.771 733.079 671.613 743.899C664.575 752.215 661.039 762.835 660.315 773.611L660.853 773.254C669.29 767.543 698.193 736.91 705.702 737.6C706.729 738.195 707.426 738.942 707.729 740.142C707.949 741.015 707.79 741.64 707.389 742.397C706.05 744.919 703.951 746.804 702.633 749.46C699.145 756.489 696.343 770.369 701.468 777.197C702.16 777.486 702.428 777.811 703.182 777.505C707.269 775.849 718.281 750.354 727.245 752.548Q727.727 752.666 728.16 752.908Q728.593 753.151 728.945 753.501L728.235 753.37L729.143 753.942C729.774 757.728 729.101 761.722 728.822 765.527C728.3 772.637 729.454 779.899 731.772 786.626C735.965 797.476 742.45 807.718 753.475 812.583C756.788 814.044 761.156 815.281 764.7 813.899C766.59 813.163 767.934 811.714 768.648 809.826C772.218 800.396 760.115 783.605 764.382 777.617C765.679 777.299 766.398 777.14 767.637 777.774C774.615 781.34 782.899 804.436 790.258 803.894C791.747 802.195 791.483 800.402 791.343 798.263C790.13 779.737 781.738 760.487 767.616 748.205C752.157 734.761 728.563 725.757 707.933 727.204ZM654.443 776.408C650.581 782.683 644.684 787.017 640.927 793.13C635.598 801.803 627.694 836.881 626.159 848.16C631.319 855.892 639.451 858.942 648.07 861.284C651.184 866.477 653.441 872.26 655.882 877.796Q661.308 890.014 666.581 902.299C675.53 890.687 685.375 881.526 699.163 875.941C701.444 875.117 703.74 874.322 706.008 873.464C693.051 871.607 680.291 864.337 672.36 853.809C667.836 847.803 665.389 840.655 663.166 833.554C659.751 833.304 655.667 833.051 653.194 830.353C652.055 829.11 651.179 827.115 651.578 825.406C651.87 824.153 652.35 823.902 653.363 823.327C655.095 823.71 655.643 824.476 656.713 825.814C657.697 827.046 658.611 827.642 660.203 827.907C663.507 828.456 667.794 825.677 670.151 823.655C675.125 819.389 680.409 810.875 680.654 804.237C680.736 802.004 680.145 799.872 678.545 798.255C677.24 796.934 674.599 795.515 672.721 795.601C670.144 795.718 667.986 797.943 666.552 799.874C664.784 802.254 662.635 807.941 659.944 808.996C657.256 806.809 656.9 798.932 656.528 795.328C656.168 791.834 656.161 778.698 654.443 776.408ZM737.3 871.684C715.518 874.459 688.33 883.003 674.561 900.91C669.694 907.241 666.478 914.348 663.329 921.627C677.997 919.65 692.336 917.12 706.888 914.459C735.355 907.859 760.059 899.8 786.248 886.688C772.755 878.905 753.304 869.127 737.3 871.684Z"/>
	<path fill="#9F8BE8" d="M660.315 773.611C661.039 762.835 664.575 752.215 671.613 743.899C680.771 733.079 694.144 728.308 707.933 727.204C728.563 725.757 752.157 734.761 767.616 748.205C781.738 760.487 790.13 779.737 791.343 798.263C791.483 800.402 791.747 802.195 790.258 803.894C782.899 804.436 774.615 781.34 767.637 777.774C766.398 777.14 765.679 777.299 764.382 777.617C760.115 783.605 772.218 800.396 768.648 809.826C767.934 811.714 766.59 813.163 764.7 813.899C761.156 815.281 756.788 814.044 753.475 812.583C742.45 807.718 735.965 797.476 731.772 786.626C729.454 779.899 728.3 772.637 728.822 765.527C729.101 761.722 729.774 757.728 729.143 753.942L728.235 753.37L728.945 753.501Q728.593 753.151 728.16 752.908Q727.727 752.666 727.245 752.548C718.281 750.354 707.269 775.849 703.182 777.505C702.428 777.811 702.16 777.486 701.468 777.197C696.343 770.369 699.145 756.489 702.633 749.46C703.951 746.804 706.05 744.919 707.389 742.397C707.79 741.64 707.949 741.015 707.729 740.142C707.426 738.942 706.729 738.195 705.702 737.6C698.193 736.91 669.29 767.543 660.853 773.254L660.315 773.611Z"/>
	<path fill="#FEFEFE" d="M626.159 848.16C627.694 836.881 635.598 801.803 640.927 793.13C644.684 787.017 650.581 782.683 654.443 776.408C656.161 778.698 656.168 791.834 656.528 795.328C656.9 798.932 657.256 806.809 659.944 808.996C662.635 807.941 664.784 802.254 666.552 799.874C667.986 797.943 670.144 795.718 672.721 795.601C674.599 795.515 677.24 796.934 678.545 798.255C680.145 799.872 680.736 802.004 680.654 804.237C680.409 810.875 675.125 819.389 670.151 823.655C667.794 825.677 663.507 828.456 660.203 827.907C658.611 827.642 657.697 827.046 656.713 825.814C655.643 824.476 655.095 823.71 653.363 823.327C652.35 823.902 651.87 824.153 651.578 825.406C651.179 827.115 652.055 829.11 653.194 830.353C655.667 833.051 659.751 833.304 663.166 833.554C665.389 840.655 667.836 847.803 672.36 853.809C680.291 864.337 693.051 871.607 706.008 873.464C703.74 874.322 701.444 875.117 699.163 875.941C685.375 881.526 675.53 890.687 666.581 902.299Q661.308 890.014 655.882 877.796C653.441 872.26 651.184 866.477 648.07 861.284C639.451 858.942 631.319 855.892 626.159 848.16Z"/>
	<path fill="#FEFEFE" d="M118.476 864.179C114.029 859.701 109.143 855.582 103.763 852.258C100.328 850.135 96.4287 848.39 93.2902 845.861C94.3439 839.699 101.801 828.543 104.949 822.656C110.556 812.17 116.33 801.676 121.384 790.913C131.631 797.534 142.602 802.329 153.341 808.036C148.556 814.385 144.513 821.526 140.21 828.22C133.428 838.768 126.386 849.203 120.439 860.257L118.476 864.179Z"/>
	<path d="M922.684 950.358C921.588 954.75 919.94 959.172 918.308 963.398C916.601 967.817 910.13 983.903 905.719 985.448C905.07 985.675 904.496 985.453 903.962 985.026C901.806 983.304 902.862 981.169 904.071 979.292C913.234 965.07 918.866 946.545 921.309 929.883C925.115 903.925 925.337 859.953 920.914 834.364C919.853 828.225 918.299 821.976 916.42 816.032C915.41 812.834 912.781 809.124 912.767 805.753C912.76 804.122 913.653 803.322 914.704 802.223C915.604 802.505 916.034 802.708 916.71 803.415C918.957 805.768 920.362 810.397 921.376 813.454C927.857 832.987 929.505 854.152 929.521 874.661C934.084 868.157 937.589 860.783 940.135 853.266C941.188 850.158 941.85 846.834 943.251 843.858C943.958 842.356 944.563 841.639 946.117 841.076L947.213 841.632L946.619 842.085L947.886 842.512C948.127 843.073 948.328 843.419 948.407 844.02C949.554 852.84 934.657 877.059 929.569 885.255C929.459 907.021 928.161 929.215 922.684 950.358Z"/>
	<path fill="#FEFEFE" d="M73.5591 867.613C79.3454 862.077 84.9264 856.734 89.74 850.297C99.9082 855.381 108.571 862.399 116.585 870.394C115.039 877.184 115.109 882.852 116.206 889.701C111.255 891.446 106.204 892.621 101.082 893.718C100.802 893.739 100.522 893.795 100.242 893.781C95.9922 893.576 76.6346 871.783 73.5591 867.613Z"/>
	<path fill="#FEFEFE" d="M263.404 854.044C274.425 855.652 286.138 853.426 297.027 851.679L298.058 851.807C298.989 854.78 298.032 859.565 297.852 862.709C297.346 871.573 296.613 881.744 299.136 890.387C300.741 895.887 303.435 898.847 308.288 901.554C306.344 904.59 303.856 907.37 300.875 909.417C293.508 914.476 285.479 913.921 277.21 912.241C274.027 911.21 269.859 910.003 267.425 907.636C266.492 906.729 266.08 905.874 265.856 904.583C264.733 898.092 265.05 890.778 264.781 884.176C264.372 874.13 263.681 864.095 263.404 854.044Z"/>
	<path fill="#9F8BE8" d="M663.329 921.627C666.478 914.348 669.694 907.241 674.561 900.91C688.33 883.003 715.518 874.459 737.3 871.684C753.304 869.127 772.755 878.905 786.248 886.688C760.059 899.8 735.355 907.859 706.888 914.459C692.336 917.12 677.997 919.65 663.329 921.627Z"/>
	<path fill="#FEFEFE" d="M52.2948 889.769C57.3827 883.476 62.7789 877.158 68.8753 871.823C72.6249 872.887 88.7716 894.372 95.7298 897.716C102.692 901.062 111.269 897.391 118.003 895.054C123.213 910.265 126.411 927.656 142.812 934.752C148.405 937.172 153.294 938.891 157.601 943.387L158.105 943.921C153.967 945.12 149.762 945.736 145.486 946.175C127.6 945.915 112.015 935.83 100.096 923.194C95.3291 918.14 91.0747 912.607 85.9284 907.915C75.9938 898.858 65.3653 892.831 52.2948 889.769Z"/>
	<path fill="#D9D4FB" d="M585.303 1024C589.983 997.898 599.329 975.789 619.874 958.192C626.72 952.328 634.239 947.215 641.466 941.834C647.56 937.297 653.082 931.959 659.225 927.521C659.531 927.3 659.849 927.096 660.163 926.887C697.767 923.997 759.25 910.976 790.63 889.347C798.64 893.77 806.707 898.067 814.185 903.368C855.041 932.329 889.283 978.445 909.418 1024L585.303 1024Z"/>
	<path fill="#FEFEFE" d="M156.873 954.75C126.352 961.711 109.187 947.006 89.3258 926.415C81.1463 917.934 73.2239 909.643 62.4229 904.448C55.7378 901.232 49.2528 900.265 41.9833 899.323L41.7365 898.821C42.5801 896.628 45.242 895.444 47.2307 894.497C60.3521 894.893 75.0585 904.724 84.0804 913.607C93.7078 923.086 101.253 933.485 112.653 941.215C127.561 951.323 142.164 953.175 159.454 949.807C160.487 950.42 160.419 950.593 160.942 951.612C160.854 952.048 160.828 952.331 160.581 952.739C159.723 954.162 158.353 954.413 156.873 954.75Z"/>
	<path fill="#FEFEFE" d="M264.4 912.741L264.975 913.093C273.809 918.45 283.496 920.978 293.71 918.351C302.472 916.097 309.399 910.969 313.953 903.171C327.014 909.762 340.249 914.685 355.139 914.018C360.363 913.784 366.404 912.69 371.535 913.687C373.114 913.994 374.199 914.416 375.12 915.813C375.253 917.863 375.103 919.46 374.185 921.333C367.775 934.415 339.709 938.251 326.611 941.408Q316.152 944.029 305.879 947.303C296.167 950.914 286.909 955.426 276.292 954.846C268.411 954.415 261.612 951.391 256.34 945.421C256.946 934.376 261.144 923.263 264.4 912.741Z"/>
	<path fill="#FEFEFE" d="M254.789 952.366C257.297 954.285 259.877 955.917 262.8 957.12C268.119 959.311 275.275 960.953 281.028 960.383C293.072 959.19 304.481 953.358 316.074 950.09C331.4 945.77 347.715 943.595 362.437 937.457C369.941 934.329 376.633 929.022 379.771 921.388C380.269 921.918 380.227 921.739 380.384 922.521C380.864 924.909 379.378 927.593 378.09 929.511C374.717 934.532 369.082 937.962 363.672 940.42C350.634 946.345 335.768 948.176 322.112 952.47C309.883 956.314 297.87 963.022 285.261 965.174C274.87 966.948 262.147 964.593 253.494 958.476C253.749 956.424 254.323 954.38 254.789 952.366Z"/>
</svg>
