<?xml version="1.0" encoding="utf-8" ?>
<svg xmlns="http://www.w3.org/2000/svg" xmlns:xlink="http://www.w3.org/1999/xlink" width="1024" height="1024">
	<path fill="#9F8BE8" d="M0 0L1024 0L1024 1024L0 1024L0 0ZM848.956 194.232C842.981 181.513 833.061 169.178 824.096 158.426Q820.694 154.278 817.152 150.249Q813.61 146.22 809.933 142.314Q806.256 138.408 802.447 134.63Q798.639 130.852 794.704 127.206Q790.768 123.56 786.711 120.051Q782.653 116.542 778.479 113.173Q774.304 109.804 770.016 106.58Q765.729 103.355 761.334 100.279Q756.939 97.2034 752.441 94.2792Q747.944 91.3551 743.349 88.5861Q738.754 85.8172 734.068 83.2068Q729.381 80.5963 724.608 78.1474Q719.835 75.6985 714.981 73.414Q710.128 71.1295 705.199 69.012Q700.27 66.8945 695.271 64.9465Q690.273 62.9986 685.211 61.2224Q681.235 59.8092 677.226 58.4934Q673.217 57.1776 669.177 55.9601Q665.137 54.7426 661.068 53.6241Q657 52.5056 652.905 51.4868Q648.81 50.4679 644.692 49.5493Q640.574 48.6307 636.434 47.8129Q632.295 46.9952 628.137 46.2787Q623.978 45.5622 619.804 44.9474Q615.63 44.3327 611.441 43.82Q607.253 43.3073 603.053 42.8971Q598.854 42.4868 594.646 42.1792Q590.437 41.8715 586.223 41.6667Q582.008 41.4619 577.79 41.3601Q573.572 41.2582 569.352 41.2594Q565.133 41.2605 560.915 41.3647Q556.696 41.4688 552.482 41.6759Q548.268 41.883 544.06 42.1929Q539.851 42.5029 535.652 42.9154Q531.453 43.328 527.265 43.8429Q523.077 44.3579 518.903 44.9749Q514.729 45.592 510.571 46.3107Q506.413 47.0295 502.274 47.8495Q498.135 48.6695 494.017 49.5904Q489.899 50.5112 485.805 51.5323Q481.711 52.5534 477.643 53.6741Q473.575 54.7948 469.536 56.0145Q465.496 57.2342 461.488 58.5522Q457.48 59.8701 453.505 61.2855Q449.53 62.7009 445.59 64.213Q441.651 65.725 437.75 67.3327Q433.849 68.9405 429.988 70.643Q426.127 72.3455 422.309 74.1417Q419.786 75.3247 417.284 76.5517Q414.783 77.7788 412.303 79.0494Q409.823 80.3201 407.366 81.634Q404.909 82.9479 402.475 84.3047Q400.041 85.6614 397.631 87.0606Q395.222 88.4598 392.837 89.901Q390.452 91.3422 388.093 92.8249Q385.734 94.3076 383.401 95.8315Q381.068 97.3553 378.762 98.9198Q376.456 100.484 374.178 102.089Q371.9 103.693 369.651 105.338Q367.401 106.982 365.181 108.665Q362.96 110.349 360.77 112.071Q358.579 113.793 356.419 115.553Q354.259 117.313 352.13 119.111Q350.001 120.909 347.904 122.744Q345.807 124.579 343.742 126.45Q341.678 128.321 339.646 130.228Q337.615 132.135 335.617 134.078Q333.619 136.02 331.656 137.997Q329.692 139.974 327.764 141.986Q325.835 143.997 323.942 146.041Q322.049 148.086 320.192 150.164Q318.335 152.241 316.515 154.351Q314.695 156.461 312.912 158.602Q311.129 160.743 309.384 162.915Q307.638 165.088 305.932 167.29Q304.225 169.493 302.557 171.725Q300.889 173.957 299.26 176.218Q297.631 178.478 296.042 180.767Q294.454 183.057 292.905 185.373Q291.357 187.69 289.849 190.033C283.783 199.517 278.539 209.667 273.333 219.641C266.707 232.334 259.731 245.333 254.906 258.842C254.22 260.764 253.588 262.67 253.158 264.667C239.507 258.563 224.293 257.558 210.205 263.035C196.465 268.377 185.944 279.587 180.142 292.991C175.223 304.356 173.767 317.207 168.524 328.334Q143.274 342.812 117.337 356.021C107.774 360.987 96.2729 365.703 87.7562 372.327C68.4054 387.378 48.5833 436.78 42.3961 460.35C22.1823 537.355 30.3556 619.184 56.1632 693.922C60.168 705.519 64.6686 717.211 69.7089 728.408C71.8938 733.261 75.0845 737.819 76.9497 742.774C79.5518 749.685 81.6151 760.157 83.3787 767.568C83.2248 767.709 83.0727 767.852 82.9171 767.992C70.0195 779.544 38.4743 792.268 37.5804 811.354C37.1729 820.055 43.0254 827.19 48.679 833.13C66.9859 852.364 98.6114 874.769 121.492 888.91C146.277 904.228 171.321 918.708 198.202 930.093C224.259 941.129 251.368 948.98 278.798 955.749Q290.372 958.609 302.021 961.147Q313.67 963.684 325.385 965.898Q337.1 968.111 348.872 969.998Q360.644 971.885 372.464 973.444Q384.284 975.003 396.143 976.234Q408.001 977.464 419.89 978.365Q431.778 979.265 443.687 979.836Q455.595 980.406 467.515 980.645Q473.09 980.797 478.667 980.861Q484.243 980.925 489.82 980.901Q495.397 980.877 500.973 980.765Q506.549 980.652 512.122 980.452Q517.695 980.252 523.265 979.963Q528.834 979.675 534.399 979.298Q539.963 978.922 545.52 978.457Q551.078 977.993 556.628 977.441Q562.177 976.889 567.717 976.249Q573.257 975.609 578.787 974.882Q584.316 974.155 589.833 973.34Q595.35 972.526 600.854 971.624Q606.358 970.722 611.846 969.734Q617.335 968.745 622.807 967.67Q628.28 966.595 633.734 965.434Q639.189 964.272 644.625 963.025Q650.06 961.777 655.475 960.444Q660.891 959.11 666.284 957.692Q671.678 956.273 677.048 954.769Q682.418 953.265 687.764 951.677Q693.11 950.088 698.43 948.416Q703.751 946.743 709.044 944.986Q714.337 943.229 719.601 941.389Q724.866 939.549 730.101 937.626Q735.336 935.703 740.54 933.697Q745.744 931.692 750.915 929.604Q756.087 927.517 761.224 925.348Q766.362 923.179 771.465 920.929Q776.568 918.679 781.635 916.348Q786.702 914.018 791.731 911.608Q796.76 909.198 801.751 906.708Q806.741 904.219 811.692 901.651C827.379 893.591 842.57 884.668 857.758 875.715C893.667 854.549 932.472 829.024 962.65 800.126C976.57 786.796 993.939 768.899 994.498 748.366C994.888 734.045 983.178 720.941 973.886 711.239C955.697 692.245 929.558 675.3 906.529 662.718C832.352 622.188 763.865 606.116 679.656 604.613C657.86 604.225 636.104 605.266 614.335 606.215C602.333 606.739 590.024 606.731 578.107 608.08C571.964 592.44 567.476 576.062 562.282 560.088L536.358 481.516L637.388 482.467L637.337 446.926C637.33 440.11 637.037 433.137 637.595 426.348C638.224 433.315 637.83 440.629 637.84 447.634Q637.808 467.981 637.987 488.326C646.176 492.085 654.588 495.36 662.868 498.916L705.25 517.514L814.461 566.137Q839.523 576.929 864.323 588.31C871.241 591.428 879.556 594.157 885.84 598.349C906.155 593.021 926.271 586.032 946.292 579.68C955.44 576.777 970.282 573.086 978.367 569.019C978.82 556.808 978.526 544.48 978.525 532.259Q978.596 500.944 978.345 469.629C973.52 466.733 967.266 465.389 961.973 463.443Q950.253 459.031 938.732 454.12L938.658 223.584C964.472 223.279 991.023 218.483 1013.76 205.887C1011.69 199.952 1007.84 194.335 1004.86 188.81C1000.95 181.57 997.367 174.122 993.671 166.77Q987.23 154.107 981.189 141.248C978.557 135.668 976.146 129.567 972.831 124.359C972.656 124.083 972.474 123.812 972.301 123.535C971.526 122.297 970.979 121.332 969.653 120.606C956.116 113.196 910.251 114.543 894.744 118.778C892.037 119.517 889.358 120.566 887.563 122.818C883.244 128.24 877.568 141.119 874.039 147.859Q861.915 171.271 848.956 194.232Z"/>
	<path fill="#CCC2FB" d="M253.158 264.667C253.588 262.67 254.22 260.764 254.906 258.842C259.731 245.333 266.707 232.334 273.333 219.641C278.539 209.667 283.783 199.517 289.849 190.033Q291.357 187.69 292.905 185.373Q294.454 183.057 296.042 180.767Q297.631 178.478 299.26 176.218Q300.889 173.957 302.557 171.725Q304.225 169.493 305.932 167.29Q307.638 165.088 309.384 162.915Q311.129 160.743 312.912 158.602Q314.695 156.461 316.515 154.351Q318.335 152.241 320.192 150.164Q322.049 148.086 323.942 146.041Q325.835 143.997 327.764 141.986Q329.692 139.974 331.656 137.997Q333.619 136.02 335.617 134.078Q337.615 132.135 339.646 130.228Q341.678 128.321 343.742 126.45Q345.807 124.579 347.904 122.744Q350.001 120.909 352.13 119.111Q354.259 117.314 356.419 115.553Q358.579 113.793 360.77 112.071Q362.96 110.349 365.181 108.666Q367.401 106.982 369.651 105.338Q371.9 103.693 374.178 102.089Q376.456 100.484 378.762 98.9198Q381.068 97.3553 383.401 95.8315Q385.734 94.3076 388.093 92.8249Q390.452 91.3422 392.837 89.901Q395.222 88.4598 397.631 87.0606Q400.041 85.6614 402.475 84.3047Q404.909 82.9479 407.366 81.634Q409.823 80.3201 412.303 79.0494Q414.783 77.7788 417.284 76.5517Q419.786 75.3247 422.309 74.1417Q426.127 72.3455 429.988 70.643Q433.849 68.9405 437.75 67.3327Q441.651 65.725 445.59 64.213Q449.53 62.7009 453.505 61.2855Q457.48 59.8701 461.488 58.5522Q465.496 57.2342 469.536 56.0145Q473.575 54.7948 477.643 53.6741Q481.711 52.5534 485.805 51.5323Q489.899 50.5112 494.017 49.5904Q498.135 48.6695 502.274 47.8495Q506.413 47.0295 510.571 46.3107Q514.729 45.592 518.903 44.9749Q523.077 44.3579 527.265 43.8429Q531.453 43.328 535.652 42.9154Q539.851 42.5029 544.06 42.1929Q548.268 41.883 552.482 41.6759Q556.696 41.4688 560.915 41.3647Q565.133 41.2605 569.352 41.2594Q573.572 41.2582 577.79 41.3601Q582.008 41.4619 586.223 41.6667Q590.437 41.8715 594.646 42.1792Q598.854 42.4868 603.053 42.8971Q607.253 43.3073 611.441 43.82Q615.629 44.3327 619.804 44.9474Q623.978 45.5622 628.137 46.2787Q632.295 46.9952 636.434 47.8129Q640.574 48.6307 644.692 49.5493Q648.81 50.4679 652.905 51.4868Q657 52.5056 661.068 53.6241Q665.137 54.7426 669.177 55.9601Q673.217 57.1776 677.226 58.4934Q681.235 59.8092 685.211 61.2224Q690.273 62.9986 695.271 64.9465Q700.27 66.8945 705.199 69.012Q710.128 71.1295 714.981 73.414Q719.835 75.6985 724.608 78.1474Q729.381 80.5963 734.068 83.2068Q738.754 85.8172 743.349 88.5861Q747.944 91.3551 752.441 94.2792Q756.939 97.2034 761.334 100.279Q765.729 103.355 770.016 106.58Q774.304 109.804 778.478 113.173Q782.653 116.542 786.711 120.051Q790.768 123.56 794.703 127.206Q798.639 130.852 802.447 134.63Q806.256 138.408 809.933 142.314Q813.61 146.22 817.152 150.249Q820.694 154.278 824.096 158.426C833.061 169.178 842.981 181.513 848.956 194.232C847.644 196.665 844.813 200.029 845.509 202.895C845.802 204.099 846.833 204.761 847.868 205.293C850.591 206.695 853.406 207.956 856.146 209.338C857.268 215.484 860.937 221.529 862.988 227.444C869.41 245.961 876.383 272.124 875.41 291.945L772.395 258.995L741.525 249.023C736.956 247.525 732.359 245.602 727.722 244.377C726.14 243.958 724.897 244.03 723.37 244.555C721.988 246.157 721.871 249.562 721.761 251.676C721.066 265.004 721.962 278.737 722.103 292.11L723.024 380.233L667.95 391.743C659.048 393.642 645.879 395.413 637.848 399.185C637.15 408.203 638.387 417.388 637.595 426.348C637.037 433.137 637.33 440.11 637.337 446.926L637.388 482.467L536.358 481.516C533.65 473.084 531.078 464.823 524.703 458.346Q523.903 457.541 523.05 456.792Q522.197 456.043 521.296 455.354Q520.395 454.664 519.449 454.036Q518.503 453.408 517.517 452.846Q516.532 452.283 515.51 451.788Q514.489 451.293 513.437 450.868Q512.384 450.443 511.306 450.09Q510.227 449.737 509.127 449.457C497.495 446.416 483.763 447.49 471.814 447.499L432.117 447.485C421.414 439.595 408.602 433.677 399.734 423.616C405.121 420.046 411.118 421.991 417.075 418.188C428.148 411.118 427.736 403.151 430.952 391.953C431.87 388.756 433.842 385.626 434.429 382.392C435.162 378.359 431.307 373.941 429.202 370.847C432.842 363.635 436.938 356.629 440.885 349.58C439.626 347.869 438.57 345.97 436.315 345.583C432.365 344.906 406.451 349.316 401.698 350.798C399.805 351.388 397.762 353.387 396.217 354.62Q393.879 348.174 390.912 341.992C383.968 327.833 376.228 318.929 361.157 313.801C363.664 313.97 366.247 314.163 368.754 313.985C373.688 313.634 377.294 310.638 380.463 307.088C388.616 297.955 394.652 286.825 395.572 274.528C396.047 268.187 396.145 261.887 397.609 255.659C399.585 247.25 403.998 239.163 403.326 230.322C402.855 224.117 400.339 217.487 395.409 213.495C388.065 207.549 377.491 210.614 369.005 211.701Q367.938 210.478 366.816 209.306C362.57 204.91 357.173 202.5 351.026 202.535C341.824 202.589 335.096 206.921 329 213.318C321.958 214.653 316.127 216.611 311.38 222.425C306.736 228.113 305.136 235.832 305.815 243.036C307.389 259.741 319.241 272.009 331.484 282.216C327.666 290.795 322.066 298.348 315.845 305.327L315.197 305.391C299.704 306.993 290.81 317.601 281.541 328.906C279.217 327.378 275.075 324.874 274.202 322.085C272.931 318.024 275.089 311.346 275.307 307.028Q275.408 304.617 275.302 302.206Q275.195 299.795 274.88 297.402Q274.566 295.01 274.047 292.653Q273.528 290.296 272.807 287.993C269.361 277.274 263.115 269.852 253.158 264.667Z"/>
	<path d="M848.956 194.232Q861.915 171.271 874.039 147.859C877.568 141.119 883.244 128.24 887.563 122.818C889.358 120.566 892.037 119.517 894.744 118.778C910.251 114.543 956.116 113.196 969.653 120.606C970.979 121.332 971.526 122.297 972.301 123.535C972.474 123.812 972.656 124.083 972.831 124.359C976.146 129.567 978.557 135.668 981.189 141.248Q987.23 154.107 993.671 166.77C997.367 174.122 1000.95 181.57 1004.86 188.81C1007.84 194.335 1011.69 199.952 1013.76 205.887C991.023 218.483 964.472 223.279 938.658 223.584L938.732 454.12Q950.253 459.031 961.973 463.443C967.266 465.389 973.52 466.733 978.345 469.629Q978.596 500.944 978.525 532.259C978.526 544.48 978.82 556.808 978.367 569.019C970.282 573.086 955.44 576.777 946.292 579.68C926.271 586.032 906.155 593.021 885.84 598.349C879.556 594.157 871.241 591.428 864.323 588.31Q839.523 576.928 814.461 566.137L705.25 517.514L662.868 498.916C654.588 495.36 646.176 492.085 637.987 488.326Q637.808 467.98 637.84 447.634C637.83 440.629 638.224 433.315 637.595 426.348C638.387 417.388 637.15 408.203 637.848 399.185C645.879 395.413 659.048 393.642 667.95 391.743L723.024 380.233L722.103 292.11C721.962 278.737 721.066 265.004 721.761 251.676C721.871 249.562 721.988 246.157 723.37 244.555C724.897 244.03 726.14 243.958 727.722 244.377C732.359 245.602 736.956 247.525 741.525 249.023L772.395 258.995L875.41 291.945C878.351 292.753 883.418 293.811 885.485 296.144C886.588 297.389 886.59 298.784 886.708 300.355C887.854 315.645 887.02 331.717 887.017 347.078L887.048 434.232C898.989 439.464 911.157 444.131 923.264 448.961C923.52 425.236 923.114 401.479 923.17 377.75L923.405 223.567C899.871 222.375 878.077 218.046 856.146 209.338C853.406 207.956 850.591 206.695 847.868 205.293C846.833 204.761 845.802 204.099 845.509 202.895C844.813 200.029 847.644 196.665 848.956 194.232ZM932.697 120.243C920.115 120.553 905.329 119.962 893.37 124.292L892.765 125.033C893.678 126.158 894.913 126.272 896.242 126.633C896.513 126.707 896.781 126.789 897.052 126.862C906.48 129.399 917.852 129.353 927.598 129.448C934.41 129.517 962.241 129.179 966.682 125.555C966.786 125.471 966.865 125.36 966.956 125.262C965.506 123.135 961.939 122.436 959.517 121.979C950.851 120.345 941.514 120.096 932.697 120.243ZM889.754 129.615Q876.009 153.587 863.264 178.105C859.228 185.688 854.261 193.433 851.072 201.372C886.681 220.224 931.024 221.565 970.116 215.996C982.967 213.655 996.067 210.158 1007.6 203.849C993.833 179.623 982.154 154.324 969.911 129.312C950.619 136.843 909.476 135.543 889.754 129.615ZM928.384 223.712L928.117 370.813C928.001 397.316 927.159 424.138 928.167 450.616L933.754 452.395C934.879 445.097 934.072 436.749 934.047 429.316L933.939 384.143L934.138 223.865L928.384 223.712ZM730.333 254.579L731.503 394.309C746.184 398.361 759.757 405.243 773.886 410.791C798.28 420.369 822.899 429.495 847.401 438.803C857.199 442.525 867.389 447.905 877.518 450.341L877.658 302.408C863.778 297.024 849.32 293.009 835.135 288.505L767.014 266.747C754.795 262.858 742.238 259.357 730.333 254.579ZM719.459 385.647C695.764 390.312 672.207 395.605 648.567 400.532C660.535 406.965 674.106 410.99 686.747 415.927C705.596 423.289 724.243 431.205 743.071 438.641C762.197 446.196 781.043 454.404 800.064 462.207C810.163 466.35 820.462 470.011 830.591 474.091C849.108 481.551 867.556 489.363 886.177 496.546C900.519 492.674 914.694 487.889 928.878 483.463C942.087 479.469 955.658 475.778 968.599 471.003C941.475 460.993 914.161 451.057 887.431 440.047C887.469 444.967 888.759 454.218 886.399 458.34C884.573 459.83 882.644 459.95 880.366 459.691C872.233 458.769 857.398 451.546 848.933 448.53C839.292 452.754 828.678 455.807 818.467 458.402C811.713 455.544 804.727 453.201 797.87 450.594C781.699 444.446 765.28 438.272 749.342 431.549C748.945 428.554 748.599 425.643 748.569 422.616Q752.491 420.585 756.625 419.031Q760.759 417.477 765.048 416.421Q751.822 410.881 738.468 405.656C734.028 403.899 728.705 402.355 724.706 399.78C723.868 399.24 723.573 398.751 723.206 397.832C721.867 394.487 724.757 388.061 722.188 385.541C721.181 385.427 720.452 385.439 719.459 385.647ZM642.471 403.297L642.543 484.68C644.382 485.442 646.264 486.155 648.035 487.064C648.417 471.213 648.273 455.302 648.231 439.445C648.211 432.241 647.648 424.63 648.319 417.474C648.475 415.804 648.626 414.088 649.848 412.882C658.254 414.041 671.395 420.87 679.771 424.329L721.606 441.312C773.493 462.344 825.821 482.32 877.546 503.75L877.466 523.25C877.392 545.175 877.103 567.148 877.427 589.069L883.998 592.183Q884.219 546.542 883.949 500.902C858.771 489.256 832.506 479.975 806.748 469.742C773.085 456.368 739.782 442.029 706.103 428.7C684.986 420.342 663.006 412.967 642.471 403.297ZM653.056 418.158L652.986 486.462C669.042 481.805 684.826 476.375 700.752 471.303C705.498 469.85 710.223 468.424 714.839 466.582C714.987 459.135 715.027 451.666 715.601 444.238C700.647 437.833 685.472 431.988 670.478 425.678C664.673 423.235 658.671 421.014 653.056 418.158ZM769.667 418.956C764.742 420.881 759.656 422.642 754.861 424.863C762.633 428.418 770.887 431.228 778.876 434.286L820.227 450.072L825.723 448.488C830.763 446.926 835.618 445.657 840.836 444.888C833.036 441.64 772.477 419.003 769.667 418.956ZM720.037 445.953C719.898 453.797 720.051 461.858 719.162 469.652C712.524 473.623 704.413 475.42 697.063 477.691C683.739 481.81 669.543 485.734 656.645 490.967L829.282 567.51Q842.283 572.99 855.093 578.902C860.837 581.525 866.63 584.498 872.578 586.605C873.844 560.167 872.806 533.424 872.841 506.945Q817.976 483.834 762.404 462.48C748.302 456.925 734.036 451.77 720.037 445.953ZM972.592 474.502C945.038 484.208 916.838 491.836 888.957 500.517Q889.092 531.173 888.905 561.829C888.865 571.37 888.259 581.247 888.731 590.75C888.768 591.492 888.994 591.662 889.475 592.18C889.509 592.216 889.554 592.239 889.593 592.268C917.823 584.25 945.478 574.235 973.579 565.765L973.637 502.609C973.642 495.063 974.474 481.702 973.236 474.809L972.592 474.502Z"/>
	<path fill="#CCC2FB" d="M927.598 129.448C917.852 129.353 906.48 129.399 897.052 126.862C896.781 126.789 896.513 126.707 896.242 126.633C894.913 126.272 893.678 126.158 892.765 125.033L893.37 124.292C905.329 119.962 920.115 120.553 932.697 120.243C941.514 120.096 950.851 120.345 959.517 121.979C961.939 122.436 965.506 123.135 966.956 125.262C966.865 125.36 966.786 125.471 966.682 125.555C962.241 129.179 934.41 129.517 927.598 129.448Z"/>
	<path fill="#9F8BE8" d="M851.072 201.372C854.261 193.433 859.228 185.688 863.264 178.105Q876.009 153.587 889.754 129.615C909.476 135.543 950.619 136.843 969.911 129.312C982.154 154.324 993.833 179.623 1007.6 203.849C996.067 210.158 982.967 213.655 970.116 215.996C931.024 221.565 886.681 220.224 851.072 201.372Z"/>
	<path d="M168.524 328.334C173.767 317.207 175.223 304.356 180.142 292.991C185.944 279.587 196.465 268.377 210.205 263.035C224.293 257.558 239.507 258.563 253.158 264.667C263.115 269.852 269.361 277.274 272.807 287.993Q273.528 290.296 274.047 292.653Q274.566 295.01 274.88 297.402Q275.195 299.795 275.302 302.206Q275.408 304.617 275.307 307.028C275.089 311.346 272.931 318.024 274.202 322.085C275.075 324.874 279.217 327.378 281.541 328.906C290.81 317.601 299.704 306.993 315.197 305.391L315.845 305.327C322.066 298.348 327.666 290.795 331.484 282.216C319.241 272.009 307.389 259.741 305.815 243.036C305.136 235.832 306.736 228.113 311.38 222.425C316.127 216.611 321.958 214.653 329 213.318C335.096 206.921 341.824 202.589 351.026 202.535C357.173 202.5 362.57 204.91 366.816 209.306Q367.938 210.478 369.005 211.701C377.491 210.614 388.065 207.549 395.409 213.495C400.339 217.487 402.855 224.117 403.326 230.322C403.998 239.163 399.585 247.25 397.609 255.659C396.145 261.887 396.047 268.187 395.572 274.528C394.652 286.825 388.616 297.955 380.463 307.088C377.294 310.638 373.688 313.634 368.754 313.985C366.247 314.163 363.664 313.97 361.157 313.801C376.228 318.929 383.968 327.833 390.912 341.992Q393.879 348.174 396.217 354.62C397.762 353.387 399.805 351.388 401.698 350.798C406.451 349.316 432.365 344.906 436.315 345.583C438.57 345.97 439.626 347.869 440.885 349.58C436.938 356.629 432.842 363.635 429.202 370.847C431.307 373.941 435.162 378.359 434.429 382.392C433.842 385.626 431.87 388.756 430.952 391.953C427.736 403.151 428.148 411.118 417.075 418.188C411.118 421.991 405.121 420.046 399.734 423.616C408.602 433.677 421.414 439.595 432.117 447.485L471.814 447.499C483.763 447.49 497.495 446.416 509.127 449.457Q510.227 449.737 511.306 450.09Q512.384 450.443 513.437 450.868Q514.489 451.293 515.51 451.788Q516.532 452.283 517.517 452.846Q518.503 453.408 519.449 454.036Q520.395 454.664 521.296 455.354Q522.197 456.043 523.05 456.792Q523.903 457.541 524.703 458.346C531.078 464.823 533.65 473.084 536.358 481.516L562.282 560.088C567.476 576.062 571.964 592.44 578.107 608.08C590.024 606.731 602.333 606.739 614.335 606.215C636.104 605.266 657.86 604.225 679.656 604.613C763.865 606.116 832.352 622.188 906.529 662.718C929.558 675.3 955.697 692.245 973.886 711.239C983.178 720.941 994.888 734.045 994.498 748.366C993.939 768.899 976.57 786.796 962.65 800.126C932.472 829.024 893.667 854.549 857.758 875.715C842.57 884.668 827.379 893.591 811.692 901.651Q806.741 904.219 801.751 906.708Q796.76 909.198 791.731 911.608Q786.702 914.018 781.635 916.348Q776.568 918.679 771.465 920.929Q766.362 923.179 761.224 925.348Q756.087 927.517 750.915 929.604Q745.744 931.692 740.54 933.697Q735.336 935.703 730.101 937.626Q724.866 939.549 719.601 941.389Q714.337 943.229 709.044 944.986Q703.751 946.743 698.43 948.416Q693.11 950.088 687.764 951.677Q682.418 953.265 677.048 954.769Q671.678 956.273 666.284 957.692Q660.891 959.11 655.475 960.444Q650.06 961.777 644.625 963.025Q639.189 964.272 633.734 965.434Q628.28 966.595 622.807 967.67Q617.335 968.745 611.846 969.734Q606.358 970.723 600.854 971.624Q595.35 972.526 589.833 973.34Q584.316 974.155 578.787 974.882Q573.257 975.609 567.717 976.249Q562.177 976.889 556.628 977.441Q551.078 977.993 545.52 978.457Q539.963 978.922 534.399 979.298Q528.834 979.675 523.265 979.963Q517.695 980.252 512.122 980.452Q506.549 980.652 500.973 980.765Q495.397 980.877 489.82 980.901Q484.243 980.925 478.667 980.861Q473.09 980.797 467.515 980.645Q455.595 980.406 443.687 979.836Q431.778 979.265 419.89 978.365Q408.001 977.464 396.143 976.234Q384.284 975.003 372.464 973.444Q360.644 971.885 348.872 969.998Q337.1 968.111 325.385 965.898Q313.67 963.684 302.021 961.147Q290.372 958.609 278.798 955.749C251.368 948.98 224.259 941.129 198.202 930.093C171.321 918.708 146.277 904.228 121.492 888.91C98.6114 874.769 66.9859 852.364 48.679 833.13C43.0254 827.19 37.1729 820.055 37.5804 811.354C38.4743 792.268 70.0195 779.544 82.9171 767.992C83.0727 767.852 83.2248 767.709 83.3787 767.568C81.6151 760.157 79.5518 749.685 76.9497 742.774C75.0845 737.819 71.8938 733.261 69.7089 728.408C64.6686 717.211 60.168 705.519 56.1632 693.922C30.3556 619.184 22.1823 537.355 42.3961 460.35C48.5833 436.78 68.4054 387.378 87.7562 372.327C96.2729 365.703 107.774 360.987 117.337 356.021Q143.274 342.812 168.524 328.334ZM406.696 397.373C402.528 399.983 399.128 403.79 395.239 406.801C398.706 410.58 402.631 415.264 408.139 415.598C411.496 415.801 413.75 414.287 416.494 412.592C412.142 410.748 405.368 409.478 401.738 406.703L401.443 405.863C402.603 404.888 403.829 404.774 405.289 404.895C409.762 405.268 417.371 410.056 421.209 408.379C421.905 407.264 422.502 406.9 422.201 405.558C419.001 403.465 409.073 401.61 407.453 398.846L407.384 397.794C412.844 396.768 417.996 400.083 423.412 400.427C423.694 400.163 424.024 399.884 424.215 399.542C424.84 398.425 424.791 397.888 424.544 396.726C422.188 393.701 416.498 394.067 413.04 392.594C412.891 392.53 412.745 392.461 412.597 392.395L406.696 397.373ZM293.444 524.97C285.855 525.315 255.877 526.722 250.394 528.906L250.113 529.582C257.293 534.035 292.496 535.334 301.737 533.546C306.224 533.473 310.894 533.166 315.295 534.17C323.275 535.989 330.33 540.548 337.952 543.356C344.687 545.837 351.854 547.525 358.722 549.652C366.256 551.985 373.683 554.814 381.119 557.441C388.037 549.213 398.253 545.683 408.101 542.197C410.733 541.265 414.087 540.409 416.357 538.773C417.224 538.147 417.295 538.112 417.448 537.026C415.271 534.526 410.562 534.655 407.737 532.865C407.049 532.428 406.505 532.101 405.761 531.784C405.446 532.013 404.853 532.467 404.507 532.61C404.417 532.648 403.51 532.844 403.33 532.797C400.696 532.105 397.295 529.756 394.767 528.527Q388.121 525.231 381.098 522.84Q380.279 524.03 379.421 525.192C377.654 527.568 375.947 529.423 372.827 529.465C363.123 529.597 353.01 524.989 343.546 523.045C333.376 520.956 304.003 523.363 293.444 524.97ZM314.979 548.435C315.751 547.021 315.999 545.912 317.489 545.23C319.902 545.571 321.752 546.719 323.872 547.827C327.714 549.837 333.41 557.193 337.223 557.543C336.759 554.861 331.892 550.532 332.237 549.485L333.561 548.498C332.592 545.749 325.105 542.908 322.478 541.662C310.015 535.749 298.645 540.136 285.746 539.467C272.891 538.8 259.374 537.235 246.863 534.217Q243.853 543.725 241.543 553.427C250.374 552.652 259.751 551.224 268.585 551.752C281.429 552.52 296.178 560.095 308.025 564.963C313.043 567.025 317.859 571.051 322.979 572.329C317.853 567.091 311.937 563.499 306.54 558.729C306.817 557.46 307.247 557.125 308.115 556.133C312.285 555.755 320.599 563.632 323.631 566.162C325.743 567.926 327.766 569.743 330.137 571.161C327.111 566.029 313.29 553.137 313.13 552.799C313.068 552.667 313.126 552.505 313.155 552.363C313.352 551.402 314.136 550.675 314.76 549.956C316.97 551.127 319.191 552.272 321.123 553.879C324.043 556.308 331.036 565.253 333.966 565.865L334.461 565.271C334.388 565.028 334.325 564.782 334.242 564.542C332.779 560.307 325.622 554.089 321.813 551.624C319.747 550.287 317.246 549.387 314.979 548.435ZM358.537 222.234C356.045 234.01 354.265 243.406 345.28 252.064C346.997 255.528 349.741 261.841 348.12 265.741C347.832 266.435 347.765 266.462 347.362 266.987C346.086 267.344 345.49 267.476 344.257 266.88C340.024 264.835 335.305 253.495 329.561 255.743C327.567 256.523 326.208 259.38 325.691 261.329C324.798 264.703 326.277 269.278 328.077 272.131C330.174 275.456 333.466 277.652 337.019 279.197C334.509 291.252 326.817 300.463 318.975 309.575C328.421 318.474 337.591 325.543 350.839 327.078C352.643 326.828 354.513 326.807 355.765 325.322C358.28 322.339 357.512 316.333 357.516 312.608C353.908 310.541 349.659 307.156 348.198 303.174C348.35 301.943 348.356 301.896 349.211 301.002C351.781 301.274 357.43 305.942 360.38 307.302C362.878 308.454 365.785 308.963 368.487 309.435C377.063 306.187 383.481 295.705 387.169 287.628C390.283 280.807 390.91 274.056 391.098 266.646C389.687 266.038 388.305 265.633 387.408 264.309C387.129 262.923 387.278 262.382 387.846 261.097C388.667 260.341 389.35 259.832 390.316 259.275C391.736 258.455 392.465 257.483 392.856 255.88C394.394 249.584 391.867 242.247 388.412 236.959C383.393 229.279 374.304 224.569 365.453 222.884C363.188 222.453 360.836 222.325 358.537 222.234ZM261.091 278.424C261.098 297.022 257.67 307.707 244.153 321.145C240.389 324.888 236.281 328.405 231.84 331.32C229.666 328.865 227.117 325.675 223.513 325.631C222.155 325.615 221.256 326.153 220.362 327.13C218.778 328.862 218.563 331.918 218.823 334.12C219.305 338.199 221.321 343.323 224.62 345.953C226.376 347.352 228.485 347.878 230.692 347.444C233.129 346.965 235.634 345.961 238.01 345.189C239.288 353.688 238.814 363.908 242.185 371.807C244.991 372.237 247.785 372.639 250.609 372.936C254.264 373.133 261.969 374.416 265.039 372.262C268.294 369.978 271.437 352.706 271.56 348.42C271.574 347.906 271.545 347.393 271.521 346.88L270.304 346.367C268.806 347.016 268.494 348.034 267.911 349.511L267.653 350.177C267.282 351.121 267.066 351.626 266.206 352.234C264.886 352.434 263.895 352.06 262.813 351.311C260.43 349.66 260.198 346.15 259.768 343.528C266.871 343.329 272.636 342.175 277.732 336.747C278.492 335.937 279.173 335.047 279.844 334.163C274.996 330.786 270.364 328.308 269.376 321.979C268.61 317.068 269.772 311.669 270.085 306.737C270.644 297.949 267.939 284.481 261.091 278.424ZM310.544 310.981C300.523 314.388 292.418 321.793 286.974 330.793C284.707 334.541 282.736 338.656 279.643 341.796C278.832 342.618 278.027 343.443 277.205 344.254Q276.993 347.602 276.557 350.928Q276.122 354.254 275.465 357.544Q274.809 360.834 273.934 364.072Q273.06 367.311 271.971 370.484C270.84 373.681 267.771 375.571 266.692 379.015C264.319 386.588 262.292 394.028 260.767 401.832C270.983 422.969 288.121 438.191 290.633 462.394C298.47 467.29 307.593 472.546 317.212 470.112C320.876 469.185 324.365 467.342 327.812 465.826C347.159 457.319 362.674 444.366 373.206 425.816Q375.184 422.399 376.752 418.775C370.292 417.501 364.776 414.372 361.134 408.709C359.864 406.734 358.988 404.553 358.162 402.366C343.888 409.156 328.32 415.93 315.256 424.837L314.498 425.393C311.891 427.323 305.846 433.683 303.9 434.716C303.523 434.916 302.433 435.092 301.991 435.081L301.283 434.372L301.725 435.056L300.416 434.484C300.045 433.291 300.077 432.771 300.683 431.642C304.092 425.292 315.458 418.523 321.587 414.856C320.644 407.098 317.404 358.716 319.488 355.425C320.721 354.848 320.796 354.894 322.141 355.164C323.149 356.127 323.683 356.581 323.861 358.006C324.538 363.45 324.252 369.378 324.461 374.903Q325.191 393.722 326.189 412.528C334.41 408.62 360.685 397.136 365.444 391.555C370.389 385.756 373.42 377.783 377.095 371.145C379.003 367.699 383.384 364.346 384.706 361.314C385.109 360.389 385.231 359.266 385.353 358.27L386.231 357.276C389.835 357.737 388.88 359.731 392.886 357.455C385.816 341.669 379.527 326.494 362.646 319.387C361.901 323.715 361.334 328.313 357.423 331.046C354.238 333.27 350.319 332.921 346.719 332.127C340.886 330.84 335.302 328.377 330.254 325.207C323.994 321.276 319.106 315.831 313.137 311.731C312.301 311.157 311.543 311.065 310.544 310.981ZM166.363 335.534Q146.685 346.349 126.797 356.774C119.181 360.722 111.352 364.349 103.84 368.484C120.982 369.954 132.533 374.048 145.194 386.154C150.283 391.812 154.385 398.047 158.155 404.647C161.74 393.239 165.842 386.295 174.937 378.41C168.924 376.386 157.179 373.339 154.227 367.369C153.198 365.289 153.385 363.031 154.221 360.921C156.176 355.986 167.56 340.551 166.487 335.643L166.363 335.534ZM187.127 357.407C186.154 361.548 185.456 365.737 184.667 369.915L185.8 370.389L186.017 370.979C185.562 371.313 185.329 371.601 184.759 371.671C185.851 371.918 186.664 371.971 187.779 371.873L189.341 371.156C190.331 368.319 189.542 361.353 188.13 358.684C187.698 357.866 187.812 358.085 187.127 357.407ZM407.865 359.616C398.121 361.42 388.911 362.754 382.763 371.591C377.528 379.115 374.447 388.222 368.627 395.341C366.984 397.35 363.011 399.593 363.286 402.278C363.657 405.912 367.528 409.016 370.378 410.829C372.752 412.34 375.193 413.274 377.918 413.942C384.683 407.308 391.58 401.672 399.587 396.561C404.539 394.392 407.773 389.715 412.239 386.642C410.312 386.647 408.287 386.837 406.458 386.15C405.84 385.154 405.783 385.373 405.901 384.088C409.059 381.223 414.211 381.23 417.217 378.379C416.347 377.433 414.81 377.581 413.547 377.535C409.315 377.38 403.158 378.165 399.426 376.202L399.339 375.507C405.017 371.736 416.945 374.104 421.539 369.361L421.55 368.633C415.323 365.146 403.25 371.455 396.696 368.135C400.307 364.564 408.85 365.102 411.651 360.829C411.059 359.797 410.888 359.906 409.778 359.624C409.095 359.45 408.55 359.508 407.865 359.616ZM103.749 373.683C95.6689 374.455 90.0353 376.187 84.6254 382.658C77.8002 390.822 72.3455 400.578 67.3748 409.949C39.091 463.271 32.1055 526.716 37.7778 586.097C42.1194 631.549 53.2316 677.77 71.4492 719.686C74.7596 727.303 78.0658 735.639 82.6527 742.584C110.28 749.616 131.493 749.458 159.712 749.43Q190.013 749.429 220.306 748.705Q279.211 747.673 338.124 747.592C342.03 732.081 344.921 716.245 349.315 700.876C351.086 694.101 352.966 682.113 356.928 676.428C358.358 674.375 360.401 672.835 362.525 671.564C372.237 665.755 384.221 665.546 393.416 658.763C375.649 644.649 361.031 628.855 358.409 605.35C357.467 596.905 358.029 586.484 363.734 579.683C367.161 575.597 371.41 574.244 376.535 573.685C376.126 569.358 376.458 566.048 377.849 561.926C366.567 557.445 350.724 551.022 338.953 549.03C340.935 551.968 343.182 554.796 343.247 558.482C342.624 559.679 342.437 560.118 341.012 560.488C340.002 560.751 338.677 560.413 337.677 560.23C338.825 561.755 341.331 563.953 341.173 565.926C341.122 566.571 340.965 567.187 340.398 567.55C339.288 568.261 337.782 568.193 336.501 568.279C336.499 569.123 336.655 569.363 336.978 570.126C337.389 571.095 337.576 571.66 337.422 572.733C336.816 573.641 336.589 574.169 335.406 574.385C334.811 574.493 333.913 574.312 333.306 574.261C332.7 574.211 332.254 574.233 331.662 574.361L331.962 576.171C331.182 577.032 330.333 577.524 329.142 577.675C327.703 577.858 326.364 576.792 325.211 576.056C323.883 576.101 323.768 576.102 322.83 577.142C322.38 577.641 321.976 578.333 321.606 578.883C317.293 576.253 313.128 573.269 308.659 570.921C300.219 566.485 280.944 558.449 271.728 557.036C262.44 555.611 251.736 557.713 242.32 558.172C224.295 559.049 170.798 560.801 156.415 548.654C152.97 545.745 151.244 541.527 150.225 537.235C148.019 527.95 148.469 517.346 148.454 507.828C148.406 477.621 149.533 439.304 156.737 410.137C144.32 393.118 136.519 377.976 113.383 374.397C110.178 373.901 106.988 373.748 103.749 373.683ZM425.65 375.307C423.892 377.974 422.365 380.731 420.841 383.536L426.379 385.196C427.762 385.401 427.889 385.475 429.116 384.843C429.929 382.902 429.608 381.025 428.837 379.111C428.147 377.398 427.116 376.372 425.65 375.307ZM187.345 376.001L183.316 378.453C194.694 384.032 204.604 391.554 214.524 399.35C222.467 405.593 238.29 420.672 247.035 423.452C248.333 422.877 249.013 422.778 249.665 421.438C252.175 416.277 244.122 397.318 241.552 392.31Q239.744 388.722 237.291 385.54C227.744 385.053 218.366 383.996 209.04 381.801C202.277 380.21 194.257 375.843 187.345 376.001ZM247.877 377.902C247.375 379.386 246.778 380.726 247.47 382.261C248.076 383.603 255.07 392.193 256.847 394.858L257.309 394.846L257.644 392.88C258.632 388.027 259.904 383.303 261.253 378.542L247.877 377.902ZM178.869 380.936C174.133 385.689 168.81 390.588 165.898 396.741C163.764 401.251 162.731 406.562 161.608 411.416C154.62 441.607 153.489 473.671 153.53 504.58C153.543 513.978 152.083 537.876 159.228 544.701C170.498 555.468 220.691 554.322 236.671 553.484C238.589 545.586 240.243 537.164 243.373 529.64C227.279 527.375 211.824 522.292 195.447 521.684C192.658 521.581 189.82 521.793 187.157 522.679C183.522 523.89 176.585 529.126 173.186 526.326C173.262 524.964 173.591 524.563 174.626 523.665C179.734 519.23 187.944 517.21 194.532 516.827C194.97 508.086 199.306 440.672 200.786 437.291C201.009 436.781 201.463 436.407 201.801 435.965L203.079 435.478C204.88 437.293 204.846 440.037 204.816 442.483C204.686 452.996 203.649 463.911 202.616 474.379C201.456 488.502 199.556 502.848 199.531 517.018C206.984 517.915 214.397 518.917 221.733 520.543C226.933 521.696 232.547 523.709 237.836 524.159C245.2 524.786 253.105 523.468 260.467 522.811Q280.434 520.915 300.431 519.365C305.562 512.722 311.072 506.156 315.871 499.284C313.186 498.061 310.589 497.081 307.717 496.385C303.955 495.474 281.067 492.204 280.46 490.098C279.102 485.383 283.141 476.495 284.135 471.482Q285.06 466.627 285.238 461.687C285.416 455.982 282.661 449.569 280.24 444.504C276.457 436.592 271.152 429.684 266.605 422.234C259.563 410.698 253.582 398.021 244.74 387.715C248.869 395.97 257.982 414.596 254.857 423.606C254.225 425.429 252.946 426.867 251.138 427.582C247.907 428.862 244.252 427.745 241.268 426.337C233.974 422.894 227.506 416.489 221.303 411.37Q211.11 402.91 200.546 394.92C193.617 389.776 185.824 385.936 178.869 380.936ZM386.207 412.357L385.726 412.759C380.527 417.191 379.812 424.789 376.235 430.462Q375.193 432.145 374.086 433.786Q372.979 435.427 371.81 437.024Q370.64 438.621 369.41 440.172Q368.179 441.722 366.889 443.224Q365.6 444.726 364.253 446.176Q362.906 447.627 361.503 449.024Q360.101 450.421 358.646 451.763Q357.19 453.105 355.684 454.389Q354.178 455.673 352.623 456.898Q351.068 458.123 349.467 459.287Q347.865 460.45 346.22 461.551Q344.575 462.652 342.888 463.688Q341.202 464.724 339.476 465.694Q337.75 466.664 335.988 467.566Q334.227 468.468 332.431 469.302Q330.635 470.135 328.809 470.898C322.721 473.466 316.686 475.621 309.977 475.101C307.965 474.944 305.973 474.576 303.992 474.204C306.219 481.248 308.3 489.7 315.418 493.386C322.502 497.054 333.06 496.035 340.88 496.911C346.489 496.113 351.675 493.431 356.754 491.042C373.289 483.263 388.198 474.321 402.247 462.611C408.322 457.548 414.654 449.934 421.897 446.84C422.129 446.741 422.358 446.636 422.588 446.534C412.739 440.332 401.568 433.911 394.292 424.644C391.99 421.711 388.55 414.271 386.207 412.357ZM428.303 452.719L420.997 453.03C407.164 464.564 393.997 476.173 378.327 485.213C370.085 489.968 361.423 493.804 352.84 497.882C365.289 498.999 389.175 497.358 399.798 502.486C401.895 503.499 403.55 505.403 405.167 507.041C421.431 507.514 437.945 505.538 454.214 504.942C461.912 504.661 470.855 503.966 478.334 505.901C480.097 506.358 481.473 507.138 482.704 508.492C485.789 511.881 486.318 521.712 488.008 526.377L518.12 611.549Q521.473 621.159 525.134 630.655C542.539 627.505 559.856 624.328 575.659 615.903Q561.069 573.164 547.147 530.203L534.54 491.512C531.805 483.273 529.497 474.344 525.319 466.721C523.002 462.494 518.907 458.588 514.596 456.456C510.54 454.45 505.924 453.465 501.452 452.975C487.433 451.439 472.674 452.301 458.561 452.374C448.645 452.425 438.155 451.818 428.303 452.719ZM290.069 468.595C288.587 474.897 286.941 481.049 284.946 487.212C290.066 488.867 295.602 489.293 300.908 490.136L304.986 490.812C302.132 484.618 300.04 479.232 298.852 472.473C295.851 471.291 292.956 470.031 290.069 468.595ZM320.992 500.28C317.344 507.04 310.96 512.504 306.338 518.653C317.179 517.961 330.196 516.116 340.894 517.487C347.409 518.322 353.824 520.407 360.155 522.121C363.883 523.131 371.424 525.899 374.728 523.339C374.948 523.169 375.151 522.976 375.343 522.775C375.84 522.254 375.685 522.349 375.719 521.556C373.947 520.131 372.311 519.084 371.162 517.077L371.302 516.123C373.311 514.974 376.589 515.938 378.697 516.53C387.164 518.907 395.136 523.263 402.706 527.646C399.757 524.475 396.284 521.692 393.478 518.442C393.317 518.294 393.157 518.143 392.994 517.996C390.657 515.893 384.085 513.801 382.858 511.531C383.227 510.253 383.13 510.271 384.27 509.613C403.927 509.113 401.591 516.98 414.978 523.414C412.783 519.257 399.281 507.247 395.002 505.996C385.374 503.181 359.138 503.014 348.254 502.489C339.157 502.05 330.071 501.018 320.992 500.28ZM450.791 509.71C437.356 510.574 423.8 511.82 410.344 512.104C413.594 515.14 417.952 518.533 418.4 523.242C418.092 524.044 417.448 525.206 417.332 526.024C417.105 527.618 420.576 534.848 421.145 537.185C432.587 533.061 442.682 528.571 454.696 534.116C460.401 536.75 465.686 541.248 467.717 547.353C469.622 553.079 467.92 558.318 465.207 563.403L464.489 564.733C468.704 571.191 473.866 577.152 477.47 583.977C483.449 595.3 494 628.894 491.444 641.045C490.136 647.258 484.601 652.114 479.534 655.538C476.424 657.55 473.282 659.301 469.976 660.97C475.971 666.663 481.407 672.892 487.349 678.628C491.055 682.207 495.18 685.332 499.145 688.616Q491.513 624.391 485.227 560.021C483.735 546.071 483.154 531.809 481.078 517.963C480.779 515.972 480.56 512.673 478.882 511.422C474.923 508.47 456.06 509.093 450.791 509.71ZM488.487 542.336C488.696 547.666 489.577 552.966 490.163 558.265C491.067 566.434 491.812 574.624 492.616 582.804Q497.122 628.165 502.166 673.469C506.973 673.56 511.916 673.159 515.602 676.861C517.471 678.739 518.355 681.209 518.245 683.843C518.036 688.838 514.577 693.256 510.955 696.405C510.08 697.165 509.115 697.838 508.17 698.508Q512.298 706.101 515.467 714.142Q522.237 704.243 529.422 694.641C538.328 683.427 547.749 671.729 559.219 663.042C551.087 662.969 536.743 663.327 530.603 657.149C528.273 654.804 526.487 651.481 525.244 648.421C522.591 641.89 521.202 634.722 518.854 628.031Q507.544 594.763 495.541 561.738C493.956 557.276 490.834 545.752 488.487 542.336ZM476.357 592.241C475.195 599.126 473.061 604.119 467.131 608.249C462.575 611.423 457.155 613.893 456.08 619.945C455.445 623.517 456.341 626.952 458.551 629.817C462.284 634.658 465.396 634.001 468.75 636.644C469.473 637.213 469.37 638.368 469.373 639.155C468.617 640.056 468.056 640.756 466.812 640.893C463.921 641.211 460.637 638.66 458.709 636.776C457.749 635.839 456.806 634.864 455.933 633.846C453.774 643.167 449.919 650.079 442.486 656.236C440.482 657.48 438.494 658.745 436.418 659.868C451.12 659.351 470.593 659.295 481.513 647.754C485.067 643.998 486.776 639.498 486.603 634.338C486.357 627.004 479.579 598.563 476.357 592.241ZM639.855 609.718L601.2 611.502C594.078 611.798 586.712 611.624 579.651 612.486L581.311 618.961C588.789 626.786 598.386 633.436 608.211 637.968C612.597 639.991 623.286 643.145 626.462 646.232Q626.724 646.492 626.958 646.776Q627.193 647.061 627.397 647.369Q627.601 647.676 627.773 648.002Q627.945 648.329 628.084 648.671Q628.222 649.013 628.324 649.367Q628.427 649.722 628.493 650.085Q628.559 650.448 628.588 650.815Q628.617 651.183 628.609 651.552C628.497 655.041 625.991 658.335 623.463 660.534C622.385 661.471 621.21 662.297 620.042 663.115C640.067 679.724 656.583 698.566 672.335 719.225C685.171 720.205 697.85 720.082 710.71 719.669C714.411 719.55 719.536 718.265 722.896 718.617C725.15 718.852 726.289 720.004 727.88 721.474C746.339 711.714 752.914 704.81 759.144 684.426C762.354 673.922 764.907 652.829 775.237 647.156Q775.671 646.913 776.127 646.715Q776.584 646.516 777.058 646.366Q777.532 646.215 778.019 646.114Q778.506 646.012 779.001 645.961Q779.495 645.909 779.993 645.908Q780.49 645.907 780.985 645.956Q781.48 646.006 781.968 646.106Q782.455 646.205 782.93 646.354C786.754 647.586 789.066 651.152 790.69 654.608C798.391 670.999 795.16 695.852 796.637 713.714C797.7 726.565 804.518 740.835 799.8 753.471C799.031 755.533 797.932 757.419 796.723 759.248C806.857 759.839 817.108 759.745 827.26 759.756C831.938 759.761 837.226 760.219 841.804 759.482C845.722 758.851 849.692 756.981 853.312 755.433C869.299 748.597 882.759 739.462 895.714 727.958C899.731 724.39 906.746 716.322 912.443 716.741C913.895 716.848 915.135 717.486 916.055 718.616C920.422 723.981 916.526 743.116 915.494 750.164C914.797 754.919 913.597 759.596 911.144 763.773C906.562 771.574 898.889 777.581 893.313 784.69C885.51 794.636 881.043 807.208 870.649 814.95C864.487 819.539 857.125 821.751 849.459 820.637C842.983 819.697 837.559 816.314 832.165 812.834C828.275 813.892 824.397 814.959 820.385 815.449C809.913 816.727 798.624 816.086 788.061 815.942Q762.119 815.638 736.248 813.704Q710.377 811.77 684.678 808.213L684.082 808.898C677.904 816.078 672.825 824.303 666.714 831.603Q632.633 872.53 596.39 911.556C587.443 921.28 576.589 934.767 565.88 942.203C558.454 947.359 550.005 950.012 541.062 950.763Q538.908 950.942 536.752 951.089C515.661 970.86 493.786 976.04 465.571 975.134Q459.637 975 453.758 974.183Q447.879 973.366 442.133 971.878C423.531 967.11 396.824 954.513 381.265 943.256C376.262 939.637 371.789 935.445 367.573 930.946C357.791 920.508 345.231 905.6 339.428 892.777C331.099 874.369 332.991 853.426 333.156 833.775C333.298 816.908 333.811 799.346 332.041 782.565C326.581 782.338 323.003 780.343 319.308 776.31C313.05 769.48 308.288 760.471 303.602 752.494L169.467 754.056Q151.171 754.604 132.868 754.499C130.947 759.488 125.322 778.804 121.087 780.49C115.532 782.701 94.5856 783.921 89.5122 781.356C87.4699 780.324 86.7305 778.107 86.1662 776.045Q85.6929 774.286 85.2862 772.51C73.1955 781.159 45.5083 795.227 42.6133 810.12C41.6474 815.089 44.2242 820.059 47.0536 823.975C56.4683 837.008 75.5304 850.647 88.416 860.524C103.777 872.298 119.878 882.661 136.46 892.617C158.944 906.118 181.821 918.397 206.154 928.268C251.893 946.824 309.068 959.022 357.937 966.546Q374.979 969.234 392.124 971.155Q409.269 973.076 426.483 974.226Q443.697 975.376 460.945 975.752Q478.193 976.129 495.441 975.731C514.458 975.398 533.621 974.874 552.569 973.153Q561.649 972.272 570.704 971.157Q579.758 970.042 588.781 968.694Q597.803 967.346 606.788 965.766Q615.773 964.186 624.715 962.375Q633.656 960.563 642.547 958.522Q651.439 956.48 660.275 954.21Q669.111 951.94 677.885 949.443Q686.66 946.946 695.367 944.224Q704.074 941.501 712.708 938.555Q721.342 935.608 729.897 932.44Q738.452 929.272 746.923 925.885Q755.393 922.497 763.774 918.892Q772.154 915.288 780.439 911.468Q788.723 907.648 796.907 903.616Q805.09 899.583 813.167 895.342Q821.243 891.1 829.208 886.651Q852.837 873.755 875.615 859.409Q898.393 845.064 920.232 829.325C942.665 812.82 985.42 780.546 989.937 751.716C991.404 742.354 986.577 733.625 981.125 726.422C950.041 685.352 872.18 647.147 823.877 631.649C797.652 623.235 771.158 617.62 743.87 614.012Q723.275 611.47 702.557 610.296Q681.839 609.121 661.088 609.32C654.174 609.376 646.702 608.952 639.855 609.718ZM576.586 620.56C560.563 628.956 544.343 632.389 526.62 634.993C527.949 641.003 529.211 650.6 534.806 654.091C541.253 658.113 558.316 659.773 565.473 657.775C569.76 656.579 573.725 654.321 577.939 652.873C591.205 649.88 602.998 652.327 614.475 659.56L615.058 659.932C618.07 658.556 622.355 656.524 623.441 653.104C623.807 651.953 623.866 650.797 623.179 649.753C622.466 648.671 619.619 647.743 618.36 647.247C606.326 642.504 596.312 638.328 586.345 629.805C583.338 627.233 579.334 622.56 576.586 620.56ZM778.04 650.399C768.334 658.912 766.72 676.515 762.907 688.365C760.795 694.926 758.156 701.12 754.97 707.224C761.19 708.741 765.525 711.214 768.91 716.905C774.582 726.439 776.897 744.376 777.327 755.431C778.969 757.257 785.787 757.782 788.29 757.858C790.144 757.914 792.068 757.594 793.392 756.167C796.725 752.574 797.049 745.625 796.643 740.962C795.953 733.029 792.79 725.419 792.02 717.483C790.589 702.722 794.208 661.082 782.779 651.82C781.27 650.597 779.934 650.492 778.04 650.399ZM586.247 656.683C565.143 658.965 550.175 676.206 537.566 691.847C530.612 700.472 523.95 711.262 516.943 719.215C524.459 735.347 527.318 754.687 533.177 771.596C541.036 767.236 581.661 746.107 585.309 742.242C586.887 740.571 589.423 733.505 591.053 730.75C592.94 727.455 597.968 716.627 601.615 715.716C601.764 715.679 601.922 715.687 602.075 715.673C605.459 718.499 607.579 723.258 611.314 725.532C613.949 727.135 618.081 728.396 621.098 729.075C628.563 730.755 636.521 731.43 644.098 732.59C655.505 734.336 666.922 736.434 678.402 737.628C662.442 712.804 627.281 664.023 597.409 657.399Q594.661 656.801 591.855 656.621Q589.049 656.441 586.247 656.683ZM398.439 661.942L393.183 665.306C409.851 679.121 459.357 678.056 480.576 680.541L481.368 680.175C480.337 676.917 467.773 665.51 464.871 662.632C443.157 664.665 419.839 667.243 398.439 661.942ZM385.966 668.56C377.527 671.096 368.021 673.125 360.987 678.707C356.425 688.965 353.647 704.158 350.887 715.289C346.156 734.366 339.544 756.887 337.44 776.245C336.302 786.714 338.191 802.223 338.279 813.339C338.422 831.39 336.73 849.994 338.294 867.957C338.869 874.555 340.145 881.079 342.561 887.261C348.984 903.697 369.509 928.635 383.58 939.088C394.05 946.867 406.967 953.2 418.956 958.337C438.477 966.7 465.042 960.263 484.067 952.493C504.001 944.353 520.077 931.511 528.544 911.308C520.072 912.228 512.096 913.567 504.881 907.95C498.746 903.174 494.003 895.901 489.792 889.438C469.244 857.906 460.616 823.924 456.681 786.855C456.393 784.143 455.241 777.111 456.926 775.03C457.457 774.374 457.277 774.599 458.16 774.085L459.71 774.598L459.379 775.031L460.226 775.101L460.432 776.409C464.014 815.206 471.519 852.1 492.834 885.439C496.768 891.593 501.616 899.269 507.234 903.973C511.73 907.738 517.441 907.722 522.981 907.109C545.025 904.673 568.312 888.58 581.792 871.513Q582.6 870.472 583.356 869.392Q584.112 868.313 584.815 867.199Q585.518 866.084 586.167 864.936Q586.815 863.789 587.406 862.611Q587.998 861.434 588.532 860.229Q589.066 859.024 589.541 857.795Q590.016 856.565 590.43 855.314Q590.845 854.063 591.198 852.794Q591.551 851.524 591.843 850.239Q592.134 848.954 592.363 847.656Q592.591 846.358 592.757 845.05Q592.922 843.743 593.024 842.429Q593.126 841.115 593.164 839.798Q593.202 838.481 593.176 837.163Q593.15 835.845 593.06 834.531Q592.97 833.216 592.816 831.907C591.775 823.497 588.322 810.709 581.351 805.205C579.954 804.102 578.347 803.223 576.777 802.395C570.364 812.948 564.684 817.798 552.696 820.696Q549.581 821.448 546.415 821.949L546.343 822.661C545.847 827.941 548.026 845.419 545.873 848.658C544.591 848.613 544.062 848.694 543.231 847.527C539.247 841.932 542.786 825.269 541.868 818.126C540.881 810.456 537.117 801.647 534.942 794.066C527.832 769.281 515.228 718.352 501.877 697.893C498.336 692.466 492.524 688.986 487.237 685.433C462.902 684.682 435.923 683.43 412.131 678.423C406.203 677.175 400.424 674.779 395.021 672.09C392.868 671.019 390.463 669.422 388.198 668.655C387.466 668.407 386.717 668.461 385.966 668.56ZM503.014 678.411C503.666 683.854 504.079 689.283 506.054 694.447C507.331 693.376 508.702 692.334 509.852 691.129C511.307 688.707 513.658 685.222 513.06 682.273C512.784 680.911 512.167 680.133 511.021 679.37C508.911 677.965 505.437 678.363 503.014 678.411ZM751.149 711.929C744.512 717.034 737.933 721.55 730.613 725.628C733.86 733.105 735.66 739.855 736.904 747.873L755.119 751.195C761.058 752.09 767.098 752.899 772.934 754.339C772.295 744.552 769.97 722.942 762.284 716.25C759.063 713.446 755.278 712.496 751.149 711.929ZM909.672 721.337C889.273 739.986 875.457 751.833 848.982 761.972C851.97 775.491 851.69 787.534 844.083 799.551C841.77 803.206 838.946 806.438 836.044 809.63L841.575 812.965C847.463 816.117 853.592 816.964 860.068 814.901C864.778 813.402 868.96 810.499 872.36 806.948C879.222 799.778 882.986 790.241 889.041 782.447C895.023 774.745 904.414 768.553 908.545 759.593C910.802 754.696 914.837 727.146 913.474 722.547C912.354 721.427 911.77 721.3 910.137 721.315C909.982 721.317 909.827 721.33 909.672 721.337ZM601.514 722.832C597.487 727.776 594.02 733.516 591.657 739.445C593.744 738.331 595.86 737.251 597.898 736.049C602.091 733.614 606.153 731.649 610.787 730.203C607.565 727.887 604.701 725.113 601.514 722.832ZM675.863 724.126C678.606 729.12 681.924 733.851 685.035 738.623C700.536 741.626 716.203 744.032 731.65 747.241C730.866 741.719 729.4 728.537 724.441 724.91C722.636 723.59 682.235 724.404 675.863 724.126ZM614.063 734.654C602.57 736.563 586.295 747.736 575.725 753.687C562.307 761.24 548.689 769.231 534.645 775.56L536.427 782.368Q572.457 774.386 609.116 770.148L613.077 766.356C622.313 758.069 632.195 754.298 644.189 751.799C647.91 751.024 651.895 750.032 655.717 750.222C658.311 750.35 660.87 751.18 662.53 753.284C664.164 755.355 664.35 758.353 664.544 760.875C675.529 756.306 686.017 751.149 696.587 745.705C679.089 742.432 661.227 739.875 643.575 737.566C633.911 736.302 623.823 734.564 614.063 734.654ZM703.414 747.125C696.825 752.493 671.244 764.316 662.537 766.503C660.474 773.418 657.578 779.922 654.623 786.489C646.438 804.682 638.739 815.278 620.844 824.942C619.239 825.809 617.63 826.725 615.983 827.507C616.035 835.316 616.2 842.795 610.421 848.853C606.168 853.311 600.039 855.882 594.542 858.417C584.283 879.439 568.623 893.973 547.917 904.743C550.299 920.242 548.15 932.448 540.145 945.943C548.791 944.778 555.905 942.942 563.289 938.135C572.221 932.32 587.025 914.572 594.928 905.985C603.917 896.218 613.161 886.702 621.888 876.696C633.856 862.57 646.56 849.201 658.2 834.767Q665.54 825.834 672.509 816.607C675.966 811.954 679.201 806.695 683.144 802.479C714.546 809.189 759.478 810.903 792.171 811.187C801.199 811.266 810.638 811.813 819.587 810.733C823.626 810.246 828.515 809.243 831.953 807.021C839.514 802.134 843.845 792.946 845.462 784.355C846.812 777.183 845.939 771.064 844.134 764.081C824.649 764.322 804.861 764.43 785.504 761.929C771.24 760.085 757.1 756.661 742.933 754.145C729.841 751.82 716.38 749.962 703.414 747.125ZM83.2457 747.333C84.4153 751.958 89.1549 774.9 92.1794 776.996C94.9545 778.919 115.226 777.207 119.283 776.619C120.102 774.639 120.991 772.662 121.655 770.625C123.499 765.064 125.379 759.555 127.526 754.102C112.279 753.487 98.0179 751.117 83.2457 747.333ZM323.474 752.258L309.198 752.421C313.459 760.056 318.593 769.213 325.095 775.104C327.103 776.516 329.216 778.252 331.812 777.843C334.178 774.377 335.709 757.441 336.724 752.182Q330.099 752.149 323.474 752.258ZM654.045 754.41C654.815 757.141 654.755 758.632 653.279 761.107C649.78 766.975 640.874 773.356 634.259 774.977C633.067 775.269 631.507 775.547 630.372 774.942C629.087 774.258 628.869 773.613 628.392 772.354C629.09 766.509 640.272 762.568 640.106 758.616C634.499 757.547 627.484 761.449 622.937 764.504C613.393 770.914 607.353 780.723 602.444 790.87C603.606 792.107 604.824 793.322 605.857 794.67C611.551 803.579 613.693 812.483 615.518 822.766C635.006 812.085 642.709 802.779 651.422 782.416C654.059 776.251 656.771 769.949 658.617 763.497C659.32 761.039 660.017 758.3 658.963 755.864C657.547 754.575 655.896 754.44 654.045 754.41ZM604.517 775.766C589.654 777.484 574.705 779.799 559.968 782.386C552.693 783.663 545.065 784.734 537.972 786.806C540.189 795.334 541.968 804.6 545.208 812.775L546.715 816.802C554.386 815.871 563.47 813.926 568.485 807.466C574.575 799.622 574.099 788.941 586.938 787.261C590.332 786.817 593.312 787.202 596.591 787.995C597.658 788.253 597.18 788.171 598.314 788.252C598.936 787.432 599.308 786.674 599.72 785.744C601.179 782.449 603.153 779.404 604.791 776.195L604.517 775.766ZM587.667 792.075C583.664 793.421 581.432 795.17 578.508 798.072C585.013 800.403 588.963 805.611 591.841 811.671C598.051 824.743 598.153 838.427 596.205 852.465L599.943 850.943C604.593 848.256 609.26 845.77 610.788 840.215C613.817 829.209 608.98 809.092 603.146 799.474C601.243 796.336 598.607 793.104 594.887 792.163C592.549 791.572 590.036 791.857 587.667 792.075ZM542.557 907.539L533.781 910.233C526.65 930.161 512.259 944.87 493.207 953.87C477.933 961.086 460.942 964.47 444.351 967.059C446.355 967.587 448.347 968.14 450.384 968.523C477.17 972.398 502.493 971.604 525.076 954.656C536.153 946.343 541.832 935.757 543.656 922.106C544.222 917.867 544.89 912.138 543.67 908.016C542.732 907.524 543.13 907.594 542.557 907.539Z"/>
	<path fill="#9F8BE8" d="M856.146 209.338C878.077 218.046 899.871 222.375 923.405 223.567L923.17 377.75C923.114 401.479 923.52 425.236 923.264 448.961C911.157 444.131 898.989 439.464 887.048 434.232L887.017 347.078C887.02 331.717 887.854 315.645 886.708 300.355C886.59 298.784 886.588 297.389 885.485 296.144C883.418 293.811 878.351 292.753 875.41 291.945C876.383 272.124 869.41 245.961 862.988 227.444C860.937 221.529 857.268 215.484 856.146 209.338Z"/>
	<path fill="#CCC2FB" d="M345.28 252.064C354.265 243.406 356.045 234.01 358.537 222.234C360.836 222.325 363.188 222.453 365.453 222.884C374.304 224.569 383.393 229.279 388.412 236.959C391.867 242.247 394.394 249.584 392.856 255.88C392.465 257.483 391.736 258.455 390.316 259.275C389.35 259.832 388.667 260.341 387.846 261.097C387.278 262.382 387.129 262.923 387.408 264.309C388.305 265.633 389.687 266.038 391.098 266.646C390.91 274.056 390.283 280.807 387.169 287.628C383.481 295.705 377.063 306.187 368.487 309.435C365.785 308.963 362.878 308.454 360.38 307.302C357.43 305.942 351.781 301.274 349.211 301.002C348.356 301.896 348.35 301.943 348.198 303.174C349.659 307.156 353.908 310.541 357.516 312.608C357.512 316.333 358.28 322.339 355.765 325.322C354.513 326.807 352.643 326.828 350.839 327.078C337.591 325.543 328.421 318.474 318.975 309.575C326.817 300.463 334.509 291.252 337.019 279.197C333.466 277.652 330.174 275.456 328.077 272.131C326.277 269.278 324.798 264.703 325.691 261.329C326.208 259.38 327.567 256.523 329.561 255.743C335.305 253.495 340.024 264.835 344.257 266.88C345.49 267.476 346.086 267.344 347.362 266.987C347.765 266.462 347.832 266.435 348.12 265.741C349.741 261.841 346.997 255.528 345.28 252.064ZM366.597 245.063C364.368 245.461 360.803 246.195 359.451 248.266C358.807 249.252 359.09 249.749 359.393 250.768C360.092 251.353 360.73 251.862 361.534 252.296C364.059 251.714 366.771 250.893 368.242 248.531C368.911 247.458 368.908 247.252 368.646 246.099C367.952 245.667 367.404 245.239 366.597 245.063ZM385.798 245.918C384.91 247.388 384.62 247.536 384.83 249.302C385.876 250.784 386.98 251.344 388.747 251.624C389.598 251.759 390.459 251.827 391.318 251.885C392.114 250.484 392.412 250.156 392.368 248.5C391.302 246.975 390.093 246.657 388.354 246.331Q387.08 246.101 385.798 245.918ZM378.942 259.174C378.665 260.524 378.287 262.023 378.468 263.405C378.753 265.568 381.984 271.382 380 272.889C378.537 274.001 376.304 273.709 375.356 275.437C376.481 276.625 377.127 276.681 378.667 277.143C380.15 277.024 381.836 277.058 382.927 275.89C384.744 273.946 384.844 270.333 384.494 267.859C384.164 265.529 382.888 260.948 380.696 259.674C380.167 259.366 379.537 259.263 378.942 259.174ZM356.69 280.354C356.117 286.348 357.252 291.772 361.095 296.513C363.167 299.07 366.115 301.58 369.55 301.794C370.952 301.881 372.5 301.586 373.573 300.624C374.43 299.856 374.534 299.467 374.817 298.405C374.25 297.371 373.837 296.841 372.641 296.51C371.637 296.232 370.417 296.261 369.379 296.208C367.457 296.109 366.153 295.812 364.824 294.336C364.018 293.443 363.455 292.358 362.897 291.301L363.772 290.789C368.168 291.331 378.828 293.321 382.422 290.036C383.656 288.909 383.815 287.495 383.787 285.928C379.966 282.717 370.433 283.456 365.559 282.655C362.512 282.155 359.631 281.268 356.69 280.354Z"/>
	<path fill="#9F8BE8" d="M928.167 450.616C927.159 424.138 928.001 397.316 928.117 370.813L928.384 223.712L934.138 223.865L933.939 384.143L934.047 429.316C934.072 436.749 934.879 445.097 933.754 452.395L928.167 450.616Z"/>
	<path d="M361.534 252.296C360.73 251.862 360.092 251.353 359.393 250.768C359.09 249.749 358.807 249.252 359.451 248.266C360.803 246.195 364.368 245.461 366.597 245.063C367.404 245.239 367.952 245.667 368.646 246.099C368.908 247.252 368.911 247.458 368.242 248.531C366.771 250.893 364.059 251.714 361.534 252.296Z"/>
	<path d="M391.318 251.885C390.459 251.827 389.598 251.759 388.747 251.624C386.98 251.344 385.876 250.784 384.83 249.302C384.62 247.536 384.91 247.388 385.798 245.918Q387.08 246.101 388.354 246.331C390.093 246.657 391.302 246.975 392.368 248.5C392.412 250.156 392.114 250.484 391.318 251.885Z"/>
	<path fill="#9F8BE8" d="M731.503 394.309L730.333 254.579C742.238 259.357 754.795 262.858 767.014 266.747L835.135 288.505C849.32 293.009 863.778 297.024 877.658 302.408L877.518 450.341C867.389 447.905 857.199 442.525 847.401 438.803C822.899 429.495 798.28 420.369 773.886 410.791C759.757 405.243 746.184 398.361 731.503 394.309Z"/>
	<path d="M378.667 277.143C377.127 276.681 376.481 276.625 375.356 275.437C376.304 273.709 378.537 274.001 380 272.889C381.984 271.382 378.753 265.568 378.468 263.405C378.287 262.023 378.665 260.524 378.942 259.174C379.537 259.263 380.167 259.366 380.696 259.674C382.888 260.948 384.164 265.529 384.494 267.859C384.844 270.333 384.744 273.946 382.927 275.89C381.836 277.058 380.15 277.024 378.667 277.143Z"/>
	<path fill="#9F8BE8" d="M231.84 331.32C236.281 328.405 240.389 324.888 244.153 321.145C257.67 307.707 261.098 297.022 261.091 278.424C267.939 284.481 270.644 297.949 270.085 306.737C269.772 311.669 268.61 317.068 269.376 321.979C270.364 328.308 274.996 330.786 279.844 334.163C279.173 335.047 278.492 335.937 277.732 336.747C272.636 342.175 266.871 343.329 259.768 343.528C260.198 346.15 260.43 349.66 262.813 351.311C263.895 352.06 264.886 352.434 266.206 352.234C267.066 351.626 267.282 351.121 267.653 350.177L267.911 349.511C268.494 348.034 268.806 347.016 270.304 346.367L271.521 346.88C271.545 347.393 271.574 347.906 271.56 348.42C271.437 352.706 268.294 369.978 265.039 372.262C261.969 374.416 254.264 373.133 250.609 372.936C247.785 372.639 244.991 372.237 242.185 371.807C238.814 363.908 239.288 353.688 238.01 345.189C235.634 345.961 233.129 346.965 230.692 347.444C228.485 347.878 226.376 347.352 224.62 345.953C221.321 343.323 219.305 338.199 218.823 334.12C218.563 331.918 218.778 328.862 220.362 327.13C221.256 326.153 222.155 325.615 223.513 325.631C227.117 325.675 229.666 328.865 231.84 331.32ZM260.775 317.23C259.942 318.881 259.188 320.327 259.868 322.208C260.208 323.148 261.013 323.75 261.946 324.075C262.088 324.125 262.236 324.154 262.382 324.194C263.415 322.778 263.849 321.991 264 320.231C263.526 318.985 263.294 318.387 262.065 317.664C261.694 317.445 261.191 317.338 260.775 317.23Z"/>
	<path d="M362.897 291.301C363.455 292.358 364.018 293.443 364.824 294.336C366.153 295.812 367.457 296.109 369.379 296.208C370.417 296.261 371.637 296.232 372.641 296.51C373.837 296.841 374.25 297.371 374.817 298.405C374.534 299.467 374.43 299.856 373.573 300.624C372.5 301.586 370.952 301.881 369.55 301.794C366.115 301.58 363.167 299.07 361.095 296.513C357.252 291.772 356.117 286.348 356.69 280.354C359.631 281.268 362.512 282.155 365.559 282.655C370.433 283.456 379.966 282.717 383.787 285.928C383.815 287.495 383.656 288.909 382.422 290.036C378.828 293.321 368.168 291.331 363.772 290.789L362.897 291.301Z"/>
	<path fill="#9F8BE8" d="M277.205 344.254C278.027 343.443 278.832 342.618 279.643 341.796C282.736 338.656 284.707 334.541 286.974 330.793C292.418 321.793 300.523 314.388 310.544 310.981C311.543 311.065 312.301 311.157 313.137 311.731C319.106 315.831 323.994 321.276 330.254 325.207C335.302 328.377 340.886 330.84 346.719 332.127C350.319 332.921 354.238 333.27 357.423 331.046C361.334 328.313 361.901 323.715 362.646 319.387C379.527 326.494 385.816 341.669 392.886 357.455C388.88 359.731 389.835 357.737 386.231 357.276L385.353 358.27C385.231 359.266 385.109 360.389 384.706 361.314C383.384 364.346 379.003 367.699 377.095 371.145C373.42 377.783 370.389 385.756 365.444 391.555C360.685 397.136 334.41 408.62 326.189 412.528Q325.191 393.722 324.461 374.903C324.252 369.378 324.538 363.45 323.861 358.006C323.683 356.581 323.149 356.127 322.141 355.164C320.796 354.894 320.721 354.848 319.488 355.425C317.404 358.716 320.644 407.098 321.587 414.856C315.458 418.523 304.092 425.292 300.683 431.642C300.077 432.771 300.045 433.291 300.416 434.484L301.725 435.056L301.283 434.372L301.991 435.081C302.433 435.092 303.523 434.916 303.9 434.716C305.846 433.683 311.891 427.323 314.498 425.393L315.256 424.837C328.32 415.93 343.888 409.156 358.162 402.366C358.988 404.553 359.864 406.734 361.134 408.709C364.776 414.372 370.292 417.501 376.752 418.775Q375.184 422.399 373.206 425.816C362.674 444.366 347.159 457.319 327.812 465.826C324.365 467.342 320.876 469.185 317.212 470.112C307.593 472.546 298.47 467.29 290.633 462.394C288.121 438.191 270.983 422.969 260.767 401.832C262.292 394.028 264.319 386.588 266.692 379.015C267.771 375.571 270.84 373.681 271.971 370.484Q273.06 367.311 273.934 364.072Q274.809 360.834 275.465 357.544Q276.122 354.254 276.557 350.928Q276.993 347.602 277.205 344.254Z"/>
	<path d="M262.382 324.194C262.236 324.154 262.088 324.125 261.946 324.075C261.013 323.75 260.208 323.148 259.868 322.208C259.188 320.327 259.942 318.881 260.775 317.23C261.191 317.338 261.694 317.445 262.065 317.664C263.294 318.387 263.526 318.985 264 320.231C263.849 321.991 263.415 322.778 262.382 324.194Z"/>
	<path fill="#CCC2FB" d="M103.84 368.484C111.352 364.349 119.181 360.722 126.797 356.774Q146.685 346.349 166.363 335.534L166.487 335.643C167.56 340.551 156.176 355.986 154.221 360.921C153.385 363.031 153.198 365.289 154.227 367.369C157.179 373.339 168.924 376.386 174.937 378.41C165.842 386.295 161.74 393.239 158.155 404.647C154.385 398.047 150.283 391.812 145.194 386.154C132.533 374.048 120.982 369.954 103.84 368.484Z"/>
	<path fill="#CCC2FB" d="M187.779 371.873C186.664 371.971 185.851 371.918 184.759 371.671C185.329 371.601 185.562 371.313 186.017 370.979L185.8 370.389L184.667 369.915C185.456 365.737 186.154 361.548 187.127 357.407C187.812 358.085 187.698 357.866 188.13 358.684C189.542 361.353 190.331 368.319 189.341 371.156L187.779 371.873Z"/>
	<path fill="#9F8BE8" d="M377.918 413.942C375.193 413.274 372.752 412.34 370.378 410.829C367.528 409.016 363.657 405.912 363.286 402.278C363.011 399.593 366.984 397.35 368.627 395.341C374.447 388.222 377.528 379.115 382.763 371.591C388.911 362.754 398.121 361.42 407.865 359.616C408.55 359.508 409.095 359.45 409.778 359.624C410.888 359.906 411.059 359.797 411.651 360.829C408.85 365.102 400.307 364.564 396.696 368.135C403.25 371.455 415.323 365.146 421.55 368.633L421.539 369.361C416.945 374.104 405.017 371.736 399.339 375.507L399.426 376.202C403.158 378.165 409.315 377.38 413.547 377.535C414.81 377.581 416.347 377.433 417.217 378.379C414.211 381.23 409.059 381.223 405.901 384.088C405.783 385.373 405.84 385.154 406.458 386.15C408.287 386.837 410.312 386.647 412.239 386.642C407.773 389.715 404.539 394.392 399.587 396.561C391.58 401.672 384.683 407.308 377.918 413.942Z"/>
	<path fill="#9F8BE8" d="M82.6527 742.584C78.0658 735.639 74.7596 727.303 71.4492 719.686C53.2316 677.77 42.1194 631.549 37.7778 586.097C32.1055 526.716 39.091 463.271 67.3748 409.949C72.3455 400.578 77.8002 390.822 84.6254 382.658C90.0353 376.187 95.6689 374.455 103.749 373.683C106.988 373.748 110.178 373.901 113.383 374.397C136.519 377.976 144.32 393.118 156.737 410.137C149.533 439.304 148.406 477.621 148.454 507.828C148.469 517.346 148.019 527.95 150.225 537.235C151.244 541.527 152.97 545.745 156.415 548.654C170.798 560.801 224.295 559.049 242.32 558.172C251.736 557.713 262.44 555.611 271.728 557.036C280.944 558.449 300.219 566.485 308.659 570.921C313.128 573.269 317.293 576.253 321.606 578.883C321.976 578.333 322.38 577.641 322.83 577.142C323.768 576.102 323.883 576.101 325.211 576.056C326.364 576.792 327.703 577.858 329.142 577.675C330.333 577.524 331.182 577.032 331.962 576.171L331.662 574.361C332.254 574.233 332.7 574.211 333.306 574.261C333.913 574.312 334.811 574.493 335.406 574.385C336.589 574.169 336.816 573.641 337.422 572.733C337.576 571.66 337.389 571.095 336.978 570.126C336.655 569.363 336.499 569.123 336.501 568.279C337.782 568.193 339.288 568.261 340.398 567.55C340.965 567.187 341.122 566.571 341.173 565.926C341.331 563.953 338.825 561.755 337.677 560.23C338.677 560.413 340.002 560.751 341.012 560.488C342.437 560.118 342.624 559.679 343.247 558.482C343.182 554.796 340.935 551.968 338.953 549.03C350.724 551.022 366.567 557.445 377.849 561.926C376.458 566.048 376.126 569.358 376.535 573.685C371.41 574.244 367.161 575.597 363.734 579.683C358.029 586.484 357.467 596.905 358.409 605.35C361.031 628.855 375.649 644.649 393.416 658.763C384.221 665.546 372.237 665.755 362.525 671.564C360.401 672.835 358.358 674.375 356.928 676.428C352.966 682.113 351.086 694.101 349.315 700.876C344.921 716.245 342.03 732.081 338.124 747.592Q279.211 747.673 220.306 748.705Q190.013 749.429 159.712 749.43C131.493 749.458 110.28 749.616 82.6527 742.584Z"/>
	<path fill="#CCC2FB" d="M420.841 383.536C422.365 380.731 423.892 377.974 425.65 375.307C427.116 376.372 428.147 377.398 428.837 379.111C429.608 381.025 429.929 382.902 429.116 384.843C427.889 385.475 427.762 385.401 426.379 385.196L420.841 383.536Z"/>
	<path fill="#9F8BE8" d="M183.316 378.453L187.345 376.001C194.257 375.843 202.277 380.21 209.04 381.801C218.366 383.996 227.744 385.053 237.291 385.54Q239.744 388.722 241.552 392.31C244.122 397.318 252.175 416.277 249.665 421.438C249.013 422.778 248.333 422.877 247.035 423.452C238.29 420.672 222.467 405.593 214.524 399.35C204.604 391.554 194.694 384.032 183.316 378.453Z"/>
	<path fill="#CCC2FB" d="M257.644 392.88L257.309 394.846L256.847 394.858C255.07 392.193 248.076 383.603 247.47 382.261C246.778 380.726 247.375 379.386 247.877 377.902L261.253 378.542C259.904 383.303 258.632 388.027 257.644 392.88Z"/>
	<path fill="#CCC2FB" d="M236.671 553.484C220.691 554.322 170.498 555.468 159.228 544.701C152.083 537.876 153.543 513.978 153.53 504.58C153.489 473.671 154.62 441.607 161.608 411.416C162.731 406.562 163.764 401.251 165.898 396.741C168.81 390.588 174.133 385.689 178.869 380.936C185.824 385.936 193.617 389.776 200.546 394.92Q211.11 402.91 221.303 411.37C227.506 416.489 233.974 422.894 241.268 426.337C244.252 427.745 247.907 428.862 251.138 427.582C252.946 426.867 254.225 425.429 254.857 423.606C257.982 414.596 248.869 395.97 244.74 387.715C253.582 398.021 259.563 410.698 266.605 422.234C271.152 429.684 276.457 436.592 280.24 444.504C282.661 449.569 285.416 455.982 285.238 461.687Q285.06 466.627 284.135 471.482C283.141 476.495 279.102 485.383 280.46 490.098C281.067 492.204 303.955 495.474 307.717 496.385C310.589 497.081 313.186 498.061 315.871 499.284C311.072 506.156 305.562 512.722 300.431 519.365Q280.434 520.915 260.467 522.811C253.105 523.468 245.2 524.786 237.836 524.159C232.547 523.709 226.933 521.696 221.733 520.543C214.397 518.917 206.984 517.915 199.531 517.018C199.556 502.848 201.456 488.502 202.616 474.379C203.649 463.911 204.686 452.996 204.816 442.483C204.846 440.037 204.88 437.293 203.079 435.478L201.801 435.965C201.463 436.407 201.009 436.781 200.786 437.291C199.306 440.672 194.97 508.086 194.532 516.827C187.944 517.21 179.734 519.23 174.626 523.665C173.591 524.563 173.262 524.964 173.186 526.326C176.585 529.126 183.522 523.89 187.157 522.679C189.82 521.793 192.658 521.581 195.447 521.684C211.824 522.292 227.279 527.375 243.373 529.64C240.243 537.164 238.589 545.586 236.671 553.484Z"/>
	<path fill="#CCC2FB" d="M648.567 400.532C672.207 395.605 695.764 390.312 719.459 385.647C720.452 385.439 721.181 385.427 722.188 385.541C724.757 388.061 721.867 394.487 723.206 397.832C723.573 398.751 723.868 399.24 724.706 399.78C728.705 402.355 734.028 403.899 738.468 405.656Q751.822 410.881 765.048 416.421Q760.759 417.477 756.625 419.031Q752.491 420.585 748.569 422.616C748.599 425.643 748.945 428.554 749.342 431.549C765.28 438.272 781.699 444.446 797.87 450.594C804.727 453.201 811.713 455.544 818.467 458.402C828.678 455.807 839.292 452.754 848.933 448.53C857.398 451.546 872.233 458.769 880.366 459.691C882.644 459.95 884.573 459.83 886.399 458.34C888.759 454.218 887.469 444.967 887.431 440.047C914.161 451.057 941.475 460.993 968.599 471.003C955.658 475.778 942.087 479.469 928.878 483.463C914.694 487.889 900.519 492.674 886.177 496.546C867.556 489.363 849.108 481.551 830.591 474.091C820.462 470.011 810.163 466.35 800.064 462.207C781.043 454.404 762.197 446.196 743.071 438.641C724.243 431.205 705.596 423.289 686.747 415.927C674.106 410.99 660.535 406.965 648.567 400.532Z"/>
	<path fill="#9F8BE8" d="M395.239 406.801C399.128 403.79 402.528 399.983 406.696 397.373L412.597 392.395C412.745 392.461 412.891 392.53 413.04 392.594C416.498 394.067 422.188 393.701 424.544 396.726C424.791 397.888 424.84 398.425 424.215 399.542C424.024 399.884 423.694 400.163 423.412 400.427C417.996 400.083 412.844 396.768 407.384 397.794L407.453 398.846C409.073 401.61 419.001 403.465 422.201 405.558C422.502 406.9 421.905 407.264 421.209 408.379C417.371 410.056 409.762 405.268 405.289 404.895C403.829 404.774 402.603 404.888 401.443 405.863L401.738 406.703C405.368 409.478 412.142 410.748 416.494 412.592C413.75 414.287 411.496 415.801 408.139 415.598C402.631 415.264 398.706 410.58 395.239 406.801Z"/>
	<path fill="#9F8BE8" d="M642.543 484.68L642.471 403.297C663.006 412.967 684.986 420.342 706.103 428.7C739.782 442.029 773.085 456.368 806.748 469.742C832.506 479.975 858.771 489.256 883.949 500.902Q884.219 546.542 883.998 592.183L877.427 589.069C877.103 567.148 877.392 545.175 877.466 523.25L877.546 503.75C825.821 482.32 773.493 462.344 721.606 441.312L679.771 424.329C671.395 420.87 658.254 414.041 649.848 412.882C648.626 414.088 648.475 415.804 648.319 417.474C647.648 424.63 648.211 432.241 648.231 439.445C648.273 455.302 648.417 471.213 648.035 487.064C646.264 486.155 644.382 485.442 642.543 484.68Z"/>
	<path fill="#9F8BE8" d="M303.992 474.204C305.973 474.576 307.965 474.944 309.977 475.101C316.686 475.621 322.721 473.466 328.809 470.898Q330.635 470.135 332.431 469.302Q334.227 468.468 335.988 467.566Q337.75 466.664 339.476 465.694Q341.202 464.724 342.888 463.688Q344.575 462.652 346.22 461.551Q347.865 460.45 349.467 459.287Q351.068 458.123 352.623 456.898Q354.178 455.673 355.684 454.389Q357.19 453.105 358.646 451.763Q360.101 450.421 361.503 449.024Q362.906 447.627 364.253 446.176Q365.6 444.726 366.889 443.224Q368.179 441.722 369.41 440.172Q370.64 438.621 371.81 437.024Q372.979 435.427 374.086 433.786Q375.193 432.145 376.235 430.462C379.812 424.789 380.527 417.191 385.726 412.759L386.207 412.357C388.55 414.271 391.99 421.711 394.292 424.644C401.568 433.911 412.739 440.332 422.588 446.534C422.358 446.636 422.129 446.741 421.897 446.84C414.654 449.934 408.322 457.548 402.247 462.611C388.198 474.321 373.289 483.263 356.754 491.042C351.675 493.431 346.489 496.113 340.88 496.911C333.06 496.035 322.502 497.054 315.418 493.386C308.3 489.7 306.219 481.248 303.992 474.204Z"/>
	<path fill="#9F8BE8" d="M652.986 486.462L653.056 418.158C658.671 421.014 664.673 423.235 670.478 425.678C685.472 431.988 700.647 437.833 715.601 444.238C715.027 451.666 714.987 459.135 714.839 466.582C710.223 468.424 705.498 469.85 700.752 471.303C684.826 476.375 669.042 481.805 652.986 486.462Z"/>
	<path fill="#9F8BE8" d="M754.861 424.863C759.656 422.642 764.742 420.881 769.667 418.956C772.477 419.003 833.036 441.64 840.836 444.888C835.618 445.657 830.763 446.926 825.723 448.488L820.227 450.072L778.876 434.286C770.887 431.228 762.633 428.418 754.861 424.863Z"/>
	<path fill="#CCC2FB" d="M719.162 469.652C720.051 461.858 719.898 453.797 720.037 445.953C734.036 451.77 748.302 456.925 762.404 462.48Q817.976 483.834 872.841 506.945C872.806 533.424 873.844 560.167 872.578 586.605C866.63 584.498 860.837 581.525 855.093 578.902Q842.283 572.99 829.282 567.51L656.645 490.967C669.543 485.734 683.739 481.81 697.063 477.691C704.413 475.42 712.524 473.623 719.162 469.652Z"/>
	<path fill="#CCC2FB" d="M420.997 453.03L428.303 452.719C438.155 451.818 448.645 452.425 458.561 452.374C472.674 452.301 487.433 451.439 501.452 452.975C505.924 453.465 510.54 454.45 514.596 456.456C518.907 458.588 523.002 462.494 525.319 466.721C529.497 474.344 531.805 483.273 534.54 491.512L547.147 530.203Q561.069 573.164 575.659 615.903C559.856 624.328 542.539 627.505 525.134 630.655Q521.473 621.159 518.12 611.549L488.008 526.377C486.318 521.712 485.789 511.881 482.704 508.492C481.473 507.138 480.097 506.358 478.334 505.901C470.855 503.966 461.912 504.661 454.214 504.942C437.945 505.538 421.431 507.514 405.167 507.041C403.55 505.403 401.895 503.499 399.798 502.486C389.175 497.358 365.289 498.999 352.84 497.882C361.423 493.804 370.085 489.968 378.327 485.213C393.997 476.173 407.164 464.564 420.997 453.03Z"/>
	<path fill="#CCC2FB" d="M284.946 487.212C286.941 481.049 288.587 474.897 290.069 468.595C292.956 470.031 295.851 471.291 298.852 472.473C300.04 479.232 302.132 484.618 304.986 490.812L300.908 490.136C295.602 489.293 290.066 488.867 284.946 487.212Z"/>
	<path fill="#9F8BE8" d="M888.957 500.517C916.838 491.836 945.038 484.208 972.592 474.502L973.236 474.809C974.474 481.702 973.642 495.063 973.637 502.609L973.579 565.765C945.478 574.235 917.823 584.25 889.593 592.268C889.554 592.239 889.509 592.216 889.475 592.18C888.994 591.662 888.768 591.492 888.731 590.75C888.259 581.247 888.865 571.37 888.905 561.829Q889.092 531.173 888.957 500.517Z"/>
	<path fill="#9F8BE8" d="M306.338 518.653C310.96 512.504 317.344 507.04 320.992 500.28C330.071 501.018 339.157 502.05 348.254 502.489C359.138 503.014 385.374 503.181 395.002 505.996C399.281 507.247 412.783 519.257 414.978 523.414C401.591 516.98 403.927 509.113 384.27 509.613C383.13 510.271 383.227 510.253 382.858 511.531C384.085 513.801 390.657 515.893 392.994 517.996C393.157 518.143 393.317 518.294 393.478 518.442C396.284 521.692 399.757 524.475 402.706 527.646C395.136 523.263 387.164 518.907 378.697 516.53C376.589 515.938 373.311 514.974 371.302 516.123L371.162 517.077C372.311 519.084 373.947 520.131 375.719 521.556C375.685 522.349 375.84 522.254 375.343 522.775C375.151 522.976 374.948 523.169 374.728 523.339C371.424 525.899 363.883 523.131 360.155 522.121C353.824 520.407 347.409 518.322 340.894 517.487C330.196 516.116 317.179 517.961 306.338 518.653Z"/>
	<path fill="#CCC2FB" d="M410.344 512.104C423.8 511.82 437.356 510.574 450.791 509.71C456.06 509.093 474.923 508.47 478.882 511.422C480.56 512.673 480.779 515.972 481.078 517.963C483.154 531.809 483.735 546.071 485.227 560.021Q491.513 624.391 499.145 688.616C495.18 685.332 491.055 682.207 487.349 678.628C481.407 672.892 475.971 666.663 469.976 660.97C473.282 659.301 476.424 657.55 479.534 655.538C484.601 652.114 490.136 647.258 491.444 641.045C494 628.894 483.449 595.3 477.47 583.977C473.866 577.152 468.704 571.191 464.489 564.733L465.207 563.403C467.92 558.318 469.622 553.079 467.717 547.353C465.686 541.248 460.401 536.75 454.696 534.116C442.682 528.571 432.587 533.061 421.145 537.185C420.576 534.848 417.105 527.618 417.332 526.024C417.448 525.206 418.092 524.044 418.4 523.242C417.952 518.533 413.594 515.14 410.344 512.104Z"/>
	<path fill="#9F8BE8" d="M293.444 524.97C304.003 523.363 333.376 520.956 343.546 523.045C353.01 524.989 363.123 529.597 372.827 529.465C375.947 529.423 377.654 527.568 379.421 525.192Q380.279 524.03 381.098 522.84Q388.121 525.231 394.767 528.527C397.295 529.756 400.696 532.105 403.33 532.797C403.51 532.844 404.417 532.648 404.507 532.61C404.853 532.467 405.446 532.013 405.761 531.784C406.505 532.101 407.049 532.428 407.737 532.865C410.562 534.655 415.271 534.526 417.448 537.026C417.295 538.112 417.224 538.147 416.357 538.773C414.087 540.409 410.733 541.265 408.101 542.197C398.253 545.683 388.037 549.213 381.119 557.441C373.683 554.814 366.256 551.985 358.722 549.652C351.854 547.525 344.687 545.837 337.952 543.356C330.33 540.548 323.275 535.989 315.295 534.17C310.894 533.166 306.224 533.473 301.737 533.546C300.722 533.218 300.012 533.076 298.944 533.147C292.863 533.555 267.997 534.236 264.025 531.211C264.097 529.891 264.173 529.821 265.001 528.777C270.42 526.362 291.233 525.84 298.29 525.319C296.681 525.138 295.06 525.067 293.444 524.97Z"/>
	<path fill="#CCC2FB" d="M301.737 533.546C292.496 535.334 257.293 534.035 250.113 529.582L250.394 528.906C255.877 526.722 285.855 525.315 293.444 524.97C295.06 525.067 296.681 525.138 298.29 525.319C291.233 525.84 270.42 526.362 265.001 528.777C264.173 529.821 264.097 529.891 264.025 531.211C267.997 534.236 292.863 533.555 298.944 533.147C300.012 533.076 300.722 533.218 301.737 533.546Z"/>
	<path fill="#9F8BE8" d="M314.979 548.435C315.015 549.134 315.165 549.358 314.76 549.956C314.136 550.675 313.352 551.402 313.155 552.363C313.126 552.505 313.068 552.667 313.13 552.799C313.29 553.137 327.111 566.029 330.137 571.161C327.766 569.743 325.743 567.926 323.631 566.162C320.599 563.632 312.285 555.755 308.115 556.133C307.247 557.125 306.817 557.46 306.54 558.729C311.937 563.499 317.853 567.091 322.979 572.329C317.859 571.051 313.043 567.025 308.025 564.963C296.178 560.095 281.429 552.52 268.585 551.752C259.751 551.224 250.374 552.652 241.543 553.427Q243.853 543.725 246.863 534.217C259.374 537.235 272.891 538.8 285.746 539.467C298.645 540.136 310.015 535.749 322.478 541.662C325.105 542.908 332.592 545.749 333.561 548.498L332.237 549.485C331.892 550.532 336.759 554.861 337.223 557.543C333.41 557.193 327.714 549.837 323.872 547.827C321.752 546.719 319.902 545.571 317.489 545.23C315.999 545.912 315.751 547.021 314.979 548.435Z"/>
	<path fill="#CCC2FB" d="M502.166 673.469Q497.122 628.165 492.616 582.804C491.812 574.624 491.067 566.434 490.163 558.265C489.577 552.966 488.696 547.666 488.487 542.336C490.834 545.752 493.956 557.276 495.541 561.738Q507.544 594.763 518.854 628.031C521.202 634.722 522.591 641.89 525.244 648.421C526.487 651.481 528.273 654.804 530.603 657.149C536.743 663.327 551.087 662.969 559.219 663.042C547.749 671.729 538.328 683.427 529.422 694.641Q522.237 704.243 515.467 714.142Q512.297 706.101 508.17 698.508C509.115 697.838 510.08 697.165 510.955 696.405C514.577 693.256 518.036 688.838 518.245 683.843C518.355 681.209 517.471 678.739 515.602 676.861C511.916 673.159 506.973 673.56 502.166 673.469Z"/>
	<path fill="#7645CC" d="M314.76 549.956C315.165 549.358 315.015 549.134 314.979 548.435C317.246 549.387 319.747 550.287 321.813 551.624C325.622 554.089 332.779 560.307 334.242 564.542C334.325 564.782 334.388 565.028 334.461 565.271L333.966 565.865C331.036 565.253 324.043 556.308 321.123 553.879C319.191 552.272 316.97 551.127 314.76 549.956Z"/>
	<path fill="#9F8BE8" d="M455.933 633.846C456.806 634.864 457.749 635.839 458.709 636.776C460.637 638.66 463.921 641.211 466.812 640.893C468.056 640.756 468.617 640.056 469.373 639.155C469.37 638.368 469.473 637.213 468.75 636.644C465.396 634.001 462.284 634.658 458.551 629.817C456.341 626.952 455.445 623.517 456.08 619.945C457.155 613.893 462.575 611.423 467.131 608.249C473.061 604.119 475.195 599.126 476.357 592.241C479.579 598.563 486.357 627.004 486.603 634.338C486.776 639.498 485.067 643.998 481.513 647.754C470.593 659.295 451.12 659.351 436.418 659.868C438.494 658.745 440.482 657.48 442.486 656.236C449.919 650.079 453.774 643.167 455.933 633.846Z"/>
	<path fill="#CCC2FB" d="M579.651 612.486C586.712 611.624 594.078 611.798 601.2 611.502L639.855 609.718C646.702 608.952 654.174 609.376 661.088 609.32Q681.839 609.121 702.557 610.296Q723.275 611.47 743.87 614.012C771.158 617.62 797.652 623.235 823.877 631.649C872.18 647.147 950.041 685.352 981.125 726.422C986.577 733.625 991.404 742.354 989.937 751.716C985.42 780.546 942.665 812.82 920.232 829.325Q898.393 845.064 875.615 859.409Q852.837 873.755 829.208 886.651Q821.243 891.1 813.167 895.342Q805.09 899.583 796.907 903.616Q788.723 907.648 780.439 911.468Q772.154 915.288 763.774 918.892Q755.393 922.497 746.923 925.885Q738.452 929.272 729.897 932.44Q721.342 935.608 712.708 938.555Q704.074 941.501 695.367 944.224Q686.66 946.946 677.885 949.443Q669.111 951.94 660.275 954.21Q651.439 956.48 642.547 958.522Q633.656 960.563 624.715 962.375Q615.773 964.186 606.788 965.766Q597.803 967.346 588.781 968.694Q579.758 970.042 570.704 971.157Q561.649 972.272 552.569 973.153C533.621 974.874 514.458 975.398 495.441 975.731Q478.193 976.129 460.945 975.752Q443.697 975.376 426.483 974.226Q409.269 973.076 392.124 971.155Q374.979 969.234 357.937 966.546C309.068 959.022 251.893 946.824 206.154 928.268C181.821 918.397 158.944 906.118 136.46 892.617C119.878 882.661 103.777 872.298 88.416 860.524C75.5304 850.647 56.4683 837.008 47.0536 823.975C44.2242 820.059 41.6474 815.089 42.6133 810.12C45.5083 795.227 73.1955 781.159 85.2862 772.51Q85.6929 774.286 86.1662 776.045C86.7305 778.107 87.4699 780.324 89.5122 781.356C94.5856 783.921 115.532 782.701 121.087 780.49C125.322 778.804 130.947 759.488 132.868 754.499Q151.171 754.604 169.467 754.056L303.602 752.494C308.288 760.471 313.05 769.48 319.308 776.31C323.003 780.343 326.581 782.338 332.041 782.565C333.811 799.346 333.298 816.908 333.156 833.775C332.991 853.426 331.099 874.369 339.428 892.777C345.231 905.6 357.791 920.508 367.573 930.946C371.789 935.445 376.262 939.637 381.265 943.256C396.824 954.513 423.531 967.11 442.133 971.878Q447.879 973.366 453.758 974.183Q459.637 975 465.571 975.134C493.786 976.04 515.661 970.86 536.752 951.089Q538.908 950.941 541.062 950.763C550.005 950.012 558.454 947.359 565.88 942.203C576.589 934.767 587.443 921.28 596.39 911.556Q632.632 872.53 666.714 831.603C672.825 824.303 677.904 816.078 684.082 808.898L684.678 808.213Q710.377 811.77 736.248 813.704Q762.119 815.638 788.061 815.942C798.624 816.086 809.913 816.727 820.385 815.449C824.397 814.959 828.275 813.892 832.165 812.834C837.559 816.314 842.983 819.697 849.459 820.637C857.125 821.751 864.487 819.539 870.649 814.95C881.043 807.208 885.51 794.636 893.313 784.69C898.889 777.581 906.562 771.574 911.144 763.773C913.597 759.596 914.797 754.919 915.494 750.164C916.526 743.116 920.422 723.981 916.055 718.616C915.135 717.486 913.895 716.848 912.443 716.741C906.746 716.322 899.731 724.39 895.714 727.958C882.759 739.462 869.299 748.597 853.312 755.433C849.692 756.981 845.722 758.851 841.804 759.482C837.226 760.219 831.938 759.761 827.26 759.756C817.108 759.745 806.857 759.839 796.723 759.248C797.932 757.419 799.031 755.533 799.8 753.471C804.518 740.835 797.7 726.565 796.637 713.714C795.16 695.852 798.391 670.999 790.69 654.608C789.066 651.152 786.754 647.586 782.93 646.354Q782.455 646.205 781.968 646.106Q781.48 646.006 780.985 645.956Q780.49 645.907 779.993 645.908Q779.495 645.909 779.001 645.961Q778.506 646.012 778.019 646.114Q777.532 646.215 777.058 646.366Q776.584 646.516 776.127 646.715Q775.671 646.913 775.237 647.156C764.907 652.829 762.354 673.922 759.144 684.426C752.914 704.81 746.339 711.714 727.88 721.474C726.289 720.004 725.15 718.852 722.896 718.617C719.536 718.265 714.411 719.55 710.71 719.669C697.85 720.082 685.171 720.205 672.335 719.225C656.583 698.566 640.067 679.724 620.042 663.115C621.21 662.297 622.385 661.471 623.463 660.534C625.991 658.335 628.497 655.041 628.609 651.552Q628.617 651.183 628.588 650.815Q628.559 650.448 628.493 650.085Q628.427 649.722 628.324 649.367Q628.222 649.013 628.084 648.671Q627.945 648.329 627.773 648.002Q627.601 647.676 627.397 647.369Q627.193 647.061 626.958 646.776Q626.724 646.492 626.462 646.232C623.286 643.145 612.597 639.991 608.211 637.968C598.386 633.436 588.789 626.786 581.311 618.961L579.651 612.486Z"/>
	<path fill="#9F8BE8" d="M526.62 634.993C544.343 632.389 560.563 628.956 576.586 620.56C579.334 622.56 583.338 627.233 586.345 629.805C596.312 638.328 606.326 642.504 618.36 647.247C619.619 647.743 622.466 648.671 623.179 649.753C623.866 650.797 623.807 651.953 623.441 653.104C622.355 656.524 618.07 658.556 615.058 659.932L614.475 659.56C602.998 652.327 591.205 649.88 577.939 652.873C573.725 654.321 569.76 656.579 565.473 657.775C558.316 659.773 541.253 658.113 534.806 654.091C529.211 650.6 527.949 641.003 526.62 634.993Z"/>
	<path fill="#FEFEFE" d="M754.97 707.224C758.156 701.12 760.795 694.926 762.907 688.365C766.72 676.515 768.334 658.912 778.04 650.399C779.934 650.492 781.27 650.597 782.779 651.82C794.208 661.082 790.589 702.722 792.02 717.483C792.79 725.419 795.953 733.029 796.643 740.962C797.049 745.625 796.725 752.574 793.392 756.167C792.068 757.594 790.144 757.914 788.29 757.858C785.787 757.782 778.969 757.257 777.327 755.431C776.897 744.376 774.582 726.439 768.91 716.905C765.525 711.214 761.19 708.741 754.97 707.224Z"/>
	<path fill="#322E32" d="M516.943 719.215C523.95 711.262 530.612 700.472 537.566 691.847C550.175 676.206 565.143 658.965 586.247 656.683Q589.049 656.441 591.855 656.621Q594.661 656.801 597.409 657.399C627.281 664.023 662.442 712.804 678.402 737.628C666.922 736.434 655.505 734.336 644.098 732.59C636.521 731.43 628.563 730.755 621.098 729.075C618.081 728.396 613.949 727.135 611.314 725.532C607.579 723.258 605.459 718.499 602.075 715.673C601.922 715.687 601.764 715.679 601.615 715.716C597.968 716.627 592.94 727.455 591.053 730.75C589.423 733.505 586.887 740.571 585.309 742.242C581.661 746.107 541.036 767.236 533.177 771.596C527.318 754.687 524.459 735.347 516.943 719.215Z"/>
	<path fill="#FEFEFE" d="M393.183 665.306L398.439 661.942C419.839 667.243 443.157 664.665 464.871 662.632C467.773 665.51 480.337 676.917 481.368 680.175L480.576 680.541C459.357 678.056 409.851 679.121 393.183 665.306Z"/>
	<path fill="#FEFEFE" d="M360.987 678.707C368.021 673.125 377.527 671.096 385.966 668.56C386.717 668.461 387.466 668.407 388.198 668.655C390.463 669.422 392.868 671.019 395.021 672.09C400.424 674.779 406.203 677.175 412.131 678.423C435.923 683.43 462.902 684.682 487.237 685.433C492.524 688.986 498.336 692.466 501.877 697.893C515.228 718.352 527.832 769.281 534.942 794.066C537.117 801.647 540.881 810.456 541.868 818.126C542.786 825.269 539.247 841.932 543.231 847.527C544.062 848.694 544.591 848.613 545.873 848.658C548.026 845.419 545.847 827.941 546.343 822.661L546.415 821.949Q549.581 821.448 552.696 820.696C564.684 817.798 570.364 812.948 576.777 802.395C578.347 803.223 579.954 804.102 581.351 805.205C588.322 810.709 591.775 823.497 592.816 831.907Q592.97 833.216 593.06 834.531Q593.15 835.845 593.176 837.163Q593.202 838.48 593.164 839.798Q593.126 841.115 593.024 842.429Q592.922 843.743 592.757 845.05Q592.591 846.358 592.363 847.656Q592.134 848.954 591.843 850.239Q591.551 851.524 591.198 852.794Q590.845 854.063 590.43 855.314Q590.016 856.565 589.541 857.795Q589.066 859.024 588.532 860.229Q587.998 861.434 587.407 862.611Q586.815 863.789 586.167 864.936Q585.518 866.084 584.815 867.199Q584.112 868.313 583.356 869.392Q582.6 870.472 581.792 871.513C568.312 888.58 545.025 904.673 522.981 907.109C517.441 907.722 511.73 907.738 507.234 903.973C501.616 899.269 496.768 891.593 492.834 885.439C471.519 852.1 464.014 815.206 460.432 776.409L460.226 775.101L459.379 775.031L459.71 774.598L458.16 774.085C457.277 774.599 457.457 774.374 456.926 775.03C455.241 777.111 456.393 784.143 456.681 786.855C460.616 823.924 469.244 857.906 489.792 889.438C494.003 895.901 498.746 903.174 504.881 907.95C512.096 913.567 520.072 912.228 528.544 911.308C520.077 931.511 504.001 944.353 484.067 952.493C465.042 960.263 438.477 966.7 418.956 958.337C406.967 953.2 394.05 946.867 383.58 939.088C369.509 928.635 348.984 903.697 342.561 887.261C340.145 881.079 338.869 874.555 338.294 867.957C336.73 849.994 338.422 831.39 338.279 813.339C338.191 802.223 336.302 786.714 337.44 776.245C339.544 756.887 346.156 734.366 350.887 715.289C353.647 704.158 356.425 688.965 360.987 678.707Z"/>
	<path fill="#9F8BE8" d="M506.054 694.447C504.079 689.283 503.666 683.854 503.014 678.411C505.437 678.363 508.911 677.965 511.021 679.37C512.167 680.133 512.784 680.911 513.06 682.273C513.658 685.222 511.307 688.707 509.852 691.129C508.702 692.334 507.331 693.376 506.054 694.447Z"/>
	<path fill="#322E32" d="M730.613 725.628C737.933 721.55 744.512 717.034 751.149 711.929C755.278 712.496 759.063 713.446 762.284 716.25C769.97 722.942 772.295 744.552 772.934 754.339C767.098 752.899 761.058 752.09 755.119 751.195L736.904 747.873C735.66 739.855 733.86 733.105 730.613 725.628Z"/>
	<path fill="#FEFEFE" d="M848.982 761.972C875.457 751.833 889.273 739.986 909.672 721.337C909.827 721.33 909.982 721.317 910.137 721.315C911.77 721.3 912.354 721.427 913.474 722.547C914.837 727.146 910.802 754.696 908.545 759.593C904.414 768.553 895.023 774.745 889.041 782.447C882.986 790.241 879.222 799.778 872.36 806.948C868.96 810.499 864.778 813.402 860.068 814.901C853.592 816.964 847.463 816.117 841.575 812.965L836.044 809.63C838.946 806.438 841.77 803.206 844.083 799.551C851.69 787.534 851.97 775.491 848.982 761.972Z"/>
	<path fill="#9F8BE8" d="M591.657 739.445C594.02 733.516 597.487 727.776 601.514 722.832C604.701 725.113 607.565 727.887 610.787 730.203C606.153 731.649 602.091 733.614 597.898 736.049C595.86 737.251 593.744 738.331 591.657 739.445Z"/>
	<path fill="#CCC2FB" d="M685.035 738.623C681.924 733.851 678.606 729.12 675.863 724.126C682.235 724.404 722.636 723.59 724.441 724.91C729.4 728.537 730.866 741.719 731.65 747.241C716.203 744.032 700.536 741.626 685.035 738.623Z"/>
	<path fill="#9F8BE8" d="M534.645 775.56C548.689 769.231 562.307 761.24 575.725 753.687C586.295 747.736 602.57 736.563 614.063 734.654C623.823 734.564 633.911 736.302 643.575 737.566C661.227 739.875 679.089 742.432 696.587 745.705C686.017 751.149 675.529 756.306 664.544 760.875C664.35 758.353 664.164 755.355 662.53 753.284C660.87 751.18 658.311 750.35 655.717 750.222C651.895 750.032 647.91 751.024 644.189 751.799C632.195 754.298 622.313 758.069 613.077 766.356L609.116 770.148Q572.457 774.386 536.427 782.368L534.645 775.56Z"/>
	<path fill="#322E32" d="M662.537 766.503C671.244 764.316 696.825 752.493 703.414 747.125C716.38 749.962 729.841 751.82 742.933 754.145C757.1 756.661 771.24 760.085 785.504 761.929C804.861 764.43 824.649 764.322 844.134 764.081C845.939 771.064 846.812 777.183 845.462 784.355C843.845 792.946 839.514 802.134 831.953 807.021C828.515 809.243 823.626 810.246 819.587 810.733C810.638 811.813 801.199 811.266 792.171 811.187C759.478 810.903 714.546 809.189 683.144 802.479C679.201 806.695 675.966 811.954 672.509 816.607Q665.54 825.834 658.2 834.767C646.56 849.201 633.856 862.57 621.888 876.696C613.161 886.702 603.917 896.218 594.928 905.985C587.025 914.572 572.221 932.32 563.289 938.135C555.905 942.942 548.791 944.778 540.145 945.943C548.15 932.448 550.299 920.242 547.917 904.743C568.623 893.973 584.283 879.439 594.542 858.417C600.039 855.882 606.168 853.311 610.421 848.853C616.2 842.795 616.035 835.316 615.983 827.507C617.63 826.725 619.239 825.809 620.844 824.942C638.739 815.278 646.438 804.682 654.623 786.489C657.578 779.922 660.474 773.418 662.537 766.503Z"/>
	<path fill="#9F8BE8" d="M119.283 776.619C115.226 777.207 94.9545 778.919 92.1794 776.996C89.1549 774.9 84.4153 751.958 83.2457 747.333C98.0179 751.117 112.279 753.487 127.526 754.102C125.379 759.555 123.499 765.064 121.655 770.625C120.991 772.662 120.102 774.639 119.283 776.619Z"/>
	<path fill="#9F8BE8" d="M309.198 752.421L323.474 752.258Q330.099 752.149 336.724 752.182C335.709 757.441 334.178 774.377 331.812 777.843C329.216 778.252 327.103 776.516 325.095 775.104C318.593 769.213 313.459 760.056 309.198 752.421Z"/>
	<path fill="#9F8BE8" d="M602.444 790.87C607.353 780.723 613.393 770.914 622.937 764.504C627.484 761.449 634.499 757.547 640.106 758.616C640.272 762.568 629.09 766.509 628.392 772.354C628.869 773.613 629.087 774.258 630.372 774.942C631.507 775.547 633.067 775.269 634.259 774.977C640.874 773.356 649.78 766.975 653.279 761.107C654.755 758.632 654.815 757.141 654.045 754.41C655.896 754.44 657.547 754.575 658.963 755.864C660.017 758.3 659.32 761.039 658.617 763.497C656.771 769.949 654.059 776.251 651.422 782.416C642.709 802.779 635.006 812.085 615.518 822.766C613.693 812.483 611.551 803.579 605.857 794.67C604.824 793.322 603.606 792.107 602.444 790.87Z"/>
	<path fill="#322E32" d="M537.972 786.806C545.065 784.734 552.693 783.663 559.968 782.386C574.705 779.799 589.654 777.484 604.517 775.766L604.791 776.195C603.153 779.404 601.179 782.449 599.72 785.744C599.308 786.674 598.936 787.432 598.314 788.252C597.18 788.171 597.658 788.253 596.591 787.995C593.312 787.202 590.332 786.817 586.938 787.261C574.099 788.941 574.575 799.622 568.485 807.466C563.47 813.926 554.386 815.871 546.715 816.802L545.208 812.775C541.968 804.6 540.189 795.334 537.972 786.806Z"/>
	<path fill="#FEFEFE" d="M578.508 798.072C581.432 795.17 583.664 793.421 587.667 792.075C590.036 791.857 592.549 791.572 594.887 792.163C598.607 793.104 601.243 796.336 603.146 799.474C608.98 809.092 613.817 829.209 610.788 840.215C609.26 845.77 604.593 848.256 599.943 850.943L596.205 852.465C598.153 838.427 598.051 824.743 591.841 811.671C588.963 805.611 585.013 800.403 578.508 798.072Z"/>
	<path fill="#FEFEFE" d="M533.781 910.233L542.557 907.539C543.13 907.594 542.732 907.524 543.67 908.016C544.89 912.138 544.222 917.867 543.656 922.106C541.832 935.757 536.153 946.343 525.076 954.656C502.493 971.604 477.17 972.398 450.384 968.523C448.347 968.14 446.355 967.587 444.351 967.059C460.942 964.47 477.933 961.086 493.207 953.87C512.259 944.87 526.65 930.161 533.781 910.233Z"/>
</svg>
