<?xml version="1.0" encoding="utf-8" ?>
<svg xmlns="http://www.w3.org/2000/svg" xmlns:xlink="http://www.w3.org/1999/xlink" width="1024" height="1024">
	<path fill="#9F8BE8" d="M0 0L536.908 0L537.137 629.321L477.609 631.552C465.72 631.948 427.001 631.958 418.806 634.797C416.755 640.282 418.307 651.718 417.777 658.157C416.235 656.64 414.724 655.049 413.076 653.649C413.692 650.276 413.461 649.105 411.494 646.279C407.826 641.011 403.449 636.233 399.789 630.937C382.292 605.619 367.237 576.059 367.735 544.551C367.905 533.749 369.301 522.922 369.962 512.136C370.603 501.667 370.494 491.178 370.356 480.696C381.981 471.649 441.881 419.866 443.018 407.996C443.334 404.703 441.533 401.229 440.29 398.259C445.624 393.174 451.427 388.136 455.852 382.214C462.223 373.69 472.362 349.668 472.46 338.719C472.475 337.043 472.234 334.876 470.762 333.811C469.545 332.931 467.746 333.08 466.38 333.497C463.539 334.364 461.722 337.86 460.154 340.161C460.442 337.113 460.886 334.232 461.707 331.279C463.821 323.678 472.953 301.137 467.774 295.122C466.766 293.951 465.581 293.486 464.043 293.492C462.355 293.5 461.279 293.879 460.142 295.191C459.347 296.109 458.742 297.235 458.073 298.244C457.577 298.992 457.788 298.723 457.028 299.331L456.493 299.256C455.348 299.108 454.115 298.781 453.149 299.568C451.295 301.08 449.56 303.498 448.064 305.372C439.804 315.717 436.624 326.304 436.589 339.494C436.559 351.147 438.55 366.387 429.106 375.442C426.662 377.786 422.855 377.437 419.966 379.141C412.223 383.705 405.005 389.276 397.339 394.012Q384.511 402.019 371.091 408.989Q357.671 415.958 343.743 421.847C341.501 420.476 339.257 419.157 337.203 417.508C336.191 412.124 335.899 406.653 335.606 401.19C344.862 399.953 358.309 398.904 364.55 390.973C369.841 384.247 365.396 377.513 366.966 370.286C367.938 365.814 370.975 362.585 370.2 357.795C369.988 356.483 369.577 355.2 369.185 353.933C372.624 354.073 380.266 355.221 383.084 353.451C384.867 345.434 383.934 335.674 383.949 327.456L384.009 282.92L383.961 96.9459C383.962 87.1136 385.083 12.8433 383.248 7.79806C381.687 6.89461 380.126 6.73534 378.341 6.71244C360.6 6.48481 342.784 6.97951 325.031 6.97972Q260.951 6.52592 196.871 6.95186L154.02 7.01225C146.892 7.01034 136.125 5.92939 129.385 7.67024C129.069 7.75196 128.756 7.84823 128.442 7.93723C126.969 10.6964 127.877 82.5289 127.886 90.6758L127.987 296.182L127.992 337.061C127.986 341.028 127.105 348.086 128.068 351.656C128.253 352.344 128.603 352.885 129.021 353.449C139.179 355.594 157.098 354.255 168.174 354.125C189.917 353.871 211.827 353.564 233.561 353.938C235.988 355.987 238.395 357.946 241.022 359.736C239.405 365.479 237.979 371.19 240.97 376.803C243.383 381.329 247.97 384.516 252.726 386.189C254.088 386.669 255.989 387.088 257.107 387.978C258.234 388.875 258.363 390.327 258.588 391.634C259.011 394.098 259.919 395.361 261.955 396.79C264.678 398.701 268.097 399.548 271.233 400.547C266.323 402.728 260.805 404.203 256.603 407.63C250.418 412.673 246.716 419.938 242.171 426.334C232.027 440.608 222.425 453.247 212.984 468.252C205.67 479.875 197.022 497.135 188.475 507.153C185.789 510.302 179.978 512.021 176.429 514.185C173.042 516.25 169.753 518.695 166.627 521.129C153.985 530.969 142.997 543.401 132.729 555.647C128.96 552.458 124.46 550.351 119.416 550.641Q118.633 550.692 117.859 550.822Q117.085 550.952 116.329 551.16Q115.572 551.367 114.84 551.65Q114.108 551.932 113.408 552.288Q112.709 552.643 112.048 553.067Q111.388 553.491 110.774 553.979Q110.16 554.467 109.598 555.015Q109.037 555.563 108.533 556.165C105.351 559.936 104.069 564.723 103.205 569.473C94.9664 569.401 87.4335 569.309 81.0755 575.559C76.6916 579.868 74.5171 585.871 73.0165 591.707C67.6495 591.354 62.9078 591.403 58.5892 595.174C55.24 598.098 53.6645 602.426 53.4639 606.787C53.3349 609.593 53.94 612.47 54.4524 615.221C47.6411 617.041 42.2868 620.43 38.6815 626.678C36.4675 630.515 35.3398 634.703 35.8186 639.121C28.8032 640.782 21.4618 642.705 17.4713 649.347C15.1198 653.261 14.8439 657.175 14.8599 661.624C8.92602 662.681 4.49117 664.5 0 668.63L0 0Z"/>
	<path d="M536.908 0L541.782 0L542.213 428.303L542.033 566.032C542.047 587.001 541.489 608.153 542.196 629.101L608.306 626.913C618.194 626.604 628.338 626.94 638.174 626.112C639.278 624.235 640.326 622.278 641.616 620.522C641.498 603.943 638.015 587.409 637.165 570.85C613.307 570.112 589.099 572.35 565.303 570.693C565.78 528.06 565.267 485.371 565.331 442.729L565.379 408.056C565.381 401.113 565.121 394.044 565.581 387.117C574.328 385.927 583.613 386.396 592.442 386.309C606.612 386.169 620.833 385.788 634.99 386.484C635.606 380.276 636.315 374.114 637.446 367.974C635.448 366.928 633.621 365.84 631.802 364.504C627.844 369.763 622.824 372.639 616.287 373.493C610.367 374.268 604.632 373.135 599.951 369.287C595.304 365.465 592.116 359.364 591.748 353.347C591.364 347.057 594.06 340.817 598.357 336.3C602.043 332.424 606.838 330.148 612.218 330.082C617.137 330.021 621.227 331.784 625.327 334.29C628.384 337.058 630.789 339.811 632.866 343.38C634.107 337.021 636.12 330.69 637.847 324.442L634.076 322.529C632.785 320.726 631.932 318.66 630.991 316.66C623.076 316.527 568.691 317.179 565.914 315.698C564.784 302.966 565.375 289.809 565.371 277.024L565.432 208.961L565.467 0L570.259 0L570.491 311.572Q601.487 311.4 632.482 311.577C636.913 302.361 646.048 286.866 647.639 277.318C649.031 268.97 648.08 259.223 648.054 250.709L648.033 200.284L648.15 0L653 0L652.945 141.056Q652.527 192.131 652.941 243.206C657.801 229.109 662.758 215.038 676.996 208.031C680.313 206.398 683.919 205.196 687.393 203.931C680.342 202.662 674.822 199.278 670.699 193.329C665.305 185.545 663.971 176.392 665.401 167.153C660.795 162.901 658.055 158.842 655.823 152.984C659.153 144.253 666.522 137.09 673.661 131.324L673.724 0L678.799 0L678.476 128.213C680.622 127.763 682.705 127.333 684.896 127.152C691.056 121.52 697.639 118.484 706.139 118.824C717.904 119.295 727.954 125.31 735.716 133.869C744.45 143.5 750.404 156.372 749.745 169.538C749.227 179.898 744.081 189.82 736.352 196.713C733.597 199.17 730.594 200.99 727.111 202.248C745.052 213.123 750.814 235.62 755.536 254.827C756.162 257.373 756.804 259.919 757.273 262.499C757.897 254.025 757.057 245.252 756.869 236.748Q756.482 215.909 756.62 195.068L756.834 0L761.565 0L762.014 176.531Q761.874 224.834 762.335 273.133C762.502 281.807 764.488 289.906 766.063 298.392C768.283 310.351 770.103 322.562 769.999 334.749C769.876 349.207 767.225 362.856 765.632 377.141C764.814 384.471 765.026 391.911 764.271 399.247C763.73 404.509 762.038 409.819 761.973 415.097C761.847 425.265 762.182 435.468 762.2 445.641L762.231 528.223C762.195 542.347 762.917 556.97 762.04 571.045C750.213 572.186 737.745 571.448 725.821 571.496C728.383 581.029 730.472 591.189 733.963 600.409C739.3 603.53 743.226 609.594 744.852 615.561C745.91 619.445 744.975 621.366 743.122 624.746C758.052 624.32 773.046 623.357 787.978 623.466L787.53 0L792.409 0L793.105 393.856L793.135 531.073C793.115 561.904 792.663 592.792 793.505 623.611C801.363 629.831 809.316 636.152 816.479 643.172L815.53 0L820.525 0L821.104 449.975L821.397 577.192C821.426 600.163 820.542 623.527 821.75 646.46Q846.567 645.894 871.37 644.879L871.466 0L876.522 0L876.849 625.074C889.785 635.003 904.672 643.288 918.58 651.835C923.341 654.76 928.761 657.297 933.138 660.763C934.621 661.938 936.071 663.087 936.371 665.045C937.06 669.547 936.614 674.542 936.599 679.114Q936.496 693.436 936.54 707.759C951.399 719.354 966.892 730.21 981.918 741.606C987.49 745.832 993.295 749.799 998.51 754.466C998.478 772.444 997.982 790.546 998.486 808.51C1007.31 813.982 1015.61 820.773 1024 826.907L1024 833.032C1013.64 826.546 1004.46 818.184 994.091 811.858Q761.644 820.208 529.311 831.38C539.364 841.52 552.177 854.028 563.057 863.142L1024 840.893L1024 845.729L564.119 867.991Q564.229 882.29 564.102 896.588Q641.959 893.245 719.752 888.637L880.071 880.289L964.208 875.404C984.074 874.255 1004.1 872.912 1024 872.512L1024 877.346C1004.22 877.707 984.325 879.197 964.57 880.271L880.501 884.738L704.53 894.173L621.309 898.544Q590.979 900.351 560.621 901.586C551.351 895.425 538.561 882.537 529.501 874.799C509.106 857.379 488.429 840.237 468.187 822.648C454.76 810.98 441.701 798.265 427.62 787.423C414.199 787.461 400.62 788.341 387.206 788.944L335.869 791.239Q341.38 830.085 343.045 869.284C343.46 878.411 344.02 887.578 343.935 896.716C341.751 898.639 339.537 900.283 337.118 901.897C337.76 905.977 338.34 910.016 338.662 914.134C350.838 914.251 375.908 910.453 386.099 915.624C390.004 917.606 392.664 920.747 393.885 924.946C394.988 928.739 394.531 932.405 392.538 935.812C384.405 949.714 354.522 960.725 339.677 964.567C328.783 967.387 305.251 972.423 295.279 966.065C293.531 964.951 292.576 963.415 292.143 961.403C290.191 952.358 296.878 935.38 301.645 927.76C301.422 921.271 300.897 915.057 299.252 908.754C294.947 907.75 290.629 907.032 286.547 905.277C278.994 882.873 274.848 859.073 268.706 836.226C252.975 854.615 238.037 873.747 222.703 892.472C216.245 900.358 209.84 909.319 202.617 916.436C201.566 917.473 200.595 918.545 199.017 918.612C195.651 918.752 192.653 915.43 190.425 913.285L187.363 922.419Q187.933 924.726 188.527 927.027C193.955 948.023 199.857 958.436 218.871 969.681C225.225 973.438 228.292 977.361 230.135 984.51C228.148 986.332 226.117 987.64 223.574 988.584C209.738 993.722 174.964 992.791 161.775 986.682C148.169 980.38 125.06 951.646 120.006 937.69C118.939 934.742 118.175 931.52 118.918 928.403C121.764 916.468 143.017 905.984 151.693 897.371C154.368 894.716 156.806 890.462 158.372 887.016C159.035 885.558 159.613 884.289 159.017 882.695C158.135 882.098 157.356 881.52 156.586 880.783C155.942 877.356 159.4 871.832 160.839 868.746C173.372 841.867 188.619 820.772 203.08 795.516C181.204 796.037 159.342 797.34 137.477 798.186Q68.7191 800.818 0 804.346L0 799.038Q64.2571 796.826 128.479 793.77C154.471 792.669 180.757 792.318 206.666 790.012C216.609 775.884 224.107 759.44 231.007 743.677C221.708 727.351 215.475 707.135 212.135 688.692Q207.842 688.132 203.633 687.12Q199.424 686.107 195.346 684.654C163.859 673.777 111.224 642.425 96.246 611.601C99.3115 598.931 122.226 571.839 130.141 559.13C127.375 558.302 124.416 557.267 121.558 556.888C120.652 556.768 119.762 556.699 118.849 556.686C107.606 556.523 112.938 567.528 106.952 572.857C101.899 577.356 92.7378 572.761 86.1917 577.786C80.3163 582.296 78.7074 589.902 77.7302 596.795C75.8235 596.806 73.9067 596.605 71.9952 596.604C68.0725 596.602 62.7359 598.197 60.0174 601.114C55.8186 605.618 60.7487 611.403 60.3205 616.236C59.8778 621.234 49.1289 621.99 45.8079 625.679C41.2252 630.771 41.0104 637.776 41.2061 644.197C36.0222 645.645 30.0586 645.274 25.4763 648.521C19.9161 652.462 19.9924 661.351 19.0288 667.498C16.3371 667.653 13.4435 667.669 10.8625 668.502C4.91293 670.423 2.67577 676.065 0 681.18L0 668.63C4.49117 664.5 8.92602 662.681 14.8599 661.624C14.8439 657.175 15.1198 653.261 17.4713 649.347C21.4618 642.705 28.8032 640.782 35.8186 639.121C35.3398 634.703 36.4675 630.515 38.6815 626.678C42.2868 620.43 47.6411 617.041 54.4524 615.221C53.94 612.47 53.3349 609.593 53.4639 606.787C53.6645 602.426 55.24 598.098 58.5892 595.174C62.9078 591.403 67.6495 591.354 73.0165 591.707C74.5171 585.871 76.6916 579.868 81.0755 575.559C87.4335 569.309 94.9664 569.401 103.205 569.473C104.069 564.723 105.351 559.936 108.533 556.165Q109.037 555.563 109.598 555.015Q110.16 554.467 110.774 553.979Q111.388 553.491 112.048 553.067Q112.709 552.643 113.408 552.288Q114.108 551.932 114.84 551.65Q115.572 551.367 116.329 551.16Q117.085 550.952 117.859 550.822Q118.633 550.692 119.416 550.641C124.46 550.351 128.96 552.458 132.729 555.647C142.997 543.401 153.985 530.969 166.627 521.129C169.753 518.695 173.042 516.25 176.429 514.185C179.978 512.021 185.789 510.302 188.475 507.153C197.022 497.135 205.67 479.875 212.984 468.252C222.425 453.247 232.027 440.608 242.171 426.334C246.716 419.938 250.418 412.673 256.603 407.63C260.805 404.203 266.323 402.728 271.233 400.547C268.097 399.548 264.678 398.701 261.955 396.79C259.919 395.361 259.011 394.098 258.588 391.634C258.363 390.327 258.234 388.875 257.107 387.978C255.989 387.088 254.088 386.669 252.726 386.189C247.97 384.516 243.383 381.329 240.97 376.803C237.979 371.19 239.405 365.479 241.022 359.736C238.395 357.946 235.988 355.987 233.561 353.938C211.827 353.564 189.917 353.871 168.174 354.125C157.098 354.255 139.179 355.594 129.021 353.449C128.603 352.885 128.253 352.344 128.068 351.656C127.105 348.086 127.986 341.028 127.992 337.061L127.987 296.182L127.886 90.6758C127.877 82.5289 126.969 10.6964 128.442 7.93723C128.756 7.84823 129.069 7.75196 129.385 7.67024C136.125 5.92939 146.892 7.01034 154.02 7.01225L196.871 6.95186Q260.951 6.52593 325.031 6.97972C342.784 6.97951 360.6 6.48481 378.341 6.71244C380.126 6.73534 381.687 6.89461 383.248 7.79806C385.083 12.8433 383.962 87.1136 383.961 96.9459L384.009 282.92L383.949 327.456C383.934 335.674 384.867 345.434 383.084 353.451C380.266 355.221 372.624 354.073 369.185 353.933C369.577 355.2 369.988 356.483 370.2 357.795C370.975 362.585 367.938 365.814 366.966 370.286C365.396 377.513 369.841 384.247 364.55 390.973C358.309 398.904 344.862 399.953 335.606 401.19C335.899 406.653 336.191 412.124 337.203 417.508C339.257 419.157 341.501 420.476 343.743 421.847Q357.671 415.958 371.091 408.989Q384.511 402.019 397.339 394.012C405.005 389.276 412.223 383.705 419.966 379.141C422.855 377.437 426.662 377.786 429.106 375.442C438.55 366.387 436.559 351.147 436.589 339.494C436.624 326.304 439.804 315.717 448.064 305.372C449.56 303.498 451.295 301.08 453.149 299.568C454.115 298.781 455.348 299.108 456.493 299.256L457.028 299.331C457.788 298.723 457.577 298.992 458.073 298.244C458.742 297.235 459.347 296.109 460.142 295.191C461.279 293.879 462.355 293.5 464.043 293.492C465.581 293.486 466.766 293.951 467.774 295.122C472.953 301.137 463.821 323.678 461.707 331.279C460.886 334.232 460.442 337.113 460.154 340.161C461.722 337.86 463.539 334.364 466.38 333.497C467.746 333.08 469.545 332.931 470.762 333.811C472.234 334.876 472.475 337.043 472.46 338.719C472.362 349.668 462.223 373.69 455.852 382.214C451.427 388.136 445.624 393.174 440.29 398.259C441.533 401.229 443.334 404.703 443.018 407.996C441.881 419.866 381.981 471.649 370.356 480.696C370.494 491.178 370.603 501.667 369.962 512.136C369.301 522.922 367.905 533.749 367.735 544.551C367.237 576.059 382.292 605.619 399.789 630.937C403.449 636.233 407.826 641.011 411.494 646.279C413.461 649.105 413.692 650.276 413.076 653.649C414.724 655.049 416.235 656.64 417.777 658.157C418.307 651.718 416.755 640.282 418.806 634.797C427.001 631.958 465.72 631.948 477.609 631.552L537.137 629.321L536.908 0ZM635.444 480.845L634.942 483.821L634.438 484.117C632.841 480.881 632.945 475.848 632.651 472.241Q631.583 458.456 631.455 444.63Q631.327 430.804 632.138 417.001C632.568 408.466 632.977 399.626 634.516 391.217C613.238 390.834 591.623 390.622 570.356 391.378L570.171 566.112L636.992 565.867C635.667 541.56 632.183 511.886 636.825 488.162C639.693 477.693 641.151 466.906 643.744 456.372L651.932 422.684C653.576 415.996 655.617 409.222 656.745 402.43C657.138 400.066 657.665 396.97 656.617 394.747C653.257 397.332 640.617 450.751 639.149 457.924C637.596 465.512 636.511 473.177 635.444 480.845ZM399.192 713.939C400.543 710.439 401.184 704.285 404.504 702.136C405.194 701.689 405.467 701.893 406.215 701.998C410.726 705.776 413.445 720.765 413.721 726.75C413.868 729.933 412.959 734.187 413.937 737.15L414.472 737.238C418.092 733.414 416.248 717.498 415.441 712.36C414.844 708.559 412.869 704.848 414.045 701.047C415.095 700.057 415.094 699.976 416.517 699.854C417.75 700.723 417.776 700.932 418.324 702.358C421.427 716.299 422.392 726.308 420.083 740.553L420.483 740.107C424.956 735.037 426.456 727.249 425.927 720.614C425.7 717.766 423.282 712.247 424.136 709.833C425.214 708.99 425.697 708.747 427.068 708.669C428.57 709.41 429.176 710.283 429.672 711.836C431.106 716.33 431.323 722.304 430.88 727.013C430.678 729.158 428.933 735.796 429.794 737.18C430.372 738.108 431.19 739.235 431.397 740.324C432.039 743.699 431.41 748.498 431.38 752.032Q431.169 767.734 431.128 783.438C446.263 795.971 460.9 809.178 475.723 822.083C482.27 827.784 489.105 833.146 495.656 838.842Q527.115 866.671 559.183 893.798L558.96 867.03C551.921 860.017 523.72 835.669 520.692 829.406Q521.239 806.135 521.009 782.858C512.393 774.502 504.332 765.321 496.131 756.55C489.282 749.225 479.121 739.845 474.136 731.414C475.525 723.785 474.925 715.424 474.913 707.686C474.901 700.269 475.131 692.769 474.691 685.369C458.59 670.21 440.419 656.774 423.527 642.486C423.511 650.187 423.647 657.829 424.025 665.521C434.998 676.299 449.183 696.74 449.386 712.756C449.418 715.23 449.012 720.264 446.969 721.988C446.136 722.691 445.301 721.591 444.54 722.377C441.605 725.406 441.938 740.436 436.067 739.567C434.393 737.694 434.609 735.058 434.729 732.698C434.996 727.453 435.903 721.64 434.725 716.44C433.931 712.934 430.266 708.518 430.288 705.027C430.297 703.74 431.311 703.109 432.147 702.303C432.413 702.434 432.691 702.541 432.945 702.694C437.522 705.461 439.297 715.536 440.684 720.429C440.972 717.996 441.003 712.289 442.251 710.338C442.359 710.169 442.511 710.032 442.64 709.878C442.813 709.671 442.981 709.46 443.156 709.255C443.296 709.09 443.441 708.931 443.584 708.769C442.218 695.639 429.495 679.557 420.914 669.995C417.404 666.084 412.779 661.916 410.083 657.461C410.009 657.338 409.939 657.213 409.867 657.089C404.666 661.902 399.432 666.343 393.535 670.3C396.605 678.265 400.532 689.627 400.278 698.141C400.115 703.629 398.826 708.215 399.192 713.939ZM132.654 11.9825L132.837 247.047C132.83 281.018 132.128 315.146 132.819 349.1L195.888 349.024C207.82 348.995 220.493 348.148 232.329 349.523C231.874 344.934 231.186 340.558 234.367 336.692C235.611 335.179 237.185 333.844 238.625 332.519C226.588 332.365 154.126 333.789 148.598 331.593C147.531 330.07 147.675 328.433 147.695 326.649C148.508 251.403 147.571 176.101 147.739 100.846L147.792 50.7015C147.776 44.831 146.862 33.8048 147.963 28.3949C148.014 28.1471 148.073 27.9014 148.128 27.6546C153.927 25.4523 192.378 26.4649 200.875 26.4553L297.25 26.4741L332.786 26.3761C340.47 26.3118 355.736 24.937 362.691 26.9597C364.847 33.8088 363.541 81.0009 363.585 91.887L364.018 333.744C361.053 333.759 358.101 333.776 355.14 333.612C358.036 340.447 361.175 344.378 366.633 349.394L378.891 349.399L379.005 11.8081L132.654 11.9825ZM152.919 31.2313Q152.456 71.8955 152.69 112.56L242.377 112.494C242.224 85.4591 241.468 58.1977 242.465 31.1871C213.112 31.0049 182.211 30.4101 152.919 31.2313ZM246.983 31.2406C246.496 58.2986 247.001 85.413 246.99 112.479L262.891 112.476Q262.572 71.8984 262.721 31.3204C257.483 31.2649 252.218 31.0932 246.983 31.2406ZM267.546 31.3607L267.508 112.536L327.702 112.52C337.842 112.523 348.676 113.237 358.752 112.375L358.535 31.5414C328.279 30.5474 297.829 31.3319 267.546 31.3607ZM152.86 117.427L152.944 133.479L296.654 133.405C317.299 133.379 337.985 133.671 358.626 133.325L358.633 117.285L152.86 117.427ZM152.796 138.159L152.778 220.503Q197.598 220.175 242.417 220.533L242.435 138.037L152.796 138.159ZM247.402 138.003Q246.93 179.234 247.158 220.467L262.723 220.412L262.526 138.03L247.402 138.003ZM267.39 138.014L267.305 220.405Q313.107 220.229 358.908 220.608L358.879 137.989Q313.135 138.356 267.39 138.014ZM687.488 137.955C682.386 142.383 677.935 148.135 674.139 153.716C676.97 154.874 677.703 151.864 680.299 154.923C680.432 156.13 680.479 156.224 679.627 157.199C678.972 157.948 677.854 158.595 676.858 158.605C675.038 158.623 673.414 157.37 671.929 156.434C670.805 156.869 670.886 157.144 670.291 158.139C670.677 159.163 670.728 159.347 671.793 159.827C675.336 161.424 680.258 161.007 683.284 163.61C683.61 164.725 683.816 165.106 683.175 166.201C682.669 167.067 681.762 167.919 681.09 168.674C680.932 170.711 682.665 171.82 682.123 173.752C680.502 174.227 678.65 173.48 677.216 172.693C676.315 172.199 676.018 171.897 675.68 170.939C676.637 168.898 678.962 167.928 680.888 166.876C680.541 166.136 680.378 166.162 679.71 165.749L680.359 164.061L679.854 163.457C676.974 163.264 672.766 165.119 670.697 162.657C670.422 162.331 670.314 162.034 670.147 161.661C667.728 165.944 668.553 175.894 669.819 180.562C671.395 186.377 676.087 194.494 681.521 197.413C684.284 198.897 687.325 198.569 690.201 197.614C692.203 196.95 694.226 196.244 696.165 195.414C706.294 190.924 707.5 186.185 715.418 180.873C716.625 181.937 717.061 182.697 718.778 182.685C721.308 182.668 724.245 181.298 725.904 179.399C727.269 177.836 727.978 175.907 727.775 173.827C727.635 172.391 727.193 171.289 726.032 170.386C724.706 169.356 722.907 168.92 721.337 168.396C721.202 168.351 721.069 168.301 720.936 168.254C719.048 169.339 717.214 170.425 715.431 171.678C712.538 169.033 703.679 159.347 699.586 159.598C699.445 159.607 699.31 159.655 699.173 159.683C699.161 160.453 699.205 161.179 699.29 161.945C698.991 162.04 698.689 162.125 698.394 162.231C698.172 162.312 697.958 162.413 697.739 162.504C697.844 162.649 697.95 162.793 698.053 162.939C699.159 164.51 699.831 165.678 699.405 167.665C699.116 169.015 698.426 170.118 697.17 170.764C696.367 171.177 695.883 170.935 695.033 170.816C693.848 169.915 693.408 169.559 692.925 168.082C693.196 165.705 695.479 164.653 695.748 162.604C693.798 162.11 691.943 161.792 690.36 160.469C689.805 159.13 689.874 159.095 690.274 157.687C691.884 156.423 693.562 156.616 695.5 156.851C697.986 157.153 700.191 157.852 702.483 158.872C699.826 153.716 692.314 140.444 687.488 137.955ZM708.712 193.971C704.451 196.265 698.826 198.239 695.006 201.081C689.233 205.377 685.482 217.897 683.554 224.524C682.715 227.407 681.544 231.281 681.846 234.234L682.387 234.059C689.505 226.382 693.838 217.269 700.21 209.138C703.169 205.361 706.534 202.358 710.128 199.21C709.952 197.549 709.95 195.546 709.161 194.069L708.712 193.971ZM714.321 202.348L713.721 202.765C709.754 205.581 706.735 209.199 703.859 213.098C699.306 219.27 685.965 242.736 678.876 243.201C677.688 242.673 677.32 242.518 676.685 241.292C673.619 235.374 681.22 216.109 683.523 210.114C670.957 215.318 665.04 225.415 660.026 237.562C653.007 254.562 655.162 271.529 652.82 289.237C650.97 303.221 646.733 315.85 642.228 329.121C640.037 335.574 634.196 353.13 636.9 359.439C638.576 363.348 657.816 369.656 662.567 371.16C680.027 376.69 710.983 382.745 727.628 374.059C731.411 372.085 734.802 369.242 738.158 366.637C734.83 350.844 730.81 334.908 726.56 319.344C724.089 310.723 707.156 255.156 710.22 249.173C710.581 248.467 711.081 248.394 711.747 248.066C713.078 248.336 713.288 248.392 714.283 249.301C715.579 253.575 715.907 258.177 716.767 262.561C717.99 268.804 719.593 275.021 721.22 281.17C729.199 311.324 742.135 349.507 744.641 379.979Q752.238 378.991 759.897 378.798C762.989 361.528 765.152 344.458 764.498 326.871C763.702 305.44 747.909 234.673 736.102 217.574C731.194 210.465 722.947 203.983 714.321 202.348ZM152.908 224.913L152.963 242.421L296.876 242.137C317.468 242.131 338.212 243.064 358.783 242.303C359.362 236.788 359.004 230.951 358.995 225.395Q255.953 224.571 152.908 224.913ZM154.457 246.745L153.348 247.065C152.199 249.404 152.668 319.193 152.659 327.454C161.148 327.49 236.663 328.314 238.54 327.2L238.754 326.392C239.26 321.851 240.528 319.019 242.971 315.184C241.712 307.632 242.47 299.074 242.486 291.393L242.606 246.603C213.263 246.354 183.794 246.237 154.457 246.745ZM247.17 246.685C247.128 254.137 246.13 308.705 247.625 311.282C248.948 311.683 249.16 311.775 250.48 311.42C253.218 309.127 253.234 306.124 254.837 303.185C257.117 299.855 259.532 297.462 262.859 295.143C262.892 279 262.506 262.811 262.759 246.677L247.17 246.685ZM337.005 246.762L267.201 246.975L267.432 293.547C270.577 293.22 273.625 293.016 276.787 293.051C280.253 288.493 284.862 285.32 290.61 284.507C294.795 283.915 299.29 284.691 302.668 287.314C302.786 287.406 302.902 287.501 303.019 287.594C309.526 283.728 314.177 281.843 321.937 282.756C323.879 283.436 326.157 284.07 327.914 285.143C331.358 287.245 339.045 296.242 340.852 299.826C343.555 305.186 342.165 311.251 340.907 316.804C345.001 320.17 348.23 324.514 351.665 328.529L358.993 328.9L358.923 246.658Q347.963 246.597 337.005 246.762ZM646.342 294.975C644.269 298.978 636.289 312.733 637.733 316.742C638.022 317.546 638.734 318.121 639.334 318.687C642.182 316.28 646.245 299.524 646.694 295.512L646.342 294.975ZM463.031 299.252C462.946 299.385 462.859 299.517 462.776 299.65C458.047 307.251 450.41 335.018 447.887 337.406C447.177 337.199 446.793 337.269 446.369 336.592C443.702 332.326 447.495 319.468 448.88 314.989Q449.507 312.992 450.245 311.033C432 338.225 453.061 357.718 430.962 381.042C432.537 383.675 436.402 391.639 438.574 393.154C453.549 378.488 457.546 370.789 464.388 351.422C465.442 348.438 467.657 344.285 467.584 341.167C467.565 340.351 467.543 340.393 467.375 339.722C466.405 339.754 466.258 340.07 465.624 340.761C462.271 344.405 456.22 357.558 452.923 358.971C452.022 358.458 451.832 358.406 451.593 357.316C450.822 353.794 453.166 348.629 453.95 345.093C455.418 338.469 456.202 331.874 458.033 325.279C459.961 318.339 463.072 311.697 464.314 304.583C464.652 302.646 464.926 301.362 463.871 299.651L463.031 299.252ZM339.071 321.44C337.938 325.936 337.033 330.387 336.867 335.034C341.473 339.506 345.942 344.222 346.077 351.088C346.178 356.199 343.482 359.946 339.967 363.378C338.224 365.081 336.349 366.674 334.65 368.417C334.601 376.441 334.195 383.909 328.188 390.002C324.558 393.683 320.162 395.132 315.146 395.719C313.656 397.062 311.901 398.9 310.071 399.729C308.213 400.571 301.723 401.484 301.019 402.972C304.087 404.888 308.551 405.389 312.027 406.53C316.013 407.837 319.927 409.458 323.836 410.981C326.493 412.209 329.178 413.383 331.713 414.854C330.977 409.578 330.261 404.285 330.147 398.95C330.322 398.831 330.495 398.71 330.671 398.593C337.802 393.833 359.479 395.272 361.701 385.535C362.975 379.952 361.313 373.525 361.502 367.817C363.021 365.304 364.659 362.8 366.02 360.201C365.444 358.484 364.893 356.547 363.954 354.993C361.85 351.512 358.216 348.723 355.739 345.457C350 337.889 346.623 327.571 339.071 321.44ZM609.27 335.549C604.535 337.186 600.617 339.747 598.335 344.362C596.396 348.283 596.237 352.971 597.648 357.085Q597.791 357.508 597.955 357.923Q598.119 358.338 598.304 358.744Q598.489 359.15 598.695 359.546Q598.9 359.943 599.125 360.328Q599.35 360.713 599.595 361.087Q599.839 361.46 600.102 361.821Q600.365 362.181 600.646 362.528Q600.927 362.875 601.225 363.207Q601.523 363.539 601.837 363.856Q602.152 364.173 602.482 364.473Q602.812 364.773 603.157 365.057Q603.502 365.34 603.861 365.605Q604.219 365.871 604.591 366.118Q604.963 366.365 605.347 366.592Q605.73 366.82 606.125 367.028Q606.52 367.236 606.925 367.424C610.973 369.292 614.281 369.156 618.491 368.259C624.038 365.706 628.245 362.827 630.357 356.784C631.378 353.863 631.52 350.994 631.633 347.942C626.234 342.289 621.063 335.562 612.517 335.428C611.435 335.411 610.349 335.479 609.27 335.549ZM738.417 373.364C736.443 376.612 731.278 382.069 730.225 385.229C731.099 385.67 730.7 385.624 731.375 385.593C733.63 385.586 737.027 386.025 739.074 385.119C740.728 382.46 739.967 377.497 739.167 374.57C738.977 373.871 738.979 374.044 738.417 373.364ZM424.418 382.365C406.806 393.884 389.613 405.108 370.904 414.887C363.158 418.936 355.083 423.121 346.674 425.582C358.994 439.662 365.588 448.629 368.327 467.878C368.641 470.003 369.029 472.142 369.262 474.276C377.336 469.173 384.255 462.359 391.312 455.971C408.183 440.702 424.028 425.53 438.516 407.926C435.899 400.331 431.166 386.977 424.418 382.365ZM746.494 384.664C740.481 395.539 728.562 400.754 724.974 413.108C727.895 411.151 732.86 406.535 736.514 407.461C738.567 407.982 740.029 410.118 741.185 411.768C739.625 418.125 737.258 422.666 733.109 427.751L733.598 428.259C737.963 427.326 740.267 423.165 742.742 419.778L743.852 418.4L744.032 418.938C742.309 422.015 740.347 425.045 738.763 428.185C740.483 427.197 742.467 426.203 743.87 424.788C745.683 422.96 747.603 417.639 749.493 416.672C748.804 419.67 747.332 422.571 745.93 425.303C757.223 414.886 758.958 402.529 759.558 387.888Q759.63 386.108 759.675 384.328Q753.078 384.25 746.494 384.664ZM715.342 391.202C714.878 391.398 714.34 391.47 713.951 391.789C710.262 394.806 693.802 427.724 691.102 434.032L691.259 434.741C692.437 440.234 692.09 445.936 693.333 451.382C697.254 468.56 702.529 485.504 707.242 502.482C713.123 523.671 718.597 544.958 724.778 566.063L757.147 566.127L757.067 551.33Q756.72 485.373 757.177 419.421C753.607 425.208 748.238 430.674 741.318 432.206C738.069 432.926 730.945 433.491 728.096 431.705C727.121 431.094 726.552 430.516 726.537 429.309C726.474 424.185 737.863 417.43 733.97 412.101C730.557 412.792 727.543 418.642 723.256 416.11C721.867 415.29 721.134 413.743 720.939 412.196C720.481 408.586 722.453 404.866 724.669 402.157C727.894 398.213 731.639 394.287 735.431 390.888C728.742 390.907 722.02 390.794 715.342 391.202ZM273.239 405.876C257.103 429.368 247.578 461.915 242.506 489.673C253.552 479.96 263.407 469.14 274.716 459.646C292.779 444.473 311.323 431.035 333.673 422.835C323.082 415.163 305.178 407.716 292.045 406.992C284.344 406.568 281.377 408.102 273.239 405.876ZM264.306 408.916C248.993 416.899 237.698 449.978 232.718 465.792C230.727 472.116 221.265 501.762 223.835 506.612C224.125 507.161 224.659 507.717 225.054 508.178C228.484 504.588 231.983 500.978 235.175 497.174C239.727 475.405 244.874 454.59 252.875 433.8C254.395 429.851 265.099 410.235 265.16 409.217L264.306 408.916ZM337.768 426.943C327.382 431.066 317.496 435.556 307.958 441.421C287.855 453.783 260.255 478.742 243.97 496.059C237.064 503.403 230.735 511.279 223.969 518.751C211.376 532.658 198.126 546.407 186.979 561.517C173.321 580.032 161.685 599.735 149.535 619.235C167.486 639.269 188.361 656.376 207.709 675.007C209.909 677.259 212.195 679.461 214.188 681.9L228.955 612.429C233.406 591.437 246.066 542.402 241.667 522.557C238.586 526.171 235.54 529.781 232.703 533.593C231.025 535.85 229.502 538.553 227.571 540.583C226.744 541.453 225.873 541.926 224.749 542.349L223.568 542.244C222.879 541.178 222.686 540.53 222.881 539.24C223.558 534.786 228.605 530.145 231.423 526.794C247.938 507.156 267.074 490.116 286.953 473.979C296.902 465.902 306.881 457.912 317.713 451.031C328.573 444.132 336.737 440.637 348.314 435.223C345.978 432.996 340.927 427.526 337.768 426.943ZM689.13 437.816C683.879 450.533 680.965 464.528 677.808 477.888C675.402 488.068 672.532 498.87 671.581 509.291C670.084 525.697 670.774 542.777 669.676 559.323C668.86 571.626 666.754 583.703 665.625 595.949L666.09 596.132C674.093 577.095 674.214 549.976 674.458 529.511C674.539 522.704 673.723 515.34 674.883 508.649C676.812 497.517 691.26 444.495 689.13 437.816ZM351.59 439.999C317.834 451.287 271.911 491.834 246.701 517.457C250.541 549.243 240.489 578.598 235.22 609.512C265.221 629.274 310.681 649.424 347.266 646.28C340.855 639.702 333.901 633.739 328.351 626.356C308.989 600.602 308.049 567.136 308.481 536.305Q308.667 526.162 309.165 516.03C309.449 510.647 309.374 490.614 312.132 487.434C312.453 487.064 312.728 486.96 313.13 486.752C314.345 486.929 314.356 486.964 315.212 487.851C316.232 492.068 314.415 518.788 314.104 524.629C312.52 554.469 311.481 588.913 327.404 615.48C331.963 623.087 338.149 629.953 344.444 636.176Q347.785 639.505 351.32 642.627Q354.855 645.749 358.571 648.654Q362.287 651.559 366.17 654.236Q370.053 656.913 374.089 659.353C378.64 662.152 383.468 664.491 388.247 666.873C395.677 663.258 403 657.144 408.087 650.627C385.411 620.6 363.96 588.839 362.637 549.758C362.199 536.809 364.019 523.503 364.755 510.554C365.696 494.008 366.127 476.123 361.464 460.045C360.35 456.207 355.682 441.245 351.59 439.999ZM233.345 447.412C219.922 464.865 209.032 484.481 198.123 503.546L198.322 504.181L198.609 504.315C205.14 503.578 211.149 503.171 217.68 504.26C219.283 490.44 223.909 476.206 228.052 462.923C229.224 459.163 233.326 450.948 233.345 447.412ZM202.691 509.669C178.362 512.715 152.986 538.981 138.354 557.784C126.358 573.201 114.403 589.601 104.064 606.184C112.644 608.345 121.347 609.942 129.859 612.379Q137.376 614.534 144.811 616.956C157.538 596.691 169.279 575.776 183.618 556.565C189.638 548.501 196.571 541.018 203.214 533.464C205.297 531.096 221.596 513.717 221.763 513.086C221.839 512.796 221.753 512.486 221.748 512.186C219.6 509.785 214.309 509.575 211.198 509.393C208.46 509.233 205.401 509.232 202.691 509.669ZM678.993 545.89C678.174 552.951 678.49 560.158 678.046 567.258C681.503 567.259 684.96 567.302 688.411 567.083L688.816 566.319C686.22 559.854 683.239 551.338 678.993 545.89ZM677.374 571.982C676.404 579.338 675.209 586.634 673.002 593.738C669.589 604.729 664.821 614.922 662.42 626.264C673.958 626.007 685.524 625.398 697.06 625.408C700.088 624.92 709.971 613.727 712.093 610.831C704.25 598.462 698.748 585.234 691.817 572.415Q684.594 572.245 677.374 571.982ZM728.165 605.095C723.89 606.097 719.748 607.318 715.625 608.833C715.661 609.052 715.701 609.27 715.733 609.49C716.127 612.25 715.68 613.955 714.795 616.533L715.212 617.347C717.096 617.842 718.969 617.6 720.889 617.472C725.576 616.48 730.7 615.079 733.371 610.67C733.977 609.669 734.153 608.929 734.064 607.778C733.126 606.34 732.565 606.236 731.062 605.589C729.98 605.123 729.374 604.874 728.165 605.095ZM101.579 610.863C105.221 619.111 112.857 626.333 119.433 632.326Q123.398 635.979 127.528 639.444Q131.658 642.909 135.944 646.179Q140.23 649.449 144.663 652.517Q149.097 655.584 153.667 658.443Q158.238 661.302 162.937 663.945Q167.635 666.589 172.451 669.011Q177.267 671.434 182.191 673.63Q187.114 675.827 192.134 677.793C197.016 679.676 203.4 682.351 208.643 682.683C194.803 670.258 180.987 657.862 167.558 644.985C160.979 638.676 154.84 631.781 148.127 625.645C146.583 624.233 145.192 623.083 143.252 622.246C135.314 618.821 110.102 611.503 101.579 610.863ZM233.984 615.162C229.212 635.221 225.387 655.498 220.638 675.574C225.543 677.799 229.702 681.483 234.443 684.035C240.33 687.205 247.157 689.141 252.768 692.701C251.079 706.292 246.216 720.115 241.182 732.807Q235.315 747.549 228.262 761.761Q221.21 775.973 213.018 789.561C200.48 810.063 187.057 829.905 175.437 850.972C170.826 859.333 166.126 867.871 162.757 876.826C176.116 880.793 192.468 892.171 199.088 904.66C200.081 906.534 200.677 908.622 201.299 910.642C206.802 903.335 212.906 896.523 218.586 889.358C232.238 871.921 246.625 855.055 260.546 837.828C266.54 830.411 272.822 823.119 278.308 815.312C296.113 789.976 307.444 759.931 317.547 730.876C326.631 704.752 334.517 678.795 341.084 651.924C300.35 649.583 268.44 636.289 233.984 615.162ZM739.436 617.995C725.322 626.312 712.298 636.242 697.179 642.911C694.35 644.159 685.431 645.839 684.203 648.202L684.639 649.162C697.197 651.613 714.482 638.213 724.435 631.529C729.609 628.054 735.957 624.139 739.382 618.816L739.436 617.995ZM726.344 620.082C724.601 620.639 722.763 621.291 720.937 621.47C717.934 621.764 710.506 620.182 708.748 622.565C709.333 623.56 709.607 623.631 710.646 624.176C712.506 625.047 714.395 625.879 716.208 626.843C718.971 625.307 725.004 622.865 726.75 620.294L726.344 620.082ZM644.562 623.332C643.427 627.869 642.284 630.594 638.948 633.987C639.904 635.921 640.847 637.85 641.921 639.722C644.009 640.98 647.519 643.202 649.964 643.329L650.128 642.565C651.502 642.55 653.322 642.82 654.45 641.943C654.971 637.995 653.879 631.519 656.276 628.38C654.161 625.552 647.834 624.75 644.562 623.332ZM706.013 624.554C704.631 625.844 703.215 627.11 701.866 628.435C703.675 629.46 705.194 630.538 706.757 631.909L707.221 631.96C709 630.974 710.859 630.049 712.488 628.824Q709.263 626.67 706.013 624.554ZM769.095 628.75Q752.886 629.484 736.662 629.645C724.163 638.569 699.628 657.406 683.631 654.395C682.272 654.14 680.756 653.635 679.853 652.521C678.709 651.109 678.891 649.061 679.302 647.412C680.949 640.801 689.067 634.456 693.936 629.988Q677.26 630.956 660.557 631.096C660.532 633.039 660.305 635.445 660.854 637.316C662.105 641.582 667.704 650.065 663.482 654.072C657.042 660.186 615.41 662.034 605.858 661.383C601.912 661.115 594.557 660.264 592.093 656.893C591.104 655.541 590.815 654.183 591.207 652.573C591.903 649.719 594.23 648.062 596.667 646.683C607.17 640.742 620.252 638.824 630.054 631.491Q528.706 634.113 427.41 638.292C443.473 652.824 460.823 665.897 476.846 680.452C480.857 679.957 484.857 679.957 488.876 679.654L923.517 662.075C918.396 657.804 912.445 654.406 906.791 650.881C896.618 644.541 886.279 638.423 876.415 631.608C876.444 635.192 877.444 646.351 875.507 648.81C873.991 650.734 824.891 651.439 818.49 651.56C809.208 643.909 800.342 635.74 790.748 628.471C783.553 628.462 776.28 628.317 769.095 628.75ZM698.81 631.312C697.048 632.96 690.024 638.729 689.92 640.666C690.682 640.377 691.436 640.121 692.155 639.734C695.71 638.072 699.882 636.579 702.888 634.047L703.121 632.967C702.079 631.913 700.286 631.42 698.81 631.312ZM633.409 636.924C632.037 637.588 631.119 637.695 630.471 639.11C631.307 642.242 634.296 644.548 636.503 646.833C638.944 646.475 641.393 646.145 643.828 645.755C645.017 645.514 646.354 645.416 647.375 644.751L646.607 644.552C641.224 643.116 638.563 638.647 633.409 636.924ZM624.977 639.645L623.45 640.797C623.249 642.629 623.74 644.27 624.903 645.698C625.813 646.816 626.687 647.832 628.202 647.943C628.85 647.991 629.759 647.798 630.382 647.717L631.605 647.1C631.427 644.767 628.825 642.69 627.13 641.24C626.425 640.637 625.76 640.134 624.977 639.645ZM618.347 642.931C616.625 643.792 615.779 643.994 614.723 645.64C614.959 646.927 615.059 647.19 616.288 647.897C617.239 648.445 618.071 648.416 619.111 648.263L621.863 648.353L622.502 647.585C622.161 645.655 620.714 644.411 619.309 643.093L618.347 642.931ZM657.306 648.603C647.815 651.408 624.407 653.512 614.223 653.181C609.525 653.028 603.569 650.805 599.059 651.562C597.811 651.771 597.285 651.827 596.626 652.982L597.237 654.21C612.324 658.99 634.884 654.779 650.298 652.563C652.438 652.255 654.71 652.386 656.732 651.428C657.404 651.109 657.489 650.986 657.974 650.555C658.02 649.43 658.021 649.476 657.306 648.603ZM351.453 650.668C349.765 651.125 348.13 651.568 346.394 651.792C342.567 668.492 337.867 684.708 332.859 701.079C329.726 711.322 326.693 721.603 322.938 731.64C327.988 749.951 333.062 768.071 335.396 786.977C345.31 785.696 355.45 785.62 365.435 785.208Q386.858 784.118 408.293 783.289C414.201 782.988 420.15 782.537 426.064 782.49L425.978 741.962C424.366 743.703 422.485 746.323 420.363 747.371C418.182 746.715 417.503 744.108 415.605 742.833C415.494 742.942 415.384 743.052 415.272 743.16C414.145 744.234 413.438 744.669 411.947 745.099C410.514 744.872 410.348 744.74 409.24 743.787C408.452 739.894 408.757 735.61 408.682 731.641C408.564 725.396 407.97 719.289 406.403 713.231C405.194 715.349 404.125 717.873 401.685 718.789C400.798 719.123 400.21 719.04 399.316 718.872C396.886 717.45 395.821 715.139 395.054 712.493C393.733 707.934 393.918 703.641 395.168 699.107C384.957 690.953 366.817 682.613 358.89 673.535C359.346 667.855 358.957 662.158 359.376 656.499C357.74 655.098 353.503 650.69 351.453 650.668ZM364.543 659.218C364.537 663.673 364.498 668.038 365.159 672.46C371.985 677.201 387.737 689.152 394.382 692.354C392.459 685.673 390.405 679.001 388.666 672.271C379.419 669.893 372.657 663.777 364.543 659.218ZM924.014 666.787C904.97 667.891 885.902 668.134 866.839 668.705L811.373 670.825Q696.861 674.796 582.416 680.41L506.366 683.694C497.536 684.116 488.543 684.122 479.747 684.83C479.744 699.254 479.411 713.729 479.651 728.145L486.635 727.94L790.996 711.962L880.239 707.642Q897.765 706.911 915.279 705.933C920.595 705.664 926.029 705.735 931.314 705.202L931.343 666.495C928.903 666.579 926.448 666.606 924.014 666.787ZM930.347 710.228Q771.963 717.082 613.681 726.03C569.828 728.311 525.774 731.66 481.885 732.625C495.309 748.85 510.512 763.392 524.451 779.127Q533.17 778.732 541.877 778.123L831.297 763.094Q884.671 760.539 938.01 757.334C955.228 756.281 972.584 755.572 989.738 753.763C984.047 750.613 978.844 745.978 973.617 742.082L943.194 719.391C940.433 717.292 934.757 711.91 932.131 710.633C931.507 710.33 931.015 710.227 930.347 710.228ZM319.13 741.336C311.338 763.963 301.918 787.311 289.333 807.725C284.257 815.96 278.031 823.358 272.873 831.485C275.041 839.984 289.072 899.28 290.985 901.893C291.871 902.172 292.713 902.455 293.624 902.635C306.743 905.315 324.645 903.889 336.102 896.337Q337.505 895.397 338.837 894.36C337.653 865.541 336.049 837.124 332.807 808.442C330.758 790.312 328.391 772.435 323.77 754.755C322.791 751.011 321.529 744.287 319.13 741.336ZM988.758 758.7C952.469 762.107 915.721 763.198 879.327 765.281L595.672 780.134C572.5 781.513 549.117 781.801 525.999 783.801L525.958 810.734C525.952 815.723 525.467 821.202 526.335 826.11C527.598 826.889 528.958 826.618 530.375 826.534L892.332 810.924Q942.759 808.443 993.226 807.045L993.011 777.208C993.015 771.24 993.465 764.907 992.765 758.992C991.449 758.198 990.204 758.526 988.758 758.7ZM166.507 883.034C163.935 888.906 161.131 894.78 156.807 899.588C164.408 907.198 171.593 915.396 181.244 920.442C182.513 919.894 182.766 918.766 183.259 917.514C185.381 912.134 187.009 906.512 189.493 901.285C183.373 894.171 175.35 886.578 166.507 883.034ZM152.282 903.884C145.549 908.19 138.502 913.053 132.78 918.644C152.576 926.663 166.314 944.154 180.378 959.51C186.316 965.993 191.935 972.884 200.311 976.238C206.915 978.121 211.672 978.205 217.879 974.87C201.545 966.235 191.242 953.921 185.839 936.22C184.769 932.713 183.769 929.129 182.944 925.557C178.961 924.423 175.597 922.942 172.188 920.563C168.989 918.331 154.581 903.905 152.282 903.884ZM331.145 904.482C322.729 907.957 314.614 908.912 305.555 908.994C306.179 915.852 306.424 922.705 306.657 929.586L311.123 930.804C318.061 932.066 324.911 931.916 330.998 927.837C333.337 926.269 334.99 924.231 335.542 921.428C335.989 919.156 332.791 908.296 332.306 905.009C331.406 904.437 331.823 904.52 331.145 904.482ZM357.158 918.207L341.98 919.08C341.046 924.573 338.226 929.029 333.614 932.194C327.459 936.419 319.636 937.695 312.385 936.175C309.463 935.563 306.71 934.488 303.937 933.411C301.792 939.27 299.468 945.106 298.415 951.282C306.492 954.506 314.746 954.23 323.225 952.909C338.859 949.402 377.134 939.286 385.435 925.429C385.916 924.626 386.099 923.885 386.284 922.978C385.701 921.352 384.737 920.698 383.144 919.971C376.141 916.774 364.665 917.424 357.158 918.207ZM128.949 922.249C127.052 924.116 125.748 925.77 124.36 928.041C154.473 936.245 173.522 979.498 195.248 985.506C204.42 988.043 213.412 986.112 222.371 983.718L223.464 983.186C223.608 981.955 223.455 981.512 222.852 980.437C221.789 979.788 221.315 979.725 220.085 980.029C218.035 980.536 216.108 981.523 214.03 981.986C207.545 983.432 200.908 982.174 195.062 979.156C188.622 975.831 183.731 970.139 178.842 964.935C163.555 948.661 149.924 931.401 128.949 922.249ZM389.253 928.357C386.447 932.142 383.684 935.042 379.77 937.692C366.321 946.799 338.472 955.384 322.173 957.768C313.142 959.09 306.045 958.637 297.315 955.962C296.89 957.112 296.728 959.535 297.167 960.697C297.282 960.999 297.502 961.251 297.669 961.528C309.236 967.445 330.489 961.949 342.135 958.175C355.112 953.97 382.38 943.979 388.738 931.785C389.335 930.641 389.567 929.643 389.253 928.357Z"/>
	<path fill="#9F8BE8" d="M541.782 0L565.467 0L565.432 208.961L565.371 277.024C565.375 289.809 564.784 302.966 565.914 315.698C568.691 317.179 623.076 316.527 630.991 316.66C631.932 318.66 632.785 320.726 634.076 322.529C631.127 326.356 627.398 329.906 625.327 334.29C621.227 331.784 617.137 330.021 612.218 330.082C606.838 330.148 602.043 332.424 598.357 336.3C594.06 340.817 591.364 347.057 591.748 353.347C592.116 359.364 595.304 365.465 599.951 369.287C604.632 373.135 610.367 374.268 616.287 373.493C622.824 372.639 627.844 369.763 631.802 364.504C633.621 365.84 635.448 366.928 637.446 367.974C636.315 374.114 635.606 380.276 634.99 386.484C620.833 385.788 606.612 386.169 592.442 386.309C583.613 386.396 574.328 385.927 565.581 387.117C565.121 394.044 565.381 401.113 565.379 408.056L565.331 442.729C565.267 485.371 565.78 528.06 565.303 570.693C589.099 572.35 613.307 570.112 637.165 570.85C638.015 587.409 641.498 603.943 641.616 620.522C640.326 622.278 639.278 624.235 638.174 626.112C628.338 626.94 618.194 626.604 608.306 626.913L542.196 629.101C541.489 608.153 542.047 587.001 542.033 566.032L542.213 428.303L541.782 0Z"/>
	<path fill="#9F8BE8" d="M570.259 0L648.15 0L648.033 200.284L648.054 250.709C648.08 259.223 649.031 268.97 647.639 277.318C646.048 286.866 636.913 302.361 632.482 311.577Q601.487 311.4 570.491 311.572L570.259 0Z"/>
	<path fill="#9F8BE8" d="M653 0L673.724 0L673.661 131.324C666.522 137.09 659.153 144.253 655.823 152.984C658.055 158.842 660.795 162.901 665.401 167.153C663.971 176.392 665.305 185.545 670.699 193.329C674.822 199.278 680.342 202.662 687.393 203.931C683.919 205.196 680.313 206.398 676.996 208.031C662.758 215.038 657.801 229.109 652.941 243.206Q652.527 192.13 652.945 141.056L653 0Z"/>
	<path fill="#9F8BE8" d="M678.799 0L756.834 0L756.62 195.068Q756.482 215.91 756.869 236.748C757.057 245.252 757.897 254.025 757.273 262.499C756.804 259.919 756.162 257.373 755.536 254.827C750.814 235.62 745.052 213.123 727.111 202.248C730.594 200.99 733.597 199.17 736.352 196.713C744.081 189.82 749.227 179.898 749.745 169.538C750.404 156.372 744.45 143.5 735.716 133.869C727.954 125.31 717.904 119.295 706.139 118.824C697.639 118.484 691.056 121.52 684.896 127.152C682.705 127.333 680.622 127.763 678.476 128.213L678.799 0Z"/>
	<path fill="#9F8BE8" d="M761.565 0L787.53 0L787.978 623.466C773.046 623.357 758.052 624.32 743.122 624.746C744.975 621.366 745.91 619.445 744.852 615.561C743.226 609.594 739.3 603.53 733.963 600.409C730.472 591.189 728.383 581.029 725.821 571.496C737.745 571.448 750.213 572.186 762.04 571.045C762.917 556.97 762.195 542.347 762.231 528.223L762.2 445.641C762.182 435.468 761.847 425.265 761.973 415.097C762.038 409.819 763.73 404.509 764.271 399.247C765.026 391.911 764.814 384.471 765.632 377.141C767.225 362.856 769.876 349.207 769.999 334.749C770.103 322.562 768.283 310.351 766.063 298.392C764.488 289.906 762.502 281.807 762.335 273.133Q761.875 224.832 762.014 176.531L761.565 0Z"/>
	<path fill="#9F8BE8" d="M792.409 0L815.53 0L816.479 643.172C809.316 636.152 801.363 629.831 793.505 623.611C792.663 592.792 793.115 561.904 793.135 531.073L793.105 393.856L792.409 0Z"/>
	<path fill="#FEFEFE" d="M820.525 0L871.466 0L871.37 644.879Q846.567 645.894 821.75 646.46C820.542 623.527 821.426 600.163 821.397 577.192L821.104 449.975L820.525 0Z"/>
	<path fill="#9F8BE8" d="M876.522 0L1024 0L1024 826.907C1015.61 820.773 1007.31 813.982 998.486 808.51C997.982 790.546 998.478 772.444 998.51 754.466C993.295 749.799 987.49 745.832 981.918 741.606C966.892 730.21 951.399 719.354 936.54 707.759Q936.496 693.436 936.599 679.114C936.614 674.542 937.06 669.547 936.371 665.045C936.071 663.087 934.621 661.938 933.138 660.763C928.761 657.297 923.341 654.76 918.58 651.835C904.672 643.288 889.785 635.003 876.849 625.074L876.522 0Z"/>
	<path fill="#9F8BE8" d="M132.819 349.1C132.128 315.146 132.83 281.018 132.837 247.047L132.654 11.9825L379.005 11.8081L378.891 349.399L366.633 349.394C361.175 344.378 358.036 340.447 355.14 333.612C358.101 333.776 361.053 333.759 364.018 333.744L363.585 91.887C363.541 81.0009 364.847 33.8088 362.691 26.9597C355.736 24.937 340.47 26.3118 332.786 26.3761L297.25 26.4741L200.875 26.4553C192.378 26.4649 153.927 25.4523 148.128 27.6546C148.073 27.9014 148.014 28.1471 147.963 28.3949C146.862 33.8048 147.776 44.831 147.792 50.7015L147.739 100.846C147.571 176.101 148.508 251.403 147.695 326.649C147.675 328.433 147.531 330.07 148.598 331.593C154.126 333.789 226.588 332.365 238.625 332.519C237.185 333.844 235.611 335.179 234.367 336.692C231.186 340.558 231.874 344.934 232.329 349.523C220.493 348.148 207.82 348.995 195.888 349.024L132.819 349.1Z"/>
	<path fill="#9F8BE8" d="M152.69 112.56Q152.457 71.8936 152.919 31.2313C182.211 30.4101 213.112 31.0049 242.465 31.1871C241.468 58.1977 242.224 85.4591 242.377 112.494L152.69 112.56Z"/>
	<path fill="#9F8BE8" d="M246.99 112.479C247.001 85.413 246.496 58.2986 246.983 31.2406C252.218 31.0932 257.483 31.2649 262.721 31.3204Q262.572 71.8979 262.891 112.476L246.99 112.479Z"/>
	<path fill="#9F8BE8" d="M267.508 112.536L267.546 31.3607C297.829 31.3319 328.279 30.5474 358.535 31.5414L358.752 112.375C348.676 113.237 337.842 112.523 327.702 112.52L267.508 112.536Z"/>
	<path fill="#9F8BE8" d="M152.944 133.479L152.86 117.427L358.633 117.285L358.626 133.325C337.985 133.671 317.299 133.379 296.654 133.405L152.944 133.479Z"/>
	<path fill="#9F8BE8" d="M152.778 220.503L152.796 138.159L242.435 138.037L242.417 220.533Q197.598 220.175 152.778 220.503Z"/>
	<path fill="#9F8BE8" d="M247.158 220.467Q246.93 179.234 247.402 138.003L262.526 138.03L262.723 220.412L247.158 220.467Z"/>
	<path fill="#9F8BE8" d="M267.305 220.405L267.39 138.014Q313.135 138.356 358.879 137.989L358.908 220.608Q313.107 220.229 267.305 220.405Z"/>
	<path fill="#FEFEFE" d="M696.165 195.414C694.226 196.244 692.203 196.95 690.201 197.614C687.325 198.569 684.284 198.897 681.521 197.413C676.087 194.494 671.395 186.377 669.819 180.562C668.553 175.894 667.728 165.944 670.147 161.661C670.314 162.034 670.422 162.331 670.697 162.657C672.766 165.119 676.974 163.264 679.854 163.457L680.359 164.061L679.71 165.749C680.378 166.162 680.541 166.136 680.888 166.876C678.962 167.928 676.637 168.898 675.68 170.939C676.018 171.897 676.315 172.199 677.216 172.693C678.65 173.48 680.502 174.227 682.123 173.752C682.665 171.82 680.932 170.711 681.09 168.674C681.762 167.919 682.669 167.067 683.175 166.201C683.816 165.106 683.61 164.725 683.284 163.61C680.258 161.007 675.336 161.424 671.793 159.827C670.728 159.347 670.677 159.163 670.291 158.139C670.886 157.144 670.805 156.869 671.929 156.434C673.414 157.37 675.038 158.623 676.858 158.605C677.854 158.595 678.972 157.948 679.627 157.199C680.479 156.224 680.432 156.13 680.299 154.923C677.703 151.864 676.97 154.874 674.139 153.716C677.935 148.135 682.386 142.383 687.488 137.955C692.314 140.444 699.826 153.716 702.483 158.872C700.191 157.852 697.986 157.153 695.5 156.851C693.562 156.616 691.884 156.423 690.274 157.687C689.874 159.095 689.805 159.13 690.36 160.469C691.943 161.792 693.798 162.11 695.748 162.604C695.479 164.653 693.196 165.705 692.925 168.082C693.408 169.559 693.848 169.915 695.033 170.816C695.883 170.935 696.367 171.177 697.17 170.764C698.426 170.118 699.116 169.015 699.405 167.665C699.831 165.678 699.159 164.51 698.053 162.939C697.95 162.793 697.844 162.649 697.739 162.504C697.958 162.413 698.172 162.312 698.394 162.231C698.689 162.125 698.991 162.04 699.29 161.945C699.205 161.179 699.161 160.453 699.173 159.683C699.31 159.655 699.445 159.607 699.586 159.598C703.679 159.347 712.538 169.033 715.431 171.678C717.214 170.425 719.048 169.339 720.936 168.254C721.069 168.301 721.202 168.351 721.337 168.396C722.907 168.92 724.706 169.356 726.032 170.386C727.193 171.289 727.635 172.391 727.775 173.827C727.978 175.907 727.269 177.836 725.904 179.399C724.245 181.298 721.308 182.668 718.778 182.685C717.061 182.697 716.625 181.937 715.418 180.873C707.5 186.185 706.294 190.924 696.165 195.414ZM674.767 176.696C674.272 178.183 674.14 178.749 674.845 180.198C675.852 182.268 678.251 183.475 680.357 184.078C684.394 185.235 687.082 184.942 691.028 183.77C691.715 182.749 692.08 182.234 692.082 180.984L691.412 180.069C688.933 180.002 685.12 181.153 682.896 180.522C680.113 179.734 677.491 176.841 674.767 176.696Z"/>
	<path d="M691.028 183.77C687.082 184.942 684.394 185.235 680.357 184.078C678.251 183.475 675.852 182.268 674.845 180.198C674.14 178.749 674.272 178.183 674.767 176.696C677.491 176.841 680.113 179.734 682.896 180.522C685.12 181.153 688.933 180.002 691.412 180.069L692.082 180.984C692.08 182.234 691.715 182.749 691.028 183.77Z"/>
	<path fill="#FEFEFE" d="M682.387 234.059L681.846 234.234C681.544 231.281 682.715 227.407 683.554 224.524C685.482 217.897 689.233 205.377 695.006 201.081C698.826 198.239 704.451 196.265 708.712 193.971L709.161 194.069C709.95 195.546 709.952 197.549 710.128 199.21C706.534 202.358 703.169 205.361 700.21 209.138C693.838 217.269 689.505 226.382 682.387 234.059Z"/>
	<path fill="#9F8BE8" d="M683.523 210.114C681.22 216.109 673.619 235.374 676.685 241.292C677.32 242.518 677.688 242.673 678.876 243.201C685.965 242.736 699.306 219.27 703.859 213.098C706.735 209.199 709.754 205.581 713.721 202.765L714.321 202.348C722.947 203.983 731.194 210.465 736.102 217.574C747.909 234.673 763.702 305.44 764.498 326.871C765.152 344.458 762.989 361.528 759.897 378.798Q752.238 378.991 744.641 379.979C742.135 349.507 729.199 311.324 721.22 281.17C719.593 275.021 717.99 268.804 716.767 262.561C715.907 258.177 715.579 253.575 714.283 249.301C713.288 248.392 713.078 248.336 711.747 248.066C711.081 248.394 710.581 248.467 710.22 249.173C707.156 255.156 724.089 310.723 726.56 319.344C730.81 334.908 734.83 350.844 738.158 366.637C734.802 369.242 731.411 372.085 727.628 374.059C710.983 382.745 680.027 376.69 662.567 371.16C657.816 369.656 638.576 363.348 636.9 359.439C634.196 353.13 640.037 335.574 642.228 329.121C646.733 315.85 650.97 303.221 652.82 289.237C655.162 271.529 653.007 254.562 660.026 237.562C665.04 225.415 670.957 215.318 683.523 210.114Z"/>
	<path fill="#9F8BE8" d="M152.963 242.421L152.908 224.913Q255.953 224.571 358.995 225.395C359.004 230.951 359.362 236.788 358.783 242.303C338.212 243.064 317.468 242.131 296.876 242.137L152.963 242.421Z"/>
	<path fill="#9F8BE8" d="M152.659 327.454C152.668 319.193 152.199 249.404 153.348 247.065L154.457 246.745C183.794 246.237 213.263 246.354 242.606 246.603L242.486 291.393C242.47 299.074 241.712 307.632 242.971 315.184C240.528 319.019 239.26 321.851 238.754 326.392L238.54 327.2C236.663 328.314 161.148 327.49 152.659 327.454Z"/>
	<path fill="#9F8BE8" d="M254.837 303.185C253.234 306.124 253.218 309.127 250.48 311.42C249.16 311.775 248.948 311.683 247.625 311.282C246.13 308.705 247.128 254.137 247.17 246.685L262.759 246.677C262.506 262.811 262.892 279 262.859 295.143C259.532 297.462 257.117 299.855 254.837 303.185Z"/>
	<path fill="#9F8BE8" d="M267.201 246.975L337.005 246.762Q347.963 246.597 358.923 246.658L358.993 328.9L351.665 328.529C348.23 324.514 345.001 320.17 340.907 316.804C342.165 311.251 343.555 305.186 340.852 299.826C339.045 296.242 331.358 287.245 327.914 285.143C326.157 284.07 323.879 283.436 321.937 282.756C314.177 281.843 309.526 283.728 303.019 287.594C302.902 287.501 302.786 287.406 302.668 287.314C299.29 284.691 294.795 283.915 290.61 284.507C284.862 285.32 280.253 288.493 276.787 293.051C273.625 293.016 270.577 293.22 267.432 293.547L267.201 246.975Z"/>
	<path fill="#9F8BE8" d="M639.334 318.687C638.734 318.121 638.022 317.546 637.733 316.742C636.289 312.733 644.269 298.978 646.342 294.975L646.694 295.512C646.245 299.524 642.182 316.28 639.334 318.687Z"/>
	<path fill="#9F8BE8" d="M450.245 311.033Q449.507 312.992 448.88 314.989C447.495 319.468 443.702 332.326 446.369 336.592C446.793 337.269 447.177 337.199 447.887 337.406C450.41 335.018 458.047 307.251 462.776 299.65C462.859 299.517 462.946 299.385 463.031 299.252L463.871 299.651C464.926 301.362 464.652 302.646 464.314 304.583C463.072 311.697 459.961 318.339 458.033 325.279C456.202 331.874 455.418 338.469 453.95 345.093C453.166 348.629 450.822 353.794 451.593 357.316C451.832 358.406 452.022 358.458 452.923 358.971C456.22 357.558 462.271 344.405 465.624 340.761C466.258 340.07 466.405 339.754 467.375 339.722C467.543 340.393 467.565 340.351 467.584 341.167C467.657 344.285 465.442 348.438 464.388 351.422C457.546 370.789 453.549 378.488 438.574 393.154C436.402 391.639 432.537 383.675 430.962 381.042C453.061 357.718 432 338.225 450.245 311.033Z"/>
	<path fill="#9F8BE8" d="M336.867 335.034C337.033 330.387 337.938 325.936 339.071 321.44C346.623 327.571 350 337.889 355.739 345.457C358.216 348.723 361.85 351.512 363.954 354.993C364.893 356.547 365.444 358.484 366.02 360.201C364.659 362.8 363.021 365.304 361.502 367.817C361.313 373.525 362.975 379.952 361.701 385.535C359.479 395.272 337.802 393.833 330.671 398.593C330.495 398.71 330.322 398.831 330.147 398.95C330.261 404.285 330.977 409.578 331.713 414.854C329.178 413.383 326.493 412.209 323.836 410.981C319.927 409.458 316.013 407.837 312.027 406.53C308.551 405.389 304.087 404.888 301.019 402.972C301.723 401.484 308.213 400.571 310.071 399.729C311.901 398.9 313.656 397.062 315.146 395.719C320.162 395.132 324.558 393.683 328.188 390.002C334.195 383.909 334.601 376.441 334.65 368.417C336.349 366.674 338.224 365.081 339.967 363.378C343.482 359.946 346.178 356.199 346.077 351.088C345.942 344.222 341.473 339.506 336.867 335.034Z"/>
	<path fill="#FEFEFE" d="M634.076 322.529L637.847 324.442C636.12 330.69 634.107 337.021 632.866 343.38C630.789 339.811 628.384 337.058 625.327 334.29C627.398 329.906 631.127 326.356 634.076 322.529Z"/>
	<path fill="#9F8BE8" d="M618.491 368.259C614.281 369.156 610.973 369.292 606.925 367.424Q606.52 367.236 606.125 367.028Q605.73 366.82 605.347 366.592Q604.963 366.365 604.591 366.118Q604.219 365.871 603.861 365.605Q603.502 365.34 603.157 365.057Q602.812 364.773 602.482 364.473Q602.152 364.173 601.837 363.856Q601.523 363.539 601.225 363.207Q600.927 362.875 600.646 362.528Q600.365 362.181 600.102 361.821Q599.839 361.46 599.595 361.087Q599.35 360.713 599.125 360.328Q598.9 359.943 598.695 359.546Q598.489 359.15 598.304 358.744Q598.119 358.338 597.955 357.923Q597.791 357.508 597.648 357.085C596.237 352.971 596.396 348.283 598.335 344.362C600.617 339.747 604.535 337.186 609.27 335.549C610.349 335.479 611.435 335.411 612.517 335.428C621.063 335.562 626.234 342.289 631.633 347.942C631.52 350.994 631.378 353.863 630.357 356.784C628.245 362.827 624.038 365.706 618.491 368.259Z"/>
	<path fill="#9F8BE8" d="M731.375 385.593C730.7 385.624 731.099 385.67 730.225 385.229C731.278 382.069 736.443 376.612 738.417 373.364C738.979 374.044 738.977 373.871 739.167 374.57C739.967 377.497 740.728 382.46 739.074 385.119C737.027 386.025 733.63 385.586 731.375 385.593Z"/>
	<path fill="#FEFEFE" d="M346.674 425.582C355.083 423.121 363.158 418.936 370.904 414.887C389.613 405.108 406.806 393.884 424.418 382.365C431.166 386.977 435.899 400.331 438.516 407.926C424.028 425.53 408.183 440.702 391.312 455.971C384.255 462.359 377.336 469.173 369.262 474.276C369.029 472.142 368.641 470.003 368.327 467.878C365.588 448.629 358.994 439.662 346.674 425.582Z"/>
	<path fill="#FEFEFE" d="M724.974 413.108C728.562 400.754 740.481 395.539 746.494 384.664Q753.078 384.25 759.675 384.328Q759.63 386.108 759.558 387.888C758.958 402.529 757.223 414.886 745.93 425.303C747.332 422.571 748.804 419.67 749.493 416.672C747.603 417.639 745.683 422.96 743.87 424.788C742.467 426.203 740.483 427.197 738.763 428.185C740.347 425.045 742.309 422.015 744.032 418.938L743.852 418.4L742.742 419.778C740.267 423.165 737.963 427.326 733.598 428.259L733.109 427.751C737.258 422.666 739.625 418.125 741.185 411.768C740.029 410.118 738.567 407.982 736.514 407.461C732.86 406.535 727.895 411.151 724.974 413.108Z"/>
	<path fill="#9F8BE8" d="M634.516 391.217C632.977 399.626 632.568 408.466 632.138 417.001Q631.327 430.804 631.455 444.63Q631.583 458.456 632.651 472.241C632.945 475.848 632.841 480.881 634.438 484.117L634.942 483.821L635.444 480.845C635.447 483.357 635.018 486.173 636.825 488.162C632.183 511.886 635.667 541.56 636.992 565.867L570.171 566.112L570.356 391.378C591.623 390.622 613.238 390.834 634.516 391.217Z"/>
	<path fill="#9F8BE8" d="M691.102 434.032C693.802 427.724 710.262 394.806 713.951 391.789C714.34 391.47 714.878 391.398 715.342 391.202C722.02 390.794 728.742 390.907 735.431 390.888C731.639 394.287 727.894 398.213 724.669 402.157C722.453 404.866 720.481 408.586 720.939 412.196C721.134 413.743 721.867 415.29 723.256 416.11C727.543 418.642 730.557 412.792 733.97 412.101C737.863 417.43 726.474 424.185 726.537 429.309C726.552 430.516 727.121 431.094 728.096 431.705C730.945 433.491 738.069 432.926 741.318 432.206C748.238 430.674 753.607 425.208 757.177 419.421Q756.72 485.378 757.067 551.33L757.147 566.127L724.778 566.063C718.597 544.958 713.123 523.671 707.242 502.482C702.529 485.504 697.254 468.56 693.333 451.382C692.09 445.936 692.437 440.234 691.259 434.741L691.102 434.032Z"/>
	<path fill="#FEFEFE" d="M635.444 480.845C636.511 473.177 637.596 465.512 639.149 457.924C640.617 450.751 653.257 397.332 656.617 394.747C657.665 396.97 657.138 400.066 656.745 402.43C655.617 409.222 653.576 415.996 651.932 422.684L643.744 456.372C641.151 466.906 639.693 477.693 636.825 488.162C635.018 486.173 635.447 483.357 635.444 480.845Z"/>
	<path fill="#FEFEFE" d="M242.506 489.673C247.578 461.915 257.103 429.368 273.239 405.876C281.377 408.102 284.344 406.568 292.045 406.992C305.178 407.716 323.082 415.163 333.673 422.835C311.323 431.035 292.779 444.473 274.716 459.646C263.407 469.14 253.552 479.96 242.506 489.673Z"/>
	<path fill="#9F8BE8" d="M225.054 508.178C224.659 507.717 224.125 507.161 223.835 506.612C221.265 501.762 230.727 472.116 232.718 465.792C237.698 449.978 248.993 416.899 264.306 408.916L265.16 409.217C265.099 410.235 254.395 429.851 252.875 433.8C244.874 454.59 239.727 475.405 235.175 497.174C231.983 500.978 228.484 504.588 225.054 508.178Z"/>
	<path fill="#9F8BE8" d="M149.535 619.235C161.685 599.735 173.321 580.032 186.979 561.517C198.126 546.407 211.376 532.658 223.969 518.751C230.735 511.279 237.064 503.403 243.97 496.059C260.255 478.742 287.855 453.783 307.958 441.421C317.496 435.556 327.382 431.066 337.768 426.943C340.927 427.526 345.978 432.996 348.314 435.223C336.737 440.637 328.573 444.132 317.713 451.031C306.881 457.912 296.902 465.902 286.953 473.979C267.074 490.116 247.938 507.156 231.423 526.794C228.605 530.145 223.558 534.786 222.881 539.24C222.686 540.53 222.879 541.178 223.568 542.244L224.749 542.349C225.873 541.926 226.744 541.453 227.571 540.583C229.502 538.553 231.025 535.85 232.703 533.593C235.54 529.781 238.586 526.171 241.667 522.557C246.066 542.402 233.406 591.437 228.955 612.429L214.188 681.9C212.195 679.461 209.909 677.259 207.709 675.007C188.361 656.376 167.486 639.269 149.535 619.235Z"/>
	<path fill="#FEFEFE" d="M666.09 596.132L665.625 595.949C666.754 583.703 668.86 571.626 669.676 559.323C670.774 542.777 670.084 525.697 671.581 509.291C672.532 498.87 675.402 488.068 677.808 477.888C680.965 464.528 683.879 450.533 689.13 437.816C691.26 444.495 676.812 497.517 674.883 508.649C673.723 515.34 674.539 522.704 674.458 529.511C674.214 549.976 674.093 577.095 666.09 596.132Z"/>
	<path fill="#FEFEFE" d="M246.701 517.457C271.911 491.834 317.834 451.287 351.59 439.999C355.682 441.245 360.35 456.207 361.464 460.045C366.127 476.123 365.696 494.008 364.755 510.554C364.019 523.503 362.199 536.809 362.637 549.758C363.96 588.839 385.411 620.6 408.087 650.627C403 657.144 395.677 663.258 388.247 666.873C383.468 664.491 378.64 662.152 374.089 659.353Q370.053 656.913 366.17 654.236Q362.287 651.559 358.571 648.654Q354.855 645.749 351.32 642.627Q347.785 639.505 344.444 636.176C338.149 629.953 331.963 623.087 327.404 615.48C311.481 588.913 312.52 554.469 314.104 524.629C314.415 518.788 316.232 492.068 315.212 487.851C314.356 486.964 314.345 486.929 313.13 486.752C312.728 486.96 312.453 487.064 312.132 487.434C309.374 490.614 309.449 510.647 309.165 516.03Q308.667 526.162 308.481 536.305C308.049 567.136 308.989 600.602 328.351 626.356C333.901 633.739 340.855 639.702 347.266 646.28C310.681 649.424 265.221 629.274 235.22 609.512C240.489 578.598 250.541 549.243 246.701 517.457Z"/>
	<path fill="#FEFEFE" d="M198.609 504.315L198.322 504.181L198.123 503.546C209.032 484.481 219.922 464.865 233.345 447.412C233.326 450.948 229.224 459.163 228.052 462.923C223.909 476.206 219.283 490.44 217.68 504.26C211.149 503.171 205.14 503.578 198.609 504.315Z"/>
	<path fill="#9F8BE8" d="M104.064 606.184C114.403 589.601 126.358 573.201 138.354 557.784C152.986 538.981 178.362 512.715 202.691 509.669C205.401 509.232 208.46 509.233 211.198 509.393C214.309 509.575 219.6 509.785 221.748 512.186C221.753 512.486 221.839 512.796 221.763 513.086C221.596 513.717 205.297 531.096 203.214 533.464C196.571 541.018 189.638 548.501 183.618 556.565C169.279 575.776 157.538 596.691 144.811 616.956Q137.376 614.534 129.859 612.379C121.347 609.942 112.644 608.345 104.064 606.184Z"/>
	<path fill="#9F8BE8" d="M678.046 567.258C678.49 560.158 678.174 552.951 678.993 545.89C683.239 551.338 686.22 559.854 688.816 566.319L688.411 567.083C684.96 567.302 681.503 567.259 678.046 567.258Z"/>
	<path fill="#9F8BE8" d="M0 681.18C2.67577 676.065 4.91293 670.423 10.8625 668.502C13.4435 667.669 16.3371 667.653 19.0288 667.498C19.9924 661.351 19.9161 652.462 25.4763 648.521C30.0586 645.274 36.0222 645.645 41.2061 644.197C41.0104 637.776 41.2252 630.771 45.8079 625.679C49.1289 621.99 59.8778 621.234 60.3205 616.236C60.7487 611.403 55.8186 605.618 60.0174 601.114C62.7359 598.197 68.0725 596.602 71.9952 596.604C73.9067 596.605 75.8235 596.806 77.7302 596.795C78.7074 589.902 80.3163 582.296 86.1917 577.786C92.7378 572.761 101.899 577.356 106.952 572.857C112.938 567.528 107.606 556.523 118.849 556.686C119.762 556.699 120.652 556.768 121.558 556.888C124.416 557.267 127.375 558.302 130.141 559.13C122.226 571.839 99.3115 598.931 96.246 611.601C111.224 642.425 163.859 673.777 195.346 684.654Q199.424 686.107 203.633 687.12Q207.842 688.132 212.135 688.692C215.475 707.135 221.708 727.351 231.007 743.677C224.107 759.44 216.609 775.884 206.666 790.012C180.757 792.318 154.471 792.669 128.479 793.77Q64.2571 796.825 0 799.038L0 681.18Z"/>
	<path fill="#9F8BE8" d="M662.42 626.264C664.821 614.922 669.589 604.729 673.002 593.738C675.209 586.634 676.404 579.338 677.374 571.982Q684.594 572.245 691.817 572.415C698.748 585.234 704.25 598.462 712.093 610.831C709.971 613.727 700.088 624.92 697.06 625.408C685.524 625.398 673.958 626.007 662.42 626.264Z"/>
	<path fill="#FEFEFE" d="M715.625 608.833C719.748 607.318 723.89 606.097 728.165 605.095C729.374 604.874 729.98 605.123 731.062 605.589C732.565 606.236 733.126 606.34 734.064 607.778C734.153 608.929 733.977 609.669 733.371 610.67C730.7 615.079 725.576 616.48 720.889 617.472C718.969 617.6 717.096 617.842 715.212 617.347L714.795 616.533C715.68 613.955 716.127 612.25 715.733 609.49C715.701 609.27 715.661 609.052 715.625 608.833Z"/>
	<path fill="#9F8BE8" d="M208.643 682.683C203.4 682.351 197.016 679.676 192.134 677.793Q187.114 675.827 182.191 673.63Q177.267 671.434 172.451 669.011Q167.635 666.589 162.937 663.945Q158.238 661.302 153.667 658.443Q149.097 655.584 144.663 652.517Q140.23 649.449 135.944 646.179Q131.658 642.909 127.528 639.444Q123.398 635.979 119.433 632.326C112.857 626.333 105.221 619.111 101.579 610.863C110.102 611.503 135.314 618.821 143.252 622.246C145.192 623.083 146.583 624.233 148.127 625.645C154.84 631.781 160.979 638.676 167.558 644.985C180.987 657.862 194.803 670.258 208.643 682.683Z"/>
	<path fill="#9F8BE8" d="M220.638 675.574C225.387 655.498 229.212 635.221 233.984 615.162C268.44 636.289 300.35 649.583 341.084 651.924C334.517 678.795 326.631 704.752 317.547 730.876C307.444 759.931 296.113 789.976 278.308 815.312C272.822 823.119 266.54 830.411 260.546 837.828C246.625 855.055 232.238 871.921 218.586 889.358C212.906 896.523 206.802 903.335 201.299 910.642C200.677 908.622 200.081 906.534 199.088 904.66C192.468 892.171 176.116 880.793 162.757 876.826C166.126 867.871 170.826 859.333 175.437 850.972C187.057 829.905 200.48 810.063 213.018 789.561Q221.21 775.973 228.262 761.761Q235.315 747.549 241.182 732.807C246.216 720.115 251.079 706.292 252.768 692.701C247.157 689.141 240.33 687.205 234.443 684.035C229.702 681.483 225.543 677.799 220.638 675.574Z"/>
	<path fill="#FEFEFE" d="M684.639 649.162L684.203 648.202C685.431 645.839 694.35 644.159 697.179 642.911C712.298 636.242 725.322 626.312 739.436 617.995L739.382 618.816C735.957 624.139 729.609 628.054 724.435 631.529C714.482 638.213 697.197 651.613 684.639 649.162Z"/>
	<path fill="#FEFEFE" d="M710.646 624.176C709.607 623.631 709.333 623.56 708.748 622.565C710.506 620.182 717.934 621.764 720.937 621.47C722.763 621.291 724.601 620.639 726.344 620.082L726.75 620.294C725.004 622.865 718.971 625.307 716.208 626.843C714.395 625.879 712.506 625.047 710.646 624.176Z"/>
	<path fill="#FEFEFE" d="M638.948 633.987C642.284 630.594 643.427 627.869 644.562 623.332C647.834 624.75 654.161 625.552 656.276 628.38C653.879 631.519 654.971 637.995 654.45 641.943C653.322 642.82 651.502 642.55 650.128 642.565L649.964 643.329C647.519 643.202 644.009 640.98 641.921 639.722C640.847 637.85 639.904 635.921 638.948 633.987Z"/>
	<path fill="#FEFEFE" d="M701.866 628.435C703.215 627.11 704.631 625.844 706.013 624.554Q709.263 626.67 712.488 628.824C710.859 630.049 709 630.974 707.221 631.96L706.757 631.909C705.194 630.538 703.675 629.46 701.866 628.435Z"/>
	<path fill="#9F8BE8" d="M736.662 629.645Q752.886 629.484 769.095 628.75C776.28 628.317 783.553 628.462 790.748 628.471C800.342 635.74 809.208 643.909 818.49 651.56C824.891 651.439 873.991 650.734 875.507 648.81C877.444 646.351 876.444 635.192 876.415 631.608C886.279 638.423 896.618 644.541 906.791 650.881C912.445 654.406 918.396 657.804 923.517 662.075L488.876 679.654C484.857 679.957 480.857 679.957 476.846 680.452C460.823 665.897 443.473 652.824 427.41 638.292Q528.706 634.113 630.054 631.491C620.252 638.824 607.17 640.742 596.667 646.683C594.23 648.062 591.903 649.719 591.207 652.573C590.815 654.183 591.104 655.541 592.093 656.893C594.557 660.264 601.912 661.115 605.858 661.383C615.41 662.034 657.042 660.186 663.482 654.072C667.704 650.065 662.105 641.582 660.854 637.316C660.305 635.445 660.532 633.039 660.557 631.096Q677.26 630.956 693.936 629.988C689.067 634.456 680.949 640.801 679.302 647.412C678.891 649.061 678.709 651.109 679.853 652.521C680.756 653.635 682.272 654.14 683.631 654.395C699.628 657.406 724.163 638.569 736.662 629.645Z"/>
	<path fill="#FEFEFE" d="M692.155 639.734C691.436 640.121 690.682 640.377 689.92 640.666C690.024 638.729 697.048 632.96 698.81 631.312C700.286 631.42 702.079 631.913 703.121 632.967L702.888 634.047C699.882 636.579 695.71 638.072 692.155 639.734Z"/>
	<path fill="#FEFEFE" d="M636.503 646.833C634.296 644.548 631.307 642.242 630.471 639.11C631.119 637.695 632.037 637.588 633.409 636.924C638.563 638.647 641.224 643.116 646.607 644.552L647.375 644.751C646.354 645.416 645.017 645.514 643.828 645.755C641.393 646.145 638.944 646.475 636.503 646.833Z"/>
	<path fill="#FEFEFE" d="M630.382 647.717C629.759 647.798 628.85 647.991 628.202 647.943C626.687 647.832 625.813 646.816 624.903 645.698C623.74 644.27 623.249 642.629 623.45 640.797L624.977 639.645C625.76 640.134 626.425 640.637 627.13 641.24C628.825 642.69 631.427 644.767 631.605 647.1L630.382 647.717Z"/>
	<path fill="#9F8BE8" d="M418.324 702.358C417.776 700.932 417.75 700.723 416.517 699.854C415.094 699.976 415.095 700.057 414.045 701.047C412.869 704.848 414.844 708.559 415.441 712.36C416.248 717.498 418.092 733.414 414.472 737.238L413.937 737.15C412.959 734.187 413.868 729.933 413.721 726.75C413.445 720.765 410.726 705.776 406.215 701.998C405.467 701.893 405.194 701.689 404.504 702.136C401.184 704.285 400.543 710.439 399.192 713.939C398.826 708.215 400.115 703.629 400.278 698.141C400.532 689.627 396.605 678.265 393.535 670.3C399.432 666.343 404.666 661.902 409.867 657.089C409.939 657.213 410.009 657.338 410.083 657.461C412.779 661.916 417.404 666.084 420.914 669.995C429.495 679.557 442.218 695.639 443.584 708.769C443.441 708.931 443.296 709.09 443.156 709.255C442.981 709.46 442.813 709.671 442.64 709.878C442.511 710.032 442.359 710.169 442.251 710.338C441.003 712.289 440.972 717.996 440.684 720.429C439.297 715.536 437.522 705.461 432.945 702.694C432.691 702.541 432.413 702.434 432.147 702.303C431.311 703.109 430.297 703.74 430.288 705.027C430.266 708.518 433.931 712.934 434.725 716.44C435.903 721.64 434.996 727.453 434.729 732.698C434.609 735.058 434.393 737.694 436.067 739.567C441.938 740.436 441.605 725.406 444.54 722.377C445.301 721.591 446.136 722.691 446.969 721.988C449.012 720.264 449.418 715.23 449.386 712.756C449.183 696.74 434.998 676.299 424.025 665.521C423.647 657.829 423.511 650.187 423.527 642.486C440.419 656.774 458.59 670.21 474.691 685.369C475.131 692.769 474.901 700.269 474.913 707.686C474.925 715.424 475.525 723.785 474.136 731.414C479.121 739.845 489.282 749.225 496.131 756.55C504.332 765.321 512.393 774.502 521.009 782.858Q521.239 806.135 520.692 829.406C523.72 835.669 551.921 860.017 558.96 867.03L559.183 893.798Q527.115 866.671 495.656 838.842C489.105 833.146 482.27 827.784 475.723 822.083C460.9 809.178 446.263 795.971 431.128 783.438Q431.168 767.734 431.38 752.032C431.41 748.498 432.039 743.699 431.397 740.324C431.19 739.235 430.372 738.108 429.794 737.18C428.933 735.796 430.678 729.158 430.88 727.013C431.323 722.304 431.106 716.33 429.672 711.836C429.176 710.283 428.57 709.41 427.068 708.669C425.697 708.747 425.214 708.99 424.136 709.833C423.282 712.247 425.7 717.766 425.927 720.614C426.456 727.249 424.956 735.037 420.483 740.107L420.083 740.553C422.392 726.308 421.427 716.299 418.324 702.358Z"/>
	<path fill="#FEFEFE" d="M619.111 648.263C618.071 648.416 617.239 648.445 616.288 647.897C615.059 647.19 614.959 646.927 614.723 645.64C615.779 643.994 616.625 643.792 618.347 642.931L619.309 643.093C620.714 644.411 622.161 645.655 622.502 647.585L621.863 648.353L619.111 648.263Z"/>
	<path fill="#FEFEFE" d="M597.237 654.21L596.626 652.982C597.285 651.827 597.811 651.771 599.059 651.562C603.569 650.805 609.525 653.028 614.223 653.181C624.407 653.512 647.815 651.408 657.306 648.603C658.021 649.476 658.02 649.43 657.974 650.555C657.489 650.986 657.404 651.109 656.732 651.428C654.71 652.386 652.438 652.255 650.298 652.563C634.884 654.779 612.324 658.99 597.237 654.21Z"/>
	<path fill="#9F8BE8" d="M346.394 651.792C348.13 651.568 349.765 651.125 351.453 650.668C353.503 650.69 357.74 655.098 359.376 656.499C358.957 662.158 359.346 667.855 358.89 673.535C366.817 682.613 384.957 690.953 395.168 699.107C393.918 703.641 393.733 707.934 395.054 712.493C395.821 715.139 396.886 717.45 399.316 718.872C400.21 719.04 400.798 719.123 401.685 718.789C404.125 717.873 405.194 715.349 406.403 713.231C407.97 719.289 408.564 725.396 408.682 731.641C408.757 735.61 408.452 739.894 409.24 743.787C410.348 744.74 410.514 744.872 411.947 745.099C413.438 744.669 414.145 744.234 415.272 743.16C415.384 743.052 415.494 742.942 415.605 742.833C417.503 744.108 418.182 746.715 420.363 747.371C422.485 746.323 424.366 743.703 425.978 741.962L426.064 782.49C420.15 782.537 414.201 782.988 408.293 783.289Q386.858 784.118 365.435 785.208C355.45 785.62 345.31 785.696 335.396 786.977C333.062 768.071 327.988 749.951 322.938 731.64C326.693 721.603 329.726 711.322 332.859 701.079C337.867 684.708 342.567 668.492 346.394 651.792Z"/>
	<path fill="#9F8BE8" d="M365.159 672.46C364.498 668.038 364.537 663.673 364.543 659.218C372.657 663.777 379.419 669.893 388.666 672.271C390.405 679.001 392.459 685.673 394.382 692.354C387.737 689.152 371.985 677.201 365.159 672.46Z"/>
	<path fill="#9F8BE8" d="M479.747 684.83C488.543 684.122 497.536 684.116 506.366 683.694L582.416 680.41Q696.861 674.796 811.373 670.825L866.839 668.705C885.902 668.134 904.97 667.891 924.014 666.787C926.448 666.606 928.903 666.579 931.343 666.495L931.314 705.202C926.029 705.735 920.595 705.664 915.279 705.933Q897.765 706.911 880.239 707.642L790.996 711.962L486.635 727.94L479.651 728.145C479.411 713.729 479.744 699.254 479.747 684.83Z"/>
	<path fill="#9F8BE8" d="M481.885 732.625C525.774 731.66 569.828 728.311 613.681 726.03Q771.963 717.082 930.347 710.228C931.015 710.227 931.507 710.33 932.131 710.633C934.757 711.91 940.433 717.292 943.194 719.391L973.617 742.082C978.844 745.978 984.047 750.613 989.738 753.763C972.584 755.572 955.228 756.281 938.01 757.334Q884.671 760.539 831.297 763.094L541.877 778.123Q533.17 778.732 524.451 779.127C510.512 763.392 495.309 748.85 481.885 732.625Z"/>
	<path fill="#9F8BE8" d="M272.873 831.485C278.031 823.358 284.257 815.96 289.333 807.725C301.918 787.311 311.338 763.963 319.13 741.336C321.529 744.287 322.791 751.011 323.77 754.755C328.391 772.435 330.758 790.312 332.807 808.442C336.049 837.124 337.653 865.541 338.837 894.36Q337.505 895.397 336.102 896.337C324.645 903.889 306.743 905.315 293.624 902.635C292.713 902.455 291.871 902.172 290.985 901.893C289.072 899.28 275.041 839.984 272.873 831.485Z"/>
	<path fill="#9F8BE8" d="M525.999 783.801C549.117 781.801 572.5 781.513 595.672 780.134L879.327 765.281C915.721 763.198 952.469 762.107 988.758 758.7C990.204 758.526 991.449 758.198 992.765 758.992C993.465 764.907 993.015 771.24 993.011 777.208L993.226 807.045Q942.758 808.443 892.332 810.924L530.375 826.534C528.958 826.618 527.598 826.889 526.335 826.11C525.467 821.202 525.952 815.723 525.958 810.734L525.999 783.801Z"/>
	<path fill="#9F8BE8" d="M0 804.346Q68.7191 800.817 137.477 798.186C159.342 797.34 181.204 796.037 203.08 795.516C188.619 820.772 173.372 841.867 160.839 868.746C159.4 871.832 155.942 877.356 156.586 880.783C157.356 881.52 158.135 882.098 159.017 882.695C159.613 884.289 159.035 885.558 158.372 887.016C156.806 890.462 154.368 894.716 151.693 897.371C143.017 905.984 121.764 916.468 118.918 928.403C118.175 931.52 118.939 934.742 120.006 937.69C125.06 951.646 148.169 980.38 161.775 986.682C174.964 992.791 209.738 993.722 223.574 988.584C226.117 987.64 228.148 986.332 230.135 984.51C228.292 977.361 225.225 973.438 218.871 969.681C199.857 958.436 193.955 948.023 188.527 927.027Q187.933 924.726 187.363 922.419L190.425 913.285C192.653 915.43 195.651 918.752 199.017 918.612C200.595 918.545 201.566 917.473 202.617 916.436C209.84 909.319 216.245 900.358 222.703 892.472C238.037 873.747 252.975 854.615 268.706 836.226C274.848 859.073 278.994 882.873 286.547 905.277C290.629 907.032 294.947 907.75 299.252 908.754C300.897 915.057 301.422 921.271 301.645 927.76C296.878 935.38 290.191 952.358 292.143 961.403C292.576 963.415 293.531 964.951 295.279 966.065C305.251 972.423 328.783 967.387 339.677 964.567C354.522 960.725 384.405 949.714 392.538 935.812C394.531 932.405 394.988 928.739 393.885 924.946C392.664 920.747 390.004 917.606 386.099 915.624C375.908 910.453 350.838 914.251 338.662 914.134C338.34 910.016 337.76 905.977 337.118 901.897C339.537 900.283 341.751 898.639 343.935 896.716C344.02 887.578 343.46 878.411 343.045 869.284Q341.38 830.085 335.869 791.239L387.206 788.944C400.62 788.341 414.199 787.461 427.62 787.423C441.701 798.265 454.76 810.98 468.187 822.648C488.429 840.237 509.106 857.379 529.501 874.799C538.561 882.537 551.351 895.425 560.621 901.586Q590.979 900.351 621.309 898.544L704.53 894.173L880.501 884.738L964.57 880.271C984.325 879.197 1004.22 877.707 1024 877.346L1024 1024L0 1024L0 804.346Z"/>
	<path fill="#9F8BE8" d="M994.091 811.858C1004.46 818.184 1013.64 826.546 1024 833.032L1024 840.893L563.057 863.142C552.177 854.028 539.364 841.52 529.311 831.38Q761.644 820.208 994.091 811.858Z"/>
	<path fill="#9F8BE8" d="M564.119 867.991L1024 845.729L1024 872.512C1004.1 872.912 984.074 874.255 964.208 875.404L880.071 880.289L719.752 888.637Q641.959 893.245 564.102 896.588Q564.229 882.29 564.119 867.991Z"/>
	<path fill="#9F8BE8" d="M156.807 899.588C161.131 894.78 163.935 888.906 166.507 883.034C175.35 886.578 183.373 894.171 189.493 901.285C187.009 906.512 185.381 912.134 183.259 917.514C182.766 918.766 182.513 919.894 181.244 920.442C171.593 915.396 164.408 907.198 156.807 899.588Z"/>
	<path fill="#FEFEFE" d="M132.78 918.644C138.502 913.053 145.549 908.19 152.282 903.884C154.581 903.905 168.989 918.331 172.188 920.563C175.597 922.942 178.961 924.423 182.944 925.557C183.769 929.129 184.769 932.713 185.839 936.22C191.242 953.921 201.545 966.235 217.879 974.87C211.672 978.205 206.915 978.121 200.311 976.238C191.935 972.884 186.316 965.993 180.378 959.51C166.314 944.154 152.576 926.663 132.78 918.644Z"/>
	<path fill="#9F8BE8" d="M305.555 908.994C314.614 908.912 322.729 907.957 331.145 904.482C331.823 904.52 331.406 904.437 332.306 905.009C332.791 908.296 335.989 919.156 335.542 921.428C334.99 924.231 333.337 926.269 330.998 927.837C324.911 931.916 318.061 932.066 311.123 930.804L306.657 929.586C306.424 922.705 306.179 915.852 305.555 908.994Z"/>
	<path fill="#FEFEFE" d="M341.98 919.08L357.158 918.207C364.665 917.424 376.141 916.774 383.144 919.971C384.737 920.698 385.701 921.352 386.284 922.978C386.099 923.885 385.916 924.626 385.435 925.429C377.134 939.286 338.859 949.402 323.225 952.909C314.746 954.23 306.492 954.506 298.415 951.282C299.468 945.106 301.792 939.27 303.937 933.411C306.71 934.488 309.463 935.563 312.385 936.175C319.636 937.695 327.459 936.419 333.614 932.194C338.226 929.029 341.046 924.573 341.98 919.08Z"/>
	<path fill="#FEFEFE" d="M124.36 928.041C125.748 925.77 127.052 924.116 128.949 922.249C149.924 931.401 163.555 948.661 178.842 964.935C183.731 970.139 188.622 975.831 195.062 979.156C200.908 982.174 207.545 983.432 214.03 981.986C216.108 981.523 218.035 980.536 220.085 980.029C221.315 979.725 221.789 979.788 222.852 980.437C223.455 981.512 223.608 981.955 223.464 983.186L222.371 983.718C213.412 986.112 204.42 988.043 195.248 985.506C173.522 979.498 154.473 936.245 124.36 928.041Z"/>
	<path fill="#FEFEFE" d="M297.669 961.528C297.502 961.251 297.282 960.999 297.167 960.697C296.728 959.535 296.89 957.112 297.315 955.962C306.045 958.637 313.142 959.09 322.173 957.768C338.472 955.384 366.321 946.799 379.77 937.692C383.684 935.042 386.447 932.142 389.253 928.357C389.567 929.643 389.335 930.641 388.738 931.785C382.38 943.979 355.112 953.97 342.135 958.175C330.489 961.949 309.236 967.445 297.669 961.528Z"/>
</svg>
