<?xml version="1.0" encoding="utf-8" ?>
<svg xmlns="http://www.w3.org/2000/svg" xmlns:xlink="http://www.w3.org/1999/xlink" width="1024" height="1024">
	<path fill="#9F8BE8" d="M0 0L1024 0L1024 67.4453L1024 811.765L1024 1024L908.949 1024C897.32 978.609 883.106 929.473 866.628 885.576C847.962 834.717 825.04 778.901 779.289 746.336C756.247 729.934 732.323 727.311 705.119 731.841Q703.201 729.897 701.168 728.074C673.4 702.966 628.144 688.181 591.313 683.874C575.865 682.067 560.748 681.934 545.233 682.677C560.81 667.508 578.693 648.894 584.986 627.502C586.898 621.001 586.407 616.793 583.182 610.965C585.564 602.813 585.193 596.057 581.279 588.447C581.716 586.393 582.025 584.266 582.127 582.166C582.593 572.645 579.253 566.287 573.054 559.401C573.719 554.527 574.134 549.374 573.174 544.513C572.023 538.684 569.26 534.801 564.461 531.5C569.891 523.289 576.634 515.632 581.596 507.177C583.786 503.446 585.123 499.384 583.868 495.104C582.931 491.91 580.492 488.788 577.537 487.206C572.4 484.455 540.917 474.605 535.689 473.942C534.164 473.749 532.507 474.016 531.044 474.449C527.502 475.497 524.274 477.735 521.806 480.45C515.649 487.222 511.261 497.103 506.655 505.02C499.956 516.531 492.959 527.824 486.471 539.464C485.031 539.42 483.628 539.427 482.204 539.688C471.424 541.666 465.038 549.876 459.16 558.312C447.827 532.414 430.054 508.582 409.7 489.092Q413.32 487.76 416.768 486.033C439.496 474.577 451.025 449.858 458.399 426.812C463.38 424.379 469.241 422.111 473.318 418.25C474.478 417.152 474.932 416.386 474.97 414.796C472.57 409.991 464.489 407.828 460.523 403.663L460.018 403.123C464.378 371.943 471.733 338.784 455.363 309.555C455.828 305.631 456.545 301.434 455.706 297.52C452.561 282.855 430.993 265.312 418.956 257.657C389.706 239.053 353.357 230.74 319.19 238.5C291.406 244.811 271.079 260.734 256.066 284.524C249.917 280.845 243.396 277.176 236.252 275.908C226.128 274.11 216.171 276.171 207.761 282.15Q207.031 282.675 206.327 283.235Q205.623 283.795 204.947 284.389Q204.272 284.983 203.626 285.609Q202.98 286.235 202.366 286.892Q201.751 287.549 201.17 288.235Q200.589 288.922 200.042 289.636Q199.495 290.349 198.983 291.089Q198.472 291.829 197.997 292.593Q197.522 293.357 197.086 294.144Q196.649 294.93 196.251 295.737Q195.854 296.544 195.496 297.369Q195.138 298.194 194.821 299.036Q194.505 299.878 194.229 300.734Q193.954 301.591 193.721 302.46Q193.488 303.328 193.298 304.207Q193.108 305.087 192.961 305.974C190.947 318.262 196.077 328.495 203.016 338.215C199.692 339.825 196.371 341.358 193.324 343.467Q192.52 344.016 191.744 344.604Q190.968 345.193 190.223 345.82Q189.478 346.447 188.766 347.11Q188.053 347.774 187.375 348.473Q186.697 349.171 186.055 349.903Q185.413 350.635 184.808 351.398Q184.204 352.162 183.639 352.955Q183.074 353.747 182.549 354.568Q182.024 355.388 181.542 356.234Q181.059 357.079 180.62 357.948Q180.18 358.817 179.785 359.707Q179.39 360.597 179.04 361.505Q178.69 362.414 178.387 363.339Q178.083 364.264 177.827 365.204Q177.57 366.143 177.361 367.094Q177.152 368.045 176.991 369.005Q176.818 369.977 176.693 370.957Q176.568 371.937 176.492 372.922Q176.416 373.907 176.389 374.894Q176.361 375.881 176.383 376.869Q176.404 377.856 176.475 378.842Q176.545 379.827 176.664 380.807Q176.783 381.788 176.951 382.761Q177.118 383.735 177.334 384.699Q177.549 385.663 177.812 386.615Q178.075 387.567 178.385 388.505Q178.694 389.443 179.05 390.364Q179.406 391.286 179.807 392.188Q180.208 393.091 180.653 393.973Q181.098 394.855 181.586 395.713Q182.074 396.572 182.604 397.405Q183.134 398.239 183.705 399.045C191.689 410.208 204.972 416.698 218.2 418.938L216.3 419.63Q213.728 420.571 211.261 421.761Q208.794 422.951 206.456 424.377Q204.118 425.804 201.932 427.453Q199.746 429.103 197.732 430.959C182.854 444.452 178.887 459.597 178.033 478.863C158.716 495.952 134.834 524.807 121.719 546.926C86.9786 524.546 56.0071 509.161 14.4213 504.69C9.6251 504.131 4.82025 503.937 0 503.718L0 0ZM685.939 6.3234C680.654 8.06647 674.69 9.64934 669.879 12.4638C667.822 13.6671 667.323 14.8752 666.792 17.0806C667.654 26.9312 667.797 36.9187 668.274 46.7994L671.233 107.913Q674.728 179.164 677.247 250.457C677.881 266.65 679.213 282.827 679.674 299.021C685.097 302.881 691.346 305.799 697.231 308.893L723.053 322.431L807.165 367.126L831.057 379.71C835.289 381.913 839.776 383.905 843.825 386.419C816.551 388.898 789.39 392.262 762.148 394.98C743.76 396.815 724.968 397.687 706.709 400.453C704.805 400.742 701.06 400.989 699.88 402.593C699.164 403.566 699.124 404.107 698.961 405.257C699.481 407.427 700.74 408.565 702.61 409.644C710.626 414.271 720.03 417.8 728.443 421.744C741.066 427.663 754.436 435.52 767.861 439.226C778.363 436.061 788.664 431.855 798.944 428.012C815.666 421.76 832.687 415.444 848.807 407.752C854.949 425.628 862.134 443.172 868.742 460.882C873.227 472.902 877.087 485.741 882.369 497.396C883.214 499.261 884.237 500.914 885.576 502.459C891.894 503.022 923.648 494.705 931.816 492.909C938.545 491.43 945.553 490.515 952.194 488.73C953.765 488.308 955.858 487.592 957.071 486.451C957.69 485.868 957.734 485.762 958.193 485.149C958.095 483.132 957.045 481.433 955.931 479.791C953.285 475.892 949.929 472.284 946.899 468.672Q937.234 457.082 927.188 445.82C920.488 438.235 914.259 430.225 907.525 422.694L908.266 423.036C918.625 427.874 953.845 450.824 961.286 451.536C967.25 452.106 975.807 449.229 981.468 447.189Q983.429 446.495 985.253 445.496Q982.499 341.667 978.563 237.876L976.511 167.748C976.141 156.092 976.513 143.662 974.926 132.126C969.07 127.517 960.311 124.631 953.453 121.566Q934.194 112.899 914.817 104.499Q860.152 80.1213 805.212 56.3717L753.05 34.1498C741.038 29.1265 728.633 24.4564 716.895 18.8546C706.435 15.099 696.413 10.0937 685.939 6.3234Z"/>
	<path fill="#070024" d="M666.792 17.0806C667.323 14.8752 667.822 13.6671 669.879 12.4638C674.69 9.64934 680.654 8.06647 685.939 6.3234C696.413 10.0937 706.435 15.099 716.895 18.8546C728.633 24.4564 741.038 29.1265 753.05 34.1498L805.212 56.3717Q860.152 80.1212 914.817 104.499Q934.194 112.899 953.453 121.566C960.311 124.631 969.07 127.517 974.926 132.126C976.513 143.662 976.141 156.092 976.511 167.748L978.563 237.876Q982.499 341.667 985.253 445.496Q983.429 446.495 981.468 447.189C975.807 449.229 967.25 452.106 961.286 451.536C953.845 450.824 918.625 427.874 908.266 423.036L907.525 422.694C914.259 430.225 920.488 438.235 927.188 445.82Q937.234 457.082 946.899 468.672C949.929 472.284 953.285 475.892 955.931 479.791C957.045 481.433 958.095 483.132 958.193 485.149C957.734 485.762 957.69 485.868 957.071 486.451C955.858 487.592 953.765 488.308 952.194 488.73C945.553 490.515 938.545 491.43 931.816 492.909C923.648 494.705 891.894 503.022 885.576 502.459C884.237 500.914 883.214 499.261 882.369 497.396C877.087 485.741 873.227 472.902 868.742 460.882C862.134 443.172 854.949 425.628 848.807 407.752C832.687 415.444 815.666 421.76 798.944 428.012C788.664 431.855 778.363 436.061 767.861 439.226C754.436 435.52 741.066 427.663 728.443 421.744C720.03 417.8 710.626 414.271 702.61 409.644C700.74 408.565 699.481 407.427 698.961 405.257C699.124 404.107 699.164 403.566 699.88 402.593C701.06 400.989 704.805 400.742 706.709 400.453C724.968 397.687 743.76 396.815 762.148 394.98C789.39 392.262 816.551 388.898 843.825 386.419C839.776 383.905 835.289 381.913 831.057 379.71L807.165 367.126L723.053 322.431L697.231 308.893C691.346 305.799 685.097 302.881 679.674 299.021C679.213 282.827 677.881 266.65 677.247 250.457Q674.728 179.164 671.233 107.913L668.274 46.7994C667.797 36.9187 667.654 26.9312 666.792 17.0806ZM684.562 13.1489L678.488 16.9631C714.547 31.2011 749.725 47.6931 785.302 63.0806Q852.831 91.6872 919.639 121.939C928.68 126.035 952.291 134.921 958.066 140.568C957.859 154.386 959.054 168.293 959.669 182.102C960.352 197.43 960.561 212.831 961.045 228.175Q964.572 335.434 966.851 442.727L971.851 441.875L978.041 440.72C977.353 366.971 972.921 293.387 970.877 219.675L969.697 172.062C969.303 160.306 968.069 148.009 969.256 136.294C961.234 133.684 953.272 129.596 945.565 126.132Q926.786 117.629 907.916 109.332L766.247 47.8628C751.895 41.5893 737.392 35.6266 723.085 29.263Q710.208 23.4932 697.132 18.1891C693.023 16.493 688.8 14.4455 684.562 13.1489ZM675.911 23.1284L683.912 197.031L686.269 252.502C686.807 266.341 687.025 280.259 688.231 294.061Q730.293 316.824 772.616 339.097C795.558 351.044 818.769 362.773 841.384 375.323C847.32 378.617 853.08 382.217 858.972 385.586L918.412 419.159Q931.615 426.636 944.94 433.894C949.721 436.523 954.527 439.53 959.474 441.811C958.695 401.22 956.704 360.591 955.568 320L952.716 221.249C952.067 195.463 951.68 169.626 950.687 143.853C938.556 137.569 925.655 132.658 913.175 127.116L825.953 88.8656L726.474 45.2115C709.727 37.8723 692.965 29.6652 675.911 23.1284ZM850.695 393.649C831.018 397.076 811.194 398.424 791.355 400.472C766.966 402.99 742.641 405.953 718.227 408.278Q733.717 414.567 748.884 421.597C754.961 424.409 761.319 428.107 767.758 429.948C767.956 429.903 768.154 429.859 768.352 429.811C777.314 427.634 786.235 423.343 794.823 419.947Q812.883 412.913 831.016 406.071C836.774 403.85 843.116 400.664 849.125 399.37C850.679 399.035 851.853 398.91 853.258 399.763C857.132 402.116 859.428 411.029 861.003 415.173C866.875 430.612 872.829 446.071 878.496 461.583C882.312 472.031 885.693 482.802 890.166 492.989C908.568 488.996 927.443 485.469 945.599 480.563Q924.917 457.191 904.73 433.39C898.982 426.572 893.766 418.313 887.384 412.194C884.615 409.539 856.294 393.569 853.21 393.413C852.397 393.372 851.501 393.536 850.695 393.649Z"/>
	<path fill="#311652" d="M678.488 16.9631L684.562 13.1489C688.8 14.4455 693.023 16.493 697.132 18.1891Q710.208 23.4932 723.085 29.263C737.392 35.6266 751.895 41.5893 766.247 47.8628L907.916 109.332Q926.786 117.629 945.565 126.132C953.272 129.596 961.234 133.684 969.256 136.294C968.069 148.009 969.303 160.306 969.697 172.062L970.877 219.675C972.921 293.387 977.353 366.971 978.041 440.72L971.851 441.875L966.851 442.727Q964.572 335.434 961.045 228.175C960.561 212.831 960.352 197.43 959.669 182.102C959.054 168.293 957.859 154.386 958.066 140.568C952.291 134.921 928.68 126.035 919.639 121.939Q852.831 91.6872 785.302 63.0806C749.725 47.6931 714.547 31.2011 678.488 16.9631Z"/>
	<path fill="#9F8BE8" d="M688.231 294.061C687.025 280.259 686.807 266.341 686.269 252.502L683.912 197.031L675.911 23.1284C692.965 29.6652 709.727 37.8723 726.474 45.2115L825.953 88.8656L913.175 127.116C925.655 132.658 938.556 137.569 950.687 143.853C951.68 169.626 952.067 195.463 952.716 221.249L955.568 320C956.704 360.591 958.695 401.22 959.474 441.811C954.527 439.53 949.721 436.523 944.94 433.894Q931.615 426.636 918.412 419.159L858.972 385.586C853.08 382.217 847.32 378.617 841.384 375.323C818.769 362.773 795.558 351.044 772.616 339.097Q730.293 316.824 688.231 294.061ZM696.992 43.4301C695.723 44.2611 694.266 44.9537 693.938 46.5464C692.858 51.7866 694.94 76.658 695.204 83.8165L698.438 181.131C698.682 188.334 701.297 262.612 703.064 264.643C707.104 269.289 732.487 280.42 739.696 284.162C784.002 307.161 828.709 329.549 872.639 353.259Q891.524 363.438 910.128 374.12C917.676 378.418 928.183 385.671 936.091 388.058C937.61 387.101 938.595 386.39 938.947 384.484C939.883 379.41 938.776 369.994 938.655 364.459Q937.814 330.211 936.483 295.978L933.723 199.929Q933.284 182.72 932.622 165.518C932.408 159.329 932.579 153.022 931.699 146.882C926.961 143.623 920.821 141.53 915.558 139.203L883.415 125.167L755.317 69.2015C744.787 64.6433 734.119 60.2723 723.738 55.3862C715.792 51.6458 708.018 47.3825 700.052 43.7396C699.09 43.2997 698.022 43.3577 696.992 43.4301Z"/>
	<path fill="#070024" d="M936.091 388.058C928.183 385.671 917.676 378.418 910.128 374.12Q891.524 363.438 872.639 353.259C828.709 329.549 784.002 307.161 739.696 284.162C732.487 280.42 707.104 269.289 703.064 264.643C701.297 262.612 698.682 188.334 698.438 181.131L695.204 83.8165C694.94 76.658 692.858 51.7866 693.938 46.5464C694.266 44.9537 695.723 44.2611 696.992 43.4301C698.022 43.3577 699.09 43.2997 700.052 43.7396C708.018 47.3825 715.792 51.6458 723.738 55.3862C734.119 60.2723 744.787 64.6433 755.317 69.2015L883.415 125.167L915.558 139.203C920.821 141.53 926.961 143.623 931.699 146.882C932.579 153.022 932.408 159.329 932.622 165.518Q933.284 182.72 933.723 199.929L936.483 295.978Q937.813 330.211 938.655 364.459C938.776 369.994 939.883 379.41 938.947 384.484C938.595 386.39 937.61 387.101 936.091 388.058ZM702.976 55.1271C703.234 71.5386 704.165 87.9776 704.838 104.378L707.905 183.251C708.981 208.657 710.276 234.195 710.498 259.622C725.481 268.284 741.49 275.739 756.957 283.524C777.105 293.665 797.16 304.138 817.142 314.606Q852.638 332.865 887.731 351.887C901.743 359.443 915.695 367.822 930.041 374.682C930.342 361.769 929.582 348.768 929.175 335.858L927.544 278.554L924.677 195.27C924.163 181.057 924.184 166.653 923.163 152.478C913.545 146.818 901.092 142.465 890.706 137.963C873.65 130.57 856.804 122.787 839.668 115.557Q798.835 98.1867 758.429 79.8441C739.905 71.5922 721.333 63.7895 702.976 55.1271Z"/>
	<path fill="#FEFDFC" d="M710.498 259.622C710.276 234.195 708.981 208.657 707.905 183.251L704.838 104.378C704.165 87.9776 703.234 71.5386 702.976 55.1271C721.333 63.7895 739.905 71.5922 758.429 79.8441Q798.835 98.1867 839.668 115.557C856.804 122.787 873.65 130.57 890.706 137.963C901.092 142.465 913.545 146.818 923.163 152.478C924.184 166.653 924.163 181.057 924.677 195.27L927.544 278.554L929.175 335.858C929.582 348.768 930.342 361.769 930.041 374.682C915.695 367.822 901.743 359.443 887.731 351.887Q852.638 332.865 817.142 314.606C797.16 304.138 777.105 293.665 756.957 283.524C741.49 275.739 725.481 268.284 710.498 259.622Z"/>
	<path fill="#070024" d="M0 503.718C4.82025 503.937 9.6251 504.131 14.4213 504.69C56.0071 509.161 86.9786 524.546 121.719 546.926C134.834 524.807 158.716 495.952 178.033 478.863C178.887 459.597 182.854 444.452 197.732 430.959Q199.746 429.103 201.932 427.453Q204.118 425.804 206.456 424.377Q208.794 422.951 211.261 421.761Q213.728 420.571 216.3 419.63L218.2 418.938C204.972 416.698 191.689 410.208 183.705 399.045Q183.134 398.239 182.604 397.405Q182.074 396.572 181.586 395.713Q181.098 394.855 180.653 393.973Q180.208 393.091 179.807 392.188Q179.406 391.286 179.05 390.364Q178.694 389.443 178.385 388.505Q178.075 387.567 177.812 386.615Q177.549 385.663 177.334 384.699Q177.118 383.735 176.951 382.761Q176.783 381.788 176.664 380.807Q176.545 379.827 176.475 378.842Q176.404 377.856 176.383 376.869Q176.361 375.881 176.389 374.894Q176.416 373.907 176.492 372.922Q176.568 371.937 176.693 370.957Q176.818 369.977 176.991 369.005Q177.152 368.045 177.361 367.094Q177.57 366.143 177.827 365.204Q178.083 364.264 178.387 363.339Q178.69 362.414 179.04 361.505Q179.39 360.597 179.785 359.707Q180.18 358.817 180.62 357.948Q181.059 357.079 181.542 356.234Q182.024 355.388 182.549 354.568Q183.074 353.747 183.639 352.955Q184.204 352.162 184.808 351.398Q185.413 350.635 186.055 349.903Q186.697 349.171 187.375 348.473Q188.053 347.774 188.766 347.11Q189.478 346.447 190.223 345.82Q190.968 345.193 191.744 344.604Q192.52 344.016 193.324 343.467C196.371 341.358 199.692 339.825 203.016 338.215C196.077 328.495 190.947 318.262 192.961 305.974Q193.108 305.087 193.298 304.207Q193.488 303.328 193.721 302.46Q193.954 301.591 194.229 300.734Q194.505 299.878 194.821 299.036Q195.138 298.194 195.496 297.369Q195.854 296.544 196.251 295.737Q196.649 294.93 197.086 294.144Q197.522 293.357 197.997 292.593Q198.472 291.829 198.983 291.089Q199.495 290.35 200.042 289.636Q200.589 288.922 201.17 288.235Q201.751 287.549 202.366 286.892Q202.98 286.235 203.626 285.609Q204.272 284.983 204.947 284.389Q205.623 283.795 206.327 283.235Q207.031 282.675 207.761 282.15C216.171 276.171 226.128 274.11 236.252 275.908C243.396 277.176 249.917 280.845 256.066 284.524C271.079 260.734 291.406 244.811 319.19 238.5C353.357 230.74 389.706 239.053 418.956 257.657C430.993 265.312 452.561 282.855 455.706 297.52C456.545 301.434 455.828 305.631 455.363 309.555C471.733 338.784 464.378 371.943 460.018 403.123L460.523 403.663C464.489 407.828 472.57 409.991 474.97 414.796C474.932 416.386 474.478 417.152 473.318 418.25C469.241 422.111 463.38 424.379 458.399 426.812C451.025 449.858 439.496 474.577 416.768 486.033Q413.32 487.76 409.7 489.092C430.054 508.582 447.827 532.414 459.16 558.312C465.038 549.876 471.424 541.666 482.204 539.688C483.628 539.427 485.031 539.42 486.471 539.464C492.959 527.824 499.956 516.531 506.655 505.02C511.261 497.103 515.649 487.222 521.806 480.45C524.274 477.735 527.502 475.497 531.044 474.449C532.507 474.016 534.164 473.749 535.689 473.942C540.917 474.605 572.4 484.455 577.537 487.206C580.492 488.788 582.931 491.91 583.868 495.104C585.123 499.384 583.786 503.446 581.596 507.177C576.634 515.632 569.891 523.289 564.461 531.5C569.26 534.801 572.023 538.684 573.174 544.513C574.134 549.374 573.719 554.527 573.054 559.401C579.253 566.287 582.593 572.645 582.127 582.166C582.025 584.266 581.716 586.393 581.279 588.447C585.193 596.057 585.564 602.813 583.182 610.965C586.407 616.793 586.898 621.001 584.986 627.502C578.693 648.894 560.81 667.508 545.233 682.677C560.748 681.934 575.865 682.067 591.313 683.874C628.144 688.181 673.4 702.966 701.168 728.074Q703.201 729.897 705.119 731.841C732.323 727.311 756.247 729.934 779.289 746.336C825.04 778.901 847.962 834.717 866.628 885.576C883.106 929.473 897.32 978.609 908.949 1024L899.529 1024C893.541 999.363 886.298 974.828 878.988 950.552C865.361 905.294 849.276 855.814 826.273 814.455C821.699 806.231 816.288 798.402 811.083 790.57L809.715 788.86C792.295 765.645 768.186 743.284 738.423 738.972C728.458 737.528 718.475 738.215 708.572 739.746C716.514 747.627 721.329 754.602 723.86 765.577C727.22 764.295 736.451 759.81 739.693 761.399C740.321 761.707 740.142 761.765 740.325 762.593C741.951 769.949 728.334 834.859 726.726 849.616C725.737 854.52 724.812 859.6 724.287 864.575C721.81 873.956 720.894 883.778 718.653 893.245C716.615 904.124 714.255 915.627 713.314 926.639Q712.145 934.249 710.846 941.839C709.522 951.773 707.97 961.535 705.724 971.305L704.769 976.38C726.357 972.708 749.649 966.785 771.266 973.226C776.807 975.278 781.886 977.529 786.882 980.692C803.238 993.342 812.08 1006.09 822.125 1024L811.986 1024C807.021 1015.45 801.569 1007.29 794.959 999.91C785.506 989.349 774.213 982.013 760.01 979.912C734.379 976.122 689.31 989.446 662.714 994.149C633.226 999.362 601.776 1002.47 571.808 1000.76C560.627 1000.12 549.382 998.856 538.51 996.114C474.068 979.861 417.787 926.428 378.872 874.747C350.002 836.406 326.077 794.639 299.652 754.657C273.209 714.649 245.63 676.98 213.689 641.174C197.398 622.913 180.24 606.153 161.941 589.92C115.693 548.89 63.3331 515.161 0 511.489L0 503.718ZM236.445 421.91C232.523 423.142 228.492 423.966 224.584 425.19C210.672 429.735 198.957 438.71 192.328 451.899C189.217 458.09 187.217 464.817 185.521 471.514C190.296 469.068 195.205 466.271 200.378 464.791L208.21 463.551C218.861 461.795 229.035 463.034 239.613 464.656L246.284 466.09C257.855 468.116 269.235 471.968 280.324 475.771L286.58 478.435C297.893 482.137 307.405 488.826 318.211 493.425L324.766 497.272C334.003 503.133 343.093 509.502 352.462 515.107L357.042 518.603Q370.578 528.998 383.503 540.143L390.415 546.621Q398.98 555.2 407.223 564.089C410.256 567.373 413.257 571.264 416.551 574.249L421.523 580.317C429.552 590.966 437.36 601.726 445.158 612.542L448.833 617.72C449.684 619.266 450.513 620.905 451.511 622.359C453.498 625.257 456.496 625.479 459.675 626.072C461.375 622.741 469.567 611.938 469.888 609.976C469.988 609.359 469.802 608.729 469.76 608.106L467.415 601.099C463.703 589.699 459.906 578.239 454.681 567.431C453.856 565.441 452.945 563.482 452.071 561.513C447.649 552.687 443.197 543.772 437.713 535.549C436.542 533.613 435.051 531.799 433.714 529.97C427.113 520.437 420.407 511.368 412.521 502.841C410.994 501.212 409.37 499.786 407.675 498.339Q400.826 491.293 393.372 484.89Q385.918 478.487 377.919 472.779C376.173 471.335 374.245 470.134 372.358 468.885C370.084 467.337 367.743 465.923 365.431 464.436C363.409 463.136 361.354 461.617 360.019 459.578C354.849 451.682 355.19 435.742 353.159 426.554C351.958 425.943 351.83 426.218 350.566 426.487C344.391 420.065 337.865 419.762 333.471 410.666C329.612 402.678 328.929 392.273 331.983 383.92C334.169 377.936 338.159 373.123 344.049 370.538C349.749 368.035 356.613 367.536 362.433 369.937C367.977 372.225 371.118 376.078 373.306 381.451C395.001 363.407 421.191 351.596 437.728 327.693C442.416 320.916 449.921 308.215 447.842 299.53C447.34 297.432 445.555 295.302 444.331 293.535C435.693 281.064 423.377 270.032 410.371 262.288C382.443 245.659 348.612 239.768 316.964 247.989Q315.16 248.463 313.378 249.017Q311.596 249.57 309.841 250.201Q308.085 250.833 306.359 251.541Q304.633 252.248 302.94 253.032Q301.247 253.815 299.589 254.672Q297.932 255.528 296.314 256.457Q294.696 257.386 293.121 258.386Q291.546 259.385 290.016 260.452Q288.486 261.52 287.004 262.654Q285.523 263.788 284.093 264.986Q282.662 266.184 281.286 267.443Q279.91 268.703 278.591 270.022Q277.272 271.341 276.012 272.717Q274.752 274.093 273.553 275.523Q272.355 276.953 271.221 278.434Q270.087 279.915 269.019 281.445C265.606 286.418 263.063 292.057 259.996 297.259L259.83 296.91L259.517 297.966C257.798 298.29 245.449 287.801 242.081 286.297C238.78 284.822 234.209 284.237 230.594 284.125C223.027 283.89 215.662 286.225 210.146 291.54C206.582 294.975 204.041 299.043 202.472 303.739C195.918 323.348 213.933 333.473 212.84 340.705C212.232 344.727 205.727 345.895 202.698 347.342C201.078 348.116 199.599 349.254 198.203 350.375C191.097 356.08 186.241 363.454 185.274 372.648C183.421 390.265 195.382 402.142 210.928 407.934C214.384 409.221 220.586 408.896 222.781 412.086C223.662 413.367 223.186 415.169 222.974 416.611L222.859 417.359C225.1 416.922 227.356 416.448 229.617 416.125C231.416 415.868 233.35 415.834 234.797 417.147C236.134 418.361 236.208 420.23 236.445 421.91ZM451.401 320.259C433.092 354.704 411.9 362.681 383.107 384.254C380.907 385.902 374.123 395.93 373.146 396.146C372.63 396.26 372.089 396.164 371.56 396.173C365.746 392.913 366.1 372.831 351.126 376.829C346.761 377.994 343.279 381.117 341.097 385.008C338.098 390.354 337.605 396.969 339.443 402.784C343.034 414.142 353.257 416.441 361.897 422.326C360.204 432.523 363.645 440.708 365.089 450.651L366.768 457.864C379.435 464.952 390.853 472.768 401.974 482.095C418.25 477.819 429.731 467.683 438.118 453.188C442.945 444.845 446.987 435.901 449.531 426.618C450.038 424.769 450.61 422.808 451.905 421.336C454.238 418.684 459.248 417.16 462.502 415.762C457.71 412.529 453.934 409.579 451.301 404.247L451.367 403.539C452.049 396.499 453.665 389.466 454.811 382.481C457.469 366.291 458.581 348.558 455.358 332.43C454.6 328.64 453.904 324.026 452.009 320.608L451.401 320.259ZM211.801 471.179C206.721 471.804 202.222 472.91 197.637 475.253C181.294 483.606 162.395 506.362 151.011 520.963C143.325 530.821 135.672 540.946 129.339 551.747C185.801 594.681 231.586 643.384 273.537 700.536C297.821 733.62 319.48 768.78 341.513 803.38C354.987 824.538 368.489 845.853 383.553 865.928C421.355 916.308 476.617 970.229 538.961 987.267C545.792 989.133 552.735 990.082 559.733 991.052C561.248 986.342 561.95 981.296 562.829 976.433C568.005 947.77 567.736 919.019 566.576 890.015C565.787 870.289 564.516 850.396 561.843 830.833C559.951 816.979 557.11 803.28 554.317 789.586C548.125 759.223 539.121 719.167 524.996 691.663Q522.26 686.349 519.024 681.323Q515.788 676.297 512.083 671.607C498.078 654.808 480.948 642.605 460.522 634.899C488.246 682.233 503.526 735.332 511.614 789.395C512.564 795.747 515.549 810.035 514.09 815.974C513.809 817.121 513.373 817.801 512.54 818.614C511.417 819.09 510.333 819.242 509.158 818.81C507.971 818.374 507.259 817.819 506.741 816.661C504.641 811.956 505.55 804.873 504.749 799.777C503.248 790.225 501.456 780.641 499.635 771.143C492.219 732.472 481.202 693.849 464.133 658.246C476.668 711.592 480.25 779.946 473.668 834.526C473.01 839.984 471.999 853.007 469.342 857.294C468.761 858.231 467.866 858.98 466.782 859.254C465.331 859.621 464.336 859.256 463.066 858.669C461.911 857.458 461.639 856.63 461.687 855C461.848 849.557 463.133 843.952 463.758 838.531Q465.534 822.697 466.408 806.788C468.979 756.313 466.95 705.082 454.959 655.821C453.271 648.884 452.158 641.148 449.083 634.689C445.587 627.345 440.26 620.461 435.538 613.855C425.558 599.894 415.289 586.188 403.796 573.422Q395.428 564.002 386.438 555.173Q377.449 546.344 367.879 538.148C330.339 506.605 272.2 473.385 222.047 470.965C218.787 470.808 215.018 470.633 211.801 471.179ZM531.68 482.952C527.668 485.965 525.31 489.038 523.139 493.543C529.204 495.116 548.588 500.036 552.259 504.153C552.463 505.079 552.798 506.315 552.645 507.255C552.147 510.333 546.172 518.337 544.315 521.242C537.548 531.827 530.284 542.097 523.314 552.55Q502.281 583.622 482.693 615.624Q484.546 620.82 486.139 626.101C487.501 623.312 488.814 620.487 490.318 617.771C495.942 608.464 501.372 599.052 508.675 590.921C513.763 585.257 520.055 580.425 524.655 574.383C530.135 567.184 534.897 559.343 539.867 551.786L560.59 520.638C565.063 513.873 570.706 507.541 574.893 500.691C575.661 499.434 576.141 498.424 575.951 496.923C572.348 492.392 541.626 483.788 535.134 483.051Q533.411 482.859 531.68 482.952ZM521.112 500.855C517.223 506.371 513.954 512.302 510.446 518.063C500.561 534.3 491.341 550.956 481.877 567.444C478.19 573.868 474.853 580.873 470.655 586.964L478.036 607.809L483.99 598.41Q500.805 571.631 518.191 545.22C526.412 532.818 535.073 520.623 542.696 507.843C535.481 505.728 528.392 502.546 521.112 500.855ZM560.208 537.755C558.849 539.618 556.837 541.866 556.072 544.034C553.714 550.727 557.334 553.693 551.888 560.882C544.807 570.23 533.978 577.918 525.344 585.902C509.084 600.939 498.08 620.583 488.888 640.473C508.353 651.994 519.734 665.731 531.89 684.29C536.789 680.343 541.135 675.454 545.408 670.843C559.256 655.902 573.483 639.21 577.793 618.767C574.521 623.378 571.336 627.932 567.517 632.116C565.185 634.233 561.277 638.721 558.025 638.842C556.677 638.892 556.238 638.416 555.297 637.604C554.743 636.07 554.911 634.974 555.592 633.536C557.035 630.491 559.767 627.861 561.998 625.369C568.302 618.328 577.636 608.609 576.215 598.445L575.497 597.844C569.584 600.328 557.951 623.186 550.347 620.486C549.215 620.084 548.513 619.374 547.946 618.36C547.83 611.778 573.932 594.246 573.942 578.764C573.945 575.148 572.545 572.006 570.797 568.913C568.96 573.285 567.018 577.43 564.429 581.414C561.069 586.588 545.911 604.919 540.837 606.876C539.89 607.241 538.847 607.339 537.932 606.885C537.056 606.45 537.366 606.677 536.767 605.941L537.725 605.952L536.609 605.657C536.13 604.02 535.974 603.291 536.873 601.716C539.913 596.386 545.162 591.614 549.027 586.758C556.757 577.047 567.989 559.26 564.97 546.134C564.257 543.033 562.633 539.847 560.208 537.755ZM480.925 548.54C474.565 551.076 469.873 556.499 467.234 562.732C465.684 566.396 464.892 569.974 466.536 573.701C466.627 573.905 466.723 574.106 466.817 574.309Q473.848 561.685 481.282 549.293L480.925 548.54ZM473.895 618.987C470.531 621.476 468.259 624.359 466.076 627.881C470.12 630.071 474.4 631.735 478.451 633.889L484.043 636.437C480.616 630.804 477.689 624.29 473.895 618.987ZM546.872 690.714C543.063 691.032 539.231 691.279 535.459 691.907C540.223 705.185 545.367 718.388 549.658 731.827C552.515 731.613 555.09 732.008 557.852 732.727C559.335 725.925 561.827 720.651 567.965 716.788Q568.448 716.484 568.946 716.206Q569.444 715.927 569.955 715.674Q570.467 715.421 570.99 715.194Q571.514 714.968 572.048 714.768Q572.582 714.568 573.126 714.395Q573.67 714.222 574.222 714.078Q574.773 713.933 575.332 713.816Q575.89 713.699 576.454 713.611Q577.018 713.523 577.585 713.463Q578.153 713.404 578.722 713.373Q579.292 713.342 579.863 713.34Q580.433 713.339 581.003 713.366Q581.573 713.393 582.141 713.449Q582.708 713.505 583.273 713.59Q583.837 713.674 584.396 713.787Q584.955 713.901 585.508 714.042C592.09 715.744 596.055 719.649 599.263 725.409Q600.797 728.225 602.23 731.093C605.191 730.304 608.028 729.993 611.087 730.248C612.539 722.753 614.798 716.663 621.423 712.144C626.374 708.766 632.093 707.632 637.96 708.782C644.886 710.141 650.5 713.885 654.924 719.283C657.792 723.34 660.213 727.486 662.217 732.037C672.968 728.157 681.811 729.582 692.619 732.586C689.251 728.61 684.549 725.445 680.222 722.604C653.016 704.744 612.27 693.587 579.969 690.949C569.225 690.072 557.607 689.812 546.872 690.714ZM630.787 716.57C625.631 718.756 621.844 721.44 619.747 726.879C619.057 728.67 618.709 730.576 618.344 732.454C622.103 735.055 625.215 737.433 627.887 741.212C632.275 738.631 636.429 736.523 641.666 736.406C646.633 736.802 650.845 737.812 655.504 739.57C652.921 731.633 649.709 722.796 641.885 718.594C638.229 716.631 634.822 716.293 630.787 716.57ZM577.295 721.51C572.039 723.483 568.247 726.107 565.8 731.354C565.055 732.953 564.538 734.621 564.044 736.309C565.691 738.644 567.63 740.703 567.196 743.755C566.455 744.827 565.903 745.374 564.593 745.723C562.669 746.236 555.863 741.036 553.305 740.285C552.998 740.195 552.692 740.096 552.384 740.008C552.191 739.953 551.996 739.907 551.803 739.857C552.607 743.654 553.275 747.559 554.347 751.286C557.682 751.922 561.235 752.665 564.253 754.267C565.609 755.434 566.149 756.377 567.976 756.399C570.901 754.817 572.586 751.902 576.015 751.107C577.991 750.649 584.562 751.307 585.796 750.213C586.275 749.789 589.293 741.474 590.546 739.624C591.741 737.859 593.382 736.438 594.958 735.022C593.458 730.233 591.932 725.736 587.157 723.246C584.081 721.641 580.697 721.402 577.295 721.51ZM671.984 737.552C669.024 738.371 665.382 739.212 663.856 742.187C662.064 745.684 663.947 750.958 664.761 754.585C673.893 750.806 681.76 749.013 691.279 752.949C697.657 755.586 702.513 760.347 705.117 766.744Q705.491 767.675 705.806 768.628C706.295 770.116 706.223 770.822 707.6 771.64C710.479 771.821 713.29 770.039 715.906 768.946C712.714 757.129 708.153 749.577 697.289 743.349C689.389 738.821 681.034 737.021 671.984 737.552ZM606.905 738.585C602.02 739.915 597.831 741.983 595.171 746.519C593.666 749.085 593.29 751.593 592.961 754.499C595.879 757.07 600.619 762.033 600.701 766.076C600.73 767.548 600.495 767.814 599.613 768.883C598.244 769.425 597.521 769.622 596.007 769.515C591.595 766.349 592.446 762.285 585.515 758.928C583.807 758.101 582.071 757.508 580.156 757.831C577.283 758.314 574.815 760.867 573.361 763.249C571.417 766.433 570.506 772.268 566.703 773.531C566.07 773.4 565.411 773.493 565.078 772.867C563.13 769.209 566.69 763.238 560.51 760.773C559.018 760.178 557.392 759.821 555.832 759.45L558.918 771.39C559.605 774.376 560.338 777.359 560.958 780.359C568.172 779.473 574.122 780.165 580.013 784.801Q580.995 785.569 581.941 786.383C585.489 780.56 588.755 776.888 595.738 775.285C600.388 774.218 604.836 774.572 609.436 775.55C611.873 769.873 614.444 764.015 620.543 761.457C621.814 760.924 623.162 760.562 624.489 760.199C624.099 753.794 623.978 746.965 618.92 742.233C615.633 739.159 611.262 738.32 606.905 738.585ZM639.817 744.147C637.078 744.768 634.52 745.253 632.889 747.765C630.883 750.854 631.315 755.609 631.251 759.156C639.841 759.938 645.117 762.736 650.937 769.097C653.461 765.207 656.042 761.346 659.181 757.916C657.142 752.577 654.423 747.872 648.887 745.556C646.068 744.378 642.855 743.988 639.817 744.147ZM676.451 758.57C670.283 760.325 664.986 763.15 661.777 768.992C661.025 770.362 660.431 771.865 659.82 773.303C658.311 773.579 656.548 773.722 655.565 775.05C653.468 777.886 654.474 783.247 654.321 786.638C660.375 785.126 666.449 783.673 672.443 781.933C681.464 779.458 690.55 777.113 699.453 774.239C697.302 768.268 694.623 763.267 688.608 760.404C684.614 758.504 680.756 758.309 676.451 758.57ZM631.032 766.627C626.814 767.429 622.082 768.943 619.507 772.641C616.517 776.934 618.087 786.744 615.047 787.649C613.629 788.07 612.663 787.687 611.612 786.766C611.163 786.373 610.766 785.925 610.346 785.502C607.903 783.044 604.605 782.539 601.216 782.576C597.7 782.615 594.39 783.717 591.906 786.279C589.386 788.879 587.573 793.359 587.577 796.988C587.579 798.526 587.86 800.161 588.161 801.668L596.107 799.978C612.797 796.25 629.922 793.169 646.422 788.717C646.702 782.488 646.926 776.144 642.282 771.267C639.462 768.307 635.048 766.82 631.032 766.627ZM729.286 773.463C723.947 775.471 718.621 777.616 713.187 779.353C715.279 790.054 718.848 800.36 721.319 810.951C721.931 813.147 722.574 815.339 723.111 817.555C726.545 803.235 727.693 788.416 730.471 773.963L729.909 773.431L729.286 773.463ZM703.157 782.066C693.178 784.894 683.245 787.976 673.215 790.608C683.198 820.841 694.991 850.467 704.982 880.687Q707.47 887.928 710.249 895.062C712.112 884.671 713.35 874.179 715.232 863.791C716.466 856.979 718.919 849.4 719.154 842.544C719.311 837.982 706.306 788.029 703.995 782.486L703.157 782.066ZM563.226 788.646C562.391 791.043 565.566 802.635 566.161 805.694Q572.564 804.553 578.954 803.337L580.419 802.859C581.299 800.064 580.133 795.466 579.739 792.522C573.933 789 569.993 788.081 563.226 788.646ZM662.737 793.022C652.773 795.919 642.812 798.917 632.659 801.091C642.517 822.696 650.916 845.104 659.658 867.181L692.708 949.375L698.197 963.602C701.495 946.447 704.253 929.241 707.141 912.022C696.384 883.684 686.897 854.87 676.596 826.357Q672.585 815.13 668.338 803.989C666.988 800.424 665.931 796.582 664.097 793.243C663.602 793.097 663.254 792.923 662.737 793.022ZM621.779 803.679C610.442 805.303 599.195 808.003 587.972 810.288C591.44 818.504 595.565 826.437 599.322 834.523C607.713 852.582 616.06 870.555 624.756 888.469L667.691 977.678L670.866 983.806C678.836 982.346 686.846 980.758 694.696 978.748C687.973 961.148 627.662 807.984 623.414 803.666C622.899 803.65 622.278 803.556 621.779 803.679ZM577.136 812.652C574.028 813.257 570.846 813.763 567.78 814.547C570.466 829.005 572.179 843.598 573.817 858.208C574.339 862.87 573.799 868.164 574.837 872.683C575.976 877.639 579.88 883.51 582.215 888.137L597.465 918.488Q607.534 938.462 617.329 958.571C622.367 968.939 627.192 979.596 632.889 989.622C638.536 988.877 644.572 988.506 650.121 987.323Q655.784 986.46 661.437 985.539C650.256 961.195 638.101 937.324 626.568 913.148C621.931 903.43 581.167 815.085 578.432 812.517L577.136 812.652ZM576.014 895.438C575.658 919.588 576.75 943.406 573.383 967.424C578.546 974.507 584.673 985.131 588.197 993.146C598.572 992.692 609.286 992.229 619.588 990.956C620.968 990.806 621.594 991.069 622.507 989.934C622.495 988.44 622.026 987.448 621.385 986.11C610.904 964.239 599.552 942.655 588.7 920.957C585.413 914.384 579.99 900.668 576.014 895.438ZM571.142 981.363C570.124 984.873 569.068 988.377 568.103 991.903L575.625 991.993L576.745 991.736C576.912 989.131 573.183 983.77 571.548 981.789C571.423 981.637 571.277 981.505 571.142 981.363Z"/>
	<path fill="#311652" d="M242.531 421.549C240.524 421.609 238.422 421.547 236.445 421.91C236.208 420.23 236.134 418.361 234.797 417.147C233.35 415.834 231.416 415.868 229.617 416.125C227.356 416.448 225.1 416.922 222.859 417.359L222.974 416.611C223.186 415.169 223.662 413.367 222.781 412.086C220.586 408.896 214.384 409.221 210.928 407.934C195.382 402.142 183.421 390.265 185.274 372.648C186.241 363.454 191.097 356.08 198.203 350.375C199.599 349.254 201.078 348.116 202.698 347.342C205.727 345.895 212.232 344.727 212.84 340.705C213.933 333.473 195.918 323.348 202.472 303.739C204.041 299.043 206.582 294.975 210.146 291.54C215.662 286.225 223.027 283.89 230.594 284.125C234.209 284.237 238.78 284.822 242.081 286.297C245.449 287.801 257.798 298.29 259.517 297.966L259.83 296.91L259.996 297.259C263.063 292.057 265.606 286.418 269.019 281.445Q270.087 279.915 271.221 278.434Q272.355 276.953 273.553 275.523Q274.752 274.093 276.012 272.717Q277.272 271.341 278.591 270.022Q279.91 268.703 281.286 267.443Q282.662 266.184 284.093 264.986Q285.523 263.788 287.004 262.654Q288.486 261.52 290.016 260.452Q291.546 259.385 293.121 258.386Q294.696 257.386 296.314 256.457Q297.932 255.528 299.589 254.672Q301.247 253.815 302.94 253.032Q304.633 252.248 306.359 251.541Q308.085 250.833 309.841 250.201Q311.596 249.57 313.378 249.017Q315.16 248.463 316.964 247.989C348.612 239.768 382.443 245.659 410.371 262.288C423.377 270.032 435.693 281.064 444.331 293.535C445.555 295.302 447.34 297.432 447.842 299.53C449.921 308.215 442.416 320.916 437.728 327.693C421.191 351.596 395.001 363.407 373.306 381.451C371.118 376.078 367.977 372.225 362.433 369.937C356.613 367.536 349.749 368.035 344.049 370.538C338.159 373.123 334.169 377.936 331.983 383.92C328.929 392.273 329.612 402.678 333.471 410.666C337.865 419.762 344.391 420.065 350.566 426.487C343.998 432.694 336.565 437.967 329.96 444.181C317.803 438.383 305.864 433.448 293.021 429.373C289.304 428.532 285.609 427.521 281.912 426.593C269.071 423.311 255.793 421.279 242.531 421.549ZM411.124 299.068C410.866 299.232 410.604 299.389 410.351 299.561C406.982 301.854 404.678 308.616 402.057 312.002C399.905 314.782 397.344 317.425 394.881 319.942C374.946 340.317 345.894 353.155 317.734 356.299C312.079 356.931 305.543 357.652 299.894 356.794C296.459 356.272 290.011 353.87 287.034 356.198C286.103 356.926 285.901 357.739 286.019 358.873C286.136 359.989 286.998 361.529 287.952 362.084C288.792 362.573 289.878 362.879 290.797 363.203C322.171 369.003 357.581 357.533 383.386 339.709C394.876 331.773 405.396 322.477 412.766 310.485C414.216 308.126 416.005 305.332 416.435 302.564C416.615 301.406 416.34 300.708 415.794 299.711C414.216 298.743 412.946 298.994 411.124 299.068ZM427.112 307.916C427.009 308.041 426.904 308.165 426.802 308.291C423.739 312.095 421.444 316.549 418.706 320.595C416.121 324.416 412.819 327.918 409.61 331.214C401.961 339.072 393.047 345.537 384.374 352.197C379.944 355.599 375.095 358.991 371.296 363.108C369.852 364.673 368.907 365.995 368.43 368.078C368.776 369.324 368.815 369.509 369.763 370.37C370.984 370.481 371.776 370.339 372.949 369.995C378.281 367.062 383.096 363.073 387.955 359.426C402.727 348.338 417.776 337.142 427.771 321.263C429.242 318.926 431.085 316.16 431.775 313.462C432.119 312.114 432.124 310.746 431.352 309.54C430.69 308.507 429.251 308.169 428.101 308.027C427.772 307.986 427.442 307.953 427.112 307.916Z"/>
	<path fill="#070024" d="M290.797 363.203C289.878 362.879 288.792 362.573 287.952 362.084C286.998 361.529 286.136 359.989 286.019 358.873C285.901 357.739 286.103 356.926 287.034 356.198C290.011 353.87 296.459 356.272 299.894 356.794C305.543 357.652 312.079 356.931 317.734 356.299C345.894 353.155 374.946 340.317 394.881 319.942C397.344 317.425 399.905 314.782 402.057 312.002C404.678 308.616 406.982 301.854 410.351 299.561C410.604 299.389 410.866 299.232 411.124 299.068C412.946 298.994 414.216 298.743 415.794 299.711C416.34 300.708 416.615 301.406 416.435 302.564C416.005 305.332 414.216 308.126 412.766 310.485C405.396 322.477 394.876 331.773 383.386 339.709C357.581 357.533 322.171 369.003 290.797 363.203Z"/>
	<path fill="#070024" d="M372.949 369.995C371.776 370.339 370.984 370.481 369.763 370.37C368.815 369.509 368.776 369.324 368.43 368.078C368.907 365.995 369.852 364.673 371.296 363.108C375.095 358.991 379.944 355.599 384.374 352.197C393.047 345.537 401.961 339.072 409.61 331.214C412.819 327.918 416.121 324.416 418.706 320.595C421.444 316.549 423.739 312.095 426.802 308.291C426.904 308.165 427.009 308.041 427.112 307.916C427.442 307.953 427.772 307.986 428.101 308.027C429.251 308.169 430.69 308.507 431.352 309.54C432.124 310.746 432.119 312.114 431.775 313.462C431.085 316.16 429.242 318.926 427.771 321.263C417.776 337.142 402.727 348.338 387.955 359.426C383.096 363.073 378.281 367.062 372.949 369.995Z"/>
	<path fill="#9F8BE8" d="M361.897 422.326C353.257 416.441 343.034 414.142 339.443 402.784C337.605 396.969 338.098 390.354 341.097 385.008C343.279 381.117 346.761 377.994 351.126 376.829C366.1 372.831 365.746 392.913 371.56 396.173C372.089 396.164 372.63 396.26 373.146 396.146C374.123 395.93 380.907 385.902 383.107 384.254C411.9 362.681 433.092 354.704 451.401 320.259L452.009 320.608C453.904 324.026 454.6 328.64 455.358 332.43C458.581 348.558 457.469 366.291 454.811 382.481C453.665 389.466 452.049 396.499 451.367 403.539L451.301 404.247C453.934 409.579 457.71 412.529 462.502 415.762C459.248 417.16 454.238 418.684 451.905 421.336C450.61 422.808 450.038 424.769 449.531 426.618C446.987 435.901 442.945 444.845 438.118 453.188C429.731 467.683 418.25 477.819 401.974 482.095C390.853 472.768 379.435 464.952 366.768 457.864L365.089 450.651C363.645 440.708 360.204 432.523 361.897 422.326ZM431.106 368.022C428.605 370.367 427.243 372.405 427.055 375.916C426.931 378.232 427.548 380.416 429.102 382.174C430.573 383.836 432.266 384.281 434.414 384.336Q435.019 384.349 435.625 384.341C437.892 382.786 438.962 381.493 439.511 378.751C440.035 376.133 439.721 373.301 438.217 371.046C437.287 369.652 435.885 368.488 434.25 368.051C433.297 367.796 432.067 367.954 431.106 368.022ZM417.985 420.721C415.896 423.833 415.06 426.718 415.801 430.466C416.615 434.586 419.311 438.255 422.891 440.41C426.374 442.507 429.774 442.844 433.712 442.127C435.003 441.308 435.906 440.782 436.638 439.372C436.63 438.648 436.794 438.242 436.277 437.655C433.356 434.335 426.573 435.307 423.64 431.701C420.76 428.161 423.884 421.323 417.985 420.721Z"/>
	<path fill="#070024" d="M435.625 384.341Q435.019 384.349 434.414 384.336C432.266 384.281 430.573 383.836 429.102 382.174C427.548 380.416 426.931 378.232 427.055 375.916C427.243 372.405 428.605 370.367 431.106 368.022C432.067 367.954 433.297 367.796 434.25 368.051C435.885 368.488 437.287 369.652 438.217 371.046C439.721 373.301 440.035 376.133 439.511 378.751C438.962 381.493 437.892 382.786 435.625 384.341Z"/>
	<path fill="#9F8BE8" d="M718.227 408.278C742.641 405.953 766.966 402.99 791.355 400.472C811.194 398.424 831.018 397.076 850.695 393.649C851.501 393.536 852.397 393.372 853.21 393.413C856.294 393.569 884.615 409.539 887.384 412.194C893.766 418.313 898.982 426.572 904.73 433.39Q924.917 457.191 945.599 480.563C927.443 485.469 908.568 488.996 890.166 492.989C885.693 482.802 882.312 472.031 878.496 461.583C872.829 446.071 866.875 430.612 861.003 415.173C859.428 411.029 857.132 402.116 853.258 399.763C851.853 398.91 850.679 399.035 849.125 399.37C843.116 400.664 836.774 403.85 831.016 406.071Q812.883 412.913 794.823 419.947C786.235 423.343 777.314 427.634 768.352 429.811C768.154 429.859 767.956 429.903 767.758 429.948C761.319 428.107 754.961 424.409 748.884 421.597Q733.717 414.567 718.227 408.278Z"/>
	<path fill="#070024" d="M433.712 442.127C429.774 442.844 426.374 442.507 422.891 440.41C419.311 438.255 416.615 434.586 415.801 430.466C415.06 426.718 415.896 423.833 417.985 420.721C423.884 421.323 420.76 428.161 423.64 431.701C426.573 435.307 433.356 434.335 436.277 437.655C436.794 438.242 436.63 438.648 436.638 439.372C435.906 440.782 435.003 441.308 433.712 442.127Z"/>
	<path fill="#FEFDFC" d="M236.445 421.91C238.422 421.547 240.524 421.609 242.531 421.549C242.309 421.724 242.089 421.903 241.864 422.075C238.453 424.684 233.923 425.791 230.403 428.424C222.122 434.617 209.804 453.449 208.21 463.551L200.378 464.791L200.198 464.196C200.759 460.653 202.693 457.09 204.211 453.857C210.333 440.824 214.57 435.389 224.584 425.19C228.492 423.966 232.523 423.142 236.445 421.91Z"/>
	<path fill="#9F8BE8" d="M242.531 421.549C255.793 421.279 269.071 423.311 281.912 426.593C268.367 434.014 256.728 441.301 246.531 453.172C244 456.118 241.052 459.606 239.952 463.376Q239.77 464.013 239.613 464.656C229.035 463.034 218.861 461.795 208.21 463.551C209.804 453.449 222.122 434.617 230.403 428.424C233.923 425.791 238.453 424.684 241.864 422.075C242.089 421.903 242.309 421.724 242.531 421.549Z"/>
	<path fill="#9F8BE8" d="M185.521 471.514C187.217 464.817 189.217 458.09 192.328 451.899C198.957 438.71 210.672 429.735 224.584 425.19C214.57 435.389 210.333 440.824 204.211 453.857C202.693 457.09 200.759 460.653 200.198 464.196L200.378 464.791C195.205 466.271 190.296 469.068 185.521 471.514Z"/>
	<path fill="#9F8BE8" d="M350.566 426.487C351.83 426.218 351.958 425.943 353.159 426.554C355.19 435.742 354.849 451.682 360.019 459.578C361.354 461.617 363.409 463.136 365.431 464.436C367.743 465.923 370.084 467.337 372.358 468.885C354.329 474.086 332.161 480.438 318.211 493.425C307.405 488.826 297.893 482.137 286.58 478.435C306.314 462.536 319.189 457.808 342.241 449.151C337.281 446.41 334.42 445.164 328.696 446.543C314.311 450.007 288.137 463.214 280.324 475.771C269.235 471.968 257.855 468.116 246.284 466.09C250.905 460.502 255.298 454.73 260.594 449.743C270.12 440.775 281.851 435.792 293.021 429.373C305.864 433.448 317.803 438.383 329.96 444.181C336.565 437.967 343.998 432.694 350.566 426.487Z"/>
	<path fill="#FEFDFC" d="M239.613 464.656Q239.77 464.013 239.952 463.376C241.052 459.606 244 456.118 246.531 453.172C256.728 441.301 268.367 434.014 281.912 426.593C285.609 427.521 289.304 428.532 293.021 429.373C281.851 435.792 270.12 440.775 260.594 449.743C255.298 454.73 250.905 460.502 246.284 466.09L239.613 464.656Z"/>
	<path fill="#FEFDFC" d="M280.324 475.771C288.137 463.214 314.311 450.007 328.696 446.543C334.42 445.164 337.281 446.41 342.241 449.151C319.189 457.808 306.314 462.536 286.58 478.435L280.324 475.771Z"/>
	<path fill="#FEFDFC" d="M318.211 493.425C332.161 480.438 354.329 474.086 372.358 468.885C374.245 470.134 376.173 471.335 377.919 472.779C372.381 475.877 365.427 477.651 359.435 479.823C347.325 484.212 335.311 489.799 324.766 497.272L318.211 493.425Z"/>
	<path fill="#9F8BE8" d="M129.339 551.747C135.672 540.946 143.325 530.821 151.011 520.963C162.395 506.362 181.294 483.606 197.637 475.253C202.222 472.91 206.721 471.804 211.801 471.179C215.018 470.633 218.787 470.808 222.047 470.965C272.2 473.385 330.339 506.605 367.879 538.148Q377.449 546.344 386.438 555.173Q395.428 564.002 403.796 573.422C415.289 586.188 425.558 599.894 435.538 613.855C440.26 620.461 445.587 627.345 449.083 634.689C452.158 641.148 453.271 648.884 454.959 655.821C466.95 705.082 468.979 756.313 466.408 806.788Q465.534 822.697 463.758 838.531C463.133 843.952 461.848 849.557 461.687 855C461.639 856.63 461.911 857.458 463.066 858.669C464.336 859.256 465.331 859.621 466.782 859.254C467.866 858.98 468.761 858.231 469.342 857.294C471.999 853.007 473.01 839.984 473.668 834.526C480.25 779.946 476.668 711.592 464.133 658.246C481.202 693.849 492.219 732.472 499.635 771.143C501.456 780.641 503.248 790.225 504.749 799.777C505.55 804.873 504.641 811.956 506.741 816.661C507.259 817.819 507.971 818.374 509.158 818.81C510.333 819.242 511.417 819.09 512.54 818.614C513.373 817.801 513.809 817.121 514.09 815.974C515.549 810.035 512.564 795.747 511.614 789.395C503.526 735.332 488.246 682.233 460.522 634.899C480.948 642.605 498.078 654.808 512.083 671.607Q515.788 676.297 519.024 681.323Q522.26 686.349 524.996 691.663C539.121 719.167 548.125 759.223 554.317 789.586C557.11 803.28 559.951 816.979 561.843 830.833C564.516 850.396 565.787 870.289 566.576 890.015C567.736 919.019 568.005 947.77 562.829 976.433C561.95 981.296 561.248 986.342 559.733 991.052C552.735 990.082 545.792 989.133 538.961 987.267C476.617 970.229 421.355 916.308 383.553 865.928C368.489 845.853 354.987 824.538 341.513 803.38C319.48 768.78 297.821 733.62 273.537 700.536C231.586 643.384 185.801 594.681 129.339 551.747Z"/>
	<path fill="#9F8BE8" d="M377.919 472.779Q385.918 478.487 393.372 484.89Q400.826 491.293 407.675 498.339C391.585 501.099 364.88 504.746 352.462 515.107C343.093 509.502 334.003 503.133 324.766 497.272C335.311 489.799 347.325 484.212 359.435 479.823C365.427 477.651 372.381 475.877 377.919 472.779Z"/>
	<path fill="#311652" d="M523.139 493.543C525.31 489.038 527.668 485.965 531.68 482.952Q533.411 482.859 535.134 483.051C541.626 483.788 572.348 492.392 575.951 496.923C576.141 498.424 575.661 499.434 574.893 500.691C570.706 507.541 565.063 513.873 560.59 520.638L539.867 551.786C534.897 559.343 530.135 567.184 524.655 574.383C520.055 580.425 513.763 585.257 508.675 590.921C501.372 599.052 495.942 608.464 490.318 617.771C488.814 620.487 487.501 623.312 486.139 626.101Q484.546 620.82 482.693 615.624Q502.281 583.622 523.314 552.55C530.284 542.097 537.548 531.827 544.315 521.242C546.172 518.337 552.147 510.333 552.645 507.255C552.798 506.315 552.463 505.079 552.259 504.153C548.588 500.036 529.204 495.116 523.139 493.543Z"/>
	<path fill="#FEFDFC" d="M352.462 515.107C364.88 504.746 391.585 501.099 407.675 498.339C409.37 499.786 410.994 501.212 412.521 502.841C408.022 505.33 400.742 506.077 395.691 507.149C383.142 509.813 368.454 512.612 357.042 518.603L352.462 515.107Z"/>
	<path fill="#FEFDFC" d="M470.655 586.964C474.853 580.873 478.19 573.868 481.877 567.444C491.341 550.956 500.561 534.3 510.446 518.063C513.954 512.302 517.223 506.371 521.112 500.855C528.392 502.546 535.481 505.728 542.696 507.843C535.073 520.623 526.412 532.818 518.191 545.22Q500.805 571.631 483.99 598.41L478.036 607.809L470.655 586.964Z"/>
	<path fill="#9F8BE8" d="M412.521 502.841C420.407 511.368 427.113 520.437 433.714 529.97C424.125 529.995 390.093 534.98 383.503 540.143Q370.578 528.998 357.042 518.603C368.454 512.612 383.142 509.813 395.691 507.149C400.742 506.077 408.022 505.33 412.521 502.841Z"/>
	<path fill="#9F8BE8" d="M0 511.489C63.3331 515.161 115.693 548.89 161.941 589.92C180.24 606.153 197.398 622.913 213.689 641.174C245.63 676.98 273.209 714.649 299.652 754.657C326.077 794.639 350.002 836.406 378.872 874.747C417.787 926.428 474.068 979.861 538.51 996.114C549.382 998.856 560.627 1000.12 571.808 1000.76C601.776 1002.47 633.226 999.362 662.714 994.149C689.31 989.446 734.379 976.122 760.01 979.912C774.213 982.013 785.506 989.349 794.959 999.91C801.569 1007.29 807.021 1015.45 811.986 1024L0.336503 1024L0 1024L0 512.172L0 511.489Z"/>
	<path fill="#FEFDFC" d="M383.503 540.143C390.093 534.98 424.125 529.995 433.714 529.97C435.051 531.799 436.542 533.613 437.713 535.549C424.455 538.877 401.162 538.61 390.415 546.621L383.503 540.143Z"/>
	<path fill="#9F8BE8" d="M390.415 546.621C401.162 538.61 424.455 538.877 437.713 535.549C443.197 543.772 447.649 552.687 452.071 561.513C440.347 565.809 427.883 569.028 416.551 574.249C413.257 571.264 410.256 567.373 407.223 564.089Q398.98 555.2 390.415 546.621Z"/>
	<path fill="#9F8BE8" d="M488.888 640.473C498.08 620.583 509.084 600.939 525.344 585.902C533.978 577.918 544.807 570.23 551.888 560.882C557.334 553.693 553.714 550.727 556.072 544.034C556.837 541.866 558.849 539.618 560.208 537.755C562.633 539.847 564.257 543.033 564.97 546.134C567.989 559.26 556.757 577.047 549.027 586.758C545.162 591.614 539.913 596.386 536.873 601.716C535.974 603.291 536.13 604.02 536.609 605.657L537.725 605.952L536.767 605.941C537.366 606.677 537.056 606.45 537.932 606.885C538.847 607.339 539.89 607.241 540.837 606.876C545.911 604.919 561.069 586.588 564.429 581.414C567.018 577.43 568.96 573.285 570.797 568.913C572.545 572.006 573.945 575.148 573.942 578.764C573.932 594.246 547.83 611.778 547.946 618.36C548.513 619.374 549.215 620.084 550.347 620.486C557.951 623.186 569.584 600.328 575.497 597.844L576.215 598.445C577.636 608.609 568.302 618.328 561.998 625.369C559.767 627.861 557.035 630.491 555.592 633.536C554.911 634.974 554.743 636.07 555.297 637.604C556.238 638.416 556.677 638.892 558.025 638.842C561.277 638.721 565.185 634.233 567.517 632.116C571.336 627.932 574.521 623.378 577.793 618.767C573.483 639.21 559.256 655.902 545.408 670.843C541.135 675.454 536.789 680.343 531.89 684.29C519.734 665.731 508.353 651.994 488.888 640.473Z"/>
	<path fill="#9F8BE8" d="M466.817 574.309C466.723 574.106 466.627 573.905 466.536 573.701C464.892 569.974 465.684 566.396 467.234 562.732C469.873 556.499 474.565 551.076 480.925 548.54L481.282 549.293Q473.848 561.685 466.817 574.309Z"/>
	<path fill="#FEFDFC" d="M416.551 574.249C427.883 569.028 440.347 565.809 452.071 561.513C452.945 563.482 453.856 565.441 454.681 567.431C447.174 572.502 430.65 577.073 421.523 580.317L416.551 574.249Z"/>
	<path fill="#9F8BE8" d="M421.523 580.317C430.65 577.073 447.174 572.502 454.681 567.431C459.906 578.239 463.703 589.699 467.415 601.099C460.092 605.619 452.893 608.875 445.158 612.542C437.36 601.726 429.552 590.966 421.523 580.317Z"/>
	<path fill="#FEFDFC" d="M445.158 612.542C452.893 608.875 460.092 605.619 467.415 601.099L469.76 608.106C462.519 610.571 455.94 614.894 448.833 617.72L445.158 612.542Z"/>
	<path fill="#9F8BE8" d="M448.833 617.72C455.94 614.894 462.519 610.571 469.76 608.106C469.802 608.729 469.988 609.359 469.888 609.976C469.567 611.938 461.375 622.741 459.675 626.072C456.496 625.479 453.498 625.257 451.511 622.359C450.513 620.905 449.684 619.266 448.833 617.72Z"/>
	<path fill="#311652" d="M466.076 627.881C468.259 624.359 470.531 621.476 473.895 618.987C477.689 624.29 480.616 630.804 484.043 636.437L478.451 633.889C474.4 631.735 470.12 630.071 466.076 627.881Z"/>
	<path fill="#9F8BE8" d="M535.459 691.907C539.231 691.279 543.063 691.032 546.872 690.714C557.607 689.812 569.225 690.072 579.969 690.949C612.27 693.587 653.016 704.744 680.222 722.604C684.549 725.445 689.251 728.61 692.619 732.586C681.811 729.582 672.968 728.157 662.217 732.037C660.213 727.486 657.792 723.34 654.924 719.283C650.5 713.885 644.886 710.141 637.96 708.782C632.093 707.632 626.374 708.766 621.423 712.144C614.798 716.663 612.539 722.753 611.087 730.248C608.028 729.993 605.191 730.304 602.23 731.093Q600.797 728.225 599.263 725.409C596.055 719.649 592.09 715.744 585.508 714.042Q584.955 713.901 584.396 713.787Q583.837 713.674 583.273 713.59Q582.708 713.505 582.141 713.449Q581.573 713.393 581.003 713.366Q580.433 713.339 579.862 713.341Q579.292 713.342 578.722 713.373Q578.153 713.404 577.585 713.463Q577.018 713.523 576.454 713.611Q575.89 713.699 575.332 713.816Q574.773 713.933 574.222 714.078Q573.67 714.222 573.126 714.395Q572.582 714.568 572.048 714.768Q571.514 714.968 570.99 715.194Q570.467 715.421 569.955 715.674Q569.444 715.927 568.946 716.206Q568.448 716.484 567.965 716.788C561.827 720.651 559.335 725.925 557.852 732.727C555.09 732.008 552.515 731.613 549.658 731.827C545.367 718.388 540.223 705.185 535.459 691.907Z"/>
	<path fill="#FEFDFC" d="M618.344 732.454C618.709 730.576 619.057 728.67 619.747 726.879C621.844 721.44 625.631 718.756 630.787 716.57C634.822 716.293 638.229 716.631 641.885 718.594C649.709 722.796 652.921 731.633 655.504 739.57C650.845 737.812 646.633 736.802 641.666 736.406C636.429 736.523 632.275 738.631 627.887 741.212C625.215 737.433 622.103 735.055 618.344 732.454Z"/>
	<path fill="#FEFDFC" d="M564.044 736.309C564.538 734.621 565.055 732.953 565.8 731.354C568.247 726.107 572.039 723.483 577.295 721.51C580.697 721.402 584.081 721.641 587.157 723.246C591.932 725.736 593.458 730.233 594.958 735.022C593.382 736.438 591.741 737.859 590.546 739.624C589.293 741.474 586.275 749.789 585.796 750.213C584.562 751.307 577.991 750.649 576.015 751.107C572.586 751.902 570.901 754.817 567.976 756.399C566.149 756.377 565.609 755.434 564.253 754.267C561.235 752.665 557.682 751.922 554.347 751.286C553.275 747.559 552.607 743.654 551.803 739.857C551.996 739.907 552.191 739.953 552.384 740.008C552.692 740.096 552.998 740.195 553.305 740.285C555.863 741.036 562.669 746.236 564.593 745.723C565.903 745.374 566.455 744.827 567.196 743.755C567.63 740.703 565.691 738.644 564.044 736.309Z"/>
	<path fill="#FEFDFC" d="M664.761 754.585C663.947 750.958 662.064 745.684 663.856 742.187C665.382 739.212 669.024 738.371 671.984 737.552C681.034 737.021 689.389 738.821 697.289 743.349C708.153 749.577 712.714 757.129 715.906 768.946C713.29 770.039 710.479 771.821 707.6 771.64C706.223 770.822 706.295 770.116 705.806 768.628Q705.491 767.675 705.117 766.744C702.513 760.347 697.657 755.586 691.279 752.949C681.76 749.013 673.893 750.806 664.761 754.585Z"/>
	<path fill="#FEFDFC" d="M708.572 739.746C718.475 738.215 728.458 737.528 738.423 738.972C768.186 743.284 792.295 765.645 809.715 788.86L809.151 789.073C802.791 784.5 795.785 780.708 788.956 776.882C791.192 787.556 794.683 797.961 796.603 808.692C800.188 804.167 810.055 795.841 811.083 790.57C816.288 798.402 821.699 806.231 826.273 814.455C849.276 855.814 865.361 905.294 878.988 950.552C886.298 974.828 893.541 999.363 899.529 1024L868.068 1024C872.212 1018.67 876.864 1014.08 881.315 1009.03C868.329 1008.93 855.281 1007.48 842.279 1007.07C843.968 1012.63 845.153 1018.33 846.432 1024L822.125 1024C812.08 1006.09 803.238 993.342 786.882 980.692C792.389 974.943 798.52 969.871 803.326 963.471C792.414 959.444 780.448 957.464 769.077 955.109C769.593 961.137 770.045 967.296 771.266 973.226C749.649 966.785 726.357 972.708 704.769 976.38L705.724 971.305L706.896 971.498C709.731 970.916 711.924 968.974 714.129 967.228C722.878 961.388 730.722 954.333 739.305 948.279Q725.209 944.468 710.846 941.839Q712.145 934.249 713.314 926.639C724.092 919.338 732.752 908.556 742.998 900.431C735.734 897.075 726.493 894.83 718.653 893.245C720.894 883.778 721.81 873.956 724.287 864.575Q729.743 858.364 735.399 852.335C733.161 851.799 728.329 851.179 726.726 849.616C728.334 834.859 741.951 769.949 740.325 762.593C740.142 761.765 740.321 761.707 739.693 761.399C736.451 759.81 727.22 764.295 723.86 765.577C721.329 754.602 716.514 747.627 708.572 739.746ZM756.412 768.663L755.17 775.013L755.56 775.54C756.424 774.849 757.116 774.159 757.837 773.319L761.376 769.749L756.412 768.663ZM754.359 805.773C755.24 818.179 756.884 830.599 757.302 843.024C762.088 838.054 767.079 833.368 772.162 828.705C776.962 824.474 781.27 819.803 785.881 815.384C775.498 811.712 764.982 808.67 754.359 805.773ZM798.861 817.723C801.408 829.332 803.674 841.11 806.591 852.624C810.557 848.533 814.182 844.127 817.869 839.786Q823.584 833.234 829.718 827.071C819.501 823.453 809.362 820.412 798.861 817.723ZM758.188 857.876C759.282 870.234 760.822 882.56 761.851 894.919C766.16 890.443 770.579 886.065 774.851 881.554L789.662 866.446C779.509 862.667 768.704 860.43 758.188 857.876ZM809.058 866.781Q813.786 885.133 817.854 903.642C821.936 898.845 826.182 894.119 830.107 889.196Q836.948 881.444 844.096 873.973C832.502 871.004 820.837 868.853 809.058 866.781ZM762.855 906.747C764.47 919.238 766.617 932.061 767.271 944.62C772.887 939.995 778 934.944 783.085 929.75Q790.084 922.713 797.218 915.811Q780.279 910.361 762.855 906.747ZM819.452 916.484Q823.92 934.247 828.703 951.927Q834.717 944.282 840.872 936.75C845.908 930.632 851.428 924.54 855.946 918.033Q837.714 916.916 819.452 916.484ZM831.2 963.385C834.894 975.856 838.616 989.013 840.923 1001.8C845.641 996.133 850.309 990.411 855.104 984.806C860.53 978.513 865.894 972.257 870.809 965.551C857.604 964.887 844.424 963.628 831.2 963.385Z"/>
	<path fill="#FEFDFC" d="M592.961 754.499C593.29 751.593 593.666 749.085 595.171 746.519C597.831 741.983 602.02 739.915 606.905 738.585C611.262 738.32 615.633 739.159 618.92 742.233C623.978 746.965 624.099 753.794 624.489 760.199C623.162 760.562 621.814 760.924 620.543 761.457C614.444 764.015 611.873 769.873 609.436 775.55C604.836 774.572 600.388 774.218 595.738 775.285C588.755 776.888 585.489 780.56 581.941 786.383Q580.995 785.569 580.013 784.801C574.122 780.165 568.172 779.473 560.958 780.359C560.338 777.359 559.605 774.376 558.918 771.39L555.832 759.45C557.392 759.821 559.018 760.178 560.51 760.773C566.69 763.238 563.13 769.209 565.078 772.867C565.411 773.493 566.07 773.4 566.703 773.531C570.506 772.268 571.417 766.433 573.361 763.249C574.815 760.867 577.283 758.314 580.156 757.831C582.071 757.508 583.807 758.101 585.515 758.928C592.446 762.285 591.595 766.349 596.007 769.515C597.521 769.622 598.244 769.425 599.613 768.883C600.495 767.814 600.73 767.548 600.701 766.076C600.619 762.033 595.879 757.07 592.961 754.499Z"/>
	<defs>
		<linearGradient id="gradient_0" gradientUnits="userSpaceOnUse" x1="634.90436" y1="761.91321" x2="653.59851" y2="749.6106">
			<stop offset="0" stop-color="#FBF8D9"/>
			<stop offset="1" stop-color="#FBFCF4"/>
		</linearGradient>
	</defs>
	<path fill="url(#gradient_0)" d="M631.251 759.156C631.315 755.609 630.883 750.854 632.889 747.765C634.52 745.253 637.078 744.768 639.817 744.147C642.855 743.988 646.068 744.378 648.887 745.556C654.423 747.872 657.142 752.577 659.181 757.916C656.042 761.346 653.461 765.207 650.937 769.097C645.117 762.736 639.841 759.938 631.251 759.156Z"/>
	<path fill="#FEFDFC" d="M659.82 773.303C660.431 771.865 661.025 770.362 661.777 768.992C664.986 763.15 670.283 760.325 676.451 758.57C680.756 758.309 684.614 758.504 688.608 760.404C694.623 763.267 697.302 768.268 699.453 774.239C690.55 777.113 681.464 779.458 672.443 781.933C666.449 783.673 660.375 785.126 654.321 786.638C654.474 783.247 653.468 777.886 655.565 775.05C656.548 773.722 658.311 773.579 659.82 773.303Z"/>
	<path fill="#FEFDFC" d="M588.161 801.668C587.86 800.161 587.579 798.526 587.577 796.988C587.573 793.359 589.386 788.879 591.906 786.279C594.39 783.717 597.7 782.615 601.216 782.576C604.605 782.539 607.903 783.044 610.346 785.502C610.766 785.925 611.163 786.373 611.612 786.766C612.663 787.687 613.629 788.07 615.047 787.649C618.087 786.744 616.517 776.934 619.507 772.641C622.082 768.943 626.814 767.429 631.032 766.627C635.048 766.82 639.462 768.307 642.282 771.267C646.926 776.144 646.702 782.488 646.422 788.717C629.922 793.169 612.797 796.25 596.107 799.978L588.161 801.668Z"/>
	<path fill="#9F8BE8" d="M757.837 773.319C757.116 774.159 756.424 774.849 755.56 775.54L755.17 775.013L756.412 768.663L761.376 769.749L757.837 773.319Z"/>
	<path fill="#F8618A" d="M713.187 779.353C718.621 777.616 723.947 775.471 729.286 773.463L729.909 773.431L730.471 773.963C727.693 788.416 726.545 803.235 723.111 817.555C722.574 815.339 721.931 813.147 721.319 810.951C718.848 800.36 715.279 790.054 713.187 779.353Z"/>
	<path fill="#9F8BE8" d="M809.715 788.86L811.083 790.57C810.055 795.841 800.188 804.167 796.603 808.692C794.683 797.961 791.192 787.556 788.956 776.882C795.785 780.708 802.791 784.5 809.151 789.073L809.715 788.86Z"/>
	<path fill="#F8618A" d="M673.215 790.608C683.245 787.976 693.178 784.894 703.157 782.066L703.995 782.486C706.306 788.029 719.311 837.982 719.154 842.544C718.919 849.4 716.466 856.979 715.232 863.791C713.35 874.179 712.112 884.671 710.249 895.062Q707.47 887.928 704.982 880.687C694.991 850.467 683.198 820.841 673.215 790.608Z"/>
	<path fill="#FEFDFC" d="M566.161 805.694C565.566 802.635 562.391 791.043 563.226 788.646C569.993 788.081 573.933 789 579.739 792.522C580.133 795.466 581.299 800.064 580.419 802.859L578.954 803.337Q572.564 804.553 566.161 805.694Z"/>
	<path fill="#F8618A" d="M632.659 801.091C642.812 798.917 652.773 795.919 662.737 793.022C663.254 792.923 663.602 793.097 664.097 793.243C665.931 796.582 666.988 800.424 668.338 803.989Q672.585 815.13 676.596 826.357C686.897 854.87 696.384 883.684 707.141 912.022C704.253 929.241 701.495 946.447 698.197 963.602L692.708 949.375L659.658 867.181C650.916 845.104 642.517 822.696 632.659 801.091Z"/>
	<path fill="#F8618A" d="M587.972 810.288C599.195 808.003 610.442 805.303 621.779 803.679C622.278 803.556 622.899 803.65 623.414 803.666C627.662 807.984 687.973 961.148 694.696 978.748C686.846 980.758 678.836 982.346 670.866 983.806L667.691 977.678L624.756 888.469C616.06 870.555 607.713 852.582 599.322 834.523C595.565 826.437 591.44 818.504 587.972 810.288Z"/>
	<path fill="#9F8BE8" d="M757.302 843.024C756.884 830.599 755.24 818.179 754.359 805.773C764.982 808.67 775.498 811.712 785.881 815.384C781.27 819.803 776.962 824.474 772.162 828.705C767.079 833.368 762.088 838.054 757.302 843.024Z"/>
	<path fill="#F8618A" d="M567.78 814.547C570.846 813.763 574.028 813.257 577.136 812.652L578.432 812.517C581.167 815.085 621.931 903.43 626.568 913.148C638.101 937.324 650.256 961.195 661.437 985.539Q655.784 986.46 650.121 987.323C644.572 988.506 638.536 988.877 632.889 989.622C627.192 979.596 622.367 968.939 617.329 958.571Q607.534 938.462 597.465 918.488L582.215 888.137C579.88 883.51 575.976 877.639 574.837 872.683C573.799 868.164 574.339 862.87 573.817 858.208C572.179 843.598 570.466 829.005 567.78 814.547Z"/>
	<path fill="#9F8BE8" d="M806.591 852.624C803.674 841.11 801.408 829.332 798.861 817.723C809.362 820.412 819.501 823.453 829.718 827.071Q823.584 833.234 817.869 839.786C814.182 844.127 810.557 848.533 806.591 852.624Z"/>
	<path fill="#9F8BE8" d="M724.287 864.575C724.812 859.6 725.737 854.52 726.726 849.616C728.329 851.179 733.161 851.799 735.399 852.335Q729.743 858.364 724.287 864.575Z"/>
	<path fill="#9F8BE8" d="M761.851 894.919C760.822 882.56 759.282 870.234 758.188 857.876C768.704 860.43 779.509 862.667 789.662 866.446L774.851 881.554C770.579 886.065 766.16 890.443 761.851 894.919Z"/>
	<path fill="#9F8BE8" d="M817.854 903.642Q813.786 885.133 809.058 866.781C820.837 868.853 832.502 871.004 844.096 873.973Q836.948 881.444 830.107 889.196C826.182 894.119 821.936 898.845 817.854 903.642Z"/>
	<path fill="#9F8BE8" d="M713.314 926.639C714.255 915.627 716.615 904.124 718.653 893.245C726.493 894.83 735.734 897.075 742.998 900.431C732.752 908.556 724.092 919.338 713.314 926.639Z"/>
	<path fill="#F8618A" d="M573.383 967.424C576.75 943.406 575.658 919.588 576.014 895.438C579.99 900.668 585.413 914.384 588.7 920.957C599.552 942.655 610.904 964.239 621.385 986.11C622.026 987.448 622.495 988.44 622.507 989.934C621.594 991.069 620.968 990.806 619.588 990.956C609.286 992.229 598.572 992.692 588.197 993.146C584.673 985.131 578.546 974.507 573.383 967.424Z"/>
	<path fill="#9F8BE8" d="M767.271 944.62C766.617 932.061 764.47 919.238 762.855 906.747Q780.279 910.361 797.218 915.811Q790.084 922.713 783.085 929.75C778 934.944 772.887 939.995 767.271 944.62Z"/>
	<path fill="#9F8BE8" d="M828.703 951.927Q823.92 934.247 819.452 916.484Q837.714 916.916 855.946 918.033C851.428 924.54 845.908 930.632 840.872 936.75Q834.717 944.282 828.703 951.927Z"/>
	<path fill="#9F8BE8" d="M710.846 941.839Q725.209 944.468 739.305 948.279C730.722 954.333 722.878 961.388 714.129 967.228C711.924 968.974 709.731 970.916 706.896 971.498L705.724 971.305C707.97 961.535 709.522 951.773 710.846 941.839Z"/>
	<path fill="#9F8BE8" d="M771.266 973.226C770.045 967.296 769.593 961.137 769.077 955.109C780.448 957.464 792.414 959.444 803.326 963.471C798.52 969.871 792.389 974.943 786.882 980.692C781.886 977.529 776.807 975.278 771.266 973.226Z"/>
	<path fill="#9F8BE8" d="M840.923 1001.8C838.616 989.013 834.894 975.856 831.2 963.385C844.424 963.628 857.604 964.887 870.809 965.551C865.894 972.257 860.53 978.513 855.104 984.806C850.309 990.411 845.641 996.133 840.923 1001.8Z"/>
	<path fill="#F8618A" d="M568.103 991.903C569.068 988.377 570.124 984.873 571.142 981.363C571.277 981.505 571.423 981.637 571.548 981.789C573.183 983.77 576.912 989.131 576.745 991.736L575.625 991.993L568.103 991.903Z"/>
	<path fill="#9F8BE8" d="M846.432 1024C845.153 1018.33 843.968 1012.63 842.279 1007.07C855.281 1007.48 868.329 1008.93 881.315 1009.03C876.864 1014.08 872.212 1018.67 868.068 1024L846.432 1024Z"/>
</svg>
