<?xml version="1.0" encoding="utf-8" ?>
<svg xmlns="http://www.w3.org/2000/svg" xmlns:xlink="http://www.w3.org/1999/xlink" width="1024" height="1024">
	<path fill="#D5D4F1" d="M0 0L287.573 0L287.738 137.549C287.705 159.209 288.61 181.861 287.55 203.413C277.599 201.153 267 200.082 256.872 198.799C183.204 189.468 106.637 197.897 35.7899 219.641C25.6575 222.75 9.24512 227.616 0 231.93L0 0Z"/>
	<path fill="#9F8BE8" d="M287.573 0L436.994 0L437.087 168.126L437.186 223.495C437.182 233.355 437.605 243.535 436.843 253.345C432.062 250.356 426.625 249.191 421.223 247.861C411.025 246.899 401.256 248.017 391.686 251.778C379.599 241.195 368.557 233.902 351.821 235.041C318.346 237.32 287.899 263.306 266.886 287.735C247.407 310.382 228.774 341.591 231.013 372.394C231.33 376.753 231.441 388.532 235.09 391.279C235.744 391.772 236.103 391.635 236.874 391.651C238.296 390.699 238.781 389.958 239.144 388.279C239.193 388.054 239.224 387.825 239.264 387.598C238.124 379.332 245.495 375.684 247.537 368.73C247.974 367.242 247.733 366.447 246.956 365.16L245.947 365.043C241.722 367.424 238.444 372.926 235.517 376.74C235.655 359.289 241.082 343.06 248.766 327.581C264.92 295.041 300.578 256.921 335.515 245.375C347.554 241.396 360.947 240.033 372.586 246.016C379.627 249.635 385.939 255.402 391.539 260.946C399.704 269.029 423.878 297.71 426.72 307.554C428.882 315.043 425.329 325.106 421.783 331.73C416.675 341.271 408.52 349.255 399.114 354.546C382.973 363.626 366.735 364.448 349.246 358.467C341.339 355.763 335.445 351.237 326.581 354.101C315.381 357.72 309.383 370.499 307.811 381.411C307.205 385.615 307.493 389.997 306.615 394.156C305.235 400.684 301.716 408.058 298.59 413.952C294.377 421.899 288.381 429.05 279.402 431.629C272.118 433.721 266.126 431.44 259.796 427.994C261.983 425.936 264.826 423.431 265.611 420.42C267.357 413.729 259.511 395.533 255.876 389.595C254.662 387.612 253.621 386.089 251.273 385.529C249.723 385.887 249.496 386.103 248.322 387.201C248.361 387.418 248.399 387.636 248.441 387.854C249.838 395.079 260.873 414.753 256.979 420.593C256.159 421.823 255.094 422.375 253.659 422.582C249.534 423.177 246.44 422.08 242.426 423.923C237.736 419.955 231.995 415.507 225.461 416.172C215.78 417.157 198.923 440.342 191.354 447.415C191.16 447.597 190.975 447.789 190.779 447.969C188.372 450.19 184.545 451.142 181.649 452.664C177.615 454.784 173.648 457.117 169.758 459.493C156.442 467.627 143.404 476.797 131.066 486.352C124.279 491.609 117.929 497.362 111.226 502.705C104.243 508.271 97.1692 513.152 90.8837 519.578C84.3687 526.239 79.4894 534.581 73.7833 541.959C52.1081 569.983 33.0714 599.296 17.6074 631.23C11.2674 644.323 6.29907 658.036 0 671.098L0 231.93C9.24512 227.616 25.6575 222.75 35.7899 219.641C106.637 197.897 183.204 189.468 256.872 198.799C267 200.082 277.599 201.153 287.55 203.413C288.61 181.861 287.705 159.209 287.738 137.549L287.573 0ZM321.431 289.439Q319.539 290.228 317.676 291.083Q315.813 291.939 313.982 292.861Q312.151 293.782 310.354 294.769Q308.557 295.755 306.796 296.805Q305.036 297.855 303.314 298.967Q301.591 300.079 299.91 301.251Q298.229 302.424 296.59 303.656Q294.952 304.888 293.358 306.178Q291.765 307.467 290.219 308.813Q288.672 310.159 287.175 311.559Q285.677 312.959 284.231 314.411Q282.784 315.864 281.39 317.367Q279.997 318.87 278.657 320.422Q277.318 321.974 276.035 323.573Q274.752 325.172 273.527 326.815Q272.302 328.459 271.136 330.145C268.636 333.693 265.708 337.494 264.114 341.537C263.502 343.089 262.996 344.834 263.826 346.412C264.464 347.624 265.385 348.173 266.71 348.374C267.632 348.515 267.716 348.45 268.649 348.369C279.027 329.897 291.283 314.728 309.609 303.583C314.012 300.904 318.86 299.028 323.243 296.39C325.171 295.23 326.219 294.066 326.287 291.783C325.71 290.673 325.174 290.118 323.951 289.699C323.221 289.45 322.206 289.459 321.431 289.439ZM307.082 346.774C304.227 350.012 301.833 353.582 299.132 356.939C294.924 362.166 290.082 366.987 284.989 371.355C281.852 374.046 269.845 380.498 268.724 383.624Q268.829 384.098 269.021 384.544Q269.214 384.99 269.487 385.392Q269.76 385.793 270.104 386.136Q270.448 386.479 270.851 386.75C271.54 387.214 272.012 387.367 272.815 387.412C283.622 382.696 306.765 363.718 311.296 352.965C311.755 351.875 312.047 350.595 311.514 349.485C310.826 348.052 309.748 347.478 308.294 347.068Q307.693 346.899 307.082 346.774Z"/>
	<path fill="#D5D4F1" d="M436.994 0L599.476 0L599.487 228.645L599.37 312.278C599.406 325.059 598.835 338.132 599.562 350.879C596.454 357.356 597.031 366.401 597.723 373.454C597.592 374.062 597.383 374.643 597.192 375.234C593.619 373.459 584.678 364.306 581.112 361.163Q569.771 351.254 558.248 341.557Q535.838 322.737 511.691 306.204C510.378 300.52 507.204 294.65 502.985 290.591C501.411 289.076 499.249 287.507 496.929 287.821C494.975 288.086 494.133 289.532 493.195 291.05C489.503 289.672 485.581 286.996 482.202 284.948C472.983 279.361 463.601 272.75 453.634 268.583C451.961 267.324 450.33 264.901 448.83 263.352C445.048 259.447 441.349 256.386 436.843 253.345C437.605 243.535 437.182 233.355 437.186 223.495L437.087 168.126L436.994 0Z"/>
	<path fill="#9F8BE8" d="M599.476 0L705.949 0L706.243 170.801L706.047 246.645C706.014 260.174 705.443 273.949 706.056 287.453C690.833 293.799 678.129 302.816 665.018 312.657C658.442 317.593 651.94 322.875 644.722 326.849C633.271 333.152 620.382 333.883 610.882 339.596C606.145 342.444 602.584 346.286 599.562 350.879C598.835 338.132 599.406 325.059 599.37 312.278L599.487 228.645L599.476 0Z"/>
	<path fill="#D5D4F1" d="M705.949 0L875.34 0L875.74 339.836C875.77 347.977 875.655 356.174 875.999 364.309C876.307 371.582 879.718 387.233 877.606 393.321L876.884 393.946C869.181 384.173 865.535 370.074 860.962 358.572C848.465 327.131 826.477 297.998 794.597 284.402C766.236 272.307 733.954 276.312 706.056 287.453C705.443 273.949 706.014 260.174 706.047 246.645L706.243 170.801L705.949 0Z"/>
	<path fill="#9F8BE8" d="M875.34 0L952.405 0L952.632 379.864C976.799 373.83 1000.2 365.804 1024 358.564L1024 744.689C1019.24 731.674 1016.44 717.91 1011.85 704.806C991.757 647.435 964.323 592.025 923.77 546.261C926.037 546.112 929.606 546.27 931.568 545.069C932.803 544.313 932.919 543.724 933.297 542.439C932.721 539.861 919.972 525.127 917.409 521.491C904.755 503.541 894.641 483.975 882.172 465.876C893.457 460.625 901.535 453.239 907.181 441.967C915.796 424.769 914.134 406.789 908.306 389.077C907.82 387.527 907.351 385.946 906.734 384.443C905.799 382.17 904.695 381.221 902.481 380.26C901.054 380.328 901.026 380.339 899.938 381.264C898.667 384.425 899.753 386.526 900.843 389.526C906.238 401.389 907.504 421.188 902.985 433.399C899.08 443.95 891.366 453.673 880.918 458.299C879.16 459.077 877.35 459.827 875.506 460.373C860.143 456.612 848.509 461.007 835.275 469.035Q826.961 474.182 819.461 480.457C813.964 474.622 809.524 467.681 803.797 462.145C806.941 457.394 811.324 450.751 810.105 444.779C809.424 441.441 807.119 439.404 804.32 437.686C800.326 435.235 795.701 433.57 791.418 431.686C784.422 428.61 777.315 425.299 770.793 421.307C761.237 415.458 748.502 403.55 738.869 400.351C730.667 397.628 719.333 397.639 710.584 396.503C680.02 392.535 654.73 384.722 640.232 355.21C637.819 350.297 635.486 345.039 634.004 339.764C649.414 333.491 659.223 325.883 672.237 316.096C694.463 299.381 717.208 287.475 745.394 284.801C761.128 283.309 777.161 284.868 791.834 290.977C822.579 303.78 843.114 333.273 855.228 363.101C861.915 379.563 866.863 402.77 885.134 410.249C887.966 411.408 891.309 412.042 894.238 410.856C896.777 409.827 898.397 407.629 899.286 405.106C900.989 400.27 899.987 395.747 899.133 390.918C897.276 385.232 890.63 368.373 884.963 365.81C884.106 365.422 883.588 365.417 882.678 365.5C881.505 366.147 880.669 366.751 880.134 368.042C879.465 369.66 880.136 370.563 880.913 371.968C885.361 380.002 888.586 384.497 891.712 393.481C892.38 396.6 893.144 400.554 891.781 403.549C890.873 404.095 890.675 404.295 889.575 404.024C885.966 403.135 883.868 399.843 880.722 398.362C879.135 397.032 878.074 395.634 876.884 393.946L877.606 393.321C879.718 387.233 876.307 371.582 875.999 364.309C875.655 356.174 875.77 347.977 875.74 339.836L875.34 0Z"/>
	<path fill="#D5D4F1" d="M952.405 0L1024 0L1024 358.564C1000.2 365.804 976.799 373.83 952.632 379.864L952.405 0Z"/>
	<path d="M391.686 251.778C401.256 248.017 411.025 246.899 421.223 247.861C426.625 249.191 432.062 250.356 436.843 253.345C441.349 256.386 445.048 259.447 448.83 263.352C450.33 264.901 451.961 267.324 453.634 268.583C456.57 273.369 459.455 278.168 461.962 283.198C466.751 292.809 471.176 308.245 483.15 310.788C485.851 311.362 488.747 310.544 491.039 309.071C493.042 307.784 494.292 305.758 494.679 303.42C495.454 298.732 493.047 295.42 493.195 291.05C494.133 289.532 494.975 288.086 496.929 287.821C499.249 287.507 501.411 289.076 502.985 290.591C507.204 294.65 510.378 300.52 511.691 306.204C512.061 320.564 510.735 333.189 500.38 344.122Q499.802 344.731 499.194 345.31Q498.586 345.889 497.951 346.438Q497.315 346.986 496.653 347.503Q495.99 348.019 495.303 348.502Q494.616 348.984 493.906 349.432Q493.196 349.88 492.465 350.293Q491.733 350.705 490.982 351.08Q490.231 351.456 489.462 351.793Q488.694 352.131 487.909 352.43Q487.125 352.729 486.326 352.989Q485.528 353.248 484.717 353.468Q483.907 353.688 483.087 353.867Q482.266 354.046 481.438 354.185Q480.61 354.323 479.776 354.42Q478.942 354.517 478.104 354.573Q477.266 354.628 476.427 354.642C473.912 354.706 471.204 354.518 468.729 354.064C474.907 374.918 476.642 383.441 470.91 404.559C468.865 412.095 467.02 419.688 466.61 427.523C466.39 431.721 467.21 436.207 468.216 440.267C469.433 445.179 474.848 456.855 472.245 461.233C467.807 468.696 456.281 473.457 448.714 477.101C440.306 492.56 432.789 508.233 423.723 523.367C419.927 529.705 416.089 536.601 410.783 541.808Q409.532 543.055 408.133 544.134Q406.734 545.213 405.21 546.106Q403.686 547 402.061 547.692Q400.436 548.385 398.736 548.867C382.966 553.263 367.967 543.079 353.533 538.49C341.906 542.223 333.109 549.082 326.111 559.055C323.759 562.405 321.778 566.057 319.35 569.339C321.289 576.247 322.795 583.233 324.3 590.245C325.398 595.36 326.875 600.781 326.788 606.039C326.607 617 319.016 631.806 314.56 641.898C312.217 647.203 308.033 653.023 306.887 658.64C305.865 663.655 306.352 669.519 306.34 674.641L306.34 702.584L306.422 734.124C306.447 740.255 306.147 746.686 306.844 752.775C326.235 737.333 344.442 721.17 365.299 707.584C369.423 704.898 373.46 701.527 378.299 700.434C378.727 700.337 379.764 700.083 380.12 699.884C382.062 698.801 391.78 682.342 394.038 679.128C404.97 663.573 419.104 651.443 435.228 641.534C438.463 639.547 442.62 639.045 445.596 636.926C445.664 636.684 445.729 636.441 445.801 636.2C446.127 635.095 446.483 633.672 447.159 632.737C450.232 628.49 465.218 620.211 470.213 617.532C485.519 609.325 534.794 590.774 551.378 595.59C553.254 596.134 554.927 597.013 555.866 598.804C558.103 603.072 558.603 609.331 559.426 614.046C562.211 630.001 568.155 670.42 563.151 685.336C560 694.73 551.919 699.498 543.475 703.485C534.528 707.708 522.857 712.324 512.78 710.222C511.216 708.972 510.617 708.119 508.523 708.239C503.831 711.089 499.943 724.806 491.183 729.784C487.026 732.146 481.536 733.645 476.927 734.924C459.662 739.717 439.888 741.268 424.015 749.446Q428.786 765.747 432.863 782.236C437.883 780.663 442.733 779.709 447.96 779.113C463.861 777.297 511.528 776.071 524.969 782.983C525.956 783.49 527.751 784.656 527.974 785.799C528.882 790.468 521.226 807.61 519.258 813.079C539.33 811.72 559.214 811.431 579.322 811.451C589.186 811.46 599.11 811.283 608.965 811.683C617.938 812.048 626.812 813.112 635.757 813.651C632.996 807.406 630.149 801.172 627.743 794.779C625.138 787.857 611.405 747.704 613.93 742.763C615.962 738.787 625.26 737.691 629.248 736.994C649.366 733.474 669.934 733.292 690.296 733.625C689.622 730.652 689.016 727.663 688.041 724.772C688.878 722.867 689.682 720.941 690.636 719.091C683.511 702.644 683.831 676.521 690.358 659.896C694.631 649.011 702.849 640.053 713.686 635.49C719.432 633.072 725.748 632.302 731.862 631.328Q731.153 620.929 730.177 610.552C728.801 595.557 728.355 588.265 738.617 576.318C743.108 571.091 750.149 565.26 752.474 558.782L752.307 557.67L751.631 557.324C746.802 559.613 741.947 561.843 736.506 560.236C729.123 565.388 721.742 568.915 712.419 567.126C706.129 565.92 700.984 562.19 697.503 556.868C691.314 547.405 688.244 535.627 682.639 525.692C679.282 519.741 675.098 513.185 670.918 507.781C668.514 504.674 665.644 501.923 663.509 498.614C660.968 494.677 659.093 490.214 657.152 485.963C651.871 486.398 645.118 486.357 640.789 482.853C638.423 480.938 637.305 478.073 637.165 475.087C636.846 468.302 640.706 461.581 642.385 455.123C643.766 449.814 643.955 444.068 643.541 438.62C643.353 436.152 642.984 432.622 641.06 430.858C637.21 427.328 631.385 425.005 627.083 421.798C611.072 409.861 601.085 392.934 597.723 373.454C597.031 366.401 596.454 357.356 599.562 350.879C602.584 346.286 606.145 342.444 610.882 339.596C620.382 333.883 633.271 333.152 644.722 326.849C651.94 322.875 658.442 317.593 665.018 312.657C678.129 302.816 690.833 293.799 706.056 287.453C733.954 276.312 766.236 272.307 794.597 284.402C826.477 297.998 848.465 327.131 860.962 358.572C865.535 370.074 869.181 384.173 876.884 393.946C878.074 395.634 879.135 397.032 880.722 398.362C883.868 399.843 885.966 403.135 889.575 404.024C890.675 404.295 890.873 404.095 891.781 403.549C893.144 400.554 892.38 396.6 891.712 393.481C888.586 384.497 885.361 380.002 880.913 371.968C880.136 370.563 879.465 369.66 880.134 368.042C880.669 366.751 881.505 366.147 882.678 365.5C883.588 365.417 884.106 365.422 884.963 365.81C890.63 368.373 897.276 385.232 899.133 390.918C899.987 395.747 900.989 400.27 899.286 405.106C898.397 407.629 896.777 409.827 894.238 410.856C891.309 412.042 887.966 411.408 885.134 410.249C866.863 402.77 861.915 379.563 855.228 363.101C843.114 333.273 822.579 303.78 791.834 290.977C777.161 284.868 761.128 283.309 745.394 284.801C717.208 287.475 694.463 299.381 672.237 316.096C659.223 325.883 649.414 333.491 634.004 339.764C635.486 345.039 637.819 350.297 640.232 355.21C654.73 384.722 680.02 392.535 710.584 396.503C719.333 397.639 730.667 397.628 738.869 400.351C748.502 403.55 761.237 415.458 770.793 421.307C777.315 425.299 784.422 428.61 791.418 431.686C795.701 433.57 800.326 435.235 804.32 437.686C807.119 439.404 809.424 441.441 810.105 444.779C811.324 450.751 806.941 457.394 803.797 462.145C809.524 467.681 813.964 474.622 819.461 480.457Q826.961 474.182 835.275 469.035C848.509 461.007 860.143 456.612 875.506 460.373C877.35 459.827 879.16 459.077 880.918 458.299C891.366 453.673 899.08 443.95 902.985 433.399C907.504 421.188 906.238 401.389 900.843 389.526C899.753 386.526 898.667 384.425 899.938 381.264C901.026 380.339 901.054 380.328 902.481 380.26C904.695 381.221 905.799 382.17 906.734 384.443C907.351 385.946 907.82 387.527 908.306 389.077C914.134 406.789 915.796 424.769 907.181 441.967C901.535 453.239 893.457 460.625 882.172 465.876C894.641 483.975 904.755 503.541 917.409 521.491C919.972 525.127 932.721 539.861 933.297 542.439C932.919 543.724 932.803 544.313 931.568 545.069C929.606 546.27 926.037 546.112 923.77 546.261C964.323 592.025 991.757 647.435 1011.85 704.806C1016.44 717.91 1019.24 731.674 1024 744.689L1024 773.23C1020.2 759.777 1016.94 746.177 1012.9 732.793C996.313 677.856 973.794 625.004 939.845 578.445C932.314 568.117 924.64 556.718 915.445 547.822C880.931 551.524 850.218 558.646 822.369 580.749C814.79 586.765 807.675 593.399 801.593 600.945C778.192 629.983 781.745 680.061 785.674 715.178Q787.216 729.135 789.457 742.998C790.752 750.761 792.769 758.688 792.884 766.562C793.008 766.752 793.13 766.943 793.256 767.131C801.932 780.066 854.764 829.574 856.665 837.482C856.433 838.685 856.239 839.55 855.197 840.332C854.043 841.199 853.102 841.379 851.699 841.445C849.244 840.695 835.328 823.26 832.138 819.69C819.277 805.295 805.189 792.031 792.419 777.543C769.579 751.629 749.913 722.125 733.495 691.763Q720.979 703.498 707.873 714.572C703.692 718.095 699.215 721.335 695.108 724.923C703.174 766.665 734.084 831.83 762.701 863.325Q767.131 868.122 772.089 872.37Q777.047 876.618 782.467 880.259C801.879 893.288 827.325 896.841 850.013 892.191C866.449 888.822 880.175 880.401 889.463 866.297C920.05 819.854 913.067 711.241 902.057 659.065C896.704 633.696 889.616 608.486 877.765 585.333C875.659 581.219 868.815 571.589 868.088 567.828C867.911 566.909 868.075 566.319 868.347 565.452C869.3 564.32 869.785 563.977 871.21 563.571C873.522 564.037 874.892 565.946 876.156 567.798C879.001 571.963 881.392 576.712 883.768 581.166C917.627 644.645 926.835 756.681 912.17 826.88C907.303 850.177 898.374 875.447 877.485 888.933C857.279 901.978 831.538 904.155 808.412 899.076Q806.528 898.674 804.666 898.184C796.678 934.12 781.58 967.079 757.932 995.484C749.672 1005.41 740.388 1014.77 731.35 1024L719.914 1024C761.066 984.488 784.938 952.933 796.782 896.118C793.563 894.782 790.398 893.272 787.219 891.84C772.973 895.694 756.97 896.71 742.323 898.169Q719.38 900.672 696.345 902.084C666.694 903.746 636.869 903.945 607.178 904.769C607.854 944.497 607.122 984.262 607.255 1024L600.557 1024C600.438 984.26 601.192 944.376 600.048 904.661C589.642 904.366 579.129 904.772 568.704 904.637C569.233 944.411 569.036 984.222 569.08 1024L562.094 1024Q561.62 964.241 561.826 904.481C502.653 904.122 442.684 902.504 383.923 895.102C367.213 892.997 350.668 890.049 334.103 887.038C328.784 890.93 323.802 895.667 318.767 899.942L323.01 1024L316.069 1024C314.722 996.881 314.224 969.739 313.17 942.61C312.692 930.316 312.799 917.738 311.338 905.527Q296.864 918.496 281.924 930.925C283.362 943.178 282.983 956.077 283.197 968.414L284.357 1024L277.087 1024C275.92 994.713 275.815 965.418 275.257 936.116C265.031 944.451 254.121 952.998 242.381 959.093C222.493 969.419 199.581 967.568 178.82 960.823Q172.378 958.718 166.165 956.008Q159.953 953.299 154.027 950.01C149.107 947.255 143.987 944.438 139.789 940.636C131.762 933.366 123.871 917.26 118.868 907.494C72.278 816.546 36.4188 700.932 56.3471 598.311C58.4993 587.229 61.7227 576.42 65.1756 565.683C44.8065 591.703 26.2765 628.642 13.133 659.135C8.75481 669.293 5.01789 682.306 0 691.668L0 671.098C6.29907 658.036 11.2674 644.323 17.6074 631.23C33.0714 599.296 52.1081 569.983 73.7833 541.959C79.4894 534.581 84.3687 526.239 90.8837 519.578C97.1692 513.152 104.243 508.271 111.226 502.705C117.929 497.362 124.279 491.609 131.066 486.352C143.404 476.797 156.442 467.627 169.758 459.493C173.648 457.117 177.615 454.784 181.649 452.664C184.545 451.142 188.372 450.19 190.779 447.969C190.975 447.789 191.16 447.597 191.354 447.415C198.923 440.342 215.78 417.157 225.461 416.172C231.995 415.507 237.736 419.955 242.426 423.923C246.44 422.08 249.534 423.177 253.659 422.582C255.094 422.375 256.159 421.823 256.979 420.593C260.873 414.753 249.838 395.079 248.441 387.854C248.399 387.636 248.361 387.418 248.322 387.201C249.496 386.103 249.723 385.887 251.273 385.529C253.621 386.089 254.662 387.612 255.876 389.595C259.511 395.533 267.357 413.729 265.611 420.42C264.826 423.431 261.983 425.936 259.796 427.994C266.126 431.44 272.118 433.721 279.402 431.629C288.381 429.05 294.377 421.899 298.59 413.952C301.716 408.058 305.235 400.684 306.615 394.156C307.493 389.997 307.205 385.615 307.811 381.411C309.383 370.499 315.381 357.72 326.581 354.101C335.445 351.237 341.339 355.763 349.246 358.467C366.735 364.448 382.973 363.626 399.114 354.546C408.52 349.255 416.675 341.271 421.783 331.73C425.329 325.106 428.882 315.043 426.72 307.554C423.878 297.71 399.704 269.029 391.539 260.946C385.939 255.402 379.627 249.635 372.586 246.016C360.947 240.033 347.554 241.396 335.515 245.375C300.578 256.921 264.92 295.041 248.766 327.581C241.082 343.06 235.655 359.289 235.517 376.74C238.444 372.926 241.722 367.424 245.947 365.043L246.956 365.16C247.733 366.447 247.974 367.242 247.537 368.73C245.495 375.684 238.124 379.332 239.264 387.598C239.224 387.825 239.193 388.054 239.144 388.279C238.781 389.958 238.296 390.699 236.874 391.651C236.103 391.635 235.744 391.772 235.09 391.279C231.441 388.532 231.33 376.753 231.013 372.394C228.774 341.591 247.407 310.382 266.886 287.735C287.899 263.306 318.346 237.32 351.821 235.041C368.557 233.902 379.599 241.195 391.686 251.778ZM397.196 256.8L397.789 257.408C406.29 266.16 430.169 294.979 434.112 305.515C434.592 306.798 434.609 308.104 434.586 309.456C433.877 325.235 426.291 340.817 414.701 351.502C404.867 360.568 392.963 364.98 380.266 368.369L379.829 368.951C375.084 375.18 364.951 382.704 357.019 383.602C355.617 383.761 354.603 383.424 353.577 382.466C347.787 377.064 344.561 359.747 333.555 359.344C329.539 359.196 325.546 361.734 322.755 364.408C315.3 371.55 313.546 386.288 313.6 396.082C313.651 405.392 316.103 413.412 322.895 420.029C329.192 426.162 336.956 426.283 340.419 429.072C341.422 429.88 341.964 430.828 341.936 432.115C341.827 437.131 339.7 443.461 338.657 448.414C336.005 461.01 334.637 473.239 335.724 486.103Q336.104 491.026 336.991 495.883C337.673 499.482 340.789 508.223 340.28 511.387C340.182 511.994 339.813 512.524 339.58 513.093C338.46 513.985 338.406 513.99 336.971 514.036C335.354 513.287 334.465 512.549 333.841 510.825C332.359 506.728 331.604 501.846 330.851 497.539C326.706 473.812 330.558 457.281 335.038 434.615C325.864 429.797 317.927 425.098 312.091 416.211C309.924 425.866 306.832 439.107 297.794 444.716C293.169 447.587 287.594 447.415 282.504 446.036C270.058 442.665 259.693 433.119 247.705 428.347C284.069 460.947 295.978 492.162 310.581 537.249C313.024 544.791 314.711 552.716 317.4 560.144C324.232 548.47 336.265 535.874 349.904 532.598C366.178 528.688 392.732 559.666 410.211 532.534C410.62 531.899 411.016 531.264 411.385 530.604C401.226 521.902 397.366 507.949 396.425 495.089C395.917 488.138 396.489 464.054 400.885 458.99C401.746 457.998 402.018 457.924 403.235 457.775C416.088 463.983 427.687 472.185 441.18 477.235C444.888 470.399 452.105 468.889 458.294 464.962C461.468 462.948 464.022 460.535 466.542 457.764L466.391 457.052C464.193 446.887 460.153 438.272 460.056 427.609C459.961 417.111 463.456 407.297 465.987 397.245C471.595 374.977 462.704 349.868 451.554 330.616C459.922 323.286 473.28 340.214 489.635 334.309C495.804 332.082 501.06 326.783 503.605 320.78C507.084 312.575 504.197 306.535 501.161 298.954C501.425 302.987 500.949 307.024 498.802 310.545C496.812 313.809 493.276 316.23 489.541 317.01C486.075 317.733 482.153 317.136 478.782 316.139C464.328 311.867 461.947 298.237 455.913 286.539C450.765 276.556 443.995 265.943 434.214 259.928C422.733 252.867 409.78 253.873 397.196 256.8ZM608.923 348.933C605.811 353.164 603.641 357.657 604.58 363.068C606.357 373.308 618.787 381.249 626.72 386.514Q627.539 387.06 628.366 387.593L629.905 388.282L630.2 387.77C628.394 384.476 625.533 381.622 623.133 378.738C615.514 369.584 611.347 361.114 609.274 349.334L608.923 348.933ZM651.069 382.165C645.813 404.342 648.038 410.782 650.382 432.404C650.969 437.813 651.787 443.709 651.455 449.132C651.081 455.257 642.215 472.598 644.954 476.808C646.112 478.588 648.806 479.335 650.783 479.473C654.276 479.716 658.018 478.918 661.301 477.741C664.832 476.475 672 471.292 675.296 474.141C675.659 475.457 675.632 476.067 675.262 477.379C672.49 480.853 667.541 483.204 663.429 484.73Q667.078 491.97 671.244 498.925C681.004 496.29 695.021 491.516 703.011 485.37C705.3 483.61 707.045 481.423 708.869 479.213C699.816 475.237 679.54 464.645 676.504 454.839C676.17 453.762 676.337 453.545 676.769 452.568C678.155 451.871 679.048 451.87 680.541 451.933C684.909 454.489 688.292 460.03 692.809 463.233C699.831 468.212 707.902 471.214 714.953 476.318C716.625 477.529 718.799 478.849 720.095 480.467C723.506 484.73 725.16 492.442 726.505 497.596C728.044 503.491 732.743 524.674 729.827 530.046C728.771 530.854 728.305 531.081 726.971 531.133C725.787 530.509 725.366 530.184 724.994 528.848C724.082 525.569 724.443 521.529 724.025 518.104C722.714 507.365 720.493 496.388 716.224 486.404C714.692 501.262 712.483 524.063 700.228 534.156Q698.154 535.843 695.906 537.29C699.111 545.175 702.111 556.502 710.684 559.928C715.11 561.697 720.558 561.23 724.877 559.358C734.886 555.017 741.63 541.139 745.086 531.39C746.133 528.435 745.665 524.363 748.839 522.591C749.955 521.968 750.458 522.176 751.532 522.573C752.667 524.052 752.679 525.74 752.495 527.528C752.154 530.84 750.611 534.595 749.248 537.63C746.686 542.807 742.748 548.725 741.137 554.15C742.47 554.432 743.029 554.115 744.169 553.374C747.335 551.318 750.056 548.153 752.676 545.47C766.343 531.475 775.327 515.778 778.669 496.384C779.406 492.111 778.724 485.335 781.36 481.858C782.509 481.225 783.137 480.786 784.525 481.055C785.885 481.32 786.521 482.2 787.229 483.279C787.862 485.895 787.005 489.131 786.6 491.76C784.601 504.743 781.144 517.536 774.253 528.828C769.224 537.068 763.186 543.862 756.091 550.361C756.858 552.368 757.62 554.298 758.623 556.204C761.248 554.596 763.869 553.03 765.748 550.519C770.343 544.377 773.705 536.488 777.728 529.857C786.4 515.564 802.036 495.789 814.518 484.952C809.405 478.819 805.849 471.132 802.417 463.952C796.433 468.066 790.927 470.105 783.876 471.759C781.44 471.009 778.544 470.1 777.554 467.406C777.369 466.902 777.405 466.815 777.411 466.35C781.713 460.747 794.885 466.468 800.777 452.098C801.502 450.33 802.363 447.913 802.066 446.01C801.827 444.477 800.845 443.614 799.573 442.899C793.245 439.34 786.351 437.471 780.179 433.401C766.834 437.128 751.207 432.793 739.443 426.24C730.473 421.243 722.452 413.73 718.022 404.357C699.704 402.314 681.914 400.318 665.19 391.77C660.222 389.231 656.039 384.309 651.069 382.165ZM728.649 406.418C736.288 415.498 747.713 423.935 759.928 425.048C760.155 425.069 760.383 425.083 760.61 425.101C753.774 420.523 743.599 409.747 737.004 407.644C734.392 406.812 731.372 406.694 728.649 406.418ZM225.009 422.95C218.959 426.575 201.109 447.877 194.805 454.481C197.37 459.138 199.843 463.792 202.139 468.589L205.442 465.222C216.24 453.643 227.821 442.262 237.789 429.995C233.965 426.749 230.276 423.237 225.009 422.95ZM242.91 434.861C230.453 448.413 218.165 462.092 205.467 475.419C210.15 484.853 214.796 494.242 219.037 503.886L223.109 499.358Q232.021 489.745 240.447 479.705C246.726 472.195 255.525 459.418 263.321 454.104C257.286 447.002 250.241 440.605 242.91 434.861ZM187.961 457.926Q178.968 462.798 170.238 468.127Q161.509 473.456 153.066 479.229Q144.623 485.002 136.489 491.203Q128.355 497.404 120.552 504.016C144.963 504.684 164.36 517.041 180.781 534.484C226.744 583.309 239.347 693.222 247.445 758.25C248.869 771.919 249.927 785.698 251.692 799.32C258.512 792.933 266.01 787.369 272.836 781.064C271.313 725.602 268.191 669.334 256.559 614.966C254.621 605.909 253.084 596.056 249.977 587.36C247.737 581.091 244.201 575.246 241.494 569.163C231.973 547.761 221.626 526.768 211.786 505.518C208.948 499.386 190.791 460.103 188.685 458.232C188.359 457.942 188.363 457.997 187.961 457.926ZM267.127 458.438L237.26 493.615C232.347 499.383 227.567 505.464 222.352 510.943C224.884 516.293 239.378 548.426 241.198 549.88L241.718 549.7Q264.359 522.146 287.404 494.929C281.947 483.062 276.211 467.992 267.127 458.438ZM860.324 466.6C852.869 468.203 846.293 470.789 839.755 474.744C820.466 486.412 797.967 512.285 785.579 531.436C780.348 539.524 776.132 549.321 769.709 556.459C760.635 566.544 739.755 580.198 737.479 594.188C736.592 599.64 737.439 605.429 737.862 610.895C738.35 617.202 738.2 624.46 739.615 630.558C739.916 631.854 740.111 632.176 741.28 632.854C741.447 632.951 742.638 633.47 742.774 633.532C744.288 634.216 745.563 634.858 746.263 636.483C747.344 638.99 746.403 642.345 745.196 644.627C743.108 648.574 739.801 651.772 737.259 655.412C732.575 662.121 734.265 673.667 734.198 681.545C738.504 684.723 748.956 702.643 751.886 708.244C754.154 699.354 757.01 690.475 759.947 681.783C765.584 664.734 771.369 647.983 778.07 631.318C781.47 622.865 784.346 613.918 788.825 605.961C799.745 586.561 823.068 568.51 842.77 558.547C867.642 545.969 894.075 543.087 921.294 539.479C914.63 530.967 908.244 522.347 902.703 513.051C895.258 500.56 886.076 480.741 876.24 470.786Q875.802 470.346 875.329 469.943Q874.857 469.54 874.353 469.178Q873.849 468.815 873.317 468.495Q872.785 468.174 872.228 467.899Q871.672 467.623 871.095 467.394Q870.518 467.164 869.924 466.983Q869.33 466.801 868.723 466.669Q868.117 466.537 867.501 466.455C865.142 466.137 862.687 466.414 860.324 466.6ZM409.473 467.338C413.919 480.142 419.63 489.273 431.207 496.68L433.814 492.232L438.729 483.009C428.691 478.133 419.093 472.976 409.473 467.338ZM709.794 489.488C699.967 496.874 688.163 500.517 676.955 505.153L680.624 510.721C681.689 511.897 681.786 512.173 683.452 512.243C688.51 512.456 702.95 502.426 706.296 498.456C708.391 495.971 710.107 492.849 709.794 489.488ZM290.257 502.363C282.235 511.095 274.721 520.366 267.115 529.463C259.383 538.711 251.483 547.875 244.085 557.392C249.008 568.532 254.83 579.247 259.779 590.359L260.614 591.114C264.677 587.469 267.8 581.722 271.21 577.359L302.919 537.022C301.477 530.796 294.023 506.685 290.257 502.363ZM121.067 512.111C106.292 514.913 95.4975 523.413 87.2241 535.516C80.9696 544.666 77.0689 553.949 73.259 564.282C53.2819 618.462 55.6048 681.778 66.3104 737.65Q71.0796 763.853 78.8752 789.32C91.9498 831.987 108.883 875.467 130.88 914.346C135.564 922.624 140.257 932.567 148.288 938.057C168.403 951.808 199.416 962.973 223.824 958.198C230.175 956.955 236.199 954.407 241.785 951.18C260.715 940.242 277.665 925.093 294.308 911.037Q322.68 887.204 350.344 862.552Q357.571 856.164 364.434 849.385C359.881 816.626 350.206 770.064 323.614 748.135C295.402 770.528 267.243 793.711 240.86 818.235Q230.04 828.444 219.851 839.284C216.418 842.929 212.662 848.835 208.61 851.443C207.47 852.178 206.585 852.438 205.216 852.347C204.175 851.514 203.978 851.287 203.799 849.866C203.047 843.911 219.495 829.307 224.128 824.711Q234.364 814.739 244.938 805.127C241.944 777.536 238.741 750.111 235.07 722.599C226.994 662.071 213.401 568.452 162.696 527.654C151.382 518.55 136.471 510.641 121.51 512.055C121.362 512.069 121.215 512.092 121.067 512.111ZM305.71 544.401C296.724 556.471 287.078 568.121 277.742 579.925C272.889 586.062 267.788 592.158 263.503 598.711Q269.315 611.249 275.976 623.356C276.56 624.351 277.438 626.401 278.422 626.868C288.225 616.214 304.508 588.006 315.257 581.362C313.161 570.482 309.888 554.576 305.71 544.401ZM316.341 588.309C303.842 602.708 294.015 619.228 281.353 633.499C284.815 638.728 288.247 644.224 292.346 648.986C294.608 651.667 296.816 654.192 299.643 656.306C305.181 645.142 319.522 617.332 320.239 605.753C320.483 601.816 318.66 593.806 317.388 589.984C317.156 589.286 316.872 588.789 316.341 588.309ZM550.729 608.423C535.543 620.281 516.004 627.577 497.092 630.871C499.85 632.484 503.284 635.282 504.236 638.488C505.145 641.545 504.708 644.274 506.305 647.241C506.95 648.441 508.017 649.157 509.071 649.966C513.065 653.032 513.73 656.771 514.829 661.463C519.148 664.739 522.163 668.708 522.926 674.202C523.639 679.342 522.18 683.951 520.098 688.555C517.332 693.867 517.234 698.887 517.939 704.701C527.913 702.92 548.23 696.511 554.104 687.65C561.401 676.642 555.362 632.911 553.086 619.154C552.613 616.291 552.392 611.739 551.239 609.137C551.121 608.869 550.899 608.661 550.729 608.423ZM264.013 616.392Q269.139 640.97 272.422 665.862Q275.705 690.753 277.128 715.82Q278.038 735.83 278.611 755.853C278.83 762.528 278.774 769.355 279.472 775.995C283.685 772.642 287.711 769.169 291.698 765.554L300.063 758.476C299.085 749.474 299.412 740.16 299.331 731.107L298.744 689.604C298.694 680.675 299.169 671.675 298.653 662.759C288.219 659.769 280.922 646.551 276.001 637.696C273.124 632.519 267.789 620.052 264.013 616.392ZM484.336 634.633C471.682 637.684 469.986 647.113 460.563 653.542C450.109 660.676 437.893 662.87 425.899 665.973C420.806 667.29 415.792 668.907 410.581 669.697C401.74 678.763 392.44 691.581 387.034 703.02C402.063 714.024 413.841 726.561 421.672 743.655C440.164 732.057 472.96 733.914 488.646 722.837C492.061 720.426 494.115 717.568 496.319 714.085C501.152 706.419 517.977 683.641 516.262 674.849C515.935 673.172 515.297 671.137 514.069 669.918C513.287 670.585 513.551 670.17 513.283 671.048C510.177 681.215 503.778 689.723 499.086 699.124C497.81 701.681 497.124 706.753 494.768 708.305C494.141 708.718 493.867 708.548 493.175 708.48C491.981 707.631 491.373 707.145 490.643 705.826C489.565 693.782 509.266 677.516 507.36 660.366C507.161 658.573 506.642 656.063 505.11 654.883C504.626 654.511 504.588 654.535 504.092 654.37C500.778 656.119 491.937 686.519 483.911 688.109C482.561 687.578 482.437 687.364 481.56 686.187C480.157 678.584 508.42 646.061 495.33 637.013C492.507 635.062 487.663 634.366 484.336 634.633ZM734.883 638.981C725.156 642.851 718.936 648.628 713.612 657.593C712.401 659.633 711.057 662.704 709.16 664.158C708.238 664.866 706.871 664.408 705.887 664.173C704.965 663.33 704.746 663.235 704.777 661.89C704.908 656.325 714.802 645.168 718.887 641.433C708.63 645.864 701.533 650.948 697.31 661.652C694.499 668.776 693.716 676.31 693.03 683.875C692.798 694.493 692.981 705.083 696.109 715.322C706.426 706.594 716.894 697.943 726.41 688.334C724.979 683.199 725.698 666.001 726.758 660.774C727.264 658.276 728.183 655.961 729.446 653.75C731.416 650.305 739.091 643.087 738.444 639.658C737.035 638.855 736.472 638.973 734.883 638.981ZM448.401 643.026Q446.529 643.711 444.694 644.492Q442.859 645.273 441.067 646.147Q439.275 647.021 437.53 647.986Q435.786 648.952 434.093 650.006Q432.401 651.06 430.765 652.199Q429.129 653.339 427.553 654.562Q425.978 655.784 424.468 657.086Q422.958 658.388 421.517 659.766L429.107 658.023C434.906 656.751 451.814 653.166 454.986 648.479C455.42 647.839 455.416 647.742 455.65 647.092C455.253 645.89 454.875 645.286 453.686 644.704C452.082 643.919 450.146 643.387 448.401 643.026ZM775.866 658.995Q765.343 687.774 757.439 717.379C763.522 726.544 769.44 736.01 776.106 744.758L784.146 755.132C779.491 730.165 775.953 705.434 775.691 679.954C775.666 677.546 776.515 659.735 775.866 658.995ZM379.512 707.09C364.283 714.721 341.439 731.673 329.223 743.511C335.109 749.182 340.033 755.728 344.742 762.385C346.008 762.225 346.673 761.762 347.728 761.096Q364.321 748.656 381.248 736.676C387.403 732.26 394.115 727.924 399.84 722.987C395.429 718.123 385.489 709.286 379.512 707.09ZM403.411 728.843L348.957 769.237C352.671 777.065 356.301 784.788 359.077 793.014C359.687 794.824 361.853 803.329 362.97 803.977C363.721 803.537 364.409 803.127 365.097 802.59C376.004 794.765 386.973 786.868 398.207 779.523C405.822 774.544 413.904 770.064 421.286 764.762C418.655 754.458 413.056 735.658 404.496 729.034L403.411 728.843ZM621.58 750.798Q623.084 756.822 624.792 762.792Q626.501 768.762 628.412 774.67Q630.324 780.578 632.435 786.417Q634.547 792.256 636.857 798.02Q639.167 803.784 641.672 809.465Q644.177 815.147 646.875 820.74Q649.572 826.332 652.459 831.83Q655.346 837.327 658.419 842.723Q678.055 843.034 697.693 843.036C699.827 839.362 701.684 835.591 703.531 831.769C707.892 822.365 712.102 812.946 715.694 803.217C707.087 788.192 700.231 771.095 695.799 754.359C671.173 754.668 645.857 755.604 621.58 750.798ZM422.944 772.06C415.801 776.87 408.413 781.274 401.231 786.016C388.841 794.197 376.635 802.715 364.397 811.124C367.076 822.323 369.472 833.359 370.78 844.812C390.049 828.95 408.998 812.905 428.923 797.839C427.894 792.769 425.271 775.295 422.944 772.06ZM437.143 791.544C439.7 804.728 456.282 839.073 463.058 851.451Q479.013 851.738 494.968 851.478C498.117 845.146 500.862 838.604 503.693 832.124C509.352 818.955 513.938 805.117 519.999 792.165C492.783 796.536 464.187 797.725 437.143 791.544ZM433.499 802.897Q421.62 811.568 410.353 821.019L416.88 819.976Q427.916 818.472 439.002 817.392C437.665 812.798 436.422 807.287 434.028 803.151L433.499 802.897ZM545.335 818.723C535.598 819.239 525.853 819.947 516.114 820.381C513.194 827.397 503.106 854.117 498.65 858.046C491.942 860.56 466.771 859.269 458.854 858.338C452.154 847.722 446.977 835.247 441.564 823.886C432.058 824.575 408.75 826.362 400.951 829.939C392.873 833.643 375.297 850.521 367.864 857.211C402.529 864.144 441.858 865.863 477.261 867.467C506.311 868.783 535.537 870.216 564.625 869.926Q630.949 870.637 697.15 866.545C715.275 865.328 733.717 864.283 751.667 861.471Q745.302 853.485 739.708 844.941Q734.115 836.397 729.342 827.369Q721.502 828.433 713.594 828.174C709.661 835.288 706.415 844.489 700.999 850.481L654.192 850.15C648.516 840.453 643.592 830.339 637.97 820.611Q591.698 817.416 545.335 818.723ZM360.199 863.587C352.911 868.668 346.425 875.209 339.912 881.242C352.372 883.245 364.626 885.75 377.169 887.354C446.524 896.226 516.968 897.766 586.805 897.538C626.222 897.409 666.032 897.416 705.376 894.935C723.439 893.797 741.394 891.54 759.386 889.646C765.897 888.923 772.592 888.445 778.862 886.446C771.134 880.46 763.696 874.903 757.012 867.681C714.157 874.014 670.02 875.74 626.764 876.732Q582.031 877.806 537.296 876.819Q492.56 875.831 447.918 872.784Q419.577 870.915 391.35 867.757C381.028 866.542 370.543 864.237 360.199 863.587Z"/>
	<path fill="#9F8BE8" d="M434.586 309.456C434.609 308.104 434.592 306.798 434.112 305.515C430.169 294.979 406.29 266.16 397.789 257.408L397.196 256.8C409.78 253.873 422.733 252.867 434.214 259.928C443.995 265.943 450.765 276.556 455.913 286.539C461.947 298.237 464.328 311.867 478.782 316.139C482.153 317.136 486.075 317.733 489.541 317.01C493.276 316.23 496.812 313.809 498.802 310.545C500.949 307.024 501.425 302.987 501.161 298.954C504.197 306.535 507.084 312.575 503.605 320.78C501.06 326.783 495.804 332.082 489.635 334.309C473.28 340.214 459.922 323.286 451.554 330.616C446.402 325.55 440.661 315.365 435.314 309.328L434.586 309.456Z"/>
	<path fill="#9F8BE8" d="M453.634 268.583C463.601 272.75 472.983 279.361 482.202 284.948C485.581 286.996 489.503 289.672 493.195 291.05C493.047 295.42 495.454 298.732 494.679 303.42C494.292 305.758 493.042 307.784 491.039 309.071C488.747 310.544 485.851 311.362 483.15 310.788C471.176 308.245 466.751 292.809 461.962 283.198C459.455 278.168 456.57 273.369 453.634 268.583Z"/>
	<path d="M268.649 348.369C267.716 348.45 267.632 348.515 266.71 348.374C265.385 348.173 264.464 347.624 263.826 346.412C262.996 344.834 263.502 343.089 264.114 341.537C265.708 337.494 268.636 333.693 271.136 330.145Q272.302 328.459 273.527 326.815Q274.752 325.172 276.035 323.573Q277.318 321.974 278.657 320.422Q279.997 318.87 281.39 317.367Q282.784 315.864 284.231 314.411Q285.677 312.959 287.175 311.559Q288.672 310.159 290.219 308.813Q291.765 307.467 293.358 306.178Q294.952 304.888 296.59 303.656Q298.229 302.424 299.91 301.251Q301.591 300.079 303.314 298.967Q305.036 297.855 306.796 296.805Q308.557 295.755 310.354 294.769Q312.151 293.782 313.982 292.861Q315.813 291.939 317.676 291.083Q319.539 290.228 321.431 289.439C322.206 289.459 323.221 289.45 323.951 289.699C325.174 290.118 325.71 290.673 326.287 291.783C326.219 294.066 325.171 295.23 323.243 296.39C318.86 299.028 314.012 300.904 309.609 303.583C291.283 314.728 279.027 329.897 268.649 348.369Z"/>
	<path fill="#9F8BE8" d="M511.691 306.204Q535.838 322.737 558.248 341.557Q569.771 351.254 581.112 361.163C584.678 364.306 593.619 373.459 597.192 375.234C597.383 374.643 597.592 374.062 597.723 373.454C601.085 392.934 611.072 409.861 627.083 421.798C631.385 425.005 637.21 427.328 641.06 430.858C642.984 432.622 643.353 436.152 643.541 438.62C643.955 444.068 643.766 449.814 642.385 455.123C640.706 461.581 636.846 468.302 637.165 475.087C637.305 478.073 638.423 480.938 640.789 482.853C645.118 486.357 651.871 486.398 657.152 485.963C659.093 490.214 660.968 494.677 663.509 498.614C665.644 501.923 668.514 504.674 670.918 507.781C675.098 513.185 679.282 519.741 682.639 525.692C688.244 535.627 691.314 547.405 697.503 556.868C700.984 562.19 706.129 565.92 712.419 567.126C721.742 568.915 729.123 565.388 736.506 560.236C741.947 561.843 746.802 559.613 751.631 557.324L752.307 557.67L752.474 558.782C750.149 565.26 743.108 571.091 738.617 576.318C728.355 588.265 728.801 595.557 730.177 610.552Q731.153 620.929 731.862 631.328C725.748 632.302 719.432 633.072 713.686 635.49C702.849 640.053 694.631 649.011 690.358 659.896C683.831 676.521 683.511 702.644 690.636 719.091C689.682 720.941 688.878 722.867 688.041 724.772C689.016 727.663 689.622 730.652 690.296 733.625C669.934 733.292 649.366 733.474 629.248 736.994C625.26 737.691 615.962 738.787 613.93 742.763C611.405 747.704 625.138 787.857 627.743 794.779C630.149 801.172 632.996 807.406 635.757 813.651C626.812 813.112 617.938 812.048 608.965 811.683C599.11 811.283 589.186 811.46 579.322 811.451C559.214 811.431 539.33 811.72 519.258 813.079C521.226 807.61 528.882 790.468 527.974 785.799C527.751 784.656 525.956 783.49 524.969 782.983C511.528 776.071 463.861 777.297 447.96 779.113C442.733 779.709 437.883 780.663 432.863 782.236Q428.786 765.747 424.015 749.446C439.888 741.268 459.662 739.717 476.927 734.924C481.536 733.645 487.026 732.146 491.183 729.784C499.943 724.806 503.831 711.089 508.523 708.239C510.617 708.119 511.216 708.972 512.78 710.222C522.857 712.324 534.528 707.708 543.475 703.485C551.919 699.498 560 694.73 563.151 685.336C568.155 670.42 562.211 630.001 559.426 614.046C558.603 609.331 558.103 603.072 555.866 598.804C554.927 597.013 553.254 596.134 551.378 595.59C534.794 590.774 485.519 609.325 470.213 617.532C465.218 620.211 450.232 628.49 447.159 632.737C446.483 633.672 446.127 635.095 445.801 636.2C445.729 636.441 445.664 636.684 445.596 636.926C442.62 639.045 438.463 639.547 435.228 641.534C419.104 651.443 404.97 663.573 394.038 679.128C391.78 682.342 382.062 698.801 380.12 699.884C379.764 700.083 378.727 700.337 378.299 700.434C373.46 701.527 369.423 704.898 365.299 707.584C344.442 721.17 326.235 737.333 306.844 752.775C306.147 746.686 306.447 740.255 306.422 734.124L306.34 702.584L306.34 674.641C306.352 669.519 305.865 663.655 306.887 658.64C308.033 653.023 312.217 647.203 314.56 641.898C319.016 631.806 326.607 617 326.788 606.039C326.875 600.781 325.398 595.36 324.3 590.245C322.795 583.233 321.289 576.247 319.35 569.339C321.778 566.057 323.759 562.405 326.111 559.055C333.109 549.082 341.906 542.223 353.533 538.49C367.967 543.079 382.966 553.263 398.736 548.867Q400.436 548.385 402.061 547.692Q403.686 547 405.21 546.106Q406.734 545.213 408.133 544.134Q409.532 543.055 410.783 541.808C416.089 536.601 419.927 529.705 423.723 523.367C432.789 508.233 440.306 492.56 448.714 477.101C456.281 473.457 467.807 468.696 472.245 461.233C474.848 456.855 469.433 445.179 468.216 440.267C467.21 436.207 466.39 431.721 466.61 427.523C467.02 419.688 468.865 412.095 470.91 404.559C476.642 383.441 474.907 374.918 468.729 354.064C471.204 354.518 473.912 354.706 476.427 354.642Q477.266 354.628 478.104 354.573Q478.942 354.517 479.776 354.42Q480.61 354.323 481.438 354.185Q482.266 354.046 483.087 353.867Q483.907 353.688 484.717 353.468Q485.528 353.248 486.326 352.989Q487.125 352.729 487.909 352.43Q488.694 352.131 489.463 351.793Q490.231 351.456 490.982 351.08Q491.733 350.705 492.465 350.293Q493.196 349.88 493.906 349.432Q494.616 348.984 495.303 348.502Q495.99 348.019 496.653 347.503Q497.315 346.986 497.951 346.438Q498.586 345.889 499.194 345.31Q499.802 344.731 500.38 344.122C510.735 333.189 512.061 320.564 511.691 306.204Z"/>
	<path fill="#FEFEFE" d="M434.586 309.456L435.314 309.328C440.661 315.365 446.402 325.55 451.554 330.616C462.704 349.868 471.595 374.977 465.987 397.245C463.456 407.297 459.961 417.111 460.056 427.609C460.153 438.272 464.193 446.887 466.391 457.052L466.542 457.764C464.022 460.535 461.468 462.948 458.294 464.962C452.105 468.889 444.888 470.399 441.18 477.235C427.687 472.185 416.088 463.983 403.235 457.775C402.018 457.924 401.746 457.998 400.885 458.99C396.489 464.054 395.917 488.138 396.425 495.089C397.366 507.949 401.226 521.902 411.385 530.604C411.016 531.264 410.62 531.899 410.211 532.534C392.732 559.666 366.178 528.688 349.904 532.598C336.265 535.874 324.232 548.47 317.4 560.144C314.711 552.716 313.024 544.791 310.581 537.249C295.978 492.162 284.069 460.947 247.705 428.347C259.693 433.119 270.058 442.665 282.504 446.036C287.594 447.415 293.169 447.587 297.794 444.716C306.832 439.107 309.924 425.866 312.091 416.211C317.927 425.098 325.864 429.797 335.038 434.615C330.558 457.281 326.706 473.812 330.851 497.539C331.604 501.846 332.359 506.728 333.841 510.825C334.465 512.549 335.354 513.287 336.971 514.036C338.406 513.99 338.46 513.985 339.58 513.093C339.813 512.524 340.182 511.994 340.28 511.387C340.789 508.223 337.673 499.482 336.991 495.883Q336.104 491.026 335.724 486.103C334.637 473.239 336.005 461.01 338.657 448.414C339.7 443.461 341.827 437.131 341.936 432.115C341.964 430.828 341.422 429.88 340.419 429.072C336.956 426.283 329.192 426.162 322.895 420.029C316.103 413.412 313.651 405.392 313.6 396.082C313.546 386.288 315.3 371.55 322.755 364.408C325.546 361.734 329.539 359.196 333.555 359.344C344.561 359.747 347.787 377.064 353.577 382.466C354.603 383.424 355.617 383.761 357.019 383.602C364.951 382.704 375.084 375.18 379.829 368.951L380.266 368.369C392.963 364.98 404.867 360.568 414.701 351.502C426.291 340.817 433.877 325.235 434.586 309.456ZM439.286 376.146C435.872 376.691 429.201 377.664 426.89 380.373C426.105 381.293 425.701 382.786 425.862 383.967C425.969 384.751 426.364 384.93 426.889 385.461C429.503 385.747 432.067 385.009 434.581 384.361C443.739 382 449.636 384.048 456.163 390.946C457.731 392.973 459.312 395.773 462.081 396.101C463.057 396.216 463.278 395.985 464.139 395.605C465.043 394.253 465.266 393.155 465.005 391.572C464.244 386.937 459.993 382.976 456.242 380.545C450.981 377.135 445.451 376.052 439.286 376.146ZM439.891 407.085C437.095 408.006 433.172 408.929 431.534 411.587C430.834 412.722 430.672 413.82 430.932 415.113C436.518 418.513 442.898 409.092 448.778 417.724C449.342 419.555 449.735 421.932 450.994 423.374C452.376 423.189 453.762 422.628 454.493 421.316C455.602 419.327 455.374 416.145 454.504 414.114C453.173 411.011 450.11 408.771 446.983 407.7C444.663 406.906 442.309 406.863 439.891 407.085ZM441.712 451.993C440.673 453.095 439.898 453.884 439.436 455.376C439.936 456.582 440.264 456.887 441.526 457.324C442.08 457.517 442.656 457.642 443.221 457.8C447.4 458.972 447.748 464.38 450.352 463.895C451.469 462.921 452.909 461.907 453.049 460.313C453.196 458.652 452.459 457.146 451.338 455.972C448.842 453.36 445.235 452.126 441.712 451.993Z"/>
	<path d="M272.815 387.412C272.012 387.367 271.54 387.214 270.851 386.75Q270.448 386.479 270.104 386.136Q269.76 385.793 269.487 385.392Q269.214 384.99 269.021 384.544Q268.829 384.098 268.724 383.624C269.845 380.498 281.852 374.046 284.989 371.355C290.082 366.987 294.924 362.166 299.132 356.939C301.833 353.582 304.227 350.012 307.082 346.774Q307.693 346.899 308.294 347.068C309.748 347.478 310.826 348.052 311.514 349.485C312.047 350.595 311.755 351.875 311.296 352.965C306.765 363.718 283.622 382.696 272.815 387.412Z"/>
	<path fill="#9F8BE8" d="M628.366 387.593Q627.539 387.06 626.72 386.514C618.787 381.249 606.357 373.308 604.58 363.068C603.641 357.657 605.811 353.164 608.923 348.933L609.274 349.334C611.347 361.114 615.514 369.584 623.133 378.738C625.533 381.622 628.394 384.476 630.2 387.77L629.905 388.282L628.366 387.593Z"/>
	<path d="M456.163 390.946C449.636 384.048 443.739 382 434.581 384.361C432.067 385.009 429.503 385.747 426.889 385.461C426.364 384.93 425.969 384.751 425.862 383.967C425.701 382.786 426.105 381.293 426.89 380.373C429.201 377.664 435.872 376.691 439.286 376.146C445.451 376.052 450.981 377.135 456.242 380.545C459.993 382.976 464.244 386.937 465.005 391.572C465.266 393.155 465.043 394.253 464.139 395.605C463.278 395.985 463.057 396.216 462.081 396.101C459.312 395.773 457.731 392.973 456.163 390.946Z"/>
	<path fill="#FEFEFE" d="M663.429 484.73C667.541 483.204 672.49 480.853 675.262 477.379C675.632 476.067 675.659 475.457 675.296 474.141C672 471.292 664.832 476.475 661.301 477.741C658.018 478.918 654.276 479.716 650.783 479.473C648.806 479.335 646.112 478.588 644.954 476.808C642.215 472.598 651.081 455.257 651.455 449.132C651.787 443.709 650.969 437.813 650.382 432.404C648.038 410.782 645.813 404.342 651.069 382.165C656.039 384.309 660.222 389.231 665.19 391.77C681.914 400.318 699.704 402.314 718.022 404.357C722.452 413.73 730.473 421.243 739.443 426.24C751.207 432.793 766.834 437.128 780.179 433.401C786.351 437.471 793.245 439.34 799.573 442.899C800.845 443.614 801.827 444.477 802.066 446.01C802.363 447.913 801.502 450.33 800.777 452.098C794.885 466.468 781.713 460.747 777.411 466.35C777.405 466.815 777.369 466.902 777.554 467.406C778.544 470.1 781.44 471.009 783.876 471.759C790.927 470.105 796.433 468.066 802.417 463.952C805.849 471.132 809.405 478.819 814.518 484.952C802.036 495.789 786.4 515.564 777.728 529.857C773.705 536.488 770.343 544.377 765.748 550.519C763.869 553.03 761.248 554.596 758.623 556.204C757.62 554.298 756.858 552.368 756.091 550.361C763.186 543.862 769.224 537.068 774.253 528.828C781.144 517.536 784.601 504.743 786.6 491.76C787.005 489.131 787.862 485.895 787.229 483.279C786.521 482.2 785.885 481.32 784.525 481.055C783.137 480.786 782.509 481.225 781.36 481.858C778.724 485.335 779.406 492.111 778.669 496.384C775.327 515.778 766.343 531.475 752.676 545.47C750.056 548.153 747.335 551.318 744.169 553.374C743.029 554.115 742.47 554.432 741.137 554.15C742.748 548.725 746.686 542.807 749.248 537.63C750.611 534.595 752.154 530.84 752.495 527.528C752.679 525.74 752.667 524.052 751.532 522.573C750.458 522.176 749.955 521.968 748.839 522.591C745.665 524.363 746.133 528.435 745.086 531.39C741.63 541.139 734.886 555.017 724.877 559.358C720.558 561.23 715.11 561.697 710.684 559.928C702.111 556.502 699.111 545.175 695.906 537.29Q698.154 535.843 700.228 534.156C712.483 524.063 714.692 501.262 716.224 486.404C720.493 496.388 722.714 507.365 724.025 518.104C724.443 521.529 724.082 525.569 724.994 528.848C725.366 530.184 725.787 530.509 726.971 531.133C728.305 531.081 728.771 530.854 729.827 530.046C732.743 524.674 728.044 503.491 726.505 497.596C725.16 492.442 723.506 484.73 720.095 480.467C718.799 478.849 716.625 477.529 714.953 476.318C707.902 471.214 699.831 468.212 692.809 463.233C688.292 460.03 684.909 454.489 680.541 451.933C679.048 451.87 678.155 451.871 676.769 452.568C676.337 453.545 676.17 453.762 676.504 454.839C679.54 464.645 699.816 475.237 708.869 479.213C707.045 481.423 705.3 483.61 703.011 485.37C695.021 491.516 681.004 496.29 671.244 498.925Q667.078 491.97 663.429 484.73ZM664.881 399.617C661.329 400.328 656.704 401.79 654.418 404.842C653.791 405.679 653.493 406.665 653.748 407.675C653.982 408.602 654.196 408.866 654.855 409.506C660.62 411.334 665.452 404.755 673.513 407.969C674.905 408.852 676.196 409.737 677.47 410.786C678.509 411.642 679.058 411.969 680.381 412.162C681.488 411.833 682.055 411.692 682.655 410.575C683.346 409.291 683.065 407.432 682.448 406.168C680.965 403.13 677.493 401.404 674.4 400.517C671.18 399.594 668.213 399.293 664.881 399.617ZM671.516 425.585C668.859 426.202 666.232 426.729 664.657 429.188C663.833 430.475 663.693 431.604 663.758 433.094C664.455 434.366 664.549 434.423 665.851 435.073C668.505 435.004 669.798 433.444 671.584 431.705C674.076 432.097 676.413 432.54 678.824 433.324C680.724 434.331 682.77 435.825 684.972 435.016C685.861 434.689 685.907 434.296 686.389 433.544C686.454 431.88 686.066 430.762 684.984 429.518C682.544 426.712 678.41 425.463 674.787 425.435C673.697 425.426 672.603 425.506 671.516 425.585Z"/>
	<path d="M673.513 407.969C665.452 404.755 660.62 411.334 654.855 409.506C654.196 408.866 653.982 408.602 653.748 407.675C653.493 406.665 653.791 405.679 654.418 404.842C656.704 401.79 661.329 400.328 664.881 399.617C668.213 399.293 671.18 399.594 674.4 400.517C677.493 401.404 680.965 403.13 682.448 406.168C683.065 407.432 683.346 409.291 682.655 410.575C682.055 411.692 681.488 411.833 680.381 412.162C679.058 411.969 678.509 411.642 677.47 410.786C676.196 409.737 674.905 408.852 673.513 407.969Z"/>
	<path fill="#9F8BE8" d="M760.61 425.101C760.383 425.083 760.155 425.069 759.928 425.048C747.713 423.935 736.288 415.498 728.649 406.418C731.372 406.694 734.392 406.812 737.004 407.644C743.599 409.747 753.774 420.523 760.61 425.101Z"/>
	<path d="M448.778 417.724C442.898 409.092 436.518 418.513 430.932 415.113C430.672 413.82 430.834 412.722 431.534 411.587C433.172 408.929 437.095 408.006 439.891 407.085C442.309 406.863 444.663 406.906 446.983 407.7C450.11 408.771 453.173 411.011 454.504 414.114C455.374 416.145 455.602 419.327 454.493 421.316C453.762 422.628 452.376 423.189 450.994 423.374C449.735 421.932 449.342 419.555 448.778 417.724Z"/>
	<path fill="#E7A145" d="M194.805 454.481C201.109 447.877 218.959 426.575 225.009 422.95C230.276 423.237 233.965 426.749 237.789 429.995C227.821 442.262 216.24 453.643 205.442 465.222L202.139 468.589C199.843 463.792 197.37 459.138 194.805 454.481Z"/>
	<path d="M671.584 431.705C669.798 433.444 668.505 435.004 665.851 435.073C664.549 434.423 664.455 434.366 663.758 433.094C663.693 431.604 663.833 430.475 664.657 429.188C666.232 426.729 668.859 426.202 671.516 425.585C672.603 425.506 673.697 425.426 674.787 425.435C678.41 425.463 682.544 426.712 684.984 429.518C686.066 430.762 686.454 431.88 686.389 433.544C685.907 434.296 685.861 434.689 684.972 435.016C682.77 435.825 680.724 434.331 678.824 433.324C676.413 432.54 674.076 432.097 671.584 431.705Z"/>
	<path fill="#E7A145" d="M205.467 475.419C218.165 462.092 230.453 448.413 242.91 434.861C250.241 440.605 257.286 447.002 263.321 454.104C255.525 459.418 246.726 472.195 240.447 479.705Q232.021 489.745 223.109 499.358L219.037 503.886C214.796 494.242 210.15 484.853 205.467 475.419Z"/>
	<path d="M450.352 463.895C447.748 464.38 447.4 458.972 443.221 457.8C442.656 457.642 442.08 457.517 441.526 457.324C440.264 456.887 439.936 456.582 439.436 455.376C439.898 453.884 440.673 453.095 441.712 451.993C445.235 452.126 448.842 453.36 451.338 455.972C452.459 457.146 453.196 458.652 453.049 460.313C452.909 461.907 451.469 462.921 450.352 463.895Z"/>
	<path fill="#E7A145" d="M120.552 504.016Q128.355 497.404 136.489 491.203Q144.623 485.002 153.066 479.229Q161.509 473.456 170.238 468.127Q178.968 462.798 187.961 457.926C188.363 457.997 188.359 457.942 188.685 458.232C190.791 460.103 208.948 499.386 211.786 505.518C221.626 526.768 231.973 547.761 241.494 569.163C244.201 575.246 247.737 581.091 249.977 587.36C253.084 596.056 254.621 605.909 256.559 614.966C268.191 669.334 271.313 725.602 272.836 781.064C266.01 787.369 258.512 792.933 251.692 799.32C249.927 785.698 248.869 771.919 247.445 758.25C239.347 693.222 226.744 583.309 180.781 534.484C164.36 517.041 144.963 504.684 120.552 504.016Z"/>
	<path fill="#E7A145" d="M222.352 510.943C227.567 505.464 232.347 499.383 237.26 493.615L267.127 458.438C276.211 467.992 281.947 483.062 287.404 494.929Q264.359 522.146 241.718 549.7L241.198 549.88C239.378 548.426 224.884 516.293 222.352 510.943Z"/>
	<path fill="#4C3242" d="M734.198 681.545C734.265 673.667 732.575 662.121 737.259 655.412C739.801 651.772 743.108 648.574 745.196 644.627C746.403 642.345 747.344 638.99 746.263 636.483C745.563 634.858 744.288 634.216 742.774 633.532C742.638 633.47 741.447 632.951 741.28 632.854C740.111 632.176 739.916 631.854 739.615 630.558C738.2 624.46 738.35 617.202 737.862 610.895C737.439 605.429 736.592 599.64 737.479 594.188C739.755 580.198 760.635 566.544 769.709 556.459C776.132 549.321 780.348 539.524 785.579 531.436C797.967 512.285 820.466 486.412 839.755 474.744C846.293 470.789 852.869 468.203 860.324 466.6C862.687 466.414 865.142 466.137 867.501 466.455Q868.117 466.537 868.723 466.669Q869.33 466.801 869.924 466.983Q870.518 467.164 871.095 467.393Q871.672 467.623 872.228 467.899Q872.785 468.174 873.317 468.495Q873.849 468.815 874.353 469.178Q874.857 469.54 875.329 469.943Q875.802 470.346 876.24 470.786C886.076 480.741 895.258 500.56 902.703 513.051C908.244 522.347 914.63 530.967 921.294 539.479C894.075 543.087 867.642 545.969 842.77 558.547C823.068 568.51 799.745 586.561 788.825 605.961C784.346 613.918 781.47 622.865 778.07 631.318C771.369 647.983 765.584 664.734 759.947 681.783C757.01 690.475 754.154 699.354 751.886 708.244C748.956 702.643 738.504 684.723 734.198 681.545Z"/>
	<path fill="#FEFEFE" d="M431.207 496.68C419.63 489.273 413.919 480.142 409.473 467.338C419.093 472.976 428.691 478.133 438.729 483.009L433.814 492.232L431.207 496.68Z"/>
	<path fill="#FEFEFE" d="M676.955 505.153C688.163 500.517 699.967 496.874 709.794 489.488C710.107 492.849 708.391 495.971 706.296 498.456C702.95 502.426 688.51 512.456 683.452 512.243C681.786 512.173 681.689 511.897 680.624 510.721L676.955 505.153Z"/>
	<path fill="#E7A145" d="M244.085 557.392C251.483 547.875 259.383 538.711 267.115 529.463C274.721 520.366 282.235 511.095 290.257 502.363C294.023 506.685 301.477 530.796 302.919 537.022L271.21 577.359C267.8 581.722 264.677 587.469 260.614 591.114L259.779 590.359C254.83 579.247 249.008 568.532 244.085 557.392Z"/>
	<path fill="#E7A145" d="M350.344 862.552Q322.68 887.204 294.308 911.037C277.665 925.093 260.715 940.242 241.785 951.18C236.199 954.407 230.175 956.955 223.824 958.198C199.416 962.973 168.403 951.808 148.288 938.057C140.257 932.567 135.564 922.624 130.88 914.346C108.883 875.467 91.9498 831.987 78.8752 789.32Q71.0796 763.853 66.3104 737.65C55.6048 681.778 53.2819 618.462 73.259 564.282C77.0689 553.949 80.9696 544.666 87.2241 535.516C95.4975 523.413 106.292 514.913 121.067 512.111C121.215 512.092 121.362 512.069 121.51 512.055C136.471 510.641 151.382 518.55 162.696 527.654C213.401 568.452 226.994 662.071 235.07 722.599C238.741 750.111 241.944 777.536 244.938 805.127Q234.364 814.739 224.128 824.711C219.495 829.307 203.047 843.911 203.799 849.866C203.978 851.287 204.175 851.514 205.216 852.347C206.585 852.438 207.47 852.178 208.61 851.443C212.662 848.835 216.418 842.929 219.851 839.284Q230.04 828.444 240.86 818.235C267.243 793.711 295.402 770.528 323.614 748.135C350.206 770.064 359.881 816.626 364.434 849.385Q357.571 856.164 350.344 862.552Z"/>
	<path fill="#E7A145" d="M263.503 598.711C267.788 592.158 272.889 586.062 277.742 579.925C287.078 568.121 296.724 556.471 305.71 544.401C309.888 554.576 313.161 570.482 315.257 581.362C304.508 588.006 288.225 616.214 278.422 626.868C277.438 626.401 276.56 624.351 275.976 623.356Q269.315 611.249 263.503 598.711Z"/>
	<path fill="#9F8BE8" d="M915.445 547.822C924.64 556.718 932.314 568.117 939.845 578.445C973.794 625.004 996.313 677.856 1012.9 732.793C1016.94 746.177 1020.2 759.777 1024 773.23L1024 1024L731.35 1024C740.388 1014.77 749.672 1005.41 757.932 995.484C781.58 967.079 796.678 934.12 804.666 898.184Q806.528 898.674 808.412 899.076C831.538 904.155 857.279 901.978 877.485 888.933C898.374 875.447 907.303 850.177 912.17 826.88C926.835 756.681 917.627 644.645 883.768 581.166C881.392 576.712 879.001 571.963 876.156 567.798C874.892 565.946 873.522 564.037 871.21 563.571C869.785 563.977 869.3 564.32 868.347 565.452C868.075 566.319 867.911 566.909 868.088 567.828C868.815 571.589 875.659 581.219 877.765 585.333C889.616 608.486 896.704 633.696 902.057 659.065C913.067 711.241 920.05 819.854 889.463 866.297C880.175 880.401 866.449 888.822 850.013 892.191C827.325 896.841 801.879 893.288 782.467 880.259Q777.047 876.618 772.089 872.37Q767.131 868.122 762.701 863.325C734.084 831.83 703.174 766.665 695.108 724.923C699.215 721.335 703.692 718.095 707.873 714.572Q720.979 703.498 733.495 691.763C749.913 722.125 769.579 751.629 792.419 777.543C805.189 792.031 819.277 805.295 832.138 819.69C835.328 823.26 849.244 840.695 851.699 841.445C853.102 841.379 854.043 841.199 855.197 840.332C856.239 839.55 856.433 838.685 856.665 837.482C854.764 829.574 801.932 780.066 793.256 767.131C793.13 766.943 793.008 766.752 792.884 766.562C792.769 758.688 790.752 750.761 789.457 742.998Q787.216 729.135 785.674 715.178C781.745 680.061 778.192 629.983 801.593 600.945C807.675 593.399 814.79 586.765 822.369 580.749C850.218 558.646 880.931 551.524 915.445 547.822Z"/>
	<path fill="#E7A145" d="M0 691.668C5.01789 682.306 8.75481 669.293 13.133 659.135C26.2765 628.642 44.8065 591.703 65.1756 565.683C61.7227 576.42 58.4993 587.229 56.3471 598.311C36.4188 700.932 72.278 816.546 118.868 907.494C123.871 917.26 131.762 933.366 139.789 940.636C143.987 944.438 149.107 947.255 154.027 950.01Q159.953 953.299 166.165 956.008Q172.378 958.718 178.82 960.823C199.581 967.568 222.493 969.419 242.381 959.093C254.121 952.998 265.031 944.451 275.257 936.116C275.815 965.418 275.92 994.713 277.087 1024L0 1024L0 691.668Z"/>
	<path fill="#E7A145" d="M281.353 633.499C294.015 619.228 303.842 602.708 316.341 588.309C316.872 588.789 317.156 589.286 317.388 589.984C318.66 593.806 320.483 601.816 320.239 605.753C319.522 617.332 305.181 645.142 299.643 656.306C296.816 654.192 294.608 651.667 292.346 648.986C288.247 644.224 284.815 638.728 281.353 633.499Z"/>
	<path fill="#9F8BE8" d="M497.092 630.871C516.004 627.577 535.543 620.281 550.729 608.423C550.899 608.661 551.121 608.869 551.239 609.137C552.392 611.739 552.613 616.291 553.086 619.154C555.362 632.911 561.401 676.642 554.104 687.65C548.23 696.511 527.913 702.92 517.939 704.701C517.234 698.887 517.332 693.867 520.098 688.555C522.18 683.951 523.639 679.342 522.926 674.202C522.163 668.708 519.148 664.739 514.829 661.463C513.73 656.771 513.065 653.032 509.071 649.966C508.017 649.157 506.95 648.441 506.305 647.241C504.708 644.274 505.145 641.545 504.236 638.488C503.284 635.282 499.85 632.484 497.092 630.871Z"/>
	<path fill="#FEFEFE" d="M279.472 775.995C278.774 769.355 278.83 762.528 278.611 755.853Q278.038 735.83 277.128 715.82Q275.705 690.753 272.422 665.862Q269.139 640.97 264.013 616.392C267.789 620.052 273.124 632.519 276.001 637.696C280.922 646.551 288.219 659.769 298.653 662.759C299.169 671.675 298.694 680.675 298.744 689.604L299.331 731.107C299.412 740.16 299.085 749.474 300.063 758.476L291.698 765.554C287.711 769.169 283.685 772.642 279.472 775.995Z"/>
	<path fill="#FEFEFE" d="M410.581 669.697C415.792 668.907 420.806 667.29 425.899 665.973C437.893 662.87 450.109 660.676 460.563 653.542C469.986 647.113 471.682 637.684 484.336 634.633C487.663 634.366 492.507 635.062 495.33 637.013C508.42 646.061 480.157 678.584 481.56 686.187C482.437 687.364 482.561 687.578 483.911 688.109C491.937 686.519 500.778 656.119 504.092 654.37C504.588 654.535 504.626 654.511 505.11 654.883C506.642 656.063 507.161 658.573 507.36 660.366C509.266 677.516 489.565 693.782 490.643 705.826C491.373 707.145 491.981 707.631 493.175 708.48C493.867 708.548 494.141 708.718 494.768 708.305C497.124 706.753 497.81 701.681 499.086 699.124C503.778 689.723 510.177 681.215 513.283 671.048C513.551 670.17 513.287 670.585 514.069 669.918C515.297 671.137 515.935 673.172 516.262 674.849C517.977 683.641 501.152 706.419 496.319 714.085C494.115 717.568 492.061 720.426 488.646 722.837C472.96 733.914 440.164 732.057 421.672 743.655C413.841 726.561 402.063 714.024 387.034 703.02C392.44 691.581 401.74 678.763 410.581 669.697Z"/>
	<path fill="#FEFEFE" d="M718.887 641.433C714.802 645.168 704.908 656.325 704.777 661.89C704.746 663.235 704.965 663.33 705.887 664.173C706.871 664.408 708.238 664.866 709.16 664.158C711.057 662.704 712.401 659.633 713.612 657.593C718.936 648.628 725.156 642.851 734.883 638.981C736.472 638.973 737.035 638.855 738.444 639.658C739.091 643.087 731.416 650.305 729.446 653.75C728.183 655.961 727.264 658.276 726.758 660.774C725.698 666.001 724.979 683.199 726.41 688.334C716.894 697.943 706.426 706.594 696.109 715.322C692.981 705.083 692.798 694.493 693.03 683.875C693.716 676.31 694.499 668.776 697.31 661.652C701.533 650.948 708.63 645.864 718.887 641.433Z"/>
	<path fill="#FEFEFE" d="M421.517 659.766Q422.958 658.388 424.468 657.086Q425.978 655.784 427.553 654.561Q429.129 653.339 430.765 652.199Q432.401 651.06 434.093 650.006Q435.786 648.952 437.53 647.986Q439.275 647.021 441.067 646.147Q442.859 645.273 444.694 644.492Q446.529 643.711 448.401 643.026C450.146 643.387 452.082 643.919 453.686 644.704C454.875 645.286 455.253 645.89 455.65 647.092C455.416 647.742 455.42 647.839 454.986 648.479C451.814 653.166 434.906 656.751 429.107 658.023L421.517 659.766Z"/>
	<path fill="#9F8BE8" d="M757.439 717.379Q765.343 687.774 775.866 658.995C776.515 659.735 775.666 677.546 775.691 679.954C775.953 705.434 779.491 730.165 784.146 755.132L776.106 744.758C769.44 736.01 763.522 726.544 757.439 717.379Z"/>
	<path fill="#E7A145" d="M329.223 743.511C341.439 731.673 364.283 714.721 379.512 707.09C385.489 709.286 395.429 718.123 399.84 722.987C394.115 727.924 387.403 732.26 381.248 736.676Q364.321 748.656 347.728 761.096C346.673 761.762 346.008 762.225 344.742 762.385C340.033 755.728 335.109 749.182 329.223 743.511Z"/>
	<path fill="#E7A145" d="M348.957 769.237L403.411 728.843L404.496 729.034C413.056 735.658 418.655 754.458 421.286 764.762C413.904 770.064 405.822 774.544 398.207 779.523C386.973 786.868 376.004 794.765 365.097 802.59C364.409 803.127 363.721 803.537 362.97 803.977C361.853 803.329 359.687 794.824 359.077 793.014C356.301 784.788 352.671 777.065 348.957 769.237Z"/>
	<path fill="#9F8BE8" d="M658.419 842.723Q655.346 837.327 652.459 831.83Q649.572 826.332 646.875 820.739Q644.177 815.147 641.672 809.465Q639.167 803.784 636.857 798.02Q634.547 792.256 632.435 786.417Q630.324 780.578 628.412 774.67Q626.501 768.762 624.792 762.792Q623.084 756.822 621.58 750.798C645.857 755.604 671.173 754.668 695.799 754.359C700.231 771.095 707.087 788.192 715.694 803.217C712.102 812.946 707.892 822.365 703.531 831.769C701.684 835.591 699.827 839.362 697.693 843.036Q678.055 843.034 658.419 842.723Z"/>
	<path fill="#E7A145" d="M364.397 811.124C376.635 802.715 388.841 794.197 401.231 786.016C408.413 781.274 415.801 776.87 422.944 772.06C425.271 775.295 427.894 792.769 428.923 797.839C408.998 812.905 390.049 828.95 370.78 844.812C369.472 833.359 367.076 822.323 364.397 811.124Z"/>
	<path fill="#9F8BE8" d="M463.058 851.451C456.282 839.073 439.7 804.728 437.143 791.544C464.187 797.725 492.783 796.536 519.999 792.165C513.938 805.117 509.352 818.955 503.693 832.124C500.862 838.604 498.117 845.146 494.968 851.478Q479.013 851.738 463.058 851.451Z"/>
	<path fill="#9F8BE8" d="M410.353 821.019Q421.62 811.568 433.499 802.897L434.028 803.151C436.422 807.287 437.665 812.798 439.002 817.392Q427.916 818.472 416.88 819.976L410.353 821.019Z"/>
	<path fill="#E7A145" d="M516.114 820.381C525.853 819.947 535.598 819.239 545.335 818.723Q591.698 817.416 637.97 820.611C643.592 830.339 648.516 840.453 654.192 850.15L700.999 850.481C706.415 844.489 709.661 835.288 713.594 828.174Q721.502 828.433 729.342 827.369Q734.115 836.397 739.708 844.941Q745.302 853.485 751.667 861.471C733.717 864.283 715.275 865.328 697.15 866.545Q630.949 870.637 564.625 869.926C535.537 870.216 506.311 868.783 477.261 867.467C441.858 865.863 402.529 864.144 367.864 857.211C375.297 850.521 392.873 833.643 400.951 829.939C408.75 826.362 432.058 824.575 441.564 823.886C446.977 835.247 452.154 847.722 458.854 858.338C466.771 859.269 491.942 860.56 498.65 858.046C503.106 854.117 513.194 827.397 516.114 820.381Z"/>
	<path fill="#9F8BE8" d="M339.912 881.242C346.425 875.209 352.911 868.668 360.199 863.587C370.543 864.237 381.028 866.542 391.35 867.757Q419.577 870.915 447.918 872.784Q492.56 875.831 537.296 876.819Q582.031 877.806 626.764 876.732C670.02 875.74 714.157 874.014 757.012 867.681C763.696 874.903 771.134 880.46 778.862 886.446C772.592 888.445 765.897 888.923 759.386 889.646C741.394 891.54 723.439 893.797 705.376 894.935C666.032 897.416 626.222 897.409 586.805 897.538C516.968 897.766 446.524 896.226 377.169 887.354C364.626 885.75 352.372 883.245 339.912 881.242Z"/>
	<path fill="#9F8BE8" d="M323.01 1024L318.767 899.942C323.802 895.667 328.784 890.93 334.103 887.038C350.668 890.049 367.213 892.997 383.923 895.102C442.684 902.504 502.653 904.122 561.826 904.481Q561.62 964.24 562.094 1024L323.01 1024Z"/>
	<path fill="#9F8BE8" d="M607.255 1024C607.122 984.262 607.854 944.497 607.178 904.769C636.869 903.945 666.694 903.746 696.345 902.084Q719.38 900.672 742.323 898.169C756.97 896.71 772.973 895.694 787.219 891.84C790.398 893.272 793.563 894.782 796.782 896.118C784.938 952.933 761.066 984.488 719.914 1024L607.255 1024Z"/>
	<path fill="#9F8BE8" d="M569.08 1024C569.036 984.222 569.233 944.411 568.704 904.637C579.129 904.772 589.642 904.366 600.048 904.661C601.192 944.376 600.438 984.26 600.557 1024L569.08 1024Z"/>
	<path fill="#FEFEFE" d="M284.357 1024L283.197 968.414C282.983 956.077 283.362 943.178 281.924 930.925Q296.864 918.496 311.338 905.527C312.799 917.738 312.692 930.316 313.17 942.61C314.224 969.739 314.722 996.881 316.069 1024L284.357 1024Z"/>
</svg>
