<?xml version="1.0" encoding="utf-8" ?>
<svg xmlns="http://www.w3.org/2000/svg" xmlns:xlink="http://www.w3.org/1999/xlink" width="1024" height="1024">
	<path fill="#C8C1FD" d="M0 0L1024 0L1024 1024L0 1024L0 0ZM876.928 694.695C882.105 690.761 888.018 687.079 892.479 682.348C892.708 635.434 880.607 577.533 864.039 533.644C860.215 523.513 855.483 513.673 851.048 503.799C848.68 498.527 845.909 493.194 844.421 487.591C842.992 482.207 842.535 476.354 841.784 470.829C839.408 453.346 837.241 426.082 829.306 410.617C835.953 394.183 837.158 379.03 833.088 361.653C841.191 354.594 850.538 345.304 851.269 333.878C851.603 328.67 849.957 323.34 846.408 319.466C842.44 315.135 837.019 313.382 831.436 312.291C835.915 306.456 838.837 300.732 837.765 293.095C837.043 287.954 834.632 283.152 830.388 280.047C816.015 269.529 801.795 287.276 788.775 267.764C786.32 264.086 783.893 259.641 783.171 255.248C781.869 247.324 782.925 229.035 782.866 219.997L782.874 82.1235L782.821 46.7185C782.836 40.0303 783.122 33.2223 782.799 26.5442C782.718 24.8763 782.791 23.9323 781.844 22.5002C768.265 14.8866 662.845 38.1469 644.803 42.3845C631.917 45.4109 619.046 48.9138 606.308 52.5094C583.655 58.9034 561.471 66.9288 539.36 74.9689C539.43 69.177 540.777 60.3341 538.37 55.1703C537.018 53.9368 534.594 53.8566 532.82 53.6404C505.686 50.3337 478.157 48.638 450.925 46.2248L259.472 29.9543L161.611 21.5163L130.916 18.8195C125.279 18.3308 119.219 17.3607 113.563 17.682C111.788 17.7827 109.903 17.8362 108.527 19.0419L108.373 891.449C99.0028 891.762 89.6116 892.907 80.2706 893.734C74.9337 894.207 68.9301 894.234 63.7122 895.352C62.7043 895.568 61.8353 895.903 61.1022 896.661C60.5599 897.221 60.653 897.748 60.5535 898.481C61.5089 899.684 62.5803 899.95 64.0965 900.101C71.1795 900.806 88.2206 898.119 96.0166 897.377C115.072 895.564 134.211 894.207 153.289 892.577L385.504 873.202C408.404 871.271 431.358 869.764 454.242 867.7C465.932 866.645 482.687 864.007 493.787 864.317C500.67 864.509 508.029 867.032 514.735 868.56L551.34 876.72L645.122 896.603C662.059 900.144 678.933 904.11 695.951 907.228C701.458 912.118 695.892 926.309 708.12 925.957C708.746 930.017 710.329 933.876 710.889 937.957C711.296 940.929 711.078 943.42 709.244 945.847C706.797 945.449 703.9 944.738 701.434 944.94C695.648 945.414 684.612 952.941 678.42 955.347C666.788 959.869 653.969 961.847 642.633 967.055C639.184 968.64 635.925 970.813 633.499 973.769C631.783 975.861 630.598 978.279 630.903 981.043C631.256 984.237 633.764 987.059 636.145 989.009C642.249 994.006 650.886 996.548 658.513 997.952C670.803 1000.21 683.423 998.869 695.856 999.488C711.176 1000.25 732.343 1003.79 747.025 1002.18C750.863 1001.76 756.42 1001.02 758.866 997.729C763.959 990.883 758.174 969.026 755.523 961.191C754.108 957.011 751.804 953.03 750.786 948.732C748.692 939.889 747.924 930.427 746.764 921.409L747.041 920.989C748.396 920.45 749.158 920.866 750.544 921.164C755.631 922.088 760.647 923.43 765.666 924.666C769.7 923.455 776.829 922.177 779.69 919.015C781.789 916.696 780.943 846.947 780.947 838.449C805.614 836.243 830.429 835.718 855.111 833.506C864.598 844.967 873.837 856.756 883.098 868.406C888.385 875.059 893.253 882.317 899.382 888.247C902.832 892.102 904.039 890.216 907.1 892.282C914.169 897.053 921.974 914.548 924.202 922.883C919.758 938.719 921.041 955.782 915.483 971.507C911.703 982.199 900.938 992.452 898.851 1003.04C898.147 1006.61 898.881 1010.75 901.014 1013.72C902.629 1015.98 905.107 1017.39 907.829 1017.82C917.955 1019.43 937.946 1007.56 945.982 1001.72C951.955 997.373 957.981 992.045 962.287 986.002C969.094 976.447 972.879 965.203 977.827 954.659C981.265 947.332 985.411 940.248 988.338 932.693C989.524 929.632 990.47 926.472 990.948 923.22C991.72 917.975 991.01 913.693 987.727 909.413C985.044 905.917 981.218 903.598 977.637 901.131C969.57 895.572 962.529 890.64 952.584 889.434C950.822 884.827 944.869 873.8 945.284 869.464C945.391 868.348 945.599 867.199 945.736 866.078C943.652 860.646 930.91 834.314 930.629 831.151C930.597 830.789 930.809 830.447 930.899 830.096C936.993 829.993 943.177 829.165 949.275 828.778C955.085 828.41 967.079 828.522 972.191 827.122C973.53 826.755 973.711 826.336 974.393 825.245C974.284 824.024 974.378 823.942 973.52 823.093C967.28 821.519 935.723 824.274 928.12 825.71C924.898 821.572 922.574 815.714 919.983 811.076C916.6 805.02 912.793 799.199 909.035 793.372C903.412 784.654 883.447 758.069 881.25 750.683C878.644 741.922 879.05 727.817 878.565 718.241C878.166 710.389 877.498 702.538 876.928 694.695Z"/>
	<path fill="#000002" d="M684.144 227.021C686.658 224.442 688.958 221.281 691.721 219.012C698.286 213.623 709.569 212.223 717.752 212.135C732.83 211.974 745.409 216.737 758.55 223.761L758.572 26.7839C731.007 29.4212 703.746 34.5548 676.668 40.2181C646.733 46.4787 616.759 53.5363 587.681 63.0988Q559.134 72.7405 530.911 83.2963C519.383 87.7306 508.026 92.5449 496.435 96.8334L496.604 623.172L496.882 773.265L496.902 828.605C496.901 838.788 496.584 849.052 496.98 859.221C509.576 862.811 522.599 865.205 535.397 867.982Q561.643 873.947 587.97 879.545L663.174 895.482C673.957 897.761 684.74 900.414 695.561 902.452C695.939 904.146 696.048 905.498 695.951 907.228C678.933 904.11 662.059 900.144 645.122 896.603L551.34 876.72L514.735 868.56C508.029 867.032 500.67 864.509 493.787 864.317C482.687 864.007 465.932 866.645 454.242 867.7C431.358 869.764 408.404 871.271 385.504 873.202L153.289 892.577C134.211 894.207 115.072 895.564 96.0166 897.377C88.2206 898.119 71.1795 900.806 64.0965 900.101C62.5803 899.95 61.5089 899.684 60.5535 898.481C60.653 897.748 60.5599 897.221 61.1022 896.661C61.8353 895.903 62.7043 895.568 63.7122 895.352C68.9301 894.234 74.9337 894.207 80.2706 893.734C89.6116 892.907 99.0028 891.762 108.373 891.449L108.527 19.0419C109.903 17.8362 111.788 17.7827 113.563 17.682C119.219 17.3607 125.279 18.3308 130.916 18.8195L161.611 21.5163L259.472 29.9543L450.925 46.2248C478.157 48.638 505.686 50.3337 532.82 53.6404C534.594 53.8566 537.018 53.9368 538.37 55.1703C540.777 60.3341 539.43 69.177 539.36 74.9689C561.471 66.9288 583.655 58.9034 606.308 52.5094C619.046 48.9138 631.917 45.4109 644.803 42.3845C662.845 38.1469 768.265 14.8866 781.844 22.5002C782.791 23.9323 782.718 24.8763 782.799 26.5442C783.122 33.2223 782.836 40.0303 782.821 46.7185L782.874 82.1235L782.866 219.997C782.925 229.035 781.869 247.324 783.171 255.248C783.893 259.641 786.32 264.086 788.775 267.764C801.795 287.276 816.015 269.529 830.388 280.047C834.632 283.152 837.043 287.954 837.765 293.095C838.837 300.732 835.915 306.456 831.436 312.291C837.019 313.382 842.44 315.135 846.408 319.466C849.957 323.34 851.603 328.67 851.269 333.878C850.538 345.304 841.191 354.594 833.088 361.653C837.158 379.03 835.953 394.183 829.306 410.617C837.241 426.082 839.408 453.346 841.784 470.829C842.535 476.354 842.992 482.207 844.421 487.591C845.909 493.194 848.68 498.527 851.048 503.799C855.483 513.673 860.215 523.513 864.039 533.644C880.607 577.533 892.708 635.434 892.479 682.348C888.018 687.079 882.105 690.761 876.928 694.695C867.938 697.602 859.685 702.798 851.124 706.724C838.407 712.556 825.058 717.36 811.802 721.817C808.639 722.88 804.368 723.436 801.54 725.098C794.891 726.857 787.793 727.588 780.989 728.609C781.05 763.413 780.539 798.264 780.843 833.06C804.068 831.869 827.336 829.854 850.551 828.906C851.863 829.148 852.818 829.182 853.599 830.39C854.21 831.335 854.651 832.478 855.111 833.506C830.429 835.718 805.614 836.243 780.947 838.449C780.943 846.947 781.789 916.696 779.69 919.015C776.829 922.177 769.7 923.455 765.666 924.666C760.647 923.43 755.631 922.088 750.544 921.164C750.582 921.096 750.619 921.029 750.659 920.962C751.624 919.314 752.123 918.193 752.395 916.291C754.265 916.574 756.119 917.14 757.953 917.604C758.671 854.766 756.172 791.804 757.665 728.975L749.845 728.486C739.829 726.908 729.756 725.987 719.729 724.202C702.361 721.112 685.342 715.902 668.855 709.689C666.743 708.721 663.631 707.619 662.409 705.521C661.557 704.058 661.674 703.005 661.944 701.401C663.376 692.904 666.268 684.218 668.324 675.804L682.361 617.866C683.277 613.985 684.012 610.083 684.732 606.162C690.127 580.948 689.921 556.149 685.538 530.793C669.559 559.533 662.84 559.398 633.538 570.534C636.388 581.046 640.315 591.442 643.831 601.759C645.155 605.789 646.622 609.819 647.786 613.895C649.984 620.445 656.579 638.062 654.405 644.061C652.943 648.097 642.352 653.622 638.744 656.412C635.031 658.947 630.977 661.35 627.46 664.127Q617.404 670.777 607.485 677.63C603.765 680.113 599.094 682.549 595.79 685.487C585.104 692.635 570.089 703.7 558.852 708.647C551.054 705.92 542.831 704.524 535.356 700.895C543.085 668.489 553.174 637.219 564.957 606.06C566.419 602.69 567.472 598.989 568.695 595.514C571.243 588.671 573.875 581.919 577.236 575.425C576.361 574.543 575.55 573.664 574.839 572.639C570.839 566.87 570.404 559.046 571.695 552.323C573.528 542.785 578.967 535.536 586.928 530.18C591.859 528.276 595.895 525.923 601.18 524.864C603.257 519.829 605.635 516.09 609.123 511.908C615.424 505.726 620.447 501.369 629.297 499.509L630.527 495.196C634.467 482.497 638.871 469.759 642.197 456.893C645.713 444.907 649.293 432.979 652.475 420.897C655.198 410.557 657.531 400.031 660.659 389.809C663.813 379.503 669.055 366.508 677.548 359.417C681.611 356.025 686.443 353.559 691.098 351.097C688.891 346.665 687.062 342.089 685.198 337.507C678.02 334.067 662.634 333.532 658.407 328.462C654.489 323.762 657.78 319.064 658.271 314.062C654.162 308.991 656.282 303.758 654.549 297.77L654.314 296.973L655.903 292.326C654.031 289.667 651.793 286.55 652.053 283.126C652.401 278.548 657.756 275.124 661.016 272.418C659.566 269.197 657.666 265.834 657.081 262.322C656.728 260.197 656.851 258.386 658.091 256.58L659.009 256.494C660.38 257.55 660.704 258.593 661.314 260.163C661.404 260.397 661.49 260.633 661.579 260.867C663.385 252.425 667.512 246.924 672.36 240.011C676.203 235.588 680.083 231.246 684.144 227.021ZM455.615 191.967C454.501 193.216 454.532 193.324 452.899 193.577C451.629 193.081 451.665 193.188 451.122 191.949C451.732 185.442 458.701 174.054 462.378 168.568C458.073 172.589 455.21 177.436 452.006 182.327C449.331 186.41 445.751 190.573 443.513 194.867C440.618 200.418 438.697 217.252 437.226 224.335C442.647 228.719 448.201 233.011 453.271 237.801C458.398 230.944 463.89 223.271 465.401 214.637C466.034 211.025 465.939 207.208 467.543 203.845C470.583 197.471 476.254 192.347 479.543 185.85C476.153 188.987 468.494 200.136 465.031 200.613C464.328 199.732 464.424 199.59 464.565 198.505C465.313 192.781 473.579 180.057 475.529 172.831L475.076 172.855C473.205 175.992 461.451 196.003 460.016 197.201C458.951 196.812 458.177 196.581 457.394 195.736C457.548 194.851 457.752 194.309 458.218 193.541C462.832 183.552 468.965 173.754 472.65 163.442C464.873 171.219 460.347 182.215 455.615 191.967ZM297.158 225.526C297.253 225.389 297.346 225.25 297.443 225.114L297.934 224.441C302.292 218.389 310.583 215.035 316.34 210.289C320.871 206.554 323.646 202.412 327.203 197.875C328.979 195.611 329.973 194.426 332.883 194.046C330.771 199.562 327.176 204.23 323.744 208.977C332.396 208.657 339.278 213.441 346.844 216.999C351.949 211.132 354.228 209.123 362.052 207.883C362.622 206.783 362.595 206.974 363.621 206.478C365.343 206.68 366.775 207.271 368.253 208.187C371.145 209.981 373.802 213.385 374.565 216.71C374.782 217.654 374.976 218.403 375.414 219.284C377.546 214.197 375.23 206.527 375.884 200.982C376.082 199.307 376.732 198.909 377.917 197.872C380.76 208.859 380.387 224.853 378.072 235.969C377.147 240.405 374.979 245.096 374.771 249.589C378.966 248.905 383.133 244.061 385.547 240.69C396.108 225.94 402.328 207.988 406.356 190.444L411.761 189.328C410.551 185.581 409.35 181.459 407.171 178.136C402.884 171.596 384.437 154.556 388.288 146.587C389.567 145.421 390.749 144.861 392.522 144.873C397.364 144.908 402.136 150.737 405.206 153.982C403.642 147.067 396.825 120.992 400.949 115.599C401.785 114.506 402.678 113.823 404.087 113.704C406.894 113.466 409.078 115.425 411.15 117.025C412.719 115.887 414.301 114.907 416.333 115.141C418.638 115.406 420.125 117.199 421.289 119.028Q422.693 121.261 424.035 123.533C426.405 122.385 428.757 120.804 431.448 121.987C435.646 123.832 445.332 156.733 446.868 162.557C449.065 170.888 447.308 175.746 445.093 183.735C448.953 176.959 459.342 159.052 466.832 156.792C467.975 156.447 468.343 156.706 469.304 157.375C469.817 157.732 470.325 158.267 470.777 158.686C472.489 157.985 473.638 156.888 475.505 156.971C476.455 157.929 476.997 158.263 476.967 159.734C476.949 160.586 476.573 161.613 476.388 162.448C476.166 163.455 476.195 163.04 476.385 164.07C477.102 164.753 476.634 164.492 477.843 164.619C478.766 164.715 479.574 164.894 480.46 165.18C481.485 166.634 481.4 167.962 481.128 169.658C480.359 174.46 478.043 179.358 476.243 183.848C478.664 182.59 480.819 181.335 483.625 181.722C484.54 182.529 484.752 182.634 484.747 183.953C484.722 189.334 475.385 200.34 472.34 204.888C469.629 208.939 470.514 214.958 468.968 219.568C466.331 227.432 461.494 234.366 456.734 241.074C459.747 244.304 462.958 247.463 465.793 250.844C459.27 259.216 453.67 268.25 447.501 276.878C436.015 292.944 423.879 308.938 411.69 324.48C409.119 327.759 407.23 332.493 404.082 335.112C398.927 339.402 391.029 341.507 384.714 343.372C384.915 355.044 384.447 366.145 382.832 377.721C381.491 387.333 379.052 397.48 379.064 407.165C379.079 418.509 381.459 430.728 383.088 441.987C383.827 447.096 384.922 452.461 384.663 457.646C384.401 462.882 381.174 467.684 379.281 472.454C381.438 477.586 384.139 482.467 386.489 487.513Q393.252 502.263 399.823 517.1C409.489 539.133 418.231 561.759 426.971 584.181C431.16 594.929 436.685 605.796 439.686 616.92C440.973 621.691 441.722 627.175 441.027 632.096C439.603 642.174 436.301 652.777 433.537 662.602Q426.465 688.187 418.091 713.375C413.374 727.643 408.044 741.956 404.408 756.543C415.24 756.335 426.056 755.485 436.877 754.99C455.147 754.154 473.397 753.536 491.656 752.425C492.236 738.026 491.878 723.503 491.875 709.091L491.592 617.945L491.624 344.253L491.475 180.045L491.503 124.173C491.502 114.86 492.167 105.044 491.259 95.8128C446.599 90.7791 401.629 87.5119 356.842 83.7747L148.879 66.1133L149.001 780.168L224.436 774.848C236.602 773.947 248.763 772.693 260.953 772.195C266.755 743.505 272.181 714.761 278.233 686.117Q281.702 669.966 284.91 653.76C285.84 649.232 287.783 643.588 287.687 638.987C287.575 633.548 282.299 621.323 280.263 615.757C269.717 586.923 258.085 558.654 246.35 530.292C243.169 522.603 240.501 514.389 236.734 506.995C235.354 507.728 233.773 508.628 232.14 508.384C230.857 508.193 230.057 507.435 229.498 506.324C227.713 502.774 228.192 495.805 228.06 491.752C227.305 468.641 231.476 444.383 238.305 422.361C241.918 410.712 246.804 399.589 248.361 387.389C249.7 376.893 248.406 366.964 247.676 356.493C246.493 339.549 247.343 320.493 253.738 304.632C261.031 286.541 276.206 278.074 292.257 268.598C294.316 268.492 297.725 268.003 299.349 266.657C302.154 264.332 301.926 259.517 302.223 256.216C301.02 256.155 299.793 256.104 298.604 255.9C293.495 255.026 288.504 250.479 285.621 246.322C281.104 239.81 281.014 233.888 282.325 226.424C282.49 226.23 282.651 226.033 282.818 225.84C284.539 223.863 286.936 221.958 289.674 221.898C292.683 221.832 295.018 223.63 297.158 225.526ZM113.405 22.3775L113.255 891.125C123.45 890.253 133.831 888.865 144.03 888.44L144.085 469.166L144.258 197.707L144.3 113.936C144.239 96.5108 143.653 78.8695 144.222 61.4628C161.773 61.6244 179.925 63.9927 197.44 65.4517L301.28 74.3151Q371.281 79.7441 441.188 86.2644C459.819 88.0596 478.817 88.9795 497.297 91.8723Q515.69 83.9049 534.367 76.6281L534.387 58.58Q403.923 46.4466 273.327 35.8242L176.204 27.5905C155.366 25.7686 134.301 23.2746 113.405 22.3775ZM765.116 25.7716L763.901 26.2128C762.482 30.747 763.564 41.9233 763.545 47.236L763.575 114.377L763.555 184.266C763.547 198.52 763.121 212.916 764.002 227.142C769.396 232.695 773.924 237.988 777.495 244.924L777.853 245.093C778.719 238.068 777.571 228.358 777.547 220.973L777.526 159.978L777.56 72.6203L777.556 43.9637C777.55 38.4624 777.801 32.85 777.295 27.3753C775.639 25.6693 773.841 25.5668 771.545 25.5134C769.412 25.4639 767.245 25.6443 765.116 25.7716ZM405.415 118.324C403.49 121.063 405.158 126.322 405.712 129.491C406.721 135.253 408.924 152.47 411.231 156.761C412.518 159.156 414.919 160.837 416.801 162.736C419.981 165.944 423.509 171.144 424.745 175.506C425.004 176.42 425.029 177.066 424.674 177.945C423.55 178.573 423.404 178.452 422.108 178.27C418.425 175.097 417.029 170.29 413.882 166.721C409.76 162.046 403.581 158.879 398.949 154.584C397.404 153.151 395.064 150.099 393.053 149.564C392.637 150.803 393.096 151.548 393.639 152.681C400.35 166.699 413.146 173.09 416.503 190.252C423.789 191.834 430.504 193.61 437.401 196.543C439.31 189.31 441.479 181.91 442.799 174.557C443.161 172.337 443.575 170.108 443.254 167.856C441.903 158.384 432.939 134.054 428.636 125.04L428.729 125.709C429.466 130.745 436.006 146.958 433.562 150.52C432.415 150.783 431.885 150.551 430.811 150.119C429.234 148.415 424.16 129.73 422.157 125.395L422.215 126.225C422.502 130.082 426.136 147.054 424.868 148.922C423.676 148.966 423.003 149.049 422 148.232C417.43 144.513 419.667 121.344 414.403 120.612C411.456 126.107 419.19 142.966 415.131 146.587C413.739 146.328 413.389 146.28 412.306 145.396C410.047 138.841 409.687 124.211 407.238 119.73C406.767 118.869 406.249 118.779 405.415 118.324ZM410.803 194.385C404.194 214.446 396.766 244.224 376.754 254.784C375.069 255.673 373.15 256.233 371.341 256.818C368.187 262.794 365.045 268.411 360.472 273.459C366.238 275.778 371.49 278.178 376.657 281.67C378.1 279.63 379.502 277.586 381.153 275.705C387.5 268.486 394.311 261.662 400.515 254.329C409.89 243.249 418.538 231.495 427.358 219.974C429.093 220.483 430.935 220.909 432.592 221.634C434.163 215.922 437.364 207.773 436.164 201.971C432.583 197.297 419.201 195.476 413.514 194.653C412.604 194.522 411.72 194.449 410.803 194.385ZM322.592 210.203C319.005 214.264 316.547 217.402 316.965 223.183C317.319 228.077 319.19 233.962 323.12 237.167C326.695 240.082 331.745 240.427 336.165 239.882C337.35 239.735 338.457 239.438 339.595 239.089C342.566 237.03 344.653 234.692 345.407 231.068C346.168 227.411 345.404 223.584 344.897 219.94C340.096 215.85 328.847 211.405 322.592 210.203ZM361.48 211.144C358.074 211.627 352.54 213.1 350.3 215.891C349.679 216.665 349.781 216.945 349.672 217.885C351.393 218.616 352.352 217.024 354.139 217.89L354.377 218.938C353.653 219.399 353.03 219.606 352.204 219.829L352.279 220.518L353.797 221.235L353.566 222.086C351.903 222.256 351.457 221.004 349.89 221.672C348.748 223.863 348.731 226.121 349.424 228.48C350.707 232.854 354.509 236.803 358.56 238.764C361.305 240.094 364.536 240.402 367.381 239.214C368.851 238.6 369.966 237.447 371.116 236.382C372.686 232.738 372.718 230.867 371.173 227.166C370.047 224.47 368.592 221.909 365.792 220.709L365.152 220.996C364.992 223.417 368.077 224.166 366.186 226.782C364.157 227.58 361.358 227.72 359.354 226.732C358.311 226.218 357.488 225.36 357.232 224.199C356.899 222.687 357.538 221.14 358.529 220.017C359.926 218.436 362.235 217.359 364.337 217.265C366.443 217.171 368.411 217.944 370.361 218.639C368.907 216.199 366.861 211.651 363.779 211.048C363.093 210.914 362.176 211.069 361.48 211.144ZM715.788 217.212C709.047 217.85 699.974 218.596 695.409 224.294C689.781 231.32 688.267 251.399 689.583 260.216C690.444 265.985 692.293 272.181 697.149 275.813C702.238 279.618 708.764 282.697 709.868 289.658C710.375 292.859 709.516 295.67 707.537 298.214C704.309 302.365 699.921 304.879 697.692 309.827C698.066 313.369 699.314 317.998 698.806 321.469C697.062 333.369 685.851 334.75 695.673 348.28C711.517 341.239 724.224 336.739 741.16 343.345C763.01 351.867 781.778 369.53 806.619 368.429C819.575 366.572 831.727 358.778 839.621 348.389C843.388 343.43 847.05 336.682 846.264 330.28C845.812 326.596 843.873 323.518 840.931 321.296C835.179 316.952 823.058 317.863 820.555 314.516L820.613 313.781C826.343 309.634 832.43 306.012 833.797 298.357C834.525 294.283 833.225 290.493 830.834 287.207C828.616 284.158 825.712 282.506 821.991 281.946C807.261 279.73 798.73 288.802 785.762 272.372C780.439 265.628 778.619 257.987 775.197 250.338C766.465 230.818 747.274 220.309 726.597 217.691C723.147 217.254 719.252 216.826 715.788 217.212ZM313.012 220.437C309.239 222.568 305.443 225.169 301.452 226.831C302.912 228.247 304.131 229.395 304.193 231.566C304.219 232.478 303.948 232.486 303.378 233.104C298.005 233.912 291.049 222.659 286.521 229.45C284.931 231.835 285.407 235.683 286.212 238.245C287.669 242.882 291.036 247.087 295.379 249.32C299.332 251.353 302.385 251.222 306.587 250.483C309.496 254.214 312.018 258.346 315.138 261.885C321.045 268.584 330.429 273.117 339.234 274.275C345.322 275.076 351.081 273.985 355.994 270.147C361.925 265.514 365.481 258.446 368.262 251.627C369.463 248.343 370.682 245.078 371.656 241.718C365.73 244.645 361.117 244.438 354.844 242.634C347.969 245.765 341.964 245.808 334.642 244.396C336.591 248.494 339.452 253.861 343.908 255.577Q344.19 255.683 344.481 255.759Q344.772 255.835 345.07 255.881Q345.367 255.927 345.668 255.942Q345.968 255.957 346.269 255.941Q346.57 255.925 346.867 255.879Q347.164 255.832 347.455 255.756Q347.746 255.679 348.028 255.573Q348.31 255.466 348.579 255.332C352.632 253.329 353.632 248.363 357.133 246.067C358.685 248.083 358.685 249.184 358.4 251.673Q358.35 252.12 358.256 252.56Q358.162 253.001 358.025 253.429Q357.888 253.858 357.71 254.271Q357.532 254.685 357.314 255.079Q357.096 255.472 356.841 255.843Q356.585 256.213 356.294 256.557Q356.004 256.9 355.68 257.214Q355.357 257.527 355.005 257.807C352.128 260.117 347.865 261.055 344.256 260.447C339.852 259.704 335.879 256.684 333.359 253.082C331.916 251.018 330.799 248.58 330.461 246.071C330.843 245.032 331.012 245.18 330.559 244.08C323.783 241.013 319.382 241.845 316.355 233.707C315.314 230.909 314.683 221.655 313.012 220.437ZM429.394 225.844C421.624 233.476 415.611 243.419 408.776 251.933C400.611 262.102 389.163 271.948 382.077 282.506C380.252 285.226 379.181 288.594 377.558 291.489C359.294 298.835 327.453 299.936 307.979 297.308C294.638 295.508 281.862 292.1 268.345 291.144C256.671 301.291 253.599 319.965 252.559 334.537Q251.828 344.823 252.338 355.123C253.004 366.772 254.585 378.066 252.797 389.731C251.24 399.89 247.394 408.923 244.476 418.683C236.517 445.3 229.598 475.041 233.381 502.98C247.931 492.718 271.497 475.644 289.101 473.413C298.076 472.555 307.04 473.542 315.958 474.6C321.646 458.727 327.89 442.145 331.104 425.583C335.093 405.026 334.462 376.311 333.987 355.128C324.578 356.562 302.502 357.458 296.607 365.296C294.833 367.656 293.978 370.767 291.759 372.748C290.352 372.654 290.247 372.731 289.211 371.803C288.53 369.675 289.335 367.796 290.325 365.889C293.259 360.239 299.013 357.012 304.913 355.255C311.846 353.19 319.266 352.424 326.403 351.286Q339.176 349.27 351.821 346.566C364.652 343.863 388.752 339.325 399.3 332.192C402.472 330.046 438.169 281.897 442.235 276.145Q450.978 263.606 459.223 250.734C452.305 243.136 438.977 229.045 429.394 225.844ZM686.414 231.509C681.103 237.271 667.012 251.635 667.442 259.394C667.485 260.182 667.52 260.224 667.676 260.899C667.787 260.702 667.891 260.5 668.011 260.307C669.653 257.664 675.715 254.101 678.763 253.499C679.827 253.288 680.144 253.491 681.094 253.919C681.538 255.273 681.817 256.817 681.102 258.121C678.569 262.738 670.034 263.135 667.681 265.288C666.877 266.023 666.256 273.531 664.769 275.645C662.592 278.741 655.773 280.661 656.707 285.076C657.385 288.28 660.548 290.483 663.211 291.969C666.533 293.823 677.859 297.076 678.502 300.757C679.017 303.703 675.618 307.142 673.794 309.151C670.85 312.394 667.836 314.673 664.266 317.16C662.661 318.433 661.12 319.715 660.883 321.879C660.777 322.847 661.324 323.937 661.992 324.631C666.152 328.952 675.104 328.904 680.714 330.13C683.284 330.692 685.701 331.633 688.132 332.617C690.163 328.407 692.599 324.399 694.61 320.2C693.205 314.928 691.841 310.127 694.686 305.005C697.357 300.198 706.114 296.658 704.801 290.551C704.764 290.381 704.72 290.214 704.668 290.049C702.411 282.914 689.647 279.31 685.833 267.613C683.998 261.985 683.343 255.16 683.669 249.255C683.843 246.101 686.978 232.817 686.414 231.509ZM347.865 234.865C346.607 236.676 345.337 238.285 343.791 239.858L343.498 241.007C344.616 241.402 345.406 241.353 346.579 241.261C348.24 240.828 349.735 240.699 351 239.493C350.773 237.603 349.146 236.241 347.865 234.865ZM306.784 257.894C305.951 262.106 304.619 266.319 303.974 270.539C309.444 280.103 318.506 287.498 327.297 293.926C331.423 293.876 335.507 293.723 339.622 293.413L340.865 293.156C341.441 290.779 338.933 282.77 338.663 279.709C327.978 276.891 318.924 273.313 311.657 264.674C309.886 262.569 308.566 259.89 306.784 257.894ZM298.455 271.504C289.645 275 280.418 280.399 273.287 286.681Q285.923 288.184 298.36 290.877C305.248 292.197 312.071 293.191 319.08 293.649C312.614 289.239 307.223 283.998 302.613 277.663C301.362 275.944 299.961 272.757 298.455 271.504ZM358.164 278.094C358.967 282.073 362.563 286.482 364.755 289.883C367.641 289.244 370.531 288.643 373.363 287.79L374.246 286.964C373.055 283.921 365.753 280.997 362.835 279.704C361.308 279.028 359.785 278.507 358.164 278.094ZM659.292 295.24C659.428 297.431 659.354 298.565 661.113 300.112C663.508 302.218 666.726 303.128 669.896 302.899C670.894 302.826 671.762 302.58 672.697 302.22C672.242 300.834 671.54 300.588 670.257 299.949C666.724 298.191 662.949 296.736 659.292 295.24ZM659.958 304.199C660.167 306.421 660.117 308.845 661.339 310.769C662.547 311.362 663.157 311.539 664.478 311.067C665.524 310.693 666.548 310.113 667.538 309.607L668.758 308.124C668.213 306.886 667.429 306.611 666.191 306.173C664.123 305.441 662.017 305.023 659.958 304.199ZM723.756 344.688C711.325 345.915 700.483 351.645 689.278 356.777C698.652 358.81 707.987 360.831 716.377 365.7C745.072 382.353 767.309 428.36 804.948 424.195C814.166 421.084 820.883 416.378 825.288 407.41C831.589 394.579 831.616 379.149 828.744 365.431C815.124 373.17 803.527 375.547 788.194 371.239C768.073 365.585 742.204 344.246 723.756 344.688ZM379.154 345.098C370.459 347.149 361.771 349.33 353.002 351.044C358.177 384.728 361.788 422.661 371.747 455.137C373.105 459.111 374.322 463.24 376.05 467.067C377.475 464.832 379.331 462.183 379.776 459.541C380.602 454.641 379.155 448.975 378.529 444.08C377.037 432.419 374.095 416.206 374.481 404.828C374.759 396.625 376.513 388.401 377.716 380.285Q379.048 371.772 379.678 363.178Q380.309 354.584 380.233 345.967L379.67 345.153L379.154 345.098ZM347.608 352.692C344.627 353.243 341.624 353.738 338.658 354.359C339.406 375.164 339.721 405.964 335.767 426.087C333.621 437.014 329.871 447.569 326.391 458.126C331.86 457.663 337.305 457.17 342.75 456.47C350.786 455.107 357.788 453.057 365.099 449.432C362.616 438.937 360.312 428.489 358.549 417.848C356.947 408.177 350.2 357.125 348.077 352.81L347.608 352.692ZM684.047 360.982C670.952 368.815 665.613 389.516 662.135 403.343C654.344 434.317 645.146 464.834 635.845 495.38C633.136 504.276 629.754 512.973 627.212 521.915C619.646 525.743 611.165 527.503 603.403 530.853C598.926 538.833 594.442 552.832 597.069 561.912C597.813 564.484 599.333 566.675 601.699 567.986C609.904 572.533 624.922 567.814 633.276 565.076C642.688 561.993 657.032 556.951 664.693 550.833C675.146 542.487 683.894 524.183 689.908 512.214C696.204 499.684 701.762 486.616 707.074 473.642C709.574 467.535 711.52 460.722 714.608 454.936C715.495 453.274 716.332 452.083 718.063 451.244C719.228 451.4 719.224 451.37 720.012 452.235C720.195 453.795 720.058 455.042 719.637 456.562C717.873 462.933 714.399 469.176 711.815 475.267C704.707 492.026 697.45 508.485 689.399 524.843C699.28 571.614 691.702 601.334 680.699 646.288C676.753 662.411 673.296 678.794 668.549 694.704L666.515 702.597C675.208 707.362 684.953 710.224 694.434 713.004C731.949 724.001 774.394 728.63 812.463 717.651C839.895 709.739 864.526 697.063 887.566 680.343C887.482 669.635 886.352 658.903 885.26 648.26C881.084 607.589 871.848 569.121 857.317 530.942C853.621 521.233 848.986 511.786 844.702 502.323C842.781 498.079 840.351 493.652 839.128 489.161C837.487 483.134 837.439 476.458 836.607 470.26C834.196 452.296 832.11 433.608 826.475 416.298C818.941 424.057 811.216 429.404 800.039 429.568C780.911 429.848 764.253 416.387 751.371 403.702C735.034 387.616 722.544 371.618 699.92 364.123C694.786 362.422 689.49 360.961 684.047 360.982ZM366.465 454.616C352.76 460.759 339.713 461.83 324.917 462.783C323.142 468.421 321.581 474.267 319.215 479.687C309.773 478.907 300.303 477.261 290.807 478.114C276.218 479.423 253.284 494.791 241.072 503.311C245.146 515.503 250.742 527.403 255.665 539.284C265.427 562.846 275.198 586.355 283.698 610.406C286.678 618.838 291.094 628.474 292.331 637.333C293.382 644.859 282.565 688.96 280.248 699.811Q273.226 732.952 266.983 766.25C265.3 775.17 262.942 784.109 261.731 793.095C264.508 797.607 269.223 803.415 274.553 804.806C276.168 805.227 277.555 804.981 278.921 804.051C283.194 801.143 286.722 795.327 289.153 790.864C301.73 767.767 312.084 739.365 322.445 714.827Q332.138 692.079 341.513 669.197C345.368 659.676 350.329 648.871 352.107 638.739C354.378 625.79 337.63 555.512 333.369 539.617Q330.061 526.234 326.382 512.948C328.313 511.091 330.089 509.273 331.575 507.032C333.523 504.095 339.114 491.299 341.304 490.454C342.634 490.929 342.741 490.899 343.497 492.07C343.882 498.362 336.119 509.102 332.084 513.765C334.83 526.425 338.565 538.876 341.509 551.495C343.581 560.377 344.678 571.844 348.196 580.169C349.816 584.003 352.322 587.689 354.431 591.279C359.889 600.572 378.64 630.539 380.177 639.488C381.592 647.725 377.53 663.83 376.193 672.571L365.623 744.03L362.138 768.294C361.44 773.276 360.457 778.446 360.415 783.483C364.855 787.498 368.737 790.073 375.006 789.847C380.781 789.64 386.684 787.638 391.886 785.23C394.066 779.283 395.367 772.924 396.925 766.79Q400.084 754.066 403.811 741.496C410.274 719.576 437.737 642.547 436.292 625.758C435.073 611.597 426.498 596.94 421.348 583.839C409.658 554.098 398.149 524.039 384.703 495.041C380.627 486.253 375.816 477.711 371.995 468.824C370.321 464.93 368.787 457.659 366.465 454.616ZM624.896 506.427C618.088 509.33 610.51 516.004 607.613 522.977L608.063 523.21L608.647 522.965C613.91 521.137 620.834 520.876 623.606 515.403C624.511 513.616 626.537 508.481 626.171 506.554L624.896 506.427ZM596.94 530.482C588.723 534.108 581.891 539.017 578.437 547.709C576.281 553.135 574.965 561.938 577.26 567.398C577.899 568.919 578.952 570.491 580.585 571.042C581.179 571.242 581.787 571.374 582.412 571.409C585.815 571.816 592.465 573.099 595.425 571.203C595.566 571.113 595.682 570.988 595.811 570.88C595.878 569.069 593.675 567.293 592.993 565.557C589.047 555.515 592.967 540.96 597.395 531.696C597.278 530.627 597.53 530.978 596.94 530.482ZM628.336 572.195C623.905 573.237 619.555 574.177 614.996 574.449C610.766 574.701 606.457 574.442 602.248 574.887C593.571 575.803 591.288 577.382 581.64 576.731C567.237 611.141 562.176 630.444 559.545 667.797C558.722 679.483 557.932 691.083 559.978 702.689Q566.42 698.75 572.779 694.678Q597.328 678.378 621.684 661.792C631.047 655.485 640.926 649.457 649.89 642.626C648.051 626.146 639.025 603.607 633.582 587.319C632.018 582.64 630.717 576.387 628.336 572.195ZM350.842 594.812C352.936 606.107 358.138 627.371 357.13 637.857C355.91 650.553 340.562 683.896 334.799 697.696L304.736 769.35L321.378 768.108L357.702 765.362L370.998 674.462C372.63 663.329 374.846 652.216 376.148 641.045C373.89 635.678 353.447 597.238 350.842 594.812ZM556.237 646.37C553.768 651.756 552.261 657.704 550.551 663.367C547.096 674.807 543.817 686.382 541.418 698.096C542.639 698.565 543.849 699.056 545.106 699.417C548.272 700.356 551.49 701.224 554.591 702.357C552.859 688.702 553.936 675.395 555.091 661.762C555.502 656.914 556.636 651.178 556.237 646.37ZM763.644 729.257L762.826 729.865C761.744 737.806 762.583 751.99 762.578 760.443L762.776 830.237L762.764 889.828C762.756 899.316 761.898 909.667 763.044 919.054C765.256 920.213 769.956 918.202 772.246 917.503L775.989 916.174L776.063 728.769L763.644 729.257ZM490.295 757.702C475.855 758.501 461.383 758.813 446.933 759.466C432.31 760.127 417.627 761.134 402.996 761.38Q400.164 773.467 397.058 785.486Q402.386 789.558 408.106 793.058Q413.826 796.558 419.877 799.448Q425.311 802.087 430.956 804.239C438.62 807.075 454.511 810.563 455.589 820.626C455.831 822.882 455.039 825.186 453.56 826.89C448.639 832.555 433.904 834.663 426.632 834.95C414.852 835.415 349.593 822.676 341.314 818.524C343.686 806.607 345.636 790.21 355.986 782.586C355.901 778.471 356.413 774.431 357.006 770.364C338.846 771.172 320.78 773.62 302.575 774.19C299.306 781.418 295.961 788.561 292.359 795.629C298.106 801.33 304.003 806.669 310.453 811.569C317.684 817.063 347.793 834.379 348.073 842.94C348.15 845.3 346.823 847.403 345.17 848.981C338.832 855.03 323.004 854.767 314.684 854.333Q310.706 854.137 306.771 853.523Q302.836 852.909 298.987 851.885C290.787 849.66 242.698 832.757 238.079 829.253C237.49 827.997 237.693 827.09 237.886 825.778C240.995 815.148 245.632 803.533 251.936 794.314C253.243 792.404 255.989 792.055 257.056 790.38C258.828 787.598 259.254 780.817 259.867 777.38C248.281 777.606 236.599 778.963 225.035 779.863C199.732 781.833 174.181 784.11 148.838 785.112L148.818 887.869L334.428 872.509C386.763 868.25 439.251 864.578 491.486 859.238C491.511 849.105 492.299 759.558 491.501 757.96L490.295 757.702ZM357.373 787.855C352.483 792.629 350.543 799.483 349.14 806.005C360.075 810.261 372.431 811.874 383.892 814.225C396.743 816.862 409.934 820.618 423.1 820.932C429.209 821.078 434.955 820.068 440.746 818.17C442.75 817.304 444.777 816.473 446.749 815.538C439.772 812.11 432.138 810.005 424.967 806.998C413.939 802.374 403.897 796.235 393.908 789.731C384.368 793.283 374.88 797.686 364.776 793.127C361.907 791.832 359.696 789.924 357.373 787.855ZM257.056 795.922C252.955 801.532 247.558 810.113 246.108 816.876C263.003 823.927 295.474 836.68 312.97 839.475C320.03 840.603 326.944 840.915 333.872 838.903C335.092 838.215 335.843 837.942 336.583 836.697C333.949 832.611 312.863 819.581 307.561 815.594Q297.908 808.364 289.089 800.137C286.345 804.317 283.141 808.953 277.87 809.99C273.988 810.754 270.018 808.557 267.021 806.316C263.049 803.348 260.149 798.115 257.056 795.922ZM347.332 811.14C347.238 812.809 346.833 813.818 347.853 815.187C359.767 818.963 372.461 820.98 384.707 823.481C397.821 826.159 413.02 830.635 426.431 830.174C434.894 829.883 442.768 827.025 450.565 823.969L450.388 821.363C449.539 820.713 449.792 820.66 448.581 820.791C445.145 821.162 441.491 823.108 438.165 824.146C434.959 825.146 431.645 825.401 428.312 825.64C415.83 826.532 403.494 823.486 391.338 821.055C376.516 818.091 361.987 814.813 347.332 811.14ZM244.288 821.685C243.776 823.317 243.168 824.434 243.512 826.128C250.306 829.931 258.817 832.221 266.167 834.913C285.434 841.972 301.947 849.56 322.942 849.2C327.493 849.122 332.148 848.872 336.556 847.65C339.038 846.962 341.229 846.05 343.161 844.314C342.903 842.696 342.667 841.918 341.732 840.574C339.586 840.425 336.855 843.305 334.643 843.999C330.747 845.222 325.503 845.167 321.447 845.043C297.06 844.295 267.225 830.439 244.288 821.685Z"/>
	<path fill="#9F8BE8" d="M113.255 891.125L113.405 22.3775C134.301 23.2746 155.366 25.7686 176.204 27.5905L273.327 35.8242Q403.923 46.4469 534.387 58.58L534.367 76.6281Q515.69 83.9049 497.297 91.8723C478.817 88.9795 459.819 88.0596 441.188 86.2644Q371.281 79.744 301.28 74.3151L197.44 65.4517C179.925 63.9927 161.773 61.6244 144.222 61.4628C143.653 78.8695 144.239 96.5108 144.3 113.936L144.258 197.707L144.085 469.166L144.03 888.44C133.831 888.865 123.45 890.253 113.255 891.125Z"/>
	<path fill="#C8C1FD" d="M764.002 227.142C763.121 212.916 763.547 198.52 763.555 184.266L763.575 114.377L763.545 47.236C763.564 41.9233 762.482 30.747 763.901 26.2128L765.116 25.7716C767.245 25.6443 769.412 25.4639 771.545 25.5134C773.841 25.5668 775.639 25.6693 777.295 27.3753C777.801 32.85 777.55 38.4624 777.556 43.9637L777.56 72.6203L777.526 159.978L777.547 220.973C777.571 228.358 778.719 238.068 777.853 245.093L777.495 244.924C773.924 237.988 769.396 232.695 764.002 227.142Z"/>
	<path fill="#C8C1FD" d="M684.144 227.021C666.089 230.018 647.664 230.943 629.533 233.672L629.458 400.919L629.382 458.154C629.377 468.686 629.041 479.349 629.522 489.868C629.607 491.74 629.796 493.445 630.527 495.196L629.297 499.509C620.447 501.369 615.424 505.726 609.123 511.908C607.827 504.951 608.892 496.527 608.912 489.364L608.857 439.937L608.55 235.884C578.456 239.873 548.106 242.944 518.119 247.595C519.367 272.655 518.525 298.094 518.553 323.21L518.79 473.762C518.847 481.83 518.028 515.849 519.903 520.776C524.959 523.741 566.785 527.42 575.028 528.358C578.327 528.733 584.127 528.644 586.928 530.18C578.967 535.536 573.528 542.785 571.695 552.323C570.404 559.046 570.839 566.87 574.839 572.639C575.55 573.664 576.361 574.543 577.236 575.425C573.875 581.919 571.243 588.671 568.695 595.514L568.066 595.493C556.996 595.048 530.014 590.337 521.089 592.212C520.132 593.185 520.243 594.643 520.173 595.979C519.662 605.687 520.029 615.587 520.026 625.311L519.979 679.13C519.936 727.412 519.508 775.742 520.029 824.021C520.055 826.463 520.001 828.98 520.609 831.358C526.802 834.17 602.059 849.455 605.895 848.75C607.049 847.863 607.102 846.996 607.318 845.585C608.135 840.246 607.702 834.341 607.721 828.946L607.722 796.14C607.605 756.675 606.765 717.081 607.485 677.63Q617.404 670.777 627.46 664.127L627.817 795.395L627.863 831.134C627.878 838.224 627.195 846.227 628.65 853.168C634.01 856.511 676.595 863.785 685.404 864.849C688.532 877.448 692.806 889.755 695.561 902.452C684.74 900.414 673.957 897.761 663.174 895.482L587.97 879.545Q561.643 873.947 535.397 867.982C522.599 865.205 509.576 862.811 496.98 859.221C496.584 849.052 496.901 838.788 496.902 828.605L496.882 773.265L496.604 623.172L496.435 96.8334C508.026 92.5449 519.383 87.7306 530.911 83.2963Q559.134 72.7405 587.681 63.0988C616.759 53.5363 646.733 46.4787 676.668 40.2181C703.746 34.5548 731.007 29.4212 758.572 26.7839L758.55 223.761C745.409 216.737 732.83 211.974 717.752 212.135C709.569 212.223 698.286 213.623 691.721 219.012C688.958 221.281 686.658 224.442 684.144 227.021ZM670.94 81.7085C656.99 82.6557 643.502 84.5459 630.004 88.296L629.612 205.566C649.21 203.52 668.792 199.996 688.382 198.303Q711.806 195.058 735.282 192.21C735.097 158.503 734.336 124.686 734.846 90.989C715.907 84.2989 691.116 79.4758 670.94 81.7085ZM608.479 94.171C584.725 98.5986 536.128 121.276 518.123 136.996C518.039 145.505 517.348 218.376 518.294 219.883C518.362 219.992 518.475 220.067 518.566 220.158Q551.681 216.288 584.685 211.569C592.769 210.486 600.938 209.747 608.994 208.513C608.979 195.82 609.575 95.8075 608.479 94.171Z"/>
	<path fill="#C8C1FD" d="M377.917 197.872C373.652 182.9 365.877 169.909 352.013 162.186C343.623 157.512 333.146 155.253 323.769 158.095C321.223 158.867 319.202 160.159 317.036 161.639C301.122 159.841 286.529 162.225 273.685 172.527C260.786 182.873 259.339 189.754 256.827 205.329C256.2 209.222 254.897 213.058 254.551 216.988C253.585 227.987 258.521 238.11 265.513 246.311C273.214 255.345 281.703 263.153 292.257 268.598C276.206 278.074 261.031 286.541 253.738 304.632C247.343 320.493 246.493 339.549 247.676 356.493C248.406 366.964 249.7 376.893 248.361 387.389C246.804 399.589 241.918 410.712 238.305 422.361C231.476 444.383 227.305 468.641 228.06 491.752C228.192 495.805 227.713 502.774 229.498 506.324C230.057 507.435 230.857 508.193 232.14 508.384C233.773 508.628 235.354 507.728 236.734 506.995C240.501 514.389 243.169 522.603 246.35 530.292C258.085 558.654 269.717 586.923 280.263 615.757C282.299 621.323 287.575 633.548 287.687 638.987C287.783 643.588 285.84 649.232 284.91 653.76Q281.702 669.965 278.233 686.117C272.181 714.761 266.755 743.505 260.953 772.195C248.763 772.693 236.602 773.947 224.436 774.848L149.001 780.168L148.879 66.1133L356.842 83.7747C401.629 87.5119 446.599 90.7791 491.259 95.8128C492.167 105.044 491.502 114.86 491.503 124.173L491.475 180.045L491.624 344.253L491.592 617.945L491.875 709.091C491.878 723.503 492.236 738.026 491.656 752.425C473.397 753.536 455.147 754.154 436.877 754.99C426.056 755.485 415.24 756.335 404.408 756.543C408.044 741.956 413.374 727.643 418.091 713.375Q426.465 688.187 433.537 662.602C436.301 652.777 439.603 642.174 441.027 632.096C441.722 627.175 440.973 621.691 439.686 616.92C436.685 605.796 431.16 594.929 426.971 584.181C418.231 561.759 409.489 539.133 399.823 517.1Q393.252 502.263 386.489 487.513C384.139 482.467 381.438 477.586 379.281 472.454C381.174 467.684 384.401 462.882 384.663 457.646C384.922 452.461 383.827 447.096 383.088 441.987C381.459 430.728 379.079 418.509 379.064 407.165C379.052 397.48 381.491 387.333 382.832 377.721C384.447 366.145 384.915 355.044 384.714 343.372C391.029 341.507 398.927 339.402 404.082 335.112C407.23 332.493 409.119 327.759 411.69 324.48C423.879 308.938 436.015 292.944 447.501 276.878C453.67 268.25 459.27 259.216 465.793 250.844C462.958 247.463 459.747 244.304 456.734 241.074C461.494 234.366 466.331 227.432 468.968 219.568C470.514 214.958 469.629 208.939 472.34 204.888C475.385 200.34 484.722 189.334 484.747 183.953C484.752 182.634 484.54 182.529 483.625 181.722C480.819 181.335 478.664 182.59 476.243 183.848C478.043 179.358 480.359 174.46 481.128 169.658C481.4 167.962 481.485 166.634 480.46 165.18C479.574 164.894 478.766 164.715 477.843 164.619C476.634 164.492 477.102 164.753 476.385 164.07C476.195 163.04 476.166 163.455 476.388 162.448C476.573 161.613 476.949 160.586 476.967 159.734C476.997 158.263 476.455 157.929 475.505 156.971C473.638 156.888 472.489 157.985 470.777 158.686C470.325 158.267 469.817 157.732 469.304 157.375C468.343 156.706 467.975 156.447 466.832 156.792C459.342 159.052 448.953 176.959 445.093 183.735C447.308 175.746 449.065 170.888 446.868 162.557C445.332 156.733 435.646 123.832 431.448 121.987C428.757 120.804 426.405 122.385 424.035 123.533Q422.693 121.261 421.289 119.028C420.125 117.199 418.638 115.406 416.333 115.141C414.301 114.907 412.719 115.887 411.15 117.025C409.078 115.425 406.894 113.466 404.087 113.704C402.678 113.823 401.785 114.506 400.949 115.599C396.825 120.992 403.642 147.067 405.206 153.982C402.136 150.737 397.364 144.908 392.522 144.873C390.749 144.861 389.567 145.421 388.288 146.587C384.437 154.556 402.884 171.596 407.171 178.136C409.35 181.459 410.551 185.581 411.761 189.328L406.356 190.444C402.328 207.988 396.108 225.94 385.547 240.69C383.133 244.061 378.966 248.905 374.771 249.589C374.979 245.096 377.147 240.405 378.072 235.969C380.387 224.853 380.76 208.859 377.917 197.872Z"/>
	<path fill="#9F8BE8" d="M630.004 88.296C643.502 84.5459 656.99 82.6557 670.94 81.7085C691.116 79.4758 715.907 84.2989 734.846 90.989C734.336 124.686 735.097 158.503 735.282 192.21Q711.806 195.059 688.382 198.303C668.792 199.996 649.21 203.52 629.612 205.566L630.004 88.296ZM675.6 91.7144C663.603 92.406 652.207 94.0024 640.517 96.7883L640.46 193.701C655.025 192.134 669.521 189.022 684.118 187.921C697.355 186.24 710.759 184.981 723.929 182.904L723.767 129.5C723.736 119.086 724.01 108.619 723.695 98.2152C708.787 93.3989 691.354 90.8309 675.6 91.7144Z"/>
	<path fill="#C8C1FD" d="M640.517 96.7883C652.207 94.0024 663.603 92.406 675.6 91.7144C691.354 90.8309 708.787 93.3989 723.695 98.2152C724.01 108.619 723.736 119.086 723.767 129.5L723.929 182.904C710.759 184.981 697.355 186.24 684.118 187.921C669.521 189.022 655.025 192.134 640.46 193.701L640.517 96.7883Z"/>
	<path fill="#9F8BE8" d="M518.123 136.996C536.128 121.276 584.725 98.5986 608.479 94.171C609.575 95.8075 608.979 195.82 608.994 208.513C600.938 209.747 592.769 210.486 584.685 211.569Q551.681 216.288 518.566 220.158C518.475 220.067 518.362 219.992 518.294 219.883C517.348 218.376 518.039 145.505 518.123 136.996ZM597.523 108.042C573.083 116.559 549.358 127.249 528.472 142.797C528.473 149.004 527.946 206.327 528.564 207.515C528.713 207.802 528.972 208.015 529.177 208.264Q550.757 205.14 572.396 202.459C580.874 201.373 589.625 200.546 598.011 198.907C598.052 189.148 597.42 110.395 598.536 108.664L597.672 108.869L597.736 108.473L597.523 108.042Z"/>
	<path fill="#C8C1FD" d="M528.472 142.797C549.358 127.249 573.083 116.559 597.523 108.042L597.736 108.473L597.672 108.869L598.536 108.664C597.42 110.395 598.052 189.148 598.011 198.907C589.625 200.546 580.874 201.373 572.396 202.459Q550.757 205.14 529.177 208.264C528.972 208.015 528.713 207.802 528.564 207.515C527.946 206.327 528.473 149.004 528.472 142.797Z"/>
	<path fill="#C8C1FD" d="M416.503 190.252C413.146 173.09 400.35 166.699 393.639 152.681C393.096 151.548 392.637 150.803 393.053 149.564C395.064 150.099 397.404 153.151 398.949 154.584C403.581 158.879 409.76 162.046 413.882 166.721C417.029 170.29 418.425 175.097 422.108 178.27C423.404 178.452 423.55 178.573 424.674 177.945C425.029 177.066 425.004 176.42 424.745 175.506C423.509 171.144 419.981 165.944 416.801 162.736C414.919 160.837 412.518 159.156 411.231 156.761C408.924 152.47 406.721 135.253 405.712 129.491C405.158 126.322 403.49 121.063 405.415 118.324C406.249 118.779 406.767 118.869 407.238 119.73C409.687 124.211 410.047 138.841 412.306 145.396C413.389 146.28 413.739 146.328 415.131 146.587C419.19 142.966 411.456 126.107 414.403 120.612C419.667 121.344 417.43 144.513 422 148.232C423.003 149.049 423.676 148.966 424.868 148.922C426.136 147.054 422.502 130.082 422.215 126.225L422.157 125.395C424.16 129.73 429.234 148.415 430.811 150.119C431.885 150.551 432.415 150.783 433.562 150.52C436.006 146.958 429.466 130.745 428.729 125.709L428.636 125.04C432.939 134.054 441.903 158.384 443.254 167.856C443.575 170.108 443.161 172.337 442.799 174.557C441.479 181.91 439.31 189.31 437.401 196.543C430.504 193.61 423.789 191.834 416.503 190.252Z"/>
	<path fill="#0B0034" d="M332.883 194.046C329.973 194.426 328.979 195.611 327.203 197.875C323.646 202.412 320.871 206.554 316.34 210.289C310.583 215.035 302.292 218.389 297.934 224.441L297.443 225.114C297.346 225.25 297.253 225.389 297.158 225.526C295.018 223.63 292.683 221.832 289.674 221.898C286.936 221.958 284.539 223.863 282.818 225.84C282.651 226.033 282.49 226.23 282.325 226.424C281.014 233.888 281.104 239.81 285.621 246.322C288.504 250.479 293.495 255.026 298.604 255.9C299.793 256.104 301.02 256.155 302.223 256.216C301.926 259.517 302.154 264.332 299.349 266.657C297.725 268.003 294.316 268.492 292.257 268.598C281.703 263.153 273.214 255.345 265.513 246.311C258.521 238.11 253.585 227.987 254.551 216.988C254.897 213.058 256.2 209.222 256.827 205.329C259.339 189.754 260.786 182.873 273.685 172.527C286.529 162.225 301.122 159.841 317.036 161.639C319.202 160.159 321.223 158.867 323.769 158.095C333.146 155.253 343.623 157.512 352.013 162.186C365.877 169.909 373.652 182.9 377.917 197.872C376.732 198.909 376.082 199.307 375.884 200.982C375.23 206.527 377.546 214.197 375.414 219.284C374.976 218.403 374.782 217.654 374.565 216.71C373.802 213.385 371.145 209.981 368.253 208.187C366.775 207.271 365.343 206.68 363.621 206.478C362.595 206.974 362.622 206.783 362.052 207.883C361.943 207.756 361.841 207.623 361.725 207.502C356.417 201.964 346.431 196.852 340.066 190.308C338.771 188.977 335.276 184.506 333.468 184.377C333.896 187.647 334.066 190.398 333.032 193.604C332.984 193.752 332.933 193.899 332.883 194.046Z"/>
	<path fill="#FDFDFE" d="M455.615 191.967C460.347 182.215 464.873 171.219 472.65 163.442C468.965 173.754 462.832 183.552 458.218 193.541L455.615 191.967Z"/>
	<path fill="#C8C1FD" d="M462.378 168.568C458.701 174.054 451.732 185.442 451.122 191.949C451.665 193.188 451.629 193.081 452.899 193.577C454.532 193.324 454.501 193.216 455.615 191.967L458.218 193.541C457.752 194.309 457.548 194.851 457.394 195.736C458.177 196.581 458.951 196.812 460.016 197.201C461.451 196.003 473.205 175.992 475.076 172.855L475.529 172.831C473.579 180.057 465.313 192.781 464.565 198.505C464.424 199.59 464.328 199.732 465.031 200.613C468.494 200.136 476.153 188.987 479.543 185.85C476.254 192.347 470.583 197.471 467.543 203.845C465.939 207.208 466.034 211.025 465.401 214.637C463.89 223.271 458.398 230.944 453.271 237.801C448.201 233.011 442.647 228.719 437.226 224.335C438.697 217.252 440.618 200.418 443.513 194.867C445.751 190.573 449.331 186.41 452.006 182.327C455.21 177.436 458.073 172.589 462.378 168.568Z"/>
	<path fill="#C8C1FD" d="M332.883 194.046C332.933 193.899 332.984 193.752 333.032 193.604C334.066 190.398 333.896 187.647 333.468 184.377C335.276 184.506 338.771 188.977 340.066 190.308C346.431 196.852 356.417 201.964 361.725 207.502C361.841 207.623 361.943 207.756 362.052 207.883C354.228 209.123 351.949 211.132 346.844 216.999C339.278 213.441 332.396 208.657 323.744 208.977C327.176 204.23 330.771 199.562 332.883 194.046Z"/>
	<path fill="#FDFDFE" d="M371.341 256.818C373.15 256.233 375.069 255.673 376.754 254.784C396.766 244.224 404.194 214.446 410.803 194.385C411.72 194.449 412.604 194.522 413.514 194.653C419.201 195.476 432.583 197.297 436.164 201.971C437.364 207.773 434.163 215.922 432.592 221.634C430.935 220.909 429.093 220.483 427.358 219.974C418.538 231.495 409.89 243.249 400.515 254.329C394.311 261.662 387.5 268.486 381.153 275.705C379.502 277.586 378.1 279.63 376.657 281.67C371.49 278.178 366.238 275.778 360.472 273.459C365.045 268.411 368.187 262.794 371.341 256.818Z"/>
	<path fill="#C8C1FD" d="M339.595 239.089C338.457 239.438 337.35 239.735 336.165 239.882C331.745 240.427 326.695 240.082 323.12 237.167C319.19 233.962 317.319 228.077 316.965 223.183C316.547 217.402 319.005 214.264 322.592 210.203C328.847 211.405 340.096 215.85 344.897 219.94C345.404 223.584 346.168 227.411 345.407 231.068C344.653 234.692 342.566 237.03 339.595 239.089ZM325.951 219.514C324.517 220.849 323.156 222.318 323.088 224.403C323.037 225.993 323.958 227.299 325.153 228.24C326.957 229.66 328.975 230.019 331.191 230.32C331.23 230.032 331.264 229.742 331.309 229.454C331.454 228.527 331.747 227.963 332.201 227.156C333.045 225.656 333.446 223.7 333.014 221.997C332.808 221.185 332.354 220.585 331.624 220.125C330.132 219.185 327.632 219.283 325.951 219.514Z"/>
	<path fill="#C8C1FD" d="M371.116 236.382C369.966 237.447 368.851 238.6 367.381 239.214C364.536 240.402 361.305 240.094 358.56 238.764C354.509 236.803 350.707 232.854 349.424 228.48C348.731 226.121 348.748 223.863 349.89 221.672C351.457 221.004 351.903 222.256 353.566 222.086L353.797 221.235L352.279 220.518L352.204 219.829C353.03 219.606 353.653 219.399 354.377 218.938L354.139 217.89C352.352 217.024 351.393 218.616 349.672 217.885C349.781 216.945 349.679 216.665 350.3 215.891C352.54 213.1 358.074 211.627 361.48 211.144C362.176 211.069 363.093 210.914 363.779 211.048C366.861 211.651 368.907 216.199 370.361 218.639C368.411 217.944 366.443 217.171 364.337 217.265C362.235 217.359 359.926 218.436 358.529 220.017C357.538 221.14 356.899 222.687 357.232 224.199C357.488 225.36 358.311 226.218 359.354 226.732C361.358 227.72 364.157 227.58 366.186 226.782C368.077 224.166 364.992 223.417 365.152 220.996L365.792 220.709C368.592 221.909 370.047 224.47 371.173 227.166C372.718 230.867 372.686 232.738 371.116 236.382Z"/>
	<path fill="#33207E" d="M697.692 309.827C699.921 304.879 704.309 302.365 707.537 298.214C709.516 295.67 710.375 292.859 709.868 289.658C708.764 282.697 702.238 279.618 697.149 275.813C692.293 272.181 690.444 265.985 689.583 260.216C688.267 251.399 689.781 231.32 695.409 224.294C699.974 218.596 709.047 217.85 715.788 217.212C719.252 216.826 723.147 217.254 726.597 217.691C747.274 220.309 766.465 230.818 775.197 250.338C778.619 257.987 780.439 265.628 785.762 272.372C798.73 288.802 807.261 279.73 821.991 281.946C825.712 282.506 828.616 284.158 830.834 287.207C833.225 290.493 834.525 294.283 833.797 298.357C832.43 306.012 826.343 309.634 820.613 313.781L820.555 314.516C823.058 317.863 835.179 316.952 840.931 321.296C843.873 323.518 845.812 326.596 846.264 330.28C847.05 336.682 843.388 343.43 839.621 348.389C831.727 358.778 819.575 366.572 806.619 368.429C781.778 369.53 763.01 351.867 741.16 343.345C724.224 336.739 711.517 341.239 695.673 348.28C685.851 334.75 697.062 333.369 698.806 321.469C699.314 317.998 698.066 313.369 697.692 309.827ZM704.618 239.456C704.347 242.842 704.48 245.292 705.754 248.521C708.607 255.747 713.931 261.898 717.613 268.719C722.631 278.014 725.184 289.408 732.223 297.436C737.655 303.631 744.39 306.024 752.402 306.506C764.949 307.259 786.067 301.371 795.458 311.563C800.264 316.778 801.573 325.026 801.084 331.896C800.938 333.961 800.581 336.011 800.235 338.05C801.957 341.565 803.493 343.873 807.314 345.198C808.4 345.574 809.503 345.868 810.622 346.13C814.674 345.2 818.052 343.985 821.663 341.869C822.524 340.987 823.059 340.536 823.336 339.292C822.837 338.393 823.137 338.52 822.277 338.257C818.966 337.244 809.264 342.582 807.144 339.188C802.271 331.383 812.946 309.259 788.903 302.077C768.114 295.868 745.74 312.341 731.828 287.682C727.548 280.097 724.895 271.666 720.818 263.971C718.045 258.739 714.06 254.126 711.358 248.897C710.037 246.342 710.204 241.743 708.337 239.796C707.011 239.465 705.968 239.433 704.618 239.456Z"/>
	<path fill="#000002" d="M331.191 230.32C328.975 230.019 326.957 229.66 325.153 228.24C323.958 227.299 323.037 225.993 323.088 224.403C323.156 222.318 324.517 220.849 325.951 219.514C327.632 219.283 330.132 219.185 331.624 220.125C332.354 220.585 332.808 221.185 333.014 221.997C333.446 223.7 333.045 225.656 332.201 227.156C331.747 227.963 331.454 228.527 331.309 229.454C331.264 229.742 331.23 230.032 331.191 230.32Z"/>
	<path fill="#C8C1FD" d="M301.452 226.831C305.443 225.169 309.239 222.568 313.012 220.437C314.683 221.655 315.314 230.909 316.355 233.707C319.382 241.845 323.783 241.013 330.559 244.08C331.012 245.18 330.843 245.032 330.461 246.071C330.799 248.58 331.916 251.018 333.359 253.082C335.879 256.684 339.852 259.704 344.256 260.447C347.865 261.055 352.128 260.117 355.005 257.807Q355.357 257.527 355.68 257.214Q356.004 256.9 356.294 256.557Q356.585 256.213 356.841 255.843Q357.096 255.472 357.314 255.079Q357.532 254.685 357.71 254.271Q357.888 253.858 358.025 253.429Q358.162 253.001 358.256 252.56Q358.35 252.12 358.4 251.673C358.685 249.184 358.685 248.083 357.133 246.067C353.632 248.363 352.632 253.329 348.579 255.332Q348.31 255.466 348.028 255.573Q347.746 255.679 347.455 255.756Q347.164 255.832 346.867 255.879Q346.57 255.925 346.269 255.941Q345.968 255.957 345.668 255.942Q345.367 255.927 345.07 255.881Q344.772 255.835 344.481 255.759Q344.19 255.683 343.908 255.577C339.452 253.861 336.591 248.494 334.642 244.396C341.964 245.808 347.969 245.765 354.844 242.634C361.117 244.438 365.73 244.645 371.656 241.718C370.682 245.078 369.463 248.343 368.262 251.627C365.481 258.446 361.925 265.514 355.994 270.147C351.081 273.985 345.322 275.076 339.234 274.275C330.429 273.117 321.045 268.584 315.138 261.885C312.018 258.346 309.496 254.214 306.587 250.483C302.385 251.222 299.332 251.353 295.379 249.32C291.036 247.087 287.669 242.882 286.212 238.245C285.407 235.683 284.931 231.835 286.521 229.45C291.049 222.659 298.005 233.912 303.378 233.104C303.948 232.486 304.219 232.478 304.193 231.566C304.131 229.395 302.912 228.247 301.452 226.831Z"/>
	<path fill="#FDFDFE" d="M377.558 291.489C379.181 288.594 380.252 285.226 382.077 282.506C389.163 271.948 400.611 262.102 408.776 251.933C415.611 243.419 421.624 233.476 429.394 225.844C438.977 229.045 452.305 243.136 459.223 250.734Q450.978 263.606 442.235 276.145C438.169 281.897 402.472 330.046 399.3 332.192C388.752 339.325 364.652 343.863 351.821 346.566Q339.176 349.27 326.403 351.286C319.266 352.424 311.846 353.19 304.913 355.255C299.013 357.012 293.259 360.239 290.325 365.889C289.335 367.796 288.53 369.675 289.211 371.803C290.247 372.731 290.352 372.654 291.759 372.748C293.978 370.767 294.833 367.656 296.607 365.296C302.502 357.458 324.578 356.562 333.987 355.128C334.462 376.311 335.093 405.026 331.104 425.583C327.89 442.145 321.646 458.727 315.958 474.6C307.04 473.542 298.076 472.555 289.101 473.413C271.497 475.644 247.931 492.718 233.381 502.98C229.598 475.041 236.517 445.3 244.476 418.683C247.394 408.923 251.24 399.89 252.797 389.731C254.585 378.066 253.004 366.772 252.338 355.123Q251.828 344.823 252.559 334.537C253.599 319.965 256.671 301.291 268.345 291.144C281.862 292.1 294.638 295.508 307.979 297.308C327.453 299.936 359.294 298.835 377.558 291.489ZM307.482 396.761C299.377 406.344 292.3 415.569 282.222 423.304C279.937 425.057 277.606 426.821 275.182 428.379C271.669 430.636 263.545 433.48 261.848 437.28C262.158 438.163 261.984 438.266 262.882 438.718C263.87 439.214 263.473 439.054 264.635 439.266C280.079 432.934 292.938 421.169 303.771 408.748C305.746 406.483 308.619 403.742 309.818 400.996C310.374 399.722 310.439 399.105 310.058 397.787C309.14 397.173 308.576 396.921 307.482 396.761ZM307.91 413.778C301.769 420.473 295.583 426.92 288.368 432.501C285.016 435.094 277.395 437.762 276.042 441.763L276.27 442.864C277.356 443.547 277.562 443.785 278.874 443.546C279.194 443.487 279.506 443.39 279.822 443.313C285.692 440.467 309.671 422.714 310.963 416.522C311.115 415.795 311.072 415.728 311.025 415.074C309.96 414.008 309.362 414.068 307.91 413.778Z"/>
	<path fill="#9F8BE8" d="M629.533 233.672C647.664 230.943 666.089 230.018 684.144 227.021C680.083 231.246 676.203 235.588 672.36 240.011C666.088 239.241 646.828 242.079 640.229 243.593C640.491 269.98 639.51 451.553 642.197 456.893C638.871 469.759 634.467 482.497 630.527 495.196C629.796 493.445 629.607 491.74 629.522 489.868C629.041 479.349 629.377 468.686 629.382 458.154L629.458 400.919L629.533 233.672Z"/>
	<path fill="#FDFDFE" d="M664.266 317.16C667.836 314.673 670.85 312.394 673.794 309.151C675.618 307.142 679.017 303.703 678.502 300.757C677.859 297.076 666.533 293.823 663.211 291.969C660.548 290.483 657.385 288.28 656.707 285.076C655.773 280.661 662.592 278.741 664.769 275.645C666.256 273.531 666.877 266.023 667.681 265.288C670.034 263.135 678.569 262.738 681.102 258.121C681.817 256.817 681.538 255.273 681.094 253.919C680.144 253.491 679.827 253.288 678.763 253.499C675.715 254.101 669.653 257.664 668.011 260.307C667.891 260.5 667.787 260.702 667.676 260.899C667.52 260.224 667.485 260.182 667.442 259.394C667.012 251.635 681.103 237.271 686.414 231.509C686.978 232.817 683.843 246.101 683.669 249.255C683.343 255.16 683.998 261.985 685.833 267.613C689.647 279.31 702.411 282.914 704.668 290.049C704.72 290.214 704.764 290.381 704.801 290.551C706.114 296.658 697.357 300.198 694.686 305.005C691.841 310.127 693.205 314.928 694.61 320.2C692.599 324.399 690.163 328.407 688.132 332.617C685.701 331.633 683.284 330.692 680.714 330.13C675.104 328.904 666.152 328.952 661.992 324.631C661.324 323.937 660.777 322.847 660.883 321.879C661.12 319.715 662.661 318.433 664.266 317.16ZM673.627 271.772C672.622 273.786 673.054 275.506 673.711 277.594C674.339 279.589 675.518 281.304 677.263 282.455C678.227 282.607 678.899 282.681 679.885 282.603C680.843 280.638 681.306 279.329 680.475 277.166C679.673 275.078 677.698 273.139 675.616 272.329C674.973 272.079 674.298 271.924 673.627 271.772Z"/>
	<path fill="#C8C1FD" d="M346.579 241.261C345.406 241.353 344.616 241.402 343.498 241.007L343.791 239.858C345.337 238.285 346.607 236.676 347.865 234.865C349.146 236.241 350.773 237.603 351 239.493C349.735 240.699 348.24 240.828 346.579 241.261Z"/>
	<path fill="#9F8BE8" d="M608.55 235.884L608.857 439.937L608.912 489.364C608.892 496.527 607.827 504.951 609.123 511.908C605.635 516.09 603.257 519.829 601.18 524.864C595.895 525.923 591.859 528.276 586.928 530.18C584.127 528.644 578.327 528.733 575.028 528.358C566.785 527.42 524.959 523.741 519.903 520.776C518.028 515.849 518.847 481.83 518.79 473.762L518.553 323.21C518.525 298.094 519.367 272.655 518.119 247.595C548.106 242.944 578.456 239.873 608.55 235.884ZM595.88 248.213Q576.325 250.768 556.808 253.596C547.707 254.911 538.556 256.55 529.383 257.19L529.518 511.306C532.51 511.696 535.599 512.285 538.602 512.476Q557.009 514.974 575.459 517.129C582.867 518.02 590.389 519.219 597.832 519.692C598.497 468.062 597.937 416.345 597.992 364.704L597.968 286.516C597.958 274.973 598.337 263.338 598.047 251.81C598.014 250.485 598.021 249.424 597.409 248.216C596.944 248.196 596.324 248.089 595.88 248.213Z"/>
	<path fill="#000002" d="M800.235 338.05C800.581 336.011 800.938 333.961 801.084 331.896C801.573 325.026 800.264 316.778 795.458 311.563C786.067 301.371 764.949 307.259 752.402 306.506C744.39 306.024 737.655 303.631 732.223 297.436C725.184 289.408 722.631 278.014 717.613 268.719C713.931 261.898 708.607 255.747 705.754 248.521C704.48 245.292 704.347 242.842 704.618 239.456C705.968 239.433 707.011 239.465 708.337 239.796C710.204 241.743 710.037 246.342 711.358 248.897C714.06 254.126 718.045 258.739 720.818 263.971C724.895 271.666 727.548 280.097 731.828 287.682C745.74 312.341 768.114 295.868 788.903 302.077C812.946 309.259 802.271 331.383 807.144 339.188C809.264 342.582 818.966 337.244 822.277 338.257C823.137 338.52 822.837 338.393 823.336 339.292C823.059 340.536 822.524 340.987 821.663 341.869C818.052 343.985 814.674 345.2 810.622 346.13C809.503 345.868 808.4 345.574 807.314 345.198C803.493 343.873 801.957 341.565 800.235 338.05Z"/>
	<path fill="#C8C1FD" d="M640.229 243.593C646.828 242.079 666.088 239.241 672.36 240.011C667.512 246.924 663.385 252.425 661.579 260.867C661.49 260.633 661.404 260.397 661.314 260.163C660.704 258.593 660.38 257.55 659.009 256.494L658.091 256.58C656.851 258.386 656.728 260.197 657.081 262.322C657.666 265.834 659.566 269.197 661.016 272.418C657.756 275.124 652.401 278.548 652.053 283.126C651.793 286.55 654.031 289.667 655.903 292.326L654.314 296.973L654.549 297.77C656.282 303.758 654.162 308.991 658.271 314.062C657.78 319.064 654.489 323.762 658.407 328.462C662.634 333.532 678.02 334.067 685.198 337.507C687.062 342.089 688.891 346.665 691.098 351.097C686.443 353.559 681.611 356.025 677.548 359.417C669.055 366.508 663.813 379.503 660.659 389.809C657.531 400.031 655.198 410.557 652.475 420.897C649.293 432.979 645.713 444.907 642.197 456.893C639.51 451.553 640.491 269.98 640.229 243.593Z"/>
	<path fill="#C8C1FD" d="M529.383 257.19C538.556 256.55 547.707 254.911 556.808 253.596Q576.325 250.768 595.88 248.213C596.324 248.089 596.944 248.196 597.409 248.216C598.021 249.424 598.014 250.485 598.047 251.81C598.337 263.338 597.958 274.973 597.968 286.516L597.992 364.704C597.937 416.345 598.497 468.062 597.832 519.692C590.389 519.219 582.867 518.02 575.459 517.129Q557.009 514.974 538.602 512.476C535.599 512.285 532.51 511.696 529.518 511.306L529.383 257.19Z"/>
	<path fill="#C8C1FD" d="M303.974 270.539C304.619 266.319 305.951 262.106 306.784 257.894C308.566 259.89 309.886 262.569 311.657 264.674C318.924 273.313 327.978 276.891 338.663 279.709C338.933 282.77 341.441 290.779 340.865 293.156L339.622 293.413C335.507 293.723 331.423 293.876 327.297 293.926C318.506 287.498 309.444 280.103 303.974 270.539Z"/>
	<path fill="#FDFDFE" d="M273.287 286.681C280.418 280.399 289.645 275 298.455 271.504C299.961 272.757 301.362 275.944 302.613 277.663C307.223 283.998 312.614 289.239 319.08 293.649C312.071 293.191 305.248 292.197 298.36 290.877Q285.923 288.184 273.287 286.681Z"/>
	<path fill="#000002" d="M679.885 282.603C678.899 282.681 678.227 282.607 677.263 282.455C675.518 281.304 674.339 279.589 673.711 277.594C673.054 275.506 672.622 273.786 673.627 271.772C674.298 271.924 674.973 272.079 675.616 272.329C677.698 273.139 679.673 275.078 680.475 277.166C681.306 279.329 680.843 280.638 679.885 282.603Z"/>
	<path fill="#FDFDFE" d="M364.755 289.883C362.563 286.482 358.967 282.073 358.164 278.094C359.785 278.507 361.308 279.028 362.835 279.704C365.753 280.997 373.055 283.921 374.246 286.964L373.363 287.79C370.531 288.643 367.641 289.244 364.755 289.883Z"/>
	<path fill="#FDFDFE" d="M672.697 302.22C671.762 302.58 670.894 302.826 669.896 302.899C666.726 303.128 663.508 302.218 661.113 300.112C659.354 298.565 659.428 297.431 659.292 295.24C662.949 296.736 666.724 298.191 670.257 299.949C671.54 300.588 672.242 300.834 672.697 302.22Z"/>
	<path fill="#FDFDFE" d="M667.538 309.607C666.548 310.113 665.524 310.693 664.478 311.067C663.157 311.539 662.547 311.362 661.339 310.769C660.117 308.845 660.167 306.421 659.958 304.199C662.017 305.023 664.123 305.441 666.191 306.173C667.429 306.611 668.213 306.886 668.758 308.124L667.538 309.607Z"/>
	<path fill="#C8C1FD" d="M689.278 356.777C700.483 351.645 711.325 345.915 723.756 344.688C742.204 344.246 768.073 365.585 788.194 371.239C803.527 375.547 815.124 373.17 828.744 365.431C831.616 379.149 831.589 394.579 825.288 407.41C820.883 416.378 814.166 421.084 804.948 424.195C767.309 428.36 745.072 382.353 716.377 365.7C707.987 360.831 698.652 358.81 689.278 356.777Z"/>
	<path fill="#FDFDFE" d="M353.002 351.044C361.771 349.33 370.459 347.149 379.154 345.098L379.67 345.153L380.233 345.967Q380.309 354.584 379.678 363.178Q379.048 371.772 377.716 380.285C376.513 388.401 374.759 396.625 374.481 404.828C374.095 416.206 377.037 432.419 378.529 444.08C379.155 448.975 380.602 454.641 379.776 459.541C379.331 462.183 377.475 464.832 376.05 467.067C374.322 463.24 373.105 459.111 371.747 455.137C361.788 422.661 358.177 384.728 353.002 351.044Z"/>
	<path fill="#FDFDFE" d="M338.658 354.359C341.624 353.738 344.627 353.243 347.608 352.692L348.077 352.81C350.2 357.125 356.947 408.177 358.549 417.848C360.312 428.489 362.616 438.937 365.099 449.432C357.788 453.057 350.786 455.107 342.75 456.47C337.305 457.17 331.86 457.663 326.391 458.126C329.871 447.569 333.621 437.014 335.767 426.087C339.721 405.964 339.406 375.164 338.658 354.359Z"/>
	<path fill="#9F8BE8" d="M627.212 521.915C629.754 512.973 633.136 504.276 635.845 495.38C645.146 464.834 654.344 434.317 662.135 403.343C665.613 389.516 670.952 368.815 684.047 360.982C689.49 360.961 694.786 362.422 699.92 364.123C722.544 371.618 735.034 387.616 751.371 403.702C764.253 416.387 780.911 429.848 800.039 429.568C811.216 429.404 818.941 424.057 826.475 416.298C832.11 433.608 834.196 452.296 836.607 470.26C837.439 476.458 837.487 483.134 839.128 489.161C840.351 493.652 842.781 498.079 844.702 502.323C848.986 511.786 853.621 521.233 857.317 530.942C871.848 569.121 881.084 607.589 885.26 648.26C886.352 658.903 887.482 669.635 887.566 680.343C864.526 697.063 839.895 709.739 812.463 717.651C774.394 728.63 731.949 724.001 694.434 713.004C684.953 710.224 675.208 707.362 666.515 702.597L668.549 694.704C673.296 678.794 676.753 662.411 680.699 646.288C691.702 601.334 699.28 571.614 689.399 524.843C697.45 508.485 704.707 492.026 711.815 475.267C714.399 469.176 717.873 462.933 719.637 456.562C720.058 455.042 720.195 453.795 720.012 452.235C719.224 451.37 719.228 451.4 718.063 451.244C716.332 452.083 715.495 453.274 714.608 454.936C711.52 460.722 709.574 467.535 707.074 473.642C701.762 486.616 696.204 499.684 689.908 512.214C683.894 524.183 675.146 542.487 664.693 550.833C657.032 556.951 642.688 561.993 633.276 565.076C624.922 567.814 609.904 572.533 601.699 567.986C599.333 566.675 597.813 564.484 597.069 561.912C594.442 552.832 598.926 538.833 603.403 530.853C611.165 527.503 619.646 525.743 627.212 521.915Z"/>
	<path fill="#000002" d="M264.635 439.266C263.473 439.054 263.87 439.214 262.882 438.718C261.984 438.266 262.158 438.163 261.848 437.28C263.545 433.48 271.669 430.636 275.182 428.379C277.606 426.821 279.937 425.057 282.222 423.304C292.3 415.569 299.377 406.344 307.482 396.761C308.576 396.921 309.14 397.173 310.058 397.787C310.439 399.105 310.374 399.722 309.818 400.996C308.619 403.742 305.746 406.483 303.771 408.748C292.938 421.169 280.079 432.934 264.635 439.266Z"/>
	<path fill="#000002" d="M279.822 443.313C279.506 443.39 279.194 443.487 278.874 443.546C277.562 443.785 277.356 443.547 276.27 442.864L276.042 441.763C277.395 437.762 285.016 435.094 288.368 432.501C295.583 426.92 301.769 420.473 307.91 413.778C309.362 414.068 309.96 414.008 311.025 415.074C311.072 415.728 311.115 415.795 310.963 416.522C309.671 422.714 285.692 440.467 279.822 443.313Z"/>
	<path fill="#9F8BE8" d="M324.917 462.783C339.713 461.83 352.76 460.759 366.465 454.616C368.787 457.659 370.321 464.93 371.995 468.824C375.816 477.711 380.627 486.253 384.703 495.041C398.149 524.039 409.658 554.098 421.348 583.839C426.498 596.94 435.073 611.597 436.292 625.758C437.737 642.547 410.274 719.576 403.811 741.496Q400.084 754.066 396.925 766.79C395.367 772.924 394.066 779.283 391.886 785.23C386.684 787.638 380.781 789.64 375.006 789.847C368.737 790.073 364.855 787.498 360.415 783.483C360.457 778.446 361.44 773.276 362.138 768.294L365.623 744.03L376.193 672.571C377.53 663.83 381.592 647.725 380.177 639.488C378.64 630.539 359.889 600.572 354.431 591.279C352.322 587.689 349.816 584.003 348.196 580.169C344.678 571.844 343.581 560.377 341.509 551.495C338.565 538.876 334.83 526.425 332.084 513.765C336.119 509.102 343.882 498.362 343.497 492.07C342.741 490.899 342.634 490.929 341.304 490.454C339.114 491.299 333.523 504.095 331.575 507.032C330.089 509.273 328.313 511.091 326.382 512.948Q330.061 526.234 333.369 539.617C337.63 555.512 354.378 625.79 352.107 638.739C350.329 648.871 345.368 659.676 341.513 669.197Q332.138 692.079 322.445 714.827C312.084 739.365 301.73 767.767 289.153 790.864C286.722 795.327 283.194 801.143 278.921 804.051C277.555 804.981 276.168 805.227 274.553 804.806C269.223 803.415 264.508 797.607 261.731 793.095C262.942 784.109 265.3 775.17 266.983 766.25Q273.226 732.952 280.248 699.811C282.565 688.96 293.382 644.859 292.331 637.333C291.094 628.474 286.678 618.838 283.698 610.406C275.198 586.355 265.427 562.846 255.665 539.284C250.742 527.403 245.146 515.503 241.072 503.311C253.284 494.791 276.218 479.423 290.807 478.114C300.303 477.261 309.773 478.907 319.215 479.687C321.581 474.267 323.142 468.421 324.917 462.783Z"/>
	<path fill="#C8C1FD" d="M608.647 522.965L608.063 523.21L607.613 522.977C610.51 516.004 618.088 509.33 624.896 506.427L626.171 506.554C626.537 508.481 624.511 513.616 623.606 515.403C620.834 520.876 613.91 521.137 608.647 522.965Z"/>
	<path fill="#C8C1FD" d="M582.412 571.409C581.787 571.374 581.179 571.242 580.585 571.042C578.952 570.491 577.899 568.919 577.26 567.398C574.965 561.938 576.281 553.135 578.437 547.709C581.891 539.017 588.723 534.108 596.94 530.482C597.53 530.978 597.278 530.627 597.395 531.696C592.967 540.96 589.047 555.515 592.993 565.557C593.675 567.293 595.878 569.069 595.811 570.88C595.682 570.988 595.566 571.113 595.425 571.203C592.465 573.099 585.815 571.816 582.412 571.409Z"/>
	<path fill="#C8C1FD" d="M643.831 601.759C640.315 591.442 636.388 581.046 633.538 570.534C662.84 559.398 669.559 559.533 685.538 530.793C689.921 556.149 690.127 580.948 684.732 606.162C671.085 605.417 657.558 602.372 643.831 601.759Z"/>
	<path fill="#9F8BE8" d="M581.64 576.731C591.288 577.382 593.571 575.803 602.248 574.887C606.457 574.442 610.766 574.701 614.996 574.449C619.555 574.177 623.905 573.237 628.336 572.195C630.717 576.387 632.018 582.64 633.582 587.319C639.025 603.607 648.051 626.146 649.89 642.626C640.926 649.457 631.047 655.485 621.684 661.792Q597.328 678.379 572.779 694.678Q566.42 698.75 559.978 702.689C557.932 691.083 558.722 679.483 559.545 667.797C562.176 630.444 567.237 611.141 581.64 576.731Z"/>
	<path fill="#9F8BE8" d="M607.485 677.63C606.765 717.081 607.605 756.675 607.722 796.14L607.721 828.946C607.702 834.341 608.135 840.246 607.318 845.585C607.102 846.996 607.049 847.863 605.895 848.75C602.059 849.455 526.802 834.17 520.609 831.358C520.001 828.98 520.055 826.463 520.029 824.021C519.508 775.742 519.936 727.412 519.979 679.13L520.026 625.311C520.029 615.587 519.662 605.687 520.173 595.979C520.243 594.643 520.132 593.185 521.089 592.212C530.014 590.337 556.996 595.048 568.066 595.493L568.695 595.514C567.472 598.989 566.419 602.69 564.957 606.06C561.306 605.218 557.309 605.264 553.574 605.036C546.062 604.578 538.506 604.309 531.039 603.345L530.983 823.706C552.802 827.568 574.345 832.899 596.071 837.229C597 808.769 596.204 780.097 596.165 751.615L596.096 709.793C596.072 701.726 596.288 693.537 595.79 685.487C599.094 682.549 603.765 680.113 607.485 677.63Z"/>
	<path fill="#C8C1FD" d="M304.736 769.35L334.799 697.696C340.562 683.896 355.91 650.553 357.13 637.857C358.138 627.371 352.936 606.107 350.842 594.812C353.447 597.238 373.89 635.678 376.148 641.045C374.846 652.216 372.63 663.329 370.998 674.462L357.702 765.362L321.378 768.108L304.736 769.35Z"/>
	<path fill="#9F8BE8" d="M643.831 601.759C657.558 602.372 671.085 605.417 684.732 606.162C684.012 610.083 683.277 613.985 682.361 617.866C677.972 615.472 654.186 614.367 647.786 613.895C646.622 609.819 645.155 605.789 643.831 601.759Z"/>
	<path fill="#C8C1FD" d="M531.039 603.345C538.506 604.309 546.062 604.578 553.574 605.036C557.309 605.264 561.306 605.218 564.957 606.06C553.174 637.219 543.085 668.489 535.356 700.895C542.831 704.524 551.054 705.92 558.852 708.647C570.089 703.7 585.104 692.635 595.79 685.487C596.288 693.537 596.072 701.726 596.096 709.793L596.165 751.615C596.204 780.097 597 808.769 596.071 837.229C574.345 832.899 552.802 827.568 530.983 823.706L531.039 603.345Z"/>
	<path fill="#C8C1FD" d="M647.786 613.895C654.186 614.367 677.972 615.472 682.361 617.866L668.324 675.804C666.268 684.218 663.376 692.904 661.944 701.401C661.674 703.005 661.557 704.058 662.409 705.521C663.631 707.619 666.743 708.721 668.855 709.689Q664.916 730.503 661.592 751.425C660.713 756.847 659.116 762.797 659.201 768.274C659.318 775.816 664.854 791.317 667.047 799.149Q674.517 826.682 682.39 854.102C677.76 853.737 672.96 852.505 668.393 851.619Q653.689 848.762 639.044 845.618L638.744 656.412C642.352 653.622 652.943 648.097 654.405 644.061C656.579 638.062 649.984 620.445 647.786 613.895Z"/>
	<path fill="#C8C1FD" d="M541.418 698.096C543.817 686.382 547.096 674.807 550.551 663.367C552.261 657.704 553.768 651.756 556.237 646.37C556.636 651.178 555.502 656.914 555.091 661.762C553.936 675.395 552.859 688.702 554.591 702.357C551.49 701.224 548.272 700.356 545.106 699.417C543.849 699.056 542.639 698.565 541.418 698.096Z"/>
	<path fill="#9F8BE8" d="M627.46 664.127C630.977 661.35 635.031 658.947 638.744 656.412L639.044 845.618Q653.689 848.762 668.393 851.619C672.96 852.505 677.76 853.737 682.39 854.102L685.404 864.849C676.595 863.785 634.01 856.511 628.65 853.168C627.195 846.227 627.878 838.224 627.863 831.134L627.817 795.395L627.46 664.127Z"/>
	<path fill="#0B0034" d="M801.54 725.098C804.368 723.436 808.639 722.88 811.802 721.817C825.058 717.36 838.407 712.556 851.124 706.724C859.685 702.798 867.938 697.602 876.928 694.695C877.498 702.538 878.166 710.389 878.565 718.241C879.05 727.817 878.644 741.922 881.25 750.683C883.447 758.069 903.412 784.654 909.035 793.372C912.793 799.199 916.6 805.02 919.983 811.076C922.574 815.714 924.898 821.572 928.12 825.71C928.058 827.112 928.044 827.89 928.604 829.218C929.581 829.927 929.704 830.028 930.899 830.096C930.809 830.447 930.597 830.789 930.629 831.151C930.91 834.314 943.652 860.646 945.736 866.078C942.344 865.962 940.044 866.562 937.09 868.221C933.958 865.774 930.288 865.716 926.464 866.163C921.77 866.71 917.908 868.785 914.992 872.528C912.383 875.877 911.014 880.413 908.403 883.504L907.665 884.038C906.854 884.635 906.197 885.295 905.485 886.003C903.435 888.044 902.17 888.161 899.382 888.247C893.253 882.317 888.385 875.059 883.098 868.406C873.837 856.756 864.598 844.967 855.111 833.506C854.651 832.478 854.21 831.335 853.599 830.39C852.818 829.182 851.863 829.148 850.551 828.906L850.829 828.427C849.583 824.99 838.762 813.378 835.799 809.609C830.325 802.645 824.734 795.368 820.348 787.665C812.795 774.4 807.963 757.173 804.838 742.214C803.731 736.911 803.341 731.155 801.812 725.987L801.54 725.098Z"/>
	<path fill="#0B0034" d="M668.855 709.689C685.342 715.902 702.361 721.112 719.729 724.202C729.756 725.987 739.829 726.908 749.845 728.486C746.357 736.827 735.048 761.906 733.954 769.313C732.847 776.81 737.429 796.457 738.729 804.599C742.212 826.423 744.962 848.414 747.864 870.323C749.767 884.695 753.056 900.124 752.146 914.634C752.083 915.644 752.066 915.243 752.395 916.291C752.123 918.193 751.624 919.314 750.659 920.962C750.619 921.029 750.582 921.096 750.544 921.164C749.158 920.866 748.396 920.45 747.041 920.989L746.764 921.409L746.195 920.945C745.23 921.174 744.315 921.39 743.328 921.509C743.106 921.536 742.882 921.554 742.659 921.577C741.953 920.037 741.132 919.461 739.533 918.884C733.428 916.68 722.716 918.616 716.983 921.563C715.321 922.417 713.828 923.592 712.357 924.735C710.552 924.756 709.65 924.939 708.12 925.957C695.892 926.309 701.458 912.118 695.951 907.228C696.048 905.498 695.939 904.146 695.561 902.452C692.806 889.755 688.532 877.448 685.404 864.849L682.39 854.102Q674.517 826.681 667.047 799.149C664.854 791.317 659.318 775.816 659.201 768.274C659.116 762.797 660.713 756.847 661.592 751.425Q664.916 730.503 668.855 709.689Z"/>
	<path fill="#C8C1FD" d="M780.989 728.609C787.793 727.588 794.891 726.857 801.54 725.098L801.812 725.987C803.341 731.155 803.731 736.911 804.838 742.214C807.963 757.173 812.795 774.4 820.348 787.665C824.734 795.368 830.325 802.645 835.799 809.609C838.762 813.378 849.583 824.99 850.829 828.427L850.551 828.906C827.336 829.854 804.068 831.869 780.843 833.06C780.539 798.264 781.05 763.413 780.989 728.609Z"/>
	<path fill="#C8C1FD" d="M749.845 728.486L757.665 728.975C756.172 791.804 758.671 854.766 757.953 917.604C756.119 917.14 754.265 916.574 752.395 916.291C752.066 915.243 752.083 915.644 752.146 914.634C753.056 900.124 749.767 884.695 747.864 870.323C744.962 848.414 742.212 826.423 738.729 804.599C737.429 796.457 732.847 776.81 733.954 769.313C735.048 761.906 746.357 736.827 749.845 728.486Z"/>
	<path fill="#C8C1FD" d="M772.246 917.503C769.956 918.202 765.256 920.213 763.044 919.054C761.898 909.667 762.756 899.316 762.764 889.828L762.776 830.237L762.578 760.443C762.583 751.99 761.744 737.806 762.826 729.865L763.644 729.257L776.063 728.769L775.989 916.174L772.246 917.503Z"/>
	<path fill="#9F8BE8" d="M402.996 761.38C417.627 761.134 432.31 760.127 446.933 759.466C461.383 758.813 475.855 758.501 490.295 757.702L491.501 757.96C492.299 759.558 491.511 849.105 491.486 859.238C439.251 864.578 386.763 868.25 334.428 872.509L148.818 887.869L148.838 785.112C174.181 784.11 199.732 781.833 225.035 779.863C236.599 778.963 248.281 777.606 259.867 777.38C259.254 780.817 258.828 787.598 257.056 790.38C255.989 792.055 253.243 792.404 251.936 794.314C245.632 803.533 240.995 815.148 237.886 825.778C237.693 827.09 237.49 827.997 238.079 829.253C242.698 832.757 290.787 849.66 298.987 851.885Q302.836 852.909 306.771 853.523Q310.706 854.137 314.684 854.333C323.004 854.767 338.832 855.03 345.17 848.981C346.823 847.403 348.15 845.3 348.073 842.94C347.793 834.379 317.684 817.063 310.453 811.569C304.003 806.669 298.106 801.33 292.359 795.629C295.961 788.561 299.306 781.418 302.575 774.19C320.78 773.62 338.846 771.172 357.006 770.364C356.413 774.431 355.901 778.471 355.986 782.586C345.636 790.21 343.686 806.607 341.314 818.524C349.593 822.676 414.852 835.415 426.632 834.95C433.904 834.663 448.639 832.555 453.56 826.89C455.039 825.186 455.831 822.882 455.589 820.626C454.511 810.563 438.62 807.075 430.956 804.239Q425.311 802.088 419.877 799.448Q413.826 796.558 408.106 793.058Q402.386 789.558 397.058 785.486Q400.164 773.467 402.996 761.38Z"/>
	<path fill="#FDFDFE" d="M349.14 806.005C350.543 799.483 352.483 792.629 357.373 787.855C359.696 789.924 361.907 791.832 364.776 793.127C374.88 797.686 384.368 793.283 393.908 789.731C403.897 796.235 413.939 802.374 424.967 806.998C432.138 810.005 439.772 812.11 446.749 815.538C444.777 816.473 442.75 817.304 440.746 818.17C434.955 820.068 429.209 821.078 423.1 820.932C409.934 820.618 396.743 816.862 383.892 814.225C372.431 811.874 360.075 810.261 349.14 806.005Z"/>
	<path fill="#FDFDFE" d="M246.108 816.876C247.558 810.113 252.955 801.532 257.056 795.922C260.149 798.115 263.049 803.348 267.021 806.316C270.018 808.557 273.988 810.754 277.87 809.99C283.141 808.953 286.345 804.317 289.089 800.137Q297.908 808.364 307.561 815.594C312.863 819.581 333.949 832.611 336.583 836.697C335.843 837.942 335.092 838.215 333.872 838.903C326.944 840.915 320.03 840.603 312.97 839.475C295.474 836.68 263.003 823.927 246.108 816.876Z"/>
	<defs>
		<linearGradient id="gradient_0" gradientUnits="userSpaceOnUse" x1="400.92554" y1="808.66498" x2="396.01642" y2="827.05249">
			<stop offset="0" stop-color="#FEF3FF"/>
			<stop offset="1" stop-color="white"/>
		</linearGradient>
	</defs>
	<path fill="url(#gradient_0)" d="M450.565 823.969C442.768 827.025 434.894 829.883 426.431 830.174C413.02 830.635 397.821 826.159 384.707 823.481C372.461 820.98 359.767 818.963 347.853 815.187C346.833 813.818 347.238 812.809 347.332 811.14C361.987 814.813 376.516 818.091 391.338 821.055C403.494 823.486 415.83 826.532 428.312 825.64C431.645 825.401 434.959 825.146 438.165 824.146C441.491 823.108 445.145 821.162 448.581 820.791C449.792 820.66 449.539 820.713 450.388 821.363L450.565 823.969Z"/>
	<path fill="#FDFDFE" d="M343.161 844.314C341.229 846.05 339.038 846.962 336.556 847.65C332.148 848.872 327.493 849.122 322.942 849.2C301.947 849.56 285.434 841.972 266.167 834.913C258.817 832.221 250.306 829.931 243.512 826.128C243.168 824.434 243.776 823.317 244.288 821.685C267.225 830.439 297.06 844.295 321.447 845.043C325.503 845.167 330.747 845.222 334.643 843.999C336.855 843.305 339.586 840.425 341.732 840.574C342.667 841.918 342.903 842.696 343.161 844.314Z"/>
	<path fill="#000002" d="M928.12 825.71C935.723 824.274 967.28 821.519 973.52 823.093C974.378 823.942 974.284 824.024 974.393 825.245C973.711 826.336 973.53 826.755 972.191 827.122C967.079 828.522 955.085 828.41 949.275 828.778C943.177 829.165 936.993 829.993 930.899 830.096C929.704 830.028 929.581 829.927 928.604 829.218C928.044 827.89 928.058 827.112 928.12 825.71Z"/>
	<path fill="#C8C1FD" d="M908.403 883.504C911.014 880.413 912.383 875.877 914.992 872.528C917.908 868.785 921.77 866.71 926.464 866.163C930.288 865.716 933.958 865.774 937.09 868.221C941.827 875.014 944.982 883.231 947.719 891.012C938.922 897.378 933.39 909.737 928.167 918.981C925.61 912.354 923.025 905.839 919.31 899.749C916.108 894.502 910.275 889.323 908.403 883.504Z"/>
	<path fill="#000002" d="M937.09 868.221C940.044 866.562 942.344 865.962 945.736 866.078C945.599 867.199 945.391 868.348 945.284 869.464C944.869 873.8 950.822 884.827 952.584 889.434C962.529 890.64 969.57 895.572 977.637 901.131C981.218 903.598 985.044 905.917 987.727 909.413C991.01 913.693 991.72 917.975 990.948 923.22C990.47 926.472 989.524 929.632 988.338 932.693C985.411 940.248 981.265 947.332 977.827 954.659C972.879 965.203 969.094 976.447 962.287 986.002C957.981 992.045 951.955 997.373 945.982 1001.72C937.946 1007.56 917.955 1019.43 907.829 1017.82C905.107 1017.39 902.629 1015.98 901.014 1013.72C898.881 1010.75 898.147 1006.61 898.851 1003.04C900.938 992.452 911.703 982.199 915.483 971.507C921.041 955.782 919.758 938.719 924.202 922.883C921.974 914.548 914.169 897.053 907.1 892.282C904.039 890.216 902.832 892.102 899.382 888.247C902.17 888.161 903.435 888.044 905.485 886.003C906.197 885.295 906.854 884.635 907.665 884.038L908.403 883.504C910.275 889.323 916.108 894.502 919.31 899.749C923.025 905.839 925.61 912.354 928.167 918.981C933.39 909.737 938.922 897.378 947.719 891.012C944.982 883.231 941.827 875.014 937.09 868.221ZM926.006 966.293C920.771 974.439 906.793 994.219 904.093 1002.03C903.472 1003.83 903.37 1005.5 903.718 1007.37C904.034 1009.07 904.472 1010.53 905.755 1011.68C908.246 1010.91 909.33 1008.08 910.481 1005.89C913.179 1000.77 915.825 995.715 918.795 990.739C922.706 984.185 927.158 977.568 930.229 970.581C940.864 955.285 943.082 937.065 957.386 922.309C964.716 914.747 973.118 910.488 983.723 910.316C981.579 909.122 979.397 908.176 977.135 907.239L976.529 907.388C946.256 914.93 940.061 942.64 926.006 966.293ZM950.526 894.98C943.476 899.816 928.578 924.921 927.027 933.112C926.176 937.605 926.022 942.249 925.414 946.782C924.664 952.372 923.399 957.858 922.113 963.343C925.093 958.216 927.854 953.013 930.56 947.738C938.958 931.039 949.234 911.242 968.186 904.868Q970.364 904.147 972.567 903.508C965.345 898.644 959.615 894.901 950.526 894.98ZM982.617 915.204C972.433 915.869 964.887 920.484 958.278 928.109Q954.23 932.819 951.237 938.262C946.569 946.664 943.084 955.757 938.678 964.312C935.47 970.542 912.714 1009.82 912.662 1012.66C913.755 1012.64 914.583 1012.55 915.628 1012.22C930.956 1006.84 948.817 996.311 958.753 983.244C961.129 980.118 962.936 976.445 964.634 972.922C967.92 966.105 970.777 959.094 974.032 952.266C978.155 943.619 983.459 934.778 986.027 925.543C986.633 923.365 987.161 920.082 986.212 917.923C985.645 916.633 984.969 915.867 983.617 915.411C983.034 915.214 983.055 915.232 982.617 915.204Z"/>
	<path fill="#9F8BE8" d="M922.113 963.343C923.399 957.858 924.664 952.372 925.414 946.782C926.022 942.249 926.176 937.605 927.027 933.112C928.578 924.921 943.476 899.816 950.526 894.98C959.615 894.901 965.345 898.644 972.567 903.508Q970.364 904.147 968.186 904.868C949.234 911.242 938.958 931.039 930.56 947.738C927.854 953.013 925.093 958.216 922.113 963.343Z"/>
	<defs>
		<linearGradient id="gradient_1" gradientUnits="userSpaceOnUse" x1="960.5896" y1="957.36951" x2="946.13824" y2="918.73956">
			<stop offset="0" stop-color="#B39DFF"/>
			<stop offset="1" stop-color="#E6DCFF"/>
		</linearGradient>
	</defs>
	<path fill="url(#gradient_1)" d="M926.006 966.293C940.061 942.64 946.256 914.93 976.529 907.388L977.135 907.239C979.397 908.176 981.579 909.122 983.723 910.316C973.118 910.488 964.716 914.747 957.386 922.309C943.082 937.065 940.864 955.285 930.229 970.581L930.17 970.502C929.809 970.53 929.984 970.549 929.644 970.447L929.73 970.1C928.609 968.598 927.437 967.497 926.006 966.293Z"/>
	<path fill="#C8C1FD" d="M915.628 1012.22C914.583 1012.55 913.755 1012.64 912.662 1012.66C912.714 1009.82 935.47 970.542 938.678 964.312C943.084 955.757 946.569 946.664 951.237 938.262Q954.23 932.819 958.278 928.109C964.887 920.484 972.433 915.869 982.617 915.204C983.055 915.232 983.034 915.214 983.617 915.411C984.969 915.867 985.645 916.633 986.212 917.923C987.161 920.082 986.633 923.365 986.027 925.543C983.459 934.778 978.155 943.619 974.032 952.266C970.777 959.094 967.92 966.105 964.634 972.922C962.936 976.445 961.129 980.118 958.753 983.244C948.817 996.311 930.956 1006.84 915.628 1012.22Z"/>
	<path fill="#C8C1FD" d="M712.357 924.735C713.828 923.592 715.321 922.417 716.983 921.563C722.716 918.616 733.428 916.68 739.533 918.884C741.132 919.461 741.953 920.037 742.659 921.577C741.96 931.565 744.597 943.925 746.764 953.685C735.037 956.723 723.71 959.429 711.504 958.386C710.013 957.326 708.482 956.314 707.179 955.022C711.417 951.404 715.564 947.641 715.963 941.677C716.334 936.126 713.618 930.105 712.357 924.735Z"/>
	<path fill="#000002" d="M742.659 921.577C742.882 921.554 743.106 921.536 743.328 921.509C744.315 921.39 745.23 921.174 746.195 920.945L746.764 921.409C747.924 930.427 748.692 939.889 750.786 948.732C751.804 953.03 754.108 957.011 755.523 961.191C758.174 969.026 763.959 990.883 758.866 997.729C756.42 1001.02 750.863 1001.76 747.025 1002.18C732.343 1003.79 711.176 1000.25 695.856 999.488C683.423 998.869 670.803 1000.21 658.513 997.952C650.886 996.548 642.249 994.006 636.145 989.009C633.764 987.059 631.256 984.237 630.903 981.043C630.598 978.279 631.783 975.861 633.499 973.769C635.925 970.813 639.184 968.64 642.633 967.055C653.969 961.847 666.788 959.869 678.42 955.347C684.612 952.941 695.648 945.414 701.434 944.94C703.9 944.738 706.797 945.449 709.244 945.847C711.078 943.42 711.296 940.929 710.889 937.957C710.329 933.876 708.746 930.017 708.12 925.957C709.65 924.939 710.552 924.756 712.357 924.735C713.618 930.105 716.334 936.126 715.963 941.677C715.564 947.641 711.417 951.404 707.179 955.022C708.482 956.314 710.013 957.326 711.504 958.386C723.71 959.429 735.037 956.723 746.764 953.685C744.597 943.925 741.96 931.565 742.659 921.577ZM701.63 949.36C695.041 953.026 688.554 956.708 681.5 959.429C672.005 963.092 644.932 968.731 638.92 974.763C639.145 976.114 639.382 976.631 640.497 977.484C650.956 985.489 688.931 984.596 702.502 985.285C719.707 986.079 739.082 989.177 755.855 984.81C754.057 975.878 752.413 966.75 749.588 958.073C737.984 961.139 717.084 967.418 705.924 961.338C704.015 960.298 702.592 958.883 701.959 956.768C701.182 954.172 701.424 952.452 702.447 949.986C701.794 949.382 702.107 949.522 701.63 949.36ZM635.736 980.508C638.437 986.091 644.621 988.917 650.212 990.844C655.114 992.533 659.913 993.356 665.067 993.866C674.568 994.805 684.068 994.197 693.581 994.614C704.598 995.098 744.065 1000.2 752.488 996.079C753.546 995.56 754.559 994.81 755.399 993.987C755.899 992.859 756.593 991.739 756.407 990.475C756.099 990.393 740.864 992.007 737.841 991.979C725.369 991.86 712.849 990.649 700.377 990.137C684.948 989.504 668.802 990.283 653.639 987.24C647.154 985.938 641.583 983.551 635.736 980.508Z"/>
	<path fill="#9F8BE8" d="M702.502 985.285C688.931 984.596 650.956 985.489 640.497 977.484C639.382 976.631 639.145 976.114 638.92 974.763C644.932 968.731 672.005 963.092 681.5 959.429C688.554 956.708 695.041 953.026 701.63 949.36C702.107 949.522 701.794 949.382 702.447 949.986C701.424 952.452 701.182 954.172 701.959 956.768C702.592 958.883 704.015 960.298 705.924 961.338C717.084 967.418 737.984 961.139 749.588 958.073C752.413 966.75 754.057 975.878 755.855 984.81C739.082 989.177 719.707 986.079 702.502 985.285Z"/>
	<path fill="#9F8BE8" d="M930.229 970.581C927.158 977.568 922.706 984.185 918.795 990.739C915.825 995.715 913.179 1000.77 910.481 1005.89C909.33 1008.08 908.246 1010.91 905.755 1011.68C904.472 1010.53 904.034 1009.07 903.718 1007.37C903.37 1005.5 903.472 1003.83 904.093 1002.03C906.793 994.219 920.771 974.439 926.006 966.293C927.437 967.497 928.609 968.598 929.73 970.1L929.644 970.447C929.984 970.549 929.809 970.53 930.17 970.502L930.229 970.581Z"/>
	<path fill="#C8C1FD" d="M755.399 993.987C754.559 994.81 753.546 995.56 752.488 996.079C744.065 1000.2 704.598 995.098 693.581 994.614C684.068 994.197 674.568 994.805 665.067 993.866C659.913 993.356 655.114 992.533 650.212 990.844C644.621 988.917 638.437 986.091 635.736 980.508C641.583 983.551 647.154 985.938 653.639 987.24C668.802 990.283 684.948 989.504 700.377 990.137C712.849 990.649 725.369 991.86 737.841 991.979C740.864 992.007 756.099 990.393 756.407 990.475C756.593 991.739 755.899 992.859 755.399 993.987Z"/>
</svg>
