<?xml version="1.0" encoding="utf-8" ?>
<svg xmlns="http://www.w3.org/2000/svg" xmlns:xlink="http://www.w3.org/1999/xlink" width="1024" height="1024">
	<path fill="#9F8BE8" d="M0 0L103.146 0C106.209 17.1495 112.766 34.9518 119.483 50.9775C122.151 57.3423 125.357 63.5942 127.783 70.0373C106.258 75.5678 84.645 80.225 62.9786 85.1379Q31.5505 92.4328 0 99.1783L0 0Z"/>
	<path fill="#5741B9" d="M103.146 0L144.187 0C146.41 5.76471 150.152 11.4469 153.372 16.721C167.164 39.3079 183.935 63.0181 203.231 81.2328C213.161 81.3629 223.14 83.3944 232.967 84.7164C243.275 86.103 253.631 86.9903 263.985 87.9356C255.138 78.197 245.472 69.2512 236.686 59.4508C220.374 41.2557 206.53 21.0238 194.146 0L258.555 0C262.859 5.47469 266.976 11.1244 271.513 16.4099C288.899 36.6679 309.169 55.3198 330.052 71.9368Q341.016 80.6987 352.29 89.0576C356.824 92.4481 361.656 95.6954 365.957 99.3689C373.874 100.841 382.068 101.338 390.084 102.063Q407.982 103.73 425.916 104.952C414.83 96.2385 403.129 88.358 391.945 79.7799C365.197 59.2651 329.442 28.3353 311.605 0L353.439 0C384.512 37.9116 423.653 67.6728 463.845 95.2506C469.677 99.2521 481.343 108.097 487.088 110.501C489.059 111.326 491.208 111.565 493.319 111.77C513.812 113.757 538.137 115.964 558.55 116.026C510.233 87.4977 435.756 44.1136 402.329 0L438.391 0C476.507 38.9318 518.678 67.3354 566.418 93.2276C579.49 100.317 592.639 107.466 606.162 113.668C615.392 117.902 625.432 121.326 634.304 126.212C636.862 127.621 639.13 129.423 640.86 131.794L641.035 173.724C641.059 180.06 641.957 187.94 640.686 194.116C640.364 195.681 639.009 197.279 637.878 198.357C632.029 203.937 621.516 206.243 613.636 205.893C602.608 205.403 593.436 200.775 585.761 193.05C580.134 200.415 574.767 203.728 566.178 207.043L566.234 382.18C566.273 407.563 565.367 433.181 566.536 458.532C569.632 458.508 573.948 457.938 576.491 460.072C577.099 460.583 577.306 461.114 577.415 461.881C578.086 466.604 577.598 471.956 577.595 476.761Q577.626 492.801 577.415 508.839L576.561 609.719C576.511 626.263 577.26 643.182 576.414 659.682C576.282 662.251 576.056 666.087 574.747 668.325C569.113 671.772 540.754 675.114 532.395 676.498L469.023 687.006C452.864 689.54 436.214 691.566 420.258 695.147C419.74 692.466 418.805 689.728 418.079 687.086C424.142 686.542 430.424 685.02 436.417 683.89L436.483 514.901C426.27 515.801 409.08 516.398 399.807 518.681Q399.922 513.849 400.176 509.023L400.74 508.523C402.682 509.375 552.73 498.315 569.178 496.963Q569.319 481.835 569.11 466.707C556.866 466.38 543.226 468.478 530.782 469.118L449.481 473.438C433.169 474.453 416.77 476.21 400.442 476.576C401.253 473.863 401.317 470.821 401.552 468.007C413.748 467.897 426.063 466.336 438.251 465.604L494.836 462.744C507.93 462.022 521.112 460.83 534.209 460.42L534 293.674L533.856 234.762C533.807 224.284 533.997 213.724 533.584 203.256C529.18 200.935 525.521 197.884 521.783 194.625C516.057 202.126 509.978 207.371 500.227 208.61C490.946 209.79 480.3 207.207 472.88 201.406C469.199 198.529 466.792 195.02 464.572 190.972Q464.043 191.781 463.474 192.564Q462.906 193.347 462.3 194.1Q461.694 194.854 461.051 195.578Q460.409 196.301 459.732 196.992Q459.056 197.683 458.346 198.34Q457.636 198.997 456.895 199.618Q456.154 200.24 455.383 200.824Q454.612 201.409 453.814 201.955Q453.016 202.501 452.191 203.007Q451.367 203.514 450.519 203.979Q449.672 204.444 448.802 204.868Q447.932 205.291 447.043 205.671Q446.154 206.051 445.247 206.388Q444.34 206.724 443.417 207.016Q442.495 207.307 441.56 207.553Q440.624 207.799 439.678 207.999C426.627 210.737 417.129 206.43 406.45 199.391C389.534 203.477 372.526 206.72 355.484 210.212L310.386 219.729L137.972 255.78C137.977 264.199 136.951 308.775 138.765 312.665C141.2 312.084 144.624 308.091 146.759 306.471C160.205 296.267 176.642 294.922 191.169 303.824Q191.889 304.261 192.586 304.733Q193.283 305.205 193.956 305.711Q194.63 306.216 195.277 306.755Q195.924 307.294 196.543 307.864Q197.163 308.434 197.754 309.034Q198.344 309.634 198.904 310.263Q199.464 310.892 199.993 311.547Q200.521 312.203 201.016 312.884Q201.511 313.565 201.972 314.27Q202.432 314.975 202.857 315.701Q203.283 316.428 203.671 317.175Q204.06 317.922 204.411 318.687Q204.762 319.453 205.075 320.234Q205.387 321.016 205.661 321.812Q205.934 322.609 206.168 323.418Q206.402 324.227 206.595 325.046C208.803 334.448 206.975 344.038 201.771 352.153C196.411 360.508 188.818 364.272 179.61 367.15C194.925 376.793 203.949 387.952 208.063 405.809C211.347 420.064 212.628 434.503 214.166 449.018C215.127 458.086 216.526 467.451 216.56 476.572C230.719 476.361 244.595 474.981 258.683 473.826C256.947 477.126 254.761 480.551 253.354 483.981Q208.363 487.041 163.31 489.008C152.738 489.482 141.986 490.494 131.42 490.509C132.143 502.809 131.497 515.119 131.93 527.417C153.407 526.971 174.889 525.26 196.332 524.014C209.334 523.259 222.822 523.476 235.675 521.481Q233.773 525.983 231.961 530.522C227.559 529.24 196.147 532.412 189.242 532.899C190.032 596.729 188.179 660.596 189.444 724.414C203.825 722.038 218.34 719.301 232.843 717.832Q232.524 661.852 232.84 605.874C232.889 590.007 231.528 573.527 232.863 557.734C235.336 562.245 238.572 566.208 241.212 570.59C241.774 590.391 241.349 610.307 241.355 630.119C241.365 658.715 241.581 687.343 241.144 715.935C248.17 714.917 255.264 714.052 262.254 712.823C261.454 715.641 260.367 718.598 259.825 721.464C256.749 720.814 242.079 724.441 238.143 725.08C219.853 728.05 201.524 730.726 183.255 733.842C164.687 737.009 145.752 740.73 127.034 742.731C117.769 743.722 93.0983 738.602 82.232 737.113C54.8394 733.36 27.3207 730.377 0 726.104L0 717.876C5.42474 719.171 11.3609 719.779 16.9141 720.25C18.4097 697.094 17.4589 673.37 17.4713 650.157C17.4914 612.623 17.808 574.96 17.1327 537.435Q8.56662 537.542 0 537.506L0 529.439C41.0597 529.47 82.1586 528.161 123.229 527.984C123.615 515.611 123.284 503.134 123.259 490.751C114.871 490.594 106.393 491.017 97.9942 491.106C65.3317 491.448 32.6599 492.733 0 492.467L0 484.065L49.0725 483.549C49.9654 482.972 51.3984 482.176 51.8226 481.137C52.9547 478.366 52.0489 467.442 52.1815 463.893C53.0421 440.868 59.9754 408.912 72.1617 389.311C79.6473 377.271 90.4702 366.738 104.615 363.396L104.817 261.413L0 283.424L0 154.83C6.50015 157.241 12.6587 158.161 19.5001 156.418C26.2145 154.708 31.3111 151.34 34.8886 145.388C35.2768 129.985 35.0963 114.397 34.8334 98.9912Q17.4769 103.2 0 106.877L0 99.1783Q31.5504 92.4328 62.9786 85.1379C84.645 80.225 106.258 75.5678 127.783 70.0373C125.357 63.5942 122.151 57.3423 119.483 50.9775C112.766 34.9518 106.209 17.1495 103.146 0ZM126.974 80.2291C111.144 83.3929 95.5118 87.4603 79.6085 90.2833C79.9106 102.083 79.6705 113.904 79.5896 125.706C79.5492 131.6 79.2407 137.654 79.7154 143.524C80.805 145.432 81.8033 146.932 83.4268 148.424C88.9945 151.405 93.9157 151.422 99.8949 149.575C110.468 146.308 120.667 139.627 127.552 130.941L127.522 95.0244C127.517 90.808 128.31 84.5466 127.263 80.6077L126.957 80.7351L126.974 80.2291ZM136.017 80.2312C136.103 98.9076 135.134 118.727 136.384 137.242C142.39 146.633 155.039 156.294 166.014 158.769C171.267 159.955 176.996 159.747 181.674 156.811C182.451 156.323 183.174 155.744 183.884 155.164C185.718 152.88 186.752 151.19 187.272 148.282C188.659 140.518 187.903 131.94 187.884 124.033Q187.797 105.607 188.039 87.1821C170.861 84.6824 153.318 81.5589 136.017 80.2312ZM231.088 92.4393L231.109 130.099C231.094 136.85 230.031 149.04 231.796 155.22C232.682 158.319 235.177 161.584 237.464 163.806C243.038 169.222 252.014 172.81 259.793 172.571C266.067 172.379 272.254 169.662 277.227 165.92C284.909 158.184 283.55 151.45 283.514 141.349Q283.358 120.292 283.459 99.2345C273.777 97.6243 263.857 96.9954 254.109 95.7956C246.423 94.8497 238.768 93.2804 231.088 92.4393ZM324.576 104.48L324.88 149.263C324.886 156.702 323.932 165.659 325.245 172.933C325.77 175.846 327.466 178.39 329.498 180.486C335.412 186.587 344.431 190.511 352.912 190.532C360.641 190.55 367.62 187.924 373.731 183.282C378.892 178.406 379.849 174.741 380.019 167.848C380.493 148.684 380.068 129.353 379.924 110.176L342.666 106.425C336.671 105.797 330.583 104.802 324.576 104.48ZM403.887 111.996C404.333 127.462 404.021 142.991 403.965 158.464C403.939 165.58 402.958 174.123 404.5 181.054C405.311 184.699 408.884 189.094 411.551 191.648C416.815 196.687 424.894 200.493 432.224 200.266C439.68 200.035 447.364 197.221 452.737 191.968C457.936 186.589 461.58 182.223 461.46 174.339Q460.77 145.99 460.982 117.634L403.887 111.996ZM526.18 122.183C526.075 142.871 525.716 163.623 526.018 184.306C530.761 191.923 538.658 197.975 547.503 199.914C554.866 201.528 563.957 200.355 570.3 196.173C571.232 195.558 572.11 194.852 572.978 194.15C576.087 191.451 578.436 188.957 580.459 185.296Q580.694 155.971 580.514 126.645C562.36 126.133 544.273 123.603 526.18 122.183ZM129.755 140.337C123.95 145.793 118.392 149.755 111.164 153.104C111.691 164.647 111.478 176.259 111.493 187.814L111.556 245.311L112.066 411.139C112.074 420.918 111.065 478.352 112.66 481.959L114.08 482.309C117.859 482.24 125.768 483.304 128.742 480.829C128.991 480.622 129.19 480.36 129.414 480.126C130.082 481.237 129.823 480.658 130.203 481.858L130.563 482.063C131.524 480.838 131.21 477.898 131.221 476.346L130.598 251.15L130.448 168.268C130.444 164.022 131.149 144.414 130.477 141.487C130.361 140.983 130.118 140.669 129.755 140.337ZM542.842 207.289L543.222 460.081C547.778 459.83 552.345 459.542 556.909 459.448L557.388 285.304C557.375 259.949 557.797 234.511 557.295 209.166C552.451 208.672 547.67 207.867 542.842 207.289ZM561.058 505.289C553.46 506.004 544.877 505.968 537.502 507.723L537.523 610.468C537.533 629.51 537.24 648.612 537.683 667.647L543.889 666.394C551.701 664.901 559.592 663.154 567.5 662.304L567.687 563.552C567.799 544.024 568.28 524.438 568.007 504.917C565.698 505.03 563.358 505.068 561.058 505.289ZM519.202 508.777L493.995 510.591L494.06 674.249C497.145 673.738 500.271 673.089 503.377 672.76C511.984 671.508 520.609 670.226 529.189 668.798Q528.857 614.988 529.339 561.18C529.387 543.623 530.059 525.75 529.175 508.236C525.872 508.388 522.482 508.397 519.202 508.777ZM479.745 511.701C473.02 512.231 451.301 512.596 446.126 515.078C445.307 516.412 445.323 518.073 445.267 519.602C444.567 538.67 445.269 558.067 445.318 577.164L445.621 682.761L451.892 681.537Q468.682 678.511 485.501 675.656C486.269 651.724 485.823 627.65 485.799 603.706L485.824 511.292C483.857 511.415 481.673 511.356 479.745 511.701ZM168.855 533.717C156.453 534.697 143.604 535.984 131.195 536.021C132.122 601.882 131.077 667.791 131.421 733.661C135.391 732.954 139.573 731.881 143.577 731.567C155.896 729.539 168.657 728.428 180.842 725.871L180.847 533.194C176.949 533.403 172.686 533.186 168.855 533.717ZM107.309 536.281C99.0544 536.602 90.8008 536.45 82.5508 536.701C83.0109 600.778 82.1427 664.91 82.9868 728.974C88.537 729.655 94.1226 730.236 99.6383 731.158C107.263 732.333 115.051 733.642 122.752 734.125C123.784 706.775 123.048 679.134 123.075 651.753C123.112 613.204 123.571 574.55 122.912 536.013C117.702 536.009 112.514 536.01 107.309 536.281ZM51.5031 536.741Q38.7581 537.147 26.0073 537.023L25.6497 721.52C34.383 722.495 43.2353 723.342 51.8858 724.911C59.3623 725.85 66.8633 726.938 74.3736 727.546C74.833 703.358 74.4917 679.113 74.4835 654.92L74.4904 536.51Q62.9949 536.441 51.5031 536.741Z"/>
	<path fill="#9F8BE8" d="M144.187 0L194.146 0C206.53 21.0238 220.374 41.2557 236.686 59.4508C245.472 69.2512 255.138 78.197 263.985 87.9356C253.631 86.9903 243.275 86.103 232.967 84.7164C223.14 83.3944 213.161 81.3629 203.231 81.2328C183.935 63.0181 167.164 39.3079 153.372 16.721C150.152 11.4469 146.41 5.76471 144.187 0Z"/>
	<path fill="#9F8BE8" d="M258.555 0L311.605 0C329.442 28.3353 365.197 59.2651 391.945 79.7799C403.129 88.358 414.83 96.2385 425.916 104.952Q407.982 103.73 390.084 102.063C382.068 101.338 373.874 100.841 365.957 99.3689C361.656 95.6954 356.824 92.4481 352.29 89.0576Q341.016 80.6987 330.052 71.9368C309.169 55.3198 288.899 36.6679 271.513 16.4099C266.976 11.1244 262.859 5.47469 258.555 0Z"/>
	<path fill="#9F8BE8" d="M353.439 0L402.329 0C435.756 44.1136 510.233 87.4977 558.55 116.026C538.137 115.964 513.812 113.757 493.319 111.77C491.208 111.565 489.059 111.326 487.088 110.501C481.343 108.097 469.677 99.2521 463.845 95.2506C423.653 67.6728 384.512 37.9116 353.439 0Z"/>
	<path fill="#9F8BE8" d="M438.391 0L1024 0L1024 207.975C1008.22 197.704 991.042 189.904 974.971 180.208C943.573 196.559 913.006 214.54 881.9 231.43C869.54 238.142 856.899 244.366 844.552 251.129C838.223 254.596 831.627 258.012 825.861 262.381L826.179 262.155C828.102 279.814 825.545 298.747 826.508 316.594C829.239 320.11 832.791 322.439 837.291 322.96C841.869 323.49 846.809 321.99 850.372 319.07Q852.302 317.458 854.126 315.728C854.752 361.785 854.512 407.977 854.328 454.045C849.829 453.949 841.782 452.818 838.294 456.108C835.832 458.431 836.266 466.723 836.257 469.986L836.128 529.935C836.042 543.191 835.599 556.563 835.986 569.813C842.64 571.706 849.726 572.552 856.542 573.716L896.626 580.364Q960.236 591.854 1024 602.45L1024 1024L0 1024L0 726.104C27.3207 730.377 54.8394 733.36 82.232 737.113C93.0983 738.602 117.769 743.722 127.034 742.731C145.752 740.73 164.687 737.009 183.255 733.842C201.524 730.726 219.853 728.05 238.143 725.08C242.079 724.441 256.749 720.814 259.825 721.464C256.426 732.243 252.922 742.77 247.693 752.851C239.864 767.948 226.643 780.851 217.833 796.137C209.553 810.501 202.929 826.027 195.699 840.949C192.741 847.055 189.685 854.486 185.765 859.959C184.026 860.237 182.397 860.395 181.056 861.669C177.861 864.704 172.017 876.047 172.477 880.43C172.726 882.796 175.783 884.86 177.453 886.298C175.077 889.596 173.488 893.483 171.554 897.046C170.092 899.74 164.632 910.086 162.348 911.462C161.39 912.04 159.025 912.141 157.829 912.553C150.967 914.918 141.302 937.339 138.085 943.827L139.869 946.57C146.249 956.434 173.056 966.578 184.642 970.074C197.508 973.956 223.578 979.644 235.546 972.857Q236.184 972.496 236.782 972.072Q237.38 971.649 237.933 971.167Q238.486 970.686 238.987 970.152Q239.489 969.618 239.935 969.036Q240.381 968.454 240.766 967.831Q241.151 967.207 241.472 966.548Q241.793 965.889 242.046 965.202Q242.299 964.514 242.482 963.804C245.677 950.995 225.299 949.459 217.919 942.523C212.433 937.368 210.766 930.602 206.77 924.559C205.091 922.02 203.625 921.63 200.755 921.033C202.809 918.325 207.118 909.207 209.875 908.186C210.723 907.871 212.283 908.139 213.183 908.189C215.567 908.321 217.806 908.495 220.07 907.549C226.21 904.984 233.737 890.504 237.704 884.749C239.785 881.73 242.136 878.883 244.416 876.013C259.525 856.994 274.385 837.696 289.822 818.948C299.43 807.278 310.547 796.29 318.731 783.565C328.451 768.451 334.203 750.976 341.132 734.493C348.699 746.651 357.761 761.802 362.756 775.158C364.858 780.779 365.516 786.745 366.474 792.638C367.86 801.17 369.261 809.962 371.738 818.257C376.452 834.045 384.654 848.024 392.43 862.403C394.699 866.6 396.571 871.022 398.926 875.169C400.783 878.439 403.004 881.509 404.792 884.813C407.608 890.018 408.837 900.174 414.392 903.375C416.513 904.598 420.823 903.356 423.132 902.955C427.753 913.069 430.134 924.414 434.235 934.81C433.856 936.586 433.345 938.511 433.309 940.33C433.154 948.066 438.603 958.162 444.083 963.407C447.606 966.779 451.904 969.605 456.974 969.351C459.783 969.21 462.491 968.189 464.981 966.935C473.976 962.404 482.229 955.759 490.391 949.904C501.682 941.806 513.145 933.962 523.696 924.883Q531.191 918.377 537.778 910.953C541.176 907.187 549.136 899.163 548.303 893.711C547.953 891.424 545.997 889.197 544.063 888.049C532.968 881.465 509.177 897.398 497.405 900.332C491.604 901.777 470.069 905.027 465.054 902.018C462.895 898.134 461.902 893.157 460.852 888.843C462.434 887.875 464.953 886.6 465.967 885.045C467.08 883.336 466.743 881.119 466.436 879.194C465.533 873.521 461.987 869.053 460.2 863.72C457.573 855.877 455.934 847.408 454.034 839.351C449.183 818.782 444.949 797.923 440.893 777.177C438.643 765.669 436.838 753.861 433.98 742.499C429.997 726.665 423.351 711.162 420.258 695.147C436.214 691.566 452.864 689.54 469.023 687.006L532.395 676.498C540.754 675.114 569.113 671.772 574.747 668.325C576.056 666.087 576.282 662.251 576.414 659.682C577.26 643.182 576.511 626.263 576.561 609.719L577.415 508.839Q577.626 492.801 577.595 476.761C577.598 471.956 578.086 466.604 577.415 461.881C577.306 461.114 577.099 460.583 576.491 460.072C573.948 457.938 569.632 458.508 566.536 458.532C565.367 433.181 566.273 407.563 566.234 382.18L566.178 207.043C574.767 203.728 580.134 200.415 585.761 193.05C593.436 200.775 602.608 205.403 613.636 205.893C621.516 206.243 632.029 203.937 637.878 198.357C639.009 197.279 640.364 195.681 640.686 194.116C641.957 187.94 641.059 180.06 641.035 173.724L640.86 131.794C639.13 129.423 636.862 127.621 634.304 126.212C625.432 121.326 615.392 117.902 606.162 113.668C592.639 107.466 579.49 100.317 566.418 93.2276C518.678 67.3354 476.507 38.9318 438.391 0ZM738.501 243.631C726.012 246.688 715.06 252.298 708.144 263.587C701.428 274.55 701.406 286.721 704.416 298.891C705.147 301.843 706.109 304.732 707.007 307.635C699.178 307.104 691.189 306.77 684.939 312.452C679.868 317.063 680.147 324.304 679.767 324.706C679.003 325.515 676.612 326.116 675.581 326.61C670.548 329.021 668.02 335.074 667.973 340.372C667.922 346.062 669.971 351.029 672.026 356.224C666.273 360.351 661.222 364.735 659.946 372.114C658.864 378.367 660.245 386.004 663.951 391.158C665.502 393.315 667.695 395.076 669.866 396.583C665.094 403.109 661.218 410.348 657.056 417.275C647.289 433.53 637.967 449.76 629.327 466.65C625.609 473.919 622.451 481.636 618.441 488.725C616.634 491.921 613.58 493.772 611.576 496.744C604.79 506.805 598.67 517.386 592.017 527.554C590.263 530.234 580.482 543.801 580.22 545.885C580.156 546.397 580.375 546.906 580.452 547.417C582.038 549.818 584.369 551.105 586.844 552.464C584.963 560.309 580.033 573.783 579.676 581.194C579.574 583.314 579.953 585.165 581.054 586.99C587.629 597.88 616.492 606.721 628.768 609.339C638.095 611.328 647.393 612.06 656.914 611.794L666.105 667.287C667.554 676.146 667.839 687.031 671.215 695.301C682.28 701.647 694.965 705.332 706.254 711.43C701.779 738.988 690.731 764.944 680.716 790.837Q662.431 837.848 642.254 884.078C639.736 889.7 637.226 895.382 634.398 900.854C629.379 910.566 614.258 935.071 613.744 944.595C613.687 945.662 613.915 946.632 614.51 947.527C620.794 956.972 665.862 968.437 678.218 970.351C687.964 971.86 711.158 974.001 719.118 967.792C721.285 966.102 723.148 963.369 723.305 960.568C723.455 957.876 721.893 955.37 720.102 953.487C713.257 946.288 702.07 945.715 694.311 939.822C683.048 931.267 677.9 919.765 668.623 909.627C687.255 882.642 702.389 853.272 720.431 825.902C733.508 804.056 746.148 782.635 754.734 758.524Q761.061 810.814 764.939 863.343C766.272 881.067 768.003 898.943 767.998 916.724C767.996 923.271 765.666 930.162 765.087 936.759C764.422 944.334 765.467 952.033 765.003 959.674C768.723 960.456 772.403 961.171 776.207 961.364C794.512 962.294 813.581 961.001 831.877 960.101C840.051 959.7 848.384 959.863 856.496 958.687C860.031 958.174 863.905 957.395 866.955 955.469C869.61 953.792 871.729 951.257 872.442 948.154C873.136 945.132 872.374 941.845 870.692 939.27C866.756 933.246 858.763 931.647 852.169 930.48C848.561 929.841 844.862 929.467 841.302 928.616C833.403 920.526 821.34 918.76 812.33 912.713C808.367 910.053 805.465 905.328 801.882 902.082C806.404 861.006 808.093 818.263 808.985 776.963C809.372 759.023 810.787 740.341 808.926 722.477L812.824 718.433C810.68 683.849 806.184 649.579 801.121 615.317C799.065 601.402 797.122 583.233 792.688 570.128C794.444 565.674 793.485 559.833 793.082 555.114C798.296 559.477 807.411 570.819 814.202 570.28C818.372 569.949 822.773 567.34 825.372 564.117C827.802 561.104 829.029 557.367 828.496 553.513C827.974 549.739 826.413 546.631 823.336 544.317C818.672 540.81 812.302 539.817 808.127 535.7C801.715 529.377 785.262 487.025 780.199 476.161C783.09 470.944 785.218 465.294 787.508 459.796C792.681 447.377 798.007 436.052 794.154 422.431C787.685 399.561 774.454 378.272 763.038 357.646C764.405 351.844 765.514 345.835 767.176 340.121C772.36 341.772 779.06 343.691 784.254 341.1C787.057 339.702 788.751 337.073 789.579 334.125C790.615 330.433 790.505 326.09 790.162 322.286C792.449 319.223 792.721 318.367 792.239 314.578C794.123 310.332 800.624 311.731 798.129 305.05C796.627 301.028 792.073 298.842 790.89 294.457C789.635 289.801 792.05 284.549 791.706 279.767C790.738 266.31 776.958 251.618 764.919 246.758C756.16 243.222 747.797 243.182 738.501 243.631Z"/>
	<path fill="#9F8BE8" d="M79.6085 90.2833C95.5118 87.4603 111.144 83.3929 126.974 80.2291L126.957 80.7351L127.263 80.6077C128.31 84.5466 127.517 90.808 127.522 95.0244L127.552 130.941C120.667 139.627 110.468 146.308 99.8949 149.575C93.9157 151.422 88.9945 151.405 83.4268 148.424C81.8033 146.932 80.805 145.432 79.7154 143.524C79.2407 137.654 79.5492 131.6 79.5896 125.706C79.6705 113.904 79.9106 102.083 79.6085 90.2833Z"/>
	<path fill="#9F8BE8" d="M136.384 137.242C135.134 118.727 136.103 98.9076 136.017 80.2312C153.318 81.5589 170.861 84.6824 188.039 87.1821Q187.797 105.607 187.884 124.033C187.903 131.94 188.659 140.518 187.272 148.282C186.752 151.19 185.718 152.88 183.884 155.164C183.174 155.744 182.451 156.323 181.674 156.811C176.996 159.747 171.267 159.955 166.014 158.769C155.039 156.294 142.39 146.633 136.384 137.242Z"/>
	<path fill="#9F8BE8" d="M277.227 165.92C272.254 169.662 266.067 172.379 259.793 172.571C252.014 172.81 243.038 169.222 237.464 163.806C235.177 161.584 232.682 158.319 231.796 155.22C230.031 149.04 231.094 136.85 231.109 130.099L231.088 92.4393C238.768 93.2804 246.423 94.8497 254.109 95.7956C263.857 96.9954 273.777 97.6243 283.459 99.2345Q283.358 120.292 283.514 141.349C283.55 151.45 284.909 158.184 277.227 165.92Z"/>
	<path fill="#9F8BE8" d="M0 106.877Q17.4769 103.2 34.8334 98.9912C35.0963 114.397 35.2768 129.985 34.8886 145.388C31.3111 151.34 26.2145 154.708 19.5001 156.418C12.6587 158.161 6.50015 157.241 0 154.83L0 106.877Z"/>
	<path fill="#9F8BE8" d="M373.731 183.282C367.62 187.924 360.641 190.55 352.912 190.532C344.431 190.511 335.412 186.587 329.498 180.486C327.466 178.39 325.77 175.846 325.245 172.933C323.932 165.659 324.886 156.702 324.88 149.263L324.576 104.48C330.583 104.802 336.671 105.797 342.666 106.425L379.924 110.176C380.068 129.353 380.493 148.684 380.019 167.848C379.849 174.741 378.892 178.406 373.731 183.282Z"/>
	<path fill="#9F8BE8" d="M452.737 191.968C447.364 197.221 439.68 200.035 432.224 200.266C424.894 200.493 416.815 196.687 411.551 191.648C408.884 189.094 405.311 184.699 404.5 181.054C402.958 174.123 403.939 165.58 403.965 158.464C404.021 142.991 404.333 127.462 403.887 111.996L460.982 117.634Q460.77 145.99 461.46 174.339C461.58 182.223 457.936 186.589 452.737 191.968Z"/>
	<path fill="#9F8BE8" d="M526.018 184.306C525.716 163.623 526.075 142.871 526.18 122.183C544.273 123.603 562.36 126.133 580.514 126.645Q580.694 155.971 580.459 185.296C578.436 188.957 576.087 191.451 572.978 194.15C572.11 194.852 571.232 195.558 570.3 196.173C563.957 200.355 554.866 201.528 547.503 199.914C538.658 197.975 530.761 191.923 526.018 184.306Z"/>
	<path fill="#9F8BE8" d="M111.164 153.104C118.392 149.755 123.95 145.793 129.755 140.337C130.118 140.669 130.361 140.983 130.477 141.487C131.149 144.414 130.444 164.022 130.448 168.268L130.598 251.15L131.221 476.346C131.21 477.898 131.524 480.838 130.563 482.063L130.203 481.858C129.823 480.658 130.082 481.237 129.414 480.126C129.19 480.36 128.991 480.622 128.742 480.829C125.768 483.304 117.859 482.24 114.08 482.309L112.66 481.959C111.065 478.352 112.074 420.918 112.066 411.139L111.556 245.311L111.493 187.814C111.478 176.259 111.691 164.647 111.164 153.104Z"/>
	<path fill="#5741B9" d="M974.971 180.208C991.042 189.904 1008.22 197.704 1024 207.975L1024 238.206C1015.5 240.491 1006.76 242.071 998.072 243.455L998.175 270.106C998.2 276.103 997.945 282.214 998.741 288.168C1001.5 291.618 1004.63 294.717 1009.29 295.182C1012.45 295.497 1015.35 294.292 1017.71 292.25C1020.64 289.726 1022.67 286.041 1024 282.452L1024 301.653C1021.4 302.886 1019.02 304.332 1016.58 305.848L1016.55 430.815C1019.72 436.249 1021.19 442.099 1024 447.576L1024 602.45Q960.236 591.854 896.626 580.364L856.542 573.716C849.726 572.552 842.64 571.706 835.986 569.813C835.599 556.563 836.042 543.191 836.128 529.935L836.257 469.986C836.266 466.723 835.832 458.431 838.294 456.108C841.782 452.818 849.829 453.949 854.328 454.045C854.512 407.977 854.752 361.785 854.126 315.728Q852.302 317.458 850.372 319.07C846.809 321.99 841.869 323.49 837.291 322.96C832.791 322.439 829.239 320.11 826.508 316.594C825.545 298.747 828.102 279.814 826.179 262.155L825.861 262.381C831.627 258.012 838.223 254.596 844.552 251.129C856.899 244.366 869.54 238.142 881.9 231.43C913.006 214.54 943.573 196.559 974.971 180.208ZM951.745 249.736C943.846 250.945 935.708 251.994 927.947 253.89C928.548 263.485 928.197 273.119 928.082 282.726C928.03 287.066 927.346 292.65 928.323 296.825C928.696 298.422 929.94 299.408 931.13 300.44C931.404 300.677 931.685 300.908 931.971 301.13C935.571 302.942 940.546 304.058 944.469 302.682C947.688 301.552 950.175 298.849 951.549 295.778C952.462 293.735 952.814 291.63 952.965 289.412C953.224 285.609 953.338 251.803 952.546 250.11C952.486 249.982 952.393 249.873 952.317 249.755L951.745 249.736ZM883.865 260.19Q873.302 261.679 862.853 263.828C863.385 269.196 863.946 274.545 864.031 279.943C864.141 286.95 862.839 299.515 864.55 305.803C864.939 307.231 865.665 308.129 866.79 309.055C867.519 309.655 868.273 310.191 869.074 310.689C873.044 311.929 876.682 312.493 880.567 310.581C883.383 309.195 885.728 306.726 887.461 304.145Q887.648 289.713 887.569 275.28C887.565 270.504 888.085 265.027 887.194 260.359C885.878 259.916 885.197 259.99 883.865 260.19ZM991.988 299.79C988.398 304.561 984.214 307.707 978.144 308.582C973.213 309.293 967.991 308.193 964.017 305.107C962.782 304.147 961.659 302.968 960.562 301.86C956.741 307.882 952.078 312.385 944.856 313.947C938.849 315.247 933.322 314.01 928.22 310.666C926.458 309.511 925.001 308.069 923.57 306.537C919.956 311.708 914.787 315.382 908.474 316.453C902.478 317.47 897.073 315.71 892.077 312.474C888.534 317.505 884.444 321.283 878.168 322.447Q877.208 322.618 876.238 322.713Q875.267 322.807 874.292 322.824Q873.317 322.841 872.344 322.781Q871.371 322.72 870.406 322.582Q869.441 322.445 868.489 322.231Q867.538 322.017 866.607 321.728Q865.675 321.439 864.77 321.077Q863.865 320.715 862.991 320.282L863.389 397.154C863.39 416.108 863.001 435.159 863.488 454.102Q892.43 453.82 921.374 453.876C923.771 443.804 924.659 433.682 928.269 423.877C932.977 412.083 939.591 400.308 951.765 394.988C955.714 393.262 959.952 392.282 963.928 390.647C963.806 390.47 963.686 390.291 963.561 390.116C956.139 379.655 944.628 377.773 947.112 361.472C948.097 355.009 952.292 348.698 957.648 345.043C963.235 341.231 970.649 339.845 977.268 341.182C983.926 342.528 989.896 346.928 993.51 352.624C997.263 358.538 998.474 365.092 996.843 371.919C994.982 379.709 990.136 384.731 984.075 389.477C997.342 395.719 1001.14 400.392 1008.53 412.714C1009.15 377.613 1009.58 342.26 1008.85 307.162C1001.81 306.836 998.097 304.812 992.788 300.346C992.252 299.895 992.497 300.053 991.988 299.79Z"/>
	<path fill="#9F8BE8" d="M267.896 401.646C258.144 405.391 249.221 411.733 244.871 421.559C241.642 428.853 241.145 437.926 244.106 445.375C247.661 454.319 254.559 459.366 262.826 463.575C263.589 463.963 263.307 463.767 263.884 464.391C262.193 467.558 260.539 470.751 258.683 473.826C244.595 474.981 230.719 476.361 216.56 476.572C216.526 467.451 215.127 458.086 214.166 449.018C212.628 434.503 211.347 420.064 208.063 405.809C203.949 387.952 194.925 376.793 179.61 367.15C188.818 364.272 196.411 360.508 201.771 352.153C206.975 344.038 208.803 334.448 206.595 325.046Q206.402 324.227 206.168 323.418Q205.934 322.609 205.661 321.812Q205.387 321.016 205.075 320.234Q204.762 319.453 204.411 318.687Q204.06 317.922 203.671 317.175Q203.283 316.428 202.857 315.701Q202.432 314.975 201.972 314.27Q201.511 313.565 201.016 312.884Q200.521 312.203 199.993 311.547Q199.464 310.892 198.904 310.263Q198.344 309.634 197.754 309.034Q197.163 308.434 196.543 307.864Q195.924 307.294 195.277 306.755Q194.63 306.216 193.956 305.711Q193.283 305.205 192.586 304.733Q191.889 304.261 191.169 303.824C176.642 294.922 160.205 296.267 146.759 306.471C144.624 308.091 141.2 312.084 138.765 312.665C136.951 308.775 137.977 264.199 137.972 255.78L310.386 219.729L355.484 210.212C372.526 206.72 389.534 203.477 406.45 199.391C417.129 206.43 426.627 210.737 439.678 207.999Q440.624 207.799 441.56 207.553Q442.495 207.307 443.417 207.016Q444.34 206.724 445.247 206.388Q446.154 206.051 447.043 205.671Q447.932 205.291 448.802 204.868Q449.672 204.444 450.519 203.979Q451.367 203.514 452.191 203.007Q453.016 202.501 453.814 201.955Q454.612 201.409 455.383 200.824Q456.154 200.24 456.895 199.618Q457.636 198.997 458.346 198.34Q459.056 197.683 459.732 196.992Q460.409 196.301 461.051 195.578Q461.694 194.854 462.3 194.1Q462.906 193.347 463.474 192.564Q464.043 191.781 464.572 190.972C466.792 195.02 469.199 198.529 472.88 201.406C480.3 207.207 490.946 209.79 500.227 208.61C509.978 207.371 516.057 202.126 521.783 194.625C525.521 197.884 529.18 200.935 533.584 203.256C533.997 213.724 533.807 224.284 533.856 234.762L534 293.674L534.209 460.42C521.112 460.83 507.93 462.022 494.836 462.744L438.251 465.604C426.063 466.336 413.748 467.897 401.552 468.007C401.615 463.093 401.959 458.181 402.013 453.26C402.175 438.526 400.247 392.576 390.226 382.344C393.127 376.513 395.576 370.401 398.289 364.473C403.492 364.641 408.778 364.553 413.251 361.465C414.89 360.333 416.206 358.81 416.545 356.798C417.047 353.813 415.782 351.904 414.084 349.582Q414.767 348.435 415.378 347.249C417.911 342.254 414.43 335.897 412.811 331C415.029 329.045 418.454 326.506 418.8 323.39C419.318 318.727 412.128 315.732 409.147 313.166C407.566 311.805 406.283 310.037 405.009 308.394C404.991 308.165 404.971 307.936 404.956 307.707C404.469 300.308 400.561 294.327 397.033 288.022C397.769 286.515 398.335 284.846 398.609 283.19C399.142 279.971 398.644 277.028 396.668 274.383C391.936 268.048 381.779 265.37 374.321 264.471C362.967 263.101 349.606 263.468 339.378 269.205C335.765 271.232 332.572 274.007 328.921 275.953C324.931 278.079 320.341 278.661 316.763 281.621C313.165 284.599 312.062 288.887 309.444 292.544C306.962 296.011 303.537 298.786 301.496 302.589Q301.061 303.396 300.718 304.246Q300.375 305.096 300.129 305.979Q299.883 306.862 299.737 307.767Q299.591 308.672 299.546 309.587C298.889 322.221 307.023 334.278 316.607 341.763C320.794 345.034 325.539 347.589 329.609 351.015C333.125 353.974 335.982 358.13 339.096 361.543L337 361.58C333.78 361.616 330.803 362.093 327.655 362.758C309.679 366.554 290.269 371.778 278.089 386.477C274.253 391.105 271.19 396.611 267.896 401.646Z"/>
	<path fill="#9F8BE8" d="M543.222 460.081L542.842 207.289C547.67 207.867 552.451 208.672 557.295 209.166C557.797 234.511 557.375 259.949 557.388 285.304L556.909 459.448C552.345 459.542 547.778 459.83 543.222 460.081Z"/>
	<path fill="#9F8BE8" d="M998.072 243.455C1006.76 242.071 1015.5 240.491 1024 238.206L1024 282.452C1022.67 286.041 1020.64 289.726 1017.71 292.25C1015.35 294.292 1012.45 295.497 1009.29 295.182C1004.63 294.717 1001.5 291.618 998.741 288.168C997.945 282.214 998.2 276.103 998.175 270.106L998.072 243.455Z"/>
	<path d="M707.007 307.635C706.109 304.732 705.147 301.843 704.416 298.891C701.406 286.721 701.428 274.55 708.144 263.587C715.06 252.298 726.012 246.688 738.501 243.631C747.797 243.182 756.16 243.222 764.919 246.758C776.958 251.618 790.738 266.31 791.706 279.767C792.05 284.549 789.635 289.801 790.89 294.457C792.073 298.842 796.627 301.028 798.129 305.05C800.624 311.731 794.123 310.332 792.239 314.578C792.721 318.367 792.449 319.223 790.162 322.286C790.505 326.09 790.615 330.433 789.579 334.125C788.751 337.073 787.057 339.702 784.254 341.1C779.06 343.691 772.36 341.772 767.176 340.121C765.514 345.835 764.405 351.844 763.038 357.646C774.454 378.272 787.685 399.561 794.154 422.431C798.007 436.052 792.681 447.377 787.508 459.796C785.218 465.294 783.09 470.944 780.199 476.161C785.262 487.025 801.715 529.377 808.127 535.7C812.302 539.817 818.672 540.81 823.336 544.317C826.413 546.631 827.974 549.739 828.496 553.513C829.029 557.367 827.802 561.104 825.372 564.117C822.773 567.34 818.372 569.949 814.202 570.28C807.411 570.819 798.296 559.477 793.082 555.114C793.485 559.833 794.444 565.674 792.688 570.128C797.122 583.233 799.065 601.402 801.121 615.317C806.184 649.579 810.68 683.849 812.824 718.433L808.926 722.477C810.787 740.341 809.372 759.023 808.985 776.963C808.093 818.263 806.404 861.006 801.882 902.082C805.465 905.328 808.367 910.053 812.33 912.713C821.34 918.76 833.403 920.526 841.302 928.616C844.862 929.467 848.561 929.841 852.169 930.48C858.763 931.647 866.756 933.246 870.692 939.27C872.374 941.845 873.136 945.132 872.442 948.154C871.729 951.257 869.61 953.792 866.955 955.469C863.905 957.395 860.031 958.174 856.496 958.687C848.384 959.863 840.051 959.7 831.877 960.101C813.581 961.001 794.512 962.294 776.207 961.364C772.403 961.171 768.723 960.456 765.003 959.674C765.467 952.033 764.422 944.334 765.087 936.759C765.666 930.162 767.996 923.271 767.998 916.724C768.003 898.943 766.272 881.067 764.939 863.343Q761.061 810.814 754.734 758.524C746.148 782.635 733.508 804.056 720.431 825.902C702.389 853.272 687.255 882.642 668.623 909.627C677.9 919.765 683.048 931.267 694.311 939.822C702.07 945.715 713.257 946.288 720.102 953.487C721.893 955.37 723.455 957.876 723.305 960.568C723.148 963.369 721.285 966.102 719.118 967.792C711.158 974.001 687.964 971.86 678.218 970.351C665.862 968.437 620.794 956.972 614.51 947.527C613.915 946.632 613.687 945.662 613.744 944.595C614.258 935.071 629.379 910.566 634.398 900.854C637.226 895.382 639.736 889.7 642.254 884.078Q662.431 837.848 680.716 790.837C690.731 764.944 701.779 738.988 706.254 711.43C694.965 705.332 682.28 701.647 671.215 695.301C667.839 687.031 667.554 676.146 666.105 667.287L656.914 611.794C647.393 612.06 638.095 611.328 628.768 609.339C616.492 606.721 587.629 597.88 581.054 586.99C579.953 585.165 579.574 583.314 579.676 581.194C580.033 573.783 584.963 560.309 586.844 552.464C584.369 551.105 582.038 549.818 580.452 547.417C580.375 546.906 580.156 546.397 580.22 545.885C580.482 543.801 590.263 530.234 592.017 527.554C598.67 517.386 604.79 506.805 611.576 496.744C613.58 493.772 616.634 491.921 618.441 488.725C622.451 481.636 625.609 473.919 629.327 466.65C637.967 449.76 647.289 433.53 657.056 417.275C661.218 410.348 665.094 403.109 669.866 396.583C667.695 395.076 665.502 393.315 663.951 391.158C660.245 386.004 658.864 378.367 659.946 372.114C661.222 364.735 666.273 360.351 672.026 356.224C669.971 351.029 667.922 346.062 667.973 340.372C668.02 335.074 670.548 329.021 675.581 326.61C676.612 326.116 679.003 325.515 679.767 324.706C680.147 324.304 679.868 317.063 684.939 312.452C691.189 306.77 699.178 307.104 707.007 307.635ZM766.912 377.79C759.355 364.119 752.665 349.617 736.422 344.948C729.428 342.938 721.902 343.009 715.377 346.563C694.254 358.07 681.779 400.543 675.045 422.776C672.522 431.107 669.855 439.407 667.561 447.804C662.954 464.665 659.463 481.932 653.207 498.296C663.562 500.558 679.757 501.297 688.944 505.772C698.404 494.154 711.246 474.866 718.731 461.788C713.475 445.991 710.658 392.957 718.211 378.596C718.871 377.341 719.56 376.625 720.827 375.961C722.188 375.958 722.419 376.022 723.603 376.697C724.268 377.856 724.496 378.603 724.177 379.95C724.033 380.556 723.622 381.242 723.362 381.807C717.496 394.554 719.101 434.166 721.415 448.759C722.597 456.211 724.703 463.586 727.335 470.658Q727.866 472.081 728.469 473.475C741.009 465.988 757.422 463.051 771.876 463.633C767.061 440.611 765.159 417.669 762.763 394.351C762.427 391.082 760.355 382.729 761.324 380.126C762.67 379.526 763.841 379.471 765.282 379.388C766.689 381.771 767.31 384.597 767.741 387.312C769.605 399.041 770.093 411.336 771.406 423.187C773.003 437.608 775.457 451.654 777.929 465.94C782.502 458.755 786.397 449.395 788.648 441.216C789.656 437.55 790.418 433.524 789.965 429.723C788.311 415.818 773.909 390.208 766.912 377.79ZM766.678 264.616C762.728 266.289 758.042 268.559 756.249 272.73C753.942 278.099 759.71 287.695 755.109 291.126C751.736 291.21 748.814 286.061 745.505 289.359C743.822 291.036 743.596 293.767 743.891 295.994C744.337 299.363 746.482 302.253 749.211 304.174C750.404 305.015 751.69 305.666 753.004 306.293C754.337 305.091 755.615 303.621 757.457 303.348C758.723 303.831 758.903 303.854 759.465 305.183C760.24 307.015 760.029 309.5 760.059 311.469C760.175 319.208 761.123 327.135 766.519 333.172C769.752 335.159 775.382 337.642 779.213 336.675C781.11 336.196 782.574 334.945 783.472 333.228C786.021 328.349 785.547 317.06 786.159 311.2C788.45 309.493 790.772 307.919 793.191 306.399C790.063 303.779 787.607 301.452 785.51 297.885C785.179 288.365 788.38 274.822 780.525 267.503C777.043 264.258 772.298 264.209 767.814 264.51C767.435 264.535 767.056 264.572 766.678 264.616ZM748.157 310.287C744.695 316.841 740.656 321.888 733.208 324.05C731.394 324.576 729.712 324.544 727.846 324.421C725.049 329.313 722.228 334.238 719.707 339.279C727.767 337.091 736.169 337.636 743.765 341.237C749.336 344.349 753.887 347.883 758.711 352.038C760.035 347.231 760.957 342.318 762.311 337.529C757.995 330.803 754.832 323.854 754.427 315.758L754.247 312.65C752.238 311.747 750.302 310.828 748.157 310.287ZM675.875 397.354C660.763 421.483 646.162 445.517 633.26 470.929C629.777 477.79 626 484.688 622.991 491.767C623.51 492.671 623.133 492.373 624.105 492.681C624.874 492.749 626.593 493.161 627.172 492.67C629.518 490.682 633.486 480.693 635.16 477.286C643.403 460.512 652.231 444.338 661.264 427.988C666.389 418.71 673.23 408.579 676.636 398.553C676.404 398.135 676.216 397.692 675.875 397.354ZM665.802 431.392Q653.693 452.436 642.931 474.2C639.812 480.401 636.283 486.635 633.665 493.051L633.955 493.945L635.625 494.601C638.784 495.335 641.843 496.092 645.084 496.327L648.075 496.565C650.443 488.319 666.067 436.819 665.802 431.392ZM763.72 469.193Q759.547 469.641 755.422 470.411Q751.296 471.181 747.243 472.269Q743.19 473.357 739.233 474.756Q735.276 476.154 731.44 477.856C746.252 501.318 766.082 521.326 785.872 540.582C791.967 546.512 798.564 552.109 804.378 558.301C806.316 560.177 808.333 562.557 810.636 563.952C810.755 562.871 810.521 562.427 810.19 561.4C809.862 560.383 809.522 559.651 809.744 558.582C811.044 558.315 811.685 558.691 812.751 559.42C814.066 560.32 815.296 561.554 816.489 562.614C816.576 562.46 816.66 562.305 816.749 562.153C817.701 560.526 818.431 559.868 819.966 558.852C821.343 557.938 823.026 556.9 823.174 555.068C823.337 553.052 821.531 550.722 820.119 549.471C815.425 545.312 808.463 544.75 803.855 540.164C800.589 536.914 798.529 531.276 796.526 527.122Q787.607 508.369 779.525 489.241C776.717 482.63 774.366 475.034 770.712 468.871C768.418 468.934 765.98 468.826 763.72 469.193ZM720.766 469.848C712.602 483.55 701.931 495.759 693.871 509.529L697.001 512.713C702.95 509.17 716.531 481.498 722.744 474.14C722.238 472.824 721.735 470.83 720.766 469.848ZM724.976 479.819C720.565 486.826 716.444 494.006 712.032 501.004C707.795 507.724 702.305 514.724 699.419 522.111C695.155 533.027 693.205 550.471 691.839 562.406C705.446 569.336 739.712 572.411 754.965 570.596C766.235 570.078 777.029 568.643 788.098 566.514C787.905 561.261 788.059 555.882 787.677 550.656Q775.307 539.029 763.693 526.648Q752.078 514.267 741.264 501.181C738.131 497.352 727.3 481.269 724.976 479.819ZM618.336 497.08C613.611 502.675 610.074 509.87 606.168 516.094L586.849 546.347Q598.261 550.524 610.198 552.798C614.711 553.638 619.298 554.068 623.763 555.139C633.053 557.368 642.051 561.065 651.614 561.875C655.174 561.373 657.507 561.047 659.766 558.035C664.975 551.092 680.313 518.549 682.978 509.914C661.671 504.507 639.682 502.494 618.336 497.08ZM687.888 513.155C683.693 533.512 680.243 553.751 674.602 573.824C671.789 583.837 667.289 593.412 664.533 603.37C666.139 602.685 667.835 602.066 669.362 601.222C673.492 597.733 677.119 594.553 679.821 589.762C687.565 576.028 687.419 537.362 694.085 519.005C692.17 516.913 690.203 514.818 687.888 513.155ZM678.297 533.978C673.727 542.654 666.859 563.8 657.002 566.579C654.193 567.37 651.252 567.183 648.394 566.81C639.692 565.674 631.157 562.927 622.587 561.065C613.153 559.016 601.741 557.673 592.782 554.387C590.937 559.565 583.662 580.129 585.939 584.541C586.854 586.314 589.31 587.496 590.971 588.434C607.206 598.086 638.284 608.88 657.376 605.628C667.895 583.177 671.846 558.348 678.674 534.743C678.561 534.482 678.526 534.146 678.297 533.978ZM690.95 567.817C688.547 582.271 686.802 595.15 674.054 604.268C670.42 606.867 666.403 608.79 662.297 610.524C664.015 620.083 665.119 629.743 666.772 639.321C669.781 656.757 673.24 674.062 675.322 691.642C706.504 703.24 749.21 729.44 782.433 725.002C791.701 723.683 799.134 721.184 806.771 715.699C805.126 685.403 800.925 655.144 796.474 625.151C793.876 607.644 791.592 589.667 787.646 572.424C761.57 577.212 734.241 577.961 708.167 572.796C702.363 571.646 696.303 570.407 690.95 567.817ZM711.396 713.618C706.804 741.181 695.993 767.626 685.752 793.505Q666.582 842.377 645.575 890.488C643.147 896.049 639.971 901.28 637.577 906.815C642.468 910.16 647.057 912.898 652.98 913.951C656.477 912.072 660.171 910.326 663.113 907.628C663.299 907.457 663.493 907.295 663.678 907.122C665.979 904.963 667.624 901.866 669.3 899.215Q685.542 871.792 702.286 844.673C723.467 810.58 750.122 770.116 757.276 729.965C741.544 725.223 726.567 719.875 711.396 713.618ZM802.954 725.553C789.73 731.262 776.148 731.272 761.977 730.383C761.128 735.617 759.219 741.484 759.017 746.671C758.726 754.153 760.774 762.3 761.628 769.787L767.259 822.4C770.661 855.736 773.438 889.538 772.888 923.053C773.759 924.461 774.934 924.889 776.527 925.264C784.988 927.25 793.303 924.534 800.347 919.888C802.77 918.29 804.803 916.528 806.861 914.485Q801.785 909.997 796.869 905.334C796.874 888.947 798.773 872.403 799.671 856.03C801.807 817.031 804.014 777.959 803.654 738.888C803.635 736.794 804.117 726.724 802.954 725.553ZM634.522 911.25C632.994 914.215 622.97 931.779 623.604 933.968C627.976 937.265 633.749 939.307 638.758 941.465C657.149 949.387 684.802 959.825 705.043 957.131C707.759 956.769 710.192 955.909 712.737 954.943C709.081 952.911 698.819 947.032 694.644 948.272C694.513 948.311 694.395 948.385 694.271 948.442C688.923 947.467 682.399 946.632 678.087 943.044L677.992 942.275C677.893 941.528 677.762 940.828 677.59 940.096C676.763 939.497 676.001 939.274 675.045 938.947C673.414 938.39 671.253 937.548 670.608 935.754C670.189 934.59 670.408 933.082 670.986 931.996C671.198 931.599 671.425 931.469 671.751 931.223C673.377 931.329 674.256 931.932 675.372 933.164C676.531 934.444 677.322 936.172 677.792 937.822C682.177 940.298 686.433 942.396 691.229 943.948C679.11 935.013 674.062 923.978 664.809 912.81C664.622 912.906 664.435 913 664.249 913.098C658.664 916.049 655.958 920.873 648.899 918.824C643.451 917.242 639.567 913.182 634.522 911.25ZM810.159 917.8C804.902 925.058 795.551 929.849 786.71 931.16C781.007 932.006 776.071 931.077 770.84 928.877C770.303 934.257 769.67 939.618 769.771 945.034C780.295 945.055 790.834 944.962 801.355 945.144C816.626 945.408 846.403 947.118 860.367 943.283C861.697 942.592 862.939 942.147 863.602 940.713C863.218 939.419 862.785 939.054 861.559 938.45C855.1 935.268 845.798 935.535 838.717 934.011C837.129 934.881 835.616 935.7 833.907 936.303C830.889 935.711 826.61 935.1 824.254 933.031C824.497 931.481 826.008 931.656 825.756 930.11C824.885 930.194 824.673 930.345 823.888 930.749C821.459 932.002 817.942 930.766 815.543 929.866C813.332 929.038 810.861 928.062 809.446 926.089C809.319 924.84 809.488 924.231 809.978 923.082L810.881 922.489C816.107 924.15 829.749 932.792 834.468 931.417C833.083 927.971 814.424 919.706 810.159 917.8ZM620.844 938.341C619.773 940.606 619.049 942.605 618.503 945.057C623.199 948.417 629.315 950.392 634.694 952.446C655.654 960.454 686.15 969.236 708.377 965.536C711.42 965.029 714.451 964.228 717.273 962.974C717.579 961.336 718.07 959.824 717.216 958.306C714.05 958.496 711.363 961.878 707.756 962.364C707.435 962.407 707.115 962.459 706.793 962.504C683.541 965.765 640.291 951.229 620.844 938.341ZM866.8 944.495C863.757 947.362 860.304 948.606 856.274 949.377C850.223 950.536 843.492 950.326 837.336 950.496C818.032 951.031 798.683 950.351 779.372 950.295C777.516 950.29 770.787 949.794 770.36 952.078C770.215 952.856 770.418 953.989 770.466 954.795L771.038 955.362L771.565 955.358C781.928 957.708 840.294 955.499 852.821 953.978C856.605 953.519 861.779 952.805 865.012 950.716C866.259 949.91 867.249 948.687 867.373 947.154C867.452 946.182 867.123 945.386 866.8 944.495Z"/>
	<path fill="#9F8BE8" d="M927.947 253.89C935.708 251.994 943.846 250.945 951.745 249.736L952.317 249.755C952.393 249.873 952.486 249.982 952.546 250.11C953.338 251.803 953.224 285.609 952.965 289.412C952.814 291.63 952.462 293.735 951.549 295.778C950.175 298.849 947.688 301.552 944.469 302.682C940.546 304.058 935.571 302.942 931.971 301.13C931.685 300.908 931.404 300.677 931.13 300.44C929.94 299.408 928.696 298.422 928.323 296.825C927.346 292.65 928.03 287.066 928.082 282.726C928.197 273.119 928.548 263.485 927.947 253.89Z"/>
	<path fill="#9F8BE8" d="M862.853 263.828Q873.302 261.679 883.865 260.19C885.197 259.99 885.878 259.916 887.194 260.359C888.085 265.027 887.565 270.504 887.569 275.28Q887.648 289.713 887.461 304.145C885.728 306.726 883.383 309.195 880.567 310.581C876.682 312.493 873.044 311.929 869.074 310.689C868.273 310.191 867.519 309.655 866.79 309.055C865.665 308.129 864.939 307.231 864.55 305.803C862.839 299.515 864.141 286.95 864.031 279.943C863.946 274.545 863.385 269.196 862.853 263.828Z"/>
	<path fill="#9F8BE8" d="M0 283.424L104.817 261.413L104.615 363.396C90.4702 366.738 79.6473 377.271 72.1617 389.311C59.9754 408.912 53.0421 440.868 52.1815 463.893C52.0489 467.442 52.9547 478.366 51.8226 481.137C51.3984 482.176 49.9654 482.972 49.0725 483.549L0 484.065L0 283.424Z"/>
	<path d="M267.896 401.646C271.19 396.611 274.253 391.105 278.089 386.477C290.269 371.778 309.679 366.554 327.655 362.758C330.803 362.093 333.78 361.616 337 361.58L339.096 361.543C335.982 358.13 333.125 353.974 329.609 351.015C325.539 347.589 320.794 345.034 316.607 341.763C307.023 334.278 298.889 322.221 299.546 309.587Q299.591 308.672 299.737 307.767Q299.883 306.862 300.129 305.979Q300.375 305.096 300.718 304.246Q301.061 303.396 301.496 302.589C303.537 298.786 306.962 296.011 309.444 292.544C312.062 288.887 313.165 284.599 316.763 281.621C320.341 278.661 324.931 278.079 328.921 275.953C332.572 274.007 335.765 271.232 339.378 269.205C349.606 263.468 362.967 263.101 374.321 264.471C381.779 265.37 391.936 268.048 396.668 274.383C398.644 277.028 399.142 279.971 398.609 283.19C398.335 284.846 397.769 286.515 397.033 288.022C400.561 294.327 404.469 300.308 404.956 307.707C404.971 307.936 404.991 308.165 405.009 308.394C406.283 310.037 407.566 311.805 409.147 313.166C412.128 315.732 419.318 318.727 418.8 323.39C418.454 326.506 415.029 329.045 412.811 331C414.43 335.897 417.911 342.254 415.378 347.249Q414.767 348.435 414.084 349.582C415.782 351.904 417.047 353.813 416.545 356.798C416.206 358.81 414.89 360.333 413.251 361.465C408.778 364.553 403.492 364.641 398.289 364.473C395.576 370.401 393.127 376.513 390.226 382.344C400.247 392.576 402.175 438.526 402.013 453.26C401.959 458.181 401.615 463.093 401.552 468.007C401.317 470.821 401.253 473.863 400.442 476.576C397.984 480.654 401.809 501.394 400.74 508.523L400.176 509.023Q399.922 513.849 399.807 518.681C400.652 537.714 401.799 556.616 402.116 575.684C402.302 586.888 402.832 598.475 400.648 609.526C399.905 613.283 398.655 616.505 396.701 619.787C399.207 630.097 403.129 640.361 406.53 650.424Q412.676 668.638 418.079 687.086C418.805 689.728 419.74 692.466 420.258 695.147C423.351 711.162 429.997 726.665 433.98 742.499C436.838 753.861 438.643 765.669 440.893 777.177C444.949 797.923 449.183 818.782 454.034 839.351C455.934 847.408 457.573 855.877 460.2 863.72C461.987 869.053 465.533 873.521 466.436 879.194C466.743 881.119 467.08 883.336 465.967 885.045C464.953 886.6 462.434 887.875 460.852 888.843C461.902 893.157 462.895 898.134 465.054 902.018C470.069 905.027 491.604 901.777 497.405 900.332C509.177 897.398 532.968 881.465 544.063 888.049C545.997 889.197 547.953 891.424 548.303 893.711C549.136 899.163 541.176 907.187 537.778 910.953Q531.191 918.377 523.696 924.883C513.145 933.962 501.682 941.806 490.391 949.904C482.229 955.759 473.976 962.404 464.981 966.935C462.491 968.189 459.783 969.21 456.974 969.351C451.904 969.605 447.606 966.779 444.083 963.407C438.603 958.162 433.154 948.066 433.309 940.33C433.345 938.511 433.856 936.586 434.235 934.81C430.134 924.414 427.753 913.069 423.132 902.955C420.823 903.356 416.513 904.598 414.392 903.375C408.837 900.174 407.608 890.018 404.792 884.813C403.004 881.509 400.783 878.439 398.926 875.169C396.571 871.022 394.699 866.6 392.43 862.403C384.654 848.024 376.452 834.045 371.738 818.257C369.261 809.962 367.86 801.17 366.474 792.638C365.516 786.745 364.858 780.779 362.756 775.158C357.761 761.802 348.699 746.651 341.132 734.493C334.203 750.976 328.451 768.451 318.731 783.565C310.547 796.29 299.43 807.278 289.822 818.948C274.385 837.696 259.525 856.994 244.416 876.013C242.136 878.883 239.785 881.73 237.704 884.749C233.737 890.504 226.21 904.984 220.07 907.549C217.806 908.495 215.567 908.321 213.183 908.189C212.283 908.139 210.723 907.871 209.875 908.186C207.118 909.207 202.809 918.325 200.755 921.033C203.625 921.63 205.091 922.02 206.77 924.559C210.766 930.602 212.433 937.368 217.919 942.523C225.299 949.459 245.677 950.995 242.482 963.804Q242.299 964.514 242.046 965.202Q241.793 965.889 241.472 966.548Q241.151 967.207 240.766 967.831Q240.381 968.454 239.935 969.036Q239.489 969.618 238.987 970.152Q238.486 970.686 237.933 971.168Q237.38 971.649 236.782 972.072Q236.184 972.496 235.546 972.857C223.578 979.644 197.508 973.956 184.642 970.074C173.056 966.578 146.249 956.434 139.869 946.57L138.085 943.827C141.302 937.339 150.967 914.918 157.829 912.553C159.025 912.141 161.39 912.04 162.348 911.462C164.632 910.086 170.092 899.74 171.554 897.046C173.488 893.483 175.077 889.596 177.453 886.298C175.783 884.86 172.726 882.796 172.477 880.43C172.017 876.047 177.861 864.704 181.056 861.669C182.397 860.395 184.026 860.237 185.765 859.959C189.685 854.486 192.741 847.055 195.699 840.949C202.929 826.027 209.553 810.501 217.833 796.137C226.643 780.851 239.864 767.948 247.693 752.851C252.922 742.77 256.426 732.243 259.825 721.464C260.367 718.598 261.454 715.641 262.254 712.823C264.748 702.223 276.189 648.995 272.353 641.783L268.11 641.376C265.693 641.163 263.951 640.852 261.712 639.917C261.507 639.831 261.304 639.74 261.1 639.652C262.172 632.205 262.864 624.68 263.798 617.211C264.401 612.388 265.443 607.689 265.5 602.809C257.834 591.853 249.343 581.21 241.212 570.59C238.572 566.208 235.336 562.245 232.863 557.734Q231.674 555.364 230.658 552.915C227.417 545.045 228.733 538.108 231.961 530.522Q233.773 525.983 235.675 521.481C241.289 508.825 247.25 496.405 253.354 483.981C254.761 480.551 256.947 477.126 258.683 473.826C260.539 470.751 262.193 467.558 263.884 464.391C266.996 459.205 269.763 453.746 272.729 448.468C278.957 437.384 284.979 426.738 290.31 415.161C287.121 417.477 284.298 420.301 280.925 422.374C278.277 424.001 274.636 425.249 271.53 424.316C269.547 423.721 268.144 422.185 267.246 420.373C264.211 414.254 265.775 407.722 267.896 401.646ZM393.81 293.137C390.901 296.629 386.48 300.021 384.342 303.923C380.502 310.933 381.604 319.053 375.108 324.77C378.363 329.165 385.476 335.321 384.648 341.199C384.334 343.43 383.192 345.391 381.287 346.627C379.65 347.689 377.195 348.339 375.259 347.897C373.559 347.509 371.891 346.388 370.39 345.535C369.03 351.956 367.092 358.869 361.322 362.78C360.181 363.554 358.897 364.188 357.678 364.83L360.588 366.622C369.991 372.297 376.326 380.14 381.179 389.794L385.456 380.105C387.286 376.135 392.727 361.615 396.074 360.388C400.347 358.823 406.632 360.644 410.128 357.445C410.698 356.311 410.848 355.288 410.485 354.054C409.961 352.277 408.818 350.781 407.781 349.274C408.999 347.339 410.313 345.419 411.371 343.393C410.526 339.016 410.393 334.878 407.179 331.542C407.415 329.378 407.753 328.068 409.526 326.682C410.827 325.665 412.904 325.094 413.486 323.578C411.907 320.968 408.711 320.067 406.163 318.675C403.385 319.627 400.109 321.689 397.315 321.89L396.529 321.477C396.568 320.188 396.617 319.585 397.552 318.631C398.82 317.338 400.63 316.186 402.09 315.12C401.343 312.683 400.633 310.228 399.805 307.817L399.155 308.047C396.882 308.875 393.16 311.658 391.076 311.721C390.484 310.557 390.281 309.528 390.588 308.198C390.881 306.928 391.811 305.977 392.928 305.365C394.769 304.356 397.12 303.97 399.155 303.509C397.769 300.399 396.191 295.615 393.81 293.137ZM369.759 327.233C367.906 329.301 366.7 330.695 366.867 333.58C367.04 336.577 368.546 338.994 370.866 340.833C372.611 342.216 374.468 342.695 376.63 343.012C378.06 342.324 378.365 342.193 379.252 340.899C379.654 338.249 377.569 334.959 376.034 332.881C374.697 331.069 373.162 328.607 371.231 327.42L369.759 327.233ZM337.294 366.167C322.966 368.266 311.693 373.402 300.79 383.055C296.395 386.945 290.844 396.173 285.151 397.33C284.338 396.509 284.502 396.964 284.498 395.784C284.484 391.027 293.656 382.232 297.074 379.118C298.226 378.068 299.461 377.104 300.696 376.153C287.923 381.536 278.489 391.688 273.184 404.502C271.896 407.615 269.444 412.924 270.51 416.278C270.94 417.631 271.897 418.4 273.113 419.026C276.181 419.407 278.526 417.809 280.865 415.983C291.22 407.9 295.517 396.946 304.405 389.537C316.466 381.744 329.752 374.929 344.55 378.21C356.043 380.759 363.936 390.99 369.834 400.479C375.768 410.024 378.806 420.672 384.222 430.391Q382.535 420.267 380.438 410.219C377.324 394.897 373.646 382.4 360.372 372.863C353.625 368.015 345.615 365.107 337.294 366.167ZM335.585 383.184C328.166 384.104 318.144 385.633 313.365 392.056C303.204 405.711 275.095 516.527 277.812 533.222C278.225 535.76 280.85 538.489 282.526 540.399C293.028 552.37 305.067 563.424 316.239 574.806C330.849 589.689 344.953 605.049 359.329 620.152C362.089 622.886 364.765 625.874 368.156 627.828C373.453 621.412 377.965 614.847 381.737 607.415C381.68 607.218 381.626 607.021 381.565 606.825C379.574 600.358 375.687 593.89 372.664 587.823Q360.933 564.427 348.473 541.411C344.858 534.6 339.841 526.918 338.105 519.338C337.571 517.003 337.93 514.653 338.484 512.359C340.593 503.629 344.588 494.802 347.599 486.297C355.342 464.431 366.781 429.736 363.233 406.813C361.784 397.451 357.161 389.608 348.427 385.331C344.371 383.345 340.041 382.872 335.585 383.184ZM387.566 388.241C385.925 391.422 384.227 394.539 383.112 397.952C385.385 404.497 386.029 411.854 387.062 418.686C389.228 433.026 391.135 447.598 395.707 461.397L396.228 462.54C397.969 440.913 396.031 416.873 390.519 395.906C390.05 394.124 389.326 390.154 388.165 388.787C387.99 388.581 387.766 388.423 387.566 388.241ZM369.179 409.919C369.579 438.297 360.96 464.573 351.748 491.069C348.871 499.343 344.746 508.34 343.091 516.881C346.473 526.92 351.672 535.963 356.689 545.235Q365.914 562.419 374.752 579.806C377.428 585.075 380.583 590.412 382.808 595.87C384.393 599.259 386.024 602.599 387.162 606.17C389.203 605.513 391.586 604.442 393.737 604.516L395.708 605.63C396.981 604.459 396.988 601.972 397.054 600.314C397.449 590.433 396.502 580.217 396.308 570.307C395.397 523.964 393.023 462.429 373.356 420.238C372.016 417.363 371.175 412.207 369.179 409.919ZM287.349 433.427C278.135 447.25 270.83 462.744 263.2 477.469C255.75 491.849 248.356 505.86 241.947 520.76C239.689 526.009 237.268 531.286 235.667 536.78C234.631 540.333 233.895 544.359 234.713 548.017C236.876 557.696 247.516 568.969 253.353 577.095C257.599 582.89 262.418 588.531 266.315 594.54C267.235 578.513 269.346 562.391 270.949 546.403C272.063 535.299 272.532 524.088 274.141 513.044C275.276 505.255 276.932 497.545 278.136 489.766C280.061 477.325 281.468 464.789 283.692 452.391C284.351 448.714 288.3 436.397 287.576 433.671L287.349 433.427ZM276.582 542.202C275.149 557.643 274.289 573.131 272.863 588.571C271.416 604.251 269.335 619.928 267.157 635.522C288.764 637.815 309.919 637.144 329.682 626.982C335.806 623.899 341.974 620.787 347.699 616.996C331.32 597.29 312.72 579.068 294.679 560.889C288.691 554.855 283.174 547.551 276.582 542.202ZM385.84 611.921C378.323 627.498 363.416 645.187 346.645 651.044C344.906 651.651 341.477 652.233 339.717 651.443C339.153 651.19 339.14 651.125 338.758 650.755C338.684 649.698 338.952 649.263 339.725 648.483C341.413 646.779 346.12 645.61 348.399 644.417C354.018 641.476 359.959 637.109 364.291 632.483C360.047 628.629 355.694 624.84 351.572 620.858C333.068 633.927 317.614 639.016 295.311 642.192C299.891 653.703 309.422 668.63 315.867 679.476C320.638 687.503 325.657 695.448 330.238 703.578C334.235 710.672 337.9 717.964 342.027 724.982C350.575 739.517 360 754.105 366.668 769.651C372.742 783.814 372.082 801.761 376.964 816.737C382.782 833.518 390.861 848.168 399.226 863.759C402.894 870.596 406.208 877.966 410.732 884.287C420.955 882.038 431.574 878.916 440.95 874.22C445.686 871.848 450.074 868.944 454.683 866.36C453.07 855.42 449.249 844.873 446.92 834.063C440.663 805.019 435.713 775.586 429.03 746.659C426.251 734.627 422.056 722.721 418.605 710.851C413.412 692.996 394.36 622.544 385.84 611.921ZM277.852 641.244C276.842 650.333 277.115 659.512 276.139 668.592C273.283 695.172 263.548 737.747 249.821 760.334C240.754 775.254 227.908 787.727 219.807 803.398C213.07 816.429 207.182 829.978 200.786 843.189C197.44 850.1 194.571 857.688 189.588 863.587C199.449 874.527 214.801 883.28 229.026 886.975C232.038 882.845 235.016 878.701 238.291 874.772C252.882 856.435 267.099 837.681 282.056 819.654C286.605 814.17 290.992 808.489 295.683 803.136C300.818 797.275 306.507 791.739 310.949 785.317Q315.69 778.396 319.51 770.926C323.046 764.054 336.992 733.588 336.548 727.449C336.3 724.029 293.02 651.625 287.346 642.551C284.013 642.51 281.076 642.184 277.852 641.244ZM184.193 867.2C181.764 871.146 179.367 875.162 177.898 879.582C188.708 891.038 200.453 898.99 215.386 903.884L219.373 900.776L227.503 892.111C216.291 888.228 205.861 883.673 196.089 876.802C192.637 874.376 187.725 868.562 184.193 867.2ZM457.337 870.957C442.273 879.606 429.313 885.603 412.436 889.835C414.176 892.527 415.734 895.113 417.056 898.035L417.34 898.652L417.506 899.024C419.72 900.162 421.795 899.406 424.033 898.702C436.981 894.631 449.098 889.286 460.559 882.002C459.914 878.749 459.529 873.431 457.337 870.957ZM533.658 892.528C525.737 895.095 513.142 899.839 506.28 904.259C502.316 906.812 502.947 911.814 497.362 912.504L495.839 911.664C495.774 910.188 496.766 907.701 496.344 906.541C494.9 906.277 493.896 907.042 492.681 907.711C492.743 907.895 492.808 908.078 492.869 908.263C492.948 908.503 493.019 908.746 493.1 908.986C493.167 909.183 493.262 909.372 493.313 909.574C493.919 911.994 492.659 919.582 491.269 921.58C490.827 922.217 490.786 922.21 490.284 922.659C489.138 922.684 488.969 922.629 487.969 922.062C486.471 919.679 486.726 916.852 487.3 914.179C487.702 912.31 488.323 910.46 488.883 908.635C482.258 908.159 475.561 908.49 468.925 908.618C469.319 916.398 467.629 922.171 462.35 928.073C457.528 933.463 450.705 937.304 443.405 937.725C441.626 937.547 439.983 937.301 438.249 936.858C439.55 943.224 441.218 950.441 444.994 955.841C461.277 950.353 498.426 928.058 511.828 916.573C520.139 909.45 526.999 901.227 534.361 893.19C533.788 892.545 534.08 892.682 533.658 892.528ZM159.831 916.834C154.688 921.52 151.202 927.808 147.975 933.892C154.42 939.707 162.251 943.626 169.778 947.846C192.354 960.503 197.383 965.089 224.798 963.755C228.543 963.573 234.321 963.567 237.328 961.124C237.547 960.357 237.793 960.235 237.327 959.488C235.966 957.309 233.139 956.426 230.87 955.501C224.198 952.504 218.738 949.874 213.489 944.575C208.574 947.525 200.401 952.403 194.428 951.177C193.404 950.392 193.434 950.3 193.091 949.041C193.504 947.764 193.635 947.621 194.876 946.949C199.481 944.453 204.814 943.719 209.485 941.057C206.959 936.193 204.586 930.505 201.101 926.292C193.827 930.181 184.575 932.287 176.462 929.826C171.641 928.364 166.321 924.602 163.064 920.764C161.975 919.48 161.189 917.845 159.831 916.834Z"/>
	<path fill="#9F8BE8" d="M753.004 306.293C751.69 305.666 750.404 305.015 749.211 304.174C746.482 302.253 744.337 299.363 743.891 295.994C743.596 293.767 743.822 291.036 745.505 289.359C748.814 286.061 751.736 291.21 755.109 291.126C759.71 287.695 753.942 278.099 756.249 272.73C758.042 268.559 762.728 266.289 766.678 264.616C767.056 264.572 767.435 264.535 767.814 264.51C772.298 264.209 777.043 264.258 780.525 267.503C788.38 274.822 785.179 288.365 785.51 297.885C787.607 301.452 790.063 303.779 793.191 306.399C790.772 307.919 788.45 309.493 786.159 311.2C785.547 317.06 786.021 328.349 783.472 333.228C782.574 334.945 781.11 336.196 779.213 336.675C775.382 337.642 769.752 335.159 766.519 333.172C761.123 327.135 760.175 319.208 760.059 311.469C760.029 309.5 760.24 307.015 759.465 305.183C758.903 303.854 758.723 303.831 757.457 303.348C755.615 303.621 754.337 305.091 753.004 306.293Z"/>
	<path fill="#4A4965" d="M375.108 324.77C381.604 319.053 380.502 310.933 384.342 303.923C386.48 300.021 390.901 296.629 393.81 293.137C396.191 295.615 397.769 300.399 399.155 303.509C397.12 303.97 394.769 304.356 392.928 305.365C391.811 305.977 390.881 306.928 390.588 308.198C390.281 309.528 390.484 310.557 391.076 311.721C393.16 311.658 396.882 308.875 399.155 308.047L399.805 307.817C400.633 310.228 401.343 312.683 402.09 315.12C400.63 316.186 398.82 317.338 397.552 318.631C396.617 319.585 396.568 320.188 396.529 321.477L397.315 321.89C400.109 321.689 403.385 319.627 406.163 318.675C408.711 320.067 411.907 320.968 413.486 323.578C412.904 325.094 410.827 325.665 409.526 326.682C407.753 328.068 407.415 329.378 407.179 331.542C410.393 334.878 410.526 339.016 411.371 343.393C410.313 345.419 408.999 347.339 407.781 349.274C408.818 350.781 409.961 352.277 410.485 354.054C410.848 355.288 410.698 356.311 410.128 357.445C406.632 360.644 400.347 358.823 396.074 360.388C392.727 361.615 387.286 376.135 385.456 380.105L381.179 389.794C376.326 380.14 369.991 372.297 360.588 366.622L357.678 364.83C358.897 364.188 360.181 363.554 361.322 362.78C367.092 358.869 369.03 351.956 370.39 345.535C371.891 346.388 373.559 347.509 375.259 347.897C377.195 348.339 379.65 347.689 381.287 346.627C383.192 345.391 384.334 343.43 384.648 341.199C385.476 335.321 378.363 329.165 375.108 324.77Z"/>
	<path fill="#9F8BE8" d="M960.562 301.86C961.659 302.968 962.782 304.147 964.017 305.107C967.991 308.193 973.213 309.293 978.144 308.582C984.214 307.707 988.398 304.561 991.988 299.79C992.497 300.053 992.252 299.895 992.788 300.346C998.097 304.812 1001.81 306.836 1008.85 307.162C1009.58 342.26 1009.15 377.613 1008.53 412.714C1001.14 400.392 997.342 395.719 984.075 389.477C990.136 384.731 994.982 379.709 996.843 371.919C998.474 365.092 997.263 358.538 993.51 352.624C989.896 346.928 983.926 342.528 977.268 341.182C970.649 339.845 963.235 341.231 957.648 345.043C952.292 348.698 948.097 355.009 947.112 361.472C944.628 377.773 956.139 379.655 963.561 390.116C963.686 390.291 963.806 390.47 963.928 390.647C959.952 392.282 955.714 393.262 951.765 394.988C939.591 400.308 932.977 412.083 928.269 423.877C924.659 433.682 923.771 443.804 921.374 453.876Q892.43 453.82 863.488 454.102C863.001 435.159 863.39 416.108 863.389 397.154L862.991 320.282Q863.865 320.715 864.77 321.077Q865.675 321.439 866.607 321.728Q867.538 322.017 868.489 322.231Q869.441 322.445 870.406 322.582Q871.371 322.72 872.344 322.781Q873.317 322.841 874.292 322.824Q875.267 322.807 876.238 322.713Q877.208 322.618 878.168 322.447C884.444 321.283 888.534 317.505 892.077 312.474C897.073 315.71 902.478 317.47 908.474 316.453C914.787 315.382 919.956 311.708 923.57 306.537C925.001 308.069 926.458 309.511 928.22 310.666C933.322 314.01 938.849 315.247 944.856 313.947C952.078 312.385 956.741 307.882 960.562 301.86Z"/>
	<path fill="#9F8BE8" d="M1016.58 305.848C1019.02 304.332 1021.4 302.886 1024 301.653L1024 447.576C1021.19 442.099 1019.72 436.249 1016.55 430.815L1016.58 305.848Z"/>
	<path fill="#9F8BE8" d="M727.846 324.421C729.712 324.544 731.394 324.576 733.208 324.05C740.656 321.888 744.695 316.841 748.157 310.287C750.302 310.828 752.238 311.747 754.247 312.65L754.427 315.758C754.832 323.854 757.995 330.803 762.311 337.529C760.957 342.318 760.035 347.231 758.711 352.038C753.887 347.883 749.336 344.349 743.765 341.237C736.169 337.636 727.767 337.091 719.707 339.279C722.228 334.238 725.049 329.313 727.846 324.421Z"/>
	<path fill="#4A4965" d="M376.63 343.012C374.468 342.695 372.611 342.216 370.866 340.833C368.546 338.994 367.04 336.577 366.867 333.58C366.7 330.695 367.906 329.301 369.759 327.233L371.231 327.42C373.162 328.607 374.697 331.069 376.034 332.881C377.569 334.959 379.654 338.249 379.252 340.899C378.365 342.193 378.06 342.324 376.63 343.012Z"/>
	<path fill="#5741B9" d="M653.207 498.296C659.463 481.932 662.954 464.665 667.561 447.804C669.855 439.407 672.522 431.107 675.045 422.776C681.779 400.543 694.254 358.07 715.377 346.563C721.902 343.009 729.428 342.938 736.422 344.948C752.665 349.617 759.355 364.119 766.912 377.79C773.909 390.208 788.311 415.818 789.965 429.723C790.418 433.524 789.656 437.55 788.648 441.216C786.397 449.395 782.502 458.755 777.929 465.94C775.457 451.654 773.003 437.608 771.406 423.187C770.093 411.336 769.605 399.041 767.741 387.312C767.31 384.597 766.689 381.771 765.282 379.388C763.841 379.471 762.67 379.526 761.324 380.126C760.355 382.729 762.427 391.082 762.763 394.351C765.159 417.669 767.061 440.611 771.876 463.633C757.422 463.051 741.009 465.988 728.469 473.475Q727.866 472.081 727.335 470.658C724.703 463.586 722.597 456.211 721.415 448.759C719.101 434.166 717.496 394.554 723.362 381.807C723.622 381.242 724.033 380.556 724.177 379.95C724.496 378.603 724.268 377.856 723.603 376.697C722.419 376.022 722.188 375.958 720.827 375.961C719.56 376.625 718.871 377.341 718.211 378.596C710.658 392.957 713.475 445.991 718.731 461.788C711.246 474.866 698.404 494.154 688.944 505.772C679.757 501.297 663.562 500.558 653.207 498.296Z"/>
	<path fill="#FEFEFE" d="M300.696 376.153C299.461 377.104 298.226 378.068 297.074 379.118C293.656 382.232 284.484 391.027 284.498 395.784C284.502 396.964 284.338 396.509 285.151 397.33C290.844 396.173 296.395 386.945 300.79 383.055C311.693 373.402 322.966 368.266 337.294 366.167C345.615 365.107 353.625 368.015 360.372 372.863C373.646 382.4 377.324 394.897 380.438 410.219Q382.535 420.267 384.222 430.391C378.806 420.672 375.768 410.024 369.834 400.479C363.936 390.99 356.043 380.759 344.55 378.21C329.752 374.929 316.466 381.744 304.405 389.537C295.517 396.946 291.22 407.9 280.865 415.983C278.526 417.809 276.181 419.407 273.113 419.026C271.897 418.4 270.94 417.631 270.51 416.278C269.444 412.924 271.896 407.615 273.184 404.502C278.489 391.688 287.923 381.536 300.696 376.153Z"/>
	<path fill="#FEFEFE" d="M359.329 620.152C344.953 605.049 330.849 589.689 316.239 574.806C305.067 563.424 293.028 552.37 282.526 540.399C280.85 538.489 278.225 535.76 277.812 533.222C275.095 516.527 303.204 405.711 313.365 392.056C318.144 385.633 328.166 384.104 335.585 383.184C340.041 382.872 344.371 383.345 348.427 385.331C357.161 389.608 361.784 397.451 363.233 406.813C366.781 429.736 355.342 464.431 347.599 486.297C344.588 494.802 340.593 503.629 338.484 512.359C337.93 514.653 337.571 517.003 338.105 519.338C339.841 526.918 344.858 534.6 348.473 541.411Q360.933 564.427 372.664 587.823C375.687 593.89 379.574 600.358 381.565 606.825C381.626 607.021 381.68 607.218 381.737 607.415C377.965 614.847 373.453 621.412 368.156 627.828C364.765 625.874 362.089 622.886 359.329 620.152Z"/>
	<path fill="#FEFEFE" d="M383.112 397.952C384.227 394.539 385.925 391.422 387.566 388.241C387.766 388.423 387.99 388.581 388.165 388.787C389.326 390.154 390.05 394.124 390.519 395.906C396.031 416.873 397.969 440.913 396.228 462.54L395.707 461.397C391.135 447.598 389.228 433.026 387.062 418.686C386.029 411.854 385.385 404.497 383.112 397.952Z"/>
	<path fill="#FEFEFE" d="M624.105 492.681C623.133 492.373 623.51 492.671 622.991 491.767C626 484.688 629.777 477.79 633.26 470.929C646.162 445.517 660.763 421.483 675.875 397.354C676.216 397.692 676.404 398.135 676.636 398.553C673.23 408.579 666.389 418.71 661.264 427.988C652.231 444.338 643.403 460.512 635.16 477.286C633.486 480.693 629.518 490.682 627.172 492.67C626.593 493.161 624.874 492.749 624.105 492.681Z"/>
	<path fill="#5741B9" d="M263.884 464.391C263.307 463.767 263.589 463.963 262.826 463.575C254.559 459.366 247.661 454.319 244.106 445.375C241.145 437.926 241.642 428.853 244.871 421.559C249.221 411.733 258.144 405.391 267.896 401.646C265.775 407.722 264.211 414.254 267.246 420.373C268.144 422.185 269.547 423.721 271.53 424.316C274.636 425.249 278.277 424.001 280.925 422.374C284.298 420.301 287.121 417.477 290.31 415.161C284.979 426.738 278.957 437.384 272.729 448.468C269.763 453.746 266.996 459.205 263.884 464.391Z"/>
	<path fill="#FEFEFE" d="M343.091 516.881C344.746 508.34 348.871 499.343 351.748 491.069C360.96 464.573 369.579 438.297 369.179 409.919C371.175 412.207 372.016 417.363 373.356 420.238C393.023 462.429 395.397 523.964 396.308 570.307C396.502 580.217 397.449 590.433 397.054 600.314C396.988 601.972 396.981 604.459 395.708 605.63L393.737 604.516C391.586 604.442 389.203 605.513 387.162 606.17C386.024 602.599 384.393 599.259 382.808 595.87C380.583 590.412 377.428 585.075 374.752 579.806Q365.914 562.419 356.689 545.235C351.672 535.963 346.473 526.92 343.091 516.881Z"/>
	<path fill="#9F8BE8" d="M635.625 494.601L633.955 493.945L633.665 493.051C636.283 486.635 639.812 480.401 642.931 474.2Q653.693 452.436 665.802 431.392C666.067 436.819 650.443 488.319 648.075 496.565L645.084 496.327C641.843 496.092 638.784 495.335 635.625 494.601Z"/>
	<path fill="#FEFEFE" d="M253.353 577.095C247.516 568.969 236.876 557.696 234.713 548.017C233.895 544.359 234.631 540.333 235.667 536.78C237.268 531.286 239.689 526.009 241.947 520.76C248.356 505.86 255.75 491.849 263.2 477.469C270.83 462.744 278.135 447.25 287.349 433.427L287.576 433.671C288.3 436.397 284.351 448.714 283.692 452.391C281.468 464.789 280.061 477.325 278.136 489.766C276.932 497.545 275.276 505.255 274.141 513.044C272.532 524.088 272.063 535.299 270.949 546.403C269.346 562.391 267.235 578.513 266.315 594.54C262.418 588.531 257.599 582.89 253.353 577.095Z"/>
	<path fill="#9F8BE8" d="M400.442 476.576C416.77 476.21 433.169 474.453 449.481 473.438L530.782 469.118C543.226 468.478 556.866 466.38 569.11 466.707Q569.319 481.835 569.178 496.963C552.73 498.315 402.682 509.375 400.74 508.523C401.809 501.394 397.984 480.654 400.442 476.576Z"/>
	<path fill="#9F8BE8" d="M731.44 477.856Q735.276 476.154 739.233 474.756Q743.19 473.357 747.243 472.269Q751.296 471.181 755.422 470.411Q759.547 469.641 763.72 469.193C765.98 468.826 768.418 468.934 770.712 468.871C774.366 475.034 776.717 482.63 779.525 489.241Q787.607 508.369 796.526 527.122C798.529 531.276 800.589 536.914 803.855 540.164C808.463 544.75 815.425 545.312 820.119 549.471C821.531 550.722 823.337 553.052 823.174 555.068C823.026 556.9 821.343 557.938 819.966 558.852C818.431 559.868 817.701 560.526 816.749 562.153C816.66 562.305 816.576 562.46 816.489 562.614C815.296 561.554 814.066 560.32 812.751 559.42C811.685 558.691 811.044 558.315 809.744 558.582C809.522 559.651 809.862 560.383 810.19 561.4C810.521 562.427 810.755 562.871 810.636 563.952C808.333 562.557 806.316 560.177 804.378 558.301C798.564 552.109 791.967 546.512 785.872 540.582C766.082 521.326 746.252 501.318 731.44 477.856Z"/>
	<path fill="#FEFEFE" d="M693.871 509.529C701.931 495.759 712.602 483.55 720.766 469.848C721.735 470.83 722.238 472.824 722.744 474.14C716.531 481.498 702.95 509.17 697.001 512.713L693.871 509.529Z"/>
	<path fill="#5741B9" d="M691.839 562.406C693.205 550.471 695.155 533.027 699.419 522.111C702.305 514.724 707.795 507.724 712.032 501.004C716.444 494.006 720.565 486.826 724.976 479.819C727.3 481.269 738.131 497.352 741.264 501.181Q752.078 514.267 763.693 526.648Q775.307 539.029 787.677 550.656C788.059 555.882 787.905 561.261 788.098 566.514C777.029 568.643 766.235 570.078 754.965 570.596C739.712 572.411 705.446 569.336 691.839 562.406Z"/>
	<path fill="#9F8BE8" d="M131.42 490.509C141.986 490.494 152.738 489.482 163.31 489.008Q208.363 487.041 253.354 483.981C247.25 496.405 241.289 508.825 235.675 521.481C222.822 523.476 209.334 523.259 196.332 524.014C174.889 525.26 153.407 526.971 131.93 527.417C131.497 515.119 132.143 502.809 131.42 490.509Z"/>
	<path fill="#9F8BE8" d="M0 492.467C32.6599 492.733 65.3317 491.448 97.9942 491.106C106.393 491.017 114.871 490.594 123.259 490.751C123.284 503.134 123.615 515.611 123.229 527.984C82.1586 528.161 41.0597 529.47 0 529.439L0 492.467Z"/>
	<path fill="#FEFEFE" d="M586.849 546.347L606.168 516.094C610.074 509.87 613.611 502.675 618.336 497.08C639.682 502.494 661.671 504.507 682.978 509.914C680.313 518.549 664.975 551.092 659.766 558.035C657.507 561.047 655.174 561.373 651.614 561.875C642.051 561.065 633.053 557.368 623.763 555.139C619.298 554.068 614.711 553.638 610.198 552.798Q598.261 550.524 586.849 546.347ZM619.665 504.821C619.592 505.007 619.523 505.195 619.447 505.38C616.225 513.273 599.622 533.376 601.057 539.757L601.761 540.357C604.156 540.026 605.876 537.939 607.252 536.104C613.139 528.259 617.702 519.328 623.175 511.18L623.341 511.377L623.875 510.933L624.586 511.473C626.786 511.711 628.947 511.964 631.118 512.409C638.064 513.846 667.866 520.973 673.107 518.794C672.454 516.908 672.223 515.323 670.293 514.422C665.432 512.153 652.443 511.104 646.171 509.843C639.73 508.548 633.413 506.718 626.945 505.547C624.62 505.127 622.029 504.654 619.665 504.821ZM622.363 540.979C619.947 543.198 618.11 545.269 618.066 548.737C618.052 549.884 618.426 550.544 619.083 551.438C620.434 552.296 622.313 553.056 623.942 552.85C624.086 552.832 624.224 552.782 624.364 552.748C626.675 551.795 628.078 550.992 629.036 548.55C629.635 547.022 629.554 545.538 628.826 544.055C628.232 542.847 627.034 541.865 625.785 541.434C624.763 541.082 623.433 541.048 622.363 540.979Z"/>
	<path fill="#9F8BE8" d="M537.502 507.723C544.877 505.968 553.46 506.004 561.058 505.289C563.358 505.068 565.698 505.03 568.007 504.917C568.28 524.438 567.799 544.024 567.687 563.552L567.5 662.304C559.592 663.154 551.701 664.901 543.889 666.394L537.683 667.647C537.24 648.612 537.533 629.51 537.523 610.468L537.502 507.723Z"/>
	<path d="M623.175 511.18C617.702 519.328 613.139 528.259 607.252 536.104C605.876 537.939 604.156 540.026 601.761 540.357L601.057 539.757C599.622 533.376 616.225 513.273 619.447 505.38C619.523 505.195 619.592 505.007 619.665 504.821C622.029 504.654 624.62 505.127 626.945 505.547C633.413 506.718 639.73 508.548 646.171 509.843C652.443 511.104 665.432 512.153 670.293 514.422C672.223 515.323 672.454 516.908 673.107 518.794C667.866 520.973 638.064 513.846 631.118 512.409C628.947 511.964 626.786 511.711 624.586 511.473L623.875 510.933L623.341 511.377L623.175 511.18Z"/>
	<path fill="#9F8BE8" d="M493.995 510.591L519.202 508.777C522.482 508.397 525.872 508.388 529.175 508.236C530.059 525.75 529.387 543.623 529.339 561.18Q528.857 614.989 529.189 668.798C520.609 670.226 511.984 671.508 503.377 672.76C500.271 673.089 497.145 673.738 494.06 674.249L493.995 510.591Z"/>
	<path fill="#9F8BE8" d="M445.621 682.761L445.318 577.164C445.269 558.067 444.567 538.67 445.267 519.602C445.323 518.073 445.307 516.412 446.126 515.078C451.301 512.596 473.02 512.231 479.745 511.701C481.673 511.356 483.857 511.415 485.824 511.292L485.799 603.706C485.823 627.65 486.269 651.724 485.501 675.656Q468.681 678.511 451.892 681.537L445.621 682.761Z"/>
	<path fill="#FEFEFE" d="M664.533 603.37C667.289 593.412 671.789 583.837 674.602 573.824C680.243 553.751 683.693 533.512 687.888 513.155C690.203 514.818 692.17 516.913 694.085 519.005C687.419 537.362 687.565 576.028 679.821 589.762C677.119 594.553 673.492 597.733 669.362 601.222C667.835 602.066 666.139 602.685 664.533 603.37Z"/>
	<path fill="#9F8BE8" d="M399.807 518.681C409.08 516.398 426.27 515.801 436.483 514.901L436.417 683.89C430.424 685.02 424.142 686.542 418.079 687.086Q412.676 668.638 406.53 650.424C403.129 640.361 399.207 630.097 396.701 619.787C398.655 616.505 399.905 613.283 400.648 609.526C402.832 598.475 402.302 586.888 402.116 575.684C401.799 556.616 400.652 537.714 399.807 518.681Z"/>
	<path fill="#9F8BE8" d="M189.242 532.899C196.147 532.412 227.559 529.24 231.961 530.522C228.733 538.108 227.417 545.045 230.658 552.915Q231.674 555.364 232.863 557.734C231.528 573.527 232.889 590.007 232.84 605.874Q232.524 661.854 232.843 717.832C218.34 719.301 203.825 722.038 189.444 724.414C188.179 660.596 190.032 596.729 189.242 532.899Z"/>
	<path fill="#9F8BE8" d="M131.195 536.021C143.604 535.984 156.453 534.697 168.855 533.717C172.686 533.186 176.949 533.403 180.847 533.194L180.842 725.871C168.657 728.428 155.896 729.539 143.577 731.567C139.573 731.881 135.391 732.954 131.421 733.661C131.077 667.791 132.122 601.882 131.195 536.021Z"/>
	<path fill="#FEFEFE" d="M592.782 554.387C601.741 557.673 613.153 559.016 622.587 561.065C631.157 562.927 639.692 565.674 648.394 566.81C651.252 567.183 654.193 567.37 657.002 566.579C666.859 563.8 673.727 542.654 678.297 533.978C678.526 534.146 678.561 534.482 678.674 534.743C671.846 558.348 667.895 583.177 657.376 605.628C638.284 608.88 607.206 598.086 590.971 588.434C589.31 587.496 586.854 586.314 585.939 584.541C583.662 580.129 590.937 559.565 592.782 554.387Z"/>
	<path fill="#9F8BE8" d="M82.5508 536.701C90.8008 536.45 99.0544 536.602 107.309 536.281C112.514 536.01 117.702 536.009 122.912 536.013C123.571 574.55 123.112 613.204 123.075 651.753C123.048 679.134 123.784 706.775 122.752 734.125C115.051 733.642 107.263 732.333 99.6383 731.158C94.1226 730.236 88.537 729.655 82.9868 728.974C82.1427 664.91 83.0109 600.778 82.5508 536.701Z"/>
	<path fill="#9F8BE8" d="M26.0073 537.023Q38.7581 537.147 51.5031 536.741Q62.9949 536.441 74.4904 536.51L74.4835 654.92C74.4917 679.113 74.833 703.358 74.3736 727.546C66.8633 726.938 59.3623 725.85 51.8858 724.911C43.2353 723.342 34.383 722.495 25.6497 721.52L26.0073 537.023Z"/>
	<path fill="#9F8BE8" d="M0 537.506Q8.56662 537.542 17.1327 537.435C17.808 574.96 17.4914 612.623 17.4713 650.157C17.4589 673.37 18.4097 697.094 16.9141 720.25C11.3609 719.779 5.42474 719.171 0 717.876L0 537.506Z"/>
	<path d="M624.364 552.748C624.224 552.782 624.086 552.832 623.942 552.85C622.313 553.056 620.434 552.296 619.083 551.438C618.426 550.544 618.052 549.884 618.066 548.737C618.11 545.269 619.947 543.198 622.363 540.979C623.433 541.048 624.763 541.082 625.785 541.434C627.034 541.865 628.232 542.847 628.826 544.055C629.554 545.538 629.635 547.022 629.036 548.55C628.078 550.992 626.675 551.795 624.364 552.748Z"/>
	<path fill="#FEFEFE" d="M267.157 635.522C269.335 619.928 271.416 604.251 272.863 588.571C274.289 573.131 275.149 557.643 276.582 542.202C283.174 547.551 288.691 554.855 294.679 560.889C312.72 579.068 331.32 597.29 347.699 616.996C341.974 620.787 335.806 623.899 329.682 626.982C309.919 637.144 288.764 637.815 267.157 635.522Z"/>
	<path fill="#9F8BE8" d="M662.297 610.524C666.403 608.79 670.42 606.867 674.054 604.268C686.802 595.15 688.547 582.271 690.95 567.817C696.303 570.407 702.363 571.646 708.167 572.796C734.241 577.961 761.57 577.212 787.646 572.424C791.592 589.667 793.876 607.644 796.474 625.151C800.925 655.144 805.126 685.403 806.771 715.699C799.134 721.184 791.701 723.683 782.433 725.002C749.21 729.44 706.504 703.24 675.322 691.642C673.24 674.062 669.781 656.757 666.772 639.321C665.119 629.743 664.015 620.083 662.297 610.524Z"/>
	<path fill="#9F8BE8" d="M241.144 715.935C241.581 687.343 241.365 658.715 241.355 630.119C241.349 610.307 241.774 590.391 241.212 570.59C249.343 581.21 257.834 591.853 265.5 602.809C265.443 607.689 264.401 612.388 263.798 617.211C262.864 624.68 262.172 632.205 261.1 639.652C261.304 639.74 261.507 639.831 261.712 639.917C263.951 640.852 265.693 641.163 268.11 641.376L272.353 641.783C276.189 648.995 264.748 702.223 262.254 712.823C255.264 714.052 248.17 714.917 241.144 715.935Z"/>
	<path fill="#6D6770" d="M364.291 632.483C359.959 637.109 354.018 641.476 348.399 644.417C346.12 645.61 341.413 646.779 339.725 648.483C338.952 649.263 338.684 649.698 338.758 650.755C339.14 651.125 339.153 651.19 339.717 651.443C341.477 652.233 344.906 651.651 346.645 651.044C363.416 645.187 378.323 627.498 385.84 611.921C394.36 622.544 413.412 692.996 418.605 710.851C422.056 722.721 426.251 734.627 429.03 746.659C435.713 775.586 440.663 805.019 446.92 834.063C449.249 844.873 453.07 855.42 454.683 866.36C450.074 868.944 445.686 871.848 440.95 874.22C431.574 878.916 420.955 882.038 410.732 884.287C406.208 877.966 402.894 870.596 399.226 863.759C390.861 848.168 382.782 833.518 376.964 816.737C372.082 801.761 372.742 783.814 366.668 769.651C360 754.105 350.575 739.517 342.027 724.982C337.9 717.964 334.235 710.672 330.238 703.578C325.657 695.448 320.638 687.503 315.867 679.476C309.422 668.63 299.891 653.703 295.311 642.192C317.614 639.016 333.068 633.927 351.572 620.858C355.694 624.84 360.047 628.629 364.291 632.483Z"/>
	<path fill="#6D6770" d="M189.588 863.587C194.571 857.688 197.44 850.1 200.786 843.189C207.182 829.978 213.07 816.429 219.807 803.398C227.908 787.727 240.754 775.254 249.821 760.334C263.548 737.747 273.283 695.172 276.139 668.592C277.115 659.512 276.842 650.333 277.852 641.244C281.076 642.184 284.013 642.51 287.346 642.551C293.02 651.625 336.3 724.029 336.548 727.449C336.992 733.588 323.046 764.054 319.51 770.926Q315.69 778.396 310.949 785.317C306.507 791.739 300.818 797.275 295.683 803.136C290.992 808.489 286.605 814.17 282.056 819.654C267.099 837.681 252.882 856.435 238.291 874.772C235.016 878.701 232.038 882.845 229.026 886.975C214.801 883.28 199.449 874.527 189.588 863.587Z"/>
	<path fill="#9F8BE8" d="M637.577 906.815C639.971 901.28 643.147 896.049 645.575 890.488Q666.582 842.377 685.752 793.505C695.993 767.626 706.804 741.181 711.396 713.618C726.567 719.875 741.544 725.223 757.276 729.965C750.122 770.116 723.467 810.58 702.286 844.673Q685.542 871.793 669.3 899.215C667.624 901.866 665.979 904.963 663.678 907.122C663.493 907.295 663.299 907.457 663.113 907.628C660.171 910.326 656.477 912.072 652.98 913.951C647.057 912.898 642.468 910.16 637.577 906.815Z"/>
	<path fill="#9F8BE8" d="M761.977 730.383C776.148 731.272 789.73 731.262 802.954 725.553C804.117 726.724 803.635 736.794 803.654 738.888C804.014 777.959 801.807 817.031 799.671 856.03C798.773 872.403 796.874 888.947 796.869 905.334Q801.785 909.997 806.861 914.485C804.803 916.528 802.77 918.29 800.347 919.888C793.303 924.534 784.988 927.25 776.527 925.264C774.934 924.889 773.759 924.461 772.888 923.053C773.438 889.538 770.661 855.736 767.259 822.4L761.628 769.787C760.774 762.3 758.726 754.153 759.017 746.671C759.219 741.484 761.128 735.617 761.977 730.383Z"/>
	<path fill="#6D6770" d="M177.898 879.582C179.367 875.162 181.764 871.146 184.193 867.2C187.725 868.562 192.637 874.376 196.089 876.802C205.861 883.673 216.291 888.228 227.503 892.111L219.373 900.776L215.386 903.884C200.453 898.99 188.708 891.038 177.898 879.582Z"/>
	<path fill="#6D6770" d="M412.436 889.835C429.313 885.603 442.273 879.606 457.337 870.957C459.529 873.431 459.914 878.749 460.559 882.002C449.098 889.286 436.981 894.631 424.033 898.702C421.795 899.406 419.72 900.162 417.506 899.024L417.34 898.652L417.056 898.035C415.734 895.113 414.176 892.527 412.436 889.835Z"/>
	<path fill="#FEFEFE" d="M488.883 908.635C488.323 910.46 487.702 912.31 487.3 914.179C486.726 916.852 486.471 919.679 487.969 922.062C488.969 922.629 489.138 922.684 490.284 922.659C490.786 922.21 490.827 922.217 491.269 921.58C492.659 919.582 493.919 911.994 493.313 909.574C493.262 909.372 493.167 909.183 493.1 908.986C493.019 908.746 492.948 908.503 492.869 908.263C492.808 908.078 492.743 907.895 492.681 907.711C493.896 907.042 494.9 906.277 496.344 906.541C496.766 907.701 495.774 910.188 495.839 911.664L497.362 912.504C502.947 911.814 502.316 906.812 506.28 904.259C513.142 899.839 525.737 895.095 533.658 892.528C534.08 892.682 533.788 892.545 534.361 893.19C526.999 901.227 520.139 909.45 511.828 916.573C498.426 928.058 461.277 950.353 444.994 955.841C441.218 950.441 439.55 943.224 438.249 936.858C439.983 937.301 441.626 937.547 443.405 937.725C450.705 937.304 457.528 933.463 462.35 928.073C467.629 922.171 469.319 916.398 468.925 908.618C475.561 908.49 482.258 908.159 488.883 908.635Z"/>
	<path fill="#FEFEFE" d="M712.737 954.943C710.192 955.909 707.759 956.769 705.043 957.131C684.802 959.825 657.149 949.387 638.758 941.465C633.749 939.307 627.976 937.265 623.604 933.968C622.97 931.779 632.994 914.215 634.522 911.25C639.567 913.182 643.451 917.242 648.899 918.824C655.958 920.873 658.664 916.049 664.249 913.098C664.435 913 664.622 912.906 664.809 912.81C674.062 923.978 679.11 935.013 691.229 943.948C686.433 942.396 682.177 940.298 677.792 937.822C677.322 936.172 676.531 934.444 675.372 933.164C674.256 931.932 673.377 931.329 671.751 931.223C671.425 931.469 671.198 931.599 670.986 931.996C670.408 933.082 670.189 934.59 670.608 935.754C671.253 937.548 673.414 938.39 675.045 938.947C676.001 939.274 676.763 939.497 677.59 940.096C677.762 940.828 677.893 941.528 677.992 942.275L678.087 943.044C682.399 946.632 688.923 947.467 694.271 948.442C694.395 948.385 694.513 948.311 694.644 948.272C698.819 947.032 709.081 952.911 712.737 954.943ZM661.289 918.671C660.67 920.356 660.467 920.771 661.293 922.39C662.778 925.303 665.93 929.71 668.981 931.012L670.828 930.916C671.301 929.357 671.179 928.783 670.454 927.31C668.943 924.243 665.56 919.809 662.142 918.88C661.859 918.803 661.573 918.741 661.289 918.671Z"/>
	<path fill="#FEFEFE" d="M147.975 933.892C151.202 927.808 154.688 921.52 159.831 916.834C161.189 917.845 161.975 919.48 163.064 920.764C166.321 924.602 171.641 928.364 176.462 929.826C184.575 932.287 193.827 930.181 201.101 926.292C204.586 930.505 206.959 936.193 209.485 941.057C204.814 943.719 199.481 944.453 194.876 946.949C193.635 947.621 193.504 947.764 193.091 949.041C193.434 950.3 193.404 950.392 194.428 951.177C200.401 952.403 208.574 947.525 213.489 944.575C218.738 949.874 224.198 952.504 230.87 955.501C233.139 956.426 235.966 957.309 237.327 959.488C237.793 960.235 237.547 960.357 237.328 961.124C234.321 963.567 228.543 963.573 224.798 963.755C197.383 965.089 192.354 960.503 169.778 947.846C162.251 943.626 154.42 939.707 147.975 933.892Z"/>
	<path fill="#FEFEFE" d="M770.84 928.877C776.071 931.077 781.007 932.006 786.71 931.16C795.551 929.849 804.902 925.058 810.159 917.8C814.424 919.706 833.083 927.971 834.468 931.417C829.749 932.792 816.107 924.15 810.881 922.489L809.978 923.082C809.488 924.231 809.319 924.84 809.446 926.089C810.861 928.062 813.332 929.038 815.543 929.866C817.942 930.766 821.459 932.002 823.888 930.749C824.673 930.345 824.885 930.194 825.756 930.11C826.008 931.656 824.497 931.481 824.254 933.031C826.61 935.1 830.889 935.711 833.907 936.303C835.616 935.7 837.129 934.881 838.717 934.011C845.798 935.535 855.1 935.268 861.559 938.45C862.785 939.054 863.218 939.419 863.602 940.713C862.939 942.147 861.697 942.592 860.367 943.283C846.403 947.118 816.626 945.408 801.355 945.144C790.834 944.962 780.295 945.055 769.771 945.034C769.67 939.618 770.303 934.257 770.84 928.877Z"/>
	<path d="M670.828 930.916L668.981 931.012C665.93 929.71 662.778 925.303 661.293 922.39C660.467 920.771 660.67 920.356 661.289 918.671C661.573 918.741 661.859 918.803 662.142 918.88C665.56 919.809 668.943 924.243 670.454 927.31C671.179 928.783 671.301 929.357 670.828 930.916Z"/>
	<path fill="#FEFEFE" d="M618.503 945.057C619.049 942.605 619.773 940.606 620.844 938.341C640.291 951.229 683.541 965.765 706.793 962.504C707.115 962.459 707.435 962.407 707.756 962.364C711.363 961.878 714.05 958.496 717.216 958.306C718.07 959.824 717.579 961.336 717.273 962.974C714.451 964.228 711.42 965.029 708.377 965.536C686.15 969.236 655.654 960.454 634.694 952.446C629.315 950.392 623.199 948.417 618.503 945.057Z"/>
	<path fill="#FEFEFE" d="M771.565 955.358L771.038 955.362L770.466 954.795C770.418 953.989 770.215 952.856 770.36 952.078C770.787 949.794 777.516 950.29 779.372 950.295C798.683 950.351 818.032 951.031 837.336 950.496C843.492 950.326 850.223 950.536 856.274 949.377C860.304 948.606 863.757 947.362 866.8 944.495C867.123 945.386 867.452 946.182 867.373 947.154C867.249 948.687 866.259 949.91 865.012 950.716C861.779 952.805 856.605 953.519 852.821 953.978C840.294 955.499 781.928 957.708 771.565 955.358Z"/>
</svg>
