<?xml version="1.0" encoding="utf-8" ?>
<svg xmlns="http://www.w3.org/2000/svg" xmlns:xlink="http://www.w3.org/1999/xlink" width="1024" height="1024">
	<path fill="#9F8BE8" d="M0 0L766.521 0L1024 0L1024 398.603C962.286 368.32 898.528 340.759 831.632 324.236C833.891 314.211 836.216 304.044 836.933 293.768C838.724 268.097 830.395 241.449 816.763 219.806C801.735 195.949 778.424 176.13 750.481 169.905C741.587 167.924 733.02 167.812 723.965 168.232C705.204 146.486 687.742 134.833 658.163 132.706C644.599 131.731 631.214 133.819 618.391 138.285C613.845 139.869 609.226 142.3 604.571 143.403C599.261 144.661 593.145 143.912 587.702 144.04C581.177 144.194 574.535 144.975 568.125 146.19C554.59 148.754 540.467 152.549 528.219 158.905C523.243 161.487 518.882 165.407 513.758 167.634C508.305 170.004 502.505 171.68 496.941 173.791C483.727 178.803 470.91 186.005 460.282 195.372C447.862 206.318 439.016 219.476 434.354 235.373C434.123 236.161 432.407 243.325 432.124 243.53C431.917 243.68 431.622 243.625 431.371 243.676C422.38 245.496 412.359 255.944 407.48 263.432C398.984 276.47 396.926 292.457 400.125 307.521C404.479 328.024 417.067 344.41 434.581 355.613C439.551 358.819 444.766 361.629 450.177 364.018C452.998 371.093 456.09 377.985 459.372 384.858C467.151 401.151 472.283 412.889 464.609 430.561C460.644 439.692 448.184 453.888 451.874 463.806C455.126 472.547 468.801 477.064 476.716 480.413C478.723 481.261 480.767 482.059 482.739 482.984C483.688 489.155 484.206 496.109 486.69 501.884C488.779 506.742 494.99 510.495 498.291 515.952C506.03 528.748 507.527 548.103 519.978 557.371C527.72 563.134 537.191 563.835 546.485 564.339C539.892 588.111 534.848 612.286 531.386 636.712C523.855 644.861 516.02 652.527 509.079 661.22C502.1 669.96 495.914 679.363 489.524 688.536C476.249 707.594 463.275 727.03 449.627 745.805C433.471 768.028 414.955 788.612 399.21 811.12C366.638 810.044 334.031 811.16 301.465 810.345L301.173 693.992L301.166 659.687C301.154 653.179 301.599 646.215 300.606 639.78C300.175 636.986 298.72 635.156 296.707 633.251C289.264 626.209 276.977 622.834 267.253 620.677C274.511 576.07 280.406 531.157 286.79 486.414C290.579 459.853 295.447 433.263 298.334 406.603C298.502 405.052 298.845 403.37 298.139 401.96C294.471 399.995 280.729 397.307 276.811 397.758C274.98 399.379 274.416 401.742 273.893 404.051C270.528 418.897 268.865 434.425 266.617 449.478L255.824 521.721L247.433 580.611C245.645 592.762 243.357 605.021 242.262 617.249C232.535 615.892 222.872 614.915 213.036 614.962C211.64 595.085 209.388 575.327 207.435 555.503L199.277 472.004L193.743 415.856C192.783 406.408 192.158 396.777 190.61 387.414C190.331 385.726 190.284 384.648 188.99 383.494C185.078 382.504 171.066 384.314 167.683 386.559C166.367 387.432 165.644 388.436 165.427 390.023C164.851 394.229 167.106 403.691 167.588 408.421C169.465 426.846 170.308 445.709 173.047 464.004C167.951 464.538 154.073 464.871 150.912 469.103C149.527 470.956 168.962 604.433 170.132 619.203C156.892 620.426 132.706 625.1 123.876 636.177C122.183 638.301 121.706 640.788 121.397 643.428C120.795 648.553 121.082 653.914 121.077 659.079L121.046 685.589L121.035 773.921C121.05 786.044 122.054 799.163 120.533 811.149C106.608 810.547 92.6521 811.031 78.7354 810.442C75.2256 805.716 71.0661 801.536 64.9683 800.556C61.987 800.077 58.9844 800.608 56.5484 802.454C53.8425 804.505 53.0128 807.051 52.0735 810.177C34.7361 810.437 17.3359 810.82 0 810.528L0 422.266L0 0ZM267.571 10.9659C256.426 26.0712 253.926 41.6003 256.64 59.9637C259.155 76.979 264.568 93.3676 263.362 110.784C262.755 119.344 261.009 127.785 258.171 135.884C252.359 152.711 243.216 168.202 244.299 186.648C246.261 220.058 276.359 232.484 264.054 273.765L264.545 274.273C273.586 262.294 278.654 248.358 276.505 233.223C274.228 217.196 262.347 204.155 261.996 187.931C261.54 166.839 275.362 148.998 279.421 128.737C283.558 108.089 281.164 87.7357 273.519 68.2394C270.195 59.7622 266.388 51.0985 265.394 41.966C264.62 34.8598 264.9 27.4306 265.918 20.3665C266.263 17.9707 268.091 13.1769 267.571 10.9659ZM132.415 74.454C120.832 91.5736 118.666 110.312 122.539 130.416C125.138 143.902 128.519 156.519 128.333 170.434C128.189 181.163 126.108 191.131 122.622 201.255C117.157 217.125 108.601 232.512 109.114 249.772C109.752 271.251 125.129 288.284 128.657 309.179C129.722 315.486 130.049 323.23 128.316 329.451C127.667 331.782 124.604 337.903 125.247 340.091L126.818 338.754C136.441 327.61 141.784 314.093 140.631 299.301C139.249 281.58 125.42 268.377 124.988 251.921C124.597 237.008 133.472 223.733 138.455 210.196C143.038 197.833 145.653 184.828 146.205 171.654C147.083 146.109 133.152 127.034 130.562 102.994C129.583 93.9062 131.54 85.3453 132.619 76.4179C132.697 75.7708 132.868 74.9482 132.415 74.454Z"/>
	<path d="M264.545 274.273L264.054 273.765C276.359 232.484 246.261 220.058 244.299 186.648C243.216 168.202 252.359 152.711 258.171 135.884C261.009 127.785 262.755 119.344 263.362 110.784C264.568 93.3676 259.155 76.979 256.64 59.9637C253.926 41.6003 256.426 26.0712 267.571 10.9659C268.091 13.1769 266.263 17.9707 265.918 20.3665C264.9 27.4306 264.62 34.8598 265.394 41.966C266.388 51.0985 270.195 59.7622 273.519 68.2394C281.164 87.7357 283.558 108.089 279.421 128.737C275.362 148.998 261.54 166.839 261.996 187.931C262.347 204.155 274.228 217.196 276.505 233.223C278.654 248.358 273.586 262.294 264.545 274.273Z"/>
	<path d="M126.818 338.754L125.247 340.091C124.604 337.903 127.667 331.782 128.316 329.451C130.049 323.23 129.722 315.486 128.657 309.179C125.129 288.284 109.752 271.251 109.114 249.772C108.601 232.512 117.157 217.125 122.622 201.255C126.108 191.131 128.189 181.163 128.333 170.434C128.519 156.519 125.138 143.902 122.539 130.416C118.666 110.312 120.832 91.5736 132.415 74.454C132.868 74.9482 132.697 75.7708 132.619 76.4179C131.54 85.3453 129.583 93.9062 130.562 102.994C133.152 127.034 147.083 146.109 146.205 171.654C145.653 184.828 143.038 197.833 138.455 210.196C133.472 223.733 124.597 237.008 124.988 251.921C125.42 268.377 139.249 281.58 140.631 299.301C141.784 314.093 136.441 327.61 126.818 338.754Z"/>
	<path d="M831.632 324.236C898.528 340.759 962.286 368.32 1024 398.603L1024 406.339C986.421 387.615 947.898 370.848 908.585 356.107C882.602 346.242 856.493 336.936 829.312 330.871C822.193 349.61 814.483 367.5 804.455 384.882C799.06 394.233 792.83 403.08 787.368 412.386C803.083 419.658 818.981 426.689 834.368 434.641C899.268 468.186 977.761 519.959 1024 576.721L1024 588.623C973.179 518.943 863.234 453.067 784.608 418.667C776.711 436.609 772.804 453.276 777.332 472.707C794.288 469.957 812.711 469.197 827.286 479.839C834.524 485.124 839.602 492.536 840.979 501.476C843.535 518.062 833.503 530.333 834.414 540.466C835.57 553.327 853.145 559.689 854.237 574.183C854.956 583.725 847.874 594.126 847.527 605.55C856.672 601.621 865.665 597.401 875.135 594.285C897.418 586.952 934.362 580.983 956.197 589.548C958.784 590.563 961.155 591.936 963.452 593.494C953.615 593.93 943.787 592.476 933.939 592.465C904.046 592.168 874.57 599.501 848.3 613.77C854.229 627.29 860.847 640.431 865.541 654.46C882.577 706.858 886.156 762.701 875.947 816.845C871.905 837.353 865.467 857.623 857.876 877.078C838.468 926.809 812.689 976.927 787.344 1024L779.113 1024C781.512 1017.86 785.505 1011.76 788.648 1005.9C794.985 994.221 801.108 982.423 807.014 970.515C858.796 864.87 891.096 800.658 865.708 679.55C854.253 679.787 842.865 680.964 831.513 682.466C827.377 683.014 823.079 684.365 818.945 684.573C818.209 684.61 817.659 684.534 816.971 684.226C815.669 683.643 815.227 682.878 814.68 681.628C814.746 680.16 814.762 680.017 815.627 678.837C823.705 674.542 853.94 673.319 863.935 672.938C859.046 653.752 850.644 635.763 842.044 618.018C820.904 621.627 799.908 626.039 779.103 631.245C705.319 650.081 633.802 679.177 565.551 712.667C557.623 716.558 529.951 729.345 524.971 734.16C510.462 748.189 494.176 781.508 484.58 799.871C472.707 822.59 460.171 844.729 443.908 864.664C413.794 901.58 361.695 936.111 318.722 955.633C322.707 959.396 329.627 964.656 331.327 969.925C332.08 972.255 331.259 974.93 330.242 977.045C328.26 981.164 324.471 986.07 319.954 987.551C318.605 987.994 317.393 988.028 316.016 987.698C313.278 987.041 310.684 985.295 308.147 984.101C299.193 979.886 290.472 975.244 281.521 971.039L288.666 1013.27C293.609 1016.4 298.314 1020.22 302.774 1024L291.313 1024C282.625 1015.16 270.524 1007.83 260.09 1001.15C212.66 970.78 161.155 947.427 110.946 922.137L69.0043 900.951C57.3374 894.968 45.7337 888.592 33.5486 883.714C22.6646 879.357 11.5294 876.738 0 874.847L0 867.92C36.2552 871.862 69.1581 893.583 101.009 909.712C99.5901 903.259 83.4037 850.781 81.4025 847.82C74.4782 837.576 63.0302 828.392 55.3694 817.497C36.9189 817.442 18.4567 817.936 0 817.959L0 810.528C17.3359 810.82 34.7361 810.437 52.0735 810.177C53.0128 807.051 53.8425 804.505 56.5484 802.454C58.9844 800.608 61.987 800.077 64.9683 800.556C71.0661 801.536 75.2256 805.716 78.7354 810.442C92.6521 811.031 106.608 810.547 120.533 811.149C122.054 799.163 121.05 786.044 121.035 773.921L121.046 685.589L121.077 659.079C121.082 653.914 120.795 648.553 121.397 643.428C121.706 640.788 122.183 638.301 123.876 636.177C132.706 625.1 156.892 620.426 170.132 619.203C168.962 604.433 149.527 470.956 150.912 469.103C154.073 464.871 167.951 464.538 173.047 464.004C170.308 445.709 169.465 426.846 167.588 408.421C167.106 403.691 164.851 394.229 165.427 390.023C165.644 388.436 166.367 387.432 167.683 386.559C171.066 384.314 185.078 382.504 188.99 383.494C190.284 384.648 190.331 385.726 190.61 387.414C192.158 396.777 192.783 406.408 193.743 415.856L199.277 472.004L207.435 555.503C209.388 575.327 211.64 595.085 213.036 614.962C222.872 614.915 232.535 615.892 242.262 617.249C243.357 605.021 245.645 592.762 247.433 580.611L255.824 521.721L266.617 449.478C268.865 434.425 270.528 418.897 273.893 404.051C274.416 401.742 274.98 399.379 276.811 397.758C280.729 397.307 294.471 399.995 298.139 401.96C298.845 403.37 298.502 405.052 298.334 406.603C295.447 433.263 290.579 459.853 286.79 486.414C280.406 531.157 274.511 576.07 267.253 620.677C276.977 622.834 289.264 626.209 296.707 633.251C298.72 635.156 300.175 636.986 300.606 639.78C301.599 646.215 301.154 653.179 301.166 659.687L301.173 693.992L301.465 810.345C334.031 811.16 366.638 810.044 399.21 811.12C414.955 788.612 433.471 768.028 449.627 745.805C463.275 727.03 476.249 707.594 489.524 688.536C495.914 679.363 502.1 669.96 509.079 661.22C516.02 652.527 523.855 644.861 531.386 636.712C534.848 612.286 539.892 588.111 546.485 564.339C537.191 563.835 527.72 563.134 519.978 557.371C507.527 548.103 506.03 528.748 498.291 515.952C494.99 510.495 488.779 506.742 486.69 501.884C484.206 496.109 483.688 489.155 482.739 482.984C480.767 482.059 478.723 481.261 476.716 480.413C468.801 477.064 455.126 472.547 451.874 463.806C448.184 453.888 460.644 439.692 464.609 430.561C472.283 412.889 467.151 401.151 459.372 384.858C456.09 377.985 452.998 371.093 450.177 364.018C444.766 361.629 439.551 358.819 434.581 355.613C417.067 344.41 404.479 328.024 400.125 307.521C396.926 292.457 398.984 276.47 407.48 263.432C412.359 255.944 422.38 245.496 431.371 243.676C431.622 243.625 431.917 243.68 432.124 243.53C432.407 243.325 434.123 236.161 434.354 235.373C439.016 219.476 447.862 206.318 460.282 195.372C470.91 186.005 483.727 178.803 496.941 173.791C502.505 171.68 508.305 170.004 513.758 167.634C518.882 165.407 523.243 161.487 528.219 158.905C540.467 152.549 554.59 148.754 568.125 146.19C574.535 144.975 581.177 144.194 587.702 144.04C593.145 143.912 599.261 144.661 604.571 143.403C609.226 142.3 613.845 139.869 618.391 138.285C631.214 133.819 644.599 131.731 658.163 132.706C687.742 134.833 705.204 146.486 723.965 168.232C733.02 167.812 741.587 167.924 750.481 169.905C778.424 176.13 801.735 195.949 816.763 219.806C830.395 241.449 838.724 268.097 836.933 293.768C836.216 304.044 833.891 314.211 831.632 324.236ZM782.703 504.476C765.701 506.467 746.634 501.396 733.162 490.759C720.311 480.613 709.9 466.861 706.312 450.641C700.985 449.742 695.893 448.742 690.79 446.937C688.858 458.348 683.559 470.28 678.149 480.529C674.746 486.977 670.058 492.466 665.905 498.406C662.069 503.893 658.556 509.73 655.028 515.419C647.021 528.403 639.082 541.429 631.21 554.495C627.82 560.142 624.864 566.443 621.053 571.761C626.533 582.157 631.793 592.75 637.592 602.966C647.414 595.523 656.832 587.556 666.641 580.085C684.016 566.888 701.966 554.465 720.44 542.856C741.003 529.948 763.034 519.791 783.387 506.605C787.264 504.173 799.489 493.505 803.016 493.587C804.468 493.621 804.61 493.958 805.5 494.977C806.631 501.793 785.373 514.147 780.023 517.13C764.981 525.516 749.409 533.214 734.668 542.103C679.711 575.506 628.994 615.43 583.621 661.006C575.524 669.181 567.832 677.63 560.176 686.217C555.977 690.928 551.286 695.627 547.836 700.913C573.816 678.36 607.415 653.982 636.484 635.594C654.101 624.45 672.229 614.174 690.144 603.529C706.061 594.071 721.88 584.365 738.159 575.536C757.355 565.323 776.995 555.969 797.021 547.5C802.158 545.35 807.124 542.689 812.363 540.792C814.851 539.891 816.993 539.426 819.438 540.594C820.359 541.606 820.604 542.106 820.814 543.459C819.628 546.262 816.917 546.382 814.353 547.471C798.118 554.364 781.758 561.195 765.967 569.055C739.836 582.061 714.979 596.908 689.825 611.658C671.951 621.927 654.286 632.556 636.842 643.539C617.091 656.381 597.852 669.994 579.171 684.346C564.825 695.325 549.609 706.567 537.092 719.628C559.852 708.205 582.469 696.367 605.64 685.79C615.151 681.449 624.932 677.678 634.573 673.633C682.859 653.373 732.769 635.486 783.601 622.773C796.422 619.531 809.353 616.734 822.368 614.389C828.324 613.264 834.371 611.857 840.411 611.314C840.121 605.49 840.664 599.655 842.026 593.985C843.352 588.24 847.956 579.797 847.077 574.045C845.134 561.338 828.272 555.685 827.18 542.036C826.04 527.789 837.106 515.411 833.902 500.531C832.419 493.644 827.822 488.528 821.967 484.92C809.549 477.268 793.762 476.845 779.882 480.063C781.281 484.129 783.688 487.957 784.807 492.094C785.958 496.346 784.805 500.692 782.703 504.476ZM179.099 887.041C177.908 889.035 176.858 890.955 175.955 893.102C196.909 906.335 220.017 916.137 242.493 926.498L286.531 946.366C294.792 950.135 302.918 954.274 311.253 957.868C291.587 938.321 274.701 913.081 249.61 900.288C239.294 895.028 228.021 891.507 217.112 887.672C207.637 883.888 198.981 878.464 190.242 873.284C185.21 877.15 182.153 881.527 179.099 887.041ZM649.513 139.704C638.427 140.292 626.734 142.45 616.346 146.518C655.356 158.185 680.674 182.798 699.663 217.974C706.026 229.761 711.203 242.226 716.155 254.658C717.22 255.328 718.446 256.046 719.168 257.104C723.149 262.939 726.526 278.504 728.187 285.793C729.923 293.411 731.841 301.79 732.114 309.596C753.679 322.654 769.563 338.848 775.819 364.003C780.625 383.323 776.784 402.795 766.481 419.654C757.661 434.41 743.283 445.004 726.577 449.058C722.351 450.07 718.112 450.395 713.783 450.561C719.527 468.122 729.742 481.975 746.375 490.505C747.721 491.19 749.077 491.854 750.443 492.496C760.026 496.333 768.978 497.491 779.254 497.873C768.112 472.875 762.774 453.533 773.014 427.012C779.686 409.732 790.236 394.597 799.423 378.633C816.483 348.993 832.174 312.73 829.243 277.891C828.164 265.071 824.332 252.424 819.203 240.674C807.964 214.93 787.911 191.022 761.205 180.534C745.518 174.374 737.687 174.673 721.476 176.151C716.698 171.435 712.547 166.143 707.677 161.516C691.692 146.329 672.64 139.496 650.77 139.676C650.351 139.68 649.932 139.691 649.513 139.704ZM584.582 151.205C571.892 152.159 560.124 154.7 548.051 158.647C586.169 164.09 621.684 191.744 644.343 221.939C652.864 233.26 660.527 245.202 667.266 257.666C668.267 259.529 670.794 265.636 672.617 266.037C684.459 262.003 695.908 257.991 708.016 254.74C694.178 216.478 671.518 178.017 633.201 160.16C618.722 153.413 600.623 149.285 584.582 151.205ZM544.667 166.631C535.254 168.538 526.157 171.698 517.02 174.603C511.056 176.499 504.982 178.069 499.139 180.329C478.936 188.143 460.516 201.317 448.389 219.506C443.071 227.481 438.84 236.168 433.625 244.205L433.75 244.787C434.044 246.198 434.283 247.257 433.956 248.697C431.394 252.085 426.12 254.507 422.78 257.295C409.225 268.608 404.206 284.645 406.658 301.956C409.309 320.669 419.607 335.884 434.607 347.084C439.124 350.406 443.886 353.379 448.853 355.979C444.412 341.43 441.278 327.323 440.002 312.133C439.488 306.009 440.127 299.551 439.118 293.53C438.144 287.72 431.493 277.552 434.006 272.293C434.994 271.415 435.603 271.013 436.966 270.988C438.3 270.963 439.274 271.516 440.215 272.404C442.71 278.643 444.239 285.116 446.956 291.31C455.501 310.407 470.883 325.614 490.077 333.94C494.026 335.653 498.154 337.1 502.386 337.919C496.87 329.254 490.968 320.655 486.037 311.64C484.106 308.111 483.197 304.143 481.249 300.668C478.301 295.407 465.697 278.914 466.743 273.583C466.925 272.66 467.417 272.15 468.027 271.489C469.464 270.954 469.625 270.983 471.127 271.328C475.273 274.852 478.292 282.45 481.371 287.089C491.858 302.884 504.095 315.571 519.666 326.381C537.116 337.085 557.601 346.55 578.614 344.059C573.088 338.289 553.027 316.89 553.178 309.667C553.199 308.673 553.421 308.196 553.923 307.374C555.055 306.718 555.626 306.316 557.014 306.608C558.158 306.849 559.315 307.753 560.044 308.639C561.315 310.184 561.975 312.25 563.069 313.938C565.899 318.309 569.396 322.563 572.745 326.557C579.002 334.021 585.992 341.09 593.219 347.613C604.07 357.407 623.429 370.69 629.51 383.74C636.982 399.773 640.967 417.281 659.442 424.219C660.394 424.573 661.363 424.881 662.346 425.14C649.444 406.109 643.317 386.923 647.723 363.767C651.89 341.867 665.11 325.835 682.903 313.346C679.014 301.717 674.264 290.87 669.331 279.669C667.418 275.325 666.032 270.76 663.961 266.485C659.887 258.075 654.943 250.066 649.899 242.214C631.069 212.895 607.797 190.305 576.463 174.694C566.604 169.782 555.91 165.291 544.667 166.631ZM712.053 261.119C699.102 263.994 686.464 268.611 673.902 272.828C676.969 280.031 680.432 287.058 683.46 294.276C687.821 304.899 691.757 315.69 695.26 326.625L697.892 335.171C706.768 333.009 716.106 330.295 724.241 326.08C727.498 311.815 719.937 274.793 712.703 261.426L712.053 261.119ZM446.542 305.415C448.439 324.541 451.433 343.77 457.594 362.05C463.175 378.609 474.972 394.925 475.615 412.392C476.126 426.273 469.437 437.669 462.401 449.105C460.891 451.559 458.37 454.859 457.946 457.755C457.49 460.873 459.435 463.501 461.746 465.365C468.834 471.082 483.994 473.637 488.606 479.58C492.492 484.587 491.342 493.426 493.777 499.336C496.107 504.992 502.688 508.622 505.643 514.363C517.516 537.431 514.934 560.748 549.5 556.389C580.218 552.515 632.671 520.282 655.568 499.072C669.998 484.378 680.913 464.266 684.366 443.834C679.309 440.638 674.511 437.196 669.706 433.638C657.948 432.914 647.94 427.74 640.151 418.958C633.973 411.992 629.916 403.678 626.711 395.009C625.442 391.574 624.321 387.385 622.334 384.301C615.698 373.997 595.763 359.581 585.978 349.943C566.794 354.895 542.117 347.584 525.547 337.818C514.436 331.27 504.756 323.584 495.548 314.572L496.017 315.436C499.145 321.134 512.945 338.246 511.442 343.754C511.138 344.865 510.329 345.5 509.246 345.791C507.207 346.337 504.06 345.312 502.052 344.821C489.776 341.82 478.057 336.819 467.97 329.127C462.56 325.002 457.114 320.028 453.05 314.545C450.998 311.777 449.014 307.705 446.542 305.415ZM732.249 317.877C732.152 322.936 732.372 328.039 728.376 331.82C724.261 335.713 716.441 337.35 711.129 339.131C722.555 337.289 734.1 338.989 743.632 345.928C751.916 351.959 757.558 361.658 759.075 371.745C760.87 383.671 758.793 395.785 751.461 405.519C745.075 413.995 735.324 420.07 724.733 421.426C714.24 422.685 703.676 419.72 695.371 413.184C686.689 406.458 681.334 396.012 680.113 385.166C678.834 373.923 682.093 362.634 689.167 353.803C694.245 347.501 700.148 343.476 707.525 340.312C703.251 341.141 698.493 342.574 694.508 340.007C689.606 336.848 687.226 325.497 685.371 320.054C681.93 322.408 678.625 324.847 675.378 327.463C661.809 340.832 653.259 357.953 653.047 377.204C652.835 396.408 659.362 413.002 672.853 426.691C683.361 437.352 697.207 443.567 712.256 443.595C727.149 443.623 740.889 437.734 751.362 427.179C763.658 414.762 770.447 397.925 770.203 380.452C770.102 361.472 762.282 343.35 748.542 330.255C743.595 325.46 738.011 321.613 732.249 317.877ZM718.664 346.092C699.931 346.863 685.392 362.713 686.237 381.442C687.082 400.172 702.988 414.647 721.715 413.729C740.336 412.815 754.714 397.016 753.874 378.391C753.034 359.766 737.292 345.326 718.664 346.092ZM178.39 391.196C176.376 391.452 174.341 391.657 172.338 391.983C175.888 422.169 178.393 452.543 181.269 482.805L190.196 573.229L194.989 623.149C196.284 637.051 197.341 651.204 199.618 664.983L205.25 664.999L210.776 664.977C210.206 652.897 208.829 640.816 207.71 628.776C205.742 606.492 203.584 584.226 201.237 561.979L184.277 390.719C182.34 390.865 180.302 390.889 178.39 391.196ZM280.28 404.869C266.974 490.722 254.406 576.688 242.579 662.758C245.812 662.19 249.233 661.786 252.379 660.86C253.599 660.372 254.278 660.375 254.848 659.115C256.865 654.659 256.738 647.093 257.395 642.185L261.32 614.491L285.936 446.382C287.961 433.106 289.487 419.764 291.718 406.515L280.28 404.869ZM167.107 471.713C163.837 472.118 160.514 472.42 157.302 473.167C160.58 491.996 162.539 511.171 165.018 530.129L175.647 610.392L180.252 645.891C180.934 651.194 181.247 656.643 182.193 661.899C182.344 662.739 182.444 663.2 183.082 663.811L183.507 663.899C186.574 664.136 189.673 664.469 192.746 664.561C189.732 640.348 187.558 616.049 184.693 591.824C180.646 558.805 176.303 525.822 171.665 492.88C171.082 488.627 170.492 474.731 168.564 471.774C168.135 471.746 167.526 471.644 167.107 471.713ZM597.517 546.94C583.431 553.009 569.048 559.557 554.002 562.858C547.842 585.117 542.891 607.693 539.172 630.486C542.466 627.544 545.789 624.688 549.25 621.944C555.211 617.829 562.016 614.104 567.48 609.391C582.295 596.613 595.637 579.461 613.99 571.498C611.62 565.244 606.817 550.645 600.468 547.473C599.486 546.983 598.593 546.961 597.517 546.94ZM615.384 577.878C601.695 587.505 589.722 597.595 577.606 609.143C572.085 614.405 566.367 619.706 561.966 625.974C549.649 643.518 538.638 683.219 534.913 704.576L534.829 705.071L537.885 699.715C547.141 682.99 555.557 665.895 565.807 649.724C581.128 625.555 600.107 606.298 621.45 587.495C620.165 585.156 617.558 578.993 615.384 577.878ZM624.327 593.602C617.293 600.334 609.892 606.757 603.051 613.674C589.364 627.512 578.09 642.658 567.716 659.072C562.648 667.09 557.587 675.131 553.889 683.896L558.636 678.353C581.231 652.774 605.807 629.017 632.138 607.303C630.014 603.278 627.419 596.729 624.327 593.602ZM213.887 621.965C215.557 636.323 216.3 650.758 217.857 665.115C222.039 664.831 232.286 664.993 235.711 663.224C235.985 662.013 236.21 660.86 236.347 659.623C237.768 647.656 239.006 635.514 241.247 623.674C232.144 622.475 223.059 622.162 213.887 621.965ZM168.817 625.618C158.748 627.713 135.577 631.961 129.671 640.442C128.633 641.934 128.306 643.442 128.78 645.235C129.775 649.004 134.932 651.614 138.197 653.133C140.229 654.079 142.275 655.01 144.375 655.796C154.48 659.582 165.041 661.288 175.638 663.064C173.932 650.747 172.523 638.28 170.332 626.045C169.339 625.393 169.855 625.488 168.817 625.618ZM266.523 627.452C264.586 637.952 262.789 648.596 261.769 659.228C269.189 657.544 276.102 655.538 283.19 652.715C286.622 651.014 293.024 648.317 294.05 644.272C294.474 642.601 294.172 641.217 293.229 639.809C288.738 633.102 273.864 629.435 266.523 627.452ZM552.492 627.976C538.018 637.376 525.619 651.941 514.739 665.231C509.723 671.359 505.29 677.97 500.741 684.445C488.583 701.751 477.229 719.634 464.836 736.767C453.36 752.64 441.567 768.281 429.463 783.681C412.934 804.876 396.04 824.863 385.274 849.824C391 845.043 396.805 840.322 402.202 835.168C427.079 811.408 447.014 782.925 466.714 754.883C474.813 743.355 483.333 732.045 491.11 720.305C492.423 718.322 494.535 713.961 497.074 713.87C498.351 713.824 499.112 714.472 499.936 715.326C500.582 716.795 500.504 717.884 499.946 719.348C497.909 724.7 487.778 737.618 483.894 743.121C463.015 772.708 439.619 808.238 414.103 833.667C377.203 870.051 329.446 895.272 282.864 916.907C293.544 927.828 303.224 939.693 314.141 950.39C332.632 941.85 349.672 932.026 366.732 920.946C407.4 894.534 436.605 867.633 462.107 826.214C474.633 805.871 484.549 783.874 496.175 763.006C500.217 755.862 504.653 748.949 509.463 742.298C512.401 738.193 522.894 725.97 524.102 722.461C526.366 715.886 526.743 708.087 528.312 701.244C531.959 685.336 536.269 669.947 541.689 654.539C542.992 650.834 552.768 628.829 552.737 628.201L552.492 627.976ZM293.989 654.54C260.314 675.089 192.215 675.154 154.428 665.882C145.176 663.612 136.512 659.917 128.06 655.567L128.049 841.651C142.194 843.918 157.238 847.872 170.618 853.023C179.996 847.347 196.28 838.978 207.535 841.882C216.079 844.087 224.547 859.456 228.449 866.68C231.945 873.214 234.962 879.993 237.474 886.964C247.049 891.159 256.555 895.49 265.162 901.496C269.225 904.332 273.123 908.617 277.405 910.95C310.046 898.082 348.175 876.611 376.387 855.808C378.675 843.56 388.144 828.139 394.874 817.538L301.264 817.566L301.217 865.845C301.233 872.525 301.903 879.664 301.408 886.29C301.256 888.324 300.638 890.719 299.085 892.147C298.372 892.803 298.024 892.76 297.114 892.967C295.717 892.222 295.079 891.5 294.616 889.954C293.394 885.87 294.133 857.924 294.107 852.293L294.364 693.469C294.366 689.447 294.799 655.295 293.989 654.54ZM63.4676 807.522C61.7916 808.123 60.0762 808.68 58.4494 809.403C67.5782 822.76 79.6839 834.529 90.5438 846.484C100.067 856.968 112.041 871.495 123.003 880.126C128.873 884.748 140.211 888.969 147.343 893.517C158.728 900.778 168.555 910.58 180.29 917.193C196.687 926.433 217.047 934.003 234.455 941.809C262.093 954.265 289.532 967.158 316.762 980.483C317.827 980.475 318.227 980.327 319.103 979.725C321.506 977.181 323.548 974.48 325.183 971.373C310.481 966.772 297.27 958.734 283.252 952.448C250.819 937.905 217.901 923.889 186.226 907.744C177.953 903.526 169.981 898.78 161.848 894.304C155.445 890.781 147.535 888.294 141.642 884.122C132.915 877.945 123.259 865.696 115.874 857.673C105.298 846.105 94.4083 834.828 83.2158 823.856C78.6636 819.365 74.1866 814.335 69.1451 810.415C67.3314 809.005 65.7566 807.921 63.4676 807.522ZM87.4992 818.006C94.3538 824.329 100.875 831.029 107.473 837.618C111.99 838.399 116.499 839.227 121.055 839.746L120.504 817.897L87.4992 818.006ZM114.255 845.772C125.84 857.714 136.852 871.478 150.15 881.493C151.946 878.254 153.697 874.991 155.403 871.703C158.198 866.923 161.325 862.345 164.762 858.003C148.124 853.366 131.337 848.506 114.255 845.772ZM205.316 847.735C189.979 850.521 175.246 854.843 165.991 868.217C162.509 873.25 159.795 878.78 157.226 884.32C161.316 886.356 165.354 888.349 169.634 889.968C172.489 883.77 175.902 878.125 180.385 872.958C183.284 869.902 186.022 867.046 190.526 866.859C191.753 866.808 192.58 867.045 193.694 867.547C197.639 869.326 201.339 871.817 205.124 873.917C212.432 877.973 220.276 881.509 228.291 883.863C223.899 871.346 215.785 856.258 205.316 847.735ZM92.9911 859.977L105.055 898.213C106.683 903.272 108.675 908.273 110.14 913.374C117.58 918.214 125.744 921.844 133.702 925.735L134.077 925.528L133.717 925.145C124.725 916.514 111.214 903.939 111.194 890.338C111.19 887.336 112.13 885.082 113.209 882.349C106.544 874.92 100.412 866.671 92.9911 859.977ZM118.358 887.583C118.395 898.895 125.879 907.774 133.506 915.366C139.862 921.694 147.773 930.413 154.962 935.5C162.782 941.033 175.209 946.067 183.985 950.559C200.664 959.182 217.225 968.031 233.665 977.102C249.895 986.073 264.829 996.744 280.474 1006.63C278.535 995.291 276.875 978.484 273.912 968.079C251.458 955.819 227.329 946.055 203.908 935.81C194.758 931.807 185.424 928.225 176.621 923.475C166.957 918.261 159.268 910.694 150.593 904.124C144.263 899.33 137.193 895.435 129.998 892.111C126.371 890.434 122.254 888.4 118.358 887.583Z"/>
	<path fill="#302C42" d="M616.346 146.518C626.734 142.45 638.427 140.292 649.513 139.704C649.932 139.691 650.351 139.68 650.77 139.676C672.64 139.496 691.692 146.329 707.677 161.516C712.547 166.143 716.698 171.435 721.476 176.151C737.687 174.673 745.518 174.374 761.205 180.534C787.911 191.022 807.964 214.93 819.203 240.674C824.332 252.424 828.164 265.071 829.243 277.891C832.174 312.73 816.483 348.993 799.423 378.633C790.236 394.597 779.686 409.732 773.014 427.012C762.774 453.533 768.112 472.875 779.254 497.873C768.978 497.491 760.026 496.333 750.443 492.496C749.077 491.854 747.721 491.19 746.375 490.505C729.742 481.975 719.527 468.122 713.783 450.561C718.112 450.395 722.351 450.07 726.577 449.058C743.283 445.004 757.661 434.41 766.481 419.654C776.784 402.795 780.625 383.323 775.819 364.003C769.563 338.848 753.679 322.654 732.114 309.596C731.841 301.79 729.923 293.411 728.187 285.793C726.526 278.504 723.149 262.939 719.168 257.104C718.446 256.046 717.22 255.328 716.155 254.658C711.203 242.226 706.026 229.761 699.663 217.974C680.674 182.798 655.356 158.185 616.346 146.518Z"/>
	<path fill="#9F8BE8" d="M548.051 158.647C560.124 154.7 571.892 152.159 584.582 151.205C600.623 149.285 618.722 153.413 633.201 160.16C671.518 178.017 694.178 216.478 708.016 254.74C695.908 257.991 684.459 262.003 672.617 266.037C670.794 265.636 668.267 259.529 667.266 257.666C660.527 245.202 652.864 233.26 644.343 221.939C621.684 191.744 586.169 164.09 548.051 158.647Z"/>
	<path fill="#302C42" d="M448.853 355.979C443.886 353.379 439.124 350.406 434.607 347.084C419.607 335.884 409.309 320.669 406.658 301.956C404.206 284.645 409.225 268.608 422.78 257.295C426.12 254.507 431.394 252.085 433.956 248.697C434.283 247.257 434.044 246.198 433.75 244.787L433.625 244.205C438.84 236.168 443.071 227.481 448.389 219.506C460.516 201.317 478.936 188.143 499.139 180.329C504.982 178.069 511.056 176.499 517.02 174.603C526.157 171.698 535.254 168.538 544.667 166.631C555.91 165.291 566.604 169.782 576.463 174.694C607.797 190.305 631.069 212.895 649.899 242.214C654.943 250.066 659.887 258.075 663.961 266.485C666.032 270.76 667.418 275.325 669.331 279.669C674.264 290.87 679.014 301.717 682.903 313.346C665.11 325.835 651.89 341.867 647.723 363.767C643.317 386.923 649.444 406.109 662.346 425.14C661.363 424.881 660.394 424.573 659.442 424.219C640.967 417.281 636.982 399.773 629.51 383.74C623.429 370.69 604.07 357.407 593.219 347.613C585.992 341.09 579.002 334.021 572.745 326.557C569.396 322.563 565.899 318.309 563.069 313.938C561.975 312.25 561.315 310.184 560.044 308.639C559.315 307.753 558.158 306.849 557.014 306.608C555.626 306.316 555.055 306.718 553.923 307.374C553.421 308.196 553.199 308.673 553.178 309.667C553.027 316.89 573.088 338.289 578.614 344.059C557.601 346.55 537.116 337.085 519.666 326.381C504.095 315.571 491.858 302.884 481.371 287.089C478.292 282.45 475.273 274.852 471.127 271.328C469.625 270.983 469.464 270.954 468.027 271.489C467.417 272.15 466.925 272.66 466.743 273.583C465.697 278.914 478.301 295.407 481.249 300.668C483.197 304.143 484.106 308.111 486.037 311.64C490.968 320.655 496.87 329.254 502.386 337.919C498.154 337.1 494.026 335.653 490.077 333.94C470.883 325.614 455.501 310.407 446.956 291.31C444.239 285.116 442.71 278.643 440.215 272.404C439.274 271.516 438.3 270.963 436.966 270.988C435.603 271.013 434.994 271.415 434.006 272.293C431.493 277.552 438.144 287.72 439.118 293.53C440.127 299.551 439.488 306.009 440.002 312.133C441.278 327.323 444.412 341.43 448.853 355.979Z"/>
	<path fill="#9F8BE8" d="M673.902 272.828C686.464 268.611 699.102 263.994 712.053 261.119L712.703 261.426C719.937 274.793 727.498 311.815 724.241 326.08C716.106 330.295 706.768 333.009 697.892 335.171L695.26 326.625C691.757 315.69 687.821 304.899 683.46 294.276C680.432 287.058 676.969 280.031 673.902 272.828Z"/>
	<path fill="#FEFEFE" d="M655.568 499.072C632.671 520.282 580.218 552.515 549.5 556.389C514.934 560.748 517.516 537.431 505.643 514.363C502.688 508.622 496.107 504.992 493.777 499.336C491.342 493.426 492.492 484.587 488.606 479.58C483.994 473.637 468.834 471.082 461.746 465.365C459.435 463.501 457.49 460.873 457.946 457.755C458.37 454.859 460.891 451.559 462.401 449.105C469.437 437.669 476.126 426.273 475.615 412.392C474.972 394.925 463.175 378.609 457.594 362.05C451.433 343.77 448.439 324.541 446.542 305.415C449.014 307.705 450.998 311.777 453.05 314.545C457.114 320.028 462.56 325.002 467.97 329.127C478.057 336.819 489.776 341.82 502.052 344.821C504.06 345.312 507.207 346.337 509.246 345.791C510.329 345.5 511.138 344.865 511.442 343.754C512.945 338.246 499.145 321.134 496.017 315.436L495.548 314.572C504.756 323.584 514.436 331.27 525.547 337.818C542.117 347.584 566.794 354.895 585.978 349.943C595.763 359.581 615.698 373.997 622.334 384.301C624.321 387.385 625.442 391.574 626.711 395.009C629.916 403.678 633.973 411.992 640.151 418.958C647.94 427.74 657.948 432.914 669.706 433.638C674.511 437.196 679.309 440.638 684.366 443.834C680.913 464.266 669.998 484.378 655.568 499.072ZM511.186 349.662C501.61 351.143 487.555 354.52 481.299 362.615C480.303 363.903 479.363 365.701 479.513 367.388C479.631 368.704 480.102 369.108 480.988 369.945C482.351 370.112 482.965 370.173 484.133 369.379C485.839 368.219 487.307 366.638 488.993 365.421C493.749 361.989 499.739 359.235 505.415 357.802C513.446 356.031 523.538 355.278 531.549 357.54C534.905 358.488 538.13 360.214 541.62 360.646C543.309 360.855 544.387 360.731 545.596 359.509C545.479 357.715 544.803 356.64 543.42 355.489C536.219 349.499 520.674 348.628 511.768 349.577C511.573 349.598 511.38 349.634 511.186 349.662ZM493.632 381.117C492.576 382.14 491.636 382.63 491.639 384.247C491.643 386.979 493.801 393.238 496.026 395.069C496.768 395.679 498.08 395.783 499.003 395.908C500.488 394.173 500.78 393.158 500.576 390.892C500.304 387.865 498.72 384.509 496.331 382.576C495.532 381.929 494.571 381.515 493.632 381.117ZM545.579 394.833L545.148 395.18C535.843 402.793 531.291 409.065 519.032 412.154C515.516 413.039 502.757 413.966 501.277 414.879C500.195 415.548 500.032 416.244 499.8 417.374C500.205 418.615 500.632 419.652 501.805 420.375C502.298 420.68 502.944 420.862 503.493 421.042C517.968 421.487 532.608 417.073 543.289 406.955C545.336 405.016 549.526 400.672 549.545 397.829C549.55 397.12 549.025 396.413 548.496 395.978C547.705 395.329 546.567 395.009 545.579 394.833ZM485.439 460.128C484.265 461.238 483.934 461.787 483.484 463.338C483.914 464.514 484.257 465.023 485.413 465.605C490.08 467.952 498.746 467.627 503.876 467.313C504.894 466.114 505.332 465.519 505.668 463.928C505.242 462.659 505.003 462.101 503.75 461.486C499.527 459.414 490.201 459.857 485.439 460.128ZM550.014 471.26C549.89 471.394 549.764 471.527 549.641 471.663C546.795 474.805 544.696 478.483 542.002 481.737C536.588 488.276 527.188 493.68 518.635 494.15C514.87 494.358 510.999 493.522 507.307 492.863C506.493 493.74 505.885 494.203 505.91 495.51C505.939 496.986 506.969 498.773 508.164 499.613C508.698 499.989 509.272 500.311 509.84 500.631C520.052 502.463 529.266 500.218 537.786 494.334C542.753 490.905 553.471 481.221 554.478 475.186C554.712 473.777 554.493 473.389 553.887 472.177C552.57 471.162 551.588 471.251 550.014 471.26Z"/>
	<path fill="#9F8BE8" d="M711.129 339.131C716.441 337.35 724.261 335.713 728.376 331.82C732.372 328.039 732.152 322.936 732.249 317.877C738.011 321.613 743.595 325.46 748.542 330.255C762.282 343.35 770.102 361.472 770.203 380.452C770.447 397.925 763.658 414.762 751.362 427.179C740.889 437.734 727.149 443.623 712.256 443.595C697.207 443.567 683.361 437.352 672.853 426.691C659.362 413.002 652.835 396.408 653.047 377.204C653.259 357.953 661.809 340.832 675.378 327.463C678.625 324.847 681.93 322.408 685.371 320.054C687.226 325.497 689.606 336.848 694.508 340.007C698.493 342.574 703.251 341.141 707.525 340.312C700.148 343.476 694.245 347.501 689.167 353.803C682.093 362.634 678.834 373.923 680.113 385.166C681.334 396.012 686.689 406.458 695.371 413.184C703.676 419.72 714.24 422.685 724.733 421.426C735.324 420.07 745.075 413.995 751.461 405.519C758.793 395.785 760.87 383.671 759.075 371.745C757.558 361.658 751.916 351.959 743.632 345.928C734.1 338.989 722.555 337.289 711.129 339.131Z"/>
	<path fill="#9F8BE8" d="M829.312 330.871C856.493 336.936 882.602 346.242 908.585 356.107C947.898 370.848 986.421 387.615 1024 406.339L1024 576.721C977.761 519.959 899.268 468.186 834.368 434.641C818.981 426.689 803.083 419.658 787.368 412.386C792.83 403.08 799.06 394.233 804.455 384.882C814.483 367.5 822.193 349.61 829.312 330.871Z"/>
	<path fill="#9F8BE8" d="M721.715 413.729C702.988 414.647 687.082 400.172 686.237 381.442C685.392 362.713 699.931 346.863 718.664 346.092C737.292 345.326 753.034 359.766 753.874 378.391C754.714 397.016 740.336 412.815 721.715 413.729Z"/>
	<path d="M505.415 357.802C499.739 359.235 493.749 361.989 488.993 365.421C487.307 366.638 485.839 368.219 484.133 369.379C482.965 370.173 482.351 370.112 480.988 369.945C480.102 369.108 479.631 368.704 479.513 367.388C479.363 365.701 480.303 363.903 481.299 362.615C487.555 354.52 501.61 351.143 511.186 349.662C511.38 349.634 511.573 349.598 511.768 349.577C520.674 348.628 536.219 349.499 543.42 355.489C544.803 356.64 545.479 357.715 545.596 359.509C544.387 360.731 543.309 360.855 541.62 360.646C538.13 360.214 534.905 358.488 531.549 357.54C523.538 355.278 513.446 356.031 505.415 357.802Z"/>
	<path d="M499.003 395.908C498.08 395.783 496.768 395.679 496.026 395.069C493.801 393.238 491.643 386.979 491.639 384.247C491.636 382.63 492.576 382.14 493.632 381.117C494.571 381.515 495.532 381.929 496.331 382.576C498.72 384.509 500.304 387.865 500.576 390.892C500.78 393.158 500.488 394.173 499.003 395.908Z"/>
	<path fill="#9F8BE8" d="M172.338 391.983C174.341 391.657 176.376 391.452 178.39 391.196C180.302 390.889 182.34 390.865 184.277 390.719L201.237 561.979C203.584 584.226 205.742 606.492 207.71 628.776C208.829 640.816 210.206 652.897 210.776 664.977L205.25 664.999L199.618 664.983C197.341 651.204 196.284 637.051 194.989 623.149L190.196 573.229L181.269 482.805C178.393 452.543 175.888 422.169 172.338 391.983Z"/>
	<path d="M503.493 421.042C502.944 420.862 502.298 420.68 501.805 420.375C500.632 419.652 500.205 418.615 499.8 417.374C500.032 416.244 500.195 415.548 501.277 414.879C502.757 413.966 515.516 413.039 519.032 412.154C531.291 409.065 535.843 402.793 545.148 395.18L545.579 394.833C546.567 395.009 547.705 395.329 548.496 395.978C549.025 396.413 549.55 397.12 549.545 397.829C549.526 400.672 545.336 405.016 543.289 406.955C532.608 417.073 517.968 421.487 503.493 421.042Z"/>
	<path fill="#9F8BE8" d="M242.579 662.758C254.406 576.688 266.974 490.722 280.28 404.869L291.718 406.515C289.487 419.764 287.961 433.106 285.936 446.382L261.32 614.491L257.395 642.185C256.738 647.093 256.865 654.659 254.848 659.115C254.278 660.375 253.599 660.372 252.379 660.86C249.233 661.786 245.812 662.19 242.579 662.758Z"/>
	<path fill="#9F8BE8" d="M784.608 418.667C863.234 453.067 973.179 518.943 1024 588.623L1024 739.415C1004.71 769.971 984.138 799.699 962.341 828.521C957.202 835.3 951.686 841.787 946.423 848.469C919.51 882.685 891.584 916.091 862.68 948.642C846.145 967.563 829.709 986.442 812.614 1004.86C806.687 1011.25 800.865 1017.89 794.661 1024L787.344 1024C812.689 976.927 838.468 926.809 857.876 877.078C865.467 857.623 871.905 837.353 875.947 816.845C886.156 762.701 882.577 706.858 865.541 654.46C860.847 640.431 854.229 627.29 848.3 613.77C874.57 599.501 904.046 592.168 933.939 592.465C943.787 592.476 953.615 593.93 963.452 593.494C961.155 591.936 958.784 590.563 956.197 589.548C934.362 580.983 897.418 586.952 875.135 594.285C865.665 597.401 856.672 601.621 847.527 605.55C847.874 594.126 854.956 583.725 854.237 574.183C853.145 559.689 835.57 553.327 834.414 540.466C833.503 530.333 843.535 518.062 840.979 501.476C839.602 492.536 834.524 485.124 827.286 479.839C812.711 469.197 794.288 469.957 777.332 472.707C772.804 453.276 776.711 436.609 784.608 418.667Z"/>
	<path fill="#FEFEFE" d="M706.312 450.641C709.9 466.861 720.311 480.613 733.162 490.759C746.634 501.396 765.701 506.467 782.703 504.476L783.387 506.605C763.034 519.791 741.003 529.948 720.44 542.856C701.966 554.465 684.016 566.888 666.641 580.085C656.832 587.556 647.414 595.523 637.592 602.966C631.793 592.75 626.533 582.157 621.053 571.761C624.864 566.443 627.82 560.142 631.21 554.495C639.082 541.429 647.021 528.403 655.028 515.419C658.556 509.73 662.069 503.893 665.905 498.406C670.058 492.466 674.746 486.977 678.149 480.529C683.559 470.28 688.858 458.348 690.79 446.937C695.893 448.742 700.985 449.742 706.312 450.641Z"/>
	<path d="M503.876 467.313C498.746 467.627 490.08 467.952 485.413 465.605C484.257 465.023 483.914 464.514 483.484 463.338C483.934 461.787 484.265 461.238 485.439 460.128C490.201 459.857 499.527 459.414 503.75 461.486C505.003 462.101 505.242 462.659 505.668 463.928C505.332 465.519 504.894 466.114 503.876 467.313Z"/>
	<path fill="#9F8BE8" d="M157.302 473.167C160.514 472.42 163.837 472.118 167.107 471.713C167.526 471.644 168.135 471.746 168.564 471.774C170.492 474.731 171.082 488.627 171.665 492.88C176.303 525.822 180.646 558.805 184.693 591.824C187.558 616.049 189.732 640.348 192.746 664.561C189.673 664.469 186.574 664.136 183.507 663.899L183.082 663.811C182.444 663.2 182.344 662.739 182.193 661.899C181.247 656.643 180.934 651.194 180.252 645.891L175.647 610.392L165.018 530.129C162.539 511.171 160.58 491.996 157.302 473.167Z"/>
	<path d="M509.84 500.631C509.272 500.311 508.698 499.989 508.164 499.613C506.969 498.773 505.939 496.986 505.91 495.51C505.885 494.203 506.493 493.74 507.307 492.863C510.999 493.522 514.87 494.358 518.635 494.15C527.188 493.68 536.588 488.276 542.002 481.737C544.696 478.483 546.795 474.805 549.641 471.663C549.764 471.527 549.89 471.394 550.014 471.26C551.588 471.251 552.57 471.162 553.887 472.177C554.493 473.389 554.712 473.777 554.478 475.186C553.471 481.221 542.753 490.905 537.786 494.334C529.266 500.218 520.052 502.463 509.84 500.631Z"/>
	<path fill="#9F8BE8" d="M782.703 504.476C784.805 500.692 785.958 496.346 784.807 492.094C783.688 487.957 781.281 484.129 779.882 480.063C793.762 476.845 809.549 477.268 821.967 484.92C827.822 488.528 832.419 493.644 833.902 500.531C837.106 515.411 826.04 527.789 827.18 542.036C828.272 555.685 845.134 561.338 847.077 574.045C847.956 579.797 843.352 588.24 842.026 593.985C840.664 599.655 840.121 605.49 840.411 611.314C834.371 611.857 828.324 613.264 822.368 614.389C809.353 616.734 796.422 619.531 783.601 622.773C732.769 635.486 682.859 653.373 634.573 673.633C624.932 677.678 615.151 681.449 605.64 685.79C582.469 696.367 559.852 708.205 537.092 719.628C549.609 706.567 564.825 695.325 579.171 684.346C597.852 669.994 617.091 656.381 636.842 643.539C654.286 632.556 671.951 621.927 689.825 611.658C714.979 596.908 739.836 582.061 765.967 569.055C781.758 561.195 798.118 554.364 814.353 547.471C816.917 546.382 819.628 546.262 820.814 543.459C820.604 542.106 820.359 541.606 819.438 540.594C816.993 539.426 814.851 539.891 812.363 540.792C807.124 542.689 802.158 545.35 797.021 547.5C776.995 555.969 757.355 565.323 738.159 575.536C721.88 584.365 706.061 594.071 690.144 603.529C672.229 614.174 654.101 624.45 636.484 635.594C607.415 653.982 573.816 678.36 547.836 700.913C551.286 695.627 555.977 690.928 560.176 686.217C567.832 677.63 575.524 669.181 583.621 661.006C628.994 615.43 679.711 575.506 734.668 542.103C749.409 533.214 764.981 525.516 780.023 517.13C785.373 514.147 806.631 501.793 805.5 494.977C804.61 493.958 804.468 493.621 803.016 493.587C799.489 493.505 787.264 504.173 783.387 506.605L782.703 504.476Z"/>
	<path fill="#9F8BE8" d="M554.002 562.858C569.048 559.557 583.431 553.009 597.517 546.94C598.593 546.961 599.486 546.983 600.468 547.473C606.817 550.645 611.62 565.244 613.99 571.498C595.637 579.461 582.295 596.613 567.48 609.391C562.016 614.104 555.211 617.829 549.25 621.944C545.789 624.688 542.466 627.544 539.172 630.486C542.891 607.693 547.842 585.117 554.002 562.858Z"/>
	<path fill="#9F8BE8" d="M534.829 705.071L534.913 704.576C538.638 683.219 549.649 643.518 561.966 625.974C566.367 619.706 572.085 614.405 577.606 609.143C589.722 597.595 601.695 587.505 615.384 577.878C617.558 578.993 620.165 585.156 621.45 587.495C600.107 606.298 581.128 625.555 565.807 649.724C555.557 665.895 547.141 682.99 537.885 699.715L534.829 705.071Z"/>
	<path fill="#9F8BE8" d="M553.889 683.896C557.587 675.131 562.648 667.09 567.716 659.072C578.09 642.658 589.364 627.512 603.051 613.674C609.892 606.757 617.293 600.334 624.327 593.602C627.419 596.729 630.014 603.278 632.138 607.303C605.807 629.017 581.231 652.774 558.636 678.353L553.889 683.896Z"/>
	<path fill="#9F8BE8" d="M302.774 1024C298.314 1020.22 293.609 1016.4 288.666 1013.27L281.521 971.039C290.472 975.244 299.193 979.886 308.147 984.101C310.684 985.295 313.278 987.041 316.016 987.698C317.393 988.028 318.605 987.994 319.954 987.551C324.471 986.07 328.26 981.164 330.242 977.045C331.259 974.93 332.08 972.255 331.327 969.925C329.627 964.656 322.707 959.396 318.722 955.633C361.695 936.111 413.794 901.58 443.908 864.664C460.171 844.729 472.707 822.59 484.58 799.871C494.176 781.508 510.462 748.189 524.971 734.16C529.951 729.345 557.623 716.558 565.551 712.667C633.802 679.177 705.319 650.081 779.103 631.245C799.908 626.039 820.904 621.627 842.044 618.018C850.644 635.763 859.046 653.752 863.935 672.938C853.94 673.319 823.705 674.542 815.627 678.837C814.762 680.017 814.746 680.16 814.68 681.628C815.227 682.878 815.669 683.643 816.971 684.226C817.659 684.534 818.209 684.61 818.945 684.573C823.079 684.365 827.377 683.014 831.513 682.466C842.865 680.964 854.253 679.787 865.708 679.55C891.096 800.658 858.796 864.87 807.014 970.515C801.108 982.423 794.985 994.221 788.648 1005.9C785.505 1011.76 781.512 1017.86 779.113 1024L532.342 1024C537.045 1014.98 542.527 1006.28 547.602 997.467L581.268 938.849C587.084 928.614 593.197 918.405 598.239 907.76C605.906 891.574 610.361 874.716 616.493 858.008C622.229 842.376 631.479 828.151 641.033 814.613C674.092 767.769 721.379 723.442 773.458 698.857C775.908 697.7 778.03 696.532 778.98 693.872C778.755 692.461 778.77 692.32 777.787 691.304C776.168 690.795 775.034 690.776 773.372 691.165C764.44 693.254 752.848 701.077 744.95 706.033C694.118 738.452 651.47 782.186 620.34 833.818C611.683 848.404 607.954 863.52 602.571 879.31C599.79 887.207 596.575 894.944 592.942 902.487C583.355 922.837 571.287 942.301 560.039 961.771C548.081 982.47 536.553 1003.49 524.28 1024L302.774 1024ZM770.77 634.471C769.215 635.24 768.016 635.533 767.068 637.012C769.185 643.144 777.13 650.814 780.717 656.863C784.625 663.452 787.746 670.809 790.552 677.931C792.019 681.654 793.268 685.744 795.135 689.278C795.734 690.412 796.444 691.137 797.398 691.979C798.642 691.156 799.615 690.587 800.015 689.045C802.189 680.654 785.795 651.288 780.474 643.759C778.424 640.859 775.118 635.931 771.819 634.46L770.77 634.471Z"/>
	<path fill="#9F8BE8" d="M217.857 665.115C216.3 650.758 215.557 636.323 213.887 621.965C223.059 622.162 232.144 622.475 241.247 623.674C239.006 635.514 237.768 647.656 236.347 659.623C236.21 660.86 235.985 662.013 235.711 663.224C232.286 664.993 222.039 664.831 217.857 665.115Z"/>
	<path fill="#9F8BE8" d="M144.375 655.796C142.275 655.01 140.229 654.079 138.197 653.133C134.932 651.614 129.775 649.004 128.78 645.235C128.306 643.442 128.633 641.934 129.671 640.442C135.577 631.961 158.748 627.713 168.817 625.618C169.855 625.488 169.339 625.393 170.332 626.045C172.523 638.28 173.932 650.747 175.638 663.064C165.041 661.288 154.48 659.582 144.375 655.796Z"/>
	<path fill="#9F8BE8" d="M261.769 659.228C262.789 648.596 264.586 637.952 266.523 627.452C273.864 629.435 288.738 633.102 293.229 639.809C294.172 641.217 294.474 642.601 294.05 644.272C293.024 648.317 286.622 651.014 283.19 652.715C276.102 655.538 269.189 657.544 261.769 659.228Z"/>
	<path fill="#9F8BE8" d="M385.274 849.824C396.04 824.863 412.934 804.876 429.463 783.681C441.567 768.281 453.36 752.64 464.836 736.767C477.229 719.634 488.583 701.751 500.741 684.445C505.29 677.97 509.723 671.359 514.739 665.231C525.619 651.941 538.018 637.376 552.492 627.976L552.737 628.201C552.768 628.829 542.992 650.834 541.689 654.539C536.269 669.947 531.959 685.336 528.312 701.244C526.743 708.087 526.366 715.886 524.102 722.461C522.894 725.97 512.401 738.193 509.463 742.298C504.653 748.949 500.217 755.862 496.175 763.006C484.549 783.874 474.633 805.871 462.107 826.214C436.605 867.633 407.4 894.534 366.732 920.946C349.672 932.026 332.632 941.85 314.141 950.39C303.224 939.693 293.544 927.828 282.864 916.907C329.446 895.272 377.203 870.051 414.103 833.667C439.619 808.238 463.015 772.708 483.894 743.121C487.778 737.618 497.909 724.7 499.946 719.348C500.504 717.884 500.582 716.795 499.936 715.326C499.112 714.472 498.351 713.824 497.074 713.87C494.535 713.961 492.423 718.322 491.11 720.305C483.333 732.045 474.813 743.355 466.714 754.883C447.014 782.925 427.079 811.408 402.202 835.168C396.805 840.322 391 845.043 385.274 849.824Z"/>
	<path d="M797.398 691.979C796.444 691.137 795.734 690.412 795.135 689.278C793.268 685.744 792.019 681.654 790.552 677.931C787.746 670.809 784.625 663.452 780.717 656.863C777.13 650.814 769.185 643.144 767.068 637.012C768.016 635.533 769.215 635.24 770.77 634.471L771.819 634.46C775.118 635.931 778.424 640.859 780.474 643.759C785.795 651.288 802.189 680.654 800.015 689.045C799.615 690.587 798.642 691.156 797.398 691.979Z"/>
	<path fill="#9F8BE8" d="M128.06 655.567C136.512 659.917 145.176 663.612 154.428 665.882C192.215 675.154 260.314 675.089 293.989 654.54C294.799 655.295 294.366 689.447 294.364 693.469L294.107 852.293C294.133 857.924 293.394 885.87 294.616 889.954C295.079 891.5 295.717 892.222 297.114 892.967C298.024 892.76 298.372 892.803 299.085 892.147C300.638 890.719 301.256 888.324 301.408 886.29C301.903 879.664 301.233 872.525 301.217 865.845L301.264 817.566L394.874 817.538C388.144 828.139 378.675 843.56 376.387 855.808C348.175 876.611 310.046 898.082 277.405 910.95C273.123 908.617 269.225 904.332 265.162 901.496C256.555 895.49 247.049 891.159 237.474 886.964C234.962 879.993 231.945 873.214 228.449 866.68C224.547 859.456 216.079 844.087 207.535 841.882C196.28 838.978 179.996 847.347 170.618 853.023C157.238 847.872 142.194 843.918 128.049 841.651L128.06 655.567Z"/>
	<path d="M524.28 1024C536.553 1003.49 548.081 982.47 560.039 961.771C571.287 942.301 583.355 922.837 592.942 902.487C596.575 894.944 599.79 887.207 602.571 879.31C607.954 863.52 611.683 848.404 620.34 833.818C651.47 782.186 694.118 738.452 744.95 706.033C752.848 701.077 764.44 693.254 773.372 691.165C775.034 690.776 776.168 690.795 777.787 691.304C778.77 692.32 778.755 692.461 778.98 693.872C778.03 696.532 775.908 697.7 773.458 698.857C721.379 723.442 674.092 767.769 641.033 814.613C631.479 828.151 622.229 842.376 616.493 858.008C610.361 874.716 605.906 891.574 598.239 907.76C593.197 918.405 587.084 928.614 581.268 938.849L547.602 997.467C542.527 1006.28 537.045 1014.98 532.342 1024L524.28 1024Z"/>
	<path d="M794.661 1024C800.865 1017.89 806.687 1011.25 812.614 1004.86C829.709 986.442 846.145 967.563 862.68 948.642C891.584 916.091 919.51 882.685 946.423 848.469C951.686 841.787 957.202 835.3 962.341 828.521C984.138 799.699 1004.71 769.971 1024 739.415L1024 752.41C989.008 809.067 946.699 861.143 903.783 911.916C871.8 950.298 838.632 987.678 804.327 1024L794.661 1024Z"/>
	<path fill="#9F8BE8" d="M804.327 1024C838.632 987.678 871.8 950.298 903.783 911.916C946.699 861.143 989.008 809.067 1024 752.41L1024 1024L804.327 1024Z"/>
	<path fill="#565570" d="M58.4494 809.403C60.0762 808.68 61.7916 808.123 63.4676 807.522C65.7566 807.921 67.3314 809.005 69.1451 810.415C74.1866 814.335 78.6636 819.365 83.2158 823.856C94.4083 834.828 105.298 846.105 115.874 857.673C123.259 865.696 132.915 877.945 141.642 884.122C147.535 888.294 155.445 890.781 161.848 894.304C169.981 898.78 177.953 903.526 186.226 907.744C217.901 923.889 250.819 937.905 283.252 952.448C297.27 958.734 310.481 966.772 325.183 971.373C323.548 974.48 321.506 977.181 319.103 979.725C318.227 980.327 317.827 980.475 316.762 980.483C289.532 967.158 262.093 954.265 234.455 941.809C217.047 934.003 196.687 926.433 180.29 917.193C168.555 910.58 158.728 900.778 147.343 893.517C140.211 888.969 128.873 884.748 123.003 880.126C112.041 871.495 100.067 856.968 90.5438 846.484C79.6839 834.529 67.5782 822.76 58.4494 809.403Z"/>
	<path fill="#9F8BE8" d="M0 817.959C18.4567 817.936 36.9189 817.442 55.3694 817.497C63.0302 828.392 74.4782 837.576 81.4025 847.82C83.4037 850.781 99.5901 903.259 101.009 909.712C69.1581 893.583 36.2552 871.862 0 867.92L0 817.959Z"/>
	<path fill="#9F8BE8" d="M107.473 837.618C100.875 831.029 94.3538 824.329 87.4992 818.006L120.504 817.897L121.055 839.746C116.499 839.227 111.99 838.399 107.473 837.618Z"/>
	<path fill="#FEFEFE" d="M150.15 881.493C136.852 871.478 125.84 857.714 114.255 845.772C131.337 848.506 148.124 853.366 164.762 858.003C161.325 862.345 158.198 866.923 155.403 871.703C153.697 874.991 151.946 878.254 150.15 881.493Z"/>
	<path fill="#FEFEFE" d="M157.226 884.32C159.795 878.78 162.509 873.25 165.991 868.217C175.246 854.843 189.979 850.521 205.316 847.735C215.785 856.258 223.899 871.346 228.291 883.863C220.276 881.509 212.432 877.973 205.124 873.917C201.339 871.817 197.639 869.326 193.694 867.547C192.58 867.045 191.753 866.808 190.526 866.859C186.022 867.046 183.284 869.902 180.385 872.958C175.902 878.125 172.489 883.77 169.634 889.968C165.354 888.349 161.316 886.356 157.226 884.32Z"/>
	<path fill="#FEFEFE" d="M110.14 913.374C108.675 908.273 106.683 903.272 105.055 898.213L92.9911 859.977C100.412 866.671 106.544 874.92 113.209 882.349C112.13 885.082 111.19 887.336 111.194 890.338C111.214 903.939 124.725 916.514 133.717 925.145L134.077 925.528L133.702 925.735C125.744 921.844 117.58 918.214 110.14 913.374Z"/>
	<path fill="#FEFEFE" d="M179.099 887.041C182.153 881.527 185.21 877.15 190.242 873.284C198.981 878.464 207.637 883.888 217.112 887.672C216.052 888.289 214.959 888.744 213.816 889.18C203.002 893.307 189.495 891.636 179.099 887.041Z"/>
	<path fill="#9F8BE8" d="M0 874.847C11.5294 876.738 22.6646 879.357 33.5486 883.714C45.7337 888.592 57.3374 894.968 69.0043 900.951L110.946 922.137C161.155 947.427 212.66 970.78 260.09 1001.15C270.524 1007.83 282.625 1015.16 291.313 1024L0 1024L0 874.847Z"/>
	<path fill="#9F8BE8" d="M175.955 893.102C176.858 890.955 177.908 889.035 179.099 887.041C189.495 891.636 203.002 893.307 213.816 889.18C214.959 888.744 216.052 888.289 217.112 887.672C228.021 891.507 239.294 895.028 249.61 900.288C274.701 913.081 291.587 938.321 311.253 957.868C302.918 954.274 294.792 950.135 286.531 946.366L242.493 926.498C220.017 916.137 196.909 906.335 175.955 893.102Z"/>
	<path fill="#FEFEFE" d="M280.474 1006.63C264.829 996.744 249.895 986.073 233.665 977.102C217.225 968.031 200.664 959.182 183.985 950.559C175.209 946.067 162.782 941.033 154.962 935.5C147.773 930.413 139.862 921.694 133.506 915.366C125.879 907.774 118.395 898.895 118.358 887.583C122.254 888.4 126.371 890.434 129.998 892.111C137.193 895.435 144.263 899.33 150.593 904.124C159.268 910.694 166.957 918.261 176.621 923.475C185.424 928.225 194.758 931.807 203.908 935.81C227.329 946.055 251.458 955.819 273.912 968.079C276.875 978.484 278.535 995.291 280.474 1006.63Z"/>
</svg>
