<?xml version="1.0" encoding="utf-8" ?>
<svg xmlns="http://www.w3.org/2000/svg" xmlns:xlink="http://www.w3.org/1999/xlink" width="1024" height="1024">
	<path fill="#9F8BE8" d="M0 0L1024 0L1024 814.111C1016.71 811.287 1009.12 809.106 1001.67 806.752C984.773 801.42 967.69 796.432 950.951 790.644L950.564 203.469L950.426 83.9918L950.477 51.8489C950.482 46.7403 951.304 39.7654 950.021 34.8788C946.906 33.9171 943.273 34.5324 940.096 34.9733C897.074 41.3636 854.134 48.2922 811.286 55.7573L670.342 79.229C658.157 81.2752 593.212 90.7783 587.35 93.8739C585.654 96.0475 585.851 99.3204 585.721 101.971C548.204 92.2795 510.596 82.9449 472.902 73.9684L440.207 65.9162C434.025 64.3922 427.598 62.3273 421.271 61.6385C416.047 61.0698 410.081 62.1351 405.304 64.2818C404.153 65.8879 404.128 68.218 404.048 70.1452C403.687 78.8909 403.945 87.7407 403.94 96.4958L403.915 144.265L403.523 249.182C403.51 282.056 403.86 314.973 402.85 347.834C380.931 345.904 357.213 352.968 336.329 359.03C330.606 360.691 323.567 364.01 317.662 364.288C311.436 364.581 303.917 361.402 297.652 360.422C306.597 354.173 313.316 345.706 315.184 334.73C316.491 327.049 314.849 319.189 310.265 312.852C305.458 306.208 297.931 302.022 289.868 300.865C288.003 300.594 286.124 300.431 284.241 300.375C278.503 283.038 269.306 268.766 252.554 260.421C233.703 251.031 211.759 250.844 191.963 257.478C187.074 259.117 182.391 261.34 177.639 263.33C163.55 269.227 153.963 274.009 146.773 288.411C142.267 297.435 141.056 307.435 144.303 317.071C145.577 320.854 147.321 324.462 149.494 327.811C153.935 334.606 161.678 341.858 157.227 350.641C155.168 354.705 149.739 361.419 151.111 366.125C151.623 367.883 153.368 368.87 154.968 369.478C159.495 371.199 163.986 370.634 168.683 370.323C172.716 381.907 177.909 390.727 189.298 396.281C193.77 398.461 198.354 399.441 203.243 400.175C184.114 428.685 183.443 482.729 179.388 516.58C175.371 518.38 171.239 519.373 167.114 520.807C157.908 539.558 146.612 557.208 133.441 573.421C123.454 585.899 112.721 597.76 102.903 610.376C97.7383 611.022 92.5356 611.762 87.3287 611.904C72.6695 612.307 59.3048 610.737 49.2516 623.68C44.9379 629.234 42.3476 637.167 43.4138 644.192C44.4769 651.197 48.7712 660.073 53.623 665.148C53.7178 668.055 54.3907 672.227 56.7627 674.241C58.038 675.325 59.6197 675.812 61.206 676.257C62.7649 678.04 64.5898 680.852 67.0937 681.155C68.1562 681.283 69.2424 680.736 70.0359 680.05C75.8543 675.016 76.3373 665.02 81.3711 658.636C85.8011 656.648 89.8101 656.713 94.5304 657.144C112.464 658.78 119.628 656.618 133.306 644.606C138.259 644.899 139.961 643.126 143.509 639.963C161.369 624.043 177.268 605.019 192.423 586.578C205.064 571.197 218.33 555.416 227.852 537.858C236.741 521.467 241.738 503.512 252.037 487.819C261.591 498.128 270.802 508.785 280.346 519.122C289.976 529.552 301.208 540.114 308.937 552.019C312.006 556.747 314.701 561.915 314.613 567.683C314.553 571.57 313.709 575.493 313.471 579.384C312.701 591.921 317.531 601.875 323.425 612.592C310.732 636.788 297.513 660.705 283.777 684.325C272.899 703.324 261.217 722.548 252.958 742.876C246.494 758.784 243.52 776.172 239.95 792.891C232.459 828.398 226.051 864.126 220.735 900.024C218.712 899.738 216.341 899.116 214.354 899.705C211.233 904.439 206.886 921.801 206.579 927.571C207.425 928.99 210.064 929.752 211.653 930.11C214.814 930.822 222.227 930.452 224.215 932.838L223.706 935.933C219.369 938.685 192.551 934.614 187.016 933.38C172.336 930.11 153.815 923.389 139.713 932.066C136.751 933.888 134.469 936 133.782 939.535C133.425 941.366 133.776 942.778 134.364 944.512C147.965 966.981 185.688 976.07 209.38 983.442C217.004 985.815 224.621 989.043 232.379 990.837C232.604 990.889 232.834 990.915 233.062 990.953C237.584 992.602 242.531 994.101 247.233 995.134C251.475 996.066 256.248 996.464 260.015 993.885C267.864 988.511 269.412 968.183 268.844 959.506C268.649 956.52 266.872 952.136 267.683 949.289C267.691 949.261 268.148 947.782 268.319 947.651C269.109 947.047 282.263 950.704 287.324 947.835C289.549 944.078 297.592 925.137 296.987 921.498C295.377 920.084 293.319 919.472 291.348 918.702C294.072 910.27 297.927 902.126 301.002 893.804C308.556 873.356 317.39 844.469 319.776 822.961C320.421 817.151 320.364 811.417 320.259 805.586C322.035 803.832 323.849 802.088 325.522 800.236C335.569 789.11 326.873 782.787 326.449 770.834L326.424 770.023C332.251 762.208 340.804 755.813 347.776 748.925C371.339 725.649 396.119 703.785 418.37 679.202C425.466 701.611 433.74 723.855 442.022 745.851C448.005 761.741 453.348 779.959 463.151 793.897C467.143 799.574 471.669 804.395 477.377 808.355C489.611 816.843 504.691 822.905 518.137 829.274L586.95 861.572C589.169 862.609 604.842 869.605 605.818 870.665C606.775 871.704 606.876 873.496 607.688 874.636C610.409 878.453 626.844 886.045 631.454 887.209C636.889 882.811 641.157 876.113 646.078 871.004L657.823 879.255C654.212 891.138 651.843 903.429 648.547 915.408C646.85 921.579 644.619 927.63 642.511 933.671C638.88 932.711 635.075 932.074 631.309 932.173C624.89 932.341 618.501 934.785 614.103 939.565C611.504 942.39 608.635 947.301 609.032 951.303C609.303 954.041 612.087 956.803 614.196 958.319C626.092 966.869 652.969 966.889 666.878 964.714C677.22 963.097 690.503 959.962 696.913 950.924C700.191 946.301 702.674 940.929 705.577 936.041C711.628 925.852 720.397 914.128 724.172 903.003C725.526 899.011 725.959 894.928 725.137 890.769C722.698 878.423 712.733 867.777 702.514 861.103C698.634 858.569 692.522 853.777 687.801 854.857C687.635 854.895 687.47 854.94 687.305 854.982C685.616 853.237 684.167 851.263 682.668 849.355C683.757 847.403 684.9 845.386 685.647 843.275C687.114 839.131 686.993 834.928 684.97 831.003C682.61 826.424 678.096 822.649 673.877 819.804C670.135 817.282 665.783 815.655 661.775 813.599C656.727 811.01 651.806 808.131 646.786 805.478C620.733 791.421 594.114 778.44 566.995 766.569C557.537 762.459 548 757.924 538.197 754.737C537.93 753.852 537.656 752.95 537.269 752.108C535.274 747.759 531.623 745.912 527.361 744.416C527.223 728.156 529.255 711.612 529.937 695.332C541.846 690.457 552.815 683.623 564.001 677.334C570.915 678.419 577.88 679.503 584.859 680.06C592.29 680.488 599.828 680.749 607.228 679.813C639.585 675.718 674.344 667.692 706.637 661.442C717.24 659.39 762.333 651.589 769.331 647.934C770.685 641.752 769.997 633.904 770.142 627.523C770.401 613.903 770.853 600.288 771.495 586.681C771.768 558.263 773.765 529.918 773.025 501.48C782.194 509.876 791.642 517.959 800.169 527.023C797.484 540.596 794.242 554.051 791.249 567.557C789.323 573.42 787.489 579.449 786.043 585.447C783.029 586.639 781.263 589.849 779.992 592.706C778.661 595.696 778.705 599.035 779.995 602.026C784.088 611.516 798.713 620.538 808.057 623.991C812.668 625.694 818.94 627.222 823.575 625.013C825.279 624.201 826.552 622.808 827.134 621.005C828.021 618.258 827.042 615.405 825.716 612.98C825.035 611.735 824.147 610.506 823.205 609.442C822.291 606.765 819.045 603.649 817.182 601.53C815.79 599.401 813.865 597.483 812.194 595.561L810.974 594.059C810.43 592.14 813.815 586.211 814.742 584.195C824.886 561.547 848.355 517.15 849.893 494.649C850.719 473.106 836.613 451.331 826.183 433.389C822.999 427.91 819.879 421.26 815.886 416.374C812.241 408.601 806.708 400.632 801.685 393.672C800.787 392.043 799.565 390.484 798.52 388.938C799.437 381.753 801.495 374.909 803.497 367.97C804.837 369.931 806.125 371.879 807.717 373.649C812.731 381.714 820.741 391.117 828.512 396.636C835.341 403.532 843.063 410.453 850.837 416.244C852.404 417.921 854.058 419.381 855.808 420.861C857.627 422.869 859.579 424.741 861.521 426.629C858.674 440.974 859.094 456.584 858.627 471.181L856.646 546.193C856.317 557.847 856.461 569.538 855.535 581.167C855.381 586.539 855.887 592.351 855.369 597.629C854.907 602.336 850.71 608.424 853.073 613.116C856.677 619.445 865.57 622.863 872.28 624.682C873.518 625.017 874.715 625.348 875.998 625.459C881.649 626.994 889.702 627.411 895.149 625.122C897.276 624.228 899.171 622.86 900.009 620.631C900.896 618.269 900.401 616.52 899.411 614.3C894.012 608.065 886.566 603.36 880 598.397L880.362 594.054C881.394 589.087 882.18 584.029 883.081 579.035C883.694 576.402 884.204 573.801 884.607 571.127C886.648 566.153 887.378 559.17 888.545 553.838C891 542.846 893.372 531.836 895.662 520.808C897.347 512.304 898.553 503.624 900.83 495.257C900.888 499.443 900.78 503.71 901.406 507.856C902.089 525.19 906.871 541.076 914.232 556.688C916.359 561.199 918.605 566.077 921.812 569.935C923.084 571.879 923.64 572.961 923.581 575.342C922.944 627.466 923.594 679.648 923.548 731.777C923.533 749.55 923.865 767.392 923.455 785.154C923.447 786.918 923.182 788.637 924.302 790.115C930.766 793.67 943.095 796.474 950.674 798.928C975.01 806.809 999.368 815.138 1024 822.01L1024 1024L0 1024L0 0Z"/>
	<defs>
		<linearGradient id="gradient_0" gradientUnits="userSpaceOnUse" x1="44.235748" y1="513.68988" x2="1024.083" y2="515.56317">
			<stop offset="0" stop-color="black"/>
			<stop offset="1" stop-color="#24052B"/>
		</linearGradient>
	</defs>
	<path fill="url(#gradient_0)" d="M807.717 373.649C806.125 371.879 804.837 369.931 803.497 367.97C801.495 374.909 799.437 381.753 798.52 388.938C799.565 390.484 800.787 392.043 801.685 393.672C800.972 396.326 802.901 400.636 804.233 403.027C806.207 406.569 808.663 409.749 811.137 412.951C814.986 419.969 819.726 426.485 823.693 433.436C826.985 439.207 829.555 445.396 832.73 451.241C836.416 458.029 840.407 464.666 843.025 471.968C845.337 478.417 846.24 485.122 847.931 491.723C847.948 491.5 847.968 491.278 847.981 491.055C848.365 484.456 844.714 477.738 844.845 472.634C847.432 479.525 848.622 485.988 848.803 493.35C848.828 494.328 848.784 493.932 849.183 494.971L849.893 494.649C848.355 517.15 824.886 561.547 814.742 584.195C813.815 586.211 810.43 592.14 810.974 594.059L810.277 594.646C805.915 593.674 793.16 592.162 790.222 588.827C789.49 587.657 788.536 586.949 787.499 586.06C786.548 583.383 791.074 571.665 791.929 568.187L791.249 567.557C794.242 554.051 797.484 540.596 800.169 527.023C791.642 517.959 782.194 509.876 773.025 501.48C773.765 529.918 771.768 558.263 771.495 586.681C770.853 600.288 770.401 613.903 770.142 627.523C769.997 633.904 770.685 641.752 769.331 647.934C762.333 651.589 717.24 659.39 706.637 661.442C674.344 667.692 639.585 675.718 607.228 679.813C599.828 680.749 592.29 680.488 584.859 680.06C577.88 679.503 570.915 678.419 564.001 677.334C552.815 683.623 541.846 690.457 529.937 695.332C529.255 711.612 527.223 728.156 527.361 744.416C531.623 745.912 535.274 747.759 537.269 752.108C537.656 752.95 537.93 753.852 538.197 754.737C548 757.924 557.537 762.459 566.995 766.569C594.114 778.44 620.733 791.421 646.786 805.478C651.806 808.131 656.727 811.01 661.775 813.599C665.783 815.655 670.135 817.282 673.877 819.804C678.096 822.649 682.61 826.424 684.97 831.003C686.993 834.928 687.114 839.131 685.647 843.275C684.9 845.386 683.757 847.403 682.668 849.355C684.167 851.263 685.616 853.237 687.305 854.982C687.47 854.94 687.635 854.895 687.801 854.857C692.522 853.777 698.634 858.569 702.514 861.103C712.733 867.777 722.698 878.423 725.137 890.769C725.959 894.928 725.526 899.011 724.172 903.003C720.397 914.128 711.628 925.852 705.577 936.041C702.674 940.929 700.191 946.301 696.913 950.924C690.503 959.962 677.22 963.097 666.878 964.714C652.969 966.889 626.092 966.869 614.196 958.319C612.087 956.803 609.303 954.041 609.032 951.303C608.635 947.301 611.504 942.39 614.103 939.565C618.501 934.785 624.89 932.341 631.309 932.173C635.075 932.074 638.88 932.711 642.511 933.671C644.619 927.63 646.85 921.579 648.547 915.408C651.843 903.429 654.212 891.138 657.823 879.255L646.078 871.004C641.157 876.113 636.889 882.811 631.454 887.209C626.844 886.045 610.409 878.453 607.688 874.636C606.876 873.496 606.775 871.704 605.818 870.665C604.842 869.605 589.169 862.609 586.95 861.572L518.137 829.274C504.691 822.905 489.611 816.843 477.377 808.355C471.669 804.395 467.143 799.574 463.151 793.897C453.348 779.959 448.005 761.741 442.022 745.851C433.74 723.855 425.466 701.611 418.37 679.202C396.119 703.785 371.339 725.649 347.776 748.925C340.804 755.813 332.251 762.208 326.424 770.023L326.449 770.834C326.873 782.787 335.569 789.11 325.522 800.236C323.849 802.088 322.035 803.832 320.259 805.586C320.364 811.417 320.421 817.151 319.776 822.961C317.39 844.469 308.556 873.356 301.002 893.804C297.927 902.126 294.072 910.27 291.348 918.702C293.319 919.472 295.377 920.084 296.987 921.498C297.592 925.137 289.549 944.078 287.324 947.835C282.263 950.704 269.109 947.047 268.319 947.651C268.148 947.782 267.691 949.261 267.683 949.289C266.872 952.136 268.649 956.52 268.844 959.506C269.412 968.183 267.864 988.511 260.015 993.885C256.248 996.464 251.475 996.066 247.233 995.134C242.531 994.101 237.584 992.602 233.062 990.953C234.356 988.987 249.78 994.055 254.094 991.38C255.289 990.638 255.389 990.212 255.806 988.958C255.661 988.644 255.621 988.255 255.371 988.017C253.184 985.945 242.274 982.072 238.999 980.551L199.95 962.279C190.863 957.979 181.881 953.456 172.57 949.651C166.243 947.065 148.701 938.933 142.502 940.316C139.666 940.948 137.852 943.185 135.222 944.201C134.938 944.31 134.65 944.408 134.364 944.512C133.776 942.778 133.425 941.366 133.782 939.535C134.469 936 136.751 933.888 139.713 932.066C153.815 923.389 172.336 930.11 187.016 933.38C192.551 934.614 219.369 938.685 223.706 935.933L224.215 932.838C222.227 930.452 214.814 930.822 211.653 930.11C210.064 929.752 207.425 928.99 206.579 927.571C206.886 921.801 211.233 904.439 214.354 899.705C216.341 899.116 218.712 899.738 220.735 900.024C226.051 864.126 232.459 828.398 239.95 792.891C243.52 776.172 246.494 758.784 252.958 742.876C261.217 722.548 272.899 703.324 283.777 684.325C297.513 660.705 310.732 636.788 323.425 612.592C317.531 601.875 312.701 591.921 313.471 579.384C313.709 575.493 314.553 571.57 314.613 567.683C314.701 561.915 312.006 556.747 308.937 552.019C301.208 540.114 289.976 529.552 280.346 519.122C270.802 508.785 261.591 498.128 252.037 487.819C241.738 503.512 236.741 521.467 227.852 537.858C218.33 555.416 205.064 571.197 192.423 586.578C177.268 605.019 161.369 624.043 143.509 639.963C139.961 643.126 138.259 644.899 133.306 644.606C119.628 656.618 112.464 658.78 94.5304 657.144C89.8101 656.713 85.8011 656.648 81.3711 658.636C76.3373 665.02 75.8543 675.016 70.0359 680.05C69.2424 680.736 68.1562 681.283 67.0937 681.155C64.5898 680.852 62.7649 678.04 61.206 676.257C59.6197 675.812 58.038 675.325 56.7627 674.241C54.3907 672.227 53.7178 668.055 53.623 665.148C48.7712 660.073 44.4769 651.197 43.4138 644.192C42.3476 637.167 44.9379 629.234 49.2516 623.68C59.3048 610.737 72.6695 612.307 87.3287 611.904C92.5356 611.762 97.7383 611.022 102.903 610.376C112.721 597.76 123.454 585.899 133.441 573.421C146.612 557.208 157.908 539.558 167.114 520.807C171.239 519.373 175.371 518.38 179.388 516.58C183.443 482.729 184.114 428.685 203.243 400.175C198.354 399.441 193.77 398.461 189.298 396.281C177.909 390.727 172.716 381.907 168.683 370.323C163.986 370.634 159.495 371.199 154.968 369.478C153.368 368.87 151.623 367.883 151.111 366.125C149.739 361.419 155.168 354.705 157.227 350.641C161.678 341.858 153.935 334.606 149.494 327.811C147.321 324.462 145.577 320.854 144.303 317.071C141.056 307.435 142.267 297.435 146.773 288.411C153.963 274.009 163.55 269.227 177.639 263.33C182.391 261.34 187.074 259.117 191.963 257.478C211.759 250.844 233.703 251.031 252.554 260.421C269.306 268.766 278.503 283.038 284.241 300.375C286.124 300.431 288.003 300.594 289.868 300.865C297.931 302.022 305.458 306.208 310.265 312.852C314.849 319.189 316.491 327.049 315.184 334.73C313.316 345.706 306.597 354.173 297.652 360.422C303.917 361.402 311.436 364.581 317.662 364.288C323.567 364.01 330.606 360.691 336.329 359.03C357.213 352.968 380.931 345.904 402.85 347.834C403.86 314.973 403.51 282.056 403.523 249.182L403.915 144.265L403.94 96.4958C403.945 87.7407 403.687 78.8909 404.048 70.1452C404.128 68.218 404.153 65.8879 405.304 64.2818C410.081 62.1351 416.047 61.0698 421.271 61.6385C427.598 62.3273 434.025 64.3922 440.207 65.9162L472.902 73.9684C510.596 82.9449 548.204 92.2795 585.721 101.971C585.851 99.3204 585.654 96.0475 587.35 93.8739C593.212 90.7783 658.157 81.2752 670.342 79.229L811.286 55.7573C854.134 48.2922 897.074 41.3636 940.096 34.9733C943.273 34.5324 946.906 33.9171 950.021 34.8788C951.304 39.7654 950.482 46.7403 950.477 51.8489L950.426 83.9918L950.564 203.469L950.951 790.644C967.69 796.432 984.773 801.42 1001.67 806.752C1009.12 809.106 1016.71 811.287 1024 814.111L1024 822.01C999.368 815.138 975.01 806.809 950.674 798.928C943.095 796.474 930.766 793.67 924.302 790.115C923.182 788.637 923.447 786.918 923.455 785.154C923.865 767.392 923.533 749.55 923.548 731.777C923.594 679.648 922.944 627.466 923.581 575.342C923.64 572.961 923.084 571.879 921.812 569.935C921.926 569.364 922.123 568.616 922.095 568.019C921.966 565.277 913.469 549.186 911.929 545.275C909.247 538.463 906.993 531.153 905.743 523.921C904.993 519.586 904.787 510.589 901.406 507.856C900.78 503.71 900.888 499.443 900.83 495.257C898.553 503.624 897.347 512.304 895.662 520.808C893.372 531.836 891 542.846 888.545 553.838C887.378 559.17 886.648 566.153 884.607 571.127C883.174 572.728 882.845 574.351 882.774 576.513L882.302 575.293C880.153 578.134 879.085 584.293 879.57 587.729C879.596 587.913 879.678 588.085 879.721 588.266C880.171 590.2 879.905 592.164 880.362 594.054L880 598.397C886.566 603.36 894.012 608.065 899.411 614.3C896.545 618.368 894.884 621.224 890.647 623.988C887.023 624.094 883.397 624.115 879.773 624.05C869.479 621.544 864.863 619.588 856.361 613.546C855.048 612.613 854.605 612.756 853.073 613.116C850.71 608.424 854.907 602.336 855.369 597.629C855.887 592.351 855.381 586.539 855.535 581.167C856.461 569.538 856.317 557.847 856.646 546.193L858.627 471.181C859.094 456.584 858.674 440.974 861.521 426.629C859.579 424.741 857.627 422.869 855.808 420.861L856.304 419.392C854.761 415.165 848.525 410.877 845.112 408.101C840.497 403.601 835.425 399.431 830.601 395.144C829.333 393.529 809.397 373.904 808.638 373.427L807.717 373.649ZM881.558 212.098C889.945 209.403 898.875 208.858 907.527 210.515C907.611 210.531 907.697 210.543 907.781 210.557C910.035 212.642 916.702 220.6 919.498 220.547C919.601 220.545 919.696 220.49 919.794 220.461C921.218 222.435 922.195 224.573 923.245 226.757L923.575 224.158L923.538 224.47C923.174 170.624 923.133 116.777 923.415 62.9305C903.49 65.8717 883.69 69.5858 863.795 72.7251C810.555 81.0522 757.381 89.7921 704.277 98.9441C686.469 102.114 668.584 104.735 650.75 107.738C642.173 109.182 633.219 110.312 624.826 112.578C639.284 117.85 654.297 122.089 669.052 126.467L727.973 143.876L748.85 150.094C755.729 152.076 763.157 153.676 769.587 156.839L769.943 266.529C775.754 265.549 779.695 265.613 785.429 267.315C785.844 262.589 786.062 259.523 784.299 255.034C786.61 252.454 785.161 240.621 785.883 236.517C787.313 228.389 792.377 221.286 799.114 216.679C806.36 211.726 814.217 210.368 822.77 211.994C833.069 213.953 838.856 220.761 844.384 229.003L845.252 229.389L845.28 230.097L846.263 229.98C848.59 237.067 846.008 246.373 842.84 252.868C841.299 253.566 839.692 254.044 838.775 255.552L838.693 257.011C834.997 258.977 828.28 271.155 825.046 275.068C822.692 277.916 818.683 280.746 817.548 284.329C817.207 285.406 817.195 284.957 817.609 285.919L818.164 286.113C817.249 287.42 816.886 287.581 817.011 289.22C817.979 290.428 819.624 292.007 820.211 293.381C819.613 296.067 820.706 297.38 822.099 299.576C823.862 302.355 825.935 305.184 827.241 308.217C828.255 310.574 828.158 313.487 829.569 315.606L830.292 315.604L830.745 314.643C831.734 319.341 831.862 324.505 832.341 329.297C840.216 318.847 846.434 306.939 853.216 295.776C859.386 285.621 868.169 284.11 878.815 281.467C870.663 267.653 857.165 248.888 860.688 232.111L861.264 232.718C862.323 229.783 863.314 224.881 865.514 222.743C865.985 222.285 865.877 222.387 866.464 222.408L865.014 223.295L866.509 224.058L865.734 222.711C865.866 223.173 865.907 223.833 866.297 224.123L866.568 223.566C869.959 216.72 874.672 214.468 881.558 212.098ZM838.386 360.803L839.304 358.948L838.733 358.765C837.163 358.247 835.871 357.938 835.077 356.349C833.23 352.654 834.051 346.15 833.594 342L833.258 342.011L833.325 340.398L833.218 341.01C833.11 341.606 832.981 342.172 832.823 342.755C832.417 341.681 832.462 340.677 832.436 339.544C831.095 341.557 832.662 358.098 833.276 361.195C835.925 374.566 843.83 381.826 852.465 391.529C855.71 395.176 859.028 399.661 863.203 402.273C864.265 402.937 865.275 403.238 866.484 403.517C867.491 403.197 868.114 402.568 868.919 401.908L868.883 401.257L866.575 402.281C868.898 399.845 870.42 396.861 871.371 393.638C871.965 391.623 872.191 390.374 871.193 388.491L873.693 381.548C867.063 370.962 861.015 360.003 854.798 349.171C849.532 353.428 844.139 357.245 838.386 360.803ZM495.967 517.566L494.898 515.216C493.363 514.86 492.166 515.277 490.788 516.088C488.174 517.627 485.8 519.68 483.262 521.36C483.86 522.804 484.536 524.248 484.955 525.755C488.674 525.134 492.15 523.949 495.954 523.632C487.577 530.442 476.784 533.96 468.4 540.971C472.305 539.439 475.96 537.039 479.632 534.999C492.161 528.038 504.141 520.309 516.206 512.61C515.463 511.152 514.667 509.82 513.615 508.559C512.709 507.472 511.878 506.484 510.431 506.361C508.553 509.06 511.956 510.644 511.893 513.488C510.233 515.956 506.291 517.329 503.586 518.43C502.503 518.468 501.713 518.501 500.67 518.832C499.016 519.356 497.999 519.918 496.399 519.161L495.967 517.566ZM587.138 557.077C583.646 558.351 559.986 573.478 558.484 576.193C558.725 577.236 558.733 577.281 559.546 577.972C561.211 577.848 583.353 563.298 584.697 561.562C585.353 560.715 585.736 559.791 586.198 558.838C586.577 558.057 586.416 558.349 587.119 557.616C588.22 556.955 588.928 556.503 589.738 555.475C589.602 554.854 589.471 554.306 589.216 553.721C587.576 549.965 584.727 546.414 582.405 543.055C574.21 531.197 558.744 509.491 545.555 504.372C543.022 503.389 539.787 502.007 537.203 503.154L537.09 503.901C538.765 504.264 540.476 504.661 542.031 505.401C545.884 507.235 549.821 509.931 553.008 512.751C562.633 521.268 582.711 545.578 587.138 557.077ZM446.914 573.833C443.289 570.918 436.883 565.661 431.97 566.3C430.502 566.491 429.667 566.896 428.721 568.047C426.993 570.151 427.958 574.343 428.469 576.825C430.452 586.472 434.317 596.045 437.29 605.444C440.233 614.749 442.16 624.74 446.597 633.455L446.477 632.627C444.978 622.699 428.764 574.981 429.623 571.319C429.717 570.919 429.986 570.581 430.168 570.213C431.516 569.199 432.593 569.019 434.217 569.306C438.368 570.041 442.335 572.713 445.349 575.524C448.129 579.438 452.269 582.699 455.295 586.556C465.049 598.825 474.25 611.523 482.873 624.612C494.647 617.624 528.064 598.329 535.774 589.148C518.909 599.152 502.937 610.779 485.856 620.395C481.949 616.211 478.839 611.112 475.49 606.472C467.349 595.191 457.887 582.433 446.914 573.833ZM934.555 43.2176C911.44 46.3196 888.544 50.4468 865.515 54.0693C817.387 61.6228 769.297 69.4178 721.247 77.4543C679.518 84.4562 637.441 89.9653 595.881 97.9242C595.697 99.6634 595.24 101.665 595.996 103.287C597.333 104.427 598.887 104.681 600.546 105.101C604.443 106.097 609.077 107.795 613.093 107.472C618.875 107.006 624.834 104.949 630.583 103.941L685.124 94.5467L869.971 64.1991C888.785 61.277 907.576 57.5919 926.466 55.2044C929.668 51.6888 933.171 47.9925 935.604 43.8965L935.497 43.1439L934.555 43.2176ZM942.795 47.888C939.121 51.9278 935.513 56.0515 931.513 59.7749L931.405 568.45L931.373 710.348C931.32 733.392 930.646 756.524 931.052 779.559C931.083 781.348 930.859 783.665 931.998 785.066C932.956 785.355 933.912 785.67 934.879 785.926C937.726 786.723 940.57 787.56 943.434 788.291L942.848 278.866L942.903 109.638C942.838 95.7762 942.848 81.9147 942.935 68.0535C942.971 61.6628 943.847 54.1272 942.795 47.888ZM420.971 68.8047L421.341 215.177C421.274 263.231 420.758 311.373 421.53 359.417C436.465 374.945 445.06 389.408 457.288 406.521L457.529 291.731L457.577 253.582C457.586 247.069 457.271 240.407 457.662 233.919C457.724 232.9 457.954 232.2 458.377 231.286C459.555 230.421 459.742 230.623 461.203 230.839C473.694 232.682 486.579 236.952 498.823 240.173L544.27 251.747C556.659 254.97 569.004 258.573 581.512 261.29L581.536 424.75C581.448 460.342 580.786 496.08 581.643 531.66C585.49 537.668 596.119 550.378 594.518 557.405C594.147 559.034 593.057 560.634 592.155 562.022C596.098 566.325 599.972 570.752 604.069 574.905L603.795 193.045C603.885 166.494 603.413 139.94 603.8 113.388C562.22 102.872 520.545 92.7369 478.779 82.9857C459.524 78.4032 440.373 72.6787 420.971 68.8047ZM414.863 69.7152C413.25 69.9145 411.601 69.9031 410.292 70.9632C409.111 78.7294 410.191 87.6224 410.181 95.558L409.995 152.388L409.452 350.68L413.746 353.057C414.835 353.626 415.067 354.098 416.293 353.744C417.158 345.579 416.459 336.906 416.439 328.681L416.465 283.438L416.354 132.971C416.346 127.002 416.995 71.3097 415.9 69.5678L414.863 69.7152ZM611.394 115.451L611.446 430.386L611.582 524.406C611.598 544.398 611.315 564.467 611.88 584.447C618.539 593.072 631.956 605.406 630.677 616.859C629.506 627.352 619.482 637.085 612.246 644.026C611.761 653.675 611.948 663.395 611.917 673.056C649.522 666.261 687.09 659.262 724.618 652.06C737.968 649.483 751.334 646.96 764.546 643.737L763.966 160.936C750.41 156.559 736.622 152.865 722.968 148.802C685.776 137.734 648.45 126.953 611.394 115.451ZM462.35 236C460.739 295.012 462.9 354.177 461.87 413.205C473.498 431.119 486.73 449.763 492.957 470.376C491.761 472.366 490.59 474.35 489.228 476.233C500.293 484.591 502.722 487.821 508.155 500.65C510.298 499.514 512.296 498.121 514.818 498.9C517.014 499.578 518.28 501.481 519.192 503.468C520.137 505.543 521.014 507.648 521.821 509.78C529.725 504.447 529.472 501.064 540.321 497.253C551.709 499.882 559.975 507.023 567.885 515.358C570.751 518.591 573.671 521.783 576.266 525.242C576.716 512.6 576.408 499.904 576.399 487.253L576.379 421.765C576.362 369.544 576.888 317.257 576.034 265.043C553.453 259.111 530.835 253.313 508.184 247.652C493.005 243.755 477.691 239.144 462.35 236ZM923.087 258.818C919.746 266.277 914.657 272.318 911.218 279.413L911.475 279.883L911.937 279.976C915.788 280.259 919.662 280.462 923.503 280.842C923.537 275.537 924.543 263.409 923.087 258.818ZM214.341 259.701C199.111 261.137 180.718 266.029 170.597 278.419C167.822 281.816 165.984 285.745 166.451 290.212C167.416 299.441 176.123 307.947 183.077 313.277C191.405 319.66 201.68 322.825 209.143 330.201C211.955 326.586 214.867 324.013 219.628 323.426C223.54 322.944 227.599 324.184 230.679 326.614C234.022 329.276 236.133 333.187 236.523 337.442C237.055 343.374 234.433 347.708 231.183 352.342C233.581 354.824 236.02 357.052 238.706 359.217C246.212 354.854 253.655 353.012 261.736 350.181C266.312 344.65 270.055 338.431 273.852 332.351C260.959 332.566 249.667 330.609 237.871 325.328C232.378 322.687 227.038 319.896 222.006 316.438C215.882 312.23 195.406 294.85 193.324 287.896C193.072 287.053 193.105 287.021 193.054 286.259L193.671 285.313C194.768 285.087 194.999 284.943 195.989 285.602C198.606 287.343 205.557 296.136 208.757 299.189C227.706 317.263 249.529 329.078 276.195 327.974C280.254 314.77 279.142 301.638 272.718 289.392C265.835 276.236 253.957 266.395 239.75 262.079C232.102 259.713 222.253 258.497 214.341 259.701ZM161.627 279.929C154.544 286.345 149.636 294.653 149.089 304.356C148.781 309.818 149.989 314.832 152.026 319.862L152.956 320.808C154.204 319.206 154.489 301.264 160.059 293.905C159.876 289.236 160.034 285.074 161.766 280.673L161.627 279.929ZM165.119 303.817C164.124 308.815 163.436 313.813 162.785 318.864C166.501 317.105 168.5 316.47 172.492 318.008C174.797 318.895 177.891 320.822 178.88 323.201C179.202 323.977 178.962 324.29 178.767 325.056C177.889 325.633 177.656 325.883 176.552 325.715C173.124 325.194 169.375 321.496 165.945 324.215C163.699 325.994 163.098 329.111 163.094 331.812C163.088 337.731 166.521 345.722 164.516 351.247C163.312 354.564 155.237 361.238 157.88 364.587C162.317 366.185 172.927 359.807 175.54 364.455C175.788 364.897 175.888 365.447 176.004 365.933C174.834 368.208 174.206 368.598 175.058 371.197C178.006 380.196 184.329 387.161 192.838 391.262C195.337 392.466 198.033 393.3 200.73 393.931L208.017 395.098C212.026 390.124 215.303 385.662 221.273 382.867C223.928 373.73 226.256 368.005 233.969 362.048C231.987 360.034 228.623 355.007 226.829 353.745C221.915 350.289 211.174 357.818 209.883 337.023C207.784 336.035 206.484 335.457 205.152 333.518C204.702 332.864 203.959 331.544 203.376 331.058C200.623 328.764 194.191 327.482 190.718 326.013C187.208 324.514 183.859 322.664 180.722 320.489C174.061 315.784 170.485 309.683 165.119 303.817ZM285.475 306.816C285.396 314.403 284.975 322.083 282.502 329.316C280.8 330.079 279.072 330.808 277.4 331.635C274.495 337.693 271.478 343.561 267.897 349.258C274.127 351.479 278.302 355.37 283.086 359.774L288.635 357.328C297.109 353.244 304.017 347.641 307.274 338.503C309.406 332.524 309.633 325.877 306.798 320.075C303.827 313.995 297.697 309.957 291.359 308.029C289.435 307.444 287.457 307.127 285.475 306.816ZM218.331 328.988C215.508 330.788 215.358 332.148 214.648 335.335C214.014 338.181 214.173 341.359 215.815 343.867C217.1 345.829 219.194 347.096 221.488 347.514C222.881 347.768 224.301 347.554 225.69 347.374C228.06 345.598 229.774 343.8 230.318 340.783C230.763 338.311 229.939 335.767 228.405 333.818C225.949 330.698 222.736 329.396 218.881 329.034L218.331 328.988ZM389.367 354.204C371.958 355.848 342.891 361.669 326.787 368.17C349.62 379.08 368.127 397.717 381.66 418.931C382.625 409.511 386.989 377.288 392.286 371.412C393.631 370.889 393.572 370.907 394.927 371.416C396.153 373.254 395.83 374.953 395.438 377.023C394.8 380.397 393.629 383.661 392.831 387C390.775 395.6 389.016 404.769 388.248 413.57C390.635 409.246 393.162 404.911 395.154 400.39C396.482 397.374 397.314 393.895 399.095 391.116C399.808 390.003 400.464 389.554 401.741 389.247C402.658 389.027 402.902 389.228 403.752 389.497C404.874 391.807 404.195 393.905 403.377 396.247C401.693 401.076 399.175 405.718 396.907 410.299L396.143 412.509C410.914 432.423 426.329 451.793 440.745 471.998C453.97 469.318 468.937 461.55 479.15 452.762C466.074 429.162 434.975 380.336 416.398 363.308C412.298 359.55 407.34 356.136 401.926 354.651C397.777 353.513 393.594 353.789 389.367 354.204ZM265.24 356.106C254.059 358.201 238.255 363.767 231.527 373.622C229.967 375.907 229.061 378.744 228.175 381.352C230.823 379.473 233.288 377.488 235.743 375.364C248.085 366.475 260.374 361.16 275.539 359.422C273.041 357.227 270.891 355.745 267.451 355.918C266.712 355.961 265.975 356.024 265.24 356.106ZM273.794 365.649C262.063 367.62 250.461 371.226 241.142 378.894C281.262 379.139 326.438 395.939 360.781 415.939C367.769 420.155 375.028 424.115 381.26 429.421C360.491 398.708 341.818 375.197 303.344 367.616C293.871 365.75 283.433 364.557 273.794 365.649ZM232.752 385.148C225.701 386.219 220.814 388.205 215.625 393.309C265.164 383.006 340.709 418.877 381.87 445.891C396.861 455.73 412.303 465.761 426.318 476.951C428.822 478.782 432.941 482.842 435.743 483.719C397.223 442.254 355.268 414.574 301.551 396.442C284.14 390.565 264.987 385.517 246.578 384.858C241.967 384.703 237.352 384.8 232.752 385.148ZM228.385 397.707C221.055 398.391 212.388 399.037 207.348 405.089C193.661 421.521 190.297 474.651 188.065 496.471C187.254 504.392 187.326 513.804 184.593 521.251C180.671 523.541 176.084 524.833 171.806 526.329C167.624 533.896 163.569 541.624 158.937 548.929C152.249 559.476 144.519 569.53 136.872 579.396C130.906 587.093 122.408 595.243 117.523 603.388C127.178 612.364 136.341 619.847 147.966 626.244C156.426 617.961 164.165 608.954 172.025 600.109C190.462 579.362 209.497 557.435 223.015 533.064C234.48 512.393 244.324 476.306 260.474 459.912C262.98 457.369 268.601 451.787 272.315 452.037C273.193 452.096 273.316 452.496 273.895 453.081C274.232 454.399 274.525 454.81 273.763 456.03C273.576 456.33 273.231 456.673 272.982 456.936C268.35 461.001 263.565 464.958 259.937 469.988C264.376 476.202 270.963 481.507 276.803 486.412C302.554 508.045 333.804 524.111 364.813 536.725C375.092 540.906 385.638 544.45 395.988 548.456C409.544 541.803 424.039 537.264 438.969 534.999C444.215 534.158 449.518 533.791 454.771 533.01C452.697 523.877 450.563 515.887 451.638 506.479C431.817 486.662 408.627 470.636 385.053 455.637C374.514 448.932 364.011 442.057 353.095 435.971C318.446 416.651 272.368 397.618 232.236 397.567C230.951 397.56 229.666 397.606 228.385 397.707ZM390.892 417.266C389.539 419.442 388.251 421.643 386.592 423.605C389.567 431.045 394.735 435.826 400.693 440.983L401.781 441.764C403.134 439.803 402.455 433.378 402.437 430.925C399.497 426.086 395.716 420.384 390.892 417.266ZM408.129 437.386L408.222 447.92C411.527 450.719 414.895 453.462 417.931 456.556L418.658 456.508C419.475 452.412 417.553 450.195 415.302 446.848C413.375 443.983 410.756 439.543 408.129 437.386ZM481.518 457.946C469.735 466.601 457.535 472.768 443.609 477.281L451.996 487.676C452.608 488.249 452.845 488.812 453.747 488.761C460.412 488.384 481.689 473.757 486.835 469.433C485.826 466.847 483.608 459.277 481.518 457.946ZM256.104 476.783C256.138 483.713 261.847 489.546 266.501 494.12C289.835 517.053 332.322 539.659 362.686 551.18C374.704 555.74 387.075 559.154 399.287 563.115C406.231 565.368 412.98 568.607 419.995 570.534L420.817 570.366L422.17 564.948C404.907 557.929 387.144 552.144 369.755 545.444C348.61 537.449 328.203 527.622 308.768 516.075C297.074 509.091 285.721 501.117 274.944 492.791C269.738 488.768 261.343 479.08 256.104 476.783ZM484.366 479.853C477.018 486.524 464.133 495.165 459.171 503.226C457.503 505.937 456.722 508.966 456.593 512.131C456.244 520.699 459.604 530.047 461.878 538.251L468.213 535.231C465.557 529.354 462.604 523.628 465.129 517.115C465.77 515.461 466.666 513.878 467.503 512.316C472.024 504.51 478.239 495.946 487.009 492.687C487.124 492.822 487.241 492.956 487.355 493.092C489.833 496.058 499.469 511.884 500.979 512.818C501.275 513.001 501.66 512.965 502.001 513.038C503.296 512.224 503.436 512.11 504.087 510.732C504.129 505.159 498.004 491.656 494.006 487.489C491.283 484.652 487.731 481.861 484.366 479.853ZM448.981 493.213C450.32 495.477 451.556 498.27 453.736 499.805L454.69 499.798L455.742 498.295C456.36 496.898 456.826 496.354 456.55 494.825C454.501 493.588 451.52 494.433 448.981 493.213ZM484.461 499.878C479.175 503.869 471.213 513.181 470.064 519.917C469.911 520.815 470.082 520.877 470.448 521.652C471.746 521.931 472.14 521.779 473.278 521.098C473.854 520.752 474.402 520.322 474.942 519.926C480.318 516.357 485.889 512.912 491.046 509.041C489.55 506.853 486.517 501.102 484.461 499.878ZM533.173 510.04C526.985 512.384 521.435 516.474 515.897 520.032C510.416 523.583 504.844 526.992 499.187 530.257C479.037 542.037 458.99 552.418 437.893 562.315C456.01 569.535 477.379 596.442 487.351 613.151C491.254 610.937 495.003 608.564 498.749 606.095C509.148 599.231 519.577 592.273 530.299 585.925C527.07 582.945 522.847 579.813 521.271 575.626C521.442 573.969 522.261 573.564 523.567 572.53C529.733 567.647 537.247 564.288 543.665 559.691C547.758 563.15 551.214 567.164 554.743 571.18C559.714 568.39 564.186 564.625 568.848 561.351C572.387 558.867 576.358 556.658 579.649 553.869C571.344 542.669 550.945 512.69 537.754 510.193C536.282 509.915 534.661 510.007 533.173 510.04ZM289.812 520.907C301.731 532.442 320.51 548.919 320.838 566.685C320.923 571.273 320.2 575.934 319.984 580.523C319.526 590.246 323.888 598.589 328.017 607.072C334.346 598.37 340.702 589.199 348.325 581.559C356.545 574.075 365.233 568.125 374.535 562.101C354.1 554.867 334.399 546.503 315.254 536.303C307.303 532.068 297.987 523.555 289.812 520.907ZM477.283 524.473C475.391 525.843 472.909 527.458 472.39 529.899C472.289 530.376 472.313 530.603 472.299 531.123L472.269 531.119L473.468 531.742L473.779 531.496C475.818 530.554 477.849 529.538 479.958 528.767C479.131 527.395 478.324 525.679 477.283 524.473ZM453.868 539.156C436.461 541.948 419.779 545.394 403.089 551.217L413.391 554.686C418.16 556.685 423.017 558.574 427.709 560.744C436.922 554.587 446.89 547.01 457.062 542.607C456.416 541.293 455.925 539.693 454.536 539.033L453.868 539.156ZM379.701 563.972C368.342 571.38 356.922 578.359 347.942 588.733C335.196 603.455 327.299 619.937 318.301 636.94C312.741 647.448 306.751 657.76 300.921 668.123C291.627 684.647 281.972 700.926 272.895 717.575C268.468 725.696 263.826 733.766 260.293 742.326C253.836 757.966 250.558 775.008 247.085 791.509C241.841 815.903 237.253 840.434 233.327 865.075C231.324 877.219 228.882 889.491 227.851 901.759C246.966 906.574 266.043 910.148 284.72 916.636C292.501 898.781 298.985 880.39 304.122 861.603C313.104 828.815 319.99 805.884 301.882 774.045C300.764 772.081 299.64 770.447 298.167 768.732C296.764 767.099 295.37 765.538 294.634 763.485C294.83 762.083 294.991 761.96 295.939 760.884C297.273 760.411 297.661 760.142 299.045 760.694C300.603 761.315 302.111 763.441 303.144 764.746C310.94 774.597 314.992 786.116 318.827 797.91C320.85 795.446 322.561 793.076 324.104 790.284C324.068 790.076 324.035 789.868 323.996 789.661C322.761 782.96 316.839 771.853 321.143 765.747C328.206 755.726 343.311 743.942 352.525 735.129C375.136 713.461 397.473 691.509 419.53 669.278L437.575 651.195C440.659 648.104 444.246 645 446.974 641.597C447.83 640.53 447.733 640.354 447.666 639.033C445.714 635.112 440.355 634.311 438.375 630.226C436.109 625.55 434.937 619.141 433.427 614.077L422.677 578.668C415.84 575.132 386.476 564.142 379.701 563.972ZM587.36 566.383C579.543 572.397 570.226 576.864 562.832 583.255C564.464 586.615 566.391 589.887 567.902 593.29C562.33 598.049 553.975 603.791 547.438 607.087C547.309 606.954 547.179 606.823 547.052 606.689C543.869 603.316 541.747 598.647 538.337 595.627C521.128 604.052 505.259 619.109 488.029 628.389C497.166 645.555 516.644 671.503 510.627 691.509C510.433 692.152 510.211 692.773 509.978 693.403L509.542 694.695C513.437 695.904 538.922 683.317 544.002 680.646C563.233 670.535 616.983 639.207 623.293 618.578C623.867 616.701 624.068 614.631 624.282 612.682C621.286 606.823 590.656 567.516 587.36 566.383ZM542.773 567.446C537.8 570.316 532.706 573.074 527.991 576.357C537.49 583.832 540.541 589.783 547.907 598.531C552.989 597.227 557.155 593.924 561.24 590.76C558.285 586.412 546.654 568.919 542.773 567.446ZM435.589 575.67C443.021 602.548 450.698 629.358 458.619 656.097C461.851 666.967 464.144 679.187 468.853 689.466C470.568 693.209 472.422 696.199 476.128 698.25C482.32 701.676 490.581 700.798 497.108 698.737C498.366 698.338 499.616 697.912 500.857 697.46C506.198 681.653 502.449 674.46 495.339 660.083C489.988 649.262 484.039 638.464 477.728 628.177C471.3 617.699 445.849 579.405 435.589 575.67ZM112.671 607.813C110.613 610.266 108.843 612.645 107.309 615.471C111.746 624.177 123.035 635.236 132.392 638.309C133.958 638.823 134.709 638.433 136.059 637.631C136.177 637.561 136.285 637.477 136.397 637.401C139.063 635.116 141.624 632.78 144.133 630.324C137.485 626.906 131.192 622.839 125.343 618.183C121.556 615.167 116.982 609.8 112.671 607.813ZM100.796 615.775C100.626 615.82 100.457 615.867 100.287 615.911C83.9467 620.042 62.8256 611.427 51.8854 628.676C49.2565 632.821 46.9667 639.681 47.9891 644.552C48.1778 645.452 48.5035 646.331 48.8244 647.19C50.6774 637.806 52.9519 630.799 61.2306 625.197C66.4339 621.675 73.3819 619.851 79.6116 621.406C80.4704 621.621 81.0634 621.911 81.6846 622.552C81.8139 623.086 81.9025 623.028 81.6211 623.529C81.0362 624.571 79.7385 625.456 78.5868 625.736C76.1052 626.34 73.2591 626.136 70.709 626.454C65.5204 627.103 60.5264 631.373 57.6117 635.564C54.4626 640.092 51.5561 648.802 52.5992 654.321C52.8143 655.459 53.2255 656.314 53.795 657.31L54.3359 657.527L54.4291 656.727C55.4398 648.644 59.1252 638.863 65.8294 633.771C67.9161 632.186 70.5356 631.045 73.1995 631.485C74.3813 631.681 74.948 632.082 75.6161 633.036C75.4837 634.087 75.4716 634.319 74.5847 635.023C72.446 636.723 70.1523 637.041 68.0882 639.169C62.1785 646.682 57.6622 656.555 58.6303 666.355C58.9291 669.38 60.0897 671.425 61.7038 673.952C61.219 663.637 63.1846 653.913 70.2536 645.87C70.8896 645.146 71.481 644.762 72.399 644.438C73.712 644.952 73.7019 645.191 74.4365 646.424C75.0028 649.977 66.2877 659.544 66.3436 668.803C66.3531 670.388 66.3313 672.025 67.1737 673.413C68.4205 672.998 68.7467 672.235 69.3153 671.103C72.869 664.027 72.6968 656.114 81.182 652.726C84.8893 651.246 88.7713 651.129 92.696 651.327C107.728 652.084 115.135 653.027 126.806 642.343C118.582 638.023 111.56 632.569 106.095 624.961C105.1 623.575 101.517 615.57 100.796 615.775ZM449.019 648.87C440.392 657.105 432.023 665.607 423.925 674.364C430.348 693.179 436.979 711.923 443.818 730.592C449.284 745.949 460.113 779.026 469.162 791.127C476.085 800.384 484.985 806.012 495.25 810.989C532.938 829.09 570.819 846.785 608.887 864.072C621.031 848.344 634.646 831.974 650.745 820.113L654.176 817.447C642.958 811.765 632.08 805.447 620.864 799.755C606.185 792.305 591.222 785.577 576.38 778.478C566.434 773.721 547.696 764.236 537.578 761.952C532.76 760.865 527.686 761.758 523.059 763.268C518.061 764.899 501.651 774.6 498.711 774.321C497.714 773.279 497.64 773.261 497.484 771.839C499.68 766.628 511.255 761.753 516.255 759.735C521.681 757.544 527.069 756.097 532.83 755.114C527.76 750.655 523.493 749.05 516.884 748.155L517.113 747.492L516.624 748.029C516.255 746.616 516.523 746.364 517.071 744.982C519.472 743.322 520.583 742.687 521.076 739.678C521.8 735.255 521.619 730.431 521.804 725.949C522.187 716.666 522.545 707.254 523.485 698.012C510.225 702.914 487.825 711.182 474.27 704.7C466.89 701.171 463.038 694.668 460.557 687.207C458.97 682.435 450.689 649.843 449.019 648.87ZM603.745 650.389C600.399 652.988 573.414 670.995 573.123 671.473C573.908 671.893 574.188 671.983 575.116 672.108C584.788 673.286 594.184 674.253 603.949 673.978C604.048 667.481 605.121 656.358 603.745 650.389ZM661.049 820.486C647.597 827.964 622.979 856.437 612.249 869.217C617.778 872.712 623.366 876.114 629.009 879.422C643.738 861.803 658.162 843.787 676.537 829.765C672.004 825.985 666.761 822.224 661.049 820.486ZM678.843 836.333L674.05 841.253L678.022 844.642L678.881 845.169C679.86 843.75 680.335 839.452 679.879 837.739C679.677 836.98 679.463 836.735 678.843 836.333ZM668.254 845.84C662.333 851.926 656.175 857.908 650.885 864.558C654.317 867.438 659.479 872.737 663.852 873.729C669.65 868.641 675.651 863.579 681.899 859.055C677.904 855.091 672.776 848.858 668.254 845.84ZM689.48 861.443C680.923 868.757 672.491 876.368 663.678 883.366C659.701 898.829 654.136 930.292 645.457 943.078C639.429 939.766 631.729 937.645 624.907 939.768C623.122 940.324 620.841 941.481 620.019 943.28C619.502 944.413 619.702 945.37 620.229 946.446C622.006 950.074 630.708 951.958 634.392 952.629C635.974 952.909 637.567 953.122 639.167 953.268C647.44 952.116 655.542 942.373 660.263 936.064C665.244 929.408 669.427 921.967 672.836 914.392C675.904 907.577 677.876 897.734 682.839 892.173C689.134 885.119 702.141 881.309 711.166 879.888C711.549 879.827 711.934 879.782 712.319 879.734C706.619 872.131 697.796 865.921 689.48 861.443ZM714.647 886.174C706.197 887.309 693.033 890.81 687.737 898.039C684.671 902.224 683.569 908.208 681.595 913.002C678.936 919.366 675.772 925.507 672.133 931.366C666.978 939.583 660.779 946.234 653.696 952.795C651.649 954.692 648.631 956.394 646.973 958.526C647.753 959.236 649.587 959.128 650.632 959.076C651.172 959.049 651.71 958.982 652.25 958.945C652.375 958.937 652.5 958.941 652.625 958.94C662.307 958.315 681.997 956.686 688.725 949.086C693.787 943.369 716.745 904.283 719.248 897.095C718.559 893.636 718.192 889.187 715.697 886.5L714.647 886.174ZM219.112 906.721C217.136 912.274 215.016 917.855 213.604 923.584C233.141 926.967 251.944 931.705 270.784 937.851C274.546 939.079 278.575 939.923 282.22 941.421L282.845 940.829C285.418 935.602 287.579 930.354 289.372 924.812C266.287 917.548 242.835 911.509 219.112 906.721ZM154.03 934.157C151.289 934.544 148.905 935.155 146.297 936.069C176.69 944.681 204.948 959.183 233.296 972.859C237.172 974.729 255.912 985.137 258.507 984.816L258.884 984.393C261.347 974.776 262.357 965.942 262.045 955.99C260.177 955.001 258.274 954.051 256.452 952.981C249.908 953.061 243.301 954.046 236.789 953.914C231.393 950.704 227.339 946.307 222.511 942.388C216.356 943.722 209.427 945.904 203.108 945.776C188.568 945.482 171.628 932.897 154.03 934.157ZM232.386 933.979C231.357 935.909 230.455 937.789 229.699 939.842C232.404 943.016 235.707 945.621 238.882 948.306C246.226 946.865 252.336 945.752 259.711 947.928L260.657 947.973C261.761 946.435 261.982 944.216 262.376 942.388C252.44 939.514 242.472 936.259 232.386 933.979Z"/>
	<path fill="#9F8BE8" d="M595.881 97.9242C637.441 89.9653 679.518 84.4562 721.247 77.4543C769.297 69.4178 817.387 61.6228 865.515 54.0693C888.544 50.4468 911.44 46.3196 934.555 43.2176L935.497 43.1439L935.604 43.8965C933.171 47.9925 929.668 51.6888 926.466 55.2044C907.576 57.5919 888.785 61.277 869.971 64.1991L685.124 94.5467L630.583 103.941C624.834 104.949 618.875 107.006 613.093 107.472C609.077 107.795 604.443 106.097 600.546 105.101C598.887 104.681 597.333 104.427 595.996 103.287C595.24 101.665 595.697 99.6634 595.881 97.9242Z"/>
	<path fill="#9F8BE8" d="M931.513 59.7749C935.513 56.0515 939.121 51.9278 942.795 47.888C943.847 54.1272 942.971 61.6628 942.935 68.0535C942.848 81.9147 942.838 95.7762 942.903 109.638L942.848 278.866L943.434 788.291C940.57 787.56 937.726 786.723 934.879 785.926C933.912 785.67 932.956 785.355 931.998 785.066C930.859 783.665 931.083 781.348 931.052 779.559C930.646 756.524 931.32 733.392 931.373 710.348L931.405 568.45L931.513 59.7749Z"/>
	<path fill="#9F8BE8" d="M876.68 211.731C869.78 215.077 864.344 220.825 861.726 228.071C861.25 229.388 860.952 230.739 860.688 232.111C857.165 248.888 870.663 267.653 878.815 281.467C868.169 284.11 859.386 285.621 853.216 295.776C846.434 306.939 840.216 318.847 832.341 329.297C831.862 324.505 831.734 319.341 830.745 314.643C830.092 305.454 826.309 299.969 820.211 293.381C819.624 292.007 817.979 290.428 817.011 289.22C816.886 287.581 817.249 287.42 818.164 286.113C824.724 280.272 831.135 273.046 835.872 265.634C837.58 262.962 839.398 260.247 838.693 257.011L838.775 255.552C839.692 254.044 841.299 253.566 842.84 252.868C846.008 246.373 848.59 237.067 846.263 229.98C844.395 222.655 839.74 216.593 833.262 212.728C825.787 208.332 816.862 207.115 808.482 209.347C799.092 211.992 791.14 218.263 786.381 226.779C782.344 234.17 780.869 244.395 783.374 252.509C783.645 253.364 783.954 254.206 784.299 255.034C786.062 259.523 785.844 262.589 785.429 267.315C779.695 265.613 775.754 265.549 769.943 266.529L769.587 156.839C763.157 153.676 755.729 152.076 748.85 150.094L727.973 143.876L669.052 126.467C654.297 122.089 639.284 117.85 624.826 112.578C633.219 110.312 642.173 109.182 650.75 107.738C668.584 104.735 686.469 102.114 704.277 98.9441C757.381 89.7921 810.555 81.0522 863.795 72.7251C883.69 69.5858 903.49 65.8717 923.415 62.9305C923.133 116.777 923.174 170.624 923.538 224.47L923.575 224.158L923.245 226.757C922.195 224.573 921.218 222.435 919.794 220.461C916.486 214.422 911.499 210.036 904.807 208.082C895.431 205.343 885.109 207.034 876.68 211.731Z"/>
	<path fill="#9F8BE8" d="M421.53 359.417C420.758 311.373 421.274 263.231 421.341 215.177L420.971 68.8047C440.373 72.6787 459.524 78.4032 478.779 82.9857C520.545 92.7369 562.22 102.872 603.8 113.388C603.413 139.94 603.885 166.494 603.795 193.045L604.069 574.905C599.972 570.752 596.098 566.325 592.155 562.022C593.057 560.634 594.147 559.034 594.518 557.405C596.119 550.378 585.49 537.668 581.643 531.66C580.786 496.08 581.448 460.342 581.536 424.75L581.512 261.29C569.004 258.573 556.659 254.97 544.27 251.747L498.823 240.173C486.579 236.952 473.694 232.682 461.203 230.839C459.742 230.623 459.555 230.421 458.377 231.286C457.954 232.2 457.724 232.9 457.662 233.919C457.271 240.407 457.586 247.069 457.577 253.582L457.529 291.731L457.288 406.521C445.06 389.408 436.465 374.945 421.53 359.417ZM458.635 95.8577C457.773 97.0452 457.438 97.8656 457.338 99.3418C456.505 111.659 457.358 126.656 457.374 139.262L457.252 210.682C466.916 214.047 477.194 216.118 487.137 218.531L530.318 229.048C546.505 232.893 563.012 238.185 579.429 240.71C580.248 240.131 581.053 239.886 581.24 238.862C582.327 232.912 581.413 214.714 581.408 207.589C581.387 180.495 581.097 153.343 581.506 126.256C573.082 123.581 564.316 121.765 555.74 119.625L510.07 108.242L478.47 100.38C471.944 98.759 465.289 96.8199 458.635 95.8577Z"/>
	<path fill="#9F8BE8" d="M409.452 350.68L409.995 152.388L410.181 95.558C410.191 87.6224 409.111 78.7294 410.292 70.9632C411.601 69.9031 413.25 69.9145 414.863 69.7152L415.9 69.5678C416.995 71.3097 416.346 127.002 416.354 132.971L416.465 283.438L416.439 328.681C416.459 336.906 417.158 345.579 416.293 353.744C415.067 354.098 414.835 353.626 413.746 353.057L409.452 350.68Z"/>
	<path fill="#010001" d="M457.252 210.682L457.374 139.262C457.358 126.656 456.505 111.659 457.338 99.3418C457.438 97.8656 457.773 97.0452 458.635 95.8577C465.289 96.8199 471.944 98.759 478.47 100.38L510.07 108.242L555.74 119.625C564.316 121.765 573.082 123.581 581.506 126.256C581.097 153.343 581.387 180.495 581.408 207.589C581.413 214.714 582.327 232.912 581.24 238.862C581.053 239.886 580.248 240.131 579.429 240.71C563.012 238.185 546.505 232.893 530.318 229.048L487.137 218.531C477.194 216.118 466.916 214.047 457.252 210.682ZM461.962 101.687L461.984 207.14L531.997 224.37C546.786 227.937 561.838 231.075 576.473 235.221C576.318 200.115 576.71 164.927 576.016 129.833C552.257 123.72 528.451 117.793 504.599 112.053C490.457 108.554 476.221 104.621 461.962 101.687Z"/>
	<path fill="#9F8BE8" d="M461.984 207.14L461.962 101.687C476.221 104.621 490.457 108.554 504.599 112.053C528.451 117.793 552.257 123.72 576.016 129.833C576.71 164.927 576.318 200.115 576.473 235.221C561.838 231.075 546.786 227.937 531.997 224.37L461.984 207.14Z"/>
	<path fill="#9F8BE8" d="M611.88 584.447C611.315 564.467 611.598 544.398 611.582 524.406L611.446 430.386L611.394 115.451C648.45 126.953 685.776 137.734 722.968 148.802C736.622 152.865 750.41 156.559 763.966 160.936L764.546 643.737C751.334 646.96 737.968 649.483 724.618 652.06C687.09 659.262 649.522 666.261 611.917 673.056C611.948 663.395 611.761 653.675 612.246 644.026C619.482 637.085 629.506 627.352 630.677 616.859C631.956 605.406 618.539 593.072 611.88 584.447ZM635.064 139.699L634.934 212.43C634.918 226.195 634.573 240.055 634.901 253.812C659.729 259.875 684.401 267.201 709.081 273.906C717.027 276.064 738.783 283.129 745.65 282.764C747.131 273.942 746.023 256.594 746.014 246.831C745.995 222.807 746.41 198.714 745.854 174.698C737.559 169.2 710.166 162.6 699.313 159.171C684.556 154.358 669.733 149.751 654.848 145.35C648.315 143.397 641.781 140.916 635.064 139.699ZM635.696 273.09C634.477 283.646 635.259 294.885 635.286 305.526L635.501 366.264L635.736 553.776L636.043 620.276C636.063 629.926 635.288 640.023 635.939 649.598C636.044 651.151 636.253 652.371 636.895 653.789C640.819 655.334 719.044 639.947 730.39 638.093C734.637 637.387 742.972 637.077 746.252 634.221C747.424 628.114 746.413 615.645 746.402 608.93L746.357 548.213L746.186 302.607C739.063 299 730.099 297.349 722.378 295.243C706.447 290.91 690.476 286.721 674.469 282.677C663.37 279.827 652.316 276.089 641.141 273.662C639.3 273.262 637.58 273.062 635.696 273.09Z"/>
	<path fill="#010001" d="M634.901 253.812C634.573 240.055 634.918 226.195 634.934 212.43L635.064 139.699C641.781 140.916 648.315 143.397 654.848 145.35C669.733 149.751 684.556 154.358 699.313 159.171C710.166 162.6 737.559 169.2 745.854 174.698C746.41 198.714 745.995 222.807 746.014 246.831C746.023 256.594 747.131 273.942 745.65 282.764C738.783 283.129 717.027 276.064 709.081 273.906C684.401 267.201 659.729 259.875 634.901 253.812ZM639.994 146.098L640.004 213.989C640.019 225.805 639.615 237.793 640.183 249.592L714.356 270.436C721.726 272.459 733.796 276.797 740.79 277.65L740.969 177.503C716.163 169.612 691.29 161.934 666.352 154.471C657.562 151.79 648.816 148.601 639.994 146.098Z"/>
	<path fill="#9F8BE8" d="M640.183 249.592C639.615 237.793 640.019 225.805 640.004 213.989L639.994 146.098C648.816 148.601 657.562 151.79 666.352 154.471C691.29 161.934 716.163 169.612 740.969 177.503L740.79 277.65C733.796 276.797 721.726 272.459 714.356 270.436L640.183 249.592Z"/>
	<path fill="#170216" d="M876.68 211.731C885.109 207.034 895.431 205.343 904.807 208.082C911.499 210.036 916.486 214.422 919.794 220.461C919.696 220.49 919.601 220.545 919.498 220.547C916.702 220.6 910.035 212.642 907.781 210.557C907.697 210.543 907.611 210.531 907.527 210.515C898.875 208.858 889.945 209.403 881.558 212.098C879.828 211.853 878.253 212.412 876.68 211.731Z"/>
	<path fill="#010001" d="M784.299 255.034C783.954 254.206 783.645 253.364 783.374 252.509C780.869 244.395 782.344 234.17 786.381 226.779C791.14 218.263 799.092 211.992 808.482 209.347C816.862 207.115 825.787 208.332 833.262 212.728C839.74 216.593 844.395 222.655 846.263 229.98L845.28 230.097L845.252 229.389L844.384 229.003C838.856 220.761 833.069 213.953 822.77 211.994C814.217 210.368 806.36 211.726 799.114 216.679C792.377 221.286 787.313 228.389 785.883 236.517C785.161 240.621 786.61 252.454 784.299 255.034Z"/>
	<path fill="#220632" d="M860.688 232.111C860.952 230.739 861.25 229.388 861.726 228.071C864.344 220.825 869.78 215.077 876.68 211.731C878.253 212.412 879.828 211.853 881.558 212.098C874.672 214.468 869.959 216.72 866.568 223.566L866.297 224.123C865.907 223.833 865.866 223.173 865.734 222.711L866.509 224.058L865.014 223.295L866.464 222.408C865.877 222.387 865.985 222.285 865.514 222.743C863.314 224.881 862.323 229.783 861.264 232.718L860.688 232.111Z"/>
	<path fill="#9F8BE8" d="M461.87 413.205C462.9 354.177 460.739 295.012 462.35 236C477.691 239.144 493.005 243.755 508.184 247.652C530.835 253.313 553.453 259.111 576.034 265.043C576.888 317.257 576.362 369.544 576.379 421.765L576.399 487.253C576.408 499.904 576.716 512.6 576.266 525.242C573.671 521.783 570.751 518.591 567.885 515.358C559.975 507.023 551.709 499.882 540.321 497.253C529.472 501.064 529.725 504.447 521.821 509.78C521.014 507.648 520.137 505.543 519.192 503.468C518.28 501.481 517.014 499.578 514.818 498.9C512.296 498.121 510.298 499.514 508.155 500.65C502.722 487.821 500.293 484.591 489.228 476.233C490.59 474.35 491.761 472.366 492.957 470.376C486.73 449.763 473.498 431.119 461.87 413.205Z"/>
	<path fill="#010001" d="M818.164 286.113L817.609 285.919C817.195 284.957 817.207 285.406 817.548 284.329C818.683 280.746 822.692 277.916 825.046 275.068C828.28 271.155 834.997 258.977 838.693 257.011C839.398 260.247 837.58 262.962 835.872 265.634C831.135 273.046 824.724 280.272 818.164 286.113Z"/>
	<path fill="#9F8BE8" d="M911.937 279.976L911.475 279.883L911.218 279.413C914.657 272.318 919.746 266.277 923.087 258.818C924.543 263.409 923.537 275.537 923.503 280.842C919.662 280.462 915.788 280.259 911.937 279.976Z"/>
	<path fill="#6645A4" d="M209.143 330.201C201.68 322.825 191.405 319.66 183.077 313.277C176.123 307.947 167.416 299.441 166.451 290.212C165.984 285.745 167.822 281.816 170.597 278.419C180.718 266.029 199.111 261.137 214.341 259.701C222.253 258.497 232.102 259.713 239.75 262.079C253.957 266.395 265.835 276.236 272.718 289.392C279.142 301.638 280.254 314.77 276.195 327.974C249.529 329.078 227.706 317.263 208.757 299.189C205.557 296.136 198.606 287.343 195.989 285.602C194.999 284.943 194.768 285.087 193.671 285.313L193.054 286.259C193.105 287.021 193.072 287.053 193.324 287.896C195.406 294.85 215.882 312.23 222.006 316.438C227.038 319.896 232.378 322.687 237.871 325.328C249.667 330.609 260.959 332.566 273.852 332.351C270.055 338.431 266.312 344.65 261.736 350.181C253.655 353.012 246.212 354.854 238.706 359.217C236.02 357.052 233.581 354.824 231.183 352.342C234.433 347.708 237.055 343.374 236.523 337.442C236.133 333.187 234.022 329.276 230.679 326.614C227.599 324.184 223.54 322.944 219.628 323.426C214.867 324.013 211.955 326.586 209.143 330.201Z"/>
	<path fill="#010001" d="M730.39 638.093C719.044 639.947 640.819 655.334 636.895 653.789C636.253 652.371 636.044 651.151 635.939 649.598C635.288 640.023 636.063 629.926 636.043 620.276L635.736 553.776L635.501 366.264L635.286 305.526C635.259 294.885 634.477 283.646 635.696 273.09C637.58 273.062 639.3 273.262 641.141 273.662C652.316 276.089 663.37 279.827 674.469 282.677C690.476 286.721 706.447 290.91 722.378 295.243C730.099 297.349 739.063 299 746.186 302.607L746.357 548.213L746.402 608.93C746.413 615.645 747.424 628.114 746.252 634.221C742.972 637.077 734.637 637.387 730.39 638.093ZM640.414 278.843L640.881 649.436C669.922 644.412 698.919 639.14 727.869 633.62L741.419 631.227L741.262 306.194C729.558 302.154 717.552 299.148 705.594 295.966C683.831 290.4 662.103 284.693 640.414 278.843Z"/>
	<path fill="#9F8BE8" d="M640.881 649.436L640.414 278.843C662.103 284.693 683.831 290.4 705.594 295.966C717.552 299.148 729.558 302.154 741.262 306.194L741.419 631.227L727.869 633.62C698.919 639.14 669.922 644.412 640.881 649.436Z"/>
	<path fill="#6645A4" d="M152.026 319.862C149.989 314.832 148.781 309.818 149.089 304.356C149.636 294.653 154.544 286.345 161.627 279.929L161.766 280.673C160.034 285.074 159.876 289.236 160.059 293.905C154.489 301.264 154.204 319.206 152.956 320.808L152.026 319.862Z"/>
	<path fill="#010001" d="M830.745 314.643L830.292 315.604L829.569 315.606C828.158 313.487 828.255 310.574 827.241 308.217C825.935 305.184 823.862 302.355 822.099 299.576C820.706 297.38 819.613 296.067 820.211 293.381C826.309 299.969 830.092 305.454 830.745 314.643Z"/>
	<path fill="#FEFEFE" d="M162.785 318.864C163.436 313.813 164.124 308.815 165.119 303.817C170.485 309.683 174.061 315.784 180.722 320.489C183.859 322.664 187.208 324.514 190.718 326.013C194.191 327.482 200.623 328.764 203.376 331.058C203.959 331.544 204.702 332.864 205.152 333.518C206.484 335.457 207.784 336.035 209.883 337.023C211.174 357.818 221.915 350.289 226.829 353.745C228.623 355.007 231.987 360.034 233.969 362.048C226.256 368.005 223.928 373.73 221.273 382.867C215.303 385.662 212.026 390.124 208.017 395.098L200.73 393.931C198.033 393.3 195.337 392.466 192.838 391.262C184.329 387.161 178.006 380.196 175.058 371.197C174.206 368.598 174.834 368.208 176.004 365.933C175.888 365.447 175.788 364.897 175.54 364.455C172.927 359.807 162.317 366.185 157.88 364.587C155.237 361.238 163.312 354.564 164.516 351.247C166.521 345.722 163.088 337.731 163.094 331.812C163.098 329.111 163.699 325.994 165.945 324.215C169.375 321.496 173.124 325.194 176.552 325.715C177.656 325.883 177.889 325.633 178.767 325.056C178.962 324.29 179.202 323.977 178.88 323.201C177.891 320.822 174.797 318.895 172.492 318.008C168.5 316.47 166.501 317.105 162.785 318.864ZM172.291 334.166C170.613 336.475 170.189 338.447 170.697 341.292C171.004 343.012 172.074 345.144 173.642 346.034C174.452 346.494 175.085 346.669 175.987 346.821C177.443 344.435 178.176 342.286 177.598 339.465C177.244 337.733 176.116 335.749 174.535 334.874C173.844 334.492 173.054 334.328 172.291 334.166ZM201.251 368.296C198.076 370.279 194.723 373.651 193.789 377.385C193.607 378.113 193.658 378.679 193.821 379.4C194.784 380.37 195.455 380.664 196.701 381.13C198.099 379.795 198.698 378.993 199.225 377.148C199.578 375.909 199.734 374.743 200.849 373.964C201.648 373.927 203.03 374.115 203.587 373.527C204.189 372.892 204.297 372.265 204.521 371.45C204.262 370.217 204.153 369.691 203.053 368.887C202.65 368.592 201.697 368.414 201.251 368.296Z"/>
	<path fill="#6645A4" d="M282.502 329.316C284.975 322.083 285.396 314.403 285.475 306.816C287.457 307.127 289.435 307.444 291.359 308.029C297.697 309.957 303.827 313.995 306.798 320.075C309.633 325.877 309.406 332.524 307.274 338.503C304.017 347.641 297.109 353.244 288.635 357.328L283.086 359.774C278.302 355.37 274.127 351.479 267.897 349.258C271.478 343.561 274.495 337.693 277.4 331.635C279.072 330.808 280.8 330.079 282.502 329.316Z"/>
	<path fill="#FEFEFE" d="M225.69 347.374C224.301 347.554 222.881 347.768 221.488 347.514C219.194 347.096 217.1 345.829 215.815 343.867C214.173 341.359 214.014 338.181 214.648 335.335C215.358 332.148 215.508 330.788 218.331 328.988L218.881 329.034C222.736 329.396 225.949 330.698 228.405 333.818C229.939 335.767 230.763 338.311 230.318 340.783C229.774 343.8 228.06 345.598 225.69 347.374Z"/>
	<path fill="#010001" d="M175.987 346.821C175.085 346.669 174.452 346.494 173.642 346.034C172.074 345.144 171.004 343.012 170.697 341.292C170.189 338.447 170.613 336.475 172.291 334.166C173.054 334.328 173.844 334.492 174.535 334.874C176.116 335.749 177.244 337.733 177.598 339.465C178.176 342.286 177.443 344.435 175.987 346.821Z"/>
	<defs>
		<linearGradient id="gradient_1" gradientUnits="userSpaceOnUse" x1="840.79089" y1="377.86575" x2="849.89362" y2="372.89883">
			<stop offset="0" stop-color="#090008"/>
			<stop offset="1" stop-color="#1F071D"/>
		</linearGradient>
	</defs>
	<path fill="url(#gradient_1)" d="M838.386 360.803C837.303 361.65 836.461 361.948 836.117 363.324C838.563 373.415 857.35 393.673 865.372 401.155L866.575 402.281L868.883 401.257L868.919 401.908C868.114 402.568 867.491 403.197 866.484 403.517C865.275 403.238 864.265 402.937 863.203 402.273C859.028 399.661 855.71 395.176 852.465 391.529C843.83 381.826 835.925 374.566 833.276 361.195C832.662 358.098 831.095 341.557 832.436 339.544C832.462 340.677 832.417 341.681 832.823 342.755C832.981 342.172 833.11 341.606 833.218 341.01L833.325 340.398L833.258 342.011L833.594 342C834.051 346.15 833.23 352.654 835.077 356.349C835.871 357.938 837.163 358.247 838.733 358.765L839.304 358.948L838.386 360.803Z"/>
	<path fill="#9F8BE8" d="M865.372 401.155C857.35 393.673 838.563 373.415 836.117 363.324C836.461 361.948 837.303 361.65 838.386 360.803C844.139 357.245 849.532 353.428 854.798 349.171C861.015 360.003 867.063 370.962 873.693 381.548L871.193 388.491C869.299 392.724 867.494 397.032 865.372 401.155Z"/>
	<path fill="#FEFEFE" d="M326.787 368.17C342.891 361.669 371.958 355.848 389.367 354.204C393.594 353.789 397.777 353.513 401.926 354.651C407.34 356.136 412.298 359.55 416.398 363.308C434.975 380.336 466.074 429.162 479.15 452.762C468.937 461.55 453.97 469.318 440.745 471.998C426.329 451.793 410.914 432.423 396.143 412.509L396.907 410.299C399.175 405.718 401.693 401.076 403.377 396.247C404.195 393.905 404.874 391.807 403.752 389.497C402.902 389.228 402.658 389.027 401.741 389.247C400.464 389.554 399.808 390.003 399.095 391.116C397.314 393.895 396.482 397.374 395.154 400.39C393.162 404.911 390.635 409.246 388.248 413.57C389.016 404.769 390.775 395.6 392.831 387C393.629 383.661 394.8 380.397 395.438 377.023C395.83 374.953 396.153 373.254 394.927 371.416C393.572 370.907 393.631 370.889 392.286 371.412C386.989 377.288 382.625 409.511 381.66 418.931C368.127 397.717 349.62 379.08 326.787 368.17Z"/>
	<path fill="#FEFEFE" d="M228.175 381.352C229.061 378.744 229.967 375.907 231.527 373.622C238.255 363.767 254.059 358.201 265.24 356.106C265.975 356.024 266.712 355.961 267.451 355.918C270.891 355.745 273.041 357.227 275.539 359.422C260.374 361.16 248.085 366.475 235.743 375.364C233.288 377.488 230.823 379.473 228.175 381.352Z"/>
	<path fill="#FEFEFE" d="M241.142 378.894C250.461 371.226 262.063 367.62 273.794 365.649C283.433 364.557 293.871 365.75 303.344 367.616C341.818 375.197 360.491 398.708 381.26 429.421C375.028 424.115 367.769 420.155 360.781 415.939C326.438 395.939 281.262 379.139 241.142 378.894Z"/>
	<path fill="#010001" d="M196.701 381.13C195.455 380.664 194.784 380.37 193.821 379.4C193.658 378.679 193.607 378.113 193.789 377.385C194.723 373.651 198.076 370.279 201.251 368.296C201.697 368.414 202.65 368.592 203.053 368.887C204.153 369.691 204.262 370.217 204.521 371.45C204.297 372.265 204.189 372.892 203.587 373.527C203.03 374.115 201.648 373.927 200.849 373.964C199.734 374.743 199.578 375.909 199.225 377.148C198.698 378.993 198.099 379.795 196.701 381.13Z"/>
	<path fill="#010001" d="M807.717 373.649L808.638 373.427C809.397 373.904 829.333 393.529 830.601 395.144C835.425 399.431 840.497 403.601 845.112 408.101C848.525 410.877 854.761 415.165 856.304 419.392L855.808 420.861C854.058 419.381 852.404 417.921 850.837 416.244C843.063 410.453 835.341 403.532 828.512 396.636C820.741 391.117 812.731 381.714 807.717 373.649Z"/>
	<path fill="#FEFEFE" d="M215.625 393.309C220.814 388.205 225.701 386.219 232.752 385.148C237.352 384.8 241.967 384.703 246.578 384.858C264.987 385.517 284.14 390.565 301.551 396.442C355.268 414.574 397.223 442.254 435.743 483.719C432.941 482.842 428.822 478.782 426.318 476.951C412.303 465.761 396.861 455.73 381.87 445.891C340.709 418.877 265.164 383.006 215.625 393.309Z"/>
	<path fill="#170216" d="M871.193 388.491C872.191 390.374 871.965 391.623 871.371 393.638C870.42 396.861 868.898 399.845 866.575 402.281L865.372 401.155C867.494 397.032 869.299 392.724 871.193 388.491Z"/>
	<defs>
		<linearGradient id="gradient_2" gradientUnits="userSpaceOnUse" x1="804.68756" y1="411.44705" x2="810.81244" y2="399.55295">
			<stop offset="0" stop-color="black"/>
			<stop offset="1" stop-color="#100214"/>
		</linearGradient>
	</defs>
	<path fill="url(#gradient_2)" d="M811.137 412.951C808.663 409.749 806.207 406.569 804.233 403.027C802.901 400.636 800.972 396.326 801.685 393.672C806.708 400.632 812.241 408.601 815.886 416.374L815.106 416.647C813.524 416.125 812.221 414.179 811.137 412.951Z"/>
	<path fill="#FEFEFE" d="M184.593 521.251C187.326 513.804 187.254 504.392 188.065 496.471C190.297 474.651 193.661 421.521 207.348 405.089C212.388 399.037 221.055 398.391 228.385 397.707C229.666 397.606 230.951 397.56 232.236 397.567C272.368 397.618 318.446 416.651 353.095 435.971C364.011 442.057 374.514 448.932 385.053 455.637C408.627 470.636 431.817 486.662 451.638 506.479C450.563 515.887 452.697 523.877 454.771 533.01C449.518 533.791 444.215 534.158 438.969 534.999C424.039 537.264 409.544 541.803 395.988 548.456C385.638 544.45 375.092 540.906 364.813 536.725C333.804 524.111 302.554 508.045 276.803 486.412C270.963 481.507 264.376 476.202 259.937 469.988C263.565 464.958 268.35 461.001 272.982 456.936C273.231 456.673 273.576 456.33 273.763 456.03C274.525 454.81 274.232 454.399 273.895 453.081C273.316 452.496 273.193 452.096 272.315 452.037C268.601 451.787 262.98 457.369 260.474 459.912C244.324 476.306 234.48 512.393 223.015 533.064C209.497 557.435 190.462 579.362 172.025 600.109C164.165 608.954 156.426 617.961 147.966 626.244C136.341 619.847 127.178 612.364 117.523 603.388C122.408 595.243 130.906 587.093 136.872 579.396C144.519 569.53 152.249 559.476 158.937 548.929C163.569 541.624 167.624 533.896 171.806 526.329C176.084 524.833 180.671 523.541 184.593 521.251Z"/>
	<path fill="#010001" d="M811.137 412.951C812.221 414.179 813.524 416.125 815.106 416.647L815.886 416.374C819.879 421.26 822.999 427.91 826.183 433.389C836.613 451.331 850.719 473.106 849.893 494.649L849.183 494.971C848.784 493.932 848.828 494.328 848.803 493.35C848.622 485.988 847.432 479.525 844.845 472.634C844.714 477.738 848.365 484.456 847.981 491.055C847.968 491.278 847.948 491.5 847.931 491.723C846.24 485.122 845.337 478.417 843.025 471.968C840.407 464.666 836.416 458.029 832.73 451.241C829.555 445.396 826.985 439.207 823.693 433.436C819.726 426.485 814.986 419.969 811.137 412.951Z"/>
	<path fill="#9F8BE8" d="M386.592 423.605C388.251 421.643 389.539 419.442 390.892 417.266C395.716 420.384 399.497 426.086 402.437 430.925C402.455 433.378 403.134 439.803 401.781 441.764L400.693 440.983C394.735 435.826 389.567 431.045 386.592 423.605Z"/>
	<path fill="#9F8BE8" d="M408.222 447.92L408.129 437.386C410.756 439.543 413.375 443.983 415.302 446.848C417.553 450.195 419.475 452.412 418.658 456.508L417.931 456.556C414.895 453.462 411.527 450.719 408.222 447.92Z"/>
	<path fill="#FEFEFE" d="M443.609 477.281C457.535 472.768 469.735 466.601 481.518 457.946C483.608 459.277 485.826 466.847 486.835 469.433C481.689 473.757 460.412 488.384 453.747 488.761C452.845 488.812 452.608 488.249 451.996 487.676L443.609 477.281Z"/>
	<path fill="#FEFEFE" d="M420.817 570.366L419.995 570.534C412.98 568.607 406.231 565.368 399.287 563.115C387.075 559.154 374.704 555.74 362.686 551.18C332.322 539.659 289.835 517.053 266.501 494.12C261.847 489.546 256.138 483.713 256.104 476.783C261.343 479.08 269.738 488.768 274.944 492.791C285.721 501.117 297.074 509.091 308.768 516.075C328.203 527.622 348.61 537.449 369.755 545.444C387.144 552.144 404.907 557.929 422.17 564.948L420.817 570.366Z"/>
	<path fill="#FEFEFE" d="M461.878 538.251C459.604 530.047 456.244 520.699 456.593 512.131C456.722 508.966 457.503 505.937 459.171 503.226C464.133 495.165 477.018 486.524 484.366 479.853C487.731 481.861 491.283 484.652 494.006 487.489C498.004 491.656 504.129 505.159 504.087 510.732C503.436 512.11 503.296 512.224 502.001 513.038C501.66 512.965 501.275 513.001 500.979 512.818C499.469 511.884 489.833 496.058 487.355 493.092C487.241 492.956 487.124 492.822 487.009 492.687C478.239 495.946 472.024 504.51 467.503 512.316C466.666 513.878 465.77 515.461 465.129 517.115C462.604 523.628 465.557 529.354 468.213 535.231L461.878 538.251Z"/>
	<path fill="#FEFEFE" d="M455.742 498.295L454.69 499.798L453.736 499.805C451.556 498.27 450.32 495.477 448.981 493.213C451.52 494.433 454.501 493.588 456.55 494.825C456.826 496.354 456.36 496.898 455.742 498.295Z"/>
	<path fill="#FEFEFE" d="M474.942 519.926C474.402 520.322 473.854 520.752 473.278 521.098C472.14 521.779 471.746 521.931 470.448 521.652C470.082 520.877 469.911 520.815 470.064 519.917C471.213 513.181 479.175 503.869 484.461 499.878C486.517 501.102 489.55 506.853 491.046 509.041C485.889 512.912 480.318 516.357 474.942 519.926Z"/>
	<path fill="#6645A4" d="M587.119 557.616C586.416 558.349 586.577 558.057 586.198 558.838C585.736 559.791 585.353 560.715 584.697 561.562C583.353 563.298 561.211 577.848 559.546 577.972C558.733 577.281 558.725 577.236 558.484 576.193C559.986 573.478 583.646 558.351 587.138 557.077C582.711 545.578 562.633 521.268 553.008 512.751C549.821 509.931 545.884 507.235 542.031 505.401C540.476 504.661 538.765 504.264 537.09 503.901L537.203 503.154C539.787 502.007 543.022 503.389 545.555 504.372C558.744 509.491 574.21 531.197 582.405 543.055C584.727 546.414 587.576 549.965 589.216 553.721C589.471 554.306 589.602 554.854 589.738 555.475C588.928 556.503 588.22 556.955 587.119 557.616Z"/>
	<path fill="#6645A4" d="M503.586 518.43C506.291 517.329 510.233 515.956 511.893 513.488C511.956 510.644 508.553 509.06 510.431 506.361C511.878 506.484 512.709 507.472 513.615 508.559C514.667 509.82 515.463 511.152 516.206 512.61C504.141 520.309 492.161 528.038 479.632 534.999C475.96 537.039 472.305 539.439 468.4 540.971C476.784 533.96 487.577 530.442 495.954 523.632C498.265 523.446 501.78 519.905 503.586 518.43Z"/>
	<path fill="#010001" d="M901.406 507.856C904.787 510.589 904.993 519.586 905.743 523.921C906.993 531.153 909.247 538.463 911.929 545.275C913.469 549.186 921.966 565.277 922.095 568.019C922.123 568.616 921.926 569.364 921.812 569.935C918.605 566.077 916.359 561.199 914.232 556.688C906.871 541.076 902.089 525.19 901.406 507.856Z"/>
	<path fill="#FEFEFE" d="M437.893 562.315C458.99 552.418 479.037 542.037 499.187 530.257C504.844 526.992 510.416 523.583 515.897 520.032C521.435 516.474 526.985 512.384 533.173 510.04C534.661 510.007 536.282 509.915 537.754 510.193C550.945 512.69 571.344 542.669 579.649 553.869C576.358 556.658 572.387 558.867 568.848 561.351C564.186 564.625 559.714 568.39 554.743 571.18C551.214 567.164 547.758 563.15 543.665 559.691C537.247 564.288 529.733 567.647 523.567 572.53C522.261 573.564 521.442 573.969 521.271 575.626C522.847 579.813 527.07 582.945 530.299 585.925C519.577 592.273 509.148 599.231 498.749 606.095C495.003 608.564 491.254 610.937 487.351 613.151C477.379 596.442 456.01 569.535 437.893 562.315Z"/>
	<path fill="#9F8BE8" d="M483.262 521.36C485.8 519.68 488.174 517.627 490.788 516.088C492.166 515.277 493.363 514.86 494.898 515.216L495.967 517.566C494.292 521.288 487.95 522.609 484.955 525.755C484.536 524.248 483.86 522.804 483.262 521.36Z"/>
	<path fill="#4F1D88" d="M495.967 517.566L496.399 519.161C497.999 519.918 499.016 519.356 500.67 518.832C501.713 518.501 502.503 518.468 503.586 518.43C501.78 519.905 498.265 523.446 495.954 523.632C492.15 523.949 488.674 525.134 484.955 525.755C487.95 522.609 494.292 521.288 495.967 517.566Z"/>
	<path fill="#FEFEFE" d="M328.017 607.072C323.888 598.589 319.526 590.246 319.984 580.523C320.2 575.934 320.923 571.273 320.838 566.685C320.51 548.919 301.731 532.442 289.812 520.907C297.987 523.555 307.303 532.068 315.254 536.303C334.399 546.503 354.1 554.867 374.535 562.101C365.233 568.125 356.545 574.075 348.325 581.559C340.702 589.199 334.346 598.37 328.017 607.072Z"/>
	<path fill="#6645A4" d="M473.779 531.496L473.468 531.742L472.269 531.119L472.299 531.123C472.313 530.603 472.289 530.376 472.39 529.899C472.909 527.458 475.391 525.843 477.283 524.473C478.324 525.679 479.131 527.395 479.958 528.767C477.849 529.538 475.818 530.554 473.779 531.496Z"/>
	<path fill="#6645A4" d="M403.089 551.217C419.779 545.394 436.461 541.948 453.868 539.156L454.536 539.033C455.925 539.693 456.416 541.293 457.062 542.607C446.89 547.01 436.922 554.587 427.709 560.744C423.017 558.574 418.16 556.685 413.391 554.686L403.089 551.217Z"/>
	<path fill="#6645A4" d="M227.851 901.759C228.882 889.491 231.324 877.219 233.327 865.075C237.253 840.434 241.841 815.903 247.085 791.509C250.558 775.008 253.836 757.966 260.293 742.326C263.826 733.766 268.468 725.696 272.895 717.575C281.972 700.926 291.627 684.647 300.921 668.123C306.751 657.76 312.741 647.448 318.301 636.94C327.299 619.937 335.196 603.455 347.942 588.733C356.922 578.359 368.342 571.38 379.701 563.972C386.476 564.142 415.84 575.132 422.677 578.668L433.427 614.077C434.937 619.141 436.109 625.55 438.375 630.226C440.355 634.311 445.714 635.112 447.666 639.033C447.733 640.354 447.83 640.53 446.974 641.597C444.246 645 440.659 648.104 437.575 651.195L419.53 669.278C397.473 691.509 375.136 713.461 352.525 735.129C343.311 743.942 328.206 755.726 321.143 765.747C316.839 771.853 322.761 782.96 323.996 789.661C324.035 789.868 324.068 790.076 324.104 790.284C322.561 793.076 320.85 795.446 318.827 797.91C314.992 786.116 310.94 774.597 303.144 764.746C302.111 763.441 300.603 761.315 299.045 760.694C297.661 760.142 297.273 760.411 295.939 760.884C294.991 761.96 294.83 762.083 294.634 763.485C295.37 765.538 296.764 767.099 298.167 768.732C299.64 770.447 300.764 772.081 301.882 774.045C319.99 805.884 313.104 828.815 304.122 861.603C298.985 880.39 292.501 898.781 284.72 916.636C266.043 910.148 246.966 906.574 227.851 901.759Z"/>
	<path fill="#6645A4" d="M446.597 633.455C442.16 624.74 440.233 614.749 437.29 605.444C434.317 596.045 430.452 586.472 428.469 576.825C427.958 574.343 426.993 570.151 428.721 568.047C429.667 566.896 430.502 566.491 431.97 566.3C436.883 565.661 443.289 570.918 446.914 573.833C457.887 582.433 467.349 595.191 475.49 606.472C478.839 611.112 481.949 616.211 485.856 620.395C502.937 610.779 518.909 599.152 535.774 589.148C528.064 598.329 494.647 617.624 482.873 624.612C474.25 611.523 465.049 598.825 455.295 586.556C452.269 582.699 448.129 579.438 445.349 575.524C442.335 572.713 438.368 570.041 434.217 569.306C432.593 569.019 431.516 569.199 430.168 570.213C429.986 570.581 429.717 570.919 429.623 571.319C428.764 574.981 444.978 622.699 446.477 632.627L446.597 633.455Z"/>
	<path fill="#FEFEFE" d="M562.832 583.255C570.226 576.864 579.543 572.397 587.36 566.383C590.656 567.516 621.286 606.823 624.282 612.682C624.068 614.631 623.867 616.701 623.293 618.578C616.983 639.207 563.233 670.535 544.002 680.646C538.922 683.317 513.437 695.904 509.542 694.695L509.978 693.403C510.211 692.773 510.433 692.152 510.627 691.509C516.644 671.503 497.166 645.555 488.029 628.389C505.259 619.109 521.128 604.052 538.337 595.627C541.747 598.647 543.869 603.316 547.052 606.689C547.179 606.823 547.309 606.954 547.438 607.087C553.975 603.791 562.33 598.049 567.902 593.29C566.391 589.887 564.464 586.615 562.832 583.255Z"/>
	<path fill="#010001" d="M786.043 585.447C787.489 579.449 789.323 573.42 791.249 567.557L791.929 568.187C791.074 571.665 786.548 583.383 787.499 586.06C788.536 586.949 789.49 587.657 790.222 588.827C788.758 588.046 788.062 587.447 786.383 587.519C784.4 589.229 781.821 593.874 781.577 596.489C781.27 599.785 782.979 602.325 785.042 604.734C791.782 612.603 804.892 621.681 815.438 622.393C817.827 622.554 820.712 622.466 822.655 620.859C823.591 620.086 824.095 619.009 824.163 617.81C824.23 616.625 824.047 615.104 823.732 613.958C823.81 613.158 823.778 612.662 823.6 611.863C823.416 611.038 823.292 610.281 823.205 609.442C824.147 610.506 825.035 611.735 825.716 612.98C827.042 615.405 828.021 618.258 827.134 621.005C826.552 622.808 825.279 624.201 823.575 625.013C818.94 627.222 812.668 625.694 808.057 623.991C798.713 620.538 784.088 611.516 779.995 602.026C778.705 599.035 778.661 595.696 779.992 592.706C781.263 589.849 783.029 586.639 786.043 585.447Z"/>
	<path fill="#6645A4" d="M527.991 576.357C532.706 573.074 537.8 570.316 542.773 567.446C546.654 568.919 558.285 586.412 561.24 590.76C557.155 593.924 552.989 597.227 547.907 598.531C540.541 589.783 537.49 583.832 527.991 576.357Z"/>
	<path fill="#010001" d="M880.362 594.054C879.905 592.164 880.171 590.2 879.721 588.266C879.678 588.085 879.596 587.913 879.57 587.729C879.085 584.293 880.153 578.134 882.302 575.293L882.774 576.513C882.845 574.351 883.174 572.728 884.607 571.127C884.204 573.801 883.694 576.402 883.081 579.035C882.18 584.029 881.394 589.087 880.362 594.054Z"/>
	<path fill="#FEFEFE" d="M500.857 697.46C499.616 697.912 498.366 698.338 497.108 698.737C490.581 700.798 482.32 701.676 476.128 698.25C472.422 696.199 470.568 693.209 468.853 689.466C464.144 679.187 461.851 666.967 458.619 656.097C450.698 629.358 443.021 602.548 435.589 575.67C445.849 579.405 471.3 617.699 477.728 628.177C484.039 638.464 489.988 649.262 495.339 660.083C502.449 674.46 506.198 681.653 500.857 697.46Z"/>
	<path fill="#220632" d="M823.732 613.958C824.047 615.104 824.23 616.625 824.163 617.81C824.095 619.009 823.591 620.086 822.655 620.859C820.712 622.466 817.827 622.554 815.438 622.393C804.892 621.681 791.782 612.603 785.042 604.734C782.979 602.325 781.27 599.785 781.577 596.489C781.821 593.874 784.4 589.229 786.383 587.519C788.062 587.447 788.758 588.046 790.222 588.827C793.16 592.162 805.915 593.674 810.277 594.646L810.974 594.059L812.194 595.561C811.725 596.788 811.444 597.443 811.983 598.714C813.147 601.455 815.98 604.103 817.901 606.404C819.816 608.921 821.666 611.568 823.732 613.958Z"/>
	<path fill="#170216" d="M817.901 606.404C815.98 604.103 813.147 601.455 811.983 598.714C811.444 597.443 811.725 596.788 812.194 595.561C813.865 597.483 815.79 599.401 817.182 601.53C816.457 603.425 817.161 604.608 817.901 606.404Z"/>
	<path fill="#010001" d="M817.901 606.404C817.161 604.608 816.457 603.425 817.182 601.53C819.045 603.649 822.291 606.765 823.205 609.442C823.292 610.281 823.416 611.038 823.6 611.863C823.778 612.662 823.81 613.158 823.732 613.958C821.666 611.568 819.816 608.921 817.901 606.404Z"/>
	<path fill="#FEFEFE" d="M107.309 615.471C108.843 612.645 110.613 610.266 112.671 607.813C116.982 609.8 121.556 615.167 125.343 618.183C131.192 622.839 137.485 626.906 144.133 630.324C141.624 632.78 139.063 635.116 136.397 637.401C136.285 637.477 136.177 637.561 136.059 637.631C134.709 638.433 133.958 638.823 132.392 638.309C123.035 635.236 111.746 624.177 107.309 615.471Z"/>
	<path fill="#010001" d="M853.073 613.116C854.605 612.756 855.048 612.613 856.361 613.546C864.863 619.588 869.479 621.544 879.773 624.05C878.28 624.338 876.917 624.196 875.998 625.459C874.715 625.348 873.518 625.017 872.28 624.682C865.57 622.863 856.677 619.445 853.073 613.116Z"/>
	<path fill="#010001" d="M890.647 623.988C894.884 621.224 896.545 618.368 899.411 614.3C900.401 616.52 900.896 618.269 900.009 620.631C899.171 622.86 897.276 624.228 895.149 625.122C889.702 627.411 881.649 626.994 875.998 625.459C876.917 624.196 878.28 624.338 879.773 624.05C883.397 624.115 887.023 624.094 890.647 623.988Z"/>
	<path fill="#FEFEFE" d="M68.0882 639.169C70.1523 637.041 72.446 636.723 74.5847 635.023C75.4716 634.319 75.4837 634.087 75.6161 633.036C74.948 632.082 74.3813 631.681 73.1995 631.485C70.5356 631.045 67.9161 632.186 65.8294 633.771C59.1252 638.863 55.4398 648.644 54.4291 656.727L54.3359 657.527L53.795 657.31C53.2255 656.314 52.8143 655.459 52.5992 654.321C51.5561 648.802 54.4626 640.092 57.6117 635.564C60.5264 631.373 65.5204 627.103 70.709 626.454C73.2591 626.136 76.1052 626.34 78.5868 625.736C79.7385 625.456 81.0362 624.571 81.6211 623.529C81.9025 623.028 81.8139 623.086 81.6846 622.552C81.0634 621.911 80.4704 621.621 79.6116 621.406C73.3819 619.851 66.4339 621.675 61.2306 625.197C52.9519 630.799 50.6774 637.806 48.8244 647.19C48.5035 646.331 48.1778 645.452 47.9891 644.552C46.9667 639.681 49.2565 632.821 51.8854 628.676C62.8256 611.427 83.9467 620.042 100.287 615.911C100.457 615.867 100.626 615.82 100.796 615.775C101.517 615.57 105.1 623.575 106.095 624.961C111.56 632.569 118.582 638.023 126.806 642.343C115.135 653.027 107.728 652.084 92.696 651.327C88.7713 651.129 84.8893 651.246 81.182 652.726C72.6968 656.114 72.869 664.027 69.3153 671.103C68.7467 672.235 68.4205 672.998 67.1737 673.413C66.3313 672.025 66.3531 670.388 66.3436 668.803C66.2877 659.544 75.0028 649.977 74.4365 646.424C73.7019 645.191 73.712 644.952 72.399 644.438C71.481 644.762 70.8896 645.146 70.2536 645.87C63.1846 653.913 61.219 663.637 61.7038 673.952C60.0897 671.425 58.9291 669.38 58.6303 666.355C57.6622 656.555 62.1785 646.682 68.0882 639.169ZM78.0216 632.401C77.006 634.167 76.1853 638.084 76.8797 640.019C77.1572 640.793 77.3254 641.273 78.0907 641.603C79.1495 642.059 80.1757 642.101 81.3066 642.185C82.7663 640.743 83.7416 639.399 83.9406 637.282C84.0596 636.017 83.6764 634.897 82.8532 633.935C81.5089 632.363 79.9067 632.409 78.0216 632.401Z"/>
	<path fill="#010001" d="M81.3066 642.185C80.1757 642.101 79.1495 642.059 78.0907 641.603C77.3254 641.273 77.1572 640.793 76.8797 640.019C76.1853 638.084 77.006 634.167 78.0216 632.401C79.9067 632.409 81.5089 632.363 82.8532 633.935C83.6764 634.897 84.0596 636.017 83.9406 637.282C83.7416 639.399 82.7663 640.743 81.3066 642.185Z"/>
	<path fill="#6645A4" d="M423.925 674.364C432.023 665.607 440.392 657.105 449.019 648.87C450.689 649.843 458.97 682.435 460.557 687.207C463.038 694.668 466.89 701.171 474.27 704.7C487.825 711.182 510.225 702.914 523.485 698.012C522.545 707.254 522.187 716.666 521.804 725.949C521.619 730.431 521.8 735.255 521.076 739.678C520.583 742.687 519.472 743.322 517.071 744.982C516.523 746.364 516.255 746.616 516.624 748.029L517.113 747.492L516.884 748.155C523.493 749.05 527.76 750.655 532.83 755.114C527.069 756.097 521.681 757.544 516.255 759.735C511.255 761.753 499.68 766.628 497.484 771.839C497.64 773.261 497.714 773.279 498.711 774.321C501.651 774.6 518.061 764.899 523.059 763.268C527.686 761.758 532.76 760.865 537.578 761.952C547.696 764.236 566.434 773.721 576.38 778.478C591.222 785.577 606.185 792.305 620.864 799.755C632.08 805.447 642.958 811.765 654.176 817.447L650.745 820.113C634.646 831.974 621.031 848.344 608.887 864.072C570.819 846.785 532.938 829.09 495.25 810.989C484.985 806.012 476.085 800.384 469.162 791.127C460.113 779.026 449.284 745.949 443.818 730.592C436.979 711.923 430.348 693.179 423.925 674.364Z"/>
	<path fill="#9F8BE8" d="M575.116 672.108C574.188 671.983 573.908 671.893 573.123 671.473C573.414 670.995 600.399 652.988 603.745 650.389C605.121 656.358 604.048 667.481 603.949 673.978C594.184 674.253 584.788 673.286 575.116 672.108Z"/>
	<path fill="#6645A4" d="M612.249 869.217C622.979 856.437 647.597 827.964 661.049 820.486C666.761 822.224 672.004 825.985 676.537 829.765C658.162 843.787 643.738 861.803 629.009 879.422C623.366 876.114 617.778 872.712 612.249 869.217Z"/>
	<path fill="#4F1D88" d="M674.05 841.253L678.843 836.333C679.463 836.735 679.677 836.98 679.879 837.739C680.335 839.452 679.86 843.75 678.881 845.169L678.022 844.642L674.05 841.253Z"/>
	<path fill="#FEFEFE" d="M650.885 864.558C656.175 857.908 662.333 851.926 668.254 845.84C672.776 848.858 677.904 855.091 681.899 859.055C675.651 863.579 669.65 868.641 663.852 873.729C659.479 872.737 654.317 867.438 650.885 864.558Z"/>
	<path fill="#FEFEFE" d="M663.678 883.366C672.491 876.368 680.923 868.757 689.48 861.443C697.796 865.921 706.619 872.131 712.319 879.734C711.934 879.782 711.549 879.827 711.166 879.888C702.141 881.309 689.134 885.119 682.839 892.173C677.876 897.734 675.904 907.577 672.836 914.392C669.427 921.967 665.244 929.408 660.263 936.064C655.542 942.373 647.44 952.116 639.167 953.268C637.567 953.122 635.974 952.909 634.392 952.629C630.708 951.958 622.006 950.074 620.229 946.446C619.702 945.37 619.502 944.413 620.019 943.28C620.841 941.481 623.122 940.324 624.907 939.768C631.729 937.645 639.429 939.766 645.457 943.078C654.136 930.292 659.701 898.829 663.678 883.366Z"/>
	<path fill="#6645A4" d="M652.625 958.94C652.5 958.941 652.375 958.937 652.25 958.945C651.71 958.982 651.172 959.049 650.632 959.076C649.587 959.128 647.753 959.236 646.973 958.526C648.631 956.394 651.649 954.692 653.696 952.795C660.779 946.234 666.978 939.583 672.133 931.366C675.772 925.507 678.936 919.366 681.595 913.002C683.569 908.208 684.671 902.224 687.737 898.039C693.033 890.81 706.197 887.309 714.647 886.174L715.697 886.5C718.192 889.187 718.559 893.636 719.248 897.095C716.745 904.283 693.787 943.369 688.725 949.086C681.997 956.686 662.307 958.315 652.625 958.94Z"/>
	<path fill="#6645A4" d="M213.604 923.584C215.016 917.855 217.136 912.274 219.112 906.721C242.835 911.509 266.287 917.548 289.372 924.812C287.579 930.354 285.418 935.602 282.845 940.829L282.22 941.421C278.575 939.923 274.546 939.079 270.784 937.851C251.944 931.705 233.141 926.967 213.604 923.584Z"/>
	<path fill="#FEFEFE" d="M146.297 936.069C148.905 935.155 151.289 934.544 154.03 934.157C171.628 932.897 188.568 945.482 203.108 945.776C209.427 945.904 216.356 943.722 222.511 942.388C227.339 946.307 231.393 950.704 236.789 953.914C243.301 954.046 249.908 953.061 256.452 952.981C258.274 954.051 260.177 955.001 262.045 955.99C262.357 965.942 261.347 974.776 258.884 984.393L258.507 984.816C255.912 985.137 237.172 974.729 233.296 972.859C204.948 959.183 176.69 944.681 146.297 936.069Z"/>
	<path fill="#FEFEFE" d="M229.699 939.842C230.455 937.789 231.357 935.909 232.386 933.979C242.472 936.259 252.44 939.514 262.376 942.388C261.982 944.216 261.761 946.435 260.657 947.973L259.711 947.928C252.336 945.752 246.226 946.865 238.882 948.306C235.707 945.621 232.404 943.016 229.699 939.842Z"/>
	<path fill="#220632" d="M134.364 944.512C134.65 944.408 134.938 944.31 135.222 944.201C137.852 943.185 139.666 940.948 142.502 940.316C148.701 938.933 166.243 947.065 172.57 949.651C181.881 953.456 190.863 957.979 199.95 962.279L238.999 980.551C242.274 982.072 253.184 985.945 255.371 988.017C255.621 988.255 255.661 988.644 255.806 988.958C255.389 990.212 255.289 990.638 254.094 991.38C249.78 994.055 234.356 988.987 233.062 990.953C232.834 990.915 232.604 990.889 232.379 990.837C224.621 989.043 217.004 985.815 209.38 983.442C185.688 976.07 147.965 966.981 134.364 944.512Z"/>
</svg>
