<?xml version="1.0" encoding="utf-8" ?>
<svg xmlns="http://www.w3.org/2000/svg" xmlns:xlink="http://www.w3.org/1999/xlink" width="1024" height="1024">
	<path fill="#9F8BE8" d="M0 0L1024 0L1024 1024L0 1024L0 0Z"/>
	<defs>
		<linearGradient id="gradient_0" gradientUnits="userSpaceOnUse" x1="113.88599" y1="394.27179" x2="976.84766" y2="630.47101">
			<stop offset="0" stop-color="black"/>
			<stop offset="1" stop-color="#0C0919"/>
		</linearGradient>
	</defs>
	<path fill="url(#gradient_0)" d="M744.016 24.9368C749.086 26.8189 756.436 33.1453 762.952 35.8877C768.34 38.1556 774.425 39.7676 780.098 41.1491C785.967 42.5786 795.391 43.0575 800.268 46.5961C804.321 49.5361 806.913 54.8304 810.902 58.1389C815.069 61.5959 820.259 63.8358 824.149 67.6385C831.02 74.3561 836.067 106.535 836.343 116.228C833.991 121.044 830.176 125.241 827.107 129.623C819.86 139.969 812.752 152.128 803.71 160.986C800.326 164.301 797.187 166.726 792.27 166.695C792.446 170.798 792.391 174.924 792.419 179.031C799.769 180.126 806.588 182.244 813.193 185.675C828.104 193.419 839.112 205.287 844.037 221.432C845.866 227.429 847.861 234.305 848.334 240.557C849.263 252.841 842.588 267.719 836.957 278.273L856.737 325.177C861.525 336.393 867.131 347.812 870.409 359.569Q872.014 365.283 872.858 371.158Q873.701 377.032 873.769 382.967C863.132 404.824 831.039 420.25 810.994 433.178C813.078 434.072 816.033 435.049 817.321 437.011C817.717 437.615 817.714 438.169 817.42 438.841C815.014 444.345 787.038 454.928 780.209 458.181C787.305 483.987 786.153 512.172 787.858 538.733Q790.285 577.951 796.202 616.795C800.134 643.937 804.382 670.686 814.416 696.367C820.478 711.881 829.493 725.881 836.516 740.936Q839.779 748.046 842.157 755.499C843.74 760.454 845.558 772.945 848.331 776.44C853.944 783.516 851.27 785.698 853.103 793.397C858.216 814.867 862.375 835.854 865.133 857.771C867.138 873.699 867.865 890.006 871.081 905.746C873.979 919.933 880.436 933.045 883.207 947.147C884.33 952.864 885.77 975.129 882.278 979.165C879.346 982.553 866.205 984.549 861.733 985.159C857.024 985.801 854.393 985.664 850.595 982.792C845.795 985.267 841.562 988.243 837.148 991.321C833.201 994.073 828.931 997.174 824.292 998.652C812.651 1002.36 785.17 1000.55 772.997 998.162C769.968 997.568 767.2 996.839 765.428 994.161C764.343 989.494 767.135 980.79 769.55 976.673C775.119 967.18 786.616 968.628 795.87 966.283C809.765 962.761 825.578 946.588 832.539 934.388C832.637 934.216 832.729 934.042 832.824 933.87C832.126 928.31 830.392 922.777 828.885 917.39C824.935 903.271 820.033 889.492 815.185 875.665L791.555 808.443C786.243 793.722 777.799 775.921 777.584 760.284C772.106 752.288 767.79 740.976 761.074 734.426C770.385 771.06 769.522 810.153 770.054 847.709C770.272 863.135 769.225 879.444 772.587 894.559C773.734 899.718 775.691 904.661 777.186 909.723Q778.137 912.962 778.818 916.268Q779.498 919.574 779.904 922.925Q780.309 926.276 780.437 929.649Q780.564 933.022 780.413 936.394C780.269 939.571 780.184 943.527 778.988 946.505C776.137 953.606 751.113 949.058 744.067 950.705C738.265 952.06 733.537 956.342 728.131 958.748C720.122 962.314 684.335 962.294 676.344 958.771C675.329 958.324 674.266 957.76 674.015 956.582C673.055 952.075 675.495 944.623 677.991 941.091C684.438 931.97 696.583 931.36 706.608 929.43C724.37 926.011 734.478 913.369 744.203 899.071C743.526 892.022 741.765 884.87 740.284 877.955Q735.099 853.935 728.537 830.253C725.374 818.503 703.106 745.012 704.927 736.822C705.714 735.874 706.881 734.673 707.125 733.435C708.487 726.526 693.894 698.544 691.079 690.17C686.731 677.231 684.646 663.536 681.775 650.217C679.7 640.593 677.191 631.076 675.296 621.409Q669.078 588.437 665.78 555.047C664.004 538.011 662.385 521.076 662.329 503.93C662.274 487.082 664.819 470.592 665.716 453.819C652.839 469.344 639.654 484.779 627.911 501.194C605.181 532.967 584.862 566.269 560.312 596.731C526.969 638.103 480.403 667.405 427.044 673.11L427.435 677.877C429.41 702.34 428.647 727.961 425.955 752.357C424.907 761.846 422.955 771.206 421.964 780.722C419.98 799.775 419.042 819.682 414.838 838.391C411.884 839.697 408.888 840.462 405.768 841.252C394.977 875.808 383.13 920.152 380.477 956.087C388.656 962.326 405.213 968.618 410.759 975.111C413.12 977.876 414.939 982.234 414.34 985.935C414.124 987.264 413.371 988.253 412.274 989.003C406.7 992.812 390.736 990.988 384.181 989.65C384.555 993.035 384.422 996.555 384.46 999.964C378.711 1003.34 371.213 1003.83 364.683 1003.37C355.182 1002.7 323.177 994.524 317.656 987.115C314.985 983.53 316.201 969.046 318.774 965.391C319.636 964.167 321.045 964.168 321.417 962.473C322.55 957.315 321.897 950.394 321.995 945.081C322.266 930.498 322.039 915.438 324.187 900.985C325.737 890.554 330.535 881.393 333.697 871.462C337.099 860.778 338.626 850.02 340.005 838.947L335.439 836.73C335.709 830.507 337.047 824.038 337.835 817.838C327.543 835.092 318.277 851.565 305.207 866.936C280.033 896.542 246.686 925.131 206.26 928.242C171.902 930.885 147.516 914.037 133.163 883.477C127.663 871.766 123.901 858.569 115.067 848.776C110.157 843.332 104.05 839.394 98.0406 835.297C85.7955 826.948 74.4907 817.862 66.5468 805.103C53.1247 783.546 53.8458 759.345 36.8716 739.388C32.8964 734.714 27.9324 731.831 23.7066 727.655C22.7306 726.69 22.5336 726.028 22.4415 724.703C24.585 721.971 30.906 721.03 34.1742 720.143C78.4652 708.128 115.537 735.999 159.153 738.62C165.253 738.987 171.702 739.459 177.727 738.238C183.915 736.984 190.508 732.506 195.986 729.433C214.155 719.24 230.547 705.923 245.715 691.727C275.321 664.018 301.694 632.71 341.634 619.925C334.722 617.152 327.752 614.645 321.309 610.84C304.24 600.758 290.789 586.766 279.603 570.557C257.324 538.276 245.966 503.999 207.829 484.794C190.31 475.971 174.603 474.072 155.893 480.16C154.93 481.41 154.195 482.273 152.829 483.08C151.636 483.138 150.988 483.301 150.097 482.3C148.133 480.093 148.016 475.298 147.761 472.509Q147.524 469.803 147.355 467.091Q147.186 464.38 147.084 461.665Q146.982 458.95 146.947 456.233Q146.912 453.517 146.945 450.8Q146.978 448.083 147.079 445.368Q147.179 442.654 147.347 439.942Q147.514 437.23 147.749 434.524Q147.984 431.817 148.286 429.117Q148.588 426.417 148.958 423.726Q149.327 421.034 149.762 418.352Q150.198 415.671 150.7 413.001Q151.202 410.331 151.771 407.674Q152.339 405.017 152.973 402.376Q153.607 399.734 154.307 397.109Q155.006 394.483 155.771 391.876Q156.535 389.269 157.364 386.682Q158.193 384.095 159.086 381.529Q159.979 378.963 160.936 376.42Q161.892 373.877 162.911 371.359Q163.93 368.841 165.012 366.349Q166.093 363.856 167.236 361.392Q168.379 358.927 169.583 356.491Q170.787 354.056 172.051 351.651Q173.315 349.246 174.638 346.873Q175.961 344.5 177.343 342.161Q178.725 339.822 180.164 337.518Q181.604 335.214 183.1 332.946Q184.596 330.678 186.148 328.449Q187.7 326.219 189.307 324.028Q190.914 321.837 192.574 319.687Q194.235 317.537 195.949 315.429Q197.663 313.321 199.428 311.256C220.227 286.517 247.511 267.533 277.088 254.894C318.174 237.339 363.125 233.745 406.889 241.992C430.694 246.478 454.016 253.588 477.396 259.839C505.565 267.371 533.969 273.905 563.254 274.439C595.507 275.026 626.85 267.783 656.559 255.509C664.473 252.239 677.114 244.081 685.025 243.411C691.841 232.017 701.046 213.897 713.602 208.009C715.772 206.992 718.183 206.539 720.462 207.477C721.822 208.036 722.582 208.85 723.118 210.228C724.611 214.064 721.407 219.2 719.731 222.465L719.733 222.46C721.047 222.696 720.811 222.566 721.845 221.889C723.129 219.201 725.348 216.551 726.302 213.817C729.117 205.752 726.814 181.431 726.336 171.614C718.568 170.722 708.447 170.922 701.926 166.001C692.998 159.264 700.822 152.898 700.376 145.717C700.191 142.751 697.717 139.987 697.664 137.158C697.612 134.32 699.865 133.179 701.374 131.123C706.579 124.031 694.352 122.189 694.31 115.562C694.279 110.626 708.579 102.779 712.485 99.5314L713.118 99.0004C713.086 98.762 713.063 98.5223 713.023 98.2851C712.838 97.1855 712.577 96.1239 712.646 94.9957C712.804 92.413 713.665 89.5806 714.355 87.0872C717.342 76.2902 722.962 70.5048 731.148 63.2868C727.82 60.8024 721.029 57.5815 719.916 53.3578C719.277 50.933 720.093 48.6023 721.169 46.4341C725.441 37.8227 734.78 27.9309 744.016 24.9368Z"/>
	<path fill="#9F8BE8" d="M666.818 292.409C666.773 297.048 663.56 308.153 662.655 313.575Q661.004 323.863 660.207 334.252Q659.41 344.641 659.474 355.061C659.463 362.272 659.366 369.841 660.243 377.008C660.799 381.554 662.211 386.053 662.599 390.604C662.726 392.097 662.379 393.209 661.859 394.591C657.926 405.041 664.075 432.304 666.65 444.014C654.074 458.643 641.142 472.853 629.375 488.173C614.117 508.037 600.617 529.001 586.538 549.691C542.813 613.95 505.353 653.372 426.43 668.39C424.827 660.894 422.389 653.575 420.077 646.275C421.672 645.076 423.817 643.917 424.481 641.931C425.688 638.319 423.549 627.707 422.039 624.262C418.147 615.386 409.069 612.721 400.769 609.537Q400.191 604.808 399.833 600.058C407.307 592.556 416.948 586.886 423.299 578.245C433.533 564.321 415.951 552.341 419.498 538.295C419.544 538.111 419.595 537.929 419.644 537.746C418.411 535.768 403.722 533.987 400.68 533.242C396.452 525.381 385.447 510.971 378.114 505.856C370.366 500.45 360.115 499.67 351.03 501.118Q349.081 501.473 347.157 501.941Q345.232 502.409 343.338 502.989Q341.444 503.568 339.587 504.257Q337.73 504.946 335.917 505.742Q334.103 506.538 332.339 507.438Q330.575 508.339 328.866 509.34Q327.157 510.342 325.51 511.442Q323.862 512.541 322.282 513.735C310.042 523.056 295.51 540.071 293.561 555.905C291.621 571.671 302.7 586.438 311.848 598.178C287.075 577.169 272.898 548.164 255.366 521.446C265.25 511.094 275.364 501.112 286.527 492.128C333.049 454.687 390.825 433.214 447.385 416.218C479.788 406.481 512.42 397.622 543.492 384.015Q549.284 381.515 554.977 378.796Q560.67 376.077 566.254 373.141Q571.838 370.206 577.306 367.06Q582.774 363.913 588.118 360.559Q593.461 357.205 598.672 353.65Q603.884 350.094 608.955 346.342Q614.026 342.589 618.95 338.645Q623.874 334.701 628.644 330.572C642.044 319.113 656.697 306.936 666.818 292.409Z"/>
	<path d="M643.47 368.445C643.486 369.04 643.544 369.065 643.323 369.633C641.031 375.528 623.206 394.375 618.095 399.924C571.573 450.437 496.612 520.598 432.841 544.729L432.804 544.076C436.142 539.181 471.827 516.846 478.898 511.846Q498.045 498.564 516.227 483.99C531.032 472.03 545.951 459.794 559.942 446.889C587.982 421.025 614.646 393.433 643.47 368.445Z"/>
	<path fill="#9F8BE8" d="M361.8 621.688C370.148 620.867 379.427 621.306 387.695 622.776C394.709 624.023 401.087 625.608 408.243 626.056C406.115 633.734 401.54 640.767 397.996 647.857C394.589 654.671 391.576 661.876 388.86 668.996C369.147 720.668 354.858 774.848 327.814 823.464C305.264 864.001 268.09 906.543 221.995 919.48C203.373 924.706 183.805 923.75 166.769 914.068C138.663 898.097 138.665 869 121.586 847.267C114.873 838.724 105.645 833.379 96.9275 827.185C88.5043 821.2 80.5197 814.077 74.4556 805.663C66.7294 794.942 62.5463 782.607 59.08 769.994C54.0589 752.217 46.1705 738.188 31.5352 726.72C68.5163 716.427 91.9556 729.834 126.267 738.976C161.615 748.393 197.399 745.847 231.133 731.656C251.036 723.284 284.958 701.974 293.374 681.327C285.506 687.711 278.219 694.781 270.331 701.142C248.111 719.058 222.671 731.57 194.461 736.523C211.745 726.349 227.57 715.476 242.633 702.136C268.515 679.213 294.869 647.112 326.076 631.856C337.16 626.437 349.57 623.101 361.8 621.688Z"/>
	<path d="M368.871 639.546C369.879 639.479 370.817 639.567 371.82 639.67C370.462 642.219 361.885 647.858 359.102 650.19C351.693 656.396 344.938 663.453 338.648 670.783C324.228 687.589 311.915 706.316 298.947 724.246C272.971 760.164 242.317 793.234 200.391 810.133C177.071 819.533 151.131 822.237 127.624 812.241C125.465 811.342 123.466 810.323 121.424 809.192C192.517 829.954 250.124 776.68 289.798 724.969C309.445 699.361 337.936 650.189 368.871 639.546Z"/>
	<path d="M380.976 641.508L381.324 642.031C379.001 646.736 375.249 651.166 372.431 655.623Q364.668 668.147 358.362 681.465C338.561 723.051 323.592 767.256 297.63 805.741C274.151 840.548 243.293 874.745 200.173 883.09L199.939 882.642C203.224 881.024 206.681 879.888 209.997 878.355C216.327 875.426 222.948 871.632 228.789 867.838C271.251 840.248 299.128 794.173 320.559 749.469C330.617 728.489 339.529 706.997 349.762 686.11C357.7 669.908 365.867 652.256 380.976 641.508Z"/>
	<path d="M377.309 629.715C382.005 629.397 386.224 630.074 390.82 630.92C383.602 632.944 375.963 633.769 368.623 635.34C358.389 637.531 348.246 640.35 338.11 642.96Q332.223 644.489 326.366 646.128C342.55 636.463 358.503 631.268 377.309 629.715Z"/>
	<path fill="#9F8BE8" d="M672.042 277.507L672.35 278.182C669.862 281.925 666.233 285.189 663.123 288.431C653.728 298.227 644.055 307.383 633.912 316.396Q628.819 321.009 623.548 325.417Q618.277 329.826 612.837 334.023Q607.396 338.22 601.794 342.199Q596.192 346.179 590.438 349.934Q584.683 353.69 578.785 357.216Q572.887 360.741 566.855 364.032Q560.823 367.322 554.665 370.372Q548.508 373.422 542.235 376.227C507.154 391.74 469.304 401.3 432.619 412.255C379.694 428.059 325.669 450.448 282.438 485.52Q274.171 492.316 266.442 499.719Q258.713 507.122 251.566 515.088C235.843 496.89 219.982 482.117 196.58 474.535C183.794 470.895 170.865 469.799 158.038 473.811C168.547 449.986 201.34 415.284 221.685 398.926C284.28 348.598 350.872 331.368 430.516 333.065C472.295 333.955 514.225 336.716 555.614 329.149C583.442 324.062 614.069 313.843 638.713 299.769C650.333 293.133 661.208 285.331 672.042 277.507Z"/>
	<path fill="#9F8BE8" d="M358.689 243.23C388.611 242.559 417.453 249.125 446.126 257.045C520.12 277.485 571.384 292.222 646.503 265.496C657.938 261.427 668.262 255.539 679.405 250.965L679.893 251.331C678.314 254.263 677.982 256.372 678.095 259.699L678.125 260.395C665.895 275.004 648.351 286.24 631.7 295.298C597.761 313.762 553.593 324.973 515.085 326.415C465.28 328.282 415.63 321.358 365.944 328.119Q362.062 328.587 358.198 329.188C283.509 340.564 221.151 376.948 173.661 435.665C169.493 440.817 165.56 446.331 162.147 452.008C159.261 456.81 156.656 462.013 153.303 466.499C153.197 466.642 153.087 466.781 152.98 466.922Q152.655 463.816 152.542 460.695Q152.453 458.091 152.428 455.485Q152.403 452.88 152.442 450.274Q152.48 447.669 152.583 445.065Q152.685 442.461 152.852 439.861Q153.018 437.26 153.248 434.665Q153.478 432.069 153.771 429.48Q154.064 426.891 154.421 424.31Q154.778 421.729 155.198 419.157Q155.617 416.585 156.1 414.024Q156.583 411.464 157.128 408.916Q157.673 406.368 158.281 403.834Q158.888 401.3 159.557 398.781Q160.227 396.263 160.957 393.762Q161.688 391.261 162.48 388.778Q163.272 386.296 164.124 383.833Q164.976 381.371 165.889 378.93Q166.801 376.489 167.773 374.072Q168.745 371.654 169.776 369.261Q170.807 366.868 171.896 364.5Q172.985 362.133 174.132 359.793Q175.278 357.454 176.482 355.143Q177.686 352.832 178.946 350.551Q180.206 348.27 181.521 346.02Q182.837 343.771 184.207 341.555Q185.577 339.338 187.001 337.156Q188.425 334.974 189.902 332.827Q191.379 330.68 192.908 328.57Q194.437 326.46 196.017 324.389Q197.597 322.317 199.228 320.284Q200.859 318.252 202.539 316.26Q204.218 314.268 205.947 312.318Q207.675 310.367 209.45 308.46C249.173 266.045 301.135 245.135 358.689 243.23Z"/>
	<path fill="#FEFEFD" d="M405.311 644.596C408.411 645.738 407.686 649.232 409.789 651.261C411.037 652.464 413.034 652.197 414.592 652.042C415.368 651.965 415.175 651.832 415.874 652.506C417.972 654.531 418.849 659.516 419.483 662.278C425.604 688.935 423.653 728.971 420.341 756.182C419.417 757.632 418.333 758.952 417.128 760.181C402.901 774.686 376.94 774.329 358.123 774.592C361.31 764.507 365.495 754.567 369.065 744.589C378.981 746.454 390.554 745.563 400.06 742.181Q400.904 741.803 401.741 741.408C425.654 730.121 413.485 714.987 420.189 696.322C419.523 695.182 419.287 695.341 418.106 694.888C417.198 695.079 416.78 695.035 416.062 695.674C411.672 699.579 412.507 709.217 412.402 714.529C412.259 721.698 411.829 726.942 406.234 732.127C396.84 740.833 382.932 740.032 371.064 739.389C372.819 732.385 375.555 725.384 377.757 718.483C385.715 693.551 394.56 668.457 405.311 644.596Z"/>
	<path fill="#FEFEFD" d="M352.589 506.15C356.431 505.641 360.29 505.969 364.128 506.327C360.571 506.897 354.584 506.719 351.67 508.895C351.586 509.547 351.519 510.145 351.541 510.804C351.857 520.094 363.445 571.673 369.198 575.676C371.133 577.022 375.353 576.024 377.688 575.889C377.77 575.573 377.911 575.266 377.935 574.94C378.057 573.294 375.949 568.924 375.348 567.084Q372.486 558.436 370.604 549.524C368.023 537.008 367.512 524.594 367.519 511.857C376.788 516.427 384.699 518.258 391.259 526.955C393.6 530.057 395.554 533.404 397.984 536.449L398.382 536.941C403.635 539.094 409.404 539.451 415.011 539.539C414.18 545.603 414.985 549.519 417.274 555.136C415.229 556.113 412.304 556.889 410.904 558.646L411.186 559.807C412.239 560.879 412.684 561.325 414.21 561.667C415.975 561.251 417.253 559.547 418.481 558.275C420.132 561.413 422.997 566.878 421.993 570.449C419.945 577.735 408.303 585.358 401.96 588.799C392.115 593.394 379.546 594.948 368.734 595.583C363.669 595.881 358.583 595.187 354.76 591.542C352.466 589.355 350.194 585.162 350.509 581.892C350.739 579.504 352.943 577.839 354.581 576.319C356.794 576.118 359.033 576.051 361.252 575.926C350.87 555.818 344.735 537.299 339.007 515.572C338.617 515.735 338.226 515.896 337.842 516.072C320.844 523.861 308.213 535.912 300.922 553.113C299.699 555.999 298.975 559.064 297.867 561.999L297.65 561.495C298.606 551.444 302.947 543.045 308.765 534.963C319.317 520.307 334.615 509.152 352.589 506.15Z"/>
	<path d="M357.992 579.811C358.865 579.803 359.702 579.787 360.56 579.979C362.611 580.44 363.379 581.244 364.427 583.04C367.286 587.94 367.469 584.997 370.695 587.196L370.824 588.176C369.712 589.384 368.18 589.569 366.65 589.959C365.411 589.804 364.108 591.006 362.916 591.227C361.773 591.439 360.295 590.88 359.326 590.266C357.619 589.185 356.802 587.257 356.451 585.34C356.024 583.009 356.63 581.665 357.992 579.811Z"/>
	<path fill="#FEFEFD" d="M358.629 582.719C359.743 582.819 360.401 582.891 361.411 583.441C363.229 584.432 363.752 586.578 364.271 588.408C363.183 588.603 362.024 588.716 361.063 588.092C359.174 586.865 359.007 584.764 358.629 582.719Z"/>
	<path d="M385.818 529.413C387.279 529.578 388.034 529.777 389.072 530.844C388.699 532.561 381.514 537.367 379.702 539.238L379.014 539.954L377.341 540.783L376.575 540.431C376.593 539.779 376.597 539.14 376.774 538.506C377.937 534.353 382.172 531.186 385.818 529.413Z"/>
	<path fill="#FEFEFD" d="M773.949 461.301C774.359 461.606 774.457 461.636 774.786 462.125C779.677 469.405 780.086 517.363 780.7 528.231C781.509 542.543 782.494 556.968 783.905 571.233Q787.101 604.506 792.818 637.44C797.038 661.763 801.99 685.209 812.356 707.76C817.591 719.15 824.037 729.953 829.323 741.341C831.436 745.894 839.434 762.542 838.225 766.676L835.261 764.72C831.32 762.162 827.016 760.052 822.883 757.816C821.262 750.187 817.921 742.824 814.947 735.64C807.954 718.741 799.671 702.205 793.592 684.967C790.061 674.955 787.408 664.577 784.812 654.292Q782.894 646.942 781.225 639.531Q779.557 632.12 778.14 624.657Q776.723 617.193 775.56 609.687Q774.397 602.18 773.488 594.638Q772.579 587.096 771.927 579.527Q771.274 571.959 770.877 564.373Q770.481 556.787 770.342 549.192Q770.202 541.596 770.32 534.001C770.604 520.879 772.621 508.053 773.257 494.99C773.794 483.967 771.499 472.132 773.949 461.301Z"/>
	<path fill="#FEFEFD" d="M344.641 840.329C355.678 843.458 367.858 843.707 379.276 844.477Q371.837 863.3 363.847 881.896C359.3 892.361 354.336 902.707 351.023 913.652C347.458 925.431 345.618 937.41 344.324 949.621C343.971 952.688 344.426 962.4 342.4 964.597C340.635 966.511 335.853 967.219 333.417 967.33C331.425 967.42 328.749 967.219 327.329 965.612C326.846 965.067 326.468 964.289 326.347 963.569C325.763 960.113 326.514 955.399 326.587 951.815C326.93 934.864 326.299 914.955 329.713 898.444C331.479 889.904 335.209 881.952 337.928 873.701C341.507 862.84 343.432 851.672 344.641 840.329Z"/>
	<path fill="#FEFEFD" d="M398.346 842.729C398.88 842.576 399.252 842.671 399.795 842.74C400.041 845.676 395.793 857.118 394.698 860.944C385.752 892.23 378.428 923.786 375.982 956.283C372.23 956.148 368.628 956.26 364.877 955.821C363.878 955.724 362.882 955.635 361.91 955.372C360.91 955.102 360.603 955.203 360.057 954.263C359.605 945.48 360.638 936.414 360.913 927.613C361.156 919.854 360.425 907.749 362.038 900.602C363.949 892.135 368.838 883.28 372.248 875.292Q378.737 859.97 384.396 844.322Q391.377 843.575 398.346 842.729Z"/>
	<path fill="#9F8BE8" d="M785.274 334.785C796.687 345.55 802.441 360.45 809.675 373.935C802.988 379.156 797.445 385.276 792.167 391.876C789.907 391.505 786.972 390.743 784.715 391.163C779.766 392.083 776.612 398.895 773.924 402.684C771.28 406.217 768.24 409.004 764.803 411.742C762.725 401.249 761.193 390.584 757.633 380.464C759.941 367.242 767.472 359.002 775.461 348.78C778.978 344.281 782.134 339.55 785.274 334.785Z"/>
	<path fill="#9F8BE8" d="M780.999 205.22C790.734 205.431 799.993 207.512 808.967 211.3C823.834 217.577 836.3 229.059 842.489 244.133C841.152 253.712 837.153 262.562 834.394 271.743C830.611 262.123 826.027 252.967 819.617 244.822C815.076 239.024 808.972 234.233 802.672 230.488C783.186 218.905 761.446 219.296 740.115 224.78C738.108 223.86 736.031 223.183 733.943 222.475C749.509 213.549 762.651 206.15 780.999 205.22Z"/>
	<path fill="#FEFEFD" d="M787.446 230.127C795.221 232.509 803.341 237.171 809.477 242.495C812.582 245.189 815.609 248.312 817.703 251.87C827.779 268.987 834.812 289.787 842.776 308.118L856.786 340.893C859.432 346.937 862.719 352.953 864.731 359.239C866.581 365.015 866.949 371.157 867.4 377.168C860.964 371.382 837.747 321.866 832.585 311.531Q826.127 298.723 819.193 286.167C808.824 267.261 794.545 250.633 787.446 230.127Z"/>
	<path fill="#FEFEFD" d="M686.591 499.27C687.241 499.67 687.876 500.063 688.483 500.527C689.582 501.368 691.195 502.551 691.93 503.732C694.589 508.005 702.712 545.744 704.469 552.909Q711.76 583.314 720.577 613.312Q729.394 643.31 739.715 672.824C744.929 687.472 752.047 701.506 757.999 715.879C759.756 720.121 762.417 725.045 763.09 729.585C724.676 676.08 705.544 601.88 693.528 537.974C691.11 525.115 688.083 512.277 686.591 499.27Z"/>
	<path fill="#9F8BE8" d="M781.636 184.151C792.418 182.487 804.207 186.778 813.265 192.338C828.418 201.638 836.86 214.216 841 231.365L840.454 230.558C829.095 213.822 813.73 204.914 793.976 201.125C776.438 198.037 756.142 203.65 741.262 213.027C737.509 215.392 732.526 219.826 728.355 220.824C727.188 221.103 726.686 221.04 725.71 220.387C725.881 220.084 726.106 219.661 726.314 219.362C728.399 216.354 731.531 213.619 734.146 211.031C747.423 197.888 762.943 187.335 781.636 184.151Z"/>
	<path fill="#FEFEFD" d="M688.154 270.937Q695.371 274.211 702.627 277.398C698.489 280.678 694.261 284.232 689.581 286.709C686.187 288.505 677.884 289.922 676.027 293.016C676.663 293.495 676.367 293.384 677.154 293.53C678.509 293.78 679.511 293.882 680.726 294.617C681.382 296.171 676.467 321.496 675.93 326.08C673.651 345.535 672.718 366.13 675.101 385.62C675.308 388.583 675.961 391.543 676.473 394.468C673.848 394.128 671.288 393.987 668.646 393.913C662.058 356.348 665.179 316.359 675.767 279.836C679.364 276.457 684.115 273.82 688.154 270.937Z"/>
	<path fill="#FEFEFD" d="M726.764 393.583L727.611 393.675C729.744 396.954 731.589 426.867 731.635 432.517C725.583 433.884 711.404 436.594 705.336 436.248C701.296 424.846 700.226 411.601 698.296 399.669C707.533 397.065 717.383 395.781 726.764 393.583Z"/>
	<path fill="#FEFEFD" d="M743.082 246.383C744.166 248.865 744.663 251.71 745.529 254.292Q748.44 262.965 752.863 270.972C757.212 278.924 762.781 285.963 768.335 293.087C778.439 306.045 789.426 318.704 798.597 332.336C804.847 341.626 808.666 353.139 816.358 361.321C822.985 368.368 831.661 371.477 838.522 377.622C838.625 377.714 838.725 377.81 838.827 377.904C830.709 377.02 822.717 374.369 815.319 370.985C810.652 364.357 807.422 356.477 803.124 349.535C795.876 337.829 788.172 330.02 779.013 319.98C767.651 307.526 752.685 290.492 746.929 274.606C743.744 265.814 742.662 255.68 743.082 246.383Z"/>
	<path fill="#FEFEFD" d="M841.637 797.306C844.579 798.948 847.291 801.064 850.25 802.742C852.796 818.063 855.962 833.219 858.088 848.616C860.529 866.297 861.891 884.225 865.363 901.745Q867.77 913.58 871.278 925.136C873.767 933.185 876.793 941.1 877.979 949.483Q878.444 952.74 878.65 956.024Q878.856 959.308 878.803 962.598Q878.75 965.888 878.437 969.163Q878.125 972.438 877.555 975.679C876.356 975.917 875.904 976.055 874.698 975.722C873.029 972.423 875.028 965.866 875.075 962.107C875.108 959.466 874.445 956.643 873.933 954.064C871.162 940.123 864.115 927.654 861.346 913.811C858.568 899.922 857.698 885.593 855.601 871.581Q850.119 834.161 841.637 797.306Z"/>
	<path fill="#FEFEFD" d="M793.376 752.696C811.919 752.558 834.364 771.067 847.415 783.166L848.213 795.15C843.569 791.93 839.202 788.096 834.808 784.536C827.805 779.227 819.112 774.782 810.979 771.474C805.733 769.34 796.124 765.045 790.606 767.4C788.103 770.125 787.097 774.509 785.916 777.952C782.904 772.55 781.506 766.527 780.747 760.437C781.434 759.285 782.125 758.119 782.969 757.075C785.878 753.475 789.051 753.048 793.376 752.696Z"/>
	<path fill="#FEFEFD" d="M672.493 400.888C679.439 401.455 686.037 401.405 692.963 400.809C693.581 408.58 694.721 416.169 696.073 423.843C696.896 428.514 698.106 433.397 698.387 438.117C692.126 438.91 685.961 439.534 679.646 439.647C676.164 428.444 672.64 412.546 672.493 400.888Z"/>
	<path fill="#FEFEFD" d="M751.055 388.652C751.554 388.548 752.054 388.653 752.56 388.701C755.368 392.966 757.988 411.176 758.787 416.989C755.833 419.947 752.091 422.118 748.529 424.249C748.337 424.231 748.145 424.211 747.953 424.195L746.993 424.123C744.765 423.943 743.057 423.982 740.873 424.509L737.733 425.67C735.539 414.621 734.514 402.848 733.419 391.635Q742.267 390.319 751.055 388.652Z"/>
	<path fill="#FEFEFD" d="M780.37 402.536C779.522 406.413 772.708 413.931 769.998 416.953C766.603 420.74 752.549 435.69 748.755 435.888C748.724 434.507 748.702 433.196 748.418 431.836L747.68 431.717C744.105 434.703 740.437 440.883 739.25 445.379C738.109 449.702 739.451 453.916 741.818 457.575C745.377 463.079 749.831 465.951 756.085 467.325C760.235 465.988 764.211 463.767 768.325 462.21C766.461 464.919 764.546 467.47 762.408 469.968C758.828 472.582 754.838 474.006 750.376 473.742C744.452 473.391 738.994 469.728 735.132 465.396C731.175 460.959 728.879 455.519 729.325 449.516C729.997 440.483 736.054 434.97 742.412 429.417C743.651 429.547 744.93 429.694 746.178 429.67C757.862 429.444 773.166 410.895 780.37 402.536Z"/>
	<path fill="#FEFEFD" d="M771.507 44.8913C779.305 46.5001 786.949 48.4232 794.825 49.6832C799.619 53.4293 803.576 58.2802 808.173 62.2847C812.118 65.72 816.67 68.5088 820.512 72.0392C825.842 76.9365 830.195 106.789 830.579 114.727C828.749 118.299 826.029 121.674 823.831 125.048C819.931 131.034 816.164 137.112 812.341 143.148C811.491 138.088 810.574 133.132 809.279 128.161C810.413 125.7 811.73 123.304 812.97 120.894C815.63 115.579 818.036 109.987 821.43 105.095C820.76 114.292 815.919 122.582 812.357 130.925C814.058 129.189 815.57 127.301 817.036 125.364C826.582 112.752 826.895 108.909 822.423 93.9479C820.587 87.8075 819.315 81.9342 818.467 75.5845C814.772 71.7149 795.998 54.9228 792.271 53.1051C785.677 49.8897 778.259 47.9251 771.507 44.8913Z"/>
	<path fill="#FEFEFD" d="M727.042 226.549C727.909 226.643 728.503 226.759 729.322 227.024C732.933 228.196 735.843 231.167 737.445 234.592C738.384 236.598 738.548 238.774 737.668 240.832C735.214 246.573 725.157 250.83 719.729 253.211C716.102 254.113 712.408 254.016 708.699 254.009C710.02 247.498 711.933 241.519 715.407 235.809C718.381 230.922 721.438 227.949 727.042 226.549Z"/>
	<path fill="#FEFEFD" d="M772.332 106.793C774.024 108.352 773.582 110.433 775.016 112.167C775.418 111.609 775.831 111.065 776.251 110.521L777.12 111.177C777.336 111.899 777.526 112.803 777.884 113.461C779.513 116.46 783.01 113.355 785.681 114.708C787.022 115.387 787.511 116.372 787.944 117.738C790.217 124.914 785.631 135.45 782.221 141.757C779.127 147.478 774.195 150.462 768.138 152.215C767.128 152.419 767.664 152.406 766.53 152.182C770.588 147.827 776.44 144.841 780.064 140.183L779.758 139.944C778.221 140.75 776.447 141.742 774.7 141.961C773.318 142.134 772.697 141.817 771.586 141.063C770.272 138.024 774.462 125.048 775.047 120.956C772.964 118.911 771.049 117.018 770.406 114.061C769.816 111.348 770.858 108.998 772.332 106.793Z"/>
	<path d="M781.815 117.483L784.006 117.605C785.051 118.268 785.603 118.569 785.962 119.864C786.768 122.766 784.831 127.382 783.562 130.028C781.478 134.371 779.697 136.856 775.082 138.511C774.243 138.221 773.717 137.968 772.99 137.428C772.128 136.788 772.335 136.799 772.191 135.83C773.127 134.308 775.454 133.377 776.989 132.514C777.098 131.412 777.16 131.771 776.933 130.803C776.372 128.41 775.243 125.619 776 123.172C776.879 120.331 779.331 118.755 781.815 117.483Z"/>
	<path fill="#FEFEFD" d="M775.936 325.854C777.836 327.21 779.657 329.39 781.354 331.042C773.587 342.423 763.505 351.924 756.421 363.882C753.932 368.084 750.356 381.531 749.821 382.189L743.573 383.222C751.387 357.043 757.369 345.906 775.936 325.854Z"/>
	<path fill="#FEFEFD" d="M686.23 251.273C689.014 251.885 691.836 253.369 694.48 254.472C703.019 258.036 709.436 259.101 718.706 258.445C716.499 261.86 714.126 264.997 711.544 268.136C709.585 270.098 707.295 272.706 704.496 273.351C702.02 273.921 699.138 272.383 697.077 271.187C693.054 268.851 684.24 261.932 683.677 257.116C683.43 255.008 685.142 252.906 686.23 251.273Z"/>
	<path fill="#FEFEFD" d="M418.476 765.993C419.1 770.004 417.149 776.016 416.291 779.978C396.511 786.581 380.786 785.247 360.701 781.397C358.858 781.089 357.585 780.89 356.073 779.752C356.477 778.771 372.047 779.561 375.059 779.45C390.984 778.868 405.656 775.78 418.476 765.993Z"/>
	<path fill="#FEFEFD" d="M393.57 595.627L395.006 595.362L395.734 595.864C395.603 604.177 395.902 612.292 396.615 620.575C392.406 619.234 388.42 617.526 384.373 615.77C381.72 614.61 379.244 613.224 376.73 611.796C375.497 607.31 375.087 602.755 374.567 598.146C381.08 598.014 387.217 596.941 393.57 595.627Z"/>
	<path fill="#FEFEFD" d="M709.314 739.557C728.361 745.322 745.452 752.576 761.629 764.331C762.044 765.92 762.163 767.716 762.409 769.349C752.674 765.288 743.283 760.184 733.644 755.853C726.424 752.608 718.862 750.004 711.434 747.27C709.95 744.631 709.518 742.592 709.314 739.557Z"/>
	<path fill="#FEFEFD" d="M739.836 32.8739L740.364 33.5471C740.125 36.181 739.701 40.0618 740.397 42.619C744.094 56.2108 769.937 66.2929 780.872 72.7975L781.409 73.1223C780.963 81.1237 780.959 87.8147 776.708 94.913C775.795 94.4067 775.157 93.9193 774.419 93.1811C773.167 87.8078 775.676 80.257 776.828 74.999C765.549 69.3499 754.314 64.9324 744.961 56.0687C740.873 52.1937 735.969 46.4489 735.958 40.553C735.951 36.987 737.409 35.2989 739.836 32.8739Z"/>
	<path fill="#FEFEFD" d="M345.744 969.579C346.743 969.482 347.436 969.699 348.283 970.23C351.718 972.384 354.872 975.155 358.247 977.437C362.593 980.375 367.313 982.747 371.963 985.16C366.592 985.095 361.345 984.64 356.029 983.872Q352.197 982.905 348.452 981.642Q344.707 980.378 341.072 978.826Q337.437 977.274 333.935 975.443Q330.432 973.612 327.083 971.513C333.564 971.656 339.445 971.166 345.744 969.579Z"/>
	<path fill="#FEFEFD" d="M776.66 150.835L777.148 151.316C778.389 156.06 782.21 158.883 785.889 161.764C785.97 165.464 787.421 176.094 785.903 178.746L784.121 178.873C780.614 179.066 777.268 179.549 773.824 180.221C774.225 174.005 773.961 158.261 775.223 153.245C775.46 152.302 776.073 151.581 776.66 150.835Z"/>
	<path fill="#FEFEFD" d="M673.055 445.998C674.359 446.047 675.488 446.237 676.757 446.507C677.58 447.488 677.528 448.121 677.711 449.379C678.851 457.222 678.413 464.876 680.32 472.716C681.903 479.224 685.237 485.276 686.631 491.795Q685.129 490.471 683.735 489.032C671.835 476.909 672.895 461.871 673.055 445.998Z"/>
	<path fill="#9F8BE8" d="M355.879 916.633Q356.011 918.502 356.044 920.376C356.143 927.038 355.825 962.649 351.967 966.673L351.097 966.079C350.42 965.629 349.767 965.149 349.107 964.674C346.112 955.936 352.541 925.52 355.879 916.633Z"/>
	<path fill="#FEFEFD" d="M736.333 299.841C736.66 300.16 736.944 300.544 737.079 300.989C738.326 305.104 735.601 311.431 733.332 314.691C726.218 324.91 711.766 332.685 699.68 334.749L699.316 334.339C701.161 332.031 705.929 330.142 708.557 328.628C721.064 321.423 729.331 312.388 736.333 299.841Z"/>
	<path fill="#FEFEFD" d="M715.864 213.429C715.907 214.603 715.69 215.377 715.358 216.498C712.218 227.076 703.642 239.564 693.714 244.784C693.428 243.625 693.177 242.592 693.431 241.392C695.403 232.076 708.379 218.775 715.864 213.429Z"/>
	<path fill="#FEFEFD" d="M377.769 960.63C379.051 960.73 381.681 963.275 382.858 964.035Q390.147 968.731 397.928 972.556C392.154 972.273 386.519 972.045 380.894 970.624C373.159 968.208 365.034 964.75 358.058 960.649C365.048 961.716 370.843 962.247 377.769 960.63Z"/>
	<path fill="#FEFEFD" d="M803.872 437.751C803.932 437.737 803.99 437.713 804.052 437.709C805.221 437.636 806.417 437.66 807.41 438.326C807.053 439.244 806.654 439.373 805.826 439.852C802.065 442.026 797.689 443.615 793.752 445.52Q779.498 452.497 765.125 459.226C764.332 459.554 763.517 459.834 762.711 460.129L761.815 459.711L761.911 458.554C762.879 457.201 763.927 456.161 765.391 455.335C768.497 453.583 772.158 452.405 775.419 450.897C783.98 446.941 793.007 441.762 802.056 439.22C802.986 438.958 803.225 438.448 803.872 437.751Z"/>
	<path fill="#FEFEFD" d="M760.047 162.531C760.378 162.833 760.177 162.601 760.381 163.389C759.696 164.407 758.972 165.107 757.994 165.858C750.487 171.623 739.109 176.226 729.624 174.912C729.249 174.439 728.984 173.733 728.714 173.188C728.864 172.893 728.938 172.546 729.162 172.303C729.633 171.794 754.529 164.929 760.047 162.531Z"/>
	<path fill="#FEFEFD" d="M665.725 399.239C666.684 400.103 667.19 400.466 667.571 401.747C668.953 406.391 668.835 412.313 669.568 417.203C670.638 424.336 672.62 431.485 673.222 438.655C672.492 438.357 671.965 438.181 671.512 437.488C668.361 432.663 665.15 405.748 665.725 399.239Z"/>
	<path d="M746.348 316.38L746.896 317.062C746.684 322.695 738.978 341.58 736.139 347.077C734.27 350.694 731.957 354.565 729.096 357.487L728.754 356.707C732.385 349.892 735.751 343.085 738.583 335.898C741.124 329.45 743.198 322.54 746.348 316.38Z"/>
	<path fill="#9F8BE8" d="M414.745 634.381C414.533 634.25 414.317 634.125 414.108 633.988C412.068 632.642 404.908 618.052 404.385 615.293L404.868 615.105C406.689 616.913 406.039 617.844 407.19 619.705C407.549 620.287 407.775 620.356 408.323 620.576C408.971 620.837 409.652 621.045 410.252 621.415C411.55 622.218 412.424 623.326 412.837 624.785C414.669 625.48 415.672 625.699 416.456 627.66C417.507 630.291 417.519 633.462 417.947 636.254C416.93 635.588 415.903 634.754 414.745 634.381Z"/>
	<path fill="#FEFEFD" d="M728.033 91.7264C729.319 92.03 730.129 92.3162 730.861 93.5145C732.161 95.6449 732.063 98.4903 731.486 100.831C730.598 104.432 729.741 105.624 726.588 107.53C725.182 106.965 724.598 106.39 723.981 105.072C724.007 104.152 724.131 103.694 724.684 102.946C728.35 97.9826 724.348 96.6237 728.033 91.7264Z"/>
	<path fill="#FEFEFD" d="M373.245 613.655C373.402 613.726 373.573 613.772 373.716 613.867C375.313 614.938 382.43 618.718 383.009 619.916C379.67 619.096 375.556 619.553 372.727 617.52C372.157 615.878 372.681 615.261 373.245 613.655Z"/>
	<path fill="#0B0A25" d="M681.373 264.662C682.228 264.935 682.497 265.125 683.171 265.674L683.254 266.926C682.059 269.228 679.812 270.891 677.909 272.612L676.771 272.779L676.502 272.076C677.674 269.338 679.603 267.037 681.373 264.662Z"/>
</svg>
