<?xml version="1.0" encoding="utf-8" ?>
<svg xmlns="http://www.w3.org/2000/svg" xmlns:xlink="http://www.w3.org/1999/xlink" width="1024" height="1024">
	<path fill="#D1CAF8" d="M0 0L1024 0L1024 410.539C986.165 425.556 947.879 439.22 909.728 453.373C890.06 460.724 870.323 467.888 850.52 474.867C841.51 478.021 832.452 481.524 823.289 484.163C816.241 474.37 808.233 465.455 800.848 455.941C806.54 442.518 813.041 429.481 818.106 415.787C840.601 354.971 848.643 288.772 823.751 227.402C811.694 197.676 794.398 171.019 768.58 151.366C761.648 146.089 754.219 141.181 746.16 137.803C736.71 133.843 726.411 131.783 716.387 134.827C703.213 118.508 692.047 111.937 670.748 109.683C627.206 105.076 582.034 128.715 549.198 155.472C532.773 168.856 500.528 197.571 498.37 218.935C498.198 220.728 498.087 222.528 498.039 224.329C487.766 225.938 479.057 232.568 473.005 240.79C464.664 252.122 460.553 266.679 462.702 280.665C465.405 298.256 476.194 313.788 487.742 326.816C485.709 340.432 482.222 367.474 490.636 379.025C494.947 384.943 501.751 388.484 506.166 394.219L502.402 396.582C499.013 396.543 495.87 396.123 492.957 398.155L492.656 398.925C493.812 400.845 496.522 401.58 498.58 402.051C501.742 402.776 504.558 402.132 507.696 401.687L510.747 403.828C509.242 412.819 506.636 421.593 503.813 430.251C501.355 437.788 496.292 448.998 496.134 456.723C496.079 459.397 497.305 461.982 498.851 464.101C502.156 468.63 506.397 471.52 511.999 472.18C513.92 472.407 520.688 471.581 521.712 471.979C522.167 472.155 522.383 472.688 522.719 473.043C523.384 475.098 522.967 477.041 522.78 479.149C521.958 488.401 524.577 492.704 532.723 496.858L534.326 497.664C532.57 500.722 531.061 503.969 532.163 507.577C534.179 514.18 542.931 515.311 546.486 520.635C548.782 524.074 549.056 529.247 549.785 533.216C551.641 543.325 556.267 554.653 566.116 559.333C577.547 564.765 595.508 560.596 606.711 556.361C615.383 553.081 623.771 549.241 631.725 544.462C636.139 548.865 640.614 553.207 645.147 557.488L640.019 560.78C630.728 562.243 620.984 566.542 612.17 569.747L563.255 587.97C499.852 611.779 436.241 635.029 372.429 657.72L329.564 672.834C321.145 675.883 312.311 679.796 303.68 682.007C313.085 640.392 319.556 598.134 317.556 555.335C319.007 553.898 320.455 552.507 321.7 550.881C320.629 545.33 320.128 540.151 320.735 534.514C321.245 529.772 322.282 524.987 322.052 520.206C321.251 503.503 309.063 469.259 302.638 453.469C303.132 452.213 303.27 450.931 304.493 450.291C314.779 453.539 324.101 458.208 334.815 452.807C343.395 448.482 348.46 438.889 351.197 430.076C353.888 421.602 354.316 412.571 352.437 403.881C349.768 391.696 343.949 379.881 339.098 368.419C332.489 353.041 326.197 337.528 320.225 321.891C317.412 314.465 314.837 306.951 312.504 299.361C309.61 289.622 307.617 279.474 302.786 270.449C299.386 264.096 295.317 258.265 289.317 254.123C290.078 248.933 291.129 243.975 289.399 238.858C288.012 237.345 285.908 236.588 285.072 234.797C285.764 234.322 286.076 234.3 286.88 234.098C294.029 232.299 299.318 228.488 303.047 222.123C310.961 208.617 309.326 193.093 311.923 178.258C313.472 169.407 316.754 160.803 317.193 151.791C317.536 144.755 316.516 137.564 314.686 130.778C308.88 109.248 295.851 86.2421 276.057 74.9817C262.891 67.4918 247.349 66.3451 232.842 70.3516C217.844 74.4936 204.859 83.9876 197.248 97.6163C192.234 106.595 189.237 116.466 184.807 125.716C175.548 145.048 159.46 162.813 166.048 185.598C169.246 196.656 175.124 205.489 184.835 211.75C171.922 217.516 163.38 226.584 153.291 236.091C146.827 242.181 141.015 245.58 137.632 254.371C132.62 267.397 133.622 279.991 138.293 292.924C134.74 310.584 132.984 327.714 134.78 345.746C138.596 384.04 154.304 419.695 159.626 457.731C161.081 467.864 161.704 478.098 161.491 488.332C161.253 503.383 156.443 519.894 164.173 533.748C164.383 534.123 164.599 534.496 164.82 534.865C161.688 555.745 159.554 577.219 160.324 598.35C161.269 624.27 166.07 649.639 170.52 675.118C173.207 690.912 175.621 706.751 177.76 722.629C177.532 722.97 177.409 723.412 177.076 723.651C174.466 725.52 167.486 727.333 164.133 728.559C145.331 735.352 126.48 742.006 107.58 748.521C71.6315 761.094 36.0161 774.604 0 786.976L0 0Z"/>
	<path d="M303.68 682.007C302.404 689.979 300.016 697.971 297.878 705.75C293.596 721.329 288.898 736.936 283.076 752.017C279.192 762.075 274.282 772.209 271.075 782.464C269.143 788.639 268.791 804.729 265.678 808.4L264.386 808.912C263.194 808.276 262.925 808.122 262.409 806.784C261.987 805.691 262.044 804.181 262.162 803.038C262.612 798.697 263.65 794.372 264.188 790.019C265.341 780.117 266.339 770.198 267.182 760.265C268.737 745.174 270.168 730.07 271.474 714.955C273.668 683 274.853 650.983 275.028 618.953C277.465 616.558 280.189 614.137 282.249 611.414C283.568 609.67 284.56 607.384 286.024 605.805C286.761 605.01 287.547 604.7 288.576 604.462C289.315 604.833 289.608 604.745 289.863 605.618C290.523 607.883 289.184 610.513 288.028 612.402C285.94 615.815 282.993 618.803 280.244 621.69C279.276 647.753 279.62 673.854 278.05 699.907C277.156 714.739 275.768 729.601 274.308 744.388C273.578 751.79 272.512 759.221 272.092 766.642C291.278 713.667 306.778 658.499 311.268 602.112C312.451 587.263 312.564 572.411 312.467 557.526C305.424 560.06 298.387 562.106 290.998 563.397C256.902 569.356 200.289 566.827 167.584 554.919C161.646 604.42 171.971 649.11 179.767 697.395C182.076 711.693 183.799 726.119 185.578 740.49C188.327 762.693 190.783 785.04 191.418 807.421C189.846 807.609 188.046 808.091 186.567 807.399C185.094 802.271 185.615 795.398 185.199 789.985C183.705 772.119 181.827 754.288 179.567 736.504C179.06 732.386 179.102 726.455 177.76 722.629C175.621 706.751 173.207 690.912 170.52 675.118C166.07 649.639 161.269 624.27 160.324 598.35C159.554 577.219 161.688 555.745 164.82 534.865C164.599 534.496 164.383 534.123 164.173 533.748C156.443 519.894 161.253 503.383 161.491 488.332C161.704 478.098 161.081 467.864 159.626 457.731C154.304 419.695 138.596 384.04 134.78 345.746C132.984 327.714 134.74 310.584 138.293 292.924C133.622 279.991 132.62 267.397 137.632 254.371C141.015 245.58 146.827 242.181 153.291 236.091C163.38 226.584 171.922 217.516 184.835 211.75C175.124 205.489 169.246 196.656 166.048 185.598C159.46 162.813 175.548 145.048 184.807 125.716C189.237 116.466 192.234 106.595 197.248 97.6163C204.859 83.9876 217.844 74.4936 232.842 70.3516C247.349 66.3451 262.891 67.4918 276.057 74.9817C295.851 86.2421 308.88 109.248 314.686 130.778C316.516 137.564 317.536 144.755 317.193 151.791C316.754 160.803 313.472 169.407 311.923 178.258C309.326 193.093 310.961 208.617 303.047 222.123C299.318 228.488 294.029 232.299 286.88 234.098C286.076 234.3 285.764 234.322 285.072 234.797C285.908 236.588 288.012 237.345 289.399 238.858C291.129 243.975 290.078 248.933 289.317 254.123C295.317 258.265 299.386 264.096 302.786 270.449C307.617 279.474 309.61 289.622 312.504 299.361C314.837 306.951 317.412 314.465 320.225 321.891C326.197 337.528 332.489 353.041 339.098 368.419C343.949 379.881 349.768 391.696 352.437 403.881C354.316 412.571 353.888 421.602 351.197 430.076C348.46 438.889 343.395 448.482 334.815 452.807C324.101 458.208 314.779 453.539 304.493 450.291C303.27 450.931 303.132 452.213 302.638 453.469C309.063 469.259 321.251 503.503 322.052 520.206C322.282 524.987 321.245 529.772 320.735 534.514C320.128 540.151 320.629 545.33 321.7 550.881C320.455 552.507 319.007 553.898 317.556 555.335C319.556 598.134 313.085 640.392 303.68 682.007ZM285.902 183.457L284.475 183.064C283.458 180.599 283.194 177.804 282.558 175.217C280.465 166.7 278.279 160.372 281.809 151.663C283.673 147.064 286.903 143.848 291.507 142.007C293.237 141.315 295.489 141 296.85 139.707C297.934 135.599 295.977 130.416 293.925 126.866C289.756 119.652 284.44 113.111 280.181 105.893C264.383 132.701 236.828 146.529 209.744 159.449C211.729 167.277 220.092 190.108 224.594 196.342C228.811 202.182 235.43 207.601 241.598 211.275C248.595 215.442 260.391 221.059 268.751 219.022C269.676 218.796 270.581 218.478 271.476 218.157C277.66 211.579 285.854 194.615 287.797 185.931C287.853 185.835 287.919 185.743 287.964 185.641C288.828 183.696 291.947 158.363 291.524 157.099C290.324 157.002 289.178 156.867 287.99 156.656L287.481 155.737C287.848 154.354 287.826 153.996 288.878 153.063C290.294 153.195 292.044 153.499 293.277 152.607C295.484 151.009 295.852 147.241 296.413 144.756C293.15 145.796 290.209 147.042 287.703 149.453C275.968 160.743 287.619 172.308 286.906 182.106C286.847 182.914 286.475 182.971 285.902 183.457ZM246.555 73.1897C232.223 74.3624 216.818 80.2294 207.305 91.4408C197.712 102.746 193.682 119.179 187.078 132.362C182.151 142.198 175.507 151.503 171.683 161.822C169.895 166.647 169.074 171.606 169.528 176.747C170.487 187.629 176.073 198.516 184.523 205.45C193.223 212.589 203.029 209.791 212.837 213.274C203.926 201.218 188.505 188.584 191.36 171.616C192.289 166.098 195.477 161.52 200.063 158.39C206.386 154.076 214.173 151.596 221.051 148.274C238.426 139.881 264.634 123.848 273.973 107.087C274.066 106.91 274.162 106.734 274.253 106.555C276.063 103 276.576 96.9453 279.807 94.5935L281.086 94.486C282.636 96.4707 282.202 99.1144 282.111 101.524C287.752 109.086 298.299 121.402 300.902 130.181C302.196 134.544 302.275 139.657 301.624 144.138C300.58 151.317 297.268 157.855 295.732 164.898C294.478 170.654 295.131 176.562 294.122 182.305C292.432 191.919 282.859 215.102 274.993 220.976C273.136 222.363 271.114 223.374 268.972 224.232C275.14 226.732 283.173 230.495 289.805 227.58C295.913 224.895 299.851 217.65 301.952 211.604C305.431 201.588 304.905 190.727 306.34 180.335C307.386 172.764 309.765 165.59 311.229 158.132C314.491 141.517 308.409 124.841 301.205 110.085C293.878 95.0773 281.569 81.2142 265.423 75.685C259.252 73.5719 253.042 72.9697 246.555 73.1897ZM204.126 161.834C200.204 164.877 197.004 168.056 196.354 173.25C195.194 182.512 201.919 192.006 207.463 198.763C211.114 203.213 215.307 207.24 218.873 211.737L221.317 216.016C221.562 212.001 221.997 207.723 221.081 203.76C220.492 201.213 205.447 162.869 204.959 162.256C204.844 162.112 204.683 162.012 204.545 161.89L204.684 162.291L204.126 161.834ZM226.593 206.259C226.873 212.035 227.018 218.551 222.67 223.026C221.976 223.739 221.149 224.221 220.305 224.733C229.883 231.679 238.232 239.778 246.552 248.153C247.863 249.472 250.121 252.451 251.869 252.711L252.016 252.657C259.626 243.598 259.505 235.463 259.42 224.363C250.743 221.298 242.168 218.318 234.638 212.868C231.825 210.832 229.378 208.254 226.593 206.259ZM188.046 216.563C180.091 218.612 174.623 222.74 168.728 228.282C173.807 227.395 178.513 227.406 183.642 227.708C196.53 228.466 204.741 231.657 215.311 239.083C229.027 248.719 241.282 260.164 253.704 271.367C257.44 274.688 260.705 277.041 265.335 278.986L264.783 278.41C258.841 272.133 254.217 264.566 248.521 258.005C238.05 245.943 208.006 216.822 191.998 216.373C190.691 216.336 189.35 216.465 188.046 216.563ZM184.79 233.68C173.773 235.058 153.043 240.691 146.072 249.796C140.557 256.999 138.481 268.625 139.725 277.479C140.003 279.461 140.465 281.417 140.872 283.375C144.525 272.314 149.809 258.823 160.898 253.234C171.373 247.953 187.821 247.582 198.939 250.855C205.638 253.076 211.933 255.712 218.055 259.247C229.633 265.932 239.304 273.726 252.708 276.656C234.279 263.034 209.189 231.914 184.79 233.68ZM264.98 236.696C263.473 244.269 260.135 251.609 254.715 257.182C257.359 260.782 260.001 264.352 262.857 267.789C267.492 263.571 269.408 259.398 271.865 253.745C272.487 252.313 273.019 250.645 274 249.433C274.534 248.773 274.781 249.017 275.552 249.041C276.479 249.923 276.629 250.118 276.752 251.48C277.123 255.596 274.727 260.707 272.606 264.111C270.481 266.997 268.313 269.519 265.682 271.958C267.441 274.071 269.174 276.179 271.139 278.108C278.158 271.135 285.143 255.033 285.255 245.395C285.274 243.734 285.014 241.996 283.717 240.816C278.911 236.445 270.755 238.496 264.98 236.696ZM180.286 254.2C171.27 254.94 162.275 256.07 156.085 263.452C140.924 281.534 137.736 322.975 140.13 345.997C144.328 386.372 161.669 424.177 165.697 464.739C166.748 476.044 166.97 487.41 166.363 498.747C165.958 505.855 164.715 513.115 165.294 520.234C165.532 523.156 166.296 525.572 167.827 528.085C168.809 529.697 170.046 531.367 171.512 532.573C175.225 535.628 180.998 537.143 185.672 537.88C197.132 539.688 209.083 538.842 220.666 539.231C242.984 539.98 266.188 542.975 288.391 540.076C296.729 538.987 309.189 536.612 314.51 529.354C317.764 524.915 316.947 518.953 316.04 513.868C312.885 496.185 305.636 475.262 298.91 458.574C284.177 471.569 268.183 476.715 248.531 475.473C239.459 474.899 230.056 472.737 223.107 466.581C211.026 466.066 200.235 461.492 191.977 452.466C188.856 449.055 186.041 444.683 186.391 439.867C186.68 435.885 189.134 432.529 192.18 430.123C192.833 429.613 193.498 429.117 194.173 428.636C189.3 421.528 184.571 414.324 179.986 407.027C174.975 398.921 147.917 353.307 148.183 347.362C149.272 346.243 149.371 346.015 150.881 345.722C151.778 346.137 152.305 346.548 152.864 347.349C154.49 349.68 155.545 352.586 156.849 355.127C159.763 360.805 162.808 366.508 165.968 372.052C177.06 392.524 210.294 448.903 226.458 462.961C229.356 465.481 232.895 466.963 236.545 468.054C251.143 472.415 270.673 470.843 284.081 463.452C291.11 459.577 296.001 454.018 300.373 447.395C293.643 443.606 287.206 439.412 280.72 435.228C277.07 432.874 273.099 429.889 269.122 428.14C266.63 427.044 263.505 427.817 261.114 426.948C260.303 426.653 258.329 422.862 257.803 421.887C251.674 410.532 246.741 398.464 241.157 386.83C230.082 363.75 218.548 340.594 205.988 318.289C201.086 309.585 195.867 301.052 189.847 293.063C187.329 289.721 182.178 285.518 181.133 281.529C180.895 280.623 181.029 280.493 181.26 279.648C182.357 278.924 182.595 278.878 183.914 278.794C187.453 280.436 190.63 285.64 192.977 288.768C206.198 306.386 215.938 325.295 225.847 344.893C233.122 359.013 240.186 373.241 247.037 387.572C248.294 390.178 251.846 399.008 254.651 399.279C255.642 397.836 255.617 396.14 255.617 394.444C255.617 379.426 254.081 364.162 253.171 349.16C251.985 326.771 251.054 304.369 250.376 281.959C244.866 280.147 239.615 278.172 234.498 275.419C216.209 265.576 202.678 252.766 180.286 254.2ZM287.364 259.275C284.762 268.936 282.823 270.412 277.58 278.08C279.517 279.346 280.111 279.508 280.669 281.907C284.169 296.948 289.465 395.281 290.653 397.09C290.866 397.413 291.243 397.59 291.537 397.84C292.847 397.582 293.071 397.381 294.1 396.507C295.578 391.802 295.142 385.559 295.315 380.615C295.813 366.351 296.066 352.173 295.793 337.902C295.661 330.984 294.67 323.803 294.945 316.918C295.021 315.041 294.997 314.236 296.097 312.733C297.238 312.342 297.491 312.169 298.643 312.447C303.308 318.882 300.498 377.871 300.484 389.712C303.494 385.475 310.421 375.955 315.764 375.306C318.566 374.965 321.211 376.523 323.277 378.254C325.22 379.881 326.758 382.188 328.286 384.204C328.3 384.405 328.311 384.606 328.327 384.807C328.863 391.526 331.879 391.591 327.578 398.539C327.403 398.823 327.234 399.111 327.061 399.397C331.405 402.081 341.175 398.605 343.797 404.823L343.47 406.527C340.358 408.093 327.724 405.014 323.259 404.99C322.451 404.986 321.649 404.975 320.841 404.986C298.249 405.447 277.918 409.154 255.286 404.489C257.728 409.707 260.07 415.212 262.905 420.218C269.549 422.957 275.852 425.997 282.026 429.707C294.638 437.288 315.426 454.965 330.939 448.795C337.903 446.025 342.319 438.764 345.032 432.1C353.591 411.073 343.254 391.007 334.991 371.769C325.8 350.707 317.321 329.34 309.568 307.707C305.992 297.466 304.647 286.342 300.072 276.481C297.015 269.89 292.848 264.055 287.364 259.275ZM269.582 283.301C268.937 284.869 268.941 285.399 267.454 286.297C265.707 286.436 264.727 285.825 263.211 285.106L260.397 283.79C261.618 297.331 261.9 310.983 262.525 324.564C263.326 342.021 264.32 359.468 265.508 376.903C265.953 383.847 265.851 391.214 266.611 398.089C266.768 399.51 266.826 400.245 267.764 401.302L268.445 401.418C272.112 401.631 275.809 401.949 279.481 401.984C278.281 374.872 276.656 347.781 274.606 320.72C273.824 310.24 273.629 295.969 271.388 285.95C271.155 284.908 270.84 284.233 270.107 283.429C270.024 283.429 269.939 283.447 269.859 283.427C269.76 283.404 269.674 283.343 269.582 283.301ZM196.452 432.874C194.286 434.756 192.162 436.459 191.941 439.517C191.66 443.411 194.15 446.792 196.673 449.492C201.458 454.611 207.394 457.786 213.875 460.244L215.762 460.654C215.942 458.719 213.696 456.41 212.533 454.915C209.897 451.525 206.978 448.273 204.52 444.757C202.133 441.34 200.139 436.349 197.224 433.493C196.988 433.262 196.709 433.08 196.452 432.874ZM314.968 536.959C306.876 541.272 298.754 543.868 289.654 545.107C267.837 548.078 245.922 545.476 224.068 544.638C209.145 544.066 190.779 545.516 176.721 541.085C174.287 540.311 171.935 539.3 169.698 538.067C169.156 541.705 168.49 545.375 168.257 549.047L171.611 551.055C202.152 563.516 280.421 565.339 309.912 552.786C312.226 551.801 314.241 550.504 316.253 549.002C315.654 545.133 315.902 540.638 314.968 536.959Z"/>
	<path fill="#6D60AB" d="M212.837 213.274C203.029 209.791 193.223 212.589 184.523 205.45C176.073 198.516 170.487 187.629 169.528 176.747C169.074 171.606 169.895 166.647 171.683 161.822C175.507 151.503 182.151 142.198 187.078 132.362C193.682 119.179 197.712 102.746 207.305 91.4408C216.818 80.2294 232.223 74.3624 246.555 73.1897C253.042 72.9697 259.252 73.5719 265.423 75.685C281.569 81.2142 293.878 95.0773 301.205 110.085C308.409 124.841 314.491 141.517 311.229 158.132C309.765 165.59 307.386 172.764 306.34 180.335C304.905 190.727 305.431 201.588 301.952 211.604C299.851 217.65 295.913 224.895 289.805 227.58C283.173 230.495 275.14 226.732 268.972 224.232C271.114 223.374 273.136 222.363 274.993 220.976C282.859 215.102 292.432 191.919 294.122 182.305C295.131 176.562 294.478 170.654 295.732 164.898C297.268 157.855 300.58 151.317 301.624 144.138C302.275 139.657 302.196 134.544 300.902 130.181C298.299 121.402 287.752 109.086 282.111 101.524C282.202 99.1144 282.636 96.4707 281.086 94.486L279.807 94.5935C276.576 96.9453 276.063 103 274.253 106.555C274.162 106.734 274.066 106.91 273.973 107.087C264.634 123.848 238.426 139.881 221.051 148.274C214.173 151.596 206.386 154.076 200.063 158.39C195.477 161.52 192.289 166.098 191.36 171.616C188.505 188.584 203.926 201.218 212.837 213.274ZM250.171 80.975C247.772 107.009 237.044 121.654 217.187 138.161C215.242 139.775 213.288 141.379 211.326 142.973C219.077 131.502 225.855 116.266 223.309 102.014C223.083 100.753 222.716 99.8551 221.701 99.0294C220.313 98.8504 220.109 98.7464 218.884 99.3748C217.422 101.947 218.648 106.086 218.51 109.049C217.839 123.376 211.38 137.539 201.75 148.045C194.908 154.485 180.995 165.433 178.661 174.39L178.981 175.706L179.5 175.993C182.486 173.944 184.465 169.978 187.045 167.351C190.441 163.893 194.315 160.698 197.978 157.522C205.616 150.899 214.192 145.76 222.15 139.596C236.192 128.72 250.016 112.4 253.315 94.4576C254.017 90.6386 255.762 85.2529 253.847 81.6905C252.514 80.8317 251.734 81.007 250.171 80.975Z"/>
	<path d="M211.326 142.973C213.288 141.379 215.242 139.775 217.187 138.161C237.044 121.654 247.772 107.009 250.171 80.975C251.734 81.007 252.514 80.8317 253.847 81.6905C255.762 85.2529 254.017 90.6386 253.315 94.4576C250.016 112.4 236.192 128.72 222.15 139.596C214.192 145.76 205.616 150.899 197.978 157.522C194.315 160.698 190.441 163.893 187.045 167.351C184.465 169.978 182.486 173.944 179.5 175.993L178.981 175.706L178.661 174.39C180.995 165.433 194.908 154.485 201.75 148.045C211.38 137.539 217.839 123.376 218.51 109.049C218.648 106.086 217.422 101.947 218.884 99.3748C220.109 98.7464 220.313 98.8504 221.701 99.0294C222.716 99.8551 223.083 100.753 223.309 102.014C225.855 116.266 219.077 131.502 211.326 142.973Z"/>
	<path fill="#D1CAF8" d="M280.181 105.893C284.44 113.111 289.756 119.652 293.925 126.866C295.977 130.416 297.934 135.599 296.85 139.707C295.489 141 293.237 141.315 291.507 142.007C286.903 143.848 283.673 147.064 281.809 151.663C278.279 160.372 280.465 166.7 282.558 175.217C283.194 177.804 283.458 180.599 284.475 183.064L285.902 183.457C286.475 182.971 286.847 182.914 286.906 182.106C287.619 172.308 275.968 160.743 287.703 149.453C290.209 147.042 293.15 145.796 296.413 144.756C295.852 147.241 295.484 151.009 293.277 152.607C292.044 153.499 290.294 153.195 288.878 153.063C287.826 153.996 287.848 154.354 287.481 155.737L287.99 156.656C289.178 156.867 290.324 157.002 291.524 157.099C291.947 158.363 288.828 183.696 287.964 185.641C287.919 185.743 287.853 185.835 287.797 185.931C285.854 194.615 277.66 211.579 271.476 218.157C270.581 218.478 269.676 218.796 268.751 219.022C260.391 221.059 248.595 215.442 241.598 211.275C235.43 207.601 228.811 202.182 224.594 196.342C220.092 190.108 211.729 167.277 209.744 159.449C236.828 146.529 264.383 132.701 280.181 105.893ZM258.019 140.15C255.264 140.591 251.537 141.117 249.472 143.101C252.346 145.193 258.868 143.32 262.531 143.858C264.073 144.523 265.893 145.616 267.578 145.215L268.456 144.323C268.409 142.939 268.118 142.459 267.104 141.495C264.876 139.375 261.402 139.818 258.581 140.072C258.393 140.089 258.207 140.124 258.019 140.15ZM259.058 150.076C256.045 150.868 252.911 151.446 250.761 153.88C250.474 155.021 250.406 155.192 250.771 156.296C252.068 156.782 253.138 156.089 254.356 155.529C255.492 155.006 255.709 154.571 256.947 154.96L257.108 155.67C257.607 157.483 257.873 158.991 259.266 160.321C259.994 160.462 260.183 160.694 260.84 160.21C262.385 159.07 262.861 156.806 262.936 154.984C262.998 153.476 262.731 152.355 261.979 151.037C260.782 150.246 260.496 150.189 259.058 150.076ZM262.518 195.018C262.497 196.35 262.163 197.438 263.349 198.382C266.755 201.095 274.355 199.722 278.333 199.023C278.861 197.7 279.028 197.658 278.565 196.336C274.838 194.107 266.877 195.016 262.518 195.018Z"/>
	<path d="M800.848 455.941C808.233 465.455 816.241 474.37 823.289 484.163L828.987 493.075C849.752 491.55 878.673 488.55 895.502 502.983C905.226 511.322 912.74 522.125 920.39 532.307C923.942 537.033 927.471 541.977 931.756 546.073C957.463 551.596 981.22 562.314 995.902 585.164C999.184 590.27 1000.57 596.265 1003.67 601.264C1005.74 604.594 1009.31 607.196 1011.73 610.338C1016.29 616.269 1019.98 622.889 1024 629.187L1024 639.219C1017.82 629.445 1011.5 619.766 1005.02 610.186C1010.87 638.458 1013.99 667.224 1014.34 696.091C1014.53 705.357 1013.9 714.637 1014.07 723.877C1012.26 735.595 1010.63 747.279 1008.6 758.969C1007.77 763.774 1007.22 768.915 1005.72 773.553C1005.71 773.596 1005.71 773.642 1005.7 773.687C998.559 800.559 989.551 827.805 975.049 851.705C971.381 857.75 959.014 871.857 957.2 876.706C949.752 883.817 942.921 891.539 935.359 898.562C928.847 904.298 922.073 910.333 914.783 915.061C891.344 911.461 868.234 897.618 848.479 885.171C841.307 879.527 833.609 874.212 826.034 869.125C817.628 861.8 808.145 855.592 799.573 848.398C778.614 830.807 758.165 811.495 739.212 791.793C732.918 783.87 724.789 776.723 717.698 769.455C706.073 757.91 695.101 745.767 683.488 734.222C677.958 728.047 671.895 722.267 665.809 716.644C659.437 710.679 652.834 704.941 646.321 699.13C640.584 693.618 634.894 687.732 628.399 683.111C612.835 670.675 585.886 647.911 565.058 650.116C552.012 651.498 528.302 666.082 518.434 674.957C541.34 682.496 557.209 700.801 572.078 718.806C576.655 725.197 581.119 731.649 585.106 738.431C599.876 764.357 612.765 790.67 623.204 818.656C627.2 830.041 630.79 841.565 633.967 853.205C636.389 864.077 639.284 874.861 640.87 885.901C645.564 918.554 644.655 951.945 642.811 984.769C642.079 997.802 641.514 1011.04 640.003 1024L634.886 1024C636.459 1002.94 638.224 981.747 638.565 960.621C639.482 955.295 638.937 949.287 638.874 943.871C638.694 928.521 638.364 913.105 636.528 897.846C635.193 871.982 624.6 837.855 615.401 813.842C613.702 806.583 607.3 794.049 604.126 786.706C598.188 772.111 582.497 741.343 572.593 729.333C569.609 722.323 563.138 715.976 558.247 710.245C545.442 696.004 531.353 684.869 513.245 678.187C503.208 686.455 494.122 695.426 485.951 705.559C469.735 725.671 457.046 748.249 445.138 771.082C412.832 833.024 390.374 895.822 371.391 962.956C365.649 983.263 359.876 1003.4 355.2 1024L349.188 1024C352.544 1006.05 359.641 984.509 364.726 966.617C368.259 954.187 371.467 941.645 375.277 929.297C391.593 875.344 412.727 822.967 438.423 772.799C453.823 742.857 470.02 714.517 492.778 689.42C505.119 675.81 519.551 667.039 534.529 656.736C538.511 641.056 550.442 625.732 564.585 617.876C569.372 615.217 574.981 614.023 579.273 610.526C588.866 602.711 597.621 593.822 607.281 585.984C617.813 577.438 629.316 569.859 639.619 561.124L640.019 560.78L645.147 557.488C640.614 553.207 636.139 548.865 631.725 544.462C623.771 549.241 615.383 553.081 606.711 556.361C595.508 560.596 577.547 564.765 566.116 559.333C556.267 554.653 551.641 543.325 549.785 533.216C549.056 529.247 548.782 524.074 546.486 520.635C542.931 515.311 534.179 514.18 532.163 507.577C531.061 503.969 532.57 500.722 534.326 497.664L532.723 496.858C524.577 492.704 521.958 488.401 522.78 479.149C522.967 477.041 523.384 475.098 522.719 473.043C522.383 472.688 522.167 472.155 521.712 471.979C520.688 471.581 513.92 472.407 511.999 472.18C506.397 471.52 502.156 468.63 498.851 464.101C497.305 461.982 496.079 459.397 496.134 456.723C496.292 448.998 501.355 437.788 503.813 430.251C506.636 421.593 509.242 412.819 510.747 403.828L507.696 401.687C504.558 402.132 501.742 402.776 498.58 402.051C496.522 401.58 493.812 400.845 492.656 398.925L492.957 398.155C495.87 396.123 499.013 396.543 502.402 396.582L506.166 394.219C501.751 388.484 494.947 384.943 490.636 379.025C482.222 367.474 485.709 340.432 487.742 326.816C476.194 313.788 465.405 298.256 462.702 280.665C460.553 266.679 464.664 252.122 473.005 240.79C479.057 232.568 487.766 225.938 498.039 224.329C498.087 222.528 498.198 220.728 498.37 218.935C500.528 197.571 532.773 168.856 549.198 155.472C582.034 128.715 627.206 105.076 670.748 109.683C692.047 111.937 703.213 118.508 716.387 134.827C726.411 131.783 736.71 133.843 746.16 137.803C754.219 141.181 761.648 146.089 768.58 151.366C794.398 171.019 811.694 197.676 823.751 227.402C848.643 288.772 840.601 354.971 818.106 415.787C813.041 429.481 806.54 442.518 800.848 455.941ZM654.371 114.712C602.569 118.443 552.149 153.63 518.937 191.879C511.5 200.444 502.351 212.35 502.948 224.4C503.132 228.108 507.453 235.025 505.673 237.246C505.413 237.571 504.876 237.878 504.522 238.103C503.397 237.994 503.209 237.997 502.425 237.092C500.583 234.964 499.483 230.587 496.226 230.292C491.707 229.883 484.226 235.891 481.195 238.995C472.451 247.947 467.047 261.976 467.325 274.463C467.726 292.496 480.159 311.794 492.862 323.867C502.333 332.869 513.095 339.107 524.774 344.746C554.335 359.02 563.178 371.807 571.34 403.252C576.126 394.939 577.198 390.096 574.675 380.704C571.47 368.773 567.327 357.25 559.654 347.406C552.169 337.804 542.573 331.1 533.247 323.491C513.185 307.122 498.226 284.89 493.472 259.214C492.231 252.511 491.047 241.576 494.613 235.457C495.186 234.474 495.713 233.84 496.74 233.307C497.97 233.83 498.418 234.286 499.212 235.354C498.676 239.036 497.812 242.985 497.72 246.694C497.268 264.931 507.03 285.745 517.733 300.003C535.053 323.075 559.857 330.05 572.75 358.645C576.316 366.555 577.937 374.842 580.579 383.036C581.529 377.943 582.567 372.818 582.968 367.647C584.01 354.224 582.777 350.451 595.007 341.728C562.144 327.043 536.369 303.678 523.34 269.432C520.589 262.2 514.156 243.314 516.911 235.996C517.953 235.184 517.702 235.368 518.881 235.452C519.957 236.297 520.497 237.015 520.979 238.275C522.424 242.057 522.764 246.521 523.573 250.48C524.831 256.637 526.704 262.586 528.983 268.441C533.428 279.836 539.647 290.457 547.411 299.908C559.841 315.237 576.811 328.707 595.265 335.997C601.631 338.511 608.293 338.247 614.69 340.325C634.745 346.841 645.12 367.828 647.525 387.524C649.233 401.511 646.717 415.134 648.63 429.481C658.095 415.866 667.424 402.005 675.357 387.432C678.366 381.958 681.225 376.403 683.934 370.773C685.372 367.74 688.346 359.391 690.08 357.254C690.61 356.601 690.749 356.578 691.376 356.207C692.658 356.008 692.768 356.014 693.94 356.567C694.552 357.642 694.646 358.547 694.34 359.736C692.915 365.271 689.901 370.261 687.345 375.322C678.874 392.093 670.034 406.945 659.705 422.57C656.088 428.041 651.049 433.654 648.419 439.649C647.472 441.807 645.914 454.923 644.793 459.216C643.787 463.069 640.772 469.721 640.796 473.346C642.858 473.977 645.253 472.622 647.093 471.656C655.661 467.157 664.281 461.999 671.847 455.961C702.502 431.498 730.103 389.503 745.495 353.664C763.169 308.858 769.344 257.772 749.608 212.443C745.856 203.826 741.515 195.089 736.34 187.237C734.297 184.137 731.116 181.077 729.407 177.893C728.727 176.626 728.963 176.263 729.434 175.045C730.47 174.181 730.491 174.107 731.826 174.055C739.227 177.246 752.561 204.266 755.831 212.416C774.552 259.086 768.808 313.232 749.178 358.58C732.905 396.173 703.787 439.126 670.57 463.612C663.123 469.102 655.246 473.484 646.874 477.382C650.953 479.748 655.005 482.185 659.124 484.477L659.841 484.221C684.286 475.379 708.576 451.532 722.708 429.966C724.171 427.734 728.85 418.817 730.766 418.208C731.178 418.076 731.631 418.205 732.064 418.204C733.289 419.136 733.43 419.326 734.005 420.754C732.597 429.631 709.372 455.504 702.039 462.66C697.472 467.095 692.602 471.206 687.465 474.965C680.818 479.803 673.322 484.241 665.699 487.376C669.895 489.609 674.068 491.908 678.308 494.056C686.724 488.327 695.214 482.674 704.235 477.926C710.879 474.43 719.062 471.999 725.03 467.505C729.585 464.074 733.496 459.127 737.195 454.789C761.331 426.485 777.379 388.681 784.288 352.323C786.959 338.606 788.275 324.659 788.216 310.684C788.182 306.252 786.554 296.34 788.282 292.964C789.294 292.435 789.962 292.11 791.168 292.464C792.311 292.801 792.935 293.498 793.265 294.6C794.881 299.994 793.921 312.495 793.655 318.5C791.96 363.943 777.241 407.942 751.252 445.259C746.813 451.707 741.836 457.667 736.81 463.656C755.674 456.767 775.222 452.334 795.36 451.904C803.664 438.635 809.273 423.413 814.395 408.693C830.985 361.004 839.678 310.181 828.246 260.289C817.95 215.355 793.557 172.743 753.737 148.048C744.745 142.472 732.369 137.067 721.54 139.504C719.478 139.968 717.559 141.104 715.719 142.107C712.007 137.649 708.513 132.942 704.244 128.989C694.479 119.948 680.198 116.104 667.263 114.872C663.002 114.466 658.639 114.354 654.371 114.712ZM492.302 330.806C491.015 342.063 490.103 353.323 491.337 364.638C496.683 364.571 512.109 362.837 515.936 366.507C516.556 367.102 516.361 366.986 516.543 367.968C515.735 369.357 514.404 370.095 512.876 370.507C506.822 372.141 498.626 371.005 492.137 372.108C495.803 377.249 502.469 385.299 508.556 387.393C510.325 387.223 512.54 386.438 514.05 387.494C516.302 389.068 516.728 393.449 516.746 395.883C516.847 410.165 510.732 425.92 506.169 439.32C504.384 444.566 501.512 450.735 501.526 456.314C501.532 458.851 502.885 460.887 504.634 462.629C507.195 465.178 511.257 467.661 514.984 467.682C519.82 467.709 523 458.646 527.672 461.724C531.341 468.183 526.268 479.665 528.442 487.086C530.142 492.892 541.319 491.272 541.062 498.209C539.904 500.971 535.372 502.75 536.752 505.974C538.975 511.166 547.997 512.641 551.251 517.303C554.158 521.467 554.2 528.872 555.047 533.74C556.696 543.217 562.342 553.456 572.422 555.721C585.997 558.772 605.496 551.576 617.691 545.753C622.112 543.642 626.11 540.534 630.923 539.955C631.6 539.874 632.355 539.767 632.851 539.284C636.03 536.189 638.539 532.087 641.208 528.54C645.184 523.165 649.743 518.248 654.803 513.877C660.794 508.384 667.527 503.568 673.358 497.982C660.816 491.349 645.023 484.354 634.516 474.806C637.044 466.06 640.234 457.619 641.612 448.573C643.408 436.786 642.06 425.544 641.82 413.778C641.729 409.339 642.736 404.806 643.006 400.364C643.71 388.798 641.062 376.128 635.498 365.947C630.214 356.281 622.077 347.798 611.205 344.756C606.799 343.524 602.597 343.209 598.538 345.631C594.187 348.227 590.921 353.035 588.387 357.322C588.734 372.96 585.807 387.234 578.777 401.247C577.174 404.443 575.315 408.165 572.78 410.731C571.812 411.71 571.053 412.085 569.659 412.151C567.866 411.109 567.779 410.073 567.26 408.121C561.43 386.202 555.654 367.955 534.935 355.959C527.574 351.697 519.618 348.445 512.135 344.385C505.108 340.572 498.598 335.716 492.302 330.806ZM786.861 457.697C734.266 463.633 678.014 490.795 644.665 532.645C642.207 535.73 639.685 538.901 637.798 542.373L650.214 554.549L664.744 545.42C711.745 517.888 768.448 498.065 822.935 493.783C814.417 480.739 804.798 467.796 793.192 457.28C791.167 457.399 788.832 457.298 786.861 457.697ZM841.035 497.711C756.71 502.747 686.909 531.049 620.546 582.518C609.397 591.165 597.757 600.237 587.43 609.872C604.72 607.133 621.723 603.349 639.292 603.029C672.596 602.421 705.33 610.648 737.752 617.097C757.508 621.027 778.25 624.421 798.378 625.761C820.38 627.191 842.47 626.442 864.324 623.524C869.654 622.793 874.962 621.908 880.24 620.871C883.649 620.179 887.642 618.739 891.063 618.726C892.535 618.72 893.898 618.843 895.206 619.56L895.719 620.358C895.229 621.747 894.179 622.367 892.92 623.013C885.676 626.727 869.846 628.16 861.333 629.167C822.745 633.732 785.633 631.056 747.456 624.39C733.015 621.868 718.793 618.427 704.417 615.611C673.958 609.645 643.008 606.251 612.158 611.062C624.082 613.899 635.851 617.126 647.344 621.42C678.526 633.069 708.066 650.301 737.377 665.905C773.185 684.967 809.207 703.725 847.117 718.342C867.875 726.345 889.306 734.128 911.163 738.517C917.887 739.868 924.918 741.183 931.77 741.588C936.525 741.869 941.505 741.504 946.214 742.115C947.819 742.324 948.987 742.668 950.396 743.458L950.947 744.484C950.523 745.574 950.123 746.342 949.022 746.89C945.715 748.538 937.449 747.343 933.762 747.04C888.323 743.312 836.003 720.894 794.885 701.85C783.108 696.395 771.682 690.161 760.179 684.154C724.622 665.588 689.803 645.875 653.021 629.75C629.022 619.424 598.129 609.855 572.772 620.032C558.002 625.959 546.798 639.01 540.623 653.427C554.874 646.428 566.1 641.65 581.899 646.995C633.087 664.314 722.715 768.773 764.881 809.562C795.481 839.162 828.683 867.684 865.641 889.083C879.942 897.363 896.851 907.081 913.354 909.419C921.511 904.372 928.984 896.715 935.892 890.109C971.346 856.2 989.525 819.131 1000.71 771.693C1004.48 755.711 1007.33 739.216 1008.36 722.812C1010.17 693.942 1006.19 611.759 991.127 587.811C987.748 582.44 983.303 577.567 978.736 573.181C983.466 585.579 988.675 598.113 990.092 611.419C993.244 641.023 978.826 685.138 968.451 712.767C966.563 717.797 964.922 723.367 962.647 728.205C961.841 729.92 960.301 731.888 958.397 732.445C957.46 732.72 957.01 732.681 956.093 732.448C955.638 731.924 955.59 732.066 955.609 731.382C955.675 729.005 964.072 709.854 965.556 705.716C974.848 679.811 986.964 640.92 984.774 613.244C984.046 604.05 981.4 594.932 978.221 586.312C975.886 579.983 973.096 572.379 968.677 567.157C962.847 560.268 947.829 555.929 939.229 554.043L942.419 558.75C943.703 560.651 944.675 563.104 944.728 565.412L943.276 566.31C937.832 563.525 933.481 556.932 929.593 552.285C922.132 543.367 915.012 534.235 907.884 525.054C894.059 507.25 886.004 498.847 862.714 497.559C855.676 497.17 848.036 496.983 841.035 497.711Z"/>
	<path fill="#6D60AB" d="M571.34 403.252C563.178 371.807 554.335 359.02 524.774 344.746C513.095 339.107 502.333 332.869 492.862 323.867C480.159 311.794 467.726 292.496 467.325 274.463C467.047 261.976 472.451 247.947 481.195 238.995C484.226 235.891 491.707 229.883 496.226 230.292C499.483 230.587 500.583 234.964 502.425 237.092C503.209 237.997 503.397 237.994 504.522 238.103C504.876 237.878 505.413 237.571 505.673 237.246C507.453 235.025 503.132 228.108 502.948 224.4C502.351 212.35 511.5 200.444 518.937 191.879C552.149 153.63 602.569 118.443 654.371 114.712C658.639 114.354 663.002 114.466 667.263 114.872C680.198 116.104 694.479 119.948 704.244 128.989C708.513 132.942 712.007 137.649 715.719 142.107C717.559 141.104 719.478 139.968 721.54 139.504C732.369 137.067 744.745 142.472 753.737 148.048C793.557 172.743 817.95 215.355 828.246 260.289C839.678 310.181 830.985 361.004 814.395 408.693C809.273 423.413 803.664 438.635 795.36 451.904C775.222 452.334 755.674 456.767 736.81 463.656C741.836 457.667 746.813 451.707 751.252 445.259C777.241 407.942 791.96 363.943 793.655 318.5C793.921 312.495 794.881 299.994 793.265 294.6C792.935 293.498 792.311 292.801 791.168 292.464C789.962 292.11 789.294 292.435 788.282 292.964C786.554 296.34 788.182 306.252 788.216 310.684C788.275 324.659 786.959 338.606 784.288 352.323C777.379 388.681 761.331 426.485 737.195 454.789C733.496 459.127 729.585 464.074 725.03 467.505C719.062 471.999 710.879 474.43 704.235 477.926C695.214 482.674 686.724 488.327 678.308 494.056C674.068 491.908 669.895 489.609 665.699 487.376C673.322 484.241 680.818 479.803 687.465 474.965C692.602 471.206 697.472 467.095 702.039 462.66C709.372 455.504 732.597 429.631 734.005 420.754C733.43 419.326 733.289 419.136 732.064 418.204C731.631 418.205 731.178 418.076 730.766 418.208C728.85 418.817 724.171 427.734 722.708 429.966C708.576 451.532 684.286 475.379 659.841 484.221L659.124 484.477C655.005 482.185 650.953 479.748 646.874 477.382C655.246 473.484 663.123 469.102 670.57 463.612C703.787 439.126 732.905 396.173 749.178 358.58C768.808 313.232 774.552 259.086 755.831 212.416C752.561 204.266 739.227 177.246 731.826 174.055C730.491 174.107 730.47 174.181 729.434 175.045C728.963 176.263 728.727 176.626 729.407 177.893C731.116 181.077 734.297 184.137 736.34 187.237C741.515 195.089 745.856 203.826 749.608 212.443C769.344 257.772 763.169 308.858 745.495 353.664C730.103 389.503 702.502 431.498 671.847 455.961C664.281 461.999 655.661 467.157 647.093 471.656C645.253 472.622 642.858 473.977 640.796 473.346C640.772 469.721 643.787 463.069 644.793 459.216C645.914 454.923 647.472 441.807 648.419 439.649C651.049 433.654 656.088 428.041 659.705 422.57C670.034 406.945 678.874 392.093 687.345 375.322C689.901 370.261 692.915 365.271 694.34 359.736C694.646 358.547 694.552 357.642 693.94 356.567C692.768 356.014 692.658 356.008 691.376 356.207C690.749 356.578 690.61 356.601 690.08 357.254C688.346 359.391 685.372 367.74 683.934 370.773C681.225 376.403 678.366 381.958 675.357 387.432C667.424 402.005 658.095 415.866 648.63 429.481C646.717 415.134 649.233 401.511 647.525 387.524C645.12 367.828 634.745 346.841 614.69 340.325C608.293 338.247 601.631 338.511 595.265 335.997C576.811 328.707 559.841 315.237 547.411 299.908C539.647 290.457 533.428 279.836 528.983 268.441C526.704 262.586 524.831 256.637 523.573 250.48C522.764 246.521 522.424 242.057 520.979 238.275C520.497 237.015 519.957 236.297 518.881 235.452C517.702 235.368 517.953 235.184 516.911 235.996C514.156 243.314 520.589 262.2 523.34 269.432C536.369 303.678 562.144 327.043 595.007 341.728C582.777 350.451 584.01 354.224 582.968 367.647C582.567 372.818 581.529 377.943 580.579 383.036C577.937 374.842 576.316 366.555 572.75 358.645C559.857 330.05 535.053 323.075 517.733 300.003C507.03 285.745 497.268 264.931 497.72 246.694C497.812 242.985 498.676 239.036 499.212 235.354C498.418 234.286 497.97 233.83 496.74 233.307C495.713 233.84 495.186 234.474 494.613 235.457C491.047 241.576 492.231 252.511 493.472 259.214C498.226 284.89 513.185 307.122 533.247 323.491C542.573 331.1 552.169 337.804 559.654 347.406C567.327 357.25 571.47 368.773 574.675 380.704C577.198 390.096 576.126 394.939 571.34 403.252ZM676.883 131.213C655.237 132.461 635.484 138.705 616.989 150.012C612.928 152.495 607.926 155.327 604.786 158.978C603.996 159.896 603.627 160.614 603.458 161.834C603.991 162.976 604.127 163.026 605.219 163.679C606.84 163.648 607.699 162.966 608.982 162.093C625.486 150.184 643.373 141.157 663.706 137.979C667.233 137.428 681.754 137.047 683.494 135.938C683.91 135.672 684.051 135.123 684.329 134.715C684.382 134.004 684.585 133.654 684.102 133.053C683.008 131.691 680.926 131.181 679.247 131.133C678.459 131.11 677.668 131.16 676.883 131.213ZM687.521 155.89C668.187 168.66 654.242 191.606 649.651 214.047C645.122 236.183 649.19 255.341 657.15 276.042C659.617 282.458 662.426 288.866 664.469 295.423C666.014 300.384 668.35 314.656 669.977 317.923C671.117 318.859 671.731 318.9 673.141 319.043C675.628 314.9 673.173 307.594 672.072 303.196C668.56 289.16 662.457 276.139 657.927 262.461C649.625 237.396 651.648 210.595 665.328 187.797C669.914 180.104 675.617 173.135 682.25 167.118C684.517 165.089 690.269 161.479 690.947 158.721C690.461 157.339 690.289 157.108 689.192 156.133L687.521 155.89ZM579.486 158.438C559.223 168.491 539.876 182.777 524.465 199.344C522.108 201.877 518.339 205.336 517.229 208.664C516.826 209.872 516.977 210.15 517.382 211.303C518.64 212.208 519.273 212.345 520.76 212.5C534.749 194.754 550.875 181.904 570.005 170.16C573.507 168.011 582.463 164.256 583.026 160.248C582.261 159.149 581.931 158.84 580.549 158.485C580.173 158.388 579.857 158.422 579.486 158.438ZM624.597 164.871C606.623 174.426 590.869 188.257 584.772 208.314C579.749 224.838 582.615 242.365 590.837 257.367C600.333 274.691 616.068 287.694 630.884 300.304C638.32 306.632 645.767 312.879 651.761 320.66C657.879 328.602 662.025 338.462 664.69 348.058C665.581 351.268 666.228 356.52 667.896 359.248L669.985 359.841C671.387 358.389 671.961 357.797 671.889 355.65C671.77 352.135 670.345 348.214 669.396 344.835C663.964 325.488 654.525 313.516 639.624 300.575C617.423 281.295 589.891 260.979 587.734 229.015C586.791 214.4 591.708 200.011 601.398 189.029C604.457 185.571 607.823 182.397 611.454 179.547C614.989 176.756 625.89 171.201 627.464 167.749C627.266 166.303 627.157 166.182 626.19 165.076C625.721 165.007 625.065 164.846 624.597 164.871ZM753.39 173.619C752.436 175.047 751.512 176.151 751.509 177.946C753.167 182.386 764.378 192.989 767.999 198.049C790.098 228.928 805.868 262.159 812.521 299.688C816.551 322.418 815.523 341.91 809.717 364.132C808.891 367.296 806.802 371.068 810.651 372.801C811.042 372.976 811.481 373.081 811.894 373.192C814.674 367.855 815.957 361.397 817.199 355.522C823.515 325.63 819.26 296.061 810.17 267.232C800.786 237.467 784.424 208.745 764.434 184.833C761.739 181.609 758.016 176.266 754.452 174.093C754.151 173.909 753.697 173.744 753.39 173.619ZM715.609 195.29C715.576 195.448 715.541 195.606 715.51 195.764C714.409 201.325 714.441 207.219 713.851 212.864C713.144 219.625 711.639 226.522 710.161 233.157C703.383 263.597 692.305 292.425 682.839 322.041C682.027 324.581 681.017 327.736 682.461 330.17C683.457 330.76 684.102 331.085 685.259 331.213C690.01 320.666 693.079 308.847 696.707 297.837C706.715 267.465 716.264 240.28 719.527 208.078C719.861 204.782 720.837 199.766 719.728 196.601C719.509 195.974 719.539 196.069 718.891 195.835C717.805 195.442 716.748 195.38 715.609 195.29Z"/>
	<path d="M608.982 162.093C607.699 162.966 606.84 163.648 605.219 163.679C604.127 163.026 603.991 162.976 603.458 161.834C603.627 160.614 603.996 159.896 604.786 158.978C607.926 155.327 612.928 152.495 616.989 150.012C635.484 138.705 655.237 132.461 676.883 131.213C677.668 131.16 678.459 131.11 679.247 131.133C680.926 131.181 683.008 131.691 684.102 133.053C684.585 133.654 684.382 134.004 684.329 134.715C684.051 135.123 683.91 135.672 683.494 135.938C681.754 137.047 667.233 137.428 663.706 137.979C643.373 141.157 625.486 150.184 608.982 162.093Z"/>
	<path d="M262.531 143.858C258.868 143.32 252.346 145.193 249.472 143.101C251.537 141.117 255.264 140.591 258.019 140.15C258.207 140.124 258.393 140.089 258.581 140.072C261.402 139.818 264.876 139.375 267.104 141.495C268.118 142.459 268.409 142.939 268.456 144.323L267.578 145.215C265.893 145.616 264.073 144.523 262.531 143.858Z"/>
	<path d="M257.108 155.67L256.947 154.96C255.709 154.571 255.492 155.006 254.356 155.529C253.138 156.089 252.068 156.782 250.771 156.296C250.406 155.192 250.474 155.021 250.761 153.88C252.911 151.446 256.045 150.868 259.058 150.076C260.496 150.189 260.782 150.246 261.979 151.037C262.731 152.355 262.998 153.476 262.936 154.984C262.861 156.806 262.385 159.07 260.84 160.21C260.183 160.694 259.994 160.462 259.266 160.321C257.873 158.991 257.607 157.483 257.108 155.67Z"/>
	<path d="M673.141 319.043C671.731 318.9 671.117 318.859 669.977 317.923C668.35 314.656 666.014 300.384 664.469 295.423C662.426 288.866 659.617 282.458 657.15 276.042C649.19 255.341 645.122 236.183 649.651 214.047C654.242 191.606 668.187 168.66 687.521 155.89L689.192 156.133C690.289 157.108 690.461 157.339 690.947 158.721C690.269 161.479 684.517 165.089 682.25 167.118C675.617 173.135 669.914 180.104 665.328 187.797C651.648 210.595 649.625 237.396 657.927 262.461C662.457 276.139 668.56 289.16 672.072 303.196C673.173 307.594 675.628 314.9 673.141 319.043Z"/>
	<path d="M520.76 212.5C519.273 212.345 518.64 212.208 517.382 211.303C516.977 210.15 516.826 209.872 517.229 208.664C518.339 205.336 522.108 201.877 524.465 199.344C539.876 182.777 559.223 168.491 579.486 158.438C579.857 158.422 580.173 158.388 580.549 158.485C581.931 158.84 582.261 159.149 583.026 160.248C582.463 164.256 573.507 168.011 570.005 170.16C550.875 181.904 534.749 194.754 520.76 212.5Z"/>
	<path fill="#6D60AB" d="M218.873 211.737C215.307 207.24 211.114 203.213 207.463 198.763C201.919 192.006 195.194 182.512 196.354 173.25C197.004 168.056 200.204 164.877 204.126 161.834L204.684 162.291L204.545 161.89C204.683 162.012 204.844 162.112 204.959 162.256C205.447 162.869 220.492 201.213 221.081 203.76C221.997 207.723 221.562 212.001 221.317 216.016L218.873 211.737Z"/>
	<path d="M669.985 359.841L667.896 359.248C666.228 356.52 665.581 351.268 664.69 348.058C662.025 338.462 657.879 328.602 651.761 320.66C645.767 312.879 638.32 306.632 630.884 300.304C616.068 287.694 600.333 274.691 590.837 257.367C582.615 242.365 579.749 224.838 584.772 208.314C590.869 188.257 606.623 174.426 624.597 164.871C625.065 164.846 625.721 165.007 626.19 165.076C627.157 166.182 627.266 166.303 627.464 167.749C625.89 171.201 614.989 176.756 611.454 179.547C607.823 182.397 604.457 185.571 601.398 189.029C591.708 200.011 586.791 214.4 587.734 229.015C589.891 260.979 617.423 281.295 639.624 300.575C654.525 313.516 663.964 325.488 669.396 344.835C670.345 348.214 671.77 352.135 671.889 355.65C671.961 357.797 671.387 358.389 669.985 359.841Z"/>
	<path d="M811.894 373.192C811.481 373.081 811.042 372.976 810.651 372.801C806.802 371.068 808.891 367.296 809.717 364.132C815.523 341.91 816.551 322.418 812.521 299.688C805.868 262.159 790.098 228.928 767.999 198.049C764.378 192.989 753.167 182.386 751.509 177.946C751.512 176.151 752.436 175.047 753.39 173.619C753.697 173.744 754.151 173.909 754.452 174.093C758.016 176.266 761.739 181.609 764.434 184.833C784.424 208.745 800.786 237.467 810.17 267.232C819.26 296.061 823.515 325.63 817.199 355.522C815.957 361.397 814.674 367.855 811.894 373.192Z"/>
	<path d="M278.333 199.023C274.355 199.722 266.755 201.095 263.349 198.382C262.163 197.438 262.497 196.35 262.518 195.018C266.877 195.016 274.838 194.107 278.565 196.336C279.028 197.658 278.861 197.7 278.333 199.023Z"/>
	<path d="M685.259 331.213C684.102 331.085 683.457 330.76 682.461 330.17C681.017 327.736 682.027 324.581 682.839 322.041C692.305 292.425 703.383 263.597 710.161 233.157C711.639 226.522 713.144 219.625 713.851 212.864C714.441 207.219 714.409 201.325 715.51 195.764C715.541 195.606 715.576 195.448 715.609 195.29C716.748 195.38 717.805 195.442 718.891 195.835C719.539 196.069 719.509 195.974 719.728 196.601C720.837 199.766 719.861 204.782 719.527 208.078C716.264 240.28 706.715 267.465 696.707 297.837C693.079 308.847 690.01 320.666 685.259 331.213Z"/>
	<path fill="#D1CAF8" d="M220.305 224.733C221.149 224.221 221.976 223.739 222.67 223.026C227.018 218.551 226.873 212.035 226.593 206.259C229.378 208.254 231.825 210.832 234.638 212.868C242.168 218.318 250.743 221.298 259.42 224.363C259.505 235.463 259.626 243.598 252.016 252.657L251.869 252.711C250.121 252.451 247.863 249.472 246.552 248.153C238.232 239.778 229.883 231.679 220.305 224.733Z"/>
	<path fill="#D1CAF8" d="M168.728 228.282C174.623 222.74 180.091 218.612 188.046 216.563C189.35 216.465 190.691 216.336 191.998 216.373C208.006 216.822 238.05 245.943 248.521 258.005C254.217 264.566 258.841 272.133 264.783 278.41L265.335 278.986C260.705 277.041 257.44 274.688 253.704 271.367C241.282 260.164 229.027 248.719 215.311 239.083C204.741 231.657 196.53 228.466 183.642 227.708C178.513 227.406 173.807 227.395 168.728 228.282Z"/>
	<path fill="#D1CAF8" d="M140.872 283.375C140.465 281.417 140.003 279.461 139.725 277.479C138.481 268.625 140.557 256.999 146.072 249.796C153.043 240.691 173.773 235.058 184.79 233.68C209.189 231.914 234.279 263.034 252.708 276.656C239.304 273.726 229.633 265.932 218.055 259.247C211.933 255.712 205.638 253.076 198.939 250.855C187.821 247.582 171.373 247.953 160.898 253.234C149.809 258.823 144.525 272.314 140.872 283.375Z"/>
	<path fill="#D1CAF8" d="M254.715 257.182C260.135 251.609 263.473 244.269 264.98 236.696C270.755 238.496 278.911 236.445 283.717 240.816C285.014 241.996 285.274 243.734 285.255 245.395C285.143 255.033 278.158 271.135 271.139 278.108C269.174 276.179 267.441 274.071 265.682 271.958C268.313 269.519 270.481 266.997 272.606 264.111C274.727 260.707 277.123 255.596 276.752 251.48C276.629 250.118 276.479 249.923 275.552 249.041C274.781 249.017 274.534 248.773 274 249.433C273.019 250.645 272.487 252.313 271.865 253.745C269.408 259.398 267.492 263.571 262.857 267.789C260.001 264.352 257.359 260.782 254.715 257.182Z"/>
	<path fill="#D1CAF8" d="M298.91 458.574C305.636 475.262 312.885 496.185 316.04 513.868C316.947 518.953 317.764 524.915 314.51 529.354C309.189 536.612 296.729 538.987 288.391 540.076C266.188 542.975 242.984 539.98 220.666 539.231C209.083 538.842 197.132 539.688 185.672 537.88C180.998 537.143 175.225 535.628 171.512 532.573C170.046 531.367 168.809 529.697 167.827 528.085C166.296 525.572 165.532 523.156 165.294 520.234C164.715 513.115 165.958 505.855 166.363 498.747C166.97 487.41 166.748 476.044 165.697 464.739C161.669 424.177 144.328 386.372 140.13 345.997C137.736 322.975 140.924 281.534 156.085 263.452C162.275 256.07 171.27 254.94 180.286 254.2C202.678 252.766 216.209 265.576 234.498 275.419C239.615 278.172 244.866 280.147 250.376 281.959C251.054 304.369 251.985 326.771 253.171 349.16C254.081 364.162 255.617 379.426 255.617 394.444C255.617 396.14 255.642 397.836 254.651 399.279C251.846 399.008 248.294 390.178 247.037 387.572C240.186 373.241 233.122 359.013 225.847 344.893C215.938 325.295 206.198 306.386 192.977 288.768C190.63 285.64 187.453 280.436 183.914 278.794C182.595 278.878 182.357 278.924 181.26 279.648C181.029 280.493 180.895 280.623 181.133 281.529C182.178 285.518 187.329 289.721 189.847 293.063C195.867 301.052 201.086 309.585 205.988 318.289C218.548 340.594 230.082 363.75 241.157 386.83C246.741 398.464 251.674 410.532 257.803 421.887C258.329 422.862 260.303 426.653 261.114 426.948C263.505 427.817 266.63 427.044 269.122 428.14C273.099 429.889 277.07 432.874 280.72 435.228C287.206 439.412 293.643 443.606 300.373 447.395C296.001 454.018 291.11 459.577 284.081 463.452C270.673 470.843 251.143 472.415 236.545 468.054C232.895 466.963 229.356 465.481 226.458 462.961C210.294 448.903 177.06 392.524 165.968 372.052C162.808 366.508 159.763 360.805 156.849 355.127C155.545 352.586 154.49 349.68 152.864 347.349C152.305 346.548 151.778 346.137 150.881 345.722C149.371 346.015 149.272 346.243 148.183 347.362C147.917 353.307 174.975 398.921 179.986 407.027C184.571 414.324 189.3 421.528 194.173 428.636C193.498 429.117 192.833 429.613 192.18 430.123C189.134 432.529 186.68 435.885 186.391 439.867C186.041 444.683 188.856 449.055 191.977 452.466C200.235 461.492 211.026 466.066 223.107 466.581C230.056 472.737 239.459 474.899 248.531 475.473C268.183 476.715 284.177 471.569 298.91 458.574Z"/>
	<path fill="#D1CAF8" d="M300.484 389.712C300.498 377.871 303.308 318.882 298.643 312.447C297.491 312.169 297.238 312.342 296.097 312.733C294.997 314.236 295.021 315.041 294.945 316.918C294.67 323.803 295.661 330.984 295.793 337.902C296.066 352.173 295.813 366.351 295.315 380.615C295.142 385.559 295.578 391.802 294.1 396.507C293.071 397.381 292.847 397.582 291.537 397.84C291.243 397.59 290.866 397.413 290.653 397.09C289.465 395.281 284.169 296.948 280.669 281.907C280.111 279.508 279.517 279.346 277.58 278.08C282.823 270.412 284.762 268.936 287.364 259.275C292.848 264.055 297.015 269.89 300.072 276.481C304.647 286.342 305.992 297.466 309.568 307.707C317.321 329.34 325.8 350.707 334.991 371.769C343.254 391.007 353.591 411.073 345.032 432.1C342.319 438.764 337.903 446.025 330.939 448.795C315.426 454.965 294.638 437.288 282.026 429.707C275.852 425.997 269.549 422.957 262.905 420.218C260.07 415.212 257.728 409.707 255.286 404.489C277.918 409.154 298.249 405.447 320.841 404.986C321.649 404.975 322.451 404.986 323.259 404.99C327.724 405.014 340.358 408.093 343.47 406.527L343.797 404.823C341.175 398.605 331.405 402.081 327.061 399.397C327.234 399.111 327.403 398.823 327.578 398.539C331.879 391.591 328.863 391.526 328.327 384.807C328.311 384.606 328.3 384.405 328.286 384.204C326.758 382.188 325.22 379.881 323.277 378.254C321.211 376.523 318.566 374.965 315.764 375.306C310.421 375.955 303.494 385.475 300.484 389.712Z"/>
	<path fill="#D1CAF8" d="M260.397 283.79L263.211 285.106C264.727 285.825 265.707 286.436 267.454 286.297C268.941 285.399 268.937 284.869 269.582 283.301C269.674 283.343 269.76 283.404 269.859 283.427C269.939 283.447 270.024 283.429 270.107 283.429C270.84 284.233 271.155 284.908 271.388 285.95C273.629 295.969 273.824 310.24 274.606 320.72C276.656 347.781 278.281 374.872 279.481 401.984C275.809 401.949 272.112 401.631 268.445 401.418L267.764 401.302C266.826 400.245 266.768 399.51 266.611 398.089C265.851 391.214 265.953 383.847 265.508 376.903C264.32 359.468 263.326 342.021 262.525 324.564C261.9 310.983 261.618 297.331 260.397 283.79Z"/>
	<path fill="#9F8BE8" d="M491.337 364.638C490.103 353.323 491.015 342.063 492.302 330.806C498.598 335.716 505.108 340.572 512.135 344.385C519.618 348.445 527.574 351.697 534.935 355.959C555.654 367.955 561.43 386.202 567.26 408.121C567.779 410.073 567.866 411.109 569.659 412.151C571.053 412.085 571.812 411.71 572.78 410.731C575.315 408.165 577.174 404.443 578.777 401.247C585.807 387.234 588.734 372.96 588.387 357.322C590.921 353.035 594.187 348.227 598.538 345.631C602.597 343.209 606.799 343.524 611.205 344.756C622.077 347.798 630.214 356.281 635.498 365.947C641.062 376.128 643.71 388.798 643.006 400.364C642.736 404.806 641.729 409.339 641.82 413.778C642.06 425.544 643.408 436.786 641.612 448.573C640.234 457.619 637.044 466.06 634.516 474.806C645.023 484.354 660.816 491.349 673.358 497.982C667.527 503.568 660.794 508.384 654.803 513.877C649.743 518.248 645.184 523.165 641.208 528.54C638.539 532.087 636.03 536.189 632.851 539.284C632.355 539.767 631.6 539.874 630.923 539.955C626.11 540.534 622.112 543.642 617.691 545.753C605.496 551.576 585.997 558.772 572.422 555.721C562.342 553.456 556.696 543.217 555.047 533.74C554.2 528.872 554.158 521.467 551.251 517.303C547.997 512.641 538.975 511.166 536.752 505.974C535.372 502.75 539.904 500.971 541.062 498.209C541.319 491.272 530.142 492.892 528.442 487.086C526.268 479.665 531.341 468.183 527.672 461.724C523 458.646 519.82 467.709 514.984 467.682C511.257 467.661 507.195 465.178 504.634 462.629C502.885 460.887 501.532 458.851 501.526 456.314C501.512 450.735 504.384 444.566 506.169 439.32C510.732 425.92 516.847 410.165 516.746 395.883C516.728 393.449 516.302 389.068 514.05 387.494C512.54 386.438 510.325 387.223 508.556 387.393C502.469 385.299 495.803 377.249 492.137 372.108C498.626 371.005 506.822 372.141 512.876 370.507C514.404 370.095 515.735 369.357 516.543 367.968C516.361 366.986 516.556 367.102 515.936 366.507C512.109 362.837 496.683 364.571 491.337 364.638ZM602.743 360.954C602.267 362.475 601.909 363.514 602.244 365.132C604.012 367.304 608.751 367.619 611.462 368.845C625.247 375.082 631.87 391.212 630.567 405.716C629.788 414.398 624.184 433.058 617.217 438.591C616.303 439.316 615.088 439.916 613.888 439.685C613.284 439.568 612.621 439.207 612.058 438.951C610.266 438.134 608.978 437.688 607.002 437.569C605.836 438.096 605.775 437.981 605.317 439.154C605.671 441.148 606.727 442.405 608.264 443.664C611.289 444.943 614.021 445.439 617.178 444.223C623.775 441.682 627.603 433.656 630.091 427.487C635.689 413.607 638.184 397.572 632.163 383.384C628.452 374.637 621.438 366.536 612.475 362.979C609.365 361.77 606.077 361.086 602.743 360.954ZM599.721 371.202C599.334 372.744 598.855 373.64 599.763 375.11C601.206 377.448 603.923 379.609 605.832 381.579C611.986 387.924 615.614 396.3 614.136 405.27C613.825 407.157 613.351 409.283 612.499 411.011C611.063 413.925 606.7 418.533 607.448 421.842C608.629 422.783 609.476 422.825 610.985 422.796C616.501 417.914 619.341 410.389 619.813 403.124C620.421 393.757 616.594 384.747 610.423 377.812C607.769 374.83 603.852 371.499 599.721 371.202Z"/>
	<path d="M608.264 443.664C606.727 442.405 605.671 441.148 605.317 439.154C605.775 437.981 605.836 438.096 607.002 437.569C608.978 437.688 610.266 438.134 612.058 438.951C612.621 439.207 613.284 439.568 613.888 439.685C615.088 439.916 616.303 439.316 617.217 438.591C624.184 433.058 629.788 414.398 630.567 405.716C631.87 391.212 625.247 375.082 611.462 368.845C608.751 367.619 604.012 367.304 602.244 365.132C601.909 363.514 602.267 362.475 602.743 360.954C606.077 361.086 609.365 361.77 612.475 362.979C621.438 366.536 628.452 374.637 632.163 383.384C638.184 397.572 635.689 413.607 630.091 427.487C627.603 433.656 623.775 441.682 617.178 444.223C614.021 445.439 611.289 444.943 608.264 443.664Z"/>
	<path d="M610.985 422.796C609.476 422.825 608.629 422.783 607.448 421.842C606.7 418.533 611.063 413.925 612.499 411.011C613.351 409.283 613.825 407.157 614.136 405.27C615.614 396.3 611.986 387.924 605.832 381.579C603.923 379.609 601.206 377.448 599.763 375.11C598.855 373.64 599.334 372.744 599.721 371.202C603.852 371.499 607.769 374.83 610.423 377.812C616.594 384.747 620.421 393.757 619.813 403.124C619.341 410.389 616.501 417.914 610.985 422.796Z"/>
	<path fill="#6D60AB" d="M823.289 484.163C832.452 481.524 841.51 478.021 850.52 474.867C870.323 467.888 890.06 460.724 909.728 453.373C947.879 439.22 986.165 425.556 1024 410.539L1024 629.187C1019.98 622.889 1016.29 616.269 1011.73 610.338C1009.31 607.196 1005.74 604.594 1003.67 601.264C1000.57 596.265 999.184 590.27 995.902 585.164C981.22 562.314 957.463 551.596 931.756 546.073C927.471 541.977 923.942 537.033 920.39 532.307C912.74 522.125 905.226 511.322 895.502 502.983C878.673 488.55 849.752 491.55 828.987 493.075L823.289 484.163Z"/>
	<path fill="#D1CAF8" d="M213.875 460.244C207.394 457.786 201.458 454.611 196.673 449.492C194.15 446.792 191.66 443.411 191.941 439.517C192.162 436.459 194.286 434.756 196.452 432.874C196.709 433.08 196.988 433.262 197.224 433.493C200.139 436.349 202.133 441.34 204.52 444.757C206.978 448.273 209.897 451.525 212.533 454.915C213.696 456.41 215.942 458.719 215.762 460.654L213.875 460.244Z"/>
	<path fill="#9F8BE8" d="M637.798 542.373C639.685 538.901 642.207 535.73 644.665 532.645C678.014 490.795 734.266 463.633 786.861 457.697C788.832 457.298 791.167 457.399 793.192 457.28C804.798 467.796 814.417 480.739 822.935 493.783C768.448 498.065 711.745 517.888 664.744 545.42L650.214 554.549L637.798 542.373Z"/>
	<path fill="#9F8BE8" d="M587.43 609.872C597.757 600.237 609.397 591.165 620.546 582.518C686.909 531.049 756.71 502.747 841.035 497.711C848.036 496.983 855.676 497.17 862.714 497.559C886.004 498.847 894.059 507.25 907.884 525.054C915.012 534.235 922.132 543.367 929.593 552.285C933.481 556.932 937.832 563.525 943.276 566.31L944.728 565.412C944.675 563.104 943.703 560.651 942.419 558.75L939.229 554.043C947.829 555.929 962.847 560.268 968.677 567.157C973.096 572.379 975.886 579.983 978.221 586.312C981.4 594.932 984.046 604.05 984.774 613.244C986.964 640.92 974.848 679.811 965.556 705.716C964.072 709.854 955.675 729.005 955.609 731.382C955.59 732.066 955.638 731.924 956.093 732.448C957.01 732.681 957.46 732.72 958.397 732.445C960.301 731.888 961.841 729.92 962.647 728.205C964.922 723.367 966.563 717.797 968.451 712.767C978.826 685.138 993.244 641.023 990.092 611.419C988.675 598.113 983.466 585.579 978.736 573.181C983.303 577.567 987.748 582.44 991.127 587.811C1006.19 611.759 1010.17 693.942 1008.36 722.812C1007.33 739.216 1004.48 755.711 1000.71 771.693C989.525 819.131 971.346 856.2 935.892 890.109C928.984 896.715 921.511 904.372 913.354 909.419C896.851 907.081 879.942 897.363 865.641 889.083C828.683 867.684 795.481 839.162 764.881 809.562C722.715 768.773 633.087 664.314 581.899 646.995C566.1 641.65 554.874 646.428 540.623 653.427C546.798 639.01 558.002 625.959 572.772 620.032C598.129 609.855 629.022 619.424 653.021 629.75C689.803 645.875 724.622 665.588 760.179 684.154C771.682 690.161 783.108 696.395 794.885 701.85C836.003 720.894 888.323 743.312 933.762 747.04C937.449 747.343 945.715 748.538 949.022 746.89C950.123 746.342 950.523 745.574 950.947 744.484L950.396 743.458C948.987 742.668 947.819 742.324 946.214 742.115C941.505 741.504 936.525 741.869 931.77 741.588C924.918 741.183 917.887 739.868 911.163 738.517C889.306 734.128 867.875 726.345 847.117 718.342C809.207 703.725 773.185 684.967 737.377 665.905C708.066 650.301 678.526 633.069 647.344 621.42C635.851 617.126 624.082 613.899 612.158 611.062C643.008 606.251 673.958 609.645 704.417 615.611C718.793 618.427 733.015 621.868 747.456 624.39C785.633 631.056 822.745 633.732 861.333 629.167C869.846 628.16 885.676 626.727 892.92 623.013C894.179 622.367 895.229 621.747 895.719 620.358L895.206 619.56C893.898 618.843 892.535 618.72 891.063 618.726C887.642 618.739 883.649 620.179 880.24 620.871C874.962 621.908 869.654 622.793 864.324 623.524C842.47 626.442 820.38 627.191 798.378 625.761C778.25 624.421 757.508 621.027 737.752 617.097C705.33 610.648 672.596 602.421 639.292 603.029C621.723 603.349 604.72 607.133 587.43 609.872ZM854.196 530.928L854.072 531.375C853.758 532.511 853.53 533.037 853.868 534.23C855.43 539.751 866.38 558.001 869.685 564.644C874.203 573.723 878.002 583.116 881.896 592.472C883.772 596.98 885.39 602.017 887.84 606.216C888.214 606.857 888.587 607.158 889.237 607.493L891.916 607.613C892.083 607.011 892.397 606.432 892.417 605.808C892.648 598.725 865.957 545.098 861.507 537.224C860.524 535.486 858.896 531.802 857.043 530.936L854.196 530.928ZM941.086 574.343C936.46 586.957 930.54 597.068 919.581 605.36C916.189 607.926 907.499 611.324 907.229 615.799C907.874 616.714 908.177 617.009 909.243 617.369L910.747 617.063C925.536 609.393 939.292 596.629 944.608 580.385C945.139 578.764 945.237 577.535 944.976 575.862C944.132 574.75 943.986 574.683 942.539 574.455C942.108 574.387 941.534 574.366 941.086 574.343ZM907.613 629.107C906.581 630.144 905.63 630.671 905.587 632.25C905.471 636.465 912.128 646.514 914.013 650.846C921.533 668.126 928.927 685.546 934.381 703.607C935.872 708.544 939.879 728.104 942.012 730.213L943.348 730.696C944.787 728.997 945.219 728.439 945.042 726.11C943.387 704.248 925.486 662.584 915.906 642.392C914.229 638.857 911.782 631.88 908.818 629.442L907.613 629.107ZM958.658 757.702C957.989 758.638 957.657 759.237 957.618 760.406C957.469 764.964 958.365 769.797 958.64 774.369C959.183 783.399 958.872 792.923 957.731 801.886C955.061 822.853 947.826 841.436 937.441 859.7C934.229 865.348 924.725 878.573 923.791 884.062L924.253 884.909C925.262 884.831 925.418 884.762 926.252 884.186C950.801 857.401 965.897 813.887 964.36 777.868C964.178 773.617 964.369 760.887 961.023 758.279C960.406 757.798 959.408 757.821 958.658 757.702Z"/>
	<path d="M891.916 607.613L889.237 607.493C888.587 607.158 888.214 606.857 887.84 606.216C885.39 602.017 883.772 596.98 881.896 592.472C878.002 583.116 874.203 573.723 869.685 564.644C866.38 558.001 855.43 539.751 853.868 534.23C853.53 533.037 853.758 532.511 854.072 531.375L854.196 530.928L857.043 530.936C858.896 531.802 860.524 535.486 861.507 537.224C865.957 545.098 892.648 598.725 892.417 605.808C892.397 606.432 892.083 607.011 891.916 607.613Z"/>
	<path fill="#D1CAF8" d="M169.698 538.067C171.935 539.3 174.287 540.311 176.721 541.085C190.779 545.516 209.145 544.066 224.068 544.638C245.922 545.476 267.837 548.078 289.654 545.107C298.754 543.868 306.876 541.272 314.968 536.959C315.902 540.638 315.654 545.133 316.253 549.002C314.241 550.504 312.226 551.801 309.912 552.786C280.421 565.339 202.152 563.516 171.611 551.055L168.257 549.047C168.49 545.375 169.156 541.705 169.698 538.067Z"/>
	<path fill="#6D60AB" d="M303.68 682.007C312.311 679.796 321.145 675.883 329.564 672.834L372.429 657.72C436.241 635.029 499.852 611.779 563.255 587.97L612.17 569.747C620.984 566.542 630.728 562.243 640.019 560.78L639.619 561.124C629.316 569.859 617.813 577.438 607.281 585.984C597.621 593.822 588.866 602.711 579.273 610.526C574.981 614.023 569.372 615.217 564.585 617.876C550.442 625.732 538.511 641.056 534.529 656.736C519.551 667.039 505.119 675.81 492.778 689.42C470.02 714.517 453.823 742.857 438.423 772.799C412.727 822.967 391.593 875.344 375.277 929.297C371.467 941.645 368.259 954.187 364.726 966.617C359.641 984.509 352.544 1006.05 349.188 1024L0 1024L0 786.976C36.0161 774.604 71.6315 761.094 107.58 748.521C126.48 742.006 145.331 735.352 164.133 728.559C167.486 727.333 174.466 725.52 177.076 723.651C177.409 723.412 177.532 722.97 177.76 722.629C179.102 726.455 179.06 732.386 179.567 736.504C181.827 754.288 183.705 772.119 185.199 789.985C185.615 795.398 185.094 802.271 186.567 807.399C188.046 808.091 189.846 807.609 191.418 807.421C190.783 785.04 188.327 762.693 185.578 740.49C183.799 726.119 182.076 711.693 179.767 697.395C171.971 649.11 161.646 604.42 167.584 554.919C200.289 566.827 256.902 569.356 290.998 563.397C298.387 562.106 305.424 560.06 312.467 557.526C312.564 572.411 312.451 587.263 311.268 602.112C306.778 658.499 291.278 713.667 272.092 766.642C272.512 759.221 273.578 751.79 274.308 744.388C275.768 729.601 277.156 714.739 278.05 699.907C279.62 673.854 279.276 647.753 280.244 621.69C282.993 618.803 285.94 615.815 288.028 612.402C289.184 610.513 290.523 607.883 289.863 605.618C289.608 604.745 289.315 604.833 288.576 604.462C287.547 604.7 286.761 605.01 286.024 605.805C284.56 607.384 283.568 609.67 282.249 611.414C280.189 614.137 277.465 616.558 275.028 618.953C274.853 650.983 273.668 683 271.474 714.955C270.168 730.07 268.737 745.174 267.182 760.265C266.339 770.198 265.341 780.117 264.188 790.019C263.65 794.372 262.612 798.697 262.162 803.038C262.044 804.181 261.987 805.691 262.409 806.784C262.925 808.122 263.194 808.276 264.386 808.912L265.678 808.4C268.791 804.729 269.143 788.639 271.075 782.464C274.282 772.209 279.192 762.075 283.076 752.017C288.898 736.936 293.596 721.329 297.878 705.75C300.016 697.971 302.404 689.979 303.68 682.007Z"/>
	<path d="M910.747 617.063L909.243 617.369C908.177 617.009 907.874 616.714 907.229 615.799C907.499 611.324 916.189 607.926 919.581 605.36C930.54 597.068 936.46 586.957 941.086 574.343C941.534 574.366 942.108 574.387 942.539 574.455C943.986 574.683 944.132 574.75 944.976 575.862C945.237 577.535 945.139 578.764 944.608 580.385C939.292 596.629 925.536 609.393 910.747 617.063Z"/>
	<path fill="#9F8BE8" d="M1005.02 610.186C1011.5 619.766 1017.82 629.445 1024 639.219L1024 762.743C1020.27 750.494 1019.02 735.549 1014.07 723.877C1013.9 714.637 1014.53 705.357 1014.34 696.091C1013.99 667.224 1010.87 638.458 1005.02 610.186Z"/>
	<path d="M943.348 730.696L942.012 730.213C939.879 728.104 935.872 708.544 934.381 703.607C928.927 685.546 921.533 668.126 914.013 650.846C912.128 646.514 905.471 636.465 905.587 632.25C905.63 630.671 906.581 630.144 907.613 629.107L908.818 629.442C911.782 631.88 914.229 638.857 915.906 642.392C925.486 662.584 943.387 704.248 945.042 726.11C945.219 728.439 944.787 728.997 943.348 730.696Z"/>
	<path fill="#9F8BE8" d="M518.434 674.957C528.302 666.082 552.012 651.498 565.058 650.116C585.886 647.911 612.835 670.675 628.399 683.111C620.285 690.905 601.294 700.942 590.878 707.177C584.567 710.955 578.458 715.168 572.078 718.806C557.209 700.801 541.34 682.496 518.434 674.957Z"/>
	<path fill="#9F8BE8" d="M513.245 678.187C531.353 684.869 545.442 696.004 558.247 710.245C541.364 738.373 525.438 767.116 509.063 795.54L448.077 899.108L392.635 990.548C385.979 1001.66 378.841 1012.62 372.659 1024L355.2 1024C359.876 1003.4 365.649 983.263 371.391 962.956C390.374 895.822 412.832 833.024 445.138 771.082C457.046 748.249 469.735 725.671 485.951 705.559C494.122 695.426 503.208 686.455 513.245 678.187Z"/>
	<path fill="#6D60AB" d="M628.399 683.111C634.894 687.732 640.584 693.618 646.321 699.13C630.903 707.893 616.059 718.095 601.2 727.789C596.113 731.107 589.531 734.338 585.106 738.431C581.119 731.649 576.655 725.197 572.078 718.806C578.458 715.168 584.567 710.955 590.878 707.177C601.294 700.942 620.285 690.905 628.399 683.111Z"/>
	<path fill="#9F8BE8" d="M585.106 738.431C589.531 734.338 596.113 731.107 601.2 727.789C616.059 718.095 630.903 707.893 646.321 699.13C652.834 704.941 659.437 710.679 665.809 716.644C661.808 727.417 656.916 737.908 652.608 748.57C646.406 764.234 640.108 779.86 633.714 795.447C631.019 802.029 627.641 813.306 623.204 818.656C612.765 790.67 599.876 764.357 585.106 738.431Z"/>
	<path fill="#6D60AB" d="M558.247 710.245C563.138 715.976 569.609 722.323 572.593 729.333C569.271 734.022 566.715 739.394 564.016 744.459C559.617 752.836 555.114 761.158 550.507 769.423C534.332 798.021 517.488 826.298 501 854.719C478.215 893.763 455.113 932.621 431.696 971.289C421.03 988.895 409.356 1006.02 399.343 1024L372.659 1024C378.841 1012.62 385.979 1001.66 392.635 990.548L448.077 899.108L509.063 795.54C525.438 767.116 541.364 738.373 558.247 710.245Z"/>
	<path fill="#6D60AB" d="M665.809 716.644C671.895 722.267 677.958 728.047 683.488 734.222C676.231 748.289 670.741 763.93 664.788 778.614C654.825 803.605 644.55 828.47 633.967 853.205C630.79 841.565 627.2 830.041 623.204 818.656C627.641 813.306 631.019 802.029 633.714 795.447C640.108 779.86 646.406 764.234 652.608 748.57C656.916 737.908 661.808 727.417 665.809 716.644Z"/>
	<path fill="#6D60AB" d="M1014.07 723.877C1019.02 735.549 1020.27 750.494 1024 762.743L1024 942.31C1022.65 938.364 1022.65 932.882 1022.23 928.7L1018.96 893.258C1014.92 853.499 1009.71 813.809 1006.3 773.989L1005.7 773.687C1005.71 773.642 1005.71 773.596 1005.72 773.553C1007.22 768.915 1007.77 763.774 1008.6 758.969C1010.63 747.279 1012.26 735.595 1014.07 723.877Z"/>
	<path fill="#9F8BE8" d="M572.593 729.333C582.497 741.343 598.188 772.111 604.126 786.706C600.462 792.692 597.607 799.319 594.511 805.628L578.058 838.9L516.102 962.229C508.984 976.316 501.745 990.34 494.385 1004.3C490.981 1010.81 487.828 1017.73 484.028 1024L399.343 1024C409.356 1006.02 421.03 988.895 431.696 971.289C455.113 932.621 478.215 893.763 501 854.719C517.488 826.298 534.332 798.021 550.507 769.423C555.114 761.158 559.617 752.836 564.016 744.459C566.715 739.394 569.271 734.022 572.593 729.333Z"/>
	<path fill="#9F8BE8" d="M633.967 853.205C644.55 828.47 654.825 803.605 664.788 778.614C670.741 763.93 676.231 748.289 683.488 734.222C695.101 745.767 706.073 757.91 717.698 769.455C717.203 778.309 716.117 787.142 715.336 795.976C712.768 824.321 709.894 852.637 706.713 880.919C701.79 928.606 697.678 976.436 691.639 1024L640.003 1024C641.514 1011.04 642.079 997.802 642.811 984.769C644.655 951.945 645.564 918.554 640.87 885.901C639.284 874.861 636.389 864.077 633.967 853.205Z"/>
	<path d="M926.252 884.186C925.418 884.762 925.262 884.831 924.253 884.909L923.791 884.062C924.725 878.573 934.229 865.348 937.441 859.7C947.826 841.436 955.061 822.853 957.731 801.886C958.872 792.923 959.183 783.399 958.64 774.369C958.365 769.797 957.469 764.964 957.618 760.406C957.657 759.237 957.989 758.638 958.658 757.702C959.408 757.821 960.406 757.798 961.023 758.279C964.369 760.887 964.178 773.617 964.36 777.868C965.897 813.887 950.801 857.401 926.252 884.186Z"/>
	<path fill="#6D60AB" d="M717.698 769.455C724.789 776.723 732.918 783.87 739.212 791.793C736.464 813.118 734.596 834.49 732.318 855.861C729.541 880.023 726.98 904.209 724.636 928.417C722.838 948.99 720.826 969.543 718.601 990.074C717.475 1001.37 716.636 1012.73 715.214 1024L691.639 1024C697.678 976.436 701.79 928.606 706.713 880.919C709.894 852.637 712.768 824.321 715.336 795.976C716.117 787.142 717.203 778.309 717.698 769.455Z"/>
	<path fill="#9F8BE8" d="M1005.7 773.687L1006.3 773.989C1009.71 813.809 1014.92 853.499 1018.96 893.258L1022.23 928.7C1022.65 932.882 1022.65 938.364 1024 942.31L1024 1024L949.606 1024C949.781 1009.42 951.231 994.621 952.012 980.033C953.269 956.891 954.38 933.741 955.346 910.584C955.899 899.289 956.77 888.007 957.2 876.706C959.014 871.857 971.381 857.75 975.049 851.705C989.551 827.805 998.559 800.559 1005.7 773.687Z"/>
	<path fill="#6D60AB" d="M604.126 786.706C607.3 794.049 613.702 806.583 615.401 813.842C611.797 820.484 608.79 827.516 605.556 834.347C601.198 843.474 596.742 852.554 592.188 861.585L532.959 978.878C525.368 993.825 518.522 1009.5 510.156 1024L484.028 1024C487.828 1017.73 490.981 1010.81 494.385 1004.3C501.745 990.34 508.984 976.316 516.102 962.229L578.058 838.9L594.511 805.628C597.607 799.319 600.462 792.692 604.126 786.706Z"/>
	<path fill="#9F8BE8" d="M715.214 1024C716.636 1012.73 717.475 1001.37 718.601 990.074C720.826 969.543 722.838 948.99 724.636 928.417C726.98 904.209 729.541 880.023 732.318 855.861C734.596 834.49 736.464 813.118 739.212 791.793C758.165 811.495 778.614 830.807 799.573 848.398C808.145 855.592 817.628 861.8 826.034 869.125C825.612 884.456 824.097 899.815 823.144 915.127C820.647 951.399 818.465 987.691 816.598 1024L715.214 1024Z"/>
	<path fill="#9F8BE8" d="M510.156 1024C518.522 1009.5 525.368 993.825 532.959 978.878L592.188 861.585C596.742 852.554 601.198 843.474 605.556 834.347C608.79 827.516 611.797 820.484 615.401 813.842C624.6 837.855 635.193 871.982 636.528 897.846C634.055 902.54 632.142 907.617 630.016 912.479C625.106 923.659 620.354 934.908 615.761 946.222C605.136 971.968 594.152 997.86 584.544 1024L510.156 1024Z"/>
	<path fill="#6D60AB" d="M826.034 869.125C833.609 874.212 841.307 879.527 848.479 885.171C845.397 905.654 845.187 926.852 843.873 947.521C842.256 972.972 839.826 998.533 838.902 1024L816.598 1024C818.465 987.691 820.647 951.399 823.144 915.127C824.097 899.815 825.612 884.456 826.034 869.125Z"/>
	<path fill="#6D60AB" d="M935.359 898.562C942.921 891.539 949.752 883.817 957.2 876.706C956.77 888.007 955.899 899.289 955.346 910.584C954.38 933.741 953.269 956.891 952.012 980.033C951.231 994.621 949.781 1009.42 949.606 1024L928.951 1024C930.703 999.26 931.124 974.369 932.545 949.593C933.082 939.927 933.684 930.264 934.352 920.606C934.858 913.311 935.693 905.874 935.359 898.562Z"/>
	<path fill="#9F8BE8" d="M848.479 885.171C868.234 897.618 891.344 911.461 914.783 915.061C922.073 910.333 928.847 904.298 935.359 898.562C935.693 905.874 934.858 913.311 934.352 920.606C933.684 930.264 933.082 939.927 932.545 949.593C931.124 974.369 930.703 999.26 928.951 1024L838.902 1024C839.826 998.533 842.256 972.972 843.873 947.521C845.187 926.852 845.397 905.654 848.479 885.171Z"/>
	<path fill="#6D60AB" d="M584.544 1024C594.152 997.86 605.136 971.968 615.761 946.222C620.354 934.908 625.106 923.659 630.016 912.479C632.142 907.617 634.055 902.54 636.528 897.846C638.364 913.105 638.694 928.521 638.874 943.871C638.937 949.287 639.482 955.295 638.565 960.621C638.399 955.629 638.6 950.596 638.332 945.617C631.377 963.897 624.267 982.118 617.003 1000.28C613.836 1008.14 610.935 1016.31 607.396 1024L584.544 1024Z"/>
	<path fill="#9F8BE8" d="M638.332 945.617C638.6 950.596 638.399 955.629 638.565 960.621C638.224 981.747 636.459 1002.94 634.886 1024L607.396 1024C610.935 1016.31 613.836 1008.14 617.003 1000.28C624.267 982.118 631.377 963.897 638.332 945.617Z"/>
</svg>
