<?xml version="1.0" encoding="utf-8" ?>
<svg xmlns="http://www.w3.org/2000/svg" xmlns:xlink="http://www.w3.org/1999/xlink" width="1024" height="1024">
	<path fill="#9F8BE8" d="M0 0L1024 0L1024 1024L690.743 1024L0 1024L0 523.49L0 0Z"/>
	<path fill="#020201" d="M455.198 77.9831L455.417 77.3539C457.299 71.7892 457.399 58.4762 460.139 54.9615C464.129 53.4862 467.442 58.1872 471.82 55.3983C477.437 51.8199 482.244 38.9665 486.548 33.1979C500.455 14.5555 529.194 11.913 549.303 21.2073C558.254 25.3445 566.048 32.2987 569.444 41.7532C569.881 42.9698 570.205 44.246 570.535 45.4941C578.413 48.1303 583.566 53.7372 587.173 61.0678C594.009 74.9612 595.358 93.1449 590.228 107.784C586.253 119.127 578.178 128.523 567.236 133.652C564.454 134.956 560.25 136.699 557.207 135.485C555.463 134.79 554.855 133.257 554.2 131.645C551.749 131.968 548.165 135.263 546.351 136.985C545.538 140.442 545.154 150.404 542.027 152.069C538.447 153.975 531.777 152.261 527.543 153.331C517.244 155.933 510.772 168.412 498.723 162.327C491.517 158.689 488.959 151.549 483.37 146.981C482.659 147.27 481.891 147.301 481.616 148.07C480.674 150.704 480.825 154.11 480.198 156.921C478.591 164.118 475.667 170.868 472.351 177.422C472.811 179.479 473.148 181.345 472.882 183.455C471.664 193.13 467.79 202.891 464.962 212.232Q460.899 225.889 458.038 239.847Q454.884 254.655 453.009 269.678C452.119 276.974 451.724 284.325 450.592 291.59C454.251 299.395 459.122 306.763 463.467 314.213Q475.479 334.519 487.048 355.081Q493.154 365.774 498.803 376.716C501.195 381.372 503.361 386.917 506.432 391.13C513.698 401.102 528.715 406.987 534.624 417.763C537.455 422.924 536.942 429.122 539.608 434.153C544.659 443.687 553.133 451.002 557.412 461.215C564.82 478.898 558.849 483.671 572.566 501.818C574.882 500.911 576.89 499.917 579.323 501.05C580.284 501.497 581.127 502.16 581.841 502.939C584.05 505.35 585.613 508.366 587.631 510.94C593.124 517.944 598.773 525.256 604.541 532.014C606.703 534.546 609.305 536.761 611.773 538.989L644.518 568.204C655.953 578.439 667.476 588.999 679.76 598.2C697.042 611.144 715.909 621.672 733.535 634.072C736.054 631.974 738.374 629.853 740.613 627.457C738.218 622.526 736.244 614.465 732.325 610.731C723.523 602.343 696.796 599.349 703.646 580.512C705.129 576.432 708.24 572.927 710.363 569.152C712.026 566.195 712.933 562.595 713.916 559.359C714.537 557.314 716.068 555.742 717.427 554.142C715.878 551.382 714.231 547.729 715.375 544.504C716.376 541.678 719.523 540.303 722.124 539.382C725.743 538.1 729.848 537.667 733.052 535.44C738.097 531.933 740.997 524.69 745.26 520.159C748.751 516.447 754.163 514.515 757.325 510.733C757.028 506.44 757.071 504.898 760.004 501.536C765.066 495.736 771.258 492.026 779.103 491.54C788.312 490.971 796.332 495.468 803.006 501.36C820.396 503.207 838.787 515.039 849.603 528.461C859.874 541.207 865.553 558.018 863.781 574.418C862.528 586.011 857.436 598.58 850.302 607.811C865.138 611.136 878.634 616.6 887.043 630.087Q887.592 630.971 888.097 631.881Q888.601 632.791 889.059 633.725Q889.517 634.659 889.928 635.615Q890.339 636.57 890.702 637.545Q891.064 638.521 891.378 639.513Q891.691 640.505 891.955 641.511Q892.218 642.518 892.431 643.536Q892.644 644.554 892.806 645.582Q892.968 646.61 893.078 647.644Q893.188 648.679 893.246 649.718Q893.305 650.756 893.311 651.797Q893.317 652.837 893.271 653.876Q893.226 654.916 893.128 655.952Q893.031 656.987 892.881 658.017Q892.732 659.047 892.532 660.068Q892.331 661.089 892.08 662.098C889.813 671.484 884.018 678.455 875.815 683.338C873.797 684.539 871.736 685.519 869.572 686.427C874.706 691.982 878.146 699.938 877.943 707.578C877.806 712.741 875.925 717.266 873.021 721.465C875.55 730.815 872.31 742.247 867.63 750.467C865.224 754.694 862.197 758.241 858.587 761.48C862.588 772.418 867.345 783.127 870.771 794.261C877.544 816.274 880.07 844.675 870.096 866.162C867.946 870.793 865.125 874.303 861.56 877.911C861.626 878.091 861.691 878.272 861.759 878.451C866.241 890.176 904.073 959.681 901.631 964.827C901.128 965.885 900.482 966.235 899.555 966.893C893.634 967.126 883.142 960.766 877.507 958.089C881.936 971.541 887.298 984.693 891.926 998.083C893.318 1002.11 895.253 1006.46 896.206 1010.58C896.523 1011.96 896.478 1013 896.167 1014.36C895.312 1015.4 894.957 1015.86 893.513 1016.06C892.236 1016.23 890.926 1015.89 890.025 1014.95C889.14 1014.03 869.163 960.075 867.393 954.45C832.597 941.595 805.251 934.25 769.439 950.753C758.826 955.644 738.968 967.617 730.576 975.582C730.388 981.968 730.662 1008.3 728.355 1012.3C727.296 1013.08 726.081 1013.7 724.712 1013.51C723.469 1013.33 722.97 1013.01 722.353 1011.92C719.956 1007.67 723.861 983.62 721.978 979.806C721.573 978.987 720.952 978.867 720.214 978.525C719.166 978.041 718.479 977.736 718.035 976.59C716.623 972.953 716.416 962.282 715.901 957.676C713.887 939.655 712.441 921.319 707.664 903.766C705.992 904.61 704.342 905.477 702.586 906.136C703.921 911.896 707.844 922.612 708.439 927.419C708.567 928.455 708.387 929.119 707.865 930.002C706.655 930.668 706.511 930.717 705.138 930.619C699.264 926.706 701.641 914.284 695.203 909.998L694.644 910.293C693.783 917.589 702.152 929.883 699.073 935.367C697.957 936.014 697.941 936.036 696.668 935.859C691.558 931.961 690.638 915.259 688.138 913.591C687.802 913.367 687.332 913.638 686.93 913.661C686.434 914.079 685.732 914.398 685.661 915.086C685.094 920.576 693.837 933.195 690.656 938.897C689.59 939.483 689.427 939.455 688.201 939.367C687.309 938.787 686.88 938.414 686.367 937.454C684.23 933.458 678.659 914.936 677.696 910.327C675.166 898.209 673.847 885.386 672.713 873.064C669.073 833.528 668.223 789.661 682.29 751.921C686.165 741.527 690.995 731.045 696.439 721.372C699.247 716.382 702.789 711.552 705.264 706.428C673.586 681.721 641.206 657.184 614.562 626.905C604.927 615.956 595.303 604.382 586.503 592.753C579.192 583.091 572.419 572.947 564.576 563.693C562.809 561.609 560.102 560.7 558.084 558.89C550.304 551.912 542.235 542.871 537.39 533.636C539.705 528.829 538.936 524.045 540.95 519.256C531.959 509.449 522.531 507.223 513.92 495.51C510.86 491.348 508.112 486.946 505.146 482.715C494.678 467.78 490.41 461.477 483.846 444.096C480.017 433.957 478.192 422.103 472.46 412.898C465.982 402.492 456.581 393.097 449.013 383.368C443.476 376.249 438.218 368.914 432.724 361.762C419.884 345.045 406.826 328.209 395.177 310.639C389.034 301.373 386.256 291.003 382.867 280.541C378.666 299.897 373.766 318.911 368.888 338.095C364.509 355.316 360.28 372.577 355.047 389.566C355.097 389.773 355.145 389.98 355.198 390.185C357.467 398.989 361.618 407.835 364.903 416.319C373.133 437.572 381.617 458.779 389.327 480.227C392.823 489.95 397.024 500.168 399.009 510.296C401.034 520.627 381.793 722.255 379.789 725.245C378.791 726.734 376.052 727.736 374.48 728.429C373.301 733.575 372.256 738.965 371.868 744.24C382.328 763.348 401.071 782.684 417.11 797.139C423.677 803.057 431.979 808.531 437.242 815.651C439.225 818.334 439.708 821.963 440.452 825.156C467.819 835.186 493.291 850.205 517.509 866.271Q526.571 872.319 535.457 878.621Q544.344 884.924 553.048 891.477Q561.751 898.03 570.265 904.828Q578.779 911.626 587.096 918.663Q595.413 925.7 603.526 932.971Q611.64 940.242 619.544 947.74Q627.447 955.239 635.134 962.959Q642.821 970.679 650.286 978.615C664.213 993.286 677.493 1008.72 690.743 1024L0 1024L0 523.49C14.7778 539.502 30.8053 554.482 46.6177 569.465C68.8368 590.518 91.1054 611.131 115.153 630.115Q135.919 646.491 157.144 662.268C160.917 665.049 166.049 667.052 169.461 670.071C187.909 632.294 204.418 593.573 223.676 556.184C226.808 550.104 229.946 543.916 233.541 538.096C236.52 533.273 240.16 528.652 242.844 523.683Q233.154 493.186 224.016 462.52C213.287 427.282 195.344 371.849 197.157 335.533C198.142 315.809 204.504 297.212 212.946 279.538C202.154 281.001 191.103 282.641 181.714 275.658C174.119 270.009 169.413 260.589 168.261 251.303C166.005 233.122 177.935 216.745 187.822 202.694C186.87 187.622 195.123 171.21 204.837 160.15C213.266 150.554 223.961 143.151 234.394 135.913C280.451 103.958 336.045 83.1913 392.192 79.6507C402.025 79.0307 411.734 79.9115 421.512 79.6366C425.6 79.5217 429.735 78.2104 433.812 78.4355C435.527 78.5302 437.27 78.8936 438.599 80.059C439.501 80.8493 440.257 81.8665 441.005 82.7997C446.123 81.6712 450.569 80.4648 455.198 77.9831Z"/>
	<path fill="#DCD7F7" d="M0 523.49C14.7778 539.502 30.8053 554.482 46.6177 569.465C68.8368 590.518 91.1054 611.131 115.153 630.115Q135.919 646.491 157.144 662.268C160.917 665.049 166.049 667.052 169.461 670.071Q165.556 679.055 161.063 687.759C158.841 692.117 156.172 696.512 154.505 701.109C155.541 703.179 156.534 705.233 157.818 707.165C154.825 711.516 151.822 715.909 148.227 719.794C142.936 718.804 139.629 719.209 135.032 722.43C123.064 730.814 115.764 746.409 110.078 759.419C108.538 762.945 106.539 766.669 105.933 770.479C105.499 773.214 106.083 775.906 107.726 778.144C109.257 780.23 111.395 781.922 113.492 783.415C125.116 791.698 137.901 798.426 149.747 806.406C164.04 816.035 177.325 827.301 192.627 835.374C199.968 839.247 208.088 842.288 216.365 843.289C223.308 844.129 235.014 844.167 240.785 839.71C243.1 837.922 244.325 835.209 244.545 832.329C245.219 823.537 239.401 814.276 233.768 808.006C218.629 791.156 201.7 774.06 193.434 752.541C191.906 748.565 190.412 744.305 190.659 739.989C190.893 735.9 192.683 731.786 194.331 728.077C197.286 728.974 201.447 730.89 204.417 729.356C209.233 726.867 217.266 710.731 220.137 705.495C229.396 708.274 307.021 749.911 310.484 754.084C307.854 760.616 297.674 782.767 300.414 788.934C301.82 792.098 305.54 794.292 308.473 795.853C321.369 802.718 338.124 807.551 351.915 813.896C365.755 820.265 377.981 829.424 392.571 834.186C403.615 837.79 425.009 842.185 435.973 836.495Q436.345 836.306 436.695 836.08Q437.046 835.854 437.372 835.593Q437.698 835.333 437.996 835.042Q438.294 834.75 438.562 834.43Q438.829 834.109 439.062 833.764Q439.296 833.418 439.494 833.051Q439.691 832.683 439.851 832.298Q440.01 831.913 440.13 831.513C440.716 829.542 440.499 827.196 440.452 825.156C467.819 835.186 493.291 850.205 517.509 866.271Q526.571 872.319 535.457 878.621Q544.344 884.924 553.048 891.477Q561.751 898.03 570.265 904.828Q578.779 911.626 587.096 918.663Q595.413 925.7 603.526 932.971Q611.64 940.242 619.544 947.74Q627.447 955.239 635.134 962.959Q642.821 970.679 650.286 978.615C664.213 993.286 677.493 1008.72 690.743 1024L0 1024L0 523.49Z"/>
	<path fill="#9F8BE8" d="M314.392 503.535Q322.253 516.951 329.86 530.513C328.308 540.94 327.027 551.211 326.63 561.751C325.595 589.235 326.428 617.057 326.532 644.563C326.617 666.942 325.815 689.583 326.78 711.932C326.859 713.76 326.698 716.961 327.781 718.461C328.376 719.286 329.116 720.052 329.82 720.784Q328.682 728.019 327.647 735.269C324.057 735.241 322.085 736.06 319.47 738.584C315.277 742.629 312.823 748.847 310.484 754.084C307.021 749.911 229.396 708.274 220.137 705.495C241.654 669.524 263.059 633.661 283.683 597.158C293.01 580.649 308.633 555.637 313.427 538.078C316.455 526.989 314.938 514.87 314.392 503.535Z"/>
	<path fill="#FEFEFE" d="M217.021 289.779C218.058 292.338 218.705 295.215 219.599 297.852Q222.838 307.734 227.069 317.234C235.823 336.551 260.993 374.861 278.999 385.26C293.079 377.287 317.325 346.164 327.061 332.363C338.567 371.652 353.688 409.485 368.511 447.605Q375.656 466.031 382.459 484.586C385.747 493.478 389.671 502.71 391.409 512.048C393.291 522.156 389.44 551.577 388.443 563.205L373.39 720.616C361.358 720.414 346.048 716.438 334.289 713.484C334.519 678.21 333.95 642.877 333.845 607.596C333.787 588.344 333.016 568.78 334.763 549.594C335.382 542.798 336.929 536.24 337.894 529.506C333.621 520.673 328.204 511.996 323.064 503.633C320.205 498.98 316.632 494.155 314.693 489.039C312.495 483.238 312.167 458.069 311.695 450.107C310.83 435.523 309.9 420.827 308.571 406.283C308.471 401.284 307.774 396.25 307.426 391.258C307.221 388.309 307.499 384.944 306.919 382.068C306.655 380.764 306.074 379.425 305.144 378.456C304.1 377.367 303.07 377.215 301.634 377.225C300.382 378.09 299.722 378.744 299.417 380.288C298.184 386.535 301.587 416.441 302.289 425.255Q305.026 458.935 306.431 492.697C307.116 506.118 309.232 520.362 306.913 533.688C304.587 547.054 289.206 571.386 282.271 584.015C268.612 608.888 254.202 633.196 239.975 657.738C227.389 679.449 214.869 701.537 200.837 722.357C186.563 718.133 173.698 712.375 162.993 701.735C167.251 689.85 174.166 678.481 179.381 666.936C196.75 628.488 214.64 589.874 233.997 552.396C238.91 542.884 246.382 534.691 250.865 525.094C246.152 506.215 239.537 487.43 233.74 468.824C225.425 442.141 217.66 414.883 211.54 387.614C207.886 371.33 204.044 354.837 204.671 338.025C205.317 320.703 210.263 305.533 217.021 289.779Z"/>
	<path fill="#9F8BE8" d="M597.906 537.789C598.113 537.869 598.323 537.944 598.529 538.03C603.37 540.044 634.656 569.784 641.104 575.575C651.773 585.159 662.542 594.816 673.911 603.561C682.632 610.268 691.778 616.058 700.946 622.112C708.045 626.799 715.021 631.783 722.309 636.167C736.446 644.669 751.43 651.382 763.867 662.515C778.874 675.95 791.016 693.989 802.628 710.382C807.748 717.61 817.339 728.304 818.932 736.701C820.505 744.995 821.011 753.745 821.917 762.159C824.851 789.408 826.658 817.187 834.853 843.487C837.664 852.512 841.274 861.588 846.32 869.617C849.322 874.393 852.824 878.766 855.456 883.779C867.84 907.373 879.866 931.45 890.51 955.887C870.335 947.163 849.063 938.175 827.273 934.47C787.137 927.645 755.987 946.764 724.865 969.015C723.543 951.912 720.926 935.336 718.414 918.393C717.603 912.925 714.257 905.142 715.268 899.937C716.17 898.71 716.206 898.73 717.682 898.326C722.102 902.343 724.22 921.208 730.407 926.941L732.031 926.763C732.149 926.547 732.274 926.335 732.384 926.116C734.354 922.212 732.347 916.997 731.116 913.18Q727.652 903.831 724.392 894.41L728.92 892.531C731.806 898.069 737.496 916.582 742.51 919.045C743.313 919.44 743.445 919.212 744.229 918.975C750.039 911.693 735.79 897.121 735.893 889.107C736.508 887.855 736.641 887.744 737.834 887.012C743.361 889.028 747.205 904.571 751.947 908.631C753.338 909.821 755.319 910.406 757.12 910.277C757.832 909.809 757.903 909.927 758.145 908.956C759.242 904.552 748.341 887.882 745.7 883.346L750.043 880.618C754.519 886.883 758.171 894.935 763.603 900.365C764.766 901.528 765.854 902.356 767.549 902.386C768.469 901.783 768.295 902.069 768.782 901.068C771.663 895.133 759.74 883.595 757.971 877.809C758.219 876.375 758.254 876.197 759.23 875.129C761.593 874.828 769.745 889.131 773.725 891.937C775.018 892.848 775.917 893.044 777.457 892.812C778.465 892.007 778.693 891.434 779.108 890.227C778.82 885.45 773.605 880.085 770.837 876.179C760.565 861.682 752.147 846.483 744.831 830.311C729.082 795.497 721.207 761.918 727.698 723.726C732.74 727.415 737.717 731.284 743.218 734.269C751.339 729.458 757.6 722.211 762.313 714.118C764.286 710.731 769.197 703.184 768.144 699.208C767.404 698.128 766.695 697.245 765.311 697.006C763.935 696.769 762.822 697.213 761.931 698.258C760.148 700.347 759.097 703.294 757.922 705.76C754.219 713.531 749.765 719.901 742.808 725.067C732.66 718.078 723.231 709.739 713.358 702.326C689.176 684.169 664.647 665.624 642.763 644.7C616.347 619.441 593.107 589.857 571.784 560.203C580.295 552.32 590.002 546.507 597.906 537.789Z"/>
	<path fill="#FEFEFE" d="M371.888 96.9086C377.489 96.2972 384.256 97.3977 389.645 98.9957C397.908 101.446 404.831 106.204 410.667 112.485C431.812 135.245 422.878 161.495 424.081 188.879Q425.918 224.516 431.427 259.772C432.655 267.158 433.736 274.886 436.034 282.025C438.545 289.824 443.6 296.568 447.902 303.448Q453.54 312.616 458.999 321.892Q478.37 354.824 496.621 388.39C488.834 392.394 481.914 397.965 474.232 402.198C456.731 381.249 440.234 359.272 423.928 337.378C415.995 326.726 407.177 316.07 400.278 304.744C398.177 301.293 396.651 297.916 395.261 294.122C383.577 263.833 379.159 231.015 369.088 200.15C366.665 192.723 357.035 165.656 350.226 163.337C348.973 162.91 348.538 163.448 347.583 164.125C346.68 165.801 346.161 167.007 346.77 168.958C347.922 172.654 351.413 176.205 353.138 179.774C358.775 191.437 363.008 204.144 365.905 216.754C335.884 233.325 293.21 240.912 259.094 241.438C275.697 221.948 286.096 199.898 297.93 177.491C302.569 168.708 307.604 159.706 313.414 151.644C328.817 130.273 350.267 111.728 371.888 96.9086Z"/>
	<path fill="#9F8BE8" d="M367.335 90.0992L368.492 90.2124C367.732 91.2174 352.659 102.043 350.037 104.158C336.123 115.382 322.744 127.633 311.726 141.76C295.571 162.474 286.242 185.826 273.292 208.31C267.643 218.119 260.876 227.749 253.606 236.421C240.449 252.118 221.894 272.287 200.133 273.767C193.352 274.228 189.282 272.228 184.301 267.956C180.545 263.692 177.616 258.882 176.387 253.275C173.555 240.346 180.752 226.955 187.623 216.517C199.341 198.714 216.962 183.295 233.194 169.672C243.103 161.354 252.963 152.851 263.321 145.091Q287.612 127.225 313.744 112.178C321.503 107.613 329.259 102.82 337.477 99.1172C347.116 94.774 357.041 92.2539 367.335 90.0992Z"/>
	<path fill="#FEFEFE" d="M368.672 243.469L369.16 243.581L369.285 244.416C366.226 252.6 362.137 260.419 358.197 268.202C343.608 297.024 325.961 323.363 305.437 348.269C297.399 358.023 288.863 368.157 278.91 375.987C269.003 366.988 260.359 356.075 252.447 345.324C236.323 322.839 227.462 302.134 222.236 274.852C226.905 272.4 230.913 269.881 234.871 266.376Q238.446 266.671 242.027 266.871Q245.609 267.072 249.194 267.178Q252.779 267.284 256.366 267.296Q259.953 267.307 263.539 267.225Q267.125 267.142 270.708 266.965Q274.291 266.788 277.867 266.516Q281.444 266.245 285.012 265.879Q288.581 265.514 292.138 265.055Q295.695 264.595 299.24 264.043Q302.784 263.49 306.312 262.844Q309.84 262.198 313.351 261.46Q316.861 260.721 320.35 259.89Q323.84 259.06 327.306 258.137Q330.772 257.215 334.213 256.202Q337.654 255.189 341.067 254.085Q344.48 252.982 347.863 251.789C354.886 249.319 361.769 246.265 368.672 243.469Z"/>
	<path fill="#362253" d="M776.242 498.554Q777.883 498.474 779.525 498.455C787.82 498.385 793.058 502.376 798.692 507.875C811.24 508.772 822.608 514.343 832.426 522.081C845.329 532.25 854.935 547.016 856.853 563.512C858.851 580.696 851.035 595.604 840.683 608.725C830.158 605.228 821.138 599.555 813.361 591.706C802.585 580.842 793.704 565.51 790.054 550.645C788.938 546.105 788.813 540.241 786.755 536.118C785.678 535.462 784.846 535.136 783.543 535.374C782.731 535.523 782.25 535.622 781.873 536.374C779.052 542.009 785.904 561.218 787.93 567.512C786.302 565.967 784.649 564.801 782.74 563.626C778.7 563.35 774.706 563.588 770.691 564.031C768.214 550.542 768.65 533.404 776.561 521.636C778.077 519.382 782.171 516.113 782.335 513.411C782.419 512.008 781.676 510.531 780.65 509.616C776.711 506.1 770.131 505.99 765.142 506.117C768.567 502.432 771.491 500.208 776.242 498.554Z"/>
	<path fill="#FEFEFE" d="M762.559 627.686Q764.779 627.584 767.001 627.611C807.103 628.302 826.588 653.851 851.253 680.637C854.946 684.647 860.041 687.076 863.774 691.035C868.186 695.716 871.117 703.112 870.67 709.61C870.555 711.286 870.261 712.202 869.003 713.313C860.858 713.122 846.238 682.976 840.26 679.976C839.156 679.421 837.743 679.32 836.576 679.775C835.265 680.287 834.985 680.826 834.403 681.986C834.81 687.594 854.541 710.733 859.629 716.022C833.309 704.718 819.549 671.893 798.397 653.318C786.84 643.169 772.084 637.096 756.556 638.125C755.447 639.312 755.365 639.684 755.343 641.251C756.061 642.547 756.839 643.159 758.185 643.725C761.861 645.271 766.132 645.415 770.011 646.284C775.675 647.552 782.433 651.332 787.29 654.493C806.088 666.728 819.958 692.675 836.635 708.82C844.765 716.691 854.313 724.628 866.125 724.433C866.14 728.302 866.009 732.141 865.179 735.933C863.318 744.432 858.453 752.434 851.091 757.195C846.749 755.082 843.478 752.465 840.204 748.965C834.115 742.455 829.451 734.808 824.271 727.597C808.555 705.715 793.755 681.884 775.106 662.353C764.925 651.69 752.866 645.349 740.895 637.163C747.148 631.328 754.168 628.606 762.559 627.686Z"/>
	<path fill="#FEFEFE" d="M493.14 76.992C493.752 77.0148 494.366 77.0416 494.975 77.1153C496.971 77.357 500.029 78.5024 501.173 80.2814C504.557 85.5422 498.644 91.101 497.755 96.0904C498.749 97.3873 499.687 98.3085 501.067 99.2016C508.712 104.149 520.614 105.116 529.318 103.041C538.605 100.828 543.195 94.962 547.972 87.2689C549.752 92.2518 551.581 97.3034 554.038 101.997C556.846 107.36 560.347 112.383 562.67 117.988C556.843 122.556 549.208 124.782 543.615 129.535C538.656 133.748 538.507 138.462 538.103 144.512C535.04 144.598 529.208 145.471 526.505 144.207C526.111 143.18 525.729 142.328 525.111 141.417C523.935 141.149 523.363 141.406 522.261 141.839C521.544 143.254 522.343 144.494 522.788 145.975L522.095 146.612C519.948 146.878 518.105 146.442 516.015 146.018C513.95 144.455 512.66 142.327 510.175 141.364C508.693 141.327 508.154 141.55 506.923 142.363C504.514 146.706 511.977 149.39 512.885 153.15C512.661 153.571 512.48 153.972 512.13 154.317C510.278 156.144 505.815 156.423 503.411 156.005C498.084 155.079 494.359 149.412 491.52 145.224C486.236 135.857 483.391 121.778 484.724 111.124C485.135 107.833 487.32 101.372 486.314 98.2989C485.771 98.1917 485.282 98.0669 484.716 98.0973C483.063 98.1861 481.757 99.1191 480.843 100.446C474.686 109.391 479.029 130.251 480.756 140.324C473.259 141.274 467.938 143.979 461.79 148.201C461.722 148.063 461.652 147.926 461.586 147.787L461.259 147.09C456.911 137.957 458.585 127.826 457.039 118.107C455.396 107.768 450.714 98.3676 445.896 89.1953C449.102 88.2074 452.234 87.5503 455.543 87.0011C458.533 90.505 461.579 93.0084 466.174 94.1757C471.725 95.5857 477.912 94.4443 482.816 91.5532C483.656 91.0578 483.819 90.9352 484.826 90.7637C485.12 91.5792 485.4 92.4313 485.78 93.2102C486.338 94.3527 486.687 94.8119 487.866 95.2631C488.731 95.0469 489.045 94.915 489.711 94.2711C490.441 93.5644 490.227 93.4221 490.245 92.4783C488.261 90.022 488.074 92.0508 485.94 91.5674C485.506 89.1508 485.774 86.9988 486.458 84.6422C487.534 80.9304 489.222 79.1708 492.562 77.3075L493.14 76.992Z"/>
	<path fill="#020201" d="M537.158 102.833C540.478 102.679 542.791 103.069 545.383 105.286C549.444 108.758 551.619 114.368 552.051 119.581C550.741 119.408 549.576 119.086 548.458 118.367C544.879 116.065 537.949 106.974 537.158 102.833Z"/>
	<path fill="#020201" d="M533.544 116.994L535.759 117.071C536.573 117.556 537.151 117.722 537.632 118.58C538.364 119.887 538.322 120.994 537.824 122.367C537.04 124.529 535.956 125.298 533.891 126.178C532.467 126.07 531.214 125.9 530.28 124.686C529.511 123.685 529.51 122.723 529.771 121.538C530.259 119.323 531.746 118.176 533.544 116.994Z"/>
	<path fill="#362253" d="M517.876 23.6754C527.364 22.5979 537.699 24.1044 546.35 28.2107C554.819 32.2308 559.785 37.9056 562.896 46.8022C553.975 55.3036 550.749 57.4815 547.772 70.1408C546.944 73.6611 546.332 77.3998 544.98 80.7611C542.483 86.9693 537.327 93.0374 531.1 95.6733C523.244 98.9983 513.858 97.844 506.106 94.8373C508.786 90.3073 509.137 86.6563 509.022 81.5226C508.991 81.4161 508.959 81.3099 508.929 81.203C508.13 78.3428 507.46 76.5761 505.281 74.4977C502.469 71.8157 498.808 69.5208 494.78 69.7145C482.631 70.2984 482.251 82.467 478.468 85.5618C476.31 87.3269 471.963 87.8045 469.296 87.6267C467.016 87.4748 465.176 86.7546 463.775 84.8796C460.898 81.0282 464.757 69.12 465.7 64.4164C467.055 64.3271 468.437 64.2605 469.782 64.0648C481.592 62.3456 485.225 47.0586 491.389 38.7772C498.158 29.6835 506.802 25.3003 517.876 23.6754Z"/>
	<path fill="#FEFEFE" d="M711.937 711.288C715.07 713.181 717.969 716.274 720.732 718.703C708.486 772.388 729.399 822.672 755.547 868.637Q745.541 873.862 735.781 879.532Q730.346 882.636 724.833 885.599C712.118 862.913 704.551 829.156 698.993 803.863C693.916 780.766 690.822 751.987 700.669 729.817C703.591 723.236 708.068 717.339 711.937 711.288Z"/>
	<path fill="#FEFEFE" d="M768.218 513.561C769.865 513.489 770.944 513.164 772.378 514.025C772.663 516.764 769.232 519.996 768.073 522.483C766.464 525.936 765.092 529.85 764.054 533.514C761.953 540.93 761.527 564.348 765.143 570.794C768.375 573.005 772.725 570.418 776.446 570.155C778.893 569.982 782.004 570.234 783.796 572.133C785.37 573.803 785.472 576.301 785.514 578.464C785.584 582.141 784.146 586.595 781.356 589.186C779.547 590.865 776.72 592.279 774.202 592.149C770.226 591.945 767.548 588.55 764.99 585.914C760.368 587.948 754.144 589.79 750.195 592.912C749.066 593.805 748.389 594.666 748.187 596.088C748.615 596.641 748.95 597.039 749.645 597.271C754.814 598.999 759.978 596.156 764.516 594.043L769.556 597.53C770.131 605.183 771.341 612.175 773.331 619.588C763.888 619.43 755.917 620.654 746.877 623.178C744.336 617.763 742.663 611.859 739.52 606.758C735.399 602.037 727.039 599.323 721.465 596.404C717.599 594.379 711.876 591.602 710.654 587.034C709.302 581.982 715.901 573.405 718.537 569.054C718.931 569.457 719.029 569.58 719.524 569.96C721.509 571.482 724.076 571.994 726.527 571.677C727.79 570.827 727.783 570.706 728.303 569.258C727.353 565.064 722.255 565.987 720.337 562.817C720.402 558.121 724.227 558.663 725.222 555.235C726.109 552.175 723.52 548.71 722.054 546.208C729.423 543.792 732.383 544.933 739.056 539.835C740.448 539.983 740.553 539.962 741.584 540.889C742.367 542.916 741.622 545.485 741.65 547.67C742.496 549.095 742.705 549.381 744.122 550.22C745.482 550.334 746.221 550.194 747.387 549.433C748.929 548.425 749.83 546.396 749.969 544.616C750.321 540.105 746.974 537.083 744.245 533.97C745.682 531.679 747.137 529.772 748.975 527.788C750.908 530.445 754.205 535.513 757.092 536.995C758.275 537.603 758.787 537.467 759.966 536.994C760.503 536.277 760.929 535.729 761.001 534.794C761.162 532.711 759.926 530.479 758.686 528.9C757.33 527.171 755.625 525.548 753.352 525.333C752.065 525.211 752.648 525.498 751.776 524.796C754.289 520.249 763.336 515.297 768.218 513.561Z"/>
	<path fill="#020201" d="M776.086 574.836C777.013 574.841 778.017 574.849 778.924 575.042C780.323 575.338 781.109 576.142 781.856 577.308C782.178 578.927 781.969 579.906 781.147 581.293C779.452 584.154 777.48 584.478 774.488 585.252C773.728 585.376 772.754 585.625 771.994 585.565C771.142 585.498 770.7 585.343 770.188 584.675C769.431 583.687 768.893 582.354 769.171 581.088C769.531 579.447 770.852 578.551 772.171 577.726C773.581 576.845 774.815 575.905 776.086 574.836Z"/>
	<path fill="#FEFEFE" d="M143.75 725.425C145.466 727.681 142.526 741.489 147.514 748.919C151.372 754.665 158.028 756.699 164.473 757.862C167.887 766.646 173.33 775.456 178.227 783.518C182.685 790.857 190.099 802.55 199.127 804.533C205.08 805.841 211.613 803.918 216.65 800.721C223.819 808.249 231.168 814.914 235.683 824.462C228.248 825.873 221.35 825.911 213.895 824.606C190.282 817.304 171.968 798.562 151.694 785.196C140.168 777.598 127.846 771.791 117.009 763.066C121.391 748.779 130.722 733.318 143.75 725.425Z"/>
	<path fill="#FEFEFE" d="M828.045 746.366C835.539 752.374 839.707 763.134 851.146 765.485C855.498 774.849 859.17 784.222 862.496 794.006C869.848 815.631 872.274 844.07 861.967 865.096C860.947 866.984 860.139 868.88 858.373 870.181C856.996 870.499 856.591 870.719 855.294 869.966C852.657 868.437 850.577 862.408 849.325 859.578C833.628 824.077 832.756 784.347 828.045 746.366Z"/>
	<path fill="#FEFEFE" d="M686.432 763.905C687.161 773.194 687.363 782.471 688.638 791.723C690.709 806.758 694.947 821.518 698.715 836.193C701.288 846.215 703.709 856.715 707.677 866.287C709.887 871.62 716.34 884.42 716.196 889.542C713.663 893.037 705.807 895.756 701.854 897.657C696.041 900.298 690.386 903.462 684.713 906.401C683.017 899.013 682.537 891.051 681.663 883.504C677.432 846.963 674.882 799.373 686.432 763.905Z"/>
	<path fill="#FEFEFE" d="M325.285 743.438L325.632 743.843L325.838 745.997C326.039 748.222 326.396 749.993 327.672 751.886C331.567 757.662 340.08 759.019 346.418 760.325C349.42 763.301 351.933 766.928 354.65 770.176C363.505 780.762 375.936 795.52 389.879 798.681C395.339 799.92 400.344 799.161 405.105 796.252C413.874 804.246 427.938 813.021 432.772 823.981C428.719 824.42 424.792 824.319 420.737 823.97C406.361 821.507 391.85 815.596 379.256 808.22C371.376 803.604 363.728 798.445 355.453 794.548C340.625 787.565 324.959 782.457 309.897 775.987C313.637 765.606 317.707 751.609 325.285 743.438Z"/>
	<path fill="#FEFEFE" d="M374.702 250.892C374.813 251.008 374.955 251.101 375.036 251.239C376.195 253.229 378.728 265.36 378.388 267.526C378.354 267.739 378.309 267.949 378.274 268.161C376.938 276.284 374.292 284.221 372.422 292.245Q365.954 320.245 358.729 348.059C355.998 358.585 352.956 368.995 350.377 379.567L346.883 369.373C341.995 354.404 337.473 339.455 333.358 324.254C349.548 300.923 362.819 276.667 374.702 250.892Z"/>
	<path fill="#FEFEFE" d="M531.966 437.859C534.432 438.659 536.73 443.073 538.244 445.179C545.884 455.808 551.092 463.543 553.716 476.55C554.914 482.489 555.927 488.671 558.282 494.284C560.428 499.402 564.297 503.798 567.735 508.092C563.242 513.013 558.725 517.807 553.516 521.981C548.027 516.157 543.008 507.902 535.537 504.54Q534.2 503.685 532.895 502.78C516.949 491.673 509.842 475.904 506.481 457.311C508.561 460.115 510.723 463.16 513.52 465.306C515.075 466.5 516.396 466.89 518.347 466.604C523.912 465.789 527.154 471.775 532.805 470.535C534.197 470.23 534.811 469.218 535.592 468.132C535.695 467.988 535.796 467.841 535.898 467.696C537.142 467.608 538.425 467.498 539.637 467.19C540.717 466.916 541.556 466.288 542.055 465.288C545.227 458.93 534.168 444.741 532.088 438.259C532.045 438.127 532.007 437.993 531.966 437.859Z"/>
	<path fill="#362253" d="M845.003 614.999C845.803 614.971 846.524 614.992 847.32 615.102C859.639 616.806 871.219 621.218 878.931 631.476C884.594 639.008 886.582 648.918 885.141 658.158C884.09 664.892 881.07 670.687 875.504 674.752C871.49 677.367 867.486 678.928 862.935 680.378C858.497 677.551 854.016 673.969 851.238 669.421C845.639 660.258 851.003 644.453 853.535 634.709C851.689 627.41 847.362 621.906 845.003 614.999Z"/>
	<path fill="#FEFEFE" d="M498.451 395.4C498.696 395.485 498.955 395.534 499.184 395.654C501.758 396.999 524.497 416.679 526.683 419.272C528.198 421.069 529.581 423.716 530.368 425.948C530.782 427.122 530.974 427.822 530.431 428.977L529.707 428.887C527.845 426.956 528.26 423.863 526.825 421.71C525.741 420.084 524.298 419.683 522.475 419.315C520.923 419.002 519.207 418.938 517.936 420.062C510.457 426.678 528.767 453.431 528.329 462.263L527.598 462.326C520.12 456.006 521.586 449.01 517.965 444.47C517.022 443.288 516.634 443.294 515.225 443.019C513.853 443.487 513.668 443.617 512.726 444.72C511.962 448.338 515.185 453.534 516.71 456.874C517.041 457.714 517.199 458.39 517.362 459.27C516.009 458.297 515.111 456.277 514.21 454.858C512.414 452.027 511.665 449.063 510.566 445.936C509.665 443.373 508.736 441.365 506.176 440.172C505.259 440.366 505.311 440.159 504.84 440.845C503.025 443.489 504.161 448.21 504.566 451.23C503.611 448.109 502.847 443.39 501.095 440.696C500.408 439.639 498.76 438.925 497.51 438.849C496.276 438.775 495.993 439.333 495.311 440.177C493.833 446.516 498.873 456.714 500.981 462.724C489.562 446.994 487.524 426.252 479.045 409.055C484.621 403.883 492.116 399.677 498.451 395.4Z"/>
	<path fill="#362253" d="M566.849 53.4822C567.637 53.4178 567.586 53.4039 568.499 53.4283C571.321 53.5038 574.228 55.5334 576.088 57.5287C584.029 66.0472 586.416 82.3815 585.944 93.5409C585.396 106.519 580.397 114.714 571.068 123.391C570.445 123.786 569.849 123.995 569.161 124.252C568.44 123.159 569.5 119.962 569.427 118.43C569.342 116.66 568.732 114.684 568.159 113.021C566.831 109.167 564.581 105.727 562.54 102.226C556.852 92.4694 552.206 82.9565 554.629 71.4205C556.265 63.6283 560.233 57.8346 566.849 53.4822Z"/>
	<path fill="#9F8BE8" d="M367.273 223.981C369.291 226.45 370.17 230.778 371.147 233.77C365.395 237.457 357.879 239.879 351.487 242.295C316.856 255.39 283.218 260.234 246.375 259.995C245.419 260.011 244.748 259.966 243.841 259.657C243.933 256.939 250.391 251.413 252.323 249.377C261.468 248.454 270.747 248.621 279.918 247.79C309.419 245.116 341.178 238.353 367.273 223.981Z"/>
	<path fill="#9F8BE8" d="M310.127 105.033L310.785 105.177C308.543 107.469 304.268 109.235 301.446 110.984C292.214 116.705 282.89 122.358 273.854 128.385C248.777 145.111 217.686 170.527 197.37 192.733C196.868 192.889 197.156 192.88 196.525 192.55C197.152 188.599 198.614 184.601 200.316 180.989C202.978 175.339 206.069 170.29 210.23 165.627C230.585 142.818 281.131 115.405 310.127 105.033Z"/>
	<path fill="#9F8BE8" d="M577.197 509.382C581.485 513.384 589.759 525.48 593.798 530.69C588.328 538.223 573.617 550.376 565.185 554.64C558.791 549.414 552.916 542.701 547.688 536.321C552.575 531.86 558.425 528.464 563.324 523.925C568.243 519.368 572.188 513.839 577.197 509.382Z"/>
	<path fill="#362253" d="M792.536 575.833C795.241 578.703 797.086 583.034 799.518 586.248C809.467 599.397 821.68 608.377 836.896 614.422C832.841 617.748 829.473 621.77 824.807 624.297C815.444 624.563 803.76 621.37 795.364 617.317C786.383 613.612 780.759 606.355 775.065 598.862C778.926 598.384 781.648 597.63 784.991 595.486C788.74 600.109 797.168 611.386 803.288 612.266C804.701 612.47 804.941 612.277 806.029 611.506C806.293 610.317 806.72 608.44 806.179 607.259C805.43 605.625 794.785 600.375 790.695 589.438L790.482 588.853C791.923 584.367 792.488 580.557 792.536 575.833Z"/>
	<path fill="#9F8BE8" d="M393.332 87.2006C402.878 86.837 410.79 89.7107 418.326 95.5414C431.886 106.032 437.403 122.572 439.433 139.062C440.771 149.923 438.799 183.83 432.213 192.226L431.674 192.085L431.463 190.625C430.568 161.96 439.249 136.407 419.57 111.394C409.273 98.3045 397.855 92.3929 381.564 90.4267C385.551 88.491 388.93 87.5528 393.332 87.2006Z"/>
	<path fill="#9F8BE8" d="M163.538 711.39C171.007 717.553 178.502 721.97 187.526 725.574C185.631 731.008 184.038 736.4 182.684 741.99C179.481 743.913 176.315 745.619 172.851 747.022C170.082 748.046 166.949 748.923 164 749.122C160.639 749.35 157.26 748.599 154.795 746.179C150.33 741.796 150.944 734.669 151.029 728.95C154.241 722.861 159.496 717.029 163.538 711.39Z"/>
	<path fill="#FEFEFE" d="M462.385 191.906C462.548 198.908 455.302 218.179 453.255 226.226C449.333 241.647 444.738 266.596 444.332 282.368C443.211 279.624 442.339 276.97 441.628 274.093C438.458 256.103 435.157 237.848 434.247 219.574C445.142 213.153 455.039 202.065 462.385 191.906Z"/>
	<path fill="#9F8BE8" d="M336.191 721.29C346.132 723.571 356.163 725.381 366.094 727.663C366.026 732.272 365.398 736.842 364.858 741.413C362.754 743.483 360.807 745.763 358.818 747.946C354.351 751.484 350.042 753.368 344.201 752.609C340.888 752.178 336.94 751.097 334.849 748.272C331.431 743.654 335.496 727.388 336.191 721.29Z"/>
	<path fill="#FEFEFE" d="M421.937 87.2768C426.467 86.9973 431.005 87.0421 435.541 87.0395C441.757 95.6676 447.684 107.239 449.745 117.749C452.62 132.416 448.505 145.519 459.863 157.752C457.039 163.699 453.301 168.604 449.265 173.75L444.201 180.175C444.587 175.683 445.451 171.199 446.06 166.731C449.012 145.095 446.971 118.355 433.457 100.258C429.525 94.9921 424.246 91.8013 421.169 87.761L421.937 87.2768Z"/>
	<path fill="#FEFEFE" d="M184.432 749.495C187.096 754.395 188.287 760.111 190.829 765.133C196.297 775.934 204.586 785.626 211.989 795.159C207.65 796.67 204 797.342 199.386 796.953C199.258 796.908 199.127 796.869 199.002 796.817C189.231 792.781 175.713 765.964 171.477 755.499C175.847 753.626 180.129 751.517 184.432 749.495Z"/>
	<path fill="#FEFEFE" d="M366.83 750.434C377.546 765.916 387.369 778.147 400.636 791.613C396.768 792.376 393.781 792.441 389.943 791.703C377.326 787.079 362.73 769.411 354.965 758.562C359.601 756.481 363.123 753.877 366.83 750.434Z"/>
	<path fill="#FEFEFE" d="M112.82 770.146C116.916 771.736 120.802 774.926 124.646 777.152C133.148 782.075 141.605 787.046 149.666 792.674C167.709 805.27 192.872 827.862 213.973 831.801C221.637 833.232 229.384 831.564 237.062 831.543L237.542 832.252L236.755 833.816C234.52 834.94 232.256 835.658 229.784 836.053C221.45 837.387 211.389 836.182 203.554 833.095C185.966 826.165 168.738 810.79 152.825 800.31C140.705 792.327 127.484 785.424 115.883 776.747C113.411 774.898 113.29 773.057 112.82 770.146Z"/>
	<path fill="#FEFEFE" d="M306.907 782.171C320.76 789.287 336.007 793.623 350.123 800.287C368.706 809.06 381.797 819.818 402.367 826.378C408.118 828.212 414.457 829.808 420.479 830.315C424.025 830.614 428.183 830.046 431.581 830.964L431.401 831.724C429.525 832.034 427.661 832.27 425.763 832.38C415.267 832.988 404.335 830.674 394.437 827.336C379.538 822.311 366.641 812.836 352.265 806.502C342.822 802.341 313.108 791.84 307.023 786.407C306.236 784.971 306.643 783.697 306.907 782.171Z"/>
	<path fill="#9F8BE8" d="M839.364 620.973C842.143 624.525 844.061 631.098 845.901 635.349C843.288 643.233 841.549 650.05 841.417 658.38C838.537 655.059 835.445 651.952 832.363 648.82C828.223 644.733 823.684 641.122 819.186 637.443L819.282 635.9C819.426 633.885 819.474 632.444 818.901 630.474C818.852 630.307 818.799 630.141 818.747 629.975C819.452 629.789 819.108 629.824 819.958 629.889C821.146 629.98 822.333 630.103 823.527 630.107C830.149 630.127 835.011 625.357 839.364 620.973Z"/>
	<path fill="#9F8BE8" d="M473.898 148.464C474.162 150.464 473.706 152.846 473.346 154.832C469.472 176.195 450.344 198.695 432.954 210.78L432.156 201.463C442.639 192.696 453.924 181.653 461.17 169.935C466.349 161.557 464.993 153.897 473.898 148.464Z"/>
	<path fill="#7C64BF" d="M800.748 627.081C796.886 625.797 792.979 624.206 789.054 623.168C787.237 622.687 785.227 622.571 783.458 621.992C782.561 621.698 781.934 621.263 781.406 620.478C780.475 619.092 780.121 616.755 780.416 615.136C780.781 615.521 781.16 615.893 781.508 616.293C785.53 620.909 794.732 622.754 800.526 624.648L800.748 627.081Z"/>
	<path fill="#9F8BE8" d="M800.526 624.648C805.354 626.138 810.247 627.189 815.121 628.481C813.919 629.296 812.776 630.112 811.668 631.051C807.92 631.409 804.208 628.395 800.748 627.081L800.526 624.648Z"/>
</svg>
