<?xml version="1.0" encoding="utf-8" ?>
<svg xmlns="http://www.w3.org/2000/svg" xmlns:xlink="http://www.w3.org/1999/xlink" width="1024" height="1024">
	<path fill="#C5BDFE" d="M0 0L406.499 0L406.427 294.496L615.853 294.508L615.661 0L758.521 0L758.497 294.492C763.673 294.475 784.377 293.609 787.458 294.999L787.261 295.684C784.817 303.923 772.739 317.173 775.932 323.317C777.72 326.757 781.591 327.697 784.982 328.863C783.607 330.132 781.812 331.387 781.727 333.405C781.469 339.537 786.024 357.26 790.183 361.652C792.244 363.828 794.287 364.581 797.257 364.524C805.446 364.367 813.489 361.122 821.643 360.326C822.837 365.182 823.643 370.125 824.053 375.109L823.549 375.588C819.052 379.778 813.424 382.388 808.086 385.334C800.985 389.253 793.473 393.354 786.97 398.212C781.733 402.124 777.59 407.829 774.73 413.656C771.061 421.132 769.35 429.77 766.942 437.732C761.408 456.03 755.894 474.128 751.345 492.712C742.367 486.267 732.559 480.779 723.772 474.186C719.985 471.344 710.531 462.098 707.7 460.506C706.16 459.64 703.848 460.11 702.47 459.382C697.827 456.928 695.412 436.243 694.085 430.855C693.16 427.014 691.747 423.308 689.881 419.826C684.489 409.732 676.515 402.666 667.196 396.241C663.46 393.665 658.051 389.582 653.206 390.535C652.089 390.755 651.016 391.276 650.316 392.205C649.185 393.707 649.157 395.69 649.587 397.447C650.264 400.216 652.267 402.476 654.014 404.647C651.769 404.049 649.164 403.126 646.938 404.263C645.766 404.862 645.036 405.596 644.769 406.925C644.195 409.793 645.957 413.317 647.765 415.429C648.559 416.356 649.438 417.22 650.303 418.08C648.585 419.486 646.973 420.447 646.781 422.838C646.468 426.751 650.787 431.043 653.382 433.552C655.904 435.99 658.448 438.119 661.348 440.091C662.873 451.469 663.248 462.701 672.641 470.737C676.33 473.893 680.454 476.634 683.963 479.988C681.957 482.628 679.998 485.303 678.087 488.013C683.62 495.403 693.593 502.216 700.733 508.237C707.182 513.723 713.203 519.693 718.743 526.096L608.624 526.058C598.571 526.048 537.65 525.151 533.022 526.914C532.198 528.624 531.98 530.343 531.861 532.22C531.655 535.454 531.494 563.826 531.911 564.886C532.403 566.133 533.209 566.663 534.424 567.113C537.705 568.33 542.84 567.68 546.37 567.64C546.029 609.798 545.911 651.956 546.016 694.115C535.497 693.035 522.314 691.364 513.568 698.692C509.397 702.187 506.99 706.974 505.355 712.062C499.859 711.003 494.256 710.607 488.666 710.88C478.767 711.442 468.569 713.906 458.808 715.664C452.772 716.751 446.334 717.402 440.433 718.999C438.159 719.614 435.931 720.541 433.977 721.869C431.394 723.625 430.207 725.447 429.68 728.531C428.888 733.172 429.477 738.437 429.486 743.16C414.21 743.757 398.649 743.111 383.346 743.137C359.018 743.177 334.638 743.613 310.316 743.241C315.214 699.028 319.248 654.724 322.415 610.353C323.878 588.26 324.592 566.163 325.546 544.046C328.626 542.911 332.407 542.024 334.276 539.128C334.837 533.069 329.717 500.824 328.254 493.572C351.372 500.682 375.498 503.963 399.542 505.897C404.725 506.314 413.162 507.932 417.898 505.592C420.672 502.504 420.484 497.067 420.715 493.101C427.687 491.328 433.574 491.939 440.613 492.821C458.03 495.005 465.527 497.391 482.532 491.48C487.783 489.654 493.071 487.673 498.099 485.296C499.386 491.386 505.969 529.063 509.105 531.538C510.997 533.031 514.108 533.216 516.362 532.664C517.788 532.314 518.731 531.749 519.559 530.501C522.019 526.795 519.857 518.377 519.032 514.254C521.454 518.49 523.982 523.65 529.114 525.072C530.375 525.422 531.689 525.452 532.846 524.754C534.585 523.706 536.207 520.543 536.398 518.559C536.915 513.164 519.424 487.139 516.451 478.567C515.619 476.169 515.45 473.508 515.282 470.99C518.135 465.879 519.4 461.334 517.745 455.47C514.724 444.765 502.454 435.804 493.078 430.908C490.678 429.655 488.038 428.634 485.324 428.382C472.996 427.238 453.567 432.945 440.523 434.353C434.316 430.232 424.646 429.772 417.354 428.202C393.826 423.135 369.734 413.843 348.805 401.98C341.527 397.855 334.878 392.593 327.565 388.609C327.516 365.57 327.385 342.74 325.287 319.77C324.208 307.958 321.051 294.11 320.622 282.942C320.288 274.266 326.13 261.669 321.396 254.237L330.044 242.998C334.725 246.257 340.377 250.222 346.408 249.162C354.847 247.679 363.164 231.082 368.057 224.173C370.948 223.966 374.358 223.898 376.344 221.431C377.646 219.812 377.735 217.693 377.44 215.718C376.616 210.198 373.401 204.433 374.251 198.815C375.824 197.32 378.787 197.476 380.847 196.894C388.667 194.686 391.355 184.643 391.539 177.505C391.873 164.526 386.256 153.185 377.378 143.964C368.433 134.672 355.057 122.106 342.338 118.848C338.342 117.825 334.116 117.954 330.04 117.394C325.142 116.72 320.445 115.341 315.462 115.295C306.227 115.211 296.868 118.729 290.295 125.28C287.027 128.538 284.22 132.823 280.276 135.274C273.345 139.583 268.544 135.991 262.683 144.285C260.812 146.934 259.855 149.872 259.906 153.117C259.969 157.159 263.396 163.328 261.556 166.868C256.487 171.764 250.97 172.538 251.035 181.17C251.084 187.533 253.564 192.004 258.101 196.317C261.213 199.276 265.108 201.75 267.735 205.146C263.76 212.216 245.345 235.568 239.441 241.048C230.929 248.949 221.467 255.557 213.293 263.905C182.371 295.487 159.787 331.323 140.624 370.972C136.017 370.85 131.466 370.591 126.971 371.826C117.627 374.392 108.142 384.059 101.138 390.709C97.4295 394.229 87.6529 402.508 87.4253 407.426C88.116 409.281 89.1351 410.111 90.5678 411.426L92.0077 412.769C81.3869 428.717 72.9239 444.474 65.4331 462.132C62.9512 467.982 60.1936 474.023 58.4954 480.154C64.3779 488.876 69.2694 498.251 75.2356 506.899C95.4225 536.159 124.958 566.511 161.184 573.399C166.231 574.359 171.351 574.753 176.469 575.093C176.425 588.267 175.281 601.549 174.187 614.671C170.404 660.064 163.19 699.843 150.274 743.625L0 743.32L0 0Z"/>
	<path fill="#9F8BE8" d="M406.499 0L429.519 0L429.48 86.5442C454.094 86.4564 478.708 86.5777 503.319 86.9081L503.05 0L519.97 0C519.842 28.8538 519.358 57.6698 519.909 86.5248C544.658 86.5212 569.442 86.2363 594.187 86.5676C595.048 57.7768 594.459 28.8112 594.497 0L615.661 0L615.853 294.508L406.427 294.496L406.499 0ZM429.581 104.004C429.114 157.714 429.07 211.427 429.45 265.138C453.966 265.265 478.483 265.26 502.999 265.123L503.124 104.062C478.618 103.974 454.086 103.716 429.581 104.004ZM520.038 104.149L519.758 265.084L594.312 265.374C595.42 247.309 594.493 228.706 594.489 210.583C594.6 175.059 594.479 139.536 594.125 104.014L520.038 104.149Z"/>
	<path fill="#FEFEFE" d="M429.519 0L503.05 0L503.319 86.9081C478.708 86.5777 454.094 86.4564 429.48 86.5442L429.519 0Z"/>
	<path fill="#FEFEFE" d="M519.97 0L594.497 0C594.459 28.8112 595.048 57.7768 594.187 86.5676C569.442 86.2363 544.658 86.5212 519.909 86.5248C519.358 57.6698 519.842 28.8538 519.97 0Z"/>
	<path fill="#9F8BE8" d="M758.521 0L779.986 0L780.036 87.1332L853.637 87.4455L853.893 0L874.292 0C874.174 29.0824 873.785 58.2414 874.348 87.3163L947.39 87.512L947.491 0L970.583 0L970.39 294.484C945.609 294.447 920.714 294.815 895.946 294.119C896.348 292.265 896.448 290.332 896.626 288.445C898.163 287.75 899.708 287.059 901.206 286.286C910.272 281.611 913.464 273.849 916.279 264.668C920.359 266.037 941.646 265.027 947.48 265C947.816 211.506 947.808 158.01 947.457 104.517L873.978 104.508L874.065 199.642C874.122 208.918 873.143 228.228 874.572 236.38C871.48 239.749 869.929 242.426 869.005 246.981C863.604 245.023 858.205 243.118 852.612 241.768L853.466 241.159C854.117 236.255 853.768 230.963 853.802 226L853.905 195.94L854.045 104.486C829.367 104.336 804.689 104.352 780.011 104.533L780.015 264.862C785.385 264.953 790.755 265.076 796.123 265.23C789.855 273.463 787.673 284.817 787.458 294.999C784.377 293.609 763.673 294.475 758.497 294.492L758.521 0Z"/>
	<path fill="#FEFEFE" d="M779.986 0L853.893 0L853.637 87.4455L780.036 87.1332L779.986 0Z"/>
	<path fill="#FEFEFE" d="M874.292 0L947.491 0L947.39 87.512L874.348 87.3163C873.785 58.2414 874.174 29.0824 874.292 0Z"/>
	<path fill="#C5BDFE" d="M970.583 0L1024 0L1024 526.225L993.989 526.249C993.707 500.984 997.008 474.518 985.589 451.066C975.834 431.033 960.86 415.843 939.666 408.503C926.244 389.85 924.119 391.648 903.805 383.851C896.78 381.155 876.378 373.983 872.181 369.637C866.351 363.6 862.615 353.915 859.215 346.269C864.152 344.755 868.849 343.02 873.099 340.017C887.09 330.128 893.089 310.145 895.946 294.119C920.714 294.815 945.609 294.447 970.39 294.484L970.583 0Z"/>
	<path fill="#FEFEFE" d="M429.45 265.138C429.07 211.427 429.114 157.714 429.581 104.004C454.086 103.716 478.618 103.974 503.124 104.062L502.999 265.123C478.483 265.26 453.966 265.265 429.45 265.138Z"/>
	<path fill="#FEFEFE" d="M519.758 265.084L520.038 104.149L594.125 104.014C594.479 139.536 594.6 175.059 594.489 210.583C594.493 228.706 595.42 247.309 594.312 265.374L519.758 265.084Z"/>
	<path fill="#FEFEFE" d="M852.612 241.768C831.471 239.203 810.773 241.132 793.538 254.961C792.212 256.025 791.493 256.873 790.809 258.425C790.905 259.707 790.914 260.368 792.023 261.257C793.664 262.572 796.092 262.046 797.595 263.637C797.159 264.352 796.797 264.733 796.123 265.23C790.755 265.076 785.385 264.953 780.015 264.862L780.011 104.533C804.689 104.352 829.367 104.336 854.045 104.486L853.905 195.94L853.802 226C853.768 230.963 854.117 236.255 853.466 241.159L852.612 241.768Z"/>
	<path fill="#FEFEFE" d="M874.572 236.38C873.143 228.228 874.122 208.918 874.065 199.642L873.978 104.508L947.457 104.517C947.808 158.01 947.816 211.506 947.48 265C941.646 265.027 920.359 266.037 916.279 264.668C917.032 257.498 915.977 251.263 912.054 245.117C907.66 238.299 900.696 233.547 892.746 231.94C885.665 230.578 880.396 232.587 874.572 236.38Z"/>
	<path fill="#010101" d="M325.546 544.046C324.592 566.163 323.878 588.26 322.415 610.353C319.248 654.724 315.214 699.028 310.316 743.241C309.026 753.851 308.533 764.621 306.953 775.183L306.524 778.985C304.962 791.992 303.807 805.079 302.117 818.061C297.902 858.105 293.07 898.324 292.505 938.624L293.145 939.088C303.241 946.35 318.938 953.251 330.876 956.91C344.545 961.101 362.282 957.626 370.442 972.518C371.569 974.575 373.091 977.209 373.425 979.539C373.638 981.022 373.558 981.631 372.703 982.842C368.137 985.115 361.372 984.871 356.25 985.306C326.169 987.86 296.394 987.409 266.255 987.546C259.706 987.576 239.02 988.666 233.761 987.137C232.333 986.722 231.648 986.149 231.026 984.829C230.504 983.721 230.224 982.514 229.943 981.327C213.302 980.498 196.616 980.592 179.958 980.551C171.948 980.531 160.744 981.62 153.12 979.816C146.971 978.362 140.084 973.18 134.624 969.934C132.016 972.077 130.492 972.796 127.085 972.471C118.119 971.616 98.5398 964.396 91.9756 958.31L92.1361 957.744C96.0327 944.5 103.905 932.055 107.018 918.675C109.052 909.93 108.788 900.272 110.13 891.335C113.829 866.717 118.285 842.25 125.328 818.333C127.712 805.096 133.279 791.288 138.204 778.814L139.43 775.428C141.171 767.137 147.301 752.265 150.274 743.625C163.19 699.843 170.404 660.064 174.187 614.671C175.281 601.549 176.425 588.267 176.469 575.093C171.351 574.753 166.231 574.359 161.184 573.399C124.958 566.511 95.4225 536.159 75.2356 506.899C69.2694 498.251 64.3779 488.876 58.4954 480.154C60.1936 474.023 62.9512 467.982 65.4331 462.132C72.9239 444.474 81.3869 428.717 92.0077 412.769L90.5678 411.426C89.1351 410.111 88.116 409.281 87.4253 407.426C87.6529 402.508 97.4295 394.229 101.138 390.709C108.142 384.059 117.627 374.392 126.971 371.826C131.466 370.591 136.017 370.85 140.624 370.972C159.787 331.323 182.371 295.487 213.293 263.905C221.467 255.557 230.929 248.949 239.441 241.048C245.345 235.568 263.76 212.216 267.735 205.146C265.108 201.75 261.213 199.276 258.101 196.317C253.564 192.004 251.084 187.533 251.035 181.17C250.97 172.538 256.487 171.764 261.556 166.868C263.396 163.328 259.969 157.159 259.906 153.117C259.855 149.872 260.812 146.934 262.683 144.285C268.544 135.991 273.345 139.583 280.276 135.274C284.22 132.823 287.027 128.538 290.295 125.28C296.868 118.729 306.227 115.211 315.462 115.295C320.445 115.341 325.142 116.72 330.04 117.394C334.116 117.954 338.342 117.825 342.338 118.848C355.057 122.106 368.433 134.672 377.378 143.964C386.256 153.185 391.873 164.526 391.539 177.505C391.355 184.643 388.667 194.686 380.847 196.894C378.787 197.476 375.824 197.32 374.251 198.815C373.401 204.433 376.616 210.198 377.44 215.718C377.735 217.693 377.646 219.812 376.344 221.431C374.358 223.898 370.948 223.966 368.057 224.173C363.164 231.082 354.847 247.679 346.408 249.162C340.377 250.222 334.725 246.257 330.044 242.998L321.396 254.237C326.13 261.669 320.288 274.266 320.622 282.942C321.051 294.11 324.208 307.958 325.287 319.77C327.385 342.74 327.516 365.57 327.565 388.609C334.878 392.593 341.527 397.855 348.805 401.98C369.734 413.843 393.826 423.135 417.354 428.202C424.646 429.772 434.316 430.232 440.523 434.353C453.567 432.945 472.996 427.238 485.324 428.382C488.038 428.634 490.678 429.655 493.078 430.908C502.454 435.804 514.724 444.765 517.745 455.47C519.4 461.334 518.135 465.879 515.282 470.99C515.45 473.508 515.619 476.169 516.451 478.567C519.424 487.139 536.915 513.164 536.398 518.559C536.207 520.543 534.585 523.706 532.846 524.754C531.689 525.452 530.375 525.422 529.114 525.072C523.982 523.65 521.454 518.49 519.032 514.254C519.857 518.377 522.019 526.795 519.559 530.501C518.731 531.749 517.788 532.314 516.362 532.664C514.108 533.216 510.997 533.031 509.105 531.538C505.969 529.063 499.386 491.386 498.099 485.296C493.071 487.673 487.783 489.654 482.532 491.48C465.527 497.391 458.03 495.005 440.613 492.821C433.574 491.939 427.687 491.328 420.715 493.101C420.484 497.067 420.672 502.504 417.898 505.592C413.162 507.932 404.725 506.314 399.542 505.897C375.498 503.963 351.372 500.682 328.254 493.572C329.717 500.824 334.837 533.069 334.276 539.128C332.407 542.024 328.626 542.911 325.546 544.046ZM359.605 180.973C354.171 186.511 343.287 194.307 335.131 194.582C332.949 194.656 330.9 193.926 329.354 192.363C325.274 188.24 326.784 175.561 321.213 175.13C319.181 174.972 316.463 176.411 315.074 177.833C312.91 180.048 312.379 183.555 312.482 186.522C312.595 189.742 313.574 194.69 315.846 197.137C317.222 198.62 320.062 199.354 321.876 200.152C322.789 200.554 322.475 200.388 323.185 201.251C323.06 201.918 323.133 202.509 322.566 202.964C321.543 203.784 320.01 203.962 318.755 204.25C309.864 214.04 303.11 221.108 289.193 221.806C288.671 221.832 288.148 221.852 287.626 221.868C297.019 231.764 307.378 240.663 316.875 250.424C319.473 247.544 321.951 244.596 324.391 241.582C324.846 241.009 325.754 240.286 325.66 239.513C325.301 236.572 321.281 233.709 319.961 230.988C318.455 227.882 317.948 219.46 319.554 216.451L320.371 216.438C327.498 224.457 320.991 229.698 335.32 239.867C337.83 241.648 340.816 243.564 343.992 243.63C346.557 243.683 348.704 242.329 350.386 240.482C352.329 238.349 353.843 235.117 355.278 232.593C351.173 230.299 347.335 229.061 346.074 224.14C345.502 221.906 345.26 217.044 346.822 215.185C347.601 214.257 348.047 214.313 349.138 214.328C353.158 218.558 355.923 221.448 361.218 224.148L364.02 218.48C366.095 218.712 367.966 219.053 370.004 218.43C371.082 217.495 371.543 217.027 371.697 215.554C371.956 213.066 369.024 203.762 368.787 199.257C370.533 196.304 372.216 194.406 375.188 192.665C372.718 190.663 369.401 187.289 366.53 186.113C365.029 185.498 362.138 186.206 361.024 185.115C359.984 184.097 359.786 182.353 359.605 180.973C360.719 180.681 360.287 180.737 361.323 180.659C362.784 180.548 363.928 180.595 365.224 179.812C366.145 178.204 365.759 175.863 365.705 174.055C363.273 175.178 361.186 178.833 359.605 180.973ZM224.871 776.908C222.101 781.4 220.041 786.439 217.837 791.223C213.632 800.349 209.576 809.575 205.059 818.549C200.42 827.344 196.543 836.575 192.48 845.65C180.41 872.614 168.91 900.326 163.516 929.499C171.416 942.539 185.119 953.673 200.021 957.357C210.18 959.868 221.871 960.217 228.013 970.214C228.838 971.557 229.579 972.962 230.326 974.349C234.84 949.173 232.208 923.632 230.875 898.312C229.479 871.78 228.003 845.152 227.31 818.591C226.288 804.716 226.199 790.755 224.871 776.908ZM269.319 212.298L256.712 229.239C266.717 249.66 288.473 263.618 308.22 273.454C310.53 274.512 312.829 275.62 315.167 276.615C316.032 270.618 316.836 264.612 317.58 258.599C305.244 247.245 293.436 235.357 281.276 223.816C277.328 220.07 273.497 215.731 269.319 212.298ZM252.761 233.915C245.292 241.828 238.182 252.339 234.173 262.431C253.56 259.378 261.245 257.67 277.995 270.005C296.985 283.989 306.407 305.092 309.785 327.873C311.562 339.853 312.073 352.323 311.731 364.424C311.223 382.373 309.465 400.214 312.269 418.124C312.576 420.48 312.861 422.811 313.397 425.128C316.256 426.481 319.099 427.881 322.049 429.029C322.202 418.743 322.502 408.406 322.385 398.119C322.345 394.587 321.965 391.06 321.947 387.532C321.928 383.523 322.32 379.52 322.286 375.501C322.014 344.029 319.922 313.039 314.301 282.026C291.476 272.401 264.742 256.472 252.761 233.915ZM248.545 273.212C239.871 274.003 231.897 276.826 226.123 283.691C208.805 304.285 200.195 379.811 197.953 408.245C216.763 424.033 241.996 443.966 244.263 470.332C245.093 479.985 243.147 489.426 241.339 498.843C248.731 482.836 255.338 465.076 254.68 447.114C254.403 439.555 247.185 422.163 244.93 413.238C238.832 389.1 234.87 364.307 231.536 339.655C230.899 334.94 229.278 329.476 229.426 324.794C229.476 323.202 229.777 322.036 230.952 320.892C232.14 320.495 232.095 320.46 233.24 320.951C234.392 322.47 234.877 323.856 235.273 325.722C236.036 329.312 236.214 333.009 236.717 336.638L239.775 358.556C242.29 376.958 245.884 396.047 251.088 413.892C256.077 431.878 262.999 460.315 280.263 469.944C287.328 473.885 295.301 476.895 302.88 479.701C330.582 489.959 359.101 496.157 388.399 499.626C389.242 486.534 390.376 473.324 390.656 460.215C362.067 452.497 334.915 443.036 308.902 428.667C304.097 432.092 297.242 438.549 291.515 439.407C290.221 438.978 290.314 439.006 289.676 437.792C289.836 436.043 290.258 435.447 291.592 434.303C296.284 430.279 302.266 427.205 307.583 424.021C306.246 408.156 305.114 392.274 304.186 376.379C302.829 355.745 301.78 332.898 295.053 313.179C291.308 302.202 284.349 290.291 275.342 282.814C268.047 276.759 258.008 273.191 248.545 273.212ZM196.697 305.48C181.655 324.595 164.896 353.581 153.468 375.254C158.176 377.64 162.735 380.308 167.121 383.244C172.915 387.176 179.138 391.001 184.433 395.592C185.754 377.641 186.934 359.662 189.52 341.838C190.499 335.143 191.717 328.486 193.172 321.878C194.086 317.587 197.026 309.507 196.697 305.48ZM132.339 376.116C119.56 378.456 101.963 396.822 93.6735 406.915C103.393 416.148 111.81 426.774 121.146 436.404C129.214 444.726 182.177 496.454 189.173 496.326L190.661 495.175C203.168 482.153 215.575 470.155 230.77 460.238C216.81 433.967 176.512 401.783 151.564 385.514C146.916 382.483 141.054 377.997 135.731 376.522C134.618 376.214 133.485 376.145 132.339 376.116ZM327.999 395.265C327.256 407.275 326.922 420.178 327.798 432.175C348.057 442.911 375.456 451.797 398.041 455.803C399.466 452.45 400.993 449.386 402.937 446.303C406.358 441.981 410.333 437.796 413.338 433.195C390.554 425.593 370.523 420.375 349.092 408.641C341.757 404.625 335.09 399.662 327.999 395.265ZM95.742 417.759C81.5924 435.247 72.2058 458.313 64.7224 479.337C85.9413 515.442 115.22 555.176 157.425 567.108L162.881 568.293C168.117 544.139 176.107 524.768 186.648 502.597C162.286 484.946 140.541 463.9 119.354 442.617C113.286 436.521 101.774 421.884 95.742 417.759ZM480.276 433.707C466.194 434.888 452.198 439.364 438.174 439.484C435.532 444.367 433.233 448.804 431.992 454.232C434.656 455.167 437.275 456.003 440.017 456.677C451.687 453.271 462.806 449.865 475.117 451.362C477.449 450.152 479.972 449.036 482.108 447.504C481.61 447.444 481.222 447.352 480.731 447.477C478.702 447.078 476.258 446.601 474.844 444.93C474.223 444.196 474.148 443.443 474.026 442.535C474.548 441.135 474.648 441.064 475.878 440.203C477.214 439.995 478.134 439.88 479.3 440.704C480.066 441.245 480.774 442.151 481.405 442.85C487.552 443.188 491.958 444.557 496.202 449.414C500.026 453.79 501.665 459.547 505.341 464.125C505.997 464.942 506.624 465.783 507.273 466.607C505.34 454.811 502.468 443.955 491.992 436.698C488.459 434.251 484.54 433.24 480.276 433.707ZM419.28 434.399C415.161 442.504 408.459 446.165 403.967 456.634C409.321 457.795 414.983 458.378 420.243 459.815L424.848 461.723C426.402 452.853 428.314 444.026 433.481 436.47C428.807 435.683 424.017 434.617 419.28 434.399ZM464.25 456.182C455.698 457.069 447.038 459.501 439.169 462.963C434.633 464.959 429.966 467.65 425.131 468.762C424.818 468.834 424.507 468.913 424.194 468.981C424.006 469.023 423.816 469.056 423.627 469.093C422.883 474.939 422.58 480.816 421.888 486.66C437.703 485.166 453.524 491.776 469.327 489.736C473.395 489.211 477.235 487.937 481.122 486.675C484.956 485.302 494.731 482.57 496.907 478.863C497.539 477.787 497.283 477.293 496.924 476.229C493.909 475.609 489.503 476.972 486.309 477.27C481.463 477.722 476.448 478.106 471.58 477.921C469.283 476.465 465.59 474.458 465.01 471.54C464.784 470.402 465.189 469.419 466.014 468.635C469.175 465.629 487.072 465.653 492.379 465.079C492.141 463.078 491.957 461.118 491.921 459.102C481.838 460.328 472.52 455.134 464.25 456.182ZM259.22 457.288C257.883 472.189 253.763 486.706 247.076 500.088C244.163 506.055 240.693 511.94 238.171 518.07C235.691 524.1 233.892 530.571 232.231 536.873C255.363 542.985 278.695 545.555 302.525 543.357C311.378 542.128 321 540.44 329.077 536.436C327.067 521.648 324.059 506.844 323.45 491.896C310.291 489.003 280.448 478.902 270.827 470.267C267.578 467.351 262.26 458.901 259.22 457.288ZM396.254 461.292C395.127 474.164 395.354 487.172 393.994 500.011C397.365 500.327 412.593 501.838 414.725 500.326C416.72 488.396 417.446 476.285 418.378 464.236C411.029 463.178 403.65 461.94 396.254 461.292ZM491.028 469.709C487.347 470.065 475.161 470.223 473.104 472.053C473.844 473.14 474.245 473.13 475.407 473.659C479.334 473.206 491.319 472.669 494.159 470.484L493.601 469.79C492.697 469.696 491.933 469.586 491.028 469.709ZM503.782 477.118C505.27 478.906 505.29 480.212 505.391 482.459L504.911 483.192L503.516 483.35C502.906 484.61 502.98 484.933 503.174 486.332C503.739 490.402 505.338 494.515 506.207 498.573C507.922 506.587 509.241 518.951 512.04 526.179C512.311 526.88 512.378 526.955 512.706 527.516C514.047 527.639 514.024 527.706 515.098 526.913C517.883 520.553 509.8 504.316 514.765 500.245C515.617 500.21 516.365 500.151 517.208 500.301C520.549 506 524.503 515.357 529.561 519.385L530.36 519.358C531.597 514.414 519.072 495.433 516.003 490.306C513.763 486.607 511.448 482.953 509.059 479.348C507.948 478.824 504.831 476.899 503.782 477.118ZM230.858 542.305C227.419 553.373 221.359 562.332 210.918 567.834C202.096 572.483 191.962 574.116 182.106 574.65C181.136 630.881 172.666 686.73 156.923 740.721C153.838 751.341 150.433 761.865 146.713 772.279C143.419 781.283 139.64 790.155 136.704 799.282C124.816 836.232 115.696 878.693 112.923 917.549C125.164 925.292 139.05 932.601 154.112 929.317C155.521 929.01 156.88 928.524 158.23 928.024C165.16 886.889 188.213 840.129 206.227 802.288C211.27 791.694 221.854 773.314 224.239 763.133C225.828 756.348 223.896 747.82 223.443 740.825C220.494 695.334 216.001 649.2 205.314 604.793C205.286 603.159 205.161 602.51 205.932 601.037C206.956 600.525 207.437 600.353 208.583 600.475C212.168 603.814 214.077 618.837 215.044 623.865C225.29 677.13 228.263 726.984 231.083 780.862L238.77 942.305C254.399 945.432 271.96 945.573 287.04 940.048C287.12 910.245 289.953 880.575 293.02 850.958C295.872 822.314 299.02 793.7 302.464 765.121C304.793 743.253 306.979 721.371 309.024 699.475C314.036 648.381 318.482 596.966 320.095 545.638C290.793 552.647 259.815 549.786 230.858 542.305ZM110.753 924.125C110.491 925.727 110.223 926.789 110.985 928.316C115.699 932.975 125.18 934.244 131.053 937.677C135.713 940.401 140.02 944.374 144.139 947.849C155.157 957.147 159.493 960.33 174.2 961.401C178.847 961.739 183.516 962.107 188.177 962.079C189.583 962.071 190.909 962.123 192.256 961.662L192.179 961.229C177.604 955.578 168.059 945.508 158.737 933.301C150.895 937.377 138.95 935.467 130.902 932.923C123.993 930.738 116.959 925.803 110.753 924.125ZM290.682 945.007C274.283 952.756 255.508 950.429 238.021 948.54L237.885 955.102C253.817 954.968 260.671 956.864 274.748 963.907C278.621 965.844 282.637 968.236 286.787 969.48C303.473 973.798 323.034 973.063 338.811 965.567C329.449 962.591 320.264 959.474 311.267 955.503C306.068 953.208 294.84 945.8 290.682 945.007Z"/>
	<path fill="#FEFEFE" d="M359.605 180.973C361.186 178.833 363.273 175.178 365.705 174.055C365.759 175.863 366.145 178.204 365.224 179.812C363.928 180.595 362.784 180.548 361.323 180.659C360.287 180.737 360.719 180.681 359.605 180.973Z"/>
	<path fill="#FEFEFE" d="M287.626 221.868C288.148 221.852 288.671 221.832 289.193 221.806C303.11 221.108 309.864 214.04 318.755 204.25C320.01 203.962 321.543 203.784 322.566 202.964C323.133 202.509 323.06 201.918 323.185 201.251C322.475 200.388 322.789 200.554 321.876 200.152C320.062 199.354 317.222 198.62 315.846 197.137C313.574 194.69 312.595 189.742 312.482 186.522C312.379 183.555 312.91 180.048 315.074 177.833C316.463 176.411 319.181 174.972 321.213 175.13C326.784 175.561 325.274 188.24 329.354 192.363C330.9 193.926 332.949 194.656 335.131 194.582C343.287 194.307 354.171 186.511 359.605 180.973C359.786 182.353 359.984 184.097 361.024 185.115C362.138 186.206 365.029 185.498 366.53 186.113C369.401 187.289 372.718 190.663 375.188 192.665C372.216 194.406 370.533 196.304 368.787 199.257C369.024 203.762 371.956 213.066 371.697 215.554C371.543 217.027 371.082 217.495 370.004 218.43C367.966 219.053 366.095 218.712 364.02 218.48L361.218 224.148C355.923 221.448 353.158 218.558 349.138 214.328C348.047 214.313 347.601 214.257 346.822 215.185C345.26 217.044 345.502 221.906 346.074 224.14C347.335 229.061 351.173 230.299 355.278 232.593C353.843 235.117 352.329 238.349 350.386 240.482C348.704 242.329 346.557 243.683 343.992 243.63C340.816 243.564 337.83 241.648 335.32 239.867C320.991 229.698 327.498 224.457 320.371 216.438L319.554 216.451C317.948 219.46 318.455 227.882 319.961 230.988C321.281 233.709 325.301 236.572 325.66 239.513C325.754 240.286 324.846 241.009 324.391 241.582C321.951 244.596 319.473 247.544 316.875 250.424C307.378 240.663 297.019 231.764 287.626 221.868ZM361.946 188.761C359.984 190.749 358.261 193.427 358.289 196.338C358.301 197.561 358.725 198.247 359.431 199.195C361.043 200.199 362.144 200.125 363.949 200.034C365.81 198.538 366.979 197.546 367.284 195.049C367.499 193.289 367.03 191.8 365.819 190.487C364.711 189.287 363.473 188.985 361.946 188.761Z"/>
	<path fill="#010101" d="M363.949 200.034C362.144 200.125 361.043 200.199 359.431 199.195C358.725 198.247 358.301 197.561 358.289 196.338C358.261 193.427 359.984 190.749 361.946 188.761C363.473 188.985 364.711 189.287 365.819 190.487C367.03 191.8 367.499 193.289 367.284 195.049C366.979 197.546 365.81 198.538 363.949 200.034Z"/>
	<path fill="#FEFEFE" d="M256.712 229.239L269.319 212.298C273.497 215.731 277.328 220.07 281.276 223.816C293.436 235.357 305.244 247.245 317.58 258.599C316.836 264.612 316.032 270.618 315.167 276.615C312.829 275.62 310.53 274.512 308.22 273.454C288.473 263.618 266.717 249.66 256.712 229.239Z"/>
	<path fill="#010101" d="M874.572 236.38C880.396 232.587 885.665 230.578 892.746 231.94C900.696 233.547 907.66 238.299 912.054 245.117C915.977 251.263 917.032 257.498 916.279 264.668C913.464 273.849 910.272 281.611 901.206 286.286C899.708 287.059 898.163 287.75 896.626 288.445C896.448 290.332 896.348 292.265 895.946 294.119C893.089 310.145 887.09 330.128 873.099 340.017C868.849 343.02 864.152 344.755 859.215 346.269C862.615 353.915 866.351 363.6 872.181 369.637C876.378 373.983 896.78 381.155 903.805 383.851C924.119 391.648 926.244 389.85 939.666 408.503C960.86 415.843 975.834 431.033 985.589 451.066C997.008 474.518 993.707 500.984 993.989 526.249L1024 526.225L1024 531.917L537.246 531.508L537.362 562.162L859.454 562.193L968.47 562.078C986.957 562.061 1005.52 561.682 1024 562.084L1024 567.573L551.462 567.667C551.501 609.907 550.608 652.277 551.329 694.499C557.841 696.072 562.877 698.8 566.397 704.77C569.27 709.643 570.42 715.192 570.677 720.786C577.724 721.834 584.771 722.849 591.768 724.202C591.946 710.724 590.478 616.362 592.554 612.938C593.68 612.236 594.523 612.079 595.815 612.02C606.151 611.547 616.666 611.975 627.027 611.959L690.636 611.939L726.91 612.037C735.502 612.047 744.385 611.624 752.906 612.809L752.59 811.316C752.539 837.013 753.145 862.746 752.885 888.434L648.297 888.363C648.413 902.659 647.822 917.029 648.146 931.302L1024 931.052L1024 936.513L648.522 936.39L648.497 977.603L1024 977.573L1024 982.885C898.813 982.27 773.624 982.29 648.438 982.944C648.468 985.674 648.341 988.353 648.163 991.074C635.096 994.16 621.17 995.701 607.898 997.857C599.362 999.244 585.547 1002.44 577.257 1002.28C571.419 1002.16 564.316 999.549 558.575 998.112C546.817 995.135 535.042 992.22 523.253 989.368L464.307 975.366C454.217 973.028 438.796 970.521 429.657 966.523C429.192 953.225 429.457 939.84 429.464 926.534C429.479 897.784 429.769 869.003 429.399 840.257C430.151 820.127 429.372 799.775 429.523 779.612L429.523 775.96C429.342 765.027 429.33 754.093 429.486 743.16C429.477 738.437 428.888 733.172 429.68 728.531C430.207 725.447 431.394 723.625 433.977 721.869C435.931 720.541 438.159 719.614 440.433 718.999C446.334 717.402 452.772 716.751 458.808 715.664C468.569 713.906 478.767 711.442 488.666 710.88C494.256 710.607 499.859 711.003 505.355 712.062C506.99 706.974 509.397 702.187 513.568 698.692C522.314 691.364 535.497 693.035 546.016 694.115C545.911 651.956 546.029 609.798 546.37 567.64C542.84 567.68 537.705 568.33 534.424 567.113C533.209 566.663 532.403 566.133 531.911 564.886C531.494 563.826 531.655 535.454 531.861 532.22C531.98 530.343 532.198 528.624 533.022 526.914C537.65 525.151 598.571 526.048 608.624 526.058L718.743 526.096C713.203 519.693 707.182 513.723 700.733 508.237C693.593 502.216 683.62 495.403 678.087 488.013C679.998 485.303 681.957 482.628 683.963 479.988C680.454 476.634 676.33 473.893 672.641 470.737C663.248 462.701 662.873 451.469 661.348 440.091C658.448 438.119 655.904 435.99 653.382 433.552C650.787 431.043 646.468 426.751 646.781 422.838C646.973 420.447 648.585 419.486 650.303 418.08C649.438 417.22 648.559 416.356 647.765 415.429C645.957 413.317 644.195 409.793 644.769 406.925C645.036 405.596 645.766 404.862 646.938 404.263C649.164 403.126 651.769 404.049 654.014 404.647C652.267 402.476 650.264 400.216 649.587 397.447C649.157 395.69 649.185 393.707 650.316 392.205C651.016 391.276 652.089 390.755 653.206 390.535C658.051 389.582 663.46 393.665 667.196 396.241C676.515 402.666 684.489 409.732 689.881 419.826C691.747 423.308 693.16 427.014 694.085 430.855C695.412 436.243 697.827 456.928 702.47 459.382C703.848 460.11 706.16 459.64 707.7 460.506C710.531 462.098 719.985 471.344 723.772 474.186C732.559 480.779 742.367 486.267 751.345 492.712C755.894 474.128 761.408 456.03 766.942 437.732C769.35 429.77 771.061 421.132 774.73 413.656C777.59 407.829 781.733 402.124 786.97 398.212C793.473 393.354 800.985 389.253 808.086 385.334C813.424 382.388 819.052 379.778 823.549 375.588L824.053 375.109C823.643 370.125 822.837 365.182 821.643 360.326C813.489 361.122 805.446 364.367 797.257 364.524C794.287 364.581 792.244 363.828 790.183 361.652C786.024 357.26 781.469 339.537 781.727 333.405C781.812 331.387 783.607 330.132 784.982 328.863C781.591 327.697 777.72 326.757 775.932 323.317C772.739 317.173 784.817 303.923 787.261 295.684L787.458 294.999C787.673 284.817 789.855 273.463 796.123 265.23C796.797 264.733 797.159 264.352 797.595 263.637C796.092 262.046 793.664 262.572 792.023 261.257C790.914 260.368 790.905 259.707 790.809 258.425C791.493 256.873 792.212 256.025 793.538 254.961C810.773 241.132 831.471 239.203 852.612 241.768C858.205 243.118 863.604 245.023 869.005 246.981C869.929 242.426 871.48 239.749 874.572 236.38ZM885.888 237.068C881.98 238.082 878.521 239.364 876.361 243.002C873.975 247.023 873.289 252.614 874.498 257.113C877.567 268.533 886.593 269.088 893.115 275.743C894.507 277.163 895.224 279.779 896.305 281.539C897.275 281.755 897.433 281.734 898.381 281.426C904.55 277.716 908.6 272.664 910.247 265.524C911.694 259.253 910.473 253.069 906.917 247.72C903.407 242.44 897.921 238.397 891.61 237.295C889.685 236.959 887.831 236.955 885.888 237.068ZM835.196 246.218C822.165 246.83 809.542 249.982 798.677 257.463C808.583 260.594 819.446 264.651 824.637 274.418C827.242 279.32 825.988 283.514 827.451 288.306C828.701 292.396 834.078 293.081 835.367 297.029C836.929 301.814 835.967 307.777 836.687 312.801C840.628 306.425 843.675 297.119 851.968 295.421C854.498 294.904 856.982 295.52 859.043 297.056C861.876 299.167 863.48 302.615 863.817 306.078C864.411 312.168 861.518 317.553 857.641 322.014C857.401 322.288 857.159 322.559 856.913 322.827C854.194 325.453 851.458 327.829 848.143 329.691C851.613 333.965 855.213 337.123 859.661 340.352C869.639 337.618 875.713 331.044 880.729 322.26C886.065 312.918 893.119 293.777 890.075 282.993C889.717 281.727 889.102 280.521 888.518 279.347C877.065 271.138 870.948 268.868 868.21 253.487C857.093 248.441 847.507 246.042 835.196 246.218ZM803.376 264.776C798.293 271.465 795.678 276.99 793.93 285.207C796.988 283.459 800.835 281.556 804.444 282.678C806.091 283.19 807.645 284.481 808.47 285.999C808.821 286.645 809.022 287.378 809.239 288.073C808.667 289.444 808.45 289.526 807.2 290.367C805.373 290.515 804.939 290.139 803.506 288.947C803.32 288.793 803.14 288.631 802.958 288.473C800.021 288.463 796.984 289.418 794.126 290.058C793.403 294.006 792.505 297.415 790.883 301.086C789.459 304.305 780.441 318.62 780.646 320.525C780.698 321.007 781.031 321.415 781.224 321.861C784.882 323.947 786.022 320.489 788.346 326.085C788.795 327.165 789.089 327.642 790.112 328.289C795.108 327.465 804.714 323.895 809.174 327.5C810.063 328.216 810.538 329.328 810.441 330.465C810.127 334.467 804.873 339.472 801.626 341.61C798.414 343.725 795.254 344.809 791.467 343.899C790.749 343.723 790.036 343.531 789.327 343.323C790.035 347.289 790.747 355.729 794.549 358.093C800.516 361.803 827.273 350.377 832.29 353.799C832.22 355.316 831.691 356.055 830.599 357.157C829.731 358.032 828.38 358.605 827.289 359.14C829.798 366.952 831.065 374.075 829.662 382.229C829.051 385.78 828.197 389.385 828.286 393.004C828.402 397.724 830.359 402.165 831.313 406.741C832.269 411.324 833.19 425.559 835.426 428.801C836.119 428.45 835.933 428.678 836.165 428.321C838.653 423.018 840.89 417.241 844.327 412.488C843.901 411.351 843.41 410.352 842.834 409.288C843.113 405.402 864.999 381.023 868.815 375.225C860.317 366.61 857.898 354.45 852.18 344.261C850.931 342.037 843.506 331.231 841.255 331.276C839.156 331.317 837.127 333.538 835.64 334.863C834.222 333.502 833.103 332.562 832.553 330.634C832.789 329.275 832.897 328.661 834.06 327.819C836.787 325.843 841.557 325.978 844.715 324.838C850.141 322.878 856.867 316.21 858.331 310.563C859.015 307.923 858.621 305.314 857.156 303.019C856.523 302.026 855.895 301.519 854.916 300.894C853.372 300.694 852.41 300.797 851.116 301.739C845.389 305.904 843.233 315.216 839.476 318.5C838.6 318.34 837.9 318.152 837.063 317.833C835.232 317.134 832.573 318.011 831.579 316.018C829.662 312.175 830.689 303.67 830.813 299.353C827.015 296.57 824.203 294.218 821.747 290.139L821.546 289.81C821.378 282.384 820.779 276.528 815.081 271.061C812.239 268.335 807.288 265.484 803.376 264.776ZM802.632 330.524L801.962 330.813C798.391 332.325 791.037 332.7 788.927 335.646C789.221 336.833 789.596 337.435 790.363 338.383C793.383 339.174 795.068 339.073 797.795 337.5C799.609 336.453 802.576 334.293 803.013 332.089C803.102 331.639 803.051 331.307 803.017 330.868L802.632 330.524ZM873.941 378.333C865.932 388.499 857.952 398.491 849.433 408.238C854.258 412.856 859.297 417.626 863.57 422.76C866.564 425.779 869.765 428.444 873.054 431.126C874.835 414.39 876.468 398.111 880.153 381.668C878.035 380.623 875.938 379.601 873.941 378.333ZM821.615 385.401C818.29 387.213 815.038 389 811.961 391.215C810.488 396.01 805.463 418.283 806.393 422.41C807.278 421.707 806.979 422.092 807.407 421.357C812.316 414.266 817.339 407.502 824.312 402.286C823.01 397.329 822.378 392.692 822.487 387.565C822.503 386.798 822.403 386.245 822.152 385.523L821.615 385.401ZM915.789 394.443C907.279 402.42 901.12 428.914 900.627 440.824C900.317 448.333 901.687 456.404 902.333 463.922L905.783 504.36C906.404 511.661 907.352 519.089 907.556 526.409L934.25 526.437L949.488 526.357C949.39 512.399 947.948 498.267 946.923 484.343C945.551 465.703 945.164 445.85 940.191 427.779C937.519 418.068 933.295 407.874 926.02 400.665C922.986 397.658 919.925 395.629 915.789 394.443ZM654.931 395.959C655.022 396.2 655.106 396.445 655.205 396.683C656.256 399.207 659.037 401.749 660.928 403.716C668.593 411.69 679.165 420.814 680.502 432.426C680.763 434.694 680.886 437.297 680.1 439.483C679.671 440.677 679.113 441.958 678.099 442.757C677.062 442.927 677.247 443.116 676.485 442.575C671.681 439.16 673.327 430.061 667.53 427.182C666.496 427.707 666.7 427.349 666.39 428.336C664.896 433.099 669.235 457.072 671.897 461.379C673.135 463.383 674.88 465.177 676.586 466.791C680.252 470.022 683.899 473.267 687.713 476.324C691.853 472.789 695.553 468.954 698.879 464.642C683.051 442.882 698.226 426.4 668.453 404.067C664.493 401.096 659.78 397.115 654.931 395.959ZM793.314 400.932C788.078 405.079 782.903 409.485 779.718 415.48C776.272 421.965 775.172 430.013 773.096 437.025C766.084 460.715 758.185 484.138 754.605 508.652C754.043 512.503 754.715 519.324 749.86 520.25C748.73 519.589 748.453 519.152 748.183 517.843C747.087 512.539 749.583 504.453 750.62 499.108C741.888 493.279 733.921 487.165 724.488 482.402C720.823 486.633 717.167 490.855 713.671 495.229C711.082 498.549 708.356 501.823 705.915 505.25C713.077 512.111 719.844 519.72 727.515 525.983C744.463 526.498 761.493 526.117 778.452 526.066C779.083 497.886 782.284 469.18 787.242 441.428C788.366 435.138 794.311 404.838 793.314 400.932ZM824.73 409.277C821.109 412.686 818.402 416.963 815.597 421.037C813.235 424.467 810.227 428.149 808.598 431.992C805.609 439.039 806.145 455.233 805.907 463.074C805.273 483.949 805.954 505.453 809.317 526.095L817.125 526.074L821.86 526.072C820.61 518.754 819.241 511.45 818.723 504.035C817.185 482.017 821.413 457.163 831.594 437.457C829.029 432.422 826.665 410.893 824.73 409.277ZM941.922 415.763C947.062 430.143 949.09 442.603 950.168 457.717C957.402 458.74 963.853 463.111 968.17 468.928C975.505 478.812 974.959 490.485 974.998 502.19C975.024 510.213 974.858 518.272 975.108 526.288C979.562 526.293 984.045 526.404 988.493 526.174C988.385 488.705 992.866 458.352 963.365 429.153C957.296 423.145 950.219 418.135 941.922 415.763ZM850.565 416.849C846.583 423.386 842.072 429.753 838.526 436.527C823.483 465.272 820.881 494.731 827.985 526.043L835.775 526.155L852.466 526.037C851.701 506.183 853.198 488.248 855.481 468.546C857.045 455.044 858.786 441.684 861.845 428.429C857.923 424.675 854.124 420.956 850.565 416.849ZM950.698 463.029C952.595 484.115 954.015 505.242 954.958 526.392L969.732 526.426L969.59 504.633C969.515 492.503 970.562 478.466 961.2 469.126C958.192 466.125 954.675 464.362 950.698 463.029ZM704.817 466.333C698.315 473.52 692 481.125 684.814 487.636C690.128 492.148 695.594 496.479 701.203 500.619L701.982 500.616C707.94 493.518 713.54 486.076 719.532 479.025C714.701 474.724 709.9 470.336 704.817 466.333ZM597.083 617.538L596.974 724.802C602.601 725.393 608.215 726.092 613.815 726.899C624.201 728.341 632.729 729.825 639.701 738.555C643.961 743.889 646.384 750.467 647.413 757.169C649.509 770.821 648.053 786.584 648.006 800.474C647.892 827.898 647.991 855.323 648.304 882.746L747.772 882.874L747.501 617.845C697.401 617.07 647.195 617.561 597.083 617.538ZM526.06 699.109C521.04 700.035 517.413 701.761 514.334 706.042C511.483 710.006 509.757 716.189 510.728 721.033C511.033 722.554 511.567 723.854 512.87 724.781C513.589 724.738 513.846 724.92 514.329 724.288C517.122 720.628 513.832 712.933 519.026 705.626C528.354 701.982 543.237 702.101 552.499 705.989C553.167 706.269 553.792 706.591 554.432 706.93C557.553 709.317 559.138 711.296 559.697 715.29C560.131 718.399 558.797 728.709 561.164 730.453C561.94 731.025 562.451 731.155 563.369 731.345C564.022 731.021 564.326 731.064 564.591 730.31C566.204 725.718 564.293 712.573 561.96 708.206C559.788 704.138 556.352 701.642 551.969 700.367C544.049 698.062 534.24 698.651 526.06 699.109ZM528.664 708.734C526.641 708.877 524.4 708.753 523.05 710.527C522.934 710.68 522.846 710.852 522.744 711.015C523.244 712.105 523.353 712.125 524.435 712.559C529.112 714.434 535.38 714.509 540.391 715.412C542.15 715.709 543.177 716.097 544.881 715.503C545.586 714.471 546.125 713.933 545.857 712.589C545.629 711.423 544.87 710.429 543.804 709.902C540.096 708.085 532.859 708.773 528.664 708.734ZM481.707 716.684L481.309 717.373C485.325 719.694 498.943 720.995 504.415 722.345C505.077 721.51 505.483 720.469 505.295 719.359C505.113 718.286 504.554 717.449 503.527 717.02C499.634 715.394 486.369 716.33 481.707 716.684ZM521.238 719.324C521.313 720.67 521.158 722.322 521.997 723.437C526.353 724.482 551.858 729.288 554.811 728.867C554.721 727.214 554.874 726.3 553.947 724.903C547.112 721.832 529.114 719.493 521.238 719.324ZM440.276 724.08C438.153 725.025 436.61 726.074 435.808 728.356C433.707 734.345 434.948 747.033 434.969 753.897C438.755 751.795 442.044 749.297 445.228 746.366C450.777 740.495 455.327 734.699 457.693 726.847C451.936 725.611 446.172 724.403 440.276 724.08ZM464.229 728.3C456.397 742.913 450.562 752.753 435.055 760.262C435.751 802.462 435.326 844.74 435.345 886.949C435.352 902.217 434.962 917.577 435.356 932.832C443.224 935.544 448.085 940.143 451.753 947.554C454.924 953.964 456.601 961.221 457.651 968.258L513.455 981.184C524.09 983.733 534.883 987.157 545.691 988.796C550.149 977.891 555.989 968.885 567.268 964.18C569.577 963.217 571.957 962.806 574.419 962.452C573.385 902.536 574.681 842.475 574.495 782.54C565.14 779.674 557.708 776.073 552.856 767.039C548.983 759.826 545.842 749.317 545.326 741.18C518.332 736.751 491.322 732.076 464.229 728.3ZM571.133 728.235C571.184 729.69 570.957 731.525 571.907 732.706C575.241 733.902 578.787 734.259 582.232 735.03C590.578 736.897 598.474 741.769 602.161 749.735C603.457 752.535 604.132 755.501 604.351 758.571C604.853 765.569 604.432 772.834 604.416 779.858L604.372 820.595L604.495 959.671C608.146 959.371 611.687 958.855 615.291 958.202C616.301 947.161 615.309 933.265 615.308 921.822L615.162 841.246L615.318 783.727C615.354 774.558 616.098 764.866 615.202 755.781C614.734 751.042 612.496 745.655 609.444 741.95C601.006 731.706 583.414 730.554 571.133 728.235ZM550.701 742.245C553.194 753.246 555.891 767.034 566.273 773.376C568.781 774.908 571.658 775.964 574.486 776.746C574.571 768.759 576.476 755.482 570.755 749.349C565.683 743.91 557.486 743.812 550.701 742.245ZM435.511 938.668C435.385 946.607 435.371 954.548 435.47 962.488C440.967 963.982 446.503 965.685 452.072 966.863C450.231 956.742 446.82 945.946 437.835 939.865C437.088 939.359 436.341 939.011 435.511 938.668ZM641.564 960.702C623.988 962.379 606.543 965.591 589.008 967.68C582.486 968.456 574.903 967.523 568.66 969.393C565.207 970.427 561.083 974.43 558.803 977.176C555.519 981.13 553.073 985.84 551.165 990.59L558.809 992.348C564.564 993.613 571.27 996.279 577.08 996.558C585.181 996.947 594.901 994.407 602.967 993.132C615.832 991.098 630.463 989.423 642.97 986.24C642.957 982.015 643.655 963.536 642.471 960.918L641.564 960.702Z"/>
	<path fill="#FEFEFE" d="M234.173 262.431C238.182 252.339 245.292 241.828 252.761 233.915C264.742 256.472 291.476 272.401 314.301 282.026C319.922 313.039 322.014 344.029 322.286 375.501C322.32 379.52 321.928 383.523 321.947 387.532C321.965 391.06 322.345 394.587 322.385 398.119C322.502 408.406 322.202 418.743 322.049 429.029C319.099 427.881 316.256 426.481 313.397 425.128C312.861 422.811 312.576 420.48 312.269 418.124C309.465 400.214 311.223 382.373 311.731 364.424C312.073 352.323 311.562 339.853 309.785 327.873C306.407 305.092 296.985 283.989 277.995 270.005C261.245 257.67 253.56 259.378 234.173 262.431Z"/>
	<path fill="#9F8BE8" d="M898.381 281.426C897.433 281.734 897.275 281.755 896.305 281.539C895.224 279.779 894.507 277.163 893.115 275.743C886.593 269.088 877.567 268.533 874.498 257.113C873.289 252.614 873.975 247.023 876.361 243.002C878.521 239.364 881.98 238.082 885.888 237.068C887.831 236.955 889.685 236.959 891.61 237.295C897.921 238.397 903.407 242.44 906.917 247.72C910.473 253.069 911.694 259.253 910.247 265.524C908.6 272.664 904.55 277.716 898.381 281.426Z"/>
	<path fill="#9F8BE8" d="M798.677 257.463C809.542 249.982 822.165 246.83 835.196 246.218C847.507 246.042 857.093 248.441 868.21 253.487C870.948 268.868 877.065 271.138 888.518 279.347C889.102 280.521 889.717 281.727 890.075 282.993C893.119 293.777 886.065 312.918 880.729 322.26C875.713 331.044 869.639 337.618 859.661 340.352C855.213 337.123 851.613 333.965 848.143 329.691C851.458 327.829 854.194 325.453 856.913 322.827C857.159 322.559 857.401 322.288 857.641 322.014C861.518 317.553 864.411 312.168 863.817 306.078C863.48 302.615 861.876 299.167 859.043 297.056C856.982 295.52 854.498 294.904 851.968 295.421C843.675 297.119 840.628 306.425 836.687 312.801C835.967 307.777 836.929 301.814 835.367 297.029C834.078 293.081 828.701 292.396 827.451 288.306C825.988 283.514 827.242 279.32 824.637 274.418C819.446 264.651 808.583 260.594 798.677 257.463Z"/>
	<path fill="#FEFEFE" d="M793.93 285.207C795.678 276.99 798.293 271.465 803.376 264.776C807.288 265.484 812.239 268.335 815.081 271.061C820.779 276.528 821.378 282.384 821.546 289.81L821.747 290.139C824.203 294.218 827.015 296.57 830.813 299.353C830.689 303.67 829.662 312.175 831.579 316.018C832.573 318.011 835.232 317.134 837.063 317.833C837.9 318.152 838.6 318.34 839.476 318.5C843.233 315.216 845.389 305.904 851.116 301.739C852.41 300.797 853.372 300.694 854.916 300.894C855.895 301.519 856.523 302.026 857.156 303.019C858.621 305.314 859.015 307.923 858.331 310.563C856.867 316.21 850.141 322.878 844.715 324.838C841.557 325.978 836.787 325.843 834.06 327.819C832.897 328.661 832.789 329.275 832.553 330.634C833.103 332.562 834.222 333.502 835.64 334.863C837.127 333.538 839.156 331.317 841.255 331.276C843.506 331.231 850.931 342.037 852.18 344.261C857.898 354.45 860.317 366.61 868.815 375.225C864.999 381.023 843.113 405.402 842.834 409.288C843.41 410.352 843.901 411.351 844.327 412.488C840.89 417.241 838.653 423.018 836.165 428.321C835.933 428.678 836.119 428.45 835.426 428.801C833.19 425.559 832.269 411.324 831.313 406.741C830.359 402.165 828.402 397.724 828.286 393.004C828.197 389.385 829.051 385.78 829.662 382.229C831.065 374.075 829.798 366.952 827.289 359.14C828.38 358.605 829.731 358.032 830.599 357.157C831.691 356.055 832.22 355.316 832.29 353.799C827.273 350.377 800.516 361.803 794.549 358.093C790.747 355.729 790.035 347.289 789.327 343.323C790.036 343.531 790.749 343.723 791.467 343.899C795.254 344.809 798.414 343.725 801.626 341.61C804.873 339.472 810.127 334.467 810.441 330.465C810.538 329.328 810.063 328.216 809.174 327.5C804.714 323.895 795.108 327.465 790.112 328.289C789.089 327.642 788.795 327.165 788.346 326.085C786.022 320.489 784.882 323.947 781.224 321.861C781.031 321.415 780.698 321.007 780.646 320.525C780.441 318.62 789.459 304.305 790.883 301.086C792.505 297.415 793.403 294.006 794.126 290.058C796.984 289.418 800.021 288.463 802.958 288.473C803.14 288.631 803.32 288.793 803.506 288.947C804.939 290.139 805.373 290.515 807.2 290.367C808.45 289.526 808.667 289.444 809.239 288.073C809.022 287.378 808.821 286.645 808.47 285.999C807.645 284.481 806.091 283.19 804.444 282.678C800.835 281.556 796.988 283.459 793.93 285.207ZM800.126 300.416C798.326 301.845 796.843 303.055 796.505 305.448C796.289 306.976 796.642 308.349 797.682 309.519C799.107 311.123 800.997 311.572 803.067 311.653C804.633 310.76 805.89 310.04 806.373 308.148C806.825 306.379 806.516 304.57 805.469 303.071C804.677 301.937 803.375 300.799 802.005 300.495C801.438 300.37 800.692 300.417 800.126 300.416Z"/>
	<path fill="#FEFEFE" d="M197.953 408.245C200.195 379.811 208.805 304.285 226.123 283.691C231.897 276.826 239.871 274.003 248.545 273.212C258.008 273.191 268.047 276.759 275.342 282.814C284.349 290.291 291.308 302.202 295.053 313.179C301.78 332.898 302.829 355.745 304.186 376.379C305.114 392.274 306.246 408.156 307.583 424.021C302.266 427.205 296.284 430.279 291.592 434.303C290.258 435.447 289.836 436.043 289.676 437.792C290.314 439.006 290.221 438.978 291.515 439.407C297.242 438.549 304.097 432.092 308.902 428.667C334.915 443.036 362.067 452.497 390.656 460.215C390.376 473.324 389.242 486.534 388.399 499.626C359.101 496.157 330.582 489.959 302.88 479.701C295.301 476.895 287.328 473.885 280.263 469.944C262.999 460.315 256.077 431.878 251.088 413.892C245.884 396.047 242.29 376.958 239.775 358.556L236.717 336.638C236.214 333.009 236.036 329.312 235.273 325.722C234.877 323.856 234.392 322.47 233.24 320.951C232.095 320.46 232.14 320.495 230.952 320.892C229.777 322.036 229.476 323.202 229.426 324.794C229.278 329.476 230.899 334.94 231.536 339.655C234.87 364.307 238.832 389.1 244.93 413.238C247.185 422.163 254.403 439.555 254.68 447.114C255.338 465.076 248.731 482.836 241.339 498.843C243.147 489.426 245.093 479.985 244.263 470.332C241.996 443.966 216.763 424.033 197.953 408.245Z"/>
	<path fill="#010101" d="M803.067 311.653C800.997 311.572 799.107 311.123 797.682 309.519C796.642 308.349 796.289 306.976 796.505 305.448C796.843 303.055 798.326 301.845 800.126 300.416C800.692 300.417 801.438 300.37 802.005 300.495C803.375 300.799 804.677 301.937 805.469 303.071C806.516 304.57 806.825 306.379 806.373 308.148C805.89 310.04 804.633 310.76 803.067 311.653Z"/>
	<path fill="#C5BDFE" d="M153.468 375.254C164.896 353.581 181.655 324.595 196.697 305.48C197.026 309.507 194.086 317.587 193.172 321.878C191.717 328.486 190.499 335.143 189.52 341.838C186.934 359.662 185.754 377.641 184.433 395.592C179.138 391.001 172.915 387.176 167.121 383.244C162.735 380.308 158.176 377.64 153.468 375.254Z"/>
	<path fill="#FEFEFE" d="M790.363 338.383C789.596 337.435 789.221 336.833 788.927 335.646C791.037 332.7 798.391 332.325 801.962 330.813L802.632 330.524L803.017 330.868C803.051 331.307 803.102 331.639 803.013 332.089C802.576 334.293 799.609 336.453 797.795 337.5C795.068 339.073 793.383 339.174 790.363 338.383Z"/>
	<path fill="#9F8BE8" d="M93.6735 406.915C101.963 396.822 119.56 378.456 132.339 376.116C133.485 376.145 134.618 376.214 135.731 376.522C141.054 377.997 146.916 382.483 151.564 385.514C176.512 401.783 216.81 433.967 230.77 460.238C215.575 470.155 203.168 482.153 190.661 495.175L189.173 496.326C182.177 496.454 129.214 444.726 121.146 436.404C111.81 426.774 103.393 416.148 93.6735 406.915Z"/>
	<path fill="#FEFEFE" d="M849.433 408.238C857.952 398.491 865.932 388.499 873.941 378.333C875.938 379.601 878.035 380.623 880.153 381.668C876.468 398.111 874.835 414.39 873.054 431.126C869.765 428.444 866.564 425.779 863.57 422.76C859.297 417.626 854.258 412.856 849.433 408.238Z"/>
	<path fill="#FEFEFE" d="M811.961 391.215C815.038 389 818.29 387.213 821.615 385.401L822.152 385.523C822.403 386.245 822.503 386.798 822.487 387.565C822.378 392.692 823.01 397.329 824.312 402.286C817.339 407.502 812.316 414.266 807.407 421.357C806.979 422.092 807.278 421.707 806.393 422.41C805.463 418.283 810.488 396.01 811.961 391.215Z"/>
	<path fill="#FEFEFE" d="M907.556 526.409C907.352 519.089 906.404 511.661 905.783 504.36L902.333 463.922C901.687 456.404 900.317 448.333 900.627 440.824C901.12 428.914 907.279 402.42 915.789 394.443C919.925 395.629 922.986 397.658 926.02 400.665C933.295 407.874 937.519 418.068 940.191 427.779C945.164 445.85 945.551 465.703 946.923 484.343C947.948 498.267 949.39 512.399 949.488 526.357L934.25 526.437L907.556 526.409Z"/>
	<path fill="#FEFEFE" d="M327.798 432.175C326.922 420.178 327.256 407.275 327.999 395.265C335.09 399.662 341.757 404.625 349.092 408.641C370.523 420.375 390.554 425.593 413.338 433.195C410.333 437.796 406.358 441.981 402.937 446.303C400.993 449.386 399.466 452.45 398.041 455.803C375.456 451.797 348.057 442.911 327.798 432.175Z"/>
	<path fill="#FEFEFE" d="M676.586 466.791C674.88 465.177 673.135 463.383 671.897 461.379C669.235 457.072 664.896 433.099 666.39 428.336C666.7 427.349 666.496 427.707 667.53 427.182C673.327 430.061 671.681 439.16 676.485 442.575C677.247 443.116 677.062 442.927 678.099 442.757C679.113 441.958 679.671 440.677 680.1 439.483C680.886 437.297 680.763 434.694 680.502 432.426C679.165 420.814 668.593 411.69 660.928 403.716C659.037 401.749 656.256 399.207 655.205 396.683C655.106 396.445 655.022 396.2 654.931 395.959C659.78 397.115 664.493 401.096 668.453 404.067C698.226 426.4 683.051 442.882 698.879 464.642C695.553 468.954 691.853 472.789 687.713 476.324C683.899 473.267 680.252 470.022 676.586 466.791Z"/>
	<path fill="#FEFEFE" d="M750.62 499.108C749.583 504.453 747.087 512.539 748.183 517.843C748.453 519.152 748.73 519.589 749.86 520.25C754.715 519.324 754.043 512.503 754.605 508.652C758.185 484.138 766.084 460.715 773.096 437.025C775.172 430.013 776.272 421.965 779.718 415.48C782.903 409.485 788.078 405.079 793.314 400.932C794.311 404.838 788.366 435.138 787.242 441.428C782.284 469.18 779.083 497.886 778.452 526.066C761.493 526.117 744.463 526.498 727.515 525.983C719.844 519.72 713.077 512.111 705.915 505.25C708.356 501.823 711.082 498.549 713.671 495.229C717.167 490.855 720.823 486.633 724.488 482.402C733.921 487.165 741.888 493.279 750.62 499.108Z"/>
	<path fill="#FEFEFE" d="M809.317 526.095C805.954 505.453 805.273 483.949 805.907 463.074C806.145 455.233 805.609 439.039 808.598 431.992C810.227 428.149 813.235 424.467 815.597 421.037C818.402 416.963 821.109 412.686 824.73 409.277C826.665 410.893 829.029 432.422 831.594 437.457C821.413 457.163 817.185 482.017 818.723 504.035C819.241 511.45 820.61 518.754 821.86 526.072L817.125 526.074L809.317 526.095Z"/>
	<path fill="#9F8BE8" d="M950.168 457.717C949.09 442.603 947.062 430.143 941.922 415.763C950.219 418.135 957.296 423.145 963.365 429.153C992.866 458.352 988.385 488.705 988.493 526.174C984.045 526.404 979.562 526.293 975.108 526.288C974.858 518.272 975.024 510.213 974.998 502.19C974.959 490.485 975.505 478.812 968.17 468.928C963.853 463.111 957.402 458.74 950.168 457.717Z"/>
	<path fill="#FEFEFE" d="M827.985 526.043C820.881 494.731 823.483 465.272 838.526 436.527C842.072 429.753 846.583 423.386 850.565 416.849C854.124 420.956 857.923 424.675 861.845 428.429C858.786 441.684 857.045 455.044 855.481 468.546C853.198 488.248 851.701 506.183 852.466 526.037L835.775 526.155L827.985 526.043ZM837.828 445.367C836.607 446.831 835.328 448.18 835.58 450.25C835.745 451.601 836.491 452.561 837.601 453.28C839.002 454.19 840.773 454.594 842.426 454.596C843.809 453.183 844.979 451.932 844.882 449.795C844.82 448.434 844.127 447.483 843.129 446.627C841.621 445.333 839.692 445.327 837.828 445.367ZM831.837 495.301C829.573 496.092 828.355 498.546 829.094 500.828C829.833 503.11 832.258 504.384 834.556 503.698C836.091 503.241 837.257 501.987 837.604 500.424C837.951 498.86 837.423 497.231 836.226 496.168C835.028 495.104 833.349 494.772 831.837 495.301Z"/>
	<path fill="#9F8BE8" d="M64.7224 479.337C72.2058 458.313 81.5924 435.247 95.742 417.759C101.774 421.884 113.286 436.521 119.354 442.617C140.541 463.9 162.286 484.946 186.648 502.597C176.107 524.768 168.117 544.139 162.881 568.293L157.425 567.108C115.22 555.176 85.9413 515.442 64.7224 479.337Z"/>
	<path fill="#FEFEFE" d="M438.174 439.484C452.198 439.364 466.194 434.888 480.276 433.707C484.54 433.24 488.459 434.251 491.992 436.698C502.468 443.955 505.34 454.811 507.273 466.607C506.624 465.783 505.997 464.942 505.341 464.125C501.665 459.547 500.026 453.79 496.202 449.414C491.958 444.557 487.552 443.188 481.405 442.85C480.774 442.151 480.066 441.245 479.3 440.704C478.134 439.88 477.214 439.995 475.878 440.203C474.648 441.064 474.548 441.135 474.026 442.535C474.148 443.443 474.223 444.196 474.844 444.93C476.258 446.601 478.702 447.078 480.731 447.477C481.222 447.352 481.61 447.444 482.108 447.504C479.972 449.036 477.449 450.152 475.117 451.362C462.806 449.865 451.687 453.271 440.017 456.677C437.275 456.003 434.656 455.167 431.992 454.232C433.233 448.804 435.532 444.367 438.174 439.484Z"/>
	<path fill="#FEFEFE" d="M403.967 456.634C408.459 446.165 415.161 442.504 419.28 434.399C424.017 434.617 428.807 435.683 433.481 436.47C428.314 444.026 426.402 452.853 424.848 461.723L420.243 459.815C414.983 458.378 409.321 457.795 403.967 456.634Z"/>
	<path fill="#010101" d="M842.426 454.596C840.773 454.594 839.002 454.19 837.601 453.28C836.491 452.561 835.745 451.601 835.58 450.25C835.328 448.18 836.607 446.831 837.828 445.367C839.692 445.327 841.621 445.333 843.129 446.627C844.127 447.483 844.82 448.434 844.882 449.795C844.979 451.932 843.809 453.183 842.426 454.596Z"/>
	<path fill="#FEFEFE" d="M423.627 469.093C423.816 469.056 424.006 469.023 424.194 468.981C424.507 468.913 424.818 468.834 425.131 468.762C429.966 467.65 434.633 464.959 439.169 462.963C447.038 459.501 455.698 457.069 464.25 456.182C472.52 455.134 481.838 460.328 491.921 459.102C491.957 461.118 492.141 463.078 492.379 465.079C487.072 465.653 469.175 465.629 466.014 468.635C465.189 469.419 464.784 470.402 465.01 471.54C465.59 474.458 469.283 476.465 471.58 477.921C476.448 478.106 481.463 477.722 486.309 477.27C489.503 476.972 493.909 475.609 496.924 476.229C497.283 477.293 497.539 477.787 496.907 478.863C494.731 482.57 484.956 485.302 481.122 486.675C477.235 487.937 473.395 489.211 469.327 489.736C453.524 491.776 437.703 485.166 421.888 486.66C422.58 480.816 422.883 474.939 423.627 469.093Z"/>
	<path fill="#FEFEFE" d="M232.231 536.873C233.892 530.571 235.691 524.1 238.171 518.07C240.693 511.94 244.163 506.055 247.076 500.088C253.763 486.706 257.883 472.189 259.22 457.288C262.26 458.901 267.578 467.351 270.827 470.267C280.448 478.902 310.291 489.003 323.45 491.896C324.059 506.844 327.067 521.648 329.077 536.436C321 540.44 311.378 542.128 302.525 543.357C278.695 545.555 255.363 542.985 232.231 536.873Z"/>
	<path fill="#FEFEFE" d="M393.994 500.011C395.354 487.172 395.127 474.164 396.254 461.292C403.65 461.94 411.029 463.178 418.378 464.236C417.446 476.285 416.72 488.396 414.725 500.326C412.593 501.838 397.365 500.327 393.994 500.011Z"/>
	<path fill="#9F8BE8" d="M954.958 526.392C954.015 505.242 952.595 484.115 950.698 463.029C954.675 464.362 958.192 466.125 961.2 469.126C970.562 478.466 969.515 492.503 969.59 504.633L969.732 526.426L954.958 526.392Z"/>
	<path fill="#FEFEFE" d="M684.814 487.636C692 481.125 698.315 473.52 704.817 466.333C709.9 470.336 714.701 474.724 719.532 479.025C713.54 486.076 707.94 493.518 701.982 500.616L701.203 500.619C695.594 496.479 690.128 492.148 684.814 487.636Z"/>
	<path fill="#FEFEFE" d="M475.407 473.659C474.245 473.13 473.844 473.14 473.104 472.053C475.161 470.223 487.347 470.065 491.028 469.709C491.933 469.586 492.697 469.696 493.601 469.79L494.159 470.484C491.319 472.669 479.334 473.206 475.407 473.659Z"/>
	<path fill="#FEFEFE" d="M517.208 500.301C516.365 500.151 515.617 500.21 514.765 500.245C509.8 504.316 517.883 520.553 515.098 526.913C514.024 527.706 514.047 527.639 512.706 527.516C512.378 526.955 512.311 526.88 512.04 526.179C509.241 518.951 507.922 506.587 506.207 498.573C505.338 494.515 503.739 490.402 503.174 486.332C502.98 484.933 502.906 484.61 503.516 483.35L504.911 483.192L505.391 482.459C505.29 480.212 505.27 478.906 503.782 477.118C504.831 476.899 507.948 478.824 509.059 479.348C511.448 482.953 513.763 486.607 516.003 490.306C519.072 495.433 531.597 514.414 530.36 519.358L529.561 519.385C524.503 515.357 520.549 506 517.208 500.301Z"/>
	<path fill="#010101" d="M834.556 503.698C832.258 504.384 829.833 503.11 829.094 500.828C828.355 498.546 829.573 496.092 831.837 495.301C833.349 494.772 835.028 495.104 836.226 496.168C837.423 497.231 837.951 498.86 837.604 500.424C837.257 501.987 836.091 503.241 834.556 503.698Z"/>
	<path fill="#9F8BE8" d="M537.246 531.508L1024 531.917L1024 562.084C1005.52 561.682 986.957 562.061 968.47 562.078L859.454 562.193L537.362 562.162L537.246 531.508Z"/>
	<path fill="#9F8BE8" d="M182.106 574.65C191.962 574.116 202.096 572.483 210.918 567.834C221.359 562.332 227.419 553.373 230.858 542.305C259.815 549.786 290.793 552.647 320.095 545.638C318.482 596.966 314.036 648.381 309.024 699.475C306.979 721.371 304.793 743.253 302.464 765.121C299.02 793.7 295.872 822.314 293.02 850.958C289.953 880.575 287.12 910.245 287.04 940.048C271.96 945.573 254.399 945.432 238.77 942.305L231.083 780.862C228.263 726.984 225.29 677.13 215.044 623.865C214.077 618.837 212.168 603.814 208.583 600.475C207.437 600.353 206.956 600.525 205.932 601.037C205.161 602.51 205.286 603.159 205.314 604.793C216.001 649.2 220.494 695.334 223.443 740.825C223.896 747.82 225.828 756.348 224.239 763.133C221.854 773.314 211.27 791.694 206.227 802.288C188.213 840.129 165.16 886.889 158.23 928.024C156.88 928.524 155.521 929.01 154.112 929.317C139.05 932.601 125.164 925.292 112.923 917.549C115.696 878.693 124.816 836.232 136.704 799.282C139.64 790.155 143.419 781.283 146.713 772.279C150.433 761.865 153.838 751.341 156.923 740.721C172.666 686.73 181.136 630.881 182.106 574.65Z"/>
	<path fill="#9F8BE8" d="M551.462 567.667L1024 567.573L1024 612.247C975.159 610.833 926.045 611.779 877.177 611.876L824.919 611.978C814.793 611.992 804.344 611.485 794.274 612.464C793.414 613.602 793.473 614.162 793.418 615.593C793.045 625.332 793.401 635.206 793.41 644.96L793.435 703.56L793.492 888.353L1024 888.364L1024 931.052L648.146 931.302C647.822 917.029 648.413 902.659 648.297 888.363L752.885 888.434C753.145 862.746 752.539 837.013 752.59 811.316L752.906 612.809C744.385 611.624 735.502 612.047 726.91 612.037L690.636 611.939L627.027 611.959C616.666 611.975 606.151 611.547 595.815 612.02C594.523 612.079 593.68 612.236 592.554 612.938C590.478 616.362 591.946 710.724 591.768 724.202C584.771 722.849 577.724 721.834 570.677 720.786C570.42 715.192 569.27 709.643 566.397 704.77C562.877 698.8 557.841 696.072 551.329 694.499C550.608 652.277 551.501 609.907 551.462 567.667Z"/>
	<path fill="#010101" d="M793.492 888.353L793.435 703.56L793.41 644.96C793.401 635.206 793.045 625.332 793.418 615.593C793.473 614.162 793.414 613.602 794.274 612.464C804.344 611.485 814.793 611.992 824.919 611.978L877.177 611.876C926.045 611.779 975.159 610.833 1024 612.247L1024 617.546L884.896 617.531C856.149 617.519 827.359 617.249 798.617 617.67L798.593 882.879L937.875 882.777C966.567 882.799 995.317 882.274 1024 882.699L1024 888.364L793.492 888.353Z"/>
	<path fill="#9F8BE8" d="M596.974 724.802L597.083 617.538C647.195 617.561 697.401 617.07 747.501 617.845L747.772 882.874L648.304 882.746C647.991 855.323 647.892 827.898 648.006 800.474C648.053 786.584 649.509 770.821 647.413 757.169C646.384 750.467 643.961 743.889 639.701 738.555C632.729 729.825 624.201 728.341 613.815 726.899C608.215 726.092 602.601 725.393 596.974 724.802Z"/>
	<path fill="#9F8BE8" d="M798.617 617.67C827.359 617.249 856.149 617.519 884.896 617.531L1024 617.546L1024 882.699C995.317 882.274 966.567 882.799 937.875 882.777L798.593 882.879L798.617 617.67Z"/>
	<path fill="#FEFEFE" d="M519.026 705.626C513.832 712.933 517.122 720.628 514.329 724.288C513.846 724.92 513.589 724.738 512.87 724.781C511.567 723.854 511.033 722.554 510.728 721.033C509.757 716.189 511.483 710.006 514.334 706.042C517.413 701.761 521.04 700.035 526.06 699.109C534.24 698.651 544.049 698.062 551.969 700.367C556.352 701.642 559.788 704.138 561.96 708.206C564.293 712.573 566.204 725.718 564.591 730.31C564.326 731.064 564.022 731.021 563.369 731.345C562.451 731.155 561.94 731.025 561.164 730.453C558.797 728.709 560.131 718.399 559.697 715.29C559.138 711.296 557.553 709.317 554.432 706.93C553.792 706.591 553.167 706.269 552.499 705.989C543.237 702.101 528.354 701.982 519.026 705.626Z"/>
	<path fill="#9F8BE8" d="M540.391 715.412C535.38 714.509 529.112 714.434 524.435 712.559C523.353 712.125 523.244 712.105 522.744 711.015C522.846 710.852 522.934 710.68 523.05 710.527C524.4 708.753 526.641 708.877 528.664 708.734C532.859 708.773 540.096 708.085 543.804 709.902C544.87 710.429 545.629 711.423 545.857 712.589C546.125 713.933 545.586 714.471 544.881 715.503C543.177 716.097 542.15 715.709 540.391 715.412Z"/>
	<path fill="#9F8BE8" d="M504.415 722.345C498.943 720.995 485.325 719.694 481.309 717.373L481.707 716.684C486.369 716.33 499.634 715.394 503.527 717.02C504.554 717.449 505.113 718.286 505.295 719.359C505.483 720.469 505.077 721.51 504.415 722.345Z"/>
	<path fill="#9F8BE8" d="M554.811 728.867C551.858 729.288 526.353 724.482 521.997 723.437C521.158 722.322 521.313 720.67 521.238 719.324C529.114 719.493 547.112 721.832 553.947 724.903C554.874 726.3 554.721 727.214 554.811 728.867Z"/>
	<path fill="#9F8BE8" d="M434.969 753.897C434.948 747.033 433.707 734.345 435.808 728.356C436.61 726.074 438.153 725.025 440.276 724.08C446.172 724.403 451.936 725.611 457.693 726.847C455.327 734.699 450.777 740.495 445.228 746.366C442.044 749.297 438.755 751.795 434.969 753.897Z"/>
	<path fill="#9F8BE8" d="M435.055 760.262C450.562 752.753 456.397 742.913 464.229 728.3C491.322 732.076 518.332 736.751 545.326 741.18C545.842 749.317 548.983 759.826 552.856 767.039C557.708 776.073 565.14 779.674 574.495 782.54C574.681 842.475 573.385 902.536 574.419 962.452C571.957 962.806 569.577 963.217 567.268 964.18C555.989 968.885 550.149 977.891 545.691 988.796C534.883 987.157 524.09 983.733 513.455 981.184L457.651 968.258C456.601 961.221 454.924 953.964 451.753 947.554C448.085 940.143 443.224 935.544 435.356 932.832C434.962 917.577 435.352 902.217 435.345 886.949C435.326 844.74 435.751 802.462 435.055 760.262Z"/>
	<path fill="#9F8BE8" d="M604.495 959.671L604.372 820.595L604.416 779.858C604.432 772.834 604.853 765.569 604.351 758.571C604.132 755.501 603.457 752.535 602.161 749.735C598.474 741.769 590.578 736.897 582.232 735.03C578.787 734.259 575.241 733.902 571.907 732.706C570.957 731.525 571.184 729.69 571.133 728.235C583.414 730.554 601.006 731.706 609.444 741.95C612.496 745.655 614.734 751.042 615.202 755.781C616.098 764.866 615.354 774.558 615.318 783.727L615.162 841.246L615.308 921.822C615.309 933.265 616.301 947.161 615.291 958.202C611.687 958.855 608.146 959.371 604.495 959.671Z"/>
	<path fill="#9F8BE8" d="M574.486 776.746C571.658 775.964 568.781 774.908 566.273 773.376C555.891 767.034 553.194 753.246 550.701 742.245C557.486 743.812 565.683 743.91 570.755 749.349C576.476 755.482 574.571 768.759 574.486 776.746Z"/>
	<path fill="#9F8BE8" d="M310.316 743.241C334.638 743.613 359.018 743.177 383.346 743.137C398.649 743.111 414.21 743.757 429.486 743.16C429.33 754.093 429.342 765.027 429.523 775.96C388.665 775.933 347.808 775.674 306.953 775.183C308.533 764.621 309.026 753.851 310.316 743.241Z"/>
	<path fill="#9F8BE8" d="M0 743.32L150.274 743.625C147.301 752.265 141.171 767.137 139.43 775.428C136.003 774.109 12.3463 774.89 0 774.875L0 743.32Z"/>
	<path fill="#FEFEFE" d="M0 774.875C12.3463 774.89 136.003 774.109 139.43 775.428L138.204 778.814C121.425 779.425 104.455 778.813 87.649 778.797L0 779.004L0 774.875Z"/>
	<path fill="#FEFEFE" d="M306.953 775.183C347.808 775.674 388.665 775.933 429.523 775.96L429.523 779.612C388.558 779.99 347.492 779.412 306.524 778.985L306.953 775.183Z"/>
	<path fill="#9F8BE8" d="M205.059 818.549C209.576 809.575 213.632 800.349 217.837 791.223C220.041 786.439 222.101 781.4 224.871 776.908C226.199 790.755 226.288 804.716 227.31 818.591C221.65 817.421 211.235 818.459 205.059 818.549Z"/>
	<path fill="#9F8BE8" d="M306.524 778.985C347.492 779.412 388.558 779.99 429.523 779.612C429.372 799.775 430.151 820.127 429.399 840.257C428.575 833.131 429.064 825.46 429.053 818.264C386.741 818.455 344.428 818.387 302.117 818.061C303.807 805.079 304.962 791.992 306.524 778.985Z"/>
	<path fill="#9F8BE8" d="M0 779.004L87.649 778.797C104.455 778.813 121.425 779.425 138.204 778.814C133.279 791.288 127.712 805.096 125.328 818.333C110.642 817.43 95.4838 818.123 80.7406 818.161L0 818.252L0 779.004Z"/>
	<path fill="#C5BDFE" d="M302.117 818.061C344.428 818.387 386.741 818.455 429.053 818.264C429.064 825.46 428.575 833.131 429.399 840.257C429.769 869.003 429.479 897.784 429.464 926.534C429.457 939.84 429.192 953.225 429.657 966.523C438.796 970.521 454.217 973.028 464.307 975.366L523.253 989.368C535.042 992.22 546.817 995.135 558.575 998.112C564.316 999.549 571.419 1002.16 577.257 1002.28C585.547 1002.44 599.362 999.244 607.898 997.857C621.17 995.701 635.096 994.16 648.163 991.074C648.341 988.353 648.468 985.674 648.438 982.944C773.624 982.29 898.813 982.27 1024 982.885L1024 1024L0 1024L0 818.252L80.7406 818.161C95.4838 818.123 110.642 817.43 125.328 818.333C118.285 842.25 113.829 866.717 110.13 891.335C108.788 900.272 109.052 909.93 107.018 918.675C103.905 932.055 96.0327 944.5 92.1361 957.744L91.9756 958.31C98.5398 964.396 118.119 971.616 127.085 972.471C130.492 972.796 132.016 972.077 134.624 969.934C140.084 973.18 146.971 978.362 153.12 979.816C160.744 981.62 171.948 980.531 179.958 980.551C196.616 980.592 213.302 980.498 229.943 981.327C230.224 982.514 230.504 983.721 231.026 984.829C231.648 986.149 232.333 986.722 233.761 987.137C239.02 988.666 259.706 987.576 266.255 987.546C296.394 987.409 326.169 987.86 356.25 985.306C361.372 984.871 368.137 985.115 372.703 982.842C373.558 981.631 373.638 981.022 373.425 979.539C373.091 977.209 371.569 974.575 370.442 972.518C362.282 957.626 344.545 961.101 330.876 956.91C318.938 953.251 303.241 946.35 293.145 939.088L292.505 938.624C293.07 898.324 297.902 858.105 302.117 818.061Z"/>
	<path fill="#C5BDFE" d="M205.059 818.549C211.235 818.459 221.65 817.421 227.31 818.591C228.003 845.152 229.479 871.78 230.875 898.312C232.208 923.632 234.84 949.173 230.326 974.349C229.579 972.962 228.838 971.557 228.013 970.214C221.871 960.217 210.18 959.868 200.021 957.357C185.119 953.673 171.416 942.539 163.516 929.499C168.91 900.326 180.41 872.614 192.48 845.65C196.543 836.575 200.42 827.344 205.059 818.549Z"/>
	<path fill="#FEFEFE" d="M192.179 961.229L192.256 961.662C190.909 962.123 189.583 962.071 188.177 962.079C183.516 962.107 178.847 961.739 174.2 961.401C159.493 960.33 155.157 957.147 144.139 947.849C140.02 944.374 135.713 940.401 131.053 937.677C125.18 934.244 115.699 932.975 110.985 928.316C110.223 926.789 110.491 925.727 110.753 924.125C116.959 925.803 123.993 930.738 130.902 932.923C138.95 935.467 150.895 937.377 158.737 933.301C168.059 945.508 177.604 955.578 192.179 961.229Z"/>
	<path fill="#9F8BE8" d="M648.522 936.39L1024 936.513L1024 977.573L648.497 977.603L648.522 936.39Z"/>
	<path fill="#9F8BE8" d="M435.47 962.488C435.371 954.548 435.385 946.607 435.511 938.668C436.341 939.011 437.088 939.359 437.835 939.865C446.82 945.946 450.231 956.742 452.072 966.863C446.503 965.685 440.967 963.982 435.47 962.488Z"/>
	<path fill="#FEFEFE" d="M238.021 948.54C255.508 950.429 274.283 952.756 290.682 945.007C294.84 945.8 306.068 953.208 311.267 955.503C320.264 959.474 329.449 962.591 338.811 965.567C323.034 973.063 303.473 973.798 286.787 969.48C282.637 968.236 278.621 965.844 274.748 963.907C260.671 956.864 253.817 954.968 237.885 955.102L238.021 948.54Z"/>
	<path fill="#9F8BE8" d="M551.165 990.59C553.073 985.84 555.519 981.13 558.803 977.176C561.083 974.43 565.207 970.427 568.66 969.393C574.903 967.523 582.486 968.456 589.008 967.68C606.543 965.591 623.988 962.379 641.564 960.702L642.471 960.918C643.655 963.536 642.957 982.015 642.97 986.24C630.463 989.423 615.832 991.098 602.967 993.132C594.901 994.407 585.181 996.947 577.08 996.558C571.27 996.279 564.564 993.613 558.809 992.348L551.165 990.59Z"/>
</svg>
