<?xml version="1.0" encoding="utf-8" ?>
<svg xmlns="http://www.w3.org/2000/svg" xmlns:xlink="http://www.w3.org/1999/xlink" width="1024" height="1024">
	<path fill="#9F8BE8" d="M0 0L1024 0L1024 94.0212C1007.85 101.696 990.831 107.968 974.328 114.892L904.649 144.795C883.239 153.864 862.021 163.525 840.717 172.857L746.883 213.672L541.322 305.302L485.529 330.962C474.679 336.005 463.899 341.279 452.875 345.927C443.985 307.787 429.032 235.645 401.309 208.644C402.726 204.673 402.416 202.296 400.521 198.486C397.692 192.799 392.69 187.6 388.182 183.217C396.055 174.678 399.652 164.229 403.502 153.482C405.862 152.424 408.616 151.374 409.684 148.796C411.539 144.319 406.498 136.63 405.235 132.029C413.893 115.436 422.043 96.3338 416.047 77.43C412.976 67.7477 406.757 60.0726 397.707 55.3932C390.762 51.8017 383.12 50.1397 375.342 50.8589C372.344 51.1362 369.241 51.7676 366.229 51.6228C362.508 51.444 358.773 50.0232 355.177 49.1412C346.903 47.112 337.086 48.6232 329.117 51.26C304.235 59.4925 284.801 83.3112 273.535 106.043C268.052 117.106 263.375 129.455 267.614 141.755C269.075 145.996 271.334 149.575 274.472 152.768C268.955 159.614 262.773 167.256 261.77 176.294C251.427 188.191 241.796 200.209 233.681 213.761C210.9 251.809 191.618 314.039 194.586 358.447C195.841 377.222 199.42 382.251 206.085 398.712C204.663 409.333 205.604 417.129 212.21 425.854C216.323 431.287 221.592 436.968 227.547 440.378C227.029 443.87 226.72 447.599 225.852 451.011C213.996 457.546 201.398 462.587 189.08 468.168C175.422 474.355 161.952 481.009 148.404 487.434L0 558.792L0 0Z"/>
	<path d="M401.309 208.644C429.032 235.645 443.985 307.787 452.875 345.927C454.649 355.6 457.056 365.167 458.7 374.858C460.787 385.822 463.008 396.76 465.363 407.669L469.444 428.411C471.379 438.539 473.221 448.686 474.97 458.849C476.563 468.876 479.234 480.993 477.481 491.018C476.449 498.193 475.752 504.909 470.857 510.704C475.313 519.356 488.108 534.718 490.199 541.833C491.061 544.766 490.941 548.015 490.972 551.052C493.011 550.839 496.482 550.041 498.16 551.477C501.869 554.651 513.915 579.762 517.368 586.104L540.608 628.573C548.68 643.099 556.956 657.564 563.949 672.652C594.176 663.598 624.597 654.672 655.644 648.836C669.763 672.044 681.77 700.427 692.885 725.397C708.669 760.408 723.257 795.945 736.625 831.948C742.556 847.665 748.749 863.336 753.887 879.334C749.491 883.668 746.097 888.464 742.875 893.717C743.083 901.329 742.805 908.676 740.724 916.042C738.942 919.576 737.402 922.535 733.437 923.966C731.241 924.758 728.724 924.686 726.412 924.735C720.736 920.843 719.044 914.771 717.19 908.512C698.658 918.474 678.644 926.584 658.653 933.152C658.558 939.991 658.054 946.361 656.631 953.074C655.636 956.931 654.392 964.194 650.737 966.389C649.35 966.563 647.716 966.275 646.463 966.75C645.084 966.944 643.779 967.069 642.422 966.648C638.145 965.319 635.014 960.646 633.231 956.762C631.237 952.42 630.345 949.124 631.983 944.579C624.918 945.864 617.854 947.148 610.672 947.541C606.233 942.469 602.857 935.924 599.615 930.017C588.776 910.261 497.352 729.095 498.432 722.044C499.305 716.339 515.782 701.9 520.63 697.661L470.948 610.37C464.691 599.445 458.39 588.584 452.343 577.538C450.384 573.958 447.344 569.614 446.27 565.709C445.898 564.356 446.047 564.11 446.622 562.924C448.399 561.496 450.673 561.24 452.851 560.752C450.518 552.81 450.094 545.042 448.485 537.011C447.258 530.886 445.132 525.304 442.55 519.637C438.834 519.184 435.18 518.693 431.518 517.906C422.725 514.896 416.193 510.272 409.046 504.39C408.443 513.024 407.22 522.398 407.544 531.026C403.742 568.11 394.773 602.002 382.735 637.226C391.686 658.113 390.056 680.827 390.869 702.991C392.263 741.011 395.034 785.765 410.116 821.099C411.839 825.136 413.545 829.443 415.938 833.122C425.817 834.04 436.069 833.082 445.929 832.18C451.069 831.711 458.339 829.879 463.319 830.891C465.397 831.314 467.241 832.809 468.545 834.422C470.379 836.693 471.122 839.195 470.803 842.093C469.542 853.568 456.389 863.839 447.952 870.245C443.004 874.002 437.841 877.5 433 881.392C414.246 895.071 406.018 911.408 380.531 912.371C377.486 911.698 374.589 910.973 372.848 908.156C368.26 900.731 369.566 875.329 368.836 865.356C368.137 855.815 361.685 846.973 358.606 837.959C355.653 829.315 354.573 820.051 351.71 811.358C345.655 792.97 337.57 775.408 330.646 757.359C317.241 778.534 303.125 799.15 290.654 820.916C285.607 829.723 281.168 838.977 276.581 848.031C273.452 854.207 270.544 860.363 267.969 866.791C265.991 871.731 264.346 876.894 262.107 881.716C261.555 882.904 261.262 883.67 260.211 884.539C258.263 884.541 256.464 884.358 254.544 884.034C255.009 886.457 255.372 889.138 256.321 891.418C258.757 897.269 262.625 902.518 265.629 908.085C268.869 914.089 271.498 920.61 275.098 926.383C276.216 928.176 277.09 929.375 278.864 930.564C291.312 938.902 312.005 936.439 316.066 954.242C316.412 955.756 316.54 957.351 316.732 958.89C316.651 959.009 316.58 959.136 316.489 959.247C312.403 964.192 291.491 966.35 284.593 967.135C269.689 968.832 252.062 969.078 239.012 960.62C234.159 957.475 229.857 953.324 225.334 949.721C213.911 940.067 201.155 931.803 189.176 922.848C186.478 920.831 180.781 916.973 180.437 913.42C179.376 902.461 200.046 885.061 207.34 877.354C210.813 873.684 213.864 869.737 216.887 865.701C216 864.34 215.108 863.003 214.708 861.407C213.908 858.214 214.587 854.879 215.384 851.753C219.583 835.266 226.812 819.364 232.801 803.46C238.431 788.509 243.246 773.166 249.462 758.443C252.172 752.056 255.227 745.819 258.612 739.762C267.59 723.391 279.866 709.169 289.854 693.441C289.121 692.022 288.35 690.605 288.187 688.988C287.709 684.244 293.59 686.13 295.131 683.062C296.216 680.9 295.483 675.475 295.856 672.752C296.296 669.549 297.254 666.421 297.774 663.218C299.104 655.034 302.97 628.899 301.681 621.721C300.747 616.525 297.926 611.417 295.954 606.521C293.812 601.21 291.826 595.837 290 590.409C286.279 580.711 282.414 570.869 277.892 561.52C272.129 549.701 265.189 537.175 261.808 524.44C259.631 517.851 257.522 511.319 255.875 504.573C254.676 499.206 253.6 493.887 252.784 488.446C247.033 489.656 240.899 490.888 235.514 493.319C232.419 494.716 227.868 499.504 224.876 499.171C223.765 498.102 223.606 497.354 223.217 495.915C223.731 489.297 223.411 482.515 223.635 475.864C223.916 467.535 224.86 459.28 225.852 451.011C226.72 447.599 227.029 443.87 227.547 440.378C221.592 436.968 216.323 431.287 212.21 425.854C205.604 417.129 204.663 409.333 206.085 398.712C199.42 382.251 195.841 377.222 194.586 358.447C191.618 314.039 210.9 251.809 233.681 213.761C241.796 200.209 251.427 188.191 261.77 176.294C262.773 167.256 268.955 159.614 274.472 152.768C271.334 149.575 269.075 145.996 267.614 141.755C263.375 129.455 268.052 117.106 273.535 106.043C284.801 83.3112 304.235 59.4925 329.117 51.26C337.086 48.6232 346.903 47.112 355.177 49.1412C358.773 50.0232 362.508 51.444 366.229 51.6228C369.241 51.7676 372.344 51.1362 375.342 50.8589C383.12 50.1397 390.762 51.8017 397.707 55.3932C406.757 60.0726 412.976 67.7477 416.047 77.43C422.043 96.3338 413.893 115.436 405.235 132.029C406.498 136.63 411.539 144.319 409.684 148.796C408.616 151.374 405.862 152.424 403.502 153.482C399.652 164.229 396.055 174.678 388.182 183.217C392.69 187.6 397.692 192.799 400.521 198.486C402.416 202.296 402.726 204.673 401.309 208.644ZM407.692 224.407C399.485 209.003 386.448 202.79 370.791 196.738C363.773 193.982 356.657 191.482 349.458 189.242C323.708 181.424 292.412 174.005 265.526 178.677C227.761 215.646 198.973 293.92 198.345 345.956C198.121 364.583 201.356 380.224 210.085 396.674C209.12 408.663 208.927 415.646 217.177 425.42C220.514 429.339 224.197 432.952 228.181 436.213C230.629 422.77 231.962 409.035 233.581 395.465C237.023 366.547 239.633 337.536 241.407 308.468C242.376 287.26 243.51 266.059 244.81 244.869C245.185 239.306 245.058 233.497 245.656 227.988C245.804 226.618 246.094 225.627 246.817 224.46C247.543 224.312 247.708 224.091 248.375 224.546C249.159 225.082 249.576 225.567 249.793 226.522C250.738 230.68 248.319 256.317 248.007 262.902C246.259 306.829 242.935 350.68 238.04 394.368C236.35 408.739 234.409 423.079 232.217 437.382C229.498 455.666 226.254 474.574 227.427 493.128C249.342 481.986 273.511 480.417 296.913 488.125C303.372 490.268 309.65 492.919 315.69 496.054C322.519 499.591 340.885 513.46 347.828 511.031C353.993 504.816 362.102 463.368 364.23 452.676C366.393 441.809 367.792 428.911 372.329 418.806C369.626 408.929 366.526 399.16 363.914 389.262C358.818 370.536 354.87 351.516 352.093 332.308C351.281 327.021 349.336 319.705 350.767 314.511L351.384 313.968C352.503 314.296 353.339 314.999 353.831 316.067C355.667 320.056 355.726 328.583 356.415 333.143C357.496 340.053 358.735 346.938 360.13 353.792C368.295 392.88 379.819 431.191 394.576 468.296C398.677 478.387 402.642 488.806 409.096 497.677C413.466 503.612 419.244 508.365 425.91 511.508C435.9 516.187 449.086 516.172 459.36 512.388C462.638 511.181 465.663 509.457 468.204 507.041C471.12 504.195 472.464 501.556 473.303 497.561C474.767 490.587 474.123 482.602 473.397 475.581C470.998 452.409 465.525 429.417 461.096 406.563C456.52 381.831 451.368 357.208 445.644 332.716C441.507 314.635 437.226 296.491 431.604 278.801C425.575 259.831 418.537 241.195 407.692 224.407ZM475.434 571.448C475.795 565.017 473.31 559.375 473.289 553.232C473.284 551.748 473.403 551.661 474.414 550.713C475.814 550.679 475.79 550.737 476.896 551.615C479.424 556.929 479.111 568.11 478.895 573.895C475.882 576.543 473.265 576.82 469.301 576.535C465.63 576.271 461.929 575.595 458.287 575.054C462.277 578.884 466.794 589.072 469.708 594.177C478.396 609.148 486.932 624.207 495.316 639.351C505.381 657.235 517.221 674.862 525.547 693.632L557.356 674.194C547.728 654.448 536.373 635.519 525.852 616.241L505.047 578.03C501.641 571.759 498.446 565.277 494.809 559.145C493.781 563.926 492.187 567.834 487.878 570.634C485.374 572.262 482.572 573.188 479.646 573.693C480.342 569.892 481.952 569.463 484.175 566.649C485.084 561.828 481.926 556.016 480.902 551.304C480.605 549.938 480.718 549.304 481.45 548.154L482.748 548.016C487.302 550.255 486.057 561.47 488.788 565.41C489.253 564.521 489.221 564.743 489.406 563.909C490.583 558.625 488.315 544.897 485.76 540.051C483.48 535.725 479.807 532.046 476.887 528.129C473.427 523.487 470.442 518.535 467.464 513.577C460.434 516.818 453.933 518.177 446.311 519.192C452.563 530.107 452.23 540.675 454.388 552.626C454.434 552.883 460.192 569.598 460.388 570.01C461.059 571.428 461.752 572.073 463.22 572.553C464.635 571.889 465.196 571.06 465.706 569.606C467.114 565.595 466.472 559.965 464.717 556.164C464.401 555.478 464.12 555.033 464.055 554.263C464.001 553.617 464.484 553.391 464.896 552.955C466.13 552.57 466.3 552.432 467.513 552.816C471.078 557.279 470.293 567.579 469.7 572.941L475.434 571.448ZM370.052 55.1997L370.42 55.699C374.438 61.0658 378.963 61.1111 384.521 64.0266C403.109 73.7778 404.252 94.3175 401.719 112.79C400.685 120.329 399.079 127.777 398.013 135.304L402.436 128.042C410.551 114.015 416.716 96.6053 412.428 80.3079C410.065 71.3305 404.612 63.8889 396.527 59.2622C388.524 54.6823 379.036 54.1734 370.052 55.1997ZM401.966 136.002C399.915 138.166 397.687 140.241 396.412 142.969C396.291 143.228 396.162 143.482 396.043 143.742C394.392 147.35 393.442 151.322 392.277 155.109C389.812 163.126 386.165 169.439 380.906 175.902C382.395 177.523 383.849 179.193 385.47 180.685C388.952 176.437 391.652 172.483 393.947 167.489C395.027 165.138 399.704 151.055 401.098 149.927C403.163 148.256 405.922 148.841 405.437 145.136C405.111 142.644 403.468 137.977 401.966 136.002ZM295.757 152.217C289.682 152.473 284.099 152.986 278.175 154.464C272.991 160.138 268.446 167.204 266.045 174.54C300.736 168.711 346.185 182.107 378.186 195.504C385.013 198.391 391.679 201.644 398.157 205.248C392.118 187.47 372.784 175.104 356.622 167.094C338.534 158.13 315.978 151.123 295.757 152.217ZM374.049 425.337C371.594 432.443 368.62 449.916 367.725 457.712C372.519 458.526 377.352 459.246 382.109 460.25L387.095 461.327C384.64 454.383 377.19 430.147 374.049 425.337ZM366.49 461.345C363.429 477.473 362.383 492.849 362.961 509.245C363.227 516.775 363.956 524.325 363.98 531.86C347.454 538.338 326.459 542.145 309.451 535.122C309.74 545.733 309.788 556.348 309.596 566.961C309.089 585.989 305.211 664.134 298.497 677.426L298.927 678.022C302.965 683.558 308.989 687.937 314.959 691.195C317.385 692.518 327.559 696.019 328.575 697.429C328.367 698.712 328.401 698.662 327.386 699.472C320.612 700.397 309.08 692.403 303.852 688.429C302.033 687.047 300.352 685.532 298.692 683.967C296.859 685.574 294.249 687.232 293.231 689.487C293.39 690.78 293.567 691.304 294.598 692.164C300.142 696.79 317.622 701.514 320.375 705.782C319.762 706.481 320.105 706.33 319.131 706.421C311.752 707.111 299.048 699.285 293.173 695.292C288.19 703.705 281.96 711.508 276.272 719.455C270.145 727.992 264.595 736.929 259.658 746.206C247.17 769.903 240.736 796.068 230.317 820.634C225.485 833.338 219.043 847.297 218.034 860.915C226.067 868.264 238.498 874.99 248.981 877.975C254.835 854.611 270.301 830.072 280.418 807.969C286.853 793.907 291.132 778.468 299.479 765.369C309.574 749.528 323.727 736.629 333.342 720.414C341.627 706.443 346.611 688.994 351.659 673.616C363.124 638.685 373.313 602.453 378.625 566.013C381.914 543.455 383.228 520.653 384.077 497.895C384.48 487.084 385.237 476.138 385.062 465.326C378.986 463.933 372.402 463.193 366.49 461.345ZM388.684 466.879C387.911 487.563 388.09 508.191 386.521 528.868C382.702 579.232 372.527 620.304 357.272 668.212C351.646 685.877 346.324 705.279 337.197 721.44C328.056 737.624 313.901 750.119 304.057 765.701C295.732 778.877 291.247 793.579 284.758 807.631C273.662 831.66 261.21 854.509 252.149 879.489L257.958 881.506C260.796 874.598 263.243 867.528 266.201 860.672C273.413 843.957 282.109 827.159 291.433 811.535C303.388 791.875 315.962 772.653 328.248 753.201C336.142 740.704 344.383 727.892 351.108 714.728C359.58 698.143 364.186 678.937 370.025 661.269C376.338 642.168 383.421 623.309 389.218 604.037C399.297 570.534 405.822 534.037 405.512 498.992C402.94 495.516 400.437 491.916 398.497 488.04C398.596 516.639 394.541 543.876 387.665 571.606L387.168 572.007L387.434 572.367L387.658 571.658L387.16 572.48L387.184 572.037L387.663 571.711L387.284 571.038C390.889 549.569 402.69 486.094 389.542 467.716C389.227 467.276 389.062 467.178 388.684 466.879ZM259.489 487.727C258.876 487.859 257.843 487.837 257.519 488.429C255.287 492.506 266.753 526.565 269.248 532.821C274.138 545.079 280.478 556.669 285.59 568.817C289.483 578.068 293.146 587.459 296.741 596.83C298.521 601.47 300.147 608.143 302.892 612.127C305.241 585.901 306.093 559.562 305.442 533.239C293.513 523.509 287.578 507.604 286.08 492.586C285.971 491.512 285.884 490.436 285.819 489.359C276.892 487.581 268.566 487.314 259.489 487.727ZM289.913 490.456C291.964 503.544 295.786 520.707 307.323 528.901C317.621 536.214 332.427 535.68 344.27 533.5C349.687 532.502 354.909 530.894 360.089 529.045L359.281 519.907C358.939 512.498 358.542 505.086 358.288 497.673C356.624 501.903 353.548 513.333 348.996 515.069C344.676 516.718 339.305 514.199 335.456 512.238C328.355 508.62 321.781 504.004 314.81 500.151C307.195 495.941 298.212 492.931 289.913 490.456ZM380.549 642.828C379.06 645.816 378.543 648.241 378.462 651.566C378.152 664.25 380.452 677.217 381.295 689.884C383.064 716.449 383.549 742.99 387.362 769.392C389.33 783.023 392.055 796.861 396.386 809.955C398.806 817.272 402.766 828.632 410.171 832.259C410.326 832.335 410.487 832.4 410.645 832.47L411.418 832.034C395.481 801.581 390.278 762.97 387.892 729.033C387.219 718.063 386.721 707.083 386.395 696.097C385.992 682.577 387.137 654.27 380.549 642.828ZM651.699 653.644C631.433 657.294 611.03 663.216 591.208 668.737C582.246 671.233 572.66 673.225 563.964 676.409C577.651 704.6 592.436 732.248 606.471 760.266C622.046 791.291 636.876 822.683 650.949 854.417C657.09 868.114 663.432 881.71 669.011 895.652L671.81 902.375C687.177 898.18 702.11 891.988 717.272 887.071C727.856 883.639 738.888 881.425 749.313 877.546C737.873 847.97 727.23 818.096 715.46 788.641C699.632 749.608 682.45 711.138 663.945 673.301C662.266 669.943 655.689 655.216 652.948 653.541L651.699 653.644ZM374.207 661.325C368.357 677.938 363.959 695.353 356.878 711.492C351.148 724.553 341.379 739.834 333.529 751.888C339.653 769.478 347.332 786.404 353.415 803.984C359.403 821.289 360.967 839.177 370.536 855.23C375.901 856.64 392.787 850.162 397.801 847.196C402.198 844.596 406.347 841.412 409.46 837.326C392.393 824.865 387.464 795.509 384.345 775.611C382.278 761.586 380.792 747.482 379.892 733.334C379.045 721.493 377.255 667.896 374.207 661.325ZM559.317 677.636C551.279 682.278 543.411 687.209 535.73 692.421C545.201 710.073 553.623 728.308 562.375 746.322L588.941 799.891C607.743 837.957 627.672 875.559 644.95 914.364C652.409 910.265 659.942 906.84 667.85 903.702C640.938 839.193 609.595 776.994 578.499 714.463C575.928 709.292 562.22 680.146 559.317 677.636ZM528.903 696.005C518.994 702.985 509.574 712.96 501.768 722.207C509.536 739.154 517.416 756.05 525.407 772.893C540.361 803.54 555.571 834.063 571.035 864.456L592.952 907.775C599.025 919.829 604.823 932.518 612.612 943.593C620.513 934.391 629.108 925.945 638.798 918.614C631.044 901.545 622.149 884.937 613.783 868.16L561.106 762.326L537.808 713.712C535.681 709.304 531.75 699.504 528.903 696.005ZM455.35 835.249C441.721 836.387 427.752 838.135 414.098 836.93C404.937 849.995 393.456 855.024 377.971 857.791C376.126 858.111 374.276 858.401 372.421 858.659C372.445 862.389 372.232 887.647 374.277 889.645C374.371 889.737 374.496 889.793 374.606 889.867C379.295 890.115 384.879 890.879 389.303 889.044C400.711 884.313 410.577 873.515 420.486 866.167C430.243 858.933 441.086 852.339 450.153 844.277C452.969 841.774 455.267 839.02 457.282 835.841L457.117 835.242C456.637 835.239 455.815 835.174 455.35 835.249ZM463.06 834.881C460.195 838.785 457.401 842.59 453.806 845.858C443.796 854.958 432.106 862.217 421.284 870.278C412.981 876.463 405.233 883.615 396.473 889.134C393.498 891.008 390.693 892.573 387.175 893.178C382.669 893.953 378.36 893.168 373.972 892.171C374.154 895.139 373.884 904.835 376.21 906.619C376.642 906.951 377.026 907.098 377.508 907.318C389.268 908.873 397.92 905.775 407.285 898.598C414.993 892.692 421.785 885.655 429.253 879.463C439.255 871.17 465.464 856.044 466.908 842.323C467.132 840.191 466.367 837.706 464.833 836.171C464.318 835.656 463.666 835.271 463.06 834.881ZM220.2 867.814C216.626 872.08 213.232 876.573 209.465 880.669C205.619 884.851 201.322 888.638 197.219 892.566L197.733 892.972C214.928 906.745 239.11 935.297 257.832 943.47C264.148 946.227 270.567 947.09 277.407 946.999C285.076 946.274 292.926 945.635 300.2 942.909L299.473 942.609C292.606 939.808 284.65 938.729 278.238 935.001C275.912 933.649 274.129 931.701 272.588 929.522C268.337 923.51 265.48 916.258 262.031 909.733C259.371 904.7 256.201 899.767 253.98 894.526C252.438 890.887 251.518 887.28 250.68 883.421C240.039 879.229 229.396 874.768 220.2 867.814ZM194.375 895.828C190.255 900.949 185.971 906.446 183.96 912.802C192.129 922.535 209.836 932.712 220.429 940.876C228.046 946.747 234.993 954.41 243.515 958.929C248.989 961.832 254.912 963.126 261.043 963.689C275.885 965.053 290.412 963.049 304.891 959.94C307.099 959.435 310.625 959.133 311.813 956.94C312.537 955.604 312.345 953.957 311.714 952.63C310.427 949.926 308.183 947.503 306.104 945.389C290.251 951.097 270.571 953.823 254.841 946.418C231.985 935.659 214.895 909.818 194.375 895.828Z"/>
	<path fill="#FEFDFE" d="M398.013 135.304C399.079 127.777 400.685 120.329 401.719 112.79C404.252 94.3175 403.109 73.7778 384.521 64.0266C378.963 61.1111 374.438 61.0658 370.42 55.699L370.052 55.1997C379.036 54.1734 388.524 54.6823 396.527 59.2622C404.612 63.8889 410.065 71.3305 412.428 80.3079C416.716 96.6053 410.551 114.015 402.436 128.042L398.013 135.304Z"/>
	<path fill="#7459D2" d="M452.875 345.927C463.899 341.279 474.679 336.005 485.529 330.962L541.322 305.302L746.883 213.672L840.717 172.857C862.021 163.525 883.239 153.864 904.649 144.795L974.328 114.892C990.831 107.968 1007.85 101.696 1024 94.0212L1024 117.441C1016.55 121.013 1008.85 124.127 1001.3 127.482C976.722 138.398 951.907 148.783 927.451 159.968L608.859 305.4C570.089 323.204 531.181 340.612 492.776 359.199C485.113 362.825 477.418 366.381 469.69 369.865C466.105 371.483 462.094 372.894 458.7 374.858C457.056 365.167 454.649 355.6 452.875 345.927Z"/>
	<path fill="#9F8BE8" d="M458.7 374.858C462.094 372.894 466.105 371.483 469.69 369.865C477.418 366.381 485.113 362.825 492.776 359.199C531.181 340.612 570.089 323.204 608.859 305.4L927.451 159.968C951.907 148.783 976.722 138.398 1001.3 127.482C1008.85 124.127 1016.55 121.013 1024 117.441L1024 134.229C1004 140.448 984.148 148.192 965.574 157.895C957.864 161.923 950.468 167.664 942.629 171.237C936.593 172.765 930.735 177.187 925.084 179.809C898.393 192.188 872.473 206.024 846.016 218.866C757.463 261.436 669.184 304.573 581.183 348.275L501.111 388.749C493.361 392.732 485.653 396.798 477.99 400.947C473.834 403.185 469.661 405.743 465.363 407.669C463.008 396.76 460.787 385.822 458.7 374.858Z"/>
	<path d="M942.629 171.237C950.468 167.664 957.864 161.923 965.574 157.895C984.148 148.192 1004 140.448 1024 134.229L1024 138.124C1016.77 141.054 1009.34 143.377 1002.05 146.135C989.898 150.731 977.697 156.04 966.213 162.119C945.894 173.098 927.297 186.999 911.014 203.378C880.303 234.588 850.306 284.893 827.498 322.934L835.569 323.486C844.481 308.618 852.168 293.015 861.175 278.164C872.857 258.672 886.094 240.154 900.756 222.792C936.774 180.522 971.481 160.904 1024 143.815L1024 160.208C1008.83 166.259 993.353 171 978.938 178.837C936.769 201.766 906.921 237.891 881.205 277.701C873.323 289.902 865.44 302.3 859.029 315.35C880.112 315.753 901.429 317.856 922.452 319.564C935.572 320.629 949.112 321.071 962.125 322.878C974.132 288.499 988.202 254.72 1001.86 220.968L1016.89 184.111C1019.26 178.258 1021.31 172.061 1024 166.37L1024 229.007C1018.44 241.345 1014.06 254.36 1009.13 266.975C1003.84 280.393 998.797 293.907 994.003 307.511C992.032 313.041 989.638 318.627 988.021 324.256C1000 325.525 1012 326.667 1024 327.683L1024 345.075C999.256 343.057 974.577 340.086 949.867 337.685L881.512 331.65C868.786 330.455 834.401 325.68 824.079 327.369C816.975 328.532 787.446 342.986 779.715 347.319C776.297 349.198 773.071 351.405 770.081 353.91C747.322 373.316 743.135 422.896 741.048 451.07C738.673 483.124 738.98 543.083 748.935 572.856C749.175 564.327 748.635 555.777 748.428 547.25C747.777 520.434 747.139 488.095 757.358 462.976C759.793 456.99 763.014 450.711 767.741 446.193C770.939 443.136 774.98 441.103 779.488 441.299C784.428 441.515 788.498 444.393 791.618 448.043C800.866 458.862 809.375 484.106 811.194 498.583C846.524 514.521 881.375 531.579 916.569 547.825C952.375 564.353 988.685 580.15 1024 597.691L1024 602.142C976.016 580.515 928.255 558.399 880.723 535.796L834.5 513.906C827.226 510.441 819.688 507.252 812.61 503.424C815.807 521.668 819.274 539.87 821.884 558.209C824.319 575.326 825.883 592.963 829.426 609.875C853.179 625.443 878.312 639.113 902.67 653.714C930.676 670.544 958.903 687.003 987.344 703.088C999.571 710.055 1011.53 717.505 1024 724.033L1024 728.877C1008.8 721.775 994.737 711.924 980.107 703.705C929.21 675.108 879.771 644.09 829.277 614.811C829.879 620.737 830.51 626.685 831.865 632.495C855.5 648.701 879.816 663.723 904.152 678.829L964.727 716.311C984.553 728.404 1004.62 740.079 1024 752.899L1024 786.915C1006.9 775.498 989.906 763.935 973.008 752.228C964.318 746.191 956.032 739.281 946.937 733.885C938.011 728.954 926.534 719.832 917.985 713.807C903.19 703.38 888.041 693.308 873.415 682.663C867.597 706.315 862.603 716.209 846.727 734.073C839.583 736.067 809.597 736.139 800.605 735.921C797.887 735.048 793.648 735.47 790.729 735.401C789.249 734.551 787.872 733.535 786.624 732.371C780.606 726.857 776.418 718.407 773.07 711.111C754.981 671.689 750.643 625.053 749.62 582.149L749.424 581.848C748.358 580.233 747.342 578.64 746.555 576.868C740.306 562.797 738.8 545.611 737.466 530.366C733.499 485.021 734.089 418.437 750.769 375.647C759.408 353.484 771.358 346.187 792.088 336.487C800.897 332.319 809.75 328.247 818.647 324.27C806.759 322.673 795.747 319.745 784.346 316.128C784.242 316.11 784.136 316.1 784.033 316.075C774.745 313.789 768.522 309.363 763.186 301.38C759.593 294.976 759.654 288.823 761.299 281.867C763.924 272.948 769.797 264.39 778.114 259.908C788.002 254.578 797.172 256.255 807.485 259.157C813.516 261.377 819.272 264.92 825.278 266.9C833.251 271.044 840.37 276.593 847.226 282.347C852.307 274.032 857.641 265.875 863.221 257.887C867.51 251.749 873.047 245.217 876.26 238.452C880.166 235.426 889.972 220.768 894.368 215.587C897.59 212.925 900.532 208.852 903.405 205.749C908.087 200.707 912.962 195.85 918.021 191.187C922.292 187.204 926.711 183.299 931.372 179.779C935.107 176.958 939.202 174.428 942.629 171.237ZM789.572 260.614C781.467 262.278 775.205 266.117 770.623 273.03C766.778 278.831 763.478 287.199 765.039 294.196C766.322 299.942 770.602 304.515 775.52 307.488C787.833 314.929 807.613 317.83 821.694 320.818L823.751 321.072C826.18 318.971 842.954 290.064 845.308 285.936C831.341 275.417 807.442 258.985 789.572 260.614ZM779.396 521.414C769.277 530.276 767.007 556.946 766.132 570.275C763.767 606.299 768.805 651.386 780.979 685.46C783.469 692.43 786.398 700.299 791.266 706.006C793.558 708.692 795.45 709.984 798.83 710.94C803.483 708.71 805.706 704.629 807.36 699.917C810.707 690.387 811.475 679.605 812.097 669.561C814.44 631.738 809.403 568.408 792.757 534.187C790.581 529.714 787.106 523.433 782.016 521.95C781.163 521.701 780.273 521.557 779.396 521.414Z"/>
	<path fill="#FEFDFE" d="M380.906 175.902C386.165 169.439 389.812 163.126 392.277 155.109C393.442 151.322 394.392 147.35 396.043 143.742C396.162 143.482 396.291 143.228 396.412 142.969C397.687 140.241 399.915 138.166 401.966 136.002C403.468 137.977 405.111 142.644 405.437 145.136C405.922 148.841 403.163 148.256 401.098 149.927C399.704 151.055 395.027 165.138 393.947 167.489C391.652 172.483 388.952 176.437 385.47 180.685C383.849 179.193 382.395 177.523 380.906 175.902Z"/>
	<path fill="#7459D2" d="M827.498 322.934C850.306 284.893 880.303 234.588 911.014 203.378C927.297 186.999 945.894 173.098 966.213 162.119C977.697 156.04 989.898 150.731 1002.05 146.135C1009.34 143.377 1016.77 141.054 1024 138.124L1024 143.815C971.481 160.904 936.774 180.522 900.756 222.792C886.094 240.154 872.857 258.672 861.175 278.164C852.168 293.015 844.481 308.618 835.569 323.486L827.498 322.934Z"/>
	<path fill="#9F8BE8" d="M278.175 154.464C284.099 152.986 289.682 152.473 295.757 152.217C315.978 151.123 338.534 158.13 356.622 167.094C372.784 175.104 392.118 187.47 398.157 205.248C391.679 201.644 385.013 198.391 378.186 195.504C346.185 182.107 300.736 168.711 266.045 174.54C268.446 167.204 272.991 160.138 278.175 154.464Z"/>
	<path fill="#9F8BE8" d="M859.029 315.35C865.44 302.3 873.323 289.902 881.205 277.701C906.921 237.891 936.769 201.766 978.938 178.837C993.353 171 1008.83 166.259 1024 160.208L1024 166.37C1021.31 172.061 1019.26 178.258 1016.89 184.111L1001.86 220.968C988.202 254.72 974.132 288.499 962.125 322.878C949.112 321.071 935.572 320.629 922.452 319.564C901.429 317.856 880.112 315.753 859.029 315.35Z"/>
	<path fill="#7459D2" d="M465.363 407.669C469.661 405.743 473.834 403.185 477.99 400.947C485.653 396.798 493.361 392.732 501.111 388.749L581.183 348.275C669.184 304.573 757.463 261.436 846.016 218.866C872.473 206.024 898.393 192.188 925.084 179.809C930.735 177.187 936.593 172.765 942.629 171.237C939.202 174.428 935.107 176.958 931.372 179.779C926.711 183.299 922.292 187.204 918.021 191.187C912.962 195.85 908.087 200.707 903.405 205.749C900.532 208.852 897.59 212.925 894.368 215.587C893.269 215.57 892.623 215.741 891.623 216.194C881.471 220.797 871.774 226.577 861.776 231.531C846.504 239.098 830.896 245.963 815.964 254.2C813.264 255.69 809.814 257.148 807.485 259.157C797.172 256.255 788.002 254.578 778.114 259.908C769.797 264.39 763.924 272.948 761.299 281.867C760.881 281.796 760.468 281.617 760.045 281.653C757.313 281.882 739.546 291.155 735.259 293.22C666.584 326.613 598.408 361.024 530.754 396.441L487.76 418.839C481.892 421.9 475.569 426.004 469.444 428.411L465.363 407.669Z"/>
	<path fill="#9F8BE8" d="M407.692 224.407C406.996 225.042 406.181 225.655 405.652 226.434C401.729 228.424 399.016 232.79 396.371 236.185C383.192 253.102 372.972 271.216 363.24 290.243C361.569 293.508 359.181 297.068 358.042 300.506C357.638 301.728 357.596 302.624 357.886 303.894L358.747 304.427C360.942 303.809 362.005 301.924 363.051 300.03C365.377 295.819 367.041 291.126 369.262 286.82C377.53 270.797 386.812 254.668 398.236 240.659C404.586 248.423 408.507 257.681 412.443 266.823C417.696 279.021 422.7 291.46 426.386 304.233C430.871 319.776 433.733 335.647 437.396 351.381C440.42 364.375 443.718 377.327 446.577 390.357C449.594 404.107 452.165 417.96 455.095 431.732C456.172 436.797 457.083 441.972 458.444 446.967C460.658 455.089 463.411 463.076 464.829 471.394C466.849 483.233 466.441 495.282 468.204 507.041C465.663 509.457 462.638 511.181 459.36 512.388C449.086 516.172 435.9 516.187 425.91 511.508C419.244 508.365 413.466 503.612 409.096 497.677C402.642 488.806 398.677 478.387 394.576 468.296C379.819 431.191 368.295 392.88 360.13 353.792C358.735 346.938 357.496 340.053 356.415 333.143C355.726 328.583 355.667 320.056 353.831 316.067C353.339 314.999 352.503 314.296 351.384 313.968L350.767 314.511C349.336 319.705 351.281 327.021 352.093 332.308C354.87 351.516 358.818 370.536 363.914 389.262C366.526 399.16 369.626 408.929 372.329 418.806C367.792 428.911 366.393 441.809 364.23 452.676C362.102 463.368 353.993 504.816 347.828 511.031C340.885 513.46 322.519 499.591 315.69 496.054C309.65 492.919 303.372 490.268 296.913 488.125C273.511 480.417 249.342 481.986 227.427 493.128C226.254 474.574 229.498 455.666 232.217 437.382C234.409 423.079 236.35 408.739 238.04 394.368C242.935 350.68 246.259 306.829 248.007 262.902C248.319 256.317 250.738 230.68 249.793 226.522C249.576 225.567 249.159 225.082 248.375 224.546C247.708 224.091 247.543 224.312 246.817 224.46C246.094 225.627 245.804 226.618 245.656 227.988C245.058 233.497 245.185 239.306 244.81 244.869C243.51 266.059 242.376 287.26 241.407 308.468C239.633 337.536 237.023 366.547 233.581 395.465C231.962 409.035 230.629 422.77 228.181 436.213C224.197 432.952 220.514 429.339 217.177 425.42C208.927 415.646 209.12 408.663 210.085 396.674C201.356 380.224 198.121 364.583 198.345 345.956C198.973 293.92 227.761 215.646 265.526 178.677C292.412 174.005 323.708 181.424 349.458 189.242C356.657 191.482 363.773 193.982 370.791 196.738C386.448 202.79 399.485 209.003 407.692 224.407Z"/>
	<path fill="#9F8BE8" d="M807.485 259.157C809.814 257.148 813.264 255.69 815.964 254.2C830.896 245.963 846.504 239.098 861.776 231.531C871.774 226.577 881.471 220.797 891.623 216.194C892.623 215.741 893.269 215.57 894.368 215.587C889.972 220.768 880.166 235.426 876.26 238.452C858.628 246.155 842.223 257.731 825.278 266.9C819.272 264.92 813.516 261.377 807.485 259.157Z"/>
	<path fill="#FEFDFE" d="M405.652 226.434C406.181 225.655 406.996 225.042 407.692 224.407C418.537 241.195 425.575 259.831 431.604 278.801C437.226 296.491 441.507 314.635 445.644 332.716C451.368 357.208 456.52 381.831 461.096 406.563C465.525 429.417 470.998 452.409 473.397 475.581C474.123 482.602 474.767 490.587 473.303 497.561C472.464 501.556 471.12 504.195 468.204 507.041C466.441 495.282 466.849 483.233 464.829 471.394C463.411 463.076 460.658 455.089 458.444 446.967C457.083 441.972 456.172 436.797 455.095 431.732C452.165 417.96 449.594 404.107 446.577 390.357C443.718 377.327 440.42 364.375 437.396 351.381C433.733 335.647 430.871 319.776 426.386 304.233C422.7 291.46 417.696 279.021 412.443 266.823C408.507 257.681 404.586 248.423 398.236 240.659C400.48 237.228 406.354 232.702 407.003 228.829C407.138 228.023 406.122 227.074 405.652 226.434Z"/>
	<path d="M398.236 240.659C386.812 254.668 377.53 270.797 369.262 286.82C367.041 291.126 365.377 295.819 363.051 300.03C362.005 301.924 360.942 303.809 358.747 304.427L357.886 303.894C357.596 302.624 357.638 301.728 358.042 300.506C359.181 297.068 361.569 293.508 363.24 290.243C372.972 271.216 383.192 253.102 396.371 236.185C399.016 232.79 401.729 228.424 405.652 226.434C406.122 227.074 407.138 228.023 407.003 228.829C406.354 232.702 400.48 237.228 398.236 240.659Z"/>
	<path fill="#9F8BE8" d="M988.021 324.256C989.638 318.627 992.032 313.041 994.003 307.511C998.797 293.907 1003.84 280.393 1009.13 266.975C1014.06 254.36 1018.44 241.345 1024 229.007L1024 327.683C1012 326.667 1000 325.525 988.021 324.256Z"/>
	<path fill="#7459D2" d="M825.278 266.9C842.223 257.731 858.628 246.155 876.26 238.452C873.047 245.217 867.51 251.749 863.221 257.887C857.641 265.875 852.307 274.032 847.226 282.347C840.37 276.593 833.251 271.044 825.278 266.9Z"/>
	<path fill="#41286F" d="M821.694 320.818C807.613 317.83 787.833 314.929 775.52 307.488C770.602 304.515 766.322 299.942 765.039 294.196C763.478 287.199 766.778 278.831 770.623 273.03C775.205 266.117 781.467 262.278 789.572 260.614C807.442 258.985 831.341 275.417 845.308 285.936C842.954 290.064 826.18 318.971 823.751 321.072L821.694 320.818Z"/>
	<path fill="#9F8BE8" d="M469.444 428.411C475.569 426.004 481.892 421.9 487.76 418.839L530.754 396.441C598.408 361.024 666.584 326.613 735.259 293.22C739.546 291.155 757.313 281.882 760.045 281.653C760.468 281.617 760.881 281.796 761.299 281.867C759.654 288.823 759.593 294.976 763.186 301.38C756.315 305.913 748.146 309.234 740.835 313.086L691.916 339.253L550.994 417.515L507.066 441.492C496.354 447.202 485.383 452.617 474.97 458.849C473.221 448.686 471.379 438.539 469.444 428.411Z"/>
	<path fill="#7459D2" d="M474.97 458.849C485.383 452.617 496.354 447.202 507.066 441.492L550.994 417.515L691.916 339.253L740.835 313.086C748.146 309.234 756.315 305.913 763.186 301.38C768.522 309.363 774.745 313.789 784.033 316.075C784.136 316.1 784.242 316.11 784.346 316.128C764.026 328.746 742.8 339.985 721.998 351.783L592.573 424.516L500.333 476.781C492.87 480.969 484.597 487.461 477.481 491.018C479.234 480.993 476.563 468.876 474.97 458.849Z"/>
	<path fill="#9F8BE8" d="M477.481 491.018C484.597 487.461 492.87 480.969 500.333 476.781L592.573 424.516L721.998 351.783C742.8 339.985 764.026 328.746 784.346 316.128C795.747 319.745 806.759 322.673 818.647 324.27C809.75 328.247 800.897 332.319 792.088 336.487C771.358 346.187 759.408 353.484 750.769 375.647C734.089 418.437 733.499 485.021 737.466 530.366C738.8 545.611 740.306 562.797 746.555 576.868C747.342 578.64 748.358 580.233 749.424 581.848L749.62 582.149C750.643 625.053 754.981 671.689 773.07 711.111C776.418 718.407 780.606 726.857 786.624 732.371C787.872 733.535 789.249 734.551 790.729 735.401C793.648 735.47 797.887 735.048 800.605 735.921C807.271 741.778 814.548 746.99 821.6 752.37C832.193 760.456 842.742 768.6 853.248 776.8L976.727 873.622C986.235 881.111 995.811 888.514 1005.45 895.832C1011.67 900.568 1018.24 905.155 1024 910.437L1024 1024L925.227 1024C914.041 1016.37 902.58 1009.31 891.177 1002.02C868.845 987.452 846.162 973.431 823.147 959.969C797.056 944.554 768.748 927.424 740.724 916.042C742.805 908.676 743.083 901.329 742.875 893.717C746.097 888.464 749.491 883.668 753.887 879.334C748.749 863.336 742.556 847.665 736.625 831.948C723.257 795.945 708.669 760.408 692.885 725.397C681.77 700.427 669.763 672.044 655.644 648.836C624.597 654.672 594.176 663.598 563.949 672.652C556.956 657.564 548.68 643.099 540.608 628.573L517.368 586.104C513.915 579.762 501.869 554.651 498.16 551.477C496.482 550.041 493.011 550.839 490.972 551.052C490.941 548.015 491.061 544.766 490.199 541.833C488.108 534.718 475.313 519.356 470.857 510.704C475.752 504.909 476.449 498.193 477.481 491.018Z"/>
	<path fill="#7459D2" d="M748.935 572.856C738.98 543.083 738.673 483.124 741.048 451.07C743.135 422.896 747.322 373.316 770.081 353.91C773.071 351.405 776.297 349.198 779.715 347.319C787.446 342.986 816.975 328.532 824.079 327.369C834.401 325.68 868.786 330.455 881.512 331.65L949.867 337.685C974.577 340.086 999.256 343.057 1024 345.075L1024 597.691C988.685 580.15 952.375 564.353 916.569 547.825C881.375 531.579 846.524 514.521 811.194 498.583C809.375 484.106 800.866 458.862 791.618 448.043C788.498 444.393 784.428 441.515 779.488 441.299C774.98 441.103 770.939 443.136 767.741 446.193C763.014 450.711 759.793 456.99 757.358 462.976C747.139 488.095 747.777 520.434 748.428 547.25C748.635 555.777 749.175 564.327 748.935 572.856Z"/>
	<path fill="#41286F" d="M367.725 457.712C368.62 449.916 371.594 432.443 374.049 425.337C377.19 430.147 384.64 454.383 387.095 461.327L382.109 460.25C377.352 459.246 372.519 458.526 367.725 457.712Z"/>
	<path fill="#7459D2" d="M0 558.792L148.404 487.434C161.952 481.009 175.422 474.355 189.08 468.168C201.398 462.587 213.996 457.546 225.852 451.011C224.86 459.28 223.916 467.535 223.635 475.864C223.411 482.515 223.731 489.297 223.217 495.915C222.563 491.413 222.938 486.565 223.023 482.016C216.949 483.629 211.248 486.919 205.668 489.746C197.537 493.865 189.455 498.116 181.179 501.938C142.167 519.989 103.378 538.52 64.8214 557.526C43.2444 568.065 21.8865 579.155 0 589.035L0 558.792Z"/>
	<path fill="#41286F" d="M363.98 531.86C363.956 524.325 363.227 516.775 362.961 509.245C362.383 492.849 363.429 477.473 366.49 461.345C372.402 463.193 378.986 463.933 385.062 465.326C385.237 476.138 384.48 487.084 384.077 497.895C383.228 520.653 381.914 543.455 378.625 566.013C373.313 602.453 363.124 638.685 351.659 673.616C346.611 688.994 341.627 706.443 333.342 720.414C323.727 736.629 309.574 749.528 299.479 765.369C291.132 778.468 286.853 793.907 280.418 807.969C270.301 830.072 254.835 854.611 248.981 877.975C238.498 874.99 226.067 868.264 218.034 860.915C219.043 847.297 225.485 833.338 230.317 820.634C240.736 796.068 247.17 769.903 259.658 746.206C264.595 736.929 270.145 727.992 276.272 719.455C281.96 711.508 288.19 703.705 293.173 695.292C299.048 699.285 311.752 707.111 319.131 706.421C320.105 706.33 319.762 706.481 320.375 705.782C317.622 701.514 300.142 696.79 294.598 692.164C293.567 691.304 293.39 690.78 293.231 689.487C294.249 687.232 296.859 685.574 298.692 683.967C300.352 685.532 302.033 687.047 303.852 688.429C309.08 692.403 320.612 700.397 327.386 699.472C328.401 698.662 328.367 698.712 328.575 697.429C327.559 696.019 317.385 692.518 314.959 691.195C308.989 687.937 302.965 683.558 298.927 678.022L298.497 677.426C305.211 664.134 309.089 585.989 309.596 566.961C309.788 556.348 309.74 545.733 309.451 535.122C326.459 542.145 347.454 538.338 363.98 531.86Z"/>
	<path fill="#FEFDFE" d="M252.149 879.489C261.21 854.509 273.662 831.66 284.758 807.631C291.247 793.579 295.732 778.877 304.057 765.701C313.901 750.119 328.056 737.624 337.197 721.44C346.324 705.279 351.646 685.877 357.272 668.212C372.527 620.304 382.702 579.232 386.521 528.868C388.09 508.191 387.911 487.563 388.684 466.879C389.062 467.178 389.227 467.276 389.542 467.716C402.69 486.094 390.889 549.569 387.284 571.038L387.663 571.711L387.184 572.037L387.16 572.48L387.658 571.658L387.434 572.367L387.168 572.007L387.665 571.606C394.541 543.876 398.596 516.639 398.497 488.04C400.437 491.916 402.94 495.516 405.512 498.992C405.822 534.037 399.297 570.534 389.218 604.037C383.421 623.309 376.338 642.168 370.025 661.269C364.186 678.937 359.58 698.143 351.108 714.728C344.383 727.892 336.142 740.704 328.248 753.201C315.962 772.653 303.388 791.875 291.433 811.535C282.109 827.159 273.413 843.957 266.201 860.672C263.243 867.528 260.796 874.598 257.958 881.506L252.149 879.489Z"/>
	<path fill="#9F8BE8" d="M223.023 482.016C222.938 486.565 222.563 491.413 223.217 495.915C223.606 497.354 223.765 498.102 224.876 499.171C227.868 499.504 232.419 494.716 235.514 493.319C240.899 490.888 247.033 489.656 252.784 488.446C253.6 493.887 254.676 499.206 255.875 504.573C254.186 506.549 194.193 537.306 185.222 542.049L58.2071 609.467C48.3865 614.654 38.6202 619.944 28.9097 625.335C19.4016 630.639 9.96043 636.227 0 640.648L0 589.035C21.8865 579.155 43.2444 568.065 64.8214 557.526C103.378 538.52 142.167 519.989 181.179 501.938C189.455 498.116 197.537 493.865 205.668 489.746C211.248 486.919 216.949 483.629 223.023 482.016Z"/>
	<path fill="#41286F" d="M302.892 612.127C300.147 608.143 298.521 601.47 296.741 596.83C293.146 587.459 289.483 578.068 285.59 568.817C280.478 556.669 274.138 545.079 269.248 532.821C266.753 526.565 255.287 492.506 257.519 488.429C257.843 487.837 258.876 487.859 259.489 487.727C268.566 487.314 276.892 487.581 285.819 489.359C285.884 490.436 285.971 491.512 286.08 492.586C287.578 507.604 293.513 523.509 305.442 533.239C306.093 559.562 305.241 585.901 302.892 612.127Z"/>
	<path fill="#41286F" d="M360.089 529.045C354.909 530.894 349.687 532.502 344.27 533.5C332.427 535.68 317.621 536.214 307.323 528.901C295.786 520.707 291.964 503.544 289.913 490.456C298.212 492.931 307.195 495.941 314.81 500.151C321.781 504.004 328.355 508.62 335.456 512.238C339.305 514.199 344.676 516.718 348.996 515.069C353.548 513.333 356.624 501.903 358.288 497.673C358.542 505.086 358.939 512.498 359.281 519.907L360.089 529.045Z"/>
	<path fill="#7459D2" d="M255.875 504.573C257.522 511.319 259.631 517.851 261.808 524.44C255.556 527.159 249.593 531.18 243.576 534.45L195.748 560.827L88.1853 620.076C58.758 636.667 29.5727 653.789 0 670.103L0 640.648C9.96043 636.227 19.4016 630.639 28.9097 625.335C38.6202 619.944 48.3865 614.654 58.2071 609.467L185.222 542.049C194.193 537.306 254.186 506.549 255.875 504.573Z"/>
	<path fill="#7459D2" d="M812.61 503.424C819.688 507.252 827.226 510.441 834.5 513.906L880.723 535.796C928.255 558.399 976.016 580.515 1024 602.142L1024 724.033C1011.53 717.505 999.571 710.055 987.344 703.088C958.903 687.003 930.676 670.544 902.67 653.714C878.312 639.113 853.179 625.443 829.426 609.875C825.883 592.963 824.319 575.326 821.884 558.209C819.274 539.87 815.807 521.668 812.61 503.424Z"/>
	<path fill="#7459D2" d="M409.046 504.39C416.193 510.272 422.725 514.896 431.518 517.906C425.862 523.009 414.498 527.13 407.544 531.026C407.22 522.398 408.443 513.024 409.046 504.39Z"/>
	<path fill="#41286F" d="M478.895 573.895C479.111 568.11 479.424 556.929 476.896 551.615C475.79 550.737 475.814 550.679 474.414 550.713C473.403 551.661 473.284 551.748 473.289 553.232C473.31 559.375 475.795 565.017 475.434 571.448L469.7 572.941C470.293 567.579 471.078 557.279 467.513 552.816C466.3 552.432 466.13 552.57 464.896 552.955C464.484 553.391 464.001 553.617 464.055 554.263C464.12 555.033 464.401 555.478 464.717 556.164C466.472 559.965 467.114 565.595 465.706 569.606C465.196 571.06 464.635 571.889 463.22 572.553C461.752 572.073 461.059 571.428 460.388 570.01C460.192 569.598 454.434 552.883 454.388 552.626C452.23 540.675 452.563 530.107 446.311 519.192C453.933 518.177 460.434 516.818 467.464 513.577C470.442 518.535 473.427 523.487 476.887 528.129C479.807 532.046 483.48 535.725 485.76 540.051C488.315 544.897 490.583 558.625 489.406 563.909C489.221 564.743 489.253 564.521 488.788 565.41C486.057 561.47 487.302 550.255 482.748 548.016L481.45 548.154C480.718 549.304 480.605 549.938 480.902 551.304C481.926 556.016 485.084 561.828 484.175 566.649C481.952 569.463 480.342 569.892 479.646 573.693L478.895 573.895Z"/>
	<path fill="#9F8BE8" d="M431.518 517.906C435.18 518.693 438.834 519.184 442.55 519.637C445.132 525.304 447.258 530.886 448.485 537.011C450.094 545.042 450.518 552.81 452.851 560.752C450.673 561.24 448.399 561.496 446.622 562.924C446.047 564.11 445.898 564.356 446.27 565.709C447.344 569.614 450.384 573.958 452.343 577.538C458.39 588.584 464.691 599.445 470.948 610.37L520.63 697.661C515.782 701.9 499.305 716.339 498.432 722.044C497.352 729.095 588.776 910.261 599.615 930.017C602.857 935.924 606.233 942.469 610.672 947.541C617.854 947.148 624.918 945.864 631.983 944.579C630.345 949.124 631.237 952.42 633.231 956.762C635.014 960.646 638.145 965.319 642.422 966.648C643.779 967.069 645.084 966.944 646.463 966.75C647.031 966.828 647.626 966.793 648.166 966.983C648.214 967 700.051 1018.8 705.179 1024L592.213 1024C554.465 991.859 517.358 958.97 480.916 925.355L451.227 898.041C445.136 892.499 438.818 887.229 433 881.392C437.841 877.5 443.004 874.002 447.952 870.245C456.389 863.839 469.542 853.568 470.803 842.093C471.122 839.195 470.379 836.693 468.545 834.422C467.241 832.809 465.397 831.314 463.319 830.891C458.339 829.879 451.069 831.711 445.929 832.18C436.069 833.082 425.817 834.04 415.938 833.122C413.545 829.443 411.839 825.136 410.116 821.099C395.034 785.765 392.263 741.011 390.869 702.991C390.056 680.827 391.686 658.113 382.735 637.226C394.773 602.002 403.742 568.11 407.544 531.026C414.498 527.13 425.862 523.009 431.518 517.906Z"/>
	<path fill="#7459D2" d="M798.83 710.94C795.45 709.984 793.558 708.692 791.266 706.006C786.398 700.299 783.469 692.43 780.979 685.46C768.805 651.386 763.767 606.299 766.132 570.275C767.007 556.946 769.277 530.276 779.396 521.414C780.273 521.557 781.163 521.701 782.016 521.95C787.106 523.433 790.581 529.714 792.757 534.187C809.403 568.408 814.44 631.738 812.097 669.561C811.475 679.605 810.707 690.387 807.36 699.917C805.706 704.629 803.483 708.71 798.83 710.94Z"/>
	<path fill="#9F8BE8" d="M0 670.103C29.5727 653.789 58.758 636.667 88.1853 620.076L195.748 560.827L243.576 534.45C249.593 531.18 255.556 527.159 261.808 524.44C265.189 537.175 272.129 549.701 277.892 561.52C263.099 572.142 246.371 580.978 230.631 590.177L162.567 630.298L31.1129 708.046C20.7159 714.087 10.4906 720.416 0 726.297L0 670.103Z"/>
	<path fill="#9F8BE8" d="M478.895 573.895L479.646 573.693C482.572 573.188 485.374 572.262 487.878 570.634C492.187 567.834 493.781 563.926 494.809 559.145C498.446 565.277 501.641 571.759 505.047 578.03L525.852 616.241C536.373 635.519 547.728 654.448 557.356 674.194L525.547 693.632C517.221 674.862 505.381 657.235 495.316 639.351C486.932 624.207 478.396 609.148 469.708 594.177C466.794 589.072 462.277 578.884 458.287 575.054C461.929 575.595 465.63 576.271 469.301 576.535C473.265 576.82 475.882 576.543 478.895 573.895Z"/>
	<path fill="#7459D2" d="M277.892 561.52C282.414 570.869 286.279 580.711 290 590.409C226.087 629.37 161.591 667.368 96.5352 704.389L43.1008 735.692C28.924 744.072 14.6852 752.754 0 760.218L0 726.297C10.4906 720.416 20.7159 714.087 31.1129 708.046L162.567 630.298L230.631 590.177C246.371 580.978 263.099 572.142 277.892 561.52Z"/>
	<path fill="#9F8BE8" d="M0 760.218C14.6852 752.754 28.924 744.072 43.1008 735.692L96.5352 704.389C161.591 667.368 226.087 629.37 290 590.409C291.826 595.837 293.812 601.21 295.954 606.521C297.926 611.417 300.747 616.525 301.681 621.721C302.97 628.899 299.104 655.034 297.774 663.218C297.254 666.421 296.296 669.549 295.856 672.752C295.483 675.475 296.216 680.9 295.131 683.062C293.59 686.13 287.709 684.244 288.187 688.988C288.35 690.605 289.121 692.022 289.854 693.441C279.866 709.169 267.59 723.391 258.612 739.762C255.227 745.819 252.172 752.056 249.462 758.443C243.246 773.166 238.431 788.509 232.801 803.46C226.812 819.364 219.583 835.266 215.384 851.753C214.587 854.879 213.908 858.214 214.708 861.407C215.108 863.003 216 864.34 216.887 865.701C213.864 869.737 210.813 873.684 207.34 877.354C200.046 885.061 179.376 902.461 180.437 913.42C180.781 916.973 186.478 920.831 189.176 922.848C201.155 931.803 213.911 940.067 225.334 949.721C213.055 962.548 199.503 974.454 186.523 986.587C173.181 999.058 160.135 1011.93 146.426 1024L0 1024L0 760.218Z"/>
	<path fill="#7459D2" d="M829.277 614.811C879.771 644.09 929.21 675.108 980.107 703.705C994.737 711.924 1008.8 721.775 1024 728.877L1024 752.899C1004.62 740.079 984.553 728.404 964.727 716.311L904.152 678.829C879.816 663.723 855.5 648.701 831.865 632.495C830.51 626.685 829.879 620.737 829.277 614.811Z"/>
	<path fill="#FEFDFE" d="M410.645 832.47C410.487 832.4 410.326 832.335 410.171 832.259C402.766 828.632 398.806 817.272 396.386 809.955C392.055 796.861 389.33 783.023 387.362 769.392C383.549 742.99 383.064 716.449 381.295 689.884C380.452 677.217 378.152 664.25 378.462 651.566C378.543 648.241 379.06 645.816 380.549 642.828C387.137 654.27 385.992 682.577 386.395 696.097C386.721 707.083 387.219 718.063 387.892 729.033C390.278 762.97 395.481 801.581 411.418 832.034L410.645 832.47Z"/>
	<path fill="#7459D2" d="M563.964 676.409C572.66 673.225 582.246 671.233 591.208 668.737C611.03 663.216 631.433 657.294 651.699 653.644L652.948 653.541C655.689 655.216 662.266 669.943 663.945 673.301C682.45 711.138 699.632 749.608 715.46 788.641C727.23 818.096 737.873 847.97 749.313 877.546C738.888 881.425 727.856 883.639 717.272 887.071C702.11 891.988 687.177 898.18 671.81 902.375L669.011 895.652C663.432 881.71 657.09 868.114 650.949 854.417C636.876 822.683 622.046 791.291 606.471 760.266C592.436 732.248 577.651 704.6 563.964 676.409ZM647.316 668.581C633.099 671.836 619.033 675.933 604.917 679.61C597.764 681.474 589.57 682.624 582.784 685.471C582.106 689.919 594.628 711.474 597.195 716.547C623.9 768.476 649.401 821.016 673.678 874.124C675.15 877.425 676.711 880.504 678.638 883.564C687.339 881.161 695.834 877.743 704.383 874.827C712.831 871.947 721.933 869.482 729.993 865.648C723.062 848.648 717.205 831.14 710.664 813.978C693.831 769.81 676.612 725.469 657.257 682.341C655.492 678.409 653.868 671.311 650.451 668.733C649.329 668.495 648.457 668.486 647.316 668.581Z"/>
	<path fill="#41286F" d="M333.529 751.888C341.379 739.834 351.148 724.553 356.878 711.492C363.959 695.353 368.357 677.938 374.207 661.325C377.255 667.896 379.045 721.493 379.892 733.334C380.792 747.482 382.278 761.586 384.345 775.611C387.464 795.509 392.393 824.865 409.46 837.326C406.347 841.412 402.198 844.596 397.801 847.196C392.787 850.162 375.901 856.64 370.536 855.23C360.967 839.177 359.403 821.289 353.415 803.984C347.332 786.404 339.653 769.478 333.529 751.888Z"/>
	<path d="M673.678 874.124C649.401 821.016 623.9 768.476 597.195 716.547C594.628 711.474 582.106 689.919 582.784 685.471C589.57 682.624 597.764 681.474 604.917 679.61C619.033 675.933 633.099 671.836 647.316 668.581C648.457 668.486 649.329 668.495 650.451 668.733C653.868 671.311 655.492 678.409 657.257 682.341C676.612 725.469 693.831 769.81 710.664 813.978C717.205 831.14 723.062 848.648 729.993 865.648C721.933 869.482 712.831 871.947 704.383 874.827C695.834 877.743 687.339 881.161 678.638 883.564C676.711 880.504 675.15 877.425 673.678 874.124ZM647.298 672.56C627.492 677.829 607.617 682.924 587.892 688.49C597.008 707.555 607.205 726.037 616.567 744.968C636.996 785.983 656.862 827.277 676.16 868.837L680.481 878.492C695.232 874.024 709.517 867.792 724.306 863.545C705.173 810.425 684.6 757.835 662.61 705.832C659.925 699.424 651.184 676.583 648.146 672.712L647.298 672.56Z"/>
	<path fill="#7459D2" d="M587.892 688.49C607.617 682.924 627.492 677.829 647.298 672.56L648.146 672.712C651.184 676.583 659.925 699.424 662.61 705.832C684.6 757.835 705.173 810.425 724.306 863.545C709.517 867.792 695.232 874.024 680.481 878.492L676.16 868.837C656.862 827.277 636.996 785.983 616.567 744.968C607.205 726.037 597.008 707.555 587.892 688.49Z"/>
	<path fill="#7459D2" d="M535.73 692.421C543.411 687.209 551.279 682.278 559.317 677.636C562.22 680.146 575.928 709.292 578.499 714.463C609.595 776.994 640.938 839.193 667.85 903.702C659.942 906.84 652.409 910.265 644.95 914.364C627.672 875.559 607.743 837.957 588.941 799.891L562.375 746.322C553.623 728.308 545.201 710.073 535.73 692.421Z"/>
	<path fill="#9F8BE8" d="M846.727 734.073C862.603 716.209 867.597 706.315 873.415 682.663C888.041 693.308 903.19 703.38 917.985 713.807C926.534 719.832 938.011 728.954 946.937 733.885C943.824 735.421 937.32 734.935 933.793 734.986C920.9 735.172 907.889 734.549 894.988 734.292C878.903 733.958 862.814 733.885 846.727 734.073Z"/>
	<path fill="#7459D2" d="M501.768 722.207C509.574 712.96 518.994 702.985 528.903 696.005C531.75 699.504 535.681 709.304 537.808 713.712L561.106 762.326L613.783 868.16C622.149 884.937 631.044 901.545 638.798 918.614C629.108 925.945 620.513 934.391 612.612 943.593C604.823 932.518 599.025 919.829 592.952 907.775L571.035 864.456C555.571 834.063 540.361 803.54 525.407 772.893C517.416 756.05 509.536 739.154 501.768 722.207Z"/>
	<path fill="#41286F" d="M800.605 735.921C809.597 736.139 839.583 736.067 846.727 734.073C862.814 733.885 878.903 733.958 894.988 734.292C907.889 734.549 920.9 735.172 933.793 734.986C937.32 734.935 943.824 735.421 946.937 733.885C956.032 739.281 964.318 746.191 973.008 752.228C989.906 763.935 1006.9 775.498 1024 786.915L1024 910.437C1018.24 905.155 1011.67 900.568 1005.45 895.832C995.811 888.514 986.235 881.111 976.727 873.622L853.248 776.8C842.742 768.6 832.193 760.456 821.6 752.37C814.548 746.99 807.271 741.778 800.605 735.921Z"/>
	<path fill="#9F8BE8" d="M330.646 757.359C337.57 775.408 345.655 792.97 351.71 811.358C354.573 820.051 355.653 829.315 358.606 837.959C361.685 846.973 368.137 855.815 368.836 865.356C369.566 875.329 368.26 900.731 372.848 908.156C374.589 910.973 377.486 911.698 380.531 912.371C397.025 923.081 414.159 932.545 430.961 942.718L568.109 1024L522.617 1024L316.732 958.89C316.54 957.351 316.412 955.756 316.066 954.242C312.005 936.439 291.312 938.902 278.864 930.564C277.09 929.375 276.216 928.176 275.098 926.383C271.498 920.61 268.869 914.089 265.629 908.085C262.625 902.518 258.757 897.269 256.321 891.418C255.372 889.138 255.009 886.457 254.544 884.034C256.464 884.358 258.263 884.541 260.211 884.539C261.262 883.67 261.555 882.904 262.107 881.716C264.346 876.894 265.991 871.731 267.969 866.791C270.544 860.363 273.452 854.207 276.581 848.031C281.168 838.977 285.607 829.723 290.654 820.916C303.125 799.15 317.241 778.534 330.646 757.359Z"/>
	<path fill="#41286F" d="M414.098 836.93C427.752 838.135 441.721 836.387 455.35 835.249C455.815 835.174 456.637 835.239 457.117 835.242L457.282 835.841C455.267 839.02 452.969 841.774 450.153 844.277C441.086 852.339 430.243 858.933 420.486 866.167C410.577 873.515 400.711 884.313 389.303 889.044C384.879 890.879 379.295 890.115 374.606 889.867C374.496 889.793 374.371 889.737 374.277 889.645C372.232 887.647 372.445 862.389 372.421 858.659C374.276 858.401 376.126 858.111 377.971 857.791C393.456 855.024 404.937 849.995 414.098 836.93Z"/>
	<path fill="#9F8BE8" d="M373.972 892.171C378.36 893.168 382.669 893.953 387.175 893.178C390.693 892.573 393.498 891.008 396.473 889.134C405.233 883.615 412.981 876.463 421.284 870.278C432.106 862.217 443.796 854.958 453.806 845.858C457.401 842.59 460.195 838.785 463.06 834.881C463.666 835.271 464.318 835.656 464.833 836.171C466.367 837.706 467.132 840.191 466.908 842.323C465.464 856.044 439.255 871.17 429.253 879.463C421.785 885.655 414.993 892.692 407.285 898.598C397.92 905.775 389.268 908.873 377.508 907.318C377.026 907.098 376.642 906.951 376.21 906.619C373.884 904.835 374.154 895.139 373.972 892.171Z"/>
	<path fill="#41286F" d="M197.219 892.566C201.322 888.638 205.619 884.851 209.465 880.669C213.232 876.573 216.626 872.08 220.2 867.814C229.396 874.768 240.039 879.229 250.68 883.421C251.518 887.28 252.438 890.887 253.98 894.526C256.201 899.767 259.371 904.7 262.031 909.733C265.48 916.258 268.337 923.51 272.588 929.522C274.129 931.701 275.912 933.649 278.238 935.001C284.65 938.729 292.606 939.808 299.473 942.609L300.2 942.909C292.926 945.635 285.076 946.274 277.407 946.999C270.567 947.09 264.148 946.227 257.832 943.47C239.11 935.297 214.928 906.745 197.733 892.972L197.219 892.566Z"/>
	<path fill="#41286F" d="M380.531 912.371C406.018 911.408 414.246 895.071 433 881.392C438.818 887.229 445.136 892.499 451.227 898.041L480.916 925.355C517.358 958.97 554.465 991.859 592.213 1024L568.109 1024L430.961 942.718C414.159 932.545 397.025 923.081 380.531 912.371Z"/>
	<path fill="#9F8BE8" d="M183.96 912.802C185.971 906.446 190.255 900.949 194.375 895.828C214.895 909.818 231.985 935.659 254.841 946.418C270.571 953.823 290.251 951.097 306.104 945.389C308.183 947.503 310.427 949.926 311.714 952.63C312.345 953.957 312.537 955.604 311.813 956.94C310.625 959.133 307.099 959.435 304.891 959.94C290.412 963.049 275.885 965.053 261.043 963.689C254.912 963.126 248.989 961.832 243.515 958.929C234.993 954.41 228.046 946.747 220.429 940.876C209.836 932.712 192.129 922.535 183.96 912.802Z"/>
	<path fill="#9F8BE8" d="M717.19 908.512C719.044 914.771 720.736 920.843 726.412 924.735C728.426 924.955 730.342 925.05 732.367 924.98C737.851 930.273 743.963 934.952 749.363 940.275C742.548 945.189 734.86 949.011 727.487 953.02L696.794 969.677C683.588 964.779 670.867 958.716 657.636 953.847C656.982 953.606 657.197 953.681 656.631 953.074C658.054 946.361 658.558 939.991 658.653 933.152C678.644 926.584 698.658 918.474 717.19 908.512Z"/>
	<path fill="#41286F" d="M726.412 924.735C728.724 924.686 731.241 924.758 733.437 923.966C737.402 922.535 738.942 919.576 740.724 916.042C768.748 927.424 797.056 944.554 823.147 959.969C846.162 973.431 868.845 987.452 891.177 1002.02C902.58 1009.31 914.041 1016.37 925.227 1024L705.179 1024C700.051 1018.8 648.214 967 648.166 966.983C647.626 966.793 647.031 966.828 646.463 966.75C647.716 966.275 649.35 966.563 650.737 966.389C654.392 964.194 655.636 956.931 656.631 953.074C657.197 953.681 656.982 953.606 657.636 953.847C670.867 958.716 683.588 964.779 696.794 969.677L727.487 953.02C734.86 949.011 742.548 945.189 749.363 940.275C743.963 934.952 737.851 930.273 732.367 924.98C730.342 925.05 728.426 924.955 726.412 924.735Z"/>
	<path fill="#41286F" d="M225.334 949.721C229.857 953.324 234.159 957.475 239.012 960.62C252.062 969.078 269.689 968.832 284.593 967.135C291.491 966.35 312.403 964.192 316.489 959.247C316.58 959.136 316.651 959.009 316.732 958.89L522.617 1024L146.426 1024C160.135 1011.93 173.181 999.058 186.523 986.587C199.503 974.454 213.055 962.548 225.334 949.721Z"/>
</svg>
