<?xml version="1.0" encoding="utf-8" ?>
<svg xmlns="http://www.w3.org/2000/svg" xmlns:xlink="http://www.w3.org/1999/xlink" width="1024" height="1024">
	<path fill="#C5C4FB" d="M0 0L505.471 0L505.37 56.6856C499.411 51.221 491.142 47.6863 484.358 43.2658C474.664 36.9497 461.839 25.8794 451.278 21.9278C445.947 19.9332 439.222 19.4072 433.563 19.627C417.169 20.2637 399.954 26.8173 388.678 39.0109C380.574 47.7734 375.873 59.9292 376.393 71.8855C377.513 97.6645 394.94 95.1002 373.877 124.251C354.535 117.64 334.817 112.186 314.827 107.917C309.505 114.228 304.943 121.405 300.181 128.165C287.53 146.125 271.982 166.282 274.053 189.665C274.594 195.272 276.303 200.704 279.068 205.611C272.021 221.296 266.787 238.276 260.928 254.464C249.22 286.816 237.667 319.055 224.188 350.734C217.814 365.327 211.003 379.727 203.766 393.913C201.104 399.096 190.12 417.378 189.199 421.644C189.052 422.321 189.087 422.409 189.115 423.007C193.006 425.92 205.945 422.949 211.078 422.802C212.026 435.157 214.107 447.407 216.07 459.632C219.349 480.393 223.096 501.077 227.308 521.669L245.851 618.201C241.681 621.03 234.571 625.632 233.355 630.794C232.886 632.786 233.45 634.729 234.583 636.389C237.221 640.255 241.929 642.711 245.586 645.503C239.97 647.315 233.843 648.692 230.928 654.429C230.439 655.391 230.028 656.39 229.612 657.385L230.909 662.637C217.795 681.516 203.977 699.885 190.907 718.799C181.725 732.294 172.853 745.998 164.298 759.898C162.055 763.505 154.789 773.602 154.847 777.419L155.448 778.583C154.811 781.755 153.024 783.528 150.38 785.269C149.766 785.674 149.038 786.237 148.328 786.441C145.811 787.364 144.371 788.771 142.669 790.778C113.935 794.165 85.166 797.254 56.3678 800.047C37.767 802.032 18.6686 804.94 0 805.677L0 0Z"/>
	<path d="M505.471 0L510.317 0L510.367 60.9336C514.696 66.7026 517.539 71.7625 516.541 79.2922C515.612 86.3003 510.856 92.0714 510.063 99.0343C509.615 102.968 509.955 107.204 509.984 111.165L510.031 131.946L510.322 210.904C510.016 255.316 509.948 299.729 510.118 344.141L510.181 377.539C510.167 383.975 509.874 390.536 510.228 396.959C518.762 405.297 527.149 414.011 536.144 421.841L536.035 340.695C536.041 327.538 535.325 313.904 536.13 300.79C536.198 299.676 536.26 298.873 537.007 297.991C538.929 297.704 541.04 298.55 542.862 299.141C556.894 303.698 570.675 309.326 584.682 314.069C595.671 317.736 606.628 321.5 617.552 325.36C622.484 327.108 627.733 328.644 632.494 330.801L632.728 694.959L632.615 785.381L632.658 809.854C632.67 814.275 633.234 819.447 632.369 823.765C631.222 824.437 630.694 824.596 629.38 824.188C626.315 823.236 623.032 821.259 620.091 819.903L596.258 808.841L560.025 792.376C552.396 788.917 543.077 785.633 536.436 780.543C535.382 768.771 536.091 756.458 536.116 744.622L536.305 679.141L536.202 478.594C532.917 478.029 529.785 477.635 526.45 477.575C521.157 473.715 515.927 469.968 510.335 466.55L510.272 669.75C509.967 717.678 510.019 765.608 510.428 813.536C528.366 823.702 546.927 832.924 565.206 842.461C595.578 858.472 626.04 874.313 656.589 889.983C702.314 913.625 747.455 938.464 793.288 961.895C794.28 927.66 793.523 893.212 793.523 858.948L793.457 665.269L793.364 0L798.51 0L798.82 963.148C808.155 962.134 817.569 961.678 826.938 961.058L827.514 0L832.896 0L832.507 913.999C856.634 921.411 880.54 929.742 904.505 937.665C926.089 944.801 947.878 951.401 969.536 958.317C987.702 964.118 1005.76 970.29 1024 975.855L1024 981.802L929.494 951.595C897.123 940.948 864.845 929.827 832.205 920.022C832.071 926.676 831.89 933.363 832.189 940.015C871.408 953.784 910.749 967.206 950.205 980.279L997.616 996.4C1006.37 999.464 1015.15 1003.18 1024 1005.86L1024 1011.45L925.835 977.909C894.685 967.51 863.353 957.422 832.557 946.004C832.584 952.447 832.508 958.89 832.328 965.33C819.943 966.74 807.531 967.894 795.098 968.791C779.423 959.412 760.574 951.135 744.183 942.457C700.821 919.294 657.269 896.489 613.531 874.045C586.199 859.943 559.221 845.138 531.788 831.233C523.826 827.197 516.094 822.174 507.883 818.71C503.442 816.836 498.072 816.671 493.413 815.201C476.864 809.977 460.794 804.813 444.864 797.893C443.959 813.331 442.458 828.766 441.357 844.195C440.712 853.251 440.925 863.296 439.172 872.171C437.228 874.649 433.669 874.865 430.762 875.439C430.121 878.198 429.916 880.943 429.693 883.759C433.994 885.684 437.37 888.146 440.926 891.218C445.888 888.259 450.581 885.783 456.527 885.565C460.727 885.411 466.29 886.402 469.436 889.376C469.653 889.987 469.966 890.385 469.651 891.047C467.619 895.318 454.667 896.999 450.196 898.845C450.007 898.923 449.82 899.006 449.632 899.086C450.662 899.286 451.69 899.493 452.717 899.707C459.355 901.102 485.88 910.604 491.988 914.011C493.816 915.031 495.171 916.084 496.313 917.839C496.523 919.56 495.942 919.877 494.98 921.27C495.942 921.62 495.595 921.542 496.331 921.688C501.031 922.622 505.644 925.163 510.254 926.601C520.656 929.847 546.366 934.855 553.357 942.497C555.864 945.238 559.061 950.924 558.8 954.743C558.682 956.465 557.853 957.83 556.549 958.901C548.864 965.213 514.807 968.983 503.645 969.324C486.19 969.857 468.117 967.76 450.671 966.863C424.039 965.495 397.302 964.772 370.725 962.539C368.484 962.351 364.522 962.378 362.997 960.578C361.717 956.178 362.869 950.982 363.341 946.478C365.03 930.364 367.609 915.761 372.736 900.371C373.574 897.855 374.917 891.661 376.966 890.37C377.973 889.735 379.452 889.404 380.553 888.854C382.773 885.641 381.708 877.248 381.678 873.34C376.427 872.132 371.639 870.23 367.094 867.349C366.486 860.542 367.107 853.715 366.811 846.902L364.121 796.201C340.097 797.861 315.969 801.404 292.01 803.914C276.997 805.418 261.998 807.057 247.015 808.832C238.193 809.856 229.236 810.629 220.524 812.377C217.189 817.016 208.552 831.701 203.722 833.311C197.872 835.263 187.752 828.472 182.641 825.869C179.869 829.544 177.078 833.052 173.921 836.406C176.823 838.691 185.989 843.218 185.538 847.363C185.223 850.25 184.337 850.224 185.866 853.164C187.643 856.58 189.769 859.846 191.399 863.331C199.917 881.548 205.898 900.658 217.116 917.569C221.673 924.44 227.386 930.839 232.918 936.94C237.627 942.135 242.757 946.867 245.41 953.48C244.938 957.219 244.185 964.566 241.627 967.419C239.874 969.373 235.973 969.846 233.525 969.85C201.156 969.905 156.873 922.951 131.644 903.284C124.324 897.577 116.982 891.809 109.452 886.384C102.015 881.026 93.0951 875.584 86.7708 868.967C85.216 867.341 83.7356 865.478 83.8739 863.113C84.3952 854.2 114.082 827.634 121.636 821.034C127.35 825.776 132.462 831.268 138.012 836.211C143.089 840.734 148.627 844.678 154.046 848.774C156.079 850.311 159.35 852.363 160.344 854.745C160.419 854.927 160.478 855.115 160.55 855.298C162.691 860.786 162.248 866.967 164.41 872.469C172.498 893.059 191.677 908.528 207.405 923.389C205.069 919.353 201.67 915.731 198.821 912.029C191.529 902.55 196.289 906.641 197.04 900.993L196.504 900.629C195.53 901.694 194.886 902.481 193.445 902.905C186.84 900.386 191.196 893.759 189.53 889.585C188.226 886.317 185.174 883.395 183.427 880.221C181.566 882.461 178.622 887.008 175.891 888.005C174.774 888.412 174.425 888.017 173.554 887.426C173.144 886.534 172.967 886.018 173.035 885.011C173.213 882.342 176.153 877.637 178.38 876.235C179.563 875.491 179.758 875.526 180.997 875.89L181.69 875.473L181.446 874.495C181.271 874.443 181.096 874.394 180.921 874.341C180.69 874.27 180.462 874.189 180.23 874.121C179.552 873.92 179.548 874.002 178.897 873.595C176.866 872.326 175.454 869.46 174.989 867.203C175.511 865.909 176.289 865.838 177.482 865.221C174.911 862.185 172.315 859.171 169.693 856.18C169.439 856.703 169.185 857.228 168.911 857.74C168.174 859.117 167.764 859.638 166.245 860.075C164.754 859.612 164.455 859.507 163.394 858.383C162.263 854.74 164.149 851.132 165.34 847.695C152.842 839.905 138.862 829.117 130.713 816.772C128.206 817.959 125.751 819.385 122.993 819.846C116.705 818.665 103.564 820.834 96.8077 821.507C80.2812 823.124 63.7662 824.857 47.2639 826.705C31.5726 828.353 15.6014 829.287 0 831.456L0 826.109L81.0484 817.65C95.0418 816.366 109.025 814.968 122.995 813.457C125.949 813.15 130.016 813.525 132.713 812.503C135.662 811.386 144.648 801.062 145.974 798.114L145.25 797.161C144.495 796.851 143.872 796.613 143.043 796.628C130.625 796.852 117.672 799.089 105.273 800.397L45.9498 806.621C30.6841 808.221 15.3359 810.029 0 810.729L0 805.677C18.6686 804.94 37.767 802.032 56.3678 800.047C85.166 797.254 113.935 794.165 142.669 790.778C144.371 788.771 145.811 787.364 148.328 786.441C148.398 786.76 148.472 787.078 148.539 787.398C148.766 788.483 148.474 791.103 148.832 791.838C151.123 796.544 171.828 811.506 176.977 814.998C184.727 820.255 192.35 825.521 201.235 828.674C204.814 824.755 207.885 820.409 211.038 816.148C213.615 813.845 216.039 809.857 218.138 807.053C223.154 800.353 228.038 793.488 233.628 787.248C240.068 780.057 246.977 773.221 253.643 766.236L292.74 725.332C300.653 717.091 316.318 701.874 321.882 692.714C327.571 683.347 330.928 672.229 333.685 661.664C334.902 656.999 335.872 652.147 337.531 647.618C337.592 647.451 337.656 647.286 337.719 647.12C336.853 645.818 336.025 644.491 335.237 643.14C328.057 630.821 321.701 617.965 315.217 605.267C300.936 577.298 287.508 549.072 273.95 520.756C267.152 506.671 260.599 492.469 254.295 478.157C251.634 472.244 248.044 465.985 246.298 459.77C245.839 458.135 245.664 456.917 246.098 455.271C246.724 454.542 246.992 454.287 247.942 453.978C248.899 453.667 248.853 453.861 249.674 454.269C255.707 464.543 261.23 480.253 266.676 491.625L294.833 551.736C303.459 569.817 312.604 587.777 321.706 605.622C328.907 619.819 336.29 633.922 343.853 647.929C347.309 654.332 360.265 675.71 361.337 680.657C362.537 686.192 354.705 688.789 355.282 694.59C355.876 700.563 362.215 704.2 362.951 710.391C368.304 755.42 370.246 800.971 372.229 846.256C393.05 852.487 414.129 854.697 435.569 850.243C435.374 833.336 437.506 816.325 439 799.5L444.051 736.671C445.54 719.247 447.618 701.666 447.987 684.179C448.22 673.133 446.623 661.886 444.881 651.004C440.377 622.871 432.761 595.655 425.292 568.203C414.222 527.514 402.629 487.236 389.588 447.133C387.719 452.776 385.301 458.207 383.379 463.834C378.811 477.216 374.549 491.108 369.074 504.135C368.079 506.501 366.749 510.005 364.31 511.025C362.528 510.67 361.259 509.583 360 508.326C356.322 504.656 353.487 499.796 350.302 495.68C346.311 490.522 341.877 485.602 337.447 480.818C304.894 445.666 264.518 425.054 216.248 423.218C218.102 434.791 219.61 446.415 221.508 457.979C226.899 490.017 232.651 521.994 238.764 553.902C241.576 568.56 244.204 583.276 247.193 597.897C248.486 604.223 251.117 611.54 251.448 617.909C251.709 622.929 241.573 627.858 238.256 631.576L237.79 632.107C241.985 636.307 249.267 639.07 252.062 644.382C252.489 645.193 252.786 646.361 252.438 647.237C250.884 651.141 241.886 651.957 238.444 653.786C236.978 654.566 236.286 655.382 235.75 656.981C235.703 658.714 236.655 659.83 237.567 661.212C231.609 674.009 219.036 688.864 210.561 700.745C193.256 725.002 175.76 749.504 161.025 775.441C169.516 783.83 181.332 793.856 191.438 800.107C194.196 801.813 204.52 807.124 205.808 809.581C206.123 810.181 205.552 811.464 205.376 812.116C204.856 812.272 204.555 812.385 203.985 812.442C195.336 813.317 162.225 784.435 155.448 778.583L154.847 777.419C154.789 773.602 162.055 763.505 164.298 759.898C172.853 745.998 181.725 732.294 190.907 718.799C203.977 699.885 217.795 681.516 230.909 662.637L229.612 657.385C230.028 656.39 230.439 655.391 230.928 654.429C233.843 648.692 239.97 647.315 245.586 645.503C241.929 642.711 237.221 640.255 234.583 636.389C233.45 634.729 232.886 632.786 233.355 630.794C234.571 625.632 241.681 621.03 245.851 618.201L227.308 521.669C223.096 501.077 219.349 480.393 216.07 459.632C214.107 447.407 212.026 435.157 211.078 422.802C205.945 422.949 193.006 425.92 189.115 423.007C189.087 422.409 189.052 422.321 189.199 421.644C190.12 417.378 201.104 399.096 203.766 393.913C211.003 379.727 217.814 365.327 224.188 350.734C237.667 319.055 249.22 286.816 260.928 254.464C266.787 238.276 272.021 221.296 279.068 205.611C276.303 200.704 274.594 195.272 274.053 189.665C271.982 166.282 287.53 146.125 300.181 128.165C304.943 121.405 309.505 114.228 314.827 107.917C334.817 112.186 354.535 117.64 373.877 124.251C394.94 95.1002 377.513 97.6645 376.393 71.8855C375.873 59.9292 380.574 47.7734 388.678 39.0109C399.954 26.8173 417.169 20.2637 433.563 19.627C439.222 19.4072 445.947 19.9332 451.278 21.9278C461.839 25.8794 474.664 36.9497 484.358 43.2658C491.142 47.6863 499.411 51.221 505.37 56.6856L505.471 0ZM393.765 168.663C360.752 173.646 315.375 235.223 287.328 215.056C285.72 213.9 284.273 212.545 282.833 211.19C274.331 229.843 267.407 253.242 260.315 272.73C242.175 322.571 223.203 372.546 196.53 418.56C239.949 414.199 283.348 427.027 317.419 454.293C334.873 468.557 350.27 485.167 363.172 503.651C368.169 492.416 371.612 480.356 375.661 468.751C382.494 449.165 389.682 429.473 395.41 409.539C398.906 397.37 401.739 382.991 405.817 371.432C398.672 349.86 391.607 328.35 385.571 306.432C375.692 270.561 364.217 226.268 381.869 191.087C383.733 187.37 387.767 179.159 391.889 177.641C392.04 177.585 392.199 177.559 392.355 177.519C394.241 179.616 394.559 180.963 393.453 183.544C391.573 187.931 387.938 191.716 385.768 196.098C378.509 210.76 377.711 229.46 378.851 245.491C380.779 272.588 390.503 306.092 398.815 332.146C403.55 346.988 408.218 361.812 413.561 376.449C415.226 381.011 416.686 386.415 419.287 390.507C423.97 397.875 452.864 417.484 461.206 423.608C476.446 434.957 491.791 446.165 507.239 457.228C513.883 461.935 521.384 466.202 527.467 471.594C527.628 471.737 527.786 471.884 527.946 472.03C535.709 462.175 543.28 453.005 553.512 445.555C546.575 437.37 537.192 430.692 529.327 423.341C514.748 409.713 500.853 395.41 486.137 381.907C478.297 374.713 468.791 367.361 462.298 358.983C461.341 357.748 460.834 357.177 460.997 355.604C463.175 353.001 466.321 353.294 469.493 353.004C466.123 348.204 461.703 344.268 458.072 339.662C456.869 320.3 453.652 299.579 451.575 280.105C450.084 265.719 448.468 251.345 446.728 236.986C445.402 225.513 444.242 214.071 441.768 202.773C439.753 193.572 436.43 177.179 427.827 171.941C418.365 166.179 404.196 166.07 393.765 168.663ZM433.868 24.7411C417.968 26.0402 402.081 31.533 391.525 44.0996C384.761 52.1509 381.194 62.5274 382.136 73.0379C382.577 77.9573 384.021 82.3094 385.712 86.9264C392.16 104.523 390.872 110.755 379.488 125.727C385.404 128.354 391.704 130.219 397.527 132.982C407.539 130.483 425.093 119.136 430.435 110.222C435.339 102.037 432.544 88.9099 444.919 85.6861C446.548 85.2617 448.266 85.4748 449.918 85.63C453.202 87.5873 455.005 89.7549 455.934 93.5271C457.256 98.8911 456.383 105.06 456.38 110.556C477.667 101.291 478.967 98.4479 491.727 79.8557C492.908 78.1344 493.823 77.623 495.868 77.9616C498.305 79.9932 498.66 83.7746 498.94 86.7787C499.395 91.6482 499.001 96.0927 498.19 100.893C504.593 93.4623 511.671 84.0047 510.765 73.5996C510.304 68.315 505.518 64.098 501.597 60.9395C495.481 56.0117 488.494 52.5696 481.975 48.2642C471.62 41.4256 461.083 31.4175 449.441 26.9827C444.584 25.1328 439.013 24.8167 433.868 24.7411ZM492.953 88.9202C485.029 99.4334 477.502 106.854 465.592 112.81C462.834 114.189 459.535 115.958 456.447 116.338C455.001 116.516 453.579 116.404 452.34 115.541C450.659 114.369 450.331 112.525 450.202 110.631C449.922 106.505 452.146 94.5167 449.257 91.8901C448.232 90.9582 447.318 90.8025 445.995 90.8534C442.887 92.1253 441.351 95.1127 440.106 98.0835C437.966 103.192 435.879 108.639 438.224 114.066C439.687 117.453 444.221 119.886 444.924 123.139C444.473 124.272 444.318 124.768 443.086 125.276C441.827 125.794 440.495 125.594 439.34 124.948C436.467 123.342 434.463 119.687 432.98 116.855C426.558 123.279 419.878 128.382 412.074 133.032L404.943 136.565C414.322 141.349 421.17 147.078 427.613 155.427C430.128 153.325 432.604 151.177 435.038 148.983C439.752 153.115 447.429 162.269 454.202 162.124C457.278 162.058 459.837 159.08 461.57 156.86C473.252 141.893 487.671 116.022 492.325 97.7084C492.868 95.5699 493.894 92.367 493.528 90.2092C493.442 89.6979 493.309 89.2888 492.953 88.9202ZM504.425 102.888C502.843 104.756 500.778 107.949 498.152 108.205C497.156 108.302 496.019 108.108 495.025 107.987C492.417 114.114 489.904 120.335 486.896 126.28C482.176 135.61 466.043 164.324 457.428 167.7C454.27 168.938 450.46 167.896 447.543 166.483C443.096 164.329 439.211 160.946 435.364 157.886C433.19 158.948 431.086 159.981 429.086 161.358C429.662 163.178 430.332 165.01 430.813 166.854C436.229 172.116 439.929 177.456 442.734 184.505C450.659 204.415 452.259 233.222 454.528 254.722C456.259 271.118 458.169 287.515 459.722 303.926C460.767 314.961 461.059 326.956 463.563 337.758L472.672 347.987C474.704 350.548 477.249 353.079 477.285 356.525C476.614 357.664 476.392 358.081 475.005 358.446C473.037 358.963 470.186 358.227 468.188 357.919C480.136 369.605 493.45 380.014 504.945 392.15C505.664 320.9 504.982 249.586 504.892 178.331L504.823 123.48C504.793 117.181 505.818 109.002 504.425 102.888ZM317.151 113.866C310.441 122.789 296.736 140.19 292.679 149.812C294.354 154.762 296.41 158.806 301.263 161.343C315.252 168.655 342.463 157.946 357.399 154.478C370.539 151.427 385.298 148.757 398.62 151.883C408.907 154.674 417.687 159.081 427.156 163.808C422.882 156.671 416.753 150.829 409.86 146.217C388.04 131.615 347.123 121.31 321.153 114.833C319.821 114.502 318.487 114.179 317.151 113.866ZM288.378 155.375C282.101 168.313 276.201 183.029 281.229 197.459C283.297 203.395 287.095 209.599 292.957 212.338C298.525 214.939 304.736 213.739 310.241 211.622C330.593 203.8 350.37 182.904 370.263 172.073C382.931 164.945 394.111 162.058 408.505 161.038C402.478 158.798 396.681 156.903 390.224 156.456C380.669 155.793 371.092 157.163 361.777 159.192C344.261 163.008 312.047 175.668 295.897 165.302C291.785 162.663 291.36 158.472 288.378 155.375ZM541.357 304.75L541.38 378.489C541.355 394.459 541.045 410.545 541.599 426.499C544.784 430.385 559.265 442.44 560.178 444.962C560.585 446.085 560.464 447.737 560.322 448.893C559.98 451.685 559.154 454.578 558.497 457.316C563.982 459.394 569.57 462.122 575.387 463.034C590.649 465.427 613.545 460.766 621.529 478.266C624.71 485.238 624.064 497.504 621.324 504.653C620.525 506.739 617.289 508.632 616.954 510.088C616.49 512.105 618.089 515.43 618.443 517.508C620.245 528.081 611.597 535.557 604.107 541.159C604.29 549.544 604.416 557.929 604.484 566.315C604.542 571.088 605.077 576.476 604.323 581.193C604.013 583.13 603.316 585.155 601.935 586.597C600.601 587.99 598.817 588.583 596.915 588.541C594.675 588.491 592.524 587.638 591.021 585.946C590.235 585.062 589.797 584.004 589.591 582.846C588.79 578.344 589.302 573.128 589.321 568.546L589.454 540.89C583.707 538.235 578.915 534.58 576.696 528.405C574.777 522.932 575.195 516.911 577.852 511.755C580.058 507.419 583.393 504.434 587.004 501.327L585.106 495.831C569.16 494.467 558.703 486.856 547.456 475.796C545.536 477.48 543.672 478.995 541.504 480.369L541.402 694.025C541.495 721.913 541.09 749.831 541.49 777.713L627.602 817.65L627.411 334.947C608.519 327.718 589.223 321.321 570.071 314.799C560.549 311.557 550.672 308.557 541.357 304.75ZM409.211 379.881C403.429 399.334 398.375 418.96 391.578 438.109C397.548 451.422 401.806 466.077 406.155 480.002C412.8 500.876 418.984 521.893 424.705 543.038C432.647 572 441.043 600.861 447.202 630.275C450.527 646.158 453.512 661.919 454.204 678.176C454.664 688.969 453.203 700.101 452.377 710.873C450.659 732.259 448.834 753.637 446.901 775.005C460.243 779.449 473.626 783.768 487.048 787.963L504.96 793.619L505.158 588.833C505.146 546.735 505.593 504.567 504.984 462.479C489.802 452.705 473.422 439.605 458.725 428.699C448.476 421.095 438.148 413.643 428.159 405.692C423.82 402.239 418.887 398.736 415.265 394.504C411.625 390.251 412.057 383.8 409.211 379.881ZM551.747 454.387C547.797 456.964 536.012 468.362 534.844 472.524L535.284 473.359C537.341 473.547 539.672 474.042 541.632 473.267C544.149 470.8 552.088 458.234 552.172 455.155C552.187 454.642 552.131 454.745 551.747 454.387ZM555.146 462.215C553.388 465.251 551.472 468.289 550.058 471.499C557.393 477.4 565.799 485.632 574.825 488.617C580.672 490.55 593.134 488.932 596.612 490.933C601.473 493.73 601.427 502.505 603.435 503.741C603.788 500.427 603.302 495.848 601.13 493.22C599.857 491.68 598.074 490.672 596.496 489.479L596.601 488.654C598.741 487.864 601.637 489.153 603.652 489.934C605.318 491.972 606.871 493.819 607.537 496.438C608.18 498.964 606.343 504.882 608.492 506.091C610.709 502.714 610.446 496.29 609.634 492.461C609.404 491.375 609.18 489.894 608.728 488.895L607.241 487.76C607.125 486.561 606.994 487.084 607.403 486.286C607.979 485.161 608.694 484.049 608.253 482.748C607.373 480.147 604.892 478.369 604.058 475.677L604.407 474.867C605.768 474.563 606.764 474.926 607.924 475.642C612.284 478.334 614.239 483.175 615.156 488.015C616.312 494.116 615.147 500.29 614.905 506.416C618.349 498.748 619.749 489.753 616.623 481.695C614.845 477.112 611.537 473.869 606.972 472.077C596.856 468.105 585.069 470.075 574.501 468.312C567.785 467.192 561.635 463.103 555.146 462.215ZM591.195 510.428C588.371 512.68 585.715 515.039 585.197 518.836C584.876 521.188 585.594 523.476 587.074 525.316C589.138 527.882 592.475 529.348 595.727 529.52C599.437 529.715 602.52 528.5 605.552 526.455C607.312 524.555 609.782 522.211 609.682 519.427C609.596 517.034 607.94 514.787 609.338 512.442C609.418 512.309 609.524 512.193 609.617 512.069L609.072 511.729C604.957 512.939 600.064 515.726 595.768 514.929C594.188 512.976 596.044 510.734 592.521 510.437C592.122 510.403 591.605 510.421 591.195 510.428ZM580.737 522.949C581.558 527.579 583.422 531.038 587.298 533.82C589.539 535.428 592.01 536.378 594.562 537.355C594.578 544.378 593.871 579.101 596.051 582.824L597.082 583.217C598.352 582.216 598.652 581.188 598.865 579.594C599.829 572.397 599.008 564.175 598.928 556.875L598.978 537.243C606.131 533.621 610.479 531.314 613.366 523.439L613.854 522.133C610.137 527.791 605.835 532.753 598.816 534.148C594.483 535.009 590.426 533.8 586.884 531.265C584.242 529.374 582.942 526.651 581.401 523.877C581 523.155 581.206 523.417 580.737 522.949ZM341.06 654.846C336.881 667.716 335.024 680.468 328.481 692.584C322.267 704.091 311.186 714.289 302.234 723.809C284.504 742.661 266.047 760.758 248.428 779.7C240.488 788.237 232.423 796.441 225.336 805.734C233.89 804.968 242.349 803.44 250.904 802.641L331.064 794.108C341.975 793.008 352.873 791.679 363.822 791.023C363.419 783.638 362.551 776.338 362.008 768.972C361.177 757.698 360.651 746.409 359.699 735.143C358.955 726.339 357.653 717.5 357.421 708.67C353.394 704.823 349.776 700.03 349.659 694.215C349.552 688.868 352.668 684.88 355.722 680.844C352.151 674.048 345.592 660.323 341.06 654.846ZM446.122 780.22C445.864 784.447 445.484 788.705 445.449 792.939C464.933 800.032 484.66 807.522 504.823 812.412C505.348 807.911 505.082 803.252 505.031 798.723C485.359 792.932 465.325 787.423 446.122 780.22ZM150.863 801.849L137.191 817.385C142.415 822.633 157.035 837.301 163.613 839.455L164.145 839.265C168.423 833.544 173.314 827.903 178.339 822.824C168.905 816.127 159.846 809.136 150.863 801.849ZM120.98 828.329C114.205 834.781 107.478 841.212 101.177 848.136C115.964 860.942 130.95 873.621 145.454 886.744C170.537 909.44 197.657 937.939 228.794 951.991C232.047 953.476 235.344 955.189 238.785 956.167C239.389 955.153 239.337 954.969 239.069 953.84C238.463 951.277 221.276 931.674 218.531 929.696C218.086 930.563 218.115 930.693 218.08 931.619C218.043 932.601 218.001 933.078 217.337 933.856C214.873 934.454 213.165 933.222 211.11 931.969C198.132 924.061 173.936 899.58 165.685 887.306C162.128 882.016 159.466 876.465 157.965 870.253C156.806 865.455 156.075 860.5 155.218 855.639C148.365 851.08 141.686 846.41 135.4 841.082C131.074 837.415 125.687 830.926 120.98 828.329ZM169.892 841.816C168.871 843.123 168.177 843.557 168.175 845.248C170.482 848.541 174.492 850.051 177.827 852.151C178.812 850.806 179.207 850.476 179.347 848.774C177.756 845.181 173.302 843.387 169.892 841.816ZM372.346 851.582C372.284 855.846 372.153 860.115 372.446 864.373C387.866 870.57 418.416 874.978 434.197 868.877C434.441 864.5 434.533 860.049 435.178 855.711C412.523 859.321 394.328 859.178 372.346 851.582ZM97.6318 852.283C94.622 855.82 91.4611 859.309 89.0503 863.296C100.349 874.521 116.549 884.032 129.302 894.156C153.487 913.358 184.417 944.935 211.146 957.917C217.443 960.976 223.85 962.956 230.766 963.988C232.951 964.04 234.855 964.174 236.945 963.405L237.337 962.669C234.351 959.138 225.517 956.789 221.165 954.629C212.149 950.155 203.114 943.742 195.189 937.519C186.984 931.074 178.862 924.339 170.998 917.485C162.292 909.897 99.1749 852.775 97.6318 852.283ZM386.549 874.307C386.594 880.276 386.638 886.22 386.031 892.168C395.683 897.106 408.107 899.941 418.703 896.339C420.085 895.869 421.433 895.273 422.77 894.686C424.225 892.929 424.649 879.114 424.924 875.931C411.844 876.757 399.495 876.92 386.549 874.307ZM380.707 895.266C379.569 897.82 378.46 900.281 377.745 902.993C389.41 909.541 401.803 913.033 414.96 909.342C418.934 908.227 422.638 906.608 426.338 904.803C428.137 904.117 429.818 903.521 431.711 903.159L426.308 899.65C411.799 904.869 400.514 904.821 386.465 898.275C384.536 897.377 382.496 896.418 380.707 895.266ZM434.289 907.458C431.675 908.756 427.567 910.081 426.58 913.099C425.823 915.415 426.217 918.478 427.401 920.582C430.397 925.907 437.452 927.692 442.973 929.035C457.976 932.682 473.433 934.915 488.77 936.602C487.383 935.295 485.936 934.02 484.63 932.634C484.493 931.273 484.683 930.367 483.571 929.401C481.249 927.387 476.571 925.51 473.56 925.433L472.647 925.906L472.573 926.508C472.398 927.849 472.408 928.884 471.378 929.871C470.083 930.074 469.519 930.036 468.313 929.515C465.879 926.893 466.742 921.48 462.714 920.732C461.626 922.992 463.217 925.606 460.311 926.675C458.869 926.33 458.128 926.266 457.307 924.952C455.556 922.149 455.284 915.986 451.993 914.724C450.976 915.642 450.781 917.092 450.424 918.367L449.556 918.997C448.021 918.728 446.936 917.479 446.103 916.236C443.53 912.394 442.921 909.012 437.898 907.87C436.719 907.602 435.499 907.292 434.289 907.458ZM375.939 907.712C373.083 918.21 369.776 929.466 369.365 940.372C389.058 944 409.453 945.011 429.409 946.505C445.947 947.743 462.474 949.86 479.046 950.47C501.994 951.315 524.569 949.649 547.378 947.321L549.12 946.797C548.937 945.643 548.843 945.524 547.828 944.819C543.51 941.819 535.434 939.667 530.206 939.275C525.764 938.942 520.419 940.678 515.939 941.26C510.903 941.915 505.602 942.145 500.525 942.278C484.437 942.696 440.018 937.206 427.617 929.058C424.17 926.793 421.96 923.812 421.158 919.737C420.739 917.607 420.566 915.329 420.448 913.163C404.777 918.225 393.822 917.132 379.063 909.529C377.989 908.981 376.946 908.374 375.939 907.712ZM368.61 945.908C368.338 949.325 367.982 952.761 367.877 956.186C378.296 957.68 388.829 958.207 399.328 958.849C416.525 959.904 433.733 960.766 450.949 961.437C470.199 962.325 489.902 964.54 509.14 963.556C522.267 962.884 537.038 960.64 549.54 956.599C551.072 955.875 551.882 955.409 552.849 954L552.937 953.29C552.032 952.45 551.854 952.371 550.53 952.355C545.136 952.289 539.078 953.504 533.683 954.023C521.148 955.231 508.267 956.42 495.674 956.214C478.796 955.937 462.019 954.485 445.201 953.182C431.005 952.083 416.8 951.219 402.633 949.774C391.331 948.621 379.922 946.756 368.61 945.908Z"/>
	<path fill="#9F8BE8" d="M510.317 0L535.728 0L535.523 204.767L605.762 228.773C613 231.22 624.063 236.198 631.179 237.09C632.485 235.688 632.443 232.792 632.526 230.969C632.938 221.857 632.569 212.595 632.552 203.471L632.49 151.921L632.328 0L661.243 0L661.014 170.944L661.055 222.755C661.041 230.481 660.196 238.658 660.856 246.325C668.225 249.901 676.645 252.282 684.4 254.953C699.79 260.299 715.235 265.485 730.733 270.51C740.89 273.86 756.22 280.581 766.371 281.706L766.179 281.463C766.301 281.333 766.443 281.219 766.545 281.073C767.508 279.677 767.396 277.18 767.441 275.505C768.211 247.094 767.319 218.403 767.274 189.967L767.743 0L793.364 0L793.457 665.269L793.523 858.948C793.523 893.212 794.28 927.66 793.288 961.895C747.455 938.464 702.314 913.625 656.589 889.983C626.04 874.313 595.578 858.472 565.206 842.461C546.927 832.924 528.366 823.702 510.428 813.536C510.019 765.608 509.967 717.678 510.272 669.75L510.335 466.55C515.927 469.968 521.157 473.715 526.45 477.575C529.785 477.635 532.917 478.029 536.202 478.594L536.305 679.141L536.116 744.622C536.091 756.458 535.382 768.771 536.436 780.543C543.077 785.633 552.396 788.917 560.025 792.376L596.258 808.841L620.091 819.903C623.032 821.259 626.315 823.236 629.38 824.188C630.694 824.596 631.222 824.437 632.369 823.765C633.234 819.447 632.67 814.275 632.658 809.854L632.615 785.381L632.728 694.959L632.494 330.801C627.733 328.644 622.484 327.108 617.552 325.36C606.628 321.5 595.671 317.736 584.682 314.069C570.675 309.326 556.894 303.698 542.862 299.141C541.04 298.55 538.929 297.704 537.007 297.991C536.26 298.873 536.198 299.676 536.13 300.79C535.325 313.904 536.041 327.538 536.035 340.695L536.144 421.841C527.149 414.011 518.762 405.297 510.228 396.959C509.874 390.536 510.167 383.975 510.181 377.539L510.118 344.141C509.948 299.729 510.016 255.316 510.322 210.904L510.031 131.946L509.984 111.165C509.955 107.204 509.615 102.968 510.063 99.0343C510.856 92.0714 515.612 86.3003 516.541 79.2922C517.539 71.7625 514.696 66.7026 510.367 60.9336L510.317 0ZM662.414 340.868C661.381 342.434 661.11 343.493 661.043 345.366C660.178 369.517 660.946 393.989 660.938 418.173L660.86 556.129L660.852 720.563C660.76 759.868 660.285 799.249 660.885 838.549C681.108 848.888 702.791 857.322 723.613 866.407C737.467 872.452 751.089 879.934 765.54 884.425C766.307 883.001 766.444 881.911 766.504 880.299C767.204 861.473 766.533 842.348 766.53 823.486L766.682 717.193L766.549 378.465C764.79 377.338 762.993 376.489 761.048 375.733C738.091 366.812 714.524 359.18 691.312 350.926C684.753 348.593 668.019 341.455 662.414 340.868Z"/>
	<path d="M535.728 0L540.699 0L540.538 190.725C569.088 201.186 598.377 209.633 627.095 219.607L627.137 98.0066C627.212 65.3516 627.782 32.6508 627.397 0L632.328 0L632.49 151.921L632.552 203.471C632.569 212.595 632.938 221.857 632.526 230.969C632.443 232.792 632.485 235.688 631.179 237.09C624.063 236.198 613 231.22 605.762 228.773L535.523 204.767L535.728 0ZM540.517 196.994C540.511 198.688 540.297 199.651 541.154 201.137C569.816 211.194 599.049 220.076 627.427 230.859C627.486 229.313 627.798 227.661 626.91 226.313C618.409 221.947 608.306 219.271 599.265 216.187C579.788 209.471 560.203 203.072 540.517 196.994Z"/>
	<path fill="#C5C4FB" d="M540.699 0L627.397 0C627.782 32.6508 627.212 65.3516 627.137 98.0066L627.095 219.607C598.377 209.633 569.088 201.186 540.538 190.725L540.699 0Z"/>
	<path d="M661.243 0L666.486 0L666.484 233.006L762.033 265.299L762.075 0L767.743 0L767.274 189.967C767.319 218.403 768.211 247.094 767.441 275.505C767.396 277.18 767.508 279.677 766.545 281.073C766.443 281.219 766.301 281.333 766.179 281.463L766.371 281.706C756.22 280.581 740.89 273.86 730.733 270.51C715.235 265.485 699.79 260.299 684.4 254.953C676.645 252.282 668.225 249.901 660.856 246.325C660.196 238.658 661.041 230.481 661.055 222.755L661.014 170.944L661.243 0ZM665.886 238.774C665.978 240.255 665.774 241.576 666.648 242.805C677.265 247.501 688.753 250.894 699.755 254.602L741.982 269.039C748.723 271.299 755.839 273.097 762.392 275.836C762.406 274.353 762.732 272.475 761.774 271.254C730.038 260.027 698.055 248.691 665.886 238.774Z"/>
	<path fill="#C5C4FB" d="M666.486 0L762.075 0L762.033 265.299L666.484 233.006L666.486 0Z"/>
	<path fill="#625493" d="M798.51 0L827.514 0L826.938 961.058C817.569 961.678 808.155 962.134 798.82 963.148L798.51 0Z"/>
	<path fill="#C5C4FB" d="M832.896 0L1024 0L1024 975.855C1005.76 970.29 987.702 964.118 969.536 958.317C947.878 951.401 926.089 944.801 904.505 937.665C880.54 929.742 856.634 921.411 832.507 913.999L832.896 0Z"/>
	<path fill="#625493" d="M379.488 125.727C390.872 110.755 392.16 104.523 385.712 86.9264C384.021 82.3094 382.577 77.9573 382.136 73.0379C381.194 62.5274 384.761 52.1509 391.525 44.0996C402.081 31.533 417.968 26.0402 433.868 24.7411C439.013 24.8167 444.584 25.1328 449.441 26.9827C461.083 31.4175 471.62 41.4256 481.975 48.2642C488.494 52.5696 495.481 56.0117 501.597 60.9395C505.518 64.098 510.304 68.315 510.765 73.5996C511.671 84.0047 504.593 93.4623 498.19 100.893C499.001 96.0927 499.395 91.6482 498.94 86.7787C498.66 83.7746 498.305 79.9932 495.868 77.9616C493.823 77.623 492.908 78.1344 491.727 79.8557C478.967 98.4479 477.667 101.291 456.38 110.556C456.383 105.06 457.256 98.8911 455.934 93.5271C455.005 89.7549 453.202 87.5873 449.918 85.63C448.266 85.4748 446.548 85.2617 444.919 85.6861C432.544 88.9099 435.339 102.037 430.435 110.222C425.093 119.136 407.539 130.483 397.527 132.982C391.704 130.219 385.404 128.354 379.488 125.727Z"/>
	<path fill="#FEFEFE" d="M432.98 116.855C434.463 119.687 436.467 123.342 439.34 124.948C440.495 125.594 441.827 125.794 443.086 125.276C444.318 124.768 444.473 124.272 444.924 123.139C444.221 119.886 439.687 117.453 438.224 114.066C435.879 108.639 437.966 103.192 440.106 98.0835C441.351 95.1127 442.887 92.1253 445.995 90.8534C447.318 90.8025 448.232 90.9582 449.257 91.8901C452.146 94.5167 449.922 106.505 450.202 110.631C450.331 112.525 450.659 114.369 452.34 115.541C453.579 116.404 455.001 116.516 456.447 116.338C459.535 115.958 462.834 114.189 465.592 112.81C477.502 106.854 485.029 99.4334 492.953 88.9202C493.309 89.2888 493.442 89.6979 493.528 90.2092C493.894 92.367 492.868 95.5699 492.325 97.7084C487.671 116.022 473.252 141.893 461.57 156.86C459.837 159.08 457.278 162.058 454.202 162.124C447.429 162.269 439.752 153.115 435.038 148.983C432.604 151.177 430.128 153.325 427.613 155.427C421.17 147.078 414.322 141.349 404.943 136.565L412.074 133.032C419.878 128.382 426.558 123.279 432.98 116.855ZM445.867 92.8036C442.945 95.6672 442.604 101.561 442.557 105.537C442.531 107.767 442.482 109.805 443.888 111.644L446.161 112.591C446.523 112.183 446.988 111.848 447.246 111.369C448.021 109.93 449.248 98.2696 449.086 96.1555C449.001 95.0429 448.739 94.3256 447.988 93.5076L445.867 92.8036Z"/>
	<path d="M446.161 112.591L443.888 111.644C442.482 109.805 442.531 107.767 442.557 105.537C442.604 101.561 442.945 95.6672 445.867 92.8036L447.988 93.5076C448.739 94.3256 449.001 95.0429 449.086 96.1555C449.248 98.2696 448.021 109.93 447.246 111.369C446.988 111.848 446.523 112.183 446.161 112.591Z"/>
	<path fill="#C5C4FB" d="M495.025 107.987C496.019 108.108 497.156 108.302 498.152 108.205C500.778 107.949 502.843 104.756 504.425 102.888C505.818 109.002 504.793 117.181 504.823 123.48L504.892 178.331C504.982 249.586 505.664 320.9 504.945 392.15C493.45 380.014 480.136 369.605 468.188 357.919C470.186 358.227 473.037 358.963 475.005 358.446C476.392 358.081 476.614 357.664 477.285 356.525C477.249 353.079 474.704 350.548 472.672 347.987L463.563 337.758C461.059 326.956 460.767 314.961 459.722 303.926C458.169 287.515 456.259 271.118 454.528 254.722C452.259 233.222 450.659 204.415 442.734 184.505C439.929 177.456 436.229 172.116 430.813 166.854C430.332 165.01 429.662 163.178 429.086 161.358C431.086 159.981 433.19 158.948 435.364 157.886C439.211 160.946 443.096 164.329 447.543 166.483C450.46 167.896 454.27 168.938 457.428 167.7C466.043 164.324 482.176 135.61 486.896 126.28C489.904 120.335 492.417 114.114 495.025 107.987Z"/>
	<path fill="#9F8BE8" d="M292.679 149.812C296.736 140.19 310.441 122.789 317.151 113.866C318.487 114.179 319.821 114.502 321.153 114.833C347.123 121.31 388.04 131.615 409.86 146.217C416.753 150.829 422.882 156.671 427.156 163.808C417.687 159.081 408.907 154.674 398.62 151.883C385.298 148.757 370.539 151.427 357.399 154.478C342.463 157.946 315.252 168.655 301.263 161.343C296.41 158.806 294.354 154.762 292.679 149.812Z"/>
	<path fill="#9F8BE8" d="M370.263 172.073C350.37 182.904 330.593 203.8 310.241 211.622C304.736 213.739 298.525 214.939 292.957 212.338C287.095 209.599 283.297 203.395 281.229 197.459C276.201 183.029 282.101 168.313 288.378 155.375C291.36 158.472 291.785 162.663 295.897 165.302C312.047 175.668 344.261 163.008 361.777 159.192C371.092 157.163 380.669 155.793 390.224 156.456C396.681 156.903 402.478 158.798 408.505 161.038C394.111 162.058 382.931 164.945 370.263 172.073Z"/>
	<path fill="#C5C4FB" d="M393.765 168.663C404.196 166.07 418.365 166.179 427.827 171.941C436.43 177.179 439.753 193.572 441.768 202.773C444.242 214.071 445.402 225.513 446.728 236.986C448.468 251.345 450.084 265.719 451.575 280.105C453.652 299.579 456.869 320.3 458.072 339.662C461.703 344.268 466.123 348.204 469.493 353.004C466.321 353.294 463.175 353.001 460.997 355.604C460.834 357.177 461.341 357.748 462.298 358.983C468.791 367.361 478.297 374.713 486.137 381.907C500.853 395.41 514.748 409.713 529.327 423.341C537.192 430.692 546.575 437.37 553.512 445.555C543.28 453.005 535.709 462.175 527.946 472.03C527.786 471.884 527.628 471.737 527.467 471.594C521.384 466.202 513.883 461.935 507.239 457.228C491.791 446.165 476.446 434.957 461.206 423.608C452.864 417.484 423.97 397.875 419.287 390.507C416.686 386.415 415.226 381.011 413.561 376.449C408.218 361.812 403.55 346.988 398.815 332.146C390.503 306.092 380.779 272.588 378.851 245.491C377.711 229.46 378.509 210.76 385.768 196.098C387.938 191.716 391.573 187.931 393.453 183.544C394.559 180.963 394.241 179.616 392.355 177.519L393.587 176.723C394.823 173.993 396.58 171.568 397.841 168.853L397.179 168.558C396.232 168.863 395.602 168.986 394.625 168.821C394.338 168.772 394.052 168.715 393.765 168.663Z"/>
	<path fill="#9F8BE8" d="M282.833 211.19C284.273 212.545 285.72 213.9 287.328 215.056C315.375 235.223 360.752 173.646 393.765 168.663C394.052 168.715 394.338 168.772 394.625 168.821C395.602 168.986 396.232 168.863 397.179 168.558L397.841 168.853C396.58 171.568 394.823 173.993 393.587 176.723L392.355 177.519C392.199 177.559 392.04 177.585 391.889 177.641C387.767 179.159 383.733 187.37 381.869 191.087C364.217 226.268 375.692 270.561 385.571 306.432C391.607 328.35 398.672 349.86 405.817 371.432C401.739 382.991 398.906 397.37 395.41 409.539C389.682 429.473 382.494 449.165 375.661 468.751C371.612 480.356 368.169 492.416 363.172 503.651C350.27 485.167 334.873 468.557 317.419 454.293C283.348 427.027 239.949 414.199 196.53 418.56C223.203 372.546 242.175 322.571 260.315 272.73C267.407 253.242 274.331 229.843 282.833 211.19ZM377.701 368.83C374.189 372.837 371.225 377.269 367.721 381.282C359.41 390.803 348.887 399.967 338.35 406.936C334.913 409.209 323.852 414.926 322.684 418.673C323.282 422.076 327.525 426.286 330.518 428.009C331.27 428.442 331.857 428.323 332.685 428.256C350.698 419.926 370.145 401.891 382.336 386.377C384.289 383.892 387.157 380.806 388.098 377.798C388.397 376.839 388.389 376.239 388.249 375.268C386.5 372.291 382.224 369.896 378.906 369.046C378.406 368.918 378.272 368.916 377.701 368.83Z"/>
	<path fill="#625493" d="M627.427 230.859C599.049 220.076 569.816 211.194 541.154 201.137C540.297 199.651 540.511 198.688 540.517 196.994C560.203 203.072 579.788 209.471 599.265 216.187C608.306 219.271 618.409 221.947 626.91 226.313C627.798 227.661 627.486 229.313 627.427 230.859Z"/>
	<path fill="#625493" d="M762.392 275.836C755.839 273.097 748.723 271.299 741.982 269.039L699.755 254.602C688.753 250.894 677.265 247.501 666.648 242.805C665.774 241.576 665.978 240.255 665.886 238.774C698.055 248.691 730.038 260.027 761.774 271.254C762.732 272.475 762.406 274.353 762.392 275.836Z"/>
	<path fill="#C5C4FB" d="M541.599 426.499C541.045 410.545 541.355 394.459 541.38 378.489L541.357 304.75C550.672 308.557 560.549 311.557 570.071 314.799C589.223 321.321 608.519 327.718 627.411 334.947L627.602 817.65L541.49 777.713C541.09 749.831 541.495 721.913 541.402 694.025L541.504 480.369C543.672 478.995 545.536 477.48 547.456 475.796C558.703 486.856 569.16 494.467 585.106 495.831L587.004 501.327C583.393 504.434 580.058 507.419 577.852 511.755C575.195 516.911 574.777 522.932 576.696 528.405C578.915 534.58 583.707 538.235 589.454 540.89L589.321 568.546C589.302 573.128 588.79 578.344 589.591 582.846C589.797 584.004 590.235 585.062 591.021 585.946C592.524 587.638 594.675 588.491 596.915 588.541C598.817 588.583 600.601 587.99 601.935 586.597C603.316 585.155 604.013 583.13 604.323 581.193C605.077 576.476 604.542 571.088 604.484 566.315C604.416 557.929 604.29 549.544 604.107 541.159C611.597 535.557 620.245 528.081 618.443 517.508C618.089 515.43 616.49 512.105 616.954 510.088C617.289 508.632 620.525 506.739 621.324 504.653C624.064 497.504 624.71 485.238 621.529 478.266C613.545 460.766 590.649 465.427 575.387 463.034C569.57 462.122 563.982 459.394 558.497 457.316C559.154 454.578 559.98 451.685 560.322 448.893C560.464 447.737 560.585 446.085 560.178 444.962C559.265 442.44 544.784 430.385 541.599 426.499Z"/>
	<path d="M660.885 838.549C660.285 799.249 660.76 759.868 660.852 720.563L660.86 556.129L660.938 418.173C660.946 393.989 660.178 369.517 661.043 345.366C661.11 343.493 661.381 342.434 662.414 340.868C668.019 341.455 684.753 348.593 691.312 350.926C714.524 359.18 738.091 366.812 761.048 375.733C762.993 376.489 764.79 377.338 766.549 378.465L766.682 717.193L766.53 823.486C766.533 842.348 767.204 861.473 766.504 880.299C766.444 881.911 766.307 883.001 765.54 884.425C751.089 879.934 737.467 872.452 723.613 866.407C702.791 857.322 681.108 848.888 660.885 838.549ZM666.322 348.072L666.338 685.442L666.298 781.6C666.28 799.399 665.815 817.322 666.406 835.108L728.416 862.304C739.256 867.059 749.937 872.188 760.876 876.709C761.08 876.396 761.398 876.132 761.487 875.769C762.264 872.601 761.543 853.177 761.541 848.433L761.527 760.943L761.442 381.546C738.627 374.011 716.009 365.558 693.336 357.578C684.433 354.444 675.41 350.523 666.322 348.072Z"/>
	<path fill="#C5C4FB" d="M666.406 835.108C665.815 817.322 666.28 799.399 666.298 781.6L666.338 685.442L666.322 348.072C675.41 350.523 684.433 354.444 693.336 357.578C716.009 365.558 738.627 374.011 761.442 381.546L761.527 760.943L761.541 848.433C761.543 853.177 762.264 872.601 761.487 875.769C761.398 876.132 761.08 876.396 760.876 876.709C749.937 872.188 739.256 867.059 728.416 862.304L666.406 835.108Z"/>
	<path d="M332.685 428.256C331.857 428.323 331.27 428.442 330.518 428.009C327.525 426.286 323.282 422.076 322.684 418.673C323.852 414.926 334.913 409.209 338.35 406.936C348.887 399.967 359.41 390.803 367.721 381.282C371.225 377.269 374.189 372.837 377.701 368.83C378.272 368.916 378.406 368.918 378.906 369.046C382.224 369.896 386.5 372.291 388.249 375.268C388.389 376.239 388.397 376.839 388.098 377.798C387.157 380.806 384.289 383.892 382.336 386.377C370.145 401.891 350.698 419.926 332.685 428.256ZM379.137 375.26C367.119 393.259 347.866 408.193 329.351 419.166L333.017 422.484C348.827 413.007 363.013 401.054 375.034 387.081C377.429 384.296 380.353 381.31 381.653 377.832C381.251 376.477 380.363 375.974 379.137 375.26Z"/>
	<path fill="#625493" d="M329.351 419.166C347.866 408.193 367.119 393.259 379.137 375.26C380.363 375.974 381.251 376.477 381.653 377.832C380.353 381.31 377.429 384.296 375.034 387.081C363.013 401.054 348.827 413.007 333.017 422.484L329.351 419.166Z"/>
	<path fill="#C5C4FB" d="M391.578 438.109C398.375 418.96 403.429 399.334 409.211 379.881C412.057 383.8 411.625 390.251 415.265 394.504C418.887 398.736 423.82 402.239 428.159 405.692C438.148 413.643 448.476 421.095 458.725 428.699C473.422 439.605 489.802 452.705 504.984 462.479C505.593 504.567 505.146 546.735 505.158 588.833L504.96 793.619L487.048 787.963C473.626 783.768 460.243 779.449 446.901 775.005C448.834 753.637 450.659 732.259 452.377 710.873C453.203 700.101 454.664 688.969 454.204 678.176C453.512 661.919 450.527 646.158 447.202 630.275C441.043 600.861 432.647 572 424.705 543.038C418.984 521.893 412.8 500.876 406.155 480.002C401.806 466.077 397.548 451.422 391.578 438.109Z"/>
	<path fill="#625493" d="M205.376 812.116C205.552 811.464 206.123 810.181 205.808 809.581C204.52 807.124 194.196 801.813 191.438 800.107C181.332 793.856 169.516 783.83 161.025 775.441C175.76 749.504 193.256 725.002 210.561 700.745C219.036 688.864 231.609 674.009 237.567 661.212C236.655 659.83 235.703 658.714 235.75 656.981C236.286 655.382 236.978 654.566 238.444 653.786C241.886 651.957 250.884 651.141 252.438 647.237C252.786 646.361 252.489 645.193 252.062 644.382C249.267 639.07 241.985 636.307 237.79 632.107L238.256 631.576C241.573 627.858 251.709 622.929 251.448 617.909C251.117 611.54 248.486 604.223 247.193 597.897C244.204 583.276 241.576 568.56 238.764 553.902C232.651 521.994 226.899 490.017 221.508 457.979C219.61 446.415 218.102 434.791 216.248 423.218C264.518 425.054 304.894 445.666 337.447 480.818C341.877 485.602 346.311 490.522 350.302 495.68C353.487 499.796 356.322 504.656 360 508.326C361.259 509.583 362.528 510.67 364.31 511.025C366.749 510.005 368.079 506.501 369.074 504.135C374.549 491.108 378.811 477.216 383.379 463.834C385.301 458.207 387.719 452.776 389.588 447.133C402.629 487.236 414.222 527.514 425.292 568.203C432.761 595.655 440.377 622.871 444.881 651.004C446.623 661.886 448.22 673.133 447.987 684.179C447.618 701.666 445.54 719.247 444.051 736.671L439 799.5C437.506 816.325 435.374 833.336 435.569 850.243C414.129 854.697 393.05 852.487 372.229 846.256C370.246 800.971 368.304 755.42 362.951 710.391C362.215 704.2 355.876 700.563 355.282 694.59C354.705 688.789 362.537 686.192 361.337 680.657C360.265 675.71 347.309 654.332 343.853 647.929C336.29 633.922 328.907 619.819 321.706 605.622C312.604 587.777 303.459 569.817 294.833 551.736L266.676 491.625C261.23 480.253 255.707 464.543 249.674 454.269C248.853 453.861 248.899 453.667 247.942 453.978C246.992 454.287 246.724 454.542 246.098 455.271C245.664 456.917 245.839 458.135 246.298 459.77C248.044 465.985 251.634 472.244 254.295 478.157C260.599 492.469 267.152 506.671 273.95 520.756C287.508 549.072 300.936 577.298 315.217 605.267C321.701 617.965 328.057 630.821 335.237 643.14C336.025 644.491 336.853 645.818 337.719 647.12C337.656 647.286 337.592 647.451 337.531 647.618C335.872 652.147 334.902 656.999 333.685 661.664C330.928 672.229 327.571 683.347 321.882 692.714C316.318 701.874 300.653 717.091 292.74 725.332L253.643 766.236C246.977 773.221 240.068 780.057 233.628 787.248C228.038 793.488 223.154 800.353 218.138 807.053C216.039 809.857 213.615 813.845 211.038 816.148C210.239 814.96 209.584 814.491 208.374 813.819L205.376 812.116Z"/>
	<path fill="#FEFEFE" d="M535.284 473.359L534.844 472.524C536.012 468.362 547.797 456.964 551.747 454.387C552.131 454.745 552.187 454.642 552.172 455.155C552.088 458.234 544.149 470.8 541.632 473.267C539.672 474.042 537.341 473.547 535.284 473.359Z"/>
	<path fill="#FEFEFE" d="M550.058 471.499C551.472 468.289 553.388 465.251 555.146 462.215C561.635 463.103 567.785 467.192 574.501 468.312C585.069 470.075 596.856 468.105 606.972 472.077C611.537 473.869 614.845 477.112 616.623 481.695C619.749 489.753 618.349 498.748 614.905 506.416C615.147 500.29 616.312 494.116 615.156 488.015C614.239 483.175 612.284 478.334 607.924 475.642C606.764 474.926 605.768 474.563 604.407 474.867L604.058 475.677C604.892 478.369 607.373 480.147 608.253 482.748C608.694 484.049 607.979 485.161 607.403 486.286C606.994 487.084 607.125 486.561 607.241 487.76L608.728 488.895C609.18 489.894 609.404 491.375 609.634 492.461C610.446 496.29 610.709 502.714 608.492 506.091C606.343 504.882 608.18 498.964 607.537 496.438C606.871 493.819 605.318 491.972 603.652 489.934C601.637 489.153 598.741 487.864 596.601 488.654L596.496 489.479C598.074 490.672 599.857 491.68 601.13 493.22C603.302 495.848 603.788 500.427 603.435 503.741C601.427 502.505 601.473 493.73 596.612 490.933C593.134 488.932 580.672 490.55 574.825 488.617C565.799 485.632 557.393 477.4 550.058 471.499Z"/>
	<path fill="#C5C4FB" d="M605.552 526.455C602.52 528.5 599.437 529.715 595.727 529.52C592.475 529.348 589.138 527.882 587.074 525.316C585.594 523.476 584.876 521.188 585.197 518.836C585.715 515.039 588.371 512.68 591.195 510.428C591.605 510.421 592.122 510.403 592.521 510.437C596.044 510.734 594.188 512.976 595.768 514.929C600.064 515.726 604.957 512.939 609.072 511.729L609.617 512.069C609.524 512.193 609.418 512.309 609.338 512.442C607.94 514.787 609.596 517.034 609.682 519.427C609.782 522.211 607.312 524.555 605.552 526.455Z"/>
	<path fill="#625493" d="M594.562 537.355C592.01 536.378 589.539 535.428 587.298 533.82C583.422 531.038 581.558 527.579 580.737 522.949C581.206 523.417 581 523.155 581.401 523.877C582.942 526.651 584.242 529.374 586.884 531.265C590.426 533.8 594.483 535.009 598.816 534.148C605.835 532.753 610.137 527.791 613.854 522.133L613.366 523.439C610.479 531.314 606.131 533.621 598.978 537.243L598.928 556.875C599.008 564.175 599.829 572.397 598.865 579.594C598.652 581.188 598.352 582.216 597.082 583.217L596.051 582.824C593.871 579.101 594.578 544.378 594.562 537.355Z"/>
	<path fill="#C5C4FB" d="M225.336 805.734C232.423 796.441 240.488 788.237 248.428 779.7C266.047 760.758 284.504 742.661 302.234 723.809C311.186 714.289 322.267 704.091 328.481 692.584C335.024 680.468 336.881 667.716 341.06 654.846C345.592 660.323 352.151 674.048 355.722 680.844C352.668 684.88 349.552 688.868 349.659 694.215C349.776 700.03 353.394 704.823 357.421 708.67C357.653 717.5 358.955 726.339 359.699 735.143C360.651 746.409 361.177 757.698 362.008 768.972C362.551 776.338 363.419 783.638 363.822 791.023C352.873 791.679 341.975 793.008 331.064 794.108L250.904 802.641C242.349 803.44 233.89 804.968 225.336 805.734ZM353.864 772.703C332.293 775.185 310.693 777.41 289.069 779.377C278.097 780.443 266.182 780.847 255.402 783.075C253.953 783.374 251.25 784.152 250.445 785.518C250.319 785.732 250.273 785.984 250.188 786.218C250.804 787.251 251.146 787.685 252.345 788.156C253.952 788.787 256.423 788.179 258.121 787.957C280.926 785.401 303.756 783.066 326.607 780.954C336.21 779.978 346.428 779.758 355.891 777.984C357.677 777.649 359.771 777.234 361.039 775.827C361.589 775.216 361.358 774.907 361.303 774.143C360.134 772.873 359.71 772.557 357.89 772.485C356.532 772.43 355.196 772.409 353.864 772.703Z"/>
	<path d="M258.121 787.957C256.423 788.179 253.952 788.787 252.345 788.156C251.146 787.685 250.804 787.251 250.188 786.218C250.273 785.984 250.319 785.732 250.445 785.518C251.25 784.152 253.953 783.374 255.402 783.075C266.182 780.847 278.097 780.443 289.069 779.377C310.693 777.41 332.293 775.185 353.864 772.703C355.196 772.409 356.532 772.43 357.89 772.485C359.71 772.557 360.134 772.873 361.303 774.143C361.358 774.907 361.589 775.216 361.039 775.827C359.771 777.234 357.677 777.649 355.891 777.984C346.428 779.758 336.21 779.978 326.607 780.954C303.756 783.066 280.926 785.401 258.121 787.957Z"/>
	<path fill="#9F8BE8" d="M155.448 778.583C162.225 784.435 195.336 813.317 203.985 812.442C204.555 812.385 204.856 812.272 205.376 812.116L208.374 813.819C209.584 814.491 210.239 814.96 211.038 816.148C207.885 820.409 204.814 824.755 201.235 828.674C192.35 825.521 184.727 820.255 176.977 814.998C171.828 811.506 151.123 796.544 148.832 791.838C148.474 791.103 148.766 788.483 148.539 787.398C148.472 787.078 148.398 786.76 148.328 786.441C149.038 786.237 149.766 785.674 150.38 785.269C153.024 783.528 154.811 781.755 155.448 778.583Z"/>
	<path fill="#C5C4FB" d="M445.449 792.939C445.484 788.705 445.864 784.447 446.122 780.22C465.325 787.423 485.359 792.932 505.031 798.723C505.082 803.252 505.348 807.911 504.823 812.412C484.66 807.522 464.933 800.032 445.449 792.939Z"/>
	<path fill="#C5C4FB" d="M0 810.729C15.3359 810.029 30.6841 808.221 45.9498 806.621L105.273 800.397C117.672 799.089 130.625 796.852 143.043 796.628C143.872 796.613 144.495 796.851 145.25 797.161L145.974 798.114C144.648 801.062 135.662 811.386 132.713 812.503C130.016 813.525 125.949 813.15 122.995 813.457C109.025 814.968 95.0418 816.366 81.0484 817.65L0 826.109L0 810.729Z"/>
	<path fill="#C5C4FB" d="M0 831.456C15.6014 829.287 31.5726 828.353 47.2639 826.705C63.7662 824.857 80.2812 823.124 96.8077 821.507C103.564 820.834 116.705 818.665 122.993 819.846L121.636 821.034C114.082 827.634 84.3952 854.2 83.8739 863.113C83.7356 865.478 85.216 867.341 86.7708 868.967C93.0951 875.584 102.015 881.026 109.452 886.384C116.982 891.809 124.324 897.577 131.644 903.284C156.873 922.951 201.156 969.905 233.525 969.85C235.973 969.846 239.874 969.373 241.627 967.419C244.185 964.566 244.938 957.219 245.41 953.48C242.757 946.867 237.627 942.135 232.918 936.94C227.386 930.839 221.673 924.44 217.116 917.569C205.898 900.658 199.917 881.548 191.399 863.331C189.769 859.846 187.643 856.58 185.866 853.164C184.337 850.224 185.223 850.25 185.538 847.363C185.989 843.218 176.823 838.691 173.921 836.406C177.078 833.052 179.869 829.544 182.641 825.869C187.752 828.472 197.872 835.263 203.722 833.311C208.552 831.701 217.189 817.016 220.524 812.377C229.236 810.629 238.193 809.856 247.015 808.832C261.998 807.057 276.997 805.418 292.01 803.914C315.969 801.404 340.097 797.861 364.121 796.201L366.811 846.902C367.107 853.715 366.486 860.542 367.094 867.349C371.639 870.23 376.427 872.132 381.678 873.34C381.708 877.248 382.773 885.641 380.553 888.854C379.452 889.404 377.973 889.735 376.966 890.37C374.917 891.661 373.574 897.855 372.736 900.371C367.609 915.761 365.03 930.364 363.341 946.478C362.869 950.982 361.717 956.178 362.997 960.578C364.522 962.378 368.484 962.351 370.725 962.539C397.302 964.772 424.039 965.495 450.671 966.863C468.117 967.76 486.19 969.857 503.645 969.324C514.807 968.983 548.864 965.213 556.549 958.901C557.853 957.83 558.682 956.465 558.8 954.743C559.061 950.924 555.864 945.238 553.357 942.497C546.366 934.855 520.656 929.847 510.254 926.601C505.644 925.163 501.031 922.622 496.331 921.688C495.595 921.542 495.942 921.62 494.98 921.27C495.942 919.877 496.523 919.56 496.313 917.839C495.171 916.084 493.816 915.031 491.988 914.011C485.88 910.604 459.355 901.102 452.717 899.707C451.69 899.493 450.662 899.286 449.632 899.086C449.82 899.006 450.007 898.923 450.196 898.845C454.667 896.999 467.619 895.318 469.651 891.047C469.966 890.385 469.653 889.987 469.436 889.376C466.29 886.402 460.727 885.411 456.527 885.565C450.581 885.783 445.888 888.259 440.926 891.218C437.37 888.146 433.994 885.684 429.693 883.759C429.916 880.943 430.121 878.198 430.762 875.439C433.669 874.865 437.228 874.649 439.172 872.171C440.925 863.296 440.712 853.251 441.357 844.195C442.458 828.766 443.959 813.331 444.864 797.893C460.794 804.813 476.864 809.977 493.413 815.201C498.072 816.671 503.442 816.836 507.883 818.71C516.094 822.174 523.826 827.197 531.788 831.233C559.221 845.138 586.199 859.943 613.531 874.045C657.269 896.489 700.821 919.294 744.183 942.457C760.574 951.135 779.423 959.412 795.098 968.791C807.531 967.894 819.943 966.74 832.328 965.33C832.508 958.89 832.584 952.447 832.557 946.004C863.353 957.422 894.685 967.51 925.835 977.909L1024 1011.45L1024 1024L0 1024L0 831.456Z"/>
	<path fill="#FEFEFE" d="M137.191 817.385L150.863 801.849C159.846 809.136 168.905 816.127 178.339 822.824C173.314 827.903 168.423 833.544 164.145 839.265L163.613 839.455C157.035 837.301 142.415 822.633 137.191 817.385Z"/>
	<path fill="#9F8BE8" d="M122.993 819.846C125.751 819.385 128.206 817.959 130.713 816.772C138.862 829.117 152.842 839.905 165.34 847.695C164.149 851.132 162.263 854.74 163.394 858.383C164.455 859.507 164.754 859.612 166.245 860.075C167.764 859.638 168.174 859.117 168.911 857.74C169.185 857.228 169.439 856.703 169.693 856.18C172.315 859.171 174.911 862.185 177.482 865.221C176.289 865.838 175.511 865.909 174.989 867.203C175.454 869.46 176.866 872.326 178.897 873.595C179.548 874.002 179.552 873.92 180.23 874.121C180.462 874.189 180.69 874.27 180.921 874.341C181.096 874.394 181.271 874.443 181.446 874.495L181.69 875.473L180.997 875.89C179.758 875.526 179.563 875.491 178.38 876.235C176.153 877.637 173.213 882.342 173.035 885.011C172.967 886.018 173.144 886.534 173.554 887.426C174.425 888.017 174.774 888.412 175.891 888.005C178.622 887.008 181.566 882.461 183.427 880.221C185.174 883.395 188.226 886.317 189.53 889.585C191.196 893.759 186.84 900.386 193.445 902.905C194.886 902.481 195.53 901.694 196.504 900.629L197.04 900.993C196.289 906.641 191.529 902.55 198.821 912.029C201.67 915.731 205.069 919.353 207.405 923.389C191.677 908.528 172.498 893.059 164.41 872.469C162.248 866.967 162.691 860.786 160.55 855.298C160.478 855.115 160.419 854.927 160.344 854.745C159.35 852.363 156.079 850.311 154.046 848.774C148.627 844.678 143.089 840.734 138.012 836.211C132.462 831.268 127.35 825.776 121.636 821.034L122.993 819.846Z"/>
	<path fill="#9F8BE8" d="M101.177 848.136C107.478 841.212 114.205 834.781 120.98 828.329C125.687 830.926 131.074 837.415 135.4 841.082C141.686 846.41 148.365 851.08 155.218 855.639C156.075 860.5 156.806 865.455 157.965 870.253C159.466 876.465 162.128 882.016 165.685 887.306C173.936 899.58 198.132 924.061 211.11 931.969C213.165 933.222 214.873 934.454 217.337 933.856C218.001 933.078 218.043 932.601 218.08 931.619C218.115 930.693 218.086 930.563 218.531 929.696C221.276 931.674 238.463 951.277 239.069 953.84C239.337 954.969 239.389 955.153 238.785 956.167C235.344 955.189 232.047 953.476 228.794 951.991C197.657 937.939 170.537 909.44 145.454 886.744C130.95 873.621 115.964 860.942 101.177 848.136Z"/>
	<path fill="#9F8BE8" d="M177.827 852.151C174.492 850.051 170.482 848.541 168.175 845.248C168.177 843.557 168.871 843.123 169.892 841.816C173.302 843.387 177.756 845.181 179.347 848.774C179.207 850.476 178.812 850.806 177.827 852.151Z"/>
	<path fill="#9F8BE8" d="M372.446 864.373C372.153 860.115 372.284 855.846 372.346 851.582C394.328 859.178 412.523 859.321 435.178 855.711C434.533 860.049 434.441 864.5 434.197 868.877C418.416 874.978 387.866 870.57 372.446 864.373Z"/>
	<path fill="#FEFEFE" d="M89.0503 863.296C91.4611 859.309 94.622 855.82 97.6318 852.283C99.1749 852.775 162.292 909.897 170.998 917.485C178.862 924.339 186.984 931.074 195.189 937.519C203.114 943.742 212.149 950.155 221.165 954.629C225.517 956.789 234.351 959.138 237.337 962.669L236.945 963.405C234.855 964.174 232.951 964.04 230.766 963.988C223.85 962.956 217.443 960.976 211.146 957.917C184.417 944.935 153.487 913.358 129.302 894.156C116.549 884.032 100.349 874.521 89.0503 863.296Z"/>
	<path fill="#FEFEFE" d="M386.031 892.168C386.638 886.22 386.594 880.276 386.549 874.307C399.495 876.92 411.844 876.757 424.924 875.931C424.649 879.114 424.225 892.929 422.77 894.686C421.433 895.273 420.085 895.869 418.703 896.339C408.107 899.941 395.683 897.106 386.031 892.168Z"/>
	<path fill="#9F8BE8" d="M377.745 902.993C378.46 900.281 379.569 897.82 380.707 895.266C382.496 896.418 384.536 897.377 386.465 898.275C400.514 904.821 411.799 904.869 426.308 899.65L431.711 903.159C429.818 903.521 428.137 904.117 426.338 904.803C422.638 906.608 418.934 908.227 414.96 909.342C401.803 913.033 389.41 909.541 377.745 902.993Z"/>
	<path fill="#9F8BE8" d="M488.77 936.602C473.433 934.915 457.976 932.682 442.973 929.035C437.452 927.692 430.397 925.907 427.401 920.582C426.217 918.478 425.823 915.415 426.58 913.099C427.567 910.081 431.675 908.756 434.289 907.458C435.499 907.292 436.719 907.602 437.898 907.87C442.921 909.012 443.53 912.394 446.103 916.236C446.936 917.479 448.021 918.728 449.556 918.997L450.424 918.367C450.781 917.092 450.976 915.642 451.993 914.724C455.284 915.986 455.556 922.149 457.307 924.952C458.128 926.266 458.869 926.33 460.311 926.675C463.217 925.606 461.626 922.992 462.714 920.732C466.742 921.48 465.879 926.893 468.313 929.515C469.519 930.036 470.083 930.074 471.378 929.871C472.408 928.884 472.398 927.849 472.573 926.508L472.647 925.906L473.56 925.433C476.571 925.51 481.249 927.387 483.571 929.401C484.683 930.367 484.493 931.273 484.63 932.634C485.936 934.02 487.383 935.295 488.77 936.602Z"/>
	<path fill="#9F8BE8" d="M369.365 940.372C369.776 929.466 373.083 918.21 375.939 907.712C376.946 908.374 377.989 908.981 379.063 909.529C393.822 917.132 404.777 918.225 420.448 913.163C420.566 915.329 420.739 917.607 421.158 919.737C421.96 923.812 424.17 926.793 427.617 929.058C440.018 937.206 484.437 942.696 500.525 942.278C505.602 942.145 510.903 941.915 515.939 941.26C520.419 940.678 525.764 938.942 530.206 939.275C535.434 939.667 543.51 941.819 547.828 944.819C548.843 945.524 548.937 945.643 549.12 946.797L547.378 947.321C524.569 949.649 501.994 951.315 479.046 950.47C462.474 949.86 445.947 947.743 429.409 946.505C409.453 945.011 389.058 944 369.365 940.372Z"/>
	<path fill="#C5C4FB" d="M832.205 920.022C864.845 929.827 897.123 940.948 929.494 951.595L1024 981.802L1024 1005.86C1015.15 1003.18 1006.37 999.464 997.616 996.4L950.205 980.279C910.749 967.206 871.408 953.784 832.189 940.015C831.89 933.363 832.071 926.676 832.205 920.022Z"/>
	<path fill="#FEFEFE" d="M367.877 956.186C367.982 952.761 368.338 949.325 368.61 945.908C379.922 946.756 391.331 948.621 402.633 949.774C416.8 951.219 431.005 952.083 445.201 953.182C462.019 954.485 478.796 955.937 495.674 956.214C508.267 956.42 521.148 955.231 533.683 954.023C539.078 953.504 545.136 952.289 550.53 952.355C551.854 952.371 552.032 952.45 552.937 953.29L552.849 954C551.882 955.409 551.072 955.875 549.54 956.599C537.038 960.64 522.267 962.884 509.14 963.556C489.902 964.54 470.199 962.325 450.949 961.437C433.733 960.766 416.525 959.904 399.328 958.849C388.829 958.207 378.296 957.68 367.877 956.186Z"/>
</svg>
