<?xml version="1.0" encoding="utf-8" ?>
<svg xmlns="http://www.w3.org/2000/svg" xmlns:xlink="http://www.w3.org/1999/xlink" width="1024" height="1024">
	<path fill="#9F8BE8" d="M0 0L57.4993 0L57.6329 1024L0 1024L0 0Z"/>
	<path fill="#020202" d="M57.4993 0L62.7587 0L62.9448 1024L57.6329 1024L57.4993 0Z"/>
	<path fill="#9F8BE8" d="M62.7587 0L257.454 0C243.991 5.18338 231.12 11.9457 218.044 18.0232L160.63 44.332L127.98 59.5573C121.491 62.5881 113.763 65.4128 108.017 69.6893C107.438 82.2251 107.803 94.9047 107.804 107.455L107.834 175.083L107.878 380.245L107.877 1012.11C107.883 1014.44 107.256 1020.94 108.857 1022.52C109.56 1023.21 110.056 1023.36 110.973 1023.63C130.854 1013.35 151.604 1004.22 171.922 994.841C172.323 995.195 172.575 995.47 173.115 995.668C176.221 996.811 260.45 996.045 270.92 996.047L660.319 995.712L760.408 995.118C778.167 995.056 796.054 995.559 813.788 995.168C815.069 995.14 816.465 994.94 817.63 994.374C818.76 993.826 819.198 993.416 819.571 992.239C818.252 991.113 816.993 991.055 815.301 991.016C765.918 989.864 716.414 991.968 667.023 991.991L313.837 992.627C278.682 992.966 243.525 992.857 208.373 992.301C201.185 992.243 184.311 993.545 178.521 992.236C178.226 992.17 177.935 992.092 177.642 992.02L251.101 957.633C263.212 951.864 275.503 946.342 287.194 939.748C297.785 943.753 308.229 948.399 318.72 952.681C346.378 963.971 374.385 975.429 402.763 984.768C404.081 983.814 405.304 982.805 406.387 981.582C412.315 974.889 414.335 953.319 413.695 944.388C420.781 942.654 429.037 943.479 436.334 943.476C446.493 943.503 456.652 943.474 466.812 943.389C527.128 942.978 587.447 942.871 647.765 943.068L652.491 943.666C650.671 944.321 648.686 945.513 647.28 946.836C645.635 948.384 644.439 950.489 644.476 952.799C644.501 954.406 645.239 955.817 646.422 956.866C653.89 963.496 686.675 962.109 696.938 961.462C704.262 957.012 712.338 947.172 718.443 940.879C722.518 941.549 727.141 941.18 731.284 941.194L755.9 941.243L779.56 941.249C782.99 941.265 786.541 941.68 789.952 941.45C791.503 941.345 792.625 941.101 794.008 940.395C794.748 939.191 794.68 939.242 794.408 937.844C790.72 936.163 730.532 937.034 721.785 937.027C730.057 927.639 738.99 918.75 747.488 909.555C751.405 905.318 756.307 900.907 759.003 895.803C758.34 893.68 757.785 891.857 756.504 890.001C763.849 890.068 771.401 889.106 778.765 888.828C788.558 905.208 797.368 922.223 806.633 938.909C810.341 945.589 813.824 952.843 818.136 959.118C819.757 961.477 821.63 963.562 824.099 965.039C826.257 965.186 827.782 964.896 829.356 966.61C833.325 970.935 834.225 973.412 840.729 974.15C844.848 974.617 848.769 973.434 851.945 970.77C855.427 967.848 857.701 963.408 858.103 958.882C858.275 956.944 858.057 954.963 857.979 953.021L886.306 941.605C889.549 942.399 936.001 941.522 937.233 940.969C937.546 939.842 937.685 939.112 937.526 937.948C934.005 936.205 905.152 938.751 897.829 937.727C897.689 937.708 897.549 937.684 897.409 937.662C901.113 935.593 905.51 934.183 909.443 932.568C917.196 929.386 924.918 926.095 932.794 923.226C942.027 912.515 942.133 904.672 945.121 891.548C945.522 891.699 945.722 891.807 946.164 891.831C947.851 891.919 949.566 890.739 951.236 890.458C952.986 890.163 955.415 890.605 957.041 889.889C957.414 889.724 957.642 889.337 957.942 889.061C958.055 887.804 958.274 887.934 957.461 886.843C956.022 886.439 949.112 886.865 946.144 886.477C946.575 885.765 946.974 885.171 947.138 884.341C951.833 860.575 958.44 837.061 962.948 813.275C952.378 794.856 940.527 776.928 929.012 759.085L888.321 695.678L859.433 650.923C854.289 642.927 849.506 633.888 843.389 626.642C840.544 623.273 836.163 620.775 831.94 619.567C828.161 618.487 824.081 619.195 820.378 620.274C810.509 623.152 798.291 629.507 788.499 633.671L761.474 645.398C755.824 647.786 749.863 649.746 744.485 652.715C736.273 657.249 733.278 664.037 730.798 672.591C709.481 634.618 687.704 596.905 665.472 559.46C654.166 540.211 643.576 520.292 631.312 501.645C648.947 492.817 679.744 460.827 686.523 442.611C692.363 426.917 683.208 409.213 676.647 394.953C677.323 392.817 678.092 390.621 678.051 388.354C677.785 373.726 660.099 344.799 649.249 334.84C644.927 330.873 639.199 328.783 635.37 324.22C629.812 317.598 625.232 309.984 619.985 303.092C612.851 293.722 604.7 285.387 596.291 277.173C596.697 243.306 596.012 209.385 596.024 175.509L596.238 0L1024 0L1024 1024L111.045 1024L62.9448 1024L62.7587 0Z"/>
	<path fill="#020202" d="M257.454 0L268.592 0C257.115 6.79534 241.701 12.8341 229.327 18.5455C200.979 31.4363 172.702 44.4812 144.496 57.6795C135.108 62.1229 121.505 67.0732 113.146 72.5436C112.571 88.0151 112.87 103.62 112.91 119.108L113.054 190.691L113.008 398.657L113.319 1016.66C130.631 1008.21 148.125 1000.19 165.51 991.899L282.736 936.682C280.449 935.353 277.84 934.17 277.051 931.409C276.426 929.221 276.891 927.019 278.125 925.137C280.536 921.46 285.251 919.25 289.44 918.425C293.988 917.53 298.932 918.039 303.538 918.252L303.446 589.277C297.586 584.034 292.803 582.866 292.353 574.066C291.946 566.108 292.844 553.339 296.851 546.329C298.454 543.525 301.01 540.991 303.1 538.529C303.513 496.734 303.056 454.898 303.056 413.097L302.924 161.321L302.668 62.1794C302.593 41.4822 302.121 20.6819 302.798 0L307.907 0L308.517 343.894L308.447 472C308.488 492.449 307.904 513.067 308.702 533.49C313.498 528.656 319.407 524.503 323.845 519.454C323.589 515.367 324.048 514.138 326.758 511.059C343.624 491.912 360.23 472.538 376.571 452.942C383.818 444.335 391.456 436.115 398.346 427.206C396.22 424.897 393.881 422.951 394.021 419.526C394.37 410.932 400.409 398.504 401.862 388.882C406.279 359.645 407.829 330.205 410.041 300.752C407.957 299.317 406.749 297.794 405.363 295.706C405.016 292.549 404.659 289.656 405.266 286.502C405.323 286.205 405.372 285.906 405.431 285.61C406.196 281.793 407.759 277.881 409.21 274.272C404.084 274.376 399.18 275.152 394.103 275.543C383.429 270.689 375.621 262.776 370.119 252.408C366.47 252.946 361.278 252.975 358.226 250.503C356.777 249.33 356.246 247.77 356.211 245.971C356.111 240.806 362.516 232.954 358.728 228.952C355.969 226.037 351.811 224.324 348.465 222.133C345.771 220.369 343.285 218.15 340.75 216.162C334.193 211.019 325.946 205.387 325.858 195.963C325.81 190.866 329.015 186.319 330.978 181.783C332.604 178.026 333.678 174.035 335.158 170.22C339.252 159.892 345.467 150.536 353.4 142.758C366.663 129.842 383.757 121.415 402.519 121.674C424.45 121.977 445.936 133.737 460.844 149.315C469.695 158.564 477.051 170.279 481.892 182.122C489.226 180.215 495.05 178.49 502.117 182.595C505.289 184.437 508.977 188.107 510.045 191.709C510.465 193.128 509.768 195.32 510.207 196.536C510.667 197.809 515.064 202.117 516.188 203.463C519.848 207.848 522.971 212.714 526.131 217.466C526.666 182.969 526.215 148.411 526.129 113.908L526.07 0L531.986 0L532.064 144.488C532.101 169.472 531.645 194.544 532.107 219.52C536.967 221.084 540.771 223.035 544.543 226.596L544.486 0L550.107 0L550.12 149.978C550.141 176.995 549.18 204.284 550.117 231.266C562.332 242.162 580.349 259.624 590.499 272.245L590.085 0L596.238 0L596.024 175.509C596.012 209.385 596.697 243.306 596.291 277.173C604.7 285.387 612.851 293.722 619.985 303.092C625.232 309.984 629.812 317.598 635.37 324.22C639.199 328.783 644.927 330.873 649.249 334.84C660.099 344.799 677.785 373.726 678.051 388.354C678.092 390.621 677.323 392.817 676.647 394.953C683.208 409.213 692.363 426.917 686.523 442.611C679.744 460.827 648.947 492.817 631.312 501.645C643.576 520.292 654.166 540.211 665.472 559.46C687.704 596.905 709.481 634.618 730.798 672.591C733.278 664.037 736.273 657.249 744.485 652.715C749.863 649.746 755.824 647.786 761.474 645.398L788.499 633.671C798.291 629.507 810.509 623.152 820.378 620.274C824.081 619.195 828.161 618.487 831.94 619.567C836.163 620.775 840.544 623.273 843.389 626.642C849.506 633.888 854.289 642.927 859.433 650.923L888.321 695.678L929.012 759.085C940.527 776.928 952.378 794.856 962.948 813.275C958.44 837.061 951.833 860.575 947.138 884.341C946.974 885.171 946.575 885.765 946.144 886.477C945.848 888.183 945.521 889.863 945.121 891.548C942.133 904.672 942.027 912.515 932.794 923.226C924.918 926.095 917.196 929.386 909.443 932.568C905.51 934.183 901.113 935.593 897.409 937.662C893.682 938.859 889.858 939.946 886.306 941.605L857.979 953.021C858.057 954.963 858.275 956.944 858.103 958.882C857.701 963.408 855.427 967.848 851.945 970.77C848.769 973.434 844.848 974.617 840.729 974.15C834.225 973.412 833.325 970.935 829.356 966.61C827.782 964.896 826.257 965.186 824.099 965.039C821.63 963.562 819.757 961.477 818.136 959.118C813.824 952.843 810.341 945.589 806.633 938.909C797.368 922.223 788.558 905.208 778.765 888.828L776.742 885.042C769.189 869.679 759.973 855.134 751.95 839.989L750.03 836.529C739.795 817.889 729.45 799.309 718.998 780.79C714.288 772.526 709.663 764.269 705.136 755.904C703.433 752.758 701.071 749.3 700.026 745.897C699.007 742.58 700.104 738.905 701.032 735.688C701.504 734.053 702.035 732.465 702.68 730.89C696.045 718.865 688.21 707.33 681.259 695.448L632.058 610.412C621.964 593.11 611.267 576.127 601.534 558.62C598.474 575.512 599.789 597.622 599.227 615.154C599.027 621.408 597.622 628.609 598.212 634.726C599.986 653.119 609.276 686.678 619.644 701.877C623.563 707.622 628.745 712.467 633.569 717.439C641.51 725.624 649.627 733.722 656.719 742.672C669.037 758.216 678.743 775.082 688.49 792.288C696.902 807.065 705.092 821.968 713.057 836.992L714.854 840.309C715.583 842.024 716.39 843.593 715.68 845.474C715.306 846.465 714.763 847.425 714.248 848.347C722.059 862.232 729.585 864.908 740.794 874.979C744.845 878.618 748.377 883.238 752.615 886.581C753.819 887.755 755.044 889.169 756.504 890.001C757.785 891.857 758.34 893.68 759.003 895.803C756.307 900.907 751.405 905.318 747.488 909.555C738.99 918.75 730.057 927.639 721.785 937.027C720.645 938.289 719.482 939.531 718.443 940.879C712.338 947.172 704.262 957.012 696.938 961.462C686.675 962.109 653.89 963.496 646.422 956.866C645.239 955.817 644.501 954.406 644.476 952.799C644.439 950.489 645.635 948.384 647.28 946.836C648.686 945.513 650.671 944.321 652.491 943.666C655.893 943.496 658.928 942.614 662.052 941.333C662.627 941.029 663.168 940.735 663.695 940.352C670.226 935.609 672.294 930.686 673.66 923.006L676.916 919.915C678.034 915.346 681.686 903.399 685.001 900.351C685.141 900.222 685.299 900.111 685.423 899.968C686.396 898.847 686.418 897.838 686.437 896.439C686.47 894.009 686.752 892.112 687.46 889.808L687.692 889.065L689.375 885.544C689.445 885.502 689.525 885.474 689.585 885.419C690.145 884.903 690.76 884.491 690.713 883.685C690.511 880.228 686.749 875.161 684.388 872.787C682.057 874.199 679.818 875.792 677.556 877.313C671.564 870.447 664.906 864.208 659.134 857.143C654.161 851.056 650.071 844.238 645.387 837.921C644.728 836.797 643.933 835.725 643.205 834.642C631.694 816.129 615.581 798.919 599.778 784.071L594.479 778.963C594.518 781.249 594.474 783.566 594.67 785.843C594.685 788.076 594.593 790.278 594.466 792.506C574.789 801.01 555.272 809.88 535.925 819.111C525.005 824.197 513.693 828.876 503.048 834.503C500.223 835.722 497.286 836.858 494.563 838.281C478.691 846.426 462.24 853.431 446.389 861.603C442.794 869.859 438.72 877.913 434.764 886.002C434.185 887.309 433.588 888.608 433.061 889.936C430.26 896.263 423.044 914.253 419.141 918.654C418.151 919.77 416.706 920.411 415.401 921.081C415.368 921.098 415.337 921.118 415.304 921.136C413.589 925.658 411.756 930.168 410.215 934.751C411.831 936.553 412.767 937.802 413.387 940.175L413.695 944.388C414.335 953.319 412.315 974.889 406.387 981.582C405.304 982.805 404.081 983.814 402.763 984.768C374.385 975.429 346.378 963.971 318.72 952.681C308.229 948.399 297.785 943.753 287.194 939.748C275.503 946.342 263.212 951.864 251.101 957.633L177.642 992.02L171.922 994.841C151.604 1004.22 130.854 1013.35 110.973 1023.63C110.056 1023.36 109.56 1023.21 108.857 1022.52C107.256 1020.94 107.883 1014.44 107.877 1012.11L107.878 380.245L107.834 175.083L107.804 107.455C107.803 94.9047 107.438 82.2251 108.017 69.6893C113.763 65.4128 121.491 62.5881 127.98 59.5573L160.63 44.332L218.044 18.0232C231.12 11.9457 243.991 5.18338 257.454 0ZM303.343 569.359C302.891 573.825 303.035 577.626 303.83 582.043L305.121 582.225L305.166 582.481C305.394 578.509 304.915 574.531 305.256 570.605C305.414 568.014 305.154 564.896 306.814 562.821C308.024 562.377 308.108 562.373 309.353 562.706C311.063 564.549 310.648 567.662 310.56 570.009C310.437 573.285 310.252 576.52 310.939 579.751C311.054 580.873 311.376 582.099 311.719 583.171C313.247 587.936 317.316 590.498 321.457 592.758C316.988 587.139 315.199 582.245 313.961 575.258C314.01 572.843 313.632 568.906 315.337 567.03C315.901 566.41 316.466 566.475 317.243 566.321C318.408 566.951 318.81 567.36 319.189 568.672C319.99 571.455 319.334 574.602 319.558 577.46C321.346 583.531 323.782 587.996 329.04 591.702C327.05 587.436 324.222 583.458 322.594 579.074C322.607 578.987 322.624 578.901 322.635 578.814C324.296 565.782 332.489 553.387 341.535 544.227C335.959 538.046 331.022 531.268 326.034 524.612C319.711 531.156 312.119 536.543 306.033 543.288C301.766 548.017 299.796 553.071 300.092 559.471C301.105 558.516 301.345 558.04 302.753 557.853C303.191 558.192 303.657 558.517 303.999 558.964C305.903 561.46 303.642 566.505 303.343 569.359ZM395.611 127.178C377.012 129.592 361.293 139.245 349.863 154.058C342.247 163.928 339.682 172.906 335.112 184.037C333.415 188.172 330.095 192.488 330.582 197.11C331.005 201.126 334.474 204.307 337.514 206.616C355.037 219.925 372.487 210.558 389.328 216.679C395.055 214.175 400.378 211.54 405.632 208.119C404.694 206.651 403.731 205.193 402.839 203.697C403.337 200.248 403.755 197.111 405.52 194.035C408.866 192.171 411.464 190.957 415.349 192.067C418.822 193.059 421.516 195.667 423.205 198.794C425.39 202.838 425.878 208.298 424.368 212.651C424.067 213.495 423.726 214.324 423.346 215.135C421.635 217.64 419.581 219.577 417.668 221.883C417.388 228.864 416.913 242.527 421.721 248.153C422.368 248.91 422.827 249.15 423.736 249.483C425.143 249.164 425.699 248.584 426.608 247.465C430.293 242.925 433.56 237.917 437.148 233.269C444.944 223.192 452.952 213.28 461.165 203.54C466.43 197.232 471.673 190.7 477.899 185.304C466.472 160.633 450.544 140.613 424.305 131.059C415.358 127.801 405.116 125.964 395.611 127.178ZM488.56 185.513C484.131 187.568 480.471 190.351 476.942 193.71C467.548 202.649 459.499 213.665 451.427 223.813C439.799 238.434 427.327 253.33 417.732 269.384C415.498 273.172 413.621 277.159 412.125 281.294C410.995 284.384 408.897 290.399 410.67 293.513C410.838 293.807 411.08 294.054 411.284 294.325L410.69 294.219L411.828 293.885C411.827 293.692 411.822 293.498 411.824 293.304C411.862 289.303 414.101 286.239 416.036 282.879C419.152 277.793 422.261 272.727 425.938 268.018C430.298 262.434 435.489 257.355 440.333 252.191C454.642 236.936 469.467 222.755 485.597 209.416C492.155 203.992 499.593 199.585 505.953 193.938C502.918 189.971 499.366 186.179 494.102 185.554C492.29 185.338 490.38 185.463 488.56 185.513ZM411.176 196.301C409.484 197.832 408.106 198.93 407.775 201.313C407.303 204.698 410.966 208.006 410.344 210.908C404.289 216.465 395.667 218.172 388.948 222.545C386.319 224.256 384.883 227.336 382.339 229.139C380.118 230.712 374.904 231.738 374.672 234.72C374.642 235.102 374.657 235.721 374.662 236.121C373.451 236.826 372.234 237.355 370.823 236.914C370.081 236.682 369.693 236.116 369.418 235.39C368.787 233.719 369.156 231.687 367.993 230.232L367.565 230.008C365.907 230.67 365.38 231.81 364.689 233.4C363.295 236.606 360.774 241.617 360.976 245.085C362.015 246.504 363.091 247.394 364.836 247.717C368.565 248.408 372.286 245.844 375.404 248.656C375.757 249.603 375.842 250.095 375.866 251.119C375.934 254.014 380.701 258.412 382.643 260.65C386.615 265.114 390.108 269.394 396.528 269.855C401.328 270.2 406.704 269.265 411.55 268.939C414.984 264.084 418.355 259.186 421.663 254.246C412.189 246.368 415.127 239.541 412.014 236.248C411.002 235.178 410.168 236.401 409.493 234.442C410.543 231.111 413.859 222.474 412.579 219.252C412.313 218.584 411.771 217.905 411.352 217.32C414.213 213.912 420.965 216.293 420.031 206.339C419.752 203.362 418.278 200.23 415.971 198.288C414.542 197.086 412.991 196.594 411.176 196.301ZM505.982 200.936C489.937 213.021 474.291 225.325 459.859 239.335C451.901 247.061 444.649 255.369 437.055 263.433C441.507 261.47 446.032 259.733 450.575 257.996C468.103 250.813 485.419 243.123 502.502 234.936C509.13 231.754 516.273 228.785 522.558 224.992C520.688 217.746 512.553 204.816 505.982 200.936ZM349.748 218.515C355.264 221.459 358.818 223.146 365.147 223.1C367.15 225.319 369.247 227.099 371.604 228.929C374.283 227.353 376.931 225.766 379.517 224.042C381.005 222.914 382.55 221.821 383.909 220.539C376.756 220.453 369.374 220.941 362.261 220.413C358.064 220.101 353.945 218.654 349.748 218.515ZM527.472 226.72C521.322 234.99 481.369 248.767 469.251 256.914C492.918 268.485 514.694 287.2 534.52 304.332C544.761 313.761 555.235 323.257 565.032 333.133C563.38 326.054 560.754 319.256 558.605 312.32C554.864 300.244 534.311 230.793 528.136 226.99C527.932 226.865 527.693 226.81 527.472 226.72ZM553.952 245.917C558.645 258.733 563.902 271.705 567.908 284.743C570.482 293.117 573.022 301.578 575.203 310.062C576.464 314.969 577.393 320.004 578.779 324.871C581.591 322.979 584.396 321.084 587.283 319.305L592.088 316.923C585.758 301.062 566.306 256.152 553.952 245.917ZM568.404 256.88C578.168 271.863 592.107 298.265 597.084 315.234C606.576 313.481 615.002 314.504 623.808 318.417C618.993 306.791 596.187 285.29 587.295 275.88C583.746 272.124 572.113 258.751 568.404 256.88ZM443.384 266.992C439.183 269.038 434.28 270.808 430.387 273.315C424.852 276.88 420.001 285.905 417.853 291.992C413.363 304.712 413.716 324.093 412.785 337.692C411.544 355.799 410.083 374.416 406.635 392.247C405.625 397.464 404.328 402.709 402.607 407.74C401.624 410.619 400.148 413.508 399.529 416.484C399.211 418.012 399.124 419.501 399.86 420.918C401.651 424.363 412.529 426.176 411.867 432.391C410.826 433.162 410.197 433.142 408.953 432.957C406.848 432.643 404.721 431.185 402.904 430.124C396.266 439.04 388.612 447.18 381.428 455.651L348.604 494.495C342.161 501.985 335.151 509.331 329.317 517.301C335.618 528.26 342.747 538.509 353.104 546.048C361.691 541.94 370.656 533.79 378.454 528.034C396.507 514.709 414.395 501.534 431.727 487.248C439.013 481.241 446.817 475.262 453.089 468.17C459.128 461.342 463.401 453.193 466.425 444.64C467.341 442.082 468.19 439.5 468.969 436.896C472.205 424.486 474.147 412.326 476.423 399.748C478.927 385.91 481.555 372.205 483.516 358.269C484.357 352.29 485.249 346.288 485.869 340.282C486.195 337.125 486.105 333.811 486.607 330.694C486.834 329.287 487.293 328.224 488.039 327.024C489.131 326.385 489.074 326.36 490.306 326.615C493.243 330.35 490.362 347.27 489.708 352.696C488.581 362.036 485.81 371.658 485.417 380.986C509.787 408.838 538.616 433.948 570.32 453.122C567.226 444.072 565.066 434.67 563.056 425.329C558.098 402.288 554.358 378.51 561.819 355.481C557.872 348.917 551.322 343.698 545.796 338.473C522.869 316.798 496.368 293.818 469.113 277.912C460.836 273.081 452.567 269.72 443.384 266.992ZM603.144 319.681C592.744 320.8 584.618 325.717 578.117 333.869C564.091 351.458 561.069 376.86 563.631 398.592C564.861 409.027 566.594 420.489 569.308 430.631C574.766 426.836 579.786 422.222 584.666 417.723C587.462 415.167 590.201 412.584 592.864 409.89C587.663 392.185 588.414 373.681 597.431 357.32C604.661 344.2 615.49 334.59 629.989 330.48C631.216 330.134 632.445 329.798 633.678 329.471C624.286 323.824 614.47 318.726 603.144 319.681ZM635.232 334.567C621.839 337.571 611.454 344.625 604.012 356.24C595.095 370.156 592.831 387.074 596.362 403.123C598.14 411.201 601.483 418.879 608.681 423.567C614.743 427.515 622.598 428.769 629.628 427.156C630.681 426.915 631.713 426.643 632.743 426.318C646.856 420.82 667.47 402.34 673.361 388.516C673.486 388.222 673.601 387.925 673.722 387.629C670.32 374.307 654.591 343.532 642.637 336.323C640.167 334.834 638.079 334.453 635.232 334.567ZM672.723 398.907C662.845 412.329 646.378 429.62 629.174 432.319C620.386 433.697 610.816 431.866 603.623 426.488C599.687 423.546 596.918 419.931 594.908 415.442C586.596 422.101 578.552 429.742 570.665 436.937C574.935 453.372 580.55 469.126 586.243 485.102C590.168 493.816 595.386 502.992 604.606 506.87C629.37 503.754 657.305 476.447 672.246 457.094C678.042 449.586 684.351 439.771 683.036 429.864C681.95 421.685 676.967 406.21 672.723 398.907ZM481.014 405.868C477.556 424.957 474.642 445.161 464.155 461.888C461.045 466.847 457.26 471.068 453.786 475.723C452.405 486.491 451.702 497.34 450.739 508.151C448.573 533.609 446.708 559.092 445.146 584.594C444.471 595.849 444.646 607.211 443.545 618.432C457.096 615.101 470.78 611.738 483.908 606.977C507.238 598.517 532.412 584.714 554.033 572.437C567.026 564.957 579.586 556.715 592.658 549.396C604.102 542.989 618.78 536.853 628.906 528.702C630.634 521.988 627.174 511.676 625.728 504.896C618.298 508.715 610.16 513.12 601.536 510.572C593.286 508.135 587.515 499.806 583.787 492.522C581.78 488.603 580.219 484.508 578.501 480.46C572.706 476.744 566.452 473.862 560.624 470.225C542.332 458.809 524.397 446.169 507.996 432.135C501.551 426.62 495.453 420.523 489.504 414.477C486.732 411.66 484.011 408.403 481.014 405.868ZM437.025 489.451C416.026 505.985 395.359 522.835 373.721 538.546C367.489 543.071 361.362 548.477 354.653 552.251C351.485 551.108 348.818 549.606 345.972 547.818C336.806 556.733 330.955 565.893 327.528 578.437C330.269 582.402 332.347 585.625 333.622 590.31C332.255 592.005 330.901 593.67 329.677 595.474C328.56 597.12 326.777 599.064 324.698 599.368C320.937 599.92 312.632 593.914 309.22 592.065C307.934 604.539 309.009 619.782 309.089 632.509L309.178 701.484L309.056 904.125C309.101 908.849 309.173 913.573 309.272 918.297C312.416 918.652 316.422 919.544 319.521 918.854C325.149 917.601 331.24 914.079 336.529 911.746C350.829 905.436 364.974 898.877 379.144 892.278C383.569 874.777 386.075 856.71 389.252 838.955C394.085 811.939 399.209 784.731 402.052 757.424C402.706 751.142 403.341 744.825 403.56 738.512C403.767 732.548 403.557 726.552 403.963 720.598C404.381 714.468 405.312 708.32 406.211 702.244C414.889 643.601 426.999 585.637 433.383 526.623C434.641 514.991 437.087 501.418 437.491 490.049L437.025 489.451ZM445.927 491.994C442.825 494.369 441.577 495.688 441.066 499.599C438.543 518.921 438.016 538.441 435.189 557.774C431.63 581.425 427.893 605.05 423.979 628.645C419.575 654.034 414.709 679.404 411.065 704.916C409.277 717.434 409.351 729.926 408.521 742.507C407.5 755.971 406.031 769.398 404.119 782.765C400.574 809.289 395.691 835.997 390.662 862.273C388.047 875.936 385.052 889.472 382.705 903.194C392.493 910.185 403.045 914.231 415.055 915.386C419.859 908.347 423.163 898.035 426.833 890.177C435.825 870.925 445.801 851.998 453.488 832.158C460.942 814.304 468.152 797.265 470.844 777.931C473.063 761.987 473.258 745.778 476.845 730.025C480.962 711.945 489.421 694.994 497.281 678.325C501.702 668.949 505.839 659.419 510.478 650.15C516.5 638.117 523.146 626.359 529.632 614.569C535.772 603.407 541.653 591.538 548.947 581.097C540.297 585.504 531.972 590.517 523.361 594.997C501.566 606.337 482.084 614.044 458.319 620.429C453.018 621.854 445.477 624.765 440.074 623.883C437.863 621.579 438.396 614.666 438.453 611.567C438.922 586.066 440.944 560.143 443.091 534.713C444.232 521.203 446.15 507.284 446.323 493.732C446.333 492.941 446.441 492.564 445.927 491.994ZM633.55 515.942C635.566 526.938 646.79 542.945 652.506 552.999L683.482 606.724C692.719 622.927 702.05 639.076 711.475 655.17C716.409 663.73 720.997 672.626 726.343 680.92C727.387 681.349 726.921 681.327 727.705 681.238C727.811 680.57 728.038 679.91 728.023 679.233C728.001 678.281 642.339 527.945 634.473 516.994C634.09 516.461 633.959 516.353 633.55 515.942ZM633.631 531.021C627.121 537.926 618.26 541.648 609.845 545.689C618.472 562.915 629.557 579.385 639.396 595.968L679.958 665.779C688.508 680.541 697.463 695.108 705.536 710.135L708.467 715.264C712.092 709.608 714.224 703.349 717.009 697.286C718.88 693.213 721.293 689.351 723.605 685.516C715.707 673.717 708.82 661.405 701.749 649.101C694.256 636.309 686.874 623.453 679.603 610.533C673.086 598.982 665.872 587.845 659.385 576.282C650.952 561.251 643.241 545.336 633.631 531.021ZM603.585 548.802C603.567 550.883 604.369 552.476 605.352 554.272C612.995 568.233 703.97 723.694 704.944 724.448C705.172 724.625 705.441 724.742 705.69 724.89C706.19 723.384 706.658 722.054 705.96 720.518C703.306 714.689 698.95 708.993 695.693 703.402C687.035 688.307 678.277 673.27 669.418 658.291L628.2 587.622C621.872 576.801 615.857 565.666 609.152 555.084C607.693 552.781 606.149 549.951 603.585 548.802ZM595.867 553.483C582.521 560.77 569.657 569.368 556.738 577.402C552.678 585.837 547.712 593.708 543.012 601.79C537.973 610.639 533.044 619.549 528.227 628.52C523.205 637.734 518.056 646.842 513.959 656.519C516.373 663.554 519.928 670.351 523.126 677.059C532.63 696.997 545.485 724.12 560.722 740.107C578.008 758.245 598.436 773.414 615.598 791.625C632.629 809.698 644.453 827.434 658.755 847.271C664.924 855.458 671.132 863.574 678.716 870.53C684.934 866.374 691.193 862.232 696.873 857.349C701.602 853.282 705.894 848.552 710.758 844.677C706.191 835.459 700.879 826.602 696.035 817.525C685.392 797.581 674.665 776.959 661.687 758.409C654.704 748.357 646.927 738.881 638.432 730.07C630.398 721.739 621.45 714.032 614.848 704.458C600.743 684.003 590.822 638.775 589.198 614C588.503 603.407 589.806 581.06 593.189 570.982L593.441 570.253C594.236 567.9 596.558 555.358 595.867 553.483ZM823.446 624.538C818.46 626.012 813.686 628.466 808.931 630.575C802.311 633.503 795.67 636.384 789.008 639.218C781.018 642.65 773.076 646.203 765.057 649.564C758.888 652.15 751.896 654.523 746.177 657.991C743.538 659.592 741.362 661.78 739.889 664.499C738.253 667.521 734.805 674.803 734.836 678.031L735.826 677.52C746.587 672.019 758.203 667.834 769.418 663.331C786.042 656.656 802.722 649.898 819.462 643.526L819.649 642.904C821.331 637.498 826.477 630.715 825.71 624.987C824.781 624.347 824.537 624.528 823.446 624.538ZM831.492 625.664C829.594 630.029 828.609 634.611 827.285 639.163C831.953 647.635 837.941 655.556 843.449 663.505C852.645 676.778 861.962 690.099 870.773 703.624L935.272 802.819C941.349 812.129 946.691 822.016 952.955 831.174L953.527 831.198C954.854 825.452 956.383 819.679 957.3 813.852C947.549 799.515 938.72 784.485 929.522 769.787C916.576 749.098 903.308 728.481 889.926 708.073C883.229 697.86 877.301 685.517 868.973 676.666C867.686 675.299 867.153 672.615 866.006 670.872C858.549 659.544 847.32 639.589 838.548 630.601C836.539 628.513 834.142 626.836 831.492 625.664ZM815.993 650.467L766.413 670.241C753.673 675.339 741.152 680.117 728.874 686.27C725.483 692.626 704.075 737.148 705.207 741.784L706.272 742.028C725.278 735.369 743.861 727.543 762.602 720.186C775.881 714.973 789.37 710.355 802.46 704.652C808.728 687.127 812.703 668.893 817.739 650.986L817.276 650.443L815.993 650.467ZM823.107 652.33C821.308 657.959 819.469 663.685 818.522 669.529L914.809 819.702C921.137 829.714 927.385 839.776 933.552 849.887C937.069 855.607 940.578 862.664 945.181 867.503C946.787 860.967 948.32 854.41 950.29 847.971C945.406 840.876 941.132 833.35 936.521 826.073C925.884 809.479 915.383 792.8 905.019 776.035C893.909 758.222 881.994 740.925 870.869 723.114C859.282 704.18 847.146 685.589 834.475 667.362C831.092 662.533 827.485 656.238 823.107 652.33ZM510.204 662.824C499.692 685.302 487.934 707.924 481.68 732.059C478.047 746.083 478.294 761.028 476.33 775.356C472.343 804.439 461.634 827.213 449.568 853.621C453.752 851.577 457.917 849.478 462.133 847.504L525.701 817.381L526.011 731.706C526.042 722.815 527.326 705.123 526.131 697.3C525.854 695.491 511.476 664.113 510.559 663.132C510.452 663.018 510.322 662.927 510.204 662.824ZM814.541 683.954C812.846 690.289 811.537 696.745 809.154 702.866L808.907 703.516C811.725 712.41 826.747 732.822 832.785 742.429C860.092 785.872 888.215 828.851 915.168 872.506C918.052 877.178 934.576 905.047 936.667 906.382C937.786 901.208 942.384 886.635 942.247 882.706C942.12 882.624 941.99 882.546 941.866 882.459C937.668 879.491 914.033 838.448 908.93 830.385L835.941 715.73C831.523 708.911 819.102 687.96 814.541 683.954ZM532.022 708.191C531.578 743.656 531.502 779.286 532.005 814.753L541.711 810.122L545.939 807.851L545.804 758.365C545.778 749.184 545.286 739.811 546.06 730.664C543.539 726.706 534.548 709.66 532.022 708.191ZM805.36 709.595C796.243 712.178 787.236 716.243 778.389 719.657C754.524 728.865 730.924 739.092 706.761 747.472C716.427 766.764 727.602 785.467 738.229 804.248L778.667 876.989C789.298 896.566 800.086 916.058 811.03 935.463C815.578 943.539 819.538 952.883 825.509 960.018C828.473 958.963 831.459 957.951 834.378 956.775L901.746 930.033C910.723 926.408 920.955 923.333 929.367 918.607C931.458 917.432 932.993 915.038 934.326 913.097C927.235 903.281 921.226 892.708 914.86 882.419L893.65 848.859L833.672 754.04L812.949 721.443C810.808 718.061 808.264 712.202 805.36 709.595ZM551.375 737.757C551.929 760.307 551.332 782.878 551.523 805.431C560.412 801.217 569.353 797.115 578.344 793.125C581.54 791.76 584.729 790.276 587.972 789.032C588.256 783.89 588.458 778.711 589.037 773.593C579.097 765.946 569.182 756.555 560.362 747.606C557.37 744.571 554.717 740.297 551.375 737.757ZM710.049 852.429C703.25 858.786 695.989 864.32 688.933 870.345C690.757 873.042 695.294 882.634 697.5 883.862L699.623 883.781C702.431 883.695 705.246 883.566 708.055 883.533C712.155 877.956 716.869 872.533 720.403 866.591C717.655 863.556 712.092 853.999 710.049 852.429ZM749.827 891.268C731.978 912.271 711.981 931.363 694.384 952.594C680.201 952.757 666.002 952.995 651.981 950.524C650.807 951.091 650.809 951.027 650.317 952.225C650.617 953.357 650.647 953.734 651.827 954.269C652.586 954.614 653.692 954.715 654.519 954.867C668.447 956.814 681.726 956.835 695.749 956.511C701.362 950.225 707.665 944.455 713.504 938.349C721.05 930.457 728.215 922.223 735.701 914.278C741.645 907.969 748.538 901.553 753.473 894.419C752.428 893.361 751.209 891.803 749.827 891.268ZM377.459 899.545C373.405 901.286 334.706 917.75 333.635 918.88C334.722 919.786 336.231 919.577 337.611 919.465L338.412 919.334C344.266 918.406 350.343 918.09 356.259 917.819C361.257 917.59 367.556 918.329 372.263 916.701C373.336 916.33 374.044 915.416 374.721 914.531C376.317 912.446 377.643 909.857 378.884 907.543C378.201 905.558 377.843 904.141 378.017 902.045C378.039 901.772 378.055 901.498 378.081 901.225C378.097 901.054 378.12 900.883 378.14 900.712C377.989 900.434 377.69 899.742 377.459 899.545ZM687.073 903.884C687.842 906.261 688.413 907.038 690.651 908.174L691.438 908.564C695.345 910.532 691.2 913.167 699.392 912.385C698.753 909.655 695.777 907.606 693.494 906.212C691.578 905.042 689.362 903.865 687.073 903.884ZM383.172 909.632C381.719 913.199 379.955 916.456 377.831 919.67C385.956 928.98 394.01 933.262 406.235 934.942C405.994 930.162 408.77 924.581 410.371 920.154C400.58 917.766 391.906 914.791 383.172 909.632ZM683.479 913.276C682.769 914.559 682.007 915.571 682.287 917.099C683.854 918.833 686.336 918.515 688.197 919.891L687.965 919.439C689.568 920.842 688.866 923.426 690.397 923.992C691.779 922.781 692.898 921.661 693.982 920.175L693.834 919.457C692.994 919.564 692.155 919.676 691.317 919.794C688.93 917.247 686.543 914.999 683.479 913.276ZM368.611 920.677C367.044 920.964 365.202 921.106 363.869 922.024C363.229 923.586 363.734 925.026 364.349 926.52C365.682 929.758 367.547 933.09 369.687 935.864C373.081 940.265 384.065 949.701 384.354 954.573L383.861 955.512C382.604 955.662 382.463 955.588 381.42 954.754C377.353 951.501 374.522 946.655 370.462 943.437C363.978 938.299 346.355 933.698 337.911 931.11C339.196 935.517 340.332 940.042 341.836 944.376C345.353 946.324 348.953 947.865 352.673 949.384C364.029 954.527 375.814 958.54 387.54 962.73C393.775 964.957 399.675 967.532 406.169 969C407.725 959.867 409.106 950.434 408.931 941.146C399.889 939.326 390.077 936.422 382.619 930.725C377.778 927.027 374.862 922.728 368.808 920.682C368.746 920.661 368.677 920.679 368.611 920.677ZM357.064 921.165L355.507 921.948C355.132 923.978 356.882 926.417 357.989 928.028C359.115 929.676 360.376 931.228 361.759 932.667L362.383 932.653C362.357 930.102 360.322 924.287 358.698 922.241C358.225 921.645 357.729 921.446 357.064 921.165ZM342.398 921.906C343.933 924.995 344.985 927.307 348.428 928.584C348.558 928.633 348.692 928.667 348.824 928.708C348.333 926.536 348.108 924.234 346.547 922.557C345.09 921.721 344.006 921.832 342.398 921.906ZM349.542 921.599C350.229 923.325 350.896 925.034 351.484 926.797C351.914 928.089 352.492 929.549 353.755 930.251C354.504 930.667 355.487 930.735 356.316 930.84C355.383 928.364 353.963 922.989 351.246 921.953C350.706 921.747 350.109 921.684 349.542 921.599ZM330.54 923.841C316.918 924.602 303.228 923.545 289.59 924.199C294.762 928.14 302.607 930.615 308.87 932.458C318.553 935.734 327.721 939.757 337.221 943.453C336.762 937.264 335.567 928.718 331.197 924.029L330.54 923.841ZM283.093 926.157C282.343 927.516 281.309 928.9 281.377 930.501C286.509 935.582 387.154 975.55 400.143 978.3C400.937 978.468 401.314 978.686 402.026 979.107C403.361 977.339 404.525 975.611 405.572 973.657C387.714 968.833 370.05 961.261 352.826 954.507C329.483 945.354 306.035 936.284 283.093 926.157Z"/>
	<path fill="#9F8BE8" d="M268.592 0L302.798 0C302.121 20.6819 302.593 41.4822 302.668 62.1794L302.924 161.321L303.056 413.097C303.056 454.898 303.513 496.734 303.1 538.529C301.01 540.991 298.454 543.525 296.851 546.329C292.844 553.339 291.946 566.108 292.353 574.066C292.803 582.866 297.586 584.034 303.446 589.277L303.538 918.252C298.932 918.039 293.988 917.53 289.44 918.425C285.251 919.25 280.536 921.46 278.125 925.137C276.891 927.019 276.426 929.221 277.051 931.409C277.84 934.17 280.449 935.353 282.736 936.682L165.51 991.899C148.125 1000.19 130.631 1008.21 113.319 1016.66L113.008 398.657L113.054 190.691L112.91 119.108C112.87 103.62 112.571 88.0151 113.146 72.5436C121.505 67.0732 135.108 62.1229 144.496 57.6795C172.702 44.4812 200.979 31.4363 229.327 18.5455C241.701 12.8341 257.115 6.79534 268.592 0ZM262.705 41.8932C253.945 46.5301 244.685 50.3058 235.703 54.499L179.329 80.9409C169.9 85.2906 160.156 89.1759 150.854 93.758C149.391 94.4786 147.857 95.2307 146.765 96.4643C145.473 102.731 146.415 110.448 146.46 116.918L146.499 152.452L146.532 313.111L146.862 394.387L146.847 426.026C146.845 431.158 146.571 436.429 146.88 441.549C146.965 442.962 147.043 443.961 147.839 445.186C149.027 445.713 149.33 445.663 150.641 445.536C172.2 436.805 193.111 426.303 214.316 416.759C225.321 411.908 236.273 406.937 247.17 401.848C253.466 398.91 260.277 396.097 266.03 392.187L266.109 156.285L266.224 83.402C266.255 71.5081 267.194 59.0484 266.233 47.2309C266.093 45.517 265.845 43.7048 264.516 42.4852C263.888 41.909 263.502 42.0019 262.705 41.8932ZM263.384 483.945L190.507 517.462C180.547 521.938 170.489 526.189 160.558 530.731C156.142 532.751 151.451 534.623 147.267 537.077L147.179 804.713L147.188 882.245C147.178 895.737 146.785 909.355 147.176 922.836C147.228 924.652 147.231 926.554 148.027 928.216C148.749 928.719 149.029 928.913 149.913 929.096C171.29 920.232 192.218 909.409 213.116 899.44C229.135 891.799 245.701 884.833 261.459 876.704C263.003 875.907 264.567 875.078 265.789 873.826C267.313 866.958 266.153 856.982 266.126 849.838L266.216 805.305L266.147 589.952L266.234 516.62C266.227 507.446 266.784 498.175 266.495 489.02C266.451 487.64 266.45 486.42 265.787 485.173C265.466 484.571 264.856 484.169 264.19 484.004C263.928 483.939 263.653 483.965 263.384 483.945Z"/>
	<path fill="#FEFEFE" d="M307.907 0L526.07 0L526.129 113.908C526.215 148.411 526.666 182.969 526.131 217.466C522.971 212.714 519.848 207.848 516.188 203.463C515.064 202.117 510.667 197.809 510.207 196.536C509.768 195.32 510.465 193.128 510.045 191.709C508.977 188.107 505.289 184.437 502.117 182.595C495.05 178.49 489.226 180.215 481.892 182.122C477.051 170.279 469.695 158.564 460.844 149.315C445.936 133.737 424.45 121.977 402.519 121.674C383.757 121.415 366.663 129.842 353.4 142.758C345.467 150.536 339.252 159.892 335.158 170.22C333.678 174.035 332.604 178.026 330.978 181.783C329.015 186.319 325.81 190.866 325.858 195.963C325.946 205.387 334.193 211.019 340.75 216.162C343.285 218.15 345.771 220.369 348.465 222.133C351.811 224.324 355.969 226.037 358.728 228.952C362.516 232.954 356.111 240.806 356.211 245.971C356.246 247.77 356.777 249.33 358.226 250.503C361.278 252.975 366.47 252.946 370.119 252.408C375.621 262.776 383.429 270.689 394.103 275.543C399.18 275.152 404.084 274.376 409.21 274.272C407.759 277.881 406.196 281.793 405.431 285.61C405.372 285.906 405.323 286.205 405.266 286.502C404.659 289.656 405.016 292.549 405.363 295.706C406.749 297.794 407.957 299.317 410.041 300.752C407.829 330.205 406.279 359.645 401.862 388.882C400.409 398.504 394.37 410.932 394.021 419.526C393.881 422.951 396.22 424.897 398.346 427.206C391.456 436.115 383.818 444.335 376.571 452.942C360.23 472.538 343.624 491.912 326.758 511.059C324.048 514.138 323.589 515.367 323.845 519.454C319.407 524.503 313.498 528.656 308.702 533.49C307.904 513.067 308.488 492.449 308.447 472L308.517 343.894L307.907 0Z"/>
	<path fill="#9F8BE8" d="M531.986 0L544.486 0L544.543 226.596C540.771 223.035 536.967 221.084 532.107 219.52C531.645 194.544 532.101 169.472 532.064 144.488L531.986 0Z"/>
	<path fill="#9F8BE8" d="M550.107 0L590.085 0L590.499 272.245C580.349 259.624 562.332 242.162 550.117 231.266C549.18 204.284 550.141 176.995 550.12 149.978L550.107 0Z"/>
	<path fill="#020202" d="M150.641 445.536C149.33 445.663 149.027 445.713 147.839 445.186C147.043 443.961 146.965 442.962 146.88 441.549C146.571 436.429 146.845 431.158 146.847 426.026L146.862 394.387L146.532 313.111L146.499 152.452L146.46 116.918C146.415 110.448 145.473 102.731 146.765 96.4643C147.857 95.2307 149.391 94.4786 150.854 93.758C160.156 89.1759 169.9 85.2906 179.329 80.9409L235.703 54.499C244.685 50.3058 253.945 46.5301 262.705 41.8932C263.502 42.0019 263.888 41.909 264.516 42.4852C265.845 43.7048 266.093 45.517 266.233 47.2309C267.194 59.0484 266.255 71.5081 266.224 83.402L266.109 156.285L266.03 392.187C260.277 396.097 253.466 398.91 247.17 401.848C236.273 406.937 225.321 411.908 214.316 416.759C193.111 426.303 172.2 436.805 150.641 445.536ZM250.959 77.9949C251.034 69.7815 251.012 61.5674 250.894 53.3545C226.729 64.7806 202.481 76.0293 178.152 87.0997C169.342 91.1868 160.304 94.934 151.626 99.279C152.463 162.76 151.185 226.272 152.005 289.747C151.219 300.003 151.555 310.461 151.534 320.745C151.5 337.515 151.45 354.254 152.056 371.017C151.318 390.228 151.869 409.817 152.116 429.053L211.906 402.405C224.989 396.643 238.351 391.345 250.979 384.621C250.476 351.234 250.349 317.841 250.597 284.451L250.984 158.863C251.551 132.025 251.568 104.832 250.959 77.9949ZM257.896 49.0986C256.573 50.3566 256.019 50.6487 255.994 52.6586C255.659 79.7923 256.329 107.027 256.373 134.171L256.002 269.131L255.946 346.314C255.964 360.18 255.089 374.614 256.634 388.374C243.676 395.048 154.644 432.908 152.206 436.279L152.265 437.801L152.924 438.386C171.68 431.255 189.743 421.853 208.031 413.597C219.673 408.366 231.285 403.066 242.865 397.697C248.671 394.99 255.043 392.382 260.539 389.099C259.99 359.243 260.532 329.309 260.562 299.445L260.468 146.25L260.456 82.8413C260.476 71.9289 261.195 60.622 260.374 49.7732C259.404 49.2358 258.973 49.2013 257.896 49.0986Z"/>
	<path fill="#FEFEFE" d="M256.634 388.374C255.089 374.614 255.964 360.18 255.946 346.314L256.002 269.131L256.373 134.171C256.329 107.027 255.659 79.7923 255.994 52.6586C256.019 50.6487 256.573 50.3566 257.896 49.0986C258.973 49.2013 259.404 49.2358 260.374 49.7732C261.195 60.622 260.476 71.9289 260.456 82.8413L260.468 146.25L260.562 299.445C260.532 329.309 259.99 359.243 260.539 389.099C255.043 392.382 248.671 394.99 242.865 397.697C231.285 403.066 219.673 408.366 208.031 413.597C189.743 421.853 171.68 431.255 152.924 438.386L152.265 437.801L152.206 436.279C154.644 432.908 243.676 395.048 256.634 388.374Z"/>
	<path fill="#9F8BE8" d="M250.959 77.9949C243.044 93.7277 236.289 110.255 228.805 126.221L180.344 229.698C176.526 238.064 172.672 246.426 168.966 254.841C164.969 263.918 157.665 282.899 152.005 289.747C151.185 226.272 152.463 162.76 151.626 99.279C160.304 94.934 169.342 91.1868 178.152 87.0997C202.481 76.0293 226.729 64.7806 250.894 53.3545C251.012 61.5674 251.034 69.7815 250.959 77.9949Z"/>
	<path fill="#FEFEFE" d="M152.005 289.747C157.665 282.899 164.969 263.918 168.966 254.841C172.672 246.426 176.526 238.064 180.344 229.698L228.805 126.221C236.289 110.255 243.044 93.7277 250.959 77.9949C251.568 104.832 251.551 132.025 250.984 158.863C247.408 164.204 244.91 170.722 242.156 176.54L223.902 215.995C207.809 250.616 190.79 284.9 175.443 319.856C170.346 331.467 164.968 342.944 159.758 354.503C157.471 359.578 155.273 366.571 152.056 371.017C151.45 354.254 151.5 337.515 151.534 320.745C151.555 310.461 151.219 300.003 152.005 289.747Z"/>
	<path fill="#321A4D" d="M389.328 216.679C372.487 210.558 355.037 219.925 337.514 206.616C334.474 204.307 331.005 201.126 330.582 197.11C330.095 192.488 333.415 188.172 335.112 184.037C339.682 172.906 342.247 163.928 349.863 154.058C361.293 139.245 377.012 129.592 395.611 127.178C405.116 125.964 415.358 127.801 424.305 131.059C450.544 140.613 466.472 160.633 477.899 185.304C471.673 190.7 466.43 197.232 461.165 203.54C452.952 213.28 444.944 223.192 437.148 233.269C433.56 237.917 430.293 242.925 426.608 247.465C425.699 248.584 425.143 249.164 423.736 249.483C422.827 249.15 422.368 248.91 421.721 248.153C416.913 242.527 417.388 228.864 417.668 221.883C419.581 219.577 421.635 217.64 423.346 215.135C423.726 214.324 424.067 213.495 424.368 212.651C425.878 208.298 425.39 202.838 423.205 198.794C421.516 195.667 418.822 193.059 415.349 192.067C411.464 190.957 408.866 192.171 405.52 194.035C403.755 197.111 403.337 200.248 402.839 203.697C403.731 205.193 404.694 206.651 405.632 208.119C400.378 211.54 395.055 214.175 389.328 216.679Z"/>
	<path fill="#9F8BE8" d="M152.056 371.017C155.273 366.571 157.471 359.578 159.758 354.503C164.968 342.944 170.346 331.467 175.443 319.856C190.79 284.9 207.809 250.616 223.902 215.995L242.156 176.54C244.91 170.722 247.408 164.204 250.984 158.863L250.597 284.451C250.349 317.841 250.476 351.234 250.979 384.621C238.351 391.345 224.989 396.643 211.906 402.405L152.116 429.053C151.869 409.817 151.318 390.228 152.056 371.017Z"/>
	<path fill="#9F8BE8" d="M416.036 282.879C414.101 286.239 411.862 289.303 411.824 293.304C411.822 293.498 411.827 293.692 411.828 293.885L410.69 294.219L411.284 294.325C411.08 294.054 410.838 293.807 410.67 293.513C408.897 290.399 410.995 284.384 412.125 281.294C413.621 277.159 415.498 273.172 417.732 269.384C427.327 253.33 439.799 238.434 451.427 223.813C459.499 213.665 467.548 202.649 476.942 193.71C480.471 190.351 484.131 187.568 488.56 185.513C490.38 185.463 492.29 185.338 494.102 185.554C499.366 186.179 502.918 189.971 505.953 193.938C499.593 199.585 492.155 203.992 485.597 209.416C469.467 222.755 454.642 236.936 440.333 252.191C435.489 257.355 430.298 262.434 425.938 268.018C422.261 272.727 419.152 277.793 416.036 282.879Z"/>
	<path fill="#9F8BE8" d="M382.643 260.65C380.701 258.412 375.934 254.014 375.866 251.119C375.842 250.095 375.757 249.603 375.404 248.656C372.286 245.844 368.565 248.408 364.836 247.717C363.091 247.394 362.015 246.504 360.976 245.085C360.774 241.617 363.295 236.606 364.689 233.4C365.38 231.81 365.907 230.67 367.565 230.008L367.993 230.232C369.156 231.687 368.787 233.719 369.418 235.39C369.693 236.116 370.081 236.682 370.823 236.914C372.234 237.355 373.451 236.826 374.662 236.121C374.657 235.721 374.642 235.102 374.672 234.72C374.904 231.738 380.118 230.712 382.339 229.139C384.883 227.336 386.319 224.256 388.948 222.545C395.667 218.172 404.289 216.465 410.344 210.908C410.966 208.006 407.303 204.698 407.775 201.313C408.106 198.93 409.484 197.832 411.176 196.301C412.991 196.594 414.542 197.086 415.971 198.288C418.278 200.23 419.752 203.362 420.031 206.339C420.965 216.293 414.213 213.912 411.352 217.32C411.771 217.905 412.313 218.584 412.579 219.252C413.859 222.474 410.543 231.111 409.493 234.442C410.168 236.401 411.002 235.178 412.014 236.248C415.127 239.541 412.189 246.368 421.663 254.246C418.355 259.186 414.984 264.084 411.55 268.939C406.704 269.265 401.328 270.2 396.528 269.855C390.108 269.394 386.615 265.114 382.643 260.65Z"/>
	<path fill="#9F8BE8" d="M437.055 263.433C444.649 255.369 451.901 247.061 459.859 239.335C474.291 225.325 489.937 213.021 505.982 200.936C512.553 204.816 520.688 217.746 522.558 224.992C516.273 228.785 509.13 231.754 502.502 234.936C485.419 243.123 468.103 250.813 450.575 257.996C446.032 259.733 441.507 261.47 437.055 263.433Z"/>
	<path fill="#9F8BE8" d="M365.147 223.1C358.818 223.146 355.264 221.459 349.748 218.515C353.945 218.654 358.064 220.101 362.261 220.413C369.374 220.941 376.756 220.453 383.909 220.539C382.55 221.821 381.005 222.914 379.517 224.042C376.931 225.766 374.283 227.353 371.604 228.929C369.247 227.099 367.15 225.319 365.147 223.1Z"/>
	<path fill="#9F8BE8" d="M469.251 256.914C481.369 248.767 521.322 234.99 527.472 226.72C527.693 226.81 527.932 226.865 528.136 226.99C534.311 230.793 554.864 300.244 558.605 312.32C560.754 319.256 563.38 326.054 565.032 333.133C555.235 323.257 544.761 313.761 534.52 304.332C514.694 287.2 492.918 268.485 469.251 256.914Z"/>
	<path fill="#9F8BE8" d="M578.779 324.871C577.393 320.004 576.464 314.969 575.203 310.062C573.022 301.578 570.482 293.117 567.908 284.743C563.902 271.705 558.645 258.733 553.952 245.917C566.306 256.152 585.758 301.062 592.088 316.923L587.283 319.305C584.396 321.084 581.591 322.979 578.779 324.871Z"/>
	<path fill="#9F8BE8" d="M597.084 315.234C592.107 298.265 578.168 271.863 568.404 256.88C572.113 258.751 583.746 272.124 587.295 275.88C596.187 285.29 618.993 306.791 623.808 318.417C615.002 314.504 606.576 313.481 597.084 315.234Z"/>
	<path fill="#9F8BE8" d="M402.904 430.124C404.721 431.185 406.848 432.643 408.953 432.957C410.197 433.142 410.826 433.162 411.867 432.391C412.529 426.176 401.651 424.363 399.86 420.918C399.124 419.501 399.211 418.012 399.529 416.484C400.148 413.508 401.624 410.619 402.607 407.74C404.328 402.709 405.625 397.464 406.635 392.247C410.083 374.416 411.544 355.799 412.785 337.692C413.716 324.093 413.363 304.712 417.853 291.992C420.001 285.905 424.852 276.88 430.387 273.315C434.28 270.808 439.183 269.038 443.384 266.992C452.567 269.72 460.836 273.081 469.113 277.912C496.368 293.818 522.869 316.798 545.796 338.473C551.322 343.698 557.872 348.917 561.819 355.481C554.358 378.51 558.098 402.288 563.056 425.329C565.066 434.67 567.226 444.072 570.32 453.122C538.616 433.948 509.787 408.838 485.417 380.986C485.81 371.658 488.581 362.036 489.708 352.696C490.362 347.27 493.243 330.35 490.306 326.615C489.074 326.36 489.131 326.385 488.039 327.024C487.293 328.224 486.834 329.287 486.607 330.694C486.105 333.811 486.195 337.125 485.869 340.282C485.249 346.288 484.357 352.29 483.516 358.269C481.555 372.205 478.927 385.91 476.423 399.748C474.147 412.326 472.205 424.486 468.969 436.896C468.19 439.5 467.341 442.082 466.425 444.64C463.401 453.193 459.128 461.342 453.089 468.17C446.817 475.262 439.013 481.241 431.727 487.248C414.395 501.534 396.507 514.709 378.454 528.034C370.656 533.79 361.691 541.94 353.104 546.048C342.747 538.509 335.618 528.26 329.317 517.301C335.151 509.331 342.161 501.985 348.604 494.495L381.428 455.651C388.612 447.18 396.266 439.04 402.904 430.124Z"/>
	<path fill="#55337D" d="M569.308 430.631C566.594 420.489 564.861 409.027 563.631 398.592C561.069 376.86 564.091 351.458 578.117 333.869C584.618 325.717 592.744 320.8 603.144 319.681C614.47 318.726 624.286 323.824 633.678 329.471C632.445 329.798 631.216 330.134 629.989 330.48C615.49 334.59 604.661 344.2 597.431 357.32C588.414 373.681 587.663 392.185 592.864 409.89C590.201 412.584 587.462 415.167 584.666 417.723C579.786 422.222 574.766 426.836 569.308 430.631Z"/>
	<path fill="#55337D" d="M632.743 426.318C631.713 426.643 630.681 426.915 629.628 427.156C622.598 428.769 614.743 427.515 608.681 423.567C601.483 418.879 598.14 411.201 596.362 403.123C592.831 387.074 595.095 370.156 604.012 356.24C611.454 344.625 621.839 337.571 635.232 334.567C638.079 334.453 640.167 334.834 642.637 336.323C654.591 343.532 670.32 374.307 673.722 387.629C673.601 387.925 673.486 388.222 673.361 388.516C667.47 402.34 646.856 420.82 632.743 426.318Z"/>
	<path fill="#55337D" d="M594.908 415.442C596.918 419.931 599.687 423.546 603.623 426.488C610.816 431.866 620.386 433.697 629.174 432.319C646.378 429.62 662.845 412.329 672.723 398.907C676.967 406.21 681.95 421.685 683.036 429.864C684.351 439.771 678.042 449.586 672.246 457.094C657.305 476.447 629.37 503.754 604.606 506.87C595.386 502.992 590.168 493.816 586.243 485.102C580.55 469.126 574.935 453.372 570.665 436.937C578.552 429.742 586.596 422.101 594.908 415.442Z"/>
	<path fill="#9F8BE8" d="M453.786 475.723C457.26 471.068 461.045 466.847 464.155 461.888C474.642 445.161 477.556 424.957 481.014 405.868C484.011 408.403 486.732 411.66 489.504 414.477C495.453 420.523 501.551 426.62 507.996 432.135C524.397 446.169 542.332 458.809 560.624 470.225C566.452 473.862 572.706 476.744 578.501 480.46C580.219 484.508 581.78 488.603 583.787 492.522C587.515 499.806 593.286 508.135 601.536 510.572C610.16 513.12 618.298 508.715 625.728 504.896C627.174 511.676 630.634 521.988 628.906 528.702C618.78 536.853 604.102 542.989 592.658 549.396C579.586 556.715 567.026 564.957 554.033 572.437C532.412 584.714 507.238 598.517 483.908 606.977C470.78 611.738 457.096 615.101 443.545 618.432C444.646 607.211 444.471 595.849 445.146 584.594C446.708 559.092 448.573 533.609 450.739 508.151C451.702 497.34 452.405 486.491 453.786 475.723Z"/>
	<path fill="#020202" d="M147.267 537.077C151.451 534.623 156.142 532.751 160.558 530.731C170.489 526.189 180.547 521.938 190.507 517.462L263.384 483.945C263.653 483.965 263.928 483.939 264.19 484.004C264.856 484.169 265.466 484.571 265.787 485.173C266.45 486.42 266.451 487.64 266.495 489.02C266.784 498.175 266.227 507.446 266.234 516.62L266.147 589.952L266.216 805.305L266.126 849.838C266.153 856.982 267.313 866.958 265.789 873.826C264.567 875.078 263.003 875.907 261.459 876.704C245.701 884.833 229.135 891.799 213.116 899.44C192.218 909.409 171.29 920.232 149.913 929.096C149.029 928.913 148.749 928.719 148.027 928.216C147.231 926.554 147.228 924.652 147.176 922.836C146.785 909.355 147.178 895.737 147.188 882.245L147.179 804.713L147.267 537.077ZM251.054 557.875C251.485 537.206 251.238 516.469 251.106 495.795L189.101 524.154C176.864 529.629 164.121 534.472 152.24 540.669L152.378 694.322C152.378 718.254 151.869 742.301 152.393 766.223C151.366 774.651 151.943 783.675 151.937 792.185C151.928 804.613 151.511 817.335 152.446 829.727C152.033 839.743 152.376 849.888 152.393 859.917L152.316 912.593C174.997 902.438 197.449 891.577 219.926 880.971C230.282 876.085 240.588 870.946 251.121 866.457L250.93 621.782C252.094 600.805 251.192 578.926 251.054 557.875ZM259.286 491.867C258.012 492.59 256.917 492.903 256.487 494.47C255.737 497.203 256.428 513.423 256.42 517.322L256.277 594.141L256.182 778.329L256.097 837.872C256.116 847.111 255.612 856.525 256.271 865.735C257.387 866.509 258.416 867.009 259.654 867.541L260.5 867.009C261.206 855.187 260.622 842.998 260.639 831.138C260.793 809.735 260.83 788.332 260.751 766.929L260.532 590.633L260.612 524.8C260.633 518.669 261.76 496.498 260.349 492.173L259.286 491.867ZM254.303 870.974L184.442 903.613C177.614 906.781 170.76 909.891 163.881 912.944C160.813 914.314 157.206 915.522 154.314 917.188C153.136 917.868 152.768 918.455 152.263 919.678L152.625 921.692C153.73 921.644 153.236 921.792 154.124 921.31C176.55 911.228 198.576 900.333 220.802 889.826C231.091 884.962 241.762 880.827 251.913 875.687C253.56 874.853 255.13 874.012 256.392 872.64L256.274 871.816C255.576 871.425 255.1 871.112 254.303 870.974Z"/>
	<path fill="#FEFEFE" d="M354.653 552.251C361.362 548.477 367.489 543.071 373.721 538.546C395.359 522.835 416.026 505.985 437.025 489.451L437.491 490.049C437.087 501.418 434.641 514.991 433.383 526.623C426.999 585.637 414.889 643.601 406.211 702.244C405.312 708.32 404.381 714.468 403.963 720.598C403.557 726.552 403.767 732.548 403.56 738.512C403.341 744.825 402.706 751.142 402.052 757.424C399.209 784.731 394.085 811.939 389.252 838.955C386.075 856.71 383.569 874.777 379.144 892.278C364.974 898.877 350.829 905.436 336.529 911.746C331.24 914.079 325.149 917.601 319.521 918.854C316.422 919.544 312.416 918.652 309.272 918.297C309.173 913.573 309.101 908.849 309.056 904.125L309.178 701.484L309.089 632.509C309.009 619.782 307.934 604.539 309.22 592.065C312.632 593.914 320.937 599.92 324.698 599.368C326.777 599.064 328.56 597.12 329.677 595.474C330.901 593.67 332.255 592.005 333.622 590.31C332.347 585.625 330.269 582.402 327.528 578.437C330.955 565.893 336.806 556.733 345.972 547.818C348.818 549.606 351.485 551.108 354.653 552.251Z"/>
	<path fill="#FEFEFE" d="M259.654 867.541C258.416 867.009 257.387 866.509 256.271 865.735C255.612 856.525 256.116 847.111 256.097 837.872L256.182 778.329L256.277 594.141L256.42 517.322C256.428 513.423 255.737 497.203 256.487 494.47C256.917 492.903 258.012 492.59 259.286 491.867L260.349 492.173C261.76 496.498 260.633 518.669 260.612 524.8L260.532 590.633L260.751 766.929C260.83 788.332 260.793 809.735 260.639 831.138C260.622 842.998 261.206 855.187 260.5 867.009L259.654 867.541Z"/>
	<path fill="#55337D" d="M382.705 903.194C385.052 889.472 388.047 875.936 390.662 862.273C395.691 835.997 400.574 809.289 404.119 782.765C406.031 769.398 407.5 755.971 408.521 742.507C409.351 729.926 409.277 717.434 411.065 704.916C414.709 679.404 419.575 654.034 423.979 628.645C427.893 605.05 431.63 581.425 435.189 557.774C438.016 538.441 438.543 518.921 441.066 499.599C441.577 495.688 442.825 494.369 445.927 491.994C446.441 492.564 446.333 492.941 446.323 493.732C446.15 507.284 444.232 521.203 443.091 534.713C440.944 560.143 438.922 586.066 438.453 611.567C438.396 614.666 437.863 621.579 440.074 623.883C445.477 624.765 453.018 621.854 458.319 620.429C482.084 614.044 501.566 606.337 523.361 594.997C531.972 590.517 540.297 585.504 548.947 581.097C541.653 591.538 535.772 603.407 529.632 614.569C523.146 626.359 516.5 638.117 510.478 650.15C505.839 659.419 501.702 668.949 497.281 678.325C489.421 694.994 480.962 711.945 476.845 730.025C473.258 745.778 473.063 761.987 470.844 777.931C468.152 797.265 460.942 814.304 453.488 832.158C445.801 851.998 435.825 870.925 426.833 890.177C423.163 898.035 419.859 908.347 415.055 915.386C403.045 914.231 392.493 910.185 382.705 903.194Z"/>
	<path fill="#9F8BE8" d="M251.054 557.875C247.282 564.108 244.493 571.343 241.43 577.981L224.386 614.854L174.602 720.789C169.029 732.831 160.033 757.215 152.393 766.223C151.869 742.301 152.378 718.254 152.378 694.322L152.24 540.669C164.121 534.472 176.864 529.629 189.101 524.154L251.106 495.795C251.238 516.469 251.485 537.206 251.054 557.875Z"/>
	<path fill="#FEFEFE" d="M727.705 681.238C726.921 681.327 727.387 681.349 726.343 680.92C720.997 672.626 716.409 663.73 711.475 655.17C702.05 639.076 692.719 622.927 683.482 606.724L652.506 552.999C646.79 542.945 635.566 526.938 633.55 515.942C633.959 516.353 634.09 516.461 634.473 516.994C642.339 527.945 728.001 678.281 728.023 679.233C728.038 679.91 727.811 680.57 727.705 681.238Z"/>
	<path fill="#9F8BE8" d="M303.343 569.359C303.642 566.505 305.903 561.46 303.999 558.964C303.657 558.517 303.191 558.192 302.753 557.853C301.345 558.04 301.105 558.516 300.092 559.471C299.796 553.071 301.766 548.017 306.033 543.288C312.119 536.543 319.711 531.156 326.034 524.612C331.022 531.268 335.959 538.046 341.535 544.227C332.489 553.387 324.296 565.782 322.635 578.814C322.624 578.901 322.607 578.987 322.594 579.074C322.331 577.541 322.403 577.159 321.288 576.012C320.063 576.369 320.239 576.472 319.558 577.46C319.334 574.602 319.99 571.455 319.189 568.672C318.81 567.36 318.408 566.951 317.243 566.321C316.466 566.475 315.901 566.41 315.337 567.03C313.632 568.906 314.01 572.843 313.961 575.258C313.003 576.487 313.668 579.106 313.619 580.771L312.346 580.674C311.886 579.175 311.423 577.683 311.038 576.163L310.939 579.751C310.252 576.52 310.437 573.285 310.56 570.009C310.648 567.662 311.063 564.549 309.353 562.706C308.108 562.373 308.024 562.377 306.814 562.821C305.154 564.896 305.414 568.014 305.256 570.605C304.857 570.159 305.076 570.439 304.626 569.629L304.243 568.928L303.343 569.359Z"/>
	<path fill="#9F8BE8" d="M609.845 545.689C618.26 541.648 627.121 537.926 633.631 531.021C643.241 545.336 650.952 561.251 659.385 576.282C665.872 587.845 673.086 598.982 679.603 610.533C686.874 623.453 694.256 636.309 701.749 649.101C708.82 661.405 715.707 673.717 723.605 685.516C721.293 689.351 718.88 693.213 717.009 697.286C714.224 703.349 712.092 709.608 708.467 715.264L705.536 710.135C697.463 695.108 688.508 680.541 679.958 665.779L639.396 595.968C629.557 579.385 618.472 562.915 609.845 545.689Z"/>
	<path fill="#FEFEFE" d="M705.69 724.89C705.441 724.742 705.172 724.625 704.944 724.448C703.97 723.694 612.995 568.233 605.352 554.272C604.369 552.476 603.567 550.883 603.585 548.802C606.149 549.951 607.693 552.781 609.152 555.084C615.857 565.666 621.872 576.801 628.2 587.622L669.418 658.291C678.277 673.27 687.035 688.307 695.693 703.402C698.95 708.993 703.306 714.689 705.96 720.518C706.658 722.054 706.19 723.384 705.69 724.89Z"/>
	<path fill="#55337D" d="M556.738 577.402C569.657 569.368 582.521 560.77 595.867 553.483C596.558 555.358 594.236 567.9 593.441 570.253L593.189 570.982C589.806 581.06 588.503 603.407 589.198 614C590.822 638.775 600.743 684.003 614.848 704.458C621.45 714.032 630.398 721.739 638.432 730.07C646.927 738.881 654.704 748.357 661.687 758.409C674.665 776.959 685.392 797.581 696.035 817.525C700.879 826.602 706.191 835.459 710.758 844.677C705.894 848.552 701.602 853.282 696.873 857.349C691.193 862.232 684.934 866.374 678.716 870.53C671.132 863.574 664.924 855.458 658.755 847.271C644.453 827.434 632.629 809.698 615.598 791.625C598.436 773.414 578.008 758.245 560.722 740.107C545.485 724.12 532.63 696.997 523.126 677.059C519.928 670.351 516.373 663.554 513.959 656.519C518.056 646.842 523.205 637.734 528.227 628.52C533.044 619.549 537.973 610.639 543.012 601.79C547.712 593.708 552.678 585.837 556.738 577.402Z"/>
	<path fill="#FEFEFE" d="M152.393 766.223C160.033 757.215 169.029 732.831 174.602 720.789L224.386 614.854L241.43 577.981C244.493 571.343 247.282 564.108 251.054 557.875C251.192 578.926 252.094 600.805 250.93 621.782C240.178 642.466 230.906 663.669 220.888 684.674C208.336 710.992 195.235 737.111 183.095 763.619L161.09 811.296C158.398 817.054 156.002 824.556 152.446 829.727C151.511 817.335 151.928 804.613 151.937 792.185C151.943 783.675 151.366 774.651 152.393 766.223Z"/>
	<path fill="#9F8BE8" d="M750.03 836.529C737.751 836.696 725.312 836.421 713.057 836.992C705.092 821.968 696.902 807.065 688.49 792.288C678.743 775.082 669.037 758.216 656.719 742.672C649.627 733.722 641.51 725.624 633.569 717.439C628.745 712.467 623.563 707.622 619.644 701.877C609.276 686.678 599.986 653.119 598.212 634.726C597.622 628.609 599.027 621.408 599.227 615.154C599.789 597.622 598.474 575.512 601.534 558.62C611.267 576.127 621.964 593.11 632.058 610.412L681.259 695.448C688.21 707.33 696.045 718.865 702.68 730.89C702.035 732.465 701.504 734.053 701.032 735.688C700.104 738.905 699.007 742.58 700.026 745.897C701.071 749.3 703.433 752.758 705.136 755.904C709.663 764.269 714.288 772.526 718.998 780.79C729.45 799.309 739.795 817.889 750.03 836.529Z"/>
	<path fill="#FBC8FE" d="M305.256 570.605C304.915 574.531 305.394 578.509 305.166 582.481L305.121 582.225L303.83 582.043C303.035 577.626 302.891 573.825 303.343 569.359L304.243 568.928L304.626 569.629C305.076 570.439 304.857 570.159 305.256 570.605Z"/>
	<path fill="#FEFEFE" d="M310.939 579.751L311.038 576.163C311.423 577.683 311.886 579.175 312.346 580.674L313.619 580.771C313.668 579.106 313.003 576.487 313.961 575.258C315.199 582.245 316.988 587.139 321.457 592.758C317.316 590.498 313.247 587.936 311.719 583.171C311.376 582.099 311.054 580.873 310.939 579.751Z"/>
	<path fill="#FBC8FE" d="M319.558 577.46C320.239 576.472 320.063 576.369 321.288 576.012C322.403 577.159 322.331 577.541 322.594 579.074C324.222 583.458 327.05 587.436 329.04 591.702C323.782 587.996 321.346 583.531 319.558 577.46Z"/>
	<path fill="#9F8BE8" d="M152.446 829.727C156.002 824.556 158.398 817.054 161.09 811.296L183.095 763.619C195.235 737.111 208.336 710.992 220.888 684.674C230.906 663.669 240.178 642.466 250.93 621.782L251.121 866.457C240.588 870.946 230.282 876.085 219.926 880.971C197.449 891.577 174.997 902.438 152.316 912.593L152.393 859.917C152.376 849.888 152.033 839.743 152.446 829.727Z"/>
	<path fill="#9F8BE8" d="M735.826 677.52L734.836 678.031C734.805 674.803 738.253 667.521 739.889 664.499C741.362 661.78 743.538 659.592 746.177 657.991C751.896 654.523 758.888 652.15 765.057 649.564C773.076 646.203 781.018 642.65 789.008 639.218C795.67 636.384 802.311 633.503 808.931 630.575C813.686 628.466 818.46 626.012 823.446 624.538C824.537 624.528 824.781 624.347 825.71 624.987C826.477 630.715 821.331 637.498 819.649 642.904L819.462 643.526C802.722 649.898 786.042 656.656 769.418 663.331C758.203 667.834 746.587 672.019 735.826 677.52Z"/>
	<path fill="#9F8BE8" d="M827.285 639.163C828.609 634.611 829.594 630.029 831.492 625.664C834.142 626.836 836.539 628.513 838.548 630.601C847.32 639.589 858.549 659.544 866.006 670.872C867.153 672.615 867.686 675.299 868.973 676.666C877.301 685.517 883.229 697.86 889.926 708.073C903.308 728.481 916.576 749.098 929.522 769.787C938.72 784.485 947.549 799.515 957.3 813.852C956.383 819.679 954.854 825.452 953.527 831.198L952.955 831.174C946.691 822.016 941.349 812.129 935.272 802.819L870.773 703.624C861.962 690.099 852.645 676.778 843.449 663.505C837.941 655.556 831.953 647.635 827.285 639.163Z"/>
	<path fill="#9F8BE8" d="M728.874 686.27C741.152 680.117 753.673 675.339 766.413 670.241L815.993 650.467L817.276 650.443L817.739 650.986C812.703 668.893 808.728 687.127 802.46 704.652C789.37 710.355 775.881 714.973 762.602 720.186C743.861 727.543 725.278 735.369 706.272 742.028L705.207 741.784C704.075 737.148 725.483 692.626 728.874 686.27ZM785.797 669.398C784.586 670.739 783.361 672.108 781.83 673.093C774.163 678.024 764.538 681.277 756.138 684.787C747.831 688.258 739.42 692.291 730.806 694.919C731.108 697.302 731.146 700.299 732.994 702.064C734.699 703.692 737.514 703.852 739.729 704.182C747.965 701.939 756.021 697.381 763.89 694.022C771.947 690.582 780.856 687.7 788.552 683.571C790.277 682.646 791.67 681.689 792.715 680C793.754 678.32 794.175 676.564 793.675 674.616C793.205 672.789 791.587 671.238 789.938 670.441C788.667 669.827 787.194 669.546 785.797 669.398Z"/>
	<path fill="#9F8BE8" d="M818.522 669.529C819.469 663.685 821.308 657.959 823.107 652.33C827.485 656.238 831.092 662.533 834.475 667.362C847.146 685.589 859.282 704.18 870.869 723.114C881.994 740.925 893.909 758.222 905.019 776.035C915.383 792.8 925.884 809.479 936.521 826.073C941.132 833.35 945.406 840.876 950.29 847.971C948.32 854.41 946.787 860.967 945.181 867.503C940.578 862.664 937.069 855.607 933.552 849.887C927.385 839.776 921.137 829.714 914.809 819.702L818.522 669.529Z"/>
	<path fill="#FEFEFE" d="M449.568 853.621C461.634 827.213 472.343 804.439 476.33 775.356C478.294 761.028 478.047 746.083 481.68 732.059C487.934 707.924 499.692 685.302 510.204 662.824C510.322 662.927 510.452 663.018 510.559 663.132C511.476 664.113 525.854 695.491 526.131 697.3C527.326 705.123 526.042 722.815 526.011 731.706L525.701 817.381L462.133 847.504C457.917 849.478 453.752 851.577 449.568 853.621Z"/>
	<path fill="#020202" d="M730.806 694.919C739.42 692.291 747.831 688.258 756.138 684.787C764.538 681.277 774.163 678.024 781.83 673.093C783.361 672.108 784.586 670.739 785.797 669.398C787.194 669.546 788.667 669.827 789.938 670.441C791.587 671.238 793.205 672.789 793.675 674.616C794.175 676.564 793.754 678.32 792.715 680C791.67 681.689 790.277 682.646 788.552 683.571C780.856 687.7 771.947 690.582 763.89 694.022C756.021 697.381 747.965 701.939 739.729 704.182C737.514 703.852 734.699 703.692 732.994 702.064C731.146 700.299 731.108 697.302 730.806 694.919Z"/>
	<path fill="#9F8BE8" d="M808.907 703.516L809.154 702.866C811.537 696.745 812.846 690.289 814.541 683.954C819.102 687.96 831.523 708.911 835.941 715.73L908.93 830.385C914.033 838.448 937.668 879.491 941.866 882.459C941.99 882.546 942.12 882.624 942.247 882.706C942.384 886.635 937.786 901.208 936.667 906.382C934.576 905.047 918.052 877.178 915.168 872.506C888.215 828.851 860.092 785.872 832.785 742.429C826.747 732.822 811.725 712.41 808.907 703.516Z"/>
	<path fill="#9F8BE8" d="M532.005 814.753C531.502 779.286 531.578 743.656 532.022 708.191C534.548 709.66 543.539 726.706 546.06 730.664C545.286 739.811 545.778 749.184 545.804 758.365L545.939 807.851L541.711 810.122L532.005 814.753Z"/>
	<path fill="#9F8BE8" d="M706.761 747.472C730.924 739.092 754.524 728.865 778.389 719.657C787.236 716.243 796.243 712.178 805.36 709.595C808.264 712.202 810.808 718.061 812.949 721.443L833.672 754.04L893.65 848.859L914.86 882.419C921.226 892.708 927.235 903.281 934.326 913.097C932.993 915.038 931.458 917.432 929.367 918.607C920.955 923.333 910.723 926.408 901.746 930.033L834.378 956.775C831.459 957.951 828.473 958.963 825.509 960.018C819.538 952.883 815.578 943.539 811.03 935.463C800.086 916.058 789.298 896.566 778.667 876.989L738.229 804.248C727.602 785.467 716.427 766.764 706.761 747.472Z"/>
	<path fill="#9F8BE8" d="M551.523 805.431C551.332 782.878 551.929 760.307 551.375 737.757C554.717 740.297 557.37 744.571 560.362 747.606C569.182 756.555 579.097 765.946 589.037 773.593C588.458 778.711 588.256 783.89 587.972 789.032C584.729 790.276 581.54 791.76 578.344 793.125C569.353 797.115 560.412 801.217 551.523 805.431Z"/>
	<path fill="#FEFEFE" d="M594.479 778.963L599.778 784.071C598.054 784.941 596.572 785.496 594.67 785.843C594.474 783.566 594.518 781.249 594.479 778.963Z"/>
	<path fill="#9F8BE8" d="M599.778 784.071C615.581 798.919 631.694 816.129 643.205 834.642C638.184 835.42 632.471 834.931 627.383 834.928L597.562 834.928L539.614 835.036C529.415 835.101 519.178 835.481 508.986 835.331C506.894 835.301 505.063 835.096 503.048 834.503C513.693 828.876 525.005 824.197 535.925 819.111C555.272 809.88 574.789 801.01 594.466 792.506C594.593 790.278 594.685 788.076 594.67 785.843C596.572 785.496 598.054 784.941 599.778 784.071Z"/>
	<path fill="#FEFEFE" d="M494.563 838.281C497.286 836.858 500.223 835.722 503.048 834.503C505.063 835.096 506.894 835.301 508.986 835.331C519.178 835.481 529.415 835.101 539.614 835.036L597.562 834.928L627.383 834.928C632.471 834.931 638.184 835.42 643.205 834.642C643.933 835.725 644.728 836.797 645.387 837.921C639.429 839.504 630.024 838.65 623.669 838.707L564.079 838.683C542.024 838.683 519.166 839.954 497.23 838.916C496.223 838.868 495.468 838.754 494.563 838.281Z"/>
	<path fill="#FEFEFE" d="M713.057 836.992C725.312 836.421 737.751 836.696 750.03 836.529L751.95 839.989C744.216 840.072 736.481 840.091 728.747 840.046C724.212 840.037 719.339 839.711 714.854 840.309L713.057 836.992Z"/>
	<path fill="#9F8BE8" d="M645.387 837.921C650.071 844.238 654.161 851.056 659.134 857.143C664.906 864.208 671.564 870.447 677.556 877.313C679.818 875.792 682.057 874.199 684.388 872.787C686.749 875.161 690.511 880.228 690.713 883.685C690.76 884.491 690.145 884.903 689.585 885.419C689.525 885.474 689.445 885.502 689.375 885.544C686.559 884.192 680.081 884.967 676.777 884.975L434.764 886.002C438.72 877.913 442.794 869.859 446.389 861.603C462.24 853.431 478.691 846.426 494.563 838.281C495.468 838.754 496.223 838.868 497.23 838.916C519.166 839.954 542.024 838.683 564.079 838.683L623.669 838.707C630.024 838.65 639.429 839.504 645.387 837.921Z"/>
	<path fill="#9F8BE8" d="M751.95 839.989C759.973 855.134 769.189 869.679 776.742 885.042C772.331 885.02 755.159 884.09 752.615 886.581C748.377 883.238 744.845 878.618 740.794 874.979C729.585 864.908 722.059 862.232 714.248 848.347C714.763 847.425 715.306 846.465 715.68 845.474C716.39 843.593 715.583 842.024 714.854 840.309C719.339 839.711 724.212 840.037 728.747 840.046C736.481 840.091 744.216 840.072 751.95 839.989Z"/>
	<path fill="#FBC8FE" d="M688.933 870.345C695.989 864.32 703.25 858.786 710.049 852.429C712.092 853.999 717.655 863.556 720.403 866.591C716.869 872.533 712.155 877.956 708.055 883.533C705.246 883.566 702.431 883.695 699.623 883.781L697.5 883.862C695.294 882.634 690.757 873.042 688.933 870.345Z"/>
	<path fill="#DAAAFE" d="M154.124 921.31C153.236 921.792 153.73 921.644 152.625 921.692L152.263 919.678C152.768 918.455 153.136 917.868 154.314 917.188C157.206 915.522 160.813 914.314 163.881 912.944C170.76 909.891 177.614 906.781 184.442 903.613L254.303 870.974C255.1 871.112 255.576 871.425 256.274 871.816L256.392 872.64C255.13 874.012 253.56 874.853 251.913 875.687C241.762 880.827 231.091 884.962 220.802 889.826C198.576 900.333 176.55 911.228 154.124 921.31Z"/>
	<path fill="#FEFEFE" d="M433.061 889.936C433.588 888.608 434.185 887.309 434.764 886.002L676.777 884.975C680.081 884.967 686.559 884.192 689.375 885.544L687.692 889.065C653.265 889.087 618.808 888.746 584.385 889.104C533.971 889.627 483.478 890.782 433.061 889.936Z"/>
	<path fill="#FEFEFE" d="M752.615 886.581C755.159 884.09 772.331 885.02 776.742 885.042L778.765 888.828C771.401 889.106 763.849 890.068 756.504 890.001C755.044 889.169 753.819 887.755 752.615 886.581Z"/>
	<path fill="#FEFEFE" d="M946.144 886.477C949.112 886.865 956.022 886.439 957.461 886.843C958.274 887.934 958.055 887.804 957.942 889.061C957.642 889.337 957.414 889.724 957.041 889.889C955.415 890.605 952.986 890.163 951.236 890.458C949.566 890.739 947.851 891.919 946.164 891.831C945.722 891.807 945.522 891.699 945.121 891.548C945.521 889.863 945.848 888.183 946.144 886.477Z"/>
	<path fill="#9F8BE8" d="M433.061 889.936C483.478 890.782 533.971 889.627 584.385 889.104C618.808 888.746 653.265 889.087 687.692 889.065L687.46 889.808C686.752 892.112 686.47 894.009 686.437 896.439C686.418 897.838 686.396 898.847 685.423 899.968C685.299 900.111 685.141 900.222 685.001 900.351C681.686 903.399 678.034 915.346 676.916 919.915L673.66 923.006C672.294 930.686 670.226 935.609 663.695 940.352C663.168 940.735 662.627 941.029 662.052 941.333C659.918 939.566 657.202 939.997 654.608 940.049C636.262 938.524 617.833 938.979 599.44 939.054L520.159 939.826C484.598 940.375 448.925 939.142 413.387 940.175C412.767 937.802 411.831 936.553 410.215 934.751C411.756 930.168 413.589 925.658 415.304 921.136C415.337 921.118 415.368 921.098 415.401 921.081C416.706 920.411 418.151 919.77 419.141 918.654C423.044 914.253 430.26 896.263 433.061 889.936Z"/>
	<path fill="#FEFEFE" d="M694.384 952.594C711.981 931.363 731.978 912.271 749.827 891.268C751.209 891.803 752.428 893.361 753.473 894.419C748.538 901.553 741.645 907.969 735.701 914.278C728.215 922.223 721.05 930.457 713.504 938.349C707.665 944.455 701.362 950.225 695.749 956.511C681.726 956.835 668.447 956.814 654.519 954.867C653.692 954.715 652.586 954.614 651.827 954.269C650.647 953.734 650.617 953.357 650.317 952.225C650.809 951.027 650.807 951.091 651.981 950.524C666.002 952.995 680.201 952.757 694.384 952.594Z"/>
	<path fill="#9F8BE8" d="M337.611 919.465C336.231 919.577 334.722 919.786 333.635 918.88C334.706 917.75 373.405 901.286 377.459 899.545C377.69 899.742 377.989 900.434 378.14 900.712C378.12 900.883 378.097 901.054 378.081 901.225C378.055 901.498 378.039 901.772 378.017 902.045C377.843 904.141 378.201 905.558 378.884 907.543C377.643 909.857 376.317 912.446 374.721 914.531C374.044 915.416 373.336 916.33 372.263 916.701C367.556 918.329 361.257 917.59 356.259 917.819C350.343 918.09 344.266 918.406 338.412 919.334L337.611 919.465Z"/>
	<path fill="#FEFEFE" d="M699.392 912.385C691.2 913.167 695.345 910.532 691.438 908.564L690.651 908.174C688.413 907.038 687.842 906.261 687.073 903.884C689.362 903.865 691.578 905.042 693.494 906.212C695.777 907.606 698.753 909.655 699.392 912.385Z"/>
	<path fill="#DAAAFE" d="M377.831 919.67C379.955 916.456 381.719 913.199 383.172 909.632C391.906 914.791 400.58 917.766 410.371 920.154C408.77 924.581 405.994 930.162 406.235 934.942C394.01 933.262 385.956 928.98 377.831 919.67Z"/>
	<path fill="#FEFEFE" d="M690.397 923.992C688.866 923.426 689.568 920.842 687.965 919.439L688.197 919.891C686.336 918.515 683.854 918.833 682.287 917.099C682.007 915.571 682.769 914.559 683.479 913.276C686.543 914.999 688.93 917.247 691.317 919.794C692.155 919.676 692.994 919.564 693.834 919.457L693.982 920.175C692.898 921.661 691.779 922.781 690.397 923.992Z"/>
	<path fill="#321A4D" d="M337.911 931.11C346.355 933.698 363.978 938.299 370.462 943.437C374.522 946.655 377.353 951.501 381.42 954.754C382.463 955.588 382.604 955.662 383.861 955.512L384.354 954.573C384.065 949.701 373.081 940.265 369.687 935.864C367.547 933.09 365.682 929.758 364.349 926.52C363.734 925.026 363.229 923.586 363.869 922.024C365.202 921.106 367.044 920.964 368.611 920.677C368.677 920.679 368.746 920.661 368.808 920.682C374.862 922.728 377.778 927.027 382.619 930.725C390.077 936.422 399.889 939.326 408.931 941.146C409.106 950.434 407.725 959.867 406.169 969C399.675 967.532 393.775 964.957 387.54 962.73C375.814 958.54 364.029 954.527 352.673 949.384C348.953 947.865 345.353 946.324 341.836 944.376C340.332 940.042 339.196 935.517 337.911 931.11Z"/>
	<path fill="#FEFEFE" d="M361.759 932.667C360.376 931.228 359.115 929.676 357.989 928.028C356.882 926.417 355.132 923.978 355.507 921.948L357.064 921.165C357.729 921.446 358.225 921.645 358.698 922.241C360.322 924.287 362.357 930.102 362.383 932.653L361.759 932.667Z"/>
	<path fill="#FEFEFE" d="M348.824 928.708C348.692 928.667 348.558 928.633 348.428 928.584C344.985 927.307 343.933 924.995 342.398 921.906C344.006 921.832 345.09 921.721 346.547 922.557C348.108 924.234 348.333 926.536 348.824 928.708Z"/>
	<path fill="#FEFEFE" d="M356.316 930.84C355.487 930.735 354.504 930.667 353.755 930.251C352.492 929.549 351.914 928.089 351.484 926.797C350.896 925.034 350.229 923.325 349.542 921.599C350.109 921.684 350.706 921.747 351.246 921.953C353.963 922.989 355.383 928.364 356.316 930.84Z"/>
	<path fill="#321A4D" d="M289.59 924.199C303.228 923.545 316.918 924.602 330.54 923.841L331.197 924.029C335.567 928.718 336.762 937.264 337.221 943.453C327.721 939.757 318.553 935.734 308.87 932.458C302.607 930.615 294.762 928.14 289.59 924.199Z"/>
	<path fill="#FEFEFE" d="M402.026 979.107C401.314 978.686 400.937 978.468 400.143 978.3C387.154 975.55 286.509 935.582 281.377 930.501C281.309 928.9 282.343 927.516 283.093 926.157C306.035 936.284 329.483 945.354 352.826 954.507C370.05 961.261 387.714 968.833 405.572 973.657C404.525 975.611 403.361 977.339 402.026 979.107Z"/>
	<path fill="#FEFEFE" d="M718.443 940.879C719.482 939.531 720.645 938.289 721.785 937.027C730.532 937.034 790.72 936.163 794.408 937.844C794.68 939.242 794.748 939.191 794.008 940.395C792.625 941.101 791.503 941.345 789.952 941.45C786.541 941.68 782.99 941.265 779.56 941.249L755.9 941.243L731.284 941.194C727.141 941.18 722.518 941.549 718.443 940.879Z"/>
	<path fill="#FEFEFE" d="M886.306 941.605C889.858 939.946 893.682 938.859 897.409 937.662C897.549 937.684 897.689 937.708 897.829 937.727C905.152 938.751 934.005 936.205 937.526 937.948C937.685 939.112 937.546 939.842 937.233 940.969C936.001 941.522 889.549 942.399 886.306 941.605Z"/>
	<path fill="#FEFEFE" d="M413.387 940.175C448.925 939.142 484.598 940.375 520.159 939.826L599.44 939.054C617.833 938.979 636.262 938.524 654.608 940.049C653.772 941.234 653.14 942.643 651.563 942.906C650.356 943.107 648.991 943.052 647.765 943.068C587.447 942.871 527.128 942.978 466.812 943.389C456.652 943.474 446.493 943.503 436.334 943.476C429.037 943.479 420.781 942.654 413.695 944.388L413.387 940.175Z"/>
	<path fill="#FBC8FE" d="M654.608 940.049C657.202 939.997 659.918 939.566 662.052 941.333C658.928 942.614 655.893 943.496 652.491 943.666L647.765 943.068C648.991 943.052 650.356 943.107 651.563 942.906C653.14 942.643 653.772 941.234 654.608 940.049Z"/>
	<path fill="#FEFEFE" d="M171.922 994.841L177.642 992.02C177.935 992.092 178.226 992.17 178.521 992.236C184.311 993.545 201.185 992.243 208.373 992.301C243.525 992.857 278.682 992.966 313.837 992.627L667.023 991.991C716.414 991.968 765.918 989.864 815.301 991.016C816.993 991.055 818.252 991.113 819.571 992.239C819.198 993.416 818.76 993.826 817.63 994.374C816.465 994.94 815.069 995.14 813.788 995.168C796.054 995.559 778.167 995.056 760.408 995.118L660.319 995.712L270.92 996.047C260.45 996.045 176.221 996.811 173.115 995.668C172.575 995.47 172.323 995.195 171.922 994.841Z"/>
</svg>
