<?xml version="1.0" encoding="utf-8" ?>
<svg xmlns="http://www.w3.org/2000/svg" xmlns:xlink="http://www.w3.org/1999/xlink" width="1024" height="1024">
	<path fill="#9F8BE8" d="M0 0L82.6601 0C124.368 96.9875 203.87 181.119 283.048 249.245C300.857 264.568 321.727 282.688 340.864 296.101C322.89 301.448 308.076 311.787 292.021 321.068C280.125 327.928 268.343 334.983 256.68 342.232C249.335 346.733 241.313 351.114 234.767 356.739C227.317 363.143 220.831 371.493 214.468 378.955C204.504 390.639 194.397 402.187 184.571 413.989C177.363 422.645 170.25 432.216 162.184 440.068C160.932 438.722 159.709 437.323 158.396 436.037C151.477 439.134 144.907 445.282 138.817 449.833C130.049 456.339 121.222 462.766 112.338 469.114C112.225 468.977 112.108 468.843 111.997 468.704C109.639 465.783 107.273 458.697 103.841 457.526C95.0687 458.813 31.397 501.228 21.0948 508.231C14.032 513.032 7.23025 518.543 0 523.033L0 0Z"/>
	<path d="M82.6601 0L89.8888 0C95.4622 11.7783 100.766 23.9638 107.095 35.347C164.628 138.826 256.312 222.784 349.076 294.51C362.328 294.079 375.476 295.111 388.681 296.129C374.749 281.754 362.3 265.394 350.601 249.172C313.945 198.344 284.317 143.16 257.433 86.6838C243.978 58.4186 230.743 29.4563 220.114 0L227.089 0C234.807 19.9658 243.079 39.7133 251.894 59.2196C280.785 124.408 314.591 188.169 356.304 246.095C368.975 263.689 382.618 281.685 397.724 297.28C407.82 297.523 417.901 296.36 427.678 293.826C430.079 282.177 435.693 271.707 445.88 265.084C454.083 259.752 464.603 257.601 474.196 259.739C483.846 261.89 492.768 268.096 498.045 276.471C504.631 286.924 504.778 297.977 503.818 309.885C509.253 310.887 514.708 311.823 520.099 313.043C517.277 300.582 519.238 291.934 526.003 281.172C533.085 269.906 542.56 260.404 550.464 249.758C542.124 205.644 533.228 161.417 522.033 117.925C514.697 89.425 506.799 60.7563 498.447 32.539C495.226 21.6571 491.521 10.9142 488.41 0L494.781 0C498.214 9.26791 500.92 18.854 503.776 28.3125C509.565 47.6981 515.047 67.1738 520.22 86.7323C531.23 127.643 540.908 168.901 549.237 210.44C551.448 221.433 553.918 232.456 555.827 243.502C562.213 236.062 568.545 228.575 574.822 221.042C585.045 208.616 594.842 196.416 606.869 185.643C604.186 163.689 601.824 141.631 598.651 119.745C595.332 97.359 591.38 75.0716 586.8 52.9092C583.227 35.1875 579.468 17.3665 574.421 0L581.197 0C596.277 59.3743 606.783 119.817 612.626 180.797C617.725 178.771 622.705 176.888 628.155 176.014C636.195 174.726 644.449 174.944 652.448 173.307C670.048 169.703 687.61 164.496 704.861 159.494C712.051 107.24 713.373 52.5051 707.862 0L714.353 0C718.139 37.5872 718.775 75.4252 716.255 113.118C715.304 128.103 712.964 142.981 712.075 157.952C725.175 154.705 741.446 150.946 753.783 158.44C763.828 164.541 776.538 180.526 784.853 189.449C795.469 200.67 806.023 211.949 816.515 223.285C810.505 197.186 803.6 171.193 797.23 145.166L782.778 83.7304C775.947 55.8481 770.382 27.2315 761.201 0L768.133 0C776.66 28.4319 783.329 57.2866 790.119 86.1657C798.216 120.605 806.153 155.051 814.831 189.352C817.037 198.071 822.461 225.718 825.84 231.814C828.575 236.749 833.851 241.354 837.684 245.469C846.525 255.004 855.493 264.419 864.585 273.714C878.348 288.032 891.733 302.926 906.006 316.724C918.396 313.305 934.736 310.192 946.634 316.834C955.781 321.941 970.731 338.323 979.205 345.999C986.654 344.487 992.482 344.784 999.016 349.155C1008.15 355.266 1015.33 364.826 1024 371.747L1024 380.057C1019.01 376.455 1014.44 372.511 1010.02 368.231C1004.52 362.899 999.48 356.514 992.568 352.953C989.777 351.514 986.704 350.862 983.633 350.32C986.597 352.926 989.694 355.464 992.521 358.217C991.327 371.013 986.382 384.168 981.687 396.063C962.871 443.733 931.667 490.872 892.047 523.777C884.482 530.06 876.849 534.157 867.393 536.804C883.28 550.902 898.401 565.59 913.778 580.222L963.126 627.058C983.22 646.842 1003.51 666.422 1024 685.797L1024 694.885C985.138 656.865 945.936 619.194 906.398 581.877L871.96 548.912C867.172 544.305 860.89 539.397 856.969 534.1C855.221 531.738 854.699 528.345 854.718 525.478C854.751 520.596 856.079 520.24 852.353 516.402C848.359 512.287 843.517 508.825 838.849 505.508C817.072 490.034 806.955 484.143 806.369 455.393C801 469.932 794.618 484.135 788.672 498.449C776.56 527.658 764.158 556.746 751.466 585.708L732.769 629.282C730.457 634.55 724.927 643.678 724.216 649.104C723.506 654.526 736.095 720.417 738.942 731.587C750.316 737.288 757.042 749.534 764.054 759.735C767.488 761.308 772.076 762.849 774.505 765.907C780.538 773.502 785.156 783.088 790.407 791.307L826.134 846.504C864.662 906.007 903.707 965.175 943.263 1024L935.157 1024C904.887 981.011 877.139 936.188 848.104 892.369C830.174 865.762 812.672 838.869 795.605 811.7C786.516 797.502 776.788 783.646 768.818 768.761C755.532 765.783 741.057 769.593 728.321 773.475C683.652 787.091 646.634 823.502 625.012 864.101C609.329 892.915 598.037 923.908 591.509 956.057C590.354 961.771 588.246 969.441 589.563 975.178C590.671 980.001 593.237 984.909 595.196 989.44C600.095 1000.77 605.897 1012.2 609.501 1024L602.938 1024C598.157 1012.01 583.617 984.092 582.703 973.183C581.835 962.829 587.063 942.619 589.945 932.15C589.03 930.004 588.164 927.838 587.35 925.653C582.208 912.095 571.731 886.707 573.74 872.335C574.937 863.77 579.035 854.917 582.574 847.044C577.706 834.751 573.948 820.521 566.93 809.288C562.317 801.904 555.575 795.57 549.678 789.212C542.434 781.476 535.362 773.58 528.468 765.531C519.645 755.271 510.955 744.896 502.401 734.41C493.104 722.8 484.033 710.737 474.022 699.745C471.741 705.308 470.21 711.306 468.236 717.005L452.081 763.864C444.279 785.289 436.668 806.782 429.246 828.342C424.013 843.5 418.037 858.908 415.543 874.801C412.896 891.666 412.633 909.373 411.804 926.43C410.393 958.947 409.158 991.47 408.099 1024L401.971 1024C402.652 990.463 403.737 956.936 405.228 923.425C406.226 904.96 406.851 885.734 410.392 867.559C412.423 857.13 415.923 847.164 419.446 837.168C400.457 840.348 381.81 844.742 362.904 848.236C356.913 864.094 352.871 882.077 348.095 898.433C335.821 940.117 324.153 981.977 313.095 1024L306.184 1024C307.191 1018.97 308.977 1013.96 310.322 1008.99C312.891 999.139 315.551 989.315 318.301 979.515C325.055 954.987 332.012 930.514 339.172 906.101L382.501 758.34C388.46 738.662 394.903 719.105 400.697 699.387C413.172 657.481 423.832 615.057 432.647 572.233C434.356 563.786 436.589 555.427 438.028 546.935C433.277 551.529 427.979 555.434 422.896 559.641C417.024 581.612 411.794 603.729 406.133 625.753C399.495 650.824 392.69 675.851 385.718 700.831C377.916 728.38 369.358 755.704 361.152 783.131L324.853 906.422L299.709 994.687C296.955 1004.44 294.542 1014.29 291.662 1024L285.233 1024C286.539 1016.41 289.273 1008.65 291.324 1001.22C295.475 986.003 299.737 970.818 304.109 955.664C317.086 909.332 330.634 863.162 344.751 817.165C364.148 753.411 382.568 689.363 400.005 625.046C405.527 604.769 409.66 584.126 415.323 563.878C405.358 568.046 395.79 573.158 385.864 577.451C363.081 587.344 339.611 595.573 315.639 602.075C321.583 606.092 330.78 608.853 335.457 614.257C336.593 615.569 337.127 617.023 336.975 618.763C336.084 628.965 305.845 650.879 297.536 657.415C302.242 661.789 307.01 666.455 309.695 672.398C311.747 676.941 312.472 682.829 310.49 687.543C307.206 695.354 281.457 718.858 274.095 725.75C222.892 773.692 166.301 817.97 105.404 853.009C71.2664 872.652 35.9292 889.23 0 905.244L0 898.258C12.249 893.788 23.7711 887.587 35.5802 882.11C113.655 845.903 183.878 797.144 248.526 740.607C260.058 730.383 271.331 719.87 282.334 709.08C289.368 702.143 296.047 694.689 303.59 688.305C277.311 670.251 254.228 648.551 231.558 626.233C189.127 584.46 149.05 539.613 117.098 489.192C111.86 480.926 106.457 472.78 101.888 464.118C91.597 471.212 80.5711 477.293 69.9514 483.893C46.2675 498.612 22.5062 513.642 0 530.116L0 523.033C7.23025 518.543 14.032 513.032 21.0948 508.231C31.397 501.228 95.0687 458.813 103.841 457.526C107.273 458.697 109.639 465.783 111.997 468.704C112.108 468.843 112.225 468.977 112.338 469.114C121.222 462.766 130.049 456.339 138.817 449.833C144.907 445.282 151.477 439.134 158.396 436.037C159.709 437.323 160.932 438.722 162.184 440.068C170.25 432.216 177.363 422.645 184.571 413.989C194.397 402.187 204.504 390.639 214.468 378.955C220.831 371.493 227.317 363.143 234.767 356.739C241.313 351.114 249.335 346.733 256.68 342.232C268.343 334.983 280.125 327.928 292.021 321.068C308.076 311.787 322.89 301.448 340.864 296.101C321.727 282.688 300.857 264.568 283.048 249.245C203.87 181.119 124.368 96.9875 82.6601 0ZM732.269 160.682C713.496 162.969 695.54 169.831 677.081 173.699C684.668 174.784 692.443 174.555 700.091 174.654C719.822 174.908 742.111 175.304 760.084 184.356C764.236 186.448 769.388 189.738 772.139 193.544C772.844 194.52 772.672 194.061 772.7 195.212C772.014 196.225 771.734 196.915 770.428 197.177C766.248 198.014 758.168 190.882 754.437 189.017C751.134 187.365 747.236 186.269 743.671 185.331C734.188 182.835 724.215 181.975 714.451 181.351C700.497 180.458 686.273 180.929 672.294 180.996C659.551 181.057 632.598 179.471 621.511 183.703C612.279 187.227 604.89 195.517 598.432 202.685C589.263 212.863 581.025 223.806 572.076 234.171C559.521 248.711 540.028 268.905 530.661 284.713C527.107 290.711 524.251 297.535 524.618 304.636C524.881 309.73 526.657 314.422 530.48 317.896C534.324 321.39 538.641 322.747 543.57 323.817C562.456 314.391 573.599 294.661 588.676 280.612C600.166 269.905 613.996 261.942 625.897 251.616C629.316 248.65 632.725 245.784 635.695 242.35C638.14 239.522 640.362 235.962 643.064 233.437C644.042 232.524 644.339 232.29 645.674 232.603C650.546 233.746 655.222 237.466 660.127 239.042C667.531 241.42 675.185 243.144 682.519 245.718C702.686 252.798 717.302 265.339 726.834 284.314C730.281 278.716 733.435 272.801 735.837 266.672C737.454 262.543 738.578 257.492 740.83 253.704C741.43 252.693 742.196 252.076 743.365 251.816C744.193 251.631 744.45 252.032 745.127 252.443C746.154 254.185 746.571 256.113 746.04 258.125C745.187 261.362 743.612 264.67 742.37 267.785C734.604 287.266 723.17 302.718 708.688 317.681C714.23 318.549 731.374 320.058 734.531 323.89C735.247 324.759 735.191 324.99 735.083 326.028C733.998 327.266 733.07 328.034 731.36 328.151C728.169 328.368 723.488 326.624 720.187 326.007C707.017 323.544 693.348 320.354 679.993 319.342C665.176 317.703 650.384 318.622 635.576 317.516C613.995 315.903 581.177 303.317 562.549 318.468C560.786 319.902 559.134 321.496 557.478 323.051C567.847 320.554 577.026 319.526 586.618 325.244C591.634 328.235 595.629 332.879 596.903 338.666C598.233 344.705 596.363 349.738 593.024 354.683L592.607 355.294C606.7 359.803 620.756 364.424 634.776 369.155C650.535 374.415 666.296 379.632 681.385 386.638C691.292 391.239 700.11 397.238 709.569 402.595C719.648 408.303 730.61 413.098 741.5 417.033C755.881 422.229 771.158 426.49 786.07 429.856C802.223 433.501 819.657 435.862 834.787 442.791C844.981 447.459 854.303 456.086 861.278 464.713C897.099 436.862 924.21 396.68 940.701 354.632C932.297 347.834 923.218 341.918 915.142 334.712C902.14 323.111 890.637 309.855 878.531 297.359C854.488 272.637 830.66 247.705 807.051 222.567L776.673 190.011C769.403 182.134 760.94 171.673 752.363 165.394C746.182 160.869 739.651 160.031 732.269 160.682ZM645.965 240.34C637.925 249.257 629.515 257.373 620.074 264.807C613.464 270.011 606.309 274.42 599.606 279.482C590.274 286.529 579.329 297.732 572.526 307.297C577.096 306.328 581.628 305.373 586.266 304.774C590.437 299.91 595.842 296.011 600.814 291.987C609.051 284.888 617.303 276.996 626.585 271.289C641.22 262.291 672.025 256.175 689.403 255.267C675.385 249.107 660.22 246.127 645.965 240.34ZM695.263 260.68C674.326 263.157 649.377 265.67 630.625 275.882C637.159 283.074 643.969 290.077 650.277 297.467C652.857 300.489 659.707 310.546 662.647 311.842C675.125 312.923 687.418 313.984 699.773 316.169C709.084 308.744 716.167 300.402 722.787 290.569C718.442 280.892 708.646 264.7 698.314 260.726C697.328 260.346 696.299 260.435 695.263 260.68ZM461.384 265.625C452.707 267.464 445.25 271.731 440.271 279.237C437.975 282.699 436.584 286.402 435.492 290.391C439.588 289.561 443.714 288.577 447.877 288.172C453.691 282.707 459.472 278.755 467.859 279.134C473.675 279.397 479.531 281.904 483.378 286.353C483.915 286.983 484.432 287.629 484.929 288.291C488.044 293.419 489.715 299.255 487.982 305.232C487.721 306.133 487.338 307.005 486.957 307.86L497.891 308.565C499.004 296.719 497.901 285.521 489.93 276.032C484.593 269.678 477.08 266.224 468.913 265.512C466.463 265.298 463.821 265.331 461.384 265.625ZM625.267 279.919C614.935 288.06 604.417 296.43 594.774 305.375C604.874 305.709 614.662 307.902 624.539 309.857C634.262 311.497 643.681 311.875 653.52 311.54C647.525 304.143 632.224 283.591 625.267 279.919ZM465.862 285.152C460.52 285.994 457.697 287.833 454.05 291.645C458.021 294.345 461.5 296.83 462.293 301.934C462.633 304.121 462.515 306.419 462.437 308.623L472.622 307.892C475.652 307.676 478.682 307.429 481.719 307.329C483.176 302.425 483.428 297.416 480.865 292.807C478.818 289.19 475.358 286.588 471.315 285.625C469.568 285.192 467.658 285.149 465.862 285.152ZM444.161 295.069C430.679 298.26 423.925 302.178 408.829 303.103C387.432 304.413 365.402 298.416 344.252 302.046C337.972 303.123 331.468 305.794 325.779 308.607C317.597 312.653 309.789 317.647 301.951 322.317C289.339 329.752 276.81 337.328 264.367 345.043C256.384 349.965 245.384 355.399 238.51 361.521C234.01 365.528 230.163 370.558 226.251 375.144C220.476 381.938 214.663 388.7 208.813 395.429L179.049 430.026C174.348 435.546 168.939 441.068 164.888 447.074C169.388 457.11 175.802 466.74 181.703 475.994C214.604 527.588 256.564 566.121 308.522 597.915C330.273 592.643 354.113 584.171 374.707 575.481C391.026 568.594 408.407 561.437 423.063 551.381C445.748 535.816 466.106 505.771 480.266 482.536C483.514 477.207 487.032 471.803 489.542 466.074C474.836 479.839 460.374 490.484 441.748 498.249C438.481 499.61 433.544 501.88 429.974 501.647C428.488 501.55 427.797 501.087 426.899 499.952C426.852 498.745 426.786 498.461 427.359 497.42C433.937 493.454 442.072 491.748 449.01 488.204C477.364 473.721 498.631 451.685 506.399 420.384C507.718 415.069 509.003 409.625 509.891 404.221C489.121 419.223 469.426 430.233 445.677 440.038C437.434 443.354 401.633 458.392 395.583 457.652C394.486 456.956 393.918 456.688 393.681 455.276C393.55 454.493 393.853 454.092 394.373 453.576C395.377 452.581 396.716 451.945 398 451.397C403.559 449.026 409.449 447.429 415.125 445.37C425.413 441.639 435.692 437.583 445.814 433.42C480.94 418.973 511.278 398.086 538.175 371.288C544.403 365.083 551.642 358.55 555.157 350.333C551.637 348.289 547.944 346.28 546.932 341.974C546.097 338.418 547.661 335.171 549.546 332.274C541.732 335.092 533.974 338.187 526.088 340.786C508.46 346.595 490.615 351.609 473.152 357.934C440.557 370.021 408.475 383.446 376.987 398.177C373.162 399.924 368.337 403.461 364.108 401.671L363.188 400.369C364.244 397.516 367.359 396.003 369.969 394.79C409.681 375.977 450.353 359.26 491.817 344.708C499.062 342.125 506.694 340.795 513.926 338.225C503.182 327.138 489.801 323.84 474.691 323.603C450.094 323.218 424.125 330.795 400.285 336.255C372.966 342.467 345.734 349.063 318.6 356.041C308.232 358.805 297.89 361.663 287.574 364.614C282.485 366.053 276.939 368.151 271.73 368.834C270.761 368.961 270.14 368.825 269.247 368.401C268.488 367.505 268.061 367.039 267.916 365.854C268.658 364.065 270.122 363.25 271.844 362.516C279.292 359.34 291.69 356.955 299.924 354.638C334.19 345.209 368.698 336.686 403.412 329.076L430.914 322.873C435.373 321.85 440.498 321.178 444.692 319.398C449.242 317.467 453.37 313.57 455.313 309.005C456.377 306.505 456.749 303.629 455.731 301.05C454.783 298.645 452.919 297.258 450.571 296.35C448.577 295.579 446.306 295.016 444.161 295.069ZM924.351 319.699C919.795 320.19 915.352 320.85 910.961 322.199C919.005 330.3 928.503 338.999 938.197 345.032L942.878 348C945.213 341.358 948.42 331.86 944.939 325.107C943.651 322.609 941.475 321.086 938.821 320.274C934.572 318.974 928.733 319.135 924.351 319.699ZM566.504 327.129C561.035 328.341 556.757 330.312 553.62 335.198C552.593 336.797 551.908 338.358 552.484 340.286C553.151 342.515 555.593 344.02 557.58 344.9C564.291 347.87 572.428 349.349 579.547 351.266L584.017 352.576C587.407 350.354 590.369 348.506 591.293 344.247C591.945 341.243 590.898 338.189 589.191 335.72C585.884 330.936 580.297 328.132 574.664 327.197C571.983 326.751 569.198 326.874 566.504 327.129ZM952.72 330.224C951.684 337.618 950.566 344.745 948.341 351.902C939.331 380.875 916.369 417.27 896.519 440.223C886.86 451.392 875.382 462.259 863.594 471.19C857.725 475.636 845.332 483.688 837.589 483.082C836.227 482.975 834.842 481.914 834.12 480.799C833.585 479.973 833.488 479.21 833.363 478.264C833.769 477.012 833.826 476.716 834.794 475.852C837.04 475.612 839.325 475.741 841.541 475.453C846.337 474.83 852.31 471.39 856.129 468.536C844.91 454.017 830.834 446.37 813.187 442.184C812.142 457.877 811.311 472.536 822.214 485.116C822.733 485.721 823.268 486.311 823.82 486.887C831.103 493.597 839.911 498.317 847.723 504.369C857.082 511.62 865.342 519.971 874.363 527.568C887.187 521.222 896.709 511.668 906.511 501.475C939.504 467.451 964.587 426.569 979.972 381.742C982.217 375.115 984.653 368.283 986.091 361.428C979.104 354.069 971.594 347.438 964.122 340.584C960.392 337.164 956.81 333.197 952.72 330.224ZM561.652 352.494C553.189 365.755 541.928 377.357 530.112 387.702C525.858 391.427 520.953 394.705 516.974 398.686C515.134 410.921 512.669 423.254 508.347 434.883C506.489 439.882 504.058 444.631 502.1 449.585C499.424 456.351 497.636 463.351 494.554 469.979C484.061 492.55 463.058 521.254 445.901 539.395C444.653 547.594 442.608 555.753 440.881 563.864C436.425 584.784 431.365 605.775 427.544 626.799C434.632 631.14 439.705 636.404 441.628 644.803C443.975 655.047 440.601 667.17 434.982 675.83C430.915 682.098 425.278 687.066 417.757 688.586C415.007 689.142 412.215 689.491 409.45 689.968C414.852 693.149 421.766 694.819 427.973 693.308C429.907 692.837 431.537 691.947 433.196 690.878C442.185 682.947 448.077 672.172 448.847 660.07C449.17 654.995 446.131 641.283 447.774 638.068L448.756 637.675C451.601 638.931 453.409 642.936 454.949 645.517C455.89 634.594 459.019 623.817 465.134 614.596C464.575 607.835 463.66 601.089 463.494 594.302C462.908 570.336 469.422 547.401 485.05 528.903C488.74 524.617 492.711 520.579 496.935 516.818C498.17 510.607 498.497 504.286 499.641 498.07C503.469 477.272 513.805 463.483 531.112 451.91C547.283 441.096 565.379 433.398 582.179 423.625C585.319 410.678 587.35 397.551 589.203 384.369C590.268 376.785 591.543 369.082 591.663 361.417C581.756 358.494 571.276 356.153 561.652 352.494ZM598.163 363.72C595.154 393.084 589.725 422.149 581.929 450.619C579.894 458.05 577.707 465.439 575.369 472.781C572.677 481.14 569.275 489.511 568.542 498.338C567.897 506.124 570.405 512.886 573.626 519.834C577.601 512.769 585.916 497.42 587.209 489.906C588.424 482.854 587.672 476.018 589.477 468.891C591.761 461.103 594.834 453.457 602.501 449.455C606.732 447.246 611.892 446.695 616.456 448.165C623.01 450.278 627.051 455.51 630.596 461.054C642.073 436.279 649.142 409.329 657.388 383.373C637.785 376.409 618.04 369.857 598.163 363.72ZM663.012 385.722C656.174 412.129 645.656 442.989 635.211 468.336C640.503 480.236 648.305 491.525 655.361 502.457C665.255 517.895 675.491 533.11 686.063 548.092C693.943 559.056 706.113 573.479 711.01 585.86C713.191 591.374 714.124 597.28 715.254 603.073C717.464 614.412 719.131 626.076 721.771 637.308C728.449 625.011 733.219 611.192 738.883 598.348C753.076 566.425 766.925 534.349 780.426 502.127C788.939 481.655 796.68 460.639 805.748 440.428C773.934 434.431 741.09 426.003 712.098 411.25C705.069 407.673 698.541 403.223 691.728 399.27C682.679 394.021 672.827 389.331 663.012 385.722ZM579.164 432.398C561.133 441.901 534.877 453.414 520.929 468.312C515.064 474.57 510.737 482.108 508.291 490.328C506.674 495.728 505.496 501.249 504.768 506.838C502.312 525.254 500.995 544.044 499.658 562.566C499.101 570.281 498.926 578.198 498.015 585.868C497.854 587.218 497.694 588.621 496.901 589.758C495.775 590.359 494.775 590.645 493.495 590.226C492.4 589.867 491.899 589.077 491.687 587.989C490.547 582.116 495.482 534.615 496.575 526.158C479.454 541.723 470.789 564.378 469.644 587.243C468.763 604.827 472.975 621.767 477.729 638.546C478.62 641.691 479.96 644.719 480.616 647.927C480.996 649.786 481.212 651.322 480.182 653.017C479.056 653.663 478.271 653.6 477.01 653.612C476.626 653.38 476.142 653.264 475.858 652.917C474.419 651.161 468.706 627.345 467.281 622.915C460.361 636.91 457.735 656.215 462.806 671.231C464.403 675.96 467.179 680.403 470.016 684.477C477.552 695.295 486.611 705.381 495.033 715.544C511.102 734.93 527.485 754.055 544.173 772.91C553.691 783.475 564.484 793.437 572.517 805.215C579.307 815.17 582.222 827.632 586.986 838.577C591.068 833.009 594.294 826.866 598.271 821.209C613.065 800.166 630.67 780.651 651.752 765.686C676.234 749.091 702.588 736.061 732.129 731.764C726.483 705.329 722.149 678.388 717.549 651.744C715.325 638.862 713.097 626.032 710.627 613.195C708.693 603.145 707.548 592.637 702.817 583.43C697.884 573.828 688.403 562.584 682.01 553.625C670.23 537.149 658.966 520.309 648.234 503.131C644.336 496.853 640.533 490.517 636.828 484.123C632.023 475.686 626.066 460.574 617.97 455.183C615.121 453.285 611.277 453.072 608.027 453.893C604.021 454.905 601.036 457.848 599.056 461.37C591.183 475.373 594.038 499.014 598.51 513.697C603.912 531.427 612.933 548.651 621.541 565.021C624.485 570.62 627.263 576.543 630.589 581.911C632.185 584.486 634.198 586.865 636.608 588.716C639.74 591.122 650.437 594.786 648.07 599.772C647.687 600.579 647.254 600.565 646.489 600.912C637.311 600.72 604.448 573.969 596.959 566.182C585.539 554.307 568.899 529.2 564.115 513.066C562.755 508.479 562.242 503.766 562.329 498.99C562.395 495.147 562.898 491.323 563.826 487.593C566.112 478.158 581.006 438.146 579.788 432.547L579.164 432.398ZM156.294 444.903C142.926 454.556 129.457 466.034 115.403 474.5C145.028 522.2 179.926 564.87 219.162 604.958C226.861 612.824 234.916 620.323 242.777 628.024C251.175 636.252 259.558 644.352 268.347 652.17C271.923 655.35 275.549 658.897 279.553 661.524C281.817 660.219 284.138 658.969 286.294 657.49C300.316 648.12 322.027 632.243 331.342 618.315C316.42 609.34 301.208 600.955 286.681 591.325C254.356 569.585 225.369 543.256 200.63 513.166C188.401 498.445 177.576 482.115 167.788 465.69C165.72 462.22 158.406 445.984 156.294 444.903ZM588.926 502.959C585.045 510.829 580.936 518.658 577.314 526.648C587.215 544.894 598.55 560.835 614.812 574.028C617.255 575.936 619.667 577.918 622.171 579.743C614.715 565.722 606.444 551.659 600.427 536.949C597.759 530.426 595.238 523.762 593.099 517.046C591.882 513.226 590.87 506.12 588.926 502.959ZM425.306 633.167C420.875 650.045 416.27 666.876 411.493 683.659C414.591 683.088 417.28 682.408 420.215 681.22C427.82 676.985 432.233 669.951 434.595 661.725C436.574 654.833 436.667 646.872 433.155 640.45C431.349 637.148 428.774 634.608 425.306 633.167ZM454.448 666.769C451.592 678.184 446.022 690.604 435.638 697.079C430.045 700.567 423.567 701.531 417.165 700.005C414.078 699.268 411.077 697.927 408.372 696.279C401.577 718.769 393.682 741.236 387.92 763.995C396.524 773.16 405.294 782.167 414.226 791.012C419.574 796.276 425.107 801.425 430.327 806.813L456.144 733.039C458.55 725.962 461.081 718.922 463.347 711.799C465.266 705.766 466.901 699.483 469.287 693.627C462.024 685.199 458.394 677.02 454.448 666.769ZM728.829 738.657C684.011 745.857 634.417 781.889 608.162 818.123C596.954 833.591 577.893 862.611 581.068 881.917C583.266 895.285 588.598 908.649 593.369 921.27C594.628 917.354 596.013 913.52 597.507 909.688C614.831 863.735 636.17 822.553 676.521 792.774C686.216 785.619 696.465 779.15 707.457 774.169C723.29 766.994 739.487 762.527 756.748 760.418C752.426 753.215 745.724 743.154 738.525 738.724C738.479 738.696 738.435 738.665 738.39 738.636C735.185 738.508 732.028 738.345 728.829 738.657ZM385.465 770.787C380.24 787.088 375.406 803.512 370.969 820.044C368.992 827.168 366.58 834.174 364.983 841.398C376.764 839.294 388.372 836.384 400.116 834.107C407.62 832.502 415.162 830.994 422.632 829.243C424.026 824.014 426.145 819.222 428.439 814.337C417.291 804.112 406.959 792.74 396.353 781.934C392.787 778.301 389.306 774.101 385.465 770.787Z"/>
	<path fill="#7567B4" d="M89.8888 0L220.114 0C230.743 29.4563 243.978 58.4186 257.433 86.6838C284.317 143.16 313.945 198.344 350.601 249.172C362.3 265.394 374.749 281.754 388.681 296.129C375.476 295.111 362.328 294.079 349.076 294.51C256.312 222.784 164.628 138.826 107.095 35.347C100.766 23.9638 95.4622 11.7783 89.8888 0Z"/>
	<path fill="#DAD7FB" d="M227.089 0L366.218 0C354.762 7.01077 346.632 15.7312 343.347 29.0816C340.382 41.1193 342.358 53.8427 348.833 64.4149C354.693 74.0602 364.187 80.9424 375.176 83.5116C385.304 85.8623 394.928 83.6713 403.623 78.1231C413.695 71.6956 420.528 61.3984 423.069 49.7665C425.72 37.8744 423.473 25.4157 416.833 15.1995C412.493 8.55277 406.737 3.80727 399.845 0L488.41 0C491.521 10.9142 495.226 21.6571 498.447 32.539C506.799 60.7563 514.697 89.425 522.033 117.925C533.228 161.417 542.124 205.644 550.464 249.758C542.56 260.404 533.085 269.906 526.003 281.172C519.238 291.934 517.277 300.582 520.099 313.043C514.708 311.823 509.253 310.887 503.818 309.885C504.778 297.977 504.631 286.924 498.045 276.471C492.768 268.096 483.846 261.89 474.196 259.739C464.603 257.601 454.083 259.752 445.88 265.084C435.693 271.707 430.079 282.177 427.678 293.826C417.901 296.36 407.82 297.523 397.724 297.28C382.618 281.685 368.975 263.689 356.304 246.095C314.591 188.169 280.785 124.408 251.894 59.2196C243.079 39.7133 234.807 19.9658 227.089 0ZM421.365 126.684C409.118 128.208 399.325 133.386 391.726 143.252C384.035 153.388 380.691 166.166 382.43 178.769C383.892 190.213 389.927 200.576 399.157 207.495C407.278 213.572 416.435 215.307 426.383 215.043C438.339 213.327 447.387 208.668 454.743 198.895C462.221 188.961 464.968 175.971 463.163 163.77C461.377 151.692 455.276 140.806 445.304 133.579C438.66 128.764 429.617 125.762 421.365 126.684Z"/>
	<path d="M366.218 0L399.845 0C406.737 3.80727 412.493 8.55277 416.833 15.1995C423.473 25.4157 425.72 37.8744 423.069 49.7665C420.528 61.3984 413.695 71.6956 403.623 78.1231C394.928 83.6713 385.304 85.8623 375.176 83.5116C364.187 80.9424 354.693 74.0602 348.833 64.4149C342.358 53.8427 340.382 41.1193 343.347 29.0816C346.632 15.7312 354.762 7.01077 366.218 0ZM378.009 2.59575C367.861 4.96331 359.286 10.0773 353.624 19.0377C347.871 28.1441 346.836 39.4411 349.308 49.7919C351.69 59.768 357.425 68.3813 366.266 73.7239C372.992 77.7883 379.601 78.8671 387.375 78.4187C397.501 76.1018 406.006 70.7977 411.653 61.9311C417.564 52.6502 418.958 40.5458 416.482 29.9204C414.242 20.3088 408.709 12.2306 400.228 7.11456C393.106 2.81762 386.228 1.86433 378.009 2.59575Z"/>
	<path fill="#7567B4" d="M494.781 0L574.421 0C579.468 17.3665 583.227 35.1875 586.8 52.9092C591.38 75.0716 595.332 97.359 598.651 119.745C601.824 141.631 604.186 163.689 606.869 185.643C594.842 196.416 585.045 208.616 574.822 221.042C568.545 228.575 562.213 236.062 555.827 243.502C553.918 232.456 551.448 221.433 549.237 210.44C540.908 168.901 531.23 127.643 520.22 86.7323C515.047 67.1738 509.565 47.6981 503.776 28.3125C500.92 18.854 498.214 9.26791 494.781 0Z"/>
	<path fill="#9F8BE8" d="M581.197 0L707.862 0C713.373 52.5051 712.051 107.24 704.861 159.494C687.61 164.496 670.048 169.703 652.448 173.307C644.449 174.944 636.195 174.726 628.155 176.014C622.705 176.888 617.725 178.771 612.626 180.797C606.783 119.817 596.277 59.3743 581.197 5.68434e-14L581.197 0Z"/>
	<path fill="#9F8BE8" d="M714.353 0L761.201 0C770.382 27.2315 775.947 55.8481 782.778 83.7304L797.23 145.166C803.6 171.193 810.505 197.186 816.515 223.285C806.023 211.949 795.469 200.67 784.853 189.449C776.538 180.526 763.828 164.541 753.783 158.44C741.446 150.946 725.175 154.705 712.075 157.952C712.964 142.981 715.304 128.103 716.255 113.118C718.775 75.4252 718.139 37.5872 714.353 -1.42109e-14L714.353 0Z"/>
	<path fill="#DAD7FB" d="M768.133 0L1024 0L1024 371.747C1015.33 364.826 1008.15 355.266 999.016 349.155C992.482 344.784 986.654 344.487 979.205 345.999C970.731 338.323 955.781 321.941 946.634 316.834C934.736 310.192 918.396 313.305 906.006 316.724C891.733 302.926 878.348 288.032 864.585 273.714C855.493 264.419 846.525 255.004 837.684 245.469C833.851 241.354 828.575 236.749 825.84 231.814C822.461 225.718 817.037 198.071 814.831 189.352C806.153 155.051 798.216 120.605 790.119 86.1657C783.329 57.2866 776.66 28.4319 768.133 0Z"/>
	<path fill="#7567B4" d="M387.375 78.4187C379.601 78.8671 372.992 77.7883 366.266 73.7239C357.425 68.3813 351.69 59.768 349.308 49.7919C346.836 39.4411 347.871 28.1441 353.624 19.0377C359.286 10.0773 367.861 4.96331 378.009 2.59575C386.228 1.86433 393.106 2.81762 400.228 7.11456C408.709 12.2306 414.242 20.3088 416.482 29.9204C418.958 40.5458 417.564 52.6502 411.653 61.9311C406.006 70.7977 397.501 76.1018 387.375 78.4187ZM381.476 11.607C374.233 13.068 368.745 16.2249 364.6 22.5367C359.619 30.1199 358.18 40.0856 360.078 48.8969C361.53 55.6333 365.253 62.0121 371.211 65.6844C374.765 67.8754 379.989 69.5858 384.205 69.1833C391.722 67.1364 397.835 63.3593 401.889 56.4748C406.486 48.6693 407.353 38.4279 404.911 29.7843C403.139 23.5118 399.481 17.9422 393.727 14.6815C389.991 12.5645 385.754 11.5784 381.476 11.607Z"/>
	<path d="M384.205 69.1833C379.989 69.5858 374.765 67.8754 371.211 65.6844C365.253 62.0121 361.53 55.6333 360.078 48.8969C358.18 40.0856 359.619 30.1199 364.6 22.5367C368.745 16.2249 374.233 13.068 381.476 11.607C385.754 11.5784 389.991 12.5645 393.727 14.6815C399.481 17.9422 403.139 23.5118 404.911 29.7843C407.353 38.4279 406.486 48.6693 401.889 56.4748C397.835 63.3593 391.722 67.1364 384.205 69.1833ZM380.116 17.5523C374.012 20.1498 369.447 23.9237 366.861 30.2125C364.12 36.8812 364.188 45.1819 367.073 51.7833C369.068 56.3501 372.394 60.116 377.124 61.8995C379.957 62.9681 382.777 63.0837 385.739 62.6013C392.088 59.8121 396.551 54.5057 398.939 48.055C401.42 41.4671 401.108 34.1525 398.076 27.7995C395.875 23.2577 392.315 19.8802 387.503 18.2623C384.962 17.4081 382.772 17.3923 380.116 17.5523Z"/>
	<path fill="#DAD7FB" d="M385.739 62.6013C382.777 63.0837 379.957 62.9681 377.124 61.8995C372.394 60.116 369.068 56.3501 367.073 51.7833C364.188 45.1819 364.12 36.8812 366.861 30.2125C369.447 23.9237 374.012 20.1498 380.116 17.5523C382.772 17.3923 384.962 17.4081 387.503 18.2623C392.315 19.8802 395.875 23.2577 398.076 27.7995C401.108 34.1525 401.42 41.4671 398.939 48.055C396.551 54.5057 392.088 59.8121 385.739 62.6013Z"/>
	<path d="M426.383 215.043C416.435 215.307 407.278 213.572 399.157 207.495C389.927 200.576 383.892 190.213 382.43 178.769C380.691 166.166 384.035 153.388 391.726 143.252C399.325 133.386 409.118 128.208 421.365 126.684C429.617 125.762 438.66 128.764 445.304 133.579C455.276 140.806 461.377 151.692 463.163 163.77C464.968 175.971 462.221 188.961 454.743 198.895C447.387 208.668 438.339 213.327 426.383 215.043ZM420.822 133.166C410.875 134.499 403.09 138.657 396.917 146.679C389.837 155.879 387.041 167.272 388.688 178.733C390.061 188.366 395.273 197.034 403.137 202.765C409.59 207.553 418.069 209.682 426.055 208.731C435.823 207.363 443.846 203.278 449.905 195.34C456.574 186.605 458.825 175.955 457.328 165.153C455.928 155.048 450.586 145.283 442.311 139.196C436.197 134.7 428.424 132.322 420.822 133.166Z"/>
	<path fill="#7567B4" d="M426.055 208.731C418.069 209.682 409.59 207.553 403.137 202.765C395.273 197.034 390.061 188.366 388.688 178.733C387.041 167.272 389.837 155.879 396.917 146.679C403.09 138.657 410.875 134.499 420.822 133.166C428.424 132.322 436.197 134.7 442.311 139.196C450.586 145.283 455.928 155.048 457.328 165.153C458.825 175.955 456.574 186.605 449.905 195.34C443.846 203.278 435.823 207.363 426.055 208.731ZM421.537 144.111C414.741 145.372 409.574 148.776 405.61 154.439C400.471 161.781 399.131 171.611 400.701 180.333C401.888 186.932 405.146 193.527 410.881 197.287C414.793 199.851 418.881 200.516 423.48 200.336C429.966 199.431 435.187 197.114 439.152 191.66C444.542 184.245 446.141 174 444.578 165.09C443.389 158.319 439.881 151.581 434.139 147.617C430.444 145.08 426.01 143.847 421.537 144.111Z"/>
	<path d="M423.48 200.336C418.881 200.516 414.793 199.851 410.881 197.287C405.146 193.527 401.888 186.932 400.701 180.333C399.131 171.611 400.471 161.781 405.61 154.439C409.574 148.776 414.741 145.372 421.537 144.111C426.01 143.847 430.444 145.08 434.139 147.617C439.881 151.581 443.389 158.319 444.578 165.09C446.141 174 444.542 184.245 439.152 191.66C435.187 197.114 429.966 199.431 423.48 200.336ZM422.093 149.58C416.638 150.612 412.759 152.994 409.651 157.681C405.421 164.062 404.269 172.859 406.005 180.297C407.223 185.518 409.869 190.17 414.575 192.961C417.564 194.733 420.583 195.179 424.002 195.103C429.204 193.865 432.592 191.933 435.551 187.248C439.803 180.516 440.697 172.014 438.753 164.373C437.439 159.208 434.74 154.166 429.968 151.462C427.551 150.093 424.849 149.58 422.093 149.58Z"/>
	<path fill="#DAD7FB" d="M424.002 195.103C420.583 195.179 417.564 194.733 414.575 192.961C409.869 190.17 407.223 185.518 406.005 180.297C404.269 172.859 405.421 164.062 409.651 157.681C412.759 152.994 416.638 150.612 422.093 149.58C424.849 149.58 427.551 150.093 429.968 151.462C434.74 154.166 437.439 159.208 438.753 164.373C440.697 172.014 439.803 180.516 435.551 187.248C432.592 191.933 429.204 193.865 424.002 195.103Z"/>
	<path fill="#DAD7FB" d="M677.081 173.699C695.54 169.831 713.496 162.969 732.269 160.682C739.651 160.031 746.182 160.869 752.363 165.394C760.94 171.673 769.403 182.134 776.673 190.011L807.051 222.567C830.66 247.705 854.488 272.637 878.531 297.359C890.637 309.855 902.14 323.111 915.142 334.712C923.218 341.918 932.297 347.834 940.701 354.632C924.21 396.68 897.099 436.862 861.278 464.713C854.303 456.086 844.981 447.459 834.787 442.791C819.657 435.862 802.223 433.501 786.07 429.856C771.158 426.49 755.881 422.229 741.5 417.033C730.61 413.098 719.648 408.303 709.569 402.595C700.11 397.238 691.292 391.239 681.385 386.638C666.296 379.632 650.535 374.415 634.776 369.155C620.756 364.424 606.7 359.803 592.607 355.294L593.024 354.683C596.363 349.738 598.233 344.705 596.903 338.666C595.629 332.879 591.634 328.235 586.618 325.244C577.026 319.526 567.847 320.554 557.478 323.051C559.134 321.496 560.786 319.902 562.549 318.468C581.177 303.317 613.995 315.903 635.576 317.516C650.384 318.622 665.176 317.703 679.993 319.342C693.348 320.354 707.017 323.544 720.187 326.007C723.488 326.624 728.169 328.368 731.36 328.151C733.07 328.034 733.998 327.266 735.083 326.028C735.191 324.99 735.247 324.759 734.531 323.89C731.374 320.058 714.23 318.549 708.688 317.681C723.17 302.718 734.604 287.266 742.37 267.785C743.612 264.67 745.187 261.362 746.04 258.125C746.571 256.113 746.154 254.185 745.127 252.443C744.45 252.032 744.193 251.631 743.365 251.816C742.196 252.076 741.43 252.693 740.83 253.704C738.578 257.492 737.454 262.543 735.837 266.672C733.435 272.801 730.281 278.716 726.834 284.314C717.302 265.339 702.686 252.798 682.519 245.718C675.185 243.144 667.531 241.42 660.127 239.042C655.222 237.466 650.546 233.746 645.674 232.603C644.339 232.29 644.042 232.524 643.064 233.437C640.362 235.962 638.14 239.522 635.695 242.35C632.725 245.784 629.316 248.65 625.897 251.616C613.996 261.942 600.166 269.905 588.676 280.612C573.599 294.661 562.456 314.391 543.57 323.817C538.641 322.747 534.324 321.39 530.48 317.896C526.657 314.422 524.881 309.73 524.618 304.636C524.251 297.535 527.107 290.711 530.661 284.713C540.028 268.905 559.521 248.711 572.076 234.171C581.025 223.806 589.263 212.863 598.432 202.685C604.89 195.517 612.279 187.227 621.511 183.703C632.598 179.471 659.551 181.057 672.294 180.996C686.273 180.929 700.497 180.458 714.451 181.351C724.215 181.975 734.188 182.835 743.671 185.331C747.236 186.269 751.134 187.365 754.437 189.017C758.168 190.882 766.248 198.014 770.428 197.177C771.734 196.915 772.014 196.225 772.7 195.212C772.672 194.061 772.844 194.52 772.139 193.544C769.388 189.738 764.236 186.448 760.084 184.356C742.111 175.304 719.822 174.908 700.091 174.654C692.443 174.555 684.668 174.784 677.081 173.699Z"/>
	<path fill="#DAD7FB" d="M572.526 307.297C579.329 297.732 590.274 286.529 599.606 279.482C606.309 274.42 613.464 270.011 620.074 264.807C629.515 257.373 637.925 249.257 645.965 240.34C660.22 246.127 675.385 249.107 689.403 255.267C672.025 256.175 641.22 262.291 626.585 271.289C617.303 276.996 609.051 284.888 600.814 291.987C595.842 296.011 590.437 299.91 586.266 304.774C581.628 305.373 577.096 306.328 572.526 307.297Z"/>
	<path fill="#DAD7FB" d="M630.625 275.882C649.377 265.67 674.326 263.157 695.263 260.68C696.299 260.435 697.328 260.346 698.314 260.726C708.646 264.7 718.442 280.892 722.787 290.569C716.167 300.402 709.084 308.744 699.773 316.169C687.418 313.984 675.125 312.923 662.647 311.842C659.707 310.546 652.857 300.489 650.277 297.467C643.969 290.077 637.159 283.074 630.625 275.882Z"/>
	<path fill="#7567B4" d="M435.492 290.391C436.584 286.402 437.975 282.699 440.271 279.237C445.25 271.731 452.707 267.464 461.384 265.625C463.821 265.331 466.463 265.298 468.913 265.512C477.08 266.224 484.593 269.678 489.93 276.032C497.901 285.521 499.004 296.719 497.891 308.565L486.957 307.86C487.338 307.005 487.721 306.133 487.982 305.232C489.715 299.255 488.044 293.419 484.929 288.291C484.432 287.629 483.915 286.983 483.378 286.353C479.531 281.904 473.675 279.397 467.859 279.134C459.472 278.755 453.691 282.707 447.877 288.172C443.714 288.577 439.588 289.561 435.492 290.391Z"/>
	<path fill="#7567B4" d="M594.774 305.375C604.417 296.43 614.935 288.06 625.267 279.919C632.224 283.591 647.525 304.143 653.52 311.54C643.681 311.875 634.262 311.497 624.539 309.857C614.662 307.902 604.874 305.709 594.774 305.375Z"/>
	<path fill="#DAD7FB" d="M454.05 291.645C457.697 287.833 460.52 285.994 465.862 285.152C467.658 285.149 469.568 285.192 471.315 285.625C475.358 286.588 478.818 289.19 480.865 292.807C483.428 297.416 483.176 302.425 481.719 307.329C478.682 307.429 475.652 307.676 472.622 307.892L462.437 308.623C462.515 306.419 462.633 304.121 462.293 301.934C461.5 296.83 458.021 294.345 454.05 291.645Z"/>
	<path fill="#DAD7FB" d="M164.888 447.074C168.939 441.068 174.348 435.546 179.049 430.026L208.813 395.429C214.663 388.7 220.476 381.938 226.251 375.144C230.163 370.558 234.01 365.528 238.51 361.521C245.384 355.399 256.384 349.965 264.367 345.043C276.81 337.328 289.339 329.752 301.951 322.317C309.789 317.647 317.597 312.653 325.779 308.607C331.468 305.794 337.972 303.123 344.252 302.046C365.402 298.416 387.432 304.413 408.829 303.103C423.925 302.178 430.679 298.26 444.161 295.069C446.306 295.016 448.577 295.579 450.571 296.35C452.919 297.258 454.783 298.645 455.731 301.05C456.749 303.629 456.377 306.505 455.313 309.005C453.37 313.57 449.242 317.467 444.692 319.398C440.498 321.178 435.373 321.85 430.914 322.873L403.412 329.076C368.698 336.686 334.19 345.209 299.924 354.638C291.69 356.955 279.292 359.34 271.844 362.516C270.122 363.25 268.658 364.065 267.916 365.854C268.061 367.039 268.488 367.505 269.247 368.401C270.14 368.825 270.761 368.961 271.73 368.834C276.939 368.151 282.485 366.053 287.574 364.614C297.89 361.663 308.232 358.805 318.6 356.041C345.734 349.063 372.966 342.467 400.285 336.255C424.125 330.795 450.094 323.218 474.691 323.603C489.801 323.84 503.182 327.138 513.926 338.225C506.694 340.795 499.062 342.125 491.817 344.708C450.353 359.26 409.681 375.977 369.969 394.79C367.359 396.003 364.244 397.516 363.188 400.369L364.108 401.671C368.337 403.461 373.162 399.924 376.987 398.177C408.475 383.446 440.557 370.021 473.152 357.934C490.615 351.609 508.46 346.595 526.088 340.786C533.974 338.187 541.732 335.092 549.546 332.274C547.661 335.171 546.097 338.418 546.932 341.974C547.944 346.28 551.637 348.289 555.157 350.333C551.642 358.55 544.403 365.083 538.175 371.288C511.278 398.086 480.94 418.973 445.814 433.42C435.692 437.583 425.413 441.639 415.125 445.37C409.449 447.429 403.559 449.026 398 451.397C396.716 451.945 395.377 452.581 394.373 453.576C393.853 454.092 393.55 454.493 393.681 455.276C393.918 456.688 394.486 456.956 395.583 457.652C401.633 458.392 437.434 443.354 445.677 440.038C469.426 430.233 489.121 419.223 509.891 404.221C509.003 409.625 507.718 415.069 506.399 420.384C498.631 451.685 477.364 473.721 449.01 488.204C442.072 491.748 433.937 493.454 427.359 497.42C426.786 498.461 426.852 498.745 426.899 499.952C427.797 501.087 428.488 501.55 429.974 501.647C433.544 501.88 438.481 499.61 441.748 498.249C460.374 490.484 474.836 479.839 489.542 466.074C487.032 471.803 483.514 477.207 480.266 482.536C466.106 505.771 445.748 535.816 423.063 551.381C408.407 561.437 391.026 568.594 374.707 575.481C354.113 584.171 330.273 592.643 308.522 597.915C256.564 566.121 214.604 527.588 181.703 475.994C175.802 466.74 169.388 457.11 164.888 447.074Z"/>
	<path fill="#DAD7FB" d="M910.961 322.199C915.352 320.85 919.795 320.19 924.351 319.699C928.733 319.135 934.572 318.974 938.821 320.274C941.475 321.086 943.651 322.609 944.939 325.107C948.42 331.86 945.213 341.358 942.878 348L938.197 345.032C928.503 338.999 919.005 330.3 910.961 322.199Z"/>
	<path fill="#DAD7FB" d="M579.547 351.266C572.428 349.349 564.291 347.87 557.58 344.9C555.593 344.02 553.151 342.515 552.484 340.286C551.908 338.358 552.593 336.797 553.62 335.198C556.757 330.312 561.035 328.341 566.504 327.129C569.198 326.874 571.983 326.751 574.664 327.197C580.297 328.132 585.884 330.936 589.191 335.72C590.898 338.189 591.945 341.243 591.293 344.247C590.369 348.506 587.407 350.354 584.017 352.576L579.547 351.266Z"/>
	<path fill="#DAD7FB" d="M856.129 468.536C852.31 471.39 846.337 474.83 841.541 475.453C839.325 475.741 837.04 475.612 834.794 475.852C833.826 476.716 833.769 477.012 833.363 478.264C833.488 479.21 833.585 479.973 834.12 480.799C834.842 481.914 836.227 482.975 837.589 483.082C845.332 483.688 857.725 475.636 863.594 471.19C875.382 462.259 886.86 451.392 896.519 440.223C916.369 417.27 939.331 380.875 948.341 351.902C950.566 344.745 951.684 337.618 952.72 330.224C956.81 333.197 960.392 337.164 964.122 340.584C971.594 347.438 979.104 354.069 986.091 361.428C984.653 368.283 982.217 375.115 979.972 381.742C964.587 426.569 939.504 467.451 906.511 501.475C896.709 511.668 887.187 521.222 874.363 527.568C865.342 519.971 857.082 511.62 847.723 504.369C839.911 498.317 831.103 493.597 823.82 486.887C823.268 486.311 822.733 485.721 822.214 485.116C811.311 472.536 812.142 457.877 813.187 442.184C830.834 446.37 844.91 454.017 856.129 468.536Z"/>
	<path fill="#7567B4" d="M983.633 350.32C986.704 350.862 989.777 351.514 992.568 352.953C999.48 356.514 1004.52 362.899 1010.02 368.231C1014.44 372.511 1019.01 376.455 1024 380.057L1024 685.797C1003.51 666.422 983.22 646.842 963.126 627.058L913.778 580.222C898.401 565.59 883.28 550.902 867.393 536.804C876.849 534.157 884.482 530.06 892.047 523.777C931.667 490.872 962.871 443.733 981.687 396.063C986.382 384.168 991.327 371.013 992.521 358.217C989.694 355.464 986.597 352.926 983.633 350.32Z"/>
	<path fill="#7567B4" d="M516.974 398.686C520.953 394.705 525.858 391.427 530.112 387.702C541.928 377.357 553.189 365.755 561.652 352.494C571.276 356.153 581.756 358.494 591.663 361.417C591.543 369.082 590.268 376.785 589.203 384.369C587.35 397.551 585.319 410.678 582.179 423.625C565.379 433.398 547.283 441.096 531.112 451.91C513.805 463.483 503.469 477.272 499.641 498.07C498.497 504.286 498.17 510.607 496.935 516.818C492.711 520.579 488.74 524.617 485.05 528.903C469.422 547.401 462.908 570.336 463.494 594.302C463.66 601.089 464.575 607.835 465.134 614.596C459.019 623.817 455.89 634.594 454.949 645.517C453.409 642.936 451.601 638.931 448.756 637.675L447.774 638.068C446.131 641.283 449.17 654.995 448.847 660.07C448.077 672.172 442.185 682.947 433.196 690.878C431.537 691.947 429.907 692.837 427.973 693.308C421.766 694.819 414.852 693.149 409.45 689.968C412.215 689.491 415.007 689.142 417.757 688.586C425.278 687.066 430.915 682.098 434.982 675.83C440.601 667.17 443.975 655.047 441.628 644.803C439.705 636.404 434.632 631.14 427.544 626.799C431.365 605.775 436.425 584.784 440.881 563.864C442.608 555.753 444.653 547.594 445.901 539.395C463.058 521.254 484.061 492.55 494.554 469.979C497.636 463.351 499.424 456.351 502.1 449.585C504.058 444.631 506.489 439.882 508.347 434.883C512.669 423.254 515.134 410.921 516.974 398.686Z"/>
	<path fill="#9F8BE8" d="M573.626 519.834C570.405 512.886 567.897 506.124 568.542 498.338C569.275 489.511 572.677 481.14 575.369 472.781C577.707 465.439 579.894 458.05 581.929 450.619C589.725 422.149 595.154 393.084 598.163 363.72C618.04 369.857 637.785 376.409 657.388 383.373C649.142 409.329 642.073 436.279 630.596 461.054C627.051 455.51 623.01 450.278 616.456 448.165C611.892 446.695 606.732 447.246 602.501 449.455C594.834 453.457 591.761 461.103 589.477 468.891C587.672 476.018 588.424 482.854 587.209 489.906C585.916 497.42 577.601 512.769 573.626 519.834Z"/>
	<path fill="#9F8BE8" d="M635.211 468.336C645.656 442.989 656.174 412.129 663.012 385.722C672.827 389.331 682.679 394.021 691.728 399.27C698.541 403.223 705.069 407.673 712.098 411.25C741.09 426.003 773.934 434.431 805.748 440.428C796.68 460.639 788.939 481.655 780.426 502.127C766.925 534.349 753.076 566.425 738.883 598.348C733.219 611.192 728.449 625.011 721.771 637.308C719.131 626.076 717.464 614.412 715.254 603.073C714.124 597.28 713.191 591.374 711.01 585.86C706.113 573.479 693.943 559.056 686.063 548.092C675.491 533.11 665.255 517.895 655.361 502.457C648.305 491.525 640.503 480.236 635.211 468.336Z"/>
	<path fill="#DAD7FB" d="M496.575 526.158C495.482 534.615 490.547 582.116 491.687 587.989C491.899 589.077 492.4 589.867 493.495 590.226C494.775 590.645 495.775 590.359 496.901 589.758C497.694 588.621 497.854 587.218 498.015 585.868C498.926 578.198 499.101 570.281 499.658 562.566C500.995 544.044 502.312 525.254 504.768 506.838C505.496 501.249 506.674 495.728 508.291 490.328C510.737 482.108 515.064 474.57 520.929 468.312C534.877 453.414 561.133 441.901 579.164 432.398L579.788 432.547C581.006 438.146 566.112 478.158 563.826 487.593C562.898 491.323 562.395 495.147 562.329 498.99C562.242 503.766 562.755 508.479 564.115 513.066C568.899 529.2 585.539 554.307 596.959 566.182C604.448 573.969 637.311 600.72 646.489 600.912C647.254 600.565 647.687 600.579 648.07 599.772C650.437 594.786 639.74 591.122 636.608 588.716C634.198 586.865 632.185 584.486 630.589 581.911C627.263 576.543 624.485 570.62 621.541 565.021C612.933 548.651 603.912 531.427 598.51 513.697C594.038 499.014 591.183 475.373 599.056 461.37C601.036 457.848 604.021 454.905 608.027 453.893C611.277 453.072 615.121 453.285 617.97 455.183C626.066 460.574 632.023 475.686 636.828 484.123C640.533 490.517 644.336 496.853 648.234 503.131C658.966 520.309 670.23 537.149 682.01 553.625C688.403 562.584 697.884 573.828 702.817 583.43C707.548 592.637 708.693 603.145 710.627 613.195C713.097 626.032 715.325 638.862 717.549 651.744C722.149 678.388 726.483 705.329 732.129 731.764C702.588 736.061 676.234 749.091 651.752 765.686C630.67 780.651 613.065 800.166 598.271 821.209C594.294 826.866 591.068 833.009 586.986 838.577C582.222 827.632 579.307 815.17 572.517 805.215C564.484 793.437 553.691 783.475 544.173 772.91C527.485 754.055 511.102 734.93 495.033 715.544C486.611 705.381 477.552 695.295 470.016 684.477C467.179 680.403 464.403 675.96 462.806 671.231C457.735 656.215 460.361 636.91 467.281 622.915C468.706 627.345 474.419 651.161 475.858 652.917C476.142 653.264 476.626 653.38 477.01 653.612C478.271 653.6 479.056 653.663 480.182 653.017C481.212 651.322 480.996 649.786 480.616 647.927C479.96 644.719 478.62 641.691 477.729 638.546C472.975 621.767 468.763 604.827 469.644 587.243C470.789 564.378 479.454 541.723 496.575 526.158Z"/>
	<path fill="#DAD7FB" d="M115.403 474.5C129.457 466.034 142.926 454.556 156.294 444.903C158.406 445.984 165.72 462.22 167.788 465.69C177.576 482.115 188.401 498.445 200.63 513.166C225.369 543.256 254.356 569.585 286.681 591.325C301.208 600.955 316.42 609.34 331.342 618.315C322.027 632.243 300.316 648.12 286.294 657.49C284.138 658.969 281.817 660.219 279.553 661.524C275.549 658.897 271.923 655.35 268.347 652.17C259.558 644.352 251.175 636.252 242.777 628.024C234.916 620.323 226.861 612.824 219.162 604.958C179.926 564.87 145.028 522.2 115.403 474.5Z"/>
	<path fill="#DAD7FB" d="M806.369 455.393C806.955 484.143 817.072 490.034 838.849 505.508C843.517 508.825 848.359 512.287 852.353 516.402C856.079 520.24 854.751 520.596 854.718 525.478C854.699 528.345 855.221 531.738 856.969 534.1C860.89 539.397 867.172 544.305 871.96 548.912L906.398 581.877C945.936 619.194 985.138 656.865 1024 694.885L1024 1024L943.263 1024C903.707 965.175 864.662 906.007 826.134 846.504L790.407 791.307C785.156 783.088 780.538 773.502 774.505 765.907C772.076 762.849 767.488 761.308 764.054 759.735C757.042 749.534 750.316 737.288 738.942 731.587C736.095 720.417 723.506 654.526 724.216 649.104C724.927 643.678 730.457 634.55 732.769 629.282L751.466 585.708C764.158 556.746 776.56 527.658 788.672 498.449C794.618 484.135 801 469.932 806.369 455.393Z"/>
	<path fill="#9F8BE8" d="M0 530.116C22.5062 513.642 46.2675 498.612 69.9514 483.893C80.5711 477.293 91.597 471.212 101.888 464.118C106.457 472.78 111.86 480.926 117.098 489.192C149.05 539.613 189.127 584.46 231.558 626.233C254.228 648.551 277.311 670.251 303.59 688.305C296.047 694.689 289.368 702.143 282.334 709.08C271.331 719.87 260.058 730.383 248.526 740.607C183.878 797.144 113.655 845.903 35.5802 882.11C23.7711 887.587 12.249 893.788 0 898.258L0 530.116Z"/>
	<path fill="#7567B4" d="M577.314 526.648C580.936 518.658 585.045 510.829 588.926 502.959C590.87 506.12 591.882 513.226 593.099 517.046C595.238 523.762 597.759 530.426 600.427 536.949C606.444 551.659 614.715 565.722 622.171 579.743C619.667 577.918 617.255 575.936 614.812 574.028C598.55 560.835 587.215 544.894 577.314 526.648Z"/>
	<path fill="#7567B4" d="M291.662 1024C294.542 1014.29 296.955 1004.44 299.709 994.687L324.853 906.422L361.152 783.131C369.358 755.704 377.916 728.38 385.718 700.831C392.69 675.851 399.495 650.824 406.133 625.753C411.794 603.729 417.024 581.612 422.896 559.641C427.979 555.434 433.277 551.529 438.028 546.935C436.589 555.427 434.356 563.786 432.647 572.233C423.832 615.057 413.172 657.481 400.697 699.387C394.903 719.105 388.46 738.662 382.501 758.34L339.172 906.101C332.012 930.514 325.055 954.987 318.301 979.515C315.551 989.315 312.891 999.139 310.322 1008.99C308.977 1013.96 307.191 1018.97 306.184 1024L291.662 1024Z"/>
	<path fill="#9F8BE8" d="M0 905.244C35.9292 889.23 71.2664 872.652 105.404 853.009C166.301 817.97 222.892 773.692 274.095 725.75C281.457 718.858 307.206 695.354 310.49 687.543C312.472 682.829 311.747 676.941 309.695 672.398C307.01 666.455 302.242 661.789 297.536 657.415C305.845 650.879 336.084 628.965 336.975 618.763C337.127 617.023 336.593 615.569 335.457 614.257C330.78 608.853 321.583 606.092 315.639 602.075C339.611 595.573 363.081 587.344 385.864 577.451C395.79 573.158 405.358 568.046 415.323 563.878C409.66 584.126 405.527 604.769 400.005 625.046C382.568 689.363 364.148 753.411 344.751 817.165C330.634 863.162 317.086 909.332 304.109 955.664C299.737 970.818 295.475 986.003 291.324 1001.22C289.273 1008.65 286.539 1016.41 285.233 1024L0 1024L0 905.244Z"/>
	<path fill="#DAD7FB" d="M411.493 683.659C416.27 666.876 420.875 650.045 425.306 633.167C428.774 634.608 431.349 637.148 433.155 640.45C436.667 646.872 436.574 654.833 434.595 661.725C432.233 669.951 427.82 676.985 420.215 681.22C417.28 682.408 414.591 683.088 411.493 683.659Z"/>
	<path fill="#7567B4" d="M408.372 696.279C411.077 697.927 414.078 699.268 417.165 700.005C423.567 701.531 430.045 700.567 435.638 697.079C446.022 690.604 451.592 678.184 454.448 666.769C458.394 677.02 462.024 685.199 469.287 693.627C466.901 699.483 465.266 705.766 463.347 711.799C461.081 718.922 458.55 725.962 456.144 733.039L430.327 806.813C425.107 801.425 419.574 796.276 414.226 791.012C405.294 782.167 396.524 773.16 387.92 763.995C393.682 741.236 401.577 718.769 408.372 696.279Z"/>
	<path fill="#9F8BE8" d="M408.099 1024C409.158 991.47 410.393 958.947 411.804 926.43C412.633 909.373 412.896 891.666 415.543 874.801C418.037 858.908 424.013 843.5 429.246 828.342C436.668 806.782 444.279 785.289 452.081 763.864L468.236 717.005C470.21 711.306 471.741 705.308 474.022 699.745C484.033 710.737 493.104 722.8 502.401 734.41C510.955 744.896 519.645 755.271 528.468 765.531C535.362 773.58 542.434 781.476 549.678 789.212C555.575 795.57 562.317 801.904 566.93 809.288C573.948 820.521 577.706 834.751 582.574 847.044C579.035 854.917 574.937 863.77 573.74 872.335C571.731 886.707 582.208 912.095 587.35 925.653C588.164 927.838 589.03 930.004 589.945 932.15C587.063 942.619 581.835 962.829 582.703 973.183C583.617 984.092 598.157 1012.01 602.938 1024L408.099 1024Z"/>
	<path fill="#DAD7FB" d="M593.369 921.27C588.598 908.649 583.266 895.285 581.068 881.917C577.893 862.611 596.954 833.591 608.162 818.123C634.417 781.889 684.011 745.857 728.829 738.657C732.028 738.345 735.185 738.508 738.39 738.636C738.435 738.665 738.479 738.696 738.525 738.724C745.724 743.154 752.426 753.215 756.748 760.418C739.487 762.527 723.29 766.994 707.457 774.169C696.465 779.15 686.216 785.619 676.521 792.774C636.17 822.553 614.831 863.735 597.507 909.688C596.013 913.52 594.628 917.354 593.369 921.27Z"/>
	<path fill="#7567B4" d="M609.501 1024C605.897 1012.2 600.095 1000.77 595.196 989.44C593.237 984.909 590.671 980.001 589.563 975.178C588.246 969.441 590.354 961.771 591.509 956.057C598.037 923.908 609.329 892.915 625.012 864.101C646.634 823.502 683.652 787.091 728.321 773.475C741.057 769.593 755.532 765.783 768.818 768.761C776.788 783.646 786.516 797.502 795.605 811.7C812.672 838.869 830.174 865.762 848.104 892.369C877.139 936.188 904.887 981.011 935.157 1024L609.501 1024Z"/>
	<path fill="#7567B4" d="M364.983 841.398C366.58 834.174 368.992 827.168 370.969 820.044C375.406 803.512 380.24 787.088 385.465 770.787C389.306 774.101 392.787 778.301 396.353 781.934C406.959 792.74 417.291 804.112 428.439 814.337C426.145 819.222 424.026 824.014 422.632 829.243C415.162 830.994 407.62 832.502 400.116 834.107C388.372 836.384 376.764 839.294 364.983 841.398Z"/>
	<path fill="#7567B4" d="M313.095 1024C324.153 981.977 335.821 940.117 348.095 898.433C352.871 882.077 356.913 864.094 362.904 848.236C381.81 844.742 400.457 840.348 419.446 837.168C415.923 847.164 412.423 857.13 410.392 867.559C406.851 885.734 406.226 904.96 405.228 923.425C403.737 956.936 402.652 990.463 401.971 1024L313.095 1024Z"/>
</svg>
