<?xml version="1.0" encoding="utf-8" ?>
<svg xmlns="http://www.w3.org/2000/svg" xmlns:xlink="http://www.w3.org/1999/xlink" width="1024" height="1024">
	<path fill="#9F8BE8" d="M0 0L150.047 0C165.923 29.7508 171.221 56.6729 173.358 90.0025C176.313 136.076 170.815 182.987 164.125 228.508C157.362 275.399 148.799 322.013 138.456 368.246C131.612 400.632 124.021 432.855 115.689 464.89C112.091 478.882 108.628 493.015 104.513 506.862C80.8399 506.211 59.7337 501.899 37.9081 492.753C34.4629 491.309 29.9928 488.317 26.5307 487.598C25.574 487.399 23.6496 488.427 22.9786 489.113C22.0604 490.052 22.2099 490.453 22.2722 491.668C26.5211 498.67 55.338 507.094 64.2447 509.243C77.1095 512.346 90.0274 513.173 103.17 514.095C102.547 517.824 102.503 521.358 102.55 525.127C72.0422 522.909 55.4862 522.886 25.5753 531.211C20.8639 532.523 14.204 533.789 10.4857 537.045C9.5215 537.89 8.97281 538.695 8.85458 540.017C8.77525 540.904 9.04151 541.189 9.40379 541.951C11.0942 543.062 12.6081 542.95 14.5234 542.53C20.2673 541.27 25.7251 538.38 31.502 536.925C55.4526 530.893 81.0782 529.09 105.546 533.124C116.091 554.646 137.609 579.076 159.938 588.298C149.813 604.582 140.456 621.344 130.607 637.796L67.1447 742.908C53.5984 733.445 39.8514 724.309 26.2282 714.964C17.7291 709.134 9.0127 702.361 0 697.433L0 0Z"/>
	<path d="M150.047 0L157.896 0C171.594 25.1448 177.491 52.0299 179.972 80.3922C184.764 135.192 177.132 191.242 168.823 245.368C158.845 308.686 146.194 371.554 130.902 433.803C127.164 448.89 108.638 512.513 110.001 522.258C110.753 527.637 113.671 533.171 116.391 537.799C127.073 555.973 144.339 573.607 163.779 582.24C165.29 579.864 166.736 577.151 169.747 576.553C171.85 576.135 173.891 576.609 175.836 577.422C180.183 579.239 184.301 581.975 188.46 584.197L212.854 597.142C218.417 600.159 224.796 602.733 229.986 606.322C231.852 607.613 232.998 609.313 233.355 611.569C233.585 613.016 233.597 614.494 233.596 615.955C237.353 618.792 258.383 626.486 263.858 628.733C295.508 641.727 327.029 655.213 359.051 667.271C365.522 669.708 405.601 682.348 407.949 684.778C407.963 691.854 402.602 702.395 400.523 709.469C419.062 709.354 437.208 708.5 455.248 703.872C466.539 700.975 477.837 696.559 489.363 694.816C506.022 692.297 523.482 697.27 539.816 692.237C544.496 690.795 554.551 685.084 559.049 687.078C559.996 687.498 560.87 688.07 561.594 688.814C564.199 691.493 564.615 695.567 564.445 699.118C564.407 699.889 564.358 700.66 564.3 701.43C567.224 701.58 570.176 701.648 573.084 701.988C573.561 680.611 573.365 659.204 573.604 637.819C573.787 621.434 574.651 604.696 573.753 588.339C573.224 578.696 572.017 569.005 570.988 559.399C565.672 509.728 556.27 458.052 535.694 412.254C528.042 395.452 518.681 379.481 507.76 364.595C502.843 357.832 497.691 350.659 491.851 344.658L491.198 343.996C477.556 345.756 463.963 342.817 452.994 334.257C441.283 325.12 434.521 312.84 432.795 298.098C432.098 292.145 432.502 286.301 433.18 280.367C417.344 265.986 402.813 250.201 387.438 235.334C347.989 197.19 307.891 159.777 269.698 120.346C256.335 106.55 243.584 92.1566 230.701 77.9182C221.961 68.2595 194.924 40.4538 194.306 29.2686C194.033 24.3335 196.423 20.3949 199.683 16.9095C205.552 10.6364 212.904 5.36373 219.615 0L231.168 0C224.899 4.8513 202.223 20.7674 201.639 27.7433C201.364 31.0183 203.946 35.1012 205.726 37.7613C211.709 46.703 219.544 54.7429 226.627 62.836C240.503 78.5856 254.613 94.1285 268.951 109.46C315.574 158.732 366.012 204.592 414.264 252.272C455.935 293.45 510.635 346.005 536.746 398.313C560.819 446.54 571.206 501.247 577.534 554.387C580.701 523.393 582.451 484.934 579.918 454.019C577.146 421.827 570.848 390.037 561.137 359.22C536.638 278.717 494.797 208.408 441.912 143.486C420.019 116.61 396.818 90.8186 373.968 64.7631C361.271 50.2853 347.562 36.1394 336.727 20.181C332.399 13.8064 329.027 7.40722 326.87 0L333.204 0C343.481 20.8773 359.725 37.7564 374.826 55.1972C398.351 82.3666 423.294 108.68 445.618 136.852C486.129 101.152 531.231 55.7391 539.502 0L546.523 0C537.292 59.3134 492.6 103.948 449.835 142.415C456.757 150.557 463.131 159.208 469.595 167.718C481.106 182.871 492.543 198.223 502.217 214.635C502.39 214.503 502.563 214.37 502.737 214.24C509.158 209.474 516.561 205.614 523.412 201.477C532.883 195.756 542.172 189.738 551.263 183.431C592.956 154.439 632.454 122.412 669.435 87.61C678.13 79.3285 688.215 70.5527 695.162 60.7016C697.688 57.1198 699.87 53.0492 700.497 48.6641C701.221 43.6032 699.704 39.5473 696.623 35.5912C692.092 29.7709 685.846 25.3046 680.098 20.7617C671.6 14.044 662.925 7.53488 655.121 0L666.328 0C671.384 4.32959 676.521 8.56464 681.735 12.703C691.395 20.4508 706.829 30.7588 708.087 44.2066C709.032 54.3165 701.937 63.8941 695.665 71.0754C687.316 80.6346 677.438 88.6899 668.841 97.9791C667.21 139.23 663.518 180.373 657.78 221.255L649.921 275.174C647.882 288.726 645.403 302.605 644.645 316.285C680.062 289.397 722.48 277.778 766.64 283.762C779.009 285.438 792.613 288.394 803.943 293.598C797.581 276.219 791.443 258.838 786.487 240.995C753.303 238.051 721.278 242.446 690.883 256.443C688.034 257.755 684.189 260.052 681.124 258.295C680.363 257.242 680.375 256.666 680.39 255.386C682.107 251.284 688.218 249.702 692.054 248.128C724.946 234.633 749.426 233.026 784.433 233.502C778.648 210.652 773.812 187.571 769.937 164.321C761.563 111.824 756.312 47.1476 731.61 0L739.773 0C764.816 51.0316 768.24 110.762 777.553 166.1C784.686 208.48 794.042 246.968 809.256 287.282C814.022 299.912 819.557 312.303 825.069 324.623C830.617 337.024 837.944 350.92 840.128 364.395C840.882 369.045 840.418 373.674 838.91 378.116C834.398 391.405 822.215 402.338 810.424 409.242C822.686 430.686 849.434 461.488 853.82 483.531C855.845 493.709 855.138 504.509 854.342 514.8C853.061 531.367 850.69 547.859 846.314 563.911L843.881 572.706C856.685 590.02 867.737 609.512 871.859 630.86C873.651 647.315 874.952 664.076 863.817 677.868C857.409 685.805 847.562 690.154 837.557 691.195C804.595 694.627 759.434 663.007 735.01 642.91C729.02 637.975 723.213 632.823 717.602 627.463C706.127 636.393 693.784 645.032 682.947 654.709C683.972 655.967 685.768 657.691 686.24 659.261C684.773 657.989 683.4 656.588 681.999 655.243C672.253 662.405 610.846 713.501 606.29 714.411C604.75 714.719 603.169 714.056 601.951 713.147C599.176 711.075 592.697 704.137 592.316 700.563C592.157 699.075 594.301 696.858 595.207 695.732C602.752 686.356 611.141 677.516 619.007 668.389C629.628 656.065 639.801 643.43 650.226 630.952L650.143 630.199C654.099 628.041 680.201 594.827 684.538 589.015C677.446 581.034 671.043 572.433 664.616 563.917C651.431 546.444 637.063 527.925 629.854 507.025C625.007 492.975 626.033 480.58 632.428 467.346C630.24 452.104 630.476 435.861 630.487 420.459C630.658 391.81 632.212 363.186 635.142 334.686C638.895 299.685 644.623 265.061 649.393 230.212C655.483 188.645 659.547 146.805 661.572 104.843C652.332 112.29 643.738 120.495 634.692 128.171C619.285 141.246 603.179 154.004 586.957 166.044C571.234 177.712 555.268 189.406 538.837 200.058C527.962 207.109 516.478 213.258 505.823 220.629C510.305 227.905 514.668 235.255 518.909 242.675C524.264 244.863 529.753 249.234 533.296 253.799C539.75 262.113 540.346 271.061 539.081 281.139C565.278 340.492 585.689 402.895 587.991 468.262C589.193 502.396 586.239 536.086 582.959 570.005C580.036 591.772 581.031 613.887 580.959 635.802C580.735 658.726 580.334 681.648 579.755 704.566C588.5 710.793 594.775 717.024 596.687 728.03C597.548 732.988 596.576 737.139 596.54 742.015C594.818 748.185 592.315 752.741 588.344 757.756C591.119 763.693 597.848 774.93 595.416 781.471C593.072 787.774 583.095 790.946 577.332 793.356L565.743 964.058C565.062 976.275 564.22 988.483 563.216 1000.68C562.59 1008.38 561.536 1016.28 561.421 1024L554.43 1024C554.421 1012.9 555.734 1001.61 556.549 990.54L560.552 934.703C563.844 888.93 566.137 843.098 570.019 797.361C564.599 799.564 559.073 801.732 553.913 804.498C543.675 809.989 534.751 816.542 523.234 819.482C497.761 825.987 455.138 811.119 431.201 800.801C410.607 791.923 391.182 780.55 368.147 779.796C355.259 803.369 341.961 826.948 326.858 849.18C323.042 854.797 319.372 860.953 314.787 865.969C300.453 861.038 286.572 853.792 272.596 847.894L206.559 820.402C190.562 813.718 174.612 806.683 158.377 800.608C146.667 855.81 132.967 910.57 117.302 964.782C111.578 984.6 105.043 1004.19 99.2598 1024L91.4093 1024C98.0664 1007.23 102.673 989.155 107.81 971.87C117.603 938.922 126.952 905.475 134.933 872.028C140.844 847.252 145.774 822.212 151.867 797.503C149.225 796.292 146.501 795.217 143.822 794.089C139.27 811.371 135.399 828.816 131.019 846.138C124.278 872.339 117.158 898.442 109.662 924.437C103.477 945.7 96.9863 966.872 90.1915 987.948C86.3193 999.966 82.012 1011.87 78.5132 1024L70.1762 1024C91.0184 964.944 109.005 904.92 124.074 844.134L132.739 810.084C134.247 803.999 136.149 797.824 136.868 791.587C133.343 789.432 129.578 788.258 125.649 787.086C122.215 790.718 119.27 796.672 114.724 798.845C113.058 798.486 111.593 797.659 110.122 796.829C104.572 793.695 99.4456 789.733 93.9734 786.438C83.3917 780.065 72.5107 774.139 62.2047 767.317C60.2197 766.003 58.1688 764.655 56.5634 762.883C56.0097 758.215 61.1456 752.345 63.7586 748.615C42.1619 734.891 21.2525 720.071 0 705.822L0 697.433C9.0127 702.361 17.7291 709.134 26.2282 714.964C39.8514 724.309 53.5984 733.445 67.1447 742.908L130.607 637.796C140.456 621.344 149.813 604.582 159.938 588.298C137.609 579.076 116.091 554.646 105.546 533.124C81.0782 529.09 55.4526 530.893 31.502 536.925C25.7251 538.38 20.2673 541.27 14.5234 542.53C12.6081 542.95 11.0942 543.062 9.40379 541.951C9.04151 541.189 8.77525 540.904 8.85458 540.017C8.97281 538.695 9.5215 537.89 10.4857 537.045C14.204 533.789 20.8639 532.523 25.5753 531.211C55.4862 522.886 72.0422 522.909 102.55 525.127C102.503 521.358 102.547 517.824 103.17 514.095C90.0274 513.173 77.1095 512.346 64.2447 509.243C55.338 507.094 26.5211 498.67 22.2722 491.668C22.2099 490.453 22.0604 490.052 22.9786 489.113C23.6496 488.427 25.574 487.399 26.5307 487.598C29.9928 488.317 34.4629 491.309 37.9081 492.753C59.7337 501.899 80.8399 506.211 104.513 506.862C108.628 493.015 112.091 478.882 115.689 464.89C124.021 432.855 131.612 400.632 138.456 368.246C148.799 322.013 157.362 275.399 164.125 228.508C170.815 182.987 176.313 136.076 173.358 90.0025C171.221 56.6729 165.923 29.7508 150.047 0ZM780.78 567.557C773.703 554.279 764.017 542.215 749.468 536.685C746.229 535.454 742.541 534.495 739.259 536.047C736.97 537.13 734.944 538.899 733.189 540.702C728.859 545.148 693.542 587.154 692.846 589.787C692.59 590.753 693.236 591.462 693.675 592.317C692.888 591.967 692.025 591.282 691.199 591.698C688.884 592.866 642.701 650.184 637.186 656.749C628.515 667.071 619.542 677.12 610.681 687.278C613.974 689.943 617.313 692.549 620.696 695.097C635.6 685.012 649.47 672.688 663.655 661.569L697.335 634.625C703.45 629.752 709.983 625.214 715.71 619.892C724.487 612.291 733.835 605.339 742.948 598.148C755.663 588.08 768.274 577.882 780.78 567.557ZM542.139 699.091C524.926 703.09 508.757 699.341 491.669 701.505C482.605 702.653 473.695 706.202 464.87 708.536C440.632 714.947 423.101 717.09 397.906 715.949C392.574 728.437 387.076 740.854 381.412 753.196C378.257 759.903 374.463 766.341 371.606 773.181C393.04 774.954 407.57 782.64 426.708 791.027C453.794 802.895 485.599 815.573 515.652 813.548C515.514 813.477 515.377 813.405 515.238 813.336C509.129 810.294 491.515 806.427 489.495 799.652C489.209 798.693 489.354 798.434 489.824 797.594C492.091 796.522 495.011 797.583 497.246 798.398C512.576 803.987 523.458 812.943 540.268 805.261C540.998 804.934 541.719 804.586 542.43 804.219C534.906 802.337 505.446 795.777 502.223 789.572C501.702 788.568 501.48 787.666 502.034 786.607C502.642 785.448 503.345 785.222 504.471 784.804C507.906 785.052 511.779 787.38 515.001 788.656C526.372 793.16 540.521 798.137 552.836 796.09C555.936 795.574 558.948 794.338 561.891 793.269C552.492 792.175 518.447 784.023 512.31 776.81C511.517 775.877 511.243 775.059 511.049 773.874C511.549 772.958 511.67 772.781 512.722 772.423C514.093 771.957 515.76 772.214 517.134 772.553C520.379 773.352 523.536 774.957 526.623 776.227C532.966 778.839 539.228 781.426 545.872 783.206C553.114 785.145 560.197 786.14 567.699 786.084C572.853 786.045 577.916 785.643 582.621 783.328C585.199 782.06 587.284 780.141 589.368 778.206C587.168 772.908 585.047 767.577 583.006 762.216C571.384 769.897 563.236 771.678 549.547 768.912C533.06 765.58 507.707 750.27 498.237 736.458C497.112 734.816 495.93 732.835 496.334 730.76C497.039 727.146 501.195 724.269 504.188 722.638C516.502 715.931 531.281 714.394 543.843 707.81C548.257 705.676 554.025 702.387 556.333 697.885C556.899 696.781 557.421 695.593 557.072 694.354C553.902 693.31 545.627 697.987 542.139 699.091ZM438.977 286.734C439.625 302.146 442.326 314.798 454.077 325.713C463.293 334.272 473.644 338.051 486.111 338.056C476.224 326.34 465.819 315.257 455.485 303.946C450.411 298.392 445.272 290.91 438.977 286.734ZM736.082 289.706C698.123 292.377 672.731 302.405 643.458 326.925C640.903 345.345 639.616 363.706 638.625 382.259C650.267 363.988 666.975 349.936 685.751 339.41C721.545 320.557 768.099 311.013 807.57 323.084C810.542 323.971 813.454 325.046 816.29 326.303C813.398 318.244 810.662 309.99 806.77 302.348C787.108 292.192 758.145 287.587 736.082 289.706ZM754.846 325.708C717.928 328.621 678.101 345.399 653.73 373.831C648.02 380.493 643.57 388.177 638.068 395.006C638.028 405.493 637.79 416.022 638.166 426.502C642.842 405.596 657.589 390.264 674.246 377.713C710.581 352.189 757.594 339.261 801.849 347.093C810.907 348.68 819.714 351.463 828.04 355.367C825.249 348.537 822.287 341.777 819.158 335.095C803.235 326.707 784.086 325.187 766.333 325.305C762.614 325.33 758.509 325.197 754.846 325.708ZM760.296 352.686C743.046 354.882 725.41 358.303 709.584 365.815C722.058 399.804 724.858 425.356 724.899 461.386C733.204 466.319 741.068 471.823 748.983 477.351C747.747 472.937 741.551 455.117 743.778 451.373C744.221 450.629 744.72 450.69 745.493 450.452C746.727 450.776 747.532 450.929 748.224 452.101C751.756 458.086 756.448 476.299 757.635 483.458C766.42 492.142 775.13 500.604 784.558 508.602C785.47 499.29 785.62 489.063 783.549 479.883C782.566 475.528 780.59 470.833 780.314 466.404C780.216 464.826 780.483 464.159 781.57 463.045C783.005 462.827 783.985 462.895 785.158 463.854C790.225 467.997 791.132 487.494 791.429 494.227C791.719 500.793 791.733 507.63 790.698 514.139C795.476 518.649 800.556 522.936 805.18 527.59C806.632 519.085 807.874 510.67 808.504 502.061C808.833 497.578 809.23 493.061 809.154 488.564C809.08 484.18 808.523 479.54 808.832 475.182C808.937 473.692 809.132 472.627 809.86 471.321C811.018 470.561 811.128 470.52 812.512 470.54C814.055 471.304 814.854 471.968 815.392 473.657C817.048 478.852 816.039 486.273 815.913 491.716C815.042 505.79 814.175 519.572 810.144 533.178C814.279 537.555 818.469 541.878 822.714 546.148L822.968 545.471C826.752 535.131 828.046 507.586 828.588 495.783C828.787 491.457 828.415 486.766 829.103 482.514C829.417 480.573 830.216 477.394 832.183 476.456C832.742 476.19 832.708 476.348 833.429 476.548C836.841 480.194 836.009 487.589 835.853 492.267C835.282 509.414 835.181 536.052 827.575 551.052L838.647 565.325C844.403 548.666 850.058 507.742 848.077 490.078C847.355 483.643 845.463 477.67 842.66 471.842C835.657 457.286 824.676 443.856 815.511 430.587C799.032 406.73 783.126 379.848 773.611 352.318C769.354 352.284 764.47 351.889 760.296 352.686ZM780.007 352.442C787.831 369.872 796.059 387.073 806.15 403.321C811.713 400.043 816.795 396.012 821.252 391.342C825.618 386.415 832.96 379.39 832.279 372.285C832.137 370.805 831.744 369.321 831.397 367.879C817.981 355.391 797.722 352.383 780.007 352.442ZM702.697 368.41C697.391 371.265 691.886 373.994 686.824 377.265C672.135 386.756 651.93 404.04 646.857 421.128C645.47 425.797 645.382 430.398 647.789 434.761C650.255 439.231 654.839 442.103 659.726 443.271C664.644 444.446 669.914 443.853 674.927 444.053C690.178 445.531 703.952 450.661 717.741 457.036C717.387 426.855 714.933 397.519 703.765 369.132C702.93 368.402 703.338 368.537 702.697 368.41ZM637.936 435.335C638.063 442.698 638.177 450.283 639.042 457.594C641.644 455.599 644.215 453.537 646.863 451.606C648.692 450.443 650.485 449.242 652.442 448.304C645.135 443.937 643.585 439.739 637.936 435.335ZM667.273 451.664C660.81 452.498 655.091 454.664 649.551 458.109C655.571 457.737 661.269 457.444 667.254 458.501C699.37 464.175 741.837 494.743 766.151 516.254C778.851 527.605 790.978 539.582 802.487 552.141C829.14 581.079 854.086 614.254 861.259 653.904C861.732 657.938 862.139 661.981 862.479 666.029C869.551 644.652 864.506 623.031 854.631 603.383C836.452 567.212 805.443 536.46 775.685 509.581C768.716 503.287 762.095 496.556 754.946 490.472C738.183 476.204 717.211 463.019 696.244 456.124C687.206 453.153 676.853 450.745 667.273 451.664ZM646.724 464.571C642.478 465.911 639.833 467.958 637.67 471.924C632.635 481.16 633.207 493.147 636.303 502.891C644.261 527.941 671.789 564.276 689.509 583.952C697.696 572.569 706.971 561.723 716.054 551.053C720.883 545.381 725.741 538.937 731.413 534.087C733.9 531.96 737.02 529.826 740.275 529.209C749.258 527.505 760.883 535.358 767.759 540.368C777.098 547.173 785.72 558.124 788.079 569.62C782.452 575.764 774.756 580.909 768.223 586.131C752.975 598.318 737.313 610.168 722.801 623.231C733.286 632.857 744.29 641.903 755.763 650.33C777.26 665.526 812.207 688.45 839.453 683.915C843.507 683.241 847.558 681.789 850.086 678.369C855.219 671.423 853.975 659.049 852.507 651.073C841.586 591.731 766.236 522.443 718.064 489.65C696.791 475.168 673.112 463.008 646.724 464.571ZM171.13 583.238L103.035 696.679L78.413 737.615C73.9133 745.022 68.6374 752.444 64.8558 760.228C72.68 766.001 81.7056 771.812 90.5121 775.936C85.858 771.213 81.7622 766.186 81.697 759.172C81.6607 754.354 83.6492 749.742 87.1776 746.462C90.7111 743.185 95.3708 741.755 100.14 742.124C105.037 742.503 109.509 744.692 112.558 748.582C115.364 752.162 117.055 756.962 116.401 761.523C115.753 766.05 113.066 769.875 109.872 773.004C105.275 776.362 100.577 778.018 94.8518 777.035C93.3887 776.784 91.9435 776.411 90.5062 776.044C98.2499 780.839 106.155 785.481 113.715 790.558C148.748 750.173 176.447 704.209 202.879 657.92C208.592 647.965 214.135 637.914 219.504 627.77C222.088 622.923 225.017 618.066 227.13 613C219.929 608.561 212.109 604.946 204.664 600.899C193.733 594.957 182.506 588.204 171.13 583.238ZM230.667 622.387C221.548 635.72 214.684 651.373 206.598 665.48C183.797 705.255 160.082 745.598 130.885 781.066C145.765 786.969 160.38 793.474 175.137 799.662L248.518 830.317C266.812 838.159 285.67 845.172 303.627 853.737L312.311 857.773C349.06 805.69 378.667 748.92 400.343 688.977C387.257 684.131 373.799 680.317 360.705 675.447C330.256 664.123 300.048 651.547 270.084 638.982L242.735 627.44C238.77 625.765 234.498 624.323 230.667 622.387ZM606.266 692.561L599.497 700.377C601.444 702.664 603.26 705.163 605.847 706.746C606.974 706.701 607.121 706.533 608.061 705.876C610.728 703.748 613.425 701.659 616.152 699.607C612.926 697.15 609.611 694.85 606.266 692.561ZM562.451 709.466C549.01 711.599 539.836 724.216 541.952 737.661C544.069 751.105 556.675 760.294 570.122 758.193C583.591 756.089 592.799 743.457 590.679 729.99C588.559 716.523 575.916 707.331 562.451 709.466ZM537.299 718.486C525.834 722.59 513.46 725.066 503.249 731.935C510.761 740.08 519.323 747.189 528.711 753.075C535.817 757.153 542.707 760.078 550.595 762.264C542.263 754.971 535.866 748.051 535.01 736.4C534.486 729.274 537.408 725.114 538.124 718.65L537.299 718.486ZM96.0328 749.586C92.9935 751.123 90.9095 752.591 89.7328 755.908C88.7231 758.754 88.8707 761.956 90.3265 764.625C91.5799 766.923 93.8404 768.723 96.3955 769.339C97.9933 769.725 99.7346 769.517 101.357 769.401C104.612 767.602 107.091 765.507 108.13 761.794C108.85 759.217 108.564 756.336 107.193 754.02C105.9 751.836 103.499 750.112 101.019 749.565C99.45 749.22 97.6242 749.465 96.0328 749.586Z"/>
	<path fill="#9F8BE8" d="M157.896 0L219.615 0C212.904 5.36373 205.552 10.6364 199.683 16.9095C196.423 20.3949 194.033 24.3335 194.306 29.2686C194.924 40.4538 221.961 68.2595 230.701 77.9182C243.584 92.1566 256.335 106.55 269.698 120.346C307.891 159.777 347.989 197.19 387.438 235.334C402.813 250.201 417.344 265.986 433.18 280.367C432.502 286.301 432.098 292.145 432.795 298.098C434.521 312.84 441.283 325.12 452.994 334.257C463.963 342.817 477.556 345.756 491.198 343.996L491.851 344.658C497.691 350.659 502.843 357.832 507.76 364.595C518.681 379.481 528.042 395.452 535.694 412.254C556.27 458.052 565.672 509.728 570.988 559.399C572.017 569.005 573.224 578.696 573.753 588.339C574.651 604.696 573.787 621.434 573.604 637.819C573.365 659.204 573.561 680.611 573.084 701.988C570.176 701.648 567.224 701.58 564.3 701.43C564.358 700.66 564.407 699.889 564.445 699.118C564.615 695.567 564.199 691.493 561.594 688.814C560.87 688.07 559.996 687.498 559.049 687.078C554.551 685.084 544.496 690.795 539.816 692.237C523.482 697.27 506.022 692.297 489.363 694.816C477.837 696.559 466.539 700.975 455.248 703.872C437.208 708.5 419.062 709.354 400.523 709.469C402.602 702.395 407.963 691.854 407.949 684.778C405.601 682.348 365.522 669.708 359.051 667.271C327.029 655.213 295.508 641.727 263.858 628.733C258.383 626.486 237.353 618.792 233.596 615.955C233.597 614.494 233.585 613.016 233.355 611.569C232.998 609.313 231.852 607.613 229.986 606.322C224.796 602.733 218.417 600.159 212.854 597.142L188.46 584.197C184.301 581.975 180.183 579.239 175.836 577.422C173.891 576.609 171.85 576.135 169.747 576.553C166.736 577.151 165.29 579.864 163.779 582.24C144.339 573.607 127.073 555.973 116.391 537.799C113.671 533.171 110.753 527.637 110.001 522.258C108.638 512.513 127.164 448.89 130.902 433.803C146.194 371.554 158.845 308.686 168.823 245.368C177.132 191.242 184.764 135.192 179.972 80.3922C177.491 52.0299 171.594 25.1448 157.896 0ZM312.08 249.825C285.919 252.321 266.696 275.495 269.078 301.667C271.46 327.839 294.55 347.162 320.732 344.894C347.075 342.612 366.543 319.348 364.147 293.015C361.751 266.682 338.403 247.315 312.08 249.825ZM311.742 470.391C285.518 474.209 267.315 498.51 271.024 524.75C274.733 550.991 298.957 569.295 325.213 565.696C351.624 562.075 370.061 537.675 366.33 511.28C362.599 484.884 338.122 466.55 311.742 470.391ZM477.831 471.461C451.074 473.845 431.342 497.509 433.807 524.259C436.271 551.009 459.994 570.67 486.736 568.126C513.366 565.593 532.926 541.992 530.473 515.354C528.019 488.717 504.476 469.086 477.831 471.461Z"/>
	<path fill="#786FBA" d="M231.168 0L326.87 0C329.027 7.40722 332.399 13.8064 336.727 20.181C347.562 36.1394 361.271 50.2853 373.968 64.7631C396.818 90.8186 420.019 116.61 441.912 143.486C494.797 208.408 536.638 278.717 561.137 359.22C570.848 390.037 577.146 421.827 579.918 454.019C582.451 484.934 580.701 523.393 577.534 554.387C571.206 501.247 560.819 446.54 536.746 398.313C510.635 346.005 455.935 293.45 414.264 252.272C366.012 204.592 315.574 158.732 268.951 109.46C254.613 94.1285 240.503 78.5856 226.627 62.836C219.544 54.7429 211.709 46.703 205.726 37.7613C203.946 35.1012 201.364 31.0183 201.639 27.7433C202.223 20.7674 224.899 4.8513 231.168 0Z"/>
	<path fill="#786FBA" d="M333.204 0L539.502 0C531.231 55.7391 486.129 101.152 445.618 136.852C423.294 108.68 398.351 82.3666 374.826 55.1972C359.725 37.7564 343.481 20.8773 333.204 0Z"/>
	<path fill="#786FBA" d="M546.523 0L655.121 0C662.925 7.53488 671.6 14.044 680.098 20.7617C685.846 25.3046 692.092 29.7709 696.623 35.5912C699.704 39.5473 701.221 43.6032 700.497 48.6641C699.87 53.0492 697.688 57.1198 695.162 60.7016C688.215 70.5527 678.13 79.3285 669.435 87.61C632.454 122.412 592.956 154.439 551.263 183.431C542.172 189.738 532.883 195.756 523.412 201.477C516.561 205.614 509.158 209.474 502.737 214.24C502.563 214.37 502.39 214.503 502.217 214.635C492.543 198.223 481.106 182.871 469.595 167.718C463.131 159.208 456.757 150.557 449.835 142.415C492.6 103.948 537.292 59.3134 546.523 0Z"/>
	<path fill="#9F8BE8" d="M666.328 0L731.61 0C756.312 47.1476 761.563 111.824 769.937 164.321C773.812 187.571 778.648 210.652 784.433 233.502C749.426 233.026 724.946 234.633 692.054 248.128C688.218 249.702 682.107 251.284 680.39 255.386C680.375 256.666 680.363 257.242 681.124 258.295C684.189 260.052 688.034 257.755 690.883 256.443C721.278 242.446 753.303 238.051 786.487 240.995C791.443 258.838 797.581 276.219 803.943 293.598C792.613 288.394 779.009 285.438 766.64 283.762C722.48 277.778 680.062 289.397 644.645 316.285C645.403 302.605 647.882 288.726 649.921 275.174L657.78 221.255C663.518 180.373 667.21 139.23 668.841 97.9791C677.438 88.6899 687.316 80.6346 695.665 71.0754C701.937 63.8941 709.032 54.3165 708.087 44.2066C706.829 30.7588 691.395 20.4508 681.735 12.703C676.521 8.56464 671.384 4.32959 666.328 0Z"/>
	<path fill="#786FBA" d="M739.773 0L1024 0L1024 752.602C1020.48 749.194 1016.19 746.195 1012.37 743.091C1002.08 734.737 991.564 726.694 981.258 718.371L899.861 652.582C893.942 647.836 877.839 633.339 871.859 630.86C867.737 609.512 856.685 590.02 843.881 572.706L846.314 563.911C850.69 547.859 853.061 531.367 854.342 514.8C855.138 504.509 855.845 493.709 853.82 483.531C849.434 461.488 822.686 430.686 810.424 409.242C822.215 402.338 834.398 391.405 838.91 378.116C840.418 373.674 840.882 369.045 840.128 364.395C837.944 350.92 830.617 337.024 825.069 324.623C819.557 312.303 814.022 299.912 809.256 287.282C794.042 246.968 784.686 208.48 777.553 166.1C768.24 110.762 764.816 51.0316 739.773 0Z"/>
	<path fill="#9F8BE8" d="M582.959 570.005C586.239 536.086 589.193 502.396 587.991 468.262C585.689 402.895 565.278 340.492 539.081 281.139C540.346 271.061 539.75 262.113 533.296 253.799C529.753 249.234 524.264 244.863 518.909 242.675C514.668 235.255 510.305 227.905 505.823 220.629C516.478 213.258 527.962 207.109 538.837 200.058C555.268 189.406 571.234 177.712 586.957 166.044C603.179 154.004 619.285 141.246 634.692 128.171C643.738 120.495 652.332 112.29 661.572 104.843C659.547 146.805 655.483 188.645 649.393 230.212C644.623 265.061 638.895 299.685 635.142 334.686C632.212 363.186 630.658 391.81 630.487 420.459C630.476 435.861 630.24 452.104 632.428 467.346C626.033 480.58 625.007 492.975 629.854 507.025C637.063 527.925 651.431 546.444 664.616 563.917C671.043 572.433 677.446 581.034 684.538 589.015C680.201 594.827 654.099 628.041 650.143 630.199C646.579 627.458 643.412 623.935 640.148 620.823C634.233 615.195 628.271 609.616 622.263 604.087C609.466 592.394 595.833 581.591 582.959 570.005Z"/>
	<path d="M320.732 344.894C294.55 347.162 271.46 327.839 269.078 301.667C266.696 275.495 285.919 252.321 312.08 249.825C338.403 247.315 361.751 266.682 364.147 293.015C366.543 319.348 347.075 342.612 320.732 344.894ZM312.869 256.406C290.296 258.445 273.646 278.393 275.677 300.967C277.707 323.542 297.65 340.198 320.225 338.175C342.811 336.152 359.478 316.197 357.446 293.612C355.414 271.026 335.454 254.367 312.869 256.406Z"/>
	<path fill="#786FBA" d="M320.225 338.175C297.65 340.198 277.707 323.542 275.677 300.967C273.646 278.393 290.296 258.445 312.869 256.406C335.454 254.367 355.414 271.026 357.446 293.612C359.478 316.197 342.811 336.152 320.225 338.175ZM307.875 278.576C304.779 280.167 302.176 282.067 301.001 285.499C299.928 288.63 300.447 291.723 301.97 294.58C302.314 295.235 302.682 295.877 303.074 296.505C299.52 298.141 294.442 299.684 292.513 303.249C292.484 304.714 292.526 304.916 293.262 306.181C294.635 306.998 295.791 307 297.306 306.662C301.827 305.653 305.961 302.917 310.513 301.656C309.504 305.214 308.941 308.279 310.829 311.673C312.156 314.057 314.346 315.487 316.944 316.188C319.634 316.914 322.149 316.636 324.864 316.23C328.274 314.423 331.17 312.215 332.249 308.325C333.063 305.391 332.375 302.232 330.784 299.681C329.623 297.818 327.791 296.489 326.086 295.158C328.813 293.736 338.258 290.075 339.084 287.248C339.474 285.912 339.224 285.061 338.67 283.854C337.291 282.998 336.053 283.115 334.536 283.463C330.793 284.322 327.315 286.204 323.989 288.064C322.234 284.157 319.99 280.643 315.764 279.132C313.171 278.205 310.568 278.248 307.875 278.576Z"/>
	<path d="M303.074 296.505C302.682 295.877 302.314 295.235 301.97 294.58C300.447 291.723 299.928 288.63 301.001 285.499C302.176 282.067 304.779 280.167 307.875 278.576C310.568 278.248 313.171 278.205 315.764 279.132C319.99 280.643 322.234 284.157 323.989 288.064C327.315 286.204 330.793 284.322 334.536 283.463C336.053 283.115 337.291 282.998 338.67 283.854C339.224 285.061 339.474 285.912 339.084 287.248C338.258 290.075 328.813 293.736 326.086 295.158C327.791 296.489 329.623 297.818 330.784 299.681C332.375 302.232 333.063 305.391 332.249 308.325C331.17 312.215 328.274 314.423 324.864 316.23C322.149 316.636 319.634 316.914 316.944 316.188C314.346 315.487 312.156 314.057 310.829 311.673C308.941 308.279 309.504 305.214 310.513 301.656C305.961 302.917 301.827 305.653 297.306 306.662C295.791 307 294.635 306.998 293.262 306.181C292.526 304.916 292.484 304.714 292.513 303.249C294.442 299.684 299.52 298.141 303.074 296.505ZM309.968 284.961C308.463 286.279 307.12 287.458 306.924 289.59C306.83 290.618 306.953 291.127 307.325 292.06C308.196 292.995 308.851 293.686 310.209 293.739C311.075 293.773 312.143 293.462 312.995 293.281C314.277 292.491 315.809 291.678 316.238 290.107C316.565 288.909 316.292 288.014 315.601 287.024C314.617 285.615 312.339 285.036 310.725 284.975C310.473 284.965 310.221 284.965 309.968 284.961ZM319.999 301.355C318.063 303.23 316.677 304.434 316.517 307.275C317.045 308.506 317.267 309.162 318.604 309.744C319.663 310.204 321.098 310.144 322.232 310.13C323.759 308.963 325.069 307.849 325.282 305.786C325.411 304.542 324.93 303.378 324.012 302.539C322.889 301.512 321.445 301.38 319.999 301.355Z"/>
	<path fill="#FDFDEF" d="M312.995 293.281C312.143 293.462 311.075 293.773 310.209 293.739C308.851 293.686 308.196 292.995 307.325 292.06C306.953 291.127 306.83 290.618 306.924 289.59C307.12 287.458 308.463 286.279 309.968 284.961C310.221 284.965 310.473 284.965 310.725 284.975C312.339 285.036 314.617 285.615 315.601 287.024C316.292 288.014 316.565 288.909 316.238 290.107C315.809 291.678 314.277 292.491 312.995 293.281Z"/>
	<path fill="#786FBA" d="M486.111 338.056C473.644 338.051 463.293 334.272 454.077 325.713C442.326 314.798 439.625 302.146 438.977 286.734C445.272 290.91 450.411 298.392 455.485 303.946C465.819 315.257 476.224 326.34 486.111 338.056Z"/>
	<path fill="#9F8BE8" d="M643.458 326.925C672.731 302.405 698.123 292.377 736.082 289.706C758.145 287.587 787.108 292.192 806.77 302.348C810.662 309.99 813.398 318.244 816.29 326.303C813.454 325.046 810.542 323.971 807.57 323.084C768.099 311.013 721.545 320.557 685.751 339.41C666.975 349.936 650.267 363.988 638.625 382.259C639.616 363.706 640.903 345.345 643.458 326.925Z"/>
	<path fill="#FDFDEF" d="M322.232 310.13C321.098 310.144 319.663 310.204 318.604 309.744C317.267 309.162 317.045 308.506 316.517 307.275C316.677 304.434 318.063 303.23 319.999 301.355C321.445 301.38 322.889 301.512 324.012 302.539C324.93 303.378 325.411 304.542 325.282 305.786C325.069 307.849 323.759 308.963 322.232 310.13Z"/>
	<path fill="#9F8BE8" d="M638.068 395.006C643.57 388.177 648.02 380.493 653.73 373.831C678.101 345.399 717.928 328.621 754.846 325.708C758.509 325.197 762.614 325.33 766.333 325.305C784.086 325.187 803.235 326.707 819.158 335.095C822.287 341.777 825.249 348.537 828.04 355.367C819.714 351.463 810.907 348.68 801.849 347.093C757.594 339.261 710.581 352.189 674.246 377.713C657.589 390.264 642.842 405.596 638.166 426.502C637.79 416.022 638.028 405.493 638.068 395.006Z"/>
	<path fill="#9F8BE8" d="M709.584 365.815C725.41 358.303 743.046 354.882 760.296 352.686C764.47 351.889 769.354 352.284 773.611 352.318C783.126 379.848 799.032 406.73 815.511 430.587C824.676 443.856 835.657 457.286 842.66 471.842C845.463 477.67 847.355 483.643 848.077 490.078C850.058 507.742 844.403 548.666 838.647 565.325L827.575 551.052C835.181 536.052 835.282 509.414 835.853 492.267C836.009 487.589 836.841 480.194 833.429 476.548C832.708 476.348 832.742 476.19 832.183 476.456C830.216 477.394 829.417 480.573 829.103 482.514C828.415 486.766 828.787 491.457 828.588 495.783C828.046 507.586 826.752 535.131 822.968 545.471L822.714 546.148C818.469 541.878 814.279 537.555 810.144 533.178C814.175 519.572 815.042 505.79 815.913 491.716C816.039 486.273 817.048 478.852 815.392 473.657C814.854 471.968 814.055 471.304 812.512 470.54C811.128 470.52 811.018 470.561 809.86 471.321C809.132 472.627 808.937 473.692 808.832 475.182C808.523 479.54 809.08 484.18 809.154 488.564C809.23 493.061 808.833 497.578 808.504 502.061C807.874 510.67 806.632 519.085 805.18 527.59C800.556 522.936 795.476 518.649 790.698 514.139C791.733 507.63 791.719 500.793 791.429 494.227C791.132 487.494 790.225 467.997 785.158 463.854C783.985 462.895 783.005 462.827 781.57 463.045C780.483 464.159 780.216 464.826 780.314 466.404C780.59 470.833 782.566 475.528 783.549 479.883C785.62 489.063 785.47 499.29 784.558 508.602C775.13 500.604 766.42 492.142 757.635 483.458C756.448 476.299 751.756 458.086 748.224 452.101C747.532 450.929 746.727 450.776 745.493 450.452C744.72 450.69 744.221 450.629 743.778 451.373C741.551 455.117 747.747 472.937 748.983 477.351C741.068 471.823 733.204 466.319 724.899 461.386C724.858 425.356 722.058 399.804 709.584 365.815Z"/>
	<path fill="#9F8BE8" d="M806.15 403.321C796.059 387.073 787.831 369.872 780.007 352.442C797.722 352.383 817.981 355.391 831.397 367.879C831.744 369.321 832.137 370.805 832.279 372.285C832.96 379.39 825.618 386.415 821.252 391.342C816.795 396.012 811.713 400.043 806.15 403.321Z"/>
	<path fill="#9F8BE8" d="M674.927 444.053C669.914 443.853 664.644 444.446 659.726 443.271C654.839 442.103 650.255 439.231 647.789 434.761C645.382 430.398 645.47 425.797 646.857 421.128C651.93 404.04 672.135 386.756 686.824 377.265C691.886 373.994 697.391 371.265 702.697 368.41C703.338 368.537 702.93 368.402 703.765 369.132C714.933 397.519 717.387 426.855 717.741 457.036C703.952 450.661 690.178 445.531 674.927 444.053Z"/>
	<path fill="#9F8BE8" d="M639.042 457.594C638.177 450.283 638.063 442.698 637.936 435.335C643.585 439.739 645.135 443.937 652.442 448.304C650.485 449.242 648.692 450.443 646.863 451.606C644.215 453.537 641.644 455.599 639.042 457.594Z"/>
	<path fill="#786FBA" d="M649.551 458.109C655.091 454.664 660.81 452.498 667.273 451.664C676.853 450.745 687.206 453.153 696.244 456.124C717.211 463.019 738.183 476.204 754.946 490.472C762.095 496.556 768.716 503.287 775.685 509.581C805.443 536.46 836.452 567.212 854.631 603.383C864.506 623.031 869.551 644.652 862.479 666.029C862.139 661.981 861.732 657.938 861.259 653.904C854.086 614.254 829.14 581.079 802.487 552.141C790.978 539.582 778.851 527.605 766.151 516.254C741.837 494.743 699.37 464.175 667.254 458.501C661.269 457.444 655.571 457.737 649.551 458.109Z"/>
	<path fill="#786FBA" d="M689.509 583.952C671.789 564.276 644.261 527.941 636.303 502.891C633.207 493.147 632.635 481.16 637.67 471.924C639.833 467.958 642.478 465.911 646.724 464.571C673.112 463.008 696.791 475.168 718.064 489.65C766.236 522.443 841.586 591.731 852.507 651.073C853.975 659.049 855.219 671.423 850.086 678.369C847.558 681.789 843.507 683.241 839.453 683.915C812.207 688.45 777.26 665.526 755.763 650.33C744.29 641.903 733.286 632.857 722.801 623.231C737.313 610.168 752.975 598.318 768.223 586.131C774.756 580.909 782.452 575.764 788.079 569.62C785.72 558.124 777.098 547.173 767.759 540.368C760.883 535.358 749.258 527.505 740.275 529.209C737.02 529.826 733.9 531.96 731.413 534.087C725.741 538.937 720.883 545.381 716.054 551.053C706.971 561.723 697.696 572.569 689.509 583.952Z"/>
	<path d="M325.213 565.696C298.957 569.295 274.733 550.991 271.024 524.75C267.315 498.51 285.518 474.209 311.742 470.391C338.122 466.55 362.599 484.884 366.33 511.28C370.061 537.675 351.624 562.075 325.213 565.696ZM312.995 477.081C290.375 480.248 274.636 501.195 277.89 523.803C281.143 546.411 302.151 562.069 324.746 558.728C347.218 555.406 362.773 534.537 359.537 512.052C356.301 489.567 335.493 473.932 312.995 477.081Z"/>
	<path d="M486.736 568.126C459.994 570.67 436.271 551.009 433.807 524.259C431.342 497.509 451.074 473.845 477.831 471.461C504.476 469.086 528.019 488.717 530.473 515.354C532.926 541.992 513.366 565.593 486.736 568.126ZM476.065 478.15C453.237 481.247 437.181 502.176 440.103 525.027C443.025 547.878 463.832 564.094 486.704 561.346C509.825 558.568 526.255 537.486 523.301 514.388C520.347 491.29 499.141 475.021 476.065 478.15Z"/>
	<path fill="#786FBA" d="M324.746 558.728C302.151 562.069 281.143 546.411 277.89 523.803C274.636 501.195 290.375 480.248 312.995 477.081C335.493 473.932 356.301 489.567 359.537 512.052C362.773 534.537 347.218 555.406 324.746 558.728ZM316.025 500.107C312.634 501.496 309.853 503.22 308.318 506.708C307.093 509.49 307.18 512.834 308.373 515.609C308.748 516.482 309.245 517.264 309.755 518.061C306.072 519.857 300.351 521.905 298.792 526.058C298.736 526.206 298.722 526.368 298.688 526.523C299.428 527.542 299.174 527.647 300.529 527.847C304.335 528.41 307.676 526.529 311.098 525.149C311.141 529.496 311.459 533.424 314.757 536.693C317.437 539.349 321.168 540.294 324.837 540.311C328.545 539.132 331.768 537.414 333.518 533.737C334.814 531.014 334.831 527.669 333.779 524.861C333.01 522.809 331.618 521.12 330.265 519.429C333.464 518.426 337.343 517.729 340.133 515.919C340.634 514.818 341.023 513.88 340.59 512.651C340.133 511.353 339.502 510.838 338.318 510.247C335.757 509.958 332.141 511.57 329.64 512.358C329.123 508.544 328.507 504.529 325.237 502.007C322.494 499.891 319.31 499.927 316.025 500.107Z"/>
	<path fill="#786FBA" d="M486.704 561.346C463.832 564.094 443.025 547.878 440.103 525.027C437.181 502.176 453.237 481.247 476.065 478.15C499.141 475.021 520.347 491.29 523.301 514.388C526.255 537.486 509.825 558.568 486.704 561.346ZM480.283 500.53C476.096 501.811 472.279 503.878 470.164 507.903C468.838 510.427 468.468 513.701 469.499 516.395C469.998 517.699 470.82 518.767 471.696 519.837C467.655 520.855 460.067 521.75 457.821 525.458C457.542 526.834 457.689 527.368 458.253 528.644C459.396 529.812 460.378 530.178 461.982 530.157C465.692 530.11 470.238 528.092 473.855 527.075C474.335 531.061 475.002 535.035 478.377 537.669C479.948 538.895 481.794 539.47 483.705 539.912C487.433 539.616 490.745 538.825 493.193 535.754C494.923 533.583 495.599 530.648 495.264 527.914C495.001 525.765 494.021 524.038 492.864 522.254C496.598 521.078 503.829 520.398 506.16 517.254C506.393 515.734 506.338 515.604 505.677 514.208C504.297 513.118 503.576 512.76 501.792 512.976C498.688 513.352 495.586 514.244 492.556 514.998C492.419 510.803 491.892 506.337 488.695 503.243C486.229 500.856 483.581 500.509 480.283 500.53Z"/>
	<path d="M309.755 518.061C309.245 517.264 308.748 516.482 308.373 515.609C307.18 512.834 307.093 509.49 308.318 506.708C309.853 503.22 312.634 501.496 316.025 500.107C319.31 499.927 322.494 499.891 325.237 502.007C328.507 504.529 329.123 508.544 329.64 512.358C332.141 511.57 335.757 509.958 338.318 510.247C339.502 510.838 340.133 511.353 340.59 512.651C341.023 513.88 340.634 514.818 340.133 515.919C337.343 517.729 333.464 518.426 330.265 519.429C331.618 521.12 333.01 522.809 333.779 524.861C334.831 527.669 334.814 531.014 333.518 533.737C331.768 537.414 328.545 539.132 324.837 540.311C321.168 540.294 317.437 539.349 314.757 536.693C311.459 533.424 311.141 529.496 311.098 525.149C307.676 526.529 304.335 528.41 300.529 527.847C299.174 527.647 299.428 527.542 298.688 526.523C298.722 526.368 298.736 526.206 298.792 526.058C300.351 521.905 306.072 519.857 309.755 518.061ZM316.511 507.232C314.374 508.285 313.504 510.877 314.574 513.006C315.644 515.134 318.244 515.983 320.364 514.895C322.459 513.821 323.295 511.257 322.238 509.153C321.18 507.049 318.624 506.192 316.511 507.232ZM321.353 524.607C319.19 525.573 318.167 528.067 319.029 530.273C319.891 532.48 322.335 533.62 324.579 532.863C326.129 532.34 327.265 531.008 327.537 529.396C327.808 527.783 327.171 526.152 325.878 525.151C324.585 524.15 322.846 523.941 321.353 524.607Z"/>
	<path d="M471.696 519.837C470.82 518.767 469.998 517.699 469.499 516.395C468.468 513.701 468.838 510.427 470.164 507.903C472.279 503.878 476.096 501.811 480.283 500.53C483.581 500.509 486.229 500.856 488.695 503.243C491.892 506.337 492.419 510.803 492.556 514.998C495.586 514.244 498.688 513.352 501.792 512.976C503.576 512.76 504.297 513.118 505.677 514.208C506.338 515.604 506.393 515.734 506.16 517.254C503.829 520.398 496.598 521.078 492.864 522.254C494.021 524.038 495.001 525.765 495.264 527.914C495.599 530.648 494.923 533.583 493.193 535.754C490.745 538.825 487.433 539.616 483.705 539.912C481.794 539.47 479.948 538.895 478.377 537.669C475.002 535.035 474.335 531.061 473.855 527.075C470.238 528.092 465.692 530.11 461.982 530.157C460.378 530.178 459.396 529.812 458.253 528.644C457.689 527.368 457.542 526.834 457.821 525.458C460.067 521.75 467.655 520.855 471.696 519.837ZM479.478 507.482C478.176 508.263 476.837 509.024 476.315 510.552C475.944 511.636 476.147 512.681 476.875 513.569C478.17 515.148 480.33 515.263 482.206 515.307C483.387 514.594 484.925 513.804 485.393 512.408C485.788 511.23 485.69 510.151 484.892 509.164C483.596 507.561 481.355 507.444 479.478 507.482ZM483.118 525.143C481.7 525.682 480.688 526.951 480.481 528.455C480.273 529.958 480.903 531.454 482.122 532.357C483.342 533.26 484.957 533.425 486.334 532.788C488.362 531.85 489.283 529.474 488.417 527.413C487.55 525.353 485.208 524.349 483.118 525.143Z"/>
	<path fill="#FDFDEF" d="M320.364 514.895C318.244 515.983 315.644 515.134 314.574 513.006C313.504 510.877 314.374 508.285 316.511 507.232C318.624 506.192 321.18 507.049 322.238 509.153C323.295 511.257 322.459 513.821 320.364 514.895Z"/>
	<path fill="#FDFDEF" d="M482.206 515.307C480.33 515.263 478.17 515.148 476.875 513.569C476.147 512.681 475.944 511.636 476.315 510.552C476.837 509.024 478.176 508.263 479.478 507.482C481.355 507.444 483.596 507.561 484.892 509.164C485.69 510.151 485.788 511.23 485.393 512.408C484.925 513.804 483.387 514.594 482.206 515.307Z"/>
	<path fill="#FDFDEF" d="M324.579 532.863C322.335 533.62 319.891 532.48 319.029 530.273C318.167 528.067 319.19 525.573 321.353 524.607C322.846 523.941 324.585 524.15 325.878 525.151C327.171 526.152 327.808 527.783 327.537 529.396C327.265 531.008 326.129 532.34 324.579 532.863Z"/>
	<path fill="#FDFDEF" d="M486.334 532.788C484.957 533.425 483.342 533.26 482.122 532.357C480.903 531.454 480.273 529.958 480.481 528.455C480.688 526.951 481.7 525.682 483.118 525.143C485.208 524.349 487.55 525.353 488.417 527.413C489.283 529.474 488.362 531.85 486.334 532.788Z"/>
	<path fill="#FDFDEF" d="M693.675 592.317C693.236 591.462 692.59 590.753 692.846 589.787C693.542 587.154 728.859 545.148 733.189 540.702C734.944 538.899 736.97 537.13 739.259 536.047C742.541 534.495 746.229 535.454 749.468 536.685C764.017 542.215 773.703 554.279 780.78 567.557C768.274 577.882 755.663 588.08 742.948 598.148C733.835 605.339 724.487 612.291 715.71 619.892C710.474 614.773 697.612 594.644 693.675 592.317Z"/>
	<path fill="#FDFDEF" d="M582.959 570.005C595.833 581.591 609.466 592.394 622.263 604.087C628.271 609.616 634.233 615.195 640.148 620.823C643.412 623.935 646.579 627.458 650.143 630.199L650.226 630.952C639.801 643.43 629.628 656.065 619.007 668.389C611.141 677.516 602.752 686.356 595.207 695.732C594.301 696.858 592.157 699.075 592.316 700.563C592.697 704.137 599.176 711.075 601.951 713.147C603.169 714.056 604.75 714.719 606.29 714.411C610.846 713.501 672.253 662.405 681.999 655.243C683.4 656.588 684.773 657.989 686.24 659.261L1024 966.359L1024 1024L722.67 1024C718.909 1016.76 715.704 1009.14 712.255 1001.74L691.365 956.498C671.827 913.354 652.537 870.098 633.496 826.732C624.518 805.545 615.307 784.456 605.867 763.469C602.731 756.505 600.214 748.627 596.54 742.015C596.576 737.139 597.548 732.988 596.687 728.03C594.775 717.024 588.5 710.793 579.755 704.566C580.334 681.648 580.735 658.726 580.959 635.802C581.031 613.887 580.036 591.772 582.959 570.005Z"/>
	<path fill="#9F8BE8" d="M64.8558 760.228C68.6374 752.444 73.9133 745.022 78.413 737.615L103.035 696.679L171.13 583.238C182.506 588.204 193.733 594.957 204.664 600.899C212.109 604.946 219.929 608.561 227.13 613C225.017 618.066 222.088 622.923 219.504 627.77C214.135 637.914 208.592 647.965 202.879 657.92C176.447 704.209 148.748 750.173 113.715 790.558C106.155 785.481 98.2499 780.839 90.5062 776.044C91.9435 776.411 93.3887 776.784 94.8518 777.035C100.577 778.018 105.275 776.362 109.872 773.004C113.066 769.875 115.753 766.05 116.401 761.523C117.055 756.962 115.364 752.162 112.558 748.582C109.509 744.692 105.037 742.503 100.14 742.124C95.3708 741.755 90.7111 743.185 87.1776 746.462C83.6492 749.742 81.6607 754.354 81.697 759.172C81.7622 766.186 85.858 771.213 90.5121 775.936C81.7056 771.812 72.68 766.001 64.8558 760.228Z"/>
	<path fill="#9F8BE8" d="M693.675 592.317C697.612 594.644 710.474 614.773 715.71 619.892C709.983 625.214 703.45 629.752 697.335 634.625L663.655 661.569C649.47 672.688 635.6 685.012 620.696 695.097C617.313 692.549 613.974 689.943 610.681 687.278C619.542 677.12 628.515 667.071 637.186 656.749C642.701 650.184 688.884 592.866 691.199 591.698C692.025 591.282 692.888 591.967 693.675 592.317Z"/>
	<path fill="#9F8BE8" d="M130.885 781.066C160.082 745.598 183.797 705.255 206.598 665.48C214.684 651.373 221.548 635.72 230.667 622.387C234.498 624.323 238.77 625.765 242.735 627.44L270.084 638.982C300.048 651.547 330.256 664.123 360.705 675.447C373.799 680.317 387.257 684.131 400.343 688.977C378.667 748.92 349.06 805.69 312.311 857.773L303.627 853.737C285.67 845.172 266.812 838.159 248.518 830.317L175.137 799.662C160.38 793.474 145.765 786.969 130.885 781.066ZM368.182 691.315C367.928 691.594 367.677 691.876 367.446 692.174C364.21 696.356 362.285 703.116 360.122 708.029C357.107 714.763 354.053 721.48 350.96 728.18C342.17 747.141 332.804 765.831 322.876 784.222C320.275 789.033 300.821 822.811 300.609 823.88C300.482 824.514 300.5 825.115 300.513 825.758C301.179 826.909 301.388 827.453 302.756 827.886C303.564 828.141 304.711 828.096 305.565 828.138C314.383 819.341 373.385 702.566 372.92 695.167C372.845 693.959 372.45 693.008 371.459 692.268C370.477 691.535 369.364 691.432 368.182 691.315Z"/>
	<path fill="#9F8BE8" d="M871.859 630.86C877.839 633.339 893.942 647.836 899.861 652.582L981.258 718.371C991.564 726.694 1002.08 734.737 1012.37 743.091C1016.19 746.195 1020.48 749.194 1024 752.602L1024 966.359L686.24 659.261C685.768 657.691 683.972 655.967 682.947 654.709C693.784 645.032 706.127 636.393 717.602 627.463C723.213 632.823 729.02 637.975 735.01 642.91C759.434 663.007 804.595 694.627 837.557 691.195C847.562 690.154 857.409 685.805 863.817 677.868C874.952 664.076 873.651 647.315 871.859 630.86Z"/>
	<path d="M305.565 828.138C304.711 828.096 303.564 828.141 302.756 827.886C301.388 827.453 301.179 826.909 300.513 825.758C300.5 825.115 300.482 824.514 300.609 823.88C300.821 822.811 320.275 789.033 322.876 784.222C332.804 765.831 342.17 747.141 350.96 728.18C354.053 721.48 357.107 714.763 360.122 708.029C362.285 703.116 364.21 696.356 367.446 692.174C367.677 691.876 367.928 691.594 368.182 691.315C369.364 691.432 370.477 691.535 371.459 692.268C372.45 693.008 372.845 693.959 372.92 695.167C373.385 702.566 314.383 819.341 305.565 828.138Z"/>
	<path fill="#FDFDEF" d="M599.497 700.377L606.266 692.561C609.611 694.85 612.926 697.15 616.152 699.607C613.425 701.659 610.728 703.748 608.061 705.876C607.121 706.533 606.974 706.701 605.847 706.746C603.26 705.163 601.444 702.664 599.497 700.377Z"/>
	<defs>
		<linearGradient id="gradient_0" gradientUnits="userSpaceOnUse" x1="547.03442" y1="699.98938" x2="556.45227" y2="698.89606">
			<stop offset="0" stop-color="#DED9FF"/>
			<stop offset="1" stop-color="#FCFAFF"/>
		</linearGradient>
	</defs>
	<path fill="url(#gradient_0)" d="M542.139 699.091C545.627 697.987 553.902 693.31 557.072 694.354C557.421 695.593 556.899 696.781 556.333 697.885C554.025 702.387 548.257 705.676 543.843 707.81C542.534 705.026 542.42 702.11 542.139 699.091Z"/>
	<path fill="#9F8BE8" d="M397.906 715.949C423.101 717.09 440.632 714.947 464.87 708.536C473.695 706.202 482.605 702.653 491.669 701.505C508.757 699.341 524.926 703.09 542.139 699.091C542.42 702.11 542.534 705.026 543.843 707.81C531.281 714.394 516.502 715.931 504.188 722.638C501.195 724.269 497.039 727.146 496.334 730.76C495.93 732.835 497.112 734.816 498.237 736.458C507.707 750.27 533.06 765.58 549.547 768.912C563.236 771.678 571.384 769.897 583.006 762.216C585.047 767.577 587.168 772.908 589.368 778.206C587.284 780.141 585.199 782.06 582.621 783.328C577.916 785.643 572.853 786.045 567.699 786.084C560.197 786.14 553.114 785.145 545.872 783.206C539.228 781.426 532.966 778.839 526.623 776.227C523.536 774.957 520.379 773.352 517.134 772.553C515.76 772.214 514.093 771.957 512.722 772.423C511.67 772.781 511.549 772.958 511.049 773.874C511.243 775.059 511.517 775.877 512.31 776.81C518.447 784.023 552.492 792.175 561.891 793.269C558.948 794.338 555.936 795.574 552.836 796.09C540.521 798.137 526.372 793.16 515.001 788.656C511.779 787.38 507.906 785.052 504.471 784.804C503.345 785.222 502.642 785.448 502.034 786.607C501.48 787.666 501.702 788.568 502.223 789.572C505.446 795.777 534.906 802.337 542.43 804.219C541.719 804.586 540.998 804.934 540.268 805.261C523.458 812.943 512.576 803.987 497.246 798.398C495.011 797.583 492.091 796.522 489.824 797.594C489.354 798.434 489.209 798.693 489.495 799.652C491.515 806.427 509.129 810.294 515.238 813.336C515.377 813.405 515.514 813.477 515.652 813.548C485.599 815.573 453.794 802.895 426.708 791.027C407.57 782.64 393.04 774.954 371.606 773.181C374.463 766.341 378.257 759.903 381.412 753.196C387.076 740.854 392.574 728.437 397.906 715.949Z"/>
	<path fill="#9F8BE8" d="M0 705.822C21.2525 720.071 42.1619 734.891 63.7586 748.615C61.1456 752.345 56.0097 758.215 56.5634 762.883C58.1688 764.655 60.2197 766.003 62.2047 767.317C72.5107 774.139 83.3917 780.065 93.9734 786.438C99.4456 789.733 104.572 793.695 110.122 796.829C111.593 797.659 113.058 798.486 114.724 798.845C119.27 796.672 122.215 790.718 125.649 787.086C129.578 788.258 133.343 789.432 136.868 791.587C136.149 797.824 134.247 803.999 132.739 810.084L124.074 844.134C109.005 904.92 91.0184 964.944 70.1762 1024L0 1024L0 705.822Z"/>
	<path fill="#604AA3" d="M570.122 758.193C556.675 760.294 544.069 751.105 541.952 737.661C539.836 724.216 549.01 711.599 562.451 709.466C575.916 707.331 588.559 716.523 590.679 729.99C592.799 743.457 583.591 756.089 570.122 758.193ZM562.492 717.171C553.75 719.38 548.407 728.205 550.502 736.975C552.597 745.746 561.352 751.203 570.149 749.223C575.942 747.918 580.586 743.597 582.303 737.913C584.021 732.229 582.547 726.06 578.446 721.765C574.344 717.471 568.25 715.716 562.492 717.171Z"/>
	<path d="M570.149 749.223C561.352 751.203 552.597 745.746 550.502 736.975C548.407 728.205 553.75 719.38 562.492 717.171C568.25 715.716 574.344 717.471 578.446 721.765C582.547 726.06 584.021 732.229 582.303 737.913C580.586 743.597 575.942 747.918 570.149 749.223ZM565.141 723.42C560.035 724.095 556.408 728.732 556.983 733.85C557.558 738.969 562.125 742.685 567.253 742.21C570.661 741.893 573.631 739.761 575.021 736.634C576.41 733.507 576.002 729.873 573.953 727.132C571.904 724.391 568.534 722.972 565.141 723.42Z"/>
	<path fill="#9F8BE8" d="M503.249 731.935C513.46 725.066 525.834 722.59 537.299 718.486L538.124 718.65C537.408 725.114 534.486 729.274 535.01 736.4C535.866 748.051 542.263 754.971 550.595 762.264C542.707 760.078 535.817 757.153 528.711 753.075C519.323 747.189 510.761 740.08 503.249 731.935Z"/>
	<path fill="#FDFDEF" d="M567.253 742.21C562.125 742.685 557.558 738.969 556.983 733.85C556.408 728.732 560.035 724.095 565.141 723.42C568.534 722.972 571.904 724.391 573.953 727.132C576.002 729.873 576.41 733.507 575.021 736.634C573.631 739.761 570.661 741.893 567.253 742.21Z"/>
	<path fill="#9F8BE8" d="M596.54 742.015C600.214 748.627 602.731 756.505 605.867 763.469C615.307 784.456 624.518 805.545 633.496 826.732C652.537 870.098 671.827 913.354 691.365 956.498L712.255 1001.74C715.704 1009.14 718.909 1016.76 722.67 1024L561.421 1024C561.536 1016.28 562.59 1008.38 563.216 1000.68C564.22 988.483 565.062 976.275 565.743 964.058L577.332 793.356C583.095 790.946 593.072 787.774 595.416 781.471C597.848 774.93 591.119 763.693 588.344 757.756C592.315 752.741 594.818 748.185 596.54 742.015Z"/>
	<path fill="#FDFDEF" d="M101.357 769.401C99.7346 769.517 97.9933 769.725 96.3955 769.339C93.8404 768.723 91.5799 766.923 90.3265 764.625C88.8707 761.956 88.7231 758.754 89.7328 755.908C90.9095 752.591 92.9935 751.123 96.0328 749.586C97.6242 749.465 99.45 749.22 101.019 749.565C103.499 750.112 105.9 751.836 107.193 754.02C108.564 756.336 108.85 759.217 108.13 761.794C107.091 765.507 104.612 767.602 101.357 769.401Z"/>
	<path fill="#9F8BE8" d="M99.2598 1024C105.043 1004.19 111.578 984.6 117.302 964.782C132.967 910.57 146.667 855.81 158.377 800.608C174.612 806.683 190.562 813.718 206.559 820.402L272.596 847.894C286.572 853.792 300.453 861.038 314.787 865.969C319.372 860.953 323.042 854.797 326.858 849.18C341.961 826.948 355.259 803.369 368.147 779.796C391.182 780.55 410.607 791.923 431.201 800.801C455.138 811.119 497.761 825.987 523.234 819.482C534.751 816.542 543.675 809.989 553.913 804.498C559.073 801.732 564.599 799.564 570.019 797.361C566.137 843.098 563.844 888.93 560.552 934.703L556.549 990.54C555.734 1001.61 554.421 1012.9 554.43 1024L99.2598 1024Z"/>
	<path fill="#9F8BE8" d="M78.5132 1024C82.012 1011.87 86.3193 999.966 90.1915 987.948C96.9863 966.872 103.477 945.7 109.662 924.437C117.158 898.442 124.278 872.339 131.019 846.138C135.399 828.816 139.27 811.371 143.822 794.089C146.501 795.217 149.225 796.292 151.867 797.503C145.774 822.212 140.844 847.252 134.933 872.028C126.952 905.475 117.603 938.922 107.81 971.87C102.673 989.155 98.0664 1007.23 91.4093 1024L78.5132 1024Z"/>
</svg>
