<?xml version="1.0" encoding="utf-8" ?>
<svg xmlns="http://www.w3.org/2000/svg" xmlns:xlink="http://www.w3.org/1999/xlink" width="1024" height="1024">
	<path fill="#9F8BE8" d="M0 0L1024 0L1024 318.333C994.856 309.71 965.057 303.658 935.742 295.718C910.233 303.48 882.836 308.577 856.78 314.528C847.241 316.707 837.099 318.572 827.775 321.533C826.182 315.687 825.384 309.711 824.051 303.814C832.182 297.654 839.535 290.317 846.507 282.888C866.094 262.013 880.803 240.24 888.468 212.282C889.676 207.876 891.293 203.16 891.833 198.623C892.053 196.775 892.039 195.118 890.849 193.592C888.61 190.72 879.298 188.022 875.671 185.852C867.827 181.158 860.106 175.559 853.046 169.76C837.504 156.992 823.676 141.742 811.327 125.901C808.471 122.237 797.664 105.727 795.316 104.296C792.329 102.476 784.724 102.935 781.012 102.745C775.421 98.2736 769.329 94.8697 761.874 95.604C755.867 96.1957 750.594 100.681 745.54 103.604C742.468 105.38 739.155 106.866 735.912 108.303C711.53 119.102 686.265 127.655 662.043 138.852C653.003 134.403 624.657 117.595 617.729 116.305C614.671 115.735 611.603 116.794 608.739 117.762C605.12 118.984 601.306 120.245 598.043 122.27C592.36 125.797 573.964 140.853 571.387 146.399C567.734 154.259 562.778 207.374 561.944 219.714C561.491 226.421 562.469 234.278 560.789 240.751C558.414 249.909 550.751 260.815 545.96 269.169C530.953 295.39 515.088 321.11 498.389 346.287C484.202 367.991 469.637 389.856 452.953 409.742C446.218 417.77 434.979 429.272 425.656 434.137L425.536 433.341C423.671 420.65 422.321 398.685 424.014 386.039C424.661 381.208 429.063 370.013 428.731 366.29C428.611 364.943 427.414 364.39 426.395 363.631C423.167 361.227 419.498 359.358 416.124 357.159C409.565 352.887 402.907 346.761 398.184 340.519C393.598 334.459 391.742 327.068 389.851 319.858C384.746 300.39 372.579 287.599 356.373 276.4C361.951 270.99 365.501 265.078 365.644 257.054C365.845 245.793 360.165 235.345 352.589 227.368L352.62 93.7217L352.604 49.914C352.656 41.3048 353.07 32.6354 352.856 24.0348C352.807 22.1022 352.815 20.024 352.064 18.2215C350.898 17.1964 350.811 17.162 349.267 17.0001C348.049 17.4695 347.211 17.8442 346.653 19.1097C345.185 22.44 345.923 201.173 345.87 222.072C328.247 209.823 308.907 206.985 287.924 210.72C276.817 212.698 263.139 216.723 256.3 226.469C255.702 227.334 255.13 228.217 254.587 229.117C230.883 234.052 213.182 243.801 193.11 256.768C173.226 256.538 147.776 268.918 133.678 282.568C121.087 294.759 113.505 310.236 113.228 327.892C113.062 339.969 116.5 351.822 123.104 361.936C112.76 376.498 110.102 392.29 113.066 409.798C115.773 425.794 123.984 440.656 137.411 450.053C140.871 452.474 144.508 454.237 148.396 455.853C154.285 475.777 163.658 490.013 182.242 500.204C196.545 508.048 211.492 509.205 227.46 510.006C175.584 545.738 141.215 608.909 129.963 669.996C121.969 713.389 121.98 757.651 119.338 801.554C115.732 861.453 109.659 916.247 96.5722 974.931L89.3628 1006.74C88.1808 1011.89 87.3097 1017.56 85.5801 1022.51C79.2251 1021.14 65.9623 1022.1 58.7452 1022.12L0 1022.33L0 684.381L30.3132 684.528C36.0513 684.553 42.2155 685.022 47.8915 684.214C53.5655 683.407 56.5296 681.119 59.906 676.686C69.6015 677.268 98.2328 678.668 106.243 675.597C110.484 673.97 113.207 671.064 114.923 666.879C115.824 664.682 116.229 662.432 116.35 660.07C116.8 651.249 116.269 642.155 116.314 633.298L116.513 569.851L116.516 538.653C116.512 533.143 117.157 526.515 116.003 521.108C113.946 511.473 108.415 501.452 104.347 492.49C100.316 483.608 96.4716 474.667 92.5957 465.722C92.15 464.693 91.636 463.722 91.501 462.59C91.1933 460.009 91.9053 457.136 92.05 454.524C92.3254 449.554 92.6095 443.736 92.1259 438.812C92.0071 437.603 92.0074 436.373 90.866 435.685C87.3299 433.552 50.2026 433.826 44.8729 435.484C42.8176 438.576 43.8936 453.48 43.9073 457.934C39.7355 451.276 31.9483 436.034 30.5344 428.581C29.5159 423.214 31.5015 406.176 28.986 403.252C26.3208 400.154 4.95263 401.76 0 401.867L0 0Z"/>
	<path d="M935.742 295.718C965.057 303.658 994.856 309.71 1024 318.333L1024 325.583C1007.36 320.714 990.361 317.096 973.585 312.725C964.541 310.368 945.162 304.112 937.016 303.651C930.619 303.289 921.968 306.958 915.608 308.354C894.491 312.938 873.429 317.767 852.424 322.84C844.731 324.662 836.807 326.042 829.194 328.125C831.136 335.556 832.234 343.203 833.665 350.745C835.798 361.653 837.992 372.548 840.247 383.431C841.585 389.961 842.624 396.853 844.746 403.169C858.269 406.327 871.614 410.846 884.949 414.748L951.905 434.327C975.43 441.401 1001.1 447.468 1024 455.57L1024 462.496L846.134 410.57C847.527 418.597 849.458 426.516 851.079 434.498L861.702 486.462C864.329 499.07 865.782 511.79 869.164 524.256C887.634 530.83 906.394 536.19 925.167 541.795L986.124 560.431C998.727 564.361 1011.68 567.873 1024 572.607L1024 579.798L874.388 533.982C879.19 546.44 882.064 559.591 884.093 572.77C928.156 589.988 962.673 619.252 982.018 663.249C1001.52 707.613 1003.77 754.374 985.973 799.679C982.43 808.697 977.907 818.031 972.412 826.052C968.595 831.623 962.864 837.461 960.31 843.644C957.931 849.403 957.274 856.961 956.214 863.108L951.099 892.534L943.549 935.501C941.994 943.981 940.114 952.427 938.761 960.939L994.471 979.589C1004.16 982.793 1014.78 985.436 1024 989.704L1024 996.226C995.551 987.622 965.343 977.751 937.615 967.213C935.408 978.847 933.757 990.591 931.787 1002.27C930.673 1008.87 929.694 1015.8 927.715 1022.21L922.651 1021.99C921.767 1015.99 925.355 999.775 926.491 992.881C931.552 962.18 937.414 931.636 942.852 901.001L952.077 847.775C953.406 840.404 954.458 832.862 956.194 825.58C929.442 837.537 902.911 849.496 875.642 860.285L833.567 877.221C822.369 881.635 811.166 885.49 800.373 890.896L800.398 972.451L800.393 1002.27C800.388 1006.24 800.773 1010.58 800.49 1014.52C800.388 1015.94 800.007 1016.54 799.08 1017.57C797.577 1017.99 796.955 1017.8 795.52 1017.37C794.07 1016.08 794.003 1013.54 793.892 1011.72C793.362 1003.07 794.032 994.078 793.965 985.386C793.722 953.713 794.658 921.857 793.747 890.219L700.432 865.68C688.63 862.421 676.803 859.248 664.954 856.162C659.744 854.789 654.45 852.979 649.154 852.019C653.572 893.507 660.155 934.958 665.647 976.329C667.013 986.623 672.291 1013.81 670.899 1022.51L666.197 1022.51C663.538 1016.75 662.807 1004.23 661.84 997.563C658.709 976.603 655.827 955.606 653.194 934.578C649.463 906.776 644.576 878.632 641.957 850.74C641.782 848.874 641.598 847.002 642.194 845.196C648.37 840.662 658.646 837.26 665.776 834.118C675.988 829.618 686.234 824.565 696.714 820.744L696.518 725.956L695.835 726.701C690.898 732.179 686.751 739.112 682.391 745.1C674.498 755.938 666.512 766.676 658.859 777.688C645.029 797.589 609.769 851.638 590.72 863.589C588.339 865.083 585.858 865.619 583.073 865.793C542.026 868.367 472.5 834.867 435.595 816.789C424.489 811.349 413.58 804.442 402.122 799.895C396.325 874.915 408.079 950.41 424.996 1023.28L424.995 1024L418.432 1024C405.779 969.449 396.116 914.948 394.565 858.843C394.229 843.211 394.269 827.574 394.686 811.944C394.867 806.626 395.443 801.342 395.608 796.019C386.708 791.134 377.647 786.555 368.954 781.302C334.572 760.523 306.067 732.865 296.295 692.404C288.913 661.836 291.526 624.998 308.332 597.891C316.795 584.239 330.795 575.416 346.237 571.875C341.957 569.314 337.2 565.769 332.412 564.314C328.514 563.129 324.158 562.769 320.134 562.01C312.105 560.48 304.085 558.898 296.076 557.266C279.43 553.972 262.714 550.851 246.268 546.65C237.838 544.497 229.504 541.774 221.18 539.241C216.744 537.591 212.249 536.311 207.664 535.145C200.657 542.959 193.438 550.63 186.937 558.878C171.952 577.889 159.209 599.919 150.474 622.499C131.88 670.567 130.213 722.621 127.873 773.497C127.203 788.041 126.165 802.592 125.247 817.123C123.797 840.068 122.101 863.151 119.28 885.967C115.062 919.25 109.114 952.292 101.46 984.957C98.5291 997.844 96.2679 1011.43 92.2573 1024L85.4852 1024L85.5801 1022.51C87.3097 1017.56 88.1808 1011.89 89.3628 1006.74L96.5722 974.931C109.659 916.247 115.732 861.453 119.338 801.554C121.98 757.651 121.969 713.389 129.963 669.996C141.215 608.909 175.584 545.738 227.46 510.006C211.492 509.205 196.545 508.048 182.242 500.204C163.658 490.013 154.285 475.777 148.396 455.853C144.508 454.237 140.871 452.474 137.411 450.053C123.984 440.656 115.773 425.794 113.066 409.798C110.102 392.29 112.76 376.498 123.104 361.936C116.5 351.822 113.062 339.969 113.228 327.892C113.505 310.236 121.087 294.759 133.678 282.568C147.776 268.918 173.226 256.538 193.11 256.768C213.182 243.801 230.883 234.052 254.587 229.117C255.13 228.217 255.702 227.334 256.3 226.469C263.139 216.723 276.817 212.698 287.924 210.72C308.907 206.985 328.247 209.823 345.87 222.072C345.923 201.173 345.185 22.44 346.653 19.1097C347.211 17.8442 348.049 17.4695 349.267 17.0001C350.811 17.162 350.898 17.1964 352.064 18.2215C352.815 20.024 352.807 22.1022 352.856 24.0348C353.07 32.6354 352.656 41.3048 352.604 49.914L352.62 93.7217L352.589 227.368C360.165 235.345 365.845 245.793 365.644 257.054C365.501 265.078 361.951 270.99 356.373 276.4C372.579 287.599 384.746 300.39 389.851 319.858C391.742 327.068 393.598 334.459 398.184 340.519C402.907 346.761 409.565 352.887 416.124 357.159C419.498 359.358 423.167 361.227 426.395 363.631C427.414 364.39 428.611 364.943 428.731 366.29C429.063 370.013 424.661 381.208 424.014 386.039C422.321 398.685 423.671 420.65 425.536 433.341L425.656 434.137C434.979 429.272 446.218 417.77 452.953 409.742C469.637 389.856 484.202 367.991 498.389 346.287C515.088 321.11 530.953 295.39 545.96 269.169C550.751 260.815 558.414 249.909 560.789 240.751C562.469 234.278 561.491 226.421 561.944 219.714C562.778 207.374 567.734 154.259 571.387 146.399C573.964 140.853 592.36 125.797 598.043 122.27C601.306 120.245 605.12 118.984 608.739 117.762C611.603 116.794 614.671 115.735 617.729 116.305C624.657 117.595 653.003 134.403 662.043 138.852C686.265 127.655 711.53 119.102 735.912 108.303C739.155 106.866 742.468 105.38 745.54 103.604C750.594 100.681 755.867 96.1957 761.874 95.604C769.329 94.8697 775.421 98.2736 781.012 102.745C784.724 102.935 792.329 102.476 795.316 104.296C797.664 105.727 808.471 122.237 811.327 125.901C823.676 141.742 837.504 156.992 853.046 169.76C860.106 175.559 867.827 181.158 875.671 185.852C879.298 188.022 888.61 190.72 890.849 193.592C892.039 195.118 892.053 196.775 891.833 198.623C891.293 203.16 889.676 207.876 888.468 212.282C880.803 240.24 866.094 262.013 846.507 282.888C839.535 290.317 832.182 297.654 824.051 303.814C825.384 309.711 826.182 315.687 827.775 321.533C837.099 318.572 847.241 316.707 856.78 314.528C882.836 308.577 910.233 303.48 935.742 295.718ZM793.641 181.301C793.17 173.53 787.617 159.92 789.06 153.053C789.34 151.719 789.652 151.312 790.751 150.552C791.546 150.573 792.081 150.635 792.772 151.098C796.747 153.766 797.924 166.197 799.237 170.903C803.251 190.44 806.292 210.23 810.011 229.835C814.186 251.848 819.048 273.879 822.426 296.02C837.216 282.216 859.612 261.841 867.967 243.435C876.409 229.027 881.076 214.75 884.569 198.544C845.388 178.572 816.831 146.729 792.044 111.066C789.302 110.613 786.535 110.219 783.823 109.607C785.896 113.647 792.104 123.202 790.676 127.755C790.384 128.687 789.998 128.84 789.292 129.462C788.023 129.636 787.531 129.54 786.534 128.673C779.524 122.574 780.153 109.25 769.034 103.406C770.365 110.315 771.882 117.28 772.691 124.271C773.543 131.637 774.734 156.078 770.774 162.419C769.908 163.805 768.931 164.545 767.321 164.924C766.225 164.562 765.782 164.434 765.256 163.278C764.875 162.438 764.8 161.428 764.848 160.519C765.315 151.638 766.772 143.278 766.486 134.247C766.157 123.843 764.321 113.82 761.954 103.721C759.657 104.435 757.336 105.107 755.059 105.879C754.364 119.925 752.527 132.88 741.507 142.818C729.962 153.231 714.034 157.15 698.79 156.315C674.901 155.007 655.518 143.643 635.255 132.264C628.65 128.555 622.029 124.226 614.487 122.808C621.698 126.903 643.021 135.122 645.115 142.688C645.848 145.335 645.026 148.506 643.554 150.771C643.088 151.487 642.474 152.124 641.879 152.733C647.262 156.07 663.546 165.963 664.602 171.53C664.78 172.467 664.45 172.718 664.043 173.519C662.777 174.296 662.116 174.602 660.589 174.735C658.03 174.072 655.353 170.813 653.221 169.119C648.03 164.996 642.309 161.312 636.61 157.922C637.171 161.076 637.688 164.221 638.885 167.209C642.306 175.755 653.722 192.848 647.596 201.674C646.909 201.957 646.78 202.196 646.026 201.901C644.983 201.493 644.51 200.853 643.773 200.046C641.453 191.263 639.581 179.428 632.895 172.689C630.951 172.906 632.762 172.612 631.453 173.019C630.071 173.449 628.125 172.674 626.632 172.654C625.908 175.904 628.4 201.508 628.595 207.101C630.092 246.109 630.899 285.14 631.014 324.176C631.015 430.577 623.464 538.173 602.73 642.658C602.702 642.714 602.66 642.765 602.647 642.827C600.278 654.315 598.345 665.924 595.986 677.429C613.334 676.954 630.928 676.603 648.261 677.412C655.637 672.404 662.276 665.31 668.843 659.282L700.092 630.83C712.742 619.204 732.135 600.248 747.056 592.544C761.462 585.105 779.067 584.138 794.52 579.67C805.409 576.522 815.524 571.111 825.998 566.846C831.761 564.5 840.665 560.989 846.712 563.781C848.793 564.742 850.313 566.424 851.04 568.598C852.681 573.503 850.37 578.628 848.335 583.021C852.931 584.007 856.254 585.035 860.129 587.788L860.484 586.91C865.473 574.306 865.627 559.268 864.167 545.967C863.199 537.145 861.43 528.339 859.95 519.587C857.131 502.093 853.946 484.659 850.396 467.298C839.83 413.163 827.757 359.306 817.268 305.149C812.095 278.44 806.653 251.734 801.85 224.959L797.082 198.47C796.15 193.13 795.739 186.197 793.641 181.301ZM746.956 111.557C727.95 120.213 708.128 127.19 688.845 135.241C682.653 137.826 676.353 140.186 670.359 143.211L676.884 145.141C694.41 149.53 713.536 152.368 729.879 142.45C738.312 137.332 744.082 129.429 746.251 119.767C746.839 117.152 747.333 114.222 746.956 111.557ZM603.893 126.419C597.16 130.885 583.395 141.078 578.903 147.33C577.497 149.287 576.905 151.748 576.45 154.079C575.71 157.864 575.206 161.718 574.64 165.534C580.608 157.122 587.81 148.755 595.157 141.529C596.688 140.244 598.185 138.928 599.851 137.818C610.35 139.791 619.771 144.997 630.05 147.495C632.228 146.78 634.45 146.122 636.574 145.255C636.207 143.025 634.055 141.545 632.301 140.269C627.567 136.825 612.544 128.626 607.27 126.695C606.118 126.273 605.08 126.31 603.893 126.419ZM600.99 145.816C590.37 154.924 582.907 166.928 573.197 176.848C571.716 188.647 570.069 200.459 569.094 212.313C568.484 219.712 568.593 239.002 566.715 244.775C564.433 251.792 558.383 261.162 554.74 267.718C538.522 296.236 521.302 324.172 503.112 351.474C491.373 369.248 479.554 387.397 466.276 404.073C457.248 415.41 447.798 425.679 436.321 434.613C432.957 437.232 429.425 439.76 425.613 441.69C425.522 456.561 424.231 469.898 413.074 480.886C402.324 491.473 388.346 493.38 374.043 495.266C388.576 517.34 397.454 535.89 406.24 560.758C425.186 547.631 447.913 527.528 464.128 510.844C479.746 494.696 494.553 478.6 507.189 459.931C521.407 438.923 532.75 416.033 543.722 393.216L571.297 334.696C577.365 321.668 583.52 308.746 589.284 295.574C591.614 290.251 594.416 284.861 596.129 279.313C598.547 271.477 599.466 256.508 600.319 247.923C598.235 249.091 595.358 250.594 592.857 249.8C591.48 249.362 591.308 249.127 590.671 247.939C590.818 245.818 591.664 244.675 593.2 243.269C595.413 241.244 598.697 240.13 601.423 238.894C604.366 211.896 603.575 212.265 620.595 190.824C620.305 186.996 620.558 173.837 618.798 171.139C615.716 172.904 612.437 178.619 610.231 181.51C606.462 186.448 589.289 209.296 584.445 211.481C583 212.133 582.259 211.988 580.815 211.605C580.262 210.986 579.909 210.88 579.92 209.983C579.971 205.714 590.615 195.496 593.641 191.711C592.274 186.38 589.7 181.691 587.394 176.728C591.696 169.982 598.817 163.856 604.397 158.134C610.293 159.025 615.762 160.831 621.264 163.117C622.764 163.739 627.408 166.346 628.733 166.329C629.214 166.323 629.612 165.937 630.051 165.741C630.775 164.243 630.794 163.297 630.267 161.703C628.614 156.71 625.753 153.978 621.045 151.771C615.171 149.017 607.423 146.713 600.99 145.816ZM606.643 165.444L595.265 177.599C596.329 179.446 597.425 182.024 599.064 183.384C600.096 183.058 599.727 183.346 600.275 182.677C604.317 177.895 608.031 172.044 612.57 167.797L606.643 165.444ZM621.278 200.862L620.87 201.528C618.121 205.965 613.434 209.847 611.819 214.809C609.483 221.983 608.649 240.145 607.599 248.64C603.58 281.155 600.582 314.379 594.269 346.522C598.241 351.139 602.906 354.748 607.746 358.394C612.808 361.965 618.155 365.031 623.568 368.032C624.206 328.779 623.919 289.517 622.707 250.278C622.266 233.892 622.781 217.184 621.278 200.862ZM298.949 215.205C286.841 215.995 271.207 219.093 262.549 228.397C269.089 226.103 275.601 223.365 282.252 221.443C298.528 216.738 316.372 216.867 331.806 224.362C341.068 228.86 351.09 237.228 354.426 247.286C356.274 252.86 356.133 259.023 353.427 264.301C350.64 269.737 345.316 271.663 341.408 275.911C333.698 275.966 326.011 275.334 318.3 275.493C319.219 286.647 316.903 293.414 309.727 301.867C299.05 314.444 284.823 323.073 270.304 330.49C281.164 337.684 288.013 347.067 290.587 359.984C293.154 372.863 288.99 385.689 281.761 396.384C279.667 399.482 275.368 405.49 271.491 405.955C266.245 406.585 263.522 399.4 253.726 401.418C250.439 402.08 247.424 403.707 245.066 406.09C240.601 410.553 238.488 417.267 238.592 423.489C238.704 430.221 241.396 436.541 246.322 441.14C251.88 446.327 258.968 449.566 266.691 449.337C269.627 449.228 272.528 448.668 275.293 447.677C278.421 446.537 281.235 443.143 284.746 444.071C285.673 444.947 286.218 445.381 286.366 446.748C286.505 448.034 285.915 449.126 285.073 450.033C283.693 451.517 281.202 452.323 279.354 453.08C280.149 468.326 277.294 480.241 266.786 491.891C261.477 497.775 255.274 501.736 248.323 505.41C251.811 509.205 314.452 541.859 322.82 545.522C320.374 533.642 320.992 523.58 327.84 513.241C335.161 502.187 346.405 493.168 359.631 490.622C377.498 487.183 400.405 488.854 412.108 471.908C424.793 453.541 416.043 418.334 416.622 396.576C416.878 386.983 418.889 377.477 421.832 368.368C407.648 361.04 390.926 347.394 386.054 331.512C384.305 325.809 383.331 319.853 381.208 314.265C374.748 297.265 359.668 286.175 344.623 277.241C350.972 271.675 358.598 266.367 359.292 257.169C359.927 248.759 355.179 239.182 349.615 233.095C339.245 221.75 323.119 215.662 308.008 215.044C305.048 214.923 301.899 214.899 298.949 215.205ZM274.576 232.703C234.498 236.474 204.603 249.958 178.837 280.983C177.273 282.867 174.577 285.987 174.513 288.492C174.508 288.674 174.553 288.854 174.572 289.035L175.539 289.764C176.273 289.653 176.592 289.726 177.17 289.233C182.92 282.092 188.538 274.366 195.241 268.106C212.844 251.665 241.865 239.359 265.729 236.869C269.057 236.522 276.691 237.375 278.926 235.097L279.249 234.134C278.431 233.147 277.8 232.825 276.51 232.639C275.916 232.554 275.16 232.659 274.576 232.703ZM182.951 263.665C161.025 268.936 139.365 280.058 127.219 299.861C119.475 312.322 117.074 327.376 120.56 341.627C122.347 348.911 125.813 356.013 130.127 362.13C130.593 361.484 131.862 360.193 131.7 359.434C130.851 355.449 127.604 350.84 126.011 346.951C120.031 332.353 121.405 316.189 129.435 302.639C135.586 292.26 145.452 283.344 155.965 277.539C161.836 274.298 180.36 268.411 183.193 263.958L182.951 263.665ZM291.285 264.847C291.516 265.921 291.485 267.325 292.522 267.92C293.072 268.235 294.365 268.349 294.99 268.477C300.619 269.634 304.787 271.11 307.699 276.556C309.477 279.881 309.433 283.581 308.209 287.086C302.456 303.55 275.353 316.202 260.767 323.613C259.011 324.505 256.935 325.316 257.312 327.552C258.286 327.943 258.362 327.968 259.327 327.851C275.622 321.419 304.443 305.895 311.27 289.273C313.095 284.828 313.195 279.893 311.298 275.452C309.521 271.292 306.347 268.092 302.126 266.438C298.598 265.055 295.013 264.85 291.285 264.847ZM592.824 303.37L567.537 359.003C548.336 401.256 528.626 444.432 500.147 481.379C486.093 499.611 467.445 518.104 450.316 533.505C436.862 545.601 423.098 557.863 407.776 567.567C408.262 570.42 410.044 576.813 408.485 579.196C401.824 583.348 392.144 585.056 384.618 587.35C393.56 594.654 402.591 601.889 411.125 609.671C424.283 621.669 436.644 634.661 448.842 647.625C471.006 671.181 492.237 696.105 517.271 716.736C518.322 718.105 519.429 719.459 520.355 720.916C520.609 723.375 520.818 725.713 520.658 728.193C535.301 737.896 549.75 747.204 563.293 758.448C590.705 734.895 616.989 710.06 642.059 684.027C633.762 683.844 593.035 684.926 588.677 683.419C587.854 681.676 588.087 680.026 588.389 678.177C588.978 674.572 590.195 671.117 591.01 667.563C592.118 662.731 592.975 657.817 593.904 652.947C598.966 627.384 603.401 601.7 607.206 575.919C613.558 531.094 618.019 486.021 620.578 440.82C621.347 427.635 622.011 414.444 622.568 401.248C622.952 392.865 623.575 384.407 623.543 376.017C612.16 370.371 594.829 359.758 586.938 349.562C586.992 339.688 593.834 309.005 592.824 303.37ZM265.273 335.387L263.967 337.522C264.766 340.123 270.714 343.564 272.826 345.535C284.707 356.629 282.727 373.579 276.071 386.749C274.379 390.098 271.081 393.319 268.657 396.207C269.362 397.099 270.085 397.49 271.071 398.035C277.427 394.35 281.386 386.099 283.166 379.242C285.842 368.931 285.192 358.071 279.634 348.809C276.166 343.03 271.145 338.619 265.273 335.387ZM131.154 367.243C122.081 386.262 118.346 405.989 125.503 426.4C128.325 434.449 135.741 447.773 143.695 451.531C144.826 452.065 145.457 452.155 146.646 451.715C146.825 451.649 146.997 451.567 147.173 451.494C146.641 448.289 140.792 444.984 138.596 442.556C126.61 429.306 123.533 408.85 126.049 391.739C126.874 386.131 128.282 381.209 130.585 376.028C131.061 374.958 134.022 369.63 133.917 368.913C133.869 368.582 133.64 368.303 133.502 367.998C132.719 367.717 131.968 367.425 131.154 367.243ZM359.856 497.093C355.479 498.502 351.379 500.279 347.372 502.543L347.652 503.109C351.037 509.82 355.527 515.931 358.974 522.613C368.569 541.212 375.872 560.469 382.388 580.32C385.045 579.781 387.721 579.288 390.36 578.666C394.53 577.589 398.626 576.423 402.713 575.061C395.791 545.862 383.676 521.69 367.101 496.893C364.664 496.841 362.281 496.767 359.856 497.093ZM341.507 507.336C333.836 515.114 328.127 524.323 328.212 535.559C328.273 543.62 331.444 550.64 334.665 557.858C346.172 563.325 356.215 570.907 367.306 577.012L376.045 582.272C368.308 558.937 360.188 538.812 348.131 517.302C346.661 514.68 344.12 508.753 341.507 507.336ZM240.78 509.991C231.444 515.358 220.797 521.223 213.533 529.24C234.482 537.193 256.503 542.124 278.378 546.752C287.415 548.663 296.486 550.801 305.577 552.4C313.469 553.893 321.317 555.807 329.217 557.191C321.069 552.098 312.265 548.209 303.731 543.836C289.68 536.637 275.614 529.172 261.877 521.393C258.935 519.727 243.099 509.953 240.78 509.991ZM871.125 544.389C873.537 566.265 871.853 590.48 857.589 608.384C845.357 623.738 821.97 629.483 804.039 635.439C816.119 640.577 827.858 645.08 839.358 651.535C850.877 658.095 868.911 674.563 883.375 670.413C884.179 670.183 885.986 669.688 886.423 668.932C889.281 664.002 880.462 594 878.959 583.716C877.661 574.831 874.507 552.976 871.549 545.268C871.432 544.964 871.266 544.682 871.125 544.389ZM839.462 570.1C824.944 573.402 811.626 581.778 797.261 586.087C781.279 590.881 761.742 592.26 747.215 600.451C738.968 605.101 731.968 612.208 724.9 618.422C717.624 624.818 710.256 631.093 703.089 637.614C679.74 658.651 656.74 680.072 634.098 701.868C613.753 721.586 590.989 745.048 568.788 762.497C571.652 765.002 575.248 767.403 576.387 771.182C576.115 772.395 576.018 772.929 574.797 773.571C573.86 774.063 572.539 774.176 571.617 773.613C567.178 770.908 560.949 764.742 556.432 761.237C544.68 752.029 532.43 743.475 519.739 735.612C513.415 769.178 500.425 803.815 475.164 827.855C492.667 835.78 510.557 843.453 528.881 849.281C544.949 854.439 570.101 862.152 586.602 858.375C611.47 838.59 628.593 808.754 646.419 782.968C663.777 758.143 681.592 733.641 699.856 709.474C713.531 691.244 727.994 671.008 744.133 655.046C748.128 651.094 752.435 647.971 757.48 645.481C765.979 641.287 775.43 638.553 784.355 635.369C794.409 631.783 804.327 627.83 814.376 624.227C822.216 621.416 830.349 618.864 837.677 614.853C843.749 611.53 855 603.699 855.666 596.166C855.788 594.779 855.548 593.984 854.881 592.787C853.316 591.469 851.9 591.196 849.888 591.344C843.217 591.838 818.015 602.387 810.271 605.591C806.304 607.232 802.045 609.59 797.876 610.557C796.288 610.926 794.879 611.141 793.397 610.339C792.892 609.124 792.606 608.733 793.02 607.414C795.114 600.749 827.446 592.825 834.972 587.528C838.205 585.252 840.923 582.071 842.842 578.618C843.908 576.702 845.087 574.236 844.386 572.019C844.108 571.141 843.529 570.86 842.859 570.281C841.61 569.974 840.739 569.958 839.462 570.1ZM353.862 577.117C337.782 580.359 323.941 586.673 314.571 600.715C298.873 624.242 296.457 659.82 301.961 687.003C309.585 724.654 335.282 751.176 366.349 771.613C378.993 779.931 392.551 786.865 405.932 793.905C417.193 799.83 428.379 805.95 439.815 811.531C442.672 811.095 453.786 796.781 455.964 793.83C476.676 765.778 486.629 736.91 491.996 702.696C468.083 680.576 447.348 654.989 424.459 631.846C412.669 619.926 399.767 607.903 386.4 597.744C380.479 593.244 374.105 589.358 367.916 585.25C364.994 583.311 357.359 577.362 354.224 577.071C354.103 577.059 353.983 577.101 353.862 577.117ZM885.327 580.297C889.136 603.282 891.928 626.968 893.548 650.211C916.38 672.417 928.613 702.804 928.995 734.506C929.287 758.683 919.564 781.074 902.601 798.147C902.101 798.656 901.594 799.16 901.081 799.657C910.293 801.251 958.952 810.707 965.037 814.69C966.24 816.728 965.574 818.626 965.03 820.752C964.717 821.964 964.395 823.173 964.062 824.38L964.245 825.517C966.74 823.22 968.611 819.191 970.35 816.24C983.001 794.781 989.937 769.125 990.981 744.323C992.81 700.875 976.637 654.726 947.162 622.679C930.431 604.488 908.193 589.664 885.327 580.297ZM794.246 639.508C776.63 645.135 758.98 649.682 745.785 663.502C743.783 665.599 741.302 668.121 739.934 670.691C737.788 674.719 737.187 679.705 736.477 684.164C733.038 704.654 734.73 725.677 741.402 745.353C746.317 759.801 752.989 771.449 762.584 783.22C764.095 785.073 765.826 788.017 767.984 789.084C769.255 789.713 769.985 789.23 771.24 788.852C778.717 785.813 785.913 781.9 793.484 779.173C798.149 780.091 802.775 780.892 807.496 781.492C803.442 776.565 799.34 771.661 795.956 766.238C782.353 744.438 777.703 717.404 780.188 692.042C782.054 672.995 788.986 656.556 802.3 642.741C799.837 641.421 797.108 639.482 794.246 639.508ZM809.557 645.246C791.986 663.832 785.769 681.417 786.501 707.179C787.083 727.676 792.24 749.432 804.336 766.242C808.663 772.256 813.981 777.421 818.417 783.316L859.163 791.266C870.39 793.517 881.669 796.128 893.005 797.721C896.838 794.025 900.661 790.341 904.01 786.186C919.523 765.612 924.383 744.583 920.774 719.128C917.729 697.655 907.777 677.612 894.143 660.911C894.278 665.567 894.914 670.644 891.431 674.349C888.355 677.621 883.591 677.888 879.382 677.846C863.191 677.682 852.298 668.081 839.351 659.791C833.367 655.959 826.963 652.671 820.546 649.628C817.16 648.023 813.238 645.834 809.557 645.246ZM728.485 683.976C719.626 694.085 710.729 704.992 703.496 716.306C703.392 750.001 702.773 783.843 703.617 817.522C711.374 814.333 718.986 810.77 726.626 807.31L761.187 792.533C733.24 759.938 725.507 728.394 728.769 686.127C728.847 685.108 729.003 684.916 728.485 683.976ZM497.934 708.409C496.275 716.517 494.845 724.78 492.763 732.79C486.699 755.772 476.297 777.382 462.118 796.457C457.387 802.821 452.035 808.579 447.095 814.752C452.955 817.762 458.866 820.674 464.824 823.486C466.345 824.204 467.356 825.087 469.076 824.522C471.864 823.606 474.596 819.171 476.43 816.896C488.942 801.376 499.061 784.599 505.463 765.612C509.828 752.664 514.139 737.281 514.601 723.584C509.639 717.988 503.322 713.615 497.934 708.409ZM794.06 786.49C783.03 790.12 772.173 795.04 761.549 799.702L721.155 817.556C712 821.6 702.896 825.8 693.667 829.672C680.588 835.157 667.529 840.242 654.749 846.427C690.065 855.581 725.315 864.99 760.495 874.651C760.447 859.554 759.569 844.147 760.305 829.088C767.25 825.76 774.887 823.406 782.127 820.761C787.265 818.88 793.969 815.536 799.416 815.568C805.078 815.601 811.124 817.189 816.7 818.229C827.467 820.242 838.218 822.335 848.954 824.508C862.221 827.024 875.467 829.649 888.691 832.382C896.46 833.976 904.555 835.313 912.09 837.822C925.992 832.166 940.324 825.702 953.459 818.447C918.765 809.958 883.875 803.023 848.864 796.031C833.329 792.928 809.575 786.982 794.06 786.49ZM798.951 822.049C788.638 825.239 776.257 829.079 766.624 833.826C766.873 847.911 766.992 861.998 766.98 876.085C777.435 878.895 787.944 882.31 798.56 884.395C807.174 880.003 816.165 876.72 825.144 873.17C832.689 870.187 840.149 866.994 847.68 863.977C865.504 857.018 883.12 849.603 900.879 842.498C889.912 838.972 878.236 837.259 866.949 834.985C849.667 831.354 832.332 827.976 814.951 824.852C809.892 823.973 804.036 822.143 798.951 822.049Z"/>
	<path fill="#FEFEFE" d="M799.237 170.903C797.924 166.197 796.747 153.766 792.772 151.098C792.081 150.635 791.546 150.573 790.751 150.552C789.652 151.312 789.34 151.719 789.06 153.053C787.617 159.92 793.17 173.53 793.641 181.301C779.226 249.677 755.37 314.528 729.691 379.313C718.898 406.542 708.401 434.024 696.712 460.879C681.13 495.913 664.608 530.521 647.164 564.666C640.718 577.453 633.758 589.876 627.101 602.541C619.891 616.256 613.131 630.649 603.661 643.021L603.056 643.265L602.73 642.658C623.464 538.173 631.015 430.577 631.014 324.176C630.899 285.14 630.092 246.109 628.595 207.101C628.4 201.508 625.908 175.904 626.632 172.654C628.125 172.674 630.071 173.449 631.453 173.019C632.762 172.612 630.951 172.906 632.895 172.689C639.581 179.428 641.453 191.263 643.773 200.046C644.51 200.853 644.983 201.493 646.026 201.901C646.78 202.196 646.909 201.957 647.596 201.674C653.722 192.848 642.306 175.755 638.885 167.209C637.688 164.221 637.171 161.076 636.61 157.922C642.309 161.312 648.03 164.996 653.221 169.119C655.353 170.813 658.03 174.072 660.589 174.735C662.116 174.602 662.777 174.296 664.043 173.519C664.45 172.718 664.78 172.467 664.602 171.53C663.546 165.963 647.262 156.07 641.879 152.733C642.474 152.124 643.088 151.487 643.554 150.771C645.026 148.506 645.848 145.335 645.115 142.688C643.021 135.122 621.698 126.903 614.487 122.808C622.029 124.226 628.65 128.555 635.255 132.264C655.518 143.643 674.901 155.007 698.79 156.315C714.034 157.15 729.962 153.231 741.507 142.818C752.527 132.88 754.364 119.925 755.059 105.879C757.336 105.107 759.657 104.435 761.954 103.721C764.321 113.82 766.157 123.843 766.486 134.247C766.772 143.278 765.315 151.638 764.848 160.519C764.8 161.428 764.875 162.438 765.256 163.278C765.782 164.434 766.225 164.562 767.321 164.924C768.931 164.545 769.908 163.805 770.774 162.419C774.734 156.078 773.543 131.637 772.691 124.271C771.882 117.28 770.365 110.315 769.034 103.406C780.153 109.25 779.524 122.574 786.534 128.673C787.531 129.54 788.023 129.636 789.292 129.462C789.998 128.84 790.384 128.687 790.676 127.755C792.104 123.202 785.896 113.647 783.823 109.607C786.535 110.219 789.302 110.613 792.044 111.066C816.831 146.729 845.388 178.572 884.569 198.544C881.076 214.75 876.409 229.027 867.967 243.435C845.834 235.292 843.72 226.421 834.351 206.891C826.563 190.657 815.64 178.485 799.237 170.903ZM657.829 203.279C654.741 205.659 654.445 209.611 653.973 213.257C652.792 222.374 652.597 231.726 652.216 240.909C651.002 270.192 649.436 332.37 668.454 356.137C670.45 358.631 673.354 361.154 676.704 361.35C678.149 361.434 679.517 360.883 680.812 360.308C686.19 355.888 687.557 349.933 688.178 343.286C688.951 335.011 688.273 326.592 686.792 318.433C683.798 301.94 678.22 286.04 673.967 269.86C671.197 259.323 669.436 248.378 667.395 237.679C666.238 231.616 663.515 208.383 660.47 204.785C659.724 203.902 658.895 203.626 657.829 203.279Z"/>
	<path fill="#745DA8" d="M670.359 143.211C676.353 140.186 682.653 137.826 688.845 135.241C708.128 127.19 727.95 120.213 746.956 111.557C747.333 114.222 746.839 117.152 746.251 119.767C744.082 129.429 738.312 137.332 729.879 142.45C713.536 152.368 694.41 149.53 676.884 145.141L670.359 143.211Z"/>
	<path fill="#FEFEFE" d="M574.64 165.534C575.206 161.718 575.71 157.864 576.45 154.079C576.905 151.748 577.497 149.287 578.903 147.33C583.395 141.078 597.16 130.885 603.893 126.419C605.08 126.31 606.118 126.273 607.27 126.695C612.544 128.626 627.567 136.825 632.301 140.269C634.055 141.545 636.207 143.025 636.574 145.255C634.45 146.122 632.228 146.78 630.05 147.495C619.771 144.997 610.35 139.791 599.851 137.818C598.185 138.928 596.688 140.244 595.157 141.529C587.81 148.755 580.608 157.122 574.64 165.534Z"/>
	<path fill="#FEFEFE" d="M573.197 176.848C582.907 166.928 590.37 154.924 600.99 145.816C607.423 146.713 615.171 149.017 621.045 151.771C625.753 153.978 628.614 156.71 630.267 161.703C630.794 163.297 630.775 164.243 630.051 165.741C629.612 165.937 629.214 166.323 628.733 166.329C627.408 166.346 622.764 163.739 621.264 163.117C615.762 160.831 610.293 159.025 604.397 158.134C598.817 163.856 591.696 169.982 587.394 176.728C589.7 181.691 592.274 186.38 593.641 191.711C590.615 195.496 579.971 205.714 579.92 209.983C579.909 210.88 580.262 210.986 580.815 211.605C582.259 211.988 583 212.133 584.445 211.481C589.289 209.296 606.462 186.448 610.231 181.51C612.437 178.619 615.716 172.904 618.798 171.139C620.558 173.837 620.305 186.996 620.595 190.824C603.575 212.265 604.366 211.896 601.423 238.894C598.697 240.13 595.413 241.244 593.2 243.269C591.664 244.675 590.818 245.818 590.671 247.939C591.308 249.127 591.48 249.362 592.857 249.8C595.358 250.594 598.235 249.091 600.319 247.923C599.466 256.508 598.547 271.477 596.129 279.313C594.416 284.861 591.614 290.251 589.284 295.574C583.52 308.746 577.365 321.668 571.297 334.696L543.722 393.216C532.75 416.033 521.407 438.923 507.189 459.931C494.553 478.6 479.746 494.696 464.128 510.844C447.913 527.528 425.186 547.631 406.24 560.758C397.454 535.89 388.576 517.34 374.043 495.266C388.346 493.38 402.324 491.473 413.074 480.886C424.231 469.898 425.522 456.561 425.613 441.69C429.425 439.76 432.957 437.232 436.321 434.613C447.798 425.679 457.248 415.41 466.276 404.073C479.554 387.397 491.373 369.248 503.112 351.474C521.302 324.172 538.522 296.236 554.74 267.718C558.383 261.162 564.433 251.792 566.715 244.775C568.593 239.002 568.484 219.712 569.094 212.313C570.069 200.459 571.716 188.647 573.197 176.848Z"/>
	<path fill="#FEFEFE" d="M595.265 177.599L606.643 165.444L612.57 167.797C608.031 172.044 604.317 177.895 600.275 182.677C599.727 183.346 600.096 183.058 599.064 183.384C597.425 182.024 596.329 179.446 595.265 177.599Z"/>
	<path fill="#745DA8" d="M799.237 170.903C815.64 178.485 826.563 190.657 834.351 206.891C843.72 226.421 845.834 235.292 867.967 243.435C859.612 261.841 837.216 282.216 822.426 296.02C819.048 273.879 814.186 251.848 810.011 229.835C806.292 210.23 803.251 190.44 799.237 170.903Z"/>
	<path fill="#745DA8" d="M793.641 181.301C795.739 186.197 796.15 193.13 797.082 198.47L801.85 224.959C806.653 251.734 812.095 278.44 817.268 305.149C827.757 359.306 839.83 413.163 850.396 467.298C853.946 484.659 857.131 502.093 859.95 519.587C861.43 528.339 863.199 537.145 864.167 545.967C865.627 559.268 865.473 574.306 860.484 586.91L860.129 587.788C856.254 585.035 852.931 584.007 848.335 583.021C850.37 578.628 852.681 573.503 851.04 568.598C850.313 566.424 848.793 564.742 846.712 563.781C840.665 560.989 831.761 564.5 825.998 566.846C815.524 571.111 805.409 576.522 794.52 579.67C779.067 584.138 761.462 585.105 747.056 592.544C732.135 600.248 712.742 619.204 700.092 630.83L668.843 659.282C662.276 665.31 655.637 672.404 648.261 677.412C630.928 676.603 613.334 676.954 595.986 677.429C598.345 665.924 600.278 654.315 602.647 642.827C602.66 642.765 602.702 642.714 602.73 642.658L603.056 643.265L603.661 643.021C613.131 630.649 619.891 616.256 627.101 602.541C633.758 589.876 640.718 577.453 647.164 564.666C664.608 530.521 681.13 495.913 696.712 460.879C708.401 434.024 718.898 406.542 729.691 379.313C755.37 314.528 779.226 249.677 793.641 181.301Z"/>
	<path fill="#745DA8" d="M594.269 346.522C600.582 314.379 603.58 281.155 607.599 248.64C608.649 240.145 609.483 221.983 611.819 214.809C613.434 209.847 618.121 205.965 620.87 201.528L621.278 200.862C622.781 217.184 622.266 233.892 622.707 250.278C623.919 289.517 624.206 328.779 623.568 368.032C618.155 365.031 612.808 361.965 607.746 358.394C602.906 354.748 598.241 351.139 594.269 346.522Z"/>
	<path fill="#745DA8" d="M680.812 360.308C679.517 360.883 678.149 361.434 676.704 361.35C673.354 361.154 670.45 358.631 668.454 356.137C649.436 332.37 651.002 270.192 652.216 240.909C652.597 231.726 652.792 222.374 653.973 213.257C654.445 209.611 654.741 205.659 657.829 203.279C658.895 203.626 659.724 203.902 660.47 204.785C663.515 208.383 666.238 231.616 667.395 237.679C669.436 248.378 671.197 259.323 673.967 269.86C678.22 286.04 683.798 301.94 686.792 318.433C688.273 326.592 688.951 335.011 688.178 343.286C687.557 349.933 686.19 355.888 680.812 360.308Z"/>
	<path fill="#FEFEFE" d="M262.549 228.397C271.207 219.093 286.841 215.995 298.949 215.205C301.899 214.899 305.048 214.923 308.008 215.044C323.119 215.662 339.245 221.75 349.615 233.095C355.179 239.182 359.927 248.759 359.292 257.169C358.598 266.367 350.972 271.675 344.623 277.241C359.668 286.175 374.748 297.265 381.208 314.265C383.331 319.853 384.305 325.809 386.054 331.512C390.926 347.394 407.648 361.04 421.832 368.368C418.889 377.477 416.878 386.983 416.622 396.576C416.043 418.334 424.793 453.541 412.108 471.908C400.405 488.854 377.498 487.183 359.631 490.622C346.405 493.168 335.161 502.187 327.84 513.241C320.992 523.58 320.374 533.642 322.82 545.522C314.452 541.859 251.811 509.205 248.323 505.41C255.274 501.736 261.477 497.775 266.786 491.891C277.294 480.241 280.149 468.326 279.354 453.08C281.202 452.323 283.693 451.517 285.073 450.033C285.915 449.126 286.505 448.034 286.366 446.748C286.218 445.381 285.673 444.947 284.746 444.071C281.235 443.143 278.421 446.537 275.293 447.677C272.528 448.668 269.627 449.228 266.691 449.337C258.968 449.566 251.88 446.327 246.322 441.14C241.396 436.541 238.704 430.221 238.592 423.489C238.488 417.267 240.601 410.553 245.066 406.09C247.424 403.707 250.439 402.08 253.726 401.418C263.522 399.4 266.245 406.585 271.491 405.955C275.368 405.49 279.667 399.482 281.761 396.384C288.99 385.689 293.154 372.863 290.587 359.984C288.013 347.067 281.164 337.684 270.304 330.49C284.823 323.073 299.05 314.444 309.727 301.867C316.903 293.414 319.219 286.647 318.3 275.493C326.011 275.334 333.698 275.966 341.408 275.911C345.316 271.663 350.64 269.737 353.427 264.301C356.133 259.023 356.274 252.86 354.426 247.286C351.09 237.228 341.068 228.86 331.806 224.362C316.372 216.867 298.528 216.738 282.252 221.443C275.601 223.365 269.089 226.103 262.549 228.397ZM338.396 300.141C332.023 301.245 326.721 303.761 322.928 309.215C318.97 314.906 317.661 321.816 318.968 328.586C319.499 331.338 320.555 335.291 323.145 336.861C324.114 337.448 325.38 337.543 326.412 337.057C328.666 335.994 330.255 332.443 331.473 330.365C334.158 326.971 336.877 324.365 340.5 321.975C344.642 319.243 358.01 314.982 357.793 309.307C357.723 307.477 356.235 306.009 354.83 305.018C350.226 301.769 344.023 299.686 338.396 300.141ZM353.52 344.508C351.798 345.664 350.272 346.61 349.847 348.804C348.807 354.166 354.01 364.252 357.156 368.617C358.34 370.261 359.619 371.539 361.744 371.797C362.504 371.889 363.396 371.75 364.159 371.671C366.058 370.362 367.315 369.407 367.959 367.116C369.332 362.234 364.38 351.926 361.503 347.905C360.351 346.295 358.905 344.666 356.791 344.488C355.713 344.397 354.6 344.463 353.52 344.508ZM403.912 414.395C403.74 414.515 403.57 414.636 403.397 414.754C392.129 422.414 374.286 426.515 360.817 428.288C358.466 428.597 350.544 428.923 349.399 430.733C349.276 430.928 349.224 431.161 349.166 431.384C348.448 434.132 350.345 437.178 351.819 439.378C354.596 443.522 358.276 447.616 362.357 450.505C370.234 455.53 378.755 458.927 388.259 456.83C394.947 455.418 400.746 451.286 404.264 445.424C408.594 438.257 410.406 426.207 408.212 418.186C407.763 416.541 407.184 415.5 405.738 414.518C405.171 414.471 404.475 414.354 403.912 414.395Z"/>
	<path fill="#FEFEFE" d="M177.17 289.233C176.592 289.726 176.273 289.653 175.539 289.764L174.572 289.035C174.553 288.854 174.508 288.674 174.513 288.492C174.577 285.987 177.273 282.867 178.837 280.983C204.603 249.958 234.498 236.474 274.576 232.703C275.16 232.659 275.916 232.554 276.51 232.639C277.8 232.825 278.431 233.147 279.249 234.134L278.926 235.097C276.691 237.375 269.057 236.522 265.729 236.869C241.865 239.359 212.844 251.665 195.241 268.106C188.538 274.366 182.92 282.092 177.17 289.233Z"/>
	<path fill="#FEFEFE" d="M130.127 362.13C125.813 356.013 122.347 348.911 120.56 341.627C117.074 327.376 119.475 312.322 127.219 299.861C139.365 280.058 161.025 268.936 182.951 263.665L183.193 263.958C180.36 268.411 161.836 274.298 155.965 277.539C145.452 283.344 135.586 292.26 129.435 302.639C121.405 316.189 120.031 332.353 126.011 346.951C127.604 350.84 130.851 355.449 131.7 359.434C131.862 360.193 130.593 361.484 130.127 362.13Z"/>
	<path fill="#FEFEFE" d="M259.327 327.851C258.362 327.968 258.286 327.943 257.312 327.552C256.935 325.316 259.011 324.505 260.767 323.613C275.353 316.202 302.456 303.55 308.209 287.086C309.433 283.581 309.477 279.881 307.699 276.556C304.787 271.11 300.619 269.634 294.99 268.477C294.365 268.349 293.072 268.235 292.522 267.92C291.485 267.325 291.516 265.921 291.285 264.847C295.013 264.85 298.598 265.055 302.126 266.438C306.347 268.092 309.521 271.292 311.298 275.452C313.195 279.893 313.095 284.828 311.27 289.273C304.443 305.895 275.622 321.419 259.327 327.851Z"/>
	<path d="M331.473 330.365C330.255 332.443 328.666 335.994 326.412 337.057C325.38 337.543 324.114 337.448 323.145 336.861C320.555 335.291 319.499 331.338 318.968 328.586C317.661 321.816 318.97 314.906 322.928 309.215C326.721 303.761 332.023 301.245 338.396 300.141C344.023 299.686 350.226 301.769 354.83 305.018C356.235 306.009 357.723 307.477 357.793 309.307C358.01 314.982 344.642 319.243 340.5 321.975C336.877 324.365 334.158 326.971 331.473 330.365Z"/>
	<path fill="#9F8BE8" d="M407.776 567.567C423.098 557.863 436.862 545.601 450.316 533.505C467.445 518.104 486.093 499.611 500.147 481.379C528.626 444.432 548.336 401.256 567.537 359.003L592.824 303.37C593.834 309.005 586.992 339.688 586.938 349.562C594.829 359.758 612.16 370.371 623.543 376.017C623.575 384.407 622.952 392.865 622.568 401.248C622.011 414.444 621.347 427.635 620.578 440.82C618.019 486.021 613.558 531.094 607.206 575.919C603.401 601.7 598.966 627.384 593.904 652.947C592.975 657.817 592.118 662.731 591.01 667.563C590.195 671.117 588.978 674.572 588.389 678.177C588.087 680.026 587.854 681.676 588.677 683.419C593.035 684.926 633.762 683.844 642.059 684.027C616.989 710.06 590.705 734.895 563.293 758.448C549.75 747.204 535.301 737.896 520.658 728.193C520.818 725.713 520.609 723.375 520.355 720.916C519.429 719.459 518.322 718.105 517.271 716.736C492.237 696.105 471.006 671.181 448.842 647.625C436.644 634.661 424.283 621.669 411.125 609.671C402.591 601.889 393.56 594.654 384.618 587.35C392.144 585.056 401.824 583.348 408.485 579.196C410.044 576.813 408.262 570.42 407.776 567.567Z"/>
	<path fill="#9F8BE8" d="M829.194 328.125C836.807 326.042 844.731 324.662 852.424 322.84C873.429 317.767 894.491 312.938 915.608 308.354C921.968 306.958 930.619 303.289 937.016 303.651C945.162 304.112 964.541 310.368 973.585 312.725C990.361 317.096 1007.36 320.714 1024 325.583L1024 455.57C1001.1 447.468 975.43 441.401 951.905 434.327L884.949 414.748C871.614 410.846 858.269 406.327 844.746 403.169C842.624 396.853 841.585 389.961 840.247 383.431C837.992 372.548 835.798 361.653 833.665 350.745C832.234 343.203 831.136 335.556 829.194 328.125Z"/>
	<path fill="#FEFEFE" d="M271.071 398.035C270.085 397.49 269.362 397.099 268.657 396.207C271.081 393.319 274.379 390.098 276.071 386.749C282.727 373.579 284.707 356.629 272.826 345.535C270.714 343.564 264.766 340.123 263.967 337.522L265.273 335.387C271.145 338.619 276.166 343.03 279.634 348.809C285.192 358.071 285.842 368.931 283.166 379.242C281.386 386.099 277.427 394.35 271.071 398.035Z"/>
	<path d="M364.159 371.671C363.396 371.75 362.504 371.889 361.744 371.797C359.619 371.539 358.34 370.261 357.156 368.617C354.01 364.252 348.807 354.166 349.847 348.804C350.272 346.61 351.798 345.664 353.52 344.508C354.6 344.463 355.713 344.397 356.791 344.488C358.905 344.666 360.351 346.295 361.503 347.905C364.38 351.926 369.332 362.234 367.959 367.116C367.315 369.407 366.058 370.362 364.159 371.671Z"/>
	<path fill="#FEFEFE" d="M147.173 451.494C146.997 451.567 146.825 451.649 146.646 451.715C145.457 452.155 144.826 452.065 143.695 451.531C135.741 447.773 128.325 434.449 125.503 426.4C118.346 405.989 122.081 386.262 131.154 367.243C131.968 367.425 132.719 367.717 133.502 367.998C133.64 368.303 133.869 368.582 133.917 368.913C134.022 369.63 131.061 374.958 130.585 376.028C128.282 381.209 126.874 386.131 126.049 391.739C123.533 408.85 126.61 429.306 138.596 442.556C140.792 444.984 146.641 448.289 147.173 451.494Z"/>
	<path d="M0 401.867C4.95263 401.76 26.3208 400.154 28.986 403.252C31.5015 406.176 29.5159 423.214 30.5344 428.581C31.9483 436.034 39.7355 451.276 43.9073 457.934C43.8936 453.48 42.8176 438.576 44.8729 435.484C50.2026 433.826 87.3299 433.552 90.866 435.685C92.0074 436.373 92.0071 437.603 92.1259 438.812C92.6095 443.736 92.3254 449.554 92.05 454.524C91.9053 457.136 91.1933 460.009 91.501 462.59C91.636 463.722 92.15 464.693 92.5957 465.722C96.4716 474.667 100.316 483.608 104.347 492.49C108.415 501.452 113.946 511.473 116.003 521.108C117.157 526.515 116.512 533.143 116.516 538.653L116.513 569.851L116.314 633.298C116.269 642.155 116.8 651.249 116.35 660.07C116.229 662.432 115.824 664.682 114.923 666.879C113.207 671.064 110.484 673.97 106.243 675.597C98.2328 678.668 69.6015 677.268 59.906 676.686C56.5296 681.119 53.5655 683.407 47.8915 684.214C42.2155 685.022 36.0513 684.553 30.3132 684.528L0 684.381L0 677.456C9.37299 677.445 42.9113 678.845 49.3363 676.475C51.6685 675.615 53.5526 673.406 54.5444 671.173C55.2062 669.683 55.3774 668.204 55.4511 666.59C55.9658 655.308 55.5989 643.893 55.6301 632.598L55.7177 567.505L55.6406 530.945C55.6116 522.308 56.4471 512.418 54.3985 504.011C48.1643 478.429 32.2312 456.054 23.4868 431.432C15.6655 431.253 7.82377 431.372 0 431.383L0 424.988C7.76837 424.975 15.5355 424.794 23.2961 424.446L23.4097 408.706C15.6208 408.49 7.79346 408.643 0 408.645L0 401.867ZM50.3354 441.4C50.326 446.293 50.2852 451.187 50.2128 456.08C61.8012 456.232 73.4638 456.4 85.0473 455.969C85.168 451.17 85.2362 446.369 85.2519 441.569L50.3354 441.4ZM45.8022 462.84C51.5316 475.333 58.8895 488.422 61.6048 501.964C63.1035 509.439 62.5854 517.347 62.5636 524.94L62.4837 554.382C62.4539 592.738 62.0209 631.187 62.815 669.532C71.9366 669.617 95.1177 670.933 102.604 669.069C104.339 668.637 105.595 667.805 106.926 666.653C108.257 664.456 108.934 662.88 109.102 660.298C109.785 649.77 109.126 638.788 109.092 628.221L109.096 567.276C109.099 558.423 109.193 549.569 109.379 540.717C109.469 536.109 110.325 528.344 109.369 524.004C108.397 519.591 105.794 514.9 103.985 510.729L89.4767 477.922C87.3579 473.131 84.5694 468.001 83.0553 463.027L45.8022 462.84Z"/>
	<path fill="#745DA8" d="M0 408.645C7.79346 408.643 15.6208 408.49 23.4097 408.706L23.2961 424.446C15.5355 424.794 7.76837 424.975 -1.11022e-16 424.988L0 408.645Z"/>
	<path fill="#9F8BE8" d="M846.134 410.57L1024 462.496L1024 572.607C1011.68 567.873 998.727 564.361 986.124 560.431L925.167 541.795C906.394 536.19 887.634 530.83 869.164 524.256C865.782 511.79 864.329 499.07 861.702 486.462L851.079 434.498C849.458 426.516 847.527 418.597 846.134 410.57ZM899.275 455.684C891.225 456.599 884.805 459.07 879.631 465.651C874.176 472.588 872.164 481.374 873.32 490.058C874.618 499.892 879.789 508.8 887.684 514.805C893.485 519.179 900.991 521.959 908.318 521.293C916.522 520.206 923.602 517.293 928.786 510.465C934.011 503.583 935.548 494.773 934.284 486.358C932.779 476.676 927.484 467.991 919.566 462.219C913.78 458.005 906.503 455.265 899.275 455.684ZM993.678 491.594C988.292 493.565 984.224 496.336 981.636 501.679C978.935 507.255 978.927 514.051 981.194 519.772C983.612 525.769 988.345 530.538 994.324 533.002C998.367 534.63 1002.16 534.707 1006.42 534.134C1011.79 532.187 1016.01 529.58 1018.54 524.192C1021.02 518.917 1020.94 512.724 1018.93 507.315C1016.66 501.244 1012.04 495.966 1006.11 493.267C1002.03 491.411 998.074 491.092 993.678 491.594Z"/>
	<path d="M362.357 450.505C358.276 447.616 354.596 443.522 351.819 439.378C350.345 437.178 348.448 434.132 349.166 431.384C349.224 431.161 349.276 430.928 349.399 430.733C350.544 428.923 358.466 428.597 360.817 428.288C374.286 426.515 392.129 422.414 403.397 414.754C403.57 414.636 403.74 414.515 403.912 414.395C404.475 414.354 405.171 414.471 405.738 414.518C407.184 415.5 407.763 416.541 408.212 418.186C410.406 426.207 408.594 438.257 404.264 445.424C400.746 451.286 394.947 455.418 388.259 456.83C378.755 458.927 370.234 455.53 362.357 450.505ZM400.795 423.947C386.641 429.406 372.791 432.943 357.875 435.654C360.068 439.612 362.721 442.296 366.119 445.216C372.54 449.189 379.606 452.067 387.33 450.378C392.072 449.379 396.214 446.52 398.83 442.441C401.571 438.15 403.279 430.889 402.439 425.719C402.332 425.059 402.198 424.869 401.932 424.338L400.795 423.947Z"/>
	<path fill="#FEFEFE" d="M357.875 435.654C372.791 432.943 386.641 429.406 400.795 423.947L401.932 424.338C402.198 424.869 402.332 425.059 402.439 425.719C403.279 430.889 401.571 438.15 398.83 442.441C396.214 446.52 392.072 449.379 387.33 450.378C379.606 452.067 372.54 449.189 366.119 445.216C362.721 442.296 360.068 439.612 357.875 435.654Z"/>
	<path fill="#9F8BE8" d="M0 431.383C7.82377 431.372 15.6655 431.253 23.4868 431.432C32.2312 456.054 48.1643 478.429 54.3985 504.011C56.4471 512.418 55.6116 522.308 55.6406 530.945L55.7177 567.505L55.6301 632.598C55.5989 643.893 55.9658 655.308 55.4511 666.59C55.3774 668.204 55.2062 669.683 54.5444 671.173C53.5526 673.406 51.6685 675.615 49.3363 676.475C42.9113 678.845 9.37299 677.445 0 677.456L0 431.383Z"/>
	<path fill="#745DA8" d="M50.2128 456.08C50.2852 451.187 50.326 446.293 50.3354 441.4L85.2519 441.569C85.2362 446.369 85.168 451.17 85.0473 455.969C73.4638 456.4 61.8012 456.232 50.2128 456.08Z"/>
	<path d="M908.318 521.293C900.991 521.959 893.485 519.179 887.684 514.805C879.789 508.8 874.618 499.892 873.32 490.058C872.164 481.374 874.176 472.588 879.631 465.651C884.805 459.07 891.225 456.599 899.275 455.684C906.503 455.265 913.78 458.005 919.566 462.219C927.484 467.991 932.779 476.676 934.284 486.358C935.548 494.773 934.011 503.583 928.786 510.465C923.602 517.293 916.522 520.206 908.318 521.293ZM896.209 463.102C890.02 465.151 885.216 468.659 882.204 474.597C879.1 480.713 879.09 487.61 881.271 494.019C883.774 501.374 888.776 508.162 895.872 511.613C901.054 514.132 906.175 514.362 911.771 513.583C918.04 511.367 922.867 507.841 925.746 501.65C928.609 495.495 928.271 488.463 925.895 482.216C923.087 474.834 917.726 468.271 910.427 464.991C905.865 462.941 901.134 462.492 896.209 463.102Z"/>
	<path fill="#9F8BE8" d="M62.815 669.532C62.0209 631.187 62.4539 592.738 62.4837 554.382L62.5636 524.94C62.5854 517.347 63.1035 509.439 61.6048 501.964C58.8895 488.422 51.5316 475.333 45.8022 462.84L83.0553 463.027C84.5694 468.001 87.3579 473.131 89.4767 477.922L103.985 510.729C105.794 514.9 108.397 519.591 109.369 524.004C110.325 528.344 109.469 536.109 109.379 540.717C109.193 549.569 109.099 558.423 109.096 567.276L109.092 628.221C109.126 638.788 109.785 649.77 109.102 660.298C108.934 662.88 108.257 664.456 106.926 666.653C105.595 667.805 104.339 668.637 102.604 669.069C95.1177 670.933 71.9366 669.617 62.815 669.532Z"/>
	<path fill="#745DA8" d="M911.771 513.583C906.175 514.362 901.054 514.132 895.872 511.613C888.776 508.162 883.774 501.374 881.271 494.019C879.09 487.61 879.1 480.713 882.204 474.597C885.216 468.659 890.02 465.151 896.209 463.102C901.134 462.492 905.865 462.941 910.427 464.991C917.726 468.271 923.087 474.834 925.895 482.216C928.271 488.463 928.609 495.495 925.746 501.65C922.867 507.841 918.04 511.367 911.771 513.583Z"/>
	<path d="M1006.42 534.134C1002.16 534.707 998.367 534.63 994.324 533.002C988.345 530.538 983.612 525.769 981.194 519.772C978.927 514.051 978.935 507.255 981.636 501.679C984.224 496.336 988.292 493.565 993.678 491.594C998.074 491.092 1002.03 491.411 1006.11 493.267C1012.04 495.966 1016.66 501.244 1018.93 507.315C1020.94 512.724 1021.02 518.917 1018.54 524.192C1016.01 529.58 1011.79 532.187 1006.42 534.134ZM995.662 498.576C991.914 500.42 989.049 502.421 987.627 506.526C986.33 510.272 986.859 514.524 988.608 518.033C990.728 522.283 994.707 525.709 999.27 527.07C1001.18 527.641 1003.17 527.611 1005.15 527.501C1008.51 526.091 1011.11 524.066 1012.57 520.617C1014.14 516.894 1013.67 512.59 1012.04 508.972C1010.02 504.518 1006.24 500.844 1001.64 499.127C999.634 498.377 997.761 498.412 995.662 498.576Z"/>
	<path fill="#FEFEFE" d="M347.372 502.543C351.379 500.279 355.479 498.502 359.856 497.093C362.281 496.767 364.664 496.841 367.101 496.893C383.676 521.69 395.791 545.862 402.713 575.061C398.626 576.423 394.53 577.589 390.36 578.666C387.721 579.288 385.045 579.781 382.388 580.32C375.872 560.469 368.569 541.212 358.974 522.613C355.527 515.931 351.037 509.82 347.652 503.109L347.372 502.543Z"/>
	<path fill="#745DA8" d="M1005.15 527.501C1003.17 527.611 1001.18 527.641 999.27 527.07C994.707 525.709 990.728 522.283 988.608 518.033C986.859 514.524 986.33 510.272 987.627 506.526C989.049 502.421 991.914 500.42 995.662 498.576C997.761 498.412 999.634 498.377 1001.64 499.127C1006.24 500.844 1010.02 504.518 1012.04 508.972C1013.67 512.59 1014.14 516.894 1012.57 520.617C1011.11 524.066 1008.51 526.091 1005.15 527.501Z"/>
	<path fill="#FEFEFE" d="M334.665 557.858C331.444 550.64 328.273 543.62 328.212 535.559C328.127 524.323 333.836 515.114 341.507 507.336C344.12 508.753 346.661 514.68 348.131 517.302C360.188 538.812 368.308 558.937 376.045 582.272L367.306 577.012C356.215 570.907 346.172 563.325 334.665 557.858Z"/>
	<path fill="#FEFEFE" d="M213.533 529.24C220.797 521.223 231.444 515.358 240.78 509.991C243.099 509.953 258.935 519.727 261.877 521.393C275.614 529.172 289.68 536.637 303.731 543.836C312.265 548.209 321.069 552.098 329.217 557.191C321.317 555.807 313.469 553.893 305.577 552.4C296.486 550.801 287.415 548.663 278.378 546.752C256.503 542.124 234.482 537.193 213.533 529.24Z"/>
	<path fill="#9F8BE8" d="M874.388 533.982L1024 579.798L1024 989.704C1014.78 985.436 1004.16 982.793 994.471 979.589L938.761 960.939C940.114 952.427 941.994 943.981 943.549 935.501L951.099 892.534L956.214 863.108C957.274 856.961 957.931 849.403 960.31 843.644C962.864 837.461 968.595 831.623 972.412 826.052C977.907 818.031 982.43 808.697 985.973 799.679C1003.77 754.374 1001.52 707.613 982.018 663.249C962.673 619.252 928.156 589.988 884.093 572.77C882.064 559.591 879.19 546.44 874.388 533.982Z"/>
	<path fill="#745DA8" d="M207.664 535.145C212.249 536.311 216.744 537.591 221.18 539.241C221.824 549.629 225.879 564.044 234.01 571.108C238.567 575.068 244.63 576.757 249.967 579.387C264.441 586.52 275.14 600.392 276.625 616.663C279.564 648.885 254.885 663.48 254.615 690.659C254.444 707.808 266.019 724.968 272.121 740.645C275.583 749.3 277.79 758.405 278.676 767.685C279.31 774.455 279.339 781.232 277.149 787.744C276.163 790.677 274.734 793.498 272.743 795.882C268.945 800.477 263.45 803.341 257.507 803.822C250.875 804.34 244.893 801.897 240.032 797.478C228.84 787.306 226.247 771.557 223.963 757.337C223.227 752.757 222.781 747.808 220.923 743.52C219.518 740.276 217.112 737.682 213.312 737.964C211.351 738.109 209.787 739.207 208.611 740.731C196.522 756.396 203.645 811.102 206.658 830.523C212.469 867.988 225.247 917.383 246.854 948.618C253.471 958.268 261.659 966.739 271.079 973.679C296.799 992.507 325.343 991.288 352.173 1006.66C360.472 1011.42 367.423 1017.62 374.477 1024L92.2573 1024C96.2679 1011.43 98.5291 997.844 101.46 984.957C109.114 952.292 115.062 919.25 119.28 885.967C122.101 863.151 123.797 840.068 125.247 817.123C126.165 802.592 127.203 788.041 127.873 773.497C130.213 722.621 131.88 670.567 150.474 622.499C159.209 599.919 171.952 577.889 186.937 558.878C193.438 550.63 200.657 542.959 207.664 535.145Z"/>
	<path fill="#FEFEFE" d="M221.18 539.241C229.504 541.774 237.838 544.497 246.268 546.65C262.714 550.851 279.43 553.972 296.076 557.266C304.085 558.898 312.105 560.48 320.134 562.01C324.158 562.769 328.514 563.129 332.412 564.314C337.2 565.769 341.957 569.314 346.237 571.875C330.795 575.416 316.795 584.239 308.332 597.891C291.526 624.998 288.913 661.836 296.295 692.404C306.067 732.865 334.572 760.523 368.954 781.302C377.647 786.555 386.708 791.134 395.608 796.019C395.443 801.342 394.867 806.626 394.686 811.944C394.269 827.574 394.229 843.211 394.565 858.843C396.116 914.948 405.779 969.449 418.432 1024L374.477 1024C367.423 1017.62 360.472 1011.42 352.173 1006.66C325.343 991.288 296.799 992.507 271.079 973.679C261.659 966.739 253.471 958.268 246.854 948.618C225.247 917.383 212.469 867.988 206.658 830.523C203.645 811.102 196.522 756.396 208.611 740.731C209.787 739.207 211.351 738.109 213.312 737.964C217.112 737.682 219.518 740.276 220.923 743.52C222.781 747.808 223.227 752.757 223.963 757.337C226.247 771.557 228.84 787.306 240.032 797.478C244.893 801.897 250.875 804.34 257.507 803.822C263.45 803.341 268.945 800.477 272.743 795.882C274.734 793.498 276.163 790.677 277.149 787.744C279.339 781.232 279.31 774.455 278.676 767.685C277.79 758.405 275.583 749.3 272.121 740.645C266.019 724.968 254.444 707.808 254.615 690.659C254.885 663.48 279.564 648.885 276.625 616.663C275.14 600.392 264.441 586.52 249.967 579.387C244.63 576.757 238.567 575.068 234.01 571.108C225.879 564.044 221.824 549.629 221.18 539.241ZM338.094 929.642C330.941 930.786 325.022 932.996 320.535 939.034C318 942.446 316.2 946.377 313.921 949.96C311.08 954.427 307.419 958.632 305.346 963.53C304.561 965.386 304.051 967.524 304.377 969.543C304.639 971.164 305.459 972.551 306.821 973.484C310.244 975.828 317.617 975.325 321.624 974.713C332.131 973.726 343.944 969.571 350.777 961.099C354.784 956.13 356.522 949.935 355.6 943.613C354.963 939.253 352.949 935.285 349.246 932.77C346.096 930.63 341.902 929.414 338.094 929.642Z"/>
	<path fill="#745DA8" d="M804.039 635.439C821.97 629.483 845.357 623.738 857.589 608.384C871.853 590.48 873.537 566.265 871.125 544.389C871.266 544.682 871.432 544.964 871.549 545.268C874.507 552.976 877.661 574.831 878.959 583.716C880.462 594 889.281 664.002 886.423 668.932C885.986 669.688 884.179 670.183 883.375 670.413C868.911 674.563 850.877 658.095 839.358 651.535C827.858 645.08 816.119 640.577 804.039 635.439Z"/>
	<path fill="#FEFEFE" d="M568.788 762.497C590.989 745.048 613.753 721.586 634.098 701.868C656.74 680.072 679.74 658.651 703.089 637.614C710.256 631.093 717.624 624.818 724.9 618.422C731.968 612.208 738.968 605.101 747.215 600.451C761.742 592.26 781.279 590.881 797.261 586.087C811.626 581.778 824.944 573.402 839.462 570.1C840.739 569.958 841.61 569.974 842.859 570.281C843.529 570.86 844.108 571.141 844.386 572.019C845.087 574.236 843.908 576.702 842.842 578.618C840.923 582.071 838.205 585.252 834.972 587.528C827.446 592.825 795.114 600.749 793.02 607.414C792.606 608.733 792.892 609.124 793.397 610.339C794.879 611.141 796.288 610.926 797.876 610.557C802.045 609.59 806.304 607.232 810.271 605.591C818.015 602.387 843.217 591.838 849.888 591.344C851.9 591.196 853.316 591.469 854.881 592.787C855.548 593.984 855.788 594.779 855.666 596.166C855 603.699 843.749 611.53 837.677 614.853C830.349 618.864 822.216 621.416 814.376 624.227C804.327 627.83 794.409 631.783 784.355 635.369C775.43 638.553 765.979 641.287 757.48 645.481C752.435 647.971 748.128 651.094 744.133 655.046C727.994 671.008 713.531 691.244 699.856 709.474C681.592 733.641 663.777 758.143 646.419 782.968C628.593 808.754 611.47 838.59 586.602 858.375C570.101 862.152 544.949 854.439 528.881 849.281C510.557 843.453 492.667 835.78 475.164 827.855C500.425 803.815 513.415 769.178 519.739 735.612C532.43 743.475 544.68 752.029 556.432 761.237C560.949 764.742 567.178 770.908 571.617 773.613C572.539 774.176 573.86 774.063 574.797 773.571C576.018 772.929 576.115 772.395 576.387 771.182C575.248 767.403 571.652 765.002 568.788 762.497Z"/>
	<path fill="#FEFEFE" d="M439.815 811.531C428.379 805.95 417.193 799.83 405.932 793.905C392.551 786.865 378.993 779.931 366.349 771.613C335.282 751.176 309.585 724.654 301.961 687.003C296.457 659.82 298.873 624.242 314.571 600.715C323.941 586.673 337.782 580.359 353.862 577.117C353.983 577.101 354.103 577.059 354.224 577.071C357.359 577.362 364.994 583.311 367.916 585.25C374.105 589.358 380.479 593.244 386.4 597.744C399.767 607.903 412.669 619.926 424.459 631.846C447.348 654.989 468.083 680.576 491.996 702.696C486.629 736.91 476.676 765.778 455.964 793.83C453.786 796.781 442.672 811.095 439.815 811.531Z"/>
	<path fill="#9F8BE8" d="M893.548 650.211C891.928 626.968 889.136 603.282 885.327 580.297C908.193 589.664 930.431 604.488 947.162 622.679C976.637 654.726 992.81 700.875 990.981 744.323C989.937 769.125 983.001 794.781 970.35 816.24C968.611 819.191 966.74 823.22 964.245 825.517L964.062 824.38C964.395 823.173 964.717 821.964 965.03 820.752C965.574 818.626 966.24 816.728 965.037 814.69C958.952 810.707 910.293 801.251 901.081 799.657C901.594 799.16 902.101 798.656 902.601 798.147C919.564 781.074 929.287 758.683 928.995 734.506C928.613 702.804 916.38 672.417 893.548 650.211Z"/>
	<path fill="#9F8BE8" d="M771.24 788.852C769.985 789.23 769.255 789.713 767.984 789.084C765.826 788.017 764.095 785.073 762.584 783.22C752.989 771.449 746.317 759.801 741.402 745.353C734.73 725.677 733.038 704.654 736.477 684.164C737.187 679.705 737.788 674.719 739.934 670.691C741.302 668.121 743.783 665.599 745.785 663.502C758.98 649.682 776.63 645.135 794.246 639.508C797.108 639.482 799.837 641.421 802.3 642.741C788.986 656.556 782.054 672.995 780.188 692.042C777.703 717.404 782.353 744.438 795.956 766.238C799.34 771.661 803.442 776.565 807.496 781.492C802.775 780.892 798.149 780.091 793.484 779.173C785.913 781.9 778.717 785.813 771.24 788.852Z"/>
	<path fill="#745DA8" d="M818.417 783.316C813.981 777.421 808.663 772.256 804.336 766.242C792.24 749.432 787.083 727.676 786.501 707.179C785.769 681.417 791.986 663.832 809.557 645.246C813.238 645.834 817.16 648.023 820.546 649.628C826.963 652.671 833.367 655.959 839.351 659.791C852.298 668.081 863.191 677.682 879.382 677.846C883.591 677.888 888.355 677.621 891.431 674.349C894.914 670.644 894.278 665.567 894.143 660.911C907.777 677.612 917.729 697.655 920.774 719.128C924.383 744.583 919.523 765.612 904.01 786.186C900.661 790.341 896.838 794.025 893.005 797.721C881.669 796.128 870.39 793.517 859.163 791.266L818.417 783.316Z"/>
	<path fill="#9F8BE8" d="M703.496 716.306C710.729 704.992 719.626 694.085 728.485 683.976C729.003 684.916 728.847 685.108 728.769 686.127C725.507 728.394 733.24 759.938 761.187 792.533L726.626 807.31C718.986 810.77 711.374 814.333 703.617 817.522C702.773 783.843 703.392 750.001 703.496 716.306Z"/>
	<path fill="#FEFEFE" d="M447.095 814.752C452.035 808.579 457.387 802.821 462.118 796.457C476.297 777.382 486.699 755.772 492.763 732.79C494.845 724.78 496.275 716.517 497.934 708.409C503.322 713.615 509.639 717.988 514.601 723.584C514.139 737.281 509.828 752.664 505.463 765.612C499.061 784.599 488.942 801.376 476.43 816.896C474.596 819.171 471.864 823.606 469.076 824.522C467.356 825.087 466.345 824.204 464.824 823.486C458.866 820.674 452.955 817.762 447.095 814.752Z"/>
	<path fill="#9F8BE8" d="M666.197 1022.51L494.213 1022.67L448.267 1022.63C441.266 1022.64 431.568 1021.67 424.996 1023.28C408.079 950.41 396.325 874.915 402.122 799.895C413.58 804.442 424.489 811.349 435.595 816.789C472.5 834.867 542.026 868.367 583.073 865.793C585.858 865.619 588.339 865.083 590.72 863.589C609.769 851.638 645.029 797.589 658.859 777.688C666.512 766.676 674.498 755.938 682.391 745.1C686.751 739.112 690.898 732.179 695.835 726.701L696.518 725.956L696.714 820.744C686.234 824.565 675.988 829.618 665.776 834.118C658.646 837.26 648.37 840.662 642.194 845.196C641.598 847.002 641.782 848.874 641.957 850.74C644.576 878.632 649.463 906.776 653.194 934.578C655.827 955.606 658.709 976.603 661.84 997.563C662.807 1004.23 663.538 1016.75 666.197 1022.51Z"/>
	<path fill="#9F8BE8" d="M654.749 846.427C667.529 840.242 680.588 835.157 693.667 829.672C702.896 825.8 712 821.6 721.155 817.556L761.549 799.702C772.173 795.04 783.03 790.12 794.06 786.49C809.575 786.982 833.329 792.928 848.864 796.031C883.875 803.023 918.765 809.958 953.459 818.447C940.324 825.702 925.992 832.166 912.09 837.822C904.555 835.313 896.46 833.976 888.691 832.382C875.467 829.649 862.221 827.024 848.954 824.508C838.218 822.335 827.467 820.242 816.7 818.229C811.124 817.189 805.078 815.601 799.416 815.568C793.969 815.536 787.265 818.88 782.127 820.761C774.887 823.406 767.25 825.76 760.305 829.088C759.569 844.147 760.447 859.554 760.495 874.651C725.315 864.99 690.065 855.581 654.749 846.427Z"/>
	<path fill="#9F8BE8" d="M766.624 833.826C776.257 829.079 788.638 825.239 798.951 822.049C804.036 822.143 809.892 823.973 814.951 824.852C832.332 827.976 849.667 831.354 866.949 834.985C878.236 837.259 889.912 838.972 900.879 842.498C883.12 849.603 865.504 857.018 847.68 863.977C840.149 866.994 832.689 870.187 825.144 873.17C816.165 876.72 807.174 880.003 798.56 884.395C787.944 882.31 777.435 878.895 766.98 876.085C766.992 861.998 766.873 847.911 766.624 833.826Z"/>
	<path fill="#9F8BE8" d="M922.651 1021.99C915.132 1023.41 906.207 1022.54 898.522 1022.53L852.678 1022.47L670.899 1022.51C672.291 1013.81 667.013 986.623 665.647 976.329C660.155 934.958 653.572 893.507 649.154 852.019C654.45 852.979 659.744 854.789 664.954 856.162C676.803 859.248 688.63 862.421 700.432 865.68L793.747 890.219C794.658 921.857 793.722 953.713 793.965 985.386C794.032 994.078 793.362 1003.07 793.892 1011.72C794.003 1013.54 794.07 1016.08 795.52 1017.37C796.955 1017.8 797.577 1017.99 799.08 1017.57C800.007 1016.54 800.388 1015.94 800.49 1014.52C800.773 1010.58 800.388 1006.24 800.393 1002.27L800.398 972.451L800.373 890.896C811.166 885.49 822.369 881.635 833.567 877.221L875.642 860.285C902.911 849.496 929.442 837.537 956.194 825.58C954.458 832.862 953.406 840.404 952.077 847.775L942.852 901.001C937.414 931.636 931.552 962.18 926.491 992.881C925.355 999.775 921.767 1015.99 922.651 1021.99ZM906.477 881.339C905.506 882.644 904.931 883.645 904.606 885.251C903.486 890.788 902.95 896.599 902.164 902.203L897.604 934.272C896.377 942.86 895.088 951.438 893.737 960.007C892.815 965.941 890.916 973.196 891.548 979.156C892.392 980.232 892.567 980.446 893.999 980.682C894.718 980.8 895.573 980.715 896.305 980.693C897.108 979.55 897.565 978.67 897.858 977.294C900.991 962.572 902.43 945.328 904.607 930.173C906.306 919.101 907.935 908.02 909.494 896.928C910.01 893.123 911.227 888.118 910.85 884.313C910.716 882.955 910.187 882.549 909.174 881.744C908.27 881.587 907.39 881.42 906.477 881.339ZM691.933 895.736C690.463 897.269 689.478 898.385 689.546 900.643C689.681 905.181 690.652 909.907 691.239 914.427L694.317 938.626C696.783 956.739 698.762 975.025 701.552 993.076C701.704 994.057 701.762 995.604 702.589 996.246C703.516 996.966 704.44 997.081 705.558 997.284C706.516 996.631 707.713 996.187 707.92 994.936C708.559 991.075 696.734 901.783 695.211 897.374C694.105 896.311 693.368 896.122 691.933 895.736ZM856.045 901.324C854.94 902.376 853.836 903.234 853.539 904.8C852.763 908.89 852.804 913.489 852.525 917.657L850.744 944.293C849.645 960.276 847.399 976.497 847.138 992.485C847.127 993.156 847.209 993.777 847.349 994.431C848.699 995.648 850.029 995.71 851.81 995.978C852.743 994.933 853.135 994.263 853.329 992.864C854.199 986.566 854.395 980.057 854.865 973.71L857.359 941.535L859.276 916.799C859.564 912.968 860.338 908.496 859.911 904.696C859.783 903.551 859.266 902.574 858.266 901.952C857.709 901.605 856.694 901.469 856.045 901.324ZM739.446 907.741C738.7 909.026 737.993 910.246 737.979 911.771C737.915 918.517 739.335 925.858 740.091 932.592C741.736 947.773 743.501 962.942 745.386 978.095C746.236 985.451 746.504 997.783 748.217 1004.41C748.4 1005.12 748.736 1005.56 749.246 1006.06C750.643 1006.62 751.654 1006.56 753.11 1006.46C754.064 1005.08 754.564 1004.47 754.522 1002.7C754.412 998.111 753.636 993.297 753.155 988.718L749.716 958.148C748.04 943.366 747.038 926.253 744.353 911.891C744.129 910.692 743.982 909.389 742.871 908.657C741.905 908.02 740.571 907.846 739.446 907.741Z"/>
	<path d="M896.305 980.693C895.573 980.715 894.718 980.8 893.999 980.682C892.567 980.446 892.392 980.232 891.548 979.156C890.916 973.196 892.815 965.941 893.737 960.007C895.088 951.438 896.377 942.86 897.604 934.272L902.164 902.203C902.95 896.599 903.486 890.788 904.606 885.251C904.931 883.645 905.506 882.644 906.477 881.339C907.39 881.42 908.27 881.587 909.174 881.744C910.187 882.549 910.716 882.955 910.85 884.313C911.227 888.118 910.01 893.123 909.494 896.928C907.935 908.02 906.306 919.101 904.607 930.173C902.43 945.328 900.991 962.572 897.858 977.294C897.565 978.67 897.108 979.55 896.305 980.693Z"/>
	<path d="M705.558 997.284C704.44 997.081 703.516 996.966 702.589 996.246C701.762 995.604 701.704 994.057 701.552 993.076C698.762 975.025 696.783 956.739 694.317 938.626L691.239 914.427C690.652 909.907 689.681 905.181 689.546 900.643C689.478 898.385 690.463 897.269 691.933 895.736C693.368 896.122 694.105 896.311 695.211 897.374C696.734 901.783 708.559 991.075 707.92 994.936C707.713 996.187 706.516 996.631 705.558 997.284Z"/>
	<path d="M851.81 995.978C850.029 995.71 848.699 995.648 847.349 994.431C847.209 993.777 847.127 993.156 847.138 992.485C847.399 976.497 849.645 960.276 850.744 944.293L852.525 917.657C852.804 913.489 852.763 908.89 853.539 904.8C853.836 903.234 854.94 902.376 856.045 901.324C856.694 901.469 857.709 901.605 858.266 901.952C859.266 902.574 859.783 903.551 859.911 904.696C860.338 908.496 859.564 912.968 859.276 916.799L857.359 941.535L854.865 973.71C854.395 980.057 854.199 986.566 853.329 992.864C853.135 994.263 852.743 994.933 851.81 995.978Z"/>
	<path d="M753.11 1006.46C751.654 1006.56 750.643 1006.62 749.246 1006.06C748.736 1005.56 748.4 1005.12 748.217 1004.41C746.504 997.783 746.236 985.451 745.386 978.095C743.501 962.942 741.736 947.773 740.091 932.592C739.335 925.858 737.915 918.517 737.979 911.771C737.993 910.246 738.7 909.026 739.446 907.741C740.571 907.846 741.905 908.02 742.871 908.657C743.982 909.389 744.129 910.692 744.353 911.891C747.038 926.253 748.04 943.366 749.716 958.148L753.155 988.718C753.636 993.297 754.412 998.111 754.522 1002.7C754.564 1004.47 754.064 1005.08 753.11 1006.46Z"/>
	<path fill="#745DA8" d="M321.624 974.713C317.617 975.325 310.244 975.828 306.821 973.484C305.459 972.551 304.639 971.164 304.377 969.543C304.051 967.524 304.561 965.386 305.346 963.53C307.419 958.632 311.08 954.427 313.921 949.96C316.2 946.377 318 942.446 320.535 939.034C325.022 932.996 330.941 930.786 338.094 929.642C341.902 929.414 346.096 930.63 349.246 932.77C352.949 935.285 354.963 939.253 355.6 943.613C356.522 949.935 354.784 956.13 350.777 961.099C343.944 969.571 332.131 973.726 321.624 974.713Z"/>
	<path fill="#9F8BE8" d="M937.615 967.213C965.343 977.751 995.551 987.622 1024 996.226L1024 1022.22L963.448 1022.3C951.555 1022.32 939.6 1022.6 927.715 1022.21C929.694 1015.8 930.673 1008.87 931.787 1002.27C933.757 990.591 935.408 978.847 937.615 967.213Z"/>
	<path fill="#FEFEFE" d="M0 1022.33L58.7452 1022.12C65.9623 1022.1 79.2251 1021.14 85.5801 1022.51L85.4852 1024L0 1024L0 1022.33Z"/>
	<path fill="#FEFEFE" d="M670.899 1022.51L852.678 1022.47L898.522 1022.53C906.207 1022.54 915.132 1023.41 922.651 1021.99L927.715 1022.21C939.6 1022.6 951.555 1022.32 963.448 1022.3L1024 1022.22L1024 1024L424.995 1024L424.996 1023.28C431.568 1021.67 441.266 1022.64 448.267 1022.63L494.213 1022.67L666.197 1022.51L670.899 1022.51Z"/>
</svg>
