<?xml version="1.0" encoding="utf-8" ?>
<svg xmlns="http://www.w3.org/2000/svg" xmlns:xlink="http://www.w3.org/1999/xlink" width="1024" height="1024">
	<path fill="#9F8BE8" d="M0 0L1024 0L1024 554.688C994.57 529.288 955.737 514.711 916.571 517.478C905.172 518.283 883.943 522.169 876.208 531.443C873.337 534.885 872.35 539.094 872.916 543.497C874.632 556.828 887.099 567.239 895.09 577.144C890.02 588.135 884.108 598.264 880.206 609.821C870.778 637.748 868.306 668.29 871.378 697.502C872.128 704.639 872.866 712.013 875.378 718.779C878.344 726.768 883.843 733.818 891.73 737.394C901.931 742.02 913.972 739.746 924.816 739.863C925.538 744.12 926.303 748.37 927.11 752.612C924.345 753.446 921.899 754.407 919.336 755.739C921.608 764.347 923.789 772.979 925.878 781.633C908.302 793.401 891.318 806.275 874.167 818.676C860.927 828.25 847.103 837.404 834.483 847.767C834.469 853.929 834.619 860.141 834.191 866.29C827.163 863.15 801.753 850.99 798.691 845.167C799.801 840.425 808.1 834.505 811.616 831.017C842.104 800.767 873.987 771.313 867.983 724.066C866.219 709.862 861.449 696.198 853.992 683.982C840.533 662.162 820.42 647.031 795.383 641.152C771.819 635.619 742.631 638.456 721.773 651.385C716.649 654.562 711.511 659.076 710.269 665.247C709.417 669.482 710.63 673.222 712.037 677.152C705.474 683.981 698.653 690.673 693.011 698.301C688.109 704.928 684.114 712.528 678.504 718.575C676.072 721.196 673.363 723.671 670.58 725.914C667.32 728.542 654.909 735.584 654.871 739.68C654.832 743.908 660.838 749.724 663.916 752.311C665.199 753.39 666.556 754.374 667.892 755.385C664.266 769.079 659.049 800.433 659.167 814.059C663.715 821.248 673.929 824.093 681.787 825.864C694.362 828.698 707.138 829.102 719.953 829.637C721.331 836.395 722.034 842.969 722.309 849.857C695.042 862.93 667.655 875.751 640.151 888.318L640.064 887.748L639.637 888.343L639.124 888.047C638.634 880.464 637.891 872.899 636.895 865.366C636.057 859.182 634.482 852.461 634.689 846.231C634.88 840.502 636.677 834.69 637.826 829.088C639.953 818.725 642.126 808.319 643.818 797.875C649.143 765.003 652.331 735.306 653.962 702.089C654.69 687.274 655.901 671.282 653.077 656.658C649.448 637.868 641.173 619.128 634.565 601.221C638.531 597.073 643.226 586.412 646.317 580.925L682.289 516.463L882.448 157.42C903.305 157.22 924.163 157.177 945.021 157.291C954.885 157.322 964.958 157.873 974.798 157.438C977.631 155.766 979.573 154.215 981.472 151.526C981.478 149.292 981.551 147.035 981.441 144.804C975.099 133.591 940.499 108.145 929.41 98.1288C930.106 93.4626 930.299 88.7354 929.989 84.028C939.438 75.2829 949.137 67.0572 959.154 58.9787C965.451 53.9004 972.686 48.911 978.325 43.1505C979.938 41.502 981.43 40.1326 981.562 37.6938C981.705 35.0643 980.935 32.4022 979.087 30.482C975.975 27.2472 971.345 27.0202 967.139 27.0799C915.476 27.5151 863.81 27.5863 812.146 27.2935L555.806 27.2219L59.2304 26.9525C54.8188 26.9149 48.3672 26.3969 44.9536 29.6993C42.5683 32.007 42.371 34.928 42.457 38.0219C42.4698 38.4765 42.4858 38.931 42.5048 39.3854C47.563 47.3488 62.5596 57.0593 70.3673 63.2141C77.7514 69.0349 85.155 75.0187 92.1253 81.325C91.6709 86.9258 91.1101 93.1773 92.754 98.6448L61.0013 126.22C54.9196 131.48 47.4532 136.914 42.4074 143.136C42.3197 147.008 42.1911 150.938 44.9875 154.01C48.3068 157.655 54.1762 157.309 58.7194 157.352L111.187 157.349L109.968 423.953C109.901 464.985 109.58 506.017 109.004 547.045C108.711 559.512 109.603 572.312 108.587 584.71C108.223 579.604 108.343 574.463 108.355 569.347C99.7947 588.038 92.3803 607.197 84.2424 626.07L36.1439 737.438C28.3833 755.744 20.5141 774.005 12.5367 792.218C8.45925 801.491 4.66434 811.089 0 820.071L0 0Z"/>
	<path fill="#564198" d="M276.399 157.295L133.498 157.124L133.475 412.125C133.413 442.654 132.235 473.27 132.586 503.782L132.601 1024L108.515 1024L108.587 584.71C109.603 572.312 108.711 559.512 109.004 547.045C109.58 506.017 109.901 464.985 109.968 423.953L111.187 157.349L58.7194 157.352C54.1762 157.309 48.3068 157.655 44.9875 154.01C42.1911 150.938 42.3197 147.008 42.4074 143.136C47.4532 136.914 54.9196 131.48 61.0013 126.22L92.754 98.6448C91.1101 93.1773 91.6709 86.9258 92.1253 81.325C85.155 75.0187 77.7514 69.0349 70.3673 63.2141C62.5596 57.0593 47.563 47.3488 42.5048 39.3854C42.4858 38.931 42.4698 38.4765 42.457 38.0219C42.371 34.928 42.5683 32.007 44.9536 29.6993C48.3672 26.3969 54.8188 26.9149 59.2304 26.9525L555.806 27.2219L812.146 27.2935C863.81 27.5863 915.476 27.5151 967.139 27.0799C971.345 27.0202 975.975 27.2472 979.087 30.482C980.935 32.4022 981.705 35.0643 981.562 37.6938C981.43 40.1326 979.938 41.502 978.325 43.1505C972.686 48.911 965.451 53.9004 959.154 58.9787C949.137 67.0572 939.438 75.2829 929.989 84.028C930.299 88.7354 930.106 93.4626 929.41 98.1288C940.499 108.145 975.099 133.591 981.441 144.804C981.551 147.035 981.478 149.292 981.472 151.526C979.573 154.215 977.631 155.766 974.798 157.438C964.958 157.873 954.885 157.322 945.021 157.291C924.163 157.177 903.305 157.22 882.448 157.42L618.09 157.34C599.165 157.87 580.119 157.459 561.184 157.456L461.618 157.347L276.399 157.295ZM192.976 40.2492C180.441 40.2772 167.812 40.0197 155.294 40.5997C168.284 46.3136 176.741 53.3711 183.921 65.7553L184.884 67.1549C187.052 66.9157 212.875 43.7905 217.814 40.1561C209.563 40.551 201.236 40.2947 192.976 40.2492ZM265.077 40.2114C273.704 47.2915 282.397 54.2911 291.155 61.2091C299.349 67.6425 307.825 73.9246 315.495 80.9875C324.683 73.7074 333.79 66.435 342.772 58.8998C350.125 52.7742 357.641 46.7816 364.876 40.5235C331.61 40.6144 298.343 40.5104 265.077 40.2114ZM405.023 40.5042C414.415 48.4818 424.158 56.408 434.124 63.6564C438.677 56.9717 443.03 52.4232 449.564 47.6592C454.477 44.6308 459.549 42.4495 464.917 40.3619C444.978 40.3298 424.953 39.9376 405.023 40.5042ZM493.666 40.7409C507.007 48.6938 515.32 52.533 522.462 66.9772C528.152 62.2241 533.817 57.4419 539.458 52.6309C544.41 48.5322 549.307 44.2112 554.511 40.4409C534.324 40.342 513.82 39.6551 493.666 40.7409ZM599.602 40.5588C613.443 51.4761 626.878 62.7292 640.431 73.987C644.394 65.7643 647.901 58.295 654.767 52.0468C661.621 46.5261 668.158 43.1514 676.642 40.7171C665.789 39.6657 654.408 40.3115 643.481 40.3004C628.911 40.2855 614.145 39.8294 599.602 40.5588ZM699.755 40.7081C712.415 45.3428 721.324 51.0485 729.007 62.2906C734.314 58.4995 739.412 54.4233 744.277 50.08C748.11 46.9138 751.919 43.7202 755.706 40.4994C737.751 40.4989 717.435 39.6114 699.755 40.7081ZM797.498 40.4552C810.402 51.093 823.559 61.2085 836.081 72.3243C838.908 64.6395 842.056 58.479 847.992 52.724C854.033 47.1166 860.314 43.4227 868.003 40.4463L797.498 40.4552ZM899.223 40.72L897.228 41.0973C899.823 42.7636 902.942 43.3192 905.645 44.7975C913.845 49.2825 921.509 57.7833 925.686 66.0706C930.568 61.6904 935.594 57.5313 940.687 53.4009C945.726 49.0823 950.798 44.8032 955.903 40.5638C937.047 40.5121 918.061 40.0355 899.223 40.72ZM68.1554 40.9877C77.8272 48.8257 87.4369 56.7399 96.9838 64.7297C101.413 57.9888 105.749 52.9343 112.262 48.1472C117.248 44.9022 122.358 43.1888 127.818 40.9505C107.958 40.4737 88.0223 40.8668 68.1554 40.9877ZM241.144 41.8322L209.78 67.5432C203.01 73.0734 196.014 78.4106 189.494 84.2328L189.518 93.9905C198.402 98.7361 208.153 108.406 215.962 114.926C226.018 123.321 236.735 131.425 246.053 140.628L249.341 137.538C261.423 126.923 273.979 116.82 286.425 106.636C292.291 101.836 298.422 97.1896 304.012 92.074C295.721 85.1462 245.531 43.3641 241.144 41.8322ZM576.603 41.8286C561.896 55.1792 542.951 72.6063 526.77 83.6835C527.285 86.2343 527.441 88.5902 527.491 91.1807C539.669 97.3251 583.137 138.794 587.229 139.822C587.772 139.55 588.335 139.343 588.774 138.917C598.445 130.729 608.214 122.657 618.078 114.702C623.799 110.028 630.175 105.408 635.276 100.081C636.797 98.4928 638.93 96.2438 638.992 93.9057C639.032 92.3978 636.429 90.218 635.34 89.2691C628.593 83.3906 621.193 78.1732 614.102 72.7195C607.019 67.2716 600.151 61.5173 593.282 55.8026C589.882 52.9735 579.805 43.11 576.603 41.8286ZM775.634 43.7969C763.024 55.7812 748.853 65.8513 736.253 77.8595C737.229 84.4208 737.518 90.3694 736.69 96.9523C742.399 102.667 749.235 107.345 755.42 112.558C765.572 121.117 775.368 130.076 785.255 138.937C787.251 137.342 789.289 135.781 791.232 134.123C804.987 122.496 818.929 111.624 833.499 101.04C833.53 97.4773 833.466 93.8792 833.736 90.3271C826.101 84.3153 778.326 44.5896 775.634 43.7969ZM383.832 44.8164C371.959 56.1214 359.113 66.2546 346.451 76.6504C340.474 81.5569 333.705 86.3999 328.449 92.0614C334.467 97.5622 341.454 102.094 347.843 107.175C358.433 115.596 368.742 124.415 379.117 133.101L384.26 137.416C398.1 124.083 414.104 112.896 428.401 100.028C426.97 93.7467 427.236 87.1653 427.707 80.7728C419.261 72.6502 409.997 65.4094 400.921 58.0126C395.501 53.5957 389.894 48.2938 383.832 44.8164ZM136.223 50.7843C115.125 53.0557 99.8396 71.9656 102.042 93.0707C104.244 114.176 123.104 129.523 144.216 127.39C165.426 125.247 180.86 106.281 178.648 85.0773C176.435 63.8741 157.418 48.5023 136.223 50.7843ZM471.746 50.76C450.581 53.8167 435.893 73.4419 438.928 94.6105C441.963 115.779 461.573 130.487 482.745 127.474C503.947 124.457 518.681 104.812 515.642 83.6123C512.603 62.4129 492.943 47.6989 471.746 50.76ZM683.259 51.1817C662.187 53.5808 647.079 72.649 649.561 93.7108C652.044 114.773 671.172 129.805 692.224 127.24C713.158 124.688 728.089 105.69 725.62 84.7459C723.151 63.8017 704.213 48.7959 683.259 51.1817ZM875.661 50.8569C854.926 54.3302 840.926 73.9469 844.383 94.6848C847.84 115.423 867.445 129.438 888.186 125.998C908.95 122.554 922.984 102.921 919.524 82.16C916.063 61.3986 896.42 47.3797 875.661 50.8569ZM315.648 102.38C304.871 111.354 294.044 120.269 283.168 129.124C278.157 133.216 272.892 137.125 268.051 141.404L317.75 141.5L364.769 141.439C359.639 136.9 318.177 102.825 315.648 102.38ZM523.02 108.265C516.533 121.518 507.83 131.369 493.535 136.26C481.469 140.388 468.03 140.148 456.495 134.488C447.578 130.188 439.972 123.584 434.463 115.358C424.733 124.928 413.383 132.734 403.025 141.624L421.224 141.647L563.733 141.568C553.988 133.321 544.171 125.16 534.283 117.086C530.791 114.259 526.922 110.416 523.02 108.265ZM185.575 109.957C178.938 122.523 168.309 132.873 154.488 137.152C142.554 140.847 129.497 139.131 118.542 133.281C110.305 128.883 103.279 122.118 97.9084 114.535L65.7595 141.007L79.25 141.161C127.009 141.191 174.813 141.885 222.566 141.269C210.34 130.681 197.908 120.407 185.575 109.957ZM643.878 113.391C632.936 122.581 621.626 131.671 611.243 141.483L755.25 141.502L762.28 141.505C752.151 131.863 740.878 123.641 730.658 114.175C724.983 124.62 711.628 133.644 700.386 137.021C688.134 140.7 675.096 138.685 664.003 132.548C657.514 128.957 653.018 124.79 648.351 119.058C646.916 117.295 645.525 114.907 643.878 113.391ZM839.922 114.493C828.521 123.806 816.49 132.247 805.294 141.834C849.903 141.372 894.514 141.18 939.125 141.256C943.729 141.238 948.439 141.008 953.029 141.316C943.441 132.407 933.3 124.226 923.578 115.491C913.959 127.136 902.528 135.906 887.002 137.389C872.994 138.727 861.005 134.524 850.276 125.553C846.343 122.265 843.12 118.476 839.922 114.493Z"/>
	<path fill="#9F8BE8" d="M155.294 40.5997C167.812 40.0197 180.441 40.2772 192.976 40.2492C201.236 40.2947 209.563 40.551 217.814 40.1561C212.875 43.7905 187.052 66.9157 184.884 67.1549L183.921 65.7553C176.741 53.3711 168.284 46.3136 155.294 40.5997Z"/>
	<path fill="#9F8BE8" d="M315.495 80.9875C307.825 73.9246 299.349 67.6425 291.155 61.2091C282.397 54.2911 273.704 47.2915 265.077 40.2114C298.343 40.5104 331.61 40.6144 364.876 40.5235C357.641 46.7816 350.125 52.7742 342.772 58.8998C333.79 66.435 324.683 73.7074 315.495 80.9875Z"/>
	<path fill="#9F8BE8" d="M434.124 63.6564C424.158 56.408 414.415 48.4818 405.023 40.5042C424.953 39.9376 444.978 40.3298 464.917 40.3619C459.549 42.4495 454.477 44.6308 449.564 47.6592C443.03 52.4232 438.677 56.9717 434.124 63.6564Z"/>
	<path fill="#9F8BE8" d="M522.462 66.9772C515.32 52.533 507.007 48.6938 493.666 40.7409C513.82 39.6551 534.324 40.342 554.511 40.4409C549.307 44.2112 544.41 48.5322 539.458 52.6309C533.817 57.4419 528.152 62.2241 522.462 66.9772Z"/>
	<path fill="#9F8BE8" d="M640.431 73.987C626.878 62.7292 613.443 51.4761 599.602 40.5588C614.145 39.8294 628.911 40.2855 643.481 40.3004C654.408 40.3115 665.789 39.6657 676.642 40.7171C668.158 43.1514 661.621 46.5261 654.767 52.0468C647.901 58.295 644.394 65.7643 640.431 73.987Z"/>
	<path fill="#9F8BE8" d="M729.007 62.2906C721.324 51.0485 712.415 45.3428 699.755 40.7081C717.435 39.6114 737.751 40.4989 755.706 40.4994C751.919 43.7202 748.11 46.9138 744.277 50.08C739.412 54.4233 734.314 58.4995 729.007 62.2906Z"/>
	<path fill="#9F8BE8" d="M836.081 72.3243C823.559 61.2085 810.402 51.093 797.498 40.4552L868.003 40.4463C860.314 43.4227 854.033 47.1166 847.992 52.724C842.056 58.479 838.908 64.6395 836.081 72.3243Z"/>
	<path fill="#9F8BE8" d="M925.686 66.0706C921.509 57.7833 913.845 49.2825 905.645 44.7975C902.942 43.3192 899.823 42.7636 897.228 41.0973L899.223 40.72C918.061 40.0355 937.047 40.5121 955.903 40.5638C950.798 44.8032 945.726 49.0823 940.687 53.4009C935.594 57.5313 930.568 61.6904 925.686 66.0706Z"/>
	<path fill="#9F8BE8" d="M96.9838 64.7297C87.4369 56.7399 77.8272 48.8257 68.1554 40.9877C88.0223 40.8668 107.958 40.4737 127.818 40.9505C122.358 43.1888 117.248 44.9022 112.262 48.1472C105.749 52.9343 101.413 57.9888 96.9838 64.7297Z"/>
	<path fill="#9F8BE8" d="M189.494 84.2328C196.014 78.4106 203.01 73.0734 209.78 67.5432L241.144 41.8322C245.531 43.3641 295.721 85.1462 304.012 92.074C298.422 97.1896 292.291 101.836 286.425 106.636C273.979 116.82 261.423 126.923 249.341 137.538L246.053 140.628C236.735 131.425 226.018 123.321 215.962 114.926C208.153 108.406 198.402 98.7361 189.518 93.9905L189.494 84.2328Z"/>
	<path fill="#9F8BE8" d="M526.77 83.6835C542.951 72.6063 561.896 55.1792 576.603 41.8286C579.805 43.11 589.882 52.9735 593.282 55.8026C600.151 61.5173 607.019 67.2716 614.102 72.7195C621.193 78.1732 628.593 83.3906 635.34 89.2691C636.429 90.218 639.032 92.3978 638.992 93.9057C638.93 96.2438 636.797 98.4928 635.276 100.081C630.175 105.408 623.799 110.028 618.078 114.702C608.214 122.657 598.445 130.729 588.774 138.917C588.335 139.343 587.772 139.55 587.229 139.822C583.137 138.794 539.669 97.3251 527.491 91.1807C527.441 88.5902 527.285 86.2343 526.77 83.6835Z"/>
	<path fill="#9F8BE8" d="M736.253 77.8595C748.853 65.8513 763.024 55.7812 775.634 43.7969C778.326 44.5896 826.101 84.3153 833.736 90.3271C833.466 93.8792 833.53 97.4773 833.499 101.04C818.929 111.624 804.987 122.496 791.232 134.123C789.289 135.781 787.251 137.342 785.255 138.937C775.368 130.076 765.572 121.117 755.42 112.558C749.235 107.345 742.399 102.667 736.69 96.9523C737.518 90.3694 737.229 84.4208 736.253 77.8595Z"/>
	<path fill="#9F8BE8" d="M328.449 92.0614C333.705 86.3999 340.474 81.5569 346.451 76.6504C359.113 66.2546 371.959 56.1214 383.832 44.8164C389.894 48.2938 395.501 53.5957 400.921 58.0126C409.997 65.4094 419.261 72.6502 427.707 80.7728C427.236 87.1653 426.97 93.7467 428.401 100.028C414.104 112.896 398.1 124.083 384.26 137.416L379.117 133.101C368.742 124.415 358.433 115.596 347.843 107.175C341.454 102.094 334.467 97.5622 328.449 92.0614Z"/>
	<path fill="#C5BCF9" d="M144.216 127.39C123.104 129.523 104.244 114.176 102.042 93.0707C99.8396 71.9656 115.125 53.0557 136.223 50.7843C157.418 48.5023 176.435 63.8741 178.648 85.0773C180.86 106.281 165.426 125.247 144.216 127.39Z"/>
	<path fill="#C5BCF9" d="M482.745 127.474C461.573 130.487 441.963 115.779 438.928 94.6105C435.893 73.4419 450.581 53.8167 471.746 50.76C492.943 47.6989 512.603 62.4129 515.642 83.6123C518.681 104.812 503.947 124.457 482.745 127.474Z"/>
	<path fill="#C5BCF9" d="M692.224 127.24C671.172 129.805 652.044 114.773 649.561 93.7108C647.079 72.649 662.187 53.5808 683.259 51.1817C704.213 48.7959 723.151 63.8017 725.62 84.7459C728.089 105.69 713.158 124.688 692.224 127.24Z"/>
	<path fill="#C5BCF9" d="M888.186 125.998C867.445 129.438 847.84 115.423 844.383 94.6848C840.926 73.9469 854.926 54.3302 875.661 50.8569C896.42 47.3797 916.063 61.3986 919.524 82.16C922.984 102.921 908.95 122.554 888.186 125.998Z"/>
	<path fill="#9F8BE8" d="M268.051 141.404C272.892 137.125 278.157 133.216 283.168 129.124C294.044 120.269 304.871 111.354 315.648 102.38C318.177 102.825 359.639 136.9 364.769 141.439L317.75 141.5L268.051 141.404Z"/>
	<path fill="#9F8BE8" d="M434.463 115.358C439.972 123.584 447.578 130.188 456.495 134.488C468.03 140.148 481.469 140.388 493.535 136.26C507.83 131.369 516.533 121.518 523.02 108.265C526.922 110.416 530.791 114.259 534.283 117.086C544.171 125.16 553.988 133.321 563.733 141.568L421.224 141.647L403.025 141.624C413.383 132.734 424.733 124.928 434.463 115.358Z"/>
	<path fill="#9F8BE8" d="M97.9084 114.535C103.279 122.118 110.305 128.883 118.542 133.281C129.497 139.131 142.554 140.847 154.488 137.152C168.309 132.873 178.938 122.523 185.575 109.957C197.908 120.407 210.34 130.681 222.566 141.269C174.813 141.885 127.009 141.191 79.25 141.161L65.7595 141.007L97.9084 114.535Z"/>
	<path fill="#9F8BE8" d="M611.243 141.483C621.626 131.671 632.936 122.581 643.878 113.391C645.525 114.907 646.916 117.295 648.351 119.058C653.018 124.79 657.514 128.957 664.003 132.548C675.096 138.685 688.134 140.7 700.386 137.021C711.628 133.644 724.983 124.62 730.658 114.175C740.878 123.641 752.151 131.863 762.28 141.505L755.25 141.502L611.243 141.483Z"/>
	<path fill="#9F8BE8" d="M805.294 141.834C816.49 132.247 828.521 123.806 839.922 114.493C843.12 118.476 846.343 122.265 850.276 125.553C861.005 134.524 872.994 138.727 887.002 137.389C902.528 135.906 913.959 127.136 923.578 115.491C933.3 124.226 943.441 132.407 953.029 141.316C948.439 141.008 943.729 141.238 939.125 141.256C894.514 141.18 849.903 141.372 805.294 141.834Z"/>
	<path fill="#9F8BE8" d="M133.498 157.124L276.399 157.295C247.378 229.102 217.95 300.745 188.117 372.219L151.1 459.717C147.687 467.634 133.414 498.161 132.586 503.782C132.235 473.27 133.413 442.654 133.475 412.125L133.498 157.124Z"/>
	<path fill="#C5BCF9" d="M618.09 157.34L882.448 157.42L682.289 516.463L646.317 580.925C643.226 586.412 638.531 597.073 634.565 601.221C618.665 560.565 603.193 520.408 582.619 481.802C577.744 472.654 573.157 462.87 567.572 454.156C562.663 446.499 556.283 438.87 550.225 432.057C545.677 426.943 540.394 421.895 534.994 417.711C531.56 415.049 527.789 412.735 524.485 409.925C520.984 406.948 518.047 403.178 514.747 399.949C517.583 396.252 523.551 378.454 523.561 374.075C523.563 373.236 523.153 373.135 522.594 372.596C527.707 370.611 532.625 368.598 535.811 363.829C539.682 358.036 538.818 351.332 537.65 344.889C537.705 344.726 537.732 344.551 537.814 344.401C546.482 328.489 553.05 311.135 559.898 294.354L581.313 243.07C593.239 214.417 607.135 186.358 618.09 157.34Z"/>
	<path fill="#C5BCF9" d="M276.399 157.295L461.618 157.347C460.992 161.47 461.084 166.386 459.98 170.323C447.19 165.047 433.217 164.195 420.233 169.614C414.353 172.068 409.891 175.688 405.824 180.535C373.312 181.735 340.175 192.838 317.651 217.267C301.444 234.844 290.991 255.863 291.985 280.214C292.434 291.212 294.741 302.314 297.456 312.964C299.436 320.727 302.692 329.148 302.639 337.24C302.491 359.729 278.137 370.207 286.429 397.413C288.776 405.114 292.882 411.445 298.817 416.883C302.188 419.971 305.816 422.35 309.944 424.291C311.75 430.787 313.556 437.301 316.039 443.579C315.891 443.675 315.745 443.774 315.596 443.869C311.42 446.537 306.692 448.53 302.246 450.739C289.379 457.131 276.391 464.402 266.944 475.46C257.127 486.953 252.161 502.766 245.571 516.253C234.935 538.019 224.143 559.592 214.223 581.707C200.136 613.265 187.344 645.385 175.879 677.987C168.39 699.036 160.635 720.559 155.687 742.358C154.37 748.159 154.681 752.297 157.855 757.293C176.546 786.715 251.737 833.431 282.242 853.014C295.222 861.372 308.118 869.86 320.927 878.478C301.242 926.243 283.51 974.791 267.776 1024L132.601 1024L132.586 503.782C133.414 498.161 147.687 467.634 151.1 459.717L188.117 372.219C217.95 300.745 247.378 229.102 276.399 157.295Z"/>
	<path fill="#9F8BE8" d="M461.618 157.347L561.184 157.456C580.119 157.459 599.165 157.87 618.09 157.34C607.135 186.358 593.239 214.417 581.313 243.07L559.898 294.354C553.05 311.135 546.482 328.489 537.814 344.401C537.732 344.551 537.705 344.726 537.65 344.889C534.308 328.319 528.969 311.755 523.841 295.668C529.761 291.937 537.455 286.596 540.718 280.214C541.691 278.312 542.121 276.095 541.361 274.04C539.107 267.942 528.908 265.965 523.501 263.575C513.689 259.239 502.88 252.26 498.872 241.936C499.759 241.135 500.604 240.287 501.402 239.396C504.508 235.925 508.137 230.061 507.745 225.297C507.609 223.651 507.065 222.784 505.864 221.71C505.21 221.548 504.571 221.261 503.9 221.472C500.733 222.468 498.598 231.466 496.744 234.532L496.374 235.131C492.728 227.93 488.532 221.042 484.243 214.211C484.42 208.495 483.63 202.355 481.978 196.873C478.284 184.612 471.144 176.259 459.98 170.323C461.084 166.386 460.992 161.47 461.618 157.347Z"/>
	<path fill="#020101" d="M405.824 180.535C409.891 175.688 414.353 172.068 420.233 169.614C433.217 164.195 447.19 165.047 459.98 170.323C471.144 176.259 478.284 184.612 481.978 196.873C483.63 202.355 484.42 208.495 484.243 214.211C488.532 221.042 492.728 227.93 496.374 235.131L496.744 234.532C498.598 231.466 500.733 222.468 503.9 221.472C504.571 221.261 505.21 221.548 505.864 221.71C507.065 222.784 507.609 223.651 507.745 225.297C508.137 230.061 504.508 235.925 501.402 239.396C500.604 240.287 499.759 241.135 498.872 241.936C502.88 252.26 513.689 259.239 523.501 263.575C528.908 265.965 539.107 267.942 541.361 274.04C542.121 276.095 541.691 278.312 540.718 280.214C537.455 286.596 529.761 291.937 523.841 295.668C528.969 311.755 534.308 328.319 537.65 344.889C538.818 351.332 539.682 358.036 535.811 363.829C532.625 368.598 527.707 370.611 522.594 372.596C511.198 376.29 499.908 379.014 488.391 382.157C497.932 387.191 506.267 393.36 514.747 399.949C518.047 403.178 520.984 406.948 524.485 409.925C527.789 412.735 531.56 415.049 534.994 417.711C540.394 421.895 545.677 426.943 550.225 432.057C556.283 438.87 562.663 446.499 567.572 454.156C573.157 462.87 577.744 472.654 582.619 481.802C603.193 520.408 618.665 560.565 634.565 601.221C641.173 619.128 649.448 637.868 653.077 656.658C655.901 671.282 654.69 687.274 653.962 702.089C652.331 735.306 649.143 765.003 643.818 797.875C642.126 808.319 639.953 818.725 637.826 829.088C636.677 834.69 634.88 840.502 634.689 846.231C634.482 852.461 636.057 859.182 636.895 865.366C637.891 872.899 638.634 880.464 639.124 888.047C642.414 924.293 640.691 964.657 636.463 1000.81C635.564 1008.5 634.826 1016.4 633.409 1024L626.846 1024C628.154 1008.56 630.38 993.193 631.697 977.743C635.502 933.12 635.251 888.683 626.396 844.657C622.784 826.697 618.633 807.299 609.236 791.355C608.094 789.418 606.516 786.231 604.512 785.118C603.831 784.739 603.407 785.007 602.698 785.153C601.238 786.191 600.694 787.668 599.939 789.23C591.321 793.302 581.179 795.601 572.023 798.176C584.259 859.424 580.871 922.509 569.806 983.642C567.369 997.106 565.224 1010.89 561.242 1024L554.744 1024C556.913 1012.12 560.201 1000.46 562.321 988.541C573.566 925.32 577.343 863.19 565.691 799.639C560.923 800.781 556.675 801.972 551.848 800.382C526.802 808.388 500.721 813.009 475.297 819.696C486.051 820.767 506.489 823.102 514.333 831.051C516.449 833.196 517.797 836.132 517.68 839.185C517.624 840.625 517.045 841.878 515.98 842.851C513.677 844.955 509.856 845.685 506.857 845.965C500.49 846.558 493.869 845.594 487.508 845.088C481.22 844.567 474.918 844.231 468.61 844.082C462.412 853.419 456.907 863.234 450.81 872.641C443.292 884.244 434.987 895.435 426.505 906.348C424.172 909.349 421.136 914.352 417.81 916.251C416.176 917.184 414.752 917.284 412.927 916.82C411.808 915.843 411.819 915.784 411.519 914.322C412.01 912.091 413.538 910.389 414.866 908.579C410.569 904.692 406.435 900.732 402.41 896.564C399.052 901.788 396.541 907.599 393.787 913.156C376.675 947.688 363.441 986.031 356.779 1024L349.646 1024C357.406 986.945 368.089 949.43 384.995 915.415C389.59 907.32 393.187 898.703 397.707 890.551C394.502 887.51 391.608 884.091 388.642 880.817C384.39 888.98 382.297 896.055 381.984 905.257C382.907 906.352 384.109 907.63 384.569 909.011C385.042 910.432 384.346 911.618 383.712 912.836C382.404 914.114 381.124 915.46 379.755 916.671C372.016 913.028 364.869 907.62 357.789 902.837L326.723 881.991C314.548 911.895 303.081 942.082 292.329 972.527C286.361 989.447 280.142 1006.68 275.448 1024L267.776 1024C283.51 974.791 301.242 926.243 320.927 878.478C308.118 869.86 295.222 861.372 282.242 853.014C251.737 833.431 176.546 786.715 157.855 757.293C154.681 752.297 154.37 748.159 155.687 742.358C160.635 720.559 168.39 699.036 175.879 677.987C187.344 645.385 200.136 613.265 214.223 581.707C224.143 559.592 234.935 538.019 245.571 516.253C252.161 502.766 257.127 486.953 266.944 475.46C276.391 464.402 289.379 457.131 302.246 450.739C306.692 448.53 311.42 446.537 315.596 443.869C315.745 443.774 315.891 443.675 316.039 443.579C313.556 437.301 311.75 430.787 309.944 424.291C305.816 422.35 302.188 419.971 298.817 416.883C292.882 411.445 288.776 405.114 286.429 397.413C278.137 370.207 302.491 359.729 302.639 337.24C302.692 329.148 299.436 320.727 297.456 312.964C294.741 302.314 292.434 291.212 291.985 280.214C290.991 255.863 301.444 234.844 317.651 217.267C340.175 192.838 373.312 181.735 405.824 180.535ZM408.633 186.2C374.465 188.562 341.975 198.651 318.845 225.318C305.609 240.579 297.614 259.805 299.122 280.245C299.346 283.278 299.712 286.351 300.299 289.338C300.407 282.495 300.389 275.681 301.413 268.899C304.145 250.804 314.306 233.49 327.378 220.872C348.93 200.071 378.428 189.076 408.007 187.178L413.237 186.959C417.697 180.246 424.067 176.818 431.836 175.199C446.2 172.205 456.757 176.456 468.637 184.258C465.636 181.277 462.538 178.853 458.801 176.848C446.481 170.24 427.166 171.159 415.863 179.656C412.989 181.817 412.335 185.055 408.633 186.2ZM332.836 485.295C329.89 474.383 323.968 461.212 319.135 450.893C311.164 454.036 303.483 458.125 295.733 461.783C305.507 466.603 312.075 469.726 319.711 477.761C322.903 481.119 326.067 485.135 329.617 488.047C335.57 496.197 341.189 504.138 345.89 513.102C361.026 541.961 359.319 560.788 349.891 590.975C354.777 585.84 363.528 569.631 369.669 568.473C370.854 568.902 370.872 568.98 371.575 570.038C372.766 579.588 343.771 607.674 337.427 616.914C333.773 622.235 330.796 628.363 327.611 633.987C321.776 644.414 315.778 654.749 309.62 664.989C315.181 671.743 319.937 679.467 324.815 686.742C334.307 700.898 343.852 715.406 351.925 730.419C358.721 743.057 364.384 756.188 370.635 769.083C386.941 740.913 402.805 712.098 415.082 681.889C416.965 677.254 418.573 672.618 420.028 667.837C420.83 665.203 421.433 661.987 422.607 659.515C423.017 658.652 423.469 658.056 424.339 657.61C425.378 657.078 426.649 657.04 427.738 657.443C428.834 657.848 429.59 658.659 429.926 659.774C430.692 662.315 426.81 670.143 425.759 672.928C410.092 713.536 390.272 752.418 366.616 788.954C384.235 801.742 401.536 815.034 419.051 827.975C439.126 809.418 459.364 790.712 477.267 770.016C482.197 764.316 487.451 758.502 491.409 752.067C488.305 736.42 481.581 721.384 474.999 706.936C453.189 659.064 425.174 614.731 394.6 572.038C388.716 563.822 382.473 555.994 376.145 548.119C371.67 542.55 366.677 536.954 363.089 530.764C365.448 526.501 368.863 522.55 371.841 518.694C378.309 510.321 385.218 502.083 391.208 493.369C372.958 492.134 355.624 493.564 337.566 496.231C336.051 492.559 334.475 488.913 332.836 485.295ZM436.638 199.609C432.149 201.294 428.276 203.596 426.321 208.211C421.801 218.882 435.082 242.381 438.099 253.798C442.929 244.496 449.35 233.739 459.965 230.364C463.285 229.308 468.302 228.755 471.52 230.43C472.26 230.815 472.545 231.275 472.931 231.972C473.029 233.732 472.394 235.187 471.202 236.476C470.376 237.37 469.06 237.296 467.936 237.369C466.264 237.477 465.608 238.079 464.326 239.062C455.003 246.207 448.864 251.247 444.199 262.354C442.675 265.981 441.323 269.613 440.78 273.53C440.255 277.316 440.256 281.171 439.406 284.91C436.825 296.258 429.019 308.966 419.79 316.098C418.304 317.246 416.715 318.313 414.775 318.267C405.29 312.82 398.101 303.959 385.177 307.207C381.678 308.086 379.021 310.462 377.256 313.549C374.029 319.194 373.609 325.309 375.502 331.469C377.758 338.81 382.425 345.513 389.302 349.196C398.886 354.33 410.125 352.9 420.002 349.618L420.893 349.317C428.87 352.522 434.144 356.562 437.611 364.666C440.756 372.02 441.336 380.069 438.313 387.592C435.963 393.442 432.045 397.573 427.546 401.858C439.922 402.584 452.401 402.774 464.464 399.432C468.85 398.171 473.325 397.008 477.369 394.839C477.053 390.923 476.64 386.986 476.57 383.059C471.775 383.041 462.532 383.948 458.776 380.8C458.355 379.618 458.375 379.31 459.059 378.133C459.769 376.909 461.03 376.507 462.363 376.473C465.743 376.388 469.125 377.15 472.509 376.961C487.495 376.125 517.761 370.102 530.089 362.072C534.425 352.67 530.495 342.283 528.198 332.76C516.547 337.247 505.267 339.449 493.36 334.216C486.767 331.318 480.45 325.695 477.898 318.83C477.196 316.941 477.218 315.794 478.085 313.982C479.362 313.088 479.971 312.981 481.467 312.877C483.89 313.94 484.337 315.526 485.337 317.865C492.177 320.184 515.248 314.644 522.617 312.159C521.67 309.106 519.97 300.807 517.277 299.214C516.649 298.842 515.897 298.583 515.216 298.321C514.595 297.174 514.618 296.906 514.658 295.588C517.888 289.531 535.613 282.665 535.083 276.238L534.621 275.745L534.024 276.036L534.17 275.489C522.023 269.73 508.882 265.362 499.396 255.283C492.75 248.223 490.925 238.981 486.601 230.606C477.392 212.768 457.59 197.403 436.638 199.609ZM523.894 318.682C512.623 321.045 502.184 323.632 490.621 324.56C492.403 325.737 494.184 327.063 496.094 328.016C505.245 331.784 514.754 331.581 523.908 327.769C524.76 327.415 525.603 327.04 526.437 326.647C525.916 324.536 525.412 320.245 523.894 318.682ZM307.437 351.121C300.7 367.048 287.946 379.563 295.378 398.069C296.624 401.087 298.194 403.96 300.062 406.638L301.968 408.427L302.374 408.257C291.11 377.458 311.181 369.879 307.437 351.121ZM481.359 400.063C466.681 406.991 450.524 410.202 434.312 409.414C428.749 409.184 423.091 408.13 417.556 408.116C415.138 409.776 413.225 411.536 411.206 413.654C413.673 418.243 416.292 422.761 414.854 428.177C414.341 430.112 413.421 431.921 412.466 433.669C419.978 434.882 427.114 437.219 434.16 440.064C452.328 447.399 462.836 456.411 474.186 472.168C498.988 506.598 517.732 546.633 530.549 586.996C535.644 603.042 539.469 619.46 544.443 635.535C551.019 656.785 559.095 677.57 565.062 699.012C567.948 711.512 569.087 723.929 571.11 736.549C577.409 735.093 583.626 733.193 590.145 733.944C594.031 730.695 598.558 727.283 601.321 722.966C599.084 702.734 587.993 672.981 581.982 653.058C576.536 635.011 571.989 616.673 566.436 598.66C556.346 566.586 545.171 534.862 532.932 503.545C528.183 491.295 523.102 479.321 517.858 467.28C515.614 462.128 513.63 456.796 511.129 451.764C505.133 439.702 494.115 430.533 487.595 418.738C484.688 413.478 483.329 403.046 481.359 400.063ZM490.404 409.096C491.27 412.55 495.411 421.118 498.09 423.129C498.206 423.216 498.34 423.276 498.464 423.349L498.906 423.059C497.084 417.811 497.95 412.653 492.437 409.901C491.768 409.567 491.122 409.306 490.404 409.096ZM520.917 415.904C520.056 416.928 519.174 417.626 518.924 418.961C525.852 425.069 535.31 431.969 539.744 440.081C538.043 444.512 526.28 467.771 526.283 469.626C526.283 469.995 526.476 470.338 526.572 470.694C531.848 476.222 557.757 485.221 566.426 489.903C577.711 528.674 586.093 568.232 591.502 608.248C592.958 619.47 594.068 630.734 594.831 642.024C595.412 650.466 595.668 658.955 596.609 667.366C597.526 675.568 599.499 683.452 600.843 691.564L601.259 692.135C602.371 686.868 602.02 680.696 602.104 675.318C602.523 648.788 598.979 622.583 594.633 596.455C592.941 586.282 591.492 576.053 589.539 565.928C586.96 552.556 583.797 539.309 580.833 526.02C577.809 512.455 574.558 493.542 568.562 481.385C558.602 476.703 546.999 473.673 537.591 468.136C539.791 459.395 545.876 450.76 550.471 443.019C541.796 432.838 532.119 423.319 520.917 415.904ZM502.997 416.248C506.208 424.839 510.245 433.186 513.956 441.573C516.803 448.009 519.361 454.651 522.417 460.98C523.824 458.879 524.956 456.917 525.982 454.599C527.983 449.835 530.16 445.068 531.987 440.239C524.999 433.119 512.068 419.612 502.997 416.248ZM317.606 424.423C324.845 445.883 333.537 467.234 342.05 488.23C353.145 486.326 388.888 483.214 398.187 487.841C399.097 489.161 399.314 490.013 398.968 491.611C396.875 501.282 378.124 520.932 371.903 530.53C380.874 543.245 391.025 555.142 400.071 567.819C431.816 612.304 464.214 662.593 485.278 713.047C489.294 722.667 493.6 732.738 495.513 743.027C496.159 741.048 496.771 739.055 497.54 737.121C498.233 735.425 499.069 733.603 499.281 731.772C500.387 722.233 494.338 710.026 490.702 701.377C472.024 657.844 449.004 616.305 421.989 577.392C415.035 567.464 407.935 557.637 400.694 547.916C396.201 541.919 391.196 536.143 387.4 529.677C389.608 524.782 393.129 520.234 396.211 515.85C403.804 505.047 412.708 493.668 417.502 481.294C402.344 476.608 384.268 474.592 368.499 475.469C363.039 475.773 356.771 477.768 351.401 477.207C349.258 476.984 348.692 476.008 347.731 474.203C344.779 468.654 342.509 462.503 340.02 456.721C335.655 446.578 331.199 436.478 327.311 426.139C324.065 425.71 320.756 425.35 317.606 424.423ZM350.715 425.699C345.429 426.241 340.199 426.699 334.885 426.867C337.327 433.465 340.561 439.816 343.519 446.198C347.267 454.393 350.969 462.61 354.626 470.846C372.655 466.53 388.482 468.599 406.384 472.067C411.357 472.969 416.318 473.93 421.267 474.952C411.394 461.807 402.312 451.757 390.066 440.683C385.493 436.547 381.163 432.337 375.63 429.486C371.84 427.533 367.757 426.515 363.55 425.943C359.517 425.395 354.75 425.079 350.715 425.699ZM408.925 437.408C406.341 438.955 403.791 440.414 401.063 441.695C411.926 452.612 422.069 463.632 431.077 476.168C472.363 533.621 509.602 634.494 509.288 705.255C509.209 723.099 506.978 736.562 499.003 752.708C513.244 751.855 527.922 748.642 541.921 745.874C549.677 744.587 556.834 740.43 564.41 738.231C562.439 726.635 561.831 714.808 559.101 703.343C556.731 693.392 553.102 683.713 549.806 674.043C545.996 662.832 542.316 651.577 538.766 640.281C533.347 623.197 529.182 605.757 523.786 588.677C512.419 552.698 496.503 517.174 475.473 485.769C468.124 474.795 460.444 463.196 449.534 455.455C439.217 448.135 421.474 439.675 408.925 437.408ZM555.152 448.848C551.749 453.969 548.932 459.418 546.195 464.918C552.096 466.886 557.47 469.901 563.159 472.366C565.428 473.341 567.689 474.385 570.007 475.236C567.264 466.541 561.879 455.166 555.152 448.848ZM286.48 468.095C280.487 471.783 274.815 476.31 270.709 482.088C262.568 493.542 258.103 507.448 251.852 519.974C225.264 573.252 201.047 627.125 181.416 683.388C174.865 702.165 168.111 721.045 163.488 740.416C162.753 743.498 162.032 746.594 161.592 749.733C179.678 779.945 237.689 815.675 267.464 835.369C274.203 839.827 281.213 844.104 287.726 848.878C293.239 821.096 307.424 799.749 331.166 783.867C333.891 782.067 336.676 780.36 339.515 778.748L303.823 749.99C291.086 739.418 265.729 716.046 251.715 711.184C245.106 708.891 237.612 708.657 230.706 709.299C220.807 710.219 211.459 713.327 202.768 718.112C200.115 719.572 197.226 721.994 194.35 722.848C192.671 723.347 191.663 723.115 190.305 722.063C189.989 720.497 190.007 719.456 190.91 718.074C194.911 711.944 213.515 704.8 220.652 703.654C236.748 701.068 251.346 702.396 265.933 709.944C259.59 700.549 245.591 691.688 234.736 688.67C230.915 687.608 225.448 687.236 222.11 685.205C220.288 684.096 220.053 682.996 220.396 680.939C221.223 679.856 221.633 679.326 223.023 679.058C230.87 677.547 255.091 689.799 261.32 694.681C266.798 698.975 271.083 704.318 274.971 710.047L304.332 659.844C312.558 646.094 320.526 632.349 328.192 618.272C335.352 605.124 342.57 592.014 346.628 577.503C350.31 564.335 351.192 551.325 347.607 538.04C341.791 516.489 322.685 485.155 302.811 473.815C297.782 470.946 292.257 468.755 286.48 468.095ZM425.706 480.297C419.27 493.158 411.943 504.94 403.882 516.829C400.979 521.111 398.264 525.591 394.954 529.573C400.903 537.845 407.494 545.637 413.426 553.917C437.432 587.423 459.416 621.527 478.03 658.347C483.58 669.324 489.247 680.431 493.772 691.878C496.862 699.248 499.8 706.557 502.081 714.228C504.076 648 475.792 563.221 442.68 506.717C438.76 500.026 431.286 485.986 426.096 480.657C425.973 480.53 425.836 480.417 425.706 480.297ZM531.967 481.681C545.578 518.318 560.447 554.623 571.899 592.025C574.517 600.579 586.215 645.829 588.352 648.599C587.895 627.007 584.115 605.009 580.643 583.727C576.883 560.687 572.643 537.836 566.602 515.271C564.709 508.203 563.008 501.031 560.445 494.172C555.415 491.043 549.261 489.15 543.804 486.816C539.92 485.155 535.966 482.993 531.967 481.681ZM578.885 489.351C583.833 506.502 587.687 523.993 591.538 541.423C599.375 576.899 605.933 612.288 608.489 648.586C611.351 645.993 615.433 640.834 619.262 640.254C620.347 640.601 621.476 641.374 621.978 642.456C622.482 643.542 622.259 644.015 621.721 645.025C619.276 649.618 613.11 653.874 609.128 657.279C609.636 673.63 608.339 689.16 607.846 705.433C617.7 709.286 626.76 716.632 634.717 723.489C638.241 726.932 641.822 730.317 644.779 734.278C646.658 709.936 650.239 683.826 646.59 659.597C644.548 646.037 638.491 632.316 633.849 619.419C620.262 581.449 605.08 544.069 588.342 507.379C585.912 502.15 583.355 494.683 579.758 490.237C579.518 489.939 579.149 489.605 578.885 489.351ZM305.576 671.785C296.282 687.857 286.479 703.363 276.578 719.045C300.845 736.731 323.042 757.919 347.25 775.814C351.57 779.053 355.93 782.74 360.485 785.608C362.499 782.549 364.528 779.538 366.178 776.263C360.43 765.034 355.52 753.392 349.725 742.195C340.998 725.578 331.399 709.433 320.969 693.827C316.138 686.462 311.297 678.491 305.576 671.785ZM608.225 712.664C608.778 717.36 609.46 722.04 610.27 726.698C618.339 731.943 626.446 737.153 633.417 743.857C636.26 746.591 638.414 750.143 641.367 752.707L641.722 752.266C642.12 749.382 642.458 746.489 643.19 743.666C634.897 730.677 622.04 719.489 608.225 712.664ZM604.351 730.418C601.003 732.969 597.452 735.427 594.297 738.208C597.859 748.74 599.89 765.222 600.595 776.467L601.051 777.353C602.539 777.435 604.982 776.857 606.126 775.836C607.725 774.408 607.739 772.39 607.753 770.38C607.838 758.305 604.968 746.167 604.983 733.996C604.984 732.806 605.243 731.297 604.351 730.418ZM611.387 735.683L612.61 747.895C617.149 750.932 621.24 754.005 625.167 757.805C626.611 759.203 639.186 773.164 639.603 773.317L639.908 772.908C640.387 770.23 640.924 767.547 641.333 764.859C635.53 754.565 622.137 740.952 611.387 735.683ZM585.249 739.681C574.628 741.431 559.058 743.439 550.793 750.47C551.257 762.771 553.085 784.329 555.543 796.263L560.522 795.227C571.936 792.244 584.001 789.76 594.98 785.436C595.068 778.279 591.52 745.042 588.276 740.349C587.156 739.799 586.495 739.676 585.249 739.681ZM545.473 751.177C528.729 754.513 512.122 757.413 495.153 759.363C483.516 775.883 468.583 790.93 454.027 804.909C451.743 807.103 436.313 820.162 436.042 821.835C437.327 821.792 438.483 821.716 439.75 821.466C447.484 819.873 455.364 818.818 463.033 816.943C476.649 813.613 490.07 809.401 503.682 805.998C518.812 802.214 534.141 798.996 549.163 794.817C548.692 788.512 547.172 754.166 545.593 751.268L545.473 751.177ZM613.246 756.9C613.599 764.141 616.057 774.572 610.85 780.461C610.554 780.793 610.252 781.121 609.945 781.443C618.463 791.562 623.373 804.149 626.921 816.754C628.049 820.764 628.76 825.866 630.734 829.503L631.622 825.067C633.786 811.468 637.058 798.059 639.329 784.472C631.718 774.11 624.313 763.837 613.246 756.9ZM345.118 783.862C324.159 794.544 304.591 814.075 297.184 836.805C295.453 842.117 294.71 847.406 294.434 852.969C297.902 855.447 301.464 857.79 305.112 859.993C306.361 853.91 307.592 847.764 309.782 841.935C317.36 821.764 333.588 805.272 351.287 793.586C352.613 792.712 353.944 791.845 355.281 790.985C352.363 788.597 348.737 785.104 345.118 783.862ZM362.62 795.347C341.471 806.003 322.281 825.366 314.868 848.201C313.189 853.372 312.324 858.693 311.548 864.059C314.777 866.203 318.019 868.329 321.271 870.438C323.674 847.257 339.89 826.128 357.491 811.84C361.871 808.285 366.503 805.021 371.121 801.785C369.135 799.993 365.168 795.538 362.62 795.347ZM376.58 806.346C356.27 819.731 334.054 840.497 328.948 865.38C328.304 868.519 328.259 871.46 328.525 874.649C342.581 883.983 356.539 893.465 370.395 903.094L374.963 906.416C376.619 878.771 396.729 852.521 414.393 832.325C408.63 828.923 379.806 806.315 376.58 806.346ZM457.069 825.724C451.762 825.945 446.811 827.641 441.673 827.942C439.223 828.086 435.547 826.232 433.45 826.65C431.876 826.964 428.031 828.957 427.027 830.197C424.126 833.78 425.658 836.171 420.005 837.089L419.547 837.161C409.543 845.017 397.507 864.453 391.781 875.974C401.465 884.889 409.988 894.877 419.286 904.175C424.069 898.297 428.718 892.31 433.229 886.22C439.369 877.592 457.256 852.983 460.061 844.447C459.843 844.392 459.623 844.341 459.406 844.281C458.026 843.902 456.577 843.592 455.676 842.407C455.571 841.158 455.679 840.986 456.47 839.994C458.787 837.089 464.821 837.275 468.204 837.3C476.402 837.36 504.895 841.758 510.169 838.593C510.57 837.562 510.668 837.085 510.13 836.041C507.601 831.135 492.675 828.509 487.684 827.733C477.551 826.229 467.312 825.557 457.069 825.724Z"/>
	<path fill="#9F8BE8" d="M300.299 289.338C299.712 286.351 299.346 283.278 299.122 280.245C297.614 259.805 305.609 240.579 318.845 225.318C341.975 198.651 374.465 188.562 408.633 186.2C412.335 185.055 412.989 181.817 415.863 179.656C427.166 171.159 446.481 170.24 458.801 176.848C462.538 178.853 465.636 181.277 468.637 184.258C456.757 176.456 446.2 172.205 431.836 175.199C424.067 176.818 417.697 180.246 413.237 186.959L408.007 187.178C378.428 189.076 348.93 200.071 327.378 220.872C314.306 233.49 304.145 250.804 301.413 268.899C300.389 275.681 300.407 282.495 300.299 289.338Z"/>
	<path fill="#FEFEFE" d="M438.099 253.798C435.082 242.381 421.801 218.882 426.321 208.211C428.276 203.596 432.149 201.294 436.638 199.609C457.59 197.403 477.392 212.768 486.601 230.606C490.925 238.981 492.75 248.223 499.396 255.283C508.882 265.362 522.023 269.73 534.17 275.489L534.024 276.036L534.621 275.745L535.083 276.238C535.613 282.665 517.888 289.531 514.658 295.588C514.618 296.906 514.595 297.174 515.216 298.321C515.897 298.583 516.649 298.842 517.277 299.214C519.97 300.807 521.67 309.106 522.617 312.159C515.248 314.644 492.177 320.184 485.337 317.865C484.337 315.526 483.89 313.94 481.467 312.877C479.971 312.981 479.362 313.088 478.085 313.982C477.218 315.794 477.196 316.941 477.898 318.83C480.45 325.695 486.767 331.318 493.36 334.216C505.267 339.449 516.547 337.247 528.198 332.76C530.495 342.283 534.425 352.67 530.089 362.072C517.761 370.102 487.495 376.125 472.509 376.961C469.125 377.15 465.743 376.388 462.363 376.473C461.03 376.507 459.769 376.909 459.059 378.133C458.375 379.31 458.355 379.618 458.776 380.8C462.532 383.948 471.775 383.041 476.57 383.059C476.64 386.986 477.053 390.923 477.369 394.839C473.325 397.008 468.85 398.171 464.464 399.432C452.401 402.774 439.922 402.584 427.546 401.858C432.045 397.573 435.963 393.442 438.313 387.592C441.336 380.069 440.756 372.02 437.611 364.666C434.144 356.562 428.87 352.522 420.893 349.317L420.002 349.618C410.125 352.9 398.886 354.33 389.302 349.196C382.425 345.513 377.758 338.81 375.502 331.469C373.609 325.309 374.029 319.194 377.256 313.549C379.021 310.462 381.678 308.086 385.177 307.207C398.101 303.959 405.29 312.82 414.775 318.267C416.715 318.313 418.304 317.246 419.79 316.098C429.019 308.966 436.825 296.258 439.406 284.91C440.256 281.171 440.255 277.316 440.78 273.53C441.323 269.613 442.675 265.981 444.199 262.354C448.864 251.247 455.003 246.207 464.326 239.062C465.608 238.079 466.264 237.477 467.936 237.369C469.06 237.296 470.376 237.37 471.202 236.476C472.394 235.187 473.029 233.732 472.931 231.972C472.545 231.275 472.26 230.815 471.52 230.43C468.302 228.755 463.285 229.308 459.965 230.364C449.35 233.739 442.929 244.496 438.099 253.798ZM472.929 255.07C463.222 257.961 457.324 264.528 452.636 273.284C451.405 275.583 450.503 277.533 451.043 280.151C451.718 281.271 452.438 282.021 453.769 282.358C455.07 282.687 455.659 282.319 456.748 281.741C459.012 278.573 459.589 274.681 461.748 271.433C463.204 269.469 464.587 267.55 466.401 265.89C469.146 269.892 471.897 273.829 477.102 274.631C478.744 274.884 479.816 274.635 481.29 273.929C482.191 273.008 482.472 272.357 482.556 271.048C482.684 269.058 481.921 266.113 480.402 264.736C479.285 263.723 475.803 262.452 475.295 261.267L475.759 260.843C476.787 259.889 477.66 259.232 478.017 257.818C477.632 256.693 477.227 256.173 476.088 255.681C475.036 255.227 474.061 255.064 472.929 255.07ZM383.384 311.626C381.777 312.35 380.373 312.857 379.25 314.259C379.149 314.911 378.867 315.311 379.371 315.845C380.569 317.115 382.778 317.392 384.408 317.659C398.27 319.922 403.445 321.047 405.965 336.25C406.616 336.983 407.12 337.387 407.989 337.841C409.536 337.493 411.107 337.464 412.122 336.07C413.471 334.216 413.038 331.159 412.336 329.159C409.971 322.422 404.571 316.317 398.045 313.442C393.101 311.263 388.625 311.205 383.384 311.626Z"/>
	<path fill="#020101" d="M461.748 271.433C459.589 274.681 459.012 278.573 456.748 281.741C455.659 282.319 455.07 282.687 453.769 282.358C452.438 282.021 451.718 281.271 451.043 280.151C450.503 277.533 451.405 275.583 452.636 273.284C457.324 264.528 463.222 257.961 472.929 255.07C474.061 255.064 475.036 255.227 476.088 255.681C477.227 256.173 477.632 256.693 478.017 257.818C477.66 259.232 476.787 259.889 475.759 260.843L475.295 261.267C475.803 262.452 479.285 263.723 480.402 264.736C481.921 266.113 482.684 269.058 482.556 271.048C482.472 272.357 482.191 273.008 481.29 273.929C479.816 274.635 478.744 274.884 477.102 274.631C471.897 273.829 469.146 269.892 466.401 265.89C464.587 267.55 463.204 269.469 461.748 271.433Z"/>
	<path fill="#020101" d="M407.989 337.841C407.12 337.387 406.616 336.983 405.965 336.25C403.445 321.047 398.27 319.922 384.408 317.659C382.778 317.392 380.569 317.115 379.371 315.845C378.867 315.311 379.149 314.911 379.25 314.259C380.373 312.857 381.777 312.35 383.384 311.626C388.625 311.205 393.101 311.263 398.045 313.442C404.571 316.317 409.971 322.422 412.336 329.159C413.038 331.159 413.471 334.216 412.122 336.07C411.107 337.464 409.536 337.493 407.989 337.841Z"/>
	<path fill="#FEFEFE" d="M490.621 324.56C502.184 323.632 512.623 321.045 523.894 318.682C525.412 320.245 525.916 324.536 526.437 326.647C525.603 327.04 524.76 327.415 523.908 327.769C514.754 331.581 505.245 331.784 496.094 328.016C494.184 327.063 492.403 325.737 490.621 324.56Z"/>
	<path fill="#9F8BE8" d="M300.062 406.638C298.194 403.96 296.624 401.087 295.378 398.069C287.946 379.563 300.7 367.048 307.437 351.121C311.181 369.879 291.11 377.458 302.374 408.257L301.968 408.427L300.062 406.638Z"/>
	<path fill="#DBD3FB" d="M488.391 382.157C499.908 379.014 511.198 376.29 522.594 372.596C523.153 373.135 523.563 373.236 523.561 374.075C523.551 378.454 517.583 396.252 514.747 399.949C506.267 393.36 497.932 387.191 488.391 382.157Z"/>
	<path fill="#9F8BE8" d="M417.556 408.116C423.091 408.13 428.749 409.184 434.312 409.414C450.524 410.202 466.681 406.991 481.359 400.063C483.329 403.046 484.688 413.478 487.595 418.738C494.115 430.533 505.133 439.702 511.129 451.764C513.63 456.796 515.614 462.128 517.858 467.28C523.102 479.321 528.183 491.295 532.932 503.545C545.171 534.862 556.346 566.586 566.436 598.66C571.989 616.673 576.536 635.011 581.982 653.058C587.993 672.981 599.084 702.734 601.321 722.966C598.558 727.283 594.031 730.695 590.145 733.944C583.626 733.193 577.409 735.093 571.11 736.549C569.087 723.929 567.948 711.512 565.062 699.012C559.095 677.57 551.019 656.785 544.443 635.535C539.469 619.46 535.644 603.042 530.549 586.996C517.732 546.633 498.988 506.598 474.186 472.168C462.836 456.411 452.328 447.399 434.16 440.064C427.114 437.219 419.978 434.882 412.466 433.669C413.421 431.921 414.341 430.112 414.854 428.177C416.292 422.761 413.673 418.243 411.206 413.654C413.225 411.536 415.138 409.776 417.556 408.116Z"/>
	<path fill="#9F8BE8" d="M498.906 423.059L498.464 423.349C498.34 423.276 498.206 423.216 498.09 423.129C495.411 421.118 491.27 412.55 490.404 409.096C491.122 409.306 491.768 409.567 492.437 409.901C497.95 412.653 497.084 417.811 498.906 423.059Z"/>
	<path fill="#FEFEFE" d="M539.744 440.081C535.31 431.969 525.852 425.069 518.924 418.961C519.174 417.626 520.056 416.928 520.917 415.904C532.119 423.319 541.796 432.838 550.471 443.019C545.876 450.76 539.791 459.395 537.591 468.136C546.999 473.673 558.602 476.703 568.562 481.385C574.558 493.542 577.809 512.455 580.833 526.02C583.797 539.309 586.96 552.556 589.539 565.928C591.492 576.053 592.941 586.282 594.633 596.455C598.979 622.583 602.523 648.788 602.104 675.318C602.02 680.696 602.371 686.868 601.259 692.135L600.843 691.564C599.499 683.452 597.526 675.568 596.609 667.366C595.668 658.955 595.412 650.466 594.831 642.024C594.068 630.734 592.958 619.47 591.502 608.248C586.093 568.232 577.711 528.674 566.426 489.903C557.757 485.221 531.848 476.222 526.572 470.694C526.476 470.338 526.283 469.995 526.283 469.626C526.28 467.771 538.043 444.512 539.744 440.081Z"/>
	<path fill="#FEFEFE" d="M522.417 460.98C519.361 454.651 516.803 448.009 513.956 441.573C510.245 433.186 506.208 424.839 502.997 416.248C512.068 419.612 524.999 433.119 531.987 440.239C530.16 445.068 527.983 449.835 525.982 454.599C524.956 456.917 523.824 458.879 522.417 460.98Z"/>
	<path fill="#FEFEFE" d="M342.05 488.23C333.537 467.234 324.845 445.883 317.606 424.423C320.756 425.35 324.065 425.71 327.311 426.139C331.199 436.478 335.655 446.578 340.02 456.721C342.509 462.503 344.779 468.654 347.731 474.203C348.692 476.008 349.258 476.984 351.401 477.207C356.771 477.768 363.039 475.773 368.499 475.469C384.268 474.592 402.344 476.608 417.502 481.294C412.708 493.668 403.804 505.047 396.211 515.85C393.129 520.234 389.608 524.782 387.4 529.677C391.196 536.143 396.201 541.919 400.694 547.916C407.935 557.637 415.035 567.464 421.989 577.392C449.004 616.305 472.024 657.844 490.702 701.377C494.338 710.026 500.387 722.233 499.281 731.772C499.069 733.603 498.233 735.425 497.54 737.121C496.771 739.055 496.159 741.048 495.513 743.027C493.6 732.738 489.294 722.667 485.278 713.047C464.214 662.593 431.816 612.304 400.071 567.819C391.025 555.142 380.874 543.245 371.903 530.53C378.124 520.932 396.875 501.282 398.968 491.611C399.314 490.013 399.097 489.161 398.187 487.841C388.888 483.214 353.145 486.326 342.05 488.23Z"/>
	<path fill="#FEFEFE" d="M334.885 426.867C340.199 426.699 345.429 426.241 350.715 425.699C354.75 425.079 359.517 425.395 363.55 425.943C367.757 426.515 371.84 427.533 375.63 429.486C381.163 432.337 385.493 436.547 390.066 440.683C402.312 451.757 411.394 461.807 421.267 474.952C416.318 473.93 411.357 472.969 406.384 472.067C388.482 468.599 372.655 466.53 354.626 470.846C350.969 462.61 347.267 454.393 343.519 446.198C340.561 439.816 337.327 433.465 334.885 426.867Z"/>
	<path fill="#9F8BE8" d="M401.063 441.695C403.791 440.414 406.341 438.955 408.925 437.408C421.474 439.675 439.217 448.135 449.534 455.455C460.444 463.196 468.124 474.795 475.473 485.769C496.503 517.174 512.419 552.698 523.786 588.677C529.182 605.757 533.347 623.197 538.766 640.281C542.316 651.577 545.996 662.832 549.806 674.043C553.102 683.713 556.731 693.392 559.101 703.343C561.831 714.808 562.439 726.635 564.41 738.231C556.834 740.43 549.677 744.587 541.921 745.874C527.922 748.642 513.244 751.855 499.003 752.708C506.978 736.562 509.209 723.099 509.288 705.255C509.602 634.494 472.363 533.621 431.077 476.168C422.069 463.632 411.926 452.612 401.063 441.695Z"/>
	<path fill="#9F8BE8" d="M546.195 464.918C548.932 459.418 551.749 453.969 555.152 448.848C561.879 455.166 567.264 466.541 570.007 475.236C567.689 474.385 565.428 473.341 563.159 472.366C557.47 469.901 552.096 466.886 546.195 464.918Z"/>
	<path fill="#9F8BE8" d="M319.135 450.893C323.968 461.212 329.89 474.383 332.836 485.295C334.475 488.913 336.051 492.559 337.566 496.231C355.624 493.564 372.958 492.134 391.208 493.369C385.218 502.083 378.309 510.321 371.841 518.694C368.863 522.55 365.448 526.501 363.089 530.764C366.677 536.954 371.67 542.55 376.145 548.119C382.473 555.994 388.716 563.822 394.6 572.038C425.174 614.731 453.189 659.064 474.999 706.936C481.581 721.384 488.305 736.42 491.409 752.067C487.451 758.502 482.197 764.316 477.267 770.016C459.364 790.712 439.126 809.418 419.051 827.975C401.536 815.034 384.235 801.742 366.616 788.954C390.272 752.418 410.092 713.536 425.759 672.928C426.81 670.143 430.692 662.315 429.926 659.774C429.59 658.659 428.834 657.848 427.738 657.443C426.649 657.04 425.378 657.078 424.339 657.61C423.469 658.056 423.017 658.652 422.607 659.515C421.433 661.987 420.83 665.203 420.028 667.837C418.573 672.618 416.965 677.254 415.082 681.889C402.805 712.098 386.941 740.913 370.635 769.083C364.384 756.188 358.721 743.057 351.925 730.419C343.852 715.406 334.307 700.898 324.815 686.742C319.937 679.467 315.181 671.743 309.62 664.989C315.778 654.749 321.776 644.414 327.611 633.987C330.796 628.363 333.773 622.235 337.427 616.914C343.771 607.674 372.766 579.588 371.575 570.038C370.872 568.98 370.854 568.902 369.669 568.473C363.528 569.631 354.777 585.84 349.891 590.975C359.319 560.788 361.026 541.961 345.89 513.102C341.189 504.138 335.57 496.197 329.617 488.047C326.067 485.135 322.903 481.119 319.711 477.761C312.075 469.726 305.507 466.603 295.733 461.783C303.483 458.125 311.164 454.036 319.135 450.893Z"/>
	<path fill="#9F8BE8" d="M161.592 749.733C162.032 746.594 162.753 743.498 163.488 740.416C168.111 721.045 174.865 702.165 181.416 683.388C201.047 627.125 225.264 573.252 251.852 519.974C258.103 507.448 262.568 493.542 270.709 482.088C274.815 476.31 280.487 471.783 286.48 468.095C292.257 468.755 297.782 470.946 302.811 473.815C322.685 485.155 341.791 516.489 347.607 538.04C351.192 551.325 350.31 564.335 346.628 577.503C342.57 592.014 335.352 605.124 328.192 618.272C320.526 632.349 312.558 646.094 304.332 659.844L274.971 710.047C271.083 704.318 266.798 698.975 261.32 694.681C255.091 689.799 230.87 677.547 223.023 679.058C221.633 679.326 221.223 679.856 220.396 680.939C220.053 682.996 220.288 684.096 222.11 685.205C225.448 687.236 230.915 687.608 234.736 688.67C245.591 691.688 259.59 700.549 265.933 709.944C251.346 702.396 236.748 701.068 220.652 703.654C213.515 704.8 194.911 711.944 190.91 718.074C190.007 719.456 189.989 720.497 190.305 722.063C191.663 723.115 192.671 723.347 194.35 722.848C197.226 721.994 200.115 719.572 202.768 718.112C211.459 713.327 220.807 710.219 230.706 709.299C237.612 708.657 245.106 708.891 251.715 711.184C265.729 716.046 291.086 739.418 303.823 749.99L339.515 778.748C336.676 780.36 333.891 782.067 331.166 783.867C307.424 799.749 293.239 821.096 287.726 848.878C281.213 844.104 274.203 839.827 267.464 835.369C237.689 815.675 179.678 779.945 161.592 749.733Z"/>
	<path fill="#FEFEFE" d="M394.954 529.573C398.264 525.591 400.979 521.111 403.882 516.829C411.943 504.94 419.27 493.158 425.706 480.297C425.836 480.417 425.973 480.53 426.096 480.657C431.286 485.986 438.76 500.026 442.68 506.717C475.792 563.221 504.076 648 502.081 714.228C499.8 706.557 496.862 699.248 493.772 691.878C489.247 680.431 483.58 669.324 478.03 658.347C459.416 621.527 437.432 587.423 413.426 553.917C407.494 545.637 400.903 537.845 394.954 529.573Z"/>
	<path fill="#FEFEFE" d="M588.352 648.599C586.215 645.829 574.517 600.579 571.899 592.025C560.447 554.623 545.578 518.318 531.967 481.681C535.966 482.993 539.92 485.155 543.804 486.816C549.261 489.15 555.415 491.043 560.445 494.172C563.008 501.031 564.709 508.203 566.602 515.271C572.643 537.836 576.883 560.687 580.643 583.727C584.115 605.009 587.895 627.007 588.352 648.599Z"/>
	<path fill="#9F8BE8" d="M608.489 648.586C605.933 612.288 599.375 576.899 591.538 541.423C587.687 523.993 583.833 506.502 578.885 489.351C579.149 489.605 579.518 489.939 579.758 490.237C583.355 494.683 585.912 502.15 588.342 507.379C605.08 544.069 620.262 581.449 633.849 619.419C638.491 632.316 644.548 646.037 646.59 659.597C650.239 683.826 646.658 709.936 644.779 734.278C641.822 730.317 638.241 726.932 634.717 723.489C626.76 716.632 617.7 709.286 607.846 705.433C608.339 689.16 609.636 673.63 609.128 657.279C613.11 653.874 619.276 649.618 621.721 645.025C622.259 644.015 622.482 643.542 621.978 642.456C621.476 641.374 620.347 640.601 619.262 640.254C615.433 640.834 611.351 645.993 608.489 648.586Z"/>
	<path fill="#564198" d="M895.09 577.144C887.099 567.239 874.632 556.828 872.916 543.497C872.35 539.094 873.337 534.885 876.208 531.443C883.943 522.169 905.172 518.283 916.571 517.478C955.737 514.711 994.57 529.288 1024 554.688L1024 695.461L1012.17 718.692C1009.37 724.171 1006.14 729.767 1004.26 735.63C1007.36 736.872 1010.47 737.716 1013.7 738.542C1014.78 746.357 1015.91 754.166 1017.09 761.968L1024 765.245L1024 1024L633.409 1024C634.826 1016.4 635.564 1008.5 636.463 1000.81C640.691 964.657 642.414 924.293 639.124 888.047L639.637 888.343L640.064 887.748L640.151 888.318C667.655 875.751 695.042 862.93 722.309 849.857C722.034 842.969 721.331 836.395 719.953 829.637C707.138 829.102 694.362 828.698 681.787 825.864C673.929 824.093 663.715 821.248 659.167 814.059C659.049 800.433 664.266 769.079 667.892 755.385C666.556 754.374 665.199 753.39 663.916 752.311C660.838 749.724 654.832 743.908 654.871 739.68C654.909 735.584 667.32 728.542 670.58 725.914C673.363 723.671 676.072 721.196 678.504 718.575C684.114 712.528 688.109 704.928 693.011 698.301C698.653 690.673 705.474 683.981 712.037 677.152C710.63 673.222 709.417 669.482 710.269 665.247C711.511 659.076 716.649 654.562 721.773 651.385C742.631 638.456 771.819 635.619 795.383 641.152C820.42 647.031 840.533 662.162 853.992 683.982C861.449 696.198 866.219 709.862 867.983 724.066C873.987 771.313 842.104 800.767 811.616 831.017C808.1 834.505 799.801 840.425 798.691 845.167C801.753 850.99 827.163 863.15 834.191 866.29C834.619 860.141 834.469 853.929 834.483 847.767C847.103 837.404 860.927 828.25 874.167 818.676C891.318 806.275 908.302 793.401 925.878 781.633C923.789 772.979 921.608 764.347 919.336 755.739C921.899 754.407 924.345 753.446 927.11 752.612C926.303 748.37 925.538 744.12 924.816 739.863C913.972 739.746 901.931 742.02 891.73 737.394C883.843 733.818 878.344 726.768 875.378 718.779C872.866 712.013 872.128 704.639 871.378 697.502C868.306 668.29 870.778 637.748 880.206 609.821C884.108 598.264 890.02 588.135 895.09 577.144Z"/>
	<path fill="#C5BCF9" d="M108.355 569.347C108.343 574.463 108.223 579.604 108.587 584.71L108.515 1024L0 1024L0 820.071C4.66434 811.089 8.45925 801.491 12.5367 792.218C20.5141 774.005 28.3833 755.744 36.1439 737.438L84.2424 626.07C92.3803 607.197 99.7947 588.038 108.355 569.347Z"/>
	<path fill="#9F8BE8" d="M276.578 719.045C286.479 703.363 296.282 687.857 305.576 671.785C311.297 678.491 316.138 686.462 320.969 693.827C331.399 709.433 340.998 725.578 349.725 742.195C355.52 753.392 360.43 765.034 366.178 776.263C364.528 779.538 362.499 782.549 360.485 785.608C355.93 782.74 351.57 779.053 347.25 775.814C323.042 757.919 300.845 736.731 276.578 719.045Z"/>
	<path fill="#9F8BE8" d="M1004.26 735.63C1006.14 729.767 1009.37 724.171 1012.17 718.692L1024 695.461L1024 765.245L1017.09 761.968C1015.91 754.166 1014.78 746.357 1013.7 738.542C1010.47 737.716 1007.36 736.872 1004.26 735.63Z"/>
	<path fill="#FEFEFE" d="M610.27 726.698C609.46 722.04 608.778 717.36 608.225 712.664C622.04 719.489 634.897 730.677 643.19 743.666C642.458 746.489 642.12 749.382 641.722 752.266L641.367 752.707C638.414 750.143 636.26 746.591 633.417 743.857C626.446 737.153 618.339 731.943 610.27 726.698Z"/>
	<path fill="#564198" d="M594.297 738.208C597.452 735.427 601.003 732.969 604.351 730.418C605.243 731.297 604.984 732.806 604.983 733.996C604.968 746.167 607.838 758.305 607.753 770.38C607.739 772.39 607.725 774.408 606.126 775.836C604.982 776.857 602.539 777.435 601.051 777.353L600.595 776.467C599.89 765.222 597.859 748.74 594.297 738.208Z"/>
	<path fill="#FEFEFE" d="M612.61 747.895L611.387 735.683C622.137 740.952 635.53 754.565 641.333 764.859C640.924 767.547 640.387 770.23 639.908 772.908L639.603 773.317C639.186 773.164 626.611 759.203 625.167 757.805C621.24 754.005 617.149 750.932 612.61 747.895Z"/>
	<path fill="#FEFEFE" d="M550.793 750.47C559.058 743.439 574.628 741.431 585.249 739.681C586.495 739.676 587.156 739.799 588.276 740.349C591.52 745.042 595.068 778.279 594.98 785.436C584.001 789.76 571.936 792.244 560.522 795.227L555.543 796.263C553.085 784.329 551.257 762.771 550.793 750.47ZM579.329 748.58L560.899 753.011C561.5 758.832 562.536 780.208 565.097 784.179C566.445 784.511 567.284 784.31 568.615 784.045C573.817 782.976 582.267 782.132 586.288 778.616C587.144 774.044 585.024 752.917 583.223 748.646C581.813 748.221 580.748 748.385 579.329 748.58Z"/>
	<path fill="#020101" d="M560.899 753.011L579.329 748.58C580.748 748.385 581.813 748.221 583.223 748.646C585.024 752.917 587.144 774.044 586.288 778.616C582.267 782.132 573.817 782.976 568.615 784.045C567.284 784.31 566.445 784.511 565.097 784.179C562.536 780.208 561.5 758.832 560.899 753.011ZM577.486 754.595C574.005 755.592 570.533 756.549 567.164 757.887C567.388 761.522 567.359 774.948 569.069 777.455L569.608 777.587C573.113 776.679 576.688 775.866 580.094 774.636C579.814 771.194 579.29 756.356 577.816 754.667L577.486 754.595Z"/>
	<path fill="#564198" d="M495.153 759.363C512.122 757.413 528.729 754.513 545.473 751.177L545.593 751.268C547.172 754.166 548.692 788.512 549.163 794.817C534.141 798.996 518.812 802.214 503.682 805.998C490.07 809.401 476.649 813.613 463.033 816.943C455.364 818.818 447.484 819.873 439.75 821.466C438.483 821.716 437.327 821.792 436.042 821.835C436.313 820.162 451.743 807.103 454.027 804.909C468.583 790.93 483.516 775.883 495.153 759.363Z"/>
	<path fill="#564198" d="M567.164 757.887C570.533 756.549 574.005 755.592 577.486 754.595L577.816 754.667C579.29 756.356 579.814 771.194 580.094 774.636C576.688 775.866 573.113 776.679 569.608 777.587L569.069 777.455C567.359 774.948 567.388 761.522 567.164 757.887Z"/>
	<path fill="#9F8BE8" d="M609.945 781.443C610.252 781.121 610.554 780.793 610.85 780.461C616.057 774.572 613.599 764.141 613.246 756.9C624.313 763.837 631.718 774.11 639.329 784.472C637.058 798.059 633.786 811.468 631.622 825.067L630.734 829.503C628.76 825.866 628.049 820.764 626.921 816.754C623.373 804.149 618.463 791.562 609.945 781.443Z"/>
	<path fill="#FEFEFE" d="M294.434 852.969C294.71 847.406 295.453 842.117 297.184 836.805C304.591 814.075 324.159 794.544 345.118 783.862C348.737 785.104 352.363 788.597 355.281 790.985C353.944 791.845 352.613 792.712 351.287 793.586C333.588 805.272 317.36 821.764 309.782 841.935C307.592 847.764 306.361 853.91 305.112 859.993C301.464 857.79 297.902 855.447 294.434 852.969Z"/>
	<path fill="#FEFEFE" d="M561.242 1024C565.224 1010.89 567.369 997.106 569.806 983.642C580.871 922.509 584.259 859.424 572.023 798.176C581.179 795.601 591.321 793.302 599.939 789.23C600.694 787.668 601.238 786.191 602.698 785.153C603.407 785.007 603.831 784.739 604.512 785.118C606.516 786.231 608.094 789.418 609.236 791.355C618.633 807.299 622.784 826.697 626.396 844.657C635.251 888.683 635.502 933.12 631.697 977.743C630.38 993.193 628.154 1008.56 626.846 1024L561.242 1024Z"/>
	<path fill="#FEFEFE" d="M311.548 864.059C312.324 858.693 313.189 853.372 314.868 848.201C322.281 825.366 341.471 806.003 362.62 795.347C365.168 795.538 369.135 799.993 371.121 801.785C366.503 805.021 361.871 808.285 357.491 811.84C339.89 826.128 323.674 847.257 321.271 870.438C318.019 868.329 314.777 866.203 311.548 864.059Z"/>
	<path fill="#FEFEFE" d="M356.779 1024C363.441 986.031 376.675 947.688 393.787 913.156C396.541 907.599 399.052 901.788 402.41 896.564C406.435 900.732 410.569 904.692 414.866 908.579C413.538 910.389 412.01 912.091 411.519 914.322C411.819 915.784 411.808 915.843 412.927 916.82C414.752 917.284 416.176 917.184 417.81 916.251C421.136 914.352 424.172 909.349 426.505 906.348C434.987 895.435 443.292 884.244 450.81 872.641C456.907 863.234 462.412 853.419 468.61 844.082C474.918 844.231 481.22 844.567 487.508 845.088C493.869 845.594 500.49 846.558 506.857 845.965C509.856 845.685 513.677 844.955 515.98 842.851C517.045 841.878 517.624 840.625 517.68 839.185C517.797 836.132 516.449 833.196 514.333 831.051C506.489 823.102 486.051 820.767 475.297 819.696C500.721 813.009 526.802 808.388 551.848 800.382C556.675 801.972 560.923 800.781 565.691 799.639C577.343 863.19 573.566 925.32 562.321 988.541C560.201 1000.46 556.913 1012.12 554.744 1024L356.779 1024ZM499.989 866.366C494.183 875.701 489.544 886.094 484.672 895.943C469.457 926.706 456.497 958 443.783 989.86C442.581 992.87 437.464 1002.97 437.769 1005.57C437.914 1006.81 438.684 1007.81 439.779 1008.38C440.624 1008.81 441.695 1009.07 442.618 1009.31C447.057 1002.17 452.936 984.791 456.489 976.09C465.645 953.666 474.966 931.203 485.506 909.389C488.545 903.101 504.538 873.825 504.806 869.021C504.273 867.796 504.105 867.408 502.796 866.821C502.036 866.48 500.821 866.442 499.989 866.366Z"/>
	<path fill="#9F8BE8" d="M328.525 874.649C328.259 871.46 328.304 868.519 328.948 865.38C334.054 840.497 356.27 819.731 376.58 806.346C379.806 806.315 408.63 828.923 414.393 832.325C396.729 852.521 376.619 878.771 374.963 906.416L370.395 903.094C356.539 893.465 342.581 883.983 328.525 874.649Z"/>
	<path fill="#FEFEFE" d="M391.781 875.974C397.507 864.453 409.543 845.017 419.547 837.161L420.005 837.089C425.658 836.171 424.126 833.78 427.027 830.197C428.031 828.957 431.876 826.964 433.45 826.65C435.547 826.232 439.223 828.086 441.673 827.942C446.811 827.641 451.762 825.945 457.069 825.724C467.312 825.557 477.551 826.229 487.684 827.733C492.675 828.509 507.601 831.135 510.13 836.041C510.668 837.085 510.57 837.562 510.169 838.593C504.895 841.758 476.402 837.36 468.204 837.3C464.821 837.275 458.787 837.089 456.47 839.994C455.679 840.986 455.571 841.158 455.676 842.407C456.577 843.592 458.026 843.902 459.406 844.281C459.623 844.341 459.843 844.392 460.061 844.447C457.256 852.983 439.369 877.592 433.229 886.22C428.718 892.31 424.069 898.297 419.286 904.175C409.988 894.877 401.465 884.889 391.781 875.974Z"/>
	<path fill="#020101" d="M442.618 1009.31C441.695 1009.07 440.624 1008.81 439.779 1008.38C438.684 1007.81 437.914 1006.81 437.769 1005.57C437.464 1002.97 442.581 992.87 443.783 989.86C456.497 958 469.457 926.706 484.672 895.943C489.544 886.094 494.183 875.701 499.989 866.366C500.821 866.442 502.036 866.48 502.796 866.821C504.105 867.408 504.273 867.796 504.806 869.021C504.538 873.825 488.545 903.101 485.506 909.389C474.966 931.203 465.645 953.666 456.489 976.09C452.936 984.791 447.057 1002.17 442.618 1009.31Z"/>
	<path fill="#564198" d="M383.712 912.836C384.346 911.618 385.042 910.432 384.569 909.011C384.109 907.63 382.907 906.352 381.984 905.257C382.297 896.055 384.39 888.98 388.642 880.817C391.608 884.091 394.502 887.51 397.707 890.551C393.187 898.703 389.59 907.32 384.995 915.415L383.712 912.836Z"/>
	<path fill="#9F8BE8" d="M383.712 912.836L384.995 915.415C368.089 949.43 357.406 986.945 349.646 1024L275.448 1024C280.142 1006.68 286.361 989.447 292.329 972.527C303.081 942.082 314.548 911.895 326.723 881.991L357.789 902.837C364.869 907.62 372.016 913.028 379.755 916.671C381.124 915.46 382.404 914.114 383.712 912.836Z"/>
</svg>
