<?xml version="1.0" encoding="utf-8" ?>
<svg xmlns="http://www.w3.org/2000/svg" xmlns:xlink="http://www.w3.org/1999/xlink" width="1024" height="1024">
	<path fill="#9F8BE8" d="M0 0L400.355 0C410.264 4.97634 420.592 9.24594 430.71 13.7837C457.416 25.7606 484.411 37.133 511.025 49.2989L787.788 176.563C814.092 188.547 840.327 200.683 866.491 212.968C879.574 219.006 892.883 224.698 905.771 231.139C906.198 261.711 905.863 292.327 905.865 322.904L905.756 508.326L905.89 1024L769.769 1024C770.883 1018.41 771.038 1012.51 771.452 1006.82C772.382 993.739 772.913 980.629 773.042 967.512C773.066 960.473 772.573 953.28 773.283 946.277C773.863 940.559 776.225 934.421 777.476 928.771C779.717 918.645 781.116 908.465 782.041 898.136C782.56 892.341 782.961 885.991 782.238 880.205C796.662 869.155 810.154 857.576 820.428 842.408C820.202 838.129 821.019 833.502 821.329 829.214C821.877 821.632 822.492 804.83 820.964 797.633C825.071 792.247 829.181 786.176 831.785 779.911C835.915 769.977 836.21 757.105 830.667 747.658C828.135 743.341 824.537 739.468 821.523 735.47C818.726 731.761 816.486 727.759 814.417 723.608C807.627 709.99 803.605 695.077 800.881 680.148C796.285 654.953 794.598 628.797 792.106 603.317C785.916 540.037 779.167 493.702 754.396 434.161C737.068 392.508 707.232 343.208 668.466 318.472C662.129 314.429 655.297 311.496 648.375 308.634C654.709 298.78 655.175 286.289 653.717 275C651.39 256.98 643.855 240.179 633.609 225.289C617.689 202.155 596.952 183.921 576.865 164.628C564.213 152.659 552.282 139.949 541.137 126.566C535.492 119.688 530.056 112.461 525.304 104.937C518.648 94.4008 511.957 76.6134 502.157 69.3691C494.885 63.9932 486.244 62.9906 477.5 64.1953C436.115 69.8973 355.232 126.943 329.74 160.581C327.481 163.561 322.409 169.932 323.023 173.715C323.059 173.939 323.111 174.161 323.146 174.385C323.235 174.946 323.308 175.233 323.021 175.804C321.564 178.706 314.123 184.807 311.513 187.702C308.582 190.955 305.872 194.547 303.378 198.141C287.656 220.8 280.07 246.763 279.218 274.168C279.094 278.14 278.172 283.651 279.026 287.445C279.395 289.086 280.048 289.86 281.507 290.729C286.137 291.557 297.241 283.466 301.344 281.005C302.599 286.357 303.421 291.73 304.965 297.032C308.025 307.536 317.17 327.933 314.923 338.171C314.321 340.913 313.431 343.765 312.205 346.287C310.646 349.496 305.82 355.294 305.915 358.724C305.935 359.428 306.46 359.679 306.926 360.137C309.704 361.101 313.248 360.755 316.144 360.452C329.353 359.067 341.552 352.777 349.896 342.403C350.851 346.527 351.742 350.637 351.793 354.887C351.821 357.215 351.441 359.617 351.569 361.926C351.622 362.869 352.054 363.482 352.537 364.254C353.792 364.891 354.398 365.087 355.804 364.751C363.35 362.947 371.75 353.181 375.744 346.909C376.979 353.654 376.861 362.036 379.786 368.263C380.943 370.726 382.818 372.908 385.447 373.819C390.133 375.444 395.115 372.965 399.211 370.833C402.334 375.416 407.367 383.627 413.155 384.597C415.9 385.057 417.907 383.296 419.958 381.759C420.588 382.468 421.252 383.14 421.933 383.801C429.144 390.796 440.302 399.705 450.25 401.85C453.13 402.471 456.417 402.179 459.357 402.131C438.197 439.159 421.036 479.548 411.499 521.194C408.696 533.438 404.246 556.481 406.447 568.403C406.942 571.085 408.057 573.114 409.489 575.388C409.59 580.749 409.066 586.24 409.504 591.578C409.726 594.295 410.473 597.423 412.759 599.163C414.293 600.33 416.286 600.704 418.17 600.408C421.214 599.929 422.989 597.57 424.655 595.206C424.911 589.556 424.193 583.778 424.645 578.18C425.007 573.704 426.332 569.18 427.062 564.74C430.363 544.664 433.232 527.304 439.296 507.754C441.238 501.491 443.096 495.144 446.228 489.353C440.819 523.602 441.23 557.171 442.813 591.664C443.535 607.414 444.086 623.62 446.812 639.17C432.123 649.398 416.288 660.536 399.36 666.56C388.583 670.395 377.69 671.213 367.481 676.97C356.789 682.999 351.819 695.233 342.814 700.338C331.097 706.98 317.903 709.038 307.537 718.328C298.416 713.376 275.705 701.987 265.966 702.165C262.639 702.226 259.668 703.348 257.014 705.334C250.969 709.859 246.401 717.418 241.806 723.327C234.958 732.132 227.836 741.462 220.14 749.536C219.246 731.626 220.066 713.243 220.069 695.279L220.099 586.61L220.074 374.318C220.352 320.165 220.189 266.012 219.585 211.862C171.121 194.784 122.526 178.081 73.8027 161.756L27.408 145.987C18.4423 142.971 8.47895 140.408 0 136.327L0 0Z"/>
	<path fill="#6A44D9" d="M400.355 0L440.491 0C456.516 8.65407 473.859 15.1127 490.465 22.6045C522.418 37.3577 554.449 51.9407 586.557 66.353L898.052 209.621L971.786 243.874C989.222 251.872 1006.91 259.561 1024 268.282L1024 286.761L958.379 255.757C946.671 250.277 934.299 245.365 923.052 239.006L923.111 1024L905.89 1024L905.756 508.326L905.865 322.904C905.863 292.327 906.198 261.711 905.771 231.139C892.883 224.698 879.574 219.006 866.491 212.968C840.327 200.683 814.092 188.547 787.788 176.563L511.025 49.2989C484.411 37.133 457.416 25.7606 430.71 13.7837C420.592 9.24594 410.264 4.97634 400.355 0Z"/>
	<path fill="#D7D0FA" d="M440.491 0L586.937 0C602.685 6.32024 617.946 14.1112 633.319 21.29L691.734 47.9151C753.837 76.349 816.246 104.223 877.993 133.413L964.064 174.114C983.955 183.602 1003.83 193.592 1024 202.441L1024 268.282C1006.91 259.561 989.222 251.872 971.786 243.874L898.052 209.621L586.557 66.353C554.449 51.9407 522.418 37.3577 490.465 22.6045C473.859 15.1127 456.516 8.65407 440.491 0Z"/>
	<path fill="#6A44D9" d="M586.937 0L606.829 0C616.649 5.94403 628.252 9.8035 638.658 14.7784C673.727 31.5434 709.388 47.0931 744.638 63.4791L887.184 129.114C894.546 132.576 901.592 136.68 908.933 140.189C925.933 148.316 943.239 155.967 960.328 163.924C981.512 173.786 1002.53 183.954 1024 193.207L1024 202.441C1003.83 193.592 983.955 183.602 964.064 174.114L877.993 133.413C816.246 104.223 753.837 76.349 691.734 47.9151L633.319 21.29C617.946 14.1112 602.685 6.32024 586.937 0Z"/>
	<path fill="#D7D0FA" d="M606.829 0L759.249 0C783.26 10.0461 806.579 21.8632 830.154 32.8975C868.359 50.6042 906.456 68.5412 944.444 86.7077L995.139 110.782C1004.67 115.325 1014.25 120.53 1024 124.526L1024 193.207C1002.53 183.954 981.512 173.786 960.328 163.924C943.239 155.967 925.933 148.316 908.933 140.189C901.592 136.68 894.546 132.576 887.184 129.114L744.638 63.4791C709.388 47.0931 673.727 31.5434 638.658 14.7784C628.252 9.8035 616.649 5.94403 606.829 0Z"/>
	<path fill="#6A44D9" d="M759.249 0L797.988 0C806.237 4.48716 815.031 8.2695 823.573 12.1809L860.511 29.2054L971.328 81.1595L1006.68 97.5433C1012.39 100.19 1018.54 102.599 1024 105.705L1024 124.526C1014.25 120.53 1004.67 115.325 995.139 110.782L944.444 86.7077C906.456 68.5412 868.359 50.6042 830.154 32.8975C806.579 21.8632 783.26 10.0461 759.249 0Z"/>
	<path fill="#9F8BE8" d="M797.988 0L1024 0L1024 105.705C1018.54 102.599 1012.39 100.19 1006.68 97.5433L971.328 81.1595L860.511 29.2054L823.573 12.1809C815.031 8.2695 806.237 4.48716 797.988 0Z"/>
	<path d="M220.14 749.536C227.836 741.462 234.958 732.132 241.806 723.327C246.401 717.418 250.969 709.859 257.014 705.334C259.668 703.348 262.639 702.226 265.966 702.165C275.705 701.987 298.416 713.376 307.537 718.328C317.903 709.038 331.097 706.98 342.814 700.338C351.819 695.233 356.789 682.999 367.481 676.97C377.69 671.213 388.583 670.395 399.36 666.56C416.288 660.536 432.123 649.398 446.812 639.17C444.086 623.62 443.535 607.414 442.813 591.664C441.23 557.171 440.819 523.602 446.228 489.353C443.096 495.144 441.238 501.491 439.296 507.754C433.232 527.304 430.363 544.664 427.062 564.74C426.332 569.18 425.007 573.704 424.645 578.18C424.193 583.778 424.911 589.556 424.655 595.206C422.989 597.57 421.214 599.929 418.17 600.408C416.286 600.704 414.293 600.33 412.759 599.163C410.473 597.423 409.726 594.295 409.504 591.578C409.066 586.24 409.59 580.749 409.489 575.388C408.057 573.114 406.942 571.085 406.447 568.403C404.246 556.481 408.696 533.438 411.499 521.194C421.036 479.548 438.197 439.159 459.357 402.131C456.417 402.179 453.13 402.471 450.25 401.85C440.302 399.705 429.144 390.796 421.933 383.801C421.252 383.14 420.588 382.468 419.958 381.759C417.907 383.296 415.9 385.057 413.155 384.597C407.367 383.627 402.334 375.416 399.211 370.833C395.115 372.965 390.133 375.444 385.447 373.819C382.818 372.908 380.943 370.726 379.786 368.263C376.861 362.036 376.979 353.654 375.744 346.909C371.75 353.181 363.35 362.947 355.804 364.751C354.398 365.087 353.792 364.891 352.537 364.254C352.054 363.482 351.622 362.869 351.569 361.926C351.441 359.617 351.821 357.215 351.793 354.887C351.742 350.637 350.851 346.527 349.896 342.403C341.552 352.777 329.353 359.067 316.144 360.452C313.248 360.755 309.704 361.101 306.926 360.137C306.46 359.679 305.935 359.428 305.915 358.724C305.82 355.294 310.646 349.496 312.205 346.287C313.431 343.765 314.321 340.913 314.923 338.171C317.17 327.933 308.025 307.536 304.965 297.032C303.421 291.73 302.599 286.357 301.344 281.005C297.241 283.466 286.137 291.557 281.507 290.729C280.048 289.86 279.395 289.086 279.026 287.445C278.172 283.651 279.094 278.14 279.218 274.168C280.07 246.763 287.656 220.8 303.378 198.141C305.872 194.547 308.582 190.955 311.513 187.702C314.123 184.807 321.564 178.706 323.021 175.804C323.308 175.233 323.235 174.946 323.146 174.385C323.111 174.161 323.059 173.939 323.023 173.715C322.409 169.932 327.481 163.561 329.74 160.581C355.232 126.943 436.115 69.8973 477.5 64.1953C486.244 62.9906 494.885 63.9932 502.157 69.3691C511.957 76.6134 518.648 94.4008 525.304 104.937C530.056 112.461 535.492 119.688 541.137 126.566C552.282 139.949 564.213 152.659 576.865 164.628C596.952 183.921 617.689 202.155 633.609 225.289C643.855 240.179 651.39 256.98 653.717 275C655.175 286.289 654.709 298.78 648.375 308.634C655.297 311.496 662.129 314.429 668.466 318.472C707.232 343.208 737.068 392.508 754.396 434.161C779.167 493.702 785.916 540.037 792.106 603.317C794.598 628.797 796.285 654.953 800.881 680.148C803.605 695.077 807.627 709.99 814.417 723.608C816.486 727.759 818.726 731.761 821.523 735.47C824.537 739.468 828.135 743.341 830.667 747.658C836.21 757.105 835.915 769.977 831.785 779.911C829.181 786.176 825.071 792.247 820.964 797.633C822.492 804.83 821.877 821.632 821.329 829.214C821.019 833.502 820.202 838.129 820.428 842.408C810.154 857.576 796.662 869.155 782.238 880.205C782.961 885.991 782.56 892.341 782.041 898.136C781.116 908.465 779.717 918.645 777.476 928.771C776.225 934.421 773.863 940.559 773.283 946.277C772.573 953.28 773.066 960.473 773.042 967.512C772.913 980.629 772.382 993.739 771.452 1006.82C771.038 1012.51 770.883 1018.41 769.769 1024L763.462 1024C763.411 1017.19 764.24 1010.3 764.723 1003.5C765.349 993.787 765.926 984.07 766.455 974.35C766.936 966.053 766.182 957.345 767.217 949.166C769.988 927.269 775.407 906.128 777.048 883.811C751.498 900.264 715.045 916.565 685.034 920.859C677.71 912.15 671.057 902.899 665.132 893.185C662.489 888.926 660.402 884.089 657.334 880.133C653.982 875.813 648.562 873.108 644.738 869.164C635.78 859.925 629.946 849.39 623.229 838.597C618.31 840.486 612.728 841.343 607.54 842.201C587.181 845.569 567.284 845.575 546.854 842.891C544.209 850.649 541.992 858.61 539.175 866.297C536.926 872.435 534.183 878.412 531.822 884.513C513.637 931.491 493.21 977.398 474.148 1024L467.176 1024C469.238 1017.3 472.632 1010.49 475.296 1003.99C482.192 987.109 489.328 970.328 496.705 953.653C506.931 930.331 516.093 906.559 525.766 883.01C494.533 848.067 476.47 797.05 471.088 751.012C450.258 757.728 417.619 769.733 396.4 770.449C389.873 770.669 383.857 769.691 377.516 768.226C368.922 772.15 359.237 776.902 349.92 778.612C343.168 779.851 338.383 778.804 332.82 774.993C331.896 775.555 330.962 776.109 329.99 776.585C317.729 782.575 302.138 781.373 289.604 777.059C288.138 779.225 286.632 781.141 284.875 783.078C286.349 784.43 287.637 785.796 288.567 787.589C289.429 789.251 289.914 791.216 289.279 793.037C288.535 795.174 286.654 796.537 284.641 797.385C275.055 801.425 251.534 799.742 241.924 795.644C239.951 794.802 237.926 793.793 236.438 792.209C230.655 786.05 223.779 766.302 220.198 757.543C219.521 755.527 218.937 752.755 219.345 750.65C219.517 749.76 219.351 750.093 220.14 749.536ZM374.006 158.177C382.449 151.184 391.69 144.849 400.692 138.595C426.842 120.424 453.848 104.316 482.908 91.1782C489.905 88.0149 497.507 84.2008 505.037 82.6075C501.557 76.6246 497.456 72.4872 490.554 70.6317C471.973 65.6364 434.755 86.3799 418.357 96.2483C386.199 115.6 354.09 139.255 331.225 169.296C341.38 164.211 354.019 163.653 365.095 165.035L368.258 162.224C367.915 163.153 367.189 163.98 366.617 164.789C369.667 166.75 377.293 167.828 381.184 169.01C384.385 169.982 387.501 171.207 390.591 172.484C414.13 182.211 436.098 197.006 455.696 213.153C484.159 236.606 513.993 268.024 527.201 303.088C532.139 316.199 534.872 331.114 536.101 345.062C537.966 366.215 536.59 387.347 538.614 408.558C557.937 377.222 593.223 332.256 625.32 313.463C630.883 310.206 636.621 307.933 642.776 306.075C644.244 303.148 645.455 300.164 646.287 296.995C648.652 287.977 648.028 278.715 646.182 269.665C635.525 217.432 580.396 180.825 546.421 142.994C536.21 131.624 526.406 119.414 518.398 106.372C513.889 99.029 510.109 91.207 505.789 83.738C496.513 85.6843 487.208 90.3023 478.669 94.3648C452.69 106.598 427.797 121.014 404.257 137.458C397.68 142.006 380.103 155.933 374.006 158.177ZM542.324 547.3C538.07 549.368 535.812 557.526 534.282 561.933C532.652 566.629 530.991 576.673 526.506 579.268L525.497 579.051C523.622 576.072 524.843 571.341 525.589 568.11C526.965 562.155 529.43 554.192 532.982 549.241L533.351 548.717C533.425 548.613 533.503 548.511 533.58 548.407C528.274 526.364 529.657 502.746 528.178 480.237C525.555 486.784 523.331 493.537 520.548 500.007C516.458 509.517 511.103 518.644 505.455 527.297C505.44 533.379 505.513 539.46 505.672 545.539C503.833 547.808 501.647 551.249 498.503 551.636C495.695 551.982 493.649 549.865 491.682 548.211C490.376 541.36 490.105 532.262 490.903 525.309C491.353 521.389 493.504 517.628 494.391 513.773C499.028 493.623 505.079 473.651 511.39 453.959C514.598 443.947 518.21 433.973 521.089 423.867C514.769 427.816 507.744 432.297 499.918 430.552C493.529 429.128 488.664 423.704 484.578 418.915C480.309 432.335 477.381 446.002 474.388 459.747C471.691 472.136 468.641 485.159 467.856 497.84C467.174 508.856 468.982 529.988 474.011 539.715C476.578 544.681 479.918 549.263 482.797 554.055L506.589 593.226C515.38 587.238 524.36 581.916 533.914 577.269C558.564 566.69 583.545 554.671 611.186 557.832C615.584 558.335 620.427 558.938 624.515 560.752C625.545 561.209 626.152 561.53 626.581 562.601C625.53 563.75 624.35 563.877 622.82 563.962C616.201 564.333 609.524 562.939 602.895 563.298C584.115 564.316 566.111 569.73 548.998 577.301C545.762 578.732 541.825 580.195 538.964 582.262C524.122 588.889 508.943 596.326 498.598 609.29C504.49 608.338 510.73 608.096 516.436 606.297C541.127 602.657 571.612 607.334 591.959 622.403C593.457 623.513 594.555 624.584 595.539 626.163L595.503 627.287C594.643 627.889 594.879 627.986 593.727 627.76C588.678 626.765 582.994 623.401 578.27 621.29C566.137 615.868 551.899 611.932 538.599 611.515C525.331 609.769 508.637 612.381 496.248 617.42C485.533 621.778 475.428 628.558 465.78 634.866C448.256 646.322 430.821 658.972 411.987 668.162C398.197 674.89 378.943 675.9 367.494 684.582C362.431 688.421 357.634 693.763 353.953 698.947C355.875 700.022 357.937 701.022 359.776 702.223C367.512 707.848 374.867 713.825 379.431 722.423C387.188 737.033 386.098 748.049 381.353 763.263C385.952 763.947 390.451 764.494 395.108 764.42C410.913 764.172 430.717 757.2 445.992 752.384C495.059 736.912 551.771 714.524 593.145 683.628C603.09 676.068 612.449 667.765 621.14 658.791C661.08 617.934 695.727 539.912 704.798 483.889C708.379 461.776 709.131 437.841 704.668 415.803C702.3 404.107 698.664 392.063 693.85 381.164C691.558 375.975 681.112 357.902 681.079 354.812L681.617 354.362C683.814 354.616 685.007 355.854 686.421 357.447C688.969 360.317 691.01 363.791 693.091 367.009C710.837 394.458 715.761 429.375 713.956 461.5C710.231 527.761 672.359 613.969 626.966 661.934C619.192 670.148 610.824 678.321 601.8 685.146C595.545 689.877 588.473 693.972 582.683 699.233L582.157 699.717C585.05 716.724 590.393 733.893 595.577 750.339C606.849 786.098 620.692 827.02 643.341 857.281C648.165 863.725 654.35 868.877 660.154 874.394C689.074 870.777 727.066 853.34 752.45 839.42C774.422 827.372 819.189 799.478 826.139 774.943C832.623 752.056 819.255 747.365 809.877 730.114C803.841 719.012 799.634 706.475 796.678 694.189C790.262 667.52 788.543 640.122 785.731 612.93C777.309 531.475 769.631 470.529 728.512 397.469C710.823 366.039 676.577 322.171 640.831 312.198C622.797 320.138 606.141 334.962 592.926 349.424C575.669 368.311 552.93 392.886 542.508 416.202C540.281 421.185 539.328 426.567 538.263 431.891C531.068 467.832 536.089 504.737 537.765 540.946C540.496 537.509 542.679 533.322 545.126 529.649C561.255 505.873 580.128 484.081 601.356 464.721C605.664 460.727 611.026 454.437 616.911 453.26L617.625 453.759C616.779 458.6 601.22 472.481 597.057 476.902C576.699 498.526 557.172 521.477 542.324 547.3ZM357.274 708.897C354.572 706.306 352.428 705.657 348.8 704.925L348.313 705.172C342.614 708.008 317.136 717.041 314.506 721.418C316.609 722.572 318.873 723.633 320.737 725.149C331.722 733.873 340.442 747.949 339.231 762.39C339.039 764.678 337.351 769.414 338.265 771.266C340.041 772.64 341.851 773.011 344.083 773.037C349.798 773.103 369.402 765.973 373.11 761.959C376.929 757.826 378.188 748.891 377.774 743.543C376.582 728.13 368.468 718.607 357.274 708.897ZM349.401 170.667C332.341 173.454 320.9 185.089 311.112 198.769C293.349 223.594 286.515 252.222 285.211 282.275C311.935 268.572 327.881 253.399 337.279 224.154C338.156 221.428 338.981 218.623 339.377 215.783C339.862 212.3 339.697 207.429 341.044 204.198C341.404 203.336 341.985 202.844 342.835 202.413C343.276 202.19 344.012 202.031 344.504 201.909C347.232 203.709 349.57 216.747 350.957 220.502C356.507 235.529 363.381 247.905 375.684 258.468C392.65 271.824 414.234 277.877 435.671 275.291C442.846 274.451 449.881 273.1 457.098 272.518C458.153 271.263 458.997 270.081 460.546 269.412C461.471 269.497 461.438 269.304 462.099 270.095C465.681 274.376 467.264 283.427 469.989 288.75C473.564 278.277 476.831 267.155 477.358 256.06C477.49 253.288 476.561 247.86 478.837 246.017L480.649 245.769C480.183 241.417 447.232 213.975 442.434 210.115C418.638 190.968 381.342 167.866 350.029 170.591C349.819 170.609 349.61 170.642 349.401 170.667ZM344.273 221.311C341.199 233.221 336.632 246.758 328.395 256.142C329.38 271.848 333.76 299.264 345.881 309.942C355.399 318.326 374.272 326.551 379.381 338.192C381.236 342.418 382.397 347.326 383.287 351.842C383.782 354.355 384.936 366.264 386.093 367.557C386.748 368.288 388.173 368.369 389.065 368.29C393.418 367.908 399.614 363.538 402.436 360.219C404.99 357.214 401.868 353.998 404.226 352.49C406.123 352.398 407.491 352.845 408.913 354.11C409.892 354.981 410.589 356.339 410.676 357.66C410.859 360.452 405.962 365.266 404.082 367.262C407.563 371.211 410.96 375.312 414.717 379C417.976 375.426 425.827 365.958 430.238 364.817L431.154 365.223C431.601 366.967 431.27 367.879 430.349 369.418C428.457 372.582 425.426 375.192 422.966 377.923C429.638 383.626 441.619 391.876 449.745 394.958C451.049 395.452 452.346 395.974 453.642 396.49C456.481 395.735 459.369 395.038 462.001 393.702C473.477 387.874 486.238 373.425 492.857 362.365C494.107 360.277 496.177 354.678 498.766 354.309C500.222 354.088 501.697 354.56 502.755 355.585C506.564 359.22 511.26 368.337 511.563 373.58C510.999 374.627 511.036 374.717 509.953 375.167C508.329 374.706 507.441 373.617 506.3 372.453C504.937 372.668 504.456 373.16 503.604 374.248C499.166 379.919 497.44 385.622 498.374 392.728C499.35 395.453 500.134 397.8 502.957 399.046C506.379 400.556 510.154 399.544 513.405 398.105C517.795 396.161 528.546 390.775 530.121 386.166C532.761 378.441 529.308 328.357 526.127 321.315C525.82 320.635 525.749 320.597 525.348 320.097C518.644 320.237 499 332.711 493.486 328.023C491.114 323.341 494.828 315.222 495.132 310.134C495.508 303.855 494.251 294.621 491.935 288.815C489.469 288.144 486.691 287.886 485.329 285.527C485.806 283.723 486.598 283.13 488.18 282.217C493.042 279.413 495.437 277.15 496.956 271.416C497.415 269.684 497.457 267.982 497.445 266.201C493.564 260.257 489.271 254.845 484.552 249.553C485.302 260.807 480.571 287.227 473.318 295.802C472.543 296.719 471.819 297.151 470.694 297.521C468.559 297.267 467.655 296.54 466.308 294.887C462.186 289.831 459.882 283.877 457.817 277.772C433.936 285.448 406.202 283.551 383.836 272.161C364.893 262.515 351.921 245.113 345.494 225.095C345.116 223.919 344.452 222.502 344.273 221.311ZM322.766 263.868C318.257 269.403 311.751 274.117 305.989 278.364C308.583 282.132 320.208 322.068 321.187 327.682C321.961 332.118 322.134 336.209 321.309 340.652C320.4 345.55 318.583 350.462 315.665 354.517C331.998 350.222 339.233 346.726 347.919 331.802C348.221 331.283 348.48 330.853 348.855 330.381C356.597 338.345 357.88 345.217 358.428 355.851C365.484 349.565 367.369 345.795 369.942 336.79C348.061 317.604 335.368 318.836 326.719 287.514C324.943 281.085 324.795 268.314 322.766 263.868ZM503.103 273.34C501.101 277.448 498.863 280.854 496.048 284.436C502.602 294.284 502.986 309.442 500.697 320.727C500.593 321.25 500.482 321.772 500.367 322.293C504.184 321.218 507.971 320.179 511.646 318.667C515.768 316.818 519.899 314.989 524.04 313.181C520.338 302.804 510.816 281.324 503.103 273.34ZM499.605 363.279C490.824 377.659 481.107 389.589 467.172 399.336C467.15 399.489 467.132 399.644 467.107 399.797C466.046 406.25 453.13 428.018 449.557 435.517C432.686 470.922 418.295 508.703 413.985 547.93C413.543 551.956 411.65 565.041 413.076 568.113C413.523 569.076 414.55 569.704 415.563 569.876C416.941 570.11 418.055 569.682 419.071 568.785C419.297 568.587 419.574 568.429 419.735 568.175C420.655 566.729 421.161 555.696 421.574 553.091C422.601 546.626 424.046 540.158 425.402 533.75C428.763 518.494 433.161 503.484 438.565 488.826C442.808 477.605 447.759 466.676 451.523 455.272C455.677 442.685 457.712 428.143 462.413 416.114C463.37 413.664 465.149 410.374 467.662 409.258C468.497 409.42 468.468 409.209 468.819 409.884C471.495 415.033 465.151 431.203 463.546 437.112C460.932 447.967 457.886 458.876 455.819 469.841C448.328 509.572 446.923 550.108 449.184 590.408C449.842 602.14 450.935 614.047 452.117 625.743C452.419 628.732 453.008 631.701 453.218 634.695C454.713 633.826 456.161 632.992 457.753 632.312C459.084 631.743 459.802 631.138 460.32 629.729C460.321 629.726 455.269 582.243 455.041 575.991C454.276 558.208 454.82 540.393 456.671 522.69C458.783 503.422 463.114 482.212 466.873 463.069C469.987 447.213 474.258 431.604 478.408 415.998C481.355 404.913 483.252 391.158 489.571 381.469C490.986 379.299 501.281 366.845 501.279 365.8C501.279 365.643 500.669 364.459 500.645 364.422C500.41 364.068 499.914 363.592 499.605 363.279ZM491.229 394.902C489.049 400.371 487.838 406.09 486.67 411.845C491.764 417.861 495.841 422.52 503.536 425.202C510.653 423.845 518.099 418.196 523.677 413.683C525.967 407.979 528.405 402.062 529.773 396.062C521.981 400.574 510.946 408.475 501.433 405.798C497.917 404.808 494.997 402.554 493.325 399.306C492.645 397.983 492.171 396.504 491.477 395.214C491.414 395.097 491.311 395.006 491.229 394.902ZM531.959 410.251L506.748 493.173C505.391 497.69 498.664 518.195 498.605 520.915C499.49 521.625 499.766 521.725 500.948 521.757C501.01 521.758 501.068 521.728 501.128 521.714C512.537 505.766 524.881 473.268 528.969 454.19C530.002 449.37 530.327 444.378 531.055 439.504C532.05 432.854 533.725 425.923 535.737 419.501C534.661 416.333 533.312 413.308 531.959 410.251ZM463.228 523.989C462.184 528.483 462.157 533.399 461.834 538C460.308 559.683 461.602 580.108 464.003 601.676C464.897 609.698 465.661 617.864 467.029 625.814C473.732 621.767 480.704 618.12 487.348 614.003C493.219 609.583 495.174 601.642 500.751 596.676C492.597 583.143 484.045 569.871 475.844 556.369C472.413 550.721 467.761 544.471 465.607 538.213C464.03 533.635 464.398 528.642 463.228 523.989ZM496.105 527.117C496.019 532.38 495.406 538.4 496.723 543.507L497.511 544.294L499.031 543.699C499.816 538.967 501.086 532.456 499.007 527.998C498.066 527.282 497.244 527.268 496.105 527.117ZM415.523 576.315C415.441 580.019 414.284 590.397 416.531 592.918L418.151 592.876C418.424 587.926 419.472 581.552 417.624 576.892C416.906 576.599 416.29 576.431 415.523 576.315ZM576.062 702.398C566.279 708.894 556.061 714.71 545.48 719.804C539.77 722.609 533.629 725.002 528.163 728.233C530.751 739.55 532.109 751.097 533.994 762.545C537.096 781.599 540.556 800.593 544.373 819.517C545.389 824.399 546.116 832.126 548.226 836.331C554.125 839.871 565.75 838.629 572.462 838.555C586.639 838.569 606.552 837.975 619.78 833.147C617.147 824.662 612.251 816.696 608.881 808.445C601.996 791.566 595.956 774.354 590.785 756.873C588.602 749.7 586.334 742.512 584.45 735.254C583.033 729.793 578.139 705.319 576.571 702.627L576.062 702.398ZM264.702 708.444C252.566 715.072 236.206 748.229 226.829 750.365C225.551 753.321 227.873 757.922 229.009 760.795C231.2 766.335 239.092 787.824 244.184 789.772C251.097 792.418 273.899 794.771 280.495 791.459C281.211 791.099 281.218 790.75 281.549 790.076C280.766 788.668 279.969 788.273 278.425 787.823C266.044 784.214 252.439 787.494 244.667 774.326C241.585 769.104 237.711 758.957 239.492 752.949C239.91 751.538 240.814 750.352 242.236 749.839C242.736 749.659 243.235 749.629 243.753 749.571C249.716 756.263 243.284 777.192 265.577 778.576C268.796 778.776 272.025 778.69 275.212 779.228C278.363 778.571 281.577 777.8 283.506 775.011C283.79 774.601 283.811 774.018 283.898 773.54C283.071 772.519 282.483 772.289 281.157 772.151C278.377 771.861 272.77 772.711 270.598 774.543C270.457 774.662 270.339 774.805 270.21 774.935C266.583 774.959 263.567 773 261.065 770.529C256.914 766.43 250.632 757.653 250.737 751.865C250.771 750.032 251.083 747.974 252.462 746.644C253.16 745.969 253.357 746.054 254.256 745.872C256.194 746.639 256.942 748.131 257.763 749.958C258.836 752.347 259.245 754.905 260.142 757.344C261.516 761.082 266.245 764.668 269.214 767.172C275.495 764.844 279.364 764.458 285.684 767.385C288.843 768.848 291.874 770.658 295.102 771.961C303.966 775.538 313.895 774.998 322.774 771.826C325.888 770.713 329.055 769.319 331.923 767.67C333.42 756.938 331.259 748.196 324.742 739.467C322.161 736.009 319.253 733.011 315.718 730.526C308.307 725.315 275.201 709.643 267.229 708.425C266.384 708.296 265.734 708.346 264.887 708.429C264.826 708.435 264.764 708.439 264.702 708.444ZM522.105 731.481C514.198 734.452 496.542 740.879 490.339 745.334C493.938 753.851 495.571 769.412 497.954 779.166C504.415 805.621 511.986 823.047 524.524 846.957C527.503 851.779 530.454 856.602 533.698 861.252C536.511 853.804 538.763 846.081 541.819 838.742C536.458 828.706 524.742 752.979 523.676 738.016C523.546 736.198 523.993 732.11 522.105 731.481ZM482.446 746.513C480.752 747.029 479.186 747.312 478 748.726C476.41 753.055 479.235 759.282 480.092 763.703C484.597 786.93 490.087 809.134 500.088 830.719C507.444 846.595 517.013 861.514 527.619 875.416L528.223 875.751C529.507 873.4 530.315 870.864 531.205 868.344C525.986 863.441 522.796 857.433 519.195 851.31C503.448 824.145 492.665 794.391 487.353 763.443C486.963 761.259 484.664 746.908 483.865 746.535C483.436 746.334 482.919 746.52 482.446 746.513ZM815.323 802.367C809.784 809.097 802.567 814.39 795.614 819.575C764.733 842.607 729.608 859.595 693.384 872.413C684.153 875.679 674.473 877.362 665.199 880.461C668.906 887.608 673.521 894.151 678.09 900.762L687.344 913.854C700.107 911.622 712.672 907.233 724.686 902.462C751.25 891.91 773.554 879.788 795.215 860.822C801.892 854.975 808.462 848.863 813.896 841.822C814.868 831.337 816.63 812.217 815.323 802.367Z"/>
	<path fill="#FEFEFE" d="M374.006 158.177C372.099 158.958 369.693 160.736 368.258 162.224L365.095 165.035C354.019 163.653 341.38 164.211 331.225 169.296C354.09 139.255 386.199 115.6 418.357 96.2483C434.755 86.3799 471.973 65.6364 490.554 70.6317C497.456 72.4872 501.557 76.6246 505.037 82.6075C497.507 84.2008 489.905 88.0149 482.908 91.1782C453.848 104.316 426.842 120.424 400.692 138.595C391.69 144.849 382.449 151.184 374.006 158.177Z"/>
	<path fill="#9F8BE8" d="M368.258 162.224C369.693 160.736 372.099 158.958 374.006 158.177C380.103 155.933 397.68 142.006 404.257 137.458C427.797 121.014 452.69 106.598 478.669 94.3648C487.208 90.3023 496.513 85.6843 505.789 83.738C510.109 91.207 513.889 99.029 518.398 106.372C526.406 119.414 536.21 131.624 546.421 142.994C580.396 180.825 635.525 217.432 646.182 269.665C648.028 278.715 648.652 287.977 646.287 296.995C645.455 300.164 644.244 303.148 642.776 306.075C636.621 307.933 630.883 310.206 625.32 313.463C593.223 332.256 557.937 377.222 538.614 408.558C536.59 387.347 537.966 366.215 536.101 345.062C534.872 331.114 532.139 316.199 527.201 303.088C513.993 268.024 484.159 236.606 455.696 213.153C436.098 197.006 414.13 182.211 390.591 172.484C387.501 171.207 384.385 169.982 381.184 169.01C377.293 167.828 369.667 166.75 366.617 164.789C367.189 163.98 367.915 163.153 368.258 162.224Z"/>
	<path fill="#6A44D9" d="M0 136.327C8.47895 140.408 18.4423 142.971 27.408 145.987L73.8027 161.756C122.526 178.081 171.121 194.784 219.585 211.862C220.189 266.012 220.352 320.165 220.074 374.318L220.099 586.61L220.069 695.279C220.066 713.243 219.246 731.626 220.14 749.536C219.351 750.093 219.517 749.76 219.345 750.65C218.937 752.755 219.521 755.527 220.198 757.543C219.24 760.154 220.108 806.573 220.111 813.456L220.245 1024L203.409 1024L202.917 502.201L202.904 317.39L202.901 258.814C202.903 247.843 203.183 236.796 202.762 225.834C187.816 233.011 171.515 238.092 156 243.959L156.072 1024L138.904 1024L138.464 594.194C128.921 605.517 118.627 616.304 108.654 627.255L35.8048 705.752C23.7876 718.66 11.3726 731.469 0 744.944L0 720.984C7.22398 714.655 13.6713 707.023 20.241 700.013C34.2324 685.084 47.8602 669.909 61.6357 654.79L115.518 596.739C123.135 588.576 130.994 580.597 138.399 572.242L138.434 552.995C132.715 559.623 126.488 565.896 120.579 572.365C100.747 593.997 80.6812 615.414 60.3865 636.612C40.202 657.915 20.7147 680.107 0 700.869L0 678.68C14.2344 664.998 27.4353 650.011 40.9061 635.582L110.984 560.97C120.434 550.932 129.566 540.592 139.275 530.799L138.883 242.475C124.759 237.254 109.329 234.375 94.7907 230.323L41.9258 216.109C27.9555 212.3 14.0506 208.143 0 204.648L0 188.463C19.5902 192.517 39.2285 198.523 58.5169 203.858C89.1786 212.338 119.903 220.825 150.709 228.756C162.233 223.976 174.366 220.328 186.224 216.449C166.873 210.697 147.88 203.943 128.762 197.487L66.4937 176.582C52.2939 171.736 38.0697 166.961 23.8217 162.258C15.8843 159.623 7.78469 157.224 0 154.171L0 136.327Z"/>
	<path fill="#9F8BE8" d="M0 154.171C7.78469 157.224 15.8843 159.623 23.8217 162.258C38.0697 166.961 52.2939 171.736 66.4937 176.582L128.762 197.487C147.88 203.943 166.873 210.697 186.224 216.449C174.366 220.328 162.233 223.976 150.709 228.756C119.903 220.825 89.1786 212.338 58.5169 203.858C39.2285 198.523 19.5902 192.517 0 188.463L0 154.171Z"/>
	<path fill="#543C81" d="M285.211 282.275C286.515 252.222 293.349 223.594 311.112 198.769C320.9 185.089 332.341 173.454 349.401 170.667C349.61 170.642 349.819 170.609 350.029 170.591C381.342 167.866 418.638 190.968 442.434 210.115C447.232 213.975 480.183 241.417 480.649 245.769L478.837 246.017C476.561 247.86 477.49 253.288 477.358 256.06C476.831 267.155 473.564 278.277 469.989 288.75C467.264 283.427 465.681 274.376 462.099 270.095C461.438 269.304 461.471 269.497 460.546 269.412C458.997 270.081 458.153 271.263 457.098 272.518C449.881 273.1 442.846 274.451 435.671 275.291C414.234 277.877 392.65 271.824 375.684 258.468C363.381 247.905 356.507 235.529 350.957 220.502C349.57 216.747 347.232 203.709 344.504 201.909C344.012 202.031 343.276 202.19 342.835 202.413C341.985 202.844 341.404 203.336 341.044 204.198C339.697 207.429 339.862 212.3 339.377 215.783C338.981 218.623 338.156 221.428 337.279 224.154C327.881 253.399 311.935 268.572 285.211 282.275Z"/>
	<path fill="#D7D0FA" d="M0 204.648C14.0506 208.143 27.9555 212.3 41.9258 216.109L94.7907 230.323C109.329 234.375 124.759 237.254 138.883 242.475L139.275 530.799C129.566 540.592 120.434 550.932 110.984 560.97L40.9061 635.582C27.4353 650.011 14.2344 664.998 0 678.68L0 204.648Z"/>
	<path fill="#FEFEFE" d="M328.395 256.142C336.632 246.758 341.199 233.221 344.273 221.311C344.452 222.502 345.116 223.919 345.494 225.095C351.921 245.113 364.893 262.515 383.836 272.161C406.202 283.551 433.936 285.448 457.817 277.772C459.882 283.877 462.186 289.831 466.308 294.887C467.655 296.54 468.559 297.267 470.694 297.521C471.819 297.151 472.543 296.719 473.318 295.802C480.571 287.227 485.302 260.807 484.552 249.553C489.271 254.845 493.564 260.257 497.445 266.201C497.457 267.982 497.415 269.684 496.956 271.416C495.437 277.15 493.042 279.413 488.18 282.217C486.598 283.13 485.806 283.723 485.329 285.527C486.691 287.886 489.469 288.144 491.935 288.815C494.251 294.621 495.508 303.855 495.132 310.134C494.828 315.222 491.114 323.341 493.486 328.023C499 332.711 518.644 320.237 525.348 320.097C525.749 320.597 525.82 320.635 526.127 321.315C529.308 328.357 532.761 378.441 530.121 386.166C528.546 390.775 517.795 396.161 513.405 398.105C510.154 399.544 506.379 400.556 502.957 399.046C500.134 397.8 499.35 395.453 498.374 392.728C497.44 385.622 499.166 379.919 503.604 374.248C504.456 373.16 504.937 372.668 506.3 372.453C507.441 373.617 508.329 374.706 509.953 375.167C511.036 374.717 510.999 374.627 511.563 373.58C511.26 368.337 506.564 359.22 502.755 355.585C501.697 354.56 500.222 354.088 498.766 354.309C496.177 354.678 494.107 360.277 492.857 362.365C486.238 373.425 473.477 387.874 462.001 393.702C459.369 395.038 456.481 395.735 453.642 396.49C452.346 395.974 451.049 395.452 449.745 394.958C441.619 391.876 429.638 383.626 422.966 377.923C425.426 375.192 428.457 372.582 430.349 369.418C431.27 367.879 431.601 366.967 431.154 365.223L430.238 364.817C425.827 365.958 417.976 375.426 414.717 379C410.96 375.312 407.563 371.211 404.082 367.262C405.962 365.266 410.859 360.452 410.676 357.66C410.589 356.339 409.892 354.981 408.913 354.11C407.491 352.845 406.123 352.398 404.226 352.49C401.868 353.998 404.99 357.214 402.436 360.219C399.614 363.538 393.418 367.908 389.065 368.29C388.173 368.369 386.748 368.288 386.093 367.557C384.936 366.264 383.782 354.355 383.287 351.842C382.397 347.326 381.236 342.418 379.381 338.192C374.272 326.551 355.399 318.326 345.881 309.942C333.76 299.264 329.38 271.848 328.395 256.142ZM388.319 286.895C383.878 289.977 379.534 293.313 374.986 296.229C369.889 299.499 363.976 302.224 359.436 306.251C357.987 307.537 357.569 308.008 357.172 309.884C357.7 311.591 358.176 312.276 359.798 313.086C360.444 313.408 361.112 313.693 361.775 313.98C367.605 310.56 390.654 296.742 392.526 290.406C392.313 289.098 392.319 288.696 391.157 287.867C390.422 287.343 389.202 287.006 388.319 286.895ZM399.81 308.753L399.309 309.257C395.163 313.353 390.137 315.576 384.853 317.847C383.746 318.322 381.735 318.879 380.857 319.59C380.145 320.166 380.231 320.246 380.253 321.067C380.28 322.061 380.433 322.418 380.925 323.241C381.158 323.269 381.392 323.294 381.625 323.323C387.17 324.035 389.745 329.15 394.34 332.03C396.632 333.328 398.189 333.852 400.808 333.231C401.449 333.079 401.81 332.827 402.264 332.364C402.587 331.022 402.401 329.995 401.612 328.825C399.381 325.518 394.894 323.69 392.164 320.727C395.494 318.349 401.216 315.395 402.767 311.535C402.619 310.458 402.654 309.897 401.568 309.32C401.172 309.11 400.261 308.879 399.81 308.753Z"/>
	<path fill="#9F8BE8" d="M156.072 1024L156 243.959C171.515 238.092 187.816 233.011 202.762 225.834C203.183 236.796 202.903 247.843 202.901 258.814L202.904 317.39L202.917 502.201L203.409 1024L156.072 1024Z"/>
	<path fill="#9F8BE8" d="M923.052 239.006C934.299 245.365 946.671 250.277 958.379 255.757L1024 286.761L1024 1024L923.111 1024L923.052 239.006Z"/>
	<path fill="#543C81" d="M305.989 278.364C311.751 274.117 318.257 269.403 322.766 263.868C324.795 268.314 324.943 281.085 326.719 287.514C335.368 318.836 348.061 317.604 369.942 336.79C367.369 345.795 365.484 349.565 358.428 355.851C357.88 345.217 356.597 338.345 348.855 330.381C348.48 330.853 348.221 331.283 347.919 331.802C339.233 346.726 331.998 350.222 315.665 354.517C318.583 350.462 320.4 345.55 321.309 340.652C322.134 336.209 321.961 332.118 321.187 327.682C320.208 322.068 308.583 282.132 305.989 278.364Z"/>
	<path fill="#543C81" d="M496.048 284.436C498.863 280.854 501.101 277.448 503.103 273.34C510.816 281.324 520.338 302.804 524.04 313.181C519.899 314.989 515.768 316.818 511.646 318.667C507.971 320.179 504.184 321.218 500.367 322.293C500.482 321.772 500.593 321.25 500.697 320.727C502.986 309.442 502.602 294.284 496.048 284.436Z"/>
	<path d="M361.775 313.98C361.112 313.693 360.444 313.408 359.798 313.086C358.176 312.276 357.7 311.591 357.172 309.884C357.569 308.008 357.987 307.537 359.436 306.251C363.976 302.224 369.889 299.499 374.986 296.229C379.534 293.313 383.878 289.977 388.319 286.895C389.202 287.006 390.422 287.343 391.157 287.867C392.319 288.696 392.313 289.098 392.526 290.406C390.654 296.742 367.605 310.56 361.775 313.98Z"/>
	<path d="M394.34 332.03C389.745 329.15 387.17 324.035 381.625 323.323C381.392 323.294 381.158 323.269 380.925 323.241C380.433 322.418 380.28 322.061 380.253 321.067C380.231 320.246 380.145 320.166 380.857 319.59C381.735 318.879 383.746 318.322 384.853 317.847C390.137 315.576 395.163 313.353 399.309 309.257L399.81 308.753C400.261 308.879 401.172 309.11 401.568 309.32C402.654 309.897 402.619 310.458 402.767 311.535C401.216 315.395 395.494 318.349 392.164 320.727C394.894 323.69 399.381 325.518 401.612 328.825C402.401 329.995 402.587 331.022 402.264 332.364C401.81 332.827 401.449 333.079 400.808 333.231C398.189 333.852 396.632 333.328 394.34 332.03Z"/>
	<path fill="#9F8BE8" d="M542.324 547.3C557.172 521.477 576.699 498.526 597.057 476.902C601.22 472.481 616.779 458.6 617.625 453.759L616.911 453.26C611.026 454.437 605.664 460.727 601.356 464.721C580.128 484.081 561.255 505.873 545.126 529.649C542.679 533.322 540.496 537.509 537.765 540.946C536.089 504.737 531.068 467.832 538.263 431.891C539.328 426.567 540.281 421.185 542.508 416.202C552.93 392.886 575.669 368.311 592.926 349.424C606.141 334.962 622.797 320.138 640.831 312.198C676.577 322.171 710.823 366.039 728.512 397.469C769.631 470.529 777.309 531.475 785.731 612.93C788.543 640.122 790.262 667.52 796.678 694.189C799.634 706.475 803.841 719.012 809.877 730.114C819.255 747.365 832.623 752.056 826.139 774.943C819.189 799.478 774.422 827.372 752.45 839.42C727.066 853.34 689.074 870.777 660.154 874.394C654.35 868.877 648.165 863.725 643.341 857.281C620.692 827.02 606.849 786.098 595.577 750.339C590.393 733.893 585.05 716.724 582.157 699.717L582.683 699.233C588.473 693.972 595.545 689.877 601.8 685.146C610.824 678.321 619.192 670.148 626.966 661.934C672.359 613.969 710.231 527.761 713.956 461.5C715.761 429.375 710.837 394.458 693.091 367.009C691.01 363.791 688.969 360.317 686.421 357.447C685.007 355.854 683.814 354.616 681.617 354.362L681.079 354.812C681.112 357.902 691.558 375.975 693.85 381.164C698.664 392.063 702.3 404.107 704.668 415.803C709.131 437.841 708.379 461.776 704.798 483.889C695.727 539.912 661.08 617.934 621.14 658.791C612.449 667.765 603.09 676.068 593.145 683.628C551.771 714.524 495.059 736.912 445.992 752.384C430.717 757.2 410.913 764.172 395.108 764.42C390.451 764.494 385.952 763.947 381.353 763.263C386.098 748.049 387.188 737.033 379.431 722.423C374.867 713.825 367.512 707.848 359.776 702.223C365.672 699.544 377.506 688.321 384.384 683.913C384.748 684.852 385.124 685.786 385.511 686.716C395.54 690.593 406.561 692.156 416.714 695.852C422.454 697.942 427.845 702.301 434.027 702.804C435.22 702.308 435.214 702.38 435.756 701.219C435.661 700.756 435.635 700.48 435.38 700.038C430.492 691.54 405.399 687.101 396.314 683.429C396.173 683.372 396.033 683.312 395.892 683.254C399.721 682.242 403.661 681.505 407.394 680.169C424.999 673.871 441.028 663.256 456.74 653.345C470.022 644.966 483.647 636.476 497.504 629.085C506.135 624.481 515.143 618.915 524.236 615.384C528.791 613.615 534.311 613.73 538.599 611.515C551.899 611.932 566.137 615.868 578.27 621.29C582.994 623.401 588.678 626.765 593.727 627.76C594.879 627.986 594.643 627.889 595.503 627.287L595.539 626.163C594.555 624.584 593.457 623.513 591.959 622.403C571.612 607.334 541.127 602.657 516.436 606.297C521.507 600.891 537.727 588.785 538.964 582.262C541.825 580.195 545.762 578.732 548.998 577.301C566.111 569.73 584.115 564.316 602.895 563.298C609.524 562.939 616.201 564.333 622.82 563.962C624.35 563.877 625.53 563.75 626.581 562.601C626.152 561.53 625.545 561.209 624.515 560.752C620.427 558.938 615.584 558.335 611.186 557.832C583.545 554.671 558.564 566.69 533.914 577.269C536.487 572.69 542.176 552.737 542.324 547.3ZM650.278 339.202C630.306 341.433 613.72 355.898 601.633 371.113C595.876 378.361 572.176 412.969 573.715 421.333C573.854 422.086 574.368 422.275 574.923 422.734C575.686 422.802 576.455 422.967 577.205 422.787C591.095 397.075 601.063 376.879 624.062 357.339C628.448 353.643 633.268 350.497 638.415 347.969C642.012 346.208 651.953 343.961 653.909 340.91C653.457 339.873 653.089 339.503 651.921 339.216C651.467 339.104 650.751 339.175 650.278 339.202ZM632.559 385.907C601.143 404.88 569.827 444.397 560.975 480.364C560.427 482.589 559.786 485.979 560.834 488.132C561.236 488.957 561.895 489.523 562.563 490.121C563.354 489.459 564.146 488.755 564.618 487.82C566.775 483.546 567.907 478.289 569.593 473.773C572.97 464.582 577.192 455.725 582.206 447.315C590.304 433.551 601.583 420.477 612.784 409.19C616.17 405.777 633.103 390.39 634.398 388.026L634.34 386.85C633.64 386.319 633.449 386.041 632.559 385.907ZM665.677 617.249C664.677 619.899 665.647 621.96 666.776 624.441C688.789 672.823 747.284 735.922 798.139 754.521C801.695 755.822 806.959 757.867 810.783 757.417L811.331 756.001C809.992 753.797 798.184 748.914 795.368 747.536C759.382 729.924 728.975 700.941 704.103 669.931C696.938 660.998 689.932 651.567 683.602 642.02C679.059 635.165 674.936 627.956 670.087 621.316C669.118 619.99 667.823 617.822 666.169 617.341C666.009 617.294 665.841 617.279 665.677 617.249ZM616.669 682.255C615.996 684.663 616.46 685.607 617.648 687.751C621.793 695.237 626.446 702.581 631.65 709.371C652.618 736.731 696.659 778.625 730.298 787.78C731.114 788.002 731.887 788.133 732.721 788.262C732.823 787.158 733.035 786.753 732.277 785.85C728.711 781.601 715.669 775.535 710.116 771.863C703.84 767.713 697.707 763.279 691.665 758.796C673.36 745.216 657.089 728.762 642.051 711.698C636.962 705.924 632.168 699.826 627.521 693.694C625.082 690.475 622.639 686.496 619.798 683.66C618.882 682.746 617.875 682.527 616.669 682.255Z"/>
	<path d="M577.205 422.787C576.455 422.967 575.686 422.802 574.923 422.734C574.368 422.275 573.854 422.086 573.715 421.333C572.176 412.969 595.876 378.361 601.633 371.113C613.72 355.898 630.306 341.433 650.278 339.202C650.751 339.175 651.467 339.104 651.921 339.216C653.089 339.503 653.457 339.873 653.909 340.91C651.953 343.961 642.012 346.208 638.415 347.969C633.268 350.497 628.448 353.643 624.062 357.339C601.063 376.879 591.095 397.075 577.205 422.787Z"/>
	<path fill="#FEFEFE" d="M467.172 399.336C481.107 389.589 490.824 377.659 499.605 363.279C499.914 363.592 500.41 364.068 500.645 364.422C500.669 364.459 501.279 365.643 501.279 365.8C501.281 366.845 490.986 379.299 489.571 381.469C483.252 391.158 481.355 404.913 478.408 415.998C474.258 431.604 469.987 447.213 466.873 463.069C463.114 482.212 458.783 503.422 456.671 522.69C454.82 540.393 454.276 558.208 455.041 575.991C455.269 582.243 460.321 629.726 460.32 629.729C459.802 631.138 459.084 631.743 457.753 632.312C456.161 632.992 454.713 633.826 453.218 634.695C453.008 631.701 452.419 628.732 452.117 625.743C450.935 614.047 449.842 602.14 449.184 590.408C446.923 550.108 448.328 509.572 455.819 469.841C457.886 458.876 460.932 447.967 463.546 437.112C465.151 431.203 471.495 415.033 468.819 409.884C468.468 409.209 468.497 409.42 467.662 409.258C465.149 410.374 463.37 413.664 462.413 416.114C457.712 428.143 455.677 442.685 451.523 455.272C447.759 466.676 442.808 477.605 438.565 488.826C433.161 503.484 428.763 518.494 425.402 533.75C424.046 540.158 422.601 546.626 421.574 553.091C421.161 555.696 420.655 566.729 419.735 568.175C419.574 568.429 419.297 568.587 419.071 568.785C418.055 569.682 416.941 570.11 415.563 569.876C414.55 569.704 413.523 569.076 413.076 568.113C411.65 565.041 413.543 551.956 413.985 547.93C418.295 508.703 432.686 470.922 449.557 435.517C453.13 428.018 466.046 406.25 467.107 399.797C467.132 399.644 467.15 399.489 467.172 399.336Z"/>
	<path d="M562.563 490.121C561.895 489.523 561.236 488.957 560.834 488.132C559.786 485.979 560.427 482.589 560.975 480.364C569.827 444.397 601.143 404.88 632.559 385.907C633.449 386.041 633.64 386.319 634.34 386.85L634.398 388.026C633.103 390.39 616.17 405.777 612.784 409.19C601.583 420.477 590.304 433.551 582.206 447.315C577.192 455.725 572.97 464.582 569.593 473.773C567.907 478.289 566.775 483.546 564.618 487.82C564.146 488.755 563.354 489.459 562.563 490.121Z"/>
	<path fill="#FEFEFE" d="M486.67 411.845C487.838 406.09 489.049 400.371 491.229 394.902C491.311 395.006 491.414 395.097 491.477 395.214C492.171 396.504 492.645 397.983 493.325 399.306C494.997 402.554 497.917 404.808 501.433 405.798C510.946 408.475 521.981 400.574 529.773 396.062C528.405 402.062 525.967 407.979 523.677 413.683C518.099 418.196 510.653 423.845 503.536 425.202C495.841 422.52 491.764 417.861 486.67 411.845Z"/>
	<path fill="#FEFEFE" d="M501.128 521.714C501.068 521.728 501.01 521.758 500.948 521.757C499.766 521.725 499.49 521.625 498.605 520.915C498.664 518.195 505.391 497.69 506.748 493.173L531.959 410.251C533.312 413.308 534.661 416.333 535.737 419.501C533.725 425.923 532.05 432.854 531.055 439.504C530.327 444.378 530.002 449.37 528.969 454.19C524.881 473.268 512.537 505.766 501.128 521.714Z"/>
	<path fill="#FEFEFE" d="M533.58 548.407C533.503 548.511 533.425 548.613 533.351 548.717L532.982 549.241C529.43 554.192 526.965 562.155 525.589 568.11C524.843 571.341 523.622 576.072 525.497 579.051L526.506 579.268C530.991 576.673 532.652 566.629 534.282 561.933C535.812 557.526 538.07 549.368 542.324 547.3C542.176 552.737 536.487 572.69 533.914 577.269C524.36 581.916 515.38 587.238 506.589 593.226L482.797 554.055C479.918 549.263 476.578 544.681 474.011 539.715C468.982 529.988 467.174 508.856 467.856 497.84C468.641 485.159 471.691 472.136 474.388 459.747C477.381 446.002 480.309 432.335 484.578 418.915C488.664 423.704 493.529 429.128 499.918 430.552C507.744 432.297 514.769 427.816 521.089 423.867C518.21 433.973 514.598 443.947 511.39 453.959C505.079 473.651 499.028 493.623 494.391 513.773C493.504 517.628 491.353 521.389 490.903 525.309C490.105 532.262 490.376 541.36 491.682 548.211C493.649 549.865 495.695 551.982 498.503 551.636C501.647 551.249 503.833 547.808 505.672 545.539C505.513 539.46 505.44 533.379 505.455 527.297C511.103 518.644 516.458 509.517 520.548 500.007C523.331 493.537 525.555 486.784 528.178 480.237C529.657 502.746 528.274 526.364 533.58 548.407Z"/>
	<path fill="#543C81" d="M467.029 625.814C465.661 617.864 464.897 609.698 464.003 601.676C461.602 580.108 460.308 559.683 461.834 538C462.157 533.399 462.184 528.483 463.228 523.989C464.398 528.642 464.03 533.635 465.607 538.213C467.761 544.471 472.413 550.721 475.844 556.369C484.045 569.871 492.597 583.143 500.751 596.676C495.174 601.642 493.219 609.583 487.348 614.003C480.704 618.12 473.732 621.767 467.029 625.814Z"/>
	<path fill="#FEFEFE" d="M499.031 543.699L497.511 544.294L496.723 543.507C495.406 538.4 496.019 532.38 496.105 527.117C497.244 527.268 498.066 527.282 499.007 527.998C501.086 532.456 499.816 538.967 499.031 543.699Z"/>
	<path fill="#D7D0FA" d="M0 700.869C20.7147 680.107 40.202 657.915 60.3865 636.612C80.6812 615.414 100.747 593.997 120.579 572.365C126.488 565.896 132.715 559.623 138.434 552.995L138.399 572.242C130.994 580.597 123.135 588.576 115.518 596.739L61.6357 654.79C47.8602 669.909 34.2324 685.084 20.241 700.013C13.6713 707.023 7.22398 714.655 0 720.984L0 700.869Z"/>
	<path fill="#FEFEFE" d="M418.151 592.876L416.531 592.918C414.284 590.397 415.441 580.019 415.523 576.315C416.29 576.431 416.906 576.599 417.624 576.892C419.472 581.552 418.424 587.926 418.151 592.876Z"/>
	<path fill="#FEFEFE" d="M498.598 609.29C508.943 596.326 524.122 588.889 538.964 582.262C537.727 588.785 521.507 600.891 516.436 606.297C510.73 608.096 504.49 608.338 498.598 609.29Z"/>
	<path fill="#D7D0FA" d="M0 744.944C11.3726 731.469 23.7876 718.66 35.8048 705.752L108.654 627.255C118.627 616.304 128.921 605.517 138.464 594.194L138.904 1024L0 1024L0 744.944Z"/>
	<path fill="#FEFEFE" d="M353.953 698.947C357.634 693.763 362.431 688.421 367.494 684.582C378.943 675.9 398.197 674.89 411.987 668.162C430.821 658.972 448.256 646.322 465.78 634.866C475.428 628.558 485.533 621.778 496.248 617.42C508.637 612.381 525.331 609.769 538.599 611.515C534.311 613.73 528.791 613.615 524.236 615.384C515.143 618.915 506.135 624.481 497.504 629.085C483.647 636.476 470.022 644.966 456.74 653.345C441.028 663.256 424.999 673.871 407.394 680.169C403.661 681.505 399.721 682.242 395.892 683.254L395.461 683.267C391.681 683.352 387.904 682.113 384.384 683.913C377.506 688.321 365.672 699.544 359.776 702.223C357.937 701.022 355.875 700.022 353.953 698.947Z"/>
	<path d="M810.783 757.417C806.959 757.867 801.695 755.822 798.139 754.521C747.284 735.922 688.789 672.823 666.776 624.441C665.647 621.96 664.677 619.899 665.677 617.249C665.841 617.279 666.009 617.294 666.169 617.341C667.823 617.822 669.118 619.99 670.087 621.316C674.936 627.956 679.059 635.165 683.602 642.02C689.932 651.567 696.938 660.998 704.103 669.931C728.975 700.941 759.382 729.924 795.368 747.536C798.184 748.914 809.992 753.797 811.331 756.001L810.783 757.417Z"/>
	<path d="M732.721 788.262C731.887 788.133 731.114 788.002 730.298 787.78C696.659 778.625 652.618 736.731 631.65 709.371C626.446 702.581 621.793 695.237 617.648 687.751C616.46 685.607 615.996 684.663 616.669 682.255C617.875 682.527 618.882 682.746 619.798 683.66C622.639 686.496 625.082 690.475 627.521 693.694C632.168 699.826 636.962 705.924 642.051 711.698C657.089 728.762 673.36 745.216 691.665 758.796C697.707 763.279 703.84 767.713 710.116 771.863C715.669 775.535 728.711 781.601 732.277 785.85C733.035 786.753 732.823 787.158 732.721 788.262Z"/>
	<path d="M384.384 683.913C387.904 682.113 391.681 683.352 395.461 683.267L395.892 683.254C396.033 683.312 396.173 683.372 396.314 683.429C405.399 687.101 430.492 691.54 435.38 700.038C435.635 700.48 435.661 700.756 435.756 701.219C435.214 702.38 435.22 702.308 434.027 702.804C427.845 702.301 422.454 697.942 416.714 695.852C406.561 692.156 395.54 690.593 385.511 686.716C385.124 685.786 384.748 684.852 384.384 683.913Z"/>
	<path fill="#FEFEFE" d="M528.163 728.233C533.629 725.002 539.77 722.609 545.48 719.804C556.061 714.71 566.279 708.894 576.062 702.398L576.571 702.627C578.139 705.319 583.033 729.793 584.45 735.254C586.334 742.512 588.602 749.7 590.785 756.873C595.956 774.354 601.996 791.566 608.881 808.445C612.251 816.696 617.147 824.662 619.78 833.147C606.552 837.975 586.639 838.569 572.462 838.555C565.75 838.629 554.125 839.871 548.226 836.331C546.116 832.126 545.389 824.399 544.373 819.517C540.556 800.593 537.096 781.599 533.994 762.545C532.109 751.097 530.751 739.55 528.163 728.233Z"/>
	<path fill="#FEFEFE" d="M357.274 708.897C353.397 711.18 348.87 712.654 344.726 714.399C336.671 717.793 328.511 721.15 320.737 725.149C318.873 723.633 316.609 722.572 314.506 721.418C317.136 717.041 342.614 708.008 348.313 705.172L348.8 704.925C352.428 705.657 354.572 706.306 357.274 708.897Z"/>
	<path fill="#FEFEFE" d="M275.212 779.228C272.025 778.69 268.796 778.776 265.577 778.576C243.284 777.192 249.716 756.263 243.753 749.571C243.235 749.629 242.736 749.659 242.236 749.839C240.814 750.352 239.91 751.538 239.492 752.949C237.711 758.957 241.585 769.104 244.667 774.326C252.439 787.494 266.044 784.214 278.425 787.823C279.969 788.273 280.766 788.668 281.549 790.076C281.218 790.75 281.211 791.099 280.495 791.459C273.899 794.771 251.097 792.418 244.184 789.772C239.092 787.824 231.2 766.335 229.009 760.795C227.873 757.922 225.551 753.321 226.829 750.365C236.206 748.229 252.566 715.072 264.702 708.444C264.764 708.439 264.826 708.435 264.887 708.429C265.734 708.346 266.384 708.296 267.229 708.425C275.201 709.643 308.307 725.315 315.718 730.526C319.253 733.011 322.161 736.009 324.742 739.467C331.259 748.196 333.42 756.938 331.923 767.67C329.055 769.319 325.888 770.713 322.774 771.826C313.895 774.998 303.966 775.538 295.102 771.961C291.874 770.658 288.843 768.848 285.684 767.385C279.364 764.458 275.495 764.844 269.214 767.172C266.245 764.668 261.516 761.082 260.142 757.344C259.245 754.905 258.836 752.347 257.763 749.958C256.942 748.131 256.194 746.639 254.256 745.872C253.357 746.054 253.16 745.969 252.462 746.644C251.083 747.974 250.771 750.032 250.737 751.865C250.632 757.653 256.914 766.43 261.065 770.529C263.567 773 266.583 774.959 270.21 774.935C270.339 774.805 270.457 774.662 270.598 774.543C272.77 772.711 278.377 771.861 281.157 772.151C282.483 772.289 283.071 772.519 283.898 773.54C283.811 774.018 283.79 774.601 283.506 775.011C281.577 777.8 278.363 778.571 275.212 779.228Z"/>
	<path fill="#543C81" d="M320.737 725.149C328.511 721.15 336.671 717.793 344.726 714.399C348.87 712.654 353.397 711.18 357.274 708.897C368.468 718.607 376.582 728.13 377.774 743.543C378.188 748.891 376.929 757.826 373.11 761.959C369.402 765.973 349.798 773.103 344.083 773.037C341.851 773.011 340.041 772.64 338.265 771.266C337.351 769.414 339.039 764.678 339.231 762.39C340.442 747.949 331.722 733.873 320.737 725.149Z"/>
	<path fill="#543C81" d="M490.339 745.334C496.542 740.879 514.198 734.452 522.105 731.481C523.993 732.11 523.546 736.198 523.676 738.016C524.742 752.979 536.458 828.706 541.819 838.742C538.763 846.081 536.511 853.804 533.698 861.252C530.454 856.602 527.503 851.779 524.524 846.957C511.986 823.047 504.415 805.621 497.954 779.166C495.571 769.412 493.938 753.851 490.339 745.334Z"/>
	<path fill="#FEFEFE" d="M527.619 875.416C517.013 861.514 507.444 846.595 500.088 830.719C490.087 809.134 484.597 786.93 480.092 763.703C479.235 759.282 476.41 753.055 478 748.726C479.186 747.312 480.752 747.029 482.446 746.513C482.919 746.52 483.436 746.334 483.865 746.535C484.664 746.908 486.963 761.259 487.353 763.443C492.665 794.391 503.448 824.145 519.195 851.31C522.796 857.433 525.986 863.441 531.205 868.344C530.315 870.864 529.507 873.4 528.223 875.751L527.619 875.416Z"/>
	<path fill="#9F8BE8" d="M220.245 1024L220.111 813.456C220.108 806.573 219.24 760.154 220.198 757.543C223.779 766.302 230.655 786.05 236.438 792.209C237.926 793.793 239.951 794.802 241.924 795.644C251.534 799.742 275.055 801.425 284.641 797.385C286.654 796.537 288.535 795.174 289.279 793.037C289.914 791.216 289.429 789.251 288.567 787.589C287.637 785.796 286.349 784.43 284.875 783.078C286.632 781.141 288.138 779.225 289.604 777.059C302.138 781.373 317.729 782.575 329.99 776.585C330.962 776.109 331.896 775.555 332.82 774.993C338.383 778.804 343.168 779.851 349.92 778.612C359.237 776.902 368.922 772.15 377.516 768.226C383.857 769.691 389.873 770.669 396.4 770.449C417.619 769.733 450.258 757.728 471.088 751.012C476.47 797.05 494.533 848.067 525.766 883.01C516.093 906.559 506.931 930.331 496.705 953.653C489.328 970.328 482.192 987.109 475.296 1003.99C472.632 1010.49 469.238 1017.3 467.176 1024L220.245 1024Z"/>
	<path fill="#543C81" d="M665.199 880.461C674.473 877.362 684.153 875.679 693.384 872.413C729.608 859.595 764.733 842.607 795.614 819.575C802.567 814.39 809.784 809.097 815.323 802.367C816.63 812.217 814.868 831.337 813.896 841.822C808.462 848.863 801.892 854.975 795.215 860.822C773.554 879.788 751.25 891.91 724.686 902.462C712.672 907.233 700.107 911.622 687.344 913.854L678.09 900.762C673.521 894.151 668.906 887.608 665.199 880.461Z"/>
	<path fill="#9F8BE8" d="M474.148 1024C493.21 977.398 513.637 931.491 531.822 884.513C534.183 878.412 536.926 872.435 539.175 866.297C541.992 858.61 544.209 850.649 546.854 842.891C567.284 845.575 587.181 845.569 607.54 842.201C612.728 841.343 618.31 840.486 623.229 838.597C629.946 849.39 635.78 859.925 644.738 869.164C648.562 873.108 653.982 875.813 657.334 880.133C660.402 884.089 662.489 888.926 665.132 893.185C671.057 902.899 677.71 912.15 685.034 920.859C715.045 916.565 751.498 900.264 777.048 883.811C775.407 906.128 769.988 927.269 767.217 949.166C766.182 957.345 766.936 966.053 766.455 974.35C765.926 984.07 765.349 993.787 764.723 1003.5C764.24 1010.3 763.411 1017.19 763.462 1024L610.912 1024C609.015 1017.67 605.527 1011.15 602.826 1005.1C592.199 981.308 580.056 954.33 560.968 936.013C559.183 934.301 556.716 931.753 554.144 931.791L553.474 932.727C553.451 933.837 553.641 934.623 554.193 935.599C555.97 938.74 558.868 941.617 561.069 944.487C564.902 949.526 568.507 954.733 571.873 960.095C584.544 980.097 594.415 1002.17 603.503 1024L474.148 1024Z"/>
	<path d="M603.503 1024C594.415 1002.17 584.544 980.097 571.873 960.095C568.507 954.733 564.902 949.526 561.069 944.487C558.868 941.617 555.97 938.74 554.193 935.599C553.641 934.623 553.451 933.837 553.474 932.727L554.144 931.791C556.716 931.753 559.183 934.301 560.968 936.013C580.056 954.33 592.199 981.308 602.826 1005.1C605.527 1011.15 609.015 1017.67 610.912 1024L603.503 1024Z"/>
</svg>
