<?xml version="1.0" encoding="utf-8" ?>
<svg xmlns="http://www.w3.org/2000/svg" xmlns:xlink="http://www.w3.org/1999/xlink" width="1024" height="1024">
	<path fill="#9F8BE8" d="M0 0L340.245 0L703.81 0L1024 0L1024 1024L0 1024L0 0ZM800.438 193.746C806.035 191.339 811.757 187.527 816.186 183.341C825.188 174.831 813.765 174.813 815.35 167.602C815.942 164.907 817.443 162.195 818.589 159.689C821.956 152.329 824.954 145.36 825.194 137.139C825.342 132.058 824.868 126.481 822.504 121.912C819.13 115.39 812.173 112.186 807.59 106.728C801.909 99.964 799.302 91.3101 793.087 84.8106C790.882 82.5039 788.383 80.507 785.525 79.0627C778.52 75.5215 763.949 72.482 756.09 72.3381C740.283 72.0488 727.717 76.8091 716.385 87.7499C712.402 92.2501 708.423 96.8504 703.699 100.599C700.424 103.198 696.81 105.349 693.505 107.908C683.426 115.708 681.011 125.998 681.752 138.229C682.073 143.533 685.48 162.923 688.912 166.059C689.718 166.796 690.509 166.872 691.539 166.634C693.753 166.123 695.557 163.513 696.721 161.75C700.468 178.19 711.482 196.971 725.967 206.16C731.179 209.467 737.065 210.975 742.538 213.673C729.1 211.084 721.788 209.276 709.778 217.424C701.687 222.914 695.1 230.388 688.516 237.534C678.881 247.93 669.392 258.459 660.051 269.12C654.551 275.462 649.361 282.523 643.393 288.403C627.447 282.826 610.941 276.444 596.263 267.993C592.176 265.64 588.934 262.235 584.82 259.919C582.139 247.949 576.804 236.738 566.223 229.919C560.555 226.266 554.529 224.485 547.849 223.858C547.382 221.051 546.733 218.646 545.74 215.978L545.362 214.948C547.571 212.308 550.376 209.45 549.942 205.725C549.502 201.947 545.291 199.138 542.387 197.249C539.986 195.687 537.215 194.217 535.175 192.186C530.866 187.896 528.9 181.34 526.031 176.067C524.604 173.446 522.744 171.108 520.905 168.768C520.861 162.134 517.854 156.731 513.195 152.14C503.507 142.596 487.816 139.231 474.638 139.507C470.299 139.598 465.21 140.026 461.186 141.768C455.753 144.121 452.483 149.431 447.416 152.199C440.557 155.946 431.437 156.16 425.757 161.889C422.392 165.282 421.37 168.887 421.361 173.491C411.048 184.289 405.179 194.941 405.512 210.223C405.846 225.489 413.544 238.745 424.461 249.033C432.049 256.185 441.368 261.61 450.756 266.036C442.448 267.785 444.111 265.248 436.817 264.106C426.442 262.482 416.389 259.083 406.026 257.804C375.627 254.054 354.168 271.77 338.456 295.936C324.498 317.404 314.796 341.637 306.232 365.658C277.895 445.131 257.826 531.148 240.771 613.78L232.558 652.304C230.64 661.349 228.482 670.453 227.685 679.679C226.895 688.828 227.657 697.933 229.553 706.905C235.177 733.512 251.205 772.632 274.834 787.722C278.481 790.051 286.366 794.123 290.731 793.276C291.626 793.102 291.64 792.885 292.229 792.26C294.469 784.908 294.644 776.482 295.414 768.838C296.731 755.764 297.945 742.626 299.884 729.627C306.845 731.139 312.581 733.19 318.21 737.681C332.944 749.439 345.269 785.288 368.562 781.348C369.87 779.749 370.149 777.701 370.433 775.709C371.638 767.254 371.571 758.209 372.016 749.663C372.557 739.248 373.526 728.64 373.525 718.225L383.737 534.863C385.695 501.307 385.866 467.677 389.12 434.187C390.667 418.263 393.345 402.557 396.26 386.84C398.58 374.324 400.645 361.234 404.996 349.232C406.772 361.336 408.36 373.512 410.549 385.549C414.971 409.871 420.381 434.496 421.799 459.216C422.645 473.958 420.559 488.177 418.887 502.768C417.654 513.85 416.664 524.958 415.92 536.084C414.021 564.855 414.984 593.672 413.554 622.43C412.887 635.855 410.924 649.221 408.945 662.505C405.965 682.503 402.632 702.469 396.66 721.832C395.631 724.763 394.63 727.707 393.561 730.624C406.529 739.347 427.734 746.04 442.834 750.849C438.982 789.885 437.479 829.118 438.333 868.335C438.414 871.855 438.055 883.43 439.894 885.695C440.458 886.389 440.942 886.831 441.648 887.357C441.042 892.531 437.656 896.045 435.989 900.779C432.862 909.661 427.687 936.691 433.82 944.618C437.006 948.737 442.953 949.934 447.874 950.373C454.521 950.965 461.614 950.078 468.162 948.882C468.829 953.059 469.12 958.602 472.861 961.318C480.4 966.79 500.296 965.353 509.013 963.676C513.637 962.787 517.146 961.677 520.463 958.174C543.367 958.051 566.705 958.891 588.855 952.057C593.197 950.717 598.081 949.206 601.408 945.954C603.548 943.864 604.495 941.35 604.491 938.381C604.486 934.164 603.099 929.868 599.932 926.969C592.936 920.565 565.833 919.754 554.281 914.669C547.886 911.853 542.155 906.593 536.544 902.463C532.4 899.413 528.077 896.592 523.837 893.678C526.9 853.365 536.685 813.509 544.921 774.01C547.127 764.824 548.811 755.484 550.663 746.22C557.475 711.798 563.203 677.171 567.838 642.389C570.546 622.486 573.21 602.467 574.265 582.395C575.114 565.222 575.124 548.017 574.295 530.842C575.864 529.977 577.242 529.134 578.623 527.989C582.333 519.219 565.944 429.543 563.471 415.031C572.056 418.594 580.797 421.797 590.052 423.081C599.201 424.35 609.658 423.817 617.173 417.827C623.446 412.827 626.831 404.329 627.684 396.506C630.602 369.746 606.995 337.069 590.934 316.826C604.381 324.819 632.034 346.382 647.283 346.906C659.563 347.328 695.003 318.53 704.679 309.298C709.716 333.395 718.833 355.836 720.929 380.612C722.739 401.993 721.308 423.855 719.546 445.204C718.864 453.467 716.322 463.006 717.067 471.202C717.416 475.05 719.694 478.939 721.562 482.259C719.033 557.287 719.204 632.381 722.074 707.397C722.966 730.76 723.324 754.14 723.147 777.519C722.862 791.711 722.426 805.867 721.14 820.009C720.364 828.536 716.899 843.4 717.841 850.825C714.753 856.109 690.825 875.79 685.38 879.154C681.731 881.408 677.882 883.351 674.002 885.174C666.844 888.536 648.778 895.305 651.631 905.979C652.404 908.868 654.453 911.214 657.054 912.626C669.363 919.309 688.189 918.036 701.137 913.893C713.443 909.956 724.424 902.905 736.721 899.022C747.539 895.607 759.701 895.824 770.19 891.661C773.654 890.287 777.407 887.948 779.056 884.457C781.694 878.873 779.471 869.885 777.3 864.351C776.178 861.492 774.682 859.018 772.75 856.624C774.558 851.345 776.641 845.993 778.087 840.61C782.226 825.208 784.383 808.297 786.432 792.456C790.395 765.147 792.562 745.747 792.541 718.098C792.528 701.172 790.862 684.278 791.761 667.352C794.336 678.762 795.859 690.502 797.724 702.047C801.413 725.213 804.938 748.404 808.298 771.619C809.688 781.158 810.779 790.779 812.339 800.286C813.893 810.996 821.172 873.3 822.986 875.296C823.756 876.145 825.979 876.881 827.031 877.341L827.437 877.522C823.594 882.928 819.803 889.236 815.062 893.898C812.745 896.178 809.396 897.342 806.922 899.5C801.91 903.872 797.898 909.74 793.329 914.592C787.061 921.248 778.698 927.464 773.59 935.025C771.692 937.835 770.222 941.911 770.904 945.335C771.325 947.449 772.619 948.89 774.426 949.991C785.724 956.88 810.44 956.719 822.882 953.312C827.073 952.189 831.073 950.448 834.75 948.145C841.985 943.641 847.866 937.139 854.801 932.169C860.609 928.007 867.52 925.258 873.096 920.894C875.475 919.033 877.517 916.958 878.969 914.286C882.979 906.909 882.066 897.135 879.56 889.381C878.349 885.634 876.763 882.031 875.173 878.432C879.993 869.026 879.728 833.907 880.118 821.39C880.996 813.144 880.708 804.454 880.922 796.135C881.672 767.083 881.543 744.924 876.742 716.056C874.012 699.634 869.043 683.513 867.74 666.884C865.423 637.308 870.627 607.44 870.463 577.873C874.966 576.469 879.116 574.694 883.154 572.238C886.665 570.103 889.666 567.55 892.657 564.741C903.897 554.188 905.062 544.851 904.442 530.005C904.223 524.761 903.453 519.157 903.919 513.944C904.188 510.931 905.179 507.831 905.892 504.889C908.755 493.063 909.695 480.634 911.061 468.557C913.305 449.562 914.879 430.494 915.78 411.388C916.341 400.068 916.973 388.462 916.04 377.143C913.107 341.551 899.908 298.792 886.936 265.447C883.316 256.142 879.663 246.325 874.405 237.804C862.106 217.873 840.881 212.24 819.467 207.12C818.418 206.07 817.313 205.079 816.221 204.073C811.539 199.485 806.397 196.389 800.438 193.746ZM237.667 830.698C227.865 816.556 221.486 796.002 204.502 788.519C192.719 783.328 177.088 788.94 165.913 793.382C151.006 801.878 139.284 810.373 132.839 826.867C127.071 829.21 120.805 831.471 118.194 837.668C116.915 840.704 116.748 843.94 116.719 847.192C93.5796 850.342 45.8063 873.982 31.7731 892.005C30.538 893.592 29.3956 895.566 29.4924 897.643C29.5599 899.092 30.2955 900.09 31.4133 900.937C36.0695 904.466 43.6271 906.325 49.1398 908.443C54.9899 918.944 61.829 938.399 68.1557 946.755C71.3627 950.991 108.26 965.225 115.078 967.707C121.265 966.357 127.645 965.893 133.902 964.931L173.385 958.473C182.841 956.911 193.793 955.5 202.586 951.62C220.305 960.77 239.089 968.064 257.254 976.27C258.628 980.663 260.278 983.781 264.492 986.044C268.196 988.034 273.073 988.395 277.053 987.064C280.708 985.841 283.706 983.241 285.254 979.692C286.722 976.325 286.541 972.514 285.159 969.155C284.598 967.824 283.98 966.519 283.306 965.243C277.738 960.193 272.224 963.003 269.136 960.17C268.912 959.09 268.723 957.94 268.365 956.897C267.985 955.788 267.318 954.979 266.14 954.676C263.006 953.872 259.456 955.556 256.688 956.842C254.328 956.413 252 955.74 249.678 955.141C249.437 951.296 249.114 947.454 248.825 943.612C252.848 941.65 256.19 939.641 259.429 936.517C268.976 940.507 333.728 971.437 337.226 970.845C339.329 970.489 341.269 969.063 342.424 967.299C343.219 966.086 343.78 964.562 343.298 963.117C342.72 961.388 340.756 960.273 339.281 959.4C330.144 953.988 319.766 949.749 310.205 945.037C295.226 937.654 280.413 929.822 265.306 922.717L265.699 916.313C277.817 915.449 291.508 909.378 301.775 903.135C310.362 897.913 321.852 888.778 324.068 878.384C325.108 873.501 323.63 868.832 320.804 864.824C304.595 841.831 263.615 835.661 237.667 830.698Z"/>
	<path fill="#060404" d="M716.385 87.7499C727.717 76.8091 740.283 72.0488 756.09 72.3381C763.949 72.482 778.52 75.5215 785.525 79.0627C788.383 80.507 790.882 82.5039 793.087 84.8106C799.302 91.3101 801.909 99.964 807.59 106.728C812.173 112.186 819.13 115.39 822.504 121.912C824.868 126.481 825.342 132.058 825.194 137.139C824.954 145.36 821.956 152.329 818.589 159.689C817.443 162.195 815.942 164.907 815.35 167.602C813.765 174.813 825.188 174.831 816.186 183.341C811.757 187.527 806.035 191.339 800.438 193.746C798.762 193.959 796.242 193.953 794.808 194.859C793.623 198.449 793.763 203.067 795.363 206.52C796.011 207.918 796.695 208.572 798.073 209.3C802.829 209.629 811.271 205.426 816.221 204.073C817.313 205.079 818.418 206.07 819.467 207.12C840.881 212.24 862.106 217.873 874.405 237.804C879.663 246.325 883.316 256.142 886.936 265.447C899.908 298.792 913.107 341.551 916.04 377.143C916.973 388.462 916.341 400.068 915.78 411.388C914.879 430.494 913.305 449.562 911.061 468.557C909.695 480.634 908.755 493.063 905.892 504.889C905.179 507.831 904.188 510.931 903.919 513.944C903.453 519.157 904.223 524.761 904.442 530.005C905.062 544.851 903.897 554.188 892.657 564.741C889.666 567.55 886.665 570.103 883.154 572.238C879.116 574.694 874.966 576.469 870.463 577.873C870.627 607.44 865.423 637.308 867.74 666.884C869.043 683.513 874.012 699.634 876.742 716.056C881.543 744.924 881.672 767.083 880.922 796.135C880.708 804.454 880.996 813.144 880.118 821.39C879.728 833.907 879.993 869.026 875.173 878.432C876.763 882.031 878.349 885.634 879.56 889.381C882.066 897.135 882.979 906.909 878.969 914.286C877.517 916.958 875.475 919.033 873.096 920.894C867.52 925.258 860.609 928.007 854.801 932.169C847.866 937.139 841.985 943.641 834.75 948.145C831.073 950.448 827.073 952.189 822.882 953.312C810.44 956.719 785.724 956.88 774.426 949.991C772.619 948.89 771.325 947.449 770.904 945.335C770.222 941.911 771.692 937.835 773.59 935.025C778.698 927.464 787.061 921.248 793.329 914.592C797.898 909.74 801.91 903.872 806.922 899.5C809.396 897.342 812.745 896.178 815.062 893.898C819.803 889.236 823.594 882.928 827.437 877.522L827.031 877.341C825.979 876.881 823.756 876.145 822.986 875.296C821.172 873.3 813.893 810.996 812.339 800.286C810.779 790.779 809.688 781.158 808.298 771.619C804.938 748.404 801.413 725.213 797.724 702.047C795.859 690.502 794.336 678.762 791.761 667.352C790.862 684.278 792.528 701.172 792.541 718.098C792.562 745.747 790.395 765.147 786.432 792.456C784.383 808.297 782.226 825.208 778.087 840.61C776.641 845.993 774.558 851.345 772.75 856.624C774.682 859.018 776.178 861.492 777.3 864.351C779.471 869.885 781.694 878.873 779.056 884.457C777.407 887.948 773.654 890.287 770.19 891.661C759.701 895.824 747.539 895.607 736.721 899.022C724.424 902.905 713.443 909.956 701.137 913.893C688.189 918.036 669.363 919.309 657.054 912.626C654.453 911.214 652.404 908.868 651.631 905.979C648.778 895.305 666.844 888.536 674.002 885.174C677.882 883.351 681.731 881.408 685.38 879.154C690.825 875.79 714.753 856.109 717.841 850.825C716.899 843.4 720.364 828.536 721.14 820.009C722.426 805.867 722.862 791.711 723.147 777.519C723.324 754.14 722.966 730.76 722.074 707.397C719.204 632.381 719.033 557.287 721.562 482.259C719.694 478.939 717.416 475.05 717.067 471.202C716.322 463.006 718.864 453.467 719.546 445.204C721.308 423.855 722.739 401.993 720.929 380.612C718.833 355.836 709.716 333.395 704.679 309.298C695.003 318.53 659.563 347.328 647.283 346.906C632.034 346.382 604.381 324.819 590.934 316.826C606.995 337.069 630.602 369.746 627.684 396.506C626.831 404.329 623.446 412.827 617.173 417.827C609.658 423.817 599.201 424.35 590.052 423.081C580.797 421.797 572.056 418.594 563.471 415.031C565.944 429.543 582.333 519.219 578.623 527.989C577.242 529.134 575.864 529.977 574.295 530.842C575.124 548.017 575.114 565.222 574.265 582.395C573.21 602.467 570.546 622.486 567.838 642.389C563.203 677.171 557.475 711.798 550.663 746.22C548.811 755.484 547.127 764.824 544.921 774.01C536.685 813.509 526.9 853.365 523.837 893.678C528.077 896.592 532.4 899.413 536.544 902.463C542.155 906.593 547.886 911.853 554.281 914.669C565.833 919.754 592.936 920.565 599.932 926.969C603.099 929.868 604.486 934.164 604.491 938.381C604.495 941.35 603.548 943.864 601.408 945.954C598.081 949.206 593.197 950.717 588.855 952.057C566.705 958.891 543.367 958.051 520.463 958.174C517.146 961.677 513.637 962.787 509.013 963.676C500.296 965.353 480.4 966.79 472.861 961.318C469.12 958.602 468.829 953.059 468.162 948.882C461.614 950.078 454.521 950.965 447.874 950.373C442.953 949.934 437.006 948.737 433.82 944.618C427.687 936.691 432.862 909.661 435.989 900.779C437.656 896.045 441.042 892.531 441.648 887.357C440.942 886.831 440.458 886.389 439.894 885.695C438.055 883.43 438.414 871.855 438.333 868.335C437.479 829.118 438.982 789.885 442.834 750.849C427.734 746.04 406.529 739.347 393.561 730.624C394.63 727.707 395.631 724.763 396.66 721.832C402.632 702.469 405.965 682.503 408.945 662.505C410.924 649.221 412.887 635.855 413.554 622.43C414.984 593.672 414.021 564.855 415.92 536.084C416.664 524.958 417.654 513.85 418.887 502.768C420.559 488.177 422.645 473.958 421.799 459.216C420.381 434.496 414.971 409.871 410.549 385.549C408.36 373.512 406.772 361.336 404.996 349.232C400.645 361.234 398.58 374.324 396.26 386.84C393.345 402.557 390.667 418.263 389.12 434.187C385.866 467.677 385.695 501.307 383.737 534.863L373.525 718.225C373.526 728.64 372.557 739.248 372.016 749.663C371.571 758.209 371.638 767.254 370.433 775.709C370.149 777.701 369.87 779.749 368.562 781.348C345.269 785.288 332.944 749.439 318.21 737.681C312.581 733.19 306.845 731.139 299.884 729.627C297.945 742.626 296.731 755.764 295.414 768.838C294.644 776.482 294.469 784.908 292.229 792.26C291.64 792.885 291.626 793.102 290.731 793.276C286.366 794.123 278.481 790.051 274.834 787.722C251.205 772.632 235.177 733.512 229.553 706.905C227.657 697.933 226.895 688.828 227.685 679.679C228.482 670.453 230.64 661.349 232.558 652.304L240.771 613.78C257.826 531.148 277.895 445.131 306.232 365.658C314.796 341.637 324.498 317.404 338.456 295.936C354.168 271.77 375.627 254.054 406.026 257.804C416.389 259.083 426.442 262.482 436.817 264.106C444.111 265.248 442.448 267.785 450.756 266.036C441.368 261.61 432.049 256.185 424.461 249.033C413.544 238.745 405.846 225.489 405.512 210.223C405.179 194.941 411.048 184.289 421.361 173.491C421.37 168.887 422.392 165.282 425.757 161.889C431.437 156.16 440.557 155.946 447.416 152.199C452.483 149.431 455.753 144.121 461.186 141.768C465.21 140.026 470.299 139.598 474.638 139.507C487.816 139.231 503.507 142.596 513.195 152.14C517.854 156.731 520.861 162.134 520.905 168.768C522.744 171.108 524.604 173.446 526.031 176.067C528.9 181.34 530.866 187.896 535.175 192.186C537.215 194.217 539.986 195.687 542.387 197.249C545.291 199.138 549.502 201.947 549.942 205.725C550.376 209.45 547.571 212.308 545.362 214.948L545.74 215.978C546.733 218.646 547.382 221.051 547.849 223.858C554.529 224.485 560.555 226.266 566.223 229.919C576.804 236.738 582.139 247.949 584.82 259.919C588.934 262.235 592.176 265.64 596.263 267.993C610.941 276.444 627.447 282.826 643.393 288.403C649.361 282.523 654.551 275.462 660.051 269.12C669.392 258.459 678.881 247.93 688.516 237.534C695.1 230.388 701.687 222.914 709.778 217.424C721.788 209.276 729.1 211.084 742.538 213.673C737.065 210.975 731.179 209.467 725.967 206.16C711.482 196.971 700.468 178.19 696.721 161.75C695.557 163.513 693.753 166.123 691.539 166.634C690.509 166.872 689.718 166.796 688.912 166.059C685.48 162.923 682.073 143.533 681.752 138.229C681.011 125.998 683.426 115.708 693.505 107.908C696.81 105.349 700.424 103.198 703.699 100.599C708.423 96.8504 712.402 92.2501 716.385 87.7499ZM812.488 212.457C812.328 212.555 812.17 212.655 812.008 212.751C803.137 218.026 792.15 221.683 782.662 225.801C779.022 227.381 775.222 229.795 771.47 230.966C768.177 231.994 762.845 230.508 760.026 232.116C760.894 232.893 767.782 232.327 769.478 232.238C780.031 231.684 793.992 224.688 803.744 220.378C807.059 218.913 810.656 216.868 814.204 216.224C814.434 217.582 814.63 217.924 813.742 219.1C810.822 222.971 799.384 226.555 794.726 229.445C798.45 228.436 814.338 222.813 816.683 223.96C816.945 224.816 817.146 225.574 817.29 226.463L816.913 227.104C803.497 230.91 791.14 236.665 777.321 239.308C792.433 245.934 810.502 245.418 826.719 245.48C823.528 238.29 821.041 231.026 818.817 223.494C817.225 218.469 816.57 213.067 815.065 207.956C814.164 209.427 813.341 210.957 812.488 212.457ZM721.039 228.255C719.106 230.402 717.221 232.641 715.153 234.658C724.836 237.571 733.298 239.628 743.374 237.636C746.383 237.32 749.398 236.95 752.414 236.712C742.013 233.762 731.236 231.907 721.039 228.255L726.458 226.157C731.868 227.404 737.22 228.71 742.554 230.258C740.095 228.769 730.006 224.427 729.145 223.355L729.301 222.496C729.447 222.412 729.583 222.308 729.739 222.244C733.618 220.645 745.756 228 749.821 229.962C752.476 231.221 755.226 232.122 758.007 233.055C757.518 232.472 757.055 231.929 756.499 231.407C755.044 230.045 747.72 223.496 746.269 223.852C742.171 224.859 734.259 218.507 728.968 218.338C725.625 219.562 722.937 225.256 721.039 228.255ZM753.383 98.9439C743.988 106.152 744.483 113.91 737.907 119.53C722.344 132.83 706.747 119.745 698.408 150.719C701.438 147.887 705.878 143.64 710.324 143.885C712.38 143.997 714.06 145.164 715.356 146.702C717.177 148.865 718.395 151.862 719.387 154.473C714.413 153.629 703.034 151.069 698.583 152.92C698.353 155.751 699.016 158.547 699.268 161.361C701.152 157.326 702.798 155.339 707.123 153.862C708.724 153.315 710.562 153.082 712.101 153.944C713.902 154.951 715.232 156.354 717.361 156.604C718.199 156.281 718.872 155.708 719.736 156.114C720.584 156.512 720.852 156.976 721.359 157.724C721.245 159.014 721.044 159.463 719.965 160.252C717.669 161.934 714.767 162.38 712.24 163.565C710.882 164.202 709.789 165.311 708.381 165.839C707.691 166.097 707.093 166.062 706.38 165.993C705.455 165.225 705.044 164.762 704.932 163.509C704.845 162.534 704.98 161.488 705.039 160.512C705.072 159.856 705.11 159.201 705.153 158.546C703.424 161.184 703.095 163.563 702.338 166.537C704.974 176.041 710.103 184.382 716.014 192.179C723.946 201.713 734.988 209.09 747.668 210.144C756.936 210.914 765.833 206.83 772.728 200.877C780.642 194.043 784.991 184.872 790.512 176.225C795.382 168.597 803.749 160.475 804.221 150.874C804.336 148.54 803.827 146.206 802.201 144.457C801.136 143.311 799.772 142.595 798.163 142.7C791.365 143.142 788.632 158.901 780.712 153.206C772.727 147.464 774.59 138.011 770.337 130.554C764.323 120.01 756.347 121.816 754.442 106.432C754.184 104.349 754.542 100.586 753.383 98.9439ZM519.513 173.967C517.243 176.132 514.83 178.253 512.739 180.587C511.304 189.774 513.655 202.353 506.238 209.145C503.359 207.251 498.537 202.563 494.922 203.721C493.076 204.313 491.406 206.491 490.689 208.216C489.802 210.346 490.183 212.506 491.14 214.543C496.392 225.73 515.248 228.755 509.638 244.881C508.377 248.507 506.023 251.455 502.97 253.749C498.397 257.184 480.295 264.376 478.052 267.462C477.394 268.368 477.283 269.336 477.729 270.365C479.049 273.409 483.883 274.654 486.789 275.329C492.156 276.576 497.639 276.758 503.119 276.34C505.254 276.022 507.405 275.765 509.497 275.222C511.646 269.721 516.155 259.227 521.761 256.82C525.972 255.013 529.773 256.109 534.085 256.381C538.252 253.257 541.016 250.476 546.377 249.629C545.984 244.204 546.098 235.101 542.998 230.509C542.401 230.182 542.184 229.861 541.47 230.072C540.001 230.507 538.715 232.32 537.715 233.45C534.953 232.394 532.323 225.905 531.157 223.314C530.697 222.286 530.253 221.252 529.825 220.211C534.281 220.075 538.058 219.39 542.307 218.075C541.732 216.524 540.951 214.995 541.167 213.311C541.857 212.227 542.579 211.429 543.473 210.503C544.688 209.243 545.572 208.349 545.534 206.488C545.501 204.901 543.609 203.289 542.466 202.347C537.674 198.395 532.303 196.417 528.633 191.086C527.923 192.309 527.415 193.577 526.043 194.152C525.034 193.643 525.236 193.995 524.936 193.071C524.091 190.465 524.952 186.521 525.444 183.852C524.248 180.526 522.329 176.264 519.513 173.967ZM788.67 186.326C784.457 193.714 779.732 200.975 772.798 206.119C769.762 208.371 757.867 212.722 757.084 213.924C759.297 216.138 764.27 216.206 767.22 217.156C770.531 218.986 772.345 219.82 774.088 223.278C774.437 223.97 774.272 223.713 774.937 224.266C778.517 222.962 781.81 221.036 785.313 219.558C786.947 212.31 792.591 192.813 788.67 186.326ZM820.587 211.287C822.252 219.872 824.255 228.521 827.529 236.659C828.928 240.137 833.475 245.134 832.658 248.809C828.447 251.637 811.744 249.204 806.147 249.542L806.344 250.268L805.468 249.853C806.986 253.801 825.561 262.815 830.116 265.315C828.016 269.786 825.078 273.603 822.066 277.491C825.964 283.841 828.751 290.768 831.721 297.584C835.739 306.806 839.66 315.989 843.319 325.363L855.212 355.954C857.532 362.023 860.309 368.251 861.663 374.609C863.769 384.506 862.763 396.817 863.013 406.999L864.47 494.208C868.678 494.812 872.87 495.47 877.122 495.664C886.025 496.345 894.408 496.348 903.27 495.201C906.555 469.156 909.289 443.286 910.874 417.079C911.666 403.988 912.648 390.335 911.604 377.244C909.147 346.461 898.751 312.176 888.498 283.116C883.25 268.241 876.472 247.247 866.98 234.989C856.11 220.95 837.025 215.684 820.587 211.287ZM723.51 215.972C718.325 217.975 713.666 219.984 709.201 223.327C700.547 229.805 693.117 238.835 685.836 246.788C675.733 257.824 665.446 268.797 655.733 280.179C652.016 284.534 648.688 289.19 645.037 293.588C628.475 287.682 612.308 280.725 596.632 272.76C596.627 280.435 595.189 286.495 589.526 292.106C586.47 295.134 583.033 297.075 579.232 298.995C581.156 302.071 582.96 304.95 585.629 307.457C595.765 316.976 630.666 338.791 644.313 342.016C652.148 343.867 661.232 337.105 667.546 333.006C675.732 327.637 683.612 321.815 691.15 315.568C695.383 312.016 699.363 307.97 703.786 304.677C700.444 293.223 697.492 281.66 694.934 270.005C693.723 264.729 692.147 259.312 691.53 253.932C692.084 252.991 691.987 252.863 693.029 252.371C694.97 253.412 695.456 255.464 696.062 257.474C698.753 266.4 700.551 275.969 702.784 285.048C704.907 293.677 707.546 302.237 709.454 310.906C715.387 335.865 723.385 355.606 725.413 381.707C726.989 401.989 725.927 422.372 724.215 442.618C723.542 450.578 721.609 459.065 721.758 466.975C721.827 470.609 722.743 474.317 724.169 477.657C724.68 478.855 725.275 480.043 726.08 481.073C726.571 481.7 726.975 482.049 727.682 482.471C728.447 482.929 728.887 482.884 729.757 482.683C736.59 481.108 752.746 462.427 758.086 456.533C757.699 444.887 757.883 433.229 757.547 421.58C757.19 409.18 756.002 396.839 754.808 384.498C754.245 378.672 753.926 372.703 753.085 366.915C728.603 345.573 716.422 287.944 706.533 257.591C714.033 252.165 722.676 246.597 731.237 243.064C725.941 242.768 713.725 241.247 710.066 237.084C709.078 235.96 709.132 235.599 709.111 234.179C710.823 231.429 714.532 229.499 716.834 227.152C718.247 225.712 724.222 217.641 723.982 216.123L723.51 215.972ZM757.992 218.419C757.233 220.647 756.485 222.879 755.75 225.114C757.287 225.908 758.734 226.515 760.396 226.998C761.729 225.455 761.58 223.431 761.887 221.441C760.573 220.495 759.117 219.583 757.992 218.419ZM765.809 221.593C765.296 223.174 764.345 225.221 764.646 226.86C766.018 227.422 766.952 226.876 768.275 226.333C768.395 226.283 768.513 226.229 768.632 226.177L769.692 225.125C769.549 223.881 769.451 223.678 768.345 222.889C767.609 222.365 766.628 221.983 765.809 221.593ZM548.834 228.696C548.6 230.188 548.545 231.015 548.95 232.514C553.775 237.779 556.489 234.773 560.681 243.965C557.953 244.126 555.244 244.274 552.538 244.679C552.061 246.104 551.067 248.132 551.573 249.573C555.701 249.072 558.436 247.035 562.266 249.943C563.76 251.077 565.592 253.088 565.908 255.015C566.038 255.805 565.997 255.99 565.963 256.72C565.514 257.209 565.392 257.58 564.666 257.635C563.106 257.754 561.541 256.603 560.074 256.111C562.493 261.396 565.039 266.283 567.019 271.805L569.013 276.944C574.132 273.431 578.396 268.428 581.241 262.904C578.589 251.462 574.144 240.011 563.743 233.478C559.242 230.682 554.121 229.039 548.834 228.696ZM762.438 237.84C768.057 241.738 774.323 244.586 779.856 248.443C783.702 251.125 787.264 255.445 791.335 257.56C791.462 254.767 791.575 252.007 791.479 249.21C785.493 247.251 779.153 245.534 773.343 243.134C769.65 241.608 766.255 238.968 762.438 237.84ZM746.994 242.681C740.544 244.603 733.773 246.395 727.567 248.998C728.741 254.878 730.538 260.428 732.687 266.019C734.956 262.083 737.248 258.266 740.5 255.05C745.791 250 751.871 246.081 757.601 241.58C752.987 243.44 743.846 248.925 739.283 248.977L739.001 248.375C740.42 246.384 746.445 244.166 746.994 242.681ZM795.026 248.066C795.054 254.044 794.731 259.122 793.283 264.919C794.512 266.017 795.758 266.924 796.338 268.52C795.714 269.875 795.753 270.032 794.447 270.703C793.278 270.482 792.113 270.237 790.953 269.97C789.843 271.185 789.247 272.285 788.661 273.826C787.101 277.931 786.306 282.452 785.075 286.682C781.442 299.164 778.063 311.663 774.023 324.03C770.292 335.447 765.166 346.311 761.397 357.658C766.904 353.862 771.295 348.738 775.789 343.835C787.769 329.836 796.882 314.557 805.678 298.428C811.608 287.554 817.119 276.675 824.215 266.475C817.142 262.928 807.728 259.474 802.246 253.716C801.935 252.182 802.378 249.61 801.337 248.669C799.232 248.485 797.128 248.284 795.026 248.066ZM753.449 248.547C746.388 254.889 739.659 261.597 734.044 269.29L734.405 269.771C743.585 265.981 747.057 255.702 753.715 248.802L753.449 248.547ZM760.303 250.677C757.733 258.198 758.136 267.824 757.799 275.726C756.648 302.712 757.153 329.679 757.059 356.674C759.58 350.528 762.065 344.389 764.319 338.138C772.032 317.1 778.141 295.799 784.07 274.206C778.637 269.131 766.631 251.61 760.303 250.677ZM723.424 251.593C719.353 254.01 715.184 256.337 711.208 258.905C719.917 287.096 727.526 316.107 740.505 342.715C742.015 345.685 743.466 348.712 745.096 351.618C742.78 342.656 741.808 333.441 740.784 324.262C738.835 306.789 737.719 289.474 736.886 271.921C734.666 272.226 732.877 272.76 730.969 271.337C725.219 267.047 726.862 256.281 723.424 251.593ZM545.565 254.577C543.376 255.416 541.035 256.241 540.078 258.599C537.97 263.796 540.596 269.957 539.862 275.347L538.991 275.728C534.216 272.74 531.674 267.13 527.273 263.598C525.536 267.116 524.384 270.621 523.509 274.443C526.046 281.207 530.88 289.727 535.14 295.556C535.303 295.78 535.46 296.007 535.625 296.229C537.525 298.774 540.16 300.492 542.404 302.687L546.253 307.149C555.617 301.468 561.826 299.035 572.637 297.034C565.851 283.376 563.156 264.474 552.283 254.341C550.047 254.411 547.797 254.428 545.565 254.577ZM755.263 255.356C750.941 260.829 746.545 267.646 741.275 272.208C741.271 288.248 743.081 304.231 744.872 320.15C746.025 330.395 746.932 340.83 749.313 350.875C750.006 353.14 750.604 355.274 751.839 357.319L752.485 357.482C754.333 351.183 752.962 322.882 752.904 314.943C752.921 305.068 753.101 295.193 753.444 285.324C753.654 279.261 756.349 259.288 755.263 255.356ZM530.298 260.109C531.885 262.232 533.644 265.234 535.85 266.727C535.861 264.771 536.236 262.108 535.154 260.427C533.405 259.636 532.192 259.967 530.298 260.109ZM397.075 261.718C378.381 263.111 364.808 270.323 352.553 284.502C343.019 295.531 335.574 308.232 329.183 321.293C311.875 356.663 298.49 401.042 287.748 439.038C272.024 494.599 258.346 550.719 246.742 607.285C241.787 630.555 230.446 671.076 232.153 693.533C234.163 719.967 249.963 757.454 268.415 776.647C274.609 782.748 280.694 786.059 288.747 789.306C290.597 775.353 291.673 761.274 293.26 747.284L312.567 561.391C316.599 524.618 320.659 487.483 327.604 451.131C336.398 405.102 362.548 304.253 400.872 274.994C407.262 270.115 413.646 266.697 421.506 264.964C413.351 263.196 405.473 261.694 397.075 261.718ZM584.834 264.913C580.956 271.187 577.441 276.654 570.963 280.429L570.599 281.218C570.998 282.167 571.364 283.149 571.823 284.068C576.217 280.639 585.21 274.15 585.917 268.2C586.095 266.704 585.637 266.075 584.834 264.913ZM425.835 268.653C410.023 271.197 397.618 281.725 388.455 294.469C375.699 312.211 366.354 334.195 358.844 354.622C335.031 419.396 326.364 480.843 318.777 548.959C315.338 579.521 312.145 610.111 309.199 640.724L303.427 697.334C302.413 706.62 300.804 716.054 300.32 725.369C315.527 728.126 324.12 734.911 332.85 747.484C342.145 760.872 349.494 772.791 365.717 778.245C367.765 751.159 368.604 723.882 369.833 696.744C370.981 673.661 372.326 650.588 373.866 627.527C374.717 614.114 375.034 600.482 376.402 587.128L379.622 520.737C382.232 455.038 384.837 388.674 407.049 326.081C411.059 314.782 415.765 300.959 424.768 292.637C427.307 290.289 429.94 288.457 433.484 288.371C436.69 292.07 439.44 296.194 442.76 299.767C451.484 309.157 464.162 316.629 477.137 317.581C491.821 318.659 504.559 312.197 515.378 302.706C520.015 298.638 523.594 294.081 527.062 289.003C524.656 285.048 522.388 280.83 519.693 277.074C514.883 279.754 510.286 282.957 505.296 285.275C495.349 289.896 480.745 291.781 470.12 288.661C465.023 287.164 459.356 285.675 456.532 280.835L456.675 280.048C460.461 279.135 465.554 282.813 469.243 283.73C480.981 286.618 493.331 285.715 504.524 281.15C493.935 281.573 485.946 280.835 476.518 275.812C472.893 273.88 469.415 271.809 465.354 270.916C451.246 267.814 424.76 276.012 414.885 286.838C412.23 289.749 405.653 301.731 403.059 302.363L401.719 301.768C401.162 300.16 401.84 298.988 402.555 297.53C409.374 283.618 418.118 275.62 432.786 270.686C435.083 269.929 437.39 269.203 439.706 268.508C435.134 268.267 430.389 268.107 425.835 268.653ZM590.024 269.408C586.635 277.134 580.297 284.345 573.135 288.842C574.313 291.101 575.407 293.429 576.928 295.48C583.318 292.384 589.615 287.184 592.06 280.306C593.123 277.318 593.032 274.368 591.574 271.541C591.197 270.811 590.64 269.955 590.024 269.408ZM819.586 281.951C803.375 313.149 786.893 345.246 757.576 366.242C757.654 379.906 759.997 393.752 761.059 407.39C762.315 423.531 762.26 439.766 762.067 455.944C773.034 468.303 783.376 479.663 798.669 486.716C812.873 490.542 846.124 477.883 859.742 471.696C859.215 448.753 859.344 425.814 858.733 402.864C858.484 393.519 859.168 383.403 857.006 374.271C855.678 368.656 853.285 363.221 851.243 357.834C846.678 345.797 841.743 333.928 836.94 321.986C832.685 311.405 825.729 290.924 819.586 281.951ZM431.518 292.434C417.703 304.08 412.653 323.878 407.126 340.447C411.201 353.231 412.33 367.77 414.631 380.994C419.28 407.711 425.519 434.981 426.574 462.138C427.097 475.574 425.28 488.691 423.747 501.998C422.262 514.092 421.121 526.225 420.326 538.383C418.961 558.933 418.91 579.649 418.612 600.241C418.501 607.866 418.677 615.526 418.263 623.139C417.004 646.27 412.869 669.916 408.295 692.596C405.982 704.063 403.408 718.56 398.441 729.11C424.713 742.845 461.998 753.345 491.323 756.73C495.91 757.294 500.525 757.598 505.146 757.643C509.792 757.666 515.068 757.106 519.612 757.968C519.807 759.38 519.839 759.443 519.154 760.683C513.191 764.381 483.554 760.694 475.924 759.031C473.75 775.318 473.508 791.921 473.432 808.333C473.373 821.182 473.206 834.099 473.637 846.943C474.053 859.348 475.338 871.738 476.095 884.124C476.366 888.562 476.216 893.015 476.458 897.454C483.305 898.008 490.244 898.553 497.116 898.244C498.009 862.49 505.235 823.818 513.516 789.009C516.66 775.792 519.387 762.561 522.271 749.295C523.154 745.236 525.073 741.67 525.643 737.477C526.997 727.523 527.271 717.224 527.966 707.189C529.874 679.657 531.055 652.129 533.885 624.669C534.644 617.307 535.161 609.721 536.326 602.42C538.138 582.863 540.752 563.379 542.941 543.862C543.24 541.194 542.748 532.839 544.163 530.98C546.26 530.116 549.628 530.503 551.9 530.464C559.877 530.328 567.883 529.987 575.198 526.456C572.335 488.077 563.751 450.593 558.824 412.534C547.344 408.029 538.631 401.638 527.922 396.206C520.973 398.216 515.942 398.535 509.411 394.841C506.788 393.358 504.365 391.353 502.659 388.855C502.845 387.446 503.092 387.346 504.084 386.293C510.317 386.141 514.26 395.899 521.748 394.123L522.002 393.356C518.536 387.953 508.637 386.612 506.101 380.847L506.353 379.831C508.058 379.188 509.263 379.362 510.908 380.142C516.106 382.604 521.884 387.283 526.935 390.363C545.824 401.882 584.9 425.47 607.554 417.988C613.283 416.095 617.644 411.867 620.287 406.501C625.691 395.527 623.403 383.311 619.432 372.294C611.649 350.703 597.575 333.782 584.084 315.698C580.673 311.127 577.775 306.199 574.425 301.595C564.342 302.99 556.394 305.461 547.878 311.152C561.984 327.835 576.776 344.34 592.658 359.359C595.962 362.483 599.43 365.733 603.042 368.499C606.098 370.84 610.039 372.607 612.512 375.618C613.232 376.495 613.322 376.869 613.449 377.95C612.554 378.741 611.74 379.125 610.496 379.101C599.407 378.885 542.565 312.611 532.806 300.59C531.361 298.812 529.991 296.973 528.699 295.081C519.205 307.781 501.825 319.792 485.866 322.033C471.019 324.119 457.377 317.811 445.763 309.033C441.44 305.765 437.364 301.522 434.341 297.021C433.323 295.505 432.695 293.856 431.518 292.434ZM760.292 460.863C752.739 468.606 739.74 485.844 729.001 487.904L725.959 486.912C724.28 489.504 725.458 504.479 725.377 508.55C724.491 553.482 723.744 598.653 724.623 643.589C725.539 690.355 728.203 736.945 727.535 783.747C727.25 797.872 726.395 811.98 724.971 826.036C724.203 833.063 722.81 840.13 722.259 847.156C736.208 853.619 752.786 856.886 768.164 856.079C774.88 838.621 777.618 820.76 780.439 802.37C784.824 773.784 787.736 745.805 787.994 716.867C788.092 705.849 787.004 694.852 787.007 683.844C787.011 670.907 788.899 657.548 787.661 644.674C786.66 634.273 784.128 623.646 782.194 613.37C776.989 585.698 770.605 558.252 765.539 530.565C763.676 520.387 761.105 509.653 760.488 499.361C760.369 497.38 760.326 495.914 761.334 494.144C762.368 493.777 762.303 493.755 763.303 494.196C764.096 495.437 764.358 496.555 764.65 497.998C767.472 511.989 769.568 526.201 772.293 540.235C775.783 558.206 779.88 576.078 783.027 594.112C795.006 655.107 805.304 716.419 813.909 777.98C816.585 796.762 819.121 815.565 821.515 834.385C823.014 846.853 823.709 860.311 826.525 872.535C840.515 877.193 858.106 879.572 872.184 873.909C873.998 867.3 873.985 859.965 874.344 853.152C874.922 842.052 875.311 830.943 875.511 819.83C876.132 792.112 878.359 762.131 874.714 734.672C871.636 711.483 864.43 687.599 862.804 664.74C861.962 652.895 862.921 640.944 863.462 629.101C864.084 612.001 865.144 594.92 866.639 577.874C863.682 578.307 859.622 579.224 856.948 577.404C855.753 576.59 855.275 575.737 855.045 574.315C854.047 568.159 862.715 559.57 864.922 553.726C866.302 550.073 866.468 545.674 866.78 541.812C864.968 547.088 863.48 554.554 859.614 558.603C858.543 559.125 857.43 559.339 856.284 558.866C854.699 558.212 853.845 557.004 853.28 555.449C852.401 553.03 852.323 550.037 852.161 547.481C851.4 535.446 853.583 525.272 859.052 514.516C859.896 512.876 860.766 511.25 861.661 509.638C859.062 499.385 859.634 487.424 859.498 476.879C844.045 482.328 821.526 492.6 805.17 492.189C800.731 492.078 796.411 490.831 792.428 488.912C779.619 482.737 769.765 471.143 760.292 460.863ZM864.72 498.523C865.046 500.935 865.366 503.32 865.912 505.695C877.326 508.439 889.325 510.003 900.965 507.711C901.366 505.261 901.722 502.789 902.176 500.349C889.502 501.598 877.238 500.595 864.72 498.523ZM866.09 510.405C860.822 521.945 855.91 530.902 856.168 544.008C856.225 546.901 856.442 550.571 857.631 553.237C857.846 553.72 857.969 553.824 858.273 554.179C863.017 550.159 862.354 529.822 868.484 528.605C870.582 530.284 870.894 533.955 871.19 536.502C871.83 542.019 871.631 547.405 869.952 552.725C869.303 554.779 868.608 556.951 867.596 558.855C865.945 561.959 858.799 570.185 860.507 573.258C861.834 573.512 862.451 573.555 863.646 572.834C865.388 571.784 866.806 569.869 868.068 568.296C870.941 564.714 873.034 561.229 874.909 557.045C876.748 552.943 878.93 543.281 881.873 540.474C882.704 540.749 882.774 540.558 883.099 541.227C884.565 544.243 881.792 551.004 880.713 553.975C879.493 557.02 870.942 571.195 871.242 572.472C874.297 572.018 878.012 567.331 879.829 564.894C883.17 560.419 885.838 555.478 887.749 550.23C888.7 547.691 889.459 544.067 890.946 541.868L893.437 542.201C894.147 543.541 893.774 544.701 893.366 546.108C891.349 553.063 887.665 560.617 883.643 566.601C890.894 560.929 892.249 555.103 894.223 546.643C894.594 545.055 895.021 543.017 895.992 541.679C896.888 540.445 898.506 539.819 899.852 539.181C900.744 530.879 899.37 521.414 899.156 512.992C887.71 513.718 877.286 513.066 866.09 510.405ZM569.218 533.188C566.752 533.538 564.283 533.939 561.808 534.209C560.394 563.757 555.383 593.37 552.043 622.754C548.451 654.351 546.032 686.008 541.799 717.55C540.031 730.727 537.463 743.827 535.189 756.927C532.43 773.717 529.518 790.482 526.456 807.219C522.206 829.986 517.357 852.637 511.916 875.148C511.175 878.087 505.879 894.667 506.317 896.348L507.185 896.401C511.363 894.916 515.53 893.401 519.686 891.856C522.862 848.034 534.377 804.582 543.491 761.717C549.834 731.882 554.911 701.485 559.473 671.326C565.357 632.424 570.488 593.605 570.284 554.179C570.265 550.356 570.926 535.346 569.554 533.197L569.218 533.188ZM548.531 534.849C549.462 540.761 549.218 575.989 547.467 580.358C543.781 583.285 543.207 579.462 542.447 585.993C540.27 604.717 538.013 623.665 536.52 642.457C534.921 662.576 534.095 682.742 532.434 702.873C531.342 716.106 531.491 729.895 529.465 742.984C528.722 747.783 526.194 752.181 525.201 756.934C517.737 792.665 508.511 827.706 504 864.027C502.703 874.475 501.231 885.015 501.537 895.566L504.169 887.506C513.027 853.764 519.733 819.778 525.927 785.471C532.579 750.024 537.976 714.353 542.109 678.525L553.724 574.641C555.274 561.498 555.85 548.014 558.101 534.989C554.918 534.93 551.712 534.789 548.531 534.849ZM447.526 752.187C443.955 778.805 443.327 805.712 442.718 832.524C442.352 848.643 441.501 866.427 443.329 882.365C452.206 884.541 461.001 883.861 470.033 883.39L471.06 882.986C471.921 877.587 469.614 861.099 469.297 854.457C468.343 833.988 468.209 813.49 468.895 793.012C469.174 781.776 469.019 769.079 471.595 758.127C463.492 756.443 455.389 754.817 447.526 752.187ZM722.414 852.312C719.628 855.271 716.816 858.125 713.813 860.865C719.193 864.8 723.589 868.553 727.208 874.212L744.138 867.967C749.709 866.141 754.331 864.374 758.931 860.665C751.126 859.684 742.954 859.001 735.381 856.786C731.041 855.516 726.796 853.275 722.414 852.312ZM698.347 874.865L690.25 881.132C693.533 882.625 697.802 885.289 701.267 885.954C703.977 884.758 707.366 883.839 708.625 880.927C708.431 879.627 708.263 879.085 707.165 878.275C705.103 876.755 700.887 875.389 698.347 874.865ZM832.102 879.301C828.157 883.429 824.919 888.048 821.543 892.636C834.69 893.692 841.799 897.292 850.955 906.819C853.41 904.986 855.874 903.192 858.128 901.11C862.023 897.392 872.268 887.464 872.511 881.742C872.543 880.989 872.297 880.923 871.828 880.29C868.419 878.995 858.696 881.586 854.422 881.628C846.86 881.704 839.531 879.201 832.102 879.301ZM444.658 887.591C444.269 890.25 443.834 892.857 443.244 895.481C452.795 898.093 461.543 898.804 471.381 897.591L472.291 897.152C472.917 894.255 472.223 890.786 471.984 887.844C462.886 888.57 453.741 888.486 444.658 887.591ZM516.066 897.599C506.381 901.033 496.912 902.96 486.608 902.469C484.386 902.363 480.628 901.486 479.213 903.404C479.072 905.151 479.514 907.451 480.625 908.857C481.085 909.439 481.838 909.781 482.48 910.112C493.162 912.723 503.663 913.826 514.362 910.647C514.441 908.176 516.872 898.751 516.066 897.599ZM441.967 898.255C436.365 907.163 436.034 922.463 435.69 932.833C443.628 935.8 459.114 939.012 467.182 936.825L467.718 935.875C468.136 927.188 468.508 918.6 470.205 910.043C471.789 909.226 473.877 908.483 474.67 906.818C474.692 905.011 473.297 903.332 472.291 901.897C461.689 902.558 451.646 903.508 441.967 898.255ZM524.741 899.394C522.551 903.881 519.495 913.26 521.495 918.087C522.183 919.747 523.241 920.573 524.867 921.19C527.986 922.374 536.098 925.448 538.986 924.162C539.736 922.891 541.732 913.258 541.455 911.82C541.265 910.83 541.019 910.396 540.183 909.877L539.316 910.116C538.467 912.827 539.414 919.864 537.546 921.311C534.24 921.028 530.317 921.105 527.946 918.373C527.022 917.308 526.791 916.066 527.066 914.701C527.793 911.084 531.633 906.708 530.006 903.078L528.867 902.085L528.118 902.266C525.537 906.645 528.18 915.267 525.031 918.494C523.898 917.931 523.223 916.896 522.833 915.709C521.356 911.222 526.496 902.315 524.741 899.394ZM533.9 905.229C532.403 909.4 530.823 913.486 532.328 917.889L533.411 918.824C534.959 915.457 536.684 910.258 535.364 906.637L533.9 905.229ZM807.872 907.574C805.036 909.498 802.939 911.815 800.888 914.535C813.079 915.295 818.475 915.953 830.052 920.109C831.585 920.628 832.697 921.159 834.312 920.6C835.188 919.695 835.683 919.305 835.566 917.912C835.339 915.211 832.167 912.637 830.046 911.374C823.369 907.395 815.422 906.979 807.872 907.574ZM475.199 911.837C474.761 912.327 474.248 912.759 473.887 913.307C472.002 916.167 471.441 939.601 471.573 944.059C474.925 946.025 478.011 947.636 481.912 948.27C494.445 950.309 508.133 948.263 520.752 947.717C528.377 947.388 536.023 947.606 543.651 947.323C558.376 946.778 573.636 945.038 587.924 941.365C591.451 940.458 596.651 939.387 599.466 936.982C599.561 936.008 599.579 935.149 599.485 934.175C598.574 931.926 597.819 929.865 595.403 928.845C588.526 925.941 580.241 925.845 572.96 924.21C566.713 922.808 560.688 920.396 554.379 919.311C556.342 922.132 558.827 925.13 560.055 928.337C559.636 929.393 559.277 929.839 558.191 930.293C551.198 933.218 525.162 927.023 518.615 923.798C518.496 923.74 518.381 923.674 518.264 923.611C517.578 920.465 517.13 917.379 516.791 914.178C506.464 917.034 494.899 917.917 484.492 914.828C481.293 913.879 478.591 912.017 475.199 911.837ZM544.773 913.836C544.081 917.683 544.007 921.487 543.512 925.337C546.812 926.1 549.998 926.589 553.37 926.907L553.974 926.266C553.15 921.588 548.171 916.88 544.773 913.836ZM435.861 937.873C436.356 939.574 436.769 941.376 437.565 942.961C446.712 947.194 457.674 946.045 467.338 944.275C468.053 943.166 467.775 942.984 467.615 941.726C466.192 940.484 450.601 940.959 447.431 940.596C443.395 940.133 439.686 939.235 435.861 937.873ZM596.836 943.587C579.539 948.444 562.748 951.176 544.774 951.9C536.168 952.247 527.542 951.995 518.939 952.362C504.032 952.996 485.931 956.46 472.031 949.616C472.644 952.081 473.122 954.628 474.271 956.907C485.726 962.258 503.598 960.851 515.442 957.57C516.295 956.433 517.12 955.222 518.051 954.152C543.377 952.439 573.888 955.906 597.254 944.113L597.454 943.601L596.836 943.587Z"/>
	<path fill="#FEFEFE" d="M698.408 150.719C706.747 119.745 722.344 132.83 737.907 119.53C744.483 113.91 743.988 106.152 753.383 98.9439C754.542 100.586 754.184 104.349 754.442 106.432C756.347 121.816 764.323 120.01 770.337 130.554C774.59 138.011 772.727 147.464 780.712 153.206C788.632 158.901 791.365 143.142 798.163 142.7C799.772 142.595 801.136 143.311 802.201 144.457C803.827 146.206 804.336 148.54 804.221 150.874C803.749 160.475 795.382 168.597 790.512 176.225C784.991 184.872 780.642 194.043 772.728 200.877C765.833 206.83 756.936 210.914 747.668 210.144C734.988 209.09 723.946 201.713 716.014 192.179C710.103 184.382 704.974 176.041 702.338 166.537C703.095 163.563 703.424 161.184 705.153 158.546C705.11 159.201 705.072 159.856 705.039 160.512C704.98 161.488 704.845 162.534 704.932 163.509C705.044 164.762 705.455 165.225 706.38 165.993C707.093 166.062 707.691 166.097 708.381 165.839C709.789 165.311 710.882 164.202 712.24 163.565C714.767 162.38 717.669 161.934 719.965 160.252C721.044 159.463 721.245 159.014 721.359 157.724C720.852 156.976 720.584 156.512 719.736 156.114C718.872 155.708 718.199 156.281 717.361 156.604C715.232 156.354 713.902 154.951 712.101 153.944C710.562 153.082 708.724 153.315 707.123 153.862C702.798 155.339 701.152 157.326 699.268 161.361C699.016 158.547 698.353 155.751 698.583 152.92C703.034 151.069 714.413 153.629 719.387 154.473C718.395 151.862 717.177 148.865 715.356 146.702C714.06 145.164 712.38 143.997 710.324 143.885C705.878 143.64 701.438 147.887 698.408 150.719ZM747.371 131.545C743.621 133.337 740.199 138.052 738.8 141.939C738.027 144.089 738.145 146.086 738.366 148.322L738.783 148.644C742.049 146.993 744.504 143.493 747.309 141.139C750.151 142.022 752.974 142.9 755.75 143.977C758.589 144.843 766.698 146.641 769.341 145.495C769.995 145.211 770.057 145.107 770.54 144.696C770.809 143.486 770.758 142.889 770.107 141.793C767.08 136.692 758.36 133.249 752.751 132.141C750.997 131.794 749.157 131.552 747.371 131.545ZM750.381 144.49C745.973 146.061 738.96 150.669 736.979 155.16C736.64 155.93 736.606 156.628 736.579 157.457C737.225 158.541 737.3 158.559 738.465 159.06C740.763 158.841 742.372 155.547 744.204 156.551L745.358 158.717C746.616 159.561 747.136 159.92 748.712 159.922C752.092 158.601 755.791 156.047 757.287 152.663C757.222 151.459 756.845 150.758 756.281 149.706C756.45 149.58 756.623 149.458 756.788 149.327C757.415 148.829 757.841 148.331 758.332 147.709C758.335 146.621 758.22 146.172 757.639 145.252C755.271 144.562 752.83 144.587 750.381 144.49ZM795.962 148.661C794.55 150.703 793.332 152.667 792.267 154.925C793.404 156.946 794.473 158.751 796.056 160.474L797.406 159.666C798.119 156.692 798.58 151.83 796.97 149.134L795.962 148.661ZM725.152 158.376C723.583 159.527 722.062 160.378 721.725 162.445C721.212 165.581 722.252 169.866 724.363 172.288C724.896 172.898 725.638 173.329 726.308 173.766C727.82 172.767 728.485 172.442 728.868 170.557C729.463 167.622 730.085 162.63 727.948 160.183C727.229 159.358 726.116 158.855 725.152 158.376ZM758.235 170.796C750.846 177.175 738.624 180.88 729.208 182.739C726.798 183.215 724.177 183.108 721.842 183.662C720.503 183.98 719.862 184.364 719.098 185.479C720.66 188.451 725.729 189.681 728.749 190.826C735.159 194.632 742.683 198.501 750.384 196.498C754.178 195.512 757.137 193.033 758.978 189.592C761.383 185.099 762.156 178.485 760.516 173.622C760.164 172.578 759.68 171.559 758.687 170.99C758.545 170.909 758.386 170.861 758.235 170.796Z"/>
	<path fill="#060404" d="M747.309 141.139C744.504 143.493 742.049 146.993 738.783 148.644L738.366 148.322C738.145 146.086 738.027 144.089 738.8 141.939C740.199 138.052 743.621 133.337 747.371 131.545C749.157 131.552 750.997 131.794 752.751 132.141C758.36 133.249 767.08 136.692 770.107 141.793C770.758 142.889 770.809 143.486 770.54 144.696C770.057 145.107 769.995 145.211 769.341 145.495C766.698 146.641 758.589 144.843 755.75 143.977C752.974 142.9 750.151 142.022 747.309 141.139Z"/>
	<path fill="#060404" d="M745.358 158.717L744.204 156.551C742.372 155.547 740.763 158.841 738.465 159.06C737.3 158.559 737.225 158.541 736.579 157.457C736.606 156.628 736.64 155.93 736.979 155.16C738.96 150.669 745.973 146.061 750.381 144.49C752.83 144.587 755.271 144.562 757.639 145.252C758.22 146.172 758.335 146.621 758.332 147.709C757.841 148.331 757.415 148.829 756.788 149.327C756.623 149.458 756.45 149.58 756.281 149.706C756.845 150.758 757.222 151.459 757.287 152.663C755.791 156.047 752.092 158.601 748.712 159.922C747.136 159.92 746.616 159.561 745.358 158.717Z"/>
	<path fill="#060404" d="M792.267 154.925C793.332 152.667 794.55 150.703 795.962 148.661L796.97 149.134C798.58 151.83 798.119 156.692 797.406 159.666L796.056 160.474C794.473 158.751 793.404 156.946 792.267 154.925Z"/>
	<path fill="#060404" d="M726.308 173.766C725.638 173.329 724.896 172.898 724.363 172.288C722.252 169.866 721.212 165.581 721.725 162.445C722.062 160.378 723.583 159.527 725.152 158.376C726.116 158.855 727.229 159.358 727.948 160.183C730.085 162.63 729.463 167.622 728.868 170.557C728.485 172.442 727.82 172.767 726.308 173.766Z"/>
	<path fill="#060404" d="M728.749 190.826C725.729 189.681 720.66 188.451 719.098 185.479C719.862 184.364 720.503 183.98 721.842 183.662C724.177 183.108 726.798 183.215 729.208 182.739C738.624 180.88 750.846 177.175 758.235 170.796C758.386 170.861 758.545 170.909 758.687 170.99C759.68 171.559 760.164 172.578 760.516 173.622C762.156 178.485 761.383 185.099 758.978 189.592C757.137 193.033 754.178 195.512 750.384 196.498C742.683 198.501 735.159 194.632 728.749 190.826ZM757.533 179.526C749.518 184.438 742.747 186.869 733.731 189.23L734.137 190.116C740.627 191.27 748.943 188.48 754.254 184.659C755.673 183.639 757.338 182.061 757.576 180.219C757.606 179.989 757.548 179.757 757.533 179.526Z"/>
	<path fill="#FEFEFE" d="M512.739 180.587C514.83 178.253 517.243 176.132 519.513 173.967C522.329 176.264 524.248 180.526 525.444 183.852C524.952 186.521 524.091 190.465 524.936 193.071C525.236 193.995 525.034 193.643 526.043 194.152C527.415 193.577 527.923 192.309 528.633 191.086C532.303 196.417 537.674 198.395 542.466 202.347C543.609 203.289 545.501 204.901 545.534 206.488C545.572 208.349 544.688 209.243 543.473 210.503C542.579 211.429 541.857 212.227 541.167 213.311C540.951 214.995 541.732 216.524 542.307 218.075C538.058 219.39 534.281 220.075 529.825 220.211C530.253 221.252 530.697 222.286 531.157 223.314C532.323 225.905 534.953 232.394 537.715 233.45C538.715 232.32 540.001 230.507 541.47 230.072C542.184 229.861 542.401 230.182 542.998 230.509C546.098 235.101 545.984 244.204 546.377 249.629C541.016 250.476 538.252 253.257 534.085 256.381C529.773 256.109 525.972 255.013 521.761 256.82C516.155 259.227 511.646 269.721 509.497 275.222C507.405 275.765 505.254 276.022 503.119 276.34C497.639 276.758 492.156 276.576 486.789 275.329C483.883 274.654 479.049 273.409 477.729 270.365C477.283 269.336 477.394 268.368 478.052 267.462C480.295 264.376 498.397 257.184 502.97 253.749C506.023 251.455 508.377 248.507 509.638 244.881C515.248 228.755 496.392 225.73 491.14 214.543C490.183 212.506 489.802 210.346 490.689 208.216C491.406 206.491 493.076 204.313 494.922 203.721C498.537 202.563 503.359 207.251 506.238 209.145C513.655 202.353 511.304 189.774 512.739 180.587ZM499.384 209.921C499.098 212.267 500.077 213.631 501.503 215.481C502.506 216.782 503.616 218.32 505.264 218.754C505.326 215.927 503.594 212.871 501.529 210.98C500.786 210.299 500.339 210.181 499.384 209.921Z"/>
	<path fill="#FEFEFE" d="M734.137 190.116L733.731 189.23C742.747 186.869 749.518 184.438 757.533 179.526C757.548 179.757 757.606 179.989 757.576 180.219C757.338 182.061 755.673 183.639 754.254 184.659C748.943 188.48 740.627 191.27 734.137 190.116Z"/>
	<path fill="#FEFEFE" d="M767.22 217.156C764.27 216.206 759.297 216.138 757.084 213.924C757.867 212.722 769.762 208.371 772.798 206.119C779.732 200.975 784.457 193.714 788.67 186.326C792.591 192.813 786.947 212.31 785.313 219.558C781.81 221.036 778.517 222.962 774.937 224.266C774.272 223.713 774.437 223.97 774.088 223.278C772.345 219.82 770.531 218.986 767.22 217.156Z"/>
	<path fill="#FEFEFE" d="M816.221 204.073C811.271 205.426 802.829 209.629 798.073 209.3C796.695 208.572 796.011 207.918 795.363 206.52C793.763 203.067 793.623 198.449 794.808 194.859C796.242 193.953 798.762 193.959 800.438 193.746C806.397 196.389 811.539 199.485 816.221 204.073Z"/>
	<path fill="#7246D9" d="M812.488 212.457C813.341 210.957 814.164 209.427 815.065 207.956C816.57 213.067 817.225 218.469 818.817 223.494C818.238 224.464 817.651 225.386 817.29 226.463C817.146 225.574 816.945 224.816 816.683 223.96C814.338 222.813 798.45 228.436 794.726 229.445C799.384 226.555 810.822 222.971 813.742 219.1C814.63 217.924 814.434 217.582 814.204 216.224C813.488 215.047 813.02 213.728 812.488 212.457Z"/>
	<path fill="#060404" d="M505.264 218.754C503.616 218.32 502.506 216.782 501.503 215.481C500.077 213.631 499.098 212.267 499.384 209.921C500.339 210.181 500.786 210.299 501.529 210.98C503.594 212.871 505.326 215.927 505.264 218.754Z"/>
	<path fill="#FEFEFE" d="M830.116 265.315C825.561 262.815 806.986 253.801 805.468 249.853L806.344 250.268L806.147 249.542C811.744 249.204 828.447 251.637 832.658 248.809C833.475 245.134 828.928 240.137 827.529 236.659C824.255 228.521 822.252 219.872 820.587 211.287C837.025 215.684 856.11 220.95 866.98 234.989C876.472 247.247 883.25 268.241 888.498 283.116C898.751 312.176 909.147 346.461 911.604 377.244C912.648 390.335 911.666 403.988 910.874 417.079C909.289 443.286 906.555 469.156 903.27 495.201C894.408 496.348 886.025 496.345 877.122 495.664C872.87 495.47 868.678 494.812 864.47 494.208L863.013 406.999C862.763 396.817 863.769 384.506 861.663 374.609C860.309 368.251 857.532 362.023 855.212 355.954L843.319 325.363C839.66 315.989 835.739 306.806 831.721 297.584C828.751 290.768 825.964 283.841 822.066 277.491C825.078 273.603 828.016 269.786 830.116 265.315ZM864.989 376.028C864.416 377.725 864.03 380.115 864.905 381.762C867.028 385.759 872.464 387.771 876.634 388.764C880.525 389.691 884.978 390.267 888.71 388.611C889.958 387.288 891.475 385.868 891.143 383.85C890.885 382.287 889.464 381.172 888.167 380.454C883.489 377.864 870.402 375.56 864.989 376.028Z"/>
	<path fill="#5E597E" d="M814.204 216.224C810.656 216.868 807.059 218.913 803.744 220.378C793.992 224.688 780.031 231.684 769.478 232.238C767.782 232.327 760.894 232.893 760.026 232.116C762.845 230.508 768.177 231.994 771.47 230.966C775.222 229.795 779.022 227.381 782.662 225.801C792.15 221.683 803.137 218.026 812.008 212.751C812.17 212.655 812.328 212.555 812.488 212.457C813.02 213.728 813.488 215.047 814.204 216.224Z"/>
	<path fill="#FEFEFE" d="M645.037 293.588C648.688 289.19 652.016 284.534 655.733 280.179C665.446 268.797 675.733 257.824 685.836 246.788C693.117 238.835 700.547 229.805 709.201 223.327C713.666 219.984 718.325 217.975 723.51 215.972L723.982 216.123C724.222 217.641 718.247 225.712 716.834 227.152C714.532 229.499 710.823 231.429 709.111 234.179C709.132 235.599 709.078 235.96 710.066 237.084C713.725 241.247 725.941 242.768 731.237 243.064C722.676 246.597 714.033 252.165 706.533 257.591C716.422 287.944 728.603 345.573 753.085 366.915C753.926 372.703 754.245 378.672 754.808 384.498C756.002 396.839 757.19 409.18 757.547 421.58C757.883 433.229 757.699 444.887 758.086 456.533C752.746 462.427 736.59 481.108 729.757 482.683C728.887 482.884 728.447 482.929 727.682 482.471C726.975 482.049 726.571 481.7 726.08 481.073C725.275 480.043 724.68 478.855 724.169 477.657C722.743 474.317 721.827 470.609 721.758 466.975C721.609 459.065 723.542 450.578 724.215 442.618C725.927 422.372 726.989 401.989 725.413 381.707C723.385 355.606 715.387 335.865 709.454 310.906C707.546 302.237 704.907 293.677 702.784 285.048C700.551 275.969 698.753 266.4 696.062 257.474C695.456 255.464 694.97 253.412 693.029 252.371C691.987 252.863 692.084 252.991 691.53 253.932C692.147 259.312 693.723 264.729 694.934 270.005C697.492 281.66 700.444 293.223 703.786 304.677C699.363 307.97 695.383 312.016 691.15 315.568C683.612 321.815 675.732 327.637 667.546 333.006C661.232 337.105 652.148 343.867 644.313 342.016C630.666 338.791 595.765 316.976 585.629 307.457C582.96 304.95 581.156 302.071 579.232 298.995C583.033 297.075 586.47 295.134 589.526 292.106C595.189 286.495 596.627 280.435 596.632 272.76C612.308 280.725 628.475 287.682 645.037 293.588ZM733.372 359.943C731.876 361.39 730.696 362.832 730.608 365.017C730.545 366.583 731.318 367.845 732.471 368.821C733.994 370.11 735.774 370.153 737.671 370.309C738.975 369.102 740.14 368.05 740.273 366.143C740.387 364.507 739.875 363.015 738.721 361.835C737.061 360.137 735.687 359.897 733.372 359.943ZM740.597 396.415C739.028 397.747 737.545 399.106 737.434 401.311C737.366 402.672 737.628 403.728 738.531 404.781C739.866 406.338 741.387 406.613 743.302 406.833C744.942 405.565 745.881 404.565 746.082 402.382C746.241 400.656 745.744 399.14 744.581 397.853C743.36 396.503 742.282 396.478 740.597 396.415ZM740.088 436.999C738.569 438.489 737.652 439.522 737.724 441.795C737.773 443.333 738.432 444.604 739.666 445.526C740.957 446.489 742.291 446.534 743.804 446.433C745.002 445.514 746.061 444.784 746.421 443.218C746.751 441.784 746.335 440.07 745.414 438.952C744.566 437.922 743.701 437.429 742.507 436.88L740.088 436.999Z"/>
	<path fill="#5E597E" d="M721.039 228.255C722.937 225.256 725.625 219.562 728.968 218.338C734.259 218.507 742.171 224.859 746.269 223.852C747.72 223.496 755.044 230.045 756.499 231.407C757.055 231.929 757.518 232.472 758.007 233.055C755.226 232.122 752.476 231.221 749.821 229.962C745.756 228 733.618 220.645 729.739 222.244C729.583 222.308 729.447 222.412 729.301 222.496L729.145 223.355C730.006 224.427 740.095 228.769 742.554 230.258C737.22 228.71 731.868 227.404 726.458 226.157L721.039 228.255Z"/>
	<path fill="#FEFEFE" d="M755.75 225.114C756.485 222.879 757.233 220.647 757.992 218.419C759.117 219.583 760.573 220.495 761.887 221.441C761.58 223.431 761.729 225.455 760.396 226.998C758.734 226.515 757.287 225.908 755.75 225.114Z"/>
	<path fill="#FEFEFE" d="M768.632 226.177C768.513 226.229 768.395 226.283 768.275 226.333C766.952 226.876 766.018 227.422 764.646 226.86C764.345 225.221 765.296 223.174 765.809 221.593C766.628 221.983 767.609 222.365 768.345 222.889C769.451 223.678 769.549 223.881 769.692 225.125L768.632 226.177Z"/>
	<path fill="#654EA8" d="M817.29 226.463C817.651 225.386 818.238 224.464 818.817 223.494C821.041 231.026 823.528 238.29 826.719 245.48C810.502 245.418 792.433 245.934 777.321 239.308C791.14 236.665 803.497 230.91 816.913 227.104L817.29 226.463Z"/>
	<path fill="#5E597E" d="M715.153 234.658C717.221 232.641 719.106 230.402 721.039 228.255C731.236 231.907 742.013 233.762 752.414 236.712C749.398 236.95 746.383 237.32 743.374 237.636C733.298 239.628 724.836 237.571 715.153 234.658Z"/>
	<path fill="#FEFEFE" d="M560.681 243.965C556.489 234.773 553.775 237.779 548.95 232.514C548.545 231.015 548.6 230.188 548.834 228.696C554.121 229.039 559.242 230.682 563.743 233.478C574.144 240.011 578.589 251.462 581.241 262.904C578.396 268.428 574.132 273.431 569.013 276.944L567.019 271.805C565.039 266.283 562.493 261.396 560.074 256.111C561.541 256.603 563.106 257.754 564.666 257.635C565.392 257.58 565.514 257.209 565.963 256.72C565.997 255.99 566.038 255.805 565.908 255.015C565.592 253.088 563.76 251.077 562.266 249.943C558.436 247.035 555.701 249.072 551.573 249.573C551.067 248.132 552.061 246.104 552.538 244.679C555.244 244.274 557.953 244.126 560.681 243.965Z"/>
	<path fill="#654EA8" d="M791.335 257.56C787.264 255.445 783.702 251.125 779.856 248.443C774.323 244.586 768.057 241.738 762.438 237.84C766.255 238.968 769.65 241.608 773.343 243.134C779.153 245.534 785.493 247.251 791.479 249.21C791.575 252.007 791.462 254.767 791.335 257.56Z"/>
	<path fill="#654EA8" d="M727.567 248.998C733.773 246.395 740.544 244.603 746.994 242.681C746.445 244.166 740.42 246.384 739.001 248.375L739.283 248.977C743.846 248.925 752.987 243.44 757.601 241.58C751.871 246.081 745.791 250 740.5 255.05C737.248 258.266 734.956 262.083 732.687 266.019C730.538 260.428 728.741 254.878 727.567 248.998Z"/>
	<path fill="#9F8BE8" d="M793.283 264.919C794.731 259.122 795.054 254.044 795.026 248.066C797.128 248.284 799.232 248.485 801.337 248.669C802.378 249.61 801.935 252.182 802.246 253.716C807.728 259.474 817.142 262.928 824.215 266.475C817.119 276.675 811.608 287.554 805.678 298.428C796.882 314.557 787.769 329.836 775.789 343.835C771.295 348.738 766.904 353.862 761.397 357.658C765.166 346.311 770.292 335.447 774.023 324.03C778.063 311.663 781.442 299.164 785.075 286.682C786.306 282.452 787.101 277.931 788.661 273.826C789.247 272.285 789.843 271.185 790.953 269.97C792.113 270.237 793.278 270.482 794.447 270.703C795.753 270.032 795.714 269.875 796.338 268.52C795.758 266.924 794.512 266.017 793.283 264.919Z"/>
	<path fill="#654EA8" d="M734.405 269.771L734.044 269.29C739.659 261.597 746.388 254.889 753.449 248.547L753.715 248.802C747.057 255.702 743.585 265.981 734.405 269.771Z"/>
	<path fill="#FEFEFE" d="M757.059 356.674C757.153 329.679 756.648 302.712 757.799 275.726C758.136 267.824 757.733 258.198 760.303 250.677C766.631 251.61 778.637 269.131 784.07 274.206C778.141 295.799 772.032 317.1 764.319 338.138C762.065 344.389 759.58 350.528 757.059 356.674Z"/>
	<path fill="#9F8BE8" d="M711.208 258.905C715.184 256.337 719.353 254.01 723.424 251.593C726.862 256.281 725.219 267.047 730.969 271.337C732.877 272.76 734.666 272.226 736.886 271.921C737.719 289.474 738.835 306.789 740.784 324.262C741.808 333.441 742.78 342.656 745.096 351.618C743.466 348.712 742.015 345.685 740.505 342.715C727.526 316.107 719.917 287.096 711.208 258.905Z"/>
	<path fill="#FEFEFE" d="M527.273 263.598C531.674 267.13 534.216 272.74 538.991 275.728L539.862 275.347C540.596 269.957 537.97 263.796 540.078 258.599C541.035 256.241 543.376 255.416 545.565 254.577C547.797 254.428 550.047 254.411 552.283 254.341C563.156 264.474 565.851 283.376 572.637 297.034C561.826 299.035 555.617 301.468 546.253 307.149L542.404 302.687C540.16 300.492 537.525 298.774 535.625 296.229C535.46 296.007 535.303 295.78 535.14 295.556C530.88 289.727 526.046 281.207 523.509 274.443C524.384 270.621 525.536 267.116 527.273 263.598Z"/>
	<path fill="#FEFEFE" d="M741.275 272.208C746.545 267.646 750.941 260.829 755.263 255.356C756.349 259.288 753.654 279.261 753.444 285.324C753.101 295.193 752.921 305.068 752.904 314.943C752.962 322.882 754.333 351.183 752.485 357.482L751.839 357.319C750.604 355.274 750.006 353.14 749.313 350.875C746.932 340.83 746.025 330.395 744.872 320.15C743.081 304.231 741.271 288.248 741.275 272.208Z"/>
	<path fill="#FEFEFE" d="M535.85 266.727C533.644 265.234 531.885 262.232 530.298 260.109C532.192 259.967 533.405 259.636 535.154 260.427C536.236 262.108 535.861 264.771 535.85 266.727Z"/>
	<path fill="#C74841" d="M268.415 776.647C249.963 757.454 234.163 719.967 232.153 693.533C230.446 671.076 241.787 630.555 246.742 607.285C258.346 550.719 272.024 494.599 287.748 439.038C298.49 401.042 311.875 356.663 329.183 321.293C335.574 308.232 343.019 295.531 352.553 284.502C364.808 270.323 378.381 263.111 397.075 261.718C405.473 261.694 413.351 263.196 421.506 264.964C413.646 266.697 407.262 270.115 400.872 274.994C362.548 304.253 336.398 405.102 327.604 451.131C320.659 487.483 316.599 524.618 312.567 561.391L293.26 747.284C291.673 761.274 290.597 775.353 288.747 789.306C280.694 786.059 274.609 782.748 268.415 776.647Z"/>
	<path fill="#FEFEFE" d="M571.823 284.068C571.364 283.149 570.998 282.167 570.599 281.218L570.963 280.429C577.441 276.654 580.956 271.187 584.834 264.913C585.637 266.075 586.095 266.704 585.917 268.2C585.21 274.15 576.217 280.639 571.823 284.068Z"/>
	<path fill="#9F8BE8" d="M300.32 725.369C300.804 716.054 302.413 706.62 303.427 697.334L309.199 640.724C312.145 610.111 315.338 579.521 318.777 548.959C326.364 480.843 335.031 419.396 358.844 354.622C366.354 334.195 375.699 312.211 388.455 294.469C397.618 281.725 410.023 271.197 425.835 268.653C430.389 268.107 435.134 268.267 439.706 268.508C437.39 269.203 435.083 269.929 432.786 270.686C418.118 275.62 409.374 283.618 402.555 297.53C401.84 298.988 401.162 300.16 401.719 301.768L403.059 302.363C405.653 301.731 412.23 289.749 414.885 286.838C424.76 276.012 451.246 267.814 465.354 270.916C469.415 271.809 472.893 273.88 476.518 275.812C485.946 280.835 493.935 281.573 504.524 281.15C493.331 285.715 480.981 286.618 469.243 283.73C465.554 282.813 460.461 279.135 456.675 280.048L456.532 280.835C459.356 285.675 465.023 287.164 470.12 288.661C480.745 291.781 495.349 289.896 505.296 285.275C510.286 282.957 514.883 279.754 519.693 277.074C522.388 280.83 524.656 285.048 527.062 289.003C523.594 294.081 520.015 298.638 515.378 302.706C504.559 312.197 491.821 318.659 477.137 317.581C464.162 316.629 451.484 309.157 442.76 299.767C439.44 296.194 436.69 292.07 433.484 288.371C429.94 288.457 427.307 290.289 424.768 292.637C415.765 300.959 411.059 314.782 407.049 326.081C384.837 388.674 382.232 455.038 379.622 520.737L376.402 587.128C375.034 600.482 374.717 614.114 373.866 627.527C372.326 650.588 370.981 673.661 369.833 696.744C368.604 723.882 367.765 751.159 365.717 778.245C349.494 772.791 342.145 760.872 332.85 747.484C324.12 734.911 315.527 728.126 300.32 725.369ZM451.401 285.139C450.796 286.498 450.329 287.047 450.816 288.591C452.242 293.107 459.768 296.069 463.863 297.56C476.051 301.997 490.613 300.574 502.277 295.092C503.395 294.567 504.473 293.956 505.539 293.333C506.605 292.479 507.555 291.879 507.958 290.504C507.286 289.684 507.659 289.826 506.635 289.741C503.232 289.457 498.366 291.732 495.171 292.926C484.15 296.982 471.968 296.489 461.312 291.553C457.738 289.89 454.926 286.465 451.401 285.139Z"/>
	<path fill="#FEFEFE" d="M573.135 288.842C580.297 284.345 586.635 277.134 590.024 269.408C590.64 269.955 591.197 270.811 591.574 271.541C593.032 274.368 593.123 277.318 592.06 280.306C589.615 287.184 583.318 292.384 576.928 295.48C575.407 293.429 574.313 291.101 573.135 288.842Z"/>
	<path fill="#FEFEFE" d="M757.576 366.242C786.893 345.246 803.375 313.149 819.586 281.951C825.729 290.924 832.685 311.405 836.94 321.986C841.743 333.928 846.678 345.797 851.243 357.834C853.285 363.221 855.678 368.656 857.006 374.271C859.168 383.403 858.484 393.519 858.733 402.864C859.344 425.814 859.215 448.753 859.742 471.696C846.124 477.883 812.873 490.542 798.669 486.716C783.376 479.663 773.034 468.303 762.067 455.944C762.26 439.766 762.315 423.531 761.059 407.39C759.997 393.752 757.654 379.906 757.576 366.242Z"/>
	<path fill="#060404" d="M505.539 293.333C504.473 293.956 503.395 294.567 502.277 295.092C490.613 300.574 476.051 301.997 463.863 297.56C459.768 296.069 452.242 293.107 450.816 288.591C450.329 287.047 450.796 286.498 451.401 285.139C454.926 286.465 457.738 289.89 461.312 291.553C471.968 296.489 484.15 296.982 495.171 292.926C498.366 291.732 503.232 289.457 506.635 289.741C507.659 289.826 507.286 289.684 507.958 290.504C507.555 291.879 506.605 292.479 505.539 293.333Z"/>
	<path fill="#464141" d="M407.126 340.447C412.653 323.878 417.703 304.08 431.518 292.434C432.695 293.856 433.323 295.505 434.341 297.021C437.364 301.522 441.44 305.765 445.763 309.033C457.377 317.811 471.019 324.119 485.866 322.033C501.825 319.792 519.205 307.781 528.699 295.081C529.991 296.973 531.361 298.812 532.806 300.59C542.565 312.611 599.407 378.885 610.496 379.101C611.74 379.125 612.554 378.741 613.449 377.95C613.322 376.869 613.232 376.495 612.512 375.618C610.039 372.607 606.098 370.84 603.042 368.499C599.43 365.733 595.962 362.483 592.658 359.359C576.776 344.34 561.984 327.835 547.878 311.152C556.394 305.461 564.342 302.99 574.425 301.595C577.775 306.199 580.673 311.127 584.084 315.698C597.575 333.782 611.649 350.703 619.432 372.294C623.403 383.311 625.691 395.527 620.287 406.501C617.644 411.867 613.283 416.095 607.554 417.988C584.9 425.47 545.824 401.882 526.935 390.363C521.884 387.283 516.106 382.604 510.908 380.142C509.263 379.362 508.058 379.188 506.353 379.831L506.101 380.847C508.637 386.612 518.536 387.953 522.002 393.356L521.748 394.123C514.26 395.899 510.317 386.141 504.084 386.293C503.092 387.346 502.845 387.446 502.659 388.855C504.365 391.353 506.788 393.358 509.411 394.841C515.942 398.535 520.973 398.216 527.922 396.206C538.631 401.638 547.344 408.029 558.824 412.534C563.751 450.593 572.335 488.077 575.198 526.456C567.883 529.987 559.877 530.328 551.9 530.464C549.628 530.503 546.26 530.116 544.163 530.98C542.748 532.839 543.24 541.194 542.941 543.862C540.752 563.379 538.138 582.863 536.326 602.42C535.161 609.721 534.644 617.307 533.885 624.669C531.055 652.129 529.874 679.657 527.966 707.189C527.271 717.224 526.997 727.523 525.643 737.477C525.073 741.67 523.154 745.236 522.271 749.295C519.387 762.561 516.66 775.792 513.516 789.009C505.235 823.818 498.009 862.49 497.116 898.244C490.244 898.553 483.305 898.008 476.458 897.454C476.216 893.015 476.366 888.562 476.095 884.124C475.338 871.738 474.053 859.348 473.637 846.943C473.206 834.099 473.373 821.182 473.432 808.333C473.508 791.921 473.75 775.318 475.924 759.031C483.554 760.694 513.191 764.381 519.154 760.683C519.839 759.443 519.807 759.38 519.612 757.968C515.068 757.106 509.792 757.666 505.146 757.643C500.525 757.598 495.91 757.294 491.323 756.73C461.998 753.345 424.713 742.845 398.441 729.11C403.408 718.56 405.982 704.063 408.295 692.596C412.869 669.916 417.004 646.27 418.263 623.139C418.677 615.526 418.501 607.866 418.612 600.241C418.91 579.649 418.961 558.933 420.326 538.383C421.121 526.225 422.262 514.092 423.747 501.998C425.28 488.691 427.097 475.574 426.574 462.138C425.519 434.981 419.28 407.711 414.631 380.994C412.33 367.77 411.201 353.231 407.126 340.447Z"/>
	<path fill="#060404" d="M737.671 370.309C735.774 370.153 733.994 370.11 732.471 368.821C731.318 367.845 730.545 366.583 730.608 365.017C730.696 362.832 731.876 361.39 733.372 359.943C735.687 359.897 737.061 360.137 738.721 361.835C739.875 363.015 740.387 364.507 740.273 366.143C740.14 368.05 738.975 369.102 737.671 370.309Z"/>
	<path fill="#060404" d="M888.71 388.611C884.978 390.267 880.525 389.691 876.634 388.764C872.464 387.771 867.028 385.759 864.905 381.762C864.03 380.115 864.416 377.725 864.989 376.028C870.402 375.56 883.489 377.864 888.167 380.454C889.464 381.172 890.885 382.287 891.143 383.85C891.475 385.868 889.958 387.288 888.71 388.611Z"/>
	<path fill="#060404" d="M743.302 406.833C741.387 406.613 739.866 406.338 738.531 404.781C737.628 403.728 737.366 402.672 737.434 401.311C737.545 399.106 739.028 397.747 740.597 396.415C742.282 396.478 743.36 396.503 744.581 397.853C745.744 399.14 746.241 400.656 746.082 402.382C745.881 404.565 744.942 405.565 743.302 406.833Z"/>
	<path fill="#060404" d="M743.804 446.433C742.291 446.534 740.957 446.489 739.666 445.526C738.432 444.604 737.773 443.333 737.724 441.795C737.652 439.522 738.569 438.489 740.088 436.999L742.507 436.88C743.701 437.429 744.566 437.922 745.414 438.952C746.335 440.07 746.751 441.784 746.421 443.218C746.061 444.784 745.002 445.514 743.804 446.433Z"/>
	<path fill="#9F8BE8" d="M722.259 847.156C722.81 840.13 724.203 833.063 724.971 826.036C726.395 811.98 727.25 797.872 727.535 783.747C728.203 736.945 725.539 690.355 724.623 643.589C723.744 598.653 724.491 553.482 725.377 508.55C725.458 504.479 724.28 489.504 725.959 486.912L729.001 487.904C739.74 485.844 752.739 468.606 760.292 460.863C769.765 471.143 779.619 482.737 792.428 488.912C796.411 490.831 800.731 492.078 805.17 492.189C821.526 492.6 844.045 482.328 859.498 476.879C859.634 487.424 859.062 499.385 861.661 509.638C860.766 511.25 859.896 512.876 859.052 514.516C853.583 525.272 851.4 535.446 852.161 547.481C852.323 550.037 852.401 553.03 853.28 555.449C853.845 557.004 854.699 558.212 856.284 558.866C857.43 559.339 858.543 559.125 859.614 558.603C863.48 554.554 864.968 547.088 866.78 541.812C866.468 545.674 866.302 550.073 864.922 553.726C862.715 559.57 854.047 568.159 855.045 574.315C855.275 575.737 855.753 576.59 856.948 577.404C859.622 579.224 863.682 578.307 866.639 577.874C865.144 594.92 864.084 612.001 863.462 629.101C862.921 640.944 861.962 652.895 862.804 664.74C864.43 687.599 871.636 711.483 874.714 734.672C878.359 762.131 876.132 792.112 875.511 819.83C875.311 830.943 874.922 842.052 874.344 853.152C873.985 859.965 873.998 867.3 872.184 873.909C858.106 879.572 840.515 877.193 826.525 872.535C823.709 860.311 823.014 846.853 821.515 834.385C819.121 815.565 816.585 796.762 813.909 777.98C805.304 716.419 795.006 655.107 783.027 594.112C779.88 576.078 775.783 558.206 772.293 540.235C769.568 526.201 767.472 511.989 764.65 497.998C764.358 496.555 764.096 495.437 763.303 494.196C762.303 493.755 762.368 493.777 761.334 494.144C760.326 495.914 760.369 497.38 760.488 499.361C761.105 509.653 763.676 520.387 765.539 530.565C770.605 558.252 776.989 585.698 782.194 613.37C784.128 623.646 786.66 634.273 787.661 644.674C788.899 657.548 787.011 670.907 787.007 683.844C787.004 694.852 788.092 705.849 787.994 716.867C787.736 745.805 784.824 773.784 780.439 802.37C777.618 820.76 774.88 838.621 768.164 856.079C752.786 856.886 736.208 853.619 722.259 847.156Z"/>
	<path fill="#FEFEFE" d="M865.912 505.695C865.366 503.32 865.046 500.935 864.72 498.523C877.238 500.595 889.502 501.598 902.176 500.349C901.722 502.789 901.366 505.261 900.965 507.711C889.325 510.003 877.326 508.439 865.912 505.695Z"/>
	<path fill="#FEFEFE" d="M880.713 553.975C881.792 551.004 884.565 544.243 883.099 541.227C882.774 540.558 882.704 540.749 881.873 540.474C878.93 543.281 876.748 552.943 874.909 557.045C873.034 561.229 870.941 564.714 868.068 568.296C866.806 569.869 865.388 571.784 863.646 572.834C862.451 573.555 861.834 573.512 860.507 573.258C858.799 570.185 865.945 561.959 867.596 558.855C868.608 556.951 869.303 554.779 869.952 552.725C871.631 547.405 871.83 542.019 871.19 536.502C870.894 533.955 870.582 530.284 868.484 528.605C862.354 529.822 863.017 550.159 858.273 554.179C857.969 553.824 857.846 553.72 857.631 553.237C856.442 550.571 856.225 546.901 856.168 544.008C855.91 530.902 860.822 521.945 866.09 510.405C877.286 513.066 887.71 513.718 899.156 512.992C899.37 521.414 900.744 530.879 899.852 539.181C898.506 539.819 896.888 540.445 895.992 541.679C895.021 543.017 894.594 545.055 894.223 546.643C892.249 555.103 890.894 560.929 883.643 566.601C887.665 560.617 891.349 553.063 893.366 546.108C893.774 544.701 894.147 543.541 893.437 542.201L890.946 541.868C889.459 544.067 888.7 547.691 887.749 550.23C885.838 555.478 883.17 560.419 879.829 564.894C878.012 567.331 874.297 572.018 871.242 572.472C870.942 571.195 879.493 557.02 880.713 553.975Z"/>
	<path fill="#464141" d="M561.808 534.209C564.283 533.939 566.752 533.538 569.218 533.188L569.554 533.197C570.926 535.346 570.265 550.356 570.284 554.179C570.488 593.605 565.357 632.424 559.473 671.326C554.911 701.485 549.834 731.882 543.491 761.717C534.377 804.582 522.862 848.034 519.686 891.856C515.53 893.401 511.363 894.916 507.185 896.401L506.317 896.348C505.879 894.667 511.175 878.087 511.916 875.148C517.357 852.637 522.206 829.986 526.456 807.219C529.518 790.482 532.43 773.717 535.189 756.927C537.463 743.827 540.031 730.727 541.799 717.55C546.032 686.008 548.451 654.351 552.043 622.754C555.383 593.37 560.394 563.757 561.808 534.209Z"/>
	<path fill="#FEFEFE" d="M501.537 895.566C501.231 885.015 502.703 874.475 504 864.027C508.511 827.706 517.737 792.665 525.201 756.934C526.194 752.181 528.722 747.783 529.465 742.984C531.491 729.895 531.342 716.106 532.434 702.873C534.095 682.742 534.921 662.576 536.52 642.457C538.013 623.665 540.27 604.717 542.447 585.993C543.207 579.462 543.781 583.285 547.467 580.358C549.218 575.989 549.462 540.761 548.531 534.849C551.712 534.789 554.918 534.93 558.101 534.989C555.85 548.014 555.274 561.498 553.724 574.641L542.109 678.525C537.976 714.353 532.579 750.024 525.927 785.471C519.733 819.778 513.027 853.764 504.169 887.506L501.537 895.566Z"/>
	<path fill="#464141" d="M443.329 882.365C441.501 866.427 442.352 848.643 442.718 832.524C443.327 805.712 443.955 778.805 447.526 752.187C455.389 754.817 463.492 756.443 471.595 758.127C469.019 769.079 469.174 781.776 468.895 793.012C468.209 813.49 468.343 833.988 469.297 854.457C469.614 861.099 471.921 877.587 471.06 882.986L470.033 883.39C461.001 883.861 452.206 884.541 443.329 882.365Z"/>
	<path fill="#060404" d="M165.913 793.382C177.088 788.94 192.719 783.328 204.502 788.519C221.486 796.002 227.865 816.556 237.667 830.698C263.615 835.661 304.595 841.831 320.804 864.824C323.63 868.832 325.108 873.501 324.068 878.384C321.852 888.778 310.362 897.913 301.775 903.135C291.508 909.378 277.817 915.449 265.699 916.313L265.306 922.717C280.413 929.822 295.226 937.654 310.205 945.037C319.766 949.749 330.144 953.988 339.281 959.4C340.756 960.273 342.72 961.388 343.298 963.117C343.78 964.562 343.219 966.086 342.424 967.299C341.269 969.063 339.329 970.489 337.226 970.845C333.728 971.437 268.976 940.507 259.429 936.517C256.19 939.641 252.848 941.65 248.825 943.612C249.114 947.454 249.437 951.296 249.678 955.141C252 955.74 254.328 956.413 256.688 956.842C259.456 955.556 263.006 953.872 266.14 954.676C267.318 954.979 267.985 955.788 268.365 956.897C268.723 957.94 268.912 959.09 269.136 960.17C272.224 963.003 277.738 960.193 283.306 965.243C283.98 966.519 284.598 967.824 285.159 969.155C286.541 972.514 286.722 976.325 285.254 979.692C283.706 983.241 280.708 985.841 277.053 987.064C273.073 988.395 268.196 988.034 264.492 986.044C260.278 983.781 258.628 980.663 257.254 976.27C239.089 968.064 220.305 960.77 202.586 951.62C193.793 955.5 182.841 956.911 173.385 958.473L133.902 964.931C127.645 965.893 121.265 966.357 115.078 967.707C108.26 965.225 71.3627 950.991 68.1557 946.755C61.829 938.399 54.9899 918.944 49.1398 908.443C43.6271 906.325 36.0695 904.466 31.4133 900.937C30.2955 900.09 29.5599 899.092 29.4924 897.643C29.3956 895.566 30.538 893.592 31.7731 892.005C45.8063 873.982 93.5796 850.342 116.719 847.192C116.748 843.94 116.915 840.704 118.194 837.668C120.805 831.471 127.071 829.21 132.839 826.867C139.284 810.373 151.006 801.878 165.913 793.382ZM191.987 790.691C174.802 792.123 156.9 800.09 145.533 813.392C142.51 816.93 140.114 820.958 137.852 825.011C140.967 824.332 144.102 823.702 147.177 822.854C162.182 819.362 189.387 814.57 198.016 800.616C199.874 797.611 200.937 794.401 201.829 791.009C198.55 790.788 195.274 790.487 191.987 790.691ZM205.407 793.226C202.296 802.692 196.955 810.16 187.897 814.696C180.67 818.314 172.368 820.819 164.578 822.963C153.912 825.898 125.274 829.773 121.558 841.002C118.788 849.373 131.939 878.695 135.829 887.326C145.6 892.253 155.765 896.493 165.652 901.202C183.612 909.78 201.474 918.561 219.236 927.542C228.427 932.271 237.672 937.071 247.25 940.981C253.762 937.225 258.155 932.073 260.197 924.671C265.596 905.101 247.401 861.593 238.764 842.963C229.125 845.815 220.482 850.8 211.036 853.976C208.183 847.469 207.16 839.459 209.817 832.696C211.309 828.899 214.088 826.034 217.852 824.452C221.359 822.978 224.766 823.101 228.476 823.199C222.203 812.45 215.691 800.68 205.407 793.226ZM221.68 827.578C218.269 828.619 215.62 830.064 213.956 833.373C211.651 837.957 212.298 844.342 213.19 849.255C216.904 847.405 220.6 845.484 224.374 843.759C228.764 841.952 233.142 840.22 237.774 839.129C235.277 835.036 232.565 828.643 227.395 827.543C225.601 827.161 223.5 827.453 221.68 827.578ZM239.942 835.616C251.328 858.218 261.862 887.407 265.592 912.497C279.399 910.241 292.868 904.385 304.344 896.429C310.63 891.899 318.641 885.634 319.756 877.385C320.351 872.984 318.486 868.881 315.774 865.513C301.485 847.766 262.381 837.682 239.942 835.616ZM117.098 850.66C93.6762 856.231 44.9414 877.741 32.5642 897.68C43.9121 902.78 55.818 906.558 67.75 910.019C82.5337 914.289 97.7943 918.601 113.31 918.506C115.337 916.436 117.327 914.302 119.414 912.295C115.516 910.589 110.852 909.051 109.041 904.789C108.524 903.571 108.309 902.095 108.779 900.829C109.697 898.353 113.178 896.494 115.533 895.693C117.446 895.043 119.507 895.386 121.444 894.828C125.328 893.709 129.137 889.527 132.465 887.21C128.09 878.295 123.995 869.335 120.71 859.955C119.974 857.852 118.649 851.928 117.098 850.66ZM133.335 891.911C131.15 893.258 126.873 895.232 126.08 897.741C127.168 899.464 129.832 900.63 131.62 901.542C148.028 909.917 165.329 916.86 182.159 924.37C201.874 933.168 221.373 942.533 241.229 951.003L245.666 953.085C245.433 950.205 245.158 947.328 244.843 944.455C229.097 937.421 139.731 891.019 133.335 891.911ZM116.105 899.512C114.802 900.479 113.311 901.324 112.607 902.835C112.991 904.467 114.148 905.061 115.558 905.946C125.878 912.423 138.154 916.622 149.17 921.949C184.977 939.233 221.122 955.809 257.584 971.668C258.529 969.523 260.266 966.738 259.867 964.342C254.402 960.45 238.437 954.61 231.398 951.406L153.856 915.975C145.928 912.332 138.045 908.592 130.209 904.756C126.867 903.129 123.249 900.841 119.772 899.619C118.638 899.221 117.278 899.41 116.105 899.512ZM54.7142 910.244C60.2893 921.672 65.4207 933.924 71.8336 944.875C85.1793 951.997 99.9745 956.138 113.192 963.41L112.541 922.054C92.4125 921.955 73.6713 916.476 54.7142 910.244ZM122.742 914.551C120.715 916.412 118.684 918.223 116.545 919.958C116.714 934.575 117 949.19 117.403 963.803C138.259 960.016 159.275 956.964 180.099 953.091C185.948 951.928 191.665 950.569 197.406 948.942C187.333 943.979 176.716 940.247 166.568 935.467C151.986 928.598 137.643 920.7 122.742 914.551ZM264.478 927.161L262.036 933.151C279.271 940.227 296.019 948.504 313.003 956.167C320.864 959.714 329.494 964.523 337.959 966.21L339.12 965.057L338.956 964.181C329.094 957.698 314.887 952.102 304.098 946.915C290.806 940.524 277.82 933.415 264.478 927.161ZM269.522 965.595C266.453 966.829 263.8 968.102 262.399 971.292C261.482 973.383 261.467 975.603 262.351 977.711C263.361 980.117 265.556 982.009 267.96 982.948C270.174 983.812 272.339 983.828 274.676 983.744C277.615 982.47 280.083 981.006 281.351 977.911C282.378 975.452 282.293 972.669 281.119 970.276C280.089 968.157 278.047 966.249 275.769 965.558C273.863 964.979 271.476 965.368 269.522 965.595Z"/>
	<path fill="#464141" d="M137.852 825.011C140.114 820.958 142.51 816.93 145.533 813.392C156.9 800.09 174.802 792.123 191.987 790.691C195.274 790.487 198.55 790.788 201.829 791.009C200.937 794.401 199.874 797.611 198.016 800.616C189.387 814.57 162.182 819.362 147.177 822.854C144.102 823.702 140.967 824.332 137.852 825.011Z"/>
	<path fill="#9F8BE8" d="M135.829 887.326C131.939 878.695 118.788 849.373 121.558 841.002C125.274 829.773 153.912 825.898 164.578 822.963C172.368 820.819 180.67 818.314 187.897 814.696C196.955 810.16 202.296 802.692 205.407 793.226C215.691 800.68 222.203 812.45 228.476 823.199C224.766 823.101 221.359 822.978 217.852 824.452C214.088 826.034 211.309 828.899 209.817 832.696C207.16 839.459 208.183 847.469 211.036 853.976C220.482 850.8 229.125 845.815 238.764 842.963C247.401 861.593 265.596 905.101 260.197 924.671C258.155 932.073 253.762 937.225 247.25 940.981C237.672 937.071 228.427 932.271 219.236 927.542C201.474 918.561 183.612 909.78 165.652 901.202C155.765 896.493 145.6 892.253 135.829 887.326ZM176.222 842.62C169.252 843.861 163.367 846.478 159.143 852.453C154.84 858.539 154.088 865.764 155.503 872.916C156.029 875.573 156.818 879.218 159.07 880.966C159.723 881.473 160.2 881.362 160.983 881.419C164.695 879.852 167.999 877.212 171.376 875.033C175.405 872.652 199.153 861.014 199.955 859.438C200.108 855.93 197.562 852.875 195.299 850.42C191.24 846.018 185.564 842.8 179.473 842.609C178.388 842.575 177.306 842.561 176.222 842.62ZM227.273 864.114C216.245 865.994 205.102 872.567 198.522 881.717C197.126 883.657 195.262 886.48 195.471 889.011C195.581 890.342 196.286 891.356 197.374 892.08C200.617 894.238 205.436 893.846 209.117 893.451C219.673 891.659 231.569 886.902 237.879 877.722C239.462 875.419 241.394 871.75 240.49 868.861C239.938 867.097 238.376 866.045 236.74 865.419C233.707 864.258 230.496 863.893 227.273 864.114Z"/>
	<path fill="#464141" d="M213.19 849.255C212.298 844.342 211.651 837.957 213.956 833.373C215.62 830.064 218.269 828.619 221.68 827.578C223.5 827.453 225.601 827.161 227.395 827.543C232.565 828.643 235.277 835.036 237.774 839.129C233.142 840.22 228.764 841.952 224.374 843.759C220.6 845.484 216.904 847.405 213.19 849.255Z"/>
	<path fill="#464141" d="M265.592 912.497C261.862 887.407 251.328 858.218 239.942 835.616C262.381 837.682 301.485 847.766 315.774 865.513C318.486 868.881 320.351 872.984 319.756 877.385C318.641 885.634 310.63 891.899 304.344 896.429C292.868 904.385 279.399 910.241 265.592 912.497Z"/>
	<path fill="#060404" d="M171.376 875.033C167.999 877.212 164.695 879.852 160.983 881.419C160.2 881.362 159.723 881.473 159.07 880.966C156.818 879.218 156.029 875.573 155.503 872.916C154.088 865.764 154.84 858.539 159.143 852.453C163.367 846.478 169.252 843.861 176.222 842.62C177.306 842.561 178.388 842.575 179.473 842.609C185.564 842.8 191.24 846.018 195.299 850.42C197.562 852.875 200.108 855.93 199.955 859.438C199.153 861.014 175.405 872.652 171.376 875.033ZM175.487 847.111C169.819 848.645 164.362 850.616 161.234 855.995C157.659 862.142 158.883 869.441 160.813 875.899C160.954 876.374 161.104 876.846 161.263 877.314C164.991 874.424 168.741 871.819 172.758 869.354C180.276 865.159 188.04 861.741 195.663 857.805C193.099 852.89 189.192 849.721 183.879 848.052C181.057 847.165 178.425 846.902 175.487 847.111Z"/>
	<path fill="#464141" d="M161.263 877.314C161.104 876.846 160.954 876.374 160.813 875.899C158.883 869.441 157.659 862.142 161.234 855.995C164.362 850.616 169.819 848.645 175.487 847.111C178.425 846.902 181.057 847.165 183.879 848.052C189.192 849.721 193.099 852.89 195.663 857.805C188.04 861.741 180.276 865.159 172.758 869.354C168.741 871.819 164.991 874.424 161.263 877.314Z"/>
	<path fill="#464141" d="M32.5642 897.68C44.9414 877.741 93.6762 856.231 117.098 850.66C118.649 851.928 119.974 857.852 120.71 859.955C123.995 869.335 128.09 878.295 132.465 887.21C129.137 889.527 125.328 893.709 121.444 894.828C119.507 895.386 117.446 895.043 115.533 895.693C113.178 896.494 109.697 898.353 108.779 900.829C108.309 902.095 108.524 903.571 109.041 904.789C110.852 909.051 115.516 910.589 119.414 912.295C117.327 914.302 115.337 916.436 113.31 918.506C97.7943 918.601 82.5337 914.289 67.75 910.019C55.818 906.558 43.9121 902.78 32.5642 897.68Z"/>
	<path fill="#FEFEFE" d="M713.813 860.865C716.816 858.125 719.628 855.271 722.414 852.312C726.796 853.275 731.041 855.516 735.381 856.786C742.954 859.001 751.126 859.684 758.931 860.665C754.331 864.374 749.709 866.141 744.138 867.967L727.208 874.212C723.589 868.553 719.193 864.8 713.813 860.865Z"/>
	<path fill="#060404" d="M209.117 893.451C205.436 893.846 200.617 894.238 197.374 892.08C196.286 891.356 195.581 890.342 195.471 889.011C195.262 886.48 197.126 883.657 198.522 881.717C205.102 872.567 216.245 865.994 227.273 864.114C230.496 863.893 233.707 864.258 236.74 865.419C238.376 866.045 239.938 867.097 240.49 868.861C241.394 871.75 239.462 875.419 237.879 877.722C231.569 886.902 219.673 891.659 209.117 893.451ZM228.701 868.161C218.293 869.429 207.948 875.926 201.354 884.029C200.367 885.242 199.52 886.444 199.676 888.077C200.514 889.14 201.081 889.549 202.461 889.76C204.24 890.033 206.299 889.665 208.065 889.404C218.603 887.446 229.045 883.458 235.413 874.302C236.366 872.931 236.769 872.034 236.579 870.313C235.025 868.562 232.784 868.271 230.496 868.107C229.889 868.064 229.306 868.112 228.701 868.161Z"/>
	<path fill="#464141" d="M208.065 889.404C206.299 889.665 204.24 890.033 202.461 889.76C201.081 889.549 200.514 889.14 199.676 888.077C199.52 886.444 200.367 885.242 201.354 884.029C207.948 875.926 218.293 869.429 228.701 868.161C229.306 868.112 229.889 868.064 230.496 868.107C232.784 868.271 235.025 868.562 236.579 870.313C236.769 872.034 236.366 872.931 235.413 874.302C229.045 883.458 218.603 887.446 208.065 889.404Z"/>
	<path fill="#FEFEFE" d="M690.25 881.132L698.347 874.865C700.887 875.389 705.103 876.755 707.165 878.275C708.263 879.085 708.431 879.627 708.625 880.927C707.366 883.839 703.977 884.758 701.267 885.954C697.802 885.289 693.533 882.625 690.25 881.132Z"/>
	<path fill="#FEFEFE" d="M821.543 892.636C824.919 888.048 828.157 883.429 832.102 879.301C839.531 879.201 846.86 881.704 854.422 881.628C858.696 881.586 868.419 878.995 871.828 880.29C872.297 880.923 872.543 880.989 872.511 881.742C872.268 887.464 862.023 897.392 858.128 901.11C855.874 903.192 853.41 904.986 850.955 906.819C841.799 897.292 834.69 893.692 821.543 892.636Z"/>
	<path fill="#FEFEFE" d="M443.244 895.481C443.834 892.857 444.269 890.25 444.658 887.591C453.741 888.486 462.886 888.57 471.984 887.844C472.223 890.786 472.917 894.255 472.291 897.152L471.381 897.591C461.543 898.804 452.795 898.093 443.244 895.481Z"/>
	<path fill="#464141" d="M241.229 951.003C221.373 942.533 201.874 933.168 182.159 924.37C165.329 916.86 148.028 909.917 131.62 901.542C129.832 900.63 127.168 899.464 126.08 897.741C126.873 895.232 131.15 893.258 133.335 891.911C139.731 891.019 229.097 937.421 244.843 944.455C245.158 947.328 245.433 950.205 245.666 953.085L241.229 951.003Z"/>
	<path fill="#FEFEFE" d="M482.48 910.112C481.838 909.781 481.085 909.439 480.625 908.857C479.514 907.451 479.072 905.151 479.213 903.404C480.628 901.486 484.386 902.363 486.608 902.469C496.912 902.96 506.381 901.033 516.066 897.599C516.872 898.751 514.441 908.176 514.362 910.647C503.663 913.826 493.162 912.723 482.48 910.112Z"/>
	<path fill="#464141" d="M435.69 932.833C436.034 922.463 436.365 907.163 441.967 898.255C451.646 903.508 461.689 902.558 472.291 901.897C473.297 903.332 474.692 905.011 474.67 906.818C473.877 908.483 471.789 909.226 470.205 910.043C468.508 918.6 468.136 927.188 467.718 935.875L467.182 936.825C459.114 939.012 443.628 935.8 435.69 932.833Z"/>
	<path fill="#9F8BE8" d="M257.584 971.668C221.122 955.809 184.977 939.233 149.17 921.949C138.154 916.622 125.878 912.423 115.558 905.946C114.148 905.061 112.991 904.467 112.607 902.835C113.311 901.324 114.802 900.479 116.105 899.512C117.278 899.41 118.638 899.221 119.772 899.619C123.249 900.841 126.867 903.129 130.209 904.756C138.045 908.592 145.928 912.332 153.856 915.975L231.398 951.406C238.437 954.61 254.402 960.45 259.867 964.342C260.266 966.738 258.529 969.523 257.584 971.668Z"/>
	<path fill="#FEFEFE" d="M537.546 921.311C539.414 919.864 538.467 912.827 539.316 910.116L540.183 909.877C541.019 910.396 541.265 910.83 541.455 911.82C541.732 913.258 539.736 922.891 538.986 924.162C536.098 925.448 527.986 922.374 524.867 921.19C523.241 920.573 522.183 919.747 521.495 918.087C519.495 913.26 522.551 903.881 524.741 899.394C526.496 902.315 521.356 911.222 522.833 915.709C523.223 916.896 523.898 917.931 525.031 918.494C528.18 915.267 525.537 906.645 528.118 902.266L528.867 902.085L530.006 903.078C531.633 906.708 527.793 911.084 527.066 914.701C526.791 916.066 527.022 917.308 527.946 918.373C530.317 921.105 534.24 921.028 537.546 921.311Z"/>
	<path fill="#FEFEFE" d="M533.411 918.824L532.328 917.889C530.823 913.486 532.403 909.4 533.9 905.229L535.364 906.637C536.684 910.258 534.959 915.457 533.411 918.824Z"/>
	<path fill="#FEFEFE" d="M800.888 914.535C802.939 911.815 805.036 909.498 807.872 907.574C815.422 906.979 823.369 907.395 830.046 911.374C832.167 912.637 835.339 915.211 835.566 917.912C835.683 919.305 835.188 919.695 834.312 920.6C832.697 921.159 831.585 920.628 830.052 920.109C818.475 915.953 813.079 915.295 800.888 914.535Z"/>
	<path fill="#464141" d="M71.8336 944.875C65.4207 933.924 60.2893 921.672 54.7142 910.244C73.6713 916.476 92.4125 921.955 112.541 922.054L113.192 963.41C99.9745 956.138 85.1793 951.997 71.8336 944.875Z"/>
	<path fill="#464141" d="M471.573 944.059C471.441 939.601 472.002 916.167 473.887 913.307C474.248 912.759 474.761 912.327 475.199 911.837C478.591 912.017 481.293 913.879 484.492 914.828C494.899 917.917 506.464 917.034 516.791 914.178C517.13 917.379 517.578 920.465 518.264 923.611C518.381 923.674 518.496 923.74 518.615 923.798C525.162 927.023 551.198 933.218 558.191 930.293C559.277 929.839 559.636 929.393 560.055 928.337C558.827 925.13 556.342 922.132 554.379 919.311C560.688 920.396 566.713 922.808 572.96 924.21C580.241 925.845 588.526 925.941 595.403 928.845C597.819 929.865 598.574 931.926 599.485 934.175C599.579 935.149 599.561 936.008 599.466 936.982C596.651 939.387 591.451 940.458 587.924 941.365C573.636 945.038 558.376 946.778 543.651 947.323C536.023 947.606 528.377 947.388 520.752 947.717C508.133 948.263 494.445 950.309 481.912 948.27C478.011 947.636 474.925 946.025 471.573 944.059Z"/>
	<path fill="#FEFEFE" d="M543.512 925.337C544.007 921.487 544.081 917.683 544.773 913.836C548.171 916.88 553.15 921.588 553.974 926.266L553.37 926.907C549.998 926.589 546.812 926.1 543.512 925.337Z"/>
	<path fill="#464141" d="M116.545 919.958C118.684 918.223 120.715 916.412 122.742 914.551C137.643 920.7 151.986 928.598 166.568 935.467C176.716 940.247 187.333 943.979 197.406 948.942C191.665 950.569 185.948 951.928 180.099 953.091C159.275 956.964 138.259 960.016 117.403 963.803C117 949.19 116.714 934.575 116.545 919.958Z"/>
	<path fill="#7246D9" d="M262.036 933.151L264.478 927.161C277.82 933.415 290.806 940.524 304.098 946.915C314.887 952.102 329.094 957.698 338.956 964.181L339.12 965.057L337.959 966.21C329.494 964.523 320.864 959.714 313.003 956.167C296.019 948.504 279.271 940.227 262.036 933.151Z"/>
	<path fill="#FEFEFE" d="M437.565 942.961C436.769 941.376 436.356 939.574 435.861 937.873C439.686 939.235 443.395 940.133 447.431 940.596C450.601 940.959 466.192 940.484 467.615 941.726C467.775 942.984 468.053 943.166 467.338 944.275C457.674 946.045 446.712 947.194 437.565 942.961Z"/>
	<path fill="#FEFEFE" d="M472.031 949.616C485.931 956.46 504.032 952.996 518.939 952.362C527.542 951.995 536.168 952.247 544.774 951.9C562.748 951.176 579.539 948.444 596.836 943.587L597.454 943.601L597.254 944.113C573.888 955.906 543.377 952.439 518.051 954.152C517.12 955.222 516.295 956.433 515.442 957.57C503.598 960.851 485.726 962.258 474.271 956.907C473.122 954.628 472.644 952.081 472.031 949.616Z"/>
	<path fill="#9F8BE8" d="M274.676 983.744C272.339 983.828 270.174 983.812 267.96 982.948C265.556 982.009 263.361 980.117 262.351 977.711C261.467 975.603 261.482 973.383 262.399 971.292C263.8 968.102 266.453 966.829 269.522 965.595C271.476 965.368 273.863 964.979 275.769 965.558C278.047 966.249 280.089 968.157 281.119 970.276C282.293 972.669 282.378 975.452 281.351 977.911C280.083 981.006 277.615 982.47 274.676 983.744Z"/>
</svg>
