<?xml version="1.0" encoding="utf-8" ?>
<svg xmlns="http://www.w3.org/2000/svg" xmlns:xlink="http://www.w3.org/1999/xlink" width="1024" height="1024">
	<path fill="#DAD8D8" d="M0 0L596.358 0L601.938 0L789.107 0L796.162 0L879.733 0L885.966 0L1024 0L1024 666.224L1024 766.264L1024 820.789L1024 918.355L1024 975.028L1024 1024L850.543 1024L0 1024L0 0Z"/>
	<defs>
		<linearGradient id="gradient_0" gradientUnits="userSpaceOnUse" x1="472.0098" y1="242.959" x2="1006.4564" y2="517.90491">
			<stop offset="0" stop-color="black"/>
			<stop offset="1" stop-color="#080224"/>
		</linearGradient>
	</defs>
	<path fill="url(#gradient_0)" d="M596.358 0L601.938 0L789.107 0L796.162 0L879.733 0L885.966 0L1024 0L1024 666.224L1024 766.264L1024 820.789C1019.02 819.017 1013.69 817.769 1008.61 816.267L976.801 806.839L865.001 774.552C804.928 757.537 745.407 738.574 685.511 720.955C680.078 719.357 633.763 706.883 632.18 705.555C632.407 710.768 632.163 714.724 628.443 718.818C620.636 727.412 603.266 731.596 592.129 732.271Q585.941 732.527 579.748 732.484C559.264 732.264 543.94 728.889 526.743 717.542C520.416 713.367 514.146 708.811 507.115 705.882C497.224 701.763 486.135 700.844 475.816 698.064C448.623 690.741 424.248 674.255 404.749 654.19C399.411 648.697 393.9 641.961 394.193 633.837C394.431 627.195 398.712 621.508 403.353 617.091C406.72 613.885 410.642 611.514 415.171 610.364C429.045 606.842 452.187 613.364 465.969 616.703C470.268 617.744 475.493 619.547 479.892 619.652C480.865 618.766 481.802 617.994 482.883 617.246C485.817 616.902 488.836 617.82 491.705 618.413C492.656 617.572 493.614 616.686 494.824 616.232C499.096 614.631 520.788 610.574 525.603 610.246C526.29 610.628 526.867 610.844 527.63 611.03L528.255 610.274C527.067 600.675 527.597 590.792 527.71 581.138L528.204 539.776Q528.924 475.954 528.262 412.132Q527.628 359.439 524.774 306.82L522.62 267.457C521.433 248.152 519.918 229.613 523.288 210.4C527.032 189.06 535.007 168.585 541.715 148.061Q565.878 72.8649 596.358 0Z"/>
	<path fill="#DAD8D8" d="M635.87 246.108C639.226 240.555 643.517 235.342 647.285 230.029C659.259 213.144 672.015 196.691 683.448 179.444C685.021 189.225 685.207 199.318 686.604 209.175C690.095 233.792 697.291 257.679 706.447 280.76Q714.43 300.947 724.49 320.183C739.495 348.828 756.499 376.354 772.119 404.645L810.187 473.745C816.17 484.743 821.606 496.098 827.89 506.92C829.28 509.314 831.511 514.225 834.206 515.245C834.406 515.321 834.614 515.375 834.816 515.445C841.806 517.898 848.383 517.29 855.33 515.068C850.848 539.093 846.988 583.98 829.45 601.679C816.421 601.97 807.728 599.994 795.593 606.387C789.054 611.381 782.107 619.355 780.934 627.805C780.551 630.566 780.773 633.168 782.557 635.407C789.364 643.948 818.398 650.758 828.755 651.63C849.384 653.366 871.504 648.396 891.882 645.538C903.774 643.87 916.994 643.162 928.328 639.233C940.089 643.708 953.791 646.499 966.008 649.819Q995.056 657.837 1024 666.224L1024 766.264L1024 820.789C1019.02 819.017 1013.69 817.769 1008.61 816.267L976.801 806.839L865.001 774.552C804.928 757.537 745.407 738.574 685.511 720.955C680.078 719.357 633.763 706.883 632.18 705.555C632.096 702.34 632.489 698.604 631.777 695.485C630.916 691.715 628.677 690.011 625.538 688.047C625.754 673.724 623.49 650.862 617.86 637.793C615.691 632.76 612.697 628.592 609.231 624.379Q609.435 616.268 610.056 608.178C616.609 604.847 622.192 601.388 627.416 596.183C628.6 532.945 634.932 470.13 637.271 406.975Q638.55 373.482 637.982 339.97C637.788 330.392 636.503 320.674 636.638 311.145C636.838 297.051 644.518 283.823 643.534 267.613C643.061 259.816 639.208 252.994 635.87 246.108Z"/>
	<path fill="#9F8BE8" d="M754.362 596.021C767.887 600.318 781.588 604.066 795.593 606.387C789.054 611.381 782.107 619.355 780.934 627.805C780.551 630.566 780.773 633.168 782.557 635.407C789.364 643.948 818.398 650.758 828.755 651.63C849.384 653.366 871.504 648.396 891.882 645.538C903.774 643.87 916.994 643.162 928.328 639.233C940.089 643.708 953.791 646.499 966.008 649.819Q995.056 657.837 1024 666.224L1024 766.264C1007.59 761.422 991.065 757.036 974.686 752.081C944.444 742.932 914.371 733.233 883.923 724.764L816.593 705.731C795.897 700.057 774.657 694.827 754.405 687.737C753.902 657.175 754.618 626.587 754.362 596.021Z"/>
	<path fill="#DAD8D8" d="M885.966 0L1024 0L1024 666.224Q995.056 657.836 966.008 649.819C953.791 646.499 940.089 643.708 928.328 639.233C928.597 639.085 928.869 638.941 929.136 638.789C941.64 631.652 975.779 579.359 983.83 564.649C987.394 558.137 990.766 551.27 992.598 544.043C994.674 535.848 994.188 529.036 989.76 521.674C986.077 515.552 981.127 509.918 976.866 504.166C962.974 485.416 947.771 463.172 923.91 457.136C921.997 454.829 918.892 451.869 917.696 449.186C917.203 448.081 918.065 446.829 918.492 445.723C918.293 443.566 917.74 441.83 916.76 439.898C910.376 427.308 902.726 415.277 895.977 402.865C886.497 385.43 877.807 367.305 869.065 349.475C860.836 332.695 852.656 315.799 845.04 298.735C839.223 285.701 834.017 272.155 827.23 259.597C822.731 251.273 817.026 244.374 810.618 237.493C813.501 229.15 816.643 218.934 814.817 210.038C812.516 198.828 802.607 193.259 793.91 187.32C795.949 181.765 799.039 176.25 801.613 170.906L818.263 136.8C840.495 91.0425 864.073 45.9184 885.966 0Z"/>
	<path fill="#9F8BE8" d="M601.938 0L789.107 0C774.741 27.2099 758.024 53.3353 741.682 79.3915Q701.003 145.452 655.595 208.355C652.137 213.086 643.19 226.887 639.822 229.797C634.478 234.415 602.403 245.663 593.821 249.223C591.558 250.161 589.441 250.706 588.431 253.153C588.552 254.294 588.522 254.414 589.271 255.264C595.276 256.848 626.564 242.321 633.403 239.43C629.325 246.215 624.759 252.823 620.044 259.178C615.323 265.542 586.159 300.842 585.744 304.066C586.023 305.072 586.175 305.417 586.969 306.159C587.563 306.714 587.475 306.808 588.194 306.698C593.77 305.847 627.086 259.464 632.324 252.143C634.906 257.979 637.322 263.867 637.533 270.33C637.975 283.86 630.944 296.56 630.787 309.471C630.674 318.72 631.971 328.166 632.277 337.438Q632.868 363.06 631.969 388.673C630.136 447.188 624.839 505.515 622.367 564C621.947 573.944 621.996 583.883 621.742 593.831Q620.121 595.316 618.356 596.626C612.473 601.078 605.564 603.52 598.521 605.482C576.105 611.727 555.746 609.949 533.149 606.792C532.733 598.338 533.153 589.706 533.276 581.237L534.093 533.401Q534.71 472.324 534.152 411.247Q533.506 361.693 531.176 312.19Q530.167 291.9 528.668 271.64C527.088 249.325 525.201 227.761 530.156 205.664C534.367 186.887 540.977 168.512 546.945 150.238Q561.803 103.293 579.818 57.4655C584.193 46.1331 588.411 34.7146 592.945 23.446C595.908 16.0804 599.92 8.30755 601.801 0.601499C601.849 0.401697 601.892 0.2005 601.938 0Z"/>
	<path fill="#9F8BE8" d="M796.162 0L879.733 0C871.55 14.7046 864.706 30.0722 857.158 45.0997L805.049 149.92Q800.361 159.181 796.135 168.663C793.878 173.751 791.854 179.091 789.173 183.96C784.162 180.538 758.678 161.684 754.761 161.458C753.734 161.893 753.064 162.133 752.63 163.293C752.252 164.301 752.485 165.178 753.094 166.009C755.101 168.751 759.783 171.126 762.616 173.059L788.127 190.54C792.565 193.605 797.548 196.574 801.496 200.236C803.643 202.228 805.533 204.407 806.895 207.022C811.094 215.087 808.458 224.765 805.759 232.853Q798.508 227.177 790.705 222.286C784.624 218.489 751.757 199.73 746.012 199.662C744.931 200.166 744.45 200.424 744.205 201.749C743.469 205.733 750.392 207.697 753.132 208.968C775.411 219.309 801.479 233.178 816.306 253.123C824.023 263.503 828.55 276.87 833.732 288.652C837.673 297.613 842.029 306.429 846.158 315.311Q865.233 356.785 886.606 397.123C893.909 410.859 901.213 424.668 909.471 437.86C900.212 438.548 891.826 442.264 883.805 446.764C866.711 456.355 849.195 472.087 840.111 489.67C837.367 494.979 835.607 500.485 834.006 506.225C823.261 483.316 810.317 461.007 797.94 438.925L759.165 369.67C744.38 343.824 729.133 318.341 717.295 290.946C704.071 260.342 694.643 229.3 691.289 196.058C690.589 189.117 691.108 179.643 687.713 173.582C694.99 162.156 703.014 151.164 710.438 139.821Q742.267 91.434 771.901 41.6721C780.101 27.8819 788.586 14.1415 796.162 0Z"/>
	<path fill="#9F8BE8" d="M518.916 616.933C520.675 616.493 522.746 616.137 524.354 615.291C526.186 614.327 528.265 612.537 530.229 611.978C531.664 611.569 534.091 612.24 535.555 612.496L532.456 618.785C531.883 620.361 531.274 622.173 531.261 623.859C531.24 626.461 532.943 629.157 534.713 630.946C543.153 639.473 561.377 642.357 572.825 642.634C585.567 642.942 598.508 641.524 608.107 632.385C618.972 647.815 618.794 670.77 620.329 688.964C620.522 691.251 620.466 693.498 618.827 695.273C612.691 701.916 590.108 705.146 581.29 705.413C551.278 706.321 536.997 694.36 511.077 684.063C479.425 671.49 453.093 666.571 427.031 641.828C422.992 637.994 410.81 625.597 411.047 619.697C411.077 618.966 411.384 618.678 411.932 618.215C422.257 609.502 464.897 622.672 478.566 625.031C476.665 631.517 474.603 638.585 473.71 645.273C473.416 647.471 473.162 649.748 474.589 651.598C475.629 651.97 476.132 652.139 477.233 651.659C478.304 651.192 478.718 650.536 479.106 649.481C480.07 646.863 480.217 643.295 480.771 640.508C481.901 634.83 483.383 629.39 485.224 623.905C488.016 623.366 490.86 623.147 493.687 622.861C491.995 627.808 488.05 644.279 490.198 648.864C491.091 649.497 491.53 649.876 492.715 649.664C498.919 648.553 495.658 627.763 501.276 621.511C504.026 618.452 507.376 618.592 511.188 618.268Q510.635 619.519 510.135 620.792C508.075 626.026 503.954 636.979 506.283 642.343C507.507 643.309 507.641 643.265 509.216 643.334C509.608 643.113 510.065 642.979 510.393 642.671C511.866 641.286 513.073 632.486 513.69 630.097C514.919 625.336 516.384 621.156 518.916 616.933Z"/>
	<path fill="#9F8BE8" d="M922.694 462.954C922.809 462.963 922.925 462.965 923.039 462.981C939.605 465.279 957.18 488.021 966.518 500.494C964.769 500.247 963.021 500.03 961.257 499.93C940.144 498.732 918.887 509.532 904.742 524.777C898.827 531.152 893.973 538.555 889.151 545.769C872.633 570.475 859.291 598.313 836.814 618.269Q835.472 619.284 834.003 620.105C823.222 626.158 805.993 617.317 795.12 614.462C809.63 601.959 820.313 611.225 832.17 605.765C837.889 603.131 840.832 596.24 843.235 590.793C849.133 577.423 853.054 563.936 855.306 549.5C857.037 538.4 857.624 525.676 861.816 515.272C863.88 510.151 867.581 505.831 870.963 501.53C886.517 481.746 899.889 472.546 922.694 462.954Z"/>
	<path fill="#DAD8D8" d="M953.797 505.674C955.467 505.42 957.409 505.481 959.098 505.562C968.842 506.028 974.158 510.887 980.368 517.687C961.607 516.459 942.645 521.098 927.868 533.262C912.44 545.961 898.535 571.198 887.3 588.189C878.564 601.4 868.889 614.331 857.695 625.573C852.004 631.289 845.093 637.994 837.997 641.876C828.938 646.831 818.154 643.546 808.876 640.953C803.25 639.167 796.724 637.643 791.531 634.876C789.563 633.827 787.656 632.261 787.122 629.994C786.183 626.005 789.25 622.124 791.369 619.042C801.671 623.27 818.428 629.538 829.414 628.236C833.796 627.716 837.69 625.712 841.123 623.016C862.828 605.976 884.007 561.057 902.055 537.275C915.337 519.773 931.768 508.669 953.797 505.674Z"/>
	<path fill="#DAD8D8" d="M405.299 624.315C407.713 626.687 409.052 630.825 411.226 633.577C418.347 642.587 427.368 651.147 436.749 657.747Q441.57 661.103 446.614 664.11Q451.659 667.118 456.903 669.764Q462.147 672.409 467.564 674.679Q472.981 676.949 478.544 678.832C488.318 682.231 498.384 685.048 507.927 689.055C523.781 695.714 539.619 705.463 556.462 709.099C570.322 712.091 585.359 711.675 599.266 709.221C609.616 707.394 620.026 704.177 626.328 695.243C626.602 700.605 628.233 710.079 624.913 714.431C616.535 721.488 604.882 724.645 594.234 726.061C574.193 728.727 550.719 726.115 533.342 715.122C524.646 709.621 516.07 703.163 506.371 699.551C499.163 696.867 491.333 695.914 483.887 694.018C464.517 689.088 446.086 680.995 430.142 668.791C421.72 662.346 401.5 646.183 400.444 635.763C399.965 631.025 402.43 627.739 405.299 624.315Z"/>
	<path fill="#0D042E" d="M904.846 444.182L907.298 444.107C908.838 445.194 907.89 446.518 909.011 447.993C912.047 451.989 915.602 454.552 918.193 459.094C911.918 461.525 905.665 463.92 899.795 467.25C884.888 475.706 871.905 489.92 861.934 503.795C856.612 498.404 852.697 491.593 846.664 486.899C860.219 471.482 874.119 457.161 893.075 448.385C896.784 446.668 900.776 444.79 904.846 444.182Z"/>
	<path fill="#0D042E" d="M535.555 612.496C563.505 617.249 576.578 616.292 603.655 610.971Q603.526 620.322 603.935 629.664C595.483 636.949 582.813 637.766 572.093 637.014C563.39 636.403 543.083 633.461 537.023 626.502C535.029 624.211 534.463 620.9 532.456 618.785L535.555 612.496Z"/>
	<path fill="#9F8BE8" d="M844.857 492.294C847.527 494.183 856.747 504.027 858.897 506.87C856.391 508.143 853.813 509.172 851.205 510.212C846.673 511.32 843.182 511.464 838.574 510.75C839.904 504.176 841.553 498.165 844.857 492.294Z"/>
	<path d="M193.365 350.187C187.962 347.571 182.705 344.409 178.572 339.995C173.41 334.482 170.527 327.371 170.901 319.77C171.283 311.979 174.754 305.239 180.49 300.064C189.238 292.171 202.284 286.56 212.529 280.506C229.752 270.327 249.775 255.788 268.364 248.928Q270.055 248.288 271.777 247.736Q273.499 247.184 275.248 246.722Q276.996 246.26 278.766 245.888Q280.536 245.517 282.322 245.238Q284.109 244.958 285.908 244.772Q287.706 244.585 289.512 244.492Q291.318 244.398 293.127 244.398Q294.935 244.398 296.741 244.491C309.75 245.16 324.682 250.657 331.41 262.584C333.501 266.29 335.101 272.046 338.132 275.018C338.277 275.161 338.448 275.275 338.606 275.404C339.445 276.315 339.827 276.84 340.137 278.046C342.702 278.486 345.182 280.296 347.429 281.588C360.101 288.876 367.415 293.206 382.05 286.04C380.926 285.947 380.774 286.133 379.906 285.336C379.6 284.065 379.227 282.718 379.265 281.402C379.326 279.318 379.776 277.24 381.387 275.842C380.81 271.369 381.534 267.036 384.328 263.383C386.318 260.782 389.323 258.777 392.648 258.528Q393.087 258.495 393.526 258.505Q393.966 258.515 394.403 258.569Q394.839 258.622 395.268 258.719Q395.698 258.816 396.115 258.955Q396.532 259.093 396.934 259.273Q397.336 259.452 397.717 259.671Q398.099 259.889 398.457 260.144Q398.816 260.4 399.147 260.689C402.14 263.287 403.324 267.345 403.475 271.184C403.631 275.156 402.673 279.2 401.783 283.05C423.494 281.878 431.202 273.807 450.679 290.315C451.744 291.217 452.373 291.911 452.908 293.194C454.966 293.026 457.144 294.678 458.784 295.842L446.503 311.753C444.424 314.41 441.814 317.095 440.259 320.08C438.118 324.192 438.057 329.231 435.843 333.26C435.134 334.548 434.515 334.954 433.09 335.172C430.408 335.581 427.122 335.147 424.43 334.909C416.943 340.926 406.597 349.747 396.298 348.77C392.184 348.38 389.088 346.03 386.63 342.824C385.151 340.894 382.576 335.146 380.165 334.924C377.183 334.65 373.316 335.762 370.267 336.126C377.407 358.392 381.807 375.08 370.587 396.892Q368.508 400.888 366.337 404.834C366.74 410.689 367.084 416.339 366.257 422.186C365.289 429.03 363.03 435.578 361.001 442.16C357.184 454.539 355.238 466.193 356.091 479.173C356.418 484.157 359.408 502.327 356.848 505.548C356.405 506.107 355.845 506.11 355.194 506.298C353.894 505.892 353.195 505.811 352.466 504.533C350.848 501.696 351.483 495.222 351.155 491.836C349.267 472.346 348.922 462.677 354.587 443.488C357.053 435.132 359.911 426.808 361.077 418.145C357.208 424.102 354.529 430.983 351.421 437.363C335.273 470.512 321.434 510.475 329.434 547.724C331.809 558.783 340.584 569.727 346.057 579.624Q353.492 593.18 359.837 607.279C381.611 655.535 395.02 697.286 378.38 750.137C372.246 769.619 363.691 788.219 355.737 807.001L337.764 849.383C335.102 855.551 332.752 862.539 329.233 868.214C329.154 868.341 329.072 868.466 328.991 868.592C324.779 867.626 320.568 866.58 316.302 865.876C313.033 870.552 311.179 875.474 309.224 880.808C315.854 885.442 320.412 892.59 326.424 897.994C340.402 910.557 364.294 925.638 381.421 933.283C389.511 936.894 398.676 939.102 400.607 949.011C401.193 952.021 401.344 955.006 399.544 957.653C396.331 962.375 388.831 963.372 383.596 964.167C369.121 966.366 345.645 968.465 331.162 966.687C318.811 965.171 307.167 958.334 295.397 954.436C283.04 950.344 270.035 947.501 257.864 943.037C254.237 941.707 250.446 940.045 247.334 937.726C244.563 935.661 242.566 932.889 242.099 929.405C241.821 927.323 242.127 925.197 242.695 923.189C244.105 918.201 246.532 913.36 248.333 908.488C250.636 902.259 252.465 895.855 254.734 889.609C248.692 890.468 242.452 890.486 236.359 890.889C223.071 891.766 206.742 894.67 195.248 886.212C191.134 883.184 187.884 878.771 184.895 874.675L163.399 841.349C158.111 833.107 152.167 824.784 148.384 815.73C147.23 812.967 146.324 810.316 146.841 807.295C147.578 802.995 150.869 795.572 155.385 794.187C157.411 793.567 160.067 794.196 161.753 792.829C167.705 788.005 172.218 781.46 178.708 777.168C182.982 774.341 186.297 773.597 191.29 774.594C199.92 770.375 207.415 764.88 214.86 758.882C214.249 757.015 213.482 754.907 213.468 752.921C213.456 751.395 214.089 750.806 215.05 749.729C220.767 743.321 227.81 737.674 233.958 731.63C246.62 719.181 259.042 706.449 271.481 693.775C265.134 683.782 257.435 674.654 249.821 665.621C236.958 650.359 223.402 635.288 209.155 621.293C204.564 616.783 199.668 612.6 194.995 608.178C165.313 580.09 157.294 548.49 156.194 508.766C151.553 505.47 147.219 502.208 143.436 497.931C147.79 476.099 154.349 454.433 161.032 433.204C169.903 405.021 179.235 376.214 193.365 350.187Z"/>
	<path fill="#9F8BE8" d="M381.387 275.842C380.81 271.369 381.534 267.036 384.328 263.383C386.318 260.782 389.323 258.777 392.648 258.528Q393.087 258.495 393.526 258.505Q393.966 258.515 394.403 258.569Q394.839 258.622 395.268 258.719Q395.698 258.816 396.115 258.955Q396.532 259.093 396.934 259.273Q397.336 259.452 397.717 259.671Q398.099 259.889 398.457 260.144Q398.816 260.4 399.147 260.689C402.14 263.287 403.324 267.345 403.475 271.184C403.631 275.156 402.673 279.2 401.783 283.05C423.494 281.878 431.202 273.807 450.679 290.315C451.744 291.217 452.373 291.911 452.908 293.194C447.087 302.523 437.761 310.607 433.57 320.792C432.351 323.756 431.817 327.232 431.165 330.367C427.924 329.535 424.916 328.357 421.823 327.095C421.019 328.517 420.217 330.075 419.123 331.299C415.8 335.019 404.426 342.591 399.486 342.857C396.797 343.002 394.459 341.877 392.504 340.091C384.624 332.893 382.553 317.354 382 307.35C381.815 304.006 382.119 300.571 381.839 297.252C381.731 295.98 381.475 295.56 380.479 294.817C378.403 295.643 373.981 305.895 372.212 308.607C369.541 312.701 366.51 316.386 363.338 320.092C355.653 306.133 346.73 292.545 340.137 278.046C342.702 278.486 345.182 280.296 347.429 281.588C360.101 288.876 367.415 293.206 382.05 286.04C380.926 285.947 380.774 286.133 379.906 285.336C379.6 284.065 379.227 282.718 379.265 281.402C379.326 279.318 379.776 277.24 381.387 275.842Z"/>
	<path d="M382.05 286.04C380.926 285.947 380.774 286.133 379.906 285.336C379.6 284.065 379.227 282.718 379.265 281.402C379.326 279.318 379.776 277.24 381.387 275.842C381.456 276.052 381.522 276.263 381.593 276.473C382.616 279.482 387.096 285.266 386.567 287.994L385.742 288.36C384.196 287.719 383.297 287.156 382.05 286.04Z"/>
	<path d="M429.2 297.409C431.158 297.329 433.838 297.172 435.327 298.735C435.872 299.308 436.233 299.994 436.211 300.782C436.152 302.853 434.785 303.99 433.385 305.293C431.992 305.782 430.637 306.209 429.246 305.428C428.103 304.787 427.639 303.818 427.424 302.573C427.07 300.522 428.005 298.962 429.2 297.409Z"/>
	<path fill="#9F8BE8" d="M163.668 533.893C168.607 536.666 173.076 540.327 178.047 543.139C197.737 554.275 220.112 561.986 242.691 563.899C242.795 566.031 242.697 568.661 243.376 570.684C245.55 577.162 253.715 579.836 259.355 582.5C256.118 591.791 249.402 611.067 251.885 619.978C253.466 625.651 257.89 626.797 262.454 629.404C263.609 630.063 263.326 635.939 263.845 637.637C264.344 639.27 265.111 640.528 266.701 641.299C269.337 642.577 271.918 641.398 274.326 640.27C273.53 643.17 271.861 647.382 273.117 650.296C274.04 652.436 276.209 655.528 278.531 656.275C279.789 656.68 281.058 656.251 282.096 655.511C290.543 649.484 298.869 607.021 301.185 595.406C303.232 598.69 305.308 601.497 308.933 603.116C311.77 604.383 314.971 604.608 317.892 603.436C319.334 602.858 320.695 601.911 321.111 600.323C322.148 596.365 305.294 569.825 302.279 564.871C305.635 562.376 307.928 558.686 311.23 556.296C314.263 554.099 323.149 557.02 326.779 557.81Q336.812 574.646 345.891 592.014C365.574 630.281 384.291 677.11 379.125 720.782C377.619 733.512 373.933 745.473 370.032 757.618C362.239 778.932 352.758 799.854 343.774 820.7C337.911 834.307 332.58 848.38 326.013 861.642C309.476 860.114 291.604 853.293 277.953 843.892C279.343 834.777 282.632 825.777 285.408 817.007C291.163 798.827 297.618 780.834 302.987 762.54C305.538 753.847 308.522 744.876 308.756 735.746C309.275 715.561 297.423 699.482 284.086 685.531C281.851 683.194 277.914 678.663 274.506 678.595C273.413 680.412 276.751 685.418 277.205 687.695L276.43 688.683L275.556 688.765C270.384 682.85 266.294 675.934 261.353 669.793C251.765 657.879 241.195 646.41 230.817 635.173Q221.527 625.086 211.632 615.591C200.941 605.433 189.394 595.874 181.328 583.371C171.706 568.457 166.09 551.402 163.668 533.893Z"/>
	<path fill="#9F8BE8" d="M321.131 332.165C321.364 332.131 321.596 332.093 321.83 332.063C330.176 330.974 336.573 334.354 342.848 339.368C350.362 345.371 371.012 362.661 371.74 371.672C372.408 379.936 367.013 390.606 362.984 397.557C355.745 410.044 346.06 421.722 337.087 433.009C328.872 443.341 320.716 453.804 312.09 463.797C309.324 467.001 306.223 469.93 303.536 473.198C294.756 483.876 298.382 531.745 299.517 546.084C292.4 548.873 284.853 550.6 277.579 552.956C267.646 556.173 257.907 559.947 247.909 562.973C247.63 544.027 248.118 525.082 247.689 506.125C247.559 497.628 245.925 483.602 247.328 475.879C251.704 451.791 283.336 410.146 299.077 390.078C301.577 386.89 310.949 376.935 311.866 373.707Q311.992 373.279 312.031 372.835Q312.07 372.391 312.02 371.947Q311.971 371.504 311.835 371.079Q311.699 370.655 311.482 370.265C310.653 369.909 310.843 369.83 310.022 370.016C302.79 371.654 267.672 422.295 262.339 430.83C260.394 405.936 263.587 375.06 278.928 354.68C281.99 350.612 285.635 346.349 289.749 343.301C296.767 338.1 312.513 333.39 321.131 332.165Z"/>
	<path fill="#9F8BE8" d="M191.115 368.189C207.728 376.396 226.208 380.723 244.666 381.877C249.674 382.19 255.05 381.249 259.962 381.953C255.463 397.887 254.329 422.652 257.658 438.9C250.638 450.397 242.414 464.909 241.516 478.625C241.066 485.489 241.752 492.576 241.901 499.467Q242.288 518.5 242.451 537.537C211.147 531.89 173.137 518.136 149.451 496.286C151.426 486.476 154.629 476.719 157.264 467.048C166.43 433.408 177.06 400.139 191.115 368.189Z"/>
	<path fill="#9F8BE8" d="M285.947 250.673C294.761 250.069 303.433 250.193 311.756 253.513C320.169 256.87 326.054 262.768 329.66 271.03C323.158 269.74 317.154 269.481 310.56 269.522C310.312 269.113 310.054 268.71 309.783 268.315C305.697 262.383 301.198 258.578 293.938 257.218C288.372 256.175 282.662 257.004 277.374 258.892C264.47 263.502 244.858 276.985 231.902 284.283C225.6 287.833 218.216 290.537 212.4 294.75C210.833 295.885 210.013 296.812 209.666 298.728C210.801 300.436 212.047 300.405 214.004 300.294C220.002 299.956 225.83 298.715 231.933 298.543C264.039 297.637 309.463 301.921 337.55 318.427C347.647 324.36 361.39 334.796 366.862 345.388C368.518 348.592 369.309 352.345 370.222 355.82L370.273 356.263L369.824 356.426C360.633 347.464 351.194 337.265 340.278 330.417C336.084 327.786 331.518 325.951 326.533 325.59C311.419 324.493 291.984 335.293 278.165 340.98Q265.339 346.182 251.836 349.225C232.185 353.576 206.92 352.734 189.561 341.413C183.58 337.513 178.374 331.912 177.057 324.662C175.937 318.493 177.88 312.255 181.581 307.283C183.728 304.4 186.7 302.069 189.656 300.054C195.121 296.328 201.25 293.366 207.018 290.112C215.334 285.421 223.542 280.468 231.825 275.703C242.663 269.468 253.034 262.045 264.436 256.873C271.367 253.729 278.433 251.778 285.947 250.673Z"/>
	<path d="M187.371 309.817C192.785 310.976 197.765 314.235 202.994 316.071C218.849 321.641 238.804 323.032 255.388 320.665C260.241 319.973 275.759 315.738 279.193 316.616C280.577 316.97 280.743 317.227 281.437 318.359C281.279 319.749 280.978 320.329 280.139 321.443C256.339 330.143 220.406 329.431 196.911 320.35C193.84 319.163 187.318 316.894 186.367 313.327C185.961 311.806 186.668 311.048 187.371 309.817Z"/>
	<path fill="#9F8BE8" d="M281.404 691.856C287.378 696.272 294.558 707.155 297.947 713.858C307.161 732.085 301.2 748.943 295.34 767.106C291.644 769.362 288.28 772.332 284.883 775.019C274.678 783.091 264.211 792.636 252.893 798.989C250.873 797.233 249.037 795.243 247.158 793.337C237.67 781.96 223.983 767.464 219.409 753.353C225.002 747.983 230.901 742.944 236.45 737.514C251.708 722.585 266.421 707.064 281.404 691.856Z"/>
	<path fill="#DAD8D8" d="M305.358 885.909C310.876 888.308 314.697 893.957 318.377 898.52C312.816 901.472 297.681 905.562 295.209 910.884C295.372 911.931 295.498 912.453 296.536 913.037C297.641 913.658 298.494 913.575 299.641 913.218C303.332 912.07 307.012 909.642 310.487 907.94C314.66 905.898 318.974 904.553 323.432 903.281L328.213 907.73C322.224 910.274 311.416 914.832 307.126 919.53C306.004 920.759 305.39 921.812 305.457 923.512L306.674 924.364C308.018 924.342 309.134 924.142 310.376 923.597C314.108 921.957 317.652 919.4 321.248 917.434C325.295 915.222 329.568 913.369 333.674 911.25L338.227 914.706C333.564 916.929 318.313 923.526 316.267 928.016C315.69 929.282 315.795 929.52 316.289 930.71C317.395 931.436 317.781 931.8 319.183 931.623C323.214 931.115 337.43 918.023 344.529 918.973C345.769 919.138 346.49 919.834 347.181 920.777C345.818 924.3 333.624 928.587 330.028 932.046C329.027 933.008 328.719 933.507 328.644 934.878C329.257 935.906 329.44 936.56 330.774 936.712C334.63 937.15 342.25 931.195 345.467 929.199C348.416 927.495 351.383 926.593 354.652 925.777C359.451 928.436 363.816 931.912 368.758 934.316C377.005 938.326 386.087 940.701 393.798 945.78C382.337 947.739 351.536 949.819 339.902 948.32C326.441 946.585 313.095 939.143 300.274 934.723C284.3 929.217 266.493 925.718 251.577 917.687C254.095 908.082 257.549 898.438 261.573 889.361C265.077 891.868 268.53 894.072 272.732 895.229C284.783 898.546 295.264 891.427 305.358 885.909Z"/>
	<path fill="#DAD8D8" d="M253.028 806.227C262.735 801.315 283.891 784.4 292.202 776.883C285.474 800.022 276.254 822.382 271.232 846.039C272.858 847.625 274.651 849.058 276.38 850.531C274.01 856.684 271.637 862.813 268.974 868.845C268.111 871.09 267.295 873.365 266.36 875.58C262.999 877.668 260.869 880.765 258.552 883.883C258.485 878.055 257.756 874.881 254.326 870.028C249.057 865.496 244.003 860.421 241.049 854.029C237.234 845.771 238.959 831.918 231.512 826.125C230.372 820.269 228.238 809.678 224.73 805.072C224.607 804.91 224.472 804.757 224.343 804.599C225.622 801.022 234.662 794.867 238.043 792.261C242.725 797.243 247.026 802.788 253.028 806.227Z"/>
	<path fill="#9F8BE8" d="M254.326 870.028C259.194 870.046 264.133 869.355 268.974 868.845C268.111 871.09 267.295 873.365 266.36 875.58C262.999 877.668 260.869 880.765 258.552 883.883C258.485 878.055 257.756 874.881 254.326 870.028Z"/>
	<path fill="#DAD8D8" d="M185.126 780.33C185.807 780.593 186.018 780.738 186.274 781.476C187.883 786.12 186.154 789.15 189.756 795.367C195.919 806.003 210.264 807.267 220.986 809.9C222.783 814.55 224.504 819.139 225.847 823.948C217.965 823.146 208.746 822.856 201.125 825.32L200.303 825.594C199.415 825.883 198.226 826.138 197.434 826.637C196.189 827.42 196.129 827.894 195.728 829.214L196.35 830.251C202.488 833.011 213.645 828.072 220.954 829.342C223.208 829.733 225.88 830.081 227.879 831.232C229.227 832.008 230.482 833.046 230.859 834.569L230.343 835.272C227.682 835.129 224.999 834.88 222.334 834.916C217.172 834.985 206.955 836.026 203.464 840.186C202.617 841.196 202.525 841.797 202.648 843.061C203.689 843.781 204.375 843.947 205.661 843.837C211.214 843.362 216.593 840.584 223.025 840.441C225.802 840.38 229.319 840.595 231.327 842.805C232.042 843.591 232.315 844.444 232.292 845.477C227.554 847.221 219.756 846.376 212.723 848.779C211.715 849.304 210.497 850.091 209.753 850.964C208.864 852.007 208.629 852.83 208.65 854.157C209.474 854.916 209.878 855.326 211.115 855.32C213.166 855.311 216.241 853.914 218.301 853.386C223.248 852.119 227.755 851.876 232.831 852.197C234.994 854.533 236.669 857.674 238.469 860.31C241.11 864.175 243.914 867.775 246.943 871.345C236.291 871.56 218.202 873.221 208.343 870.706C201.91 869.065 197.079 861.309 193.934 855.834C188.441 846.269 183.196 836.531 177.798 826.909C173.69 819.586 168.809 811.976 165.762 804.153C165.132 802.536 164.437 800.733 164.998 799.005C167.002 792.832 179.397 783.522 185.126 780.33Z"/>
	<path fill="#9F8BE8" d="M288.354 555.516C288.908 555.402 289.226 555.571 289.756 555.734C294.341 562.915 313.087 591.635 314.066 597.999L313.3 598.586C307.523 598.233 303.853 585.214 299.129 583.233C298.47 582.957 298.149 583.238 297.532 583.456C295.945 585.657 296.064 590.383 295.67 593.093Q293.936 604.331 291.076 615.337C289.57 621.368 283.191 647.2 279.666 649.312L278.898 648.937C275.946 643.007 286.626 619.317 285.068 613.544C284.708 612.209 284.253 611.765 283.114 611.062C282.581 611.099 282.505 611.069 281.938 611.302C278.732 612.615 277.929 617.398 277.104 620.309C275.212 625.126 273.384 632.025 270.003 635.921L269.596 635.606C269.402 628.312 273.182 620.636 275.839 614.011C276.41 612.589 277.551 610.619 277.761 609.153C277.932 607.958 277.558 606.66 276.68 605.796C275.804 604.935 275.267 604.917 274.148 604.932C271.484 606.579 266.441 622.708 264.646 626.744C265.273 619.04 269.675 612.15 270.137 604.635C270.172 604.074 270.027 603.674 269.535 603.312C268.425 602.496 267.864 602.529 266.616 602.73C262.07 606.161 262.143 614.271 259.855 619.175C259.369 620.218 259.388 620.335 258.261 620.689L257.42 619.78C255.199 612.542 263.578 587.491 265.59 578.473Q267.462 570.266 268.17 561.878Q278.294 558.799 288.354 555.516Z"/>
	<path fill="#DAD8D8" d="M306.633 275.705C314.823 274.663 323.589 275.634 331.741 276.62C335.366 282.195 338.482 288.258 341.813 294.02C348.212 305.085 355.667 316.431 360.037 328.434C349.751 319.306 339.899 312.413 327.213 306.967C302.763 297.462 278.147 294.628 252.234 292.443C269.252 283.085 287.247 277.305 306.633 275.705Z"/>
	<path fill="#0D042E" d="M199.533 351.613C212.275 358.151 237.75 357.595 251.63 354.447C260.163 352.511 268.353 349.155 276.936 347.465C272.322 353.755 262.046 371.636 261.297 379.094C257.08 377.973 252.54 378.237 248.213 377.642C224.676 374.404 215.432 375.226 193.252 363.558C194.891 359.716 196.327 355.622 198.319 351.961L199.533 351.613Z"/>
	<path fill="#DAD8D8" d="M161.827 513.106C185.946 526.674 215.024 539.626 242.652 543.344L242.502 558.648C217.733 557.002 179.711 543.053 162.538 524.805C162.063 520.91 161.951 517.024 161.827 513.106Z"/>
	<path fill="#DAD8D8" d="M248.889 922.968C264.477 930.84 281.405 934.95 297.892 940.435C314.174 945.85 329.445 954.094 346.924 954.857C358.477 955.362 370.656 953.655 382.171 952.686C385.641 952.394 389.366 951.74 392.825 951.769C394.123 951.779 394.654 951.902 395.587 952.79L395.431 953.522C394.164 954.959 392.968 955.495 391.223 956.243C379.919 960.059 350.776 961.293 338.416 960.949C335.073 960.857 331.725 960.772 328.481 959.886C322.295 958.196 316.261 955.551 310.266 953.277Q300.522 949.628 290.623 946.424C279.614 942.789 264.696 939.654 254.525 935.103C251.199 933.615 248.615 931.359 246.132 928.755C246.874 926.772 247.947 924.865 248.889 922.968Z"/>
	<path fill="#DAD8D8" d="M158.857 797.931C159.871 799.237 159.921 804.281 160.43 806.26C161.483 810.354 164.097 814.367 166.067 818.117C171.935 829.285 178.166 840.183 184.529 851.074C188.117 857.215 191.511 863.924 196.103 869.387C198.198 871.88 200.411 873.763 203.394 875.123C211.738 878.926 222.214 877.797 231.102 877.366C236.881 877.086 246.506 875.494 251.896 877.534C253.073 877.979 253.406 878.394 253.895 879.509C253.615 880.896 253.111 881.66 252.181 882.685C250.668 884.354 249.234 884.233 247.125 884.34C236.303 884.457 225.503 885.846 214.68 885.685C206.668 885.566 201.022 883.96 195.386 878.057C188.482 870.827 152.199 815.331 152.544 808.3C152.756 803.977 155.772 800.652 158.857 797.931Z"/>
	<path fill="#0D042E" d="M216.602 764.463C216.832 764.613 233.066 785.992 235.357 788.831C230.77 790.882 227.461 794.341 223.711 797.576C219.955 800.817 217.839 802.722 212.563 802.343C206.769 801.145 201.136 799.287 196.956 794.836C193.287 790.928 191.893 786.102 192.087 780.83C193.895 778.675 199.3 777.308 201.898 775.789C207.18 772.7 211.926 768.386 216.602 764.463Z"/>
	<path fill="#0D042E" d="M280.844 852.279C290.169 858.361 299.298 862.544 310.071 865.484C303.099 876.602 308.075 878.719 294.062 885.524C288.282 887.978 282.222 890.103 275.857 889.098C273.476 888.722 269.534 887.845 268.141 885.637C267.751 885.02 267.861 885.146 268.075 884.427C268.976 881.41 270.776 878.322 272.154 875.489C275.573 868.46 279.356 860.515 280.758 852.802C280.789 852.628 280.815 852.453 280.844 852.279Z"/>
	<path fill="#9F8BE8" d="M347.885 430.496C346.387 437.097 340.599 445.78 337.895 452.482C325.183 483.989 316.327 517.419 324.198 551.406L316.878 549.678C315.674 549.564 313.332 549.451 312.387 548.61C311.308 547.65 310.896 546.152 310.735 544.754C310.277 540.771 311.306 535.98 311.496 531.915C313.18 495.823 325.624 459.146 347.885 430.496Z"/>
	<path fill="#9F8BE8" d="M285.122 262.619C286.676 262.481 288.226 262.387 289.788 262.404C296.471 262.479 299.924 265.395 304.35 269.964C283.269 272.635 265.321 279.086 246.75 289.05C240.765 292.735 236.103 292.517 229.378 292.506Q240.145 287.149 250.269 280.66C261.409 273.639 272.078 265.596 285.122 262.619Z"/>
	<path fill="#0D042E" d="M376.022 308.885L377.197 309.786C378.97 313.659 380.569 328.6 380.162 333.09L379.256 333.779C376.599 334.002 373.984 332.9 371.353 332.464C369.958 332.22 369.134 332.319 368.197 331.103C366.353 328.711 364.219 324.089 364.904 321.057C365.835 316.946 372.569 310.83 376.022 308.885Z"/>
	<path fill="#9F8BE8" d="M416.307 793.931C428.655 798.31 441.373 801.709 453.974 805.274L503.9 819.481L649.919 862.668Q836.598 920.049 1024 975.028L1024 1024L850.543 1024C845.586 1020.95 837.375 1019.63 831.76 1017.84L780.234 1001.4L561.296 932.518L498.457 912.964C486.725 909.375 474.334 906.35 462.95 901.845C467.531 905.813 472.763 909.898 475.497 915.44C477.458 919.414 477.713 923.838 476.16 927.991C472.199 938.584 458.053 945.963 448.416 950.333C427.829 959.668 406.134 964.175 384.008 968.055C309.934 981.044 195.77 982.988 124.995 956.279C112.794 951.675 94.3024 943.17 88.8291 930.317C86.8547 925.68 86.6777 920.4 88.7319 915.757C98.0668 894.658 141.624 884.276 162.57 879.718C169.559 878.197 177.926 877.46 184.511 874.836C184.64 874.785 184.767 874.729 184.895 874.675C187.884 878.771 191.134 883.184 195.248 886.212C206.742 894.67 223.071 891.766 236.359 890.889C242.452 890.486 248.692 890.468 254.734 889.609C252.465 895.855 250.636 902.259 248.333 908.488C246.532 913.36 244.105 918.201 242.695 923.189C242.127 925.197 241.821 927.323 242.099 929.405C242.566 932.889 244.563 935.661 247.334 937.726C250.446 940.045 254.237 941.707 257.864 943.037C270.035 947.501 283.04 950.344 295.397 954.436C307.167 958.334 318.811 965.171 331.162 966.687C345.645 968.465 369.121 966.366 383.596 964.167C388.831 963.372 396.331 962.375 399.544 957.653C401.344 955.006 401.193 952.021 400.607 949.011C398.676 939.102 389.511 936.894 381.421 933.283C364.294 925.638 340.402 910.557 326.424 897.994C320.412 892.59 315.854 885.442 309.224 880.808C311.179 875.474 313.033 870.552 316.302 865.876C320.568 866.58 324.779 867.626 328.991 868.592C332.857 869.992 343.419 869.675 348.088 870.044C352.441 870.387 356.784 870.97 361.122 871.477C379.718 873.652 397.938 876.503 416.29 880.196Q416.571 856 416.45 831.802C416.447 819.193 416.668 806.532 416.307 793.931Z"/>
	<path fill="#9F8BE8" d="M632.18 705.555C633.763 706.883 680.078 719.357 685.511 720.955C745.407 738.574 804.928 757.537 865.001 774.552L976.801 806.839L1008.61 816.267C1013.69 817.769 1019.02 819.017 1024 820.789L1024 918.355L731.627 833.194L663.469 813.424C639.896 806.8 616.177 800.465 592.875 792.934Q592.658 773.453 592.667 753.972C592.648 747.023 593.295 739.115 592.129 732.271C603.266 731.596 620.636 727.412 628.443 718.818C632.163 714.724 632.407 710.768 632.18 705.555Z"/>
	<path fill="#0D042E" d="M338.606 275.404C344.115 271.788 346.338 270.167 347.792 263.376C349.016 257.66 349.626 251.814 350.934 246.111C354.4 231.008 362.544 217.692 375.642 209.075C388.51 200.61 405.009 198.603 419.939 201.709C435.654 204.977 450.333 214.778 459.018 228.347C467.995 242.371 479.076 274.038 483.04 290.634C475.956 294.427 466.932 297.625 458.784 295.842C457.144 294.678 454.966 293.026 452.908 293.194C452.373 291.911 451.744 291.217 450.679 290.315C431.202 273.807 423.494 281.878 401.783 283.05C402.673 279.2 403.631 275.156 403.475 271.184C403.324 267.345 402.14 263.287 399.147 260.689Q398.816 260.4 398.457 260.144Q398.099 259.889 397.717 259.671Q397.336 259.452 396.934 259.273Q396.532 259.093 396.115 258.955Q395.698 258.816 395.268 258.719Q394.839 258.622 394.403 258.569Q393.966 258.515 393.526 258.505Q393.087 258.495 392.648 258.528C389.323 258.777 386.318 260.782 384.328 263.383C381.534 267.036 380.81 271.369 381.387 275.842C379.776 277.24 379.326 279.318 379.265 281.402C379.227 282.718 379.6 284.065 379.906 285.336C380.774 286.133 380.926 285.947 382.05 286.04C367.415 293.206 360.101 288.876 347.429 281.588C345.182 280.296 342.702 278.486 340.137 278.046C339.827 276.84 339.445 276.315 338.606 275.404Z"/>
</svg>
