<?xml version="1.0" encoding="utf-8" ?>
<svg xmlns="http://www.w3.org/2000/svg" xmlns:xlink="http://www.w3.org/1999/xlink" width="1024" height="1024">
	<path fill="#C4BCFE" d="M0 0L1024 0L1024 787.628L901.501 787.62C896.892 780.472 893.067 772.692 889.053 765.192C868.79 727.25 853.127 687.024 842.398 645.37C844.54 644.841 846.659 644.187 848.782 643.583C846.237 634.132 842.005 625.031 838.585 615.866C833.773 602.971 829.487 589.834 825.053 576.804C822.562 569.484 819.265 561.673 818.16 554.011C828.218 532.2 841.096 511.643 850.288 489.383C857.652 471.548 858.016 459.273 850.623 441.449C858.762 434.772 870.052 434.822 879.598 428.554C883.938 425.705 889.055 421.725 890.137 416.399C886.563 413.581 880.913 413.19 877.028 410.59C870.293 406.082 868.208 398.892 866.923 391.392C867.227 386.294 867.471 381.237 867.918 376.146C867.994 366.448 865.141 357.792 858.249 350.796C853.103 345.571 847.136 342.206 840.133 340.163C837.398 339.365 834.482 338.713 831.912 337.468C822.917 333.112 817.205 324.501 806.246 324.566C799.573 324.606 792.902 327.298 787.435 330.996C782.831 324.72 768.897 305.463 767.113 299.038C765.006 291.451 766.515 279.257 766.308 270.945C765.623 243.385 765.979 215.817 765.975 188.25L765.499 97.6268C770.8 90.5875 805.167 46.144 805.924 43.6685C806.054 43.2419 806.017 42.7811 806.064 42.3375C805.414 41.3018 805.647 41.1654 804.353 40.8926C799.101 39.7854 792.805 40.4314 787.416 40.454L762.049 40.4861L651.763 40.4766L192.507 40.5615C189.655 40.5353 183.682 39.6124 181.385 41.1697C180.815 41.5562 180.992 42.1287 180.946 42.7506C183.54 48.7755 189.064 55.1118 192.892 60.5001C202.139 73.5154 211.701 86.3392 220.471 99.6808L220.484 787.813C209.088 787.838 197.681 787.761 186.287 787.916C187.791 773.55 191.059 759.08 193.577 744.839C194.528 739.458 195.915 733.816 196.25 728.38C196.349 726.774 196.562 725.185 195.581 723.87C189.719 722.914 183.245 723.485 177.291 723.474C164.557 723.45 151.788 723.608 139.058 723.367C140.955 717.362 142.975 711.546 146.459 706.247C153.731 710.549 161.441 711.705 169.637 709.552C174.416 708.296 178.843 705.755 181.335 701.355C184.305 696.111 183.579 689.246 183.452 683.451C188.649 674.885 196.145 667.46 193.581 656.491C192.714 652.783 190.549 649.385 187.163 647.518C183.692 645.604 179.64 645.649 175.938 646.83C166.224 649.927 164.73 656.971 157.822 662.553C151.62 667.565 144.407 667.602 140.335 675.643C137.324 681.591 137.447 689.076 139.667 695.252C140.803 698.41 142.529 701.152 144.483 703.859C140.324 710.327 137.373 715.919 135.749 723.446L130.395 723.358C131.239 704.96 132.386 686.613 132.312 668.182C132.206 641.872 129.79 616.128 125.953 590.133C136.194 585.838 143.413 578.476 147.611 568.151C151.063 559.662 152.052 548.87 148.538 540.227C146.627 535.527 141.623 532.643 140.006 527.747C138.199 522.276 138.619 516.039 137.634 510.363C135.536 498.279 126.627 481.62 114.757 476.69C110.639 474.98 106.157 474.79 102.028 476.572C95.344 479.456 90.9988 486.268 88.5185 492.86C82.7791 508.116 88.7964 511.656 88.1049 524.485C87.401 537.543 76.7193 539.998 85.3206 558.424C92.1807 573.12 104.882 583.629 119.989 589.077C120.918 589.41 121.853 589.727 122.794 590.026C129.318 634.2 130.739 678.978 127.028 723.478L115.605 723.483C111.899 710.586 106.622 698.247 101.262 685.971C107.443 676.514 111.531 665.64 109.25 654.18C108.026 648.027 104.652 644.447 99.5519 641.187C96.5472 639.266 93.1809 637.419 90.8793 634.645C87.0462 630.026 84.5416 624.084 81.2823 619.03C74.6733 608.78 61.4798 593.535 47.7037 596.682C43.8086 597.572 40.6448 599.949 38.5857 603.355C34.4008 610.277 34.615 620.258 36.7109 627.838C40.3064 640.841 49.3993 642.588 53.4171 652.503C57.6239 662.884 54.7124 676.718 66.1585 683.108C74.9713 688.029 88.2733 688.352 98.0791 687.667C103.643 699.32 108.031 711.437 112.342 723.594C94.3492 723.653 76.2402 723.285 58.2647 723.987C58.6021 731.717 60.6237 739.625 62.0642 747.224C64.7208 760.621 67.1703 774.058 69.4116 787.531L0 787.551L0 0Z"/>
	<path fill="#000002" d="M865.976 376.02C865.627 366.397 862.086 357.088 854.909 350.484C849.829 345.811 844.21 343.712 837.563 342.251C835.49 341.796 833.204 341.47 831.285 340.56C821.168 335.767 817.316 326.328 804.329 327.161C799.149 327.493 792.289 329.569 788.738 333.472C787.878 334.417 787.265 335.869 787.381 337.155C787.768 341.437 794.793 341.939 794.683 347.408C794.633 349.907 791.323 354.678 790.622 358.598C791.832 362.585 796.902 373.73 794.808 377.266C792.904 380.482 785.721 384.106 782.628 386.876C779.482 389.693 779.219 393.269 777.335 396.8C774.857 401.446 757.433 404.139 751.943 405.921C760.866 419.349 776.398 420.309 789.121 428.363C795.578 432.451 800.058 439.198 806.408 443.492C808.619 444.988 822.184 450.192 822.368 451.634C818.942 451.54 815.176 450.367 812.026 449.035C800.725 444.257 794.298 434.035 783.708 428.588C776.765 425.017 769.16 422.669 762.299 418.966C759.241 417.315 756.416 415.239 753.441 413.445C749.724 411.204 745.831 409.261 742.142 406.971C736.501 403.468 731.11 399.509 725.529 395.896C715.955 389.696 699.497 381.019 692.446 372.575C679.28 356.806 664.726 320.538 656.433 300.422C647.052 302.461 639.924 305.836 631.691 310.614C636.701 335.3 647.65 385.691 663.412 404.421C669.192 411.29 676.78 416.805 683.611 422.579L719.392 452.622L740.044 469.633C744.386 473.218 749.431 476.914 752.992 481.285C753.905 482.406 754.79 483.485 754.675 484.962C754.542 484.994 754.411 485.044 754.275 485.058C750.073 485.485 744.377 478.226 740.989 475.888C740.866 475.804 740.741 475.722 740.617 475.639C734.645 493.623 727.372 511.241 720.976 529.088C712.442 552.412 705.753 576.372 700.973 600.744C699.056 610.688 697.131 620.965 696.377 631.059C696.737 631.288 697.099 631.513 697.469 631.724C711.182 639.533 727.435 648.079 742.797 651.909C772.078 659.209 815.668 648.878 844.585 640.624C833.204 612.352 823.613 583.666 814.297 554.656C817.005 548.228 820.526 542.151 823.71 535.948C832.05 519.697 841.098 503.092 847.874 486.136C853.679 471.607 854.186 458.611 847.976 444.158C843.503 447.085 839.507 449.732 834.353 451.267C836.296 448.716 839.508 446.827 842.084 444.899C846.493 441.599 850.814 438.108 855.829 435.762C858.921 434.316 862.455 433.461 865.706 432.417C874.407 429.623 881.678 425.064 887.204 417.714C884.803 416.947 882.289 416.226 880.018 415.119C871.748 411.088 868.06 404.775 865.232 396.471C865.231 395.678 865.164 394.755 865.307 393.978C865.575 392.522 865.853 392.297 866.923 391.392C868.208 398.892 870.293 406.082 877.028 410.59C880.913 413.19 886.563 413.581 890.137 416.399C889.055 421.725 883.938 425.705 879.598 428.554C870.052 434.822 858.762 434.772 850.623 441.449C858.016 459.273 857.652 471.548 850.288 489.383C841.096 511.643 828.218 532.2 818.16 554.011C819.265 561.673 822.562 569.484 825.053 576.804C829.487 589.834 833.773 602.971 838.585 615.866C842.005 625.031 846.237 634.132 848.782 643.583C846.659 644.187 844.54 644.841 842.398 645.37C853.127 687.024 868.79 727.25 889.053 765.192C893.067 772.692 896.892 780.472 901.501 787.62L1024 787.628L1024 791.268C1000.84 790.764 977.604 791.032 954.437 791.04C937.478 791.045 920.328 790.569 903.397 791.374L922.406 826.843C925.259 832.161 928.806 837.718 931.129 843.252C931.628 844.439 931.475 845.699 931.348 846.942C931.183 848.561 933.537 852.214 934.365 853.665C937.419 859.015 940.813 864.63 944.686 869.425C948.642 874.322 964.957 889.517 966.34 893.627C966.594 894.381 966.64 894.838 966.19 895.482C963.162 899.813 919.163 930.894 911.394 936.617C902.651 943.058 894.129 949.901 885.214 956.094C883.544 957.254 880.424 959.718 878.409 959.762C876.801 959.798 875.119 958.643 874.125 957.468C870.904 953.664 870.776 948.611 871.086 943.931C874.207 938.882 878.367 934.413 881.807 929.558C891.03 916.54 900.195 903.167 908.223 889.376C899.99 877.282 890.335 866.334 881.875 854.406L854.186 814.795C848.694 806.86 843.403 798.714 837.561 791.032L772.416 791.01C772.417 802.453 773.178 813.954 773.534 825.395C774.456 851.813 775.159 878.239 775.644 904.668C774.242 905.417 772.728 906.036 771.282 906.701C771.423 915.009 772.011 923.346 772.601 931.635C772.989 937.087 773.962 943.103 773.285 948.545C773.008 950.775 772.466 953.062 770.575 954.467C769.069 955.586 766.866 955.973 765.054 956.186C755.071 957.357 668.643 962.781 664.406 961.248C663.469 960.909 663.145 960.117 662.761 959.267C661.52 956.521 662.024 952.704 663.122 949.99C663.888 948.097 664.995 946.401 666.784 945.355C673.43 941.471 684.441 938.465 691.851 935.485C703.219 930.913 714.269 925.504 725.474 920.541C725.51 913.241 725.827 905.779 725.4 898.497C725.027 892.12 724.017 885.725 723.314 879.373C722.069 867.614 720.752 855.864 719.363 844.121L565.036 843.832C570.022 845.915 574.787 848.289 579.073 851.62C584.995 856.222 589.457 862.642 590.281 870.261C590.966 877.09 588.939 883.915 584.637 889.263C578.591 896.894 570.59 900.091 561.115 901.172C561.003 909.441 558.733 917.171 553.345 923.569C544.578 933.98 516.175 944.838 502.649 945.69C499.754 945.873 496.083 946.022 493.762 944.012C493.494 943.293 493.19 942.846 493.326 942.058C494.692 934.129 508.611 933.456 514.037 928.787C515.038 927.925 515.577 927.467 515.705 926.102C509.233 921.905 467.426 940.049 458.177 942.877C450.436 945.244 441.975 947.087 433.873 947.426C430.706 947.559 425.482 947.73 423.226 945.134C422.305 944.075 422.291 943.094 422.325 941.765C425.484 936.211 447.514 936.552 454.579 930.862C455.662 929.989 455.71 929.846 455.867 928.539C455.284 927.257 454.512 925.873 453.187 925.205C449.982 923.588 441.721 928.129 438.229 929.309C432.168 931.355 419.26 933.959 413.455 930.547C412.324 929.882 412.088 929.349 411.752 928.13C413.771 919.189 433.29 924.074 438.317 917.706C440.185 915.34 434.937 908.089 434.882 904.285C434.801 898.736 437.953 894.748 441.548 890.939C440.906 887.74 440.502 883.333 442.268 880.419C442.879 879.411 443.168 879.432 444.242 879.133C447.275 880.152 448.582 883.584 450.009 886.207C453.561 887.021 457.185 887.604 460.769 888.269C462.679 886.393 464.746 884.06 467.004 882.622C468.095 881.927 468.68 881.807 469.917 882.064C472.65 885.711 469.438 892.031 470.741 896.232L471.747 896.66C478.185 895.772 485.418 884.362 489.905 879.704C492.766 876.735 495.927 873.969 499.415 871.756C508.269 866.137 519.092 864.876 529.226 867.257C538.415 869.417 548.04 875.094 553.704 882.759C555.808 885.605 557.167 889.096 559.025 892.132C564.43 891.463 569.481 890.789 573.98 887.386C577.852 884.432 580.37 880.043 580.967 875.21C583.28 857.344 558.303 857.442 554.895 851.52C554.447 850.741 554.299 850.005 554.447 849.142C554.731 847.493 555.961 846.133 557.296 845.218C558.033 844.712 558.154 844.716 558.612 843.899C549.731 843.174 540.242 843.84 531.301 843.868L477.631 843.947L311.495 844.038L253.212 844.193C242.38 844.212 231.431 844.564 220.613 844.025C219.645 826.645 220.407 808.822 220.363 791.392C208.765 791 197.082 791.206 185.474 791.171C181.458 812.856 177.929 834.717 173.392 856.294C162.738 856.805 151.889 856.395 141.208 856.381C121.893 856.45 102.577 856.301 83.2655 855.935C81.3605 849.919 80.4077 843.202 79.1542 836.999C76.0794 821.782 73.4483 806.504 70.1785 791.322C46.8953 790.352 23.3151 791.048 0 791.033L0 787.551L69.4116 787.531C67.1703 774.058 64.7208 760.621 62.0642 747.224C60.6237 739.625 58.6021 731.717 58.2647 723.987C76.2402 723.285 94.3492 723.653 112.342 723.594C108.031 711.437 103.643 699.32 98.0791 687.667C88.2733 688.352 74.9713 688.029 66.1585 683.108C54.7124 676.718 57.6239 662.884 53.4171 652.503C49.3993 642.588 40.3064 640.841 36.7109 627.838C34.615 620.258 34.4008 610.277 38.5857 603.355C40.6448 599.949 43.8086 597.572 47.7037 596.682C61.4798 593.535 74.6733 608.78 81.2823 619.03C84.5416 624.084 87.0462 630.026 90.8793 634.645C93.1809 637.419 96.5472 639.266 99.5519 641.187C104.652 644.447 108.026 648.027 109.25 654.18C111.531 665.64 107.443 676.514 101.262 685.971C106.622 698.247 111.899 710.586 115.605 723.483L127.028 723.478C130.739 678.978 129.318 634.2 122.794 590.026C121.853 589.727 120.918 589.41 119.989 589.077C104.882 583.629 92.1807 573.12 85.3206 558.424C76.7193 539.998 87.401 537.543 88.1049 524.485C88.7964 511.656 82.7791 508.116 88.5185 492.86C90.9988 486.268 95.344 479.456 102.028 476.572C106.157 474.79 110.639 474.98 114.757 476.69C126.627 481.62 135.536 498.279 137.634 510.363C138.619 516.039 138.199 522.276 140.006 527.747C141.623 532.643 146.627 535.527 148.538 540.227C152.052 548.87 151.063 559.662 147.611 568.151C143.413 578.476 136.194 585.838 125.953 590.133C129.79 616.128 132.206 641.872 132.312 668.182C132.386 686.613 131.239 704.96 130.395 723.358L135.749 723.446C137.373 715.919 140.324 710.327 144.483 703.859C142.529 701.152 140.803 698.41 139.667 695.252C137.447 689.076 137.324 681.591 140.335 675.643C144.407 667.602 151.62 667.565 157.822 662.553C164.73 656.971 166.224 649.927 175.938 646.83C179.64 645.649 183.692 645.604 187.163 647.518C190.549 649.385 192.714 652.783 193.581 656.491C196.145 667.46 188.649 674.885 183.452 683.451C183.579 689.246 184.305 696.111 181.335 701.355C178.843 705.755 174.416 708.296 169.637 709.552C161.441 711.705 153.731 710.549 146.459 706.247C142.975 711.546 140.955 717.362 139.058 723.367C151.788 723.608 164.557 723.45 177.291 723.474C183.245 723.485 189.719 722.914 195.581 723.87C196.562 725.185 196.349 726.774 196.25 728.38C195.915 733.816 194.528 739.458 193.577 744.839C191.059 759.08 187.791 773.55 186.287 787.916C197.681 787.761 209.088 787.838 220.484 787.813L220.471 99.6808C211.701 86.3392 202.139 73.5154 192.892 60.5001C189.064 55.1118 183.54 48.7755 180.946 42.7506C180.992 42.1287 180.815 41.5562 181.385 41.1697C183.682 39.6124 189.655 40.5353 192.507 40.5615L651.763 40.4766L762.049 40.4861L787.416 40.454C792.805 40.4314 799.101 39.7854 804.353 40.8926C805.647 41.1654 805.414 41.3018 806.064 42.3375C806.017 42.7811 806.054 43.2419 805.924 43.6685C805.167 46.144 770.8 90.5875 765.499 97.6268L765.975 188.25C765.979 215.817 765.623 243.385 766.308 270.945C766.515 279.257 765.006 291.451 767.113 299.038C768.897 305.463 782.831 324.72 787.435 330.996C792.902 327.298 799.573 324.606 806.246 324.566C817.205 324.501 822.917 333.112 831.912 337.468C834.482 338.713 837.398 339.365 840.133 340.163C847.136 342.206 853.103 345.571 858.249 350.796C865.141 357.792 867.994 366.448 867.918 376.146L865.976 376.02ZM743.926 184.907L743.927 172.604L415.544 172.579C415.563 176.848 415.475 181.145 415.612 185.41L415.701 195.113C415.609 198.946 414.797 204.549 416.181 208.079C419.383 210.618 421.704 211.075 423.309 215.177C435.927 220.551 447.961 227.204 459.222 235.031C463.347 229.402 467.392 222.703 473.493 219.018C473.508 214.305 473.291 209.474 473.585 204.777C474.329 201.778 473.059 197.039 475.053 194.664L476.101 194.581C477.064 195.868 476.927 197.061 477.087 198.641C477.584 205.34 477.158 212.403 477.164 219.133C487.145 224.318 493.053 239.613 499.593 248.685C503.709 254.395 508.405 259.553 513.285 264.605C517.909 258.219 522.808 252.049 527.193 245.489C533.589 235.919 539.058 225.846 546.97 217.394C546.949 210.555 546.829 203.7 547.144 196.867C547.455 195.438 547.82 194.761 548.659 193.613L549.196 193.578C551.06 195.632 550.535 198.585 550.927 201.115L551.12 217.174C563.273 225.751 568.216 244.268 576.535 256.06C578.779 259.239 583.75 259.97 585.116 262.16C584.546 264.602 581.887 265.827 579.905 267.064C568.164 255.482 561.735 230.445 548.918 221.389C542.285 227.896 537.322 237.535 532.092 245.284C527.097 252.602 521.835 259.733 516.317 266.665C518.678 268.533 522.342 270.51 523.887 272.999C523.847 273.716 524.036 274.051 523.417 274.535C522.441 275.298 520.988 275.507 519.776 275.325C517.625 275.001 515.205 272.354 513.564 270.94C512.759 272.272 511.889 274.093 510.303 274.604C509.757 274.78 509.319 274.774 508.766 274.804C507.881 274.131 507.608 273.894 507.549 272.672C507.457 270.792 509.618 268.772 510.777 267.427C505.605 262.561 501.031 257.544 496.838 251.804C491.262 244.173 486.094 232.154 479.929 225.752C478.574 224.344 477.187 223.303 475.191 223.162C470.727 224.665 465.738 233.296 462.837 237.216C469.049 242.486 475.301 247.789 479.946 254.559C507.151 294.213 515.941 378.162 519.913 426.389C520.468 433.624 520.919 440.867 521.265 448.115C511.862 450.344 502.506 452.321 492.926 453.63C489.649 454.077 473.675 454.511 471.895 456.05C470.493 457.262 469.611 457.906 467.757 458.177C450.556 460.697 432.956 463.345 415.531 463.54C415.576 526.405 414.534 589.351 415.35 652.207C438.27 652.32 461.207 652.131 484.123 652.448C484.046 645.894 483.511 638.898 484.781 632.441C489.831 632.379 494.882 632.384 499.932 632.455L499.929 612.984C513.334 612.901 606.126 611.802 609.619 613.446C611.21 615.654 610.748 618.976 610.687 621.581C613.86 621.971 616.898 622.028 619.19 624.553C619.608 625.014 619.958 625.611 620.292 626.128C625.072 626.228 629.841 626.33 634.622 626.224C636.457 623.07 638.453 620.968 642.064 619.989C645.072 619.174 648.272 619.278 651.312 618.597C653.895 618.018 656.376 616.584 658.986 616.247C668.908 614.966 681.988 621.176 690.236 626.133C691.298 626.767 692.327 627.455 693.319 628.193C697.762 591.805 706.977 557.226 719.326 522.764C725.292 506.115 732.338 489.684 737.577 472.789C731.799 467.685 725.936 462.677 719.991 457.767C720.206 471.515 720.564 485.247 720.599 498.997C713.279 501.412 689.849 509.189 683.385 508.735C681.346 507.226 681.096 502.257 680.733 499.843L674.529 459.236C673.602 452.956 673.117 446.596 671.929 440.359C670.609 451.5 669.469 462.662 668.511 473.84C667.854 481.154 667.689 496.45 665.025 502.749C662.567 504.05 659.068 502.846 656.526 502.048C645.902 498.713 632.681 494.747 626.229 485.025L627.099 446.179C618.132 444.57 610.224 442.446 602.487 437.42C603.624 425.292 603.783 413.072 604.662 400.919C606.404 376.831 609.129 352.814 611.18 328.75C612.44 313.966 612.873 299.012 614.449 284.276C612.555 285.437 609.527 287.559 607.145 286.968C605.866 286.651 604.936 285.815 604.382 284.635C604.02 283.863 603.932 282.844 603.746 282.012C603.668 281.663 603.574 281.318 603.488 280.971C599.873 283.436 593.013 289.02 588.488 287.781C587.303 287.457 586.612 286.81 586.128 285.704C585.67 284.657 585.727 283.519 586.381 282.588C589.225 278.535 597.801 274.861 602.18 272.392C602.967 267.475 603.978 262.955 606.146 258.444C611.219 247.894 625.091 233.537 634.438 226.289C634.38 221.434 634.151 216.516 634.414 211.668C634.434 211.474 634.456 211.28 634.473 211.086C634.886 206.517 633.327 198.681 635.621 194.851L636.646 194.384L637.626 194.815C638.488 203.876 636.446 216.981 638.133 225.053C644.212 228.63 646.382 237.897 649.869 243.825L650.267 244.496C657.442 237.335 670.128 228.343 675.316 220.679C675.562 212.811 675.083 204.905 675.633 197.046L676.652 195.542C677.766 195.474 677.935 195.875 678.817 196.501C680.001 204.315 679.196 213.379 679.208 221.301C688.531 228.018 697.627 246.191 705.749 255.75C705.355 254.473 704.75 252.983 704.578 251.664C704.408 250.369 704.627 249.806 705.344 248.752C708.908 246.675 716.157 249.585 720.112 250.564C715.284 245.657 707.941 240.98 704.686 234.878C703.925 233.45 703.916 232.673 704.345 231.138C705.26 230.061 706.028 229.422 707.349 228.876C711.928 226.981 717.259 227.646 721.715 229.553C732.466 234.154 739.644 243.452 743.802 254.053C744.108 234.299 743.865 214.503 743.873 194.744C744.18 191.47 744.015 188.188 743.926 184.907ZM186.436 44.1216C188.798 49.2536 217.972 91.2006 219.767 91.9148C220.102 75.9416 219.824 59.9159 219.987 43.9309C208.888 43.9534 197.501 43.4625 186.436 44.1216ZM223.589 43.9391L223.966 840.518L719.181 840.515C718.607 835.91 718.129 831.268 717.372 826.69L512.076 826.662L446.934 826.683C435.346 826.682 423.569 827.114 412.004 826.557C411.832 811.352 411.795 796.145 411.894 780.939C411.909 772.434 411.369 763.436 412.21 754.982C413.104 754.295 413.751 754.116 414.843 754.032C422.411 753.454 430.27 753.818 437.871 753.817L480.444 753.795C535.38 753.66 590.384 754.524 645.305 753.916C645.701 749.613 646.147 745.316 646.643 741.024L489.627 741.14L439.864 741.19C430.622 741.193 421.026 741.682 411.834 740.887L411.919 696.056C411.905 686.834 411.465 677.379 412.021 668.186C424.964 667.589 438.053 667.908 451.014 667.911L522.75 668.004L649.116 667.991C648.96 663.993 648.864 659.983 648.641 655.99L487.677 655.972L437.829 655.951C429.184 655.948 420.378 656.281 411.75 655.84L411.564 552.427L411.451 310.833L411.69 177.393L411.641 98.9764C411.671 85.8129 411.298 72.5088 411.788 59.3606C443.748 59.3742 743.188 58.3967 746.31 59.8969C748.082 67.0317 746.999 90.6262 747.004 99.6478L747.419 212.747L747.39 244.791C747.383 251.434 746.73 258.863 748.089 265.367C750.413 276.489 756.716 285.784 763.055 294.866C760.841 259.421 762.058 223.261 762.058 187.719C761.764 139.81 761.741 91.9002 761.988 43.9909L223.589 43.9391ZM765.682 43.9188L765.58 92.0285C770.435 84.7615 776 78.0607 781.118 70.9921C788.032 62.0298 794.992 53.0436 801.513 43.7899C789.57 43.9001 777.626 43.943 765.682 43.9188ZM417.958 62.7347L416.567 62.9422C414.868 65.238 415.898 71.8219 415.904 74.6979C424.353 74.7213 435.078 75.6818 443.227 74.5445C443.727 73.5417 443.928 72.635 444.167 71.5496C446.657 70.2066 506.061 71.0677 514.443 71.0548C519.939 71.0463 526.655 71.7469 532.001 70.7756C533.066 70.5822 533.755 70.1844 534.578 69.5172L542.737 62.4998C501.273 64.0395 459.453 62.9127 417.958 62.7347ZM547.285 62.5613C541.98 66.7669 536.194 70.6251 532.542 76.4326C531.775 107.372 532.623 138.501 532.506 169.466L541.16 169.589C545.908 169.566 550.664 169.6 555.412 169.516C554.071 157.632 555.034 143.813 555.073 131.72C555.24 108.635 555.01 85.5479 554.385 62.47L547.285 62.5613ZM620.152 62.75C599.65 62.8361 579.051 62.4704 558.562 62.9288L558.542 169.162L587.101 169.103C607.351 169.159 627.705 169.604 647.946 169.237L648.077 62.6843C638.768 62.6472 629.46 62.6691 620.152 62.75ZM651.542 62.5324L651.353 169.337L743.638 169.082L743.51 92.3584C735.94 93.574 729.371 94.0601 722.732 89.3724C714.122 83.2934 710.822 72.529 709.318 62.6096L651.542 62.5324ZM713.617 62.7578C712.538 65.3183 714.147 70.4208 715.144 72.9033C717.723 79.3235 722.684 86.6078 729.342 89.1848C733.636 90.8468 738.446 90.0951 742.832 89.2281C744.317 87.3871 743.486 66.5374 743.473 62.6282C733.559 62.6606 723.518 62.393 713.617 62.7578ZM447.021 74.6078L446.989 94.0752L529.421 93.6427C529.459 87.299 529.251 80.8187 529.65 74.4928L447.021 74.6078ZM415.636 78.0034C415.635 93.4796 415.503 108.956 415.24 124.429C414.861 138.992 413.659 154.846 415.09 169.265C424.412 169.789 433.943 169.638 443.28 169.443C444.382 139.074 443.556 108.451 443.65 78.05C434.312 77.9584 424.974 77.9428 415.636 78.0034ZM446.78 97.463C446.442 121.334 446.032 145.33 446.512 169.199C474.11 169.512 501.72 168.944 529.32 169.025C530.108 159.907 529.695 150.488 529.663 141.337L529.516 97.4149L446.78 97.463ZM415.468 212.721C415.473 214.238 415.226 215.917 416.136 217.209C417.751 217.396 418.43 216.927 419.908 216.304L420.283 215.001C419.284 213.517 418.196 213.214 416.475 212.898L415.468 212.721ZM422.309 219.49L415.608 222.116C415.699 222.261 415.787 222.408 415.881 222.551C418.839 227.092 423.198 230.961 426.887 234.947C432.945 241.493 438.97 249.09 443.341 256.88C464.881 295.275 466.45 347.095 468.78 390.048C469.969 410.518 470.946 431.001 471.71 451.491C484.185 451.09 496.603 449.628 508.831 447.122L517.424 445.215C516.009 423.437 513.82 401.716 510.862 380.094C506.873 349.109 502.589 317.068 491.928 287.56C486.624 272.877 478.919 256.92 467.177 246.346C457.793 237.896 435.029 223.5 423.008 219.385L422.309 219.49ZM679.694 226.664C679.654 227.682 679.408 229.086 679.56 230.065C679.872 232.072 696.455 251.9 699.167 254.885C700.199 256.02 701.324 257.196 702.628 258.016C700.544 253.062 695.55 248.317 692.404 243.858C689.076 239.143 686.144 234.043 682.647 229.472C681.804 228.37 680.871 227.408 679.694 226.664ZM415.339 228.668C414.98 278.117 414.903 327.568 415.108 377.017C415.117 404.505 414.498 432.133 415.182 459.607C430.982 459.279 446.872 457.57 462.48 455.142L467.989 454.254L465.363 394.972C463.512 356.25 461.99 311.723 447.726 275.394C441.697 260.036 429.616 241.724 417.486 230.445C416.794 229.801 416.117 229.204 415.339 228.668ZM637.969 230.249C637.034 232.958 636.22 235.627 635.542 238.414C639.484 242.111 642.516 246.59 645.55 251.033C646.37 249.715 647.36 248.691 647.032 247.041C646.045 242.084 641.611 233.544 637.969 230.249ZM709.287 231.536C708.934 232.216 708.41 232.678 708.707 233.454C710.893 239.17 726.4 247.347 726.007 254.667C725.024 255.336 724.332 255.719 723.092 255.454C721.199 255.051 719.423 253.961 717.555 253.418C714.451 252.516 711.11 252.4 707.951 251.619C708.033 251.786 708.116 251.952 708.195 252.12C708.867 253.553 709.227 254.721 709.452 256.286C710.383 262.762 714.095 270.696 718.98 275.152C722.134 278.029 725.7 280.544 728.32 283.954C731.571 288.186 733.08 292.84 734.556 297.893L735.247 299.806L736.013 300.038C742.191 296.638 748.007 292.589 754.294 289.4C751.982 285.185 748.851 281.03 747.145 276.558C740.371 258.804 738.848 238.403 717.158 232.225C714.466 231.458 712.046 231.418 709.287 231.536ZM669.032 233.807C660.589 239.477 652.303 246.198 647.872 255.6C649.382 262.57 651.607 269.372 653.492 276.248C655.117 282.176 656.447 288.259 658.437 294.077C664.943 313.104 681.091 351.069 693.106 366.919C696.173 370.965 699.515 374.049 703.532 377.115C707.867 379.885 712.293 382.577 716.552 385.459C716.35 376.376 715.335 367.277 714.695 358.214C713.419 340.151 711.909 302.674 705.054 287.124C700.155 276.011 691.022 265.963 684.27 255.843C680.56 250.283 674.967 238.743 670.849 234.734C670.229 234.131 669.874 233.996 669.032 233.807ZM677.421 235.45C677.118 240.515 689.887 257.246 693.256 261.981L697.489 259.977L698.543 259.295C695.718 255.613 692.067 252.596 689.086 249.037C686.07 245.434 683.84 241.194 680.642 237.742C679.646 236.667 678.822 235.951 677.421 235.45ZM628.836 238.466C620.46 245.524 607.288 256.341 606.529 268.309C606.319 271.611 607.419 273.788 606.395 277.17C606.326 277.397 606.277 277.63 606.218 277.86C606.864 279.323 607.387 280.951 608.513 282.095C608.765 281.878 609.014 281.657 609.269 281.443C610.088 280.757 610.641 280.548 611.712 280.395C612.828 280.703 613.612 280.998 614.572 281.65C615.408 280.422 616.543 278.712 616.367 277.165C616.287 276.458 615.736 276.318 615.207 275.938C613.412 275.739 610.944 275.92 609.779 274.528C609.903 273.25 610.432 271.692 611.401 270.772C612.296 269.923 613.163 269.533 614.406 269.794C618.964 270.752 625.434 282.834 627.349 286.8C629.969 292.692 631.94 298.747 634.022 304.839C641.128 300.995 647.335 298.634 655.229 297.078C653.329 290.536 651.503 283.971 649.753 277.387C645.914 262.988 642.141 247.065 628.836 238.466ZM707.338 265.498C704.387 266.779 701.344 267.976 698.471 269.419C702.268 274.908 706.398 280.414 708.726 286.726C716.52 307.863 719.507 364.567 720.399 388.148C726.739 392.033 741.984 403.731 747.756 405.484L748.879 405.13L749.174 404.285L748.847 403.734C747.102 401.564 744.453 398.867 744.964 395.823C745.339 393.591 746.887 392.045 748.405 390.476C745.806 385.01 743.376 379.275 745.632 373.213C746.694 370.359 748.726 368.462 750.899 366.418C746.947 352.419 742.082 338.66 737.157 324.979C734.797 318.425 732.714 311.498 729.524 305.291L732.146 302.711C730.075 293.187 727.25 287.603 720.036 280.91C717.878 278.908 715.463 276.927 713.591 274.661C711.444 272.064 710.185 268.152 707.875 265.838C707.725 265.688 707.517 265.611 707.338 265.498ZM619.483 280.841C616.235 295.458 616.334 311.441 615.243 326.363C613.528 349.843 610.861 373.265 609.024 396.74C608.024 409.518 608.262 422.824 606.522 435.469C612.972 438.917 619.327 441.063 626.631 441.782C627.954 440.247 627.5 434.963 627.602 432.712C628.688 412.168 630.261 391.652 632.319 371.183C633.133 363.017 635.617 351.862 635.189 343.96C634.71 335.133 631.193 325.468 628.972 316.877C628.458 314.89 627.24 311.99 627.188 310.011C627.18 309.718 627.687 308.919 627.788 308.796C628.406 308.039 629.494 307.35 630.275 306.744C628.478 299.837 624.984 285.787 619.483 280.841ZM756.786 292.594C749.296 296.269 740.916 300.451 734.443 305.726C740.297 324.909 748.121 344.061 754.179 363.447L759.141 358.674C764.6 353.985 773.018 348.247 777.641 343.651C780.453 340.856 781.947 336.927 784.766 333.996L769.926 311.442C765.966 305.316 762.037 297.615 756.786 292.594ZM784.845 339.888C783.286 342.249 781.833 344.578 780.518 347.087C773.134 351.325 750.739 369.001 748.566 376.728C747.274 381.318 755.161 389.816 751.722 391.931C750.21 392.861 749.563 392.624 748.578 394.234C748.467 396.485 748.856 398.093 750.369 399.836C751.703 401.372 753.57 402.492 755.613 402.614C761.85 400.636 769.892 399.187 775.372 395.77C776.161 393.453 776.839 390.733 778.127 388.662C781.469 383.29 790.755 379.507 791.763 377.087C795.568 367.955 783.126 363.65 793.503 347.327C790.881 344.452 788.034 342.112 784.845 339.888ZM637.955 355.787C635.885 367.477 635.186 379.753 634.167 391.597C631.546 422.259 630.109 453.011 629.857 483.784C634.347 490.815 654.001 498.77 662.1 499.759C662.365 499.791 662.635 499.755 662.902 499.753C664.536 481.165 666.331 462.591 668.286 444.034C669.208 435.156 669.614 425.786 671.323 417.039C655.643 403.952 649.137 388.389 642.596 369.601C641.077 365.235 640.203 359.77 637.955 355.787ZM674.454 420.166C673.709 428.754 675.21 437.692 676.281 446.211C678.737 465.765 682.835 486.014 684.737 505.371C693.028 503.285 701.262 500.978 709.431 498.454L716.983 496.078L715.956 454.983C707.328 447.388 698.611 439.896 689.805 432.507C685.032 428.45 679.862 423.24 674.454 420.166ZM106.214 478.534C99.7007 481.029 95.2151 485.45 92.419 491.855C86.4049 505.631 92.2878 513.356 91.2416 526.517C90.2954 538.418 81.3713 539.73 87.345 554.669C93.2677 569.479 106.249 580.189 120.647 586.241C121.037 586.408 121.429 586.568 121.824 586.721C120.284 573.949 118.13 560.85 115.044 548.35C113.57 542.38 110.691 536.255 109.771 530.217C110.604 529.353 111.056 529.29 112.218 528.924C119.463 543.283 123.575 570.92 125.28 587.09C134.754 582.595 141.52 575.151 145.054 565.23C147.486 558.405 148.642 549.064 145.543 542.302C143.312 537.432 138.546 533.955 136.77 528.823C134.933 523.512 135.629 517.526 134.697 512.033C132.676 500.127 124.167 483.144 112.063 479.008C110.139 478.351 108.215 478.448 106.214 478.534ZM48.6231 599.593C44.6372 601.229 42.0162 603.01 40.3775 607.147C37.5362 614.321 37.9906 623.526 41.0903 630.542C44.3332 637.883 51.1559 642.029 55.1017 648.783C61.6594 660.007 55.9078 676.008 71.0243 681.558C79.0585 684.508 88.0778 684.634 96.5207 684.478C86.4536 662.992 79.3644 650.38 61.8747 633.805C63.0679 633.093 63.6213 632.442 65.0903 632.88C67.655 633.645 70.5849 637.183 72.3612 639.143C84.2702 652.283 92.6752 667.082 99.6191 683.278C104.493 674.949 108.002 662.639 105.387 653.056C103.118 644.741 95.0787 643.648 89.6515 638.357C86.5789 635.362 84.5196 631.026 82.378 627.345C76.9701 618.05 69.7786 607.31 60.074 602.036C56.2739 599.971 52.8949 599.258 48.6231 599.593ZM503.37 616.363L503.443 632.125L566.378 632.102C577.284 632.112 588.429 632.573 599.314 632.046C599.321 626.864 599.395 621.671 599.284 616.49L503.37 616.363ZM603.571 616.196C603.434 619.053 602.837 622.406 604.074 625.042C605.115 625.854 605.952 625.938 607.217 626.169C607.18 626.025 607.141 625.881 607.107 625.737C606.62 623.673 607.315 617.378 605.313 616.567C604.942 616.416 603.985 616.269 603.571 616.196ZM655.848 620.207L655.261 620.857C656.573 622.234 658.115 623.196 659.517 624.458C662.978 627.576 665.661 632.172 667.641 636.344C675.41 652.705 677.226 672.972 680.394 690.758C682.441 702.249 684.85 713.764 686.103 725.373C686.754 731.62 687.049 737.899 686.987 744.179C692.027 742.992 696.905 741.313 701.75 739.496L707.47 737.441C705.741 724.167 704.611 710.814 703.051 697.519C700.689 677.401 697.833 657.014 697.921 636.725C697.769 636.651 697.616 636.581 697.465 636.505C694.053 634.783 691.181 632.153 688.061 629.967C678.335 623.155 667.829 618.942 655.848 620.207ZM646.314 622.54C643.59 623.525 640.704 624.593 639.091 627.142L639.19 628.316L639.91 628.284C641.629 628.217 643.168 627.903 644.51 629.174C653.969 638.124 653.121 669.685 653.071 682.438C652.946 714.71 651.335 748.223 644.53 779.819C649.569 777.092 654.681 774.256 659.228 770.749C667.986 763.189 677.683 753.508 683.414 743.402C683.194 723.022 678.922 703.766 675.303 683.827C673.111 671.751 671.596 659.249 667.815 647.545C665.535 640.49 662.485 632.489 657.149 627.125C654.319 624.28 651.222 622.508 647.159 622.522C646.877 622.523 646.596 622.534 646.314 622.54ZM615.079 635.75C605.885 635.897 596.69 635.926 587.495 635.837C587.524 641.284 587.399 646.781 587.723 652.22L620.75 652.212C629.906 652.211 639.071 652.292 648.226 652.167C647.378 646.347 646.71 640.866 643.812 635.615C634.234 635.504 624.655 635.549 615.079 635.75ZM487.583 635.913L487.733 652.292C519.866 652.094 552 652.105 584.133 652.324C583.934 646.84 583.666 641.342 583.606 635.855L520.483 635.879C509.536 635.881 498.522 635.592 487.583 635.913ZM702.345 637.831C700.25 643.124 701.399 650.969 701.844 656.58C704.382 688.596 709.15 720.518 712.987 752.388C715.955 777.041 717.955 801.861 720.749 826.551L726.18 879.228C727.019 886.946 727.406 895.627 729.237 903.13C743.453 908.338 758.141 907.122 772.573 903.661C772.505 879.901 771.426 856.059 770.617 832.311C770.204 820.197 770.13 808.073 769.686 795.958C769.002 777.3 767.647 758.672 768.03 739.991C768.35 724.339 771.041 708.53 772.22 692.893C772.638 687.344 773.152 669.864 775.625 665.837C776.565 665.677 776.143 665.594 777.067 666.222C779.122 667.617 780.645 670.064 781.836 672.198C785.893 679.473 789.062 687.667 792.38 695.307C799.726 712.218 806.663 729.36 813.768 746.378C815.427 750.358 817.219 754.141 819.44 757.842C824.695 766.596 830.882 774.931 836.605 783.393C846.925 798.654 857.103 813.948 867.665 829.049C875.209 839.834 885.253 856.222 894.238 865.104C906.256 859.07 917.709 853.675 928.513 845.486C920.326 829.055 911.449 813.061 902.695 796.932C899.744 791.494 897.137 785.878 894.168 780.443C885.509 764.587 876.454 748.883 869.022 732.392C861.797 716.359 856.777 699.587 851.036 682.996C846.847 670.891 841.3 658.508 839.451 645.759C839.229 645.778 839.007 645.795 838.785 645.818C831.107 646.595 823.351 649.117 815.797 650.765C789.046 656.599 759.901 662.094 733.303 652.633C722.517 648.796 712.972 642.134 702.345 637.831ZM177.648 649.573C165.947 654.373 167.443 659.773 159.798 665.72C153.656 670.498 146.738 669.256 142.939 677.991C140.48 683.646 141.302 690.337 143.634 695.888C144.295 697.469 145.022 699.022 145.815 700.541C148.927 693.979 162.153 673.883 168.713 671.022C168.874 670.952 169.047 670.914 169.214 670.859C170.295 671.543 170.28 671.55 170.686 672.766C169.114 675.157 167.033 677.142 165.058 679.2C158.672 686.59 152.737 694.028 148.124 702.693C152.319 706.17 157.177 707.936 162.673 707.488C167.24 707.116 174.148 705.38 177.197 701.838C181.301 697.071 178.867 689.336 180.305 683.65C182.815 673.725 192.045 670.453 190.413 656.892C190.146 654.674 189.275 652.709 187.386 651.423C184.426 649.407 181.074 649.238 177.648 649.573ZM415.492 671.554L415.48 737.5L646.965 737.607C647.258 733.408 647.579 729.21 647.927 725.014C649.217 707.306 649.694 689.549 649.356 671.798L619.679 671.763C614.311 671.769 608.547 671.369 603.226 672.071C598.039 672.754 594.377 674.898 589.941 677.407C586.953 679.097 584.077 680.847 580.68 681.606C571.757 683.6 561.369 677.242 554.553 672.081C535.09 671.271 515.525 671.539 496.048 671.51L415.492 671.554ZM571.124 671.751C567.755 671.819 564.351 671.795 560.99 672.013C567.807 675.434 574.898 679.699 582.758 677.133L593.507 671.811C586.041 671.478 578.584 671.974 571.124 671.751ZM777.131 671.228C775.163 694.594 771.837 718.212 771.079 741.615C770.59 756.727 771.752 772.354 772.475 787.478L830.125 787.531L835.352 787.442C828.815 777.011 819.985 766.345 814.57 755.511C808.754 743.877 782.221 674.33 777.131 671.228ZM61.9 727.034C63.3059 739.721 66.406 752.642 68.7484 765.217L85.8047 852.597C113.922 853.041 142.065 852.897 170.187 852.964C171.637 846.976 172.808 840.931 174.012 834.89C178.655 810.846 183.053 786.754 187.208 762.621C189.263 750.735 191.743 738.792 193.245 726.828L61.9 727.034ZM707.168 741.011C700.605 743.637 692.624 747.3 685.559 747.884C684.017 749.433 682.463 750.941 681.11 752.663L681.241 753.546C682.409 754.016 683.41 753.849 684.625 753.733L709.592 753.78C709.139 750.032 709.174 744.617 707.64 741.228L707.168 741.011ZM491.794 757.244C466.413 757.317 441.005 757.126 415.629 757.541C415.45 779.501 415.389 801.463 415.444 823.425L683.75 823.028C694.901 822.978 706.053 823.013 717.204 823.133C714.75 801.281 712.933 779.215 710.013 757.436C699.186 757.203 688.355 757.164 677.526 757.32C668.477 767.151 659.952 775.897 648.013 782.275C646.186 783.251 643.668 784.931 641.606 785.174C640.819 785.267 640.64 784.894 640.059 784.45C639.902 784.018 639.787 783.805 639.811 783.292C639.94 780.561 641.385 777.047 641.973 774.299C643.149 768.804 643.926 763.161 644.722 757.6C629.398 757.452 614.072 757.429 598.747 757.529C590.822 762.858 583.563 767.914 573.378 766.118C565.952 764.808 560.481 759.265 553.423 757.856C546.174 756.41 537.89 757.092 530.485 757.096L491.794 757.244ZM561.754 757.106C567.875 761.194 574.728 763.369 582.16 762.036C584.701 761.581 587.211 760.477 589.595 759.512C590.473 758.892 591.937 758.187 592.352 757.211C585.043 756.315 569.617 756.827 561.754 757.106ZM561.863 846.193C559.832 846.829 558.45 847.844 557.422 849.754L557.614 850.775C560.143 852.115 563.473 852.611 566.25 853.409C573.444 855.478 580.467 859.949 582.742 867.452C584.3 872.59 583.754 877.737 581.177 882.449C578.109 888.048 572.883 892.147 566.714 893.794C563.859 894.547 560.097 894.801 557.379 893.391C554.403 891.848 552.796 885.818 550.763 883.048C542.006 871.114 524.11 867.388 510.246 870.093C507.127 870.701 503.606 871.874 500.899 873.546C497.249 875.8 493.534 879.631 490.611 882.779C486.614 887.084 475.942 902.011 469.282 898.975C466.876 896.156 468.041 890.98 468.315 887.492L468.454 885.749C466.31 887.195 464.455 888.531 462.711 890.478C459.098 890.266 453.274 890.553 450.082 888.909C448.641 888.167 447.247 886.207 446.133 885.02C445.402 884.242 445.234 883.506 444.157 883.797C443.288 886.357 445.07 888.906 444.55 891.306C443.644 895.492 433.549 898.537 438.187 908.03C439.582 910.884 442.396 914.858 441.64 918.175C441.26 919.84 439.764 920.721 438.334 921.39C434.077 923.381 416.836 926.121 415.65 927.477C416.57 928.732 418.037 929.021 419.552 929.278C429.07 930.892 437.119 927.011 445.143 922.456C446.854 921.486 448.731 920.13 450.732 919.978C452.222 919.866 453.125 921.112 454.185 922.006C456.499 924.435 458.503 927.305 460.133 930.238C459.991 930.362 459.849 930.488 459.705 930.611C453.354 936.024 443.511 938.388 435.484 939.85C432.835 940.333 429.579 940.544 427.076 941.466C426.114 941.82 425.953 942.059 425.434 942.88C425.739 943.541 425.727 943.922 426.448 944.234C428.595 945.163 431.544 944.719 433.828 944.528C443.885 943.689 454.058 940.708 463.683 937.731C472.114 935.123 511.401 918.668 517.713 923.855C518.261 925.121 518.697 926.159 518.294 927.58C517.269 931.199 512.067 933.112 508.936 934.418C505.416 935.887 498.955 937.501 496.822 940.821C496.839 942.175 496.904 942.151 497.793 943.191C503.848 945.145 532.909 934.411 539.886 930.862C547.227 927.129 553.785 920.643 556.38 912.714C557.817 908.325 557.977 903.936 557.964 899.361C567.759 898.157 575.827 895.263 582.067 887.301C585.989 882.297 588.453 875.666 587.517 869.266C586.45 861.968 580.87 855.314 575 851.151C571.115 848.395 566.663 846.463 561.863 846.193ZM927.516 849.942C917.432 856.339 906.87 861.951 895.926 866.729C901.535 874.219 907.86 881.725 912.474 889.865C903.469 903.566 894.534 917.503 885.001 930.836C882.369 934.517 875.316 941.603 874.39 945.588L874.77 946.814L875.114 946.485L875.543 946.589C875.643 946.489 875.74 946.386 875.844 946.29C877.51 944.744 879.532 943.446 881.351 942.073C893.377 932.991 905.749 924.378 917.746 915.253C930.04 905.903 942.296 895.409 955.57 887.526C950.459 881.782 945.128 876.054 940.611 869.827C938.05 866.297 929.421 851.194 927.516 849.942ZM957.635 889.393C951.503 894.671 944.699 899.307 938.235 904.18C925.104 914.176 911.867 924.033 898.527 933.747C890.553 939.648 881.875 945.358 874.768 952.293C875.722 953.744 876.528 955.319 878.058 956.224L878.808 956.064C886.859 950.498 894.564 944.509 902.477 938.76C914.635 929.927 926.915 921.338 938.886 912.245C946.658 906.341 955.46 900.541 962.569 893.881C961.026 892.253 959.595 890.525 957.635 889.393ZM728.729 906.243C728.784 911.835 729.062 917.428 729.098 923.016C716.018 928.978 702.803 934.636 689.461 939.986C682.956 942.571 676.008 944.828 669.655 947.715C668.518 948.231 667.978 948.537 667.492 949.722C680.58 949.287 693.595 947.269 706.723 946.928C727.706 945.665 748.601 943.28 769.571 941.916C768.837 930.445 767.648 918.815 767.436 907.333C754.335 909.351 741.672 909.209 728.729 906.243ZM766.842 945.724L713.232 949.995C706.139 950.509 669.38 952.036 666.199 953.38C665.606 954.819 665.404 955.364 665.756 956.951C666.814 958.217 666.85 958.35 668.534 958.543C668.772 958.571 669.013 958.571 669.252 958.584C693.033 956.539 716.981 955.813 740.801 954.14C747.748 953.652 758.523 953.651 765.05 952.397C766.445 952.129 768.025 951.343 768.859 950.148C769.708 948.932 770.023 947.698 769.758 946.243C768.667 945.391 768.191 945.652 766.842 945.724Z"/>
	<path fill="#1F023F" d="M219.767 91.9148C217.972 91.2006 188.798 49.2536 186.436 44.1216C197.501 43.4625 208.888 43.9534 219.987 43.9309C219.824 59.9159 220.102 75.9416 219.767 91.9148Z"/>
	<path fill="#9F8BE8" d="M223.966 840.518L223.589 43.9391L761.988 43.9909C761.741 91.9002 761.764 139.81 762.058 187.719C762.058 223.261 760.841 259.421 763.055 294.866C756.716 285.784 750.413 276.489 748.089 265.367C746.73 258.863 747.383 251.434 747.39 244.791L747.419 212.747L747.004 99.6478C746.999 90.6262 748.082 67.0317 746.31 59.8969C743.188 58.3967 443.748 59.3742 411.788 59.3606C411.298 72.5088 411.671 85.8129 411.641 98.9764L411.69 177.393L411.451 310.833L411.564 552.427L411.75 655.84C420.378 656.281 429.184 655.948 437.829 655.951L487.677 655.972L648.641 655.99C648.864 659.983 648.96 663.993 649.116 667.991L522.75 668.004L451.014 667.911C438.053 667.908 424.964 667.589 412.021 668.186C411.465 677.379 411.905 686.834 411.919 696.056L411.834 740.887C421.026 741.682 430.622 741.193 439.864 741.19L489.627 741.14L646.643 741.024C646.147 745.316 645.701 749.613 645.305 753.916C590.384 754.524 535.38 753.66 480.444 753.795L437.871 753.817C430.27 753.818 422.411 753.454 414.843 754.032C413.751 754.116 413.104 754.295 412.21 754.982C411.369 763.436 411.909 772.434 411.894 780.939C411.795 796.145 411.832 811.352 412.004 826.557C423.569 827.114 435.346 826.682 446.934 826.683L512.076 826.662L717.372 826.69C718.129 831.268 718.607 835.91 719.181 840.515L223.966 840.518ZM238.574 59.4711L238.287 547.791L238.289 740.327L238.299 796.073C238.282 806.197 237.851 816.587 238.488 826.687C260.006 827.694 281.852 826.892 303.411 826.856C334.283 826.804 365.224 827.166 396.086 826.567L397.192 826.016C398.404 822.029 397.529 800.252 397.532 793.926L397.403 686.366L397.494 296.126L397.365 131.62C397.263 107.574 397.58 83.3982 396.988 59.3672L290.479 59.3915C273.27 59.3827 255.75 58.7035 238.574 59.4711Z"/>
	<path fill="#9F8BE8" d="M765.58 92.0285L765.682 43.9188C777.626 43.943 789.57 43.9001 801.513 43.7899C794.992 53.0436 788.032 62.0298 781.118 70.9921C776 78.0607 770.435 84.7615 765.58 92.0285Z"/>
	<path fill="#000002" d="M238.488 826.687C237.851 816.587 238.282 806.197 238.299 796.073L238.289 740.327L238.287 547.791L238.574 59.4711C255.75 58.7035 273.27 59.3827 290.479 59.3915L396.988 59.3672C397.58 83.3982 397.263 107.574 397.365 131.62L397.494 296.126L397.403 686.366L397.532 793.926C397.529 800.252 398.404 822.029 397.192 826.016L396.086 826.567C365.224 827.166 334.283 826.804 303.411 826.856C281.852 826.892 260.006 827.694 238.488 826.687ZM393.557 62.9773L242 62.7198L241.888 291.531L241.825 327.955C241.707 350.815 241.36 373.784 241.896 396.634C241.293 402.788 241.578 409.169 241.625 415.351C241.714 424.581 241.753 433.811 241.739 443.041C241.57 476.899 241.609 510.759 241.857 544.617L241.801 597.088C241.613 609.265 241.348 621.577 241.778 633.748C241.861 644.875 241.87 656.003 241.807 667.131C241.511 680.74 241.178 694.679 241.632 708.28C241.087 746.596 241.675 784.998 241.52 823.33C259.872 823.738 278.301 823.433 296.662 823.421L393.792 823.276L393.883 692.672C394.003 670.04 394.002 647.408 393.881 624.776C394.687 604.905 393.86 584.697 393.841 564.791C393.811 532.74 394.184 500.667 393.849 468.62C393.943 456.675 393.943 444.73 393.85 432.786L393.818 390.693C394.065 367.079 394.127 343.463 394.005 319.848L393.802 147.282L393.835 92.0711C393.826 82.4403 394.288 72.5651 393.557 62.9773Z"/>
	<path fill="#C4BCFE" d="M242 62.7198L393.557 62.9773C392.631 75.7205 393.346 88.9972 393.354 101.793L393.373 176.18C386.017 180.921 379.152 186.597 372.206 191.922C360.295 200.882 348.506 210.005 336.845 219.289C305.727 244.065 274.067 268.151 241.888 291.531L242 62.7198Z"/>
	<path fill="#9F8BE8" d="M415.904 74.6979C415.898 71.8219 414.868 65.238 416.567 62.9422L417.958 62.7347C459.453 62.9127 501.273 64.0395 542.737 62.4998L534.578 69.5172C533.755 70.1844 533.066 70.5822 532.001 70.7756C526.655 71.7469 519.939 71.0463 514.443 71.0548C506.061 71.0677 446.657 70.2066 444.167 71.5496C443.928 72.635 443.727 73.5417 443.227 74.5445C435.078 75.6818 424.353 74.7213 415.904 74.6979Z"/>
	<path fill="#1F023F" d="M532.542 76.4326C536.194 70.6251 541.98 66.7669 547.285 62.5613L554.385 62.47C555.01 85.5479 555.24 108.635 555.073 131.72C555.034 143.813 554.071 157.632 555.412 169.516C550.664 169.6 545.908 169.566 541.16 169.589L532.506 169.466C532.623 138.501 531.775 107.372 532.542 76.4326Z"/>
	<path fill="#C4BCFE" d="M558.562 62.9288C579.051 62.4704 599.65 62.8361 620.152 62.75C629.46 62.6691 638.768 62.6472 648.077 62.6843L647.946 169.237C627.705 169.604 607.351 169.159 587.101 169.103L558.542 169.162L558.562 62.9288Z"/>
	<path fill="#C4BCFE" d="M651.353 169.337L651.542 62.5324L709.318 62.6096C710.822 72.529 714.122 83.2934 722.732 89.3724C729.371 94.0601 735.94 93.574 743.51 92.3584L743.638 169.082L651.353 169.337Z"/>
	<path fill="#C4BCFE" d="M742.832 89.2281C738.446 90.0951 733.636 90.8468 729.342 89.1848C722.684 86.6078 717.723 79.3235 715.144 72.9033C714.147 70.4208 712.538 65.3183 713.617 62.7578C723.518 62.393 733.559 62.6606 743.473 62.6282C743.486 66.5374 744.317 87.3871 742.832 89.2281Z"/>
	<path fill="#9F8BE8" d="M393.557 62.9773C394.288 72.5651 393.826 82.4403 393.835 92.0711L393.802 147.282L394.005 319.848C377.655 330.252 361.577 344.831 346.347 356.983C323.537 375.184 300.283 392.921 277.24 410.832C265.841 419.693 254.643 430.14 242.144 437.326C242.137 460.939 241.892 484.577 242.133 508.187C258.236 496.612 273.133 483.446 288.911 471.469C293.31 468.13 301.888 464.057 305.122 459.927C309.49 464.922 317.05 465.51 322.138 461.249C327.225 456.989 327.975 449.444 323.825 444.266C346.961 426.097 370.152 408.181 393.818 390.693L393.85 432.786C393.606 431.212 393.332 429.644 393.026 428.082C391.324 428.006 387.316 431.229 385.721 432.378C379.092 437.148 372.766 442.468 366.297 447.468C349.163 460.712 332.268 474.159 315.389 487.726C298.918 500.965 282.023 513.848 265.291 526.767C260.057 530.809 246.88 542.495 241.857 544.617C241.609 510.759 241.57 476.899 241.739 443.041C241.753 433.811 241.714 424.581 241.625 415.351C241.578 409.169 241.293 402.788 241.896 396.634C242.226 398.107 242.186 399.842 242.28 401.36C256.805 391.303 270.519 379.987 284.445 369.12C301.218 356.03 318.396 343.477 335.183 330.405C354.325 315.5 373.362 299.854 393.365 286.135C393.631 261.192 393.358 236.217 393.349 211.27C384.28 218.944 374.465 225.821 365.018 233.027L316.315 270.633L268.804 307.161C259.927 314.043 251.177 321.79 241.825 327.955L241.888 291.531C274.067 268.151 305.727 244.065 336.845 219.289C348.506 210.005 360.295 200.882 372.206 191.922C379.152 186.597 386.017 180.921 393.373 176.18L393.354 101.793C393.346 88.9972 392.631 75.7205 393.557 62.9773Z"/>
	<path fill="#9F8BE8" d="M446.989 94.0752L447.021 74.6078L529.65 74.4928C529.251 80.8187 529.459 87.299 529.421 93.6427L446.989 94.0752Z"/>
	<path fill="#1F023F" d="M415.09 169.265C413.659 154.846 414.861 138.992 415.24 124.429C415.503 108.956 415.635 93.4796 415.636 78.0034C424.974 77.9428 434.312 77.9584 443.65 78.05C443.556 108.451 444.382 139.074 443.28 169.443C433.943 169.638 424.412 169.789 415.09 169.265Z"/>
	<path fill="#C4BCFE" d="M446.512 169.199C446.032 145.33 446.442 121.334 446.78 97.463L529.516 97.4149L529.663 141.337C529.695 150.488 530.108 159.907 529.32 169.025C501.72 168.944 474.11 169.512 446.512 169.199Z"/>
	<path fill="#9F8BE8" d="M743.926 184.907C634.508 186.275 525.039 184.506 415.612 185.41C415.475 181.145 415.563 176.848 415.544 172.579L743.927 172.604L743.926 184.907Z"/>
	<path fill="#1F023F" d="M415.612 185.41C525.039 184.506 634.508 186.275 743.926 184.907C744.015 188.188 744.18 191.47 743.873 194.744C729.474 194.941 715.074 194.999 700.674 194.918C694.324 194.914 687.385 194.335 681.105 194.988C680.176 195.085 679.645 195.034 679.03 195.887C678.903 196.062 678.888 196.296 678.817 196.501C677.935 195.875 677.766 195.474 676.652 195.542L675.633 197.046L675.192 195.262C671.824 193.81 644.409 194.884 638.412 194.786C638.419 202.456 639.34 218.246 638.133 225.053C636.446 216.981 638.488 203.876 637.626 194.815L636.646 194.384L635.621 194.851C633.327 198.681 634.886 206.517 634.473 211.086C634.456 211.28 634.434 211.474 634.414 211.668C633.944 206.096 634.23 200.355 634.239 194.762C606.533 195.196 578.771 194.889 551.06 194.926L550.927 201.115C550.535 198.585 551.06 195.632 549.196 193.578L548.659 193.613C547.82 194.761 547.455 195.438 547.144 196.867C546.95 196.21 546.983 195.425 546.289 195.146C544.335 194.361 484.868 194.884 478.049 195.136L477.467 195.491L477.087 198.641C476.927 197.061 477.064 195.868 476.101 194.581L475.053 194.664C473.059 197.039 474.329 201.778 473.585 204.777C473.475 201.581 473.56 198.357 473.563 195.157C454.346 194.703 434.924 194.816 415.701 195.113L415.612 185.41Z"/>
	<path fill="#9F8BE8" d="M415.701 195.113C434.924 194.816 454.346 194.703 473.563 195.157C473.56 198.357 473.475 201.581 473.585 204.777C473.291 209.474 473.508 214.305 473.493 219.018C467.392 222.703 463.347 229.402 459.222 235.031C447.961 227.204 435.927 220.551 423.309 215.177C421.704 211.075 419.383 210.618 416.181 208.079C414.797 204.549 415.609 198.946 415.701 195.113Z"/>
	<path fill="#9F8BE8" d="M477.087 198.641L477.467 195.491L478.049 195.136C484.868 194.884 544.335 194.361 546.289 195.146C546.983 195.425 546.95 196.21 547.144 196.867C546.829 203.7 546.949 210.555 546.97 217.394C539.058 225.846 533.589 235.919 527.193 245.489C522.808 252.049 517.909 258.219 513.285 264.605C508.405 259.553 503.709 254.395 499.593 248.685C493.053 239.613 487.145 224.318 477.164 219.133C477.158 212.403 477.584 205.34 477.087 198.641Z"/>
	<path fill="#9F8BE8" d="M550.927 201.115L551.06 194.926C578.771 194.889 606.533 195.196 634.239 194.762C634.23 200.355 633.944 206.096 634.414 211.668C634.151 216.516 634.38 221.434 634.438 226.289C625.091 233.537 611.219 247.894 606.146 258.444C603.978 262.955 602.967 267.475 602.18 272.392C597.801 274.861 589.225 278.535 586.381 282.588C585.727 283.519 585.67 284.657 586.128 285.704C586.612 286.81 587.303 287.457 588.488 287.781C593.013 289.02 599.873 283.436 603.488 280.971C603.574 281.318 603.668 281.663 603.746 282.012C603.932 282.844 604.02 283.863 604.382 284.635C604.936 285.815 605.866 286.651 607.145 286.968C609.527 287.559 612.555 285.437 614.449 284.276C612.873 299.012 612.44 313.966 611.18 328.75C609.129 352.814 606.404 376.831 604.662 400.919C603.783 413.072 603.624 425.292 602.487 437.42C610.224 442.446 618.132 444.57 627.099 446.179L626.229 485.025C632.681 494.747 645.902 498.713 656.526 502.048C659.068 502.846 662.567 504.05 665.025 502.749C667.689 496.45 667.854 481.154 668.511 473.84C669.469 462.662 670.609 451.5 671.929 440.359C673.117 446.596 673.602 452.956 674.529 459.236L680.733 499.843C681.096 502.257 681.346 507.226 683.385 508.735C689.849 509.189 713.279 501.412 720.599 498.997C720.564 485.247 720.206 471.515 719.991 457.767C725.936 462.677 731.799 467.685 737.577 472.789C732.338 489.684 725.292 506.115 719.326 522.764C706.977 557.226 697.762 591.805 693.319 628.193C692.327 627.455 691.298 626.767 690.236 626.133C681.988 621.176 668.908 614.966 658.986 616.247C656.376 616.584 653.895 618.018 651.312 618.597C648.272 619.278 645.072 619.174 642.064 619.989C638.453 620.968 636.457 623.07 634.622 626.224C629.841 626.33 625.072 626.228 620.292 626.128C619.958 625.611 619.608 625.014 619.19 624.553C616.898 622.028 613.86 621.971 610.687 621.581C610.748 618.976 611.21 615.654 609.619 613.446C606.126 611.802 513.334 612.901 499.929 612.984L499.932 632.455C494.882 632.384 489.831 632.379 484.781 632.441C483.511 638.898 484.046 645.894 484.123 652.448C461.207 652.131 438.27 652.32 415.35 652.207C414.534 589.351 415.576 526.405 415.531 463.54C432.956 463.345 450.556 460.697 467.757 458.177C469.611 457.906 470.493 457.262 471.895 456.05C473.675 454.511 489.649 454.077 492.926 453.63C502.506 452.321 511.862 450.344 521.265 448.115C520.919 440.867 520.468 433.624 519.913 426.389C515.941 378.162 507.151 294.213 479.946 254.559C475.301 247.789 469.049 242.486 462.837 237.216C465.738 233.296 470.727 224.665 475.191 223.162C477.187 223.303 478.574 224.344 479.929 225.752C486.094 232.154 491.262 244.173 496.838 251.804C501.031 257.544 505.605 262.561 510.777 267.427C509.618 268.772 507.457 270.792 507.549 272.672C507.608 273.894 507.881 274.131 508.766 274.804C509.319 274.774 509.757 274.78 510.303 274.604C511.889 274.093 512.759 272.272 513.564 270.94C515.205 272.354 517.625 275.001 519.776 275.325C520.988 275.507 522.441 275.298 523.417 274.535C524.036 274.051 523.847 273.716 523.887 272.999C522.342 270.51 518.678 268.533 516.317 266.665C521.835 259.733 527.097 252.602 532.092 245.284C537.322 237.535 542.285 227.896 548.918 221.389C561.735 230.445 568.164 255.482 579.905 267.064C581.887 265.827 584.546 264.602 585.116 262.16C583.75 259.97 578.779 259.239 576.535 256.06C568.216 244.268 563.273 225.751 551.12 217.174L550.927 201.115Z"/>
	<path fill="#9F8BE8" d="M638.412 194.786C644.409 194.884 671.824 193.81 675.192 195.262L675.633 197.046C675.083 204.905 675.562 212.811 675.316 220.679C670.128 228.343 657.442 237.335 650.267 244.496L649.869 243.825C646.382 237.897 644.212 228.63 638.133 225.053C639.34 218.246 638.419 202.456 638.412 194.786Z"/>
	<path fill="#9F8BE8" d="M678.817 196.501C678.888 196.296 678.903 196.062 679.03 195.887C679.645 195.034 680.176 195.085 681.105 194.988C687.385 194.335 694.324 194.914 700.674 194.918C715.074 194.999 729.474 194.941 743.873 194.744C743.865 214.503 744.108 234.299 743.802 254.053C739.644 243.452 732.466 234.154 721.715 229.553C717.259 227.646 711.928 226.981 707.349 228.876C706.028 229.422 705.26 230.061 704.345 231.138C703.916 232.673 703.925 233.45 704.686 234.878C707.941 240.98 715.284 245.657 720.112 250.564C716.157 249.585 708.908 246.675 705.344 248.752C704.627 249.806 704.408 250.369 704.578 251.664C704.75 252.983 705.355 254.473 705.749 255.75C697.627 246.191 688.531 228.018 679.208 221.301C679.196 213.379 680.001 204.315 678.817 196.501Z"/>
	<path fill="#C4BCFE" d="M241.825 327.955C251.177 321.79 259.927 314.043 268.804 307.161L316.315 270.633L365.018 233.027C374.465 225.821 384.28 218.944 393.349 211.27C393.358 236.217 393.631 261.192 393.365 286.135C373.362 299.854 354.325 315.5 335.183 330.405C318.396 343.477 301.218 356.03 284.445 369.12C270.519 379.987 256.805 391.303 242.28 401.36C242.186 399.842 242.226 398.107 241.896 396.634C241.36 373.784 241.707 350.815 241.825 327.955Z"/>
	<path fill="#FEFEFE" d="M419.908 216.304C418.43 216.927 417.751 217.396 416.136 217.209C415.226 215.917 415.473 214.238 415.468 212.721L416.475 212.898C418.196 213.214 419.284 213.517 420.283 215.001L419.908 216.304Z"/>
	<path fill="#FEFEFE" d="M415.608 222.116L422.309 219.49L423.008 219.385C435.029 223.5 457.793 237.896 467.177 246.346C478.919 256.92 486.624 272.877 491.928 287.56C502.589 317.068 506.873 349.109 510.862 380.094C513.82 401.716 516.009 423.437 517.424 445.215L508.831 447.122C496.603 449.628 484.185 451.09 471.71 451.491C470.946 431.001 469.969 410.518 468.78 390.048C466.45 347.095 464.881 295.275 443.341 256.88C438.97 249.09 432.945 241.493 426.887 234.947C423.198 230.961 418.839 227.092 415.881 222.551C415.787 222.408 415.699 222.261 415.608 222.116Z"/>
	<path fill="#8E51FF" d="M702.628 258.016C701.324 257.196 700.199 256.02 699.167 254.885C696.455 251.9 679.872 232.072 679.56 230.065C679.408 229.086 679.654 227.682 679.694 226.664C680.871 227.408 681.804 228.37 682.647 229.472C686.144 234.043 689.076 239.143 692.404 243.858C695.55 248.317 700.544 253.062 702.628 258.016Z"/>
	<path fill="#FEFEFE" d="M415.182 459.607C414.498 432.133 415.117 404.505 415.108 377.017C414.903 327.568 414.98 278.117 415.339 228.668C416.117 229.204 416.794 229.801 417.486 230.445C429.616 241.724 441.697 260.036 447.726 275.394C461.99 311.723 463.512 356.25 465.363 394.972L467.989 454.254L462.48 455.142C446.872 457.57 430.982 459.279 415.182 459.607Z"/>
	<path fill="#8E51FF" d="M635.542 238.414C636.22 235.627 637.034 232.958 637.969 230.249C641.611 233.544 646.045 242.084 647.032 247.041C647.36 248.691 646.37 249.715 645.55 251.033C642.516 246.59 639.484 242.111 635.542 238.414Z"/>
	<path fill="#FEFEFE" d="M707.951 251.619C711.11 252.4 714.451 252.516 717.555 253.418C719.423 253.961 721.199 255.051 723.092 255.454C724.332 255.719 725.024 255.336 726.007 254.667C726.4 247.347 710.893 239.17 708.707 233.454C708.41 232.678 708.934 232.216 709.287 231.536C712.046 231.418 714.466 231.458 717.158 232.225C738.848 238.403 740.371 258.804 747.145 276.558C748.851 281.03 751.982 285.185 754.294 289.4C748.007 292.589 742.191 296.638 736.013 300.038L735.247 299.806L734.556 297.893C733.08 292.84 731.571 288.186 728.32 283.954C725.7 280.544 722.134 278.029 718.98 275.152C714.095 270.696 710.383 262.762 709.452 256.286C709.227 254.721 708.867 253.553 708.195 252.12C708.116 251.952 708.033 251.786 707.951 251.619Z"/>
	<path fill="#C4BCFE" d="M647.872 255.6C652.303 246.198 660.589 239.477 669.032 233.807C669.874 233.996 670.229 234.131 670.849 234.734C674.967 238.743 680.56 250.283 684.27 255.843C691.022 265.963 700.155 276.011 705.054 287.124C711.909 302.674 713.419 340.151 714.695 358.214C715.335 367.277 716.35 376.376 716.552 385.459C712.293 382.577 707.867 379.885 703.532 377.115C699.515 374.049 696.173 370.965 693.106 366.919C681.091 351.069 664.943 313.104 658.437 294.077C656.447 288.259 655.117 282.176 653.492 276.248C651.607 269.372 649.382 262.57 647.872 255.6Z"/>
	<path fill="#9F8BE8" d="M693.256 261.981C689.887 257.246 677.118 240.515 677.421 235.45C678.822 235.951 679.646 236.667 680.642 237.742C683.84 241.194 686.07 245.434 689.086 249.037C692.067 252.596 695.718 255.613 698.543 259.295L697.489 259.977L693.256 261.981Z"/>
	<path fill="#FEFEFE" d="M606.218 277.86C606.277 277.63 606.326 277.397 606.395 277.17C607.419 273.788 606.319 271.611 606.529 268.309C607.288 256.341 620.46 245.524 628.836 238.466C642.141 247.065 645.914 262.988 649.753 277.387C651.503 283.971 653.329 290.536 655.229 297.078C647.335 298.634 641.128 300.995 634.022 304.839C631.94 298.747 629.969 292.692 627.349 286.8C625.434 282.834 618.964 270.752 614.406 269.794C613.163 269.533 612.296 269.923 611.401 270.772C610.432 271.692 609.903 273.25 609.779 274.528C610.944 275.92 613.412 275.739 615.207 275.938C615.736 276.318 616.287 276.458 616.367 277.165C616.543 278.712 615.408 280.422 614.572 281.65C613.612 280.998 612.828 280.703 611.712 280.395C610.641 280.548 610.088 280.757 609.269 281.443C609.014 281.657 608.765 281.878 608.513 282.095C607.387 280.951 606.864 279.323 606.218 277.86Z"/>
	<path fill="#9F8BE8" d="M698.471 269.419C701.344 267.976 704.387 266.779 707.338 265.498C707.517 265.611 707.725 265.688 707.875 265.838C710.185 268.152 711.444 272.064 713.591 274.661C715.463 276.927 717.878 278.908 720.036 280.91C727.25 287.603 730.075 293.187 732.146 302.711L729.524 305.291C732.714 311.498 734.797 318.425 737.157 324.979C742.082 338.66 746.947 352.419 750.899 366.418C748.726 368.462 746.694 370.359 745.632 373.213C743.376 379.275 745.806 385.01 748.405 390.476C746.887 392.045 745.339 393.591 744.964 395.823C744.453 398.867 747.102 401.564 748.847 403.734L749.174 404.285L748.879 405.13L747.756 405.484C741.984 403.731 726.739 392.033 720.399 388.148C719.507 364.567 716.52 307.863 708.726 286.726C706.398 280.414 702.268 274.908 698.471 269.419Z"/>
	<path fill="#C4BCFE" d="M606.522 435.469C608.262 422.824 608.024 409.518 609.024 396.74C610.861 373.265 613.528 349.843 615.243 326.363C616.334 311.441 616.235 295.458 619.483 280.841C624.984 285.787 628.478 299.837 630.275 306.744C629.494 307.35 628.406 308.039 627.788 308.796C627.687 308.919 627.18 309.718 627.188 310.011C627.24 311.99 628.458 314.89 628.972 316.877C631.193 325.468 634.71 335.133 635.189 343.96C635.617 351.862 633.133 363.017 632.319 371.183C630.261 391.652 628.688 412.168 627.602 432.712C627.5 434.963 627.954 440.247 626.631 441.782C619.327 441.063 612.972 438.917 606.522 435.469Z"/>
	<path fill="#FEFEFE" d="M734.443 305.726C740.916 300.451 749.296 296.269 756.786 292.594C762.037 297.615 765.966 305.316 769.926 311.442L784.766 333.996C781.947 336.927 780.453 340.856 777.641 343.651C773.018 348.247 764.6 353.985 759.141 358.674L754.179 363.447C748.121 344.061 740.297 324.909 734.443 305.726Z"/>
	<path fill="#FEFEFE" d="M822.368 451.634C825.721 452.89 831.049 452.173 834.353 451.267C839.507 449.732 843.503 447.085 847.976 444.158C854.186 458.611 853.679 471.607 847.874 486.136C841.098 503.092 832.05 519.697 823.71 535.948C820.526 542.151 817.005 548.228 814.297 554.656C823.613 583.666 833.204 612.352 844.585 640.624C815.668 648.878 772.078 659.209 742.797 651.909C727.435 648.079 711.182 639.533 697.469 631.724C697.099 631.513 696.737 631.288 696.377 631.059C697.131 620.965 699.056 610.688 700.973 600.744C705.753 576.372 712.442 552.412 720.976 529.088C727.372 511.241 734.645 493.623 740.617 475.639C740.741 475.722 740.866 475.804 740.989 475.888C744.377 478.226 750.073 485.485 754.275 485.058C754.411 485.044 754.542 484.994 754.675 484.962C754.79 483.485 753.905 482.406 752.992 481.285C749.431 476.914 744.386 473.218 740.044 469.633L719.392 452.622L683.611 422.579C676.78 416.805 669.192 411.29 663.412 404.421C647.65 385.691 636.701 335.3 631.691 310.614C639.924 305.836 647.052 302.461 656.433 300.422C664.726 320.538 679.28 356.806 692.446 372.575C699.497 381.019 715.955 389.696 725.529 395.896C731.11 399.509 736.501 403.468 742.142 406.971C745.831 409.261 749.724 411.204 753.441 413.445C756.416 415.239 759.241 417.315 762.299 418.966C769.16 422.669 776.765 425.017 783.708 428.588C794.298 434.035 800.725 444.257 812.026 449.035C815.176 450.367 818.942 451.54 822.368 451.634ZM755.094 559.876C754.269 561.125 753.75 561.46 753.914 562.982C760.228 571.077 788.484 587.657 798.589 589.113C798.733 589.133 798.878 589.145 799.023 589.161C799.665 587.851 799.956 587.776 799.503 586.414C795.749 583.833 791.028 582.563 786.853 580.802C783.308 579.306 779.866 577.354 776.562 575.388C771.644 572.46 767.072 569.145 762.556 565.643C760.19 563.809 757.676 561.307 755.094 559.876Z"/>
	<path fill="#C4BCFE" d="M242.144 437.326C254.643 430.14 265.841 419.693 277.24 410.832C300.283 392.921 323.537 375.184 346.347 356.983C361.577 344.831 377.655 330.252 394.005 319.848C394.127 343.463 394.065 367.079 393.818 390.693C370.152 408.181 346.961 426.097 323.825 444.266C321.551 441.429 318.132 439.755 314.497 439.697C309.677 439.621 305.264 442.391 303.236 446.765C301.209 451.14 301.948 456.298 305.122 459.927C301.888 464.057 293.31 468.13 288.911 471.469C273.133 483.446 258.236 496.612 242.133 508.187C241.892 484.577 242.137 460.939 242.144 437.326Z"/>
	<path fill="#1F023F" d="M790.622 358.598C791.323 354.678 794.633 349.907 794.683 347.408C794.793 341.939 787.768 341.437 787.381 337.155C787.265 335.869 787.878 334.417 788.738 333.472C792.289 329.569 799.149 327.493 804.329 327.161C817.316 326.328 821.168 335.767 831.285 340.56C833.204 341.47 835.49 341.796 837.563 342.251C844.21 343.712 849.829 345.811 854.909 350.484C862.086 357.088 865.627 366.397 865.976 376.02C865.068 382.869 863.881 389.596 865.232 396.471C868.06 404.775 871.748 411.088 880.018 415.119C882.289 416.226 884.803 416.947 887.204 417.714C881.678 425.064 874.407 429.623 865.706 432.417C862.455 433.461 858.921 434.316 855.829 435.762C850.814 438.108 846.493 441.599 842.084 444.899C839.508 446.827 836.296 448.716 834.353 451.267C831.049 452.173 825.721 452.89 822.368 451.634C822.184 450.192 808.619 444.988 806.408 443.492C800.058 439.198 795.578 432.451 789.121 428.363C776.398 420.309 760.866 419.349 751.943 405.921C757.433 404.139 774.857 401.446 777.335 396.8C779.219 393.269 779.482 389.693 782.628 386.876C785.721 384.106 792.904 380.482 794.808 377.266C796.902 373.73 791.832 362.585 790.622 358.598Z"/>
	<path fill="#FEFEFE" d="M780.518 347.087C781.833 344.578 783.286 342.249 784.845 339.888C788.034 342.112 790.881 344.452 793.503 347.327C783.126 363.65 795.568 367.955 791.763 377.087C790.755 379.507 781.469 383.29 778.127 388.662C776.839 390.733 776.161 393.453 775.372 395.77C769.892 399.187 761.85 400.636 755.613 402.614C753.57 402.492 751.703 401.372 750.369 399.836C748.856 398.093 748.467 396.485 748.578 394.234C749.563 392.624 750.21 392.861 751.722 391.931C755.161 389.816 747.274 381.318 748.566 376.728C750.739 369.001 773.134 351.325 780.518 347.087Z"/>
	<path fill="#C4BCFE" d="M629.857 483.784C630.109 453.011 631.546 422.259 634.167 391.597C635.186 379.753 635.885 367.477 637.955 355.787C640.203 359.77 641.077 365.235 642.596 369.601C649.137 388.389 655.643 403.952 671.323 417.039C669.614 425.786 669.208 435.156 668.286 444.034C666.331 462.591 664.536 481.165 662.902 499.753C662.635 499.755 662.365 499.791 662.1 499.759C654.001 498.77 634.347 490.815 629.857 483.784Z"/>
	<path fill="#040016" d="M865.976 376.02L867.918 376.146C867.471 381.237 867.227 386.294 866.923 391.392C865.853 392.297 865.575 392.522 865.307 393.978C865.164 394.755 865.231 395.678 865.232 396.471C863.881 389.596 865.068 382.869 865.976 376.02Z"/>
	<path fill="#C4BCFE" d="M684.737 505.371C682.835 486.014 678.737 465.765 676.281 446.211C675.21 437.692 673.709 428.754 674.454 420.166C679.862 423.24 685.032 428.45 689.805 432.507C698.611 439.896 707.328 447.388 715.956 454.983L716.983 496.078L709.431 498.454C701.262 500.978 693.028 503.285 684.737 505.371Z"/>
	<path fill="#C4BCFE" d="M241.857 544.617C246.88 542.495 260.057 530.809 265.291 526.767C282.023 513.848 298.918 500.965 315.389 487.726C332.268 474.159 349.163 460.712 366.297 447.468C372.766 442.468 379.092 437.148 385.721 432.378C387.316 431.229 391.324 428.006 393.026 428.082C393.332 429.644 393.606 431.212 393.85 432.786C393.943 444.73 393.943 456.675 393.849 468.62C392.568 470.981 393.393 477.241 393.378 480.146C384.39 485.08 376.497 491.989 368.476 498.307L339.92 520.598C329.37 528.925 318.564 536.917 308.005 545.229C289.935 559.644 271.696 573.846 253.294 587.834C249.403 590.838 245.713 594.122 241.801 597.088L241.857 544.617Z"/>
	<path fill="#000002" d="M314.497 439.697C318.132 439.755 321.551 441.429 323.825 444.266C327.975 449.444 327.225 456.989 322.138 461.249C317.05 465.51 309.49 464.922 305.122 459.927C301.948 456.298 301.209 451.14 303.236 446.765C305.264 442.391 309.677 439.621 314.497 439.697ZM312.385 443.708C307.982 444.813 305.289 449.258 306.349 453.673C307.409 458.088 311.827 460.825 316.252 459.81C319.155 459.144 321.476 456.97 322.332 454.118C323.187 451.265 322.445 448.172 320.387 446.019C318.33 443.866 315.274 442.983 312.385 443.708Z"/>
	<path fill="#9F8BE8" d="M316.252 459.81C311.827 460.825 307.409 458.088 306.349 453.673C305.289 449.258 307.982 444.813 312.385 443.708C315.274 442.983 318.33 443.866 320.387 446.019C322.445 448.172 323.187 451.265 322.332 454.118C321.476 456.97 319.155 459.144 316.252 459.81Z"/>
	<path fill="#9F8BE8" d="M393.378 480.146C393.393 477.241 392.568 470.981 393.849 468.62C394.184 500.667 393.811 532.74 393.841 564.791C393.86 584.697 394.687 604.905 393.881 624.776C392.208 616.044 393.525 598.194 393.415 588.362C386.547 592.614 380.166 597.854 373.745 602.754C362.538 611.316 351.379 619.941 340.268 628.628L242.297 704.35L241.632 708.28C241.178 694.679 241.511 680.74 241.807 667.131C247.731 661.665 254.587 657.002 261.017 652.147L292.897 627.992L393.363 550.25L393.37 515.621C387.13 519.662 381.376 524.751 375.522 529.348L346.978 551.621C324.627 569.295 301.876 586.443 279.598 604.219C271.368 610.862 263.059 617.408 254.674 623.855C250.447 627.153 246.299 630.868 241.778 633.748C241.348 621.577 241.613 609.265 241.801 597.088C245.713 594.122 249.403 590.838 253.294 587.834C271.696 573.846 289.935 559.644 308.005 545.229C318.564 536.917 329.37 528.925 339.92 520.598L368.476 498.307C376.497 491.989 384.39 485.08 393.378 480.146Z"/>
	<path fill="#9F8BE8" d="M121.824 586.721C121.429 586.568 121.037 586.408 120.647 586.241C106.249 580.189 93.2677 569.479 87.345 554.669C81.3713 539.73 90.2954 538.418 91.2416 526.517C92.2878 513.356 86.4049 505.631 92.419 491.855C95.2151 485.45 99.7007 481.029 106.214 478.534C108.215 478.448 110.139 478.351 112.063 479.008C124.167 483.144 132.676 500.127 134.697 512.033C135.629 517.526 134.933 523.512 136.77 528.823C138.546 533.955 143.312 537.432 145.543 542.302C148.642 549.064 147.486 558.405 145.054 565.23C141.52 575.151 134.754 582.595 125.28 587.09C123.575 570.92 119.463 543.283 112.218 528.924C111.056 529.29 110.604 529.353 109.771 530.217C110.691 536.255 113.57 542.38 115.044 548.35C118.13 560.85 120.284 573.949 121.824 586.721Z"/>
	<path fill="#C4BCFE" d="M241.778 633.748C246.299 630.868 250.447 627.153 254.674 623.855C263.059 617.408 271.368 610.862 279.598 604.219C301.876 586.443 324.627 569.295 346.978 551.621L375.522 529.348C381.376 524.751 387.13 519.662 393.37 515.621L393.363 550.25L292.897 627.992L261.017 652.147C254.587 657.002 247.731 661.665 241.807 667.131C241.87 656.003 241.861 644.875 241.778 633.748Z"/>
	<path fill="#000002" d="M799.023 589.161C798.878 589.145 798.733 589.133 798.589 589.113C788.484 587.657 760.228 571.077 753.914 562.982C753.75 561.46 754.269 561.125 755.094 559.876C757.676 561.307 760.19 563.809 762.556 565.643C767.072 569.145 771.644 572.46 776.562 575.388C779.866 577.354 783.308 579.306 786.853 580.802C791.028 582.563 795.749 583.833 799.503 586.414C799.956 587.776 799.665 587.851 799.023 589.161Z"/>
	<path fill="#C4BCFE" d="M393.415 588.362C393.525 598.194 392.208 616.044 393.881 624.776C394.002 647.408 394.003 670.04 393.883 692.672L393.792 823.276L296.662 823.421C278.301 823.433 259.872 823.738 241.52 823.33C241.675 784.998 241.087 746.596 241.632 708.28L242.297 704.35L340.268 628.628C351.379 619.941 362.538 611.316 373.745 602.754C380.166 597.854 386.547 592.614 393.415 588.362Z"/>
	<path fill="#9F8BE8" d="M96.5207 684.478C88.0778 684.634 79.0585 684.508 71.0243 681.558C55.9078 676.008 61.6594 660.007 55.1017 648.783C51.1559 642.029 44.3332 637.883 41.0903 630.542C37.9906 623.526 37.5362 614.321 40.3775 607.147C42.0162 603.01 44.6372 601.229 48.6231 599.593C52.8949 599.258 56.2739 599.971 60.074 602.036C69.7786 607.31 76.9701 618.05 82.378 627.345C84.5196 631.026 86.5789 635.362 89.6515 638.357C95.0787 643.648 103.118 644.741 105.387 653.056C108.002 662.639 104.493 674.949 99.6191 683.278C92.6752 667.082 84.2702 652.283 72.3612 639.143C70.5849 637.183 67.655 633.645 65.0903 632.88C63.6213 632.442 63.0679 633.093 61.8747 633.805C79.3644 650.38 86.4536 662.992 96.5207 684.478Z"/>
	<path fill="#FEFEFE" d="M503.443 632.125L503.37 616.363L599.284 616.49C599.395 621.671 599.321 626.864 599.314 632.046C588.429 632.573 577.284 632.112 566.378 632.102L503.443 632.125Z"/>
	<path fill="#FBDDFE" d="M607.217 626.169C605.952 625.938 605.115 625.854 604.074 625.042C602.837 622.406 603.434 619.053 603.571 616.196C603.985 616.269 604.942 616.416 605.313 616.567C607.315 617.378 606.62 623.673 607.107 625.737C607.141 625.881 607.18 626.025 607.217 626.169Z"/>
	<path fill="#C4BCFE" d="M686.987 744.179C687.049 737.899 686.754 731.62 686.103 725.373C684.85 713.764 682.441 702.249 680.394 690.758C677.226 672.972 675.41 652.705 667.641 636.344C665.661 632.172 662.978 627.576 659.517 624.458C658.115 623.196 656.573 622.234 655.261 620.857L655.848 620.207C667.829 618.942 678.335 623.155 688.061 629.967C691.181 632.153 694.053 634.783 697.465 636.505C697.616 636.581 697.769 636.651 697.921 636.725C697.833 657.014 700.689 677.401 703.051 697.519C704.611 710.814 705.741 724.167 707.47 737.441L701.75 739.496C696.905 741.313 692.027 742.992 686.987 744.179Z"/>
	<path fill="#C4BCFE" d="M644.53 779.819C651.335 748.223 652.946 714.71 653.071 682.438C653.121 669.685 653.969 638.124 644.51 629.174C643.168 627.903 641.629 628.217 639.91 628.284L639.19 628.316L639.091 627.142C640.704 624.593 643.59 623.525 646.314 622.54C646.596 622.534 646.877 622.523 647.159 622.522C651.222 622.508 654.319 624.28 657.149 627.125C662.485 632.489 665.535 640.49 667.815 647.545C671.596 659.249 673.111 671.751 675.303 683.827C678.922 703.766 683.194 723.022 683.414 743.402C677.683 753.508 667.986 763.189 659.228 770.749C654.681 774.256 649.569 777.092 644.53 779.819Z"/>
	<path fill="#FEFEFE" d="M587.495 635.837C596.69 635.926 605.885 635.897 615.079 635.75C624.655 635.549 634.234 635.504 643.812 635.615C646.71 640.866 647.378 646.347 648.226 652.167C639.071 652.292 629.906 652.211 620.75 652.212L587.723 652.22C587.399 646.781 587.524 641.284 587.495 635.837Z"/>
	<path fill="#FEFEFE" d="M487.733 652.292L487.583 635.913C498.522 635.592 509.536 635.881 520.483 635.879L583.606 635.855C583.666 641.342 583.934 646.84 584.133 652.324C552 652.105 519.866 652.094 487.733 652.292Z"/>
	<path fill="#1F023F" d="M729.237 903.13C727.406 895.627 727.019 886.946 726.18 879.228L720.749 826.551C717.955 801.861 715.955 777.041 712.987 752.388C709.15 720.518 704.382 688.596 701.844 656.58C701.399 650.969 700.25 643.124 702.345 637.831C712.972 642.134 722.517 648.796 733.303 652.633C759.901 662.094 789.046 656.599 815.797 650.765C823.351 649.117 831.107 646.595 838.785 645.818C839.007 645.795 839.229 645.778 839.451 645.759C841.3 658.508 846.847 670.891 851.036 682.996C856.777 699.587 861.797 716.359 869.022 732.392C876.454 748.883 885.509 764.587 894.168 780.443C897.137 785.878 899.744 791.494 902.695 796.932C911.449 813.061 920.326 829.055 928.513 845.486C917.709 853.675 906.256 859.07 894.238 865.104C885.253 856.222 875.209 839.834 867.665 829.049C857.103 813.948 846.925 798.654 836.605 783.393C830.882 774.931 824.695 766.596 819.44 757.842C817.219 754.141 815.427 750.358 813.768 746.378C806.663 729.36 799.726 712.218 792.38 695.307C789.062 687.667 785.893 679.473 781.836 672.198C780.645 670.064 779.122 667.617 777.067 666.222C776.143 665.594 776.565 665.677 775.625 665.837C773.152 669.864 772.638 687.344 772.22 692.893C771.041 708.53 768.35 724.339 768.03 739.991C767.647 758.672 769.002 777.3 769.686 795.958C770.13 808.073 770.204 820.197 770.617 832.311C771.426 856.059 772.505 879.901 772.573 903.661C758.141 907.122 743.453 908.338 729.237 903.13Z"/>
	<path fill="#9F8BE8" d="M145.815 700.541C145.022 699.022 144.295 697.469 143.634 695.888C141.302 690.337 140.48 683.646 142.939 677.991C146.738 669.256 153.656 670.498 159.798 665.72C167.443 659.773 165.947 654.373 177.648 649.573C181.074 649.238 184.426 649.407 187.386 651.423C189.275 652.709 190.146 654.674 190.413 656.892C192.045 670.453 182.815 673.725 180.305 683.65C178.867 689.336 181.301 697.071 177.197 701.838C174.148 705.38 167.24 707.116 162.673 707.488C157.177 707.936 152.319 706.17 148.124 702.693C152.737 694.028 158.672 686.59 165.058 679.2C167.033 677.142 169.114 675.157 170.686 672.766C170.28 671.55 170.295 671.543 169.214 670.859C169.047 670.914 168.874 670.952 168.713 671.022C162.153 673.883 148.927 693.979 145.815 700.541Z"/>
	<path fill="#C4BCFE" d="M415.48 737.5L415.492 671.554L496.048 671.51C515.525 671.539 535.09 671.271 554.553 672.081C561.369 677.242 571.757 683.6 580.68 681.606C584.077 680.847 586.953 679.097 589.941 677.407C594.377 674.898 598.039 672.754 603.226 672.071C608.547 671.369 614.311 671.769 619.679 671.763L649.356 671.798C649.694 689.549 649.217 707.306 647.927 725.014C647.579 729.21 647.258 733.408 646.965 737.607L415.48 737.5Z"/>
	<path fill="#1F023F" d="M560.99 672.013C564.351 671.795 567.755 671.819 571.124 671.751C578.584 671.974 586.041 671.478 593.507 671.811L582.758 677.133C574.898 679.699 567.807 675.434 560.99 672.013Z"/>
	<path fill="#C4BCFE" d="M772.475 787.478C771.752 772.354 770.59 756.727 771.079 741.615C771.837 718.212 775.163 694.594 777.131 671.228C782.221 674.33 808.754 743.877 814.57 755.511C819.985 766.345 828.815 777.011 835.352 787.442L830.125 787.531L772.475 787.478Z"/>
	<path fill="#9F8BE8" d="M85.8047 852.597L68.7484 765.217C66.406 752.642 63.3059 739.721 61.9 727.034L193.245 726.828C191.743 738.792 189.263 750.735 187.208 762.621C183.053 786.754 178.655 810.846 174.012 834.89C172.808 840.931 171.637 846.976 170.187 852.964C142.065 852.897 113.922 853.041 85.8047 852.597Z"/>
	<path fill="#C4BCFE" d="M685.559 747.884C692.624 747.3 700.605 743.637 707.168 741.011L707.64 741.228C709.174 744.617 709.139 750.032 709.592 753.78L684.625 753.733C683.41 753.849 682.409 754.016 681.241 753.546L681.11 752.663C682.463 750.941 684.017 749.433 685.559 747.884Z"/>
	<path fill="#C4BCFE" d="M415.629 757.541C441.005 757.126 466.413 757.317 491.794 757.244L530.485 757.096C537.89 757.092 546.174 756.41 553.423 757.856C560.481 759.265 565.952 764.808 573.378 766.118C583.563 767.914 590.822 762.858 598.747 757.529C614.072 757.429 629.398 757.452 644.722 757.6C643.926 763.161 643.149 768.804 641.973 774.299C641.385 777.047 639.94 780.561 639.811 783.292C639.787 783.805 639.902 784.018 640.059 784.45C640.64 784.894 640.819 785.267 641.606 785.174C643.668 784.931 646.186 783.251 648.013 782.275C659.952 775.897 668.477 767.151 677.526 757.32C688.355 757.164 699.186 757.203 710.013 757.436C712.933 779.215 714.75 801.281 717.204 823.133C706.053 823.013 694.901 822.978 683.75 823.028L415.444 823.425C415.389 801.463 415.45 779.501 415.629 757.541Z"/>
	<path fill="#1F023F" d="M589.595 759.512C587.211 760.477 584.701 761.581 582.16 762.036C574.728 763.369 567.875 761.194 561.754 757.106C569.617 756.827 585.043 756.315 592.352 757.211C591.937 758.187 590.473 758.892 589.595 759.512Z"/>
	<path fill="#C4BCFE" d="M0 791.033C23.3151 791.048 46.8953 790.352 70.1785 791.322C73.4483 806.504 76.0794 821.782 79.1542 836.999C80.4077 843.202 81.3605 849.919 83.2655 855.935C102.577 856.301 121.893 856.45 141.208 856.381C151.889 856.395 162.738 856.805 173.392 856.294C177.929 834.717 181.458 812.856 185.474 791.171C197.082 791.206 208.765 791 220.363 791.392C220.407 808.822 219.645 826.645 220.613 844.025C231.431 844.564 242.38 844.212 253.212 844.193L311.495 844.038L477.631 843.947L531.301 843.868C540.242 843.84 549.731 843.174 558.612 843.899C558.154 844.716 558.033 844.712 557.296 845.218C555.961 846.133 554.731 847.493 554.447 849.142C554.299 850.005 554.447 850.741 554.895 851.52C558.303 857.442 583.28 857.344 580.967 875.21C580.37 880.043 577.852 884.432 573.98 887.386C569.481 890.789 564.43 891.463 559.025 892.132C557.167 889.096 555.808 885.605 553.704 882.759C548.04 875.094 538.415 869.417 529.226 867.257C519.092 864.876 508.269 866.137 499.415 871.756C495.927 873.969 492.766 876.735 489.905 879.704C485.418 884.362 478.185 895.772 471.747 896.66L470.741 896.232C469.438 892.031 472.65 885.711 469.917 882.064C468.68 881.807 468.095 881.927 467.004 882.622C464.746 884.06 462.679 886.393 460.769 888.269C457.185 887.604 453.561 887.021 450.009 886.207C448.582 883.584 447.275 880.152 444.242 879.133C443.168 879.432 442.879 879.411 442.268 880.419C440.502 883.333 440.906 887.74 441.548 890.939C437.953 894.748 434.801 898.736 434.882 904.285C434.937 908.089 440.185 915.34 438.317 917.706C433.29 924.074 413.771 919.189 411.752 928.13C412.088 929.349 412.324 929.882 413.455 930.547C419.26 933.959 432.168 931.355 438.229 929.309C441.721 928.129 449.982 923.588 453.187 925.205C454.512 925.873 455.284 927.257 455.867 928.539C455.71 929.846 455.662 929.989 454.579 930.862C447.514 936.552 425.484 936.211 422.325 941.765C422.291 943.094 422.305 944.075 423.226 945.134C425.482 947.73 430.706 947.559 433.873 947.426C441.975 947.087 450.436 945.244 458.177 942.877C467.426 940.049 509.233 921.905 515.705 926.102C515.577 927.467 515.038 927.925 514.037 928.787C508.611 933.456 494.692 934.129 493.326 942.058C493.19 942.846 493.494 943.293 493.762 944.012C496.083 946.022 499.754 945.873 502.649 945.69C516.175 944.838 544.578 933.98 553.345 923.569C558.733 917.171 561.003 909.441 561.115 901.172C570.59 900.091 578.591 896.894 584.637 889.263C588.939 883.915 590.966 877.09 590.281 870.261C589.457 862.642 584.995 856.222 579.073 851.62C574.787 848.289 570.022 845.915 565.036 843.832L719.363 844.121C720.752 855.864 722.069 867.614 723.314 879.373C724.017 885.725 725.027 892.12 725.4 898.497C725.827 905.779 725.51 913.241 725.474 920.541C714.269 925.504 703.219 930.913 691.851 935.485C684.441 938.465 673.43 941.471 666.784 945.355C664.995 946.401 663.888 948.097 663.122 949.99C662.024 952.704 661.52 956.521 662.761 959.267C663.145 960.117 663.469 960.909 664.406 961.248C668.643 962.781 755.071 957.357 765.054 956.186C766.866 955.973 769.069 955.586 770.575 954.467C772.466 953.062 773.008 950.775 773.285 948.545C773.962 943.103 772.989 937.087 772.601 931.635C772.011 923.346 771.423 915.009 771.282 906.701C772.728 906.036 774.242 905.417 775.644 904.668C775.159 878.239 774.456 851.813 773.534 825.395C773.178 813.954 772.417 802.453 772.416 791.01L837.561 791.032C843.403 798.714 848.694 806.86 854.186 814.795L881.875 854.406C890.335 866.334 899.99 877.282 908.223 889.376C900.195 903.167 891.03 916.54 881.807 929.558C878.367 934.413 874.207 938.882 871.086 943.931C870.776 948.611 870.904 953.664 874.125 957.468C875.119 958.643 876.801 959.798 878.409 959.762C880.424 959.718 883.544 957.254 885.214 956.094C894.129 949.901 902.651 943.058 911.394 936.617C919.163 930.894 963.162 899.813 966.19 895.482C966.64 894.838 966.594 894.381 966.34 893.627C964.957 889.517 948.642 874.322 944.686 869.425C940.813 864.63 937.419 859.015 934.365 853.665C933.537 852.214 931.183 848.561 931.348 846.942C931.475 845.699 931.628 844.439 931.129 843.252C928.806 837.718 925.259 832.161 922.406 826.843L903.397 791.374C920.328 790.569 937.478 791.045 954.437 791.04C977.604 791.032 1000.84 790.764 1024 791.268L1024 1024L0 1024L0 791.033Z"/>
	<path fill="#1F023F" d="M468.454 885.749L468.315 887.492C468.041 890.98 466.876 896.156 469.282 898.975C475.942 902.011 486.614 887.084 490.611 882.779C493.534 879.631 497.249 875.8 500.899 873.546C503.606 871.874 507.127 870.701 510.246 870.093C524.11 867.388 542.006 871.114 550.763 883.048C552.796 885.818 554.403 891.848 557.379 893.391C560.097 894.801 563.859 894.547 566.714 893.794C572.883 892.147 578.109 888.048 581.177 882.449C583.754 877.737 584.3 872.59 582.742 867.452C580.467 859.949 573.444 855.478 566.25 853.409C563.473 852.611 560.143 852.115 557.614 850.775L557.422 849.754C558.45 847.844 559.832 846.829 561.863 846.193C566.663 846.463 571.115 848.395 575 851.151C580.87 855.314 586.45 861.968 587.517 869.266C588.453 875.666 585.989 882.297 582.067 887.301C575.827 895.263 567.759 898.157 557.964 899.361C557.977 903.936 557.817 908.325 556.38 912.714C553.785 920.643 547.227 927.129 539.886 930.862C532.909 934.411 503.848 945.145 497.793 943.191C496.904 942.151 496.839 942.175 496.822 940.821C498.955 937.501 505.416 935.887 508.936 934.418C512.067 933.112 517.269 931.199 518.294 927.58C518.697 926.159 518.261 925.121 517.713 923.855C511.401 918.668 472.114 935.123 463.683 937.731C454.058 940.708 443.885 943.689 433.828 944.528C431.544 944.719 428.595 945.163 426.448 944.234C425.727 943.922 425.739 943.541 425.434 942.88C425.953 942.059 426.114 941.82 427.076 941.466C429.579 940.544 432.835 940.333 435.484 939.85C443.511 938.388 453.354 936.024 459.705 930.611C459.849 930.488 459.991 930.362 460.133 930.238C458.503 927.305 456.499 924.435 454.185 922.006C453.125 921.112 452.222 919.866 450.732 919.978C448.731 920.13 446.854 921.486 445.143 922.456C437.119 927.011 429.07 930.892 419.552 929.278C418.037 929.021 416.57 928.732 415.65 927.477C416.836 926.121 434.077 923.381 438.334 921.39C439.764 920.721 441.26 919.84 441.64 918.175C442.396 914.858 439.582 910.884 438.187 908.03C433.549 898.537 443.644 895.492 444.55 891.306C445.07 888.906 443.288 886.357 444.157 883.797C445.234 883.506 445.402 884.242 446.133 885.02C447.247 886.207 448.641 888.167 450.082 888.909C453.274 890.553 459.098 890.266 462.711 890.478C464.455 888.531 466.31 887.195 468.454 885.749Z"/>
	<path fill="#FEFEFE" d="M895.926 866.729C906.87 861.951 917.432 856.339 927.516 849.942C929.421 851.194 938.05 866.297 940.611 869.827C945.128 876.054 950.459 881.782 955.57 887.526C942.296 895.409 930.04 905.903 917.746 915.253C905.749 924.378 893.377 932.991 881.351 942.073C879.532 943.446 877.51 944.744 875.844 946.29C875.74 946.386 875.643 946.489 875.543 946.589L875.114 946.485L874.77 946.814L874.39 945.588C875.316 941.603 882.369 934.517 885.001 930.836C894.534 917.503 903.469 903.566 912.474 889.865C907.86 881.725 901.535 874.219 895.926 866.729Z"/>
	<path fill="#9F8BE8" d="M874.768 952.293C881.875 945.358 890.553 939.648 898.527 933.747C911.867 924.033 925.104 914.176 938.235 904.18C944.699 899.307 951.503 894.671 957.635 889.393C959.595 890.525 961.026 892.253 962.569 893.881C955.46 900.541 946.658 906.341 938.886 912.245C926.915 921.338 914.635 929.927 902.477 938.76C894.564 944.509 886.859 950.498 878.808 956.064L878.058 956.224C876.528 955.319 875.722 953.744 874.768 952.293Z"/>
	<path fill="#FEFEFE" d="M729.098 923.016C729.062 917.428 728.784 911.835 728.729 906.243C741.672 909.209 754.335 909.351 767.436 907.333C767.648 918.815 768.837 930.445 769.571 941.916C748.601 943.28 727.706 945.665 706.723 946.928C693.595 947.269 680.58 949.287 667.492 949.722C667.978 948.537 668.518 948.231 669.655 947.715C676.008 944.828 682.956 942.571 689.461 939.986C702.803 934.636 716.018 928.978 729.098 923.016Z"/>
	<path fill="#9F8BE8" d="M669.252 958.584C669.013 958.571 668.772 958.571 668.534 958.543C666.85 958.35 666.814 958.217 665.756 956.951C665.404 955.364 665.606 954.819 666.199 953.38C669.38 952.036 706.139 950.509 713.232 949.995L766.842 945.724C768.191 945.652 768.667 945.391 769.758 946.243C770.023 947.698 769.708 948.932 768.859 950.148C768.025 951.343 766.445 952.129 765.05 952.397C758.523 953.651 747.748 953.652 740.801 954.14C716.981 955.813 693.033 956.539 669.252 958.584Z"/>
</svg>
