<?xml version="1.0" encoding="utf-8" ?>
<svg xmlns="http://www.w3.org/2000/svg" xmlns:xlink="http://www.w3.org/1999/xlink" width="1024" height="1024">
	<path fill="#9F8BE8" d="M0 0L1024 0L1024 752.797C996.263 757.283 968.802 763.333 941.748 770.917C930.318 774.314 918.919 777.818 907.555 781.428C900.78 783.622 894.082 786.108 887.197 787.937C882.811 771.498 876.605 757.168 868.916 742.026C894.774 724.196 919.461 705.721 942.837 684.699C942.167 674.781 932.273 647.956 928.805 637.371C921.671 614.967 913.774 592.813 905.126 570.949C888.837 530.339 870.944 497.108 837.473 467.891C833.01 463.995 828.415 460.155 823.599 456.702C816.512 451.621 808.73 447.105 802.724 440.718C795.51 433.047 789.272 423.726 782.804 415.369C761.6 387.971 739.559 359.023 710.097 340C697.449 331.833 684.014 325.881 669.266 322.605C658.354 320.181 646.714 321.711 637.093 315.417C643.31 309.207 649.381 303.501 649.454 293.983C649.485 289.86 648.416 285.984 646.778 282.226C652.731 278.261 661.378 272.536 662.718 264.906C663.056 263.045 662.579 261.129 661.408 259.645C657.933 255.241 650.516 254.42 645.274 254.026C630.835 252.941 616.086 254.848 601.689 256.041C598.539 249.997 595.064 244.865 590.068 240.2C604.13 227.597 626.974 201.92 635.15 185.493C640.679 174.383 644.441 161.879 648.966 150.298C653.7 138.184 659.08 126.109 663.049 113.727C657.581 104.186 635.296 62.5138 629.922 57.4969C624.89 52.7988 577.367 38.1134 568.766 35.7702C508.27 19.2892 445.348 13.8008 383.204 22.7337C367.618 24.9741 352.252 27.7375 337.183 32.381C320.742 37.4475 304.959 44.7206 289.613 52.4222C286.757 48.7757 283.071 42.9599 278.154 42.1975C277.142 42.0406 276.067 42.1997 275.238 42.84C273.564 44.1332 273.223 46.7268 273.231 48.6877C273.247 52.7313 274.648 57.0333 275.806 60.8848C245.917 78.2116 217.993 98.5101 195.282 124.75C191.017 129.71 186.93 134.821 183.029 140.072C180.65 143.29 178.412 146.827 175.764 149.821C172.954 152.999 169.329 155.621 166.236 158.537C162.386 162.169 158.861 166.426 155.416 170.45C148.783 178.196 142.128 186.283 136.315 194.661C117.821 221.313 99.6481 258.518 91.2833 289.993C87.5933 303.877 82.5715 320.101 82.8435 334.555C82.985 342.079 99.1813 387.957 102.798 397.926C111.98 401.522 121.02 405.179 129.9 409.471C138.037 413.405 145.904 417.929 154.339 421.211C180.151 431.255 213.251 426.89 239.673 420.444C246.154 418.87 252.539 416.924 258.796 414.614C263.47 412.915 268.391 410.638 273.267 409.652C279.872 408.315 286.752 408.399 293.442 407.593C311.343 405.434 329.256 401.241 345.792 393.949C357.23 388.905 368.961 382.709 378.169 374.191C399.433 371.644 419.237 367.179 439.727 361.032L467.134 409.218C465.011 410.975 464.043 412.233 463.741 415.03C463.293 419.184 465.513 423.071 467.982 426.223C463.995 426.962 459.839 427.559 457.304 431.134C456.199 432.692 455.856 434.503 456.268 436.366C456.996 439.657 459.294 441.689 461.718 443.794C459.558 445.271 456.51 447.284 455.897 450.06C455.52 451.767 455.915 453.122 456.88 454.524C457.888 455.988 464.716 461.318 464.584 462.191C464.163 464.96 463.06 466.547 464.97 469.174C468.609 474.18 476.539 475.952 482.108 477.855C490.166 495.96 496.463 496.455 509.624 508.797C508.523 512.355 504.76 520.56 505.739 524.015C511.896 528.438 538.565 536.435 547.364 539.273C555.756 553.686 563.46 568.488 571.399 583.15L596.986 629.648L660.479 744.188L693.991 804.106C700.872 816.367 709.532 829.338 713.976 842.719C710.789 843.372 707.612 844.069 704.444 844.81C698.615 841.192 691.339 838.802 684.932 836.368C672.757 831.866 660.556 827.436 648.329 823.078C618.683 812.379 588.431 802.17 557.287 796.851C505.946 788.082 452.468 795.579 402.209 807.346C360.619 817.082 319.559 829.252 278.67 841.562C263.285 846.194 248.098 851.46 232.669 855.951C194.008 867.367 154.631 876.197 114.798 882.383C108.367 883.326 95.5414 886.082 89.4443 885.356C92.7482 879.009 94.9077 871.697 97.5311 865.019L112.334 828.208L164.145 700.836C171.856 704.823 179.239 709.314 185.949 714.852C189.714 717.959 193.192 721.468 197.023 724.478C224.5 725.92 242.292 735.343 264.141 750.608C272.378 749.863 280.445 750.757 288.502 752.541C295.1 754.002 301.343 755.981 307.665 758.341C311.115 759.629 314.622 761.281 318.161 762.24C319.21 762.525 319.729 762.616 320.802 762.393C321.965 758.881 320.997 753.632 320.59 750.02C317.855 726.36 310.974 703.366 300.264 682.092C284.565 650.874 263.999 627.794 235.798 607.194C223.181 597.977 209.276 589.625 194.366 584.732C140.266 566.473 81.0742 570.938 30.3262 597.107C23.9926 600.321 10.2368 606.767 6.87951 612.798C6.82389 613.698 6.60331 613.835 7.23987 614.557C9.38445 616.989 14.6334 618.963 17.4652 620.847C27.3687 627.437 33.131 635.678 39.7502 645.32C51.4078 645.999 82.5206 662.633 91.7448 669.705C95.7957 672.81 99.6544 678.63 104.195 680.7C109.626 683.177 117.425 683.966 123.33 685.306C131.981 687.232 140.497 689.726 148.821 692.77C140.074 714.973 130.572 736.911 121.401 758.942L91.2519 832.828L76.149 870.743C73.9955 876.118 70.7933 881.96 69.3605 887.502C46.6896 890.459 22.869 890.88 0 890.959L0 0Z"/>
	<path fill="#010101" d="M868.916 742.026C876.605 757.168 882.811 771.498 887.197 787.937C891.519 803.132 900.521 835.516 900.138 850.967C900.06 854.109 899.512 857.08 897.961 859.844C896.776 861.957 895.063 863.792 893.271 865.406C894.42 873.679 896.331 881.829 898.98 889.751C902.392 899.975 915.88 924.407 908.504 933.58C906.702 935.822 904.33 937.66 902.046 939.381C907.882 939.078 919.946 937 924.595 941.226C926.286 942.763 926.722 945.08 926.674 947.274C926.622 949.585 925.703 951.623 923.956 953.144C922.037 954.814 919.898 955.397 917.425 955.757C910.619 956.749 903.479 956.818 896.612 957.226C881.998 958.05 867.38 958.779 852.756 959.414C838.579 960.176 824.394 960.81 810.205 961.315C803.406 961.529 796.31 962.13 789.544 961.46C786.947 961.203 784.263 960.29 782.576 958.19C780.958 956.175 780.728 952.249 781.091 949.78C781.665 945.879 783.958 942.886 787.182 940.722C794.532 935.79 803.929 935.594 811.855 932.145C817.178 929.829 843.809 910.31 848.184 905.17C849.488 903.638 850.039 901.871 850.439 899.929C851.413 895.206 850.725 890.324 850.326 885.573C846.283 885.413 842.413 884.925 838.425 884.255C829.48 873.292 825.524 859.968 820.495 846.946C814.729 832.018 808.517 815.998 799.784 802.557C798.242 811.43 797.574 820.465 796.438 829.398C794.84 841.331 793.057 853.239 791.09 865.116C789.88 872.696 789.015 880.862 786.57 888.161C782.173 892.244 777.205 894.046 771.372 894.894C768.523 905.807 764.986 917.242 765.358 928.621C765.651 937.61 767.424 946.505 767.685 955.545C767.866 955.64 768.048 955.734 768.229 955.831C770.975 957.312 772.656 958.988 773.554 962.043C774.219 964.304 773.856 966.416 772.636 968.408C771.266 970.643 769.582 971.296 767.229 972.222C753.134 977.772 737.079 981.347 722.511 986.158C711.748 989.712 700.837 995.241 689.839 997.69C676.764 1000.6 659.819 1001.53 648.037 993.962C644.151 991.465 640.622 987.621 639.74 982.951C639.087 979.494 640.066 976.242 642.158 973.453C648.962 964.382 663.283 961.38 672.879 955.799C675.499 954.275 674.485 949.553 677.101 947.23C679.382 945.204 683.067 945.875 685.611 944.138C697.538 935.998 707.353 928.04 716.065 916.346C718.983 912.429 721.721 908.598 723.287 903.917C724.439 900.473 724.754 896.529 725.244 892.934C719.894 888.793 717.369 885.069 716.463 878.169C714.935 866.534 716.163 854.186 713.976 842.719C709.532 829.338 700.872 816.367 693.991 804.106L660.479 744.188L596.986 629.648L571.399 583.15C563.46 568.488 555.756 553.686 547.364 539.273C538.565 536.435 511.896 528.438 505.739 524.015C504.76 520.56 508.523 512.355 509.624 508.797C496.463 496.455 490.166 495.96 482.108 477.855C476.539 475.952 468.609 474.18 464.97 469.174C463.06 466.547 464.163 464.96 464.584 462.191C464.716 461.318 457.888 455.988 456.88 454.524C455.915 453.122 455.52 451.767 455.897 450.06C456.51 447.284 459.558 445.271 461.718 443.794C459.294 441.689 456.996 439.657 456.268 436.366C455.856 434.503 456.199 432.692 457.304 431.134C459.839 427.559 463.995 426.962 467.982 426.223C465.513 423.071 463.293 419.184 463.741 415.03C464.043 412.233 465.011 410.975 467.134 409.218L439.727 361.032C419.237 367.179 399.433 371.644 378.169 374.191C368.961 382.709 357.23 388.905 345.792 393.949C329.256 401.241 311.343 405.434 293.442 407.593C286.752 408.399 279.872 408.315 273.267 409.652C268.391 410.638 263.47 412.915 258.796 414.614C252.539 416.924 246.154 418.87 239.673 420.444C213.251 426.89 180.151 431.255 154.339 421.211C145.904 417.929 138.037 413.405 129.9 409.471C121.02 405.179 111.98 401.522 102.798 397.926C99.1813 387.957 82.985 342.079 82.8435 334.555C82.5715 320.101 87.5933 303.877 91.2833 289.993C99.6481 258.518 117.821 221.313 136.315 194.661C142.128 186.283 148.783 178.196 155.416 170.45C158.861 166.426 162.386 162.169 166.236 158.537C169.329 155.621 172.954 152.999 175.764 149.821C178.412 146.827 180.65 143.29 183.029 140.072C186.93 134.821 191.017 129.71 195.282 124.75C217.993 98.5101 245.917 78.2116 275.806 60.8848C274.648 57.0333 273.247 52.7313 273.231 48.6877C273.223 46.7268 273.564 44.1332 275.238 42.84C276.067 42.1997 277.142 42.0406 278.154 42.1975C283.071 42.9599 286.757 48.7757 289.613 52.4222C304.959 44.7206 320.742 37.4475 337.183 32.381C352.252 27.7375 367.618 24.9741 383.204 22.7337C445.348 13.8008 508.27 19.2892 568.766 35.7702C577.367 38.1134 624.89 52.7988 629.922 57.4969C635.296 62.5138 657.581 104.186 663.049 113.727C659.08 126.109 653.7 138.184 648.966 150.298C644.441 161.879 640.679 174.383 635.15 185.493C626.974 201.92 604.13 227.597 590.068 240.2C595.064 244.865 598.539 249.997 601.689 256.041C616.086 254.848 630.835 252.941 645.274 254.026C650.516 254.42 657.933 255.241 661.408 259.645C662.579 261.129 663.056 263.045 662.718 264.906C661.378 272.536 652.731 278.261 646.778 282.226C648.416 285.984 649.485 289.86 649.454 293.983C649.381 303.501 643.31 309.207 637.093 315.417C646.714 321.711 658.354 320.181 669.266 322.605C684.014 325.881 697.449 331.833 710.097 340C739.559 359.023 761.6 387.971 782.804 415.369C789.272 423.726 795.51 433.047 802.724 440.718C808.73 447.105 816.512 451.621 823.599 456.702C828.415 460.155 833.01 463.995 837.473 467.891C870.944 497.108 888.837 530.339 905.126 570.949C913.774 592.813 921.671 614.967 928.805 637.371C932.273 647.956 942.167 674.781 942.837 684.699C919.461 705.721 894.774 724.196 868.916 742.026ZM427.547 23.7026L418.964 24.2526L418.923 24.1731L419.34 24.7653C429.792 25.6481 440.165 26.7542 450.495 28.6374C469.323 32.0699 514.401 43.475 528.647 54.5826C554.44 55.1938 580.362 54.7165 606.125 55.6896L613.494 55.7582C563.581 36.2932 499.062 23.5343 445.494 23.5263C439.588 23.5254 433.417 23.2307 427.547 23.7026ZM377.696 29.2884C349.664 30.7685 324.493 39.5041 299.629 52.1553C337.92 47.0106 374.113 65.8628 407.714 81.7135C415.245 79.1629 422.8 76.6839 430.378 74.2765C450.782 67.8257 471.508 62.4408 492.472 58.1435C500.344 56.4738 508.401 55.5762 516.222 53.7775C472.479 36.7439 424.907 25.8384 377.696 29.2884ZM306.315 56.6954C287.127 58.7137 272.652 66.059 260.42 81.2224C244.075 101.483 240.199 133.073 242.911 158.337C261.097 144.143 280.229 132.487 300.771 122.004C309.951 117.486 319.104 112.64 328.479 108.553C342.676 102.364 357.722 97.3856 372.475 92.657C381.71 89.6969 391.262 87.661 400.457 84.6428C373.826 71.5508 336.562 53.3428 306.315 56.6954ZM518.581 59.7015C507.097 60.7501 495.903 63.1551 484.646 65.5858C462.312 70.346 440.274 76.3965 418.641 83.7068C410.833 86.3581 402.805 88.8383 395.336 92.3375C386.133 96.6487 346.54 123.181 339.3 130.185L427.377 96.6911C440.165 91.7948 453.158 87.3782 465.849 82.2408C473.307 79.2495 484.434 73.439 492.267 73.266C503.374 73.0207 529.141 80.6461 541.153 83.3083L620.648 101.501C631.815 104.127 643.271 106.304 654.319 109.314C645.725 92.99 636.568 76.9685 626.865 61.2786L554.776 60.4831C543.775 60.267 529.078 58.673 518.581 59.7015ZM492.193 78.1289C474.27 83.1844 456.787 91.3754 439.344 97.9622C404.882 110.976 370.153 123.662 335.984 137.416C376.848 131.867 418.645 129.968 459.783 127.532C469.431 126.96 490.975 124.466 499.357 125.827C508.096 127.246 523.455 134.771 532.375 138.492L607.48 169.155C615.507 172.39 623.342 176.162 631.434 179.222C639.912 157.961 648.921 136.917 656.681 115.376C616.625 106.464 576.85 96.3728 536.748 87.6073C521.987 84.3809 507.117 80.4907 492.193 78.1289ZM253.2 80.9744C207.634 111.303 175.723 150.655 156.756 202.066C153.839 209.975 151.428 217.701 149.147 225.8C148.646 227.579 147.83 229.36 147.48 231.167C147.403 231.567 147.365 231.992 147.32 232.393L147.889 232.667L148.254 232.396C165.683 220.069 183.03 207.233 199.537 193.694C212.43 183.119 224.893 171.537 238.426 161.797C233.757 135.524 238.796 104.337 253.309 81.7787L253.903 81.8427C253.506 81.1256 253.759 81.3993 253.2 80.9744ZM376.738 96.4775C360.788 102.049 345.034 107.67 329.432 114.162C329.075 118.042 327.465 127.421 328.509 130.647L329.294 130.49C341.355 122.354 352.768 113.208 364.769 104.984C368.814 102.212 374.023 100.171 377.511 96.7601L376.738 96.4775ZM322.503 117.414L318.234 119.666C319.269 123.064 320.2 126.554 321.485 129.863L322.208 130.16C322.797 127.62 324.04 119.819 323.087 117.544L322.503 117.414ZM311.891 122.47L306.809 124.562C309.059 126.707 311.275 128.762 313.766 130.632L315.576 132.13L316.205 131.95C316.031 128.947 313.94 125.567 312.625 122.857L311.891 122.47ZM489.022 131.206C451.922 133.596 414.854 135.472 377.804 138.625C367.04 139.541 351.445 139.545 341.334 142.238C351.178 145.667 361.62 148.02 371.72 150.631C392.012 155.875 412.395 160.706 432.665 166.054C441.901 168.49 453.138 170.335 461.62 174.606C469.811 178.731 477.648 185.8 485.01 191.296C493.537 197.663 502.369 203.679 510.769 210.203C518.216 215.689 525.72 221.097 533.279 226.426C552.688 224.154 568.95 226.282 585.627 237.044C602.715 220.459 616.303 204.594 629.736 184.791C615.818 178.362 601.679 172.849 587.507 167.052C570.217 159.981 553.018 152.762 535.643 145.888C524.058 141.304 512.533 134.911 500.532 131.631C496.666 130.575 492.951 130.861 489.022 131.206ZM278.869 140.432C267.556 146.964 247.82 158.751 239.352 168.351C247.441 165.472 255.565 162.666 263.622 159.702C273.72 155.783 283.989 152.432 294.265 149.021C300.174 147.06 306.322 145.282 312.026 142.795C301.118 141.575 289.858 140.326 278.869 140.432ZM330.425 140.376C327.746 142.105 325.029 143.796 322.407 145.608C325.899 154.468 331.961 163.056 336.799 171.288C344.972 185.177 353.005 199.147 360.896 213.198C387.155 259.674 413.812 305.923 440.866 351.941C451.422 370.183 461.213 388.967 472.002 407.052C477.722 408.935 482.7 410.847 487.853 413.966L492.077 416.933C486.323 405.195 479.581 393.877 473.092 382.536L448.858 340.166C445.167 333.776 434.347 333.196 436.946 324.114L437.434 322.377C430.377 306.39 339.835 147.798 331.143 140.498L330.425 140.376ZM342.994 148.413C345.818 152.582 348.65 156.745 351.246 161.06C354.506 166.479 357.426 172.424 361.571 177.211C365.931 182.246 371.722 186.631 376.69 191.084C387.869 201.159 398.986 211.302 410.041 221.513C415.505 226.531 421.801 231.446 426.661 237.028C432.163 243.349 436.363 251.518 440.808 258.628C449.907 273.181 458.957 288.1 469.031 302C472.647 299.823 476.345 297.785 480.117 295.891C480.063 283.529 481.254 273.18 486.907 261.977C495.953 246.344 509.604 234.044 526.97 228.396C510.007 216.733 493.668 203.992 476.917 191.996C471.272 187.954 465.544 182.872 459.477 179.59C452.378 175.749 440.4 173.818 432.252 171.652C414.03 166.662 395.74 161.924 377.387 157.441C365.965 154.555 354.205 152.039 342.994 148.413ZM308.948 152.142C299.874 158.055 290.92 164.151 282.09 170.424C268.444 180.271 167.046 255.679 163.313 261.94C158.869 269.393 154.818 281.804 151.296 290.192L122.85 358.439C117.994 370.183 113.956 382.929 107.975 394.115C114.396 396.65 120.856 399.111 127.118 402.023C140.727 408.277 153.552 415.816 168.045 419.919C175.755 390.352 183.097 360.689 190.07 330.939L198.023 296.347C199.415 290.139 200.437 280.736 203.22 275.236C205.951 269.841 211.593 264.975 215.412 260.237C227.684 245.012 240.563 230.451 253.379 215.694L287.099 176.754C289.756 173.743 308.329 154.477 308.948 152.142ZM295.844 154.16C279.702 158.157 263.59 165.214 248.007 170.977C241.479 173.391 232.706 175.613 226.77 178.883C217.027 184.251 200.84 199.727 190.994 207.374C182.28 214.081 173.506 220.71 164.673 227.259C160.021 230.716 154.584 234.115 150.462 238.158C146.93 241.623 144.138 247.676 141.549 251.969C131.501 268.634 121.742 285.38 111.156 301.72C103.842 313.009 95.6972 323.755 88.6277 335.21C92.6076 348.939 97.0845 362.477 101.409 376.1L105.353 387.441C111.208 373.692 116.529 359.76 122.216 345.948C128.974 329.536 136.089 313.283 142.772 296.835L153.058 271.486C154.862 267.007 156.441 261.641 159.074 257.592C162.118 252.912 180.106 240.994 185.432 236.936L229.784 203.104C243.336 192.828 256.561 182.08 270.313 172.076C278.714 165.947 287.321 160.104 296.117 154.558L295.913 154.18L295.844 154.16ZM314.466 154.446C309.883 158.645 305.824 163.57 301.674 168.195C292.486 178.433 283.646 188.954 274.578 199.293C257.752 218.138 241.248 237.266 225.073 256.672C220.013 262.78 214.456 268.725 209.739 275.08C208.729 276.441 207.886 277.676 207.408 279.314C203.18 293.784 200.728 308.842 197.368 323.532C193.366 341.029 188.962 358.458 184.73 375.902C181.078 390.956 177.678 406.084 173.426 420.986C175.919 421.248 178.364 421.518 180.875 421.5C211.546 421.729 240.334 416.726 268.701 404.942C267.318 374.658 265.341 344.343 263.399 314.089C262.897 306.276 260.206 280.785 261.33 275.13C262.821 267.629 268.494 258.72 271.704 251.585C276.151 241.699 314.341 157.352 314.466 154.446ZM319.338 156.941C315.774 163.901 313.346 171.454 310.2 178.614C304.564 191.446 298.464 204.107 292.746 216.911C288.252 226.972 283.947 237.139 279.311 247.132C275.158 256.084 270.538 264.971 267.11 274.227C265.347 278.988 273.334 386.275 273.942 403.553C288.26 403.28 302.499 401.369 316.382 397.858C337.29 392.34 357.071 384.51 373.895 370.592L348.645 298.357C345.991 290.771 343.252 283.215 340.427 275.69C338.525 270.597 336.223 265.364 334.865 260.105C332.461 250.803 331.682 240.572 330.391 231.029C329.258 222.656 320.089 157.917 319.338 156.941ZM325.959 164.381C327.803 181.033 331.069 197.699 333.413 214.307C335.382 228.262 336.95 247.727 340.64 260.832C343.224 270.01 347.442 278.918 350.621 287.935L367.248 336.027C371.027 346.916 375.031 357.68 378.407 368.711C394.956 366.828 411.327 363.611 427.357 359.089C430.504 357.887 433.685 356.733 436.788 355.424L372.856 245.443L343.133 193.155C339.569 186.885 330.198 168.276 325.959 164.381ZM164.263 168.992C132.777 201.073 104.394 258.081 94.0978 301.494C92.579 307.898 90.3581 315.189 90.1182 321.768L90.7669 321.728C104.592 302.547 117.128 282.111 129.24 261.807C133.18 255.203 138.395 247.973 140.873 240.728C141.865 237.83 140.673 234.131 141.514 230.978C144.968 218.043 149.351 205.152 154.083 192.633C155.488 188.918 164.377 171.075 164.263 168.992ZM370.354 192.942L426.742 291.231C432.125 300.753 437.799 310.084 443.063 319.679L454.895 311.067C457.983 308.887 461.042 306.715 464.301 304.795C454.815 291.541 446.013 277.462 437.485 263.573C432.884 256.082 428.603 247.58 423.023 240.799C416.088 232.374 401.869 220.856 393.399 213.206C386.396 206.881 378.021 198.079 370.354 192.942ZM544.645 230.706C526.768 232.283 510.282 239.936 498.646 253.81C491.341 262.52 484.545 276.461 485.599 288.149C485.697 289.236 485.569 289.056 486.426 289.891C496.481 292.945 521.439 286.673 532.252 284.048C554.228 278.154 578.275 270.647 596.392 256.514C590.41 245.111 578.292 237.53 566.333 233.744C559.499 231.58 551.826 230.219 544.645 230.706ZM630.043 259.71C621.159 260.337 611.821 260.542 603.046 262.067C604.128 265.353 606.299 269.77 605.134 273.212C595.191 285.136 555.212 298.939 539.839 303.172C526.413 306.869 512.566 309.885 498.676 311.121C494.434 311.499 486.201 312.333 482.628 309.638C480.343 307.914 480.546 303.83 480.336 301.218C467.623 309.46 454.294 317.587 442.408 326.977C446.873 331.281 451.998 333.236 458.084 334.015C509.101 340.534 608.043 305.326 648.431 274.153C651.254 271.975 656.655 268.211 657.074 264.445C657.15 263.761 657.016 263.149 656.523 262.671C652.484 258.754 635.633 259.386 630.18 259.697C630.134 259.699 630.089 259.705 630.043 259.71ZM632.861 320.894C631.102 321.854 629.18 322.8 627.776 324.256C624.213 327.948 622.421 336.587 620.957 341.594C616.642 356.358 613.804 371.557 610.922 386.651C605.563 414.715 600.94 442.817 600.54 471.467L600.782 470.735C602.963 464.022 604.151 456.84 605.722 449.952L613.48 417.029C618.872 394.481 624.159 371.61 638.849 352.991C642.662 348.157 647.218 343.275 652.749 340.405C658.379 337.483 665.231 336.687 671.308 338.615C684.564 342.821 696.495 358.3 702.443 370.25C709.415 384.258 715.042 403.634 713.446 419.409C713.038 423.445 711.843 427.335 710.528 431.154C705.331 446.245 698.237 460.746 691.021 474.954C680.807 495.067 669.851 514.979 656.594 533.271C661.643 542.37 667.174 551.154 672.345 560.175C679.842 573.252 687.046 586.55 695.155 599.264C708.165 619.662 722.329 639.365 735.718 659.509C748.318 678.465 760.358 697.776 773.123 716.624L797.083 754.149C801.249 760.63 805.284 767.834 810.254 773.704C817.862 768.568 825.994 764.245 833.685 759.221C853.295 746.438 872.532 733.091 891.37 719.196C901.276 711.93 910.971 704.38 920.443 696.557C926.025 691.931 931.376 686.758 937.211 682.479C932.174 664.601 925.845 646.882 919.99 629.25C903.374 579.214 885.875 526.392 849.238 487.066C841.65 478.87 833.375 471.338 824.502 464.553C814.434 456.848 803.774 450.655 795.614 440.714C767.108 405.982 739.79 362.602 699.774 340.056C687.673 333.238 673.775 328.161 659.962 326.435C654.044 325.696 647.971 325.6 642.102 324.576C638.804 324.001 635.884 321.195 632.861 320.894ZM543.446 338.02C536.504 340.497 529.869 343.761 523.033 346.515C515.428 349.578 507.436 352.229 500.032 355.736C504.851 366.138 510.837 373.357 520.994 378.963C529.946 383.385 538.073 385.29 548.054 384.08C552.17 374.945 556.17 365.901 558.972 356.255C546.526 349.544 547.456 340.914 543.446 338.02ZM454.286 338.829L482.591 388.266C485.735 393.759 491.048 404.666 494.968 409.163C497.55 408.714 499.577 407.975 501.911 409.572C509 414.425 513.83 426.799 516.896 434.479C527.996 440.446 538.92 447.161 549.773 453.601C555.591 457.053 561.402 461.066 567.659 463.633C571.498 465.208 575.845 466.07 579.904 466.907C579.981 462.676 580.114 458.437 580.039 454.206C579.781 446.147 578.296 385.802 576.034 382.12C574.294 381.181 573.405 381.404 571.558 381.955C566.575 383.442 560.952 386.317 555.754 385.376C555.235 385.282 554.707 385.236 554.183 385.175L553.763 385.694C552.232 387.553 550.815 389.234 548.263 389.518C533.718 391.132 519.557 386.432 508.512 377.002C501.806 371.276 496.24 363.55 493.798 355.01L497.033 352.103C495.742 347.699 494.617 343.4 493.842 338.867C480.214 340.187 467.904 340.987 454.286 338.829ZM660.157 343.095C647.16 347.857 638.304 361.957 632.695 373.939C625.921 388.41 622.507 404.114 618.741 419.558L609.368 458.314C607.244 467.328 605.261 477.12 602.093 485.826C608.921 489.235 632.159 500.681 635.071 507.473C634.933 508.671 634.831 508.593 633.89 509.379C632.511 509.776 631.555 509.696 630.284 509.038C627.594 507.645 625.371 505.248 622.851 503.553C618.153 500.393 613.129 497.616 608.072 495.072C591.863 486.919 573.954 480.974 556.576 475.868C550.277 474.017 543.821 472.569 537.567 470.6C525.882 482.438 514.793 504.329 511.958 520.639L514.699 522.054C545.627 534.388 578.67 544.034 611.754 548.195C618.355 549.025 628.345 550.606 634.659 547.931C655.196 539.228 696.715 453.772 705.046 430.795C711.457 413.111 707.452 393.601 699.653 376.953C693.927 364.733 682.892 348.646 669.563 343.946C666.313 342.8 663.543 342.758 660.157 343.095ZM612.819 348.92C606.13 356.348 599.431 363.495 588.756 364.236C580.321 364.821 571.89 361.647 564.402 358.116C561.707 365.849 558.749 373.489 555.534 381.021C557.036 381.209 558.517 380.351 559.881 379.792C564.426 378.219 569.107 376.289 573.943 375.985C582.547 375.444 597.095 382.994 605.756 385.912C607.083 378.317 608.317 370.679 609.864 363.125C610.756 358.766 612.919 353.239 612.819 348.92ZM518.607 442.674L518.893 443.309C523.347 453.361 521.962 460.306 532.069 467.407L536.88 465.102C545.843 467.318 554.807 469.402 563.688 471.941L564.409 471.397C563.876 470.425 563.197 469.795 562.296 469.171C558.415 466.484 553.904 464.519 549.873 462.006C542.501 457.339 535.068 452.769 527.574 448.3C524.628 446.503 521.717 444.118 518.607 442.674ZM567.874 470.397C569.26 473.77 572.881 474.969 576.067 476.301C582.298 478.905 589.686 481.7 596.301 482.997C592.503 477.039 583.18 473.427 576.508 471.94C573.791 471.335 570.642 470.44 567.874 470.397ZM555.199 541.329C566.2 562.695 578.073 583.605 589.606 604.679L672.973 755.333C683.812 775.237 694.837 795.039 706.048 814.737C707.833 817.88 710.644 824.814 712.948 827.132C712.394 819.175 712.877 806.964 710.292 799.804C706.531 789.385 700.705 779.493 695.421 769.794L670.359 724.601L607.29 610.13C595.583 588.87 583.613 567.8 572.378 546.285C566.621 544.731 560.853 543.231 555.199 541.329ZM579.151 547.753L678.42 727.683C686.707 742.416 694.823 757.245 702.766 772.167C704.71 775.738 706.719 781.43 709.258 784.39L709.839 784.238C709.232 776.052 708.112 767.925 707.453 759.747C706.924 753.195 706.977 746.356 706.056 739.866C704.789 730.938 701.224 721.945 699.159 713.125C694.02 691.174 692.227 669.298 682.7 648.515C672.575 626.425 660.884 604.696 649.735 583.094C644.808 573.547 638.992 563.747 634.997 553.796C615.913 556.632 597.698 550.966 579.151 547.753ZM644.711 547.932C642.95 548.991 641.169 550.026 639.426 551.115L673.783 618.491C680.966 632.834 688.612 646.708 693.555 662.037C697.001 672.727 698.789 683.808 700.869 694.818C702.424 703.052 704.207 711.21 705.961 719.402L706.303 720.034C706.914 716.8 708.673 689.577 708.327 686.638C707.034 675.655 700.162 657.8 697.09 646.194C694.854 638.05 692.885 629.836 691.186 621.563C690.065 615.902 689.442 609.844 687.825 604.325C687.336 602.654 686.579 601.148 685.616 599.703C681.149 593.004 674.829 586.835 669.582 580.68C660.91 570.506 653.111 560.139 645.934 548.867C645.37 547.982 645.765 548.311 644.711 547.932ZM694.551 609.956C695.057 616.145 697.03 622.332 698.624 628.322C701.714 640.256 705.209 652.082 709.103 663.778C710.501 668.118 713.288 673.093 713.723 677.523C714.608 686.52 713.613 696.03 713.04 705.024C712.368 715.563 711.859 726.257 712.095 736.817C712.412 751.031 713.851 765.058 715.023 779.211L718.143 820.946C719.583 839.639 719.784 858.433 721.66 877.08C746.571 869.254 759.439 873.317 782.764 883.541C783.222 881.398 783.662 879.25 784.082 877.099C786.585 858.78 800.468 771.733 794.104 760.775C790.674 754.869 786.837 749.239 783.236 743.44C771.11 723.929 758.581 704.672 745.658 685.681L711.455 634.251C707.912 629.035 698.472 613.252 694.551 609.956ZM864.038 745.399C846.332 757.268 827.842 770.594 809.504 781.168C805.949 778.089 803.4 774.216 800.767 770.357C800.743 776.808 800.596 783.257 800.326 789.703C812.828 813.207 823.523 837.629 832.319 862.757C833.897 866.512 835.433 870.293 837.13 873.995C852.478 859.038 871.793 848.243 893.734 848.48C894.198 848.485 894.662 848.495 895.126 848.509C889.36 816.802 882.642 783.986 869.182 754.535C868.096 752.158 866.284 747.025 864.337 745.553C864.247 745.486 864.137 745.45 864.038 745.399ZM889.601 854.182C890.039 855.722 890.421 856.966 891.322 858.3L892.291 858.702L893.451 857.759C894.239 856.548 894.995 855.876 894.972 854.395C893.547 853.666 891.181 854.103 889.601 854.182ZM882.236 855.166C870.142 856.743 858.04 862.636 848.914 870.67C853.757 880.401 859.219 891.572 855.276 902.639C852.055 911.68 842.676 916.401 835.866 922.414C843.58 927.052 851.134 932.167 857.702 938.361L861.556 941.566C872.36 941.093 895.915 939.489 903.365 931.566C905.035 929.79 905.932 927.69 905.81 925.238C905.396 916.961 899.955 907.857 896.862 900.283C894.965 895.639 893.445 890.779 892.084 885.949C890.726 881.126 889.432 876.092 888.431 871.191C887.429 866.287 887.705 859.504 884.973 855.282C883.765 854.805 883.481 854.991 882.236 855.166ZM844.274 874.371C843.197 875.794 841.586 877.297 841.482 879.075C842.404 879.999 843.483 880.075 844.709 880.307L846.602 879.768C846.845 877.574 845.641 876.178 844.361 874.465C844.336 874.431 844.303 874.403 844.274 874.371ZM740.754 878.173C737.646 878.643 734.551 879.114 731.471 879.746C730.6 889.062 728.786 898.982 728.321 908.173C721.248 916.843 715.137 926.566 706.894 934.194C700.712 939.914 693.644 944.136 686.982 949.188L689.069 953.837C701.351 951.875 712.595 950.285 725.03 952.121C734.031 953.671 741.141 956.679 749.49 960.164C753.604 958.982 757.699 957.896 761.883 956.991C762.694 946.811 760.379 937.759 760.042 927.732C759.574 913.827 765.249 896.772 768.984 883.393C760.254 880.24 750.183 876.834 740.754 878.173ZM773.695 885.023C773.486 886.518 773.029 887.758 773.637 889.166C775.228 889.343 776.804 888.534 778.277 887.996L779.213 887.559C778.272 886.218 775.31 885.569 773.695 885.023ZM822.776 932.447C819.766 934.222 816.775 936.018 813.502 937.271C809.124 938.947 790.225 943.076 788.593 946.229C792.441 948.723 804.017 948.179 808.607 947.783C820.268 947.162 831.895 946.009 843.45 944.328C840.287 942.181 825.577 932.599 822.776 932.447ZM669.939 963.008C662.688 966.096 655.403 968.979 649.132 973.869C650.58 975.583 651.935 977.148 653.689 978.57C655.433 979.486 657.164 980.454 658.978 981.224C661.05 977.006 671.254 967.322 670.274 963.288L669.939 963.008ZM697.368 964.203C685.163 965.298 672.312 971.842 664.361 981.341C664.032 981.736 663.708 982.135 663.388 982.538C673.352 984.341 681.739 982.971 691.128 979.264C703.916 974.421 716.902 970.119 730.052 966.37C719.893 964.703 707.637 962.356 697.368 964.203Z"/>
	<path fill="#5C4F7C" d="M528.647 54.5826C514.401 43.475 469.323 32.0699 450.495 28.6374C440.165 26.7542 429.792 25.6481 419.34 24.7653L418.923 24.1731L418.964 24.2526L427.547 23.7026C433.417 23.2307 439.588 23.5254 445.494 23.5263C499.062 23.5343 563.581 36.2932 613.494 55.7582L606.125 55.6896C580.362 54.7165 554.44 55.1938 528.647 54.5826Z"/>
	<path fill="#CCC3F7" d="M299.629 52.1553C324.493 39.5041 349.664 30.7685 377.696 29.2884C424.907 25.8384 472.479 36.7439 516.222 53.7775C508.401 55.5762 500.344 56.4738 492.472 58.1435C471.508 62.4408 450.782 67.8257 430.378 74.2765C422.8 76.6839 415.245 79.1629 407.714 81.7135C374.113 65.8628 337.92 47.0106 299.629 52.1553Z"/>
	<path fill="#5C4F7C" d="M242.911 158.337C240.199 133.073 244.075 101.483 260.42 81.2224C272.652 66.059 287.127 58.7137 306.315 56.6954C336.562 53.3428 373.826 71.5508 400.457 84.6428C391.262 87.661 381.71 89.6969 372.475 92.657C357.722 97.3856 342.676 102.364 328.479 108.553C319.104 112.64 309.951 117.486 300.771 122.004C280.229 132.487 261.097 144.143 242.911 158.337Z"/>
	<path fill="#5C4F7C" d="M339.3 130.185C346.54 123.181 386.133 96.6487 395.336 92.3375C402.805 88.8383 410.833 86.3581 418.641 83.7068C440.274 76.3965 462.312 70.346 484.646 65.5858C495.903 63.1551 507.097 60.7501 518.581 59.7015C529.078 58.673 543.775 60.267 554.776 60.4831L626.865 61.2786C636.568 76.9685 645.725 92.99 654.319 109.314C643.271 106.304 631.815 104.127 620.648 101.501L541.153 83.3083C529.141 80.6461 503.374 73.0207 492.267 73.266C484.434 73.439 473.307 79.2495 465.849 82.2408C453.158 87.3782 440.165 91.7948 427.377 96.6911L339.3 130.185Z"/>
	<path fill="#CCC3F7" d="M335.984 137.416C370.153 123.662 404.882 110.976 439.344 97.9622C456.787 91.3754 474.27 83.1844 492.193 78.1289C507.117 80.4907 521.987 84.3809 536.748 87.6073C576.85 96.3728 616.625 106.464 656.681 115.376C648.921 136.917 639.912 157.961 631.434 179.222C623.342 176.162 615.507 172.39 607.48 169.155L532.375 138.492C523.455 134.771 508.096 127.246 499.357 125.827C490.975 124.466 469.431 126.96 459.783 127.532C418.645 129.968 376.848 131.867 335.984 137.416Z"/>
	<path fill="#CCC3F7" d="M148.254 232.396L147.889 232.667L147.32 232.393C147.365 231.992 147.403 231.567 147.48 231.167C147.83 229.36 148.646 227.579 149.147 225.8C151.428 217.701 153.839 209.975 156.756 202.066C175.723 150.655 207.634 111.303 253.2 80.9744C253.759 81.3993 253.506 81.1256 253.903 81.8427L253.309 81.7787C238.796 104.337 233.757 135.524 238.426 161.797C224.893 171.537 212.43 183.119 199.537 193.694C183.03 207.233 165.683 220.069 148.254 232.396Z"/>
	<path fill="#CCC3F7" d="M329.432 114.162C345.034 107.67 360.788 102.049 376.738 96.4775L377.511 96.7601C374.023 100.171 368.814 102.212 364.769 104.984C352.768 113.208 341.355 122.354 329.294 130.49L328.509 130.647C327.465 127.421 329.075 118.042 329.432 114.162Z"/>
	<path fill="#5C4F7C" d="M318.234 119.666L322.503 117.414L323.087 117.544C324.04 119.819 322.797 127.62 322.208 130.16L321.485 129.863C320.2 126.554 319.269 123.064 318.234 119.666Z"/>
	<path fill="#FEFEFE" d="M306.809 124.562L311.891 122.47L312.625 122.857C313.94 125.567 316.031 128.947 316.205 131.95L315.576 132.13L313.766 130.632C311.275 128.762 309.059 126.707 306.809 124.562Z"/>
	<path fill="#5C4F7C" d="M341.334 142.238C351.445 139.545 367.04 139.541 377.804 138.625C414.854 135.472 451.922 133.596 489.022 131.206C492.951 130.861 496.666 130.575 500.532 131.631C512.533 134.911 524.058 141.304 535.643 145.888C553.018 152.762 570.217 159.981 587.507 167.052C601.679 172.849 615.818 178.362 629.736 184.791C616.303 204.594 602.715 220.459 585.627 237.044C568.95 226.282 552.688 224.154 533.279 226.426C525.72 221.097 518.216 215.689 510.769 210.203C502.369 203.679 493.537 197.663 485.01 191.296C477.648 185.8 469.811 178.731 461.62 174.606C453.138 170.335 441.901 168.49 432.665 166.054C412.395 160.706 392.012 155.875 371.72 150.631C361.62 148.02 351.178 145.667 341.334 142.238Z"/>
	<path fill="#CCC3F7" d="M239.352 168.351C247.82 158.751 267.556 146.964 278.869 140.432C289.858 140.326 301.118 141.575 312.026 142.795C306.322 145.282 300.174 147.06 294.265 149.021C283.989 152.432 273.72 155.783 263.622 159.702C255.565 162.666 247.441 165.472 239.352 168.351Z"/>
	<path fill="#FEFEFE" d="M322.407 145.608C325.029 143.796 327.746 142.105 330.425 140.376L331.143 140.498C339.835 147.798 430.377 306.39 437.434 322.377L436.946 324.114C434.347 333.196 445.167 333.776 448.858 340.166L473.092 382.536C479.581 393.877 486.323 405.195 492.077 416.933L487.853 413.966C482.7 410.847 477.722 408.935 472.002 407.052C461.213 388.967 451.422 370.183 440.866 351.941C413.812 305.923 387.155 259.674 360.896 213.198C353.005 199.147 344.972 185.177 336.799 171.288C331.961 163.056 325.899 154.468 322.407 145.608Z"/>
	<path fill="#CCC3F7" d="M469.031 302C458.957 288.1 449.907 273.181 440.808 258.628C436.363 251.518 432.163 243.349 426.661 237.028C421.801 231.446 415.505 226.531 410.041 221.513C398.986 211.302 387.869 201.159 376.69 191.084C371.722 186.631 365.931 182.246 361.571 177.211C357.426 172.424 354.506 166.479 351.246 161.06C348.65 156.745 345.818 152.582 342.994 148.413C354.205 152.039 365.965 154.555 377.387 157.441C395.74 161.924 414.03 166.662 432.252 171.652C440.4 173.818 452.378 175.749 459.477 179.59C465.544 182.872 471.272 187.954 476.917 191.996C493.668 203.992 510.007 216.733 526.97 228.396C509.604 234.044 495.953 246.344 486.907 261.977C481.254 273.18 480.063 283.529 480.117 295.891C476.345 297.785 472.647 299.823 469.031 302Z"/>
	<path fill="#CCC3F7" d="M107.975 394.115C113.956 382.929 117.994 370.183 122.85 358.439L151.296 290.192C154.818 281.804 158.869 269.393 163.313 261.94C167.046 255.679 268.444 180.271 282.09 170.424C290.92 164.151 299.874 158.055 308.948 152.142C308.329 154.477 289.756 173.743 287.099 176.754L253.379 215.694C240.563 230.451 227.684 245.012 215.412 260.237C211.593 264.975 205.951 269.841 203.22 275.236C200.437 280.736 199.415 290.139 198.023 296.347L190.07 330.939C183.097 360.689 175.755 390.352 168.045 419.919C153.552 415.816 140.727 408.277 127.118 402.023C120.856 399.111 114.396 396.65 107.975 394.115Z"/>
	<path fill="#5C4F7C" d="M88.6277 335.21C95.6972 323.755 103.842 313.009 111.156 301.72C121.742 285.38 131.501 268.634 141.549 251.969C144.138 247.676 146.93 241.623 150.462 238.158C154.584 234.115 160.021 230.716 164.673 227.259C173.506 220.71 182.28 214.081 190.994 207.374C200.84 199.727 217.027 184.251 226.77 178.883C232.706 175.613 241.479 173.391 248.007 170.977C263.59 165.214 279.702 158.157 295.844 154.16L295.913 154.18L296.117 154.558C287.321 160.104 278.714 165.947 270.313 172.076C256.561 182.08 243.336 192.828 229.784 203.104L185.432 236.936C180.106 240.994 162.118 252.912 159.074 257.592C156.441 261.641 154.862 267.007 153.058 271.486L142.772 296.835C136.089 313.283 128.974 329.536 122.216 345.948C116.529 359.76 111.208 373.692 105.353 387.441L101.409 376.1C97.0845 362.477 92.6076 348.939 88.6277 335.21Z"/>
	<path fill="#5C4F7C" d="M173.426 420.986C177.678 406.084 181.078 390.956 184.73 375.902C188.962 358.458 193.366 341.029 197.368 323.532C200.728 308.842 203.18 293.784 207.408 279.314C207.886 277.676 208.729 276.441 209.739 275.08C214.456 268.725 220.013 262.78 225.073 256.672C241.248 237.266 257.752 218.138 274.578 199.293C283.646 188.954 292.486 178.433 301.674 168.195C305.824 163.57 309.883 158.645 314.466 154.446C314.341 157.352 276.151 241.699 271.704 251.585C268.494 258.72 262.821 267.629 261.33 275.13C260.206 280.785 262.897 306.276 263.399 314.089C265.341 344.343 267.318 374.658 268.701 404.942C240.334 416.726 211.546 421.729 180.875 421.5C178.364 421.518 175.919 421.248 173.426 420.986Z"/>
	<path fill="#CCC3F7" d="M273.942 403.553C273.334 386.275 265.347 278.988 267.11 274.227C270.538 264.971 275.158 256.084 279.311 247.132C283.947 237.139 288.252 226.972 292.746 216.911C298.464 204.107 304.564 191.446 310.2 178.614C313.346 171.454 315.774 163.901 319.338 156.941C320.089 157.917 329.258 222.656 330.391 231.029C331.682 240.572 332.461 250.803 334.865 260.105C336.223 265.364 338.525 270.597 340.427 275.69C343.252 283.215 345.991 290.771 348.645 298.357L373.895 370.592C357.071 384.51 337.29 392.34 316.382 397.858C302.499 401.369 288.26 403.28 273.942 403.553Z"/>
	<path fill="#5C4F7C" d="M378.407 368.711C375.031 357.68 371.027 346.916 367.248 336.027L350.621 287.935C347.442 278.918 343.224 270.01 340.64 260.832C336.95 247.727 335.382 228.262 333.413 214.307C331.069 197.699 327.803 181.033 325.959 164.381C330.198 168.276 339.569 186.885 343.133 193.155L372.856 245.443L436.788 355.424C433.685 356.733 430.504 357.887 427.357 359.089C411.327 363.611 394.956 366.828 378.407 368.711Z"/>
	<path fill="#5C4F7C" d="M90.7669 321.728L90.1182 321.768C90.3581 315.189 92.579 307.898 94.0978 301.494C104.394 258.081 132.777 201.073 164.263 168.992C164.377 171.075 155.488 188.918 154.083 192.633C149.351 205.152 144.968 218.043 141.514 230.978C140.673 234.131 141.865 237.83 140.873 240.728C138.395 247.973 133.18 255.203 129.24 261.807C117.128 282.111 104.592 302.547 90.7669 321.728Z"/>
	<path fill="#5C4F7C" d="M443.063 319.679C437.799 310.084 432.125 300.753 426.742 291.231L370.354 192.942C378.021 198.079 386.396 206.881 393.399 213.206C401.869 220.856 416.088 232.374 423.023 240.799C428.603 247.58 432.884 256.082 437.485 263.573C446.013 277.462 454.815 291.541 464.301 304.795C461.042 306.715 457.983 308.887 454.895 311.067L443.063 319.679Z"/>
	<path fill="#FEFEFE" d="M532.252 284.048C521.439 286.673 496.481 292.945 486.426 289.891C485.569 289.056 485.697 289.236 485.599 288.149C484.545 276.461 491.341 262.52 498.646 253.81C510.282 239.936 526.768 232.283 544.645 230.706C551.826 230.219 559.499 231.58 566.333 233.744C578.292 237.53 590.41 245.111 596.392 256.514C578.275 270.647 554.228 278.154 532.252 284.048Z"/>
	<path fill="#FEFEFE" d="M603.046 262.067C611.821 260.542 621.159 260.337 630.043 259.71C630.089 259.705 630.134 259.699 630.18 259.697C635.633 259.386 652.484 258.754 656.523 262.671C657.016 263.149 657.15 263.761 657.074 264.445C656.655 268.211 651.254 271.975 648.431 274.153C608.043 305.326 509.101 340.534 458.084 334.015C451.998 333.236 446.873 331.281 442.408 326.977C454.294 317.587 467.623 309.46 480.336 301.218C480.546 303.83 480.343 307.914 482.628 309.638C486.201 312.333 494.434 311.499 498.676 311.121C512.566 309.885 526.413 306.869 539.839 303.172C555.212 298.939 595.191 285.136 605.134 273.212C606.299 269.77 604.128 265.353 603.046 262.067Z"/>
	<path fill="#FEFEFE" d="M600.54 471.467C600.94 442.817 605.563 414.715 610.922 386.651C613.804 371.557 616.642 356.358 620.957 341.594C622.421 336.587 624.213 327.948 627.776 324.256C629.18 322.8 631.102 321.854 632.861 320.894C635.884 321.195 638.804 324.001 642.102 324.576C647.971 325.6 654.044 325.696 659.962 326.435C673.775 328.161 687.673 333.238 699.774 340.056C739.79 362.602 767.108 405.982 795.614 440.714C803.774 450.655 814.434 456.848 824.502 464.553C833.375 471.338 841.65 478.87 849.238 487.066C885.875 526.392 903.374 579.214 919.99 629.25C925.845 646.882 932.174 664.601 937.211 682.479C931.376 686.758 926.025 691.931 920.443 696.557C910.971 704.38 901.276 711.93 891.37 719.196C872.532 733.091 853.295 746.438 833.685 759.221C825.994 764.245 817.862 768.568 810.254 773.704C805.284 767.834 801.249 760.63 797.083 754.149L773.123 716.624C760.358 697.776 748.318 678.465 735.718 659.509C722.329 639.365 708.165 619.662 695.155 599.264C687.046 586.55 679.842 573.252 672.345 560.175C667.174 551.154 661.643 542.37 656.594 533.271C669.851 514.979 680.807 495.067 691.021 474.954C698.237 460.746 705.331 446.245 710.528 431.154C711.843 427.335 713.038 423.445 713.446 419.409C715.042 403.634 709.415 384.258 702.443 370.25C696.495 358.3 684.564 342.821 671.308 338.615C665.231 336.687 658.379 337.483 652.749 340.405C647.218 343.275 642.662 348.157 638.849 352.991C624.159 371.61 618.872 394.481 613.48 417.029L605.722 449.952C604.151 456.84 602.963 464.022 600.782 470.735L600.54 471.467Z"/>
	<path fill="#FEFEFE" d="M500.032 355.736C507.436 352.229 515.428 349.578 523.033 346.515C529.869 343.761 536.504 340.497 543.446 338.02C547.456 340.914 546.526 349.544 558.972 356.255C556.17 365.901 552.17 374.945 548.054 384.08C538.073 385.29 529.946 383.385 520.994 378.963C510.837 373.357 504.851 366.138 500.032 355.736Z"/>
	<path fill="#9F8BE8" d="M516.896 434.479C513.83 426.799 509 414.425 501.911 409.572C499.577 407.975 497.55 408.714 494.968 409.163C491.048 404.666 485.735 393.759 482.591 388.266L454.286 338.829C467.904 340.987 480.214 340.187 493.842 338.867C494.617 343.4 495.742 347.699 497.033 352.103L493.798 355.01C496.24 363.55 501.806 371.276 508.512 377.002C519.557 386.432 533.718 391.132 548.263 389.518C550.815 389.234 552.232 387.553 553.763 385.694L554.183 385.175C554.707 385.236 555.235 385.282 555.754 385.376C560.952 386.317 566.575 383.442 571.558 381.955C573.405 381.404 574.294 381.181 576.034 382.12C578.296 385.802 579.781 446.147 580.039 454.206C580.114 458.437 579.981 462.676 579.904 466.907C575.845 466.07 571.498 465.208 567.659 463.633C561.402 461.066 555.591 457.053 549.773 453.601C538.92 447.161 527.996 440.446 516.896 434.479Z"/>
	<path fill="#FEFEFE" d="M602.093 485.826C605.261 477.12 607.244 467.328 609.368 458.314L618.741 419.558C622.507 404.114 625.921 388.41 632.695 373.939C638.304 361.957 647.16 347.857 660.157 343.095C663.543 342.758 666.313 342.8 669.563 343.946C682.892 348.646 693.927 364.733 699.653 376.953C707.452 393.601 711.457 413.111 705.046 430.795C696.715 453.772 655.196 539.228 634.659 547.931C628.345 550.606 618.355 549.025 611.754 548.195C578.67 544.034 545.627 534.388 514.699 522.054L511.958 520.639C514.793 504.329 525.882 482.438 537.567 470.6C543.821 472.569 550.277 474.017 556.576 475.868C573.954 480.974 591.863 486.919 608.072 495.072C613.129 497.616 618.153 500.393 622.851 503.553C625.371 505.248 627.594 507.645 630.284 509.038C631.555 509.696 632.511 509.776 633.89 509.379C634.831 508.593 634.933 508.671 635.071 507.473C632.159 500.681 608.921 489.235 602.093 485.826Z"/>
	<path fill="#9F8BE8" d="M564.402 358.116C571.89 361.647 580.321 364.821 588.756 364.236C599.431 363.495 606.13 356.348 612.819 348.92C612.919 353.239 610.756 358.766 609.864 363.125C608.317 370.679 607.083 378.317 605.756 385.912C597.095 382.994 582.547 375.444 573.943 375.985C569.107 376.289 564.426 378.219 559.881 379.792C558.517 380.351 557.036 381.209 555.534 381.021C558.749 373.489 561.707 365.849 564.402 358.116Z"/>
	<path fill="#FEFEFE" d="M532.069 467.407C521.962 460.306 523.347 453.361 518.893 443.309L518.607 442.674C521.717 444.118 524.628 446.503 527.574 448.3C535.068 452.769 542.501 457.339 549.873 462.006C553.904 464.519 558.415 466.484 562.296 469.171C563.197 469.795 563.876 470.425 564.409 471.397L563.688 471.941C554.807 469.402 545.843 467.318 536.88 465.102L532.069 467.407Z"/>
	<path fill="#FEFEFE" d="M596.301 482.997C589.686 481.7 582.298 478.905 576.067 476.301C572.881 474.969 569.26 473.77 567.874 470.397C570.642 470.44 573.791 471.335 576.508 471.94C583.18 473.427 592.503 477.039 596.301 482.997Z"/>
	<path fill="#FEFEFE" d="M712.948 827.132C710.644 824.814 707.833 817.88 706.048 814.737C694.837 795.039 683.812 775.237 672.973 755.333L589.606 604.679C578.073 583.605 566.2 562.695 555.199 541.329C560.853 543.231 566.621 544.731 572.378 546.285C583.613 567.8 595.583 588.87 607.29 610.13L670.359 724.601L695.421 769.794C700.705 779.493 706.531 789.385 710.292 799.804C712.877 806.964 712.394 819.175 712.948 827.132Z"/>
	<path fill="#9F8BE8" d="M709.839 784.238L709.258 784.39C706.719 781.43 704.71 775.738 702.766 772.167C694.823 757.245 686.707 742.416 678.42 727.683L579.151 547.753C597.698 550.966 615.913 556.632 634.997 553.796C638.992 563.747 644.808 573.547 649.735 583.094C660.884 604.696 672.575 626.425 682.7 648.515C692.227 669.298 694.02 691.174 699.159 713.125C701.224 721.945 704.789 730.938 706.056 739.866C706.977 746.356 706.924 753.195 707.453 759.747C708.112 767.925 709.232 776.052 709.839 784.238Z"/>
	<path fill="#FEFEFE" d="M639.426 551.115C641.169 550.026 642.95 548.991 644.711 547.932C645.765 548.311 645.37 547.982 645.934 548.867C653.111 560.139 660.91 570.506 669.582 580.68C674.829 586.835 681.149 593.004 685.616 599.703C686.579 601.148 687.336 602.654 687.825 604.325C689.442 609.844 690.065 615.902 691.186 621.563C692.885 629.836 694.854 638.05 697.09 646.194C700.162 657.8 707.034 675.655 708.327 686.638C708.673 689.577 706.914 716.8 706.303 720.034L705.961 719.402C704.207 711.21 702.424 703.052 700.869 694.818C698.789 683.808 697.001 672.727 693.555 662.037C688.612 646.708 680.966 632.834 673.783 618.491L639.426 551.115Z"/>
	<path fill="#010101" d="M76.5959 885.048C75.9482 886.199 75.6564 886.773 74.2886 887.059C72.7228 887.386 70.9615 887.41 69.3605 887.502C70.7933 881.96 73.9955 876.118 76.149 870.743L91.2519 832.828L121.401 758.942C130.572 736.911 140.074 714.973 148.821 692.77C140.497 689.726 131.981 687.232 123.33 685.306C117.425 683.966 109.626 683.177 104.195 680.7C99.6544 678.63 95.7957 672.81 91.7448 669.705C82.5206 662.633 51.4078 645.999 39.7502 645.32C33.131 635.678 27.3687 627.437 17.4652 620.847C14.6334 618.963 9.38445 616.989 7.23987 614.557C6.60331 613.835 6.82389 613.698 6.87951 612.798C10.2368 606.767 23.9926 600.321 30.3262 597.107C81.0742 570.938 140.266 566.473 194.366 584.732C209.276 589.625 223.181 597.977 235.798 607.194C263.999 627.794 284.565 650.874 300.264 682.092C310.974 703.366 317.855 726.36 320.59 750.02C320.997 753.632 321.965 758.881 320.802 762.393C319.729 762.616 319.21 762.525 318.161 762.24C314.622 761.281 311.115 759.629 307.665 758.341C301.343 755.981 295.1 754.002 288.502 752.541C280.445 750.757 272.378 749.863 264.141 750.608C242.292 735.343 224.5 725.92 197.023 724.478C193.192 721.468 189.714 717.959 185.949 714.852C179.239 709.314 171.856 704.823 164.145 700.836L112.334 828.208L97.5311 865.019C94.9077 871.697 92.7482 879.009 89.4443 885.356C87.0735 885.677 84.7909 885.916 82.3905 885.931C89.6797 870.614 95.2438 854.473 101.753 838.814C121.233 791.95 139.575 744.582 159.429 697.883C157.615 696.919 155.727 696.068 153.876 695.174C144.203 720.273 133.299 745.014 123.063 769.888L76.5959 885.048ZM114.251 579.703C78.2547 582.032 45.2219 592.86 14.7238 612.281C26.3257 618.923 35.5874 627.821 42.0291 639.608C49.3262 633.048 57.3878 627.358 65.6395 622.066C96.8134 602.101 144.828 583.845 182.211 586.604C169.972 581.026 128.372 578.249 114.251 579.703ZM175.005 591.709C128.209 594.708 83.5499 612.38 47.3736 642.214C60.1766 645.794 72.6103 650.459 83.8664 657.651C91.671 662.411 98.434 667.842 105.05 674.144C121.985 649.108 143.536 621.361 169.09 604.679C176.956 599.544 185.531 595.642 194.035 591.704C187.696 591.617 181.34 591.421 175.005 591.709ZM202.318 596.074C161.11 604.89 133.131 644.971 109.523 676.781C122.3 679.142 134.378 681.789 146.647 686.112C165.29 693.371 180.647 703.148 195.86 715.982C197.986 708.342 200.297 700.678 202.019 692.937C207.305 669.171 215.619 618.387 203.703 596.76C203.161 596.373 202.997 596.136 202.318 596.074ZM210.982 598.748C213.231 608.545 214.91 617.997 215.268 628.09C216.103 651.576 209.3 697.682 200.056 718.894C218.472 720.672 237.085 725.964 252.792 735.987C256.077 738.158 259.363 740.285 262.411 742.787C262.353 701.525 255.488 660.736 233.367 625.221C228.648 617.645 223.507 609.976 217.154 603.673C215.329 601.862 213.26 599.958 210.982 598.748ZM230.174 610.338C259.144 652.474 269.165 693.903 267.845 744.544C284.675 745.148 300.266 748.544 315.714 755.288C310.019 701.204 282.942 651.639 240.509 617.625C237.389 615.088 233.868 611.866 230.174 610.338Z"/>
	<path fill="#5C4F7C" d="M14.7238 612.281C45.2219 592.86 78.2547 582.032 114.251 579.703C128.372 578.249 169.972 581.026 182.211 586.604C144.828 583.845 96.8134 602.101 65.6395 622.066C57.3878 627.358 49.3262 633.048 42.0291 639.608C35.5874 627.821 26.3257 618.923 14.7238 612.281Z"/>
	<path fill="#CCC3F7" d="M47.3736 642.214C83.5499 612.38 128.209 594.708 175.005 591.709C181.34 591.421 187.696 591.617 194.035 591.704C185.531 595.642 176.956 599.544 169.09 604.679C143.536 621.361 121.985 649.108 105.05 674.144C98.434 667.842 91.671 662.411 83.8664 657.651C72.6103 650.459 60.1766 645.794 47.3736 642.214Z"/>
	<path fill="#5C4F7C" d="M109.523 676.781C133.131 644.971 161.11 604.89 202.318 596.074C202.997 596.136 203.161 596.373 203.703 596.76C215.619 618.387 207.305 669.171 202.019 692.937C200.297 700.678 197.986 708.342 195.86 715.982C180.647 703.148 165.29 693.371 146.647 686.112C134.378 681.789 122.3 679.142 109.523 676.781Z"/>
	<path fill="#CCC3F7" d="M200.056 718.894C209.3 697.682 216.103 651.576 215.268 628.09C214.91 617.997 213.231 608.545 210.982 598.748C213.26 599.958 215.329 601.862 217.154 603.673C223.507 609.976 228.648 617.645 233.367 625.221C255.488 660.736 262.353 701.525 262.411 742.787C259.363 740.285 256.077 738.158 252.792 735.987C237.085 725.964 218.472 720.672 200.056 718.894Z"/>
	<path fill="#5C4F7C" d="M721.66 877.08C719.784 858.433 719.583 839.639 718.143 820.946L715.023 779.211C713.851 765.058 712.412 751.031 712.095 736.817C711.859 726.257 712.368 715.563 713.04 705.024C713.613 696.03 714.608 686.52 713.723 677.523C713.288 673.093 710.501 668.118 709.103 663.778C705.209 652.082 701.714 640.256 698.624 628.322C697.03 622.332 695.057 616.145 694.551 609.956C698.472 613.252 707.912 629.035 711.455 634.251L745.658 685.681C758.581 704.672 771.11 723.929 783.236 743.44C786.837 749.239 790.674 754.869 794.104 760.775C800.468 771.733 786.585 858.78 784.082 877.099C783.662 879.25 783.222 881.398 782.764 883.541C759.439 873.317 746.571 869.254 721.66 877.08Z"/>
	<path fill="#5C4F7C" d="M267.845 744.544C269.165 693.903 259.144 652.474 230.174 610.338C233.868 611.866 237.389 615.088 240.509 617.625C282.942 651.639 310.019 701.204 315.714 755.288C300.266 748.544 284.675 745.148 267.845 744.544Z"/>
	<path fill="#F1EEFB" d="M76.5959 885.048L123.063 769.888C133.299 745.014 144.203 720.273 153.876 695.174C155.727 696.068 157.615 696.919 159.429 697.883C139.575 744.582 121.233 791.95 101.753 838.814C95.2438 854.473 89.6797 870.614 82.3905 885.931C80.3578 885.891 78.4259 886.05 76.5959 885.048Z"/>
	<path fill="#5C4F7C" d="M809.504 781.168C827.842 770.594 846.332 757.268 864.038 745.399C864.137 745.45 864.247 745.486 864.337 745.553C866.284 747.025 868.096 752.158 869.182 754.535C882.642 783.986 889.36 816.802 895.126 848.509C894.662 848.495 894.198 848.485 893.734 848.48C871.793 848.243 852.478 859.038 837.13 873.995C835.433 870.293 833.897 866.512 832.319 862.757C823.523 837.629 812.828 813.207 800.326 789.703C800.596 783.257 800.743 776.808 800.767 770.357C803.4 774.216 805.949 778.089 809.504 781.168Z"/>
	<path fill="#F1EEFB" d="M887.197 787.937C894.082 786.108 900.78 783.622 907.555 781.428C918.919 777.818 930.318 774.314 941.748 770.917C968.802 763.333 996.263 757.283 1024 752.797L1024 1024L61.8753 1024C70.8163 1020.43 81.0802 1018.41 90.3471 1015.63C106.57 1010.67 122.699 1005.4 138.727 999.839C201.181 978.111 262.447 952.117 327.342 938.195C393.901 923.916 461.969 918.063 528.15 901.853C562.702 893.434 596.779 883.176 630.237 871.126C654.966 862.295 679.138 851.941 704.444 844.81C707.612 844.069 710.789 843.372 713.976 842.719C716.163 854.186 714.935 866.534 716.463 878.169C717.369 885.069 719.894 888.793 725.244 892.934C724.754 896.529 724.439 900.473 723.287 903.917C721.721 908.598 718.983 912.429 716.065 916.346C707.353 928.04 697.538 935.998 685.611 944.138C683.067 945.875 679.382 945.204 677.101 947.23C674.485 949.553 675.499 954.275 672.879 955.799C663.283 961.38 648.962 964.382 642.158 973.453C640.066 976.242 639.087 979.494 639.74 982.951C640.622 987.621 644.151 991.465 648.037 993.962C659.819 1001.53 676.764 1000.6 689.839 997.69C700.837 995.241 711.748 989.712 722.511 986.158C737.079 981.347 753.134 977.772 767.229 972.222C769.582 971.296 771.266 970.643 772.636 968.408C773.856 966.416 774.219 964.304 773.554 962.043C772.656 958.988 770.975 957.312 768.229 955.831C768.048 955.734 767.866 955.64 767.685 955.545C767.424 946.505 765.651 937.61 765.358 928.621C764.986 917.242 768.523 905.807 771.372 894.894C777.205 894.046 782.173 892.244 786.57 888.161C789.015 880.862 789.88 872.696 791.09 865.116C793.057 853.239 794.84 841.331 796.438 829.398C797.574 820.465 798.242 811.43 799.784 802.557C808.517 815.998 814.729 832.018 820.495 846.946C825.524 859.968 829.48 873.292 838.425 884.255C842.413 884.925 846.283 885.413 850.326 885.573C850.725 890.324 851.413 895.206 850.439 899.929C850.039 901.871 849.488 903.638 848.184 905.17C843.809 910.31 817.178 929.829 811.855 932.145C803.929 935.594 794.532 935.79 787.182 940.722C783.958 942.886 781.665 945.879 781.091 949.78C780.728 952.249 780.958 956.175 782.576 958.19C784.263 960.29 786.947 961.203 789.544 961.46C796.31 962.13 803.406 961.529 810.205 961.315C824.394 960.81 838.579 960.176 852.756 959.414C867.38 958.779 881.998 958.05 896.612 957.226C903.479 956.818 910.619 956.749 917.425 955.757C919.898 955.397 922.037 954.814 923.956 953.144C925.703 951.623 926.622 949.585 926.674 947.274C926.722 945.08 926.286 942.763 924.595 941.226C919.946 937 907.882 939.078 902.046 939.381C904.33 937.66 906.702 935.822 908.504 933.58C915.88 924.407 902.392 899.975 898.98 889.751C896.331 881.829 894.42 873.679 893.271 865.406C895.063 863.792 896.776 861.957 897.961 859.844C899.512 857.08 900.06 854.109 900.138 850.967C900.521 835.516 891.519 803.132 887.197 787.937Z"/>
	<path fill="#CCC3F7" d="M89.4443 885.356C95.5414 886.082 108.367 883.326 114.798 882.383C154.631 876.197 194.008 867.367 232.669 855.951C248.098 851.46 263.285 846.194 278.67 841.562C319.559 829.252 360.619 817.082 402.209 807.346C452.468 795.579 505.946 788.082 557.287 796.851C588.431 802.17 618.683 812.379 648.329 823.078C660.556 827.436 672.757 831.866 684.932 836.368C691.339 838.802 698.615 841.192 704.444 844.81C679.138 851.941 654.966 862.295 630.237 871.126C596.779 883.176 562.702 893.434 528.15 901.853C461.969 918.063 393.901 923.916 327.342 938.195C262.447 952.117 201.181 978.111 138.727 999.839C122.699 1005.4 106.57 1010.67 90.3471 1015.63C81.0802 1018.41 70.8163 1020.43 61.8753 1024L0 1024L0 890.959C22.869 890.88 46.6896 890.459 69.3605 887.502C70.9615 887.41 72.7228 887.386 74.2886 887.059C75.6564 886.773 75.9482 886.199 76.5959 885.048C78.4259 886.05 80.3578 885.891 82.3905 885.931C84.7909 885.916 87.0735 885.677 89.4443 885.356Z"/>
	<path fill="#5C4F7C" d="M893.451 857.759L892.291 858.702L891.322 858.3C890.421 856.966 890.039 855.722 889.601 854.182C891.181 854.103 893.547 853.666 894.972 854.395C894.995 855.876 894.239 856.548 893.451 857.759Z"/>
	<path fill="#CCC3F7" d="M848.914 870.67C858.04 862.636 870.142 856.743 882.236 855.166C883.481 854.991 883.765 854.805 884.973 855.282C887.705 859.504 887.429 866.287 888.431 871.191C889.432 876.092 890.726 881.126 892.084 885.949C893.445 890.779 894.965 895.639 896.862 900.283C899.955 907.857 905.396 916.961 905.81 925.238C905.932 927.69 905.035 929.79 903.365 931.566C895.915 939.489 872.36 941.093 861.556 941.566L857.702 938.361C851.134 932.167 843.58 927.052 835.866 922.414C842.676 916.401 852.055 911.68 855.276 902.639C859.219 891.572 853.757 880.401 848.914 870.67Z"/>
	<path fill="#9F8BE8" d="M844.709 880.307C843.483 880.075 842.404 879.999 841.482 879.075C841.586 877.297 843.197 875.794 844.274 874.371C844.303 874.403 844.336 874.431 844.361 874.465C845.641 876.178 846.845 877.574 846.602 879.768L844.709 880.307Z"/>
	<path fill="#CCC3F7" d="M731.471 879.746C734.551 879.114 737.646 878.643 740.754 878.173C750.183 876.834 760.254 880.24 768.984 883.393C765.249 896.772 759.574 913.827 760.042 927.732C760.379 937.759 762.694 946.811 761.883 956.991C757.699 957.896 753.604 958.982 749.49 960.164C741.141 956.679 734.031 953.671 725.03 952.121C712.595 950.285 701.351 951.875 689.069 953.837L686.982 949.188C693.644 944.136 700.712 939.914 706.894 934.194C715.137 926.566 721.248 916.843 728.321 908.173C728.786 898.982 730.6 889.062 731.471 879.746Z"/>
	<path fill="#5C4F7C" d="M778.277 887.996C776.804 888.534 775.228 889.343 773.637 889.166C773.029 887.758 773.486 886.518 773.695 885.023C775.31 885.569 778.272 886.218 779.213 887.559L778.277 887.996Z"/>
	<path fill="#9F8BE8" d="M808.607 947.783C804.017 948.179 792.441 948.723 788.593 946.229C790.225 943.076 809.124 938.947 813.502 937.271C816.775 936.018 819.766 934.222 822.776 932.447C825.577 932.599 840.287 942.181 843.45 944.328C831.895 946.009 820.268 947.162 808.607 947.783Z"/>
	<path fill="#F1EEFB" d="M649.132 973.869C655.403 968.979 662.688 966.096 669.939 963.008L670.274 963.288C671.254 967.322 661.05 977.006 658.978 981.224C657.164 980.454 655.433 979.486 653.689 978.57C651.935 977.148 650.58 975.583 649.132 973.869Z"/>
	<path fill="#CCC3F7" d="M663.388 982.538C663.708 982.135 664.032 981.736 664.361 981.341C672.312 971.842 685.163 965.298 697.368 964.203C707.637 962.356 719.893 964.703 730.052 966.37C716.902 970.119 703.916 974.421 691.128 979.264C681.739 982.971 673.352 984.341 663.388 982.538Z"/>
</svg>
