<?xml version="1.0" encoding="utf-8" ?>
<svg xmlns="http://www.w3.org/2000/svg" xmlns:xlink="http://www.w3.org/1999/xlink" width="1024" height="1024">
	<path fill="#9F8BE8" d="M0 0L1024 0L1024 1024L0 1024L0 0ZM583.519 7.70838C520.71 12.8078 443.937 64.4195 404.005 111.516C391.981 125.697 380.078 143.18 374.601 161.064C369.283 178.432 367.404 198.471 365.222 216.552L358.306 274.763C348.651 359.379 340.339 444.143 333.373 529.023C333.117 532.281 332.915 544.164 331.117 546.552C328.224 550.395 306.15 545.869 307.874 570.603C308.034 572.907 308.762 575.239 309.451 577.437C307.475 578.477 305.515 579.514 303.756 580.903C298.113 585.362 292.958 590.962 287.785 595.965C278.424 605.019 268.165 614.125 260.386 624.631C250.545 620.357 241.475 619.233 230.817 619.427C227.979 615.057 225.258 610.685 222.852 606.054C227.563 603.551 234.736 600.606 236.542 595.122C237.553 592.05 236.519 589.011 235.06 586.279C232.246 581.011 227.955 576.475 224.604 571.542C226.077 569.248 226.96 567.224 226.36 564.448C225.433 560.162 220.413 557.763 217.226 555.251C218.021 547.32 217.639 540.329 212.218 533.903C207.472 528.278 200.078 524.993 192.779 524.6C186.684 524.272 180.025 525.815 175.443 530.03C172.602 532.643 171.634 535.193 170.801 538.821C160.468 540.748 152.514 545.328 146.455 554.075C140.534 562.665 138.318 573.275 140.306 583.516C142.545 595.208 149.359 605.972 159.301 612.591C164.238 615.878 169.664 617.977 175.37 619.499C168.986 622.994 147.543 635.447 143.307 639.948C139.997 643.465 138.073 647.792 136.753 652.372C135.161 657.896 134.423 664.279 135.202 669.996C137.038 683.483 141.841 698.635 145.048 712.023L155.113 752.366C158.08 764.651 160.725 777.172 164.28 789.299C165.01 791.791 165.895 794.823 167.277 797.032C169.874 801.184 176.179 803.885 180.793 804.688C188.904 806.098 197.079 803.611 203.602 798.759C203.891 798.542 204.178 798.321 204.461 798.097C208.812 813.905 213.271 829.684 217.837 845.432C209.618 852.872 200.591 859.534 192.026 866.58L139.018 910.287C131.584 916.404 123.043 922.128 116.123 928.752C115.018 929.81 114.574 930.675 114.343 932.191L114.196 933.106C114.16 933.343 114.129 933.58 114.095 933.818C107.99 942.016 86.1109 942.385 81.1053 947.728C79.9302 948.982 80.0363 951.625 80.2335 953.186C80.7008 956.884 82.9899 963.5 86.0564 965.832C87.5024 966.932 90.5846 965.775 91.3071 967.613C87.5128 984.855 87.9986 987.811 97.7751 1003.04C99.8241 1006.23 103.36 1011.49 107.385 1012.09C108.498 1012.26 109.869 1012.15 110.717 1011.33C114.829 1007.38 112.158 995.689 112.743 990.295C113.893 979.7 118.867 962.843 127.375 955.785C128.131 956.435 129.558 958.057 130.532 957.978C132.519 957.816 134.472 956.422 136.126 955.403C153.281 944.832 169.697 932.925 186.638 921.992C201.247 912.735 215.722 903.267 230.057 893.591C236.983 888.996 244.163 884.737 250.815 879.745C256.353 875.587 261.484 871.027 265.614 865.43C274.045 854.003 275.422 838.25 276.798 824.504C285.602 831.949 294.729 839.009 303.746 846.192C308.561 850.029 313.758 853.733 318.075 858.115C316.976 887.939 315.322 917.728 314.405 947.569C314.235 953.092 312.945 969.696 313.536 973.737C313.831 975.757 315.852 976.475 316.463 978.142C316.838 979.167 316.47 982.16 316.468 983.439C316.459 990.068 314.534 1015.66 318.705 1020.27C320.721 1022.49 324.811 1022.55 327.557 1022.4C329.277 1022.31 330.99 1022.11 332.683 1021.8C333.047 1019.84 333.441 1017.88 333.698 1015.9C340.012 1013.44 346.379 1010.97 352.355 1007.76C358.93 1004.27 373.238 997.973 375.592 990.379C376.014 989.018 375.88 987.709 375.163 986.477C374.407 985.178 372.964 983.75 371.467 983.404C365.704 982.07 354.66 987.307 347.991 987.663C345.718 984.259 342.722 979.55 342.906 975.334C343.054 975.189 343.206 975.048 343.349 974.899C344.326 973.878 345.048 972.924 345.548 971.602C348.156 964.708 350.226 951.536 352 943.741C356.983 922.64 361.626 901.459 365.926 880.208C367.921 870.098 370.878 859.064 370.498 848.745C370.298 842.908 368.893 837.177 366.372 831.909C360.279 819.125 349.166 806.483 340.478 795.244L316.881 764.161C312.694 758.68 306.255 752.184 303.919 745.816C300.834 737.406 293.895 729.943 289.227 722.278C290.658 720.354 291.796 718.61 292.78 716.405C291.327 711.738 288.331 707.75 286.046 703.46L279.47 702.879C275.695 692.843 271.353 683.283 266.65 673.655C272.982 676.086 281.094 678.615 287.711 675.851C291.801 674.142 294.107 670.605 295.629 666.601C298.783 658.301 300.403 649.466 303.915 641.267L304.539 641.101L304.675 640.28L304.244 640.53L304.61 639.987C303.643 645.8 301.462 651.572 300.126 657.348C294.721 680.719 292.279 704.413 299.694 727.674C301.529 733.429 303.717 740.857 307.313 745.77C308.114 746.864 308.824 747.55 310.192 747.828C312.374 747.471 327.118 740.574 328.199 739.149C328.756 738.416 328.593 738.355 328.443 737.485C327.462 731.806 323.869 726.195 321.473 720.99C313.738 704.185 309.062 684.526 312.348 666.051C319.274 660.93 325.452 653.885 326.657 645.022C326.965 642.75 326.826 640.46 326.64 638.185C333.539 633.379 331.029 632.108 335.867 626.818C337.473 625.062 338.292 623.073 338.074 620.668C337.613 615.574 332.628 610.867 329.304 607.277C330.958 603.784 332.033 600.528 332.57 596.666C338.191 594.982 342.243 592.412 345.061 587.107C348.552 580.534 349.372 572.168 349.62 564.842C365.816 567.167 381.563 571.189 397.633 574.121C430.17 580.251 462.94 585.073 495.864 588.576C543.267 593.597 590.912 595.987 638.58 595.733C685.264 595.432 736.828 590.441 783.111 584.407C810.144 580.882 846.265 576.016 871.799 566.68C880.645 563.445 887.912 559.033 895.415 553.412C937.015 522.247 952.06 487.704 967.458 439.503C974.345 417.944 980.173 396.23 983.346 373.79C988.678 336.086 985.575 302.323 976.634 265.443C973.332 251.823 969.485 236.841 961.019 225.461C958.066 221.492 954.715 218.225 950.529 215.587C942.378 190.102 928.823 163.684 904.006 151.018C900.813 149.388 897.794 148.246 894.312 147.391C888.016 129.096 878.001 113.286 860.16 104.496C856.8 102.84 853.393 101.672 849.733 100.886C843.263 87.8334 833.544 75.2159 819.275 70.2245C816.833 69.3701 814.532 69.1357 811.975 68.9418C800.327 55.1957 786.124 45.238 767.764 43.7068C761.973 43.2239 756.18 43.9088 750.437 44.6204C731.919 28.2405 713.216 21.3411 688.372 22.8794L678.319 23.5561C659.613 11.3597 638.13 10.4502 616.568 13.7781C605.729 9.22718 595.306 6.96616 583.519 7.70838Z"/>
	<path d="M309.451 577.437C308.762 575.239 308.034 572.907 307.874 570.603C306.15 545.869 328.224 550.395 331.117 546.552C332.915 544.164 333.117 532.281 333.373 529.023C340.339 444.143 348.651 359.379 358.306 274.763L365.222 216.552C367.404 198.471 369.283 178.432 374.601 161.064C380.078 143.18 391.981 125.697 404.005 111.516C443.937 64.4195 520.71 12.8078 583.519 7.70838C595.306 6.96616 605.729 9.22718 616.568 13.7781C638.13 10.4502 659.613 11.3597 678.319 23.5561L688.372 22.8794C713.216 21.3411 731.919 28.2405 750.437 44.6204C756.18 43.9088 761.973 43.2239 767.764 43.7068C786.124 45.238 800.327 55.1957 811.975 68.9418C814.532 69.1357 816.833 69.3701 819.275 70.2245C833.544 75.2159 843.263 87.8334 849.733 100.886C853.393 101.672 856.8 102.84 860.16 104.496C878.001 113.286 888.016 129.096 894.312 147.391C897.794 148.246 900.813 149.388 904.006 151.018C928.823 163.684 942.378 190.102 950.529 215.587C954.715 218.225 958.066 221.492 961.019 225.461C969.485 236.841 973.332 251.823 976.634 265.443C985.575 302.323 988.678 336.086 983.346 373.79C980.173 396.23 974.345 417.944 967.458 439.503C952.06 487.704 937.015 522.247 895.415 553.412C887.912 559.033 880.645 563.445 871.799 566.68C846.265 576.016 810.144 580.882 783.111 584.407C736.828 590.441 685.264 595.432 638.58 595.733C590.912 595.987 543.267 593.597 495.864 588.576C462.94 585.073 430.17 580.251 397.633 574.121C381.563 571.189 365.816 567.167 349.62 564.842C349.372 572.168 348.552 580.534 345.061 587.107C342.243 592.412 338.191 594.982 332.57 596.666C332.033 600.528 330.958 603.784 329.304 607.277C332.628 610.867 337.613 615.574 338.074 620.668C338.292 623.073 337.473 625.062 335.867 626.818C331.029 632.108 333.539 633.379 326.64 638.185C326.826 640.46 326.965 642.75 326.657 645.022C325.452 653.885 319.274 660.93 312.348 666.051C309.062 684.526 313.738 704.185 321.473 720.99C323.869 726.195 327.462 731.806 328.443 737.485C328.593 738.355 328.756 738.416 328.199 739.149C327.118 740.574 312.374 747.471 310.192 747.828C308.824 747.55 308.114 746.864 307.313 745.77C303.717 740.857 301.529 733.429 299.694 727.674C292.279 704.413 294.721 680.719 300.126 657.348C301.462 651.572 303.643 645.8 304.61 639.987L304.244 640.53L304.675 640.28L304.539 641.101L303.915 641.267C300.403 649.466 298.783 658.301 295.629 666.601C294.107 670.605 291.801 674.142 287.711 675.851C281.094 678.615 272.982 676.086 266.65 673.655C271.353 683.283 275.695 692.843 279.47 702.879L286.046 703.46C288.331 707.75 291.327 711.738 292.78 716.405C291.796 718.61 290.658 720.354 289.227 722.278C293.895 729.943 300.834 737.406 303.919 745.816C306.255 752.184 312.694 758.68 316.881 764.161L340.478 795.244C349.166 806.483 360.279 819.125 366.372 831.909C368.893 837.177 370.298 842.908 370.498 848.745C370.878 859.064 367.921 870.098 365.926 880.208C361.626 901.459 356.983 922.64 352 943.741C350.226 951.536 348.156 964.708 345.548 971.602C345.048 972.924 344.326 973.878 343.349 974.899C343.206 975.048 343.054 975.189 342.906 975.334C342.722 979.55 345.718 984.259 347.991 987.663C354.66 987.307 365.704 982.07 371.467 983.404C372.964 983.75 374.407 985.178 375.163 986.477C375.88 987.709 376.014 989.018 375.592 990.379C373.238 997.973 358.93 1004.27 352.355 1007.76C346.379 1010.97 340.012 1013.44 333.698 1015.9C333.441 1017.88 333.047 1019.84 332.683 1021.8C330.99 1022.11 329.277 1022.31 327.557 1022.4C324.811 1022.55 320.721 1022.49 318.705 1020.27C314.534 1015.66 316.459 990.068 316.468 983.439C316.47 982.16 316.838 979.167 316.463 978.142C315.852 976.475 313.831 975.757 313.536 973.737C312.945 969.696 314.235 953.092 314.405 947.569C315.322 917.728 316.976 887.939 318.075 858.115C313.758 853.733 308.561 850.029 303.746 846.192C294.729 839.009 285.602 831.949 276.798 824.504C275.422 838.25 274.045 854.003 265.614 865.43C261.484 871.027 256.353 875.587 250.815 879.745C244.163 884.737 236.983 888.996 230.057 893.591C215.722 903.267 201.247 912.735 186.638 921.992C169.697 932.925 153.281 944.832 136.126 955.403C134.472 956.422 132.519 957.816 130.532 957.978C129.558 958.057 128.131 956.435 127.375 955.785C118.867 962.843 113.893 979.7 112.743 990.295C112.158 995.689 114.829 1007.38 110.717 1011.33C109.869 1012.15 108.498 1012.26 107.385 1012.09C103.36 1011.49 99.8241 1006.23 97.7751 1003.04C87.9986 987.811 87.5128 984.855 91.3071 967.613C90.5846 965.775 87.5024 966.932 86.0564 965.832C82.9899 963.5 80.7008 956.884 80.2335 953.186C80.0363 951.625 79.9302 948.982 81.1053 947.728C86.1109 942.385 107.99 942.016 114.095 933.818C114.129 933.58 114.16 933.343 114.196 933.106L114.343 932.191C114.574 930.675 115.018 929.81 116.123 928.752C123.043 922.128 131.584 916.404 139.018 910.287L192.026 866.58C200.591 859.534 209.618 852.872 217.837 845.432C213.271 829.684 208.812 813.905 204.461 798.097C204.178 798.321 203.891 798.542 203.602 798.759C197.079 803.611 188.904 806.098 180.793 804.688C176.179 803.885 169.874 801.184 167.277 797.032C165.895 794.823 165.01 791.791 164.28 789.299C160.725 777.172 158.08 764.651 155.113 752.366L145.048 712.023C141.841 698.635 137.038 683.483 135.202 669.996C134.423 664.279 135.161 657.896 136.753 652.372C138.073 647.792 139.997 643.465 143.307 639.948C147.543 635.447 168.986 622.994 175.37 619.499C169.664 617.977 164.238 615.878 159.301 612.591C149.359 605.972 142.545 595.208 140.306 583.516C138.318 573.275 140.534 562.665 146.455 554.075C152.514 545.328 160.468 540.748 170.801 538.821C171.634 535.193 172.602 532.643 175.443 530.03C180.025 525.815 186.684 524.272 192.779 524.6C200.078 524.993 207.472 528.278 212.218 533.903C217.639 540.329 218.021 547.32 217.226 555.251C220.413 557.763 225.433 560.162 226.36 564.448C226.96 567.224 226.077 569.248 224.604 571.542C227.955 576.475 232.246 581.011 235.06 586.279C236.519 589.011 237.553 592.05 236.542 595.122C234.736 600.606 227.563 603.551 222.852 606.054C225.258 610.685 227.979 615.057 230.817 619.427C241.475 619.233 250.545 620.357 260.386 624.631C268.165 614.125 278.424 605.019 287.785 595.965C292.958 590.962 298.113 585.362 303.756 580.903C305.515 579.514 307.475 578.477 309.451 577.437ZM226.856 628.962L225.969 629.106C223.587 629.51 221.279 630.278 218.894 630.71C211.16 632.074 203.332 632.831 195.48 632.971C193.466 636.047 188.339 642.199 188.116 645.724L189.372 645.268C205.055 636.786 213.726 637.17 230.381 634.458C228.905 633.55 227.387 632.862 226.614 631.234C226.6 630.353 226.585 629.813 226.856 628.962C231.997 630.069 238.266 630.729 242.635 633.755C246.281 633.547 251.857 634.709 255.156 633.507C256.671 632.954 256.741 631.769 257.26 630.404C257.045 630.197 256.855 629.96 256.614 629.783C251.511 626.026 236.293 625.415 230.064 625.611C229.064 626.94 228.183 627.954 226.856 628.962ZM582.465 14.2071C525.41 18.2163 449.316 69.0265 412.545 111.124L412.135 111.597C419.743 107.597 427.159 104.678 435.555 102.794C443.625 101.832 451.805 101.105 458.73 106.361C460.529 107.726 461.877 109.46 463.147 111.306C465.847 106.785 469.613 102.838 473.112 98.9231C496.599 72.6437 529.625 48.8737 561.368 33.7C570.303 29.4083 579.431 25.5303 588.723 22.0783C593.993 20.1261 599.573 18.5628 604.726 16.3686C597.45 14.1477 590.065 13.2504 582.465 14.2071ZM627.174 18.6949C575.103 24.1245 516.653 62.6819 480.618 99.4073C497.998 93.0076 514.621 87.5716 532.878 94.4668C541.964 98.4153 549.004 103.845 554.21 112.329C557.85 106.392 561.428 100.333 565.564 94.7271C591.254 59.9125 627.236 36.0949 668.961 25.1362C656.785 19.4191 640.556 16.5806 627.174 18.6949ZM686.617 29.199C640.216 33.9169 602.706 58.0422 573.592 93.662C568.377 99.9158 563.793 106.67 559.906 113.825C575.514 106.096 591.622 100.576 608.872 106.355C616.295 108.842 622.56 113.007 628.005 118.603C633.647 124.836 636.95 131.732 639.454 139.714C659.931 107.022 679.365 79.8701 713.426 59.8691C722.933 54.2869 732.851 49.4419 743.515 46.5033C726.669 32.297 709.006 27.0121 686.996 29.142C686.869 29.1543 686.743 29.18 686.617 29.199ZM756.496 49.6873C723.373 53.5136 688.999 80.9233 668.889 106.351C660.588 117.047 652.911 128.213 645.897 139.794C662.037 134.935 675.193 135.681 690.206 143.734C698.142 147.991 705.683 153.841 711.385 160.857C716.241 166.554 720.179 172.622 723.472 179.347C738.554 135.095 767.78 97.0352 806.64 71.0422C795.919 58.7328 782.973 50.579 766.358 49.5535C763.156 49.3559 759.684 49.3305 756.496 49.6873ZM813.105 74.9053C773.523 95.3952 743.169 140.781 728.094 181.765C746.666 179.817 761.064 182.312 776.038 194.363C781.476 198.741 786.214 203.806 790.486 209.312C797.267 219.243 800.235 227.717 801.457 239.659C822.928 204.451 838.464 166.768 843.803 125.636C844.666 118.99 846.435 110.672 844.755 104.048C842.251 94.1831 830.914 82.7585 822.184 77.8908C819.609 76.4553 816.077 74.7329 813.105 74.9053ZM512.449 97.2168C500.34 97.8625 478.448 103.618 470.001 112.741C466.535 116.485 464.765 123.228 462.961 127.99C474.087 124.916 485.256 121.969 496.757 120.671C516.1 118.113 532.413 118.347 551.745 119.826C545.614 109.226 538.789 102.058 526.633 98.8473C521.976 97.617 517.249 97.2598 512.449 97.2168ZM439.606 107.66C423.347 109.947 405.574 120.81 395.665 133.851C386.373 146.08 381.01 160.302 378.169 175.268C382.435 171.802 386.664 168.192 391.09 164.939C411.064 150.559 431.174 138.714 454.647 130.931C456.563 126.356 458.586 121.798 460.409 117.187C456.413 112.062 452.24 108.496 445.521 107.705C443.582 107.477 441.545 107.476 439.606 107.66ZM851.406 107.67C850.053 146.864 836.564 186.157 818.83 220.825C817.247 223.919 804.064 246.729 803.961 247.257C806.546 249.259 812.574 247.987 815.902 248.426C836.847 251.185 852.935 267.509 860.038 286.731C861.509 291.275 862.693 295.841 863.458 300.56C888.416 254.02 905.372 204.523 889.64 151.719C884.756 135.326 874.797 118.769 859.207 110.546C856.672 109.208 854.186 108.354 851.406 107.67ZM592.442 109.211C589.215 109.464 586.114 109.839 582.959 110.587C578.934 111.541 559.523 117.476 557.071 120.04C556.695 120.434 556.703 120.499 556.518 120.93L556.934 120.638L557.286 121.211C574.93 123.296 591.723 126.544 608.879 131.244C617.054 133.735 625.393 136.088 632.862 140.342L633.801 140.199C633.004 133.458 624.251 122.3 618.736 118.015C611.367 112.29 601.776 108.993 592.442 109.211ZM522.567 123.705C501.263 124.87 480.597 127.567 460.329 134.532C455.034 148.649 449.173 162.538 443.709 176.588C433.251 203.474 422.984 230.531 412.048 257.221C417.288 253.335 422.6 249.516 427.75 245.514C452.122 227.404 477.648 210.917 505.307 198.231C512.949 184.085 521.386 170.342 529.515 156.469C535.73 145.866 541.64 134.851 548.374 124.577C539.797 124.025 531.164 123.267 522.567 123.705ZM554.703 125.468C548.494 135.07 543.26 145.352 537.649 155.311L515.477 193.878C571.414 171.162 616.493 162.354 676.439 174.617C690.877 177.327 705.727 180.608 719.803 184.809C716.864 178.948 713.972 172.95 710.14 167.608C702.523 156.988 689.994 148.201 677.605 144.163C667.353 140.821 655.815 140.995 646.117 146.013C643.568 147.332 641.354 149.218 639.139 151.024C619.912 134.625 579.328 129.563 554.703 125.468ZM450.522 137.471C427.715 146.346 406.44 158.742 387.472 174.206C384.078 176.966 380.205 179.715 377.304 182.982C373.411 206.978 378.181 230.56 390.614 251.383C394.006 256.558 397.672 260.873 402.553 264.715C406.785 252.274 411.697 240.043 416.417 227.778L441.267 164.265C442.424 161.344 451.606 139.76 451.678 138.464C451.695 138.163 451.571 137.87 451.517 137.573L450.522 137.471ZM896.796 154.109C899.814 169.294 902.029 183.801 901.603 199.347C900.614 235.459 883.345 280.625 863.955 310.859C880.144 312.857 894.458 319.624 904.687 332.699C911.744 341.72 916.976 352.881 920.057 363.88C920.839 366.573 921.579 369.288 922.415 371.964C926.824 359.629 931.941 347.582 936.181 335.163C948.068 300.348 954.331 262.739 946.194 226.408C943.845 215.919 941.435 206.125 936.829 196.337C929.296 180.33 915.241 160.117 897.527 154.326C897.285 154.247 897.04 154.181 896.796 154.109ZM606.668 174.704C580.735 176.902 556.1 183.378 531.774 192.506C525.259 194.95 518.426 197.372 512.247 200.573C503.952 213.439 497.145 227.653 489.667 241.031C472.172 271.766 455.527 302.976 439.749 334.625C445.043 336.637 449.982 337.73 455.57 338.535C470.322 316.59 488.565 297.116 508.32 279.603C562.48 232.436 631.53 200.024 703.553 194.413C713.662 193.625 723.84 193.861 733.968 194.014C727.601 191.444 720.358 190.243 713.692 188.493C684.52 180.836 656.12 174.868 625.858 174.321C619.611 174.207 612.849 173.921 606.668 174.704ZM730.989 186.73L730.389 187.275C735.778 189.915 742.565 190.551 748.272 192.906C751.419 194.205 755.014 194.487 758.342 195.109C765.019 196.358 771.374 199.645 776.974 203.396L777.118 202.897C766.576 192.425 753.983 186.283 739.001 186.292C736.336 186.293 733.634 186.394 730.989 186.73ZM715.155 198.724C642.9 201.734 574.346 231.408 519.499 278.044C510.324 285.845 501.167 293.777 493.005 302.651C481.968 314.654 462.133 336.491 455.716 351.136C459.388 368.916 467.238 381.36 482.535 391.451C485.041 393.104 487.643 394.602 490.252 396.083C499.053 400.63 508.174 404.528 517.543 407.744C521.192 399.11 524.817 390.502 529.508 382.366C564.254 322.102 632.428 269.655 689.246 230.993L716.062 212.859C722.919 208.248 729.77 203.347 737.155 199.605C729.846 198.862 722.499 198.568 715.155 198.724ZM752.846 201.45C752.834 201.769 752.816 202.088 752.809 202.408C752.748 205.068 753.596 208.033 754.074 210.651C755.125 216.405 756.2 222.098 756.245 227.971C756.48 258.364 745.243 288.952 734.243 316.834C740.028 312.348 745.496 307.474 751.014 302.669C758.297 296.278 765.481 289.776 772.564 283.165C777.226 278.819 781.756 274.213 786.636 270.118C783.669 248.81 778.22 230.382 764.459 213.358C761.048 209.138 757.178 204.746 752.846 201.45ZM760.305 201.289C778.056 220.956 787.947 239.175 790.824 265.878C793.606 263.266 796.47 260.705 799.162 258.003C800.738 256.619 802.264 255.27 804.012 254.102C801.651 254.015 798.501 254.362 796.766 252.455C795.12 250.646 795.201 248.179 795.554 245.931C796.047 242.794 796.54 239.547 797.353 236.479C792.288 222.552 779.775 209.829 766.471 203.546C764.449 202.591 762.473 201.861 760.305 201.289ZM747.253 201.895C741.869 209.122 737.604 217.517 732.996 225.264C722.028 243.703 711.438 262.529 699.761 280.521C677.588 314.413 653.431 346.966 627.416 378.008C616.603 390.681 604.918 402.407 593.887 414.84C593.485 415.293 593.297 415.659 593.131 416.238C593.709 415.973 594.219 415.748 594.74 415.378C602.98 409.545 611.581 404.25 619.993 398.672L664.439 368.624C685.596 354.064 705.92 338.37 726.467 322.978C729.265 315.183 732.64 307.617 735.575 299.873C745.08 274.787 753.057 247.341 750.787 220.257C750.351 215.057 749.899 208.051 748.001 203.215C747.84 202.805 747.575 202.233 747.253 201.895ZM738.983 204.087C733.106 206.665 727.699 210.796 722.346 214.33C712.858 220.561 703.434 226.89 694.078 233.316C639.9 270.692 580.712 314.754 543.395 369.764C536.445 380.009 530.052 390.485 525.492 402.048C523.896 406.085 522.58 410.227 521.555 414.444C523.986 424.173 527.197 432.933 531.877 441.841C533.942 445.145 536.135 448.201 538.566 451.245C547.848 444.533 557.745 438.71 567.297 432.393C571.147 429.847 575.29 427.392 578.765 424.348C588.809 415.547 599.549 402.448 608.614 392.289C659.19 334.957 703.022 272.01 739.248 204.684L738.983 204.087ZM500.746 205.49C480.989 216.03 461.864 227.071 443.511 239.958C432.337 247.803 421.926 257.219 410.324 264.375C405.031 281.786 400.663 293.769 410.052 311.117C411.869 314.473 414.065 317.359 416.701 320.108C421.873 324.926 427.615 328.275 433.827 331.585C444.518 310.577 455.438 289.686 466.584 268.916L501.24 206.281C500.92 205.557 501.148 205.768 500.746 205.49ZM371.208 219.399L349.73 424.786L344.563 480.688C343.81 489.048 342.081 498.004 342.594 506.368C342.601 506.486 342.604 506.605 342.61 506.724C344.272 499.09 346.162 491.433 347.602 483.758C359.428 428.697 372.652 373.944 387.26 319.555C391.567 303.233 396.142 286.982 400.982 270.81C386.752 261.045 378.637 245.928 374.035 229.498C373.23 226.624 372.912 221.658 371.208 219.399ZM951.832 223.721C953.699 234.093 955.55 244.386 955.971 254.942C957.157 284.698 948.943 316.533 938.826 344.314C934.659 355.757 929.354 367.053 925.656 378.605C941.254 384.99 951.375 393.782 957.983 409.545C958.965 411.881 959.891 414.241 960.758 416.623L964.917 428.045C981.672 375.705 985.067 330.562 973.319 276.799C970.203 262.536 966.394 247.109 959.704 234.048C958.145 231.004 954.966 225.204 951.832 223.721ZM809.517 255.323C803.75 262.242 797.073 268 790.885 274.48C792.347 331.288 775.716 392.847 746.867 441.752C757.651 438.187 768.412 434.553 779.15 430.851L849.419 405.345C856.476 364.775 853.019 307.065 828.91 272.507C825.547 267.687 817.367 256.425 811.095 255.447C810.499 255.354 810.158 255.357 809.517 255.323ZM820.278 255.365C846.762 279.091 854.969 320.397 856.836 354.505C857.745 371.106 857.015 387.333 854.243 403.735L899.326 386.021C905.446 383.529 911.552 380.911 917.763 378.657C913.312 359.057 905.111 335.169 886.963 324.006C878.378 318.725 868.589 317.896 859.078 315.481C858.255 315.272 857.507 315.245 857.351 314.315C857.006 312.255 858.317 309.787 859.152 307.958C855.705 288.805 850.01 272.61 833.313 261.02C829.771 258.561 824.625 255.732 820.278 255.365ZM785.836 279.364C773.891 290.912 761.551 302.045 748.839 312.742C742.59 318.078 734.759 323.077 729.43 329.257C724.531 334.938 718.403 350.631 714.277 358.167C703.837 377.567 692.471 396.453 680.216 414.761C669.611 430.552 657.809 446.117 645.4 460.53C642.083 464.383 638.63 468.115 635.047 471.721C632.783 474.022 630.078 476.18 628.24 478.835L628.273 479.631C643.958 476.095 659.574 470.474 674.924 465.659C696.563 458.873 718.434 452.415 739.695 444.512C744.057 437.197 748.442 429.929 752.227 422.294C770.151 386.138 783.288 341.036 785.675 300.702C786.015 294.955 787.306 285.261 786 279.876C785.958 279.702 785.89 279.535 785.836 279.364ZM399.278 301.387C392.762 322.272 387.649 343.544 382.423 364.78L359.621 461.461L350.275 502.938C348.933 508.932 348.018 515.945 346.011 521.712C345.972 521.824 345.628 522.541 345.571 522.661L346.01 523.014L345.876 522.449L345.772 523.972C346.184 523.126 346.271 522.774 346.466 521.897C348.107 514.533 352.192 507.218 354.868 500.13C366.986 471.693 379.659 443.496 392.877 415.553C396.79 407.216 401.164 399.099 405.129 390.785C413.622 372.973 421.278 354.162 431.144 337.065C414.753 328.775 406.197 322.057 400.229 304.022C399.933 303.127 399.722 302.221 399.278 301.387ZM718.511 337.54C703.616 348.383 689.021 359.677 673.9 370.199C630.818 400.177 586.572 428.044 542.26 456.129C546.978 461.61 552.056 466.471 558.025 470.576C576.387 482.798 595.058 487.023 616.904 482.553C617.486 482.433 618.067 482.3 618.644 482.154C655.093 445.368 686.282 400.463 710.279 354.732C712.153 351.161 718.404 341.044 718.684 337.734L718.511 337.54ZM436.757 340.056C427.099 357.245 352.177 517.015 353.549 522.348C355.106 519.622 356.549 516.864 357.953 514.057C376.911 478.333 396.265 442.821 416.01 407.525C427.733 386.506 439.048 365.183 451.684 344.703C446.619 343.458 441.634 341.906 436.757 340.056ZM450.712 358.856C431.974 389.881 415.48 422.508 397.947 454.242C385.466 476.691 373.306 499.317 361.469 522.113C357.362 530 352.446 537.745 348.841 545.844C347.579 548.679 346.86 551.403 346.375 554.474L349.546 558.254C367.44 549.753 385.409 541.131 403.142 532.296C419.297 524.086 435.316 515.687 450.844 506.327C466.416 496.941 481.494 486.622 496.836 476.854C509.076 469.06 521.605 461.767 533.781 453.865C523.705 443.394 517.119 427.239 516.018 412.821C494.152 406.204 468.443 395.431 457.205 374.008C455.709 371.155 452.18 360.309 450.712 358.856ZM919.917 383.965C898.541 394.383 875.313 401.287 853.384 410.461C850.73 420.437 847.982 430.327 844.493 440.047C831.702 475.679 805.303 530.006 773.792 552.347L787.878 561.82C794.866 565.88 801.827 569.986 808.761 574.137C829.923 570.94 852.267 566.983 872.582 560.164C897.93 523.762 914.716 455.67 919.53 411.614C920.324 404.344 921.818 392.503 920.652 385.47C920.529 384.733 920.479 384.412 919.917 383.965ZM925.033 383.817C927.288 432.662 906.277 511.081 883.525 554.196C890.962 549.079 898.281 543.864 905.031 537.85C930.372 515.363 943.388 490.55 954.362 459.18C956.453 453.204 960.009 446.001 960.599 439.72C960.906 436.451 959.605 432.877 958.726 429.751C955.408 417.937 951.284 405.335 942.913 396.048C938.007 390.605 931.783 386.588 925.033 383.817ZM846.323 413.005C812.067 427.234 776.413 438.088 741.833 451.487C735.654 459.02 730.751 467.907 725.455 476.1C717.74 488.036 709.182 499.36 700.729 510.777C696.628 516.317 692.715 522.511 688.002 527.497C691.887 534.751 696.796 540.245 703.464 545.117C717.859 554.74 733.284 559.704 750.596 556.355C776.614 551.323 792.032 529.184 805.895 508.487C820.696 486.388 837.052 450.123 844.445 424.306C845.468 420.736 846.842 417.178 847.359 413.498L846.951 413.005L846.323 413.005ZM733.443 454.135C720.914 457.13 708.501 461.825 696.236 465.791C671.397 473.824 646.598 481.961 621.352 488.626C623.602 497.515 628.326 504.944 635.033 511.195C645.811 520.128 659.259 525.854 673.504 524.47C683.575 523.491 687.02 519.895 693.194 512.286C697.84 506.559 733.335 457.994 733.443 454.135ZM537.166 459.523C488.28 489.583 441.146 523.278 388.067 545.796C402.278 542.989 416.571 538.245 430.574 534.407C444.559 530.558 458.519 526.62 472.454 522.592C486.748 518.328 500.932 513.705 515.302 509.697C540.12 502.988 565.016 496.572 589.986 490.45C568.485 487.173 551.64 475.19 537.166 459.523ZM614.244 490.505C603.654 493.724 592.864 496.033 582.151 498.784C561.567 504.043 541.032 509.487 520.547 515.117C493.122 522.713 465.956 531.201 438.568 538.927C416.747 545.083 394.559 550.631 372.497 555.864C378.951 556.198 385.492 555.627 391.949 555.351C402.813 554.887 413.731 554.446 424.606 554.443C452.672 553.601 480.778 553.52 508.822 552.065C547.4 550.132 585.824 545.833 623.875 539.192C637.907 536.773 652.289 534.459 666.1 531.052C648.559 526.668 631.658 519.98 621.817 503.749C620.478 501.54 616.112 491.151 614.767 490.468L614.244 490.505ZM682.803 535.171C665.144 537.921 647.613 541.832 629.994 544.898C600.745 550.125 571.258 553.924 541.639 556.283C501.109 559.556 460.287 559.883 419.65 561.073C405.848 561.477 391.989 561.512 378.21 562.442C407.553 569.723 440.31 574.817 470.342 578.613C482.897 580.2 495.798 580.857 508.262 582.859C590.327 591.305 673.07 590.758 755.017 581.227C769.435 579.477 784.379 578.35 798.605 575.441C788.348 569.19 777.912 563.455 768.684 555.667C755.457 563.86 740.082 565.206 725.092 561.691C712.122 558.65 701.015 551.486 691.821 541.99C689.912 540.018 687.567 536.652 685.385 535.157C684.751 534.723 683.479 535.036 682.803 535.171ZM321.379 555.134C318.446 556.198 317.145 557.608 315.848 560.445C314.474 563.45 313.909 566.978 313.188 570.188C314.429 573.763 315.56 577.272 316.392 580.965C318.661 577.165 320.094 576.176 324.332 575.1C324.762 574.992 325.194 574.888 325.626 574.787C327.573 575.08 330.086 575.802 331.947 575.056C334.315 572.003 338.034 561.265 337.606 557.604C333.331 555.319 326.165 555.142 321.379 555.134ZM211.005 557.388C210.377 557.911 209.153 558.582 209.116 559.418C209.079 560.275 209.263 560.814 209.471 561.626C210.142 564.245 210.535 567.794 208.945 570.167C207.75 571.95 205.198 573.389 203.095 573.689C201.611 573.901 200.378 573.375 199.28 572.439C198.159 571.484 197.114 570.396 196.068 569.359L195.141 569.484C193.926 571.542 193.943 574.243 194.593 576.507C195.159 578.475 196.131 579.784 197.954 580.769C203.786 583.918 215.946 576.563 218.823 582.903C218.592 585.127 216.901 587.404 215.142 588.751C213.914 589.692 212.434 590.46 211.062 591.17C212.647 596.452 210.994 602.336 208.5 607.127C204.925 613.992 199.629 617.193 192.495 619.445L194.65 623.129L197.084 626.598C206.54 626.53 216.145 626.127 224.926 622.285C221.401 616.406 217.262 610.444 215.011 603.936C220.679 600.609 226.595 597.388 231.613 593.106C227.897 585.334 221.605 579.897 217.402 572.597C218.402 570.019 219.47 567.505 220.636 564.998C217.466 562.597 213.906 560.395 211.184 557.513C211.134 557.46 211.065 557.43 211.005 557.388ZM343.186 561.338C342.313 563.948 338.918 571.746 340.022 574.011C340.103 574.179 340.206 574.335 340.298 574.496C341.105 574.44 342.084 574.668 342.604 573.968C344.408 571.54 344 564.732 343.34 561.864C343.299 561.686 343.238 561.514 343.186 561.338ZM325.546 581.05C324.131 582.097 322.645 583.105 321.387 584.34C325.809 585.575 329.954 586.746 334.02 588.932C335.235 588.408 335.891 588.414 336.524 587.189C335.451 584.479 331.345 583.006 328.829 581.925C327.758 581.464 326.698 581.196 325.546 581.05ZM310.588 583.932C298.605 591.93 278.201 612.985 268.689 624.147C264.951 628.533 262.714 637.122 257.658 639.644C254.993 640.974 249.276 640.207 246.22 640.266C225.92 640.654 198.793 641.226 183.862 657.045C180.749 660.343 178.727 664.375 177.775 668.798C176.301 675.65 177.867 681.97 181.715 687.721C190.774 701.261 203.671 709.476 212.284 725.532C214.199 729.103 216.836 736.398 221.17 737.25C228.876 738.767 242.894 733.45 250.023 730.495C262.589 724.572 266.147 718.122 273.981 707.499C270.287 695.865 265.804 684.414 259.322 674.018C252.839 676.966 223.147 692.362 217.818 690.465C217.04 690.189 216.703 688.964 216.349 688.251C216.672 686.811 217.257 686.119 218.506 685.311C223.412 682.139 230.358 680.691 235.844 678.506C244.996 674.862 254.748 669.856 263.035 664.515C264.983 663.259 266.882 661.849 268.417 660.103C271.506 656.591 274.109 652.477 276.989 648.768C283.528 640.345 310.437 607.737 312.423 600.438C313.089 597.988 312.946 595.222 313.234 592.713C313.484 590.532 314.133 588.336 314.673 586.209L310.588 583.932ZM315.755 610.323C312.024 614.874 308.497 619.531 305.021 624.279C305.963 627.686 306.608 630.429 309.886 632.348C311.833 633.488 313.646 633.8 315.836 633.345L316.888 632.516L316.732 631.735C315.728 631.323 314.76 630.935 313.716 630.632C313.237 629.452 313.034 628.67 313.037 627.395C313.698 626.364 314.075 625.849 315.323 625.562C317.119 625.148 319.546 625.646 321.08 624.564C320.534 622.662 319.405 620.937 319.689 618.979C321.64 616.869 326.509 616.323 327.507 614.516C326.556 612.896 325.488 612.36 323.696 611.87C321.089 611.157 318.378 610.954 315.755 610.323ZM180.955 620.891C167.211 641.15 159.62 656.43 164.601 681.873C166.235 690.219 168.78 698.452 170.822 706.709C174.241 720.525 177.337 734.41 180.843 748.21C182.97 756.579 185.218 764.922 187.279 773.308C188.581 778.605 189.55 784.103 191.213 789.29C192.014 791.787 193.024 794.122 194.469 796.314C195.828 796.692 196.444 796.612 197.722 795.958C202.104 793.715 206.84 788.418 209.904 784.658C213.28 780.544 216.885 776.296 219.338 771.542C218.314 761.185 217.643 750.859 213.557 741.152C209.083 730.523 202.241 720.619 194.864 711.802C184.298 699.175 168.463 687.662 171.402 668.955C173.121 658.01 184.882 638.846 191.078 629.315C189.642 626.627 187.857 621.954 184.528 621.168C183.392 620.899 182.118 620.932 180.955 620.891ZM299.428 631.448C290.739 643.612 279.549 656.724 269.614 667.956C270.123 668.846 270.209 668.707 271.108 669.072C275.463 670.092 281.825 671.937 285.962 669.451C290.897 666.485 298.518 638.92 299.381 632.193C299.412 631.946 299.413 631.696 299.428 631.448ZM165.323 632.48C157.203 641.414 151.747 651.206 152.281 663.611C152.557 670.042 154.672 675.846 157.354 681.628L158.412 682.716L158.815 682.391C156.141 667.463 157.022 653.698 162.952 639.617C163.513 638.285 166.042 633.545 165.323 632.48ZM318.713 638.726C315.758 643.887 314.203 650.319 313.201 656.155L313.512 657.142C313.811 657.063 314.147 657.049 314.398 656.868C317.62 653.12 321.493 647.756 321.031 642.554C320.888 640.937 319.971 639.699 318.713 638.726ZM151.301 640.915C145.383 645.166 142.521 652.19 141.406 659.21C140.674 663.819 141.138 668.225 141.93 672.798C143.094 679.527 145.229 686.119 146.829 692.761C149.629 704.381 152.188 716.048 155.07 727.653L165.589 769.173C167.064 775.036 168.161 781.057 169.854 786.853C170.508 789.092 171.239 791.692 172.63 793.581C175.119 796.962 179.374 797.938 183.27 798.598C184.74 798.563 186.994 798.84 188.159 798.009C183.652 786.365 181.052 773.759 178.012 761.645C174.698 748.438 171.154 735.27 167.928 722.046C165.252 711.076 162.993 699.954 159.997 689.067C156.109 688.386 153.736 686.739 151.449 683.48C146.457 676.364 145.168 664.225 146.877 655.846C147.474 652.92 151.777 642.673 151.301 640.915ZM309.756 643.376C306.873 650.802 305.522 658.756 304.123 666.571C299.16 694.303 299.783 714.806 311.089 740.925L317.366 738.208C319.029 737.603 320.698 737.013 322.371 736.439C309.599 711.978 302.76 690.32 306.23 662.463C306.905 657.049 310.155 648.307 309.756 643.376ZM278.36 711.31C267.583 728.122 257.59 736.777 237.496 741.123C235.242 741.61 222.522 743.463 221.778 744.279C222.347 745.313 222.542 745.427 223.565 746.04C240.831 745.304 261.265 736.778 273.086 723.959C275.429 721.419 279.345 717.103 280.035 713.76C279.606 712.47 279.365 712.248 278.36 711.31ZM285.319 727.619C282.757 730.82 280.53 734.147 277.649 737.089C265.615 749.378 248.585 757.031 231.564 758.887C229.202 759.145 226.808 759.251 224.435 759.345C224.47 762.217 224.29 765.386 224.917 768.196C226.698 776.166 232.98 784.691 238.762 790.297C240.092 791.586 241.552 792.748 242.997 793.903C245.528 795.401 247.903 796.672 250.673 797.679C269.094 792.496 284.027 778.999 293.31 762.555C295.718 758.235 297.858 753.771 299.72 749.189C296.849 744.843 288.226 730.345 285.319 727.619ZM303.111 756.735C291.685 778.709 279.95 793.043 256.433 802.458C262.806 806.897 269.347 811.158 275.569 815.803C284.75 822.656 293.473 830.206 302.413 837.373C308.815 842.506 315.926 847.37 321.742 853.141C322.651 854.042 323.65 854.968 323.92 856.259C324.995 861.395 323.604 870.419 323.363 875.864L321.173 924.049C320.514 938.217 320.739 952.633 319.576 966.748L319.488 972.658C326.145 971.892 333.024 970.698 339.707 970.399C345.154 943.834 351.938 917.472 357.635 890.935C360.521 877.49 365.262 861.826 364.365 848.058C363.842 840.027 360.73 833.731 356.381 827.099C344.747 809.357 331.065 792.439 318.1 775.639C313.405 769.555 308.74 761.945 303.111 756.735ZM222.023 778.853C218.292 784.207 213.983 788.875 209.841 793.893C214.918 811.343 220.263 829.575 224.174 847.301C214.16 857.566 201.607 866.153 190.533 875.304C167.432 894.395 144.48 913.546 120.847 931.988C127.144 937.399 130.414 942.642 133.748 950.146C138.288 947.142 142.931 944.227 147.298 940.974C166.945 927.602 186.78 914.506 206.795 901.69L228.432 887.614C238.268 881.279 248.784 875.164 256.823 866.538C262.803 860.121 266.085 853.616 267.683 844.984C269.197 836.798 269.795 828.449 271.35 820.274C260.776 810.932 246.961 805.093 236.183 796.014C231.94 792.44 223.731 779.902 222.023 778.853ZM118.916 938.441C108.144 944.363 98.6548 948.233 86.5303 950.452C86.8585 952.514 86.9804 955.018 88.0293 956.838C88.4587 956.244 88.7031 955.758 89.03 955.105C89.8477 953.472 91.1367 952.693 92.8555 952.206C94.2377 952.435 94.8281 952.433 95.7122 953.669C96.7229 955.081 96.8872 957.347 97.1072 959.041C98.5511 970.163 95.3359 973.569 94.7502 983.194C96.2172 986.381 97.6435 989.591 99.2803 992.696C101.993 997.488 104.84 1002.2 107.818 1006.84C104.958 987.091 108.112 971.738 120.325 955.485C122.12 953.096 124.173 951.002 126.303 948.915C124.303 945.417 122.249 940.789 118.916 938.441ZM336.456 976.206C331.847 976.982 327.208 977.916 322.555 978.355C322.548 989.58 322.042 1000.73 321.84 1011.94C331.534 1010.06 340.929 1006.88 349.77 1002.49C356.504 999.179 363.136 995.035 369.207 990.624L369.112 990.2C361.162 989.724 353.478 993.399 345.224 992.98C339.437 987.771 337.033 976.704 336.456 976.206Z"/>
	<path fill="#9F8BE8" d="M412.135 111.597L412.545 111.124C449.316 69.0265 525.41 18.2163 582.465 14.2071C590.065 13.2504 597.45 14.1477 604.726 16.3686C599.573 18.5628 593.993 20.1261 588.723 22.0783C579.431 25.5303 570.303 29.4083 561.368 33.7C529.625 48.8737 496.599 72.6437 473.112 98.9231C469.613 102.838 465.847 106.785 463.147 111.306C461.877 109.46 460.529 107.726 458.73 106.361C451.805 101.105 443.625 101.832 435.555 102.794C427.159 104.678 419.743 107.597 412.135 111.597Z"/>
	<path fill="#FEFEFE" d="M480.618 99.4073C516.653 62.6819 575.103 24.1245 627.174 18.6949C640.556 16.5806 656.785 19.4191 668.961 25.1362C627.236 36.0949 591.254 59.9125 565.564 94.7271C561.428 100.333 557.85 106.392 554.21 112.329C549.004 103.845 541.964 98.4153 532.878 94.4668C514.621 87.5716 497.998 93.0076 480.618 99.4073Z"/>
	<path fill="#9F8BE8" d="M559.906 113.825C563.793 106.67 568.377 99.9158 573.592 93.662C602.706 58.0422 640.216 33.9169 686.617 29.199C686.743 29.18 686.869 29.1543 686.996 29.142C709.006 27.0121 726.669 32.297 743.515 46.5033C732.851 49.4419 722.933 54.2869 713.426 59.8691C679.365 79.8701 659.931 107.022 639.454 139.714C636.95 131.732 633.647 124.836 628.005 118.603C622.56 113.007 616.295 108.842 608.872 106.355C591.622 100.576 575.514 106.096 559.906 113.825Z"/>
	<path fill="#FEFEFE" d="M645.897 139.794C652.911 128.213 660.588 117.047 668.889 106.351C688.999 80.9233 723.373 53.5136 756.496 49.6873C759.684 49.3305 763.156 49.3559 766.358 49.5535C782.973 50.579 795.919 58.7328 806.64 71.0422C767.78 97.0352 738.554 135.095 723.472 179.347C720.179 172.622 716.241 166.554 711.385 160.857C705.683 153.841 698.142 147.991 690.206 143.734C675.193 135.681 662.037 134.935 645.897 139.794Z"/>
	<path fill="#9F8BE8" d="M728.094 181.765C743.169 140.781 773.523 95.3952 813.105 74.9053C816.077 74.7329 819.609 76.4553 822.184 77.8908C830.914 82.7585 842.251 94.1831 844.755 104.048C846.435 110.672 844.666 118.99 843.803 125.636C838.464 166.768 822.928 204.451 801.457 239.659C800.235 227.717 797.267 219.243 790.486 209.312C786.214 203.806 781.476 198.741 776.038 194.363C761.064 182.312 746.666 179.817 728.094 181.765Z"/>
	<path fill="#9F8BE8" d="M462.961 127.99C464.765 123.228 466.535 116.485 470.001 112.741C478.448 103.618 500.34 97.8625 512.449 97.2168C517.249 97.2598 521.976 97.617 526.633 98.8473C538.789 102.058 545.614 109.226 551.745 119.826C532.413 118.347 516.1 118.113 496.757 120.671C485.256 121.969 474.087 124.916 462.961 127.99Z"/>
	<path fill="#9F8BE8" d="M378.169 175.268C381.01 160.302 386.373 146.08 395.665 133.851C405.574 120.81 423.347 109.947 439.606 107.66C441.545 107.476 443.582 107.477 445.521 107.705C452.24 108.496 456.413 112.062 460.409 117.187C458.586 121.798 456.563 126.356 454.647 130.931C431.174 138.714 411.064 150.559 391.09 164.939C386.664 168.192 382.435 171.802 378.169 175.268Z"/>
	<path fill="#FEFEFE" d="M860.038 286.731C852.935 267.509 836.847 251.185 815.902 248.426C812.574 247.987 806.546 249.259 803.961 247.257C804.064 246.729 817.247 223.919 818.83 220.825C836.564 186.157 850.053 146.864 851.406 107.67C854.186 108.354 856.672 109.208 859.207 110.546C874.797 118.769 884.756 135.326 889.64 151.719C905.372 204.523 888.416 254.02 863.458 300.56C862.693 295.841 861.509 291.275 860.038 286.731Z"/>
	<path fill="#9F8BE8" d="M608.879 131.244C591.723 126.544 574.93 123.296 557.286 121.211L556.934 120.638L556.518 120.93C556.703 120.499 556.695 120.434 557.071 120.04C559.523 117.476 578.934 111.541 582.959 110.587C586.114 109.839 589.215 109.464 592.442 109.211C601.776 108.993 611.367 112.29 618.736 118.015C624.251 122.3 633.004 133.458 633.801 140.199L632.862 140.342C625.393 136.088 617.054 133.735 608.879 131.244Z"/>
	<path fill="#686868" d="M460.329 134.532C480.597 127.567 501.263 124.87 522.567 123.705C531.164 123.267 539.797 124.025 548.374 124.577C541.64 134.851 535.73 145.866 529.515 156.469C521.386 170.342 512.949 184.085 505.307 198.231C477.648 210.917 452.122 227.404 427.75 245.514C422.6 249.516 417.288 253.335 412.048 257.221C422.984 230.531 433.251 203.474 443.709 176.588C449.173 162.538 455.034 148.649 460.329 134.532Z"/>
	<path fill="#686868" d="M515.477 193.878L537.649 155.311C543.26 145.352 548.494 135.07 554.703 125.468C579.328 129.563 619.912 134.625 639.139 151.024C641.354 149.218 643.568 147.332 646.117 146.013C655.815 140.995 667.353 140.821 677.605 144.163C689.994 148.201 702.523 156.988 710.14 167.608C713.972 172.95 716.864 178.948 719.803 184.809C705.727 180.608 690.877 177.327 676.439 174.617C616.493 162.354 571.414 171.162 515.477 193.878Z"/>
	<path fill="#686868" d="M377.304 182.982C380.205 179.715 384.078 176.966 387.472 174.206C406.44 158.742 427.715 146.346 450.522 137.471L451.517 137.573C451.571 137.87 451.695 138.163 451.678 138.464C451.606 139.76 442.424 161.344 441.267 164.265L416.417 227.778C411.697 240.043 406.785 252.274 402.553 264.715C397.672 260.873 394.006 256.558 390.614 251.383C378.181 230.56 373.411 206.978 377.304 182.982Z"/>
	<path fill="#9F8BE8" d="M863.955 310.859C883.345 280.625 900.614 235.459 901.603 199.347C902.029 183.801 899.814 169.294 896.796 154.109C897.04 154.181 897.285 154.247 897.527 154.326C915.241 160.117 929.296 180.33 936.829 196.337C941.435 206.125 943.845 215.919 946.194 226.408C954.331 262.739 948.068 300.348 936.181 335.163C931.941 347.582 926.824 359.629 922.415 371.964C921.579 369.288 920.839 366.573 920.057 363.88C916.976 352.881 911.744 341.72 904.687 332.699C894.458 319.624 880.144 312.857 863.955 310.859Z"/>
	<path fill="#9F8BE8" d="M512.247 200.573C518.426 197.372 525.259 194.95 531.774 192.506C556.1 183.378 580.735 176.902 606.668 174.704C612.849 173.921 619.611 174.207 625.858 174.321C656.12 174.868 684.52 180.836 713.692 188.493C720.358 190.243 727.601 191.444 733.968 194.014C723.84 193.861 713.662 193.625 703.553 194.413C631.53 200.024 562.48 232.436 508.32 279.603C488.565 297.116 470.322 316.59 455.57 338.535C449.982 337.73 445.043 336.637 439.749 334.625C455.527 302.976 472.172 271.766 489.667 241.031C497.145 227.653 503.952 213.439 512.247 200.573Z"/>
	<path fill="#686868" d="M776.974 203.396C771.374 199.645 765.019 196.358 758.342 195.109C755.014 194.487 751.419 194.205 748.272 192.906C742.565 190.551 735.778 189.915 730.389 187.275L730.989 186.73C733.634 186.394 736.336 186.293 739.001 186.292C753.983 186.283 766.576 192.425 777.118 202.897L776.974 203.396Z"/>
	<path fill="#686868" d="M455.716 351.136C462.133 336.491 481.968 314.654 493.005 302.651C501.167 293.777 510.324 285.845 519.499 278.044C574.346 231.408 642.9 201.734 715.155 198.724C722.499 198.568 729.846 198.862 737.155 199.605C729.77 203.347 722.919 208.248 716.062 212.859L689.246 230.993C632.428 269.655 564.254 322.102 529.508 382.366C524.817 390.502 521.192 399.11 517.543 407.744C508.174 404.528 499.053 400.63 490.252 396.083C487.643 394.602 485.041 393.104 482.535 391.451C467.238 381.36 459.388 368.916 455.716 351.136Z"/>
	<path fill="#9F8BE8" d="M734.243 316.834C745.243 288.952 756.48 258.364 756.245 227.971C756.2 222.098 755.125 216.405 754.074 210.651C753.596 208.033 752.748 205.068 752.809 202.408C752.816 202.088 752.834 201.769 752.846 201.45C757.178 204.746 761.048 209.138 764.459 213.358C778.22 230.382 783.669 248.81 786.636 270.118C781.756 274.213 777.226 278.819 772.564 283.165C765.481 289.776 758.297 296.278 751.014 302.669C745.496 307.474 740.028 312.348 734.243 316.834Z"/>
	<path fill="#686868" d="M790.824 265.878C787.947 239.175 778.056 220.956 760.305 201.289C762.473 201.861 764.449 202.591 766.471 203.546C779.775 209.829 792.288 222.552 797.353 236.479C796.54 239.547 796.047 242.794 795.554 245.931C795.201 248.179 795.12 250.646 796.766 252.455C798.501 254.362 801.651 254.015 804.012 254.102C802.264 255.27 800.738 256.619 799.162 258.003C796.47 260.705 793.606 263.266 790.824 265.878Z"/>
	<path fill="#686868" d="M594.74 415.378C594.219 415.748 593.709 415.973 593.131 416.238C593.297 415.659 593.485 415.293 593.887 414.84C604.918 402.407 616.603 390.681 627.416 378.008C653.431 346.966 677.588 314.413 699.761 280.521C711.438 262.529 722.028 243.703 732.996 225.264C737.604 217.517 741.869 209.122 747.253 201.895C747.575 202.233 747.84 202.805 748.001 203.215C749.899 208.051 750.351 215.057 750.787 220.257C753.057 247.341 745.08 274.787 735.575 299.873C732.64 307.617 729.265 315.183 726.467 322.978C705.92 338.37 685.596 354.064 664.439 368.624L619.993 398.672C611.581 404.25 602.98 409.545 594.74 415.378Z"/>
	<path fill="#9F8BE8" d="M521.555 414.444C522.58 410.227 523.896 406.085 525.492 402.048C530.052 390.485 536.445 380.009 543.395 369.764C580.712 314.754 639.9 270.692 694.078 233.316C703.434 226.89 712.858 220.561 722.346 214.33C727.699 210.796 733.106 206.665 738.983 204.087L739.248 204.684C703.022 272.01 659.19 334.957 608.614 392.289C599.549 402.448 588.809 415.547 578.765 424.348C575.29 427.392 571.147 429.847 567.297 432.393C557.745 438.71 547.848 444.533 538.566 451.245C536.135 448.201 533.942 445.145 531.877 441.841C527.197 432.933 523.986 424.173 521.555 414.444Z"/>
	<path fill="#9F8BE8" d="M410.324 264.375C421.926 257.219 432.337 247.803 443.511 239.958C461.864 227.071 480.989 216.03 500.746 205.49C501.148 205.768 500.92 205.557 501.24 206.281L466.584 268.916C455.438 289.686 444.518 310.577 433.827 331.585C427.615 328.275 421.873 324.926 416.701 320.108C414.065 317.359 411.869 314.473 410.052 311.117C400.663 293.769 405.031 281.786 410.324 264.375Z"/>
	<path fill="#9F8BE8" d="M342.61 506.724C342.604 506.605 342.601 506.486 342.594 506.368C342.081 498.004 343.81 489.048 344.563 480.688L349.73 424.786L371.208 219.399C372.912 221.658 373.23 226.624 374.035 229.498C378.637 245.928 386.752 261.045 400.982 270.81C396.142 286.982 391.567 303.233 387.26 319.555C372.652 373.944 359.428 428.697 347.602 483.758C346.162 491.433 344.272 499.09 342.61 506.724Z"/>
	<path fill="#FEFEFE" d="M925.656 378.605C929.354 367.053 934.659 355.757 938.826 344.314C948.943 316.533 957.157 284.698 955.971 254.942C955.55 244.386 953.699 234.093 951.832 223.721C954.966 225.204 958.145 231.004 959.704 234.048C966.394 247.109 970.203 262.536 973.319 276.799C985.067 330.562 981.672 375.705 964.917 428.045L960.758 416.623C959.891 414.241 958.965 411.881 957.983 409.545C951.375 393.782 941.254 384.99 925.656 378.605Z"/>
	<path fill="#686868" d="M790.885 274.48C797.073 268 803.75 262.242 809.517 255.323C810.158 255.357 810.499 255.354 811.095 255.447C817.367 256.425 825.547 267.687 828.91 272.507C853.019 307.065 856.476 364.775 849.419 405.345L779.15 430.851C768.412 434.553 757.651 438.187 746.867 441.752C775.716 392.847 792.347 331.288 790.885 274.48Z"/>
	<path fill="#9F8BE8" d="M854.243 403.735C857.015 387.333 857.745 371.106 856.836 354.505C854.969 320.397 846.762 279.091 820.278 255.365C824.625 255.732 829.771 258.561 833.313 261.02C850.01 272.61 855.705 288.805 859.152 307.958C858.317 309.787 857.006 312.255 857.351 314.315C857.507 315.245 858.255 315.272 859.078 315.481C868.589 317.896 878.378 318.725 886.963 324.006C905.111 335.169 913.312 359.057 917.763 378.657C911.552 380.911 905.446 383.529 899.326 386.021L854.243 403.735Z"/>
	<path fill="#9F8BE8" d="M628.273 479.631L628.24 478.835C630.078 476.18 632.783 474.022 635.047 471.721C638.63 468.115 642.083 464.383 645.4 460.53C657.809 446.117 669.611 430.552 680.216 414.761C692.471 396.453 703.837 377.567 714.277 358.167C718.403 350.631 724.531 334.938 729.43 329.257C734.759 323.077 742.59 318.078 748.839 312.742C761.551 302.045 773.891 290.912 785.836 279.364C785.89 279.535 785.958 279.702 786 279.876C787.306 285.261 786.015 294.955 785.675 300.702C783.288 341.036 770.151 386.138 752.227 422.294C748.442 429.929 744.057 437.197 739.695 444.512C718.434 452.415 696.563 458.873 674.924 465.659C659.574 470.474 643.958 476.095 628.273 479.631Z"/>
	<path fill="#9F8BE8" d="M354.868 500.13C352.192 507.218 348.107 514.533 346.466 521.897C346.271 522.774 346.184 523.126 345.772 523.972L345.876 522.449L346.01 523.014L345.571 522.661C345.628 522.541 345.972 521.824 346.011 521.712C348.018 515.945 348.933 508.932 350.275 502.938L359.621 461.461L382.423 364.78C387.649 343.544 392.762 322.272 399.278 301.387C399.722 302.221 399.933 303.127 400.229 304.022C406.197 322.057 414.753 328.775 431.144 337.065C421.278 354.162 413.622 372.973 405.129 390.785C401.164 399.099 396.79 407.216 392.877 415.553C379.659 443.496 366.986 471.693 354.868 500.13Z"/>
	<path fill="#686868" d="M542.26 456.129C586.572 428.044 630.818 400.177 673.9 370.199C689.021 359.677 703.616 348.383 718.511 337.54L718.684 337.734C718.404 341.044 712.153 351.161 710.279 354.732C686.282 400.463 655.093 445.368 618.644 482.154C618.067 482.3 617.486 482.433 616.904 482.553C595.058 487.023 576.387 482.798 558.025 470.576C552.056 466.471 546.978 461.61 542.26 456.129Z"/>
	<path fill="#9F8BE8" d="M357.953 514.057C356.549 516.864 355.106 519.622 353.549 522.348C352.177 517.015 427.099 357.245 436.757 340.056C441.634 341.906 446.619 343.458 451.684 344.703C439.048 365.183 427.733 386.506 416.01 407.525C396.265 442.821 376.911 478.333 357.953 514.057Z"/>
	<path fill="#9F8BE8" d="M346.375 554.474C346.86 551.403 347.579 548.679 348.841 545.844C352.446 537.745 357.362 530 361.469 522.113C373.306 499.317 385.466 476.691 397.947 454.242C415.48 422.508 431.974 389.881 450.712 358.856C452.18 360.309 455.709 371.155 457.205 374.008C468.443 395.431 494.152 406.204 516.018 412.821C517.119 427.239 523.705 443.394 533.781 453.865C521.605 461.767 509.076 469.06 496.836 476.854C481.494 486.622 466.416 496.941 450.844 506.327C435.316 515.687 419.297 524.086 403.142 532.296C385.409 541.131 367.44 549.753 349.546 558.254L346.375 554.474Z"/>
	<path fill="#9F8BE8" d="M853.384 410.461C875.313 401.287 898.541 394.383 919.917 383.965C920.479 384.412 920.529 384.733 920.652 385.47C921.818 392.503 920.324 404.344 919.53 411.614C914.716 455.67 897.93 523.762 872.582 560.164C852.267 566.983 829.923 570.94 808.761 574.137C801.827 569.986 794.866 565.88 787.878 561.82L773.792 552.347C805.303 530.006 831.702 475.679 844.493 440.047C847.982 430.327 850.73 420.437 853.384 410.461Z"/>
	<path fill="#686868" d="M883.525 554.196C906.277 511.081 927.288 432.662 925.033 383.817C931.783 386.588 938.007 390.605 942.913 396.048C951.284 405.335 955.408 417.937 958.726 429.751C959.605 432.877 960.906 436.451 960.599 439.72C960.009 446.001 956.453 453.204 954.362 459.18C943.388 490.55 930.372 515.363 905.031 537.85C898.281 543.864 890.962 549.079 883.525 554.196Z"/>
	<path fill="#686868" d="M741.833 451.487C776.413 438.088 812.067 427.234 846.323 413.005L846.951 413.005L847.359 413.498C846.842 417.178 845.468 420.736 844.445 424.306C837.052 450.123 820.696 486.388 805.895 508.487C792.032 529.184 776.614 551.323 750.596 556.355C733.284 559.704 717.859 554.74 703.464 545.117C696.796 540.245 691.887 534.751 688.002 527.497C692.715 522.511 696.628 516.317 700.729 510.777C709.182 499.36 717.74 488.036 725.455 476.1C730.751 467.907 735.654 459.02 741.833 451.487Z"/>
	<path fill="#9F8BE8" d="M621.352 488.626C646.598 481.961 671.397 473.824 696.236 465.791C708.501 461.825 720.914 457.13 733.443 454.135C733.335 457.994 697.84 506.559 693.194 512.286C687.02 519.895 683.575 523.491 673.504 524.47C659.259 525.854 645.811 520.128 635.033 511.195C628.326 504.944 623.602 497.515 621.352 488.626Z"/>
	<path fill="#9F8BE8" d="M388.067 545.796C441.146 523.278 488.28 489.583 537.166 459.523C551.64 475.19 568.485 487.173 589.986 490.45C565.016 496.572 540.12 502.988 515.302 509.697C500.932 513.705 486.748 518.328 472.454 522.592C458.519 526.62 444.559 530.558 430.574 534.407C416.571 538.245 402.278 542.989 388.067 545.796Z"/>
	<path fill="#9F8BE8" d="M372.497 555.864C394.559 550.631 416.747 545.083 438.568 538.927C465.956 531.201 493.122 522.713 520.547 515.117C541.032 509.487 561.567 504.043 582.151 498.784C592.864 496.033 603.654 493.724 614.244 490.505L614.767 490.468C616.112 491.151 620.478 501.54 621.817 503.749C631.658 519.98 648.559 526.668 666.1 531.052C652.289 534.459 637.907 536.773 623.875 539.192C585.824 545.833 547.4 550.132 508.822 552.065C480.778 553.52 452.672 553.601 424.606 554.443C413.731 554.446 402.813 554.887 391.949 555.351C385.492 555.627 378.951 556.198 372.497 555.864Z"/>
	<path fill="#9F8BE8" d="M378.21 562.442C391.989 561.512 405.848 561.477 419.65 561.073C460.287 559.883 501.109 559.556 541.639 556.283C571.258 553.924 600.745 550.125 629.994 544.898C647.613 541.832 665.144 537.921 682.803 535.171C683.479 535.036 684.751 534.723 685.385 535.157C687.567 536.652 689.912 540.018 691.821 541.99C701.015 551.486 712.122 558.65 725.092 561.691C740.082 565.206 755.457 563.86 768.684 555.667C777.912 563.455 788.348 569.19 798.605 575.441C784.379 578.35 769.435 579.477 755.017 581.227C673.07 590.758 590.327 591.305 508.262 582.859C495.798 580.857 482.897 580.2 470.342 578.613C440.31 574.817 407.553 569.723 378.21 562.442Z"/>
	<path fill="#FEFEFE" d="M313.188 570.188C313.909 566.978 314.474 563.45 315.848 560.445C317.145 557.608 318.446 556.198 321.379 555.134C326.165 555.142 333.331 555.319 337.606 557.604C338.034 561.265 334.315 572.003 331.947 575.056C330.086 575.802 327.573 575.08 325.626 574.787C325.194 574.888 324.762 574.992 324.332 575.1C320.094 576.176 318.661 577.165 316.392 580.965C315.56 577.272 314.429 573.763 313.188 570.188Z"/>
	<path fill="#FEFEFE" d="M211.062 591.17C212.434 590.46 213.914 589.692 215.142 588.751C216.901 587.404 218.592 585.127 218.823 582.903C215.946 576.563 203.786 583.918 197.954 580.769C196.131 579.784 195.159 578.475 194.593 576.507C193.943 574.243 193.926 571.542 195.141 569.484L196.068 569.359C197.114 570.396 198.159 571.484 199.28 572.439C200.378 573.375 201.611 573.901 203.095 573.689C205.198 573.389 207.75 571.95 208.945 570.167C210.535 567.794 210.142 564.245 209.471 561.626C209.263 560.814 209.079 560.275 209.116 559.418C209.153 558.582 210.377 557.911 211.005 557.388C211.065 557.43 211.134 557.46 211.184 557.513C213.906 560.395 217.466 562.597 220.636 564.998C219.47 567.505 218.402 570.019 217.402 572.597C221.605 579.897 227.897 585.334 231.613 593.106C226.595 597.388 220.679 600.609 215.011 603.936C217.262 610.444 221.401 616.406 224.926 622.285C216.145 626.127 206.54 626.53 197.084 626.598L194.65 623.129L192.495 619.445C199.629 617.193 204.925 613.992 208.5 607.127C210.994 602.336 212.647 596.452 211.062 591.17Z"/>
	<path fill="#FEFEFE" d="M340.298 574.496C340.206 574.335 340.103 574.179 340.022 574.011C338.918 571.746 342.313 563.948 343.186 561.338C343.238 561.514 343.299 561.686 343.34 561.864C344 564.732 344.408 571.54 342.604 573.968C342.084 574.668 341.105 574.44 340.298 574.496Z"/>
	<path fill="#D0D1FE" d="M321.387 584.34C322.645 583.105 324.131 582.097 325.546 581.05C326.698 581.196 327.758 581.464 328.829 581.925C331.345 583.006 335.451 584.479 336.524 587.189C335.891 588.414 335.235 588.408 334.02 588.932C329.954 586.746 325.809 585.575 321.387 584.34Z"/>
	<path fill="#FEFEFE" d="M250.023 730.495C242.894 733.45 228.876 738.767 221.17 737.25C216.836 736.398 214.199 729.103 212.284 725.532C203.671 709.476 190.774 701.261 181.715 687.721C177.867 681.97 176.301 675.65 177.775 668.798C178.727 664.375 180.749 660.343 183.862 657.045C198.793 641.226 225.92 640.654 246.22 640.266C249.276 640.207 254.993 640.974 257.658 639.644C262.714 637.122 264.951 628.533 268.689 624.147C278.201 612.985 298.605 591.93 310.588 583.932L314.673 586.209C314.133 588.336 313.484 590.532 313.234 592.713C312.946 595.222 313.089 597.988 312.423 600.438C310.437 607.737 283.528 640.345 276.989 648.768C274.109 652.477 271.506 656.591 268.417 660.103C266.882 661.849 264.983 663.259 263.035 664.515C254.748 669.856 244.996 674.862 235.844 678.506C230.358 680.691 223.412 682.139 218.506 685.311C217.257 686.119 216.672 686.811 216.349 688.251C216.703 688.964 217.04 690.189 217.818 690.465C223.147 692.362 252.839 676.966 259.322 674.018C265.804 684.414 270.287 695.865 273.981 707.499C266.147 718.122 262.589 724.572 250.023 730.495Z"/>
	<path fill="#FEFEFE" d="M305.021 624.279C308.497 619.531 312.024 614.874 315.755 610.323C318.378 610.954 321.089 611.157 323.696 611.87C325.488 612.36 326.556 612.896 327.507 614.516C326.509 616.323 321.64 616.869 319.689 618.979C319.405 620.937 320.534 622.662 321.08 624.564C319.546 625.646 317.119 625.148 315.323 625.562C314.075 625.849 313.698 626.364 313.037 627.395C313.034 628.67 313.237 629.452 313.716 630.632C314.76 630.935 315.728 631.323 316.732 631.735L316.888 632.516L315.836 633.345C313.646 633.8 311.833 633.488 309.886 632.348C306.608 630.429 305.963 627.686 305.021 624.279Z"/>
	<path fill="#9F8BE8" d="M209.904 784.658C206.84 788.418 202.104 793.715 197.722 795.958C196.444 796.612 195.828 796.692 194.469 796.314C193.024 794.122 192.014 791.787 191.213 789.29C189.55 784.103 188.581 778.605 187.279 773.308C185.218 764.922 182.97 756.579 180.843 748.21C177.337 734.41 174.241 720.525 170.822 706.709C168.78 698.452 166.235 690.219 164.601 681.873C159.62 656.43 167.211 641.15 180.955 620.891C182.118 620.932 183.392 620.899 184.528 621.168C187.857 621.954 189.642 626.627 191.078 629.315C184.882 638.846 173.121 658.01 171.402 668.955C168.463 687.662 184.298 699.175 194.864 711.802C202.241 720.619 209.083 730.523 213.557 741.152C217.643 750.859 218.314 761.185 219.338 771.542C216.885 776.296 213.28 780.544 209.904 784.658Z"/>
	<path fill="#FEFEFE" d="M226.856 628.962C228.183 627.954 229.064 626.94 230.064 625.611C236.293 625.415 251.511 626.026 256.614 629.783C256.855 629.96 257.045 630.197 257.26 630.404C256.741 631.769 256.671 632.954 255.156 633.507C251.857 634.709 246.281 633.547 242.635 633.755C238.266 630.729 231.997 630.069 226.856 628.962Z"/>
	<path fill="#FEFEFE" d="M195.48 632.971C203.332 632.831 211.16 632.074 218.894 630.71C221.279 630.278 223.587 629.51 225.969 629.106L226.856 628.962C226.585 629.813 226.6 630.353 226.614 631.234C227.387 632.862 228.905 633.55 230.381 634.458C213.726 637.17 205.055 636.786 189.372 645.268L188.116 645.724C188.339 642.199 193.466 636.047 195.48 632.971Z"/>
	<path fill="#FEFEFE" d="M271.108 669.072C270.209 668.707 270.123 668.846 269.614 667.956C279.549 656.724 290.739 643.612 299.428 631.448C299.413 631.696 299.412 631.946 299.381 632.193C298.518 638.92 290.897 666.485 285.962 669.451C281.825 671.937 275.463 670.092 271.108 669.072Z"/>
	<path fill="#9F8BE8" d="M157.354 681.628C154.672 675.846 152.557 670.042 152.281 663.611C151.747 651.206 157.203 641.414 165.323 632.48C166.042 633.545 163.513 638.285 162.952 639.617C157.022 653.698 156.141 667.463 158.815 682.391L158.412 682.716L157.354 681.628Z"/>
	<path fill="#FEFEFE" d="M314.398 656.868C314.147 657.049 313.811 657.063 313.512 657.142L313.201 656.155C314.203 650.319 315.758 643.887 318.713 638.726C319.971 639.699 320.888 640.937 321.031 642.554C321.493 647.756 317.62 653.12 314.398 656.868Z"/>
	<path fill="#9F8BE8" d="M183.27 798.598C179.374 797.938 175.119 796.962 172.63 793.581C171.239 791.692 170.508 789.092 169.854 786.853C168.161 781.057 167.064 775.036 165.589 769.173L155.07 727.653C152.188 716.048 149.629 704.381 146.829 692.761C145.229 686.119 143.094 679.527 141.93 672.798C141.138 668.225 140.674 663.819 141.406 659.21C142.521 652.19 145.383 645.166 151.301 640.915C151.777 642.673 147.474 652.92 146.877 655.846C145.168 664.225 146.457 676.364 151.449 683.48C153.736 686.739 156.109 688.386 159.997 689.067C162.993 699.954 165.252 711.076 167.928 722.046C171.154 735.27 174.698 748.438 178.012 761.645C181.052 773.759 183.652 786.365 188.159 798.009C186.994 798.84 184.74 798.563 183.27 798.598Z"/>
	<path fill="#686868" d="M311.089 740.925C299.783 714.806 299.16 694.303 304.123 666.571C305.522 658.756 306.873 650.802 309.756 643.376C310.155 648.307 306.905 657.049 306.23 662.463C302.76 690.32 309.599 711.978 322.371 736.439C320.698 737.013 319.029 737.603 317.366 738.208L311.089 740.925Z"/>
	<path fill="#FEFEFE" d="M223.565 746.04C222.542 745.427 222.347 745.313 221.778 744.279C222.522 743.463 235.242 741.61 237.496 741.123C257.59 736.777 267.583 728.122 278.36 711.31C279.365 712.248 279.606 712.47 280.035 713.76C279.345 717.103 275.429 721.419 273.086 723.959C261.265 736.778 240.831 745.304 223.565 746.04Z"/>
	<path fill="#FEFEFE" d="M224.435 759.345C226.808 759.251 229.202 759.145 231.564 758.887C248.585 757.031 265.615 749.378 277.649 737.089C280.53 734.147 282.757 730.82 285.319 727.619C288.226 730.345 296.849 744.843 299.72 749.189C297.858 753.771 295.718 758.235 293.31 762.555C284.027 778.999 269.094 792.496 250.673 797.679C247.903 796.672 245.528 795.401 242.997 793.903C241.552 792.748 240.092 791.586 238.762 790.297C232.98 784.691 226.698 776.166 224.917 768.196C224.29 765.386 224.47 762.217 224.435 759.345Z"/>
	<path fill="#FEFEFE" d="M256.433 802.458C279.95 793.043 291.685 778.709 303.111 756.735C308.74 761.945 313.405 769.555 318.1 775.639C331.065 792.439 344.747 809.357 356.381 827.099C360.73 833.731 363.842 840.027 364.365 848.058C365.262 861.826 360.521 877.49 357.635 890.935C351.938 917.472 345.154 943.834 339.707 970.399C333.024 970.698 326.145 971.892 319.488 972.658L319.576 966.748C320.739 952.633 320.514 938.217 321.173 924.049L323.363 875.864C323.604 870.419 324.995 861.395 323.92 856.259C323.65 854.968 322.651 854.042 321.742 853.141C315.926 847.37 308.815 842.506 302.413 837.373C293.473 830.206 284.75 822.656 275.569 815.803C269.347 811.158 262.806 806.897 256.433 802.458Z"/>
	<path fill="#FEFEFE" d="M209.841 793.893C213.983 788.875 218.292 784.207 222.023 778.853C223.731 779.902 231.94 792.44 236.183 796.014C246.961 805.093 260.776 810.932 271.35 820.274C269.795 828.449 269.197 836.798 267.683 844.984C266.085 853.616 262.803 860.121 256.823 866.538C248.784 875.164 238.268 881.279 228.432 887.614L206.795 901.69C186.78 914.506 166.945 927.602 147.298 940.974C142.931 944.227 138.288 947.142 133.748 950.146C130.414 942.642 127.144 937.399 120.847 931.988C144.48 913.546 167.432 894.395 190.533 875.304C201.607 866.153 214.16 857.566 224.174 847.301C220.263 829.575 214.918 811.343 209.841 793.893Z"/>
	<path fill="#686868" d="M86.5303 950.452C98.6548 948.233 108.144 944.363 118.916 938.441C122.249 940.789 124.303 945.417 126.303 948.915C124.173 951.002 122.12 953.096 120.325 955.485C108.112 971.738 104.958 987.091 107.818 1006.84C104.84 1002.2 101.993 997.488 99.2803 992.696C97.6435 989.591 96.2172 986.381 94.7502 983.194C95.3359 973.569 98.5511 970.163 97.1072 959.041C96.8872 957.347 96.7229 955.081 95.7122 953.669C94.8281 952.433 94.2377 952.435 92.8555 952.206C91.1367 952.693 89.8477 953.472 89.03 955.105C88.7031 955.758 88.4587 956.244 88.0293 956.838C86.9804 955.018 86.8585 952.514 86.5303 950.452Z"/>
	<path fill="#686868" d="M322.555 978.355C327.208 977.916 331.847 976.982 336.456 976.206C337.033 976.704 339.437 987.771 345.224 992.98C353.478 993.399 361.162 989.724 369.112 990.2L369.207 990.624C363.136 995.035 356.504 999.179 349.77 1002.49C340.929 1006.88 331.534 1010.06 321.84 1011.94C322.042 1000.73 322.548 989.58 322.555 978.355Z"/>
</svg>
