<?xml version="1.0" encoding="utf-8" ?>
<svg xmlns="http://www.w3.org/2000/svg" xmlns:xlink="http://www.w3.org/1999/xlink" width="1024" height="1024">
	<path fill="#9F8BE8" d="M0 0L460.233 0L480.548 0C480.514 17.8068 480.122 35.6686 480.311 53.4674C473.577 53.434 466.843 53.6236 460.121 54.0359C445.482 55.6737 430.809 57.5209 416.512 61.1792C383.113 69.7254 330.423 92.9874 308.52 120.06C305.236 124.12 302.783 128.58 300.881 133.432C295.773 133.64 290.526 134.923 285.582 136.193C265.772 141.281 248.523 151.05 234.669 166.178C217.068 185.396 206.409 211.224 194.589 234.142C190.748 241.59 182.38 252.562 182.723 260.818C183.905 289.267 206.743 326.361 222.77 349.392C211.114 359.056 199.717 368.952 190.089 380.707C153.486 425.393 135.686 492.649 124.377 548.245C119.634 571.563 115.957 595.052 110.991 618.346C107.559 634.441 103.048 650.329 99.3684 666.378C91.1998 702.006 84.5656 737.748 81.1665 774.176C78.2113 805.847 76.9957 837.625 73.3948 869.229L62.6067 968.641C61.1199 981.727 59.7339 994.824 58.4489 1007.93C57.9289 1013.24 57.1013 1018.67 56.8898 1024L0 1024L0 0Z"/>
	<path fill="#D6D4F9" d="M480.548 0L499.512 0L499.426 54.1494C493.064 53.6941 486.689 53.4666 480.311 53.4674C480.122 35.6686 480.514 17.8068 480.548 0Z"/>
	<path fill="#9F8BE8" d="M499.512 0L520.008 0C519.983 18.8948 519.663 37.8363 519.961 56.7258C513.255 55.3036 506.24 54.8499 499.426 54.1494L499.512 0Z"/>
	<path fill="#D6D4F9" d="M520.008 0L713.961 0L714.028 43.6827C707.607 47.4087 701.481 51.6785 695.249 55.7132L664.133 75.6577C649.364 85.085 633.568 93.7679 619.852 104.674C619.735 104.5 619.62 104.324 619.501 104.152C614.495 96.9412 605.838 91.9214 598.486 87.4629C574.036 72.6365 548.143 61.9006 519.961 56.7258C519.663 37.8363 519.983 18.8948 520.008 0Z"/>
	<path fill="#9F8BE8" d="M713.961 0L733.926 0C733.994 9.99637 734.354 20.1528 733.878 30.1303C733.013 39.5913 733.536 49.4625 733.536 58.9799C733.486 75.868 733.617 92.7562 733.93 109.642L733.904 216.295C760.419 226.076 787.016 235.634 813.692 244.966C831.293 251.204 849.009 257.977 866.933 263.216C886.209 270.229 905.706 276.697 924.894 283.938C932.325 285.921 939.847 289.486 947.214 291.969C947.561 283.411 947.449 274.828 947.445 266.264C948.198 248.693 947.545 230.829 947.496 213.229L947.217 0L967.528 0L1024 0L1024 1024L967.506 1024L961.028 1024L507.684 1024C501.995 997.058 498.963 969.271 495.247 941.999C489.987 903.397 485.819 864.655 482.747 825.818C481.436 809.481 479.748 792.987 479.342 776.598C486.477 770.428 495.09 765.453 502.957 760.23C509.325 756.001 515.45 751.442 521.894 747.324C523.548 731.312 521.164 714.739 518.141 699.047C523.738 693.54 530.112 688.603 535.975 683.347C535.516 693.994 534.007 704.525 532.505 715.065C527.638 749.238 519.867 783.478 504.221 814.532C499.771 823.364 493.97 830.99 488.815 839.334C487.247 841.872 486.473 843.619 487.269 846.602C488.45 851.025 491.491 855.303 493.899 859.159C505.916 878.4 524.708 901.823 544.81 912.748C547.858 914.405 552.761 917.126 556.251 915.666C560.433 913.917 569.254 887.81 571.164 882.368C573.064 875.754 574.884 869.11 577.138 862.605C579.03 864.518 699.996 907.218 713.047 911.825C714.267 845.565 713.632 779.167 713.497 712.893L713.497 687.9C696.1 681.122 678.457 674.697 660.868 668.432C647.38 663.296 633.797 658.413 620.126 653.786C610.402 650.434 600.557 647.348 591.277 642.869C590.015 638.189 589.775 632.578 589.175 627.726L594.995 629.259C596.121 627.58 597.1 625.772 598.13 624.031C627.29 633.069 655.651 644.385 684.272 654.951C692.904 658.616 703.085 663.128 712.31 664.779L712.94 664.445L713.063 663.617C714.512 654.037 713.47 635.732 713.481 625.505L713.588 545.405L713.54 274.291C698.36 269.519 682.563 264.596 667.854 258.558C670.261 252.05 671.935 245.946 672.954 239.08C676.987 240.978 681.535 242.281 685.733 243.795C694.727 247.061 703.743 250.263 712.782 253.4L775.439 275.537C788.234 279.952 800.882 284.753 813.652 289.233L947.093 335.346C947.295 328.041 947.306 320.722 947.405 313.414C928.794 306.547 909.99 300.165 891.307 293.491L762.482 247.792L708.814 228.642C696.102 224.177 683.162 220.198 670.737 214.966C668.067 206.2 664.928 198.398 660.089 190.598C666.582 192.166 673.187 194.844 679.479 197.124C690.957 201.282 702.354 205.585 713.953 209.403C714.11 180.605 714.02 151.806 713.682 123.009C713.465 96.5904 714.032 70.1124 714.028 43.6827L713.961 0ZM836.968 318.509C827.228 315.314 817.725 311.274 808.043 307.879C783.263 299.392 758.585 290.61 734.014 281.535C734.224 315.586 734.889 349.92 733.989 383.954C733.943 404.256 733.514 424.699 734.043 444.992L733.829 553.852C733.903 576.686 734.644 599.736 733.855 622.543C733.032 639.43 733.423 656.723 733.788 673.625C743.025 676.57 752.163 679.819 761.186 683.366C772.15 688.033 783.618 691.66 794.865 695.593L839.338 711.512C875.237 724.457 910.872 738.541 947.186 750.276C948.048 728.775 947.484 707.008 947.497 685.484L947.542 560.943C947.488 535.545 947.791 510.174 947.486 484.766C947.625 442.295 947.512 399.823 947.145 357.353C932.2 350.828 913.269 344.999 897.487 339.86C892.065 337.49 886.203 335.707 880.625 333.711C866.114 328.519 851.472 323.728 836.968 318.509ZM734.052 695.685C733.619 733.159 734.023 770.67 734.004 808.148C733.986 845.119 733.529 882.152 734.249 919.113C747.039 924.338 760.189 928.768 773.153 933.554L858.299 964.579C874.594 970.385 890.844 976.318 907.047 982.376C920.28 987.34 933.507 992.766 947.062 996.791C947.74 974.701 947.311 952.514 947.398 930.41L947.353 772.053L803.418 720.116C780.353 711.853 757.012 704.23 734.052 695.685Z"/>
	<path fill="#D6D4F9" d="M733.926 0L783.131 0C771.57 6.80541 760.115 13.7885 748.769 20.9469C743.842 24.0058 738.643 26.849 733.878 30.1303C734.354 20.1528 733.994 9.99637 733.926 0Z"/>
	<path fill="#FEFEFE" d="M783.131 0L905.6 0C866.564 25.7714 827.236 51.0963 787.622 75.9697L754.533 96.7925C747.694 101.153 741.072 105.773 733.93 109.642C733.617 92.7562 733.486 75.868 733.536 58.9799C733.536 49.4625 733.013 39.5913 733.878 30.1303C738.643 26.849 743.842 24.0058 748.769 20.9469C760.115 13.7885 771.57 6.80541 783.131 0Z"/>
	<path fill="#D6D4F9" d="M905.6 0L947.217 0L947.496 213.229C928.039 224.83 908.734 236.683 889.584 248.784C882.118 253.539 874.101 258.088 866.933 263.216C849.009 257.977 831.293 251.204 813.692 244.966C787.016 235.634 760.419 226.076 733.904 216.295L733.93 109.642C741.072 105.773 747.694 101.153 754.533 96.7925L787.622 75.9697C827.236 51.0963 866.564 25.7714 905.6 0Z"/>
	<path fill="#FEFEFE" d="M619.852 104.674C633.568 93.7679 649.364 85.085 664.133 75.6577L695.249 55.7132C701.481 51.6785 707.607 47.4087 714.028 43.6827C714.032 70.1124 713.465 96.5904 713.682 123.009C707.247 126.148 701.141 130.697 695.179 134.672C683.821 142.27 672.368 149.725 660.823 157.037C655.24 160.6 649.522 164.783 643.587 167.676C638.34 159.328 633.929 150.469 628.657 142.132C626.617 138.906 620.837 132.25 620.155 129.011C620.454 128.893 620.755 128.781 621.05 128.655C622.497 128.04 623.164 127.081 623.693 125.615C625.954 119.339 622.837 110.255 619.852 104.674Z"/>
	<defs>
		<linearGradient id="gradient_0" gradientUnits="userSpaceOnUse" x1="663.76422" y1="549.18158" x2="70.857697" y2="533.46436">
			<stop offset="0" stop-color="#050413"/>
			<stop offset="1" stop-color="#11022A"/>
		</linearGradient>
	</defs>
	<path fill="url(#gradient_0)" d="M460.121 54.0359C466.843 53.6236 473.577 53.434 480.311 53.4674C486.689 53.4666 493.064 53.6941 499.426 54.1494C506.24 54.8499 513.255 55.3036 519.961 56.7258C548.143 61.9006 574.036 72.6365 598.486 87.4629C605.838 91.9214 614.495 96.9412 619.501 104.152C619.62 104.324 619.735 104.5 619.852 104.674C622.837 110.255 625.954 119.339 623.693 125.615C623.164 127.081 622.497 128.04 621.05 128.655C620.755 128.781 620.454 128.893 620.155 129.011C620.837 132.25 626.617 138.906 628.657 142.132C633.929 150.469 638.34 159.328 643.587 167.676C648.408 175.317 653.258 184.557 660.089 190.598C664.928 198.398 668.067 206.2 670.737 214.966C672.728 222.956 674.003 230.844 672.954 239.08C671.935 245.946 670.261 252.05 667.854 258.558C660.188 276.245 649.036 289.978 630.72 297.151C621.628 300.711 612.797 301.458 603.242 299.488C597.237 305.088 591.029 310.572 585.208 316.358C584.632 320.597 584.547 324.178 585.341 328.41C587.141 338.008 595.134 352.732 585.177 360.426C580.135 364.322 571.724 364.705 565.685 363.716C564.915 363.595 564.147 363.462 563.381 363.318C555.809 376.318 538.316 379.692 529.211 391.371C521.371 401.427 525.864 410.796 511.305 418.463C527.869 433.268 538.194 453.156 539.516 475.512C540.257 488.033 537.658 500.558 534.287 512.548L544.893 508.622C556.169 507.831 566.969 510.913 575.607 518.377C582.248 524.116 586.596 531.188 591.043 538.631C594.651 543.601 597.392 547.963 599.455 553.743C600.65 557.092 601.618 560.761 603.341 563.884C606.448 569.515 611.648 574.882 614.041 580.764C614.875 582.814 614.875 584.958 614.568 587.124C613.211 596.708 603.353 615.663 598.13 624.031C597.1 625.772 596.121 627.58 594.995 629.259L589.175 627.726C589.775 632.578 590.015 638.189 591.277 642.869C593.944 665.45 596.266 687.92 596.869 710.672C596.546 723.743 596.639 736.845 596.042 749.905C595.392 764.116 593.976 778.207 592.34 792.331C589.256 815.828 583.982 839.893 577.138 862.605C574.884 869.11 573.064 875.754 571.164 882.368C569.254 887.81 560.433 913.917 556.251 915.666C552.761 917.126 547.858 914.405 544.81 912.748C524.708 901.823 505.916 878.4 493.899 859.159C491.491 855.303 488.45 851.025 487.269 846.602C486.473 843.619 487.247 841.872 488.815 839.334C493.97 830.99 499.771 823.364 504.221 814.532C519.867 783.478 527.638 749.238 532.505 715.065C534.007 704.525 535.516 693.994 535.975 683.347C530.112 688.603 523.738 693.54 518.141 699.047C521.164 714.739 523.548 731.312 521.894 747.324C515.45 751.442 509.325 756.001 502.957 760.23C495.09 765.453 486.477 770.428 479.342 776.598C479.748 792.987 481.436 809.481 482.747 825.818C485.819 864.655 489.987 903.397 495.247 941.999C498.963 969.271 501.995 997.058 507.684 1024L499.392 1024C492.8 985.686 487.305 947.192 482.911 908.565C477.784 866.333 473.16 823.689 471.527 781.158C461.157 787.271 451.142 794.311 440.964 800.772C443.082 824.035 443.891 847.399 445.639 870.688C449.317 921.913 454.321 973.034 460.648 1024L452.815 1024C450.556 1010.07 449.412 996.021 447.877 982.005C444.579 954.416 441.874 926.76 439.763 899.055C438.036 879.255 436.545 859.436 435.292 839.601C434.558 828.016 433.621 816.266 433.722 804.658C388.756 831.513 261.539 907.977 212.586 908.699C194.473 908.967 179.783 902.715 166.855 889.981C156.406 879.689 148.813 867.283 142.198 854.31C111.663 794.426 110.877 723.834 110.519 658.108C106.866 669.486 105.129 681.926 102.774 693.664C95.783 728.501 91.1533 763.22 88.1316 798.618C86.7266 815.077 86.2483 831.622 84.7001 848.065C82.3657 872.857 79.2007 897.627 76.4525 922.381L65.7278 1024L56.8898 1024C57.1013 1018.67 57.9289 1013.24 58.4489 1007.93C59.7339 994.824 61.1199 981.727 62.6067 968.641L73.3948 869.229C76.9957 837.625 78.2113 805.847 81.1665 774.176C84.5656 737.748 91.1998 702.006 99.3684 666.378C103.048 650.329 107.559 634.441 110.991 618.346C115.957 595.052 119.634 571.563 124.377 548.245C135.686 492.649 153.486 425.393 190.089 380.707C199.717 368.952 211.114 359.056 222.77 349.392C206.743 326.361 183.905 289.267 182.723 260.818C182.38 252.562 190.748 241.59 194.589 234.142C206.409 211.224 217.068 185.396 234.669 166.178C248.523 151.05 265.772 141.281 285.582 136.193C290.526 134.923 295.773 133.64 300.881 133.432C302.783 128.58 305.236 124.12 308.52 120.06C330.423 92.9874 383.113 69.7254 416.512 61.1792C430.809 57.5209 445.482 55.6737 460.121 54.0359ZM518.971 363.059C520.694 361.744 520.788 360.362 521.215 358.316C525.733 363.569 534.316 368.205 541.294 368.872C545.465 369.27 549.039 367.598 552.092 364.843C554.281 362.867 556.552 360.394 558.182 357.946C553.153 355.574 547.968 352.652 545.971 347.086C544.559 343.153 545.531 339.304 547.298 335.673C548.813 332.561 553.2 324.647 556.604 323.683C557.23 323.506 557.299 323.551 557.861 323.592C558.589 324.856 558.452 325.844 558.048 327.235C556.325 333.169 547.262 339.366 550.325 346.132C552.248 350.379 559.263 353.938 563.586 355.311C568.039 356.724 575.115 356.946 579.374 354.629C581.292 353.585 582.502 351.932 583.691 350.157C581.26 342.912 578.604 335.601 577.594 327.991C577.203 325.044 578.241 317.324 577.427 315.478C577.087 314.709 576.25 313.907 575.477 313.583C574.248 313.068 573.628 313.323 572.506 313.778L571.763 314.888C572.177 315.989 572.658 316.952 573.219 317.98C569.825 320.601 565.14 323.782 560.615 323.03C559.425 322.833 558.851 322.351 558.067 321.487C557.058 319.106 557.653 317.195 558.368 314.822C558.64 313.919 558.548 314.333 558.664 313.374C555.318 310.749 546.585 305.092 546.364 300.575C546.337 300.023 546.486 299.505 546.605 298.976L547.28 298.448C552.502 299.681 557.215 305.471 562.344 307.819C566.369 306.12 571.743 303.135 576.214 304.77C578.738 305.692 579.865 307.359 580.875 309.756L581.078 310.25C588.512 302.582 596.67 295.658 603.899 287.781C618.881 271.457 623.716 251.572 623.375 229.805C623.359 228.79 623.331 227.775 623.291 226.761C614.574 243.188 602.653 254.209 584.706 259.796C572.572 263.572 559.365 263.945 546.735 263.978C539.707 263.997 532.364 263.528 525.521 265.432C519.3 267.162 513.311 270.521 507.999 274.13C503.984 276.858 499.712 280.114 497.465 284.521C496.193 287.015 495.695 289.803 496.664 292.489C497.652 295.233 499.042 296.274 501.382 297.903C502.074 298.384 502.308 298.608 502.633 299.373C502.315 300.806 501.758 301.492 500.473 302.238C494.296 305.827 482.832 304.396 476.265 302.369C465.903 299.17 456.387 292.249 451.36 282.499C447.574 275.156 445.747 266.184 448.276 258.163C451.327 248.482 459.387 241.478 467.091 235.402C464.942 233.098 462.853 231.198 460.301 229.339C450.93 238.764 434.382 254.532 427.645 265.434C430.796 281.381 433.904 300.17 448.396 310.036C451.613 312.227 461.208 314.827 462.498 317.883C461.879 319.24 460.73 320.207 459.268 320.665C457.882 321.099 456.254 320.697 454.868 320.421C447.921 325.833 440.731 328.976 432.491 331.915C438.575 359.365 453.349 387.027 477.66 402.384C485.561 407.376 497.034 412.989 506.648 410.955C510.468 410.147 512.936 408.396 514.948 405.052C517.589 400.662 518.717 395.405 520.639 390.674C523.776 382.957 531.86 379.429 537.575 373.938C531.505 371.17 523.438 368.157 518.971 363.059ZM469.28 61.7124C426.01 64.4133 384.042 77.5712 346.975 100.057C335.868 106.719 324.383 114.359 315.793 124.175C305.91 135.469 306.703 154.881 307.73 169.055C310.963 213.642 330.239 250.596 353.127 287.944C363.637 272.796 374.428 257.912 386.293 243.788C399.181 228.063 412.904 213.357 426.986 198.715C461.241 163.102 504.05 122.779 549.782 102.835C562.886 97.1203 576.076 93.9124 590.167 91.743C558.811 74.0979 525.145 62.9683 489.031 61.6223C482.576 61.3817 475.7 61.0966 469.28 61.7124ZM591.617 99.7061C528.461 103.25 447.922 185.275 407.537 230.456C389.751 250.738 373.045 271.943 357.489 293.981C364.122 304.2 371.266 313.892 378.58 323.629C381.66 318.642 384.457 313.474 387.57 308.515C398.416 291.407 410.228 274.502 422.85 258.666C431.153 248.248 440.294 238.552 449.258 228.713C480.205 194.745 513.075 163.417 550.419 136.496C561.477 128.524 577.867 116.263 591.072 113.247C596.919 111.912 602.095 112.954 607.117 116.229C612.239 119.569 616.028 124.519 619.677 129.332C617.642 119.593 616.099 109.797 607.092 103.742C602.271 100.501 597.231 99.9342 591.617 99.7061ZM594.536 120.061C572.048 125.363 522.961 166.306 504.82 183.114C490.914 195.998 477.961 209.679 465.164 223.642C469.032 226.846 475.228 231.198 475.804 236.638C475.969 238.199 475.717 239.399 474.663 240.618C473.275 242.225 470.721 243.528 468.943 244.695C461.283 249.722 454.827 255.726 454.792 265.671C454.765 273.467 459.016 281.591 464.559 286.965C471.274 293.476 480.383 295.919 489.45 296.872C487.911 290.477 488.067 284.85 491.661 279.114C498.23 268.629 512.801 260.341 524.698 257.878C532.18 256.329 539.888 256.567 547.486 256.53C558.161 256.478 569.153 256.045 579.488 253.189C592.825 248.972 607.337 240.66 614.013 227.758C616.218 223.496 620.581 207.918 624.204 206.488C624.921 206.205 625.659 206.382 626.325 206.768C629.63 208.682 630.199 215.743 630.539 219.188C631.954 233.505 630.827 247.532 627.656 261.539C627.045 264.238 626.552 267.254 625.496 269.807C622.488 277.077 617.202 283.73 612.222 289.765L609.35 293.215C623.629 292.763 637.568 287.284 647.5 276.795C658.413 265.271 666.112 246.718 665.493 230.745C665.158 222.087 662.481 212.246 658.774 204.423C654.461 195.321 647.219 187.953 641.765 179.561C630.33 161.969 621.099 138.594 605.637 124.372C602.375 121.372 598.975 120.012 594.536 120.061ZM297.431 141.668C291.312 142.779 285.392 144.202 279.408 145.903C268.328 174.39 274.872 207.597 286.873 234.806C317.492 304.222 380.034 372.365 442.144 415.437C454.919 424.296 468.462 432.057 481.541 440.454C495.238 449.229 508.318 458.929 520.692 469.487C524.536 473.264 528.352 477.068 532.14 480.9C531.818 469.842 527.691 448.374 519.214 440.574C510.62 432.665 493.499 427.132 482.702 422.046C473.06 417.504 463.859 412.476 455.052 406.466C431.661 390.616 410.22 372.064 391.172 351.195C381.892 341.157 373.69 330.281 365.501 319.355C332.721 275.627 302.699 223.544 299.211 167.766C298.663 159.006 299.368 150.54 299.678 141.818C298.568 141.403 298.528 141.504 297.431 141.668ZM267.46 150.947C255.19 156.881 243.845 165.621 239.319 178.987C237.342 184.823 233.972 194.305 233.519 200.163C232.606 211.977 242.643 232.003 248.036 242.716C277.627 301.493 334.928 365.891 382.807 411.052C413.225 439.743 445.374 467.075 473.451 498.112C479.632 504.882 485.373 512.041 490.639 519.545C493.808 524.017 496.708 528.885 500.101 533.167C508.33 527.186 516.782 521.519 525.441 516.18C527.943 508.304 530.165 500.511 530.751 492.212C506.856 459.246 458.546 438.432 425.849 413.84C401.255 395.191 378.305 374.467 357.252 351.896C316.501 308.051 256.401 226.063 266.321 162.749C266.839 159.441 268.79 154.357 268.375 151.149L267.46 150.947ZM226.835 191.408C217.252 206.553 209.227 222.363 201.033 238.272C197.518 245.098 193.495 251.855 190.345 258.844C192.946 308.063 264.622 396.529 297.544 432.746C310.082 446.324 323.182 459.371 336.811 471.853C363.238 495.629 392.767 516.292 426.978 526.886C435.731 529.814 444.641 531.571 453.506 534.03C440.169 521.766 426.016 511.412 411.651 500.436C393.949 486.911 376.512 473.354 359.753 458.661C351.156 451.124 343.144 443.033 335.091 434.925C289.088 388.612 253.527 335.713 234.112 272.938C229.089 256.699 224.431 239.623 223.751 222.565C223.465 215.396 223.959 207.713 225.056 200.614C225.509 197.686 226.899 194.313 226.835 191.408ZM232.552 228.466C233.57 244.759 239.109 262.851 244.352 278.295C263.14 333.64 290.968 376.453 330.576 418.909C340.934 430.012 351.558 441.237 362.958 451.274C378.526 464.982 395.002 477.841 411.519 490.379C436.734 509.522 457.347 524.316 478.313 548.619C481.366 546.376 484.449 544.165 487.475 541.886L492.967 537.557C469.758 498.906 433.403 468.535 400.519 438.25C379.69 419.052 359.415 399.261 339.721 378.9C305.748 343.879 275.801 305.165 250.44 263.482C246.051 255.98 241.937 248.32 238.108 240.518C236.239 236.636 234.761 232.088 232.552 228.466ZM420.27 274.822C409.52 289.212 398.658 304.193 390.224 320.075C399.343 325.041 407.227 327.162 417.624 326.483C427.844 325.636 436.895 322.116 446.074 317.71C432.014 308.941 426.233 296.779 422.249 281.083C421.792 279.285 421.455 276.077 420.27 274.822ZM385.166 326.668C384.593 327.686 383.451 328.929 383.95 330.134C387.731 339.255 421.766 370.172 430.746 378.159C429.899 372.883 428.622 367.709 427.904 362.406C426.595 352.733 426.414 343.036 426.365 333.29C410.562 335.897 399.547 333.158 385.166 326.668ZM229.362 359.896C175.505 404.351 154.741 467.388 139.02 533.107C132.492 560.398 126.513 588.412 123.813 616.37C121.356 641.828 120.417 668.055 121.846 693.6C124.637 743.507 138.963 818.879 171.38 858.149C178.779 867.112 190.126 878.183 202.383 879.288C215.348 880.456 235.365 874.853 248.091 871.35C302.022 856.186 354.451 836.113 404.719 811.382C417.295 805.069 429.528 797.749 441.631 790.586C452.555 784.12 463.524 777.732 474.175 770.821C470.83 731.041 462.391 684.881 430.181 657.819C424.974 653.445 419.338 650.053 413.403 646.788C385.742 660.451 356.732 672.167 328.264 684.07C315.882 689.247 302.259 693.416 290.613 700.047C278.565 706.907 267.217 716.431 257.197 725.98C241.443 740.758 228.564 758.328 219.213 777.8C216.671 783.21 214.765 788.831 212.462 794.333C211.342 797.006 209.556 800.624 206.246 800.295C204.862 799.001 204.49 797.522 204.455 795.684C204.364 790.918 206.673 785.76 208.468 781.438C217.439 759.834 231.667 738.943 248.364 722.548C262.217 708.944 278.728 695.824 296.649 688.245C279.032 685.329 261.392 681.693 244.374 676.211C234.167 673.022 224.047 669.296 214.841 663.776C191.657 649.876 171.353 623.153 158.865 599.319C156.849 595.473 152.947 588.882 154.515 584.464C154.877 583.442 155.892 582.292 156.928 581.97C158.026 581.629 159.539 581.594 160.582 582.2C164.835 584.671 176.321 602.602 180.359 607.919C184.736 613.683 189.115 619.675 194.128 624.905C214.008 645.645 245.603 665.984 273.021 674.869C282.829 678.047 292.958 679.654 303.029 681.712C309.799 666.692 315.431 651.651 319.36 635.612C330.442 590.373 328.286 538.831 311.769 495.206C298.712 460.72 272.952 423.329 238.328 407.967C233.435 405.796 228.375 403.817 223.239 402.308C219.974 401.349 216.162 400.728 213.069 399.37C212.02 398.91 211.784 398.544 211.149 397.636C211.017 396.316 211.03 395.786 211.697 394.628C213.58 393.185 215.489 393.292 217.734 393.547C223.828 394.241 230.217 396.436 235.873 398.736C258.368 407.885 276.619 423.729 291.259 442.922C328.52 491.768 339.085 556.645 330.879 616.468C328.73 632.134 324.567 647.766 319.269 662.65C316.967 669.117 313.797 675.588 311.959 682.172C323.378 678.248 334.612 673.015 345.745 668.303C368.196 658.913 390.441 649.034 412.462 638.675C409.131 627.916 401.007 613.067 396.041 602.596C381.782 572.538 366.433 543.013 354.916 511.753C353.349 507.499 350.278 502.079 350.56 497.518C351.187 496.568 351.726 496.171 352.695 495.583C349.55 492.216 345.315 489.289 341.745 486.323C336.416 481.906 331.221 477.33 326.168 472.6C308.172 455.815 291.19 437.974 275.314 419.171C266.109 408.388 257.208 397.349 248.622 386.067C244.753 380.932 232.882 362.675 229.362 359.896ZM436.11 366.324C437.079 376.523 439.157 384.127 447.301 390.893C449.706 392.891 453.374 395.506 456.442 396.233C452.93 391.768 449.261 387.332 446.11 382.602C443.574 378.797 439.185 369.007 436.11 366.324ZM358.945 500.687C369.924 530.275 383.875 558.233 397.343 586.702C402.03 596.609 406.889 606.452 411.486 616.398C414.411 622.725 417.018 629.353 420.301 635.493C425.687 633.15 431.045 630.742 436.374 628.269L442.658 625.476C441.252 603.404 432.47 554.474 424.738 534.88C410.145 529.631 396.343 524.159 383.027 516.112C374.891 511.195 367.189 505.376 358.945 500.687ZM547.023 516.582C541.99 517.865 537.378 519.524 532.734 521.861C520.448 528.044 509.124 536.579 497.786 544.335C492.689 547.822 486.631 551.296 482.112 555.49C476.575 577.745 470.849 600.088 464.003 621.984C485.462 630.017 498.999 652.057 508.132 672.1C510.884 678.14 513.198 684.372 515.659 690.534C524.098 682.622 534.419 675.653 541.541 666.533C549.767 655.998 554.311 643.844 561.119 632.543C566.638 623.382 573.62 616.377 581.209 608.995C583.615 606.654 586.985 602.537 590.645 602.539C591.851 602.539 592.028 602.6 592.865 603.374C593.455 605.165 593.852 606.4 593 608.23C591.406 611.654 585.685 615.065 586.226 618.994C587.098 620.247 587.655 620.459 589.022 620.986C593.16 619.181 599.9 604.977 601.957 600.566C603.744 596.78 608.081 589.467 606.738 585.189C606.314 583.838 605.462 583.108 604.202 582.556C597.639 579.684 583.429 586.8 577.591 589.702C572.989 591.989 567.19 596.297 562.041 596.675C560.788 596.077 560.389 595.885 559.898 594.465C559.473 593.237 559.494 591.971 560.167 590.853C563.322 585.611 584.825 577.899 591.378 575.958C593.702 575.27 596.2 574.962 598.605 574.684C599.411 574.587 600.221 574.518 601.032 574.476C597.818 569.85 593.324 560.422 587.747 559.259C569.813 555.52 544.538 576.363 540.86 571.253C540.126 570.233 539.92 568.921 540.238 567.721C540.911 565.181 546.178 562.767 548.476 561.673C560.874 555.765 578.051 548.054 591.797 553.058L592.263 553.232C588.604 547.107 584.216 541.946 578.582 537.552C559.899 536.672 543.691 545.16 527.284 552.961C525.373 553.87 524.17 554.612 522.65 552.547C521.966 551.616 521.774 550.411 522.136 549.313C523.968 543.686 539.274 538.7 544.932 536.53C555.319 532.545 565.187 530.524 576.238 529.481C569.542 522.638 561.327 516.547 551.314 516.442C549.878 516.427 548.453 516.454 547.023 516.582ZM434.307 536.943C438.874 553.482 442.605 570.24 445.486 587.153C446.935 596.067 448.411 613.594 450.827 620.81C451.859 621.183 452.469 621.4 453.577 620.93C457.337 619.334 459.015 610.35 460.122 606.61C464.937 590.049 467.812 572.638 473.487 556.384C470.566 552.236 467.714 548.105 463.865 544.751C453.843 542.573 444.224 539.434 434.307 536.943ZM578.874 620.854C577.352 622.58 576.123 624.277 574.951 626.257C581.915 691.46 578.656 767.284 562.003 830.866C559.718 839.589 557.488 848.331 554.438 856.822C552.182 863.107 549.984 873.341 546.076 878.497C545.03 879.877 544.158 880.279 542.49 880.587C541.156 880.088 540.717 879.772 539.915 878.593C539.456 876.878 539.762 875.518 540.24 873.826C541.644 868.849 543.938 864.158 545.476 859.218C551.809 838.889 557.753 818.258 561.428 797.264C570.812 743.656 572.055 689.945 568.554 635.746C565.675 641.072 560.992 648.141 559.968 654.081C558.983 659.8 559.926 666.668 559.994 672.494C560.099 682.532 559.974 692.572 559.617 702.605C557.909 747.079 551.622 793.123 537.819 835.549C536.037 841.026 533.764 853.76 528.116 855.759C526.946 855.494 526.799 855.296 526.177 854.236C525.301 852.742 525.421 850.11 525.68 848.471C526.113 845.736 527.51 843.097 528.365 840.468C529.563 836.786 530.524 832.989 531.527 829.25C547.836 776.355 552.993 719.546 552.466 664.347C550.072 667.728 547.565 670.932 544.892 674.096C541.609 727.288 531.715 781.154 505.321 828.096C501.943 834.104 498.002 839.624 494.231 845.374C509.469 869.998 526.941 893.333 552.45 908.113C560.079 891.655 565.901 874.114 570.841 856.681C588.313 793.705 593.401 727.936 585.823 663.022C584.688 652.521 583.233 631.81 580.061 622.755C579.783 621.962 579.511 621.423 578.874 620.854ZM457.003 626.903C445.896 632.84 434.094 638.027 422.38 642.652C428.197 646.675 433.874 650.65 439.036 655.518C460.878 676.114 472.066 705.103 477.333 734.109C479.233 744.574 479.374 755.191 481.088 765.587C492.144 758.164 503.258 750.827 514.427 743.576C514.63 733.424 514.282 723.643 512.637 713.604C508.695 689.562 496.633 659.499 479.732 642.001C473.42 635.468 465.376 630.393 457.003 626.903Z"/>
	<path fill="#9F8BE8" d="M353.127 287.944C330.239 250.596 310.963 213.642 307.73 169.055C306.703 154.881 305.91 135.469 315.793 124.175C324.383 114.359 335.868 106.719 346.975 100.057C384.042 77.5712 426.01 64.4133 469.28 61.7124C475.7 61.0966 482.576 61.3817 489.031 61.6223C525.145 62.9683 558.811 74.0979 590.167 91.743C576.076 93.9124 562.886 97.1203 549.782 102.835C504.05 122.779 461.241 163.102 426.986 198.715C412.904 213.357 399.181 228.063 386.293 243.788C374.428 257.912 363.637 272.796 353.127 287.944Z"/>
	<path fill="#9F8BE8" d="M357.489 293.981C373.045 271.943 389.751 250.738 407.537 230.456C447.922 185.275 528.461 103.25 591.617 99.7061C597.231 99.9342 602.271 100.501 607.092 103.742C616.099 109.797 617.642 119.593 619.677 129.332C616.028 124.519 612.239 119.569 607.117 116.229C602.095 112.954 596.919 111.912 591.072 113.247C577.867 116.263 561.477 128.524 550.419 136.496C513.075 163.417 480.205 194.745 449.258 228.713C440.294 238.552 431.153 248.248 422.85 258.666C410.228 274.502 398.416 291.407 387.57 308.515C384.457 313.474 381.66 318.642 378.58 323.629C371.266 313.892 364.122 304.2 357.489 293.981Z"/>
	<path fill="#3C3838" d="M465.164 223.642C477.961 209.679 490.914 195.998 504.82 183.114C522.961 166.306 572.048 125.363 594.536 120.061C598.975 120.012 602.375 121.372 605.637 124.372C621.099 138.594 630.33 161.969 641.765 179.561C647.219 187.953 654.461 195.321 658.774 204.423C662.481 212.246 665.158 222.087 665.493 230.745C666.112 246.718 658.413 265.271 647.5 276.795C637.568 287.284 623.629 292.763 609.35 293.215L612.222 289.765C617.202 283.73 622.488 277.077 625.496 269.807C626.552 267.254 627.045 264.238 627.656 261.539C630.827 247.532 631.954 233.505 630.539 219.188C630.199 215.743 629.63 208.682 626.325 206.768C625.659 206.382 624.921 206.205 624.204 206.488C620.581 207.918 616.218 223.496 614.013 227.758C607.337 240.66 592.825 248.972 579.488 253.189C569.153 256.045 558.161 256.478 547.486 256.53C539.888 256.567 532.18 256.329 524.698 257.878C512.801 260.341 498.23 268.629 491.661 279.114C488.067 284.85 487.911 290.477 489.45 296.872C480.383 295.919 471.274 293.476 464.559 286.965C459.016 281.591 454.765 273.467 454.792 265.671C454.827 255.726 461.283 249.722 468.943 244.695C470.721 243.528 473.275 242.225 474.663 240.618C475.717 239.399 475.969 238.199 475.804 236.638C475.228 231.198 469.032 226.846 465.164 223.642Z"/>
	<path fill="#D6D4F9" d="M643.587 167.676C649.522 164.783 655.24 160.6 660.823 157.037C672.368 149.725 683.821 142.27 695.179 134.672C701.141 130.697 707.247 126.148 713.682 123.009C714.02 151.806 714.11 180.605 713.953 209.403C702.354 205.585 690.957 201.282 679.479 197.124C673.187 194.844 666.582 192.166 660.089 190.598C653.258 184.557 648.408 175.317 643.587 167.676Z"/>
	<path fill="#D6D4F9" d="M279.408 145.903C285.392 144.202 291.312 142.779 297.431 141.668C298.528 141.504 298.568 141.403 299.678 141.818C299.368 150.54 298.663 159.006 299.211 167.766C302.699 223.544 332.721 275.627 365.501 319.355C373.69 330.281 381.892 341.157 391.172 351.195C410.22 372.064 431.661 390.616 455.052 406.466C463.859 412.476 473.06 417.504 482.702 422.046C493.499 427.132 510.62 432.665 519.214 440.574C527.691 448.374 531.818 469.842 532.14 480.9C528.352 477.068 524.536 473.264 520.692 469.487C508.318 458.929 495.238 449.229 481.541 440.454C468.462 432.057 454.919 424.296 442.144 415.437C380.034 372.365 317.492 304.222 286.873 234.806C274.872 207.597 268.328 174.39 279.408 145.903Z"/>
	<path fill="#D6D4F9" d="M500.101 533.167C496.708 528.885 493.808 524.017 490.639 519.545C485.373 512.041 479.632 504.882 473.451 498.112C445.374 467.075 413.225 439.743 382.807 411.052C334.928 365.891 277.627 301.493 248.036 242.716C242.643 232.003 232.606 211.977 233.519 200.163C233.972 194.305 237.342 184.823 239.319 178.987C243.845 165.621 255.19 156.881 267.46 150.947L268.375 151.149C268.79 154.357 266.839 159.441 266.321 162.749C256.401 226.063 316.501 308.051 357.252 351.896C378.305 374.467 401.255 395.191 425.849 413.84C458.546 438.432 506.856 459.246 530.751 492.212C530.165 500.511 527.943 508.304 525.441 516.18C516.782 521.519 508.33 527.186 500.101 533.167Z"/>
	<path fill="#D6D4F9" d="M190.345 258.844C193.495 251.855 197.518 245.098 201.033 238.272C209.227 222.363 217.252 206.553 226.835 191.408C226.899 194.313 225.509 197.686 225.056 200.614C223.959 207.713 223.465 215.396 223.751 222.565C224.431 239.623 229.089 256.699 234.112 272.938C253.527 335.713 289.088 388.612 335.091 434.925C343.144 443.033 351.156 451.124 359.753 458.661C376.512 473.354 393.949 486.911 411.651 500.436C426.016 511.412 440.169 521.766 453.506 534.03C444.641 531.571 435.731 529.814 426.978 526.886C392.767 516.292 363.238 495.629 336.811 471.853C323.182 459.371 310.082 446.324 297.544 432.746C264.622 396.529 192.946 308.063 190.345 258.844Z"/>
	<path fill="#FEFEFE" d="M866.933 263.216C874.101 258.088 882.118 253.539 889.584 248.784C908.734 236.683 928.039 224.83 947.496 213.229C947.545 230.829 948.198 248.693 947.445 266.264C946.873 269.23 946.964 269.965 944.381 271.705C938.014 275.994 931.153 279.428 924.894 283.938C905.706 276.697 886.209 270.229 866.933 263.216Z"/>
	<path fill="#D6D4F9" d="M670.737 214.966C683.162 220.198 696.102 224.177 708.814 228.642L762.482 247.792L891.307 293.491C909.99 300.165 928.794 306.547 947.405 313.414C947.306 320.722 947.295 328.041 947.093 335.346L813.652 289.233C800.882 284.753 788.234 279.952 775.439 275.537L712.782 253.4C703.743 250.263 694.727 247.061 685.733 243.795C681.535 242.281 676.987 240.978 672.954 239.08C674.003 230.844 672.728 222.956 670.737 214.966Z"/>
	<path fill="#FEFEFE" d="M521.215 358.316L520.467 357.246C518.893 357.008 517.677 357.173 516.358 358.078C514.757 359.175 513.779 360.733 513.498 362.642C514.019 363.984 513.973 363.901 515.279 364.515C516.25 364.512 516.571 364.308 517.318 363.759C518.352 362.999 517.814 363.202 518.971 363.059C523.438 368.157 531.505 371.17 537.575 373.938C531.86 379.429 523.776 382.957 520.639 390.674C518.717 395.405 517.589 400.662 514.948 405.052C512.936 408.396 510.468 410.147 506.648 410.955C497.034 412.989 485.561 407.376 477.66 402.384C453.349 387.027 438.575 359.365 432.491 331.915C440.731 328.976 447.921 325.833 454.868 320.421C456.254 320.697 457.882 321.099 459.268 320.665C460.73 320.207 461.879 319.24 462.498 317.883C461.208 314.827 451.613 312.227 448.396 310.036C433.904 300.17 430.796 281.381 427.645 265.434C434.382 254.532 450.93 238.764 460.301 229.339C462.853 231.198 464.942 233.098 467.091 235.402C459.387 241.478 451.327 248.482 448.276 258.163C445.747 266.184 447.574 275.156 451.36 282.499C456.387 292.249 465.903 299.17 476.265 302.369C482.832 304.396 494.296 305.827 500.473 302.238C501.758 301.492 502.315 300.806 502.633 299.373C502.308 298.608 502.074 298.384 501.382 297.903C499.042 296.274 497.652 295.233 496.664 292.489C495.695 289.803 496.193 287.015 497.465 284.521C499.712 280.114 503.984 276.858 507.999 274.13C513.311 270.521 519.3 267.162 525.521 265.432C532.364 263.528 539.707 263.997 546.735 263.978C559.365 263.945 572.572 263.572 584.706 259.796C602.653 254.209 614.574 243.188 623.291 226.761C623.331 227.775 623.359 228.79 623.375 229.805C623.716 251.572 618.881 271.457 603.899 287.781C596.67 295.658 588.512 302.582 581.078 310.25L580.875 309.756C579.865 307.359 578.738 305.692 576.214 304.77C571.743 303.135 566.369 306.12 562.344 307.819C557.215 305.471 552.502 299.681 547.28 298.448L546.605 298.976C546.486 299.505 546.337 300.023 546.364 300.575C546.585 305.092 555.318 310.749 558.664 313.374C558.548 314.333 558.64 313.919 558.368 314.822C557.653 317.195 557.058 319.106 558.067 321.487C558.851 322.351 559.425 322.833 560.615 323.03C565.14 323.782 569.825 320.601 573.219 317.98C572.658 316.952 572.177 315.989 571.763 314.888L572.506 313.778C573.628 313.323 574.248 313.068 575.477 313.583C576.25 313.907 577.087 314.709 577.427 315.478C578.241 317.324 577.203 325.044 577.594 327.991C578.604 335.601 581.26 342.912 583.691 350.157C582.502 351.932 581.292 353.585 579.374 354.629C575.115 356.946 568.039 356.724 563.586 355.311C559.263 353.938 552.248 350.379 550.325 346.132C547.262 339.366 556.325 333.169 558.048 327.235C558.452 325.844 558.589 324.856 557.861 323.592C557.299 323.551 557.23 323.506 556.604 323.683C553.2 324.647 548.813 332.561 547.298 335.673C545.531 339.304 544.559 343.153 545.971 347.086C547.968 352.652 553.153 355.574 558.182 357.946C556.552 360.394 554.281 362.867 552.092 364.843C549.039 367.598 545.465 369.27 541.294 368.872C534.316 368.205 525.733 363.569 521.215 358.316ZM563.889 274.686C559.644 275.299 552.083 275.767 548.731 278.534L548.245 279.502C549.174 281.443 551.449 282.296 553.375 282.967C558.341 284.698 563.756 285.281 568.789 286.903C575.172 288.96 581.341 292.573 587.864 294.037C588.01 293.987 588.156 293.935 588.303 293.888C592.514 292.557 595.221 295.441 598.354 290.062C599.274 288.482 599.7 286.38 599.169 284.598C598.811 283.398 597.956 282.358 596.795 281.864C595.205 281.188 593.157 281.497 591.673 282.31C590.854 282.76 590.084 283.329 589.327 283.875C585.967 278.9 582.474 276.957 576.537 275.769C572.56 274.973 567.927 274.261 563.889 274.686Z"/>
	<path fill="#D6D4F9" d="M478.313 548.619C457.347 524.316 436.734 509.522 411.519 490.379C395.002 477.841 378.526 464.982 362.958 451.274C351.558 441.237 340.934 430.012 330.576 418.909C290.968 376.453 263.14 333.64 244.352 278.295C239.109 262.851 233.57 244.759 232.552 228.466C234.761 232.088 236.239 236.636 238.108 240.518C241.937 248.32 246.051 255.98 250.44 263.482C275.801 305.165 305.748 343.879 339.721 378.9C359.415 399.261 379.69 419.052 400.519 438.25C433.403 468.535 469.758 498.906 492.967 537.557L487.475 541.886C484.449 544.165 481.366 546.376 478.313 548.619Z"/>
	<path fill="#D6D4F9" d="M603.242 299.488C612.797 301.458 621.628 300.711 630.72 297.151C649.036 289.978 660.188 276.245 667.854 258.558C682.563 264.596 698.36 269.519 713.54 274.291L713.588 545.405L713.481 625.505C713.47 635.732 714.512 654.037 713.063 663.617C712.282 654.945 712.961 645.715 713.027 636.99C703.338 642.293 693.201 648.466 684.272 654.951C655.651 644.385 627.29 633.069 598.13 624.031C603.353 615.663 613.211 596.708 614.568 587.124C614.875 584.958 614.875 582.814 614.041 580.764C611.648 574.882 606.448 569.515 603.341 563.884C601.618 560.761 600.65 557.092 599.455 553.743C597.392 547.963 594.651 543.601 591.043 538.631C597.344 536.318 614.448 523.673 621.162 519.265C633.989 510.844 647.019 502.714 659.762 494.168C677.325 482.39 694.924 470.104 713.397 459.806L713.375 399.077C706.295 402.308 699.834 406.971 693.322 411.197L665.763 428.967L602.451 469.87C588.485 478.881 574.279 487.44 560.513 496.782C555.62 500.103 548.512 503.943 544.893 508.622L534.287 512.548C537.658 500.558 540.257 488.033 539.516 475.512C538.194 453.156 527.869 433.268 511.305 418.463C525.864 410.796 521.371 401.427 529.211 391.371C538.316 379.692 555.809 376.318 563.381 363.318C564.147 363.462 564.915 363.595 565.685 363.716C571.724 364.705 580.135 364.322 585.177 360.426C595.134 352.732 587.141 338.008 585.341 328.41C584.547 324.178 584.632 320.597 585.208 316.358C591.029 310.572 597.237 305.088 603.242 299.488Z"/>
	<path fill="#D6D4F9" d="M924.894 283.938C931.153 279.428 938.014 275.994 944.381 271.705C946.964 269.965 946.873 269.23 947.445 266.264C947.449 274.828 947.561 283.411 947.214 291.969C939.847 289.486 932.325 285.921 924.894 283.938Z"/>
	<path fill="#060316" d="M587.864 294.037C581.341 292.573 575.172 288.96 568.789 286.903C563.756 285.281 558.341 284.698 553.375 282.967C551.449 282.296 549.174 281.443 548.245 279.502L548.731 278.534C552.083 275.767 559.644 275.299 563.889 274.686C567.927 274.261 572.56 274.973 576.537 275.769C582.474 276.957 585.967 278.9 589.327 283.875C590.084 283.329 590.854 282.76 591.673 282.31C593.157 281.497 595.205 281.188 596.795 281.864C597.956 282.358 598.811 283.398 599.169 284.598C599.7 286.38 599.274 288.482 598.354 290.062C595.221 295.441 592.514 292.557 588.303 293.888C588.156 293.935 588.01 293.987 587.864 294.037Z"/>
	<path fill="#3C3838" d="M390.224 320.075C398.658 304.193 409.52 289.212 420.27 274.822C421.455 276.077 421.792 279.285 422.249 281.083C426.233 296.779 432.014 308.941 446.074 317.71C436.895 322.116 427.844 325.636 417.624 326.483C407.227 327.162 399.343 325.041 390.224 320.075Z"/>
	<path fill="#D6D4F9" d="M836.968 318.509C829.201 322.211 822.266 327.562 814.953 332.062C787.644 348.872 761.616 367.614 733.989 383.954C734.889 349.92 734.224 315.586 734.014 281.535C758.585 290.61 783.263 299.392 808.043 307.879C817.725 311.274 827.228 315.314 836.968 318.509Z"/>
	<path fill="#FEFEFE" d="M733.989 383.954C761.616 367.614 787.644 348.872 814.953 332.062C822.266 327.562 829.201 322.211 836.968 318.509C851.472 323.728 866.114 328.519 880.625 333.711C886.203 335.707 892.065 337.49 897.487 339.86C891.832 344.667 884.848 348.543 878.662 352.675C862.395 363.542 845.899 373.99 829.479 384.618C805.231 400.315 781.271 416.399 756.74 431.663C750.409 435.603 740.673 442.809 734.043 444.992C733.514 424.699 733.943 404.256 733.989 383.954Z"/>
	<path fill="#FEFEFE" d="M430.746 378.159C421.766 370.172 387.731 339.255 383.95 330.134C383.451 328.929 384.593 327.686 385.166 326.668C399.547 333.158 410.562 335.897 426.365 333.29C426.414 343.036 426.595 352.733 427.904 362.406C428.622 367.709 429.899 372.883 430.746 378.159Z"/>
	<path fill="#D6D4F9" d="M897.487 339.86C913.269 344.999 932.2 350.828 947.145 357.353C947.512 399.823 947.625 442.295 947.486 484.766C933.118 494.804 918.144 503.871 903.413 513.349L823.234 564.807C810.83 572.744 798.272 580.675 786.06 588.896C768.942 600.421 751.858 612.425 733.855 622.543C734.644 599.736 733.903 576.686 733.829 553.852L734.043 444.992C740.673 442.809 750.409 435.603 756.74 431.663C781.271 416.399 805.231 400.315 829.479 384.618C845.899 373.99 862.395 363.542 878.662 352.675C884.848 348.543 891.832 344.667 897.487 339.86Z"/>
	<path fill="#060316" d="M521.215 358.316C520.788 360.362 520.694 361.744 518.971 363.059C517.814 363.202 518.352 362.999 517.318 363.759C516.571 364.308 516.25 364.512 515.279 364.515C513.973 363.901 514.019 363.984 513.498 362.642C513.779 360.733 514.757 359.175 516.358 358.078C517.677 357.173 518.893 357.008 520.467 357.246L521.215 358.316Z"/>
	<path fill="#9F8BE8" d="M474.175 770.821C463.524 777.732 452.555 784.12 441.631 790.586C429.528 797.749 417.295 805.069 404.719 811.382C354.451 836.113 302.022 856.186 248.091 871.35C235.365 874.853 215.348 880.456 202.383 879.288C190.126 878.183 178.779 867.112 171.38 858.149C138.963 818.879 124.637 743.507 121.846 693.6C120.417 668.055 121.356 641.828 123.813 616.37C126.513 588.412 132.492 560.398 139.02 533.107C154.741 467.388 175.505 404.351 229.362 359.896C232.882 362.675 244.753 380.932 248.622 386.067C257.208 397.349 266.109 408.388 275.314 419.171C291.19 437.974 308.172 455.815 326.168 472.6C331.221 477.33 336.416 481.906 341.745 486.323C345.315 489.289 349.55 492.216 352.695 495.583C351.726 496.171 351.187 496.568 350.56 497.518C350.278 502.079 353.349 507.499 354.916 511.753C366.433 543.013 381.782 572.538 396.041 602.596C401.007 613.067 409.131 627.916 412.462 638.675C390.441 649.034 368.196 658.913 345.745 668.303C334.612 673.015 323.378 678.248 311.959 682.172C313.797 675.588 316.967 669.117 319.269 662.65C324.567 647.766 328.73 632.134 330.879 616.468C339.085 556.645 328.52 491.768 291.259 442.922C276.619 423.729 258.368 407.885 235.873 398.736C230.217 396.436 223.828 394.241 217.734 393.547C215.489 393.292 213.58 393.185 211.697 394.628C211.03 395.786 211.017 396.316 211.149 397.636C211.784 398.544 212.02 398.91 213.069 399.37C216.162 400.728 219.974 401.349 223.239 402.308C228.375 403.817 233.435 405.796 238.328 407.967C272.952 423.329 298.712 460.72 311.769 495.206C328.286 538.831 330.442 590.373 319.36 635.612C315.431 651.651 309.799 666.692 303.029 681.712C292.958 679.654 282.829 678.047 273.021 674.869C245.603 665.984 214.008 645.645 194.128 624.905C189.115 619.675 184.736 613.683 180.359 607.919C176.321 602.602 164.835 584.671 160.582 582.2C159.539 581.594 158.026 581.629 156.928 581.97C155.892 582.292 154.877 583.442 154.515 584.464C152.947 588.882 156.849 595.473 158.865 599.319C171.353 623.153 191.657 649.876 214.841 663.776C224.047 669.296 234.167 673.022 244.374 676.211C261.392 681.693 279.032 685.329 296.649 688.245C278.728 695.824 262.217 708.944 248.364 722.548C231.667 738.943 217.439 759.834 208.468 781.438C206.673 785.76 204.364 790.918 204.455 795.684C204.49 797.522 204.862 799.001 206.246 800.295C209.556 800.624 211.342 797.006 212.462 794.333C214.765 788.831 216.671 783.21 219.213 777.8C228.564 758.328 241.443 740.758 257.197 725.98C267.217 716.431 278.565 706.907 290.613 700.047C302.259 693.416 315.882 689.247 328.264 684.07C356.732 672.167 385.742 660.451 413.403 646.788C419.338 650.053 424.974 653.445 430.181 657.819C462.391 684.881 470.83 731.041 474.175 770.821ZM245.901 531.344C244.505 532.687 243.252 533.806 243.233 535.904C243.2 539.504 248.302 548.106 250.216 551.656C256.953 564.151 264.775 576.066 272.012 588.275C279.792 601.51 287.22 614.95 294.287 628.579C296.174 632.138 298.331 637.917 301.096 640.719C301.204 640.83 301.32 640.935 301.45 641.02C302.506 641.709 303.76 642.181 304.926 642.651C306.124 641.358 307.407 640.29 307.397 638.403C307.369 633.337 304.79 627.301 303.222 622.511C294.356 595.422 275.338 554.887 254.258 535.523C251.723 533.194 249.451 531.306 245.901 531.344ZM272.763 692.212C245.355 694.714 201.171 706.696 183.602 728.335C182.245 730.007 181.35 731.444 181.035 733.583C181.402 734.808 181.486 735.21 182.685 735.891C183.745 736.494 185.368 736.576 186.534 736.461C196.79 732.106 206.41 726.443 216.3 721.342C222.882 717.947 229.714 714.949 236.511 712.017C243.228 709.119 250.315 705.554 257.26 703.372C262.86 701.613 269.329 700.943 274.692 698.741C275.955 698.223 277.398 697.427 278.013 696.154C278.317 695.526 278.052 694.94 277.938 694.286C277.081 693.256 276.44 692.393 275.026 692.142C274.337 692.02 273.461 692.151 272.763 692.212ZM292.039 702.833C279.793 712.982 268.456 726.516 260.035 739.974C248.4 758.569 236.286 788.895 234.364 810.741C234.162 813.047 234.215 816.672 235.859 818.517C237.043 819.846 238.98 819.695 240.623 819.718C244.285 816.356 249.325 801.021 251.717 795.461C260.763 774.44 270.274 753.294 281.516 733.358C283.801 729.305 296.947 709.318 296.659 706.405C296.531 705.112 296.177 704.37 295.121 703.584C294.263 702.946 293.051 702.798 292.039 702.833Z"/>
	<path fill="#12042B" d="M456.442 396.233C453.374 395.506 449.706 392.891 447.301 390.893C439.157 384.127 437.079 376.523 436.11 366.324C439.185 369.007 443.574 378.797 446.11 382.602C449.261 387.332 452.93 391.768 456.442 396.233Z"/>
	<path fill="#FEFEFE" d="M544.893 508.622C548.512 503.943 555.62 500.103 560.513 496.782C574.279 487.44 588.485 478.881 602.451 469.87L665.763 428.967L693.322 411.197C699.834 406.971 706.295 402.308 713.375 399.077L713.397 459.806C694.924 470.104 677.325 482.39 659.762 494.168C647.019 502.714 633.989 510.844 621.162 519.265C614.448 523.673 597.344 536.318 591.043 538.631C586.596 531.188 582.248 524.116 575.607 518.377C566.969 510.913 556.169 507.831 544.893 508.622Z"/>
	<path fill="#FEFEFE" d="M733.855 622.543C751.858 612.425 768.942 600.421 786.06 588.896C798.272 580.675 810.83 572.744 823.234 564.807L903.413 513.349C918.144 503.871 933.118 494.804 947.486 484.766C947.791 510.174 947.488 535.545 947.542 560.943C904.174 590.874 859.67 619.192 815.521 647.977L779.04 671.66C773.237 675.403 766.475 678.971 761.186 683.366C752.163 679.819 743.025 676.57 733.788 673.625C733.423 656.723 733.032 639.43 733.855 622.543Z"/>
	<path fill="#9F8BE8" d="M420.301 635.493C417.018 629.353 414.411 622.725 411.486 616.398C406.889 606.452 402.03 596.609 397.343 586.702C383.875 558.233 369.924 530.275 358.945 500.687C367.189 505.376 374.891 511.195 383.027 516.112C396.343 524.159 410.145 529.631 424.738 534.88C432.47 554.474 441.252 603.404 442.658 625.476L436.374 628.269C431.045 630.742 425.687 633.15 420.301 635.493Z"/>
	<path fill="#3C3838" d="M482.112 555.49C486.631 551.296 492.689 547.822 497.786 544.335C509.124 536.579 520.448 528.044 532.734 521.861C537.378 519.524 541.99 517.865 547.023 516.582C548.453 516.454 549.878 516.427 551.314 516.442C561.327 516.547 569.542 522.638 576.238 529.481C565.187 530.524 555.319 532.545 544.932 536.53C539.274 538.7 523.968 543.686 522.136 549.313C521.774 550.411 521.966 551.616 522.65 552.547C524.17 554.612 525.373 553.87 527.284 552.961C543.691 545.16 559.899 536.672 578.582 537.552C584.216 541.946 588.604 547.107 592.263 553.232L591.797 553.058C578.051 548.054 560.874 555.765 548.476 561.673C546.178 562.767 540.911 565.181 540.238 567.721C539.92 568.921 540.126 570.233 540.86 571.253C544.538 576.363 569.813 555.52 587.747 559.259C593.324 560.422 597.818 569.85 601.032 574.476C600.221 574.518 599.411 574.587 598.605 574.684C596.2 574.962 593.702 575.27 591.378 575.958C584.825 577.899 563.322 585.611 560.167 590.853C559.494 591.971 559.473 593.237 559.898 594.465C560.389 595.885 560.788 596.077 562.041 596.675C567.19 596.297 572.989 591.989 577.591 589.702C583.429 586.8 597.639 579.684 604.202 582.556C605.462 583.108 606.314 583.838 606.738 585.189C608.081 589.467 603.744 596.78 601.957 600.566C599.9 604.977 593.16 619.181 589.022 620.986C587.655 620.459 587.098 620.247 586.226 618.994C585.685 615.065 591.406 611.654 593 608.23C593.852 606.4 593.455 605.165 592.865 603.374C592.028 602.6 591.851 602.539 590.645 602.539C586.985 602.537 583.615 606.654 581.209 608.995C573.62 616.377 566.638 623.382 561.119 632.543C554.311 643.844 549.767 655.998 541.541 666.533C534.419 675.653 524.098 682.622 515.659 690.534C513.198 684.372 510.884 678.14 508.132 672.1C498.999 652.057 485.462 630.017 464.003 621.984C470.849 600.088 476.575 577.745 482.112 555.49Z"/>
	<path fill="#12042B" d="M304.926 642.651C303.76 642.181 302.506 641.709 301.45 641.02C301.32 640.935 301.204 640.83 301.096 640.719C298.331 637.917 296.174 632.138 294.287 628.579C287.22 614.95 279.792 601.51 272.012 588.275C264.775 576.066 256.953 564.151 250.216 551.656C248.302 548.106 243.2 539.504 243.233 535.904C243.252 533.806 244.505 532.687 245.901 531.344C249.451 531.306 251.723 533.194 254.258 535.523C275.338 554.887 294.356 595.422 303.222 622.511C304.79 627.301 307.369 633.337 307.397 638.403C307.407 640.29 306.124 641.358 304.926 642.651Z"/>
	<path fill="#5E3FE1" d="M460.122 606.61C459.015 610.35 457.337 619.334 453.577 620.93C452.469 621.4 451.859 621.183 450.827 620.81C448.411 613.594 446.935 596.067 445.486 587.153C442.605 570.24 438.874 553.482 434.307 536.943C444.224 539.434 453.843 542.573 463.865 544.751C467.714 548.105 470.566 552.236 473.487 556.384C467.812 572.638 464.937 590.049 460.122 606.61Z"/>
	<path fill="#D6D4F9" d="M761.186 683.366C766.475 678.971 773.237 675.403 779.04 671.66L815.521 647.977C859.67 619.192 904.174 590.874 947.542 560.943L947.497 685.484C947.484 707.008 948.048 728.775 947.186 750.276C910.872 738.541 875.237 724.457 839.338 711.512L794.865 695.593C783.618 691.66 772.15 688.033 761.186 683.366Z"/>
	<path fill="#D6D4F9" d="M574.951 626.257C576.123 624.277 577.352 622.58 578.874 620.854C579.511 621.423 579.783 621.962 580.061 622.755C583.233 631.81 584.688 652.521 585.823 663.022C593.401 727.936 588.313 793.705 570.841 856.681C565.901 874.114 560.079 891.655 552.45 908.113C526.941 893.333 509.469 869.998 494.231 845.374C498.002 839.624 501.943 834.104 505.321 828.096C531.715 781.154 541.609 727.288 544.892 674.096C547.565 670.932 550.072 667.728 552.466 664.347C552.993 719.546 547.836 776.355 531.527 829.25C530.524 832.989 529.563 836.786 528.365 840.468C527.51 843.097 526.113 845.736 525.68 848.471C525.421 850.11 525.301 852.742 526.177 854.236C526.799 855.296 526.946 855.494 528.116 855.759C533.764 853.76 536.037 841.026 537.819 835.549C551.622 793.123 557.909 747.079 559.617 702.605C559.974 692.572 560.099 682.532 559.994 672.494C559.926 666.668 558.983 659.8 559.968 654.081C560.992 648.141 565.675 641.072 568.554 635.746C572.055 689.945 570.812 743.656 561.428 797.264C557.753 818.258 551.809 838.889 545.476 859.218C543.938 864.158 541.644 868.849 540.24 873.826C539.762 875.518 539.456 876.878 539.915 878.593C540.717 879.772 541.156 880.088 542.49 880.587C544.158 880.279 545.03 879.877 546.076 878.497C549.984 873.341 552.182 863.107 554.438 856.822C557.488 848.331 559.718 839.589 562.003 830.866C578.656 767.284 581.915 691.46 574.951 626.257Z"/>
	<path fill="#9F8BE8" d="M422.38 642.652C434.094 638.027 445.896 632.84 457.003 626.903C465.376 630.393 473.42 635.468 479.732 642.001C496.633 659.499 508.695 689.562 512.637 713.604C514.282 723.643 514.63 733.424 514.427 743.576C503.258 750.827 492.144 758.164 481.088 765.587C479.374 755.191 479.233 744.574 477.333 734.109C472.066 705.103 460.878 676.114 439.036 655.518C433.874 650.65 428.197 646.675 422.38 642.652Z"/>
	<path fill="#FEFEFE" d="M684.272 654.951C693.201 648.466 703.338 642.293 713.027 636.99C712.961 645.715 712.282 654.945 713.063 663.617L712.94 664.445L712.31 664.779C703.085 663.128 692.904 658.616 684.272 654.951Z"/>
	<path fill="#D6D4F9" d="M591.277 642.869C600.557 647.348 610.402 650.434 620.126 653.786C633.797 658.413 647.38 663.296 660.868 668.432C648.025 677.32 634.975 685.702 621.776 694.045C614.183 698.844 603.125 704.551 596.869 710.672C596.266 687.92 593.944 665.45 591.277 642.869Z"/>
	<path fill="#9F8BE8" d="M65.7278 1024L76.4525 922.381C79.2007 897.627 82.3657 872.857 84.7001 848.065C86.2483 831.622 86.7266 815.077 88.1316 798.618C91.1533 763.22 95.783 728.501 102.774 693.664C105.129 681.926 106.866 669.486 110.519 658.108C110.877 723.834 111.663 794.426 142.198 854.31C148.813 867.283 156.406 879.689 166.855 889.981C179.783 902.715 194.473 908.967 212.586 908.699C261.539 907.977 388.756 831.513 433.722 804.658C433.621 816.266 434.558 828.016 435.292 839.601C436.545 859.436 438.036 879.255 439.763 899.055C441.874 926.76 444.579 954.416 447.877 982.005C449.412 996.021 450.556 1010.07 452.815 1024L304.748 1024C328.808 987.931 347.98 945.93 362.497 905.187C364.659 899.118 369.09 888.694 368.872 882.431C368.817 880.83 368.483 879.729 367.245 878.638C366.327 878.424 365.544 878.203 364.599 878.457C360.814 879.475 358.952 890.622 357.789 894.208C343.139 939.377 320.224 983.317 296.002 1024L65.7278 1024Z"/>
	<path fill="#FEFEFE" d="M596.869 710.672C603.125 704.551 614.183 698.844 621.776 694.045C634.975 685.702 648.025 677.32 660.868 668.432C678.457 674.697 696.1 681.122 713.497 687.9L713.497 712.893C704.761 716.644 696.896 723.112 688.897 728.237C665.166 743.586 641.621 759.222 618.268 775.141C611.54 779.72 598.763 789.535 592.34 792.331C593.976 778.207 595.392 764.116 596.042 749.905C596.639 736.845 596.546 723.743 596.869 710.672Z"/>
	<path fill="#12042B" d="M186.534 736.461C185.368 736.576 183.745 736.494 182.685 735.891C181.486 735.21 181.402 734.808 181.035 733.583C181.35 731.444 182.245 730.007 183.602 728.335C201.171 706.696 245.355 694.714 272.763 692.212C273.461 692.151 274.337 692.02 275.026 692.142C276.44 692.393 277.081 693.256 277.938 694.286C278.052 694.94 278.317 695.526 278.013 696.154C277.398 697.427 275.955 698.223 274.692 698.741C269.329 700.943 262.86 701.613 257.26 703.372C250.315 705.554 243.228 709.119 236.511 712.017C229.714 714.949 222.882 717.947 216.3 721.342C206.41 726.443 196.79 732.106 186.534 736.461Z"/>
	<path fill="#D6D4F9" d="M734.249 919.113C733.529 882.152 733.986 845.119 734.004 808.148C734.023 770.67 733.619 733.159 734.052 695.685C757.012 704.23 780.353 711.853 803.418 720.116L947.353 772.053L947.398 930.41C947.311 952.514 947.74 974.701 947.062 996.791C933.507 992.766 920.28 987.34 907.047 982.376C890.844 976.318 874.594 970.385 858.299 964.579L773.153 933.554C760.189 928.768 747.039 924.338 734.249 919.113Z"/>
	<path fill="#12042B" d="M240.623 819.718C238.98 819.695 237.043 819.846 235.859 818.517C234.215 816.672 234.162 813.047 234.364 810.741C236.286 788.895 248.4 758.569 260.035 739.974C268.456 726.516 279.793 712.982 292.039 702.833C293.051 702.798 294.263 702.946 295.121 703.584C296.177 704.37 296.531 705.112 296.659 706.405C296.947 709.318 283.801 729.305 281.516 733.358C270.274 753.294 260.763 774.44 251.717 795.461C249.325 801.021 244.285 816.356 240.623 819.718Z"/>
	<path fill="#D6D4F9" d="M592.34 792.331C598.763 789.535 611.54 779.72 618.268 775.141C641.621 759.222 665.166 743.586 688.897 728.237C696.896 723.112 704.761 716.644 713.497 712.893C713.632 779.167 714.267 845.565 713.047 911.825C699.996 907.218 579.03 864.518 577.138 862.605C583.982 839.893 589.256 815.828 592.34 792.331Z"/>
	<path fill="#9F8BE8" d="M460.648 1024C454.321 973.034 449.317 921.913 445.639 870.688C443.891 847.399 443.082 824.035 440.964 800.772C451.142 794.311 461.157 787.271 471.527 781.158C473.16 823.689 477.784 866.333 482.911 908.565C487.305 947.192 492.8 985.686 499.392 1024L460.648 1024Z"/>
	<path fill="#060316" d="M296.002 1024C320.224 983.317 343.139 939.377 357.789 894.208C358.952 890.622 360.814 879.475 364.599 878.457C365.544 878.203 366.327 878.424 367.245 878.638C368.483 879.729 368.817 880.83 368.872 882.431C369.09 888.694 364.659 899.118 362.497 905.187C347.98 945.93 328.808 987.931 304.748 1024L296.002 1024Z"/>
</svg>
