<?xml version="1.0" encoding="utf-8" ?>
<svg xmlns="http://www.w3.org/2000/svg" xmlns:xlink="http://www.w3.org/1999/xlink" width="1024" height="1024">
	<path fill="#9F8BE8" d="M0 0L417.151 0C423.815 21.2314 431.864 41.9387 438.195 63.3201C449.741 103.545 457.253 144.82 460.619 186.534C461.372 195.701 462.444 205.157 462.474 214.349L429.248 177.24C421.471 168.583 413.58 158.235 403.925 151.623C398.976 148.235 393.328 146.192 387.323 145.852C384.199 145.675 381.108 146.002 378.059 146.685C370.311 148.419 362.662 151.486 355.121 153.986L317.964 166.022C287.821 175.745 257.455 184.762 226.89 193.067C211.232 197.262 194.998 199.659 179.674 205.025C173.168 207.303 168.14 210.646 163.017 215.271C154.323 223.121 146.491 232.286 138.224 240.619C124.828 254.121 108.743 268.9 97.2206 283.889C85.3386 299.346 75.7724 316.843 64.9263 333.067C49.5359 356.087 33.7181 379.201 16.6366 401.001C11.3081 407.802 5.49029 414.157 0 420.813L0 0Z"/>
	<defs>
		<linearGradient id="gradient_0" gradientUnits="userSpaceOnUse" x1="953.38684" y1="468.02716" x2="-10.242129" y2="572.79895">
			<stop offset="0" stop-color="#030015"/>
			<stop offset="1" stop-color="#08032E"/>
		</linearGradient>
	</defs>
	<path fill="url(#gradient_0)" d="M417.151 0L423.62 0C449.912 66.7629 469.265 149.183 468.44 221.162C474.122 227.486 481.832 239.178 489.125 242.997C492.907 244.977 497.53 245.974 501.608 247.179C508.512 249.218 515.472 251.414 522.5 252.983C522.47 241.688 521.207 229.684 522.007 218.466C521.688 215.53 521.899 212.571 521.584 209.623C520.832 206.024 520.747 202.045 520.396 198.374C519.61 190.446 518.881 182.512 518.209 174.574C510.589 173.194 484.963 171.876 480.944 168.106C480.742 167.557 480.404 167.071 480.586 166.48C480.853 165.608 481.988 164.347 482.83 163.969C485.827 162.621 512.285 166.954 516.873 167.813C515.819 155.682 514.12 143.562 512.627 131.475C506.987 130.846 479.854 129.87 477.261 128.023C476.662 127.596 476.491 126.691 476.411 126.007C476.263 124.739 476.81 123.946 477.611 123.082C478.796 122.627 479.772 122.4 481.049 122.374C485.271 122.288 489.617 123.158 493.836 123.455C499.587 123.86 505.46 123.789 511.236 124.054L503.741 86.2052C493.712 86.3312 483.631 86.7465 473.609 86.6605C471.157 86.6395 468.658 86.8195 466.87 84.9835C466.594 83.6994 466.412 83.3243 467.195 82.15C467.763 81.2993 469.345 80.4315 470.285 80.2089C476.493 78.7389 494.188 79.3594 501.893 79.0197C499.592 66.5391 496.717 54.1714 493.276 41.956C486.225 42.0899 479.191 42.6843 472.218 43.7355C468.779 44.2574 465.323 45.1857 461.865 45.5088C460.921 45.597 459.845 45.5903 458.937 45.2806C457.564 44.812 457.273 44.3334 456.644 43.0776C456.769 42.0058 456.767 41.5739 457.524 40.7328C461.312 36.527 485.301 35.3582 491.414 34.9476C488.484 23.1977 484.676 11.7032 481.575 0L508.184 0C510.792 5.06524 516.167 19.3754 514.384 24.6406C513.514 27.2088 511.353 28.7381 508.951 29.7663C505.216 31.365 500.973 32.2742 497.054 33.3586L500.812 45.5687C505.819 43.6306 513.388 39.8275 518.647 42.2469C520.882 43.2753 522.078 45.3939 522.809 47.647C524.586 53.1273 525.221 59.3593 526.369 65.0188C524.733 69.1335 523.051 71.3175 518.913 73.1616C515.537 74.6658 511.479 75.5971 507.873 76.4695C508.747 81.0953 509.552 85.734 510.285 90.3842C514.967 88.7668 524.912 84.5262 529.453 86.9773C533.124 88.9582 533.896 95.3579 534.483 99.0488C535.231 103.746 536.992 111.431 533.582 115.381C530.63 118.801 520.7 119.193 516.221 119.714C516.804 123.956 517.735 128.126 518.378 132.355C523.54 130.982 532.982 128.058 537.831 131.407C541.916 134.228 542.344 144.125 542.66 148.672C542.87 151.702 543.194 156.355 540.969 158.735C538.099 161.806 527.504 162.549 523.295 163.188C523.724 167.756 524.417 172.346 524.675 176.92C529.44 176.061 538.337 173.782 542.597 176.57C545.542 178.497 546.656 182.926 547.158 186.165C547.825 190.461 549.229 198.929 546.227 202.571C543.258 206.174 531.836 205.41 527.23 205.425C527.317 207.494 527.547 209.656 527.431 211.719C526.738 214.544 526.986 232.586 527.78 234.104C527.879 230.817 527.537 227.167 528.076 223.947C528.687 230.446 528.374 237.04 528.513 243.563C534.794 243.525 541.148 243.283 547.422 243.491L547.871 243.679C549.867 238.404 546.442 232.456 546.946 227.113C547.219 224.221 545.995 223.278 544.764 220.878L545.461 220.518C548.393 222.042 548.937 223.485 549.986 226.472L550.235 227.195L550.845 226.589C551.575 230.185 552.05 234.624 551.976 238.301C551.922 240.983 551.437 243.699 549.379 245.594C545.001 249.624 535.034 248.244 529.456 248.149L529.505 259.982C535.19 260.012 540.801 260.141 546.472 260.582C548.57 262.176 549.961 263.652 551.468 265.832C551.652 272.535 550.71 279.163 548.321 285.451C545.885 286.765 543.23 287.588 540.625 288.506C547.447 291.433 554.269 294.127 561.379 296.271C562.208 294.341 563.012 292.493 564.148 290.714C564.791 290.688 565.383 290.693 566.027 290.75C566.231 290.768 566.435 290.791 566.64 290.812C564.844 289.237 563.061 288.199 561.894 286.048C561.232 281.647 565.486 276.696 567.532 273.079C568.968 270.538 569.97 267.674 571.7 265.31C572.627 264.043 573.875 263.232 575.457 263.06C581.502 262.401 588.92 269.129 593.402 272.654C596.804 267.925 600.093 263.115 603.265 258.229C599.57 255.937 590.121 251.233 589.177 246.796C588.292 242.636 592.149 236.969 594.343 233.617C596.218 230.75 599.48 225.584 603.223 225.204C608.847 224.634 616.032 232.126 619.843 235.568C624.019 231.329 627.354 227.044 630.63 222.067C626.738 219.459 616.044 213.485 615.425 208.779C614.743 203.59 620.85 196.345 623.859 192.553C625.778 190.136 628.831 186.804 632.195 186.82C637.397 186.845 643.739 195.288 646.994 198.986C649.743 196.342 652.721 193.998 655.696 191.616C656.379 188.641 657.177 186.167 658.54 183.432C653.128 179.24 647.596 175.372 643.399 169.895C645.734 164.433 650.788 156.448 655.209 152.503C656.965 150.937 659.111 149.837 661.522 150.117C667.469 150.808 673.044 158.364 676.746 162.667C680.805 157.575 684.779 153.501 687.896 147.655C682.467 143.447 675.476 140.118 672.963 133.265C673.05 131.792 673.442 130.664 674.099 129.338C676.652 124.181 683.663 114.441 689.313 112.642C695.614 113.538 700.774 120.648 705.18 124.849C710.765 120.905 714.45 114.897 718.257 109.34C716.877 108.574 715.508 107.79 714.149 106.988C709.589 104.299 704.773 101.17 703.363 95.749C704.249 89.8531 709.377 84.1417 713.175 79.7236C714.739 77.9041 716.786 75.4214 719.325 75.2312C726.293 77.3591 731.22 83.8773 736.071 88.9972C741.011 85.4421 744.094 80.3958 747.572 75.5037C743.511 72.8462 733.977 65.6732 733.307 60.5257C732.93 57.6347 735.707 53.8905 737.369 51.6834C740.056 48.1148 745.451 40.7254 750.333 40.5254C753.875 40.3802 763.667 52.1167 766.668 54.9605C771.501 51.3634 774.445 46.8346 777.891 41.9944C773.83 38.007 766.041 31.9608 764.535 26.5714C764.841 23.1996 766.936 20.3875 768.953 17.7792C771.609 14.3453 777.787 5.81767 782.647 5.894C786.238 5.95039 794.883 16.7005 797.757 19.4644L798.872 19.6184C799.68 20.8899 799.719 21.6635 799.822 23.1215C793.79 27.3885 785.449 37.904 782.109 44.544C780.895 46.957 780.116 49.6427 779.273 52.2035C783.764 57.7203 798.766 69.7413 800.787 74.4973C801.341 75.8024 801.022 76.7732 800.611 78.058C799.781 78.837 799.516 79.1856 798.277 79.0966C792.897 78.7099 777.059 60.9363 773.623 56.1812C771.562 58.3866 768.661 59.3281 766.308 61.2634C758.498 67.6852 752.542 76.0479 747.977 85.0088C753.351 92.7956 762.315 98.1234 767.877 105.046C768.798 106.192 770.016 108.091 769.976 109.636C769.939 111.051 769.684 111.262 768.736 112.18C768.113 112.304 767.98 112.392 767.384 112.309C761.535 111.487 747.308 94.7514 742.91 89.8074C735.091 95.2609 722.545 107.511 719.943 116.751C719.55 118.149 719.468 119.5 720.02 120.879C722.138 126.174 737.69 134.841 740.206 140.294C740.703 141.371 740.855 142.457 740.249 143.544C739.619 144.674 738.674 145.091 737.498 145.4C732.121 144.624 717.369 128.479 713.544 123.965C708.616 129 690.044 147.781 690.337 154.382C690.561 159.446 706.461 169.948 710.045 173.81C711.646 175.535 712.547 177.029 712.475 179.426C711.83 180.65 711.834 180.684 710.576 181.244C705.588 181.194 689.563 165.275 684.929 160.869C676.734 167.813 664.829 182.036 660.708 191.769C664.482 195.445 668.479 198.885 672.676 202.069C675.386 204.103 678.635 206.028 681.062 208.368C682.032 209.302 682.928 210.38 683.502 211.608C684.186 213.068 684.151 214.203 683.57 215.71C682.537 216.513 682.168 216.885 680.756 216.679C676.409 216.044 659.754 200.43 656.476 196.899C650.311 202.544 636.875 220.588 632.616 227.999C636.476 231.667 640.481 235.179 644.621 238.528C648.323 241.516 653.133 243.96 655.987 247.783C657.184 249.388 657.738 250.78 657.441 252.791C656.78 253.464 656.564 253.792 655.523 253.728C651.103 253.457 638.239 242.774 634.809 239.312C632.937 237.423 631.307 235.225 629.684 233.119C621.711 239.183 611.479 254.91 606.695 263.708C610.724 267.239 630.029 280.626 631.247 283.96C631.664 285.101 631.672 285.3 631.124 286.346C630.351 286.871 629.736 287.143 628.812 287.245C627.412 287.401 625.922 287.186 624.639 286.594C618.984 283.986 608.032 273.817 602.9 269.509C600.157 273.659 597.082 277.58 594.413 281.789C590.196 288.439 586.426 295.423 582.559 302.282C595.531 308.227 609.489 312.597 622.762 317.958C637.103 298.303 652.357 279.49 667.551 260.509C703.882 214.941 741.329 170.274 779.857 126.547C806.158 96.1792 832.33 65.8876 859.77 36.538C871.341 24.1615 882.673 11.6009 895.04 0L904.697 0C888.003 17.6139 870.625 34.5341 854.199 52.426C827.839 81.5602 801.966 111.132 776.591 141.128C743.721 178.735 711.51 216.913 679.971 255.644C664.898 273.965 650.267 292.647 636.092 311.671C632.39 316.621 627.458 321 624.558 326.466C618.809 337.298 616.069 356.479 612.593 368.831C599.584 415.06 584.699 467.666 557.065 507.451C557.226 522.527 558.753 537.684 559.85 552.718C569.639 550.732 579.689 548.202 589.631 547.25L590.99 547.707C583.779 550.353 565.832 550.528 559.945 553.938L560.344 554.974C560.27 555.112 560.172 555.239 560.122 555.388C560.026 555.673 559.981 555.973 559.911 556.266C564.412 555.678 601.642 549.225 602.327 549.685C602.591 549.862 602.827 550.077 603.076 550.273C588.817 553.105 574.375 555.424 559.997 557.568L559.924 568.394C584.383 566.756 608.786 564.472 633.325 565.043C643.373 574.806 654.458 583.724 665.309 592.577C670.965 597.192 676.546 602.16 682.432 606.454C680.942 599.976 676.219 585.859 679.564 579.927C680.776 579.166 680.904 579.209 682.347 579.286C683.998 580.356 684.293 582.33 684.691 584.193C686.401 592.199 687.907 605.249 691.704 612.244C694.978 618.274 707.901 626.113 713.955 630.079C732.482 642.215 753.166 652.489 773.474 661.248C789.196 668.029 815.138 676.437 827.816 686.283C837.042 693.447 843.107 702.357 845.535 713.84C846.422 718.035 848.403 729.197 845.966 732.745C845.205 733.854 844.555 733.879 843.345 734.109C841.893 733.404 841.304 732.778 840.804 731.212C839.51 727.158 839.902 722.248 839.334 718.01C837.279 702.703 828.425 693.721 815.425 686.404C806.438 681.346 796.531 677.999 787.015 674.08C771.425 667.66 755.889 661.015 741.018 653.052C716.952 640.364 694.234 625.268 673.214 607.997C658.687 596.069 644.923 582.922 630.042 571.461C612.933 571.67 596.007 572.216 578.932 573.294C572.629 573.692 566.141 573.736 559.89 574.592C555.358 587.37 551.421 596.529 540.989 605.65C547.677 612.695 554.949 620.267 560.149 628.498C569.392 628.171 578.453 628.456 587.682 628.98C587.189 626.204 586.704 623.139 588.506 620.672C589.074 619.895 589.622 620.024 590.471 620.009C591.384 620.489 592.674 620.996 593.085 622.022C594.315 625.094 593.955 628.699 595.534 631.747C600.388 641.12 608.518 649.364 615.857 656.868C639.686 681.234 667.185 701.002 692.461 723.69C700.572 730.971 709.599 738.508 716.438 747.004C722.204 745.621 727.819 744.119 733.392 742.067C736.853 740.792 740.397 738.86 743.965 738C745.275 737.684 747.035 737.401 748.264 738.08C748.849 738.403 748.74 738.878 748.854 739.473C747.6 742.675 744.505 744.3 741.495 745.611C735.012 748.433 727.916 750.763 721.061 752.504C711.384 754.961 698.492 755.775 690.153 761.354C681.696 767.012 682.599 775.477 670.347 770.521C654.83 764.245 639.926 755.065 626.002 745.871C632.326 757.999 639.964 769.494 649.436 779.408C652.635 782.757 655.91 786.21 659.392 789.252C662.365 791.85 665.939 794.134 668.537 797.1C669.398 798.081 670.083 799.052 670.246 800.386C670.273 800.604 670.263 800.824 670.271 801.044C669.729 802.044 669.377 802.583 668.215 803.005C666.721 803.548 665.071 802.522 663.865 801.708C658.897 798.356 654.288 793.494 650.023 789.276C618.114 757.724 608.758 721.179 588.211 682.729C575.063 658.127 559.922 636.107 541.068 615.518C525.758 598.799 509.859 585.527 486.07 585.796C500.147 593.296 517.123 612.193 521.821 627.619C524.301 635.763 524.24 644.178 520.061 651.799C516.477 658.334 511.05 662.981 503.791 665.011C499.767 666.136 495.401 666.299 491.25 666.063C496.715 676.952 502.462 687.741 507.726 698.725C522.946 730.699 537 763.215 549.86 796.209C556.986 814.188 563.412 832.413 570.387 850.444C600.209 927.539 623.859 968.454 685.994 1024L675.753 1024C641.076 993.365 612.284 956.657 590.791 915.681C580.583 895.776 571.765 871.818 563.636 850.777C550.534 816.866 537.789 782.868 523.326 749.51L509.039 716.68C506.465 710.798 504.164 704.558 501.007 698.979C498.582 704.831 496.828 710.959 494.792 716.954C491.595 726.375 488.313 735.751 485.237 745.215L462.224 815.432C446.324 862.585 431.128 909.973 416.64 957.58C409.762 979.703 402.399 1001.66 396.226 1024L389 1024C392.447 1014.46 395.196 1004.51 398.126 994.784L414.743 939.453C427.279 898.931 441.375 858.856 454.316 818.464L478.939 743.245C484.631 725.752 490.072 707.311 496.687 690.22C492.613 682.537 484.82 664.847 478.463 660.09C472.984 655.99 465.997 653.194 460.109 649.564C454.59 654.975 448.767 660.092 443.188 665.447C445.052 672.799 446.367 680.321 447.768 687.774C453.948 691.161 467.643 697.172 472.076 701.235C473.089 702.163 473.905 703.053 474.007 704.473C473.359 705.471 472.862 705.736 471.744 706.051C470.583 706.379 469.345 706.47 468.171 706.183C462.559 704.814 449.589 696.541 443.564 693.393C438.072 698.681 432.633 704.025 427.249 709.423C427.772 717.187 429.941 724.797 431.842 732.314C436.894 734.697 453.901 742.38 456.209 746.797C456.771 747.872 456.609 748.069 456.257 749.152C455.622 749.626 455.04 750.018 454.27 750.246C453.332 750.525 452.431 750.659 451.454 750.513C446.786 749.816 433.476 741.215 428.268 738.555C422.469 743.973 417.554 750.237 411.625 755.575C413.11 762.714 414.689 769.834 416.362 776.931C422.974 779.518 433.511 784.327 439.416 788.1C440.774 788.968 441.419 789.385 441.759 790.97C441.333 792.394 440.654 794.029 439.214 794.703C437.069 795.707 416.612 784.779 412.759 783.043C406.946 788.646 401.711 795.055 396.338 801.088C398.061 807.535 399.726 813.997 401.334 820.474C406.261 823.397 423.235 830.482 426.033 833.649C426.81 834.528 426.861 835.334 426.61 836.466C426.354 837.626 425.506 838.226 424.568 838.782C418.499 838.687 404.539 830.423 398.386 827.315C392.698 833.265 387.106 839.306 381.614 845.436L386.627 865.035C394.265 868.802 403.162 872.283 410.166 877.04C411.989 878.278 412.868 879.207 413.283 881.388L413.32 880.614L413.075 881.817C412.459 882.424 412.06 882.66 411.214 882.935C406.496 884.472 389.797 874.789 384.937 872.346C378.605 878.639 372.426 885.085 366.406 891.678C367.841 897.21 368.834 902.88 370.154 908.446C377.557 911.941 385.123 915.35 392.366 919.156C394.967 920.522 397.221 922.168 398.14 925.047C397.939 926.528 397.986 926.452 396.827 927.394C392.081 928.395 374.578 918.563 369.157 915.964C363.306 922.13 357.415 928.259 351.485 934.349C353.452 940.861 354.955 947.587 357.316 953.964C361.73 956.067 382.751 965.276 384.555 968.254C384.896 968.817 384.676 969.39 384.447 969.967C383.957 971.197 382.939 972.007 381.806 972.593C376.861 973.124 360.566 963.562 354.726 961.25C349.2 967.489 343.373 973.463 337.966 979.805C340.228 985.888 341.984 992.156 343.876 998.362C349.6 1001.42 366.319 1007.57 369.674 1011.8C370.043 1013.16 370.087 1013.35 369.679 1014.7C369.046 1015.38 368.582 1015.91 367.653 1016.18C364.111 1017.23 345.79 1007.14 341.844 1004.99C337.01 1011.89 330.064 1017.56 324.553 1024L311.604 1024C306.115 1020.82 299.616 1018.32 294.504 1014.69C292.93 1013.57 292.157 1012.64 291.864 1010.73C292.491 1009.39 293.041 1008.83 294.126 1007.89C295.038 1007.61 295.594 1007.47 296.55 1007.7C299.65 1008.43 303.384 1011.52 306.269 1013.03C310.532 1015.22 314.844 1017.31 319.2 1019.31C325.822 1013.73 331.6 1006.96 337.898 1000.98C335.674 994.519 333.486 987.934 330.443 981.811C324.828 978.551 308.548 972.002 305.228 968.599C304.277 967.625 304.559 967.113 304.707 965.872C305.557 964.691 305.768 964.277 307.243 963.873C311.466 962.715 328.302 972.316 333.126 974.732C339.11 968.778 344.711 962.332 350.404 956.095C348.283 949.978 346.554 943.682 344.695 937.478C337.668 933.913 328.531 930.409 322.57 925.326C321.115 924.086 320.425 923.102 320.307 921.185C320.994 920.088 321.597 919.461 322.883 919.074C325.311 918.344 342.67 928.109 346.365 929.855C352.58 923.96 358.59 917.343 363.957 910.672C362.53 904.877 360.669 899.144 359.149 893.361C352.063 888.931 341.706 885.694 335.663 880.172C334.46 879.073 333.943 878.199 333.838 876.585C334.491 875.71 334.915 875.399 335.939 875.08C339.332 874.024 357.038 884.14 361.278 886.33C367.801 880.525 374.364 873.948 379.861 867.166C378.369 860.528 376.447 853.99 374.619 847.438C367.809 843.338 356.526 838.737 350.92 833.655C350.424 832.525 350.252 831.53 350.708 830.322C351.208 828.997 351.85 828.743 353.015 828.16C357.618 828.438 371.525 837.647 377.022 840.182C383.231 834.527 389.09 828.131 394.897 822.058C393.462 815.614 391.487 809.576 390.823 802.945C386.594 800.471 368.164 791.232 366.322 788.49C365.495 787.26 365.597 786.913 365.748 785.511C366.273 784.8 366.444 784.26 367.333 783.98C371.612 782.632 387.733 793.157 392.412 795.672C397.808 789.422 403.194 783.395 409.427 777.944C407.835 770.933 406.259 763.899 404.122 757.031C396.819 752.24 387.94 748.91 381.493 742.985C380.908 741.718 381.039 740.992 381.181 739.649C381.697 739.03 381.82 738.596 382.664 738.441C387.443 737.565 402.432 748.154 407.113 751.042C412.728 744.883 418.285 738.043 424.61 732.61C423.289 725.467 421.461 718.42 419.735 711.365C413.763 708.317 403.929 703.448 399.338 698.76C398.188 697.586 397.587 696.516 397.553 694.835C398.167 693.536 398.413 693.336 399.585 692.486C402.916 692.416 418.581 702.37 422.591 704.543C428.56 698.753 434.634 693.073 440.81 687.504C439.45 680.571 437.994 673.656 436.442 666.763C431.137 662.464 416.567 655.563 413.807 650.416C413.23 649.339 413.207 648.745 413.517 647.599C414.612 646.465 415.643 646.227 417.104 645.818C420.838 646.527 434.758 656.468 438.719 659.321C445.392 654.518 451.583 648.611 457.965 643.38C456.613 636.014 455.975 628.475 455.146 621.032C449.977 618.471 437.603 612.283 433.908 608.13C432.873 606.966 432.961 606.724 432.996 605.245C433.634 603.957 434.119 603.502 435.321 602.722C435.873 602.655 436.424 602.453 436.976 602.521C439.614 602.843 451.916 611.492 454.897 613.416C454.3 608.78 454.63 604.205 454.961 599.562C451.456 598.145 447.993 596.661 444.866 594.511C436.531 588.778 430.136 579.123 428.368 569.144C427.941 566.735 427.481 563.591 429.291 561.599C432.362 558.218 443.041 557.912 447.47 557.329C447.006 533.584 456.372 511.688 464.359 489.744L478.501 450.537C480.974 443.714 485.333 434.916 486.687 428.156L486.108 427.294C483.856 427.058 478.545 431.37 476.398 432.729C464.509 440.252 451.88 446.018 439.787 453.112C437.682 462.323 433.968 471.313 430.822 480.214C425.913 493.755 421.326 507.412 417.065 521.171C409.896 544.354 403.808 567.857 396.961 591.133C388.518 619.057 379.856 646.913 370.975 674.7L294.137 918.778L277.151 971.88C271.725 989.288 266.557 1006.81 260.47 1024L253.666 1024C259.782 1008.35 263.929 991.783 268.889 975.747C276.243 951.971 284.044 928.288 291.692 904.601L380.879 620.586C392.272 583.641 401.942 546.169 413.612 509.321C419.265 491.471 425.879 474.778 432.138 457.234C420.219 461.197 408.664 467.377 397.087 472.293C373.902 482.207 350.458 491.504 326.78 500.174C296.596 511.157 265.829 520.466 234.619 528.059C196.468 537.236 157.888 543.7 119.287 550.562C105.995 563.055 92.0411 574.863 78.6807 587.292C62.5019 602.496 46.7565 618.155 31.4636 634.25C20.5831 645.58 9.57132 656.94 0 669.419L0 657.752C12.4359 645.325 23.927 631.821 36.2301 619.229C54.3589 600.91 73.0368 583.143 92.2383 565.952C98.3396 560.415 108.286 549.879 114.576 545.903C116.272 544.831 118.288 544.241 120.221 543.768C129.139 541.589 138.545 540.421 147.599 538.831C165.634 535.663 183.77 532.462 201.691 528.708C221.376 524.482 240.968 519.83 260.452 514.755C298.502 504.776 335.119 490.224 371.41 475.238C408.305 460.001 444.968 444.798 478.771 423.317C474.236 416.806 470.667 410.308 472.274 402.059C475.403 386.002 493.021 382.13 506.295 378.047C509.12 377.178 512.797 376.419 515.175 374.671C516.07 374.014 516.095 373.988 516.246 372.851C514.805 371.1 513.149 369.881 511.13 368.837C503.043 364.658 492.717 363.32 483.72 363.651C463.881 364.38 440.236 371.069 420.991 376.421C397.64 382.914 374.166 389.481 351.1 396.92C341.167 400.124 331.504 404.11 321.57 407.306C308.649 411.464 297.173 413.592 284.616 407.028C278.994 404.089 274.011 400.071 269.252 395.913C249.285 378.472 238.022 355.88 230.278 330.936C226.388 330.549 222.377 330.286 218.757 328.67C217.274 328.008 216.537 327.375 215.975 325.86C216.221 324.933 217.126 323.548 218.067 323.144C220.154 322.251 226.942 323.484 229.461 323.613C235.199 323.907 241.257 323.773 246.944 322.913C261.109 320.769 277.436 312.396 289.05 304.008C293.691 300.656 298.004 296.772 302.351 293.05C300.031 293.259 296.9 293.865 294.676 293.099C293.196 292.59 292.22 291.956 291.547 290.508C291.707 289.652 291.585 289.521 292.194 288.924C295.32 285.863 304.319 286.179 308.536 285.63C326.834 283.25 359.178 276 371.47 262.428C376.689 256.666 379.017 249.718 383.62 243.717C384.753 243.384 385.807 242.973 386.999 243.22C387.75 243.376 387.795 243.699 388.216 244.263C389.301 250.026 382.112 259.724 378.997 264.466C395.62 280.666 424.201 291.022 445.932 298.86C449.427 304.243 452.369 310.133 455.528 315.724C463.373 329.608 471.465 344.301 481.068 357.038C497.946 356.99 512.199 359.179 524.664 371.384C529.29 369.747 533.848 367.887 538.422 366.11C529.993 338.251 519.953 315.199 507.743 288.95C504.879 282.794 502.166 273.554 496.864 269.21C488.033 261.974 477.225 256.43 467.672 250.122C452.281 240.115 436.815 230.222 421.276 220.447C406.749 211.265 392.134 201.846 376.995 193.698C374.403 192.303 370.878 190.483 367.959 190.074C362.334 189.286 319.59 204.212 310.263 207.036C275.258 217.638 239.283 225.979 203.489 233.426C193.968 235.406 184.412 237.073 174.845 238.807C170.477 239.598 165.966 240.823 161.553 241.234C159.932 241.385 158.603 241.371 157.334 240.291L157.389 239.011C158.894 236.491 160.981 235.239 163.701 234.228C167.876 232.675 172.863 232.638 177.264 231.939C183.785 230.902 190.317 229.443 196.797 228.16C231.86 220.954 266.656 212.501 301.119 202.818C312.424 199.48 323.694 196.021 334.926 192.444C342.028 190.167 349.141 187.593 356.374 185.787C362.678 184.212 368.954 183.521 375.269 185.522C384.005 188.289 397.585 198.019 406.061 203.288C433.231 220.178 459.772 238.125 487.155 254.662C482.249 249.002 477.897 242.878 473.052 237.163C457.781 219.275 442.295 201.571 426.599 184.055C419.425 176.078 412.373 167.033 404.343 159.971C398.201 154.57 391.334 151.533 383.015 152.206C374.286 152.913 363.479 158.049 354.937 160.784C331.616 168.25 308.34 176.077 284.817 182.88C266.244 188.251 247.829 194.344 229.155 199.34C212.847 203.703 191.688 206.084 176.974 213.557C166.282 218.988 158.036 229.956 149.752 238.413C134.153 254.336 116.461 270.45 102.815 287.976C89.2753 305.368 78.4312 325.056 66.1988 343.378C45.9026 374.16 23.7975 403.711 0 431.874L0 420.813C5.49029 414.157 11.3081 407.802 16.6366 401.001C33.7181 379.201 49.5359 356.087 64.9263 333.067C75.7724 316.843 85.3386 299.346 97.2206 283.889C108.743 268.9 124.828 254.121 138.224 240.619C146.491 232.286 154.323 223.121 163.017 215.271C168.14 210.646 173.168 207.303 179.674 205.025C194.998 199.659 211.232 197.262 226.89 193.067C257.455 184.762 287.821 175.745 317.964 166.022L355.121 153.986C362.662 151.486 370.311 148.419 378.059 146.685C381.108 146.002 384.199 145.675 387.323 145.852C393.328 146.192 398.976 148.235 403.925 151.623C413.58 158.235 421.471 168.583 429.248 177.24L462.474 214.349C462.444 205.157 461.372 195.701 460.619 186.534C457.253 144.82 449.741 103.545 438.195 63.3201C431.864 41.9387 423.815 21.2314 417.151 0ZM503.578 2.1941L489.684 4.76422C490.667 7.87494 496.043 27.9563 497.065 28.8917C501.652 27.3522 506.435 25.9898 510.826 23.9499C510.154 21.3081 505.471 3.51902 503.937 2.36225C503.832 2.28258 503.698 2.25015 503.578 2.1941ZM781.876 9.84146C777.239 14.8134 772.856 19.8418 768.941 25.4169C770.632 28.1197 775.773 35.2228 778.821 36.0259C779.346 36.1641 779.331 36.0307 779.868 35.7625C784.242 31.3032 788.552 26.7322 793.048 22.398C789.35 18.664 785.526 14.9281 782.544 10.5802C782.191 10.0658 782.371 10.2802 781.876 9.84146ZM514.443 45.6451C510.108 46.5294 505.903 47.7693 501.663 49.0149C503.036 55.8178 504.035 65.4343 506.771 71.7223C507.69 71.86 508.213 71.8486 509.104 71.5786C514.085 70.17 518.312 68.8101 521.964 64.9017C520.79 59.714 519.988 50.1359 517.136 46.0449C516.115 45.4925 515.584 45.5296 514.443 45.6451ZM750.209 45.2412C745.4 49.4514 741.152 54.2696 736.899 59.0294C740.82 63.4642 744.566 67.6251 749.67 70.7151C754.051 66.3562 757.715 61.3915 762.248 57.1625C758.419 53.4387 754.478 48.3516 750.209 45.2412ZM719.458 80.2489C717.028 83.3177 707.978 91.9414 708.8 95.9033C709.564 99.5865 716.74 103.185 719.931 104.735C720.094 104.814 720.261 104.883 720.426 104.957L731.63 91.4289C728.174 87.885 723.851 82.4502 719.458 80.2489ZM524.796 90.5654C520.362 91.7889 515.838 92.9208 511.692 94.9618C513.311 101.36 514.169 108.489 516.427 114.638C517.571 115.258 516.99 115.073 518.149 115.253C522.486 114.027 526.827 113.237 530.943 111.337C530.397 108.034 528.408 92.7267 527.03 90.5619C526.283 90.547 525.543 90.5167 524.796 90.5654ZM689.065 117.319C684.823 122.443 680.949 127.857 676.713 132.973C681.291 136.064 684.979 140.226 689.574 143.25C693.641 138.673 697.01 133.53 701.067 128.929C697.69 125.08 693.739 119.524 689.065 117.319ZM532.478 134.194C528.147 134.685 523.935 135.431 519.799 136.84C520.258 141.119 521.234 156.098 523.352 158.904L524.667 158.91L537.759 154.954C537.308 149.144 537.776 139.837 535.017 134.683C533.97 134.112 533.687 134.159 532.478 134.194ZM659.461 154.289C655.693 159.19 651.466 164.056 648.142 169.257C652.179 173.165 656.885 175.925 661.169 179.478C664.606 174.53 668.687 170.299 672.458 165.633C668.722 161.904 664.289 156.47 659.461 154.289ZM538.35 180.233C534.01 180.535 529.817 180.885 525.55 181.743C526.01 187.739 525.558 195.053 527.083 200.785C528.502 200.994 529.691 201.018 531.123 200.932C535.246 200.487 539.379 200.132 543.517 199.868C543.12 195.682 543.049 182.994 540.245 180.423L538.35 180.233ZM631.182 191.824C626.872 196.649 622.777 201.706 619.541 207.329C623.735 211.397 627.818 214.458 632.828 217.436C636.184 212.587 639.514 207.265 643.616 203.02C640.838 200.084 635.063 192.484 631.182 191.824ZM603.938 229.756C599.824 234.254 595.851 239.561 593.129 245.03C597.31 248.204 601.569 251.274 605.902 254.237C609.179 249.138 612.368 243.8 616.372 239.229C613.014 236.167 608.388 231.082 603.938 229.756ZM494.539 251.981C501.642 262.393 507.947 272.587 513.575 283.87C516.209 289.15 519.96 299.384 522.92 303.602C523 288.983 522.734 274.371 523.035 259.754C513.279 257.747 504.078 254.763 494.539 251.981ZM528.876 263.999C528.643 268.9 529.586 276.578 527.991 280.966C527.585 282.083 527.61 282.215 527.932 283.329C532.338 284.199 539.838 283.909 544.246 282.889C545.747 279.117 547.572 271.955 546.038 268.089C545.419 266.53 544.262 265.696 542.748 265.135C538.828 263.682 533.051 264.144 528.876 263.999ZM575.791 267.682C572.966 273.515 569.341 279.124 566.73 285.001C571.042 287.67 576.198 289.281 579.31 293.364C579.526 293.648 579.751 293.926 579.969 294.208L580.466 293.994C583.636 288.328 586.663 282.437 590.271 277.044C585.984 273.664 580.986 269.547 575.791 267.682ZM374.025 268.98C356.335 283.459 332.66 287.975 310.749 292.273C293.033 311.731 266.413 329.253 239.467 330.466C238.811 330.5 238.154 330.523 237.496 330.532C244.691 356.984 262.136 386.424 286.365 400.469C290.214 402.7 293.975 404.046 298.278 405.115C302.371 405.227 306.066 404.942 310.043 403.917C324.78 400.118 338.945 393.576 353.524 389.083C369.897 384.127 386.323 379.344 402.797 374.734C413.192 371.866 423.729 369.273 434.038 366.121C417.804 341.445 412.544 320.533 410.856 291.304C397.951 285.854 384.396 278.454 374.025 268.98ZM527.888 288.863C527.303 295.906 525.818 304.202 526.806 311.167C527.733 317.707 531.891 324.096 534.158 330.286C538.129 341.128 541.896 352.873 544.91 364.023L554.534 363.994C556.639 359.644 558.374 355.234 560.12 350.733C564.836 335.783 569.329 320.55 574.879 305.891C566.743 303.019 558.374 300.838 550.269 297.93C542.699 295.214 535.414 291.709 527.888 288.863ZM571.005 292.807L571.416 299.09C573.546 299.72 575.858 300.794 578.03 299.954C578.124 298.863 578.471 298.279 577.767 297.378C576.228 295.409 573.161 294.052 571.005 292.807ZM417.286 295.061C418.798 317.098 426.08 348.399 441.736 364.396C450.577 362.375 459.44 360.22 468.375 358.659L473.646 357.785C462.158 340.043 451.245 321.934 440.926 303.487C432.961 300.923 425.077 298.113 417.286 295.061ZM580.57 307.271C577.115 319.601 573.382 331.853 569.375 344.015C566.921 351.632 564.596 359.409 561.39 366.748C567.522 371.639 572.458 376.968 573.499 385.163C574.289 391.382 572.51 396.71 568.688 401.6C565.18 406.088 560.295 409.334 555.737 412.657C557.256 432.004 555.448 450.719 555.311 470.021C555.251 478.569 555.857 486.968 556.65 495.475C559.86 489.931 562.945 484.368 565.852 478.66C581.935 446.533 593.097 413.142 602.547 378.55C607.01 362.212 612.122 336.192 618.932 321.738C606.33 316.488 593.401 311.933 580.57 307.271ZM547.165 370.539C537.291 373.241 527.999 377.556 518.371 380.95C508.581 384.401 497.138 386.638 488.051 391.573C484.695 393.396 481.874 395.843 480.038 399.231C478.017 402.959 477.268 407.674 478.656 411.738C480.049 415.817 483.528 418.873 487.379 420.601C491.313 422.366 494.907 422.579 499.118 422.518C517.376 421.35 550.509 412.791 562.796 398.397C565.611 395.099 567.308 391.083 566.914 386.694C566.501 382.104 563.763 377.25 560.163 374.396C556.425 371.434 551.865 370.219 547.165 370.539ZM548.366 415.922C547.038 416.804 545.837 417.242 545.309 418.847C543.915 423.083 543.325 437.428 542.402 443.199C541.48 448.959 535.315 464.065 532.26 469.101C530.747 471.594 528.807 473.87 526.364 475.494C522.792 477.866 518.81 478.084 514.689 477.223C509.744 476.19 505.559 473.046 502.899 468.777C499.973 464.082 499.883 458.943 501.221 453.714C503.452 445.004 507.386 436.638 509.945 427.967C504.423 428.755 498.911 429.49 493.32 429.342C483.619 455.073 474.327 480.955 465.447 506.98C461.286 519.304 455.841 532.031 454.476 545.03C452.901 560.035 455.102 574.007 460.834 587.881C464.854 585.802 468.824 584.19 473.068 582.651C464.829 572.322 465.254 560.26 466.686 547.656C468.563 531.133 475.262 514.615 481.033 499.109C482.205 495.538 484.77 484.765 487.851 483.198C488.957 482.635 490.1 482.621 491.266 482.953C492.09 483.94 492.285 484.438 492.215 485.75C491.996 489.844 489.154 494.143 488.089 498.176C496.098 504.634 508.909 506.365 518.926 505.343C522.359 504.992 526.021 504.253 529.247 503.014C532.603 501.724 537.721 496.874 541.257 497.813C542.072 498.75 542.371 499.151 542.307 500.5C542.205 502.615 540.095 504.419 538.51 505.559C531.093 510.895 521.579 512.348 512.683 512.189C523.772 516.616 532.518 523.55 537.264 534.783C541.682 545.238 542.698 566.371 538.515 576.862C536.09 582.943 531.675 587.853 526.975 592.28C529.978 595.249 533.044 598.175 535.967 601.221C546.445 591.373 553.198 580.423 553.691 565.752C554.026 555.799 552.953 545.623 552.242 535.688C550.604 512.793 548.056 489.392 548.437 466.444C548.568 458.56 551.422 419.819 548.366 415.922ZM537.484 421.085C530.662 423.052 523.794 424.859 516.888 426.505C515.397 433.683 511.907 440.253 510.195 447.358C511.626 448.674 512.992 449.975 514.635 451.03C519.276 453.325 525.11 454.945 530.206 453.171C532.55 452.354 533.475 451.157 534.417 448.951C536.814 443.332 538.773 427.664 538.011 421.555L537.484 421.085ZM507.261 460.835C508.316 464.483 509.971 467.989 513.469 469.877C515.822 471.147 518.423 471.26 520.929 470.39C523.601 469.462 525.539 467.373 527.182 465.154L527.265 464.224C523.262 465.948 520.063 469.901 515.11 468.175C512.173 467.152 510.102 464.293 508.326 461.911C507.752 461.141 508.02 461.432 507.261 460.835ZM485.463 504.679C480.092 520.67 473.64 537.833 472.188 554.688L474.285 549.378C479.815 535.512 485.612 521.753 491.673 508.111C489.651 506.987 487.57 505.604 485.463 504.679ZM496.308 512.776C491.254 524.62 486.071 536.385 481.188 548.304C478.941 553.788 476.063 559.613 474.799 565.393C474.223 568.027 474.056 571.073 475.081 573.621C475.759 575.308 477.187 577.186 478.889 577.944C481.644 579.171 486.846 578.858 489.741 578.038C490.209 577.581 490.659 577.192 491.009 576.636C499.066 557.622 508.564 538.87 515.535 519.45C509.059 517.384 502.599 515.366 496.308 512.776ZM521.047 523.448C514.704 539.88 507.543 556.433 499.95 572.325C504.252 571.528 508.535 570.734 512.88 570.2C520.109 569.141 527.363 568.141 534.548 566.808C534.407 553.642 535.294 537.02 525.116 526.916C523.832 525.642 522.508 524.512 521.047 523.448ZM446.976 564.69C442.86 565.291 438.751 565.91 434.609 566.305C436.879 575.055 440.318 582.739 447.993 588.054C450.518 589.499 453.02 591.035 455.659 592.263C453.364 586.578 451.158 580.981 449.871 574.961C449.157 571.618 449.154 568.03 448.213 564.773L446.976 564.69ZM532.846 573.726C521.406 574.751 508.836 576.263 497.786 579.454C500.398 580.125 503.119 580.696 505.677 581.535C511.228 583.231 516.024 585.459 521.079 588.301C525.918 584.564 530.016 579.954 533.161 574.71L533.128 573.899L532.846 573.726ZM472.196 589.561C467.835 591.213 464.377 593.137 462.254 597.541C458.864 604.571 461.464 613.576 464.105 620.455C468.577 632.104 477.6 650.392 486.626 658.793C492.69 660.177 498.491 660.522 504.407 658.278C509.807 655.502 513.9 652.102 515.827 646.089C518.307 638.348 516.486 629.768 512.653 622.796C506.743 612.047 490.972 593.313 478.789 589.886C476.547 589.255 474.486 589.283 472.196 589.561ZM462.62 634.392C463.179 637.599 463.772 640.748 464.61 643.895C466.527 645.479 468.196 646.803 470.587 647.636C468.669 643.922 465.815 637.011 462.62 634.392ZM566.644 635.005C573.415 646.548 581.335 657.187 587.809 668.981C591.198 667.023 594.224 664.713 597.133 662.097C599.929 659.189 602.095 656.347 603.883 652.696C598.32 647.17 594.133 642.209 590.73 635.141C582.709 634.995 574.663 634.72 566.644 635.005ZM607.864 658.777C602.577 665.641 598.435 669.529 590.59 673.156C597.612 686.635 604.267 700.302 610.547 714.143L611.251 714.827C616.685 712.137 621.575 704.033 623.49 698.479C626.014 691.159 625.287 682.314 624.966 674.669C620.07 670.457 612.642 661.957 607.864 658.777ZM631.402 680.8C631.747 694.11 629.444 705.078 619.878 715.028C617.895 717.091 615.731 718.836 613.436 720.536C615.428 724.977 617.448 731.331 620.889 734.801C627.86 741.829 664.537 761.512 674.487 765.314C675.268 765.612 676.049 765.879 676.846 766.128C679.039 762.974 681.32 760.244 684.367 757.86C692.271 752.098 700.541 750.324 709.97 748.222C702.319 741.677 695.319 734.403 687.703 727.799C673.944 715.866 659.576 704.721 645.471 693.218C640.641 689.279 636.442 684.445 631.402 680.8Z"/>
	<path fill="#9F8BE8" d="M423.62 0L443.985 0C443.947 1.545 443.746 2.81347 444.735 4.11512C446.848 5.51237 449.358 5.27888 451.758 4.80572C457.444 3.68477 463.78 2.02216 469.19 0L481.575 0C484.676 11.7032 488.484 23.1977 491.414 34.9476C485.301 35.3582 461.312 36.527 457.524 40.7328C456.767 41.5739 456.769 42.0058 456.644 43.0776C457.273 44.3334 457.564 44.812 458.937 45.2806C459.845 45.5903 460.921 45.597 461.865 45.5088C465.323 45.1857 468.779 44.2574 472.218 43.7355C479.191 42.6843 486.225 42.0899 493.276 41.956C496.717 54.1714 499.592 66.5391 501.893 79.0197C494.188 79.3594 476.493 78.7389 470.285 80.2089C469.345 80.4315 467.763 81.2993 467.195 82.15C466.412 83.3243 466.594 83.6994 466.87 84.9835C468.658 86.8195 471.157 86.6395 473.609 86.6605C483.631 86.7465 493.712 86.3312 503.741 86.2052L511.236 124.054C505.46 123.789 499.587 123.86 493.836 123.455C489.617 123.158 485.271 122.288 481.049 122.374C479.772 122.4 478.796 122.627 477.611 123.082C476.81 123.946 476.263 124.739 476.411 126.007C476.491 126.691 476.662 127.596 477.261 128.023C479.854 129.87 506.987 130.846 512.627 131.475C514.12 143.562 515.819 155.682 516.873 167.813C512.285 166.954 485.827 162.621 482.83 163.969C481.988 164.347 480.853 165.608 480.586 166.48C480.404 167.071 480.742 167.557 480.944 168.106C484.963 171.876 510.589 173.194 518.209 174.574C518.881 182.512 519.61 190.446 520.396 198.374C520.747 202.045 520.832 206.024 521.584 209.623C521.391 209.672 521.201 209.737 521.004 209.771C512.395 211.25 491.007 203.173 485.095 208.006C484.76 208.859 484.639 208.689 484.915 209.465C485.389 210.795 486.571 211.838 487.862 212.374C494.234 215.017 517.224 215.214 520.907 217.294C521.205 217.461 521.827 218.159 522.007 218.466C521.207 229.684 522.47 241.688 522.5 252.983C515.472 251.414 508.512 249.218 501.608 247.179C497.53 245.974 492.907 244.977 489.125 242.997C481.832 239.178 474.122 227.486 468.44 221.162C469.265 149.183 449.912 66.7629 423.62 0Z"/>
	<path fill="#08022A" d="M443.985 0L469.19 0C463.78 2.02216 457.444 3.68477 451.758 4.80572C449.358 5.27888 446.848 5.51237 444.735 4.11512C443.746 2.81347 443.947 1.545 443.985 0Z"/>
	<path fill="#CFC9FB" d="M508.184 0L801.43 0C804.097 2.1221 806.825 3.88001 809.765 5.60019C806.531 10.8888 802.817 15.7938 797.757 19.4644C794.883 16.7005 786.238 5.95039 782.647 5.894C777.787 5.81767 771.609 14.3453 768.953 17.7792C766.936 20.3875 764.841 23.1996 764.535 26.5714C766.041 31.9608 773.83 38.007 777.891 41.9944C774.445 46.8346 771.501 51.3634 766.668 54.9605C763.667 52.1167 753.875 40.3802 750.333 40.5254C745.451 40.7254 740.056 48.1148 737.369 51.6834C735.707 53.8905 732.93 57.6347 733.307 60.5257C733.977 65.6732 743.511 72.8462 747.572 75.5037C744.094 80.3958 741.011 85.4421 736.071 88.9972C731.22 83.8773 726.293 77.3591 719.325 75.2312C716.786 75.4214 714.739 77.9041 713.175 79.7236C709.377 84.1417 704.249 89.8531 703.363 95.749C704.773 101.17 709.589 104.299 714.149 106.988C715.508 107.79 716.877 108.574 718.257 109.34C714.45 114.897 710.765 120.905 705.18 124.849C700.774 120.648 695.614 113.538 689.313 112.642C683.663 114.441 676.652 124.181 674.099 129.338C673.442 130.664 673.05 131.792 672.963 133.265C675.476 140.118 682.467 143.447 687.896 147.655C684.779 153.501 680.805 157.575 676.746 162.667C673.044 158.364 667.469 150.808 661.522 150.117C659.111 149.837 656.965 150.937 655.209 152.503C650.788 156.448 645.734 164.433 643.399 169.895C647.596 175.372 653.128 179.24 658.54 183.432C657.177 186.167 656.379 188.641 655.696 191.616C652.721 193.998 649.743 196.342 646.994 198.986C643.739 195.288 637.397 186.845 632.195 186.82C628.831 186.804 625.778 190.136 623.859 192.553C620.85 196.345 614.743 203.59 615.425 208.779C616.044 213.485 626.738 219.459 630.63 222.067C627.354 227.044 624.019 231.329 619.843 235.568C616.032 232.126 608.847 224.634 603.223 225.204C599.48 225.584 596.218 230.75 594.343 233.617C592.149 236.969 588.292 242.636 589.177 246.796C590.121 251.233 599.57 255.937 603.265 258.229C600.093 263.115 596.804 267.925 593.402 272.654C588.92 269.129 581.502 262.401 575.457 263.06C573.875 263.232 572.627 264.043 571.7 265.31C569.97 267.674 568.968 270.538 567.532 273.079C565.486 276.696 561.232 281.647 561.894 286.048C563.061 288.199 564.844 289.237 566.64 290.812C566.435 290.791 566.231 290.768 566.027 290.75C565.383 290.693 564.791 290.688 564.148 290.714C563.012 292.493 562.208 294.341 561.379 296.271C554.269 294.127 547.447 291.433 540.625 288.506C543.23 287.588 545.885 286.765 548.321 285.451C550.71 279.163 551.652 272.535 551.468 265.832C549.961 263.652 548.57 262.176 546.472 260.582C540.801 260.141 535.19 260.012 529.505 259.982L529.456 248.149C535.034 248.244 545.001 249.624 549.379 245.594C551.437 243.699 551.922 240.983 551.976 238.301C552.05 234.624 551.575 230.185 550.845 226.589C550.503 224.53 549.978 222.736 548.328 221.342C543.479 217.242 533.744 219.13 527.822 219.67C527.619 217.03 527.554 214.364 527.431 211.719C527.547 209.656 527.317 207.494 527.23 205.425C531.836 205.41 543.258 206.174 546.227 202.571C549.229 198.929 547.825 190.461 547.158 186.165C546.656 182.926 545.542 178.497 542.597 176.57C538.337 173.782 529.44 176.061 524.675 176.92C524.417 172.346 523.724 167.756 523.295 163.188C527.504 162.549 538.099 161.806 540.969 158.735C543.194 156.355 542.87 151.702 542.66 148.672C542.344 144.125 541.916 134.228 537.831 131.407C532.982 128.058 523.54 130.982 518.378 132.355C517.735 128.126 516.804 123.956 516.221 119.714C520.7 119.193 530.63 118.801 533.582 115.381C536.992 111.431 535.231 103.746 534.483 99.0488C533.896 95.3579 533.124 88.9582 529.453 86.9773C524.912 84.5262 514.967 88.7668 510.285 90.3842C509.552 85.734 508.747 81.0953 507.873 76.4695C511.479 75.5971 515.537 74.6658 518.913 73.1616C523.051 71.3175 524.733 69.1335 526.369 65.0188C525.221 59.3593 524.586 53.1273 522.809 47.647C522.078 45.3939 520.882 43.2753 518.647 42.2469C513.388 39.8275 505.819 43.6306 500.812 45.5687L497.054 33.3586C500.973 32.2742 505.216 31.365 508.951 29.7663C511.353 28.7381 513.514 27.2088 514.384 24.6406C516.167 19.3754 510.792 5.06524 508.184 0Z"/>
	<path fill="#08022A" d="M801.43 0L819.602 0C816.424 5.32802 812.926 10.486 810.833 16.3601C810.96 16.5323 811.086 16.706 811.215 16.8767C814.858 21.6807 834.119 39.0815 833.429 43.3322C833.21 44.6831 832.763 45.057 831.715 45.7152C828.34 45.7131 825.638 42.6094 823.41 40.3753C817.058 34.0049 810.852 27.4602 805.489 20.2235C803.652 21.295 801.86 22.4787 799.822 23.1215C799.719 21.6635 799.68 20.8899 798.872 19.6184L797.757 19.4644C802.817 15.7938 806.531 10.8888 809.765 5.60019C806.825 3.88001 804.097 2.1221 801.43 0Z"/>
	<path fill="#9F8BE8" d="M819.602 0L843.862 0C847.061 2.65063 855.512 11.6484 859.795 11.325C860.559 11.2674 860.834 10.8356 861.388 10.3693C862.043 8.66896 862.278 7.69379 861.438 5.93543C860.337 3.63201 857.276 1.59231 855.288 0L895.04 0C882.673 11.6009 871.341 24.1615 859.77 36.538C832.33 65.8876 806.158 96.1792 779.857 126.547C741.329 170.274 703.882 214.941 667.551 260.509C652.357 279.49 637.103 298.303 622.762 317.958C609.489 312.597 595.531 308.227 582.559 302.282C586.426 295.423 590.196 288.439 594.413 281.789C597.082 277.58 600.157 273.659 602.9 269.509C608.032 273.817 618.984 283.986 624.639 286.594C625.922 287.186 627.412 287.401 628.812 287.245C629.736 287.143 630.351 286.871 631.124 286.346C631.672 285.3 631.664 285.101 631.247 283.96C630.029 280.626 610.724 267.239 606.695 263.708C611.479 254.91 621.711 239.183 629.684 233.119C631.307 235.225 632.937 237.423 634.809 239.312C638.239 242.774 651.103 253.457 655.523 253.728C656.564 253.792 656.78 253.464 657.441 252.791C657.738 250.78 657.184 249.388 655.987 247.783C653.133 243.96 648.323 241.516 644.621 238.528C640.481 235.179 636.476 231.667 632.616 227.999C636.875 220.588 650.311 202.544 656.476 196.899C659.754 200.43 676.409 216.044 680.756 216.679C682.168 216.885 682.537 216.513 683.57 215.71C684.151 214.203 684.186 213.068 683.502 211.608C682.928 210.38 682.032 209.302 681.062 208.368C678.635 206.028 675.386 204.103 672.676 202.069C668.479 198.885 664.482 195.445 660.708 191.769C664.829 182.036 676.734 167.813 684.929 160.869C689.563 165.275 705.588 181.194 710.576 181.244C711.834 180.684 711.83 180.65 712.475 179.426C712.547 177.029 711.646 175.535 710.045 173.81C706.461 169.948 690.561 159.446 690.337 154.382C690.044 147.781 708.616 129 713.544 123.965C717.369 128.479 732.121 144.624 737.498 145.4C738.674 145.091 739.619 144.674 740.249 143.544C740.855 142.457 740.703 141.371 740.206 140.294C737.69 134.841 722.138 126.174 720.02 120.879C719.468 119.5 719.55 118.149 719.943 116.751C722.545 107.511 735.091 95.2609 742.91 89.8074C747.308 94.7514 761.535 111.487 767.384 112.309C767.98 112.392 768.113 112.304 768.736 112.18C769.684 111.262 769.939 111.051 769.976 109.636C770.016 108.091 768.798 106.192 767.877 105.046C762.315 98.1234 753.351 92.7956 747.977 85.0088C752.542 76.0479 758.498 67.6852 766.308 61.2634C768.661 59.3281 771.562 58.3866 773.623 56.1812C777.059 60.9363 792.897 78.7099 798.277 79.0966C799.516 79.1856 799.781 78.837 800.611 78.058C801.022 76.7732 801.341 75.8024 800.787 74.4973C798.766 69.7413 783.764 57.7203 779.273 52.2035C780.116 49.6427 780.895 46.957 782.109 44.544C785.449 37.904 793.79 27.3885 799.822 23.1215C801.86 22.4787 803.652 21.295 805.489 20.2235C810.852 27.4602 817.058 34.0049 823.41 40.3753C825.638 42.6094 828.34 45.7131 831.715 45.7152C832.763 45.057 833.21 44.6831 833.429 43.3322C834.119 39.0815 814.858 21.6807 811.215 16.8767C811.086 16.706 810.96 16.5323 810.833 16.3601C812.926 10.486 816.424 5.32802 819.602 0Z"/>
	<path fill="#08022A" d="M843.862 0L855.288 0C857.276 1.59231 860.337 3.63201 861.438 5.93543C862.278 7.69379 862.043 8.66896 861.388 10.3693C860.834 10.8356 860.559 11.2674 859.795 11.325C855.512 11.6484 847.061 2.65063 843.862 0Z"/>
	<path fill="#9F8BE8" d="M904.697 0L1024 0L1024 1024L908.305 1024C885.785 958.104 875.987 859.831 879.883 789.85C880.629 776.558 881.526 763.275 882.574 750.003C883.759 736.508 887.29 716.966 884.907 703.984C883.876 698.369 880.84 692.519 877.208 688.15C870.581 680.177 860.854 673.54 852.971 666.711C841.112 656.381 829.537 645.728 818.262 634.763C799.941 616.999 783.137 598.523 766.712 579.015C760.612 571.786 754.742 564.365 749.11 556.765C741.586 546.774 734.068 534.057 723.469 527.077C717.964 523.452 711.173 522.093 704.638 522.397C695.756 522.81 686.649 525.843 678.087 528.058C669.739 530.166 661.371 532.196 652.984 534.148C631.968 539.09 610.776 542.938 589.631 547.25C579.689 548.202 569.639 550.732 559.85 552.718C558.753 537.684 557.226 522.527 557.065 507.451C584.699 467.666 599.584 415.06 612.593 368.831C616.069 356.479 618.809 337.298 624.558 326.466C627.458 321 632.39 316.621 636.092 311.671C650.267 292.647 664.898 273.965 679.971 255.644C711.51 216.913 743.721 178.735 776.591 141.128C801.966 111.132 827.839 81.5602 854.199 52.426C870.625 34.5341 888.003 17.6139 904.697 0Z"/>
	<path fill="#421983" d="M489.684 4.76422L503.578 2.1941C503.698 2.25015 503.832 2.28258 503.937 2.36225C505.471 3.51902 510.154 21.3081 510.826 23.9499C506.435 25.9898 501.652 27.3522 497.065 28.8917C496.043 27.9563 490.667 7.87494 489.684 4.76422Z"/>
	<path fill="#421983" d="M768.941 25.4169C772.856 19.8418 777.239 14.8134 781.876 9.84146C782.371 10.2802 782.191 10.0658 782.544 10.5802C785.526 14.9281 789.35 18.664 793.048 22.398C788.552 26.7322 784.242 31.3032 779.868 35.7625C779.331 36.0307 779.346 36.1641 778.821 36.0259C775.773 35.2228 770.632 28.1197 768.941 25.4169Z"/>
	<path fill="#421983" d="M501.663 49.0149C505.903 47.7693 510.108 46.5294 514.443 45.6451C515.584 45.5296 516.115 45.4925 517.136 46.0449C519.988 50.1359 520.79 59.714 521.964 64.9017C518.312 68.8101 514.085 70.17 509.104 71.5786C508.213 71.8486 507.69 71.86 506.771 71.7223C504.035 65.4343 503.036 55.8178 501.663 49.0149Z"/>
	<path fill="#421983" d="M736.899 59.0294C741.152 54.2696 745.4 49.4514 750.209 45.2412C754.478 48.3516 758.419 53.4387 762.248 57.1625C757.715 61.3915 754.051 66.3562 749.67 70.7151C744.566 67.6251 740.82 63.4642 736.899 59.0294Z"/>
	<path fill="#421983" d="M720.426 104.957C720.261 104.883 720.094 104.814 719.931 104.735C716.74 103.185 709.564 99.5865 708.8 95.9033C707.978 91.9414 717.028 83.3177 719.458 80.2489C723.851 82.4502 728.174 87.885 731.63 91.4289L720.426 104.957Z"/>
	<path fill="#421983" d="M511.692 94.9618C515.838 92.9208 520.362 91.7889 524.796 90.5654C525.543 90.5167 526.283 90.547 527.03 90.5619C528.408 92.7267 530.397 108.034 530.943 111.337C526.827 113.237 522.486 114.027 518.149 115.253C516.99 115.073 517.571 115.258 516.427 114.638C514.169 108.489 513.311 101.36 511.692 94.9618Z"/>
	<path fill="#421983" d="M676.713 132.973C680.949 127.857 684.823 122.443 689.065 117.319C693.739 119.524 697.69 125.08 701.067 128.929C697.01 133.53 693.641 138.673 689.574 143.25C684.979 140.226 681.291 136.064 676.713 132.973Z"/>
	<path fill="#421983" d="M519.799 136.84C523.935 135.431 528.147 134.685 532.478 134.194C533.687 134.159 533.97 134.112 535.017 134.683C537.776 139.837 537.308 149.144 537.759 154.954L524.667 158.91L523.352 158.904C521.234 156.098 520.258 141.119 519.799 136.84Z"/>
	<path fill="#FEFEFD" d="M0 431.874C23.7975 403.711 45.9026 374.16 66.1988 343.378C78.4312 325.056 89.2753 305.368 102.815 287.976C116.461 270.45 134.153 254.336 149.752 238.413C158.036 229.956 166.282 218.988 176.974 213.557C191.688 206.084 212.847 203.703 229.155 199.34C247.829 194.344 266.244 188.251 284.817 182.88C308.34 176.077 331.616 168.25 354.937 160.784C363.479 158.049 374.286 152.913 383.015 152.206C391.334 151.533 398.201 154.57 404.343 159.971C412.373 167.033 419.425 176.078 426.599 184.055C442.295 201.571 457.781 219.275 473.052 237.163C477.897 242.878 482.249 249.002 487.155 254.662C459.772 238.125 433.231 220.178 406.061 203.288C397.585 198.019 384.005 188.289 375.269 185.522C368.954 183.521 362.678 184.212 356.374 185.787C349.141 187.593 342.028 190.167 334.926 192.444C323.694 196.021 312.424 199.48 301.119 202.818C266.656 212.501 231.86 220.954 196.797 228.16C190.317 229.443 183.785 230.902 177.264 231.939C172.863 232.638 167.876 232.675 163.701 234.228C160.981 235.239 158.894 236.491 157.389 239.011L157.334 240.291C158.603 241.371 159.932 241.385 161.553 241.234C165.966 240.823 170.477 239.598 174.845 238.807C184.412 237.073 193.968 235.406 203.489 233.426C239.283 225.979 275.258 217.638 310.263 207.036C319.59 204.212 362.334 189.286 367.959 190.074C370.878 190.483 374.403 192.303 376.995 193.698C392.134 201.846 406.749 211.265 421.276 220.447C436.815 230.222 452.281 240.115 467.672 250.122C477.225 256.43 488.033 261.974 496.864 269.21C502.166 273.554 504.879 282.794 507.743 288.95C519.953 315.199 529.993 338.251 538.422 366.11C533.848 367.887 529.29 369.747 524.664 371.384C512.199 359.179 497.946 356.99 481.068 357.038C471.465 344.301 463.373 329.608 455.528 315.724C452.369 310.133 449.427 304.243 445.932 298.86C424.201 291.022 395.62 280.666 378.997 264.466C382.112 259.724 389.301 250.026 388.216 244.263C387.795 243.699 387.75 243.376 386.999 243.22C385.807 242.973 384.753 243.384 383.62 243.717C379.017 249.718 376.689 256.666 371.47 262.428C359.178 276 326.834 283.25 308.536 285.63C304.319 286.179 295.32 285.863 292.194 288.924C291.585 289.521 291.707 289.652 291.547 290.508C292.22 291.956 293.196 292.59 294.676 293.099C296.9 293.865 300.031 293.259 302.351 293.05C298.004 296.772 293.691 300.656 289.05 304.008C277.436 312.396 261.109 320.769 246.944 322.913C241.257 323.773 235.199 323.907 229.461 323.613C226.942 323.484 220.154 322.251 218.067 323.144C217.126 323.548 216.221 324.933 215.975 325.86C216.537 327.375 217.274 328.008 218.757 328.67C222.377 330.286 226.388 330.549 230.278 330.936C238.022 355.88 249.285 378.472 269.252 395.913C274.011 400.071 278.994 404.089 284.616 407.028C297.173 413.592 308.649 411.464 321.57 407.306C331.504 404.11 341.167 400.124 351.1 396.92C374.166 389.481 397.64 382.914 420.991 376.421C440.236 371.069 463.881 364.38 483.72 363.651C492.717 363.32 503.043 364.658 511.13 368.837C513.149 369.881 514.805 371.1 516.246 372.851C516.095 373.988 516.07 374.014 515.175 374.671C512.797 376.419 509.12 377.178 506.295 378.047C493.021 382.13 475.403 386.002 472.274 402.059C470.667 410.308 474.236 416.806 478.771 423.317C444.968 444.798 408.305 460.001 371.41 475.238C335.119 490.224 298.502 504.776 260.452 514.755C240.968 519.83 221.376 524.482 201.691 528.708C183.77 532.462 165.634 535.663 147.599 538.831C138.545 540.421 129.139 541.589 120.221 543.768C118.288 544.241 116.272 544.831 114.576 545.903C108.286 549.879 98.3396 560.415 92.2383 565.952C73.0368 583.143 54.3589 600.91 36.2301 619.229C23.927 631.821 12.4359 645.325 0 657.752L0 431.874Z"/>
	<path fill="#421983" d="M648.142 169.257C651.466 164.056 655.693 159.19 659.461 154.289C664.289 156.47 668.722 161.904 672.458 165.633C668.687 170.299 664.606 174.53 661.169 179.478C656.885 175.925 652.179 173.165 648.142 169.257Z"/>
	<path fill="#421983" d="M525.55 181.743C529.817 180.885 534.01 180.535 538.35 180.233L540.245 180.423C543.049 182.994 543.12 195.682 543.517 199.868C539.379 200.132 535.246 200.487 531.123 200.932C529.691 201.018 528.502 200.994 527.083 200.785C525.558 195.053 526.01 187.739 525.55 181.743Z"/>
	<path fill="#421983" d="M619.541 207.329C622.777 201.706 626.872 196.649 631.182 191.824C635.063 192.484 640.838 200.084 643.616 203.02C639.514 207.265 636.184 212.587 632.828 217.436C627.818 214.458 623.735 211.397 619.541 207.329Z"/>
	<path fill="#08022A" d="M521.584 209.623C521.899 212.571 521.688 215.53 522.007 218.466C521.827 218.159 521.205 217.461 520.907 217.294C517.224 215.214 494.234 215.017 487.862 212.374C486.571 211.838 485.389 210.795 484.915 209.465C484.639 208.689 484.76 208.859 485.095 208.006C491.007 203.173 512.395 211.25 521.004 209.771C521.201 209.737 521.391 209.672 521.584 209.623Z"/>
	<path fill="#08022A" d="M528.076 223.947C527.537 227.167 527.879 230.817 527.78 234.104C526.986 232.586 526.738 214.544 527.431 211.719C527.554 214.364 527.619 217.03 527.822 219.67C533.744 219.13 543.479 217.242 548.328 221.342C549.978 222.736 550.503 224.53 550.845 226.589L550.235 227.195L549.986 226.472C548.937 223.485 548.393 222.042 545.461 220.518L544.764 220.878C545.995 223.278 547.219 224.221 546.946 227.113C546.442 232.456 549.867 238.404 547.871 243.679L547.422 243.491C546.996 236.911 546.431 230.43 545.205 223.944C539.445 223.503 533.83 223.328 528.076 223.947Z"/>
	<path fill="#421983" d="M528.076 223.947C533.83 223.328 539.445 223.503 545.205 223.944C546.431 230.43 546.996 236.911 547.422 243.491C541.148 243.283 534.794 243.525 528.513 243.563C528.374 237.04 528.687 230.446 528.076 223.947Z"/>
	<path fill="#421983" d="M593.129 245.03C595.851 239.561 599.824 234.254 603.938 229.756C608.388 231.082 613.014 236.167 616.372 239.229C612.368 243.8 609.179 249.138 605.902 254.237C601.569 251.274 597.31 248.204 593.129 245.03Z"/>
	<path fill="#9F8BE8" d="M522.92 303.602C519.96 299.384 516.209 289.15 513.575 283.87C507.947 272.587 501.642 262.393 494.539 251.981C504.078 254.763 513.279 257.747 523.035 259.754C522.734 274.371 523 288.983 522.92 303.602Z"/>
	<path fill="#421983" d="M544.246 282.889C539.838 283.909 532.338 284.199 527.932 283.329C527.61 282.215 527.585 282.083 527.991 280.966C529.586 276.578 528.643 268.9 528.876 263.999C533.051 264.144 538.828 263.682 542.748 265.135C544.262 265.696 545.419 266.53 546.038 268.089C547.572 271.955 545.747 279.117 544.246 282.889Z"/>
	<path fill="#421983" d="M566.73 285.001C569.341 279.124 572.966 273.515 575.791 267.682C580.986 269.547 585.984 273.664 590.271 277.044C586.663 282.437 583.636 288.328 580.466 293.994L579.969 294.208C579.751 293.926 579.526 293.648 579.31 293.364C576.198 289.281 571.042 287.67 566.73 285.001Z"/>
	<path fill="#9F8BE8" d="M310.749 292.273C332.66 287.975 356.335 283.459 374.025 268.98C384.396 278.454 397.951 285.854 410.856 291.304C412.544 320.533 417.804 341.445 434.038 366.121C423.729 369.273 413.192 371.866 402.797 374.734C386.323 379.344 369.897 384.127 353.524 389.083C338.945 393.576 324.78 400.118 310.043 403.917C306.066 404.942 302.371 405.227 298.278 405.115C293.975 404.046 290.214 402.7 286.365 400.469C262.136 386.424 244.691 356.984 237.496 330.532C238.154 330.523 238.811 330.5 239.467 330.466C266.413 329.253 293.033 311.731 310.749 292.273Z"/>
	<path fill="#421983" d="M544.91 364.023C541.896 352.873 538.129 341.128 534.158 330.286C531.891 324.096 527.733 317.707 526.806 311.167C525.818 304.202 527.303 295.906 527.888 288.863C535.414 291.709 542.699 295.214 550.269 297.93C558.374 300.838 566.743 303.019 574.879 305.891C569.329 320.55 564.836 335.783 560.12 350.733C558.374 355.234 556.639 359.644 554.534 363.994L544.91 364.023Z"/>
	<path fill="#FEFEFD" d="M571.416 299.09L571.005 292.807C573.161 294.052 576.228 295.409 577.767 297.378C578.471 298.279 578.124 298.863 578.03 299.954C575.858 300.794 573.546 299.72 571.416 299.09Z"/>
	<path fill="#9F8BE8" d="M441.736 364.396C426.08 348.399 418.798 317.098 417.286 295.061C425.077 298.113 432.961 300.923 440.926 303.487C451.245 321.934 462.158 340.043 473.646 357.785L468.375 358.659C459.44 360.22 450.577 362.375 441.736 364.396Z"/>
	<path fill="#9F8BE8" d="M561.39 366.748C564.596 359.409 566.921 351.632 569.375 344.015C573.382 331.853 577.115 319.601 580.57 307.271C593.401 311.933 606.33 316.488 618.932 321.738C612.122 336.192 607.01 362.212 602.547 378.55C593.097 413.142 581.935 446.533 565.852 478.66C562.945 484.368 559.86 489.931 556.65 495.475C555.857 486.968 555.251 478.569 555.311 470.021C555.448 450.719 557.256 432.004 555.737 412.657C560.295 409.334 565.18 406.088 568.688 401.6C572.51 396.71 574.289 391.382 573.499 385.163C572.458 376.968 567.522 371.639 561.39 366.748Z"/>
	<path fill="#FEFEFD" d="M499.118 422.518C494.907 422.579 491.313 422.366 487.379 420.601C483.528 418.873 480.049 415.817 478.656 411.738C477.268 407.674 478.017 402.959 480.038 399.231C481.874 395.843 484.695 393.396 488.051 391.573C497.138 386.638 508.581 384.401 518.371 380.95C527.999 377.556 537.291 373.241 547.165 370.539C551.865 370.219 556.425 371.434 560.163 374.396C563.763 377.25 566.501 382.104 566.914 386.694C567.308 391.083 565.611 395.099 562.796 398.397C550.509 412.791 517.376 421.35 499.118 422.518Z"/>
	<path fill="#FEFEFD" d="M509.945 427.967C507.386 436.638 503.452 445.004 501.221 453.714C499.883 458.943 499.973 464.082 502.899 468.777C505.559 473.046 509.744 476.19 514.689 477.223C518.81 478.084 522.792 477.866 526.364 475.494C528.807 473.87 530.747 471.594 532.26 469.101C535.315 464.065 541.48 448.959 542.402 443.199C543.325 437.428 543.915 423.083 545.309 418.847C545.837 417.242 547.038 416.804 548.366 415.922C551.422 419.819 548.568 458.56 548.437 466.444C548.056 489.392 550.604 512.793 552.242 535.688C552.953 545.623 554.026 555.799 553.691 565.752C553.198 580.423 546.445 591.373 535.967 601.221C533.044 598.175 529.978 595.249 526.975 592.28C531.675 587.853 536.09 582.943 538.515 576.862C542.698 566.371 541.682 545.238 537.264 534.783C532.518 523.55 523.772 516.616 512.683 512.189C521.579 512.348 531.093 510.895 538.51 505.559C540.095 504.419 542.205 502.615 542.307 500.5C542.371 499.151 542.072 498.75 541.257 497.813C537.721 496.874 532.603 501.724 529.247 503.014C526.021 504.253 522.359 504.992 518.926 505.343C508.909 506.365 496.098 504.634 488.089 498.176C489.154 494.143 491.996 489.844 492.215 485.75C492.285 484.438 492.09 483.94 491.266 482.953C490.1 482.621 488.957 482.635 487.851 483.198C484.77 484.765 482.205 495.538 481.033 499.109C475.262 514.615 468.563 531.133 466.686 547.656C465.254 560.26 464.829 572.322 473.068 582.651C468.824 584.19 464.854 585.802 460.834 587.881C455.102 574.007 452.901 560.035 454.476 545.03C455.841 532.031 461.286 519.304 465.447 506.98C474.327 480.955 483.619 455.073 493.32 429.342C498.911 429.49 504.423 428.755 509.945 427.967Z"/>
	<path fill="#FEFEFD" d="M516.888 426.505C523.794 424.859 530.662 423.052 537.484 421.085L538.011 421.555C538.773 427.664 536.814 443.332 534.417 448.951C533.475 451.157 532.55 452.354 530.206 453.171C525.11 454.945 519.276 453.325 514.635 451.03C512.992 449.975 511.626 448.674 510.195 447.358C511.907 440.253 515.397 433.683 516.888 426.505Z"/>
	<path fill="#9F8BE8" d="M260.47 1024C266.557 1006.81 271.725 989.288 277.151 971.88L294.137 918.778L370.975 674.7C379.856 646.913 388.518 619.057 396.961 591.133C403.808 567.857 409.896 544.354 417.065 521.171C421.326 507.412 425.913 493.755 430.822 480.214C433.968 471.313 437.682 462.323 439.787 453.112C451.88 446.018 464.509 440.252 476.398 432.729C478.545 431.37 483.856 427.058 486.108 427.294L486.687 428.156C485.333 434.916 480.974 443.714 478.501 450.537L464.359 489.744C456.372 511.688 447.006 533.584 447.47 557.329C443.041 557.912 432.362 558.218 429.291 561.599C427.481 563.591 427.941 566.735 428.368 569.144C430.136 579.123 436.531 588.778 444.866 594.511C447.993 596.661 451.456 598.145 454.961 599.562C454.63 604.205 454.3 608.78 454.897 613.416C451.916 611.492 439.614 602.843 436.976 602.521C436.424 602.453 435.873 602.655 435.321 602.722C434.119 603.502 433.634 603.957 432.996 605.245C432.961 606.724 432.873 606.966 433.908 608.13C437.603 612.283 449.977 618.471 455.146 621.032C455.975 628.475 456.613 636.014 457.965 643.38C451.583 648.611 445.392 654.518 438.719 659.321C434.758 656.468 420.838 646.527 417.104 645.818C415.643 646.227 414.612 646.465 413.517 647.599C413.207 648.745 413.23 649.339 413.807 650.416C416.567 655.563 431.137 662.464 436.442 666.763C437.994 673.656 439.45 680.571 440.81 687.504C434.634 693.073 428.56 698.753 422.591 704.543C418.581 702.37 402.916 692.416 399.585 692.486C398.413 693.336 398.167 693.536 397.553 694.835C397.587 696.516 398.188 697.586 399.338 698.76C403.929 703.448 413.763 708.317 419.735 711.365C421.461 718.42 423.289 725.467 424.61 732.61C418.285 738.043 412.728 744.883 407.113 751.042C402.432 748.154 387.443 737.565 382.664 738.441C381.82 738.596 381.697 739.03 381.181 739.649C381.039 740.992 380.908 741.718 381.493 742.985C387.94 748.91 396.819 752.24 404.122 757.031C406.259 763.899 407.835 770.933 409.427 777.944C403.194 783.395 397.808 789.422 392.412 795.672C387.733 793.157 371.612 782.632 367.333 783.98C366.444 784.26 366.273 784.8 365.748 785.511C365.597 786.913 365.495 787.26 366.322 788.49C368.164 791.232 386.594 800.471 390.823 802.945C391.487 809.576 393.462 815.614 394.897 822.058C389.09 828.131 383.231 834.527 377.022 840.182C371.525 837.647 357.618 828.438 353.015 828.16C351.85 828.743 351.208 828.997 350.708 830.322C350.252 831.53 350.424 832.525 350.92 833.655C356.526 838.737 367.809 843.338 374.619 847.438C376.447 853.99 378.369 860.528 379.861 867.166C374.364 873.948 367.801 880.525 361.278 886.33C357.038 884.14 339.332 874.024 335.939 875.08C334.915 875.399 334.491 875.71 333.838 876.585C333.943 878.199 334.46 879.073 335.663 880.172C341.706 885.694 352.063 888.931 359.149 893.361C360.669 899.144 362.53 904.877 363.957 910.672C358.59 917.343 352.58 923.96 346.365 929.855C342.67 928.109 325.311 918.344 322.883 919.074C321.597 919.461 320.994 920.088 320.307 921.185C320.425 923.102 321.115 924.086 322.57 925.326C328.531 930.409 337.668 933.913 344.695 937.478C346.554 943.682 348.283 949.978 350.404 956.095C344.711 962.332 339.11 968.778 333.126 974.732C328.302 972.316 311.466 962.715 307.243 963.873C305.768 964.277 305.557 964.691 304.707 965.872C304.559 967.113 304.277 967.625 305.228 968.599C308.548 972.002 324.828 978.551 330.443 981.811C333.486 987.934 335.674 994.519 337.898 1000.98C331.6 1006.96 325.822 1013.73 319.2 1019.31C314.844 1017.31 310.532 1015.22 306.269 1013.03C303.384 1011.52 299.65 1008.43 296.55 1007.7C295.594 1007.47 295.038 1007.61 294.126 1007.89C293.041 1008.83 292.491 1009.39 291.864 1010.73C292.157 1012.64 292.93 1013.57 294.504 1014.69C299.616 1018.32 306.115 1020.82 311.604 1024L260.47 1024Z"/>
	<path fill="#9F8BE8" d="M0 669.419C9.57132 656.94 20.5831 645.58 31.4636 634.25C46.7565 618.155 62.5019 602.496 78.6807 587.292C92.0411 574.863 105.995 563.055 119.287 550.562C157.888 543.7 196.468 537.236 234.619 528.059C265.829 520.466 296.596 511.157 326.78 500.174C350.458 491.504 373.902 482.207 397.087 472.293C408.664 467.377 420.219 461.197 432.138 457.234C425.879 474.778 419.265 491.471 413.612 509.321C401.942 546.169 392.272 583.641 380.879 620.586L291.692 904.601C284.044 928.288 276.243 951.971 268.889 975.747C263.929 991.783 259.782 1008.35 253.666 1024L0 1024L0 669.419Z"/>
	<path fill="#FEFEFD" d="M527.182 465.154C525.539 467.373 523.601 469.462 520.929 470.39C518.423 471.26 515.822 471.147 513.469 469.877C509.971 467.989 508.316 464.483 507.261 460.835C508.02 461.432 507.752 461.141 508.326 461.911C510.102 464.293 512.173 467.152 515.11 468.175C520.063 469.901 523.262 465.948 527.265 464.224L527.182 465.154Z"/>
	<path fill="#FEFEFD" d="M472.188 554.688C473.64 537.833 480.092 520.67 485.463 504.679C487.57 505.604 489.651 506.987 491.673 508.111C485.612 521.753 479.815 535.512 474.285 549.378L472.188 554.688Z"/>
	<path fill="#421983" d="M491.009 576.636C490.659 577.192 490.209 577.581 489.741 578.038C486.846 578.858 481.644 579.171 478.889 577.944C477.187 577.186 475.759 575.308 475.081 573.621C474.056 571.073 474.223 568.027 474.799 565.393C476.063 559.613 478.941 553.788 481.188 548.304C486.071 536.385 491.254 524.62 496.308 512.776C502.599 515.366 509.059 517.384 515.535 519.45C508.564 538.87 499.066 557.622 491.009 576.636Z"/>
	<path fill="#08022A" d="M589.631 547.25C610.776 542.938 631.968 539.09 652.984 534.148C661.371 532.196 669.739 530.166 678.087 528.058C686.649 525.843 695.756 522.81 704.638 522.397C711.173 522.093 717.964 523.452 723.469 527.077C734.068 534.057 741.586 546.774 749.11 556.765C754.742 564.365 760.612 571.786 766.712 579.015C783.137 598.523 799.941 616.999 818.262 634.763C829.537 645.728 841.112 656.381 852.971 666.711C860.854 673.54 870.581 680.177 877.208 688.15C880.84 692.519 883.876 698.369 884.907 703.984C887.29 716.966 883.759 736.508 882.574 750.003C881.526 763.275 880.629 776.558 879.883 789.85C875.987 859.831 885.785 958.104 908.305 1024L900.784 1024C899.673 1017.89 897.338 1011.63 895.69 1005.62C892.877 995.163 890.337 984.636 888.073 974.048C878.321 927.452 873.092 880.024 872.458 832.422C872.303 811.274 872.557 790.212 874.172 769.111C875.003 758.239 875.877 747.352 876.91 736.498C877.841 726.72 879.978 716.308 878.666 706.518C878.098 702.275 876.685 698.551 874.2 695.043C868.381 686.829 849.599 673.065 841.154 665.683C812.128 640.312 786.325 612.807 761.416 583.423C755.269 576.222 749.374 568.81 743.74 561.2C737.389 552.778 729.573 539.853 721.257 533.762C717.01 530.65 712.542 529.256 707.314 529.315C693.415 529.471 675.321 535.586 661.543 538.826C642.273 543.357 622.68 547.486 603.076 550.273C602.827 550.077 602.591 549.862 602.327 549.685C601.642 549.225 564.412 555.678 559.911 556.266C559.981 555.973 560.026 555.673 560.122 555.388C560.172 555.239 560.27 555.112 560.344 554.974L559.945 553.938C565.832 550.528 583.779 550.353 590.99 547.707L589.631 547.25Z"/>
	<path fill="#9F8BE8" d="M499.95 572.325C507.543 556.433 514.704 539.88 521.047 523.448C522.508 524.512 523.832 525.642 525.116 526.916C535.294 537.02 534.407 553.642 534.548 566.808C527.363 568.141 520.109 569.141 512.88 570.2C508.535 570.734 504.252 571.528 499.95 572.325Z"/>
	<path fill="#FEFEFD" d="M559.997 557.568C574.375 555.424 588.817 553.105 603.076 550.273C622.68 547.486 642.273 543.357 661.543 538.826C675.321 535.586 693.415 529.471 707.314 529.315C712.542 529.256 717.01 530.65 721.257 533.762C729.573 539.853 737.389 552.778 743.74 561.2C749.374 568.81 755.269 576.222 761.416 583.423C786.325 612.807 812.128 640.312 841.154 665.683C849.599 673.065 868.381 686.829 874.2 695.043C876.685 698.551 878.098 702.275 878.666 706.518C879.978 716.308 877.841 726.72 876.91 736.498C875.877 747.352 875.003 758.239 874.172 769.111C872.557 790.212 872.303 811.274 872.458 832.422C873.092 880.024 878.321 927.452 888.073 974.048C890.337 984.636 892.877 995.163 895.69 1005.62C897.338 1011.63 899.673 1017.89 900.784 1024L685.994 1024C623.859 968.454 600.209 927.539 570.387 850.444C563.412 832.413 556.986 814.188 549.86 796.209C537 763.215 522.946 730.699 507.726 698.725C502.462 687.741 496.715 676.952 491.25 666.063C495.401 666.299 499.767 666.136 503.791 665.011C511.05 662.981 516.477 658.334 520.061 651.799C524.24 644.178 524.301 635.763 521.821 627.619C517.123 612.193 500.147 593.296 486.07 585.796C509.859 585.527 525.758 598.799 541.068 615.518C559.922 636.107 575.063 658.127 588.211 682.729C608.758 721.179 618.114 757.724 650.023 789.276C654.288 793.494 658.897 798.356 663.865 801.708C665.071 802.522 666.721 803.548 668.215 803.005C669.377 802.583 669.729 802.044 670.271 801.044C670.263 800.824 670.273 800.604 670.246 800.386C670.083 799.052 669.398 798.081 668.537 797.1C665.939 794.134 662.365 791.85 659.392 789.252C655.91 786.21 652.635 782.757 649.436 779.408C639.964 769.494 632.326 757.999 626.002 745.871C639.926 755.065 654.83 764.245 670.347 770.521C682.599 775.477 681.696 767.012 690.153 761.354C698.492 755.775 711.384 754.961 721.061 752.504C727.916 750.763 735.012 748.433 741.495 745.611C744.505 744.3 747.6 742.675 748.854 739.473C748.74 738.878 748.849 738.403 748.264 738.08C747.035 737.401 745.275 737.684 743.965 738C740.397 738.86 736.853 740.792 733.392 742.067C727.819 744.119 722.204 745.621 716.438 747.004C709.599 738.508 700.572 730.971 692.461 723.69C667.185 701.002 639.686 681.234 615.857 656.868C608.518 649.364 600.388 641.12 595.534 631.747C593.955 628.699 594.315 625.094 593.085 622.022C592.674 620.996 591.384 620.489 590.471 620.009C589.622 620.024 589.074 619.895 588.506 620.672C586.704 623.139 587.189 626.204 587.682 628.98C578.453 628.456 569.392 628.171 560.149 628.498C554.949 620.267 547.677 612.695 540.989 605.65C551.421 596.529 555.358 587.37 559.89 574.592C566.141 573.736 572.629 573.692 578.932 573.294C596.007 572.216 612.933 571.67 630.042 571.461C644.923 582.922 658.687 596.069 673.214 607.997C694.234 625.268 716.952 640.364 741.018 653.052C755.889 661.015 771.425 667.66 787.015 674.08C796.531 677.999 806.438 681.346 815.425 686.404C828.425 693.721 837.279 702.703 839.334 718.01C839.902 722.248 839.51 727.158 840.804 731.212C841.304 732.778 841.893 733.404 843.345 734.109C844.555 733.879 845.205 733.854 845.966 732.745C848.403 729.197 846.422 718.035 845.535 713.84C843.107 702.357 837.042 693.447 827.816 686.283C815.138 676.437 789.196 668.029 773.474 661.248C753.166 652.489 732.482 642.215 713.955 630.079C707.901 626.113 694.978 618.274 691.704 612.244C687.907 605.249 686.401 592.199 684.691 584.193C684.293 582.33 683.998 580.356 682.347 579.286C680.904 579.209 680.776 579.166 679.564 579.927C676.219 585.859 680.942 599.976 682.432 606.454C676.546 602.16 670.965 597.192 665.309 592.577C654.458 583.724 643.373 574.806 633.325 565.043C608.786 564.472 584.383 566.756 559.924 568.394L559.997 557.568Z"/>
	<path fill="#FEFEFD" d="M434.609 566.305C438.751 565.91 442.86 565.291 446.976 564.69L448.213 564.773C449.154 568.03 449.157 571.618 449.871 574.961C451.158 580.981 453.364 586.578 455.659 592.263C453.02 591.035 450.518 589.499 447.993 588.054C440.318 582.739 436.879 575.055 434.609 566.305Z"/>
	<path fill="#FEFEFD" d="M497.786 579.454C508.836 576.263 521.406 574.751 532.846 573.726L533.128 573.899L533.161 574.71C530.016 579.954 525.918 584.564 521.079 588.301C516.024 585.459 511.228 583.231 505.677 581.535C503.119 580.696 500.398 580.125 497.786 579.454Z"/>
	<path fill="#FEFEFD" d="M486.626 658.793C477.6 650.392 468.577 632.104 464.105 620.455C461.464 613.576 458.864 604.571 462.254 597.541C464.377 593.137 467.835 591.213 472.196 589.561C474.486 589.283 476.547 589.255 478.789 589.886C490.972 593.313 506.743 612.047 512.653 622.796C516.486 629.768 518.307 638.348 515.827 646.089C513.9 652.102 509.807 655.502 504.407 658.278C498.491 660.522 492.69 660.177 486.626 658.793Z"/>
	<path fill="#7346BB" d="M464.61 643.895C463.772 640.748 463.179 637.599 462.62 634.392C465.815 637.011 468.669 643.922 470.587 647.636C468.196 646.803 466.527 645.479 464.61 643.895Z"/>
	<path fill="#9F8BE8" d="M587.809 668.981C581.335 657.187 573.415 646.548 566.644 635.005C574.663 634.72 582.709 634.995 590.73 635.141C594.133 642.209 598.32 647.17 603.883 652.696C602.095 656.347 599.929 659.189 597.133 662.097C594.224 664.713 591.198 667.023 587.809 668.981Z"/>
	<path fill="#9F8BE8" d="M324.553 1024C330.064 1017.56 337.01 1011.89 341.844 1004.99C345.79 1007.14 364.111 1017.23 367.653 1016.18C368.582 1015.91 369.046 1015.38 369.679 1014.7C370.087 1013.35 370.043 1013.16 369.674 1011.8C366.319 1007.57 349.6 1001.42 343.876 998.362C341.984 992.156 340.228 985.888 337.966 979.805C343.373 973.463 349.2 967.489 354.726 961.25C360.566 963.562 376.861 973.124 381.806 972.593C382.939 972.007 383.957 971.197 384.447 969.967C384.676 969.39 384.896 968.817 384.555 968.254C382.751 965.276 361.73 956.067 357.316 953.964C354.955 947.587 353.452 940.861 351.485 934.349C357.415 928.259 363.306 922.13 369.157 915.964C374.578 918.563 392.081 928.395 396.827 927.394C397.986 926.452 397.939 926.528 398.14 925.047C397.221 922.168 394.967 920.522 392.366 919.156C385.123 915.35 377.557 911.941 370.154 908.446C368.834 902.88 367.841 897.21 366.406 891.678C372.426 885.085 378.605 878.639 384.937 872.346C389.797 874.789 406.496 884.472 411.214 882.935C412.06 882.66 412.459 882.424 413.075 881.817L413.32 880.614L413.283 881.388C412.868 879.207 411.989 878.278 410.166 877.04C403.162 872.283 394.265 868.802 386.627 865.035L381.614 845.436C387.106 839.306 392.698 833.265 398.386 827.315C404.539 830.423 418.499 838.687 424.568 838.782C425.506 838.226 426.354 837.626 426.61 836.466C426.861 835.334 426.81 834.528 426.033 833.649C423.235 830.482 406.261 823.397 401.334 820.474C399.726 813.997 398.061 807.535 396.338 801.088C401.711 795.055 406.946 788.646 412.759 783.043C416.612 784.779 437.069 795.707 439.214 794.703C440.654 794.029 441.333 792.394 441.759 790.97C441.419 789.385 440.774 788.968 439.416 788.1C433.511 784.327 422.974 779.518 416.362 776.931C414.689 769.834 413.11 762.714 411.625 755.575C417.554 750.237 422.469 743.973 428.268 738.555C433.476 741.215 446.786 749.816 451.454 750.513C452.431 750.659 453.332 750.525 454.27 750.246C455.04 750.018 455.622 749.626 456.257 749.152C456.609 748.069 456.771 747.872 456.209 746.797C453.901 742.38 436.894 734.697 431.842 732.314C429.941 724.797 427.772 717.187 427.249 709.423C432.633 704.025 438.072 698.681 443.564 693.393C449.589 696.541 462.559 704.814 468.171 706.183C469.345 706.47 470.583 706.379 471.744 706.051C472.862 705.736 473.359 705.471 474.007 704.473C473.905 703.053 473.089 702.163 472.076 701.235C467.643 697.172 453.948 691.161 447.768 687.774C446.367 680.321 445.052 672.799 443.188 665.447C448.767 660.092 454.59 654.975 460.109 649.564C465.997 653.194 472.984 655.99 478.463 660.09C484.82 664.847 492.613 682.537 496.687 690.22C490.072 707.311 484.631 725.752 478.939 743.245L454.316 818.464C441.375 858.856 427.279 898.931 414.743 939.453L398.126 994.784C395.196 1004.51 392.447 1014.46 389 1024L324.553 1024Z"/>
	<path fill="#9F8BE8" d="M590.59 673.156C598.435 669.529 602.577 665.641 607.864 658.777C612.642 661.957 620.07 670.457 624.966 674.669C625.287 682.314 626.014 691.159 623.49 698.479C621.575 704.033 616.685 712.137 611.251 714.827L610.547 714.143C604.267 700.302 597.612 686.635 590.59 673.156Z"/>
	<path fill="#9F8BE8" d="M613.436 720.536C615.731 718.836 617.895 717.091 619.878 715.028C629.444 705.078 631.747 694.11 631.402 680.8C636.442 684.445 640.641 689.279 645.471 693.218C659.576 704.721 673.944 715.866 687.703 727.799C695.319 734.403 702.319 741.677 709.97 748.222C700.541 750.324 692.271 752.098 684.367 757.86C681.32 760.244 679.039 762.974 676.846 766.128C676.049 765.879 675.268 765.612 674.487 765.314C664.537 761.512 627.86 741.829 620.889 734.801C617.448 731.331 615.428 724.977 613.436 720.536Z"/>
	<path fill="#9F8BE8" d="M396.226 1024C402.399 1001.66 409.762 979.703 416.64 957.58C431.128 909.973 446.324 862.585 462.224 815.432L485.237 745.215C488.313 735.751 491.595 726.375 494.792 716.954C496.828 710.959 498.582 704.831 501.007 698.979C504.164 704.558 506.465 710.798 509.039 716.68L523.326 749.51C537.789 782.868 550.534 816.866 563.636 850.777C571.765 871.818 580.583 895.776 590.791 915.681C612.284 956.657 641.076 993.365 675.753 1024L396.226 1024Z"/>
</svg>
