<?xml version="1.0" encoding="utf-8" ?>
<svg xmlns="http://www.w3.org/2000/svg" xmlns:xlink="http://www.w3.org/1999/xlink" width="1024" height="1024">
	<path fill="#C6BCFD" d="M0 0L308.333 0C309.997 18.9671 313.904 41.3386 317.246 60.2536C318.704 68.5047 321.697 77.6605 321.757 85.9818C321.822 95.1683 318.037 105.238 316.466 114.348C313.312 132.637 310.943 151.212 308.414 169.607C302.737 208.85 297.599 248.169 293.001 287.553L288.545 329.644C287.945 335.359 287.715 341.241 286.811 346.909C277.384 355.85 269.629 367.175 261.922 377.615C234.691 414.506 212.922 455.285 191.932 495.96L150.321 577.124C142.843 591.708 135.89 606.424 127.838 620.714C126.86 619.647 125.535 617.816 124.026 617.6C122.859 617.433 121.667 617.7 120.769 618.472C118.854 620.119 96.6911 652.332 94.2332 656.524C98.6303 663.042 102.964 669.785 107.927 675.89C99.4725 687.626 91.1367 699.546 81.6215 710.456L44.9275 751.843C38.7685 758.798 30.2312 766.463 26.0047 774.712L25.8212 775.063C31.5465 784.524 41.1427 792.726 48.7159 800.762C60.1196 812.863 71.4925 825.196 82.5034 837.651C93.8644 850.675 105.001 863.893 115.908 877.299C127.916 892.034 139.428 907.176 154.178 919.334C166.182 929.23 178.808 935.278 193.914 938.953C212.768 943.541 254.761 944.447 271.426 934.029C275.045 931.767 277.076 928.763 277.981 924.598C279.747 916.469 277.95 906.744 273.349 899.829C261.146 881.488 241.781 887.604 231.073 876.409C218.958 863.743 197.897 811.246 189.946 793.392C185.198 782.729 179.933 772.135 174.569 761.767C178.307 752.429 182.569 743.325 186.341 734.01C188.933 735.002 191.533 736.13 194.216 736.845C200.196 730.53 218.7 705.166 219.305 697.461C218.596 695.512 216.926 694.506 215.282 693.367C226.583 678.958 236.75 663.397 247.3 648.413C272.123 612.825 296.477 576.912 320.355 540.683C326.326 531.517 332.249 522.32 338.124 513.093C340.724 508.983 343.074 504.32 346.043 500.505C346.915 499.385 347.624 498.689 348.899 498.062C350.765 498.456 351.034 499.931 353.024 499.939C357.677 496.655 372.977 463.662 377.676 456.434C382.817 448.527 389.413 441.918 395.501 434.771C401.578 427.683 406.876 419.963 411.304 411.744C413.567 416.505 415.857 421.185 417.328 426.269C410.934 441.384 410.502 458.339 409.654 474.552C407.111 523.216 408.35 573.965 409.34 622.706C410.213 677.613 412.05 732.502 414.849 787.345C415.256 794.359 415.84 819.648 417.479 824.351C418.059 826.015 419.294 826.687 420.864 827.319C424.56 828.806 428.716 829.63 432.577 830.621C432.541 839.456 434.247 849.114 433.091 857.767C432.061 865.481 429.617 873.327 427.815 880.912C423.866 897.541 419.736 914.113 415.974 930.786C414.599 936.881 412.035 944.429 411.963 950.641C411.949 951.857 412.227 952.521 413.005 953.449C417.17 958.417 431.214 960.883 437.492 962.48C447.154 964.938 456.775 967.727 466.564 969.644C478.807 972.042 491.221 973.55 503.344 976.545C525.331 981.979 546.221 990.107 568.704 993.73C588.049 996.848 607.557 997.733 627.127 997.561C638.976 997.457 681.292 996.314 689.321 988.779C692.577 985.724 692.768 980.348 692.743 976.178C692.685 966.687 692.607 954.591 685.344 947.572C676.836 939.349 653.013 928.436 641.955 924.142C637.783 922.522 633.368 921.725 629.207 919.983C622.329 917.102 615.634 913.579 609.228 909.762C588.456 897.498 568.928 883.239 550.922 867.186C545.857 862.72 540.861 858.177 535.934 853.559C532.325 850.13 528.86 846.26 524.828 843.333C524.924 835.221 525.463 827.121 526.443 819.068C529.74 817.041 532.867 814.973 535.445 812.042L535.989 780.906C536.092 774.785 536.497 768.4 536.009 762.298C534.694 761.117 533.39 759.929 532.021 758.811C531.606 719.637 530.521 680.345 531.704 641.183C533.431 583.988 538.136 526.887 540.506 469.704C542.346 472.445 545.969 479.388 549.456 479.772C550.718 479.91 551.272 479.418 552.237 478.752C552.911 476.758 553 474.795 552.916 472.708C552.309 457.56 550.104 442.368 549.31 427.188L545.681 361.633C544.968 349.889 544.524 337.97 543.24 326.282C542.54 319.908 540.963 313.397 539.171 307.247C542.44 312.012 548.713 325.192 554.153 326.477C555.406 326.167 555.476 326.248 556.214 325.212C557.488 318.014 552.866 299.17 551.539 291.042C549.637 279.389 547.906 267.694 546.2 256.01L533.426 163.253L518.074 47.9293C515.956 32.0326 514.555 15.7926 511.877 0L719.928 0C708.729 22.2108 701.851 46.4347 694.82 70.2171C679.894 121.668 668.238 174.011 659.922 226.933C651.409 280.483 645.711 334.394 639.049 388.183L607.411 640.991C603.92 667.806 600.864 694.757 596.767 721.479C595.682 728.552 594.768 739.709 593.065 746.056C592.717 747.351 592.383 748.58 591.106 749.158C589.168 750.035 586.89 750.898 586.139 753.11C584.966 756.563 584.569 791.722 585.907 794.317C587.098 796.626 590.388 797.715 592.627 798.647C589.631 812.561 587.211 826.615 584.393 840.57C582.201 851.42 578.685 863.462 578.385 874.478C578.3 877.56 579.011 879.701 580.262 882.478C591.898 890.204 605.67 894.748 618.229 900.746C658.573 920.012 685.234 938.544 733.024 928.731C740.876 927.119 753.352 924.38 757.931 917.066C761.633 911.151 758.44 898.176 756.687 891.731C755.803 888.481 754.658 885.156 752.494 882.522C746.453 875.17 726.529 866.137 717.391 858.579C706.829 849.843 694.351 829.813 686.318 818.133C682.858 813.102 678.989 808.165 675.86 802.938C679.95 801.413 684.332 799.908 688.058 797.595C688.856 791.018 692.782 760.763 689.993 756.888C689.166 755.738 684.666 753.863 684.702 753.239C684.928 749.327 696.759 715.81 698.662 709.878L745.681 563.15C772.256 479.11 796.73 394.42 819.081 309.16C819.889 336.384 820.503 363.613 820.923 390.846L825.551 585.506L827.535 667.617C827.981 688.001 827.894 708.571 829.636 728.883C827.975 729.76 826.073 730.464 825.488 732.411C823.971 737.456 823.83 769.129 824.307 775.654C828.579 779.633 834.715 781.883 840.098 784C838.738 803.773 837.54 823.557 836.505 843.349C836.182 850.963 835.331 858.897 835.731 866.492C842.331 873.921 910.523 919.765 921.885 924.785C928.751 927.819 936.699 928.915 944.145 929.342C962.629 930.403 991.63 926.68 1005.83 913.464C1006.67 912.685 1007.43 911.837 1008.17 910.966C1006.43 895.171 1004.85 881.807 991.735 871.271C980.055 861.888 966.596 855.048 955.299 845.068C946.22 837.047 939.809 824.514 932.078 814.884C927.645 809.448 923.081 804.121 918.39 798.908C914.473 794.625 909.895 790.489 906.815 785.544C912.186 783.206 917.159 780.695 921.866 777.182C922.583 771.454 925.587 734.754 923.744 731.747C923.031 730.584 921.674 729.781 920.528 729.12C923.371 716.211 924.762 702.817 926.621 689.725C930.279 664.095 933.638 638.423 936.699 612.715C948.486 516.801 957.037 420.517 962.34 324.026C965.082 279.292 967.439 234.536 969.412 189.761C970.79 158.642 972.893 127.067 971.296 95.9265C969.953 69.7204 964.626 24.2369 950.656 2.17866C950.193 1.43518 949.703 0.7085 949.188 0L1024 0L1024 1024L0 1024L0 0Z"/>
	<path fill="#12052E" d="M308.333 0L316.366 0C316.772 10.3528 318.582 20.7431 320.069 30.9881C324.042 57.1069 328.794 83.1015 334.316 108.937C339.918 136.526 345.833 164.05 352.058 191.505C364.147 242.541 378.095 293.119 393.874 343.138C399.771 361.708 406.341 380.058 413.569 398.152C417.384 407.544 423.501 417.328 425.736 427.182L422.31 430.159C418.788 442.222 418.445 455.581 417.575 468.069C414.3 515.078 415.319 562.537 416.269 609.612C416.885 653.593 418.233 697.562 420.312 741.499C420.851 754.397 420.965 767.345 421.735 780.229C451.8 788.616 473.793 793.058 502.421 776.961C510.535 772.398 518.811 766.422 524.751 759.184C522.34 706.165 523.515 650.482 526.278 597.502C528.65 552.025 532.446 506.729 532.586 461.148C530.603 457.8 528.705 454.569 527.321 450.924C525.614 455.964 521.197 475.048 517.718 477.45C516.852 478.048 515.901 478.122 514.946 477.67C509.983 475.324 503.438 445.499 502.211 438.998C502.181 438.839 502.155 438.68 502.126 438.52C497.199 438.994 490.948 440.359 486.207 438.703C485.44 437.591 485.303 437.4 485.549 435.977C486.286 431.718 499.823 417.053 503.093 411.796C499.519 412.885 488.421 416.877 485.377 415.818C484.409 415.481 483.131 414.253 482.757 413.322C481.826 411.002 483.533 408.1 484.681 406.18C488.341 400.055 492.89 394.281 497.035 388.456C501.456 382.242 505.718 375.561 510.711 369.803C502.702 367.906 480.634 361.393 476.313 354.971C475.596 353.906 475.636 353.452 475.627 352.217C477.03 349.675 480.009 348.776 482.663 348.042C487.197 346.788 491.839 345.808 496.42 344.734L476.734 335.593C472.437 333.632 467.693 331.884 463.701 329.35C461.998 328.268 460.768 327.241 459.772 325.483C459.744 324.674 459.535 324.246 460.083 323.574C463.505 319.377 494.401 318.165 500.843 317.96C501.361 317.942 501.88 317.927 502.399 317.915C499.295 315.406 490.977 310.468 490.095 306.455C489.794 305.088 490.203 304.591 490.867 303.483C492.437 302.526 493.6 302.286 495.372 302.716C496.732 303.046 498.114 304.083 499.287 304.822C504.34 304.539 508.729 304.524 513.668 305.657C513.62 305.456 513.574 305.254 513.522 305.054C512.403 300.719 506.997 294.45 507.997 290.251C508.948 288.975 509.193 288.815 510.656 288.173C512.053 288.322 512.638 288.338 513.6 289.406C516.695 292.845 519.209 297.586 521.75 301.474C525.759 307.608 530.025 313.528 534.873 319.035C533.334 312.376 526.973 288.573 528.228 283.682C529.19 282.531 529.574 282.149 531.083 281.729C533.109 281.95 534.241 282.805 535.502 284.324C539.539 289.183 542.743 295.791 546.083 301.207C542.329 285.392 540.428 268.689 538.203 252.57L529.076 186.059L513.28 68.4789C510.257 45.6452 506.94 22.8962 504.365 0L511.877 0C514.555 15.7926 515.956 32.0326 518.074 47.9293L533.426 163.253L546.2 256.01C547.906 267.694 549.637 279.389 551.539 291.042C552.866 299.17 557.488 318.014 556.214 325.212C555.476 326.248 555.406 326.167 554.153 326.477C548.713 325.192 542.44 312.012 539.171 307.247C540.963 313.397 542.54 319.908 543.24 326.282C544.524 337.97 544.968 349.889 545.681 361.633L549.31 427.188C550.104 442.368 552.309 457.56 552.916 472.708C553 474.795 552.911 476.758 552.237 478.752C551.272 479.418 550.718 479.91 549.456 479.772C545.969 479.388 542.346 472.445 540.506 469.704C538.136 526.887 533.431 583.988 531.704 641.183C530.521 680.345 531.606 719.637 532.021 758.811C533.39 759.929 534.694 761.117 536.009 762.298C536.497 768.4 536.092 774.785 535.989 780.906L535.445 812.042C532.867 814.973 529.74 817.041 526.443 819.068C525.463 827.121 524.924 835.221 524.828 843.333C528.86 846.26 532.325 850.13 535.934 853.559C540.861 858.177 545.857 862.72 550.922 867.186C568.928 883.239 588.456 897.498 609.228 909.762C615.634 913.579 622.329 917.102 629.207 919.983C633.368 921.725 637.783 922.522 641.955 924.142C653.013 928.436 676.836 939.349 685.344 947.572C692.607 954.591 692.685 966.687 692.743 976.178C692.768 980.348 692.577 985.724 689.321 988.779C681.292 996.314 638.976 997.457 627.127 997.561C607.557 997.733 588.049 996.848 568.704 993.73C546.221 990.107 525.331 981.979 503.344 976.545C491.221 973.55 478.807 972.042 466.564 969.644C456.775 967.727 447.154 964.938 437.492 962.48C431.214 960.883 417.17 958.417 413.005 953.449C412.227 952.521 411.949 951.857 411.963 950.641C412.035 944.429 414.599 936.881 415.974 930.786C419.736 914.113 423.866 897.541 427.815 880.912C429.617 873.327 432.061 865.481 433.091 857.767C434.247 849.114 432.541 839.456 432.577 830.621C428.716 829.63 424.56 828.806 420.864 827.319C419.294 826.687 418.059 826.015 417.479 824.351C415.84 819.648 415.256 794.359 414.849 787.345C412.05 732.502 410.213 677.613 409.34 622.706C408.35 573.965 407.111 523.216 409.654 474.552C410.502 458.339 410.934 441.384 417.328 426.269C415.857 421.185 413.567 416.505 411.304 411.744C406.876 419.963 401.578 427.683 395.501 434.771C389.413 441.918 382.817 448.527 377.676 456.434C372.977 463.662 357.677 496.655 353.024 499.939C351.034 499.931 350.765 498.456 348.899 498.062C347.624 498.689 346.915 499.385 346.043 500.505C343.074 504.32 340.724 508.983 338.124 513.093C332.249 522.32 326.326 531.517 320.355 540.683C296.477 576.912 272.123 612.825 247.3 648.413C236.75 663.397 226.583 678.958 215.282 693.367C216.926 694.506 218.596 695.512 219.305 697.461C218.7 705.166 200.196 730.53 194.216 736.845C191.533 736.13 188.933 735.002 186.341 734.01C182.569 743.325 178.307 752.429 174.569 761.767C179.933 772.135 185.198 782.729 189.946 793.392C197.897 811.246 218.958 863.743 231.073 876.409C241.781 887.604 261.146 881.488 273.349 899.829C277.95 906.744 279.747 916.469 277.981 924.598C277.076 928.763 275.045 931.767 271.426 934.029C254.761 944.447 212.768 943.541 193.914 938.953C178.808 935.278 166.182 929.23 154.178 919.334C139.428 907.176 127.916 892.034 115.908 877.299C105.001 863.893 93.8644 850.675 82.5034 837.651C71.4925 825.196 60.1196 812.863 48.7159 800.762C41.1427 792.726 31.5465 784.524 25.8212 775.063L26.0047 774.712C30.2312 766.463 38.7685 758.798 44.9275 751.843L81.6215 710.456C91.1367 699.546 99.4725 687.626 107.927 675.89C102.964 669.785 98.6303 663.042 94.2332 656.524C96.6911 652.332 118.854 620.119 120.769 618.472C121.667 617.7 122.859 617.433 124.026 617.6C125.535 617.816 126.86 619.647 127.838 620.714C135.89 606.424 142.843 591.708 150.321 577.124L191.932 495.96C212.922 455.285 234.691 414.506 261.922 377.615C269.629 367.175 277.384 355.85 286.811 346.909C287.715 341.241 287.945 335.359 288.545 329.644L293.001 287.553C297.599 248.169 302.737 208.85 308.414 169.607C310.943 151.212 313.312 132.637 316.466 114.348C318.037 105.238 321.822 95.1683 321.757 85.9818C321.697 77.6605 318.704 68.5047 317.246 60.2536C313.904 41.3386 309.997 18.9671 308.333 0ZM384.892 392.752C381.89 388.599 377.995 386.237 373.273 384.471L372.659 384.237L372.288 384.101C372.893 389.496 373.55 394.884 374.261 400.265C374.459 404.477 375.704 410.327 373.264 413.95C371.634 415.134 370.236 415.213 368.293 414.881C365.218 414.355 362.275 412.813 359.283 411.921C362.099 418.559 370.328 438.648 367.724 445.142C367.124 446.635 366.108 447.531 364.592 448.032C362.536 448.71 359.776 447.695 358.03 446.62C355.713 445.195 353.936 443.1 352.234 441.019C350.884 443.466 349.494 445.89 348.342 448.438C350.793 458.935 353.521 469.435 355.265 480.078C361.495 470.468 366.329 460.065 372.971 450.703C378.716 442.606 385.533 435.45 391.673 427.676C397.742 419.992 402.872 411.781 408.002 403.458C399.051 380.843 390.199 358.033 383.213 334.718L372.91 299.2C371.184 293.214 369.77 286.815 367.456 281.042C364.546 300.595 359.562 320.996 351.429 339.062C344.253 355 333.794 368.194 324.113 382.548C314.464 396.667 305.894 411.493 298.473 426.899C293.763 436.625 269.59 488.29 264.291 492.811C264.149 492.932 264.004 493.048 263.848 493.151C262.705 493.903 262.09 493.845 260.796 493.609C259.86 492.768 259.182 492.466 259.072 491.136C258.921 489.294 260.178 486.671 260.936 485.007C266.289 473.244 273.333 462.128 279.115 450.553C288.628 431.509 296.758 412.186 307.916 393.963C319.507 375.031 334.618 358.055 344.004 337.849C348.118 328.992 351.334 319.429 353.921 310.012C355.99 302.481 357.784 294.712 359.205 287.033C360.148 281.937 360.415 276.754 362.034 271.779C362.49 270.378 363.19 269.185 364.071 268.008C360.692 257.227 358.226 246.047 355.382 235.109C348.046 207.709 341.57 180.085 335.963 152.279C332.657 136.138 328.542 120.041 326.48 103.679C326.423 103.842 326.364 104.003 326.309 104.166C321.892 117.338 320.447 138.904 318.331 153.15C311.467 200.299 305.231 247.537 299.626 294.853L295.925 329.124C295.278 335.201 295.173 342.005 293.427 347.849C291.715 353.579 279.513 366.651 275.306 372.086C271.301 377.293 267.402 382.579 263.609 387.942C255.709 399.248 248.194 410.818 241.078 422.634C216.008 464.389 194.308 507.643 172.215 550.997L131.716 629.013C148.605 659.304 174.048 681.67 207.64 691.356C256.188 623.617 302.869 554.56 347.63 484.261C347.179 474.541 345.117 465.17 342.845 455.746C341.831 457.766 340.787 459.773 339.803 461.807C338.88 463.713 336.649 466.177 334.53 466.754C333.138 467.133 332.926 467.102 331.8 466.374C330.642 461.882 334.56 456.719 336.759 452.987C338.817 449.496 347.505 433.204 351.23 432.853C352.5 432.734 353.594 433.426 354.617 434.055L360.811 440.363L359.015 432.088C357.82 427.057 350.615 411.434 351.19 408.074C351.432 406.662 351.902 405.924 353.137 405.191C356.752 403.045 363.786 405.869 367.565 406.975C367.32 400.974 363.247 383.027 366.566 378.591C367.438 377.426 368.478 376.814 369.91 376.62C375.737 375.83 384.197 381.906 388.48 385.34C387.54 383.012 386.709 380.743 386.724 378.194C386.734 376.488 387.085 375.253 388.296 374.018C389.453 373.683 390.283 373.492 391.409 374.12C393.76 375.431 395.168 378.367 396.03 380.795C397.354 384.522 399.749 392.249 397.614 395.85C396.954 396.964 396.082 397.68 394.797 397.967C392.277 398.532 389.198 397.132 387.182 395.731C385.859 394.811 385.186 394.313 384.892 392.752ZM611.646 919.72L605.572 916.112C601.395 923.225 591.65 928.162 584.774 932.232L589.848 935.554C599.502 931.905 604.405 928.24 611.113 920.451C612.229 921.45 613.828 922.767 614.346 924.214C614.98 925.984 614.262 927.924 613.347 929.448C609.506 935.839 597.84 941.447 590.717 943.137C590.309 943.009 589.9 942.88 589.498 942.733C584.438 940.895 579.627 937.101 575.112 934.146C551.038 918.392 529.971 900.412 509.755 880.004C507.068 877.291 503.087 874.468 501.417 871.01C502.804 866.812 509.529 862.794 512.614 859.495C514.139 857.864 515.323 855.845 516.513 853.962C513.947 856.402 511.345 858.251 508.205 859.889C488.061 870.397 460.903 868.872 439.834 862.107C438.191 871.612 435.454 881.077 433.127 890.438C430.385 901.611 427.731 912.805 425.165 924.02C441 932.33 460.023 935.504 477.322 939.557C500.684 945.031 524.048 950.602 547.689 954.775C565.889 957.987 584.048 960.126 602.364 962.473C609.459 949.824 618.996 938.222 629.183 927.923C623.084 925.852 617.454 922.487 611.646 919.72ZM507.322 311.665C508.707 315.853 515.568 316.823 516.495 321.431C515.656 322.895 514.68 323.321 513.076 323.796C504.879 326.228 484.602 326.313 475.252 326.614C481.531 329.742 508.329 339.572 510.509 345.249C510.737 345.842 510.857 346.664 510.529 347.241C508.148 351.429 492.479 353.39 487.779 354.332C494.766 357.77 502.354 360.575 509.991 362.155C513.301 362.839 517.156 362.997 520.339 364.034C521.334 364.358 521.598 364.639 522.246 365.407C522.162 366.933 521.899 367.306 521.076 368.603C518.918 372.003 516.035 375.225 513.553 378.416C506.276 387.772 498.337 397.271 492.539 407.61C497.44 406.185 515.079 398.262 518.749 399.696C519.485 400.603 519.457 400.867 519.279 402.06C518.641 406.349 510.169 415.563 507.134 419.232C503.556 423.471 499.89 427.662 496.52 432.069C499.484 431.921 505.201 430.912 507.556 432.755C510.591 439.002 514.556 456.072 515.874 463.241C518.152 457.177 521.334 441.318 526.237 438.009C527.892 437.87 528.739 438.026 530.01 439.159C533.87 442.598 540.905 453.378 543.329 457.984L539.176 381.133C538.249 363.786 537.715 346.348 536.009 329.055C529.558 324.85 525.007 317.275 519.825 311.666L515.611 314.519C512.842 313.273 510.337 312.198 507.322 311.665ZM122.761 628.304C115.736 637.615 109.749 647.651 102.744 656.942C126.971 689.946 151.895 715.123 191.89 728.152C195.445 726.5 208.636 704.15 210.794 699.856C178.289 691.263 154.651 675.287 134.912 647.818C130.508 641.69 127.529 633.997 122.761 628.304ZM113.031 682.271C105.298 691.295 98.4642 701.164 90.9815 710.417C100.644 733.389 115.589 745.953 138.546 755.323C145.278 758.071 152.46 760.112 159.603 761.483C162.503 761.906 165.412 762.263 168.328 762.554C168.774 752.564 175.651 740.24 180.641 731.603C163.325 724.073 147.628 715.673 133.454 703.001C129.534 699.495 115.696 683.536 113.031 682.271ZM85.3067 716.911C72.688 730.431 60.7087 744.839 48.6006 758.838C69.2887 780.857 91.1646 801.684 111.625 823.955C121.517 834.8 131.348 845.701 141.116 856.657C149.939 866.601 158.593 876.811 168.508 885.71C177.378 893.67 188.194 901.109 199.257 905.7C204.306 899.604 210.124 894.187 216.563 889.583C218.984 887.848 224.864 885.093 226.317 882.763L225.639 881.616L221.054 877.209C212.934 876.829 198.863 877.51 191.825 874.127C189.586 873.051 187.742 871.085 186.088 869.266C182.747 865.594 177.805 859.622 178.275 854.383C178.458 852.342 179.865 850.837 181.432 849.656C184.825 847.099 189.407 845.579 193.427 844.289C185.251 843.669 174.595 843.891 168.906 837.191C166.03 833.803 162.269 828.115 162.682 823.557C162.811 822.129 163.418 821.024 164.569 820.164C168.273 817.397 174.773 816.48 179.178 815.393L178.634 815.188C171.955 812.74 159.612 811.883 154.278 808.36C152.219 807 150.849 804.879 149.81 802.69C148.412 799.744 146.705 796.227 147.838 792.927C148.719 790.359 151.023 788.795 153.428 787.795C160.39 784.901 169.84 784.189 177.334 783.287L169.732 769.557C143.933 768.563 117.564 757.55 99.8435 738.533C93.6148 731.849 89.4584 724.961 85.3067 716.911ZM43.4073 764.848C40.3595 768.031 37.365 771.294 34.2282 774.388C50.4363 793.213 68.5086 810.38 84.909 829.062C94.9919 840.548 105.211 852.024 114.833 863.895C130.008 882.617 145.067 904.943 165.164 918.776C179.038 928.326 197.59 933.388 214.245 934.616C230.89 935.843 248.457 934.492 264.344 929.29C267.235 928.116 269.548 927.31 270.794 924.202C272.556 919.805 270.903 913.415 270.169 908.828C252.488 915.99 235.415 917.183 216.574 915.63C208.354 914.953 200.466 913.95 192.81 910.717C161.772 897.612 135.782 861.778 113.382 837.313C99.39 822.033 84.685 807.265 70.4338 792.207C64.2771 785.585 57.9983 779.077 51.6006 772.687C49.0869 770.168 46.294 766.897 43.4073 764.848ZM528.474 766.521C504.359 786.581 485.654 797.465 453.207 794.446C442.806 793.478 432.134 791.251 422.368 787.501C422.426 792.3 422.664 817.279 424.514 820.044C452.755 830.047 483.177 833.078 510.992 819.772C516.786 817.001 522.798 813.337 527.873 809.366C528.575 805.135 529.562 768.425 528.474 766.521ZM175.073 791.3C172.889 791.589 170.695 791.846 168.519 792.193C172.521 794.502 176.657 796.545 180.783 798.618L184.87 800.72C183.496 797.438 182.181 794.111 180.6 790.923C178.762 791.038 176.903 791.099 175.073 791.3ZM158.602 793.988C157.099 794.622 156.604 794.68 155.659 796.058C155.541 798.302 157.06 800.515 158.052 802.477C168.416 804.804 179.353 806.691 189.074 811.059L190.156 811.141C190.152 809.641 189.065 808.332 188.303 807.092C182.67 804.407 163.078 793.736 158.602 793.988ZM190.339 820.167C186.637 820.76 183.012 821.414 179.378 822.344C184.301 824.123 189.056 826.337 193.587 828.958C195.449 830.096 197.343 831.2 199.177 832.381C197.886 828.515 196.411 822.397 192.95 820.003C192.049 820.011 191.228 820.001 190.339 820.167ZM175.608 824.123C174.041 824.513 172.622 824.66 171.584 826.016C171.031 828.598 173.501 831.6 174.8 833.74C183.176 836.404 191.686 837.209 200.027 840.349L202.016 840.64L202.316 839.924C199.594 836.107 182.219 828.289 176.875 824.777C176.079 824.254 176.451 824.447 175.608 824.123ZM518.231 824.01C493.24 837.003 467.072 839.192 439.892 832.302C440.039 836.563 439.761 851.967 441.145 855.158C465.39 862.343 488.965 862.21 511.575 850.009C513.574 848.93 515.576 847.829 517.502 846.622C517.551 840.779 519.337 828.877 518.541 824.259L518.231 824.01ZM206.275 849.703C202.43 849.95 199.019 850.274 195.38 851.662C199.578 854.481 203.895 857.083 208.225 859.692L214.236 863.274C212.909 860.018 210.033 851.257 206.887 849.608L206.275 849.703ZM525.392 852.754C522.039 860.72 516.95 865.456 510.844 871.399C512.228 872.748 513.899 874.851 515.739 875.473L516.394 875.128C521.669 870.317 527.487 865.573 532.111 860.124L525.392 852.754ZM189.326 853.91C187.941 854.595 187.36 854.596 186.741 856.053C187.397 860.527 191.487 864.537 194.665 867.558C200.826 868.866 207.186 868.186 213.39 869.38L214.576 869.285C214.075 868.399 192.249 854.629 190.511 854.121C189.868 853.934 189.889 853.958 189.326 853.91ZM543.446 869.485C536.665 874.831 529.515 878.753 521.585 882.13C523.836 884.634 526.094 886.943 528.641 889.148C535.874 885.925 542.991 880.628 549.059 875.535C547.445 873.166 545.549 871.406 543.446 869.485ZM554.834 880.446C548.713 885.672 541.379 889.211 535.353 894.393C535.518 895.317 535.814 895.773 536.37 896.521C540.902 894.249 553.18 887.186 555.097 882.495C555.321 881.947 555.311 881.611 555.353 881.061L554.834 880.446ZM563.129 886.531C556.863 892.019 550.411 897.92 543.023 901.848C545.679 904.223 548.392 906.471 551.195 908.67C556.65 906.216 566.098 896.641 569.91 891.964C567.44 890.31 565.298 888.564 563.129 886.531ZM231.848 888.438C222.512 893.626 215.19 899.462 208.024 907.372C218.892 909.233 229.958 909.662 240.938 908.649C249.28 907.75 258.698 906.44 265.917 901.824C258.514 894.477 250.059 891.826 240.06 889.622C237.68 889.097 234.939 888.259 232.506 888.375C232.286 888.386 232.067 888.417 231.848 888.438ZM576.262 896.372C570.162 902.055 564.587 908.143 558.329 913.691C559.822 915.134 561.307 916.884 563.237 917.712L563.642 917.558L582.495 900.507C580.433 899.114 578.391 897.66 576.262 896.372ZM587.624 904.785C583.485 911.598 576.67 916.921 570.791 922.224C572.249 923.49 573.589 924.914 575.5 925.412L576.534 925.145C582.582 920.517 589.38 914.613 593.565 908.215C591.638 906.999 589.735 905.656 587.624 904.785ZM637.333 930.001C627.437 940.307 618.232 951.08 610.523 963.14C625.806 964.68 641.181 965.111 656.527 964.428C665.523 963.497 676.934 963.059 683.573 956.122C675.209 945.822 650.274 935.155 637.333 930.001ZM423.262 930.797C421.93 936.938 420.265 943.18 419.311 949.38C427.332 952.581 435.824 954.511 444.173 956.661C453.608 959.09 463.003 961.595 472.604 963.29C481.397 964.844 490.32 965.893 499.055 967.744C518.196 971.8 536.44 979.104 555.442 983.68C589.17 991.803 649.86 993.371 683.388 984.621C684.669 983.842 685.281 983.576 685.574 982.033C686.572 976.774 685.347 969.974 684.923 964.611C661.255 978.426 588.082 969.091 559.956 964.547C536.979 960.657 514.133 956.029 491.453 950.67C478.148 947.652 464.723 944.825 451.528 941.366C441.587 938.76 432.535 935.218 423.262 930.797Z"/>
	<path fill="#9F8BE8" d="M316.366 0L368.112 0C368.969 5.3269 370.531 22.6565 374.412 25.4853C376.026 25.7925 376.368 25.8557 377.909 25.3373C379.572 23.5006 379.689 21.6321 379.531 19.2416C379.118 12.9957 377.477 6.17314 376.351 0L504.365 0C506.94 22.8962 510.257 45.6452 513.28 68.4789L529.076 186.059L538.203 252.57C540.428 268.689 542.329 285.392 546.083 301.207C542.743 295.791 539.539 289.183 535.502 284.324C534.241 282.805 533.109 281.95 531.083 281.729C529.574 282.149 529.19 282.531 528.228 283.682C526.973 288.573 533.334 312.376 534.873 319.035C530.025 313.528 525.759 307.608 521.75 301.474C519.209 297.586 516.695 292.845 513.6 289.406C512.638 288.338 512.053 288.322 510.656 288.173C509.193 288.815 508.948 288.975 507.997 290.251C506.997 294.45 512.403 300.719 513.522 305.054C513.574 305.254 513.62 305.456 513.668 305.657C508.729 304.524 504.34 304.539 499.287 304.822C498.114 304.083 496.732 303.046 495.372 302.716C493.6 302.286 492.437 302.526 490.867 303.483C490.203 304.591 489.794 305.088 490.095 306.455C490.977 310.468 499.295 315.406 502.399 317.915C501.88 317.927 501.361 317.942 500.843 317.96C494.401 318.165 463.505 319.377 460.083 323.574C459.535 324.246 459.744 324.674 459.772 325.483C460.768 327.241 461.998 328.268 463.701 329.35C467.693 331.884 472.437 333.632 476.734 335.593L496.42 344.734C491.839 345.808 487.197 346.788 482.663 348.042C480.009 348.776 477.03 349.675 475.627 352.217C475.636 353.452 475.596 353.906 476.313 354.971C480.634 361.393 502.702 367.906 510.711 369.803C505.718 375.561 501.456 382.242 497.035 388.456C492.89 394.281 488.341 400.055 484.681 406.18C483.533 408.1 481.826 411.002 482.757 413.322C483.131 414.253 484.409 415.481 485.377 415.818C488.421 416.877 499.519 412.885 503.093 411.796C499.823 417.053 486.286 431.718 485.549 435.977C485.303 437.4 485.44 437.591 486.207 438.703C490.948 440.359 497.199 438.994 502.126 438.52C502.155 438.68 502.181 438.839 502.211 438.998C503.438 445.499 509.983 475.324 514.946 477.67C515.901 478.122 516.852 478.048 517.718 477.45C521.197 475.048 525.614 455.964 527.321 450.924C528.705 454.569 530.603 457.8 532.586 461.148C532.446 506.729 528.65 552.025 526.278 597.502C523.515 650.482 522.34 706.165 524.751 759.184C518.811 766.422 510.535 772.398 502.421 776.961C473.793 793.058 451.8 788.616 421.735 780.229C420.965 767.345 420.851 754.397 420.312 741.499C418.233 697.562 416.885 653.593 416.269 609.612C415.319 562.537 414.3 515.078 417.575 468.069C418.445 455.581 418.788 442.222 422.31 430.159L425.736 427.182C423.501 417.328 417.384 407.544 413.569 398.152C406.341 380.058 399.771 361.708 393.874 343.138C378.095 293.119 364.147 242.541 352.058 191.505C345.833 164.05 339.918 136.526 334.316 108.937C328.794 83.1015 324.042 57.1069 320.069 30.9881C318.582 20.7431 316.772 10.3528 316.366 0ZM384.173 49.4155C383.138 50.5361 382.031 51.4347 381.889 53.0346C383.436 58.3876 385.862 63.4841 387.779 68.715C389.373 73.0634 390.583 77.5374 391.807 82.0004C401.808 118.466 408.239 155.41 414.584 192.633C415.211 196.313 415.717 204.888 418.545 207.219C419.525 207.369 420.365 207.471 421.355 207.383C422.37 206.356 423.343 205.776 423.463 204.239C423.902 198.612 419.763 178.884 418.608 172.503C411.946 135.693 405.922 98.2875 393.686 62.8273C392.405 59.114 390.889 52.9216 388.08 50.1966C387.018 49.1664 385.538 49.377 384.173 49.4155ZM429.941 276.251C428.776 277.653 427.637 278.82 427.817 280.783C428.23 285.289 430.018 290.154 430.974 294.618C432.743 303.213 434.3 311.851 435.642 320.524C439.59 345.665 442.162 370.963 445.33 396.206C448.229 419.308 452.11 442.716 452.639 466.006C452.812 473.604 452.396 481.096 450.821 488.545C449.243 496.007 435.343 533.455 441.711 537.423C442.673 538.023 443.899 537.937 444.991 537.929C447.701 532.995 447.985 525.258 449.318 519.685C451.895 508.915 455.99 498.521 458.317 487.699C459.377 482.772 460.249 477.536 460.411 472.495C460.726 462.744 459.487 452.566 458.472 442.889C456.741 426.371 454.532 409.948 452.477 393.47C449.121 366.559 446.507 339.481 441.85 312.755C439.954 301.878 437.939 290.598 434.732 280.024C434.391 278.901 434.043 277.753 432.981 277.111C432.129 276.597 430.915 276.374 429.941 276.251ZM437.181 598.922C434.377 602.866 435.875 608.787 436.624 613.283C442.023 645.692 446.066 678.029 447.443 710.892C447.746 718.121 448.149 758.43 449.763 761.905C450.094 762.617 450.622 763.11 451.187 763.63C452.271 763.95 453.186 764.104 454.315 764.159C455.013 763.282 455.542 762.583 455.751 761.46C456.855 755.524 456.035 747.894 455.923 741.851C455.437 715.693 454.304 688.959 451.359 662.963C449.69 648.237 447.151 633.663 444.801 619.039C443.906 613.465 443.572 607.058 442.091 601.659C441.736 600.366 441.445 600.12 440.466 599.276C439.353 599.098 438.312 598.941 437.181 598.922Z"/>
	<path fill="#12052E" d="M368.112 0L376.351 0C377.477 6.17314 379.118 12.9957 379.531 19.2416C379.689 21.6321 379.572 23.5006 377.909 25.3373C376.368 25.8557 376.026 25.7925 374.412 25.4853C370.531 22.6565 368.969 5.3269 368.112 0Z"/>
	<path fill="#12052E" d="M719.928 0L727.509 0C715.222 27.0282 706.511 55.2326 698.463 83.7727C672.714 175.083 661.483 264.183 650.01 357.921L626.445 548.15L609.932 678.967L603.609 726.253C602.466 734.491 600.677 742.968 600.261 751.264C624.737 765.335 649.791 761.731 676.017 756.034C677.528 748.935 680.487 741.809 682.772 734.903C687.506 720.919 692.092 706.886 696.531 692.805C716.695 627.582 738.314 562.83 758.124 497.486C768.459 463.422 778.262 429.198 787.531 394.828C794.852 368.621 802.481 342.507 809.116 316.112L826.168 245.623C829.277 232.265 831.779 218.66 835.583 205.486C843.528 177.974 859.151 152.99 870.154 126.695C881.702 99.0957 886.201 42.3187 887.68 11.8015C875.126 8.72256 860.643 6.03182 849.162 0L872.864 0C878.991 1.76399 885.239 3.86221 891.571 4.71366C903.195 6.27656 921.219 3.44792 932.183 0L949.188 0C949.703 0.7085 950.193 1.43518 950.656 2.17866C964.626 24.2369 969.953 69.7204 971.296 95.9265C972.893 127.067 970.79 158.642 969.412 189.761C967.439 234.536 965.082 279.292 962.34 324.026C957.037 420.517 948.486 516.801 936.699 612.715C933.638 638.423 930.279 664.095 926.621 689.725C924.762 702.817 923.371 716.211 920.528 729.12C921.674 729.781 923.031 730.584 923.744 731.747C925.587 734.754 922.583 771.454 921.866 777.182C917.159 780.695 912.186 783.206 906.815 785.544C909.895 790.489 914.473 794.625 918.39 798.908C923.081 804.121 927.645 809.448 932.078 814.884C939.809 824.514 946.22 837.047 955.299 845.068C966.596 855.048 980.055 861.888 991.735 871.271C1004.85 881.807 1006.43 895.171 1008.17 910.966C1007.43 911.837 1006.67 912.685 1005.83 913.464C991.63 926.68 962.629 930.403 944.145 929.342C936.699 928.915 928.751 927.819 921.885 924.785C910.523 919.765 842.331 873.921 835.731 866.492C835.331 858.897 836.182 850.963 836.505 843.349C837.54 823.557 838.738 803.773 840.098 784C834.715 781.883 828.579 779.633 824.307 775.654C823.83 769.129 823.971 737.456 825.488 732.411C826.073 730.464 827.975 729.76 829.636 728.883C827.894 708.571 827.981 688.001 827.535 667.617L825.551 585.506L820.923 390.846C820.503 363.613 819.889 336.384 819.081 309.16C796.73 394.42 772.256 479.11 745.681 563.15L698.662 709.878C696.759 715.81 684.928 749.327 684.702 753.239C684.666 753.863 689.166 755.738 689.993 756.888C692.782 760.763 688.856 791.018 688.058 797.595C684.332 799.908 679.95 801.413 675.86 802.938C678.989 808.165 682.858 813.102 686.318 818.133C694.351 829.813 706.829 849.843 717.391 858.579C726.529 866.137 746.453 875.17 752.494 882.522C754.658 885.156 755.803 888.481 756.687 891.731C758.44 898.176 761.633 911.151 757.931 917.066C753.352 924.38 740.876 927.119 733.024 928.731C685.234 938.544 658.573 920.012 618.229 900.746C605.67 894.748 591.898 890.204 580.262 882.478C579.011 879.701 578.3 877.56 578.385 874.478C578.685 863.462 582.201 851.42 584.393 840.57C587.211 826.615 589.631 812.561 592.627 798.647C590.388 797.715 587.098 796.626 585.907 794.317C584.569 791.722 584.966 756.563 586.139 753.11C586.89 750.898 589.168 750.035 591.106 749.158C592.383 748.58 592.717 747.351 593.065 746.056C594.768 739.709 595.682 728.552 596.767 721.479C600.864 694.757 603.92 667.806 607.411 640.991L639.049 388.183C645.711 334.394 651.409 280.483 659.922 226.933C668.238 174.011 679.894 121.668 694.82 70.2171C701.851 46.4347 708.729 22.2108 719.928 0ZM946.248 44.914C939.634 35.578 930.454 20.4961 932.431 8.5046C930.121 8.38581 927.777 9.17201 925.544 9.71138C932.035 21.7721 935.908 36.6146 944.25 47.4328C946.312 51.6883 950.5 55.3886 951.71 59.9508C952.225 61.8944 952.563 64.2625 951.562 66.0812L950.412 66.3355C949.313 65.9268 948.547 65.4524 947.665 64.6666C938.943 56.8948 927.701 35.2475 924.306 23.8267C922.922 19.1725 922.408 14.709 922.1 9.87256C912.996 11.7611 904.328 12.5346 895.041 12.2284C893.777 26.2028 893.182 40.2373 891.867 54.2104C890.561 68.2267 888.582 82.172 885.935 95.9979C884.021 106.426 882.112 116.751 878.397 126.728C875.205 135.299 870.795 143.374 866.704 151.536C862.039 160.732 857.765 170.12 853.892 179.676C864.159 165.186 874.542 150.779 885.041 136.456C888.55 131.593 894.764 121.275 898.995 117.616C900.131 117.368 900.964 117.373 902.059 117.749C903.108 118.11 903.786 118.786 904.219 119.775C904.799 121.099 904.713 122.165 904.072 123.467C902.018 127.642 896.569 133.078 893.648 137.148C881.248 154.702 868.635 172.106 855.813 189.355C852.641 193.583 845.691 200.9 843.922 205.302C843.828 205.535 843.748 205.772 843.658 206.005C839.705 216.326 837.98 227.682 835.436 238.412C832.804 249.516 827.517 268.276 826.738 278.941C825.833 291.349 827.32 304.475 827.438 316.964C827.8 355.164 829.196 393.374 829.941 431.572L835.102 656.324L836.257 700.251C836.432 709.948 836.286 719.677 836.784 729.362C853.84 736.211 872.987 740.42 891.226 736.426C898.559 734.821 905.682 732.125 912.747 729.612C914.86 722.652 915.288 714.959 916.359 707.779C918.904 691.702 921.163 675.581 923.132 659.424C928.522 619.456 933.338 579.413 937.579 539.307C947.747 433.632 955.277 327.719 960.16 221.667C962.349 178.551 965.434 134.993 963.579 91.8249C963.066 79.8796 962.68 66.7839 959.562 55.2259C953.924 52.5332 950.426 49.545 946.248 44.914ZM946.859 2.53748C944.715 3.56383 934.229 7.09312 933.577 8.33526C933.712 8.43176 933.849 8.52618 933.983 8.62476C935.174 9.5033 936.157 10.3936 936.926 11.6725C942.314 20.6443 945.651 30.4253 951.609 39.2536C953.7 42.013 955.897 44.4709 958.597 46.658C957.611 40.6977 948.671 4.59505 946.859 2.53748ZM832.012 735.599C831.6 747.671 831.44 759.749 831.532 771.827C851.011 782.951 875.109 786.463 896.777 780.56C903.025 778.858 909.567 776.743 914.972 773.085C915.726 760.706 916.164 748.294 917.112 735.93C895.63 743.582 875.407 748.347 852.813 742.1C845.928 740.197 838.959 736.881 832.012 735.599ZM593.037 755.681C591.578 762.95 591.329 784.074 592.358 791.291C616.804 802.439 648.631 806.133 674.242 796.647C676.634 795.761 678.913 794.887 681.002 793.395C682.402 782.657 682.937 771.827 684.151 761.07C659.457 769.335 625.861 772.17 602.048 760.411C599.111 758.961 596.068 756.817 593.037 755.681ZM846.973 786.139L844.902 824.766C844.419 832.79 843.598 840.915 843.499 848.948C851.634 854.823 860.328 860.026 868.821 865.369C886.586 876.544 909.08 891.829 929.208 897.106C941.765 900.399 955.793 900.473 968.551 898.364C978.062 896.792 988.942 893.515 996.24 886.935C985.815 871.276 957.835 860.003 943.602 844.217C933.472 848.197 923.71 852.833 917.031 861.769C915.955 863.21 915.053 864.579 913.478 865.495C911.788 865.531 910.819 865.07 909.324 864.321C908.628 863.259 908.517 863.113 908.88 861.791C910.033 857.585 916.603 851.914 919.851 849.114C926.375 843.673 932.702 841.148 940.61 838.223C938.28 835.534 935.845 832.884 933.748 830.009C924.296 829.467 917.572 834.098 910.754 840.208C908.284 842.422 903.707 848.253 900.54 848.433C899.499 847.927 898.863 847.316 898.485 846.175C897.961 844.592 898.653 842.993 899.521 841.691C905.051 833.395 919.406 825.125 928.934 822.302C926.927 820.117 924.987 817.831 922.684 815.953C917.587 817.606 913.071 819.572 908.565 822.494C903.832 825.563 894.202 836.091 889.707 835.847C888.998 835.013 888.886 834.92 888.983 833.762C889.428 828.453 896.595 822.903 900.514 819.859C906.271 815.387 912.428 812.352 919.157 809.632C917.486 807.825 915.846 805.985 914.043 804.308C909.829 804.746 906.25 805.51 902.455 807.469C897.941 809.799 887.387 820.28 882.789 818.43C882.378 816.899 882.519 815.867 883.287 814.455C887.34 807.002 900.601 800.248 908.667 798.163C906.069 796.038 901.655 793.638 901.251 790.039C901.141 789.066 901.135 788.075 901.121 787.098C878.809 791.472 869.27 791.324 846.973 786.139ZM599.235 801.78C595.972 820.743 592.001 839.623 588.338 858.513C602.863 864.852 617.27 871.457 631.552 878.325C665.465 894.463 702.638 912.588 740.554 897.61C743.065 896.618 746.702 894.986 747.793 892.311C748.314 891.034 748.479 889.067 747.727 887.808C746.21 885.271 722.244 871.116 717.656 867.585C711.257 862.66 705.761 857.237 700.804 850.873C695.131 852.18 689.391 853.551 683.951 855.652C679.478 857.38 670.607 864.642 666.466 864.397C665.438 863.283 664.597 862.54 664.404 860.96C665.214 857.782 668.264 855.95 670.933 854.376C678.86 849.699 687.08 846.43 696.115 844.656L690.824 837.421C681.26 839.246 671.845 841.851 663.515 847.111C660.72 848.875 658.24 851.807 655.303 853.226C653.846 853.93 652.371 854.109 650.829 853.566C650.171 852.522 650.038 851.928 650.304 850.687C651.409 845.536 657.906 841.901 662.151 839.526C669.678 835.315 678.02 832.939 686.293 830.696L680.811 823.312C670.983 825.353 660.195 827.596 651.466 832.76C647.821 834.916 644.501 838.211 640.716 840.009C639.621 840.529 638.637 840.639 637.564 839.996C636.601 839.42 636.391 838.987 635.909 838.022C635.765 836.674 635.952 835.81 636.765 834.725C642.971 826.444 665.967 819.297 676.013 816.922C673.814 813.078 671.608 809.258 669.229 805.52C644.986 811.164 622.786 809.952 599.235 801.78ZM842.746 857.667C842.613 859.768 842.06 862.497 843.523 864.212C847.681 869.086 859.791 875.838 865.51 879.688C878.456 888.402 891.281 897.332 904.433 905.732C911.534 910.267 918.62 915.055 926.388 918.382C932.482 920.992 939.605 921.724 946.191 922.026C963.997 922.84 985.007 919.482 999.904 909.118C1001.83 905.472 999.635 898.563 998.83 894.612C978.316 907.576 951.086 909.459 927.742 904.117C906.71 899.305 879.172 881.023 860.816 869.172C854.976 865.402 848.958 860.732 842.746 857.667ZM586.921 866.135L584.187 876.454C590.388 881.859 612.165 889.967 621.304 894.348C634.626 900.735 647.467 907.898 661.057 913.762C666.807 916.264 672.722 918.368 678.761 920.06C690.8 923.33 703.332 924.164 715.755 923.371C727.837 922.599 741.022 920.703 751.53 914.305C751.869 909.392 751.732 904.457 751.123 899.57C731.959 911.738 706.765 912.259 685.115 907.4C657.823 901.274 631.659 885.643 606.187 874.295C599.96 871.52 593.426 868.116 586.921 866.135Z"/>
	<path fill="#C6BCFD" d="M727.509 0L849.162 0C860.643 6.03182 875.126 8.72256 887.68 11.8015C886.201 42.3187 881.702 99.0957 870.154 126.695C859.151 152.99 843.528 177.974 835.583 205.486C831.779 218.66 829.277 232.265 826.168 245.623L809.116 316.112C802.481 342.507 794.852 368.621 787.531 394.828C778.262 429.198 768.459 463.422 758.124 497.486C738.314 562.83 716.695 627.582 696.531 692.805C692.092 706.886 687.506 720.919 682.772 734.903C680.487 741.809 677.528 748.935 676.017 756.034C649.791 761.731 624.737 765.335 600.261 751.264C600.677 742.968 602.466 734.491 603.609 726.253L609.932 678.967L626.445 548.15L650.01 357.921C661.483 264.183 672.714 175.083 698.463 83.7727C706.511 55.2326 715.222 27.0282 727.509 0ZM819.383 1.28301C815.968 4.56987 813.199 8.46429 810.227 12.1446C805.135 18.4504 799.132 24.0728 792.197 28.2925C782.043 24.6539 771.818 21.0747 762.147 16.2542C756.581 13.4799 751.419 9.21746 745.522 7.24886C735.151 17.3637 726.384 32.8244 721.015 46.3038C718.578 47.5815 715.222 44.655 713.769 46.4029C713.569 48.0881 714.011 49.1473 715.028 50.4505C715.765 51.395 716.556 52.2987 717.344 53.201C744.712 58.9176 772.561 50.0447 795.549 35.043C805.093 28.8146 817.672 18.9853 820.477 7.2538C820.894 5.51042 821.027 3.9372 820.648 2.18789C820.137 1.60405 820.175 1.45911 819.383 1.28301ZM833.466 3.3687C833.327 3.47431 833.186 3.57753 833.049 3.68552C826.814 8.58839 822.947 16.6829 817.477 22.4807C797.93 43.2012 769.427 58.6489 740.62 59.7627C736.594 59.9461 732.561 59.9064 728.54 59.6438C724.058 59.3304 717.898 57.6988 713.552 58.5957C712.295 58.855 711.939 59.2591 711.215 60.2678C711.201 61.5934 711.543 63.013 712.473 64.0287C713.12 64.7352 713.899 65.1695 714.703 65.6644C744.771 71.6676 775.319 63.219 800.449 46.5049C811.26 39.3144 833.593 20.0173 836.064 6.61134C836.261 5.54324 836.03 4.87846 835.546 3.94038C834.781 3.52952 834.336 3.39382 833.466 3.3687ZM876.697 18.7286C872.808 23.9161 872.73 39.596 872.223 46.407C871.163 60.6437 869.106 74.6748 866.812 88.7579C865.748 95.2903 859.983 120.199 860.521 124.607C860.643 125.603 860.758 125.504 861.414 126.145L863.122 125.58C864.452 124.263 865.603 123.003 866.419 121.3C874.314 104.817 880.09 54.91 880.157 35.6523C880.172 31.5526 880.425 22.6925 877.599 19.4507C877.278 19.082 877.076 18.9794 876.697 18.7286Z"/>
	<defs>
		<linearGradient id="gradient_0" gradientUnits="userSpaceOnUse" x1="898.75366" y1="8.1657352" x2="904.74634" y2="-8.1657352">
			<stop offset="0" stop-color="#D6D0FF"/>
			<stop offset="1" stop-color="#F3E3FF"/>
		</linearGradient>
	</defs>
	<path fill="url(#gradient_0)" d="M872.864 0L932.183 0C921.219 3.44792 903.195 6.27656 891.571 4.71366C885.239 3.86221 878.991 1.76399 872.864 0Z"/>
	<path fill="#12052E" d="M792.197 28.2925C799.132 24.0728 805.135 18.4504 810.227 12.1446C813.199 8.46429 815.968 4.56987 819.383 1.28301C820.175 1.45911 820.137 1.60405 820.648 2.18789C821.027 3.9372 820.894 5.51042 820.477 7.2538C817.672 18.9853 805.093 28.8146 795.549 35.043C772.561 50.0447 744.712 58.9176 717.344 53.201C716.556 52.2987 715.765 51.395 715.028 50.4505C714.011 49.1473 713.569 48.0881 713.769 46.4029C715.222 44.655 718.578 47.5815 721.015 46.3038C726.384 32.8244 735.151 17.3637 745.522 7.24886C751.419 9.21746 756.581 13.4799 762.147 16.2542C771.818 21.0747 782.043 24.6539 792.197 28.2925ZM747.098 16.0584C740.67 25.4835 732.113 36.4623 728.945 47.5009C740.523 47.7419 750.437 46.3591 761.613 43.1535C769.679 40.3752 777.213 36.9607 784.838 33.1583C771.713 28.7761 758.762 23.608 747.098 16.0584Z"/>
	<path fill="#C6BCFD" d="M951.609 39.2536C945.651 30.4253 942.314 20.6443 936.926 11.6725C936.157 10.3936 935.174 9.5033 933.983 8.62476C933.849 8.52618 933.712 8.43176 933.577 8.33526C934.229 7.09312 944.715 3.56383 946.859 2.53748C948.671 4.59505 957.611 40.6977 958.597 46.658C955.897 44.4709 953.7 42.013 951.609 39.2536Z"/>
	<path fill="#12052E" d="M714.703 65.6644C713.899 65.1695 713.12 64.7352 712.473 64.0287C711.543 63.013 711.201 61.5934 711.215 60.2678C711.939 59.2591 712.295 58.855 713.552 58.5957C717.898 57.6988 724.058 59.3304 728.54 59.6438C732.561 59.9064 736.594 59.9461 740.62 59.7627C769.427 58.6489 797.93 43.2012 817.477 22.4807C822.947 16.6829 826.814 8.58839 833.049 3.68552C833.186 3.57753 833.327 3.47431 833.466 3.3687C834.336 3.39382 834.781 3.52952 835.546 3.94038C836.03 4.87846 836.261 5.54324 836.064 6.61134C833.593 20.0173 811.26 39.3144 800.449 46.5049C775.319 63.219 744.771 71.6676 714.703 65.6644Z"/>
	<path fill="#F1E9FF" d="M925.544 9.71138C927.777 9.17201 930.121 8.38581 932.431 8.5046C930.454 20.4961 939.634 35.578 946.248 44.914L945.433 45.1696C944.15 43.7628 938.47 34.2175 938.123 34.1434C937.983 38.4425 944.311 42.8058 944.25 47.4328C935.908 36.6146 932.035 21.7721 925.544 9.71138Z"/>
	<path fill="#C6BCFD" d="M946.248 44.914C950.426 49.545 953.924 52.5332 959.562 55.2259C962.68 66.7839 963.066 79.8796 963.579 91.8249C965.434 134.993 962.349 178.551 960.16 221.667C955.277 327.719 947.747 433.632 937.579 539.307C933.338 579.413 928.522 619.456 923.132 659.424C921.163 675.581 918.904 691.702 916.359 707.779C915.288 714.959 914.86 722.652 912.747 729.612C905.682 732.125 898.559 734.821 891.226 736.426C872.987 740.42 853.84 736.211 836.784 729.362C836.286 719.677 836.432 709.948 836.257 700.251L835.102 656.324L829.941 431.572C829.196 393.374 827.8 355.164 827.438 316.964C827.32 304.475 825.833 291.349 826.738 278.941C827.517 268.276 832.804 249.516 835.436 238.412C837.98 227.682 839.705 216.326 843.658 206.005C843.748 205.772 843.828 205.535 843.922 205.302C845.691 200.9 852.641 193.583 855.813 189.355C868.635 172.106 881.248 154.702 893.648 137.148C896.569 133.078 902.018 127.642 904.072 123.467C904.713 122.165 904.799 121.099 904.219 119.775C903.786 118.786 903.108 118.11 902.059 117.749C900.964 117.373 900.131 117.368 898.995 117.616C894.764 121.275 888.55 131.593 885.041 136.456C874.542 150.779 864.159 165.186 853.892 179.676C857.765 170.12 862.039 160.732 866.704 151.536C870.795 143.374 875.205 135.299 878.397 126.728C882.112 116.751 884.021 106.426 885.935 95.9979C888.582 82.172 890.561 68.2267 891.867 54.2104C893.182 40.2373 893.777 26.2028 895.041 12.2284C904.328 12.5346 912.996 11.7611 922.1 9.87256C922.408 14.709 922.922 19.1725 924.306 23.8267C927.701 35.2475 938.943 56.8948 947.665 64.6666C948.547 65.4524 949.313 65.9268 950.412 66.3355L951.562 66.0812C952.563 64.2625 952.225 61.8944 951.71 59.9508C950.5 55.3886 946.312 51.6883 944.25 47.4328C944.311 42.8058 937.983 38.4425 938.123 34.1434C938.47 34.2175 944.15 43.7628 945.433 45.1696L946.248 44.914Z"/>
	<path fill="#C6BCFD" d="M728.945 47.5009C732.113 36.4623 740.67 25.4835 747.098 16.0584C758.762 23.608 771.713 28.7761 784.838 33.1583C777.213 36.9607 769.679 40.3752 761.613 43.1535C750.437 46.3591 740.523 47.7419 728.945 47.5009Z"/>
	<path fill="#12052E" d="M863.122 125.58L861.414 126.145C860.758 125.504 860.643 125.603 860.521 124.607C859.983 120.199 865.748 95.2903 866.812 88.7579C869.106 74.6748 871.163 60.6437 872.223 46.407C872.73 39.596 872.808 23.9161 876.697 18.7286C877.076 18.9794 877.278 19.082 877.599 19.4507C880.425 22.6925 880.172 31.5526 880.157 35.6523C880.09 54.91 874.314 104.817 866.419 121.3C865.603 123.003 864.452 124.263 863.122 125.58Z"/>
	<path fill="#12052E" d="M421.355 207.383C420.365 207.471 419.525 207.369 418.545 207.219C415.717 204.888 415.211 196.313 414.584 192.633C408.239 155.41 401.808 118.466 391.807 82.0004C390.583 77.5374 389.373 73.0634 387.779 68.715C385.862 63.4841 383.436 58.3876 381.889 53.0346C382.031 51.4347 383.138 50.5361 384.173 49.4155C385.538 49.377 387.018 49.1664 388.08 50.1966C390.889 52.9216 392.405 59.114 393.686 62.8273C405.922 98.2875 411.946 135.693 418.608 172.503C419.763 178.884 423.902 198.612 423.463 204.239C423.343 205.776 422.37 206.356 421.355 207.383Z"/>
	<path fill="#9F8BE8" d="M384.892 392.752C385.186 394.313 385.859 394.811 387.182 395.731C389.198 397.132 392.277 398.532 394.797 397.967C396.082 397.68 396.954 396.964 397.614 395.85C399.749 392.249 397.354 384.522 396.03 380.795C395.168 378.367 393.76 375.431 391.409 374.12C390.283 373.492 389.453 373.683 388.296 374.018C387.085 375.253 386.734 376.488 386.724 378.194C386.709 380.743 387.54 383.012 388.48 385.34C384.197 381.906 375.737 375.83 369.91 376.62C368.478 376.814 367.438 377.426 366.566 378.591C363.247 383.027 367.32 400.974 367.565 406.975C363.786 405.869 356.752 403.045 353.137 405.191C351.902 405.924 351.432 406.662 351.19 408.074C350.615 411.434 357.82 427.057 359.015 432.088C357.462 432.487 355.664 432.72 354.617 434.055C353.594 433.426 352.5 432.734 351.23 432.853C347.505 433.204 338.817 449.496 336.759 452.987C334.56 456.719 330.642 461.882 331.8 466.374C332.926 467.102 333.138 467.133 334.53 466.754C336.649 466.177 338.88 463.713 339.803 461.807C340.787 459.773 341.831 457.766 342.845 455.746C345.117 465.17 347.179 474.541 347.63 484.261C302.869 554.56 256.188 623.617 207.64 691.356C174.048 681.67 148.605 659.304 131.716 629.013L172.215 550.997C194.308 507.643 216.008 464.389 241.078 422.634C248.194 410.818 255.709 399.248 263.609 387.942C267.402 382.579 271.301 377.293 275.306 372.086C279.513 366.651 291.715 353.579 293.427 347.849C295.173 342.005 295.278 335.201 295.925 329.124L299.626 294.853C305.231 247.537 311.467 200.299 318.331 153.15C320.447 138.904 321.892 117.338 326.309 104.166C326.364 104.003 326.423 103.842 326.48 103.679C328.542 120.041 332.657 136.138 335.963 152.279C341.57 180.085 348.046 207.709 355.382 235.109C358.226 246.047 360.692 257.227 364.071 268.008C363.19 269.185 362.49 270.378 362.034 271.779C360.415 276.754 360.148 281.937 359.205 287.033C357.784 294.712 355.99 302.481 353.921 310.012C351.334 319.429 348.118 328.992 344.004 337.849C334.618 358.055 319.507 375.031 307.916 393.963C296.758 412.186 288.628 431.509 279.115 450.553C273.333 462.128 266.289 473.244 260.936 485.007C260.178 486.671 258.921 489.294 259.072 491.136C259.182 492.466 259.86 492.768 260.796 493.609C262.09 493.845 262.705 493.903 263.848 493.151C264.004 493.048 264.149 492.932 264.291 492.811C269.59 488.29 293.763 436.625 298.473 426.899C305.894 411.493 314.464 396.667 324.113 382.548C333.794 368.194 344.253 355 351.429 339.062C359.562 320.996 364.546 300.595 367.456 281.042C369.77 286.815 371.184 293.214 372.91 299.2L383.213 334.718C390.199 358.033 399.051 380.843 408.002 403.458C402.872 411.781 397.742 419.992 391.673 427.676C385.533 435.45 378.716 442.606 372.971 450.703C366.329 460.065 361.495 470.468 355.265 480.078C353.521 469.435 350.793 458.935 348.342 448.438C349.494 445.89 350.884 443.466 352.234 441.019C353.936 443.1 355.713 445.195 358.03 446.62C359.776 447.695 362.536 448.71 364.592 448.032C366.108 447.531 367.124 446.635 367.724 445.142C370.328 438.648 362.099 418.559 359.283 411.921C362.275 412.813 365.218 414.355 368.293 414.881C370.236 415.213 371.634 415.134 373.264 413.95C375.704 410.327 374.459 404.477 374.261 400.265C375.62 399.714 376.966 399.127 378.296 398.508C381.075 397.205 383.802 395.761 384.892 392.752ZM241.284 552.275C236.208 557.039 231.892 563.004 227.691 568.543C210.978 590.756 196.41 614.504 184.182 639.469C182.419 643.144 178.818 649.073 178.813 653.129C178.812 654.141 179.023 654.703 179.806 655.387C180.665 656.136 182.394 656.454 183.457 656.617C184.336 655.854 185.176 655.056 185.788 654.055C189.092 648.647 191.328 642.25 194.199 636.563C200.637 623.809 207.832 610.775 215.57 598.746C220.145 591.627 224.943 584.653 229.956 577.836C233.323 573.322 243.812 561.597 245.539 557.268C245.8 556.613 245.916 555.989 246.035 555.298C245.66 553.966 245.621 553.506 244.331 552.771C243.537 552.318 242.176 552.222 241.284 552.275Z"/>
	<path fill="#12052E" d="M444.991 537.929C443.899 537.937 442.673 538.023 441.711 537.423C435.343 533.455 449.243 496.007 450.821 488.545C452.396 481.096 452.812 473.604 452.639 466.006C452.11 442.716 448.229 419.308 445.33 396.206C442.162 370.963 439.59 345.665 435.642 320.524C434.3 311.851 432.743 303.213 430.974 294.618C430.018 290.154 428.23 285.289 427.817 280.783C427.637 278.82 428.776 277.653 429.941 276.251C430.915 276.374 432.129 276.597 432.981 277.111C434.043 277.753 434.391 278.901 434.732 280.024C437.939 290.598 439.954 301.878 441.85 312.755C446.507 339.481 449.121 366.559 452.477 393.47C454.532 409.948 456.741 426.371 458.472 442.889C459.487 452.566 460.726 462.744 460.411 472.495C460.249 477.536 459.377 482.772 458.317 487.699C455.99 498.521 451.895 508.915 449.318 519.685C447.985 525.258 447.701 532.995 444.991 537.929Z"/>
	<path fill="#FFFEFE" d="M475.252 326.614C484.602 326.313 504.879 326.228 513.076 323.796C514.68 323.321 515.656 322.895 516.495 321.431C515.568 316.823 508.707 315.853 507.322 311.665C510.337 312.198 512.842 313.273 515.611 314.519L519.825 311.666C525.007 317.275 529.558 324.85 536.009 329.055C537.715 346.348 538.249 363.786 539.176 381.133L543.329 457.984C540.905 453.378 533.87 442.598 530.01 439.159C528.739 438.026 527.892 437.87 526.237 438.009C521.334 441.318 518.152 457.177 515.874 463.241C514.556 456.072 510.591 439.002 507.556 432.755C505.201 430.912 499.484 431.921 496.52 432.069C499.89 427.662 503.556 423.471 507.134 419.232C510.169 415.563 518.641 406.349 519.279 402.06C519.457 400.867 519.485 400.603 518.749 399.696C515.079 398.262 497.44 406.185 492.539 407.61C498.337 397.271 506.276 387.772 513.553 378.416C516.035 375.225 518.918 372.003 521.076 368.603C521.899 367.306 522.162 366.933 522.246 365.407C521.598 364.639 521.334 364.358 520.339 364.034C517.156 362.997 513.301 362.839 509.991 362.155C502.354 360.575 494.766 357.77 487.779 354.332C492.479 353.39 508.148 351.429 510.529 347.241C510.857 346.664 510.737 345.842 510.509 345.249C508.329 339.572 481.531 329.742 475.252 326.614Z"/>
	<path fill="#FFFEFE" d="M372.288 384.101L372.659 384.237L373.273 384.471C377.995 386.237 381.89 388.599 384.892 392.752C383.802 395.761 381.075 397.205 378.296 398.508C376.966 399.127 375.62 399.714 374.261 400.265C373.55 394.884 372.893 389.496 372.288 384.101Z"/>
	<path fill="#F1E9FF" d="M354.617 434.055C355.664 432.72 357.462 432.487 359.015 432.088L360.811 440.363L354.617 434.055Z"/>
	<path fill="#12052E" d="M183.457 656.617C182.394 656.454 180.665 656.136 179.806 655.387C179.023 654.703 178.812 654.141 178.813 653.129C178.818 649.073 182.419 643.144 184.182 639.469C196.41 614.504 210.978 590.756 227.691 568.543C231.892 563.004 236.208 557.039 241.284 552.275C242.176 552.222 243.537 552.318 244.331 552.771C245.621 553.506 245.66 553.966 246.035 555.298C245.916 555.989 245.8 556.613 245.539 557.268C243.812 561.597 233.323 573.322 229.956 577.836C224.943 584.653 220.145 591.627 215.57 598.746C207.832 610.775 200.637 623.809 194.199 636.563C191.328 642.25 189.092 648.647 185.788 654.055C185.176 655.056 184.336 655.854 183.457 656.617Z"/>
	<path fill="#12052E" d="M454.315 764.159C453.186 764.104 452.271 763.95 451.187 763.63C450.622 763.11 450.094 762.617 449.763 761.905C448.149 758.43 447.746 718.121 447.443 710.892C446.066 678.029 442.023 645.692 436.624 613.283C435.875 608.787 434.377 602.866 437.181 598.922C438.312 598.941 439.353 599.098 440.466 599.276C441.445 600.12 441.736 600.366 442.091 601.659C443.572 607.058 443.906 613.465 444.801 619.039C447.151 633.663 449.69 648.237 451.359 662.963C454.304 688.959 455.437 715.693 455.923 741.851C456.035 747.894 456.855 755.524 455.751 761.46C455.542 762.583 455.013 763.282 454.315 764.159Z"/>
	<path fill="#C6BCFD" d="M102.744 656.942C109.749 647.651 115.736 637.615 122.761 628.304C127.529 633.997 130.508 641.69 134.912 647.818C154.651 675.287 178.289 691.263 210.794 699.856C208.636 704.15 195.445 726.5 191.89 728.152C151.895 715.123 126.971 689.946 102.744 656.942Z"/>
	<path fill="#FFFEFE" d="M90.9815 710.417C98.4642 701.164 105.298 691.295 113.031 682.271C115.696 683.536 129.534 699.495 133.454 703.001C147.628 715.673 163.325 724.073 180.641 731.603C175.651 740.24 168.774 752.564 168.328 762.554C165.412 762.263 162.503 761.906 159.603 761.483C152.46 760.112 145.278 758.071 138.546 755.323C115.589 745.953 100.644 733.389 90.9815 710.417Z"/>
	<path fill="#7B7A7A" d="M48.6006 758.838C60.7087 744.839 72.688 730.431 85.3067 716.911C89.4584 724.961 93.6148 731.849 99.8435 738.533C117.564 757.55 143.933 768.563 169.732 769.557L177.334 783.287C169.84 784.189 160.39 784.901 153.428 787.795C151.023 788.795 148.719 790.359 147.838 792.927C146.705 796.227 148.412 799.744 149.81 802.69C150.849 804.879 152.219 807 154.278 808.36C159.612 811.883 171.955 812.74 178.634 815.188L179.178 815.393C174.773 816.48 168.273 817.397 164.569 820.164C163.418 821.024 162.811 822.129 162.682 823.557C162.269 828.115 166.03 833.803 168.906 837.191C174.595 843.891 185.251 843.669 193.427 844.289C189.407 845.579 184.825 847.099 181.432 849.656C179.865 850.837 178.458 852.342 178.275 854.383C177.805 859.622 182.747 865.594 186.088 869.266C187.742 871.085 189.586 873.051 191.825 874.127C198.863 877.51 212.934 876.829 221.054 877.209L225.639 881.616L226.317 882.763C224.864 885.093 218.984 887.848 216.563 889.583C210.124 894.187 204.306 899.604 199.257 905.7C188.194 901.109 177.378 893.67 168.508 885.71C158.593 876.811 149.939 866.601 141.116 856.657C131.348 845.701 121.517 834.8 111.625 823.955C91.1646 801.684 69.2887 780.857 48.6006 758.838Z"/>
	<path fill="#C6BCFD" d="M831.532 771.827C831.44 759.749 831.6 747.671 832.012 735.599C838.959 736.881 845.928 740.197 852.813 742.1C875.407 748.347 895.63 743.582 917.112 735.93C916.164 748.294 915.726 760.706 914.972 773.085C909.567 776.743 903.025 778.858 896.777 780.56C875.109 786.463 851.011 782.951 831.532 771.827Z"/>
	<path fill="#C6BCFD" d="M592.358 791.291C591.329 784.074 591.578 762.95 593.037 755.681C596.068 756.817 599.111 758.961 602.048 760.411C625.861 772.17 659.457 769.335 684.151 761.07C682.937 771.827 682.402 782.657 681.002 793.395C678.913 794.887 676.634 795.761 674.242 796.647C648.631 806.133 616.804 802.439 592.358 791.291Z"/>
	<path fill="#FFFEFE" d="M34.2282 774.388C37.365 771.294 40.3595 768.031 43.4073 764.848C46.294 766.897 49.0869 770.168 51.6006 772.687C57.9983 779.077 64.2771 785.585 70.4338 792.207C84.685 807.265 99.39 822.033 113.382 837.313C135.782 861.778 161.772 897.612 192.81 910.717C200.466 913.95 208.354 914.953 216.574 915.63C235.415 917.183 252.488 915.99 270.169 908.828C270.903 913.415 272.556 919.805 270.794 924.202C269.548 927.31 267.235 928.116 264.344 929.29C248.457 934.492 230.89 935.843 214.245 934.616C197.59 933.388 179.038 928.326 165.164 918.776C145.067 904.943 130.008 882.617 114.833 863.895C105.211 852.024 94.9919 840.548 84.909 829.062C68.5086 810.38 50.4363 793.213 34.2282 774.388Z"/>
	<path fill="#C6BCFD" d="M422.368 787.501C432.134 791.251 442.806 793.478 453.207 794.446C485.654 797.465 504.359 786.581 528.474 766.521C529.562 768.425 528.575 805.135 527.873 809.366C522.798 813.337 516.786 817.001 510.992 819.772C483.177 833.078 452.755 830.047 424.514 820.044C422.664 817.279 422.426 792.3 422.368 787.501Z"/>
	<path fill="#FFFEFE" d="M843.499 848.948C843.598 840.915 844.419 832.79 844.902 824.766L846.973 786.139C869.27 791.324 878.809 791.472 901.121 787.098C901.135 788.075 901.141 789.066 901.251 790.039C901.655 793.638 906.069 796.038 908.667 798.163C900.601 800.248 887.34 807.002 883.287 814.455C882.519 815.867 882.378 816.899 882.789 818.43C887.387 820.28 897.941 809.799 902.455 807.469C906.25 805.51 909.829 804.746 914.043 804.308C915.846 805.985 917.486 807.825 919.157 809.632C912.428 812.352 906.271 815.387 900.514 819.859C896.595 822.903 889.428 828.453 888.983 833.762C888.886 834.92 888.998 835.013 889.707 835.847C894.202 836.091 903.832 825.563 908.565 822.494C913.071 819.572 917.587 817.606 922.684 815.953C924.987 817.831 926.927 820.117 928.934 822.302C919.406 825.125 905.051 833.395 899.521 841.691C898.653 842.993 897.961 844.592 898.485 846.175C898.863 847.316 899.499 847.927 900.54 848.433C903.707 848.253 908.284 842.422 910.754 840.208C917.572 834.098 924.296 829.467 933.748 830.009C935.845 832.884 938.28 835.534 940.61 838.223C932.702 841.148 926.375 843.673 919.851 849.114C916.603 851.914 910.033 857.585 908.88 861.791C908.517 863.113 908.628 863.259 909.324 864.321C910.819 865.07 911.788 865.531 913.478 865.495C915.053 864.579 915.955 863.21 917.031 861.769C923.71 852.833 933.472 848.197 943.602 844.217C957.835 860.003 985.815 871.276 996.24 886.935C988.942 893.515 978.062 896.792 968.551 898.364C955.793 900.473 941.765 900.399 929.208 897.106C909.08 891.829 886.586 876.544 868.821 865.369C860.328 860.026 851.634 854.823 843.499 848.948Z"/>
	<path fill="#FFFEFE" d="M168.519 792.193C170.695 791.846 172.889 791.589 175.073 791.3C176.903 791.099 178.762 791.038 180.6 790.923C182.181 794.111 183.496 797.438 184.87 800.72L180.783 798.618C176.657 796.545 172.521 794.502 168.519 792.193Z"/>
	<path fill="#FFFEFE" d="M158.052 802.477C157.06 800.515 155.541 798.302 155.659 796.058C156.604 794.68 157.099 794.622 158.602 793.988C163.078 793.736 182.67 804.407 188.303 807.092C189.065 808.332 190.152 809.641 190.156 811.141L189.074 811.059C179.353 806.691 168.416 804.804 158.052 802.477Z"/>
	<path fill="#FFFEFE" d="M588.338 858.513C592.001 839.623 595.972 820.743 599.235 801.78C622.786 809.952 644.986 811.164 669.229 805.52C671.608 809.258 673.814 813.078 676.013 816.922C665.967 819.297 642.971 826.444 636.765 834.725C635.952 835.81 635.765 836.674 635.909 838.022C636.391 838.987 636.601 839.42 637.564 839.996C638.637 840.639 639.621 840.529 640.716 840.009C644.501 838.211 647.821 834.916 651.466 832.76C660.195 827.596 670.983 825.353 680.811 823.312L686.293 830.696C678.02 832.939 669.678 835.315 662.151 839.526C657.906 841.901 651.409 845.536 650.304 850.687C650.038 851.928 650.171 852.522 650.829 853.566C652.371 854.109 653.846 853.93 655.303 853.226C658.24 851.807 660.72 848.875 663.515 847.111C671.845 841.851 681.26 839.246 690.824 837.421L696.115 844.656C687.08 846.43 678.86 849.699 670.933 854.376C668.264 855.95 665.214 857.782 664.404 860.96C664.597 862.54 665.438 863.283 666.466 864.397C670.607 864.642 679.478 857.38 683.951 855.652C689.391 853.551 695.131 852.18 700.804 850.873C705.761 857.237 711.257 862.66 717.656 867.585C722.244 871.116 746.21 885.271 747.727 887.808C748.479 889.067 748.314 891.034 747.793 892.311C746.702 894.986 743.065 896.618 740.554 897.61C702.638 912.588 665.465 894.463 631.552 878.325C617.27 871.457 602.863 864.852 588.338 858.513Z"/>
	<path fill="#FFFEFE" d="M179.378 822.344C183.012 821.414 186.637 820.76 190.339 820.167C191.228 820.001 192.049 820.011 192.95 820.003C196.411 822.397 197.886 828.515 199.177 832.381C197.343 831.2 195.449 830.096 193.587 828.958C189.056 826.337 184.301 824.123 179.378 822.344Z"/>
	<path fill="#FFFEFE" d="M174.8 833.74C173.501 831.6 171.031 828.598 171.584 826.016C172.622 824.66 174.041 824.513 175.608 824.123C176.451 824.447 176.079 824.254 176.875 824.777C182.219 828.289 199.594 836.107 202.316 839.924L202.016 840.64L200.027 840.349C191.686 837.209 183.176 836.404 174.8 833.74Z"/>
	<path fill="#FFFEFE" d="M439.892 832.302C467.072 839.192 493.24 837.003 518.231 824.01L518.541 824.259C519.337 828.877 517.551 840.779 517.502 846.622C515.576 847.829 513.574 848.93 511.575 850.009C488.965 862.21 465.39 862.343 441.145 855.158C439.761 851.967 440.039 836.563 439.892 832.302Z"/>
	<path fill="#FFFEFE" d="M195.38 851.662C199.019 850.274 202.43 849.95 206.275 849.703L206.887 849.608C210.033 851.257 212.909 860.018 214.236 863.274L208.225 859.692C203.895 857.083 199.578 854.481 195.38 851.662Z"/>
	<path fill="#FFFEFE" d="M510.844 871.399C516.95 865.456 522.039 860.72 525.392 852.754L532.111 860.124C527.487 865.573 521.669 870.317 516.394 875.128L515.739 875.473C513.899 874.851 512.228 872.748 510.844 871.399Z"/>
	<path fill="#FFFEFE" d="M194.665 867.558C191.487 864.537 187.397 860.527 186.741 856.053C187.36 854.596 187.941 854.595 189.326 853.91C189.889 853.958 189.868 853.934 190.511 854.121C192.249 854.629 214.075 868.399 214.576 869.285L213.39 869.38C207.186 868.186 200.826 868.866 194.665 867.558Z"/>
	<path fill="#7B7A7A" d="M611.646 919.72C617.454 922.487 623.084 925.852 629.183 927.923C618.996 938.222 609.459 949.824 602.364 962.473C584.048 960.126 565.889 957.987 547.689 954.775C524.048 950.602 500.684 945.031 477.322 939.557C460.023 935.504 441 932.33 425.165 924.02C427.731 912.805 430.385 901.611 433.127 890.438C435.454 881.077 438.191 871.612 439.834 862.107C460.903 868.872 488.061 870.397 508.205 859.889C511.345 858.251 513.947 856.402 516.513 853.962C515.323 855.845 514.139 857.864 512.614 859.495C509.529 862.794 502.804 866.812 501.417 871.01C503.087 874.468 507.068 877.291 509.755 880.004C529.971 900.412 551.038 918.392 575.112 934.146C579.627 937.101 584.438 940.895 589.498 942.733C589.9 942.88 590.309 943.009 590.717 943.137C597.84 941.447 609.506 935.839 613.347 929.448C614.262 927.924 614.98 925.984 614.346 924.214C613.828 922.767 612.229 921.45 611.113 920.451L611.646 919.72Z"/>
	<path fill="#FFFEFE" d="M999.904 909.118C985.007 919.482 963.997 922.84 946.191 922.026C939.605 921.724 932.482 920.992 926.388 918.382C918.62 915.055 911.534 910.267 904.433 905.732C891.281 897.332 878.456 888.402 865.51 879.688C859.791 875.838 847.681 869.086 843.523 864.212C842.06 862.497 842.613 859.768 842.746 857.667C848.958 860.732 854.976 865.402 860.816 869.172C879.172 881.023 906.71 899.305 927.742 904.117C951.086 909.459 978.316 907.576 998.83 894.612C999.635 898.563 1001.83 905.472 999.904 909.118Z"/>
	<path fill="#FFFEFE" d="M584.187 876.454L586.921 866.135C593.426 868.116 599.96 871.52 606.187 874.295C631.659 885.643 657.823 901.274 685.115 907.4C706.765 912.259 731.959 911.738 751.123 899.57C751.732 904.457 751.869 909.392 751.53 914.305C741.022 920.703 727.837 922.599 715.755 923.371C703.332 924.164 690.8 923.33 678.761 920.06C672.722 918.368 666.807 916.264 661.057 913.762C647.467 907.898 634.626 900.735 621.304 894.348C612.165 889.967 590.388 881.859 584.187 876.454Z"/>
	<path fill="#FFFEFE" d="M521.585 882.13C529.515 878.753 536.665 874.831 543.446 869.485C545.549 871.406 547.445 873.166 549.059 875.535C542.991 880.628 535.874 885.925 528.641 889.148C526.094 886.943 523.836 884.634 521.585 882.13Z"/>
	<path fill="#FFFEFE" d="M536.37 896.521C535.814 895.773 535.518 895.317 535.353 894.393C541.379 889.211 548.713 885.672 554.834 880.446L555.353 881.061C555.311 881.611 555.321 881.947 555.097 882.495C553.18 887.186 540.902 894.249 536.37 896.521Z"/>
	<path fill="#FFFEFE" d="M543.023 901.848C550.411 897.92 556.863 892.019 563.129 886.531C565.298 888.564 567.44 890.31 569.91 891.964C566.098 896.641 556.65 906.216 551.195 908.67C548.392 906.471 545.679 904.223 543.023 901.848Z"/>
	<path fill="#FFFEFE" d="M208.024 907.372C215.19 899.462 222.512 893.626 231.848 888.438C232.067 888.417 232.286 888.386 232.506 888.375C234.939 888.259 237.68 889.097 240.06 889.622C250.059 891.826 258.514 894.477 265.917 901.824C258.698 906.44 249.28 907.75 240.938 908.649C229.958 909.662 218.892 909.233 208.024 907.372Z"/>
	<path fill="#FFFEFE" d="M558.329 913.691C564.587 908.143 570.162 902.055 576.262 896.372C578.391 897.66 580.433 899.114 582.495 900.507L563.642 917.558L563.237 917.712C561.307 916.884 559.822 915.134 558.329 913.691Z"/>
	<path fill="#FFFEFE" d="M570.791 922.224C576.67 916.921 583.485 911.598 587.624 904.785C589.735 905.656 591.638 906.999 593.565 908.215C589.38 914.613 582.582 920.517 576.534 925.145L575.5 925.412C573.589 924.914 572.249 923.49 570.791 922.224Z"/>
	<path fill="#FFFEFE" d="M605.572 916.112L611.646 919.72L611.113 920.451C604.405 928.24 599.502 931.905 589.848 935.554L584.774 932.232C591.65 928.162 601.395 923.225 605.572 916.112Z"/>
	<path fill="#FFFEFE" d="M610.523 963.14C618.232 951.08 627.437 940.307 637.333 930.001C650.274 935.155 675.209 945.822 683.573 956.122C676.934 963.059 665.523 963.497 656.527 964.428C641.181 965.111 625.806 964.68 610.523 963.14Z"/>
	<path fill="#FFFEFE" d="M419.311 949.38C420.265 943.18 421.93 936.938 423.262 930.797C432.535 935.218 441.587 938.76 451.528 941.366C464.723 944.825 478.148 947.652 491.453 950.67C514.133 956.029 536.979 960.657 559.956 964.547C588.082 969.091 661.255 978.426 684.923 964.611C685.347 969.974 686.572 976.774 685.574 982.033C685.281 983.576 684.669 983.842 683.388 984.621C649.86 993.371 589.17 991.803 555.442 983.68C536.44 979.104 518.196 971.8 499.055 967.744C490.32 965.893 481.397 964.844 472.604 963.29C463.003 961.595 453.608 959.09 444.173 956.661C435.824 954.511 427.332 952.581 419.311 949.38Z"/>
</svg>
