<?xml version="1.0" encoding="utf-8" ?>
<svg xmlns="http://www.w3.org/2000/svg" xmlns:xlink="http://www.w3.org/1999/xlink" width="1024" height="1024">
	<path fill="#9F8BE8" d="M0 0L246.497 0L246.255 42.7109C246.193 47.3712 246.837 53.6095 245.716 58.0562C238.57 59.0154 228.247 72.5521 224.034 78.0751C209.074 97.6912 201.122 122.166 204.561 146.889C209.931 185.497 235.051 212.554 261.359 239.137C271.534 249.418 282.032 259.434 290.43 271.285C301.008 286.211 304.557 302.304 303.134 320.36C302.894 323.395 300.464 337.714 301.384 339.264C301.62 339.662 302.066 339.89 302.407 340.203C303.509 340.375 304.453 340.554 305.57 340.415C310.743 350.771 315.117 361.784 319.758 372.415C321.426 376.235 322.749 380.47 324.792 384.089C318.951 400.138 314.935 415.795 316.976 433.005C318.536 446.168 323.537 457.688 330.657 468.721C331.82 470.523 333.253 473.509 335.094 474.623C336.328 475.37 336.557 475.242 337.854 474.882C338.371 474.251 338.99 473.787 339.073 472.938C339.379 469.784 335.046 465.488 333.359 462.858C329.949 457.54 327.306 451.156 325.445 445.126C313.427 406.173 337.91 369.333 353.086 335.052C358.441 322.956 363.021 309.78 365.829 296.856C377.65 242.451 364.324 210.418 335.351 165.508C338.974 162.762 351.179 143.707 351.826 139.51C352.978 139.598 353.856 139.576 354.986 139.329C357.604 137.665 360.076 131.51 361.412 128.7C367.853 115.157 369.783 100.951 366.583 86.326C365.316 80.5383 363.715 74.636 364.074 68.6547C364.383 63.5067 367.493 59.3114 369.282 54.6434C369.915 52.994 369.451 52.2853 368.831 50.7615C372.113 48.3795 388.881 6.89003 391.713 0L1024 0L1024 142.232C994.496 172.273 963.091 200.386 929.98 226.397C925.273 230.013 920.337 233.321 915.203 236.301C907.625 240.68 898.821 244.449 892.708 250.897C887.285 256.616 885.647 264.006 885.232 271.627C878.097 271.709 870.781 272.06 865.337 266.647C858.666 260.014 853.415 251.691 846.948 244.751C834.49 231.384 800.512 202.094 782.163 201.355C780.458 201.286 777.589 201.62 776.439 203.076C775.704 204.007 775.598 205.816 775.417 206.966C772.515 209.996 768.495 212.115 764.938 214.296C765.61 206.858 766.999 200.151 773.014 195.044C780.019 189.097 790.6 187.848 799.436 188.765C807.382 189.59 827.539 195.542 833.837 194.269C834.828 193.473 835.018 193.336 835.457 192.158C834.773 190.742 833.977 190.208 832.491 189.677C828.11 188.113 823.03 187.702 818.466 186.773C810.23 185.097 802.457 183.162 794.03 182.401C795.901 176.591 798.552 171.288 802.651 166.713C808.75 159.906 816.618 154.747 823.613 148.917C831.421 142.41 838.817 135.324 846.181 128.324C874.075 101.809 899.732 73.098 925.777 44.7987C933.505 36.4866 941.181 28.1267 948.805 19.7196C952.472 15.701 956.762 11.664 959.948 7.2853C961.067 5.74719 961.949 4.0657 962.196 2.16764L961.946 3.23434L962.115 1.49557L961.361 0.898388C956.097 1.67654 949.973 10.2818 946.379 14.1908C913.839 49.5823 881.833 85.5674 847.58 119.323C839.505 127.418 831.119 135.197 822.44 142.643C813.534 150.286 802.491 157.61 795.471 167.008C791.869 171.828 789.745 177.26 787.888 182.931C779.34 184.006 770.447 188.383 765.172 195.311C759.981 202.129 759.06 209.456 759.587 217.752C745.809 226.939 731.893 235.917 717.844 244.682C701.926 254.983 685.815 264.981 669.519 274.671C659.347 280.652 649.255 286.799 638.991 292.617C631.096 297.092 622.217 301.253 615.045 306.805C606.288 313.586 601.105 325.222 594.401 333.934C585.902 344.981 575.561 355.344 565.019 364.435C557.933 370.546 540.763 376.978 531.522 381.935C518.435 389.111 505.742 396.984 493.498 405.518C478.935 415.507 464.693 427.656 452.454 440.383C446.396 446.683 440.833 454.852 434.022 460.193C428.342 464.648 420.333 467.154 413.809 470.168C409.163 472.314 404.79 474.856 400.43 477.521C397.53 486.049 395.557 495.123 394.065 504.007C393.238 508.936 392.839 514.118 391.524 518.932C390.322 523.333 387.907 527.766 386.071 531.94C357.717 525.235 329.864 515.984 301.801 508.145C294.873 500.806 288.695 492.747 281.799 485.337C265.028 467.317 243.315 449.616 244.056 422.899C244.206 417.515 247.333 408.02 245.759 403.767C244.68 402.92 244.65 402.99 243.263 403.028C240.222 405.252 239.4 413.572 238.84 417.119C236.458 432.227 240.739 445.49 249.653 457.688C256.006 466.38 263.616 474.188 270.927 482.069C277.971 489.599 284.851 497.28 291.564 505.106C261.909 495.898 231.62 488.32 201.686 480.04C175.432 472.778 147.469 463.887 120.746 459.308C113.185 458.012 105.235 457.384 97.5788 458.104C81.8489 459.582 66.5792 466.559 51.794 471.827C34.4475 478.007 16.7371 484.008 0 491.713L0 0ZM400.295 121.157C399.561 122.251 398.98 123.12 398.894 124.488C398.609 129.003 399.535 133.604 399.197 138.146C398.55 146.851 396.823 155.446 396.765 164.218C396.771 169.006 397.219 173.784 398.104 178.49C403.094 204.86 437.281 214.576 418.517 242.678C415.416 247.323 411.737 251.573 408.6 256.196C401.764 266.271 397.995 278.507 400.314 290.66C401.088 294.714 403.049 302.517 406.726 304.819C407.282 305.168 407.878 305.341 408.51 305.48C409.446 304.383 410.278 303.825 410.22 302.263C410.119 299.551 407.738 295.353 406.836 292.688C403 281.359 406.318 269.601 412.742 259.951C420.538 248.242 432.621 237.476 429.535 221.875C425.71 202.538 405.502 195.036 403.011 172.583C402.506 168.005 402.407 163.391 402.716 158.796C403.078 153.092 407.273 125.178 402.856 121.781C402.234 121.302 401.028 121.254 400.295 121.157Z"/>
	<path fill="#D8D7F6" d="M246.497 0L391.713 0C388.881 6.89003 372.113 48.3795 368.831 50.7615C366.506 50.9302 365.653 51.3165 364.063 53.1276C359.386 58.4555 358.11 67.9953 358.663 74.8657C359.942 90.7521 364.792 97.9252 360.339 114.931C358.997 120.058 356.946 124.805 354.725 129.597C353.684 131.844 351.977 134.6 351.442 137C351.241 137.903 351.548 138.669 351.826 139.51C351.179 143.707 338.974 162.762 335.351 165.508C333.728 163.325 331.676 160.479 328.689 160.237C328.565 160.227 328.442 160.257 328.318 160.267C327.583 161.765 327.455 162.372 328.077 163.977C329.499 167.65 332.722 171.558 334.873 174.895C338.46 180.46 341.867 186.139 345.088 191.923C367.682 233.455 370.729 272.328 354.394 316.769C345.928 339.805 333.412 361.15 324.792 384.089C322.749 380.47 321.426 376.235 319.758 372.415C315.117 361.784 310.743 350.771 305.57 340.415C307.621 333.099 308.406 325.121 308.705 317.54C309.092 307.731 308.594 298.077 305.462 288.706C298.689 268.447 283.395 253.267 268.74 238.479C244.411 213.929 217.357 186.697 211.053 151.308C206.359 124.959 213.387 99.5269 230.359 78.9471C232.591 76.2409 234.834 73.471 237.252 70.9296C240.037 68.0037 243.628 65.2724 245.769 61.8256C246.673 60.3692 246.164 59.5593 245.716 58.0562C246.837 53.6095 246.193 47.3712 246.255 42.7109L246.497 0Z"/>
	<path d="M885.232 271.627C885.647 264.006 887.285 256.616 892.708 250.897C898.821 244.449 907.625 240.68 915.203 236.301C920.337 233.321 925.273 230.013 929.98 226.397C963.091 200.386 994.496 172.273 1024 142.232L1024 150.265C1013.77 160.209 1003.69 170.35 993.192 180.003C982.062 190.234 970.45 199.997 958.903 209.75C951.393 216.093 943.953 222.607 936.135 228.57C930.098 233.261 923.771 237.567 917.192 241.463C911.509 244.759 904.203 247.673 899.253 251.904C895.979 254.703 893.423 259.186 892.37 263.341C890.126 272.198 892.872 277.411 881.049 277.265C872.095 277.154 864.8 274.299 858.619 267.816C849.75 272.005 841.329 277.692 833.035 282.908C816.537 293.284 800.138 304.28 783.159 313.836C785.904 315.173 788.697 316.451 791.355 317.955C796.408 317.309 802.403 317.406 806.551 320.766C809.814 323.408 811.729 327.606 813.544 331.309C818.972 333.519 823.876 337.816 828.191 341.688C848.21 359.652 862.4 382.695 872.775 407.335C897.529 466.123 898.218 532.418 905.104 594.919C909.15 632.791 916.22 670.279 926.247 707.023L982.861 726.08C994.295 729.869 1007.03 732.929 1017.74 738.388C1019.57 739.319 1020.26 740.052 1021.25 741.832C1020.65 742.344 1020.01 742.809 1019.38 743.29C1017.72 743.63 1016.39 743.54 1014.76 743.033C995.246 736.978 975.923 730.047 956.545 723.538C894.665 702.754 833.187 680.792 771.14 660.49C728.587 646.715 685.896 633.371 643.073 620.459C559.196 647.602 464.618 667.828 376.168 658.243C365.603 657.098 348.849 655.994 339.043 652.673C337.232 652.06 335.625 651.366 334.766 649.57C336.091 641.601 345.072 624.134 348.779 615.773C360.397 589.571 372.387 563.532 383.787 537.235C372.472 534.723 361.22 531.081 350.094 527.823L306.436 515.34C310.146 521.502 313.513 527.497 315.54 534.45C320.564 551.687 317.233 567.324 308.52 582.709C307.329 584.813 305.958 587.072 303.498 587.723C302.305 587.362 302.236 587.288 301.454 586.311C301.28 584.978 301.401 584.046 301.951 582.803C302.94 580.569 304.454 578.516 305.646 576.38C308.343 571.473 310.325 566.205 311.533 560.737C315.479 542.685 307.589 527.146 298.069 512.4C291.984 511.328 285.866 509.274 279.921 507.583L249.421 498.914C218.677 490.305 187.88 481.892 157.029 473.675C142.284 469.835 126.86 465 111.678 463.594C104.445 462.924 97.1083 463.616 90.0068 465.045C81.2551 466.805 72.942 470.275 64.5659 473.27C51.6612 477.819 38.8062 482.507 26.003 487.334C17.3764 490.626 8.7906 494.372 0 497.185L0 491.713C16.7371 484.008 34.4475 478.007 51.794 471.827C66.5792 466.559 81.8489 459.582 97.5788 458.104C105.235 457.384 113.185 458.012 120.746 459.308C147.469 463.887 175.432 472.778 201.686 480.04C231.62 488.32 261.909 495.898 291.564 505.106C284.851 497.28 277.971 489.599 270.927 482.069C263.616 474.188 256.006 466.38 249.653 457.688C240.739 445.49 236.458 432.227 238.84 417.119C239.4 413.572 240.222 405.252 243.263 403.028C244.65 402.99 244.68 402.92 245.759 403.767C247.333 408.02 244.206 417.515 244.056 422.899C243.315 449.616 265.028 467.317 281.799 485.337C288.695 492.747 294.873 500.806 301.801 508.145C329.864 515.984 357.717 525.235 386.071 531.94C387.907 527.766 390.322 523.333 391.524 518.932C392.839 514.118 393.238 508.936 394.065 504.007C395.557 495.123 397.53 486.049 400.43 477.521C404.79 474.856 409.163 472.314 413.809 470.168C420.333 467.154 428.342 464.648 434.022 460.193C440.833 454.852 446.396 446.683 452.454 440.383C464.693 427.656 478.935 415.507 493.498 405.518C505.742 396.984 518.435 389.111 531.522 381.935C540.763 376.978 557.933 370.546 565.019 364.435C575.561 355.344 585.902 344.981 594.401 333.934C601.105 325.222 606.288 313.586 615.045 306.805C622.217 301.253 631.096 297.092 638.991 292.617C649.255 286.799 659.347 280.652 669.519 274.671C685.815 264.981 701.926 254.983 717.844 244.682C731.893 235.917 745.809 226.939 759.587 217.752C759.06 209.456 759.981 202.129 765.172 195.311C770.447 188.383 779.34 184.006 787.888 182.931C789.745 177.26 791.869 171.828 795.471 167.008C802.491 157.61 813.534 150.286 822.44 142.643C831.119 135.197 839.505 127.418 847.58 119.323C881.833 85.5674 913.839 49.5823 946.379 14.1908C949.973 10.2818 956.097 1.67654 961.361 0.898388L962.115 1.49557L961.946 3.23434L962.196 2.16764C961.949 4.0657 961.067 5.74719 959.948 7.2853C956.762 11.664 952.472 15.701 948.805 19.7196C941.181 28.1267 933.505 36.4866 925.777 44.7987C899.732 73.098 874.075 101.809 846.181 128.324C838.817 135.324 831.421 142.41 823.613 148.917C816.618 154.747 808.75 159.906 802.651 166.713C798.552 171.288 795.901 176.591 794.03 182.401C802.457 183.162 810.23 185.097 818.466 186.773C823.03 187.702 828.11 188.113 832.491 189.677C833.977 190.208 834.773 190.742 835.457 192.158C835.018 193.336 834.828 193.473 833.837 194.269C827.539 195.542 807.382 189.59 799.436 188.765C790.6 187.848 780.019 189.097 773.014 195.044C766.999 200.151 765.61 206.858 764.938 214.296C768.495 212.115 772.515 209.996 775.417 206.966C775.598 205.816 775.704 204.007 776.439 203.076C777.589 201.62 780.458 201.286 782.163 201.355C800.512 202.094 834.49 231.384 846.948 244.751C853.415 251.691 858.666 260.014 865.337 266.647C870.781 272.06 878.097 271.709 885.232 271.627ZM650.35 426.102C643.337 427.155 637.856 427.445 630.831 426.2C626.678 431.951 621.901 434.943 614.793 436.049C611.476 436.566 608.138 436.565 604.789 436.554C608.716 438.77 611.363 441.035 614.234 444.506C626.807 440.202 639.811 434.893 651.331 428.264C658.557 425.512 665.607 421.535 672.485 418.012C669.675 418.105 666.935 418.073 664.129 417.901C659.74 421.721 655.705 423.809 650.35 426.102ZM785.628 207.482C750.202 231.189 714.262 254.121 677.836 276.261L639.808 298.558C632.506 302.756 623.746 306.688 617.369 312.111C609.904 318.458 602.93 332.776 596.341 341.189C590.189 349.043 582.348 355.5 575.247 362.47C587.928 357.44 601.113 353.788 614.575 351.577C615.441 347.808 616.646 336.767 619.898 334.549C620.765 333.958 621.437 333.787 622.46 333.893C623.38 334.84 623.591 335.383 623.637 336.725C623.802 341.564 621.248 348.013 619.976 352.815C614.747 372.554 610.103 389.013 602.522 408.128C601.055 411.826 593.87 424.519 594.567 427.687C594.653 428.077 594.99 428.365 595.201 428.703C600.141 431.347 612.208 431.748 617.53 430.064C627.632 426.869 642.981 396.553 647.956 386.366C649.799 382.594 653.821 370.638 657.203 369.096L658.52 369.237C659.632 370.675 659.839 371.992 659.57 373.797C658.413 381.549 647.012 400.693 642.851 407.75L634.349 421.391C642.834 422.413 650.045 421.486 656.975 416.121C664.248 410.49 686.438 378.726 689.896 377.819C691.189 378.121 691.46 378.189 692.43 379.076C692.873 381.042 691.824 382.653 690.803 384.259C688.262 388.256 684.994 391.959 682.099 395.711C677.634 401.499 673.341 407.414 668.509 412.915C678.769 413.338 687.953 412.726 695.914 405.355C701.115 400.538 705.697 394.245 709.44 388.253C710.774 386.117 711.875 382.809 713.592 381.063C714.233 380.411 715.392 379.898 716.325 379.941C717.806 380.008 718.066 380.218 718.953 381.265C719.481 386.034 709.289 399.488 706.033 403.568C703.958 406.169 701.706 408.475 699.218 410.68C706.798 412.059 712.125 411.589 718.635 407.059C732.533 397.388 746.362 373.802 749.319 357.101C752.188 340.891 750.52 329.581 765.434 318.947C773.134 313.456 781.398 308.602 789.405 303.576C811.027 290.002 833.596 276.808 854.722 262.584C841.491 244.144 807.201 213.262 785.628 207.482ZM777.847 317.911C769.255 322.361 760.735 327.174 757.663 336.972C757.553 337.326 757.448 337.681 757.347 338.037C761.561 337.805 765.777 337.627 769.995 337.504C775.516 337.56 785.252 339.006 789.361 334.831C790.534 333.638 791.066 332.133 790.963 330.47C790.745 326.98 788.162 323.83 785.584 321.689C783.373 319.853 780.684 318.454 777.847 317.911ZM794.589 323.25C795.99 328.125 797.003 332.103 794.337 336.818C793.551 338.209 792.591 339.538 791.688 340.856C793.741 342.578 796.113 344.519 798.978 344.356C800.075 344.293 801.156 343.977 802.198 343.652C804.976 340.448 807.159 337.394 806.956 332.961C806.818 329.945 805.389 327.292 803.052 325.413C800.358 323.248 797.857 323.42 794.589 323.25ZM813.03 337.337C811.876 339.808 810.742 342.174 809.254 344.468C843.512 372.948 859.464 411.049 869.839 453.261C876.816 481.648 880.697 510.267 883.382 539.35C888.392 593.639 892.262 648.988 908.993 701.219L917.059 703.985L918.746 704.376L919.1 703.845C908.181 664.685 902.61 624.661 898.157 584.345C889.955 510.083 888.707 415.656 835.21 357.232C828.425 349.822 821.365 343.013 813.03 337.337ZM763.8 343.205L757.101 343.63C755.788 354.476 753.706 364.426 750.045 374.744C766.78 384.467 780.774 394.403 786.058 414.231C787.205 418.534 787.604 422.696 787.595 427.14C804.868 444.875 826.823 472.059 829.125 497.459C826.154 501.058 822.273 503.752 818.56 506.537C819.847 511.391 826.679 531.3 824.883 534.452C822.054 539.417 808.405 546.321 803.093 549.379C777.286 564.441 750.618 577.978 723.227 589.921C700.119 599.99 676.459 608.654 652.876 617.525L755.624 649.766C785.18 659.019 814.451 669.019 843.848 678.752C855.705 682.673 867.541 686.66 879.354 690.712C886.741 693.233 894.265 695.551 901.437 698.638C893.382 669.055 887.587 638.903 884.104 608.442C875.076 532.39 876.41 433.905 827.116 371.065C820.932 363.182 813.894 354.895 805.711 349.092C800.568 350.093 796.018 350.748 791.428 347.552C789.733 346.372 788.332 344.887 786.924 343.389C779.399 343.101 771.29 342.427 763.8 343.205ZM611.696 357.563C599.434 360.739 587.054 363.759 575.135 368.084C545.916 378.688 510.36 398.636 486.006 418.123C487.781 420.149 489.387 421.764 491.826 422.958C507.433 428.798 519.857 426.441 534.776 419.72C543.603 415.743 552.029 410.685 560.594 406.169C575.083 398.53 589.916 391.105 604.856 384.387C606.692 379.88 613.341 361.803 612.391 357.721L611.696 357.563ZM747.107 379.723C744.463 384.2 741.849 388.634 739.592 393.323C752.779 398.528 768.003 408.163 778.279 417.949L782.323 422.046C776.946 402.646 768.564 391.773 750.928 381.629C749.693 380.919 748.417 380.283 747.107 379.723ZM601.937 392.049C589.55 397.902 577.262 403.961 565.078 410.223C544.488 420.922 518.449 438.683 494.365 430.04C489.476 428.286 485.137 425.756 481.709 421.797C475.003 427.211 468.452 432.687 462.327 438.762C467.396 440.825 472.446 443.543 474.809 448.785C476.998 453.641 476.149 459.558 474.198 464.344C471.291 471.473 466.704 477.987 462.565 484.446C456.819 493.413 450.947 502.29 445.522 511.458C428.428 540.279 412.538 569.797 397.892 599.936C436.389 603.464 476.608 598.893 514.584 592.488C592.946 579.619 669.255 556.415 741.516 523.483C768.106 511.718 795.178 498.252 819.393 482.064C814.649 471.918 808.947 462.249 802.364 453.188C787.971 433.551 762.568 408.344 739.384 399.979C738.153 399.538 736.91 399.132 735.655 398.763C734.242 400.569 732.787 402.343 731.557 404.281C736.457 410.557 738.534 416.332 737.479 424.415C735.402 440.321 726.519 457.953 713.621 467.762C695.998 481.165 660.794 491.585 639.417 499C610.534 509.019 581.487 520.031 551.291 525.424C545.092 526.532 538.306 527.209 532.037 526.283C525.678 525.343 519.704 522.242 515.881 516.983C509.892 508.743 508.545 496.757 510.233 486.943C514.095 464.494 536.976 443.587 554.824 431.161C563.117 425.387 571.612 419.812 580.514 415.015C585.768 412.184 591.36 409.878 596.549 406.976C597.823 404.423 602.498 394.526 602.103 392.242L601.937 392.049ZM726.693 408.919C719.932 414.111 711.866 418.484 703.022 417.409C699.872 417.027 696.988 415.933 694.335 414.215L616.166 450.338C617.852 454.419 618.753 458.317 619.421 462.671C624.607 466.35 630.403 470.028 631.715 476.768C632.387 480.221 631.555 483.596 629.492 486.431C622.875 495.523 603.694 498.57 593.386 499.896C579.673 501.659 553.733 500.147 542.436 491.466C539.531 489.234 537.571 486.481 537.106 482.795C536.611 478.862 537.579 474.579 538.317 470.729C532.849 472.71 520.598 475.836 517.409 480.733C514.407 489.982 514.013 500.828 518.43 509.749C521.071 515.082 525.45 518.706 531.14 520.408C534.555 521.43 537.681 521.683 541.21 521.35C559.673 519.608 578.546 513.457 596.144 507.834C613.335 502.425 630.419 496.684 647.387 490.614C665.262 484.342 684.65 478.613 701.21 469.385C716.634 460.791 725.897 447.567 730.55 430.678C731.814 426.089 732.457 421.597 732.754 416.854C731.442 414.061 729.644 410.254 726.693 408.919ZM592.39 415.06C584.586 419.111 576.34 423.159 569.094 428.126C570.629 430.194 572.192 432.654 571.866 435.367C571.505 438.368 566.916 440.829 567.095 442.579C569.722 444.076 573.284 444.555 576.246 445.052C584.528 445.452 592.483 445.087 599.994 441.232C595.735 439.951 591.451 438.858 589.188 434.59C587.487 431.383 587.966 427.614 589.112 424.313C590.139 421.359 591.471 418.455 592.675 415.567L592.39 415.06ZM564.635 432.385C560.159 434.546 555.947 436.805 551.919 439.731C545.49 444.4 526.349 461.906 523.743 469.212C523.689 469.362 523.663 469.521 523.623 469.676C524.689 469.984 524.18 469.978 525.144 469.784C533.282 467.144 540.993 464.03 548.74 460.409C550.154 453.427 551.331 442.574 557.603 438.213C559.874 436.632 565.468 436.343 566.474 433.844C565.933 433.033 565.508 432.799 564.635 432.385ZM604.481 442.989C601.165 447.711 596.307 449.466 590.805 450.411C582.815 451.785 570.737 451.97 563.796 447.256C562.331 446.261 561.059 444.901 559.81 443.651C556.383 450.374 552.454 463.277 554.877 470.614C555.748 473.251 558.162 474.448 560.488 475.61C574.881 480.704 594.552 481.255 608.608 474.624C610.562 473.703 613.329 472.008 614.214 469.911C615.91 465.896 611.676 451.538 609.381 447.802C608.137 445.777 606.555 444.16 604.481 442.989ZM456.511 446.084C450.08 450.283 444.238 456.939 439.823 463.179C443.128 477.016 431.211 498.265 424.151 509.735C419.781 516.836 410.524 532.544 402.354 534.59C400.43 535.072 398.628 534.73 396.989 533.618C395.572 532.655 394.293 531.362 393.037 530.199C387.659 541.308 382.821 552.754 377.796 564.031C373.353 574 368.591 583.951 364.679 594.133C368.887 595.204 373.1 596.069 377.368 596.869C382.326 597.759 387.306 598.53 392.302 599.179C405.778 571.098 420.294 542.957 436.292 516.239C442.011 506.572 447.844 496.972 453.789 487.44C458.609 479.842 464.304 472.082 468.105 463.932C469.835 460.221 471.007 455.715 469.642 451.69C468.891 449.474 467.325 447.778 465.201 446.813C462.412 445.547 459.47 445.702 456.511 446.084ZM433.709 467.936C424.438 471.767 413.27 475.671 405.139 481.656C402.085 489.582 395.461 520.846 398.278 528.056C398.517 528.667 398.881 529.22 399.217 529.78C402.831 529.365 404.676 527.658 406.911 524.846C418.79 509.901 432.556 488.032 434.644 468.969L434.294 468.138L433.709 467.936ZM547.069 467.797C543.985 470.535 543.067 475.492 542.767 479.486C542.598 482.041 543.537 484.546 545.344 486.36C552.345 493.466 574.014 495.332 583.626 495.101C594.085 494.85 617.148 491.677 624.7 483.844C624.888 483.649 625.066 483.446 625.248 483.247C626.145 480.686 626.698 478.049 625.495 475.476C624.284 472.884 622.034 471.223 619.78 469.588C619.04 473.596 618.071 475.364 614.702 477.741C603.218 485.845 582.306 486.38 569.026 483.872C563.075 482.749 553.313 480.086 549.712 474.789C548.263 472.658 548.127 470.049 547.069 467.797ZM820.761 487.925C743.595 534.844 646.983 571.037 558.629 590.053C540.483 593.844 522.217 597.04 503.861 599.637C457.807 606.486 409.047 610.44 363.352 599.346L362.238 599.073C360.622 602.042 357.937 605.735 358.331 609.239C359.071 609.954 359.647 610.189 360.616 610.516C383.648 618.043 410.675 617.61 434.653 616.711C518.083 613.583 599.977 593.35 678.296 565.276C708.569 554.425 738.802 542.471 767.514 527.926C780.166 521.516 815.272 504.273 824.104 495.769C823.417 493.191 822.86 490.62 821.55 488.274L820.761 487.925ZM813.314 509.45C791.526 521.924 769.521 533.637 746.666 544.054C717.368 557.142 687.396 568.665 656.876 578.574C589.853 600.69 520.551 616.903 449.935 621.264C420.953 623.054 389.605 624.078 361.354 616.399C359.329 615.845 357.312 615.259 355.304 614.64C350.383 625.429 345.865 636.394 340.933 647.171C342.888 647.754 344.863 648.439 346.872 648.806C452.243 667.151 565.36 643.209 664.576 607.105C695.214 596.254 725.174 583.58 754.298 569.15C775.602 558.52 797.851 547.754 817.434 534.174C818.313 533.565 819.126 532.909 819.939 532.215C818.507 526.407 815.835 514.347 813.314 509.45Z"/>
	<path d="M351.826 139.51C351.548 138.669 351.241 137.903 351.442 137C351.977 134.6 353.684 131.844 354.725 129.597C356.946 124.805 358.997 120.058 360.339 114.931C364.792 97.9252 359.942 90.7521 358.663 74.8657C358.11 67.9953 359.386 58.4555 364.063 53.1276C365.653 51.3165 366.506 50.9302 368.831 50.7615C369.451 52.2853 369.915 52.994 369.282 54.6434C367.493 59.3114 364.383 63.5067 364.074 68.6547C363.715 74.636 365.316 80.5383 366.583 86.326C369.783 100.951 367.853 115.157 361.412 128.7C360.076 131.51 357.604 137.665 354.986 139.329C353.856 139.576 352.978 139.598 351.826 139.51Z"/>
	<path d="M305.57 340.415C304.453 340.554 303.509 340.375 302.407 340.203C302.066 339.89 301.62 339.662 301.384 339.264C300.464 337.714 302.894 323.395 303.134 320.36C304.557 302.304 301.008 286.211 290.43 271.285C282.032 259.434 271.534 249.418 261.359 239.137C235.051 212.554 209.931 185.497 204.561 146.889C201.122 122.166 209.074 97.6912 224.034 78.0751C228.247 72.5521 238.57 59.0154 245.716 58.0562C246.164 59.5593 246.673 60.3692 245.769 61.8256C243.628 65.2724 240.037 68.0037 237.252 70.9296C234.834 73.471 232.591 76.2409 230.359 78.9471C213.387 99.5269 206.359 124.959 211.053 151.308C217.357 186.697 244.411 213.929 268.74 238.479C283.395 253.267 298.689 268.447 305.462 288.706C308.594 298.077 309.092 307.731 308.705 317.54C308.406 325.121 307.621 333.099 305.57 340.415Z"/>
	<path d="M408.51 305.48C407.878 305.341 407.282 305.168 406.726 304.819C403.049 302.517 401.088 294.714 400.314 290.66C397.995 278.507 401.764 266.271 408.6 256.196C411.737 251.573 415.416 247.323 418.517 242.678C437.281 214.576 403.094 204.86 398.104 178.49C397.219 173.784 396.771 169.006 396.765 164.218C396.823 155.446 398.55 146.851 399.197 138.146C399.535 133.604 398.609 129.003 398.894 124.488C398.98 123.12 399.561 122.251 400.295 121.157C401.028 121.254 402.234 121.302 402.856 121.781C407.273 125.178 403.078 153.092 402.716 158.796C402.407 163.391 402.506 168.005 403.011 172.583C405.502 195.036 425.71 202.538 429.535 221.875C432.621 237.476 420.538 248.242 412.742 259.951C406.318 269.601 403 281.359 406.836 292.688C407.738 295.353 410.119 299.551 410.22 302.263C410.278 303.825 409.446 304.383 408.51 305.48Z"/>
	<path fill="#9F8BE8" d="M858.619 267.816C864.8 274.299 872.095 277.154 881.049 277.265C892.872 277.411 890.126 272.198 892.37 263.341C893.423 259.186 895.979 254.703 899.253 251.904C904.203 247.673 911.509 244.759 917.192 241.463C923.771 237.567 930.098 233.261 936.135 228.57C943.953 222.607 951.393 216.093 958.903 209.75C970.45 199.997 982.062 190.234 993.192 180.003C1003.69 170.35 1013.77 160.209 1024 150.265L1024 742.171C1022.93 741.842 1022.33 741.414 1021.25 741.832C1020.26 740.052 1019.57 739.319 1017.74 738.388C1007.03 732.929 994.295 729.869 982.861 726.08L926.247 707.023C916.22 670.279 909.15 632.791 905.104 594.919C898.218 532.418 897.529 466.123 872.775 407.335C862.4 382.695 848.21 359.652 828.191 341.688C823.876 337.816 818.972 333.519 813.544 331.309C811.729 327.606 809.814 323.408 806.551 320.766C802.403 317.406 796.408 317.309 791.355 317.955C788.697 316.451 785.904 315.173 783.159 313.836C800.138 304.28 816.537 293.284 833.035 282.908C841.329 277.692 849.75 272.005 858.619 267.816Z"/>
	<path d="M324.792 384.089C333.412 361.15 345.928 339.805 354.394 316.769C370.729 272.328 367.682 233.455 345.088 191.923C341.867 186.139 338.46 180.46 334.873 174.895C332.722 171.558 329.499 167.65 328.077 163.977C327.455 162.372 327.583 161.765 328.318 160.267C328.442 160.257 328.565 160.227 328.689 160.237C331.676 160.479 333.728 163.325 335.351 165.508C364.324 210.418 377.65 242.451 365.829 296.856C363.021 309.78 358.441 322.956 353.086 335.052C337.91 369.333 313.427 406.173 325.445 445.126C327.306 451.156 329.949 457.54 333.359 462.858C335.046 465.488 339.379 469.784 339.073 472.938C338.99 473.787 338.371 474.251 337.854 474.882C336.557 475.242 336.328 475.37 335.094 474.623C333.253 473.509 331.82 470.523 330.657 468.721C323.537 457.688 318.536 446.168 316.976 433.005C314.935 415.795 318.951 400.138 324.792 384.089Z"/>
	<path fill="#D8D7F6" d="M575.247 362.47C582.348 355.5 590.189 349.043 596.341 341.189C602.93 332.776 609.904 318.458 617.369 312.111C623.746 306.688 632.506 302.756 639.808 298.558L677.836 276.261C714.262 254.121 750.202 231.189 785.628 207.482C807.201 213.262 841.491 244.144 854.722 262.584C833.596 276.808 811.027 290.002 789.405 303.576C781.398 308.602 773.134 313.456 765.434 318.947C750.52 329.581 752.188 340.891 749.319 357.101C746.362 373.802 732.533 397.388 718.635 407.059C712.125 411.589 706.798 412.059 699.218 410.68C701.706 408.475 703.958 406.169 706.033 403.568C709.289 399.488 719.481 386.034 718.953 381.265C718.066 380.218 717.806 380.008 716.325 379.941C715.392 379.898 714.233 380.411 713.592 381.063C711.875 382.809 710.774 386.117 709.44 388.253C705.697 394.245 701.115 400.538 695.914 405.355C687.953 412.726 678.769 413.338 668.509 412.915C673.341 407.414 677.634 401.499 682.099 395.711C684.994 391.959 688.262 388.256 690.803 384.259C691.824 382.653 692.873 381.042 692.43 379.076C691.46 378.189 691.189 378.121 689.896 377.819C686.438 378.726 664.248 410.49 656.975 416.121C650.045 421.486 642.834 422.413 634.349 421.391L642.851 407.75C647.012 400.693 658.413 381.549 659.57 373.797C659.839 371.992 659.632 370.675 658.52 369.237L657.203 369.096C653.821 370.638 649.799 382.594 647.956 386.366C642.981 396.553 627.632 426.869 617.53 430.064C612.208 431.748 600.141 431.347 595.201 428.703C594.99 428.365 594.653 428.077 594.567 427.687C593.87 424.519 601.055 411.826 602.522 408.128C610.103 389.013 614.747 372.554 619.976 352.815C621.248 348.013 623.802 341.564 623.637 336.725C623.591 335.383 623.38 334.84 622.46 333.893C621.437 333.787 620.765 333.958 619.898 334.549C616.646 336.767 615.441 347.808 614.575 351.577C601.113 353.788 587.928 357.44 575.247 362.47Z"/>
	<path fill="#504099" d="M757.347 338.037C757.448 337.681 757.553 337.326 757.663 336.972C760.735 327.174 769.255 322.361 777.847 317.911C780.684 318.454 783.373 319.853 785.584 321.689C788.162 323.83 790.745 326.98 790.963 330.47C791.066 332.133 790.534 333.638 789.361 334.831C785.252 339.006 775.516 337.56 769.995 337.504C765.777 337.627 761.561 337.805 757.347 338.037Z"/>
	<path fill="#FDFCFD" d="M791.688 340.856C792.591 339.538 793.551 338.209 794.337 336.818C797.003 332.103 795.99 328.125 794.589 323.25C797.857 323.42 800.358 323.248 803.052 325.413C805.389 327.292 806.818 329.945 806.956 332.961C807.159 337.394 804.976 340.448 802.198 343.652C801.156 343.977 800.075 344.293 798.978 344.356C796.113 344.519 793.741 342.578 791.688 340.856Z"/>
	<path fill="#FDFCFD" d="M809.254 344.468C810.742 342.174 811.876 339.808 813.03 337.337C821.365 343.013 828.425 349.822 835.21 357.232C888.707 415.656 889.955 510.083 898.157 584.345C902.61 624.661 908.181 664.685 919.1 703.845L918.746 704.376L917.059 703.985L908.993 701.219C892.262 648.988 888.392 593.639 883.382 539.35C880.697 510.267 876.816 481.648 869.839 453.261C859.464 411.049 843.512 372.948 809.254 344.468Z"/>
	<path fill="#9F8BE8" d="M757.101 343.63L763.8 343.205C771.29 342.427 779.399 343.101 786.924 343.389C788.332 344.887 789.733 346.372 791.428 347.552C796.018 350.748 800.568 350.093 805.711 349.092C813.894 354.895 820.932 363.182 827.116 371.065C876.41 433.905 875.076 532.39 884.104 608.442C887.587 638.903 893.382 669.055 901.437 698.638C894.265 695.551 886.741 693.233 879.354 690.712C867.541 686.66 855.705 682.673 843.848 678.752C814.451 669.019 785.18 659.019 755.624 649.766L652.876 617.525C676.459 608.654 700.119 599.99 723.227 589.921C750.618 577.978 777.286 564.441 803.093 549.379C808.405 546.321 822.054 539.417 824.883 534.452C826.679 531.3 819.847 511.391 818.56 506.537C822.273 503.752 826.154 501.058 829.125 497.459C826.823 472.059 804.868 444.875 787.595 427.14C787.604 422.696 787.205 418.534 786.058 414.231C780.774 394.403 766.78 384.467 750.045 374.744C753.706 364.426 755.788 354.476 757.101 343.63Z"/>
	<path fill="#504099" d="M486.006 418.123C510.36 398.636 545.916 378.688 575.135 368.084C587.054 363.759 599.434 360.739 611.696 357.563L612.391 357.721C613.341 361.803 606.692 379.88 604.856 384.387C589.916 391.105 575.083 398.53 560.594 406.169C552.029 410.685 543.603 415.743 534.776 419.72C519.857 426.441 507.433 428.798 491.826 422.958C489.387 421.764 487.781 420.149 486.006 418.123Z"/>
	<path fill="#504099" d="M739.592 393.323C741.849 388.634 744.463 384.2 747.107 379.723C748.417 380.283 749.693 380.919 750.928 381.629C768.564 391.773 776.946 402.646 782.323 422.046L778.279 417.949C768.003 408.163 752.779 398.528 739.592 393.323Z"/>
	<path fill="#9F8BE8" d="M481.709 421.797C485.137 425.756 489.476 428.286 494.365 430.04C518.449 438.683 544.488 420.922 565.078 410.223C577.262 403.961 589.55 397.902 601.937 392.049L602.103 392.242C602.498 394.526 597.823 404.423 596.549 406.976C591.36 409.878 585.768 412.184 580.514 415.015C571.612 419.812 563.117 425.387 554.824 431.161C536.976 443.587 514.095 464.494 510.233 486.943C508.545 496.757 509.892 508.743 515.881 516.983C519.704 522.242 525.678 525.343 532.037 526.283C538.306 527.209 545.092 526.532 551.291 525.424C581.487 520.031 610.534 509.019 639.417 499C660.794 491.585 695.998 481.165 713.621 467.762C726.519 457.953 735.402 440.321 737.479 424.415C738.534 416.332 736.457 410.557 731.557 404.281C732.787 402.343 734.242 400.569 735.655 398.763C736.91 399.132 738.153 399.538 739.384 399.979C762.568 408.344 787.971 433.551 802.364 453.188C808.947 462.249 814.649 471.918 819.393 482.064C795.178 498.252 768.106 511.718 741.516 523.483C669.255 556.415 592.946 579.619 514.584 592.488C476.608 598.893 436.389 603.464 397.892 599.936C412.538 569.797 428.428 540.279 445.522 511.458C450.947 502.29 456.819 493.413 462.565 484.446C466.704 477.987 471.291 471.473 474.198 464.344C476.149 459.558 476.998 453.641 474.809 448.785C472.446 443.543 467.396 440.825 462.327 438.762C468.452 432.687 475.003 427.211 481.709 421.797Z"/>
	<path fill="#504099" d="M694.335 414.215C696.988 415.933 699.872 417.027 703.022 417.409C711.866 418.484 719.932 414.111 726.693 408.919C729.644 410.254 731.442 414.061 732.754 416.854C732.457 421.597 731.814 426.089 730.55 430.678C725.897 447.567 716.634 460.791 701.21 469.385C684.65 478.613 665.262 484.342 647.387 490.614C630.419 496.684 613.335 502.425 596.144 507.834C578.546 513.457 559.673 519.608 541.21 521.35C537.681 521.683 534.555 521.43 531.14 520.408C525.45 518.706 521.071 515.082 518.43 509.749C514.013 500.828 514.407 489.982 517.409 480.733C520.598 475.836 532.849 472.71 538.317 470.729C537.579 474.579 536.611 478.862 537.106 482.795C537.571 486.481 539.531 489.234 542.436 491.466C553.733 500.147 579.673 501.659 593.386 499.896C603.694 498.57 622.875 495.523 629.492 486.431C631.555 483.596 632.387 480.221 631.715 476.768C630.403 470.028 624.607 466.35 619.421 462.671C618.753 458.317 617.852 454.419 616.166 450.338L694.335 414.215Z"/>
	<path fill="#FDFCFD" d="M569.094 428.126C576.34 423.159 584.586 419.111 592.39 415.06L592.675 415.567C591.471 418.455 590.139 421.359 589.112 424.313C587.966 427.614 587.487 431.383 589.188 434.59C591.451 438.858 595.735 439.951 599.994 441.232C592.483 445.087 584.528 445.452 576.246 445.052C573.284 444.555 569.722 444.076 567.095 442.579C566.916 440.829 571.505 438.368 571.866 435.367C572.192 432.654 570.629 430.194 569.094 428.126Z"/>
	<path fill="#9F8BE8" d="M630.831 426.2C637.856 427.445 643.337 427.155 650.35 426.102C655.705 423.809 659.74 421.721 664.129 417.901C666.935 418.073 669.675 418.105 672.485 418.012C665.607 421.535 658.557 425.512 651.331 428.264C639.811 434.893 626.807 440.202 614.234 444.506C611.363 441.035 608.716 438.77 604.789 436.554C608.138 436.565 611.476 436.566 614.793 436.049C621.901 434.943 626.678 431.951 630.831 426.2Z"/>
	<path fill="#9F8BE8" d="M525.144 469.784C524.18 469.978 524.689 469.984 523.623 469.676C523.663 469.521 523.689 469.362 523.743 469.212C526.349 461.906 545.49 444.4 551.919 439.731C555.947 436.805 560.159 434.546 564.635 432.385C565.508 432.799 565.933 433.033 566.474 433.844C565.468 436.343 559.874 436.632 557.603 438.213C551.331 442.574 550.154 453.427 548.74 460.409C540.993 464.03 533.282 467.144 525.144 469.784Z"/>
	<path fill="#FDFCFD" d="M559.81 443.651C561.059 444.901 562.331 446.261 563.796 447.256C570.737 451.97 582.815 451.785 590.805 450.411C596.307 449.466 601.165 447.711 604.481 442.989C606.555 444.16 608.137 445.777 609.381 447.802C611.676 451.538 615.91 465.896 614.214 469.911C613.329 472.008 610.562 473.703 608.608 474.624C594.552 481.255 574.881 480.704 560.488 475.61C558.162 474.448 555.748 473.251 554.877 470.614C552.454 463.277 556.383 450.374 559.81 443.651Z"/>
	<path fill="#FDFCFD" d="M439.823 463.179C444.238 456.939 450.08 450.283 456.511 446.084C459.47 445.702 462.412 445.547 465.201 446.813C467.325 447.778 468.891 449.474 469.642 451.69C471.007 455.715 469.835 460.221 468.105 463.932C464.304 472.082 458.609 479.842 453.789 487.44C447.844 496.972 442.011 506.572 436.292 516.239C420.294 542.957 405.778 571.098 392.302 599.179C387.306 598.53 382.326 597.759 377.368 596.869C373.1 596.069 368.887 595.204 364.679 594.133C368.591 583.951 373.353 574 377.796 564.031C382.821 552.754 387.659 541.308 393.037 530.199C394.293 531.362 395.572 532.655 396.989 533.618C398.628 534.73 400.43 535.072 402.354 534.59C410.524 532.544 419.781 516.836 424.151 509.735C431.211 498.265 443.128 477.016 439.823 463.179Z"/>
	<path fill="#D8D7F6" d="M0 497.185C8.7906 494.372 17.3764 490.626 26.003 487.334C38.8062 482.507 51.6612 477.819 64.5659 473.27C72.942 470.275 81.2551 466.805 90.0068 465.045C97.1083 463.616 104.445 462.924 111.678 463.594C126.86 465 142.284 469.835 157.029 473.675C187.88 481.892 218.677 490.305 249.421 498.914L279.921 507.583C285.866 509.274 291.984 511.328 298.069 512.4C307.589 527.146 315.479 542.685 311.533 560.737C310.325 566.205 308.343 571.473 305.646 576.38C304.454 578.516 302.94 580.569 301.951 582.803C301.401 584.046 301.28 584.978 301.454 586.311C302.236 587.288 302.305 587.362 303.498 587.723C305.958 587.072 307.329 584.813 308.52 582.709C317.233 567.324 320.564 551.687 315.54 534.45C313.513 527.497 310.146 521.502 306.436 515.34L350.094 527.823C361.22 531.081 372.472 534.723 383.787 537.235C372.387 563.532 360.397 589.571 348.779 615.773C345.072 624.134 336.091 641.601 334.766 649.57C335.625 651.366 337.232 652.06 339.043 652.673C348.849 655.994 365.603 657.098 376.168 658.243C464.618 667.828 559.196 647.602 643.073 620.459C685.896 633.371 728.587 646.715 771.14 660.49C833.187 680.792 894.665 702.754 956.545 723.538C975.923 730.047 995.246 736.978 1014.76 743.033C1016.39 743.54 1017.72 743.63 1019.38 743.29C1020.01 742.809 1020.65 742.344 1021.25 741.832C1022.33 741.414 1022.93 741.842 1024 742.171L1024 1024L664.998 1024C662.777 1014.02 659.207 1003.97 656.038 994.248C650.687 978.004 645.205 961.802 639.594 945.646C634.742 931.552 629.708 917.522 624.492 903.558C622.151 897.383 619.992 890.965 617.097 885.029C573.524 868.32 533.261 843.231 494.27 817.892C481.202 809.4 466.982 800.981 455.194 790.806C455.16 788.966 454.977 787.317 454.445 785.548C452.54 779.21 447.845 772.609 444.642 766.759C434.94 749.034 425.59 730.108 413.96 713.599C412.338 711.297 410.833 709.225 408.319 707.831C406.522 706.834 404.487 706.283 402.448 706.083C398.33 705.679 393.923 706.267 389.774 706.34C383.925 706.398 378.078 706.081 372.27 705.393C357.046 703.569 341.951 700.793 327.074 697.082C303.899 691.44 282.5 680.456 261.69 669.157C257.876 670.771 254.226 672.82 250.438 674.51C234.568 681.59 196.885 698.073 180.345 700.129C171.194 701.267 158.348 698.102 149.161 696.616C133.622 694.15 118.216 690.911 103 686.909C91.0664 683.781 79.3568 679.763 67.5136 676.308C62.6309 674.884 57.3858 673.057 52.3554 672.341C48.0405 671.727 43.5153 672.012 39.1974 672.444C25.3262 673.832 12.5001 680.208 0 685.982L0 497.185Z"/>
	<path fill="#504099" d="M405.139 481.656C413.27 475.671 424.438 471.767 433.709 467.936L434.294 468.138L434.644 468.969C432.556 488.032 418.79 509.901 406.911 524.846C404.676 527.658 402.831 529.365 399.217 529.78C398.881 529.22 398.517 528.667 398.278 528.056C395.461 520.846 402.085 489.582 405.139 481.656Z"/>
	<path fill="#FDFCFD" d="M625.248 483.247C625.066 483.446 624.888 483.649 624.7 483.844C617.148 491.677 594.085 494.85 583.626 495.101C574.014 495.332 552.345 493.466 545.344 486.36C543.537 484.546 542.598 482.041 542.767 479.486C543.067 475.492 543.985 470.535 547.069 467.797C548.127 470.049 548.263 472.658 549.712 474.789C553.313 480.086 563.075 482.749 569.026 483.872C582.306 486.38 603.218 485.845 614.702 477.741C618.071 475.364 619.04 473.596 619.78 469.588C622.034 471.223 624.284 472.884 625.495 475.476C626.698 478.049 626.145 480.686 625.248 483.247Z"/>
	<path fill="#504099" d="M362.238 599.073L363.352 599.346C409.047 610.44 457.807 606.486 503.861 599.637C522.217 597.04 540.483 593.844 558.629 590.053C646.983 571.037 743.595 534.844 820.761 487.925L821.55 488.274C822.86 490.62 823.417 493.191 824.104 495.769C815.272 504.273 780.166 521.516 767.514 527.926C738.802 542.471 708.569 554.425 678.296 565.276C599.977 593.35 518.083 613.583 434.653 616.711C410.675 617.61 383.648 618.043 360.616 610.516C359.647 610.189 359.071 609.954 358.331 609.239C357.937 605.735 360.622 602.042 362.238 599.073Z"/>
	<path fill="#FDFCFD" d="M355.304 614.64C357.312 615.259 359.329 615.845 361.354 616.399C389.605 624.078 420.953 623.054 449.935 621.264C520.551 616.903 589.853 600.69 656.876 578.574C687.396 568.665 717.368 557.142 746.666 544.054C769.521 533.637 791.526 521.924 813.314 509.45C815.835 514.347 818.507 526.407 819.939 532.215C819.126 532.909 818.313 533.565 817.434 534.174C797.851 547.754 775.602 558.52 754.298 569.15C725.174 583.58 695.214 596.254 664.576 607.105C565.36 643.209 452.243 667.151 346.872 648.806C344.863 648.439 342.888 647.754 340.933 647.171C345.865 636.394 350.383 625.429 355.304 614.64Z"/>
	<path d="M0 685.982C12.5001 680.208 25.3262 673.832 39.1974 672.444C43.5153 672.012 48.0405 671.727 52.3554 672.341C57.3858 673.057 62.6309 674.884 67.5136 676.308C79.3568 679.763 91.0664 683.781 103 686.909C118.216 690.911 133.622 694.15 149.161 696.616C158.348 698.102 171.194 701.267 180.345 700.129C196.885 698.073 234.568 681.59 250.438 674.51C254.226 672.82 257.876 670.771 261.69 669.157C282.5 680.456 303.899 691.44 327.074 697.082C341.951 700.793 357.046 703.569 372.27 705.393C378.078 706.081 383.925 706.398 389.774 706.34C393.923 706.267 398.33 705.679 402.448 706.083C404.487 706.283 406.522 706.834 408.319 707.831C410.833 709.225 412.338 711.297 413.96 713.599C425.59 730.108 434.94 749.034 444.642 766.759C447.845 772.609 452.54 779.21 454.445 785.548C454.977 787.317 455.16 788.966 455.194 790.806C466.982 800.981 481.202 809.4 494.27 817.892C533.261 843.231 573.524 868.32 617.097 885.029C619.992 890.965 622.151 897.383 624.492 903.558C629.708 917.522 634.742 931.552 639.594 945.646C645.205 961.802 650.687 978.004 656.038 994.248C659.207 1003.97 662.777 1014.02 664.998 1024L659.665 1024C650.439 992.907 639.737 961.984 628.655 931.5C624.038 918.799 619.014 906.245 614.506 893.508C614.009 892.016 613.619 890.348 612.269 889.401C606.521 885.369 591.511 880.264 583.975 876.598C570.208 869.902 557.159 862.095 543.567 855.162C541.543 853.193 538.142 851.681 535.657 850.25C518.339 875.305 504.429 915.312 497.546 944.81C493.966 960.151 491.713 975.755 489.822 991.384C489.061 997.675 488.981 1004.32 487.812 1010.52C487.476 1012.3 487.041 1013.95 485.991 1015.44L484.975 1015.5C483.709 1014.65 483.184 1013.99 482.851 1012.47C481.552 1006.54 483.753 995.739 484.483 989.281C488.563 949.874 499.164 911.419 515.854 875.488C520.278 865.859 524.989 856.131 530.486 847.068C504.802 831.828 477.364 814.866 453.587 796.898C443.65 820.469 431.06 842.832 416.061 863.553C410.923 870.568 405.354 877.315 399.956 884.133C396.714 888.228 392.908 892.285 390.645 897.019C386.739 905.185 384.631 915.371 382.069 924.112C374.972 948.322 368.33 972.759 360.497 996.733C358.706 1002.22 357.787 1008.19 355.51 1013.48C354.936 1014.82 354.407 1016.04 353.018 1016.59C352.274 1016.27 351.92 1016.32 351.538 1015.54C350.673 1013.78 351.058 1011.63 351.433 1009.78C353.572 999.223 357.919 988.812 360.93 978.43C367.545 954.767 374.462 931.19 381.679 907.703C376.438 912.809 372.389 921.48 366.153 925.054C362.162 925.367 359.858 916.697 358.505 913.519C353.527 902.058 348.217 890.745 342.579 879.595C332.742 859.698 322.962 837.805 304.887 823.99C303.238 830.804 301.655 837.635 300.139 844.48C288.03 896.775 269.078 948.204 247.862 997.427C245.88 1002.02 241.539 1015.81 237.387 1017.97C236.71 1018.32 236.482 1018.04 235.833 1017.8C235.108 1016.12 235.471 1014.48 235.937 1012.77C237.171 1008.25 239.542 1003.79 241.412 999.504C244.314 992.776 247.155 986.021 249.935 979.241C271.412 927.792 288.309 874.549 300.432 820.131C285.268 811.021 271.406 810.557 254.257 812.779C253.992 813.939 253.792 815.104 253.592 816.276C249.99 837.352 245.101 856.115 238.447 876.394C229.861 902.56 218.906 928.308 207.631 953.416C199.66 971.165 191.689 988.66 182.562 1005.85C180.487 1009.76 177.808 1017.49 174 1019.79C173.225 1020.26 172.464 1020.56 171.569 1020.38C170.847 1019.14 170.979 1018.1 171.405 1016.74C172.595 1012.93 180.21 999.637 182.596 994.859C194.834 970.199 206.094 945.066 216.351 919.519C227.002 893.301 237.121 866.547 243.809 839.007C245.812 830.757 247.132 822.341 248.553 813.975C226.227 821.498 205.569 832.569 185.013 843.907C175.034 849.412 164.947 854.786 155.281 860.827C151.347 872.518 145.781 884.026 140.679 895.26C125.216 929.568 107.463 962.798 87.5413 994.724C84.0641 1000.29 79.8163 1009.2 74.5603 1012.98C73.2671 1012.62 73.1565 1012.49 72.2596 1011.47C72.0154 1010.3 72.3959 1009.52 72.9274 1008.49C75.1882 1004.1 78.2863 999.916 80.93 995.73C85.0659 989.109 89.1226 982.439 93.099 975.721C113.849 940.72 131.564 903.717 147.704 866.387C144.425 868.192 140.64 870.514 136.879 870.95C135.947 870.458 136.121 870.791 135.884 869.908C134.474 864.637 146.888 779.487 149.077 767.87C151.103 757.597 153.582 747.419 156.505 737.365C160.024 725.682 164.939 715.389 171.568 705.181C165.258 704.35 158.954 703.463 152.659 702.523C103.35 751.591 67.3576 810.708 36.6596 872.652C30.2769 885.641 24.0335 898.698 17.9305 911.82C15.251 917.53 10.2306 930.555 6.45865 935.043C5.08268 935.498 4.87525 935.359 3.45856 934.958C2.97358 934.354 2.5599 934.097 2.52947 933.276C2.46164 931.445 13.7602 908.206 15.5274 904.365C50.9864 827.295 87.1359 763.659 146.046 701.721C133.284 699.188 120.514 697.118 107.886 693.898C100.266 691.961 92.6894 689.858 85.1609 687.592C71.9189 683.524 56.224 676.559 42.3541 677.57C27.0766 678.683 13.4831 685.71 0 692.395L0 685.982ZM262.701 676.679C259.79 684.636 257.66 692.665 255.908 700.943C268.085 707.066 280.2 713.483 292.823 718.65C324.798 731.738 365.253 739.598 399.804 737.843C402.693 735.117 404.476 720.312 404.612 716.037C404.669 714.258 404.774 712.46 403.709 710.996C397.139 710.432 390.44 711.887 383.796 711.529C357.164 710.094 329.691 705.012 304.743 695.45C296.68 692.359 288.412 689.11 280.643 685.351C274.766 682.507 268.984 678.513 262.701 676.679ZM255.039 678.473C230.268 688.568 205.483 700.693 179.113 706.021C173.908 711.692 169.914 717.789 166.755 724.819C162.506 734.276 159.935 744.598 157.553 754.659C149.103 790.361 146.872 826.851 141.205 862.987C149.053 858.808 156.474 853.964 164.137 849.469C187.844 835.486 227.128 812.991 253.449 807.845C262.363 806.102 271.155 807.101 279.955 805.857C279.741 802.894 275.161 797.414 273.443 794.612C267.568 785.029 261.86 774.892 257.216 764.643C252.912 755.147 249.83 745.072 248.736 734.683C246.999 718.191 249.304 700.499 254.347 684.729C254.756 683.452 256.667 679.159 255.865 678.389L255.039 678.473ZM255.101 706.164C248.66 744.844 264.691 770.416 284.527 801.673C304.796 784.08 319.933 781.534 345.476 779.115C353.761 778.331 362.456 777.098 370.083 773.584C383.559 766.703 392.237 756.97 398.955 743.483C359.109 743.645 319.392 736.7 282.884 720.391C273.358 716.136 264.48 710.663 255.101 706.164ZM410.71 718.323C408.144 738.823 400.841 758.482 383.995 771.438C353.413 794.958 323.546 773.391 286.791 807.314C323.329 821.753 338.049 857.536 354.249 890.356C358.577 899.48 362.386 908.803 366.546 917.998C371.846 910.817 377.624 904.026 383.154 897.027C406.292 867.742 428.511 839.806 443.781 805.384C445.845 800.732 450.199 793.446 449.271 788.285C448.604 784.572 413.814 721.644 410.71 718.323Z"/>
	<path fill="#504099" d="M255.908 700.943C257.66 692.665 259.79 684.636 262.701 676.679C268.984 678.513 274.766 682.507 280.643 685.351C288.412 689.11 296.68 692.359 304.743 695.45C329.691 705.012 357.164 710.094 383.796 711.529C390.44 711.887 397.139 710.432 403.709 710.996C404.774 712.46 404.669 714.258 404.612 716.037C404.476 720.312 402.693 735.117 399.804 737.843C365.253 739.598 324.798 731.738 292.823 718.65C280.2 713.483 268.085 707.066 255.908 700.943Z"/>
	<path fill="#9F8BE8" d="M0 692.395C13.4831 685.71 27.0766 678.683 42.3541 677.57C56.224 676.559 71.9189 683.524 85.1609 687.592C92.6894 689.858 100.266 691.961 107.886 693.898C120.514 697.118 133.284 699.188 146.046 701.721C87.1359 763.659 50.9864 827.295 15.5274 904.365C13.7602 908.206 2.46164 931.445 2.52947 933.276C2.5599 934.097 2.97358 934.354 3.45856 934.958C4.87525 935.359 5.08268 935.498 6.45865 935.043C10.2306 930.555 15.251 917.53 17.9305 911.82C24.0335 898.698 30.2769 885.641 36.6596 872.652C67.3576 810.708 103.35 751.591 152.659 702.523C158.954 703.463 165.258 704.35 171.568 705.181C164.939 715.389 160.024 725.682 156.505 737.365C153.582 747.419 151.103 757.597 149.077 767.87C146.888 779.487 134.474 864.637 135.884 869.908C136.121 870.791 135.947 870.458 136.879 870.95C140.64 870.514 144.425 868.192 147.704 866.387C131.564 903.717 113.849 940.72 93.099 975.721C89.1226 982.439 85.0659 989.109 80.93 995.73C78.2863 999.916 75.1882 1004.1 72.9274 1008.49C72.3959 1009.52 72.0154 1010.3 72.2596 1011.47C73.1565 1012.49 73.2671 1012.62 74.5603 1012.98C79.8163 1009.2 84.0641 1000.29 87.5413 994.724C107.463 962.798 125.216 929.568 140.679 895.26C145.781 884.026 151.347 872.518 155.281 860.827C164.947 854.786 175.034 849.412 185.013 843.907C205.569 832.569 226.227 821.498 248.553 813.975C247.132 822.341 245.812 830.757 243.809 839.007C237.121 866.547 227.002 893.301 216.351 919.519C206.094 945.066 194.834 970.199 182.596 994.859C180.21 999.637 172.595 1012.93 171.405 1016.74C170.979 1018.1 170.847 1019.14 171.569 1020.38C172.464 1020.56 173.225 1020.26 174 1019.79C177.808 1017.49 180.487 1009.76 182.562 1005.85C191.689 988.66 199.66 971.165 207.631 953.416C218.906 928.308 229.861 902.56 238.447 876.394C245.101 856.115 249.99 837.352 253.592 816.276C253.792 815.104 253.992 813.939 254.257 812.779C271.406 810.557 285.268 811.021 300.432 820.131C288.309 874.549 271.412 927.792 249.935 979.241C247.155 986.021 244.314 992.776 241.412 999.504C239.542 1003.79 237.171 1008.25 235.937 1012.77C235.471 1014.48 235.108 1016.12 235.833 1017.8C236.482 1018.04 236.71 1018.32 237.387 1017.97C241.539 1015.81 245.88 1002.02 247.862 997.427C269.078 948.204 288.03 896.775 300.139 844.48C301.655 837.635 303.238 830.804 304.887 823.99C322.962 837.805 332.742 859.698 342.579 879.595C348.217 890.745 353.527 902.058 358.505 913.519C359.858 916.697 362.162 925.367 366.153 925.054C372.389 921.48 376.438 912.809 381.679 907.703C374.462 931.19 367.545 954.767 360.93 978.43C357.919 988.812 353.572 999.223 351.433 1009.78C351.058 1011.63 350.673 1013.78 351.538 1015.54C351.92 1016.32 352.274 1016.27 353.018 1016.59C354.407 1016.04 354.936 1014.82 355.51 1013.48C357.787 1008.19 358.706 1002.22 360.497 996.733C368.33 972.759 374.972 948.322 382.069 924.112C384.631 915.371 386.739 905.185 390.645 897.019C392.908 892.285 396.714 888.228 399.956 884.133C405.354 877.315 410.923 870.568 416.061 863.553C431.06 842.832 443.65 820.469 453.587 796.898C477.364 814.866 504.802 831.828 530.486 847.068C524.989 856.131 520.278 865.859 515.854 875.488C499.164 911.419 488.563 949.874 484.483 989.281C483.753 995.739 481.552 1006.54 482.851 1012.47C483.184 1013.99 483.709 1014.65 484.975 1015.5L485.991 1015.44C487.041 1013.95 487.476 1012.3 487.812 1010.52C488.981 1004.32 489.061 997.675 489.822 991.384C491.713 975.755 493.966 960.151 497.546 944.81C504.429 915.312 518.339 875.305 535.657 850.25C538.142 851.681 541.543 853.193 543.567 855.162C557.159 862.095 570.208 869.902 583.975 876.598C591.511 880.264 606.521 885.369 612.269 889.401C613.619 890.348 614.009 892.016 614.506 893.508C619.014 906.245 624.038 918.799 628.655 931.5C639.737 961.984 650.439 992.907 659.665 1024L0 1024L0 804.688C24.3707 781.224 46.4299 750.461 62.4285 720.756C65.1556 715.693 68.6544 710.15 70.2921 704.633C70.806 702.902 71.0141 701.522 70.169 699.897L68.9023 699.807C65.1602 701.275 59.7557 714.084 57.6209 718.04C46.0252 739.528 33.029 758.506 17.6648 777.518C12.0953 784.41 6.56395 791.434 0 797.415L0 692.395ZM578.814 879.499C574.637 881.551 573.263 888.329 571.855 892.452C560.845 924.689 560.406 960.962 565.177 994.427C565.917 999.615 566.478 1007.67 568.715 1012.28C569.171 1013.21 569.688 1013.63 570.605 1014.07L572.033 1014.01C573.505 1012.17 573.363 1010.41 573.155 1008.14C572.767 1003.9 571.731 999.643 571.102 995.422C570.204 989.407 569.574 983.285 568.963 977.232C566.64 954.235 567.445 929.336 573.419 906.913C575.728 898.246 578.998 889.819 581.634 881.246L578.814 879.499ZM267.24 846.071C263.013 847.266 259.991 849.252 257.863 853.206C256.213 856.272 255.592 860.039 256.624 863.408C257.4 866.028 259.253 868.196 261.721 869.37C263.779 870.368 265.944 870.539 268.195 870.475C272.233 869.469 275.026 867.929 277.267 864.286C279.12 861.276 279.872 857.48 279.04 854.019C278.397 851.347 276.802 849.049 274.426 847.638C272.205 846.32 269.772 846.041 267.24 846.071ZM235.198 934.556C231.017 936.662 227.953 939.087 226.36 943.708C225.253 946.916 225.261 950.743 226.962 953.75C228.381 956.258 230.92 957.937 233.723 958.498C235.136 958.781 236.63 958.762 238.066 958.781C242.121 956.971 244.937 954.483 246.519 950.231C247.712 947.023 247.785 943.28 246.282 940.159C245.069 937.64 242.977 935.968 240.352 935.075C238.679 934.505 236.95 934.392 235.198 934.556Z"/>
	<path fill="#9F8BE8" d="M179.113 706.021C205.483 700.693 230.268 688.568 255.039 678.473L255.865 678.389C256.667 679.159 254.756 683.452 254.347 684.729C249.304 700.499 246.999 718.191 248.736 734.683C249.83 745.072 252.912 755.147 257.216 764.643C261.86 774.892 267.568 785.029 273.443 794.612C275.161 797.414 279.741 802.894 279.955 805.857C271.155 807.101 262.363 806.102 253.449 807.845C227.128 812.991 187.844 835.486 164.137 849.469C156.474 853.964 149.053 858.808 141.205 862.987C146.872 826.851 149.103 790.361 157.553 754.659C159.935 744.598 162.506 734.276 166.755 724.819C169.914 717.789 173.908 711.692 179.113 706.021Z"/>
	<path d="M0 797.415C6.56395 791.434 12.0953 784.41 17.6648 777.518C33.029 758.506 46.0252 739.528 57.6209 718.04C59.7557 714.084 65.1602 701.275 68.9023 699.807L70.169 699.897C71.0141 701.522 70.806 702.902 70.2921 704.633C68.6544 710.15 65.1556 715.693 62.4285 720.756C46.4299 750.461 24.3707 781.224 0 804.688L0 797.415Z"/>
	<path fill="#9F8BE8" d="M284.527 801.673C264.691 770.416 248.66 744.844 255.101 706.164C264.48 710.663 273.358 716.136 282.884 720.391C319.392 736.7 359.109 743.645 398.955 743.483C392.237 756.97 383.559 766.703 370.083 773.584C362.456 777.098 353.761 778.331 345.476 779.115C319.933 781.534 304.796 784.08 284.527 801.673Z"/>
	<path fill="#9F8BE8" d="M286.791 807.314C323.546 773.391 353.413 794.958 383.995 771.438C400.841 758.482 408.144 738.823 410.71 718.323C413.814 721.644 448.604 784.572 449.271 788.285C450.199 793.446 445.845 800.732 443.781 805.384C428.511 839.806 406.292 867.742 383.154 897.027C377.624 904.026 371.846 910.817 366.546 917.998C362.386 908.803 358.577 899.48 354.249 890.356C338.049 857.536 323.329 821.753 286.791 807.314Z"/>
	<path d="M268.195 870.475C265.944 870.539 263.779 870.368 261.721 869.37C259.253 868.196 257.4 866.028 256.624 863.408C255.592 860.039 256.213 856.272 257.863 853.206C259.991 849.252 263.013 847.266 267.24 846.071C269.772 846.041 272.205 846.32 274.426 847.638C276.802 849.049 278.397 851.347 279.04 854.019C279.872 857.48 279.12 861.276 277.267 864.286C275.026 867.929 272.233 869.469 268.195 870.475ZM267.685 851.47C265.012 852.512 263.302 853.823 262.134 856.515C261.355 858.308 261.011 860.414 261.794 862.265C262.354 863.589 263.38 864.482 264.707 864.996C265.778 865.41 266.755 865.4 267.887 865.39C270.917 863.863 272.841 862.288 273.846 858.925C274.294 857.423 274.279 855.714 273.498 854.317C272.513 852.555 270.893 851.936 269.018 851.626C268.249 851.499 268.341 851.518 267.685 851.47Z"/>
	<path fill="#504099" d="M267.887 865.39C266.755 865.4 265.778 865.41 264.707 864.996C263.38 864.482 262.354 863.589 261.794 862.265C261.011 860.414 261.355 858.308 262.134 856.515C263.302 853.823 265.012 852.512 267.685 851.47C268.341 851.518 268.249 851.499 269.018 851.626C270.893 851.936 272.513 852.555 273.498 854.317C274.279 855.714 274.294 857.423 273.846 858.925C272.841 862.288 270.917 863.863 267.887 865.39Z"/>
	<path d="M581.634 881.246C578.998 889.819 575.728 898.246 573.419 906.913C567.445 929.336 566.64 954.235 568.963 977.232C569.574 983.285 570.204 989.407 571.102 995.422C571.731 999.643 572.767 1003.9 573.155 1008.14C573.363 1010.41 573.505 1012.17 572.033 1014.01L570.605 1014.07C569.688 1013.63 569.171 1013.21 568.715 1012.28C566.478 1007.67 565.917 999.615 565.177 994.427C560.406 960.962 560.845 924.689 571.855 892.452C573.263 888.329 574.637 881.551 578.814 879.499L581.634 881.246Z"/>
	<path d="M238.066 958.781C236.63 958.762 235.136 958.781 233.723 958.498C230.92 957.937 228.381 956.258 226.962 953.75C225.261 950.743 225.253 946.916 226.36 943.708C227.953 939.087 231.017 936.662 235.198 934.556C236.95 934.392 238.679 934.505 240.352 935.075C242.977 935.968 245.069 937.64 246.282 940.159C247.785 943.28 247.712 947.023 246.519 950.231C244.937 954.483 242.121 956.971 238.066 958.781ZM236.604 939.899C234.01 941.214 232.334 942.656 231.386 945.486C230.807 947.216 230.763 949.1 231.658 950.737C232.717 952.676 234.436 953.368 236.495 953.803C239.259 952.179 241.159 950.358 241.908 947.128C242.272 945.562 242.087 943.921 241.201 942.559C240.057 940.8 238.524 940.343 236.604 939.899Z"/>
	<path fill="#504099" d="M236.495 953.803C234.436 953.368 232.717 952.676 231.658 950.737C230.763 949.1 230.807 947.216 231.386 945.486C232.334 942.656 234.01 941.214 236.604 939.899C238.524 940.343 240.057 940.8 241.201 942.559C242.087 943.921 242.272 945.562 241.908 947.128C241.159 950.358 239.259 952.179 236.495 953.803Z"/>
</svg>
