<?xml version="1.0" encoding="utf-8" ?>
<svg xmlns="http://www.w3.org/2000/svg" xmlns:xlink="http://www.w3.org/1999/xlink" width="1024" height="1024">
	<path fill="#9F8BE8" d="M0 0L90.5646 0L90.4894 723.765L90.5912 903C90.4944 935.097 90.5896 967.194 90.8767 999.29C81.1397 1002.03 21.3378 1018.34 17.9674 1020.92C17.3786 1022.05 17.6323 1022.79 17.8311 1024L0 1024L0 0Z"/>
	<path d="M90.5646 0L96.706 0L96.4958 997.915C146.817 984.449 196.602 968.841 246.636 954.368L535.396 870.783C534.978 833.771 535.392 796.732 535.449 759.717L535.202 605.543C535.182 598.985 536.152 590.974 534.885 584.621C532.239 571.358 518.638 554.303 530.664 541.692C531.922 540.373 533.323 539.435 534.9 538.548C533.851 519.414 534.603 499.92 534.625 480.741L534.879 369.95L535.019 0L540.712 0C541.147 46.8378 541.244 93.6782 541.003 140.517L540.757 352.278L540.519 455.408C540.544 478.308 541.085 501.34 540.035 524.221C550.5 499.316 560.799 483.908 580.416 465.153C578.428 459.18 576.948 453.701 577.554 447.359C578.478 437.697 583.033 429.22 585.584 420.002C588.677 408.827 590.111 396.795 591.477 385.301C594.302 361.537 594.987 337.59 595.908 313.695C596.682 291.087 597.926 268.498 599.638 245.942C601.589 221.422 602.994 191.021 614.144 168.774C621.988 153.122 637.317 148.065 651.433 139.424C639.857 128.747 628.192 118.094 615.935 108.197C611.968 109.725 606.006 112.259 601.822 110.519C599.188 109.424 597.993 106.91 597.007 104.387C592.518 92.8901 592.213 79.8166 585.291 69.0774C581.558 63.2873 574.723 60.1843 569.394 56.0802C554.611 44.6949 550.077 23.4895 553.038 5.73369C551.855 3.84513 550.517 1.9584 549.464 0L555.354 0C561.45 9.54337 572.39 15.9597 583.275 18.4137C595.564 21.1845 609.208 20.2263 621.717 19.4443C619.98 15.1682 618.676 9.81644 620.593 5.36948C621.359 3.5902 622.64 2.17507 624.483 1.49822C627.521 0.382623 630.861 1.5695 633.589 2.96696C643.37 7.97837 648.666 18.2147 656.591 25.4737C672.601 40.1389 694.532 48.3954 715.911 50.5326C722.291 51.1704 728.743 51.572 734.95 49.6703C738.557 48.5648 741.997 46.9864 745.546 45.7174C752.358 43.2821 759.418 43.3581 766.55 43.5252C775.383 30.295 780.224 18.6534 776.928 2.67991C776.74 1.77914 776.52 0.88528 776.269 0L782.495 0C786.43 17.3245 783.555 28.2959 774.125 43.2616L772.505 45.805C783.19 52.8845 792.933 61.2652 802.212 70.0872C805.678 73.3828 808.597 77.9773 812.528 80.6108C830.953 92.9558 851.511 101.703 870.042 113.99C878.944 119.892 886.813 126.605 894.954 133.468C897.881 135.935 901.595 138.443 903.914 141.484C909.012 148.167 911.543 158.1 914.553 165.953C918.411 176.02 922.508 185.968 926.03 196.165C934.164 219.714 940.259 243.456 945.21 267.861C947.552 279.409 949.086 291.148 950.594 302.831C955.581 341.465 957.778 380.677 953.157 419.456C952.328 426.41 951.746 436.772 947.769 442.597C943.05 449.508 894.536 470.12 884.024 473.49C886.079 488.666 891.721 502.495 896.31 516.984C900.068 528.846 903.208 541.016 906.181 553.097C917.582 599.431 923.622 647.423 916.277 694.91C912.941 716.474 907.346 737.558 904.288 759.19C917.622 756.049 930.693 751.896 943.846 748.085C961.364 743.171 978.852 738.151 996.309 733.024C1005.47 730.322 1014.75 726.997 1024 724.696L1024 731.62C996.702 739.118 969.479 746.886 942.334 754.921C929.528 758.636 916.674 762.966 903.717 766.066C901.977 774.069 901.738 782.618 901.207 790.783C900.181 807.242 899.483 823.719 899.111 840.206C897.444 901.474 898.272 962.72 898.497 1024L891.813 1024L891.458 916.611C891.334 874.546 891.403 832.345 894.704 790.383C895.932 774.78 897.631 758.982 900.35 743.564C903.357 726.511 907.599 709.717 910.352 692.591C913.287 673.377 914.111 653.9 912.811 634.507C910.353 598.297 903.057 561.982 893.089 527.128C888.351 510.557 881.378 495.08 878.501 477.95C867.951 481.902 857.256 484.504 846.274 486.913C848.384 496.097 851.244 505.08 853.338 514.27C866.569 572.332 877.986 640.554 856.332 697.984C849.402 716.363 838.824 733.645 826.976 749.246C820.119 758.275 812.441 766.57 805.938 775.885C787.758 801.927 774.796 835.771 767.058 866.427C763.964 878.686 764.557 897.678 764.005 910.847C762.192 948.538 761.276 986.266 761.257 1024L754.949 1024C754.206 981.027 756.846 938.099 757.996 895.166C748.828 919.68 741.786 944.935 734.192 969.965C728.755 987.883 722.483 1005.8 718.119 1024L711.5 1024C714.221 1013.56 717.699 1003.3 720.714 992.941C730.258 960.145 740.446 927.739 750.938 895.235C762.403 859.717 771.765 822.82 789.888 789.917C801.135 769.497 814.663 756.085 827.67 737.503C834.886 727.195 841.892 716.453 846.936 704.894C870.107 651.802 862.196 586.301 850.953 531.175C848.018 516.781 843.434 502.732 840.896 488.271C829.815 490.582 818.331 491.825 807.083 493.053C768.02 497.318 727.643 498.546 688.795 491.86C676.832 520.869 667.087 533.881 642.719 553.609C640.285 566.752 640.048 580.841 639.966 594.171C639.907 603.726 639.934 613.427 640.484 622.97C640.75 627.579 641.647 632.339 641.626 636.935C641.619 638.39 641.58 639.664 641.062 641.042C640.002 641.969 639.882 642.018 638.486 642.201C637.686 641.885 637.047 641.805 636.507 641.09C634.464 638.382 635.082 632.859 634.834 629.507C633.017 605.958 633.123 582.299 635.153 558.766C632.039 560.881 628.815 562.681 625.505 564.469C620.756 586.599 618.065 609.25 614.571 631.596C607.004 678.357 600.364 725.264 594.654 772.289C585.061 844.576 577.742 917.148 572.708 989.896C571.996 1001.26 570.851 1012.63 570.393 1024L564.507 1024C564.576 1011.88 566.047 999.627 566.84 987.531C568.247 965.081 569.952 942.652 571.956 920.248C573.655 901.847 575.818 883.478 577.228 865.052C566.069 867.963 555.003 871.566 543.918 874.779L465.499 897.599L216.799 969.597C178.693 980.727 140.554 992.014 102.296 1002.6L55.5638 1015.92C46.3942 1018.5 36.6591 1020.57 27.78 1024L17.8311 1024C17.6323 1022.79 17.3786 1022.05 17.9674 1020.92C21.3378 1018.34 81.1397 1002.03 90.8767 999.29C90.5896 967.194 90.4944 935.097 90.5912 903L90.4894 723.765L90.5646 0ZM556.673 580.597L555.518 581.22C553.238 579.7 550.919 578.214 549.023 576.213C542.642 569.479 536.457 556.081 534.611 546.982L534.167 546.719C532.475 548.587 531.729 551.744 531.855 554.228C532.221 561.482 536.902 577.223 542.353 582.081C546.047 585.372 551.313 586.912 555.89 588.596C559.28 589.553 562.511 590.435 566.029 590.756C571.227 593.666 576.126 597.221 581.12 600.472C590.758 606.676 600.337 612.972 609.854 619.359C613.646 602.672 615.507 585.498 618.831 568.701C598.346 578.927 579.355 582.417 556.673 580.597ZM625.695 6.36835C624.499 8.19473 624.051 9.51048 624.452 11.7079C625.255 16.1071 628.538 20.0704 630.526 24.0145C607.9 27.8047 582.145 29.5434 562.589 15.601C561.009 14.4904 559.474 13.316 557.989 12.0806C558.86 26.4094 559.966 40.7555 571.586 50.8305C573.858 52.7999 576.554 54.506 579.123 56.0653C579.705 53.4708 580.541 49.3683 582.897 47.7042C583.511 47.2706 583.616 47.2703 584.241 47.0408C585.228 47.546 585.107 47.2428 585.438 48.1659C586.672 51.6015 584.755 55.1223 583.505 58.2759C592.361 68.1805 596.477 79.0679 599.733 91.8131C600.635 95.3445 601.21 99.8438 602.969 103.005C603.916 104.708 605.06 105.328 606.98 105.413C608.383 105.475 609.972 105.248 611.068 104.302C611.208 104.182 611.32 104.032 611.445 103.897C611.269 101.451 608.391 99.2585 610.077 97.0696C611.936 96.8782 612.546 97.3777 613.996 98.5457C618.744 102.37 623.263 106.684 627.863 110.696C637.403 118.972 646.846 127.359 656.19 135.855C661.904 132.942 667.644 130.075 673.246 126.952C672.924 124.149 672.533 121.342 672.533 118.517C672.162 106.225 671.993 93.9283 672.025 81.6312C671.995 76.3143 671.424 70.7543 671.948 65.4676C672.121 63.7247 672.32 61.9808 673.419 60.5571C674.313 60.15 674.08 60.0273 674.877 60.3485C675.904 60.7621 676.299 61.3677 676.987 62.1951C678.361 67.4261 677.565 74.7082 677.686 80.249C677.931 91.5114 678.598 102.92 678.18 114.181C688.881 91.6006 702.846 72.4241 722.581 56.836C695.629 55.4219 675.984 48.7933 655.045 31.6583C654.765 34.8826 653.847 38.1672 651.159 40.2654C649.598 41.4837 647.62 41.7257 645.714 41.3812C642.942 40.8799 639.767 39.1788 638.203 36.7682C637.641 35.9025 637.467 35.2663 637.576 34.253C638.513 33.3593 638.579 33.369 639.871 33.2098C642.425 34.4268 645.134 36.7157 648.064 35.7363C649.113 34.5128 649.483 33.6464 649.372 32.0039C648.869 24.6008 640.381 14.9613 634.769 10.4966C631.89 8.20581 629.302 7.0283 625.695 6.36835ZM757.859 49.184C735.873 51.6302 717.033 66.7453 703.64 83.6076C693.738 96.0749 686.032 110.128 679.758 124.713C689.469 120.215 698.299 114.373 707.121 108.367C741.579 85.1355 758.231 78.9926 800.147 76.9405C791.378 67.8462 773.475 49.4686 760.8 49.061C759.804 49.029 758.849 49.0876 757.859 49.184ZM784.62 83.6983C771.571 85.0778 758.728 87.482 746.586 92.6351C726.618 101.11 710.023 115.123 691.277 125.727C677.99 133.244 664.19 139.904 650.647 146.95C644.134 150.338 637.282 153.583 631.188 157.68C641.612 161.077 650.712 165.236 660.267 170.585C676.182 160.416 700.611 150.543 718.539 144.522C767.083 128.407 807.189 122.689 858.022 129.002C868.084 130.252 877.728 134.116 887.656 135.18C864.766 115.944 837.649 100.366 809.855 89.4186C802.391 86.4791 793.748 82.7874 785.586 83.5915C785.263 83.6232 784.942 83.6627 784.62 83.6983ZM814.685 132.22C761.431 134.319 712.136 149.876 665.146 174.537C671.678 179.961 678.178 185.419 683.864 191.752C703.531 213.655 717.649 244.897 720.354 274.231C723.598 309.42 717.008 354.834 711.543 389.952C708.934 406.719 706.413 423.722 702.814 440.31L702.621 442.524C704.154 444.134 706.218 444.093 708.338 444.167C742.117 445.538 775.951 444.307 809.54 440.484C823.524 438.865 837.784 436.942 851.475 433.614C857.189 413.221 859.989 391.669 861.888 370.62C867.899 304.003 864.033 234.188 843.254 170.337C839.337 158.3 834.808 145.493 828.63 134.425C828.246 133.736 827.842 133.081 827.418 132.416C823.155 132.199 818.952 132.092 814.685 132.22ZM834.911 133.429C870.633 202.133 876.235 315.748 865.832 391.6C863.962 405.236 861.076 418.569 857.775 431.918C864.761 430.484 871.223 428.351 877.736 425.446C880.497 420.697 882.923 415.761 884.997 410.674C895.813 384.068 905.089 356.274 910.886 328.12C920.889 279.531 923.215 201.999 903.758 155.299C902.251 151.682 900.527 148.455 898.254 145.264L897.615 145.127C891.003 143.658 884.641 141.143 878.084 139.426C863.885 135.707 849.561 134.064 834.911 133.429ZM624.668 163.417C617.611 172.83 614.127 184.472 611.718 195.84C607.267 216.853 606.174 238.925 604.896 260.339C602.347 303.02 602.124 346.129 596.955 388.582C595.731 398.639 594.291 408.665 591.941 418.529C589.112 430.402 581.693 442.578 583.438 455.06C583.823 457.811 584.511 460.63 585.578 463.199C589.029 471.508 602.838 492.404 598.624 501.663C597.764 502.372 597.204 503.022 595.966 502.82C594.838 502.635 594.001 502.114 593.531 501.082C592.339 498.469 592.717 494.043 592.27 491.171C591.224 484.445 586.348 476.545 582.607 470.942C566.133 487.041 557.231 500.022 547.467 520.786C544.332 527.454 541.226 533.54 541.186 541.1C541.163 545.247 541.5 549.537 542.347 553.598C573.573 553.084 602.237 547.189 630.394 533.342C635.326 530.916 654.896 518.927 658.876 520.143C659.322 521.11 659.657 521.585 659.146 522.663C656.877 527.45 629.045 540.927 622.844 543.51C595.75 554.708 574.402 558.249 545.306 559.462C548.097 565.178 551.128 571.786 557.538 574.13C571.502 579.235 601.686 570.195 614.38 563.949C649.021 546.903 672.744 520.566 685.071 484.008C697.197 448.045 703.671 406.035 708.792 368.368C712.943 337.836 717.766 304.47 714.288 273.749C712.398 257.067 706.925 240.57 699.416 225.569C686.661 200.088 664.356 174.964 636.659 165.877C632.902 164.645 628.643 163.397 624.668 163.417ZM922.611 206.913L922.625 207.485C922.854 214.964 924.229 222.383 924.429 229.868C925.472 268.951 922.614 306.74 913.135 344.773C908.86 361.935 903.709 378.867 897.703 395.503C895.548 401.322 893.284 407.156 890.832 412.855C888.782 417.621 885.565 422.694 884.734 427.822C883.995 432.379 884.353 437.313 884.373 441.929C884.45 450.221 884.474 458.513 884.446 466.805C890.436 464.298 896.383 461.686 902.282 458.972C910.861 455.136 935.932 445.245 941.655 439.512C942.784 438.38 943.506 436.595 944.039 435.122C947.151 426.534 947.398 415.448 948.049 406.344C952.186 348.491 944.728 282.826 929.011 227.034C927.292 220.933 925.934 213.069 923.022 207.542C922.905 207.321 922.748 207.123 922.611 206.913ZM877.263 433.535L869.502 436.136C869.46 441.058 868.355 471.001 869.962 473.372L870.353 473.453L877.949 471.185C877.954 466.229 877.237 438.775 878.73 436.453L877.845 436.189L877.959 434.018C877.736 433.845 877.543 433.571 877.263 433.535ZM861.898 438.137C825.422 446.014 786.75 450.484 749.392 450.577C749.409 456.35 748.631 485.819 749.893 489.435L750.612 489.811C788.265 489.335 826.392 487.471 862.618 476.166C862.479 468.523 862.465 460.878 862.575 453.235C862.632 448.98 863.705 442.418 862.692 438.419L861.898 438.137ZM700.829 449.798C698.124 462.024 694.87 474.123 691.078 486.058C705.368 488.096 720.313 489.548 734.75 489.509L742.727 489.588C743.638 476.767 742.467 463.612 742.875 450.715C728.854 451.142 714.819 450.836 700.829 449.798ZM540.884 588.903L541.038 869.174C553.529 865.737 565.956 862.073 578.313 858.183L580.429 839.761C582.405 818.935 585.275 798.124 587.874 777.367C594.027 726.831 601.19 676.424 609.358 626.175C595.661 617.962 583.176 607.126 569.126 599.64C564.446 597.147 559.035 596.137 554.024 594.476C549.475 592.969 545.184 590.997 540.884 588.903Z"/>
	<path fill="#9F8BE8" d="M96.706 0L120.166 0C118.131 6.78226 119.44 39.6473 119.441 48.9818C119.216 89.6169 119.252 130.253 119.547 170.888L119.518 713.28L119.493 883.564C119.488 906.968 118.588 930.543 119.124 953.921C119.176 956.188 119.139 959.725 120.072 961.786C120.194 962.054 120.399 962.276 120.562 962.521C130.055 960.327 139.432 957.316 148.797 954.628L203.191 938.903L339.686 900.524L460.217 866.419L494.044 856.742C500.419 854.926 507.026 853.358 513.272 851.151L513.002 0L535.019 0L534.879 369.95L534.625 480.741C534.603 499.92 533.851 519.414 534.9 538.548C533.323 539.435 531.922 540.373 530.664 541.692C518.638 554.303 532.239 571.358 534.885 584.621C536.152 590.974 535.182 598.985 535.202 605.543L535.449 759.717C535.392 796.732 534.978 833.771 535.396 870.783L246.636 954.368C196.602 968.841 146.817 984.449 96.4958 997.915L96.706 0Z"/>
	<path d="M120.166 0L124.454 0C125.415 19.8658 124.671 39.7461 124.949 59.6208C139.968 51.1808 154.552 42.1628 169.368 33.396C187.883 22.4405 206.566 11.6693 224.647 0L236.194 0C230.069 4.45757 223.34 8.20009 216.842 12.0918L186.556 30.1828C166.026 42.4223 145.857 55.5044 124.918 67.0303L125.011 156.157L302.278 53.6849C321.589 42.5701 340.84 31.3528 360.032 20.0333C371.511 13.4085 383.441 7.22329 394.548 0L406.614 0C386.794 11.8803 366.657 23.1798 346.686 34.7965L236.338 98.8081L166.384 139.37C152.79 147.269 139.307 155.456 125.466 162.909C124.41 215.076 124.873 267.398 125.001 319.579L125.238 369.877C125.207 382.696 124.722 395.646 125.404 408.446C130.152 398.247 134.057 387.705 139.046 377.59C151.626 352.079 166.073 327.418 180.531 302.941C187.9 290.467 203.447 263.079 213.457 254.058C225.211 243.463 241.667 232.918 255.209 224.542C259.684 221.774 265.533 219.63 269.502 216.289C272.749 213.556 274.848 209.396 277.023 205.82C281.425 198.583 287.505 189.035 295.298 185.112C298.552 185.396 301.761 185.768 304.992 186.252L308.497 182.727C302.199 165.603 299.909 151.902 307.734 134.78C310.797 128.079 314.682 121.535 319.414 115.873C331.079 101.915 352.384 87.0598 369.573 80.8285C383.788 75.6755 398.706 77.7978 412.137 84.1551C430.178 92.6945 447.213 109.766 457.405 126.843C463.412 136.909 467.999 147.668 473.368 158.06C476.914 164.924 482.651 171.689 485.041 178.996C486.277 182.778 485.336 185.877 483.477 189.285C474.682 205.4 446.305 211.123 431.604 220.978C420.888 228.162 425.744 247.309 416.286 249.538C412.031 250.541 406.404 248.144 402.443 246.676C396.318 254.886 387.846 261.927 380.189 268.739C382.922 271.183 387.151 274.247 387.207 278.307C387.236 280.395 385.992 282.309 384.554 283.717C383.07 285.169 381.34 286.544 379.677 287.789C382.581 295.282 385.876 302.818 387.475 310.718C393.124 338.629 384.094 368.252 387.345 396.777C388.519 406.538 390.392 416.203 392.947 425.697C396.824 440.104 400.897 447.393 399.515 462.959C423.48 474.908 436.883 488.402 450.021 511.58C452.194 515.412 455.406 519.193 456.81 523.369C457.897 526.6 457.082 530.326 455.584 533.295C451.942 540.514 443.952 546.01 436.338 548.289C432.956 549.302 429.454 549.621 425.971 550.111C423.214 556.498 421.565 563.444 419.769 570.152C409.573 608.24 407.8 647.926 403.328 686.974C398.36 734.509 391.661 781.848 383.247 828.896C379.902 847.543 376.946 866.419 372.068 884.738C417.341 872.514 462.484 859.815 507.49 846.642L506.838 262.033C506.789 174.705 507.789 87.3195 506.758 0L513.002 0L513.272 851.151C507.026 853.358 500.419 854.926 494.044 856.742L460.217 866.419L339.686 900.524L203.191 938.903L148.797 954.628C139.432 957.316 130.055 960.327 120.562 962.521C120.399 962.276 120.194 962.054 120.072 961.786C119.139 959.725 119.176 956.188 119.124 953.921C118.588 930.543 119.488 906.968 119.493 883.564L119.518 713.28L119.547 170.888C119.252 130.253 119.216 89.6169 119.441 48.9818C119.44 39.6473 118.131 6.78226 120.166 0ZM339.15 279.573C336.711 273.463 332.959 267.458 329.865 261.632C322.384 247.499 314.687 233.481 306.776 219.584C303.276 213.356 299.095 206.987 296.389 200.381C295.767 198.861 295.455 197.783 295.721 196.126C297.203 194.36 300.576 192.533 301.359 190.631C299.787 190.153 298.586 190.332 297.146 191.069C290.385 194.527 279.683 211.38 276.934 218.445C278.83 224.069 281.319 229.461 283.243 235.073C287.881 248.846 291.246 263.016 293.296 277.404C304.942 273.258 317.869 271.454 329.422 276.952C332.857 278.587 335.707 280.706 338.53 283.231C343.852 290.061 347.485 297.391 349.795 305.741C352.001 313.715 352.649 321.993 353.296 330.21C355.485 358.021 352.772 386.061 356.857 413.683C359.246 429.833 365.965 444.713 371.977 459.738C373.329 463.118 376.318 475.972 377.601 477.334C379.117 477.544 379.898 477.613 381.391 477.104C383.164 473.912 370.822 421.078 369.422 411.349C365.691 385.421 366.4 359.232 364.433 333.158C363.939 326.608 364.181 318.644 362.411 312.412C361.336 311.963 360.197 311.467 359.41 310.578C357.038 307.895 355.31 304.153 353.333 301.123C348.631 293.917 343.752 286.848 339.15 279.573ZM379.262 83.624L377.496 84.2593L377.716 84.8618C382.733 87.0346 388.466 87.1478 393.491 89.4376C417.388 100.327 433.425 121.87 442.845 145.8C445.036 151.365 446.793 157.477 449.533 162.781C454.384 172.173 461.951 173.336 456.642 186.004C451.653 197.909 439.027 205.322 430.77 214.798C435.523 212.233 440.352 209.812 445.25 207.537C457.685 201.759 472.886 195.695 480.93 184.036C477.517 175.865 472.203 168.894 468.136 161.086C462.996 151.219 458.877 140.842 453.369 131.155C443.393 113.613 426.117 96.3827 407.321 88.5748C398.138 84.7605 389.182 83.2166 379.262 83.624ZM366.344 89.0918C360.547 90.8699 355.663 94.031 350.594 97.2782C336.888 106.059 324.66 115.901 316.849 130.491C309.49 144.237 306.482 157.973 311.124 173.19C313.021 179.41 315.826 186.046 320.011 191.077C324.016 189.339 327.9 186.838 331.394 184.225C332.033 176.881 333.89 169.043 339.678 163.977C342.357 161.632 345.793 159.973 349.426 160.243C352.001 160.416 354.384 161.668 355.986 163.692C359.895 168.613 357.99 178.767 358.602 179.426C358.949 179.8 359.972 180.252 360.461 180.504C378.883 187.942 394.299 188.426 412.767 180.618C419.239 177.832 425.426 174.426 431.242 170.447C435.034 167.892 438.793 164.884 442.864 162.81C433.067 135.33 419.956 108.723 392.232 95.5588C384.523 91.8985 374.945 88.9562 366.344 89.0918ZM346.128 165.893C341.405 169.114 338.851 173.691 337.76 179.279C336.973 183.314 336.973 188.082 339.511 191.542C341.738 194.579 347.478 193.488 346.943 198.133C346.841 199.016 346.695 199.517 346.198 200.254C344.827 200.881 343.835 200.752 342.423 200.222C337.691 198.449 334.797 195.474 332.202 191.279L331.573 191.535C328.206 192.939 322.093 197.988 318.589 196.722C315.427 195.579 313.374 191.276 311.641 188.621C309.221 193.103 306.89 196.389 303.062 199.766C307.402 209.462 313.693 218.397 318.734 227.765C332.061 252.528 344.288 278.1 360.633 301.038C359.905 289.136 359.01 274.493 354.139 263.6C351.956 258.72 346.915 255.04 343.76 250.73C340.544 246.337 327.271 222.474 330.473 217.72C331.67 217.483 332.232 217.514 333.252 218.27C336.408 220.611 337.369 224.63 338.619 228.143C343.779 240.556 355.716 261.159 368.769 266.591C369.692 266.975 370.52 267.153 371.523 267.197C375.165 265.509 386.038 256.476 388 253.315L387.832 252.721C387.427 251.241 387.111 250.228 387.502 248.689C388.262 247.579 388.674 247.203 389.92 246.69L390.749 246.844C392.433 247.145 394.178 247.578 395.724 246.595C398.566 244.786 398.724 241.319 403.027 241.476C405.289 241.559 414.011 244.544 415.215 243.453C417.149 241.699 420.787 224.639 422.62 220.414C424.546 215.973 426.81 211.582 429.881 207.815C438.049 197.799 449.009 191.47 452.678 178.228C450.962 173.994 448.381 170.833 445.111 167.71C424.274 181.919 402.611 196.171 376.101 191.338C368.766 190.001 358.149 187.704 352.968 182.075C353.119 178.097 354.744 170.594 351.78 167.573C350.215 165.976 348.222 165.929 346.128 165.893ZM270.586 222.856C253.55 232.395 237.247 243.187 221.81 255.142C237.829 261.133 248.223 270.159 255.324 285.888C265.23 307.829 265.659 336.444 257.102 358.887C250.428 376.389 236.613 389.615 221.42 400.05C223.74 413.5 226.216 427.206 227.673 440.774C239.578 451.118 255.127 466.344 270.442 470.508C276.685 472.206 283.684 472.459 290.121 473.098C316.676 475.681 343.33 477.12 370.008 477.412C368.101 464.354 362.412 452.732 357.84 440.512C354.867 432.552 352.576 424.355 350.99 416.008C349.159 406.314 348.47 396.463 348.273 386.613C347.776 361.65 352.767 300.889 330.872 284.843C323.834 279.685 314.353 278.833 305.981 280.311C302.291 280.962 292.712 285.368 289.871 283.49C289.113 282.989 288.759 282.367 288.494 281.514C286.766 275.949 286.1 269.779 284.854 264.067C282.57 253.196 279.481 242.509 275.612 232.096C274.755 229.743 272.914 223.861 270.586 222.856ZM215.725 260.341C200.004 281.054 186.957 303.713 173.959 326.188C160.307 349.794 147.114 373.13 136.587 398.358C132.801 407.43 128.995 416.782 126.786 426.39C125.544 431.789 125.423 437.899 125.619 443.425C140.302 464.537 197.386 496.489 221.373 508.834C222.405 492.809 227.689 478.295 239.901 467.433C241.536 465.978 243.296 464.692 245.073 463.419C230.47 452.042 215.387 439.922 202.402 426.723C191.464 426.036 181.183 427.345 171.876 433.555C169.133 435.649 166.822 438.085 163.154 437.784C162.551 437.358 162.09 437.296 161.994 436.496C161.792 434.83 162.913 433.177 163.979 431.993C171.073 424.111 185.907 420.83 196.051 420.364C188.18 415.068 179.94 410.647 170.264 410.045C167.252 409.857 163.539 410.5 160.65 409.617C159.114 409.148 158.995 408.375 158.624 407.006C159.092 405.574 159.153 405.129 160.506 404.299C164.996 401.545 180.777 405.607 185.602 407.528C191.44 409.852 196.706 413.61 201.414 417.71C206.568 407.581 211.497 397.329 216.698 387.228C224.252 372.554 232.085 357.985 238.452 342.74C240.533 337.758 241.987 327.928 247.001 325.48L247.783 325.509C248.863 326.866 248.775 328.402 248.617 330.056C247.163 345.37 228.326 377.575 220.876 391.857C238.81 380.101 250.728 364.668 255.07 343.502C259.391 322.445 256.681 297.402 244.529 279.261C238.09 269.476 227.98 262.701 216.482 260.465C216.231 260.419 215.979 260.375 215.725 260.341ZM362.584 269.768C364.21 278.545 365.565 287.221 365.627 296.175C367.819 292.683 369.949 289.148 372.515 285.914C375.177 283.181 378.175 280.558 380.644 277.668C378.948 275.969 377.378 274.341 375.996 272.362C370.437 273.386 367.478 272.261 362.584 269.768ZM374.606 292.317C372.255 296.467 369.362 301.193 368.666 305.979C367.588 313.398 370.543 331.325 371.145 339.834C372.33 356.609 371.925 373.473 373.23 390.214C374.782 410.123 379.066 428.889 382.855 448.397C384.05 454.548 385.29 460.709 386.405 466.873C386.796 469.03 386.73 471.284 387.248 473.411C387.387 473.978 387.54 474.384 387.73 474.952L388.468 475.216L389.298 474.718C393.811 468.094 394.551 454.985 393.114 447.258C391.894 440.693 388.948 434.388 387.159 427.95C384.063 416.809 381.81 404.339 380.515 392.865C377.134 362.903 387.155 335.943 379.469 305.443C378.399 301.197 377.037 296.008 374.606 292.317ZM215.304 404.891C212.801 410.803 210.371 416.76 207.756 422.622C210.616 425.202 213.548 427.734 216.267 430.461L219.829 434.096C219.173 430.532 216.127 405.736 215.304 404.891ZM125.339 452.834L125.192 747.482L125.062 890C125.058 911.496 124.667 933.037 125.02 954.524C134.7 952.589 144.139 949.594 153.619 946.879L186.665 937.542C193.414 935.568 200.149 933.135 207.011 931.629L210.2 921.807C212.379 914.139 215.24 906 216.14 898.065C216.805 892.199 216.132 886.15 216.037 880.259C215.936 873.957 216.206 867.564 216.609 861.275C217.504 847.279 219.392 833.234 219.542 819.208C219.714 803.135 218.21 786.91 217.283 770.866L213.517 704.193C212.933 694.287 211.976 684.406 210.648 674.572C208.986 662.662 206.782 650.811 205.908 638.806C203.257 602.401 213.997 552.062 229.06 518.839C198.165 505.725 149.54 475.982 125.339 452.834ZM250.537 468.063C239.566 474.608 232.466 483.983 229.305 496.404C228.081 501.213 227.482 505.96 227.318 510.911C236.426 515.129 245.916 518.378 255.302 521.896L256.212 521.633C257.735 517.997 258.144 513.911 259.316 510.145C262.303 500.55 269.594 490.614 276.563 483.513C268.11 477.799 259.531 472.873 250.537 468.063ZM398.034 467.704C397.452 469.735 396.75 471.869 396.498 473.968C395.571 481.666 398.822 495.732 399.461 504.363C409.179 504.967 419.291 505.502 428.751 507.898C430.841 511.182 432.995 515.454 435.731 518.198C438.099 520.573 445.734 522.487 444.992 526.554C444.84 527.391 444.547 527.419 443.934 527.925C440.386 528.696 436.15 526.756 432.891 525.373C431.931 529.353 428.217 539.824 428.746 543.331L429.462 543.743C436.541 543.119 442.75 539.964 447.336 534.48C449.263 532.176 451.264 529.107 451.053 525.965C450.834 522.706 447.053 518.378 445.278 515.59C432.785 495.973 428.469 488.227 408.347 474.424C404.974 472.086 401.535 469.845 398.034 467.704ZM279.16 478.057C289.035 484.76 300.041 488.827 311.504 491.919C316.565 493.285 321.838 494.393 326.763 496.189C331.696 497.988 335.648 501.084 340.205 503.551C345.273 506.294 352.463 507.198 358.165 507.76C358.085 499.727 357.917 491.695 357.662 483.665C338.963 483.503 320.138 482.148 301.516 480.515C294.608 479.91 285.858 477.758 279.16 478.057ZM388.5 481.605C387.849 487.687 390.214 504.86 390.585 512.108C391.846 512.454 392.616 512.043 393.851 511.713C393.514 506.045 392.115 486.098 389.928 481.96L388.5 481.605ZM364.221 484.001L364.378 509.086C371.383 510.251 378.455 511.664 385.552 512.097C385.22 502.754 384.131 493.449 383.527 484.121C377.064 484.645 370.684 484.337 364.221 484.001ZM281.182 487.294C271.857 497.7 264.411 510.074 261.906 523.965C271.152 525.937 282.151 526.738 290.249 531.855C302.559 539.633 313.881 568.371 324.547 571.24C330.406 572.815 337.226 569.302 342.053 566.174C345.82 563.732 349.209 560.857 352.529 557.848L359.432 551.552C357.768 548.414 356.003 544.848 355.654 541.278C356.165 540.03 356.389 539.996 357.548 539.263C358.579 539.414 358.474 539.185 359.151 540.118C361.16 542.883 362.038 546.324 364.094 549.163C366.282 547.516 368.736 545.993 369.201 543.07C369.814 539.207 365.221 533.843 362.747 531.124C353.033 520.445 337.553 507.038 324.078 501.883C318.014 499.563 311.343 498.582 305.098 496.785C296.952 494.441 288.847 490.896 281.182 487.294ZM400.411 510.843C400.431 512.401 400.218 514.327 401.066 515.685C409.388 517.889 418.995 518.572 427.575 519.555L425.562 513.854C417.629 511.917 408.572 511.155 400.411 510.843ZM234.85 521.106C219.524 560.324 209.124 601.358 212.921 643.843C214.68 663.517 218.55 682.88 219.934 702.629C221.353 722.883 221.954 743.232 223.124 763.507C224.218 782.476 226.004 801.738 225.796 820.726C225.632 835.772 223.327 850.976 222.619 866.039C222.353 872.166 222.244 878.299 222.293 884.432C222.361 889.719 222.78 895.083 222.041 900.334C220.642 910.275 216.739 919.649 214.573 929.402C245.657 920.561 277.316 912.9 308.03 902.861C322.441 834.842 330.947 765.743 347.703 698.207C351.459 683.069 356.341 668.05 361.078 653.191C369.356 626.853 378.431 600.772 388.29 574.985C390.717 568.586 400.131 541.045 403.37 537.624C404.801 537.163 405.02 537 406.439 537.414C407.396 538.816 407.261 540.238 406.973 541.846C405.911 547.785 402.901 553.829 400.755 559.487L389.755 588.894C381.336 611.236 373.535 633.807 366.363 656.58C363.311 666.293 360.036 676.019 357.541 685.894C343.4 737.136 335.423 789.543 325.894 841.758C322.247 861.743 319.326 881.728 314.338 901.456L344.724 892.907C351.585 890.981 358.589 889.261 365.256 886.72C370.712 866.484 374.278 845.62 377.937 825C380.096 812.831 382.438 800.671 384.303 788.454C389.996 748.936 394.895 709.309 398.998 669.595C401.796 644.86 403.079 619.549 407.69 595.097C411.696 573.859 418.322 553.227 424.423 532.522C403.075 531.215 381.252 527.727 360.759 521.542C367.495 527.52 373.847 533.393 376.061 542.471C375.375 545.284 374.663 547.719 372.716 549.936C369.829 553.223 365.681 555.121 362.293 557.812C356.183 562.665 351.002 568.173 344.244 572.26C337.792 576.162 330.019 579.089 322.425 577.156C312.988 574.754 305.576 559.505 299.567 552.249C287.805 564.91 276.705 578.171 266.311 591.978C263.003 596.329 259.838 600.788 256.821 605.345C255.312 607.666 254.093 610.504 252.389 612.642C251.636 613.586 250.843 614.013 249.723 614.393C248.268 614.264 247.989 614.163 246.774 613.352C245.24 609.699 246.319 604.482 246.739 600.595C249.502 576.796 255.551 553.495 264.712 531.357C264.865 530.991 265.021 530.626 265.18 530.262C254.842 527.784 244.83 524.795 234.85 521.106ZM271.011 531.776C261.72 556.914 256.959 575.368 252.295 601.744C255.926 596.282 259.503 590.782 263.436 585.53C269.775 577.131 276.197 568.88 283.124 560.955C287.385 556.08 292.139 551.515 296.214 546.503C289.122 537.239 282.171 534.347 271.011 531.776Z"/>
	<path fill="#9F8BE8" d="M124.454 0L224.647 0C206.566 11.6693 187.883 22.4405 169.368 33.396C154.552 42.1628 139.968 51.1808 124.949 59.6208C124.671 39.7461 125.415 19.8658 124.454 0Z"/>
	<path fill="#9F8BE8" d="M236.194 0L394.548 0C383.441 7.22329 371.511 13.4085 360.032 20.0333C340.84 31.3528 321.589 42.5701 302.278 53.6849L125.011 156.157L124.918 67.0303C145.857 55.5044 166.026 42.4223 186.556 30.1828L216.842 12.0918C223.34 8.20009 230.069 4.45757 236.194 0Z"/>
	<path fill="#9F8BE8" d="M406.614 0L506.758 0C507.789 87.3195 506.789 174.705 506.838 262.033L507.49 846.642C462.484 859.815 417.341 872.514 372.068 884.738C376.946 866.419 379.902 847.543 383.247 828.896C391.661 781.848 398.36 734.509 403.328 686.974C407.8 647.926 409.573 608.24 419.769 570.152C421.565 563.444 423.214 556.498 425.971 550.111C429.454 549.621 432.956 549.302 436.338 548.289C443.952 546.01 451.942 540.514 455.584 533.295C457.082 530.326 457.897 526.6 456.81 523.369C455.406 519.193 452.194 515.412 450.021 511.58C436.883 488.402 423.48 474.908 399.515 462.959C400.897 447.393 396.824 440.104 392.947 425.697C390.392 416.203 388.519 406.538 387.345 396.777C384.094 368.252 393.124 338.629 387.475 310.718C385.876 302.818 382.581 295.282 379.677 287.789C381.34 286.544 383.07 285.169 384.554 283.717C385.992 282.309 387.236 280.395 387.207 278.307C387.151 274.247 382.922 271.183 380.189 268.739C387.846 261.927 396.318 254.886 402.443 246.676C406.404 248.144 412.031 250.541 416.286 249.538C425.744 247.309 420.888 228.162 431.604 220.978C446.305 211.123 474.682 205.4 483.477 189.285C485.336 185.877 486.277 182.778 485.041 178.996C482.651 171.689 476.914 164.924 473.368 158.06C467.999 147.668 463.412 136.909 457.405 126.843C447.213 109.766 430.178 92.6945 412.137 84.1551C398.706 77.7978 383.788 75.6755 369.573 80.8285C352.384 87.0598 331.079 101.915 319.414 115.873C314.682 121.535 310.797 128.079 307.734 134.78C299.909 151.902 302.199 165.603 308.497 182.727L304.992 186.252C301.761 185.768 298.552 185.396 295.298 185.112C287.505 189.035 281.425 198.583 277.023 205.82C274.848 209.396 272.749 213.556 269.502 216.289C265.533 219.63 259.684 221.774 255.209 224.542C241.667 232.918 225.211 243.463 213.457 254.058C203.447 263.079 187.9 290.467 180.531 302.941C166.073 327.418 151.626 352.079 139.046 377.59C134.057 387.705 130.152 398.247 125.404 408.446C124.722 395.646 125.207 382.696 125.238 369.877L125.001 319.579C124.873 267.398 124.41 215.076 125.466 162.909C139.307 155.456 152.79 147.269 166.384 139.37L236.338 98.8081L346.686 34.7965C366.657 23.1798 386.794 11.8803 406.614 0Z"/>
	<path fill="#9F8BE8" d="M540.712 0L549.464 0C550.517 1.9584 551.855 3.84513 553.038 5.73369C550.077 23.4895 554.611 44.6949 569.394 56.0802C574.723 60.1843 581.558 63.2873 585.291 69.0774C592.213 79.8166 592.518 92.8901 597.007 104.387C597.993 106.91 599.188 109.424 601.822 110.519C606.006 112.259 611.968 109.725 615.935 108.197C628.192 118.094 639.857 128.747 651.433 139.424C637.317 148.065 621.988 153.122 614.144 168.774C602.994 191.021 601.589 221.422 599.638 245.942C597.926 268.498 596.682 291.087 595.908 313.695C594.987 337.59 594.302 361.537 591.477 385.301C590.111 396.795 588.677 408.827 585.584 420.002C583.033 429.22 578.478 437.697 577.554 447.359C576.948 453.701 578.428 459.18 580.416 465.153C560.799 483.908 550.5 499.316 540.035 524.221C541.085 501.34 540.544 478.308 540.519 455.408L540.757 352.278L541.003 140.517C541.244 93.6782 541.147 46.8378 540.712 1.42109e-14L540.712 0Z"/>
	<path fill="#351D68" d="M555.354 0L776.269 0C776.52 0.88528 776.74 1.77914 776.928 2.67991C780.224 18.6534 775.383 30.295 766.55 43.5252C759.418 43.3581 752.358 43.2821 745.546 45.7174C741.997 46.9864 738.557 48.5648 734.95 49.6703C728.743 51.572 722.291 51.1704 715.911 50.5326C694.532 48.3954 672.601 40.1389 656.591 25.4737C648.666 18.2147 643.37 7.97837 633.589 2.96696C630.861 1.5695 627.521 0.382623 624.483 1.49822C622.64 2.17507 621.359 3.5902 620.593 5.36948C618.676 9.81644 619.98 15.1682 621.717 19.4443C609.208 20.2263 595.564 21.1845 583.275 18.4137C572.39 15.9597 561.45 9.54337 555.354 0Z"/>
	<path fill="#9F8BE8" d="M782.495 0L1024 0L1024 724.696C1014.75 726.997 1005.47 730.322 996.309 733.024C978.852 738.151 961.364 743.171 943.846 748.085C930.693 751.896 917.622 756.049 904.288 759.19C907.346 737.558 912.941 716.474 916.277 694.91C923.622 647.423 917.582 599.431 906.181 553.097C903.208 541.016 900.068 528.846 896.31 516.984C891.721 502.495 886.079 488.666 884.024 473.49C894.536 470.12 943.05 449.508 947.769 442.597C951.746 436.772 952.328 426.41 953.157 419.456C957.778 380.677 955.581 341.465 950.594 302.831C949.086 291.148 947.552 279.409 945.21 267.861C940.259 243.456 934.164 219.714 926.03 196.165C922.508 185.968 918.411 176.02 914.553 165.953C911.543 158.1 909.012 148.167 903.914 141.484C901.595 138.443 897.881 135.935 894.954 133.468C886.813 126.605 878.944 119.892 870.042 113.99C851.511 101.703 830.953 92.9558 812.528 80.6108C808.597 77.9773 805.678 73.3828 802.212 70.0872C792.933 61.2652 783.19 52.8845 772.505 45.805L774.125 43.2616C783.555 28.2959 786.43 17.3245 782.495 0Z"/>
	<path fill="#9F8BE8" d="M630.526 24.0145C628.538 20.0704 625.255 16.1071 624.452 11.7079C624.051 9.51048 624.499 8.19473 625.695 6.36835C629.302 7.0283 631.89 8.20581 634.769 10.4966C640.381 14.9613 648.869 24.6008 649.372 32.0039C649.483 33.6464 649.113 34.5128 648.064 35.7363C645.134 36.7157 642.425 34.4268 639.871 33.2098C638.579 33.369 638.513 33.3593 637.576 34.253C637.467 35.2663 637.641 35.9025 638.203 36.7682C639.767 39.1788 642.942 40.8799 645.714 41.3812C647.62 41.7257 649.598 41.4837 651.159 40.2654C653.847 38.1672 654.765 34.8826 655.045 31.6583C675.984 48.7933 695.629 55.4219 722.581 56.836C702.846 72.4241 688.881 91.6006 678.18 114.181C678.598 102.92 677.931 91.5114 677.686 80.249C677.565 74.7082 678.361 67.4261 676.987 62.1951C676.299 61.3677 675.904 60.7621 674.877 60.3485C674.08 60.0273 674.313 60.15 673.419 60.5571C672.32 61.9808 672.121 63.7247 671.948 65.4676C671.424 70.7543 671.995 76.3143 672.025 81.6312C671.993 93.9283 672.162 106.225 672.533 118.517C672.533 121.342 672.924 124.149 673.246 126.952C667.644 130.075 661.904 132.942 656.19 135.855C646.846 127.359 637.403 118.972 627.863 110.696C623.263 106.684 618.744 102.37 613.996 98.5457C612.546 97.3777 611.936 96.8782 610.077 97.0696C608.391 99.2585 611.269 101.451 611.445 103.897C611.32 104.032 611.208 104.182 611.068 104.302C609.972 105.248 608.383 105.475 606.98 105.413C605.06 105.328 603.916 104.708 602.969 103.005C601.21 99.8438 600.635 95.3445 599.733 91.8131C596.477 79.0679 592.361 68.1805 583.505 58.2759C584.755 55.1223 586.672 51.6015 585.438 48.1659C585.107 47.2428 585.228 47.546 584.241 47.0408C583.616 47.2703 583.511 47.2706 582.897 47.7042C580.541 49.3683 579.705 53.4708 579.123 56.0653C576.554 54.506 573.858 52.7999 571.586 50.8305C559.966 40.7555 558.86 26.4094 557.989 12.0806C559.474 13.316 561.009 14.4904 562.589 15.601C582.145 29.5434 607.9 27.8047 630.526 24.0145Z"/>
	<path fill="#E7E4FE" d="M679.758 124.713C686.032 110.128 693.738 96.0749 703.64 83.6076C717.033 66.7453 735.873 51.6302 757.859 49.184C758.849 49.0876 759.804 49.029 760.8 49.061C773.475 49.4686 791.378 67.8462 800.147 76.9405C758.231 78.9926 741.579 85.1355 707.121 108.367C698.299 114.373 689.469 120.215 679.758 124.713Z"/>
	<path fill="#351D68" d="M430.77 214.798C439.027 205.322 451.653 197.909 456.642 186.004C461.951 173.336 454.384 172.173 449.533 162.781C446.793 157.477 445.036 151.365 442.845 145.8C433.425 121.87 417.388 100.327 393.491 89.4376C388.466 87.1478 382.733 87.0346 377.716 84.8618L377.496 84.2593L379.262 83.624C389.182 83.2166 398.138 84.7605 407.321 88.5748C426.117 96.3827 443.393 113.613 453.369 131.155C458.877 140.842 462.996 151.219 468.136 161.086C472.203 168.894 477.517 175.865 480.93 184.036C472.886 195.695 457.685 201.759 445.25 207.537C440.352 209.812 435.523 212.233 430.77 214.798Z"/>
	<path fill="#E7E4FE" d="M631.188 157.68C637.282 153.583 644.134 150.338 650.647 146.95C664.19 139.904 677.99 133.244 691.277 125.727C710.023 115.123 726.618 101.11 746.586 92.6351C758.728 87.482 771.571 85.0778 784.62 83.6983C784.942 83.6627 785.263 83.6232 785.586 83.5915C793.748 82.7874 802.391 86.4791 809.855 89.4186C837.649 100.366 864.766 115.944 887.656 135.18C877.728 134.116 868.084 130.252 858.022 129.002C807.189 122.689 767.083 128.407 718.539 144.522C700.611 150.543 676.182 160.416 660.267 170.585C650.712 165.236 641.612 161.077 631.188 157.68Z"/>
	<path fill="#351D68" d="M320.011 191.077C315.826 186.046 313.021 179.41 311.124 173.19C306.482 157.973 309.49 144.237 316.849 130.491C324.66 115.901 336.888 106.059 350.594 97.2782C355.663 94.031 360.547 90.8699 366.344 89.0918C374.945 88.9562 384.523 91.8985 392.232 95.5588C419.956 108.723 433.067 135.33 442.864 162.81C438.793 164.884 435.034 167.892 431.242 170.447C425.426 174.426 419.239 177.832 412.767 180.618C394.299 188.426 378.883 187.942 360.461 180.504C359.972 180.252 358.949 179.8 358.602 179.426C357.99 178.767 359.895 168.613 355.986 163.692C354.384 161.668 352.001 160.416 349.426 160.243C345.793 159.973 342.357 161.632 339.678 163.977C333.89 169.043 332.033 176.881 331.394 184.225C327.9 186.838 324.016 189.339 320.011 191.077Z"/>
	<path fill="#E7E4FE" d="M665.146 174.537C712.136 149.876 761.431 134.319 814.685 132.22C818.952 132.092 823.155 132.199 827.418 132.416C827.842 133.081 828.246 133.736 828.63 134.425C834.808 145.493 839.337 158.3 843.254 170.337C864.033 234.188 867.899 304.003 861.888 370.62C859.989 391.669 857.189 413.221 851.475 433.614C837.784 436.942 823.524 438.865 809.54 440.484C775.951 444.307 742.117 445.538 708.338 444.167C706.218 444.093 704.154 444.134 702.621 442.524L702.814 440.31C706.413 423.722 708.934 406.719 711.543 389.952C717.008 354.834 723.598 309.42 720.354 274.231C717.649 244.897 703.531 213.655 683.864 191.752C678.178 185.419 671.678 179.961 665.146 174.537Z"/>
	<path fill="#E7E4FE" d="M857.775 431.918C861.076 418.569 863.962 405.236 865.832 391.6C876.235 315.748 870.633 202.133 834.911 133.429C849.561 134.064 863.885 135.707 878.084 139.426C884.641 141.143 891.003 143.658 897.615 145.127L898.254 145.264C900.527 148.455 902.251 151.682 903.758 155.299C923.215 201.999 920.889 279.531 910.886 328.12C905.089 356.274 895.813 384.068 884.997 410.674C882.923 415.761 880.497 420.697 877.736 425.446C871.223 428.351 864.761 430.484 857.775 431.918Z"/>
	<path fill="#E7E4FE" d="M582.607 470.942C586.348 476.545 591.224 484.445 592.27 491.171C592.717 494.043 592.339 498.469 593.531 501.082C594.001 502.114 594.838 502.635 595.966 502.82C597.204 503.022 597.764 502.372 598.624 501.663C602.838 492.404 589.029 471.508 585.578 463.199C584.511 460.63 583.823 457.811 583.438 455.06C581.693 442.578 589.112 430.402 591.941 418.529C594.291 408.665 595.731 398.639 596.955 388.582C602.124 346.129 602.347 303.02 604.896 260.339C606.174 238.925 607.267 216.853 611.718 195.84C614.127 184.472 617.611 172.83 624.668 163.417C628.643 163.397 632.902 164.645 636.659 165.877C664.356 174.964 686.661 200.088 699.416 225.569C706.925 240.57 712.398 257.067 714.288 273.749C717.766 304.47 712.943 337.836 708.792 368.368C703.671 406.035 697.197 448.045 685.071 484.008C672.744 520.566 649.021 546.903 614.38 563.949C601.686 570.195 571.502 579.235 557.538 574.13C551.128 571.786 548.097 565.178 545.306 559.462C574.402 558.249 595.75 554.708 622.844 543.51C629.045 540.927 656.877 527.45 659.146 522.663C659.657 521.585 659.322 521.11 658.876 520.143C654.896 518.927 635.326 530.916 630.394 533.342C602.237 547.189 573.573 553.084 542.347 553.598C541.5 549.537 541.163 545.247 541.186 541.1C541.226 533.54 544.332 527.454 547.467 520.786C557.231 500.022 566.133 487.041 582.607 470.942ZM561.211 497.753C560.238 498.965 559.194 499.815 559.259 501.503C559.434 506.075 568.853 515.358 572.668 517.899C584.046 525.477 598.882 526.026 611.913 523.328C615.14 522.66 618.585 521.886 621.651 520.666C622.745 519.631 622.931 519.431 623.355 517.998C623.013 516.826 622.958 516.227 621.731 515.662C617.945 513.919 609.679 517.752 605.482 518.223C598.585 518.998 591.001 518.882 584.292 516.957C568.824 512.519 567.201 500.246 561.211 497.753Z"/>
	<path fill="#9F8BE8" d="M332.202 191.279C334.797 195.474 337.691 198.449 342.423 200.222C343.835 200.752 344.827 200.881 346.198 200.254C346.695 199.517 346.841 199.016 346.943 198.133C347.478 193.488 341.738 194.579 339.511 191.542C336.973 188.082 336.973 183.314 337.76 179.279C338.851 173.691 341.405 169.114 346.128 165.893C348.222 165.929 350.215 165.976 351.78 167.573C354.744 170.594 353.119 178.097 352.968 182.075C358.149 187.704 368.766 190.001 376.101 191.338C402.611 196.171 424.274 181.919 445.111 167.71C448.381 170.833 450.962 173.994 452.678 178.228C449.009 191.47 438.049 197.799 429.881 207.815C426.81 211.582 424.546 215.973 422.62 220.414C420.787 224.639 417.149 241.699 415.215 243.453C414.011 244.544 405.289 241.559 403.027 241.476C398.724 241.319 398.566 244.786 395.724 246.595C394.178 247.578 392.433 247.145 390.749 246.844L389.92 246.69C388.674 247.203 388.262 247.579 387.502 248.689C387.111 250.228 387.427 251.241 387.832 252.721L388 253.315C386.038 256.476 375.165 265.509 371.523 267.197C370.52 267.153 369.692 266.975 368.769 266.591C355.716 261.159 343.779 240.556 338.619 228.143C337.369 224.63 336.408 220.611 333.252 218.27C332.232 217.514 331.67 217.483 330.473 217.72C327.271 222.474 340.544 246.337 343.76 250.73C346.915 255.04 351.956 258.72 354.139 263.6C359.01 274.493 359.905 289.136 360.633 301.038C344.288 278.1 332.061 252.528 318.734 227.765C313.693 218.397 307.402 209.462 303.062 199.766C306.89 196.389 309.221 193.103 311.641 188.621C313.374 191.276 315.427 195.579 318.589 196.722C322.093 197.988 328.206 192.939 331.573 191.535L332.202 191.279ZM347.601 172.145C346.559 173.857 345.543 175.388 345.992 177.483C346.168 178.306 346.621 178.89 347.298 179.399C347.808 179.781 348.782 179.992 349.399 180.179C350.627 178.505 351.412 177.272 350.916 175.052C350.687 174.027 350.102 173.411 349.444 172.641C348.83 172.451 348.24 172.237 347.601 172.145ZM412.62 193.364C411.582 194.553 411.319 194.667 411.177 196.211C412.287 198.581 421.615 205.736 423.945 206.695C425.056 205.021 425.703 203.887 425.31 201.78C424.805 199.082 422.044 197 419.832 195.733C417.509 194.402 415.274 193.65 412.62 193.364ZM401.221 202.291C400.11 203.347 398.929 204.239 398.467 205.752C399.563 208.367 404.771 216.294 407.172 217.324C408.426 216.86 409.219 216.186 410.213 215.331C410.944 215.308 411.397 215.297 412.111 215.496C413.756 215.839 414.824 216.048 416.456 215.574L417.142 214.752C416.898 212.721 415.426 211.605 413.917 210.411C410.077 207.373 405.45 204.762 401.221 202.291Z"/>
	<path d="M349.399 180.179C348.782 179.992 347.808 179.781 347.298 179.399C346.621 178.89 346.168 178.306 345.992 177.483C345.543 175.388 346.559 173.857 347.601 172.145C348.24 172.237 348.83 172.451 349.444 172.641C350.102 173.411 350.687 174.027 350.916 175.052C351.412 177.272 350.627 178.505 349.399 180.179Z"/>
	<path fill="#E7E4FE" d="M339.15 279.573C339.128 279.785 339.082 279.995 339.083 280.208C339.088 281.424 339.696 282.293 340.286 283.308C339.472 283.525 339.313 283.45 338.53 283.231C335.707 280.706 332.857 278.587 329.422 276.952C317.869 271.454 304.942 273.258 293.296 277.404C291.246 263.016 287.881 248.846 283.243 235.073C281.319 229.461 278.83 224.069 276.934 218.445C279.683 211.38 290.385 194.527 297.146 191.069C298.586 190.332 299.787 190.153 301.359 190.631C300.576 192.533 297.203 194.36 295.721 196.126C295.455 197.783 295.767 198.861 296.389 200.381C299.095 206.987 303.276 213.356 306.776 219.584C314.687 233.481 322.384 247.499 329.865 261.632C332.959 267.458 336.711 273.463 339.15 279.573Z"/>
	<path d="M423.945 206.695C421.615 205.736 412.287 198.581 411.177 196.211C411.319 194.667 411.582 194.553 412.62 193.364C415.274 193.65 417.509 194.402 419.832 195.733C422.044 197 424.805 199.082 425.31 201.78C425.703 203.887 425.056 205.021 423.945 206.695Z"/>
	<path d="M412.111 215.496C411.397 215.297 410.944 215.308 410.213 215.331C409.219 216.186 408.426 216.86 407.172 217.324C404.771 216.294 399.563 208.367 398.467 205.752C398.929 204.239 400.11 203.347 401.221 202.291C405.45 204.762 410.077 207.373 413.917 210.411C415.426 211.605 416.898 212.721 417.142 214.752L416.456 215.574C414.824 216.048 413.756 215.839 412.111 215.496Z"/>
	<path fill="#E7E4FE" d="M884.446 466.805C884.474 458.513 884.45 450.221 884.373 441.929C884.353 437.313 883.995 432.379 884.734 427.822C885.565 422.694 888.782 417.621 890.832 412.855C893.284 407.156 895.548 401.322 897.703 395.503C903.709 378.867 908.86 361.935 913.135 344.773C922.614 306.74 925.472 268.951 924.429 229.868C924.229 222.383 922.854 214.964 922.625 207.485L922.611 206.913C922.748 207.123 922.905 207.321 923.022 207.542C925.934 213.069 927.292 220.933 929.011 227.034C944.728 282.826 952.186 348.491 948.049 406.344C947.398 415.448 947.151 426.534 944.039 435.122C943.506 436.595 942.784 438.38 941.655 439.512C935.932 445.245 910.861 455.136 902.282 458.972C896.383 461.686 890.436 464.298 884.446 466.805Z"/>
	<path fill="#E7E4FE" d="M221.81 255.142C237.247 243.187 253.55 232.395 270.586 222.856C272.914 223.861 274.755 229.743 275.612 232.096C279.481 242.509 282.57 253.196 284.854 264.067C286.1 269.779 286.766 275.949 288.494 281.514C288.759 282.367 289.113 282.989 289.871 283.49C292.712 285.368 302.291 280.962 305.981 280.311C314.353 278.833 323.834 279.685 330.872 284.843C352.767 300.889 347.776 361.65 348.273 386.613C348.47 396.463 349.159 406.314 350.99 416.008C352.576 424.355 354.867 432.552 357.84 440.512C362.412 452.732 368.101 464.354 370.008 477.412C343.33 477.12 316.676 475.681 290.121 473.098C283.684 472.459 276.685 472.206 270.442 470.508C255.127 466.344 239.578 451.118 227.673 440.774C226.216 427.206 223.74 413.5 221.42 400.05C236.613 389.615 250.428 376.389 257.102 358.887C265.659 336.444 265.23 307.829 255.324 285.888C248.223 270.159 237.829 261.133 221.81 255.142Z"/>
	<path fill="#E7E4FE" d="M125.619 443.425C125.423 437.899 125.544 431.789 126.786 426.39C128.995 416.782 132.801 407.43 136.587 398.358C147.114 373.13 160.307 349.794 173.959 326.188C186.957 303.713 200.004 281.054 215.725 260.341C215.979 260.375 216.231 260.419 216.482 260.465C227.98 262.701 238.09 269.476 244.529 279.261C256.681 297.402 259.391 322.445 255.07 343.502C250.728 364.668 238.81 380.101 220.876 391.857C228.326 377.575 247.163 345.37 248.617 330.056C248.775 328.402 248.863 326.866 247.783 325.509L247.001 325.48C241.987 327.928 240.533 337.758 238.452 342.74C232.085 357.985 224.252 372.554 216.698 387.228C211.497 397.329 206.568 407.581 201.414 417.71C196.706 413.61 191.44 409.852 185.602 407.528C180.777 405.607 164.996 401.545 160.506 404.299C159.153 405.129 159.092 405.574 158.624 407.006C158.995 408.375 159.114 409.148 160.65 409.617C163.539 410.5 167.252 409.857 170.264 410.045C179.94 410.647 188.18 415.068 196.051 420.364C185.907 420.83 171.073 424.111 163.979 431.993C162.913 433.177 161.792 434.83 161.994 436.496C162.09 437.296 162.551 437.358 163.154 437.784C166.822 438.085 169.133 435.649 171.876 433.555C181.183 427.345 191.464 426.036 202.402 426.723C215.387 439.922 230.47 452.042 245.073 463.419C243.296 464.692 241.536 465.978 239.901 467.433C227.689 478.295 222.405 492.809 221.373 508.834C197.386 496.489 140.302 464.537 125.619 443.425Z"/>
	<path fill="#9F8BE8" d="M365.627 296.175C365.565 287.221 364.21 278.545 362.584 269.768C367.478 272.261 370.437 273.386 375.996 272.362C377.378 274.341 378.948 275.969 380.644 277.668C378.175 280.558 375.177 283.181 372.515 285.914C369.949 289.148 367.819 292.683 365.627 296.175Z"/>
	<path fill="#FAF6FE" d="M338.53 283.231C339.313 283.45 339.472 283.525 340.286 283.308C339.696 282.293 339.088 281.424 339.083 280.208C339.082 279.995 339.128 279.785 339.15 279.573C343.752 286.848 348.631 293.917 353.333 301.123C355.31 304.153 357.038 307.895 359.41 310.578C360.197 311.467 361.336 311.963 362.411 312.412C364.181 318.644 363.939 326.608 364.433 333.158C366.4 359.232 365.691 385.421 369.422 411.349C370.822 421.078 383.164 473.912 381.391 477.104C379.898 477.613 379.117 477.544 377.601 477.334C376.318 475.972 373.329 463.118 371.977 459.738C365.965 444.713 359.246 429.833 356.857 413.683C352.772 386.061 355.485 358.021 353.296 330.21C352.649 321.993 352.001 313.715 349.795 305.741C347.485 297.391 343.852 290.061 338.53 283.231Z"/>
	<path fill="#E7E4FE" d="M389.298 474.718L388.468 475.216L387.73 474.952C387.54 474.384 387.387 473.978 387.248 473.411C386.73 471.284 386.796 469.03 386.405 466.873C385.29 460.709 384.05 454.548 382.855 448.397C379.066 428.889 374.782 410.123 373.23 390.214C371.925 373.473 372.33 356.609 371.145 339.834C370.543 331.325 367.588 313.398 368.666 305.979C369.362 301.193 372.255 296.467 374.606 292.317C377.037 296.008 378.399 301.197 379.469 305.443C387.155 335.943 377.134 362.903 380.515 392.865C381.81 404.339 384.063 416.809 387.159 427.95C388.948 434.388 391.894 440.693 393.114 447.258C394.551 454.985 393.811 468.094 389.298 474.718Z"/>
	<path fill="#9F8BE8" d="M207.756 422.622C210.371 416.76 212.801 410.803 215.304 404.891C216.127 405.736 219.173 430.532 219.829 434.096L216.267 430.461C213.548 427.734 210.616 425.202 207.756 422.622Z"/>
	<path fill="#6B5FB5" d="M869.502 436.136L877.263 433.535C877.543 433.571 877.736 433.845 877.959 434.018L877.845 436.189L878.73 436.453C877.237 438.775 877.954 466.229 877.949 471.185L870.353 473.453L869.962 473.372C868.355 471.001 869.46 441.058 869.502 436.136Z"/>
	<path fill="#6B5FB5" d="M749.392 450.577C786.75 450.484 825.422 446.014 861.898 438.137L862.692 438.419C863.705 442.418 862.632 448.98 862.575 453.235C862.465 460.878 862.479 468.523 862.618 476.166C826.392 487.471 788.265 489.335 750.612 489.811L749.893 489.435C748.631 485.819 749.409 456.35 749.392 450.577Z"/>
	<path fill="#6B5FB5" d="M691.078 486.058C694.87 474.123 698.124 462.024 700.829 449.798C714.819 450.836 728.854 451.142 742.875 450.715C742.467 463.612 743.638 476.767 742.727 489.588L734.75 489.509C720.313 489.548 705.368 488.096 691.078 486.058Z"/>
	<path fill="#9F8BE8" d="M125.02 954.524C124.667 933.037 125.058 911.496 125.062 890L125.192 747.482L125.339 452.834C149.54 475.982 198.165 505.725 229.06 518.839C213.997 552.062 203.257 602.401 205.908 638.806C206.782 650.811 208.986 662.662 210.648 674.572C211.976 684.406 212.933 694.287 213.517 704.193L217.283 770.866C218.21 786.91 219.714 803.135 219.542 819.208C219.392 833.234 217.504 847.279 216.609 861.275C216.206 867.564 215.936 873.957 216.037 880.259C216.132 886.15 216.805 892.199 216.14 898.065C215.24 906 212.379 914.139 210.2 921.807L207.011 931.629C200.149 933.135 193.414 935.568 186.665 937.542L153.619 946.879C144.139 949.594 134.7 952.589 125.02 954.524Z"/>
	<path fill="#FAF6FE" d="M227.318 510.911C227.482 505.96 228.081 501.213 229.305 496.404C232.466 483.983 239.566 474.608 250.537 468.063C259.531 472.873 268.11 477.799 276.563 483.513C269.594 490.614 262.303 500.55 259.316 510.145C258.144 513.911 257.735 517.997 256.212 521.633L255.302 521.896C245.916 518.378 236.426 515.129 227.318 510.911Z"/>
	<path fill="#9F8BE8" d="M399.461 504.363C398.822 495.732 395.571 481.666 396.498 473.968C396.75 471.869 397.452 469.735 398.034 467.704C401.535 469.845 404.974 472.086 408.347 474.424C428.469 488.227 432.785 495.973 445.278 515.59C447.053 518.378 450.834 522.706 451.053 525.965C451.264 529.107 449.263 532.176 447.336 534.48C442.75 539.964 436.541 543.119 429.462 543.743L428.746 543.331C428.217 539.824 431.931 529.353 432.891 525.373C436.15 526.756 440.386 528.696 443.934 527.925C444.547 527.419 444.84 527.391 444.992 526.554C445.734 522.487 438.099 520.573 435.731 518.198C432.995 515.454 430.841 511.182 428.751 507.898C419.291 505.502 409.179 504.967 399.461 504.363Z"/>
	<path fill="#6B5FB5" d="M358.165 507.76C352.463 507.198 345.273 506.294 340.205 503.551C335.648 501.084 331.696 497.988 326.763 496.189C321.838 494.393 316.565 493.285 311.504 491.919C300.041 488.827 289.035 484.76 279.16 478.057C285.858 477.758 294.608 479.91 301.516 480.515C320.138 482.148 338.963 483.503 357.662 483.665C357.917 491.695 358.085 499.727 358.165 507.76Z"/>
	<path fill="#6B5FB5" d="M761.257 1024C761.276 986.266 762.192 948.538 764.005 910.847C764.557 897.678 763.964 878.686 767.058 866.427C774.796 835.771 787.758 801.927 805.938 775.885C812.441 766.57 820.119 758.275 826.976 749.246C838.824 733.645 849.402 716.363 856.332 697.984C877.986 640.554 866.569 572.332 853.338 514.27C851.244 505.08 848.384 496.097 846.274 486.913C857.256 484.504 867.951 481.902 878.501 477.95C881.378 495.08 888.351 510.557 893.089 527.128C903.057 561.982 910.353 598.297 912.811 634.507C914.111 653.9 913.287 673.377 910.352 692.591C907.599 709.717 903.357 726.511 900.35 743.564C897.631 758.982 895.932 774.78 894.704 790.383C891.403 832.345 891.334 874.546 891.458 916.611L891.813 1024L761.257 1024Z"/>
	<path fill="#6B5FB5" d="M393.851 511.713C392.616 512.043 391.846 512.454 390.585 512.108C390.214 504.86 387.849 487.687 388.5 481.605L389.928 481.96C392.115 486.098 393.514 506.045 393.851 511.713Z"/>
	<path fill="#6B5FB5" d="M364.378 509.086L364.221 484.001C370.684 484.337 377.064 484.645 383.527 484.121C384.131 493.449 385.22 502.754 385.552 512.097C378.455 511.664 371.383 510.251 364.378 509.086Z"/>
	<path fill="#9F8BE8" d="M261.906 523.965C264.411 510.074 271.857 497.7 281.182 487.294C288.847 490.896 296.952 494.441 305.098 496.785C311.343 498.582 318.014 499.563 324.078 501.883C337.553 507.038 353.033 520.445 362.747 531.124C365.221 533.843 369.814 539.207 369.201 543.07C368.736 545.993 366.282 547.516 364.094 549.163C362.038 546.324 361.16 542.883 359.151 540.118C358.474 539.185 358.579 539.414 357.548 539.263C356.389 539.996 356.165 540.03 355.654 541.278C356.003 544.848 357.768 548.414 359.432 551.552L352.529 557.848C349.209 560.857 345.82 563.732 342.053 566.174C337.226 569.302 330.406 572.815 324.547 571.24C313.881 568.371 302.559 539.633 290.249 531.855C282.151 526.738 271.152 525.937 261.906 523.965Z"/>
	<path fill="#6B5FB5" d="M570.393 1024C570.851 1012.63 571.996 1001.26 572.708 989.896C577.742 917.148 585.061 844.576 594.654 772.289C600.364 725.264 607.004 678.357 614.571 631.596C618.065 609.25 620.756 586.599 625.505 564.469C628.815 562.681 632.039 560.881 635.153 558.766C633.123 582.299 633.017 605.958 634.834 629.507C635.082 632.859 634.464 638.382 636.507 641.09C637.047 641.805 637.686 641.885 638.486 642.201C639.882 642.018 640.002 641.969 641.062 641.042C641.58 639.664 641.619 638.39 641.626 636.935C641.647 632.339 640.75 627.579 640.484 622.97C639.934 613.427 639.907 603.726 639.966 594.171C640.048 580.841 640.285 566.752 642.719 553.609C667.087 533.881 676.832 520.869 688.795 491.86C727.643 498.546 768.02 497.318 807.083 493.053C818.331 491.825 829.815 490.582 840.896 488.271C843.434 502.732 848.018 516.781 850.953 531.175C862.196 586.301 870.107 651.802 846.936 704.894C841.892 716.453 834.886 727.195 827.67 737.503C814.663 756.085 801.135 769.497 789.888 789.917C771.765 822.82 762.403 859.717 750.938 895.235C740.446 927.739 730.258 960.145 720.714 992.941C717.699 1003.3 714.221 1013.56 711.5 1024L570.393 1024Z"/>
	<path d="M621.651 520.666C618.585 521.886 615.14 522.66 611.913 523.328C598.882 526.026 584.046 525.477 572.668 517.899C568.853 515.358 559.434 506.075 559.259 501.503C559.194 499.815 560.238 498.965 561.211 497.753C567.201 500.246 568.824 512.519 584.292 516.957C591.001 518.882 598.585 518.998 605.482 518.223C609.679 517.752 617.945 513.919 621.731 515.662C622.958 516.227 623.013 516.826 623.355 517.998C622.931 519.431 622.745 519.631 621.651 520.666Z"/>
	<path fill="#9F8BE8" d="M427.575 519.555C418.995 518.572 409.388 517.889 401.066 515.685C400.218 514.327 400.431 512.401 400.411 510.843C408.572 511.155 417.629 511.917 425.562 513.854L427.575 519.555Z"/>
	<path fill="#6B5FB5" d="M214.573 929.402C216.739 919.649 220.642 910.275 222.041 900.334C222.78 895.083 222.361 889.719 222.293 884.432C222.244 878.299 222.353 872.166 222.619 866.039C223.327 850.976 225.632 835.772 225.796 820.726C226.004 801.738 224.218 782.476 223.124 763.507C221.954 743.232 221.353 722.883 219.934 702.629C218.55 682.88 214.68 663.517 212.921 643.843C209.124 601.358 219.524 560.324 234.85 521.106C244.83 524.795 254.842 527.784 265.18 530.262C265.021 530.626 264.865 530.991 264.712 531.357C255.551 553.495 249.502 576.796 246.739 600.595C246.319 604.482 245.24 609.699 246.774 613.352C247.989 614.163 248.268 614.264 249.723 614.393C250.843 614.013 251.636 613.586 252.389 612.642C254.093 610.504 255.312 607.666 256.821 605.345C259.838 600.788 263.003 596.329 266.311 591.978C276.705 578.171 287.805 564.91 299.567 552.249C305.576 559.505 312.988 574.754 322.425 577.156C330.019 579.089 337.792 576.162 344.244 572.26C351.002 568.173 356.183 562.665 362.293 557.812C365.681 555.121 369.829 553.223 372.716 549.936C374.663 547.719 375.375 545.284 376.061 542.471C373.847 533.393 367.495 527.52 360.759 521.542C381.252 527.727 403.075 531.215 424.423 532.522C418.322 553.227 411.696 573.859 407.69 595.097C403.079 619.549 401.796 644.86 398.998 669.595C394.895 709.309 389.996 748.936 384.303 788.454C382.438 800.671 380.096 812.831 377.937 825C374.278 845.62 370.712 866.484 365.256 886.72C358.589 889.261 351.585 890.981 344.724 892.907L314.338 901.456C319.326 881.728 322.247 861.743 325.894 841.758C335.423 789.543 343.4 737.136 357.541 685.894C360.036 676.019 363.311 666.293 366.363 656.58C373.535 633.807 381.336 611.236 389.755 588.894L400.755 559.487C402.901 553.829 405.911 547.785 406.973 541.846C407.261 540.238 407.396 538.816 406.439 537.414C405.02 537 404.801 537.163 403.37 537.624C400.131 541.045 390.717 568.586 388.29 574.985C378.431 600.772 369.356 626.853 361.078 653.191C356.341 668.05 351.459 683.069 347.703 698.207C330.947 765.743 322.441 834.842 308.03 902.861C277.316 912.9 245.657 920.561 214.573 929.402Z"/>
	<path fill="#6B5FB5" d="M252.295 601.744C256.959 575.368 261.72 556.914 271.011 531.776C282.171 534.347 289.122 537.239 296.214 546.503C292.139 551.515 287.385 556.08 283.124 560.955C276.197 568.88 269.775 577.131 263.436 585.53C259.503 590.782 255.926 596.282 252.295 601.744Z"/>
	<path fill="#9F8BE8" d="M555.89 588.596C551.313 586.912 546.047 585.372 542.353 582.081C536.902 577.223 532.221 561.482 531.855 554.228C531.729 551.744 532.475 548.587 534.167 546.719L534.611 546.982C536.457 556.081 542.642 569.479 549.023 576.213C550.919 578.214 553.238 579.7 555.518 581.22C556.599 582.584 557.588 583.762 558.192 585.408C557.803 587.345 557.375 587.389 555.89 588.596Z"/>
	<path fill="#E7E4FE" d="M556.673 580.597C579.355 582.417 598.346 578.927 618.831 568.701C615.507 585.498 613.646 602.672 609.854 619.359C600.337 612.972 590.758 606.676 581.12 600.472C576.126 597.221 571.227 593.666 566.029 590.756C563.695 588.635 557.272 583.731 556.673 580.597Z"/>
	<path fill="#6B5FB5" d="M555.518 581.22L556.673 580.597C557.272 583.731 563.695 588.635 566.029 590.756C562.511 590.435 559.28 589.553 555.89 588.596C557.375 587.389 557.803 587.345 558.192 585.408C557.588 583.762 556.599 582.584 555.518 581.22Z"/>
	<path fill="#9F8BE8" d="M541.038 869.174L540.884 588.903C545.184 590.997 549.475 592.969 554.024 594.476C559.035 596.137 564.446 597.147 569.126 599.64C583.176 607.126 595.661 617.962 609.358 626.175C601.19 676.424 594.027 726.831 587.874 777.367C585.275 798.124 582.405 818.935 580.429 839.761L578.313 858.183C565.956 862.073 553.529 865.737 541.038 869.174Z"/>
	<path fill="#9F8BE8" d="M903.717 766.066C916.674 762.966 929.528 758.636 942.334 754.921C969.479 746.886 996.702 739.118 1024 731.62L1024 1024L898.497 1024C898.272 962.72 897.444 901.474 899.111 840.206C899.483 823.719 900.181 807.242 901.207 790.783C901.738 782.618 901.977 774.069 903.717 766.066Z"/>
	<path fill="#9F8BE8" d="M27.78 1024C36.6591 1020.57 46.3942 1018.5 55.5638 1015.92L102.296 1002.6C140.554 992.014 178.693 980.727 216.799 969.597L465.499 897.599L543.918 874.779C555.003 871.566 566.069 867.963 577.228 865.052C575.818 883.478 573.655 901.847 571.956 920.248C569.952 942.652 568.247 965.081 566.84 987.531C566.047 999.627 564.576 1011.88 564.507 1024L27.78 1024Z"/>
	<path fill="#9F8BE8" d="M718.119 1024C722.483 1005.8 728.755 987.883 734.192 969.965C741.786 944.935 748.828 919.68 757.996 895.166C756.846 938.099 754.206 981.027 754.949 1024L718.119 1024Z"/>
</svg>
