<?xml version="1.0" encoding="utf-8" ?>
<svg xmlns="http://www.w3.org/2000/svg" xmlns:xlink="http://www.w3.org/1999/xlink" width="1024" height="1024">
	<path fill="#CEC4FC" d="M0 0L398.363 0C397.065 63.9763 398.408 128.08 398.097 192.075L398.483 306.55C398.448 333.621 397.383 360.63 398.574 387.696L291.373 475.68C289.599 471.533 288.12 467.219 286.572 462.982C288.691 461.411 290.612 459.681 292.556 457.905C290.825 450.028 288.459 442.056 286.198 434.313C293.881 431.223 302.363 431.336 309.827 427.517C316.871 423.913 321.953 417.18 329.257 414.085C337.849 410.445 340.184 418.252 346.695 420.273C347.832 420.626 349.03 420.608 350.046 419.898C350.711 419.433 351.21 418.743 351.284 417.941C351.815 412.218 341.591 402.813 338.233 398.423C344.509 402.855 349.99 408.352 357.265 411.214C358.991 410.969 360.632 410.253 361.915 409.036C362.874 408.127 363.342 406.766 363.318 405.462C363.194 398.59 353.673 388.379 349.056 383.706C353.866 384.591 364.101 389.371 368.604 386.844C369.8 386.172 369.842 385.848 370.135 384.618C369.88 383.546 369.636 382.731 368.955 381.844C364.523 376.077 339.982 366.937 332.295 365.855C326.592 365.051 320.927 365.713 315.34 366.982C294.878 371.627 289.374 381.823 274.072 393.232L273.585 393.588C263.743 367.229 258.152 338.388 243.079 314.212C239.179 307.956 235.131 304.993 230.576 299.592C227.455 295.891 224.771 291.524 222.074 287.5C214.299 275.9 208.193 263.216 198.481 253.026C200.185 248.038 201.9 243.104 203.96 238.248C204.451 238.54 204.942 238.834 205.442 239.113C211.219 242.337 220.085 246.464 226.734 244.311C237.746 240.746 254.372 216.045 259.692 206.051C260.411 206.08 261.132 206.105 261.853 206.085C264.325 206.016 268.913 205.149 270.549 203.083C274.211 198.46 266.326 185.824 266.006 180.083C265.712 174.799 268.135 170.253 271.481 166.374C270.974 168.974 270.32 171.662 270.169 174.31C270.066 176.12 270.279 177.246 271.48 178.619C272.149 178.869 272.75 179.061 273.477 179.03C281.354 178.695 295.502 166.593 300.541 160.617C306.935 153.034 310.053 143.639 309.135 133.725C307.598 117.132 297.276 101.129 284.746 90.6162L284.756 89.9186L285.332 89.4902C286.55 88.5741 287.637 87.8997 288.297 86.4768C288.279 84.9158 288.102 84.028 286.927 82.9164C275.657 72.2519 196.806 38.7176 182.339 39.6894C179.05 39.9103 175.913 41.0596 173.05 42.651C160.743 49.4923 133.583 75.1905 124.219 86.3367C113.407 99.2059 115.432 112.554 116.889 128.174C118.119 141.355 127.557 214.849 134.783 219.848C135.649 220.447 136.817 220.922 137.776 221.378C137.811 224.194 135.322 228.2 134.313 230.948C130.111 230.918 125.834 231.042 121.675 231.69C116.272 238.415 112.862 246.383 107.945 253.411C104.514 258.315 100.464 262.772 97.0269 267.688C88.8979 279.314 77.0499 300.001 71.6598 313.07C67.4363 323.31 66.4952 334.436 64.1994 345.169C60.209 363.824 55.5581 382.211 52.0844 400.999C50.7354 408.63 49.2442 416.235 47.6114 423.811C46.2218 430.291 44.1271 437.368 43.9669 444.001C46.5457 446.939 53.3321 452.114 54.7305 454.647C55.244 455.577 59.2861 488.27 59.791 491.924C49.22 488.682 38.6885 485.312 28.1986 481.816C18.92 478.716 9.51034 475.251 0 472.973L0 0Z"/>
	<path fill="#9F8BE8" d="M398.363 0L1024 0L1024 737.469C1001.33 731.425 979.214 722.915 956.602 716.575C955.954 704.62 957.608 692.106 955.836 680.274C958.519 678.934 961.192 677.956 964.034 677.013C969.783 679.035 976.288 681.2 982.459 680.855C986.678 680.619 989.722 678.32 992.483 675.281C999.821 667.208 1009.81 647.528 1012.28 636.536C1012.72 634.572 1012.52 632.368 1012.44 630.367C1008.83 624.886 1002.58 614.592 1000.96 608.423C999.539 603.008 1000.24 595.977 999.997 590.3C999.722 583.942 999.101 577.627 998.44 571.298C995.717 545.213 992.567 506.539 982.771 482.816C978.066 471.421 970.29 459.822 961.354 451.316C951.399 441.839 940.252 432.972 929.24 424.751C923.662 420.587 917.805 416.777 912.398 412.393C916.676 412.067 920.48 411.136 924.373 409.309C933.271 405.131 940.654 397.182 943.995 387.908C947.251 378.869 946.388 369.708 942.305 361.096C936.426 348.699 929.023 343.677 916.545 339.004C914.554 338.258 914.496 337.341 913.718 335.538L914.836 334.638C914.99 334.574 915.147 334.518 915.298 334.446C926.304 329.208 933.918 319.145 938.193 308.076C941.957 298.328 941.176 288.524 936.922 279.058C930.817 265.469 912.635 244.068 900.747 234.822C894.808 230.203 887.781 226.263 880.74 223.607C877.622 222.431 873.336 221.093 870.18 222.831C868.78 223.602 868.465 225.495 868.048 226.915C865.734 226.509 863.46 225.984 861.174 225.452C861.821 223.996 862.696 222.54 862.571 220.908C860.461 218.15 856.304 217.776 853.061 217.35C832.347 214.635 816.112 224.651 800.35 236.811C795.484 240.565 791.831 245.757 786.706 249.098C769.25 260.476 746.78 266.164 743.657 290.419C742.067 302.768 748.307 316.726 755.782 326.312C757.079 327.975 758.226 329.179 760.192 329.99C761.443 330.008 762.339 329.929 763.287 329.003C764.168 328.143 764.586 326.628 764.99 325.496L765.352 324.364C766.501 324.157 767.664 324.028 768.751 324.604C769.688 325.101 770.109 325.706 770.199 326.729C770.342 328.365 770.105 330.101 770.214 331.779C770.386 350.754 773.277 368.841 782.705 385.582C785.234 390.073 788.124 394.668 791.85 398.277C793.413 399.79 795.154 401.181 796.916 402.451C783.376 407.664 756.198 421.799 746.503 431.711C744.085 434.184 742.401 436.869 741.022 440.015C735.687 452.186 729.48 482.615 727.59 496.24C663.053 478.234 598.632 459.814 534.33 440.984C526.61 444.143 520.505 450.273 512.854 453.714L512.623 453.131C510.517 447.669 509.372 441.861 507.548 436.297C501.857 418.944 492.28 400.969 476.737 390.518C478.798 388.755 480.744 386.866 480.938 383.987C481.047 382.372 480.2 381.043 479.072 379.978C471.587 372.908 450.613 371.789 441.026 372.379C426.394 373.279 410.817 379.755 398.574 387.696C397.383 360.63 398.448 333.621 398.483 306.55L398.097 192.075C398.408 128.08 397.065 63.9763 398.363 0Z"/>
	<path fill="#12062B" d="M284.756 89.9186C278.605 86.3719 273.077 82.3201 266.709 79.047C254.193 72.6133 191.136 44.2771 180.395 47.1139C170.072 49.8405 131.359 86.7155 125.853 96.6905C123.659 100.665 123.398 105.362 123.287 109.812C122.817 128.568 126.491 147.707 129.342 166.183C131.785 182.013 133.807 199.047 138.712 214.326C138.923 214.997 139.15 215.661 139.394 216.32C140.239 211.469 141.489 192.721 144.372 190.329C144.885 189.902 145.905 190.001 146.507 190.168C146.658 190.21 147.474 190.657 147.616 190.848C149.518 193.403 150.643 199.051 151.78 202.222C154.259 209.132 158.049 217.166 162.72 222.862C169.831 212.181 176.915 201.454 184.65 191.21C190.709 183.186 197.557 175.539 203.207 167.24C207.688 160.657 208.847 153.004 214.394 146.805C217.859 142.933 222.531 139.679 227.699 138.71C231.554 137.986 235.597 138.556 238.869 140.802C242.681 143.419 244.486 147.725 245.219 152.145C246.71 161.151 244.649 160.289 241.999 167.257C241.951 167.373 241.923 167.498 241.857 167.604C241.003 168.959 239.738 169.974 238.199 170.373C236.891 170.712 235.898 170.492 234.727 169.864C233.405 167.081 237.918 156.644 239.05 153.106C237.999 150.571 237.235 148.022 234.887 146.389C232.887 144.999 230.53 144.408 228.146 145.013C223.332 146.234 219.016 151.315 216.55 155.481C211.782 163.537 210.39 174.37 212.664 183.394C213.528 184.304 214.45 185.227 215.205 186.229C216.037 187.334 215.909 188.411 215.693 189.712C214.812 190.985 214.707 191.076 213.267 191.643C211.684 191.54 210.637 191.267 209.386 190.239C205.461 187.014 205.243 181.846 204.971 177.198C195.076 187.038 184.134 204.534 175.772 216.081C172.633 220.415 169.397 225.679 165.243 229.096C164.19 229.962 163.404 230.538 161.996 230.235C156.528 229.057 150.201 215.387 147.801 210.584C146.412 218.407 142.913 225.6 141.115 233.29C145.945 234.503 150.878 234.889 155.758 235.818C165.445 237.663 184.812 242.176 191.896 248.746C195.597 242.171 197.015 234.249 200.989 227.94C202.325 225.818 203.809 223.978 206.346 223.405C207.157 223.725 207.51 223.646 207.918 224.494C209.162 227.077 207.548 229.931 206.592 232.381C211.668 234.872 217.63 237.942 223.455 237.349C234.502 236.223 246.432 211.211 253.477 203.187C256.773 199.432 260.315 199.532 264.972 199.208C264.359 198.07 263.77 196.921 263.203 195.759C250.384 169.509 270.053 163.076 276.91 142.675C280.58 131.753 277.717 120.963 272.789 110.913C272.687 123.88 269.358 137.383 263.69 149.018C260.844 154.86 255.949 165.505 249.225 167.573C247.27 168.174 245.768 167.133 244.089 166.255C245.965 161.73 249.125 159.138 252.07 155.38C257.826 148.034 261.103 138.36 263.366 129.425C264.4 125.344 264.97 121.335 265.355 117.149C265.804 112.282 264.981 99.0478 267.077 95.4795C268.368 95.2783 269.012 95.2224 270.18 95.8868C274.838 98.5362 279.408 106.831 281.222 111.688C283.49 117.764 285.649 124.061 285.946 130.593C286.135 135.222 285.514 139.849 284.112 144.265C281.791 151.587 275.301 160.931 277.759 168.977C277.99 169.732 277.933 169.522 278.669 169.868C283.848 167.272 294.498 158.188 297.125 153.199C298.779 150.058 300.308 146.981 301.069 143.48C303.753 131.136 297.798 116.792 290.578 106.995C288.519 104.201 282.78 98.3696 282.588 94.9855C282.484 93.1597 283.607 91.8614 284.746 90.6162C297.276 101.129 307.598 117.132 309.135 133.725C310.053 143.639 306.935 153.034 300.541 160.617C295.502 166.593 281.354 178.695 273.477 179.03C272.75 179.061 272.149 178.869 271.48 178.619C270.279 177.246 270.066 176.12 270.169 174.31C270.32 171.662 270.974 168.974 271.481 166.374C268.135 170.253 265.712 174.799 266.006 180.083C266.326 185.824 274.211 198.46 270.549 203.083C268.913 205.149 264.325 206.016 261.853 206.085C261.132 206.105 260.411 206.08 259.692 206.051C254.372 216.045 237.746 240.746 226.734 244.311C220.085 246.464 211.219 242.337 205.442 239.113C204.942 238.834 204.451 238.54 203.96 238.248C201.9 243.104 200.185 248.038 198.481 253.026C208.193 263.216 214.299 275.9 222.074 287.5C224.771 291.524 227.455 295.891 230.576 299.592C235.131 304.993 239.179 307.956 243.079 314.212C258.152 338.388 263.743 367.229 273.585 393.588L274.072 393.232C289.374 381.823 294.878 371.627 315.34 366.982C320.927 365.713 326.592 365.051 332.295 365.855C339.982 366.937 364.523 376.077 368.955 381.844C369.636 382.731 369.88 383.546 370.135 384.618C369.842 385.848 369.8 386.172 368.604 386.844C364.101 389.371 353.866 384.591 349.056 383.706C353.673 388.379 363.194 398.59 363.318 405.462C363.342 406.766 362.874 408.127 361.915 409.036C360.632 410.253 358.991 410.969 357.265 411.214C349.99 408.352 344.509 402.855 338.233 398.423C341.591 402.813 351.815 412.218 351.284 417.941C351.21 418.743 350.711 419.433 350.046 419.898C349.03 420.608 347.832 420.626 346.695 420.273C340.184 418.252 337.849 410.445 329.257 414.085C321.953 417.18 316.871 423.913 309.827 427.517C302.363 431.336 293.881 431.223 286.198 434.313C288.459 442.056 290.825 450.028 292.556 457.905C290.612 459.681 288.691 461.411 286.572 462.982C288.12 467.219 289.599 471.533 291.373 475.68L398.574 387.696C410.817 379.755 426.394 373.279 441.026 372.379C450.613 371.789 471.587 372.908 479.072 379.978C480.2 381.043 481.047 382.372 480.938 383.987C480.744 386.866 478.798 388.755 476.737 390.518C492.28 400.969 501.857 418.944 507.548 436.297C509.372 441.861 510.517 447.669 512.623 453.131L512.854 453.714C520.505 450.273 526.61 444.143 534.33 440.984C598.632 459.814 663.053 478.234 727.59 496.24C729.48 482.615 735.687 452.186 741.022 440.015C742.401 436.869 744.085 434.184 746.503 431.711C756.198 421.799 783.376 407.664 796.916 402.451C795.154 401.181 793.413 399.79 791.85 398.277C788.124 394.668 785.234 390.073 782.705 385.582C773.277 368.841 770.386 350.754 770.214 331.779C770.236 331.642 770.259 331.505 770.279 331.368C770.965 326.654 770.56 321.635 770.86 316.862C771.359 308.946 774.015 281.169 777.34 275.113C786.724 273.782 791.806 276.023 801.55 271.785C810.294 267.982 824.212 255.926 832.797 250.004C837.742 246.593 842.968 244.317 848.053 241.242C853.173 238.146 861.577 231.601 867.848 233.376C868.765 234.292 868.826 234.406 869.089 235.676C868.238 238.417 865.824 239.598 863.416 240.842C856.432 244.447 849.079 247.287 846.386 255.334C842.771 266.138 844.279 279.996 849.565 289.955C858.61 306.996 875.226 317.953 893.336 323.396C899.397 325.218 901.642 323.376 908.528 327.048C910.222 329.9 911.952 332.73 913.718 335.538C914.496 337.341 914.554 338.258 916.545 339.004C929.023 343.677 936.426 348.699 942.305 361.096C946.388 369.708 947.251 378.869 943.995 387.908C940.654 397.182 933.271 405.131 924.373 409.309C920.48 411.136 916.676 412.067 912.398 412.393C917.805 416.777 923.662 420.587 929.24 424.751C940.252 432.972 951.399 441.839 961.354 451.316C970.29 459.822 978.066 471.421 982.771 482.816C992.567 506.539 995.717 545.213 998.44 571.298C999.101 577.627 999.722 583.942 999.997 590.3C1000.24 595.977 999.539 603.008 1000.96 608.423C1002.58 614.592 1008.83 624.886 1012.44 630.367C1012.52 632.368 1012.72 634.572 1012.28 636.536C1009.81 647.528 999.821 667.208 992.483 675.281C989.722 678.32 986.678 680.619 982.459 680.855C976.288 681.2 969.783 679.035 964.034 677.013C961.192 677.956 958.519 678.934 955.836 680.274C957.608 692.106 955.954 704.62 956.602 716.575C979.214 722.915 1001.33 731.425 1024 737.469L1024 744.968C1014.62 742.555 1005.58 738.948 996.284 736.227L912.939 711.874C904.113 709.293 886.065 702.492 877.905 701.768C871.187 701.172 858.597 704.685 851.424 705.683C851.465 710.32 850.732 716.186 851.761 720.607C856.516 723.296 862.972 724.484 868.236 726.003L906.264 736.895C913.709 738.998 923.097 740.596 929.828 744.332C930.851 744.9 931.321 745.523 931.83 746.552C931.966 748.724 931.426 749.611 930.047 751.183C921.903 760.466 911.079 767.418 902.537 776.325C910.045 777.845 917.561 780.611 924.906 782.83C938.205 786.764 951.478 790.79 964.722 794.907L996.561 804.673C1005.62 807.375 1015.25 809.97 1024 813.562L1024 820.212L1023.22 820.045C1011.95 817.595 1000.68 813.539 989.644 810.136L933.724 793.15C892.038 780.592 850.466 767.658 809.014 754.349L685.036 715.731C675.338 712.677 612.114 691.562 606.933 692.108C603.633 692.455 543.161 728.155 535.548 732.87C548.76 738.835 567.901 743.198 582.147 747.507L676.995 776.472L923.046 852.782L978.014 869.637C993.336 874.496 1008.59 879.77 1024 884.318L1024 891.252C987.262 881.048 951.044 868.716 914.614 857.474L644.757 774.427L569.487 751.59C557.306 747.852 537.19 740.827 525.115 739.094C515.7 745.025 505.995 750.724 496.726 756.842C488.281 762.417 480.111 768.649 471.462 773.877C496.178 780.72 520.792 787.927 545.296 795.494L591.103 808.862C607.799 813.719 624.44 818.764 641.022 823.996C647.885 826.155 655.029 828.081 661.756 830.613C663.402 831.233 665.052 831.924 666.326 833.166C668.2 843.124 666.929 865.934 667.113 877.107C667.605 926.07 667.719 975.036 667.453 1024L659.959 1024C660.322 1016.54 660.049 1008.97 660.045 1001.5L659.67 947.798C659.527 911.165 660.279 874.503 659.572 837.875C654.952 835.618 649.553 834.326 644.635 832.824L621.024 825.596C583.343 814.186 545.593 803.008 507.775 792.064C498.018 789.379 488.29 786.589 478.594 783.695C474.858 782.6 470.191 781.747 466.713 780.088C465.247 779.389 465.897 778.647 464.915 777.681C464.258 778.171 463.595 778.663 462.892 779.086C461.942 779.657 460.764 780.137 459.638 779.931C453.634 778.832 441.422 772.588 435.273 769.916C426.136 765.946 416.679 762.157 407.195 759.091C404.162 758.11 401.442 759.478 398.723 758.65C392.555 756.769 386.405 753.771 380.333 751.474C367.741 746.708 355.042 742.179 342.392 737.566C331.731 733.654 321.028 729.856 310.286 726.172C303.24 723.729 295.849 721.496 289.064 718.401C287.536 717.704 286.912 717.155 286.049 715.715C286.823 714.219 287.338 712.91 288.861 712.035C295.296 711.849 326.803 724.228 334.097 727.344C335.058 709.795 334.346 691.894 334.456 674.298C324.604 671.162 281.549 657.42 276.834 653.864C276.404 652.67 275.998 651.995 276.623 650.747C277.168 649.657 278.466 648.777 279.425 648.06C287.64 651.414 296.314 653.801 304.734 656.598C314.63 659.886 324.451 663.489 334.396 666.611C335.387 657.66 334.724 648.28 334.719 639.273L334.901 593.879C312.417 586.603 290.142 578.651 267.64 571.429C269.414 587.933 273.074 604.642 275.858 621.016C276.694 625.932 278.815 633.176 278.293 638.023C278.191 638.975 277.613 640.029 277.042 640.781C274.894 643.614 270.532 644.147 267.299 644.938C271.521 653.414 272.168 664.251 273.924 673.516C276.699 688.15 279.259 702.884 282.685 717.378C285.63 731.236 287.958 745.251 290.55 759.18L313.027 884.28C319.585 918.718 325.674 953.244 331.293 987.848C333.189 999.326 336.566 1012.74 337.667 1024L330.48 1024C325.05 995.727 320.665 967.28 315.648 938.935L280.738 746.692C276.786 724.475 272.589 702.303 268.148 680.178C265.948 668.81 264.056 657.251 261.32 646.005C207.01 656.263 132.368 637.158 84.7345 610.421C84.0386 628.101 82.2445 646.04 82.4745 663.704C82.9492 700.144 86.0572 736.423 87.9245 772.799C88.8761 794.878 89.3627 816.975 89.3841 839.075C89.2662 883.883 86.1423 928.958 82.0306 973.567C80.4796 990.394 78.0483 1007.15 76.7741 1024L69.4794 1024C69.245 1018.14 70.6455 1011.7 71.3721 1005.88C72.4973 996.874 73.503 987.858 74.3891 978.829C77.1785 949.677 79.352 920.47 80.9082 891.227C82.743 849.347 82.6255 807.403 80.5561 765.534C79.2261 738.846 76.8558 712.199 75.6156 685.504C74.9998 672.249 75.6044 658.79 75.7742 645.529C75.8253 641.536 76.2828 637.571 75.9925 633.577C71.6737 629.628 12.6297 613.964 0.749409 608.513L0 608.165L0 601.366C8.83001 603.638 17.543 606.754 26.2442 609.488C43.1855 614.81 59.9754 620.202 76.7812 625.945C77.7125 620.412 78.0038 613.937 77.7324 608.328C77.5699 604.969 72.5244 604.582 69.9204 601.911C66.9799 598.894 69.1684 577.046 69.3968 571.987C45.9478 565.934 23.3229 557.28 0 550.926L0 543.679C6.4294 545.017 12.7631 547.285 19.0277 549.249L49.4791 558.783C55.9402 560.797 62.4232 562.963 69.1074 564.113C69.1663 564.01 69.2535 563.92 69.284 563.806C70.1002 560.754 68.4193 505.29 67.6965 503.944C66.6538 502.003 61.9837 500.381 59.9521 499.583C52.1099 496.499 43.8353 494.434 35.8209 491.832C23.8332 487.939 11.9551 483.656 0 479.653L0 472.973C9.51034 475.251 18.92 478.716 28.1986 481.816C38.6885 485.312 49.22 488.682 59.791 491.924C59.2861 488.27 55.244 455.577 54.7305 454.647C53.3321 452.114 46.5457 446.939 43.9669 444.001C44.1271 437.368 46.2218 430.291 47.6114 423.811C49.2442 416.235 50.7354 408.63 52.0844 400.999C55.5581 382.211 60.209 363.824 64.1994 345.169C66.4952 334.436 67.4363 323.31 71.6598 313.07C77.0499 300.001 88.8979 279.314 97.0269 267.688C100.464 262.772 104.514 258.315 107.945 253.411C112.862 246.383 116.272 238.415 121.675 231.69C125.834 231.042 130.111 230.918 134.313 230.948C135.322 228.2 137.811 224.194 137.776 221.378C136.817 220.922 135.649 220.447 134.783 219.848C127.557 214.849 118.119 141.355 116.889 128.174C115.432 112.554 113.407 99.2059 124.219 86.3367C133.583 75.1905 160.743 49.4923 173.05 42.651C175.913 41.0596 179.05 39.9103 182.339 39.6894C196.806 38.7176 275.657 72.2519 286.927 82.9164C288.102 84.028 288.279 84.9158 288.297 86.4768C287.637 87.8997 286.55 88.5741 285.332 89.4902L284.756 89.9186ZM425.414 436.005C424.113 435.432 422.747 435.375 421.383 435.003C420.152 434.668 418.757 434.616 417.657 435.39C415.722 436.75 415.375 440.479 415.333 442.628C415.212 448.836 414.794 455.545 415.517 461.701C416.53 470.32 423.574 501.878 428.084 508.641C428.605 508.905 428.854 509.087 429.451 509.079C430.58 507.134 428.483 505.627 430.041 503.853C430.752 504.17 431.354 504.526 431.998 504.963L432.74 504.519C442.634 501.33 465.305 487.483 474.255 481.376C474.337 477.528 474.599 473.76 473.478 470.028C472.716 467.487 471.302 464.915 468.834 463.688C462.127 460.356 438.953 475.362 431.226 478.259L430.896 478.093C428.989 478.708 428.167 478.455 426.272 477.878L426.16 477.217C428.923 474.802 433.289 473.698 435.586 470.975C435.783 470.742 435.967 470.498 436.157 470.259C444.149 465.481 454.729 460.208 463.319 456.6C465.997 457.333 468.319 458.19 470.807 459.435C468.05 445.282 465.766 432.249 459.182 419.195C455.687 423.855 451.974 428.781 447.331 432.37C441.579 436.817 432.396 436.937 425.414 436.005ZM441.078 509.867C437.508 509.954 429.861 515.321 427.291 517.932C426.881 518.349 426.618 518.596 426.423 519.141C423.293 521.965 418.504 524.103 414.817 526.32C408.674 530.021 402.596 533.83 396.587 537.746L443.315 698.51L455.722 741.351C458.513 750.915 461.726 760.234 463.239 770.117C470.699 766.076 477.437 761.453 484.494 756.792L520.895 732.903C529.664 727.261 538.644 722.37 547.665 717.167C559.294 710.343 570.972 703.601 582.696 696.941C595.947 689.461 608.871 681.307 622.555 674.639C617.12 657.59 608.846 641.181 602.412 624.441L552.16 495.973C546.413 481.225 540.32 466.605 534.836 451.759C528.627 455.554 519.972 461.006 514.709 465.833C515.967 467.576 516.933 469.392 517.386 471.515C517.858 473.723 517.466 475.461 516.251 477.322C515.135 478.003 514.595 478.477 513.209 478.064C510.02 477.112 509.092 472.895 508.061 470.167C499.598 474.755 491.56 480.071 483.391 485.146C469.577 493.729 455.506 502.355 441.078 509.867ZM631.82 674.932L631.677 674.343C629.561 665.875 622.56 652.834 627.201 644.456C628.219 642.618 630.062 641.748 632.035 641.26C642.543 638.662 682.761 654.526 692.363 660.773C704.873 668.911 710.298 682.224 715.286 695.631C717.551 701.72 719.765 707.93 721.053 714.308C721.36 715.825 721.539 717.281 721.519 718.828C733.325 723.68 745.642 726.994 757.787 730.858C774.265 736.101 790.58 741.64 807.213 746.405C807.456 734.155 807.225 721.892 807.279 709.64C807.545 681.748 807.651 653.855 807.597 625.962C807.649 602.145 808.759 578.145 807.966 554.352C775.49 545.96 743.365 536.312 711.135 527.024L627.616 503.115C610.157 497.932 592.535 493.331 575.074 488.142C567.991 486.037 560.721 484.32 553.87 481.523L609.301 621.46C611.892 628.033 614.338 634.694 617.158 641.171C622.021 652.342 627.884 663.89 630.904 675.686C628.73 680.395 620.417 683.68 615.985 686.1L616.355 686.792C621.135 688.248 633.679 692.943 637.988 693.018C639.183 689.881 633.309 678.577 631.82 674.932ZM127.295 238.479C123.763 239.606 122.154 242.918 120.53 246.068C118.495 250.018 116.799 254.169 115.081 258.265C116.184 259.495 117.308 260.844 118.747 261.688C129.121 267.77 153.162 266.965 165.618 268.86C178.75 270.858 193.272 274.605 204.736 281.567C207.521 283.095 210.189 284.719 212.848 286.456C208.115 278.729 203.522 269.972 197.67 263.051C188.135 251.776 171.109 246.875 157.291 243.554C153.007 242.524 148.63 241.416 144.276 240.773C138.819 239.967 132.459 240.418 127.295 238.479ZM838.425 254.474L837.799 255.058C834.015 258.554 829.789 261.584 825.683 264.689C814.091 273.453 799.994 283.825 784.713 283.371C783.944 283.348 784.056 283.325 783.159 283.151C781.756 285.073 777.643 327.697 777.637 331.802C777.628 339.052 778.614 346.46 779.74 353.619C782.245 369.548 788.317 387.819 802.085 397.583C809.239 402.656 817.936 404.812 826.601 403.22C838.029 401.12 847.997 395.454 856.913 388.28C860.435 384.88 864.012 381.506 867.094 377.692C871.268 372.526 874.807 366.904 878.905 361.69C882.709 362.712 886.15 363.577 890.126 363.506C897.361 359.888 904.059 355.221 906.843 347.186C908.042 343.722 908.083 340.127 906.436 336.803C905.266 334.442 903.414 332.66 901.454 330.948C899.266 331.349 896.698 331.624 894.756 332.757C891.149 334.861 882.933 346.064 881.22 346.195C880.327 346.264 878.91 345.718 878.216 345.22C877.491 344.699 877.482 344.163 877.2 343.361C877.846 337.735 887.88 329.433 886.701 327.523C871.292 325.341 857.992 313.682 848.946 301.579C842.678 293.191 837.407 282.919 836.644 272.299C836.378 268.592 837.246 263.628 837.82 259.92C838.025 258.598 839.104 255.5 838.425 254.474ZM109.1 263.556C100.571 273.925 94.7977 285.096 88.2459 296.704C85.8175 301.006 82.8327 305.129 80.8404 309.654C78.302 315.419 76.3646 321.551 74.9225 327.679C67.4321 359.505 69.9267 385.349 72.2784 417.438C73.5564 435.437 74.5786 453.454 75.3447 471.483C76.2553 501.624 76.6822 531.778 76.6253 561.932C76.5395 574.036 75.9872 586.125 75.867 598.222C91.9721 605.489 107.103 614.329 123.644 620.752C161.666 635.517 217.155 646.99 257.614 639.54C261.486 638.827 265.939 638.31 269.623 636.963C270.858 636.511 270.447 636.889 270.962 635.748C268.72 615.445 263.883 593.75 260.313 573.496C258.346 562.343 254.77 533.124 250.479 523.909C245.821 513.904 235.827 506.52 231.197 496.535C226.326 499.055 206.711 504.079 201.708 502.039C199.647 501.198 198.479 497.759 197.761 495.771C195.207 488.703 193.356 481.24 191.174 474.041L179.28 435.871C177.622 430.82 169.961 408.898 171.884 404.963C172.242 404.23 172.886 404.192 173.591 403.905C175.143 404.051 176.755 404.431 177.714 405.809C180.139 409.294 186.495 433.918 188.289 439.864C191.898 451.828 195.807 463.715 199.579 475.629C201.638 482.13 203.435 488.801 205.7 495.223C234.109 491.814 263.266 475.792 283.571 455.745L284.075 455.256L284.373 454.958C278.102 431.961 271.246 409.127 263.813 386.479C257.18 365.861 250.609 344.431 240.678 325.123C237.45 318.848 233.686 311.74 227.714 307.711C206.536 316.371 192.154 340.946 183.598 361.225C181.919 365.107 180.545 369.113 179.49 373.208C178.239 377.999 176.727 393.283 172.653 395.654C171.526 395.503 170.76 395.091 170.006 394.204C167.974 391.814 168.462 388.009 168.978 385.166C173.784 358.7 191.948 322.215 214.778 306.599C217.672 304.619 220.742 302.869 223.769 301.102L223.049 300.762C217.215 297.957 211.882 294.107 206.343 290.773C197.322 285.418 187.601 281.341 177.458 278.659C159.377 273.696 135.005 276.186 119.416 269.864C115.592 268.314 112.664 265.469 109.1 263.556ZM915.018 346.26C912.02 355 908.433 361.753 899.705 366.002C897.097 367.271 894.348 368.336 891.664 369.431C890.743 376.372 888.017 391.392 892.597 397.082C895.525 400.719 903.027 405.153 907.671 405.54C909.695 405.708 911.687 405.236 913.642 404.771C921.844 402.527 929.928 397.887 934.359 390.39C938.035 384.172 939.457 375.904 937.572 368.91C935.266 360.353 929.092 353.136 921.375 348.927C919.362 347.829 917.163 347.058 915.018 346.26ZM880.216 371.023C872.075 387.375 855.426 401.468 838.166 407.257C834.72 408.413 831.179 409.304 827.664 410.22C826.732 417.833 824.96 425.32 822.381 432.543C820.691 437.283 818.548 442.134 817.36 447.009C814.482 458.815 820.64 482.674 825.105 493.727C829.782 489.933 833.95 485.105 838.155 480.772C849.3 469.284 859.957 457.221 870.576 445.237C873.997 441.376 877.182 437.276 880.737 433.541C883.796 419.471 881.514 402.948 881.635 388.533C881.685 382.569 882.831 376.891 882.981 371.014C881.948 370.652 881.451 370.891 880.399 371.028C880.338 371.036 880.277 371.025 880.216 371.023ZM321.548 372.616C306.951 376.008 296.755 382.064 285.627 392.009C282.337 394.949 278.771 398.039 276.233 401.676C278.746 410.395 281.015 419.343 284.056 427.887C290.283 425.242 297.159 425.232 303.364 422.594C316.788 416.886 320.236 404.894 337.582 407.321C333.03 404.06 326.608 398.332 320.668 399.328C314.557 400.352 312.65 405.103 304.408 403.884C303.474 402.516 303.301 401.869 303.185 400.215C303.386 399.744 303.448 399.184 303.788 398.801C305.681 396.665 317.065 392.368 320.039 391.177C325.979 388.798 330.417 387.511 336.576 390.205C343.248 393.124 349.866 398.815 355.328 403.601C348.441 393.46 340.891 386.456 328.533 383.653C324.712 384.813 320.837 385.945 317.198 387.611C314.775 388.721 312.317 390.605 309.747 391.26C308.365 391.613 306.962 391.6 305.672 390.941C304.876 390.534 304.749 390.074 304.298 389.349C304.215 388.071 304.52 387.279 305.322 386.299C309.579 381.094 325.484 375.626 332.28 375.203C333.694 375.115 335.747 375.478 336.975 374.847C332.07 371.181 326.712 373.975 321.548 372.616ZM450.62 379.303C437.498 379.465 426.686 381.31 414.734 387.06C405.821 391.348 397.263 397.288 389.476 403.395C384.249 407.494 379.643 412.337 374.598 416.652C352.972 435.13 330.96 453.15 308.576 470.702C302.491 475.451 296.28 481.683 289.664 485.548C288.445 486.26 287.826 486.379 286.433 486.262C283.119 481.393 283.174 473.695 280.704 468.115C274.36 472.009 268.886 476.967 262.779 481.175C257.192 485.024 251.51 487.685 245.422 490.612C243.213 491.674 241.672 493.29 239.17 493.594C238.786 494.105 238.359 494.356 238.48 495.044C238.894 497.396 242.052 500.189 243.521 502.151C253.279 515.181 263.294 527.864 274.668 539.552C276.554 541.491 278.696 544.126 280.933 545.588C282.071 546.332 282.287 546.215 283.495 545.878C295.649 536.055 306.765 524.243 317.456 512.856C335.463 493.679 352.637 473.759 370.182 454.166C376.953 446.605 386.831 432.803 394.632 427.552C409.337 429.245 426.517 430.669 441.217 428.802C447.165 423.828 463.232 404.384 464.11 396.669C464.205 395.836 464.066 395.102 463.899 394.289C457.753 390.116 435.227 399.659 430.574 393.258C430.586 392.115 430.535 391.885 431.388 391.019C437.855 384.452 470.582 388.216 473.857 384.111C472.666 382.801 471.307 382.752 469.606 382.364C463.654 381.004 456.786 379.265 450.62 379.303ZM62.6926 382.86C59.7611 393.623 58.5871 405.16 56.5787 416.151C55.1092 424.193 52.761 432.462 51.8006 440.523C51.685 441.493 52.025 442.147 52.5103 442.956C54.3745 446.065 57.673 448.554 60.3753 450.914C62.453 452.495 64.5104 454.117 66.6262 455.645C66.2067 437.371 65.2794 419.112 63.8454 400.888C63.4482 395.189 63.7931 388.385 62.6926 382.86ZM469.801 398.809C469.369 401.085 468.991 403.388 468.431 405.636C477.898 421.811 485.225 441.547 486.232 460.329C490.278 459.349 496.227 456.714 500.286 457.367L501.17 457.738L502.374 457.208C502.275 453.658 499.708 449.024 498.411 445.692C491.829 428.791 485.73 413.66 472.209 400.908C471.45 400.191 470.664 399.399 469.801 398.809ZM889.717 403.057C889.689 403.208 889.659 403.359 889.633 403.51C887.84 414.066 890.963 426.222 887.201 436.39C885.517 440.94 877.792 447.79 874.426 451.558C860.532 467.11 847.054 482.34 831.891 496.705C829.201 499.253 818.661 507.15 817.486 509.21C821.028 510.461 856.569 510.974 861.886 510.558L861.781 510.191L862.43 510.307C862.57 508.374 861.872 506.679 861.277 504.873C859.455 498.743 853.243 479.433 856.255 474.558C856.694 473.847 857.428 473.368 858.232 473.129C862.988 471.718 874.657 481.638 878.602 484.687C886.966 491.149 894.276 498.81 902.516 505.434L902.493 504.701C902.292 496.966 903.451 489.096 903.821 481.359C904.634 464.359 904.776 430.854 898.708 415.069C897.258 411.296 895.119 408.194 892.218 405.393C891.418 404.62 890.597 403.735 889.717 403.057ZM804.504 408.13C792.185 410.588 754.995 430.366 748.418 440.394C744.651 446.137 735.145 488.429 734.645 496.283L734.543 497.796C742.495 501.756 765.063 507.278 774.586 509.85C799.494 516.578 824.674 523.141 849.345 530.679C850.183 532.656 851.048 534.611 851.259 536.771C852.67 551.263 851.663 569.093 851.542 583.819C851.293 609.579 851.291 635.341 851.538 661.1C857.467 658.544 862.969 654.768 868.489 651.418L894.558 635.579C899.686 632.435 905.642 629.802 910.348 626.086C911.391 616.984 912.944 604.538 915.291 595.781C916.364 591.781 918.816 588.321 919.511 584.224C924.834 552.829 925.229 496.511 952.524 475.337C954.084 474.126 956.459 472.357 958.563 472.437C959.815 472.485 960.581 472.985 961.462 473.799C961.778 475.018 961.783 475.546 961.118 476.663C959.616 479.183 956.573 481.17 954.494 483.217C950.887 486.769 947.804 491.142 945.276 495.511C937.409 509.112 933.521 529.161 931.617 544.704C931.154 548.476 931.079 552.305 930.571 556.066C929.366 564.996 927.106 574.133 927.537 583.222C933.933 581.738 940.205 580.363 946.801 580.438C951.129 580.905 955.635 581.193 959.897 582.068C972.566 584.668 983.895 592.957 993.609 601.131C992.24 570.381 988.625 539.772 982.794 509.549C981.278 502.055 979.994 493.981 976.991 486.914C971.552 474.114 961.987 461.518 951.81 452.193C943.514 444.565 934.761 437.453 925.597 430.894C919.206 426.37 912.582 422.281 906.266 417.614C908.077 422.809 909.253 427.697 909.897 433.161C911.404 445.952 912.374 502.464 906.915 512.713C906.522 513.452 906.023 513.919 905.398 514.459C903.889 514.808 903.431 514.649 902.096 513.854C897.228 510.956 892.864 506.133 888.583 502.419C880.51 495.416 871.927 488.148 863.18 481.991C864.554 489.573 871.453 511.056 870.796 516.045C869.529 517.649 868.892 518.002 866.85 518.179C861.997 518.601 856.848 517.623 851.953 517.56C838.426 517.385 824.475 518.116 811.018 516.791C808.822 516.575 806.584 516.302 804.705 515.07C804.348 513.754 804.242 513.107 804.865 511.842C806.27 508.989 810.537 506.362 813.063 504.355C807.002 502.701 786.762 499.017 783.624 493.625C783.038 490.468 790.36 479.824 792.377 476.232C780.934 481.143 769.848 486.475 758.717 492.034L754.376 488.626C756.59 481.691 761.01 474.683 764.638 468.354C776.75 447.223 789.657 425.464 808.333 409.399L807.958 408.84C807.764 408.834 807.57 408.831 807.376 408.822C806.246 408.772 805.502 408.681 804.504 408.13ZM819.073 410.82C803.762 420.203 788.255 442.429 779.361 457.885C775.35 464.856 771.91 472.312 767.679 479.121C773.312 476.803 793.45 467.383 797.723 466.793C798.535 466.681 798.875 466.581 799.531 466.106C800.313 464.019 800.728 460.573 802.92 459.555C803.786 459.153 804.707 459.251 805.628 459.285C806.742 460.166 807.236 460.834 807.509 462.274C807.692 463.239 807.453 464.303 807.253 465.238C803.357 474.273 797.419 481.947 792.787 490.572C796.223 492.428 814.715 498.326 817.914 497.79C818.415 493.882 814.963 486.77 813.874 482.698C812.139 476.213 807.895 457.508 808.435 451.259C808.456 451.019 808.467 450.778 808.493 450.538C808.903 446.752 811.116 442.558 812.462 438.998C814.716 433.04 820.603 416.917 820.07 411.228L819.073 410.82ZM401.25 435.252C396.414 447.801 394.328 461.901 393.294 475.286C392.863 480.866 392.997 486.847 391.973 492.33C394.902 490.698 397.923 489.141 400.763 487.363C405.354 485.151 410.014 483.049 414.556 480.741C409.934 466.417 410.773 450.761 411.401 435.908C408.067 435.599 404.52 435.754 401.25 435.252ZM389.871 440.891C378.864 454.492 367.431 467.509 356.009 480.752C339.621 499.752 304.6 541.544 283.843 552.817C273.853 551.225 266.798 542.017 260.476 534.736C261.385 538.802 265.198 563.217 267.143 564.816C278.966 566.974 290.926 571.648 302.268 575.586C313.2 579.321 324.162 582.971 335.151 586.535C334.002 579.85 335.234 572.274 335.361 565.436C335.644 550.142 334.869 534.662 336.676 519.459C338.13 519.166 339.511 518.805 340.876 518.221C345.84 516.095 380.12 498.1 382.264 495.771C383.12 491.547 382.674 486.869 382.876 482.555C383.389 471.626 384.483 455.098 388.735 445.145C389.286 443.855 390.054 442.314 389.871 440.891ZM541.64 450.701C545.028 458.284 547.953 466.036 550.907 473.793C575.606 479.516 599.897 487.592 624.228 494.709L707.864 518.268C719.389 521.596 806.221 548.027 810.818 547.031C815.164 546.089 823.598 540.487 829.65 538.786L839.696 534.623C812.634 529.128 786.316 520.399 759.749 512.965L599.823 467.591C580.796 462.239 560.771 454.721 541.64 450.701ZM63.5305 461.651C63.1811 466.062 64.8735 487.481 67.4052 490.641L67.8325 490.282L67.7305 489.434C67.866 481.12 67.8695 471.857 66.783 463.614C65.722 462.803 64.7163 462.246 63.5305 461.651ZM414.902 484.912C414.74 485.032 414.58 485.155 414.417 485.272C409.693 488.68 404.192 490.648 399.081 493.35C391.821 497.19 384.989 501.71 377.602 505.381C368.894 509.709 359.631 513.191 351.037 517.658C349.797 518.303 349.108 519.04 348.542 520.324C348.82 521.334 348.785 521.141 349.651 521.628C354.053 524.105 359.936 525.882 364.878 526.959C372.375 528.741 385.28 533.253 392.614 532.181C394.141 531.957 395.482 531.194 396.774 530.394C401.263 527.617 421.187 514.775 423.951 511.681C423.159 507.38 420.805 503.847 419.311 499.826C418.399 497.371 417.95 494.625 417.35 492.08C416.837 489.906 416.517 486.477 414.902 484.912ZM343.318 526.448L342.342 650.583C342.077 676.981 341.067 703.368 341.541 729.768L370.768 740.416C379.666 743.61 388.673 746.455 397.245 750.492L398.459 750.785C398.884 749.133 366.058 570.975 362.841 552.777C361.618 545.855 360.694 538.871 359.571 531.93C354.291 530.503 347.956 529.414 343.318 526.448ZM367.256 534.075C372.444 558.293 376.36 582.918 380.566 607.33L395.221 689.711L401.196 722.343C402.912 731.927 404.424 742.195 407.331 751.485C419.711 754.586 432.374 760.67 444.136 765.691C448.294 767.466 452.508 769.681 456.83 770.993C453.916 762.407 451.63 753.609 449.035 744.924C441.017 718.082 433.755 691.025 426.069 664.09L401.716 580.882C397.718 567.34 393.457 553.974 389.8 540.325C385.523 539.014 381.172 538.285 376.875 537.081C373.683 536.186 370.477 534.732 367.256 534.075ZM843.555 538.948C834.538 544.362 824.324 547.562 815.396 553.184L814.751 675.774L814.512 718.875C814.48 728.518 814.866 738.478 813.886 748.071C819.835 750.264 825.769 752.533 831.865 754.29C835.809 755.48 839.693 756.741 843.56 758.162C844.408 712.404 843.436 666.603 844.021 620.843L844.306 568.239C844.373 561.229 844.217 554.24 844.222 547.237C844.224 544.605 844.599 541.951 844.171 539.344L843.555 538.948ZM946.269 587.761C938.111 588.302 930.429 590.03 922.882 593.22C921.555 601.393 918.488 610.882 918.796 619.097L919.217 619.553C923.923 618.712 928.392 617.046 933.144 616.294C943.784 614.611 955.979 618.422 964.685 624.53C975.503 632.12 982.936 644.684 986.1 657.406C986.159 657.572 986.227 657.734 986.275 657.903C987.211 661.159 986.321 665.952 987.701 668.875C993.635 664.916 1001.9 643.115 1006.08 636.128C1000.42 618.252 987.033 601.848 970.233 593.272C963.386 589.777 953.972 587.419 946.269 587.761ZM938.859 623.291C933.614 623.394 929.215 624.35 924.407 626.443C916.349 629.951 908.78 635.46 901.289 640.085C885.041 650.117 868.618 660.763 851.556 669.345C850.432 678.962 851.482 689.2 850.98 698.943C860.786 696.287 871.158 694.867 881.14 692.9C908.699 686.96 958.096 677.645 977.313 656.685C972.957 642.898 969.183 634.806 955.693 627.792C950.475 625.079 945.171 623.492 939.316 623.01L938.859 623.291ZM637.538 648.247C635.795 648.411 634.865 648.555 633.458 649.628C632.55 651.075 632.542 651.822 632.91 653.482C634.275 659.638 637.013 665.81 639.14 671.758C642.061 679.928 644.713 688.38 648.19 696.325C654.072 698.739 660.393 700.34 666.478 702.182C681.207 706.642 696.419 710.685 710.859 715.946L712.734 716.529L713.362 716.161C712.17 709.774 710.079 703.594 707.921 697.479C703.322 684.443 699.788 675.133 687.926 666.984C676.693 659.267 661.949 655.929 649.162 651.661C645.96 650.593 640.807 647.681 637.538 648.247ZM979.677 665.328C977.222 666.861 972.499 669.036 971.267 671.717C972.113 672.292 972.881 672.407 973.874 672.599C975.323 673.195 977.367 673.58 978.879 673.052C979.814 672.726 980.836 671.343 981.113 670.395C981.537 668.94 981.259 666.933 980.478 665.655L979.677 665.328ZM948.137 682.939C935.888 687.734 923.417 691.012 910.651 694.084C904.937 695.459 898.836 696.455 893.271 698.267C899.117 699.616 904.69 701.829 910.479 703.214C915.472 704.75 946.442 714.61 949.257 714.212C948.895 706.553 948.809 698.974 948.975 691.307C949.031 688.729 950.2 685.596 949.386 683.182L948.137 682.939ZM851.205 728.039C851.625 738.412 850.424 749.384 851.664 759.623C856.858 763.271 887.932 771.832 895.581 773.662C899.049 769.401 903.173 765.847 907.188 762.12C911.841 758.022 917.115 754.007 921.302 749.449C911.642 745.888 901.555 743.404 891.721 740.356C878.341 736.208 864.783 731.425 851.205 728.039Z"/>
	<path fill="#533382" d="M139.394 216.32C139.15 215.661 138.923 214.997 138.712 214.326C133.807 199.047 131.785 182.013 129.342 166.183C126.491 147.707 122.817 128.568 123.287 109.812C123.398 105.362 123.659 100.665 125.853 96.6905C131.359 86.7155 170.072 49.8405 180.395 47.1139C191.136 44.2771 254.193 72.6133 266.709 79.047C273.077 82.3201 278.605 86.3719 284.756 89.9186L284.746 90.6162C283.607 91.8614 282.484 93.1597 282.588 94.9855C282.78 98.3696 288.519 104.201 290.578 106.995C297.798 116.792 303.753 131.136 301.069 143.48C300.308 146.981 298.779 150.058 297.125 153.199C294.498 158.188 283.848 167.272 278.669 169.868C277.933 169.522 277.99 169.732 277.759 168.977C275.301 160.931 281.791 151.587 284.112 144.265C285.514 139.849 286.135 135.222 285.946 130.593C285.649 124.061 283.49 117.764 281.222 111.688C279.408 106.831 274.838 98.5362 270.18 95.8868C269.012 95.2224 268.368 95.2783 267.077 95.4795C264.981 99.0478 265.804 112.282 265.355 117.149C264.97 121.335 264.4 125.344 263.366 129.425C261.103 138.36 257.826 148.034 252.07 155.38C249.125 159.138 245.965 161.73 244.089 166.255L241.999 167.257C244.649 160.289 246.71 161.151 245.219 152.145C244.486 147.725 242.681 143.419 238.869 140.802C235.597 138.556 231.554 137.986 227.699 138.71C222.531 139.679 217.859 142.933 214.394 146.805C208.847 153.004 207.688 160.657 203.207 167.24C197.557 175.539 190.709 183.186 184.65 191.21C176.915 201.454 169.831 212.181 162.72 222.862C158.049 217.166 154.259 209.132 151.78 202.222C150.643 199.051 149.518 193.403 147.616 190.848C147.474 190.657 146.658 190.21 146.507 190.168C145.905 190.001 144.885 189.902 144.372 190.329C141.489 192.721 140.239 211.469 139.394 216.32Z"/>
	<path fill="#FEFEFE" d="M241.999 167.257L244.089 166.255C245.768 167.133 247.27 168.174 249.225 167.573C255.949 165.505 260.844 154.86 263.69 149.018C269.358 137.383 272.687 123.88 272.789 110.913C277.717 120.963 280.58 131.753 276.91 142.675C270.053 163.076 250.384 169.509 263.203 195.759C263.77 196.921 264.359 198.07 264.972 199.208C260.315 199.532 256.773 199.432 253.477 203.187C246.432 211.211 234.502 236.223 223.455 237.349C217.63 237.942 211.668 234.872 206.592 232.381C207.548 229.931 209.162 227.077 207.918 224.494C207.51 223.646 207.157 223.725 206.346 223.405C203.809 223.978 202.325 225.818 200.989 227.94C197.015 234.249 195.597 242.171 191.896 248.746C184.812 242.176 165.445 237.663 155.758 235.818C150.878 234.889 145.945 234.503 141.115 233.29C142.913 225.6 146.412 218.407 147.801 210.584C150.201 215.387 156.528 229.057 161.996 230.235C163.404 230.538 164.19 229.962 165.243 229.096C169.397 225.679 172.633 220.415 175.772 216.081C184.134 204.534 195.076 187.038 204.971 177.198C205.243 181.846 205.461 187.014 209.386 190.239C210.637 191.267 211.684 191.54 213.267 191.643C214.707 191.076 214.812 190.985 215.693 189.712C215.909 188.411 216.037 187.334 215.205 186.229C214.45 185.227 213.528 184.304 212.664 183.394C210.39 174.37 211.782 163.537 216.55 155.481C219.016 151.315 223.332 146.234 228.146 145.013C230.53 144.408 232.887 144.999 234.887 146.389C237.235 148.022 237.999 150.571 239.05 153.106C237.918 156.644 233.405 167.081 234.727 169.864C235.898 170.492 236.891 170.712 238.199 170.373C239.738 169.974 241.003 168.959 241.857 167.604C241.923 167.498 241.951 167.373 241.999 167.257Z"/>
	<path fill="#12062B" d="M861.174 225.452L860.544 225.447C854.976 225.346 849.548 224.052 843.849 224.342C827.903 225.154 809.199 238.278 797.775 249.052C795.274 251.411 792.929 254.173 790.094 256.135C773.57 267.572 751.49 271 751.044 295.799C750.841 307.063 756.882 316.016 764.121 324.141C764.85 324.959 764.583 324.537 764.99 325.496C764.586 326.628 764.168 328.143 763.287 329.003C762.339 329.929 761.443 330.008 760.192 329.99C758.226 329.179 757.079 327.975 755.782 326.312C748.307 316.726 742.067 302.768 743.657 290.419C746.78 266.164 769.25 260.476 786.706 249.098C791.831 245.757 795.484 240.565 800.35 236.811C816.112 224.651 832.347 214.635 853.061 217.35C856.304 217.776 860.461 218.15 862.571 220.908C862.696 222.54 861.821 223.996 861.174 225.452Z"/>
	<path fill="#12062B" d="M868.048 226.915C868.465 225.495 868.78 223.602 870.18 222.831C873.336 221.093 877.622 222.431 880.74 223.607C887.781 226.263 894.808 230.203 900.747 234.822C912.635 244.068 930.817 265.469 936.922 279.058C941.176 288.524 941.957 298.328 938.193 308.076C933.918 319.145 926.304 329.208 915.298 334.446C915.147 334.518 914.99 334.574 914.836 334.638C914.29 332.27 912.688 329.885 911.557 327.722C913.948 325.789 916.727 324.357 919.272 322.632C924.245 319.263 927.838 313.936 930.179 308.476C933.683 300.303 934.053 291.758 930.641 283.465C924.348 268.171 902.115 243.315 887.919 234.992C881.68 231.335 874.678 229.662 868.048 226.915Z"/>
	<path fill="#533382" d="M764.99 325.496C764.583 324.537 764.85 324.959 764.121 324.141C756.882 316.016 750.841 307.063 751.044 295.799C751.49 271 773.57 267.572 790.094 256.135C792.929 254.173 795.274 251.411 797.775 249.052C809.199 238.278 827.903 225.154 843.849 224.342C849.548 224.052 854.976 225.346 860.544 225.447L861.174 225.452C863.46 225.984 865.734 226.509 868.048 226.915C874.678 229.662 881.68 231.335 887.919 234.992C902.115 243.315 924.348 268.171 930.641 283.465C934.053 291.758 933.683 300.303 930.179 308.476C927.838 313.936 924.245 319.263 919.272 322.632C916.727 324.357 913.948 325.789 911.557 327.722C912.688 329.885 914.29 332.27 914.836 334.638L913.718 335.538C911.952 332.73 910.222 329.9 908.528 327.048C901.642 323.376 899.397 325.218 893.336 323.396C875.226 317.953 858.61 306.996 849.565 289.955C844.279 279.996 842.771 266.138 846.386 255.334C849.079 247.287 856.432 244.447 863.416 240.842C865.824 239.598 868.238 238.417 869.089 235.676C868.826 234.406 868.765 234.292 867.848 233.376C861.577 231.601 853.173 238.146 848.053 241.242C842.968 244.317 837.742 246.593 832.797 250.004C824.212 255.926 810.294 267.982 801.55 271.785C791.806 276.023 786.724 273.782 777.34 275.113C774.015 281.169 771.359 308.946 770.86 316.862C770.56 321.635 770.965 326.654 770.279 331.368C770.259 331.505 770.236 331.642 770.214 331.779C770.105 330.101 770.342 328.365 770.199 326.729C770.109 325.706 769.688 325.101 768.751 324.604C767.664 324.028 766.501 324.157 765.352 324.364L764.99 325.496Z"/>
	<path fill="#9F8BE8" d="M115.081 258.265C116.799 254.169 118.495 250.018 120.53 246.068C122.154 242.918 123.763 239.606 127.295 238.479C132.459 240.418 138.819 239.967 144.276 240.773C148.63 241.416 153.007 242.524 157.291 243.554C171.109 246.875 188.135 251.776 197.67 263.051C203.522 269.972 208.115 278.729 212.848 286.456C210.189 284.719 207.521 283.095 204.736 281.567C193.272 274.605 178.75 270.858 165.618 268.86C153.162 266.965 129.121 267.77 118.747 261.688C117.308 260.844 116.184 259.495 115.081 258.265Z"/>
	<path fill="#FEFEFE" d="M856.913 388.28C847.997 395.454 838.029 401.12 826.601 403.22C817.936 404.812 809.239 402.656 802.085 397.583C788.317 387.819 782.245 369.548 779.74 353.619C778.614 346.46 777.628 339.052 777.637 331.802C777.643 327.697 781.756 285.073 783.159 283.151C784.056 283.325 783.944 283.348 784.713 283.371C799.994 283.825 814.091 273.453 825.683 264.689C829.789 261.584 834.015 258.554 837.799 255.058L838.425 254.474C839.104 255.5 838.025 258.598 837.82 259.92C837.246 263.628 836.378 268.592 836.644 272.299C837.407 282.919 842.678 293.191 848.946 301.579C857.992 313.682 871.292 325.341 886.701 327.523C887.88 329.433 877.846 337.735 877.2 343.361C877.482 344.163 877.491 344.699 878.216 345.22C878.91 345.718 880.327 346.264 881.22 346.195C882.933 346.064 891.149 334.861 894.756 332.757C896.698 331.624 899.266 331.349 901.454 330.948C903.414 332.66 905.266 334.442 906.436 336.803C908.083 340.127 908.042 343.722 906.843 347.186C904.059 355.221 897.361 359.888 890.126 363.506C886.15 363.577 882.709 362.712 878.905 361.69C874.807 366.904 871.268 372.526 867.094 377.692C864.012 381.506 860.435 384.88 856.913 388.28ZM787.001 297.199C785.649 297.484 784.189 297.724 783.255 298.861C782.338 299.975 782.409 300.476 782.511 301.809C783.321 302.97 783.889 303.924 785.407 304.169C792.45 305.304 789.765 302.801 797.736 307.139C798.66 307.641 799.291 308.334 800.026 309.072C801.856 308.897 803.086 308.84 804.574 307.704C805.175 306.655 805.371 306.402 804.992 305.15C804.02 301.93 798.37 299.168 795.505 298.161C792.777 297.201 790.511 296.974 787.645 297.162L787.001 297.199ZM839 303.254C837.886 303.351 836.775 303.471 835.659 303.531C832.943 303.677 827.45 305.256 825.679 307.392C825.043 308.158 824.885 308.787 824.674 309.732C825.037 311.444 825.082 311.641 826.311 312.872C829.301 313.339 833.783 310.694 837.033 310.219L837.515 310.17C841.732 309.774 845.852 311.354 849.884 310.833C850.678 309.822 850.931 309.249 851.138 307.98C850.678 306.444 850.178 305.647 848.724 304.877C845.835 303.347 842.23 303.006 839 303.254ZM789.632 316.02C788.124 317.403 786.666 318.781 785.282 320.289C784.8 323.285 783.786 327.232 785.592 329.966C786.565 331.439 788.115 332.216 789.82 332.424C790.571 332.516 791.328 332.555 792.083 332.593C794.987 330.122 796.583 327.869 796.942 323.98C797.132 321.921 796.819 319.89 795.494 318.234C794.457 316.938 793.043 316.096 791.362 316.013C790.785 315.985 790.208 316.001 789.632 316.02ZM842.293 323.406C839.54 324.981 838.072 326.375 837.183 329.5C836.486 331.948 836.401 334.876 837.843 337.085C838.59 338.229 839.896 339.351 841.263 339.647C842.679 339.953 843.897 339.68 845.272 339.382C847.316 338.25 848.506 336.382 849.096 334.132C849.81 331.411 849.664 328.267 848.125 325.841C847.399 324.698 846.358 323.792 845.022 323.462C844.203 323.259 843.131 323.333 842.293 323.406ZM801.237 330.931C797.765 334.598 794.213 344.742 794.293 349.828C794.315 351.234 794.739 351.957 795.698 352.978C796.898 353.526 797.804 353.736 799.09 353.914C801.576 350.905 806.975 337.33 806.514 333.714C806.413 332.918 805.805 332.505 805.296 331.932C803.882 331.392 802.738 331.119 801.237 330.931ZM811.807 364.717C806.805 365.254 802.568 366.261 799.297 370.44C797.952 372.158 797.074 374.139 796.178 376.111C798.172 380.372 800.309 383.666 804.954 385.391C808.715 386.787 812.918 387.094 816.89 387.38C821.247 387.362 824.242 387.39 827.884 384.815L829.436 379.77C828.472 374.533 826.707 370.866 822.17 367.659C819.637 365.868 814.935 364.349 811.807 364.717Z"/>
	<path fill="#9F8BE8" d="M75.867 598.222C75.9872 586.125 76.5395 574.036 76.6253 561.932C76.6822 531.778 76.2553 501.624 75.3447 471.483C74.5786 453.454 73.5564 435.437 72.2784 417.438C69.9267 385.349 67.4321 359.505 74.9225 327.679C76.3646 321.551 78.302 315.419 80.8404 309.654C82.8327 305.129 85.8175 301.006 88.2459 296.704C94.7977 285.096 100.571 273.925 109.1 263.556C112.664 265.469 115.592 268.314 119.416 269.864C135.005 276.186 159.377 273.696 177.458 278.659C187.601 281.341 197.322 285.418 206.343 290.773C211.882 294.107 217.215 297.957 223.049 300.762L223.769 301.102C220.742 302.869 217.672 304.619 214.778 306.599C191.948 322.215 173.784 358.7 168.978 385.166C168.462 388.009 167.974 391.814 170.006 394.204C170.76 395.091 171.526 395.503 172.653 395.654C176.727 393.283 178.239 377.999 179.49 373.208C180.545 369.113 181.919 365.107 183.598 361.225C192.154 340.946 206.536 316.371 227.714 307.711C233.686 311.74 237.45 318.848 240.678 325.123C250.609 344.431 257.18 365.861 263.813 386.479C271.246 409.127 278.102 431.961 284.373 454.958L284.075 455.256L283.571 455.745C263.266 475.792 234.109 491.814 205.7 495.223C203.435 488.801 201.638 482.13 199.579 475.629C195.807 463.715 191.898 451.828 188.289 439.864C186.495 433.918 180.139 409.294 177.714 405.809C176.755 404.431 175.143 404.051 173.591 403.905C172.886 404.192 172.242 404.23 171.884 404.963C169.961 408.898 177.622 430.82 179.28 435.871L191.174 474.041C193.356 481.24 195.207 488.703 197.761 495.771C198.479 497.759 199.647 501.198 201.708 502.039C206.711 504.079 226.326 499.055 231.197 496.535C235.827 506.52 245.821 513.904 250.479 523.909C254.77 533.124 258.346 562.343 260.313 573.496C263.883 593.75 268.72 615.445 270.962 635.748C270.447 636.889 270.858 636.511 269.623 636.963C265.939 638.31 261.486 638.827 257.614 639.54C217.155 646.99 161.666 635.517 123.644 620.752C107.103 614.329 91.9721 605.489 75.867 598.222Z"/>
	<path fill="#0F061D" d="M800.026 309.072C799.291 308.334 798.66 307.641 797.736 307.139C789.765 302.801 792.45 305.304 785.407 304.169C783.889 303.924 783.321 302.97 782.511 301.809C782.409 300.476 782.338 299.975 783.255 298.861C784.189 297.724 785.649 297.484 787.001 297.199L787.645 297.162C790.511 296.974 792.777 297.201 795.505 298.161C798.37 299.168 804.02 301.93 804.992 305.15C805.371 306.402 805.175 306.655 804.574 307.704C803.086 308.84 801.856 308.897 800.026 309.072Z"/>
	<path fill="#0F061D" d="M837.033 310.219C833.783 310.694 829.301 313.339 826.311 312.872C825.082 311.641 825.037 311.444 824.674 309.732C824.885 308.787 825.043 308.158 825.679 307.392C827.45 305.256 832.943 303.677 835.659 303.531C836.775 303.471 837.886 303.351 839 303.254C842.23 303.006 845.835 303.347 848.724 304.877C850.178 305.647 850.678 306.444 851.138 307.98C850.931 309.249 850.678 309.822 849.884 310.833C845.852 311.354 841.732 309.774 837.515 310.17L837.033 310.219Z"/>
	<path fill="#0F061D" d="M785.282 320.289C786.666 318.781 788.124 317.403 789.632 316.02C790.208 316.001 790.785 315.985 791.362 316.013C793.043 316.096 794.457 316.938 795.494 318.234C796.819 319.89 797.132 321.921 796.942 323.98C796.583 327.869 794.987 330.122 792.083 332.593C791.328 332.555 790.571 332.516 789.82 332.424C788.115 332.216 786.565 331.439 785.592 329.966C783.786 327.232 784.8 323.285 785.282 320.289Z"/>
	<path fill="#0F061D" d="M845.272 339.382C843.897 339.68 842.679 339.953 841.263 339.647C839.896 339.351 838.59 338.229 837.843 337.085C836.401 334.876 836.486 331.948 837.183 329.5C838.072 326.375 839.54 324.981 842.293 323.406C843.131 323.333 844.203 323.259 845.022 323.462C846.358 323.792 847.399 324.698 848.125 325.841C849.664 328.267 849.81 331.411 849.096 334.132C848.506 336.382 847.316 338.25 845.272 339.382Z"/>
	<path fill="#0F061D" d="M799.09 353.914C797.804 353.736 796.898 353.526 795.698 352.978C794.739 351.957 794.315 351.234 794.293 349.828C794.213 344.742 797.765 334.598 801.237 330.931C802.738 331.119 803.882 331.392 805.296 331.932C805.805 332.505 806.413 332.918 806.514 333.714C806.975 337.33 801.576 350.905 799.09 353.914Z"/>
	<path fill="#533382" d="M891.664 369.431C894.348 368.336 897.097 367.271 899.705 366.002C908.433 361.753 912.02 355 915.018 346.26C917.163 347.058 919.362 347.829 921.375 348.927C929.092 353.136 935.266 360.353 937.572 368.91C939.457 375.904 938.035 384.172 934.359 390.39C929.928 397.887 921.844 402.527 913.642 404.771C911.687 405.236 909.695 405.708 907.671 405.54C903.027 405.153 895.525 400.719 892.597 397.082C888.017 391.392 890.743 376.372 891.664 369.431Z"/>
	<path fill="#0F061D" d="M796.178 376.111C797.074 374.139 797.952 372.158 799.297 370.44C802.568 366.261 806.805 365.254 811.807 364.717C814.935 364.349 819.637 365.868 822.17 367.659C826.707 370.866 828.472 374.533 829.436 379.77L827.884 384.815C824.242 387.39 821.247 387.362 816.89 387.38C812.918 387.094 808.715 386.787 804.954 385.391C800.309 383.666 798.172 380.372 796.178 376.111ZM809.492 372.229C807.279 373.146 805.35 373.84 803.623 375.57L803.116 376.973C805.09 379.413 811.464 379.915 814.584 380.163C815.399 380.227 815.135 380.216 815.984 379.926L816.272 380.163C817.991 380.473 820.051 380.618 821.615 379.723C822.341 379.308 822.362 378.933 822.689 378.226C822.057 376.243 821.075 375.483 819.251 374.531C815.942 372.803 813.076 372.669 809.492 372.229Z"/>
	<path fill="#FEFEFE" d="M827.664 410.22C831.179 409.304 834.72 408.413 838.166 407.257C855.426 401.468 872.075 387.375 880.216 371.023C880.277 371.025 880.338 371.036 880.399 371.028C881.451 370.891 881.948 370.652 882.981 371.014C882.831 376.891 881.685 382.569 881.635 388.533C881.514 402.948 883.796 419.471 880.737 433.541C877.182 437.276 873.997 441.376 870.576 445.237C859.957 457.221 849.3 469.284 838.155 480.772C833.95 485.105 829.782 489.933 825.105 493.727C820.64 482.674 814.482 458.815 817.36 447.009C818.548 442.134 820.691 437.283 822.381 432.543C824.96 425.32 826.732 417.833 827.664 410.22Z"/>
	<path fill="#F9E1EF" d="M816.272 380.163L815.984 379.926C815.135 380.216 815.399 380.227 814.584 380.163C811.464 379.915 805.09 379.413 803.116 376.973L803.623 375.57C805.35 373.84 807.279 373.146 809.492 372.229C813.076 372.669 815.942 372.803 819.251 374.531C821.075 375.483 822.057 376.243 822.689 378.226C822.362 378.933 822.341 379.308 821.615 379.723C820.051 380.618 817.991 380.473 816.272 380.163Z"/>
	<path fill="#FEFEFE" d="M276.233 401.676C278.771 398.039 282.337 394.949 285.627 392.009C296.755 382.064 306.951 376.008 321.548 372.616C326.712 373.975 332.07 371.181 336.975 374.847C335.747 375.478 333.694 375.115 332.28 375.203C325.484 375.626 309.579 381.094 305.322 386.299C304.52 387.279 304.215 388.071 304.298 389.349C304.749 390.074 304.876 390.534 305.672 390.941C306.962 391.6 308.365 391.613 309.747 391.26C312.317 390.605 314.775 388.721 317.198 387.611C320.837 385.945 324.712 384.813 328.533 383.653C340.891 386.456 348.441 393.46 355.328 403.601C349.866 398.815 343.248 393.124 336.576 390.205C330.417 387.511 325.979 388.798 320.039 391.177C317.065 392.368 305.681 396.665 303.788 398.801C303.448 399.184 303.386 399.744 303.185 400.215C303.301 401.869 303.474 402.516 304.408 403.884C312.65 405.103 314.557 400.352 320.668 399.328C326.608 398.332 333.03 404.06 337.582 407.321C320.236 404.894 316.788 416.886 303.364 422.594C297.159 425.232 290.283 425.242 284.056 427.887C281.015 419.343 278.746 410.395 276.233 401.676Z"/>
	<path fill="#FEFEFE" d="M280.704 468.115C283.174 473.695 283.119 481.393 286.433 486.262C287.826 486.379 288.445 486.26 289.664 485.548C296.28 481.683 302.491 475.451 308.576 470.702C330.96 453.15 352.972 435.13 374.598 416.652C379.643 412.337 384.249 407.494 389.476 403.395C397.263 397.288 405.821 391.348 414.734 387.06C426.686 381.31 437.498 379.465 450.62 379.303C456.786 379.265 463.654 381.004 469.606 382.364C471.307 382.752 472.666 382.801 473.857 384.111C470.582 388.216 437.855 384.452 431.388 391.019C430.535 391.885 430.586 392.115 430.574 393.258C435.227 399.659 457.753 390.116 463.899 394.289C464.066 395.102 464.205 395.836 464.11 396.669C463.232 404.384 447.165 423.828 441.217 428.802C426.517 430.669 409.337 429.245 394.632 427.552C386.831 432.803 376.953 446.605 370.182 454.166C352.637 473.759 335.463 493.679 317.456 512.856C306.765 524.243 295.649 536.055 283.495 545.878C282.287 546.215 282.071 546.332 280.933 545.588C278.696 544.126 276.554 541.491 274.668 539.552C263.294 527.864 253.279 515.181 243.521 502.151C242.052 500.189 238.894 497.396 238.48 495.044C238.359 494.356 238.786 494.105 239.17 493.594C241.672 493.29 243.213 491.674 245.422 490.612C251.51 487.685 257.192 485.024 262.779 481.175C268.886 476.967 274.36 472.009 280.704 468.115Z"/>
	<path fill="#9F8BE8" d="M60.3753 450.914C57.673 448.554 54.3745 446.065 52.5103 442.956C52.025 442.147 51.685 441.493 51.8006 440.523C52.761 432.462 55.1092 424.193 56.5787 416.151C58.5871 405.16 59.7611 393.623 62.6926 382.86C63.7931 388.385 63.4482 395.189 63.8454 400.888C65.2794 419.112 66.2067 437.371 66.6262 455.645C64.5104 454.117 62.453 452.495 60.3753 450.914Z"/>
	<path fill="#9F8BE8" d="M468.431 405.636C468.991 403.388 469.369 401.085 469.801 398.809C470.664 399.399 471.45 400.191 472.209 400.908C485.73 413.66 491.829 428.791 498.411 445.692C499.708 449.024 502.275 453.658 502.374 457.208L501.17 457.738L500.286 457.367C496.227 456.714 490.278 459.349 486.232 460.329C485.225 441.547 477.898 421.811 468.431 405.636Z"/>
	<path fill="#FEFEFE" d="M861.277 504.873C861.872 506.679 862.57 508.374 862.43 510.307L861.781 510.191L861.886 510.558C856.569 510.974 821.028 510.461 817.486 509.21C818.661 507.15 829.201 499.253 831.891 496.705C847.054 482.34 860.532 467.11 874.426 451.558C877.792 447.79 885.517 440.94 887.201 436.39C890.963 426.222 887.84 414.066 889.633 403.51C889.659 403.359 889.689 403.208 889.717 403.057C890.597 403.735 891.418 404.62 892.218 405.393C895.119 408.194 897.258 411.296 898.708 415.069C904.776 430.854 904.634 464.359 903.821 481.359C903.451 489.096 902.292 496.966 902.493 504.701L902.516 505.434C894.276 498.81 886.966 491.149 878.602 484.687C874.657 481.638 862.988 471.718 858.232 473.129C857.428 473.368 856.694 473.847 856.255 474.558C853.243 479.433 859.455 498.743 861.277 504.873Z"/>
	<path fill="#FEFEFE" d="M849.345 530.679C824.674 523.141 799.494 516.578 774.586 509.85C765.063 507.278 742.495 501.756 734.543 497.796L734.645 496.283C735.145 488.429 744.651 446.137 748.418 440.394C754.995 430.366 792.185 410.588 804.504 408.13C805.502 408.681 806.246 408.772 807.376 408.822C807.57 408.831 807.764 408.834 807.958 408.84L808.333 409.399C789.657 425.464 776.75 447.223 764.638 468.354C761.01 474.683 756.59 481.691 754.376 488.626L758.717 492.034C769.848 486.475 780.934 481.143 792.377 476.232C790.36 479.824 783.038 490.468 783.624 493.625C786.762 499.017 807.002 502.701 813.063 504.355C810.537 506.362 806.27 508.989 804.865 511.842C804.242 513.107 804.348 513.754 804.705 515.07C806.584 516.302 808.822 516.575 811.018 516.791C824.475 518.116 838.426 517.385 851.953 517.56C856.848 517.623 861.997 518.601 866.85 518.179C868.892 518.002 869.529 517.649 870.796 516.045C871.453 511.056 864.554 489.573 863.18 481.991C871.927 488.148 880.51 495.416 888.583 502.419C892.864 506.133 897.228 510.956 902.096 513.854C903.431 514.649 903.889 514.808 905.398 514.459C906.023 513.919 906.522 513.452 906.915 512.713C912.374 502.464 911.404 445.952 909.897 433.161C909.253 427.697 908.077 422.809 906.266 417.614C912.582 422.281 919.206 426.37 925.597 430.894C934.761 437.453 943.514 444.565 951.81 452.193C961.987 461.518 971.552 474.114 976.991 486.914C979.994 493.981 981.278 502.055 982.794 509.549C988.625 539.772 992.24 570.381 993.609 601.131C983.895 592.957 972.566 584.668 959.897 582.068C955.635 581.193 951.129 580.905 946.801 580.438C940.205 580.363 933.933 581.738 927.537 583.222C927.106 574.133 929.366 564.996 930.571 556.066C931.079 552.305 931.154 548.476 931.617 544.704C933.521 529.161 937.409 509.112 945.276 495.511C947.804 491.142 950.887 486.769 954.494 483.217C956.573 481.17 959.616 479.183 961.118 476.663C961.783 475.546 961.778 475.018 961.462 473.799C960.581 472.985 959.815 472.485 958.563 472.437C956.459 472.357 954.084 474.126 952.524 475.337C925.229 496.511 924.834 552.829 919.511 584.224C918.816 588.321 916.364 591.781 915.291 595.781C912.944 604.538 911.391 616.984 910.348 626.086C905.642 629.802 899.686 632.435 894.558 635.579L868.489 651.418C862.969 654.768 857.467 658.544 851.538 661.1C851.291 635.341 851.293 609.579 851.542 583.819C851.663 569.093 852.67 551.263 851.259 536.771C851.048 534.611 850.183 532.656 849.345 530.679Z"/>
	<path fill="#FEFEFE" d="M767.679 479.121C771.91 472.312 775.35 464.856 779.361 457.885C788.255 442.429 803.762 420.203 819.073 410.82L820.07 411.228C820.603 416.917 814.716 433.04 812.462 438.998C811.116 442.558 808.903 446.752 808.493 450.538C808.467 450.778 808.456 451.019 808.435 451.259C807.895 457.508 812.139 476.213 813.874 482.698C814.963 486.77 818.415 493.882 817.914 497.79C814.715 498.326 796.223 492.428 792.787 490.572C797.419 481.947 803.357 474.273 807.253 465.238C807.453 464.303 807.692 463.239 807.509 462.274C807.236 460.834 806.742 460.166 805.628 459.285C804.707 459.251 803.786 459.153 802.92 459.555C800.728 460.573 800.313 464.019 799.531 466.106C798.875 466.581 798.535 466.681 797.723 466.793C793.45 467.383 773.312 476.803 767.679 479.121Z"/>
	<path fill="#9F8BE8" d="M425.781 475.782C424.533 469.205 421.62 441.44 423.989 436.313L425.414 436.005C432.396 436.937 441.579 436.817 447.331 432.37C451.974 428.781 455.687 423.855 459.182 419.195C465.766 432.249 468.05 445.282 470.807 459.435C468.319 458.19 465.997 457.333 463.319 456.6C454.729 460.208 444.149 465.481 436.157 470.259C432.633 471.903 429.211 473.941 425.781 475.782Z"/>
	<path fill="#9F8BE8" d="M391.973 492.33C392.997 486.847 392.863 480.866 393.294 475.286C394.328 461.901 396.414 447.801 401.25 435.252C404.52 435.754 408.067 435.599 411.401 435.908C410.773 450.761 409.934 466.417 414.556 480.741C410.014 483.049 405.354 485.151 400.763 487.363C397.923 489.141 394.902 490.698 391.973 492.33Z"/>
	<defs>
		<linearGradient id="gradient_0" gradientUnits="userSpaceOnUse" x1="414.28497" y1="468.17862" x2="433.41846" y2="470.48438">
			<stop offset="0" stop-color="#19082F"/>
			<stop offset="1" stop-color="#2C0A55"/>
		</linearGradient>
	</defs>
	<path fill="url(#gradient_0)" d="M425.414 436.005L423.989 436.313C421.62 441.44 424.533 469.205 425.781 475.782C429.211 473.941 432.633 471.903 436.157 470.259C435.967 470.498 435.783 470.742 435.586 470.975C433.289 473.698 428.923 474.802 426.16 477.217L426.272 477.878C428.167 478.455 428.989 478.708 430.896 478.093L431.226 478.259C429.899 479.103 428.606 479.926 427.186 480.604C427.452 484.938 429.151 500.781 431.619 503.707C431.98 504.135 432.287 504.265 432.74 504.519L431.998 504.963C431.354 504.526 430.752 504.17 430.041 503.853C428.483 505.627 430.58 507.134 429.451 509.079C428.854 509.087 428.605 508.905 428.084 508.641C423.574 501.878 416.53 470.32 415.517 461.701C414.794 455.545 415.212 448.836 415.333 442.628C415.375 440.479 415.722 436.75 417.657 435.39C418.757 434.616 420.152 434.668 421.383 435.003C422.747 435.375 424.113 435.432 425.414 436.005Z"/>
	<path fill="#CEC4FC" d="M283.843 552.817C304.6 541.544 339.621 499.752 356.009 480.752C367.431 467.509 378.864 454.492 389.871 440.891C390.054 442.314 389.286 443.855 388.735 445.145C384.483 455.098 383.389 471.626 382.876 482.555C382.674 486.869 383.12 491.547 382.264 495.771C380.12 498.1 345.84 516.095 340.876 518.221C339.511 518.805 338.13 519.166 336.676 519.459C334.869 534.662 335.644 550.142 335.361 565.436C335.234 572.274 334.002 579.85 335.151 586.535C324.162 582.971 313.2 579.321 302.268 575.586C290.926 571.648 278.966 566.974 267.143 564.816C265.198 563.217 261.385 538.802 260.476 534.736C266.798 542.017 273.853 551.225 283.843 552.817Z"/>
	<path fill="#9F8BE8" d="M550.907 473.793C547.953 466.036 545.028 458.284 541.64 450.701C560.771 454.721 580.796 462.239 599.823 467.591L759.749 512.965C786.316 520.399 812.634 529.128 839.696 534.623L829.65 538.786C823.598 540.487 815.164 546.089 810.818 547.031C806.221 548.027 719.389 521.596 707.864 518.268L624.228 494.709C599.897 487.592 575.606 479.516 550.907 473.793Z"/>
	<path fill="#CEC4FC" d="M441.078 509.867C455.506 502.355 469.577 493.729 483.391 485.146C491.56 480.071 499.598 474.755 508.061 470.167C509.092 472.895 510.02 477.112 513.209 478.064C514.595 478.477 515.135 478.003 516.251 477.322C517.466 475.461 517.858 473.723 517.386 471.515C516.933 469.392 515.967 467.576 514.709 465.833C519.972 461.006 528.627 455.554 534.836 451.759C540.32 466.605 546.413 481.225 552.16 495.973L602.412 624.441C608.846 641.181 617.12 657.59 622.555 674.639C608.871 681.307 595.947 689.461 582.696 696.941C570.972 703.601 559.294 710.343 547.665 717.167C538.644 722.37 529.664 727.261 520.895 732.903L484.494 756.792C477.437 761.453 470.699 766.076 463.239 770.117C461.726 760.234 458.513 750.915 455.722 741.351L443.315 698.51L396.587 537.746C402.596 533.83 408.674 530.021 414.817 526.32C418.504 524.103 423.293 521.965 426.423 519.141C428.498 521.143 428.514 526.891 430.433 529.645C431.363 530.98 432.182 531.21 433.735 531.451C435.316 530.954 435.736 530.619 436.741 529.3C437.755 525.376 434.408 518.436 433.14 514.646C435.691 513.387 439.032 511.82 441.078 509.867Z"/>
	<path fill="#FEFEFE" d="M67.7305 489.434L67.8325 490.282L67.4052 490.641C64.8735 487.481 63.1811 466.062 63.5305 461.651C64.7163 462.246 65.722 462.803 66.783 463.614C67.8695 471.857 67.866 481.12 67.7305 489.434Z"/>
	<path fill="#0F061D" d="M431.226 478.259C438.953 475.362 462.127 460.356 468.834 463.688C471.302 464.915 472.716 467.487 473.478 470.028C474.599 473.76 474.337 477.528 474.255 481.376C465.305 487.483 442.634 501.33 432.74 504.519C432.287 504.265 431.98 504.135 431.619 503.707C429.151 500.781 427.452 484.938 427.186 480.604C428.606 479.926 429.899 479.103 431.226 478.259Z"/>
	<path fill="#CEC4FC" d="M0 479.653C11.9551 483.656 23.8332 487.939 35.8209 491.832C43.8353 494.434 52.1099 496.499 59.9521 499.583C61.9837 500.381 66.6538 502.003 67.6965 503.944C68.4193 505.29 70.1002 560.754 69.284 563.806C69.2535 563.92 69.1663 564.01 69.1074 564.113C62.4232 562.963 55.9402 560.797 49.4791 558.783L19.0277 549.249C12.7631 547.285 6.4294 545.017 0 543.679L0 479.653Z"/>
	<path fill="#9F8BE8" d="M721.519 718.828C721.539 717.281 721.36 715.825 721.053 714.308C719.765 707.93 717.551 701.72 715.286 695.631C710.298 682.224 704.873 668.911 692.363 660.773C682.761 654.526 642.543 638.662 632.035 641.26C630.062 641.748 628.219 642.618 627.201 644.456C622.56 652.834 629.561 665.875 631.677 674.343L631.82 674.932C633.309 678.577 639.183 689.881 637.988 693.018C633.679 692.943 621.135 688.248 616.355 686.792L615.985 686.1C620.417 683.68 628.73 680.395 630.904 675.686C627.884 663.89 622.021 652.342 617.158 641.171C614.338 634.694 611.892 628.033 609.301 621.46L553.87 481.523C560.721 484.32 567.991 486.037 575.074 488.142C592.535 493.331 610.157 497.932 627.616 503.115L711.135 527.024C743.365 536.312 775.49 545.96 807.966 554.352C808.759 578.145 807.649 602.145 807.597 625.962C807.651 653.855 807.545 681.748 807.279 709.64C807.225 721.892 807.456 734.155 807.213 746.405C790.58 741.64 774.265 736.101 757.787 730.858C745.642 726.994 733.325 723.68 721.519 718.828Z"/>
	<path fill="#0F061D" d="M364.878 526.959C359.936 525.882 354.053 524.105 349.651 521.628C348.785 521.141 348.82 521.334 348.542 520.324C349.108 519.04 349.797 518.303 351.037 517.658C359.631 513.191 368.894 509.709 377.602 505.381C384.989 501.71 391.821 497.19 399.081 493.35C404.192 490.648 409.693 488.68 414.417 485.272C414.58 485.155 414.74 485.032 414.902 484.912C416.517 486.477 416.837 489.906 417.35 492.08C417.95 494.625 418.399 497.371 419.311 499.826C420.805 503.847 423.159 507.38 423.951 511.681C421.187 514.775 401.263 527.617 396.774 530.394C395.482 531.194 394.141 531.957 392.614 532.181C385.28 533.253 372.375 528.741 364.878 526.959Z"/>
	<path fill="#0F061D" d="M426.423 519.141C426.618 518.596 426.881 518.349 427.291 517.932C429.861 515.321 437.508 509.954 441.078 509.867C439.032 511.82 435.691 513.387 433.14 514.646C434.408 518.436 437.755 525.376 436.741 529.3C435.736 530.619 435.316 530.954 433.735 531.451C432.182 531.21 431.363 530.98 430.433 529.645C428.514 526.891 428.498 521.143 426.423 519.141Z"/>
	<path fill="#533382" d="M341.541 729.768C341.067 703.368 342.077 676.981 342.342 650.583L343.318 526.448C347.956 529.414 354.291 530.503 359.571 531.93C360.694 538.871 361.618 545.855 362.841 552.777C366.058 570.975 398.884 749.133 398.459 750.785L397.245 750.492C388.673 746.455 379.666 743.61 370.768 740.416L341.541 729.768Z"/>
	<path fill="#9F8BE8" d="M407.331 751.485C404.424 742.195 402.912 731.927 401.196 722.343L395.221 689.711L380.566 607.33C376.36 582.918 372.444 558.293 367.256 534.075C370.477 534.732 373.683 536.186 376.875 537.081C381.172 538.285 385.523 539.014 389.8 540.325C393.457 553.974 397.718 567.34 401.716 580.882L426.069 664.09C433.755 691.025 441.017 718.082 449.035 744.924C451.63 753.609 453.916 762.407 456.83 770.993C452.508 769.681 448.294 767.466 444.136 765.691C432.374 760.67 419.711 754.586 407.331 751.485Z"/>
	<path fill="#9F8BE8" d="M815.396 553.184C824.324 547.562 834.538 544.362 843.555 538.948L844.171 539.344C844.599 541.951 844.224 544.605 844.222 547.237C844.217 554.24 844.373 561.229 844.306 568.239L844.021 620.843C843.436 666.603 844.408 712.404 843.56 758.162C839.693 756.741 835.809 755.48 831.865 754.29C825.769 752.533 819.835 750.264 813.886 748.071C814.866 738.478 814.48 728.518 814.512 718.875L814.751 675.774L815.396 553.184Z"/>
	<path fill="#9F8BE8" d="M0 550.926C23.3229 557.28 45.9478 565.934 69.3968 571.987C69.1684 577.046 66.9799 598.894 69.9204 601.911C72.5244 604.582 77.5699 604.969 77.7324 608.328C78.0038 613.937 77.7125 620.412 76.7812 625.945C59.9754 620.202 43.1855 614.81 26.2442 609.488C17.543 606.754 8.83001 603.638 0 601.366L0 550.926Z"/>
	<defs>
		<linearGradient id="gradient_1" gradientUnits="userSpaceOnUse" x1="277.58463" y1="713.54895" x2="322.07349" y2="590.06342">
			<stop offset="0" stop-color="#AA8CFC"/>
			<stop offset="1" stop-color="#D3C9FD"/>
		</linearGradient>
	</defs>
	<path fill="url(#gradient_1)" d="M286.049 715.715C285.018 716.07 283.381 716.542 282.685 717.378C279.259 702.884 276.699 688.15 273.924 673.516C272.168 664.251 271.521 653.414 267.299 644.938C270.532 644.147 274.894 643.614 277.042 640.781C277.613 640.029 278.191 638.975 278.293 638.023C278.815 633.176 276.694 625.932 275.858 621.016C273.074 604.642 269.414 587.933 267.64 571.429C290.142 578.651 312.417 586.603 334.901 593.879L334.719 639.273C334.724 648.28 335.387 657.66 334.396 666.611C324.451 663.489 314.63 659.886 304.734 656.598C296.314 653.801 287.64 651.414 279.425 648.06C278.466 648.777 277.168 649.657 276.623 650.747C275.998 651.995 276.404 652.67 276.834 653.864C281.549 657.42 324.604 671.162 334.456 674.298C334.346 691.894 335.058 709.795 334.097 727.344C326.803 724.228 295.296 711.849 288.861 712.035C287.338 712.91 286.823 714.219 286.049 715.715Z"/>
	<path fill="#FEFEFE" d="M922.882 593.22C930.429 590.03 938.111 588.302 946.269 587.761C953.972 587.419 963.386 589.777 970.233 593.272C987.033 601.848 1000.42 618.252 1006.08 636.128C1001.9 643.115 993.635 664.916 987.701 668.875C986.321 665.952 987.211 661.159 986.275 657.903C986.227 657.734 986.159 657.572 986.1 657.406C982.936 644.684 975.503 632.12 964.685 624.53C955.979 618.422 943.784 614.611 933.144 616.294C928.392 617.046 923.923 618.712 919.217 619.553L918.796 619.097C918.488 610.882 921.555 601.393 922.882 593.22ZM943.11 604.791C939.694 604.995 933.034 604.773 930.583 607.479C930.068 608.046 929.723 608.678 929.741 609.485C929.77 610.765 930.255 611.691 931.321 612.379C934.201 614.235 942.135 611.774 945.919 612.081C951.338 612.521 956.495 613.943 961.58 615.815C964.619 617.622 966.84 619.443 970.533 618.61C971.125 618.105 971.459 618.101 971.466 617.245C971.484 615.265 970.059 613.412 968.656 612.139C962.658 606.695 951.011 604.869 943.11 604.791Z"/>
	<path fill="#12062B" d="M961.58 615.815C956.495 613.943 951.338 612.521 945.919 612.081C942.135 611.774 934.201 614.235 931.321 612.379C930.255 611.691 929.77 610.765 929.741 609.485C929.723 608.678 930.068 608.046 930.583 607.479C933.034 604.773 939.694 604.995 943.11 604.791C951.011 604.869 962.658 606.695 968.656 612.139C970.059 613.412 971.484 615.265 971.466 617.245C971.459 618.101 971.125 618.105 970.533 618.61C966.84 619.443 964.619 617.622 961.58 615.815Z"/>
	<path fill="#CEC4FC" d="M0 608.165L0.749409 608.513C12.6297 613.964 71.6737 629.628 75.9925 633.577C76.2828 637.571 75.8253 641.536 75.7742 645.529C75.6044 658.79 74.9998 672.249 75.6156 685.504C76.8558 712.199 79.2261 738.846 80.5561 765.534C82.6255 807.403 82.743 849.347 80.9082 891.227C79.352 920.47 77.1785 949.677 74.3891 978.829C73.503 987.858 72.4973 996.874 71.3721 1005.88C70.6455 1011.7 69.245 1018.14 69.4794 1024L0 1024L0 608.165Z"/>
	<path fill="#533382" d="M76.7741 1024C78.0483 1007.15 80.4796 990.394 82.0306 973.567C86.1423 928.958 89.2662 883.883 89.3841 839.075C89.3627 816.975 88.8761 794.878 87.9245 772.799C86.0572 736.423 82.9492 700.144 82.4745 663.704C82.2445 646.04 84.0386 628.101 84.7345 610.421C132.368 637.158 207.01 656.263 261.32 646.005C264.056 657.251 265.948 668.81 268.148 680.178C272.589 702.303 276.786 724.475 280.738 746.692L315.648 938.935C320.665 967.28 325.05 995.727 330.48 1024L210.681 1024C210.275 1018.79 209.116 1013.46 208.251 1008.3C205.941 994.52 203.118 980.876 200.512 967.156C191.995 920.859 180.866 875.082 167.177 830.043C153.583 786.336 137.067 743.851 120.995 701.034C119.069 695.904 108.419 664.306 106.556 662.527C105.662 661.673 104.495 661.318 103.263 661.507C101.95 661.708 101.287 662.16 100.636 663.346C100.115 664.296 100.226 665.285 100.494 666.276C102.038 671.97 104.963 677.569 106.971 683.148C112.8 699.343 118.603 715.498 124.699 731.602C133.476 754.787 142.534 777.74 150.484 801.244C161.357 833.391 170.585 866.493 178.663 899.447C185.378 926.84 191.271 954.819 196.477 982.542C199.063 996.312 201.021 1010.22 203.597 1024L76.7741 1024Z"/>
	<path fill="#FEFEFE" d="M851.556 669.345C868.618 660.763 885.041 650.117 901.289 640.085C908.78 635.46 916.349 629.951 924.407 626.443C929.215 624.35 933.614 623.394 938.859 623.291L939.316 623.01C945.171 623.492 950.475 625.079 955.693 627.792C969.183 634.806 972.957 642.898 977.313 656.685C958.096 677.645 908.699 686.96 881.14 692.9C871.158 694.867 860.786 696.287 850.98 698.943C851.482 689.2 850.432 678.962 851.556 669.345Z"/>
	<path fill="#9F8BE8" d="M648.19 696.325C644.713 688.38 642.061 679.928 639.14 671.758C637.013 665.81 634.275 659.638 632.91 653.482C632.542 651.822 632.55 651.075 633.458 649.628C634.865 648.555 635.795 648.411 637.538 648.247C640.807 647.681 645.96 650.593 649.162 651.661C661.949 655.929 676.693 659.267 687.926 666.984C699.788 675.133 703.322 684.443 707.921 697.479C710.079 703.594 712.17 709.774 713.362 716.161L712.734 716.529L710.859 715.946C696.419 710.685 681.207 706.642 666.478 702.182C660.393 700.34 654.072 698.739 648.19 696.325Z"/>
	<path fill="#12062B" d="M203.597 1024C201.021 1010.22 199.063 996.312 196.477 982.542C191.271 954.819 185.378 926.84 178.663 899.447C170.585 866.493 161.357 833.391 150.484 801.244C142.534 777.74 133.476 754.787 124.699 731.602C118.603 715.498 112.8 699.343 106.971 683.148C104.963 677.569 102.038 671.97 100.494 666.276C100.226 665.285 100.115 664.296 100.636 663.346C101.287 662.16 101.95 661.708 103.263 661.507C104.495 661.318 105.662 661.673 106.556 662.527C108.419 664.306 119.069 695.904 120.995 701.034C137.067 743.851 153.583 786.336 167.177 830.043C180.866 875.082 191.995 920.859 200.512 967.156C203.118 980.876 205.941 994.52 208.251 1008.3C209.116 1013.46 210.275 1018.79 210.681 1024L203.597 1024Z"/>
	<path fill="#F9E1EF" d="M973.874 672.599C972.881 672.407 972.113 672.292 971.267 671.717C972.499 669.036 977.222 666.861 979.677 665.328L980.478 665.655C981.259 666.933 981.537 668.94 981.113 670.395C980.836 671.343 979.814 672.726 978.879 673.052C977.367 673.58 975.323 673.195 973.874 672.599Z"/>
	<path fill="#FEFEFE" d="M893.271 698.267C898.836 696.455 904.937 695.459 910.651 694.084C923.417 691.012 935.888 687.734 948.137 682.939L949.386 683.182C950.2 685.596 949.031 688.729 948.975 691.307C948.809 698.974 948.895 706.553 949.257 714.212C946.442 714.61 915.472 704.75 910.479 703.214C904.69 701.829 899.117 699.616 893.271 698.267Z"/>
	<path fill="#CEC4FC" d="M535.548 732.87C543.161 728.155 603.633 692.455 606.933 692.108C612.114 691.562 675.338 712.677 685.036 715.731L809.014 754.349C850.466 767.658 892.038 780.592 933.724 793.15L989.644 810.136C1000.68 813.539 1011.95 817.595 1023.22 820.045L1024 820.212L1024 884.318C1008.59 879.77 993.336 874.496 978.014 869.637L923.046 852.782L676.995 776.472L582.147 747.507C567.901 743.198 548.76 738.835 535.548 732.87Z"/>
	<path fill="#CEC4FC" d="M851.424 705.683C858.597 704.685 871.187 701.172 877.905 701.768C886.065 702.492 904.113 709.293 912.939 711.874L996.284 736.227C1005.58 738.948 1014.62 742.555 1024 744.968L1024 813.562C1015.25 809.97 1005.62 807.375 996.561 804.673L964.722 794.907C951.478 790.79 938.205 786.764 924.906 782.83C917.561 780.611 910.045 777.845 902.537 776.325C911.079 767.418 921.903 760.466 930.047 751.183C931.426 749.611 931.966 748.724 931.83 746.552C931.321 745.523 930.851 744.9 929.828 744.332C923.097 740.596 913.709 738.998 906.264 736.895L868.236 726.003C862.972 724.484 856.516 723.296 851.761 720.607C850.732 716.186 851.465 710.32 851.424 705.683Z"/>
	<path fill="#CEC4FC" d="M282.685 717.378C283.381 716.542 285.018 716.07 286.049 715.715C286.912 717.155 287.536 717.704 289.064 718.401C295.849 721.496 303.24 723.729 310.286 726.172C321.028 729.856 331.731 733.654 342.392 737.566C355.042 742.179 367.741 746.708 380.333 751.474C386.405 753.771 392.555 756.769 398.723 758.65C401.442 759.478 404.162 758.11 407.195 759.091C416.679 762.157 426.136 765.946 435.273 769.916C441.422 772.588 453.634 778.832 459.638 779.931C460.764 780.137 461.942 779.657 462.892 779.086C463.595 778.663 464.258 778.171 464.915 777.681C465.897 778.647 465.247 779.389 466.713 780.088C470.191 781.747 474.858 782.6 478.594 783.695C488.29 786.589 498.018 789.379 507.775 792.064C545.593 803.008 583.343 814.186 621.024 825.596L644.635 832.824C649.553 834.326 654.952 835.618 659.572 837.875C660.279 874.503 659.527 911.165 659.67 947.798L660.045 1001.5C660.049 1008.97 660.322 1016.54 659.959 1024L337.667 1024C336.566 1012.74 333.189 999.326 331.293 987.848C325.674 953.244 319.585 918.718 313.027 884.28L290.55 759.18C287.958 745.251 285.63 731.236 282.685 717.378Z"/>
	<path fill="#9F8BE8" d="M895.581 773.662C887.932 771.832 856.858 763.271 851.664 759.623C850.424 749.384 851.625 738.412 851.205 728.039C864.783 731.425 878.341 736.208 891.721 740.356C901.555 743.404 911.642 745.888 921.302 749.449C917.115 754.007 911.841 758.022 907.188 762.12C903.173 765.847 899.049 769.401 895.581 773.662Z"/>
	<path fill="#9F8BE8" d="M525.115 739.094C537.19 740.827 557.306 747.852 569.487 751.59L644.757 774.427L914.614 857.474C951.044 868.716 987.262 881.048 1024 891.252L1024 943.732C1002.49 935.656 979.86 929.321 957.918 922.485C942.85 917.791 927.697 912.083 912.405 908.263C910.954 907.901 909.788 907.632 908.322 908.095C906.088 910.818 907.065 1010.21 907.034 1024L856.39 1024C857.371 1005.62 856.578 985.899 856.581 967.375C856.586 942.157 857.183 916.794 856.431 891.598C831.052 882.578 804.809 875.523 779.131 867.369C765.225 862.954 751.462 858.087 737.523 853.779C732.384 852.191 726.133 849.66 720.781 849.433C719.176 849.365 718.848 849.697 717.725 850.795C716.562 853.736 718.051 966.705 718.107 978.654L717.907 1024L667.453 1024C667.719 975.036 667.605 926.07 667.113 877.107C666.929 865.934 668.2 843.124 666.326 833.166C665.052 831.924 663.402 831.233 661.756 830.613C655.029 828.081 647.885 826.155 641.022 823.996C624.44 818.764 607.799 813.719 591.103 808.862L545.296 795.494C520.792 787.927 496.178 780.72 471.462 773.877C480.111 768.649 488.281 762.417 496.726 756.842C505.995 750.724 515.7 745.025 525.115 739.094Z"/>
	<path fill="#12062B" d="M717.907 1024L718.107 978.654C718.051 966.705 716.562 853.736 717.725 850.795C718.848 849.697 719.176 849.365 720.781 849.433C726.133 849.66 732.384 852.191 737.523 853.779C751.462 858.087 765.225 862.954 779.131 867.369C804.809 875.523 831.052 882.578 856.431 891.598C857.183 916.794 856.586 942.157 856.581 967.375C856.578 985.899 857.371 1005.62 856.39 1024L850.019 1024C850.033 1023.82 850.071 1023.64 850.061 1023.46C849.227 1007.28 849.558 991.026 849.652 974.811L849.645 931.893C849.698 922.944 848.612 906.61 849.822 898.589C849.845 898.438 849.872 898.288 849.898 898.137C844.964 893.635 771.748 872.469 759.507 868.69C747.783 865.071 736.291 860.97 724.476 857.582C725.314 894.671 724.91 931.905 724.864 969.009C724.841 987.253 725.986 1005.8 725.023 1024L717.907 1024Z"/>
	<path fill="#CEC4FC" d="M725.023 1024C725.986 1005.8 724.841 987.253 724.864 969.009C724.91 931.905 725.314 894.671 724.476 857.582C736.291 860.97 747.783 865.071 759.507 868.69C771.748 872.469 844.964 893.635 849.898 898.137C849.872 898.288 849.845 898.438 849.822 898.589C848.612 906.61 849.698 922.944 849.645 931.893L849.652 974.811C849.558 991.026 849.227 1007.28 850.061 1023.46C850.071 1023.64 850.033 1023.82 850.019 1024L725.023 1024Z"/>
	<path fill="#12062B" d="M907.034 1024C907.065 1010.21 906.088 910.818 908.322 908.095C909.788 907.632 910.954 907.901 912.405 908.263C927.697 912.083 942.85 917.791 957.918 922.485C979.86 929.321 1002.49 935.656 1024 943.732L1024 950.786C1011.52 947.195 999.337 942.867 986.989 938.905L943.293 925.249C933.815 922.268 923.787 917.87 914.066 916.125L913.709 916.468L914.211 991.227C914.268 1001.31 913.543 1011.6 914.039 1021.64C914.089 1022.68 913.874 1023.11 913.397 1024L907.034 1024Z"/>
	<path fill="#CEC4FC" d="M913.397 1024C913.874 1023.11 914.089 1022.68 914.039 1021.64C913.543 1011.6 914.268 1001.31 914.211 991.227L913.709 916.468L914.066 916.125C923.787 917.87 933.815 922.268 943.293 925.249L986.989 938.905C999.337 942.867 1011.52 947.195 1024 950.786L1024 1024L913.397 1024Z"/>
</svg>
