<?xml version="1.0" encoding="utf-8" ?>
<svg xmlns="http://www.w3.org/2000/svg" xmlns:xlink="http://www.w3.org/1999/xlink" width="1024" height="1024">
	<path fill="#9F8BE8" d="M0 0L239.17 0L158.085 96.5898C152.991 102.781 147.824 108.911 142.585 114.979C139.463 118.57 135.932 122.084 133.119 125.901C132.45 126.809 131.983 127.575 132.053 128.756C132.113 129.758 132.487 130.843 132.737 131.815L132.913 132.524L133.025 132.948C128.807 137.219 124.141 142.619 118.785 145.467C111.055 149.579 98.8025 151.933 89.9594 155.452C73.4864 162.008 26.8307 186.033 27.1409 206.068C27.1508 206.81 27.2225 207.55 27.3552 208.28C28.0667 212.107 30.6316 215.763 32.857 218.885C42.794 232.823 54.7625 245.853 65.91 258.852C72.7382 266.815 79.2074 275.062 85.8391 283.186C94.149 293.365 102.547 303.329 110.329 313.93C116.56 322.476 122.557 331.191 128.311 340.065C136.779 353.024 144.66 366.264 156.192 376.826C180.115 398.736 219.61 417.035 252.429 415.6C262.442 415.163 272.785 411.961 279.786 404.462C283.863 400.095 288.011 392.572 287.776 386.459C287.457 378.129 280.18 369.99 274.232 364.769C262.602 354.561 249.292 346.378 238.053 335.683C216.071 314.764 202.802 285.553 196.265 256.291C195.206 251.552 193.621 246.273 193.258 241.444C193.051 238.693 194.677 235.957 194.472 233.24C194.115 228.506 192.112 223.944 191.675 219.114C195.109 212.017 199.787 205.506 203.778 198.713C214.922 203.154 227.241 208.688 239.504 207.991L239.859 207.508C243.915 201.879 247.09 195.591 250.899 189.78C258.359 178.617 266.164 167.688 274.301 157.009C300.682 122.326 331.448 91.5808 362.331 60.9741L393.691 131.622C401.475 149.177 409.55 166.605 416.628 184.463C424.602 205.025 431.519 225.982 437.351 247.252C442.108 264.798 446.371 283.469 446.488 301.716C452.008 306.513 457.928 308.135 464.781 310.097L464.403 310.682C460.021 317.389 453.691 323.346 448.234 329.226C434.812 343.687 426.34 353.606 416.989 371.311C414.603 375.828 410.937 382.707 412.16 387.964C414.195 396.715 468.391 439.164 479.01 447.324C452.485 450.971 426.468 454.227 400.269 460.096C332.742 475.225 250.463 508.593 207.478 565.532C189.245 589.684 178.925 621.904 183.151 652.169C187.87 685.966 210.248 714.251 236.907 734.227C291.384 775.047 376.565 800.49 444.295 803.62C458.13 804.259 472.149 804.374 485.89 802.394C489.35 801.896 493.882 801.247 496.411 798.668C496.576 797.955 496.868 797.523 496.497 796.833C495.803 795.541 494.421 794.902 493.048 794.594C486.391 793.101 478.155 794.629 471.29 794.567C463.354 794.494 455.098 793.294 447.323 791.801C427.785 788.048 408.941 782.351 389.996 776.447C337.745 760.161 257.233 729.748 225.521 682.807C215.702 668.272 211.605 651.552 214.983 634.185C221.796 599.146 256.054 567.886 284.718 548.752C324.009 522.524 360.938 510.073 406.379 499.128C431.092 493 456.128 488.256 481.37 484.92C493.961 483.196 506.775 480.931 519.434 479.969C521.73 481.807 524.383 483.632 526.396 485.758C511.224 488.263 495.787 489.253 480.659 491.97C427.903 501.448 364.689 522.616 332.078 568.092C316.758 589.456 307.705 614.484 312.29 640.979C317.245 669.614 337.463 692.136 360.623 708.248C435.907 760.621 576.356 775.383 667.159 771.251C699.801 769.569 732.292 765.685 764.41 759.625C794.447 754.195 833.685 744.125 859.219 727.188C861.538 725.65 866.073 723.176 867.474 720.761C868.199 719.512 868.127 719.303 867.786 717.992C866.598 717.019 866.451 716.728 864.839 716.891C861.106 717.268 856.502 720.513 852.901 721.917C846.964 724.231 840.721 726.503 834.632 728.39C816.257 734.084 797.241 738.023 778.306 741.303C663.161 761.248 498.408 751.47 398.657 686.212C379.207 673.487 359.063 656.128 354.237 632.286C351.296 617.753 354.577 604.022 362.8 591.825C371.89 578.341 384.68 569.173 398.421 560.956C439.035 536.671 485.371 525.396 531.436 516.692C538.235 515.407 545.05 514.074 551.896 513.069C554.479 512.69 557.189 512.635 559.736 512.2C562.19 514.066 570.799 519.81 571.63 522.278L570.075 522.599C562.259 523.072 554.36 524.467 546.6 525.576C503.594 531.724 451.038 545.397 420.008 577.618C407.939 590.151 397.141 608.125 397.561 626.092C397.963 643.305 407.924 659.366 420.096 670.896C468.649 716.89 588.07 727.097 652.728 725.477C713.667 723.951 836.882 711.185 880.268 665.111C888.648 656.212 893.981 645.342 893.467 632.917C892.554 610.861 874.676 586.873 858.938 572.427C825.834 542.043 785.917 530.18 742.456 524.114C731.885 522.639 720.239 520.481 709.558 521.06C709.402 521.069 709.247 521.081 709.091 521.091C701.737 520.802 694.382 520.586 687.024 520.444C681.682 511.93 675.209 505.531 667.989 498.639C672.34 496.885 684.171 498.462 689.116 498.763C733.72 501.48 777.197 509.535 818.882 525.973C862.459 543.157 918.14 577.412 937.307 621.983C943.341 636.016 945.217 650.772 939.374 665.214C934.452 677.38 925.366 686.133 914.805 693.577C912.174 695.432 909.496 697.476 906.506 698.699C904.439 699.545 902.274 700.304 900.273 701.291C899.111 701.864 897.73 702.665 897.478 704.059C897.245 705.341 897.462 706.218 898.133 707.291C899.349 708.118 900.318 708.332 901.768 708.237C905.34 708.004 909.01 706.573 912.371 705.414C926.079 700.685 938.764 693.972 948.614 683.095C960.31 670.107 966.344 652.991 965.379 635.54C963.714 602.893 942.205 574.153 918.578 553.024C888.504 526.131 858.053 510.36 820.198 497.026C800.447 490.069 779.582 484.258 758.845 481.174C747.963 479.555 736.971 478.963 725.998 478.352C717.189 477.861 707.923 476.59 699.121 477.086C679.629 476.369 660.125 476 640.62 475.98C637.437 473.874 634.641 471.489 631.79 468.958C641.482 468.922 651.204 469.386 660.899 469.541C661.077 469.568 661.254 469.597 661.432 469.622C672.875 471.226 685.279 470.706 696.852 471.295C719.164 472.375 741.426 474.309 763.59 477.093C825.596 485.287 897.286 507.322 951.919 538.198C964.989 545.584 977.292 553.972 989.294 562.976C1001.07 571.812 1015.01 583.335 1024 594.859L1024 703.632C1018.92 710.964 1013.93 718.325 1007.97 724.988C989.44 745.711 962.249 763.159 934.606 768.286C930.261 769.092 922.414 769.101 919.47 772.859C918.954 773.518 919.006 773.995 918.89 774.786C919.593 776.66 920.556 777.627 922.373 778.443C925.095 779.666 928.335 779.835 931.27 780.113C946.955 781.601 963.315 778.385 977.797 772.39C994.875 765.321 1010.62 754.653 1024 741.933L1024 1024L444.668 1024C444.411 1019.09 443.025 1014.31 441.852 1009.57C439.815 1001.34 438.862 993.609 439.795 985.116C443.437 951.992 471.331 926.088 499.183 911.014C506.758 906.915 533.991 895.703 536.946 890.061C536.933 888.748 536.913 888.803 536.028 887.822C534.373 887.147 532.863 886.946 531.074 886.939C498.415 886.799 465.128 898.852 441.62 921.901C426.327 936.897 416.504 956.367 416.366 978.003C416.258 994.94 422.711 1011.93 434.648 1024L351.786 1024C351.783 1013.07 350.373 1003.3 353.507 992.548C357.423 979.107 365.202 967.43 374.098 956.791C409.123 914.904 462.412 891.017 512.219 871.787C519.766 868.873 549.264 858.561 553.57 853.451C553.867 852.067 553.911 852.148 553.177 850.944C552.352 850.386 551.659 850.095 550.677 849.966C544.705 849.183 532.838 851.409 526.672 852.273C478.832 858.974 428.055 876.2 388.678 904.642C362.957 923.221 336.651 950.025 331.596 982.583C329.37 996.919 331.393 1012.12 340.073 1024L0 1024L0 685.877C11.2205 680.58 23.5947 676.724 35.1637 672.166C66.2855 659.906 127.364 634.785 146.673 607.351C152.125 599.606 155.003 590.452 153.254 580.991C151.36 570.748 143.98 562.398 135.623 556.658C104.474 535.268 36.4402 533.656 0 540.613L0 0ZM1008.78 926.478C1009.84 921.515 1011.31 916.633 1012.26 911.649C1014.03 902.303 1014.61 892.141 1014.49 882.633C1014.29 867.016 1012.38 853.454 1000.73 842.188C979.932 822.08 895.268 794.444 864.247 788.202C847.005 784.732 829.712 782.844 812.119 783.125C796.539 783.341 781.02 785.14 765.803 788.495C716.472 799.146 600.088 840.463 565.914 876.221C553.009 889.724 550.742 907.547 551.059 925.457C551.026 926.747 551.294 929.027 550.443 929.981C549.001 931.599 544.624 933.325 542.641 934.424C533.842 939.3 522.938 947.324 520.945 957.89C519.916 963.343 521.657 968.381 524.848 972.787C540.146 993.906 590.058 1004.64 615.081 1008.19C635.716 1011.12 656.548 1013.82 677.381 1014.77C698.808 1015.74 720.53 1016.08 741.968 1015.39C810.834 1013.18 932.752 1000.8 987.833 959.337C999.884 950.266 1005.86 941.361 1008.78 926.478Z"/>
	<path d="M239.17 0L247.841 0C223.168 28.6937 198.778 57.6289 174.673 86.8015C162.973 100.887 150.589 114.6 139.344 129.039C142.272 135.403 146.492 141.275 150.709 146.854C168.145 169.925 191.209 188.065 218.506 198.039C224.202 200.12 229.943 201.414 235.941 202.228C241.059 193.939 246.045 185.49 251.56 177.46C279.834 136.288 313.878 100.467 348.731 64.9176C335.718 42.0936 317.617 18.8267 299.25 0L341.546 0C358.924 37.5376 375.868 75.2747 392.375 113.204C403.073 137.354 414.669 161.197 424.319 185.793C431.349 204.112 437.411 222.789 442.48 241.745C447.864 261.28 452.189 280.294 453.551 300.53C481.285 310.018 506.808 312.407 533.98 299.222C543.333 294.684 552.078 288.741 560.217 282.295C554.181 253.308 545.204 224.885 538.583 196.016C523.927 132.118 514.017 65.628 513.024 0L519.063 0C522.342 76.4741 533.756 152.382 553.11 226.438L561.68 260.551C563.329 266.922 565.533 273.518 566.609 279.995C566.833 281.34 567.162 282.561 566.468 283.823C566.149 284.403 565.738 284.909 565.301 285.404C562.283 288.822 557.424 291.951 553.578 294.442C558.835 313.207 564.052 332.633 571.002 350.864C572.719 355.369 575.908 359.244 577.599 363.733C580.254 370.781 580.6 378.604 583.037 385.772C590.456 407.589 603.444 429.082 617.006 447.644L622.73 447.473C621.061 448.336 619.219 448.284 617.383 448.431C621.701 455.154 626.313 461.62 631.071 468.036C635.828 468.651 662.145 467.917 663.797 469.254L664.12 469.139L663.313 468.954L662.555 469.468L660.899 469.541C651.204 469.386 641.482 468.922 631.79 468.958C634.641 471.489 637.437 473.874 640.62 475.98C660.125 476 679.629 476.369 699.121 477.086C693.793 478.1 687.612 477.566 682.188 477.537C668.628 477.467 655.088 476.922 641.523 476.885L659.233 491.342C661.96 493.549 665.793 495.947 667.989 498.639C675.209 505.531 681.682 511.93 687.024 520.444C694.382 520.586 701.737 520.802 709.091 521.091C702.036 521.855 694.544 521.534 687.443 521.427C688.49 526.234 689.983 534.306 688.084 538.994C686.808 542.16 685.383 545.056 683.674 548.011C691.322 548.027 699.036 548.302 706.641 549.147C698.815 549.891 690.834 548.697 682.942 549.07C679.907 552.418 671.786 558.186 670.34 561.829C670.252 561.557 670.201 561.27 670.077 561.013C669.954 560.761 669.763 560.549 669.607 560.317C656.26 566.015 644.688 565.836 630.453 564.508C628.8 563.399 626.773 562.683 625 561.746C619.116 558.638 611.208 554.501 606.863 549.398C603.844 546.653 600.579 544.191 597.109 542.045C593.135 537.678 579.503 527.873 574.212 523.48C572.779 523.494 571.429 523.471 570.004 523.275L570.075 522.599L571.63 522.278C570.799 519.81 562.19 514.066 559.736 512.2C558.759 512.059 558.124 512.017 557.252 511.526L557.748 511.32C550.69 502.896 535.611 493.306 526.396 485.758C524.383 483.632 521.73 481.807 519.434 479.969C516.184 478.113 512.561 474.124 509.56 471.672C499.513 463.462 489.55 454.884 479.01 447.324C468.391 439.164 414.195 396.715 412.16 387.964C410.937 382.707 414.603 375.828 416.989 371.311C426.34 353.606 434.812 343.687 448.234 329.226C453.691 323.346 460.021 317.389 464.403 310.682L464.781 310.097C457.928 308.135 452.008 306.513 446.488 301.716C446.371 283.469 442.108 264.798 437.351 247.252C431.519 225.982 424.602 205.025 416.628 184.463C409.55 166.605 401.475 149.177 393.691 131.622L362.331 60.9741C331.448 91.5808 300.682 122.326 274.301 157.009C266.164 167.688 258.359 178.617 250.899 189.78C247.09 195.591 243.915 201.879 239.859 207.508L239.504 207.991C227.241 208.688 214.922 203.154 203.778 198.713C199.787 205.506 195.109 212.017 191.675 219.114C192.112 223.944 194.115 228.506 194.472 233.24C194.677 235.957 193.051 238.693 193.258 241.444C193.621 246.273 195.206 251.552 196.265 256.291C202.802 285.553 216.071 314.764 238.053 335.683C249.292 346.378 262.602 354.561 274.232 364.769C280.18 369.99 287.457 378.129 287.776 386.459C288.011 392.572 283.863 400.095 279.786 404.462C272.785 411.961 262.442 415.163 252.429 415.6C219.61 417.035 180.115 398.736 156.192 376.826C144.66 366.264 136.779 353.024 128.311 340.065C122.557 331.191 116.56 322.476 110.329 313.93C102.547 303.329 94.149 293.365 85.8391 283.186C79.2074 275.062 72.7382 266.815 65.91 258.852C54.7625 245.853 42.794 232.823 32.857 218.885C30.6316 215.763 28.0667 212.107 27.3552 208.28C27.2225 207.55 27.1508 206.81 27.1409 206.068C26.8307 186.033 73.4864 162.008 89.9594 155.452C98.8025 151.933 111.055 149.579 118.785 145.467C124.141 142.619 128.807 137.219 133.025 132.948L132.913 132.524L132.737 131.815C132.487 130.843 132.113 129.758 132.053 128.756C131.983 127.575 132.45 126.809 133.119 125.901C135.932 122.084 139.463 118.57 142.585 114.979C147.824 108.911 152.991 102.781 158.085 96.5898L239.17 0ZM136.496 137.429C131.062 141.677 127.133 147.431 121.887 151.862C129.211 177.461 140.369 198.425 164.379 211.897C168.913 214.441 173.621 216.336 178.557 217.934L182.437 215.189C189.885 211.089 194.441 202.955 199.282 196.193C178.203 185.244 162.071 171.65 147.371 153.033C143.905 148.643 140.092 140.88 136.496 137.429ZM114.452 153.112C91.8318 158.467 66.3476 171.927 48.3004 186.513C50.3213 193.104 53.4256 198.895 57.3976 204.527C62.1514 211.268 67.7626 217.44 72.9773 223.827C79.4483 231.752 85.6648 239.884 92.1167 247.825C97.6235 254.603 103.453 261.182 108.711 268.154C119.45 282.392 129.595 297.162 139.809 311.783C148.825 324.688 157.59 337.474 168.321 349.056C180.178 361.853 193.698 373.236 209.18 381.404C231.091 392.963 254.799 396.999 279.032 391.423C280.023 388.855 281.521 385.979 280.736 383.2L280.035 382.687C274.246 384.182 268.519 385.604 262.528 385.969C243.252 387.144 221.733 379.422 205.208 369.719C169.529 348.771 149.671 314.816 126.14 282.379C111.939 262.925 97.2223 243.853 82.0064 225.182C76.9303 218.856 54.4062 191.634 55.5002 184.199C55.6578 183.128 56.2733 182.174 57.2687 181.697C58.1104 181.294 58.7049 181.311 59.4731 181.744C61.5582 182.919 63.5052 185.581 65.1433 187.346C79.3098 177.173 96.8343 167.041 114.151 163.914C117.296 184.698 131.664 202.669 148.207 214.787C151.894 217.488 162.631 223.072 164.968 226.078C165.849 227.211 166.175 228.524 166.371 229.922C167.78 239.961 166.874 250.754 167.496 260.923C167.876 267.135 168.57 273.366 170.102 279.41C172.848 290.247 182.183 313.2 188.28 322.222C196.805 334.835 212.682 344.584 205.092 361.944C207.077 363.725 209.134 364.829 211.483 366.027C212.162 363.483 212.892 360.902 213.324 358.303C213.923 354.699 213.683 346.955 215.235 344.103C216.032 342.64 217.844 341.344 219.08 340.224C220.385 339.041 221.189 338.586 220.671 336.835C215.59 334.62 207.01 342.865 203.46 334.807C203.41 332.89 203.792 331.483 205.064 329.99C206.005 328.885 207.652 328.031 208.87 327.251C207.399 325.838 205.954 324.379 204.422 323.034C202.56 324.356 199.452 326.358 196.998 325.756C195.773 325.456 195.121 324.52 194.62 323.42C194.002 322.063 193.681 320.581 193.998 319.116C195.055 317.764 200.145 315.791 199.861 314.171C199.398 311.531 196.723 307.894 195.344 305.507C194.192 308.134 193.515 310.34 190.608 311.464C189.074 312.057 188.302 311.761 186.911 311.137C185.893 309.823 185.452 308.799 185.61 307.144C185.98 303.282 188.641 300.389 191.051 297.553L187.399 286.088C185.862 287.768 184.342 289.653 181.945 289.952C180.972 290.074 179.794 289.591 179.131 288.866C178.155 287.799 177.616 286.08 177.067 284.755C179.296 281.408 181.781 278.289 184.278 275.143L182.783 267.642C181.78 270.059 180.928 272.605 178.312 273.681C176.744 274.326 175.468 274.304 173.885 273.713C172.793 272.637 172.125 271.885 172.181 270.273C172.346 265.497 177.03 262.318 179.722 258.855C178.7 254.861 178.34 249.239 176.55 245.653C175.977 246.438 175.625 247.407 174.6 247.516C172.798 247.707 170.832 246.67 169.61 245.376C168.219 243.901 167.801 241.96 167.995 239.98C168.584 233.987 174.936 229.944 177.43 224.598C154.096 215.723 135.435 201.692 124.955 178.31C121.271 170.09 118.902 161.886 116.704 153.194C115.829 152.969 115.338 152.924 114.452 153.112ZM41.3196 191.807C37.38 196.36 34.3122 200.294 33.0017 206.342C37.0902 214.417 42.9005 221.22 48.685 228.111L92.2633 280.509C98.3913 288.008 104.811 295.318 110.601 303.082C117.776 312.859 124.735 322.792 131.475 332.874C140.448 346.409 148.646 360.118 160.534 371.424C175.807 385.95 194.828 396.264 214.786 402.785C230.922 408.058 248.766 412.004 265.423 406.686C269.378 404.882 271.996 403.075 274.913 399.835C245.19 405.17 213.658 394.185 189.472 377.293C177.676 369.054 167.436 359.117 158.087 348.221C146.139 334.296 136.24 318.755 125.777 303.716C117.743 292.169 109.123 280.96 100.652 269.727C90.7613 256.611 80.2211 243.681 69.8142 230.968C59.8681 218.817 49.4612 207.059 42.2228 193.003C41.7738 192.131 42.0031 192.452 41.3196 191.807ZM182.398 231.057C180.888 234.795 180.903 244.281 182.383 248.116C182.526 248.488 182.712 248.766 182.915 249.116C183.748 248.95 183.704 248.812 184.253 248.216L187.401 244.265C187.441 240.071 188.22 234.856 185.768 231.276C184.487 230.74 183.736 230.926 182.398 231.057ZM186.69 261.872C186.153 264.149 185.311 267.055 186.73 269.189C187.145 269.813 187.659 270.378 188.132 270.956C191.922 275.591 190.516 287.031 194.385 288.172L195.279 287.426L197.939 285.379C196.982 279.189 192.39 268.927 190.203 262.688L186.69 261.872ZM201.875 294.395L197.656 300.94C201.432 309.222 205.219 315.671 212.352 321.435C213.52 320.734 214.677 320.021 215.895 319.409C212.309 314.106 208.798 308.844 205.906 303.117C204.794 300.916 203.421 296.007 201.875 294.395ZM547.411 298.441C523.556 310.753 507.965 315.548 480.817 313.141C492.782 323.335 503.27 332.936 516.399 341.763C522.454 345.708 542.603 358.845 548.925 357.702C554.66 356.664 559.941 355.312 565.8 354.771C559.346 336.551 554.273 318.051 548.239 299.721C547.9 298.694 548.184 299.106 547.411 298.441ZM470.748 311.804C469.535 313.562 468.383 315.372 466.922 316.935C484.78 337.547 508.831 354.25 533.7 365.179C539.959 367.93 546.774 369.501 552.93 372.32C557.655 383.052 562.17 394.117 566.153 405.143C569.227 413.649 571.731 422.07 575.621 430.289C581.348 442.388 589.596 454.535 598.168 464.812C604.336 472.207 612.174 477.665 618.423 484.773C616.943 492.691 615.722 500.523 614.957 508.549C580.52 479.322 545.752 450.488 510.657 422.053C495.539 409.771 480.439 397.574 465.646 384.901C454.656 375.485 443.874 366.506 434.606 355.283C432.677 358.062 430.768 360.858 428.803 363.612C442.605 378.551 457.702 391.824 472.99 405.169C485.326 416.025 497.844 426.671 510.539 437.104L550.853 469.621C557.023 474.607 562.964 479.882 569.211 484.772C577.482 491.248 586.083 497.302 594.453 503.649C602.816 509.991 611.295 516.062 619.882 522.093C626.28 526.586 632.434 531.375 639.624 534.58C647.132 537.926 656.095 539.118 664.247 538.266C668.897 537.78 678.97 536.229 681.755 532.155C683.041 530.272 682.605 527.297 682.09 525.222L681.232 524.272C677.342 525.185 673.284 526.38 669.321 526.856C654.191 528.675 636.763 522.681 624.042 514.889C622.866 514.169 621.766 513.346 620.693 512.482C619.302 501.146 620.168 490.067 623.52 479.149C618.687 475.373 616.105 469.724 613.718 464.188L613.985 463.454L616.344 462.51L616.626 461.814C616.092 460.624 615.442 460.148 614.459 459.34C611.358 460.61 610.216 468.652 607.158 467.466C602.629 465.709 599.945 458.576 597.94 454.465C601.625 454.384 605.183 454.466 608.853 454.817C604.624 451.797 602.484 449.15 600.604 444.335C600.238 443.398 600.582 443.582 599.7 443.604C599.552 443.908 599.409 444.214 599.254 444.515C598.45 446.075 597.08 447.251 595.374 447.727C594.206 448.054 593.173 447.962 592.118 447.37C589.023 445.633 588.646 437.442 586.995 434.275C591.227 434.115 595.183 434 599.37 434.782C596.905 430.649 594.342 426.576 591.683 422.566C590.365 425.007 588.577 428.817 585.873 429.881C584.632 430.369 583.741 430.243 582.605 429.592C579.79 427.979 579.019 422.02 578.73 419.202L578.679 418.661L587.298 418.082C585.398 415.088 583.64 410.789 581.167 408.362C580.336 409.777 580.02 411.09 578.303 411.515C576.783 411.891 574.908 411.31 573.718 410.391C570.062 407.566 568.269 401.065 566.999 396.755C568.41 394.574 569.761 392.321 571.383 390.288C569.749 389.387 567.907 388.492 566.457 387.314C561.47 383.258 559.225 373.443 557.187 367.583C525.165 358.247 493.356 336.17 470.748 311.804ZM463.957 321.368C455.639 330.316 447.31 339.335 439.271 348.535C441.433 351.663 444.477 354.307 447.287 356.849C454.756 349.504 462.259 341.433 468.828 333.276C469.853 331.928 471.065 330.803 471.275 329.101C470.638 328.03 470.256 327.403 469.176 326.756C467.487 327.78 466.055 330.848 464.819 332.465C461.992 336.166 451.594 349.555 447.558 349.72C446.565 349.013 446.651 349.022 446.406 347.815C449.039 342.294 465.22 328.254 466.024 324.135C466.107 323.709 465.77 323.306 465.642 322.891L463.957 321.368ZM231.69 339.486C227.025 342.554 221.795 345.414 220.723 351.424C219.463 358.49 220.882 362.046 218.248 369.979C233.752 375.805 248.267 380.454 265.09 379.52C269.204 378.947 273.21 378.101 277.149 376.759C271.675 369.336 257.385 359.79 249.888 353.944C243.797 349.195 237.868 344.097 231.69 339.486ZM569.698 363.898C567.168 365.041 564.672 366.229 562.027 367.085C563.215 368.73 564.354 370.335 565.339 372.113L566.576 372.704L568.936 370.997C571.209 372.106 572.445 373.781 574.131 375.592C573.477 372.621 572.852 366.235 570.925 363.982L569.698 363.898ZM425.49 368.813C422.641 373.647 417.194 381.63 418.655 387.386C422.442 392.297 427.623 396.381 432.262 400.481C441.943 409.037 451.826 417.24 461.862 425.375C493.388 450.926 525.486 475.645 557.322 500.802L601.492 536.108C609.15 542.194 616.729 548.827 624.925 554.166C629.653 557.246 634.509 558.709 640.095 559.394C650.572 560.679 662.034 558.842 670.873 552.795C675.25 549.258 678.425 545.641 681.02 540.607C664.822 545.484 648.595 546.985 633.01 538.759C623.454 533.716 614.644 526.73 605.731 520.621C582.852 504.94 561.455 487.608 539.996 470.07C516.907 451.2 494.043 432.243 471.578 412.624C459.799 402.338 447.972 392.135 436.899 381.082C433.042 377.231 428.719 373.206 425.49 368.813ZM576.673 390.318L571.802 397.334C574.302 398.398 576.793 399.496 579.318 400.501L581.021 401.062C581.758 398.779 579.229 394.731 578.141 392.613C577.692 391.737 577.359 391.029 576.673 390.318ZM629.414 475.134C626.317 486.162 623.445 497.763 626.259 509.199C640.77 517.652 656.165 522.576 673.007 520.26C674.75 519.73 676.479 519.208 678.179 518.554C664.396 502.073 646.259 488.349 629.414 475.134Z"/>
	<path fill="#9F8BE8" d="M247.841 0L299.25 0C317.617 18.8267 335.718 42.0936 348.731 64.9176C313.878 100.467 279.834 136.288 251.56 177.46C246.045 185.49 241.059 193.939 235.941 202.228C229.943 201.414 224.202 200.12 218.506 198.039C191.209 188.065 168.145 169.925 150.709 146.854C146.492 141.275 142.272 135.403 139.344 129.039C150.589 114.6 162.973 100.887 174.673 86.8015C198.778 57.6289 223.168 28.6937 247.841 0Z"/>
	<path fill="#9F8BE8" d="M341.546 0L513.024 0C514.017 65.628 523.927 132.118 538.583 196.016C545.204 224.885 554.181 253.308 560.217 282.295C552.078 288.741 543.333 294.684 533.98 299.222C506.808 312.407 481.285 310.018 453.551 300.53C452.189 280.294 447.864 261.28 442.48 241.745C437.411 222.789 431.349 204.112 424.319 185.793C414.669 161.197 403.073 137.354 392.375 113.204C375.868 75.2747 358.924 37.5376 341.546 -4.54747e-13L341.546 0Z"/>
	<path fill="#9F8BE8" d="M519.063 0L1024 0L1024 558.185C1006.75 539.718 984.611 523.453 962.423 511.464C902.952 479.331 827.796 460.564 760.706 453.341C732.055 450.256 703.194 449.2 674.413 448.142C664.172 447.766 630.591 445.132 622.73 447.473L617.006 447.644C603.444 429.082 590.456 407.589 583.037 385.772C580.6 378.604 580.254 370.781 577.599 363.733C575.908 359.244 572.719 355.369 571.002 350.864C564.052 332.633 558.835 313.207 553.578 294.442C557.424 291.951 562.283 288.822 565.301 285.404C565.738 284.909 566.149 284.403 566.468 283.823C567.162 282.561 566.833 281.34 566.609 279.995C565.533 273.518 563.329 266.922 561.68 260.551L553.11 226.438C533.756 152.382 522.342 76.4741 519.063 0Z"/>
	<path fill="#FCFCFC" d="M121.887 151.862C127.133 147.431 131.062 141.677 136.496 137.429C140.092 140.88 143.905 148.643 147.371 153.033C162.071 171.65 178.203 185.244 199.282 196.193C194.441 202.955 189.885 211.089 182.437 215.189L178.557 217.934C173.621 216.336 168.913 214.441 164.379 211.897C140.369 198.425 129.211 177.461 121.887 151.862Z"/>
	<path fill="#FCFCFC" d="M48.3004 186.513C66.3476 171.927 91.8318 158.467 114.452 153.112C115.338 152.924 115.829 152.969 116.704 153.194C118.902 161.886 121.271 170.09 124.955 178.31C135.435 201.692 154.096 215.723 177.43 224.598C174.936 229.944 168.584 233.987 167.995 239.98C167.801 241.96 168.219 243.901 169.61 245.376C170.832 246.67 172.798 247.707 174.6 247.516C175.625 247.407 175.977 246.438 176.55 245.653C178.34 249.239 178.7 254.861 179.722 258.855C177.03 262.318 172.346 265.497 172.181 270.273C172.125 271.885 172.793 272.637 173.885 273.713C175.468 274.304 176.744 274.326 178.312 273.681C180.928 272.605 181.78 270.059 182.783 267.642L184.278 275.143C181.781 278.289 179.296 281.408 177.067 284.755C177.616 286.08 178.155 287.799 179.131 288.866C179.794 289.591 180.972 290.074 181.945 289.952C184.342 289.653 185.862 287.768 187.399 286.088L191.051 297.553C188.641 300.389 185.98 303.282 185.61 307.144C185.452 308.799 185.893 309.823 186.911 311.137C188.302 311.761 189.074 312.057 190.608 311.464C193.515 310.34 194.192 308.134 195.344 305.507C196.723 307.894 199.398 311.531 199.861 314.171C200.145 315.791 195.055 317.764 193.998 319.116C193.681 320.581 194.002 322.063 194.62 323.42C195.121 324.52 195.773 325.456 196.998 325.756C199.452 326.358 202.56 324.356 204.422 323.034C205.954 324.379 207.399 325.838 208.87 327.251C207.652 328.031 206.005 328.885 205.064 329.99C203.792 331.483 203.41 332.89 203.46 334.807C207.01 342.865 215.59 334.62 220.671 336.835C221.189 338.586 220.385 339.041 219.08 340.224C217.844 341.344 216.032 342.64 215.235 344.103C213.683 346.955 213.923 354.699 213.324 358.303C212.892 360.902 212.162 363.483 211.483 366.027C209.134 364.829 207.077 363.725 205.092 361.944C212.682 344.584 196.805 334.835 188.28 322.222C182.183 313.2 172.848 290.247 170.102 279.41C168.57 273.366 167.876 267.135 167.496 260.923C166.874 250.754 167.78 239.961 166.371 229.922C166.175 228.524 165.849 227.211 164.968 226.078C162.631 223.072 151.894 217.488 148.207 214.787C131.664 202.669 117.296 184.698 114.151 163.914C96.8343 167.041 79.3098 177.173 65.1433 187.346C63.5052 185.581 61.5582 182.919 59.4731 181.744C58.7049 181.311 58.1104 181.294 57.2687 181.697C56.2733 182.174 55.6578 183.128 55.5002 184.199C54.4062 191.634 76.9303 218.856 82.0064 225.182C97.2223 243.853 111.939 262.925 126.14 282.379C149.671 314.816 169.529 348.771 205.208 369.719C221.733 379.422 243.252 387.144 262.528 385.969C268.519 385.604 274.246 384.182 280.035 382.687L280.736 383.2C281.521 385.979 280.023 388.855 279.032 391.423C254.799 396.999 231.091 392.963 209.18 381.404C193.698 373.236 180.178 361.853 168.321 349.056C157.59 337.474 148.825 324.688 139.809 311.783C129.595 297.162 119.45 282.392 108.711 268.154C103.453 261.182 97.6235 254.603 92.1167 247.825C85.6648 239.884 79.4483 231.752 72.9773 223.827C67.7626 217.44 62.1514 211.268 57.3976 204.527C53.4256 198.895 50.3213 193.104 48.3004 186.513ZM106.915 157.868C104.942 158.758 103.33 159.484 101.754 161.012L101.382 162.167C102.197 163.362 102.988 163.506 104.376 163.792C106.489 163.176 108.724 162.58 109.782 160.445C110.11 159.784 109.928 159.827 109.719 158.96C108.705 158.298 108.135 157.95 106.915 157.868ZM95.1412 162.615C93.0687 163.259 91.52 163.636 90.3856 165.664C89.9382 166.464 90.1211 166.644 90.2457 167.495C91.3602 168.133 92.0285 168.052 93.2867 167.959C95.0702 167.053 98.2152 165.768 98.9397 163.784C98.9903 163.646 98.9981 163.495 99.0274 163.351C98.0916 162.478 97.9657 162.533 96.7008 162.518C96.2618 162.512 95.5959 162.577 95.1412 162.615ZM83.4321 167.942C81.6434 168.721 79.2461 169.421 78.016 170.981C78.0369 172.357 78.242 172.457 79.2564 173.474C79.5526 173.771 79.8771 174.033 80.1983 174.301C82.1016 173.397 83.7253 172.63 85.2809 171.172L85.6838 170.029C85.0244 168.761 84.6896 168.67 83.4321 167.942ZM73.1063 173.946C70.6228 175.236 67.6209 176.401 65.7142 178.48L65.3469 179.753C65.8676 180.549 66.2521 181.01 67.0415 181.545C69.3284 180.664 72.9136 178.901 74.0614 176.562C74.3902 175.892 74.3828 175.764 74.5235 175.109C74.0481 174.607 73.7884 174.12 73.1063 173.946Z"/>
	<path d="M104.376 163.792C102.988 163.506 102.197 163.362 101.382 162.167L101.754 161.012C103.33 159.484 104.942 158.758 106.915 157.868C108.135 157.95 108.705 158.298 109.719 158.96C109.928 159.827 110.11 159.784 109.782 160.445C108.724 162.58 106.489 163.176 104.376 163.792Z"/>
	<path d="M93.2867 167.959C92.0285 168.052 91.3602 168.133 90.2457 167.495C90.1211 166.644 89.9382 166.464 90.3856 165.664C91.52 163.636 93.0687 163.259 95.1412 162.615C95.5959 162.577 96.2618 162.512 96.7008 162.518C97.9657 162.533 98.0916 162.478 99.0274 163.351C98.9981 163.495 98.9903 163.646 98.9397 163.784C98.2152 165.768 95.0702 167.053 93.2867 167.959Z"/>
	<path d="M80.1983 174.301C79.8771 174.033 79.5526 173.771 79.2564 173.474C78.242 172.457 78.0369 172.357 78.016 170.981C79.2461 169.421 81.6434 168.721 83.4321 167.942C84.6896 168.67 85.0244 168.761 85.6838 170.029L85.2809 171.172C83.7253 172.63 82.1016 173.397 80.1983 174.301Z"/>
	<path d="M67.0415 181.545C66.2521 181.01 65.8676 180.549 65.3469 179.753L65.7142 178.48C67.6209 176.401 70.6228 175.236 73.1063 173.946C73.7884 174.12 74.0481 174.607 74.5235 175.109C74.3828 175.764 74.3902 175.892 74.0614 176.562C72.9136 178.901 69.3284 180.664 67.0415 181.545Z"/>
	<path fill="#FCFCFC" d="M33.0017 206.342C34.3122 200.294 37.38 196.36 41.3196 191.807C42.0031 192.452 41.7738 192.131 42.2228 193.003C49.4612 207.059 59.8681 218.817 69.8142 230.968C80.2211 243.681 90.7613 256.611 100.652 269.727C109.123 280.96 117.743 292.169 125.777 303.716C136.24 318.755 146.139 334.296 158.087 348.221C167.436 359.117 177.676 369.054 189.472 377.293C213.658 394.185 245.19 405.17 274.913 399.835C271.996 403.075 269.378 404.882 265.423 406.686C248.766 412.004 230.922 408.058 214.786 402.785C194.828 396.264 175.807 385.95 160.534 371.424C148.646 360.118 140.448 346.409 131.475 332.874C124.735 322.792 117.776 312.859 110.601 303.082C104.811 295.318 98.3913 288.008 92.2633 280.509L48.685 228.111C42.9005 221.22 37.0902 214.417 33.0017 206.342Z"/>
	<path fill="#FCFCFC" d="M184.253 248.216C183.704 248.812 183.748 248.95 182.915 249.116C182.712 248.766 182.526 248.488 182.383 248.116C180.903 244.281 180.888 234.795 182.398 231.057C183.736 230.926 184.487 230.74 185.768 231.276C188.22 234.856 187.441 240.071 187.401 244.265L184.253 248.216Z"/>
	<path fill="#FCFCFC" d="M195.279 287.426L194.385 288.172C190.516 287.031 191.922 275.591 188.132 270.956C187.659 270.378 187.145 269.813 186.73 269.189C185.311 267.055 186.153 264.149 186.69 261.872L190.203 262.688C192.39 268.927 196.982 279.189 197.939 285.379L195.279 287.426Z"/>
	<path fill="#FCFCFC" d="M197.656 300.94L201.875 294.395C203.421 296.007 204.794 300.916 205.906 303.117C208.798 308.844 212.309 314.106 215.895 319.409C214.677 320.021 213.52 320.734 212.352 321.435C205.219 315.671 201.432 309.222 197.656 300.94Z"/>
	<path fill="#FCFCFC" d="M480.817 313.141C507.965 315.548 523.556 310.753 547.411 298.441C548.184 299.106 547.9 298.694 548.239 299.721C554.273 318.051 559.346 336.551 565.8 354.771C559.941 355.312 554.66 356.664 548.925 357.702C542.603 358.845 522.454 345.708 516.399 341.763C503.27 332.936 492.782 323.335 480.817 313.141Z"/>
	<path fill="#FCFCFC" d="M466.922 316.935C468.383 315.372 469.535 313.562 470.748 311.804C493.356 336.17 525.165 358.247 557.187 367.583C559.225 373.443 561.47 383.258 566.457 387.314C567.907 388.492 569.749 389.387 571.383 390.288C569.761 392.321 568.41 394.574 566.999 396.755C568.269 401.065 570.062 407.566 573.718 410.391C574.908 411.31 576.783 411.891 578.303 411.515C580.02 411.09 580.336 409.777 581.167 408.362C583.64 410.789 585.398 415.088 587.298 418.082L578.679 418.661L578.73 419.202C579.019 422.02 579.79 427.979 582.605 429.592C583.741 430.243 584.632 430.369 585.873 429.881C588.577 428.817 590.365 425.007 591.683 422.566C594.342 426.576 596.905 430.649 599.37 434.782C595.183 434 591.227 434.115 586.995 434.275C588.646 437.442 589.023 445.633 592.118 447.37C593.173 447.962 594.206 448.054 595.374 447.727C597.08 447.251 598.45 446.075 599.254 444.515C599.409 444.214 599.552 443.908 599.7 443.604C600.582 443.582 600.238 443.398 600.604 444.335C602.484 449.15 604.624 451.797 608.853 454.817C605.183 454.466 601.625 454.384 597.94 454.465C599.945 458.576 602.629 465.709 607.158 467.466C610.216 468.652 611.358 460.61 614.459 459.34C615.442 460.148 616.092 460.624 616.626 461.814L616.344 462.51L613.985 463.454L613.718 464.188C616.105 469.724 618.687 475.373 623.52 479.149C620.168 490.067 619.302 501.146 620.693 512.482C621.766 513.346 622.866 514.169 624.042 514.889C636.763 522.681 654.191 528.675 669.321 526.856C673.284 526.38 677.342 525.185 681.232 524.272L682.09 525.222C682.605 527.297 683.041 530.272 681.755 532.155C678.97 536.229 668.897 537.78 664.247 538.266C656.095 539.118 647.132 537.926 639.624 534.58C632.434 531.375 626.28 526.586 619.882 522.093C611.295 516.062 602.816 509.991 594.453 503.649C586.083 497.302 577.482 491.248 569.211 484.772C562.964 479.882 557.023 474.607 550.853 469.621L510.539 437.104C497.844 426.671 485.326 416.025 472.99 405.169C457.702 391.824 442.605 378.551 428.803 363.612C430.768 360.858 432.677 358.062 434.606 355.283C443.874 366.506 454.656 375.485 465.646 384.901C480.439 397.574 495.539 409.771 510.657 422.053C545.752 450.488 580.52 479.322 614.957 508.549C615.722 500.523 616.943 492.691 618.423 484.773C612.174 477.665 604.336 472.207 598.168 464.812C589.596 454.535 581.348 442.388 575.621 430.289C571.731 422.07 569.227 413.649 566.153 405.143C562.17 394.117 557.655 383.052 552.93 372.32C546.774 369.501 539.959 367.93 533.7 365.179C508.831 354.25 484.78 337.547 466.922 316.935Z"/>
	<path fill="#FCFCFC" d="M439.271 348.535C447.31 339.335 455.639 330.316 463.957 321.368L465.642 322.891C465.77 323.306 466.107 323.709 466.024 324.135C465.22 328.254 449.039 342.294 446.406 347.815C446.651 349.022 446.565 349.013 447.558 349.72C451.594 349.555 461.992 336.166 464.819 332.465C466.055 330.848 467.487 327.78 469.176 326.756C470.256 327.403 470.638 328.03 471.275 329.101C471.065 330.803 469.853 331.928 468.828 333.276C462.259 341.433 454.756 349.504 447.287 356.849C444.477 354.307 441.433 351.663 439.271 348.535Z"/>
	<path fill="#FCFCFC" d="M218.248 369.979C220.882 362.046 219.463 358.49 220.723 351.424C221.795 345.414 227.025 342.554 231.69 339.486C237.868 344.097 243.797 349.195 249.888 353.944C257.385 359.79 271.675 369.336 277.149 376.759C273.21 378.101 269.204 378.947 265.09 379.52C248.267 380.454 233.752 375.805 218.248 369.979Z"/>
	<path fill="#FCFCFC" d="M562.027 367.085C564.672 366.229 567.168 365.041 569.698 363.898L570.925 363.982C572.852 366.235 573.477 372.621 574.131 375.592C572.445 373.781 571.209 372.106 568.936 370.997L566.576 372.704L565.339 372.113C564.354 370.335 563.215 368.73 562.027 367.085Z"/>
	<path fill="#FCFCFC" d="M670.873 552.795C662.034 558.842 650.572 560.679 640.095 559.394C634.509 558.709 629.653 557.246 624.925 554.166C616.729 548.827 609.15 542.194 601.492 536.108L557.322 500.802C525.486 475.645 493.388 450.926 461.862 425.375C451.826 417.24 441.943 409.037 432.262 400.481C427.623 396.381 422.442 392.297 418.655 387.386C417.194 381.63 422.641 373.647 425.49 368.813C428.719 373.206 433.042 377.231 436.899 381.082C447.972 392.135 459.799 402.338 471.578 412.624C494.043 432.243 516.907 451.2 539.996 470.07C561.455 487.608 582.852 504.94 605.731 520.621C614.644 526.73 623.454 533.716 633.01 538.759C648.595 546.985 664.822 545.484 681.02 540.607C678.425 545.641 675.25 549.258 670.873 552.795Z"/>
	<path fill="#FCFCFC" d="M571.802 397.334L576.673 390.318C577.359 391.029 577.692 391.737 578.141 392.613C579.229 394.731 581.758 398.779 581.021 401.062L579.318 400.501C576.793 399.496 574.302 398.398 571.802 397.334Z"/>
	<path fill="#483991" d="M479.01 447.324C489.55 454.884 499.513 463.462 509.56 471.672C512.561 474.124 516.184 478.113 519.434 479.969C506.775 480.931 493.961 483.196 481.37 484.92C456.128 488.256 431.092 493 406.379 499.128C360.938 510.073 324.009 522.524 284.718 548.752C256.054 567.886 221.796 599.146 214.983 634.185C211.605 651.552 215.702 668.272 225.521 682.807C257.233 729.748 337.745 760.161 389.996 776.447C408.941 782.351 427.785 788.048 447.323 791.801C455.098 793.294 463.354 794.494 471.29 794.567C478.155 794.629 486.391 793.101 493.048 794.594C494.421 794.902 495.803 795.541 496.497 796.833C496.868 797.523 496.576 797.955 496.411 798.668C493.882 801.247 489.35 801.896 485.89 802.394C472.149 804.374 458.13 804.259 444.295 803.62C376.565 800.49 291.384 775.047 236.907 734.227C210.248 714.251 187.87 685.966 183.151 652.169C178.925 621.904 189.245 589.684 207.478 565.532C250.463 508.593 332.742 475.225 400.269 460.096C426.468 454.227 452.485 450.971 479.01 447.324Z"/>
	<path fill="#483991" d="M622.73 447.473C630.591 445.132 664.172 447.766 674.413 448.142C703.194 449.2 732.055 450.256 760.706 453.341C827.796 460.564 902.952 479.331 962.423 511.464C984.611 523.453 1006.75 539.718 1024 558.185L1024 594.859C1015.01 583.335 1001.07 571.812 989.294 562.976C977.292 553.972 964.989 545.584 951.919 538.198C897.286 507.322 825.596 485.287 763.59 477.093C741.426 474.309 719.164 472.375 696.852 471.295C685.279 470.706 672.875 471.226 661.432 469.622C661.254 469.597 661.077 469.568 660.899 469.541L662.555 469.468L663.313 468.954L664.12 469.139L663.797 469.254C662.145 467.917 635.828 468.651 631.071 468.036C626.313 461.62 621.701 455.154 617.383 448.431C619.219 448.284 621.061 448.336 622.73 447.473Z"/>
	<path fill="#FCFCFC" d="M626.259 509.199C623.445 497.763 626.317 486.162 629.414 475.134C646.259 488.349 664.396 502.073 678.179 518.554C676.479 519.208 674.75 519.73 673.007 520.26C656.165 522.576 640.77 517.652 626.259 509.199Z"/>
	<path fill="#483991" d="M699.121 477.086C707.923 476.59 717.189 477.861 725.998 478.352C736.971 478.963 747.963 479.555 758.845 481.174C779.582 484.258 800.447 490.069 820.198 497.026C858.053 510.36 888.504 526.131 918.578 553.024C942.205 574.153 963.714 602.893 965.379 635.54C966.344 652.991 960.31 670.107 948.614 683.095C938.764 693.972 926.079 700.685 912.371 705.414C909.01 706.573 905.34 708.004 901.768 708.237C900.318 708.332 899.349 708.118 898.133 707.291C897.462 706.218 897.245 705.341 897.478 704.059C897.73 702.665 899.111 701.864 900.273 701.291C902.274 700.304 904.439 699.545 906.506 698.699C909.496 697.476 912.174 695.432 914.805 693.577C925.366 686.133 934.452 677.38 939.374 665.214C945.217 650.772 943.341 636.016 937.307 621.983C918.14 577.412 862.459 543.157 818.882 525.973C777.197 509.535 733.72 501.48 689.116 498.763C684.171 498.462 672.34 496.885 667.989 498.639C665.793 495.947 661.96 493.549 659.233 491.342L641.523 476.885C655.088 476.922 668.628 477.467 682.188 477.537C687.612 477.566 693.793 478.1 699.121 477.086Z"/>
	<path fill="#483991" d="M526.396 485.758C535.611 493.306 550.69 502.896 557.748 511.32L557.252 511.526C558.124 512.017 558.759 512.059 559.736 512.2C557.189 512.635 554.479 512.69 551.896 513.069C545.05 514.074 538.235 515.407 531.436 516.692C485.371 525.396 439.035 536.671 398.421 560.956C384.68 569.173 371.89 578.341 362.8 591.825C354.577 604.022 351.296 617.753 354.237 632.286C359.063 656.128 379.207 673.487 398.657 686.212C498.408 751.47 663.161 761.248 778.306 741.303C797.241 738.023 816.257 734.084 834.632 728.39C840.721 726.503 846.964 724.231 852.901 721.917C856.502 720.513 861.106 717.268 864.839 716.891C866.451 716.728 866.598 717.019 867.786 717.992C868.127 719.303 868.199 719.512 867.474 720.761C866.073 723.176 861.538 725.65 859.219 727.188C833.685 744.125 794.447 754.195 764.41 759.625C732.292 765.685 699.801 769.569 667.159 771.251C576.356 775.383 435.907 760.621 360.623 708.248C337.463 692.136 317.245 669.614 312.29 640.979C307.705 614.484 316.758 589.456 332.078 568.092C364.689 522.616 427.903 501.448 480.659 491.97C495.787 489.253 511.224 488.263 526.396 485.758Z"/>
	<path fill="#483991" d="M709.091 521.091C709.247 521.081 709.402 521.069 709.558 521.06C720.239 520.481 731.885 522.639 742.456 524.114C785.917 530.18 825.834 542.043 858.938 572.427C874.676 586.873 892.554 610.861 893.467 632.917C893.981 645.342 888.648 656.212 880.268 665.111C836.882 711.185 713.667 723.951 652.728 725.477C588.07 727.097 468.649 716.89 420.096 670.896C407.924 659.366 397.963 643.305 397.561 626.092C397.141 608.125 407.939 590.151 420.008 577.618C451.038 545.397 503.594 531.724 546.6 525.576C554.36 524.467 562.259 523.072 570.075 522.599L570.004 523.275C571.429 523.471 572.779 523.494 574.212 523.48C579.503 527.873 593.135 537.678 597.109 542.045C582.314 544.022 567.314 544.522 552.481 546.604C513.023 552.145 465.073 566.011 431.905 588.636C422.444 595.089 411.854 603.937 409.885 615.927C408.694 623.181 411.483 629.812 415.727 635.527C440.623 669.048 510.293 686.243 549.876 692.21C630.928 704.429 754.786 700.04 831.483 670.552C843.711 665.85 856.752 660.339 867.278 652.487C874.19 647.33 880.931 639.986 881.977 631.054C883.037 622.001 877.759 612.973 872.282 606.187C861.713 593.091 846.979 583.393 832.286 575.491C795.368 555.636 758.603 546.999 717.254 541.941C707.54 540.753 697.801 540.061 688.084 538.994C689.983 534.306 688.49 526.234 687.443 521.427C694.544 521.534 702.036 521.855 709.091 521.091Z"/>
	<path fill="#483991" d="M0 540.613C36.4402 533.656 104.474 535.268 135.623 556.658C143.98 562.398 151.36 570.748 153.254 580.991C155.003 590.452 152.125 599.606 146.673 607.351C127.364 634.785 66.2855 659.906 35.1637 672.166C23.5947 676.724 11.2205 680.58 0 685.877L0 540.613Z"/>
	<path fill="#9F8BE8" d="M683.674 548.011C685.383 545.056 686.808 542.16 688.084 538.994C697.801 540.061 707.54 540.753 717.254 541.941C758.603 546.999 795.368 555.636 832.286 575.491C846.979 583.393 861.713 593.091 872.282 606.187C877.759 612.973 883.037 622.001 881.977 631.054C880.931 639.986 874.19 647.33 867.278 652.487C856.752 660.339 843.711 665.85 831.483 670.552C754.786 700.04 630.928 704.429 549.876 692.21C510.293 686.243 440.623 669.048 415.727 635.527C411.483 629.812 408.694 623.181 409.885 615.927C411.854 603.937 422.444 595.089 431.905 588.636C465.073 566.011 513.023 552.145 552.481 546.604C567.314 544.522 582.314 544.022 597.109 542.045C600.579 544.191 603.844 546.653 606.863 549.398C606.602 549.471 606.341 549.548 606.079 549.618C597.03 552.03 569.548 550.494 564.628 558.795C563.807 560.175 563.628 561.844 564.138 563.367C564.783 565.309 566.294 566.775 568.109 567.658C569.913 568.537 571.983 568.822 573.971 568.834C577.697 568.855 581.658 568.125 585.374 567.778C592.051 567.199 598.732 566.658 605.415 566.155C612.886 565.587 623.414 565.9 630.453 564.508C644.688 565.836 656.26 566.015 669.607 560.317C669.504 562.012 669.468 563.537 670.516 564.987C672.937 568.339 693.732 566.25 698.917 566.774C705.635 567.453 712.378 568.212 718.999 569.552C725.148 570.797 731.598 572.794 737.848 573.287C740.494 573.496 743.093 572.402 745.046 570.65C746.674 569.19 748.092 566.991 748.052 564.725C748.007 562.102 746.326 559.811 744.42 558.134C738.354 552.793 714.979 548.79 706.641 549.147C699.036 548.302 691.322 548.027 683.674 548.011ZM538.903 556.103C532.226 557.345 525.596 559.874 519.237 562.233C500.174 569.305 479.622 578.34 467.663 595.644C463.47 601.71 459.94 609.468 461.359 616.992C463.498 628.344 474.277 637.201 483.394 643.167C543.951 682.801 680.895 688.697 750.366 673.896C776.605 668.305 813.958 656.288 829.163 632.806C834.153 625.101 836.741 616.066 834.781 606.935C832.086 594.376 822.474 584.365 811.932 577.725C801.667 571.259 790.622 567.073 778.998 563.778C773.58 562.699 764.135 559.392 759.175 562.72C757.954 563.538 757.011 564.709 756.687 566.167C756.342 567.715 756.924 569.224 757.897 570.413C761.71 575.068 788.455 581.799 796.049 584.927C803.772 588.108 811.402 592.274 817.683 597.835C821.914 601.581 825.749 606.552 825.489 612.497C825.218 618.667 821.227 623.747 816.745 627.61C776.294 662.471 661.666 666.122 610.357 662.012C576.56 659.305 498.733 647.253 475.479 620.783C473.237 618.231 471.488 615.144 471.837 611.64C472.385 606.145 477.265 601.966 481.365 598.791C494.697 588.466 512.157 582.3 528.17 577.376C534.104 575.552 540.609 574.141 546.225 571.485C548.721 570.304 551.46 568.879 551.996 565.879C552.397 563.633 551.423 561.231 550.032 559.498C548.26 557.288 546.334 556.166 543.493 555.97C541.963 555.858 540.425 555.902 538.903 556.103ZM550.033 575.091C540.572 576.849 532.571 583.451 527.195 591.272C523.989 595.935 521.896 602.038 522.943 607.704C524.695 617.182 532.61 624.111 540.263 629.151C580.875 655.897 663.244 658 709.584 648.255C730.815 643.79 755.227 635.689 767.662 616.69C770.534 612.302 772.643 607.219 772.451 601.885C771.275 595.914 769.672 591.908 764.377 588.406C763.251 587.662 762.098 586.96 760.919 586.301L760.227 586.48C758.469 586.946 756.581 587.21 755.687 588.991C755.356 589.65 755.414 590.291 755.725 590.97C757.735 595.371 765.66 596.87 764.198 602.965C762.761 608.96 750.604 616.463 745.422 619.093C701.959 641.148 616.037 640.383 569.785 624.994C558.306 621.174 542.201 615.015 536.46 603.363C535.614 601.648 535.186 599.802 534.761 597.949C536.854 591.384 541.139 586.924 547.163 583.749C549.38 582.581 554.156 581.031 555.189 578.639C555.49 577.94 555.056 577.594 554.74 576.979C553.149 575.768 552.002 575.382 550.033 575.091ZM666.196 574.96C666.102 575.087 666.006 575.214 665.913 575.342C665.057 576.525 664.634 577.321 664.327 578.745C664.734 580.22 665.147 580.574 666.514 581.289C672.101 584.214 687.336 588.299 689.579 594.972C690.016 596.274 689.91 597.49 689.299 598.714C687.187 602.944 681.672 604.929 677.395 606.137C661.35 610.668 633.394 611.361 618.382 603.23C615.788 601.825 612.653 599.474 611.916 596.427C611.478 594.617 611.867 593.066 612.946 591.594C616.521 586.714 627.138 584.369 628.857 579.964C628.624 578.508 628.42 578.319 627.451 577.182C624.877 575.9 621.615 576.879 619.016 577.731C610.037 580.675 600.585 587.621 596.315 596.198C596.125 596.584 595.94 596.973 595.762 597.365C594.275 602.049 593.558 606.248 595.938 610.831C600.149 618.941 611.105 623.47 619.396 625.87C639.859 631.796 675.973 632.877 695.264 622.302C700.782 619.277 705.812 614.634 707.479 608.373C708.537 604.399 707.394 600.725 705.26 597.319C698.519 586.553 683.891 578.256 671.733 575.602C669.908 575.204 668.066 574.927 666.196 574.96Z"/>
	<path fill="#483991" d="M606.863 549.398C611.208 554.501 619.116 558.638 625 561.746C626.773 562.683 628.8 563.399 630.453 564.508C623.414 565.9 612.886 565.587 605.415 566.155C598.732 566.658 592.051 567.199 585.374 567.778C581.658 568.125 577.697 568.855 573.971 568.834C571.983 568.822 569.913 568.537 568.109 567.658C566.294 566.775 564.783 565.309 564.138 563.367C563.628 561.844 563.807 560.175 564.628 558.795C569.548 550.494 597.03 552.03 606.079 549.618C606.341 549.548 606.602 549.471 606.863 549.398Z"/>
	<path fill="#483991" d="M706.641 549.147C714.979 548.79 738.354 552.793 744.42 558.134C746.326 559.811 748.007 562.102 748.052 564.725C748.092 566.991 746.674 569.19 745.046 570.65C743.093 572.402 740.494 573.496 737.848 573.287C731.598 572.794 725.148 570.797 718.999 569.552C712.378 568.212 705.635 567.453 698.917 566.774C693.732 566.25 672.937 568.339 670.516 564.987C669.468 563.537 669.504 562.012 669.607 560.317C669.763 560.549 669.954 560.761 670.077 561.013C670.201 561.27 670.252 561.557 670.34 561.829C671.786 558.186 679.907 552.418 682.942 549.07C690.834 548.697 698.815 549.891 706.641 549.147Z"/>
	<path fill="#483991" d="M778.998 563.778C790.622 567.073 801.667 571.259 811.932 577.725C822.474 584.365 832.086 594.376 834.781 606.935C836.741 616.066 834.153 625.101 829.163 632.806C813.958 656.288 776.605 668.305 750.366 673.896C680.895 688.697 543.951 682.801 483.394 643.167C474.277 637.201 463.498 628.344 461.359 616.992C459.94 609.468 463.47 601.71 467.663 595.644C479.622 578.34 500.174 569.305 519.237 562.233C525.596 559.874 532.226 557.345 538.903 556.103C540.425 555.902 541.963 555.858 543.493 555.97C546.334 556.166 548.26 557.288 550.032 559.498C551.423 561.231 552.397 563.633 551.996 565.879C551.46 568.879 548.721 570.304 546.225 571.485C540.609 574.141 534.104 575.552 528.17 577.376C512.157 582.3 494.697 588.466 481.365 598.791C477.265 601.966 472.385 606.145 471.837 611.64C471.488 615.144 473.237 618.231 475.479 620.783C498.733 647.253 576.56 659.305 610.357 662.012C661.666 666.122 776.294 662.471 816.745 627.61C821.227 623.747 825.218 618.667 825.489 612.497C825.749 606.552 821.914 601.581 817.683 597.835C811.402 592.274 803.772 588.108 796.049 584.927C788.455 581.799 761.71 575.068 757.897 570.413C756.924 569.224 756.342 567.715 756.687 566.167C757.011 564.709 757.954 563.538 759.175 562.72C764.135 559.392 773.58 562.699 778.998 563.778Z"/>
	<path fill="#483991" d="M772.451 601.885C772.643 607.219 770.534 612.302 767.662 616.69C755.227 635.689 730.815 643.79 709.584 648.255C663.244 658 580.875 655.897 540.263 629.151C532.61 624.111 524.695 617.182 522.943 607.704C521.896 602.038 523.989 595.935 527.195 591.272C532.571 583.451 540.572 576.849 550.033 575.091C552.002 575.382 553.149 575.768 554.74 576.979C555.056 577.594 555.49 577.94 555.189 578.639C554.156 581.031 549.38 582.581 547.163 583.749C541.139 586.924 536.854 591.384 534.761 597.949C535.186 599.802 535.614 601.648 536.46 603.363C542.201 615.015 558.306 621.174 569.785 624.994C616.037 640.383 701.959 641.148 745.422 619.093C750.604 616.463 762.761 608.96 764.198 602.965C765.66 596.87 757.735 595.371 755.725 590.97C755.414 590.291 755.356 589.65 755.687 588.991C756.581 587.21 758.469 586.946 760.227 586.48L760.919 586.301C762.098 586.96 763.251 587.662 764.377 588.406C769.672 591.908 771.275 595.914 772.451 601.885Z"/>
	<path fill="#483991" d="M595.762 597.365C595.94 596.973 596.125 596.584 596.315 596.198C600.585 587.621 610.037 580.675 619.016 577.731C621.615 576.879 624.877 575.9 627.451 577.182C628.42 578.319 628.624 578.508 628.857 579.964C627.138 584.369 616.521 586.714 612.946 591.594C611.867 593.066 611.478 594.617 611.916 596.427C612.653 599.474 615.788 601.825 618.382 603.23C633.394 611.361 661.35 610.668 677.395 606.137C681.672 604.929 687.187 602.944 689.299 598.714C689.91 597.49 690.016 596.274 689.579 594.972C687.336 588.299 672.101 584.214 666.514 581.289C665.147 580.574 664.734 580.22 664.327 578.745C664.634 577.321 665.057 576.525 665.913 575.342C666.006 575.214 666.102 575.087 666.196 574.96C668.066 574.927 669.908 575.204 671.733 575.602C683.891 578.256 698.519 586.553 705.26 597.319C707.394 600.725 708.537 604.399 707.479 608.373C705.812 614.634 700.782 619.277 695.264 622.302C675.973 632.877 639.859 631.796 619.396 625.87C611.105 623.47 600.149 618.941 595.938 610.831C593.558 606.248 594.275 602.049 595.762 597.365Z"/>
	<path fill="#483991" d="M1024 741.933C1010.62 754.653 994.875 765.321 977.797 772.39C963.315 778.385 946.955 781.601 931.27 780.113C928.335 779.835 925.095 779.666 922.373 778.443C920.556 777.627 919.593 776.66 918.89 774.786C919.006 773.995 918.954 773.518 919.47 772.859C922.414 769.101 930.261 769.092 934.606 768.286C962.249 763.159 989.44 745.711 1007.97 724.988C1013.93 718.325 1018.92 710.964 1024 703.632L1024 741.933Z"/>
	<path d="M551.059 925.457C550.742 907.547 553.009 889.724 565.914 876.221C600.088 840.463 716.472 799.146 765.803 788.495C781.02 785.14 796.539 783.341 812.119 783.125C829.712 782.844 847.005 784.732 864.247 788.202C895.268 794.444 979.932 822.08 1000.73 842.188C1012.38 853.454 1014.29 867.016 1014.49 882.633C1014.61 892.141 1014.03 902.303 1012.26 911.649C1011.31 916.633 1009.84 921.515 1008.78 926.478C1006.29 928.299 1004.37 931.028 1002.29 933.293C999.594 936.232 996.703 938.514 993.421 940.756C956.148 966.213 902.592 979.843 858.415 986.839C828.306 991.483 797.975 994.556 767.546 996.047C718.192 998.242 612.64 996.915 572.496 967.388C560.902 958.861 554.278 949.549 552.028 935.209C551.519 931.964 551.551 928.705 551.059 925.457ZM804.427 789.712C784.729 790.95 765.544 794.732 746.491 799.81C734.176 803.092 722.066 807.332 709.991 811.4C668.548 825.363 622.165 843.262 586.057 868.092C580.212 872.111 573.948 876.383 569.322 881.804C566.993 884.533 564.86 887.812 565.078 891.554C565.362 896.428 569.115 900.269 572.69 903.195C603.322 928.263 686.818 931.592 724.876 928.687C755.342 927.288 786.002 922.908 816.001 917.527C830.102 914.998 844.271 912.532 858.139 908.899C886.189 901.552 931.97 885.443 951.976 863.755C957.489 857.779 963.604 849.096 963.116 840.58C962.81 835.23 959.828 830.607 955.834 827.193C948.94 821.301 938.59 818.033 930.217 814.749C892.302 799.882 845.758 787.004 804.58 789.697C804.529 789.7 804.478 789.707 804.427 789.712ZM966.504 829.455C969.85 837.208 970.288 843.689 967.188 851.602C958.253 874.412 930.746 888.767 909.317 897.923C891.262 905.638 871.883 912.671 852.662 916.791C863.902 917.382 875.449 916.681 886.619 915.366C918.495 911.612 974.991 900.486 995.737 874.173C999.433 869.484 1003.12 862.382 1002.24 856.271C1001.42 850.529 996.816 846.065 992.303 842.832C985.618 838.042 974.384 831.894 966.504 829.455ZM1006.84 865.872C998.985 884.698 981.558 895.559 963.337 903.021C928.939 917.109 891.256 922.712 854.284 923.885C842.035 924.274 829.484 923.207 817.3 924.221C799.733 925.683 782.198 929.744 764.623 931.735C714.402 937.424 634.8 939.318 587.793 919.447C577.201 915.091 567.617 908.606 559.634 900.393C556.202 916.476 555.766 935.703 564.633 950.148C579.109 971.285 608.494 978.164 632.241 982.615C724.434 999.894 912.187 989.488 989.588 936.112C998.702 929.827 1003.8 924.253 1005.8 913.042C1008.02 900.671 1010.14 878.399 1007.27 866.319L1006.84 865.872Z"/>
	<path fill="#9F8BE8" d="M724.876 928.687C686.818 931.592 603.322 928.263 572.69 903.195C569.115 900.269 565.362 896.428 565.078 891.554C564.86 887.812 566.993 884.533 569.322 881.804C573.948 876.383 580.212 872.111 586.057 868.092C622.165 843.262 668.548 825.363 709.991 811.4C722.066 807.332 734.176 803.092 746.491 799.81C765.544 794.732 784.729 790.95 804.427 789.712C804.478 789.707 804.529 789.7 804.58 789.697C845.758 787.004 892.302 799.882 930.217 814.749C938.59 818.033 948.94 821.301 955.834 827.193C959.828 830.607 962.81 835.23 963.116 840.58C963.604 849.096 957.489 857.779 951.976 863.755C931.97 885.443 886.189 901.552 858.139 908.899C844.271 912.532 830.102 914.998 816.001 917.527C786.002 922.908 755.342 927.288 724.876 928.687Z"/>
	<path fill="#9F8BE8" d="M852.662 916.791C871.883 912.671 891.262 905.638 909.317 897.923C930.746 888.767 958.253 874.412 967.188 851.602C970.288 843.689 969.85 837.208 966.504 829.455C974.384 831.894 985.618 838.042 992.303 842.832C996.816 846.065 1001.42 850.529 1002.24 856.271C1003.12 862.382 999.433 869.484 995.737 874.173C974.991 900.486 918.495 911.612 886.619 915.366C875.449 916.681 863.902 917.382 852.662 916.791Z"/>
	<path fill="#483991" d="M340.073 1024C331.393 1012.12 329.37 996.919 331.596 982.583C336.651 950.025 362.957 923.221 388.678 904.642C428.055 876.2 478.832 858.974 526.672 852.273C532.838 851.409 544.705 849.183 550.677 849.966C551.659 850.095 552.352 850.386 553.177 850.944C553.911 852.148 553.867 852.067 553.57 853.451C549.264 858.561 519.766 868.873 512.219 871.787C462.412 891.017 409.123 914.904 374.098 956.791C365.202 967.43 357.423 979.107 353.507 992.548C350.373 1003.3 351.783 1013.07 351.786 1024L340.073 1024Z"/>
	<path fill="#483991" d="M559.634 900.393C567.617 908.606 577.201 915.091 587.793 919.447C634.8 939.318 714.402 937.424 764.623 931.735C782.198 929.744 799.733 925.683 817.3 924.221C829.484 923.207 842.035 924.274 854.284 923.885C891.256 922.712 928.939 917.109 963.337 903.021C981.558 895.559 998.985 884.698 1006.84 865.872L1007.27 866.319C1010.14 878.399 1008.02 900.671 1005.8 913.042C1003.8 924.253 998.702 929.827 989.588 936.112C912.187 989.488 724.434 999.894 632.241 982.615C608.494 978.164 579.109 971.285 564.633 950.148C555.766 935.703 556.202 916.476 559.634 900.393Z"/>
	<path fill="#483991" d="M434.648 1024C422.711 1011.93 416.258 994.94 416.366 978.003C416.504 956.367 426.327 936.897 441.62 921.901C465.128 898.852 498.415 886.799 531.074 886.939C532.863 886.946 534.373 887.147 536.028 887.822C536.913 888.803 536.933 888.748 536.946 890.061C533.991 895.703 506.758 906.915 499.183 911.014C471.331 926.088 443.437 951.992 439.795 985.116C438.862 993.609 439.815 1001.34 441.852 1009.57C443.025 1014.31 444.411 1019.09 444.668 1024L434.648 1024Z"/>
	<path fill="#483991" d="M551.059 925.457C551.551 928.705 551.519 931.964 552.028 935.209C554.278 949.549 560.902 958.861 572.496 967.388C612.64 996.915 718.192 998.242 767.546 996.047C797.975 994.556 828.306 991.483 858.415 986.839C902.592 979.843 956.148 966.213 993.421 940.756C996.703 938.514 999.594 936.232 1002.29 933.293C1004.37 931.028 1006.29 928.299 1008.78 926.478C1005.86 941.361 999.884 950.266 987.833 959.337C932.752 1000.8 810.834 1013.18 741.968 1015.39C720.53 1016.08 698.808 1015.74 677.381 1014.77C656.548 1013.82 635.716 1011.12 615.081 1008.19C590.058 1004.64 540.146 993.906 524.848 972.787C521.657 968.381 519.916 963.343 520.945 957.89C522.938 947.324 533.842 939.3 542.641 934.424C544.624 933.325 549.001 931.599 550.443 929.981C551.294 929.027 551.026 926.747 551.059 925.457Z"/>
</svg>
