<?xml version="1.0" encoding="utf-8" ?>
<svg xmlns="http://www.w3.org/2000/svg" xmlns:xlink="http://www.w3.org/1999/xlink" width="1024" height="1024">
	<path fill="#9F8BE8" d="M0 0L656.977 0C648.397 13.7955 639.022 27.0432 630.358 40.779C626.659 46.6448 622.435 52.7859 619.675 59.1573C613.217 60.0154 609.825 63.0841 605.979 68.1652C598.353 78.2422 593.354 89.3579 587.401 100.376C585.813 96.6234 584.544 92.2194 580.433 90.5456C576.318 88.8704 570.179 88.5833 565.713 87.8429L531.243 82.1122C518.504 79.9487 505.784 76.7623 492.992 75.0619C490.654 74.7512 488.446 74.2748 486.293 75.3928C480.04 78.6403 475.5 89.2454 473.648 95.736C471.673 102.658 469.983 114.517 473.835 120.978C476.75 125.868 485.538 126.383 490.748 127.528C505.674 130.811 520.815 134.196 535.9 136.642C530.633 142.179 526.855 150.272 522.456 156.643C515.066 167.345 507.157 177.707 499.905 188.502C492.029 200.225 484.756 212.39 477.059 224.238C467.643 238.731 457.43 252.632 447.751 266.938C432.331 289.73 416.761 312.115 400.591 334.392C393.82 343.721 387.241 353.216 380.148 362.305C365.605 358.083 351.438 354.143 336.336 352.471L346.933 333.68C353.994 334.356 362.597 334.926 368.495 330.267C371.076 328.228 372.554 325.432 372.887 322.168C373.539 315.761 369.453 314.094 369.326 310.589C369.256 308.654 370.09 306.448 370.162 304.409C372.055 302.017 375.344 298.78 374.833 295.449C374.09 290.609 365.076 286.094 362.183 281.865C359.209 277.518 357.694 272.054 355.723 267.194C361.429 265.199 366.847 262.293 369.704 256.658C371.91 252.305 371.931 247.338 370.333 242.782C368.161 236.592 363.497 231.723 357.539 229.048C351.221 226.21 344.068 225.775 337.577 228.284C335.168 229.216 333.111 230.551 330.984 231.988C322.52 226.645 314.49 225.195 304.69 227.373C296.064 229.29 286.208 234.619 281.33 242.206C280.916 242.856 280.521 243.518 280.146 244.191C271.007 242.273 263.424 243.351 255.507 248.441C248.515 252.936 242.678 260.106 240.808 268.307C239.713 273.107 240.289 276.919 241.598 281.529C232.725 287.082 226.797 294.106 224.457 304.497C222.36 313.809 224.377 323.156 229.549 331.118C235.692 340.574 245.939 345.739 256.768 347.896C263.411 349.219 270.173 349.236 276.917 349.054C258.242 363.701 245.372 384.501 240.6 407.751C238.616 417.585 237.912 427.728 236.296 437.641C233.019 457.74 229.015 476.91 221.709 495.967C219.293 502.268 216.972 510.489 213.293 516.131C211.732 516.701 210.892 517.417 209.756 518.625C204.059 524.682 199.372 531.808 194.11 538.245C184.434 550.081 174.237 561.549 164.312 573.18C129.469 613.655 94.2716 653.824 58.7232 693.682L21.5951 734.978C14.3752 742.982 6.7549 750.892 0 759.285L0 0Z"/>
	<path fill="#E6E2F6" d="M656.977 0L1024 0L1024 108.813C1016.01 116.243 1007.3 122.94 998.979 129.997L944.563 176.038C936.397 182.942 928.269 189.893 920.182 196.89C915.856 200.647 911.543 205.056 906.783 208.204C898.783 200.618 882.872 193.194 873.061 186.58C873.08 181.13 873.435 175.565 873.997 170.147C880.203 169.246 886.38 167.987 892.578 167.002C898.019 166.138 903.794 165.605 909.123 164.217C912.71 163.282 916.471 161.495 918.309 158.1C922.816 149.777 919.229 137.007 916.976 128.46C913.951 116.977 906.402 90.7055 896.191 85.1552C888.286 80.8585 876.103 87.3615 868.552 90.1437C862.87 92.2715 857.117 94.2034 851.303 95.9362C845.689 90.5851 840.433 84.97 834.591 79.844C838.876 69.1277 845.164 59.5828 850.06 49.2257C851.593 45.9816 853.573 40.873 852.135 37.3243C848.554 28.4863 825.078 17.4791 816.071 13.369C809.028 10.1555 791.048 0.7997 783.726 3.87606C777.458 6.50977 765.218 36.9409 761.876 44.3336C756.773 43.483 751.747 43.4671 746.596 43.472C742.921 34.3897 736.577 15.8036 732.082 8.61612C730.736 6.46345 728.975 4.24228 726.577 3.22224C717.052 -0.82931 693.387 6.53845 683.993 10.0128C674.58 13.4943 658.775 19.0816 654.474 29.0938C653.982 30.2392 653.455 31.8785 653.633 33.1419C654.188 37.0906 666.337 58.6336 669 64.9838C663.821 68.9489 659.052 73.3846 654.496 78.0455C645.298 72.6469 629.763 60.2783 619.675 59.1573C622.435 52.7859 626.659 46.6448 630.358 40.779C639.022 27.0432 648.397 13.7955 656.977 0Z"/>
	<path fill="#010101" d="M587.401 100.376C593.354 89.3579 598.353 78.2422 605.979 68.1652C609.825 63.0841 613.217 60.0154 619.675 59.1573C629.763 60.2783 645.298 72.6469 654.496 78.0455C659.052 73.3846 663.821 68.9489 669 64.9838C666.337 58.6336 654.188 37.0906 653.633 33.1419C653.455 31.8785 653.982 30.2392 654.474 29.0938C658.775 19.0816 674.58 13.4943 683.993 10.0128C693.387 6.53845 717.052 -0.82931 726.577 3.22224C728.975 4.24228 730.736 6.46345 732.082 8.61612C736.577 15.8036 742.921 34.3897 746.596 43.472C751.747 43.4671 756.773 43.483 761.876 44.3336C765.218 36.9409 777.458 6.50977 783.726 3.87606C791.048 0.7997 809.028 10.1555 816.071 13.369C825.078 17.4791 848.554 28.4863 852.135 37.3243C853.573 40.873 851.593 45.9816 850.06 49.2257C845.164 59.5828 838.876 69.1277 834.591 79.844C840.433 84.97 845.689 90.5851 851.303 95.9362C857.117 94.2034 862.87 92.2715 868.552 90.1437C876.103 87.3615 888.286 80.8585 896.191 85.1552C906.402 90.7055 913.951 116.977 916.976 128.46C919.229 137.007 922.816 149.777 918.309 158.1C916.471 161.495 912.71 163.282 909.123 164.217C903.794 165.605 898.019 166.138 892.578 167.002C886.38 167.987 880.203 169.246 873.997 170.147C873.435 175.565 873.08 181.13 873.061 186.58C882.872 193.194 898.783 200.618 906.783 208.204C909.605 213.527 909.985 218.322 908.193 224.093C903.403 239.514 892.142 252.199 885.164 266.539C881.151 271.45 877.836 274.6 871.39 275.873C862.025 274.846 853.967 266.624 845.868 262.164C842.202 260.313 838.577 258.382 834.996 256.372C830.243 261.061 825.281 265.124 819.985 269.191C821.335 273.084 822.832 276.901 824.37 280.724C827.738 289.308 832.141 298.732 832.901 307.988C831.43 313.106 829.003 316.481 824.341 319.183C816.938 323.472 805.912 325.677 797.592 328.178C787.824 330.441 768.417 338.11 759.373 333.42C756.661 332.013 754.813 329.374 753.87 326.528C750 315.609 747.365 303.772 745.128 292.415C739.494 293.237 734.592 292.962 728.941 292.29C726.927 300.35 720.747 312.578 716.65 320.036C713.608 325.572 710.217 328.34 704.262 330.085C693.686 328.136 681.637 322.589 671.752 318.168C663.814 314.619 640.791 304.974 638.041 296.843C635.374 288.954 654.33 265.655 658.507 257.362C654.236 252.427 650.895 246.706 646.255 242.103C635.207 246.243 614.685 258.985 603.427 255.739C598.115 254.207 595.964 250.437 593.596 245.865C589.363 237.408 585.377 228.83 581.643 220.141C578.926 213.597 572.284 202.612 575.05 195.706C576.195 192.848 578.388 190.644 580.772 188.776C584.888 185.55 590.008 183.161 594.602 180.662C601.86 176.795 609.058 172.813 616.191 168.72C617.606 162.526 618.998 156.38 621.082 150.366C613.35 146.271 587.357 132.63 585.154 125.696C584.801 124.552 584.481 123.398 584.192 122.236C583.068 123.955 584.506 125.269 583.902 126.779C583.584 127.574 580.471 129.751 579.694 130.606C583.114 132.227 585.997 133.509 587.462 137.286C589.269 141.947 589.554 148.716 587.298 153.208C580.542 166.663 532.773 179.531 525.426 193.345C520.193 203.181 515.925 237.175 513.654 250.243C516.405 250.865 519.585 251.136 521.311 253.615C522.6 260.35 514.542 276.467 514.409 284.863C515.359 285.256 516.244 284.709 517.207 284.406C518.975 284.665 519.901 285.305 520.955 286.712C523.162 289.658 522.801 294.576 522.135 297.963C521.214 302.645 519.04 306.838 516.773 310.985L517.326 317.282C516.269 325.342 516.62 333.504 509.284 338.921C507.196 340.463 504.668 341.772 502.246 342.693C500.562 351.982 489.34 416.996 486.532 420.02C484.691 421.085 482.95 420.832 480.907 420.719C480.178 424.444 479.263 435.755 475.996 437.943C475.443 438.313 474.751 438.607 474.144 438.884C472.3 438.234 470.82 437.732 469.963 435.795C468.125 431.636 471.418 422.875 472.057 418.298C469.192 417.831 466.85 417.252 464.246 415.898C465.79 404.868 468.106 393.761 469.329 382.719C457.69 398.275 447.329 414.652 436.339 430.659C430.843 438.664 425.479 447.928 418.325 454.526C415.391 457.232 412.169 458.953 408.171 459.499C403.609 460.123 399.011 458.92 394.59 457.914C399.45 463.491 412.093 472.901 414.832 478.575C415.704 480.38 415.87 482.629 415.691 484.604C415.65 485.069 415.604 485.263 415.52 485.756C411.889 491.884 406.391 496.236 399.393 497.934C389.955 500.225 379.954 496.698 372.033 491.605C361.425 484.784 356.086 477.753 347.838 468.882C343.815 475.501 341.097 482.686 338.958 490.113C331.629 515.564 336.249 536.295 342.319 561.172C350.041 592.817 358.891 624.142 365.489 656.068C367.595 664.82 369.654 673.583 371.664 682.358C373.767 691.972 376.173 701.643 377.691 711.366C379.528 723.131 380.373 735.112 381.691 746.949C383.329 761.34 385.227 775.701 387.384 790.024C390.559 813.682 394.177 837.01 398.712 860.459L404.827 891.863C406.071 898.415 407.566 905.046 408.097 911.701C408.383 915.288 408.743 919.994 406.332 922.945C405.497 923.967 404.22 924.764 403.094 925.437C404.055 930.896 405.057 936.347 406.101 941.79C414.13 941.559 422.275 944.961 429.465 948.216C444.243 954.905 482.788 978.774 494.404 989.705C497.226 992.361 499.857 995.881 500.016 999.905C500.121 1002.58 499.044 1004.78 497.174 1006.64C488.967 1014.84 472.511 1013.77 461.699 1013.48C444.068 1013 373.779 1005.26 363.056 993.392C361.984 992.207 362.034 990.984 362.14 989.453C362.459 984.866 371.457 952.777 373.746 947.516C372.185 942.966 370.828 938.432 369.576 933.789C365.58 932.932 362.061 932.484 359.772 928.677C354.841 920.48 350.031 902.615 346.562 892.729L332.395 852.229C329.71 844.455 326.712 836.54 324.643 828.58C322.218 822.517 320.597 815.751 318.818 809.462C312.165 785.942 308.019 762.644 305.242 738.411C303.133 730.6 303.085 719.48 301.885 711.095C293.352 696.094 284.539 681.357 276.253 666.199C271.995 693.23 265.66 719.893 257.306 745.951C254.464 752.93 251.804 759.897 248.714 766.782C245.492 773.961 241.767 781.085 239.093 788.482C234.132 796.409 230.091 807.373 226.133 816.012C218.436 832.81 211.332 849.767 204.236 866.826C198.625 880.317 192.594 894.129 188.194 908.056C186.086 913.952 184.136 920.646 180.461 925.78C177.289 925.317 174.124 924.81 170.967 924.259C168.797 930.017 166.706 935.822 164.425 941.536C167.661 941.49 170.898 941.466 174.134 941.464C180.076 945.632 188.47 955.532 194.624 961.082C204.008 969.543 213.68 977.743 223.161 986.106C226.428 988.988 230.26 991.658 233.187 994.87C235.292 997.181 236.977 999.973 237.451 1003.1C237.859 1005.79 237.428 1008.42 235.803 1010.64C233.248 1014.12 228.554 1015.82 224.42 1016.37C208.981 1018.44 115.34 992.255 104.095 983.714C102.448 982.462 101.097 980.381 100.87 978.299C100.57 975.544 101.924 973.097 103.707 971.102C106.317 968.181 108.904 966.887 112.478 965.586C113.78 959.7 115.222 954.038 117.242 948.345C118.865 944.821 120.581 941.189 122.812 938.006C125.3 934.458 129.593 931.138 131.011 927.024C132.39 923.023 134.977 915.754 135.118 911.701C135.209 909.083 133.982 907.337 134.548 904.509C138.931 881.421 143.91 858.45 149.48 835.619C155.016 813.541 163.772 792.894 170.776 771.341C176.236 754.538 180.861 733.3 183.168 715.743C185.979 694.347 185.482 673.038 185.586 651.508C185.731 621.611 187.795 583.42 196.817 554.962C201.067 541.555 207.267 528.805 213.293 516.131C216.972 510.489 219.293 502.268 221.709 495.967C229.015 476.91 233.019 457.74 236.296 437.641C237.912 427.728 238.616 417.585 240.6 407.751C245.372 384.501 258.242 363.701 276.917 349.054C270.173 349.236 263.411 349.219 256.768 347.896C245.939 345.739 235.692 340.574 229.549 331.118C224.377 323.156 222.36 313.809 224.457 304.497C226.797 294.106 232.725 287.082 241.598 281.529C240.289 276.919 239.713 273.107 240.808 268.307C242.678 260.106 248.515 252.936 255.507 248.441C263.424 243.351 271.007 242.273 280.146 244.191C280.521 243.518 280.916 242.856 281.33 242.206C286.208 234.619 296.064 229.29 304.69 227.373C314.49 225.195 322.52 226.645 330.984 231.988C333.111 230.551 335.168 229.216 337.577 228.284C344.068 225.775 351.221 226.21 357.539 229.048C363.497 231.723 368.161 236.592 370.333 242.782C371.931 247.338 371.91 252.305 369.704 256.658C366.847 262.293 361.429 265.199 355.723 267.194C357.694 272.054 359.209 277.518 362.183 281.865C365.076 286.094 374.09 290.609 374.833 295.449C375.344 298.78 372.055 302.017 370.162 304.409C370.09 306.448 369.256 308.654 369.326 310.589C369.453 314.094 373.539 315.761 372.887 322.168C372.554 325.432 371.076 328.228 368.495 330.267C362.597 334.926 353.994 334.356 346.933 333.68L336.336 352.471C351.438 354.143 365.605 358.083 380.148 362.305C384.491 363.472 388.69 364.843 392.916 366.378C406.131 360.571 416.974 351.789 428.435 343.243C437.048 336.821 445.776 330.522 454.293 323.975C459.222 320.186 463.726 315.187 469.047 312.039C470.726 303.099 473.585 291.701 479.964 284.868C482.635 282.007 484.588 281.478 488.434 281.368C490.399 271.95 488.055 256.795 490.827 249.832C493.013 247.703 495.885 248.005 498.718 247.938C500.638 235.294 503.593 222.822 505.861 210.236C507.114 203.28 507.521 195.798 509.413 189.02C510.15 186.38 511.153 182.963 513.124 181.014C517.114 177.067 523.827 174.215 528.803 171.611C538.113 166.739 547.46 161.939 556.844 157.212C562.184 154.586 567.787 152.391 572.949 149.433L573.587 149.063C575.617 144.91 576.409 140.969 577.085 136.44C576.033 138.292 575.05 140.004 573.599 141.589C568.052 144.241 543.285 138.151 535.9 136.642C520.815 134.196 505.674 130.811 490.748 127.528C485.538 126.383 476.75 125.868 473.835 120.978C469.983 114.517 471.673 102.658 473.648 95.736C475.5 89.2454 480.04 78.6403 486.293 75.3928C488.446 74.2748 490.654 74.7512 492.992 75.0619C505.784 76.7623 518.504 79.9487 531.243 82.1122L565.713 87.8429C570.179 88.5833 576.318 88.8704 580.433 90.5456C584.544 92.2194 585.813 96.6234 587.401 100.376ZM675.261 73.2639C673.491 72.5318 672.62 72.019 671.395 70.5419C671.257 70.3758 671.114 70.2145 670.976 70.0484C670.893 69.9486 670.814 69.8456 670.734 69.7442C667.62 72.5474 657.707 83.1582 654.136 82.7459C651.566 82.4492 648.999 80.3576 646.867 78.984C640.603 74.9482 628.811 65.8261 621.789 64.4644C619.322 63.986 616.955 64.4391 614.847 65.8041C607.633 70.4746 595.438 94.6528 591.852 103.159C589.977 107.606 588.572 112.213 587.25 116.849C588.241 119.727 589.093 122.574 591.048 124.971C596.658 131.852 615.152 140.991 623.604 145.377C624.356 144.168 624.891 142.975 626.276 142.416C627.275 142.902 627.007 142.544 627.344 143.615C627.908 145.405 627.494 147.51 627.099 149.301C626.266 153.073 624.546 156.692 623.431 160.397C622.4 163.823 621.951 168.38 620.429 171.538C619.446 173.58 616.084 174.613 614.174 175.666C607.38 179.411 586.535 189.619 582.38 194.139C580.471 196.217 579.427 198.785 579.988 201.608C581.253 207.972 594.484 237.501 598.25 243.99C599.898 246.829 601.667 249.258 604.041 251.548C615.704 251.596 622.531 247.019 632.718 242.326C637.465 240.293 643.747 236.691 648.928 238.806C654.195 240.957 658.339 248.787 662.049 253.025C663.407 251.733 664.84 249.952 666.726 249.555C667.604 249.887 668.058 250.14 668.702 250.826C668.718 251.586 668.783 252.399 668.489 253.121C667.266 256.117 663.785 259.585 661.845 262.283C657.866 267.816 644.012 287.254 643.42 293.069C643.253 294.706 643.617 296.086 644.708 297.34C651.809 305.506 692.888 323.941 704.327 324.286C705.566 324.324 706.739 324.285 707.871 323.725C714.613 320.389 720.157 294.738 726.002 289.479C728.879 286.89 734.508 288.041 738.095 288.178C740.246 288.261 741.96 288.517 743.628 286.971L743.378 285.802C740.147 281.817 731.402 282.255 726.642 281.534C723.687 287.505 709.34 315.97 704.413 317.885C699.952 319.618 692.564 316.522 688.343 314.816C681.605 312.094 675.229 308.684 668.646 305.632C663.973 303.466 658.682 301.759 654.357 298.977C653.105 298.172 651.674 297.099 651.259 295.593C649.596 289.558 663.662 267.606 666.686 261.604C668.157 258.684 670.472 254.576 669.243 251.269C669.154 251.031 669.053 250.797 668.958 250.561C664.42 244.636 658.403 237.966 652.774 233.089C646.052 235.513 639.387 238.09 632.784 240.818C628.914 242.215 625.038 243.593 621.155 244.95C617.606 246.183 611.934 248.133 608.384 246.172C601.429 242.33 587.316 209.374 585.195 200.617C592.423 193.573 618.258 181.195 628.551 174.751C629.046 163.482 630.263 152.172 630.49 140.918C624.758 138.167 619.163 135.127 613.388 132.469C608.007 129.993 602.174 127.899 597.046 124.964C595.372 124.006 593.243 122.746 592.218 121.07C591.614 120.083 591.863 118.326 592.088 117.242C593.484 110.508 611.737 77.3412 617.114 70.532C618.146 69.2252 619.425 68.3111 620.806 67.4069C628.468 70.5013 635.833 75.9712 642.948 80.2076C648.486 83.505 654.35 86.3063 659.752 89.8074C665.103 84.9993 670.305 80.1292 675.812 75.4885C677.644 73.948 679.364 72.4558 680.931 70.6323C678.453 62.5402 675.341 54.8725 671.966 47.1184C669.555 41.5795 666.496 35.7272 665.098 29.8485C668.471 27.654 671.826 25.6452 675.496 23.98C682.008 21.0245 714.145 8.38572 719.448 9.51751C721.309 9.9145 722.493 11.9883 723.381 13.5394C726.11 18.3047 728.164 23.69 730.437 28.7022C734.069 36.713 738.007 44.7319 740.977 53.0159C750.397 53.4368 759.7 53.8168 769.049 55.2039C771.797 48.7224 784.581 15.1706 788.078 12.8313C794.997 13.2423 837.713 34.556 842.916 39.8085C843.367 40.2637 843.268 40.2356 843.612 40.9371C841.76 47.1646 836.919 53.4442 833.72 59.1299C829.799 66.1 826.114 73.196 822.137 80.1368C827.258 86.2696 832.752 92.0776 838.167 97.9495C841.365 101.417 844.486 105.232 847.957 108.419L848.636 108.237C858.13 105.634 882.923 93.8231 890.266 93.4436C895.213 98.7672 909.214 144.955 909.149 153.102C909.144 153.714 909.026 154.224 908.875 154.813C904.259 158.213 877.709 162.337 870.294 164.227C868.584 164.863 866.82 165.442 865.177 166.236C864.077 175.939 862.412 185.953 862.415 195.709C868.262 199.223 874.315 202.345 880.218 205.76C886.722 209.522 893.079 213.557 899.752 217.016C894.968 229.046 887.435 240.86 881.006 252.109C878.675 256.187 876.803 260.649 874.017 264.425C872.179 265.191 870.016 264.182 868.249 263.457C857.338 258.977 841.585 248.805 831.234 246.248C832.182 247.374 833.15 248.404 834.329 249.288C839.626 253.258 846.108 256.305 851.787 259.773C856.33 262.547 860.587 265.962 865.294 268.426C867.301 269.476 869.566 270.362 871.825 270.649C873.795 270.9 875.223 269.926 876.656 268.684C884.535 261.858 903.849 227.549 904.539 217.838C904.726 215.208 904.31 213.514 902.535 211.55C895.513 203.783 877.03 196.866 867.996 189.038C867.952 184.649 868.2 168.633 870.921 165.837C871.577 165.87 872.167 165.827 872.823 165.757C880.209 164.972 900.975 161.547 907.596 159.362C909.93 158.592 913.16 157.31 914.65 155.233C917.066 151.865 915.952 145.67 915.17 141.859C912.982 131.186 903.242 94.9896 894.543 89.7722C888.581 86.1969 859.017 99.2873 850.345 101.061L849.583 101.213C846.209 98.4694 843.294 94.9538 840.218 91.87C836.654 88.2974 832.875 85.1138 828.965 81.9344C831.126 76.688 833.212 71.3602 835.645 66.2336C838.593 60.0225 848.381 45.0407 848.065 38.9696C846.976 36.8819 845.4 35.509 843.56 34.0931C834.091 26.8049 796.271 7.12504 785.875 8.42641C780.494 11.3561 769.882 42.1446 764.939 49.6985C764.832 49.8625 764.72 50.0233 764.61 50.1857C756.72 49.3867 750.098 48.0826 742.187 49.5574C741.051 40.5648 733.815 22.5558 729.535 14.1849C728.016 11.2155 726.156 8.07313 722.777 7.07038C711.042 3.58695 678.717 16.5471 667.794 22.3535C662.108 25.3761 660.608 27.5763 658.745 33.5912C663.931 44.6113 672.293 56.7756 675.809 68.3116C676.429 70.3476 676.257 71.4084 675.261 73.2639ZM717.548 13.5327C701.755 19.24 685.852 24.6299 670.104 30.4588C673.13 37.0284 687.25 66.9766 685.638 72.2006C684.721 75.1753 664.222 92.6152 660.903 93.8364C658.669 94.6584 656.761 93.7039 654.793 92.6558C643.523 86.653 632.88 79.4671 621.734 73.2574C614.081 84.0284 608.165 95.4202 602.105 107.123C600.074 111.046 597.704 114.921 595.851 118.916C596.014 119.027 596.176 119.142 596.342 119.25C604.682 124.706 633.109 132.111 635.403 141.379C635.698 142.568 635.756 143.745 635.693 144.966C635.494 148.842 634.521 152.671 634.251 156.557C633.945 160.961 634.366 174.229 632.846 177.406C631.585 180.041 597.134 197.865 590.718 202.736C595.011 213.422 603.497 233.867 610.622 242.235L611.324 242.175C622.515 241.109 647.327 228.246 652.665 228.421C654.329 228.476 655.994 229.73 657.221 230.752C661.815 234.58 674.171 247.576 674.778 253.157C675.367 258.57 658.351 286.057 655.628 294.221C663.757 298.374 694.397 314.267 702.081 313.289C708.11 310.06 717.881 283.65 725.514 276.191C730.294 276.45 750.61 277.626 753.068 280.476C757.296 285.376 764.136 311.458 767.695 319.612L771.61 318.613C787.027 314.213 802.955 310.451 818.047 305.079C816.137 296.874 813.699 288.595 811.108 280.576C809.613 275.95 807.535 271.24 806.703 266.45C806.404 264.728 806.275 263.283 807.256 261.732C808.423 259.888 830.631 242.882 832.297 242.469C837.812 241.102 865.295 256.379 871.75 259.641C878.686 246.201 886.187 233.068 893.1 219.6C888.028 216.385 882.908 213.246 877.743 210.184C872.019 206.857 865.056 203.813 860.217 199.338C858.67 197.908 857.859 196.425 857.378 194.377C856.302 189.8 857.311 168.634 859.492 165.017C860.523 163.308 862.185 162.359 863.98 161.583C867.901 159.887 872.434 159.22 876.595 158.315C885.837 156.304 895.368 154.7 904.485 152.236C900.844 133.832 893.97 116.887 888.34 99.0757C877.485 102.207 859.137 111.242 849.427 112.412C847.764 112.613 846.462 112.475 844.979 111.616C843.08 110.517 824.1 90.3778 821.934 87.7481C820.227 85.6747 818.703 83.5213 817.473 81.1282C822.145 66.8079 831.725 55.0108 838.236 41.6009C822.091 33.6646 806.42 24.9615 789.829 17.9164C787.215 24.5019 775.156 57.4074 770.718 59.887C769.796 60.402 768.359 60.3217 767.353 60.2543C763.09 59.9689 758.964 58.5887 754.693 58.3961C750.066 58.1874 743.3 59.194 739.034 57.346C734.461 55.3653 720.745 14.9313 717.548 13.5327ZM490.354 80.0051C493.128 95.7704 489.636 106.363 481.714 119.972C498.929 123.746 516.182 127.346 533.47 130.771C545.332 133.171 557.898 136.54 570.033 136.641L570.698 136.179C570.372 132.958 569.634 129.687 569.582 126.452C569.436 117.481 572.781 102.803 577.955 95.2599C563.788 92.7026 549.495 90.845 535.319 88.2906C520.35 85.5936 505.409 82.132 490.354 80.0051ZM485.319 84.4085C480.762 91.3874 475.897 104.148 477.885 112.597C478.159 113.761 477.948 113.361 478.622 114.116C482.402 107.213 488.698 93.5669 485.965 85.4718C485.779 84.9203 485.642 84.8069 485.319 84.4085ZM580.772 99.8907C578.094 106.425 576.281 113.281 575.38 120.285C576.118 118.202 576.927 116.131 577.428 113.976C578.364 110.792 578.732 108.191 581.546 106.14L582.554 106.165C583.062 107.16 583.466 108.123 583.834 109.178L584.422 108.798C584.774 106.49 583.026 102.96 581.736 101.07C581.288 100.414 581.236 100.388 580.772 99.8907ZM581.541 137.213C580.006 144.482 580.628 150.272 573.659 154.829C568.974 157.893 563.343 159.98 558.308 162.449C549.347 166.924 540.411 171.449 531.499 176.022C527.121 178.266 521.476 180.556 517.942 184.016C516.191 185.729 515.303 188.028 514.745 190.372C512.858 198.295 512.096 206.802 510.593 214.86C508.606 225.518 505.237 236.942 504.63 247.73C505.3 248.704 506.664 248.744 507.792 249.044C507.842 248.895 507.893 248.747 507.941 248.598C512.604 234.22 514.016 197.004 522.773 187.08C527.154 182.116 534.049 179.043 539.844 176.035C549.537 171.004 577.491 158.584 583.02 151.535C583.802 147.456 584.659 141.641 582.598 137.877L581.541 137.213ZM828.357 251.338C822.832 255.829 817.068 260.017 811.09 263.883C813.336 272.665 823.297 300.563 822.688 307.208C819.091 311.224 774.22 323.402 766.912 323.729C765.755 323.781 764.757 324.033 763.912 323.108C759.96 318.784 753.001 289.785 747.696 281.13C748.136 284.726 748.77 288.187 749.586 291.716C751.33 298.834 756.433 325.7 761.387 328.925C766.422 332.203 779.777 327.576 785.412 326.111C794.071 323.859 822.361 317.742 826.619 310.243C828.376 307.149 827.72 303.704 826.696 300.489C824.474 293.519 814.305 272.897 814.999 267.322C818.05 262.292 830.066 259.143 830.543 253.168C829.887 252.268 829.321 251.885 828.357 251.338ZM495.543 253.396C495.285 258.051 495.105 262.711 495.001 267.372C498.403 268.102 509.024 271.148 511.884 270.077C512.099 269.64 512.443 269.075 512.579 268.612L515.915 256.36C509.238 254.799 502.421 253.511 495.543 253.396ZM339.722 262.245C333.059 271.835 326.897 278.266 317.063 284.737C320.417 287.317 323.626 291.218 324.351 295.524C324.636 297.215 324.638 298.543 323.541 299.896C323.333 300.152 323.117 300.402 322.905 300.655C319.464 298.228 317.026 289.434 312.341 289.639C310.591 289.715 309.105 291.434 308.244 292.797C306.937 294.868 306.19 297.978 306.867 300.388C307.213 301.622 307.827 302.56 309.036 303.101C311.491 304.199 319.479 301.671 320.266 303.124C321.752 305.871 319.576 311.862 318.515 314.678C315.695 322.165 311.363 332.624 306.416 338.866C315.371 341.491 323.696 345.306 331.831 349.85C335.315 344.234 338.602 338.499 341.686 332.655L337.871 331.264C334.421 330.094 326.506 327.872 324.649 324.558C323.985 323.372 323.768 322.243 324.253 320.95C324.532 320.206 324.89 320.076 325.485 319.616C328.324 319.793 331.467 322.709 334.085 323.935C342.492 327.873 357.345 332.475 365.339 325.752C366.9 324.44 367.938 323.064 368.167 320.974C368.8 315.186 360.488 311.318 361.635 305.806C362.809 304.839 363.988 305.451 364.916 304.577C367.133 302.488 367.706 298.459 369.688 295.848C364.832 291.702 359.867 287.937 356.584 282.338C354.35 286.018 352.32 289.169 347.873 290.334C346.252 290.758 345.304 290.536 343.891 289.711C342.876 288.31 342.524 287.234 342.764 285.52C343.041 283.54 344.157 281.502 344.985 279.692C343.178 281.093 341.455 282.816 338.992 282.477C337.98 282.338 337.75 282.019 336.957 281.433C336.637 280.177 336.552 279.505 337.154 278.304C339.839 272.947 347.771 272.07 352.613 269.694C348.467 266.914 343.938 264.884 339.722 262.245ZM495.63 273.404C494.83 281.256 494.192 289.146 492.751 296.911C496.059 295.237 499.448 293.647 502.689 291.851L507.243 289.145C508.261 284.63 509.327 280.126 510.439 275.633C505.509 274.845 500.573 274.102 495.63 273.404ZM485.499 286.753C478.499 293.963 475.977 306.606 474.145 316.092C477.577 320.138 481.858 323.108 487.251 323.625C493.082 324.184 498.819 322.117 503.253 318.363C506.238 315.837 508.514 312.761 510.652 309.515C514.968 303.328 517.019 298.226 516.628 290.572C510.381 293.993 492.198 305.563 485.382 303.776C484.751 302.94 484.503 302.784 484.69 301.676C485.48 296.996 489.799 293.694 488.595 288.471C487.535 287.289 487.108 287.015 485.499 286.753ZM511.43 316.453C506.255 323.254 501.255 327.303 492.829 329.586C492.706 332.316 492.273 335.423 493.084 338.066C498.057 338.237 503.049 337.78 506.864 334.181C510.862 330.41 512.277 323.59 511.979 318.23C511.94 317.522 511.903 316.968 511.43 316.453ZM469.244 318.422C464.534 323.29 460.427 328.865 456.188 334.143C442.903 350.683 430.769 368.109 416.597 383.933C410.43 390.818 404.351 397.372 396.749 402.703C401.696 404.908 415.268 408.344 417.321 413.344C417.612 414.054 417.607 414.186 417.733 414.865L417.276 415.761C413.794 416.444 404.485 411.201 400.26 410.239C400.04 410.189 399.823 410.132 399.604 410.078C404.383 414.479 414.088 422.707 414.528 429.696C414.598 430.807 414.452 431.003 413.825 431.849C412.266 431.826 411.195 430.909 410.148 429.849C406.147 425.798 403.14 420.854 398.903 416.616C381.002 398.712 334.16 357.239 308.505 356.516C302.432 356.345 297.021 358.143 292.509 362.252C287.485 368.537 286 375.832 286.9 383.739C288.292 395.978 294.547 408.316 304.312 415.966C320.881 428.946 388.615 456.709 408.12 453.879C415.073 452.87 420.109 444.76 423.931 439.393C434.22 424.943 443.327 409.67 453.587 395.205L474.754 365.904C479.047 359.975 484.012 353.893 487.278 347.33C486.652 343.522 486.849 337.183 485.973 334.084C484.846 330.097 474.452 324.28 471.205 320.578C470.566 319.849 469.893 319.144 469.244 318.422ZM450.373 332.54C432.673 346.672 414.967 361.452 394.704 371.742C393.954 375.388 394.134 380.555 391.963 383.597L390.253 384.122C387.37 380.103 388.449 375.117 389.063 370.583C373.679 366.258 357.463 360.101 341.606 358.183C342.948 360.737 344.45 363.287 345.496 365.978L348.869 368.421C363.806 377.89 376.651 390.22 390.809 400.764C411.506 385.525 426.778 363.559 442.292 343.323C444.845 339.993 448.789 336.428 450.657 332.736L450.373 332.54ZM297.352 342.981C277.158 350.752 260.049 370.888 251.457 390.283C245.089 404.658 244.183 420.539 241.939 435.917C240.538 444.905 238.911 453.857 237.06 462.763C235.875 468.646 234.367 474.459 232.54 480.175C231.331 484.089 229.777 488.081 229.042 492.107C262.862 508.718 291.573 517.199 329.408 518.195C329.561 512.638 330.088 507.099 330.987 501.614C334.804 481.02 343.533 463.523 355.357 446.445C330.374 437.046 298.197 427.393 286.346 401.096C281.693 390.771 279.288 377.685 283.624 366.833C286.012 360.856 290.624 355.754 296.651 353.338C309.849 348.047 323.887 354.402 335.951 359.66C328.4 353.824 307.101 342.171 297.352 342.981ZM493.139 343.376C491.685 354.878 481.699 365.432 475.669 375.042C475.546 387.56 471.616 400.531 469.906 412.958L474.948 413.679C477.677 414.275 480.441 414.811 483.148 415.497C485.781 400.722 488.542 385.97 491.429 371.242C493.157 362.464 495.54 353.419 496.478 344.534C495.588 343.421 494.894 343.583 493.528 343.414C493.399 343.398 493.269 343.389 493.139 343.376ZM227.092 496.87C225.798 500.194 224.592 503.59 223.192 506.869C250.963 520.118 279.195 531.678 310.079 534.723C311.027 534.17 311.07 534.108 311.335 532.98C312.106 529.699 312.167 526.059 312.611 522.694C285.277 520.762 250.888 510.613 227.092 496.87ZM221.376 511.711C214.397 526.261 206.831 540.672 202.152 556.17C192.311 588.773 191.213 624.944 190.774 658.788C190.58 673.721 190.815 688.733 189.681 703.63C188.496 719.208 185.255 734.465 181.856 749.682C187.778 738.615 192.975 726.852 198.018 715.354C200.152 710.489 201.914 704.977 204.501 700.371C205.133 699.247 205.459 699.094 206.569 698.519C207.996 698.668 208.186 698.628 209.262 699.546C209.637 700.729 209.62 701.569 209.303 702.748C208.264 706.606 205.912 710.239 204.256 713.863C199.421 724.444 194.731 734.912 189.528 745.327C185.545 753.298 181.23 761.238 177.647 769.394C164.001 800.464 154.847 833.805 147.501 866.839C144.686 879.495 141.478 892.677 140.296 905.571C152.246 911.618 165.099 916.771 178.007 920.357C188.913 893.205 198.466 865.614 210.136 838.755C223.274 808.519 239.069 779.069 250.691 748.225C258.326 727.964 263.939 706.223 267.34 684.843C255.02 679.443 247.086 663.924 242.442 652.022C231.91 625.034 227.163 596.111 226.242 567.259C226.113 563.217 225.228 556.396 226.899 552.651C227.451 551.414 227.626 551.262 228.793 550.789C230.015 551.286 230.553 551.618 231.085 552.886C232.831 557.049 233.43 561.966 234.768 566.326C237.349 574.58 240.365 582.692 243.803 590.628C250.905 606.274 258.492 621.92 266.583 637.077C274.662 652.211 282.823 667.334 291.173 682.32C298.057 694.673 335.527 757.653 335.889 766.217C335.18 767.469 334.972 767.582 333.706 768.292C332.438 768.188 332.233 768.31 331.396 767.278C328.387 763.566 326.983 758.006 324.78 753.737C319.424 743.359 313.953 732.953 308.316 722.725C310.388 741.192 312.495 760.109 316.359 778.285C323.773 813.153 336.216 846.646 347.99 880.201L357.846 908.58C359.96 914.795 361.826 921.251 364.476 927.251C372.361 926.96 396.409 924.06 402.508 919.631C403.412 918.19 403.321 916.91 403.266 915.271C402.892 904.079 399.423 892.199 397.234 881.197C393.263 861.237 389.328 841.096 386.111 821.001C382.314 797.293 379.448 773.358 376.7 749.509C375.248 736.914 374.24 724.136 372.233 711.622C370.331 699.757 367.435 688.016 364.753 676.309C358.371 648.068 351.744 619.883 344.875 591.758C340.624 574.669 335.373 557.823 332.119 540.502C324.623 540.79 317.196 540.942 309.708 540.273C279.238 537.549 248.279 525.815 221.376 511.711ZM318.38 522.821C317.724 527.035 317.227 531.352 316.301 535.512C320.838 535.513 325.419 535.641 329.943 535.262L331.097 534.671C331.236 530.908 329.638 526.861 329.355 523.045C325.7 522.972 322.033 522.956 318.38 522.821ZM137.358 922.431C135.688 927.498 134.313 932.737 132.517 937.75C134.899 941.846 137.584 944.481 142.254 945.796C148.205 947.473 155.453 946.643 161.415 945.393L163.2 944.687C161.558 943.996 159.503 944.219 157.727 944.185C158.998 940.088 160.681 936.147 161.951 932.064C152.43 931.379 144.924 928.255 137.358 922.431ZM398.608 936.45C391.205 939.698 385.142 940.348 377.263 941.472L378.812 948.739C381.28 949.45 383.089 950.484 385.111 952.053C386.496 952.906 387.871 953.791 389.286 954.592C393.539 951.383 397.747 948.068 402.14 945.053C401.542 942.304 401.124 939.359 399.937 936.798C398.972 936.289 399.428 936.324 398.608 936.45ZM127.179 939.337C122.905 948.342 119.31 957.275 117.09 967.037C123.161 970.46 129.417 973.362 135.828 976.089L139.936 977.914C142.795 967.571 144.173 962.009 141.231 951.291C136.116 949.503 132.578 946.706 129.326 942.439C128.582 941.463 128.014 940.203 127.179 939.337ZM171.734 947.168C163.123 949.579 156.109 951.749 147.087 951.624C149.452 961.84 147.989 969.58 144.479 979.294C159.304 987.524 176.318 992.568 192.019 998.992C192.798 995.161 193.489 991.289 194.364 987.48C198.01 983.664 202.08 981.412 206.666 978.886C204.888 977.276 203.135 975.626 201.272 974.114C198.544 976.102 193.05 981.885 189.744 981.397C188.486 981.211 187.494 980.791 186.699 979.781C186.73 978.18 187.323 977.372 188.495 976.289C191 973.975 194.197 972.216 197.142 970.524C195.265 968.845 193.428 967.086 191.381 965.615L190.708 965.997C187.219 967.999 181.404 974.522 177.277 973.274C176.393 973.007 175.978 972.577 175.395 971.913C175.343 970.301 175.761 969.486 176.906 968.332C179.634 965.586 183.787 963.256 187.162 961.375C185.194 959.678 183.242 957.977 181.176 956.399C177.329 959.139 170.279 965.848 165.45 965.58C164.761 964.961 164.568 965.046 164.49 964.024C164.374 962.513 164.901 961.455 165.933 960.393C169.064 957.169 173.951 955.187 177.547 952.424C175.836 950.558 174.061 948.263 171.734 947.168ZM409.434 947.433C404.256 950.074 399.272 953.079 394.518 956.424C398.799 958.566 401.204 960.619 402.865 965.333C405.234 972.06 404.498 980.393 402.92 987.215C417.859 991.645 432.924 992.886 448.044 996.159C450.91 984.513 455.456 981.293 465.113 975.111L458.162 970.779C452.408 973.644 446.687 976.217 441.816 980.494C440.419 981.256 439.862 981.465 438.207 981.337C437.01 980.511 437.021 980.465 436.581 979.071C437.117 976.293 439.338 974.641 441.585 973.152C445.08 970.836 449.322 968.703 453.271 967.323L443.542 962.011C440.463 964.219 430.689 972.578 427.405 971.626C426.398 971.334 426.093 970.798 425.676 969.923C425.586 968.509 426.329 967.316 427.242 966.294C430.157 963.029 434.554 960.939 438.309 958.79C435.306 957.058 432.889 955.135 429.257 956.079C424.96 957.196 420.992 961.621 417.681 964.521C416.04 963.981 414.493 963.651 413.316 962.304C413.023 960.967 412.925 960.72 413.734 959.499C415.695 956.539 422.582 953.984 425.688 952.471C421.23 949.774 414.58 948.012 409.434 947.433ZM377.451 952.512C374.188 960.244 372.888 969.434 370.501 977.545C378.024 980.28 385.632 982.776 393.313 985.029L398.19 986.438C399.347 980.266 401.189 970.482 397.338 964.98C394.344 960.701 388.021 959.377 383.637 956.964C381.428 955.748 379.419 954.083 377.451 952.512ZM469.327 978.95C460.908 984.697 455.884 986.524 452.76 997.05C461.141 998.678 469.633 999.668 478.163 1000.01C482.725 1000.07 489.593 1000.95 493.736 999.061C494.075 998.063 494.152 998.449 493.707 997.552C491.322 992.743 474.676 981.303 469.327 978.95ZM210.675 982.892C206.876 985.307 203.091 987.974 198.923 989.707C197.938 993.125 197.07 996.576 196.321 1000.05C203.771 1002.35 211.288 1004.41 218.862 1006.25C223.213 1006.82 228.112 1004.01 231.665 1001.72C228.386 997.598 215.053 984.519 210.675 982.892Z"/>
	<path fill="#9F8BE8" d="M670.734 69.7442C670.814 69.8456 670.893 69.9486 670.976 70.0484C671.114 70.2145 671.257 70.3758 671.395 70.5419C672.62 72.019 673.491 72.5318 675.261 73.2639C676.257 71.4084 676.429 70.3476 675.809 68.3116C672.293 56.7756 663.931 44.6113 658.745 33.5912C660.608 27.5763 662.108 25.3761 667.794 22.3535C678.717 16.5471 711.042 3.58695 722.777 7.07038C726.156 8.07313 728.016 11.2155 729.535 14.1849C733.815 22.5558 741.051 40.5648 742.187 49.5574C750.098 48.0826 756.72 49.3867 764.61 50.1857C764.72 50.0233 764.832 49.8625 764.939 49.6985C769.882 42.1446 780.494 11.3561 785.875 8.42641C796.271 7.12504 834.091 26.8049 843.56 34.0931C845.4 35.509 846.976 36.8819 848.065 38.9696C848.381 45.0407 838.593 60.0225 835.645 66.2336C833.212 71.3602 831.126 76.688 828.965 81.9344C832.875 85.1138 836.654 88.2974 840.218 91.87C843.294 94.9538 846.209 98.4694 849.583 101.213L850.345 101.061C859.017 99.2873 888.581 86.1969 894.543 89.7722C903.242 94.9896 912.982 131.186 915.17 141.859C915.952 145.67 917.066 151.865 914.65 155.233C913.16 157.31 909.93 158.592 907.596 159.362C900.975 161.547 880.209 164.972 872.823 165.757C872.167 165.827 871.577 165.87 870.921 165.837C868.2 168.633 867.952 184.649 867.996 189.038C877.03 196.866 895.513 203.783 902.535 211.55C904.31 213.514 904.726 215.208 904.539 217.838C903.849 227.549 884.535 261.858 876.656 268.684C875.223 269.926 873.795 270.9 871.825 270.649C869.566 270.362 867.301 269.476 865.294 268.426C860.587 265.962 856.33 262.547 851.787 259.773C846.108 256.305 839.626 253.258 834.329 249.288C833.15 248.404 832.182 247.374 831.234 246.248C841.585 248.805 857.338 258.977 868.249 263.457C870.016 264.182 872.179 265.191 874.017 264.425C876.803 260.649 878.675 256.187 881.006 252.109C887.435 240.86 894.968 229.046 899.752 217.016C893.079 213.557 886.722 209.522 880.218 205.76C874.315 202.345 868.262 199.223 862.415 195.709C862.412 185.953 864.077 175.939 865.177 166.236C866.82 165.442 868.584 164.863 870.294 164.227C877.709 162.337 904.259 158.213 908.875 154.813C909.026 154.224 909.144 153.714 909.149 153.102C909.214 144.955 895.213 98.7672 890.266 93.4436C882.923 93.8231 858.13 105.634 848.636 108.237L847.957 108.419C844.486 105.232 841.365 101.417 838.167 97.9495C832.752 92.0776 827.258 86.2696 822.137 80.1368C826.114 73.196 829.799 66.1 833.72 59.1299C836.919 53.4442 841.76 47.1646 843.612 40.9371C843.268 40.2356 843.367 40.2637 842.916 39.8085C837.713 34.556 794.997 13.2423 788.078 12.8313C784.581 15.1706 771.797 48.7224 769.049 55.2039C759.7 53.8168 750.397 53.4368 740.977 53.0159C738.007 44.7319 734.069 36.713 730.437 28.7022C728.164 23.69 726.11 18.3047 723.381 13.5394C722.493 11.9883 721.309 9.9145 719.448 9.51751C714.145 8.38572 682.008 21.0245 675.496 23.98C671.826 25.6452 668.471 27.654 665.098 29.8485C666.496 35.7272 669.555 41.5795 671.966 47.1184C675.341 54.8725 678.453 62.5402 680.931 70.6323C679.364 72.4558 677.644 73.948 675.812 75.4885C670.305 80.1292 665.103 84.9993 659.752 89.8074C654.35 86.3063 648.486 83.505 642.948 80.2076C635.833 75.9712 628.468 70.5013 620.806 67.4069C619.425 68.3111 618.146 69.2252 617.114 70.532C611.737 77.3412 593.484 110.508 592.088 117.242C591.863 118.326 591.614 120.083 592.218 121.07C593.243 122.746 595.372 124.006 597.046 124.964C602.174 127.899 608.007 129.993 613.388 132.469C619.163 135.127 624.758 138.167 630.49 140.918C630.263 152.172 629.046 163.482 628.551 174.751C618.258 181.195 592.423 193.573 585.195 200.617C587.316 209.374 601.429 242.33 608.384 246.172C611.934 248.133 617.606 246.183 621.155 244.95C625.038 243.593 628.914 242.215 632.784 240.818C639.387 238.09 646.052 235.513 652.774 233.089C658.403 237.966 664.42 244.636 668.958 250.561C669.053 250.797 669.154 251.031 669.243 251.269C670.472 254.576 668.157 258.684 666.686 261.604C663.662 267.606 649.596 289.558 651.259 295.593C651.674 297.099 653.105 298.172 654.357 298.977C658.682 301.759 663.973 303.466 668.646 305.632C675.229 308.684 681.605 312.094 688.343 314.816C692.564 316.522 699.952 319.618 704.413 317.885C709.34 315.97 723.687 287.505 726.642 281.534C731.402 282.255 740.147 281.817 743.378 285.802L743.628 286.971C741.96 288.517 740.246 288.261 738.095 288.178C734.508 288.041 728.879 286.89 726.002 289.479C720.157 294.738 714.613 320.389 707.871 323.725C706.739 324.285 705.566 324.324 704.327 324.286C692.888 323.941 651.809 305.506 644.708 297.34C643.617 296.086 643.253 294.706 643.42 293.069C644.012 287.254 657.866 267.816 661.845 262.283C663.785 259.585 667.266 256.117 668.489 253.121C668.783 252.399 668.718 251.586 668.702 250.826C668.058 250.14 667.604 249.887 666.726 249.555C664.84 249.952 663.407 251.733 662.049 253.025C658.339 248.787 654.195 240.957 648.928 238.806C643.747 236.691 637.465 240.293 632.718 242.326C622.531 247.019 615.704 251.596 604.041 251.548C601.667 249.258 599.898 246.829 598.25 243.99C594.484 237.501 581.253 207.972 579.988 201.608C579.427 198.785 580.471 196.217 582.38 194.139C586.535 189.619 607.38 179.411 614.174 175.666C616.084 174.613 619.446 173.58 620.429 171.538C621.951 168.38 622.4 163.823 623.431 160.397C624.546 156.692 626.266 153.073 627.099 149.301C627.494 147.51 627.908 145.405 627.344 143.615C627.007 142.544 627.275 142.902 626.276 142.416C624.891 142.975 624.356 144.168 623.604 145.377C615.152 140.991 596.658 131.852 591.048 124.971C589.093 122.574 588.241 119.727 587.25 116.849C588.572 112.213 589.977 107.606 591.852 103.159C595.438 94.6528 607.633 70.4746 614.847 65.8041C616.955 64.4391 619.322 63.986 621.789 64.4644C628.811 65.8261 640.603 74.9482 646.867 78.984C648.999 80.3576 651.566 82.4492 654.136 82.7459C657.707 83.1582 667.62 72.5474 670.734 69.7442Z"/>
	<path fill="#9F8BE8" d="M670.104 30.4588C685.852 24.6299 701.755 19.24 717.548 13.5327C720.745 14.9313 734.461 55.3653 739.034 57.346C743.3 59.194 750.066 58.1874 754.693 58.3961C758.964 58.5887 763.09 59.9689 767.353 60.2543C768.359 60.3217 769.796 60.402 770.718 59.887C775.156 57.4074 787.215 24.5019 789.829 17.9164C806.42 24.9615 822.091 33.6646 838.236 41.6009C831.725 55.0108 822.145 66.8079 817.473 81.1282C818.703 83.5213 820.227 85.6747 821.934 87.7481C824.1 90.3778 843.08 110.517 844.979 111.616C846.462 112.475 847.764 112.613 849.427 112.412C859.137 111.242 877.485 102.207 888.34 99.0757C893.97 116.887 900.844 133.832 904.485 152.236C895.368 154.7 885.837 156.304 876.595 158.315C872.434 159.22 867.901 159.887 863.98 161.583C862.185 162.359 860.523 163.308 859.492 165.017C857.311 168.634 856.302 189.8 857.378 194.377C857.859 196.425 858.67 197.908 860.217 199.338C865.056 203.813 872.019 206.857 877.743 210.184C882.908 213.246 888.028 216.385 893.1 219.6C886.187 233.068 878.686 246.201 871.75 259.641C865.295 256.379 837.812 241.102 832.297 242.469C830.631 242.882 808.423 259.888 807.256 261.732C806.275 263.283 806.404 264.728 806.703 266.45C807.535 271.24 809.613 275.95 811.108 280.576C813.699 288.595 816.137 296.874 818.047 305.079C802.955 310.451 787.027 314.213 771.61 318.613L767.695 319.612C764.136 311.458 757.296 285.376 753.068 280.476C750.61 277.626 730.294 276.45 725.514 276.191C717.881 283.65 708.11 310.06 702.081 313.289C694.397 314.267 663.757 298.374 655.628 294.221C658.351 286.057 675.367 258.57 674.778 253.157C674.171 247.576 661.815 234.58 657.221 230.752C655.994 229.73 654.329 228.476 652.665 228.421C647.327 228.246 622.515 241.109 611.324 242.175L610.622 242.235C603.497 233.867 595.011 213.422 590.718 202.736C597.134 197.865 631.585 180.041 632.846 177.406C634.366 174.229 633.945 160.961 634.251 156.557C634.521 152.671 635.494 148.842 635.693 144.966C635.756 143.745 635.698 142.568 635.403 141.379C633.109 132.111 604.682 124.706 596.342 119.25C596.176 119.142 596.014 119.027 595.851 118.916C597.704 114.921 600.074 111.046 602.105 107.123C608.165 95.4202 614.081 84.0284 621.734 73.2574C632.88 79.4671 643.523 86.653 654.793 92.6558C656.761 93.7039 658.669 94.6584 660.903 93.8364C664.222 92.6152 684.721 75.1753 685.638 72.2006C687.25 66.9766 673.13 37.0284 670.104 30.4588ZM748.483 106.015C714.25 105.628 686.197 133.09 685.854 167.323C685.512 201.557 713.009 229.574 747.243 229.872C781.415 230.17 809.37 202.734 809.712 168.563C810.054 134.392 782.653 106.401 748.483 106.015Z"/>
	<path fill="#9F8BE8" d="M481.714 119.972C489.636 106.363 493.128 95.7704 490.354 80.0051C505.409 82.132 520.35 85.5936 535.319 88.2906C549.495 90.845 563.788 92.7026 577.955 95.2599C572.781 102.803 569.436 117.481 569.582 126.452C569.634 129.687 570.372 132.958 570.698 136.179L570.033 136.641C557.898 136.54 545.332 133.171 533.47 130.771C516.182 127.346 498.929 123.746 481.714 119.972Z"/>
	<path fill="#9F8BE8" d="M478.622 114.116C477.948 113.361 478.159 113.761 477.885 112.597C475.897 104.148 480.762 91.3874 485.319 84.4085C485.642 84.8069 485.779 84.9203 485.965 85.4718C488.698 93.5669 482.402 107.213 478.622 114.116Z"/>
	<path fill="#9F8BE8" d="M575.38 120.285C576.281 113.281 578.094 106.425 580.772 99.8907C581.236 100.388 581.288 100.414 581.736 101.07C583.026 102.96 584.774 106.49 584.422 108.798L583.834 109.178C583.466 108.123 583.062 107.16 582.554 106.165L581.546 106.14C578.732 108.191 578.364 110.792 577.428 113.976C576.927 116.131 576.118 118.202 575.38 120.285Z"/>
	<path fill="#010101" d="M747.243 229.872C713.009 229.574 685.512 201.557 685.854 167.323C686.197 133.09 714.25 105.628 748.483 106.015C782.653 106.401 810.054 134.392 809.712 168.563C809.37 202.734 781.415 230.17 747.243 229.872ZM747.363 111.121C763.557 113.673 777.335 120.522 787.119 133.938C795.875 145.942 799.997 162.54 797.683 177.237C795.64 190.218 789.259 202.109 778.47 209.843C768.046 217.314 754.996 219.74 742.446 217.653C727.95 215.242 713.599 206.631 705.042 194.647C694.797 180.3 692.734 163.778 695.665 146.73C695.779 146.07 695.898 145.41 696.022 144.752C693.339 149.419 692.265 154.155 691.11 159.38C688.645 173.873 691.558 188.193 700.052 200.252C708.896 212.808 723.076 221.202 738.165 223.713C752.673 226.127 768.734 221.87 780.549 213.248C793.481 203.812 802.484 190.427 804.792 174.446C806.827 160.359 802.423 145.107 793.798 133.859C784.55 121.799 770.036 113.167 754.928 111.208C752.42 110.883 749.881 110.959 747.363 111.121ZM735.239 116.65C724.049 118.382 714.488 122.878 707.73 132.244C700.226 142.642 697.709 156.247 699.835 168.793C702.127 182.704 709.901 195.115 721.416 203.249C732.006 210.596 744.366 214.065 757.196 212.852C768.464 210.862 778.46 205.482 785.117 195.976C792.447 185.509 794.728 172.177 792.494 159.711C789.964 145.594 782.586 133.188 770.673 125.04C759.561 117.44 748.502 115.399 735.239 116.65Z"/>
	<path fill="#9F8BE8" d="M906.783 208.204C911.543 205.056 915.856 200.647 920.182 196.89C928.269 189.893 936.397 182.942 944.563 176.038L998.979 129.997C1007.3 122.94 1016.01 116.243 1024 108.813L1024 149.114C996.061 173.986 966.783 197.339 938.424 221.723C925.119 233.277 911.642 244.631 897.997 255.78C894.415 258.744 888.762 264.491 885.164 266.539C892.142 252.199 903.403 239.514 908.193 224.093C909.985 218.322 909.605 213.527 906.783 208.204Z"/>
	<path fill="#9F8BE8" d="M696.022 144.752C695.898 145.41 695.779 146.07 695.665 146.73C692.734 163.778 694.797 180.3 705.042 194.647C713.599 206.631 727.95 215.242 742.446 217.653C754.996 219.74 768.046 217.314 778.47 209.843C789.259 202.109 795.64 190.218 797.683 177.237C799.997 162.54 795.875 145.942 787.119 133.938C777.335 120.522 763.557 113.673 747.363 111.121C749.881 110.959 752.42 110.883 754.928 111.208C770.036 113.167 784.55 121.799 793.798 133.859C802.423 145.107 806.827 160.359 804.792 174.446C802.484 190.427 793.481 203.812 780.549 213.248C768.734 221.87 752.673 226.127 738.165 223.713C723.076 221.202 708.896 212.808 700.052 200.252C691.558 188.193 688.645 173.873 691.11 159.38C692.265 154.155 693.339 149.419 696.022 144.752Z"/>
	<path fill="#E6E2F6" d="M757.196 212.852C744.366 214.065 732.006 210.596 721.416 203.249C709.901 195.115 702.127 182.704 699.835 168.793C697.709 156.247 700.226 142.642 707.73 132.244C714.488 122.878 724.049 118.382 735.239 116.65C748.502 115.399 759.561 117.44 770.673 125.04C782.586 133.188 789.964 145.594 792.494 159.711C794.728 172.177 792.447 185.509 785.117 195.976C778.46 205.482 768.464 210.862 757.196 212.852Z"/>
	<path fill="#E6E2F6" d="M581.643 220.141C563.95 238.009 544.884 254.467 527.601 272.718C524.344 276.157 519.588 280.335 517.207 284.406C516.244 284.709 515.359 285.256 514.409 284.863C514.542 276.467 522.6 260.35 521.311 253.615C519.585 251.136 516.405 250.865 513.654 250.243C515.925 237.175 520.193 203.181 525.426 193.345C532.773 179.531 580.542 166.663 587.298 153.208C589.554 148.716 589.269 141.947 587.462 137.286C585.997 133.509 583.114 132.227 579.694 130.606C580.471 129.751 583.584 127.574 583.902 126.779C584.506 125.269 583.068 123.955 584.192 122.236C584.481 123.398 584.801 124.552 585.154 125.696C587.357 132.63 613.35 146.271 621.082 150.366C618.998 156.38 617.606 162.526 616.191 168.72C609.058 172.813 601.86 176.795 594.602 180.662C590.008 183.161 584.888 185.55 580.772 188.776C578.388 190.644 576.195 192.848 575.05 195.706C572.284 202.612 578.926 213.597 581.643 220.141Z"/>
	<path fill="#E6E2F6" d="M380.148 362.305C387.241 353.216 393.82 343.721 400.591 334.392C416.761 312.115 432.331 289.73 447.751 266.938C457.43 252.632 467.643 238.731 477.059 224.238C484.756 212.39 492.029 200.225 499.905 188.502C507.157 177.707 515.066 167.345 522.456 156.643C526.855 150.272 530.633 142.179 535.9 136.642C543.285 138.151 568.052 144.241 573.599 141.589C575.05 140.004 576.033 138.292 577.085 136.44C576.409 140.969 575.617 144.91 573.587 149.063L572.949 149.433C567.787 152.391 562.184 154.586 556.844 157.212C547.46 161.939 538.113 166.739 528.803 171.611C523.827 174.215 517.114 177.067 513.124 181.014C511.153 182.963 510.15 186.38 509.413 189.02C507.521 195.798 507.114 203.28 505.861 210.236C503.593 222.822 500.638 235.294 498.718 247.938C495.885 248.005 493.013 247.703 490.827 249.832C488.055 256.795 490.399 271.95 488.434 281.368C484.588 281.478 482.635 282.007 479.964 284.868C473.585 291.701 470.726 303.099 469.047 312.039C463.726 315.187 459.222 320.186 454.293 323.975C445.776 330.522 437.048 336.821 428.435 343.243C416.974 351.789 406.131 360.571 392.916 366.378C388.69 364.843 384.491 363.472 380.148 362.305Z"/>
	<path fill="#9F8BE8" d="M507.792 249.044C506.664 248.744 505.3 248.704 504.63 247.73C505.237 236.942 508.606 225.518 510.593 214.86C512.096 206.802 512.858 198.295 514.745 190.372C515.303 188.028 516.191 185.729 517.942 184.016C521.476 180.556 527.121 178.266 531.499 176.022C540.411 171.449 549.347 166.924 558.308 162.449C563.343 159.98 568.974 157.893 573.659 154.829C580.628 150.272 580.006 144.482 581.541 137.213L582.598 137.877C584.659 141.641 583.802 147.456 583.02 151.535C577.491 158.584 549.537 171.004 539.844 176.035C534.049 179.043 527.154 182.116 522.773 187.08C514.016 197.004 512.604 234.22 507.941 248.598C507.893 248.747 507.842 248.895 507.792 249.044Z"/>
	<path fill="#E6E2F6" d="M885.164 266.539C888.762 264.491 894.415 258.744 897.997 255.78C911.642 244.631 925.119 233.277 938.424 221.723C966.783 197.339 996.061 173.986 1024 149.114L1024 405.925C1006.46 417.005 988.632 427.629 970.54 437.786C970.585 433.137 971.584 416.296 970.155 413.115C969.815 396.942 969.623 380.542 970.147 364.372C965.086 359.519 958.161 358.538 951.39 358.783C949.204 358.862 946.405 359.009 944.86 360.799C943.992 361.805 943.954 363.597 943.868 364.878C943.422 371.528 943.822 378.387 943.842 385.062C943.883 398.927 943.94 412.904 943.516 426.76C927.379 420.277 911.206 413.885 894.997 407.585C886.543 404.25 877.987 400.23 869.262 397.707L869.435 341.286C869.424 333.149 870.081 324.37 869.101 316.345C868.939 315.017 868.696 314.411 867.768 313.424C864.945 310.421 858.164 310.304 854.264 310.511C849.539 310.762 846.123 311.793 842.542 314.878L842.407 459.628C842.33 480.647 843.099 501.923 842.231 522.905C833.688 526.973 825.56 532.465 817.45 537.349C807.783 543.171 797.951 548.709 788.261 554.498L685.718 615.053C607.88 659.178 530.647 704.361 454.039 750.589C442.761 757.508 431.372 764.245 419.876 770.796C408.922 776.943 397.584 782.663 387.384 790.024C385.227 775.701 383.329 761.34 381.691 746.949C380.373 735.112 379.528 723.131 377.691 711.366C376.173 701.643 373.767 691.972 371.664 682.358C371.998 681.44 372.319 681.112 373.043 680.474C376.652 677.292 380.713 674.509 384.468 671.487L408.885 651.696C424.528 639.227 439.879 626.362 455.449 613.795C541.71 543.079 627.45 471.73 712.663 399.755L767.497 354.148C775.963 347.156 790.975 336.319 797.592 328.178C805.912 325.677 816.938 323.472 824.341 319.183C829.003 316.481 831.43 313.106 832.901 307.988C832.947 307.138 832.872 305.685 833.239 304.926C833.355 304.686 864.065 280.305 868.689 277.021C869.617 276.363 870.269 276.073 871.39 275.873C877.836 274.6 881.151 271.45 885.164 266.539Z"/>
	<path fill="#9F8BE8" d="M517.207 284.406C519.588 280.335 524.344 276.157 527.601 272.718C544.884 254.467 563.95 238.009 581.643 220.141C585.377 228.83 589.363 237.408 593.596 245.865C588.848 248.416 578.215 260.363 573.351 264.984C554.847 282.564 536.381 300.303 517.326 317.282L516.773 310.985C519.04 306.838 521.214 302.645 522.135 297.963C522.801 294.576 523.162 289.658 520.955 286.712C519.901 285.305 518.975 284.665 517.207 284.406Z"/>
	<path fill="#E6E2F6" d="M517.326 317.282C536.381 300.303 554.847 282.564 573.351 264.984C578.215 260.363 588.848 248.416 593.596 245.865C595.964 250.437 598.115 254.207 603.427 255.739C614.685 258.985 635.207 246.243 646.255 242.103C650.895 246.706 654.236 252.427 658.507 257.362C654.33 265.655 635.374 288.954 638.041 296.843C640.791 304.974 663.814 314.619 671.752 318.168C681.637 322.589 693.686 328.136 704.262 330.085C710.217 328.34 713.608 325.572 716.65 320.036C720.747 312.578 726.927 300.35 728.941 292.29C734.592 292.962 739.494 293.237 745.128 292.415C747.365 303.772 750 315.609 753.87 326.528C726.968 350.291 699.122 373.15 671.773 396.404C611.883 447.793 551.725 498.869 491.301 549.629L408.229 620.327C398.317 628.911 388.3 637.372 378.18 645.708C374.115 649.085 369.943 653.272 365.489 656.068C358.891 624.142 350.041 592.817 342.319 561.172C336.249 536.295 331.629 515.564 338.958 490.113C341.097 482.686 343.815 475.501 347.838 468.882C356.086 477.753 361.425 484.784 372.033 491.605C379.954 496.698 389.955 500.225 399.393 497.934C406.391 496.236 411.889 491.884 415.52 485.756C415.85 485.683 416.182 485.617 416.51 485.536C437.965 480.233 462.57 457.618 474.144 438.884C474.751 438.607 475.443 438.313 475.996 437.943C479.263 435.755 480.178 424.444 480.907 420.719C482.95 420.832 484.691 421.085 486.532 420.02C489.34 416.996 500.562 351.982 502.246 342.693C504.668 341.772 507.196 340.463 509.284 338.921C516.62 333.504 516.269 325.342 517.326 317.282Z"/>
	<path fill="#9F8BE8" d="M811.09 263.883C817.068 260.017 822.832 255.829 828.357 251.338C829.321 251.885 829.887 252.268 830.543 253.168C830.066 259.143 818.05 262.292 814.999 267.322C814.305 272.897 824.474 293.519 826.696 300.489C827.72 303.704 828.376 307.149 826.619 310.243C822.361 317.742 794.071 323.859 785.412 326.111C779.777 327.576 766.422 332.203 761.387 328.925C756.433 325.7 751.33 298.834 749.586 291.716C748.77 288.187 748.136 284.726 747.696 281.13C753.001 289.785 759.96 318.784 763.912 323.108C764.757 324.033 765.755 323.781 766.912 323.729C774.22 323.402 819.091 311.224 822.688 307.208C823.297 300.563 813.336 272.665 811.09 263.883Z"/>
	<path fill="#9F8BE8" d="M495.001 267.372C495.105 262.711 495.285 258.051 495.543 253.396C502.421 253.511 509.238 254.799 515.915 256.36L512.579 268.612C512.443 269.075 512.099 269.64 511.884 270.077C509.024 271.148 498.403 268.102 495.001 267.372Z"/>
	<path fill="#E6E2F6" d="M834.996 256.372C838.577 258.382 842.202 260.313 845.868 262.164C842.858 266.938 829.443 277.849 824.37 280.724C822.832 276.901 821.335 273.084 819.985 269.191C825.281 265.124 830.243 261.061 834.996 256.372Z"/>
	<path fill="#9F8BE8" d="M845.868 262.164C853.967 266.624 862.025 274.846 871.39 275.873C870.269 276.073 869.617 276.363 868.689 277.021C864.065 280.305 833.355 304.686 833.239 304.926C832.872 305.685 832.947 307.138 832.901 307.988C832.141 298.732 827.738 289.308 824.37 280.724C829.443 277.849 842.858 266.938 845.868 262.164Z"/>
	<path fill="#9F8BE8" d="M317.063 284.737C326.897 278.266 333.059 271.835 339.722 262.245C343.938 264.884 348.467 266.914 352.613 269.694C347.771 272.07 339.839 272.947 337.154 278.304C336.552 279.505 336.637 280.177 336.957 281.433C337.75 282.019 337.98 282.338 338.992 282.477C341.455 282.816 343.178 281.093 344.985 279.692C344.157 281.502 343.041 283.54 342.764 285.52C342.524 287.234 342.876 288.31 343.891 289.711C345.304 290.536 346.252 290.758 347.873 290.334C352.32 289.169 354.35 286.018 356.584 282.338C359.867 287.937 364.832 291.702 369.688 295.848C367.706 298.459 367.133 302.488 364.916 304.577C363.988 305.451 362.809 304.839 361.635 305.806C360.488 311.318 368.8 315.186 368.167 320.974C367.938 323.064 366.9 324.44 365.339 325.752C357.345 332.475 342.492 327.873 334.085 323.935C331.467 322.709 328.324 319.793 325.485 319.616C324.89 320.076 324.532 320.206 324.253 320.95C323.768 322.243 323.985 323.372 324.649 324.558C326.506 327.872 334.421 330.094 337.871 331.264L341.686 332.655C338.602 338.499 335.315 344.234 331.831 349.85C323.696 345.306 315.371 341.491 306.416 338.866C311.363 332.624 315.695 322.165 318.515 314.678C319.576 311.862 321.752 305.871 320.266 303.124C319.479 301.671 311.491 304.199 309.036 303.101C307.827 302.56 307.213 301.622 306.867 300.388C306.19 297.978 306.937 294.868 308.244 292.797C309.105 291.434 310.591 289.715 312.341 289.639C317.026 289.434 319.464 298.228 322.905 300.655C323.117 300.402 323.333 300.152 323.541 299.896C324.638 298.543 324.636 297.215 324.351 295.524C323.626 291.218 320.417 287.317 317.063 284.737Z"/>
	<path fill="#9F8BE8" d="M492.751 296.911C494.192 289.146 494.83 281.256 495.63 273.404C500.573 274.102 505.509 274.845 510.439 275.633C509.327 280.126 508.261 284.63 507.243 289.145L502.689 291.851C499.448 293.647 496.059 295.237 492.751 296.911Z"/>
	<path fill="#FBF9FE" d="M474.145 316.092C475.977 306.606 478.499 293.963 485.499 286.753C487.108 287.015 487.535 287.289 488.595 288.471C489.799 293.694 485.48 296.996 484.69 301.676C484.503 302.784 484.751 302.94 485.382 303.776C492.198 305.563 510.381 293.993 516.628 290.572C517.019 298.226 514.968 303.328 510.652 309.515C508.514 312.761 506.238 315.837 503.253 318.363C498.819 322.117 493.082 324.184 487.251 323.625C481.858 323.108 477.577 320.138 474.145 316.092Z"/>
	<path fill="#010101" d="M970.147 364.372C969.623 380.542 969.815 396.942 970.155 413.115C970.038 465.927 970.486 518.739 971.497 571.542L977.991 1024L972.482 1024L965.448 518.766L964.875 406.766C964.827 398.211 965.946 373.681 964.091 366.718C960.551 363.24 953.59 364.036 948.935 364C949.018 385.698 948.89 407.396 948.552 429.091C950.354 429.597 952.311 430.217 954.019 430.993C955.773 431.79 957.128 432.99 957.782 434.853C958.966 438.229 957.483 445.99 955.884 449.04C953.58 453.437 951.741 450.147 948.865 451.048C947.952 458.556 948.697 466.867 948.759 474.453C948.87 488.384 948.892 502.316 948.825 516.247C950.859 517.071 953.099 517.829 954.618 519.487C956.854 521.927 957.665 525.829 957.397 529.044C957.177 531.674 956.134 534.156 953.998 535.791C952.305 537.087 950.718 536.813 948.744 536.612C949.536 559.09 949.434 581.578 949.671 604.065C951.632 604.711 954.056 605.348 955.681 606.676C957.487 608.151 958.458 610.778 958.523 613.058C958.625 616.587 957.391 620.82 954.789 623.319C953.494 624.563 952.507 624.702 950.81 624.605C950.658 624.597 950.506 624.583 950.354 624.572C950.164 624.803 949.905 624.993 949.784 625.267C949.083 626.848 951.33 727.779 951.434 737.432L953.534 901.133C953.984 942.042 953.894 983.122 955.319 1024L949.776 1024C949.376 1016.69 949.56 1009.27 949.51 1001.94C922.217 991.982 895.458 980.592 868.035 970.949C867.941 988.634 867.746 1006.32 867.45 1024L862.287 1024L864.369 539.231L864.317 394.087C864.315 368.53 865.358 342.423 864.174 316.948C862.843 316.524 861.504 316.113 860.125 315.878C856.817 315.317 850.77 314.662 847.976 316.661C846.713 319.871 847.566 368.242 847.556 375.266L847.273 557.221L842.843 1024L837.435 1024L840.493 734.082L841.804 592.361C841.994 569.227 841.699 546.03 842.231 522.905C843.099 501.923 842.33 480.647 842.407 459.628L842.542 314.878C846.123 311.793 849.539 310.762 854.264 310.511C858.164 310.304 864.945 310.421 867.768 313.424C868.696 314.411 868.939 315.017 869.101 316.345C870.081 324.37 869.424 333.149 869.435 341.286L869.262 397.707C877.987 400.23 886.543 404.25 894.997 407.585C911.206 413.885 927.379 420.277 943.516 426.76C943.94 412.904 943.883 398.927 943.842 385.062C943.822 378.387 943.422 371.528 943.868 364.878C943.954 363.597 943.992 361.805 944.86 360.799C946.405 359.009 949.204 358.862 951.39 358.783C958.161 358.538 965.086 359.519 970.147 364.372ZM943.792 451.157C943.674 449.963 943.905 448.633 942.75 447.934C938.283 445.231 930.617 443.387 925.58 441.401C913.371 436.586 901.247 431.565 888.992 426.865C882.561 424.399 876.11 421.646 869.42 419.964C869.164 442.059 869.156 464.155 869.396 486.249C872.822 487.451 876.234 488.691 879.632 489.968C900.727 498.867 922.937 505.187 943.883 514.56C944.454 493.475 943.634 472.265 943.792 451.157ZM869.422 403.037L869.501 413.54C885.732 420.142 902.175 426.248 918.449 432.757C928.649 436.837 938.828 441.57 949.135 445.299C950.305 445.722 951.048 445.984 952.243 445.541C952.759 442.349 952.985 439.319 953.019 436.087C925.058 425.312 897.192 414.295 869.422 403.037ZM869.437 491.664L869.464 502.25C876.771 504.897 950.091 532.856 951.362 532.798C951.657 529.554 952.035 526.307 952.009 523.046C936.633 516.558 920.764 511.083 905.141 505.218C893.252 500.755 881.453 495.749 869.437 491.664ZM869.776 508.097C868.733 515.226 869.481 523.381 869.488 530.627L869.446 574.97C880.099 577.24 890.734 582.276 901.005 585.989C915.442 591.208 930.499 595.725 944.511 602.001L944.012 535.294C919.092 526.745 894.628 516.861 869.776 508.097ZM869.508 580.125L869.424 591.225C879.116 594.177 948.701 620.447 951.435 619.676L952.023 618.904C952.665 616.508 953.289 614.166 953.626 611.702C946.511 607.441 937.019 604.923 929.214 602.009L869.508 580.125ZM869.451 596.685L869.491 668.661C895.064 676.375 920.051 686.518 945.384 695.023C945.244 671.249 945.294 647.304 944.265 623.557C919.271 614.933 894.183 606.023 869.451 596.685ZM869.543 673.919L869.488 684.188C895 692.934 920.44 701.888 945.806 711.048L945.559 701.287C935.293 697.437 924.88 694.006 914.574 690.269C899.569 684.829 884.632 679.122 869.543 673.919ZM869.516 689.872L869.367 768.814C885.058 774.075 900.543 780.057 916.076 785.771C926.198 789.495 936.808 792.841 946.658 797.231L946.002 716.886C929.415 711.71 912.951 705.357 896.608 699.43C887.644 696.179 878.344 693.42 869.516 689.872ZM869.366 774.214L869.346 784.341C884.114 789.091 898.637 794.662 913.155 800.123C924.402 804.354 935.749 808.419 946.894 812.909L946.849 802.829C920.863 793.726 895.031 784.186 869.366 774.214ZM869.065 789.796C869.062 813.868 868.592 838.09 869.105 862.151C885.687 867.308 901.853 874.161 918.081 880.357C927.849 884.086 938.48 887.205 947.829 891.861C947.712 867.398 947.457 842.935 947.063 818.475C921.102 808.992 894.69 800.118 869.065 789.796ZM869.041 867.305L868.987 877.691C895.381 887.356 921.685 897.263 947.897 907.411C947.867 904.024 947.93 900.601 947.623 897.227L892.646 876.379C884.835 873.38 876.642 870.758 869.041 867.305ZM868.649 882.714L868.407 927.774C868.365 935.026 868.031 942.376 868.281 949.616L949.248 980.133C949.284 957.858 948.582 935.56 948.444 913.28C930.583 907.014 912.873 900.325 895.33 893.218C886.446 889.7 877.415 886.52 868.649 882.714ZM868.086 955.232L868.108 965.003C884.085 971.443 900.417 977.14 916.532 983.239C927.456 987.374 938.337 992.159 949.385 995.9L949.407 986.035C922.299 975.878 894.762 966.461 868.086 955.232Z"/>
	<path fill="#9F8BE8" d="M842.843 1024L847.273 557.221L847.556 375.266C847.566 368.242 846.713 319.871 847.976 316.661C850.77 314.662 856.817 315.317 860.125 315.878C861.504 316.113 862.843 316.524 864.174 316.948C865.358 342.423 864.315 368.53 864.317 394.087L864.369 539.231L862.287 1024L842.843 1024Z"/>
	<path fill="#9F8BE8" d="M492.829 329.586C501.255 327.303 506.255 323.254 511.43 316.453C511.903 316.968 511.94 317.522 511.979 318.23C512.277 323.59 510.862 330.41 506.864 334.181C503.049 337.78 498.057 338.237 493.084 338.066C492.273 335.423 492.706 332.316 492.829 329.586Z"/>
	<path fill="#E6E2F6" d="M396.749 402.703C404.351 397.372 410.43 390.818 416.597 383.933C430.769 368.109 442.903 350.683 456.188 334.143C460.427 328.865 464.534 323.29 469.244 318.422C469.893 319.144 470.566 319.849 471.205 320.578C474.452 324.28 484.846 330.097 485.973 334.084C486.849 337.183 486.652 343.522 487.278 347.33C484.012 353.893 479.047 359.975 474.754 365.904L453.587 395.205C443.327 409.67 434.22 424.943 423.931 439.393C420.109 444.76 415.073 452.87 408.12 453.879C388.615 456.709 320.881 428.946 304.312 415.966C294.547 408.316 288.292 395.978 286.9 383.739C286 375.832 287.485 368.537 292.509 362.252C297.021 358.143 302.432 356.345 308.505 356.516C334.16 357.239 381.002 398.712 398.903 416.616C403.14 420.854 406.147 425.798 410.148 429.849C411.195 430.909 412.266 431.826 413.825 431.849C414.452 431.003 414.598 430.807 414.528 429.696C414.088 422.707 404.383 414.479 399.604 410.078C399.823 410.132 400.04 410.189 400.26 410.239C404.485 411.201 413.794 416.444 417.276 415.761L417.733 414.865C417.607 414.186 417.612 414.054 417.321 413.344C415.268 408.344 401.696 404.908 396.749 402.703Z"/>
	<path fill="#9F8BE8" d="M753.87 326.528C754.813 329.374 756.661 332.013 759.373 333.42C768.417 338.11 787.824 330.441 797.592 328.178C790.975 336.319 775.963 347.156 767.497 354.148L712.663 399.755C627.45 471.73 541.71 543.079 455.449 613.795C439.879 626.362 424.528 639.227 408.885 651.696L384.468 671.487C380.713 674.509 376.652 677.292 373.043 680.474C372.319 681.112 371.998 681.44 371.664 682.358C369.654 673.583 367.595 664.82 365.489 656.068C369.943 653.272 374.115 649.085 378.18 645.708C388.3 637.372 398.317 628.911 408.229 620.327L491.301 549.629C551.725 498.869 611.883 447.793 671.773 396.404C699.122 373.15 726.968 350.291 753.87 326.528Z"/>
	<path fill="#FBF9FE" d="M394.704 371.742C414.967 361.452 432.673 346.672 450.373 332.54L450.657 332.736C448.789 336.428 444.845 339.993 442.292 343.323C426.778 363.559 411.506 385.525 390.809 400.764C376.651 390.22 363.806 377.89 348.869 368.421L345.496 365.978C344.45 363.287 342.948 360.737 341.606 358.183C357.463 360.101 373.679 366.258 389.063 370.583C388.449 375.117 387.37 380.103 390.253 384.122L391.963 383.597C394.134 380.555 393.954 375.388 394.704 371.742Z"/>
	<path fill="#E6E2F6" d="M229.042 492.107C229.777 488.081 231.331 484.089 232.54 480.175C234.367 474.459 235.875 468.646 237.06 462.763C238.911 453.857 240.538 444.905 241.939 435.917C244.183 420.539 245.089 404.658 251.457 390.283C260.049 370.888 277.158 350.752 297.352 342.981C307.101 342.171 328.4 353.824 335.951 359.66C323.887 354.402 309.849 348.047 296.651 353.338C290.624 355.754 286.012 360.856 283.624 366.833C279.288 377.685 281.693 390.771 286.346 401.096C298.197 427.393 330.374 437.046 355.357 446.445C343.533 463.523 334.804 481.02 330.987 501.614C330.088 507.099 329.561 512.638 329.408 518.195C291.573 517.199 262.862 508.718 229.042 492.107Z"/>
	<path fill="#9F8BE8" d="M475.669 375.042C481.699 365.432 491.685 354.878 493.139 343.376C493.269 343.389 493.399 343.398 493.528 343.414C494.894 343.583 495.588 343.421 496.478 344.534C495.54 353.419 493.157 362.464 491.429 371.242C488.542 385.97 485.781 400.722 483.148 415.497C480.441 414.811 477.677 414.275 474.948 413.679L469.906 412.958C471.616 400.531 475.546 387.56 475.669 375.042Z"/>
	<path fill="#9F8BE8" d="M955.319 1024C953.894 983.122 953.984 942.042 953.534 901.133L951.434 737.432C951.33 727.779 949.083 626.848 949.784 625.267C949.905 624.993 950.164 624.803 950.354 624.572C950.506 624.583 950.658 624.597 950.81 624.605C952.507 624.702 953.494 624.563 954.789 623.319C957.391 620.82 958.625 616.587 958.523 613.058C958.458 610.778 957.487 608.151 955.681 606.676C954.056 605.348 951.632 604.711 949.671 604.065C949.434 581.578 949.536 559.09 948.744 536.612C950.718 536.813 952.305 537.087 953.998 535.791C956.134 534.156 957.177 531.674 957.397 529.044C957.665 525.829 956.854 521.927 954.618 519.487C953.099 517.829 950.859 517.071 948.825 516.247C948.892 502.316 948.87 488.384 948.759 474.453C948.697 466.867 947.952 458.556 948.865 451.048C951.741 450.147 953.58 453.437 955.884 449.04C957.483 445.99 958.966 438.229 957.782 434.853C957.128 432.99 955.773 431.79 954.019 430.993C952.311 430.217 950.354 429.597 948.552 429.091C948.89 407.396 949.018 385.698 948.935 364C953.59 364.036 960.551 363.24 964.091 366.718C965.946 373.681 964.827 398.211 964.875 406.766L965.448 518.766L972.482 1024L955.319 1024Z"/>
	<path fill="#9F8BE8" d="M472.057 418.298C471.418 422.875 468.125 431.636 469.963 435.795C470.82 437.732 472.3 438.234 474.144 438.884C462.57 457.618 437.965 480.233 416.51 485.536C416.182 485.617 415.85 485.683 415.52 485.756C415.604 485.263 415.65 485.069 415.691 484.604C415.87 482.629 415.704 480.38 414.832 478.575C412.093 472.901 399.45 463.491 394.59 457.914C399.011 458.92 403.609 460.123 408.171 459.499C412.169 458.953 415.391 457.232 418.325 454.526C425.479 447.928 430.843 438.664 436.339 430.659C447.329 414.652 457.69 398.275 469.329 382.719C468.106 393.761 465.79 404.868 464.246 415.898C466.85 417.252 469.192 417.831 472.057 418.298Z"/>
	<path fill="#9F8BE8" d="M869.501 413.54L869.422 403.037C897.192 414.295 925.058 425.312 953.019 436.087C952.985 439.319 952.759 442.349 952.243 445.541C951.048 445.984 950.305 445.722 949.135 445.299C938.828 441.57 928.649 436.837 918.449 432.757C902.175 426.248 885.732 420.142 869.501 413.54Z"/>
	<path fill="#9F8BE8" d="M970.54 437.786C988.632 427.629 1006.46 417.005 1024 405.925L1024 1024L977.991 1024L971.497 571.542C970.486 518.739 970.038 465.927 970.155 413.115C971.584 416.296 970.585 433.137 970.54 437.786Z"/>
	<path fill="#E6E2F6" d="M943.792 451.157C933.871 458.965 922.746 465.147 911.863 471.489C901.175 477.717 890.513 484.08 879.632 489.968C876.234 488.691 872.822 487.451 869.396 486.249C869.156 464.155 869.164 442.059 869.42 419.964C876.11 421.646 882.561 424.399 888.992 426.865C901.247 431.565 913.371 436.586 925.58 441.401C930.617 443.387 938.283 445.231 942.75 447.934C943.905 448.633 943.674 449.963 943.792 451.157Z"/>
	<path fill="#9F8BE8" d="M879.632 489.968C890.513 484.08 901.175 477.717 911.863 471.489C922.746 465.147 933.871 458.965 943.792 451.157C943.634 472.265 944.454 493.475 943.883 514.56C922.937 505.187 900.727 498.867 879.632 489.968Z"/>
	<path fill="#9F8BE8" d="M869.464 502.25L869.437 491.664C881.453 495.749 893.252 500.755 905.141 505.218C920.764 511.083 936.633 516.558 952.009 523.046C952.035 526.307 951.657 529.554 951.362 532.798C950.091 532.856 876.771 504.897 869.464 502.25Z"/>
	<path fill="#E6E2F6" d="M223.192 506.869C224.592 503.59 225.798 500.194 227.092 496.87C250.888 510.613 285.277 520.762 312.611 522.694C312.167 526.059 312.106 529.699 311.335 532.98C311.07 534.108 311.027 534.17 310.079 534.723C279.195 531.678 250.963 520.118 223.192 506.869Z"/>
	<path fill="#9F8BE8" d="M869.446 574.97L869.488 530.627C869.481 523.381 868.733 515.226 869.776 508.097C894.628 516.861 919.092 526.745 944.012 535.294L944.511 602.001C930.499 595.725 915.442 591.208 901.005 585.989C890.734 582.276 880.099 577.24 869.446 574.97Z"/>
	<path fill="#9F8BE8" d="M181.856 749.682C185.255 734.465 188.496 719.208 189.681 703.63C190.815 688.733 190.58 673.721 190.774 658.788C191.213 624.944 192.311 588.773 202.152 556.17C206.831 540.672 214.397 526.261 221.376 511.711C248.279 525.815 279.238 537.549 309.708 540.273C317.196 540.942 324.623 540.79 332.119 540.502C335.373 557.823 340.624 574.669 344.875 591.758C351.744 619.883 358.371 648.068 364.753 676.309C367.435 688.016 370.331 699.757 372.233 711.622C374.24 724.136 375.248 736.914 376.7 749.509C379.448 773.358 382.314 797.293 386.111 821.001C389.328 841.096 393.263 861.237 397.234 881.197C399.423 892.199 402.892 904.079 403.266 915.271C403.321 916.91 403.412 918.19 402.508 919.631C396.409 924.06 372.361 926.96 364.476 927.251C361.826 921.251 359.96 914.795 357.846 908.58L347.99 880.201C336.216 846.646 323.773 813.153 316.359 778.285C312.495 760.109 310.388 741.192 308.316 722.725C313.953 732.953 319.424 743.359 324.78 753.737C326.983 758.006 328.387 763.566 331.396 767.278C332.233 768.31 332.438 768.188 333.706 768.292C334.972 767.582 335.18 767.469 335.889 766.217C335.527 757.653 298.057 694.673 291.173 682.32C282.823 667.334 274.662 652.211 266.583 637.077C258.492 621.92 250.905 606.274 243.803 590.628C240.365 582.692 237.349 574.58 234.768 566.326C233.43 561.966 232.831 557.049 231.085 552.886C230.553 551.618 230.015 551.286 228.793 550.789C227.626 551.262 227.451 551.414 226.899 552.651C225.228 556.396 226.113 563.217 226.242 567.259C227.163 596.111 231.91 625.034 242.442 652.022C247.086 663.924 255.02 679.443 267.34 684.843C263.939 706.223 258.326 727.964 250.691 748.225C239.069 779.069 223.274 808.519 210.136 838.755C198.466 865.614 188.913 893.205 178.007 920.357C165.099 916.771 152.246 911.618 140.296 905.571C141.478 892.677 144.686 879.495 147.501 866.839C154.847 833.805 164.001 800.464 177.647 769.394C181.23 761.238 185.545 753.298 189.528 745.327C194.731 734.912 199.421 724.444 204.256 713.863C205.912 710.239 208.264 706.606 209.303 702.748C209.62 701.569 209.637 700.729 209.262 699.546C208.186 698.628 207.996 698.668 206.569 698.519C205.459 699.094 205.133 699.247 204.501 700.371C201.914 704.977 200.152 710.489 198.018 715.354C192.975 726.852 187.778 738.615 181.856 749.682Z"/>
	<path fill="#E6E2F6" d="M0 759.285C6.7549 750.892 14.3752 742.982 21.5951 734.978L58.7232 693.682C94.2716 653.824 129.469 613.655 164.312 573.18C174.237 561.549 184.434 550.081 194.11 538.245C199.372 531.808 204.059 524.682 209.756 518.625C210.892 517.417 211.732 516.701 213.293 516.131C207.267 528.805 201.067 541.555 196.817 554.962C187.795 583.42 185.731 621.611 185.586 651.508C185.482 673.038 185.979 694.347 183.168 715.743C180.861 733.3 176.236 754.538 170.776 771.341C163.772 792.894 155.016 813.541 149.48 835.619C143.91 858.45 138.931 881.421 134.548 904.509C133.982 907.337 135.209 909.083 135.118 911.701C134.977 915.754 132.39 923.023 131.011 927.024C129.593 931.138 125.3 934.458 122.812 938.006C120.581 941.189 118.865 944.821 117.242 948.345C98.5676 957.763 80.7002 968.416 62.6483 978.962C48.2293 987.386 34.0476 996.142 19.7324 1004.73C13.1966 1008.65 6.46805 1012.31 0 1016.34L0 759.285Z"/>
	<path fill="#FBF9FE" d="M316.301 535.512C317.227 531.352 317.724 527.035 318.38 522.821C322.033 522.956 325.7 522.972 329.355 523.045C329.638 526.861 331.236 530.908 331.097 534.671L329.943 535.262C325.419 535.641 320.838 535.513 316.301 535.512Z"/>
	<path fill="#9F8BE8" d="M387.384 790.024C397.584 782.663 408.922 776.943 419.876 770.796C431.372 764.245 442.761 757.508 454.039 750.589C530.647 704.361 607.88 659.178 685.718 615.053L788.261 554.498C797.951 548.709 807.783 543.171 817.45 537.349C825.56 532.465 833.688 526.973 842.231 522.905C841.699 546.03 841.994 569.227 841.804 592.361L840.493 734.082L837.435 1024L0 1024L0 1016.34C6.46805 1012.31 13.1966 1008.65 19.7324 1004.73C34.0476 996.142 48.2293 987.386 62.6483 978.962C80.7002 968.416 98.5676 957.763 117.242 948.345C115.222 954.038 113.78 959.7 112.478 965.586C108.904 966.887 106.317 968.181 103.707 971.102C101.924 973.097 100.57 975.544 100.87 978.299C101.097 980.381 102.448 982.462 104.095 983.714C115.34 992.255 208.981 1018.44 224.42 1016.37C228.554 1015.82 233.248 1014.12 235.803 1010.64C237.428 1008.42 237.859 1005.79 237.451 1003.1C236.977 999.973 235.292 997.181 233.187 994.87C230.26 991.658 226.428 988.988 223.161 986.106C213.68 977.743 204.008 969.543 194.624 961.082C188.47 955.532 180.076 945.632 174.134 941.464C170.898 941.466 167.661 941.49 164.425 941.536C166.706 935.822 168.797 930.017 170.967 924.259C174.124 924.81 177.289 925.317 180.461 925.78C184.136 920.646 186.086 913.952 188.194 908.056L188.802 908.242C196.944 906.672 256.59 869.173 268.843 861.904C287.359 850.919 306.995 840.899 324.643 828.58C326.712 836.54 329.71 844.455 332.395 852.229L346.562 892.729C350.031 902.615 354.841 920.48 359.772 928.677C362.061 932.484 365.58 932.932 369.576 933.789C370.828 938.432 372.185 942.966 373.746 947.516C371.457 952.777 362.459 984.866 362.14 989.453C362.034 990.984 361.984 992.207 363.056 993.392C373.779 1005.26 444.068 1013 461.699 1013.48C472.511 1013.77 488.967 1014.84 497.174 1006.64C499.044 1004.78 500.121 1002.58 500.016 999.905C499.857 995.881 497.226 992.361 494.404 989.705C482.788 978.774 444.243 954.905 429.465 948.216C422.275 944.961 414.13 941.559 406.101 941.79C405.057 936.347 404.055 930.896 403.094 925.437C404.22 924.764 405.497 923.967 406.332 922.945C408.743 919.994 408.383 915.288 408.097 911.701C407.566 905.046 406.071 898.415 404.827 891.863L398.712 860.459C394.177 837.01 390.559 813.682 387.384 790.024Z"/>
	<path fill="#9F8BE8" d="M869.424 591.225L869.508 580.125L929.214 602.009C937.019 604.923 946.511 607.441 953.626 611.702C953.289 614.166 952.665 616.508 952.023 618.904L951.435 619.676C948.701 620.447 879.116 594.177 869.424 591.225Z"/>
	<path fill="#9F8BE8" d="M869.491 668.661L869.451 596.685C894.183 606.023 919.271 614.933 944.265 623.557C945.294 647.304 945.244 671.249 945.384 695.023C920.051 686.518 895.064 676.375 869.491 668.661Z"/>
	<path fill="#E6E2F6" d="M276.253 666.199C284.539 681.357 293.352 696.094 301.885 711.095C298.489 715.168 293.179 718.66 288.984 721.919C278.699 729.907 267.838 737.564 258.064 746.169L257.306 745.951C265.66 719.893 271.995 693.23 276.253 666.199Z"/>
	<path fill="#9F8BE8" d="M869.488 684.188L869.543 673.919C884.632 679.122 899.569 684.829 914.574 690.269C924.88 694.006 935.293 697.437 945.559 701.287L945.806 711.048C920.44 701.888 895 692.934 869.488 684.188Z"/>
	<path fill="#9F8BE8" d="M869.367 768.814L869.516 689.872C878.344 693.42 887.644 696.179 896.608 699.43C912.951 705.357 929.415 711.71 946.002 716.886L946.658 797.231C936.808 792.841 926.198 789.495 916.076 785.771C900.543 780.057 885.058 774.075 869.367 768.814Z"/>
	<path fill="#9F8BE8" d="M301.885 711.095C303.085 719.48 303.133 730.6 305.242 738.411C294.933 745.185 285.412 753.526 275.799 761.261C268.311 767.287 260.53 772.932 252.787 778.622C248.593 781.704 243.706 786.218 239.093 788.482C241.767 781.085 245.492 773.961 248.714 766.782C251.804 759.897 254.464 752.93 257.306 745.951L258.064 746.169C267.838 737.564 278.699 729.907 288.984 721.919C293.179 718.66 298.489 715.168 301.885 711.095Z"/>
	<path fill="#E6E2F6" d="M239.093 788.482C243.706 786.218 248.593 781.704 252.787 778.622C260.53 772.932 268.311 767.287 275.799 761.261C285.412 753.526 294.933 745.185 305.242 738.411C308.019 762.644 312.165 785.942 318.818 809.462C320.597 815.751 322.218 822.517 324.643 828.58C306.995 840.899 287.359 850.919 268.843 861.904C256.59 869.173 196.944 906.672 188.802 908.242L188.194 908.056C192.594 894.129 198.625 880.317 204.236 866.826C211.332 849.767 218.436 832.81 226.133 816.012C230.091 807.373 234.132 796.409 239.093 788.482Z"/>
	<path fill="#9F8BE8" d="M869.346 784.341L869.366 774.214C895.031 784.186 920.863 793.726 946.849 802.829L946.894 812.909C935.749 808.419 924.402 804.354 913.155 800.123C898.637 794.662 884.114 789.091 869.346 784.341Z"/>
	<path fill="#9F8BE8" d="M869.105 862.151C868.592 838.09 869.062 813.868 869.065 789.796C894.69 800.118 921.102 808.992 947.063 818.475C947.457 842.935 947.712 867.398 947.829 891.861C938.48 887.205 927.849 884.086 918.081 880.357C901.853 874.161 885.687 867.308 869.105 862.151Z"/>
	<path fill="#9F8BE8" d="M868.987 877.691L869.041 867.305C876.642 870.758 884.835 873.38 892.646 876.379L947.623 897.227C947.93 900.601 947.867 904.024 947.897 907.411C921.685 897.263 895.381 887.356 868.987 877.691Z"/>
	<path fill="#9F8BE8" d="M868.281 949.616C868.031 942.376 868.365 935.026 868.407 927.774L868.649 882.714C877.415 886.52 886.446 889.7 895.33 893.218C912.873 900.325 930.583 907.014 948.444 913.28C948.582 935.56 949.284 957.858 949.248 980.133L868.281 949.616Z"/>
	<path fill="#9F8BE8" d="M132.517 937.75C134.313 932.737 135.688 927.498 137.358 922.431C144.924 928.255 152.43 931.379 161.951 932.064C160.681 936.147 158.998 940.088 157.727 944.185C159.503 944.219 161.558 943.996 163.2 944.687L161.415 945.393C155.453 946.643 148.205 947.473 142.254 945.796C137.584 944.481 134.899 941.846 132.517 937.75Z"/>
	<path fill="#E6E2F6" d="M377.263 941.472C385.142 940.348 391.205 939.698 398.608 936.45C399.428 936.324 398.972 936.289 399.937 936.798C401.124 939.359 401.542 942.304 402.14 945.053C397.747 948.068 393.539 951.383 389.286 954.592C387.871 953.791 386.496 952.906 385.111 952.053C383.089 950.484 381.28 949.45 378.812 948.739L377.263 941.472Z"/>
	<path fill="#9F8BE8" d="M117.09 967.037C119.31 957.275 122.905 948.342 127.179 939.337C128.014 940.203 128.582 941.463 129.326 942.439C132.578 946.706 136.116 949.503 141.231 951.291C144.173 962.009 142.795 967.571 139.936 977.914L135.828 976.089C129.417 973.362 123.161 970.46 117.09 967.037Z"/>
	<path fill="#9F8BE8" d="M147.087 951.624C156.109 951.749 163.123 949.579 171.734 947.168C174.061 948.263 175.836 950.558 177.547 952.424C173.951 955.187 169.064 957.169 165.933 960.393C164.901 961.455 164.374 962.513 164.49 964.024C164.568 965.046 164.761 964.961 165.45 965.58C170.279 965.848 177.329 959.139 181.176 956.399C183.242 957.977 185.194 959.678 187.162 961.375C183.787 963.256 179.634 965.586 176.906 968.332C175.761 969.486 175.343 970.301 175.395 971.913C175.978 972.577 176.393 973.007 177.277 973.274C181.404 974.522 187.219 967.999 190.708 965.997L191.381 965.615C193.428 967.086 195.265 968.845 197.142 970.524C194.197 972.216 191 973.975 188.495 976.289C187.323 977.372 186.73 978.18 186.699 979.781C187.494 980.791 188.486 981.211 189.744 981.397C193.05 981.885 198.544 976.102 201.272 974.114C203.135 975.626 204.888 977.276 206.666 978.886C202.08 981.412 198.01 983.664 194.364 987.48C193.489 991.289 192.798 995.161 192.019 998.992C176.318 992.568 159.304 987.524 144.479 979.294C147.989 969.58 149.452 961.84 147.087 951.624Z"/>
	<path fill="#E6E2F6" d="M394.518 956.424C399.272 953.079 404.256 950.074 409.434 947.433C414.58 948.012 421.23 949.774 425.688 952.471C422.582 953.984 415.695 956.539 413.734 959.499C412.925 960.72 413.023 960.967 413.316 962.304C414.493 963.651 416.04 963.981 417.681 964.521C420.992 961.621 424.96 957.196 429.257 956.079C432.889 955.135 435.306 957.058 438.309 958.79C434.554 960.939 430.157 963.029 427.242 966.294C426.329 967.316 425.586 968.509 425.676 969.923C426.093 970.798 426.398 971.334 427.405 971.626C430.689 972.578 440.463 964.219 443.542 962.011L453.271 967.323C449.322 968.703 445.08 970.836 441.585 973.152C439.338 974.641 437.117 976.293 436.581 979.071C437.021 980.465 437.01 980.511 438.207 981.337C439.862 981.465 440.419 981.256 441.816 980.494C446.687 976.217 452.408 973.644 458.162 970.779L465.113 975.111C455.456 981.293 450.91 984.513 448.044 996.159C432.924 992.886 417.859 991.645 402.92 987.215C404.498 980.393 405.234 972.06 402.865 965.333C401.204 960.619 398.799 958.566 394.518 956.424Z"/>
	<path fill="#E6E2F6" d="M370.501 977.545C372.888 969.434 374.188 960.244 377.451 952.512C379.419 954.083 381.428 955.748 383.637 956.964C388.021 959.377 394.344 960.701 397.338 964.98C401.189 970.482 399.347 980.266 398.19 986.438L393.313 985.029C385.632 982.776 378.024 980.28 370.501 977.545Z"/>
	<path fill="#9F8BE8" d="M868.108 965.003L868.086 955.232C894.762 966.461 922.299 975.878 949.407 986.035L949.385 995.9C938.337 992.159 927.456 987.374 916.532 983.239C900.417 977.14 884.085 971.443 868.108 965.003Z"/>
	<path fill="#9F8BE8" d="M867.45 1024C867.746 1006.32 867.941 988.634 868.035 970.949C895.458 980.592 922.217 991.982 949.51 1001.94C949.56 1009.27 949.376 1016.69 949.776 1024L867.45 1024Z"/>
	<path fill="#E6E2F6" d="M452.76 997.05C455.884 986.524 460.908 984.697 469.327 978.95C474.676 981.303 491.322 992.743 493.707 997.552C494.152 998.449 494.075 998.063 493.736 999.061C489.593 1000.95 482.725 1000.07 478.163 1000.01C469.633 999.668 461.141 998.678 452.76 997.05Z"/>
	<path fill="#E6E2F6" d="M198.923 989.707C203.091 987.974 206.876 985.307 210.675 982.892C215.053 984.519 228.386 997.598 231.665 1001.72C228.112 1004.01 223.213 1006.82 218.862 1006.25C211.288 1004.41 203.771 1002.35 196.321 1000.05C197.07 996.576 197.938 993.125 198.923 989.707Z"/>
</svg>
