<?xml version="1.0" encoding="utf-8" ?>
<svg xmlns="http://www.w3.org/2000/svg" xmlns:xlink="http://www.w3.org/1999/xlink" width="1024" height="1024">
	<path fill="#9F8BE8" d="M0 0L664.18 0L639.381 123.918C636.972 135.99 634.479 148.045 631.902 160.082C629.965 169.142 627.787 178.265 626.488 187.441C611.953 143.011 596.911 98.749 581.364 54.6632C578.391 45.9778 565.831 4.37518 562.046 0C561.506 19.1668 561.752 38.4192 561.396 57.6063C560.889 84.9127 559.587 112.262 558.575 139.554C557.801 160.403 557.517 181.237 556.353 202.074C540.273 175.273 524.767 148.179 508.964 121.221C499.271 104.836 489.801 88.3198 480.557 71.6774C474.985 61.7826 469.228 51.9458 464.11 41.807C466.46 62.9642 470.634 83.8737 473.469 104.956L490.652 240.193C485.107 235.748 479.999 230.727 474.603 226.095C437.682 194.404 403.505 159.811 369.18 125.365C388.196 171.669 406.264 218.356 423.372 265.398C428.548 279.796 434.069 294.119 438.857 308.651C418.849 299.65 399.481 289.271 379.797 279.596C361.307 270.643 343.026 261.261 324.971 251.46C316.106 246.628 306.519 241.867 298.568 235.618C324.15 269.66 348.264 304.532 372.372 339.61C383.197 355.362 395.859 371.024 404.79 387.914L343.628 379.17C335.162 377.982 326.544 377.231 318.128 375.801C317.81 372.333 317.135 368.879 314.562 366.322C311.741 363.516 303.987 362.693 300.12 361.186C296.339 359.712 292.731 357.604 288.827 356.476C286.419 355.78 283.175 355.067 280.672 355.269C275.769 355.663 271.04 361.202 267.801 364.555C264.547 364.184 261.078 363.575 258.22 365.637C256.374 366.969 255.414 369.543 255.176 371.727C255.002 373.321 255.051 374.994 255.042 376.597C252.396 378.581 248.905 380.77 248.276 384.297C247.852 386.672 249.103 388.897 250.515 390.705C251.562 392.044 258.157 401.151 258.721 401.6C259.935 402.569 261.702 403.284 263.101 403.962C265.147 408.62 267.401 411.178 271.573 414.145C271.779 416.544 272.018 418.944 272.184 421.346C270.707 423.488 269.14 424.839 267.071 426.38C249.036 425.548 239.976 431.165 226.816 443.21C212.002 456.769 198.683 473.185 187.49 489.831C180.349 500.451 172.452 511.653 167.327 523.412C151.248 560.305 149.571 621.674 147.915 662.179C147.396 673.659 147.059 685.146 146.904 696.637C146.81 702.966 147.689 714.695 146.21 720.357C144.72 726.058 140.62 731.478 137.883 736.703L126.906 757.859L78.6904 849.363C76.4214 853.743 77.7744 856.303 76.5225 858.574C73.4864 864.082 69.8053 870.209 65.1269 874.482C59.9151 879.242 54.8969 883.19 52.4475 890.181C51.5885 892.633 51.1987 895.225 50.4038 897.694C58.8626 906.116 67.1434 915.605 76.2725 923.232C82.9991 924.008 109.036 925.496 113.419 922.012C115.293 920.522 116.884 918.24 117.087 915.807C117.375 912.369 115.132 908.966 112.889 906.573C107.593 900.926 100.118 898.657 94.5568 893.715C92.4357 891.83 90.651 888.754 89.0056 886.438C90.7407 883.252 95.9126 871.96 99.2191 871.02C100.953 870.527 102.651 870.733 103.996 869.347C106.051 867.229 107.826 863.832 109.525 861.363L123.988 840.358C138.03 820.173 151.811 799.807 165.329 779.267C171.588 769.696 178.018 760.179 183.743 750.275C187.009 744.625 190.524 738.892 193.272 732.974C198.618 721.459 202.342 709.049 206.223 696.98C214.009 672.767 220.817 648.369 227.947 623.968C247.51 636.425 267.155 648.951 286.927 661.07L236.998 775.394C233.967 782.299 230.798 789.18 227.966 796.168C225.137 803.147 222.791 810.145 219.493 816.952C218.573 818.849 217.24 821.805 215.199 822.679C214.707 822.889 214.194 823.016 213.689 823.184C211.347 823.959 210.722 824.74 209.665 826.875C208.846 828.529 208.233 830.237 207.655 831.986C198.678 838.079 174.285 856.461 172.363 866.506C171.143 872.879 171.42 897.899 174.394 903.09C175.463 904.956 178.988 906.49 180.921 907.428C199.483 916.431 220.683 924.204 239.898 932.162C248.608 935.769 268.718 945.418 276.55 946.606C281.13 947.301 285.949 946.915 290.164 944.93C295.847 942.253 301.463 937.212 306.562 933.49C317.145 925.882 327.664 918.186 338.118 910.401C355.994 897.265 374.677 885.018 392.249 871.489C396.428 868.272 401.247 865.345 401.981 859.706C402.254 857.616 402.25 855.45 402.306 853.343C414.175 853.769 416.791 848.983 424.926 841.415C437.743 829.491 450.029 817.021 462.867 805.128C463.713 810.055 462.989 816.091 462.778 821.108C462.348 830.208 461.966 839.311 461.633 848.415C460.209 886.439 459.489 924.486 459.474 962.536C468.182 948.003 474.774 931.986 482.458 916.882C500.604 881.216 518.981 845.272 535.539 808.852C537.27 817.469 539.658 825.975 541.749 834.511L553.151 880.733C557.318 897.187 560.737 913.861 564.82 930.351C569.506 949.28 574.888 968.721 578.021 987.964C582.375 968.74 585.796 949.422 589.486 930.071L611.175 814.212C630.814 849.144 650.234 884.198 669.435 919.372C675.798 931.245 682.24 943.076 688.758 954.865C692.127 960.934 695.295 967.253 699.272 972.951C695.74 944.151 693.652 915.195 691.292 886.287C688.494 853.806 685.433 821.348 682.106 788.918C689.074 796.362 696.774 803.035 704.071 810.143L755.937 860.613L794.472 898.573C799.513 903.496 804.164 909.086 809.605 913.537C799.126 890.499 790.643 866.342 781.902 842.6L741.946 734.38C758.312 744.099 775.649 752.636 792.502 761.486C828.383 780.329 864.52 798.835 899.745 818.889C873.311 781.853 846.748 744.985 820.832 707.582C811.639 694.314 802.164 681.353 793.401 667.779C807.586 670.764 824.861 672.291 839.461 674.393C878.826 680.06 918.497 685.064 957.567 692.502C952.402 687.875 946.705 683.736 941.251 679.455L911.824 656.251C882.909 632.809 853.84 609.557 824.617 586.499C875.098 572.528 925.747 559.173 976.553 546.436C957.608 538.841 937.571 533.284 918.157 526.942L830.498 497.534C841.19 489.232 852.189 481.34 862.96 473.142L964.89 395.467C948.587 395.164 931.76 397.688 915.495 398.868C882.03 401.133 848.588 403.73 815.174 406.66C817.775 401.909 821.043 397.372 823.981 392.813L841.564 365.486L885.662 295.881C893.03 284.382 902.619 270.894 908.777 258.954C918.176 248.001 930.316 238.324 940.96 228.538L1000.5 173.977C1008.32 166.709 1016.44 159.726 1024 152.191L1024 1024L0 1024L0 0Z"/>
	<path fill="#64599A" d="M664.18 0L668.311 0C670.646 16.2287 673.704 32.3887 676.323 48.5778C682.082 83.859 687.64 119.173 692.997 154.517C695.79 172.882 699.62 191.53 701.288 210.011C716.751 187.16 733.647 165.205 750.086 143.053C756.43 134.503 764.029 121.985 771.314 114.673C770.127 124.162 767.683 137.072 768.835 146.571C761.201 157.848 753.61 169.187 745.805 180.344C740.623 187.752 733.977 195.698 730.069 203.809C729.408 205.181 729.427 206.676 729.424 208.166C725.388 213.84 700.922 246.867 700.653 249.728L699.605 250.219L699.367 250.045C695.888 253.382 692.467 256.713 688.624 259.638C687.523 249.01 685.448 238.43 683.934 227.849L675.652 166.935C673.205 147.6 670.857 128.253 668.607 108.894C667.303 97.5311 666.278 86.1016 664.535 74.7968L642.02 206.758C638.96 224.876 635.231 242.999 632.669 261.184C625.524 245.252 620.706 227.766 615.462 211.116C610.586 195.637 605.058 180.34 600.365 164.813C595.073 146.741 589.462 128.764 583.535 110.89C580.871 102.815 578.442 94.5108 575.26 86.6262C575.22 127.379 574.598 168.13 573.396 208.865C572.957 228.795 573.087 248.701 571.977 268.612C563.494 252.794 554.126 237.341 545.057 221.85L520.772 179.623C510.031 161.118 500.247 141.854 488.885 123.723C494.476 156.224 500.379 188.656 504.931 221.326L511.392 269.847C512.579 278.246 513.587 286.778 515.469 295.056L410.792 190.558C413.336 199.096 417.488 207.199 421.065 215.339C425.27 225.067 429.343 234.853 433.281 244.692C447.146 279.369 459.737 314.513 473.244 349.322C462.431 344.293 452.007 338.221 441.503 332.577C421.413 321.918 401.453 311.016 381.627 299.876C372.924 294.97 364.465 289.563 355.722 284.758C361.708 294.458 368.336 303.785 374.775 313.189L400.828 351.104C415.095 371.509 428.975 392.236 443.826 412.223C402.828 406.649 361.895 399.878 320.861 394.729C328.213 403.588 343.356 414.507 352.605 422.232C376.539 442.22 400.512 461.975 424.854 481.469C410.66 487.105 396.741 493.329 382.615 499.085C382.597 499.064 382.586 499.037 382.563 499.024C377.581 496.113 371.037 491.567 367.173 487.293L367.62 486.419L366.971 485.974C374.68 482.429 383.558 480.101 391.605 477.326L337.782 429.891C333.436 426.06 322.323 417.924 319.514 413.837C319.394 413.09 318.55 412.287 318.08 411.683C318.202 407.43 318.607 403.172 318.427 398.917C318.106 391.356 315.266 383.034 318.128 375.801C326.544 377.231 335.162 377.982 343.628 379.17L404.79 387.914C395.859 371.024 383.197 355.362 372.372 339.61C348.264 304.532 324.15 269.66 298.568 235.618C306.519 241.867 316.106 246.628 324.971 251.46C343.026 261.261 361.307 270.643 379.797 279.596C399.481 289.271 418.849 299.65 438.857 308.651C434.069 294.119 428.548 279.796 423.372 265.398C406.264 218.356 388.196 171.669 369.18 125.365C403.505 159.811 437.682 194.404 474.603 226.095C479.999 230.727 485.107 235.748 490.652 240.193L473.469 104.956C470.634 83.8737 466.46 62.9642 464.11 41.807C469.228 51.9458 474.985 61.7826 480.557 71.6774C489.801 88.3198 499.271 104.836 508.964 121.221C524.767 148.179 540.273 175.273 556.353 202.074C557.517 181.237 557.801 160.403 558.575 139.554C559.587 112.262 560.889 84.9127 561.396 57.6063C561.752 38.4192 561.506 19.1668 562.046 0C565.831 4.37518 578.391 45.9778 581.364 54.6632C596.911 98.749 611.953 143.011 626.488 187.441C627.787 178.265 629.965 169.142 631.902 160.082C634.479 148.045 636.972 135.99 639.381 123.918L664.18 0Z"/>
	<path fill="#9F8BE8" d="M668.311 0L876.578 0C853.908 31.3244 830.932 62.4262 807.653 93.3009L768.835 146.571C767.683 137.072 770.127 124.162 771.314 114.673C764.029 121.985 756.43 134.503 750.086 143.053C733.647 165.205 716.751 187.16 701.288 210.011C699.62 191.53 695.79 172.882 692.997 154.517C687.64 119.173 682.082 83.859 676.323 48.5778C673.704 32.3887 670.646 16.2287 668.311 0Z"/>
	<path d="M876.578 0L885.021 0C867.746 22.7214 850.741 45.6467 834.009 68.7711C816.421 92.6035 798.592 116.278 781.26 140.303C767.326 159.616 754.252 179.768 739.752 198.639C759.779 195.44 779.815 202.95 795.86 214.663C808.544 223.879 819.255 235.541 827.362 248.962C874.025 203.086 920.94 157.466 968.104 112.104C981.446 99.3172 994.395 86.1243 1007.69 73.2898C1013.01 68.1513 1018.3 62.4742 1024 57.7914L1024 66.5802C996.389 94.0149 968.008 120.652 940.18 147.854C903.88 183.733 867.299 219.328 830.442 254.634C837.684 273.097 838.449 289.871 835.228 309.367C838.728 308.867 841.895 308.537 844.883 306.463C851.249 302.044 857.069 296.363 862.852 291.197C874.36 280.811 885.81 270.36 897.201 259.846L1024 143.578L1024 152.191C1016.44 159.726 1008.32 166.709 1000.5 173.977L940.96 228.538C930.316 238.324 918.176 248.001 908.777 258.954C903.208 261.952 897.816 267.951 893.113 272.217C883.608 280.801 874.161 289.45 864.774 298.163C863.097 299.706 860.778 301.07 859.412 302.816C851.57 309.93 844.021 315.214 833.176 315.979C832.346 317.023 831.922 317.955 831.396 319.186C830.521 321.232 829.503 323.076 827.256 323.826C824.693 324.68 822.188 322.992 819.82 324.227C819.589 324.347 819.353 324.459 819.119 324.575L820.005 322.863C817.68 319.799 808.247 315.855 804.489 313.546C801.378 311.635 798.421 309.546 795.506 307.349C795.553 319.625 794.458 331.04 792.529 343.152C790.742 350.033 789.154 357.074 786.616 363.718C779.883 381.346 767.308 394.888 756.63 410.093C752.045 416.623 747.129 423.344 743.924 430.678C737.663 445.004 743.727 475.498 729.42 483.735C727.016 485.119 724.127 485.376 721.409 485.622C716.533 494.47 712.291 503.735 707.694 512.74C696.78 534.518 685.638 556.181 674.268 577.725C669.186 587.399 663.055 601.091 657.001 609.789C654.932 612.761 652.617 615.528 649.034 616.593C641.674 618.781 635.345 614.758 629.171 611.292C629.19 619.671 630.64 637.634 627.099 644.971C626.081 647.082 624.045 648.946 622.401 650.6C604.632 668.474 585.517 685.138 567.331 702.605C558.2 711.408 549.012 720.151 539.766 728.833C536.213 732.184 532.644 736.471 528.735 739.329C527.005 740.594 524.849 740.852 522.773 740.864C521.093 740.874 519.112 740.598 517.683 741.535C517.455 745.479 517.25 749.296 515.571 752.955C510.658 763.656 489.559 777.67 481.635 787.454C475.296 793.26 468.925 799.027 462.867 805.128C450.029 817.021 437.743 829.491 424.926 841.415C416.791 848.983 414.175 853.769 402.306 853.343C402.25 855.45 402.254 857.616 401.981 859.706C401.247 865.345 396.428 868.272 392.249 871.489C374.677 885.018 355.994 897.265 338.118 910.401C327.664 918.186 317.145 925.882 306.562 933.49C301.463 937.212 295.847 942.253 290.164 944.93C285.949 946.915 281.13 947.301 276.55 946.606C268.718 945.418 248.608 935.769 239.898 932.162C220.683 924.204 199.483 916.431 180.921 907.428C178.988 906.49 175.463 904.956 174.394 903.09C171.42 897.899 171.143 872.879 172.363 866.506C174.285 856.461 198.678 838.079 207.655 831.986C208.233 830.237 208.846 828.529 209.665 826.875C210.722 824.74 211.347 823.959 213.689 823.184C214.194 823.016 214.707 822.889 215.199 822.679C217.24 821.805 218.573 818.849 219.493 816.952C222.791 810.145 225.137 803.147 227.966 796.168C230.798 789.18 233.967 782.299 236.998 775.394L286.927 661.07C267.155 648.951 247.51 636.425 227.947 623.968C220.817 648.369 214.009 672.767 206.223 696.98C202.342 709.049 198.618 721.459 193.272 732.974C190.524 738.892 187.009 744.625 183.743 750.275C178.018 760.179 171.588 769.696 165.329 779.267C151.811 799.807 138.03 820.173 123.988 840.358L109.525 861.363C107.826 863.832 106.051 867.229 103.996 869.347C102.651 870.733 100.953 870.527 99.2191 871.02C95.9126 871.96 90.7407 883.252 89.0056 886.438C90.651 888.754 92.4357 891.83 94.5568 893.715C100.118 898.657 107.593 900.926 112.889 906.573C115.132 908.966 117.375 912.369 117.087 915.807C116.884 918.24 115.293 920.522 113.419 922.012C109.036 925.496 82.9991 924.008 76.2725 923.232C67.1434 915.605 58.8626 906.116 50.4038 897.694C51.1987 895.225 51.5885 892.633 52.4475 890.181C54.8969 883.19 59.9151 879.242 65.1269 874.482C69.8053 870.209 73.4864 864.082 76.5225 858.574C77.7744 856.303 76.4214 853.743 78.6904 849.363L126.906 757.859L137.883 736.703C140.62 731.478 144.72 726.058 146.21 720.357C147.689 714.695 146.81 702.966 146.904 696.637C147.059 685.146 147.396 673.659 147.915 662.179C149.571 621.674 151.248 560.305 167.327 523.412C172.452 511.653 180.349 500.451 187.49 489.831C198.683 473.185 212.002 456.769 226.816 443.21C239.976 431.165 249.036 425.548 267.071 426.38C269.14 424.839 270.707 423.488 272.184 421.346C272.018 418.944 271.779 416.544 271.573 414.145C267.401 411.178 265.147 408.62 263.101 403.962C261.702 403.284 259.935 402.569 258.721 401.6C258.157 401.151 251.562 392.044 250.515 390.705C249.103 388.897 247.852 386.672 248.276 384.297C248.905 380.77 252.396 378.581 255.042 376.597C255.051 374.994 255.002 373.321 255.176 371.727C255.414 369.543 256.374 366.969 258.22 365.637C261.078 363.575 264.547 364.184 267.801 364.555C271.04 361.202 275.769 355.663 280.672 355.269C283.175 355.067 286.419 355.78 288.827 356.476C292.731 357.604 296.339 359.712 300.12 361.186C303.987 362.693 311.741 363.516 314.562 366.322C317.135 368.879 317.81 372.333 318.128 375.801C315.266 383.034 318.106 391.356 318.427 398.917C318.607 403.172 318.202 407.43 318.08 411.683C318.55 412.287 319.394 413.09 319.514 413.837L317.975 413.038C316.001 414.157 315.026 417.562 313.459 419.318C310.261 422.904 304.697 425.632 300.413 427.659C307.962 435.167 361.091 485.583 366.971 485.974L367.62 486.419L367.173 487.293C371.037 491.567 377.581 496.113 382.563 499.024C382.586 499.037 382.597 499.064 382.615 499.085C387.313 504.622 394.687 509.433 400.396 514.053C416.595 527.162 433.343 539.805 449.302 553.169C452.617 555.945 452.271 559.976 456.482 562.217C463.995 566.215 473.147 568.935 481.253 571.464C487.167 573.309 494.269 574.823 499.369 578.507C500.933 579.636 501.584 580.615 501.841 582.521C501.165 584.555 499.421 585.51 498.123 587.121L498.257 587.403L501.747 587.488C507.713 581.434 514.109 575.866 520.456 570.222C523.794 567.255 528.062 564.174 530.695 560.596C533.726 556.478 535.723 551.093 537.907 546.487C541.752 538.3 545.649 530.138 549.596 522L576.342 467.643C580.173 459.817 585.788 450.495 588.253 442.28C589.591 437.82 588.266 431.585 588.68 426.857C589.6 416.359 591.289 405.954 592.948 395.554C583.757 409.33 571.863 434.551 559.726 444.979C557.229 447.151 554.266 448.719 551.066 449.563C547.42 450.537 538.212 451.798 535.07 449.535C533.882 448.679 533.313 447.638 533.074 446.217C531.742 438.32 545.836 415.653 549.78 407.687C555.85 395.43 560.829 382.871 566.139 370.285C570.093 360.913 573.496 351.368 579.721 343.196C589.58 330.251 601.032 327.882 613.617 319.399C634.541 305.293 655.081 288.07 674.547 271.959C678.439 268.738 685.954 263.638 688.624 259.638C692.467 256.713 695.888 253.382 699.367 250.045L699.605 250.219L700.653 249.728C710.703 243.036 730.024 224.966 736.108 214.804C732.968 212.882 731.163 211.446 729.424 208.166C729.427 206.676 729.408 205.181 730.069 203.809C733.977 195.698 740.623 187.752 745.805 180.344C753.61 169.187 761.201 157.848 768.835 146.571L807.653 93.3009C830.932 62.4262 853.908 31.3244 876.578 -4.54747e-13L876.578 0ZM299.098 380.647C297.37 379.807 294.235 377.818 292.305 378.569C290.795 379.156 289.773 380.46 289.229 381.95C288.331 384.408 288.27 387.583 286.823 389.769C283.902 394.182 269.951 400.202 273.169 406.617C274.228 408.726 276.621 409.825 278.609 410.87C278.77 415.038 278.682 418.372 281.939 421.456C284.722 424.09 288.933 424.984 292.657 424.686C297.814 424.273 304.757 420.781 307.743 416.456C308.083 415.963 308.102 415.802 308.261 415.3C305.011 413.744 300.438 417.613 297.159 414.854L296.96 413.985C299.417 412.797 306.134 410.196 308.738 410.503L310.587 412.383C313.387 409.369 313.562 404.41 313.442 400.487C313.296 395.71 312.441 390.815 311.35 386.167C311.399 384.967 311.211 383.754 311.094 382.559C309.187 380.141 303.766 383.127 299.098 380.647ZM313.115 528.672C305.115 523.235 297.178 517.705 289.306 512.084C284.236 518.932 279.722 526.147 275.049 533.266C270.793 539.749 265.985 546.318 262.741 553.366C290.411 577.25 339.899 622.238 342.904 660.664C343.392 666.9 342.64 672.954 340.2 678.737C335.23 690.516 326.609 701.515 319.86 712.391L277.869 779.53C273.504 786.563 268.866 793.423 264.638 800.541C277.133 792.731 288.265 784.961 303.049 782.307C331.692 752.499 361.83 724.228 391.416 695.381C404.646 682.459 417.696 669.353 430.561 656.069L456.176 630.167C460.781 625.539 466.187 620.908 470.004 615.607C465.801 613.401 461.932 610.887 458.008 608.234C457.975 610.19 458.099 611.963 457.158 613.731C455.626 615.146 453.931 615.481 451.885 615.389C448.337 615.23 445.461 613.186 443.181 610.6C440.332 607.368 438.49 603.205 436.354 599.489C432.488 592.763 426.757 587.043 420.732 582.198C420.493 582.203 420.253 582.21 420.014 582.211C412.969 582.255 401.957 574.271 393.95 572.181C391.124 569.692 341.057 544.178 336.403 542.985L336.282 542.467C334.598 540.902 332.505 539.939 330.494 538.857C324.482 535.86 318.826 532.198 313.115 528.672ZM748.933 203.709C745.267 203.984 740.863 203.628 737.909 206.082L737.543 206.93C737.75 207.188 737.905 207.496 738.163 207.703C739.152 208.495 748.149 209.085 750.241 209.429C754.416 210.115 758.602 211.26 762.614 212.594C771.403 215.515 780.945 221.793 788.176 227.453C806.094 241.479 819.286 260.964 823.047 283.666C824.45 292.137 824.491 300.96 824.5 309.534C825.191 311.092 825.356 311.254 826.768 312.22C827.428 312.231 827.906 312.453 828.385 311.911C832.335 307.444 831.227 280.232 830.312 274.257C827.043 252.915 810.581 232.678 793.539 220.417C780.998 211.394 764.894 202.73 748.933 203.709ZM743.39 214.039C741.327 218.775 738.642 222.459 735.206 226.31C720.803 242.454 700.656 258.241 683.885 272.128C663.632 288.899 643.401 306.091 621.915 321.294C610.346 329.48 595.421 333.761 586.047 344.722C583.116 348.149 580.83 352.136 578.834 356.163C570.768 372.435 564.603 390.706 556.771 407.53C554.192 413.071 551.56 418.554 548.63 423.919C545.038 430.497 540.916 436.981 538.438 444.077C545.154 444.096 551.902 444.173 556.973 439.044C564.731 431.196 570.842 419.809 576.57 410.431C582.232 401.16 588.359 392.217 594.117 383.016C598.143 376.585 601.828 369.389 607 363.819C619.082 350.807 648.563 344.819 665.629 340.273C674.533 338.397 692.527 332.727 700.854 338.213C711.603 345.295 719.226 363.813 721.473 376.013C722.993 384.27 723.342 393.721 721.917 402.013C718.574 421.474 697.869 463.359 718.925 477.836C720.675 479.04 722.898 480.005 725.057 479.444C727.276 478.867 728.69 476.819 729.614 474.859C735.799 461.725 731.51 444.43 737.078 430.67C742.177 418.072 751.211 406.585 759.463 395.877C764.886 388.838 770.609 381.93 774.982 374.165C784.854 356.632 788.187 337.07 789.016 317.227C789.224 312.237 789.543 306.99 789.112 302.012C798.075 293.828 806.739 284.939 816.438 277.631C807.656 252.666 790.666 232.558 766.59 221.103C759.133 217.555 751.603 215 743.39 214.039ZM813.453 287.957C810.215 290.827 806.999 293.721 803.804 296.64C806.928 298.419 810.056 300.399 813.333 301.869C814.779 302.389 816.603 303.314 818.126 303.005C818.88 301.67 819.152 301.313 819.163 299.737C815.906 294.698 813.156 298.588 813.693 289.361L813.727 288.687L813.753 288.282L813.453 287.957ZM800.194 300.178L798.715 302.153C799.01 303.591 801.257 304.854 802.506 305.681C808.125 309.405 814.22 312.487 820.038 315.894C820.225 314.949 820.279 315.382 820.022 314.677C819.285 312.65 818.851 310.619 818.417 308.515C812.978 307.664 808.95 306.321 804.413 303.107C803.091 302.17 801.703 300.759 800.194 300.178ZM687.754 342.582L687.403 343.128C681.105 353.087 675.562 365.31 672.971 376.788C670.521 387.646 676.411 414.55 662.709 417.993C660.729 418.491 658.416 418.132 656.729 416.968C650.457 412.642 648.221 400.996 647.216 393.928L647.103 393.118C643.581 404.56 641.776 415.567 640.422 427.434C648.775 430.58 656.836 435.08 664.791 439.131C677.56 445.388 691.358 451.065 703.446 458.53C703.431 452.622 703.654 446.978 704.785 441.156C710.186 413.365 723.422 398.304 712.579 367.583C710.054 360.43 705.965 352.543 700.625 347.085C697.722 344.118 694.545 342.512 690.4 342.526C689.518 342.533 688.636 342.551 687.754 342.582ZM678.484 344.185C673.736 344.977 668.432 345.659 663.923 347.326C660.376 354.681 653.809 371.323 652.825 379.294C651.878 386.972 653.821 398.6 656.406 405.865C656.727 406.759 657.085 407.64 657.477 408.506C658.401 409.929 659.054 411.287 660.712 411.935C662.107 411.808 662.374 411.81 663.281 410.598C667.587 404.846 664.946 383.285 666.983 374.786C669.471 364.402 674.998 354.656 678.939 344.783L678.484 344.185ZM654.67 349.585C649.105 350.87 643.829 352.558 638.474 354.524C632.606 375.749 625.353 396.534 619.312 417.71C621.452 418.323 623.308 418.945 625.231 420.078C628.099 421.549 630.954 423.031 633.893 424.358C635.003 413.665 637.645 403.072 640.784 392.802C642.883 385.936 656.034 352.969 655.818 349.83C654.833 349.535 655.224 349.522 654.67 349.585ZM630.784 357.09C621.203 359.911 611.592 365.356 606.63 374.36C599.551 387.207 591.452 432.56 595.743 446.146C595.96 446.834 596.232 447.479 596.517 448.14C598.554 448.498 601.569 448.775 603.303 447.415C604.663 446.349 605.278 444.611 605.758 443.016C608.018 435.501 609.483 427.694 611.666 420.132C617.678 399.309 624.358 378.538 631.219 357.977C630.921 357.144 631.163 357.366 630.784 357.09ZM617.419 423.18C615.16 431.128 613.023 449.625 606.345 453.538C603.345 455.296 599.061 455.291 595.826 454.217C593.933 453.588 592.906 452.276 591.76 450.724L591.152 450.92C578.59 477.995 564.87 504.437 551.975 531.34C547.421 540.841 542.235 550.426 538.294 560.177C563.662 572.471 589.477 584.08 614.501 597.046L621.164 600.532C631.904 579.63 643.02 558.874 653.609 537.905C666.662 512.054 679.339 485.645 693.431 460.358C684.383 455.395 674.927 451.13 665.624 446.671C649.527 438.955 633.336 431.252 617.419 423.18ZM276.639 425.308L271.925 429.817C277.739 433.575 282.336 435.431 289.377 434.404C291.136 433.953 292.824 433.626 294.366 432.634L294.544 431.847C290.888 429.269 285.174 429.979 281.018 427.591C279.772 426.875 278 425.602 276.639 425.308ZM256.8 432.614C252.124 433.467 248.143 434.8 244.083 437.295C228.086 447.125 203.797 477.239 192.914 493.017C186.583 502.196 178.541 513.818 173.835 523.773C187.517 541.481 205.168 551.674 227.465 554.568C236.806 555.781 246.757 555.059 255.79 552.321C264.657 537.064 274.626 522.611 283.728 507.527C273.066 497.029 261.976 488.407 254.188 475.206C253.032 473.247 251.338 470.6 251.285 468.28C251.262 467.277 251.46 466.781 251.923 465.924C253.148 465.016 253.18 464.872 254.682 464.916C257.745 466.762 258.738 470.712 260.607 473.589C262.365 476.296 264.473 478.864 266.507 481.369C274.365 491.047 283.938 499.439 293.791 507.039C304.397 514.578 315 522.492 326.217 529.092C343.392 539.198 361.832 547.657 379.514 556.877C390.947 562.839 405.019 571.372 417.093 575.419C421.889 572.597 427.1 569.652 431.407 566.114C425.123 561.558 418.488 557.49 412.055 553.145L356.975 516.265C348.808 510.747 339.214 505.573 331.787 499.146C326.668 494.715 322.456 489.044 318.041 483.92C310.166 474.779 302.321 465.58 293.902 456.933C284.981 447.769 270.858 431.045 256.8 432.614ZM298.631 436.931C295.034 439.729 291.697 440.708 287.286 441.483C293.245 447.429 299.607 453.031 305.147 459.373C314.694 470.303 325.359 484.694 335.964 494.115C344.505 501.702 358.32 509.055 368.12 515.721C381.348 524.72 394.738 533.551 407.881 542.659C416.716 548.781 425.339 555.21 434.336 561.093C435.835 561.772 436.243 562.022 437.786 561.347C439.809 560.461 441.78 558.564 443.498 557.173C430.659 547.042 418.158 536.548 405.427 526.295C385.91 510.575 366.235 495.103 347.133 478.866C341.512 474.088 302.291 437.799 298.631 436.931ZM699.172 463.761C688.888 481.767 680.127 500.771 670.597 519.194C656.148 547.124 641.145 574.831 627.191 603.007C632.405 605.643 638.611 609.863 644.365 610.521C646.929 610.186 649.148 610.032 650.795 607.807C653.999 603.48 656.305 598.232 658.769 593.447C662.304 586.544 665.888 579.667 669.523 572.816L716.026 483.59C709.716 477.87 706.887 472.945 704.133 464.963L699.172 463.761ZM170.974 530.825C161.191 558.916 158.774 588.501 156.864 617.997C154.579 653.297 154.413 688.59 152.905 723.902C142.624 739.701 134.472 757.555 125.545 774.183C115.545 792.822 105.708 811.55 96.0368 830.362C92.1159 837.994 87.8029 845.458 84.2219 853.256C88.8702 857.157 94.8301 859.904 100.049 863.005C119.208 835.641 138.013 808.031 156.46 780.182C167.821 763.064 180.283 745.94 188.61 727.055C191.722 719.996 194.171 712.503 196.709 705.223C202.768 687.345 208.375 669.317 213.526 651.157C216.356 641.159 218.793 631 221.884 621.084C202.136 612.148 188.493 606.966 180.305 585.213C178.574 580.615 174.424 571.474 176.439 566.953C177.516 566.033 177.737 566.036 179.158 565.84C180.701 566.467 181.2 566.715 181.861 568.357C183.204 571.691 183.905 575.303 184.879 578.761C186.909 585.972 190.344 592.255 195.036 598.063C204.425 608.317 218.74 611.954 230.604 618.585C245.243 626.767 259.294 636.458 273.595 645.256C281.469 650.099 292.219 655.387 299.376 660.869C301.282 662.329 302.651 663.728 303.486 665.994L303.316 667.25C302.169 668.075 301.13 668.153 299.736 667.911C296.998 667.434 294.592 665.811 292.335 664.281L257.763 743.821C253.199 754.507 248.379 765.062 243.719 775.703C240.159 783.833 236.857 792.147 232.663 799.974C239.536 802.396 245.912 806.049 252.83 808.297L253.252 807.453C261.348 791.428 272.132 776.148 281.817 761.03C293.311 743.089 304.345 724.844 315.629 706.77C321.85 696.807 332.873 682.427 335.886 671.453C337.735 664.718 336.261 656.428 334.142 649.908C324.445 620.06 293.262 588.402 269.855 568.08C266.073 564.797 262.331 561.169 258.304 558.21C238.287 564.486 215.312 561.468 196.786 551.883C186.185 546.398 179.134 539.338 170.974 530.825ZM446.53 563.455L441.36 566.447C451.272 573.724 461.426 581.899 472.305 587.615C476.695 589.921 481.555 591.424 486.109 593.384C487.543 594 490.45 596.283 491.734 596.05C492.834 595.85 494.089 595.316 494.852 594.497L494.833 594.69L494.01 593.425C493.022 593.414 492.244 593.431 491.264 593.585C489.885 593.801 488.463 593.298 487.138 592.948C484.825 592.187 481.437 591.175 480.443 588.601C479.932 587.278 480.142 587.016 480.712 585.824C484.814 582.877 490.686 585.194 494.308 582.553L493.928 582.926L494.192 582.746C493.125 580.924 464.182 572.562 459.353 570.583C454.921 568.766 450.566 566.034 446.53 563.455ZM533.952 566.858C521.697 577.645 509.106 588.653 497.534 600.174C494.874 602.822 493.131 606.373 490.414 608.921C489.005 610.243 486.682 611.094 484.876 611.68C483.397 612.161 482.359 612.844 481.216 613.868C472.779 621.424 465.054 630.126 457.044 638.154C445.653 649.573 433.808 660.719 422.786 672.484C435.322 677.117 447.524 683.034 459.788 688.366C475.396 695.152 491.312 701.57 506.596 709.064C507.33 709.261 507.82 709.614 508.535 709.228C510.581 708.124 523.177 694.553 525.98 691.804L584.873 634.521C595 624.723 605.974 615.548 615.851 605.553C597.966 596.859 580.019 588.293 562.012 579.854C552.898 575.525 543.5 570.038 533.952 566.858ZM436.336 570.885C433.145 573.438 429.895 575.945 426.88 578.705C432.436 583.86 438.13 588.883 441.949 595.534C444.106 599.291 445.605 603.726 448.401 607.052C449.434 608.28 451.074 609.634 452.775 609.563C452.922 609.557 453.064 609.511 453.209 609.484L453.498 608.634C452.857 607.456 452.191 606.46 451.372 605.396C452.279 603.232 453.166 601.125 453.799 598.859C457.214 600.745 460.521 602.67 463.75 604.861L475.141 611.887C476.316 610.575 477.67 609.455 477.805 607.608C476.332 603.006 467.313 601.749 463.447 590.041C457.345 584.708 443.571 575.312 436.336 570.885ZM622.337 608.943C607.497 620.733 594.552 634.656 580.865 647.715L544.943 682.631C534.031 693.153 522.873 703.464 512.312 714.34C514.193 720.317 515.298 726.319 516.773 732.386C517.6 733.542 518.063 733.775 519.464 734.064C521.051 734.392 522.758 734.492 524.37 734.667C548.339 710.597 573.978 688.033 598.461 664.467C604.929 658.242 617.646 647.338 622.445 640.443C622.677 635.82 623.836 611.164 622.337 608.943ZM418.446 677.868L344.86 749.323C333.16 760.796 321.18 772.132 309.766 783.885C319.35 787.295 328.609 791.751 337.902 795.878C350.818 801.62 363.764 807.295 376.738 812.904C380.18 814.4 389.628 819.341 392.806 819.558C401.156 810.827 410.277 802.83 418.973 794.446C446.519 767.89 474.788 742.042 502.006 715.159L449.771 691.945C440.643 687.791 427.545 680.852 418.446 677.868ZM506.788 719.854L425.422 797.724C419.662 803.227 413.824 808.65 407.912 813.99C404.154 817.427 399.992 820.773 396.839 824.783C397.724 828.313 399.722 844.11 401.046 845.791L401.609 846.001C404.042 846.353 406.441 846.658 408.898 846.808C414.03 843.33 418.516 838.55 422.974 834.257L443.952 814.057L489.118 771.298C494.373 766.269 499.917 761.483 504.988 756.27C507.37 753.821 509.479 751.401 511.036 748.331C511.066 738.924 508.52 729.086 506.788 719.854ZM301.382 789.147C297.923 789.66 294.809 790.428 291.613 791.875C280.438 796.938 248.462 817.886 241.727 826.941C241.259 827.571 240.819 828.206 240.383 828.859C249.37 832.826 260.415 839.595 266.863 846.957C267.011 851.252 267.771 856.36 265.796 860.288C263.434 862.374 258.336 861.728 255.34 861.539C244.169 860.833 233.12 859.068 221.987 858.245C221.138 859.468 220.342 860.725 218.808 861.144C216.172 861.863 211.635 860.897 209.476 859.203C206.877 857.163 206.02 853.731 205.744 850.585C205.45 847.225 205.417 843.917 205.948 840.581C198.507 847.058 185.546 856.661 179.834 864.124C186.509 867.505 193.628 870.11 200.549 872.951L234.572 887C248.997 892.99 263.637 898.792 277.733 905.53C300.996 890.854 322.892 874.136 345.279 858.182C359.98 847.705 375.719 838.001 389.741 826.652C376.316 818.638 356.269 811.12 341.39 804.764C330.397 800.068 319.311 794.496 308.054 790.559C305.875 789.796 303.684 789.317 301.382 789.147ZM231.05 806.989L221.796 824.456C225.586 826.139 229.254 827.858 233.313 828.798C236.566 823.179 240.26 817.753 242.384 811.584C238.637 809.932 234.914 808.345 231.05 806.989ZM215.457 829.88C213.984 834.276 212.572 838.692 211.223 843.128C222.67 845.582 249.653 850.951 260.41 849.59C255.832 842.994 241.796 836.08 233.732 834.363C232.427 836.209 231.239 838.213 228.903 838.811C228.209 838.989 227.801 838.741 227.143 838.543C225.268 836.768 225.52 834.122 224.129 832.522C223.388 831.67 216.863 830.277 215.457 829.88ZM391.226 833.874C369.635 847.807 348.192 864.496 327.148 879.501C312.753 889.765 296.767 899.14 283.519 910.796C283.552 920.615 283.391 930.433 283.034 940.245L288.125 938.801C298.802 932.78 308.532 923.98 318.514 916.765C344.41 898.045 370.17 878.918 396.348 860.614C395.832 856.492 393.777 835.681 391.568 833.917L391.226 833.874ZM82.4964 860.771C78.6004 866.675 74.2193 872.622 70.9794 878.916C74.9895 881.196 78.9484 882.005 83.4091 882.987C86.4592 879.672 91.3481 870.931 93.0716 866.783C89.5664 864.785 86.0889 862.599 82.4964 860.771ZM178.501 870.752C178.453 880.414 178.552 889.866 179.655 899.482C190.764 906.223 210.041 912.968 222.793 918.247C238.362 924.693 253.837 931.937 269.629 937.743C271.522 938.439 274.578 939.88 276.584 939.438C276.614 930.259 276.559 921.097 277.1 911.931C257.657 903.335 238.06 895.089 218.32 887.198C205.029 881.784 191.606 876.604 178.501 870.752ZM66.1011 881.005C63.604 883.352 61.4191 885.805 59.589 888.717C67.5639 895.947 74.6463 904.112 82.6022 911.312C87.0283 911.505 104.908 912.745 107.901 911.048L107.708 909.946C102.888 906.38 97.7983 903.305 92.489 900.524C90.0015 901.93 87.6615 903.641 84.6535 902.968C83.9042 902.801 83.4003 902.409 82.8197 901.937C82.5319 900.672 82.4541 900.188 83.1498 898.972C84.0004 897.486 86.042 896.459 87.438 895.573C85.8925 893.124 84.3918 890.778 82.5012 888.575C79.3161 889.116 75.7698 890.22 72.8958 888.206C70.1902 886.311 68.6365 883.128 66.1011 881.005Z"/>
	<path fill="#9F8BE8" d="M885.021 0L1024 0L1024 57.7914C1018.3 62.4742 1013.01 68.1513 1007.69 73.2898C994.395 86.1243 981.446 99.3172 968.104 112.104C920.94 157.466 874.025 203.086 827.362 248.962C819.255 235.541 808.544 223.879 795.86 214.663C779.815 202.95 759.779 195.44 739.752 198.639C754.252 179.768 767.326 159.616 781.26 140.303C798.592 116.278 816.421 92.6035 834.009 68.7711C850.741 45.6467 867.746 22.7214 885.021 0Z"/>
	<path fill="#9F8BE8" d="M830.442 254.634C867.299 219.328 903.88 183.733 940.18 147.854C968.008 120.652 996.389 94.0149 1024 66.5802L1024 143.578L897.201 259.846C885.81 270.36 874.36 280.811 862.852 291.197C857.069 296.363 851.249 302.044 844.883 306.463C841.895 308.537 838.728 308.867 835.228 309.367C838.449 289.871 837.684 273.097 830.442 254.634Z"/>
	<path fill="#9F8BE8" d="M664.535 74.7968C666.278 86.1016 667.303 97.5311 668.607 108.894C670.857 128.253 673.205 147.6 675.652 166.935L683.934 227.849C685.448 238.43 687.523 249.01 688.624 259.638C685.954 263.638 678.439 268.738 674.547 271.959C655.081 288.07 634.541 305.293 613.617 319.399C601.032 327.882 589.58 330.251 579.721 343.196C573.496 351.368 570.093 360.913 566.139 370.285C560.829 382.871 555.85 395.43 549.78 407.687C545.836 415.653 531.742 438.32 533.074 446.217C533.313 447.638 533.882 448.679 535.07 449.535C538.212 451.798 547.42 450.537 551.066 449.563C554.266 448.719 557.229 447.151 559.726 444.979C571.863 434.551 583.757 409.33 592.948 395.554C591.289 405.954 589.6 416.359 588.68 426.857C588.266 431.585 589.591 437.82 588.253 442.28C585.788 450.495 580.173 459.817 576.342 467.643L549.596 522C545.649 530.138 541.752 538.3 537.907 546.487C535.723 551.093 533.726 556.478 530.695 560.596C528.062 564.174 523.794 567.255 520.456 570.222C514.109 575.866 507.713 581.434 501.747 587.488L498.257 587.403L498.123 587.121C499.421 585.51 501.165 584.555 501.841 582.521C501.584 580.615 500.933 579.636 499.369 578.507C494.269 574.823 487.167 573.309 481.253 571.464C473.147 568.935 463.995 566.215 456.482 562.217C452.271 559.976 452.617 555.945 449.302 553.169C433.343 539.805 416.595 527.162 400.396 514.053C394.687 509.433 387.313 504.622 382.615 499.085C396.741 493.329 410.66 487.105 424.854 481.469C400.512 461.975 376.539 442.22 352.605 422.232C343.356 414.507 328.213 403.588 320.861 394.729C361.895 399.878 402.828 406.649 443.826 412.223C428.975 392.236 415.095 371.509 400.828 351.104L374.775 313.189C368.336 303.785 361.708 294.458 355.722 284.758C364.465 289.563 372.924 294.97 381.627 299.876C401.453 311.016 421.413 321.918 441.503 332.577C452.007 338.221 462.431 344.293 473.244 349.322C459.737 314.513 447.146 279.369 433.281 244.692C429.343 234.853 425.27 225.067 421.065 215.339C417.488 207.199 413.336 199.096 410.792 190.558L515.469 295.056C513.587 286.778 512.579 278.246 511.392 269.847L504.931 221.326C500.379 188.656 494.476 156.224 488.885 123.723C500.247 141.854 510.031 161.118 520.772 179.623L545.057 221.85C554.126 237.341 563.494 252.794 571.977 268.612C573.087 248.701 572.957 228.795 573.396 208.865C574.598 168.13 575.22 127.379 575.26 86.6262C578.442 94.5108 580.871 102.815 583.535 110.89C589.462 128.764 595.073 146.741 600.365 164.813C605.058 180.34 610.586 195.637 615.462 211.116C620.706 227.766 625.524 245.252 632.669 261.184C635.231 242.999 638.96 224.876 642.02 206.758L664.535 74.7968Z"/>
	<path fill="#9F8BE8" d="M824.5 309.534C824.491 300.96 824.45 292.137 823.047 283.666C819.286 260.964 806.094 241.479 788.176 227.453C780.945 221.793 771.403 215.515 762.614 212.594C758.602 211.26 754.416 210.115 750.241 209.429C748.149 209.085 739.152 208.495 738.163 207.703C737.905 207.496 737.75 207.188 737.543 206.93L737.909 206.082C740.863 203.628 745.267 203.984 748.933 203.709C764.894 202.73 780.998 211.394 793.539 220.417C810.581 232.678 827.043 252.915 830.312 274.257C831.227 280.232 832.335 307.444 828.385 311.911C827.906 312.453 827.428 312.231 826.768 312.22C825.356 311.254 825.191 311.092 824.5 309.534Z"/>
	<path fill="#9F8BE8" d="M700.653 249.728C700.922 246.867 725.388 213.84 729.424 208.166C731.163 211.446 732.968 212.882 736.108 214.804C730.024 224.966 710.703 243.036 700.653 249.728Z"/>
	<path fill="#64599A" d="M538.438 444.077C540.916 436.981 545.038 430.497 548.63 423.919C551.56 418.554 554.192 413.071 556.771 407.53C564.603 390.706 570.768 372.435 578.834 356.163C580.83 352.136 583.116 348.149 586.047 344.722C595.421 333.761 610.346 329.48 621.915 321.294C643.401 306.091 663.632 288.899 683.885 272.128C700.656 258.241 720.803 242.454 735.206 226.31C738.642 222.459 741.327 218.775 743.39 214.039C751.603 215 759.133 217.555 766.59 221.103C790.666 232.558 807.656 252.666 816.438 277.631C806.739 284.939 798.075 293.828 789.112 302.012C789.543 306.99 789.224 312.237 789.016 317.227C788.187 337.07 784.854 356.632 774.982 374.165C770.609 381.93 764.886 388.838 759.463 395.877C751.211 406.585 742.177 418.072 737.078 430.67C731.51 444.43 735.799 461.725 729.614 474.859C728.69 476.819 727.276 478.867 725.057 479.444C722.898 480.005 720.675 479.04 718.925 477.836C697.869 463.359 718.574 421.474 721.917 402.013C723.342 393.721 722.993 384.27 721.473 376.013C719.226 363.813 711.603 345.295 700.854 338.213C692.527 332.727 674.533 338.397 665.629 340.273C648.563 344.819 619.082 350.807 607 363.819C601.828 369.389 598.143 376.585 594.117 383.016C588.359 392.217 582.232 401.16 576.57 410.431C570.842 419.809 564.731 431.196 556.973 439.044C551.902 444.173 545.154 444.096 538.438 444.077Z"/>
	<path fill="#64599A" d="M859.412 302.816C860.778 301.07 863.097 299.706 864.774 298.163C874.161 289.45 883.608 280.801 893.113 272.217C897.816 267.951 903.208 261.952 908.777 258.954C902.619 270.894 893.03 284.382 885.662 295.881L841.564 365.486L823.981 392.813C821.043 397.372 817.775 401.909 815.174 406.66C848.588 403.73 882.03 401.133 915.495 398.868C931.76 397.688 948.587 395.164 964.89 395.467L862.96 473.142C852.189 481.34 841.19 489.232 830.498 497.534L918.157 526.942C937.571 533.284 957.608 538.841 976.553 546.436C925.747 559.173 875.098 572.528 824.617 586.499C853.84 609.557 882.909 632.809 911.824 656.251L941.251 679.455C946.705 683.736 952.402 687.875 957.567 692.502C918.497 685.064 878.826 680.06 839.461 674.393C824.861 672.291 807.586 670.764 793.401 667.779C802.164 681.353 811.639 694.314 820.832 707.582C846.748 744.985 873.311 781.853 899.745 818.889C864.52 798.835 828.383 780.329 792.502 761.486C775.649 752.636 758.312 744.099 741.946 734.38L781.902 842.6C790.643 866.342 799.126 890.499 809.605 913.537C804.164 909.086 799.513 903.496 794.472 898.573L755.937 860.613L704.071 810.143C696.774 803.035 689.074 796.362 682.106 788.918C685.433 821.348 688.494 853.806 691.292 886.287C693.652 915.195 695.74 944.151 699.272 972.951C695.295 967.253 692.127 960.934 688.758 954.865C682.24 943.076 675.798 931.245 669.435 919.372C650.234 884.198 630.814 849.144 611.175 814.212L589.486 930.071C585.796 949.422 582.375 968.74 578.021 987.964C574.888 968.721 569.506 949.28 564.82 930.351C560.737 913.861 557.318 897.187 553.151 880.733L541.749 834.511C539.658 825.975 537.27 817.469 535.539 808.852C518.981 845.272 500.604 881.216 482.458 916.882C474.774 931.986 468.182 948.003 459.474 962.536C459.489 924.486 460.209 886.439 461.633 848.415C461.966 839.311 462.348 830.208 462.778 821.108C462.989 816.091 463.713 810.055 462.867 805.128C468.925 799.027 475.296 793.26 481.635 787.454C481.648 800.242 480.363 813.204 479.677 825.98C478.488 847.563 477.718 869.166 477.367 890.778C498.668 846.743 520.515 803.107 540.92 758.635C545.517 772.576 548.595 787.555 551.885 801.869C556.544 821.558 561.06 841.282 565.43 861.038C569.14 877.994 572.399 895.265 577.12 911.965C583.733 875.106 590.654 838.26 596.832 801.328C598.999 788.368 601.766 775.451 603.385 762.413L635.883 822.24C640.235 830.251 644.941 838.067 649.239 846.109C658.147 862.779 666.208 880.431 676.542 896.258C675.994 879.415 673.153 862.267 671.393 845.491C669.172 823.577 667.166 801.642 665.377 779.688C664.218 766.652 662.649 753.631 661.847 740.566C671.095 747.775 681.831 760.742 690.456 769.48C716.092 795.454 741.177 821.987 767.108 847.66C761.808 831.079 755.072 814.927 748.892 798.657C735.875 764.387 722.408 730.147 710.174 695.598C715.334 699.018 720.91 701.79 726.293 704.841C739.745 712.465 753.416 719.753 766.811 727.454L815.763 755.38C823.576 759.883 836.536 768.203 844.428 771.257C837.193 761.575 830.406 751.509 823.339 741.698C799.512 708.147 775.186 674.953 750.371 642.126C763.987 644.026 777.44 646.622 790.967 649.016L836.018 656.854C857.288 660.755 878.505 664.99 899.875 668.327C878.74 651.174 856.455 635.266 834.8 618.768C817.363 605.484 800.48 591.523 783.267 577.955L916.522 545.508C905.195 542.279 894.381 537.414 883.243 533.61C867.446 528.216 851.434 523.521 835.552 518.406C819.481 513.229 803.288 507.469 786.952 503.251C797.633 495.154 809.394 488.185 820.439 480.559C835.631 470.072 850.498 459.155 865.519 448.432C879.88 438.18 894.386 428.225 908.268 417.312C881.711 421.083 854.587 423.056 827.854 425.334C810.446 426.817 792.941 428.961 775.485 429.604C780.334 422.896 784.589 415.553 789.228 408.667L836.88 336.571C838.951 333.442 859.143 304.003 859.412 302.816Z"/>
	<path fill="#64599A" d="M803.804 296.64C806.999 293.721 810.215 290.827 813.453 287.957L813.753 288.282L813.727 288.687L813.693 289.361C813.156 298.588 815.906 294.698 819.163 299.737C819.152 301.313 818.88 301.67 818.126 303.005C816.603 303.314 814.779 302.389 813.333 301.869C810.056 300.399 806.928 298.419 803.804 296.64Z"/>
	<path fill="#9F8BE8" d="M820.038 315.894C814.22 312.487 808.125 309.405 802.506 305.681C801.257 304.854 799.01 303.591 798.715 302.153L800.194 300.178C801.703 300.759 803.091 302.17 804.413 303.107C808.95 306.321 812.978 307.664 818.417 308.515C818.851 310.619 819.285 312.65 820.022 314.677C820.279 315.382 820.225 314.949 820.038 315.894Z"/>
	<path fill="#9F8BE8" d="M859.412 302.816C859.143 304.003 838.951 333.442 836.88 336.571L789.228 408.667C784.589 415.553 780.334 422.896 775.485 429.604C792.941 428.961 810.446 426.817 827.854 425.334C854.587 423.056 881.711 421.083 908.268 417.312C894.386 428.225 879.88 438.18 865.519 448.432C850.498 459.155 835.631 470.072 820.439 480.559C809.394 488.185 797.633 495.154 786.952 503.251C803.288 507.469 819.481 513.229 835.552 518.406C851.434 523.521 867.446 528.216 883.243 533.61C894.381 537.414 905.195 542.279 916.522 545.508L783.267 577.955C800.48 591.523 817.363 605.484 834.8 618.768C856.455 635.266 878.74 651.174 899.875 668.327C878.505 664.99 857.288 660.755 836.018 656.854L790.967 649.016C777.44 646.622 763.987 644.026 750.371 642.126C775.186 674.953 799.512 708.147 823.339 741.698C830.406 751.509 837.193 761.575 844.428 771.257C836.536 768.203 823.576 759.883 815.763 755.38L766.811 727.454C753.416 719.753 739.745 712.465 726.293 704.841C720.91 701.79 715.334 699.018 710.174 695.598C722.408 730.147 735.875 764.387 748.892 798.657C755.072 814.927 761.808 831.079 767.108 847.66C741.177 821.987 716.092 795.454 690.456 769.48C681.831 760.742 671.095 747.775 661.847 740.566C662.649 753.631 664.218 766.652 665.377 779.688C667.166 801.642 669.172 823.577 671.393 845.491C673.153 862.267 675.994 879.415 676.542 896.258C666.208 880.431 658.147 862.779 649.239 846.109C644.941 838.067 640.235 830.251 635.883 822.24L603.385 762.413C601.766 775.451 598.999 788.368 596.832 801.328C590.654 838.26 583.733 875.106 577.12 911.965C572.399 895.265 569.14 877.994 565.43 861.038C561.06 841.282 556.544 821.558 551.885 801.869C548.595 787.555 545.517 772.576 540.92 758.635C520.515 803.107 498.668 846.743 477.367 890.778C477.718 869.166 478.488 847.563 479.677 825.98C480.363 813.204 481.648 800.242 481.635 787.454C489.559 777.67 510.658 763.656 515.571 752.955C517.25 749.296 517.455 745.479 517.683 741.535C519.112 740.598 521.093 740.874 522.773 740.864C524.849 740.852 527.005 740.594 528.735 739.329C532.644 736.471 536.213 732.184 539.766 728.833C549.012 720.151 558.2 711.408 567.331 702.605C585.517 685.138 604.632 668.474 622.401 650.6C624.045 648.946 626.081 647.082 627.099 644.971C630.64 637.634 629.19 619.671 629.171 611.292C635.345 614.758 641.674 618.781 649.034 616.593C652.617 615.528 654.932 612.761 657.001 609.789C663.055 601.091 669.186 587.399 674.268 577.725C685.638 556.181 696.78 534.518 707.694 512.74C712.291 503.735 716.533 494.47 721.409 485.622C724.127 485.376 727.016 485.119 729.42 483.735C743.727 475.498 737.663 445.004 743.924 430.678C747.129 423.344 752.045 416.623 756.63 410.093C767.308 394.888 779.883 381.346 786.616 363.718C789.154 357.074 790.742 350.033 792.529 343.152C799.459 336.769 813.578 331.223 819.119 324.575C819.353 324.459 819.589 324.347 819.82 324.227C822.188 322.992 824.693 324.68 827.256 323.826C829.503 323.076 830.521 321.232 831.396 319.186C831.922 317.955 832.346 317.023 833.176 315.979C844.021 315.214 851.57 309.93 859.412 302.816Z"/>
	<path fill="#64599A" d="M795.506 307.349C798.421 309.546 801.378 311.635 804.489 313.546C808.247 315.855 817.68 319.799 820.005 322.863L819.119 324.575C813.578 331.223 799.459 336.769 792.529 343.152C794.458 331.04 795.553 319.625 795.506 307.349Z"/>
	<path fill="#9F8BE8" d="M647.103 393.118L647.216 393.928C648.221 400.996 650.457 412.642 656.729 416.968C658.416 418.132 660.729 418.491 662.709 417.993C676.411 414.55 670.521 387.646 672.971 376.788C675.562 365.31 681.105 353.087 687.403 343.128L687.754 342.582C688.636 342.551 689.518 342.533 690.4 342.526C694.545 342.512 697.722 344.118 700.625 347.085C705.965 352.543 710.054 360.43 712.579 367.583C723.422 398.304 710.186 413.365 704.785 441.156C703.654 446.978 703.431 452.622 703.446 458.53C691.358 451.065 677.56 445.388 664.791 439.131C656.836 435.08 648.775 430.58 640.422 427.434C641.776 415.567 643.581 404.56 647.103 393.118Z"/>
	<path fill="#64599A" d="M663.923 347.326C668.432 345.659 673.736 344.977 678.484 344.185L678.939 344.783C674.998 354.656 669.471 364.402 666.983 374.786C664.946 383.285 667.587 404.846 663.281 410.598C662.374 411.81 662.107 411.808 660.712 411.935C659.054 411.287 658.401 409.929 657.477 408.506C657.085 407.64 656.727 406.759 656.406 405.865C653.821 398.6 651.878 386.972 652.825 379.294C653.809 371.323 660.376 354.681 663.923 347.326Z"/>
	<path fill="#64599A" d="M638.474 354.524C643.829 352.558 649.105 350.87 654.67 349.585C655.224 349.522 654.833 349.535 655.818 349.83C656.034 352.969 642.883 385.936 640.784 392.802C637.645 403.072 635.003 413.665 633.893 424.358C630.954 423.031 628.099 421.549 625.231 420.078C623.308 418.945 621.452 418.323 619.312 417.71C625.353 396.534 632.606 375.749 638.474 354.524Z"/>
	<path fill="#64599A" d="M596.517 448.14C596.232 447.479 595.96 446.834 595.743 446.146C591.452 432.56 599.551 387.207 606.63 374.36C611.592 365.356 621.203 359.911 630.784 357.09C631.163 357.366 630.921 357.144 631.219 357.977C624.358 378.538 617.678 399.309 611.666 420.132C609.483 427.694 608.018 435.501 605.758 443.016C605.278 444.611 604.663 446.349 603.303 447.415C601.569 448.775 598.554 448.498 596.517 448.14Z"/>
	<path fill="#64599A" d="M278.609 410.87C276.621 409.825 274.228 408.726 273.169 406.617C269.951 400.202 283.902 394.182 286.823 389.769C288.27 387.583 288.331 384.408 289.229 381.95C289.773 380.46 290.795 379.156 292.305 378.569C294.235 377.818 297.37 379.807 299.098 380.647C298.506 383.633 298.776 386.646 298.2 389.566C300.46 390.142 303.681 390.29 305.979 389.966C308.333 389.635 309.16 388.897 310.513 387.05L310.636 386.577L311.35 386.167C312.441 390.815 313.296 395.71 313.442 400.487C313.562 404.41 313.387 409.369 310.587 412.383L308.738 410.503C306.134 410.196 299.417 412.797 296.96 413.985L297.159 414.854C300.438 417.613 305.011 413.744 308.261 415.3C308.102 415.802 308.083 415.963 307.743 416.456C304.757 420.781 297.814 424.273 292.657 424.686C288.933 424.984 284.722 424.09 281.939 421.456C278.682 418.372 278.77 415.038 278.609 410.87ZM303.974 393.178C303.9 394.607 303.694 396.158 304.684 397.341C305.746 398.61 307.595 399.071 309.097 399.584C309.471 398.182 309.81 397.065 309.089 395.669C308.493 394.516 307.238 393.735 306.002 393.424C305.344 393.258 304.646 393.228 303.974 393.178ZM289.526 395.238C290.251 397.507 290.782 400.098 292.356 401.928C293.352 402.245 293.605 402.188 294.644 401.987C294.938 400.164 295.152 398.17 293.824 396.659C292.663 395.337 291.135 395.239 289.526 395.238ZM284.475 397.686C283.372 400.016 282.498 401.87 283.283 404.452C284.128 405.218 284.512 405.63 285.753 405.584C286.175 405.569 286.855 405.359 287.275 405.243L287.224 403.796L286.831 403.737C285.778 401.316 287.589 399.004 284.475 397.686ZM298.767 399.311C297.809 401.935 298.03 404.042 298.595 406.724L299.207 407.145C300.68 405.467 300.643 403.194 302.299 401.761L302.731 402.605C304.327 403.437 305.408 404.137 307.242 403.904L308.249 403.257C308.011 402.051 307.509 401.584 306.423 400.972C304.301 399.776 301.173 399.582 298.767 399.311Z"/>
	<path fill="#64599A" d="M299.098 380.647C303.766 383.127 309.187 380.141 311.094 382.559C311.211 383.754 311.399 384.967 311.35 386.167L310.636 386.577L310.513 387.05C309.935 386.351 309.887 385.933 308.942 385.817C306.02 385.457 302.034 387.036 299.301 388.002L298.2 389.566C298.776 386.646 298.506 383.633 299.098 380.647Z"/>
	<path d="M298.2 389.566L299.301 388.002C302.034 387.036 306.02 385.457 308.942 385.817C309.887 385.933 309.935 386.351 310.513 387.05C309.16 388.897 308.333 389.635 305.979 389.966C303.681 390.29 300.46 390.142 298.2 389.566Z"/>
	<path d="M309.097 399.584C307.595 399.071 305.746 398.61 304.684 397.341C303.694 396.158 303.9 394.607 303.974 393.178C304.646 393.228 305.344 393.258 306.002 393.424C307.238 393.735 308.493 394.516 309.089 395.669C309.81 397.065 309.471 398.182 309.097 399.584Z"/>
	<path d="M294.644 401.987C293.605 402.188 293.352 402.245 292.356 401.928C290.782 400.098 290.251 397.507 289.526 395.238C291.135 395.239 292.663 395.337 293.824 396.659C295.152 398.17 294.938 400.164 294.644 401.987Z"/>
	<path d="M287.275 405.243C286.855 405.359 286.175 405.569 285.753 405.584C284.512 405.63 284.128 405.218 283.283 404.452C282.498 401.87 283.372 400.016 284.475 397.686C287.589 399.004 285.778 401.316 286.831 403.737L287.224 403.796L287.275 405.243Z"/>
	<path d="M302.731 402.605L302.299 401.761C300.643 403.194 300.68 405.467 299.207 407.145L298.595 406.724C298.03 404.042 297.809 401.935 298.767 399.311C301.173 399.582 304.301 399.776 306.423 400.972C307.509 401.584 308.011 402.051 308.249 403.257L307.242 403.904C305.408 404.137 304.327 403.437 302.731 402.605Z"/>
	<path fill="#9F8BE8" d="M300.413 427.659C304.697 425.632 310.261 422.904 313.459 419.318C315.026 417.562 316.001 414.157 317.975 413.038L319.514 413.837C322.323 417.924 333.436 426.06 337.782 429.891L391.605 477.326C383.558 480.101 374.68 482.429 366.971 485.974C361.091 485.583 307.962 435.167 300.413 427.659Z"/>
	<path fill="#FDFDFC" d="M538.294 560.177C542.235 550.426 547.421 540.841 551.975 531.34C564.87 504.437 578.59 477.995 591.152 450.92L591.76 450.724C592.906 452.276 593.933 453.588 595.826 454.217C599.061 455.291 603.345 455.296 606.345 453.538C613.023 449.625 615.16 431.128 617.419 423.18C633.336 431.252 649.527 438.955 665.624 446.671C674.927 451.13 684.383 455.395 693.431 460.358C679.339 485.645 666.662 512.054 653.609 537.905C643.02 558.874 631.904 579.63 621.164 600.532L614.501 597.046C589.477 584.08 563.662 572.471 538.294 560.177ZM654.325 465.05C649.487 466.584 645.781 468.836 643.319 473.477C641.751 476.434 641.06 479.892 642.078 483.148C642.845 485.604 644.593 487.534 646.921 488.615C649.508 489.815 652.283 489.911 655.067 489.538C660.069 487.878 664.11 485.349 666.442 480.381C667.826 477.43 668.297 473.652 667.019 470.581C666.1 468.374 664.354 466.727 662.129 465.865C659.573 464.875 657.013 464.812 654.325 465.05ZM602.373 489.546C597.091 491.015 593.226 493.613 590.499 498.484C588.439 502.164 587.489 506.813 588.733 510.923C589.532 513.563 591.262 515.633 593.712 516.906C595.705 517.942 598.014 518.305 600.233 518.421C605.423 516.712 609.385 514.194 612.045 509.204C614.002 505.532 614.645 500.981 613.304 496.99C612.311 494.034 610.235 491.974 607.405 490.718C605.875 490.039 604.048 489.584 602.373 489.546ZM606.815 545.532C601.955 547.209 598.703 549.518 596.34 554.217C594.242 558.391 593.583 563.503 595.267 567.939C596.252 570.534 598.043 572.642 600.592 573.791C603.137 574.94 605.912 575.048 608.611 574.442C613.395 572.658 616.873 569.7 619.12 565.045C620.882 561.396 621.387 557.136 620.061 553.263C619.043 550.291 616.983 547.917 614.127 546.591C611.747 545.487 609.389 545.361 606.815 545.532Z"/>
	<path fill="#64599A" d="M271.925 429.817L276.639 425.308C278 425.602 279.772 426.875 281.018 427.591C285.174 429.979 290.888 429.269 294.544 431.847L294.366 432.634C292.824 433.626 291.136 433.953 289.377 434.404C282.336 435.431 277.739 433.575 271.925 429.817Z"/>
	<path fill="#FDFDFC" d="M173.835 523.773C178.541 513.818 186.583 502.196 192.914 493.017C203.797 477.239 228.086 447.125 244.083 437.295C248.143 434.8 252.124 433.467 256.8 432.614C270.858 431.045 284.981 447.769 293.902 456.933C302.321 465.58 310.166 474.779 318.041 483.92C322.456 489.044 326.668 494.715 331.787 499.146C339.214 505.573 348.808 510.747 356.975 516.265L412.055 553.145C418.488 557.49 425.123 561.558 431.407 566.114C427.1 569.652 421.889 572.597 417.093 575.419C405.019 571.372 390.947 562.839 379.514 556.877C361.832 547.657 343.392 539.198 326.217 529.092C315 522.492 304.397 514.578 293.791 507.039C283.938 499.439 274.365 491.047 266.507 481.369C264.473 478.864 262.365 476.296 260.607 473.589C258.738 470.712 257.745 466.762 254.682 464.916C253.18 464.872 253.148 465.016 251.923 465.924C251.46 466.781 251.262 467.277 251.285 468.28C251.338 470.6 253.032 473.247 254.188 475.206C261.976 488.407 273.066 497.029 283.728 507.527C274.626 522.611 264.657 537.064 255.79 552.321C246.757 555.059 236.806 555.781 227.465 554.568C205.168 551.674 187.517 541.481 173.835 523.773Z"/>
	<path fill="#FDFDFC" d="M287.286 441.483C291.697 440.708 295.034 439.729 298.631 436.931C302.291 437.799 341.512 474.088 347.133 478.866C366.235 495.103 385.91 510.575 405.427 526.295C418.158 536.548 430.659 547.042 443.498 557.173C441.78 558.564 439.809 560.461 437.786 561.347C436.243 562.022 435.835 561.772 434.336 561.093C425.339 555.21 416.716 548.781 407.881 542.659C394.738 533.551 381.348 524.72 368.12 515.721C358.32 509.055 344.505 501.702 335.964 494.115C325.359 484.694 314.694 470.303 305.147 459.373C299.607 453.031 293.245 447.429 287.286 441.483Z"/>
	<path fill="#9F8BE8" d="M627.191 603.007C641.145 574.831 656.148 547.124 670.597 519.194C680.127 500.771 688.888 481.767 699.172 463.761L704.133 464.963C706.887 472.945 709.716 477.87 716.026 483.59L669.523 572.816C665.888 579.667 662.304 586.544 658.769 593.447C656.305 598.232 653.999 603.48 650.795 607.807C649.148 610.032 646.929 610.186 644.365 610.521C638.611 609.863 632.405 605.643 627.191 603.007Z"/>
	<path d="M655.067 489.538C652.283 489.911 649.508 489.815 646.921 488.615C644.593 487.534 642.845 485.604 642.078 483.148C641.06 479.892 641.751 476.434 643.319 473.477C645.781 468.836 649.487 466.584 654.325 465.05C657.013 464.812 659.573 464.875 662.129 465.865C664.354 466.727 666.1 468.374 667.019 470.581C668.297 473.652 667.826 477.43 666.442 480.381C664.11 485.349 660.069 487.878 655.067 489.538Z"/>
	<path d="M600.233 518.421C598.014 518.305 595.705 517.942 593.712 516.906C591.262 515.633 589.532 513.563 588.733 510.923C587.489 506.813 588.439 502.164 590.499 498.484C593.226 493.613 597.091 491.015 602.373 489.546C604.048 489.584 605.875 490.039 607.405 490.718C610.235 491.974 612.311 494.034 613.304 496.99C614.645 500.981 614.002 505.532 612.045 509.204C609.385 514.194 605.423 516.712 600.233 518.421Z"/>
	<path fill="#9F8BE8" d="M289.306 512.084C297.178 517.705 305.115 523.235 313.115 528.672C301.223 535.447 287.001 541.379 277.07 550.937L337.777 562.076C356.414 565.62 375.165 569.536 393.95 572.181C401.957 574.271 412.969 582.255 420.014 582.211C420.253 582.21 420.493 582.203 420.732 582.198C426.757 587.043 432.488 592.763 436.354 599.489C438.49 603.205 440.332 607.368 443.181 610.6C445.461 613.186 448.337 615.23 451.885 615.389C453.931 615.481 455.626 615.146 457.158 613.731C458.099 611.963 457.975 610.19 458.008 608.234C461.932 610.887 465.801 613.401 470.004 615.607C466.187 620.908 460.781 625.539 456.176 630.167L430.561 656.069C417.696 669.353 404.646 682.459 391.416 695.381C361.83 724.228 331.692 752.499 303.049 782.307C288.265 784.961 277.133 792.731 264.638 800.541C268.866 793.423 273.504 786.563 277.869 779.53L319.86 712.391C326.609 701.515 335.23 690.516 340.2 678.737C342.64 672.954 343.392 666.9 342.904 660.664C339.899 622.238 290.411 577.25 262.741 553.366C265.985 546.318 270.793 539.749 275.049 533.266C279.722 526.147 284.236 518.932 289.306 512.084Z"/>
	<path fill="#64599A" d="M313.115 528.672C318.826 532.198 324.482 535.86 330.494 538.857C327.845 541.335 324.986 543.319 321.99 545.351C326.802 544.605 331.606 543.817 336.403 542.985C341.057 544.178 391.124 569.692 393.95 572.181C375.165 569.536 356.414 565.62 337.777 562.076L277.07 550.937C287.001 541.379 301.223 535.447 313.115 528.672Z"/>
	<path fill="#FDFDFC" d="M152.905 723.902C154.413 688.59 154.579 653.297 156.864 617.997C158.774 588.501 161.191 558.916 170.974 530.825C179.134 539.338 186.185 546.398 196.786 551.883C215.312 561.468 238.287 564.486 258.304 558.21C262.331 561.169 266.073 564.797 269.855 568.08C293.262 588.402 324.445 620.06 334.142 649.908C336.261 656.428 337.735 664.718 335.886 671.453C332.873 682.427 321.85 696.807 315.629 706.77C304.345 724.844 293.311 743.089 281.817 761.03C272.132 776.148 261.348 791.428 253.252 807.453L252.83 808.297C245.912 806.049 239.536 802.396 232.663 799.974C236.857 792.147 240.159 783.833 243.719 775.703C248.379 765.062 253.199 754.507 257.763 743.821L292.335 664.281C294.592 665.811 296.998 667.434 299.736 667.911C301.13 668.153 302.169 668.075 303.316 667.25L303.486 665.994C302.651 663.728 301.282 662.329 299.376 660.869C292.219 655.387 281.469 650.099 273.595 645.256C259.294 636.458 245.243 626.767 230.604 618.585C218.74 611.954 204.425 608.317 195.036 598.063C190.344 592.255 186.909 585.972 184.879 578.761C183.905 575.303 183.204 571.691 181.861 568.357C181.2 566.715 180.701 566.467 179.158 565.84C177.737 566.036 177.516 566.033 176.439 566.953C174.424 571.474 178.574 580.615 180.305 585.213C188.493 606.966 202.136 612.148 221.884 621.084C218.793 631 216.356 641.159 213.526 651.157C208.375 669.317 202.768 687.345 196.709 705.223C194.171 712.503 191.722 719.996 188.61 727.055C180.283 745.94 167.821 763.064 156.46 780.182C138.013 808.031 119.208 835.641 100.049 863.005C94.8301 859.904 88.8702 857.157 84.2219 853.256C87.8029 845.458 92.1159 837.994 96.0368 830.362C105.708 811.55 115.545 792.822 125.545 774.183C134.472 757.555 142.624 739.701 152.905 723.902Z"/>
	<path fill="#9F8BE8" d="M321.99 545.351C324.986 543.319 327.845 541.335 330.494 538.857C332.505 539.939 334.598 540.902 336.282 542.467L336.403 542.985C331.606 543.817 326.802 544.605 321.99 545.351Z"/>
	<path d="M608.611 574.442C605.912 575.048 603.137 574.94 600.592 573.791C598.043 572.642 596.252 570.534 595.267 567.939C593.583 563.503 594.242 558.391 596.34 554.217C598.703 549.518 601.955 547.209 606.815 545.532C609.389 545.361 611.747 545.487 614.127 546.591C616.983 547.917 619.043 550.291 620.061 553.263C621.387 557.136 620.882 561.396 619.12 565.045C616.873 569.7 613.395 572.658 608.611 574.442Z"/>
	<path fill="#64599A" d="M441.36 566.447L446.53 563.455C450.566 566.034 454.921 568.766 459.353 570.583C464.182 572.562 493.125 580.924 494.192 582.746L493.928 582.926L494.308 582.553C490.686 585.194 484.814 582.877 480.712 585.824C480.142 587.016 479.932 587.278 480.443 588.601C481.437 591.175 484.825 592.187 487.138 592.948C488.463 593.298 489.885 593.801 491.264 593.585C492.244 593.431 493.022 593.414 494.01 593.425L494.833 594.69L494.852 594.497C494.089 595.316 492.834 595.85 491.734 596.05C490.45 596.283 487.543 594 486.109 593.384C481.555 591.424 476.695 589.921 472.305 587.615C461.426 581.899 451.272 573.724 441.36 566.447Z"/>
	<path fill="#FDFDFC" d="M422.786 672.484C433.808 660.719 445.653 649.573 457.044 638.154C465.054 630.126 472.779 621.424 481.216 613.868C482.359 612.844 483.397 612.161 484.876 611.68C486.682 611.094 489.005 610.243 490.414 608.921C493.131 606.373 494.874 602.822 497.534 600.174C509.106 588.653 521.697 577.645 533.952 566.858C543.5 570.038 552.898 575.525 562.012 579.854C580.019 588.293 597.966 596.859 615.851 605.553C605.974 615.548 595 624.723 584.873 634.521L525.98 691.804C523.177 694.553 510.581 708.124 508.535 709.228C507.82 709.614 507.33 709.261 506.596 709.064C491.312 701.57 475.396 695.152 459.788 688.366C447.524 683.034 435.322 677.117 422.786 672.484ZM544.13 592.088C537.474 593.543 531.019 596.26 527.272 602.326C525.883 604.575 524.779 607.604 525.404 610.274C525.765 611.817 526.646 612.818 527.962 613.645C530.617 615.312 534.487 615.375 537.485 614.918C544.146 613.467 550.305 610.561 554.05 604.537C555.463 602.264 556.507 599.239 555.836 596.552C555.461 595.051 554.603 594.016 553.283 593.245C551.256 592.062 546.39 591.596 544.13 592.088ZM472.129 644.14C465.535 645.208 459.085 648.235 455.046 653.759C453.338 656.094 451.992 659.305 452.625 662.247C452.981 663.901 454.046 665.222 455.497 666.064C458.444 667.775 461.807 667.932 465.111 667.717C471.767 665.802 478.543 661.966 482.099 655.776C483.203 653.855 484.283 650.952 483.581 648.717C483.083 647.128 482.068 646.103 480.585 645.415C478.078 644.252 474.86 643.993 472.129 644.14ZM509.949 662.561C503.945 664.153 498.129 667.171 494.993 672.813C493.707 675.128 493.062 677.934 493.871 680.52C494.392 682.183 495.497 683.516 497.043 684.325C499.945 685.845 504.472 685.731 507.585 684.983C513.671 683.063 519.67 679.676 522.85 673.881C523.907 671.954 524.543 669.554 523.919 667.384C523.391 665.552 522.025 664.285 520.327 663.516C517.158 662.081 513.341 662.325 509.949 662.561Z"/>
	<path fill="#64599A" d="M426.88 578.705C429.895 575.945 433.145 573.438 436.336 570.885C443.571 575.312 457.345 584.708 463.447 590.041C467.313 601.749 476.332 603.006 477.805 607.608C477.67 609.455 476.316 610.575 475.141 611.887L463.75 604.861C460.521 602.67 457.214 600.745 453.799 598.859C453.166 601.125 452.279 603.232 451.372 605.396C452.191 606.46 452.857 607.456 453.498 608.634L453.209 609.484C453.064 609.511 452.922 609.557 452.775 609.563C451.074 609.634 449.434 608.28 448.401 607.052C445.605 603.726 444.106 599.291 441.949 595.534C438.13 588.883 432.436 583.86 426.88 578.705Z"/>
	<path d="M537.485 614.918C534.487 615.375 530.617 615.312 527.962 613.645C526.646 612.818 525.765 611.817 525.404 610.274C524.779 607.604 525.883 604.575 527.272 602.326C531.019 596.26 537.474 593.543 544.13 592.088C546.39 591.596 551.256 592.062 553.283 593.245C554.603 594.016 555.461 595.051 555.836 596.552C556.507 599.239 555.463 602.264 554.05 604.537C550.305 610.561 544.146 613.467 537.485 614.918Z"/>
	<path fill="#9F8BE8" d="M512.312 714.34C522.873 703.464 534.031 693.153 544.943 682.631L580.865 647.715C594.552 634.656 607.497 620.733 622.337 608.943C623.836 611.164 622.677 635.82 622.445 640.443C617.646 647.338 604.929 658.242 598.461 664.467C573.978 688.033 548.339 710.597 524.37 734.667C522.758 734.492 521.051 734.392 519.464 734.064C518.063 733.775 517.6 733.542 516.773 732.386C515.298 726.319 514.193 720.317 512.312 714.34Z"/>
	<path d="M465.111 667.717C461.807 667.932 458.444 667.775 455.497 666.064C454.046 665.222 452.981 663.901 452.625 662.247C451.992 659.305 453.338 656.094 455.046 653.759C459.085 648.235 465.535 645.208 472.129 644.14C474.86 643.993 478.078 644.252 480.585 645.415C482.068 646.103 483.083 647.128 483.581 648.717C484.283 650.952 483.203 653.855 482.099 655.776C478.543 661.966 471.767 665.802 465.111 667.717Z"/>
	<path d="M507.585 684.983C504.472 685.731 499.945 685.845 497.043 684.325C495.497 683.516 494.392 682.183 493.871 680.52C493.062 677.934 493.707 675.128 494.993 672.813C498.129 667.171 503.945 664.153 509.949 662.561C513.341 662.325 517.158 662.081 520.327 663.516C522.025 664.285 523.391 665.552 523.919 667.384C524.543 669.554 523.907 671.954 522.85 673.881C519.67 679.676 513.671 683.063 507.585 684.983Z"/>
	<path fill="#FDFDFC" d="M309.766 783.885C321.18 772.132 333.16 760.796 344.86 749.323L418.446 677.868C427.545 680.852 440.643 687.791 449.771 691.945L502.006 715.159C474.788 742.042 446.519 767.89 418.973 794.446C410.277 802.83 401.156 810.827 392.806 819.558C389.628 819.341 380.18 814.4 376.738 812.904C363.764 807.295 350.818 801.62 337.902 795.878C328.609 791.751 319.35 787.295 309.766 783.885ZM451.452 709.583C445.403 711.363 439.13 714.074 436.022 719.968C434.943 722.013 434.244 724.618 434.914 726.904C435.395 728.545 436.533 729.731 438.033 730.504C441.399 732.238 445.738 732.034 449.352 731.343C454.976 729.772 460.49 727.057 463.539 721.785C464.822 719.566 465.535 716.908 464.717 714.402C464.116 712.56 462.677 711.308 460.929 710.567C457.934 709.296 454.63 709.377 451.452 709.583ZM393.85 725.59C387.932 727.311 381.593 730.469 378.372 735.999C377.213 737.989 376.464 740.484 377.142 742.766C377.636 744.427 378.82 745.561 380.341 746.321C383.462 747.882 387.456 747.64 390.856 747.425C396.844 746.101 402.909 743.424 406.443 738.137C407.864 736.012 408.709 733.44 408.137 730.883C407.725 729.039 406.464 727.589 404.809 726.722C401.595 725.037 397.349 725.169 393.85 725.59ZM388.814 774.108C382.952 775.855 377.288 778.496 374.161 784.104C373.018 786.153 372.362 788.69 372.982 791.012C373.44 792.729 374.584 794.064 376.116 794.931C379.253 796.705 383.365 796.604 386.847 796.316C392.689 794.553 398.923 791.622 401.816 785.886C402.896 783.745 403.407 781.2 402.646 778.871C402.043 777.027 400.675 775.732 398.922 774.957C395.842 773.595 392.09 773.701 388.814 774.108Z"/>
	<path d="M449.352 731.343C445.738 732.034 441.399 732.238 438.033 730.504C436.533 729.731 435.395 728.545 434.914 726.904C434.244 724.618 434.943 722.013 436.022 719.968C439.13 714.074 445.403 711.363 451.452 709.583C454.63 709.377 457.934 709.296 460.929 710.567C462.677 711.308 464.116 712.56 464.717 714.402C465.535 716.908 464.822 719.566 463.539 721.785C460.49 727.057 454.976 729.772 449.352 731.343Z"/>
	<path fill="#9F8BE8" d="M396.839 824.783C399.992 820.773 404.154 817.427 407.912 813.99C413.824 808.65 419.662 803.227 425.422 797.724L506.788 719.854C508.52 729.086 511.066 738.924 511.036 748.331C509.479 751.401 507.37 753.821 504.988 756.27C499.917 761.483 494.373 766.269 489.118 771.298L443.952 814.057L422.974 834.257C418.516 838.55 414.03 843.33 408.898 846.808C406.441 846.658 404.042 846.353 401.609 846.001L401.046 845.791C399.722 844.11 397.724 828.313 396.839 824.783Z"/>
	<path d="M390.856 747.425C387.456 747.64 383.462 747.882 380.341 746.321C378.82 745.561 377.636 744.427 377.142 742.766C376.464 740.484 377.213 737.989 378.372 735.999C381.593 730.469 387.932 727.311 393.85 725.59C397.349 725.169 401.595 725.037 404.809 726.722C406.464 727.589 407.725 729.039 408.137 730.883C408.709 733.44 407.864 736.012 406.443 738.137C402.909 743.424 396.844 746.101 390.856 747.425Z"/>
	<path d="M386.847 796.316C383.365 796.604 379.253 796.705 376.116 794.931C374.584 794.064 373.44 792.729 372.982 791.012C372.362 788.69 373.018 786.153 374.161 784.104C377.288 778.496 382.952 775.855 388.814 774.108C392.09 773.701 395.842 773.595 398.922 774.957C400.675 775.732 402.043 777.027 402.646 778.871C403.407 781.2 402.896 783.745 401.816 785.886C398.923 791.622 392.689 794.553 386.847 796.316Z"/>
	<path fill="#FDFDFC" d="M240.383 828.859C240.819 828.206 241.259 827.571 241.727 826.941C248.462 817.886 280.438 796.938 291.613 791.875C294.809 790.428 297.923 789.66 301.382 789.147C303.684 789.317 305.875 789.796 308.054 790.559C319.311 794.496 330.397 800.068 341.39 804.764C356.269 811.12 376.316 818.638 389.741 826.652C375.719 838.001 359.98 847.705 345.279 858.182C322.892 874.136 300.996 890.854 277.733 905.53C263.637 898.792 248.997 892.99 234.572 887L200.549 872.951C193.628 870.11 186.509 867.505 179.834 864.124C185.546 856.661 198.507 847.058 205.948 840.581C205.417 843.917 205.45 847.225 205.744 850.585C206.02 853.731 206.877 857.163 209.476 859.203C211.635 860.897 216.172 861.863 218.808 861.144C220.342 860.725 221.138 859.468 221.987 858.245C233.12 859.068 244.169 860.833 255.34 861.539C258.336 861.728 263.434 862.374 265.796 860.288C267.771 856.36 267.011 851.252 266.863 846.957C260.415 839.595 249.37 832.826 240.383 828.859ZM299.251 805.651C292.574 806.587 285.54 808.677 281.196 814.246C279.87 815.946 278.403 818.626 278.831 820.879C279.135 822.475 279.977 823.549 281.329 824.384C284.443 826.307 288.065 826.595 291.629 826.509C297.925 825.431 304.795 823.56 308.778 818.114C310.133 816.262 311.163 813.819 310.809 811.482C310.604 810.117 309.859 808.892 308.742 808.082C306.258 806.276 302.252 805.612 299.251 805.651ZM337.647 822.641C331.507 823.75 325.567 826.072 321.908 831.46C320.638 833.331 319.573 836.104 320.207 838.389C320.732 840.28 321.89 841.545 323.639 842.381C326.497 843.746 330.131 843.676 333.235 843.484C339.282 842.274 345.167 840.069 348.675 834.625C349.988 832.588 350.855 830.144 350.334 827.714C349.995 826.136 348.769 824.897 347.376 824.181C344.427 822.665 340.897 822.424 337.647 822.641ZM277.207 867.682C270.962 868.311 264.142 869.754 260.011 874.965C258.46 876.921 257.303 879.528 257.754 882.072C258.046 883.717 259.068 885.01 260.433 885.924C263.837 888.206 268.437 888.306 272.368 888.017C278.39 886.88 284.529 885.305 288.137 879.833C289.371 877.961 290.215 875.513 289.605 873.273C289.175 871.697 287.982 870.399 286.541 869.665C283.875 868.308 280.161 867.5 277.207 867.682Z"/>
	<path d="M291.629 826.509C288.065 826.595 284.443 826.307 281.329 824.384C279.977 823.549 279.135 822.475 278.831 820.879C278.403 818.626 279.87 815.946 281.196 814.246C285.54 808.677 292.574 806.587 299.251 805.651C302.252 805.612 306.258 806.276 308.742 808.082C309.859 808.892 310.604 810.117 310.809 811.482C311.163 813.819 310.133 816.262 308.778 818.114C304.795 823.56 297.925 825.431 291.629 826.509Z"/>
	<path fill="#64599A" d="M221.796 824.456L231.05 806.989C234.914 808.345 238.637 809.932 242.384 811.584C240.26 817.753 236.566 823.179 233.313 828.798C229.254 827.858 225.586 826.139 221.796 824.456Z"/>
	<path d="M333.235 843.484C330.131 843.676 326.497 843.746 323.639 842.381C321.89 841.545 320.732 840.28 320.207 838.389C319.573 836.104 320.638 833.331 321.908 831.46C325.567 826.072 331.507 823.75 337.647 822.641C340.897 822.424 344.427 822.665 347.376 824.181C348.769 824.897 349.995 826.136 350.334 827.714C350.855 830.144 349.988 832.588 348.675 834.625C345.167 840.069 339.282 842.274 333.235 843.484Z"/>
	<path fill="#FDFDFC" d="M211.223 843.128C212.572 838.692 213.984 834.276 215.457 829.88C216.863 830.277 223.388 831.67 224.129 832.522C225.52 834.122 225.268 836.768 227.143 838.543C227.801 838.741 228.209 838.989 228.903 838.811C231.239 838.213 232.427 836.209 233.732 834.363C241.796 836.08 255.832 842.994 260.41 849.59C249.653 850.951 222.67 845.582 211.223 843.128Z"/>
	<path fill="#9F8BE8" d="M283.519 910.796C296.767 899.14 312.753 889.765 327.148 879.501C348.192 864.496 369.635 847.807 391.226 833.874L391.568 833.917C393.777 835.681 395.832 856.492 396.348 860.614C370.17 878.918 344.41 898.045 318.514 916.765C308.532 923.98 298.802 932.78 288.125 938.801L283.034 940.245C283.391 930.433 283.552 920.615 283.519 910.796Z"/>
	<path fill="#64599A" d="M70.9794 878.916C74.2193 872.622 78.6004 866.675 82.4964 860.771C86.0889 862.599 89.5664 864.785 93.0716 866.783C91.3481 870.931 86.4592 879.672 83.4091 882.987C78.9484 882.005 74.9895 881.196 70.9794 878.916Z"/>
	<path d="M272.368 888.017C268.437 888.306 263.837 888.206 260.433 885.924C259.068 885.01 258.046 883.717 257.754 882.072C257.303 879.528 258.46 876.921 260.011 874.965C264.142 869.754 270.962 868.311 277.207 867.682C280.161 867.5 283.875 868.308 286.541 869.665C287.982 870.399 289.175 871.697 289.605 873.273C290.215 875.513 289.371 877.961 288.137 879.833C284.529 885.305 278.39 886.88 272.368 888.017Z"/>
	<path fill="#9F8BE8" d="M179.655 899.482C178.552 889.866 178.453 880.414 178.501 870.752C191.606 876.604 205.029 881.784 218.32 887.198C238.06 895.089 257.657 903.335 277.1 911.931C276.559 921.097 276.614 930.259 276.584 939.438C274.578 939.88 271.522 938.439 269.629 937.743C253.837 931.937 238.362 924.693 222.793 918.247C210.041 912.968 190.764 906.223 179.655 899.482Z"/>
	<path fill="#FDFDFC" d="M59.589 888.717C61.4191 885.805 63.604 883.352 66.1011 881.005C68.6365 883.128 70.1902 886.311 72.8958 888.206C75.7698 890.22 79.3161 889.116 82.5012 888.575C84.3918 890.778 85.8925 893.124 87.438 895.573C86.042 896.459 84.0004 897.486 83.1498 898.972C82.4541 900.188 82.5319 900.672 82.8197 901.937C83.4003 902.409 83.9042 902.801 84.6535 902.968C87.6615 903.641 90.0015 901.93 92.489 900.524C97.7983 903.305 102.888 906.38 107.708 909.946L107.901 911.048C104.908 912.745 87.0283 911.505 82.6022 911.312C74.6463 904.112 67.5639 895.947 59.589 888.717Z"/>
</svg>
