<?xml version="1.0" encoding="utf-8" ?>
<svg xmlns="http://www.w3.org/2000/svg" xmlns:xlink="http://www.w3.org/1999/xlink" width="1024" height="1024">
	<path fill="#9F8BE8" d="M0 0L97.2113 0C105.493 7.26418 114.314 13.9546 122.839 20.9329L175.268 64.334C248.071 124.839 319.98 186.41 390.973 249.029C416.222 270.867 441.217 292.998 465.952 315.417C476.701 325.195 487.724 334.767 498.166 344.868C508.839 355.191 518.829 366.004 528.694 377.087C525.611 380.956 522.636 385.055 519.306 388.709C485.803 370.268 453.282 350.034 420.326 330.645L287.821 253.866C222.991 217.05 158.54 179.573 94.4758 141.44C62.9583 122.936 31.0506 104.88 0 85.6111L0 0Z"/>
	<path fill="#CDC7CF" d="M97.2113 0L275.8 0C281.673 6.43899 287.013 13.3838 292.509 20.1453C301.65 31.2961 310.682 42.5358 319.605 53.8627L373.531 120.728C422.792 180.756 471.07 241.581 518.349 303.182C528.75 316.576 540.183 329.151 550.372 342.685C551.316 344.104 552.278 345.258 553.51 346.436C543.733 355.254 537.321 367.145 528.694 377.087C518.829 366.004 508.839 355.191 498.166 344.868C487.724 334.767 476.701 325.195 465.952 315.417C441.217 292.998 416.222 270.867 390.973 249.029C319.98 186.41 248.071 124.839 175.268 64.334L122.839 20.9329C114.314 13.9546 105.493 7.26418 97.2113 0Z"/>
	<path fill="#9F8BE8" d="M275.8 0L352.572 0C366.493 18.2318 378.54 38.4261 390.905 57.7397L458.994 164.966C485.506 205.386 511.546 246.114 537.109 287.141C545.627 300.517 554.127 313.811 562.341 327.385C565.163 332.049 569.253 337.467 571.028 342.546C566.383 341.286 560.67 334.619 556.011 332.029C553.64 335.3 551.969 338.996 550.372 342.685C540.183 329.151 528.75 316.576 518.349 303.182C471.07 241.581 422.792 180.756 373.531 120.728L319.605 53.8627C310.682 42.5358 301.65 31.2961 292.509 20.1453C287.013 13.3838 281.673 6.43899 275.8 0Z"/>
	<path fill="#C9BCDD" d="M352.572 0L1024 0L1024 1024L853.241 1024C838.019 1009.29 820.361 996.493 801.241 987.341C778.5 976.455 754.161 968.851 730.041 961.664C717.002 957.778 703.746 954.542 690.614 950.977C640.514 937.378 589.318 924.106 541.636 903.437C533.42 899.876 521.204 895.681 515.636 888.425C514.803 887.34 514.247 886.305 514.592 884.891C517.633 872.429 580.632 853.71 593.217 849.182C601.404 846.236 609.909 842.961 617.579 838.851C622.616 836.152 628.389 832.086 629.967 826.309C634.376 810.167 594.06 798.48 583.16 794.927L558.009 786.84C543.728 782.115 524.936 776.788 512.695 768.122C509.131 765.599 506.708 762.904 504.519 759.13L504.409 752.886C507.367 748.093 510.228 744.832 515.023 741.813C533.511 730.174 566.774 723.264 588.269 718.731C613.864 713.386 639.567 708.573 665.361 704.293C676.768 702.318 688.261 700.642 699.622 698.43C724.977 693.494 752.568 687.643 776.476 677.966C791.459 671.902 811.555 662.422 817.977 646.417C820.334 640.543 820.433 635.136 817.908 629.314C809.296 609.466 777.782 593.636 758.137 585.95C762.133 584.106 766.109 582.101 770.191 580.46C778.317 577.195 795.676 571.967 801.751 566.471C803.707 564.701 803.66 563.921 803.038 561.458C801.053 553.61 796.076 546.872 792.967 539.467C783.502 516.927 774.467 494.107 765.28 471.445C761.865 463.022 754.428 445.667 753.089 437.379C752.092 431.211 755.641 413.721 756.773 406.812C759.158 392.697 761.378 378.555 763.43 364.388C764.684 355.848 766.293 347.124 766.537 338.488C770.176 334.904 777.288 331.376 779.361 326.754C779.145 317.127 736.738 234.946 729.501 222.359C723.738 212.337 717.613 202.092 710.02 193.341C700.986 182.93 688.902 178.846 675.584 177.885C671.305 173.583 664.007 168.844 658.02 167.544C654.925 166.871 653.287 167.927 650.8 169.625C647.958 166.759 644.553 164.301 641.448 161.712C640.2 157.373 638.883 153.157 636.865 149.102C633.018 141.371 627.109 134.89 618.652 132.262C611.128 129.924 603.238 131.072 596.369 134.723C584.612 140.973 577.561 159.09 573.843 171.14C579.303 175.764 584.798 180.191 590.653 184.308C591.497 188.589 590.865 193.461 592.28 197.557C592.842 199.183 593.576 199.686 595.074 200.427C598.051 200.416 599.433 199.065 601.657 197.236C604.247 199.566 608.369 203.874 611.57 204.971C615.259 206.235 619.495 202.821 622.551 201.076C627.192 204.872 631.037 208.915 632.33 215.018C633.626 221.132 632.693 227.863 631.985 234.005C629.198 258.182 622.303 281.482 608.944 302.029C602.617 311.76 581.45 340.363 571.028 342.546C569.253 337.467 565.163 332.049 562.341 327.385C554.127 313.811 545.627 300.517 537.109 287.141C511.546 246.114 485.506 205.386 458.994 164.966L390.905 57.7397C378.54 38.4261 366.493 18.2318 352.572 0ZM872.177 670.334C870.845 675.431 869.39 680.556 868.604 685.77C866.939 696.819 867.02 708.04 866.709 719.184C866.43 727.76 865.92 736.328 865.178 744.877C863.943 759.119 860.7 772.097 855.071 785.248C852.415 791.454 849.385 797.475 847.007 803.801C842.264 816.421 838.789 828.885 832.313 840.814C831.911 831.913 830.809 823.056 829.016 814.328C827.163 805.003 824.127 794.961 824.311 785.418C824.428 779.315 825.763 773.31 827.652 767.526C828.459 765.057 831.922 758.912 831.889 756.981C831.887 756.831 831.842 756.685 831.819 756.537L831.077 756.178C826.896 758.002 823.903 764.733 822.3 768.855C820.687 772.978 819.406 777.224 818.468 781.551C815.795 773.022 813.646 765.386 813.756 756.345C813.837 749.677 815.062 741.922 813.707 735.401L813.2 735.14C811.292 738.964 811.159 744.042 810.702 748.246C809.023 763.682 808.35 774.704 813.345 789.739C814.336 792.719 815.454 795.664 816.553 798.605C813.386 795.852 810.225 792.979 806.753 790.615C801.062 786.739 776.845 772.287 770.732 772.497C770.443 772.507 770.16 772.573 769.874 772.611L769.573 773.358C771.715 777.349 791.729 788.847 796.64 792.431C799.93 794.831 802.941 797.612 805.942 800.356C790.622 808.415 779.703 820.629 774.48 837.28C773.545 840.26 773.068 843.232 772.735 846.328C785.631 822.368 784.011 820.436 808.354 805.809C815.499 816.993 821.439 827.475 818.313 841.282C816.72 848.32 811.776 853.484 808.056 859.444C804.496 865.145 802.049 871.079 800.33 877.556C792.75 870.029 783.027 860.945 771.579 861.144C756.421 861.409 726.066 878.551 713.029 887.121C695.378 881.842 678.973 879.991 660.646 882.303C656.04 882.884 651.364 883.319 647.092 885.257C646.453 886.336 646.437 886.372 646.577 887.616C648.273 888.656 654.459 887.358 656.608 887.11C666.252 885.999 676.146 885.658 685.792 886.891C698.238 888.483 711.395 891.332 722.663 897.033C726.427 898.938 730.73 902.956 734.717 903.968C738.332 904.886 743.507 903.665 747.316 903.584C753.174 903.46 759.522 904.122 765.198 905.588C769.375 906.667 773.694 908.306 777.651 910.045C780.119 911.13 783.165 913.004 785.763 913.555C786.772 913.769 788.214 913.451 789.214 913.207C793.037 912.279 796.767 910.378 800.577 909.259C816.563 904.568 831.486 905.23 846.18 913.593C849.055 915.229 855.598 920.513 858.722 920.049C858.193 916.767 852.595 912.505 849.908 910.559C847.907 909.109 845.721 907.756 843.516 906.637C853.123 900.141 867.637 898.21 878.896 900.428C891.691 902.949 898.386 910.452 909.463 914.496C921.89 919.034 936.047 917.777 948.826 921.446C953.866 922.893 958.999 924.78 963.652 927.209C968.125 929.544 971.699 933.002 976.814 933.908L977.357 933.468C975.04 927.36 964.748 922.459 959.105 919.9C952.702 916.996 945.691 914.833 938.746 913.723C927 911.845 915.782 912.12 905.076 906.242C913.389 899.63 923.111 895.783 933.125 892.513C936.822 891.664 942.001 891.197 945.284 889.39L945.195 888.495C940.934 885.902 931.477 888.375 926.891 889.5C917.358 891.839 908.012 896.748 900.392 902.915C895.341 900.946 890.614 898.32 885.472 896.566C873.37 892.44 858.314 893.808 846.69 898.876C843.635 900.208 841.037 901.918 838.178 903.58C838.013 903.519 837.849 903.456 837.683 903.397C834.133 902.131 825.803 902.478 824.008 899.437C821.649 895.44 822.466 879.941 824.107 875.692C825.867 871.134 829.16 867.409 833.679 865.491C844.117 861.061 877.172 863.977 888.83 865.866C899.484 867.593 910.286 870.934 921.068 871.507C930.772 872.022 939.988 868.721 949.66 869.656C954.186 870.093 968.994 874.525 971.717 872.988C971.324 871.595 970.323 870.805 969.1 870.069C966.335 868.405 962.834 867.59 959.733 866.798C943.291 862.595 937.364 866.188 921.985 865.682C914.184 865.426 906.54 863.598 898.924 862.031C903.476 859.494 908.309 857.006 912.218 853.517C919.411 847.096 923.052 837.173 932.998 834.439C943.911 831.44 956.694 832.182 968.145 830.041C970.762 829.552 978.163 828.375 979.579 826.026C977.028 824.373 938.262 827.641 933.154 828.743C926.365 830.209 921.955 833.465 917.294 838.409C913.96 841.945 910.877 845.602 906.952 848.511C893.765 858.289 879.788 857.409 864.382 855.703L845.523 853.754L845.217 853.238C850.086 847.912 852.193 843.926 856.277 838.225C863.466 828.19 872.954 820.54 884.564 816.264C889.182 814.563 917.727 808.873 918.609 806.695C918.725 806.408 918.654 806.078 918.677 805.77C917.036 804.479 915.572 804.699 913.565 804.93C893.424 807.247 878.189 809.317 860.962 820.915C867.844 804.603 887.187 779.876 904.017 772.928C910.967 770.058 918.818 769.922 926.198 769.017C939.688 767.362 961.392 763.207 972.348 755.282C962.943 756.09 953.397 758.751 944.1 760.481C934.674 762.236 924.977 763.125 915.409 763.726C915.521 763.623 915.631 763.518 915.745 763.416C919.148 760.379 923.468 758.513 927.047 755.678C935.017 749.364 947.673 733.816 952.203 724.795C945.385 728.25 940.883 734.959 935.727 740.415C933.044 743.253 929.959 745.807 926.85 748.164C916.353 756.123 904.419 761.271 893.361 768.245C884.498 773.835 875.5 782.251 868.158 789.722C870.617 759.572 875.503 740.675 893.968 716.232C898.812 709.819 905.544 703.616 908.98 696.365C895.421 703.808 882.772 722.583 873.773 735.401C873.059 721.32 872.238 707.393 872.997 693.293C873.229 689.001 873.363 684.607 873.96 680.351C874.39 677.293 875.31 674.169 875.279 671.087C874.193 670.263 873.494 670.427 872.177 670.334Z"/>
	<path fill="#C9BCDD" d="M0 85.6111C31.0506 104.88 62.9583 122.936 94.4758 141.44C158.54 179.573 222.991 217.05 287.821 253.866L420.326 330.645C453.282 350.034 485.803 370.268 519.306 388.709C517.544 390.49 514.57 392.886 514.485 395.545C515.149 396.597 515.736 397.166 517.001 397.451C517.762 397.622 518.768 397.446 519.547 397.409C519.829 397.395 520.111 397.39 520.393 397.379L520.92 397.355C532.002 404.688 542.092 413.473 552.534 421.664C522.066 430.525 471.997 450.16 446.161 468.273C438.848 473.4 430.874 480.259 426.544 488.208C423.407 493.966 422.517 500.586 424.415 506.898C428.798 521.477 451.351 535.558 464.012 542.069C482.561 551.608 502.512 559.143 522.22 565.922C552.105 576.201 662.798 605.621 672.393 634.042C673.637 637.726 673.607 641.615 671.697 645.07C664.436 658.205 634.551 665.488 620.504 669.188C589.455 677.366 558.087 684.467 527.016 692.572C503.427 698.726 480.144 705.698 456.797 712.702C431.319 720.346 404.289 727.601 380.747 740.222C374.303 743.676 367.121 748.347 363.261 754.749C360.927 758.618 360.123 763.094 361.212 767.499C363.54 776.913 371.803 782.924 379.766 787.44C396.498 796.928 454.392 814.948 459.52 831.817C460.013 833.44 459.868 834.877 459.036 836.374C456.86 840.288 450.563 843.024 446.558 844.665C432.264 850.524 417.113 853.668 402.418 858.281C381.885 864.726 292.922 892.661 298.83 918.787C302.713 935.96 336.737 941.186 341.097 961.683C338.213 973.793 326.98 981.258 316.959 987.402C300.754 997.228 283.773 1005.71 266.186 1012.77C259.834 1015.24 253.454 1017.63 247.046 1019.95C243.575 1021.21 239.57 1022.24 236.333 1024L0 1024L0 85.6111ZM100.659 221.542C101.528 230.216 105.41 237.392 105.567 246.873C105.687 254.099 104.379 261.12 103.264 268.222C99.9036 289.64 104.736 300.572 116.096 318.331C108.404 315.445 100.441 312.644 93.6409 307.943C86.7034 303.146 59.7282 276.725 55.2573 275.535L54.4426 275.958C54.2048 277.223 54.4684 277.724 55.1554 278.769C61.613 288.595 73.8663 294.762 79.9986 304.716C75.5446 304.215 55.1867 302.267 51.8372 305.071C51.7282 305.162 51.6461 305.282 51.5505 305.387C52.2744 306.473 53.7241 306.815 54.979 307.057C58.2067 307.681 61.5239 307.548 64.7828 307.879C71.3596 308.547 77.8053 309.394 84.4447 309.558C92.6223 316.489 101.107 320.968 111.107 324.68C114.573 325.966 118.926 326.931 121.992 328.905C126.93 332.084 131.348 338.577 135.544 342.793C146.775 354.074 159.171 364.676 169.529 376.771C171.313 378.855 172.306 381.864 173.224 384.42C177.519 396.372 178.327 408.445 177.126 421.021C175.928 433.556 173.098 445.698 170.558 458.002C166.532 477.501 164.124 498.361 167.457 518.15C168.349 523.445 169.847 528.683 171.189 533.88C157.235 526.353 142.721 517.635 137.934 501.525C132.037 481.68 137.971 466.626 138.416 447.183C138.725 433.65 136.311 420.158 133.747 406.922C133.107 403.622 132.022 395.563 129.09 393.69C127.141 397.024 131.105 425.289 131.462 430.682C131.747 434.997 131.573 439.35 131.456 443.67C125.527 431.147 114.518 401.01 105.359 392.673L104.534 392.583C104.311 395.347 122.658 439.261 124.631 447.363C125.806 452.19 127.151 457.499 127.21 462.474C127.264 467.026 126.364 471.693 125.852 476.211C124.489 488.23 125.086 499.943 130.482 510.945C121.653 506.044 112.793 501.011 106.469 492.91C100.105 484.759 97.1148 474.935 93.1181 465.561C86.8223 450.793 76.3158 437.632 64.7003 426.691C62.912 425.007 57.5774 420.047 55.0482 420.243C54.7347 420.933 54.4707 421.052 54.7965 421.826C55.9816 424.645 60.8647 428.507 63.018 430.884C75.4618 444.617 85.484 459.052 89.3834 477.399C77.6195 470.746 66.4967 465.728 52.9832 464.076C58.2712 467.866 64.3807 469.769 70.2797 472.385C76.9262 475.36 83.3744 478.76 89.5842 482.564C99.6995 505.135 109.846 512.535 130.886 524.363C139.54 529.145 148.045 534.191 156.389 539.495C162.956 543.616 170.254 548.388 175.368 554.26C175.704 563.975 173.691 570.826 169.514 579.561C163.209 578.999 156.071 578.792 149.79 579.694C136.941 581.538 116.946 589.524 106.868 597.863C105.628 598.889 103.82 600.531 103.565 602.234C103.394 603.382 103.606 603.753 104.357 604.547C106.976 604.216 110.581 600.789 113 599.431C130.858 589.398 149.196 582.649 170.008 585.206C181.882 586.665 195.574 591.31 205.371 598.243C206.962 599.37 212.127 603.905 214.005 603.311C214.454 603.169 214.777 602.772 215.164 602.502C215.458 600.934 214.523 599.911 213.637 598.608C211.543 595.53 205.607 592.389 204.435 589.79C205.085 587.653 206.726 586.774 208.633 585.749C216.78 581.37 227.053 579.188 236.23 578.647C239.481 578.451 242.74 578.44 245.992 578.616C249.129 578.793 264.65 581.167 266.51 579.999C266.37 578.989 266.595 579.315 265.807 578.673C258.514 572.724 237.821 572.481 228.904 573.781C223.615 574.552 218.055 575.993 213.134 578.091C212.565 568.342 211.467 558.637 208.442 549.301C202.536 531.073 193.154 517.687 191.903 497.621C191.656 493.668 191.604 489.198 193.091 485.468C194.263 482.527 196.488 479.879 198.564 477.518C209.462 465.12 220.229 455.288 235.65 449.058C259.151 439.315 331.516 433.765 344.87 421.671L345.055 420.799C344.153 420.381 344.148 420.225 343.114 420.404C336.004 421.632 329.021 423.696 321.983 425.29C312.531 427.431 302.517 429.023 292.856 429.744C299.712 425.711 324.444 406.242 326.806 399.315L326.376 398.756C320.761 399.462 299.086 418.143 292.759 422.593C289.444 424.89 285.938 426.896 282.278 428.59C273.267 432.753 262.644 432.858 252.972 434.604C246.008 435.861 239.267 437.876 232.528 439.992C236.486 430.976 241.491 422.456 247.439 414.609C252.633 407.729 287.385 371.708 287.394 367.157C286.883 366.809 286.69 366.46 286.027 366.628C280.947 367.915 245.995 406.015 241.031 412.308C235.921 418.788 230.741 426.112 227.184 433.545C225.535 436.992 224.21 440.607 222.989 444.225C210.675 451.747 199.891 459.548 189.755 469.91C192.38 446.348 197.368 425.156 212.574 406.269C219.062 398.211 226.168 390.137 229.545 380.176C232.457 371.583 232.053 362.283 233.049 353.365C247.943 349.026 266.244 342.105 277.381 331.056C281.742 326.729 285.126 321.543 288.535 316.466C300.183 316.702 315.084 313.96 324.422 306.554C315.407 307.733 303.004 312.421 294.237 310.945L293.612 310.281C294.617 305.798 320.267 281.236 316.955 274.683C314.3 275.7 310.7 281.47 308.774 283.868C301.568 292.843 293.507 301.103 286.045 309.862C281.754 314.898 278.381 320.808 273.897 325.638C265.133 335.076 245.427 342.34 233.111 345.452C233.826 337.179 236.038 328.066 238.904 320.302C242.311 311.072 255.927 286.374 255.6 278.546L254.803 278.1C252.886 278.872 238.634 305.022 236.779 309.031C235.148 293.847 234.907 279.521 236.168 264.279C236.4 261.481 238.174 254.87 236.144 252.982C234.546 253.875 234.029 256.402 233.551 258.095C229.874 271.104 227.806 285.924 229.085 299.46C229.615 305.071 231.123 311.066 231.191 316.664C231.252 321.702 226.316 333.665 225.219 339.646C221.797 358.315 223.028 377.925 209.819 393.037C204.539 399.078 198.419 404.35 193.087 410.373C192.021 390.802 185.945 374.919 175.539 358.51C169.084 348.33 163.317 339.296 160.529 327.367C157.818 315.767 162.089 303.877 162.844 292.279C163.536 281.652 163.051 270.687 162.114 260.094C161.758 256.082 161.924 248.269 158.759 245.343C158.387 245 158.278 244.993 157.867 244.835C156.803 246.002 156.782 247.289 156.841 248.841C157.12 256.156 157.429 263.446 156.916 270.765C154.089 263.397 151.249 255.969 149.399 248.284C147.813 241.697 146.999 234.762 144.953 228.319C144.481 226.831 144.001 225.305 142.599 224.514C141.758 225.293 141.842 225.544 141.787 226.655C141.309 236.309 145.781 257.832 149.102 266.949C151.046 272.288 154.347 277.058 155.131 282.778C155.851 288.032 154.879 293.75 153.933 298.915C149.914 320.843 148.718 324.74 155.686 347.119C137.612 333.232 112.205 306.545 109.254 283.139C106.811 263.762 115.88 253.063 108.117 231.549C107.09 228.703 105.426 224.374 103.143 222.377C102.457 221.777 101.516 221.685 100.659 221.542ZM282.767 584.157C272.175 585.079 261.211 592.251 254.306 600.171C251.626 603.244 249.939 606.573 250.267 610.72C250.694 616.115 252.373 623.32 253.812 628.608C248.48 624.414 243.294 621.774 236.275 622.477C231.682 622.937 227.952 624.618 224.14 627.084C219.405 630.146 215.009 634.004 210.601 637.521C197.555 647.933 185.138 659.004 172.529 669.931C167.842 673.992 155.575 683.881 152.352 688.072C151.669 688.961 151.438 690.008 151.141 691.059C150.397 693.686 145.427 697.676 143.522 699.897C135.429 709.328 130.586 719.534 128.389 731.747C125.369 748.531 129.141 765.3 131.042 781.991C134.395 811.435 129.923 842.559 119.501 870.2C118.31 873.359 117.151 876.65 115.618 879.659C113.858 883.114 110.887 886.82 109.871 890.547C109.592 891.571 109.707 891.984 110.148 892.972C112.275 897.746 125.281 904.446 130.223 906.497C128.281 911.704 124.712 925.379 119.655 927.686C115.956 929.374 111.307 929.888 107.369 930.889C99.804 932.811 86.5599 937.075 83.5182 945.084C82.6923 947.258 82.3815 949.563 83.3614 951.736C86.9683 959.735 100.937 964.387 108.498 966.947C145.745 979.562 228.244 983.413 264.635 970.317C270.113 967.871 277.355 964.375 279.744 958.475C280.813 955.836 280.35 953.214 279.156 950.702C274.678 941.287 260.09 936.131 250.872 933.122C236.74 928.509 220.059 925.06 205.201 924.339C206.508 921.001 207.752 917.629 209.346 914.415L210.033 914.069C214.162 912.011 223.537 909.735 226.424 906.783C227.988 905.184 228.817 902.912 229.517 900.833C237.24 877.907 245.948 843.761 241.141 819.941C239.286 810.745 235.283 801.993 231.087 793.657C220.041 771.712 202.384 747.161 197.959 723.017C199.5 722.516 201.25 722.038 202.638 721.193C205.818 719.26 208.497 716.317 211.616 714.222C216.079 711.225 221.08 709.075 225.488 705.995C225.806 714.743 224.901 727.705 232.017 734.064C234.719 736.48 238.145 737.317 241.706 737.054C256.302 735.976 272.763 719.208 281.421 708.604C290.059 698.025 293.473 685.209 299.933 673.463C302.442 668.902 306.386 665.14 308.662 660.488C309.922 657.913 310.752 655.156 310.496 652.269C310.324 650.32 309.569 647.675 308.007 646.351C307.109 645.59 306.294 645.159 305.076 645.371C300.431 646.176 295.834 656.015 293.909 659.821C293.813 660.012 293.028 661.656 292.934 661.639C293.831 658.406 294.962 655.07 295.436 651.75L291.3 647.66C297.013 646.559 302.888 640.736 306.159 635.997C307.569 633.953 308.194 631.652 308.812 629.279C313.978 624.567 319.475 621.773 319.792 613.937C320.054 607.487 316.658 601.616 312.267 597.132C305.233 589.949 294.215 584.31 284.055 584.133C283.625 584.125 283.196 584.143 282.767 584.157Z"/>
	<path fill="#090809" d="M550.372 342.685C551.969 338.996 553.64 335.3 556.011 332.029C560.67 334.619 566.383 341.286 571.028 342.546C581.45 340.363 602.617 311.76 608.944 302.029C622.303 281.482 629.198 258.182 631.985 234.005C632.693 227.863 633.626 221.132 632.33 215.018C631.037 208.915 627.192 204.872 622.551 201.076C619.495 202.821 615.259 206.235 611.57 204.971C608.369 203.874 604.247 199.566 601.657 197.236C599.433 199.065 598.051 200.416 595.074 200.427C593.576 199.686 592.842 199.183 592.28 197.557C590.865 193.461 591.497 188.589 590.653 184.308C584.798 180.191 579.303 175.764 573.843 171.14C577.561 159.09 584.612 140.973 596.369 134.723C603.238 131.072 611.128 129.924 618.652 132.262C627.109 134.89 633.018 141.371 636.865 149.102C638.883 153.157 640.2 157.373 641.448 161.712C644.553 164.301 647.958 166.759 650.8 169.625C653.287 167.927 654.925 166.871 658.02 167.544C664.007 168.844 671.305 173.583 675.584 177.885C688.902 178.846 700.986 182.93 710.02 193.341C717.613 202.092 723.738 212.337 729.501 222.359C736.738 234.946 779.145 317.127 779.361 326.754C777.288 331.376 770.176 334.904 766.537 338.488C766.293 347.124 764.684 355.848 763.43 364.388C761.378 378.555 759.158 392.697 756.773 406.812C755.641 413.721 752.092 431.211 753.089 437.379C754.428 445.667 761.865 463.022 765.28 471.445C774.467 494.107 783.502 516.927 792.967 539.467C796.076 546.872 801.053 553.61 803.038 561.458C803.66 563.921 803.707 564.701 801.751 566.471C795.676 571.967 778.317 577.195 770.191 580.46C766.109 582.101 762.133 584.106 758.137 585.95C777.782 593.636 809.296 609.466 817.908 629.314C820.433 635.136 820.334 640.543 817.977 646.417C811.555 662.422 791.459 671.902 776.476 677.966C752.568 687.643 724.977 693.494 699.622 698.43C688.261 700.642 676.768 702.318 665.361 704.293C639.567 708.573 613.864 713.386 588.269 718.731C566.774 723.264 533.511 730.174 515.023 741.813C510.228 744.832 507.367 748.093 504.409 752.886L504.519 759.13C506.708 762.904 509.131 765.599 512.695 768.122C524.936 776.788 543.728 782.115 558.009 786.84L583.16 794.927C594.06 798.48 634.376 810.167 629.967 826.309C628.389 832.086 622.616 836.152 617.579 838.851C609.909 842.961 601.404 846.236 593.217 849.182C580.632 853.71 517.633 872.429 514.592 884.891C514.247 886.305 514.803 887.34 515.636 888.425C521.204 895.681 533.42 899.876 541.636 903.437C589.318 924.106 640.514 937.378 690.614 950.977C703.746 954.542 717.002 957.778 730.041 961.664C754.161 968.851 778.5 976.455 801.241 987.341C820.361 996.493 838.019 1009.29 853.241 1024L845.883 1024C833.609 1014 821.226 1004.07 807.264 996.476C778.625 980.897 746.092 971.716 714.863 962.855L623.369 937.15C593.658 928.547 563.871 919.702 535.729 906.666C528.25 903.202 513.037 896.694 510.33 888.393C508.975 884.235 511.137 880.083 514.073 877.229C519.381 872.068 526.813 868.839 533.469 865.815C542.501 861.668 551.722 857.946 561.102 854.66C576.794 849.203 608.246 840.73 620.674 830.934C622.955 829.136 624.249 827.215 625.515 824.644L625.823 824.006C623.75 819.244 620.706 816.41 616.363 813.727C607.553 808.283 596.83 805.002 587.067 801.68C565.194 794.239 536.25 786.575 516.204 776.041C509.295 772.41 502.338 768.195 500.024 760.198C498.813 756.047 499.36 751.581 501.536 747.845C504.807 742.143 510.899 738.008 516.621 735.056C537.562 724.254 564.755 718.608 587.739 713.645C621.55 706.344 655.648 700.74 689.648 694.448C710.19 690.788 730.575 686.288 750.749 680.96C769.375 676.176 801.212 664.667 810.996 647.335C813.607 642.711 814.381 637.463 812.749 632.362C807.388 615.599 767.915 594.032 751.005 588.804C747.22 587.634 742.237 589.528 738.758 587.346C737.838 586.769 737.683 586.138 737.425 585.152C737.172 584.184 736.902 583.332 736.502 582.407C729.907 578.999 700.831 566.542 694.358 567.536C690.943 570.259 694.227 575.463 691.788 578.85C691.015 579.923 690.143 580.239 688.882 580.481C672.324 583.656 632.974 582.523 619.509 572.485C617.436 570.94 615.903 568.839 615.686 566.203C615.537 564.523 616.087 562.856 617.206 561.594C619.195 559.308 622.46 558.029 625.343 557.378C632.67 555.723 648.393 556.39 656.934 555.834L657.592 550.283C629.636 544.611 601.589 539.399 573.462 534.649C555.427 531.522 534.995 530.304 518.011 523.285C506.402 518.488 495.618 508.808 490.943 497.02C487.661 488.748 487.199 479.39 490.893 471.155C501.13 448.333 536.263 438.42 557.524 429.578C558.701 429.089 559.99 428.768 560.495 427.568C559.497 426.475 558.779 426.105 557.457 425.527C551.04 427.269 544.657 429.73 538.362 431.885C513.574 440.274 489.479 450.583 466.295 462.72C454.18 469.195 433.456 481.25 429.568 495.259C426.876 504.964 432.796 512.716 439.449 518.939C451.952 530.634 468.166 538.387 483.693 545.166C504.541 554.268 526.032 561.704 547.683 568.642C583.555 580.138 632.604 593.717 662.97 615.774C668.097 619.498 673.696 623.641 676.7 629.383C678.989 633.759 679.597 639.056 678.098 643.786C675.161 653.054 665.223 659.414 656.819 663.161C639.343 670.954 619.457 674.214 601.068 679.227C570.19 687.644 539.056 694.852 508.133 703.046C497.883 705.762 487.743 709.103 477.517 711.961C445.761 720.836 412.066 729.72 382.988 745.526C376.946 748.81 368.561 753.952 366.702 761.04C359.851 787.155 447.802 800.87 462.241 826.386C464.063 829.606 465.039 833.519 463.842 837.141C462.253 841.948 457.067 845.583 452.712 847.68C438.702 854.426 422.652 857.493 407.845 862.016C382.354 869.802 356.966 878.772 333.132 890.776C324.92 894.913 307.258 903.964 304.482 913.443C301.445 923.816 320.908 932.805 327.701 937.759C333.929 942.301 340.638 947.653 344.41 954.536C346.577 958.492 347.14 962.572 345.69 966.877C339.611 984.927 297.57 1005.03 280.559 1012.44C271.271 1016.48 261.517 1019.65 252.385 1024L236.333 1024C239.57 1022.24 243.575 1021.21 247.046 1019.95C253.454 1017.63 259.834 1015.24 266.186 1012.77C283.773 1005.71 300.754 997.228 316.959 987.402C326.98 981.258 338.213 973.793 341.097 961.683C336.737 941.186 302.713 935.96 298.83 918.787C292.922 892.661 381.885 864.726 402.418 858.281C417.113 853.668 432.264 850.524 446.558 844.665C450.563 843.024 456.86 840.288 459.036 836.374C459.868 834.877 460.013 833.44 459.52 831.817C454.392 814.948 396.498 796.928 379.766 787.44C371.803 782.924 363.54 776.913 361.212 767.499C360.123 763.094 360.927 758.618 363.261 754.749C367.121 748.347 374.303 743.676 380.747 740.222C404.289 727.601 431.319 720.346 456.797 712.702C480.144 705.698 503.427 698.726 527.016 692.572C558.087 684.467 589.455 677.366 620.504 669.188C634.551 665.488 664.436 658.205 671.697 645.07C673.607 641.615 673.637 637.726 672.393 634.042C662.798 605.621 552.105 576.201 522.22 565.922C502.512 559.143 482.561 551.608 464.012 542.069C451.351 535.558 428.798 521.477 424.415 506.898C422.517 500.586 423.407 493.966 426.544 488.208C430.874 480.259 438.848 473.4 446.161 468.273C471.997 450.16 522.066 430.525 552.534 421.664C542.092 413.473 532.002 404.688 520.92 397.355L520.393 397.379C520.111 397.39 519.829 397.395 519.547 397.409C518.768 397.446 517.762 397.622 517.001 397.451C515.736 397.166 515.149 396.597 514.485 395.545C514.57 392.886 517.544 390.49 519.306 388.709C522.636 385.055 525.611 380.956 528.694 377.087C537.321 367.145 543.733 355.254 553.51 346.436C552.278 345.258 551.316 344.104 550.372 342.685ZM595.398 161.172L596.534 163.512C597.775 166.07 598.912 168.319 601.742 169.343C604.554 170.361 607.566 168.395 609.886 167.038C610.934 166.425 610.887 166.518 612.003 166.505L612.594 167.24L612.321 168.628C614.271 171.183 616.156 174.631 618.76 176.508L619.444 176.373C619.956 174.452 619.567 172.76 619.203 170.849L620.5 170.324C622.942 170.738 625.068 172.909 627.027 174.358C627.143 174.367 627.259 174.381 627.376 174.386C632.394 174.587 638.226 177.663 642.767 176.615C643.246 176.122 643.749 175.869 643.77 175.126C643.851 172.262 640.094 168.037 638.565 165.639C634.299 158.95 633.736 150.624 628.246 144.469C624.001 139.71 617.611 136.685 611.248 136.345C604.782 135.999 598.71 138.815 594.039 143.142C590.058 146.829 579.75 163.223 580.298 168.629C580.432 169.952 580.611 170.126 581.595 170.851C582.518 170.912 583.501 170.961 584.348 170.509C587.762 168.685 591.526 163.685 595.398 161.172ZM630.467 192.883C628.915 194.382 627.353 195.869 625.78 197.346C627.441 198.466 629.084 199.641 630.798 200.678C631.484 198.266 632.03 195.663 632.953 193.339C634.909 188.002 637.855 183.489 640.873 178.724C636.057 178.246 631.323 178.358 626.504 178.71C628.453 182.336 630.816 184.718 633.604 187.719C632.712 189.519 631.549 191.193 630.467 192.883ZM672.123 210.783C669.925 208.091 667.535 206.754 664.012 206.486C659.239 206.123 654.325 208.488 650.832 211.598C642.501 219.017 642.327 232.831 641.948 243.142C641.49 254.113 641.7 265.102 642.577 276.047C643.17 282.793 644.613 289.612 644.783 296.363C636.775 301.143 625.915 314.083 618.29 320.852C610.297 327.948 600.871 334.292 593.398 341.852C595.003 342.886 597.534 344.085 598.491 345.744L602.638 351.027C619.21 344.27 635.78 335.179 650.913 325.6C660.196 319.724 671.983 312.891 674.488 301.437C677.581 287.3 676.087 268.099 676.129 253.441C676.158 243.23 676.956 232.101 675.689 221.99C675.193 218.032 674.293 214.187 672.123 210.783ZM594.103 167.513C590.775 169.682 587.659 171.553 583.834 172.743C585.899 174.591 587.728 176.009 590.197 177.318C592.765 178.68 595.643 179.916 596.613 182.895C597.805 186.553 595.121 191.308 596.542 194.425C598.609 194.692 600.153 193.393 601.726 192.173C602.266 191.761 602.789 191.328 603.294 190.873L604.106 191.38C604.605 193.556 604.717 193.899 606.727 195.102C607.207 195.389 607.718 195.621 608.214 195.877C610.106 196.855 610.835 197.958 612.056 199.678L612.971 200.375C617.897 198.793 624.061 191.635 626.411 187.128C625.08 185.181 623.477 181.655 621.191 181.05C620.987 180.996 619.778 180.832 619.609 180.807C615.047 180.123 613.116 177.624 610.191 174.375C607.241 173.99 604.238 173.789 601.518 172.516C601.29 172.409 601.059 172.311 600.832 172.204C598.283 171.008 596.34 169.173 594.103 167.513ZM655.691 172.884C647.038 179.101 638.571 190.346 636.653 201.021C636.478 201.999 636.471 202.978 636.441 203.967L636.276 208.51C637.754 206.148 639.164 203.766 641.047 201.698C648.567 193.085 657.397 184.892 666.753 178.297C663.358 176.002 659.799 173.643 655.691 172.884ZM671.335 183.209C661.571 186.485 645.605 202.783 640.743 212.071C639.956 213.576 639.043 215.792 639.847 217.474C639.954 217.699 640.148 217.87 640.298 218.068C641.715 216.536 642.114 214.138 643.187 212.327C647.156 205.633 655.33 201.259 663.052 201.05C667.552 200.928 671.757 202.166 675 205.381C677.949 208.305 679.791 212.243 680.775 216.236C683.264 226.337 682.585 238.305 682.606 248.679C682.697 258.483 682.668 268.287 682.518 278.091C682.334 286.962 682.892 299.212 679.608 307.478C678.362 310.613 676.15 313.381 674.073 316C673.01 332.96 669.95 349.723 668.791 366.652C680.202 364.897 691.085 362.092 702.158 358.86C726.156 352.526 755.539 341.871 773.028 323.826C766.704 311.712 761.321 299.116 755.463 286.773C747.311 269.371 738.638 252.218 729.455 235.337C722.463 222.289 714.807 207.237 704.396 196.594C699.335 191.42 693.038 187.779 686.161 185.578C681.243 184.004 676.451 183.603 671.335 183.209ZM635.762 249.891C630.396 276.377 619.352 301.653 601.611 322.261C598.183 326.242 586.395 337.686 584.748 340.645C585.461 341.298 585.838 341.462 586.841 341.339C587.005 341.318 587.148 341.216 587.302 341.154C593.523 334.227 600.563 328.856 607.622 322.867C618.37 313.748 629.634 303.634 638.635 292.774C638.37 285.321 637.311 277.95 636.968 270.511C636.692 264.504 637.233 258.186 636.597 252.25C636.503 251.376 636.27 250.612 635.762 249.891ZM666.952 322.09C661.649 325.268 656.759 329.046 651.493 332.274C642.442 337.823 608.539 357.028 599.98 357.117C593.732 362.527 587.335 367.87 581.503 373.729C581.503 379.192 582.138 414.641 579.86 417.02C576.738 420.28 568.925 421.539 564.683 423.232C566.997 424.581 568.669 425.842 569.466 428.482C569.148 430.015 568.834 430.746 567.474 431.607C563.244 434.291 557.209 435.279 552.497 437.045C533.97 443.99 499.924 456.548 494.395 477.775C492.492 485.081 494.149 493.049 497.942 499.489C504.431 510.51 514.676 516.163 526.375 520.242C541.204 525.171 558.004 526.712 573.43 529.273C601.833 533.989 630.418 538.51 658.537 544.729C656.539 520.775 653.292 497.031 650.555 473.165C649.367 462.801 647.114 451.274 647.54 440.856C647.864 432.901 650.739 424.679 652.442 416.899C655.374 403.503 657.976 389.956 660.594 376.494C662.864 364.822 663.681 352.772 664.946 340.961C665.546 335.356 666.575 329.8 667.245 324.203C667.328 323.508 667.503 322.661 666.952 322.09ZM586.622 345.234C581.559 345.362 574.973 346.349 570.534 348.887L569.965 349.809C573.045 350.961 577.101 347.637 580.089 348.76L580.2 349.548C577.038 353.623 568.935 355.331 567.243 359.688C567.908 360.762 568.013 360.821 569.168 361.347C571.741 361.285 573.707 359.558 575.792 358.188C576.855 357.876 577.579 357.61 578.681 357.849C579.037 358.799 579.103 359.051 578.694 360.054C577.97 361.828 576.301 363.701 575.118 365.215C575.695 366.101 576.025 366.493 576.976 366.969C583.011 366.56 591.14 355.903 596.752 352.634C593.678 349.241 591.587 345.563 586.622 345.234ZM551.137 356.825C542.882 369.596 533.776 380.998 523.758 392.403C534.46 399.294 544.194 407.604 554.229 415.409C555.845 416.586 557.441 417.804 559.148 418.848C564.679 417.6 569.763 415.52 574.92 413.196C575.298 400.535 574.632 386.896 576.647 374.407C568.041 368.756 559.504 362.829 551.137 356.825ZM727.09 356.97C712.595 362.887 683.807 370.601 668.299 372.133C664.089 385.123 661.985 399.159 659.019 412.508C657.296 420.261 652.957 435.484 652.748 442.662C652.459 452.538 655.765 466.729 656.982 476.962C659.354 496.895 660.85 516.98 663.317 536.881C663.449 538.397 663.31 540.122 664.225 541.342C671.925 543.114 681.489 542.637 689.406 542.558C690.322 526.576 689.879 510.659 689.905 494.668C689.919 486.534 690.435 478.4 690.54 470.264C690.63 463.297 689.452 452.92 691.053 446.439C692.949 438.761 699.261 427.437 702.637 419.944C708.04 407.943 713.186 395.828 718.072 383.607C721.579 375.001 725.277 366.39 728.002 357.499C727.45 356.888 727.776 357.019 727.09 356.97ZM706.693 426.874C703.543 432.827 698.046 441.182 696.621 447.572C695.212 453.888 696.31 464.02 696.334 470.842C696.239 488.287 696.015 505.731 695.662 523.173C695.51 530.904 696.163 539.278 695.072 546.898C694.828 548.608 693.986 549.712 692.916 551.002C693.117 554.341 693.401 557.701 693.449 561.045C703.192 563.563 712.76 566.718 722.09 570.49C727.277 572.556 732.425 575.036 737.714 576.796L740.749 573.167C746.444 566.711 752.175 560.471 758.412 554.528C757.806 552.216 757.592 549.775 756.833 547.525C753.306 537.07 747.071 526.778 742.165 516.864L720.022 472.992C716.052 465.286 709.724 455.626 707.751 447.238C706.244 440.829 707.077 433.715 707.19 427.173L706.661 427.782L707.083 427.063L706.693 426.874ZM785.074 541.336C778.097 545.575 770.319 546.061 762.86 548.959C763.988 550.784 765.002 552.827 766.694 554.184C772.728 553.784 782.61 550.803 786.874 546.295C787.618 545.508 787.948 544.743 787.887 543.659C787.845 542.908 787.277 542.478 786.705 542.029C786.185 541.62 785.71 541.442 785.074 541.336ZM664.579 548.534C663.08 549.971 661.968 551.488 661.925 553.663C661.894 555.23 662.853 556.493 664.039 557.401C666.911 559.601 673.664 562.013 677.356 561.444C679.107 561.174 680.954 560.333 682.521 559.512C685.455 557.017 686.101 554.832 687.093 551.265C679.734 550.135 672.028 548.453 664.579 548.534ZM790.633 551.357C781.941 556.162 772.715 560.372 762.543 559.122L759.841 558.799C762.453 560.255 766.688 562.029 767.993 564.837L767.549 565.7C765.036 566.284 761.54 564.872 758.963 564.521C758.297 564.431 757.151 564.359 756.513 564.633C752.878 566.195 746.523 576.455 743.486 579.861C745.055 580.979 748.854 580.389 750.704 580.087C765.364 577.69 783.969 569.687 797.11 562.643C795.9 559.346 794.448 553.891 791.685 551.578L790.633 551.357ZM659.875 561.64L656.445 562.182L656.021 562.861L656.293 563.398C656.979 564.777 657.449 565.729 657.469 567.276L657.096 568.031C655.96 568.079 655.429 567.648 654.603 566.91C652.976 565.456 651.976 563.62 649.944 562.652L648.832 562.788C647.88 564.179 647.961 566.527 646.57 567.179C645.191 566.416 644.888 565.887 644.165 564.507C643.844 563.895 643.482 563.464 642.996 562.979C642.435 562.888 642.076 562.636 641.616 563.061C640.259 564.311 640.416 566.972 638.156 567.211C637.424 565.822 637.261 564.346 637.003 562.817L636.255 562.64C634.78 563.68 633.131 565.993 631.494 566.373L631.117 565.91L632.054 562.522L631.694 562.155C628.482 562.184 624.598 562.171 622.212 564.726C621.546 565.439 621.686 565.614 621.589 566.529C623.449 569.88 628.856 571.163 632.334 572.156C633.508 572.5 634.69 572.817 635.879 573.107C652.696 576.591 670.709 578.395 687.743 575.292C687.881 572.059 688.705 567.229 686.765 564.443C683.603 563.97 679.264 567.949 673.497 567.189C669.193 566.622 662.788 561.337 659.875 561.64Z"/>
	<path fill="#0F0C2D" d="M612.594 167.24L612.003 166.505C610.887 166.518 610.934 166.425 609.886 167.038C607.566 168.395 604.554 170.361 601.742 169.343C598.912 168.319 597.775 166.07 596.534 163.512L595.398 161.172C591.526 163.685 587.762 168.685 584.348 170.509C583.501 170.961 582.518 170.912 581.595 170.851C580.611 170.126 580.432 169.952 580.298 168.629C579.75 163.223 590.058 146.829 594.039 143.142C598.71 138.815 604.782 135.999 611.248 136.345C617.611 136.685 624.001 139.71 628.246 144.469C633.736 150.624 634.299 158.95 638.565 165.639C640.094 168.037 643.851 172.262 643.77 175.126C643.749 175.869 643.246 176.122 642.767 176.615C638.226 177.663 632.394 174.587 627.376 174.386C627.259 174.381 627.143 174.367 627.027 174.358C625.068 172.909 622.942 170.738 620.5 170.324L619.203 170.849C618.808 170.122 618.427 169.435 617.879 168.809C616.52 167.258 614.492 167.35 612.594 167.24Z"/>
	<path fill="#FEFEFE" d="M583.834 172.743C587.659 171.553 590.775 169.682 594.103 167.513C596.34 169.173 598.283 171.008 600.832 172.204C601.059 172.311 601.29 172.409 601.518 172.516C604.238 173.789 607.241 173.99 610.191 174.375C613.116 177.624 615.047 180.123 619.609 180.807C619.778 180.832 620.987 180.996 621.191 181.05C623.477 181.655 625.08 185.181 626.411 187.128C624.061 191.635 617.897 198.793 612.971 200.375L612.056 199.678C610.835 197.958 610.106 196.855 608.214 195.877C607.718 195.621 607.207 195.389 606.727 195.102C604.717 193.899 604.605 193.556 604.106 191.38L603.294 190.873C602.789 191.328 602.266 191.761 601.726 192.173C600.153 193.393 598.609 194.692 596.542 194.425C595.121 191.308 597.805 186.553 596.613 182.895C595.643 179.916 592.765 178.68 590.197 177.318C587.728 176.009 585.899 174.591 583.834 172.743Z"/>
	<path fill="#FEFEFE" d="M612.594 167.24C614.492 167.35 616.52 167.258 617.879 168.809C618.427 169.435 618.808 170.122 619.203 170.849C619.567 172.76 619.956 174.452 619.444 176.373L618.76 176.508C616.156 174.631 614.271 171.183 612.321 168.628L612.594 167.24Z"/>
	<path fill="#9F8BE8" d="M636.276 208.51L636.441 203.967C636.471 202.978 636.478 201.999 636.653 201.021C638.571 190.346 647.038 179.101 655.691 172.884C659.799 173.643 663.358 176.002 666.753 178.297C657.397 184.892 648.567 193.085 641.047 201.698C639.164 203.766 637.754 206.148 636.276 208.51Z"/>
	<path fill="#FEFEFE" d="M630.467 192.883C631.549 191.193 632.712 189.519 633.604 187.719C630.816 184.718 628.453 182.336 626.504 178.71C631.323 178.358 636.057 178.246 640.873 178.724C637.855 183.489 634.909 188.002 632.953 193.339L630.467 192.883Z"/>
	<path fill="#9F8BE8" d="M674.073 316C676.15 313.381 678.362 310.613 679.608 307.478C682.892 299.212 682.334 286.962 682.518 278.091C682.668 268.287 682.697 258.483 682.606 248.679C682.585 238.305 683.264 226.337 680.775 216.236C679.791 212.243 677.949 208.305 675 205.381C671.757 202.166 667.552 200.928 663.052 201.05C655.33 201.259 647.156 205.633 643.187 212.327C642.114 214.138 641.715 216.536 640.298 218.068C640.148 217.87 639.954 217.699 639.847 217.474C639.043 215.792 639.956 213.576 640.743 212.071C645.605 202.783 661.571 186.485 671.335 183.209C676.451 183.603 681.243 184.004 686.161 185.578C693.038 187.779 699.335 191.42 704.396 196.594C714.807 207.237 722.463 222.289 729.455 235.337C738.638 252.218 747.311 269.371 755.463 286.773C761.321 299.116 766.704 311.712 773.028 323.826C755.539 341.871 726.156 352.526 702.158 358.86C691.085 362.092 680.202 364.897 668.791 366.652C669.95 349.723 673.01 332.96 674.073 316Z"/>
	<path fill="#FD90D2" d="M625.78 197.346C627.353 195.869 628.915 194.382 630.467 192.883L632.953 193.339C632.03 195.663 631.484 198.266 630.798 200.678C629.084 199.641 627.441 198.466 625.78 197.346Z"/>
	<path fill="#FEFEFE" d="M644.783 296.363C644.613 289.612 643.17 282.793 642.577 276.047C641.7 265.102 641.49 254.113 641.948 243.142C642.327 232.831 642.501 219.017 650.832 211.598C654.325 208.488 659.239 206.123 664.012 206.486C667.535 206.754 669.925 208.091 672.123 210.783C664.483 212.352 658.1 215.602 653.765 222.39C650.035 228.231 649.25 235.433 648.903 242.197C646.604 286.979 665.724 294.632 625.573 329.77C619.386 335.184 610.816 343.917 602.725 345.845C601.326 346.179 599.892 345.936 598.491 345.744C597.534 344.085 595.003 342.886 593.398 341.852C600.871 334.292 610.297 327.948 618.29 320.852C625.915 314.083 636.775 301.143 644.783 296.363Z"/>
	<path fill="#9F8BE8" d="M672.123 210.783C674.293 214.187 675.193 218.032 675.689 221.99C676.956 232.101 676.158 243.23 676.129 253.441C676.087 268.099 677.581 287.3 674.488 301.437C671.983 312.891 660.196 319.724 650.913 325.6C635.78 335.179 619.21 344.27 602.638 351.027L598.491 345.744C599.892 345.936 601.326 346.179 602.725 345.845C610.816 343.917 619.386 335.184 625.573 329.77C665.724 294.632 646.604 286.979 648.903 242.197C649.25 235.433 650.035 228.231 653.765 222.39C658.1 215.602 664.483 212.352 672.123 210.783Z"/>
	<defs>
		<linearGradient id="gradient_0" gradientUnits="userSpaceOnUse" x1="227.09206" y1="249.34058" x2="127.18293" y2="609.2959">
			<stop offset="0" stop-color="#0B0A09"/>
			<stop offset="1" stop-color="#0C0A1B"/>
		</linearGradient>
	</defs>
	<path fill="url(#gradient_0)" d="M116.096 318.331C104.736 300.572 99.9036 289.64 103.264 268.222C104.379 261.12 105.687 254.099 105.567 246.873C105.41 237.392 101.528 230.216 100.659 221.542C101.516 221.685 102.457 221.777 103.143 222.377C105.426 224.374 107.09 228.703 108.117 231.549C115.88 253.063 106.811 263.762 109.254 283.139C112.205 306.545 137.612 333.232 155.686 347.119C148.718 324.74 149.914 320.843 153.933 298.915C154.879 293.75 155.851 288.032 155.131 282.778C154.347 277.058 151.046 272.288 149.102 266.949C145.781 257.832 141.309 236.309 141.787 226.655C141.842 225.544 141.758 225.293 142.599 224.514C144.001 225.305 144.481 226.831 144.953 228.319C146.999 234.762 147.813 241.697 149.399 248.284C151.249 255.969 154.089 263.397 156.916 270.765C157.429 263.446 157.12 256.156 156.841 248.841C156.782 247.289 156.803 246.002 157.867 244.835C158.278 244.993 158.387 245 158.759 245.343C161.924 248.269 161.758 256.082 162.114 260.094C163.051 270.687 163.536 281.652 162.844 292.279C162.089 303.877 157.818 315.767 160.529 327.367C163.317 339.296 169.084 348.33 175.539 358.51C185.945 374.919 192.021 390.802 193.087 410.373C198.419 404.35 204.539 399.078 209.819 393.037C223.028 377.925 221.797 358.315 225.219 339.646C226.316 333.665 231.252 321.702 231.191 316.664C231.123 311.066 229.615 305.071 229.085 299.46C227.806 285.924 229.874 271.104 233.551 258.095C234.029 256.402 234.546 253.875 236.144 252.982C238.174 254.87 236.4 261.481 236.168 264.279C234.907 279.521 235.148 293.847 236.779 309.031C238.634 305.022 252.886 278.872 254.803 278.1L255.6 278.546C255.927 286.374 242.311 311.072 238.904 320.302C236.038 328.066 233.826 337.179 233.111 345.452C245.427 342.34 265.133 335.076 273.897 325.638C278.381 320.808 281.754 314.898 286.045 309.862C293.507 301.103 301.568 292.843 308.774 283.868C310.7 281.47 314.3 275.7 316.955 274.683C320.267 281.236 294.617 305.798 293.612 310.281L294.237 310.945C303.004 312.421 315.407 307.733 324.422 306.554C315.084 313.96 300.183 316.702 288.535 316.466C285.126 321.543 281.742 326.729 277.381 331.056C266.244 342.105 247.943 349.026 233.049 353.365C232.053 362.283 232.457 371.583 229.545 380.176C226.168 390.137 219.062 398.211 212.574 406.269C197.368 425.156 192.38 446.348 189.755 469.91C199.891 459.548 210.675 451.747 222.989 444.225C224.21 440.607 225.535 436.992 227.184 433.545C230.741 426.112 235.921 418.788 241.031 412.308C245.995 406.015 280.947 367.915 286.027 366.628C286.69 366.46 286.883 366.809 287.394 367.157C287.385 371.708 252.633 407.729 247.439 414.609C241.491 422.456 236.486 430.976 232.528 439.992C239.267 437.876 246.008 435.861 252.972 434.604C262.644 432.858 273.267 432.753 282.278 428.59C285.938 426.896 289.444 424.89 292.759 422.593C299.086 418.143 320.761 399.462 326.376 398.756L326.806 399.315C324.444 406.242 299.712 425.711 292.856 429.744C302.517 429.023 312.531 427.431 321.983 425.29C329.021 423.696 336.004 421.632 343.114 420.404C344.148 420.225 344.153 420.381 345.055 420.799L344.87 421.671C331.516 433.765 259.151 439.315 235.65 449.058C220.229 455.288 209.462 465.12 198.564 477.518C196.488 479.879 194.263 482.527 193.091 485.468C191.604 489.198 191.656 493.668 191.903 497.621C193.154 517.687 202.536 531.073 208.442 549.301C211.467 558.637 212.565 568.342 213.134 578.091C218.055 575.993 223.615 574.552 228.904 573.781C237.821 572.481 258.514 572.724 265.807 578.673C266.595 579.315 266.37 578.989 266.51 579.999C264.65 581.167 249.129 578.793 245.992 578.616C242.74 578.44 239.481 578.451 236.23 578.647C227.053 579.188 216.78 581.37 208.633 585.749C206.726 586.774 205.085 587.653 204.435 589.79C205.607 592.389 211.543 595.53 213.637 598.608C214.523 599.911 215.458 600.934 215.164 602.502C214.777 602.772 214.454 603.169 214.005 603.311C212.127 603.905 206.962 599.37 205.371 598.243C195.574 591.31 181.882 586.665 170.008 585.206C149.196 582.649 130.858 589.398 113 599.431C110.581 600.789 106.976 604.216 104.357 604.547C103.606 603.753 103.394 603.382 103.565 602.234C103.82 600.531 105.628 598.889 106.868 597.863C116.946 589.524 136.941 581.538 149.79 579.694C156.071 578.792 163.209 578.999 169.514 579.561C173.691 570.826 175.704 563.975 175.368 554.26C170.254 548.388 162.956 543.616 156.389 539.495C148.045 534.191 139.54 529.145 130.886 524.363C109.846 512.535 99.6995 505.135 89.5842 482.564C83.3744 478.76 76.9262 475.36 70.2797 472.385C64.3807 469.769 58.2712 467.866 52.9832 464.076C66.4967 465.728 77.6195 470.746 89.3834 477.399C85.484 459.052 75.4618 444.617 63.018 430.884C60.8647 428.507 55.9816 424.645 54.7965 421.826C54.4707 421.052 54.7347 420.933 55.0482 420.243C57.5774 420.047 62.912 425.007 64.7003 426.691C76.3158 437.632 86.8223 450.793 93.1181 465.561C97.1148 474.935 100.105 484.759 106.469 492.91C112.793 501.011 121.653 506.044 130.482 510.945C125.086 499.943 124.489 488.23 125.852 476.211C126.364 471.693 127.264 467.026 127.21 462.474C127.151 457.499 125.806 452.19 124.631 447.363C122.658 439.261 104.311 395.347 104.534 392.583L105.359 392.673C114.518 401.01 125.527 431.147 131.456 443.67C131.573 439.35 131.747 434.997 131.462 430.682C131.105 425.289 127.141 397.024 129.09 393.69C132.022 395.563 133.107 403.622 133.747 406.922C136.311 420.158 138.725 433.65 138.416 447.183C137.971 466.626 132.037 481.68 137.934 501.525C142.721 517.635 157.235 526.353 171.189 533.88C169.847 528.683 168.349 523.445 167.457 518.15C164.124 498.361 166.532 477.501 170.558 458.002C173.098 445.698 175.928 433.556 177.126 421.021C178.327 408.445 177.519 396.372 173.224 384.42C172.306 381.864 171.313 378.855 169.529 376.771C159.171 364.676 146.775 354.074 135.544 342.793C131.348 338.577 126.93 332.084 121.992 328.905C118.926 326.931 114.573 325.966 111.107 324.68C101.107 320.968 92.6223 316.489 84.4447 309.558C77.8053 309.394 71.3596 308.547 64.7828 307.879C61.5239 307.548 58.2067 307.681 54.979 307.057C53.7241 306.815 52.2744 306.473 51.5505 305.387C51.6461 305.282 51.7282 305.162 51.8372 305.071C55.1867 302.267 75.5446 304.215 79.9986 304.716C73.8663 294.762 61.613 288.595 55.1554 278.769C54.4684 277.724 54.2048 277.223 54.4426 275.958L55.2573 275.535C59.7282 276.725 86.7034 303.146 93.6409 307.943C100.441 312.644 108.404 315.445 116.096 318.331Z"/>
	<path fill="#9F8BE8" d="M587.302 341.154C587.148 341.216 587.005 341.318 586.841 341.339C585.838 341.462 585.461 341.298 584.748 340.645C586.395 337.686 598.183 326.242 601.611 322.261C619.352 301.653 630.396 276.377 635.762 249.891C636.27 250.612 636.503 251.376 636.597 252.25C637.233 258.186 636.692 264.504 636.968 270.511C637.311 277.95 638.37 285.321 638.635 292.774C629.634 303.634 618.37 313.748 607.622 322.867C600.563 328.856 593.523 334.227 587.302 341.154Z"/>
	<path fill="#C9BCDD" d="M599.98 357.117C608.539 357.028 642.442 337.823 651.493 332.274C656.759 329.046 661.649 325.268 666.952 322.09C667.503 322.661 667.328 323.508 667.245 324.203C666.575 329.8 665.546 335.356 664.946 340.961C663.681 352.772 662.864 364.822 660.594 376.494C657.976 389.956 655.374 403.503 652.442 416.899C650.739 424.679 647.864 432.901 647.54 440.856C647.114 451.274 649.367 462.801 650.555 473.165C653.292 497.031 656.539 520.775 658.537 544.729C630.418 538.51 601.833 533.989 573.43 529.273C558.004 526.712 541.204 525.171 526.375 520.242C514.676 516.163 504.431 510.51 497.942 499.489C494.149 493.049 492.492 485.081 494.395 477.775C499.924 456.548 533.97 443.99 552.497 437.045C557.209 435.279 563.244 434.291 567.474 431.607C568.834 430.746 569.148 430.015 569.466 428.482C568.669 425.842 566.997 424.581 564.683 423.232C568.925 421.539 576.738 420.28 579.86 417.02C582.138 414.641 581.503 379.192 581.503 373.729C587.335 367.87 593.732 362.527 599.98 357.117Z"/>
	<path fill="#FEFEFE" d="M575.792 358.188C573.707 359.558 571.741 361.285 569.168 361.347C568.013 360.821 567.908 360.762 567.243 359.688C568.935 355.331 577.038 353.623 580.2 349.548L580.089 348.76C577.101 347.637 573.045 350.961 569.965 349.809L570.534 348.887C574.973 346.349 581.559 345.362 586.622 345.234C591.587 345.563 593.678 349.241 596.752 352.634C591.14 355.903 583.011 366.56 576.976 366.969C576.025 366.493 575.695 366.101 575.118 365.215C576.301 363.701 577.97 361.828 578.694 360.054C579.103 359.051 579.037 358.799 578.681 357.849C577.579 357.61 576.855 357.876 575.792 358.188Z"/>
	<path fill="#9F8BE8" d="M523.758 392.403C533.776 380.998 542.882 369.596 551.137 356.825C559.504 362.829 568.041 368.756 576.647 374.407C574.632 386.896 575.298 400.535 574.92 413.196C569.763 415.52 564.679 417.6 559.148 418.848C557.441 417.804 555.845 416.586 554.229 415.409C544.194 407.604 534.46 399.294 523.758 392.403Z"/>
	<path fill="#FEFEFE" d="M668.299 372.133C683.807 370.601 712.595 362.887 727.09 356.97C727.776 357.019 727.45 356.888 728.002 357.499C725.277 366.39 721.579 375.001 718.072 383.607C713.186 395.828 708.04 407.943 702.637 419.944C699.261 427.437 692.949 438.761 691.053 446.439C689.452 452.92 690.63 463.297 690.54 470.264C690.435 478.4 689.919 486.534 689.905 494.668C689.879 510.659 690.322 526.576 689.406 542.558C681.489 542.637 671.925 543.114 664.225 541.342C663.31 540.122 663.449 538.397 663.317 536.881C660.85 516.98 659.354 496.895 656.982 476.962C655.765 466.729 652.459 452.538 652.748 442.662C652.957 435.484 657.296 420.261 659.019 412.508C661.985 399.159 664.089 385.123 668.299 372.133Z"/>
	<path fill="#FEFEFE" d="M252.385 1024C261.517 1019.65 271.271 1016.48 280.559 1012.44C297.57 1005.03 339.611 984.927 345.69 966.877C347.14 962.572 346.577 958.492 344.41 954.536C340.638 947.653 333.929 942.301 327.701 937.759C320.908 932.805 301.445 923.816 304.482 913.443C307.258 903.964 324.92 894.913 333.132 890.776C356.966 878.772 382.354 869.802 407.845 862.016C422.652 857.493 438.702 854.426 452.712 847.68C457.067 845.583 462.253 841.948 463.842 837.141C465.039 833.519 464.063 829.606 462.241 826.386C447.802 800.87 359.851 787.155 366.702 761.04C368.561 753.952 376.946 748.81 382.988 745.526C412.066 729.72 445.761 720.836 477.517 711.961C487.743 709.103 497.883 705.762 508.133 703.046C539.056 694.852 570.19 687.644 601.068 679.227C619.457 674.214 639.343 670.954 656.819 663.161C665.223 659.414 675.161 653.054 678.098 643.786C679.597 639.056 678.989 633.759 676.7 629.383C673.696 623.641 668.097 619.498 662.97 615.774C632.604 593.717 583.555 580.138 547.683 568.642C526.032 561.704 504.541 554.268 483.693 545.166C468.166 538.387 451.952 530.634 439.449 518.939C432.796 512.716 426.876 504.964 429.568 495.259C433.456 481.25 454.18 469.195 466.295 462.72C489.479 450.583 513.574 440.274 538.362 431.885C544.657 429.73 551.04 427.269 557.457 425.527C558.779 426.105 559.497 426.475 560.495 427.568C559.99 428.768 558.701 429.089 557.524 429.578C536.263 438.42 501.13 448.333 490.893 471.155C487.199 479.39 487.661 488.748 490.943 497.02C495.618 508.808 506.402 518.488 518.011 523.285C534.995 530.304 555.427 531.522 573.462 534.649C601.589 539.399 629.636 544.611 657.592 550.283L656.934 555.834C648.393 556.39 632.67 555.723 625.343 557.378C622.46 558.029 619.195 559.308 617.206 561.594C616.087 562.856 615.537 564.523 615.686 566.203C615.903 568.839 617.436 570.94 619.509 572.485C632.974 582.523 672.324 583.656 688.882 580.481C690.143 580.239 691.015 579.923 691.788 578.85C694.227 575.463 690.943 570.259 694.358 567.536C700.831 566.542 729.907 578.999 736.502 582.407C736.902 583.332 737.172 584.184 737.425 585.152C737.683 586.138 737.838 586.769 738.758 587.346C742.237 589.528 747.22 587.634 751.005 588.804C767.915 594.032 807.388 615.599 812.749 632.362C814.381 637.463 813.607 642.711 810.996 647.335C801.212 664.667 769.375 676.176 750.749 680.96C730.575 686.288 710.19 690.788 689.648 694.448C655.648 700.74 621.55 706.344 587.739 713.645C564.755 718.608 537.562 724.254 516.621 735.056C510.899 738.008 504.807 742.143 501.536 747.845C499.36 751.581 498.813 756.047 500.024 760.198C502.338 768.195 509.295 772.41 516.204 776.041C536.25 786.575 565.194 794.239 587.067 801.68C596.83 805.002 607.553 808.283 616.363 813.727C620.706 816.41 623.75 819.244 625.823 824.006L625.515 824.644C624.249 827.215 622.955 829.136 620.674 830.934C608.246 840.73 576.794 849.203 561.102 854.66C551.722 857.946 542.501 861.668 533.469 865.815C526.813 868.839 519.381 872.068 514.073 877.229C511.137 880.083 508.975 884.235 510.33 888.393C513.037 896.694 528.25 903.202 535.729 906.666C563.871 919.702 593.658 928.547 623.369 937.15L714.863 962.855C746.092 971.716 778.625 980.897 807.264 996.476C821.226 1004.07 833.609 1014 845.883 1024L252.385 1024ZM477.517 475.687C468.954 476.982 461.503 480.477 456.221 487.559C452.528 492.511 449.691 500.336 450.136 506.564L450.638 507.246C451.539 506.755 451.593 506.716 452.092 505.904C455.307 494.064 462.107 486.139 472.939 480.288C475.274 479.026 478.152 478.391 480.134 476.615L479.948 475.901C479.134 475.811 478.335 475.736 477.517 475.687ZM479.37 503.067C477.116 512.042 478.548 521.547 483.348 529.459C487.879 537.071 495.264 542.117 503.813 544.232C507.097 545.044 510.939 545.705 514.249 544.928L514.695 544.222C512.811 542.414 509.28 541.312 506.881 540.201C494.943 534.672 488.039 527.642 484.202 515.038C483.589 513.025 482.104 504.629 480.82 503.67C480.401 503.356 479.853 503.268 479.37 503.067ZM564.75 546.194C557.371 546.92 548.485 549.189 542.444 553.649L542.068 554.479C544.507 555.003 547.905 554.141 550.367 553.749C564.016 551.579 574.185 551.158 586.751 557.783C590.265 560.15 596.625 568.003 600.362 568.221C600.913 567.138 600.664 566.299 600.334 565.165C598.355 558.381 591.747 553.084 585.636 550.017C578.989 546.682 572.091 545.887 564.75 546.194ZM690.818 595.615C685.381 596.768 676.442 597.964 672.233 601.885L672.294 602.704C674.871 603.447 681.138 601.459 684.081 601.104C695.521 599.722 714.848 600.897 723.707 609.304C726.563 612.469 728.613 617.511 731.678 620.15C732.613 619.62 732.568 619.467 732.809 618.45C733.543 615.358 731.917 611.887 730.255 609.376C725.228 601.784 715.203 597.521 706.5 596.01C701.339 595.115 696.024 595.201 690.818 595.615ZM770.817 630.185C759.081 631.517 749.257 635.75 741.833 645.142C738.454 649.417 735.878 654.407 733.792 659.425C738.525 655.923 741.795 650.54 746.341 646.667C750.825 642.855 755.202 639.867 760.778 637.864C764.867 636.396 769.379 635.321 773.697 634.843C777.566 634.414 788.079 635.923 790.708 633.391C790.307 632.387 790.23 632.014 789.141 631.56C784.528 629.637 775.704 629.506 770.817 630.185ZM708.499 642.142C704.03 656.772 701.43 666.437 686.864 674.055C683.166 675.989 678.88 677.645 674.846 678.711C670.925 679.747 662.56 679.141 659.713 681.648C659.849 682.859 659.907 682.752 660.597 683.637C674.805 683.514 690.715 682.293 701.217 671.479C706.86 665.669 710.834 656.865 710.64 648.702C710.59 646.615 710.299 644.788 709.421 642.894L708.499 642.142ZM611.911 683.939C606.308 687.569 600.771 690.725 594.565 693.25C587.384 696.171 579.827 698.382 572.377 700.508C568.231 701.692 563.905 702.605 559.962 704.382C558.759 704.925 557.694 705.377 557.09 706.616C557.435 707.405 557.333 707.513 558.12 707.962C573.01 705.807 601.988 700.513 611.674 687.937C612.623 686.705 612.877 685.955 612.625 684.432L611.911 683.939ZM515.214 709.817C506.957 717.622 497.511 724.762 486.259 727.424C483.073 728.178 479.146 727.962 476.214 729.176C474.346 729.95 465.243 729.455 462.992 729.162C461.706 728.995 460.442 728.695 459.185 728.382C458.788 728.283 458.348 727.858 457.998 728.07C457.801 728.189 457.792 728.482 457.689 728.689C458.63 729.617 459.488 730.278 460.59 730.982C473.313 735.09 487.102 734.809 499.13 728.62C504.291 725.965 514.557 718.208 516.577 712.759C516.836 712.062 516.808 712.025 516.875 711.395C516.278 710.365 516.306 710.243 515.214 709.817ZM432.959 751.799C427.1 752.279 421.188 752.212 415.347 752.84C406.492 753.793 397.751 755.692 388.811 755.615L388.09 756.276C388.3 756.939 388.222 757.276 388.9 757.625C394.631 760.58 423.202 758.064 432.15 758.804C432.546 758.837 432.943 758.86 433.34 758.887C446.819 757.765 459.598 763.712 471.943 768.056C466.644 759.861 458.211 755.894 448.887 753.919C444.405 752.97 436.47 753.046 432.959 751.799ZM457.082 780.171C456.625 784.595 459.866 790.585 462.551 794.001C469.486 802.826 482.034 806.517 492.77 807.516C503.443 808.509 513.584 808.413 524.093 806.115L525.29 805.456L525.258 804.784C521.466 803.497 513.78 804.727 509.432 804.603C506.203 804.511 503.714 803.728 500.632 803.213C495.115 802.29 490.608 802.081 485.252 800.111C479.775 798.097 473.657 795.477 469.147 791.697C465.876 788.955 460.492 781.664 457.082 780.171ZM565.255 816.718C560.92 817.218 556.807 817.881 552.651 819.242C544.332 821.968 529.92 829.49 523.912 836.059L523.813 836.754C528.237 836.972 542.486 829.536 547.384 827.491C556.605 824.097 565.374 821.898 575.254 821.803C578.089 821.776 594.761 823.399 595.946 822.601C595.196 821.145 594.057 820.834 592.549 820.362C584.166 817.736 574.759 816.63 566.078 816.823C565.801 816.829 565.529 816.753 565.255 816.718ZM507.516 852.841C490.261 853.727 473.031 855.512 460.71 869.172C457.413 872.827 452.052 880.535 452.37 885.494C452.434 886.492 452.399 887.188 453.093 887.969C454.251 887.527 454.542 887.025 455.042 885.886C455.913 883.902 456.387 882.248 457.711 880.474C469.952 864.631 488.21 859.396 507.394 857.023C510.643 856.621 518.751 857.061 521 854.996C520.287 854.008 519.249 853.898 518.077 853.724C514.592 853.206 511.008 853.359 507.516 852.841ZM402.166 886.236C401.793 888.023 401.862 888.501 402.831 890.056C410.674 902.633 423.52 909.604 437.805 912.303C448.548 914.333 457.753 912.948 468.391 911.169L469.399 910.46L469.415 909.431C466.224 907.683 453.542 908.959 448.906 908.367C441.985 907.485 434.884 905.81 428.392 903.241C422.799 901.028 417.275 898.321 412.493 894.637C409.937 892.667 405.798 887.799 404.126 886.678C403.76 886.433 402.633 886.296 402.166 886.236ZM342.192 905.79C348.335 918.172 357.867 926.545 371.069 930.967C380.425 934.102 393.863 935.962 403.561 933.739C403.332 933.416 403.195 933 402.873 932.77C401.304 931.65 392.912 930.788 390.47 930.33C384.368 929.186 378.077 927.495 372.32 925.177C366.474 922.824 360.179 919.982 355.249 915.991C352.734 913.955 346.275 906.632 343.856 905.96C343.374 905.827 342.699 905.816 342.192 905.79ZM488.71 925.697C487.14 928.005 485.82 930.484 483.991 932.601C471.556 946.994 451.503 953.199 433.392 956.645C428.274 957.619 422.97 958.733 417.765 959.023C414.624 959.199 411.346 958.74 408.251 959.07C406.907 959.213 405.873 959.488 404.695 960.18L404.295 960.937C404.911 961.791 405.165 962.003 406.269 962.049C406.698 962.067 407.45 961.912 407.889 961.833C418.227 964.697 441.078 961.684 451.281 958.694C457.311 956.911 463.114 954.435 468.574 951.316C476.833 946.648 487.289 937.287 489.54 927.633C489.606 927.351 489.656 927.065 489.714 926.781C489.042 925.827 489.421 926.142 488.71 925.697ZM549.968 942.732C535.022 944.403 507.396 952.065 497.076 963.911C496.698 964.345 496.324 964.773 495.957 965.216C508.76 960.184 520.872 954.944 534.314 951.703C553.867 947.516 572.303 947.838 592.118 949.747C593.452 949.876 595.541 950.114 596.488 949.063C594.371 947.085 571.927 943.01 568.276 942.917C562.243 942.762 556.005 942.326 549.968 942.732ZM665.519 974.821C656.946 975.516 633.31 978.835 627.681 984.509L627.571 985.522C630.003 986.158 650.15 982.046 655.046 981.661C664.751 980.9 675.067 981.239 684.624 983.109C690.656 984.528 696.443 986.264 702.209 988.547C706.458 990.23 711.475 993.183 715.905 993.94L716.221 993.14L715.876 993.746C715.985 993.066 716.185 992.91 715.764 992.324C710.494 984.991 689.793 977.47 680.931 976.116C675.81 975.333 670.625 975.5 665.519 974.821ZM403.698 978.866L403.104 979.633C401.969 981.126 401.191 982.825 400.109 984.354C394.07 992.893 387.632 998.387 377.82 1002.07C373.958 1003.52 370.2 1004.91 366.103 1005.53C362.41 1006.08 349.376 1006.46 347.294 1008.41L347.553 1009.21C348.142 1009.44 348.715 1009.68 349.329 1009.82C363.634 1011.51 381.576 1010.33 393.4 1001.09C399.292 996.477 403.503 990.012 404.412 982.482C404.528 981.523 404.785 980.247 404.185 979.384C404.05 979.19 403.86 979.039 403.698 978.866ZM566.714 980.723C558.815 981.008 549.218 980.943 541.748 983.405L541.006 984.24L541.421 985.181C545.568 986.324 550.377 985.351 554.677 985.658C577.394 987.284 593.539 989.441 613.755 1001.13C616.641 1002.62 626.339 1010.39 627.867 1010.43C628.192 1009.13 627.955 1008.55 627.238 1007.4C619.344 994.78 595.606 984.685 581.491 982.054C576.692 981.16 571.6 980.586 566.714 980.723ZM451.7 995.095C451.616 996.011 451.348 996.274 451.992 997.012C456.952 1002.7 483.138 1007.71 490.815 1007.7C500.383 1007.69 512.535 1005.9 521.408 1002.2C522.688 1001.59 523.863 1001.35 524.585 1000.1C523.993 999.756 523.602 999.649 522.914 999.663C518.702 999.747 514.4 1000.67 510.205 1001.13C505.018 1001.69 499.723 1001.86 494.503 1001.79C479.984 1001.67 465.562 999.413 451.7 995.095Z"/>
	<path fill="#C9BCDD" d="M692.916 551.002C693.986 549.712 694.828 548.608 695.072 546.898C696.163 539.278 695.51 530.904 695.662 523.173C696.015 505.731 696.239 488.287 696.334 470.842C696.31 464.02 695.212 453.888 696.621 447.572C698.046 441.182 703.543 432.827 706.693 426.874L707.083 427.063L706.661 427.782L707.19 427.173C707.077 433.715 706.244 440.829 707.751 447.238C709.724 455.626 716.052 465.286 720.022 472.992L742.165 516.864C747.071 526.778 753.306 537.07 756.833 547.525C757.592 549.775 757.806 552.216 758.412 554.528C752.175 560.471 746.444 566.711 740.749 573.167L737.714 576.796C732.425 575.036 727.277 572.556 722.09 570.49C712.76 566.718 703.192 563.563 693.449 561.045C693.401 557.701 693.117 554.341 692.916 551.002Z"/>
	<path fill="#090809" d="M452.092 505.904C451.593 506.716 451.539 506.755 450.638 507.246L450.136 506.564C449.691 500.336 452.528 492.511 456.221 487.559C461.503 480.477 468.954 476.982 477.517 475.687C478.335 475.736 479.134 475.811 479.948 475.901L480.134 476.615C478.152 478.391 475.274 479.026 472.939 480.288C462.107 486.139 455.307 494.064 452.092 505.904Z"/>
	<path fill="#090809" d="M514.249 544.928C510.939 545.705 507.097 545.044 503.813 544.232C495.264 542.117 487.879 537.071 483.348 529.459C478.548 521.547 477.116 512.042 479.37 503.067C479.853 503.268 480.401 503.356 480.82 503.67C482.104 504.629 483.589 513.025 484.202 515.038C488.039 527.642 494.943 534.672 506.881 540.201C509.28 541.312 512.811 542.414 514.695 544.222L514.249 544.928Z"/>
	<path fill="#9F8BE8" d="M762.86 548.959C770.319 546.061 778.097 545.575 785.074 541.336C785.71 541.442 786.185 541.62 786.705 542.029C787.277 542.478 787.845 542.908 787.887 543.659C787.948 544.743 787.618 545.508 786.874 546.295C782.61 550.803 772.728 553.784 766.694 554.184C765.002 552.827 763.988 550.784 762.86 548.959Z"/>
	<path fill="#090809" d="M586.751 557.783C574.185 551.158 564.016 551.579 550.367 553.749C547.905 554.141 544.507 555.003 542.068 554.479L542.444 553.649C548.485 549.189 557.371 546.92 564.75 546.194C572.091 545.887 578.989 546.682 585.636 550.017C591.747 553.084 598.355 558.381 600.334 565.165C600.664 566.299 600.913 567.138 600.362 568.221C596.625 568.003 590.265 560.15 586.751 557.783Z"/>
	<path fill="#0F0C2D" d="M682.521 559.512C680.954 560.333 679.107 561.174 677.356 561.444C673.664 562.013 666.911 559.601 664.039 557.401C662.853 556.493 661.894 555.23 661.925 553.663C661.968 551.488 663.08 549.971 664.579 548.534C672.028 548.453 679.734 550.135 687.093 551.265C686.101 554.832 685.455 557.017 682.521 559.512Z"/>
	<path fill="#9F8BE8" d="M759.841 558.799L762.543 559.122C772.715 560.372 781.941 556.162 790.633 551.357L791.685 551.578C794.448 553.891 795.9 559.346 797.11 562.643C783.969 569.687 765.364 577.69 750.704 580.087C748.854 580.389 745.055 580.979 743.486 579.861C746.523 576.455 752.878 566.195 756.513 564.633C757.151 564.359 758.297 564.431 758.963 564.521C761.54 564.872 765.036 566.284 767.549 565.7L767.993 564.837C766.688 562.029 762.453 560.255 759.841 558.799Z"/>
	<path fill="#9F8BE8" d="M635.879 573.107C634.69 572.817 633.508 572.5 632.334 572.156C628.856 571.163 623.449 569.88 621.589 566.529C621.686 565.614 621.546 565.439 622.212 564.726C624.598 562.171 628.482 562.184 631.694 562.155L632.054 562.522L631.117 565.91L631.494 566.373C633.131 565.993 634.78 563.68 636.255 562.64L637.003 562.817C637.261 564.346 637.424 565.822 638.156 567.211C640.416 566.972 640.259 564.311 641.616 563.061C642.076 562.636 642.435 562.888 642.996 562.979C643.482 563.464 643.844 563.895 644.165 564.507C644.888 565.887 645.191 566.416 646.57 567.179C647.961 566.527 647.88 564.179 648.832 562.788L649.944 562.652C651.976 563.62 652.976 565.456 654.603 566.91C655.429 567.648 655.96 568.079 657.096 568.031L657.469 567.276C657.449 565.729 656.979 564.777 656.293 563.398L656.021 562.861L656.445 562.182L659.875 561.64C662.788 561.337 669.193 566.622 673.497 567.189C679.264 567.949 683.603 563.97 686.765 564.443C688.705 567.229 687.881 572.059 687.743 575.292C670.709 578.395 652.696 576.591 635.879 573.107Z"/>
	<defs>
		<linearGradient id="gradient_1" gradientUnits="userSpaceOnUse" x1="135.19461" y1="699.34357" x2="321.71338" y2="923.86212">
			<stop offset="0" stop-color="#050508"/>
			<stop offset="1" stop-color="#08081B"/>
		</linearGradient>
	</defs>
	<path fill="url(#gradient_1)" d="M253.812 628.608C252.373 623.32 250.694 616.115 250.267 610.72C249.939 606.573 251.626 603.244 254.306 600.171C261.211 592.251 272.175 585.079 282.767 584.157C283.196 584.143 283.625 584.125 284.055 584.133C294.215 584.31 305.233 589.949 312.267 597.132C316.658 601.616 320.054 607.487 319.792 613.937C319.475 621.773 313.978 624.567 308.812 629.279C308.194 631.652 307.569 633.953 306.159 635.997C302.888 640.736 297.013 646.559 291.3 647.66L295.436 651.75C294.962 655.07 293.831 658.406 292.934 661.639C293.028 661.656 293.813 660.012 293.909 659.821C295.834 656.015 300.431 646.176 305.076 645.371C306.294 645.159 307.109 645.59 308.007 646.351C309.569 647.675 310.324 650.32 310.496 652.269C310.752 655.156 309.922 657.913 308.662 660.488C306.386 665.14 302.442 668.902 299.933 673.463C293.473 685.209 290.059 698.025 281.421 708.604C272.763 719.208 256.302 735.976 241.706 737.054C238.145 737.317 234.719 736.48 232.017 734.064C224.901 727.705 225.806 714.743 225.488 705.995C221.08 709.075 216.079 711.225 211.616 714.222C208.497 716.317 205.818 719.26 202.638 721.193C201.25 722.038 199.5 722.516 197.959 723.017C202.384 747.161 220.041 771.712 231.087 793.657C235.283 801.993 239.286 810.745 241.141 819.941C245.948 843.761 237.24 877.907 229.517 900.833C228.817 902.912 227.988 905.184 226.424 906.783C223.537 909.735 214.162 912.011 210.033 914.069L209.346 914.415C207.752 917.629 206.508 921.001 205.201 924.339C220.059 925.06 236.74 928.509 250.872 933.122C260.09 936.131 274.678 941.287 279.156 950.702C280.35 953.214 280.813 955.836 279.744 958.475C277.355 964.375 270.113 967.871 264.635 970.317C228.244 983.413 145.745 979.562 108.498 966.947C100.937 964.387 86.9683 959.735 83.3614 951.736C82.3815 949.563 82.6923 947.258 83.5182 945.084C86.5599 937.075 99.804 932.811 107.369 930.889C111.307 929.888 115.956 929.374 119.655 927.686C124.712 925.379 128.281 911.704 130.223 906.497C125.281 904.446 112.275 897.746 110.148 892.972C109.707 891.984 109.592 891.571 109.871 890.547C110.887 886.82 113.858 883.114 115.618 879.659C117.151 876.65 118.31 873.359 119.501 870.2C129.923 842.559 134.395 811.435 131.042 781.991C129.141 765.3 125.369 748.531 128.389 731.747C130.586 719.534 135.429 709.328 143.522 699.897C145.427 697.676 150.397 693.686 151.141 691.059C151.438 690.008 151.669 688.961 152.352 688.072C155.575 683.881 167.842 673.992 172.529 669.931C185.138 659.004 197.555 647.933 210.601 637.521C215.009 634.004 219.405 630.146 224.14 627.084C227.952 624.618 231.682 622.937 236.275 622.477C243.294 621.774 248.48 624.414 253.812 628.608ZM309.466 614.453C301.712 617.762 295.678 621.455 288.989 626.521C287.876 627.365 285.283 629.83 284.018 629.603C281.811 629.207 280.821 629.297 278.952 630.632C277.986 631.321 277.238 632.064 276.433 632.927C273.776 635.778 269.011 635.664 265.305 635.945C269.851 639.722 274.838 640.868 280.431 642.239C280.601 642.256 280.772 642.265 280.941 642.288C281.932 642.425 281.255 642.295 282.045 642.654C283.716 643.415 289.734 642.961 291.519 642.273C292.246 641.993 292.772 641.516 293.331 640.994C294.057 638.654 292.152 638.023 294.922 635.974L297.991 635.581C299.196 635.425 300.12 635.181 300.945 634.221C301.747 633.286 301.821 632.038 301.963 630.876L301.537 630.245C299.872 630.837 298.158 631.643 296.367 631.462L295.977 630.805C298.805 623.563 312.528 620.586 312.17 615.755C311.237 614.891 310.71 614.692 309.466 614.453ZM237.559 628.156C234.228 628.591 231.686 629.363 228.765 631.085C220.927 635.707 213.906 642.446 206.886 648.242C194.786 658.233 182.444 668.234 170.808 678.754C182.041 689.76 193.594 702.376 208.316 708.598C214.231 705.94 220.093 703.166 225.9 700.279C224.845 692.46 224.265 663.157 227.288 656.514C228.086 656.845 227.758 656.569 228.18 657.66C231.189 665.433 231.013 695.891 231.2 706.122C231.482 712.789 231.22 724.236 236.219 729.18C237.864 730.806 239.967 731.459 242.249 731.297C253.323 730.512 269.268 714.631 275.905 706.464C280.644 700.631 284.261 694.481 286.946 687.468C284.022 685.986 281.329 684.4 278.622 682.551C272.706 687.67 267.782 693.691 262.556 699.482C258.204 704.304 253.741 708.768 249.841 713.993C251.386 709.559 253.175 705.038 254.242 700.465C256.835 689.352 259.776 661.328 258.519 649.945C258.128 646.454 257.141 643.055 255.601 639.896C253.053 634.743 248.846 630.356 243.247 628.611C241.444 628.048 239.431 628.095 237.559 628.156ZM261.988 639.781C262.963 643.492 263.377 647.255 263.844 651.057L271.779 647.566L273.352 646.589C272.711 644.985 264.041 640.794 261.988 639.781ZM282.049 648.448C284.323 650.044 286.163 651.995 288.08 653.985L288.497 653.709L288.541 653.291C289.38 651.749 290.13 650.885 290.068 649.109C288.196 647.588 284.406 648.323 282.049 648.448ZM277.014 650.96C272.776 652.63 267.575 654.046 264.43 657.445C263.438 663.391 263.397 669.489 262.879 675.491C262.351 681.595 261.497 687.697 260.792 693.785L264.399 689.681C276.278 676.146 276.623 671.497 283.824 655.556C282.323 653.868 280.98 652.121 278.972 651.023L277.014 650.96ZM303.799 652.169L303.537 652.624C301.438 656.34 298.708 666.248 293.979 667.116C293.522 667.199 293.251 667.143 292.818 667.094C291.937 665.909 293.075 665.183 292.077 664.381C290.818 664.934 290.389 665.394 288.994 665.065C287.883 663.804 287.735 662.635 287.434 661.046C287.127 661.681 286.981 662.128 286.778 662.787C285.288 667.609 282.63 672.928 280.431 677.499C283.195 679.622 285.924 681.803 288.858 683.69C292.187 672.774 300.248 665.534 304.099 656.396C304.64 655.112 305.031 653.895 304.536 652.567L303.799 652.169ZM154.447 696.389C141.258 708.965 133.041 724.21 132.585 742.742C132.241 756.734 135.482 771.147 136.752 785.093C139.372 814.367 135.442 843.858 125.247 871.425C122.663 878.318 119.324 884.832 116.345 891.551C120.12 894.427 124.119 896.994 128.304 899.229L129.194 899.308C133.252 893.919 135.833 884.808 138.072 878.393C148.148 849.51 154.485 826.94 150.165 795.893C146.823 771.877 138.147 752.55 144.984 727.727C147.25 719.498 150.967 711.465 156.072 704.603C157.227 703.05 158.556 701.679 159.965 700.356L154.447 696.389ZM163.756 703.25L161.712 706.493C141.219 738.998 147.57 750.701 154.204 785.693C157.595 803.574 158.365 823.858 154.939 841.837C152.02 857.154 146.738 872.642 141.251 887.207C139.931 890.71 134.681 898.671 135.218 902.066C135.398 903.206 137.412 904.295 138.326 904.78C141.252 906.331 144.844 907.632 148.136 906.685C149.137 905.964 149.78 905.326 150.229 904.148C151.462 900.914 151.905 897.183 152.979 893.839C156.676 882.338 160.522 870.859 163.818 859.234C164.092 861.308 164.398 863.367 164.476 865.459C163.044 880.89 159.299 894.935 152.978 909.087C160.527 910.658 168.005 911.945 175.741 912.096C181.029 887.11 188.519 869.081 187.494 842.457C186.38 813.554 174.414 788.213 169.28 760.326C167.497 750.643 167.04 740.992 167.287 731.173C167.481 723.475 168.082 716.027 170.676 708.711C168.254 706.99 165.985 705.215 163.756 703.25ZM174.777 711.215C173.045 721.445 171.998 732.025 172.734 742.394C174.21 763.211 181.756 782.819 187.023 802.83C190.605 816.444 192.783 831.628 192.917 845.688C193.148 870.11 187.779 888.613 180.959 911.84C188.563 911.335 195.922 910.672 203.4 909.096C205.598 908.1 205.944 907.453 206.748 905.251C211.359 892.638 214.739 875.21 216.056 861.841C216.723 855.071 217.481 848.239 217.341 841.428C216.628 806.792 198.799 776.598 189.416 743.99C188.094 739.396 183.449 722.252 186.224 718.768C184.838 716.21 177.605 712.655 174.777 711.215ZM191.011 722.902C191.021 732.68 196.084 744.403 199.035 753.726C204.431 770.769 212.027 787.075 217.243 804.11C227.366 837.176 222.357 874.155 212.246 906.571C215.842 905.519 219.637 904.634 222.905 902.749C224.654 895.544 227.349 888.631 229.156 881.445C233.315 864.908 238.536 841.704 235.914 824.878C233.053 806.524 215.582 778.088 206.643 760.899C202.755 753.438 199.356 745.731 196.469 737.827C194.921 733.581 193.748 727.338 191.437 723.569C191.299 723.344 191.153 723.125 191.011 722.902ZM134.896 909.235C134.848 909.429 134.802 909.623 134.751 909.816C132.673 917.689 125.366 933.814 121.21 941.047C121.075 941.282 120.853 941.456 120.675 941.661L121.303 941.344C121.471 941.423 121.631 941.526 121.809 941.581C123.887 942.223 126.717 941.071 128.698 940.4C129.064 940.276 129.434 940.167 129.802 940.052C140.392 943.862 148.361 952.16 159.098 955.389C161.417 955.81 165.114 956.857 167.281 955.87C166.616 954.037 161.841 952.206 160.008 950.979C151.593 945.343 141.608 936.531 137.159 927.358C138.87 922.37 140.957 917.712 143.605 913.151L134.896 909.235ZM149.399 913.567C147.689 916.735 146.36 919.721 145.395 923.204C155.591 922.644 172.149 920.934 181.754 922.857C183.141 922.537 184.436 922.515 185.148 921.077C185.682 920.001 186.013 918.682 186.367 917.54C174.228 918.228 160.929 917.822 149.399 913.567ZM198.031 916.194C196.012 916.339 193.746 916.243 191.963 917.288C192.037 917.597 192.114 917.906 192.184 918.217C192.199 918.284 192.208 918.353 192.219 918.421L191.778 918.135C191.741 918.323 191.705 918.512 191.666 918.699C189.723 927.882 185.7 937.097 182.072 945.719C186.924 946.623 191.801 947.519 196.549 948.881C205.928 951.571 215.154 955.175 224.735 957.083C228.516 957.144 232.326 957.299 236.103 957.108C229.798 954.394 223.364 951.762 217.379 948.39C209.858 944.152 202.978 939.046 195.698 934.448C197.175 930.154 201.75 920.338 201.555 916.311C201.549 916.198 201.569 916.086 201.576 915.973C200.399 916.044 199.203 916.075 198.031 916.194Z"/>
	<path fill="#090809" d="M723.707 609.304C714.848 600.897 695.521 599.722 684.081 601.104C681.138 601.459 674.871 603.447 672.294 602.704L672.233 601.885C676.442 597.964 685.381 596.768 690.818 595.615C696.024 595.201 701.339 595.115 706.5 596.01C715.203 597.521 725.228 601.784 730.255 609.376C731.917 611.887 733.543 615.358 732.809 618.45C732.568 619.467 732.613 619.62 731.678 620.15C728.613 617.511 726.563 612.469 723.707 609.304Z"/>
	<path fill="#FEFEFE" d="M265.305 635.945C269.011 635.664 273.776 635.778 276.433 632.927C277.238 632.064 277.986 631.321 278.952 630.632C280.821 629.297 281.811 629.207 284.018 629.603C285.283 629.83 287.876 627.365 288.989 626.521C295.678 621.455 301.712 617.762 309.466 614.453C310.71 614.692 311.237 614.891 312.17 615.755C312.528 620.586 298.805 623.563 295.977 630.805L296.367 631.462C298.158 631.643 299.872 630.837 301.537 630.245L301.963 630.876C301.821 632.038 301.747 633.286 300.945 634.221C300.12 635.181 299.196 635.425 297.991 635.581L294.922 635.974C292.152 638.023 294.057 638.654 293.331 640.994C292.772 641.516 292.246 641.993 291.519 642.273C289.734 642.961 283.716 643.415 282.045 642.654C281.255 642.295 281.932 642.425 280.941 642.288C280.772 642.265 280.601 642.256 280.431 642.239C274.838 640.868 269.851 639.722 265.305 635.945Z"/>
	<path fill="#9F8BE8" d="M170.808 678.754C182.444 668.234 194.786 658.233 206.886 648.242C213.906 642.446 220.927 635.707 228.765 631.085C231.686 629.363 234.228 628.591 237.559 628.156C239.431 628.095 241.444 628.048 243.247 628.611C248.846 630.356 253.053 634.743 255.601 639.896C257.141 643.055 258.128 646.454 258.519 649.945C259.776 661.328 256.835 689.352 254.242 700.465C253.175 705.038 251.386 709.559 249.841 713.993C253.741 708.768 258.204 704.304 262.556 699.482C267.782 693.691 272.706 687.67 278.622 682.551C281.329 684.4 284.022 685.986 286.946 687.468C284.261 694.481 280.644 700.631 275.905 706.464C269.268 714.631 253.323 730.512 242.249 731.297C239.967 731.459 237.864 730.806 236.219 729.18C231.22 724.236 231.482 712.789 231.2 706.122C231.013 695.891 231.189 665.433 228.18 657.66C227.758 656.569 228.086 656.845 227.288 656.514C224.265 663.157 224.845 692.46 225.9 700.279C220.093 703.166 214.231 705.94 208.316 708.598C193.594 702.376 182.041 689.76 170.808 678.754Z"/>
	<path fill="#090809" d="M733.792 659.425C735.878 654.407 738.454 649.417 741.833 645.142C749.257 635.75 759.081 631.517 770.817 630.185C775.704 629.506 784.528 629.637 789.141 631.56C790.23 632.014 790.307 632.387 790.708 633.391C788.079 635.923 777.566 634.414 773.697 634.843C769.379 635.321 764.867 636.396 760.778 637.864C755.202 639.867 750.825 642.855 746.341 646.667C741.795 650.54 738.525 655.923 733.792 659.425Z"/>
	<path fill="#C9BCDD" d="M263.844 651.057C263.377 647.255 262.963 643.492 261.988 639.781C264.041 640.794 272.711 644.985 273.352 646.589L271.779 647.566L263.844 651.057Z"/>
	<path fill="#090809" d="M660.597 683.637C659.907 682.752 659.849 682.859 659.713 681.648C662.56 679.141 670.925 679.747 674.846 678.711C678.88 677.645 683.166 675.989 686.864 674.055C701.43 666.437 704.03 656.772 708.499 642.142L709.421 642.894C710.299 644.788 710.59 646.615 710.64 648.702C710.834 656.865 706.86 665.669 701.217 671.479C690.715 682.293 674.805 683.514 660.597 683.637Z"/>
	<path fill="#CDC7CF" d="M288.541 653.291L288.497 653.709L288.08 653.985C286.163 651.995 284.323 650.044 282.049 648.448C284.406 648.323 288.196 647.588 290.068 649.109C290.13 650.885 289.38 651.749 288.541 653.291Z"/>
	<path fill="#C9BCDD" d="M260.792 693.785C261.497 687.697 262.351 681.595 262.879 675.491C263.397 669.489 263.438 663.391 264.43 657.445C267.575 654.046 272.776 652.63 277.014 650.96L278.972 651.023C280.98 652.121 282.323 653.868 283.824 655.556C276.623 671.497 276.278 676.146 264.399 689.681L260.792 693.785Z"/>
	<path fill="#FEFEFE" d="M280.431 677.499C282.63 672.928 285.288 667.609 286.778 662.787C286.981 662.128 287.127 661.681 287.434 661.046C287.735 662.635 287.883 663.804 288.994 665.065C290.389 665.394 290.818 664.934 292.077 664.381C293.075 665.183 291.937 665.909 292.818 667.094C293.251 667.143 293.522 667.199 293.979 667.116C298.708 666.248 301.438 656.34 303.537 652.624L303.799 652.169L304.536 652.567C305.031 653.895 304.64 655.112 304.099 656.396C300.248 665.534 292.187 672.774 288.858 683.69C285.924 681.803 283.195 679.622 280.431 677.499Z"/>
	<path fill="#090809" d="M832.313 840.814C838.789 828.885 842.264 816.421 847.007 803.801C849.385 797.475 852.415 791.454 855.071 785.248C860.7 772.097 863.943 759.119 865.178 744.877C865.92 736.328 866.43 727.76 866.709 719.184C867.02 708.04 866.939 696.819 868.604 685.77C869.39 680.556 870.845 675.431 872.177 670.334C873.494 670.427 874.193 670.263 875.279 671.087C875.31 674.169 874.39 677.293 873.96 680.351C873.363 684.607 873.229 689.001 872.997 693.293C872.238 707.393 873.059 721.32 873.773 735.401C882.772 722.583 895.421 703.808 908.98 696.365C905.544 703.616 898.812 709.819 893.968 716.232C875.503 740.675 870.617 759.572 868.158 789.722C875.5 782.251 884.498 773.835 893.361 768.245C904.419 761.271 916.353 756.123 926.85 748.164C929.959 745.807 933.044 743.253 935.727 740.415C940.883 734.959 945.385 728.25 952.203 724.795C947.673 733.816 935.017 749.364 927.047 755.678C923.468 758.513 919.148 760.379 915.745 763.416C915.631 763.518 915.521 763.623 915.409 763.726C924.977 763.125 934.674 762.236 944.1 760.481C953.397 758.751 962.943 756.09 972.348 755.282C961.392 763.207 939.688 767.362 926.198 769.017C918.818 769.922 910.967 770.058 904.017 772.928C887.187 779.876 867.844 804.603 860.962 820.915C878.189 809.317 893.424 807.247 913.565 804.93C915.572 804.699 917.036 804.479 918.677 805.77C918.654 806.078 918.725 806.408 918.609 806.695C917.727 808.873 889.182 814.563 884.564 816.264C872.954 820.54 863.466 828.19 856.277 838.225C852.193 843.926 850.086 847.912 845.217 853.238L845.523 853.754L864.382 855.703C879.788 857.409 893.765 858.289 906.952 848.511C910.877 845.602 913.96 841.945 917.294 838.409C921.955 833.465 926.365 830.209 933.154 828.743C938.262 827.641 977.028 824.373 979.579 826.026C978.163 828.375 970.762 829.552 968.145 830.041C956.694 832.182 943.911 831.44 932.998 834.439C923.052 837.173 919.411 847.096 912.218 853.517C908.309 857.006 903.476 859.494 898.924 862.031C906.54 863.598 914.184 865.426 921.985 865.682C937.364 866.188 943.291 862.595 959.733 866.798C962.834 867.59 966.335 868.405 969.1 870.069C970.323 870.805 971.324 871.595 971.717 872.988C968.994 874.525 954.186 870.093 949.66 869.656C939.988 868.721 930.772 872.022 921.068 871.507C910.286 870.934 899.484 867.593 888.83 865.866C877.172 863.977 844.117 861.061 833.679 865.491C829.16 867.409 825.867 871.134 824.107 875.692C822.466 879.941 821.649 895.44 824.008 899.437C825.803 902.478 834.133 902.131 837.683 903.397C837.849 903.456 838.013 903.519 838.178 903.58C841.037 901.918 843.635 900.208 846.69 898.876C858.314 893.808 873.37 892.44 885.472 896.566C890.614 898.32 895.341 900.946 900.392 902.915C908.012 896.748 917.358 891.839 926.891 889.5C931.477 888.375 940.934 885.902 945.195 888.495L945.284 889.39C942.001 891.197 936.822 891.664 933.125 892.513C923.111 895.783 913.389 899.63 905.076 906.242C915.782 912.12 927 911.845 938.746 913.723C945.691 914.833 952.702 916.996 959.105 919.9C964.748 922.459 975.04 927.36 977.357 933.468L976.814 933.908C971.699 933.002 968.125 929.544 963.652 927.209C958.999 924.78 953.866 922.893 948.826 921.446C936.047 917.777 921.89 919.034 909.463 914.496C898.386 910.452 891.691 902.949 878.896 900.428C867.637 898.21 853.123 900.141 843.516 906.637C845.721 907.756 847.907 909.109 849.908 910.559C852.595 912.505 858.193 916.767 858.722 920.049C855.598 920.513 849.055 915.229 846.18 913.593C831.486 905.23 816.563 904.568 800.577 909.259C796.767 910.378 793.037 912.279 789.214 913.207C788.214 913.451 786.772 913.769 785.763 913.555C783.165 913.004 780.119 911.13 777.651 910.045C773.694 908.306 769.375 906.667 765.198 905.588C759.522 904.122 753.174 903.46 747.316 903.584C743.507 903.665 738.332 904.886 734.717 903.968C730.73 902.956 726.427 898.938 722.663 897.033C711.395 891.332 698.238 888.483 685.792 886.891C676.146 885.658 666.252 885.999 656.608 887.11C654.459 887.358 648.273 888.656 646.577 887.616C646.437 886.372 646.453 886.336 647.092 885.257C651.364 883.319 656.04 882.884 660.646 882.303C678.973 879.991 695.378 881.842 713.029 887.121C726.066 878.551 756.421 861.409 771.579 861.144C783.027 860.945 792.75 870.029 800.33 877.556C802.049 871.079 804.496 865.145 808.056 859.444C811.776 853.484 816.72 848.32 818.313 841.282C821.439 827.475 815.499 816.993 808.354 805.809C784.011 820.436 785.631 822.368 772.735 846.328C773.068 843.232 773.545 840.26 774.48 837.28C779.703 820.629 790.622 808.415 805.942 800.356C802.941 797.612 799.93 794.831 796.64 792.431C791.729 788.847 771.715 777.349 769.573 773.358L769.874 772.611C770.16 772.573 770.443 772.507 770.732 772.497C776.845 772.287 801.062 786.739 806.753 790.615C810.225 792.979 813.386 795.852 816.553 798.605C815.454 795.664 814.336 792.719 813.345 789.739C808.35 774.704 809.023 763.682 810.702 748.246C811.159 744.042 811.292 738.964 813.2 735.14L813.707 735.401C815.062 741.922 813.837 749.677 813.756 756.345C813.646 765.386 815.795 773.022 818.468 781.551C819.406 777.224 820.687 772.978 822.3 768.855C823.903 764.733 826.896 758.002 831.077 756.178L831.819 756.537C831.842 756.685 831.887 756.831 831.889 756.981C831.922 758.912 828.459 765.057 827.652 767.526C825.763 773.31 824.428 779.315 824.311 785.418C824.127 794.961 827.163 805.003 829.016 814.328C830.809 823.056 831.911 831.913 832.313 840.814ZM769.71 867.07C752.355 871.176 735.44 880.828 719.998 889.509C725.997 892.514 731.926 895.561 737.742 898.91C749.326 897.493 759.72 898.399 771.056 901.203C776.673 902.952 781.898 905.231 787.153 907.86C796.256 904.448 804.334 901.584 814.021 900.402C805.584 889.319 786.943 869.271 772.499 867.367C771.572 867.244 770.642 867.145 769.71 867.07Z"/>
	<path fill="#090809" d="M558.12 707.962C557.333 707.513 557.435 707.405 557.09 706.616C557.694 705.377 558.759 704.925 559.962 704.382C563.905 702.605 568.231 701.692 572.377 700.508C579.827 698.382 587.384 696.171 594.565 693.25C600.771 690.725 606.308 687.569 611.911 683.939L612.625 684.432C612.877 685.955 612.623 686.705 611.674 687.937C601.988 700.513 573.01 705.807 558.12 707.962Z"/>
	<path fill="#9F8BE8" d="M116.345 891.551C119.324 884.832 122.663 878.318 125.247 871.425C135.442 843.858 139.372 814.367 136.752 785.093C135.482 771.147 132.241 756.734 132.585 742.742C133.041 724.21 141.258 708.965 154.447 696.389L159.965 700.356C158.556 701.679 157.227 703.05 156.072 704.603C150.967 711.465 147.25 719.498 144.984 727.727C138.147 752.55 146.823 771.877 150.165 795.893C154.485 826.94 148.148 849.51 138.072 878.393C135.833 884.808 133.252 893.919 129.194 899.308L128.304 899.229C124.119 896.994 120.12 894.427 116.345 891.551Z"/>
	<path fill="#9F8BE8" d="M163.818 859.234C160.522 870.859 156.676 882.338 152.979 893.839C151.905 897.183 151.462 900.914 150.229 904.148C149.78 905.326 149.137 905.964 148.136 906.685C144.844 907.632 141.252 906.331 138.326 904.78C137.412 904.295 135.398 903.206 135.218 902.066C134.681 898.671 139.931 890.71 141.251 887.207C146.738 872.642 152.02 857.154 154.939 841.837C158.365 823.858 157.595 803.574 154.204 785.693C147.57 750.701 141.219 738.998 161.712 706.493L163.756 703.25C165.985 705.215 168.254 706.99 170.676 708.711C168.082 716.027 167.481 723.475 167.287 731.173C167.04 740.992 167.497 750.643 169.28 760.326C174.414 788.213 186.38 813.554 187.494 842.457C188.519 869.081 181.029 887.11 175.741 912.096C168.005 911.945 160.527 910.658 152.978 909.087C159.299 894.935 163.044 880.89 164.476 865.459C164.398 863.367 164.092 861.308 163.818 859.234Z"/>
	<path fill="#090809" d="M460.59 730.982C459.488 730.278 458.63 729.617 457.689 728.689C457.792 728.482 457.801 728.189 457.998 728.07C458.348 727.858 458.788 728.283 459.185 728.382C460.442 728.695 461.706 728.995 462.992 729.162C465.243 729.455 474.346 729.95 476.214 729.176C479.146 727.962 483.073 728.178 486.259 727.424C497.511 724.762 506.957 717.622 515.214 709.817C516.306 710.243 516.278 710.365 516.875 711.395C516.808 712.025 516.836 712.062 516.577 712.759C514.557 718.208 504.291 725.965 499.13 728.62C487.102 734.809 473.313 735.09 460.59 730.982Z"/>
	<path fill="#9F8BE8" d="M180.959 911.84C187.779 888.613 193.148 870.11 192.917 845.688C192.783 831.628 190.605 816.444 187.023 802.83C181.756 782.819 174.21 763.211 172.734 742.394C171.998 732.025 173.045 721.445 174.777 711.215C177.605 712.655 184.838 716.21 186.224 718.768C183.449 722.252 188.094 739.396 189.416 743.99C198.799 776.598 216.628 806.792 217.341 841.428C217.481 848.239 216.723 855.071 216.056 861.841C214.739 875.21 211.359 892.638 206.748 905.251C205.944 907.453 205.598 908.1 203.4 909.096C195.922 910.672 188.563 911.335 180.959 911.84Z"/>
	<path fill="#9F8BE8" d="M212.246 906.571C222.357 874.155 227.366 837.176 217.243 804.11C212.027 787.075 204.431 770.769 199.035 753.726C196.084 744.403 191.021 732.68 191.011 722.902C191.153 723.125 191.299 723.344 191.437 723.569C193.748 727.338 194.921 733.581 196.469 737.827C199.356 745.731 202.755 753.438 206.643 760.899C215.582 778.088 233.053 806.524 235.914 824.878C238.536 841.704 233.315 864.908 229.156 881.445C227.349 888.631 224.654 895.544 222.905 902.749C219.637 904.634 215.842 905.519 212.246 906.571Z"/>
	<path fill="#090809" d="M433.34 758.887C432.943 758.86 432.546 758.837 432.15 758.804C423.202 758.064 394.631 760.58 388.9 757.625C388.222 757.276 388.3 756.939 388.09 756.276L388.811 755.615C397.751 755.692 406.492 753.793 415.347 752.84C421.188 752.212 427.1 752.279 432.959 751.799C436.47 753.046 444.405 752.97 448.887 753.919C458.211 755.894 466.644 759.861 471.943 768.056C459.598 763.712 446.819 757.765 433.34 758.887Z"/>
	<path fill="#090809" d="M524.093 806.115C513.584 808.413 503.443 808.509 492.77 807.516C482.034 806.517 469.486 802.826 462.551 794.001C459.866 790.585 456.625 784.595 457.082 780.171C460.492 781.664 465.876 788.955 469.147 791.697C473.657 795.477 479.775 798.097 485.252 800.111C490.608 802.081 495.115 802.29 500.632 803.213C503.714 803.728 506.203 804.511 509.432 804.603C513.78 804.727 521.466 803.497 525.258 804.784L525.29 805.456L524.093 806.115Z"/>
	<path fill="#090809" d="M547.384 827.491C542.486 829.536 528.237 836.972 523.813 836.754L523.912 836.059C529.92 829.49 544.332 821.968 552.651 819.242C556.807 817.881 560.92 817.218 565.255 816.718C565.529 816.753 565.801 816.829 566.078 816.823C574.759 816.63 584.166 817.736 592.549 820.362C594.057 820.834 595.196 821.145 595.946 822.601C594.761 823.399 578.089 821.776 575.254 821.803C565.374 821.898 556.605 824.097 547.384 827.491Z"/>
	<path fill="#090809" d="M457.711 880.474C456.387 882.248 455.913 883.902 455.042 885.886C454.542 887.025 454.251 887.527 453.093 887.969C452.399 887.188 452.434 886.492 452.37 885.494C452.052 880.535 457.413 872.827 460.71 869.172C473.031 855.512 490.261 853.727 507.516 852.841C511.008 853.359 514.592 853.206 518.077 853.724C519.249 853.898 520.287 854.008 521 854.996C518.751 857.061 510.643 856.621 507.394 857.023C488.21 859.396 469.952 864.631 457.711 880.474Z"/>
	<path fill="#9F8BE8" d="M719.998 889.509C735.44 880.828 752.355 871.176 769.71 867.07C770.642 867.145 771.572 867.244 772.499 867.367C786.943 869.271 805.584 889.319 814.021 900.402C804.334 901.584 796.256 904.448 787.153 907.86C781.898 905.231 776.673 902.952 771.056 901.203C759.72 898.399 749.326 897.493 737.742 898.91C731.926 895.561 725.997 892.514 719.998 889.509ZM751.203 877.915C751.399 879.682 751.244 880.442 752.433 881.806C757.892 883.996 763.582 885.407 769.15 887.272C775.847 889.516 784.091 894.158 791.079 894.327C790.932 892.74 790.885 891.552 789.63 890.405C783.587 884.882 759.651 879.6 751.203 877.915Z"/>
	<path fill="#090809" d="M791.079 894.327C784.091 894.158 775.847 889.516 769.15 887.272C763.582 885.407 757.892 883.996 752.433 881.806C751.244 880.442 751.399 879.682 751.203 877.915C759.651 879.6 783.587 884.882 789.63 890.405C790.885 891.552 790.932 892.74 791.079 894.327Z"/>
	<path fill="#090809" d="M468.391 911.169C457.753 912.948 448.548 914.333 437.805 912.303C423.52 909.604 410.674 902.633 402.831 890.056C401.862 888.501 401.793 888.023 402.166 886.236C402.633 886.296 403.76 886.433 404.126 886.678C405.798 887.799 409.937 892.667 412.493 894.637C417.275 898.321 422.799 901.028 428.392 903.241C434.884 905.81 441.985 907.485 448.906 908.367C453.542 908.959 466.224 907.683 469.415 909.431L469.399 910.46L468.391 911.169Z"/>
	<path fill="#090809" d="M403.561 933.739C393.863 935.962 380.425 934.102 371.069 930.967C357.867 926.545 348.335 918.172 342.192 905.79C342.699 905.816 343.374 905.827 343.856 905.96C346.275 906.632 352.734 913.955 355.249 915.991C360.179 919.982 366.474 922.824 372.32 925.177C378.077 927.495 384.368 929.186 390.47 930.33C392.912 930.788 401.304 931.65 402.873 932.77C403.195 933 403.332 933.416 403.561 933.739Z"/>
	<path fill="#CDC7CF" d="M129.802 940.052C129.434 940.167 129.064 940.276 128.698 940.4C126.717 941.071 123.887 942.223 121.809 941.581C121.631 941.526 121.471 941.423 121.303 941.344L120.675 941.661C120.853 941.456 121.075 941.282 121.21 941.047C125.366 933.814 132.673 917.689 134.751 909.816C134.802 909.623 134.848 909.429 134.896 909.235L143.605 913.151C140.957 917.712 138.87 922.37 137.159 927.358C141.608 936.531 151.593 945.343 160.008 950.979C161.841 952.206 166.616 954.037 167.281 955.87C165.114 956.857 161.417 955.81 159.098 955.389C148.361 952.16 140.392 943.862 129.802 940.052Z"/>
	<path fill="#9F8BE8" d="M145.395 923.204C146.36 919.721 147.689 916.735 149.399 913.567C160.929 917.822 174.228 918.228 186.367 917.54C186.013 918.682 185.682 920.001 185.148 921.077C184.436 922.515 183.141 922.537 181.754 922.857C172.149 920.934 155.591 922.644 145.395 923.204Z"/>
	<path fill="#FEFEFE" d="M182.072 945.719C185.7 937.097 189.723 927.882 191.666 918.699C191.705 918.512 191.741 918.323 191.778 918.135L192.219 918.421C192.208 918.353 192.199 918.284 192.184 918.217C192.114 917.906 192.037 917.597 191.963 917.288C193.746 916.243 196.012 916.339 198.031 916.194C199.203 916.075 200.399 916.044 201.576 915.973C201.569 916.086 201.549 916.198 201.555 916.311C201.75 920.338 197.175 930.154 195.698 934.448C202.978 939.046 209.858 944.152 217.379 948.39C223.364 951.762 229.798 954.394 236.103 957.108C232.326 957.299 228.516 957.144 224.735 957.083C215.154 955.175 205.928 951.571 196.549 948.881C191.801 947.519 186.924 946.623 182.072 945.719Z"/>
	<path fill="#090809" d="M407.889 961.833C407.45 961.912 406.698 962.067 406.269 962.049C405.165 962.003 404.911 961.791 404.295 960.937L404.695 960.18C405.873 959.488 406.907 959.213 408.251 959.07C411.346 958.74 414.624 959.199 417.765 959.023C422.97 958.733 428.274 957.619 433.392 956.645C451.503 953.199 471.556 946.994 483.991 932.601C485.82 930.484 487.14 928.005 488.71 925.697C489.421 926.142 489.042 925.827 489.714 926.781C489.656 927.065 489.606 927.351 489.54 927.633C487.289 937.287 476.833 946.648 468.574 951.316C463.114 954.435 457.311 956.911 451.281 958.694C441.078 961.684 418.227 964.697 407.889 961.833Z"/>
	<path fill="#090809" d="M495.957 965.216C496.324 964.773 496.698 964.345 497.076 963.911C507.396 952.065 535.022 944.403 549.968 942.732C556.005 942.326 562.243 942.762 568.276 942.917C571.927 943.01 594.371 947.085 596.488 949.063C595.541 950.114 593.452 949.876 592.118 949.747C572.303 947.838 553.867 947.516 534.314 951.703C520.872 954.944 508.76 960.184 495.957 965.216Z"/>
	<path fill="#090809" d="M684.624 983.109C675.067 981.239 664.751 980.9 655.046 981.661C650.15 982.046 630.003 986.158 627.571 985.522L627.681 984.509C633.31 978.835 656.946 975.516 665.519 974.821C670.625 975.5 675.81 975.333 680.931 976.116C689.793 977.47 710.494 984.991 715.764 992.324C716.185 992.91 715.985 993.066 715.876 993.746L716.221 993.14L715.905 993.94C711.475 993.183 706.458 990.23 702.209 988.547C696.443 986.264 690.656 984.528 684.624 983.109Z"/>
	<path fill="#090809" d="M349.329 1009.82C348.715 1009.68 348.142 1009.44 347.553 1009.21L347.294 1008.41C349.376 1006.46 362.41 1006.08 366.103 1005.53C370.2 1004.91 373.958 1003.52 377.82 1002.07C387.632 998.387 394.07 992.893 400.109 984.354C401.191 982.825 401.969 981.126 403.104 979.633L403.698 978.866C403.86 979.039 404.05 979.19 404.185 979.384C404.785 980.247 404.528 981.523 404.412 982.482C403.503 990.012 399.292 996.477 393.4 1001.09C381.576 1010.33 363.634 1011.51 349.329 1009.82Z"/>
	<path fill="#090809" d="M613.755 1001.13C593.539 989.441 577.394 987.284 554.677 985.658C550.377 985.351 545.568 986.324 541.421 985.181L541.006 984.24L541.748 983.405C549.218 980.943 558.815 981.008 566.714 980.723C571.6 980.586 576.692 981.16 581.491 982.054C595.606 984.685 619.344 994.78 627.238 1007.4C627.955 1008.55 628.192 1009.13 627.867 1010.43C626.339 1010.39 616.641 1002.62 613.755 1001.13Z"/>
	<path fill="#090809" d="M521.408 1002.2C512.535 1005.9 500.383 1007.69 490.815 1007.7C483.138 1007.71 456.952 1002.7 451.992 997.012C451.348 996.274 451.616 996.011 451.7 995.095C465.562 999.413 479.984 1001.67 494.503 1001.79C499.723 1001.86 505.018 1001.69 510.205 1001.13C514.4 1000.67 518.702 999.747 522.914 999.663C523.602 999.649 523.993 999.756 524.585 1000.1C523.863 1001.35 522.688 1001.59 521.408 1002.2Z"/>
</svg>
