<?xml version="1.0" encoding="utf-8" ?>
<svg xmlns="http://www.w3.org/2000/svg" xmlns:xlink="http://www.w3.org/1999/xlink" width="1024" height="1024">
	<path fill="#9F8BE8" d="M0 0L491.414 0L1024 0L1024 830.731L1024 862.234L1024 1024L836.165 1024L827.381 1024L731.799 1024L719.297 1024L713.264 1024L704.479 1024L624.385 1024L616.191 1024L551.606 1024L543.111 1024L0 1024L0 638.69L0 628.328L0 405.746L0 392.282L0 288.409L0 274.787L0 0Z"/>
	<path d="M552.901 233.982C572.459 217.461 593.406 210.576 619.12 212.776C656.432 215.969 691.091 236.182 714.811 264.748C725.62 277.766 733.697 292.173 741.241 307.239C745.989 316.719 750.425 326.672 756.577 335.338C765.356 347.704 778.69 355.152 790.332 364.365C810.495 380.32 822.142 405.732 819.626 431.475C816.876 459.614 799.74 489.975 777.849 507.776C772.369 512.232 766.59 516.382 761.293 521.053C747.343 533.351 734.414 549.048 726.558 565.97C744.594 542.641 770.359 527.046 799.81 523.314C834.268 518.948 870.873 532.486 897.908 553.666C927.176 576.596 962.009 618.272 966.479 655.974C967.723 666.47 967.456 680.39 960.682 689.195C959.901 690.211 958.982 691.113 958.061 692.001C982.914 725.158 1000.23 759.605 1014.01 798.613Q1017.52 808.599 1020.49 818.756C1021.64 822.712 1022.54 826.886 1024 830.731L1024 862.234L1024 1024L836.165 1024L827.381 1024L731.799 1024L719.297 1024L713.264 1024L704.479 1024L624.385 1024L616.191 1024L551.606 1024L543.111 1024C553.598 1001.18 565.619 979.092 575.415 955.96C591.12 918.877 602.056 879.923 611.494 840.832C613.334 833.21 615.642 825.662 617.285 818.001C618.86 810.659 618.491 803.055 618.592 795.587Q618.768 785.915 619.27 776.254C621.208 735.659 628.955 712.015 646.31 675.905Q641.588 668.562 636.514 661.457C626.829 647.777 609.286 627.738 594.165 620.049C590.442 618.156 586.894 617.247 582.812 616.547C569.75 628.503 555.171 640.979 538.063 646.495C529.144 649.371 519.674 649.385 511.23 644.971C502.966 640.652 499.406 636.438 499.703 626.902C499.771 624.71 500.068 622.27 499.324 620.161C497.513 615.034 484.033 614.239 479.173 611.914C476.37 610.574 474.024 608.683 473.037 605.64C472.111 602.785 472.308 599.528 473.832 596.924C476.79 591.872 482.168 590.711 487.388 589.288L479.481 588.451C479.161 588.706 478.838 588.955 478.521 589.212C474.848 592.194 471.492 593.694 466.609 593.433C462.874 593.234 458.805 592.037 456.336 589.059C450.886 582.484 456.291 578.649 456.394 572.168C456.52 564.201 431 563.824 422.498 553.943C413.506 543.494 425.431 533.11 430.195 524.02C433.583 517.556 435.895 510.436 436.442 503.134C437.075 494.709 435.203 485.756 429.573 479.23C426.723 475.927 423.314 473.136 420.48 469.825C410.379 458.023 402.751 435.158 401.031 419.796C400.377 413.946 400.629 408.276 401.107 402.43C397.125 406.991 394.652 412.198 393.669 418.18C391.472 431.561 398.086 446.996 405.772 457.62C396.805 454.292 389.019 446.404 384.159 438.306C376.394 425.365 373.462 408.077 377.22 393.39C380.488 380.621 388.779 373.416 399.725 366.899C395.974 362.488 395.045 357.642 395.438 351.95C395.958 344.426 398.877 337.298 401.987 330.514C415.294 301.485 438.857 274.136 464.315 255.018C469.608 251.043 475.369 247.622 481.089 244.306C484.17 242.52 488.397 240.724 490.964 238.392C491.139 238.232 491.309 238.068 491.481 237.906L491.921 237.757C507.379 232.424 528.211 219.714 544.991 227.429C548.319 228.959 550.64 231.153 552.901 233.982Z"/>
	<path fill="#9F8BE8" d="M733.829 692.863C740.559 689.955 748.255 688.701 755.477 687.706C788.024 683.22 819.698 691.079 851.552 696.803C868.017 699.762 884.834 701.994 901.555 702.76C918.332 703.529 934.681 702.626 950.816 697.531C955.036 702.32 958.596 707.922 962.222 713.171C985.673 747.122 1000.22 784.872 1012.55 823.985C1016.44 836.308 1018.85 849.699 1023.74 861.614L1024 862.234L1024 1024L836.165 1024C844.688 989.45 852.162 954.257 863.715 920.54C865.526 915.254 867.272 909.65 869.642 904.593C873.424 896.526 878.734 888.958 882.874 881.006C888.414 870.367 902.255 837.026 901.295 826.09L900.723 825.871C893.125 832.55 875.139 875.087 868.737 887.076Q868.488 884.938 868.198 882.805Q867.908 880.671 867.577 878.544Q867.246 876.417 866.874 874.297Q866.502 872.177 866.089 870.064Q865.675 867.951 865.222 865.847Q864.768 863.742 864.273 861.647Q863.779 859.552 863.244 857.466Q862.709 855.381 862.134 853.307Q861.559 851.232 860.945 849.169Q860.33 847.106 859.675 845.055Q859.02 843.004 858.326 840.967Q857.632 838.929 856.898 836.905Q856.165 834.881 855.392 832.872Q854.62 830.862 853.809 828.868Q852.998 826.874 852.149 824.896Q851.299 822.918 850.411 820.956Q849.524 818.995 848.599 817.051Q847.674 815.108 846.711 813.182Q845.748 811.257 844.749 809.35Q843.749 807.443 842.713 805.556Q841.676 803.669 840.604 801.803Q839.531 799.936 838.423 798.091Q837.314 796.245 836.17 794.422Q835.027 792.598 833.848 790.797Q832.669 788.995 831.455 787.217Q830.242 785.439 828.994 783.685Q827.747 781.93 826.465 780.201Q825.184 778.471 823.87 776.766Q822.555 775.061 821.208 773.382Q819.861 771.703 818.482 770.05Q817.102 768.397 815.691 766.771Q814.28 765.145 812.838 763.547C793.668 742.447 768.231 724.533 739.812 718.782C733.847 717.575 727.889 717.278 721.83 716.987C725.367 708.71 729.198 700.591 733.829 692.863Z"/>
	<path d="M960.543 887.755C961.569 887.993 961.083 887.736 961.904 888.687C962.596 896.361 956.636 910.975 953.535 918.481C939.395 952.717 905.8 980.05 875.934 1000.25C866.486 1006.65 856.253 1013.64 845.683 1018.02C844.941 1018.04 844.668 1017.94 843.99 1017.69C844.044 1017.18 844.022 1017.05 844.278 1016.51C845.818 1013.29 853.676 1006.14 856.54 1003C865.575 993.095 874.371 983.05 883.64 973.35C897.974 958.35 912.773 943.426 926.337 927.724C937.77 914.488 948.079 900.042 960.543 887.755Z"/>
	<path fill="#444344" d="M955.876 897.434C955.86 897.637 955.857 897.841 955.829 898.042C955.127 903.104 951.94 908.727 949.744 913.317C934.297 945.591 906.441 970.133 877.462 990.085C877.445 989.847 877.356 989.604 877.41 989.372C877.623 988.45 897.28 969.416 899.753 966.932C911.228 955.403 922.371 943.88 932.243 930.922C940.512 920.068 947.78 908.433 955.876 897.434Z"/>
	<path fill="#9F8BE8" d="M640.629 991.804C641.2 973.014 643.163 953.213 646.695 934.742C650.781 913.374 656.425 892.629 658.603 870.894C660.206 854.902 660.577 838.883 660.551 822.824C660.523 806.051 659.394 789.077 662.906 772.543C665.493 760.362 670.82 749.812 679.92 741.214Q681.023 740.158 682.179 739.158Q683.334 738.159 684.539 737.22Q685.743 736.28 686.993 735.402Q688.243 734.525 689.536 733.711Q690.829 732.898 692.162 732.151Q693.494 731.404 694.863 730.725Q696.231 730.046 697.632 729.438Q699.033 728.829 700.463 728.291Q701.893 727.754 703.348 727.289Q704.803 726.825 706.28 726.435Q707.757 726.044 709.251 725.729Q710.746 725.414 712.255 725.174Q713.763 724.935 715.282 724.772Q716.801 724.609 718.326 724.523Q719.851 724.437 721.378 724.428Q722.906 724.419 724.432 724.487C755.811 725.61 785.041 746.099 805.647 768.442C833.033 798.137 851.488 836.927 858.593 876.629C859.828 883.527 861.409 891.679 861.293 898.659C861.227 902.666 852.312 927.677 850.586 933.747C842.124 963.523 833.628 993.678 827.381 1024L731.799 1024L719.297 1024L713.264 1024L704.479 1024L624.385 1024C626.244 1018.99 627.964 1014.01 629.479 1008.89C629.625 1008.76 629.768 1008.64 629.915 1008.52C640.221 1000.03 652.685 993.836 663.373 985.73C671.594 979.496 679.446 972.661 687.378 966.063C717.824 940.741 757.814 905.928 779.245 873.149C787.935 859.856 795.294 843.565 796.979 827.631Q797.222 825.173 797.325 822.706C792.227 826.413 787.773 831.794 783.449 836.38C756.905 864.532 736.079 897.345 711.186 926.881C698.469 941.971 684.122 956.692 669.033 969.438C659.836 977.206 650.042 984.296 640.629 991.804Z"/>
	<path d="M704.479 1024Q739.54 993.848 771.721 960.639C775.711 956.441 779.827 952.273 783.479 947.774C786.295 944.304 788.761 940.367 791.851 937.152C792.721 936.247 793.454 935.652 794.705 935.36C795.471 936.156 795.387 936.216 795.358 937.281C795.2 943.018 793.064 948.036 790.846 953.218C781.649 974.708 764.083 993.336 747.429 1009.35C742.285 1014.29 736.838 1018.95 731.799 1024L719.297 1024L713.264 1024L704.479 1024Z"/>
	<path fill="#444344" d="M713.264 1024Q731.287 1008.49 748.534 992.127C753.995 987.043 759.714 982.202 764.885 976.817C767.184 974.423 782.373 955.976 782.923 955.778C781.921 958.555 779.91 960.932 778.288 963.379C764.744 983.819 739.807 1010.55 719.297 1024L713.264 1024Z"/>
	<path fill="#9F8BE8" d="M551.606 1024C572.359 986.323 590.42 947.26 602.885 906.024C607.15 891.914 610.978 877.468 614.662 863.194C616.357 856.626 617.743 849.89 619.707 843.403C620.627 855.116 620.861 866.891 621.608 878.624Q624.064 916.201 627.309 953.718C628.561 968.316 629.541 982.832 631.774 997.327C625.669 1000.67 621.782 1002.74 619.75 1009.81C618.402 1014.49 617.474 1019.3 616.191 1024L551.606 1024Z"/>
	<path fill="#444344" d="M602.423 221.198C629.468 219.834 653.886 227.923 676.417 242.442C700.837 258.177 718.673 281.238 731.253 307.118C736.904 318.744 742.071 330.803 750.063 341.068C770.286 367.042 801.964 373.401 809.563 409.661C815.041 435.798 804.445 461.804 790.457 483.425Q791.791 479.715 792.761 475.893Q793.73 472.072 794.326 468.174Q794.921 464.277 795.136 460.34Q795.352 456.403 795.186 452.464C794.184 432.289 782.577 413.025 767.69 399.816C763.38 395.992 748.563 384.572 742.991 384.908C740.718 387.091 744.352 392.606 745.587 394.934C758.443 419.159 778.466 446.351 779.615 474.005C779.929 481.567 779.228 492.513 775.214 499.133C772.575 503.486 765.628 506.789 761.65 510.073C741.292 526.875 722.677 549.854 715.497 575.608C711.42 569.673 706.792 564.205 702.98 558.069C699.251 552.068 696.477 545.692 693.083 539.534C684.339 545.927 679.859 559.924 677.793 570.064C672.743 559.339 669.933 547.979 668.661 536.207C668.167 531.631 668.155 526.785 667.277 522.293C667.001 520.885 666.575 520.207 665.506 519.276L664.494 519.372C659.722 523.461 656.695 530.979 654.321 536.632C653.544 531.622 652.558 526.622 651.705 521.621C650.146 513.329 649.551 504.809 648.762 496.418C648.22 490.642 647.348 484.647 647.369 478.848C647.383 474.686 648.919 470.383 649.478 466.244C650.778 456.627 648.903 445.291 646.092 436.079C642.668 424.856 636.741 414.476 626.084 408.845C620.21 405.741 613.346 403.375 606.758 405.602C589.389 411.472 582.202 438.007 574.858 452.69C571.929 444.875 568.908 436.643 563.956 429.848C550.059 410.779 517.875 407.414 499.23 386.288C485.004 370.17 481.39 353.604 482.591 332.633C485.653 327.651 489.582 323.035 492.927 318.208Q504.865 301.24 515.95 283.703C519.926 277.435 524.092 271.307 526.861 264.385C508.698 274.844 484.376 303.904 473.75 321.832C469.247 329.429 466.185 337.785 461.739 345.366L461.497 345.771C453.094 348.883 410.959 365.318 404.742 364.662C404.005 364.584 403.564 363.979 403.255 363.336C399.994 356.547 406.843 338.632 409.946 332.338C430.701 290.242 473.528 250.824 518.328 235.816C525.626 233.371 535.104 231.034 542.727 233.256C546.017 234.215 549.255 236.061 552.328 237.581C557.629 235.419 562.649 232.482 567.838 230.05C578.778 224.925 590.407 222.152 602.423 221.198Z"/>
	<path fill="#FEFEFE" d="M465.328 350.467C466.036 351.428 465.674 360.458 465.865 362.438C467.326 377.607 475.309 391.139 487.1 400.688C499.791 410.965 522.472 419.418 538.858 417.646C551.597 424.72 563.602 435.204 568.454 449.43C570.015 454.007 570.557 459.628 572.909 463.811C581.648 462.683 591.722 428.764 599.422 419.978C602.493 416.474 605.792 414.301 610.095 412.577C610.381 412.616 610.667 412.65 610.952 412.693C619.136 413.929 626.045 417.722 630.987 424.471C639.594 436.224 642.594 452.156 640.264 466.378C638.645 476.265 634.227 490.946 623.771 494.59C621.067 495.533 614.219 495.704 612.414 497.767C611.983 498.259 611.539 499.874 611.562 500.518C611.607 501.772 611.946 502.618 613.082 503.251C615.651 504.684 620.881 503.85 623.738 503.239C634.425 500.954 638.352 495.648 644.009 486.828C642.731 493.641 642.868 501.176 643.183 508.072C643.555 516.22 647.399 545.233 653.637 550.905C655.074 551.35 655.179 551.317 656.619 550.855C659.451 548.201 659.581 539.385 660.545 535.526C661.138 533.148 662.143 530.972 663.179 528.763C663.947 542.751 666.99 567.782 676.842 578.615C677.92 579.8 678.787 580.206 680.42 580.231C681.925 579.643 683.114 578.944 683.84 577.42C685.281 574.396 685.227 570.361 686.191 567.102C687.749 561.833 690.727 556.831 693.282 551.987C698.591 564.743 707.214 573.904 716.259 583.998C710.28 589.494 703.943 594.429 698.241 600.252C679.417 619.477 663.667 643.565 651.181 667.252Q645.063 658.031 638.165 649.379Q631.268 640.727 623.642 632.708C614.385 623.408 602.976 613.456 590.182 609.801C590.278 609.692 590.401 609.601 590.469 609.472C592.65 605.365 597.168 601.285 600.085 597.486C604.618 591.584 608.631 585.022 612.264 578.527C620.936 563.026 627.869 533.144 622.464 515.91C622.115 514.8 621.431 513.29 620.299 512.825C618.615 512.135 617.395 512.398 615.811 513.143C613.701 515.749 615.005 521.11 615.232 524.465C615.955 535.134 614.954 545.323 612.197 555.664C603.865 586.925 573.541 617.93 545.921 633.836C538.077 638.353 528.09 642.377 518.988 639.679C513.74 638.123 509.39 634.774 506.739 629.998C507.439 625.206 508.177 619.943 506.005 615.399C502.63 608.34 492.62 609.838 486.314 607.562C483.549 606.564 480.992 604.911 479.69 602.213C479.684 601.367 479.525 600.819 479.996 600.068C484.534 592.826 501.258 595.005 508.328 593.039C509.852 592.616 510.635 592.086 511.456 590.752C511.326 589.752 511.182 589.302 510.529 588.49C507.102 584.228 492.51 582.349 487.167 581.742C479.428 580.861 474.685 582.499 468.72 587.267C466.697 586.669 463.964 586.105 462.743 584.223C460.661 581.013 463.11 575.572 463.423 572.059C464.907 555.422 437.124 560.045 429.083 549.733C427.91 548.229 427.083 546.988 427.488 545.032C428.606 539.622 433.114 534.612 435.915 529.921C440.209 522.731 442.866 514.45 443.923 506.164C445.325 495.17 443.584 482.308 435.901 473.782C432.47 469.975 428.417 466.664 425.299 462.586C411.602 444.674 407.259 414.003 410.226 392.133C431.622 379.752 448.841 369.433 465.328 350.467Z"/>
	<path d="M609.922 425.13C611.372 425.239 612.814 425.375 614.23 425.725C619.47 427.022 623.725 430.981 626.445 435.522C630.436 442.184 631.539 449.724 629.627 457.261C628.191 462.918 624.821 470.656 619.575 473.602C618.003 474.485 616.301 474.981 614.537 474.464C613.515 473.647 612.702 472.877 612.494 471.503C612.275 470.05 613.064 469.378 613.852 468.318C615.729 466.38 617.112 464.58 618.503 462.268C617.862 460.852 617.208 459.445 616.397 458.116C612.95 452.462 608.781 449.918 602.498 448.399C601.651 450.111 600.196 452.78 598.378 453.63C597.165 454.197 596.97 454.02 595.84 453.506C595.382 452.775 594.989 452.135 594.802 451.281C593.594 445.783 597.286 438.318 600.05 433.636C602.385 429.68 605.358 426.321 609.922 425.13Z"/>
	<path fill="#444344" d="M610.841 432.361C613.952 433.421 616.341 435.063 618.417 437.637C622.91 443.209 622.989 449.696 622.256 456.418C621.216 454.986 620.37 453.388 619.48 451.857C615.531 445.977 610.341 444.522 603.866 442.736C605.748 438.665 607.655 435.55 610.841 432.361Z"/>
	<path d="M449.856 473.652C452.741 474.914 455.281 477.297 457.857 479.106C465.495 484.471 472.377 485.891 481.503 487.003C484.286 487.342 487.989 487.457 490.488 488.726C491.412 489.196 491.092 488.923 491.472 489.992C490.874 490.702 489.616 492.018 489.478 492.949C489.234 494.598 489.679 496.953 489.7 498.678C489.771 504.404 489.161 510.499 486.973 515.842C485.88 518.51 484.058 521.401 481.214 522.438C479.864 522.93 478.9 522.815 477.586 522.269C476.956 521.586 476.475 521.077 476.268 520.132C475.781 517.907 476.775 516.24 477.789 514.353L478.143 513.707C480.522 508.964 481.945 501.117 480.698 495.936C476.365 497.632 476.082 504.141 473.052 507.246C472.212 508.107 470.85 508.468 469.651 508.288C468.237 508.076 467.538 507.474 466.64 506.461L465.427 505.085C463.308 502.659 457.381 506.068 454.107 503.802C453.012 503.044 452.53 502.029 452.349 500.74C452.159 499.391 452.405 498.71 453.14 497.618C455.18 496.633 457.626 497.361 459.866 496.929C460.706 495.636 459.626 491.728 459.46 490.028C456.183 487.247 451.399 483.964 449.593 479.974C448.531 477.63 448.995 475.946 449.856 473.652Z"/>
	<path d="M432.571 446.843C437.244 448.584 441.525 451.52 446.29 453.314C462.462 459.403 478.881 458.514 495.789 457.924C492.432 461.555 489.086 463.672 484.695 465.91C483.214 466.575 481.718 467.24 480.186 467.784C468.904 471.787 451.796 472.77 440.804 467.391C433.762 463.944 429.808 458.82 427.285 451.563C429.274 450.096 430.931 448.715 432.571 446.843Z"/>
	<path fill="#444344" d="M435.597 456.416C439.008 457.366 442.414 458.958 445.796 460.095C450.704 461.746 455.69 462.944 460.686 464.275C460.165 464.34 460.109 464.357 459.499 464.376C450.613 464.655 442.16 462.753 435.597 456.416Z"/>
	<path d="M463.436 530.907Q464.035 530.963 464.632 531.037C468.563 531.542 471.388 534.006 473.689 537.136C476.504 540.966 478.162 545.82 477.284 550.584C476.798 553.22 475.477 555.623 473.186 557.094C466.925 561.114 455.771 556.424 449.123 555.036C447.343 554.548 445.462 554.103 443.747 553.423C442.405 552.891 441.133 552.346 440.498 550.978L441.02 550.021C449.153 545.086 459.527 549.84 468.219 549.909C472.96 544.247 463.415 537.833 463.427 531.506C463.427 531.306 463.433 531.107 463.436 530.907Z"/>
	<path d="M490.516 564.995C496.422 564.926 501.303 567.669 506.231 570.698C516.319 576.898 524.735 584.893 527.582 596.764C524.756 595.173 522.152 592.761 519.562 590.783Q512.415 585.302 505.047 580.122C501.778 577.85 493.412 573.498 491.209 570.851C490.001 569.398 490.401 566.716 490.516 564.995Z"/>
	<path fill="#9F8BE8" d="M806.418 530.204C809.204 530.07 811.955 530.038 814.742 530.191C854.197 532.351 892.184 554.98 918.131 583.917C912.875 592.445 910.615 601.564 903.604 609.217C876.061 639.288 819.846 648.407 781.307 653.588C749.856 657.816 716.971 658.71 690.846 679.41C676.025 691.154 665.823 707.48 656.604 723.717C651.106 733.399 645.981 743.26 642.366 753.823C629.382 791.759 633.722 834.281 638.191 873.368Q639.303 883.302 641.015 893.15C641.782 897.734 643.102 902.656 643.067 907.296C643.009 914.829 640.343 923.29 638.862 930.711C637.462 937.729 636.528 944.783 635.675 951.885L635.303 952.646C635.111 952.025 634.931 951.449 634.838 950.803C632.768 936.39 632.33 921.324 631.217 906.785C627.874 863.097 625.397 819.521 628.214 775.712C629.295 758.9 630.875 741.172 635.421 724.908C643.484 696.059 662.529 661.748 679.458 637.215C696.257 612.87 716.723 593.15 740.87 576.228C752.844 567.836 766.423 559.497 781.012 556.922C785.663 556.101 793.502 555.471 797.42 558.422C798.035 558.886 798.567 559.234 799.244 559.595C800.466 558.851 800.58 558.798 801.156 557.5C801.024 556.547 800.81 555.884 800.242 555.113C797.594 551.518 793.089 549.559 788.785 548.953C766.745 545.852 738.392 566.862 721.516 579.6C723.433 575.848 725.427 572.601 728.164 569.392C747.187 547.09 777.372 532.381 806.418 530.204Z"/>
	<path d="M867.342 551.327L868.456 551.65C868.846 552.267 869.06 552.779 869.128 553.515C870.294 566.145 859.88 583.983 852.03 593.256C833.481 615.167 800.168 632.364 771.631 634.665C770.554 633.93 770.256 633.497 769.774 632.289C770.31 628.526 779.112 624.451 782.4 622.471C804.795 608.981 827.147 593.77 845.831 575.358Q850.806 570.535 855.227 565.199C859.054 560.562 862.572 554.982 867.342 551.327Z"/>
	<path fill="#444344" d="M861.41 567.044C861.327 567.943 860.856 568.745 860.473 569.554C848.163 595.521 820.766 612.706 794.493 622.007C794.532 621.025 800.148 618.16 801.18 617.548C815.168 609.261 833.644 595.2 845.408 583.842C850.978 578.465 855.835 572.422 861.41 567.044Z"/>
	<path d="M817.981 536.736C819.165 537.066 819.916 537.419 820.916 538.135C822.719 541.334 821.067 546.461 820.14 549.79C810.299 585.12 776.608 610.364 748.285 630.972C739.966 637.026 731.66 643.788 722.695 648.817C722.561 648.825 722.427 648.851 722.293 648.839C721.07 648.733 720.315 648.483 719.507 647.606C719.428 643.599 724.984 639.796 727.868 637.403C755.359 614.595 787.046 593.546 806.046 562.495C811.429 553.699 813.273 544.969 817.725 537.168C817.808 537.023 817.896 536.88 817.981 536.736Z"/>
	<path fill="#9F8BE8" d="M672.817 714.256C687.017 690.566 705.905 676.431 732.681 669.691C752.65 664.664 773.573 663.485 793.932 660.614C833.398 655.049 893.263 643.089 915.321 606.426C918.58 601.009 920.574 595.161 922.178 589.077C939.663 611.693 961.915 641.605 958.062 671.793C957.384 677.106 955.778 683.458 951.331 686.86C935.29 699.128 882.83 693.109 863.077 689.896C821.511 683.133 784.972 672.079 742.497 680.809C727.258 683.942 711.964 689.981 699.295 699.113C690.927 705.146 685.518 712.048 678.247 718.923C671.508 730.053 663.873 741.144 659.271 753.409C648.337 782.544 652.179 813.277 651.537 843.629C651.218 858.707 649.679 873.668 648.049 888.65Q644.519 863.698 642.537 838.575C639.497 803.321 639.5 779.233 654.853 746.07Q658.653 737.746 663.152 729.778Q667.652 721.809 672.817 714.256Z"/>
	<path fill="#444344" d="M458.736 349.56C458.952 356.422 410.489 383.74 403.255 389.715C397.888 394.149 392.866 399.921 390.043 406.338C385.872 415.819 386.873 427.614 390.547 437.032L390.307 437.341L388.857 434.857C384.093 423.39 381.194 409.55 383.603 397.175C388.22 373.462 413.417 369.884 432.238 362.986C441.733 359.506 450.344 355.169 458.736 349.56Z"/>
	<path fill="#444344" d="M480.329 334.898C480.545 337.284 479.724 340.438 479.441 342.891C478.445 351.538 479.019 358.987 481.893 367.279C489.496 389.216 505.479 400.865 525.567 410.556L517.133 408.683C508.995 406.74 500.212 403.167 493.439 398.189C482.482 390.137 473.564 377.752 471.617 364.081C469.968 352.492 473.427 344.03 480.329 334.898Z"/>
	<path fill="#444344" d="M790.312 833.906C790.352 834.217 790.432 834.524 790.431 834.837C790.417 837.874 786.882 843.43 785.568 846.362C770.282 880.458 743.92 905.649 717.181 930.94C718.077 927.765 725.576 919.959 728.005 916.937C739.966 902.061 750.891 886.216 762.178 870.82C767.286 863.852 772.714 857.166 777.942 850.295C782.086 844.847 785.947 839.184 790.312 833.906Z"/>
	<path fill="#9F8BE8" d="M723.914 695.542C724.897 696.657 715.476 710.951 715.365 717.531C701.55 720.135 687.985 725.134 677.619 734.957L677.394 734.825C677.49 734.504 677.546 734.168 677.683 733.862C679.017 730.87 682.02 727.584 684.149 725.089C695.232 712.1 708.385 702.565 723.914 695.542Z"/>
	<path fill="#9F8BE8" d="M753.556 397.256C761.071 400.924 772.809 415.607 777.301 422.547C786.913 437.399 790.984 454.875 787.218 472.285L787.054 472.634C785.994 471.402 785.938 464.199 785.537 462.116C784.533 456.893 782.847 451.666 780.882 446.731C774.592 430.931 762.517 411.999 753.556 397.256Z"/>
	<path fill="#FEFEFE" d="M506.878 288.536C506.449 291.739 476.593 332.032 472.557 337.553C473.607 327.217 498.882 296.253 506.878 288.536Z"/>
	<path d="M0 274.787C27.9767 317.781 58.7171 359.098 88.5576 400.808C113.491 435.66 137.336 471.134 163.158 505.369C176.896 523.583 191.7 540.958 205.436 559.145C213.787 570.2 222.243 581.23 230.07 592.665C232.912 596.817 242.499 613.216 244.905 615.468C246.878 617.316 252.742 618.112 255.397 618.87C266.136 621.936 276.593 628.257 283.124 637.469C290.866 648.389 292.33 662.151 290.372 675.088C304.124 679.546 317.523 685.843 330.758 691.631C338.706 695.107 348.063 698.266 355.108 703.372C363.783 709.658 371.392 718.467 379.282 725.742C385.859 731.805 393.996 738.074 398.095 746.181C400.015 749.978 401.132 753.63 399.798 757.786C399.605 758.386 399.443 759.004 399.265 759.608C403.357 763.198 408.166 766.055 412.702 769.055L433.764 782.944L507.927 831.236C520.105 839.159 533.201 846.626 544.684 855.511C545.691 856.29 548.865 858.636 548.78 859.876C548.727 860.66 548.438 861.116 548.049 861.763C542.805 870.499 535.847 878.414 529.914 886.707L488.844 944.375Q478.132 959.462 467.589 974.668C463.267 980.86 458.98 988.117 453.51 993.339C443.071 988.999 427.1 977.693 417.002 971.294C394.045 956.746 371.37 941.752 348.295 927.391C339.676 922.026 331.086 916.381 322.23 911.423C310.825 915.882 300.301 911.865 288.79 910.814C279.648 909.98 275.711 913.417 265.773 909.101C259.196 906.244 254.791 900.652 248.665 897.421C243.079 894.474 236.742 894.404 231.224 890.798C223.389 885.678 218.58 878.086 211.56 872.224C204.284 866.148 194.325 862.974 188.501 855.284C183.71 848.958 180.857 840.525 177.61 833.303C173.391 823.922 169.057 814.658 165.058 805.174C157.931 807.033 150.276 809.282 143.431 805.223C136.78 801.28 135.146 794.999 130.85 789.288C122.871 786.546 113.6 786.178 109.513 777.523C106.892 771.974 107.516 765.285 104.421 759.959C100.141 752.596 77.457 740.927 81.8145 731.391C82.4578 729.983 83.7954 728.831 84.9056 727.794C86.0125 733.931 89.7464 737.353 94.6765 740.832C94.8307 740.94 94.9909 741.041 95.148 741.145C101.86 747.456 110.5 751.593 113.212 761.113C114.306 764.951 114.394 769.132 115.741 772.888C119.07 782.174 130.397 778.046 136.382 782.896C140.567 786.287 140.964 792.753 144.861 796.624C145.846 797.602 147.019 798.444 148.295 798.998C153.876 801.422 163.172 797.092 168.461 794.985C192.635 785.351 232.419 753.915 243.013 729.327C234.731 711.337 230.954 699.288 212.186 690.433C210.869 679.645 206.083 668.114 199.863 659.238C195.494 653.004 190.759 653.552 186.162 649.38C179.898 643.696 174.78 635.134 169.676 628.365L0 405.746L0 392.282L0 288.409L0 274.787Z"/>
	<path fill="#9F8BE8" d="M0 288.409C4.85487 297.81 11.3703 306.595 17.2729 315.366C31.6227 336.689 46.8505 357.431 61.6037 378.478Q86.6543 414.669 112.237 450.487C121.112 463.153 129.651 476.054 138.77 488.549C154.751 510.446 171.998 531.435 188.78 552.716C203.248 571.063 217.311 589.861 232.151 607.897C235.581 612.067 239.581 616.167 243.985 619.317C254.173 626.602 266.679 631.105 274.364 641.564C281.259 650.946 282.906 662.251 281.539 673.576L267.849 673.152C263.635 670.525 259.449 667.815 254.617 666.483C249.338 671.078 244.514 676.274 239.549 681.208C236.14 684.594 232.481 687.797 229.178 691.278Q223.497 688.287 217.726 685.474C215.699 672.868 210.108 656.146 199.249 648.363C197.03 646.773 194.254 646.035 191.684 645.197C182.52 632.818 173.73 620.172 164.595 607.775Q122.306 550.543 79.1394 493.97Q53.5383 460.331 27.3679 427.133C18.2529 415.5 8.91272 404.076 0 392.282L0 288.409Z"/>
	<path fill="#9F8BE8" d="M375.341 801.915C387.339 807.426 397.961 815.612 409.13 822.547L495.731 877.332C509.6 873.76 523.108 868.789 537.092 865.674C531.855 873.77 525.924 881.375 520.332 889.224C504.859 910.944 488.928 932.416 473.759 954.34C467.426 963.953 460.107 973.051 454.21 982.917C443.459 968.236 431.605 954.338 420.926 939.574Q398.618 908.446 378.008 876.169Q357.397 843.892 338.543 810.558C343.286 813.799 348.391 817.772 353.913 819.505C357.34 820.581 360.841 820.404 364.02 818.672C369.999 815.415 373.44 808.149 375.341 801.915Z"/>
	<path fill="#FEFEFE" d="M249.954 735.472C260.564 740.964 272.406 742.58 283.068 747.679C291.758 751.835 297.146 760.633 305.473 765.475Q310.06 768.102 314.952 770.106Q319.844 772.109 324.956 773.455C330.162 774.879 335.686 775.962 340.568 778.317C346.599 781.227 351.727 786.229 356.921 790.389C360.792 793.49 364.77 796.301 368.893 799.05C368.288 801.627 367.347 803.899 366.056 806.199C364.503 808.968 362.737 812.147 359.503 813.056C351.716 812.291 336.213 797.25 328.921 792.58Q326.203 790.843 323.151 789.801C317.406 787.822 311.203 786.904 305.329 785.305C301.819 784.349 298.383 782.797 294.85 782.004C293.47 781.694 292.099 781.425 290.714 781.841C289.511 782.203 288.173 783.422 287.688 784.569C287.381 785.298 287.263 786.174 287.559 786.915C288.356 788.908 290.506 789.811 292.314 790.694L291.121 791.401C287.843 792.567 285.175 796.57 283.503 799.468C273.341 817.078 270.116 837.429 275.407 857.2C278.328 868.114 286.657 885.005 294.947 892.781C300.193 897.703 306.957 901.652 313.164 905.257C288.779 904.829 283.302 898.829 267.254 882.225C260.069 874.791 252.772 867.511 245.712 859.954C241.534 855.482 236.859 849.284 231.56 846.153C230.386 846.702 230.303 846.82 229.616 847.927C230.11 851.408 232.985 854.992 234.917 857.907C246.778 875.806 261.844 890.461 278.613 903.731Q277.821 903.681 277.031 903.617C273.398 903.312 270.277 902.574 267.039 900.834C257.273 895.584 244.53 881.8 237.771 872.983C231.007 864.159 225.138 854.312 217.802 845.977C216.678 844.7 215.909 844.616 214.258 844.504C213.263 845.043 213.05 845.194 212.804 846.409C211.445 853.11 232.396 879.94 237.561 885.629C229.473 879.905 223.981 872.26 216.636 865.777C210.405 860.278 201.99 857.48 196.102 851.784C191.013 846.86 176.204 810.568 173.296 801.75C178.015 799.786 182.831 797.947 187.324 795.495C212.382 781.82 234.581 759.219 249.954 735.472Z"/>
	<path d="M350.997 792.886C354.33 793.478 357.372 795.278 360.118 797.211C362.164 798.651 364.722 801.09 364.923 803.757C365.042 805.334 364.224 806.344 363.332 807.516C361.587 807.856 359.593 807.866 357.97 807.043C354.542 805.307 350.713 801.51 349.719 797.718C349.17 795.621 349.919 794.584 350.997 792.886Z"/>
	<path fill="#9F8BE8" d="M261.231 677.965C268.161 681.675 274.923 686.966 281.552 691.311L319.123 715.603L428.717 786.872L507.392 837.891C517.957 844.813 529.875 850.975 539.487 859.106L528.742 861.933C517.998 864.53 507.41 867.733 496.825 870.906C470.048 854.33 443.626 837.112 416.984 820.311Q400.225 809.785 383.629 799.006C375.874 793.971 367.769 788.943 360.656 783.023C354.708 778.073 351.334 773.721 347.443 767.109C337.865 750.829 314.774 747.374 297.815 743.081C291.534 734.589 262.441 685.699 261.231 677.965Z"/>
	<path fill="#9F8BE8" d="M292.314 790.694C302.178 793.364 312.752 795.429 322.316 798.899C332.85 814.533 342.358 831.241 352.174 847.359Q371.291 878.376 391.484 908.704C400.922 922.686 410.447 936.86 420.669 950.273C427.59 959.354 438.279 971.375 444.029 980.807Q404.898 954.925 365.274 929.805C350.909 920.737 336.635 911.672 322.543 902.179C314.804 896.966 305.987 891.853 299.622 884.987C291.218 875.924 284.543 861.152 282.144 849.12C279.249 834.595 282.418 819.421 289.434 806.496C290.905 803.787 294.398 799.269 294.818 796.357C295.105 794.368 293.622 793.487 292.284 792.373L291.574 791.773L291.121 791.401L292.314 790.694Z"/>
	<path fill="#9F8BE8" d="M253.517 677.852C254.719 678.776 260.707 694.543 262.042 697.14C269.846 712.323 279.253 726.68 288.87 740.758C284.333 738.957 279.737 737.394 275.111 735.843C266.916 733.514 259.161 731.318 251.489 727.525C245.876 717.029 240.98 706.57 234.65 696.438C240.604 689.985 247.211 683.965 253.517 677.852Z"/>
	<path fill="#FEFEFE" d="M280.184 680.937C281.212 681.057 282.235 681.199 283.26 681.339C285.52 681.646 287.565 682.295 289.691 683.092C301.065 687.355 312.106 692.905 323.232 697.77C330.858 701.104 341.22 704.519 347.951 708.964C352.637 712.059 384.24 741.823 387.812 746.402C389.078 748.024 389.496 749.684 389.929 751.665C377.538 745.647 366.541 736.785 354.967 729.396C329.929 713.413 304.747 697.647 280.184 680.937Z"/>
	<path fill="#FEFEFE" d="M302.059 751.871C313.415 753.943 330.559 760.452 338.892 768.553C325.547 766.368 312.138 761.066 302.059 751.871Z"/>
	<path d="M0 628.328C7.27333 635.528 13.9719 643.381 20.8889 650.924L47.1861 679.309C58.7201 691.978 75.4741 713.782 90.5544 721.42C127.534 711.73 148.577 665.922 186.337 656.408C177.397 679.927 159.476 697.536 136.482 707.742C131.373 710.009 125.875 711.597 120.877 714.067C112.455 718.229 105.406 723.142 96.3145 726.104L86.5923 727.612C81.8931 725.38 77.8081 722.986 73.851 719.576C60.6755 708.224 48.189 692.901 36.4565 679.877C24.2593 666.338 11.2415 653.026 0 638.69L0 628.328Z"/>
	<path d="M204.268 692.929L204.672 693.257C204.775 694.294 204.727 694.534 204.386 695.49C199.183 710.068 179.308 724.022 165.903 730.331C150.782 737.447 123.156 746.064 106.907 740.149C106.143 739.713 105.441 739.121 104.733 738.598L104.766 737.943C109.239 737.115 113.676 736.961 118.181 735.89C150.031 728.321 177.456 710.984 204.268 692.929Z"/>
	<path d="M194.77 728.873C195.257 728.88 195.783 729.095 196.253 729.227C196.65 729.956 196.844 729.999 196.695 730.87C195.505 737.799 182.71 750.408 177.059 754.522C162.034 765.458 140.874 773.433 122.106 770.491C120.751 770.158 120.184 770.147 119.167 769.155L120.099 768.596L120.446 768.847L121.3 768.584L120.979 768.226C146.83 757.279 169.968 741.736 194.77 728.873Z"/>
</svg>
