<?xml version="1.0" encoding="utf-8" ?>
<svg xmlns="http://www.w3.org/2000/svg" xmlns:xlink="http://www.w3.org/1999/xlink" width="1024" height="1024">
	<path d="M0 0L44.834 0L115.922 0L151.68 0L178.311 0L185.569 0L218.651 0L219.174 0L231.913 0L272.478 0L298.569 0L360.491 0L377.518 0L440.992 0L473.499 0L512.604 0L530.174 0L551.5 0L599.818 0L628.559 0L645.053 0L661.364 0L717.509 0L751.001 0L770.968 0L805.566 0L814.297 0L819.469 0L830.963 0L842.908 0L857.494 0L869.024 0L912.469 0L968.013 0L987.879 0L1001.07 0L1024 0L1024 650.666L1024 655.876L1024 986.631L1024 1024L275.312 1024L177.427 1024L82.6394 1024L5.41019 1024L0 1024L0 685.419L0 658.428L0 0Z"/>
	<path fill="#9F8BE8" d="M298.569 0L360.491 0L377.518 0L440.992 0L473.499 0L512.604 0L530.174 0L551.5 0L599.818 0L628.559 0L645.053 0L661.364 0L717.509 0L751.001 0L770.968 0L805.566 0L814.297 0L819.469 0C820.042 1.49283 824.608 10.2074 824.442 10.5993L824.003 9.9215C824.168 10.6506 824.333 11.3761 824.523 12.0992L824.164 12.5528C830.171 21.2709 837.525 28.9698 843.543 37.5936C849.93 45.4422 855.498 53.7101 861.353 61.9488C870.384 74.6547 879.421 87.1547 887.908 100.257C893.157 108.359 897.885 116.772 903.013 124.946C906.927 131.184 915.29 142.005 916.881 148.556C918.29 154.356 917.686 171.377 917.935 178.591L919.565 226.74C919.843 234.851 920.59 243.194 920.371 251.293L921.575 337.729Q921.846 353.36 921.919 368.994Q923.061 420.534 923.602 472.083Q923.953 487.716 924.106 503.353L924.413 557.249C924.461 567.506 924.755 577.862 924.392 588.108C921.619 590.503 919.317 593.332 916.67 595.862C907.68 604.454 898.938 613.063 890.248 621.956C880.332 632.105 870.044 641.93 859.917 651.872L708.473 800.24C689.155 818.922 669.961 837.852 649.706 855.521C642.377 861.915 634.732 868.935 626.74 874.461C626.362 871.246 625.142 816.434 625.244 816.022C625.381 815.466 626.268 814.832 626.482 814.266C627.481 811.634 626.442 802.795 626.347 799.615Q621.241 798.183 616.095 796.905C603.118 791.988 588.18 789.063 574.67 785.341C562.536 781.546 550.061 778.505 537.792 775.166C544.167 767.361 549.985 759.058 555.963 750.944C564.269 739.668 572.722 728.329 580.515 716.695C580.306 712.813 581.227 707.437 579.057 704.011C577.433 701.447 575.034 699.289 572.871 697.174C565.661 690.124 558.736 684.581 548.712 682.286C546.265 682.145 543.633 682.222 541.205 682.554C537.355 683.08 533.821 684.17 531.418 687.357C513.743 690.513 496.372 695.169 478.868 699.099C468.653 701.393 445.734 705.577 437.114 709.358C426.407 703.397 420.565 704.935 409.413 707.409C403.897 703.542 398.792 699.51 391.895 698.633C388.091 676.314 384.973 653.909 380.974 631.605C379.347 622.527 374.87 608.238 374.986 599.61C375.109 590.482 378.852 575.872 380.71 566.469L381.355 566.628C383.247 567.084 385.384 567.854 387.174 566.769C390.689 560.895 394.98 524.985 395.679 515.692C396.764 515.597 397.859 515.498 398.904 515.174C400.57 514.657 402.009 513.86 402.774 512.211C407.175 502.734 395.604 501.143 394.459 497.712C392.686 492.4 396.692 488.863 394.242 482.914C391.487 479.987 389.851 478.733 385.852 477.798L382.478 471.858C385.555 469.444 388.025 467.203 389.932 463.701C390.009 463.579 390.077 463.452 390.162 463.336C393.468 458.821 391.932 450.945 397.631 444.452C397.792 442.45 399.323 441.431 400.705 440.161C404.728 436.068 407.895 431.299 408.849 425.55C408.862 421.777 407.663 417.949 406.756 414.312L406.285 414.446C401.069 415.971 396.071 418.189 390.873 419.794C370.174 426.189 350.172 427.846 329.174 421.689C327.946 423.239 326.752 424.838 325.41 426.291C322.575 429.137 317.035 434.326 314.985 437.384C311.87 437.477 308.304 436.157 305.299 435.379L304.478 435.981C303.482 437.594 302.102 438.087 300.435 438.881C297.03 438.59 293.667 438.292 290.249 438.545C289.634 433.898 289.956 428.869 289.969 424.171Q289.997 409.697 290.31 395.226L291.498 314.726L294.687 158.136Q297.148 79.0808 298.569 0Z"/>
	<path fill="#DDD6F9" d="M548.712 682.286C548.579 681.769 548.231 680.767 548.248 680.193C548.296 678.529 551.136 676.22 552.279 675.109C561.739 665.918 571.897 657.657 581.992 649.196L614.618 621.498C636.395 602.926 657.728 583.891 679.795 565.652L741.161 515.715C751.06 507.817 761.208 500.222 771.036 492.239L883.154 400.086C895.787 389.795 907.763 378.375 920.877 368.717L921.919 368.994Q923.061 420.534 923.602 472.083Q923.953 487.716 924.106 503.353L924.413 557.249C924.461 567.506 924.755 577.862 924.392 588.108C921.619 590.503 919.317 593.332 916.67 595.862C907.68 604.454 898.938 613.063 890.248 621.956C880.332 632.105 870.044 641.93 859.917 651.872L708.473 800.24C689.155 818.922 669.961 837.852 649.706 855.521C642.377 861.915 634.732 868.935 626.74 874.461C626.362 871.246 625.142 816.434 625.244 816.022C625.381 815.466 626.268 814.832 626.482 814.266C627.481 811.634 626.442 802.795 626.347 799.615Q621.241 798.183 616.095 796.905C603.118 791.988 588.18 789.063 574.67 785.341C562.536 781.546 550.061 778.505 537.792 775.166C544.167 767.361 549.985 759.058 555.963 750.944C564.269 739.668 572.722 728.329 580.515 716.695C580.306 712.813 581.227 707.437 579.057 704.011C577.433 701.447 575.034 699.289 572.871 697.174C565.661 690.124 558.736 684.581 548.712 682.286Z"/>
	<path fill="#DDD6F9" d="M924.106 503.353L924.413 557.249C924.461 567.506 924.755 577.862 924.392 588.108C921.619 590.503 919.317 593.332 916.67 595.862C907.68 604.454 898.938 613.063 890.248 621.956C880.332 632.105 870.044 641.93 859.917 651.872L708.473 800.24C689.155 818.922 669.961 837.852 649.706 855.521C642.377 861.915 634.732 868.935 626.74 874.461C626.362 871.246 625.142 816.434 625.244 816.022C625.381 815.466 626.268 814.832 626.482 814.266C627.481 811.634 626.442 802.795 626.347 799.615Q621.241 798.183 616.095 796.905C616.779 794.211 618.15 792.784 620.033 790.804C628.815 781.568 638.576 773.4 647.928 764.763L691.221 724.038L863.948 560.687Q881.195 544.067 898.744 527.766C907.303 519.762 916.131 511.946 924.106 503.353Z"/>
	<path fill="#9F8BE8" d="M923.602 472.083Q923.953 487.716 924.106 503.353C916.131 511.946 907.303 519.762 898.744 527.766Q881.195 544.067 863.948 560.687L691.221 724.038L647.928 764.763C638.576 773.4 628.815 781.568 620.033 790.804C618.15 792.784 616.779 794.211 616.095 796.905C603.118 791.988 588.18 789.063 574.67 785.341C580.667 780.591 586.042 774.873 591.839 769.857C612.539 751.947 632.828 733.652 653.289 715.476Q749.081 630.874 843.306 544.53L898.012 495.173C906.447 487.562 914.63 479.026 923.602 472.083Z"/>
	<path fill="#9F8BE8" d="M717.509 0L751.001 0L770.968 0L805.566 0L814.297 0L819.469 0C820.042 1.49283 824.608 10.2074 824.442 10.5993L824.003 9.9215C824.168 10.6506 824.333 11.3761 824.523 12.0992L824.164 12.5528C830.171 21.2709 837.525 28.9698 843.543 37.5936C849.93 45.4422 855.498 53.7101 861.353 61.9488C870.384 74.6547 879.421 87.1547 887.908 100.257C893.157 108.359 897.885 116.772 903.013 124.946C906.927 131.184 915.29 142.005 916.881 148.556C918.29 154.356 917.686 171.377 917.935 178.591L919.565 226.74C919.843 234.851 920.59 243.194 920.371 251.293C920.318 251.021 920.261 250.749 920.21 250.477C920.006 249.382 920.047 249.827 920.056 248.822L919.414 248.3C903.127 267.057 887.413 286.375 871.311 305.302C866.256 311.244 861.34 317.317 856.234 323.213C853.124 326.803 849.162 330.544 846.579 334.506C840.485 342.686 833.261 350.278 826.628 358.035C819.791 366.03 813.371 374.372 806.55 382.382C800.367 390.114 793.817 397.553 787.393 405.085C784.156 408.881 780.51 412.755 777.742 416.9C772.111 425.625 763.932 433.398 757.25 441.367C752.125 449.911 721.907 479.29 720.594 484.618C720.575 484.695 720.548 484.77 720.525 484.846C720.761 471.463 718.762 455.635 718.185 441.916Q715.695 387.098 714.573 332.235Q712.265 166.083 717.509 0Z"/>
	<path fill="#9F8BE8" d="M843.543 37.5936C849.93 45.4422 855.498 53.7101 861.353 61.9488C870.384 74.6547 879.421 87.1547 887.908 100.257C893.157 108.359 897.885 116.772 903.013 124.946C906.927 131.184 915.29 142.005 916.881 148.556C918.29 154.356 917.686 171.377 917.935 178.591L919.565 226.74C919.843 234.851 920.59 243.194 920.371 251.293C920.318 251.021 920.261 250.749 920.21 250.477C920.006 249.382 920.047 249.827 920.056 248.822L919.414 248.3C903.127 267.057 887.413 286.375 871.311 305.302C866.256 311.244 861.34 317.317 856.234 323.213C853.124 326.803 849.162 330.544 846.579 334.506L844.65 123.643Q844.64 97.776 844.174 71.9131C843.911 60.6042 842.871 48.8755 843.543 37.5936Z"/>
	<path fill="#7E6DAF" d="M805.566 0L814.297 0L819.469 0C820.042 1.49283 824.608 10.2074 824.442 10.5993L824.003 9.9215C824.168 10.6506 824.333 11.3761 824.523 12.0992L824.164 12.5528C830.171 21.2709 837.525 28.9698 843.543 37.5936C842.871 48.8755 843.911 60.6042 844.174 71.9131Q844.64 97.776 844.65 123.643L846.579 334.506C840.485 342.686 833.261 350.278 826.628 358.035C819.791 366.03 813.371 374.372 806.55 382.382C806.054 371.674 806.939 360.505 807.015 349.737Q807.399 312.143 807.206 274.547Q807.713 137.266 805.566 0Z"/>
	<path fill="#090022" d="M814.297 0L819.469 0C820.042 1.49283 824.608 10.2074 824.442 10.5993L824.003 9.9215C824.168 10.6506 824.333 11.3761 824.523 12.0992L824.164 12.5528C820.624 9.35907 817.271 3.83303 814.297 0Z"/>
	<path fill="#9F8BE8" d="M770.968 0L805.566 0Q807.713 137.266 807.206 274.547Q807.399 312.143 807.015 349.737C806.939 360.505 806.054 371.674 806.55 382.382C800.367 390.114 793.817 397.553 787.393 405.085C784.156 408.881 780.51 412.755 777.742 416.9C776.707 403.168 777.196 388.956 776.935 375.162L775.427 289.34L770.968 0Z"/>
	<path fill="#7E6DAF" d="M751.001 0L770.968 0L775.427 289.34L776.935 375.162C777.196 388.956 776.707 403.168 777.742 416.9C772.111 425.625 763.932 433.398 757.25 441.367C756.509 437.205 756.929 432.261 756.871 428.002L756.463 399.179L754.74 301.094L751.001 0Z"/>
	<path fill="#9F8BE8" d="M599.818 0L628.559 0L645.053 0L661.364 0L717.509 0Q712.266 166.085 714.573 332.235Q715.695 387.098 718.185 441.916C718.762 455.635 720.761 471.463 720.525 484.846Q703.172 503.533 686.587 522.905C681.047 528.391 676.773 534.985 671.222 540.427C664.969 541.862 658.246 542.544 651.866 543.294L651.835 543.065C650.431 541.47 644.232 544.235 641.449 542.735C640.856 541.699 640.747 541.839 640.884 540.559C644.743 539.451 648.877 539.905 652.685 538.861C652.922 538.796 653.158 538.724 653.394 538.656C641.781 537.42 614.551 543.074 602.427 545.345C601.372 543.322 602.494 476.198 602.45 469.215Q599.188 234.618 599.818 0Z"/>
	<path fill="#261346" d="M628.559 0L645.053 0L661.364 0L717.509 0Q712.266 166.085 714.573 332.235Q715.695 387.098 718.185 441.916C718.762 455.635 720.761 471.463 720.525 484.846Q703.172 503.533 686.587 522.905C681.047 528.391 676.773 534.985 671.222 540.427C664.969 541.862 658.246 542.544 651.866 543.294L651.835 543.065C650.431 541.47 644.232 544.235 641.449 542.735C640.856 541.699 640.747 541.839 640.884 540.559C644.743 539.451 648.877 539.905 652.685 538.861C652.922 538.796 653.158 538.724 653.394 538.656C653.951 530.486 654.938 522.335 655.568 514.165Q658.262 478.208 660.306 442.209Q664.253 365.595 665.345 288.887Q666.438 212.179 664.673 135.483L663.547 87.2448C663.425 80.4578 664.407 71.3742 662.905 64.9594C661.543 59.1424 654.594 48.1231 651.592 42.4607C644.072 28.2761 636.992 13.6656 628.559 0Z"/>
	<path fill="#9F8BE8" d="M645.053 0L661.364 0L662.315 28.1961C656.066 19.2909 650.529 9.41405 645.053 0Z"/>
	<path fill="#7E6DAF" d="M512.604 0L530.174 0L551.5 0L599.818 0Q599.189 234.623 602.45 469.215C602.494 476.198 601.372 543.322 602.427 545.345C592.56 546.948 582.923 548.711 573.195 551.054C566.215 552.735 558.756 555.23 551.669 556.164C551.152 539.685 551.84 522.96 552.081 506.466L553.276 421.399L554.542 189.548L554.574 118.549C554.56 109.266 555.644 93.9096 553.761 85.3417C552.412 79.2005 549.153 73.0426 546.627 67.2836C543.068 59.1664 539.54 50.9838 535.507 43.0892C528.099 28.5907 519.809 14.6513 512.604 0Z"/>
	<path fill="#9F8BE8" d="M530.174 0L551.5 0L551.498 37.0922C544.535 24.6288 536.622 12.7473 530.174 0Z"/>
	<path d="M344.605 379.487C345.183 362.648 346.629 352.016 359.54 339.898C368.594 331.401 381.336 325.556 393.902 325.996C408.444 326.506 420.447 335.368 430.352 345.249C442.037 343.43 465.676 341.177 475.57 348.735C477.342 350.089 478.6 351.837 478.819 354.098C479.378 359.859 473.564 366.688 469.981 370.753C462.231 379.546 452.723 385.908 444.163 393.751C443.915 399.649 442.389 410.408 444.366 415.75C445.639 419.19 453.568 424.891 449.925 428.606C449.008 429.541 447.625 430.026 446.459 430.544C445.396 431.016 444.294 431.367 443.808 432.533C442.626 435.369 443.938 438.172 440.777 439.94C440.096 440.32 439.383 440.506 438.637 440.71C439.111 442.487 440.124 443.874 440.9 445.508L436.639 449.199C436.416 452.116 436.443 455.115 433.969 457.133C431.355 459.266 428.091 459.286 424.901 458.848C420.212 458.205 415.475 456.697 410.951 455.311C409.699 453.699 410.04 451.54 410.079 449.606L407.958 448.354C405.347 445.755 403.018 443.028 400.705 440.161C404.728 436.068 407.895 431.299 408.849 425.55C408.862 421.777 407.663 417.949 406.756 414.312L406.285 414.446C401.069 415.971 396.071 418.189 390.873 419.794C370.174 426.189 350.172 427.846 329.174 421.689C327.946 423.239 326.752 424.838 325.41 426.291C323.048 426.387 321.146 425.716 319.065 424.661C321.704 423.302 324.126 421.806 326.576 420.133C324.079 418.634 321.831 417.398 321.066 414.402C319.558 408.496 322.9 401.95 325.985 397.054C330.431 389.995 337.124 383.28 344.605 379.487Z"/>
	<path fill="#FEFEFE" d="M406.756 414.312Q416.621 409.622 426.189 404.352C430.709 401.88 435.202 399.051 439.896 396.938C438.679 414.255 437.657 410.28 445.854 425.132C446.383 426.09 446.454 425.77 446.053 426.902C443.919 427.927 441.918 427.346 440.207 429.021C439.684 430.934 440.384 434.251 438.528 435.289C435.059 437.228 426.766 434.191 424.967 436.436C424.947 437.95 424.871 437.925 425.858 439.058C428.846 440.208 432.289 439.576 435.049 441.029C435.415 441.907 435.552 441.719 435.251 442.48C434.691 443.897 433.142 445.046 432.033 446.043C432.181 448.217 432.96 452.19 431.852 454.034C429.608 455.556 426.99 455.085 424.458 454.591C419.468 453.619 414.697 451.682 410.079 449.606L407.958 448.354C405.347 445.755 403.018 443.028 400.705 440.161C404.728 436.068 407.895 431.299 408.849 425.55C408.862 421.777 407.663 417.949 406.756 414.312Z"/>
	<path d="M426.038 409.534C427.307 409.481 428.597 409.403 429.833 409.762C431.236 410.17 432.138 411.081 432.782 412.368L432.399 413.238C431 413.954 429.737 413.954 428.203 414.031L427.515 414.061L427.319 414.515L429.321 416.662C428.179 417.297 427.875 417.471 426.525 417.354C425.003 417.223 423.172 416.534 422.311 415.187C421.614 414.096 421.888 413.416 422.15 412.27C423.265 410.818 424.401 410.3 426.038 409.534Z"/>
	<path fill="#7E6DAF" d="M349.445 373.403Q349.455 369.852 350.022 366.347Q350.589 362.842 351.699 359.469C355.35 348.624 364.086 340.22 374.222 335.254C383.895 330.515 394.01 329.192 404.277 332.764C416.558 337.036 429.165 348.21 434.822 359.906C435.622 360.647 435.695 361.157 435.895 362.209C434.751 367.755 421.022 377.372 416.295 380.469C398.833 391.909 376.741 400.579 355.73 401.507C353.17 395.517 347.453 379.829 349.445 373.403Z"/>
	<path fill="#FEFEFE" d="M349.445 373.403Q349.455 369.852 350.022 366.347Q350.589 362.842 351.699 359.469C355.35 348.624 364.086 340.22 374.222 335.254C383.895 330.515 394.01 329.192 404.277 332.764C416.558 337.036 429.165 348.21 434.822 359.906C434.538 359.724 434.252 359.546 433.972 359.359C430.594 357.117 427.487 353.473 424.522 350.667C413.358 340.101 402.258 333.312 386.406 336.237C375.041 338.335 363.648 344.846 356.984 354.457C353.392 359.638 352.02 366.334 350.213 372.263C350.01 372.929 350.027 372.744 349.445 373.403Z"/>
	<defs>
		<linearGradient id="gradient_0" gradientUnits="userSpaceOnUse" x1="443.93631" y1="393.75354" x2="328.25244" y2="380.99939">
			<stop offset="0" stop-color="#7061A3"/>
			<stop offset="1" stop-color="#AE9CF0"/>
		</linearGradient>
	</defs>
	<path fill="url(#gradient_0)" d="M432.79 349.271C442.426 347.734 463.98 345.936 472.089 352.152C473.094 352.922 474.116 354.119 474.256 355.425C474.84 360.887 462.555 372.365 458.852 375.86C454.288 380.169 449.276 384.37 443.787 387.45C430.785 400.757 386.351 419.64 367.54 420.119C362.814 422.122 351.435 421.307 346.268 420.783C341.363 420.286 328.713 418.532 325.783 414.104C324.978 412.888 324.894 411.593 325.119 410.19C326.608 400.917 337.656 388.959 345.185 383.817C346.533 388.688 347.885 393.547 349.75 398.253C350.667 400.565 351.896 402.703 352.765 405.042L352.93 405.495C356.908 405.653 360.917 405.508 364.898 405.462Q367.941 405.003 370.959 404.402Q373.977 403.801 376.964 403.059Q379.951 402.318 382.899 401.437Q385.848 400.557 388.752 399.539Q391.657 398.522 394.51 397.369Q397.364 396.217 400.16 394.932Q402.956 393.648 405.69 392.234Q408.423 390.82 411.087 389.279C417.605 385.569 439.165 370.921 440.413 363.443C440.941 360.276 439.041 357.795 437.524 355.19C435.883 353.261 434.214 351.37 432.79 349.271Z"/>
	<path fill="#FEFEFE" d="M432.79 349.271C442.426 347.734 463.98 345.936 472.089 352.152C473.094 352.922 474.116 354.119 474.256 355.425C474.84 360.887 462.555 372.365 458.852 375.86C454.288 380.169 449.276 384.37 443.787 387.45C441.999 381.909 448.823 371.965 446.206 363.585C444.856 359.261 441.355 357.119 437.524 355.19C435.883 353.261 434.214 351.37 432.79 349.271Z"/>
	<path fill="#DDD6F9" d="M846.579 334.506C849.162 330.544 853.124 326.803 856.234 323.213C861.34 317.317 866.256 311.244 871.311 305.302C887.413 286.375 903.127 267.057 919.414 248.3L920.056 248.822C920.047 249.827 920.006 249.382 920.21 250.477C920.261 250.749 920.318 251.021 920.371 251.293L921.575 337.729C917.311 340.315 913.429 343.728 909.519 346.82C901.177 353.419 893.024 360.163 884.832 366.941C872.295 377.314 859.373 387.244 846.813 397.621L807.856 429.219C787.175 446.277 766.75 463.573 745.733 480.231C735.947 487.988 725.835 495.304 716.007 502.998C710.524 507.29 692.727 522.912 687.94 523.961C687.369 523.624 686.982 523.45 686.587 522.905Q703.172 503.533 720.525 484.846C720.548 484.77 720.575 484.695 720.594 484.618C721.907 479.29 752.125 449.911 757.25 441.367C763.932 433.398 772.111 425.625 777.742 416.9C780.51 412.755 784.156 408.881 787.393 405.085C793.817 397.553 800.367 390.114 806.55 382.382C813.371 374.372 819.791 366.03 826.628 358.035C833.261 350.278 840.485 342.686 846.579 334.506Z"/>
	<path fill="#7E6DAF" d="M440.992 0L473.499 0Q473.255 98.6357 470.961 197.245C470.304 231.878 470.398 266.489 468.933 301.109C458.023 291.529 446.7 282.462 435.809 272.888C435.15 241.737 437.485 210.297 438.268 179.14Q440.336 89.5807 440.992 0Z"/>
	<path fill="#7E6DAF" d="M360.491 0L377.518 0L378.964 283.953C373.2 286.696 366.578 288.146 360.547 290.306L360.491 0Z"/>
	<path d="M602.427 545.345C614.551 543.074 641.781 537.42 653.394 538.656C653.158 538.724 652.922 538.796 652.685 538.861C648.877 539.905 644.743 539.451 640.884 540.559C640.747 541.839 640.856 541.699 641.449 542.735C644.232 544.235 650.431 541.47 651.835 543.065L651.866 543.294C588.916 549.895 528.368 566.465 468.672 587.058Q449.572 593.637 430.778 601.048C421.416 604.65 411.981 608.548 402.307 611.239C410.939 604.282 422.96 600.057 433.175 595.872C459.142 585.234 485.65 576.429 512.419 568.064C525.484 563.981 538.465 559.796 551.669 556.164C558.756 555.23 566.215 552.735 573.195 551.054C582.923 548.711 592.56 546.948 602.427 545.345Z"/>
	<path fill="#090022" d="M400.705 440.161C403.018 443.028 405.347 445.755 407.958 448.354L410.079 449.606C410.04 451.54 409.699 453.699 410.951 455.311C409.334 459.539 407.885 463.992 405.333 467.759C403.117 471.028 399.734 473.673 398.229 477.331L396.834 480.696C396.211 480.69 395.804 480.508 395.224 480.298C392.021 476.073 391.199 468.817 389.932 463.701C390.009 463.579 390.077 463.452 390.162 463.336C393.468 458.821 391.932 450.945 397.631 444.452C397.792 442.45 399.323 441.431 400.705 440.161Z"/>
	<path fill="#745AB7" d="M400.705 440.161C403.018 443.028 405.347 445.755 407.958 448.354C404.371 448.038 400.802 446.04 397.631 444.452C397.792 442.45 399.323 441.431 400.705 440.161Z"/>
	<path fill="#090022" d="M304.478 435.981C303.963 435.347 303.444 434.698 303.019 433.998C301.921 432.195 300.407 429.309 300.879 427.163C303.767 423.527 312.804 426.071 318.352 424.826L319.065 424.661C321.146 425.716 323.048 426.387 325.41 426.291C322.575 429.137 317.035 434.326 314.985 437.384C311.87 437.477 308.304 436.157 305.299 435.379L304.478 435.981Z"/>
	<path fill="#9F8BE8" d="M0 0L44.834 0L115.922 0L151.68 0L178.311 0L185.569 0L218.651 0L219.174 0L231.913 0L272.478 0L298.569 0Q297.148 79.0807 294.687 158.136L291.498 314.726L290.31 395.226Q289.997 409.697 289.969 424.171C289.956 428.869 289.634 433.898 290.249 438.545C276.497 442.948 266.501 449.138 257.091 460.197C257.011 460.309 256.932 460.422 256.85 460.533C254.42 463.831 251.24 466.624 248.542 469.717C242.257 476.923 229.878 491.881 231.589 502.295C232.263 506.392 234.686 508.53 237.711 511.038C234.4 513.519 232.373 516.573 230.183 519.993C225.763 518.302 221.22 516.222 216.526 518.195C207.09 522.16 192.669 538.865 189.079 548.375C188.69 549.406 188.193 551.133 188.663 552.186C189.58 554.243 192.679 555.286 194.614 556.186C188.785 570.944 176.546 605.7 182.333 619.838C187.02 631.292 203.299 635.243 213.377 640.066C213.703 645.509 216.01 650.094 216.405 655.502C218.225 680.392 217.731 706.175 215.523 731.028C214.12 746.828 211.639 763.289 207.11 778.514C202.8 793.004 196.726 807.312 194.106 822.238C192.407 831.918 193.265 841.259 193.454 851C193.802 869.017 194.478 888.312 191.117 906.054C189.635 913.877 184.013 926.12 188.705 933.289C179.557 938.474 169.995 942.918 160.647 947.725C153.13 950.759 145.826 954.682 138.57 958.306Q120.475 967.432 102.229 976.252Q70.0405 991.553 38.1611 1007.49C27.316 1012.83 15.6032 1017.5 5.41019 1024L0 1024L0 685.419L0 658.428L0 0Z"/>
	<path fill="#261346" d="M0 0L44.834 0L115.922 0L151.68 0L178.311 0L161.777 17.5324C150.19 29.2854 119.807 68.0459 113.953 82.4533C112.936 84.9567 112.932 87.8632 112.958 90.5282Q114.848 276.789 119.584 463Q120.813 516.67 123.815 570.269C124.717 586.963 124.368 605.257 128.134 621.56C131.788 637.38 144.121 654.021 155.54 665.194Q163.195 672.634 171.59 679.227C174.339 681.406 190.339 692.468 191.06 694.051C190.073 695.051 189.291 694.986 187.941 695.004C182.233 695.081 176.051 693.803 170.312 693.305C160.982 692.496 151.404 692.023 142.287 689.786C131.854 687.224 122.849 681.632 113.465 676.638C107.584 673.508 101.556 670.548 95.8049 667.192C94.2887 672.492 86.949 703.73 85.5616 705.307C84.2199 705.329 83.8397 704.93 82.938 704.006C71.4713 692.266 62.9861 677.284 53.0231 664.322C35.4299 671.232 17.1857 677.61 0 685.419L0 658.428L0 0Z"/>
	<path fill="#9F8BE8" d="M0 0L44.834 0C42.7632 106.921 43.8742 213.907 41.754 320.84Q40.5982 374.798 38.7321 428.737L37.1807 463.186C36.908 468.935 36.1619 475.129 36.5519 480.867C36.2587 487.213 35.9326 493.55 35.9409 499.904C34.958 507.711 34.1887 523.457 34.553 531.342C34.2619 540.185 33.3765 549.152 33.4938 557.98C33.0433 562.638 32.2895 567.658 32.5521 572.329C31.6941 584.202 30.4571 596.106 29.8723 607.99L29.7026 608.733C28.5789 613.871 29.2345 619.472 27.8213 624.556C24.789 635.466 8.75624 650.982 0 658.428L0 0Z"/>
	<path fill="#9F8BE8" d="M115.922 0L151.68 0Q132.244 19.2294 114.715 40.2111C114.63 26.8869 115.606 13.3448 115.922 0Z"/>
	<path fill="#090022" d="M32.5521 572.329C35.322 579.117 32.7257 599.917 31.0658 607.507L30.3551 608.16L29.8723 607.99C30.4571 596.106 31.6941 584.202 32.5521 572.329Z"/>
	<path fill="#090022" d="M34.553 531.342L35.3122 531.114C36.9337 533.989 35.8503 551.431 35.0263 554.986C34.7544 556.159 34.1978 557.04 33.4938 557.98C33.3765 549.152 34.2619 540.185 34.553 531.342Z"/>
	<path fill="#090022" d="M36.5519 480.867C38.1786 484.171 38.2731 500.028 37.0904 503.646C37.0211 503.857 36.9421 504.066 36.868 504.276C35.9961 503.379 36.0344 501.151 35.9409 499.904C35.9326 493.55 36.2587 487.213 36.5519 480.867Z"/>
	<path fill="#7E6DAF" d="M272.478 0L298.569 0Q297.148 79.0807 294.687 158.136L291.498 314.726L290.31 395.226Q289.997 409.697 289.969 424.171C289.956 428.869 289.634 433.898 290.249 438.545C276.497 442.948 266.501 449.138 257.091 460.197C256.802 444.222 258.012 427.897 258.391 411.899Q260.148 344.045 263.296 276.241Q268.974 138.157 272.478 0Z"/>
	<path fill="#7E6DAF" d="M178.311 0L185.569 0C187.216 35.9691 186.225 72.2218 186.361 108.23L186.954 311.067C187.152 347.78 186.926 384.554 188.215 421.248C184.859 416.818 180.805 412.957 177.001 408.916Q169.336 400.644 161.957 392.116L161.469 147.742L161.691 63.7721C161.785 48.5146 162.737 32.7476 161.777 17.5324L178.311 0Z"/>
	<path fill="#261346" d="M233.367 1.37845C240.696 2.70297 246.361 4.32059 250.784 10.8886C256.449 19.3019 257.627 30.2925 255.551 40.0418C254.465 45.1402 252.713 50.2155 250.644 54.995C243.889 39.3564 232.245 33.0016 228.351 16.5805C228.148 15.7267 228.291 16.0719 227.889 15.402C228.144 10.3668 229.226 7.31457 231.875 3.07739L233.367 1.37845Z"/>
	<path fill="#261346" d="M218.651 0L219.174 0L231.913 0L233.367 1.37845L231.875 3.07739C229.226 7.31457 228.144 10.3668 227.889 15.402C227.52 14.4494 227.641 14.8929 227.448 13.7646C227.399 13.4819 227.357 13.1982 227.312 12.915L226.964 12.7755L227.504 13.5383L226.305 13.3582L226.585 13.3095L225.933 13.3744C224.677 16.0994 224.44 19.7551 223.565 22.698C221.155 30.8009 213.541 40.0796 206.991 45.1494C205.494 37.0165 203.705 28.8233 204.843 20.5258C205.588 15.0879 207.683 7.44497 212.159 3.95125C214.028 2.49259 216.377 1.74003 218.309 0.267443C218.424 0.179701 218.537 0.0891477 218.651 0Z"/>
	<path fill="#DDD6F9" d="M219.174 0L231.913 0L233.367 1.37845L231.875 3.07739C229.226 7.31457 228.144 10.3668 227.889 15.402C227.52 14.4494 227.641 14.8929 227.448 13.7646C227.399 13.4819 227.357 13.1982 227.312 12.915L226.964 12.7755L227.504 13.5383L226.305 13.3582L226.585 13.3095L225.933 13.3744C225.637 6.42387 221.922 6.14113 220.823 0.985703L219.174 0Z"/>
	<path d="M219.174 0L231.913 0L233.367 1.37845L231.875 3.07739C228.231 2.14179 224.534 1.58186 220.823 0.985703L219.174 0Z"/>
	<path fill="#261346" d="M819.469 0L830.963 0L842.908 0L857.494 0L869.024 0L912.469 0L968.013 0L987.879 0L1001.07 0L1024 0L1024 650.666L1024 655.876L1024 986.631C1008.67 978.003 992.416 970.621 976.526 963.079Q932.315 941.593 886.499 923.781C875.134 919.38 863.524 915.458 851.967 911.595C846.323 909.709 840.229 908.196 834.841 905.698L834.717 904.878C830.605 900.739 791.477 890.634 783.451 887.894C777.966 886.022 758.608 877.613 756.264 872.784C756.293 871.536 756.41 870.299 755.959 869.11C755.887 868.919 755.778 868.744 755.687 868.561C760.331 856.914 773.53 846.363 784.345 840.779C787.079 839.367 790.096 838.777 792.809 837.314C787.995 834.562 775.403 837.015 769.554 834.443C768.248 833.868 767.638 833.185 767.081 831.87C766.898 827.858 770.146 824.621 772.583 821.757C788.318 803.27 806.387 793.987 830.736 792.01C823.148 784.743 813.547 780.103 806.087 772.966C810.984 766.625 819.553 762.677 827.141 760.728C843.81 756.446 860.62 760.612 875.191 769.135C873.142 765.8 871.224 762.551 869.763 758.906C866.872 751.691 863.085 734.745 866.433 727.657C867.051 726.349 868.179 725.129 869.656 724.847C876.566 723.526 895.66 732.971 901.59 737.151C897.953 730.462 892.395 719.859 892.812 712.045C892.918 710.071 893.613 708.361 895.164 707.089C900.839 702.432 916.946 703.019 923.917 703.654Q920.895 697.516 918.726 691.027C917.427 687.043 914.158 676.232 916.814 672.511C917.848 671.062 920.298 671.002 921.935 670.764C922.145 670.453 922.443 670.184 922.565 669.829C923.446 667.268 924.136 597.119 924.392 588.108C924.755 577.862 924.461 567.506 924.413 557.249L924.106 503.353Q923.954 487.716 923.602 472.083Q923.062 420.534 921.919 368.994Q921.846 353.36 921.575 337.729L920.371 251.293C920.59 243.194 919.843 234.851 919.565 226.74L917.935 178.591C917.686 171.377 918.29 154.356 916.881 148.556C915.29 142.005 906.927 131.184 903.013 124.946C897.885 116.772 893.157 108.359 887.908 100.257C879.421 87.1547 870.384 74.6547 861.353 61.9488C855.498 53.7101 849.93 45.4422 843.543 37.5936C837.525 28.9698 830.171 21.2709 824.164 12.5528L824.523 12.0992C824.333 11.3761 824.168 10.6506 824.003 9.9215L824.442 10.5993C824.608 10.2074 820.042 1.49283 819.469 0Z"/>
	<path fill="#9F8BE8" d="M1001.07 0L1024 0L1024 650.666L1024 655.876C1022.2 657.606 1020.21 660.1 1017.68 660.591C1016.28 663.026 1015.56 665.796 1014.7 668.457C1011.72 662.476 1008.26 656.494 1003.51 651.733C1001.77 649.987 998.984 647.519 996.299 647.805C995.107 647.932 994.201 648.594 993.434 649.461C991.592 651.54 990.598 654.492 989.62 657.057C986.052 666.41 985.133 674.067 985.863 684.014C983.123 680.933 979.893 678.794 976.526 676.455C975.464 643.932 973.802 611.474 973.043 578.928C972.911 573.286 971.666 558.392 972.928 553.688C972.281 553.146 971.88 552.204 971.452 551.475C971.46 550.519 971.651 550.525 972.21 549.799C974.295 548.888 976.317 548.996 978.547 548.97C976.6 548.509 974.467 548.54 972.472 548.429Q970.367 424.006 969.917 299.565Q968.628 233.811 968.489 168.044L968.497 101.68C968.456 92.7602 967.318 74.3777 968.925 66.611C970.113 60.8661 974.117 54.572 976.697 49.3226C984.749 32.9432 993.869 16.7573 1001.07 0Z"/>
	<path d="M978.547 548.97C987.407 549.394 1002.39 552.919 1008.49 560.037C1008.91 560.53 1009.11 561.034 1009.27 561.652L1008.88 562.485C1002.68 561.718 996.38 558.584 990.3 557.01C984.602 555.535 978.602 555.19 972.928 553.688C972.281 553.146 971.88 552.204 971.452 551.475C971.46 550.519 971.651 550.525 972.21 549.799C974.295 548.888 976.317 548.996 978.547 548.97Z"/>
	<path fill="#090022" d="M1024 650.666L1024 655.876C1022.2 657.606 1020.21 660.1 1017.68 660.591C1019.22 656.815 1021.37 653.747 1024 650.666Z"/>
	<path fill="#9F8BE8" d="M869.024 0L912.469 0C912.424 12.2516 913.032 24.5586 913.393 36.8092L915.511 102.278C908.472 93.5074 874.537 49.0679 872.746 42.7176C871.307 37.6172 871.448 31.7796 871.082 26.5097C870.469 17.677 869.923 8.80778 869.024 0Z"/>
	<path fill="#9F8BE8" d="M968.013 0L987.879 0Q978.589 19.4946 968.436 38.5541L968.013 0Z"/>
	<path fill="#9F8BE8" d="M842.908 0L857.494 0C857.522 10.675 859.003 21.5992 859.976 32.2363C854.356 25.9231 848.596 19.5957 843.299 13.011C842.791 8.72347 842.941 4.31471 842.908 0Z"/>
	<path fill="#7E6DAF" d="M830.963 0L842.908 0C842.941 4.31471 842.791 8.72347 843.299 13.011C839.071 8.80998 835.057 4.33605 830.963 0Z"/>
	<path fill="#9F8BE8" d="M626.74 874.461C634.732 868.935 642.377 861.915 649.706 855.521C669.961 837.852 689.155 818.922 708.473 800.24L859.917 651.872C870.044 641.93 880.332 632.105 890.248 621.956C898.938 613.063 907.68 604.454 916.67 595.862C919.317 593.332 921.619 590.503 924.392 588.108C924.136 597.119 923.446 667.268 922.565 669.829C922.443 670.184 922.145 670.453 921.935 670.764C920.298 671.002 917.848 671.062 916.814 672.511C914.158 676.232 917.427 687.043 918.726 691.027Q920.895 697.516 923.917 703.654C916.946 703.019 900.839 702.432 895.164 707.089C893.613 708.361 892.918 710.071 892.812 712.045C892.395 719.859 897.953 730.462 901.59 737.151C895.66 732.971 876.566 723.526 869.656 724.847C868.179 725.129 867.051 726.349 866.433 727.657C863.085 734.745 866.872 751.691 869.763 758.906C871.224 762.551 873.142 765.8 875.191 769.135C860.62 760.612 843.81 756.446 827.141 760.728C819.553 762.677 810.984 766.625 806.087 772.966C813.547 780.103 823.148 784.743 830.736 792.01C806.387 793.987 788.318 803.27 772.583 821.757C770.146 824.621 766.898 827.858 767.081 831.87C767.638 833.185 768.248 833.868 769.554 834.443C775.403 837.015 787.995 834.562 792.809 837.314C790.096 838.777 787.079 839.367 784.345 840.779C773.53 846.363 760.331 856.914 755.687 868.561C755.778 868.744 755.887 868.919 755.959 869.11C756.41 870.299 756.293 871.536 756.264 872.784C758.608 877.613 777.966 886.022 783.451 887.894C791.477 890.634 830.605 900.739 834.717 904.878L834.841 905.698C840.229 908.196 846.323 909.709 851.967 911.595C863.524 915.458 875.134 919.38 886.499 923.781Q932.315 941.593 976.526 963.079C992.416 970.621 1008.67 978.003 1024 986.631L1024 1024L275.312 1024C285.078 1017.18 295.255 1010.89 305.256 1004.42L359.184 969.646C368.429 963.698 378.212 958.253 387.094 951.796C392.596 947.965 401.095 946.516 403.859 939.654C404.721 937.514 404.653 935.007 403.586 932.95C400.187 926.399 379.984 923.809 372.657 921.285C361.375 917.399 355.497 911.396 355.962 898.943C356.686 879.532 360.757 860.542 363.387 841.349C366.362 819.64 370.043 782.882 367.564 761.381C366.211 749.638 362.716 738.309 359.434 727Q353.073 704.322 345.101 682.158Q340.24 668.818 335.793 655.335C332.006 643.688 328.473 631.459 323.133 620.41C324.136 619.821 325.154 619.225 326.076 618.511C331.483 614.324 331.63 605.808 332.409 599.538C333.79 600.019 335.794 600.822 337.27 600.686C338.717 600.553 338.959 600.253 339.863 599.244C339.617 604.842 340.085 609.792 341.569 615.215C345.887 630.993 353.271 647.499 358.903 663.002C364.592 678.664 369.507 695.529 375.891 710.794C376.619 712.534 377.841 714.031 379.122 715.397C383.75 720.331 390.274 723.931 396.05 727.37C386.095 742.575 382.308 759.241 386.032 777.227C388.345 788.393 393.687 800.332 402.784 807.595C403.789 810.471 404.878 813.302 405.306 816.332C406.312 823.462 405.621 831.317 405.609 838.55Q405.519 859.298 405.88 880.043C407.252 881.35 408.606 882.292 410.302 883.14C419.89 887.934 430.433 891.591 440.342 895.753C454.45 901.678 468.546 908.156 482.841 913.572C484.405 914.165 486.355 914.841 488.051 914.731C493.333 914.389 499.022 912.186 504.116 910.773L533.282 902.697L607.436 881.733C612.527 880.252 617.736 879.16 622.802 877.592C624.288 877.132 625.566 876.75 626.793 875.756C626.788 875.384 626.841 874.814 626.74 874.461Z"/>
	<path d="M755.687 868.561C755.778 868.744 755.887 868.919 755.959 869.11C756.41 870.299 756.293 871.536 756.264 872.784C758.608 877.613 777.966 886.022 783.451 887.894C791.477 890.634 830.605 900.739 834.717 904.878L834.841 905.698C829.158 904.352 823.412 902.089 817.828 900.296Q803.465 895.557 788.763 892.003C763.753 885.935 738.751 883.517 713.352 880.213C711.577 879.982 710.361 880.043 709.246 878.592L709.724 877.644C714.935 875.398 761.169 882.704 769.58 883.895C765.386 881.825 756.826 878.03 754.984 873.643C754.171 871.706 754.917 870.341 755.687 868.561Z"/>
	<path fill="#9F8BE8" d="M281.003 718.011C290.894 729.721 311.849 757.558 317.67 770.986C315.417 791.596 309.901 808.53 311.694 830.128C313.759 854.996 324.212 878.619 325.794 903.671C326.626 916.835 321.99 928.995 321.937 941.873C322.117 945.229 322.076 948.529 321.96 951.887C323.935 954.889 325.121 955.778 328.667 956.475C339.019 958.51 360.974 954.163 372.058 952.393C375.926 951.775 380.355 950.651 384.263 950.784C385.442 950.824 386.146 951.141 387.094 951.796C378.212 958.253 368.429 963.698 359.184 969.646L305.256 1004.42C295.255 1010.89 285.078 1017.18 275.312 1024L177.427 1024L82.6394 1024L5.41019 1024C15.6032 1017.5 27.316 1012.83 38.1611 1007.49Q70.0404 991.553 102.229 976.252Q120.475 967.432 138.57 958.306C145.826 954.682 153.13 950.759 160.647 947.725C163.759 949.341 172.248 943.799 175.042 942.34C179.557 939.98 184.264 937.038 189.021 935.244C202.812 930.046 219.629 933.984 233.846 933.899L234.649 933.89L236.042 933.634C237.211 934.489 237.124 934.923 237.49 936.287C237.674 936.198 237.857 936.106 238.042 936.019C245.487 932.519 260.96 932.461 264.502 923.78C265.329 921.751 265.106 919.265 264.177 917.308C262.238 913.224 257.108 911.122 253.01 909.893C241.555 906.456 231.621 906.817 224.552 895.543C224.298 891.377 224.511 887.679 225.409 883.594C228.028 871.678 232.684 860.201 236.183 848.528Q242.656 827.023 249.409 805.604C251.904 797.565 254.082 789.351 257.014 781.462C261.924 768.257 267.142 755.142 272.237 742.006C275.311 734.083 278.715 726.211 281.003 718.011Z"/>
	<path fill="#261346" d="M321.937 941.873C322.117 945.229 322.076 948.529 321.96 951.887C323.935 954.889 325.121 955.778 328.667 956.475C339.019 958.51 360.974 954.163 372.058 952.393C375.926 951.775 380.355 950.651 384.263 950.784C385.442 950.824 386.146 951.141 387.094 951.796C378.212 958.253 368.429 963.698 359.184 969.646L305.256 1004.42C295.255 1010.89 285.078 1017.18 275.312 1024L177.427 1024C198.811 1011.87 220.914 1000.74 242.71 989.367Q281.908 968.495 321.616 948.615C321.57 946.319 321.641 944.152 321.937 941.873Z"/>
	<path fill="#261346" d="M160.647 947.725C163.759 949.341 172.248 943.799 175.042 942.34C179.557 939.98 184.264 937.038 189.021 935.244C202.812 930.046 219.629 933.984 233.846 933.899L234.649 933.89L236.042 933.634C237.211 934.489 237.124 934.923 237.49 936.287C227.868 941.884 218.174 947.99 208.122 952.781C199.027 959.044 188.53 963.59 178.942 969.112C146.978 987.522 114.126 1004.81 82.6394 1024L5.41019 1024C15.6032 1017.5 27.316 1012.83 38.1611 1007.49Q70.0404 991.553 102.229 976.252Q120.475 967.432 138.57 958.306C145.826 954.682 153.13 950.759 160.647 947.725Z"/>
	<path fill="#090022" d="M234.649 933.89L236.042 933.634C237.211 934.489 237.124 934.923 237.49 936.287C227.868 941.884 218.174 947.99 208.122 952.781C208.537 948.721 224.992 939.455 228.956 937.493C230.969 936.497 234.096 935.935 235.671 934.377L234.649 933.89Z"/>
	<path fill="#261346" d="M329.174 421.689C350.172 427.846 370.174 426.189 390.873 419.794C396.071 418.189 401.069 415.971 406.285 414.446L406.756 414.312C407.663 417.949 408.862 421.777 408.849 425.55C402.707 429.366 400.061 436.769 393.333 440.105C388.86 442.323 383.327 440.685 379.174 442.503C379.111 443.75 379.282 444.433 380.115 445.419C381.03 446.501 383.168 448.123 384.587 448.24C384.408 453.545 383.604 460.047 379.463 463.809C378.625 464.57 377.642 465.1 376.592 465.509C371.766 458.568 338.192 444.139 328.954 440.931C324.378 439.342 319.721 438.345 314.985 437.384C317.035 434.326 322.575 429.137 325.41 426.291C326.752 424.838 327.946 423.239 329.174 421.689Z"/>
	<path fill="#DDD6F9" d="M316.279 583.725C325.322 581.658 333.501 577.838 341.836 573.901C341.252 582.355 340.331 590.78 339.863 599.244C338.959 600.253 338.717 600.553 337.27 600.686C335.794 600.822 333.79 600.019 332.409 599.538C331.029 596.146 319.674 586.387 316.279 583.725Z"/>
	<path fill="#FEFEFE" d="M384.587 448.24C386.741 446.865 389.609 446.606 392.09 446.107C388.328 454.877 387.577 462.598 379.905 469.166C378.704 468.219 377.117 467.296 376.553 465.828L376.592 465.509C377.642 465.1 378.625 464.57 379.463 463.809C383.604 460.047 384.408 453.545 384.587 448.24Z"/>
	<path fill="#7E6DAF" d="M282.306 606.237C291.787 609.744 307.112 614.46 315.126 620.154L320.43 623.158C325.911 636.417 329.728 650.751 334.358 664.372C341.767 686.172 349.399 707.919 355.743 730.059C359.002 741.435 362.579 753.354 363.634 765.189C364.185 771.375 363.735 777.778 363.489 783.972Q362.671 804.636 360.508 825.202C359.743 832.839 358.251 853.455 356.15 859.239C355.636 860.653 353.984 860.758 352.686 861.202C343.474 863.946 332.333 862.876 322.826 862.365C316.248 836.63 314.217 821.661 318.234 795.296C319.403 787.619 322.665 778.015 321.577 770.415C319.132 753.322 256.599 681.109 241.707 666.574C235.96 660.964 229.635 656.889 223.325 652.043C218.802 648.569 218.683 646.471 217.983 641.061C232.342 644.57 248.259 646.004 262.077 639.586C273.901 634.094 278.09 617.599 282.306 606.237Z"/>
	<path fill="#FEFEFE" d="M315.126 620.154L320.43 623.158C325.911 636.417 329.728 650.751 334.358 664.372C341.767 686.172 349.399 707.919 355.743 730.059C359.002 741.435 362.579 753.354 363.634 765.189C364.185 771.375 363.735 777.778 363.489 783.972Q362.671 804.636 360.508 825.202C359.743 832.839 358.251 853.455 356.15 859.239C355.636 860.653 353.984 860.758 352.686 861.202C355.196 830.834 360.941 795.132 358.784 764.93C357.773 750.779 353.222 736.485 349.231 722.934C344.091 705.482 338.891 687.895 332.849 670.735Q326.458 653.134 320.49 635.384C318.79 630.476 316.715 625.637 315.267 620.652L315.126 620.154Z"/>
	<path fill="#7E6DAF" d="M220.432 654.463C236.253 666.857 249.776 680.745 262.89 695.952C266.514 700.154 270.589 704.388 273.638 709.029L278.435 714.916C273.613 723.991 270.406 734.935 266.702 744.56C262.159 756.363 256.824 768.24 252.905 780.245C250.947 780.699 248.931 781.076 247.007 781.652C244.828 782.416 242.3 783.004 240.554 784.56C240.196 785.737 240.288 785.669 240.868 786.775C242.097 787.677 243.476 787.411 244.921 787.353C247.127 786.406 249.21 785.619 251.546 785.025C249.447 791.774 230.947 851.33 229.903 851.836C228.49 852.52 226.471 852.56 224.901 852.742C218.716 854.98 204.496 851.724 198.292 850.12C197.661 843.361 197.115 836.261 197.766 829.493C199.865 807.659 211.467 784.107 215.763 761.635C222.454 726.632 222.744 689.914 220.432 654.463Z"/>
	<path fill="#FEFEFE" d="M244.921 787.353C247.127 786.406 249.21 785.619 251.546 785.025C249.447 791.774 230.947 851.33 229.903 851.836C228.49 852.52 226.471 852.56 224.901 852.742L224.161 852.374L223.895 851.53C227.63 842.941 230.267 833.845 233.103 824.934L244.921 787.353Z"/>
	<path fill="#FEFEFE" d="M247.007 781.652C254.75 764.336 260.773 745.959 267.106 728.074C269.31 721.851 270.757 714.909 273.638 709.029L278.435 714.916C273.613 723.991 270.406 734.935 266.702 744.56C262.159 756.363 256.824 768.24 252.905 780.245C250.947 780.699 248.931 781.076 247.007 781.652Z"/>
	<path fill="#FEFEFE" d="M364.172 476.643C366.189 476.254 368.323 476.422 370.305 476.94C376.755 478.624 383.17 482.933 386.53 488.715C396.306 505.538 388.393 544.578 383.828 562.858C371.237 560.09 358.418 558.032 345.756 555.563Q346.705 540.866 347.902 526.187C348.258 521.664 349.093 516.776 348.951 512.273C348.92 511.293 348.691 510.445 348.25 509.57C347.749 508.574 348.078 508.861 347.114 508.556C343.578 512.059 343.911 523.503 343.586 528.377C343.182 537.08 342.401 545.774 341.994 554.487C328.272 561.912 312.733 567.778 297.001 567.45C299.556 558.34 304.604 549.556 308.889 541.141C315.868 527.433 322.748 513.622 331.593 500.997C340.95 487.642 347.617 479.561 364.172 476.643Z"/>
	<path fill="#7E6DAF" d="M608.907 820.588L609.869 820.586C610.031 820.802 610.248 820.986 610.355 821.233C610.406 821.351 611.162 859.552 611.345 863.161C596.562 865.61 582.049 870.714 567.626 874.729C545.801 880.804 523.914 886.459 502.196 892.933Q502.169 880.029 502.011 867.125C501.981 860.443 501.917 853.787 501.562 847.113C518.154 843.527 534.573 838.46 550.917 833.878C551.278 838.314 551.296 842.797 551.739 847.216C552.145 851.261 553.262 855.929 556.681 858.498C559.307 860.472 562.887 860.913 566.054 860.331C570.069 859.594 573.867 857.081 576.078 853.641C580.215 847.203 576.723 835.767 575.153 828.859C586.401 826.092 597.739 823.672 608.907 820.588Z"/>
	<path fill="#FEFEFE" d="M346.598 560.842C356.496 561.614 366.971 563.574 376.545 566.181C374.856 575.875 370.337 589.941 370.467 599.216C370.581 607.318 373.836 618.854 375.435 627.033C379.301 646.795 383.313 666.508 386.542 686.388C387.107 689.862 389.235 694.763 388.898 698.139C388.792 699.197 387.752 699.675 386.957 700.333C386.69 701.609 386.883 701.887 387.343 703.13L388.486 703.642C391.215 702.819 393.452 702.46 396.199 703.508C401.902 705.684 405.833 710.767 408.353 716.093C409.888 715.045 411.16 714.138 412.977 713.678C414.061 713.89 414.702 714.072 415.601 714.723C413.351 715.485 410.984 716.21 408.858 717.274C405.889 718.759 401.344 723.275 398.17 723.368C395.321 723.451 383.127 713.358 380.327 711.292C373.919 688.447 364.205 664.28 355.882 641.975C352.058 631.727 345.736 619.318 344.52 608.552C343.574 600.169 345.07 591.384 345.734 582.993Q346.612 571.935 346.598 560.842Z"/>
	<path fill="#7E6DAF" d="M516.283 734.563L517.266 734.523C517.462 734.753 517.749 734.93 517.854 735.213C518.41 736.706 518.136 774.161 518.17 779.242C508.984 780.862 499.865 783.649 490.735 785.657C468.054 790.645 445.258 795.513 422.678 800.92L421.473 800.945C421.587 798.763 454.373 753.432 458.271 748.544C465.23 747.28 472.102 745.338 478.979 743.675L516.283 734.563Z"/>
	<path fill="#7E6DAF" d="M276.997 560.698C281.4 564.836 286.202 567.867 291.568 570.592C286.176 582.565 281.677 594.827 276.965 607.076C274.023 614.724 271.386 623.468 266.798 630.305C263.311 635.5 256.285 637.411 250.436 638.483C230.762 642.087 208.09 635.747 191.823 624.507C190.138 623.131 188.335 621.677 187.226 619.773C182.68 611.965 187.245 595.087 189.223 586.484C195.56 593.924 204.066 599.183 212.902 603.192C223.204 607.865 237.8 612.547 248.916 608.148C252.413 606.764 255.361 604.556 257.746 601.654C264.904 592.948 272.396 571.89 276.997 560.698Z"/>
	<path fill="#7E6DAF" d="M422.445 826.085C429.514 829.24 437.037 831.707 444.297 834.395Q463.678 841.747 483.291 848.456L483.559 895.415Q453.326 882.571 422.723 870.639C422.276 855.832 422.545 840.907 422.445 826.085Z"/>
	<path fill="#7E6DAF" d="M353.49 866.198L354.508 866.136C356.205 868.891 348.337 899.949 353.476 911.765C358.846 924.114 375.083 927.046 386.787 929.484C390.138 930.182 393.968 930.695 397.115 932.036C398.099 932.456 398.404 932.479 398.802 933.508C398.705 933.679 398.626 933.863 398.51 934.022C394.596 939.389 373.89 942.317 367.117 943.375C353.255 944.943 339.74 944.445 325.884 942.999C326.417 934.218 328.864 925.779 329.95 917.088C332.029 900.451 327.801 883.166 323.911 867.063C333.676 868.37 343.763 867.398 353.49 866.198Z"/>
	<path fill="#DDD6F9" d="M538.786 792.668C542.883 791.746 583.794 803.767 591.003 805.572C581.652 807.038 572.597 810.134 563.26 811.851C561.935 809.541 560.465 807.284 557.884 806.23C555.804 805.38 553.31 806.044 551.316 806.858C543.127 810.2 548.614 812.377 546.945 816.299C544.983 816.957 542.927 817.244 540.894 817.607C541.578 815.89 542.621 813.414 542.535 811.577C542.454 809.834 541.542 808.597 540.282 807.478C539.144 806.469 538.17 806.118 536.676 806.206C535.863 807.063 535.975 807.113 535.748 808.197C536.13 808.536 536.517 808.87 536.883 809.226C539.055 811.339 538.439 815.211 538.404 818.066C526.178 820.172 514.15 823.714 502.102 826.653C497.79 827.683 493.503 829.124 489.252 830.388C482.48 828.334 475.781 825.715 469.099 823.374C460.772 820.456 452.337 817.71 444.157 814.405C450.025 813.142 456.214 812.461 461.927 810.644C466.152 812.198 470.31 813.999 474.589 815.39C475.678 815.045 475.59 815.037 476.143 814.023C475.304 811.364 469.389 809.527 466.856 808.177L496.958 801.53C510.885 798.309 524.659 794.923 538.786 792.668Z"/>
	<path d="M501.421 813.035C502.923 813.011 504.379 813.138 505.657 813.986C507.194 815.005 508.62 816.776 508.852 818.657C509.06 820.342 508.606 822.06 507.47 823.343C505.809 825.219 503.41 825.173 501.101 825.364C499.406 825.181 497.457 825.134 495.848 824.566C494.488 824.086 493.25 823.016 492.762 821.637C492.316 820.381 492.587 819.182 493.23 818.063C494.95 815.074 498.277 813.867 501.421 813.035Z"/>
	<path fill="#DDD6F9" d="M501.151 816.446C502.712 816.631 503.44 816.831 504.753 817.692C505.358 818.783 505.38 818.814 505.2 820.045C503.994 821.33 503.465 821.429 501.834 821.968C500.496 821.829 498.955 821.805 497.763 821.128C496.904 820.641 497.208 820.926 496.913 819.841C497.896 818.19 499.55 817.409 501.151 816.446Z"/>
	<path d="M515.331 800.569C516.709 800.451 518.267 800.268 519.629 800.546C522.09 801.05 524.222 803.099 525.427 805.219C526.791 807.621 527.694 811.395 526.748 814.077C526.384 815.11 526.643 814.732 525.6 815.285C525.459 815.212 525.306 815.159 525.177 815.066C523.084 813.562 522.675 809.185 522.175 806.808C521.938 806.326 521.669 805.911 521.323 805.499C515.84 798.98 512.66 809.2 508.301 808.881C507.83 807.777 507.779 806.747 508.18 805.606C509.176 802.77 512.831 801.653 515.331 800.569Z"/>
	<path fill="#7E6DAF" d="M271.946 553.069C272.877 552.979 273.48 552.999 274.38 553.26L274.545 554.025C272.744 561.295 260.417 589.321 256.272 596.041C254.807 598.416 252.997 600.758 250.629 602.291C244.667 606.152 236.977 605.532 230.336 604.176C216.602 601.37 199.469 593.415 191.511 581.409C192.223 577.171 193.417 573.018 194.506 568.864L198.345 556.934L207.427 560.238C205.314 564.247 203.008 568.311 201.381 572.549C200.437 575.007 198.838 579.733 200.216 582.192C200.6 582.877 200.998 582.711 201.696 582.815C207.351 580.505 212.845 570.361 218.584 566.171C218.75 566.05 218.92 565.931 219.087 565.811C226.345 568.693 233.025 572.643 240.553 574.922C252.269 569.428 256.008 557.107 271.946 553.069Z"/>
	<path fill="#7E6DAF" d="M218.548 522.022Q219.184 521.992 219.821 521.987C227.638 521.966 268.102 542.041 274.598 548.46C261.824 549.672 253.201 558.258 244.615 566.989C243.324 568.252 241.913 569.424 240.567 570.63C231.007 567.248 221.971 561.668 212.635 557.603C206.013 554.719 198.912 553.074 192.406 549.947C199.322 539.566 206.684 527.238 218.548 522.022Z"/>
	<path fill="#7E6DAF" d="M291.241 443.092C291.432 443.066 291.621 443.031 291.813 443.012C302.158 442.029 330.943 457.401 339.016 464.449C325.917 469.404 314.989 477.31 303.227 484.675C300.214 486.332 297.325 487.735 294.07 488.854C287.185 485.678 264.611 470.185 259.059 464.684L259.86 463.444C266.758 452.964 279.113 445.62 291.241 443.092Z"/>
	<path fill="#7E6DAF" d="M198.055 854.184C206.601 856.946 214.916 858.656 223.924 857.616C225.697 857.044 227.444 856.708 229.277 856.383C225.752 867.091 216.214 888.841 221.506 899.007C224.54 904.835 230.398 908.455 236.568 910.19C243.317 912.088 253.795 912.366 259.16 917.114L259.457 918.136C258.541 919.465 257.139 919.855 255.628 920.14Q252.969 920.617 250.296 921.007C231.439 926.139 211.588 918.637 192.489 919.504C198.34 897.331 198.381 876.838 198.055 854.184Z"/>
	<path fill="#FEFEFE" d="M223.924 857.616C225.697 857.044 227.444 856.708 229.277 856.383C225.752 867.091 216.214 888.841 221.506 899.007C224.54 904.835 230.398 908.455 236.568 910.19C243.317 912.088 253.795 912.366 259.16 917.114L259.457 918.136C258.541 919.465 257.139 919.855 255.628 920.14Q252.969 920.617 250.296 921.007C248.321 920.396 246.252 920.079 244.246 919.568C235.095 917.238 221.987 912.811 217.032 904.083C210.736 892.994 220.434 869.316 223.924 857.616Z"/>
	<path fill="#7E6DAF" d="M340.028 467.958C340.806 468.773 340.771 468.889 340.925 470.02C339.806 471.864 329.634 478.689 326.842 481.456C315.784 492.418 300.397 523.526 286.436 527.733C277.41 530.452 266.178 523.211 258.622 518.958L256.987 517.953C256.301 516.603 256.518 515.844 256.896 514.361C259.232 505.217 271.166 489.615 279.362 484.65C282.963 487.306 286.855 490.699 291.069 492.23C298.963 495.099 316.081 481.065 323.238 476.774C328.655 473.526 334.381 470.777 340.028 467.958Z"/>
	<defs>
		<linearGradient id="gradient_1" gradientUnits="userSpaceOnUse" x1="348.1217" y1="521.66833" x2="241.86893" y2="512.93195">
			<stop offset="0" stop-color="#6F63A8"/>
			<stop offset="1" stop-color="#8A76CC"/>
		</linearGradient>
	</defs>
	<path fill="url(#gradient_1)" d="M345.338 473.594C349.228 473.558 353.047 473.699 356.926 473.99C355.256 474.557 353.582 475.134 351.972 475.859Q350.27 476.641 348.643 477.57Q347.017 478.499 345.479 479.568Q343.941 480.638 342.504 481.839Q341.066 483.04 339.741 484.364C322.186 501.623 301.79 543.242 293.024 566.312C287.408 564.056 283.321 561.323 279.043 557.043C279.357 554.403 279.399 552.052 278.533 549.501C274.557 537.78 250.318 529.473 239.546 524.322C242.283 520.07 244.48 517.852 249.304 516.131C251.365 510.866 254.053 506.037 256.984 501.214C260.675 495.009 265.632 487.759 271.268 483.199C272.352 482.322 273.278 482.031 274.674 482.15L274.809 482.723C262.699 490.625 259.386 503.394 252.243 514.706C251.053 516.591 249.334 517.94 248.071 519.715C247.271 520.838 247.152 521.357 247.441 522.675L248.738 523.314C250.648 523.377 251.702 522.306 253.163 521.196C261.457 525.661 269.573 530.131 278.655 532.82C278.266 533.841 277.97 534.826 277.78 535.906C277.387 538.144 277.986 539.723 279.355 541.486C280.494 542.952 282.155 544.02 284.059 544.025C286.205 544.031 287.962 542.829 289.483 541.446C293.593 537.708 300.952 529.996 301.191 524.213C301.193 524.169 301.227 522.777 301.25 522.659C301.422 521.785 327.408 486.627 330.055 484.016C334.325 479.806 340.038 476.336 345.338 473.594Z"/>
	<path fill="#7E6DAF" d="M421.897 734.564C429.882 734.019 435.294 736.236 442.125 739.984C432.434 754.31 422.238 768.163 412.904 782.748L407.718 790.89Q406.533 789.304 405.496 787.617Q404.459 785.931 403.578 784.157Q402.698 782.384 401.982 780.538Q401.266 778.692 400.719 776.789C398.07 767.34 399.147 756.504 404.064 747.958C408.107 740.933 414.151 736.71 421.897 734.564Z"/>
	<path fill="#7E6DAF" d="M493.072 700.139C500.558 704.78 506.703 709.576 512.638 716.097C495.447 720.252 478.419 724.621 461.115 728.362C460.206 728.482 459.741 728.63 458.935 728.034C457.368 726.877 455.803 724.738 454.423 723.277C450.306 718.916 446.247 715.152 441.086 712.088Q467.183 706.568 493.072 700.139Z"/>
	<path fill="#7E6DAF" d="M574.022 707.113C574.972 706.934 575.117 706.949 576.025 707.284C576.786 709.768 576.236 712.987 576.154 715.605C557.497 720.335 538.759 724.49 520.034 728.922L464.113 742.41C462.835 742.586 463.434 742.695 462.313 742.099C461.435 739.28 461.453 736.24 461.274 733.307L574.022 707.113Z"/>
	<path fill="#7E6DAF" d="M610.601 867.593L611.093 867.686C612.211 869.556 611.857 873.57 611.956 875.787C599.048 880.036 585.561 883.169 572.451 886.827C549.445 893.247 526.521 899.876 503.411 905.929C502.475 906.083 502.946 906.144 502.016 905.643C501.436 903.161 501.793 900.263 501.861 897.718C520.669 891.89 539.828 887.106 558.821 881.916C576.107 877.193 593.238 872.056 610.601 867.593Z"/>
	<path fill="#7E6DAF" d="M430.15 714.692C433.267 714.314 435.267 714.361 438.178 715.679C444.689 718.628 454.249 727.227 456.723 734.05C457.605 736.479 457.971 739.633 456.797 742.022C454.454 746.79 450.725 751.114 447.616 755.402L434.368 774.031Q428.286 782.568 422.36 791.214C419.987 794.677 417.693 798.538 414.949 801.702C414.309 802.44 413.787 802.705 412.885 803.018C411.464 803.47 409.949 804.056 408.486 804.331C407.243 804.564 406.648 804.528 405.606 803.84C405.792 798.987 432.657 761.437 437.375 754.907C440.188 751.013 443.898 747.048 446.255 742.916C446.893 741.797 447.024 740.415 446.834 739.154C445.614 731.068 434.945 720.275 428.37 715.785L428.305 715.284L430.15 714.692Z"/>
	<path fill="#9F8BE8" d="M520.288 784.054C520.517 784.117 520.744 784.187 520.974 784.243C523.64 784.893 526.925 783.306 529.724 783.472C530.526 784.696 530.783 784.912 530.786 786.351C529.481 788.579 527.502 789.315 525.103 789.95C520.058 791.285 506.025 792.798 502.849 795.71C497.863 798.102 485.854 799.858 479.947 801.213C465.851 804.446 451.381 807.911 437.564 812.179Q426.493 808.753 415.156 806.347C432.796 802.76 450.426 799.441 467.958 795.307Q483.81 791.572 499.728 788.127C506.454 786.628 513.424 784.653 520.288 784.054Z"/>
	<path fill="#7E6DAF" d="M418.522 718.569C419.741 718.456 421.029 718.294 422.252 718.436C429.083 719.231 435.722 728.736 439.729 733.771C437.582 732.763 435.366 731.643 433.087 730.968C426.168 728.919 418.908 730.024 412.634 733.449C404.217 738.044 398.567 745.993 395.979 755.13C392.866 766.121 394.624 777.453 400.126 787.343C401.7 789.868 403.636 792.018 405.597 794.243C404.148 796.673 403.075 799.213 401.971 801.811C397.227 794.886 393.355 788.145 391.116 779.995C387.119 765.446 388.66 748.706 396.24 735.547C401.34 726.692 408.679 721.18 418.522 718.569Z"/>
	<path fill="#7E6DAF" d="M410.203 809.124C416.671 810.193 423.209 812.504 429.463 814.444C447.398 820.005 465.118 826.592 482.64 833.343C482.959 836.988 482.925 840.705 483.018 844.365C474.666 840.465 465.798 837.496 457.147 834.323C441.303 828.511 425.379 822.909 409.753 816.527L410.203 809.124Z"/>
	<path fill="#7E6DAF" d="M255.89 467.357C260.108 471.728 264.862 475.058 269.944 478.352C261.266 488.458 253.361 497.304 247.132 509.295C246.671 510.093 246.588 510.226 245.766 510.736C243.056 509.458 239.93 507.05 237.847 504.893C236.396 503.389 235.776 501.944 235.869 499.862C236.31 489.89 248.958 474.077 255.89 467.357Z"/>
	<path fill="#7E6DAF" d="M548.5 820.114C549.975 821.435 550.002 827.64 550.217 829.716Q519.548 838.157 488.531 845.21C487.636 845.132 488.096 845.271 487.198 844.663C486.54 841.665 486.843 838.33 486.882 835.26C496.556 833.347 506.176 830.477 515.738 828.044C526.628 825.274 537.6 822.85 548.5 820.114Z"/>
	<path fill="#7E6DAF" d="M554.204 725.587L554.849 725.743C554.49 727.446 527.14 765.511 523.459 770.944L522.161 770.517L522.859 770.248C522.246 766.553 522.712 762.016 522.686 758.232Q522.629 745.721 522.345 733.214L554.204 725.587Z"/>
	<defs>
		<linearGradient id="gradient_2" gradientUnits="userSpaceOnUse" x1="576.45276" y1="780.22974" x2="559.95172" y2="806.97754">
			<stop offset="0" stop-color="#6B4EAB"/>
			<stop offset="1" stop-color="#9388DF"/>
		</linearGradient>
	</defs>
	<path fill="url(#gradient_2)" d="M520.288 784.054C525.469 782.849 533.095 779.975 538.336 780.404C542.416 780.738 546.764 782.376 550.719 783.471L572.457 789.465Q584.362 792.71 596.3 795.828C601.621 797.233 607.356 798.398 612.389 800.643Q607.531 802.164 602.632 803.549C590.957 801.357 579.33 797.997 567.87 794.883C560.063 792.761 546.736 787.777 538.938 788.304C526.822 789.124 514.896 794.217 502.849 795.71C506.025 792.798 520.058 791.285 525.103 789.95C527.502 789.315 529.481 788.579 530.786 786.351C530.783 784.912 530.526 784.696 529.724 783.472C526.925 783.306 523.64 784.893 520.974 784.243C520.744 784.187 520.517 784.117 520.288 784.054Z"/>
	<path fill="#7E6DAF" d="M422.717 875.178C430.311 878.659 438.323 881.494 446.049 884.698C458.574 889.891 471.04 895.375 483.842 899.851C483.983 903.09 483.954 906.352 483.995 909.595L422.423 883.543L422.717 875.178Z"/>
	<path fill="#7E6DAF" d="M568.246 815.585L569.055 815.994C570.587 821.054 573.721 840.41 573.401 845.45Q573.344 846.381 573.187 847.301Q573.029 848.22 572.773 849.117Q572.516 850.014 572.163 850.878Q571.811 851.742 571.366 852.562C570.402 854.316 569.035 855.708 567.044 856.197C564.735 856.764 561.602 856.208 559.655 854.831C558.162 853.775 557.268 852.114 556.782 850.386C555.08 844.335 554.812 831.548 553.906 824.461L553.191 818.849L559.211 817.709C560.645 823.729 561.388 830.288 561.699 836.484C561.819 838.878 561.009 842.805 561.903 844.943L563.501 845.219L564.435 843.611L565.215 843.541C565.686 843.975 566.254 844.578 566.801 844.934C567.851 845.616 567.914 845.696 569.131 845.405L569.549 844.352C569.023 842.546 568.216 842.235 566.775 841.079C565.44 833.057 564.793 824.947 563.368 816.923L568.246 815.585Z"/>
	<path fill="#7E6DAF" d="M497.442 848.168C498.538 849.749 498.081 888.398 498.319 893.942C495.097 895.022 491.849 895.965 488.578 896.884L487.941 896.265C486.768 891.848 487.47 857.627 487.428 850.171C490.802 849.692 494.117 848.905 497.442 848.168Z"/>
	<path fill="#7E6DAF" d="M340.812 560.44C341.424 560.422 341.02 560.39 341.965 560.831C342.515 563.337 342.156 566.039 342.028 568.587C326.322 577.555 311.779 581.824 293.595 581.456L292.544 580.937C292.077 578.861 294.519 574.139 295.345 572.018C311.781 572.23 325.896 566.6 340.812 560.44Z"/>
	<path fill="#7E6DAF" d="M620.277 804.108L621.235 804.039C622.436 805.553 622.339 809.896 622.573 812.032C606.93 816.164 591.449 820.514 575.614 823.91L574.806 823.799C573.386 821.625 573.294 816.982 572.921 814.331C588.776 811.593 604.419 807.094 620.277 804.108Z"/>
	<path fill="#7E6DAF" d="M531.833 692.119C532.709 691.955 533.59 691.814 534.484 691.896C542.873 692.663 552.247 699.918 557.551 706.09C552.001 707.656 546.258 708.805 540.639 710.123L532.653 711.799C528.426 704.349 521.91 699.546 515.011 694.77C520.696 694.34 526.252 693.232 531.833 692.119Z"/>
	<path fill="#7E6DAF" d="M570.705 721.68C570.714 721.739 570.738 721.799 570.732 721.859C570.374 725.429 535.627 771.414 530.776 776.743C528.46 777.468 526.1 777.835 523.715 778.248C523.673 777.573 523.784 777.113 524.141 776.507C526.648 772.253 530.392 768.266 533.247 764.18Q547.297 743.947 561.769 724.014C564.709 723.137 567.734 722.45 570.705 721.68Z"/>
	<path fill="#7E6DAF" d="M409.818 821.281C412.865 822.624 415.917 823.804 419.061 824.903C418.734 839.73 419.027 854.614 419.057 869.447L410.146 865.634L409.818 821.281Z"/>
	<path fill="#7E6DAF" d="M305.735 441.635C326.251 440.004 353.941 455.939 371.476 465.984C367.925 465.615 364.365 464.665 360.828 464.112C354.917 463.188 349.163 463.35 343.21 463.696C336.144 454.262 316.759 446.211 305.735 441.635Z"/>
	<path fill="#7E6DAF" d="M620.506 817.616L621.267 818.173C621.715 823.365 621.454 828.763 621.483 833.979Q621.469 847.045 622.008 860.099C619.905 860.846 617.755 861.468 615.621 862.122C614.084 856.664 614.366 826.56 614.205 819.173L620.506 817.616Z"/>
	<path fill="#7E6DAF" d="M259.945 922.102L260.275 922.458L259.875 923.299C246.255 932.933 226.295 928.031 210.917 928.353C204.236 928.493 197.471 930.252 190.805 929.73C191.034 927.487 191.411 925.243 191.719 923.009C216.379 922.544 234.75 930.607 259.945 922.102Z"/>
	<path fill="#7E6DAF" d="M308.199 586.348C309.531 586.399 310.924 586.416 312.213 586.78C313.679 587.195 315.23 587.88 315.884 589.342C317.058 591.963 310.686 607.823 309.3 611.296L308.372 611.228L298.639 607.289C301.558 600.189 304.487 593.078 308.199 586.348Z"/>
	<path fill="#7E6DAF" d="M362.869 947.467C376.888 945.333 389.77 944.186 402.04 936.365C393.242 946.707 377.172 948.289 364.33 949.514C363.976 949.548 363.62 949.562 363.265 949.573C351.015 951.985 338.358 953.431 325.917 952.228C325.703 950.232 325.758 948.201 325.744 946.195C337.761 948.539 350.714 948.146 362.869 947.467Z"/>
	<path fill="#745AB7" d="M362.869 947.467C376.888 945.333 389.77 944.186 402.04 936.365C393.242 946.707 377.172 948.289 364.33 949.514C363.976 949.548 363.62 949.562 363.265 949.573C366.32 946.861 371.614 948.774 375.211 946.704C376.266 946.097 378.504 946.36 379.781 946.347C375.844 945.627 368.806 948.181 363.483 947.547C363.278 947.522 363.074 947.493 362.869 947.467Z"/>
	<path fill="#7E6DAF" d="M290.166 584.415C293.688 586.416 299.464 585.974 303.488 586.085C300.27 591.789 297.679 597.602 295.328 603.704C294.972 604.46 294.736 604.697 294.142 605.254C291.022 605.37 287.035 603.473 284.076 602.441C285.87 596.359 288.064 590.396 290.166 584.415Z"/>
	<path fill="#7E6DAF" d="M543.99 686.571C544.764 686.514 545.538 686.462 546.314 686.463C556.134 686.482 565.616 696.223 571.86 702.693C569.971 703.284 568.032 703.757 566.121 704.277L562.158 705.347C556.381 697.027 549.257 691.569 539.668 688.3C540.712 687.309 542.601 686.991 543.99 686.571Z"/>
	<path fill="#7E6DAF" d="M325.186 596.685C325.401 596.825 325.626 596.953 325.832 597.107C327.03 598.001 327.401 598.975 327.569 600.416C328.1 604.952 327.111 611.533 324.189 615.097C322.782 616.812 321.025 616.526 319.006 616.627C318.383 616.274 317.837 615.863 317.261 615.439C317.35 613.07 322.093 606.6 323.26 603.902C324.262 601.584 324.72 599.152 325.186 596.685Z"/>
	<path fill="#7E6DAF" d="M497.153 899.055L497.857 899.222C498.89 901.268 498.4 905.48 498.396 907.848C495.498 908.715 492.53 909.415 489.604 910.185L488.706 909.82C487.86 907.269 488.188 903.93 488.145 901.24C491.182 900.619 494.16 899.858 497.153 899.055Z"/>
	<path fill="#7E6DAF" d="M410.493 869.722C413.267 871.238 416.243 872.434 419.135 873.711L418.902 882.088C415.957 881.139 413.254 879.868 410.472 878.529L410.493 869.722Z"/>
	<path fill="#7E6DAF" d="M507.483 696.931C508.336 696.88 509.169 696.818 510.006 697.033C516.396 698.672 525.18 707.186 528.279 712.777C526.607 713.171 525.073 713.632 523.34 713.411C519.571 705.815 513.792 702.126 507.483 696.931Z"/>
	<path fill="#745AB7" d="M346.934 467.226C354.753 466.934 366.533 467.872 373.527 471.396C375.41 472.344 378.899 473.831 379.582 475.867L378.806 475.628C374.541 473.213 370.138 471.616 365.331 470.695C361.011 469.867 347.169 470.102 344.9 468.432L345.198 467.783L346.934 467.226Z"/>
	<path fill="#7E6DAF" d="M296.008 526.488L296.313 526.854C295.506 529.251 293.108 531.731 291.459 533.633C289.147 536.3 286.93 539.223 283.21 539.45C282.378 538.675 281.866 537.902 281.805 536.713C281.621 533.114 288.808 531.46 291.504 529.982C293.163 529.073 294.593 527.732 296.008 526.488Z"/>
	<path fill="#7E6DAF" d="M499.05 698.517C499.78 698.51 500.518 698.483 501.238 698.635C507.967 700.049 516.634 709.219 519.867 715.042C519.05 715.075 517.623 715.267 516.875 714.94C514.98 714.112 512.075 708.802 510.425 707.074C507.236 703.735 502.784 701.234 499.05 698.517Z"/>
	<path fill="#745AB7" d="M621.453 865.134C622.528 867.06 622.078 871.036 622.123 873.278C620.134 873.705 618.113 874.03 616.111 874.4C615.385 871.911 615.504 869.313 615.462 866.739L621.453 865.134Z"/>
	<path fill="#DDD6F9" d="M554.75 809.522C555.348 809.51 556.024 809.461 556.62 809.572C557.694 809.772 558.398 810.019 559.002 810.95L558.638 811.935C557.198 813.514 555.641 813.674 553.613 814.111C552.64 814.489 551.892 814.485 550.856 814.471L550.353 813.899C550.392 813.37 550.384 813.016 550.598 812.495C551.312 810.752 553.149 810.188 554.75 809.522Z"/>
	<path fill="#7E6DAF" d="M212.163 561.823L215.295 563.332L206.377 573.09L205.536 573.978C205.393 571.185 210.52 564.448 212.163 561.823Z"/>
	<path fill="#9F8BE8" d="M423.916 709.174C425.65 709.28 427.966 709.436 429.388 710.487C428.395 711.246 427.265 711.244 426.067 711.38L425.656 711.417C425.427 711.436 425.199 711.449 424.97 711.47C422.871 711.66 421.525 711.641 419.508 710.957L419.2 710.317C420.7 709.387 422.208 709.347 423.916 709.174Z"/>
	<path fill="#FEFEFE" d="M395.754 503.732C396.883 504.515 398.061 505.591 398.741 506.811C399.52 508.206 399.303 509.125 399.005 510.619C397.383 510.723 397.174 510.899 395.867 509.981C395.009 508.035 395.541 505.793 395.754 503.732Z"/>
</svg>
