<?xml version="1.0" encoding="utf-8" ?>
<svg xmlns="http://www.w3.org/2000/svg" xmlns:xlink="http://www.w3.org/1999/xlink" width="1024" height="1024">
	<path fill="#190D3B" d="M0 0L923.231 0L1024 0L1024 112.065L1024 124.797L1024 1024L1023.03 1024L813.05 1024L801.471 1024L767.031 1024L720.479 1024L708.488 1024L665.146 1024L653.928 1024L604.042 1024L592.958 1024L544.003 1024L533.002 1024L468.85 1024L457.454 1024L386.999 1024L323.433 1024L263.505 1024L256.555 1024L216.438 1024L205.08 1024L0 1024L0 0Z"/>
	<path fill="#9F8BE8" d="M0 0L923.231 0L923.146 0.406714C918.817 0.521927 914.377 0.443809 910.085 1.04452C903.929 5.21724 898.66 10.9672 893.359 16.1504C883.233 26.0505 873.433 36.2458 863.39 46.2218Q835.496 73.5761 807.959 101.289C799.157 110.154 789.963 118.855 781.671 128.198C765.115 128.029 748.453 127.698 731.928 128.867C681.173 132.457 640.126 147.266 594.847 169.177C578.606 177.036 554.705 189.508 541.954 201.918C537.612 206.144 533.972 211.263 530.939 216.49C524.77 227.118 520.323 238.873 515.702 250.232C508.563 267.778 498.066 290.328 498.012 309.432C497.991 316.804 499.426 325.654 504.875 331.04C507.614 333.747 510.045 334.466 513.658 335.349C502.671 350.417 489.956 367.567 477.312 381.189Q465.855 393.565 453.809 405.368C439.361 419.312 405.968 447.859 398.358 465.079C400.325 478.819 404.611 492.244 409.393 505.238C402.222 509.372 394.204 513.305 387.66 518.337C384.724 526.789 381.663 534.709 375.98 541.763C369 550.428 358.778 556.632 350.262 563.725C348.054 565.563 345.198 567.58 343.507 569.885C342.619 571.096 342.221 572.174 342.547 573.681C350.371 580.949 369.281 588.615 379.636 592.417C383.486 593.831 389.203 595.1 392.457 597.474C400.086 603.038 408.668 614.884 414.954 622.346C397.047 624.513 378.922 625.144 360.966 626.963C321.924 630.92 202.828 644.986 178.537 674.966C175.735 678.424 174.294 681.757 174.298 686.205C174.307 698.418 176.722 711.234 177.935 723.438Q181.809 761.437 185.096 799.491L197.297 938.489C199.674 966.07 201.41 993.893 204.749 1021.38C204.832 1022.06 204.964 1022.72 205.12 1023.39L205.08 1024L0 1024L0 0Z"/>
	<path fill="#9F8BE8" d="M1023.35 124.869L1024 124.797L1024 1024L1023.03 1024L813.05 1024L813.132 1023.5L813.342 1023.36C814.522 1006.25 816.926 989.081 818.887 972.04Q823.037 934.195 827.612 896.399C832.671 854.457 836.673 812.391 841.474 770.427L848.178 712.868C849.276 703.445 851.012 693.764 851.387 684.309C851.586 679.262 849.411 675.208 846.032 671.577C813.064 636.151 640.249 624.733 588.187 622.842C586.76 620.26 585.02 617.775 583.428 615.286C600.885 607.383 616.063 596.559 624.238 578.627C633.301 558.749 625.67 548.871 618.827 530.67C629.057 523.773 639.069 516.793 648.812 509.21C671.305 519.974 701.315 525.958 726.143 525.012C729.334 524.89 733.605 525.076 736.683 524.251C738.027 523.892 738.505 523.404 739.255 522.287C739.92 517.201 716.215 474.768 711.98 467.291C716.963 467.346 729.836 468.149 733.362 463.997C734.379 462.799 734.502 461.282 734.281 459.797C733.857 456.951 732.29 454.01 731.251 451.333C728.374 443.924 726.305 437.187 726.283 429.204C731.256 425.312 741.776 422.095 744.74 417.388C744.805 416.589 744.824 415.889 744.568 415.115C741.105 404.646 700.878 373.573 691.085 366.771C688.601 365.045 685.894 363.615 683.225 362.197C688.275 363.683 693.345 364.981 698.65 364.039C702.831 363.296 707.058 361.29 709.482 357.673C712.865 352.625 711.577 346.255 710.334 340.74C718.576 343.976 726.41 346.848 735.397 345.515C740.178 344.806 745.009 342.902 747.88 338.824C750.551 335.029 751.038 330.034 750.045 325.592C746.957 311.778 733.88 302.297 722.609 295.246C727.445 287.832 733.634 281.354 739.727 274.971C762.226 275.279 783.548 275.994 804.746 266.781C818.596 260.762 830.448 251.014 840.478 239.841C843.927 236 846.687 231.647 851.044 228.737C861.526 221.738 872.879 215.628 883.701 209.135L938.174 176.279L990.311 145.121C1001.27 138.499 1012.09 131.651 1023.23 125.342L1023.35 124.869Z"/>
	<path fill="#EBE3FB" d="M1023.35 124.869L1024 124.797L1024 1024L1023.03 1024L1023.1 1023.59C1024.26 1016.64 1023.44 1008.37 1023.43 1001.28L1023.37 955.9L1023.35 793.28L1023.36 330.066L1023.39 194.056C1023.37 171.162 1022.93 148.23 1023.23 125.342L1023.35 124.869Z"/>
	<path fill="#D7CAF8" d="M813.342 1023.36L947.439 1023.6L996.802 1023.61C1005.47 1023.6 1014.47 1023.02 1023.1 1023.59L1023.03 1024L813.05 1024L813.132 1023.5L813.342 1023.36Z"/>
	<path fill="#D7CAF8" d="M187.803 705.68C210.8 718.353 231.905 725.079 257.411 731.145Q277.078 735.656 296.916 739.341Q316.755 743.025 336.73 745.877Q356.705 748.729 376.782 750.744Q396.859 752.758 417.002 753.931C446.176 755.839 475.733 757.384 504.975 757.302C571.57 757.116 638.781 750.816 704.634 741.141C749.881 734.493 798.25 728.723 837.921 704.289C832.635 738.503 829.866 773.231 825.934 807.622L801.366 1023.43L801.471 1024L767.031 1024L720.479 1024L708.488 1024L665.146 1024L653.928 1024L604.042 1024L592.958 1024L544.003 1024L533.002 1024L468.85 1024L457.454 1024L386.999 1024L323.433 1024L263.505 1024C263.526 1021.34 263.306 1018.69 263.114 1016.04C261.473 993.342 239.531 752.204 236.859 748.114C233.951 743.665 209.083 732.077 202.767 728.235Q195.666 723.934 189.424 718.461C188.569 714.227 188.169 709.978 187.803 705.68Z"/>
	<path fill="#9F8BE8" d="M468.85 1024C468.046 1017.48 466.616 1010.93 465.452 1004.46L458.561 966.796L435.028 842.613L429.033 809.159C427.962 803.333 426.459 797.455 425.745 791.58C425.535 789.853 425.515 788.39 426.007 786.719C426.803 785.978 427.137 785.604 428.256 785.408C432.538 784.658 438.528 785.534 442.992 785.658Q456.395 786.04 469.804 786.044C482.463 786.076 496.719 784.579 509.014 785.504C511.894 785.72 514.569 786.337 516.879 788.165C519.481 790.224 520.56 792.596 521.089 795.8C522.075 801.78 521.905 808.298 522.16 814.361L523.563 846.768L529.216 958.669L531.445 1001.49C531.821 1008.34 531.707 1015.69 532.75 1022.45L532.914 1023.46L533.002 1024L468.85 1024Z"/>
	<path fill="#9F8BE8" d="M604.148 1023.41C604.379 1016.5 603.888 1009.51 603.696 1002.59Q603.033 979.852 602.07 957.124L598.356 852.834L597.03 815.869C596.733 808.333 595.774 800.148 596.63 792.672C596.97 789.708 598.761 786.823 600.851 784.75C602.495 783.12 604.683 782.579 606.886 782.092C615.952 780.085 625.923 779.698 635.186 778.645C649.125 777.061 663.228 774.971 677.223 774.064C675.654 798.631 672.469 823.255 669.924 847.746Q663.85 907.446 658.847 967.245C657.209 986.136 654.94 1005.07 653.928 1024L604.042 1024L604.148 1023.41Z"/>
	<path fill="#9F8BE8" d="M284.95 766.559C295.892 768.004 343.268 776.636 350.861 782.48C353.147 789.962 353.213 798.81 353.921 806.614Q355.413 824.159 357.312 841.664L369.241 958.99L373.291 999.624C374.089 1007.49 375.373 1015.63 375.551 1023.53C379.376 1023.6 383.183 1023.5 387.006 1023.38L386.999 1024L323.433 1024L323.305 1023.55L334.928 1023.61L300.148 848.014L291.413 804.001C289.042 792.582 285.214 778.079 284.95 766.559Z"/>
	<path fill="#9F8BE8" d="M720.39 1023.48C723.861 996.027 726.298 968.384 729.241 940.863C732.145 913.698 735.561 886.532 738.236 859.353L744.022 804.221C745.106 793.442 745.675 782.52 747.162 771.795C747.521 769.206 748.065 764.425 749.751 762.415C756.028 759.335 763.391 758.466 770.132 756.776C777.987 754.807 785.919 752.406 793.477 749.502L770.01 918.06Q764.565 954.163 759.97 990.385C758.584 1001.43 756.9 1012.59 756.216 1023.7L767.149 1023.5L767.031 1024L720.479 1024L720.39 1023.48Z"/>
	<path fill="#190D3B" d="M708.447 1023.54L727.899 847.489L733.795 791.391C734.752 782.577 735.056 773.116 736.957 764.471C738.004 759.709 739.991 755.735 743.837 752.608C745.789 751.02 748.021 749.908 750.417 749.158C760.544 745.991 772.339 744.202 782.853 741.411C787.413 740.2 791.534 737.915 795.992 736.689C797.458 736.286 799.028 736.042 800.545 736.276C802.202 736.531 803.274 737.356 804.504 738.433C806.462 742.801 804.697 751.192 804.163 755.874C801.531 778.915 797.947 801.797 794.708 824.755L778.129 941.97L770.564 997.2C769.458 1005.71 769.185 1015.22 767.149 1023.5L756.216 1023.7C756.9 1012.59 758.584 1001.43 759.97 990.385Q764.565 954.163 770.01 918.06L793.477 749.502C785.919 752.406 777.987 754.807 770.132 756.776C763.391 758.466 756.028 759.335 749.751 762.415C748.065 764.425 747.521 769.206 747.162 771.795C745.675 782.52 745.106 793.442 744.022 804.221L738.236 859.353C735.561 886.532 732.145 913.698 729.241 940.863C726.298 968.384 723.861 996.027 720.39 1023.48L720.479 1024L708.488 1024L708.447 1023.54Z"/>
	<path fill="#686093" d="M708.447 1023.54L720.39 1023.48L720.479 1024L708.488 1024L708.447 1023.54Z"/>
	<path fill="#190D3B" d="M323.305 1023.55C321.106 1018.33 319.964 1008.48 318.798 1002.61L309.411 955.403L288.734 849.421Q281.211 812.219 274.313 774.897C273.355 769.442 273.316 763.353 276.882 758.688C278.476 756.603 281.104 755.566 283.643 755.27C291.8 754.318 339.437 765.369 348.946 768.646C351.764 769.617 354.621 770.869 356.904 772.821C360.492 775.888 362.614 781.538 363.544 786.054C365.098 793.599 365.296 801.822 365.991 809.502Q367.763 830.186 369.963 850.829L387.006 1023.38C383.183 1023.5 379.376 1023.6 375.551 1023.53C375.373 1015.63 374.089 1007.49 373.291 999.624L369.241 958.99L357.312 841.664Q355.413 824.159 353.921 806.614C353.213 798.81 353.147 789.962 350.861 782.48C343.268 776.636 295.892 768.004 284.95 766.559C285.214 778.079 289.042 792.582 291.413 804.001L300.148 848.014L334.928 1023.61L323.305 1023.55Z"/>
	<path fill="#190D3B" d="M457.454 1024L431.009 881.164L419.473 821.025C417.704 811.841 415.461 802.665 414.075 793.418C413.284 788.141 413.73 783.413 417.148 779.067C419.819 775.671 424.516 774.152 428.664 773.77C433.366 773.337 438.315 773.901 443.041 774.097Q454.153 774.576 465.275 774.682Q478.294 774.71 491.304 774.239C497.741 774.015 504.664 773.303 511.053 774.169C515.941 774.832 520.552 776.794 524.267 780.061C528.151 783.476 531.301 787.91 532.292 793.053C533.877 801.278 533.564 810.425 533.887 818.803Q534.657 839.995 535.711 861.174L544.041 1023.4L544.003 1024L533.002 1024L532.914 1023.46L532.75 1022.45C531.707 1015.69 531.821 1008.34 531.445 1001.49L529.216 958.669L523.563 846.768L522.16 814.361C521.905 808.298 522.075 801.78 521.089 795.8C520.56 792.596 519.481 790.224 516.879 788.165C514.569 786.337 511.894 785.72 509.014 785.504C496.719 784.579 482.463 786.076 469.804 786.044Q456.395 786.04 442.992 785.658C438.528 785.534 432.538 784.658 428.256 785.408C427.137 785.604 426.803 785.978 426.007 786.719C425.515 788.39 425.535 789.853 425.745 791.58C426.459 797.455 427.962 803.333 429.033 809.159L435.028 842.613L458.561 966.796L465.452 1004.46C466.616 1010.93 468.046 1017.48 468.85 1024L457.454 1024Z"/>
	<path fill="#686093" d="M544.041 1023.4L544.003 1024L533.002 1024L532.914 1023.46L544.041 1023.4Z"/>
	<path fill="#190D3B" d="M592.815 1023.44C591.642 1013.72 592.401 1003.23 592.039 993.38L589.406 916.794L586.46 835.351C585.951 821.167 584.579 806.265 585.396 792.096C585.658 787.551 586.959 783.279 589.796 779.681Q590.35 778.964 590.956 778.291Q591.563 777.618 592.219 776.993Q592.875 776.368 593.576 775.794Q594.278 775.221 595.021 774.702Q595.764 774.183 596.544 773.722Q597.324 773.262 598.137 772.861Q598.949 772.461 599.79 772.123Q600.631 771.786 601.495 771.513C610.282 768.674 627.609 768.002 637.449 766.946C648.552 765.754 659.597 763.928 670.708 762.841C675.151 762.407 680.482 761.997 684.237 764.897C686.484 766.631 688.082 769.904 688.354 772.702C688.988 779.232 687.521 787.084 686.928 793.689L681.854 844.863L668.303 990.775C667.363 1001.85 665.961 1012.92 665.146 1024L653.928 1024C654.94 1005.07 657.209 986.136 658.847 967.245Q663.85 907.446 669.924 847.746C672.469 823.255 675.654 798.631 677.223 774.064C663.228 774.971 649.125 777.061 635.186 778.645C625.923 779.698 615.952 780.085 606.886 782.092C604.683 782.579 602.495 783.12 600.851 784.75C598.761 786.823 596.97 789.708 596.63 792.672C595.774 800.148 596.733 808.333 597.03 815.869L598.356 852.834L602.07 957.124Q603.033 979.852 603.696 1002.59C603.888 1009.51 604.379 1016.5 604.148 1023.41L604.042 1024L592.958 1024L592.815 1023.44Z"/>
	<path fill="#686093" d="M592.815 1023.44L604.148 1023.41L604.042 1024L592.958 1024L592.815 1023.44Z"/>
	<path fill="#FEFEFE" d="M923.231 0L1024 0L1024 112.065L1023.3 111.799C1016.77 114.344 1010.53 118.988 1004.59 122.745Q993.079 130.114 981.315 137.07Q930.164 167.176 879.45 198.012Q865.064 206.673 850.787 215.512C846.221 218.35 841.343 221.064 837.058 224.298C834.069 226.554 832.485 231.043 830.112 233.991C824.941 240.415 818.008 246.017 811.129 250.509C780.816 270.302 753.4 260.533 720.958 264.648C693.109 268.18 669.42 283.141 652.345 305.146C648.684 300.394 642.842 292.812 637.246 290.498C635.667 289.845 634.681 290.05 633.151 290.673C632.468 291.441 631.889 292.031 631.62 293.061C631.288 294.33 631.632 295.32 632.292 296.405C633.503 298.395 636.272 300.168 637.923 301.873C641.278 305.336 644.123 309.268 646.754 313.295C643.238 316.236 640.175 319.804 636.805 322.926C625.077 333.787 611.572 343.816 596.005 348.308C589.923 350.063 583.169 351.673 577.349 348.286Q576.914 348.037 576.507 347.743Q576.1 347.45 575.726 347.117Q575.352 346.783 575.014 346.412Q574.676 346.042 574.379 345.638Q574.081 345.235 573.827 344.802Q573.573 344.37 573.364 343.914Q573.156 343.458 572.997 342.983Q572.837 342.507 572.727 342.018C571.309 335.59 577.414 327.655 581.277 322.936C589.281 313.157 600.954 306.34 610.108 297.651C627.705 280.949 641.248 260.11 655.38 240.595C658.311 236.548 662.815 232.47 665.142 228.155C665.785 226.964 665.618 225.57 665.201 224.332C664.725 222.914 663.277 221.055 661.764 220.685C659.7 220.18 657.073 222.175 655.372 223.164C648.586 218.77 641.993 214.32 636.279 208.543C634.571 206.816 632.836 204.977 631.456 202.97C629.346 199.902 628.011 195.45 624.511 193.746C622.97 193.635 621.465 193.538 620.029 194.238C618.953 194.763 618.313 195.742 618.071 196.892C617.12 201.415 620.583 206.913 622.744 210.678C614.724 213.079 606.965 216.827 599.318 220.23C592.156 223.417 585.28 227.026 578.385 230.753C574.054 233.094 569.202 235.407 565.578 238.785C558.775 245.124 554.053 260.268 550.73 268.918C548.288 267.227 545.93 265.383 543.545 263.61C540.449 263.131 537.847 262.666 534.847 264.012C533.057 264.815 531.911 266.208 531.314 268.063C528.786 275.92 535.201 285.304 538.511 292.107C534.82 297.608 521.975 320.675 518.97 323.525C518.231 324.226 517.959 324.336 516.965 324.382C515.272 324.46 513.848 323.828 512.69 322.616C509.922 319.719 509.531 313.953 509.494 310.099C509.304 290.455 531.916 236.64 542.44 219.45C544.608 215.908 547.007 212.862 549.946 209.926C561.177 198.707 581.765 188.835 596.142 181.658C649.579 154.981 691.834 141.074 752.246 139.146C763.642 138.782 774.965 139.452 786.352 139.498C791.084 135.263 795.465 130.487 799.931 125.97L825.796 99.8893Q875.114 50.5806 925.11 1.96034L924.958 1.06498L923.146 0.406714L923.231 0Z"/>
	<path fill="#D7CAF8" d="M191.007 734.023Q201.058 740.258 211.372 746.048C216.546 748.898 221.955 751.437 227.04 754.423C230.855 784.658 233.072 815.229 235.836 845.576L246.946 962.177C248.754 981.337 249.822 1000.79 252.25 1019.86C252.418 1021.18 252.528 1022.33 253.215 1023.48C254.328 1023.67 255.436 1023.85 256.555 1024L216.438 1024L216.376 1023.35C215.88 1010.95 214.304 998.467 213.304 986.083L204.322 885.161L196.222 794.717C194.53 774.538 193.424 754.115 191.007 734.023Z"/>
	<path fill="#9F8BE8" d="M1023.3 111.799L1024 112.065L1024 124.797L1023.35 124.869C1023.51 120.495 1023.44 116.172 1023.3 111.799Z"/>
	<path fill="#686093" d="M205.12 1023.39C208.87 1023.39 212.628 1023.44 216.376 1023.35L216.438 1024L205.08 1024L205.12 1023.39Z"/>
	<path fill="#686093" d="M801.366 1023.43L813.132 1023.5L813.05 1024L801.471 1024L801.366 1023.43Z"/>
	<path fill="#9F8BE8" d="M593.581 635.021C616.925 634.969 640.451 637.144 663.678 639.322C698.362 642.575 732.828 646.86 766.954 653.994C787.299 658.247 808.193 663.033 826.881 672.441C830.952 674.49 839.209 678.854 840.155 683.674C840.464 685.25 839.691 686.909 838.765 688.134C835.091 692.995 828.033 696.833 822.706 699.606C785.034 719.214 729.513 726.995 687.426 731.945C677.146 733.692 666.574 734.909 656.177 735.688C658.552 721.367 663.274 706.554 663.898 692.071C663.216 690.697 662.506 689.394 661.442 688.272C654.542 680.998 635.819 680.622 626.24 680.2C616.576 679.774 594.212 678.681 587.218 685.4C582.518 689.916 581.466 734.433 581.217 743.093C563.015 745.111 544.188 745.391 525.881 745.645Q526.709 735.649 527.18 725.629C536.52 727.699 547.275 729.322 556.687 726.678C560.059 725.731 563.578 723.987 565.297 720.771C568.849 714.126 562.618 706.359 560.683 700.086C557.011 688.179 560.198 676.867 565.587 666.07C567.57 662.097 569.788 658.07 572.941 654.892C581.085 646.681 587.332 646.867 593.581 635.021Z"/>
	<path fill="#FEFEFE" d="M613.411 352.892C618.945 356.069 624.058 360.704 628.804 364.973C654.032 387.662 672.504 416.206 696.305 440.196C689.731 447.529 684.564 456.478 678.57 464.32C668.786 477.121 656.618 488.665 644.295 498.988C622.1 517.581 595.743 530.354 575.174 550.904C568.73 533.941 566.043 511.935 564.491 493.888C564.019 488.411 564.295 482.659 563.507 477.243C563.225 475.312 562.908 474.039 561.386 472.705C560.153 471.623 557.84 471.085 556.256 471.479C555.147 471.754 554.229 472.486 553.623 473.44C548.298 481.833 558.575 533.556 561.107 544.722C551.435 545.646 541.376 546.825 532.322 542.566C526.358 530.084 525.949 512.71 525.059 499.042Q524.599 482.187 526.391 465.421C546.855 448.991 563.437 434.2 574.476 409.64C574.666 424.323 572.333 438.245 571.296 452.796C571.131 455.11 570.68 459.305 572.358 461.011C573.568 462.24 575.682 463.656 577.49 463.395C578.545 463.243 579.418 462.592 580.084 461.794C583.464 457.743 583.458 449.478 583.989 444.431C586.942 416.355 586.379 388.874 582.997 360.868C586.35 360.913 589.717 360.632 593.064 360.433C608.033 374.632 622.441 391.139 628.159 411.417C631.784 424.275 631.276 439.188 623.522 450.577C620.865 454.479 617.209 457.73 614.882 461.858C614.729 463.634 614.79 465.73 615.697 467.322C616.246 468.286 617.109 468.85 618.218 468.935C621.122 469.158 624.124 466.908 626.094 465.026C635.12 456.407 641.867 440.501 642.134 428.025C642.749 399.354 625.656 376.612 606.758 356.869C609.076 355.72 611.228 354.276 613.411 352.892Z"/>
	<path fill="#9F8BE8" d="M419.451 634.22C420.574 634.127 421.705 634.142 422.832 634.127C423.48 634.504 455.664 673.918 459.419 678.468L445.211 678.476C438.5 678.523 429.605 678.804 424.711 684.045C422.771 686.124 421.64 688.797 421.243 691.596C420.393 697.585 421.408 704.302 421.759 710.338Q422.792 726.965 423.565 743.607Q397.607 741.412 371.688 738.804C371.237 731.066 369.159 693.117 365.313 688.982C362.349 685.794 356.969 684.816 352.822 684.591C339.444 683.865 301.45 687.952 292.113 696.834C285.387 703.232 293.966 718.589 293.696 726.581L292.891 726.984C264.215 721.71 230.196 714.012 204.085 701.397C197.764 698.343 188.16 693.4 185.718 686.399C185.905 684.753 186.514 683.782 187.59 682.566C194.965 674.224 207.41 669.701 217.637 665.975C273.666 645.565 359.699 636.622 419.451 634.22Z"/>
	<path fill="#FEFEFE" d="M513.163 471.483L514.177 471.629C515.323 476.153 513.615 485.409 513.462 490.502C513.33 494.897 513.561 499.332 513.819 503.72C514.708 518.85 518.218 532.411 521.453 547.105C517.659 546.225 513.864 545.425 509.994 544.961C484.822 541.94 471.647 553.876 453.833 569.6Q442.217 579.929 429.948 589.473C413.275 588.485 396.815 586.362 380.877 581.183C373.272 578.392 365.688 575.641 358.476 571.919C362.717 567.972 367.46 564.587 372.025 561.027C385.396 550.6 391.526 541.386 396.94 525.524C405.721 519.406 416.193 514.552 425.667 509.556C444.677 499.532 463.828 489.387 483.836 481.473C493.423 477.682 503.399 474.798 513.163 471.483Z"/>
	<path fill="#FEFEFE" d="M544.752 303.339C550.069 308.487 558.465 326.906 561.819 334.262C560.675 337.513 560.26 340.814 560.643 344.251C561.322 350.34 564.704 353.804 569.153 357.523C573.64 376.302 574.061 382.784 566.073 401.034C557.854 419.809 540.693 442.265 523.21 453.408C516.407 457.743 508.972 460.616 501.489 463.519C493.903 466.336 486.148 468.728 478.452 471.227C478.512 455.935 481.65 439.158 486.158 424.561C490.998 408.892 498.152 394.103 505.061 379.277Q517.173 353.091 531.145 327.849C535.613 319.604 539.832 311.335 544.752 303.339Z"/>
	<path fill="#FEFEFE" d="M410.292 599.925C413.619 599.945 416.941 600.195 420.26 600.395L421.67 604.662C448.348 620.088 485.306 602.926 510.488 614.118C524.308 620.261 535.895 637.316 541.137 650.962C525.38 650.571 510.756 647.798 495.774 643.029C489.2 640.936 482.743 638.343 476.04 636.688L475.212 636.488C473.779 638.256 472.21 640.163 471.995 642.518C471.868 643.906 472.287 645.326 473.293 646.321C476.573 649.564 484.058 651.121 488.422 652.473C503.828 657.248 519.665 662.196 535.906 662.737C542.828 662.739 549.56 661.718 556.396 660.747C553.632 665.955 551.067 671.24 549.411 676.918C545.076 691.773 548.371 702.811 555.626 715.921C551.551 716.667 547.807 717.171 543.663 716.838C536.009 716.223 528.462 713.471 521.405 710.601C510.978 706.36 500.598 700.855 491.672 693.995C468.12 675.895 449.619 649.141 431.625 625.839C424.793 616.991 417.508 608.462 410.292 599.925Z"/>
	<path fill="#FEFEFE" d="M498.115 555.696C498.242 555.69 498.368 555.68 498.495 555.678C523.987 555.19 542.341 569.545 554.86 590.83C563.092 604.826 569.989 621.369 581.955 632.624C574.098 641.583 562.867 645.768 551.948 649.683C549.131 641.537 545.761 634.892 540.876 627.79Q539.117 625.295 537.305 622.838C512.711 589.651 490.135 599.858 454.443 600.603C448.897 600.719 443.135 600.819 437.651 599.973L436.932 599.859C443.132 593.377 450.419 587.609 457.16 581.69C469.204 571.114 481.193 557.152 498.115 555.696Z"/>
	<path fill="#9F8BE8" d="M457.04 689.782C461.707 689.432 466.402 689.493 471.079 689.468C476.73 694.802 482.146 700.375 488.288 705.159C497.053 711.985 506.873 716.722 516.771 721.633L515.511 745.99L491.882 745.916C472.932 745.442 453.869 745.392 434.956 744.092C434.298 734.287 430.923 698.979 433.391 691.805C436.437 688.967 452.32 689.948 457.04 689.782Z"/>
	<path fill="#FEFEFE" d="M491.275 381.946C491.305 382.816 479.001 410.552 477.687 414.186C470.333 434.523 467.39 454.593 467.004 476.142C459.159 480.616 450.86 484.305 442.84 488.458C435.055 492.489 427.458 497.063 419.479 500.688L416.974 494.509C413.803 485.695 411.651 476.434 409.191 467.398C418.589 453.16 431.561 441.756 443.834 430.093L470.983 403.787C478.12 396.847 484.251 388.986 491.275 381.946Z"/>
	<path fill="#9F8BE8" d="M607.751 691.217C619.768 690.45 641.745 691.043 652.524 695.64Q648.566 716.43 644.287 737.156L633.88 738.172Q612.915 740.476 591.916 742.452C592.624 725.795 593.494 708.467 596.021 692.009C599.852 691.376 603.87 691.392 607.751 691.217Z"/>
	<path fill="#FEFEFE" d="M608.525 537.896C610.815 539.226 614.448 550.138 615.35 553.098C617.999 561.785 616.5 569.794 612.307 577.658C604.864 591.618 591.069 600.539 576.296 605.081C571.263 597.004 566.659 588.672 561.553 580.639C555.79 572.13 549.501 564.299 542.863 556.459Q553.92 556.369 564.923 555.276C566.32 558.859 569.044 568.078 571.133 570.659C571.845 571.538 573.246 571.995 574.312 572.208C576.471 572.639 578.258 572.211 579.556 570.296C581.813 566.969 581.682 562.16 583.592 558.595C587.236 551.793 602.019 542.481 608.525 537.896Z"/>
	<path fill="#FEFEFE" d="M625.241 347C625.464 346.999 625.686 346.989 625.908 346.996C630.125 347.132 636.182 350.798 640.064 352.5C665.007 363.433 683.725 375.451 705.077 392.236C713.874 399.152 722.531 406.106 730.089 414.403L719.731 420.018C714.393 423.172 709.95 426.855 705.447 431.1C690.867 419.861 679.681 403.452 668.185 389.23C655.541 373.587 641.43 358.978 625.241 347Z"/>
	<path fill="#9F8BE8" d="M630.224 220.008C633.075 219.982 642.899 228.36 646.569 230.289C637.203 234.259 628.042 238.698 618.793 242.931C611.629 246.21 602.278 248.808 596.337 253.991C585.092 263.8 584.167 285.089 583.103 298.921L579.9 295.371C574.179 288.608 567.424 282.969 561.049 276.851C563.591 268.658 566.133 260.018 570.179 252.433C571.425 250.098 572.937 247.707 574.927 245.942C585.105 236.918 616.562 224.245 630.224 220.008Z"/>
	<path fill="#9F8BE8" d="M347.304 695.713C349.96 695.502 352.959 695.029 355.432 696.216C357.128 699.268 359.775 731.496 360.124 737.718Q340.881 735.688 321.894 731.957L305.383 729.004C304.019 720.704 302.172 712.088 301.897 703.679C315.644 697.929 332.564 696.927 347.304 695.713Z"/>
	<path fill="#9F8BE8" d="M694.232 462.776C701.036 467.419 718.977 505.374 723.282 514.159C712.917 513.952 702.812 513.025 692.659 510.843C681.583 508.971 669.807 505.305 659.486 500.917C663.12 496.68 667.778 493.06 671.71 489.055Q683.772 476.602 694.232 462.776Z"/>
	<path fill="#9F8BE8" d="M721.809 275.675L722.564 275.733C720.934 281.54 708.086 291.514 709.081 297.876C709.936 303.348 719.404 307.216 723.687 310.079Q727.437 312.595 730.784 315.627C734.626 319.138 739.653 324.721 739.443 330.26C739.395 331.536 739.087 332.452 738.016 333.228C734.934 335.462 729.113 334.74 725.519 334.415C723.185 333.87 720.997 333.159 718.826 332.151C708.95 327.566 697.935 318.219 694.253 307.676C691.512 299.825 693.036 290.077 696.481 282.67C703.663 278.702 713.72 276.886 721.809 275.675Z"/>
	<path fill="#9F8BE8" d="M680.44 294.01C681.328 295.2 680.906 300.929 681.121 302.875C681.557 306.813 682.355 311.078 683.757 314.791C686.091 320.973 691.361 324.707 695.051 329.912C697.937 333.981 700.913 343.778 699.988 348.735C699.713 350.205 698.938 351.55 697.593 352.292C695.192 353.617 691.783 352.539 689.355 351.853C685.851 350.215 682.564 347.759 679.83 345.032C669.098 334.329 667.372 321.034 667.43 306.585C671.079 301.699 675.658 297.743 680.44 294.01Z"/>
	<path fill="#9F8BE8" d="M638.051 246.13L638.262 246.345C636.863 252.365 602.4 290.656 595.053 297.032L594.719 296.653C593.467 291.183 596.82 278.664 598.581 273.303C599.869 269.381 601.659 265.654 604.718 262.792C610.842 257.06 629.55 250.393 638.051 246.13Z"/>
	<path fill="#FEFEFE" d="M542.452 274.507C545.582 276.614 548.465 279.725 551.199 282.332C561.154 291.825 570.189 301.318 577.882 312.769L573.353 317.227L569.012 321.824C564.346 313.524 559.759 305.218 554.857 297.05C550.867 290.402 546.201 283.566 542.833 276.613C542.474 275.872 542.403 275.32 542.452 274.507Z"/>
	<path fill="#9F8BE8" d="M654.847 320.893C655.961 323.645 656.494 326.916 657.489 329.774C660.631 338.796 664.97 346.248 670.473 353.974C666.566 352.125 662.758 350.037 658.928 348.032C652.075 344.388 644.958 341.441 637.768 338.541C643.655 333.166 649.776 327.04 654.847 320.893Z"/>
	<path fill="#9F8BE8" d="M715.009 437.349C715.078 437.388 715.163 437.407 715.218 437.464C716.849 439.179 719.528 452.619 720.401 455.823L706.9 455.439C704.828 455.181 702.82 455.017 700.864 454.238L700.608 453.461C703.631 447.636 710.122 441.733 715.009 437.349Z"/>
</svg>
