<?xml version="1.0" encoding="utf-8" ?>
<svg xmlns="http://www.w3.org/2000/svg" xmlns:xlink="http://www.w3.org/1999/xlink" width="1024" height="1024">
	<path fill="#D1C7D5" d="M0 0L917.501 0L926.457 0L953.106 0L960.434 0L1024 0L1024 130.173L1024 137.777L1024 169.58L1024 176.145L1024 538.064L1024 544.4L1024 586.196L1024 593.527L1024 610.521L1024 615.901L1024 688.047L1024 693.577L1024 712.539L1024 716.969L1024 784.53L1024 789.125L1024 811.022L1024 815.506L1024 928.743L1024 935.213L1024 1023.54L1024 1024L813.483 1024L811.918 1024L549.399 1024L545.963 1024L543.601 1024L540.429 1024L537.215 1024L519.255 1024L0 1024L0 1023.37L0 894.224L0 883.1L0 758.024L0 747.584L0 0Z"/>
	<path fill="#190A92" d="M667.045 227.665C665.099 225.771 662.177 224.745 660.948 222.226C660.242 220.778 660.248 219.35 660.823 217.846C664.306 208.742 673.164 201.136 681.842 197.201C702.32 187.917 728.534 190.104 749.088 197.87C759.596 201.84 774.644 209.161 779.539 220.021L779.981 220.902L781.497 220.946C781.745 221.132 781.991 221.321 782.241 221.504C786.363 224.527 791.53 226.265 795.805 229.233C816.606 243.672 829.602 261.465 833.907 286.75C834.871 292.405 834.944 297.965 834.23 303.654C832.593 316.702 825.781 335.434 838.985 345.065C841.15 346.645 843.678 347.666 846.198 348.537C844.286 350.274 842.299 351.963 840.582 353.897C836.801 356.76 832.577 357.237 827.951 356.534C826.199 356.268 824.459 355.87 822.73 355.488C822.203 356.309 822.255 356.61 822.129 357.563C821.22 364.465 815.931 370.862 810.495 374.918C803.984 379.778 791.804 384.602 783.587 383.281C782.12 383.045 781.242 382.594 780.209 381.504C779.525 378.795 779.781 375.93 779.831 373.155C773.17 381.034 765.505 385.617 755.097 386.505C751.261 386.833 747.543 386.7 743.809 385.735C743.501 385.655 743.191 385.585 742.882 385.507L742.325 385.363C767.993 407.37 775.119 454.343 777.608 486.663C779.487 511.075 780.154 535.948 776.608 560.246C774.864 572.192 771.703 583.897 769.971 595.812C773.385 603.249 774.041 613.489 775.456 621.625Q783.039 664.338 787.339 707.505C788.453 717.965 790.161 728.781 790.595 739.267C785.443 743.448 780.078 745.842 773.913 748.187C790.12 746.874 806.49 748.062 822.746 747.922L823.026 644.996C823.044 626.31 823.649 607.477 823.014 588.81C828.713 582.635 837.022 577.94 843.902 573.149Q860.106 561.723 876.503 550.575C882.664 546.38 888.946 541.151 895.544 537.784C897.236 536.921 898.847 536.898 900.711 536.823C910.538 536.425 920.615 537.008 930.472 537.034L1024 538.064L1024 544.4L1024 586.196L1024 593.527L1024 610.521L1024 615.901L1024 688.047L1024 693.577L1024 712.539L1024 716.969L1024 784.53L1024 789.125L1024 811.022L1024 815.506L1024 928.743L1024 935.213L1024 1023.54L1024 1024L813.483 1024L811.918 1024L549.399 1024L545.963 1024L543.601 1024L540.429 1024L537.215 1024L519.255 1024L0 1024L0 1023.37L0 894.224L0 883.1L0 758.024L0 747.584C8.95733 748.126 18.0259 747.963 26.9994 748.007L74.607 748.017Q123.688 748.404 172.768 747.992C171.633 737.582 166.447 728.056 164.392 717.764C164.647 716.732 164.896 715.674 165.293 714.685C166.13 712.604 167.724 711.267 169.775 710.435C182.121 705.427 209.776 718.621 221.431 723.854C221.931 715.744 221.31 707.13 222.624 699.149C223.36 694.674 225.296 691.191 229.125 688.642C235.876 684.147 245.348 685.178 252.893 686.71C286.393 693.511 314.952 719.922 333.343 747.588Q421.035 748.232 508.729 747.98C536.215 747.89 563.72 747.314 591.204 747.707C593.249 727.877 593.716 707.869 596.003 688.027C599.885 654.357 605.661 620.967 610.079 587.381C611.844 573.967 611.977 560.244 614.154 546.923C608.589 544.993 603.193 543.01 598.739 539.032C603.591 519.388 614.442 499.99 623.272 481.874C633.857 460.157 644.175 437.668 657.441 417.43Q661.15 411.784 665.436 406.562Q669.721 401.34 674.534 396.6C673.61 389.011 672.785 381.254 669.277 374.338C667.132 370.109 664.114 366.322 660.156 363.655C656.25 361.023 651.732 359.665 647.339 358.082C635.01 353.64 619.386 348.473 613.407 335.679C608.435 325.04 609.98 310.311 613.511 299.472C615.577 293.133 618.528 287.003 620.849 280.736C618.747 277.978 615.092 274.393 615.065 270.696C615.005 262.609 632.997 263.961 639.528 260.334C644.15 257.767 650.991 246.4 654.69 241.766C658.595 236.875 662.539 232.02 667.045 227.665Z"/>
	<path fill="#D7B56A" d="M0 758.024L12.506 758.423C22.3418 766.674 31.7131 775.392 41.2943 783.929L73.8278 812.466C69.1256 813.983 64.8342 815.686 60.6079 818.267C62.7074 838.928 69.9322 869.244 76.4635 889.058C119.133 908.801 183.3 919.032 230.161 922.047C249.274 939.371 268.988 956.049 288.268 973.198C305.191 988.251 321.96 1004.3 340.009 1017.98C341.289 1018.95 342.508 1019.82 344.091 1020.2C345.272 1019.76 346.214 1019.26 346.858 1018.11C347.216 1017.46 347.458 1016.77 347.086 1016.11C344.878 1012.21 330.617 1001.39 326.524 997.835C304.732 978.917 282.597 960.31 261.217 940.937C254.634 934.973 247.292 929.359 241.165 922.974C250.716 923.774 260.735 923.801 270.206 922.278C283.372 920.162 296.833 915.256 309.434 910.953C322.408 906.522 335.467 902.211 348.326 897.46C355.05 894.976 361.607 892.084 368.307 889.552L493.655 985.864C504.973 994.452 515.98 1003.46 527.272 1012.09C532.501 1016.08 537.586 1020.21 543.16 1023.73L543.601 1024L540.429 1024L537.215 1024L519.255 1024L0 1024L0 1023.37L0 894.224L0 883.1L0 758.024Z"/>
	<path fill="#190A92" d="M0 883.1Q32.2471 921.159 65.3478 958.478C80.65 975.551 98.1144 993.429 112.161 1011.33C113.48 1013.01 115.44 1015.31 115.378 1017.54C114.821 1018.5 113.903 1019.48 112.758 1019.75C111.366 1020.09 110.487 1019.5 109.411 1018.68C103.943 1014.54 88.719 995.738 83.4185 989.638L36.3028 935.209C24.5037 921.404 12.9336 906.977 0 894.224L0 883.1Z"/>
	<path fill="#E4CD94" d="M0 1023.37L377.014 1023.48L482.078 1023.41C499.695 1023.34 517.405 1022.75 535.009 1023C536.952 1023.03 538.739 1022.91 540.429 1024L537.215 1024L519.255 1024L0 1024L0 1023.37Z"/>
	<path fill="#F5E5BD" d="M519.255 1024C524.255 1023.05 532.278 1022.6 537.215 1024L519.255 1024Z"/>
	<path fill="#D7B56A" d="M1024 593.527L1024 610.521L1024 615.901L1024 688.047L1024 693.577L1024 712.539L1024 716.969L1024 784.53L1024 789.125L1024 811.022L890.975 805.062C870.894 804.129 850.633 803.638 830.602 801.942C829.814 777.015 830.04 751.97 830.009 727.03Q830.232 660.486 829.193 593.95L1024 593.527Z"/>
	<path fill="#D7B56A" d="M853.916 611.684L939.25 613.962Q981.614 615.444 1024 615.901L1024 688.047L854.086 682.268L853.916 611.684Z"/>
	<path fill="#190A92" d="M957.115 635.577C960.483 635.277 963.489 635.314 966.687 636.56C970.707 638.126 973.788 641.149 975.37 645.175Q975.667 645.925 975.884 646.702Q976.102 647.479 976.238 648.274Q976.375 649.069 976.428 649.875Q976.482 650.679 976.452 651.486Q976.423 652.292 976.31 653.091Q976.198 653.89 976.003 654.673Q975.809 655.456 975.535 656.215Q975.261 656.974 974.91 657.7C971.968 663.738 966.461 666.576 960.387 668.585C955.83 669.25 951.175 668.966 947.135 666.559C943.657 664.485 941.263 661.101 940.306 657.182C939.249 652.852 939.889 648.28 942.271 644.491C945.744 638.965 951.126 637.083 957.115 635.577Z"/>
	<path fill="#D7B56A" d="M959.594 642.082C961.962 641.927 964.37 642.106 966.342 643.539C968.27 644.942 969.366 646.975 969.669 649.327C970.053 652.307 969.272 655.508 967.401 657.878C964.698 661.302 961.319 661.86 957.243 662.266C955.092 662.161 953.192 662.026 951.284 660.942C949.204 659.761 947.587 658.098 947.026 655.716C946.406 653.081 947.121 650.331 948.631 648.127C951.291 644.246 955.214 642.95 959.594 642.082Z"/>
	<path fill="#D7B56A" d="M855.869 711.916Q883.191 713.093 910.53 713.754L1024 716.969L1024 784.53Q940.162 780.465 856.285 777.294C855.849 755.521 856.001 733.696 855.869 711.916Z"/>
	<path fill="#190A92" d="M959.01 730.108C962.497 729.946 965.248 730.181 968.486 731.699Q968.89 731.891 969.284 732.102Q969.678 732.314 970.06 732.546Q970.442 732.778 970.812 733.029Q971.182 733.28 971.539 733.549Q971.896 733.819 972.239 734.106Q972.581 734.394 972.909 734.698Q973.236 735.003 973.547 735.323Q973.859 735.644 974.154 735.98Q974.448 736.317 974.725 736.668Q975.003 737.018 975.261 737.383Q975.52 737.748 975.76 738.125Q976 738.502 976.221 738.891Q976.441 739.28 976.641 739.68Q976.841 740.08 977.021 740.49Q977.2 740.899 977.359 741.317Q977.517 741.735 977.654 742.161C978.908 746.187 978.01 750.333 975.906 753.903C972.51 759.666 967.39 762.409 961.114 763.952C957.167 764.426 953.28 764.173 949.696 762.309C945.903 760.335 943.266 756.852 942.143 752.751Q942.024 752.33 941.926 751.904Q941.829 751.478 941.754 751.047Q941.679 750.616 941.626 750.182Q941.574 749.748 941.544 749.312Q941.514 748.876 941.507 748.438Q941.499 748.001 941.515 747.564Q941.53 747.127 941.568 746.692Q941.606 746.256 941.667 745.823Q941.728 745.39 941.811 744.961Q941.894 744.532 941.999 744.107Q942.105 743.683 942.232 743.264Q942.359 742.846 942.508 742.435Q942.656 742.024 942.826 741.621Q942.996 741.218 943.187 740.824Q943.377 740.431 943.588 740.048Q943.799 739.665 944.029 739.293C947.434 733.855 952.966 731.381 959.01 730.108Z"/>
	<path fill="#D7B56A" d="M961.481 736.612C963.751 736.714 965.791 737.15 967.725 738.397C969.615 739.615 970.838 741.313 971.264 743.531C971.84 746.524 970.922 749.69 969.121 752.107C966.274 755.928 962.69 757.242 958.126 757.874C956.049 757.794 954.059 757.342 952.256 756.286C950.318 755.151 948.909 753.552 948.376 751.342C947.686 748.481 948.525 745.347 950.169 742.961C952.972 738.892 956.793 737.416 961.481 736.612Z"/>
	<path fill="#190A92" d="M1024 693.577Q969.531 692.524 915.08 690.737C895.577 690.17 875.824 690.451 856.372 689.091C853.958 688.923 850.645 688.797 848.444 687.772C848.263 687.688 848.098 687.571 847.923 687.473C847.791 687.399 847.657 687.329 847.523 687.258C847.148 686.1 846.893 684.949 846.738 683.74C845.554 674.48 846.357 658.434 846.29 648.636C846.214 637.539 845.212 623.69 846.097 612.938C846.299 610.481 846.691 608.272 848.214 606.29C855.735 603.537 947.036 608.091 962.014 608.623L1024 610.521L1024 615.901Q981.614 615.444 939.25 613.962L853.916 611.684L854.086 682.268L1024 688.047L1024 693.577Z"/>
	<path fill="#190A92" d="M1024 789.125L907.247 785.238L874.6 784.056C868.767 783.853 862.737 784.009 856.949 783.353C854.286 783.051 851.777 782.565 849.537 781.042C848.754 779.218 848.578 777.267 848.499 775.299C848.03 763.573 848.433 751.753 848.292 740.013C848.187 731.211 847.119 721.444 848.233 712.755C848.484 710.795 848.952 708.617 850.432 707.205C851.781 705.919 855.089 705.95 856.899 705.916C873.538 705.603 890.479 707.17 907.123 707.797L1024 712.539L1024 716.969L910.53 713.754Q883.191 713.093 855.869 711.916C856.001 733.696 855.849 755.521 856.285 777.294Q940.161 780.465 1024 784.53L1024 789.125Z"/>
	<path fill="#D7B56A" d="M340.378 756.969Q366.716 757.011 393.051 756.61C399.013 763.396 407.932 768.585 415.247 773.829Q431.769 785.853 448.424 797.694L570.117 885.485C587.088 897.93 604.808 909.885 621.104 923.188Q614.325 928.107 607.176 932.472Q600.028 936.836 592.555 940.62C583.731 945.075 551.847 956.223 547.352 961.008C544.762 963.765 544.074 968.429 544.274 972.054C544.428 974.844 545.309 977.235 547.501 979.058C559.732 989.232 623.853 985.593 640.139 984.284C655.859 983.02 688.698 979.533 701.947 971.466C703.76 970.362 705.099 968.723 706.459 967.126C710.02 966.526 713.668 966.217 717.257 965.799C729.8 974.904 742.717 983.461 755.334 992.462Q770.55 1003.53 786.271 1013.86C791.149 1017.04 796.155 1020.6 801.455 1023.04Q806.661 1023.36 811.875 1023.46L811.918 1024L549.399 1024L545.963 1024C547.232 1023.24 547.868 1023.17 548.33 1021.72C545.133 1017 527.96 1005.05 522.608 1000.8Q483.278 969.466 443.234 939.048C420.401 921.393 397.498 903.308 373.744 886.914C376.196 885.445 378.848 883.94 381.013 882.071C383.401 880.01 384.439 877.699 385.392 874.742C388.727 864.393 389.642 852.284 391.379 841.546C392.831 832.573 394.951 823.484 395.809 814.452C395.437 813.787 395.046 813.116 394.627 812.478C390.278 805.853 369.921 803.296 362.344 801.779C355.689 785.404 349.034 772.271 340.378 756.969Z"/>
	<path fill="#E4CD94" d="M801.455 1023.04Q806.661 1023.36 811.875 1023.46L811.918 1024L549.399 1024C554.366 1022.31 582.955 1023.44 589.815 1023.44Q664.08 1023.94 738.344 1023.46Q760.678 1023.41 783.01 1023.09C788.856 1023.04 795.754 1023.86 801.455 1023.04Z"/>
	<path fill="#D7B56A" d="M786.026 800.302C795.793 804.552 804.98 810.83 814.185 816.202L867.512 847.423C895.661 863.839 924.428 879.151 952.831 895.109C976.612 908.471 999.815 922.537 1024 935.213L1024 1023.54L1024 1024L813.483 1024L811.918 1024L811.875 1023.46C811.882 1023.42 811.903 1023.39 811.897 1023.36C811.61 1021.66 798.594 1013.94 796.149 1012.29C772.603 996.355 749.12 980.414 726.539 963.126C746.983 959.234 769.56 946.667 786.912 935.356Q792.278 931.925 797.425 928.173Q802.571 924.421 807.479 920.362Q812.388 916.303 817.039 911.952Q821.69 907.601 826.067 902.974C827.986 900.982 832.582 896.886 832.66 894.013C832.83 887.787 807.128 861.174 801.495 856.775C795.403 838.366 790.959 819.067 786.026 800.302Z"/>
	<path fill="#E4CD94" d="M813.483 1024C820.322 1022.82 828.194 1023.5 835.126 1023.54Q852.193 1023.64 869.26 1023.56L963.469 1023.39C983.631 1023.37 1003.85 1023.04 1024 1023.54L1024 1024L813.483 1024Z"/>
	<path fill="#9F8BE8" d="M663.911 221.488C664.615 220.15 665.286 218.787 666.096 217.509C671.91 208.334 683.393 202.631 693.64 200.207C714.381 195.301 739.028 200.003 758.058 209.064C763.326 211.572 768.407 215.019 773.395 218.06C775.52 219.355 776.995 220.637 779.539 220.021L779.981 220.902L781.497 220.946C781.745 221.132 781.991 221.321 782.241 221.504C786.363 224.527 791.53 226.265 795.805 229.233C816.606 243.672 829.602 261.465 833.907 286.75C834.871 292.405 834.944 297.965 834.23 303.654C832.593 316.702 825.781 335.434 838.985 345.065C841.15 346.645 843.678 347.666 846.198 348.537C844.286 350.274 842.299 351.963 840.582 353.897C835.179 352.536 829.892 351.017 825.552 347.334C815.917 339.157 815.614 328.032 814.619 316.465C814.453 314.538 814.03 311.812 812.356 310.598C811.747 310.157 811.498 310.356 810.82 310.451C808.561 313.011 807.719 318.894 807.432 322.272C806.573 332.398 810.139 341.321 816.56 349.024C816.01 354.085 815.146 358.369 812.521 362.814C806.133 373.63 794.338 377.184 782.883 379.941C783.014 376.024 783.373 371.901 783.044 367.998C782.911 366.423 782.68 365.367 781.451 364.352C778.93 365.103 775.976 370.57 773.87 372.613C771.738 374.682 769.247 376.375 766.618 377.746C758.321 382.075 749.463 383.044 740.498 380.299C733.852 370.89 733.809 364.497 734.578 353.53C740.58 353.182 746.229 352.307 751.733 349.751C757.72 346.97 763.653 342.135 765.793 335.701C766.83 332.584 766.876 329.391 765.949 326.24C763.416 317.627 756.275 315.599 750.124 310.37C744.765 305.813 740.052 300.227 737.024 293.849C728.514 275.926 736.691 270.649 742.095 255.372C741.913 254.109 741.79 253.954 740.97 252.964C739.945 252.943 739.827 252.828 738.871 253.374C733.283 256.565 728.887 265.227 727.464 271.315C724.348 284.638 728.238 295.54 735.174 306.853L734.639 307.007C733.236 305.134 731.117 303.572 729.435 301.92C724.522 297.096 721.055 291.088 718.989 284.524C715.41 273.157 717.37 258.783 725.877 249.885C728.643 246.993 732.953 244.497 734.686 240.819C735.275 239.571 735.373 238.748 734.89 237.467C734.302 237.099 733.793 236.814 733.081 236.773C728.259 236.496 722.178 239.967 718.584 242.933C707.923 251.73 704.743 264.434 703.493 277.546C699.722 260.94 701.892 241.335 716.583 230.554C720.255 227.859 729.219 225.236 730.73 221.018C730.315 219.912 729.975 219.651 728.936 219.17C726.019 217.817 721.563 217.704 718.371 217.417C698.911 215.665 689.097 220.136 671.643 227.21C668.857 225.584 666.215 223.752 663.911 221.488Z"/>
	<path fill="#D7B56A" d="M774.019 756.347Q798.527 756.763 823.037 756.485C823.078 764.819 821.784 801.773 824.106 806.614C833.007 810.28 874.026 810.108 885.25 810.511L991.281 814.137C1002.18 814.598 1013.11 814.774 1024 815.506L1024 928.743C1003.32 917.991 983.452 905.898 963.129 894.511C946.141 884.992 928.803 876.035 911.78 866.55C893.018 856.095 874.579 845.091 855.973 834.365L814.449 810.289C804.333 804.39 794.27 798.261 783.8 793.011C781.234 780.623 776.738 768.693 774.019 756.347Z"/>
	<path fill="#FEFEFD" d="M673.775 230.491C688.541 225.036 701.721 223.142 717.346 222.704C708.185 228.657 700.26 237.104 696.773 247.657C695.777 250.668 695.863 254.501 694.503 257.274C694.405 257.473 694.299 257.669 694.198 257.866C693.506 252.432 691.896 246.85 687.452 243.255C685.087 241.341 682.772 240.816 679.796 241.028L678.892 241.695C678.815 245.023 684.989 250.083 687.024 252.844C688.121 254.332 688.602 256.527 689.837 257.789C690.798 258.772 692.125 258.865 693.437 258.806C693.682 258.795 693.925 258.767 694.169 258.747C694.219 258.965 694.272 259.181 694.319 259.399C694.757 261.415 694.524 263.674 694.692 265.738C695.245 272.556 696.852 280.455 702.871 284.57C704.492 285.678 706.316 286.85 708.299 286.44C710.774 282.46 709.329 273.226 710.021 268.321C710.519 264.786 711.629 261.724 713.089 258.494C713.588 257.39 714.203 255.558 715.052 254.767C713.807 258.88 711.775 263.096 710.905 267.274C708.991 276.465 711.784 287.788 716.076 295.94C718.785 301.084 723.924 307.739 729.622 309.611C730.632 309.942 731.686 310.035 732.667 309.548C733.93 308.922 734.09 308.221 734.639 307.007L735.174 306.853C737.029 309.103 739.01 311.27 740.927 313.469C738.14 314.782 733.707 316.334 731.908 318.824C731.186 319.823 730.884 320.682 731.376 321.897C733.328 326.719 746.141 320.82 752.157 322.349C754.094 322.842 755.598 323.948 756.518 325.736C757.722 328.076 757.919 331.052 757.087 333.541C755.687 337.727 751.694 340.821 747.926 342.818C741.778 346.076 732.372 348.136 725.722 345.505C723.377 344.577 720.873 342.681 718.399 342.275C717.364 342.104 716.7 342.453 716.027 343.258C715.035 344.444 715.083 345.007 715.162 346.441C717.21 350.264 723.419 352.295 727.206 354.084C725.921 362.717 726.118 368.309 729.682 376.47C710.861 376.059 695.376 381.41 680.152 392.231C678.82 385.7 678.737 379.276 676.066 373.014C666.591 350.794 636.577 354.063 623.46 337.79C614.864 327.126 616.777 310.946 621.295 298.977C623.247 293.807 626.721 287.63 627.115 282.109C627.453 277.359 623.234 273.993 620.278 270.803Q625.232 270.144 630.178 269.424C634.934 268.719 639.457 267.674 643.458 264.846C650.497 259.872 655.723 250.829 661.411 244.305C665.444 239.68 670.122 235.405 673.775 230.491Z"/>
	<path fill="#190A92" d="M633.412 290.254C639.287 290.359 642.31 294.119 647.551 295.838C652.497 297.46 658.076 296.47 662.86 298.19C663.564 299.062 663.909 299.365 663.784 300.573C663.21 306.128 655.264 313.111 651.175 316.431C648.003 318.704 645.027 320.819 641.138 321.706C637.768 322.475 634.071 322.138 631.151 320.178C628.251 318.232 626.61 314.852 625.966 311.504C624.399 303.35 629.081 296.622 633.412 290.254Z"/>
	<path fill="#FEFEFD" d="M635.745 296.724C642.554 300.434 648.154 302.378 655.815 303.64C653.786 307.526 651.279 309.547 647.866 312.132C644.772 314.259 641.852 315.615 638.261 316.607C635.541 314.689 633.364 313.11 632.46 309.734C631.236 305.159 633.601 300.626 635.745 296.724Z"/>
	<path fill="#190A92" d="M664.757 259.96C665.27 259.9 665.723 259.828 666.248 259.862C667.657 259.956 669.612 261.224 670.314 262.45C671.66 264.799 670.972 268.389 670.212 270.807C668.592 275.957 665.099 280.019 660.386 282.549C659.801 282.6 659.35 282.655 658.75 282.635C657.234 282.584 655.481 281.763 654.621 280.467C653.321 278.507 653.829 275.689 654.387 273.581C656.013 267.429 659.286 263.064 664.757 259.96Z"/>
	<path fill="#D7B56A" d="M896.505 544.048L1024 544.4L1024 586.196C993.69 585.422 963.249 586.238 932.933 586.435L836.323 586.562C849.522 576.719 863.225 567.407 876.748 558.012C883.372 553.41 889.824 548.569 896.505 544.048Z"/>
	<path fill="#9F8BE8" d="M656.397 568.377C675.684 568.698 693.342 568.048 712.027 562.77C711.141 582.697 707.451 602.592 705.892 622.51C702.2 624.825 698.511 627.151 695.042 629.795C684.628 637.729 679.007 647.476 673.684 659.205C672.4 662.032 670.639 665.201 670.334 668.308C670.138 670.303 670.691 672.747 672.196 674.166C673.498 675.394 675.327 675.68 677.048 675.641C684.124 675.481 690.169 671.395 694.833 666.414C694.95 671.69 694.927 677.156 694.031 682.367C692.647 690.415 686.316 702.191 689.49 709.983C690.075 711.419 691.017 712.589 692.554 713.077C696.272 714.259 701.102 711.697 704.197 709.793C706.023 709.87 707.955 710.019 709.755 709.649C720.716 707.395 728.369 696.807 734.177 688.077C734.704 688.35 735.5 688.847 736.057 689.022C734.182 696.903 731.399 704.724 729.154 712.521C723.364 732.627 717.404 754.093 714.796 774.864C689.272 780.915 659.883 784.372 633.751 781.06C621.41 779.496 609.684 776.398 597.829 772.692C598.277 759.685 599.552 746.675 600.491 733.696C602.492 706.041 604.841 678.559 608.701 651.083C612.786 622.004 618.562 593.31 620.847 563.983C630.299 565.859 640.159 567.542 649.781 568.193C652.2 585.271 657.407 603.329 665.871 618.426C667.402 621.157 670.388 625.457 673.782 625.965C675.001 626.147 675.322 625.722 676.134 624.976C676.703 623.197 676.515 621.829 675.922 620.088C674.055 614.608 670.016 609.397 667.598 604C662.52 592.662 659.368 580.403 656.397 568.377Z"/>
	<path fill="#9F8BE8" d="M387.98 817.547L388.254 818.072C386.657 827.384 384.783 836.637 383.254 845.965C381.644 855.784 380.801 866.872 377.41 876.244C372.237 880.195 365.603 882.801 359.616 885.292C347.018 890.534 334.003 894.631 321.144 899.173C306.31 904.412 281.6 913.679 266.488 915.903C256.746 917.337 246.146 916.103 236.314 915.545C187.873 912.793 127.754 903.378 82.9744 884.923C82.5959 881.85 82.0421 878.83 81.4645 875.79C77.3352 859.167 73.73 842.729 70.6772 825.876C82.777 829.496 94.8729 833.475 107.085 836.67C115.2 838.793 123.468 840.295 131.616 842.292C174.654 852.84 212.138 859.607 256.708 856.283C266.858 855.526 277.071 854.546 287.045 852.455C321.825 845.165 355.36 831.322 387.98 817.547Z"/>
	<path fill="#190A92" d="M268.796 862.396C269.977 862.413 271.323 862.358 272.44 862.784C273.669 863.254 274.356 864.243 274.718 865.457C277.047 873.245 274.722 905.142 271.03 911.533C269.597 911.592 267.702 911.697 266.473 910.793C265.145 909.816 264.707 908.732 264.607 907.128C264.176 900.264 266.729 892.709 267.09 885.748C267.438 879.062 266.199 872.17 266.968 865.512C267.13 864.102 267.876 863.376 268.796 862.396Z"/>
	<path fill="#D7B56A" d="M406.316 756.747L590.187 756.991C590.057 761.631 587.857 771.832 590.684 775.536C595.044 781.248 611.416 784.102 618.222 785.288Q621.85 823.332 626.693 861.24C628.801 878.016 631.232 894.794 632.771 911.633C631.754 913.569 630.436 915.379 629.229 917.202C628.82 917.608 628.385 917.824 627.888 918.107C625.516 917.407 623.481 916.082 621.445 914.711C598.562 899.305 576.63 882.432 554.352 866.174L462.592 800.006L431.5 777.564C426.546 774.039 407.776 761.488 404.871 757.767L405.32 757.532L404.658 757.27L404.324 757.67L404.072 757.366L404.247 757.013L406.316 756.747Z"/>
	<path fill="#FEFEFD" d="M661.625 424.933C663.897 420.997 666.291 417.221 669.078 413.626C686.365 391.328 705.101 384.427 732.262 381.002C735.439 386.072 739.453 390.385 743.367 394.886C745.339 397.444 746.83 400.334 748.706 402.966C762.129 429.491 766.715 458.198 769.856 487.465C753.061 492.146 736.722 495.55 719.225 496.119C715.664 496.235 711.344 496.666 707.951 495.518C707.446 494.845 707.314 494.57 707.043 493.726C707.161 490.136 703.982 480.914 703.109 476.879C701.649 472.076 696.992 453.809 693.777 451.076C692.441 450.776 691.795 450.612 690.493 451.301C689.516 451.817 688.822 452.583 688.784 453.729C688.687 456.677 693.648 469.209 694.813 473.277C700.72 493.903 706.194 514.697 711.865 535.394C683.236 543.297 653.872 548.599 624.403 541.513C619.174 540.255 613.66 538.831 608.783 536.518C610.198 531.957 611.713 527.45 613.978 523.229C616.865 516.056 619.512 508.026 623.61 501.449L638.654 469.034C643.085 459.422 647.251 449.637 652.772 440.585C655.535 435.218 658.488 430.093 661.625 424.933Z"/>
	<path fill="#9F8BE8" d="M613.978 523.229C616.865 516.056 619.512 508.026 623.61 501.449C624.998 501.421 626.33 501.34 627.711 501.186C629.391 500.998 630.423 501.136 631.792 502.186C633.935 503.828 634.861 506.318 635.078 508.947C635.396 512.811 634.286 516.696 631.625 519.563Q631.095 520.125 630.511 520.63Q629.927 521.135 629.295 521.579Q628.663 522.023 627.99 522.4Q627.316 522.778 626.608 523.086Q625.899 523.393 625.163 523.628Q624.428 523.862 623.672 524.021Q622.916 524.179 622.148 524.261Q621.38 524.343 620.608 524.346C618.383 524.341 616.134 523.73 613.978 523.229Z"/>
	<path fill="#9F8BE8" d="M703.109 476.879C706.873 473.758 711.278 469.142 716.501 469.342C719.289 470.708 720.763 473.55 721.72 476.407C722.688 479.3 722.772 481.161 721.297 483.894C718.478 489.117 712.142 491.336 707.043 493.726C707.161 490.136 703.982 480.914 703.109 476.879Z"/>
	<path fill="#9F8BE8" d="M661.625 424.933C661.846 424.879 662.069 424.83 662.288 424.77C665.898 423.78 668.207 422.473 672.001 424.426C673.237 425.063 674.252 426.124 674.709 427.452C675.528 429.829 674.523 432.424 673.25 434.436C670.762 438.371 666.23 442.254 661.608 443.298C658.913 443.906 656.606 443.554 654.334 441.982C653.746 441.575 653.258 441.108 652.772 440.585C655.535 435.218 658.488 430.093 661.625 424.933Z"/>
	<path fill="#9F8BE8" d="M738.195 411.39C735.208 409.668 732.285 407.295 730.857 404.08C729.815 401.737 729.516 398.88 730.566 396.478C731.347 394.692 732.872 393.533 734.707 392.963C736.99 392.254 738.456 392.545 740.515 393.735C741.32 394.201 741.896 394.591 742.818 394.808C742.998 394.851 743.184 394.86 743.367 394.886C745.339 397.444 746.83 400.334 748.706 402.966C748.625 403.134 748.548 403.304 748.461 403.47C745.934 408.301 743.219 409.855 738.195 411.39Z"/>
	<path fill="#9F8BE8" d="M672.168 509.95C674.286 509.964 676.199 510.65 678.051 511.64C679.873 512.613 681.216 513.928 681.771 515.962C682.605 519.019 681.408 522.383 679.84 524.997C676.946 529.819 673.033 532.735 667.65 534.163C667.254 534.104 666.859 534.038 666.468 533.952C663.429 533.281 659.889 532.464 658.197 529.57C657.235 527.923 657.267 526.07 657.831 524.298C659.751 518.272 666.649 512.653 672.168 509.95Z"/>
	<path fill="#9F8BE8" d="M699.595 408.909C703.104 409.371 707.202 410.677 709.354 413.674C710.905 415.836 711.156 418.467 710.608 421.021C709.516 426.108 706.01 430.538 701.755 433.379C700.214 433.915 698.464 434.519 696.814 434.306C695.149 434.092 693.752 433.262 692.806 431.873C690.679 428.75 691.218 423.683 692.005 420.228C693.144 415.228 695.188 411.568 699.595 408.909Z"/>
	<path fill="#6E5BD9" d="M656.653 466.512C658.121 466.412 659.602 466.281 661.042 466.661Q661.51 466.785 661.964 466.954Q662.417 467.123 662.852 467.336Q663.286 467.549 663.698 467.804Q664.109 468.059 664.494 468.354Q664.878 468.648 665.232 468.979Q665.585 469.31 665.904 469.674Q666.223 470.038 666.505 470.432Q666.787 470.825 667.028 471.245C668.838 474.394 669.111 478.526 668.049 481.966C666.766 486.124 664.339 488.277 660.629 490.319C659.574 490.61 658.569 490.91 657.463 490.844C655.307 490.716 653.003 489.715 651.619 488.031C649.453 485.394 649.242 481.338 649.71 478.112C650.441 473.074 652.586 469.484 656.653 466.512Z"/>
	<path fill="#9F8BE8" d="M744.808 434.877C745.256 434.92 745.326 434.913 745.829 435.044C749.552 436.013 752.736 438.413 754.552 441.811C756.343 445.163 756.812 449.307 755.497 452.904C754.162 456.554 751.807 458.063 748.448 459.704C747.553 459.991 746.622 460.299 745.683 460.393C743.643 460.597 741.093 459.7 739.624 458.277C737.621 456.337 737.119 452.805 737.214 450.156C737.426 444.286 740.641 438.82 744.808 434.877Z"/>
	<path fill="#FEFEFD" d="M709.751 502.935C731.986 502.909 748.581 500.29 770.167 494.988C771.538 516.264 771.853 538.458 768.575 559.57C765.394 580.055 759.562 599.853 754.825 619.982C751.938 632.247 750.257 644.78 746.812 656.92C743.733 667.766 738.795 678.084 736.057 689.022C735.5 688.847 734.704 688.35 734.177 688.077C735.552 685.79 737.46 683.332 736.928 680.529C735.946 679.79 735.415 679.453 734.082 679.627C731.072 680.02 724.43 691.681 721.61 694.597C718.437 697.879 714.863 700.397 710.979 702.759C713.469 698.045 719.242 689.085 717.912 683.593C716.972 682.646 716.861 682.442 715.574 682.178C709.118 684.744 707.434 704.696 695.691 706.179L694.947 705.773C695.908 700.881 698.048 696.289 699.366 691.495C701.628 683.267 704.065 667.872 699.037 660.441C698.127 659.097 696.745 658.011 695.489 657.004C689.384 661.804 685.212 666.776 677.667 669.538C683.094 656.792 688.958 644.721 699.952 635.856C703.893 632.677 708.709 630.026 712.336 626.555C715.219 608.815 716.622 590.405 718.179 572.49C719.04 562.593 720.764 551.83 719.771 541.914C718.532 529.536 713.788 514.798 709.751 502.935Z"/>
	<path fill="#9F8BE8" d="M231.429 729.322C231.441 723.629 230.147 699.835 233.192 696.19C235.636 693.263 241.848 692.391 245.377 692.52C259.327 693.031 285.707 709.324 296.198 718.08C303.096 723.837 309.224 730.607 315.184 737.315C338.321 763.358 347.944 789.765 360.847 821.522L353.696 824.215C350.838 815.224 334.735 783.27 326.407 779.301C325.177 778.715 324.611 778.841 323.375 779.279C321.74 781.12 321.355 782.859 321.17 785.269L320.817 784.705C316.427 777.58 313.354 769.751 308.686 762.656C302.316 752.974 278.841 727.266 268.161 724.958C266.769 724.657 265.365 724.746 264.159 725.589C263.248 726.226 262.826 727.037 262.293 727.973C262.396 729.765 264.401 731.404 265.735 732.601C269.034 735.562 272.902 737.896 276.429 740.576C281.126 744.146 285.569 748.329 289.736 752.509C309.25 772.082 322.979 806.283 328.261 833.159C325.415 834.152 322.574 835.202 319.694 836.091C316.595 812.303 308.198 788.029 293.972 768.589C291.6 765.348 289.09 761.435 285.933 758.931C284.953 758.153 284.13 757.734 282.883 757.502C281.594 758.014 281.32 758.182 280.765 759.568C280.08 761.28 281.179 763.029 282.009 764.469C285.793 771.035 290.831 776.855 294.641 783.442C304.397 800.31 308.556 819.355 312.569 838.171L295.88 842.725C295.306 830.203 288.948 776.018 281.604 768.971C280.729 768.131 279.953 767.853 278.788 767.642C277.624 767.968 277.037 768.179 276.314 769.272C274.374 772.199 279.128 786.915 280.148 790.983Q285.589 817.505 288.439 844.428C273.064 847.262 257.169 849.45 241.544 850.121Q246.377 826.576 252.438 803.316C256.011 789.991 263.358 768.023 263.98 755.151C258.46 745.339 241.459 734.713 231.429 729.322Z"/>
	<path fill="#190A92" d="M251.111 702.475C267.605 703.612 293.787 720.406 306.038 731.21C308.09 733.019 311.239 736.028 311.167 738.975C311.131 740.451 310.025 741.326 309.04 742.264C304.776 741.104 278.174 721.57 271.321 717.686C266.987 715.23 252.305 709.799 250.115 707.983C249.09 707.132 249.102 706.677 248.959 705.46C249.483 703.926 249.912 703.47 251.111 702.475Z"/>
	<path fill="#FEFEFD" d="M625.307 786.834C645.831 790.281 667.335 789.217 687.934 787.145C688.087 795.673 688.742 804.225 689.089 812.75L690.834 859.077C691.701 877.965 692.824 896.871 693.142 915.778C689.17 919.497 684.22 922.194 679.557 924.949Q676.372 926.691 673.083 928.227C660.996 933.746 646.622 936.861 633.818 932.106L633.631 923.268C636.125 919.313 638.508 915.42 640.278 911.08C636.638 893.433 635.54 874.834 633.399 856.919Q630.783 835.358 628.389 813.771C627.323 804.813 625.951 795.832 625.307 786.834Z"/>
	<path fill="#FEFEFD" d="M763.659 751.933L764.512 751.872C764.792 752.097 765.131 752.264 765.353 752.546C766.917 754.526 768.152 762.29 768.948 765.138L785.491 825.154C788.781 837.417 791.013 849.489 795.865 861.311C792.546 866.917 786.315 872.077 780.789 875.452C774.376 879.369 762.556 884.382 754.985 882.233C750.512 880.964 748.616 875.978 746.541 872.257C739.858 860.575 734.013 848.291 728.065 836.223L703.013 785.286C709.516 783.851 715.882 782.367 722.095 779.911C723.52 774.311 724.093 768.158 725.016 762.433C738.627 760.201 750.92 757.326 763.659 751.933Z"/>
	<path fill="#D7B56A" d="M74.0973 757.239L173.203 757.089Q169.502 771.011 164.923 784.669C157.972 786.226 151.018 788.883 144.213 791.022Q128.61 795.89 112.877 800.318Q96.2202 804.7 79.9188 810.261C60.7946 792.617 39.7499 776.125 21.598 757.543Q47.8488 757.562 74.0973 757.239Z"/>
	<path fill="#9F8BE8" d="M170.439 794.436C177.285 780.466 183.882 760.623 181.952 745.054C181.128 738.409 172.59 722.094 173.934 717.551C174.624 717.118 175.098 716.973 175.926 716.878C189.694 715.307 232.769 736.678 243.609 746.499C247.984 749.631 252.564 752.947 256.448 756.678C254.113 766.576 250.869 776.274 248.018 786.033Q243.108 803.021 239.209 820.27C230.618 815.766 222.348 813.337 212.935 811.276C209.2 810.458 205.245 809.862 201.61 808.695C204.263 802.293 206.597 795.869 208.414 789.17C213.279 790.039 221.439 790.238 225.621 787.285C226.424 786.718 226.503 786.355 226.945 785.517C226.817 783.935 226.427 783.447 225.481 782.254C221.254 781.122 215.239 782.89 210.815 783.024Q209.937 770.713 208.933 758.412C217.23 759.027 234.687 758.695 241.261 752.995C242.377 752.027 243.039 750.852 243.681 749.537C242.683 748.486 241.543 747.485 240.018 747.492C237.279 747.505 233.62 749.03 230.879 749.677C226.395 750.737 221.723 751.479 217.108 751.554C211.72 751.643 205.104 750.624 200.867 747.096C198.373 745.019 197.261 742.105 193.901 741.253C192.753 741.398 191.511 741.855 190.845 742.894C190.116 744.031 189.982 745.019 190.377 746.299C191.728 750.671 197.722 754.05 201.476 756.199C201.621 764.219 202.584 772.17 202.543 780.223C200.491 779.505 197.868 778.199 195.77 779.295C195.012 779.691 195.08 780.112 194.823 780.863C195.664 784.557 197.728 786.129 200.448 788.557C198.54 794.671 196.024 800.553 193.333 806.356C184.491 800.256 181.825 795.893 170.439 794.436Z"/>
	<path fill="#9F8BE8" d="M765.545 607.316C767.901 614.716 769.365 629.901 770.643 638.228Q776.015 671.677 779.562 705.368C780.694 715.535 782.113 725.773 782.679 735.988C770.017 744.589 754.732 748.7 740.122 752.665C735.579 754.029 730.747 754.883 726.117 755.956C729.33 744.58 731.284 732.84 734.526 721.432C740.352 700.928 747.12 680.678 752.903 660.175C757.797 642.824 761.814 624.959 765.545 607.316Z"/>
	<path fill="#D7B56A" d="M694.207 786.145C695.348 786.664 695.875 786.99 696.493 788.111C701.026 796.334 704.694 805.364 708.809 813.839C720.608 838.14 732.246 863.045 745.809 886.394C741.788 892.14 737.759 897.926 733.14 903.215C730.153 906.636 726.51 908.517 724.182 912.514C717.056 919.645 710.105 926.69 704.2 934.91C703.324 927.671 700.9 920.612 700.236 913.364C699.063 900.562 699.141 887.315 698.719 874.451C698.134 856.63 697.229 838.789 696.359 820.978Q695.747 809.867 694.847 798.775C694.537 794.681 693.836 790.221 694.207 786.145Z"/>
	<path fill="#9F8BE8" d="M693.974 924.376L694.582 924.548C697.983 928.845 697.97 945.249 698.076 951.248C671.734 964.372 589.969 966.857 558.586 962.827L558.226 962.342L559.157 961.987C581.938 954.263 601.08 945.018 621.213 931.853C625.208 936.41 630.104 939.212 635.99 940.591C657.165 945.55 676.616 935.063 693.974 924.376Z"/>
	<path fill="#190A92" d="M614.987 941.904C620.171 942.63 625.268 944.381 630.162 946.204C632.153 946.946 636.353 948.205 637.236 950.148L636.137 952.287C632.642 953.01 617.482 947.889 614.37 945.853C614.027 944.352 614.553 943.364 614.987 941.904Z"/>
	<path fill="#190A92" d="M614.161 951.287C619.297 951.305 627.493 951.977 631.73 954.976C632.424 956.514 632.088 956.825 631.631 958.4C630.998 958.424 630.379 958.445 629.746 958.421C624.96 958.235 617.11 958.488 613.672 954.872C613.382 953.324 613.683 952.759 614.161 951.287Z"/>
	<path fill="#9F8BE8" d="M169.609 795.787C172.854 803.107 184.283 808.483 190.987 812.356C188.1 818.1 180.451 828.78 179.258 834.222C178.981 835.485 179.321 836.386 180.171 837.355C181.056 838.364 182.111 838.492 183.351 838.594C187.524 836.995 195.88 820.224 198.587 815.5C211.735 819.762 225.007 821.645 237.884 827.084C236.58 831.491 235.491 835.866 234.631 840.381C234.107 843.772 233.934 847.002 233.937 850.432C204.061 850.388 170.57 846.307 141.916 837.58C145.408 832.57 149.664 828.044 153.213 823.041C159.338 814.405 164.412 804.998 169.609 795.787Z"/>
	<path fill="#9F8BE8" d="M801.937 866.784C806.176 869.208 811.808 877.398 815.055 881.409Q811.918 885.693 808.412 889.681C803.051 895.724 796.889 900.657 790.545 905.603C770.427 921.289 749.088 933.197 724.986 941.614C720.38 943.223 714.97 945.834 710.086 946.117C708.873 945.513 708.899 945.534 708.372 944.286C708.592 938.333 714.838 932.386 718.813 928.444C722.243 925.11 725.905 921.747 728.745 917.886C734.34 920.119 743.444 924.854 749.469 923.664C750.599 923.44 751.025 923.178 751.629 922.178C750.063 916.103 737.6 918.506 734.33 913.964L734.817 913.11C740.047 911.256 747.527 916.894 753.087 915.117C754.208 914.759 754.711 914.344 755.044 913.197C755.365 912.09 755.115 910.828 754.264 910.031C751.595 907.536 743.195 908.033 739.626 907.875C744.499 902.016 748.078 895.096 753.269 889.49C755.013 889.488 756.762 889.488 758.504 889.396C775.614 888.494 790.82 879.41 801.937 866.784Z"/>
	<path fill="#9F8BE8" d="M160.456 792.544C159.692 800.157 140.823 823.118 137.359 831.828C136.781 833.28 136.943 835.089 136.986 836.624C120.851 832.715 104.684 830.004 88.8797 824.709C84.1121 823.07 79.3514 821.459 74.7011 819.503C103.3 811.125 132.767 803.599 160.456 792.544Z"/>
	<path fill="#FEFEFD" d="M698.955 958.481L699.514 958.693C700.159 959.999 700.427 960.362 700.218 961.836C699.91 964.001 698.487 965.229 696.751 966.355C691.287 969.901 679.298 971.379 672.708 972.539C634.486 979.268 590.817 983.151 552.605 974.586C552.225 974.349 551.754 973.787 551.429 973.467C551.08 971.964 551.055 971.025 551.251 969.494C551.729 968.853 551.743 968.429 552.609 968.387C555.497 968.243 558.992 969.524 561.936 969.913C566.402 970.503 571.013 970.681 575.511 970.964C608.359 973.033 669.068 971.197 698.955 958.481Z"/>
	<path fill="#FEFEFD" d="M820.235 886.847C822.181 888.238 823.489 890.207 824.93 892.088C824.758 892.364 824.59 892.641 824.414 892.914C810.179 915.035 765.529 941.643 741.224 951.213C731.054 955.217 720.777 957.789 710.111 960.015L708.764 959.982C707.254 958.617 706.683 956.122 705.997 954.238C743.183 945.071 775.102 929.433 803.928 903.92C809.75 898.767 814.126 892.333 819.833 887.2C819.966 887.081 820.101 886.965 820.235 886.847Z"/>
	<path fill="#9F8BE8" d="M712.202 542.041L712.756 542.218C713.75 545.95 713.028 551.107 712.966 555.008C684.14 563.583 652.539 563.032 623.108 558.119C622.086 557.822 621.982 557.756 621.28 556.956C621.025 554.289 621.953 551.669 622.615 549.103Q625.413 549.569 628.224 549.949Q631.035 550.329 633.856 550.624Q636.677 550.918 639.506 551.127Q642.334 551.335 645.168 551.457Q648.002 551.58 650.838 551.616Q653.675 551.651 656.511 551.601Q659.347 551.551 662.18 551.414Q665.013 551.277 667.841 551.054Q670.668 550.831 673.488 550.523Q676.307 550.214 679.116 549.819Q681.925 549.425 684.721 548.945Q687.516 548.465 690.296 547.9Q693.076 547.335 695.837 546.686Q698.598 546.037 701.338 545.304Q704.078 544.571 706.795 543.755Q709.511 542.939 712.202 542.041Z"/>
	<path fill="#9F8BE8" d="M321.17 785.269C329.265 792.787 341.954 815.659 345.874 826.261L345.712 826.992C344.979 827.345 344.25 827.722 343.497 828.031L335.563 830.921C333.407 821.162 331.146 811.468 327.746 802.053C325.725 796.459 322.874 790.927 321.17 785.269Z"/>
	<path fill="#9F8BE8" d="M364.373 809.487C369.932 810.861 375.774 811.818 381.441 812.628C380.91 813.619 378.715 814.214 377.622 814.674L367.947 818.361C366.85 815.367 365.593 812.433 364.373 809.487Z"/>
	<path fill="#190A92" d="M917.501 0L926.457 0L953.106 0L960.434 0L1024 0L1024 130.173L1024 137.777L1024 169.58L1024 176.145Q1018.32 176.371 1012.63 176.396Q1006.94 176.421 1001.26 176.246Q995.57 176.071 989.894 175.695Q984.218 175.319 978.56 174.743Q972.901 174.167 967.266 173.392Q961.631 172.617 956.026 171.644Q950.422 170.671 944.856 169.5Q939.29 168.33 933.768 166.964C929.127 165.832 923.269 165.321 919.38 162.497C917.582 157.77 918.493 102.216 918.415 91.2504L917.501 0Z"/>
	<path fill="#9F8BE8" d="M960.434 0L1024 0L1024 130.173C1002.81 129.98 982.124 127.704 961.092 125.322C960.642 108.183 960.995 90.954 960.982 73.806Q961.039 36.9005 960.434 0Z"/>
	<path fill="#D7B56A" d="M926.457 0L953.106 0L953.537 87.6497C953.592 101.369 954.023 115.128 953.789 128.842C945.99 137.711 935.827 144.838 927.459 153.258Q927.862 113.502 927.12 73.7499Q927.048 36.8726 926.457 0Z"/>
	<path fill="#D7B56A" d="M960.441 132.841C981.304 135.751 1002.93 138.09 1024 137.777L1024 169.58C1000.72 169.45 978.531 168.139 955.609 163.894C948.046 162.494 940.525 161.071 933.195 158.699C942.432 150.214 951.554 141.692 960.441 132.841Z"/>
	<path fill="#190A92" d="M781.497 220.946C784.116 219.44 787.242 220.246 790.023 220.994C807.572 225.718 822.179 240.59 830.879 256.071C837.112 267.163 842.381 280.469 842.933 293.315C843.195 299.435 842.495 305.551 841.34 311.553C839.556 320.825 835.612 330.273 843.217 337.986C845.714 340.518 848.685 342.301 852.012 343.494C853.731 344.11 855.744 344.119 855.43 346.312C853.289 348.234 849.569 348.631 846.784 348.575C846.588 348.571 846.393 348.55 846.198 348.537C843.678 347.666 841.15 346.645 838.985 345.065C825.781 335.434 832.593 316.702 834.23 303.654C834.944 297.965 834.871 292.405 833.907 286.75C829.602 261.465 816.606 243.672 795.805 229.233C791.53 226.265 786.363 224.527 782.241 221.504C781.991 221.321 781.745 221.132 781.497 220.946Z"/>
	<path fill="#F0B78C" d="M100.512 348.008Q88.1073 347.954 75.7042 348.158C70.1382 348.272 64.3278 348.805 58.7934 348.305C57.3588 348.176 53.927 347.878 53.1069 346.617C52.4095 345.545 52.4452 344.122 52.7392 342.923C53.2619 340.792 66.3618 327.948 68.9955 324.884C82.5377 309.128 94.6335 291.684 105.534 274.012Q118.369 253.079 129.219 231.052C131.982 225.549 134.036 219.265 137.105 214.016C137.873 212.703 138.926 211.343 140.373 210.738C141.474 210.277 142.68 210.3 143.787 210.706C145.051 211.169 145.674 212.094 146.239 213.241C149.983 220.826 154.456 228.177 158.687 235.507C174.527 262.952 191.459 287.237 211.681 311.623C217.231 318.316 223.43 324.562 229.449 330.833C232.31 333.813 235.785 336.801 238.02 340.273C238.772 341.44 239.542 342.815 239.548 344.237C239.552 345.007 239.073 345.467 238.545 345.984C234.057 350.376 199.728 348.155 191.914 348.076L192.121 540.474C192.09 553.793 191.938 567.124 192.065 580.442C192.115 585.661 193.406 592.688 192.38 597.667C191.921 599.896 190.061 600.937 188.348 602.209C186.135 608.08 184.721 614.163 182.304 619.973C169.821 649.968 150.624 667.95 126.104 687.917C121.231 691.884 109.2 702.844 104.731 705.352C104.352 706.411 103.874 708.083 103.103 708.913C102.108 709.985 100.418 710.648 98.9777 710.786C97.7102 710.907 96.5727 710.54 95.6566 709.632C92.2088 706.216 95.836 695.861 96.5652 691.678C97.0839 688.703 97.4015 685.685 97.7294 682.684C102.379 640.116 100.854 591.389 100.804 548.296L100.512 348.008Z"/>
	<path fill="#190A92" d="M100.512 348.008Q88.1073 347.954 75.7042 348.158C70.1382 348.272 64.3278 348.805 58.7934 348.305C57.3588 348.176 53.927 347.878 53.1069 346.617C52.4095 345.545 52.4452 344.122 52.7392 342.923C53.2619 340.792 66.3618 327.948 68.9955 324.884C82.5377 309.128 94.6335 291.684 105.534 274.012Q118.369 253.079 129.219 231.052C131.982 225.549 134.036 219.265 137.105 214.016C137.873 212.703 138.926 211.343 140.373 210.738C141.474 210.277 142.68 210.3 143.787 210.706C145.051 211.169 145.674 212.094 146.239 213.241C149.983 220.826 154.456 228.177 158.687 235.507C174.527 262.952 191.459 287.237 211.681 311.623C217.231 318.316 223.43 324.562 229.449 330.833C232.31 333.813 235.785 336.801 238.02 340.273C238.772 341.44 239.542 342.815 239.548 344.237C239.552 345.007 239.073 345.467 238.545 345.984C234.057 350.376 199.728 348.155 191.914 348.076L192.121 540.474C192.09 553.793 191.938 567.124 192.065 580.442C192.115 585.661 193.406 592.688 192.38 597.667C191.921 599.896 190.061 600.937 188.348 602.209C186.114 601.96 184.471 601.852 182.927 600.029C182.202 599.173 181.846 597.929 181.66 596.848C181.075 593.445 181.651 589.673 181.686 586.224C181.753 579.632 181.667 573.032 181.654 566.439L181.992 469.462L181.97 373.387C181.961 366.508 180.752 347.34 181.903 342.466C182.203 341.195 182.637 340.573 183.784 339.947C189.004 337.099 215.23 338.627 222.716 338.523C212.679 327.217 202.378 316.106 192.949 304.281C173.745 280.199 157.511 254.524 142.259 227.827C138.675 234.384 135.673 241.228 132.17 247.826C123.371 264.397 113.545 281.248 102.945 296.695C97.1741 305.104 91.0907 313.754 84.5577 321.58C79.6039 327.515 74.1724 333.071 69.2784 339.044Q80.33 339.146 91.3788 338.875C95.7163 338.79 100.497 338.201 104.768 338.88C106.72 339.191 108.302 339.632 109.795 340.949C111.508 349.013 110.603 358.703 110.624 366.943L110.751 413.086L110.872 562.648Q110.963 590.085 110.632 617.521C110.424 646.958 109.921 676.295 104.731 705.352C104.352 706.411 103.874 708.083 103.103 708.913C102.108 709.985 100.418 710.648 98.9777 710.786C97.7102 710.907 96.5727 710.54 95.6566 709.632C92.2088 706.216 95.836 695.861 96.5652 691.678C97.0839 688.703 97.4015 685.685 97.7294 682.684C102.379 640.116 100.854 591.389 100.804 548.296L100.512 348.008Z"/>
	<path fill="#F0B78C" d="M334.48 182.083L306.793 182.085C301.248 182.101 295.072 182.663 289.64 181.644C287.807 181.299 286.163 180.853 285.051 179.266C284.846 177.787 284.656 176.563 285.328 175.154C286.923 171.811 295.777 164.361 298.937 160.775C308.797 149.587 318.632 138.164 327.371 126.069Q343.413 104.064 356.505 80.186C358.863 75.8072 361.241 71.4124 363.364 66.9137C365.64 62.0902 367.667 55.5294 370.994 51.4315C371.819 50.4159 372.661 50.1464 373.928 50.0252C375.484 49.8764 377.126 50.5532 378.278 51.5718C381.754 54.647 384.454 61.9357 386.855 66.0642Q393.414 77.5423 400.6 88.6383Q414.467 109.737 430.645 129.12C440.33 140.724 451.002 151.55 461.76 162.156C465.729 166.069 470.255 169.658 473.984 173.753C474.826 174.678 475.751 175.868 475.774 177.159C475.798 178.488 475.333 179.736 474.278 180.604C470.9 183.386 433.11 182.067 425.565 182.09C425.443 203.199 426.358 356.889 424.896 359.72C423.858 361.729 421.007 362.323 419.023 362.975C418.952 363.159 418.868 363.338 418.808 363.526C418.063 365.857 418.082 368.809 417.653 371.255C416.483 377.929 415.152 384.866 413.041 391.309Q412.002 394.543 410.839 397.734Q409.677 400.925 408.392 404.07Q407.108 407.214 405.704 410.307Q404.3 413.4 402.778 416.436Q401.255 419.472 399.618 422.448Q397.98 425.424 396.229 428.334Q394.479 431.245 392.617 434.086Q390.756 436.927 388.787 439.695Q386.818 442.462 384.744 445.152Q382.67 447.842 380.494 450.45Q378.318 453.058 376.044 455.58Q373.769 458.103 371.399 460.536Q369.03 462.969 366.568 465.31Q364.107 467.65 361.557 469.894Q359.007 472.138 356.373 474.283Q353.739 476.427 351.025 478.469C347.45 481.177 343.617 484.674 339.773 486.911C339.637 486.99 339.495 487.057 339.356 487.13C337.64 493.764 335.036 507.075 331.296 512.402C330.472 513.577 329.284 514.734 327.767 514.803C326.529 514.859 325.362 514.174 324.512 513.323C323.512 512.322 322.757 511.079 322.669 509.646C322.461 506.274 326.588 496.769 327.603 493.09Q329.197 487.095 330.397 481.008C332.851 468.599 333.169 455.37 333.613 442.752C334.485 418.007 334.25 393.164 334.301 368.402L334.48 182.083Z"/>
	<path fill="#190A92" d="M334.48 182.083L306.793 182.085C301.248 182.101 295.072 182.663 289.64 181.644C287.807 181.299 286.163 180.853 285.051 179.266C284.846 177.787 284.656 176.563 285.328 175.154C286.923 171.811 295.777 164.361 298.937 160.775C308.797 149.587 318.632 138.164 327.371 126.069Q343.413 104.064 356.505 80.186C358.863 75.8072 361.241 71.4124 363.364 66.9137C365.64 62.0902 367.667 55.5294 370.994 51.4315C371.819 50.4159 372.661 50.1464 373.928 50.0252C375.484 49.8764 377.126 50.5532 378.278 51.5718C381.754 54.647 384.454 61.9357 386.855 66.0642Q393.414 77.5423 400.6 88.6383Q414.467 109.737 430.645 129.12C440.33 140.724 451.002 151.55 461.76 162.156C465.729 166.069 470.255 169.658 473.984 173.753C474.826 174.678 475.751 175.868 475.774 177.159C475.798 178.488 475.333 179.736 474.278 180.604C470.9 183.386 433.11 182.067 425.565 182.09C425.443 203.199 426.358 356.889 424.896 359.72C423.858 361.729 421.007 362.323 419.023 362.975C416.85 361.059 415.844 359.5 415.651 356.555C414.894 344.973 415.595 332.921 415.618 321.279L415.895 245.327L415.812 198.668C415.784 190.872 414.978 182.2 416.135 174.544C419.907 171.353 451.106 172.196 457.715 172.359C452.572 166.691 446.82 161.647 441.572 156.084Q423.288 136.655 407.24 115.341Q397.246 101.988 388.562 87.7487C384.14 80.5318 380.039 72.9176 375.269 65.9417C370.807 73.8638 366.802 82.0329 362.298 89.93Q348.803 113.363 332.81 135.168C323.218 148.211 312.371 160.012 302.168 172.526C309.963 172.511 337.977 171.254 343.267 173.755C345.573 179.133 344.561 421.462 343.693 445.108C343.174 459.252 341.878 473.199 339.356 487.13C337.64 493.764 335.036 507.075 331.296 512.402C330.472 513.577 329.284 514.734 327.767 514.803C326.529 514.859 325.362 514.174 324.512 513.323C323.512 512.322 322.757 511.079 322.669 509.646C322.461 506.274 326.588 496.769 327.603 493.09Q329.197 487.095 330.397 481.008C332.851 468.599 333.169 455.37 333.613 442.752C334.485 418.007 334.25 393.164 334.301 368.402L334.48 182.083Z"/>
</svg>
