<?xml version="1.0" encoding="utf-8" ?>
<svg xmlns="http://www.w3.org/2000/svg" xmlns:xlink="http://www.w3.org/1999/xlink" width="1024" height="1024">
	<path fill="#9F8BE8" d="M0 0L259.492 0L1024 0L1024 533.283L1024 1024L976.312 1024L0 1024L0 333.959L0 0Z"/>
	<path fill="#FEC86D" d="M259.492 0L1024 0L1024 533.283C1004.48 528.898 984.921 524.631 965.643 519.238Q948.73 514.458 932.043 508.944Q915.355 503.43 898.924 497.193Q882.493 490.955 866.35 484.006Q850.207 477.057 834.383 469.409C823.813 464.37 813.788 458.309 803.33 453.059C800.562 451.669 796.288 449.106 793.173 450.131C793.149 450.113 793.12 450.1 793.102 450.077C790.059 446.233 786.334 443.026 783.275 439.17C779.727 434.697 776.67 429.711 773.42 425.008C758.065 402.791 741.297 377.054 733.503 351.115C732.709 348.47 731.358 345.079 731.485 342.308C731.682 338.045 734.787 333.447 736.394 329.565C738.384 324.753 740.103 319.196 740.592 313.995C741.103 308.56 739.801 302.9 737.998 297.808C734.857 288.931 729.807 280.999 725.348 272.762C720.355 263.539 715.966 253.844 710.577 244.856C706.326 237.766 700.87 230.596 695.615 224.208C695.735 220.63 695.68 217.043 695.668 213.463C696.615 214.595 697.574 215.716 698.608 216.769C703.497 221.752 708.101 222.965 714.854 222.973C720.39 220.097 723.505 213.625 729.109 211.565C735.086 209.367 733.641 205.122 737.956 202.456C742.216 199.825 747.856 199.982 751.936 196.768C753.578 195.475 754.829 193.625 754.865 191.474C754.912 188.725 752.681 186.509 750.999 184.596C750.505 181.902 750.155 179.186 749.78 176.473C752.766 172.574 754.665 167.338 757.981 163.885C760.217 161.556 763.272 159.789 765.842 157.829C770.124 154.564 773.075 150.419 773.661 144.948C774.715 135.087 767.034 126.466 761.287 119.245C748.15 102.736 725.41 80.506 703.636 78.1379C691.906 76.8621 682.811 80.2162 673.767 87.5377C635.28 92.857 640.104 121.058 637.858 122.317C635.973 123.374 632.472 123.879 630.322 124.531C621.216 127.293 613.801 131.177 607.104 138.004C595.722 149.605 588.97 164.728 597.83 180.117C599.456 182.942 603.268 187.312 603.295 190.628Q602.976 191.313 602.673 192.006C600.686 196.603 601.806 202.872 603.718 207.344C607.252 215.611 613.855 221.153 622.029 224.5C609.375 242.535 604.984 261.084 601.476 282.475C600.791 286.653 601.566 291.533 600.384 295.531C599.003 300.203 596.359 304.345 594.169 308.663L584.054 328.879C576.248 324.657 569.006 318.383 562.072 312.864L533.458 289.847Q500.013 262.695 468.193 233.656Q436.373 204.618 406.284 173.789C352.895 119.705 302.914 62.4681 259.492 0Z"/>
	<path fill="#020201" d="M673.767 87.5377C682.811 80.2162 691.906 76.8621 703.636 78.1379C725.41 80.506 748.15 102.736 761.287 119.245C767.034 126.466 774.715 135.087 773.661 144.948C773.075 150.419 770.124 154.564 765.842 157.829C763.272 159.789 760.217 161.556 757.981 163.885C754.665 167.338 752.766 172.574 749.78 176.473C750.155 179.186 750.505 181.902 750.999 184.596C752.681 186.509 754.912 188.725 754.865 191.474C754.829 193.625 753.578 195.475 751.936 196.768C747.856 199.982 742.216 199.825 737.956 202.456C733.641 205.122 735.086 209.367 729.109 211.565C723.505 213.625 720.39 220.097 714.854 222.973C708.101 222.965 703.497 221.752 698.608 216.769C697.574 215.716 696.615 214.595 695.668 213.463C695.68 217.043 695.735 220.63 695.615 224.208C700.87 230.596 706.326 237.766 710.577 244.856C715.966 253.844 720.355 263.539 725.348 272.762C729.807 280.999 734.857 288.931 737.998 297.808C739.801 302.9 741.103 308.56 740.592 313.995C740.103 319.196 738.384 324.753 736.394 329.565C734.787 333.447 731.682 338.045 731.485 342.308C731.358 345.079 732.709 348.47 733.503 351.115C741.297 377.054 758.065 402.791 773.42 425.008C776.67 429.711 779.727 434.697 783.275 439.17C786.334 443.026 790.059 446.233 793.102 450.077C793.12 450.1 793.149 450.113 793.173 450.131C799.324 454.865 805.738 461.655 807.586 469.424C806.621 472.35 805.49 474.819 803.783 477.409L804.147 478.008C816.299 497.776 835.399 512.073 836.893 536.94C837.186 541.824 837.187 546.74 836.103 551.534C834.889 556.902 832.716 561.171 827.921 564.108C824.429 566.246 806.969 575.696 803.301 574.797C800.02 573.993 794.828 571.356 793.098 568.298C789.532 561.995 796.568 553.521 795.809 546.768C794.397 534.197 786.477 520.696 781.353 509.272C779.985 506.223 778.3 500.27 776.059 497.959C775.834 497.726 774.724 497.367 774.565 497.325C772.799 496.868 770.387 497.034 768.542 496.968C768.362 496.835 768.18 496.703 768.001 496.568C761.907 491.965 760.872 485.961 756.665 480.201C754.574 477.339 751.518 474.995 748.975 472.542C746.086 469.754 743.379 466.747 740.643 463.81C737.648 460.595 733.746 454.971 730.37 452.633C729.572 452.891 729.622 452.691 729.284 453.393C726.838 458.479 731.635 470.675 733.352 475.852Q745.089 510.202 759.028 543.719C767.747 565.218 776.772 586.832 783.152 609.162C790.022 633.207 793.763 657.638 798.47 682.134Q808.884 736.878 821.099 791.249C826.123 792.772 827.746 794.736 830.256 799.366C832.935 804.309 838.142 814.841 836.441 820.495C835.648 823.131 832.182 824.778 829.958 826.031C835.216 840.337 837.689 852.29 851.481 860.966C869.604 858.148 887.816 856.079 905.983 853.59C918.466 851.879 931.528 849.269 944.113 848.914C948.642 851.306 958.481 857.431 959.912 862.685C960.421 864.554 960.095 866.097 959.121 867.715C956.138 872.671 948.676 877.514 944.207 881.192C935.071 888.711 926.02 896.305 915.99 902.629C895.262 915.699 870.597 924.212 847.424 931.822C838.259 934.832 828.867 938.691 819.472 940.745C816.79 941.331 812.843 942.109 810.342 940.621C803.671 936.653 798.388 897.151 797.277 888.411C797.11 887.098 797.352 886.329 797.68 885.105C797.788 884.703 797.856 884.291 797.944 883.884L798.147 882.98C794.275 870.85 787.345 859.798 782.946 847.816C780.438 849.276 778.216 850.675 775.219 849.757C771.176 848.518 768.78 842.24 767.125 838.744C765.486 835.281 760.428 825.015 761.697 821.67C761.837 821.301 762.006 820.945 762.164 820.585C762.738 819.274 762.746 818.342 762.151 817.017C759.769 811.716 756.034 806.472 753.1 801.424C744.462 786.558 734.822 771.247 727.883 755.548C723.04 744.591 718.549 732.806 715.76 721.14C713.2 710.433 711.728 699.022 708.046 688.65C705.436 681.298 701.08 674.505 697.433 667.621C691.16 655.782 684.842 643.841 679.056 631.756C675.671 642.88 669.548 653.874 663.864 664.003C641.517 703.824 613.241 739.624 585.217 775.513L569.249 795.76C565.42 800.682 561.855 805.968 557.562 810.496C559.638 812.611 561.676 814.571 561.638 817.758C561.587 822.122 552.304 835.314 548.917 838.218C547.599 839.348 546.513 839.703 544.794 839.53C540.808 839.13 536.541 836.946 532.641 835.844C530.512 838.98 529.344 842.541 527.976 846.05C526.488 850.36 523.33 854.469 522.543 858.975C522.26 860.597 522.401 862.254 523.143 863.737C526.123 869.695 547.944 895.977 553.746 899.766C566.413 908.04 581.574 906.129 591.398 919.865C595.33 925.363 597.454 934.377 596.043 941.149C595.698 942.804 594.636 944.605 593.128 945.442C591.487 946.352 589.302 946.539 587.466 946.66C578.957 947.222 570.285 946.557 561.756 946.592C553.771 946.624 545.746 947.395 537.774 946.728Q533.122 946.356 528.544 945.444Q523.967 944.532 519.527 943.093C511.988 940.659 505.17 936.938 498.571 932.602C491.745 928.118 440.843 888.219 439.631 884.993C438.58 882.195 440.088 878.819 441.411 876.391C445.586 868.727 460.644 846.527 469.081 844.426C471.478 843.828 472.947 844.653 474.947 845.877L475.493 846.218C478.599 839.519 482.141 833.043 485.625 826.535C488.243 822.09 490.051 817.045 492.279 812.376C489.871 811.104 485.994 810.276 484.914 807.489C484.849 807.321 484.666 806.494 484.722 806.234C485.449 802.828 490.579 795.297 492.325 791.78C494.967 786.461 497.078 780.875 500.009 775.705C502.254 775.293 505.195 779.209 507.235 780.369C507.38 780.451 507.526 780.53 507.672 780.61C516.96 744.258 528.923 709.482 548.615 677.302C551.866 671.99 555.587 666.696 559.423 661.791C563.193 656.97 568.343 651.866 570.886 646.276C573.82 639.825 574.694 631.398 576.144 624.443Q578.789 611.437 582.372 598.658C585.543 587.582 588.461 576.057 592.235 565.182C594.335 559.132 598.502 553.083 599.539 546.796C600.436 541.359 599.711 501.046 597.368 497.699C596.411 496.332 589.329 493.168 587.42 492.053C576.884 485.895 567.177 473.059 563.286 461.536C561.245 455.49 559.948 448.845 559.599 442.473C557.95 412.344 570.521 355.883 584.054 328.879L594.169 308.663C596.359 304.345 599.003 300.203 600.384 295.531C601.566 291.533 600.791 286.653 601.476 282.475C604.984 261.084 609.375 242.535 622.029 224.5C613.855 221.153 607.252 215.611 603.718 207.344C601.806 202.872 600.686 196.603 602.673 192.006Q602.976 191.313 603.295 190.628C603.268 187.312 599.456 182.942 597.83 180.117C588.97 164.728 595.722 149.605 607.104 138.004C613.801 131.177 621.216 127.293 630.322 124.531C632.472 123.879 635.973 123.374 637.858 122.317C640.104 121.058 635.28 92.857 673.767 87.5377Z"/>
	<path fill="#9F8BE8" d="M691.87 397.632L692.929 397.649C696.97 402.795 699.895 411.083 703.269 417.011C709.199 427.431 716.472 436.726 723.966 446.048C721.953 453.89 718.593 461.543 716.104 469.282Q709.467 490.348 704.053 511.761C695.727 544.06 690.37 577.378 680.031 609.123C670.531 638.294 656.057 665.085 639.279 690.668C620.646 719.08 599.447 745.821 578.471 772.516C569.507 783.925 560.203 795.12 551.649 806.845C543.949 802.657 519.947 789.642 515.147 784.526C514.369 779.296 520.87 759.106 522.731 753.123C530.774 724.034 554.819 671.34 577.725 651.805C581.603 648.498 587.391 646.86 591.821 644.313C603.669 637.499 627.835 620.813 633.924 608.438C634.591 607.081 635.035 605.822 634.486 604.338C633.663 603.768 633.438 603.704 632.455 603.708C627.772 603.731 624.563 608.997 621.722 611.99C617.248 616.705 612.195 621.247 607.132 625.32C603.256 628.438 583.911 641.756 579.956 641.891L579.685 641.248C580.364 629.959 597.007 568.733 602.401 558.668C605.192 553.458 609.672 549.239 613.79 545.074C633.524 525.112 656.903 500.383 666.285 473.504C674.074 451.191 674.626 424.057 674.494 400.592C680.184 399.262 686.115 398.706 691.87 397.632Z"/>
	<path fill="#9F8BE8" d="M723.398 469.71C724.914 471.735 737.413 508.994 739.675 515.07C751.843 547.746 767.557 579.233 776.714 612.986C778.71 620.341 780.835 627.844 782.382 635.306C784.934 647.621 786.733 660.146 789.117 672.505C797.078 713.765 804.472 755.121 815.247 795.763C802.086 802.879 787.683 808.306 774.038 814.486C772.754 815.102 771.609 815.523 770.234 815.893C765.947 811.149 758.068 795.723 754.466 789.479C741.422 766.863 730.28 747.136 723.266 721.718C719.417 707.767 717.563 692.913 712.437 679.363C710.976 675.501 707.901 672.004 705.977 668.311Q694.085 645.884 682.829 623.131C692.809 596.076 698.242 567.547 704.655 539.523Q709.702 518.436 715.499 497.543C717.996 488.238 720.24 478.819 723.398 469.71Z"/>
	<path fill="#FEFEFE" d="M683.475 233.576C685.195 233.911 687.117 233.855 688.874 233.952C692.998 236.623 696.502 240.18 698.709 244.598C704.037 255.261 706.013 268.46 708.719 280.042C712.884 297.868 717.923 315.455 722.354 333.208C725.29 344.972 726.882 356.131 731.594 367.468C743.575 396.288 764.834 427.323 783.749 452.236C775.533 458.701 769.503 467.689 761.122 473.781C753.013 467.016 746.187 459.348 739.19 451.491C727.054 437.86 715.616 423.89 706.82 407.802C701.209 397.539 696.575 386.398 691.92 375.674C684.097 357.202 675.829 338.918 668.843 320.108C665.59 311.348 662.364 302.491 659.572 293.573C658.071 288.778 657.06 283.413 655.207 278.785C654.874 277.953 654.398 277.406 653.798 276.756C652.641 276.35 652.11 276.206 650.904 276.79C650.157 277.152 649.618 277.93 649.336 278.686C646.855 285.341 665.195 331.093 668.436 340.632C664.163 345.591 660.62 351.093 656.56 356.218C649.473 365.165 640.754 373.207 631.52 379.917C622.812 357.519 626.817 331.715 617.129 309.569C617.35 309.119 617.577 308.671 617.816 308.231C628.928 287.737 650.764 252.744 669.653 239.68C674.003 236.671 678.426 235.023 683.475 233.576Z"/>
	<path fill="#9F8BE8" d="M666.879 401.6L667.153 401.767C669.235 404.804 665.218 444.282 664.223 450.879C659.555 481.847 643.037 502.6 622.757 525.106C617.928 530.466 612.922 536.983 607.138 541.279L606.362 540.952Q606.973 528.136 606.205 515.329C605.309 502.305 603.574 489.271 603.994 476.178C604.669 455.132 612.439 434.129 618.398 414.171C621.537 413.307 624.733 412.444 627.74 411.182C632.034 409.379 636.175 407.03 640.696 405.84C648.953 403.665 657.939 403.644 666.34 401.727L666.879 401.6Z"/>
	<path fill="#FD7267" d="M595.962 347.753C596.559 348.474 595.718 363.785 595.815 366.494C596.818 394.335 598.579 422.352 598.432 450.209C598.365 463.039 596.391 475.293 596.56 488.598C591.156 485.668 587.143 482.944 582.832 478.561C578.859 474.278 574.883 470.09 572.211 464.839C568.152 456.862 566.852 447.431 566.725 438.577C566.403 416.088 575.525 370.129 582.707 348.486C587.194 348.52 591.499 348.237 595.962 347.753Z"/>
	<path fill="#FEFEFE" d="M940.543 856.271L940.437 857.014C935.91 863.489 929.96 867.198 923.669 871.753C916.979 876.598 910.372 881.694 903.171 885.769C889.197 893.675 873.536 899.138 858.504 904.633C842.51 910.48 826.579 916.24 810.725 922.438C806.764 917.639 805.853 899.321 804.067 892.475L803.83 891.588C811.222 892.672 816.053 892.362 823.221 890.216C832.702 887.388 839.496 880.991 846.16 873.993C847.935 872.129 850.002 869.381 852.416 868.415C858.181 866.105 865.947 866.178 872.191 865.169C869.84 868.459 863.395 877.828 863.251 881.501C863.194 882.967 863.421 883.137 864.336 884.174C865.249 884.428 866.065 884.681 867.028 884.511C868.295 884.286 869.153 883.527 869.942 882.577C872.384 879.634 873.934 875.726 875.874 872.426C877.645 869.413 879.68 866.517 881.53 863.543C883.702 863.535 885.878 863.42 888.049 863.343C886.195 865.886 884.827 868.805 883.467 871.632C882.397 873.856 880.802 877.759 882.083 880.159C882.733 881.377 883.36 881.575 884.555 882.015C889.149 880.904 890.608 872.632 892.25 868.692C893.137 866.564 894.404 864.592 895.607 862.631C910.253 860.019 925.709 857.1 940.543 856.271Z"/>
	<path fill="#9F8BE8" d="M754.862 133.484C755.107 133.848 755.253 134.014 755.372 134.487C758.158 145.523 752.201 157.414 747.63 167.036C744.642 164.286 740.097 162.21 736.087 161.55C734.466 161.283 733.438 161.35 732.045 162.328C730.818 165.237 733.716 166.556 734.657 169.201C734.128 170.179 733.226 171.317 732.889 172.353C732.623 173.17 732.491 173.693 732.941 174.422C733.837 175.872 734.82 176.8 736.496 177.228C740.189 176.853 740.249 173.794 742.947 172.086C745.606 178.444 740.705 181.3 747.738 191.805L747.313 191.97C747.077 192.06 746.838 192.145 746.603 192.238C742.857 193.722 739.311 194.207 735.304 194.272L734.582 194.279C732.256 196.123 729.224 202.596 727.355 205.371C726.676 204.882 725.989 204.408 725.302 203.93C723.767 202.861 721.918 201.981 719.988 202.368C719.258 202.514 719.223 202.978 718.879 203.565C718.973 205.427 719.954 206.531 721.01 208.007C718.582 210.631 715.298 215.871 711.534 216.013C702.429 216.355 696.07 198.539 691.055 194.107C690.195 193.347 689.457 193.152 688.293 193.417C687.065 193.697 686.733 194.321 686.124 195.288C685.891 198.339 688.461 202.565 689.651 205.415C688.946 208.704 689.423 214.44 687.926 217.214L687.027 216.61C679.679 210.859 672.548 204.858 664.075 200.819C669.436 197.962 676.439 193.382 679.318 187.841C680.86 184.873 681.959 181.616 683.962 178.913C684.106 178.718 684.261 178.532 684.406 178.338C685.539 176.828 686.215 176.327 688.009 175.623C689.825 174.912 690.808 174.561 691.698 172.718C692.404 171.257 692.747 169.587 692.22 168.063C690.142 167.739 687.698 169.261 685.508 169.612C684.875 169.434 684.487 169.227 684.02 168.756C681.585 166.308 680.653 163.069 680.799 159.669C680.982 155.412 682.751 150.661 686.012 147.805C687.56 146.448 689.709 145.352 691.828 145.66C693.876 145.958 694.988 147.311 696.187 148.826C695.96 149.988 695.468 150.962 695.061 152.063C694.329 154.04 694.961 155.172 695.785 156.978L696.066 157.578L695.613 157.797C695.371 157.917 695.134 158.045 694.89 158.16C693.035 159.037 691.996 159.752 690.923 161.584C690.186 162.842 690.068 163.367 690.383 164.776C690.985 165.338 691.477 165.723 692.294 165.966C695.172 166.822 698.887 164.205 701.485 163.078C702.166 163.196 702.855 163.287 703.535 163.411C704.316 163.553 704.893 163.721 705.684 163.594C710.524 162.814 715.941 160.562 720.578 158.834C737.705 152.452 744.481 148.587 754.862 133.484Z"/>
	<path fill="#FEFEFE" d="M470.634 851.366C476.28 851.836 492.422 868.225 497.656 872.528C505.664 872.976 513.55 871.225 521.502 872.694C523.493 876.135 525.726 878.776 528.171 881.887C527.433 883.624 513.882 885.582 510.821 888.363C509.764 889.323 509.689 889.946 509.551 891.319C509.91 892.044 509.995 892.581 510.74 892.995C514.37 895.009 526.633 889.606 530.748 888.385C534.332 890.156 537.175 892.375 540.275 894.884C534.979 896.348 527.808 898.494 523.75 902.37C522.783 903.294 522.333 904.097 522.263 905.452C522.837 906.916 523.349 907.271 524.587 908.135C526.387 908.351 541.104 902.309 544.871 901.197C552.233 908.069 558.757 910.384 568.302 912.95C573.212 914.366 578.867 916.303 582.586 919.968C584.317 921.673 586.41 924.452 586.372 926.98L585.647 927.595C583.359 927.651 581.113 927.182 578.799 927.216C561.835 927.464 544.186 928.347 528.162 922.009C521.904 919.533 515.917 916.177 510.31 912.469C499.617 905.4 489.84 896.974 479.701 889.153C472.233 883.391 464.07 878.035 457.089 871.714C455.993 870.721 455.104 869.898 454.504 868.517C455.837 863.788 466.39 854.372 470.634 851.366Z"/>
	<path fill="#9F8BE8" d="M823.347 830.022C824.538 832.189 825.237 834.891 826.138 837.223C830.386 848.211 833.873 858.392 844.141 865.152C842.408 867.321 840.521 869.417 838.612 871.432C830.686 879.799 822.324 884.64 810.63 884.986L805.529 883.65C802.965 872.622 794.611 855.472 788.836 845.354C798.799 841.847 813.741 834.843 823.347 830.022Z"/>
	<path fill="#9F8BE8" d="M795.989 480.783C796.574 481.044 797.168 481.406 797.622 481.866C800.683 484.97 803.372 489.633 806.038 493.171C814.353 504.206 827.726 518.322 828.306 532.833C828.355 534.074 828.339 535.548 827.48 536.49C827.041 536.182 826.606 535.864 826.147 535.585C824.778 534.754 823.72 534.637 822.193 535.007C820.93 535.857 820.501 536.535 819.83 537.902C819.756 538.052 819.686 538.203 819.615 538.354C818.567 538.994 815.863 537.901 814.344 537.907C810.333 539.873 808.849 551.303 807.185 555.657C805.779 558.601 803.827 564.345 800.768 565.835C799.464 564.929 803.1 547.728 802.32 543.786C798.757 525.768 789.455 510.748 782.94 493.862C787.207 489.485 791.246 484.64 795.989 480.783Z"/>
	<path fill="#9F8BE8" d="M498.464 816.278Q506.749 822.082 515.538 827.09C519.177 829.148 522.968 830.884 526.467 833.183C522.296 841.598 518.213 849.842 515.117 858.729L517.257 865.459L511.625 865.558C507.526 865.583 503.422 865.504 499.322 865.467C492.874 860.419 487.52 854.178 481.155 849.038C488.587 839.401 492.768 826.996 498.464 816.278Z"/>
	<path fill="#FEFEFE" d="M450.781 875.246C453.876 876.638 461.623 883.99 464.69 886.426C471.023 891.455 477.6 896.177 483.994 901.128C498.997 912.746 513.172 924.954 531.781 930.383C544.515 934.097 560.259 933.8 573.552 933.803C577.799 933.804 583.611 932.99 587.712 933.959C588.21 934.077 588.334 934.183 588.721 934.417C588.982 936.109 589.539 938.402 588.506 939.826L586.881 939.764Q572.646 939.588 558.411 939.666C550.385 939.749 542.213 940.217 534.239 939.114C525.606 937.919 517.632 935.51 509.923 931.436Q504.586 928.659 499.723 925.117C489.752 917.935 480.389 909.787 470.75 902.161C463.374 896.326 451.709 889.129 446.218 881.933C447.585 879.486 448.959 877.383 450.781 875.246Z"/>
	<path fill="#9F8BE8" d="M503.217 785.745C511.787 792.231 545.287 813.144 554.489 816.031C552.513 822.278 548.799 827.653 545.138 833.03C526.669 827.271 509.874 815.736 493.64 805.47C496.342 798.742 500.329 792.445 503.217 785.745Z"/>
	<path fill="#FD7267" d="M678.191 220.706L678.671 220.747C680.825 222.352 683.323 223.403 685.307 225.208L685.288 226.113C682.54 227.862 678.548 227.538 675.446 228.384C670.153 229.829 664.849 233.843 660.768 237.384C646.254 249.974 635.997 265.974 625.804 282.039C622.12 287.845 618.237 293.634 614.87 299.628C610.047 308.213 600.656 331.718 595.49 337.552C594.883 338.237 594.063 338.734 593.262 339.155C591.464 340.191 588.964 340.447 586.929 340.164L586.635 339.497C590.323 332.46 593.52 325.203 597.045 318.088C608.685 294.595 622.771 267.618 639.269 247.284C648.601 235.783 662.719 222.33 678.191 220.706Z"/>
	<path fill="#9F8BE8" d="M820.3 801.006C821.297 800.78 821.683 801.027 822.647 801.299C826.077 804.366 828.17 813.041 829.806 817.419C821.449 823.408 810.07 827.544 800.729 831.822C793.37 835.192 786.18 838.945 778.683 842.007L777.529 842.256C775.268 840.932 770.183 826.935 769.111 823.896C782.634 820.15 807.907 808.328 820.3 801.006Z"/>
	<path fill="#FEFEFE" d="M948.345 859.77C950.123 861.074 951.391 863.012 952.733 864.743C935.424 879.426 918.155 894.01 897.789 904.36C885.516 910.597 872.034 915.358 859.05 919.928C844.633 925.002 829.739 929.357 815.658 935.265L815.094 935.329C813.502 934.417 812.693 930.336 812.03 928.513C822.014 925.831 831.986 921.804 841.785 918.426C861.135 911.755 881.831 905.41 899.945 895.834C909.694 890.681 918.511 884.459 927.45 878.046C935.024 872.613 942.616 867.211 948.345 859.77Z"/>
	<path fill="#FEFEFE" d="M655.417 204.374C660.051 204.765 668.513 210.999 672.889 213.623C666.855 216.299 660.671 218.997 655.15 222.643C638.843 233.411 625.471 252.021 615.987 268.888L609.124 280.225C611.107 268.437 613.977 255.546 618.905 244.622C621.706 238.414 625.367 232.568 628.518 226.529C639.62 222.155 645.131 210.188 655.417 204.374Z"/>
	<path fill="#FD7267" d="M671.175 347.414C673.41 349.887 673.605 353.514 675.001 356.468C660.924 378.152 645.158 397.01 620.641 407.066L619.28 407.319C617.464 405.329 617.771 397.478 617.612 394.523C618.491 394.456 619.371 394.375 620.239 394.212C624.005 393.503 628.072 390.568 631.218 388.462C647.507 377.557 660.324 363.692 671.175 347.414Z"/>
	<path fill="#FEFEFE" d="M790.573 456.545C794.896 460.192 798.014 465.383 800.543 470.381C797.602 471.823 794.556 473.173 791.905 475.114C785.824 479.566 781.145 485.695 774.677 489.662C773.907 489.867 772.494 490.492 771.766 490.175C768.607 488.797 766.553 483.621 765.111 480.599C773.63 472.943 780.759 462.501 790.573 456.545Z"/>
	<path fill="#FEFEFE" d="M678.808 363.893C679.85 365.323 689.293 387.751 689.819 390.058L689.312 390.838C679.766 392.211 670.274 393.517 660.804 395.384C657.243 395.678 653.725 396.558 650.256 397.369C661.012 387.767 670.986 375.99 678.808 363.893Z"/>
	<path fill="#FEFEFE" d="M715.47 268.909C719.836 275.096 723.645 282.713 727.115 289.506C731.048 297.206 734.306 307.403 732.819 316.105C732.271 319.315 731.035 322.577 730.028 325.676C729.54 326.57 729.31 327.179 729.283 328.191C729.275 328.496 729.275 328.801 729.271 329.106L728.568 329.721C728.44 329.627 728.298 329.55 728.185 329.439C725.8 327.121 716.267 275.165 715.47 268.909Z"/>
	<path fill="#FEFEFE" d="M612.768 319.886C616.652 325.221 618.402 358.57 620.121 367.719C620.978 372.276 624.734 380.115 624.277 384.286C623.289 385.678 621.581 386.101 620.053 386.713L617.869 387.255C616.697 386.929 616.366 386.889 615.599 385.876C611.462 380.406 611.546 329.115 612.768 319.886Z"/>
	<path fill="#FD7267" d="M604.135 338.855C604.266 338.968 604.409 339.068 604.528 339.194C605.13 339.829 605.482 340.612 605.486 341.493C605.494 343.754 605.066 346.062 605.052 348.357C604.971 361.416 605.157 374.973 605.913 388.001C607.01 389.434 608.601 389.321 610.211 390.165C611.549 392.638 611.453 395.908 611.567 398.659C612.204 413.997 610.093 418.87 605.885 433.401C605.659 433.743 605.298 434.097 605.026 434.408C603.738 430.697 604.546 424.264 604.433 420.224C603.884 400.71 603.566 381.184 603.624 361.648C603.646 354.281 605.173 346.084 604.135 338.855Z"/>
	<path fill="#020201" d="M329.681 483.075L330.404 482.716C340.662 477.57 347.06 468.391 359.017 466.018C361.534 465.519 364.449 465.111 366.946 465.934C368.481 466.44 369.549 467.381 370.209 468.877C372.299 473.617 369.028 481.152 366.859 485.488C362.81 493.582 357.618 500.44 351.532 507.085C348.593 510.295 344.981 513.524 342.724 517.24C341.691 518.941 341.05 520.839 341.702 522.806C343.688 528.799 360.929 532.411 357.62 539.189C356.441 541.604 352.971 542.476 353.618 545.8C354.331 549.459 357.661 551.999 355.452 555.963C354.35 557.939 353.81 558.738 353.626 561.021C353.435 563.394 353.25 565.794 352.805 568.131C351.678 574.037 354.923 576.79 348.484 581.5C340.899 587.047 329.049 586.628 320.135 587.014C315.081 595.843 310.222 606.031 307.451 615.824C315.8 640.912 312.416 658.626 305.385 683.442C303.783 689.096 301.342 695.33 300.451 701.096C299.284 705.756 297.574 710.364 296.233 714.988C292.698 727.178 289.25 739.274 284.266 750.977L280.552 753.04C283.781 762.245 284.595 772.681 286.368 782.275C289.707 800.343 293.757 818.318 296.807 836.43L302.177 867.324C303.275 873.825 303.854 881.115 305.963 887.331C307.839 892.861 311.245 898.025 314.127 903.085C326.265 908.268 339.994 911.839 352.664 915.578C357.688 917.06 363.122 918.176 367.933 920.252C372.38 922.17 374.195 927.072 375.874 931.269C373.528 936.726 369.738 938.861 364.448 940.987C334.551 953.006 308.958 953.899 277.195 951.393C271.798 950.967 263.747 951.255 258.991 948.877C257.564 948.164 256.849 947.284 256.387 945.757C253.96 937.722 262.778 912.195 266.417 904.92C265.754 903.48 265.267 901.94 264.731 900.447C260.717 900.572 254.856 902.648 251.082 901.285C247.757 900.084 229.282 850.719 226.173 843.649C217.1 850.791 207.903 857.238 198.141 863.427C189.517 868.895 155.632 887.928 146.994 885.987C143.505 882.881 141.033 877.494 138.617 873.458C134.235 876.444 127.279 882.33 125.613 887.49C121.712 899.569 129.028 926.511 134.537 937.926C132.811 944.444 126.365 950.565 120.87 954.184C105.878 948.818 91.527 931.289 83.8043 917.986C74.5026 901.963 68.5324 884.564 63.6401 866.775C62.5897 862.955 60.0202 855.685 61.5268 851.819C62.2546 849.951 63.9458 848.814 65.7224 848.049C71.2373 845.675 76.1649 846.571 81.8083 845.638C86.9973 844.779 93.859 841.206 99.1855 842.181C100.714 842.461 102.236 843.747 103.689 844.36C105.532 843.692 119.418 835.856 120.03 834.961C123.033 830.572 121.094 829.541 126.49 825.683C135.988 818.892 162.807 806.726 169.01 798.965C171.309 796.087 175.478 788.145 175.008 784.538C172.899 783.564 162.049 792.566 158.607 794.225C156.276 795.347 153.746 795.793 151.227 796.286C147.687 792.749 145.841 793.403 144.121 788.044C143.54 786.234 140.718 786.069 139.988 783.98C139.309 782.037 140.064 780.937 140.93 779.216L141.233 778.625C140.407 777.386 139.521 776.219 138.605 775.046C138.417 773.849 138.192 773.345 139.021 772.317C141.465 769.287 155.919 764.815 160.378 762.233C170.58 756.328 174.698 744.947 178.997 734.597C168.467 731.762 158.224 726.244 151.347 717.604C133.28 694.908 141.295 654.108 155.12 631.111C157.315 627.459 159.943 623.918 162.598 620.587C165.049 617.512 174.568 608.601 174.864 605.447C174.9 605.065 174.92 604.68 174.977 604.301C175.771 598.998 191.452 579.352 195.561 575.255C199.026 571.8 202.817 568.905 206.803 566.083C215.866 560.277 226.924 556.83 237.754 557.82C238.356 557.875 238.899 557.849 239.499 557.773C238.925 556.879 238.271 556.494 237.387 555.929C233.032 539.719 228.361 520.056 237.285 504.596C246.428 488.756 261.497 472.244 279.793 467.548C292.07 464.396 306.227 466.237 317.134 472.747C321.85 475.562 325.763 479.268 329.681 483.075Z"/>
	<path fill="#FEFEFE" d="M213.943 735.306Q229.247 741.306 245.269 744.982C253.881 747.013 265.019 747.915 272.787 752.141C275.942 758.392 277.135 771.813 278.575 779.179Q284.222 807.535 289.221 836.012C292.087 851.564 295.238 867.141 297.011 882.865Q292.003 885.222 286.82 887.164Q281.638 889.106 276.314 890.619Q270.99 892.133 265.56 893.207Q260.131 894.282 254.632 894.911C251.448 885.769 247.191 876.772 243.499 867.805C235.165 847.594 226.982 827.166 218.181 807.163C227.253 814.316 240.332 831.623 250.745 835.461C252.292 836.031 253.233 836.002 254.742 835.245C255.429 834.352 256.022 833.507 255.825 832.303C255.433 829.897 250.235 826.675 248.289 825.14C245.172 822.682 222.83 802.71 222.418 802.531C221.121 801.969 220.154 802.2 218.894 802.629C218.447 803.294 218.032 803.851 217.498 804.457C215.064 802.556 201.245 765.523 199.59 760.715C205.603 752.343 210.018 744.847 213.943 735.306Z"/>
	<path fill="#FD7267" d="M183.087 608.896C197.878 612.094 212.627 613.258 227.164 617.89C222.159 629.681 214.935 639.844 209.134 651.13C208.471 652.421 207.555 654.146 207.55 655.639C207.543 657.852 209.767 659.445 211.241 660.817C205.723 666.726 190.683 687.939 188.094 695.268C185.777 701.828 185.549 709.481 184.264 716.332C183.963 720.23 183.082 724.16 182.126 727.945C173.654 725.876 164.731 721.767 158.797 715.226C149.712 705.21 147.869 694.603 148.47 681.502C149.809 652.327 161.686 628.508 183.087 608.896Z"/>
	<path fill="#FEFEFE" d="M194.393 768.433C197.591 772.731 204.599 792.52 206.764 798.377C201.838 801.07 197.336 804.707 192.456 807.551C185.807 811.424 171.673 816.988 166.942 821.91C165.903 822.991 165.569 823.832 165.566 825.308C166.29 826.375 166.656 826.945 167.865 827.448C169.187 827.405 170.285 827.239 171.499 826.679C177.726 823.81 183.836 819.386 189.75 815.864C196.17 812.04 203.569 808.82 209.247 803.985Q216.424 820.521 223.356 837.161C214.376 843.396 206.093 850.138 196.771 855.963C181.708 864.694 166.827 872.357 150.78 879.142C141.975 864.765 131.51 850.16 127.588 833.531C135.633 826.803 147.021 820.849 156.266 815.589C161.838 812.418 169.366 809.355 173.596 804.479C179.782 797.348 180.378 786.948 184.91 778.929C187.097 775.06 191.518 771.97 194.393 768.433Z"/>
	<path fill="#FEFEFE" d="M290.624 605.755C295.014 608.611 299.154 614.422 301.424 619.108C312.41 641.784 300.17 675.277 293.702 698.028C289.155 714.023 284.587 729.97 279.075 745.674C265.164 742.736 251.284 739.828 237.577 736.02C230.655 734.265 223.838 731.523 217.166 728.99C220.3 720.693 221.555 712.638 222.787 703.932C223.746 702.94 224.85 702.022 225.867 701.086C232.951 702.251 239.275 702.9 246.248 700.761C262.951 695.636 277.213 679.863 285.038 664.782C293.626 648.231 296.18 623.573 290.624 605.755Z"/>
	<path fill="#FEFEFE" d="M287.874 473.186C293.7 472.42 300.985 473.842 306.446 475.902C310.558 477.453 322.082 482.305 323.861 486.253C323.325 488.721 319.936 489.581 317.792 490.558C304.287 496.717 294.595 505.418 286.357 517.815C283.381 522.292 280.624 527.267 276.951 531.199C273.778 534.595 270.06 537.223 266.299 539.915C261.296 543.616 252.734 549.589 246.364 550.325C244.937 550.491 244.431 550.333 243.311 549.475C240.879 544.834 240.104 537.42 239.461 532.206C237.796 518.713 241.266 509.142 249.601 498.565C259.017 486.617 272.252 475.038 287.874 473.186Z"/>
	<path fill="#9F8BE8" d="M328.27 504.381C336.995 517.727 333.237 529.465 350.212 537.965C348.29 540.022 346.28 542.005 346.196 544.991C346.11 548.028 348.148 550.274 350.092 552.351C347.486 553.819 343.709 554.906 341.582 556.9C340.968 557.476 341.181 557.373 341.109 558.366C342.281 560.112 343.916 560.537 345.491 561.743C345.521 561.766 346.186 562.378 346.24 562.551C346.293 562.718 346.358 572 346.819 574.601C337.316 580.757 327.027 580.2 316.164 579.411C310.171 588.168 306.764 598.468 301.628 607.728Q296.163 602.106 290.271 596.933Q286.346 593.497 282.542 589.927C287.601 586.475 292.082 582.51 296.939 578.817C300.207 576.331 304.051 574.028 306.992 571.18C307.789 570.408 308.177 569.74 308.566 568.71C307.243 564.256 294.025 568.59 287.194 561.875C284.692 559.416 283.788 555.888 283.943 552.452C284.061 549.815 285.002 547.193 287.131 545.515C289.343 543.773 292.201 544.317 294.779 544.565C296.754 546.387 298.319 548.552 300.211 550.447C301.676 551.915 302.886 552.65 305.007 552.642C308.213 551.16 309.31 545.105 310.089 541.911C313.797 526.723 320.726 517.641 328.27 504.381Z"/>
	<path fill="#020201" d="M290.841 548.915C292.094 548.858 293.286 548.75 294.424 549.4C296.949 550.842 299.42 554.032 300.196 556.834C300.642 558.444 300.12 559.466 299.426 560.869C298.018 560.776 296.436 560.76 295.112 560.232C293.064 559.415 291.371 557.202 290.655 555.175C289.671 552.386 289.629 551.546 290.841 548.915Z"/>
	<path fill="#020201" d="M331.671 526.866L332.783 527.23C333.667 528.308 333.78 528.473 333.968 529.847C333.165 531.818 330.388 533.435 329.036 535.23C328.352 536.137 327.815 536.739 326.903 537.413C325.813 537.23 324.549 537.016 323.701 536.229C322.696 535.296 322.884 534.733 323.023 533.521C324.234 531.509 326.064 529.987 328.214 529.044C329.387 528.53 330.27 527.96 331.282 527.174L331.671 526.866Z"/>
	<path fill="#020201" d="M328.501 520.361C328.929 520.364 329.054 520.344 329.522 520.47C330.774 520.81 331.32 521.217 331.872 522.346C330.811 525.378 325.772 528.002 323.226 529.73C322.36 530.188 322.705 530.081 321.799 530.284C321.596 530.33 321.391 530.366 321.187 530.407L321.561 530.388C320.835 530.153 320.672 530.305 320.418 529.62C320.182 528.983 320.312 528.099 320.538 527.486C321.832 523.973 325.396 522.009 328.501 520.361Z"/>
	<path fill="#FEFEFE" d="M247.946 605.571C250.732 605.275 253.976 605.242 256.722 605.757C261.576 606.667 265.99 609.176 268.752 613.337C272.513 619.003 272.641 625.823 271.407 632.275C268.792 645.957 261.85 658.109 252.624 668.36C250.878 670.299 248.344 673.355 246.006 674.486C244.801 675.069 243.229 673.762 242.164 673.208C237.411 670.674 217.635 658.924 215.938 654.449C215.331 652.848 221.068 644.569 222.031 642.834C226.609 634.588 230.508 626.15 234.618 617.682C237.978 610.759 240.651 608.11 247.946 605.571Z"/>
	<path fill="#9F8BE8" d="M216.452 664.559C220.366 666.469 223.777 669.374 227.371 671.816C231.376 674.537 235.518 677.042 239.511 679.788C234.567 684.906 218.519 696.719 216.284 702.241C214.95 705.539 215.04 709.733 214.398 713.251C210.791 733.007 193.36 763.338 176.749 774.743C175.312 776.144 172.806 775.237 170.952 776.344C170.663 776.517 170.381 776.704 170.096 776.883C170.729 775.771 171.641 774.357 171.701 773.049C171.749 772.001 171.166 771.041 170.309 770.466C167.601 768.65 166.147 772.45 163.786 773.008L163.213 772.362C163.154 770.919 163.284 770.217 163.924 768.921C178.702 759.188 187.932 736.27 191.141 719.491C192.649 711.607 192.923 702.766 196.007 695.321C199.439 687.034 211.007 672.987 216.452 664.559Z"/>
	<path fill="#FD7267" d="M230.055 564.676C241.911 564.207 256.831 576.906 265.041 584.481C263.309 584.422 261.541 584.358 259.823 584.635C249.461 586.304 236.001 602.14 229.952 610.473C226.86 609.993 223.807 609.247 220.753 608.573C208.718 605.821 196.394 604.49 184.372 601.709C185.906 598.687 187.923 595.841 189.895 593.09C199.73 579.367 212.813 567.462 230.055 564.676Z"/>
	<path fill="#FD7267" d="M312.311 909.766L357.533 923.874L350.7 925.683C339.751 928.635 328.023 932.061 316.776 933.423C302.123 935.198 279.308 933.091 264.571 931.006C266.29 923.676 267.643 915.973 272.109 909.752C279.66 914.355 290.134 920.828 299.311 919.362C305.152 918.429 309.069 914.399 312.311 909.766Z"/>
	<path fill="#FD7267" d="M94.1135 849.531C94.9052 849.504 95.7002 849.556 96.4918 849.584C98.8801 851.694 98.5907 861.071 99.4722 864.446C102.746 876.982 106.593 882.411 117.855 888.872C116.613 905.788 120.36 922.073 126.587 937.665C124.608 935.809 122.699 933.865 120.766 931.96C96.1875 905.685 89.8733 888.386 83.0828 853.817C86.6885 852.146 90.2574 850.528 94.1135 849.531Z"/>
	<path fill="#FD7267" d="M267.61 591.277C267.785 591.278 267.961 591.266 268.136 591.28C272.563 591.641 277.57 594.897 280.161 598.375C288.205 609.179 287.173 627.636 285.315 640.13C282.333 660.187 272.015 676.004 255.791 687.935C248.581 693.238 241.681 696.236 232.614 694.819L237.504 691.134C257.826 674.221 274.634 657.79 278.919 630.382C280.117 622.718 278.92 614.366 274.088 608.084C267.753 599.847 258.839 599.188 249.388 598.148C255.939 593.364 259.247 591.639 267.61 591.277Z"/>
	<path fill="#FEFEFE" d="M121.81 841.925C122.272 842.041 122.369 842.031 122.847 842.503C124.382 844.02 131.297 861.771 135.478 867.002C132.867 868.361 129.786 869.929 127.662 871.996C125.415 874.181 122.448 880.744 119.729 881.55C118.29 880.732 117.013 879.764 115.764 878.677C108.229 872.12 105.88 861.414 105.165 851.892C110.777 848.69 116.278 845.264 121.81 841.925Z"/>
	<path fill="#FD7267" d="M365.09 927.106C366.077 927.205 367.505 927.778 368.272 928.39C368.871 928.867 368.647 928.801 368.736 929.747C368.31 930.622 367.828 931.199 367.084 931.811C362.676 935.427 356.993 936.86 351.704 938.59C322.403 948.171 297.294 947.614 267 943.94C266.635 944.023 266.344 944.11 265.951 944.08C264.393 943.961 264.133 943.761 263.216 942.628C262.905 941.333 262.765 940.413 263.151 939.11C263.286 938.653 263.728 937.737 264.167 937.516C264.948 937.124 286.11 939.969 289.446 940.091C297.913 940.398 306.801 940.822 315.247 940.093C328.313 938.965 353.267 932.841 365.09 927.106Z"/>
	<path fill="#FD7267" d="M74.5287 852.037C74.7176 852.164 74.9467 852.245 75.0953 852.416C76.5654 854.116 78.3046 869.541 79.1875 873.131C85.568 899.08 100.215 924.757 120.91 941.957L121.695 942.601L121.659 943.549C120.774 944.643 120.397 945.079 119.007 945.538L118.163 945.047C95.8007 929.131 85.4594 908.895 76.6842 883.654C73.3694 874.119 70.3238 864.524 68.257 854.632C70.2937 853.543 72.3571 852.793 74.5287 852.037Z"/>
	<path fill="#FEFEFE" d="M298.89 889.987C300.634 891.258 306.152 903.485 307.5 906.118C303.746 911.147 301.389 912.489 295.276 913.805C291.879 912.514 288.756 911.088 285.578 909.325C280.562 906.259 275.376 903.337 270.796 899.635C279.926 895.875 289.681 893.702 298.89 889.987Z"/>
	<path fill="#FEFEFE" d="M356.883 473.445L357.376 474.195C354.27 479.443 350.947 484.661 348.428 490.223C345.202 497.345 342.906 504.692 338.783 511.406L334.974 504.745C332.534 500.466 330.267 496.127 328.037 491.738C338.377 487.268 347.299 479.352 356.883 473.445Z"/>
</svg>
