<?xml version="1.0" encoding="utf-8" ?>
<svg xmlns="http://www.w3.org/2000/svg" xmlns:xlink="http://www.w3.org/1999/xlink" width="1024" height="1024">
	<path fill="#090634" d="M0 0L783.964 0L794.312 0L859.644 0L879.232 0L959.108 0L982.924 0L1024 0L1024 205.603L1024 292.271L1024 607.023L1024 631.1L1024 1024L584.782 1024L0 1024L0 925.97L0 609.4L0 131.762L0 110.841L0 0Z"/>
	<path fill="#D7CFF9" d="M0 0L783.964 0L794.312 0L859.644 0L879.232 0L959.108 0L982.924 0L1024 0L1024 205.603L1024 292.271L1024 607.023C1008.69 606.774 993.093 606.388 977.826 607.557C978.674 605.295 979.483 602.949 980.063 600.604C982.174 592.072 981.352 582.371 976.634 574.812C973.511 569.808 968.916 565.796 963.036 564.53C956.169 563.051 950.201 565.573 944.53 569.181Q944.537 565.538 944.3 561.902C943.635 552.753 940.262 542.034 932.947 535.992C926.467 530.639 919.226 531.007 911.376 531.672Q910.951 461.155 911.432 390.639C926.653 392.527 944.061 396.848 959.224 396.486C960.534 394.638 961.716 392.622 961.978 390.349C961.528 388.75 959.893 387.413 958.718 386.277C954.144 381.853 949.212 377.75 944.515 373.452L913.734 345.004L842.45 277.953L842.343 262.23C848.969 261.873 863.803 262.607 868.391 257.73L868.442 256.806L868.583 257.399L867.844 256.575L868.407 255.905C867.677 255.093 867.825 255.43 867.545 254.703C863.06 243.026 850.964 226.18 844.164 215.09L804.096 148.753C781.491 150.605 758.956 153.68 736.355 155.702C727.723 156.695 719.036 157.369 710.382 158.162C704.98 158.657 699.311 159.52 693.894 159.476C684.895 160.389 673.262 162.686 664.478 161.626C657.103 160.735 649.581 158.665 642.324 157.042L597.718 146.73L481.469 121.21L452.216 114.783C445.868 113.388 438.573 110.911 432.063 111.123C429.127 111.218 428.016 113.189 426.282 115.299C415.386 128.56 405.619 142.822 395.153 156.427L331.431 240.078C308.445 270.694 285.595 301.632 261.414 331.321C256.935 336.821 231.4 366.177 231.378 369.969C231.374 370.666 231.513 371.456 232.1 371.883C233.379 372.812 235.281 373.076 236.814 373.259C241.218 373.786 269.932 374.708 273.074 374.042C274.558 373.727 275.365 373.195 276.115 371.897C276.754 370.792 277.264 369.586 277.781 368.421C277.336 382.068 277.709 395.798 277.705 409.457C277.701 422.559 277.311 435.712 277.544 448.806C265.65 452.192 256.719 456.341 246.75 463.781Q245.875 462.429 244.934 461.121Q243.994 459.814 242.99 458.554Q241.987 457.294 240.923 456.085Q239.859 454.875 238.737 453.72Q237.615 452.564 236.438 451.465Q235.26 450.366 234.03 449.326Q232.801 448.286 231.521 447.307Q230.242 446.328 228.916 445.414Q227.59 444.499 226.221 443.651Q224.852 442.802 223.443 442.022Q222.034 441.241 220.589 440.531Q219.143 439.821 217.665 439.182Q216.186 438.543 214.678 437.978Q213.17 437.413 211.636 436.922Q210.101 436.431 208.545 436.016Q206.989 435.601 205.414 435.263Q203.659 434.886 201.888 434.595Q200.117 434.305 198.334 434.102Q196.551 433.899 194.76 433.784Q192.969 433.669 191.174 433.643Q189.38 433.616 187.586 433.678Q185.792 433.74 184.004 433.89Q182.215 434.04 180.437 434.278Q178.658 434.516 176.893 434.841Q175.128 435.166 173.381 435.578Q171.634 435.99 169.91 436.487Q168.185 436.984 166.487 437.566Q164.789 438.147 163.122 438.812Q161.455 439.476 159.822 440.222Q158.19 440.967 156.596 441.793Q155.002 442.618 153.451 443.52Q151.9 444.423 150.395 445.401C143.281 449.971 137.784 455.828 132.292 462.172C112.784 452.946 91.4059 451.05 70.9821 458.4C49.7242 466.05 34.4358 479.774 24.8789 500.343Q24.4625 501.217 24.0681 502.102Q23.6737 502.986 23.3014 503.88Q22.9292 504.773 22.5793 505.676Q22.2294 506.579 21.9022 507.49Q21.575 508.402 21.2705 509.321Q20.9661 510.24 20.6847 511.167Q20.4033 512.093 20.1451 513.026Q19.8869 513.959 19.652 514.899Q19.4171 515.838 19.2057 516.783Q18.9944 517.728 18.8066 518.678Q18.6188 519.628 18.4548 520.582Q18.2908 521.536 18.1507 522.495Q18.0105 523.453 17.8942 524.414Q17.778 525.375 17.6858 526.339Q17.5935 527.303 17.5254 528.269Q17.4572 529.235 17.4131 530.202Q17.369 531.169 17.3491 532.137Q17.3291 533.105 17.3333 534.074Q17.3375 535.042 17.3659 536.01Q17.3942 536.978 17.4467 537.944Q17.4991 538.911 17.5757 539.876Q17.6522 540.842 17.7528 541.805Q17.8534 542.768 17.978 543.728Q18.1025 544.688 18.251 545.645Q18.3995 546.602 18.5718 547.555Q18.744 548.508 18.94 549.456Q19.136 550.404 19.3556 551.347Q19.5751 552.29 19.8181 553.227Q20.0612 554.165 20.3275 555.096Q20.5938 556.027 20.8832 556.951Q21.1726 557.875 21.485 558.791Q21.7974 559.708 22.1325 560.616C31.0507 584.571 47.4883 598.057 69.8682 608.854C46.5778 608.844 23.3032 609.479 0 609.4L0 131.762L0 110.841L0 0Z"/>
	<path fill="#090634" d="M783.964 0L794.312 0L859.644 0L879.232 0L959.108 0L982.924 0L1024 0L1024 205.603L1024 292.271Q1010.03 250.735 996.734 208.98C942.968 173.266 914.866 132.857 885.614 76.4669C841.854 60.2862 811.188 38.0939 783.964 0Z"/>
	<path fill="#D7CFF9" d="M879.232 0L959.108 0C958.631 64.5096 967.957 112.84 987.134 174.336C973.164 164.903 960.885 152.793 949.701 140.258Q946.369 136.576 943.164 132.783Q939.958 128.991 936.883 125.092Q933.807 121.194 930.864 117.194Q927.922 113.194 925.116 109.097Q922.31 105 919.643 100.811Q916.977 96.622 914.454 92.3452Q911.93 88.0685 909.553 83.7091Q907.175 79.3496 904.946 74.9125Q902.716 70.4754 900.638 65.9655Q898.56 61.4557 896.634 56.8784Q894.709 52.301 892.94 47.6614Q891.17 43.0217 889.558 38.325Q887.946 33.6283 886.493 28.8799Q885.04 24.1315 883.748 19.3367Q882.456 14.542 881.327 9.70646Q880.198 4.8709 879.232 0Z"/>
	<path fill="#D7CFF9" d="M982.924 0L1024 0L1024 205.603C1020.63 200.167 1015.78 183.019 1013.34 176.003C998.41 133.149 987.07 88.8351 983.842 43.4272C982.815 28.9787 982.894 14.476 982.924 0Z"/>
	<path fill="#D7CFF9" d="M794.312 0L859.644 0C863.108 21.6228 871.444 42.1283 879.542 62.33C874.211 60.1219 868.816 58.1333 863.627 55.5906C836.511 42.3009 814.233 22.3904 794.312 0Z"/>
	<path fill="#6A5BB1" d="M140.284 118.894C143.319 116.295 146.148 114.063 150.11 113.028C155.797 111.543 161.971 113.074 166.88 116.119C174.147 120.625 178.442 127.767 180.235 135.992C179.408 138.676 178.11 141.911 178.012 144.69C177.396 145.918 176.698 146.669 175.761 147.651C182.559 150.481 188.629 154.225 191.62 161.348Q191.796 161.755 191.95 162.17Q192.104 162.585 192.236 163.007Q192.368 163.43 192.479 163.859Q192.589 164.288 192.676 164.722Q192.764 165.156 192.829 165.594Q192.894 166.032 192.936 166.473Q192.978 166.914 192.997 167.356Q193.016 167.798 193.012 168.241Q193.008 168.684 192.981 169.126Q192.954 169.568 192.904 170.008Q192.854 170.448 192.781 170.885Q192.708 171.321 192.613 171.754Q192.517 172.186 192.4 172.613Q192.282 173.04 192.142 173.46Q192.002 173.88 191.84 174.292Q191.679 174.705 191.496 175.108C189.089 180.333 184.205 183.948 178.848 185.747C171.872 188.089 165.784 186.953 158.944 185.096C157.964 192.047 155.971 197.731 150.179 202.215C146.335 205.192 141.699 206.523 136.874 205.787Q136.34 205.703 135.81 205.593Q135.281 205.483 134.758 205.347Q134.234 205.211 133.718 205.049Q133.202 204.887 132.695 204.7Q132.188 204.513 131.69 204.301Q131.193 204.089 130.706 203.852Q130.22 203.616 129.746 203.356Q129.272 203.096 128.811 202.813Q128.35 202.529 127.904 202.224Q127.458 201.918 127.028 201.591Q126.597 201.264 126.183 200.915Q125.77 200.567 125.374 200.199Q124.978 199.831 124.6 199.444Q124.223 199.056 123.865 198.651Q123.507 198.245 123.17 197.823Q122.833 197.4 122.517 196.961C118.159 190.896 117.642 183.137 118.971 175.995Q119.277 174.379 119.65 172.777C115.643 171.853 111.59 171.015 107.633 169.898C111.697 176.916 114.266 183.256 112.094 191.495C111.292 194.536 109.927 197.488 108.719 200.387C112.929 203.906 116.683 207.761 117.227 213.534C117.689 218.44 115.495 223.135 112.335 226.77C106.073 233.977 96.8239 236.53 87.8107 238.266C81.8346 244.694 76.9218 249.449 67.9151 251.097C63.5167 249.942 60.0494 248.119 57.6712 244.069C54.4514 238.585 54.9751 232.324 55.6238 226.283C48.6616 227.213 42.38 227.711 36.3788 223.219C32.9929 220.685 30.8161 216.955 30.3879 212.74C29.8484 207.429 31.8923 201.92 35.248 197.845C40.1837 191.851 46.8938 189.848 53.9889 187.699C51.1687 182.317 47.9035 176.439 49.6803 170.146C50.3083 167.921 51.6333 165.907 53.7306 164.835C55.9952 163.678 58.6761 163.898 60.9959 164.76C65.272 166.349 68.828 169.776 71.845 173.104C76.6702 167.678 82.8935 163.998 90.3269 163.679C94.334 163.506 97.8831 164.439 101.694 165.518C98.9062 162.582 97.2829 159.53 92.9675 159.088C94.314 159.1 95.3996 159.011 96.7155 158.729C96.3574 152.021 96.5713 149.74 98.9665 143.53C103.178 140.344 107.47 138.941 112.534 137.785C112.351 133.926 113.109 130.846 114.882 127.395C117.334 122.619 121.444 118.694 126.632 117.096C131.611 115.561 135.806 116.519 140.284 118.894Z"/>
	<path fill="#090634" d="M143.897 144.737C145.1 145.166 145.659 145.56 146.55 146.498C147.209 147.192 147.278 147.397 148.214 147.689C149.373 146.794 150.319 146.04 151.746 145.601C152.981 146.231 153.053 146.323 153.722 147.541C153.633 148.921 153.71 148.976 152.701 149.933C152.516 150.108 152.323 150.275 152.134 150.446C152.984 151.349 153.638 152.081 154.234 153.182L153.876 153.843C152.207 154.718 150.925 154.42 149.108 154.18C147.33 154.892 148.246 156.896 147.223 158.425C146.843 158.991 146.372 158.841 145.754 158.909C143.791 157.553 142.057 156.106 140.29 154.513C140.725 152.778 141.505 152.254 142.731 150.984C142.909 149.543 142.506 149.078 141.891 147.79C142.254 146.254 142.828 145.865 143.897 144.737Z"/>
	<path fill="#090634" d="M81.6294 194.735C82.4639 194.917 82.9434 195.156 83.6858 195.554C84.7808 197.621 86.642 199.207 87.5904 201.258L86.815 202.158C85.6138 202.453 84.556 202.732 83.4238 203.246C83.414 203.961 83.4225 204.659 83.461 205.373L83.503 206.068C82.4286 206.757 82.2537 206.532 81.0312 206.44C79.6387 205.716 79.2968 204.65 78.678 203.299C77.5487 204.357 76.6478 205.487 75.0232 205.634C73.9831 204.848 74.0789 204.668 73.6405 203.504C74.1106 202.037 74.779 201.752 75.959 200.801C76.5118 199.457 74.9022 198.62 75.0778 196.796C76.4108 195.645 77.9796 197.128 79.7165 196.943C80.5324 196.856 81.1778 195.403 81.6294 194.735Z"/>
	<path fill="#6A5BB1" d="M212.878 130.717C213.279 130.245 213.797 129.851 214.082 129.301C214.937 127.651 214.368 118.101 215.462 114.506C218.085 105.877 228.675 98.6651 237.435 97.9354C242.812 97.4876 247.779 99.0228 252.419 101.635C259.413 97.7821 265.618 96.6456 273.406 98.9195C278.927 100.532 284.534 104.069 287.341 109.23C289.07 112.408 289.443 115.985 288.383 119.446C287.211 123.272 284.703 126.122 281.895 128.848C287.043 132.765 291.534 137.17 292.355 143.952C293.002 149.299 291.002 154.709 287.699 158.869Q287.329 159.337 286.936 159.786Q286.543 160.235 286.127 160.664Q285.712 161.093 285.276 161.5Q284.84 161.907 284.383 162.292Q283.927 162.677 283.452 163.038Q282.977 163.399 282.485 163.736Q281.992 164.073 281.483 164.385Q280.974 164.697 280.45 164.982Q279.926 165.268 279.388 165.527Q278.851 165.786 278.301 166.018Q277.751 166.249 277.19 166.453Q276.629 166.657 276.058 166.832Q275.488 167.007 274.909 167.153Q274.33 167.299 273.745 167.416Q273.16 167.533 272.569 167.62Q271.979 167.708 271.385 167.765C263.918 168.514 257.886 165.532 251.453 162.228C245.293 169.027 239.278 175.831 229.429 176.349C224.373 176.615 219.532 175.219 215.763 171.753C210.22 166.657 207.98 158.307 207.826 150.988C207.783 148.934 209.009 141.638 208.126 140.733C208.591 140.542 209.091 140.252 209.541 140.023C211.064 137.099 211.903 133.854 212.878 130.717Z"/>
	<path fill="#090634" d="M246.719 123.648C248.914 124.732 249.597 126.799 250.607 128.884C251.709 128.086 253.217 126.797 254.534 126.43C255.781 126.082 256.222 126.28 257.129 126.999L257.074 128.318C256.153 130.33 254.521 131.282 252.782 132.535C253.957 133.645 255.722 134.974 255.899 136.664C255.184 137.662 254.871 137.7 253.713 138.168L249.541 134.644C249.014 135.339 248.491 136.055 247.913 136.709C247.065 137.666 246.731 138.196 245.386 138.275C244.02 137.032 241.586 134.369 241.437 132.538C242.404 131.364 243.822 131.137 245.217 130.723L245.958 130.507C246.29 129.112 245.693 128.509 245.107 127.252C245.229 125.459 245.692 125.076 246.719 123.648Z"/>
	<path fill="#090634" d="M0 110.841C26.2184 130.001 66.5389 143.885 98.9665 143.53C96.5713 149.74 96.3574 152.021 96.7155 158.729C95.3996 159.011 94.314 159.1 92.9675 159.088C60.379 157.842 27.8019 149.103 0 131.762L0 110.841Z"/>
	<path fill="#9F8BE8" d="M693.329 140.614C702.492 139.851 711.884 138.158 721.084 138.283C726.643 138.358 731.92 140.093 737.512 140.009C736.505 144.792 735.414 150.867 736.355 155.702C727.723 156.695 719.036 157.369 710.382 158.162C704.98 158.657 699.311 159.52 693.894 159.476C693.831 153.204 693.895 146.863 693.329 140.614Z"/>
	<path fill="#090634" d="M693.329 140.614C692.489 139.476 691.792 138.265 691.978 136.774C692.135 135.528 692.431 134.884 693.558 134.27C695.555 133.183 699.894 133.226 702.233 132.996C712.825 131.957 725.955 129.774 736.191 133.642C737.837 134.264 738.459 134.881 739.19 136.455C739.137 138.07 738.462 138.802 737.512 140.009C731.92 140.093 726.643 138.358 721.084 138.283C711.884 138.158 702.492 139.851 693.329 140.614Z"/>
	<path fill="#090634" d="M212.878 130.717C211.903 133.854 211.064 137.099 209.541 140.023C209.091 140.252 208.591 140.542 208.126 140.733C200.258 141.63 184.459 141.82 178.012 144.69C178.11 141.911 179.408 138.676 180.235 135.992C189.963 135.705 204.414 135.417 212.878 130.717Z"/>
	<path fill="#6A5BB1" d="M176.883 196.635C179.283 196.405 181.592 196.496 183.938 197.109C191.675 199.13 196.694 204.248 200.645 210.902C202.937 211.232 205.237 211.528 207.523 211.893C215.787 213.213 223.713 217.066 228.616 224.07C231.904 228.767 233.602 234.934 232.409 240.618C230.979 247.435 226.173 251.221 220.741 254.872L221.377 256.558L221.621 257.198Q221.82 257.747 221.99 258.305Q222.161 258.863 222.304 259.429Q222.447 259.996 222.562 260.568Q222.676 261.14 222.762 261.718Q222.848 262.295 222.905 262.876Q222.962 263.457 222.99 264.04Q223.018 264.624 223.017 265.207Q223.016 265.791 222.985 266.374Q222.955 266.957 222.896 267.538Q222.837 268.119 222.749 268.696Q222.661 269.273 222.544 269.845Q222.427 270.417 222.282 270.982Q222.137 271.548 221.964 272.105Q221.791 272.663 221.59 273.211Q221.39 273.759 221.162 274.297Q220.934 274.834 220.68 275.36Q220.402 275.936 220.095 276.498Q219.788 277.059 219.452 277.604Q219.117 278.149 218.754 278.676Q218.392 279.203 218.002 279.711Q217.613 280.219 217.199 280.706Q216.784 281.193 216.345 281.659Q215.906 282.125 215.444 282.567Q214.982 283.01 214.498 283.428Q214.014 283.846 213.509 284.24Q213.004 284.633 212.48 285Q211.956 285.367 211.414 285.706Q210.871 286.046 210.313 286.357Q209.754 286.669 209.18 286.952Q208.606 287.234 208.018 287.487Q207.43 287.74 206.83 287.963Q206.23 288.185 205.62 288.377C197.85 290.81 191.221 289.137 184.221 285.576C183.398 285.175 183.012 284.917 182.052 285.164C177.121 286.434 174.867 289.808 167.606 290.403C162.879 290.791 157.703 289.75 154.073 286.538C148.483 281.593 146.46 272.82 145.866 265.68C141.504 265.053 137.856 264.204 134.379 261.246Q133.698 260.657 133.079 260.003Q132.459 259.349 131.908 258.636Q131.357 257.924 130.88 257.16Q130.403 256.397 130.004 255.589Q129.605 254.782 129.288 253.938Q128.972 253.095 128.741 252.225Q128.51 251.354 128.366 250.465Q128.223 249.576 128.169 248.677C127.7 241.918 130.517 235.177 134.844 230.085C139.514 224.59 145.563 220.96 152.83 220.38C153.835 216.278 155.286 212.588 157.69 209.112C162.292 202.457 168.93 198.107 176.883 196.635Z"/>
	<path fill="#090634" d="M178.128 230.156C178.978 230.347 179.752 230.61 180.574 230.895C181.86 231.941 181.993 233.136 182.366 234.67C182.857 236.686 187.434 235.675 189.256 237.1C189.564 238.365 189.635 238.413 189.103 239.586C187.308 240.672 185.253 240.56 183.21 240.677C184.609 241.847 186.444 243.156 187.411 244.717C188.052 245.753 188.065 245.859 187.785 246.975C186.571 247.535 185.876 247.489 184.579 247.42C183.645 246.374 182.964 245.377 181.512 245.099L179.952 246.951C178.622 246.756 178.519 246.694 177.521 245.788C177.217 244.785 177.191 244.225 177.467 243.23C177.554 242.914 177.65 242.601 177.742 242.286C176.971 241.696 177.294 241.787 176.427 241.647C175.072 241.429 174.175 241.496 173.1 240.513C172.657 239.271 172.438 239.066 172.821 237.828C173.892 237.231 174.615 237.323 175.804 237.392C176.872 237.453 177.349 237.521 178.389 237.214C178.197 234.845 178.032 232.537 178.128 230.156Z"/>
	<path fill="#6A5BB1" d="M270.937 31.8695C269.125 27.381 268.322 23.7926 270.207 19.058C272.512 13.2698 278.173 8.99351 283.875 6.80791C291.386 3.9294 300.402 3.99256 307.794 7.2271C314.293 10.0707 318.352 14.9171 320.765 21.463C320.936 21.927 321.099 22.3942 321.253 22.8643C329.509 23.8781 337.223 25.4173 342.648 32.412C345.828 36.512 347.529 41.866 346.699 47.0417C345.935 51.8069 342.686 56.12 338.771 58.8179C337.228 59.8811 335.597 60.7755 333.91 61.585C336.176 67.8547 337.216 73.0695 334.353 79.4568C331.938 84.8472 327.439 88.7067 321.888 90.6186C314.904 93.0242 307.667 91.8807 301.202 88.5943Q299.914 87.945 298.693 87.1777Q297.471 86.4104 296.327 85.532Q295.183 84.6535 294.126 83.6717Q293.07 82.6898 292.11 81.6132C284.215 86.8178 276.427 91.0177 266.566 88.9587C260.694 87.7325 255.452 84.5602 252.183 79.4408C251.536 78.4272 251.12 77.318 250.73 76.187C237.445 81.7621 223.768 85.8855 209.368 87.181C209.016 86.0001 209.072 86.2605 209.45 85.2426C212.389 83.3379 215.339 81.2174 218.53 79.7604C231.027 76.2819 243.084 73.4028 255.222 68.6632C251.424 62.8619 247.756 56.1453 249.269 48.941C250.372 43.6872 254.185 39.4989 258.641 36.7357C262.388 34.4117 266.679 32.9394 270.937 31.8695Z"/>
	<path fill="#090634" d="M255.222 68.6632C264.193 64.8676 284.487 56.2414 290.154 49.1093L289.77 48.2858C289.027 46.6678 288.444 45.6259 288.803 43.7684C289.489 42.8272 289.66 42.4731 290.752 41.9857C292.371 42.7165 293.257 44.2312 294.298 45.6083C295.748 44.672 297.676 43.0926 299.472 43.2951C300.04 43.3591 300.341 43.5185 300.84 43.7261C301.069 44.6988 301.209 45.0166 300.611 45.9279C299.88 47.0427 298.418 47.9135 297.348 48.6974C299.163 50.0985 301.313 51.4247 301.803 53.8271C301.98 54.6968 301.911 54.4143 301.292 55.2325C299.238 55.4551 298.388 55.1788 296.844 53.9247Q295.454 52.7835 294.106 51.5928C285.312 58.1712 276.608 64.04 266.688 68.8048C261.541 71.2768 255.55 73.2183 250.73 76.187C237.445 81.7621 223.768 85.8855 209.368 87.181C209.016 86.0001 209.072 86.2605 209.45 85.2426C212.389 83.3379 215.339 81.2174 218.53 79.7604C231.027 76.2819 243.084 73.4028 255.222 68.6632Z"/>
	<path fill="#6A5BB1" d="M167.39 35.533C169.797 30.0059 173.407 25.5235 179.182 23.2585C184.589 21.1377 190.922 21.3697 196.2 23.7703C200.585 25.7651 204.142 29.3026 205.756 33.8875C207.28 38.2175 206.741 42.1868 206.012 46.5748C212.571 50.283 218.322 54.9986 220.328 62.6331C222.201 69.7591 218.214 78.688 218.53 79.7604C215.339 81.2174 212.389 83.3379 209.45 85.2426C209.072 86.2605 209.016 86.0001 209.368 87.181C209.739 92.0579 206.477 99.0029 203.414 102.54Q203.005 103.014 202.572 103.467Q202.139 103.919 201.683 104.349Q201.227 104.779 200.75 105.185Q200.273 105.591 199.776 105.972Q199.279 106.354 198.763 106.709Q198.247 107.064 197.714 107.392Q197.18 107.721 196.631 108.021Q196.081 108.322 195.517 108.594Q194.953 108.866 194.375 109.109Q193.798 109.352 193.209 109.565Q192.62 109.778 192.021 109.961Q191.422 110.144 190.814 110.296Q190.206 110.447 189.591 110.568Q188.977 110.689 188.357 110.778Q187.737 110.867 187.113 110.924Q186.489 110.981 185.863 111.006C178.682 111.265 171.563 108.271 166.43 103.321C163.193 105.144 160.228 106.547 156.503 107.146C150.668 108.084 144.139 106.919 139.345 103.334C133.42 98.9017 131.79 92.0223 132.063 84.9964C132.133 83.1771 132.664 81.0546 132.311 79.2825C132.273 79.0893 132.2 78.9045 132.145 78.7156C133.869 77.2977 134.356 74.4646 134.935 72.3994C137.285 70.9024 139.445 68.7892 141.252 66.6696C137.247 61.775 133.362 56.8947 134.069 50.1408C134.617 44.8937 137.884 40.3968 142.011 37.2902C147.19 33.3905 153.073 31.879 159.464 33.0044C162.206 33.487 164.803 34.5371 167.39 35.533Z"/>
	<path fill="#090634" d="M173.014 61.1683C176.119 61.7236 175.335 62.231 177.683 63.5831C178.733 62.9008 179.503 62.3658 180.743 62.0857C181.806 62.6816 181.821 62.8833 182.36 63.9984C181.912 65.8945 179.642 67.135 178.142 68.3762C179.126 69.1361 180.478 70.0548 181.034 71.1971C181.528 72.2128 181.59 72.2622 181.2 73.3532C179.877 74.1305 178.73 73.8905 177.276 73.7559C176.479 72.9006 175.935 72.1539 174.792 71.7827C173.29 72.4088 172.756 73.3422 171.886 74.6376C171.348 75.4381 171.752 75.0804 170.668 75.5321L169.34 74.4177C169.021 72.5011 170.802 71.3888 170.826 69.426C169.908 68.8533 169.255 68.4276 168.606 67.5535C168.814 66.4062 168.922 66.2802 169.711 65.4099C170.608 65.4845 171.376 65.5084 172.268 65.3798C173.153 64.226 173.015 63.1726 173.018 61.7889L173.014 61.1683Z"/>
	<path fill="#6A5BB1" d="M51.8785 50.0754C53.4919 44.5349 55.7123 39.1934 60.3452 35.4657C63.3633 33.0372 67.122 31.7497 70.9986 32.3462C76.4283 33.1817 80.1827 37.0681 83.2186 41.327C86.9283 39.2388 90.4287 38.2338 94.7189 38.7745Q95.6041 38.881 96.4744 39.0748Q97.3447 39.2686 98.1915 39.5478Q99.0382 39.8269 99.8531 40.1887Q100.668 40.5505 101.443 40.9914Q102.218 41.4322 102.945 41.9478Q103.673 42.4633 104.346 43.0485Q105.018 43.6336 105.63 44.2826Q106.241 44.9316 106.785 45.6381C110.008 49.8805 111.145 55.2883 110.25 60.5068C108.463 70.9363 104.289 71.3084 97.2739 76.4354C97.0169 76.6232 96.7638 76.8164 96.5087 77.0069C97.719 78.8293 99.3778 81.0032 101.434 81.8744L101.896 81.706C104.646 85.6541 106.755 89.9749 107.495 94.7736C108.397 100.622 107.47 106.626 103.78 111.383C100.429 115.703 95.4527 118.247 90.0769 118.941C81.5779 120.038 74.1974 117.434 67.4967 112.277C64.1453 116.627 60.2475 120.248 54.6103 121.179C49.9587 121.947 45.0622 120.573 41.3084 117.77Q40.9515 117.505 40.6085 117.223Q40.2655 116.941 39.9372 116.642Q39.609 116.342 39.2964 116.027Q38.9837 115.711 38.6875 115.38Q38.3913 115.049 38.1122 114.703Q37.8332 114.358 37.572 113.998Q37.3108 113.639 37.0683 113.267Q36.8257 112.895 36.6023 112.511Q36.3789 112.127 36.1752 111.732Q35.9716 111.337 35.7883 110.932Q35.6049 110.528 35.4423 110.114Q35.2798 109.701 35.1384 109.28Q34.997 108.859 34.8771 108.431Q34.7573 108.003 34.6593 107.57Q34.5613 107.136 34.4854 106.699Q34.4095 106.261 34.3559 105.82C33.5176 98.7522 36.954 93.4501 41.1125 88.1795C37.6895 86.926 34.4789 85.5852 31.679 83.1663Q31.3126 82.8538 30.9631 82.5226Q30.6135 82.1915 30.2817 81.8425Q29.95 81.4935 29.6368 81.1276Q29.3237 80.7618 29.0301 80.3801Q28.7366 79.9984 28.4633 79.602Q28.1901 79.2055 27.9379 78.7952Q27.6857 78.385 27.4553 77.9622Q27.2249 77.5394 27.0168 77.1051Q26.8088 76.6708 26.6238 76.2263Q26.4387 75.7817 26.2771 75.3281Q26.1155 74.8745 25.9778 74.4131Q25.8401 73.9517 25.7267 73.4837Q25.6133 73.0157 25.5245 72.5424Q25.4356 72.0692 25.3716 71.5919Q25.3076 71.1146 25.2687 70.6347Q25.2297 70.1547 25.2158 69.6734C25.0439 64.371 26.94 59.3984 30.7198 55.6528C36.7209 49.7062 44.0715 49.8716 51.8785 50.0754Z"/>
	<path fill="#090634" d="M71.0659 66.1249C71.4064 66.2394 71.9473 66.4013 72.2393 66.5944C73.6215 67.5083 73.5331 69.8915 73.7069 71.4077C75.1579 72.4682 76.237 71.8796 77.9785 71.9292C79.3062 71.9671 79.9896 72.0885 80.9371 73.0112L80.7147 74.3149C79.8111 75.4035 79.1546 75.6213 77.8491 75.9743C76.1343 76.4381 74.9914 76.4261 73.8081 77.7904C73.7321 79.5516 73.5389 80.5435 72.6744 82.0895C71.7231 82.2601 70.905 82.1979 69.9457 82.1153C68.9387 80.7617 69.6009 79.4479 69.6747 77.7923C68.3762 76.7123 65.537 77.3001 63.6829 76.7776C62.8025 75.5908 62.9513 75.5511 63.1035 74.0566C64.6182 72.8559 66.4424 73.4731 68.1945 73.1065C70.0113 72.7263 69.4858 68.5041 71.0659 66.1249Z"/>
	<path fill="#090634" d="M134.935 72.3994C134.356 74.4646 133.869 77.2977 132.145 78.7156Q117.044 80.4472 101.896 81.706L101.434 81.8744C99.3778 81.0032 97.719 78.8293 96.5087 77.0069C109.32 75.5334 122.197 74.4501 134.935 72.3994Z"/>
	<path fill="#6A5BB1" d="M911.376 531.672C919.226 531.007 926.467 530.639 932.947 535.992C940.262 542.034 943.635 552.753 944.3 561.902Q944.537 565.538 944.53 569.181C950.201 565.573 956.169 563.051 963.036 564.53C968.916 565.796 973.511 569.808 976.634 574.812C981.352 582.371 982.174 592.072 980.063 600.604C979.483 602.949 978.674 605.295 977.826 607.557C993.093 606.388 1008.69 606.774 1024 607.023L1024 631.1L1024 1024L584.782 1024C579.205 1019.85 571.845 1015.28 568.187 1009.27C567.037 1007.37 566.572 1005.61 567.133 1003.43C568.636 997.589 575.266 992.524 580.177 989.435C603.935 974.494 635.716 972.556 662.586 978.523C653.629 968.799 639.127 957.381 636.161 944.117C635.294 940.238 635.628 936.258 637.819 932.868C640.441 928.811 644.826 926.316 649.507 925.451C669.815 921.699 699.097 939.831 715.768 950.821C708.748 943.363 702.164 933.375 697.374 924.29C694.146 918.165 691.825 910.847 694.127 903.999C695.563 899.726 698.747 896.66 702.777 894.77C716.714 888.234 736.495 894.49 750.105 899.242C737.876 887.593 717.568 881.224 707.413 868.966C705.504 866.662 703.612 863.75 704.043 860.606C704.33 858.51 705.661 856.82 707.315 855.579C717.319 848.075 738.189 850.573 749.657 852.393C740.452 845.619 725.224 838.429 721.757 826.72C720.486 822.427 721.099 818.199 723.245 814.297C727.029 807.415 734.535 803.685 741.819 801.663C737.197 789.953 730.097 778.752 722.949 768.41C689.607 720.168 646.687 689.953 591.5 670.976C582.242 667.792 572.757 665.282 563.332 662.643Q536.269 654.841 508.65 649.321C495.561 646.756 482.324 644.983 469.211 642.594C477.412 642.888 486.333 640.665 494.443 639.434Q513.759 636.692 533.14 634.454C539.971 633.616 547.024 632.243 553.899 632.056C579.436 631.363 605.199 631.924 630.75 632.081C638.904 632.131 647.105 632.584 655.253 632.371C671.208 631.953 687.279 630.452 703.224 629.488Q755.409 626.533 807.539 622.742L880.21 618.321C889.507 617.724 898.923 617.453 908.187 616.518C909.161 616.42 909.779 616.19 910.644 615.761C912.351 611.105 911.365 541.564 911.376 531.672Z"/>
	<path fill="#9F8BE8" d="M911.376 531.672C919.226 531.007 926.467 530.639 932.947 535.992C940.262 542.034 943.635 552.753 944.3 561.902Q944.537 565.538 944.53 569.181C950.201 565.573 956.169 563.051 963.036 564.53C968.916 565.796 973.511 569.808 976.634 574.812C981.352 582.371 982.174 592.072 980.063 600.604C979.483 602.949 978.674 605.295 977.826 607.557C993.093 606.388 1008.69 606.774 1024 607.023L1024 631.1C1013.38 635.084 1005.63 645.296 999.44 654.354C998.087 641.743 994.632 621.9 983.789 613.529C981.32 611.623 978.353 610.573 975.223 611.035C970.039 611.801 965.801 615.359 962.856 619.506C953.31 632.948 950.681 650.238 947.964 666.108C942.742 655.895 937.051 638.522 924.908 634.433C922.143 633.502 919.315 633.725 916.774 635.174C906.531 641.018 901.749 663.258 898.544 674.163C895.784 667.666 893.239 660.996 886.25 658.019C885.449 657.677 884.622 657.399 883.795 657.13C877.629 659.233 874.012 662.416 871.09 668.347C868.88 672.833 867.471 677.666 865.614 682.295C861.061 674.829 855.882 666.506 846.683 664.352C842.873 663.46 839.042 664.071 835.748 666.189C825.84 672.558 821.466 690.171 819.382 700.912C816.038 718.146 816.211 735.787 815.855 753.262C810.489 744.388 804.067 732.563 793.053 730.063Q792.339 729.895 791.611 729.799Q790.883 729.704 790.149 729.682Q789.415 729.66 788.683 729.712Q787.951 729.764 787.227 729.889Q786.504 730.014 785.797 730.211Q785.09 730.409 784.406 730.676Q783.723 730.943 783.069 731.277Q782.416 731.612 781.799 732.01C776.345 735.488 773.172 742.074 771.953 748.265C768.107 767.815 775.916 789.759 782.993 807.836C770.581 801.629 755.6 797.867 741.819 801.663C737.197 789.953 730.097 778.752 722.949 768.41C689.607 720.168 646.687 689.953 591.5 670.976C582.242 667.792 572.757 665.282 563.332 662.643Q536.269 654.841 508.65 649.321C495.561 646.756 482.324 644.983 469.211 642.594C477.412 642.888 486.333 640.665 494.443 639.434Q513.759 636.692 533.14 634.454C539.971 633.616 547.024 632.243 553.899 632.056C579.436 631.363 605.199 631.924 630.75 632.081C638.904 632.131 647.105 632.584 655.253 632.371C671.208 631.953 687.279 630.452 703.224 629.488Q755.409 626.533 807.539 622.742L880.21 618.321C889.507 617.724 898.923 617.453 908.187 616.518C909.161 616.42 909.779 616.19 910.644 615.761C912.351 611.105 911.365 541.564 911.376 531.672Z"/>
	<path fill="#D7CFF9" d="M900.468 926.89C902.465 927.438 903.95 928.111 905.498 929.519C910.414 933.988 911.393 941.768 911.599 948.056C913.058 946.773 914.448 945.44 916.227 944.604C920.103 942.785 926.169 941.664 930.296 943.232C931.825 943.813 932.626 944.603 933.263 946.128C933.301 947.171 933.271 947.956 932.791 948.89C930.018 954.286 921.678 956.386 916.3 958.228Q917.128 958.897 917.925 959.603C921.007 962.312 927.056 968.011 926.968 972.339C926.943 973.595 926.523 974.599 925.443 975.321C923.821 976.406 921.216 976.139 919.426 975.781C912.847 974.466 909.83 970.62 906.435 965.315C905.894 967.971 905.43 970.745 904.309 973.23C902.902 976.352 900.563 979.867 897.159 981.029C895.709 981.524 894.108 981.496 892.809 980.59C891.276 979.522 890.65 977.632 890.566 975.846C890.26 969.346 895.448 963.38 899.665 958.981C895.82 959.558 892.135 959.882 888.272 959.245C884.996 958.704 880.982 957.429 879.046 954.507C878.284 953.358 877.986 952.002 878.382 950.655C878.79 949.269 879.948 948.214 881.155 947.498C886.893 944.095 894.776 946.357 900.725 947.989C898.271 943.407 894.76 937.267 896.146 931.893C896.788 929.404 898.359 928.169 900.468 926.89Z"/>
	<path fill="#D7CFF9" d="M829.067 776.461C831.151 776.421 832.766 776.539 834.598 777.615C840.02 780.801 841.82 787.824 843.235 793.506C845.061 791.585 847.054 789.767 849.411 788.519C852.261 787.01 855.848 786.054 858.986 787.245C860.619 787.865 861.947 789.116 862.448 790.826C863.017 792.77 862.421 794.814 861.271 796.416C858.971 799.622 854.66 801.109 850.953 801.778C855.346 803.703 859.472 806.423 861.888 810.716C862.82 812.373 863.606 814.755 862.893 816.638C862.465 817.769 861.842 818.592 860.745 819.147C858.909 820.078 856.636 819.891 854.727 819.308C848.931 817.54 845.148 812.791 842.483 807.631L842.471 814.445C841.774 818.842 841.003 822.885 838.098 826.46C836.76 828.106 834.837 829.618 832.612 829.614C831.201 829.611 829.957 828.988 829.042 827.937C827.204 825.827 826.795 822.682 826.993 819.991C827.39 814.582 829.866 811.455 833.741 808.062C828.974 810.381 823.7 811.898 818.364 810.836C816.15 810.395 813.764 809.362 812.551 807.348C811.885 806.243 811.667 804.898 812.053 803.655C812.581 801.959 813.838 800.704 815.322 799.8C821.006 796.339 827.341 797.227 833.45 798.646C829.874 795.303 826.979 790.697 826.448 785.744C826.079 782.295 826.821 779.116 829.067 776.461Z"/>
	<path fill="#D7CFF9" d="M814.525 949.439C815.229 949.401 815.907 949.374 816.611 949.401C819.355 949.505 821.479 950.894 823.256 952.946C826.793 957.032 827.637 962.147 827.16 967.329C829.68 964.904 832.179 962.675 835.383 961.184C837.609 960.149 840.992 959.016 843.396 960.144C844.518 960.671 845.457 961.702 845.709 962.941C846.065 964.689 845.577 966.47 844.772 968.023C842.05 973.282 836.68 976.191 831.244 977.87C834.548 979.164 838.052 981.736 840.49 984.308C841.813 985.703 843.273 987.795 842.959 989.829C842.764 991.087 841.922 992.03 840.828 992.611C838.487 993.856 835.447 993.76 832.962 993.042C828.28 991.688 826.029 989.026 823.757 984.934C823.042 987.247 822.071 989.335 821.019 991.504C818.915 994.532 816.224 997.469 812.714 998.853C810.951 999.549 809.621 999.576 807.856 998.789C806.702 997.655 806.153 996.648 806.117 995.029C805.978 988.788 812.224 983.09 816.28 979.021C810.352 980.458 804.291 981.665 798.19 980.587C795.515 980.115 793.352 979.297 791.806 976.996C791.591 975.585 791.518 974.817 792.223 973.525C793.552 971.091 797.076 969.505 799.576 968.714C807.026 966.355 812.705 968.906 819.236 972.231C816.214 968.347 812.839 964.321 812.047 959.296C811.476 955.679 812.455 952.392 814.525 949.439Z"/>
	<path fill="#D7CFF9" d="M899.283 844.417Q900.871 844.794 902.371 845.436C909.579 848.602 912.288 855.556 914.768 862.42C916.001 860.694 917.257 858.994 918.632 857.377C921.153 854.415 925.626 849.778 929.754 849.808C930.912 849.816 932.044 850.072 932.827 851C933.957 852.341 933.928 854.475 933.567 856.09C932.12 862.572 926.746 867.465 921.333 870.778Q922.211 870.826 923.086 870.902C927.264 871.264 932.731 871.469 935.514 875.091C937.113 877.172 937.169 880.043 936.812 882.532C936.571 884.215 936.087 885.082 934.674 886.099C929.058 887.542 925.558 883.183 921.58 882.792C921.439 882.778 921.296 882.796 921.154 882.798C921.878 886.01 922.255 888.278 920.722 891.319C919.662 893.421 917.793 895.087 915.52 895.751C913.886 896.228 912.387 896.075 910.908 895.223C909.675 894.513 908.836 893.011 908.479 891.679C907.208 886.94 909.624 882.033 911.8 877.962C909.547 879.059 907.24 880.208 904.887 881.067C900.507 882.667 894.375 883.697 890.042 881.448C888.772 880.79 887.914 879.989 887.537 878.57C887.273 877.577 887.565 876.459 888.107 875.595C891.567 870.071 901.159 869.123 907.09 868.067C905.05 866.674 902.988 865.273 901.304 863.445C898.34 860.228 895.631 855.736 895.845 851.222C895.99 848.173 897.057 846.421 899.283 844.417Z"/>
	<path fill="#D7CFF9" d="M966.133 754.847C966.795 754.859 967.468 754.899 968.11 755.08C970.508 755.756 972.366 757.93 973.387 760.115C975.842 765.371 975.164 770.813 973.218 776.038C975.047 774.095 976.907 772.448 979.215 771.088C981.686 769.632 985.419 767.741 988.357 768.788C989.586 769.226 990.517 769.891 991.018 771.14C991.691 772.817 991.198 774.706 990.366 776.224C987.557 781.347 980.723 784.722 975.278 786.257C977.453 787.484 979.794 788.671 981.052 790.933C982.386 793.333 983.582 798.328 982.465 800.975C981.965 802.161 981.092 803.083 979.845 803.493C973.899 805.447 967.412 795.231 964.911 793.839C964.781 793.767 964.636 793.726 964.499 793.669C962.934 797.181 960.707 800.346 957.462 802.505C955.323 803.928 952.53 804.959 949.944 804.366C948.67 804.074 947.609 803.428 946.994 802.233C946.344 800.968 946.428 799.624 946.833 798.306C948.548 792.735 954.602 789.305 959.455 786.812C955.599 786.571 951.918 786.507 948.329 784.879C945.868 783.763 942.724 781.603 941.913 778.85C941.582 777.726 941.503 776.642 942.142 775.602C942.854 774.443 944.166 773.797 945.438 773.468C951.69 771.852 958.242 776.064 963.431 779.008L963.225 778.66L962.892 778.076C961.926 776.413 961.014 774.889 960.68 772.966C959.552 766.472 962.359 759.983 966.133 754.847Z"/>
	<path fill="#D7CFF9" d="M772.724 875.877C775.689 875.766 777.913 876.658 780.143 878.631C784.144 882.171 785.303 887.325 785.66 892.401C787.757 888.898 789.909 886.039 793.516 883.926C796.275 882.31 800.156 881.103 803.325 882.132C804.258 882.436 805.18 883.097 805.6 883.993C806.278 885.443 805.998 886.851 805.394 888.267C803.535 892.626 799.454 896.183 795.178 898.067L794.105 897.185L794.968 898.221L793.368 898.673C795.565 899.768 797.72 900.836 799.622 902.417C801.64 904.094 804.131 906.655 804.096 909.49C804.081 910.686 803.593 911.778 802.646 912.525C800.956 913.856 798.344 913.942 796.308 913.689C791.337 913.071 787.567 910.578 784.592 906.658C784.257 907.192 784.365 906.93 784.203 907.581C783.295 911.222 781.988 914.995 780.095 918.253C778.659 920.724 775.72 924.416 772.694 924.896C771.58 925.073 770.603 924.723 769.842 923.893C768.614 922.552 768.242 920.516 768.199 918.761C768.061 913.126 771.354 909.33 775.021 905.546C770.014 906.823 764.925 906.871 759.909 905.602C757.694 905.042 755.832 904.494 754.635 902.409C754.528 901.391 754.555 900.68 754.966 899.744C758.413 891.909 769.569 894.942 774.15 893.211C773.878 892.845 773.612 892.474 773.334 892.113C771.664 889.946 770.787 888.259 770.263 885.533C769.505 881.589 770.525 879.115 772.724 875.877Z"/>
	<path fill="#D7CFF9" d="M868.396 698.934C871.617 698.982 874.036 699.911 876.457 702.096C880.962 706.162 882.355 712.426 882.656 718.226C883.719 716.613 884.809 715.007 886.011 713.493C888.697 710.11 893.447 705.888 897.897 705.603C899.55 705.498 900.357 706.087 901.535 707.15C902.336 709.133 902.363 710.579 901.648 712.619C899.814 717.846 895.152 721.478 890.39 723.9C893.393 724.873 896.986 726.214 899.334 728.361C900.716 729.625 902.115 731.436 902.045 733.42C901.988 735.007 901.438 736.294 900.171 737.295C898.401 738.694 895.864 738.884 893.722 738.473C887.719 737.323 885.938 733.05 882.801 728.619L882.58 729.394C882.578 734.094 881.701 738.517 879.008 742.476C877.502 744.692 875.124 746.996 872.313 747.25C870.999 747.369 869.774 746.983 868.839 746.034C867.646 744.825 867.222 743.086 867.209 741.437C867.157 734.652 872.144 729.714 876.472 725.149C872.166 727.165 867.795 728.906 863.061 729.593C859.626 730.092 854.302 730.326 851.533 727.781C850.636 726.956 850.002 725.996 850.053 724.73C850.109 723.323 851.148 722.114 852.171 721.245C857.759 716.495 864.283 716.944 871.061 717.312C868.634 714.077 866.485 710.117 866.221 706.007C866.032 703.067 866.481 701.155 868.396 698.934Z"/>
	<path fill="#D7CFF9" d="M981.343 878.806C983.736 878.841 985.989 879.368 988.06 880.603C992.949 883.518 994.014 889.761 995.32 894.813L996.056 894.255C999.952 891.313 1005.71 887.209 1010.85 888.192C1012.45 888.497 1012.91 889.204 1013.74 890.453C1013.9 891.518 1013.96 892.287 1013.61 893.325C1011.83 898.559 1005.35 901.848 1000.71 904.167C1005.23 907.406 1010.43 911.476 1012.19 916.97C1012.7 918.548 1012.59 919.446 1011.85 920.902C1009.6 922.416 1006.17 922.133 1003.63 921.609C999.586 920.779 996.81 915.654 994.795 912.449L994.672 913.14C994.895 914.237 995.115 915.34 995.245 916.452C995.676 920.126 994.899 925.018 992.46 927.934C991.39 929.214 990.346 929.688 988.678 929.852C987.09 929.415 986.189 928.721 985.408 927.289C982.414 921.793 984.528 914.112 985.989 908.432C982.728 910.342 979.501 911.961 975.699 912.466C972.141 912.938 967.701 912.53 964.825 910.151C963.691 909.213 962.762 907.822 962.828 906.296C962.892 904.821 963.665 903.604 964.704 902.621C969.8 897.801 978.382 898.258 984.841 898.593C983.202 896.372 981.76 894.153 980.856 891.522C979.382 887.231 979.349 882.919 981.343 878.806Z"/>
	<path fill="#D7CFF9" d="M969.247 665.2C970.768 665.264 972.101 665.392 973.473 666.108C978.438 668.699 980.048 674.732 981.637 679.661C985.361 676.765 989.51 673.45 994.342 672.859C995.998 672.656 997.161 672.84 998.484 673.931C998.866 675.109 999.046 675.519 998.712 676.758C997.413 681.577 990.916 685.12 986.872 687.454C990.791 690.468 999.182 692.914 1000.68 697.92C1001.16 699.493 1000.76 702.061 999.78 703.398C999.169 704.229 998.398 704.51 997.425 704.654C994.128 705.141 990.075 702.563 987.587 700.634L986.931 700.121L986.411 700.287L986.205 701.555C985.844 704.19 985.621 706.838 985.38 709.486C984.878 710.27 984.372 711.074 983.78 711.795C982.613 713.216 981.189 714.134 979.281 714.067C977.919 714.019 976.991 713.52 976.151 712.463C972.929 708.405 975.558 697.539 976.409 693.017C972.838 695.056 969.316 697.073 965.304 698.122C962.66 698.814 958.714 699.33 956.304 697.638C955.239 696.891 954.624 695.987 954.516 694.662C954.388 693.092 955.381 691.472 956.425 690.373C960.798 685.775 967.88 685.443 973.793 685.314C972.595 683.465 971.389 681.592 970.417 679.612C968.276 675.253 967.583 669.836 969.247 665.2Z"/>
	<path fill="#D7CFF9" d="M712.197 979.997C714.563 979.832 716.768 979.907 719.037 980.688C723.973 982.387 726.601 986.241 728.782 990.712C731.088 986.825 735.004 982.339 739.541 981.159C741.115 980.749 742.065 980.932 743.41 981.789C744.084 982.764 744.433 983.488 744.444 984.703C744.5 991.011 738.471 995.969 734.355 999.952C737.654 1001.82 741.863 1004.56 742.79 1008.56C743.063 1009.74 743.053 1010.9 742.251 1011.88C740.438 1014.11 737.377 1014.02 734.785 1014.07C733.225 1013.85 731.493 1013.43 730.093 1012.69C726.17 1010.63 725.068 1006.72 723.958 1002.77C721.278 1005.03 718.501 1007.12 715.152 1008.27C711.654 1009.48 707.194 1009.75 703.857 1007.89C702.721 1007.26 702.095 1006.55 701.694 1005.3C701.781 1004.13 701.962 1003.29 702.678 1002.32C706.371 997.326 715.012 996.704 720.71 995.784C718.085 994.208 715.181 992.72 712.949 990.601C711.386 989.117 709.728 987.05 709.851 984.753C709.97 982.556 710.746 981.518 712.197 979.997Z"/>
	<path fill="#D7CFF9" d="M365.644 641.044L413.036 641.494C431.808 641.51 450.477 641.168 469.211 642.594C482.324 644.983 495.561 646.756 508.65 649.321Q536.269 654.841 563.332 662.643C572.757 665.282 582.242 667.792 591.5 670.976C646.687 689.953 689.607 720.168 722.949 768.41C730.097 778.752 737.197 789.953 741.819 801.663C734.535 803.685 727.029 807.415 723.245 814.297C721.099 818.199 720.486 822.427 721.757 826.72C725.224 838.429 740.452 845.619 749.657 852.393C738.189 850.573 717.319 848.075 707.315 855.579C705.661 856.82 704.33 858.51 704.043 860.606C703.612 863.75 705.504 866.662 707.413 868.966C717.568 881.224 737.876 887.593 750.105 899.242C736.495 894.49 716.714 888.234 702.777 894.77C698.747 896.66 695.563 899.726 694.127 903.999C691.825 910.847 694.146 918.165 697.374 924.29C702.164 933.375 708.748 943.363 715.768 950.821C699.097 939.831 669.815 921.699 649.507 925.451C644.826 926.316 640.441 928.811 637.819 932.868C635.628 936.258 635.294 940.238 636.161 944.117C639.127 957.381 653.629 968.799 662.586 978.523C635.716 972.556 603.935 974.494 580.177 989.435C575.266 992.524 568.636 997.589 567.133 1003.43C566.572 1005.61 567.037 1007.37 568.187 1009.27C571.845 1015.28 579.205 1019.85 584.782 1024L0 1024L0 925.97Q34.615 906.86 70.3322 889.899C80.2057 885.104 89.9547 880.036 99.9375 875.469C117.936 867.235 136.473 860.182 154.211 851.38C153.337 859.817 151.885 868.193 151.091 876.646Q150.037 888.435 150.21 900.27Q150.382 912.105 151.778 923.858Q153.082 934.809 155.11 945.649C155.805 949.507 156.839 953.585 157.113 957.489C157.531 963.44 154.962 971.36 157.245 976.936C158.241 979.367 160.314 980.464 162.686 981.328C172.394 984.864 179.619 978.784 187.502 974.319C190.75 972.479 194.232 970.964 197.617 969.391C197.331 974.403 195.438 982.483 198.734 986.722C200.925 989.54 205.307 991.263 208.785 991.487C216.523 991.985 224.851 987.211 232.124 985.061C238.962 983.04 258.32 979.14 262.947 974.799Q263.165 974.592 263.36 974.363Q263.555 974.134 263.725 973.885Q263.894 973.636 264.036 973.371Q264.179 973.106 264.292 972.827Q264.405 972.548 264.488 972.259Q264.571 971.97 264.623 971.674Q264.674 971.377 264.694 971.077Q264.714 970.777 264.702 970.476C264.613 968.021 263.296 965.471 261.465 963.865C255.322 958.481 241.327 961.076 233.508 961.398C241.495 917.88 243.75 873.053 244.253 828.888Q250.474 827.267 256.757 825.909C254.549 834.51 253.097 843.432 251.125 852.112C260.371 861.922 270.24 865.69 283.02 868.818C283.032 897.025 285.069 924.806 287.916 952.846C288.191 955.551 288.691 958.429 288.621 961.149C288.497 965.915 285.905 972.213 287.705 976.769C288.541 978.882 290.424 980.405 292.485 981.242C303.375 985.668 312.604 975.983 321.887 972.035C322.087 971.95 322.289 971.871 322.49 971.789Q322.456 973.157 322.467 974.525C322.516 977.598 323.188 980.273 325.564 982.399C327.902 984.492 331.322 984.752 334.305 984.464C339.066 984.003 359.417 977.436 363.776 975.238C364.959 974.641 365.882 973.871 366.681 972.812C367.987 971.078 368.632 968.599 368.205 966.448C366.451 957.606 350.121 963.193 345.294 959.65C338.907 948.335 351.024 881.295 354.304 866.233C363.178 864.094 376.66 860.561 383.153 853.795C384.137 852.77 383.914 851.082 383.862 849.77C383.718 846.106 382.947 842.354 382.451 838.714C380.901 827.327 378.662 815.451 378.416 803.975L378.403 803.186L382.875 799.198C383.839 802.691 384.988 809.129 388.267 811.049C389.384 811.045 389.921 811.145 390.719 810.195C394.069 806.205 392.806 791.907 392.223 787.007C389.959 776.983 386.28 767.179 384.688 757.017C383.102 746.891 382.48 736.542 381.348 726.348C378.523 700.918 375.134 674.43 368.177 649.791C367.557 646.876 366.48 643.916 365.644 641.044Z"/>
	<path fill="#9F8BE8" d="M368.177 649.791C382.028 649.044 401.28 653.362 415.016 656.414C455.346 665.373 526.381 685.288 557.045 712.884C562.733 718.003 569.136 725.154 569.373 733.231C569.52 738.223 566.73 742.471 563.3 745.85C539.944 768.86 425.915 786.678 392.223 787.007C389.959 776.983 386.28 767.179 384.688 757.017C383.102 746.891 382.48 736.542 381.348 726.348C378.523 700.918 375.134 674.43 368.177 649.791Z"/>
	<path fill="#9F8BE8" d="M132.292 462.172C137.784 455.828 143.281 449.971 150.395 445.401Q151.9 444.423 153.451 443.52Q155.002 442.618 156.596 441.793Q158.19 440.967 159.822 440.222Q161.455 439.476 163.122 438.812Q164.789 438.147 166.487 437.566Q168.185 436.984 169.91 436.487Q171.634 435.99 173.381 435.578Q175.128 435.166 176.893 434.841Q178.658 434.516 180.437 434.278Q182.215 434.04 184.004 433.89Q185.792 433.74 187.586 433.678Q189.38 433.616 191.174 433.643Q192.969 433.669 194.76 433.784Q196.551 433.899 198.334 434.102Q200.117 434.305 201.888 434.595Q203.659 434.886 205.414 435.263Q206.989 435.601 208.545 436.016Q210.101 436.431 211.636 436.922Q213.17 437.413 214.678 437.978Q216.186 438.543 217.665 439.182Q219.143 439.821 220.589 440.531Q222.034 441.241 223.443 442.022Q224.852 442.802 226.221 443.651Q227.59 444.499 228.916 445.414Q230.242 446.329 231.521 447.307Q232.801 448.286 234.03 449.326Q235.26 450.366 236.438 451.465Q237.615 452.564 238.737 453.72Q239.859 454.875 240.923 456.085Q241.987 457.294 242.99 458.554Q243.994 459.814 244.934 461.121Q245.875 462.429 246.75 463.781C256.719 456.341 265.65 452.192 277.544 448.806L277.592 547.492C277.595 565.763 277.185 584.144 277.902 602.399C273.553 604.956 269.452 606.816 264.7 608.54C265.867 615.648 268.906 622.098 271.078 628.909C272.995 634.916 273.918 641.349 274.802 647.577Q270.109 659.088 265.909 670.789C262.239 657.982 259.78 644.649 257.139 631.588C255.625 624.102 254.451 616.387 251.832 609.187C250.114 604.465 247.651 599.868 244.474 595.963C239.763 590.172 233.03 587.079 228.129 581.77C225.14 578.533 223.371 574.552 220.208 571.332C219.959 569.894 219.862 569.345 220.523 567.97C222.358 566.498 224.452 565.465 226.281 564.006C231.608 559.757 234.24 553.883 234.936 547.224C235.323 543.518 235.552 538.856 234.617 535.239C234.139 533.39 233.349 531.62 232.958 529.743C231.548 522.968 232.907 514.957 234.608 508.396C232.453 503.095 228.661 499.849 223.433 497.624C214.487 493.816 203.816 492.304 194.639 496.014C186.048 499.487 177.658 504.617 173.919 513.504C171.097 520.21 171.678 526.912 174.424 533.502C176.826 539.267 185.593 549.163 183.704 555.538C183.041 557.775 176.528 559.117 174.488 561.131C171.499 564.083 170.472 568.776 167.714 571.947C165.671 574.297 162.888 576.283 160.52 578.31C156.447 581.798 152.459 585.561 149.043 589.707C145.344 594.197 142.333 599.421 139.867 604.676C131.597 622.304 125.995 641.287 120.617 659.954C118.499 667.306 115.655 675.479 115.06 683.127C114.851 685.811 115.141 687.827 116.066 690.348C120.052 701.204 134.697 721.387 143.882 728.155C143.343 736.294 144.518 742.948 145.189 750.964C146.572 767.49 148.519 783.818 150.767 800.248C152.371 811.97 157.001 841.011 154.211 851.38C136.473 860.182 117.936 867.235 99.9375 875.469C89.9547 880.036 80.2057 885.104 70.3322 889.899Q34.615 906.86 0 925.97L0 609.4C23.3032 609.479 46.5778 608.844 69.8682 608.854C47.4883 598.057 31.0507 584.571 22.1325 560.616Q21.7974 559.708 21.485 558.791Q21.1726 557.875 20.8832 556.951Q20.5938 556.026 20.3275 555.096Q20.0612 554.165 19.8181 553.227Q19.5751 552.29 19.3556 551.347Q19.136 550.404 18.94 549.456Q18.744 548.508 18.5718 547.555Q18.3995 546.602 18.251 545.645Q18.1025 544.688 17.978 543.728Q17.8534 542.768 17.7528 541.805Q17.6522 540.842 17.5757 539.876Q17.4991 538.911 17.4467 537.944Q17.3942 536.978 17.3659 536.01Q17.3375 535.042 17.3333 534.074Q17.3291 533.105 17.3491 532.137Q17.369 531.169 17.4131 530.202Q17.4572 529.235 17.5254 528.269Q17.5935 527.303 17.6858 526.339Q17.778 525.375 17.8942 524.414Q18.0105 523.453 18.1507 522.495Q18.2908 521.536 18.4548 520.582Q18.6188 519.628 18.8066 518.678Q18.9944 517.728 19.2057 516.783Q19.4171 515.838 19.652 514.899Q19.8869 513.959 20.1451 513.026Q20.4033 512.093 20.6847 511.167Q20.9661 510.24 21.2705 509.321Q21.575 508.402 21.9022 507.49Q22.2294 506.579 22.5793 505.676Q22.9292 504.773 23.3014 503.88Q23.6737 502.986 24.0681 502.101Q24.4625 501.217 24.8789 500.343C34.4358 479.774 49.7242 466.05 70.9821 458.4C91.4059 451.05 112.784 452.946 132.292 462.172Z"/>
	<path fill="#9F8BE8" d="M241.419 715.842C246.081 721.3 250.223 727.199 254.922 732.632C261.404 740.125 268.603 746.402 276.387 752.471C271.882 764.707 268.847 777.317 265.656 789.939Q261.029 807.88 256.757 825.909Q250.474 827.267 244.253 828.888C244.607 816.967 243.936 804.923 243.539 793.005C242.683 767.354 241.303 741.494 241.419 715.842Z"/>
	<path fill="#FEFEFE" d="M283.664 360.27C295.179 342.848 310.136 325.895 322.839 309.1C345.496 279.146 367.381 248.574 389.928 218.528C408.363 193.96 427.999 169.755 444.786 144.035C468.803 167.375 490.752 193.182 513.365 217.891Q559.345 267.528 606.049 316.485C614.753 325.588 637.93 352.702 647.429 356.7L648.201 357.032L648.59 626.367L549.544 626.066C549.516 618.855 548.936 580.72 546.241 576.797C539.895 575.252 532.368 576.684 525.798 576.215C524.746 571.313 525.453 564.708 525.478 559.679L525.622 527.638L525.394 404.468C536.328 396.94 547.639 389.972 558.82 382.817C564.875 378.943 571.393 373.845 577.98 371.117C579.303 370.119 580.635 369.378 581.108 367.7C580.914 366.957 581.014 366.574 580.292 366.146C579.068 365.42 577.605 365.262 576.207 365.175C569.747 364.774 562.872 365.432 556.373 365.599L518.167 366.527L415.303 369.316C406.397 369.564 379.759 369.167 373.419 371.174C363.494 374.316 352.209 380.69 342.572 385.06C332.685 389.543 322.778 393.929 312.959 398.561C309.375 400.251 305.504 401.652 302.058 403.594C300.613 404.408 298.873 405.424 298.077 406.945C297.529 407.99 297.615 408.333 297.781 409.447C299.563 411.489 301.794 411.736 304.4 411.905C315.784 412.641 327.612 411.398 339.055 411.396Q339.278 479.983 338.526 548.566C328.004 547.655 317.836 549.292 309.497 556.261Q308.953 556.708 308.432 557.181Q307.911 557.654 307.415 558.153Q306.918 558.651 306.446 559.174Q305.975 559.696 305.529 560.241Q305.084 560.786 304.667 561.353Q304.249 561.919 303.86 562.506Q303.471 563.092 303.111 563.697Q302.751 564.302 302.422 564.924Q302.093 565.546 301.795 566.184Q301.497 566.821 301.231 567.473Q300.964 568.124 300.731 568.788Q300.497 569.452 300.297 570.127Q300.096 570.802 299.929 571.485Q299.762 572.169 299.63 572.86Q299.497 573.551 299.398 574.248Q299.3 574.945 299.236 575.646C298.527 584.258 300.56 592.349 293.045 598.761C290.354 601.056 287.381 602.667 284.062 603.853L283.664 360.27Z"/>
	<path fill="#9F8BE8" d="M525.394 404.468C536.328 396.94 547.639 389.972 558.82 382.817C564.875 378.943 571.393 373.845 577.98 371.117C568.721 384.989 552.203 401.995 539.344 412.85C534.985 416.53 530.272 419.746 525.825 423.306Q526.307 475.327 526.073 527.35L526.033 558.135C526.046 564.037 526.489 570.366 525.798 576.215C524.746 571.313 525.453 564.708 525.478 559.679L525.622 527.638L525.394 404.468Z"/>
	<path fill="#090634" d="M597.025 429.25C600.369 429.122 607.673 427.956 610.192 430.206C611.29 435.963 610.929 539.571 609.996 544.401C607.106 546.614 563.027 545.607 555.815 545.602C552.115 545.7 547.393 546.377 543.837 545.405C542.544 542.048 542.786 439.568 543.469 430.023Q570.25 429.875 597.025 429.25Z"/>
	<path fill="#FEFEFE" d="M549.199 489.959L604.703 489.974L604.743 539.914L549.112 540.421C548.848 523.672 548.637 506.698 549.199 489.959Z"/>
	<path fill="#FEFEFE" d="M599.382 434.77C601.157 434.664 602.857 434.42 604.568 435.02C605.938 438.9 605.117 477.787 604.726 484.321C588.203 484.144 571.652 484.416 555.125 484.38C553.211 484.408 551.304 484.307 549.392 484.221C549.275 468.144 548.859 452.027 549.186 435.955Q574.279 435.138 599.382 434.77Z"/>
	<path fill="#090634" d="M469.754 236.203C470.817 236.092 471.941 235.927 473.009 235.961C474.297 236.001 474.867 236.352 475.732 237.24C476.809 244.081 476.058 251.585 476.197 258.534Q476.6 284.24 476.517 309.949C476.526 319.607 477.263 329.917 475.83 339.467L475.561 339.563L475.634 340.251C472.563 342.124 436.433 341.941 430.621 342.043C428.694 342.135 425.765 342.632 424.062 341.583C423.051 340.96 422.652 339.91 422.553 338.777C422.203 334.745 422.521 330.428 422.538 326.366L422.591 301.045C422.577 282.479 421.702 263.137 422.612 244.653C422.692 243.033 422.643 241.399 423.644 240.093C428.838 238.75 435.23 239.043 440.623 238.665Q455.209 237.678 469.754 236.203Z"/>
	<path fill="#FEFEFE" d="M464.527 291.72L470.606 291.501C470.824 306.165 470.66 320.855 470.675 335.521L435.557 336.458L428.482 336.484L428.493 293.118Q446.506 292.324 464.527 291.72Z"/>
	<path fill="#FEFEFE" d="M465.251 242.298C467.01 242.108 468.496 241.861 470.203 242.411C471.165 246.803 470.561 252.275 470.559 256.808L470.528 285.616L434.125 287.503C432.326 287.575 430.404 287.866 428.765 287.002C428.005 282.345 428.462 277.173 428.475 272.445L428.555 245.104C440.756 243.864 453.035 243.423 465.251 242.298Z"/>
	<path fill="#9F8BE8" d="M654.361 357.306C667.089 357.998 679.984 360.602 692.656 362.184L787.842 374.715C812.013 377.993 836.288 380.8 860.506 383.724C875.425 385.525 890.421 387.06 905.213 389.739C906.277 415.394 905.458 441.423 905.465 467.109Q905.646 538.853 905.097 610.595C900.589 611.271 895.928 611.393 891.378 611.705C864.611 614.383 837.48 614.846 810.632 616.602Q732.763 622.062 654.832 626.547L654.361 357.306Z"/>
	<path fill="#090634" d="M798.322 435.996C805.986 435.88 876.826 439.574 879.56 441.35C881.57 448.419 880.355 489.689 880.324 500.455C880.285 514.097 880.854 527.962 880.262 541.574C880.186 543.31 880.049 544.773 879.392 546.403C871.433 548.122 850.501 546.83 841.073 546.796C827.271 546.747 813.29 547.512 799.519 546.681C799.046 546.328 798.768 546.483 798.196 546.516C797.921 546.139 797.874 546.127 797.715 545.594C796.663 542.064 797.498 518.395 797.503 512.339C797.521 488.654 796.922 464.871 797.437 441.199C797.478 439.298 797.561 437.772 798.322 435.996Z"/>
	<path fill="#FEFEFE" d="M803.495 493.001Q820.109 493.12 836.72 493.441C837.114 509.143 836.939 524.906 836.801 540.614C825.748 540.971 814.586 540.634 803.523 540.579L803.495 493.001Z"/>
	<path fill="#FEFEFE" d="M842.556 493.617C853.119 494.127 863.819 493.808 874.404 493.932Q874.452 517.432 874.238 540.932C863.792 541.317 853.042 540.665 842.549 540.692L842.556 493.617Z"/>
	<path fill="#FEFEFE" d="M803.606 441.887C814.495 441.889 825.862 442.992 836.719 444C836.877 458.581 836.63 473.187 836.562 487.769C825.761 488.352 814.399 487.46 803.535 487.329L803.606 441.887Z"/>
	<path fill="#FEFEFE" d="M842.509 443.96L874.329 446.039Q874.454 467.135 874.327 488.231C863.76 488.419 853.134 488.144 842.562 488.073C842.343 473.379 842.522 458.657 842.509 443.96Z"/>
	<path fill="#090634" d="M700.137 432.551C705.723 432.355 752.756 433.81 755.779 435.226C756.099 435.882 756.145 435.899 756.33 436.735C757.424 441.68 756.547 466.029 756.542 472.791L756.551 519.034C756.554 526.877 756.931 534.926 756.507 542.75C756.413 544.491 756.314 545.081 755.344 546.527C737.305 546.416 717.458 547.332 699.654 545.868C698.078 531.125 699.328 513.401 699.335 498.292C699.344 477.953 698.398 457.395 699.194 437.095C699.262 435.366 699.379 434.114 700.137 432.551Z"/>
	<path fill="#FEFEFE" d="M705.06 438.164C712.867 438.024 720.698 438.832 728.485 439.274C735.812 439.689 743.163 439.781 750.474 440.436L750.439 487.302C735.438 487.268 720.409 486.752 705.407 486.544Q704.939 462.356 705.06 438.164Z"/>
	<path fill="#FEFEFE" d="M705.101 492.179Q727.686 492.961 750.285 492.983L750.395 540.545L705.082 540.216C705.05 524.213 704.808 508.179 705.101 492.179Z"/>
	<defs>
		<linearGradient id="gradient_0" gradientUnits="userSpaceOnUse" x1="437.02609" y1="134.26588" x2="845.24866" y2="299.42245">
			<stop offset="0" stop-color="#6050A4"/>
			<stop offset="1" stop-color="#9C8FDD"/>
		</linearGradient>
	</defs>
	<path fill="url(#gradient_0)" d="M440.575 117.97C463.366 123.386 486.272 128.023 509.157 132.991L593.156 151.693C610.455 155.568 628.115 159.045 645.262 163.489C636.033 164.684 626.702 165.366 617.427 166.104C612.139 166.524 606.015 166.417 600.942 167.932C599.609 168.329 598.051 168.937 597.395 170.194L597.895 171.109C600.333 172.562 602.745 172.822 605.556 172.798C613.362 172.731 621.499 171.433 629.302 170.729L670.651 167.216C710.94 163.676 751.393 160.662 791.557 155.883Q770.017 182.088 749.126 208.813C741.791 218.204 734.231 227.274 727.26 236.953C709.135 238.258 690.763 238.619 672.59 239.415C665.677 239.717 658.483 239.406 651.619 240.201C649.902 240.4 647.999 240.8 646.547 241.792C645.614 242.43 644.747 243.4 644.701 244.583C644.636 246.252 645.689 248.29 646.9 249.402C648.949 251.284 655.501 250.596 658.318 250.611C658.64 258.684 658.39 266.836 658.362 274.918C666.463 283.625 718.631 339.741 722.706 341.515C724.276 341.162 724.539 340.69 725.65 339.573C724.703 329.391 725.402 318.557 725.412 308.309L725.49 248.567C729.113 248.523 732.662 248.164 736.262 247.777C743.388 239.193 749.95 230.067 756.91 221.331Q773.127 201.055 789.91 181.245C793.683 188.828 798.315 195.925 802.207 203.441C805.643 208.551 808.483 214.218 811.552 219.566C815.417 226.302 819.594 232.853 823.456 239.59C827.658 246.923 831.549 254.518 836.072 261.653C836.419 275.1 836.042 288.579 836.011 302.031C835.987 312.231 836.394 322.608 835.934 332.78C836.01 336.427 834.975 346.704 837.5 349.295C837.614 349.411 837.743 349.512 837.865 349.621Q838.322 358.981 837.987 368.347C827.157 366.396 816.267 364.97 805.389 363.339C783.338 361.64 761.246 357.01 739.343 353.817C709.832 349.515 680.218 346.206 650.746 341.5C642.003 333.298 633.816 324.265 625.483 315.644Q601.092 290.839 577.616 265.166L502.201 184.26L459.129 138.022C452.913 131.329 446.022 125.347 440.575 117.97Z"/>
	<path fill="#9F8BE8" d="M822.496 356.025C825.028 350.212 826.531 344.81 827.517 338.543C828.036 335.243 828.266 331.624 829.284 328.45L830.134 328.187L830.67 329.113L831.789 328.525L831.633 328.306C836.323 317.731 835.099 304.827 834.948 293.533L835.367 293.633L835.179 291.601C835.898 293.708 835.398 297.272 835.387 299.58C835.342 308.496 834.262 324.086 835.848 332.37C835.874 332.507 835.905 332.644 835.934 332.78C836.01 336.427 834.975 346.704 837.5 349.295C837.614 349.411 837.743 349.512 837.865 349.621Q838.322 358.981 837.987 368.347C827.157 366.396 816.267 364.97 805.389 363.339C812.643 362.508 816.77 360.366 822.496 356.025Z"/>
	<path fill="#9F8BE8" d="M736.262 247.777C743.388 239.193 749.95 230.067 756.91 221.331Q773.127 201.055 789.91 181.245C793.683 188.828 798.315 195.925 802.207 203.441L801.51 203.606C797.222 197.028 793.981 189.743 789.589 183.232C772.975 201.537 757.826 221.569 742.684 241.091C741.104 243.128 736.727 247.406 735.864 249.347C735.551 250.053 735.779 251.285 735.427 251.947C734.574 253.551 731.819 254.269 730.789 255.865C728.241 259.811 730.43 277.159 728.039 278.748L728.392 278.009L727.95 277.517L727.949 276.858C727.934 275.156 727.884 273.904 727.256 272.32C727.253 277.48 727.256 282.376 726.607 287.519L726.519 285.821C725.706 292.537 725.97 299.409 725.992 306.167C726.029 317.423 726.234 328.591 725.924 339.851L725.65 339.573C724.703 329.391 725.402 318.557 725.412 308.309L725.49 248.567C729.113 248.523 732.662 248.164 736.262 247.777Z"/>
	<path fill="#090634" d="M764.14 236.034C772.556 237.799 790.25 240.771 797.444 243.73C798.234 244.056 799.881 244.788 800.127 245.646C800.891 248.298 800.765 328.604 799.856 330.238C799.516 330.85 799.006 330.703 798.381 330.793C786.241 329.401 774.139 327.274 762.038 325.557C761.683 318.592 761.909 311.505 761.857 304.525L761.589 263.271C761.568 257.84 760.713 242.596 761.754 238.688C762.154 237.186 762.964 236.883 764.14 236.034Z"/>
	<path fill="#FEFEFE" d="M767.081 242.297C776.382 244.234 785.616 246.286 794.714 249.041C795.024 260.304 794.797 271.639 794.51 282.899C790.555 283.407 772.221 279.439 767.337 278.516C766.66 266.53 767.074 254.311 767.081 242.297Z"/>
	<path fill="#FEFEFE" d="M767.286 284.588C776.422 285.792 785.572 287.432 794.648 289.031L794.487 324.077C785.537 323.668 776.296 321.413 767.403 320.101Q767.212 302.344 767.286 284.588Z"/>
	<path fill="#FEFEFE" d="M168.458 578.054C174.694 578.419 181.108 580.136 187.305 581.131C197.865 582.826 208.559 584.044 219.041 586.166C230.905 588.569 239.698 596.081 245.3 606.743C250.145 615.962 251.097 628.42 253.293 638.582C258.781 663.982 264.767 688.589 274.457 712.761C277.326 719.918 280.103 727.073 284.354 733.548L278.093 747.189C273.167 743.459 268.633 738.889 264.276 734.513C241.866 712.003 229.365 686.542 221.151 656.216Q219.008 648.308 217.422 640.269C216.635 636.381 216.252 631.619 214.706 628.018C213.51 627.362 213.246 627.43 211.864 627.51L211.098 628.548C210.168 633.502 212.002 639.449 213.098 644.346C218.015 666.324 225.127 689.19 236.812 708.532L235.922 721.12C235.162 726.732 231.945 731.123 228.177 735.174C217.343 746.818 202.199 755.005 186.101 755.487C170.38 755.958 160.488 749.205 149.43 738.782C148.63 727.942 149.621 716.475 149.903 705.601L151.404 642.955C151.494 638.126 151.515 633.286 151.695 628.459C151.79 625.934 152.251 623.208 152.07 620.703C151.999 619.731 151.841 619.309 151.314 618.516C150.081 617.973 149.86 617.964 148.516 618.123C147.753 618.821 147.416 619.041 147.196 620.099C146.358 624.132 146.894 629.629 146.81 633.847C146.602 644.236 146.398 654.693 145.806 665.067C145.602 668.629 144.22 677.501 141.777 680.229C140.963 681.138 138.985 681.536 138.007 682.535C137.266 683.292 137.365 683.662 137.354 684.648C138.793 687.106 142.018 689.235 144.554 690.391C144.714 690.464 144.876 690.531 145.037 690.601Q145.061 705.599 144.219 720.573C134.14 712.128 124.079 697.454 119.67 685.104C124.035 663.084 136.057 622.061 147.001 602.759C152.321 593.378 159.502 584.198 168.458 578.054Z"/>
	<path fill="#FEFEFE" d="M305.871 712.509C319.031 712.227 331.676 714.136 344.907 712.561C351.222 719.862 356.142 728.627 359.425 737.688C362.436 745.997 364.053 754.993 365.825 763.636C371.725 792.406 375.797 822.266 378.495 851.499C363.463 859.324 347.605 862.512 330.879 864.073C330.155 864.171 329.437 864.24 328.709 864.294C304.417 866.117 276.758 867.638 257.192 850.746C260.548 833.044 264.996 815.342 269.414 797.878C275.827 772.532 284.855 729.404 305.871 712.509Z"/>
	<path fill="#9F8BE8" d="M235.803 734.407C236.086 734.978 236.116 734.974 236.288 735.704C237.503 740.874 236.33 753.438 236.537 759.606C237.238 780.558 238.329 801.559 238.522 822.522C238.875 860.986 236.926 900.185 231.544 938.274C230.344 946.769 230.163 957.38 226.053 964.994C218.083 968.174 210.81 968.236 202.453 966.709C200.716 961.176 200.002 955.34 199.165 949.618C196.324 927.046 194.931 903.14 198.418 880.57C200.194 869.074 203.273 857.813 206.35 846.611C204.037 838.083 201.094 829.715 198.668 821.212C193.039 801.479 188.932 781.52 187.362 761.042Q189.788 760.794 192.207 760.477C209.655 758.138 225.122 748.274 235.803 734.407Z"/>
	<path fill="#FEFEFE" d="M429.261 445.249C446.395 444.664 463.648 445.015 480.797 444.959C481.277 463.279 480.987 481.708 480.967 500.037L480.821 576.197L475.625 576.259L423.311 576.415L423.515 445.444L429.261 445.249Z"/>
	<path fill="#090634" d="M437.053 460.818C447.476 462.867 463.591 459.143 473.365 461.362C473.734 469.854 474.345 498.972 472.611 505.891C469.061 507.798 439.611 506.909 433.359 506.942L433.16 479.531C433.119 474.009 432.464 467.578 433.684 462.187C434.814 460.9 435.401 461.077 437.053 460.818Z"/>
	<path fill="#FEFEFE" d="M469.026 464.217L469.834 464.808C471.18 470.551 470.398 495.811 470.426 503.282L436.323 503.514C435.894 491.737 435.627 479.255 436.249 467.492C436.323 466.083 436.256 465.269 437.336 464.316C444.582 464.988 462.093 465.252 469.026 464.217Z"/>
	<path fill="#090634" d="M433.511 525.427C446.692 525.181 460.181 524.535 473.341 525.24Q473.556 537.256 473.357 549.272C473.324 553.5 473.602 557.991 473.06 562.181L472.885 562.74C472.577 562.883 472.289 563.083 471.961 563.17C471.876 563.192 439.197 563.513 437.104 563.369C435.626 563.268 434.484 563.106 433.207 562.345C432.516 561.051 432.725 560.562 432.865 559.132C433.169 547.891 432.913 536.661 433.511 525.427Z"/>
	<path fill="#FEFEFE" d="M435.979 528.661L470.242 528.532C470.189 537.624 469.159 551.359 470.429 559.832C459.152 558.339 447.178 561.291 435.92 559.617L435.979 528.661Z"/>
	<path fill="#090634" d="M470.429 559.832C471.262 559.431 471.602 559.517 471.942 558.6C473.635 554.025 470.648 545.176 472.721 541.14C472.705 547.882 472.047 555.539 473.06 562.181L472.885 562.74C472.577 562.883 472.289 563.083 471.961 563.17C471.876 563.192 439.197 563.513 437.104 563.369C435.626 563.268 434.484 563.106 433.207 562.345C432.516 561.051 432.725 560.562 432.865 559.132L435.92 559.617C447.178 561.291 459.152 558.339 470.429 559.832Z"/>
	<path fill="#9F8BE8" d="M150.483 747.711C161.228 755.289 167.496 759.609 180.949 760.709C182.063 773.244 183.756 785.902 186.73 798.143C188.839 806.821 193.23 817.118 193.771 825.872C194.214 833.033 192.106 840.888 191 848.003Q188.887 861.838 187.266 875.739C184.364 900.066 182.969 924.406 182.012 948.875C182.064 950.303 182.172 951.549 181.667 952.918C179.858 954.933 177.521 955.888 174.873 956.305C171.688 956.807 166.105 958.148 163.44 956.224C160.495 951.7 159.971 943.593 159.144 938.238C155.962 917.655 154.712 895.967 156.689 875.212C158.082 860.578 161.249 846.738 160.437 831.896C159.96 823.167 158.542 814.458 157.311 805.808C154.572 786.557 151.256 767.169 150.483 747.711Z"/>
	<path fill="#6A5BB1" d="M551.51 369.245C557.311 369.23 563.123 369.383 568.923 369.454C559.408 375.736 549.482 381.515 539.812 387.564C533.401 391.574 527.216 395.919 520.792 399.901Q443.206 401.939 365.596 402.641C353.927 402.829 342.263 403.394 330.591 403.616C324.886 404.006 319.173 403.896 313.47 404.442C327.516 396.687 342.905 390.728 357.503 384.029C363.918 381.085 370.558 376.682 377.352 374.949C382.221 373.707 388.618 374.213 393.66 374.046Q412.467 373.38 431.281 372.942C471.368 371.78 511.403 369.724 551.51 369.245Z"/>
	<path fill="#FEFEFE" d="M317.815 635.614C318.797 637.057 319.78 638.51 320.992 639.772C324.301 643.216 328.829 644.889 333.562 644.857C343.404 644.79 350.843 639.568 357.383 632.751C359.228 638.116 361.271 643.506 362.803 648.971C364.694 655.721 365.86 662.763 367.237 669.632Q372.744 696.573 376.043 723.873C377.522 736.066 378.247 748.345 380.283 760.47C382.772 775.288 388.823 784.318 388.137 800.714C387.876 800.191 387.632 799.661 387.371 799.138C385.034 794.445 384.583 789.324 382.655 784.504C380.904 780.127 376.885 776.934 375.321 772.4C371.866 762.388 370.192 751.3 367.621 741.001Q361.197 715.7 353.259 690.833C350.358 681.67 347.569 672.268 343.798 663.428C343.643 663.468 343.488 663.513 343.332 663.548C342.662 663.698 342.069 663.701 341.389 663.697C340.81 664.453 340.301 665.187 339.827 666.012C344.22 683.31 350.688 687.54 345.213 707.004C332.229 708.545 318.213 708.537 305.234 706.949C299.589 696.95 295.269 686.007 290.988 675.358C288.84 670.014 286.967 664.289 284.172 659.248C283.283 657.644 282.088 656.448 280.748 655.22Q279.293 645.315 277.578 635.451Q278.293 636.253 279.044 637.021C284.059 642.113 292.106 646.465 299.397 646.283C306.965 646.093 312.934 640.838 317.815 635.614Z"/>
	<path fill="#00000B" d="M339.827 666.012C339.129 663.977 338.372 661.92 337.833 659.836C337.333 657.905 337.156 655.215 338.244 653.478L339.103 653.315C342.154 655.704 342.759 659.884 343.798 663.428C343.643 663.468 343.488 663.513 343.332 663.548C342.662 663.698 342.069 663.701 341.389 663.697C340.81 664.453 340.301 665.187 339.827 666.012Z"/>
	<path fill="#FEFEFE" d="M366.52 429.024C378.137 429.417 391.003 430.861 402.517 429.464L402.253 576.27L366.496 576.485L366.52 429.024Z"/>
	<path fill="#FEFEFE" d="M493.186 429.835C496.669 429.94 500.193 429.938 503.667 430.189C504.845 478.737 503.96 527.488 504.126 576.059L486.882 576.056C486.412 546.122 486.728 516.091 486.838 486.151C486.892 471.207 488.078 454.358 486.277 439.633C482.921 438.44 424.446 439.502 417.545 440.114C416.473 453.909 417.382 471.628 417.397 485.856L417.355 576.446L408.007 576.326Q407.431 503.89 407.852 431.457C427.949 430.772 448.15 431.039 468.264 430.699C476.394 430.562 485.171 431.114 493.186 429.835Z"/>
	<path fill="#6A5BB1" d="M842.482 286.244C860.857 303.663 879.658 320.581 898.143 337.865C914.543 353.2 930.596 369.029 947.551 383.757C935.855 382.819 924.168 380.663 912.536 379.076L837.987 368.347Q838.322 358.981 837.865 349.621C839.401 349.386 840.56 349.248 841.87 348.326C843.716 344.628 842.499 294.746 842.482 286.244Z"/>
	<path fill="#9F8BE8" d="M431.686 129.903C435.229 132.722 438.25 136.202 441.118 139.685C438.69 143.532 435.576 147.058 432.853 150.708L418.109 170.772L366.205 239.726L299.537 328.648C289.637 341.595 280.253 355.55 269.396 367.682C265.938 367.955 262.419 367.864 258.95 367.886C255.765 367.753 252.586 367.743 249.398 367.738C260.71 355.14 270.993 341.426 281.281 327.991L325.559 269.544C331.958 261.094 338.766 252.961 345.206 244.543L431.686 129.903Z"/>
	<path fill="#9F8BE8" d="M502.45 581.618C515.432 581.441 528.481 581.832 541.469 581.929C541.368 596.952 543.25 612.329 544.087 627.345Q520.632 630.579 497.118 633.351C484.337 635.065 471.634 636.724 458.728 637.026C472.493 618.078 487.64 599.766 502.45 581.618Z"/>
	<path fill="#FEFEFE" d="M717.144 248.73C718.086 248.652 718.641 248.633 719.523 248.992C720.655 252.576 719.722 274.002 719.7 279.143L719.675 330.622Q706.508 317.109 693.635 303.316C683.802 292.67 673.619 282.336 664.005 271.49C663.813 264.514 663.94 257.502 663.921 250.521L717.144 248.73Z"/>
	<path fill="#9F8BE8" d="M366.596 411.391C388.829 410.446 411.178 410.616 433.433 410.379Q468.614 409.815 503.779 408.593Q503.811 419.391 503.667 430.189C500.193 429.938 496.669 429.94 493.186 429.835C493.243 429.101 493.185 428.669 493.045 427.959C492.537 427.754 492.387 427.669 491.776 427.569C485.119 426.48 469.473 427.512 462.044 427.581C443.927 427.749 425.315 427.017 407.27 428.308C405.561 428.431 403.967 428.424 402.517 429.464C391.003 430.861 378.137 429.417 366.52 429.024L366.596 411.391Z"/>
	<path fill="#FEFEFE" d="M344.515 416.422C344.55 415.086 344.269 412.563 345.126 411.626C350.401 411.298 355.693 411.342 360.976 411.317L360.995 416.962L360.985 519.284Q361.122 539.249 360.65 559.209C360.562 563.86 360.881 568.731 360.497 573.336C360.38 574.739 360.345 575.53 359.495 576.633L357.81 576.474C353.508 573.094 358.697 565.64 357.288 561.082C356.091 557.214 347.909 553.336 344.5 551.294L344.515 416.422Z"/>
	<path fill="#9F8BE8" d="M344.515 416.422C344.55 415.086 344.269 412.563 345.126 411.626C350.401 411.298 355.693 411.342 360.976 411.317L360.995 416.962L344.515 416.422Z"/>
	<path fill="#FEFEFE" d="M509.858 408.443C513.109 408.343 516.368 408.354 519.62 408.326C520.159 414.787 519.891 421.498 519.94 427.989Q520.586 502.058 520.248 576.129L509.875 576.119C509.03 571.081 509.541 565.192 509.534 560.053L509.488 530.108Q509.236 469.273 509.858 408.443Z"/>
	<path fill="#9F8BE8" d="M509.858 408.443C513.109 408.343 516.368 408.354 519.62 408.326C520.159 414.787 519.891 421.498 519.94 427.989C516.299 429.332 513.159 431.562 510.014 433.791L509.932 530.219L510.09 560.156C510.115 565.303 510.586 571.047 509.875 576.119C509.03 571.081 509.541 565.192 509.534 560.053L509.488 530.108Q509.236 469.273 509.858 408.443Z"/>
	<path fill="#FEFEFE" d="M344.017 867.82C345.284 867.567 346.294 867.287 347.57 867.686C348.051 868.674 348.176 869.498 348.05 870.599C347.604 874.505 346.273 878.558 345.652 882.516C342.886 900.137 339.749 917.874 338.58 935.686C338.193 941.579 338.197 947.913 338.801 953.784C339.128 956.957 340.038 960.477 340.03 963.63C340.027 964.651 339.346 965.534 338.509 966.07C335.98 967.691 332.462 967.406 329.618 967.174C328.944 966.966 328.635 966.85 328.124 966.33C326.363 964.54 326.253 956.16 326.008 953.408Q324.103 932.64 323.616 911.79Q323.129 890.94 324.061 870.105C330.738 869.47 337.376 868.763 344.017 867.82Z"/>
	<path fill="#FEFEFE" d="M288.121 869.521C296.451 870.333 304.912 870.361 313.275 870.504C307.996 899.383 305.136 927.995 305.391 957.375C305.46 958.782 305.91 961.407 305.297 962.665C304.826 963.631 302.787 964.336 301.828 964.634C299.993 965.205 297.667 965.84 295.874 964.917C295.024 964.034 294.645 963.262 294.386 962.081C293.095 956.193 292.664 945.416 292.088 938.943Q289.024 904.294 288.121 869.521Z"/>
	<path fill="#FEFEFE" d="M419.163 581.253L495.611 581.13C492.743 584.737 489.716 588.193 486.68 591.657C468.209 591.419 449.722 591.576 431.25 591.575L355.921 591.498L356.523 581.378L419.163 581.253Z"/>
	<path fill="#FEFEFE" d="M385.832 596.253Q434.669 596.079 483.506 596.411C480.845 600.021 478.138 603.583 475.089 606.877Q460.852 606.915 446.616 606.793L385.187 606.877C373.19 606.881 361.109 607.168 349.124 606.652C351.382 603.398 353.156 599.887 354.992 596.386Q370.412 596.236 385.832 596.253Z"/>
	<path fill="#9F8BE8" d="M802.386 166.321C805.57 168.564 840.942 232.057 846.019 240.56Q850.412 247.97 855.416 254.982L848.551 255.393L839.555 255.494C831.589 240.287 822.606 225.803 813.89 211.034Q803.884 193.757 794.209 176.293C796.823 172.849 799.408 169.467 802.386 166.321Z"/>
	<path fill="#FEFEFE" d="M357.072 611.244L471.852 611.441C469.68 614.488 467.254 617.359 464.894 620.261C464.445 620.805 463.939 621.301 463.452 621.811C452.882 622.315 442.164 621.76 431.57 621.775L357.169 621.596C355.817 618.865 352.424 614.931 353.212 611.841C354.511 611.028 355.559 611.258 357.072 611.244Z"/>
	<path fill="#FEFEFE" d="M364.102 626.25C396.1 625.914 428.167 626.471 460.171 626.528Q456.907 630.878 453.701 635.271C453.279 635.597 452.917 636.019 452.435 636.248C450.48 637.176 373.489 635.938 364.387 635.926C363.222 633.678 360.939 630.389 360.804 627.887C360.755 626.974 360.793 627.237 361.442 626.454L364.102 626.25Z"/>
	<path fill="#FEFEFE" d="M227.147 521.329L227.704 521.919C228.097 524.452 228.05 527.009 228.442 529.531C229.404 535.721 230.88 540.609 230.051 546.971C229.348 552.368 227.562 557.076 223.042 560.398C221.146 561.792 219.852 560.793 217.781 560.501C215.139 563.004 215.381 565.661 215.168 569.062C206.153 564.406 196.936 561.691 187.191 559.073C188.47 557.12 189.101 555.454 189.669 553.181C193.241 552.679 197.119 552.358 200.557 551.279C205.831 549.625 208.256 546.866 210.643 542.128C211.565 544.269 212.768 547.66 214.42 549.283C215.741 550.581 217.724 551.937 219.608 551.854C221.305 547.03 212.666 540.029 213.303 534.561C213.502 532.856 214.202 531.043 215.573 530.027C218.144 531.579 217.684 536.02 220.213 537.714L221.28 537.348C222.238 536.015 222.201 534.393 222.37 532.809C222.782 528.954 225.498 524.861 227.147 521.329Z"/>
	<path fill="#FEFEFE" d="M277.192 655.863C280.673 660.038 286.318 678.493 288.496 684.499C285.482 691.07 281.737 697.502 278.079 703.74L277.232 704.583C274.336 702.267 269.064 682.779 268.244 678.25C271.753 671.1 273.779 663.154 277.192 655.863Z"/>
	<path fill="#D7CFF9" d="M318.282 870.432C318.512 870.669 318.702 871.186 318.852 871.488C318.173 876.668 318.249 882.094 318.093 887.324C317.373 911.511 319.591 935.782 321.185 959.9L315.402 958.609L310.438 958.244Q310.341 933.107 313.033 908.115C314.429 895.515 316.558 882.991 318.282 870.432Z"/>
	<path fill="#FEFEFE" d="M180.235 562.863C183.752 563.253 187.261 563.943 190.709 564.726C201.598 567.198 215.949 571.912 222.256 581.801C220.065 581.452 217.881 581.012 215.697 580.616C201.606 577.702 187.124 576.954 173.073 573.811C175.062 569.658 177.054 566.222 180.235 562.863Z"/>
	<path fill="#9F8BE8" d="M291.248 690.425C294.415 696.636 297.321 703.111 300.021 709.541C295.533 715.036 291.6 720.894 287.649 726.777L286.966 727.255C284.497 725.739 280.889 714.948 279.766 711.934C283.907 704.95 287.521 697.637 291.248 690.425Z"/>
	<path fill="#D7CFF9" d="M198.018 838.464C198.94 840.897 199.756 843.469 200.899 845.804C197.709 858.187 194.712 870.477 192.677 883.109Q191.818 891.362 191.446 899.651Q191.074 907.941 191.191 916.238Q191.307 924.535 191.911 932.81Q192.515 941.086 193.605 949.312L187.493 948.999C187.686 938.395 188.634 927.684 189.252 917.089C189.913 905.749 190.174 894.004 192.013 882.795C193.426 867.964 196.378 853.277 198.018 838.464Z"/>
	<path fill="#FEFEFE" d="M353.775 574.371C354.39 581.419 351.08 595.433 347.493 601.511L346.74 601.678C346.282 599.724 345.97 597.705 345.726 595.712C345.21 591.508 344.982 585.353 347.7 581.932C349.367 581.202 349.717 581.544 351.423 582.016C352.412 581.106 352.856 576.121 353.775 574.371Z"/>
	<path fill="#FEFEFE" d="M351.461 705.768C354.103 707.863 355.462 714.986 356.43 718.285C354.496 716.991 352.833 714.219 351.381 712.375Q351.452 709.072 351.461 705.768Z"/>
</svg>
