<?xml version="1.0" encoding="utf-8" ?>
<svg xmlns="http://www.w3.org/2000/svg" xmlns:xlink="http://www.w3.org/1999/xlink" width="1024" height="1024">
	<path fill="#010100" d="M0 0L80.9242 0L105.564 0L137.288 0L161.076 0L355.847 0L381.457 0L915.097 0L922.971 0L1024 0L1024 1002.74L1024 1018.13L1024 1024L722.41 1024L710.174 1024L635.14 1024L623.845 1024L614.164 1024L602.767 1024L552.963 1024L544.008 1024L498.939 1024L490.719 1024L433.156 1024L423.914 1024L366.257 1024L356.567 1024L94.6351 1024L86.3517 1024L0 1024L0 957.303L0 947.475L0 728.226L0 696.017L0 0Z"/>
	<path fill="#9F8BE8" d="M0 0L80.9242 0L105.564 0L137.288 0L161.076 0L355.847 0L381.457 0L915.097 0L922.971 0L1024 0L1024 1002.74C1023.02 997.914 1023.19 992.404 1022.95 987.461L1021.47 954.418C1020.11 928.251 1017.73 902.136 1015.68 876.015Q1010.93 821.629 1002.8 767.645C994.958 712.505 985.839 657.11 970.852 603.406C966.835 589.011 962.958 574.535 958.269 560.343C938.008 499.015 907.447 434.403 859.757 389.657C836.422 367.762 809.305 350.148 781.53 334.493C783.084 329.143 785.175 323.92 786.803 318.581C793.776 295.71 801.888 267.191 800.315 243.177C799.148 225.349 787.13 214.243 774.447 203.093C754.858 185.87 728.044 164.229 702.482 157.495C693.698 155.181 685.303 154.719 676.276 155.311C669.767 132.479 657.813 113.97 639.288 98.9472C614.14 78.5555 579.642 66.8527 547.333 70.2823C508.254 74.4303 482.279 98.4222 455.93 124.71C447.324 133.296 438.47 141.084 430.794 150.596C411.127 174.966 400.844 208.152 404.244 239.352C405.996 255.43 411.284 274.301 424.521 284.755C434.077 292.303 446.202 296.882 458.456 295.437C464.174 303.247 469.979 310.901 476.159 318.353C500.701 347.949 538.483 385.038 578.616 388.796C574.21 394.579 570.475 400.326 567.482 406.97C552.528 440.169 551.848 487.799 551.386 523.73L551.517 581.526C551.493 590.396 551.979 657.428 549.683 659.811C546.76 659.678 543.835 658.758 541.493 661.016C534.954 667.321 535.015 690.086 535.159 699.257Q535.171 700.488 535.235 701.717Q535.299 702.947 535.415 704.172Q535.531 705.398 535.697 706.617Q535.864 707.837 536.082 709.049Q536.3 710.26 536.568 711.462Q536.837 712.663 537.155 713.852Q537.474 715.041 537.842 716.216Q538.21 717.39 538.627 718.548Q539.044 719.707 539.51 720.846Q539.975 721.986 540.488 723.105Q541.001 724.224 541.56 725.321Q542.119 726.417 542.724 727.49Q543.328 728.562 543.978 729.608Q544.627 730.654 545.319 731.671Q546.012 732.689 546.746 733.677Q547.481 734.665 548.256 735.621C544.977 744.426 540.563 753.006 536.562 761.515Q524.577 787.127 511.721 812.314C503.498 828.541 496.158 845.719 486.015 860.857C476.072 852.942 464.593 846.81 453.636 840.402C436.472 830.363 418.95 820.357 402.349 809.424C410.084 793.463 419.854 775.228 431.563 761.82C435.009 757.874 439.947 755.959 442.946 751.451C451.087 739.214 445.723 725.336 441.625 712.798Q438.332 702.575 434.892 692.401C430.727 680.354 425.958 668.324 420.392 656.853C421.004 653.74 421.136 650.445 419.246 647.745C415.924 643.001 408.834 639.817 403.884 636.958C401.795 630.745 399.789 624.387 397.11 618.397C391.831 610.374 390.376 600.462 383.179 592.383L382.017 590.588C380.837 588.941 380.005 586.938 379.095 585.126C379.745 579.069 380.216 573.213 379.773 567.125C379.299 562.469 378.51 557.816 377.089 553.348C373.442 541.884 366.073 534.391 355.593 528.881C343.44 523.949 334.955 526.368 323.221 523.932C316.499 522.536 310.976 518.141 304.786 515.425C293.401 510.429 280.271 510.562 268.57 514.344C264.633 515.617 260.408 517.75 256.377 518.524C253.982 518.984 250.971 518.445 248.515 518.416C243.855 518.361 237.991 520.149 233.707 521.959C220.905 527.368 213.653 537.645 208.283 549.987C189.042 549.705 176.239 554.177 161.137 566.507C152.792 573.984 144.998 582.163 137.088 590.097C122.552 603.565 111.999 612.182 106.417 632.155C101.783 656.714 107.115 677.588 109.165 701.93C110.03 716.84 106.473 726.61 99.0132 739.268C96.339 743.806 93.6527 748.211 91.8636 753.191C83.9694 775.166 90.098 803.996 101.665 823.586C106.362 831.541 112.862 839.111 119.735 845.261C135.392 859.272 156.903 864.926 177.398 866.325C169.407 873.147 162.025 882.512 152.669 887.411C144.313 891.786 133.887 893.815 124.927 896.895C109.422 902.224 94.0084 908.283 78.7368 914.257Q54.2835 923.845 30.1989 934.324C20.3139 938.688 10.2769 944.166 0 947.475L0 728.226L0 696.017L0 0Z"/>
	<path fill="#9F8BE8" d="M751.504 328.403C757.149 330.444 762.587 333.719 767.878 336.542C778.217 342.058 788.416 347.635 798.399 353.78C831.304 374.038 860.629 398.463 883.989 429.359C952.559 520.049 979.027 658.156 994.576 768.59Q1005.25 842.298 1010.77 916.57C1012.57 940.794 1013.32 965.07 1014.49 989.327C1014.9 997.877 1014.84 1006.64 1015.63 1015.15C1015.76 1016.51 1015.89 1017.59 1016.55 1018.82C1017.57 1019.6 1017.92 1019.96 1019.24 1020.06C1021.22 1020.22 1022.53 1019.32 1024 1018.13L1024 1024L722.41 1024C729.761 1015.99 737.532 1008.36 744.901 1000.36Q770.252 972.976 792.565 943.066C812.458 916.029 830.47 887.712 848.426 859.376C855.498 848.216 862.044 836.834 869.48 825.896C877.754 823.107 888.306 820.358 894.479 813.736C896.154 811.94 897.034 809.53 897.803 807.233C900.41 799.449 909.257 760.998 908.96 753.915C908.874 751.861 908.244 750.256 906.643 748.902C904.203 746.838 900.565 747.376 897.621 747.543C901.022 729.706 905.767 712.102 909.186 694.23Q912.239 678.453 914.511 662.545Q916.783 646.637 918.268 630.637Q919.753 614.636 920.448 598.582Q921.143 582.527 921.045 566.458C921.011 564.069 920.928 562.611 919.129 560.858C917.907 560.342 916.858 559.939 915.501 560.407C911.86 561.661 912.829 576.445 912.733 580.099Q912.369 595.895 911.295 611.659Q910.221 627.422 908.44 643.121Q906.659 658.821 904.175 674.424Q901.69 690.028 898.507 705.504C895.42 721.264 892.158 737.624 887.231 752.913C879.495 756.498 871.229 759.172 862.748 760.211C829.607 764.272 799.11 743.758 774.207 724.281C784.429 687.622 782.271 628.28 778.249 589.945C777.519 582.995 777.005 575.908 775.807 569.027C775.355 566.428 774.829 562.997 772.561 561.379C771.158 561.013 770.537 560.968 769.154 561.42C767.752 562.645 767.449 564.118 767.408 565.905C767.304 570.5 768.484 575.483 768.947 580.081Q770.361 594.794 771.394 609.538C773.702 646.922 772.743 684.13 767.054 721.174C764.046 721.748 760.791 722.408 758.6 724.72C756.42 727.021 756.689 731.22 756.71 734.21C756.765 741.833 757.258 781.483 758.715 786.089C760.078 790.398 763.799 793.676 766.934 796.74C765.35 805.96 761.182 815.629 758.101 824.495C740.327 875.645 717.304 920.675 683.867 963.456C683.829 955.604 685.047 947.79 685.807 939.991C687.364 924.018 688.993 907.962 690.153 891.958C686.159 885.085 683.34 877.314 680.489 869.911C675.303 856.446 670.662 842.848 665.951 829.215Q646.33 773.663 630.08 717.033Q613.83 660.403 601.01 602.899Q596.003 578.746 591.477 554.499C589.569 544.67 587.244 534.872 585.45 525.033C584.119 517.736 583.244 510.294 582.199 502.949C581.505 498.071 581.305 490.39 578.703 486.169C577.977 484.992 577.472 484.741 576.18 484.364C574.66 484.642 572.886 485.012 572.096 486.549C568.638 493.279 597.357 625.2 601.448 642.193C606.38 662.675 612.127 682.965 617.471 703.34C592.871 701.281 571.157 685.703 555.231 667.866C556.861 664.202 557.857 660.745 558.32 656.777C560.197 640.675 559.518 622.71 559.601 606.445C559.799 567.113 558.491 527.583 560.644 488.301C562.372 456.769 567.641 407.683 592.268 385.65C592.245 400.083 590.916 414.531 590.619 428.969C590.007 458.838 591.266 489.549 595.073 519.187C595.986 526.302 596.383 534.895 599.031 541.589C602.212 549.633 613.416 554.534 620.797 557.825C618.631 561.64 615.551 566.173 614.642 570.467C614.329 571.94 614.439 573.307 615.471 574.502C617.058 576.337 619.797 576.719 622.078 576.809C627.337 577.016 632.973 576.051 638.155 575.237C671.851 569.949 707.055 554.924 736.166 537.382C740.913 534.522 746.276 531.73 750.424 528.044C752.678 488.071 756.156 448.304 756.987 408.249C757.539 381.608 758.207 354.383 751.504 328.403Z"/>
	<path fill="#010100" d="M852.315 441.186C855.005 440.887 857.656 440.772 860.361 440.806C865.691 440.872 872.783 440.873 876.633 445.211C877.695 446.407 877.891 447.385 877.736 448.928C875.944 451.331 871.786 450.483 869.285 450.158C856.81 448.535 847.075 449.222 835.57 454.826C807.647 468.425 793.577 497.472 783.953 525.407C782.645 529.468 782.098 534.019 780.419 537.92C779.728 539.526 778.547 541.512 776.733 541.989C775.507 542.312 774.115 542.033 773.135 541.213C772.425 540.62 772.159 540.057 772.046 539.174C771.587 535.55 773.676 530.894 774.716 527.468C780.929 507.014 789.039 488.069 802.377 471.136C814.866 455.279 832.024 443.652 852.315 441.186Z"/>
	<path fill="#9F8BE8" d="M94.6351 1024C97.9454 1004.71 103.057 970.058 110.304 953.075C122.178 925.248 180.783 873.504 205.663 854.04C209.037 888.555 236.824 911.522 261.863 932.099C296.29 960.392 332.215 985.755 356.567 1024L94.6351 1024Z"/>
	<path fill="#9F8BE8" d="M634.637 761.224Q651.101 811.783 668.623 861.985C670.59 867.529 672.581 873.104 674.798 878.555C676.68 883.182 680.41 888.983 681.097 893.83C683.102 907.98 671.68 964.012 676.383 971.835C669.109 982.507 647.971 1001.75 637.647 1011.16C633.037 1015.36 627.89 1019.26 623.845 1024L614.164 1024C604.671 1013.39 594.753 1003.11 585.425 992.365C564.327 968.059 544.039 942.103 525.706 915.661Q541.356 897.896 556.026 879.313Q570.695 860.73 584.341 841.383Q597.987 822.037 610.57 801.982Q623.154 781.928 634.637 761.224Z"/>
	<path fill="#FEFEFE" d="M774.471 802.056C800.422 819.647 827.317 829.27 859.053 827.21C830.451 872.509 802.396 918.855 768.452 960.427C757.555 973.774 746.347 987.246 734.438 999.713C726.553 1007.97 717.762 1015.49 710.174 1024L635.14 1024C673.536 992.336 707.558 951.414 731.22 907.605C749.167 874.377 762.725 837.899 774.471 802.056Z"/>
	<path fill="#9F8BE8" d="M214.606 846.906C229.481 836.493 243.681 825.336 258.957 815.465C273.251 838.911 296.465 859.239 316.042 878.302C361.506 922.57 398.543 964.991 423.914 1024L366.257 1024C354.083 1003.25 338.159 985.336 320.282 969.322C290.363 942.522 228.489 903.723 216.119 865.972C214.002 859.509 213.846 853.61 214.606 846.906Z"/>
	<path fill="#9F8BE8" d="M398.332 816.984C413.924 825.925 429.249 835.4 444.731 844.538C455.669 850.995 471.726 859.291 480.901 867.406C491.159 876.478 504.735 900.506 512.937 912.715C519.299 922.183 526.565 931.31 533.363 940.491C554.962 969.662 578.564 997.003 602.767 1024L552.963 1024L544.008 1024L498.939 1024C493.593 1009.61 487.007 995.885 480.731 981.894Q466.138 948.499 449.134 916.265Q432.129 884.031 412.806 853.132C406.791 843.637 401.059 833.538 393.828 824.927C395.23 822.195 396.642 819.551 398.332 816.984Z"/>
	<path fill="#010100" d="M544.008 1024C539.008 1017.13 534.929 1009.38 530.782 1001.98Q520.573 983.887 511.84 965.037Q503.107 946.187 495.905 926.7C494.641 923.229 491.333 916.283 491.789 912.646C491.943 911.426 492.5 910.641 493.512 909.937C494.416 909.307 495.707 909.241 496.723 909.601C499.419 910.555 500.458 913.956 501.323 916.408C504.629 925.787 507.814 935.141 511.641 944.331C514.827 951.98 518.51 959.243 522.101 966.69C531.58 986.345 541.686 1005.3 552.963 1024L544.008 1024Z"/>
	<path fill="#9F8BE8" d="M0 957.303C36.6535 939.877 74.5123 924.984 112.393 910.474C122.792 906.491 133.339 902.868 143.708 898.819C130.639 909.982 111.543 931.084 104.086 946.479C95.3559 964.499 89.0977 1003.71 86.3517 1024L0 1024L0 957.303Z"/>
	<path fill="#FEFEFE" d="M412.913 868.511Q427.343 892.521 440.413 917.297Q453.484 942.073 465.154 967.539C473.929 986.236 482.04 1005.26 490.719 1024L433.156 1024C411.202 977.558 389.219 940.284 352.123 903.819C367.237 905.802 385.131 906.682 398.012 896.942C406.841 890.265 411.324 880.011 412.815 869.261L412.913 868.511Z"/>
	<path fill="#FEFEFE" d="M312.287 564.718C321.598 564.312 331.373 564.644 340.405 567.073C353.268 570.533 366.318 579.152 373.11 590.791C371.583 591.238 370.042 591.721 368.59 592.377C366.454 593.34 363.955 594.978 363.143 597.299C362.679 598.626 362.804 599.981 363.439 601.233C365.371 605.044 374.063 598.378 377.937 600.362C381.39 602.129 386.243 613.896 387.374 617.856L387.007 618.304C385.705 617.925 383.825 617.172 382.478 617.506C380.8 617.922 379.217 619.784 378.263 621.101C377.205 622.562 376.759 624.121 377.081 625.916C378.748 635.192 403.89 646.485 411.705 652.031L412.509 652.607C411.28 661.902 417.748 669.822 419.89 678.693C409.563 690.778 399.251 697.009 384.361 702.456C381.421 703.532 379.232 704.534 377.866 707.478C377.814 708.318 377.749 709.015 378.149 709.796C380.457 714.297 390.2 717.048 394.894 717.955C409.154 720.71 419.898 717.232 431.683 709.316C434.372 719.802 442.06 733.255 437.884 744.047C434.729 752.198 425.05 755.483 416.947 755.841C412.569 756.034 406.757 755.297 402.763 757.05C401.923 757.966 401.552 758.5 401.541 759.783C401.528 761.289 402.396 763.505 403.688 764.372C406.357 766.162 416.288 764.425 419.78 764.149Q412.484 774 406.279 784.573C401.303 793.024 365.566 858.929 366.677 863.529C366.966 864.73 367.493 865.584 368.657 866.116C369.418 866.463 370.153 866.435 370.923 866.212C375.232 864.961 378.224 856.085 380.254 852.34C379.564 855.745 378.647 859.322 378.442 862.787C378.294 865.287 378.487 869.763 380.564 871.585C381.624 872.515 381.934 872.526 383.246 872.459C384.703 871.486 385.304 870.583 385.74 868.921C386.813 864.831 386.642 860.19 387.099 855.978C387.864 848.938 389.208 842.234 391.118 835.426C396.137 841.82 403.438 849.609 404.83 857.777C406.316 866.501 403.962 877.109 398.82 884.318C393.174 892.233 385.233 895.428 376.015 896.993C369.519 897.876 362.721 897.348 356.296 896.169C351.9 895.362 346.213 894.478 342.368 892.05C336.978 888.647 332.356 882.488 327.71 878.069C305.252 856.707 283 836.385 265.176 810.741C273.982 805.668 284.707 799.992 289.191 790.328C292.628 782.918 290.129 776.315 287.361 769.237L294.112 768.34C296.72 772.03 299.284 775.487 302.601 778.579C308.449 784.029 321.159 791.839 329.314 791.404C331.547 791.285 333.214 790.877 334.725 789.153C334.91 787.963 334.97 787.644 334.289 786.552C333.705 785.615 332.509 784.557 331.51 784.084C329.658 783.206 327.253 783.053 325.256 782.595Q322.36 781.929 319.608 780.808Q316.856 779.688 314.318 778.142C311.689 776.517 309.235 774.516 307.046 772.337C304.246 769.549 300.346 763.05 296.896 761.635C294.222 760.538 282.139 761.914 277.608 761.349C260.985 759.274 246.151 749.488 236.087 736.386C231.872 730.898 225.65 721.142 226.795 713.906C227.296 710.738 229.087 708.337 231.741 706.596C247.205 696.458 265.942 719.663 274.115 720.169C275.64 720.263 277.362 719.772 278.3 718.474C278.811 717.767 279.033 717.008 278.936 716.157C278.472 712.107 272.155 709.805 269.223 707.471L268.797 707.125C271.861 704.02 274.604 700.958 277.024 697.318C277.988 701.349 279.894 705.343 280.49 709.441C280.999 712.934 280.682 716.524 281.142 720.029C281.349 721.612 281.868 723.278 283.316 724.165C284.132 724.664 285.159 724.75 286.027 724.344C287.323 723.737 288.164 722.643 288.685 721.346C291.63 714.022 285.459 698.431 282.518 691.272Q283.717 688.437 284.797 685.554C292.024 666.18 290.1 647.504 281.609 628.787C287.905 609.422 295.347 586.562 291.76 566.062Q302.009 565.17 312.287 564.718Z"/>
	<path fill="#010100" d="M240.841 709.463C249.967 710.721 258.91 718.126 265.372 724.285C269.003 727.745 275.453 734.263 275.601 739.516C275.189 740.332 275.157 740.751 274.313 741.213C268.589 744.344 258.77 737.645 252.96 736.013L252.219 735.81C255.676 739.531 259.785 741.775 263.976 744.52C264.268 746.486 264.422 748.172 263.386 749.943C262.111 750.711 261.432 751.02 259.914 750.855C255.521 750.377 249.88 745.69 247.244 742.308C245.646 740.258 243.599 736.741 244.249 733.999C244.614 732.459 245.47 731.303 246.879 730.556C251.634 728.037 256.35 729.769 261.031 731.364C257.743 728.058 253.868 724.268 250.018 721.636C246.927 719.524 240.505 718.298 238.466 715.133C237.841 714.162 237.526 713.359 237.916 712.214C238.363 710.905 239.737 710.148 240.841 709.463Z"/>
	<path fill="#010100" d="M367.45 663.456C369.063 663.573 370.184 663.698 371.625 664.456C377.756 671.428 371.767 701.679 372.793 711.796C373.439 718.162 376.753 723.795 377.606 729.959C377.874 731.897 377.075 732.552 375.966 733.897C374.297 734.09 373.046 734.269 371.637 733.187C369.167 731.291 367.99 727.805 367.185 724.917C363.036 710.029 366.349 696.322 366.518 681.4C366.551 678.421 365.986 675.334 365.663 672.367C365.246 668.537 364.945 666.553 367.45 663.456Z"/>
	<path fill="#010100" d="M342.743 631.74Q343.028 631.693 343.316 631.661Q343.603 631.628 343.891 631.609Q344.18 631.591 344.469 631.586Q344.758 631.582 345.047 631.592Q345.336 631.601 345.624 631.625Q345.912 631.649 346.198 631.686Q346.485 631.724 346.769 631.776Q347.054 631.827 347.335 631.893Q347.617 631.958 347.895 632.037Q348.173 632.117 348.447 632.209Q348.721 632.302 348.99 632.408Q349.259 632.513 349.522 632.632Q349.786 632.751 350.043 632.883Q350.3 633.014 350.551 633.158Q350.802 633.302 351.045 633.458Q351.288 633.614 351.524 633.782Q351.759 633.95 351.986 634.129Q352.213 634.308 352.431 634.498Q352.649 634.688 352.857 634.888Q353.066 635.088 353.264 635.298Q353.463 635.509 353.651 635.728Q353.839 635.948 354.016 636.177Q354.193 636.405 354.358 636.642Q354.524 636.879 354.678 637.124Q354.831 637.368 354.973 637.62Q355.115 637.872 355.244 638.131Q355.373 638.389 355.49 638.654Q355.606 638.918 355.71 639.188Q355.813 639.458 355.903 639.733Q355.994 640.007 356.07 640.286Q356.147 640.565 356.21 640.847Q356.273 641.129 356.322 641.414Q356.371 641.699 356.406 641.986Q356.441 642.273 356.463 642.561Q356.484 642.849 356.491 643.138Q356.498 643.427 356.491 643.716Q356.484 644.005 356.462 644.293Q356.441 644.582 356.406 644.869Q356.371 645.155 356.322 645.44Q356.272 645.725 356.209 646.007Q356.146 646.289 356.07 646.568Q355.993 646.847 355.903 647.121Q355.813 647.396 355.709 647.666Q355.606 647.936 355.489 648.2Q355.373 648.465 355.243 648.723Q355.114 648.982 354.972 649.234Q354.831 649.486 354.677 649.73Q354.523 649.975 354.357 650.212Q354.191 650.449 354.014 650.677Q353.837 650.906 353.649 651.125Q353.461 651.345 353.263 651.555Q353.065 651.765 352.856 651.966Q352.648 652.166 352.43 652.356Q352.212 652.546 351.985 652.724Q351.758 652.903 351.522 653.071Q351.287 653.239 351.044 653.395Q350.8 653.551 350.55 653.695Q350.299 653.839 350.042 653.97Q349.784 654.102 349.521 654.221Q349.257 654.339 348.988 654.445Q348.719 654.551 348.445 654.644Q348.172 654.736 347.894 654.815Q347.616 654.895 347.334 654.96Q347.052 655.025 346.768 655.077Q346.132 655.192 345.488 655.238Q344.844 655.283 344.198 655.259Q343.552 655.234 342.913 655.139Q342.274 655.044 341.649 654.88Q341.025 654.716 340.421 654.485Q339.818 654.255 339.243 653.959Q338.668 653.664 338.129 653.308Q337.59 652.952 337.093 652.54Q336.596 652.127 336.146 651.663Q335.697 651.199 335.301 650.689Q334.904 650.178 334.566 649.628Q334.227 649.078 333.951 648.494Q333.674 647.91 333.463 647.299Q333.252 646.689 333.108 646.059Q332.964 645.429 332.89 644.787Q332.816 644.145 332.812 643.499Q332.81 643.237 332.82 642.976Q332.83 642.714 332.852 642.453Q332.873 642.192 332.906 641.932Q332.939 641.673 332.984 641.414Q333.028 641.156 333.084 640.901Q333.14 640.645 333.207 640.392Q333.274 640.139 333.353 639.889Q333.431 639.639 333.52 639.393Q333.609 639.147 333.709 638.905Q333.809 638.663 333.92 638.425Q334.03 638.188 334.151 637.956Q334.272 637.724 334.403 637.497Q334.534 637.27 334.675 637.05Q334.816 636.829 334.967 636.615Q335.118 636.401 335.278 636.193Q335.438 635.986 335.606 635.786Q335.775 635.586 335.953 635.394Q336.131 635.201 336.317 635.017Q336.503 634.832 336.696 634.656Q336.89 634.481 337.092 634.313Q337.293 634.146 337.502 633.988Q337.711 633.83 337.926 633.681Q338.142 633.532 338.364 633.393Q338.585 633.254 338.813 633.125Q339.041 632.996 339.274 632.877Q339.507 632.758 339.746 632.65Q339.984 632.541 340.227 632.443Q340.47 632.345 340.717 632.258Q340.964 632.171 341.214 632.095Q341.465 632.019 341.718 631.954Q341.972 631.889 342.228 631.836Q342.485 631.782 342.743 631.74Z"/>
	<path fill="#010100" d="M338.458 601.696C340.751 601.867 342.039 602.338 343.789 603.81C344.314 605.013 344.616 605.469 344.033 606.778C342.754 609.649 332.852 610.698 329.586 612.094C315.885 617.95 318.801 628.358 314.133 639.396C314.075 639.533 314.011 639.668 313.951 639.805C312.121 640.007 310.696 640.2 308.922 639.637C307.941 638.687 307.555 638.185 307.358 636.803C306.312 629.453 310.891 617.903 315.512 612.235C321.477 604.918 329.48 602.594 338.458 601.696Z"/>
	<path fill="#010100" d="M327.315 588.118C329.341 587.926 331.071 587.827 332.751 589.18C333.883 590.092 334.229 590.77 334.398 592.169C332.294 596.05 323.101 596.487 318.906 598.316C310.122 602.145 305.669 609.022 302.286 617.535C300.395 618.184 298.879 618.342 297.043 617.459C296.489 616.72 296.199 616.496 296.039 615.552C295.39 611.732 298.727 606.509 300.86 603.437C307.135 594.397 316.725 590.029 327.315 588.118Z"/>
	<path fill="#010100" d="M389.66 772.347C390.659 772.279 391.416 772.203 392.379 772.58C393.913 773.179 394.557 774.041 395.085 775.537C394.37 780.515 378.11 799.514 374.124 804.038C373.681 804.231 373.535 804.324 372.993 804.386C371.548 804.553 370.414 804.317 369.224 803.568C368.878 802.755 368.742 802.18 368.856 801.275C369.586 795.48 384.784 776.605 389.66 772.347Z"/>
	<path fill="#010100" d="M320.133 574.07C322.502 573.823 324.868 573.653 327.048 574.79C328.268 575.426 328.716 575.797 329.145 577.094C327.344 581.96 317.731 582.533 313.523 584.537C309.526 586.441 306.548 589.29 303.788 592.674C303.325 593.374 302.741 593.973 301.959 594.34C301.317 594.641 300.488 594.805 299.808 594.574C298.718 594.206 297.932 593.4 297.605 592.282C297.071 590.457 297.711 588.308 298.635 586.721C302.66 579.811 312.76 575.891 320.133 574.07Z"/>
	<path fill="#010100" d="M351.945 721.477C353.525 721.438 355.891 721.249 357.335 721.861C358.077 722.176 358.084 722.087 358.316 723.03C358.663 724.442 358.822 739.505 358.592 740.733C358.392 741.799 357.733 742.418 357.094 743.271C356.055 743.339 354.802 743.244 353.866 742.732C352.276 741.862 351.38 740.303 350.808 738.639C349.136 733.775 349.579 726.015 351.945 721.477Z"/>
	<path fill="#010100" d="M403.819 657.672C405.756 657.838 407.525 657.892 408.862 659.501C409.618 660.41 409.623 661.561 409.386 662.676C408.361 667.492 401.878 672.865 397.976 675.539C396.988 675.828 395.463 676.081 394.437 675.821C393.105 675.484 393.042 675.179 392.503 674.037C392.769 668.595 400.943 663.829 403.531 658.299L403.819 657.672Z"/>
	<path fill="#CAC0FC" d="M244.458 551.559C255.678 550.783 265.74 556.64 275.795 560.87C270.824 567.079 264.754 572.587 260.675 579.465C249.702 597.969 245.031 620.208 232.829 637.899C227.719 645.308 221.175 651.939 214.014 657.374C210.66 659.92 204.109 662.39 201.836 665.695C201.036 666.858 201.091 667.475 201.299 668.819C202.162 670.003 202.735 670.45 203.981 671.133C208.945 671.537 214.001 667.409 217.907 664.678C226.298 658.809 233.63 651.965 239.425 643.477C254.298 621.695 261.12 579.89 283.635 567.696Q283.946 569.309 284.133 570.941C287.372 597.049 267.631 648.957 251.562 669.479C235.634 689.819 201.953 706.87 175.821 700.332C172.338 699.46 160.827 693.783 159.351 693.965C158.254 694.634 156.808 695.583 156.211 696.772C155.692 697.806 155.572 698.671 156.061 699.746C157.363 702.605 163.517 704.903 166.332 705.993C186.898 713.959 204.656 709.646 224.052 701.176C221.569 704.243 219.819 707.164 218.976 711.078C216.739 721.468 222.202 730.717 227.479 739.147C221.93 740.897 216.368 742.217 210.541 742.561C193.174 743.585 178.868 734.484 166.983 722.553C164.144 719.703 160.932 715.024 157.705 712.871C156.757 712.239 155.541 712.246 154.491 712.628C153.209 713.094 152.602 713.779 151.937 714.915C151.792 715.831 151.808 716.511 152.139 717.375C155.775 726.875 177.511 743.244 187.085 746.899C201.554 752.423 217.857 752.443 232.026 746.158C248.213 761.193 258.573 765.71 280.318 770.003C281.591 773.583 282.942 778.166 282.682 781.977C282.356 786.757 278.875 791.313 275.382 794.326C271.275 797.87 266.511 800.256 261.88 803.003C246.817 811.935 244.013 813 226.272 811.63C195.148 809.227 170.025 785.467 160.536 756.525C159.004 751.853 157.28 739.047 154.901 736.281C154.072 735.793 153.534 735.498 152.529 735.522C151.344 735.55 150.145 736.024 149.444 737.02C147.14 740.292 149.575 747.784 150.342 751.492C155.235 767.772 162.223 782.462 174.318 794.69C192.109 812.678 212.331 820.11 237.351 820.185C230.555 824.927 222.135 832.612 214.045 834.385C209.045 835.481 203.579 835.24 198.529 834.65C178.921 832.361 164.061 821.525 152.953 805.632C150.147 801.617 149.02 795.537 144.798 792.798C143.483 792.643 143.056 792.483 141.907 793.279C140.782 794.059 140.115 795.386 140.05 796.718C139.774 802.338 150.684 816.824 154.435 820.927C168.271 836.063 186.079 842.547 206.189 843.5C199.311 847.888 193.709 854.228 186.698 858.263C179.184 858.703 171.316 857.749 163.923 856.456C143.491 852.881 124.331 842.142 112.418 824.912C105.467 814.857 100.67 802.956 98.2599 790.993C89.7154 748.581 115.551 743.912 117.392 710.198C118.711 686.021 108.861 661.791 113.41 637.545C114.689 630.728 117.253 624.068 121.194 618.335C127.23 609.554 136.258 602.754 143.837 595.355C153.299 586.119 162.296 575.454 173.276 567.981C188.356 557.718 203.133 556.723 220.711 560.02C202.657 592.057 197.516 623.395 164.781 646.152C159.815 649.605 153.808 652.405 147.987 654.05C145.536 654.743 135.853 655.939 134.564 657.076C133.554 657.967 133.182 659.101 133.242 660.427C133.295 661.592 134.165 662.882 135.145 663.506C138.682 665.757 146.197 663.272 149.884 662.19C178.349 653.835 197.754 628.255 209.838 602.407C214.996 591.375 219.015 579.883 224.876 569.165C229.673 560.393 234.479 554.502 244.458 551.559Z"/>
	<path fill="#010100" d="M207.179 762.471C208.218 762.415 209.826 762.189 210.775 762.662C213.361 763.954 216.576 768.234 218.854 770.293Q222.838 773.867 227.397 776.67Q228.38 777.259 229.39 777.801Q230.4 778.344 231.434 778.838Q232.468 779.332 233.524 779.778Q234.58 780.223 235.656 780.618Q236.732 781.014 237.825 781.358Q238.918 781.703 240.026 781.995Q241.135 782.288 242.255 782.529Q243.376 782.77 244.507 782.958Q245.637 783.146 246.775 783.28Q247.914 783.415 249.057 783.496Q250.2 783.577 251.346 783.605Q252.492 783.632 253.638 783.606Q254.784 783.58 255.927 783.5Q257.071 783.42 258.209 783.287Q259.347 783.154 260.478 782.967Q261.609 782.78 262.73 782.541C266.56 781.749 270.185 779.762 274.024 778.937C276.197 778.469 277.984 778.298 279.923 779.582C280.727 780.772 280.9 781.349 280.933 782.784C280.398 784.28 279.919 784.662 278.7 785.58Q275.977 786.988 273.102 788.055C258.984 793.194 241.794 792.881 228.162 786.397C222.382 783.648 207.275 774.091 205.746 767.733C205.212 765.511 206.005 764.254 207.179 762.471Z"/>
	<path fill="#331F42" d="M553.746 78.2068C567.226 76.6742 581.826 79.3729 594.49 83.871C623.373 94.13 649.046 112.647 662.416 140.849C667.48 151.531 669.426 162.479 670.557 174.145C673.507 204.571 668.998 234.051 658.802 262.772C654.172 257.264 649.868 250.211 644.39 245.617C644.065 231.189 643.045 216.031 636.604 202.847C634.053 197.624 630.254 192.6 624.494 190.773C621.479 189.818 618.463 189.965 615.661 191.475C603.577 197.982 605.996 214.117 602.463 225.026C599.538 234.058 588.963 241.763 580.762 245.768C555.713 258.001 525.428 254.221 499.867 245.532Q498.088 244.892 496.333 244.191Q494.577 243.49 492.847 242.728Q491.117 241.966 489.414 241.145Q487.711 240.324 486.038 239.445Q484.365 238.565 482.723 237.628Q481.081 236.691 479.473 235.698Q477.864 234.705 476.291 233.656Q474.718 232.608 473.182 231.506Q471.647 230.403 470.15 229.249Q468.653 228.094 467.197 226.888Q465.742 225.682 464.329 224.426Q462.915 223.171 461.547 221.867Q460.178 220.563 458.855 219.212Q457.532 217.862 456.257 216.466Q454.982 215.071 453.756 213.632Q452.53 212.193 451.354 210.713C447.499 205.804 444.391 199.378 439.881 195.151C438.474 194.844 438.261 194.786 436.918 195.265C435.926 196.23 435.378 197.03 434.938 198.357C433.372 203.083 433.754 209.074 433.754 214.037C433.752 241.149 440.681 264.865 453.079 288.674C444.243 286.79 435.93 283.659 428.974 277.718C417.19 267.651 413.413 251.304 412.224 236.491C409.567 203.407 421.864 173.147 443.22 148.364C449.626 140.931 457.163 134.844 464.177 128.034C490.657 102.321 514.972 81.1429 553.746 78.2068Z"/>
	<path fill="#FEFEFE" d="M619.382 198.458C620.889 198.501 622.392 198.485 623.732 199.265C628.913 202.282 631.479 210.773 633.041 216.222C636.386 227.894 637.783 242.528 633.604 254.177C632.263 257.914 630.23 261.3 628.3 264.754C633.293 280.892 633.363 300.275 629.946 316.745C625.283 339.222 611.816 363.382 592.202 376.144C585.317 380.624 578.941 381.152 571.069 379.495C549.668 374.99 522.358 354.819 506.68 339.539C499.779 332.814 493.658 325.38 487.267 318.18C479.87 309.847 471.95 301.019 465.892 291.652C464.501 287.754 472.966 285.44 474.477 281.744C474.468 280.826 474.433 280.266 473.907 279.463C473.239 278.444 472.15 277.59 470.901 277.481C467.115 277.152 462.978 281.963 460.525 284.296C447.426 260.986 441.665 238.249 441.942 211.423C461.511 236.657 476.968 245.121 505.86 256.414C502.388 257.756 497.33 259.362 494.698 262.072C493.663 263.138 493.666 263.754 493.648 265.19C494.1 266.104 494.382 266.529 495.251 267.12C499.694 270.137 503.064 265.203 507.157 264.376C513.686 263.057 520.892 261.582 527.543 261.307C532.605 261.097 537.811 261.849 542.887 261.98C563.909 262.521 586.07 255.992 601.154 240.809C604.844 237.094 608.428 232.716 610.34 227.787C613.996 218.363 610.66 206.508 619.016 198.785C619.136 198.674 619.26 198.567 619.382 198.458Z"/>
	<path fill="#010100" d="M570.039 321.366C570.623 321.429 571.427 321.463 571.997 321.667C573.601 322.241 574.548 323.751 575.321 325.176C578.735 331.467 579.771 340.774 577.653 347.581C575.916 353.161 572.181 358.051 566.887 360.656C560.051 364.021 552.755 363.076 545.855 360.601C542.751 359.269 539.039 357.568 536.773 355.015C535.779 353.897 535.015 352.428 535.246 350.884C535.476 349.342 536.766 347.963 537.957 347.044C542.633 343.434 548.118 340.717 552.898 337.126C559.215 332.381 564.287 326.707 570.039 321.366Z"/>
	<path fill="#FEFEFE" d="M569.37 333.432C569.522 333.589 569.659 333.762 569.767 333.951C571.155 336.356 571.079 341.082 570.351 343.69C569.268 347.573 566.881 351.204 563.305 353.194C558.787 355.707 554.294 354.913 549.57 353.662L546.159 352.267L546.076 351.672C554.107 346.234 562.613 340.416 569.37 333.432Z"/>
	<path fill="#010100" d="M496.014 282.55C499.037 282.292 500.438 282.393 502.875 284.28C511.556 291.002 516.441 306.574 518.178 317.012C518.996 321.925 519.164 327.055 520.161 331.912C520.736 334.714 523.589 337.436 523.599 340.248C523.605 341.867 522.8 342.477 521.838 343.607C520.601 343.797 519.187 343.992 517.968 343.607C517.001 343.302 516.074 342.74 515.418 341.962C511.01 336.741 511.147 322.756 509.821 315.934C509.264 313.063 508.371 310.192 507.384 307.442C506.218 304.193 504.76 300.985 502.906 298.069C500.691 294.587 496.71 290.29 495.393 286.462C494.908 285.049 495.49 283.854 496.014 282.55Z"/>
	<path fill="#010100" d="M526.583 276.542C528.526 276.409 530.524 276.343 532.412 276.903C535.624 277.857 538.646 280.117 540.163 283.139C541.314 285.432 541.538 288.1 540.584 290.503C539.289 293.765 536.795 295.322 533.727 296.701C531.994 296.838 530.485 296.795 528.801 296.3C525.196 295.238 521.974 292.781 520.302 289.379C519.201 287.137 518.874 284.449 519.822 282.092C521.087 278.948 523.607 277.735 526.583 276.542Z"/>
	<path fill="#010100" d="M485.958 299.989C487.473 299.953 488.995 299.858 490.427 300.446C493.932 301.885 495.409 305.175 496.772 308.447C495.693 311.607 494.586 313.398 492.042 315.606C491.234 315.586 490.413 315.589 489.616 315.44C487.101 314.973 484.434 312.499 483.118 310.396C481.986 308.586 481.377 306.325 481.936 304.217C482.543 301.928 484.028 301.087 485.958 299.989Z"/>
	<path fill="#CAC0FC" d="M690.997 292.983C704.9 295.469 729.805 309.059 738.609 320.423C744.961 328.622 746.619 343.002 747.632 353.023C751.037 386.711 748.399 421.534 746.801 455.291C745.756 477.343 745.306 501.827 742.584 523.605C718.243 539.376 692.896 550.802 665.469 560.074C651.907 564.138 638.212 567.44 624.102 568.82C628.484 560.283 633.391 552.027 637.81 543.509C664.863 491.365 700.145 398.747 699.326 340.017C699.097 323.613 695.93 308.561 690.997 292.983Z"/>
	<path fill="#331F42" d="M691.483 163.848C695.317 164.086 699.069 165.044 702.737 166.149Q707.987 167.718 713.02 169.882Q718.054 172.047 722.804 174.777C739.84 184.405 780.623 214.991 789.228 231.508C800.321 252.799 781.536 308.054 774.363 330.429C771.372 328.746 768.209 327.289 765.14 325.747C759.944 323.328 753.913 321.288 749.072 318.302C744.919 315.739 741.545 311.236 737.738 308.115C730.241 301.969 721.874 297.543 713.332 293.086C708.278 290.448 703.226 288.315 697.785 286.594C690.201 284.194 682.727 283.31 676.23 278.296C672.473 275.396 668.997 272.078 665.498 268.874C667.266 261.994 670.581 255.582 672.191 248.606C674.783 248.437 677.478 248.313 679.992 247.628C684.424 246.419 687.357 242.97 689.483 239.073C699.871 220.033 697.498 184.329 691.483 163.848Z"/>
	<path fill="#FEFEFE" d="M641.967 254.844C645.739 258.616 648.993 263.221 652.64 267.177C661.129 276.384 671.807 285.655 682.53 292.158C686.508 304.693 689.857 317.208 690.882 330.381C695.249 386.505 667.182 454.695 646.501 506.234C643.094 500.873 640.254 495.472 637.77 489.624C623.277 454.55 622.132 416.973 621.668 379.515C626.831 386.057 630.765 394.663 636.559 400.539C637.761 401.759 638.766 402.544 640.536 402.546C641.523 401.938 643 400.823 643.171 399.565C643.832 394.68 623.12 367.107 619.143 361.58C623.991 353.422 628.937 345.385 632.427 336.524C640.69 315.547 642.131 287.72 637.014 265.696C639.236 262.26 640.614 258.681 641.967 254.844Z"/>
	<path fill="#FEFEFE" d="M554.33 743.323C562.429 751.038 570.401 758.017 580.827 762.45C596.33 769.041 610.619 766.856 625.829 760.76Q616.74 776.807 606.996 792.464Q597.252 808.121 586.869 823.362Q576.486 838.604 565.481 853.403Q554.477 868.202 542.871 882.533Q531.938 895.596 521.145 908.775C510.473 895.927 502.102 880.836 492.33 867.27C508.639 838.653 523.027 808.625 537.3 778.943C542.998 767.095 548.229 754.97 554.33 743.323Z"/>
	<path fill="#9F8BE8" d="M766.066 729.212C771.918 731.961 777.386 737.23 782.638 741.042C799.121 753.005 816.792 762.387 836.769 766.932C859.657 772.14 881.362 766.571 900.904 754.342C900.055 765.978 894.381 785.056 891.545 797.107C890.698 801.364 890.224 805.205 887.276 808.599C880.888 815.953 860.588 818.982 851.209 819.39C819.823 820.754 789.476 805.564 766.826 784.814C765.973 774.456 766.153 763.768 765.762 753.362C765.507 746.556 764.538 739.332 764.79 732.573C764.85 730.962 765.246 730.502 766.066 729.212Z"/>
	<path fill="#9F8BE8" d="M545.03 669.368C549.323 673.448 553.012 678.302 557.349 682.432C575.556 699.768 595.653 708.619 620.225 712.63C622.818 724.447 626.936 736.434 630.774 747.909C628.251 749.748 625.56 751.41 622.956 753.134C614.995 757.447 605.513 759.442 596.498 758.452C579.699 756.608 565.909 744.842 555.839 732.041C539.704 711.532 542.035 693.825 545.03 669.368Z"/>
	<path fill="#CAC0FC" d="M612.909 368.861C614.948 376.39 613.679 393.285 613.875 401.89C614.839 444.227 619.702 480.136 642.83 516.361C636.462 526.797 631.909 538.217 625.752 548.806C625.086 549.854 625.182 550.062 623.973 550.544C618.923 549.543 610.51 544.084 607.55 539.929C604.377 535.477 604.34 524.905 603.704 519.412Q598.924 478.271 598.492 436.855C598.474 427.796 599.019 418.755 599.284 409.703C599.572 399.869 599.209 389.633 600.689 379.896C605.186 376.653 608.999 372.762 612.909 368.861Z"/>
	<path fill="#CAC0FC" d="M297.232 529.649Q299.605 529.437 301.988 529.444C309.74 529.395 316.751 531.567 324.335 532.642C338.13 534.597 350.431 531.945 361.44 542.942C370.473 551.963 372.025 564.577 372.01 576.751C365.545 570.084 357.595 564.748 349.298 560.654C348.613 559.363 347.794 558.14 347.018 556.9C341.515 549.787 334.186 543.686 325.916 540.062C316.438 535.909 305.64 535.164 295.948 539.089C288.912 541.939 283.432 546.733 280.485 553.814C276.355 552.378 272.366 550.741 268.646 548.428C269.778 546.118 270.925 543.84 272.469 541.769C278.155 534.14 288.232 531.072 297.232 529.649Z"/>
	<path fill="#CAC0FC" d="M277.197 639.864C277.258 639.926 277.329 639.98 277.382 640.05C280.675 644.445 281.173 660.738 280.938 666.496C280.257 683.175 272.286 692.25 260.536 703.042C255.512 700.107 250.558 697.977 244.885 696.671C240.858 695.941 237.125 695.935 233.074 696.378C256.26 683.19 266.608 663.049 277.197 639.864Z"/>
	<path fill="#FEFEFE" d="M678.104 162.997C679.061 163.012 679.847 163.109 680.775 163.346C685.526 167.74 686.889 179.466 687.649 185.656C689.402 199.94 689.34 226.789 680.045 238.723C678.744 239.44 676.846 240.506 675.335 240.283C674.617 240.178 674.532 239.612 674.192 239.049C674.06 235.37 676.83 225.629 677.543 220.979Q678.964 211.207 679.36 201.341Q679.757 191.475 679.125 181.621C678.871 177.669 676.279 165.796 678.104 162.997Z"/>
	<path fill="#CAC0FC" d="M308.738 544.708C320.435 544.966 328.114 549.977 336.495 557.715C329.651 556.451 322.88 556.195 315.946 556.116C308.232 556.419 299.803 558.032 292.193 557.433C290.659 557.312 289.859 557.029 288.893 555.839C288.956 554.781 289.266 554.161 289.959 553.354C294.786 547.73 301.597 545.379 308.738 544.708Z"/>
	<path fill="#CAC0FC" d="M278.172 520.643C283.082 520.299 289.247 519.678 293.923 521.589C294.165 521.688 294.401 521.8 294.64 521.905L294.705 521.721L294.015 522.538C290.556 521.902 285.607 523.923 282.408 525.252C274.41 528.574 265.907 533.876 262.501 542.203L261.624 544.651C259.988 545.864 250.699 543.475 247.366 543.303Q248.78 540.35 250.723 537.715C257.441 528.462 266.929 522.476 278.172 520.643Z"/>
	<path fill="#CAC0FC" d="M247.816 526.108L249.01 526.138C249.406 527.29 247.939 528.338 247.161 529.255C242.824 534.363 240.371 538.62 238.144 544.975C233.845 546.839 229.895 550.072 226.093 552.791L219.564 551.349C218.795 551.29 218.043 551.047 217.294 550.862L216.932 549.895C217.305 548.04 218.162 546.559 219.239 545.024C226.234 535.053 235.797 528.251 247.816 526.108Z"/>
	<path fill="#FEFEFE" d="M423.313 687.407C425.849 690.345 427.062 696.836 428.17 700.62C426.85 701.994 425.469 703.363 423.981 704.555C416.67 710.412 408.472 711.466 399.378 710.379C396.882 709.974 394.467 709.22 392.037 708.531C405.022 702.099 413.217 698.016 423.313 687.407Z"/>
</svg>
