<?xml version="1.0" encoding="utf-8" ?>
<svg xmlns="http://www.w3.org/2000/svg" xmlns:xlink="http://www.w3.org/1999/xlink" width="1024" height="1024">
	<path fill="#9F8BE8" d="M0 0L689.114 0L1024 0L1024 988.165L1024 989.77L1024 1024L962.052 1024L883.267 1024L813.999 1024L698.526 1024L635.773 1024L532.482 1024L468.297 1024L371.931 1024L308.273 1024L213.494 1024L148.976 1024L50.8486 1024L0 1024L0 1015.62L0 915.397L0 879.423L0 743.338L0 299.514L0 0Z"/>
	<path fill="#030302" d="M0 0L689.114 0C679.978 5.87011 668.507 9.5309 658.442 13.7202L610.06 34.2523Q531.282 69.081 451.82 102.323C439.349 107.547 427.053 113.158 414.523 118.248C408.922 120.524 403.123 123.25 397.211 124.545C397.414 128.515 397.773 133.028 394.927 136.255C393.173 138.243 390.126 139.425 387.526 139.505C386.711 139.531 385.882 139.515 385.067 139.479C380.627 145.221 368.521 155.948 361.266 156.736C357.161 157.183 353.606 155.058 350.585 152.494C347.05 149.492 343.914 145.977 340.758 142.586C336.903 143.889 334.138 145.557 331.054 148.207C332.428 152.828 333.109 157.194 331.227 161.825C330.246 162.692 330.31 162.62 328.992 162.561C327.977 161.905 326.965 161.259 325.924 160.644C326.362 163.003 328.442 165.502 329.366 167.83C331.72 173.764 333.009 180.331 333.825 186.641C337.624 215.996 329.987 255.489 323.995 284.58C322.398 292.332 321.163 300.673 318.567 308.143C324.619 325.023 334.256 341.886 343.17 357.415C348.388 366.505 354.398 375.578 357.867 385.498C357.396 387.797 356.988 390.126 356.32 392.377C367.86 405.324 386.676 431.201 385.948 448.907C385.726 454.308 383.425 459.077 379.365 462.641Q378.89 463.061 378.394 463.457Q377.899 463.853 377.384 464.224Q376.87 464.595 376.338 464.94Q375.806 465.286 375.258 465.604Q374.709 465.923 374.146 466.215Q373.582 466.506 373.005 466.769Q372.428 467.032 371.839 467.267Q371.25 467.501 370.649 467.706Q370.049 467.912 369.44 468.087Q368.83 468.262 368.213 468.408Q367.595 468.553 366.972 468.667Q366.348 468.782 365.719 468.866Q365.09 468.949 364.458 469.002Q363.826 469.055 363.192 469.076Q362.558 469.098 361.924 469.088Q361.29 469.078 360.657 469.037C353.702 468.532 347.501 465.035 343.143 459.639C341.295 457.351 338.653 453.264 338.921 450.167C339.062 448.533 339.767 447.432 341.072 446.496C342.607 445.395 344.598 445.096 346.409 444.715C344.567 441.219 332.556 414.674 331.002 414.241C330.056 413.978 329.416 414.036 328.461 414.058C323.425 414.173 312.431 403.215 308.409 399.32Q307.426 398.368 306.473 397.385C306.1 402.685 305.783 408.004 305.294 413.294C304.979 416.71 304.293 420.298 304.463 423.718C304.967 433.843 308.355 444.364 310.54 454.237C316.089 479.315 322.585 504.13 328.903 529.022C331.108 537.709 334.19 546.298 335.917 555.083C339.268 572.126 340.297 589.545 341.81 606.82Q343.808 631.173 347.671 655.3Q352.312 684.831 358.903 713.988C361.455 725.173 365.446 736.585 366.837 747.956C365.4 748.945 363.978 749.96 362.47 750.839C363.588 753.618 364.759 756.264 366.175 758.905C373.383 761.535 379.353 766.383 386.086 769.943C400.35 777.488 415.57 778.741 431.299 780.259C437.934 780.899 444.137 780.878 447.365 787.744C449.535 792.358 449.858 797.902 448.699 802.821C459.854 804.463 518.22 809.615 523.178 812.315L523.361 812.862C513.638 821.035 490.358 832.637 478.486 839.158L418.772 872.451Q331.824 920.616 245.399 969.716L181.308 1005.81C170.633 1011.81 159.248 1017.36 148.976 1024L50.8486 1024L0 1024L0 1015.62L0 915.397L0 879.423L0 743.338L0 299.514L0 0Z"/>
	<path fill="#ECD4A4" d="M0 0L689.114 0C679.978 5.87011 668.507 9.5309 658.442 13.7202L610.06 34.2523Q531.282 69.081 451.82 102.323C439.349 107.547 427.053 113.158 414.523 118.248C408.922 120.524 403.123 123.25 397.211 124.545L397.278 123.911C397.586 121.264 398.073 119.059 400.312 117.387C402.455 115.787 405.89 115.907 408.444 115.2C417.013 112.827 423.015 103.831 424.512 95.4847C427.169 80.6714 420.629 65.6387 412.204 53.8056C400.613 37.5275 388.157 24.5234 367.556 21.2754C353.279 19.0247 338.566 23.6828 327.101 32.1553C324.16 34.3285 321.343 36.6988 319.076 39.5848C314.7 45.158 311.853 52.6057 305.825 56.6622C296.811 62.7277 282.168 58.7327 275.932 69.8304Q275.242 71.0685 274.854 72.4314Q274.534 73.5302 274.402 74.6669C273.665 81.1021 276.893 86.3459 280.859 91.0519C274.991 91.3879 269.516 91.6045 264.104 94.2389C258.143 97.1408 254.331 102.526 248.89 106.063C238.457 112.846 211.998 124.959 205.393 132.423C202.514 135.678 200.723 139.846 201.153 144.246C201.658 149.421 204.9 154.487 208.959 157.625C213.156 160.87 217.866 162.054 223.02 162.605C221.495 167.59 218.829 172.027 216.857 176.822C207.927 174.271 200.906 172.973 192.342 177.708C177.864 185.712 168.971 204.065 157.385 215.845C147.13 226.273 135.292 234.973 124.576 244.889C121.432 247.798 119.322 251.62 116.322 254.54C77.2023 268.47 38.7925 284.664 0 299.514L0 0Z"/>
	<path fill="#ECD4A4" d="M253.366 775.19L299.941 778.244C306.318 778.626 314.866 777.975 320.886 779.536C318.893 791.742 314.372 812.403 322 822.959C323.5 825.035 325.503 826.74 328.108 827.058C332.201 827.557 336.955 826.904 341.101 826.759C353.218 825.885 365.222 824.202 377.247 822.51C400.236 819.276 423.409 815.766 444.91 806.665C446.352 805.599 447.506 804.155 448.699 802.821C459.854 804.463 518.22 809.615 523.178 812.315L523.361 812.862C513.638 821.035 490.358 832.637 478.486 839.158L418.772 872.451Q331.824 920.616 245.399 969.716L181.308 1005.81C170.633 1011.81 159.248 1017.36 148.976 1024L50.8486 1024L0 1024L0 1015.62L0 915.397C8.15468 911.946 16.2067 906.836 23.9823 902.552L69.8517 877.155L180.183 815.827C204.486 802.229 228.577 787.869 253.366 775.19Z"/>
	<path fill="#ECD4A4" d="M253.366 775.19L299.941 778.244C306.318 778.626 314.866 777.975 320.886 779.536C318.893 791.742 314.372 812.403 322 822.959C323.5 825.035 325.503 826.74 328.108 827.058C332.201 827.557 336.955 826.904 341.101 826.759L341.099 827.679C336.986 830.888 331.825 833.271 327.252 835.784C317.293 841.256 307.221 846.479 297.226 851.87L203.834 902.717C157.803 927.721 112.207 953.679 66.4459 979.18C44.4364 991.444 22.5243 1004.34 0 1015.62L0 915.397C8.15468 911.946 16.2067 906.836 23.9823 902.552L69.8517 877.155L180.183 815.827C204.486 802.229 228.577 787.869 253.366 775.19Z"/>
	<path fill="#9F8BE8" d="M341.101 826.759C353.218 825.885 365.222 824.202 377.247 822.51C400.236 819.276 423.409 815.766 444.91 806.665C443.32 809.461 440.189 810.92 437.466 812.45C425.634 819.099 413.402 825.091 401.393 831.413C384.917 840.085 368.61 849.121 352.272 858.05Q229.592 924.573 107.764 992.656Q89.3587 1002.92 70.8379 1012.97C64.3029 1016.5 56.9155 1019.79 50.8486 1024L0 1024L0 1015.62C22.5243 1004.34 44.4364 991.444 66.4459 979.18C112.207 953.679 157.803 927.721 203.834 902.717L297.226 851.87C307.221 846.479 317.293 841.256 327.252 835.784C331.825 833.271 336.986 830.888 341.099 827.679L341.101 826.759Z"/>
	<path fill="#9F8BE8" d="M116.322 254.54C109.441 269.619 107.821 286.085 103.728 301.995C101.209 311.784 96.98 321.955 95.8606 331.967C95.4222 335.888 96.8919 340.748 98.2678 344.401C102.412 355.402 114.621 370.704 123.688 378.228Q127.131 381.037 130.917 383.363Q134.702 385.69 138.764 387.492C144.168 389.865 150.065 391.52 155.977 391.836C158.86 390.57 161.519 389.058 164.229 387.459C166.072 395.312 167.634 403.269 170.075 410.967C171.71 416.125 174.609 421.365 175.519 426.682C176.449 432.12 176.121 438.085 176.207 443.594Q176.399 457.643 176.79 471.689C177.294 489.879 179.446 509.163 176.927 527.187C173.344 552.825 152.032 588.247 138.798 611.161C133.181 620.885 127.717 630.755 121.805 640.302C116.086 649.539 109.665 658.543 104.334 667.99C103.019 670.321 104.292 672.143 103.68 674.241C103.183 675.947 100.664 678.724 99.5208 680.174C97.6914 682.495 95.6756 685.147 93.3886 687.031C90.4545 689.447 86.1457 690.694 82.9372 692.872C76.04 697.555 62.9605 709.196 58.8963 716.331C57.3163 719.104 56.308 722.195 57.0068 725.389C58.6941 733.104 67.3789 738.426 72.7725 743.513C48.5319 743.046 24.25 743.53 0 743.338L0 299.514C38.7925 284.664 77.2023 268.47 116.322 254.54Z"/>
	<path fill="#9F8BE8" d="M141.724 703.72C144.484 704.995 149.565 707.851 152.614 706.729C156.613 705.257 161.698 698.226 164.52 695.09Q187.702 669.24 208.338 641.314C216.719 630.084 224.98 618.911 232.298 606.944C238.814 596.288 244.71 584.432 248.449 572.501Q249.43 569.322 250.32 566.117C254.057 572.828 258.705 579.817 260.873 587.216C263.155 595.001 263.43 603.154 264.525 611.151Q266.778 627.121 270.663 642.775C274.179 656.453 278.217 670.29 282.656 683.693C288.968 702.749 295.345 721.698 300.398 741.14C302.149 747.878 304.287 754.689 304.682 761.663C309.902 766.665 314.762 767.444 321.672 768.444C321.778 771.142 322.782 776.46 321.812 778.832L320.886 779.536C314.866 777.975 306.318 778.626 299.941 778.244L253.366 775.19C228.577 787.869 204.486 802.229 180.183 815.827L69.8517 877.155L23.9823 902.552C16.2067 906.836 8.15468 911.946 0 915.397L0 879.423L0 743.338C24.25 743.53 48.5319 743.046 72.7725 743.513C80.6506 749.19 88.2139 755.246 95.1457 762.062C114.27 780.865 121.077 790.869 148.886 796.811C152.627 797.476 156.691 797.988 160.497 797.889C165.141 797.769 170.528 796.733 173.73 793.071C176.925 789.418 176.771 785.526 176.411 781.017C171.612 769.534 158.13 764.134 152.601 753.167C151.03 750.053 150.373 746.186 149.571 742.799C146.259 731.775 144.023 719.548 137.385 709.965C138.789 707.849 140.181 705.739 141.724 703.72Z"/>
	<path fill="#ECD4A4" d="M0 743.338C24.25 743.53 48.5319 743.046 72.7725 743.513C80.6506 749.19 88.2139 755.246 95.1457 762.062C114.27 780.865 121.077 790.869 148.886 796.811C140.96 803.324 123.149 811.58 113.15 817.021L51.7071 850.914L15.7726 870.97C10.6347 873.8 5.38599 877.151 0 879.423L0 743.338Z"/>
	<path fill="#ECD4A4" d="M149.571 742.799C165.96 742.2 182.52 742.878 198.918 743.108C215.208 743.337 231.583 743.119 247.849 744.033C234.434 750.534 221.414 757.866 208.246 764.849C197.714 770.435 187.055 775.659 176.411 781.017C171.612 769.534 158.13 764.134 152.601 753.167C151.03 750.053 150.373 746.186 149.571 742.799Z"/>
	<path fill="#9F8BE8" d="M172.128 391.868C210.717 407.237 255.024 420.513 296.736 422.074C298.3 427.911 299.018 434.052 300.387 439.958Q307.538 472.092 315.387 504.063C318.29 516.031 321.186 528.101 324.362 539.994C326.604 548.388 329.43 556.58 330.775 565.19C332.721 577.643 333.237 590.422 334.368 602.975C336.234 623.684 338.572 644.683 342.006 665.196C344.595 680.662 347.478 696.233 351.074 711.491C353.778 722.965 357.203 734.394 359.253 746.003C355.864 747.976 352.558 750.117 349.227 752.186C343.596 755.487 337.821 758.218 331.507 759.945C326.497 761.316 318.333 763.173 313.645 760.343C309.998 758.141 309.256 747.805 308.263 743.815C300 710.619 286.964 678.944 278.577 645.847C276.277 636.771 273.872 627.457 272.36 618.215C270.793 608.634 270.188 590.337 266.738 582.415C258.908 564.437 246.905 547.663 236.791 530.872C210.334 486.952 184.894 441.925 172.128 391.868Z"/>
	<path fill="#FEFEFE" d="M269.782 155.695C271.567 155.518 272.783 155.67 274.398 156.465C286.834 162.588 295.012 191.947 297.202 204.827C302.69 237.107 299.517 271.777 309.571 303.148C316.442 324.589 327.973 344.989 338.791 364.666C342.619 371.63 347.929 377.889 350.492 385.474C346.932 395.197 339.148 402.905 330.063 407.667C329.578 407.399 329.109 407.132 328.644 406.829C320.172 401.315 313.038 393.468 305.973 386.286C272.638 352.403 263.755 328.503 254.021 282.75C251.764 268.862 247.905 255.223 245.998 241.254C245.249 235.767 244.063 210.44 242.019 207.587C241.308 207.235 240.898 206.891 240.074 206.931C238.976 206.984 237.776 207.497 237.161 208.466C233.382 214.419 244.634 270.923 246.903 281.87C239.801 294.041 203.004 334.37 191.302 339.773C206.04 306.149 209.513 275.156 212.744 239.052C214.062 224.319 214.69 209.597 218.293 195.18C220.054 188.133 223.342 182.446 225.737 175.726L225.955 175.096C238.653 166.732 254.429 157.207 269.782 155.695Z"/>
	<path fill="#9F8BE8" d="M182.583 446.797C185.324 449.047 197.398 475.342 200.282 480.659C206.807 492.687 213.227 504.866 220.161 516.659C228.178 530.296 236.838 543.592 244.796 557.25C241.666 586.423 216.47 619.168 199.019 641.972Q180.375 666.509 160.102 689.718C157.135 693.307 153.794 696.641 150.607 700.036C135.251 694.175 121.066 685.003 110.628 672.17C112.515 667.171 116.151 662.348 118.935 657.744L138.611 625.348C153.131 600.943 174.479 565.292 181.492 538.278C183.333 531.187 184.122 523.799 184.484 516.495C185.201 502.029 183.962 487.53 183.228 473.091C182.783 464.342 182.733 455.556 182.583 446.797Z"/>
	<path fill="#9F8BE8" d="M202.077 181.556C206.001 181.564 209.297 182.04 213.052 183.075C197.045 201.548 186.619 223.631 170.787 242.175C162.083 252.368 153.086 263.398 143.107 272.327C137.346 277.481 131.109 281.625 125.132 286.442C124.492 286.957 124.19 287.808 124.173 288.648C124.143 290.124 124.345 290.422 125.245 291.478C125.96 291.688 126.621 291.864 127.377 291.808C139.588 290.905 175.751 248.413 183.402 237.763C192.911 224.524 200.296 209.598 210.919 197.21C205.685 227.656 204.77 258.488 199.774 288.982C194.184 317.626 188.11 331.971 174.767 358.174C171.252 365.076 162.442 382.199 154.577 384.363C149.211 385.838 141.317 381.342 136.806 378.73C123.834 371.219 107.28 352.816 103.502 338.114C102.712 335.037 103.015 332.085 103.52 328.987C104.949 320.22 108.244 311.355 110.472 302.73C113.79 289.886 116.157 269.986 122.669 258.97C129.773 246.956 150.686 233.028 161.438 221.874C167.183 215.915 172.372 209.257 177.403 202.692C181.192 197.746 184.746 192.554 189.361 188.323C193.211 184.794 197.025 182.839 202.077 181.556Z"/>
	<path fill="#030302" d="M189.6 196.43C191.156 196.787 192.248 197.067 193.345 198.308C193.518 199.183 193.726 199.554 193.427 200.422C192.195 203.996 188.058 208.11 185.867 211.315C180.266 219.507 173.796 234.366 164.542 238.854C163.769 238.538 162.899 238.227 162.202 237.768C161.03 236.996 160.754 236.298 160.481 234.987C162.97 230.162 168.731 225.193 172.058 220.508C176.887 213.709 180.693 206.057 185.81 199.485C186.907 198.077 188.033 197.265 189.6 196.43Z"/>
	<path fill="#FEFEFE" d="M252.773 309.32C254.636 311.143 257.539 323.8 258.688 327.198Q261.397 334.988 264.772 342.514C272.797 360.25 287.048 376.848 300.794 390.508Q298.968 402.951 298.458 415.517C275.434 415.774 250.847 409.939 228.886 403.41Q211.912 398.934 195.325 393.189C186.004 389.907 176.89 386.088 167.541 382.875L170.271 377.794C197.189 366.758 220.447 345.179 239.938 324.027C244.349 319.24 248.415 314.154 252.773 309.32Z"/>
	<path fill="#FEFEFE" d="M405.811 74.9179C406.742 76.1398 406.931 78.2236 407.042 79.7284C407.846 90.6437 404.865 100.46 398.642 109.352C396.143 112.923 393.218 116.476 391.483 120.503C390.372 123.082 391.665 129.347 389.973 130.996C388.619 132.316 387.337 132.227 385.56 132.195C384.926 132.183 384.293 132.143 383.66 132.16C378.96 132.284 381.279 135.623 379.13 137.54C377.818 138.711 374.339 138.484 372.675 140.005C371.234 141.322 372.536 142.796 371.313 144.111C369.653 144.607 367.83 145.02 366.427 146.075C364.633 147.424 361.375 150.626 359.021 150.353C353.733 149.737 342.362 131.919 341.499 126.741C341.027 123.909 341.03 117.99 338.698 116.043C337.732 115.236 336.43 115.091 335.232 115.366C333.879 115.676 333.29 116.458 332.553 117.543C331.313 122.99 336.127 130.245 338.194 135.252C335.079 138.563 329.852 141.735 325.889 143.999C312.251 130.536 292.765 123.219 273.701 122.578C261.429 122.166 237.364 126.736 228.442 135.448C227.196 136.665 226.438 137.678 226.535 139.529C226.599 140.763 227.084 141.717 227.995 142.529C228.428 142.563 228.868 142.713 229.295 142.632C230.604 142.387 233.792 139.983 235.123 139.257Q240.933 136.123 247.155 133.917Q248.01 133.603 248.872 133.311Q249.734 133.019 250.604 132.749Q251.473 132.478 252.349 132.23Q253.225 131.982 254.107 131.755Q254.989 131.529 255.876 131.325Q256.764 131.121 257.656 130.94Q258.548 130.758 259.444 130.599Q260.341 130.44 261.241 130.304Q262.141 130.167 263.045 130.053Q263.948 129.94 264.854 129.849Q265.76 129.758 266.668 129.689Q267.576 129.621 268.485 129.576Q269.394 129.531 270.305 129.508Q271.215 129.486 272.125 129.486Q273.036 129.487 273.946 129.51Q274.856 129.534 275.765 129.58Q276.675 129.626 277.583 129.696Q278.49 129.765 279.396 129.857Q280.302 129.949 281.205 130.064Q282.108 130.178 283.008 130.316Q283.908 130.453 284.805 130.613Q285.701 130.773 286.593 130.956Q287.485 131.139 288.372 131.344Q289.259 131.549 290.141 131.776Q291.023 132.003 291.898 132.252Q292.774 132.502 293.643 132.773Q294.512 133.044 295.374 133.337Q296.236 133.63 297.091 133.945Q297.945 134.26 298.791 134.596Q299.637 134.932 300.475 135.289Q301.312 135.647 302.14 136.025Q302.969 136.403 303.787 136.802C308.957 139.285 322.325 147.218 323.815 153.004C324.125 154.212 323.892 154.893 323.182 155.834C321.055 155.489 317.198 151.101 315.398 149.587C310.168 145.188 304.401 142.069 298.251 139.157C296.914 138.633 295.569 138.112 294.197 137.686C281.667 133.796 266.993 136.653 255.473 142.37C250.191 144.991 245.239 148.254 240.008 150.976C233.352 154.438 225.376 156.707 217.997 154.136C214.371 152.872 210.476 150.425 208.826 146.814C207.847 144.672 207.846 142.302 208.748 140.133C209.906 137.35 212.25 135.337 214.649 133.628C225.379 125.986 238.107 121.077 249.231 114.01C255.914 109.764 261.463 102.817 268.836 99.9811C279.525 95.8703 288.733 98.9466 298.625 103.415C299.856 106.242 300.754 109.022 301.584 111.988C293.643 107.622 285.73 105.225 276.667 105.57C275.393 106.566 275.491 107.332 275.123 108.873C276.937 111.257 283.421 111.947 286.427 112.851C294.057 115.147 298.188 120.063 304.954 123.368C306.654 124.199 307.865 124.577 309.687 123.978C310.204 120.435 308.874 116.594 309.161 112.835L309.228 112.017C320.2 113.92 328.161 113.998 338.288 108.723C337.457 105.716 336.276 102.733 335.243 99.7866C336.366 96.8743 337.805 94.2883 340.482 92.5243C342.542 91.1673 344.181 91.1361 346.539 91.5415C349.399 94.6563 345.518 102.248 347.65 106.637C348.341 108.059 349.551 109.056 351.091 109.444C353.671 110.094 356.629 109.435 359.133 108.757C364.489 107.308 383.41 99.4588 388.134 96.7963C398.325 91.0521 402.622 86.1942 405.811 74.9179Z"/>
	<path fill="#030302" d="M383.78 108.204C385.016 108.351 386.162 108.49 387.221 109.198C388.786 110.242 389.799 111.611 389.984 113.514C390.145 115.168 389.288 115.982 388.368 117.193C387.573 116.964 387.617 117.004 386.826 116.657C385.241 115.96 383.762 114.369 383.177 112.742C382.504 110.869 383.011 109.885 383.78 108.204Z"/>
	<path fill="#FEFEFE" d="M289.531 143.393C289.813 143.45 290.096 143.502 290.378 143.565C301.072 145.956 313.487 155.378 319.419 164.506C337.095 191.704 322.229 258.649 315.878 288.916C315.513 290.797 315.015 292.66 314.563 294.521C313.223 287.806 311.616 281.166 310.655 274.377C308.853 261.664 308.254 248.662 307.369 235.853C314.592 223.589 314.59 208.244 312.625 194.511C310.125 177.042 304.378 154.504 289.531 143.393Z"/>
	<path fill="#FEFEFE" d="M351.732 398.316C358.073 402.66 369.547 421.194 372.945 428.18C376.002 434.462 381.141 444.839 378.437 451.889C376.762 456.255 372.862 459.588 368.58 461.269C363.944 463.09 359.869 462.735 355.347 460.851C351.197 458.165 347.824 454.786 344.46 451.195C347.168 451.854 350.148 452.817 352.948 452.848C354.376 452.863 355.123 452.571 356.102 451.561C355.821 444.409 341.721 418.686 337.213 411.298C342.918 407.709 347.462 403.516 351.732 398.316Z"/>
	<path fill="#FEFEFE" d="M69.8323 713.82C72.7547 716.52 75.28 722.026 78.4212 725.397C86.6444 734.221 95.4395 742.505 103.946 751.052C125.183 772.388 137.069 785.554 169.567 786.664L169.865 787.383C168.457 789.132 166.58 790.201 164.375 790.517C163.6 790.753 162.809 790.983 162.005 791.098C157.468 791.742 151.418 790.576 146.979 789.562C122.852 784.049 115.162 770.44 98.3789 755.455C90.4124 748.342 81.7649 742.183 73.578 735.364C71.052 733.261 64.0516 727.334 63.806 724.1C63.4955 720.013 67.3208 716.595 69.8323 713.82Z"/>
	<path fill="#FEFEFE" d="M442.592 793.698C443.096 794.138 443.33 795.317 443.425 796.005C443.629 797.492 443.101 798.889 442.254 800.083C438.029 806.036 411.772 810.223 403.908 811.541C393.473 813.29 332.972 822.609 327.881 818.98C326.537 816.27 325.543 813.563 324.583 810.699C331.107 810.25 337.705 810.433 344.244 810.123C373.639 808.731 416.084 805.876 442.592 793.698Z"/>
	<path fill="#9F8BE8" d="M248.395 292.415C249.797 293.975 250.22 298.679 250.782 300.929C230.717 325.343 207.78 350.124 179.825 365.554L179.049 365.775L178.702 365.352C180.098 361.256 183.176 356.193 186.11 352.983C189.25 349.545 194.42 346.973 198.168 344.096C202.775 340.558 207.086 336.496 211.328 332.531C224.781 319.96 235.868 305.779 248.395 292.415Z"/>
	<path fill="#FEFEFE" d="M107.982 680.274C110.778 681.562 114.865 687.584 117.597 689.843C123.024 694.332 129.654 697.546 135.697 701.128C135.149 702.018 134.491 702.859 133.882 703.709C131.985 704.677 128.997 703.927 126.894 703.76C122.157 703.513 117.411 704.108 112.76 704.951C106.255 701.48 102.217 697.014 99.2623 690.202C102.421 687.157 104.992 683.502 107.982 680.274Z"/>
	<path fill="#9F8BE8" d="M272.348 144.633C274.459 144.47 276.926 144.935 278.918 145.634C287.938 148.798 294.445 158.582 298.204 166.921C302.518 176.491 309.576 208.211 305.914 217.894C305.009 212.452 304.588 207.051 303.503 201.606Q301.875 194.399 299.862 187.291C296.374 175.243 290.008 156.654 278.246 150.458C269.887 146.055 261.215 149.568 252.911 152.054C259.384 148.301 264.981 145.999 272.348 144.633Z"/>
	<path fill="#FEFEFE" d="M355.963 756.91C357.598 757.821 358.662 762.77 359.266 764.57C355.113 768.713 352.105 773.77 348.922 778.656C344.475 777.686 340.078 776.768 335.562 776.157L328.382 775.085C328.263 772.702 328.442 770.325 328.569 767.945C338.678 765.227 346.898 762.191 355.963 756.91Z"/>
	<path fill="#030302" d="M756.467 336.514C772.533 329.931 788.973 328.817 805.311 335.625C809.49 337.367 813.689 339.508 817.552 341.866C822.328 344.779 827.758 349.761 833.216 351.099C840.294 352.833 847.699 346.643 851.399 356.271C857.045 370.96 848.077 398.83 841.689 412.278C837.295 421.528 830.375 428.391 825.335 437.091L824.989 437.676L824.786 438.03C827.811 438.398 830.538 438.28 832.571 440.88C837.539 447.235 839.223 456.12 842.027 463.525C843.854 468.352 846.269 473.121 847.634 478.099C849.307 484.195 849.939 490.377 852.631 496.181C855.79 502.991 861.347 509.109 865.785 515.179L884.973 541.826C894.995 555.875 903.573 576.973 908.599 593.528C910.964 601.32 912.656 609.366 914.707 617.251C916.735 625.047 919.126 632.862 920.788 640.739C918.25 646.97 902.135 670.539 896.284 672.927C894.785 673.538 892.924 673.734 891.375 673.181C889.866 672.643 888.449 671.29 887.844 669.826C885.84 664.97 883.332 641.026 882.62 633.742C875.461 624.121 867.948 615.005 861.919 604.588C857.998 597.812 855.149 590.518 851.424 583.653C854.281 597.398 861.288 668.809 855.032 678.63C854.215 679.911 853.21 681.1 852.249 682.272C848.43 715.244 849.833 771.507 857.79 803.797C862.772 824.011 868.922 844.036 874.893 863.974C878.1 874.682 881.621 885.543 884.137 896.433C882.13 899.445 880.42 901.318 877.287 903.242C880.129 914.708 885.454 926.328 889.36 937.55C892.6 939.448 894.854 941.107 897.096 944.201C901.921 952.088 907.32 963.757 904.983 973.245Q904.818 973.907 904.627 974.562C903.965 976.081 903.3 977.818 902.224 979.092C897.495 984.695 886.395 988.134 879.588 990.808Q871.661 993.885 863.657 996.756C860.207 999.918 855.375 1002.2 851.256 1004.41C839.736 1010.59 824.481 1017.01 813.999 1024L698.526 1024L635.773 1024C641.287 1020 648.114 1017.03 654.142 1013.8C663.928 1008.55 673.54 1002.99 683.306 997.707C689.515 994.348 696.192 991.315 702.144 987.57C675.004 982.816 657.482 980.501 632.113 967.8C627.438 965.336 621.636 961.405 618.133 957.449C616.546 955.657 615.193 953.237 615.66 950.755C616.115 948.333 617.857 947.104 619.711 945.708C633.745 943.973 646.915 942.228 660.368 937.531C669.867 934.215 678.993 929.118 688.924 927.233C692.576 919.897 693.423 910.921 694.697 902.918C691.294 901.595 688.358 899.935 685.316 897.942C684.435 893.742 685.05 889.296 685.445 885.068L688.987 827.864C689.812 815.228 689.921 801.853 692.645 789.475C695.222 777.765 700.06 766.153 704.888 755.22C714.983 732.36 728.664 709.48 736.782 686.104C735.569 685.197 734.384 684.302 733.575 682.996C728.415 674.662 725.876 652.29 724.406 642.154C723.522 636.06 723.155 629.85 722.076 623.795C720.428 614.55 717.823 605.46 716.08 596.225C712.469 577.092 711.209 558.269 711.564 538.84C702.078 538.102 692.413 535.581 683.178 533.343C639.662 522.798 598.759 505.063 559.185 484.39C554.057 481.711 540.439 475.652 537.201 471.572C535.006 468.807 535.734 464.607 535.899 461.329C509.655 453.714 483.34 447.79 469.158 421.909C466.769 417.548 460.215 406.624 461.617 401.626C462.09 399.937 463.2 398.617 464.857 397.996C466.541 397.364 467.913 398.029 469.331 398.866C483.195 407.052 491.725 415.124 509.057 415.499C507.209 410.423 498.799 395.396 500.892 390.84C501.553 389.4 502.349 389.03 503.695 388.409C505.326 388.211 506.565 389.128 507.816 390.068C513.384 394.253 521.497 402.767 525.472 408.47C528.842 413.306 533.593 424.552 537.779 427.654C545.73 433.547 645.314 465.338 658.361 467.703C665.941 469.077 673.755 469.49 681.432 470.064Q700.447 471.464 719.486 472.489C722.201 465.049 724.81 459.389 731.379 454.601C730.313 450.036 729.068 445.41 728.78 440.715C721.436 440.839 712.093 440.396 706.403 435.022C703.662 432.433 702.435 428.648 702.504 424.939C702.63 418.198 706.684 409.301 707.284 400.612C706.238 398.823 703.705 395.371 704.329 393.26C704.548 392.517 704.774 392.085 705.26 391.515C708.72 387.454 715.112 386.585 718.235 382.229C722.838 375.808 717.437 369.91 727.242 361.048C725.082 356.778 723.671 352.927 725.162 348.096C726.457 343.902 729.7 340.617 733.538 338.625C740.333 335.099 749.102 335.221 756.467 336.514Z"/>
	<path fill="#9F8BE8" d="M774.737 800.346C776.938 805.981 779.13 811.604 780.995 817.362C782.856 823.105 784.393 829.075 786.73 834.642C788.913 839.842 791.841 844.88 794.423 849.903L809.733 879.553C815.827 891.451 821.082 904.359 827.87 915.816C828.876 917.513 829.703 918.721 831.557 919.556C834.031 920.672 836.978 920.35 839.607 920.126C841.853 926.464 845.255 932.264 847.53 938.543C845.079 941.34 843.27 944.423 841.377 947.611C837.437 954.356 832.897 960.775 826.606 965.531C818.647 971.55 807.006 974.387 800.027 980.971C797.211 983.629 795.358 989.543 796.291 993.323C796.947 995.978 798.882 997.847 801.234 999.103C812.202 1004.96 835.456 1002.84 847.282 1000.53C852.756 999.462 858.177 997.624 863.657 996.756C860.207 999.918 855.375 1002.2 851.256 1004.41C839.736 1010.59 824.481 1017.01 813.999 1024L698.526 1024L635.773 1024C641.287 1020 648.114 1017.03 654.142 1013.8C663.928 1008.55 673.54 1002.99 683.306 997.707C689.515 994.348 696.192 991.315 702.144 987.57C708.312 987.851 715.971 988.484 721.34 984.884C726.502 981.424 727.268 975.532 728.359 969.912C728.864 965.326 729.545 960.718 729.355 956.093C729.144 950.967 728.28 945.896 728.288 940.752C728.3 932.574 729.535 924.453 730.835 916.4C731.491 913.653 732.124 910.897 732.815 908.159C736.809 907.24 742.059 906.769 744.443 902.983C749.5 894.953 756.434 850.579 758.499 838.623C759.612 832.18 760.147 825.066 762.626 818.983C765.414 812.143 770.283 806.168 774.737 800.346Z"/>
	<path fill="#ECD4A4" d="M698.526 1024C706.045 1019.47 714.313 1015.61 722.04 1011.38Q751.923 994.621 782.222 978.627C800.663 968.662 822.083 954.829 841.377 947.611C837.437 954.356 832.897 960.775 826.606 965.531C818.647 971.55 807.006 974.387 800.027 980.971C797.211 983.629 795.358 989.543 796.291 993.323C796.947 995.978 798.882 997.847 801.234 999.103C812.202 1004.96 835.456 1002.84 847.282 1000.53C852.756 999.462 858.177 997.624 863.657 996.756C860.207 999.918 855.375 1002.2 851.256 1004.41C839.736 1010.59 824.481 1017.01 813.999 1024L698.526 1024Z"/>
	<path fill="#ECD4A4" d="M730.835 916.4C757.03 918.78 782.766 923.552 808.802 927.084L752.193 957.276C744.287 961.495 736.043 965.307 728.359 969.912C728.864 965.326 729.545 960.718 729.355 956.093C729.144 950.967 728.28 945.896 728.288 940.752C728.3 932.574 729.535 924.453 730.835 916.4Z"/>
	<path fill="#FEFEFE" d="M779.753 504.636C782.7 504.427 785.637 504.423 788.576 504.761C802.643 506.38 819.82 520.486 828.348 531.315C847.33 555.423 848.433 609.992 849.768 640.09C850.264 651.269 851.755 662.818 850.517 673.97C841.338 681.893 827.417 683.109 815.923 685.279C811.688 657.214 811.88 629.148 814.138 600.919C814.906 591.332 820.721 549.645 819.684 544.517C819.394 543.086 818.954 542.23 817.751 541.416C816.913 541.617 816.689 541.593 815.999 542.186C812.342 545.33 812.507 553.461 812.1 557.967C810.814 566.137 810.102 574.485 809.175 582.706C806.946 602.486 805.062 622.209 805.695 642.143C806.319 661.822 808.854 680.992 811.735 700.425C811.048 701.778 810.38 703.297 809.213 704.306C801.961 710.577 788.607 712.229 779.416 711.871C761.38 663.456 739.594 591.689 748.292 539.673C749.91 529.993 753.063 521.06 756.831 512.037C764.185 508.564 771.715 505.948 779.753 504.636Z"/>
	<path fill="#9F8BE8" d="M743.546 688.267C750.176 690.906 757.619 691.503 764.677 692.082C768.272 699.598 769.917 707.785 773.424 715.299C775.794 716.794 778.182 717.745 780.79 718.734C783.873 729.528 792.525 752.771 798.558 761.59C792.269 767.652 786.926 775.365 781.154 781.982C772.723 791.648 763.729 800.897 757.831 812.422C752.665 822.515 750.681 842.1 748.603 853.585C746.065 867.615 743.355 881.521 740.04 895.391L739.843 897.467C739.137 898.629 738.291 899.265 737.03 899.747C726.787 903.654 701.015 898.246 691.401 893.928C693.274 886.255 692.944 877.235 693.453 869.286L696.164 826.999C696.754 817.603 697.029 808.197 698.382 798.866C702.083 773.339 715.313 748.848 726.449 725.908Q735.538 707.333 743.546 688.267Z"/>
	<path fill="#9F8BE8" d="M801.799 768.237C807.803 769.452 815.531 774.72 821.279 777.423Q827.339 780.311 833.671 782.541Q840.003 784.771 846.535 786.318C848.367 792.324 849.358 798.743 850.797 804.871C852.989 814.202 855.598 823.471 858.173 832.703C864.02 853.672 871.433 874.47 876.355 895.653C868.486 900.603 860.788 905.152 852.325 909.026C848.427 910.619 838.58 914.247 834.591 912.441C832.935 911.691 823.472 890.816 821.928 887.699Q813.534 870.553 804.719 853.62C800.627 845.9 795.716 838.087 792.39 830.034C790.391 825.195 789.121 819.941 787.554 814.944Q784.185 804.545 780.623 794.21C783.257 790.391 786.634 786.925 789.643 783.387Q795.977 776.018 801.799 768.237Z"/>
	<path fill="#FEFEFE" d="M554.057 441.47C572.135 448.671 590.722 454.18 609.225 460.135C625.824 465.477 643.202 471.906 660.454 474.536C679.812 477.487 699.446 477.041 718.842 479.195C718.791 486.031 719.335 492.155 721.303 498.728C718.26 504.165 714.762 509.55 713.527 515.735C712.752 519.622 713.569 529.292 711.933 531.836L710.471 531.803C671.32 526.516 622.957 508.266 587.498 491.027C572.1 483.54 557.214 475.071 542.102 467.034C543.758 457.453 547.203 448.572 554.057 441.47Z"/>
	<path fill="#9F8BE8" d="M776.76 337.701C790.788 336.471 803.977 341.506 815.548 349.101C820.866 352.591 826.226 356.446 832.522 357.916C836.756 358.904 840.464 358.519 844.652 357.735C845.361 359.816 845.906 361.785 846.059 363.988C846.966 377.04 840.995 398.667 834.703 410.312C832.071 415.184 828.635 419.407 825.037 423.589C824.444 424.203 823.832 424.781 823.203 425.359C821.579 426.851 819.999 428.163 817.638 427.954C806.313 426.949 790.344 408.944 783.149 400.285C768.901 383.136 757.988 366.299 760.134 343.041C765.63 339.461 770.39 338.491 776.76 337.701Z"/>
	<path fill="#9F8BE8" d="M823.828 441.088C824.342 441.442 824.494 441.518 824.904 441.877C828.89 445.364 832.587 453.588 832.716 458.843C832.841 463.94 829.814 466.468 825.764 468.897C820.948 471.786 815.425 473.682 809.941 474.811C804.405 475.951 778.269 477.573 776.356 478.842C775.891 479.15 775.57 479.634 775.178 480.03C774.81 481.46 774.792 481.68 775.213 483.091C778.675 486.484 787.281 484.976 791.905 485.463C800.895 486.41 814.135 492.914 823.662 495.247C831.641 497.201 837.246 495.903 844.17 491.734C845.449 498.651 847.268 507.709 844.142 514.305C841.594 519.682 836.656 521.7 831.426 523.615C821.742 515.206 812.405 507.037 800.628 501.664C776.787 491.61 755.95 505.635 735.058 516.117C730.098 518.606 725.218 521.239 719.863 522.788L719.059 523.017Q719.297 519.869 720.113 516.82C721.694 510.956 725.721 505.346 729.13 500.38C742.244 481.276 759.872 463.024 783.245 457.453C792.61 455.22 805.443 458.217 813.677 453.164C817.419 450.867 822.729 445.401 823.828 441.088Z"/>
	<path fill="#6048C9" d="M732.933 364.258C735.809 364.489 738.898 365.748 741.883 366.134L741.596 366.93C738.477 375.663 738.305 380.717 742.501 389.095C743.545 391.18 744.799 393.323 745.393 395.586C746.121 398.359 744.772 401.223 746.029 403.869C747.009 404.841 747.583 405.032 748.925 405.311C750.731 403.796 752.549 402.346 754.443 400.943C756.11 401.213 758.283 401.415 759.768 402.187C760.809 402.728 760.782 403.095 761.127 404.149C760.319 407.478 756.544 408.198 754.24 410.352Q754.076 415.393 753.997 420.436L754.536 420.956C755.833 420.867 756.916 420.542 758.141 420.148C759.083 424.826 756.738 429.319 758.164 434.299C760.619 442.871 768.997 448.369 776.252 452.569C766.549 456.256 758.902 460.906 750.518 466.898L745.023 471.088C740.831 461.073 735.989 451.638 735.204 440.662C738.244 439.67 742.702 439.343 745.021 437.054C746.128 435.961 746.42 435.082 746.411 433.562C743.866 430.95 727.941 435.152 723.119 434.876C719.188 434.652 713.925 433.29 711.267 430.166C706.629 424.714 711.934 409.314 712.85 402.025C713.059 400.361 712.784 399.497 712.114 397.954C711.715 397.036 711.33 396.349 711.25 395.333C711.13 393.829 721.093 389.809 722.712 387.539C728.206 379.837 724.544 372.744 732.933 364.258Z"/>
	<path fill="#FEFEFE" d="M888.752 944.735C891.055 945.957 893.113 950.274 894.212 952.622C897.456 959.557 900.378 967.204 897.646 974.663C897.294 974.91 896.939 975.153 896.577 975.386C883.147 984.005 850.644 993.772 835.151 995.269Q831.58 995.625 827.992 995.697Q824.404 995.77 820.822 995.56Q817.239 995.349 813.685 994.857Q810.13 994.365 806.625 993.594C806.093 993.539 805.837 993.534 805.287 993.368C803.836 992.929 803.38 992.278 802.651 991.03C802.4 988.6 803.22 986.969 805.049 985.356C808.775 982.07 814.528 980.321 819.018 978.205C833.165 971.536 841.932 959.591 849.756 946.516C852.395 949.092 855.022 951.378 858.396 952.977C864.683 955.956 872.04 956.068 878.553 953.721C883.33 952 886.624 949.321 888.752 944.735Z"/>
	<path fill="#FEFEFE" d="M687.624 934.554C689.446 934.92 693.267 943.073 694.787 944.996Q696.102 946.678 697.693 948.102Q699.284 949.526 701.101 950.647C708.142 954.936 715.412 954.751 723.094 952.889C722.664 961.708 721.751 970.327 719.223 978.816C705.899 983.57 679.964 977.415 666.275 973.605C655.157 970.735 630.855 961.941 623.261 953.757C622.498 952.934 622.654 953.346 622.699 952.327C624.658 951.287 642.646 949.76 646.895 948.781C653.509 947.258 660.303 945.21 666.592 942.669C673.563 939.853 680.337 936.501 687.624 934.554Z"/>
	<path fill="#9F8BE8" d="M852.686 509.348C855.852 512.585 862.812 523.331 865.889 527.545C871.185 534.796 876.784 541.987 881.534 549.612C895.611 572.214 903.49 598.346 908.953 624.216C905.709 627.891 902.172 631.264 898.657 634.676C896.024 637.583 893.299 640.36 890.502 643.11C888.348 626.461 885.871 608.113 879.674 592.435C874.689 579.823 867.797 567.889 862.603 555.307C857.843 543.774 854.509 531.742 849.744 520.215C850.888 516.641 851.762 512.984 852.686 509.348Z"/>
	<path fill="#FEFEFE" d="M746.631 517.452C746.826 517.605 747.148 517.672 747.216 517.91C747.225 517.94 743.414 529.534 743.056 530.98C740.055 543.095 739.293 555.329 739.425 567.782C739.849 607.755 751.341 647.306 762.753 685.321L752.626 683.144C748.382 682.072 744.167 680.851 739.945 679.692C736.161 670.437 734.542 660.286 732.723 650.492C726.194 615.344 725.533 594.895 731.218 559.251C732.72 549.839 734.138 540.234 736.743 531.06C738.604 524.509 740.7 520.797 746.631 517.452Z"/>
	<path fill="#6048C9" d="M509.449 399.867C523.337 408.854 525.117 426.047 533.656 432.509C537.598 435.492 542.625 437 547.232 438.66C543.026 443.446 540.836 449.19 538.364 454.964C525.225 451.496 511.716 447.469 499.344 441.858C483.19 434.566 475.267 420.922 468.316 405.344Q472.927 408.85 477.934 411.763C485.796 416.408 501.07 424.568 510.608 421.738C512.219 421.26 513.478 420.311 514.22 418.778C516.897 413.248 511.561 405.466 509.628 400.349L509.449 399.867Z"/>
	<path fill="#6048C9" d="M807.041 714.729C808.758 716.64 809.489 720.787 810.991 723.082C813.91 727.543 818.145 731.219 821.188 735.639C826.004 742.635 828.876 750.606 833.07 757.929C837.175 765.095 842.065 770.888 845.475 778.597C840.584 777.749 835.963 776.178 831.354 774.371C825.855 771.978 820.395 769.231 815.102 766.411C811.82 764.662 808.514 762.773 806.027 759.947C799.461 752.486 790.969 728.36 787.978 718.55C794.58 718.513 800.819 716.784 807.041 714.729Z"/>
	<path fill="#6048C9" d="M870.798 907.417C875.2 914.516 880.472 933.76 883.051 942.387C881.515 943.596 879.97 944.857 878.31 945.894C872.154 949.739 866.636 948.735 860.021 947.174C855.608 943.729 848.955 924.607 845.582 918.273C854.505 915.547 863.125 912.878 870.798 907.417Z"/>
	<path fill="#6048C9" d="M701.466 905.442C708.972 907.736 718.091 908.243 725.915 908.641C723.703 917.004 722.463 925.509 721.577 934.108C721.198 937.792 722.456 942.922 721.158 946.26L719.481 946.934C716.757 947.168 713.964 947.452 711.265 946.895C703.494 945.294 699.23 939.044 695.109 932.899C697.989 923.842 700.103 914.842 701.466 905.442Z"/>
	<path fill="#9F8BE8" d="M844.382 525.006C846.262 527.202 851.429 546.315 853.353 551.096C862.38 573.527 875.01 594.707 880.019 618.549L876.285 613.789C870.729 605.981 865.389 597.806 861.156 589.199C855.627 577.961 851.585 565.887 846.72 554.354C843.226 546.07 839.148 537.923 835.42 529.728C838.512 528.417 841.445 526.637 844.382 525.006Z"/>
	<path fill="#9F8BE8" d="M843.251 685.533L843.682 685.573C844.785 690.53 827.47 720.774 824.334 726.712L819.23 721.849C816.085 718.739 814.938 714.998 813.359 710.96L813.758 710.365C818.091 703.996 817.823 698.351 816.779 691.094C825.758 689.638 834.758 689.212 843.251 685.533Z"/>
	<path fill="#9F8BE8" d="M842.371 706.91C843.048 707.789 842.985 708.87 843.045 709.958C843.548 718.955 843.329 727.994 843.596 736.999C843.837 745.102 844.603 753.26 845.101 761.358L840.044 754.115C835.543 747.751 832.315 739.788 829.129 732.676C832.778 723.917 838.023 715.369 842.371 706.91Z"/>
	<path fill="#9F8BE8" d="M731.912 524.481C732.005 527.775 729.62 534.403 728.815 537.836C726.886 546.067 724.905 554.55 723.712 562.921C723.188 566.598 722.428 580.513 720.817 582.985L720.325 581.88C719.147 572.916 718.005 563.907 717.817 554.857C717.655 547.047 718.309 539.192 718.566 531.384C722.662 528.612 727.563 526.903 731.912 524.481Z"/>
	<path fill="#9F8BE8" d="M836.49 468.377C836.869 468.69 837.06 468.807 837.343 469.279C839.371 472.653 842.264 480.599 841.09 484.367C840.556 486.08 839.37 487.275 837.794 488.083C830.464 491.84 820.799 487.717 813.62 485.291C810.486 484.176 807.232 483.307 804.043 482.353C816.688 480.534 827.314 477.749 836.49 468.377Z"/>
	<path fill="#9F8BE8" d="M733.338 460.926C735.751 464.115 737.272 471.076 739.86 475.307C736.186 479.55 732.695 483.934 729.19 488.315C728.477 489.213 727.026 491.513 726.041 491.863C725.267 488.95 725.401 485.509 725.349 482.501C725.202 474.083 727.441 467.051 733.338 460.926Z"/>
	<path fill="#ECD4A4" d="M626.27 880.037C646.019 881.047 665.744 883.352 685.445 885.068C685.05 889.296 684.435 893.742 685.316 897.942C688.358 899.935 691.294 901.595 694.697 902.918C693.423 910.921 692.576 919.897 688.924 927.233C678.993 929.118 669.867 934.215 660.368 937.531C646.915 942.228 633.745 943.973 619.711 945.708C617.857 947.104 616.115 948.333 615.66 950.755C615.193 953.237 616.546 955.657 618.133 957.449C621.636 961.405 627.438 965.336 632.113 967.8C657.482 980.501 675.004 982.816 702.144 987.57C696.192 991.315 689.515 994.348 683.306 997.707C673.54 1002.99 663.928 1008.55 654.142 1013.8C648.114 1017.03 641.287 1020 635.773 1024L532.482 1024L468.297 1024L371.931 1024C384.032 1016.19 398.728 1009.19 411.502 1002.23C428.761 992.826 445.712 982.795 462.774 973.035L569.397 912.384C588.354 901.598 607.023 890.317 626.27 880.037Z"/>
	<path fill="#9F8BE8" d="M685.316 897.942C688.358 899.935 691.294 901.595 694.697 902.918C693.423 910.921 692.576 919.897 688.924 927.233C678.993 929.118 669.867 934.215 660.368 937.531C646.915 942.228 633.745 943.973 619.711 945.708C617.857 947.104 616.115 948.333 615.66 950.755C615.193 953.237 616.546 955.657 618.133 957.449C621.636 961.405 627.438 965.336 632.113 967.8C657.482 980.501 675.004 982.816 702.144 987.57C696.192 991.315 689.515 994.348 683.306 997.707C673.54 1002.99 663.928 1008.55 654.142 1013.8C648.114 1017.03 641.287 1020 635.773 1024L532.482 1024L468.297 1024C477.291 1017.44 489.483 1012.03 499.343 1006.45Q562.984 971.275 626.056 935.088C643.769 924.862 662.526 915.294 679.346 903.653C681.759 901.983 683.822 900.539 685.316 897.942Z"/>
	<path fill="#ECD4A4" d="M632.113 967.8C657.482 980.501 675.004 982.816 702.144 987.57C696.192 991.315 689.515 994.348 683.306 997.707C673.54 1002.99 663.928 1008.55 654.142 1013.8C648.114 1017.03 641.287 1020 635.773 1024L532.482 1024C542.689 1017.29 554.209 1011.65 564.935 1005.77Q587.243 993.421 609.39 980.787C616.322 976.915 626.255 972.926 632.113 967.8Z"/>
	<path fill="#ECD4A4" d="M213.494 1024C239.555 1008.9 266.188 994.575 292.522 979.937L406.307 915.635Q455.232 886.942 505.191 860.089C514.138 855.242 523.68 847.999 533.388 844.99C535.17 844.438 537.069 844.265 538.928 844.276C553.044 844.355 567.354 845.608 581.474 846.175C589.293 846.489 608.11 846.206 614.434 847.895C615.333 848.135 615.763 848.348 616.434 848.964L616.522 849.808C611.559 855.751 582.669 869.505 574 874.429L379.974 983.84L329.876 1011.79C322.855 1015.72 314.766 1019.36 308.273 1024L213.494 1024Z"/>
	<path fill="#ECD4A4" d="M964.374 980.144C984.344 981.785 1004.01 986.916 1024 988.165L1024 989.77L1024 1024L962.052 1024L883.267 1024C890.516 1019.06 899.879 1014.85 907.669 1010.64L964.374 980.144Z"/>
	<path fill="#9F8BE8" d="M962.052 1024C971.474 1017.2 982.45 1011.93 992.723 1006.54Q1008.42 998.265 1024 989.77L1024 1024L962.052 1024Z"/>
	<path fill="#ECD4A4" d="M897.096 944.201C914.093 947.851 931.821 948.225 948.922 951.721C936.046 959.376 918.439 969.259 904.627 974.562Q904.818 973.907 904.983 973.245C907.32 963.757 901.921 952.088 897.096 944.201Z"/>
</svg>
