<?xml version="1.0" encoding="utf-8" ?>
<svg xmlns="http://www.w3.org/2000/svg" xmlns:xlink="http://www.w3.org/1999/xlink" width="1024" height="1024">
	<path fill="#CDC2F7" d="M0 0L1024 0L1024 1024L0 1024L0 0Z"/>
	<path d="M389.44 87.73C394.586 77.7754 400.589 68.1608 406.304 58.5203C410.686 51.1276 415.019 41.7692 421.066 35.6268C425.788 30.8318 431.628 27.463 438.028 25.4253C451.514 21.1318 465.76 24.3198 477.987 30.7651C498.532 41.5953 526.993 57.1925 534.233 80.7321C538.561 94.8059 535.672 107.796 528.859 120.44C523.409 130.556 514.577 143.271 510.171 153.118C507.323 159.483 508.484 166.877 505.008 173.396C503.227 176.736 500.835 179.018 497.4 180.552L490.865 192.054C491.31 194.301 491.641 196.307 491.042 198.562C489.779 203.314 477.797 222.015 474.435 227.069C472.338 230.221 468.797 231.915 466.968 234.896C462.461 242.241 458.814 250.251 454.485 257.738L400.263 353.217L264.603 592.595L224.553 662.925C219.632 671.611 212.714 686.413 206.772 693.817C203.047 698.459 197.889 702.118 193.309 705.871C186.163 711.725 178.892 717.506 172.098 723.767C142.953 750.619 112.758 776.331 83.8866 803.488C72.1795 814.5 61.4528 826.529 49.9609 837.776L50.6705 837.891C62.2198 839.715 74.4269 839.965 86.0956 841.006L164.437 847.847C175.76 848.813 192.562 849.299 203.177 851.701C204.983 852.11 206.507 852.703 207.505 854.385Q207.634 854.603 207.74 854.834Q207.846 855.064 207.928 855.303Q208.011 855.543 208.069 855.79Q208.127 856.036 208.16 856.287Q208.194 856.539 208.202 856.792Q208.21 857.045 208.192 857.298Q208.175 857.551 208.133 857.801Q208.09 858.051 208.023 858.295C207.634 859.703 206.805 860.527 205.756 861.455C198.095 868.235 188.746 874.039 180.416 880.086L135.38 912.743C127.562 918.388 119.469 923.82 111.844 929.71L366.184 951.028C406.615 954.582 447.234 956.648 487.546 961.494C483.439 956.759 479.451 952.003 476.012 946.745C473.362 942.694 468.48 930.69 465.409 928.737L464.728 928.72C462.885 928.661 461.445 928.773 460.088 927.342C455.752 922.767 448.84 913.815 449.259 907.422C449.382 905.532 450.248 903.258 451.79 902.066C452.542 901.485 453.517 901.102 454.425 900.865C458.132 899.902 463.236 891.296 466.554 888.389C470.203 885.193 471.989 886.75 474.668 885.125C477.171 883.608 479.206 880.295 480.995 877.997C479.554 876.433 477.405 874.65 477.451 872.364C477.499 869.993 525.102 818.414 531.046 812.266C535.276 807.891 539.671 803.569 544.39 799.726Q549.36 795.645 554.724 792.098Q560.089 788.551 565.789 785.574C566.591 778.519 569.122 773.143 574.801 768.623C584.207 761.139 588.999 757.422 590.579 744.768C593.108 724.51 594.848 705.732 599.883 685.719C594.519 684.525 583.612 682.82 580.503 677.993C579.963 677.154 579.856 676.377 579.884 675.392C580.138 666.454 582.489 656.304 583.749 647.324C586.51 627.636 588.981 607.923 592.549 588.356C595.222 573.705 598.202 558.932 601.773 544.476C611.722 504.199 633.556 449.783 670.484 427.567C676.421 423.995 682.236 421.358 689.118 420.282C692.365 416.234 696.802 410.129 702.25 409.326C705.147 408.899 708.119 410.508 710.552 411.904L710.747 411.557C706.887 407.924 706.164 402.258 706 397.176C705.863 392.936 707.75 361.552 708.557 358.898C709.131 357.005 710.412 355.4 711.741 353.979C719.631 345.546 733.721 334.552 745.634 334.308C760.541 334.003 777.213 343.117 787.609 353.296C794.053 359.606 799.36 367.621 799.588 376.907C799.719 382.248 797.794 391.322 794.122 395.334C792.557 397.043 791.586 395.89 790.025 396.658C788.623 397.349 786.71 408.043 786.687 409.621C786.635 413.203 789.109 419.828 786.638 422.609C784.277 425.267 778.981 425.52 775.719 426.068C774.988 427.953 774.276 430.347 772.372 431.389C771.192 432.034 769.532 432.023 768.221 432.287C766.878 436.213 765.584 441.108 761.579 443.173C759.211 444.394 756.513 444.192 754.087 443.248C748.246 440.974 742.907 435.445 738.263 431.304C736.025 434.769 734.374 438.309 732.831 442.128Q736.529 448.855 740.532 455.404C738.206 469.642 737.507 484.63 739.12 498.959C741.864 523.346 750.207 531.386 737.443 555.401C739.187 575.979 741.769 600.684 735.362 620.651C733.657 625.964 728.749 629.356 727.135 634.576C725.324 640.432 725.779 646.978 724.164 653.008C723.966 653.749 723.778 654.488 723.569 655.227C726.234 662.657 729.887 669.667 732.695 677.034C739.619 695.203 739.493 713.47 736.249 732.38C744.869 752.092 756.735 778.162 761.064 798.931C763.214 809.244 763.222 819.912 764.555 830.345C766.069 842.204 769.372 853.867 772.75 865.309C777.144 880.195 782.605 894.92 787.818 909.542C790.097 915.936 792.944 922.597 794.689 929.137C794.98 930.225 794.979 931.233 794.567 932.289C793.83 934.182 791.856 934.756 790.119 935.464C791.41 938.961 793.078 942.211 794.992 945.409C809.093 952.634 822.931 958.267 838.604 961.215C846.276 962.658 855.836 962.222 862.902 965.462C866.493 967.109 870.215 970.822 871.485 974.611C871.92 975.91 872.135 977.379 871.518 978.667C869.451 982.978 860.164 984.556 855.987 985.477C839.648 989.08 823.313 988.153 806.748 987.971Q793.283 987.937 779.82 988.139C780.002 988.181 780.183 988.225 780.364 988.264C785.229 989.312 790.445 989.308 795.401 989.811Q813.294 991.676 831.213 993.265L942.551 1003.31L968.194 1005.67C972.642 1006.03 977.576 1005.89 981.92 1006.83C983.933 1007.26 985.308 1007.86 986.495 1009.6L986.601 1011C984.785 1012.36 981.82 1012.14 979.639 1012.03C963.614 1011.27 947.468 1008.98 931.469 1007.57L828.943 998.476Q675.409 983.354 521.642 970.828C521.348 974.508 520.92 978.758 517.822 981.26C516.259 982.522 514.313 982.838 512.36 982.556C504.733 981.453 497.46 972.663 492.44 967.358C477.659 965.275 462.811 964.407 447.95 963.136L377.092 957.152L183.113 940.875L125.733 936.252C115.07 935.421 103.93 935.08 93.3849 933.51C90.7511 933.118 88.4356 932.426 86.5914 930.444L86.3255 929.631C90.1703 922.233 160.024 875.987 172.672 864.7Q129.298 860.654 85.8855 857.043C72.3715 855.896 58.2276 855.531 44.8541 853.367C42.5852 852.999 39.6019 852.631 38.0313 850.789C36.9732 849.548 36.2183 848.109 36.3292 846.429C36.568 842.812 40.121 839.968 42.8129 838.006Q43.6811 837.374 44.5596 836.757C49.1497 818.628 52.5109 800.273 56.2484 781.955L75.389 684.328C77.5245 672.989 79.7905 661.652 81.7765 650.288C83.1914 642.192 83.8706 632.898 86.8075 625.238C88.8461 619.921 91.8902 614.868 94.6021 609.869L107.104 586.904L155.409 499.535Q228.795 365.869 304.356 233.418L326.016 194.909C329.854 188.099 333.986 181.409 337.674 174.521C338.193 173.553 339.506 171.606 339.695 170.57C340.116 168.251 338.915 165.894 339.783 163.407C342.057 156.9 350.308 144.849 354.063 138.38C355.869 135.27 357.259 131.78 359.371 128.881C361.159 126.428 363.3 124.798 365.892 123.271C368.513 121.728 372.552 119.97 373.382 116.733C374.024 114.23 373.62 111.369 374.031 108.79C375.129 101.888 379.629 94.1254 385.381 90.1393C386.671 89.2457 388.068 88.4864 389.44 87.73Z"/>
	<path fill="#FAF9F9" d="M744.769 395.008C746 396.288 746.865 397.365 748.626 397.819C749.28 397.793 749.474 397.833 750.16 397.535C751.721 396.859 753.434 395.021 754.928 394.041C759.502 391.037 765.368 389.285 769.199 385.252C772.576 381.697 773.837 376.08 777.233 372.847C778.563 372.878 779.14 373.003 780.119 373.965C783.866 377.652 785.683 385.388 787.05 390.326C785.71 393.639 784.322 396.942 783.043 400.279L782.354 400.044L782.313 400.402L782.942 400.317L782.377 401.012C781.714 400.198 781.477 399.479 781.162 398.485C779.676 396.984 778.365 396.148 776.188 396.108C774.761 396.082 773.181 396.488 772.128 397.505C771.349 398.258 770.848 399.03 770.987 400.148C771.158 401.517 772.212 403.082 773.369 403.856C774.355 404.516 775.04 404.762 776.215 404.494C777.354 404.234 778.373 403.919 779.548 403.776C780.916 404.641 781.245 405.462 781.607 407.034C782.56 411.179 782.985 415.939 783.204 420.19C779.785 420.345 772.703 419.263 770.308 421.642C769.696 423.3 770.196 424.768 770.554 426.429C767.699 427.364 765.148 428.35 762.511 429.803C762.199 432.418 762.194 435.755 760.159 437.685C759.085 438.704 757.723 439.069 756.277 438.819C751.372 437.97 745.654 431.539 742.341 428.027C744.099 425.402 746.252 422.791 746.552 419.563C746.575 419.325 746.604 419.088 746.624 418.851C746.725 417.675 746.746 416.799 746.192 415.72L745.292 415.458C743.993 416.176 733.897 429.416 732.619 431.455C731.525 433.201 730.646 435.113 729.788 436.983C729.677 436.833 729.564 436.684 729.455 436.532C721.688 425.774 722.352 421.162 710.552 411.904L710.747 411.557C711.762 411.597 712.8 411.858 713.807 412.015C721.129 413.158 724.779 410.336 730.463 406.217C732.13 409.056 733.742 411.722 736.779 413.23C739.426 414.544 743.003 415.141 745.844 414.089C747.323 413.542 747.795 412.707 748.417 411.331C748.398 407.586 744.709 404.137 742.461 401.316C742.967 399.173 743.454 397.088 744.233 395.023L744.769 395.008Z"/>
	<path fill="#FAF9F9" d="M744.233 395.023C744.058 395.008 743.882 394.991 743.707 394.979C741.832 394.849 740.139 394.934 738.733 396.359C737.793 397.312 737.554 398.668 737.673 399.954C737.983 403.309 741.32 406.855 741.197 409.829C739.781 409.886 738.576 409.151 737.554 408.219C734.733 405.644 734.067 402.302 733.967 398.627C733.879 395.35 734.434 390.454 736.936 388.035C737.815 387.185 738.322 387.147 739.477 386.914C741.647 387.699 742.701 389.52 743.645 391.533C744.165 392.642 744.472 393.824 744.769 395.008L744.233 395.023Z"/>
	<path fill="#FDE5AF" d="M393.708 160.191C410.884 165.225 430.393 175.938 443.803 187.809Q347.107 362.856 248.145 536.629L197.435 626.577C189.107 641.347 180.333 655.956 172.456 670.965L171.982 671.257C167.114 669.595 161.882 665.655 157.321 663.049C145.9 656.524 134.383 650.15 123.176 643.261C127.52 633.394 133.947 623.78 139.169 614.302L181.064 539.882L320.003 292.463Q344.536 249.743 368.485 206.692C377.056 191.383 386.338 176.114 393.708 160.191Z"/>
	<path fill="#CDC2F7" d="M656.32 758.883C658.709 761.284 660.677 765.329 662.524 768.182C668.926 778.07 675.401 788.835 684.271 796.711C688.689 820.626 695.272 845.024 705.266 867.249C717.845 895.224 735.139 921.389 750.099 948.17C753.205 947.954 756.337 947.443 759.429 947.048C760.646 949.559 762.232 952.273 763.017 954.944C764.999 961.691 762.438 969.683 763.6 976.744C764.399 981.597 766.571 984.768 770.491 987.624L625.032 974.843C590.211 970.351 554.904 969.09 519.999 965.185C509.276 945.158 502.02 931.786 502.635 908.342L507.432 902.235C509.385 904.306 511.38 907.012 514.349 907.448C515.643 906.942 536.466 888.608 540.326 885.579C553.683 875.099 567.476 864.944 581.264 855.035C594.056 845.842 613.919 833.914 623.297 821.884C637.778 803.308 645.397 779.58 656.32 758.883Z"/>
	<path fill="#FAF9F9" d="M682.731 640.39C693.821 641.257 704.693 645.165 715.698 646.864C728.226 682.378 734.953 687.788 731.898 727.332C729.044 721.358 722.837 708.583 716.385 706.221L715.385 707.333C715.505 708.912 715.777 710.251 716.482 711.687C718.229 715.243 720.972 718.345 723.089 721.699C727.365 728.473 731.452 735.823 734.972 743.008C741.19 755.702 746.107 769.64 750.866 782.962C753.448 790.189 755.805 797.629 756.748 805.27C757.689 812.893 757.688 820.613 758.652 828.248C759.709 836.623 761.693 844.895 763.695 853.085C767.982 870.625 774.034 887.694 780.204 904.651C783.423 913.499 787.006 922.284 789.614 931.337C777.582 936.049 766.288 939.879 753.642 942.62C749.584 936.107 745.874 929.335 741.901 922.76C735.917 912.031 729.196 901.722 723.221 890.987C709.049 865.526 699.22 839.737 692.636 811.361C690.016 800.068 688.786 788.623 686.469 777.305C686.115 775.575 685.914 774.53 684.401 773.52C682.897 773.631 682.806 773.596 681.678 774.577C680.146 778.41 682.093 784.171 682.892 788.165C679.129 782.769 674.931 777.676 671.233 772.234C650.927 742.348 640.769 719.958 631.095 685.285C632.619 685.029 634.757 684.883 636.119 684.218C642.466 681.122 645.675 666.849 648.028 660.296C649.739 660.864 651.147 661.141 652.963 661.143C653.047 661.143 654.61 661.13 654.766 661.145C656.053 661.262 656.675 661.597 657.382 662.73C661.506 669.333 653.476 679.778 653.117 685.237C653.041 686.393 653.212 686.498 653.954 687.287C656.356 687.382 658.589 687.085 660.893 686.37C669.833 683.597 678.397 676.044 682.512 667.668C688.17 656.152 683.437 654.198 681.267 644.208C680.892 642.484 681.827 641.74 682.731 640.39Z"/>
	<path d="M684.785 736.62C685.855 736.757 687.077 736.936 687.991 737.556C690.387 739.182 696.518 750.321 698.652 753.502C707.802 767.135 718.9 780.578 733.14 789.077C737.766 791.837 743.127 793.29 747.607 796.209C748.334 797.547 748.046 797.935 747.778 799.396C746.616 799.455 745.513 799.333 744.368 799.165C726.819 796.592 709.177 776.646 699.055 763.153C695.378 758.251 685.468 745.351 684.578 740.039C684.396 738.954 684.631 737.702 684.785 736.62Z"/>
	<path d="M719.189 809.212C723.071 810.748 726.743 818.541 729.084 822.167C732.446 827.372 735.995 832.834 740.247 837.349C745.193 842.602 754.015 848.187 757.276 854.337C757.274 855.895 757.105 855.871 756.066 857.067C755.272 856.853 754.493 856.633 753.748 856.278C744.1 851.696 720.617 822.168 717.155 811.972C717.329 810.53 718.164 810.171 719.189 809.212Z"/>
	<path fill="#9F8BE8" d="M366.697 157.204C373.793 156.569 381.166 157.649 388.112 159.029C378.858 175.414 370.201 192.159 360.991 208.584L173.931 540.636L120.556 636.918C119.84 638.185 119.235 639.498 117.96 640.283L116.777 639.744C109.064 634.609 100.966 629.99 92.9197 625.403C95.2618 620.086 98.3231 614.956 101.097 609.844L116.028 582.567L163.526 496.809L273.11 299.927Q299.996 253.465 325.99 206.499C334.957 190.65 344.383 175.155 352.856 159.018C357.375 157.889 362.066 157.527 366.697 157.204Z"/>
	<path fill="#9F8BE8" d="M448.353 191.822C457.042 199.538 463.736 207.941 467.925 218.86C463.342 232.037 450.874 252.042 443.706 264.657L395.789 348.815Q329.258 468.068 261.278 586.5C241.735 620.647 223.463 655.767 202.889 689.295L198.745 686.892C191.381 682.98 183.975 679.077 176.965 674.552C187.333 655.224 198.815 636.465 209.482 617.299L333.016 398.451L402.837 273.723L434.347 216.804C439.003 208.477 443.418 199.987 448.353 191.822Z"/>
	<path fill="#FAF9F9" d="M626.034 685.757C627.004 686.228 627.048 687.541 627.209 688.484C631.062 711.126 641.661 732.49 652.79 752.338C645.495 771.021 628.975 809.007 615.482 822.704C608.499 829.792 599.742 835.379 591.682 841.167Q572.306 854.797 553.394 869.064C544.861 875.577 536.265 882.058 527.939 888.836C523.628 892.346 518.425 898.268 513.657 900.698L512.689 899.998C505.679 894.374 487.492 880.309 483.931 872.308C490.154 864.102 497.598 856.596 504.448 848.889C518.128 833.499 533.325 815.229 549.209 802.325C556.238 796.614 564.329 792.119 572.048 787.404L571.199 781.827C575.751 771.306 587.246 768.333 592.434 758.27C596.993 749.428 597.396 727.464 599.027 716.673Q601.499 701.309 604.792 686.1C611.85 686.434 618.979 686.024 626.034 685.757Z"/>
	<path d="M575.556 836.506C576.93 836.406 577.685 836.39 579.01 836.891C579.392 837.445 579.804 837.678 579.625 838.391C579.208 840.047 577.373 841.122 576.002 841.93C570.492 845.179 564.078 847.635 558.29 850.402C544.215 857.132 530.473 863.904 517.468 872.579C517.27 872.617 517.075 872.684 516.873 872.691C515.654 872.734 515.103 872.709 514.136 871.989C514.031 871.251 513.915 871.043 514.2 870.313C517.599 861.611 566.535 840.826 575.556 836.506Z"/>
	<path d="M636.736 767.84L638.774 768.761C639.562 769.917 639.604 769.937 639.518 771.326C635.501 778.612 609.807 791.329 601.622 794.665L599.756 794.498C598.679 793.629 598.613 793.563 598.233 792.236C598.745 791.077 598.826 790.743 599.927 790.06C603.917 787.585 608.541 785.771 612.698 783.535Q619.04 780.146 625.061 776.215Q631.082 772.283 636.736 767.84Z"/>
	<path fill="#CDC2F7" d="M673.3 434.101C676.683 434.351 679.931 434.989 683.022 436.437C689.367 439.408 693.746 445.433 695.899 451.972C703.793 475.947 684.284 502.232 672.784 521.704C665.585 533.893 658.421 546.091 652.011 558.719C653.246 562.418 654.616 566.057 655.451 569.876C657.728 580.293 658.312 590.632 661.84 600.847C663.958 606.981 666.346 613.492 669.302 619.264C672.558 625.622 676.75 631.542 678.571 638.518C672.74 644.299 665.819 649.325 658.788 653.518C656.679 654.752 654.332 655.585 652.074 656.508C640.2 643.689 618.61 600.014 614.891 582.925C602.262 524.896 628.547 493.553 657.769 448.125C661.933 441.652 665.251 435.847 673.3 434.101Z"/>
	<path d="M640.032 553.738C641.746 554.125 642.544 554.704 643.71 555.96C646.234 558.676 652.79 566.09 652.32 569.9C652.219 570.721 651.241 571.319 650.655 571.857C647.002 570.716 640.093 560.859 638.209 557.312C638.233 555.804 639.16 554.879 640.032 553.738Z"/>
	<path fill="#CDC2F7" d="M91.3217 631.135C102.655 637.285 113.687 644.11 124.814 650.627Q161.497 672.473 198.965 692.944C192.942 698.785 186.292 704.147 179.944 709.637Q164.01 723.3 148.461 737.4C137.42 747.798 125.494 757.27 114.397 767.643L70.2065 741.458Q77.5846 703.886 84.5739 666.24C86.7851 654.54 88.759 642.763 91.3217 631.135Z"/>
	<path fill="#9F8BE8" d="M447.314 29.1802C455.337 27.8996 464.627 30.6289 471.854 33.9214C486.153 40.4357 508.178 53.6502 518.718 65.0328Q520.265 66.6927 521.641 68.4965Q523.018 70.3004 524.211 72.2306Q525.404 74.1608 526.401 76.1989Q527.398 78.2369 528.191 80.363C534.48 97.7578 528.226 109.863 519.882 124.805C515.506 132.642 511.022 140.447 507.193 148.571C503.941 143.082 500.016 138.092 495.936 133.207C492.072 128.485 487.546 124.036 483.023 119.952C459.875 99.0467 427.48 84.8166 395.948 86.3858C402.567 76.0846 408.548 65.3302 414.865 54.8374C417.53 50.4092 420.086 45.3692 423.347 41.3671C429.381 33.9608 438.031 30.2914 447.314 29.1802Z"/>
	<path fill="#CDC2F7" d="M380.666 125.202C400.832 124.296 421.867 131.794 439.235 141.521C461.061 153.743 478.947 171.276 485.808 195.786C482.418 203.497 477.672 210.673 473.269 217.838C471.651 213.636 469.835 209.696 467.727 205.712C462.218 196.557 453.322 188.834 445.114 182.068C425.727 166.085 400.58 153.196 375.213 151.687C367.445 151.224 359.799 152.085 352.079 152.833C357.264 144.836 361.337 136.157 366.631 128.245C371.345 126.077 375.528 125.524 380.666 125.202Z"/>
	<path fill="#CDC2F7" d="M688.068 425.055C688.58 424.992 688.981 424.922 689.507 424.956C690.609 425.029 691.537 425.986 692.266 426.729C708.671 443.452 713.239 480.753 713.033 503.615C712.794 530.02 704.39 557.463 686.164 577.101C679.884 583.868 672.24 589.437 665.642 595.95L664.117 589.815C662.047 579.288 661.259 568.948 658.085 558.618C660.446 552.552 663.941 546.866 667.195 541.248Q674.611 528.492 682.163 515.816C689.582 503.438 697.584 491.739 701.058 477.488C703.81 466.193 703.43 452.437 697.104 442.328C692.232 434.542 685.238 431.185 676.626 429.226C680.284 427.374 684.121 426.123 688.068 425.055Z"/>
	<path fill="#CDC2F7" d="M606.202 550.366C606.668 553.436 606.518 556.789 606.741 559.906C607.222 566.645 607.922 573.525 609.036 580.19C612.695 602.086 625.565 623.353 636.562 642.393C629.675 654.272 624.035 667.76 621.018 681.164L614.451 681.402C604.309 681.513 593.424 679.948 584.245 675.496C588.209 664.295 589.858 640.911 591.619 627.884C595.113 602.039 599.289 575.533 606.202 550.366Z"/>
	<path fill="#513C7A" d="M743.641 339.136C750.37 338.708 757.868 340.841 763.978 343.495C775.415 348.462 788.523 357.121 793.131 369.322C795.844 376.507 794.553 383.298 791.408 390.037C790.355 385.598 789.174 380.938 787.32 376.763C785.867 373.49 783.204 368.908 779.463 367.881C772.161 365.878 769.772 377.201 766.281 381.06C763.328 384.324 759.011 386.26 755.166 388.243L750.235 390.818Q749.128 389.112 747.891 387.497C745.834 384.842 743.085 381.995 739.536 381.648C737.384 381.438 735.366 382.25 733.81 383.723C729.413 387.885 729.354 395.12 729.061 400.734C726.394 403.535 723.878 405.944 720.476 407.826L713.064 407.351C709.306 398.532 711.401 388.438 711.864 379.216C712.174 373.06 712.096 366.936 712.607 360.784C712.976 360.172 713.344 359.584 713.763 359.005C719.411 351.21 734.137 340.596 743.641 339.136Z"/>
	<path fill="#FAF9F9" d="M735.15 500.87C735.763 513.269 740.407 525.29 738.118 537.741C737.622 540.438 737.016 543.269 736.087 545.849C734.807 549.406 730.989 554.625 730.875 558.229C730.862 558.649 731.453 559.98 731.587 560.402C731.685 560.713 731.78 561.025 731.882 561.335C732.192 562.28 732.519 563.208 732.741 564.18C733.642 568.123 733.302 572.901 733.469 576.977C734.134 593.234 735.199 612.544 726.242 626.769C716.464 623.232 703.904 621.649 693.611 619.448Q686.185 617.966 679 615.575C683.971 608.078 689.7 600.43 695.533 593.582C699.796 588.578 704.45 583.903 708.639 578.841C728.177 555.23 733.68 530.57 735.15 500.87Z"/>
	<path fill="#FAF9F9" d="M400.705 91.6997C424.083 89.7375 456.502 104.934 474.285 119.445C481.751 125.537 502.641 146.579 503.348 156.764C503.808 163.385 500.192 170.601 496.09 175.605C494.732 171.837 493.361 168.22 491.483 164.678C479.847 143.686 452.395 123.983 430.603 115.157C415.085 108.872 395.346 102.741 379.11 109.595C380.439 105.418 382.154 100.761 385.083 97.4376C389.233 92.7299 394.862 92.189 400.705 91.6997Z"/>
	<defs>
		<linearGradient id="gradient_0" gradientUnits="userSpaceOnUse" x1="677.25537" y1="511.83432" x2="727.49036" y2="522.20087">
			<stop offset="0" stop-color="#DBD6DE"/>
			<stop offset="1" stop-color="#D5C9EE"/>
		</linearGradient>
	</defs>
	<path fill="url(#gradient_0)" d="M701.96 413.902C704.267 414.685 706.59 415.943 708.611 417.306C718.043 423.671 721.12 435.137 723.189 445.707C724.891 454.398 725.977 463.24 727.166 472.016C728.403 481.143 729.707 490.274 729.94 499.495Q730.02 501.916 729.998 504.339Q729.977 506.761 729.854 509.181Q729.731 511.6 729.507 514.012Q729.283 516.424 728.958 518.825Q728.633 521.226 728.208 523.611Q727.783 525.996 727.259 528.361Q726.735 530.726 726.112 533.067Q725.489 535.408 724.769 537.721Q724.048 540.034 723.232 542.315Q722.416 544.596 721.504 546.84Q720.593 549.085 719.589 551.29Q718.585 553.494 717.489 555.655Q716.394 557.816 715.209 559.928Q714.023 562.041 712.751 564.103Q711.479 566.164 710.121 568.171Q708.763 570.177 707.323 572.125C701.978 579.315 695.584 585.639 689.836 592.496C683.707 599.806 678.372 607.754 673.064 615.666C671.2 611.024 669.384 606.409 667.837 601.647C672.836 594.685 680.561 589.148 686.83 583.316C706.766 564.769 717.312 534.36 718.203 507.6C719.109 480.362 713.637 441.635 694.553 421.246L701.96 413.902Z"/>
	<path fill="#513C7A" d="M69.0692 747.582C76.464 750.715 83.3588 755.424 90.2714 759.487C97.1599 763.537 104.261 767.247 111.299 771.029C106.071 775.186 101.229 780.057 96.2779 784.558C88.219 791.884 80.0499 799.07 72.4116 806.84C65.2864 814.013 58.5509 821.631 51.9284 829.268C53.5053 820.392 55.7823 811.53 57.7001 802.711Q63.8435 775.241 69.0692 747.582Z"/>
	<path fill="#513C7A" d="M44.5038 842.912C68.3266 844.37 91.9858 847.208 115.772 848.962Q141.88 850.821 167.941 853.258C179.676 854.267 191.604 854.927 203.208 856.982C199.48 859.804 195.444 862.251 191.67 865.03L144.644 899.25C132.553 907.898 120.766 916.912 108.574 925.432C107.115 926.591 105.637 927.575 104.035 928.527L95.2325 928.323C102.074 922.179 110.126 916.979 117.579 911.567L162.208 879.354C168.56 874.861 175.456 870.859 181.614 866.151C183.305 864.858 185.302 863.487 185.6 861.299C183.269 859.52 162.109 858.544 157.809 858.157C137.418 856.323 117.084 854.102 96.6615 852.561Q79.3287 851.295 62.011 849.834C56.3986 849.365 50.6209 849.164 45.0627 848.351C43.8978 848.18 42.9205 848.207 42.2127 847.242C42.5332 845.56 43.5607 844.299 44.5038 842.912Z"/>
	<path fill="#FAF9F9" d="M795.553 952.363C798.432 952.383 812.171 959.248 815.891 960.601Q824.512 963.728 833.464 965.722C839.579 967.028 858.183 967.966 862.34 971.378L862.277 972.11C857.811 975.759 840.545 976.525 834.115 976.862C824.607 977.225 814.989 976.57 805.476 976.398C793.031 976.174 780.612 976.288 768.165 975.878C767.775 970.342 768.225 964.834 768.577 959.309C770.556 959.713 772.554 960.103 774.553 960.387C783.687 961.686 788.747 957.431 795.553 952.363Z"/>
	<path fill="#FAF9F9" d="M472.991 890.838C474.727 891.806 475.83 893.51 477.061 895.035C483.07 902.479 487.364 907.642 497.096 910.271C497.197 927.332 501.281 940.23 509.168 955.203C512.336 961.218 515.53 966.758 516.99 973.461L511.009 968.79C501.058 959.432 491.493 948.45 484.006 937.023C479.894 930.748 476.396 924.078 472.392 917.731C468.967 912.302 464.946 907.263 461.734 901.703C465.203 897.81 468.75 893.907 472.991 890.838Z"/>
	<path fill="#FDE5AF" d="M390.029 112.124C409.278 109.995 438.87 123.673 454.379 134.694C465.945 142.914 487.835 162.072 490.023 176.872C490.334 178.981 490.594 181.789 489.285 183.606L488.216 183.69C486.475 182.494 485.813 180.326 484.959 178.459C481.028 170.469 475.064 162.9 468.772 156.639C445.342 133.325 411.089 119.5 378.191 119.563C381.821 114.73 384.221 113.234 390.029 112.124Z"/>
	<path fill="#FFDAD7" d="M676.081 647.401C676.972 647.799 677.65 649.085 678.116 649.915C680.225 653.667 680.906 657.298 679.681 661.493C677.146 670.177 669.426 676.297 661.937 680.615L660.823 680.799C660.507 679.354 661.574 677.471 661.945 676.004Q662.224 674.922 662.414 673.821Q662.603 672.72 662.701 671.607Q662.799 670.494 662.804 669.376Q662.81 668.259 662.724 667.145Q662.637 666.031 662.46 664.928Q662.282 663.825 662.013 662.74Q661.745 661.655 661.388 660.597Q661.032 659.538 660.589 658.512C666.021 655.187 671.036 651.272 676.081 647.401Z"/>
	<path fill="#CDC2F7" d="M674.676 619.752C685.357 623.192 696.178 625.191 707.167 627.317Q706.692 633.315 706.334 639.321C703.271 640.102 686.898 635.702 682.971 634.822C680.812 629.428 677.787 624.629 674.676 619.752Z"/>
	<path fill="#645D6B" d="M784.209 938.895C784.855 938.877 785.169 939.095 785.74 939.367C788.201 942.386 789.388 945.919 790.614 949.553Q789.273 950.855 787.867 952.085C783.349 956.011 778.673 955.816 773.061 955.422C770.95 954.789 769.459 953.908 767.908 952.332C766.453 950.853 765.28 949.574 765.271 947.413C766.74 944.884 780.578 940.598 784.209 938.895Z"/>
	<defs>
		<linearGradient id="gradient_1" gradientUnits="userSpaceOnUse" x1="631.93457" y1="680.01886" x2="639.69489" y2="650.05048">
			<stop offset="0" stop-color="#D8CFE0"/>
			<stop offset="1" stop-color="#FCFAFA"/>
		</linearGradient>
	</defs>
	<path fill="url(#gradient_1)" d="M639.195 648.239C641.382 650.344 643.025 653.054 644.763 655.533C641.464 662.484 639.873 670.48 636.001 677.115C634.804 679.165 634.064 679.38 631.88 679.913L626.454 680.254C628.367 670.978 634.114 656.228 639.195 648.239Z"/>
	<path fill="#9F8BE8" d="M455.892 905.687C460.6 908.276 474.782 932.304 478.444 938.03C485.551 949.145 493.836 958.842 503.226 968.086C506.432 971.243 510.234 974.022 513.227 977.324L512.706 978.405C499.608 968.4 487.443 955.787 478.909 941.557C475.555 935.964 472.85 929.038 468.773 923.989C467.708 922.671 466.152 922.666 464.585 922.635L463.675 922.622C460.595 919.887 456.086 913.42 455.059 909.453C454.671 907.951 455.226 906.981 455.892 905.687Z"/>
	<path fill="#FAF9F9" d="M712.076 628.569C714.856 629.094 719.879 629.316 721.529 631.878C723.203 634.477 721.133 639.815 720.406 642.622L710.896 640.936C711.134 636.807 711.646 632.683 712.076 628.569Z"/>
	<path fill="#969398" d="M479.633 886.762C483.351 888.381 485.546 894.538 488.751 897.245C491.779 899.801 495.821 901.257 499.156 903.395L499.274 904.793C498.784 904.902 498.543 904.975 498.004 904.995C494.699 905.117 491.024 902.341 488.59 900.28C484.61 896.908 480.086 892.157 479.633 886.762Z"/>
	<path fill="#FAF9F9" d="M728.565 445.405C731.27 448.488 732.993 453.969 734.399 457.776C733.958 460.016 733.165 462.212 732.484 464.39L731.981 465.491C730.254 462.493 729.2 449.703 728.565 445.405Z"/>
</svg>
