<?xml version="1.0" encoding="utf-8" ?>
<svg xmlns="http://www.w3.org/2000/svg" xmlns:xlink="http://www.w3.org/1999/xlink" width="1024" height="1024">
	<path fill="#261452" d="M0 0L632.34 0L1020.87 0L1024 0L1024 788.435L1024 797.869L1024 1024L867.822 1024L853.01 1024L758.503 1024L741.911 1024L0 1024L0 1004.08L0 688.87L0 674.335L0 531.756L0 513.584L0 484.135L0 473.578L0 406.398L0 389.148L0 265.853L0 250.212L0 195.546L0 182.502L0 0Z"/>
	<path fill="#9F8BE8" d="M0 0L632.34 0L1020.87 0L1024 0L1024 788.435Q999.854 777.544 975.006 768.367C968.94 766.154 962.107 765.184 956.307 762.498C943.044 756.358 954.455 722.72 955.083 711.624Q955.245 708.984 955.12 706.341Q954.996 703.699 954.586 701.085Q954.177 698.472 953.487 695.918Q952.797 693.364 951.835 690.9C946.705 677.413 936.589 666.09 923.417 660.122Q921.794 656.325 920.021 652.595C910.613 633.074 895.469 622.542 875.505 615.604Q873.937 613.449 872.319 611.331C863.127 599.365 850.662 592.742 835.747 590.766C824.795 580.573 815.68 575.996 800.688 574.665C787.72 575.068 776.468 577.17 765.742 584.935C755.306 585.269 744.696 586.179 735.505 591.571C726.928 596.604 720.018 605.181 717.528 614.872C714.78 625.564 717.311 634.3 722.834 643.518C717.35 649.197 712.001 654.966 707.159 661.21C702.299 667.479 698.342 675.218 692.229 680.309C686.274 685.27 678.799 683.661 671.648 683.088C670.119 684.047 668.712 685.075 667.694 686.599C664.314 691.653 664.558 700.389 665.543 706.179C652.732 718.678 648.435 734.881 643.596 751.567C629.424 758.535 615.939 765.524 603.626 775.59C595.949 781.866 589.043 788.982 581.655 795.582C564.91 792.8 549.263 793.174 533.05 798.167C524.745 792.191 514.278 775.303 509.28 766.061C509.699 742.951 512.211 719.92 512.532 696.813Q512.658 674.428 511.694 652.063Q510.729 629.698 508.675 607.406Q506.622 585.115 503.484 562.95Q500.347 540.786 496.133 518.8C492.586 500.644 488.207 482.341 481.537 465.052C479.272 459.183 469.788 444.509 469.538 440.003C469.285 435.44 491.297 413.838 495.535 408.904C502.059 422.142 510.691 438.28 522.324 447.532C526.288 450.686 530.911 452.773 536.064 452.012C546.598 450.456 555.14 438.439 561.163 430.525C563.574 430.976 566.215 431.633 568.67 431.358C574.426 430.712 577.366 426.432 580.595 422.177C582.016 422.218 583.748 422.423 585.139 422.131C590.419 421.026 591.828 412.804 594.442 408.705L594.88 408.024C601.983 411.255 610.905 416.813 618.988 416.124C621.882 415.878 624.457 414.709 626.109 412.25C629.348 407.432 629.767 398.552 631.082 392.852C632.242 387.824 633.776 382.692 636.047 378.044C641.732 366.413 652.985 362.476 662.213 354.431C667.423 349.889 671.853 344.438 676.422 339.271C676.51 339.246 676.597 339.22 676.686 339.196C686.962 336.468 696.228 328.843 702.726 320.608C712.124 308.701 719.032 297.911 717.063 282.115C715.189 267.082 707.863 260.263 702.181 247.738C699.477 241.777 698.587 234.936 696.16 228.752C685.577 201.778 669.216 176.349 646.02 158.541C617.688 136.79 583.177 126.909 547.691 131.622C511.828 136.386 474.667 158.375 455.248 189.007C447.562 201.131 443.029 214.666 434.137 226.092C417.075 248.017 398.742 247.409 373.672 250.59C346.435 254.045 340.747 263.136 325.069 283.385C328.613 241.271 349.075 201.701 371.694 166.819C383.5 148.612 392.27 143.301 396.486 120.45C396.616 107.976 391.043 95.854 382.33 87.0408C370.853 75.4312 354.67 70.2296 338.619 70.3007C328.825 70.3441 319.479 71.9905 309.934 73.9805C289.603 55.3972 274.78 48.9371 246.642 50.1265C219.608 51.2692 192.578 59.9226 167.79 70.2309C156.927 74.7483 146.122 79.309 135.617 84.6231C86.9947 109.221 39.3757 144.991 0 182.502L0 0Z"/>
	<path fill="#9F8BE8" d="M157.612 643.961C162.166 649.252 165.914 653.666 172.509 656.391C179.7 655.482 184.663 652.949 190.375 648.649Q184.32 677.654 179.361 706.866Q174.402 736.078 170.548 765.457Q166.693 794.835 163.948 824.338Q161.203 853.841 159.571 883.426C158.707 899.82 157.557 916.332 157.457 932.745C130.791 936.508 104.915 944.993 80.0659 955.169C77.0229 956.415 70.1451 958.41 68.1199 961.051C67.7834 961.489 67.6816 961.793 67.4757 962.273C67.9138 963.869 68.2385 965.302 69.6909 966.28C71.8853 967.759 74.9061 967.087 77.2448 966.375C85.1698 963.959 92.9448 959.931 100.796 957.103C115.98 951.634 132.222 947.346 148.008 944C175.278 938.222 202.745 934.493 230.161 929.62C243.82 927.193 257.694 924.891 271.019 920.97Q282.983 917.396 294.562 912.723Q306.141 908.051 317.235 902.32C328.68 896.484 338.91 890.043 351.217 885.977C366.012 881.089 381.425 879.01 396.411 874.9C419.721 868.508 440.296 857.946 461.665 846.915L462.309 847.235C471.119 851.504 484.937 851.312 494.897 853.716C515.327 858.648 534.518 866.762 553.288 876.086Q564.603 881.711 575.564 887.998Q586.524 894.286 597.092 901.213Q607.659 908.141 617.796 915.685Q627.933 923.228 637.604 931.361C657.082 947.988 675.068 966.28 693.818 983.695C708.962 997.76 725.33 1011.67 741.911 1024L0 1024L0 1004.08L0 688.87L9.29658 677.876C13.25 685.541 19.5535 701.768 28.3073 704.446Q29.5558 704.817 30.824 705.114C52.5675 700.253 71.759 679.34 85.6079 662.663C87.4473 670.746 91.0721 681.556 98.4235 686.296C101.127 688.04 104.065 688.421 107.176 687.698C111.025 686.803 114.699 684.685 118.056 682.67C134.443 672.828 145.776 658.559 157.612 643.961Z"/>
	<path fill="#261452" d="M474.349 871.24C488.048 869.687 502.683 876.059 514.429 882.398Q518.519 884.634 522.464 887.115Q526.41 889.596 530.197 892.314Q533.983 895.032 537.597 897.976Q541.21 900.92 544.637 904.079C552.508 911.293 559.598 919.228 566.799 927.095Q584.506 946.44 601.707 966.236C608.173 973.579 614.533 981.079 621.214 988.226C624.703 991.958 628.725 995.239 632.103 999.055C632.794 999.836 633.044 1000.29 633.334 1001.26C633.235 1002.97 632.64 1004.02 631.807 1005.5C630.475 1006.31 629.577 1006.91 627.956 1006.94C617.552 1002.86 569.792 943.915 557.198 930.541C546.741 919.436 535.548 908.594 523.459 899.262Q515.733 893.402 507.497 888.284Q499.261 883.166 490.586 878.834C487.919 877.521 475.358 873.068 474.349 871.24Z"/>
	<path fill="#261452" d="M428.628 897.238C437.709 895.667 448.809 898.703 457.374 901.561C485.09 910.812 507.357 931.794 525.382 954.213C532.948 963.624 539.856 973.579 547.564 982.883C552.238 988.526 564.133 999.513 566.762 1004.82C566.994 1006.45 566.341 1007.41 565.606 1008.79C564.273 1009.49 563.499 1009.83 561.958 1009.93C548.828 1004.02 522.555 965.379 511.739 952.979C502.794 942.724 492.558 932.782 481.779 924.455Q474.775 919.023 467.203 914.414Q459.631 909.806 451.589 906.079C448.002 904.444 429.69 898.541 428.628 897.238Z"/>
	<path fill="#9F8BE8" d="M0 195.546Q18.8081 177.458 38.8981 160.805Q58.9881 144.152 80.2508 129.025C124.224 98.2868 199.545 58.0864 254.498 59.4216C270.713 59.8156 287.863 64.6331 299.218 76.8276C306.05 84.165 310.272 93.9306 309.759 104.057C308.939 120.229 290.974 142.727 282.706 157.107C257.049 201.728 238.484 245.634 240.935 298.029C241.701 314.409 244.149 329.951 249.779 345.455C258.741 370.138 277.807 397.97 295.25 417.595C296.929 419.485 298.602 421.403 300.455 423.125C288.149 433.319 252.019 459.788 236.107 458.744C234.816 458.659 233.438 458.499 232.592 457.409C227.968 451.454 233.766 423.899 235.85 415.992C236.582 413.213 237.325 409.746 238.648 407.197C240.888 402.881 246.918 397.536 245.583 392.411C244.803 391.336 244.146 390.809 242.811 390.505C240.541 389.989 238.137 392.23 236.439 393.562C222.49 404.501 211.481 411.835 194.256 417.207C190.891 418.257 186.677 419.698 183.126 419.274C182.446 419.193 181.825 418.992 181.175 418.787C177.942 413.289 183.144 389.492 184.862 382.855C186.332 377.176 187.725 368.314 191.073 363.505C193.951 359.371 200.452 357.05 202.505 352.519C203.169 351.052 203.208 349.69 202.24 348.334C201.465 347.25 200.368 346.571 199.032 346.467C197.708 346.364 196.453 347.125 195.378 347.809C192.601 349.576 190.237 352.143 187.552 354.078C183.112 357.278 177.798 359.97 172.913 362.483C161.366 368.423 147.234 373.552 134.239 374.597C134.236 374.376 134.23 374.155 134.229 373.933C134.195 362.687 140.713 322.468 144.755 312.963C145.73 310.671 147.322 308.886 149.063 307.142C155.83 300.361 162.599 294.052 168.961 286.836C175.945 278.916 216.221 228.134 215.915 221.911C215.855 220.684 215.132 219.655 214.132 218.991C213.071 218.285 211.62 217.962 210.369 218.25C206.732 219.085 199.158 232.157 196.525 235.99Q183.176 255.597 167.877 273.724C149.807 295.255 130.763 314.907 103.32 323.917C96.0714 326.298 88.5294 328.075 80.8797 328.315C80.1253 313.98 86.9751 276.233 96.6063 265.46C102.784 258.551 110.158 252.619 116.465 245.782C126.952 234.414 178.027 173.863 181.093 163.449C180.894 161.835 180.218 160.294 178.895 159.293C178.287 158.833 177.614 158.693 176.85 158.795C174.741 159.075 172.738 161.296 171.433 162.793C165.616 169.469 160.512 177.285 155.053 184.316C135.015 210.127 113.471 238.99 88.4933 260.147C75.4438 271.2 59.9597 281.128 43.2165 285.119C39.2833 286.057 30.2773 288.388 26.5885 286.189C25.3861 285.473 25.1828 284.271 25.0631 282.987C24.7706 279.848 25.4361 276.364 25.8517 273.24C28.3329 254.589 35.3888 231.021 46.1833 215.469C53.2594 205.274 62.754 196.405 70.6617 186.802C73.0664 183.882 79.0733 177.87 75.0176 174.158C74.1534 173.368 73.2283 172.777 72.0204 172.957C70.5804 173.172 69.6532 173.872 68.6597 174.872C58.5546 185.042 49.5406 196.735 39.9558 207.448C26.9532 221.98 13.2287 235.881 0 250.212L0 195.546Z"/>
	<path fill="#FDFCFC" d="M954.436 770.906C962.017 772.541 969.237 775.483 976.485 778.187C992.606 784.202 1008.24 790.979 1024 797.869L1024 1024L867.822 1024C861.08 1019.02 854.876 1013.02 848.677 1007.38C839.102 998.66 829.641 989.917 820.426 980.816Q822.887 976.776 825.543 972.861C834.028 960.55 845.095 949.01 855.995 938.769C893.937 903.117 940.509 876.597 991.994 867.069C971.617 867.138 951.438 870.39 932.387 877.819C886.474 895.726 838.897 933.688 818.883 979.669C811.441 971.737 802.481 964.676 796.031 955.922C795.802 934.105 784.671 915.41 772.37 898.229C773.484 885.518 776.656 873.7 780.02 861.455C783.258 865.643 786.885 868.85 791.658 871.18C802.932 876.682 818.434 876.751 830.154 872.683C841.714 879.312 855.993 882.122 869.01 878.758C889.983 873.337 897.812 860.392 908.111 843.145C920.055 837.877 932.097 829.708 940.273 819.458C951.502 805.38 956.482 788.76 954.436 770.906Z"/>
	<path fill="#9F8BE8" d="M472.685 840.84C492.34 828.863 522.608 808.34 545.251 804.496C558.559 802.238 572.034 803.807 585.067 806.941C596.044 809.58 606.657 813.591 617.04 817.985C700.174 853.166 755.808 930.184 818.4 991.783C829.533 1002.74 840.836 1014.22 853.01 1024L758.503 1024C727.993 1003.28 701.948 977.564 675.092 952.513C631.422 911.78 582.905 873.832 526.081 853.449C509.136 847.37 490.824 841.227 472.685 840.84Z"/>
	<path fill="#9F8BE8" d="M0 406.398C14.8488 385.692 29.4865 364.533 42.1575 342.413C54.063 321.629 66.1211 294.693 80.8626 276.654C76.5287 289.077 67.168 320.743 72.4178 332.379C73.4016 334.56 74.965 335.978 77.2309 336.744C87.557 340.236 107.458 332.455 117.411 328.505Q111.408 341.347 104.833 353.906Q98.2577 366.465 91.1238 378.715Q83.9899 390.965 76.3118 402.882Q68.6336 414.798 60.4267 426.357C55.5106 433.326 50.6749 441.247 44.4625 447.122C32.3813 458.547 15.5862 467.732 0 473.578L0 406.398Z"/>
	<path fill="#9F8BE8" d="M0 531.756C8.34869 518.357 16.4854 504.575 23.8842 490.631C27.3749 484.053 33.2735 470.348 37.3325 465.14C39.1004 462.872 42.0363 461.475 44.1468 459.522C41.2161 473.041 37.9958 498.531 45.7313 510.798C47.221 513.161 49.3534 515.012 52.1264 515.63C62.6051 517.968 80.8082 507.627 89.7743 502.183C70.2876 552.22 48.3673 600.647 19.7384 646.205C13.7257 655.774 7.88154 666.186 0 674.335L0 531.756Z"/>
	<path fill="#9F8BE8" d="M0 265.853C7.66586 256.303 15.9311 246.854 24.8742 238.488C21.0606 249.955 11.3424 279.564 17.1168 290.329C18.5962 293.086 21.2292 294.796 24.1794 295.659C35.0511 298.841 49.3223 293.525 59.5637 290.13C43.8068 323.246 22.1753 360.248 0 389.148L0 265.853Z"/>
	<path fill="#9F8BE8" d="M0 484.135C7.31938 480.813 14.5476 477.041 21.9487 473.947Q12.1272 494.404 0 513.584L0 484.135Z"/>
	<path fill="#9F8BE8" d="M366.689 390.95C371.18 391.133 377.354 396.868 380.583 399.702C403.312 419.647 420.854 450.997 433.813 477.951C438.107 486.883 442.597 495.783 446.546 504.871Q450.46 513.953 454.08 523.157Q457.7 532.361 461.021 541.676Q464.343 550.992 467.362 560.41Q470.382 569.827 473.097 579.337Q475.812 588.847 478.219 598.44Q480.626 608.033 482.723 617.698Q484.82 627.363 486.605 637.09Q488.39 646.818 489.86 656.598C492.134 671.932 493.216 687.505 494.89 702.921C496.641 719.034 499.118 735.263 500.217 751.413C491.998 740.377 485.144 727.134 478.452 715.134C468.356 697.028 458.771 678.073 452.695 658.186C447.335 640.645 444.658 622.55 441.893 604.468C439.266 587.281 436.62 570.041 433.084 553.014C426.499 521.303 414.826 480.883 396.271 454.046C390.984 446.399 384.504 439.456 377.801 433.029C373.644 429.043 369.04 424.52 364.237 421.373L364.083 421.784C372.949 432.244 381.618 442.267 388.784 454.042C396.611 466.901 402.194 480.901 407.196 495.049C410.065 503.164 413.121 511.322 415.511 519.59C423.077 545.76 427.516 572.961 431.898 599.815C435.263 620.439 437.324 641.251 443.762 661.236C459.515 710.137 492.799 759.882 522.649 801.68C487.101 818.713 454.917 842.723 418.378 857.665C394.919 867.258 369.627 870.276 345.561 877.962C336.288 863.505 329.018 847.589 322.061 831.908C279.075 735.017 266.344 622.406 268.581 517.248L269.151 510.043C268.803 510.865 268.487 511.698 268.246 512.558C264.128 527.26 263.706 562 263.6 578.25C262.99 671.048 279.344 766.085 320.002 850.095C325.146 860.724 331.041 871.015 336.864 881.284C322.257 888.467 308.241 896.596 293.275 903.087C266.706 914.611 235.561 919.919 206.995 923.439C207.068 898.484 206.944 873.444 207.674 848.501Q209.089 802.602 212.88 756.837Q216.671 711.073 222.828 665.566Q229.26 617.697 240.578 570.743L240.174 570.79L240.761 569.49C234.133 586.573 229.746 604.921 225.426 622.711C206.356 701.25 200.235 781.517 198.553 862.108Q197.758 893.683 197.773 925.268C187.531 926.874 177.331 929.358 166.992 930.221C166.69 908.834 168.7 886.919 170.089 865.567C172.736 824.864 177.386 784.793 183.166 744.434C187.651 713.118 192.494 681.64 199.482 650.769Q207.366 616.75 217.998 583.487C222.714 568.573 227.532 553.564 233.476 539.09C260.296 473.776 299.762 418.971 366.689 390.95Z"/>
	<path fill="#4C347C" d="M761.459 594.102C755.376 597.229 749.124 601.699 744.755 607.007C740.71 611.922 737.621 618.94 738.509 625.449C738.663 626.574 738.642 626.58 739.611 627.249C741.807 624.372 742.932 620.732 744.499 617.489C748.756 608.677 755.928 602.518 763.59 596.641C776.247 586.933 788.638 581.591 804.817 583.852C816.497 585.484 823.191 590.41 830.186 599.681L831.167 599.778C843.447 601.003 854.872 604.567 862.893 614.523C876.959 631.983 872.378 659.417 870.281 679.979C880.414 663.127 881.404 643.893 877.946 625.013C888.138 630.123 896.777 635.29 904.159 644.164C920.089 663.314 918.553 690.235 916.444 713.617C925.679 699.641 926.173 686.501 924.817 670.284C927.628 672.277 930.052 674.586 932.333 677.164C943.014 689.238 948.197 704.024 944.734 720.005C942.83 728.792 940.122 737.396 940.456 746.487C940.89 758.29 946.24 769.316 945.421 781.315C944.304 797.677 937.355 811.204 925.046 821.971C905.702 838.891 884.581 844.459 859.352 842.854C871.2 849.576 883.562 849.732 896.653 847.054C889.338 858.062 879.37 867.661 866.114 870.659C854.403 873.308 842.707 869.937 832.802 863.543C812.958 850.732 809.078 826.716 804.391 805.399C803.736 809.587 803.108 813.809 802.837 818.042C801.623 836.978 808.282 851.308 820.435 865.257C812.551 866.24 804.321 866.571 797.007 862.9C789.286 859.024 784.544 847.779 781.965 840.047C776.217 822.819 777.861 809.06 785.876 793.005C791.464 791.137 796.404 788.868 800.657 784.686C806.887 778.562 812.042 768.437 811.92 759.58C811.85 754.541 809.951 749.964 806.223 746.538C800.007 740.826 790.173 739.033 781.973 739.597C775.007 740.076 765.992 742.638 761.446 748.234C759.699 750.385 759.142 752.478 759.477 755.196L758.901 755.331C758.033 754.954 757.925 754.735 757.383 753.994C755.119 741.925 768.019 708.762 774.55 698.287C777.787 700.939 780.681 703.364 785.009 703.932C785.913 704.051 787.058 704.245 787.78 703.652C785.131 699.387 780.696 695.516 777.48 691.6C773.027 686.176 769.069 680.353 764.654 674.897C760.266 669.476 755.351 664.482 751.076 658.97C749.386 656.792 747.696 654.487 746.321 652.096C745.251 650.236 744.496 647.74 742.985 646.207C740.095 643.271 735.123 644.177 731.744 641.122C727.304 637.107 725.191 631.388 724.995 625.487C724.733 617.622 727.845 610.135 733.204 604.462C740.92 596.295 750.651 594.335 761.459 594.102Z"/>
	<path fill="#261452" d="M810.245 650.428C810.407 652.243 809.764 654.777 809.615 656.669C809.098 663.244 809.76 669.31 811.622 675.657C815.692 689.538 824.133 701.307 837.966 706.612C841.807 708.086 846.483 708.414 850.046 710.378L849.987 710.958C847.03 712.927 839.93 711.991 836.495 711.318C824.691 709.004 817.024 702 810.429 692.335C812.392 705.293 815.738 716.67 822.441 728.005C830.685 740.635 842.831 744.626 856.8 747.934C854.255 748.49 851.716 748.939 849.111 749.065C839.302 749.537 829.753 745.32 822.601 738.728C809.189 726.365 804.654 705.679 804.059 688.187C803.685 677.208 802.288 658.934 810.245 650.428Z"/>
	<path fill="#261452" d="M789.265 598.174C791.399 597.895 793.976 597.81 795.996 598.579L796.152 599.13C793.763 602.04 788.733 602.656 785.474 604.335C782.372 605.933 779.212 607.964 776.484 610.141C770.756 614.71 766.675 620.75 765.973 628.207C764.912 639.47 771.915 650.766 779.356 658.689C782.415 661.944 785.904 664.818 788.777 668.24L789.073 668.6C783.444 667.85 777.925 665.121 773.487 661.628C765.624 655.44 759.25 645.386 758.081 635.346C757.094 626.865 759.264 617.252 764.639 610.527C770.571 603.104 780.04 599.245 789.265 598.174Z"/>
	<path fill="#261452" d="M916.473 730.801C916.638 730.962 916.826 731.104 916.968 731.286C922.913 738.868 923.892 757.11 922.212 766.352C919.966 778.71 912.448 790.696 902.054 797.793C893.984 803.304 885.19 805.649 875.539 803.843C872.998 803.117 870.986 802.038 868.75 800.689C881.764 799.469 892.109 797.193 901.614 787.557C911.554 777.48 917.905 765.215 917.651 750.868C917.532 744.165 916.512 737.52 916.473 730.801Z"/>
	<path fill="#261452" d="M878.905 807.756C879.47 807.882 879.991 808.13 880.526 808.346C880.779 809.579 880.604 810.176 879.949 811.27C875.911 818.014 867.279 822.757 859.822 824.463C849.922 826.729 840.236 824.439 831.807 819.065C829.969 817.398 828.305 815.493 826.6 813.691C831.739 816.089 837.21 817.921 842.822 818.795C857.431 821.073 867.427 816.169 878.905 807.756Z"/>
	<path fill="#9F8BE8" d="M331.363 79.709C343.021 78.155 355.433 80.4138 365.552 86.4166C374.707 91.8477 383.37 101.17 385.864 111.766C390.226 130.296 376.772 144.283 366.84 158.151Q359.234 168.936 352.506 180.289C321.593 232.068 304.885 293.527 319.927 353.317C318.759 355.577 317.602 357.837 316.704 360.22C310.851 375.76 314.95 391.084 321.414 405.579C317.976 408.117 314.729 410.888 311.456 413.631L307.92 416.625C286.85 396.843 266.797 366.958 257.639 339.482C252.262 323.346 250.381 306.998 250.378 290.077C250.37 245.231 264.304 208.424 286.01 169.681Q293.12 157.06 301.006 144.909C305.363 138.1 310.052 131.289 313.637 124.031C320.987 109.152 319.977 97.582 314.81 82.1304C320.172 80.8722 325.887 80.2218 331.363 79.709Z"/>
	<path fill="#FDFCFC" d="M728.833 647.954C731.69 649.754 734.577 650.6 737.834 651.386C738.998 665.372 759.868 678.76 766.965 691.719C765.076 699.365 762.813 707.019 760.351 714.499C757.457 723.294 747.113 746.466 752.719 755.277C753.309 756.205 753.715 756.538 754.836 756.702C756.366 756.926 757.722 756.177 758.901 755.331L759.477 755.196C759.648 755.159 759.82 755.126 759.99 755.086C764.091 754.139 767.868 752.079 771.808 750.635C779.534 747.804 790.539 746.727 797.834 751.246C800.468 752.877 802.254 755.307 802.796 758.378C803.775 763.918 800.975 770.409 797.724 774.844C792.46 782.026 785.284 785.42 776.604 786.612C772.607 787.161 757.656 788.244 754.468 786.238C751.167 784.16 752.8 775.903 749.45 776.238C748.814 776.301 748.095 776.575 747.749 777.125C746.165 779.639 745.924 784.49 746.666 787.316C747.246 789.527 748.77 791.235 750.735 792.351C757.071 795.947 769.224 795.694 776.552 795.514C768.489 810.412 769.077 827.777 773.805 843.64Q774.333 845.438 774.902 847.223C768.559 859.84 764.9 874.96 763.372 888.906C751.83 878.704 738.383 873.867 723.588 870.232C718.086 868.881 712.319 867.771 707.178 865.328C700.422 862.119 694.692 855.314 688.907 850.535C684.123 846.582 678.892 842.945 674.318 838.769C682.701 831.416 687.398 823.219 693.281 813.915C700.558 814.036 723.519 814.567 728.631 808.77C729.076 808.267 729.253 807.858 729.55 807.288C729.43 806.676 729.553 806.269 728.935 805.952C726.703 804.809 713.175 807.323 709.904 807.49C688.218 808.593 661.13 802.017 651.762 779.993C645.422 765.089 651.681 744.724 657.52 730.364Q657.855 729.557 658.223 728.764C661.117 733.526 664.084 738.444 669.983 739.706C672.45 740.233 677.884 740.278 680.017 738.741C680.666 738.273 680.697 737.994 681.021 737.304C680.559 736.021 679.711 735.371 678.505 734.808C673.39 732.422 666.642 731.602 664.15 725.798C663.05 723.237 662.952 720.586 664.016 717.996C665.802 713.647 669.874 710.435 673.323 707.422C672.064 701.641 672.099 696.563 672.873 690.687C682.162 691.522 689.503 691.684 697.186 685.281C702.541 680.818 705.788 674.689 709.826 669.13C715.334 661.547 721.714 654.05 728.833 647.954Z"/>
	<path fill="#261452" d="M785.22 755.032C786.719 755.114 788.164 755.227 789.517 755.947C790.987 756.729 791.944 758.174 792.363 759.756C793.332 763.42 791.759 767.841 789.724 770.877C787.645 773.979 783.958 776.73 780.214 777.325C778.68 777.57 777.747 777.376 776.529 776.444C775.898 773.081 781.484 769.55 783.065 766.797C783.686 765.715 784.145 764.88 783.771 763.686C781.951 763.972 780.469 765.326 779.013 766.395C775.784 768.715 766.69 777.845 763.512 778.109C762.666 778.179 762.533 777.781 761.948 777.264C761.763 776.034 761.713 775.567 762.223 774.379C765.418 766.942 777.747 757.959 785.22 755.032Z"/>
	<path fill="#261452" d="M725.606 665.983C727.844 665.927 729.464 666.007 731.406 667.21C736.361 670.277 739.48 676.133 740.608 681.714C741.386 685.562 741.371 690.018 739.175 693.394C738.183 693.242 736.593 693.149 735.785 692.526C735.48 692.291 734.997 691.502 734.843 691.229C732.932 687.853 733.759 683.087 732.11 679.52C730.361 675.739 724.846 672.34 723.713 669.073C723.653 668.902 723.639 668.718 723.602 668.541C724.085 667.131 724.44 666.951 725.606 665.983Z"/>
	<path fill="#261452" d="M701.378 690.122C702.736 690.09 704.147 690.017 705.502 690.131C708.813 690.411 712.044 691.938 714.109 694.587C716.206 697.277 717.112 701.086 716.476 704.439C716.209 705.846 715.835 706.39 714.725 707.24C713.263 707.055 713.143 706.716 712.064 705.675C706.748 691.983 701.118 700.42 695.32 697.341C695.085 696.204 695.362 695.566 695.81 694.536C696.883 692.071 698.958 690.98 701.378 690.122Z"/>
	<path fill="#FDFCFC" d="M512.272 259.569C513.353 259.739 514.436 259.912 515.505 260.152C528.671 263.118 525.256 277.275 526.101 287.115C526.547 292.303 528.012 297.401 530.899 301.778C534.331 306.98 539.549 310.021 545.573 311.292C568.664 316.164 593.612 302.707 612.202 290.576C621.736 298.695 632.578 302.679 645.026 303.947C659.951 305.468 674.879 302.019 686.57 292.496C680.698 316.031 671.559 338.524 651.18 353.148C644.604 357.868 637.019 362.592 632.567 369.547C627.755 377.063 625.369 385.858 623.264 394.425C622.131 399.034 621.308 404.205 618.813 408.31C612.575 410.919 603.852 399.261 596.513 399.217C593.421 399.199 591.203 400.866 589.039 402.881L588.58 403.315C585.686 406.912 584.197 411.799 580.701 414.834C579.87 414.964 579.303 414.852 578.545 414.523C575.152 413.052 569.745 409.356 568.448 405.824C567.517 403.29 567.289 400.612 566.187 398.108C565.671 396.935 565.06 395.598 563.738 395.193C562.563 394.833 561.392 394.982 560.357 395.677C559.138 396.495 558.483 397.987 558.161 399.372C555.652 410.173 565.803 412.05 570.091 419.339C570.798 420.541 571.042 421.39 570.706 422.74C570.262 423.12 570.165 423.252 569.563 423.503C567.028 424.562 563.993 422.869 561.758 421.805C561.088 420.658 560.222 418.736 559.223 417.872C558.216 417.002 557.515 417.079 556.313 417.169C555.834 417.595 555.675 417.688 555.293 418.282C553.885 420.474 554.907 423.588 555.622 425.783C551.346 431.367 546.444 439.069 540.101 442.366C537.682 443.625 534.964 444.086 532.333 443.233C522.096 439.914 512.015 420.905 507.622 411.804C494.786 385.214 493.687 361.513 503.457 333.569C504.566 332.896 505.71 332.07 506.635 331.157C507.495 330.308 508.068 329.208 507.899 327.969C507.466 324.785 500.954 322.471 498.515 320.659C492.796 316.408 489.19 306.579 488.247 299.779C486.728 288.822 491.361 276.507 497.923 267.87C496.798 273.879 494.723 281.574 498.563 287.039C499.536 288.424 500.476 288.939 502.097 289.271C505.545 287.101 502.864 281.205 502.771 277.806C502.696 275.087 503.227 272.378 504.135 269.822C505.595 265.716 508.239 261.48 512.272 259.569Z"/>
	<path fill="#261452" d="M595.15 332.577C604.098 333.727 604.278 350.356 611.517 353.214C616.096 355.022 620.623 349.323 624.664 347.675C625.957 347.148 626.58 347.098 627.87 347.571C628.244 348.42 628.369 348.895 628.306 349.847C627.934 355.448 619.519 358.483 615.974 361.663C615.823 361.798 615.69 361.951 615.547 362.095C615.578 364.11 615.87 366.7 615.157 368.605C614.721 369.772 614.189 370.198 613.073 370.603C612.894 370.508 612.705 370.432 612.537 370.318C610.51 368.947 610.129 365.885 609.617 363.658C609.075 365.226 608.582 367.149 607.643 368.522C606.994 369.473 606.743 369.579 605.689 369.769C605.564 369.627 605.423 369.499 605.315 369.344C603.641 366.95 604.378 363.171 604.591 360.423C601.242 358.63 597.425 357.89 595.811 354.149L596.095 353.453C597.079 353.33 597.826 353.19 598.732 352.779C599.809 348.116 591.875 342.035 595.15 332.577Z"/>
	<path fill="#261452" d="M608.556 310.69C614.089 309.9 619.742 310.79 624.941 312.742C634.476 316.322 642.746 323.425 646.837 332.884C648.777 337.37 648.97 340.932 647.258 345.482C646.4 345.748 645.91 345.941 645.004 345.718C642.603 345.127 637.527 333.746 635.743 331.121C630.193 322.955 619.126 316.684 610.442 312.337C609.52 311.876 609.072 311.639 608.556 310.69Z"/>
	<path fill="#9F8BE8" d="M561.885 139.726Q563.756 139.655 565.628 139.645Q567.5 139.634 569.371 139.684Q571.242 139.734 573.111 139.843Q574.98 139.953 576.844 140.122Q578.708 140.292 580.566 140.521Q582.424 140.75 584.274 141.038Q586.124 141.327 587.963 141.675Q589.802 142.022 591.63 142.429Q593.457 142.836 595.27 143.301Q597.083 143.766 598.881 144.288Q600.678 144.811 602.458 145.392Q604.238 145.972 605.998 146.609Q607.759 147.246 609.497 147.939Q611.236 148.632 612.952 149.381Q614.668 150.13 616.359 150.933Q618.05 151.736 619.714 152.593C651.585 169.117 678.096 201.99 689 236.212C643.213 240.809 625.504 229.345 587.387 210.024C574.312 203.396 560.613 197.999 545.913 196.552C532.512 195.233 519.803 196.801 509.127 205.528C499.222 205.348 490.192 206.962 480.703 209.791C469.253 213.206 458.8 217.946 451.793 228.068C449.338 231.615 447.388 235.568 444.645 238.907C440.611 243.819 434.692 247.912 429.864 252.114C416.094 264.669 410.061 280.488 403.374 297.345C400.761 303.932 398.435 310.497 393.544 315.785C371.977 314.795 356.928 316.365 339.519 330.581C342.557 315.169 349.172 302.065 363.033 293.804C368.962 290.271 375.355 287.55 381.233 283.92C392.669 276.859 402.967 266.172 409.825 254.638C453.53 234.135 445.799 211.391 471.616 182.01C494.714 155.723 527.294 141.824 561.885 139.726Z"/>
	<path fill="#9F8BE8" d="M104.093 491.788C104.847 492.512 104.765 492.756 104.78 493.837C104.98 508.605 99.3909 527.036 105.804 541.032C107.108 543.877 109.205 546.269 112.222 547.315C121.709 550.601 134.889 542.611 143.193 538.681C136.974 553.082 129.706 566.967 122.665 580.976C104.24 617.629 85.0901 654.125 53.6019 681.407C46.8808 687.214 39.5317 692.443 31.2562 695.753C24.5682 688.242 20.6707 679.168 16.3726 670.185C20.6103 661.889 26.4923 654.373 31.1507 646.291C44.8577 622.51 58.2577 598.767 70.0965 573.972C77.695 558.058 84.4274 541.471 90.7074 524.999C94.293 515.593 98.9196 499.877 104.093 491.788Z"/>
	<path fill="#9F8BE8" d="M132.223 321.376C132.685 324.789 130.811 330.278 130.178 333.757C127.659 347.623 123.767 364.449 125.622 378.535C126.816 380.243 128.131 381.819 130.048 382.749C137.898 386.557 152.371 380.541 160.185 378.133Q152.001 398.973 142.035 419.021Q132.068 439.07 120.396 458.176C116.581 464.452 112.805 471.386 107.869 476.856C101.092 484.366 91.1219 490.922 82.5896 496.339Q81.4989 496.945 80.3983 497.533C74.4934 500.687 61.2373 507.667 54.4602 505.593C53.0075 504.401 52.528 503.066 52.1068 501.279C49.1098 488.562 51.5305 461.862 56.0813 449.311C58.092 443.765 63.5085 438.265 66.8981 433.417C73.5985 423.832 80.3116 414.054 86.5444 404.161Q103.445 376.757 118.429 348.26C123.093 339.41 126.889 329.812 132.223 321.376Z"/>
	<path fill="#9F8BE8" d="M177.439 371.442L177.937 371.515C178.796 373.188 167.049 410.384 171.557 421.697C172.585 424.275 174.429 426.301 176.994 427.392C185.754 431.117 202.873 424.463 211.444 421.258C207.45 430.617 204.211 440.314 200.268 449.706C195.893 460.123 190.765 470.303 185.887 480.495C181.974 488.671 177.959 498.046 172.123 505.016C165.539 512.879 156.933 518.889 148.436 524.497Q144.187 527.164 139.822 529.639C135.1 532.328 121.904 540.073 116.376 537.801C115.344 537.377 114.712 536.579 114.217 535.599C109.667 526.611 113.847 490.443 117.756 480.38C120.478 473.372 127.532 464.718 131.435 457.809C145.484 432.939 163.525 401.398 171.594 374.321L177.439 371.442Z"/>
	<path fill="#FDFCFC" d="M495.769 330.342C496.208 332.558 492.18 341.66 491.383 344.413Q489.384 351.534 488.269 358.845C486.231 372.88 488.584 387.144 492.824 400.533C483.728 408.991 457.362 435.847 452.691 446.764C451.455 449.654 451.346 452.811 452.47 455.724C453.452 456.62 453.422 456.629 454.746 456.679C456.356 455.964 456.87 454.774 457.719 453.322L458.094 452.668Q458.958 456.45 459.649 460.267Q460.341 464.084 460.86 467.928Q461.378 471.773 461.722 475.637Q462.066 479.501 462.235 483.376Q462.404 487.252 462.397 491.131Q462.39 495.01 462.208 498.885Q462.026 502.76 461.669 506.623Q461.312 510.485 460.78 514.328Q451.212 492.619 440.997 471.206C430.366 450.098 417.202 428.536 402.447 410.052C398.457 405.054 394.122 399.991 389.416 395.632C386.918 393.318 382.213 390.751 380.731 387.712C384.472 385.397 413.452 388.449 420.363 388.24C428.154 388.004 435.937 387.078 443.454 384.969Q444.354 384.711 445.247 384.43Q446.14 384.149 447.026 383.845Q447.912 383.541 448.789 383.214Q449.666 382.887 450.535 382.538Q451.403 382.188 452.263 381.816Q453.122 381.444 453.971 381.05Q454.82 380.655 455.659 380.239Q456.498 379.823 457.325 379.385Q458.153 378.947 458.969 378.488Q459.785 378.029 460.589 377.549Q461.393 377.069 462.184 376.568Q462.975 376.067 463.752 375.545Q464.53 375.024 465.294 374.483Q466.058 373.941 466.808 373.38Q467.557 372.819 468.292 372.239Q469.027 371.659 469.747 371.06Q470.466 370.461 471.17 369.843Q471.873 369.225 472.561 368.59Q473.248 367.954 473.919 367.301Q474.59 366.647 475.243 365.977Q475.897 365.306 476.533 364.619Q477.168 363.932 477.786 363.228Q478.404 362.525 479.003 361.805Q479.603 361.086 480.183 360.351Q480.763 359.617 481.325 358.867Q481.886 358.117 482.427 357.354Q482.969 356.59 483.49 355.812Q484.012 355.035 484.513 354.244Q485.014 353.453 485.494 352.649Q485.975 351.845 486.434 351.03Q486.894 350.214 487.332 349.386Q487.77 348.559 488.186 347.72C491.018 342.085 492.674 335.804 495.769 330.342Z"/>
	<path fill="#9F8BE8" d="M169.429 521.471C169.47 522.203 169.498 521.909 169.367 522.618C167.459 532.954 165.052 545.99 167.422 556.309C168.286 560.073 170.023 563.787 173.457 565.825C178.593 568.874 184.911 567.221 190.325 565.96C186.496 575.066 181.261 583.838 176.627 592.573C160.37 623.212 143.436 653.71 114.213 673.963C112.385 675.176 110.423 676.436 108.461 677.41C106.935 678.167 104.837 678.843 103.212 678.021C97.5312 675.148 94.1965 659.483 92.8096 653.5C95.9067 647.322 100.15 641.53 103.645 635.537Q116.23 614.129 127.801 592.156C134.749 578.85 141.416 565.139 147.855 551.581C150.9 545.168 153.514 537.879 157.227 531.849C159.746 527.758 165.697 524.603 169.429 521.471Z"/>
	<path fill="#9F8BE8" d="M489.778 243.131C498.516 242.621 507.047 245.653 513.951 250.98C509.226 251.051 504.927 251.471 500.6 253.578C488.158 259.638 481.031 276.955 479.474 289.944C478.807 295.507 479.89 300.339 477.877 305.823C473.874 316.726 467.136 327.012 458.302 334.592C424.709 363.416 400.047 327.448 364.029 344.345C348.896 351.445 340.896 363.852 335.431 379.129C333.806 384.601 332.75 390.027 332.509 395.737C332.445 397.233 332.747 398.342 331.818 399.55C330.788 399.907 330.23 400.272 329.194 399.63C326.007 397.656 324.36 390.135 323.7 386.62C321.586 375.369 323.554 362.941 330.219 353.483C343.447 334.713 363.316 326.263 385.815 325.646C394.294 325.413 402.756 326.421 411.179 324.953C448.237 318.495 439.934 288.392 456.6 264.823C464.391 253.806 476.43 245.487 489.778 243.131Z"/>
	<path fill="#9F8BE8" d="M226.22 412.337C226.32 412.432 226.446 412.507 226.521 412.624C227.673 414.427 217.263 448.86 224.283 462.115C225.734 464.854 227.986 466.97 231.007 467.831C240.686 470.59 259.23 461.678 267.335 456.858C255.938 473.679 245.852 490.648 236.991 508.939C232.79 517.612 229.909 527.596 224.824 535.716C222.886 538.81 219.383 540.962 216.491 543.08C206.959 549.39 194.98 556.408 183.548 558.366C181.824 558.661 179.532 558.874 178.098 557.649C176.32 556.13 175.874 553.409 175.802 551.199C175.392 538.631 179.038 518.952 182.978 507.047C186.03 497.827 191.61 489.147 196.051 480.528C202.358 468.288 208.012 456.087 213.133 443.307C215.992 436.17 221.585 417.229 226.22 412.337Z"/>
	<path fill="#9F8BE8" d="M502.373 214.213C531.815 211.916 559.872 237.385 585.074 249.707Q589.409 251.83 593.9 253.596Q598.392 255.363 603.012 256.76Q607.632 258.158 612.35 259.178Q617.067 260.198 621.852 260.834C632.543 262.26 643.699 262.17 654.287 260.069C637.725 270.702 626.575 274.008 606.946 274.719C564.339 276.219 548.917 257.731 514.852 240.015C497.035 230.749 477.156 228.707 458.094 234.728Q459.733 232.017 461.811 229.626C471.353 218.863 488.714 215.12 502.373 214.213Z"/>
	<path fill="#9F8BE8" d="M483.33 316.826C485.529 318.978 487.361 322.421 489.128 324.993C486.13 332.763 482.955 340.623 478.438 347.651C464.559 369.246 441.568 379.121 416.452 378.973C404.132 378.901 391.937 376.635 379.623 378.368C366.455 380.222 354.299 386.006 342.676 392.173C342.601 391.894 342.49 391.624 342.451 391.338C341.679 385.694 347.572 372.83 350.54 368.028C354.264 362.004 359.973 356.972 366.314 353.848C392.583 340.907 413.891 360.77 439.465 354.654C459.84 349.781 472.868 333.826 483.33 316.826Z"/>
	<path fill="#FDFCFC" d="M641.351 762.441C641.718 772.286 643.622 782.049 648.957 790.49C657.174 803.491 670.666 810.315 685.245 813.578C679.208 823.454 674.1 827.465 663.948 832.568C663.892 832.529 663.835 832.491 663.779 832.451C658.238 828.443 652.203 825.244 646.247 821.904C628.049 812.356 611.355 804.752 591.503 799.125C594.382 795.696 597.908 792.628 601.22 789.612C613.865 778.097 626.108 770.171 641.351 762.441Z"/>
	<path fill="#9F8BE8" d="M467.884 457.863C471.058 461.562 473.003 467.843 474.58 472.414C483.334 497.781 487.431 524.371 491.482 550.796Q497.946 590.677 501.419 630.928Q503.74 657.02 503.484 683.213L502.991 683.1L503.087 684.011L503.438 683.881L503.118 684.317L503.074 684.769L502.606 683.015L503.031 683.768L503.027 683.54L502.555 682.888L502.61 682.488C499.653 664.6 497.806 646.602 494.394 628.755Q490.718 609.828 485.9 591.16Q481.082 572.491 475.139 554.15C472.449 545.961 469.166 537.961 466.294 529.831C470.417 511.149 472.724 492.84 470.477 473.734C469.85 468.402 468.709 463.163 467.884 457.863Z"/>
	<path fill="#9F8BE8" d="M531.818 205.679C557.211 201.179 589.236 221.912 611.601 232.495C620.336 236.628 629.559 240.247 638.942 242.593C650.821 245.563 663.883 246.256 676.077 245.59C681.715 245.281 687.322 244.45 692.976 244.507L693.757 244.518C689.861 246.834 685.212 247.664 680.848 248.731C655.427 253.781 624.402 256.591 600.053 246.456C586.916 240.987 575.517 233.207 563.318 226.064C550.068 218.306 537.088 211.599 522.218 207.458C525.397 206.661 528.579 206.16 531.818 205.679Z"/>
	<path fill="#9F8BE8" d="M217.296 553.5L217.679 553.915C216.574 558.733 214.607 563.29 213.017 567.954C210.332 575.826 207.81 583.761 205.247 591.674C200.776 605.482 197.4 619.704 193.604 633.714C188.799 637.455 181.37 645.666 175.115 645.952C172.359 646.077 170.636 643.919 168.867 642.15C166.875 639.903 164.998 637.577 163.122 635.234C173.419 619.422 181.713 603.077 190.319 586.319C194.529 578.121 199.17 570.144 203.027 561.769C208.225 559.514 212.698 556.812 217.296 553.5Z"/>
	<path fill="#9F8BE8" d="M691.35 254.535C691.817 254.488 692.212 254.644 692.662 254.76C694.308 259.556 691.659 270.418 689.741 274.95Q689.449 275.651 689.122 276.336Q688.796 277.022 688.436 277.69Q688.077 278.359 687.684 279.009Q687.292 279.659 686.868 280.288Q686.444 280.918 685.99 281.526Q685.535 282.135 685.051 282.72Q684.568 283.305 684.056 283.865Q683.543 284.426 683.004 284.96Q682.465 285.495 681.9 286.002Q681.336 286.509 680.746 286.988Q680.157 287.467 679.545 287.916Q678.933 288.365 678.3 288.784Q677.666 289.202 677.013 289.589Q676.36 289.976 675.688 290.33Q675.017 290.684 674.328 291.004Q673.64 291.325 672.937 291.611C658.719 297.479 641.802 296.2 627.817 290.396C623.964 288.446 621.153 286.595 618.328 283.243C632.207 281.667 644.087 277.09 656.047 269.887C660.928 266.947 665.734 263.603 670.896 261.183C677.312 258.175 684.547 256.469 691.35 254.535Z"/>
	<path fill="#9F8BE8" d="M390.549 257.789L398.034 257.345C392.541 263.643 386.851 269.2 379.832 273.797C359.685 286.99 344.755 288.643 334.605 313.501C332.111 319.609 330.755 325.513 330.062 332.053C329.809 334.437 330.056 337.836 329.278 340.021C329.207 340.22 329.126 340.415 329.05 340.612C328.302 341.526 327.881 342.366 326.748 342.772L326.057 340.505L327.1 340.224L327.098 339.927L325.927 339.76Q325.119 334.69 324.644 329.578Q324.497 327.787 324.438 325.991Q324.38 324.194 324.409 322.397Q324.438 320.6 324.556 318.807Q324.673 317.014 324.879 315.228Q325.084 313.443 325.377 311.67Q325.67 309.897 326.05 308.14Q326.429 306.383 326.894 304.647Q327.36 302.911 327.91 301.2Q328.46 299.489 329.093 297.807Q329.726 296.125 330.441 294.477Q331.156 292.828 331.951 291.216Q332.746 289.604 333.62 288.033Q334.493 286.463 335.442 284.937Q336.391 283.411 337.414 281.933Q338.437 280.455 339.532 279.03Q340.626 277.604 341.789 276.234C354.865 260.713 371.677 259.324 390.549 257.789Z"/>
	<path fill="#9F8BE8" d="M470.731 240.618L471.086 240.683C470.145 242.331 463.729 245.165 461.647 246.726C456.413 250.65 451.645 255.536 448.01 260.984C444.45 266.321 441.851 272.278 439.72 278.311C436.597 287.15 434.502 299.395 428.202 306.478C422.527 312.857 415.057 315.451 406.751 315.958C406.158 315.58 406.499 315.851 405.856 315.006C406.941 309.578 421.178 278.571 424.356 273.403C435.13 255.883 450.903 245.434 470.731 240.618Z"/>
	<path fill="#9F8BE8" d="M528.646 257.324C534.425 259.721 539.651 264.875 545.09 268.094C565.217 280.005 582.995 283.118 606.012 283.71C603.869 285.315 601.561 286.617 599.252 287.964C590.204 293.217 579.405 294.552 569.211 292.683C545.331 288.305 540.934 275.231 528.646 257.324Z"/>
	<path fill="#9F8BE8" d="M721.006 879.351C730.293 879.9 741.6 884.753 749.339 889.769C764.946 899.885 780.483 924.795 784.211 942.665C781.308 940.587 778.732 936.981 776.302 934.292Q768.961 926.11 761.405 918.127C748.382 904.589 734.835 892.037 721.006 879.351Z"/>
	<path fill="#9F8BE8" d="M534.844 283.704C536.54 284.694 538.055 286.386 539.596 287.645C544.383 291.554 549.36 295.114 555.197 297.283C560.217 299.149 565.772 298.909 570.66 300.775L569.895 301.396Q564.822 302.713 559.614 303.31C553.457 303.961 545.619 304.016 540.679 299.748C536.047 295.747 535.411 289.404 534.844 283.704Z"/>
	<path fill="#9F8BE8" d="M696.69 284.859C696.884 285.047 697.106 285.211 697.273 285.424C700.196 289.149 700.433 296.557 700.126 301.15C699.529 310.078 694.82 316.8 688.3 322.451L687.34 323.246L686.785 323.016C687.644 318.198 690.733 313.241 692.14 308.386C694.409 300.554 695.158 292.801 696.69 284.859Z"/>
	<path fill="#9F8BE8" d="M701.06 263.323C702.572 265.142 703.545 267.752 704.427 269.934C706.517 275.104 710.727 286.912 708.373 292.389C706.776 285.278 705.349 279.354 699.806 274.213Q700.367 268.76 701.06 263.323Z"/>
</svg>
